<svg xmlns="http://www.w3.org/2000/svg" width="100" height="100" viewBox="0 0 100 100"><g fill-rule="evenodd" clip-rule="evenodd"><path fill="#861719" d="M9.447 49.945C9.096 28.819 26.193 9.456 49.863 9.306c22.604-.149 40.645 18.173 40.629 40.629-.016 22.392-18.185 40.566-40.52 40.535-22.403-.031-40.536-18.158-40.525-40.525zm40.402-37.986c-20.935.072-38.002 17.103-37.893 37.95.113 20.65 16.304 38.113 38.305 37.938 22.115-.174 37.796-18.034 37.713-38.356-.083-20.667-17.293-37.604-38.125-37.532z"/><path fill="#B3CE5B" d="M74.646 74.795c-11.688 13.424-36.033 13.754-48.01 1.164 2.962-2.082 5.877-4.157 8.819-6.207 3.714-2.597 7.418-5.213 11.184-7.742 1.252-.846 1.463-1.565.551-2.85-2.973-4.192-5.141-8.793-5.43-13.97-.16-2.972.365-5.98.644-8.969.066-.689.371-1.354.731-2.617-3.543 2.359-6.728 4.307-10.544 1.757 1.066-.062 2.143-.051 3.199-.211 1.432-.221 2.828-.809 2.828-2.488 0-1.777-1.422-2.416-2.962-2.544-.897-.072-1.839.082-2.72.299-2.194.536-4.368 1.164-6.609 1.767.531 4.914 6.135 7.222 13.683 4.976-7.341 8.536-15.485 15.563-23.506 22.878-3.771-8.341-2.081-23.166 6.625-33.201 9.375-10.803 23.897-13.832 32.247-11.447-1.271 2.494-2.534 4.919-3.76 7.372-1.201 2.405-2.431 4.801-3.549 7.253-4.456 9.777-2.602 18.879 3.286 27.365 5.362 7.736 12.78 12.929 21.476 16.37.484.19.974.387 1.442.618.16.082.257.282.375.427z"/><path fill="#861719" d="M79.236 30.467c-3.472-2.246-7.088-3.482-11.229-2.575-4.914 1.066-8.392 4.832-8.273 9.844.083 3.349 1.015 6.682 1.653 10.009.176.917.665 1.778.773 2.797-2.967-2.473-5.224-5.444-6.898-8.865-2.245-4.574-2.193-9.288-.494-13.965 1.278-3.513 2.777-6.949 4.317-10.354.242-.531 1.38-1.159 1.864-1.004 7.738 2.528 13.883 7.196 18.287 14.113zM83.348 39.488c3.956 7.953 1.669 23.279-4.106 29.583-.974-2.251-1.303-4.496-.947-6.747.376-2.391.896-4.786 1.669-7.068 1.735-5.131 3.939-10.132 3.384-15.768z"/><path fill="#B3CE5B" d="M43.255 60.098c-.521.711-.83 1.386-1.35 1.809-5.094 4.131-10.246 8.195-15.325 12.342-1.53 1.253-2.195.057-3.035-.813-1.046-1.092-.242-1.71.583-2.364 5.022-4.008 10.014-8.063 15.093-12.007.659-.511 1.772-.69 2.627-.599.485.051.876.972 1.407 1.632zM39.438 55.534c-.587.727-.979 1.422-1.556 1.885-5.007 4.044-10.05 8.047-15.073 12.075-.773.618-1.525 1.2-2.262.005-.587-.947-1.736-1.886-.303-3.034 5.223-4.199 10.431-8.411 15.711-12.538.484-.382 1.535-.402 2.143-.155.535.222.83 1.045 1.34 1.762zM18.652 65.497c-2.2-2.716-2.143-3.375.242-5.28l12.457-9.968c.252-.206.505-.422.767-.613 1.01-.736 2.097-1.005 2.983.066.927 1.123.567 2.174-.531 3.051-3.436 2.75-6.851 5.517-10.282 8.267-1.834 1.473-3.684 2.926-5.636 4.477z"/></g></svg>