<svg xmlns="http://www.w3.org/2000/svg" width="150" height="150" viewBox="0 0 150 150"><path fill="#172C54" d="M83.388 42.223a6.281 6.281 0 0 0 .67-2.17 6.471 6.471 0 1 0-12.85-1.558 6.428 6.428 0 0 0 .79 3.937c-2.56.333-5.217.858-7.977 1.595C29.425 53.274 21.866 90.65 21.866 90.65c15.643-33.36 34.135-35.716 45.281-36.83 18.242-1.816 37.864 11.885 45.41 34.724 6.053-.026 8.934-.927 16.131-2.075-1.917-8.699-14.732-41.193-45.3-44.246"/><path fill="#172C54" d="M94.874 102.645c30.18-1.946 39.488-10.777 45.184-15.802-16.521 4.721-32.014 6.149-62.661 7.773-28.18 1.482-41.425.274-64.952-5.107 15.357 10.424 36.891 14.223 73.936 13.49.397-.004.772-.021 1.164-.03-3.732.155-7.69.301-11.906.446-31.515 1.065-46.356-.334-72.784-6.049 17.347 10.648 41.511 14.764 82.959 14.579 41.433-.182 52.985-10.029 59.853-15.425-14.617 3.571-28.542 5.07-50.793 6.125"/><path fill="#E82325" d="M64.541 61.136c-2.777.263-5.474.32-8.03.202a15.788 15.788 0 0 0-.152 4.111c.596 6.459 4.896 11.337 9.594 10.908 4.701-.437 8.023-6.028 7.425-12.487a15.313 15.313 0 0 0-.904-4.009 57.54 57.54 0 0 1-7.933 1.275M67.605 94.125c2.235-.201 4.372-.046 6.236.393a7.28 7.28 0 0 0-6.472-2.842 7.239 7.239 0 0 0-5.822 3.986c1.748-.778 3.819-1.329 6.058-1.537"/><path fill="#E82325" d="M68.605 93.26l-2.15.198-1.72-18.512 2.156-.2zM82.523 64.48a47.558 47.558 0 0 1-6.229-1.974 12.525 12.525 0 0 0-1.206 3.118c-1.25 5.124.754 10.025 4.482 10.938 3.733.917 7.773-2.508 9.027-7.633.277-1.131.396-2.254.362-3.329a47.308 47.308 0 0 1-6.436-1.12M76.121 90.673c1.779.436 3.376 1.119 4.694 1.957a5.897 5.897 0 0 0-4.219-3.904 5.917 5.917 0 0 0-5.542 1.518c1.558-.132 3.285-.01 5.067.429"/><path fill="#E82325" d="M79.003 75.15l1.714.415-3.57 14.705-1.713-.416zM47.698 68.136a47.183 47.183 0 0 0 5.76-3.089 12.637 12.637 0 0 1 1.758 2.852c2.174 4.805 1.1 9.987-2.393 11.571-3.508 1.583-8.101-1.033-10.277-5.849a12.549 12.549 0 0 1-.977-3.202 47.133 47.133 0 0 0 6.129-2.283M58.802 92.709c-1.668.749-3.109 1.72-4.253 2.782a5.888 5.888 0 0 1 3.426-4.607 5.883 5.883 0 0 1 5.728.472c-1.547.153-3.232.594-4.901 1.353"/><path fill="#E82325" d="M59.341 91.771l-1.604.724-6.22-13.786 1.605-.724z"/></svg>