<svg xmlns="http://www.w3.org/2000/svg" width="150" height="150" viewBox="0 0 150 150"><path fill="#F7AA1A" d="M133.043 34.572c-9.791-14.492-23.974-24.253-39.579-28.685 10.91 4.753 20.649 12.57 27.805 23.17 20.046 29.681 12.24 70.012-17.451 90.055-29.692 20.053-70.009 12.232-90.057-17.443C7.043 91.723 3.458 80.615 2.762 69.464a71.035 71.035 0 0 0 12.043 44.974c22.053 32.654 66.41 41.238 99.056 19.188 32.657-22.052 41.238-66.397 19.182-99.054z"/><path fill="#F16D54" d="M101.326 114.941c12.252-8.271 20.494-20.268 24.234-33.438a54.656 54.656 0 0 1-19.561 23.482c-25.084 16.943-59.145 10.352-76.091-14.734-16.936-25.078-10.34-59.149 14.744-76.096a54.454 54.454 0 0 1 27.185-9.267c-12.955-.943-26.342 2.323-37.968 10.178C6.272 33.703-.973 71.15 17.652 98.729c18.633 27.578 56.081 34.851 83.674 16.212z"/><path fill="#F7AA1A" d="M26.447 50.608c-2.309 11.952-.14 23.699 5.354 33.528-3.039-7.689-3.977-16.302-2.288-25.018 4.734-24.423 28.375-40.385 52.793-35.663 24.429 4.748 40.391 28.375 35.657 52.798a44.758 44.758 0 0 1-10.431 21.213c8.1-6.994 13.979-16.664 16.193-27.998 5.184-26.878-12.359-52.856-39.223-58.072-26.855-5.194-52.849 12.365-58.055 39.212z"/><path fill="#869B3B" d="M78.286 65.328c1.398-3.359 3.848-6.87 8.57-8.639 0 0 .028-.024.044-.03a9.892 9.892 0 0 0 5.526-4.589c.079-.156.267-.573.267-.573l7.369-19.996-2.041-.966-9.996 21.45-2.047-.96 10-21.444-2.213-1.023-10.048 21.576-2.038-.952L91.73 27.603l-2.348-1.1-10.06 21.579-2.043-.96L87.34 25.546l-1.865-.875-10.082 17.52s-.381.661-.505.914a9.883 9.883 0 0 0 .093 8.543c1.029 3.47.807 6.347.088 8.788-9.155-13.922-21.08-32.05-21.08-32.05l-1.53.984s-4.438 9.405 16.009 41.828a89545.94 89545.94 0 0 1-14.909 32.006c-.011.033-.028.045-.044.072a3.828 3.828 0 0 0 1.859 5.096 3.821 3.821 0 0 0 5.087-1.854c.011-.023.011-.045.017-.066l.011.01 14.643-31.421c4.284 1.187 5.554 6.88 5.642 7.857 1.193 1.822 13.576 20.4 13.576 20.4l.014-.021c.006.027.006.049.033.07a3.674 3.674 0 0 0 5.123 1.064 3.707 3.707 0 0 0 1.045-5.135s-.02-.043-.035-.043v-.021S86.739 78.181 85.36 76.091c-.366-.561-3.237-4.929-7.074-10.763z"/><path fill="#869B3B" d="M112.533 53.57c.162-.463.312-.993.431-1.423.129-.464.217-.809.217-.809h-.003v-.003s-.523.033-1.193.112c-.014.003-.021.003-.033.003-.029.005-.062.011-.093.014-.356.044-.735.102-1.11.173-.332.06-.658.131-.93.217-.538.172-1.158.469-1.698.746-.666.34-1.196.647-1.204.653 0-.008-.024-.406.003-.845.009-.115.003-.216.022-.332.008-.066.035-.162.055-.244.14-.612.463-1.547.463-1.547l-.005.002.003-.005s-1.838.776-2.664 1.253c-.828.477-2.133 1.881-2.139 1.884-.003-.005-.187-.337-.094-.905a9.368 9.368 0 0 1 .316-1.185l-.004.002v-.005s-.847.387-1.787.834a42.14 42.14 0 0 0-1.811.899c-1.242.667-2.935 2.345-2.945 2.356.002-.014.062-.582.131-1.091l.053-.354c.088-.551.241-1.253.241-1.253s-.894.686-1.747 1.41c-.244.203-.485.414-.699.609l-.003.003c-.968.886-2.269 2.501-2.273 2.509 0-.005-.014-.181-.036-.422-.014-.156-.027-.318-.049-.524-.063-.54-.129-1.056-.129-1.056l-.34.488c-.473.672-1.309 1.887-1.597 2.479-.31.62-.834 1.887-1.081 2.49l-.134.332s-.337-.526-.444-1.19a8.94 8.94 0 0 1-.121-1.22l-.002.005v-.008s-2.315 6.851-1.809 12.007c.138 1.396.438 2.696 1.098 3.667.354.51.752.987 1.18 1.421l.002.002c.264-.54.552-1.066.859-1.579-.656-2.269-.854-3.694-.826-4.942.008-.31.025-.686.05-1.078.085-1.314.271-2.913.645-3.629a17.186 17.186 0 0 0-.318 2.403c-.055.935-.047 1.991.126 3.042.23 1.325.302 1.922.523 2.605.08.239.174.488.299.784l.004-.002a35.044 35.044 0 0 1 2.389-3.239c.14-.175.287-.348.434-.521l.041-.049a16.168 16.168 0 0 1-.359-3.543c.006-.463-.03-.949.052-1.374.337-1.714.845-3.733 1.421-4.61-.211.557-.467 1.681-.656 2.88-.156.974-.273 1.994-.26 2.808v.003c0 .058.014.088.014.143a9.09 9.09 0 0 0 .34 2.304c.049.192.09.381.146.587l.003-.002v.005c.586-.658 1.223-1.256 1.838-1.881.611-.625 1.201-1.278 1.837-1.879a20.32 20.32 0 0 1-.165-2.128c0-.044-.008-.087-.008-.131 0-.055.017-.099.017-.154.005-.694.058-1.371.228-1.972.258-.924.59-1.931.938-2.732.192-.444.391-.839.582-1.086-.129.274-.291.757-.453 1.294-.323 1.07-.646 2.449-.721 3.489-.091 1.256.085 1.898.246 2.858a82.868 82.868 0 0 1 4.557-3.497 87.027 87.027 0 0 1 4.717-3.135 85.694 85.694 0 0 0-7.492 6.412h.005l-.003.003c.4.134.758.238 1.158.31.235.044.46.088.778.085.276-.003.595-.042.925-.096.326-.058.666-.134.99-.219.405-.11.756-.23 1.059-.351.172-.069.351-.137.46-.198-.321.313-.933.598-1.591.853-.387.151-.781.302-1.162.414-.955.28-2.14.071-3.212-.23-.438.444-.878.881-1.313 1.319a71.223 71.223 0 0 0-2.187 2.175c.003 0 .003 0 .003.003.123.063.217.11.329.17.76.409 1.36.763 2.466.968 1.517.269 3.974.066 4.846-.208-.043.027-.115.047-.164.071-.637.34-1.715.573-2.816.716-.344.044-.689.08-1.021.107-.359.033-.755-.087-1.136-.143a11.487 11.487 0 0 1-3.165-.976 42.29 42.29 0 0 0-1.897 2.183c-.104.129-.195.263-.299.392-.338.428-.676.861-.996 1.303.003 0 .003 0 .003.003.253.131.437.228.62.321.137.071.277.134.395.189.34.162.647.277 1.075.371.225.049.475.099.806.151 1.648.266 4.125.315 5.068.153-.436.228-1.182.392-1.957.513a25.33 25.33 0 0 1-2.238.225c-.979.063-2.592-.162-4.331-1.111a22.04 22.04 0 0 0-1.659 2.9l.003.002c3.354 2.816 7.882 3.793 7.882 3.793l-.002-.006h.005s-.395-.41-.647-1.195c-.123-.395-.156-.592-.156-.691 0-.098.03-.098.03-.098s.538.322 1.612.531c.308.066.643.121 1.043.154 1.802.146 3.302-.715 3.302-.715h-.005.002s-.079-.031-.129-.055a1.533 1.533 0 0 1-.567-.404c-.285-.346-.294-.615-.294-.621 0 0 .244-.023.59-.078a9.32 9.32 0 0 0 1.389-.318 8.08 8.08 0 0 0 .775-.318c.908-.414 1.947-1.004 1.947-1.004h-.002l.005-.003s-.472-.107-.819-.252c-.092-.039-.209-.066-.27-.11-.039-.03-.044-.071-.074-.104a1.174 1.174 0 0 1-.232-.466c.01-.005 1.33-.497 2.254-1.325.922-.836 1.709-2.197 1.709-2.197s-.088.019-.229.019h-.005c-.011 0-.027-.008-.036-.008a1.508 1.508 0 0 1-.537-.115c-.062-.024-.058-.055-.104-.082-.283-.176-.316-.387-.316-.387s1.242-.905 1.973-1.72c.359-.412.762-1.053 1.074-1.593.316-.541.541-.977.541-.977h-.006l.003-.003s-1.034.08-1.435.022a14.38 14.38 0 0 1-1.004-.206c.003-.005 1.086-1.286 1.729-2.279.645-.982 1.818-3.264 1.818-3.264s-.1.039-.162.066a3.4 3.4 0 0 1-.869.214c-.623.071-.869.005-.869.005s.775-1.179 1.305-2.084c.061-.099.129-.211.182-.301.516-.919 1.313-2.477 1.313-2.477s-.409.266-.987.277c-.201.002-.315-.044-.441-.083-.242-.077-.4-.17-.4-.17.002-.02.852-1.374 1.186-2.343zM33.746 57.251c.099.348.208.716.329 1.059.146.431.395.927.631 1.36.304.565.584 1.02.584 1.02s-.17.099-.428.178c-.126.036-.233.083-.428.077a1.894 1.894 0 0 1-.642-.132c-.216-.08-.362-.156-.362-.156s.049.099.134.263c.255.491.809 1.561 1.199 2.26.23.415.554.93.845 1.385.359.57.667 1.037.669 1.04-.005.002-.26.068-.886-.005-.639-.077-1.05-.28-1.05-.28s.814 1.574 1.476 2.688c.129.222.266.458.375.625.143.222.313.461.485.694.601.826 1.262 1.61 1.27 1.621-.003 0-.614.145-1.018.214a3.222 3.222 0 0 1-.4.019c-.104 0-.214-.003-.324-.005-.378-.011-.738-.036-.738-.036h-.002s.669 1.292 1.327 2.186c.104.146.214.308.315.425.124.14.274.277.417.417.716.688 1.58 1.327 1.588 1.333 0 .005.039.305-.425.475-.461.191-.815.107-.815.107s.793 1.385 1.736 2.229c.203.182.428.342.65.488.807.543 1.629.861 1.637.867 0 0-.03.367-.315.582-.126.094-.362.17-.582.236-.027.004-.047.021-.077.027-.033.01-.03.004-.06.016-.198.049-.387.088-.387.088s1.824 1.031 2.773 1.35a9.31 9.31 0 0 0 1.561.34c.26.033.455.055.455.055s-.011.285-.304.631c-.069.082-.143.115-.217.17-.25.188-.494.303-.494.303s.346.18.861.367c.083.027.157.049.25.076.598.188 1.379.352 2.243.279 1.824-.146 2.699-.691 2.705-.695 0 0 .03.109-.066.516-.025.109-.014.125-.066.285-.255.801-.658 1.229-.658 1.229s1.547-.352 3.497-1.186c1.432-.609 3.078-1.469 4.523-2.676v-.006c-.28-.588-.639-1.125-.968-1.684-.244-.418-.45-.855-.719-1.256-.002 0-.002-.006-.002-.006a9.024 9.024 0 0 1-2.655.965c-.675.137-1.292.197-1.745.164a24.484 24.484 0 0 1-1.978-.186 20.37 20.37 0 0 1-.633-.105c-.661-.115-1.281-.258-1.659-.461.238.039.567.072.962.084 1.16.043 2.828-.033 4.079-.227.036-.004.082-.004.118-.016 1.135-.182 1.492-.301 2.183-.652.214-.105.45-.23.76-.391h-.003c0-.004 0-.004.003-.004a34.965 34.965 0 0 0-1.314-1.717 46.577 46.577 0 0 0-1.925-2.228c-.419.2-.872.346-1.313.516-1.042.398-2.101.708-3.063.625-1.492-.124-3.255-.4-4.057-.905.184.055.464.104.76.151.293.047.628.083.987.113 1.048.087 2.26.107 3.168-.061 1.292-.236 1.876-.655 2.844-1.152l-.003-.003-.008-.008a60.271 60.271 0 0 0-2.208-2.2c-.148-.151-.299-.299-.447-.447a83.821 83.821 0 0 0-.891-.897h-.006c-1.083.305-2.29.521-3.258.236-1.037-.308-2.249-.782-2.775-1.278.623.332 2.353.85 3.467.867.872 0 1.327-.189 1.966-.403l-.002-.002c.002 0 .005-.003.008-.003a88.286 88.286 0 0 0-7.339-6.278c-.099-.074-.184-.165-.283-.241 2.567 1.588 5.052 3.365 7.482 5.249.647.502 1.308.971 1.944 1.495v-.003c0 .003.003.003.003.003.167-.977.343-1.635.252-2.905-.113-1.585-.795-4.029-1.193-4.868.099.129.203.321.302.507.039.069.077.113.113.189.419.85.825 2.095 1.13 3.19.37 1.319.269 2.959.071 4.459a61.594 61.594 0 0 1 3.741 3.817v-.002l.005.005c.258-.979.488-1.714.505-3.085.003-.428-.03-.919-.08-1.423-.159-1.681-.56-3.582-.861-4.366.321.485.62 1.33.883 2.273.219.782.412 1.632.565 2.422.14.71.143 1.498.088 2.295a19.942 19.942 0 0 1-.398 2.704c.167.195.332.381.488.579.398.482.749 1.023 1.127 1.527.433.588.891 1.146 1.294 1.762h.005a7.43 7.43 0 0 0 .373-1.07c.167-.592.255-1.201.453-2.372.375-2.208.046-4.451-.184-5.523.491.957.666 3.409.699 4.772.019.826-.077 1.753-.315 2.918a26.453 26.453 0 0 1-.524 2.109c.203.34.381.686.568 1.031.102.191.216.373.312.57.431-.439.842-.928 1.196-1.449.79-1.15 1.141-2.73 1.223-4.442.2-4.278-1.281-9.404-1.783-10.995-.099-.318-.159-.494-.159-.494s-.011.573-.123 1.248c-.113.672-.456 1.207-.456 1.207s-.82-2.024-1.234-2.872a9.575 9.575 0 0 0-.431-.732c-.612-.982-1.539-2.282-1.539-2.282v.003l-.003-.003-.129 1.072c-.063.549-.08.965-.08.965s-1.33-1.651-2.315-2.556c-.987-.899-2.487-2.048-2.487-2.048v.002l-.003-.002s.159.713.242 1.275a26 26 0 0 1 .187 1.467c-.006-.005-.434-.43-1.021-.943-.458-.4-1.001-.817-1.522-1.154-.154-.099-.31-.223-.456-.299a22.762 22.762 0 0 0-.863-.444c-1.261-.631-2.786-1.316-2.786-1.316l.002.008-.005-.003s.077.242.162.543c.055.206.115.428.157.658.036.211.011.351-.008.494a2.327 2.327 0 0 1-.091.431c-.005-.006-1.33-1.435-2.169-1.917-.425-.25-1.113-.57-1.689-.828-.565-.252-1.023-.444-1.023-.444s.444 1.243.535 1.821c.033.214.033.417.036.611 0 .321-.011.582-.011.584-.008-.006-1.73-1.034-2.951-1.426-.071-.022-.17-.036-.25-.058-1.248-.34-3.167-.463-3.167-.463h-.006c-.002 0 .14.556.33 1.209z"/></svg>