<svg xmlns="http://www.w3.org/2000/svg" width="150" height="150" viewBox="0 0 150 150"><path fill="#921F1D" d="M64.578 4.536c-.343.383-.712.761-1.046 1.163-.33.414-.656.815-.967 1.252a21.547 21.547 0 0 0-1.657 2.789c-.98 1.991-1.667 4.258-1.845 6.682a15.627 15.627 0 0 0 1.234 7.288c.21.598.54 1.114.829 1.671l.111.205.049.098.107.156.235.352.477.713a29.36 29.36 0 0 0 1.211 1.483l.655.638.325.333.352.303c1.854 1.613 4 2.798 6.184 3.676 2.205.881 4.472 1.545 6.722 2.142 2.254.598 4.512 1.154 6.718 1.885a75.977 75.977 0 0 1 6.665 2.486c2.209.944 4.397 1.995 6.508 3.216 2.104 1.203 4.121 2.619 5.876 4.264.843.846 1.626 1.75 2.25 2.717a8.683 8.683 0 0 1 1.274 3.047c.191 1.038.151 2.103-.103 3.181-.272 1.073-.807 2.138-1.426 3.167l-.534.748c-.104.169-.188.228-.267.334l-.246.285c-.147.188-.396.393-.592.58-.103.102-.197.205-.317.307l-.33.268a13.555 13.555 0 0 1-3.001 1.817c-1.105.49-2.26.896-3.439 1.225a42.018 42.018 0 0 1-3.681.753c-5.033.73-10.287.65-15.623.547-2.659-.053-5.363-.138-8.143-.03l-2.032.102c-.668.04-1.27.062-1.947.062l-4.018.071a66.786 66.786 0 0 0-4.147.214c-1.403.125-2.802.312-4.232.641-1.426.326-2.856.793-4.259 1.484l-1.039.575-.138.076c-.195.121-.115.08-.187.121l-.205.155-.432.29c-.142.098-.267.178-.437.308l-.49.405c-.334.276-.682.544-.958.864-1.176 1.172-2.281 2.718-2.775 4.714-.049.24-.125.489-.165.738l-.058.784c-.062.518.005 1.038.036 1.564.062.517.218 1.012.343 1.506.195.45.36.938.588 1.35.909 1.701 2.187 2.896 3.47 3.822l1.002.623.12.081c.076.039 0 .008.196.125l.227.097.446.228.908.459c.151.08.298.156.45.229l.521.213c.672.281 1.367.574 2.036.811l2 .646c1.341.347 2.677.695 4.019.926 2.682.473 5.359.771 8.01.883 5.288.249 10.478-.041 15.542-.48a158.04 158.04 0 0 0 3.765-.384l.936-.094.512-.072.495-.075c.651-.098 1.27-.214 1.89-.334a103.204 103.204 0 0 0 7.283-1.755c2.384-.677 4.731-1.421 7.021-2.29 2.291-.882 4.536-1.849 6.7-3.234 1.069-.722 2.144-1.493 3.092-2.745a5.804 5.804 0 0 0 1.069-2.4c.188-.997-.041-2.071-.424-2.855-.378-.78-.867-1.368-1.366-1.875a9.168 9.168 0 0 0-.762-.664c-.125-.12-.246-.2-.375-.303l-.191-.143-.093-.067c-.21-.143-.112-.076-.188-.116-.244-.146-.463-.294-.739-.437-.329-.16-.682-.307-1.016-.44l-.943-.258c-.309-.067-.621-.085-.932-.134-1.243-.138-2.428-.031-3.56.152-1.137.209-2.21.494-3.261.824-2.094.695-4.041 1.568-5.907 2.455-3.737 1.826-7.16 3.814-10.438 5.587-1.632.886-3.231 1.732-4.803 2.423-.784.338-1.568.659-2.33.887-.744.223-1.555.384-2.348.517-3.176.522-6.219.717-8.963.464-1.367-.139-2.668-.392-3.786-.913-1.123-.521-2.014-1.359-2.335-2.459l-.066-.229c-.022-.07-.022-.133-.031-.194-.022-.126-.058-.246-.058-.393a2.62 2.62 0 0 1 .089-.762c.143-.5.432-.927.789-1.278a5.067 5.067 0 0 1 1.194-.856c.427-.24.859-.4 1.292-.543a12.708 12.708 0 0 1 4.517-.62c1.243.04 2.192.286 2.78.58.142.058.271.165.37.223.093.08.187.146.24.21.111.142.156.204.156.204s-.147-.374-.745-.704c-.574-.325-1.523-.637-2.784-.771a13.376 13.376 0 0 0-4.678.339 8.537 8.537 0 0 0-1.381.499c-.473.214-.949.469-1.39.873-.45.379-.86.904-1.065 1.573a3.38 3.38 0 0 0-.165 1.056c-.022.182.018.37.045.551.022.21.058.366.098.522a4.7 4.7 0 0 0 1.011 1.893 6.349 6.349 0 0 0 1.688 1.288c1.261.669 2.642 1.012 4.085 1.248 1.43.204 2.936.284 4.49.267 1.56-.013 3.154-.12 4.807-.316.833-.106 1.666-.227 2.553-.445a23.37 23.37 0 0 0 2.557-.842c1.681-.66 3.341-1.447 5.029-2.272 3.373-1.648 6.825-3.52 10.514-5.163 1.836-.811 3.733-1.574 5.667-2.13a20.664 20.664 0 0 1 2.932-.654c.979-.12 1.955-.151 2.877-.027.223.04.449.071.673.125l.643.205c.177.071.338.147.502.214.228.115.477.303.714.445-.01-.022.156.093 0 0l.07.053.143.111c.106.083.209.156.294.246.184.156.369.311.536.485.307.329.579.694.698.988.139.32.165.508.116.744-.049.235-.196.544-.468.887-.521.676-1.39 1.327-2.299 1.897-1.854 1.123-3.987 1.996-6.18 2.78a77.575 77.575 0 0 1-6.792 2.017c-2.33.589-4.701 1.128-7.084 1.568-.593.103-1.194.206-1.782.299l-.423.063-.419.039-.932.085a186.82 186.82 0 0 1-3.705.307c-4.973.37-10.024.558-15.072.25a57.32 57.32 0 0 1-7.519-.94c-1.244-.213-2.455-.543-3.676-.877l-1.791-.574c-.588-.206-1.114-.45-1.693-.678l-.41-.165a5.714 5.714 0 0 1-.445-.23l-.896-.45-.454-.229-.227-.124c.125.062-.018-.014-.018-.014l-.085-.057-.73-.469c-.918-.655-1.688-1.448-2.134-2.285-.455-.843-.517-1.666-.308-2.514.205-.863.784-1.772 1.586-2.556.681-.692 1.835-1.524 2.811-2 1.047-.513 2.2-.873 3.395-1.146 2.41-.548 4.985-.668 7.627-.73l4.027-.084c.673-.018 1.412-.049 2.071-.076l1.983-.129c2.575-.103 5.243-.041 7.912 0 5.359.071 10.784.155 16.246-.668a45.165 45.165 0 0 0 4.081-.855c1.359-.393 2.709-.847 4.036-1.475a17.741 17.741 0 0 0 3.796-2.392l.455-.37c.147-.134.276-.281.409-.415.29-.276.571-.521.847-.873l.414-.499c.129-.165.289-.348.365-.481l.643-.94c.801-1.354 1.526-2.819 1.928-4.49.392-1.67.441-3.483.08-5.194a12.772 12.772 0 0 0-1.925-4.517c-.864-1.297-1.853-2.401-2.887-3.391-2.102-1.929-4.348-3.435-6.638-4.713-2.276-1.27-4.593-2.325-6.923-3.256a83.551 83.551 0 0 0-6.989-2.406c-2.347-.704-4.673-1.22-6.905-1.755-2.235-.539-4.388-1.113-6.419-1.866-2.036-.753-3.889-1.76-5.484-3.039l-.303-.249-.285-.254-.561-.53c-.173-.174-.316-.361-.486-.535-.147-.196-.316-.343-.481-.566l-.494-.69-.245-.339c0-.013-.08-.116-.022-.031l-.041-.084-.106-.169c-.241-.441-.535-.86-.717-1.336a12.708 12.708 0 0 1-1.167-5.867c.178-4.018-.286-8.224 2.089-10.883.316-.338.663-.686.979-1.029"/><path fill="#986B58" d="M117.729 114.437c-.704.939-1.466 1.827-2.235 2.7-.383.437-.776.869-1.167 1.287l-.598.638-.642.641a42.499 42.499 0 0 1-2.584 2.424 44.235 44.235 0 0 1-2.816 2.196 40.324 40.324 0 0 1-6.098 3.586 42.711 42.711 0 0 1-6.576 2.514 49.085 49.085 0 0 1-6.825 1.506 54.59 54.59 0 0 1-6.887.596 69.21 69.21 0 0 1-3.438.023l-1.711-.081c-.557-.021-1.162-.098-1.742-.138a45.814 45.814 0 0 1-6.833-1.163 40.273 40.273 0 0 1-6.554-2.236 39.366 39.366 0 0 1-11.386-7.658l-.058-.04v-.022a34.415 34.415 0 0 1-1.506-1.915 52.053 52.053 0 0 1-3.871-6.103c-1.546-2.824-2.838-5.773-3.782-8.834-.962-3.057-1.559-6.236-1.662-9.431-.121-3.19.272-6.389 1.207-9.419-.792 3.07-1.033 6.265-.771 9.396.245 3.146.989 6.229 2.045 9.177 1.064 2.945 2.463 5.769 4.093 8.451a56.162 56.162 0 0 0 2.611 3.897c.458.638.936 1.257 1.43 1.854.477.61.988 1.217 1.505 1.764l-.062-.062c3.306 2.861 7.079 5.142 11.128 6.688 2.023.789 4.116 1.363 6.228 1.773 2.121.424 4.29.668 6.433.767.535.017 1.047.035 1.604.035l1.652-.009a55.082 55.082 0 0 0 3.257-.156c2.164-.165 4.33-.44 6.441-.859a46.999 46.999 0 0 0 6.215-1.676 38.584 38.584 0 0 0 5.836-2.534 37.18 37.18 0 0 0 5.283-3.443 36.525 36.525 0 0 0 2.383-2.045 43.596 43.596 0 0 0 2.215-2.268l.507-.579.536-.619c.337-.414.682-.829 1.019-1.248a44.128 44.128 0 0 0 1.925-2.557c1.238-1.733 2.375-3.524 3.324-5.377.002-.003 5.566 2.447.927 8.559M36.429 84.126s-.022-.062-.041-.165c0-.04-.022-.116-.031-.195-.018-.081-.062-.236-.089-.384-.027-.08-.058-.165-.076-.244-.03-.076-.048-.147-.089-.232-.058-.16-.129-.324-.209-.513-.165-.36-.414-.744-.699-1.144-1.194-1.601-3.546-3.146-6.651-3.391a9.131 9.131 0 0 0-2.441.124c-.41.081-.842.21-1.278.384a6.292 6.292 0 0 0-1.248.669l-.238.173c-.083.054-.141.107-.247.196-.188.146-.392.303-.555.477-.165.143-.33.307-.484.499-.156.178-.298.374-.443.57a5.932 5.932 0 0 0-1.049 2.793 6.322 6.322 0 0 0 0 1.506c.059.48.165.966.306 1.43a11.71 11.71 0 0 0 1.205 2.602 15.703 15.703 0 0 0 1.715 2.245c.32.352.646.678.998.998.174.165.344.312.535.477l.539.423c1.483 1.155 2.998 2.081 4.419 3.093 1.408 1.006 2.731 2.079 3.688 3.381.125.156.24.303.339.48.107.156.228.343.312.486.103.195.165.352.228.516.058.18.125.353.165.539.205.735.267 1.497.276 2.241-.009.753-.072 1.484-.236 2.171-.156.663-.392 1.313-.753 1.83a2.308 2.308 0 0 1-.624.633c-.25.146-.521.235-.797.235-.557.026-1.083-.227-1.533-.521-.205-.143-.427-.285-.615-.459-.089-.085-.191-.156-.276-.24-.076-.089-.173-.174-.245-.268-.29-.343-.517-.721-.597-1.092-.102-.374-.066-.717.062-.988.125-.269.312-.455.472-.58.352-.235.575-.275.575-.275s-.223.03-.598.259a1.397 1.397 0 0 0-.512.565 1.679 1.679 0 0 0-.134 1.064c.081.388.277.802.588 1.194.143.182.312.36.517.534.173.187.392.352.605.539.45.307 1.007.637 1.697.637.682.04 1.386-.37 1.795-.948.455-.58.74-1.257.944-1.982a9.906 9.906 0 0 0 .374-2.276 9.6 9.6 0 0 0-.165-2.46 7.194 7.194 0 0 0-.165-.641 4.015 4.015 0 0 0-.236-.619c-.103-.223-.219-.393-.316-.585a7.296 7.296 0 0 0-.352-.561c-.971-1.475-2.334-2.699-3.733-3.809-1.399-1.105-2.887-2.152-4.183-3.262l-.499-.445c-.143-.138-.308-.293-.45-.44-.294-.3-.579-.623-.842-.949a12.515 12.515 0 0 1-1.407-2.071c-.793-1.418-1.237-2.998-1.007-4.33a3.62 3.62 0 0 1 .278-.936c.123-.299.301-.569.492-.815.103-.124.196-.245.321-.36.102-.112.227-.229.347-.33.125-.111.249-.196.361-.285.058-.044.147-.099.223-.146l.245-.157a4.49 4.49 0 0 1 1.626-.557 6.143 6.143 0 0 1 1.755 0 7.478 7.478 0 0 1 2.905 1.034c.762.472 1.301 1.028 1.608 1.505.165.245.281.464.347.655.041.099.085.188.107.272a.63.63 0 0 0 .041.12l.008.089c.013.058.022.066.031.143.009.079.022.151.031.205.009.102.018.16.018.16.116.851.9 1.435 1.737 1.323a1.53 1.53 0 0 0 1.306-1.732v-.082"/><path fill="#921F1D" d="M119.494 136.154c-2.508 1.626-5.492 2.865-8.731 3.791-.829.205-1.64.415-2.473.619-.852.165-1.693.369-2.557.525-.433.062-.864.13-1.302.21l-.646.106-.334.059-.067.009c-.169.018.151-.021.098-.021l-.04.013-.164.009c-.927.071-1.831.139-2.762.227-.928.059-1.854.143-2.785.215-.907.04-1.809.07-2.739.115-.904.05-1.822.089-2.744.139l-2.771.035-2.78.049a184.99 184.99 0 0 1-2.774-.04c-.923-.009-1.844-.022-2.758-.044-.922-.026-1.84-.067-2.744-.112-.918-.035-1.836-.071-2.731-.111-.899-.062-1.804-.129-2.69-.187-.9-.059-1.796-.103-2.668-.196-.878-.08-1.751-.156-2.62-.236-1.742-.134-3.43-.369-5.101-.557-1.684-.155-3.301-.432-4.887-.629a211.012 211.012 0 0 1-8.923-1.451c-2.753-.517-5.279-1.011-7.506-1.506-1.132-.227-2.166-.49-3.132-.703a94.735 94.735 0 0 1-2.637-.639c-.802-.204-1.515-.377-2.147-.524-.619-.165-1.145-.308-1.563-.419l-1.323-.334 1.221.588c.41.191.904.423 1.479.703.592.269 1.26.553 2.022.888.762.33 1.613.677 2.548 1.037.918.37 1.938.762 3.016 1.145 2.179.793 4.66 1.631 7.382 2.425 2.744.801 5.729 1.585 8.923 2.285 1.603.352 3.238.712 4.927 1.012 1.693.297 3.421.609 5.194.845.887.121 1.778.245 2.686.371.891.119 1.8.209 2.718.297.909.095 1.835.197 2.757.29.931.072 1.858.135 2.807.196.926.062 1.874.126 2.814.173.949.032 1.895.056 2.848.072.958.031 1.906.059 2.852.076l2.863-.036 2.87-.057c.967-.056 1.915-.103 2.882-.166l2.854-.164a187.09 187.09 0 0 1 2.776-.29c.927-.103 1.835-.183 2.758-.289l.17-.014.034-.01c-.018 0 .325-.039.201-.026l.094-.013.347-.081.69-.133c.468-.099.918-.179 1.385-.281.919-.196 1.818-.454 2.728-.659.908-.245 1.782-.544 2.66-.811 3.51-1.19 5.688-3.15 7.568-6.219l-.073-1.566z"/></svg>