<svg xmlns="http://www.w3.org/2000/svg" width="100" height="100" viewBox="0 0 100 100"><g fill-rule="evenodd" clip-rule="evenodd"><path fill="#074D31" d="M45.865 38.927c.824-.058 1.533-.161 2.242-.144 11.007.271 22.013.577 33.02.807 1.647.038 2.271.652 2.36 2.278.659 11.958-5.024 20.354-14.81 26.417-1.606.996-3.384 1.751-5.167 2.394-.517.188-1.685-.2-1.922-.654-5.236-9.991-10.384-20.031-15.539-30.065-.111-.222-.094-.508-.184-1.033z"/><path fill="#074D31" d="M86.093 39.656c1.823 0 3.59-.122 5.317.082.488.053 1.147 1.024 1.242 1.644 1.455 9.855-1.368 18.551-7.507 26.205-4.459 5.565-10.138 9.552-16.71 12.31-1.349.562-2.106.423-2.659-1.007-.483-1.246-1.197-2.406-1.836-3.66 15.53-6.762 24.139-17.724 22.153-35.574z"/><path fill="#89A33C" d="M46.627 36.317c.127-.39.209-.738.353-1.062 2.16-5.037 4.34-10.064 6.487-15.108.319-.754.721-.93 1.487-.668 5.646 1.906 8.474 6.089 9.466 11.731.164.93.185 1.889.151 2.832-.008.274-.405.742-.66.77-5.589.57-11.179 1.086-16.772 1.611-.122.013-.25-.049-.512-.106z"/><path fill="#89A33C" d="M54.413 17.865c.34-.844.61-1.685 1.024-2.442.114-.218.685-.344.987-.271 4.823 1.151 8.318 4.069 10.724 8.322 1.741 3.086 2.532 6.454 2.59 9.999.013.729-.192 1.053-.959 1.045-.664-.008-1.332.106-2.028.168-.25-8.425-3.721-14.436-12.338-16.821z"/><path fill="#991C25" d="M54.605 61.673c-.823.055-1.532.156-2.241.14-11.007-.266-22.013-.578-33.02-.807-1.646-.034-2.27-.652-2.36-2.275-.66-11.96 5.024-20.356 14.809-26.417 1.606-.995 3.384-1.753 5.164-2.397.516-.188 1.688.201 1.925.656 5.237 9.995 10.384 20.034 15.539 30.069.111.216.095.504.184 1.031z"/><path fill="#991C25" d="M14.378 60.94c-1.824 0-3.589.123-5.319-.078-.483-.058-1.147-1.025-1.242-1.647-1.455-9.851 1.373-18.547 7.507-26.205 4.454-5.561 10.138-9.548 16.715-12.305 1.344-.565 2.102-.422 2.655 1.007.483 1.247 1.197 2.406 1.835 3.655C21 32.133 12.387 43.09 14.378 60.94zM53.844 64.279c-.128.389-.214.738-.353 1.062-2.16 5.035-4.34 10.067-6.487 15.113-.319.753-.721.925-1.487.667-5.65-1.909-8.478-6.093-9.466-11.735-.164-.926-.185-1.89-.151-2.832.007-.271.405-.741.66-.766 5.589-.57 11.182-1.091 16.771-1.611.123-.012.254.046.513.102z"/><path fill="#991C25" d="M46.053 82.731c-.336.844-.606 1.685-1.02 2.445-.115.215-.685.341-.988.271-4.827-1.154-8.318-4.068-10.72-8.322-1.746-3.089-2.537-6.452-2.594-10.001-.012-.727.193-1.05.959-1.041.664.008 1.332-.106 2.029-.174.251 8.431 3.721 14.437 12.334 16.822z"/></g></svg>