<svg xmlns="http://www.w3.org/2000/svg" width="100" height="100" viewBox="0 0 100 100"><path fill="#971E37" d="M34.282 18.263l.012.016.028-.032.048-.055.096-.096c.064-.064.128-.136.192-.2.128-.128.264-.248.396-.368a9.842 9.842 0 0 1 1.696-1.184c1.168-.632 2.385-.896 3.376-.896a6.204 6.204 0 0 1 2.241.4c.255.087.432.176.56.232.12.064.184.096.184.096s-.072 0-.208-.008-.336-.024-.593-.016a7.723 7.723 0 0 0-2.056.295c-.816.232-1.72.673-2.593 1.336-.432.328-.864.721-1.28 1.152-.096.104-.208.216-.303.329l-.152.175-.072.08-.092.112a9.45 9.45 0 0 0-.632.833c-.205.32-.412.625-.621.944l-.052.072c-.24-.279-.476-.56-.708-.84l-.175-.2-.176-.2a10.223 10.223 0 0 0-.353-.367l-.088-.097-.08-.08-.08-.08-.165-.168c-.112-.104-.224-.216-.336-.32a15.608 15.608 0 0 0-1.336-1.144c-.888-.696-1.761-1.192-2.561-1.488a7.843 7.843 0 0 0-1.112-.295c-.168-.024-.332-.048-.479-.056-.148-.009-.288-.024-.412-.016-.128 0-.24.007-.336.007l-.249.024c-.136.008-.204.017-.204.017s.061-.032.18-.104c.06-.024.136-.072.225-.12.096-.041.203-.08.323-.136.124-.048.268-.088.424-.136.16-.04.332-.08.524-.112.38-.064.828-.088 1.32-.056.988.072 2.145.416 3.276 1.04.564.304 1.132.68 1.676 1.112.136.112.272.224.404.337.068.055.136.12.2.175l.1.088.012.016h.004l.007-.018zM39.198 21.768v.007h.008l-.008.008.017-.016c.063-.048.112-.104.175-.152.224-.192.473-.353.721-.48.496-.248 1.016-.344 1.432-.313.408.024.728.128.92.224.192.104.288.168.288.168l-.32.024a3.228 3.228 0 0 0-.808.185 3.068 3.068 0 0 0-.969.584 3.96 3.96 0 0 0-.464.448l-.12.136-.016.016-.024.024-.016.024-.064.08-.127.16c-.168.232-.336.504-.512.752l-.017.017-.576-.672a3.04 3.04 0 0 0-.272-.288l-.16-.16c-.161-.168-.336-.32-.497-.464-.336-.28-.656-.504-.959-.64a2.44 2.44 0 0 0-.785-.216c-.096-.008-.176-.016-.24-.008h-.08s.024-.024.063-.056c.048-.032.128-.072.224-.12.192-.097.521-.2.944-.193.409.008.896.136 1.376.376.24.12.48.272.711.448l.089.064.04.032.008.007h.016v-.006h.002z"/><path fill="#8BC53F" d="M38.407 43.978c0-1.208-.185-2.369-.504-3.457H19.2a12.1 12.1 0 0 0-.504 3.457c0 5.865 4.121 10.642 9.306 10.954v9.193c0 6.434-1.1 2.624-5.485 6.537h12.07c-4.389-3.913-5.484-.104-5.484-6.537v-9.193c5.183-.312 9.304-5.089 9.304-10.954z"/><path fill="#FFF" d="M32.986 71.927l-.028-.064c-1.556.68-3.32.984-5.072.984-.917 0-1.824-.079-2.705-.231a20.064 20.064 0 0 1-1.876-.432H23.3c-.304-.082-.593-.192-.9-.288l-.02.071.028-.065c-.288-.119-.584-.206-.856-.327l-.004-.009a16.004 16.004 0 0 1-3.017-1.6 14.801 14.801 0 0 1-3.752-3.632h-.004c-.205-.257-.349-.505-.497-.72a6.489 6.489 0 0 1-.336-.553v-.009c-.18-.304-.276-.463-.276-.463l-.136-.233v.265s0 .192.008.553c0 .184.003.415.036.68l.072-.008-.072.008c.028.264.052.585.12.929.032.176.064.359.1.551v.009c.052.191.104.392.156.601l.068-.017-.068.017c.051.215.12.432.199.663.076.217.144.457.249.697l.068-.025-.068.025c.376.959.928 2.031 1.708 3.112a16.388 16.388 0 0 0 3.04 3.16l.044-.057-.044.049c.312.256.641.479.977.728h.004c.34.217.688.463 1.064.672l.036-.064-.04.064c.74.432 1.544.801 2.389 1.153h.004a18.65 18.65 0 0 0 2.696.808 17.208 17.208 0 0 0 3.429.361c.888 0 1.796-.081 2.712-.241a13.82 13.82 0 0 0 3.221-.977c1.96-.863 3.592-1.967 4.992-3.023 1.401-1.057 2.584-2.04 3.689-2.81.544-.384 1.072-.72 1.6-1.016a12.537 12.537 0 0 1 1.584-.712l-.024-.072.024.072a12.149 12.149 0 0 1 3.216-.656c.368-.023.721-.031 1.072-.031.673 0 1.313.039 1.913.087l.007-.07-.007.07c.231.025.447.04.663.057.209.024.416.057.608.081.2.023.385.048.576.071v-.071.071c.176.031.353.056.513.079.319.057.624.096.872.152h.007c.249.04.465.088.641.112.353.064.545.097.545.097l.255.048-.2-.176s-.151-.121-.423-.353c-.145-.112-.32-.256-.521-.417v-.007.007c-.216-.167-.456-.344-.736-.551-.136-.096-.288-.2-.439-.313-.168-.104-.337-.216-.513-.328s-.368-.231-.568-.353c-.2-.112-.407-.223-.632-.353a16.896 16.896 0 0 0-3.2-1.343 13.313 13.313 0 0 0-3.737-.536c-.232 0-.472.008-.72.024-.833.048-1.705.176-2.552.398-.865.226-1.713.521-2.537.881-1.64.713-3.136 1.625-4.553 2.465-.704.424-1.392.824-2.076 1.2h-.004c-.164.096-.336.184-.504.271h-.004c-.168.096-.336.177-.504.265-.172.079-.336.167-.509.248l-.255.111-.125.064-.116.048.03.067.028.064.116-.048.131-.057-.031-.064.031.064.252-.121-.028-.064.028.064c.172-.079.344-.16.512-.248l-.032-.063.032.063c.168-.087.34-.167.512-.263.168-.09.336-.177.508-.281l-.036-.055.036.063c.688-.375 1.368-.784 2.081-1.208 1.416-.84 2.904-1.743 4.537-2.455a17.756 17.756 0 0 1 2.513-.872 12.846 12.846 0 0 1 2.528-.393c.24-.017.479-.024.711-.024 1.368 0 2.617.217 3.689.536 1.265.369 2.305.864 3.185 1.329l.031-.064-.031.064c.208.119.424.239.624.353l.032-.065-.032.065c.191.11.384.231.56.342.177.112.345.226.513.329l.032-.064-.032.064c.144.104.296.216.432.312l.048-.057-.048.057c.288.2.527.377.736.544.208.161.376.305.52.417l.04-.056-.04.056c.272.224.416.352.416.352l.048-.057.017-.071c-.008 0-.185-.031-.544-.096a18.18 18.18 0 0 1-.648-.112l-.008.072.008-.072c-.256-.057-.544-.097-.872-.145-.168-.031-.344-.056-.52-.088-.185-.016-.377-.048-.576-.072-.192-.023-.4-.055-.616-.079-.216-.017-.432-.032-.665-.057a23.63 23.63 0 0 0-1.92-.088c-.352 0-.72.009-1.088.031a12.044 12.044 0 0 0-3.248.666c-.536.2-1.072.432-1.601.728-.536.296-1.071.632-1.624 1.016-1.104.776-2.289 1.761-3.688 2.809-1.393 1.056-3.017 2.152-4.965 3.017-1.044.465-2.12.768-3.184.959-.908.161-1.808.24-2.688.24-.148 0-.3 0-.449-.007a17.613 17.613 0 0 1-2.949-.344l-.016.071.016-.071a19.188 19.188 0 0 1-2.68-.81l-.024.064.027-.064c-.844-.344-1.64-.711-2.368-1.143h-.005c-.364-.201-.708-.449-1.057-.666l-.04.064.044-.056c-.336-.248-.664-.472-.968-.72l-.004-.009a15.886 15.886 0 0 1-3.012-3.127 13.716 13.716 0 0 1-1.688-3.081h-.004c-.1-.224-.168-.465-.249-.688a6.383 6.383 0 0 1-.192-.655c-.056-.208-.104-.408-.156-.601l-.068.023.068-.015a12.276 12.276 0 0 0-.1-.553c-.063-.336-.088-.649-.116-.92a5.232 5.232 0 0 1-.036-.664v-.008.008c-.008-.36-.008-.553-.008-.553h-.072l-.064.04s.096.16.28.473l.061-.041-.061.033c.084.159.196.351.344.567h-.004c.144.209.296.463.504.729l.056-.049-.06.049a15.144 15.144 0 0 0 3.789 3.665c.896.599 1.92 1.159 3.048 1.614l.028-.063-.032.063c.285.13.581.217.864.33l.004.008c.296.088.588.198.904.279l.016-.072-.02.072c.612.184 1.252.312 1.896.433.883.16 1.804.239 2.729.239 1.768 0 3.552-.304 5.132-.999l-.03-.062.028.064-.028-.064z"/><path fill="#971E37" d="M18.695 59.652a3.793 3.793 0 0 0-3.796 3.792 3.8 3.8 0 0 0 3.796 3.801 3.803 3.803 0 0 0 3.796-3.801 3.795 3.795 0 0 0-3.796-3.792zm-3.34 3.49a3.379 3.379 0 0 1 1.289-2.353c.44.263.552.457.652.799a.726.726 0 0 0-.229.457c-.859.208-1.416.567-1.712 1.097zm3.34 3.655a3.38 3.38 0 0 1-1.304-.263c-.32-.417-.464-1.129-.396-2.009a5.906 5.906 0 0 1 .409-1.775.742.742 0 0 0 .968-.169c1.18.593 2.42 2.232 2.557 3.36a3.353 3.353 0 0 1-2.234.856zm-.179-4.809a.78.78 0 0 0-.229-.406c.556-.729 1.329-1.098 2.088-1.041a3.384 3.384 0 0 1 1.656 2.576c-.871-.657-2.355-1.264-3.515-1.129z"/><path fill="#FCBF10" d="M25.676 55.349c0 3.423.78 6.608 2.109 9.281V55.132a8.81 8.81 0 0 1-2.092-.432c-.008.216-.017.432-.017.649z"/><path fill="#FCBF10" d="M50.761 45.291c.087-3.113-1.648-6.953-5.897-8.449 2.641.055 6.329.608 11.442 2.216-3.369-3.569-8.834-9.058-14.987-5.017.752-1.561 2.625-3.465 6.953-5.009-4.409-1.393-8.353-.272-9.761 3.112-1.409-3.384-5.357-4.505-9.762-3.112 4.329 1.544 6.201 3.448 6.953 5.009C29.549 30 24.08 35.489 20.715 39.058c5.113-1.608 8.806-2.161 11.434-2.216-2.048.728-3.509 2-4.464 3.464h10.377l.048.161c.336 1.143.512 2.328.512 3.512 0 5.865-4.073 10.722-9.309 11.154v8.993c0 3.761.332 3.856 1.563 4.209.705.2 1.712.503 3.053 1.513.088-.048.181-.089.268-.138.172-.079.34-.167.512-.255.168-.096.336-.177.508-.281a48.089 48.089 0 0 0 2.077-1.199c1.416-.841 2.913-1.744 4.545-2.456a16.55 16.55 0 0 1 2.528-.88 13.458 13.458 0 0 1 2.544-.4c1.033-.057 2 .023 2.896.176 1.264-2.633 2.008-5.729 2.008-9.064 0-4.994-1.648-9.474-4.265-12.603 1.21.718 2.322 1.559 3.211 2.543zM89.485 57.101H64.05v-.593c0-.688-.527-1.247-1.184-1.247-.648 0-1.185.56-1.185 1.247v1.457l-5.761 3.608v-.136c0-.68-.528-1.241-1.185-1.241s-1.184.562-1.184 1.241v1.606l-1.912 1.201h1.912v7.761c0 .688.527 1.249 1.184 1.249s1.185-.561 1.185-1.249v-7.761h5.761V76.8c0 .68.536 1.239 1.185 1.239.656 0 1.184-.56 1.184-1.239V64.245h10.13v15.586c0 .68.536 1.241 1.185 1.241.655 0 1.184-.562 1.184-1.241V64.245h12.137l.799-7.144z"/><g fill="#971E37"><path d="M39.663 78.696c-1.376.688-2.409 1.614-3.185 2.455a14.05 14.05 0 0 0-1.637 2.201c-.335.559-.484.903-.484.903s.305-.145.836-.367a31.991 31.991 0 0 1 2.212-.872c.92-.321 2-.641 3.121-.81a8.444 8.444 0 0 1 1.681-.11c.279.008.543.022.824.07.136.033.28.04.424.073.144.04.288.063.432.096.608.152 1.281.384 2.049.552.76.185 1.6.281 2.369.225a6.1 6.1 0 0 0 1.12-.169c.184-.048.352-.088.528-.136.16-.064.32-.119.48-.184.161-.064.312-.112.457-.191.144-.073.279-.145.424-.217.128-.071.256-.145.392-.216.12-.081.24-.16.36-.239.224-.152.448-.313.647-.457.2-.16.377-.313.545-.463.168-.145.319-.281.455-.409.137-.144.257-.265.368-.384.433-.457.656-.729.656-.729s-.327.032-.896.113c-.136.022-.288.048-.465.071a9.259 9.259 0 0 1-.543.064c-.2.022-.409.056-.625.079-.224.017-.447.031-.688.048-.112.009-.24.024-.36.024h-.368c-.12.007-.247.007-.376.007-.128.009-.256-.015-.384-.022a46.69 46.69 0 0 0-.385-.025c-.136-.015-.264-.04-.399-.055-.256-.017-.512-.096-.768-.152a12.936 12.936 0 0 1-1.641-.584c-.6-.239-1.321-.561-2.185-.776-.224-.056-.448-.096-.664-.137-.216-.04-.456-.048-.68-.071-.448-.031-.896 0-1.328.057a7.738 7.738 0 0 0-2.319.737zM13.646 65.846c.028.263.052.584.116.929.036.175.068.352.104.551l.152.601c.052.217.12.432.2.656.075.216.144.464.248.695.372.962.92 2.025 1.7 3.098a16.368 16.368 0 0 0 3.024 3.144c.308.249.641.472.972.72.348.217.692.457 1.064.664.732.434 1.532.801 2.377 1.145.848.328 1.744.602 2.688.816.944.191 1.936.313 2.96.344a15.885 15.885 0 0 0 3.153-.231 14.212 14.212 0 0 0 3.205-.968c1.956-.864 3.581-1.97 4.98-3.017 1.392-1.056 2.576-2.04 3.681-2.816.56-.384 1.088-.72 1.616-1.01.528-.294 1.057-.52 1.593-.728a12.166 12.166 0 0 1 3.24-.655c1.064-.073 2.081-.017 2.992.057.225.022.449.039.656.056.217.023.425.055.625.079.191.025.384.057.56.073.185.031.36.055.528.088.32.048.624.088.872.144.257.04.473.088.647.111l.536.096s-.151-.119-.424-.351c-.136-.112-.312-.257-.512-.417-.208-.167-.464-.345-.736-.545l-.447-.319c-.161-.104-.329-.208-.505-.319-.184-.112-.36-.239-.567-.353l-.625-.352c-.879-.472-1.92-.96-3.191-1.336a13.128 13.128 0 0 0-4.425-.513 12.98 12.98 0 0 0-2.545.392c-.856.232-1.705.528-2.528.881-1.632.711-3.12 1.625-4.545 2.464-.704.425-1.388.824-2.076 1.201-.169.096-.336.184-.509.271-.168.096-.336.175-.508.265a10.79 10.79 0 0 1-.508.246l-.255.121-.128.057-.116.048c-2.38 1.047-5.241 1.208-7.817.76-.644-.128-1.28-.255-1.888-.44-.308-.079-.6-.192-.9-.279-.284-.113-.58-.201-.856-.328a16.536 16.536 0 0 1-3.032-1.608 14.923 14.923 0 0 1-3.773-3.657c-.204-.256-.352-.504-.5-.72a7.548 7.548 0 0 1-.34-.561c-.181-.303-.276-.472-.276-.472s0 .192.008.553c0 .18.003.404.035.669z"/><path d="M90.326 32.353a44.047 44.047 0 0 0-7.17-11.265c-2.943-3.345-6.345-6.242-10.089-8.545-3.769-2.273-7.833-4.009-12.05-5.025a42.69 42.69 0 0 0-6.393-1.041c-2.145-.151-4.289-.175-6.401.008 8.481.688 16.571 3.664 23.107 8.625 6.577 4.881 11.569 11.65 14.387 19.131a42.044 42.044 0 0 1 2.576 11.633c.28 3.953.04 7.961-.784 11.819-.817 3.863-2.161 7.607-4.049 11.064a39.357 39.357 0 0 1-2.177 3.601 13.093 13.093 0 0 1-2.848 2.593 14.595 14.595 0 0 1-2.681 1.432c-.248.104-.504.184-.76.288-.265.081-.528.177-.801.248-.527.16-1.096.279-1.664.384-2.28.4-4.801.257-6.913-.664l-.104-.048-.112-.048-.224-.104a21.973 21.973 0 0 1-.904-.456c-.145-.08-.297-.15-.448-.24a43.747 43.747 0 0 1-1.841-1.063c-1.248-.743-2.576-1.544-4.017-2.177a15.925 15.925 0 0 0-2.231-.775c-.753-.2-1.513-.305-2.248-.353a11.715 11.715 0 0 0-3.921.457 14.217 14.217 0 0 0-2.816 1.183c-.192.104-.385.209-.56.313-.176.097-.337.209-.497.305-.16.104-.304.2-.447.288-.145.096-.272.191-.393.279-.248.176-.464.336-.648.48-.184.144-.336.272-.464.377l-.368.303s.161-.023.481-.079c.151-.025.344-.064.56-.104.231-.048.496-.079.784-.128.145-.024.296-.048.457-.072.16-.023.328-.04.504-.064.176-.023.353-.048.544-.071.192-.017.384-.031.584-.057.808-.064 1.704-.112 2.648-.039.944.056 1.92.239 2.864.575.472.184.943.384 1.408.641.464.265.936.56 1.424.896.976.688 2.024 1.56 3.265 2.487 1.231.929 2.672 1.904 4.4 2.673.929.408 1.889.688 2.833.856.944.159 1.888.231 2.792.2a14.916 14.916 0 0 0 2.089-.217c-4.473 3.161-9.578 5.426-14.946 6.569-3.857.841-7.857 1.089-11.811.793a41.349 41.349 0 0 1-11.605-2.616c-7.458-2.873-14.171-7.946-18.983-14.588-4.896-6.584-7.821-14.697-8.501-23.17-.724 8.489 1.413 17.332 5.925 24.883a44.851 44.851 0 0 0 8.441 10.17 43.333 43.333 0 0 0 11.198 7.273c8.197 3.712 17.582 4.809 26.504 3.127 4.465-.823 8.802-2.367 12.825-4.495a46.116 46.116 0 0 0 10.906-8.13 46.262 46.262 0 0 0 8.017-10.985c2.096-4.032 3.608-8.378 4.418-12.842 1.632-8.915.577-18.284-3.072-26.493z"/></g></svg>