<svg xmlns="http://www.w3.org/2000/svg" width="150" height="150" viewBox="0 0 150 150"><path fill="none" d="M56.668 87.87c-.867-.254-1.76-.445-2.647-.655.885.21 1.78.407 2.647.655zM87.414 112.979c.458-.509.917-1.021 1.402-1.516-.487.495-.942 1.004-1.402 1.516zM67.528 116.666c-.469.894-.872 1.784-1.279 2.681.408-.894.813-1.787 1.279-2.681zM49.815 114.197zM38.142 106.395c.004.008.013.012.018.017.101.008.201.027.302.034-.11-.008-.211-.044-.32-.051zM54.229 117.924c.007.003.016.003.022.007.236-.493.458-.992.703-1.482a69.48 69.48 0 0 0-.725 1.475zM115.444 91.305c-.227.008-.449.018-.677.034a50.873 50.873 0 0 0 .004 0c.224-.017.451-.027.673-.034zM97.145 95.376c.681-.289 1.375-.543 2.066-.798-.691.255-1.386.509-2.066.798zM100.545 94.079c.748-.253 1.51-.477 2.268-.698-.758.222-1.52.445-2.268.698zM104.017 93.02zM107.547 92.202zM59.147 103.179c-.49-.214-1.007-.403-1.511-.603.504.199 1.021.389 1.511.603zM36.234 98.854zM48.228 99.747c-.738-.142-1.488-.251-2.24-.367a54.73 54.73 0 0 1 2.24.367zM47.681 108.539l.703.262-.703-.262zM67.412 91.96c-.554-.271-1.15-.498-1.717-.753.567.255 1.165.482 1.717.753zM62.214 89.711c-.751-.291-1.539-.523-2.31-.789.769.263 1.559.498 2.31.789zM44.313 99.135c-.782-.089-1.568-.142-2.358-.202.791.056 1.579.113 2.358.202zM93.825 96.895c.633-.314 1.275-.6 1.915-.887-.639.287-1.282.572-1.915.887zM52.296 110.598c.226.118.445.245.668.371-.223-.126-.443-.253-.668-.371zM52.024 100.641c-.681-.185-1.379-.334-2.073-.5.695.162 1.393.315 2.073.5zM55.674 101.795c-.602-.218-1.226-.393-1.843-.591.617.198 1.241.376 1.843.591zM43.175 107.186c.037.011.074.014.109.023-.034-.01-.072-.013-.109-.023zM104.041 101.061c-.523.215-1.011.48-1.521.718.51-.238.998-.504 1.521-.718zM99.739 103.126c-.591.32-1.142.684-1.71 1.034.569-.35 1.121-.714 1.71-1.034zM90.608 98.626c.585-.338 1.184-.652 1.779-.974-.595.322-1.194.636-1.779.974zM85.88 114.762zM95.757 105.588c-.576.395-1.117.823-1.672 1.243.555-.416 1.096-.849 1.672-1.243zM92.11 108.387c-.535.454-1.039.932-1.552 1.404.51-.473 1.017-.954 1.552-1.404zM101.104 108.833c.091-.045.181-.098.273-.142-.095.044-.183.097-.273.142zM87.341 119.215c.006 0 .015-.009.021-.009.021-.025.039-.052.061-.074-.027.03-.057.056-.082.083zM96.078 111.656c.153-.096.315-.188.471-.288-.155.1-.315.193-.471.288zM91.246 115.353c.201-.175.404-.351.609-.525-.205.174-.405.35-.609.525zM106.667 106.64c-.153.053-.298.13-.453.175.136-.039.268-.085.402-.122.015-.02.036-.037.051-.053zM81.667 105.019c.464-.403.942-.788 1.417-1.178-.477.389-.953.774-1.417 1.178zM78.97 107.514c.428-.42.863-.827 1.3-1.234-.437.412-.873.814-1.3 1.234zM76.431 110.182zM87.501 100.564zM84.519 102.698c.502-.381 1.014-.744 1.527-1.112-.514.368-1.025.731-1.527 1.112zM68.548 121.515c.011 0 .02 0 .031.004.109-.21.212-.431.326-.636-.115.215-.245.416-.357.632zM83.318 118.234zM69.917 119.092zM71.892 115.979zM74.066 113.007zM56.64 113.285a72.194 72.194 0 0 0-1.653 3.094c-1.27-.682-2.649-1.271-4.072-1.807 1.423.535 2.802 1.125 4.072 1.81a66.556 66.556 0 0 1 1.655-3.097h-.002zM62.398 104.774c-.16-.084-.335-.159-.498-.242.163.083.338.158.495.242-1.574 2.001-3.001 4.106-4.351 6.261 1.349-2.154 2.779-4.26 4.351-6.258l.003-.003zM56.64 113.285l-.035-.026c.011.01.024.018.035.026zM58.508 118.593h.002c.173-.49.375-.964.561-1.443-.189.479-.39.953-.563 1.443zM69.14 113.837c.519-.876 1.027-1.75 1.6-2.614-.576.864-1.081 1.738-1.6 2.614zM54.987 116.382s0 .004-.002.004c.635.338 1.176.736 1.762 1.104-.588-.368-1.13-.766-1.76-1.108zM35.495 85.375c1.051-.049 2.099-.096 3.146-.088-1.047-.008-2.093.039-3.146.088zM50.849 86.483c-.95-.185-1.917-.311-2.883-.456.965.146 1.933.272 2.883.456zM37.89 98.817c.808-.008 1.616-.017 2.419.01-.804-.026-1.611-.017-2.419-.01zM64.583 102.133c.663.46 1.318.938 1.951 1.423a63.213 63.213 0 0 1 .002 0 60.729 60.729 0 0 0-1.949-1.427c-8.203-5.72-18.396-9.301-29.319-9.363 10.923.062 21.113 3.644 29.317 9.363l-.002.004z"/><path fill="none" d="M75.942 93.434h-.002a68.319 68.319 0 0 0-2.255 2.044c-.479-.311-.98-.608-1.476-.906a69.2 69.2 0 0 1 2.503-2.051c-12.506-9.3-28.846-14.59-45.957-12.917 17.11-1.664 33.448 3.617 45.954 12.917a80.37 80.37 0 0 0-2.5 2.045h.002c-.002 0-.002.006-.002.006.497.298 1 .596 1.478.91a65.046 65.046 0 0 1 2.255-2.048zM77.123 103.229c.713-.768 1.4-1.552 2.162-2.291-.762.745-1.447 1.519-2.162 2.291zM110.954 84.595zM96.966 88.949c-.782.345-1.496.778-2.256 1.155.76-.376 1.474-.81 2.256-1.155zM90.463 92.314c-.861.518-1.645 1.108-2.472 1.661.827-.552 1.611-1.143 2.472-1.661zM118.046 83.658zM32.383 85.581zM84.561 96.358c-.833.639-1.586 1.338-2.377 2.019.791-.681 1.544-1.38 2.377-2.019zM74.67 105.938c-.674.814-1.277 1.645-1.899 2.479.623-.834 1.225-1.664 1.899-2.479zM44.815 85.603c-1.007-.102-2.023-.148-3.042-.201 1.016.052 2.035.103 3.042.201zM118.787 77.423z"/><path fill="none" d="M75.626 93.199l-.912-.679c2.371-1.856 4.874-3.538 7.449-5.083-2.575 1.545-5.078 3.227-7.451 5.083.304.228.611.454.914.679z"/><path fill="#E6D5C2" d="M28.755 79.604c17.11-1.673 33.45 3.617 45.957 12.917 2.373-1.856 4.876-3.538 7.451-5.083 9.2-5.522 19.56-8.998 30.207-9.673.107-.013.213-.009.322-.017a64.23 64.23 0 0 1 6.095-.325c.034-.787.101-1.575.097-2.375-.16-24.307-19.11-44.141-42.942-45.884l-4.045.215.098-.368c-25.459.292-45.996 21.166-45.825 46.653.011 1.401.138 2.767.271 4.133.583-.053 1.163-.112 1.747-.158.19-.022.376-.018.567-.035zm31.635-5.912l-.256.077-.17.029-.163.026-.164.026-.167.021-.234.009-.167.024-.193-.02-.138-.044-.193-.017-.188-.022-.141-.045-.142-.044-.217-.068-.143-.045-.166-.086-.21-.07-.167-.089-.125-.116-.116-.118-.166-.09-.121-.115-.123-.116-.138-.163-.077-.138-.121-.118-.118-.116-.099-.184-.095-.188-.071-.138-.099-.184-.053-.217-.026-.16-.094-.188-.029-.167-.022-.162-.03-.167v-.355l-.055-.206.046-.142.07-.217.02-.188.044-.142.094-.167.021-.189.042-.138.094-.17.09-.167.048-.145.09-.164.116-.116.167-.145.089-.171.116-.12.118-.121.142-.072.188-.217.14-.07.185-.099.142-.072.188-.099.14-.072.138-.072.239-.009.188-.099.166-.026.165-.022.188.018.167-.022.162-.028.193.019.188.022.139.04.188.022.193.024.217.061.142.046.14.044.171.09.16.094.099.068.234.116.099.068.188.138.121.114.123.116.116.116.147.163.071.142.145.162.099.184.072.138.099.185.095.194.03.161.073.144.021.162.051.21.026.167.026.165-.022.188.026.162-.073.21.033.17-.024.184-.021.192-.043.14-.02.188-.092.165-.089.171-.095.166-.045.145-.095.164-.094.162-.112.125-.094.162-.116.123-.119.121-.116.116-.162.148-.164.142-.141.077-.138.073-.167.142-.167.028-.188.094-.134.074zm6.779 5.01l-.046.139-.017.194-.048.14.004.112-.09.176-.05.136-.089.172-.044.145-.123.117-.043.142-.116.122-.068.096-.166.14-.116.122-.068.097-.115.119-.145.065-.16.149-.123.122-.09.049-.188.091-.165.032-.208.053-.142.073-.167.017-.116.01-.214.053-.118.004-.164.026-.162.022-.145-.045-.116.006-.188-.022-.192-.018-.145-.044-.142-.045-.145-.043-.139-.048-.167-.093-.142-.049-.14-.04-.121-.116-.122-.119-.099-.065-.138-.162-.099-.07-.145-.162-.094-.065-.099-.192-.094-.062-.077-.14-.095-.192-.069-.135-.077-.142-.05-.209-.072-.146-.026-.156-.026-.168-.022-.166-.004-.118-.045-.211-.004-.119-.022-.166.044-.142.041-.14.022-.188.044-.144.046-.146.021-.188.046-.14.09-.167.116-.122.044-.141.072-.097.09-.161.12-.124.068-.098.167-.142.067-.094.138-.077.116-.116.167-.144.14-.073.188-.098.094-.049.137-.077.21-.05.167-.026.145-.077h.116l.167-.022.21-.053h.12l.189.018h.118l.193.018h.111l.193.017.138.044.216.068.099.067.138.044.166.09.145.05.143.039.12.123.141.04.146.162.094.072.123.112.07.143.123.111.116.119.098.188.073.14.12.114.05.209.073.142.052.096.046.209.004.115.095.184.004.122.044.211.004.119-.022.186.026.169-.044.142zm.714-4.697l-.119.005h-.236l-.141-.044-.187-.025-.189-.017-.143-.044-.149-.046-.21-.061-.21-.068-.167-.094-.125-.116-.162-.09-.149-.046-.143-.16-.094-.068-.188-.14-.127-.116-.116-.116-.142-.162-.145-.162-.072-.138-.077-.145-.092-.183-.069-.138-.099-.188-.101-.188-.026-.167-.044-.206-.032-.167-.022-.166.017-.188-.047-.21-.022-.162.017-.192.044-.138-.022-.166.022-.189.09-.166.067-.21.044-.142.046-.145.094-.167.067-.214.044-.141.162-.142.072-.099.138-.188.117-.123.118-.12.116-.121.162-.144.188-.095.165-.146.14-.073.188-.098.138-.072.188-.099.167-.026.188-.099.162-.024.166-.026.21-.053.17-.028.138.046.166-.026.167-.024.232-.009.167.094.192.018.145.046.188.017.16.094.145.044.166.092.171.092.143.042.166.09.12.12.189.136.115.117.123.111.121.116.145.167.12.111.095.189.146.161.073.139.099.19.024.165.07.14.055.21.047.21.029.162.026.167.048.214-.044.14.049.21-.044.142-.022.19-.021.188-.02.188-.021.188-.018.188-.094.164-.046.145-.094.17-.044.138-.14.193-.094.167-.112.121-.044.145-.145.072-.138.188-.145.074-.085.162-.193.103-.138.072-.167.145-.138.07-.19.099-.164.024-.189.103-.184.098-.239.004-.138.073-.188-.024-.145.077-.236.004zm8.513-11.251l-.018.192-.022.188-.021.188-.047.145-.021.184-.018.188-.094.171-.118.116-.044.145-.067.21-.116.121-.094.166-.09.171-.095.167-.133.07-.1.166-.183.099-.094.167-.188.099-.146.073-.161.142-.138.077-.188.094-.165.026-.189.099-.184.098-.192-.018-.14.072-.237.005-.139.076-.193-.022-.184-.024-.188-.018-.164.024-.217-.063-.145-.048-.166.029-.141-.046-.164-.09-.217-.068-.142-.043-.167-.094-.167-.09-.164-.089-.123-.116-.116-.118-.171-.087-.12-.119-.145-.16-.115-.118-.099-.188-.117-.112-.099-.188-.072-.138-.099-.184-.073-.144-.052-.21-.072-.14-.051-.211-.048-.21-.028-.167.02-.188-.024-.163-.026-.168-.004-.234.045-.138.022-.189.043-.144.072-.215.044-.144.02-.188.095-.167.039-.142.095-.167.094-.166.089-.165.121-.123.114-.116.089-.167.164-.146.118-.123.142-.07.162-.145.188-.099.138-.072.193-.099.14-.072.188-.099.138-.077.212-.043.138-.077.217-.052.16-.024.193.02.162-.028.167-.022.188.018.194.018.188.024.141.04.188.021.217.068.138.043.171.097.145.039.161.094.143.04.193.14.121.116.166.09.12.116.118.119.143.16.145.162.071.138.149.167.073.14.141.162.022.164.101.188.025.162.099.189.027.162.05.211.026.166.026.167-.022.188.025.158zM72.1 81.653l-.167.022-.111.004-.167.025-.166.027-.193-.023-.143-.043-.14-.039-.188-.026-.142-.044-.123.009-.21-.07-.142-.044-.123-.118-.143-.04-.166-.097-.094-.069-.116-.113-.099-.069-.14-.162-.143-.045-.123-.117-.071-.142-.121-.112-.072-.14-.097-.189-.049-.089-.094-.188-.077-.14-.094-.188-.005-.118-.099-.184v-.351l-.004-.118-.026-.167-.029-.161v-.122l.046-.141.021-.193-.026-.157.043-.145.116-.119.024-.192.044-.14.095-.162.041-.144.07-.098.09-.165.122-.119.112-.126.077-.088.112-.127.162-.143.116-.123.099-.048.162-.14.138-.077.188-.096.145-.072.138-.073.12-.004.184-.094.166-.026.167-.029h.116l.21-.052.119-.004.164-.028.192.024.118-.004.142.043.189.021.144.046.21.063.072.026.142.044.167.09.166.09.149.045.09.071.122.114.17.093.094.066.143.162.095.067.144.164.048.093.146.157.072.149.098.184.049.093.094.188.026.163.072.143.027.159.028.166.005.118.047.209-.042.146.021.165.005.116-.022.192-.051.139-.018.188-.042.146.021.161-.112.12-.045.143-.09.168-.048.144-.047.141-.095.166-.114.122-.068.087-.165.149-.067.096-.117.124-.119.113-.188.096-.066.097-.144.079-.138.069-.188.097-.141.076-.214.053-.094.047-.163.026-.214.053zm6.96 3.815l.005.117-.022.185-.044.139-.023.192-.04.146.021.165-.115.12-.047.14-.095.166-.044.144-.044.135-.089.169-.118.122-.07.096-.166.149-.068.093-.115.116-.114.119-.188.102-.069.09-.146.076-.138.073-.188.102-.136.07-.215.049-.098.047-.166.026-.207.057-.166.022-.115.004-.167.026-.167.03-.188-.027-.141-.042-.146-.04-.188-.021-.143-.046h-.124l-.21-.063-.143-.05-.123-.112-.138-.046-.166-.087-.095-.074-.12-.109-.095-.074-.145-.162-.141-.043-.12-.115-.073-.14-.123-.114-.071-.144-.099-.18-.046-.098-.098-.187-.073-.142-.099-.183v-.118l-.099-.192.001-.115-.004-.235v-.115l-.022-.165-.028-.163-.004-.118.045-.144.022-.189-.026-.161.044-.146.118-.122.022-.184.048-.148.086-.162.05-.146.068-.096.092-.166.119-.118.116-.119.072-.096.116-.119.162-.144.117-.118.089-.049.167-.144.142-.075.185-.096.145-.08.138-.069h.123l.188-.105.16-.018.166-.035h.116l.217-.047h.116l.166-.03.189.021.12-.004.138.043.188.018.146.053.209.062.078.02.139.05.165.087.171.092.14.05.094.069.12.112.167.089.099.07.142.166.1.069.141.158.053.096.14.158.071.14.1.186.047.096.1.189.027.165.071.135.027.167.022.167v.113l.055.212-.05.143.02.167zm.108-13.841v.12l-.044.14.025.166-.046.143-.021.189-.044.138-.019.195-.071.094-.047.138-.094.171-.043.142-.068.094-.095.167-.089.166-.072.099-.166.145-.065.095-.119.12-.139.073-.115.12-.145.073-.111.12-.189.099-.143.073-.165.026-.185.098h-.123l-.188.099-.164.026-.161.029h-.12l-.163.026-.188-.018-.193-.022-.118.004-.143-.046-.192-.021-.141-.044-.116.004-.167-.09-.141-.048-.17-.09-.142-.044-.162-.094-.099-.068-.094-.068-.119-.116-.168-.094-.117-.116-.122-.111-.071-.141-.122-.116-.072-.144-.072-.138-.075-.14-.095-.188-.076-.138-.072-.14-.022-.164-.077-.14-.026-.166-.051-.206.046-.145-.024-.164-.031-.166v-.117l.046-.14.022-.189.022-.192.046-.143.044-.14.046-.142.048-.145.085-.167.05-.142.044-.144.116-.112.117-.12.117-.123.066-.099.091-.165.143-.072.167-.145.094-.048.183-.094.144-.076.139-.073.188-.099.137-.072.146-.077.137-.07.163-.026.142-.073.145.04.214-.048h.119l.164-.028.163-.026.145.04.142.046.192.021.142.046.142.044.141.046.142.044.166.09.167.094.099.068.138.043.122.114.164.092.051.097.149.16.164.089.118.113.069.144.077.138.116.119.099.188.073.138.031.162.065.138.078.144.021.167-.017.188.026.16.067.145-.016.183zm32.287-2.675l.923-.696c.341-.254.588-.117.548.311l-.108 1.147c-.04.427.251.916.646 1.082l1.062.446c.395.175.403.453.01.632l-1.05.479c-.396.18-.669.673-.615 1.1l.146 1.146c.047.423-.199.572-.549.32l-.937-.667c-.351-.248-.915-.239-1.261.017l-.924.694c-.339.26-.587.12-.543-.304l.104-1.152c.045-.427-.248-.915-.641-1.082l-1.064-.449c-.394-.168-.398-.453-.009-.633l1.048-.475c.393-.177.666-.676.616-1.097l-.138-1.15c-.055-.424.188-.569.535-.321l.942.667c.353.254.917.245 1.259-.015zm-9.463-15.311l1.048-.479c.391-.18.664-.679.616-1.099l-.145-1.147c-.052-.427.192-.572.543-.32l.941.663c.346.252.915.243 1.255-.013l.924-.694c.341-.256.587-.123.548.304l-.107 1.151c-.042.427.252.912.645 1.082l1.063.449c.393.169.399.449.008.631l-1.049.479c-.395.18-.667.67-.612 1.096l.143 1.146c.046.427-.193.572-.544.324l-.941-.672c-.354-.248-.916-.239-1.259.021l-.924.69c-.342.261-.588.123-.548-.305l.107-1.147c.046-.427-.247-.915-.642-1.082L102 54.266c-.398-.163-.398-.45-.008-.625zm-18.523-16.11l1.05-.479c.389-.18.667-.672.614-1.094l-.144-1.148c-.049-.432.193-.569.543-.324l.94.67c.351.245.917.241 1.256-.02l.924-.694c.346-.256.588-.116.546.309l-.106 1.147c-.039.427.252.912.646 1.082l1.062.449c.396.171.4.453.008.633l-1.047.479c-.391.179-.669.672-.614 1.099l.143 1.147c.045.421-.197.57-.542.318l-.943-.668c-.347-.247-.912-.242-1.253.018l-.929.696c-.342.256-.587.121-.547-.312l.11-1.146c.042-.425-.249-.916-.646-1.08l-1.061-.449c-.395-.17-.4-.454-.01-.633zM60.231 52.562l.219.068.138.046.149.044.21.063.216.066.139.046h.234l.164-.026.192.017.217-.055.228-.004h.238l.287-.031.162-.026.258-.077h.239l.138-.077h.123l.232-.125.21-.05.094-.043.14-.077.094-.05.142-.07.068-.096.116-.121.094-.048.099-.05.114-.12.116-.121.072-.095.116-.118.089-.168.139-.189.14-.194.09-.165.138-.192.094-.162.094-.171.09-.166.068-.215.095-.166.093-.167.064-.21.022-.188.094-.171.022-.188.089-.167.022-.188.02-.188.021-.188.072-.214.018-.188.022-.188.018-.188-.022-.162.044-.263-.031-.162.021-.189.024-.192-.028-.162-.004-.237-.022-.162.022-.192-.026-.163-.004-.231-.05-.217.019-.188-.024-.166-.026-.16-.077-.26-.022-.163-.026-.166-.055-.21-.004-.232-.022-.166-.05-.213.024-.188-.05-.21-.03-.166-.024-.165-.048-.212-.05-.21-.031-.163-.048-.214-.024-.163-.053-.21-.024-.162-.026-.164-.052-.217.021-.188-.05-.21-.026-.167-.021-.159.018-.189-.022-.166-.05-.21-.026-.162-.026-.167-.029-.166-.004-.232-.026-.166.021-.188.05-.143-.054-.212.021-.188-.026-.16.022-.195v-.116l.019-.188.022-.188.044-.142.018-.189.024-.19.043-.143.024-.188-.028-.166.05-.138.09-.167.065-.214.046-.14.022-.189.046-.142.044-.145.045-.143.094-.162.09-.17.07-.094.067-.214.046-.14.044-.142.166-.145.04-.143.094-.166.116-.121.068-.096.12-.121.118-.116.116-.125.09-.163.116-.12.116-.123.119-.12.138-.073.116-.121.118-.115.117-.123.188-.099.116-.12.141-.077.188-.094.143-.07.162-.148.138-.073.145-.072.21-.048.188-.099.167-.033.188-.094.21-.048.189-.099.167-.026.14-.072.21-.055.167-.026.165-.022.162-.028.238-.009.142.046.167-.022.116-.005.188.018h.124l.187.018.144.048.188.02.238.111.259.044.145.046.142.039.118.116.144.046.093.071.124.116.141.04.095.072.116.112.099.073.119.111.141.046.078.142.094.068.072.141.094.07.077.135.095.07.048.096.119.116.048.094.076.138.049.09.071.145v.116l.072.138.048.097.073.142.004.112.071.14v.121l.049.095v.115l.006.116.023.167.047.094.006.234.004.236-.04.26-.021.189-.073.214-.067.213-.094.166-.063.215-.092.166-.047.138-.138.193-.046.145-.161.142-.05.145-.11.12-.123.116-.117.123-.089.164-.073.095-.094.05-.138.076-.116.116-.093.049-.119.123-.095.047-.095.046-.093.052-.095.046-.209.048-.188.099-.167.029-.09.048-.171.032h-.114l-.189-.019h-.116l-.145-.044-.188-.022-.189-.02-.143-.044-.166-.093-.193-.134-.115-.118-.099-.066-.145-.162-.143-.163-.094-.188-.033-.167-.094-.188-.048-.206.017-.188.022-.193.045-.256.095-.164.039-.265.116-.118.067-.214.116-.121.073-.094.188-.099.09-.05h.121l.123-.005.116.117.048.094.122.118v.233l-.113.238-.092.283-.086.287.022.283.048.09.077.142.144.046.189.138.188.02.162-.029.164-.026.217-.054.161-.139.139-.076.167-.145.117-.12.142-.188.09-.166.089-.165.09-.166.073-.214.095-.166.017-.189.045-.145-.028-.166.025-.188-.025-.164-.004-.235-.098-.188-.049-.206-.131-.242-.053-.21-.117-.116-.05-.09-.049-.099-.122-.111-.047-.094-.094-.068-.119-.116-.099-.068-.164-.094-.094-.068-.146-.043-.142-.046-.167-.09H73.3l-.196-.017-.142-.044-.184-.02-.167.024-.236.004-.141.076-.214.048-.14.077-.188.094-.139.077-.188.094-.163.142-.188.099-.167.145-.16.143-.119.123-.184.214-.098.167-.16.142-.184.221-.089.16-.119.239-.138.193-.145.192-.09.167-.066.214-.118.239-.087.166-.114.237-.048.144-.067.21-.068.214-.022.188-.068.21-.094.167.004.238.004.237-.044.256-.017.192-.018.304.021.167v.117l.004.118-.022.188.026.164v.119l.026.16.029.167v.116l-.024.193v.118l.004.232.005.12.05.208.004.121.043.21.029.162.026.166.026.167.029.165.021.162.053.21v.116l.004.238v.117l.05.21.026.167.05.212.026.16.026.171.028.162.022.162.03.164.072.145.038.163.046.206.026.167.026.16.024.167.031.166.022.167.026.166.028.16.07.14.006.12.048.206.004.123.094.184v.117l.026.164.072.141.006.043.02-.018.133-.118.141-.125.137-.125.141-.118.138-.125.197-.104.14-.12.18-.145.179-.142.156-.082.203-.107.139-.123.197-.098.192-.107.163-.081.243-.125.173-.046.204-.098.197-.107.219-.064.218-.061.223-.064.218-.067.219-.062.256-.085.243-.022.215-.063.201-.004.243-.026.236-.024.221-.061.201-.004.244-.024.235-.026.181-.04.196-.004.201-.004.202-.004.161.018.197-.005.202-.004.221.035.196-.004.162.018.201-.004.161.018.162.017.22.038.156.017.184.055.162.017.181.058.157.019.224.036.115.035.185.059.183.055.175.057.163.018.12.037.18.052.185.059.142.077.141.081.162.017.196.095.125.035.197.098.127.038.139.075.179.059.202.094.145.081.179.055.142.079.141.073.202.098.181.06.137.077.184.052.162.123.201.094.185.058.138.077.2.093.205.099.137.076.202.095.203.094.18.059.206.092.139.081.221.037.16.117.201.094.184.06.141.077.201.096.18.055.201.094.184.063.18.052.162.118.219.035.145.081.18.053.181.055.177.059.184.058.181.055.144.077.179.057.143.077.222.038.12.035.18.057.18.059.142.077.158.017.184.055.162.018.18.06.12.035.139.077.162.018.124.04.157.02.141.074.16.018.123.038.159.018.123.037.154.018.123.035h.104l.12.036.141.076.159.02.221.035.219.04.18.055.262.013.166.018.215.037.161.018.202-.004h.098l.16.013h.1l.158.018.225.031.218.042.145.077.121.04.1.093.103.099.038.081-.035.12v.099l-.059.081-.079.141-.117.167-.099.096-.082.042-.056.085-.06.081-.163.081-.137.121-.077.043-.08.042-.095.099-.086.04-.075.042-.139.125-.081.042-.116.061-.12.064-.141.12-.158.082-.098.103-.161.085-.117.06-.197.107-.16.081-.157.079-.162.087-.157.083-.138.118-.197.108-.202.099-.203.103-.151.085-.226.068-.196.103-.198.099-.195.107-.202.103-.239.12-.214.063-.206.104-.251.085-.202.107-.261.081-.219.068-.239.121-.258.085-.261.085-.217.063-.301.103-.218.062-.261.089-.257.081-.282.05-.258.079-.278.046-.303.103-.235.026-.282.046-.314.068-.261.083-.281.046-.279.046-.301.004-.276.044-.285.044-.339.028-.277.043-.257-.017-.346.026-.237.029-.3.004-.302.004-.3.009-.261-.018-.259-.013-.238.022-.261-.013-.262-.02-.222-.035-.236.026-.265-.018-.223-.035-.218-.033-.202.004-.238-.074h-.201l-.236-.072-.167-.018-.214-.038-.162-.017-.22-.036-.183-.059-.223-.031-.12-.042-.218-.035-.123-.04-.179-.055-.186-.059-.12-.035-.179-.055-.179-.057-.121-.042-.18-.052-.148-.077-.117-.042-.162-.017-.137-.077-.121-.04-.162-.013-.145-.076-.139-.082-.12-.035-.123-.042-.138-.069-.126-.038-.116-.044-.099-.094-.121-.042-.129-.054-.126-.037-.254-.116-.208-.098-.237-.072-.201-.099-.225-.036-.237-.076-.202-.094-.221-.036-.265-.118-.202-.092-.236-.076-.184-.06-.26-.111-.163-.116-.201-.094-.202-.099-.225-.136-.16-.116-.239-.077-.167-.116-.155-.116-.145-.082-.162-.116-.16-.114-.201-.098-.102-.099-.122-.066-.068.116-.044.145-.162.143-.094.166-.116.123-.094.164-.119.123-.133.188-.116.121-.094.167-.118.12-.165.149-.14.182-.112.127-.115.116-.163.145-.166.147-.117.118-.015.009-.12.164-.114.244-.117.236-.093.167-.09.287-.138.188-.065.211-.137.193-.073.214-.112.237-.046.14-.094.167-.09.17-.094.165-.09.167-.048.145-.02.188-.089.164-.022.188-.022.188-.044.144-.024.188-.022.184-.017.192.021.167-.017.188.026.163-.022.188.026.167-.021.188.026.165v.116l.055.212v.116l-.022.188.049.099.013.083.033-.096.116-.116.09-.171.048-.145.09-.16.119-.123.065-.099.14-.188.116-.121.138-.193.166-.144.141-.193.162-.143.16-.144.166-.143.21-.171.09-.046.098-.048.14-.077.094-.048.116-.123.094-.044.072-.099.089-.046.099-.048.138-.072.094-.048.094-.05.188-.098.184-.098.216-.051.188-.098.138-.072.167-.031.137-.072.213-.048h.121l.162-.033.143-.07h.116l.282-.029.167-.031.189.022.166-.026h.116l.077.022.111-.004.033.05-.05.022-.048.022-.141.077-.044.144-.162.143-.116.121-.123.119-.065.093-.073.099-.068.094-.116.121-.072.094-.167.144-.065.099-.09.16-.118.123-.07.099-.118.12-.116.117-.111.121-.095.164-.068.094-.094.166-.116.121-.046.145-.094.166-.065.094-.116.121-.09.167-.05.138-.094.171-.018.188-.021.189-.024.188-.09.167-.066.215-.024.188-.022.188-.017.188.022.166-.018.188-.022.188-.021.188-.042.144.021.165-.017.188v.118l.022.167-.044.138.048.095.006.236v.118l.026.162.026.048-.072-.022-.048.022-.116.004-.167.026-.166.024-.167.031-.21.05-.21.048h-.118l-.094.055-.165.022-.094.052-.217.05-.231.004-.21.048-.188.101-.167.026-.14.072-.138.07-.094.055-.193.094-.14.077-.138.07-.116.123-.118.116-.16.149-.123.116-.16.145-.118.12-.116.116-.116.121-.072.099-.116.123.004.116-.117.116-.118.004-.099-.065-.094-.188-.094-.068-.077-.144-.07-.138-.098-.188-.095-.184-.099-.184-.123-.118-.048-.092-.119-.118-.047-.095-.116-.116-.123-.116-.164-.085-.099-.072-.171-.095-.162-.089-.188-.018-.215-.068-.144-.044-.215-.067-.188-.021-.215-.064-.19-.022-.188-.018-.259-.045-.144-.04h-.232l-.217-.067-.164.03-.188-.021-.188-.018-.217-.072-.116.004h-.116l-.287-.086-.145-.048-.166-.085-.022-.05v-.116l.111-.12.051-.021.094-.051.094-.05.138-.07.145-.072.116-.004.145-.073.16-.03.167-.026.21-.05.14-.073.215-.052.162-.024.188-.099.167-.026.167-.026.21-.054.166-.022.164-.026.212-.055.094-.048.188.022.098-.05.156-.026.099-.046.123-.004.065.024.119-.004.021-.072v-.117l-.05-.094-.022-.167-.099-.063-.044-.099-.123-.111-.048-.094-.12-.116-.05-.094-.116-.114-.05-.095-.121-.116-.072-.138-.12-.116-.05-.092-.066-.142-.055-.094-.048-.094-.067-.145-.055-.213-.026-.159.095-.167.111-.127.193-.099.234-.004.07.028.145.044.142.044.145.041.14.05.169.088.118.119.164.089.171.09.127.072.018-.16-.05-.091.018-.189v-.123l-.027-.162v-.116l.018-.188v-.12l.05-.141-.004-.12.022-.189.022-.188.024-.072.017-.305.09-.282.018-.309.043-.256.119-.241.039-.261.044-.256.044-.248-.099.046-.212.052-.116.005-.21.05h-.116l-.166.026-.121.005-.167.024-.116.004-.145-.046-.167.026h-.116l-.073-.018-.254-.041-.217-.067-.265-.04-.16-.092-.216-.07-.171-.09-.164-.089-.188-.141-.193-.138-.118-.115-.121-.114-.146-.16-.145-.162-.068-.143-.077-.14-.116-.112-.098-.193-.073-.14-.074-.138-.073-.136-.071-.143-.026-.162-.072-.143-.073-.14-.076-.141-.026-.164-.073-.137-.026-.164-.044-.096-.028-.161-.026-.166v-.115l-.077-.145.05-.138-.028-.167.045-.144-.004-.116.026-.072-.031-.282.022-.188.022-.188.118-.116.043-.143.073.022h.116l.095.061.094.072.12.116.099.068.073.141.094.065.12.118.051.094.094.07.116.113.123.117.12.115.12.116.121.119.188.133.123.116.094.068.121.116.166.095.121.113.167.092.16.091zm-7.849-14.757l1.048-.479c.391-.18.664-.674.614-1.099l-.143-1.143c-.05-.427.193-.576.543-.324l.941.668c.35.251.915.243 1.254-.018l.923-.694c.342-.257.587-.118.548.309l-.107 1.147c-.042.427.25.916.646 1.082l1.062.449c.394.169.398.451.009.63l-1.049.479c-.389.18-.667.67-.615 1.095l.14 1.153c.053.42-.192.569-.542.317l-.937-.668c-.355-.247-.916-.243-1.259.018l-.924.694c-.341.26-.589.118-.547-.309l.107-1.147c.043-.427-.248-.915-.642-1.082l-1.062-.449c-.393-.167-.405-.452-.008-.629zm-16.91 17.181l1.049-.48c.389-.18.667-.676.615-1.099l-.14-1.148c-.052-.427.188-.569.539-.319l.941.663c.351.252.916.248 1.257-.013l.923-.694c.34-.261.587-.121.545.304l-.106 1.152c-.04.427.251.915.646 1.082l1.064.448c.394.171.398.449.008.633l-1.051.479c-.39.179-.667.667-.613 1.092l.139 1.15c.054.424-.193.569-.537.322l-.944-.667c-.353-.252-.913-.243-1.259.017l-.923.692c-.342.26-.587.121-.548-.306l.112-1.147c.037-.431-.25-.915-.646-1.08l-1.062-.454c-.394-.166-.398-.452-.009-.627zm-4.68 16.838l1.049-.479c.39-.179.663-.674.613-1.099l-.142-1.147c-.05-.427.192-.569.542-.319l.942.669c.348.245.913.237 1.254-.02l.924-.694c.342-.261.587-.123.548.304l-.107 1.152c-.042.426.249.911.646 1.081l1.062.449c.398.171.398.449.009.631l-1.048.482c-.39.18-.668.668-.615 1.092l.14 1.149c.053.42-.192.574-.542.322l-.938-.673c-.35-.243-.915-.238-1.258.022l-.924.692c-.342.258-.589.12-.548-.306l.107-1.148c.044-.425-.247-.915-.642-1.086l-1.064-.445c-.396-.166-.401-.449-.008-.629z"/><path fill="#E6D5C2" d="M70.396 48.73l.158-.081.179-.044.178-.043.204-.004.074-.042.123-.064.138-.021h.093l.086-.04.144-.022.099-.004h.094l.12-.064.145-.024.074-.044.123.04.12-.062.139-.022.1-.003.143-.02.137-.023h.101l.098-.004.179-.044h.099l.165.018.095-.005.143-.024.134-.017.104-.005.139-.021h.103l.099-.004h.098l.141-.027.141-.017.198-.005.179-.046.202-.004h.203l.177-.046.157.02.185-.047.198-.004.122.04.196-.005.143-.022.196-.004.142-.022.159.017.122.036h.198l.142-.022.184.054.158.017.219.038.161.013h.202l.18.057.22.031.185.059.218.038.219.034.261.116.223.037.26.014.202.094.273.057.248.072.242.081.238.072.243.074.241.073.237.076.249.077.276.055.203.098.219.035.201.094.283.06.179.052.185.06.201.093.18.06.179.057.144.076.122.035.178.059.082.057.12.037.081.059.082.057.121.036.057.024-.081.039-.077.042-.2.004-.158-.018-.104.005-.162-.02-.154-.017-.122-.035-.202.004-.159-.018-.16-.019-.161-.018-.22-.034-.22-.036-.161-.02-.224-.035-.214-.037-.227-.035-.242-.072h-.2l-.238-.076-.225-.036-.22-.03-.237-.081-.218-.031-.184-.059-.261-.017-.096-.047.004.031.082.158-.016.155.063.221.018.138.067.221v.197l.081.16.022.14.046.175-.041.121.005.202.021.139-.039.12-.034.121-.021.162-.04.12-.012.158-.1.202-.079.144-.043.116-.074.042-.081-.055v-.103l-.041-.076-.023-.143-.043-.077-.024-.139-.022-.139-.022-.14-.04-.179-.046-.18-.08-.155-.039-.18-.064-.116-.04-.081-.024-.139-.039-.082-.063-.116-.04-.081-.081-.157-.005-.099-.04-.079-.059-.122-.045-.077-.04-.079-.064-.118-.06-.121-.042-.076-.04-.081-.103-.197-.084-.156-.01-.011-.177-.024h-.197l-.224-.037-.261-.014-.198.006-.161-.018-.237.022-.184.046-.237.022-.161-.014-.243.022-.198.005-.203.004-.2.004-.214.064-.2.004-.184.04-.072.002.061.063.086.161.144.135.139.133.111.213.084.164.163.189.085.161.143.274.081.162.111.215.119.214.192.243.032.189.111.218.114.217.11.215.087.166.084.156.013.026.05.008.18.06.2-.009.222.04.162.019.219.035.202-.004.218.035.158.015.223.04.199-.005.202-.004.154.018.227.034.201-.004.196-.004.226.037.197-.005.202-.006h.198l.223.037.238-.026.162.018.197-.005.184-.042.218.034.176-.042h.206l.157.012.242-.021.157.013.184-.039.199-.005.195-.004.185-.046.157.02.18-.042.201-.005.179-.045.138-.022.18-.04.202-.008.118-.06.184-.039.137-.028.18-.04.179-.044.137-.024.181-.039.18-.046.139-.022.144-.022.174-.039.183-.05.181-.042.135-.022.159-.085.198-.005.123-.057.138-.024.179-.043.162-.081.138-.023.141-.021.162-.086.195-.004.121-.059.138-.022.142-.029.178-.043.158-.077.141-.027.138-.021.141-.02.162-.083.12-.064h.1l.139-.021.121-.068.137-.023.119-.058.137-.022.122-.064h.098l.162-.085.076-.039.144-.024.076-.04.139-.022.08-.039.181-.046.22-.064.114-.061.186-.046.115-.059.18-.044.081-.044.139-.02.099-.103.121-.061.116-.064.085-.041.072-.142.022-.059-.081-.057-.121-.038-.08-.056-.122-.038-.119-.039h-.099l-.122-.035-.121-.037-.179-.06-.165-.012-.238-.079-.278-.055-.123-.042-.125-.034-.18-.058-.121-.033-.157-.021-.2-.095-.162-.017-.144-.077-.178-.054-.159-.022-.206-.094-.162-.014-.201-.098-.219-.036-.179-.054-.178-.063-.24-.07-.163-.02-.205-.094-.214-.035-.206-.099-.218-.037-.18-.057-.243-.072-.207-.099-.214-.035-.18-.055-.243-.076-.201-.094-.181-.057-.221-.038-.181-.052-.242-.077-.184-.059-.179-.057-.18-.059-.219-.03-.202-.099-.18-.055-.144-.081-.161-.013-.22-.035-.142-.081-.14-.076-.162-.014-.142-.08-.158-.014-.116-.041-.18-.058-.125-.036-.122-.036-.078-.059-.244-.074-.26-.02-.22-.134-.225-.034-.155-.02-.163-.018-.12-.035-.122-.037-.121-.035-.162-.017-.12-.042-.164-.018-.114-.035-.162-.013-.116-.041-.163-.017-.159-.018-.122-.037-.16-.018-.141.022-.138-.074-.14.021-.162-.017-.16-.02-.123-.035-.16-.018-.157-.017h-.103l-.197.005-.145.021-.159-.013-.158-.018-.162-.017-.156-.02-.144.025-.14.022-.16-.018-.139.022-.163-.014-.138.022-.139.018-.122-.035-.179.044h-.097l-.181.046-.103.004h-.198l-.101.004-.18.04-.139.022-.139.024-.121.061-.135.028-.143.018-.14.022-.12.064-.139.021-.123.064-.133.022-.081.039-.139.024-.121.061-.116.064-.121.064-.144.021-.116.058-.116.063-.086.042-.157.083-.076.042-.122.063-.12.061-.123.064-.115.059-.121.061-.076.046-.121.061-.118.059-.121.064-.081.04-.115.063-.121.061-.081.042-.116.063-.122.061-.057.081-.077.042-.12.062-.081.041-.123.061-.057.081-.081.046-.077.04-.12.059-.059.079-.081.041-.16.086-.135.125-.049.043z"/><path fill="#E6D5C2" d="M76.791 52.69l-.141-.137-.06-.103-.133-.136-.114-.081-.085-.159-.189-.11-.169-.184-.14-.138-.111-.08-.215-.159-.144-.129-.139-.138-.192-.105-.194-.107-.139-.133-.193-.103-.139-.136-.192-.103-.199-.108-.107-.08-.133-.134-.251-.077-.108-.08-.193-.108-.112-.077-.198-.094-.114.058h-.099l-.116.059-.103.004h-.103l-.116.063-.14.022-.138.022-.08.039-.141.024-.081.044-.138.024-.081.04-.138.022-.14.022-.081.041-.117.064-.142.022-.076.039-.099.005-.122.058-.099.005-.142.022-.118.063-.079.04-.024.007.12.061.201.098.139.077.208.098.133.077.201.094.206.099.243.072.198.098.201.095.201.098.265.112.243.076.237.077.14.077.12.039.121.037.162.018.12.035.123.039.137.077.162.02.126.034.158.018.119.035.141.077.166.017.134.077.165.017.156.02.18.057.162.02.121.034.22.036.179.055.161.017.162.017.218.038.162.017.163.018.045.015z"/><path fill="#5BA745" d="M28.755 79.604c-.191.018-.377.014-.567.034-.584.046-1.165.105-1.747.158.215 2.181.528 4.335 1.029 6.421.576-.106 1.154-.133 1.729-.22a55.566 55.566 0 0 1 3.184-.416 57.114 57.114 0 0 1 3.111-.206c1.053-.049 2.099-.096 3.146-.088 1.051.005 2.089.058 3.133.114 1.018.053 2.035.1 3.042.201 1.062.11 2.104.267 3.151.425.965.146 1.933.271 2.883.456 1.076.206 2.12.472 3.173.731.887.21 1.78.401 2.647.655 1.104.315 2.166.688 3.236 1.052.771.266 1.559.498 2.31.789 1.197.459 2.336.979 3.481 1.496.567.255 1.163.482 1.717.753a59.997 59.997 0 0 1 4.797 2.605 80.37 80.37 0 0 1 2.5-2.045c-12.507-9.298-28.844-14.58-45.955-12.915zM56.64 113.285l-.035-.026a36.764 36.764 0 0 0-3.641-2.29c-.223-.126-.442-.253-.668-.371a36.086 36.086 0 0 0-3.913-1.797l-.703-.262a37.395 37.395 0 0 0-4.396-1.33c-.035-.01-.072-.013-.109-.023a38.271 38.271 0 0 0-4.714-.74c-.101-.007-.202-.026-.302-.034a46.852 46.852 0 0 0 7.389 6.596c.238.047.455.14.691.192 1.229.274 2.417.608 3.576.998.37.127.738.239 1.1.375 1.423.535 2.802 1.125 4.072 1.807a71.637 71.637 0 0 1 1.653-3.095z"/><path fill="#5BA745" d="M72.771 108.417c.622-.834 1.225-1.664 1.899-2.479.769-.93 1.615-1.813 2.453-2.71.715-.771 1.4-1.546 2.162-2.291.917-.893 1.916-1.717 2.898-2.561.791-.681 1.544-1.38 2.377-2.019 1.089-.851 2.271-1.604 3.431-2.383.827-.553 1.61-1.144 2.472-1.661 1.355-.811 2.807-1.505 4.247-2.21.76-.377 1.474-.811 2.256-1.155a57.413 57.413 0 0 1 7.075-2.563c.007-.004.014-.004.02-.004a55.038 55.038 0 0 1 6.894-1.787c.048-.013.093-.026.141-.033a59.504 59.504 0 0 1 6.951-.903c.031-.004.063-.013.093-.018.367-2.023.553-4.106.648-6.218-2.021.018-4.05.113-6.095.325-.109.008-.215.004-.322.017-10.647.675-21.007 4.15-30.207 9.673-2.575 1.545-5.078 3.227-7.449 5.083l.912.679c-.304-.226-.611-.451-.915-.679a69.2 69.2 0 0 0-2.503 2.051c.495.298.997.596 1.476.906a70.41 70.41 0 0 1 2.255-2.044h.002a66.074 66.074 0 0 0-2.255 2.048c-.478-.314-.98-.612-1.478-.91a71.757 71.757 0 0 0-7.622 7.558c.664.468 1.316.941 1.949 1.427a63.213 63.213 0 0 0-1.791 2.574 43.711 43.711 0 0 0-2.349-1.353c-1.572 1.998-3.001 4.104-4.351 6.258-.468.748-.965 1.479-1.403 2.25h-.002.002a66.556 66.556 0 0 0-1.655 3.097c.63.342 1.172.74 1.76 1.108-.586-.368-1.127-.767-1.762-1.104-.011.019-.02.044-.031.062-.245.49-.466.989-.703 1.482a45.78 45.78 0 0 0 11.144 3.21c.245-.596.583-1.198.854-1.794.407-.896.81-1.787 1.279-2.681.492-.955 1.051-1.886 1.611-2.829.519-.876 1.024-1.75 1.6-2.614.634-.949 1.335-1.872 2.032-2.805zm-14.263 10.176c.173-.49.374-.964.562-1.443-.186.479-.387.953-.561 1.443h-.001z"/><path fill="#5BA745" d="M62.396 104.777c.806.434 1.596.886 2.349 1.353a66.074 66.074 0 0 1 1.789-2.574 51.325 51.325 0 0 0-1.951-1.423l.002-.004c-8.204-5.72-18.394-9.301-29.317-9.363a52.548 52.548 0 0 0-4.722.201c-.287.011-.574.045-.861.066a47.116 47.116 0 0 0 3.07 6.102c.355-.046.708-.053 1.062-.089.808-.08 1.61-.152 2.416-.192.554-.026 1.104-.026 1.656-.036.808-.008 1.616-.017 2.419.01.552.026 1.099.069 1.646.105.79.061 1.576.113 2.358.202.562.069 1.117.165 1.675.245.751.116 1.502.226 2.24.367.583.118 1.15.262 1.723.394.694.166 1.393.315 2.073.5.613.175 1.207.377 1.807.563.617.198 1.241.373 1.843.591.672.241 1.311.518 1.961.781.504.199 1.021.389 1.511.603.95.426 1.861.886 2.754 1.354.163.083.338.158.498.242l-.001.002zM115.444 91.305c-.223.008-.449.018-.673.034a50.937 50.937 0 0 0-3.641.298c-.173.023-.344.062-.515.079a51.515 51.515 0 0 0-3.069.486c-.322.066-.639.152-.96.219-.86.185-1.721.371-2.57.599-.404.106-.802.241-1.204.361-.758.222-1.52.445-2.268.698-.448.155-.89.334-1.334.499-.691.255-1.386.509-2.066.798-.473.198-.935.421-1.404.632-.64.287-1.282.572-1.915.887-.483.242-.959.506-1.438.758-.596.321-1.194.636-1.779.974-.491.287-.974.595-1.457.893-.554.341-1.107.683-1.65 1.046-.491.329-.973.68-1.455 1.021-.514.368-1.025.731-1.527 1.112-.486.372-.959.758-1.435 1.143-.475.39-.953.774-1.417 1.178-.472.411-.935.841-1.397 1.261-.437.407-.872.814-1.3 1.234a76.61 76.61 0 0 0-2.539 2.668c-.433.485-.859.984-1.276 1.484a47.88 47.88 0 0 0-1.088 1.341 60.25 60.25 0 0 0-2.174 2.972 58.736 58.736 0 0 0-1.112 1.694 55.885 55.885 0 0 0-1.875 3.21c-.113.205-.216.426-.326.636 1.329.114 2.669.179 4.026.179l-.09-.302 8.031-.443c.394-.063.783-.152 1.169-.231.178-.305.396-.603.583-.9.325-.536.665-1.062 1.02-1.586a42.12 42.12 0 0 1 1.341-1.892c.397-.534.798-1.06 1.221-1.581.49-.604 1.01-1.195 1.534-1.782.46-.513.915-1.021 1.402-1.516.558-.572 1.149-1.121 1.742-1.673.513-.473 1.017-.95 1.552-1.404.636-.539 1.308-1.042 1.975-1.556.555-.42 1.096-.849 1.672-1.243.731-.507 1.504-.963 2.272-1.428.568-.351 1.119-.714 1.71-1.034.895-.49 1.839-.919 2.781-1.348.51-.237.997-.503 1.521-.718a41.935 41.935 0 0 1 4.63-1.617 42.85 42.85 0 0 1 4.08-1.099 46.133 46.133 0 0 0 3.313-7.075c-.211.011-.416.024-.621.034zM106.787 114.191c.22-.499.541-.937.786-1.423-.61.569-1.216 1.148-1.853 1.691.359-.079.704-.201 1.067-.268zM106.214 106.814a41.242 41.242 0 0 0-4.837 1.877c-.093.044-.183.097-.273.142a43.237 43.237 0 0 0-4.555 2.535c-.155.1-.317.192-.471.288a44.14 44.14 0 0 0-4.223 3.171c-.205.175-.408.351-.609.525a43.695 43.695 0 0 0-3.823 3.779c-.021.022-.04.049-.061.074a46.455 46.455 0 0 0 19.254-12.514c-.135.038-.266.084-.402.123z"/><path fill="#8A1840" d="M60.883 73.495l.166-.142.139-.073.14-.076.164-.142.162-.149.116-.116.118-.121.116-.122.094-.162.112-.125.094-.163.094-.164.046-.144.095-.166.089-.171.092-.165.02-.188.044-.14.021-.193.025-.184-.034-.17.073-.211-.026-.161.022-.189-.026-.164-.027-.167-.051-.21-.021-.162-.073-.144-.03-.16-.095-.194-.098-.185-.072-.138-.099-.183-.145-.162-.071-.142-.147-.163-.116-.116-.123-.116-.12-.114-.188-.138-.099-.068-.234-.115-.098-.068-.161-.095-.17-.089-.141-.044-.141-.046-.217-.061-.193-.024-.188-.023-.139-.039-.187-.022-.193-.019-.162.028-.167.022-.188-.017-.164.022-.167.025-.188.099-.239.009-.137.072-.141.072-.188.099-.142.072-.185.099-.139.07-.189.216-.142.073-.118.12-.116.12-.09.171-.166.145-.116.116-.09.164-.048.145-.09.166-.094.171-.042.137-.022.189-.093.167-.044.142-.02.188-.071.217-.046.142.056.206v.355l.03.166.022.162.029.166.094.189.026.16.053.216.098.184.071.138.095.189.099.184.118.115.121.119.076.137.138.163.122.116.121.115.166.091.116.118.125.116.167.089.21.07.166.086.142.046.217.068.142.044.141.045.187.023.193.017.138.044.193.02.167-.025.234-.008.166-.022.164-.026.163-.027.17-.028.256-.077.139-.075.187-.094zM68.452 73.949l.138-.073.239-.004.183-.099.189-.103.164-.024.19-.099.138-.069.167-.145.138-.072.192-.103.085-.162.145-.075.138-.188.145-.072.044-.144.111-.121.094-.167.14-.192.044-.139.094-.169.046-.146.095-.164.018-.188.021-.188.02-.189.021-.188.023-.19.044-.143-.049-.21.044-.14-.048-.214-.027-.167-.028-.162-.048-.211-.055-.209-.07-.14-.024-.165-.098-.19-.073-.138-.146-.161-.095-.189-.12-.112-.144-.166-.121-.116-.123-.112-.115-.116-.189-.136-.12-.12-.166-.09-.143-.042-.171-.091-.166-.092-.145-.044-.16-.094-.188-.018-.145-.046-.192-.017-.166-.095-.233.01-.166.023-.166.027-.139-.047-.17.029-.21.053-.166.026-.163.024-.188.098-.167.027-.188.098-.138.073-.188.098-.14.073-.164.146-.188.094-.162.144-.117.121-.117.12-.117.123-.138.188-.072.099-.162.142-.044.14-.067.215-.095.166-.046.145-.044.142-.067.21-.09.166-.022.189.022.166-.044.139-.017.192.022.162.047.21-.017.189.022.166.033.166.044.206.026.167.101.188.098.188.07.138.094.184.077.144.072.139.145.162.142.161.116.116.127.117.188.139.094.069.143.159.149.046.161.09.125.116.167.094.21.068.21.061.149.046.142.044.189.017.188.025.14.044h.236l.119-.005.236-.004.145-.077zM76.369 62.239l-.026-.166-.05-.211-.027-.161-.099-.189-.025-.162-.101-.188-.022-.164-.142-.163-.072-.14-.15-.166-.071-.138-.144-.162-.143-.16-.118-.118-.119-.116-.166-.09-.121-.116-.193-.14-.143-.039-.161-.095-.145-.039-.171-.096-.137-.044-.217-.068-.189-.022-.141-.039-.188-.024-.194-.018-.188-.017-.166.022-.162.028-.193-.02-.16.024-.216.053-.139.077-.212.043-.138.077-.188.099-.14.072-.193.099-.138.071-.188.099-.162.145-.143.07-.118.122-.164.147-.089.167-.114.116-.121.122-.089.165-.095.166-.094.166-.039.142-.095.167-.019.188-.044.144-.072.216-.044.143-.022.189-.046.138.004.234.027.169.024.162-.02.188.028.166.049.21.05.211.072.14.052.21.073.144.099.184.072.139.098.188.117.111.099.189.115.118.145.16.12.118.171.088.116.118.123.116.164.089.166.091.167.094.142.043.217.068.163.09.141.046.166-.029.142.047.218.063.163-.024.189.017.183.024.194.022.139-.076.237-.005.14-.072.193.017.184-.098.189-.098.165-.027.189-.094.138-.077.161-.141.146-.073.187-.099.094-.166.183-.099.099-.166.134-.07.095-.167.09-.17.094-.166.115-.121.068-.21.044-.145.118-.116.094-.171.018-.188.021-.183.047-.145.021-.188.023-.189.018-.192-.023-.16.023-.188zM67.208 78.208l-.004-.119-.044-.211-.004-.122-.094-.184-.004-.115-.047-.209-.052-.096-.073-.141-.05-.209-.12-.114-.073-.14-.098-.189-.116-.119-.123-.111-.07-.143-.123-.111-.093-.072-.147-.162-.141-.04-.119-.122-.143-.04-.145-.049-.166-.091-.138-.044-.099-.067-.216-.068-.138-.044-.193-.017h-.111l-.193-.018h-.118l-.189-.018h-.119l-.211.053-.166.022h-.117l-.144.076-.167.027-.21.049-.137.077-.095.049-.188.098-.14.073-.167.144-.116.116-.138.077-.067.094-.167.142-.068.098-.12.124-.09.161-.072.097-.044.14-.116.122-.09.167-.046.14-.021.188-.046.146-.044.143-.023.188-.041.14-.044.141.023.166.004.119.046.209.004.119.022.166.026.168.027.156.072.145.05.209.077.142.069.135.095.192.077.14.093.062.099.193.094.065.145.162.098.07.139.163.098.065.122.119.121.116.14.04.142.049.167.093.138.047.144.043.142.045.145.044.192.017.189.023.116-.006.145.045.162-.023.164-.026.118-.004.214-.053.116-.009.167-.017.142-.073.208-.053.165-.032.188-.091.089-.049.123-.122.16-.149.145-.066.115-.119.068-.097.116-.122.167-.139.068-.096.116-.122.044-.142.122-.117.044-.144.089-.172.051-.136.09-.176-.004-.112.047-.14.018-.194.046-.139.044-.14-.026-.168zM72.571 81.527l.214-.052.14-.077.189-.096.137-.07.145-.079.065-.096.188-.096.119-.113.117-.124.067-.096.165-.149.068-.087.114-.122.095-.166.046-.141.048-.144.091-.168.045-.142.112-.12-.022-.161.043-.146.018-.188.051-.139.022-.193-.005-.116-.021-.165.042-.145-.047-.209-.005-.118-.028-.166-.027-.16-.072-.142-.026-.163-.094-.188-.049-.093-.098-.183-.071-.15-.146-.157-.048-.093-.144-.164-.094-.067-.143-.162-.094-.067-.17-.093-.121-.114-.09-.07-.15-.046-.165-.09-.167-.089-.142-.044-.072-.027-.21-.063-.144-.046-.189-.022-.142-.043-.119.004-.192-.024-.164.028-.119.005-.21.052h-.116l-.166.029-.166.026-.185.094-.12.004-.138.073-.144.072-.189.096-.138.077-.162.14-.098.048-.116.123-.162.143-.112.127-.077.088-.111.126-.122.119-.09.165-.071.097-.041.144-.094.162-.044.14-.024.192-.116.119-.044.145.026.157-.021.193-.047.141v.122l.029.161.026.167.004.118v.351l.099.183.005.119.093.188.077.14.094.188.049.089.098.189.072.139.121.113.071.141.123.117.143.045.14.162.098.07.117.113.094.069.166.097.142.04.123.118.142.044.211.07.122-.008.142.044.189.026.139.039.143.043.193.023.166-.027.167-.025.111-.004.167-.023.214-.052.163-.027zM79.029 84.945v-.113l-.022-.167-.028-.167-.071-.135-.027-.165-.1-.189-.047-.096-.099-.185-.072-.14-.139-.158-.053-.096-.141-.158-.099-.07-.142-.166-.098-.07-.167-.089-.12-.112-.094-.069-.14-.05-.171-.092-.165-.087-.138-.05-.079-.019-.209-.063-.145-.052-.189-.018-.137-.043-.12.004-.189-.021-.166.031h-.116l-.217.047h-.116l-.166.035-.16.017-.188.106h-.122l-.139.069-.144.08-.185.096-.142.075-.166.144-.09.048-.116.119-.162.143-.116.119-.072.096-.116.119-.119.118-.092.166-.067.096-.05.146-.087.162-.047.148-.022.184-.118.122-.044.145.026.161-.022.19-.046.143.005.119.028.163.022.165v.115l.004.235.004.115.099.193v.118l.099.183.072.141.098.187.046.097.099.18.071.144.122.114.073.14.12.115.141.043.144.162.095.074.12.109.095.075.166.087.138.046.122.112.143.05.21.063h.123l.142.045.188.022.145.04.142.042.188.027.167-.03.167-.027.115-.004.166-.022.207-.057.166-.026.098-.047.215-.049.136-.07.188-.102.138-.073.145-.076.07-.09.188-.102.114-.119.116-.116.068-.093.166-.149.07-.096.118-.122.089-.169.044-.135.044-.143.094-.167.047-.14.115-.12-.021-.165.04-.145.023-.193.044-.138.022-.185-.004-.117-.026-.168.05-.143zM79.091 71.139l.016-.188-.02-.167-.078-.144-.066-.138-.031-.162-.073-.138-.099-.188-.116-.118-.077-.139-.069-.143-.119-.113-.164-.089-.149-.16-.051-.097-.164-.092-.122-.113-.138-.044-.098-.068-.167-.094-.166-.09-.142-.044-.141-.046-.141-.043-.142-.047-.192-.021-.142-.046-.144-.04-.163.027-.163.028h-.12l-.214.048-.144-.039-.143.072-.162.026-.137.07-.146.077-.137.072-.189.099-.139.072-.143.077-.183.094-.094.048-.168.145-.143.071-.091.165-.065.099-.118.122-.116.12-.116.113-.044.144-.05.142-.086.166-.048.145-.046.142-.044.14-.046.143-.022.192-.022.189-.046.14v.116l.031.166.024.164-.046.145.051.206.026.166.076.14.022.164.073.14.076.139.095.188.074.14.073.138.071.144.122.116.071.141.121.111.117.116.169.094.119.116.094.068.098.068.162.094.142.044.171.09.142.045.167.091.116-.005.141.044.191.022.143.046.118-.005.193.022.188.018.163-.026h.12l.161-.029.164-.026.188-.099h.123l.185-.098.165-.026.143-.073.189-.098.111-.12.145-.073.115-.12.139-.073.119-.12.065-.094.166-.145.073-.099.089-.166.094-.166.069-.094.043-.142.093-.171.047-.138.072-.094.018-.195.044-.138.022-.189.045-.142-.025-.166.044-.14v-.121l.017-.184-.068-.144z"/><path fill="#5BA745" d="M59.782 52.267l-.166-.095-.121-.116-.094-.068-.123-.116-.188-.133-.121-.119-.12-.116-.12-.115-.123-.117-.116-.113-.094-.07-.051-.094-.12-.118-.094-.065-.073-.141-.099-.068-.12-.116-.094-.072-.095-.061h-.116l-.073-.022-.043.143-.118.116-.022.188-.022.188.031.282-.026.072.004.116-.045.144.028.167-.05.138.077.145v.116l.026.166.028.161.044.096.026.164.072.141.026.164.076.141.073.14.072.143.026.162.071.143.073.136.074.138.073.14.098.193.116.112.077.14.068.143.145.162.146.16.121.114.118.116.193.138.188.141.164.089.171.09.216.07.16.092.265.04.217.067.254.044.073.018h.116l.167-.026.145.046.116-.004.167-.024.121-.005.166-.026h.116l.21-.05.116-.005.212-.052.099-.046-.044.248-.044.256-.039.261-.119.241-.043.256-.018.309-.09.282-.017.305-.024.072-.022.188-.022.189.004.12-.05.141v.12l-.018.188v.116l.027.162v.123l-.018.189.05.091-.018.16-.127-.072-.171-.09-.164-.089-.118-.119-.169-.088-.14-.05-.145-.041-.142-.044-.145-.044-.07-.028-.234.004-.193.099-.111.127-.095.167.026.159.055.213.068.138.048.094.055.094.066.142.05.092.12.116.072.138.121.116.05.095.116.114.05.094.12.116.048.094.123.111.044.099.099.063.022.167.05.094v.117l-.021.072-.117-.006-.065-.024-.123.004-.099.046-.156.026-.098.05-.188-.022-.094.048-.212.055-.164.026-.166.022-.21.054-.167.026-.167.026-.188.099-.162.024-.215.052-.14.073-.21.05-.167.026-.16.03-.145.073-.116.004-.145.072-.138.07-.094.05-.094.051-.051.021-.111.12v.116l.022.05.166.085.145.048.287.086h.116l.116-.004.217.072.188.018.188.021.164-.03.217.067h.232l.144.04.259.045.188.018.19.022.215.064.188.021.215.067.144.044.215.068.188.018.162.089.171.095.099.072.164.085.123.116.116.116.047.095.119.118.048.092.123.118.099.184.095.184.098.188.07.138.077.144.094.068.094.188.099.065.118-.004.117-.116-.004-.116.116-.123.072-.099.116-.121.116-.116.118-.12.16-.145.123-.116.16-.149.118-.116.116-.123.138-.07.14-.077.193-.094.094-.055.138-.07.14-.072.167-.026.188-.101.21-.048.231-.004.217-.05.094-.052.165-.022.094-.055h.118l.21-.048.21-.05.167-.031.166-.024.167-.026.116-.004.048-.022.072.022-.026-.048-.026-.162v-.118l-.006-.236-.048-.095.044-.138-.022-.167v-.118l.017-.188-.021-.165.042-.144.021-.188.022-.188.018-.188-.022-.166.017-.188.022-.188.024-.188.066-.215.09-.167.024-.188.021-.189.018-.188.094-.171.05-.138.09-.167.116-.121.065-.094.094-.166.046-.145.116-.121.094-.166.068-.094.094-.157.111-.122.116-.117.118-.12.07-.099.118-.123.09-.16.065-.099.167-.144.072-.094.116-.121.068-.094.073-.099.065-.093.123-.119.116-.121.162-.143.044-.144.141-.077.048-.022.05-.022-.033-.05-.111.004-.077-.022h-.116l-.166.026-.189-.022-.167.031-.282.029h-.116l-.143.07-.162.033h-.121l-.213.048-.137.072-.167.031-.138.072-.188.098-.216.051-.184.098-.188.098-.094.05-.094.048-.138.072-.099.048-.089.046-.072.099-.094.044-.116.123-.094.048-.14.077-.099.051-.09.046-.21.171-.166.143-.16.144-.162.143-.141.193-.166.144-.138.193-.116.121-.14.188-.065.099-.119.123-.09.16-.048.145-.09.171-.116.116-.033.096-.013-.083-.049-.099.022-.188v-.116l-.055-.212v-.116l-.026-.165.021-.188-.026-.167.022-.188-.026-.163.017-.188-.021-.167.017-.192.022-.184.024-.188.044-.144.022-.188.022-.188.089-.164.02-.188.048-.145.09-.167.094-.165.09-.17.094-.167.046-.14.112-.237.073-.214.137-.193.068-.212.138-.188.09-.287.093-.167.117-.236.114-.244.12-.164.015-.009.117-.118.166-.147.163-.145.115-.116.112-.127.14-.182.165-.149.118-.12.094-.167.116-.121.133-.188.119-.123.094-.164.116-.123.094-.166.162-.143.044-.145.068-.116.122.066.102.099.201.098.16.114.162.116.145.082.155.116.167.116.239.077.16.116.225.136.202.099.201.094.163.116.26.111.184.06.236.076.202.092.265.118.221.036.202.094.237.076.225.036.201.099.237.072.208.098.254.116.126.037.121.035.121.042.099.094.116.044.126.038.138.069.123.042.12.035.139.082.145.076.162.013.121.04.137.077.162.017.117.042.148.077.18.052.121.042.179.057.179.055.12.035.186.059.179.055.123.04.218.035.12.042.223.031.183.059.22.036.162.017.214.038.167.018.236.072h.201l.238.074.202-.004.218.033.223.035.265.018.236-.026.222.035.262.02.261.013.238-.022.259.013.261.018.3-.009.302-.004.3-.004.237-.029.346-.026.257.017.277-.043.339-.028.285-.044.276-.044.301-.004.279-.046.281-.046.261-.083.314-.068.282-.046.235-.026.303-.103.278-.046.258-.079.282-.05.257-.081.261-.089.218-.062.301-.103.217-.063.261-.085.258-.085.239-.121.219-.068.261-.081.202-.107.251-.085.206-.104.214-.063.239-.12.202-.103.195-.107.198-.099.196-.103.226-.068.151-.085.203-.103.202-.099.197-.108.138-.118.157-.083.162-.087.157-.079.16-.081.197-.107.117-.06.161-.085.098-.103.158-.082.141-.12.12-.064.116-.061.081-.042.139-.125.075-.042.086-.04.095-.099.08-.042.077-.043.137-.121.163-.081.06-.081.056-.085.082-.042.099-.096.117-.167.079-.141.059-.081v-.103l.035-.12-.038-.081-.103-.099-.1-.093-.121-.04-.15-.077-.218-.042-.225-.031-.158-.018h-.1l-.16-.013h-.098l-.202.004-.161-.018-.215-.037-.166-.018-.262-.013-.18-.055-.219-.04-.221-.035-.159-.02-.141-.076-.12-.036h-.104l-.123-.035-.154-.018-.123-.037-.159-.018-.123-.038-.16-.018-.141-.074-.157-.02-.124-.04-.162-.018-.139-.077-.12-.035-.18-.06-.162-.018-.184-.055-.158-.017-.142-.077-.18-.059-.18-.057-.12-.035-.222-.038-.143-.077-.179-.057-.144-.077-.181-.055-.184-.058-.177-.059-.181-.055-.18-.053-.145-.081-.219-.035-.162-.118-.18-.052-.184-.063-.201-.094-.18-.055-.201-.096-.141-.077-.184-.06-.201-.094-.16-.117-.212-.025-.139-.081-.206-.092-.18-.059-.203-.094-.202-.095-.137-.076-.205-.099-.2-.093-.138-.077-.185-.058-.201-.094-.162-.123-.184-.052-.137-.077-.181-.06-.202-.098-.141-.073-.142-.079-.179-.055-.145-.081-.202-.094-.179-.059-.139-.075-.127-.038-.197-.098-.125-.035-.196-.095-.162-.017-.141-.081-.142-.077-.181-.055-.18-.052-.12-.037-.163-.018-.175-.057-.183-.055-.185-.059-.115-.035-.224-.036-.157-.019-.181-.058-.162-.017-.184-.055-.156-.017-.22-.038-.162-.017-.161-.018-.201.004-.162-.018-.196.004-.221-.035-.202.004-.197.005-.161-.018-.202.004-.201.004-.196.004-.181.04-.235.026-.244.024-.201.004-.221.061-.236.024-.243.026-.202.009-.215.063-.243.022-.256.085-.219.062-.218.067-.223.064-.218.061-.219.064-.197.107-.204.098-.173.046-.243.125-.162.082-.192.107-.197.098-.139.123-.203.107-.156.082-.179.142-.18.145-.14.12-.197.104-.138.125-.141.118-.137.125-.141.125-.133.118-.02.018-.006-.043-.072-.141-.026-.164v-.119l-.094-.184-.004-.123-.048-.206-.006-.12-.07-.14-.028-.16-.026-.166-.022-.167-.031-.166-.024-.167-.026-.16-.026-.167-.048-.204-.026-.167-.072-.145-.03-.164-.022-.162-.028-.162-.026-.171-.026-.16-.05-.212-.026-.167-.05-.21v-.117l-.004-.238v-.116l-.053-.21-.021-.162-.029-.165-.026-.167-.026-.166-.029-.162-.043-.21-.004-.121-.05-.208-.005-.12-.004-.232v-.116l.024-.193v-.116l-.029-.167-.026-.16v-.119l-.026-.164.022-.188-.004-.118v-.115l-.021-.167.018-.304.017-.192.044-.256-.004-.237-.004-.238.094-.167.068-.21.022-.188.068-.214.067-.21.048-.144.114-.237.087-.166.118-.239.066-.214.09-.167.145-.192.138-.193.119-.239.089-.16.184-.221.16-.142.098-.167.184-.214.119-.123.16-.143.167-.145.188-.099.163-.142.188-.094.139-.077.188-.094.14-.077.214-.048.141-.076.236-.004.167-.024.184.02.142.044.196.017h.115l.167.09.142.046.146.043.094.068.164.094.099.068.119.116.094.068.048.094.122.111.049.099.05.09.117.116.053.21.123.239.049.206.098.188.004.235.025.164-.025.188.028.166-.045.145-.017.189-.095.166-.086.214-.09.166-.089.165-.09.166-.142.188-.117.12-.167.145-.139.076-.161.139-.217.054-.164.026-.162.029-.188-.02-.189-.138-.144-.046-.077-.142-.048-.09-.022-.283.086-.287.092-.283.113-.238v-.233l-.122-.118-.048-.094-.116-.117-.123.005h-.121l-.09.05-.188.099-.073.094-.116.121-.067.214-.116.118-.039.265-.095.164-.045.256-.022.193-.017.188.048.206.094.188.033.167.094.188.143.163.145.162.099.066.115.118.193.134.166.093.143.044.189.02.188.022.145.044h.116l.189.019h.114l.171-.032.09-.048.167-.029.188-.099.209-.048.095-.046.093-.052.095-.046.095-.047.119-.123.093-.049.116-.116.138-.076.094-.05.073-.095.089-.164.117-.123.123-.116.11-.12.05-.145.161-.142.046-.145.138-.193.047-.138.092-.166.063-.215.094-.166.067-.213.073-.214.021-.189.04-.26-.004-.236-.006-.234-.047-.094-.023-.167-.006-.116v-.114l-.049-.095v-.121l-.071-.14-.004-.112-.073-.142-.048-.097-.072-.138v-.116l-.071-.145-.049-.09-.076-.138-.048-.094-.119-.116-.048-.096-.095-.07-.077-.135-.094-.07-.072-.141-.094-.068-.078-.142-.141-.046-.119-.111-.099-.073-.116-.112-.095-.072-.141-.04-.124-.116-.093-.071-.144-.046-.118-.116-.142-.039-.145-.046-.259-.044-.238-.111-.188-.02-.144-.048-.187-.018h-.121l-.188-.018-.116.005-.167.022-.142-.046-.238.009-.162.028-.165.022-.167.026-.21.055-.14.072-.167.026-.189.099-.21.048-.188.094-.167.033-.188.099-.21.048-.145.072-.138.073-.162.148-.143.07-.188.094-.141.077-.116.12-.188.099-.117.123-.118.115-.112.122-.138.073-.119.12-.116.123-.116.12-.09.163-.116.125-.118.116-.12.121-.068.096-.116.121-.094.166-.04.143-.166.145-.044.142-.046.14-.067.214-.07.094-.09.17-.094.162-.045.143-.045.143-.046.142-.022.189-.046.14-.065.214-.09.167-.05.138.028.166-.024.188-.043.143-.024.19-.018.189-.044.142-.022.188-.019.188v.116l-.022.195.026.16-.021.188.054.212-.05.143-.021.188.026.166.004.232.029.166.026.167.026.162.05.21.022.166-.018.189.021.159.026.167.05.21-.021.188.052.217.026.164.024.162.053.21.024.163.048.214.031.163.05.21.048.212.024.165.03.166.05.21-.024.188.05.213.022.166.004.232.055.21.026.166.022.163.077.26.026.16.024.166-.019.188.05.217.004.231.026.163-.022.192.022.162.004.237.028.162-.024.192-.021.189.031.162-.044.263.022.162-.018.188-.022.188-.018.188-.072.214-.021.188-.02.188-.022.188-.089.167-.022.188-.094.171-.022.188-.064.21-.093.167-.095.166-.068.215-.09.166-.094.171-.094.162-.138.192-.09.165-.14.194-.139.189-.089.168-.116.118-.072.095-.116.121-.114.12-.099.05-.094.048-.116.121-.065.098-.142.07-.094.05-.14.077-.094.043-.21.05-.232.125h-.123l-.138.077h-.239l-.258.077-.162.026-.287.031h-.238l-.228.004-.217.055-.193-.016-.164.026h-.234l-.139-.046-.216-.066-.21-.063-.149-.044-.138-.046-.219-.068-.162-.089-.167-.092-.12-.114zm16.966.411l-.163-.018-.162-.017-.218-.038-.162-.018-.161-.017-.179-.055-.22-.035-.121-.035-.162-.02-.18-.057-.156-.02-.165-.018-.134-.076-.166-.018-.142-.077-.119-.035-.158-.018-.125-.035-.162-.02-.137-.077-.124-.039-.12-.035-.162-.018-.121-.038-.121-.039-.14-.077-.236-.077-.243-.076-.265-.111-.202-.099-.201-.094-.197-.099-.243-.072-.206-.099-.201-.094-.133-.077-.208-.099-.138-.077-.202-.099-.12-.061.023-.007.079-.04.118-.063.142-.022.099-.004.123-.059.099-.004.076-.04.142-.022.117-.063.081-.042.141-.022.138-.022.081-.04.138-.024.081-.044.141-.024.08-.039.138-.022.141-.022.116-.064h.103l.103-.004.116-.059h.099l.114-.057.198.094.112.077.193.107.107.081.251.077.133.134.107.081.198.108.192.103.139.135.193.103.139.133.194.107.192.105.138.138.145.129.215.158.11.081.142.144.169.185.188.109.085.159.114.082.133.136.061.103.141.137.002.003-.045-.016zm-6.286-4.116l.16-.086.081-.042.06-.079.12-.059.077-.04.081-.046.057-.081.123-.062.081-.041.12-.062.077-.042.057-.081.123-.061.116-.063.081-.042.121-.062.116-.063.081-.04.12-.063.119-.059.121-.061.077-.046.121-.061.115-.059.123-.063.12-.062.122-.063.077-.042.157-.083.085-.042.116-.063.116-.058.145-.021.121-.064.116-.064.121-.061.14-.024.081-.039.133-.022.123-.064.139-.021.12-.063.141-.022.143-.018.135-.028.121-.061.139-.024.139-.022.18-.04.102-.004h.198l.103-.004.181-.045h.098l.179-.044.122.035.139-.018.139-.022.162.014.14-.022.16.018.14-.022.144-.024.156.02.162.017.158.018.159.013.145-.021.197-.004h.103l.157.017.16.018.113.033.16.02.162.018.14-.021.138.074.142-.022.159.018.122.037.159.018.163.017.116.042.162.013.114.035.163.018.12.042.162.018.121.035.122.037.12.035.163.018.155.02.225.035.22.133.261.02.243.074.078.059.122.036.125.037.181.058.115.041.158.014.143.081.161.014.141.076.142.081.22.035.161.013.145.081.18.055.202.099.219.03.18.059.18.057.184.059.242.077.181.052.222.038.181.057.201.094.243.077.18.055.214.035.207.099.243.072.18.057.218.038.206.099.215.035.204.094.163.02.24.07.178.063.18.054.219.035.201.099.162.014.206.094.158.021.179.055.144.077.162.017.2.095.157.021.121.033.18.058.125.035.123.042.277.055.238.079.165.013.179.06.121.037.122.035h.1l.119.039.121.038.08.057.121.037.081.058-.021.059-.076.132-.085.041-.116.064-.121.061-.099.103-.139.02-.081.043-.181.044-.115.059-.186.046-.114.062-.22.063-.181.046-.08.039-.14.022-.075.04-.145.024-.076.039-.162.085h-.098l-.122.063-.137.022-.119.059-.137.022-.119.07-.14.022h-.1l-.12.063-.162.083-.141.02-.137.021-.142.026-.158.077-.178.044-.142.028-.139.022-.12.059-.195.004-.162.085-.141.021-.139.022-.162.081-.179.043-.138.024-.123.057-.198.004-.159.085-.135.022-.181.042-.184.05-.174.039-.144.022-.14.022-.18.046-.181.039-.138.024-.179.044-.18.04-.138.029-.184.039-.118.06-.202.008-.18.04-.138.022-.18.045-.2.005-.181.042-.157-.02-.185.046-.195.004-.198.005-.185.039-.157-.013-.241.021-.157-.013h-.206l-.176.042-.219-.033-.184.042-.197.005-.162-.018-.237.026-.224-.037h-.197l-.202.006-.197.004-.226-.037-.196.004-.201.004-.227-.035-.154-.018-.202.004-.199.005-.223-.04-.158-.015-.218-.035-.202.005-.219-.035-.162-.02-.222-.04-.2.009-.181-.06-.05-.009-.013-.026-.084-.155-.087-.167-.11-.215-.113-.217-.111-.218-.032-.189-.192-.243-.118-.214-.111-.214-.081-.162-.143-.274-.085-.162-.163-.189-.084-.164-.111-.213-.134-.127-.145-.135-.086-.16-.061-.063.072-.002.184-.04.2-.004.214-.064.2-.004.202-.004.198-.004.243-.022.161.013.236-.021.185-.046.237-.022.16.018.198-.005.261.014.225.037h.197l.177.024.01.011.084.155.104.197.04.081.042.076.06.121.064.118.039.079.046.077.059.123.04.079.005.099.081.158.04.081.062.116.039.081.024.14.04.081.063.116.039.18.08.156.046.18.04.179.022.14.021.138.024.14.043.077.023.142.041.077v.103l.081.055.073-.042.043-.116.079-.145.101-.202.012-.158.04-.12.021-.162.034-.121.039-.12-.021-.14-.005-.202.041-.121-.047-.175-.021-.14-.081-.16v-.197l-.067-.221-.018-.138-.063-.221.017-.155-.082-.158-.004-.031.096.046.261.017.185.059.218.031.237.081.22.03.225.036.238.076h.2l.242.073.227.035.214.037.225.035.16.02.221.035.22.035.161.018.16.02.158.018.202-.004.122.035.154.017.162.02.104-.004.158.018.2-.004.077-.042.081-.039-.058-.024-.121-.035-.081-.057-.081-.059-.12-.037-.082-.057-.179-.06-.121-.035-.145-.076-.179-.057-.181-.06-.2-.093-.186-.06-.179-.052-.283-.06-.201-.094-.219-.035-.203-.099-.276-.054-.248-.077-.237-.076-.241-.073-.243-.074-.237-.072-.242-.081-.248-.072-.273-.057-.202-.094-.26-.014-.223-.037-.261-.116-.22-.035-.218-.038-.185-.059-.221-.031-.18-.057h-.202l-.161-.014-.219-.038-.158-.017-.184-.054-.143.022h-.197l-.122-.036-.159-.018-.142.022-.196.004-.144.022-.195.005-.122-.04-.198.004-.185.046-.157-.02-.177.046h-.203l-.202.004-.178.046-.198.005-.141.018-.142.026h-.098l-.099.004h-.104l-.139.022-.104.004-.133.018-.144.024-.094.004-.166-.018h-.099l-.179.044-.098.004h-.102l-.137.022-.143.02-.101.004-.138.022-.12.062-.123-.04-.074.043-.145.024-.12.064h-.095l-.098.004-.145.021-.085.04h-.087l-.138.021-.123.064-.074.042-.204.004-.178.043-.179.044-.158.081h-.118l.048-.043.136-.124z"/><path fill="#66554C" d="M123.786 77.523l20.606-6.279-21.441-5.486a51.188 51.188 0 0 0-13.923-26.475l11.091-16.058-14.423 12.986a51.226 51.226 0 0 0-22.053-10.972l-5.81-19.056-4.56 17.851c-.367-.004-.722-.05-1.09-.05-11.497.077-22.061 3.996-30.584 10.457L28.107 19.593l9.863 17.866c-8.215 7.493-13.985 17.577-15.994 28.962L.571 72.21l20.733 6.011a51.026 51.026 0 0 0 10.214 27.937L19.52 122.799l15.015-12.988c9.489 10.448 23.155 17.007 38.334 16.907.421 0 .826-.057 1.242-.076l5.255 17.264 4.748-18.541c8.112-1.879 15.476-5.688 21.605-10.903.637-.543 1.242-1.122 1.853-1.691 1.453-1.366 2.857-2.783 4.146-4.308l16.603 10.956-13.756-14.653c5.468-7.787 8.793-17.14 9.221-27.243zm-36.445 41.692c.025-.026.056-.053.082-.083a43.553 43.553 0 0 1 3.823-3.779c.204-.175.404-.351.609-.525a44.14 44.14 0 0 1 4.223-3.171c.156-.096.315-.188.471-.288a42.959 42.959 0 0 1 4.555-2.535c.091-.045.179-.098.273-.142a41.242 41.242 0 0 1 4.837-1.877c.155-.045.3-.122.453-.175-.015.017-.036.033-.051.053a46.464 46.464 0 0 1-19.254 12.514c-.007-.001-.015.008-.021.008zm21.33-19.772a41.935 41.935 0 0 0-4.63 1.617c-.523.215-1.011.48-1.521.718-.942.429-1.887.857-2.781 1.348-.589.32-1.142.684-1.71 1.034-.769.465-1.541.921-2.272 1.428-.576.395-1.117.827-1.672 1.243-.667.514-1.339 1.017-1.975 1.556-.535.45-1.042.932-1.552 1.404-.593.552-1.185 1.101-1.742 1.673-.485.494-.944 1.007-1.402 1.516a50.906 50.906 0 0 0-1.534 1.782 47.968 47.968 0 0 0-1.221 1.581 42.12 42.12 0 0 0-1.341 1.892 39.46 39.46 0 0 0-1.02 1.586c-.188.298-.405.596-.583.9-.386.079-.775.168-1.169.231l-8.031.443.09.302a46.62 46.62 0 0 1-4.026-.179c-.011-.004-.02-.004-.031-.004.111-.216.241-.417.356-.632a55.885 55.885 0 0 1 1.875-3.21 57.385 57.385 0 0 1 2.086-3.074c.39-.533.791-1.068 1.2-1.592.354-.453.718-.894 1.088-1.341.417-.5.843-.999 1.276-1.484a73.377 73.377 0 0 1 2.539-2.668c.428-.42.863-.821 1.3-1.234.463-.42.926-.85 1.397-1.261.464-.403.94-.788 1.417-1.178.476-.385.948-.771 1.435-1.143.502-.381 1.014-.744 1.527-1.112.482-.342.964-.692 1.455-1.021a53.157 53.157 0 0 1 1.65-1.046c.483-.298.966-.605 1.457-.893.585-.338 1.184-.652 1.779-.974.479-.252.954-.516 1.438-.758.633-.314 1.275-.6 1.915-.887.47-.211.932-.434 1.404-.632.681-.289 1.375-.543 2.066-.798.444-.165.886-.344 1.334-.499.748-.253 1.51-.477 2.268-.698.402-.12.8-.255 1.204-.361.85-.228 1.71-.414 2.57-.599.321-.066.638-.152.96-.219a50.839 50.839 0 0 1 3.069-.486c.171-.018.342-.056.515-.079a50.873 50.873 0 0 1 3.637-.298c.228-.017.45-.026.677-.034.205-.01.41-.022.62-.035a46.228 46.228 0 0 1-3.313 7.075 43.28 43.28 0 0 0-4.078 1.1zm-41.143 17.223c-.467.894-.872 1.787-1.279 2.681-.271.596-.609 1.198-.854 1.794a45.78 45.78 0 0 1-11.144-3.21c-.006-.004-.016-.004-.022-.007.236-.496.478-.985.725-1.476.011-.019.02-.044.031-.062.002 0 .002-.004.002-.004-1.27-.685-2.649-1.274-4.072-1.81-.362-.136-.729-.248-1.1-.375a36.21 36.21 0 0 0-3.576-.998c-.236-.053-.453-.146-.691-.192a46.852 46.852 0 0 1-7.389-6.596c-.004-.005-.014-.009-.018-.017.109.008.21.044.32.051 1.606.155 3.183.396 4.714.74.037.011.074.014.109.023 1.513.351 2.972.809 4.396 1.33l.703.262a36.174 36.174 0 0 1 3.913 1.797c.226.118.445.245.668.371a36.764 36.764 0 0 1 3.676 2.316h.002c.438-.771.935-1.502 1.403-2.25 1.349-2.154 2.776-4.26 4.351-6.261-.157-.084-.333-.159-.495-.242a49.965 49.965 0 0 0-2.754-1.354c-.49-.214-1.007-.403-1.511-.603-.65-.264-1.289-.54-1.961-.781-.602-.215-1.226-.393-1.843-.591-.6-.187-1.193-.389-1.807-.563-.681-.185-1.379-.338-2.073-.5-.573-.132-1.141-.275-1.723-.394a54.73 54.73 0 0 0-2.24-.367c-.558-.08-1.112-.176-1.675-.245a55.212 55.212 0 0 0-2.358-.202c-.547-.036-1.095-.079-1.646-.105-.804-.026-1.611-.018-2.419-.01-.552.01-1.102.01-1.656.036-.806.04-1.611.112-2.416.192-.355.036-.708.043-1.062.089a47.115 47.115 0 0 1-3.07-6.102c.287-.021.574-.056.861-.066a52.548 52.548 0 0 1 4.722-.201c10.923.062 21.116 3.644 29.319 9.363a71.663 71.663 0 0 1 7.622-7.558s0-.006.002-.006h-.002a59.51 59.51 0 0 0-4.797-2.605c-.552-.271-1.15-.498-1.717-.753-1.145-.517-2.284-1.037-3.481-1.496-.751-.291-1.542-.526-2.31-.789-1.07-.363-2.132-.736-3.236-1.052-.867-.248-1.763-.445-2.647-.655-1.053-.26-2.097-.525-3.173-.731-.95-.185-1.917-.311-2.883-.456a69.37 69.37 0 0 0-3.151-.425c-1.007-.098-2.026-.148-3.042-.201a62.748 62.748 0 0 0-3.133-.114c-1.047-.008-2.095.039-3.146.088a57.114 57.114 0 0 0-3.111.206 56.035 56.035 0 0 0-3.184.416c-.576.087-1.154.113-1.729.22-.501-2.086-.814-4.24-1.029-6.421-.133-1.366-.26-2.732-.271-4.133-.172-25.487 20.365-46.361 45.824-46.652l-.098.368 4.045-.215c23.832 1.743 42.782 21.577 42.942 45.884.004.801-.062 1.588-.097 2.375-.096 2.111-.281 4.194-.648 6.218-.029.005-.062.014-.093.018-2.318.166-4.64.464-6.951.903-.048.007-.093.021-.141.033a55.173 55.173 0 0 0-6.894 1.787c-.006 0-.013 0-.02.004a57.354 57.354 0 0 0-7.075 2.563c-.782.345-1.496.778-2.256 1.155-1.44.705-2.892 1.399-4.247 2.21-.861.518-1.645 1.108-2.472 1.661-1.16.778-2.342 1.532-3.431 2.383-.833.639-1.586 1.338-2.377 2.019-.982.844-1.981 1.668-2.898 2.561-.762.739-1.449 1.523-2.162 2.291-.838.896-1.684 1.78-2.453 2.71-.674.814-1.277 1.645-1.899 2.479-.698.933-1.399 1.856-2.032 2.806-.573.864-1.081 1.738-1.6 2.614-.559.943-1.117 1.874-1.61 2.829z"/><path fill="#8A1840" d="M31.862 72.899c.395.171.686.661.642 1.086l-.107 1.148c-.041.426.206.564.548.306l.924-.692c.344-.261.909-.265 1.258-.022l.938.673c.35.251.595.098.542-.322l-.14-1.149c-.053-.424.225-.913.615-1.092l1.048-.482c.39-.182.39-.459-.009-.631l-1.062-.449c-.396-.17-.687-.655-.646-1.081l.107-1.152c.039-.427-.206-.565-.548-.304l-.924.694c-.341.256-.906.265-1.254.02l-.942-.669c-.35-.25-.593-.107-.542.319l.142 1.147c.05.425-.223.92-.613 1.099l-1.049.479c-.392.18-.388.462.009.628l1.063.446zM36.543 56.067c.396.165.683.648.646 1.08l-.112 1.147c-.039.427.206.566.548.306l.924-.692c.346-.26.906-.269 1.259-.017l.944.667c.344.248.591.103.537-.322l-.139-1.15c-.054-.424.224-.913.613-1.092l1.051-.479c.39-.184.386-.462-.008-.633l-1.064-.448c-.394-.167-.685-.655-.646-1.082l.106-1.152c.042-.424-.205-.564-.545-.304l-.923.694c-.341.26-.907.265-1.257.013l-.941-.663c-.35-.25-.591-.107-.539.319l.14 1.148c.053.422-.226.919-.615 1.099l-1.049.48c-.39.175-.385.461.009.627l1.061.454zM53.452 38.884c.394.167.685.655.642 1.082l-.107 1.147c-.042.427.206.569.547.309l.924-.694c.344-.26.904-.265 1.259-.018l.937.668c.35.252.596.103.542-.317l-.14-1.153c-.053-.425.226-.916.615-1.095l1.049-.479c.389-.18.385-.461-.009-.63l-1.062-.449c-.396-.166-.688-.654-.646-1.082l.107-1.147c.04-.427-.206-.565-.548-.309l-.922.693c-.34.26-.904.269-1.254.018l-.941-.668c-.351-.251-.594-.103-.543.324l.143 1.143c.05.425-.223.919-.614 1.099l-1.048.479c-.396.178-.385.462.008.63l1.061.449zM84.539 38.613c.397.164.688.654.646 1.08l-.11 1.146c-.04.432.205.568.547.312l.929-.696c.341-.26.906-.265 1.253-.018l.943.668c.345.252.587.103.542-.318l-.143-1.147c-.055-.427.224-.92.614-1.099l1.047-.479c.393-.18.389-.461-.008-.633l-1.062-.449c-.394-.17-.685-.654-.646-1.082l.106-1.147c.042-.425-.2-.564-.546-.309l-.924.694c-.339.261-.905.265-1.256.02l-.94-.67c-.35-.245-.592-.107-.543.324l.144 1.148c.053.422-.226.915-.614 1.094l-1.05.479c-.39.18-.385.463.01.633l1.061.449zM103.062 54.721c.395.167.688.655.642 1.082l-.107 1.147c-.04.427.206.565.548.305l.924-.69c.343-.26.904-.27 1.259-.021l.941.672c.351.248.59.103.544-.324l-.143-1.146c-.055-.425.218-.916.612-1.096l1.049-.479c.392-.182.385-.462-.008-.631l-1.063-.449c-.393-.17-.687-.655-.645-1.082l.107-1.151c.039-.427-.207-.56-.548-.304l-.924.694c-.34.256-.909.265-1.255.013l-.941-.663c-.351-.252-.595-.107-.543.32l.145 1.147c.048.42-.226.919-.616 1.099l-1.048.479c-.391.175-.391.461.009.626l1.061.452zM108.721 68.623l.138 1.15c.05.42-.224.919-.616 1.097l-1.048.475c-.39.18-.385.464.009.633l1.064.449c.393.167.686.655.641 1.082l-.104 1.152c-.044.424.204.564.543.304l.924-.694c.346-.256.91-.265 1.261-.017l.937.667c.35.251.596.103.549-.32l-.146-1.146c-.054-.427.219-.92.615-1.1l1.05-.479c.394-.18.385-.458-.01-.632l-1.062-.446c-.396-.167-.687-.655-.646-1.082l.108-1.147c.04-.427-.207-.564-.548-.311l-.923.696c-.342.261-.906.27-1.257.018l-.942-.667c-.35-.251-.592-.106-.537.318z"/></svg>