<svg xmlns="http://www.w3.org/2000/svg" viewBox="0 0 2000 2000"><path fill="#945465" d="M1581 499.4l-154.2-27.6c-55.1 88.7-179.2 176.5-362.9 233.5l20 215.2s19.1 146.2-100.4 155.8c-4.8-.1-10.7-2-15.3-3.8l27.4 589.9c7.4 90.5 76.4 112.2 77.7 112.6 119.6 16.3 209.2 27.2 209.2 23.5 182.4 16.6 265.4-132.7 265.4-132.7s248.8-801.6 248.8-834.8c88.4-298.5-215.7-331.6-215.7-331.6z"/><path fill="#945465" d="M995 816.7c8.7 19.2 40.7 20.1 41.6-11.6l4.3-92.9c-17 4.9-34.5 9.5-52.4 13.8 2 26.7 4.1 56.7 6.5 90.7zM899.8 799.9c-.8 31.7 31.2 32.5 40.9 13.8 3.6-29.2 6.9-55.3 9.9-79-16.5 3.5-33.2 6.9-50.4 9.9l-.4 55.3z"/><path fill="#945465" d="M858.9 1652.9l80.6-579.5c-.3 0-.7.1-1 0-118.8-15.8-92-160.8-92-160.8l23.5-163c-93.7 14.6-197.5 22-310.8 19.8-2.8-.1-5.5-.2-8-.3-1.2 0-2.4-.1-3.5-.2-2.5-.1-4.8-.2-7-.3-.7 0-1.4-.1-2-.1-2.4-.1-4.7-.3-6.8-.5-.9-.1-1.7-.2-2.6-.2-1.5-.1-3-.3-4.4-.5-.7-.1-1.5-.2-2.2-.3-1.8-.3-3.5-.6-5.2-.9-.8-.2-1.6-.4-2.3-.6-1.1-.3-2.1-.6-3.2-.9-.7-.2-1.4-.4-2.1-.7-1.5-.5-2.9-1.1-4.3-1.8-.7-.3-1.4-.7-2.1-1.1-.9-.5-1.7-1-2.6-1.5-.7-.4-1.4-.9-2.1-1.3-.5-.4-1-.8-1.5-1.1-31.7-17.2-49.6-54.7-55-65.5-3.5 3.5 3.5-60.2 3.5-60.2l-49.5-70.7 1.4-3.1-1.1-1.6 11.7-22.3 27-61.5-14.3-27.9 8-25.2 57.7-22.2 12.6-6.9s147.2 12.4 325.6-26l-355-63.6s-121.6-22.1-188 33.2c-143.8 99.4-71.9 304-71.9 304l165.9 961.9c16.6 55.3 93.5 88.4 93.5 88.4s361 54 602 86.8c-94.8-12.9-208-29-310.6-43.9 81 3.3 98.1-77.9 98.1-77.9z"/><path fill="#B86645" d="M1426.2 271.2c1 1.3 2 2.7 2.9 4-.9-1.4-1.9-2.7-2.9-4zM1418 261.3c.8.8 1.4 1.7 2.2 2.5-.8-.8-1.5-1.7-2.2-2.5zM1405.3 249c1.3 1.2 2.6 2.3 3.9 3.5-1.2-1.2-2.6-2.3-3.9-3.5zM1433.7 281.7c.9 1.4 1.8 2.9 2.7 4.3-.8-1.4-1.8-2.8-2.7-4.3zM1341.5 212.8l6.3 2.1-6.3-2.1zM1372.1 225.8c1.7.9 3.2 1.9 4.8 2.8-1.6-.9-3.1-1.9-4.8-2.8zM1355.2 217.9c1.8.7 3.6 1.4 5.4 2.2-1.7-.7-3.6-1.4-5.4-2.2zM1394.7 240.3c1.6 1.2 3.1 2.4 4.6 3.6-1.4-1.2-3-2.4-4.6-3.6zM1440.5 293.1c.7 1.4 1.5 2.7 2.2 4.2-.7-1.4-1.5-2.8-2.2-4.2zM1383.7 232.7c1.7 1.1 3.3 2.2 5 3.3-1.6-1.1-3.3-2.2-5-3.3zM1447 306.6c.3.8.7 1.5 1 2.3-.3-.8-.7-1.6-1-2.3zM1454.8 406c-.4 1.6-.8 3.3-1.2 4.9.5-1.6.9-3.3 1.2-4.9zM1457.5 391.8c-.2 1.5-.5 3.1-.8 4.6.3-1.5.6-3 .8-4.6zM1450.8 420.8c-.5 1.5-.9 2.9-1.4 4.4.5-1.5.9-2.9 1.4-4.4zM1459 378l-.3 2.7.3-2.7zM1455.5 333.4c.3 1.5.6 3 .9 4.6-.3-1.5-.5-3.1-.9-4.6zM1452.2 320.8c.4 1.2.7 2.5 1.1 3.8-.4-1.3-.7-2.5-1.1-3.8zM1457.8 346.6zM1459.1 361c0 1.2.2 2.3.2 3.5-.1-1.2-.2-2.3-.2-3.5zM1293.7 203.3c3.4.3 6.7.6 10 1-3.3-.4-6.6-.7-10-1zM1276.8 202.5c2.5 0 4.9 0 7.4.1-2.4-.1-4.9-.1-7.4-.1zM1260.6 202.9c2.6-.2 5.2-.3 7.8-.3-2.6 0-5.2.2-7.8.3zM1327.6 208.8c2.3.6 4.5 1.2 6.7 1.8-2.2-.6-4.5-1.2-6.7-1.8zM1313.3 205.7c2.3.4 4.5.9 6.8 1.4-2.3-.5-4.6-1-6.8-1.4zM1227.4 207c2.4-.4 4.7-.7 7-1.1-2.3.3-4.6.6-7 1.1zM1244.2 204.4c2.6-.3 5.2-.6 7.8-.8-2.6.2-5.2.5-7.8.8zM517.3 766c-.8-.2-1.6-.4-2.3-.6.7.3 1.5.5 2.3.6zM396.4 555.9l1.1 1.6 10.6-23.9zM505.4 762.1c-.7-.3-1.4-.7-2.1-1.1.7.4 1.4.8 2.1 1.1zM524.7 767.2c-.7-.1-1.5-.2-2.2-.3.7.2 1.5.3 2.2.3zM511.8 764.6c-.7-.2-1.4-.4-2.1-.7.7.2 1.4.5 2.1.7zM500.7 759.5c-.7-.4-1.4-.9-2.1-1.3.7.5 1.5.9 2.1 1.3z"/><path fill="#B86645" d="M499.2 389.9l-12.6 6.9 12.9-6L571 458v67.2l27.6 38.9-2.1 38.9-13.5 21.3.7 1.1 3-3.3c4 0 514.9 9.3 719.2-241.5 72.5-95.4 16.3-185.3-78.5-173.6-36.8 7-76.1 22.2-116.5 47.6-93 56-193.7 89.5-286 109.4-178.4 38.3-325.7 25.9-325.7 25.9zM531.7 768c-.9-.1-1.7-.2-2.6-.2.9 0 1.7.1 2.6.2zM540.6 768.6c-.7 0-1.4-.1-2-.1.6 0 1.3 0 2 .1zM551.1 769.1c-1.2-.1-2.3-.1-3.5-.2 1.1.1 2.3.1 3.5.2z"/><path opacity=".23" fill="#662E1A" d="M1449.4 425.2c-1.6 4.7-3.4 9.5-5.5 14.2 2.1-4.7 3.9-9.5 5.5-14.2zM1442.7 297.3c1.5 3.1 2.9 6.2 4.3 9.3-1.4-3.2-2.8-6.3-4.3-9.3zM1448 308.9zM1234.5 205.8c3.3-.5 6.5-1.1 9.7-1.5-3.2.5-6.5 1-9.7 1.5zM1284.2 202.6c3.2.1 6.3.4 9.5.7-3.1-.3-6.3-.5-9.5-.7zM1453.6 410.9c-.8 3.3-1.8 6.6-2.9 9.9 1.1-3.3 2.1-6.6 2.9-9.9zM1436.4 286.1c1.4 2.3 2.7 4.7 4 7-1.2-2.4-2.6-4.7-4-7zM1429.2 275.2c1.6 2.1 3.1 4.3 4.5 6.5-1.4-2.2-3-4.4-4.5-6.5zM1227.4 207zM1268.4 202.6zM1458.4 351.2c.3 3.3.5 6.6.7 9.9-.2-3.4-.4-6.7-.7-9.9zM1456.4 338c.5 2.8 1 5.7 1.4 8.6-.4-2.9-.8-5.8-1.4-8.6zM1252 203.6c2.9-.3 5.8-.5 8.6-.7-2.8.2-5.7.4-8.6.7zM1459.3 364.5zM1458.7 380.7c-.3 3.7-.7 7.4-1.2 11.1.6-3.7.9-7.4 1.2-11.1zM1453.3 324.6c.8 2.9 1.6 5.8 2.3 8.8-.7-3-1.5-5.9-2.3-8.8zM1320 207.1c2.5.5 5.1 1.1 7.6 1.7-2.5-.6-5-1.2-7.6-1.7zM1456.7 396.5c-.5 3.2-1.2 6.3-1.9 9.5.8-3.2 1.4-6.4 1.9-9.5zM1334.3 210.6c2.4.7 4.8 1.4 7.2 2.2-2.4-.8-4.8-1.5-7.2-2.2zM1303.7 204.3c3.2.4 6.4.8 9.6 1.4-3.2-.5-6.4-.9-9.6-1.4zM1377 228.6c2.3 1.3 4.6 2.7 6.8 4.1-2.3-1.4-4.6-2.8-6.8-4.1zM1360.6 220.1c3.9 1.8 7.8 3.7 11.5 5.7-3.7-2-7.6-3.9-11.5-5.7zM1420.1 263.8c2.1 2.4 4.2 4.8 6.1 7.3-1.9-2.4-4-4.9-6.1-7.3zM1347.8 215zM1399.4 243.9c2 1.6 4 3.3 5.9 5.1-1.9-1.7-3.9-3.4-5.9-5.1zM1409.2 252.5c3 2.9 6 5.8 8.7 8.8-2.7-3-5.7-6-8.7-8.8zM1388.7 236c2 1.4 4.1 2.8 6 4.3-1.9-1.4-3.9-2.9-6-4.3z"/><path fill="#945465" d="M547.6 768.9z"/><path opacity=".23" fill="#662E1A" d="M547.6 768.9z"/><path fill="#945465" d="M515 765.5c-1.1-.3-2.1-.6-3.2-.9 1 .3 2.1.6 3.2.9z"/><path opacity=".23" fill="#662E1A" d="M515 765.5c-1.1-.3-2.1-.6-3.2-.9 1 .3 2.1.6 3.2.9z"/><path fill="#945465" d="M509.7 763.9z"/><path opacity=".23" fill="#662E1A" d="M509.7 763.9z"/><path fill="#945465" d="M538.5 768.5c-2.4-.1-4.6-.3-6.8-.5 2.2.2 4.4.3 6.8.5z"/><path opacity=".23" fill="#662E1A" d="M538.5 768.5c-2.4-.1-4.6-.3-6.8-.5 2.2.2 4.4.3 6.8.5z"/><path fill="#945465" d="M529.1 767.7c-1.5-.1-3-.3-4.4-.5 1.4.2 2.9.4 4.4.5z"/><path opacity=".23" fill="#662E1A" d="M529.1 767.7c-1.5-.1-3-.3-4.4-.5 1.4.2 2.9.4 4.4.5z"/><path fill="#945465" d="M559.1 769.4c-2.9-.1-5.4-.2-8-.3 2.5.1 5.2.2 8 .3z"/><path opacity=".23" fill="#662E1A" d="M559.1 769.4c-2.9-.1-5.4-.2-8-.3 2.5.1 5.2.2 8 .3z"/><path fill="#945465" d="M503.3 761c-.9-.5-1.7-1-2.6-1.5.9.6 1.7 1.1 2.6 1.5z"/><path opacity=".23" fill="#662E1A" d="M503.3 761c-.9-.5-1.7-1-2.6-1.5.9.6 1.7 1.1 2.6 1.5z"/><path fill="#945465" d="M522.5 767c-1.8-.3-3.5-.6-5.2-.9 1.7.3 3.4.6 5.2.9z"/><path opacity=".23" fill="#662E1A" d="M522.5 767c-1.8-.3-3.5-.6-5.2-.9 1.7.3 3.4.6 5.2.9z"/><path fill="#945465" d="M497.1 757.1c.5.4 1 .8 1.5 1.1-.4-.3-.9-.7-1.5-1.1.1 0 .1 0 0 0z"/><path opacity=".23" fill="#662E1A" d="M497.1 757.1c.5.4 1 .8 1.5 1.1-.4-.3-.9-.7-1.5-1.1.1 0 .1 0 0 0z"/><path fill="#B86645" d="M1305.9 378.1c-204.3 250.8-715.2 242.7-719.1 242.7l-2.8 3.9 14.7 48.7-16.8 18v38.9s2.6 35.4-50.4 35.4c-12.5 0-24.1-3.4-33.9-8.7.5.4.7.8 1.2 1.1.7.5 1.3.9 2 1.3.8.5 1.6 1 2.5 1.5.7.4 1.4.8 2.1 1.1 1.4.7 2.8 1.3 4.2 1.8.7.2 1.4.5 2.1.7 1 .3 2.1.6 3.2.9.8.2 1.5.4 2.3.6 1.7.4 3.4.7 5.2.9.7.1 1.5.2 2.2.3 1.4.2 2.9.4 4.4.5.8.1 1.7.2 2.6.2 2.2.2 4.4.3 6.8.5.6 0 1.4.1 2 .1 2.3.1 4.6.2 7 .3 1.1.1 2.3.1 3.5.2 2.6.1 5.2.2 8 .3 113.4 2.2 217.1-5.8 310.8-20.4l13.6-95h17.2l-.6 90c17.2-3 34-6.7 50.4-10.2C954.5 703 958 677 961 654h22c1.6 23 3.4 44.3 5.5 71.5 17.9-4.4 35.5-9.2 52.4-14.1l2.7-57.3h15.7l4.7 50.7c183.7-57.1 307.8-144.5 362.9-233.2 6.7-10.8 12.4-21.4 17.1-32.2 2-4.7 3.8-9.4 5.5-14.1.5-1.5.9-2.9 1.4-4.4 1-3.3 2-6.6 2.9-9.8.4-1.7.8-3.3 1.2-4.9.7-3.2 1.4-6.4 1.9-9.5.3-1.5.6-3.1.8-4.6.5-3.7.9-7.4 1.2-11.1l.3-2.7c.3-4.6.4-9.1.3-13.6 0-1.2-.1-2.3-.2-3.5-.1-3.3-.3-6.6-.7-9.9-.2-1.5-.4-3-.6-4.6-.4-2.9-.8-5.8-1.4-8.6-.3-1.5-.6-3.1-.9-4.6-.7-3-1.4-5.9-2.3-8.8-.4-1.3-.7-2.5-1.1-3.8-1.3-4.1-2.7-8.1-4.2-12-.3-.8-.7-1.5-1-2.3-1.3-3.1-2.7-6.3-4.3-9.3-.7-1.4-1.5-2.8-2.2-4.2-1.3-2.4-2.6-4.7-4-7-.9-1.5-1.8-2.9-2.7-4.3-1.5-2.2-3-4.4-4.5-6.5-1-1.3-1.9-2.7-2.9-4-1.9-2.5-4-4.9-6.1-7.3-.7-.8-1.4-1.7-2.2-2.5-2.8-3-5.7-6-8.7-8.8-1.3-1.2-2.6-2.3-3.9-3.5-1.9-1.7-3.9-3.4-5.9-5.1-1.5-1.2-3.1-2.4-4.6-3.6-2-1.5-4-2.9-6-4.3-1.6-1.1-3.3-2.3-5-3.3-2.2-1.4-4.5-2.7-6.8-4.1-1.6-.9-3.2-1.9-4.8-2.8-3.7-2-7.6-3.9-11.5-5.7-1.8-.8-3.6-1.5-5.4-2.2-2.5-1-4.9-2-7.5-3-2.1-.8-4.2-1.4-6.3-2.1-2.4-.8-4.8-1.5-7.2-2.2-2.2-.6-4.4-1.2-6.7-1.8-2.5-.6-5-1.2-7.6-1.7-2.2-.5-4.5-1-6.8-1.4-3.2-.6-6.4-1-9.6-1.4-3.3-.4-6.6-.8-10-1-3.1-.3-6.3-.5-9.5-.7-2.4-.1-4.9-.1-7.4-.1h-8.4l-7.8.3c-2.9.2-5.7.4-8.6.7-2.6.2-5.2.5-7.8.8-3.2.4-6.5-1.6-9.7-1-2.3.4-4.7-1.4-7-1.4 94.5-11.1 150.7 80.6 78.2 176z"/><path opacity=".23" fill="#662E1A" d="M1305.9 378.1c-204.3 250.8-715.2 242.7-719.1 242.7l-2.8 3.9 14.7 48.7-16.8 18v38.9s2.6 35.4-50.4 35.4c-12.5 0-24.1-3.4-33.9-8.7.5.4.7.8 1.2 1.1.7.5 1.3.9 2 1.3.8.5 1.6 1 2.5 1.5.7.4 1.4.8 2.1 1.1 1.4.7 2.8 1.3 4.2 1.8.7.2 1.4.5 2.1.7 1 .3 2.1.6 3.2.9.8.2 1.5.4 2.3.6 1.7.4 3.4.7 5.2.9.7.1 1.5.2 2.2.3 1.4.2 2.9.4 4.4.5.8.1 1.7.2 2.6.2 2.2.2 4.4.3 6.8.5.6 0 1.4.1 2 .1 2.3.1 4.6.2 7 .3 1.1.1 2.3.1 3.5.2 2.6.1 5.2.2 8 .3 113.4 2.2 217.1-5.8 310.8-20.4l13.6-95h17.2l-.6 90c17.2-3 34-6.7 50.4-10.2C954.5 703 958 677 961 654h22c1.6 23 3.4 44.3 5.5 71.5 17.9-4.4 35.5-9.2 52.4-14.1l2.7-57.3h15.7l4.7 50.7c183.7-57.1 307.8-144.5 362.9-233.2 6.7-10.8 12.4-21.4 17.1-32.2 2-4.7 3.8-9.4 5.5-14.1.5-1.5.9-2.9 1.4-4.4 1-3.3 2-6.6 2.9-9.8.4-1.7.8-3.3 1.2-4.9.7-3.2 1.4-6.4 1.9-9.5.3-1.5.6-3.1.8-4.6.5-3.7.9-7.4 1.2-11.1l.3-2.7c.3-4.6.4-9.1.3-13.6 0-1.2-.1-2.3-.2-3.5-.1-3.3-.3-6.6-.7-9.9-.2-1.5-.4-3-.6-4.6-.4-2.9-.8-5.8-1.4-8.6-.3-1.5-.6-3.1-.9-4.6-.7-3-1.4-5.9-2.3-8.8-.4-1.3-.7-2.5-1.1-3.8-1.3-4.1-2.7-8.1-4.2-12-.3-.8-.7-1.5-1-2.3-1.3-3.1-2.7-6.3-4.3-9.3-.7-1.4-1.5-2.8-2.2-4.2-1.3-2.4-2.6-4.7-4-7-.9-1.5-1.8-2.9-2.7-4.3-1.5-2.2-3-4.4-4.5-6.5-1-1.3-1.9-2.7-2.9-4-1.9-2.5-4-4.9-6.1-7.3-.7-.8-1.4-1.7-2.2-2.5-2.8-3-5.7-6-8.7-8.8-1.3-1.2-2.6-2.3-3.9-3.5-1.9-1.7-3.9-3.4-5.9-5.1-1.5-1.2-3.1-2.4-4.6-3.6-2-1.5-4-2.9-6-4.3-1.6-1.1-3.3-2.3-5-3.3-2.2-1.4-4.5-2.7-6.8-4.1-1.6-.9-3.2-1.9-4.8-2.8-3.7-2-7.6-3.9-11.5-5.7-1.8-.8-3.6-1.5-5.4-2.2-2.5-1-4.9-2-7.5-3-2.1-.8-4.2-1.4-6.3-2.1-2.4-.8-4.8-1.5-7.2-2.2-2.2-.6-4.4-1.2-6.7-1.8-2.5-.6-5-1.2-7.6-1.7-2.2-.5-4.5-1-6.8-1.4-3.2-.6-6.4-1-9.6-1.4-3.3-.4-6.6-.8-10-1-3.1-.3-6.3-.5-9.5-.7-2.4-.1-4.9-.1-7.4-.1h-8.4l-7.8.3c-2.9.2-5.7.4-8.6.7-2.6.2-5.2.5-7.8.8-3.2.4-6.5-1.6-9.7-1-2.3.4-4.7-1.4-7-1.4 94.5-11.1 150.7 80.6 78.2 176z"/><path fill="#E7BEAE" d="M531.6 765.8c53.1 0 50.4-35.4 50.4-35.4v-38.9l16.8-17.7-14.3-48.4-.5-1.1 14-21.2.7-38.9-27.7-39V458l-71.5-67.2-14.3 6-57 22.2-7.6 25.2 14.3 27.8-27 61.5-10.5 23.9-1.4 3.1 49.6 70.7s-7.1 63.7-3.5 60.2c5.4 10.8 23.2 48.3 55 65.5h.5c9.9 5.5 21.4 8.9 34 8.9zm-60.2-310.9l-10.6-6.6 9.3-5.3 5.3 8-4 3.9zm4 146l-5.3-4 4-6.6 1.3 10.6zM470 492.1v6.6l-11.9 8-11.3-4 8.9-19.9 14.3 9.3zm-14.5 50.4l6.6 8-5.3 2.6-7.9-1.3 6.6-9.3zm23.8-68.1l9.3-2.5 4 5-5.3 5h-4l-4-7.5zm65 1.7l4 4-2.7 6.6-6.6-2.6 5.3-8zm-2.6 54.4l10.6 7.9-2.7 6.6-11.9-5.3 4-9.2zM531 626.1l-11.9 5.3-10.6-7.9 5.3-10.6 10.6 1.3 6.6 4v7.9zm-29.1-192.4l18.6 6.6-8 11.9-14.6-4 4-14.5zm11.9 69l11.9 14.6-15.9 15.9-14.6-23.9 18.6-6.6zm-19.9-81l-5.3 6.6-4-9.3s0-4 4-2.6 5.3 5.3 5.3 5.3zm-49.1 14.6l-6.6-1.3 4-6.6 2.6 7.9zm-10.6 135.4l-5.3-2.6 4-6.6 1.3 9.2z"/><path fill="#D59980" d="M446.2 502.7l11.9 3.9 11.9-7.9v-6.6l-14.6-9.3zM520.5 440.3l-18.6-6.6-4 14.6 14.6 3.9zM525.8 517.3l-12-14.6-18.5 6.6 14.5 23.9zM462.1 550.4l-6.6-7.9-6.7 9.3 8 1.3zM470 443l-9.2 5.3 10.6 6.6 4-4zM513.8 612.8l-5.3 10.6 10.6 8 11.9-5.3v-8l-6.6-4zM552.3 538.5l-10.6-8-4 9.3 11.9 5.3zM548.3 480.1l-4-4-5.3 8 6.7 2.6zM492.6 477.1l-4-5.1-9.3 2.3 4 7.7h4zM444.8 436.3l-2.6-7.9-4 6.6zM484.6 419.1l4 9.3 5.3-6.6s-1.3-4-5.3-5.3c-4-1.4-4 2.6-4 2.6zM475.4 600.9l-1.4-10.7-4 6.7zM434.2 571.7l-1.3-9.3-4 6.6z"/><path fill="#D9CAD7" d="M995.6 1662.4l-27.4-589.9c4.6 1.8 10.5 3.6 15.3 3.8 119.5-9.5 100.4-155.8 100.4-155.8l-20-215.8-4.7-50.7h-15.7l-2.7 57.6-4.3 93.2c-.8 31.7-32.9 31-41.6 11.7-2.4-34-4.6-64.6-6.5-91.2-2-27.2-3.9-48.4-5.5-71.4H961c-3 23-6.4 49.3-10.3 80.1-3 23.6-6.3 50.1-9.9 79.3-9.7 18.8-41.7 18.1-40.9-13.6l.4-55.8.6-89.9h-17.2l-13.6 95-23.5 163.3s-26.8 145.2 92 161h1L859 1652.8s-17.1 81.3-98.2 77.9c102.6 14.9 215.9 31.1 310.6 44 .6.1 1.3.3 2 .3-1.3 0-70.3-22.1-77.8-112.6z"/></svg>