<svg xmlns="http://www.w3.org/2000/svg" viewBox="0 0 2000 2000"><path fill="none" d="M524.7 531H551c-13.7-24-26.8-48.3-36.4-63.8-15.8-25.7-17.3 2.8 10.1 63.8z"/><path fill="#6CAB36" d="M1526.6 661.5v1.3c.1-2 .3-4.1.4-6.1-.2 1.6-.3 3.2-.4 4.8zM1527.8 623c0 .7-.1 1.4-.1 2.2v1.9c0-1.4.1-2.8.1-4.1z"/><path fill="#6CAB36" d="M1707.9 531.2c0-152.9-123.9-276.8-276.8-276.8-152.8 0-276.8 123.7-276.8 276.5v.1h330.2l131.1-7.2c4.7 76.2-45.1 129.2-45.1 129.2l-42.9-43.4c.1 3.7.1 7.5.1 11.1l39.6 41.7c-15 14-29.6 24.3-43.3 32.1.1-1.3.2-2.6.3-3.8-.4 4.2-.9 8.3-1.3 12.4-.6 5.6-1.3 11.2-2.1 16.8-1.3 9.4-2.8 18.8-4.4 28.1-1.1 6.1-2.3 12.1-3.6 18.2-1.2 5.7-2.4 11.3-3.8 16.8-1.1 4.8-2 9.7-3.2 14.4 116.5-32.7 202-139.4 202-266.2zm-467.1-11.8c-1.6-70 46.7-119.8 46.7-119.8l143.7 131.6-190.4-11.8zm189 6.3L1304 389.3s34.5-37.4 106.4-49.4l22.5 190.3-3.1-4.5zm-2.4-188.3s66.9-7.8 115.1 37.3l-102.7 150.9-12.4-188.2zm26.5 188.2l98-140s63.8 62.2 60.7 126l-158.7 14z"/><path fill="#DDD" d="M1431.1 807.4c-152.6 0-276.3-121.4-276.7-276.4h330.2H579.2c28.5 83 37.2 123.1 37.2 123.1S582.4 589 551 531h-26.4c27.2 62 82.8 155.2 181.3 262.4 0 0-166.2-127.4-248.2-262.4h-40.1c-3.8 26-5.8 60-5.8 90.8 0 333.7 229.5 604.2 512.6 604.2h22.4L923 1594.4c-158.6 12.8-279.2 77.7-279.2 155.6 0 87.1 150.8 157.8 336.8 157.8s336.8-70.5 336.8-157.6c0-80.6-129.1-147.7-295.7-157.1l-22.3-344c-1.7.6-15 6.7-12.1 38.7 3.1 34.2 28 466.6 28 466.6s-3.1 17.1-17.1 17.1c-14 0-17.6-21.3-17.6-21.3l-7.3-471.8s-1.5-26 26.1-29.3l-1.5-23.1h17.3c231.2 0 426.6-180.6 490.5-428.4-23.8 6.6-48.7 9.8-74.6 9.8zM862.8 1826c-42 2.6-68.2-20.9-55.1-39.2 13.1-18.3 55.1-7.9 73.4 5.2 0 0 23.6 31.4-18.3 34zm171.6-40.5c47.7-27 22.8-70.5 22.8-70.5s141 8.3 130.7 74.7c-10.4 66.4-282 66.4-240.6 8.3 0 0 39.4 14.5 87.1-12.5zm245.4-725c-111.1 114.7-292 141.5-345.7 137.9 0 0 230.7-26 322.1-141.4-114.7 82.2-322.9 141.4-517.3 48.2-261.6-125.3-268.8-447.7-268.8-447.7 143.3 290.2 634.2 232.9 648.5 182.7 14.3-50.2-258-78.8-258-78.8-30.4 1.8 195.3-34 361.9 5.4 166.6 39.4 168.4 179.1 57.3 293.7zM1527.6 609.3c.1 3.8.2 7.6.2 11.5 0-3.7 0-7.4-.1-11.1l-.1-.1v-.3zM1513 766.1c-1.2 5.7-2.5 11.3-3.8 16.8 1.4-5.5 2.6-11.1 3.8-16.8zM1521 719.9c-1.3 9.4-2.8 18.8-4.4 28.1 1.6-9.3 3.1-18.7 4.4-28.1zM1525.9 571.2c0-.6-.1-1.3-.2-1.9.1.6.1 1.2.2 1.9zM1527.7 627v-1.9c0 12.2-.5 24.4-1.1 36.4l.3-4.8c.5-9.8.7-19.7.8-29.7zM1523.1 703.1c.5-4.1.9-8.2 1.3-12.4.3-3 .4-6.1.7-9.1-.6 7.2-1.2 14.3-2 21.5z"/><path fill="#CF7046" d="M1222.5 766.7c-166.6-39.4-392.3-3.6-361.9-5.4 0 0 272.3 28.7 258 78.8-14.3 50.2-505.2 107.5-648.5-182.7 0 0 7.2 322.5 268.7 447.9 194.4 93.2 402.6 34 517.3-48.2-91.4 115.3-322.1 141.4-322.1 141.4 53.7 3.6 234.7-23.3 345.7-137.9 111.2-114.7 109.4-254.4-57.2-293.9z"/><path fill="#CF7046" d="M705.9 793.9c-98.5-107.2-154.1-201.3-181.3-262.4-27.3-61.4-25.8-89.5-10-63.8 9.6 15.5 22.7 38.9 36.4 63.8 31.3 57.3 65.4 123.1 65.4 123.1s-8.7-40.2-37.2-123.1c-8.5-24.6-18.6-52.8-30.9-85.1-53.6-140.9-174.6-150.2-127.1 7.2 7.7 25.6 20.5 51.8 36.4 77.8 82.1 134.3 248.3 262.5 248.3 262.5z"/><path fill="#FFC03B" d="M598.1 455.9c-26.9-102.1 0-231.1 32.2-233.8 32.3-2.7 32.3 8.1-2.7 69.9-34.9 61.8-18.8 77.9-18.8 77.9 5.4-56.4 96.7-126.3 91.4-182.7-5.4-56.4-102.1-77.9-137.1 34.9-34.9 112.9 29.6 225.7 29.6 225.7l5.4 8.1z"/><path fill="#75A76D" d="M873.8 154.3c23.3 18.7 16.5 25.9-46.2 45.1-62.7 19.2-62.1 40.3-62.1 40.3 39.5-34.4 145-23.2 177.3-64.4 32.2-41.2-18.9-117.1-114-63.6-95.1 53.4-123.5 170-123.5 170l-1.5 8.8c46.7-85.5 146.6-154.9 170-136.2z"/><path fill="#A9CC87" d="M1513 766.1c1.2-6 2.5-12.1 3.6-18.2 1.7-9.3 3.1-18.7 4.4-28.1.8-5.6 1.4-11.2 2.1-16.8.8-7.1 1.4-14.3 2-21.5.5-6.2 1.1-12.5 1.4-18.8v-1.3c.7-12.1 1.1-24.2 1.1-36.4 0-.7.1-1.4.1-2.2v-2.2c0-3.8-.1-7.7-.2-11.5-.3-12.8-.8-25.5-1.7-38.1 0-.6-.1-1.8-.2-2.4-.9-12.5-2.1-23.7-3.7-37.7h-367.7c.5 155 124.2 276.4 276.7 276.4 25.9 0 50.8-3.3 74.6-10 .1 0 .2.1.3.1v-.2c1.2-4.7 2.1-9.6 3.2-14.4 1.5-5.5 2.8-11 4-16.7z"/><path fill="#D8DBA9" d="M1427.4 337.4l12.4 188.2 102.7-150.9c-48.2-45.1-115.1-37.3-115.1-37.3zM1551.9 385.6l-98 140 158.7-14c3.1-63.8-60.7-126-60.7-126zM1303.9 389.4l125.8 136.4 3 4.5-22.4-190.3c-71.9 11.9-106.4 49.4-106.4 49.4zM1522 531c1.6 14 2.8 25.2 3.7 37.7 0 .6.1 1.5.2 2.2.9 12.6 1.5 25.5 1.7 38.3v.4l.1.1 42.9 43.4s49.8-52.9 45.1-129.1l-131.1 7h-9.8 47.2zM1240.8 519.4l190.3 11.8-143.7-131.6c.1 0-48.2 49.8-46.6 119.8zM1527.8 620.8v2.2c0 1.4-.1 2.7-.1 4.1-.1 9.9-.3 19.8-.8 29.7-.1 2-.2 4.1-.4 6.1-.4 6.3-.9 12.5-1.4 18.8-.3 3-.4 6.1-.7 9.1-.1 1.3-.2 2.6-.3 3.8 13.8-7.8 28.4-18.1 43.3-32.1l-39.6-41.7z"/><linearGradient id="a" gradientUnits="userSpaceOnUse" x1="386.063" y1="1551.264" x2="966.765" y2="1265.059"><stop offset="0" stop-color="#fff"/><stop offset="1" stop-color="#fff"/></linearGradient><path fill="url(#a)" d="M999.7 1248.9c-.1 0-.2.1-.3.1v.1c.1-.1.3-.2.3-.2z"/></svg>