<svg xmlns="http://www.w3.org/2000/svg" width="100" height="100" viewBox="0 0 100 100"><linearGradient id="a" gradientUnits="userSpaceOnUse" x1="37.638" y1="44.377" x2="37.638" y2="55.369"><stop offset="0" stop-color="#cecece"/><stop offset="1" stop-color="#b2a9ae"/></linearGradient><path fill="url(#a)" d="M45.034 68.113l-12.79-18.617c-1.628 1.203-1.289 3.786-2.003 5.944 5.746 6.624 12 14.958 12 14.958l2.793-2.285z"/><linearGradient id="b" gradientUnits="userSpaceOnUse" x1="31.526" y1="53.406" x2="71.772" y2="53.406"><stop offset="0" stop-color="#e272ab"/><stop offset="1" stop-color="#df4597"/></linearGradient><path fill="url(#b)" d="M34.787 69.011c-2.718 2.211-2.947 4.192-2.834 5.183h39.33c.251-1.421 1.054-2.194-.18-4.921-2.199-5.801-7.413-5.999-9.35-6.452 2.086-1.126 2.978-4.162.894-4.841.897-1.013 1.043-2.922-1.493-3.378.304-.786.304-2.025-.892-3.148 3.428-3.602-3.43-5.062-6.259-5.854 0 0-2.787-3.409-7.327-4.764-5.015-1.501 2.186-7.128-.378-8.216-3.02.93-7.921 3.176-8.603 7.07-.853 4.857 2.352 6.762 2.647 7.995.298 1.245.847 1.629.254 1.629-8.795 5.52-3.731 8.552-3.731 8.552s-2.826 1.916-4.617 4.394c-1.786 2.475 0 6.08 2.539 6.751z"/><linearGradient id="c" gradientUnits="userSpaceOnUse" x1="41.227" y1="74.968" x2="63.698" y2="63.929"><stop offset="0" stop-color="#e4087e"/><stop offset=".607" stop-color="#c0176c"/><stop offset="1" stop-color="#ad1f63"/></linearGradient><path fill="url(#c)" d="M60.789 63.546c-1.495 3.71-12.551 8.379-18.46 10.647h2.52a481.291 481.291 0 0 1 10.037-4.187c7.225-2.913 5.903-6.46 5.903-6.46z"/><linearGradient id="d" gradientUnits="userSpaceOnUse" x1="39.108" y1="70.655" x2="61.572" y2="59.621"><stop offset="0" stop-color="#e4087e"/><stop offset=".607" stop-color="#c0176c"/><stop offset="1" stop-color="#ad1f63"/></linearGradient><path fill="url(#d)" d="M33.785 74.193h.505c2.889-3.265 13.244-8.376 13.244-8.376l-1.562.364c-9.924 4.466-11.889 6.95-12.187 8.012z"/><linearGradient id="e" gradientUnits="userSpaceOnUse" x1="39.301" y1="71.035" x2="61.766" y2="60"><stop offset="0" stop-color="#e4087e"/><stop offset=".607" stop-color="#c0176c"/><stop offset="1" stop-color="#ad1f63"/></linearGradient><path fill="url(#e)" d="M62.255 58.146c-2.048 1.543-7.468 5.003-15.413 7.639 0-.001 14.207.179 15.413-7.639z"/><linearGradient id="f" gradientUnits="userSpaceOnUse" x1="42.823" y1="78.205" x2="65.287" y2="67.171"><stop offset="0" stop-color="#e4087e"/><stop offset=".607" stop-color="#c0176c"/><stop offset="1" stop-color="#ad1f63"/></linearGradient><path fill="url(#f)" d="M53.562 74.193h7.628c3.455-3.259 6.402-7.702 1.645-10.829-.001 0 6.405 4.524-9.273 10.829z"/><linearGradient id="g" gradientUnits="userSpaceOnUse" x1="33.09" y1="58.407" x2="55.561" y2="47.369"><stop offset="0" stop-color="#e4087e"/><stop offset=".607" stop-color="#c0176c"/><stop offset="1" stop-color="#ad1f63"/></linearGradient><path fill="url(#g)" d="M40.637 57.514s1.488.637 4.899-1.283c3.529-1.984 4.368-2.023 4.368-2.023s4.256-1.578 6.544-3.762c2.533-2.729-2.048-4.457-2.048-4.457 3.014 4.093-2.525 5.642-4.454 6.731-1.927 1.096-4.697 3.185-6.99 4.002-2.286.819 0-2.365 1.81-3.908 1.808-1.548 2.41-4.86 2.048-5.315-5.417 2.362-9.753 9.317-9.949 10.368 2.103-1.038 3.772-.353 3.772-.353z"/><linearGradient id="h" gradientUnits="userSpaceOnUse" x1="36.683" y1="65.71" x2="59.149" y2="54.674"><stop offset="0" stop-color="#e4087e"/><stop offset=".607" stop-color="#c0176c"/><stop offset="1" stop-color="#ad1f63"/></linearGradient><path fill="url(#h)" d="M57.414 55.631c-1.805 1.27-8.793 4.824-13.492 6.822-4.695 2.007-8.881 6.488-8.423 6.188 1.799-1.179 5.658-2.911 9.149-4.454 3.491-1.548 11.205-4.824 14.213-7.286 3.008-2.453 2.169-4.087 1.401-5.447-.041 1.003-1.037 2.902-2.848 4.177z"/><linearGradient id="i" gradientUnits="userSpaceOnUse" x1="35.663" y1="63.634" x2="58.131" y2="52.597"><stop offset="0" stop-color="#e4087e"/><stop offset=".607" stop-color="#c0176c"/><stop offset="1" stop-color="#ad1f63"/></linearGradient><path fill="url(#i)" d="M34.787 69.011s-.497-2.465 3.356-5.465c3.855-3 10.998-5.025 14.337-6.916 6.91-3.913 8.669-8.139 4.67-8.497 1.812 1.173 1.575 2.589-4.691 5.862 0 0-8.84 3.73-14.073 5.82-3.412 1.361-9.133 5.652-3.599 9.196z"/><linearGradient id="j" gradientUnits="userSpaceOnUse" x1="28.598" y1="49.268" x2="51.074" y2="38.227"><stop offset="0" stop-color="#e4087e"/><stop offset=".607" stop-color="#c0176c"/><stop offset="1" stop-color="#ad1f63"/></linearGradient><path fill="url(#j)" d="M42.337 48.668c2.137-1.17 2.559-1.065 4.582-1.705 0 0-.346-3.437-1.907-5.252-1.567-1.819-1.327-3.729-.127-5.186 1.209-1.458 1.573-2.727 1.573-2.727s-3.257 3.364-4.217 5.186c-.969 1.818 1.181 4.54 1.203 5.276.067 2.383-1.865 4.831-1.107 4.408z"/><g><defs><path id="k" d="M51.047 22.227c16.209 0 29.361 13.148 29.361 29.358 0 16.214-13.152 29.361-29.361 29.361-16.213 0-29.361-13.147-29.361-29.361 0-16.21 13.147-29.358 29.361-29.358z"/></defs></g><linearGradient id="l" gradientUnits="userSpaceOnUse" x1="12.65" y1="48.045" x2="89.441" y2="48.045"><stop offset="0" stop-color="#e272ab"/><stop offset="1" stop-color="#df4597"/></linearGradient><path fill-rule="evenodd" clip-rule="evenodd" fill="url(#l)" d="M53.043 19.69c17.845 1.253 31.301 16.749 30.043 34.591-1.201 17.083-15.449 30.14-32.317 30.123v2.095c20.141.16 37.205-15.383 38.637-35.753l.036-.621v-4.217C88.398 26.835 73.294 11.066 53.746 9.689a41.387 41.387 0 0 0-2.978-.099v10.02c.752 0 1.513.028 2.275.08zm-2.274 64.714c-.756 0-1.51-.021-2.274-.077-17.85-1.253-31.298-16.749-30.048-34.594C19.649 32.65 33.898 19.591 50.769 19.61V9.59c-19.906.121-36.661 15.576-38.08 35.761l-.039.616v4.214c1.041 19.078 16.145 34.851 35.695 36.228.816.056 1.617.083 2.423.091v-2.096z"/><linearGradient id="m" gradientUnits="userSpaceOnUse" x1="50.798" y1="14.284" x2="50.798" y2="79.606"><stop offset="0" stop-color="#e4087e"/><stop offset=".607" stop-color="#c0176c"/><stop offset="1" stop-color="#ad1f63"/></linearGradient><path fill-rule="evenodd" clip-rule="evenodd" fill="url(#m)" d="M51.017 74.086c13.357.014 24.633-10.321 25.586-23.845.997-14.13-9.656-26.392-23.783-27.385a25.941 25.941 0 0 0-1.803-.063v-1.659c.635.008 1.275.03 1.918.077 15.535 1.09 27.523 13.661 28.267 28.837v3.02c-.009.215-.02.431-.036.646-1.123 15.979-14.39 28.208-30.148 28.305v-7.933zm-1.796-.061c.604.041 1.2.061 1.796.061v7.932a29.55 29.55 0 0 1-2.354-.074c-15.535-1.091-27.521-13.67-28.269-28.846v-3.017c.011-.215.024-.425.039-.64 1.131-16.126 14.635-28.44 30.583-28.308v1.659c-13.354-.017-24.628 10.322-25.58 23.85-.996 14.13 9.654 26.389 23.785 27.383z"/><linearGradient id="n" gradientUnits="userSpaceOnUse" x1="27.579" y1="44.376" x2="27.579" y2="55.37"><stop offset="0" stop-color="#cecece"/><stop offset="1" stop-color="#b2a9ae"/></linearGradient><path fill="url(#n)" d="M32.278 49.474l-1.581-2.299s-4.209-5.969-7.369-2.174c-1.57 1.879 1.33 4.357 3.273 6.369a101.195 101.195 0 0 1 3.673 4.049c.715-2.158.376-4.741 2.004-5.945z"/></svg>