<svg xmlns="http://www.w3.org/2000/svg" width="150" height="150" viewBox="0 0 150 150"><path fill="none" d="M13.436 53.998l-4.839 2.809 5.618 9.796-5.61-9.796zM8.605 92.16l5.61-9.695-5.618 9.703 9.679 5.535v-.008zM26.008 37.561l-10.583 2.796v.05l10.583-2.768zM88.932 55.692l8.941 4.525-5.494-8.378a17.454 17.454 0 0 0-3.447 3.853zM96.904 80.078c1.599.613 3.298 1.01 5.08 1.076l-.556-10.01-4.524 8.934zM95.254 49.966l5.486 8.374-.555-10.002a16.376 16.376 0 0 0-4.931 1.628zM26.215 37.498l-.207.063.207-.059z"/><path fill="none" d="M74.346 6.384l7.898 7.898.207-.133 9.588-5.498 5.527 9.679 10.899-2.859 2.858 10.889h11.254v11.279l10.815 2.851-2.851 10.794 9.771 5.643-5.627 9.791 7.93 7.84-7.93 7.94 5.627 9.795.215-.125-5.619-9.787 7.94-7.939-7.94-7.839 5.619-9.796-9.779-5.619 2.859-10.831-10.797-2.859V26.249h-11.271l-2.851-10.915-10.915 2.876-5.543-9.7-.191.137-9.588 5.498-7.939-7.951-.174.186-7.682 7.765-.033-.017.033.021zM40.452 133.629l3.829-1.053-3.829 1.053zM37.303 26.249H26.215v.111h11.063zM105.423 80.965c1.765-.291 3.414-.838 4.905-1.633l-5.461-8.371.556 10.004zM66.449 14.282l.149-.166-.009-.004-9.712-5.602-.116.195-5.503 9.584 5.503-9.58zM51.126 18.272l-10.782-2.938-.033.17 10.715 2.921zM113.205 77.475c1.358-1.094 2.51-2.419 3.472-3.877l-8.934-4.525 5.462 8.402zM97.773 130.895l-.115-.018-5.527 9.498.008.008.091.074 5.543-9.562.1-.133 10.633 2.816-10.641-2.826zM82.244 134.938l-7.682 7.781-2.437-2.428 2.428 2.428.058.058 7.691-7.798.149-.157-.158.149zM111.323 122.93l-2.817 10.648.182.051 2.818-10.691.033-.116-.042.108zM122.577 122.822h.233v-11.295l-.233.057zM130.541 97.928l2.926 10.74-10.657 2.801 10.665-2.801.207-.074-2.934-10.782z"/><path fill="none" d="M77.661 97.82v-7.094c-.066-3.166 3.812-7.002 8.229-10.367 4.5 4.873 11.055 7.773 18.189 7.375 12.688-.695 22.508-11.619 21.804-24.335-.688-12.729-11.603-22.503-24.331-21.815-11.161.609-20.062 9.086-21.613 19.731H26.331l-.149 1.38c-.066.551-.431 5.548 7.807 10.404 4.765 2.859 19.333 11.52 19.209 17.676v7.045c0 5.727 4.044 10.566 9.414 11.893v27.43l-5.735 3.314-3.746-6.529 3.746 6.529 5.735-3.299 4.044-2.336 1.815 1.807V109.68c5.254-1.41 9.19-6.184 9.19-11.86zm24.058-52.801c10.848-.622 20.138 7.719 20.726 18.559.613 10.848-7.748 20.129-18.579 20.727-5.909.314-11.346-2.039-15.182-6 3.24-2.254 6.405-4.127 8.188-5.18 8.245-4.89 7.881-9.878 7.822-10.429l-.199-1.384H83.429c1.533-8.835 8.967-15.8 18.29-16.293z"/><path fill="none" d="M115.624 54.242a16.769 16.769 0 0 0-3.854-3.456l-4.532 8.938 8.386-5.482zM119.13 62.041a16.65 16.65 0 0 0-1.633-4.931l-8.37 5.481 10.003-.55zM118.227 70.564c.613-1.616.994-3.298 1.069-5.088l-10.003.555 8.934 4.533zM103.616 48.139l.563 10.032 4.517-8.934a16.263 16.263 0 0 0-5.08-1.098z"/><path fill="#FCBA5E" d="M104.693 62.695c.059.551.423 5.54-7.822 10.429-1.782 1.053-4.947 2.926-8.188 5.18 3.836 3.961 9.272 6.314 15.182 6 10.831-.598 19.192-9.879 18.579-20.727-.588-10.839-9.878-19.181-20.726-18.559-9.323.493-16.757 7.458-18.29 16.292h21.065l.2 1.385zm-7.789 17.383l4.524-8.934.556 10.01c-1.782-.066-3.481-.463-5.08-1.076zm-7.972-24.386a17.459 17.459 0 0 1 3.447-3.854l5.494 8.378-8.941-4.524zm6.322-5.726a16.345 16.345 0 0 1 4.932-1.628l.555 10.002-5.487-8.374zm10.169 30.999l-.556-10.003 5.461 8.371c-1.491.794-3.14 1.341-4.905 1.632zm7.782-3.49l-5.462-8.403 8.934 4.525c-.962 1.458-2.114 2.784-3.472 3.878zm5.022-6.911l-8.934-4.533 10.003-.555c-.075 1.79-.456 3.472-1.069 5.088zm-.73-13.454a16.65 16.65 0 0 1 1.633 4.931l-10.003.551 8.37-5.482zm-1.873-2.868l-8.386 5.482 4.532-8.938a16.792 16.792 0 0 1 3.854 3.456zm-12.008-6.103c1.782.095 3.497.477 5.08 1.098l-4.517 8.934-.563-10.032z"/><path fill="#00445E" d="M133.467 108.668l-2.926-10.74.207-.115v-.018l9.563-5.502-5.627-9.795 7.931-7.94-7.931-7.84 5.627-9.791-9.771-5.644 2.851-10.794-10.814-2.851V26.36h-11.254l-2.858-10.889-10.899 2.859-5.527-9.679-9.588 5.499-.207.132-7.898-7.897-7.69 7.765-.033-.021-.025-.012-.149.166-9.688-5.573-5.503 9.58-.132-.017-.1.153-10.715-2.921v.008l-2.834 10.736h-.174l-.024.112H26.215V37.502l-.207.058v.079l-10.583 2.768v.004l2.859 10.777-4.848 2.809-4.831 2.81 5.61 9.795-7.939 7.922 7.939 7.94-5.61 9.695 9.671 5.535v.008l.008.01-2.958 10.971 10.889 2.885v11.254h11.37l2.867 10.807 3.829-1.053 6.978-1.914 1.873 3.266 3.746 6.529 5.735-3.314v-27.43c-5.37-1.326-9.414-6.166-9.414-11.893v-7.045c.124-6.156-14.444-14.817-19.209-17.676-8.237-4.856-7.873-9.854-7.807-10.404l.149-1.38H79.94c1.551-10.645 10.451-19.123 21.613-19.731 12.729-.688 23.644 9.086 24.331 21.815.704 12.716-9.116 23.64-21.804 24.335-7.135.398-13.689-2.502-18.189-7.375-4.418 3.365-8.296 7.201-8.229 10.367v7.094c0 5.676-3.937 10.449-9.19 11.859v26.949l.008.016 3.646 3.646 2.436 2.428 7.683-7.781.049.033.158-.148 9.68 5.553 5.527-9.498.115.018.092-.143 10.641 2.826 2.817-10.648h.174l.042-.107h11.038v-11.238l.232-.057v-.059l10.657-2.801z"/><path fill="#FCBA5E" d="M138.662 82.879l8.437-8.454-8.437-8.32 5.983-10.43-10.384-5.966 3.025-11.482-11.47-3.045V23.22h-11.983l-3.024-11.585-11.577 3.054L93.34 4.371l-10.392 5.983-8.436-8.42-8.337 8.42-10.408-5.983-5.983 10.413-11.585-3.149-3.026 11.585H23.19v11.962l-11.486 3.045 3.05 11.482-10.293 5.967 5.975 10.43L2 74.525l8.436 8.454-5.975 10.3 10.292 5.875-3.149 11.686 11.585 3.023v11.984h12.074l3.033 11.461 11.486-3.117 5.983 10.393 6.845-3.928 3.563-2.055 2.304 2.303 6.132 6.148 8.337-8.451 10.392 5.982 5.984-10.301 11.485 3.025 3.024-11.461h11.983v-12.059l11.585-3.066-3.141-11.461 10.384-5.982-5.98-10.399zm-5.187 25.789l-10.665 2.801V122.823h-11.271l-.033.115-2.818 10.691-.182-.051-10.633-2.816-.1.133-5.543 9.562-.092-.074-.008-.008-9.68-5.553-.149.156-7.69 7.799-.058-.059-2.428-2.428-3.646-3.646-.008-.016-1.815-1.807-4.044 2.336-5.735 3.299-3.746-6.529-1.873-3.266-6.978 1.914-3.829 1.053-2.867-10.807h-11.37v-11.254l-10.889-2.885 2.958-10.971-.008-.01-9.679-5.535 5.619-9.703-7.939-7.94 7.939-7.922-5.619-9.795 4.839-2.81 4.848-2.809-2.859-10.777V40.357l10.583-2.797.207-.062v-11.25H37.476l2.834-10.736v-.008l.033-.17 10.782 2.938.132.017 5.503-9.584.116-.194 9.712 5.602.008.004.025.012.033.017 7.682-7.765.174-.187 7.939 7.951 9.588-5.498.193-.137 5.543 9.7 10.914-2.875 2.852 10.914h11.271v11.25l10.798 2.859-2.859 10.831 9.779 5.619-5.619 9.795 7.939 7.839-7.939 7.939 5.619 9.787-.216.125-9.563 5.502v.018l2.934 10.781-.208.074z"/></svg>