<svg xmlns="http://www.w3.org/2000/svg" width="150" height="150" viewBox="0 0 150 150"><path fill="#4C6164" d="M77.73 4.728c-34.84 0-63.071 28.208-63.071 63.089 0 13.16 4.066 25.385 10.966 35.498-.272-4.289-.303-8.59.057-12.744-3.055-6.963-4.806-14.646-4.825-22.754.063-31.415 25.448-56.826 56.873-56.886 31.386.06 56.814 25.471 56.847 56.885-.02 17.334-7.962 32.684-20.225 43.1.278 2.49.335 5.152.14 7.949 15.866-11.428 26.313-29.982 26.313-51.049.001-34.88-28.243-63.088-63.075-63.088z"/><path fill="#00AFB5" d="M116.971 69.647c2.959-4.041 4.319-9.714 4.01-15.323-.278-5.101-2.403-10.827-5.236-14.337-4.51-5.543-11.27-7.415-17.208-5.673-4.452-8.288-10.84-10.375-16.373-10.375-5.527 0-11.921 2.087-16.367 10.375-5.932-1.742-12.724.13-17.208 5.673-2.024 2.501-3.63 6.119-4.522 9.818l-.721 4.541c-.291 5.6 1.056 11.26 4.009 15.301 3.276 4.405 7.229 7.124 11.953 7.763-.133 2.859-.31 4.668-.449 6.4 5.963 4.465 12.3 9.682 17.46 15.43 2.429-2.58 5.11-4.781 8.051-6.531 10.042-6.104 16.739-8.039 21.116-8.52-.146-1.846-.322-3.73-.48-6.779 4.717-.639 8.701-3.358 11.965-7.763z"/><path fill="#B7C233" d="M105.43 90.875s-5.344-1.107-18.391 6.771c-4.566 2.771-7.785 6.615-10.131 10.854-8.658-13.908-31.57-27.193-34.833-29.824-4.199-3.396-2.663-8.317-2.795-8.168-10.169 10.709-9.239 45.53.405 59.727 9.783 14.395 27.978 16.387 27.978 16.387-5.995-4.01-14.128-24.07-15.987-30.172-2.998-9.783-3.997-14.805-3.193-14.59.379.088 5.54 12.041 10.384 22.375 5.242 11.174 12.584 20.59 12.584 20.59s.228-.322.544-.822c.032.279.057.432.057.432.278-.664.588-1.367.873-2.043.848-1.537 1.941-3.852 3.124-7.09 3.979-8.676 7.994-16.469 8.607-17.461 4.383-7.189 9.189-10.391 9.189-10.391-3.599 4.99-17.195 36.984-17.195 36.984 43.965-4.207 30.975-40.766 29.18-44.775-1.792-3.985-.4-8.784-.4-8.784z"/></svg>