<svg xmlns="http://www.w3.org/2000/svg" width="150" height="150" viewBox="0 0 150 150"><path fill="#00B0CA" d="M142.809 52.698l-44.206 4.844c-1.508-5.406-5.731-9.299-10.18-12.043l-6.679-15.141-2.149 3.57c.187.096-.555.94-.555 2.59.145 1.99.513 4.821 6.854 8.364 5.662 3.215 12.279 8.271 12.646 16.314.048 2.147-.823 4.329-2.197 6.292 3.146 2.917 5.492 6.632 5.877 11.629 0 2.303-.602 4.693-1.736 7.117l-.854 1.762c.285 1.249.253 2.638.099 4.044 1.688.981 3.041 2.611 3.19 5.21-.123 2.005-.958 3.37-2.114 4.403.219 3.038.084 7.128-1.786 11.527l-1.041 2.398-1.544-.05-2.078 11.35 48.455 5.166-29.037-39.671 29.035-39.675z"/><path fill="#00B0CA" d="M51.375 115.434l-2.353-2.253c-1.989-4.627-2.036-8.844-1.808-11.527-1.14-1.037-1.979-2.436-2.093-4.399.202-3.002 1.942-4.737 3.989-5.624-2.611-4.891-3.932-12.068 1.398-18.699-1.963-2.397-3.114-5.224-3.093-8.053-.031-4.986 3.264-9.639 8.336-11.42a10.371 10.371 0 0 1-1.191-4.414c-.094-.575-.047-1.088-.047-1.088 1.176-15.18 20.417-19.396 20.417-19.922l9.813-3.187.694-1.124-5.812 1.839-5.502-12.498-7.802 17.675c-5.601 2.95-11.999 7.983-12.683 16.493 0 0-.047.526.052 1.104a10.236 10.236 0 0 0 1.217 4.458c-2.647.913-4.828 2.568-6.341 4.63l-43.135-4.72 29.033 39.67-29.032 39.67 46.973-5.129.959-.144-1.715-11.339h-.274z"/><path fill="#006473" d="M81.251 113.181H56.058l4.761 31.486h4.113l.037-.037h3.114l.025.037H81.34l.048-.037h3.091l.027.037h4.123l4.757-31.486h-8.798z"/><path fill="#00B0CA" d="M96.038 111.538c1.838-4.281 1.7-8.424 1.444-10.545a5.46 5.46 0 0 1-.875.058H52.836c-.311 0-.596-.012-.876-.058-.253 2.121-.389 6.264 1.451 10.545.409-.068.865-.133 1.295-.133h40.036c.431 0 .876.065 1.296.133z"/><path fill="#00899D" d="M96.396 92.924c2.491-10.165-9.73-11.83-24.728-13.446-13.305-1.44-16.77-4.772-16.77-4.772-7.984 8.68.626 18.219.626 18.219h40.872z"/><path fill="#00B0CA" d="M74.103 61.666c-9.278-1.894-14.869-4.977-14.869-4.977-7.916 1.262-10.351 12.154-1.243 16.732 5.418 2.671 16.112 3.501 25.075 4.858 11.563 1.792 14.495 6.206 14.495 6.206 6.844-14.167-14.159-20.975-23.458-22.819z"/><path fill="#006473" d="M84.696 48.46c-13.355-7.162-7.816-16.614-7.816-16.614s-18.242 5.872-17.641 16.656c.238 4.388 3.311 7.577 13.397 10.032 5.347 1.294 9.606 2.267 12.874 3.443 5.155 1.797 7.771 4.101 7.771 4.101 5.539-6.355-1.777-13.978-8.585-17.618z"/><path fill="#00B0CA" d="M49.841 97.25c0 1.264 1.342 2.303 2.995 2.303h43.771c1.658 0 3-1.039 3-2.303 0-1.257-1.342-2.274-3-2.274H52.836c-1.653 0-2.995 1.017-2.995 2.274z"/></svg>