<svg xmlns="http://www.w3.org/2000/svg" viewBox="0 0 2000 2000"><path fill="#CED4DA" d="M1007.5 1429.5c-11.6 2.4-29.6 3-51.2 2.7.8 1.6 1.4 3.2 2.1 4.8 22.1-1.6 43.8-3.6 65.1-5.9.1-1.5.2-3.1.4-4.6-5.3.9-10.7 1.8-16.4 3z"/><path fill="#CED4DA" d="M714.4 1614.5C488 1608.3 387 1547.3 337 1425.6L104.9 1458s421.6 182.9 690 305.6l734.5-139.9-13.9-90.1 69.4-32.9c-108.6-36.9-180.9-37.3-270.1-62.2-59.4 116.6-212.1 186.6-600.4 176z"/><path fill="#C1DCF3" d="M1543.1 552.1l9.4 3-11.3 35.2c38-5.3 74.5-15.9 101.5-28.8 62.6-29.8 107.3-9 107.3-9s-29.8 3-29.8 35.8-73.9 518.8-73.9 518.8l-29.2-26.8v35.8s-81.1 92.4-274.9 8.9l-74.8-569.4s68.4-11.9 134 20.9c27.7 13.8 63.8 18.6 101 17.3l13.2-41.2h-4c-163.4 0-298-36.7-316.7-84.1l3 18.7 4.2 26.2 4.7 29.2v.1h.4l82.6 484.2c25.8 30.6 43.3 64.7 50.9 101.6 21.6 8.7 37.3 24.9 37.3 51.9 31.4-13.9 70.1-1 69.2 34.5 15.4 7 31.6 17.3 40.3 31.5l-6.4 123.9c-72 4.3-126 21.7-126 42.5 0 24.1 72.1 43.6 161 43.6s161-19.5 161-43.6c0-20.1-50.2-36.9-118.4-42l-8.4-133.1c21.7-25.2 65.2-35.2 65.2-35.2 115.9 0 109.5-155 109.5-155l89-559.9c-39.3 34.9-144.2 60.8-270.9 64.5z"/><path fill="#D4E3A1" d="M1200.7 520l-9-1.8 1.6-8.3c-35.7-7.9-66.3-28.6-86.7-57l-8.9 5.7-5-7.7 8.8-5.7c-13.6-21.7-21.6-47.2-21.6-74.6 0-11.6 1.6-22.9 4.2-33.7l-11.6-3.2 2.4-8.9 11.5 3.1c12.2-38.4 40.5-69.7 77.1-86.6l-2.2-5.1 8.4-3.7 2.3 5.2c16.5-6.4 34.4-10 53.2-10 21.6 0 42.1 4.8 60.5 13.1l1.2-2.4 8.2 4.1-1.1 2.2c36.2 19.2 63.1 53 72.6 93.4l6.1-1.2 1.8 9-6 1.2c1.3 7.6 2.1 15.4 2.1 23.4 0 39.7-16.5 75.5-43 101.4l9.6 10.2-6.7 6.3-9.8-10.4c-7.2 6.2-15 11.6-23.3 16.3 11 4.1 23.5 7.9 37.3 11.4 40.5-31.7 66.5-80.4 66.5-135.2 0-95.5-78.8-172.8-175.9-172.8-97.1 0-175.9 77.4-175.9 172.8 0 89.3 68.9 162.8 157.3 171.9l-4.7-29.2-1.3 6.8z"/><path fill="#98C21F" d="M1192.4 457.2c0-.7.1-1.3.2-2l-.2-1 .2.1c.5-5.1 2.3-10.1 5.4-15 2.1 0 5.2.1 8.9.4l11.6-59.2-112 72.5c20.4 28.4 51.1 49.1 86.7 57l4.5-22.8-3-18.7c-1.4-3.7-2.3-7.5-2.3-11.3zm-22.3-16.1c-2.5 0-4.6-2-4.6-4.6 0-2.5 2.1-4.6 4.6-4.6 2.5 0 4.6 2 4.6 4.6 0 2.6-2 4.6-4.6 4.6zm15.3-12.2c-2.5 0-4.6-2-4.6-4.6 0-2.5 2.1-4.6 4.6-4.6 2.5 0 4.6 2 4.6 4.6 0 2.5-2 4.6-4.6 4.6zM1163.6 241.6c-36.6 16.9-64.9 48.2-77.1 86.6l130.7 35.6-53.6-122.2zm-8.7 64.9c-2.5 0-4.6-2.1-4.6-4.6 0-2.6 2.1-4.6 4.6-4.6 2.5 0 4.6 2.1 4.6 4.6-.1 2.6-2.1 4.6-4.6 4.6zm21.4 26c-2.5 0-4.6-2.1-4.6-4.6 0-2.6 2.1-4.6 4.6-4.6 2.5 0 4.6 2.1 4.6 4.6 0 2.6-2.1 4.6-4.6 4.6zM1084.1 337c-2.7 10.8-4.2 22.1-4.2 33.7 0 27.4 8 52.9 21.6 74.6l112.6-72.9-130-35.4zm21.8 67.4c-2.5 0-4.6-2.1-4.6-4.6 0-2.5 2.1-4.6 4.6-4.6 2.6 0 4.6 2.1 4.6 4.6 0 2.6-2 4.6-4.6 4.6zm27.5-24.4c-2.5 0-4.6-2.1-4.6-4.6 0-2.5 2.1-4.6 4.6-4.6 2.5 0 4.6 2.1 4.6 4.6 0 2.5-2 4.6-4.6 4.6zM1366.6 338.4c-9.5-40.4-36.4-74.3-72.6-93.4l-60.5 119.5 133.1-26.1zm-89.4-16.6c2.6 0 4.6 2.1 4.6 4.6 0 2.5-2.1 4.6-4.6 4.6-2.5 0-4.6-2.1-4.6-4.6 0-2.5 2.1-4.6 4.6-4.6zM1285.7 241.1c-18.4-8.3-38.9-13.1-60.5-13.1-18.8 0-36.7 3.6-53.2 10l53.5 122 60.2-118.9zm-72.7 59.3c-2.6 0-4.6-2.1-4.6-4.6 0-2.5 2.1-4.6 4.6-4.6 2.5 0 4.6 2.1 4.6 4.6 0 2.6-2.1 4.6-4.6 4.6zm0-39.8c-2.6 0-4.6-2.1-4.6-4.6 0-2.5 2.1-4.6 4.6-4.6 2.5 0 4.6 2.1 4.6 4.6 0 2.6-2.1 4.6-4.6 4.6zM1216.2 440.5c13.2 1.3 28.2 4.3 29.9 10.8 0 16.2 19.1 31.2 51.3 43.3 8.3-4.7 16.1-10.2 23.3-16.3l-92.6-97.9-11.9 60.1zm24.3-23.9c2.5 0 4.6 2 4.6 4.6 0 2.5-2.1 4.6-4.6 4.6-2.6 0-4.6-2.1-4.6-4.6 0-2.5 2.1-4.6 4.6-4.6zM1327.5 472.1c26.6-25.9 43-61.7 43-101.4 0-8-.8-15.7-2.1-23.4l-134.1 26.3 93.2 98.5zm-25.8-76.9c2.5 0 4.6 2.1 4.6 4.6 0 2.5-2.1 4.6-4.6 4.6-2.5 0-4.6-2.1-4.6-4.6 0-2.5 2.1-4.6 4.6-4.6z"/><path fill="#DFEAB7" d="M1207 439.7c2.8.2 6 .4 9.2.7l11.8-60 92.6 97.9 9.8 10.4 6.7-6.3-9.6-10.2-93.2-98.5 134.1-26.3 6-1.2-1.8-9-6.1 1.2-133.1 26.1L1294 245l1.1-2.2-8.2-4.1-1.2 2.4-60.2 119L1172 238l-2.3-5.2-8.4 3.7 2.2 5.1 53.5 122.2-130.7-35.6-11.3-3.2-2.4 8.9 11.6 3.2 129.9 35.5-112.6 72.9-8.8 5.7 5 7.7 8.9-5.7 112.1-72.5-11.7 59zM1193.3 510l-1.7 8.2 9.1 1.8 1.3-6.6-4.3-26.2z"/><path fill="#DFEAB7" d="M1176.3 323.3c-2.5 0-4.6 2.1-4.6 4.6 0 2.5 2.1 4.6 4.6 4.6 2.5 0 4.6-2.1 4.6-4.6 0-2.5-2.1-4.6-4.6-4.6zM1154.9 297.3c-2.5 0-4.6 2.1-4.6 4.6 0 2.5 2.1 4.6 4.6 4.6 2.5 0 4.6-2.1 4.6-4.6-.1-2.5-2.1-4.6-4.6-4.6zM1213 251.5c-2.6 0-4.6 2.1-4.6 4.6 0 2.5 2.1 4.6 4.6 4.6 2.5 0 4.6-2.1 4.6-4.6 0-2.6-2.1-4.6-4.6-4.6zM1213 291.2c-2.6 0-4.6 2.1-4.6 4.6 0 2.5 2.1 4.6 4.6 4.6 2.5 0 4.6-2.1 4.6-4.6 0-2.5-2.1-4.6-4.6-4.6zM1133.4 370.8c-2.5 0-4.6 2.1-4.6 4.6 0 2.6 2.1 4.6 4.6 4.6 2.5 0 4.6-2.1 4.6-4.6 0-2.6-2-4.6-4.6-4.6zM1105.9 395.2c-2.5 0-4.6 2.1-4.6 4.6 0 2.5 2.1 4.6 4.6 4.6 2.6 0 4.6-2.1 4.6-4.6 0-2.5-2-4.6-4.6-4.6zM1185.4 419.7c-2.5 0-4.6 2-4.6 4.6 0 2.5 2.1 4.6 4.6 4.6 2.5 0 4.6-2 4.6-4.6 0-2.5-2-4.6-4.6-4.6zM1170.1 432c-2.5 0-4.6 2-4.6 4.6 0 2.5 2.1 4.6 4.6 4.6 2.5 0 4.6-2 4.6-4.6 0-2.6-2-4.6-4.6-4.6zM1240.5 425.8c2.5 0 4.6-2.1 4.6-4.6 0-2.6-2.1-4.6-4.6-4.6-2.6 0-4.6 2-4.6 4.6 0 2.6 2.1 4.6 4.6 4.6zM1301.7 404.4c2.5 0 4.6-2.1 4.6-4.6 0-2.5-2.1-4.6-4.6-4.6-2.5 0-4.6 2.1-4.6 4.6 0 2.6 2.1 4.6 4.6 4.6zM1277.2 331c2.6 0 4.6-2.1 4.6-4.6 0-2.5-2.1-4.6-4.6-4.6-2.5 0-4.6 2.1-4.6 4.6 0 2.5 2.1 4.6 4.6 4.6z"/><path fill="#C1DCF3" d="M1192.6 455.2c0-.3 0-.6.1-.9l-.2-.1.1 1z"/><path fill="#9DC9EC" d="M1246.1 451.3c-1.7-6.5-16.6-9.5-29.9-10.8-3.3-.3-6.4-.6-9.2-.7-3.7-.2-6.9-.3-8.9-.4-3.1 4.9-4.9 9.9-5.4 15 0 .3-.1.6-.1.9 0 .7-.2 1.3-.2 2 0 3.8.8 7.6 2.3 11.3 18.7 47.4 153.3 84.1 316.7 84.1h4l2.7-8.4 24.9 8c126.7-3.7 231.6-29.6 270.8-64.6 10.7-9.5 16.6-19.7 16.6-30.4 0-41.6-89.2-77-213.4-90 21.3-54.9 41.3-106.3 44.5-114.3 17-2.3 96.9-13.4 96.9-13.4 9-1.2 15.4-8.9 15.4-17.7 0-.8-.1-1.7-.2-2.5-1.3-9.8-10.4-16.6-20.2-15.3L1646.1 219c-6.4.9-11.9 5.2-14.2 11.2L1579.8 364c-22-1.4-44.9-2.2-68.4-2.2-35.9 0-70.5 1.8-102.7 5.1 1.5 5.5 1.8 11.1 1.4 16.5 31.2-3.6 65.5-5.6 101.4-5.6 21.4 0 42.3.7 62.2 2L1544 456l-16.5 42.4c-.3.8-.5 1.7-.7 2.5-1.9 8.5 2.5 17.4 10.9 20.6 9.2 3.6 19.6-1 23.2-10.2 0 0 1.4-3.5 3.7-9.6 3.7-9.5 9.9-25.5 17.5-45 8.4-21.7 18.5-47.6 28.6-73.6 97.3 10.9 166 37.2 166 68 0 40.5-118.8 73.4-265.4 73.4-67.9 0-129.9-7.1-176.8-18.7-13.8-3.4-26.3-7.2-37.3-11.4-32.1-11.9-51.1-26.9-51.1-43.1z"/><path fill="#98C21F" d="M1577 707.7c-10.2 3.8-42.2 5.5-75.6 6.1l-2.7 8.4-25-8c-34.3.2-63.7-.5-63.7-.5l56.1-2-1.7-.5 37.7-117.3c-37.2 1.3-73.4-3.4-101.1-17.3-65.6-32.8-134.2-20.9-134.2-20.9l75.1 569.4c193.8 83.5 274.9-8.9 274.9-8.9v-35.8l29.2 26.8s74.2-486 74.2-518.8c0-32.8 29.7-35.8 29.7-35.8s-44.8-20.9-107.4 9c-27 12.9-63.5 23.5-101.5 28.8l-38.6 119.9 74.6-2.6zm-113.3 38.7l92.4-6-92.4 6z"/><path fill="#B1CF5B" d="M1663.6 473.5c-23.5-9.9-51.8-14.9-81.5-16.7-7.6 19.5-13.8 35.5-17.5 45 78.4 1 158.8-3.1 99-28.3zM1544 456c-89.7 1.7-178.8 25-178.8 25l86.1 16.5s33.8 2.1 75.5 3.4c.2-.9.4-1.7.7-2.5L1544 456z"/><path fill="#FFFFFE" d="M1518.2 544.1l-2.7 8.4-13.2 41.2-37.7 117.3 1.7.5-56.1 2s29.4.6 63.7.5l25 8 2.7-8.4c33.3-.6 65.4-2.3 75.6-6.1l-74.5 2.7 38.6-119.9 11.3-35.2-9.4-3-25-8z"/><path fill="none" d="M1556.1 740.4l-92.4 6"/><path fill="#809673" d="M1343.9 1301.5c-8.9-3.9-27.7-1.2-36.3-4.6-.2 6.6-.8 13.5-1.5 20.2l.7 4.2s-.7-.4-1.9-1.2c-11.6-3.4-30.5.8-41.5-4.4-.6 7.4-2.4 16.3-2.1 23.7-27.1-.4-43.1-11.1-68.5-17.2 3.7 9.1 2.6 19.3 4.4 27.7 31.6 5.5 58.6 17.9 76.5 34.5 23-6.4 45.3-13.1 66.4-20.3-2.1 10-4.5 19.8-7.4 29.3 20.2-24.3 74.9-63 36.4-99.2-5.2-4.9-13.5-8.5-23.2-11.3.3 6-.3 12.1-2 18.6zM406.6 1401.3c20.6-24.9 58-41.6 100.8-41.6 59.8 0 109.1 32.6 116.7 74.7 22.4 2 45.2 3.7 68.3 4.9 13.9-38.3 68.3-66.9 133.5-66.9 3.6 0 7.2.2 10.8.3-6.3-3.4-13.1-9-20.5-17.2-15.9 33.8-56.6 11.1-74.8-14.3-11.3 15.1-34.5 17.8-57.8 11.2.2-.8.2-1.7.3-2.6-24.5 13.3-39.5 22.6-39.5 22.6l6.9-43.2c-15.4 63.5-186.3 1.3-199.1 29.5-36.8 10-47.2-14.5-40.9-32.1-10.4 2.6-21.6 5-32.7 6.5-35.9 18.6-59.1 33-59.1 33l6-37.5c-1.1-.6-1.9-1.3-2.9-2-26.4 6.4-46.2 20.6-41.6 52.7 3.6 25.5 26.9 36.6 53.9 41.2-5.1-13-9.6-26.6-13.7-41 27.1 7.9 55.7 15.2 85.4 21.8zm263.2 12.5c-7 0-12.8-7.1-12.8-15.9s5.7-15.9 12.8-15.9c7 0 12.7 7.1 12.7 15.9s-5.7 15.9-12.7 15.9zm41.4-44c4 0 7.2 4 7.2 8.9s-3.2 9-7.2 9-7.2-4-7.2-9c0-4.9 3.2-8.9 7.2-8.9zM652.2 1323.2l2.2-13.9c-.9.2-1.9.2-2.8.4.9 5 .9 9.4.6 13.5zM956.3 1432.2c21.7.3 39.6-.3 51.2-2.7 5.7-1.2 11-2.1 16.3-3.1 4.4-37.5 47-68.2 103.5-76.9-6.4-2.6-12.3-6.1-17.6-11.4-18.5 5.6-35.8 10.4-58.2 3.2-1.9 5-8.6 8.9-8.6 11.9 0 4.9-1.9 9-5.9 9-1.7 0-2.5-.8-3.8-2.1-21.4 6.5-51.4-11.5-63.2-31.8-.7 9.5-2.7 20.9-2.1 30.3-22.4-11.2-19.7.8-25.4-29.9-33-9.4-52.2 37.4-80.1 46.8 44.6 7.9 79.9 29.3 93.9 56.7zm25.6-53.4c7.1 0 12.7 7.1 12.7 15.9s-5.7 15.9-12.7 15.9c-7 0-12.7-7.1-12.7-15.9s5.7-15.9 12.7-15.9z"/><path fill="#8E5951" d="M507.4 1359.7c-42.8 0-80.2 16.7-100.8 41.6 67 14.9 140.1 26.1 217.5 33.1-7.6-42.2-56.9-74.7-116.7-74.7zM862.6 1375.6c-7.8 2.7-16.3 2.4-26-2.9-3.6-.2-7.1-.3-10.8-.3-65.2 0-119.6 28.6-133.5 66.9 37.4 2.1 75.5 3.2 114.4 3.2 51.8 0 102.5-1.9 151.6-5.5-.7-1.6-1.3-3.2-2.1-4.8-13.9-27.4-49.2-48.8-93.6-56.6zM1127.4 1349.5c-56.5 8.8-99.1 39.5-103.5 76.9-.2 1.5-.3 3-.4 4.6 90.9-9.8 175.3-25.7 250.2-46.4-18-16.6-45-29-76.5-34.5.1.7.2 1.5.4 2.2-23.4 1.8-49.3 5.7-70.2-2.8z"/><path fill="#6CAB36" d="M1377.8 1180.5c.1-27-15.6-43.2-37.3-51.9 2.3 11 3.7 22.1 4.1 33.6-20.2 7.2-40.2 13.7-60.2 20l21.6 135.1c.7-6.7 1.3-13.6 1.5-20.2 8.6 3.4 27.4.7 36.3 4.6 1.7-6.5 2.3-12.6 1.9-18.4-.9-15.6-9.2-28.6-24.2-38.4 32.2 1.7 96.5 48.9 92.5-17.7-1.8-.4-3.4-.8-5-1.3 12.3.2 25.1-.3 36.9-.8.7-3.5 1-6.8 1.1-9.9.9-35.7-37.8-48.6-69.2-34.7zM344.9 1206.8l19.1 6.4 8.2 1.1.9-1.5c-21.6-5.1-41.1-10.2-58.1-15-1.2-9-2-18.2-2-27.4v-1c-30.7 8.2-67.5 1.9-69.4 42.9 17.1-1.8 39.3 5.2 56.1 2.2-7.3 8-10.4 15-10.3 21-11.4 2.7-22.5 8.2-33.2 17.5 14.7 8.3 27.6 22.1 44.9 23.9-63.1 2.5-44.2 70.8 10.7 32.7 1.2 7.7 5 13.1 10.6 17 .9.7 1.8 1.4 2.9 2l19.6-121.8zM651.6 1309.7c.9-.2 1.9-.3 2.8-.4l4.7-29.3c-19.5 31-64.1 54-118.1 59.3-1.3 2.3-3.3 3.9-5.8 3.9-2.1 0-4-1.2-5.3-3-4.3.2-8.6.4-13 .4-39.7 0-75.8-9.5-103-25.1-12.8 6.1-24.7 12-35.4 17.6 11.1-1.5 22.3-3.8 32.7-6.5-6.3 17.6 4 42.1 40.9 32.1 12.8-28.2 183.7 34 199.1-29.5l1-6c.3-4.1.3-8.5-.6-13.5zM1090.2 1334.2c-60.9 0-113.4-22.3-137.9-54.5-22.2 35.6-77.5 60.9-142.4 60.9-29.5 0-56.9-5.3-80.2-14.3-17.4 8.5-32.9 16.6-45.9 23.6-.1.9-.1 1.7-.3 2.6 23.3 6.7 46.4 3.9 57.8-11.2 18.3 25.4 58.9 48.1 74.8 14.3 7.4 8.2 14.2 13.8 20.5 17.2 9.7 5.3 18.2 5.5 26 2.9 27.9-9.5 47.2-56.2 80.1-46.8 5.7 30.7 3.1 18.7 25.5 29.9-.6-9.5 1.5-20.8 2.2-30.3 11.8 20.4 42.2 38.3 63.5 31.8-1.6-1.6-2.7-4.1-2.7-6.9 0-5 3.2-9 7.2-9 3.9 0 7.1 4 7.2 8.9 2.9-3 5.4-6.9 7.3-11.9 22.4 7.2 38.4 2.4 56.8-3.2 5.2 5.3 11.2 8.8 17.6 11.4 21 8.4 46.8 4.6 70.2 2.8-.2-.7-.2-1.5-.4-2.2-1.7-8.4-.7-18.7-4.4-27.7 25.4 6.1 41.3 16.8 68.5 17.2-.4-7.4 1.5-16.3 2.1-23.7 11 5.2 29.9 1 41.5 4.4-7.4-4.5-36.3-21.7-76.1-41.4-24.3 32.5-77.1 55.2-138.5 55.2z"/><path fill="#B3525A" d="M373.2 1212.8l-.9 1.5 18.8 2.6c-6.2-1.4-12.1-2.7-17.9-4.1zM618.5 1252.2zM623.1 1252.7c-17.6 4.2-36.4 12.4-55.2 24.2-28.3 17.7-52.6 11.8-68.6 3.1-30.4 10.8-59.6 23.3-85.3 35.5 27.2 15.5 63.2 25.1 103 25.1 4.4 0 8.7-.2 13-.4-1.1-1.6-1.9-3.6-1.9-6 0-4.9 3.2-8.9 7.2-8.9s7.2 4 7.2 8.9c0 1.9-.6 3.6-1.4 5.1 54.1-5.4 98.6-28.3 118.1-59.3l3.9-24.3c-13.6-.9-26.9-1.9-40-3zM1090.2 1238.7s-31.9-6.4-70.1 19.1c-18.1 12-51.7 8.4-82.3 1.2-70.2 6.6-149.6 38.8-208.2 67.2 23.3 9 50.8 14.3 80.2 14.3 64.9 0 120.2-25.3 142.4-60.9 24.6 32.2 77 54.5 137.9 54.5 61.4 0 114.2-22.7 138.5-55.3-22.4-11.1-48.3-23-75.9-33.8-26.5 2.6-62.5-6.3-62.5-6.3z"/><path fill="#FFCD6D" d="M499.2 1280.4c-12.9-7-20.5-15.4-20.5-15.4h-57.3c-38.2 0-51-38.3-51-38.3 37.3 20.1 143.1 26.3 248.1 26.3-88.9-12-166-21.8-227.5-35.7l-18.8-2.8-8.2-1.2-19.1-6.4-19.5 121.7-6 37.5s23.2-14.4 59.1-33c10.8-5.6 22.6-11.3 35.4-17.3 25.8-12.3 55-24.6 85.3-35.4zM937.9 1259c-7.3-1.7-14.4-3.6-21.1-5.5-25.6 2.1-50.8 3.6-75.5 4.5l-75.9 25.3s-44.6 19.1-70.1-12.7c-4.8-6-10.5-10.6-16.9-14-5.1-.3-10.3-.6-15.4-.9l-3.9 24.3-4.7 29.3-2.2 13.9-1 6-6.9 43.2s15-9.3 39.5-22.6c12.9-7 28.5-15.1 45.9-23.6 58.6-28.4 138-60.6 208.2-67.2zM1191.4 1208.3c-1.2 2.3-4.2 8.3-12 23.9-4 8-14.3 11.6-26.5 12.8 27.5 10.9 53.4 22.7 75.9 33.8 39.8 19.7 68.7 36.9 76.1 41.4 1.2.7 1.9 1.2 1.9 1.2l-.7-4.2-21.6-135.1c-31.3 9.8-62.4 18.5-93.1 26.2z"/><path fill="#FFAF3A" d="M315 1197.8c17 4.8 36.5 9.9 58.1 15 5.8 1.4 11.7 3.2 17.9 4.5 61.5 13.9 138.6 23.7 227.5 35.7 2.1 0 4.3-.4 6.4-.4 15.2-3.4 29.4-3.7 41.7-.4 110-1.2 207-7.1 207-7.1l-31.9 12.7-.5.1c24.7-.9 49.9-2.4 75.5-4.5-24.5-7.2-43.1-14.8-43.1-14.8l-25.5-6.4c63.7 6.4 407.7-44.6 407.7-44.6l-63.7 19.1-.8 1.5c30.7-7.7 61.8-16.4 93.1-26.2 20-6.2 40-12.8 60.2-20-.4-11.4-1.9-22.6-4.1-33.6-7.6-36.9-25.1-71-50.9-101.6-85-101-259.3-164.2-460.6-164.2-284.4 0-515.1 126.7-515.9 306.5v1c0 9.5.8 18.6 1.9 27.7zm875.5-162.2c7.9 0 14.3 5.4 14.3 12s-6.4 11.9-14.3 11.9-14.3-5.3-14.3-11.9c0-6.6 6.4-12 14.3-12zm-114.6-108.3c7.9 0 14.3 5.3 14.3 11.9 0 6.6-6.4 12-14.3 12s-14.3-5.4-14.3-12c0-6.5 6.4-11.9 14.3-11.9zm-19.1 89.2c7.9 0 14.3 5.3 14.3 11.9 0 6.6-6.4 12-14.3 12s-14.3-5.4-14.3-12c-.1-6.6 6.4-11.9 14.3-11.9zm-146.5-57.3c7.9 0 14.3 5.3 14.3 11.9 0 6.6-6.4 12-14.3 12s-14.3-5.4-14.3-12c-.1-6.6 6.3-11.9 14.3-11.9zm-25.5-51c7.9 0 14.3 5.4 14.3 12s-6.4 11.9-14.3 11.9-14.3-5.3-14.3-11.9c0-6.6 6.4-12 14.3-12zm-108.3 127.4c7.9 0 14.3 5.4 14.3 12s-6.4 11.9-14.3 11.9-14.3-5.3-14.3-11.9c0-6.6 6.4-12 14.3-12zm-41.4-114.3c3.5 0 6.3 2.3 6.3 5.2 0 2.9-2.8 5.2-6.3 5.2-3.4 0-6.3-2.3-6.3-5.2 0-2.9 2.8-5.2 6.3-5.2zm-71.6 44.6c3.5 0 6.3 2.3 6.3 5.2 0 2.9-2.8 5.2-6.3 5.2s-6.3-2.3-6.3-5.2c0-2.9 2.9-5.2 6.3-5.2zm4.7 95.2c7.9 0 14.3 5.4 14.3 12s-6.4 12-14.3 12-14.3-5.4-14.3-12c0-6.7 6.4-12 14.3-12zm-95.5-101.9c7.9 0 14.3 5.3 14.3 11.9 0 6.6-6.4 12-14.3 12s-14.4-5.4-14.4-12 6.4-11.9 14.4-11.9zm-55.8 66.9c7.9 0 14.3 5.3 14.3 11.9 0 6.6-6.4 11.9-14.3 11.9s-14.3-5.3-14.3-11.9c0-6.6 6.4-11.9 14.3-11.9zm-57.2-47.5c3.5 0 6.3 2.3 6.3 5.2 0 2.9-2.8 5.2-6.3 5.2s-6.3-2.3-6.3-5.2c0-2.8 2.8-5.2 6.3-5.2zm-89.2 165.6c3.5 0 6.3 2.3 6.3 5.2 0 2.9-2.8 5.2-6.3 5.2s-6.3-2.3-6.3-5.2c0-2.8 2.8-5.2 6.3-5.2z"/><path fill="#FFAF3A" d="M663 1255.6c5.1.3 10.2.6 15.4.9-3.7-1.9-7.6-3.3-11.7-4.5-13.8.1-27.7.2-41.7.2-.6.1-1.2.3-1.8.4 13 1.2 26.3 2.2 39.8 3zM1273.6 1384.7c-74.9 20.7-159.3 36.5-250.2 46.4-21.4 2.3-43.1 4.3-65.1 5.9-49.1 3.6-99.8 5.5-151.6 5.5-38.8 0-77-1.1-114.4-3.2-23.1-1.3-45.9-2.9-68.3-4.9-77.4-7-150.5-18.2-217.5-33.1-29.7-6.6-58.2-13.9-85.4-21.8 4.1 14.3 8.6 28 13.7 41 .7 1.8 1.4 3.5 2.2 5.2 49.9 121.7 151 182.7 377.4 188.9 388.3 10.6 541-59.4 600.3-176 7.3-14.3 13.2-29.2 17.9-44.9 2.9-9.5 5.3-19.3 7.4-29.3-21.1 7.2-43.3 13.9-66.4 20.3z"/><path fill="#6CAB36" d="M370.4 1226.7s12.8 38.3 51 38.3h57.3s7.6 8.4 20.5 15.4c16.1 8.7 40.4 14.3 68.6-3.3 18.8-11.8 37.7-20.2 55.2-24.3.6-.1 1.2.1 1.8-.1-2.1 0-4.3.3-6.4.3-104.9 0-210.7-6.2-248-26.3z"/><path fill="#FFFFFE" d="M666.7 1252c-12.3-3.4-26.5-3.2-41.7.2 14 .1 27.9 0 41.7-.2z"/><path fill="#6CAB36" d="M678.4 1256.5c6.4 3.4 12.1 8 16.9 14 25.5 31.8 70.1 12.7 70.1 12.7l75.9-25.3.5-.2 31.9-12.8s-97 5.9-207 7c4.1 1.3 8 2.7 11.7 4.6zM1020.1 1257.8c38.2-25.5 70.1-19.1 70.1-19.1s35.9 9 62.6 6.4c12.2-1.2 22.5-4.8 26.5-12.8 7.8-15.6 10.8-21.6 12-23.9.7-1.5.8-1.5.8-1.5l63.7-19.1s-344 51-407.7 44.6l25.5 6.4s18.7 7.6 43.1 14.8c6.7 2 13.8 3.8 21.1 5.5 30.6 7.1 64.3 10.7 82.3-1.3z"/><path fill="#FFFFFE" d="M516.9 1049.9c7.9 0 14.3-5.3 14.3-11.9 0-6.6-6.4-11.9-14.3-11.9s-14.3 5.3-14.3 11.9c0 6.6 6.4 11.9 14.3 11.9zM572.7 983.1c7.9 0 14.3-5.4 14.3-12s-6.4-11.9-14.3-11.9-14.4 5.3-14.4 11.9c0 6.6 6.4 12 14.4 12zM776.5 1059.5c7.9 0 14.3-5.3 14.3-11.9 0-6.6-6.4-12-14.3-12s-14.3 5.4-14.3 12 6.4 11.9 14.3 11.9zM668.2 1085c7.9 0 14.3-5.4 14.3-12s-6.4-12-14.3-12-14.3 5.4-14.3 12 6.4 12 14.3 12zM1056.8 1040.4c7.9 0 14.3-5.4 14.3-12s-6.4-11.9-14.3-11.9-14.3 5.3-14.3 11.9c-.1 6.6 6.4 12 14.3 12zM1190.5 1059.5c7.9 0 14.3-5.3 14.3-11.9 0-6.6-6.4-12-14.3-12s-14.3 5.4-14.3 12 6.4 11.9 14.3 11.9zM1075.9 951.2c7.9 0 14.3-5.4 14.3-12s-6.4-11.9-14.3-11.9-14.3 5.3-14.3 11.9c0 6.6 6.4 12 14.3 12zM910.3 983.1c7.9 0 14.3-5.4 14.3-12s-6.4-11.9-14.3-11.9-14.3 5.3-14.3 11.9c-.1 6.6 6.3 12 14.3 12zM884.8 932.1c7.9 0 14.3-5.3 14.3-11.9 0-6.6-6.4-12-14.3-12s-14.3 5.4-14.3 12 6.4 11.9 14.3 11.9zM735.1 931.7c3.5 0 6.3-2.3 6.3-5.2 0-2.9-2.8-5.2-6.3-5.2-3.4 0-6.3 2.3-6.3 5.2 0 2.9 2.8 5.2 6.3 5.2zM663.5 976.3c3.5 0 6.3-2.3 6.3-5.2 0-2.9-2.8-5.2-6.3-5.2s-6.3 2.3-6.3 5.2c0 2.9 2.9 5.2 6.3 5.2zM459.7 989.1c3.5 0 6.3-2.3 6.3-5.2 0-2.9-2.8-5.2-6.3-5.2s-6.3 2.3-6.3 5.2c0 2.8 2.8 5.2 6.3 5.2zM370.5 1154.7c3.5 0 6.3-2.3 6.3-5.2 0-2.9-2.8-5.2-6.3-5.2s-6.3 2.3-6.3 5.2c0 2.8 2.8 5.2 6.3 5.2z"/><path fill="#FFCD6D" d="M981.9 1410.6c7.1 0 12.7-7.1 12.7-15.9s-5.7-15.9-12.7-15.9c-7 0-12.7 7.1-12.7 15.9s5.7 15.9 12.7 15.9zM669.8 1382c-7 0-12.8 7.1-12.8 15.9s5.7 15.9 12.8 15.9c7 0 12.7-7.1 12.7-15.9s-5.7-15.9-12.7-15.9zM704 1378.8c0 4.9 3.2 9 7.2 9s7.2-4 7.2-9c0-4.9-3.2-8.9-7.2-8.9-4-.1-7.2 3.9-7.2 8.9zM1045.6 1353.3c0-5-3.2-9-7.2-9s-7.2 4-7.2 9c0 2.8 1.1 5.2 2.7 6.9 1.2 1.2 2.7 2.1 4.4 2.1 4.1 0 7.3-4.1 7.3-9zM535.2 1325.2c-4 0-7.2 4-7.2 8.9 0 2.3.7 4.4 1.9 6 1.3 1.8 3.2 3 5.3 3 2.4 0 4.5-1.6 5.8-3.9.8-1.5 1.4-3.1 1.4-5.1 0-4.8-3.2-8.9-7.2-8.9z"/></svg>