<svg xmlns="http://www.w3.org/2000/svg" width="150" height="150" viewBox="0 0 150 150"><path fill="none" d="M89.104 142.541c.946.202.479-1.201.57-1.709-.501.295-1.517 1.524-.57 1.709zM102.528 138.562c-.509-.681-2.097.347-.965.653l.832-.537c-.295.294-.364.791.461.773-.012 0 .312-.329.312-.306.029-.755-.352-.784-.64-.583zM99.728 140.174c-.029-.468.15-1.346 0-1.316-1.582.115-1.502 1.518 0 1.316zM133.891 114.354c-1.813-.813-1.629.67-1.524 1.201.426-.266 3.209-.468 1.524-1.201zM89.288 138.338c-.461-.565-2.096-.312-1.373.97.104.174.357.641.508.751 1.853 1.576.986-1.577.865-1.721zM83.296 138.921c-.059-.052.317.242.427.306.427-.744 1.356-1.454 1.132-2.35-1.293.029-2.235 1.097-1.559 2.044zM85.067 140.122c-.895.404-.791 1.166-.709 1.727.23-.243 1.103-1.155 1.316-1.588.572-1.167-.71-1.433-.607-.139zM20.859 107.57l-.416-.255c-2.084-.01.445 1.646.416.255zM127.574 112.224c-.122.127-.589.421-.658.733-.127.543 1.662.773 2.021-.174.363-.964-.918-1.096-1.363-.559zM125.316 121.248c0 .537-.214 1.466.208 1.818.312-.214.964-.67 1.103-.883.317-.583-.052-1.385-1.311-.935zM80.225 140.035l.785-.809c-.387-.906-1.675.417-.785.809zM106.748 130.549c-.266.075-.751.733-.906.918-1.524 1.911 1.548 1.034 1.669.924.68-.479.121-2.124-.763-1.842zM113.879 126.912l-.987-.624c-1.104.317.478 1.357.987.624zM104.133 134.585c.636 1.207 2.067.952 2.858.814 1.172-.231 2.297-1.392 1.189-1.768-1.404-.466-4.347.377-4.047.954zM110.166 134.343c-.796-.11-1.253 1.812.139 2.217.987.253.612-2.137-.139-2.217zM92.452 140.994a9.774 9.774 0 0 1-.381-.255c-2.09-.016.434 1.64.381.255zM78.272 140.959c.266.277.825.809 1.079.89.734.294 1.698-.041 1.149-1.057-.657 0-1.807-.174-2.228.167zM31.65 125.11l-1.385-.692c.317.196.409 1.478 1.385.692zM33.174 125.832c-.652.809.485 2.015 2.003 1.778.105-.854-1.148-1.501-2.003-1.778zM20.634 109.839l.318-.288c.04-1.75-1.993.34-.318.288zM41.373 133.072c.398.895 1.686-.428.802-.814l-.802.814zM22.88 114.198c-1.305-.698-2.263.347-1.715 1.709.081.202.387.601.52.733.647.652 2.033.866 2.483-.266.421-1.107-.595-1.807-1.288-2.176zM22.205 117.697c-1.189-.376-1.051 1.091-.277 1.322 1.177.387 1.038-1.068.277-1.322zM28.44 118.338c.254.496 1.074.571 1.623.549.658.813 1.322 1.737 2.257.837.722-.733-1.155-1.582-2.269-1.611-.803-.606-2.171-.925-1.611.225zM65.207 137.934c.271.04.451-1.749-.618-2.125-.45-.173-1.836-1.553-1.201.283.265.71.508 1.611 1.819 1.842zM75.934 142.379c-.497.913-.872 2.062-.335 2.674.987 1.126 1.6-.826 2.033-1.761.692-1.513-1.126-2.004-1.698-.913zM66.956 138.95c-.058-.866-2.044-.122-2.125-.122-1.628.214-4.891.521-6.103.653.791 2.713 3.008.438 4.1.987 1.293.635 2.967.732 3.805-.636.387 1.282 1.126 2.229 2.073 2.685 0-.536-.041-2.038-.11-2.511-.104-.79-1.039-1.073-1.64-1.056zM64.912 143.84c-.323.612.387 1.062.832 1.051 1.304-.104-.191-2.257-.832-1.051zM55.201 135.463l-.773.802c.386.895 1.674-.404.773-.802z"/><path fill="none" d="M63.365 141.94c.266-1.247-1.374-1.016-1.755-.484 0 0 .017.323.127.484.144.295.381.601.635.745.381.733 1.392-.226.976-.676 0-.028.017-.069.017-.069zM54.162 138.361c-1.293.173-1.051 1.281-.497 1.472 1.091.37 2.523-.04 3.02-.739.479-.681-1.496-.855-2.523-.733zM131.73 117.027c1.062.087.503-.987.636-1.473-1.328-.368-2.87 1.346-.636 1.473zM14.364 67.524c.127.242.063.34.086.502.127-1.143.329-2.269.52-3.395-.797.751-1.16 1.819-.606 2.893zM19.687 42.374c.086.462-.675 1.438.618 1.772.525.145 1.212.306 1.842.341.364-.629.751-1.241 1.132-1.859-.867-.462-2.535-.451-3.592-.254zM133.705 105.11c-.854-.075-.403 1.287-.427 1.98.849.094.405-1.27.427-1.98zM34.912 26.565c-.82-.341-1.582-.722-2.275-.93-.635 1.265.312 1.363.907 1.438.837.104.981 1.045 1.536 1.634.629-.549 1.247-1.103 1.899-1.628-.652-.202-1.559-.364-2.067-.514zM17.089 51.04c.202.456.52.468.416.508.324-.046.728-.005 1.149.041.191-.468.398-.93.601-1.392-1.317-.093-2.57-.052-2.166.843zM14.525 63.211a1.51 1.51 0 0 0 .67-.832c.467-1.172-.3-2.482-1.634-1.588-.987.641-.427 1.819-.491 2.593.173.04.335.069.52.069-.387.289-.213.705.964.381.19-.052.398-.139.566-.202.017-.069.023-.139.035-.208-.214-.086-.439-.184-.63-.213zM16.823 54.851h-.294v2.471c-.785.052-4.064.542-2.482.82.756.15 1.524.213 2.315.219a60.83 60.83 0 0 1 1.923-5.773c-1.161.334-1.773 1.477-1.462 2.263zM18.914 46.606c.467.416 1.108.571 1.767.629.26-.514.473-1.051.745-1.553-1.433.069-3.529.017-2.512.924zM40.108 23.684c-.924-.104-2.206.658-1.646.843.427.162.872.306 1.316.456.502-.358.976-.745 1.49-1.091-.386-.063-.744-.167-1.16-.208zM117.62 30.307c-.058-.063-.168-.063-.242-.109.115.109.23.208.346.317-.035-.07-.04-.139-.104-.208zM117.313 27.379c-1.016-.502-2.32-.473-3.551-.358.63.508 1.236 1.039 1.848 1.57.791-.294 1.531-.605 1.703-1.212zM116.794 29.446c.012-.866-.49-.785-.785-.491.226.196.445.398.664.601l.121-.11zM103.302 19.781c.139-1.611-3.096-2.246-2.553-4.209.168-.572-1.293-.837-2.391-.675.376.773-1.079 1.576-.104 1.853 1.877.525 1.346 1.005.688 1.461 1.08.45 2.119.976 3.164 1.484.399.04.78.115 1.196.086zM62.666 10.642c.555 1.455-.202 3.06-.589 4.371 1.571-.346 3.17-.606 4.781-.832-.45-1.628-1.911-3.181-4.192-3.539zM72.978 13.24c.213-.294-.346-.953-.214-1.617-.438-.173-1.761-1.022-2.13-.981-1.657.219.19 1.339 1.04 1.795-.162.145-.225.329-.243.537-.375-.433-.936-.646-1.305.185-.041.064-.035.37-.012.624.803-.069 1.617-.081 2.431-.121.139-.105.283-.191.433-.422zM20.432 47.743c-.537-.041-.548.468-.491 1.028.162-.341.324-.681.491-1.022v-.006zM121.841 115.947c.525-.277.346-.773.012-1.016-.226.266-.468.514-.699.773.156.243.409.4.687.243zM52.972 132.697c0 .155 1.345.017 2.027.028 0-.006-.012-.012-.012-.012-.508-.185-1.022-.369-1.524-.56-.26.082-.468.232-.491.544zM102.476 134.105c1.057-1.103 2.587-2.332 2.293-4.255-.277-1.975 2.511-1.473 3.191-2.31-.242-.196-.508-.202-.768-.22-1.119.682-2.246 1.352-3.412 1.958-.502 1.554-1.033 3.124-1.304 4.827zM112.638 123.604c1.455-.953 3.597.127 4.186-1.605-.428.047-1.137-.109-1.859-.219-.751.634-1.542 1.223-2.327 1.824zM123.318 115.936c-.646 2.402 1.38 2.321 3.412 1.75.214-.924-.589-2.021-.675-2.979-.133-1.397-1.022-2.044-1.935-2.592-.618.802-1.218 1.61-1.87 2.384-.005.519.202 1.027 1.068 1.437zM134.369 95.925c.404.133 1.017-.618 1.074-.86-.67-.544-2.783.166-1.074.86zM130.536 101.727c-.18.364-.347.733-.531 1.098.565-.058.71-.625.531-1.098zM15.946 99.06c-.029.312.664.606.624.884-.167 1.27 1.085 2.482 2.229 1.801-.289-.722.081-1.299.583-1.905-.167-.363-.364-.71-.525-1.085-.965.068-1.976.259-2.911.305zM10.438 80.479c-.213-.202-2.003-1.264-1.108.561.335.67.814 1.229 1.178 1.888-.791-.063-1.564-.161-1.859-.306-1.051-.543-1.813.196-1.496.75-.294.202-.456.636-.133 1.144.439.704 1.496.226 1.339-.571 1.276.052 2.8.266 3.655-.231.185.023.387.023.589 0 .468-.075.67-.52.618-.906.208-.081.421-.162.635-.271a5.1 5.1 0 0 0 .653-.433c-.058-.456-.122-.906-.167-1.368-1.104-.14-2.548 1.176-3.904-.257zM12.655 73.124c-1.01.722.646.791 1.449.566.006-.266.035-.531.041-.797-.52-.04-1.225.052-1.49.231zM14.768 88.511c.104.335.456.763.802.918-1.449.52-2.817 1.484-4.25.699.508-.121.826-.434.762-1.155-.722 0-2.257-.155-2.662 0-.427.214-.924.67-1.01.987.722 0 1.946.341 2.8.18.479.641.82 1.281 1.022 1.495 1.235 1.322 2.777.813 4.307.468a57.591 57.591 0 0 1-.964-3.735c-.368.004-.738.073-.807.143zM12.337 69.475c.716-.15 1.345.341 1.934.913.046-.583.035-1.184.092-1.767-.467.421-1.679.271-2.026.854zM39.081 124.285s0-.006.005-.006c-.334-.249-.669-.491-.999-.745-.195.56.018 1.351.994.751zM44.317 130.064c.185-.266.479-.745.682-1.23a1.18 1.18 0 0 0 .595-.317c-.56-.312-1.091-.67-1.64-.993-.612.635-.606 2.164.363 2.54zM48.134 15.237c1.138-.035 1.138-1.201-.052-1.172-1.005.012-4.792-.762-3.447.733.785.872 2.483.468 3.499.439zM99.093 13.771c1.166.213 2.949-.347 3.712-1.253.606-.791-.341-1.709-1.64-1.801-.248.664-1.311.866-2.148 1.131-1.403.416-1.189 1.698.076 1.923zM120.882 32.247c0-.548-.058-2.032-.109-2.523-.156-1.167-2.229-1.293-2.119-.803.318 1.565 1.119 2.777 2.228 3.326zM137.574 55.93c.698.173 1.991.185 1.391-.993-1.305.139-3.446-1.697-3.47-.716-.028.982 1.138 1.467 2.079 1.709zM107.071 18.119c.531.167.561.9 1.386 1.212 1.294.52 1.952-1.149 3.354-.375.168-.773-.549-1.564-1.507-2.459-2.021.658-5.294 1.339-7.003 1.524.721.098 3.165-.11 3.77.098zM123.1 33.17c.375-.231 1.651-.889 1.789-1.253.318-.993-2.471-.675-2.99.075-.214.364-.619 2.258 1.201 1.178zM130.311 37.818c-.023-1.34-1.732-.427-.162.081-.052 0 .116-.069.162-.081zM127.319 38.552c.358-.324.243-1.363.133-1.975-.133-1.051-1.443-.872-1.894-.445-.075.069-.075.537 0 .612.266.393 1.358 1.392 1.761 1.808zM15.276 101.692c.797-1.011-.964-1.091-2.113-.797-.173.849.266 1.836.803 2.8.156.318 1.628 1.201 2.177 1.605-1.201 1.229 1.513 1.132 1.778.918-1.242-1.333 1.067-3.937-2.645-4.526zM70.686 5.278c-1.016-.566-2.021.664-1.016.93 1.258.34 1.622-.543 1.016-.93zM79.179 11.34c.145.041.56.225.854.34 1.322-.716-.71-1.646-1.518-1.865-.058.486-.329 1.219.664 1.525zM61.292 6.242c1.64.196 1.322-.271.347-.578-1.531-.444-1.79.417-.347.578zM94.819 8.217c-.254.052-.936.369-1.426.612 1.039-.052 2.27.572 3.141 1.507 1.213-1.172-.813-2.333-1.715-2.119z"/><path fill="none" d="M99.728 10.884a15.371 15.371 0 0 1 1.438-.167c-.49-1.103-2.258-1.028-3.551-.872-.255.693.906 1.351 2.113 1.039zM83.786 10.445c-.19.45.549.936 1.138 1.403-.243.976-.618 2.327.773 1.75.814-.335 1.108-.739 1.548-1.004 2.003 1.229 5.583 1.229 8.845.3.849-.243-.161-1.565-1.876-1.952-.502-.11-1.225 1.12-2.016 1.143-1.876.063-3.828-.37-5.646-.704.023-.266-.052-.468-.219-.358-1.652.97-1.889-2.246-2.547-.578zM84.433 5.307c.572-1.149-1.888-1.149-1.305 0 .324.664.965.664 1.305 0zM141.321 83.638c-.618.716.508 1.687.877 1.04.081-.162.405-2.553-.877-1.04zM142.297 63.072v-1.744a3.112 3.112 0 0 0-1.201-.11c-.416-.456-1.409-.854-2.078-1.201a44.956 44.956 0 0 0-.422 1.686c-.058.179-.294.675-.404 1.455-.052.572.89.451 1.767-.029.651.122 1.628-.091 2.338-.057zM56.327 7.737c-.404-.121-2.009-.086-.427.347.369.104 2.003.075.427-.347zM137.395 72.668c.289.797-.271 2.24.907 2.419 0-.854.346-3.608 0-3.983-1.046-1.19-1.12.94-.907 1.564zM136.95 77.085c-.682.549.231 2.274 1.057.86.162-.311-.762-.802-1.057-.86zM141.477 72.945c-1.241-.497-1.737 1.201-2.708 1.784h4.29c0-.687-.629-1.432-1.582-1.784zM145.663 65.104c-1.167-.041-4.1-.56-3.846.722.035.312 1.132.872 1.686 1.114-.179.012-.369.139-.52.491-.266.589-1.114 1.668-1.824 2.575a2.89 2.89 0 0 0-1.039.058c-1.074.306-1.017 2.587-.109 2.5 1.045-.098 2.673-.71 2.887-.976.34-.485 0-.924-.589-1.23.56-.698.906-1.697 1.523-2.257.347-.323.237-.82 0-1.062 1.952.594 2.31-1.224 1.831-1.935zM140.894 57.103c1.576-.133 1.051-1.253.797-1.975-.214-.52-1.374-.347-2.321-.295l.751 2.258c.166 0 .6.029.773.012zM135.975 99.129c-.063.45 1.709.664 2.032-.301.375-1.166-1.271-.998-1.628-.53-.087.109-.353.432-.404.831zM134.393 91.687c-.081.283-.139.571-.22.854.589.023 1.374.121 1.374.04-.098-.796-.704-1.033-1.154-.894zM143.59 58.055l.803.802c.883-.375-.405-1.697-.803-.802zM136.038 102.402c0 .531-.168 2.442 0 2.979.294.964 1.38 1.189 2.264.964 0-.56.173-2.471 0-2.979-.295-.964-1.364-1.218-2.264-.964zM136.038 109.256c.583-.012 1.646.156 1.622.029-.149-1.282-1.848-1.207-1.622-.029zM106.546 21.375c.121.947 2.072 1.293 2.714.438.884-1.125-1.247-1.38-2.136-1.738-.023.041-.578 1.121-.578 1.3zM8.965 58.765c-1.928.56-.826 2.76-.987 4.348 1.674-.075.889-2.922.987-4.348zM8.192 67.98l-.976-.641c-1.103.318.485 1.357.976.641zM9.906 97.125c-.398-.121-2.234.451-.993 1.057.577.266 1.333.347 1.876.722.307-.255.694-1.311-.883-1.779zM12.337 59.55c-.913-.15-1.08.722-.854 1.241.104.202.531.762.589.837 1.466-.294 2.078-1.772.265-2.078zM8.965 58.765l1.051-.214c-.3-.941-1.074-.86-1.051.214zM7.458 66.825c-.358-1.195.976-2.373.052-3.712-1.622.669-.329 2.471-.624 3.712h.572zM13.261 76.669c.774-.595-.15-2.748-.739-1.917-.883 1.184.185 2.351.739 1.917z"/><path fill="none" d="M136.598 70.33c.116.069.555.214 1.086.306.791.121.22-.999.271-1.432-.416-.11-1.068.04-1.449.294.022.254.018.514.04.768.029.024.012.046.052.064zM8.14 72.731c1.207.427 2.592.069 2.206-.854.294.167.601.191.837.093-.237-.347-2.344-3.326-1.813-1.479.139.468.317.803.537 1.045-1.016.138-1.951-.421-2.563-.941-.669 1.045-3.585 1.351-2.864 2.616 1.321-.023 2.378-.93 3.66-.48zM12.632 86.53c1.097-.069 1.784-2.679.589-1.616-.375.306-2.009.577-2.904.561-.733-.023-2.685-.15-1.668 1.847 1.177-.266 2.551-.67 3.983-.792zM8.7 90.699c-1.628 0-.531 1.415.11.121-.012.03-.087-.081-.11-.121zM9.358 87.801c-.179-.081-3.141-.323-1.241.722.848.507 2.026-.439 1.241-.722zM7.672 76.542c.572-.202 1.138-.468 1.351-1.27.058-.202-1.951-.289-2.708.397-.808.792.491 1.15 1.357.873zM10.703 78.367c-.213-.999-1.357-1.986-2.079-1.294.555.763 1.213 1.657 2.079 1.294zM8.261 80.15c.416.41 1.617-.819 1.189-1.229-.975-1.022-2.159.196-1.189 1.229zM12.828 50.959c2.713.693 1.207-.826.393-1.599.242-.214.421-.479.467-.618-.34-.283-.999-.243-1.391-.075-.572-.075-.606 1.039-.364 1.201.479.369.722 1.068.895 1.091zM19.069 37.31c.773-.589-.156-2.748-.728-1.951-.871 1.229.18 2.402.728 1.951zM26.627 27.934c-.999-.987-2.188.22-1.201 1.253.404.41 1.634-.832 1.201-1.253zM28.417 30.486c-.214.895 1.201.381 1.767.289 1.224-.173 1.386-2.148.843-1.986-1.138.288-2.344.571-2.61 1.697zM29.063 24.908c-.323.139-.675.456-.75.381 1.455 1.386 2.535-1.125.75-.381zM41.748 19.527c-.219-.266-.987-1.057-2.402-.993.156.606.381 2.483.762 2.662 1.64.831 2.657-.381 1.64-1.669zM29.981 21.173h2.032c-.051-.774-1.979-.774-2.032 0zM37.447 23.626c.104-.716-1.547-.34-2.402-.34-.109.693 1.53.318 2.402.34zM14.15 48.615c.404.872 1.675-.422.791-.809l-.791.809zM12.522 56.571a2.642 2.642 0 0 0-.589-.508c.479-.323.722-.797.953-1.311.133-.029.277-.041.387-.052.901-.041.936-1.386.052-1.444-.295-.387-.947-.675-1.201-.496-.133.086-.271.19-.433.3-.266-.023-.531-.046-.773-.023.19-.502-.075-1.218-.797-1.293-.901-.063-.433 1.247-.468 1.836.063 0 .387-.081.508-.081.035.012.063 0 .086 0 0 .173.058.398.243.693-.52.56-.907 1.126-.947 1.536-.133.081-.277.15-.41.266-.474.375-.474.803 0 1.167 1.183.958 2.615.288 3.389-.59z"/><path fill="none" d="M9.45 48.315c-.641-.041-.369 1.241-.56 1.859-.052.243-.011.936-.011 1.432 1.934.704.998-2.246.571-3.291zM12.603 45.884c-.317 1.201-.9 2.846 2.004 1.98 0-.138.063-.427 0-.502-.549-.572-.398-1.132.075-1.611v1.599c.543-.145.699-1.241.514-1.975a5.804 5.804 0 0 1 1.068-.56l-1.293.075a.404.404 0 0 0-.289-.179v.196L13.007 45c-.017-.427-.058-.872-.041-1.201-1.033-.52-1.328.456-1.062 1.201.087.203.433.601.699.884zM15.98 41.94c-.289.375-.122 1.565-.133 2.344 1.19-.028 1.115-1.899.133-2.344zM10.091 64.932c-.912.398.052 2.274-1.068 3.273.231.15 1.524.11 2.35.012.479-.052.773-.468.935-.67.895-1.207-.669-2.079-2.217-2.615z"/><path fill="#D85B26" d="M21.737 121.981v-.133a.193.193 0 0 1-.052.069c.028.023.04.053.052.064z"/><path fill="#D85B26" d="M146.685 79.117c.087-1.334.139-2.685.139-4.03l-2.534-.508c0-.346.011-1.016.052-1.241.127-1.167 1.2-1.392 2.252-1.028.017.3.08.479.179.595a71.769 71.769 0 0 0-.987-10.139c-.508.56-2.304.75-2.062-.133.289-1.039 1.392-1.08 1.911-.693a71.182 71.182 0 0 0-13.689-30.658c-.323-.225-.692-.427-.993-.669a2.17 2.17 0 0 1-.508-.664c-.958.017-2.107-.254-3.071-.196.19-.93 1.281-1.074 2.482-1.045a56.788 56.788 0 0 0-1.64-1.9c-.306.139-.751.104-1.229-.358.068.081.323-.15.605-.312a76.673 76.673 0 0 0-7.453-6.917c-1.242.75-2.731-.202-1.484-1.016.041-.023.075-.023.127-.035a77.45 77.45 0 0 0-2.922-2.142l-.842 1.507c-.226-1.438-3.037-.583-3.909-1.64-.751-.958.155-2.835-1.737-3.089-.537-.075-.977-.023-.913-.041-2.615 1.195-1.386-1.131-1.466-1.53.52.387 1.24.531 1.997.624-2.482-1.345-5.087-2.512-7.754-3.551.288.346.438.814.37 1.241h-1.629c.018-.294-.121-.826-.098-1.241-1.022.387-2.414-.531-2.627-1.334-.312.676-1.265 1.628-2.898.814-.67-.318-.416-1.016-.053-1.778a97.765 97.765 0 0 0-2.834-.705 2.357 2.357 0 0 1-1.527-.35 71.28 71.28 0 0 0-14.532-1.496c-5.179 0-10.231.578-15.092 1.617.058.456-.785.508-1.339.306a72.567 72.567 0 0 0-10.883 3.499c-.202 1.391-.733 2.916 1.403 3.66h-2.991c-.375-.693-.531-1.519-1.507-2.153.04-.063.092-.116.138-.167a70.696 70.696 0 0 0-9.982 5.675c-.098.173-.243.294-.404.306A71.568 71.568 0 0 0 19.763 30.14l.052.052c.658.704-.081.918-.745.826a81.305 81.305 0 0 0-3.366 4.688c.774-.012 1.415.139 1.132.699-.318.629-.589 1.357-1.265 1.478-.404.092-.889.179-1.397.231-.445.773-.901 1.536-1.328 2.321.97-.081 2.471.023 3.256.087.098.958-1.599.704-2.321.421-.895-.347-1.242.364-1.207.375-.052-.04-.109-.052-.162-.092a72.298 72.298 0 0 0-5.219 12.471c.041.052.063.15.098.231.196.987.953 1.842.474 2.31-.762.733-1.04.109-1.12-.624-.491 1.772-.936 3.545-1.276 5.381.075.202.127.387.127.572-.018.606-.214 1.201-.537 1.593-.075.52-.156 1.068-.237 1.6.098.548.012 2.153-.081 2.702a1.231 1.231 0 0 1-.289.369 71.297 71.297 0 0 0 .381 17.273c.467.173.86.485 1.137 1.017.485.889-.058 1.356-.699 1.651.11.629.231 1.287.375 1.922l.393.254c.012.271-.092.416-.231.497a71.931 71.931 0 0 0 1.178 4.544h.024c.71.306.6.722.242.936a71.069 71.069 0 0 0 1.334 3.943c.213-.22.537-.393 1.022-.393.346-.023.583.092.664.282 1.126-.335 2.177-.843 2.991-1.523.479-.428 1.923.266 2.062.306-.566 1.524-2.379 2.448-4.053 1.963.277.953.012 1.992-.866 2.327a3.17 3.17 0 0 1-.577.133c.416.976.849 1.934 1.305 2.875.647-.029 1.478.023 2.079.023 0 .444.531 1.564-.56 1.391a2.902 2.902 0 0 1-.987-.387 70.78 70.78 0 0 0 1.282 2.483c.196-.214.427-.388.618-.434 1.478-.404 3.147-.104 4.371 1.195-.947.809-2.95.052-4.63-.167.092.179.202.352.294.525.549-.358 2.177.08 2.927.334 1.057.358-.681 2.42.398 3.562a1.724 1.724 0 0 1-1.068-.23 65.955 65.955 0 0 0 2.055 2.962c.964.438 1.876 1.027 2.645 1.564a2.22 2.22 0 0 1-.964.635c.699.884 1.42 1.721 2.142 2.569.041-.017.081-.017.104-.04.098-.335.456-.682.987-.86a1.558 1.558 0 0 1-.508-.555c.116-.092.485-.393.595-.508.866-.952 2.188.37 1.778 1.039a3.131 3.131 0 0 1-.127.122c.456.207.67.589.352 1.004-.427.491-1.472.849-2.327.624-.081 0-.116-.052-.19-.069.416.474.831.9 1.253 1.339a2.035 2.035 0 0 1 1.264-.04c1.617.468 1.172 1.519 1.057 2.379.705.67 1.403 1.334 2.125 1.992-.058-.468.012-.965.295-1.126 1.547.479 1.224 1.483 1.114 2.326a71.371 71.371 0 0 0 7.615 5.601c.237-.127.629-.139 1.201.035.722.23 1.409.791 1.207 1.333h-.19c.75.434 1.501.89 2.269 1.294.606-.19 1.178.149 1.316.676a73.003 73.003 0 0 0 4.988 2.35c.381-.468.889-.884 1.247-1.086.087.254.266.999.277 1.675a76.37 76.37 0 0 0 5.612 1.945c-.063-.722.785-1.351 1.443-.67.37.382.318.809.116 1.115.231.063.444.127.658.179.115-.087.231-.168.271-.22.849-.819 4.203-1.097 3.124.347-.173.242-.427.404-.693.52a71.976 71.976 0 0 0 10.387 1.519c-.705-.849-1.091-1.986-.127-2.523.242-.127.45-.213.635-.213-.213-.439-.306-.999.167-1.588-.595-1.184.185-1.057.756-.601.173-.398.722-.583 1.08-.041.243.376.457 1.657-.52 1.114.052.705-.433 1.201-.889 1.571.231.56.19 1.547.156 2.367a79.61 79.61 0 0 0 3.897.115 65.62 65.62 0 0 0 4.434-.162c.018-.266.104-.433.347-.346.213.069.434.179.617.282a70.732 70.732 0 0 0 24.891-6.513c-.167-.75-.093-1.622 1.022-1.178.271.093.537.196.791.289a69.7 69.7 0 0 0 7.107-4.117 5.707 5.707 0 0 1-.63-.571c.347-.277 1.138-.226 1.79-.185.317-.243.658-.468.987-.71-.642-.023-1.334-.186-1.761-.243-1.519-.139-.566-2.251.467-2.546.814-.202 1.975-.052 2.361.872.191.393.266.704.283.958a70.338 70.338 0 0 0 4.151-3.389c.029-.053.041-.116.087-.18.179-.276.479-.479.797-.583a71.333 71.333 0 0 0 20.652-32.54c-.987-.029-2.177-.202-3.002-.89.063.647.225 1.288.496 1.9-1.103.282-1.951-.705-1.507-1.657.271-.606.254-1.265.22-1.935-.324-.121-.642-.254-.878-.474-.295-.266-.434-.462-.456-.605a1.753 1.753 0 0 1-.814-.722c-.502.127-1.062-.231-.739-1.017a.52.52 0 0 1 .312-.312c-.029-1.721 3.297-.37 4.336-.549a14.99 14.99 0 0 0-.745 2.367c.271.063.462.121.479.145.266.058.987 2.252-.508 1.443-.041-.012-.122-.023-.214-.063-.029.496-.052.964 0 1.443.109-.075.415-.444.415-.444.947.213 1.952.242 2.922.242a71.267 71.267 0 0 0 2.396-12.904c-.266-.716-.809-1.235-.364-1.923.191-.271.365-.37.532-.37zm-2.292-20.26l-.803-.802c.398-.895 1.686.427.803.802zm-2.703-3.729c.254.722.779 1.842-.797 1.975-.173.017-.606-.012-.773-.012l-.751-2.258c.947-.052 2.108-.225 2.321.295zm-2.725-.191c.601 1.178-.692 1.167-1.391.993-.941-.243-2.107-.728-2.079-1.709.024-.981 2.165.855 3.47.716zm-8.654-17.119c-.046.011-.214.081-.162.081-1.571-.508.138-1.42.162-.081zm-4.752-1.686c.45-.427 1.761-.606 1.894.445.11.612.226 1.651-.133 1.975-.403-.416-1.495-1.415-1.761-1.808-.076-.075-.076-.542 0-.612zm-3.661-4.139c.52-.75 3.309-1.068 2.99-.075-.138.364-1.414 1.022-1.789 1.253-1.819 1.079-1.414-.815-1.201-1.178zm-1.126-2.269c.052.491.109 1.975.109 2.523-1.108-.548-1.91-1.761-2.229-3.326-.108-.491 1.964-.364 2.12.803zm-10.467-13.228c.958.895 1.675 1.686 1.507 2.459-1.402-.773-2.061.895-3.354.375-.825-.312-.854-1.045-1.386-1.212-.605-.208-3.049 0-3.77-.098 1.709-.185 4.982-.866 7.003-1.524zm-1.045 5.317c-.642.854-2.593.508-2.714-.438 0-.179.555-1.259.578-1.299.889.358 3.02.612 2.136 1.737zm-8.095-11.096c1.299.092 2.246 1.01 1.64 1.801-.763.906-2.546 1.466-3.712 1.253-1.265-.225-1.479-1.507-.076-1.923.837-.265 1.9-.467 2.148-1.131-.307.011-1.172.115-1.438.167-1.207.312-2.367-.347-2.113-1.04 1.293-.155 3.061-.23 3.551.873zm-6.346-2.5c.901-.214 2.928.947 1.715 2.119-.871-.935-2.102-1.559-3.141-1.507.491-.243 1.172-.56 1.426-.612zm-8.486 2.805c.167-.109.242.093.219.358 1.818.334 3.771.768 5.646.704.791-.023 1.514-1.253 2.016-1.143 1.715.387 2.725 1.709 1.876 1.952-3.262.929-6.842.929-8.845-.3-.439.266-.733.669-1.548 1.004-1.392.578-1.017-.773-.773-1.75-.589-.467-1.328-.953-1.138-1.403.658-1.667.895 1.549 2.547.578zm-1.9-5.715c-.34.664-.98.664-1.305 0-.583-1.149 1.877-1.149 1.305 0zm-5.917 4.509c.808.219 2.84 1.149 1.518 1.865-.295-.115-.71-.3-.854-.34-.994-.307-.723-1.04-.664-1.525zm-7.83-4.538c.606.387.242 1.27-1.016.93-1.005-.266 0-1.496 1.016-.93zm-9.047.387c.976.306 1.293.774-.347.578-1.443-.162-1.184-1.023.347-.578zm-5.312 2.072c1.576.421-.058.451-.427.347-1.583-.433.023-.468.427-.347zm-8.245 6.328c1.189-.029 1.189 1.137.052 1.172-1.016.029-2.713.433-3.499-.438-1.345-1.496 2.442-.722 3.447-.734zm-6.334 5.462c1.017 1.288 0 2.5-1.64 1.668-.381-.179-.606-2.055-.762-2.662 1.415-.062 2.183.729 2.402.994zm-4.301 4.099c-.872-.023-2.511.352-2.402-.34.854 0 2.506-.375 2.402.34zm-5.433-2.453h-2.032c.052-.774 1.98-.774 2.032 0zm-1.83 9.601c-.566.092-1.98.606-1.767-.289.266-1.126 1.472-1.409 2.609-1.698.543-.161.382 1.814-.842 1.987zm-1.121-5.866c1.784-.745.705 1.767-.75.381.075.075.427-.242.75-.381zm-2.436 3.026c.433.421-.797 1.663-1.201 1.253-.987-1.034.202-2.241 1.201-1.253zm-8.285 7.425c.572-.797 1.501 1.362.728 1.951-.549.451-1.6-.722-.728-1.951zM15.98 41.94c.981.445 1.057 2.315-.133 2.344.012-.779-.155-1.968.133-2.344zm-3.014 1.86c-.017.329.023.773.041 1.201l1.674-.092v-.196a.404.404 0 0 1 .289.179l1.293-.075a5.804 5.804 0 0 0-1.068.56c.185.733.029 1.83-.514 1.975v-1.599c-.473.479-.624 1.039-.075 1.611.063.075 0 .364 0 .502-2.904.866-2.321-.779-2.004-1.98-.265-.283-.612-.682-.698-.884-.265-.746.029-1.722 1.062-1.202zm1.184 4.815l.791-.809c.884.387-.387 1.681-.791.809zm-1.853.052c.393-.167 1.051-.208 1.391.075-.046.138-.225.404-.467.618.814.773 2.321 2.292-.393 1.599-.173-.023-.416-.722-.895-1.091-.243-.162-.208-1.276.364-1.201zM8.89 50.174c.191-.618-.081-1.899.56-1.859.427 1.045 1.363 3.995-.571 3.291 0-.497-.041-1.189.011-1.432zm.243 5.82c.133-.115.277-.185.41-.266.04-.41.427-.976.947-1.536-.185-.294-.243-.52-.243-.693-.023 0-.052.012-.086 0-.122 0-.445.081-.508.081.035-.589-.433-1.9.468-1.836.722.075.987.791.797 1.293.242-.023.508 0 .773.023.162-.109.3-.213.433-.3.254-.179.906.109 1.201.496.883.058.849 1.403-.052 1.444-.11.011-.254.023-.387.052-.231.514-.474.987-.953 1.311.225.145.427.317.589.508-.774.877-2.206 1.547-3.389.589-.474-.364-.474-.791 0-1.166zm2.24 12.223c-.826.098-2.119.138-2.35-.012 1.12-.999.156-2.875 1.068-3.273 1.547.537 3.112 1.409 2.217 2.615-.162.202-.456.618-.935.67zm1.149 6.535c.589-.832 1.513 1.322.739 1.917-.554.434-1.622-.733-.739-1.917zm-.45-13.123c-.058-.075-.485-.635-.589-.837-.226-.52-.058-1.391.854-1.241 1.813.305 1.201 1.783-.265 2.078zm-3.107-2.864c-.023-1.074.75-1.155 1.051-.214l-1.051.214c-.098 1.426.687 4.272-.987 4.348.162-1.588-.941-3.788.987-4.348zm-.773 9.215c-.491.716-2.079-.323-.976-.641l.976.641zm-.682-4.867c.924 1.339-.41 2.517-.052 3.712h-.571c.294-1.241-.999-3.043.623-3.712zM4.479 73.211c-.722-1.265 2.194-1.57 2.864-2.616.612.52 1.547 1.08 2.563.941-.219-.243-.398-.578-.537-1.045-.531-1.847 1.576 1.132 1.813 1.479-.237.098-.543.075-.837-.093.387.924-.999 1.282-2.206.854-1.281-.45-2.338.457-3.66.48zm4.146 3.862c.722-.692 1.865.295 2.079 1.294-.867.363-1.525-.531-2.079-1.294zm-.364 3.077c-.97-1.033.214-2.251 1.189-1.229.427.41-.773 1.64-1.189 1.229zm-1.946-4.48c.756-.687 2.766-.6 2.708-.397-.213.802-.779 1.067-1.351 1.27-.866.276-2.165-.082-1.357-.873zm3.043 12.131c.785.283-.393 1.229-1.241.722-1.9-1.045 1.062-.803 1.241-.722zm.958-2.326c.895.017 2.529-.255 2.904-.561 1.195-1.062.508 1.547-.589 1.616-1.432.122-2.806.525-3.984.791-1.015-1.997.936-1.87 1.669-1.846zM8.7 90.699c.023.04.098.15.11.121-.642 1.294-1.738-.121-.11-.121zm2.09 8.204c-.543-.375-1.299-.456-1.876-.722-1.242-.605.595-1.178.993-1.057 1.576.469 1.189 1.525.883 1.779zm5.352 6.398c-.548-.404-2.021-1.287-2.177-1.605-.537-.964-.976-1.951-.803-2.8 1.149-.294 2.91-.214 2.113.797 3.712.589 1.403 3.192 2.645 4.526-.265.214-2.979.311-1.778-.918zm4.301 2.014l.416.255c.029 1.391-2.5-.265-.416-.255zm.191 2.524c-1.674.052.358-2.038.318-.288l-.318.288zm1.293 9.181c-.774-.231-.912-1.698.277-1.322.762.253.901 1.708-.277 1.322zm2.24-2.645c-.45 1.132-1.836.918-2.483.266-.133-.133-.438-.531-.52-.733-.548-1.362.41-2.407 1.715-1.709.694.368 1.71 1.068 1.288 2.176zm6.098 8.043l1.385.692c-.976.786-1.068-.496-1.385-.692zm2.055-4.694c-.936.9-1.599-.023-2.257-.837-.549.022-1.369-.053-1.623-.549-.56-1.149.808-.831 1.611-.226 1.114.03 2.991.878 2.269 1.612zm.854 6.108c.854.277 2.107.924 2.003 1.778-1.518.237-2.655-.969-2.003-1.778zm8.199 7.24l.802-.814c.884.387-.404 1.709-.802.814zm12.292 6.761c-.554-.19-.797-1.299.497-1.472 1.028-.122 3.002.052 2.523.732-.497.7-1.929 1.11-3.02.74zm.762-3.568l.773-.802c.902.398-.386 1.697-.773.802zm7.945 6.421c-.254-.145-.491-.45-.635-.745-.11-.161-.127-.484-.127-.484.381-.531 2.021-.763 1.755.484 0 0-.017.041-.017.069.415.45-.595 1.409-.976.676zm3.372 2.205c-.445.012-1.155-.438-.832-1.051.641-1.206 2.136.947.832 1.051zm.889-5.058c-.837 1.368-2.512 1.271-3.805.636-1.091-.549-3.309 1.726-4.1-.987 1.212-.133 4.475-.439 6.103-.653.081 0 2.067-.744 2.125.122.601-.018 1.536.266 1.64 1.057.069.473.11 1.975.11 2.511-.947-.457-1.686-1.404-2.073-2.686zm-2.044-4.024c1.068.376.889 2.165.618 2.125-1.311-.23-1.553-1.132-1.818-1.842-.636-1.836.75-.456 1.2-.283zm13.043 7.483c-.433.935-1.046 2.887-2.033 1.761-.537-.612-.162-1.761.335-2.674.572-1.091 2.39-.6 1.698.913zm1.72-1.443c-.254-.081-.813-.612-1.079-.89.421-.341 1.57-.167 2.229-.167.548 1.016-.416 1.351-1.15 1.057zm.873-1.814c-.89-.393.398-1.715.785-.809l-.785.809zm3.071-1.114c-.676-.947.266-2.015 1.559-2.044.225.896-.705 1.605-1.132 2.35-.11-.064-.486-.358-.427-.306zm2.379 1.34c-.214.433-1.086 1.345-1.316 1.588-.082-.561-.186-1.322.709-1.727-.104-1.294 1.178-1.028.607.139zm2.24-.953c-.723-1.281.912-1.535 1.373-.97.121.145.988 3.297-.865 1.721-.151-.111-.404-.578-.508-.751zm1.189 3.233c-.947-.185.068-1.414.57-1.709-.091.508.377 1.911-.57 1.709zm2.967-1.802s.41.283.381.255c.053 1.385-2.471-.271-.381-.255zm7.657-.565c-1.502.202-1.582-1.201 0-1.316.15-.03-.03.848 0 1.316zm3.128-.722c-.825.018-.756-.479-.461-.773l-.832.537c-1.132-.307.456-1.334.965-.653.288-.201.669-.173.641.584 0-.024-.324.305-.313.305zm4.135-4.053c-.791.138-2.223.393-2.858-.814-.3-.577 2.644-1.42 4.048-.953 1.107.376-.018 1.536-1.19 1.767zm-1.149-3.932c.155-.185.641-.843.906-.918.884-.282 1.443 1.363.763 1.842-.121.11-3.194.987-1.669-.924zm4.463 5.093c-1.392-.404-.935-2.327-.139-2.217.751.08 1.126 2.47.139 2.217zm2.587-10.272l.987.624c-.509.733-2.091-.307-.987-.624zm13.735-4.104c-.139.213-.791.669-1.103.883-.422-.353-.208-1.281-.208-1.818 1.259-.451 1.628.351 1.311.935zm2.31-9.401c-.358.947-2.147.717-2.021.174.069-.312.536-.606.658-.733.445-.537 1.726-.405 1.363.559zm3.429 2.772c-.133.485.427 1.56-.636 1.473-2.234-.128-.692-1.842.636-1.473-.104-.531-.289-2.015 1.524-1.201 1.686.733-1.097.935-1.524 1.201zm1.339-10.445c-.022.71.422 2.073-.427 1.98.024-.693-.427-2.055.427-1.98zm.664-9.185c-1.709-.693.404-1.403 1.074-.86-.057.242-.67.993-1.074.86zm-.196-3.384c-.958 3.188-2.199 6.241-3.637 9.186.179.474.034 1.04-.531 1.098a61.036 61.036 0 0 1-5.884 9.29c.912.548 1.802 1.194 1.935 2.592.086.959.889 2.056.675 2.979-2.032.571-4.059.652-3.412-1.75-.866-.409-1.073-.918-1.067-1.438-.128.15-.271.283-.398.434.334.242.514.738-.012 1.016-.277.156-.531 0-.688-.242-1.928 2.159-3.979 4.203-6.189 6.074.723.109 1.432.266 1.859.219-.589 1.732-2.73.652-4.186 1.605a62.728 62.728 0 0 1-5.445 3.718c.26.018.525.023.768.22-.681.837-3.469.335-3.191 2.31.294 1.923-1.236 3.152-2.293 4.255.271-1.703.803-3.273 1.305-4.826-8.486 4.439-18.123 6.985-28.366 6.985-7.171 0-14.03-1.293-20.427-3.551 0 0 .012.006.012.012-.682-.012-2.027.127-2.027-.028.023-.312.231-.462.491-.543-2.719-1.045-5.352-2.234-7.869-3.638a1.164 1.164 0 0 1-.595.317 7.117 7.117 0 0 1-.682 1.23c-.97-.376-.976-1.905-.364-2.541a64.48 64.48 0 0 1-4.867-3.244c-.005 0-.005.006-.005.006-.976.6-1.189-.191-.993-.751-8.054-6.189-14.527-14.308-18.707-23.695-.502.606-.872 1.184-.583 1.905-1.143.682-2.396-.531-2.229-1.801.041-.277-.652-.572-.624-.884.935-.046 1.946-.236 2.91-.306-.906-2.148-1.657-4.383-2.315-6.651-1.53.346-3.072.854-4.307-.468-.202-.214-.543-.854-1.022-1.495-.854.161-2.079-.18-2.8-.18.086-.317.583-.773 1.01-.987.404-.155 1.94 0 2.662 0 .063.722-.254 1.034-.762 1.155 1.432.785 2.8-.18 4.25-.699-.346-.155-.699-.583-.802-.918.069-.069.438-.139.808-.144a61.948 61.948 0 0 1-1.068-6.265 5.031 5.031 0 0 1-.653.433c-.213.109-.427.19-.635.271.052.387-.15.831-.618.906a2.521 2.521 0 0 1-.589 0c-.854.497-2.378.283-3.655.231.156.797-.9 1.275-1.339.571-.323-.508-.162-.941.133-1.144-.317-.554.445-1.293 1.496-.75.294.145 1.068.242 1.859.306-.364-.658-.843-1.218-1.178-1.888-.895-1.824.895-.763 1.108-.561 1.357 1.433 2.8.116 3.903.255a63.183 63.183 0 0 1-.294-5.849c0-.404.052-.797.058-1.195-.803.225-2.459.156-1.449-.566.266-.179.97-.271 1.49-.231.029-.837.069-1.674.127-2.505-.589-.572-1.218-1.062-1.934-.913.346-.583 1.559-.433 2.026-.854.017-.202.063-.393.086-.595-.023-.162.041-.26-.086-.502-.554-1.074-.19-2.142.606-2.893.058-.335.093-.67.15-.999-.167.063-.375.15-.566.202-1.178.323-1.351-.092-.964-.381a2.24 2.24 0 0 1-.52-.069c.063-.774-.497-1.952.491-2.593 1.334-.895 2.102.416 1.634 1.588a1.51 1.51 0 0 1-.67.832c.19.029.416.127.629.213.323-1.715.739-3.4 1.207-5.063a12.317 12.317 0 0 1-2.315-.219c-1.582-.277 1.697-.768 2.482-.82v-2.471h.294c-.312-.785.3-1.928 1.461-2.263.133-.329.231-.67.369-.999-.421-.046-.825-.086-1.149-.041.104-.04-.213-.052-.416-.508-.404-.895.849-.936 2.165-.843.214-.485.462-.947.687-1.426-.058-.56-.046-1.068.491-1.028v.006c.087-.167.162-.347.249-.514-.658-.058-1.299-.214-1.767-.629-1.016-.907 1.08-.854 2.511-.924.225-.41.491-.791.722-1.195-.629-.035-1.316-.196-1.842-.341-1.293-.334-.531-1.311-.618-1.772 1.057-.196 2.725-.208 3.591.254a61.593 61.593 0 0 1 11.801-13.92c-.554-.589-.699-1.53-1.536-1.634-.595-.075-1.542-.173-.907-1.438.693.208 1.455.589 2.275.93.508.15 1.415.312 2.067.514.907-.733 1.854-1.415 2.8-2.096-.444-.15-.889-.294-1.316-.456-.56-.185.722-.947 1.646-.843.416.041.774.145 1.161.208 6.218-4.174 13.256-7.206 20.808-8.88.387-1.311 1.144-2.916.589-4.371 2.281.358 3.742 1.911 4.192 3.539 1.08-.15 2.159-.3 3.256-.398-.023-.254-.029-.56.012-.624.369-.831.929-.618 1.305-.185.018-.208.081-.393.243-.537-.849-.456-2.696-1.576-1.04-1.795.37-.041 1.692.808 2.13.981-.132.664.427 1.322.214 1.617-.15.231-.294.317-.433.421.958-.046 1.899-.144 2.87-.144 8.336 0 16.282 1.68 23.528 4.694.658-.456 1.189-.936-.688-1.461-.976-.277.479-1.08.104-1.853 1.098-.162 2.559.104 2.391.675-.543 1.963 2.691 2.598 2.553 4.209-.416.029-.797-.046-1.195-.086 4.162 2.021 8.083 4.457 11.656 7.327 1.23-.115 2.535-.145 3.551.358-.173.606-.912.918-1.703 1.212.133.116.266.243.398.364.295-.294.797-.375.785.491 0 0-.062.058-.121.11.236.213.474.427.705.641.074.046.185.046.242.109.063.069.069.139.104.208 10.497 10.011 17.448 23.678 18.782 38.984.381-.254 1.033-.404 1.449-.294-.052.433.52 1.553-.271 1.432-.531-.092-.97-.237-1.086-.306-.04-.017-.022-.04-.052-.063.11 1.53.231 3.06.231 4.619 0 5.832-.866 11.455-2.385 16.801.45-.139 1.057.099 1.154.895-.001.081-.786-.017-1.375-.04zm1.865 16.715c-.226-1.178 1.473-1.253 1.622.029.024.127-1.039-.041-1.622-.029zm2.264-2.91c-.884.226-1.97 0-2.264-.964-.168-.537 0-2.448 0-2.979.9-.254 1.969 0 2.264.965.173.507 0 2.418 0 2.978zm-.295-7.518c-.323.965-2.096.751-2.032.301.052-.398.317-.722.404-.831.357-.468 2.003-.636 1.628.53zm-1.057-21.743c.295.058 1.219.549 1.057.86-.825 1.414-1.738-.311-1.057-.86zm1.352-1.998c-1.179-.179-.618-1.622-.907-2.419-.213-.624-.139-2.754.907-1.564.345.375 0 3.129 0 3.983zm-.111-11.928c.11-.779.347-1.276.404-1.455.081-.37.347-1.432.422-1.686.669.346 1.662.745 2.078 1.201.381-.04.785-.011 1.201.11v1.744c-.71-.035-1.687.179-2.339.058-.876.478-1.817.599-1.766.028zm4.007 21.519c-.369.646-1.495-.324-.877-1.04 1.282-1.513.958.878.877 1.04zm-3.429-9.949c.971-.583 1.467-2.281 2.708-1.784.953.352 1.582 1.097 1.582 1.784h-4.29zm5.063-6.628c-.617.56-.964 1.559-1.523 2.257.589.306.929.745.589 1.23-.214.266-1.842.877-2.887.976-.907.087-.965-2.194.109-2.5a2.913 2.913 0 0 1 1.039-.058c.71-.906 1.559-1.986 1.824-2.575.15-.353.341-.479.52-.491-.554-.242-1.65-.802-1.686-1.114-.254-1.282 2.679-.762 3.846-.722.479.71.121 2.529-1.831 1.934.237.243.347.74 0 1.063z"/><path fill="#713F31" d="M74.75 56.837c-1.259.675-2.448-.641-3.054.675 1.495-.433 2.991 1.218 3.054-.675zM86.472 129.412c-.133.028-.226.052-.37.08l.266-.063c-2.685.387-5.202 1.253-8.551 1.253l-.242.053-.596.201 2.01-.179-2.304.242c-.872-.04.317-.121-.687-.173-1.097.052-2.558.093-.935.202-.531.023-2.003-.109-2.991-.069l-.624.052.624-.052c.427-.04-2.079-.277-2.552-.375.306-.063 2.927.173 4.342.04l.543-.052-.543.052-.266.046c3.471-.127.375.266 3.765.087l.214-.022.098-.053h.145c1.617-.266 1.541-.254 3.313-.681l-1.737.236c.456-.226-1.281.04-2.569.145l1.126-.317c.773 0 2.766-.156 2.702-.202-.427.121 2.656-.035 4.267-.479-.185-.104-3.632.618-2.13.081-1.34.369-1.554.145-2.974.363 1.368-.219.328-.219 1.327-.415l-2.338.254c-.052-.029 3.406-.416 1.466-.404-.935.167-3.446.294-3.469.456l-.064-.052c-1.767-.012-.779.219-2.95.133-.017.063.398.133 1.172.121.664-.058.762-.093 2.108-.202.617.109-1.623.069-.688.23.473.116 3.574-.403 2.586-.086l-1.761.149c-.028.174-1.311.186-1.282.295-1.103.052-2.113-.121-3.239.012-.45.086.352.294-1.496.173-1.415-.387-5.652-.641-7.182-1.062l-1.386-.19c.104.104 2.61.52 1.709.456l-2.142-.393.19-.022c-.71-.18-1.46-.202-2.09-.358.669.075 2.206.381 1.928.179-.993-.236-1.137-.266-2.032-.52l-.589-.139.589.139c.19.052.358.099.346.069-1.951-.664-1.951-.427-2.459-.52-2.055-.416 1.952.791 1.657.884-1.934-.646-3.949-1.028-5.826-1.859.508.161 1.004.323.86.185-1.369-.658 0-.127-1.929-.936.081.214-2.529-.785-3.874-1.472-.554-.41-.681-.491.658.219-.098-.202-1.899-1.12-2.523-1.472-.387-.19-1.016-.509-1.443-.693.508.353.213.323-.947-.294l-.069-.012c1.842 1.068 4.706 2.898 6.033 3.291l-.393-.104c2.292 1.056 5.098 1.979 6.138 2.459-.127.052.479.162.404.295l1.79.427-.375-.034c1.016.266 1.992.652 3.031.797l-.092.017c1.513.174 2.673.277 3.608.37 0-.058-.081-.093.398-.058.497.086.872.138 1.207.167h.341c.086-.029.063-.081.595-.029.491 0 .75.018.213.029l.508.052c.179.081-.352.046-1.207-.052h-.451c.756.109 1.253.236 2.188.375l-2.887-.3c-.254.075-.041.271 1.391.485-.589-.069-.86 0-.133.08.093-.012 1.923.121 1.224-.028 2.754.282 7.298.831 11.478.109-3.002.404 2.448-.081-.924.266 2.379-.069 2.033-.266 4.382-.624.215.023-1.275.243-1.818.37 3.961-.497 6.576-1.403 10.26-2.512l.202.081c.71-.19 1.455-.497 2.229-.843-1.186.143-2.492.363-7.502 1.645zm-26.45-.491c.393.104.935.266 1.495.369-.56-.092-.826-.074-1.495-.369zm25.981.773c.509-.058 1.715-.323 1.912-.352-.561.352-1.201.225-1.912.352zm5.053-1.287l.277-.052-1.548.49 1.271-.438zM79.484 59.885c-3.002.346-4.878-.167-7.118.681 1.9-.202 5.601.734 7.118-.681zM116.286 111.6c-1.016 1.144-.716.93-.826 1.155l1.012-1.229c-.145.131-.226.201-.186.074zM101.165 58.534v5.075c11.865-3.072 7.984 13.117-.352 9.821-.053 1.75.219 3.817-.33 5.07 15.105 3.222 18.032-23.852.682-19.966z"/><path fill="#713F31" d="M101.165 71.063c2.702-1.028 6.108-1.345 6.092-5.092-1.819-1.114-4.811-1.132-6.443.352.796.924.126 3.256.351 4.74zM122.729 104.03c-2.915 3.742-4.977 6.242-.617-.173l.213-.456c-.484.9-1.553 2.269-2.431 3.649-.537 1.252-3.02 4.803-2.968 4.82.387-.323.751-.906 1.34-1.547l-.301.213c1.849-2.002 3.269-4.369 4.764-6.506zM40.114 118.754l.872.467.433.439 1.484.854c-.34-.364-1.472-1.108-2.182-1.681-.081-.011-2.402-1.767-3.101-2.229L39 117.87l.341.335-.341-.335c-.832-.704-2.702-2.177-3.424-2.922-.104.075 1.409 1.571 1.738 1.611.116.242-1.761-1.346-.641-.254-1.496-1.103-3.378-3.378-4.302-4.354l-.023-.295c-.889-1.2-.808-.629-1.819-2.084 1.375 1.687-.069-.416 1.011.924-.294-.479.139-.15-.93-1.467-1.074-1.004-1.074-1.483-1.952-2.5-.427-.802.641.733-.289-.779-1.218-1.651-1.235-1.513-1.449-1.519.993 1.657 1.345 1.692 2.16 3.031l-1.946-2.453c.294.514.508.877.728 1.166-.381-.52-.699-.941-.999-1.293l-.474-.561c.958 1.495 1.813 2.817 1.905 3.095l-.196-.139c.243.583.97 1.334 1.311 1.669l-.416-.52c.145.167.439.496.52.623l-.104-.104c.999 1.27 2.078 2.431 2.217 2.777l-.444-.428c1.218 1.547 1.513 1.594 3.193 3.395-.162-.167-.243-.19-.243-.19 3.608 3.233 6.871 5.509 9.036 6.946-.323-.419-2.216-1.747-3.054-2.491zm-12.228-12.732c.317.479.601.773.906 1.253 0 .099.214.438.364.682-.549-.705-.889-1.397-1.27-1.935zm11.143 11.715l.86.652c.393.486-.676-.519-.86-.652zM113.798 114.476l-.225.179.831-.964c-1.167 1.2-.606.479-.647.409.088.15.791-.732 1.195-1.12l-1.004.751c.416-.456 1.564-1.432 1.229-1.328-1.858 1.859-2.621 2.529-4.284 4.238l.785-.577c-1.922 1.876-1.402.912-3.724 2.812-.86.964-3.701 2.575-3.626 2.8.266-.266-1.668.884-2.518 1.455-.912.71-3.983 2.31-3.008 1.929.843-.416 1.905-1.098 2.627-1.328l-1.588.86 1.12-.434c-.571.243-.468.312-.144.324l1.842-1.017 1.737-1.253c-1.161.693-1.992 1.045-.421-.058-.116.139.393-.087-.156.283 1.108-.612 3.516-2.067 2.783-1.842-1.808 1.386-.814.282-1.871 1.039.71-.571 1.483-1.011 2.165-1.559-.769.687.347.104 1.564-.832.503-.421 1.923-1.524 2.749-2.258-.393.15.316-.49-1.109.59a54.89 54.89 0 0 0 2.096-1.854c-.306.317-.854.883-.797.883.612-.433 1.225-1.033 1.6-1.316l.799-.812zm-11.617 8.735l1.629-1.068c.144.011-1.364.963-1.629 1.068zM79.484 52.432c1.133.773 3.118.722 3.725 2.026-.312.924-1.039 1.443-1.362 2.379 1.085-.958 2.252-1.842 3.049-3.049-1.594-.45-3.951-1.893-5.412-1.356zM70.339 55.139c1.547.069 4.192-.542 3.395-1.68-.046 1.189-1.126-.739-1.022.329.832.751-2.246.445-2.373 1.351z"/><path fill="#713F31" d="M99.139 48.038c-6.12-8.031-54.25-14.053-52.177 2.708 2.165 17.378 53.135 22.765 52.177-2.708zM61.2 42.281c9.988-.595 31.391.849 36.571 8.793-2.748 17.448-47.743 14.446-48.782-1.01-.341-5.34 6.466-7.465 12.211-7.783zM50.004 90.364c-23.377 23.487 73.736 27.934 45.739.335-9.752 13.436-35.375 10.41-45.739-.335z"/><path fill="#713F31" d="M68.653 53.459c-2.621 0-2.725 5.139 0 5.081.393-1.276-.86-3.106 0-5.081z"/><path fill="#713F31" d="M46.621 55.474c-8.972 23.609 18.678 50.923 43.36 37.939 10.301-5.422 9.504-21.265 8.805-35.226-10.3 13.638-42.887 10.809-52.165-2.713zM55.778 55.139c6.062-7.829 30.213-7.535 35.9 2.373 2.194-.953 3.609-2.708 5.081-4.399-9.376-10.289-32.263-10.364-45.739-5.762.376 3.822 1.831 6.535 4.758 7.788z"/><path fill="#713F31" d="M63.902 57.171c-.139.427-.427.693-1.022.682.012 1.247 2.298 1.98 3.048 1.362-1.484.133-.883-1.83-2.026-2.044zM63.561 55.826c1.432-.381 2.581-1.051 3.383-2.038-1.298-.849-4.064.913-3.383 2.038zM57.124 56.484c.681.018.439.941 1.351.687.133-1.051 1.161-1.322 0-2.032-.11.791-1.045.762-1.351 1.345zM124.393 98.823c-.145.611-1.144 2.441-1.051 2.644-.029.145.214-.242.45-.669l.854-1.536c-.012-.04.046-.145.109-.347-.306.537-.56.878-.53.601.958-1.281.421-1.362 1.172-2.887.092-.549-.854 1.697-1.004 2.194zM19.15 74.637c.012.428-.023.866-.017 1.288.057-.636.04-.953.017-1.288zM130.144 79.735l-.243 1.923c-.098-.133.37-4.054.012-2.327-.19 3.418-.606 4.901-1.074 8.123.382-.94.941-4.168 1.207-6.275-.121.877-.121 1.628-.23 2.344.276-1.951.554-4.059.722-6.322l-.063-.514a11.482 11.482 0 0 1-.191 2.419c-.022.145-.022.254-.022.254s0-.109.022-.254c.243-1.882-.022-3.436-.155-3.567v.375l-.058-.739-.053 1.772c.35-.976.05 3.025.126 2.788zM86.528 129.395l-.161.034.104-.017a.127.127 0 0 0 .057-.017zM129.109 86.744l-.028.162.242-1.08c-.04.145-.103.41-.214.918z"/><path fill="#713F31" d="M136.777 74.885c0-1.559-.121-3.089-.231-4.619-.022-.254-.018-.514-.04-.768-1.334-15.306-8.285-28.973-18.782-38.984-.115-.11-.23-.208-.346-.317-.231-.214-.469-.428-.705-.641a31.814 31.814 0 0 0-.664-.601c-.133-.121-.266-.248-.398-.364-.611-.531-1.218-1.062-1.848-1.57-3.573-2.87-7.494-5.306-11.656-7.327-1.045-.508-2.084-1.034-3.164-1.484a61.122 61.122 0 0 0-23.528-4.694c-.97 0-1.911.098-2.87.144-.814.041-1.628.052-2.431.121-1.097.099-2.177.249-3.256.398-1.611.226-3.21.485-4.781.832-7.552 1.674-14.59 4.706-20.808 8.88-.514.347-.987.733-1.49 1.091-.947.681-1.894 1.363-2.8 2.096-.652.525-1.27 1.08-1.899 1.628a61.61 61.61 0 0 0-11.801 13.92c-.381.618-.768 1.229-1.132 1.859-.231.404-.497.785-.722 1.195-.271.502-.485 1.039-.745 1.553-.086.167-.162.346-.249.514-.167.341-.329.681-.491 1.022-.225.479-.473.941-.687 1.426-.202.462-.41.924-.601 1.392-.138.329-.236.67-.369.999a61.212 61.212 0 0 0-1.923 5.773 59.476 59.476 0 0 0-1.207 5.063c-.012.069-.018.139-.035.208-.058.329-.092.664-.15.999-.19 1.125-.393 2.251-.52 3.395-.023.202-.069.393-.086.595-.058.583-.046 1.184-.092 1.767a71.659 71.659 0 0 0-.127 2.505c-.006.266-.035.531-.041.797-.006.398-.058.791-.058 1.195 0 1.974.115 3.92.294 5.849.046.462.109.912.167 1.368a61.948 61.948 0 0 0 1.068 6.265 58.74 58.74 0 0 0 .964 3.735c.658 2.269 1.409 4.503 2.315 6.651.162.375.358.722.525 1.085 4.18 9.388 10.653 17.506 18.707 23.695.329.254.664.496.999.745a64.48 64.48 0 0 0 4.867 3.244c.549.323 1.08.682 1.64.993 2.517 1.403 5.15 2.593 7.869 3.638.502.19 1.016.375 1.524.56 6.397 2.258 13.256 3.551 20.427 3.551 10.243 0 19.879-2.546 28.366-6.985 1.166-.606 2.293-1.276 3.412-1.958a62.506 62.506 0 0 0 5.445-3.718c.785-.601 1.576-1.189 2.326-1.824 2.211-1.871 4.262-3.915 6.189-6.074.231-.26.474-.508.699-.773.127-.15.271-.283.398-.434.652-.773 1.252-1.582 1.87-2.384a61.036 61.036 0 0 0 5.884-9.29c.185-.364.352-.733.531-1.098 1.438-2.944 2.679-5.998 3.637-9.186.081-.283.139-.571.22-.854 1.524-5.344 2.39-10.967 2.39-16.799zm-4.492-6.986c-.22-1.732-.127.624-.179.837.086.832.277 2.471.369 3.169l.139-.624c.214 1.611-.04 2.471-.087 3.805a20.545 20.545 0 0 1-.022-.854l-.093 1.322v-1.582l-.15 1.53c0-1.288.058-2.419-.04-3.574.052 1.166-.173 1.536-.115.75.052-1.75-.243-1.819-.341-3.141.058.762.15 1.709.012 1.097-.104-2.633-.139-3.343-.479-5.704-.156.323-.571-2.951-.825-3.257l.19 1.091-.67-2.251c-.416-2.13.722 1.801-.058-1.409-.843-2.939-.999-2.8-1.923-5.006.456.669 1.241 2.408 1.727 4.284l-.266-1.144c.225.589 1.021 3.147 1.305 4.463-.624-2.113.185 1.027.225 2.038.168.15-.127-1.242.295.393-.208-.976-.266-1.432-.393-2.125.628 2.566 1.038 2.688 1.379 5.892zM120.83 39.845c1.126 1.282 1.923 2.817 2.887 4.232-.058-.214 1.213 1.663 1.507 2.257-.415-.687-.52-.785-.49-.687l.236.473.664 1.242c.698 1.033 2.355 5.005 2.153 4.024.364.913.658 2.033 1.271 3.447v.191l.081.196c.167.364.347.693.398.802.202.739.214.947.185.976l.952 3.262c-.092-.139-.605-1.727-.415-.774l-.773-2.673.236.185-.583-1.778-.133-.254-.133-.294c-.375-.745-.682-1.345-.341-.254-.682-1.657-1.507-4.042-1.669-3.862.15.393.243.9.543 1.634-.993-2.494-1.663-3.014-2.725-5.289.635 1.027 2.771 4.844 1.783 2.575l-1.067-1.559c-.323-.733.294.37.479.641.029-.15-1.016-2.286-1.322-2.673.041.213.763 1.616.064.502-.878-1.409-1.906-2.748-2.864-4.111.317.433.306.254.358.294-.589-.947-.913-1.149-1.819-2.39.456.52.965.987 1.363 1.553-2.755-3.545-1.588-2.234-4.25-5.214l.081.041c-.987-1.016-2.748-2.829-3.741-3.672l.138-.087c-1.553-.97-.842-.808-3.105-2.569l.369.266c-1.379-1.137-.688-.658-.52-.687-2.049-1.836-2.789-1.559-4.977-3.279.15-.023-.584-.629-.341-.56.531.41 1.438 1.051 2.107 1.438.509.139-2.518-1.75-1.017-.941-.548-.393-1.039-.774-1.547-1.143 5.965 3.701 11.299 8.458 15.571 14.001 0 0 .029.012.162.145l.244.373zm-37.327-22.35c2.703.467 5.364 1.149 7.991 1.945.67.196 1.403.433 2.113.682.508.173 1.033.3 1.536.491.092.011.225.052.52.162l-.295-.069 3.314 1.374c2.084 1.097.063.214 2.869 1.75.145-.035-.173-.225-.561-.542l2.125 1.131-.189-.041 1.766.895c.884.722-4.33-2.165-1.258-.277-4.06-2.102-7.615-3.875-11.859-5.104l-.699-.202.699.202c.831.237.201-.052.052-.162 3.579 1.201 2.327.669 4.861 1.617-.335-.266-1.548-.762-2.881-1.224-.698-.249-1.403-.462-2.113-.682-.698-.202-1.322-.358-1.721-.41l1.316.456-1.443-.266c-.479-.156-.3-.179-.226-.179-.225.023-3.879-.786-6.367-1.276 1.599.133-1.72-.56.45-.271zm-8.81-.502l1.323.023-.335-.19c1.738-.035 1.952.127 2.136.277l1.189.144.49-.029.699.162-1.189-.133-.844.023a.877.877 0 0 1-.346-.167c-.601-.098-1.207-.046-1.801-.087l.034.041-1.356-.064-1.75-.041 1.75.041zm-4.943.11c-.444.063-.964.086-1.339.115.456-.064 1.362-.202 1.339-.115zm-3.048.253l-.133.341c-.456.052-2.35.52-2.408.404 1.045-.375.346.018 1.899-.352-.928.115-1.073-.086.642-.393zm-5.745 1.201l3.303-.658-2.073.612.456-.196c-.468.041-1.605.323-1.882.427l.196-.185zm-7.332 2.373zm-15.081 8.713zm-7.396 10.254c-.485.646-1.582 2.043-2.044 2.823l.571-.924-.029.069c.191-.496 1.069-1.431 1.502-1.968zm75.652-9.013c1.929 1.218 4.758 3.718 5.999 5.011.243.225.438.416.595.52-.156-.104-.352-.294-.595-.52-.785-.646-.918-.733-2.118-1.593.115.312-.088.029-.832-.439-.537-.589.335.185.479.185-.976-.895-2.056-1.628-1.952-1.386 2.102 1.842-.664-.444.416.624-.185.023-2.633-2.004-2.817-2.096.155-.213-.312-.86.825-.306zm3.615 4.111c.433.352.986.71.986.883-.299-.306-.466-.416-.986-.883zm8.741 70.791zm-24.083 19.699c.509-.312 1.848-.802 2.898-1.374.318.156-3.06 1.559-4.393 2.188l1.951-.976-.456.162zm-8.758 3.073c2.441-.572-1.293-.041.104-.428-.133.069.589.133 1.935-.254-2.31.612 1.149.069-2.039.682zm-24.394-.549l-1.201-.075.773.023.428.052zm-14.838-5.422c-.15-.149-.312-.294.687.237 1.167.75-.756-.376-.687-.237zm-15.317-13.522l.433.404.71.958-1.143-1.362zm.796 1.38l-.595-.577.167.075.428.502zM20.189 61.779c.023-.162.058-.306.109-.508 0 0 0 .017.012.017.231-.924.52-1.83.75-2.206-.577 1.859-.497 2.622-.953 4.914-.162-.595.508-2.91.202-2.708-.039.162-.074.318-.12.491-.167.913-.243 1.42-.294 2.113-.116-.058.041-1.045.294-2.113zm-1.426 3.539l-.254.976.294-1.576c-.109.56-.051.508-.04.6zm-.265-.063c.167-.231-.15 1.051-.127 1.587-.248.717.19-1.605.127-1.587zm1.103-6.034c-.116.317-.225.756-.294.987-.387 1.08.058-.566-.006-.618l.733-2.223.213-1.397c-.941 2.442-.139.173-.722 1.386.346-1.028 1.167-3.608 1.79-4.319l-.774 2.65.583-1.536.243.029.173-.404c-.225.6-.173.693-.335 1.16-.398.699-.722 1.888-1.259 3.487-.179 1.126-.398 1.363-.745 3.17-.374.613.428-2.106.4-2.372zm.646 4.458l-.19 1.305-.035.121.179-1.282.046-.144zm80.236 17.199c-.924 2.934-2.153 5.531-3.395 8.124 3.892.739 7.137 6.894 7.119 11.195-.047 19.566-62.754 16.495-62.997-3.741-.052-3.217 2.569-7.639 6.767-8.465-5.479-9.619-9.503-41.068 1.709-47.072 14.509-7.8 55.191-3.182 51.478 14.555 19.395-2.217 19.239 28.187-.681 25.404zm17.726 26.306l-.642 1.148c.752-.924.613-1.068 1.04-1.403-.398.566-.745 1.149-1.201 1.657-.214.174.232-.52.803-1.402zm-19.364-82.38c-.578-.317-1.23-.502-1.825-.756-.226-.179.993.289 1.126.3.162.127.294.22.699.456.184.104.409.214.75.404-.341-.19-.567-.3-.75-.404zM25.599 44.978c-.092.612-1.449 2.61-1.536 3.152l.895-1.593-1.351 2.737c.508-1.091-.156-.167-.583.808.092.266-.012.266-.56 1.83.081-.306-.266.3-.566 1.062-.156.306-.266.548-.347.739 1.207-2.904-.104-.774 1.23-3.701.052-.145.133-.283.214-.474-.081.191-.162.329-.214.474-.023.069-.012.081-.012.121.254-.438.987-1.709 1.293-2.407l-.029.179 1.566-2.927zm-5.918 48.608c.237.491.416.97.531 1.316-.178-.421-.583-1.166-.531-1.316zm19.129 26.94l-.531-.688c1.305 1.103.572.422 2.13 1.432.242.353-1.894-1.125-1.599-.744zm-4.169-4.163c2.142 1.842 3.182 2.512 5.398 4.163l.866.831c-2.442-1.911-3.562-2.448-6.264-4.994zm14.752 10.577l.306.081.958.508-1.264-.589zm38.62 4.463c1.092-.363.756-.456 2.598-.946-.074.115.428 0 2.367-.525-2.471.773-2.899.854-4.965 1.471zm6.576-2.06c.277-.063.832-.295 1.178-.422.351-.139-1.242.56-1.178.422zm23.008-15.561l.601-.813c.288-.457-.017.133.226-.122l-.827.935zm9.001-13.267l-.155.242.531-1.253.145-.242-.521 1.253zm5.289-16.455c-.052-.347-.236.427-.133-.773a51.306 51.306 0 0 0-.508 3.123c.484-2.113-.023.884-.023 1.311-.242 1.098-.052-.357.046-1.039-.213.866-.583 1.871-.502 2.402-.133 0 .19-2.523.479-4.14l-.243 1.091c.087-.773.139-.906.364-1.992-.312 1.051-.387.93-.41.658.035-.127 0 .093.046-.022.22-.872.295-1.548.191-1.369-.023-.797-.289 1.195-.531 1.772l-.231 1.322c-.104 1.542-.254 3.078-.601 4.591l.196-.745c.19-.831.271-1.542.67-3.089-.353 2.575-.087 1.674-.329 3.204l.156-.56c.139-.277-.156.75-.214.964.109-.618-.295.762-.242.369l-.745 2.876.058-.595.45-2.425c-.548 1.894-.843 2.742-1.466 4.087l-.029.428c-.676 1.564-1.351 3.025-1.097 1.975-.45 1.144-.728 1.865-.745 1.951 1.011-2.962-.19-.254-.214-.843-.335.987-.854 1.888-1.311 2.835.965-1.634.104.012-.185.624-.22.098-1.166 2.251-1.79 3.141l.023-.081c-.618.831-1.605 2.298-2.298 3.372.069-.029-.612 1.461-1.068 2.136 1.415-1.674.641-.641.831-.698l.053-.052-.053.052c-.121.179-.403.479-.427.525-.162.254.317-.301.398-.323 1.281-1.952 2.615-3.955 2.99-4.845-.479.543-.611 1.051-1.12 1.675.561-1.011 1.415-2.217 2.31-3.949l.398-.485.872-1.749.485-.947-.485.947c-.323.751.012.381-.936 2.177.214-.173.936-1.784 1.576-2.881l.121-.642c-.011.266 1.045-2.205.41-.403-.317 1.004-.837 1.899-1.281 2.834l.508-.704-1.241 2.333.225-.589c-1.945 3.753-.768.993-2.973 4.624-.636 1.184-1.3 2.472-3.089 4.4 1.178-1.473.028-.231.397-.85-1.304 1.421-1.599 2.016-2.199 2.824-.387.317-.687.52.438-.78-.029-.306-1.402 1.767-1.732 1.681-4.035 3.961-2.725 3.787-8.187 7.655l.155-.213c-3.463 2.459-5.629 3.608-9.127 5.369-.947.416-1.964.67-2.939.987.646-.266 2.292-1.114 1.449-.878 1.467-.335 2.807-1.224 4.312-1.847.115-.116-.49.149-.756.242.86-.456 1.357-.555 2.453-1.213-.057.023-1.339.589-.415.081l1.56-.803c1.928-1.322.773-.895 3.117-2.326a15.958 15.958 0 0 1-2.016 1.703c1.062-.67-1.367.958-.369.393 1.408-1.172 2.321-1.386 4.105-3.014l.375-.347-.375.347c-.214.185-.236.254-.693.629l2.777-2.102c-.71.479 2.137-1.94 1.75-1.882-2.795 2.431-1.992 1.697-5.33 4.289.918-.762 2.033-1.848 2.5-2.419l.104-.115-.104.115.191-.115c.393-.531-.156-.15-.318-.381-1.385 1.311-2.385 2.102-4.243 3.343-.294.347 1.229-.491 2.084-1.229-.479.45-1.045.813-1.576 1.206l.283-.271c-1.247.774-2.489 1.576-3.753 2.327.428-.283.611-.508.906-.722-.561.317-1.097.682-1.738.93.191.058.156.173-.404.474-2.881 1.483-4.561 2.147-5.738 2.384l-.363.139c.565-.052-2.016 1.103-2.928 1.6 0-.145-1.623.393-2.547.577-.433.306.277.358 1.433.156 2.05-.763 1.114-.509 2.026-1.08l3.205-1.432-.664.416c1.68-.531 3.082-1.519 3.042-1.276-.745.571-2.2 1.08-3.014 1.507l1.091-.363c-1.842.924-1.039.225-3.313 1.264.906-.19-.185.116-1.173.584.85-.202 4.082-1.663 3.482-1.155-1.16.635-4.163 1.368-5.785 1.992l.086-.041c-2.447.682-3.273 1.068-4.197 1.294h.069l-.202.04-1.131.289 1.131-.289.133-.04c-1.086.139-2.54.52-3.684.75v-.092l-1.634.242c.773-.179 1.923-.242 3.319-.531l-.189-.115c1.622-.156 2.684-.549 3.873-.987-1.766.555-5.115.964-5.508 1.328h-1.143l-.543.115c-.86-.052 0-.242 1.611-.508.288-.012.438-.012.34.028.751-.202 1.42-.444 3.233-.75l-.94.242c2.279-.335 4.254-1.027 4.977-1.374-3.182.947-6.409 1.455-9.486 1.842-.866.404-1.952.682-2.385 1.005-2.102.357-4.988.185-6.801.121l.162-.047c-.883-.028-1.715-.155-2.408-.167-.924-.179.67-.104.018-.202l-3.008-.214c.202-.109 2.725.133 3.915.254-.231-.017-.681-.04-.531 0 1.38.289 3.99-.04 4.602.174.681-.012-1.386.145.935.155 1.547.11 2.044-.132 2.194-.207.029-.018-2.407-.035-1.576-.139-1.201 0-1.68.104-3.21.017 1.189 0 2.806-.144 3.453-.028 2.32-.226 1.945-.646.877-.52.266.15-4.272.127-1.201.294-1.363.075-3.903.237-5.716.11l.092-.035-2.246-.185c.323-.023 1.005.018 1.028-.058l-3.124-.099c1.761.063-1.068-.219-1.819-.508-.346.052-1.576-.109-.427.185 1.27.347.762.093 1.934.323l-1.691-.179-.133-.04-1.04-.053c-2.275-.467 1.062-.132-1.876-.583l.341.277c-3.354-.803-7.471-2.431-9.688-3.383.669.167.999.098.202-.364l-.56-.289.56.289c.958.393 2.847 1.346 4.29 1.675.266.139-1.859-.307-3.314-1.04.571.693 3.874 1.282 3.96 1.582 3.932 1.34 3.02.658 6.415 1.548.075-.156.987.115 1.189.023-.958-.445-4.596-.844-6.703-1.721.213.063.635.173.733.173a31.251 31.251 0 0 0-3.291-.964l.138.052c-1.899-.555-1.091-.555-2.153-1.051-.41-.162-1.876-.831-1.697-.618l-1.854-.976.012.202c-1.051-.549-1.23-.773-2.217-1.218l-.121.127 2.592 1.42c-1.363-.606-.439-.034-1.911-.797 1.697.733-1.103-.698-1.201-.912l-1.103-.508.289.121c-.773-.543-1.039-.45-1.951-1.097 1.039.791 1.79 1.241 3.285 1.963-1.091-.52-3.285-1.542-3.736-1.952-1.097-.658-1.778-1.264-2.754-1.945l-.774-.531.774.531c1.922 1.229-.404-.825 3.314 1.848-.081-.029-.375-.242-.497-.335.364.571 2.367 1.397 3.274 1.802-.173-.214.75.254-.756-.642.491.295-1.484-.398-2.771-1.501l.375-.022-1.992-1.403.202.121c-.664-.641-2.188-1.38-3.366-2.593-.266-.155.214.301.404.509-.883-.693-.832-.803-.404-.509-.987-.663-4.422-3.781-3.095-2.269-.981-1.178-2.009-1.98-3.181-3.152l1.357 1.553c-1.813-1.634-1.265-1.195-2.771-2.437-.081-.214-.323-.589-.017-.323-2.136-2.482-4.711-6.339-5.837-7.904-1.201-1.98-1.016-2.482-2.621-5.288-.294-.606-.041.611-.774-1.421-.04-.127.913 1.859.029-.341-.762-1.523-1.501-3.688-2.159-5.79-.266-1.132-.86-3.055-.595-2.697.479 1.768 1.23 4.268 1.42 4.625-.179-.214.398 1.241-.167 0 .941 2.633.75 1.646 1.611 3.99.116.138-.323-1.253-.56-1.732.145-.069 1.917 4.503 1.293 2.379-.947-2.46-1.698-3.043-2.258-5.277.375.837.866 2.188 1.473 3.222l-.618-1.784-.612-1.241.052.087c-.733-3.269-1.125-2.887-1.928-5.774.202 1.732-.427-.306-.237.987-.427-1.98-.646-3.435-.467-3.487.866 3.661.213.19 1.125 3.528-.058-.572.41.733.035-1.271-.571-2.24-.023.71-.531-1.547l.023-.202c-.289-1.028-.185-1.219-.531-2.46l.092.283c-.139-1.576-.335-1.697-.346-3.072-.098.561-.202-.883-.375-1.737.098 1.392-.116 2.147.254 4.891.173.294.202.104.468 1.184l-.346-1.744.254 1.011v-.053l.052.214-.052-.161.266 1.686c-.479-2.107-.427-1.12-.705-2.003-.271-1.975-.231-1.629-.335-2.888.185.11-.138-3.845.104-6.114 0 .346 0 .814-.011 1.056.104 1.646.15-1.137.202-1.195l-.086-1.212c.012.225.058.542.086.029-.052-1.628-.19-1.536-.052-3.17.104-.115.104 1.276.266.266.104-.34.421-1.409.56-3.574-.029-.15.052-.71.156-1.334l.162-.912c.266-1.38.468-2.558-.011-.832-.254 1.23-.629 2.46-.733 3.73.144-1.686.398-2.743.826-4.394l-.029-.658c-.289 1.483-.854 3.516-.907 5.387-.058-2.321.427-4.625 1.12-7.829.508-1.443-.156.935.254-.081-.334.814-.467 1.94-.334 1.628.15-.716.294-1.242.41-1.68.098-.173-.115.791.127.156-.294.86-.693 2.864-.571 3.025.698-3.291.011.664.035.837-.035.081-.104.381-.185.71l-.162.912-.023.237.387-1.386c-.092 1.224-.572 2.402-.497 3.643l.133.122v-.069l.029.092-.029-.023c-.075.93-.156 2.229-.133 2.817.162-1.426.162-1.732.294-3.354.11-.19.081.936.052 1.097l-.052-.243c-.266 1.899-.266 2.858-.237 5.237 0 .358-.029.133-.058.069.15 1.923-.133 3.834.323 5.676l-.133-.601c.214 1.27.422 3.753 1.144 6.138l.058.022c-.023-.288.156.636.231 1.114h-.023c.289 1.219.624 2.373.964 3.273a11.492 11.492 0 0 0-.242-1.131c-.214-.347-.531-2.604-.635-2.27-.11-1.045-.56-2.673-.618-3.446.086 1.396-.266-.936-.347-1.189.052-.474-.196-2.044-.052-1.895v-.006.006c0 .186.011.832.104 1.276.266 1.443-.127-2.696.162-.878-.439-2.314-.249-5.381-.398-7.789l-.058 1.351c-.052-1.085.242-3.608.294-3.782-.052.786-.185 1.709-.185 2.72.081.058.214-2.431.312-2.518l.052-2.979-.15 1.293c-.081-.837.566-3.487.987-5.438.023 1.178-.693 2.938-.826 5.081-.052 1.519.306-.935.213.52.081-.375.156-1.311.191-1.773l-.035.064.035-.231v.167l.127-.554c-.075 1.288-.3 4.157-.37 6.062 0-.173 0-.3-.029-.352-.098.987-.058 1.986-.046 2.985.023.225.052 1.271.104 1.727.046-1.34.104-.254.127-1.098.087.872-.023 1.565.052 2.622-.012.542-.133-.456-.208-.335.156 1.067-.029 1.588.243 3.175-.167-2.118.231.537.369 1.259l-.023-.346c.162.641.237 1.2.237 1.668-.237-.837-.214-1.686-.317-1.432.029.577.132 1.138.306 1.761l-.202-.56.56 2.806c.191.404.456 1.126.67 1.473.041.692.427 1.576.618 2.177l-.109-.277c.289 1.212 1.051 3.886 1.305 4.041.11.924-2.385-5.86-.456.162.912 2.234.837 1.293 1.42 2.523l-.029.086c.393.976.485 1.051.901 1.796-.254-.571-.548-1.438-.71-1.691.213.266.814 2.026 1.305 2.685-.635-.854.872 1.824.433 1.166.773 1.935 2.113 3.735 2.823 4.562.583 1.316 1.316 2.102 2.702 3.926-.208-.277-.635-.756-.918-1.144-.924-.958 1.409 1.895.063.398.283.318.081-.028-.214-.357-.531-.595-.935-1.178-.883-.976.271.56.67 1.067 1.022 1.576l-.444-.497 1.64 2.355-.127-.317c1.975 2.65 4.7 5.347 6.957 7.194.589.156 5.716 4.272 7.904 5.196-.606-.19-.999-.202-.722.063l.254.179-.254-.179c-.433-.266-1.409-.745-2.373-1.443-.121-.156-1.293-1.051-.468-.571-2.748-1.819.266.387-.629-.035 3.002 2.119 5.012 2.904 7.079 3.892l.041.087 1.564.716c-1.247-.693-1.108-.803.525.028l-.213-.08c.912.479 2.95 1.212 4.428 1.87l1.097.202c1.519.491 1.519.733 1.992 1.039 2.414.849 3.938.803 5.733 1.086.635.306 3.47.664 3.042.704 1.738 0 1.686-.335 5.249.099l-1.028.104c3.765.133 9.082-.496 10.809-.688-1.323.595 4.682-.444 5.421-.329-.202-.028 1.16-.456 1.345-.56l-.317.04c.306-.063.376-.063.317-.04.312-.052.82-.15 1.328-.375-1.432.352.889-.652-1.778.276 1.294-.675 3.049-1.194 5.872-2.425l.012.145-2.281.884c.271.04-.936.398-1.414.583 4.354-1.368-.422.629 3.961-1.08.369-.248.115-.109 1.229-.601-.531.214-.583.353.288.012l.774-.438c1.599-.428-2.46 1.184-1.097.803-1.641.797-4.567 2.015-3.979 1.951 2.829-.987 2.391-1.328 5.317-2.396l.347-.063c.936-.56 1.045-.75 1.529-1.097.076.012.342-.093.977-.398a28.164 28.164 0 0 0 3.874-2.783c-3.175 2.252-3.401 1.964-6.005 3.291-.617.358-1.189.664-1.443.774.561-.307 1.027-.549 1.443-.774 1.017-.565 2.107-1.229 2.166-1.38l.04.15c1.327-.698 2.522-1.646 4.134-2.621l-.918.698c2.084-1.392 3.62-2.113 4.994-3.585-.561.427-1.005.779-1.334 1.073.977-.871 2.27-1.83 3.36-2.725l1.899-2.194c.041.081 1.369-1.201.814-.49 1.646-1.328 1.951-2.391 2.754-3.279 1.496-1.548-1.132 1.449-1.12 1.761 2.015-2.153 3.903-4.665 4.637-6.195-.353.485-.532.71-.566.67.099-.052.745-1.039 1.126-1.588l.185-.41c.67-.889.642-.728.162.075.664-.814 1.045-2.067 1.691-2.938-.687 1.686-2.066 3.527-2.558 4.33 2.09-3.13 2.264-3.043 4.457-7.321.069-.04-.173.763.202-.092.785-2.004.029-.601.19-1.271-.554 1.564-.993 2.205-1.57 2.968l.15-.416.081-.306-.081.306c.052-.04.577-.924.722-1.189l-.052-.317c.104.185.877-1.271 1.322-2.482-.63 1.143-.491.808-.814 1.062.508-1.762 1.039-1.79 1.524-3.776.052.173-.595 1.836.022.427.37-1.212.191-1.097.404-1.928-.149.964.023.762-.109 1.83-.785 2.113-.335.843-1.12 2.916l.854-1.687c-.722 1.784-.393 1.352-.404 1.53 1.443-3.002.722-2.396 1.415-4.382.19-1.017-.612 1.876-.237.317.601-1.889.041-.456.618-2.599l-.029.381c.271-.629.398-1.281.509-2.072.127-.843-.699.825-.012-2.604.012.161.04.242.04.242l-.115-.739c.554-3.938.86-5.393.849-8.88.04-.266.063.162.063.369.104-2.459-.173-6.125-.491-7.904.012-.779-.421-2.794-.155-2.061l-.266-1.224c.058-.139.202.976.283.987-.053-.346-.069-.479-.104-.548.19.548.202-.664.71 2.032-.058 1.08-.381-1.871-.508-1.207.173.889.242.762.289.849.161 1.131.052 1.12 0 1.062.127.433.161 1.899.323 2.488.225 2.24-.185-.11-.052 1.363l.3.831-.063 2.442c.058 3.545.52-.508.468 3.562-.063-.531-.438 1.085-.682 2.938.052-1.12.243-3.204.295-4.647-.196 2.044-.023-2.818-.243-1.767.087 1.01.156 2.679-.086 3.972-.104 1.201-.018 2.258-.295 3.996-.19.929-.214.75-.242.56-.127.814-.231 1.536-.277 1.524l.508 3.672c.878-3.533 1.623-7.679 1.836-11.911l.041-1.998.012.225.046-1.409-.023-.531-.098-.889v.145c-.133-.953-.295.046-.214 1.519l-.081-.474c.081.243.133 1.929.053 2.471-.029-1.235-.104.601-.174.786-.04-2.108.121-4.244-.173-6.34.028.081.109.236.161.797-.161-1.773-.323-1.426-.438-2.893l-.202-.935c-.052-.306-.226-.733-.353-1.23a53.255 53.255 0 0 0-3.065-8.187c-.803-1.697-1.899-5.438-2.726-6.576.382.531.023-.468-.669-1.697-.156-.243.034.202.133.444-.884-2.246-2.835-5.144-3.822-6.322l.773.832c-1.068-1.605-1.939-2.512-2.817-3.447l.347.283c-.646-.953-1.56-1.911-2.281-2.713l.606.589c.167.063-.606-.739-1.011-1.138-.56-.548-1.789-1.628-.843-.548l-1.022-1.12.174.306c-.283-.652-2.419-2.459-2.177-2.448.825.589.866.381 2.107 1.634.785 1.252 2.927 2.829 4.319 4.844.49.445.352.202 1.345 1.409-.376-.15-2.056-2.355-1.282-1.068.797 1.039 2.166 2.8 2.564 3.205-2.223-3.193.704.081-1.727-2.898.525.641 1.004.895 1.755 2.026 1.16 1.899-2.35-3.014.317 1.028l.485.219c.56.907 1.386 2.125 1.784 2.87l.219.387c.214.145-.456-1.172-.294-1.004-1.149-1.692-2.621-4.376-3.874-5.606l.428.56c-1.496-1.882-.723-.583-1.779-1.911l.197-.162c-.734-.866-1.571-1.83-2.16-2.361.375-.364 3.765 4.422 5.174 6.033.167.381.219.578.97 1.698.26-.289 2.165 3.222 2.996 4.908.358.773-.762-1.311-.433-.485.67 1.34 1.259 1.848 1.749 3.528-.086-.185-.063-.063-.145-.26 1.086 2.459.162.635.266 1.103 0 .075.058.179.11.375-.053-.196-.11-.3-.11-.375-.369-1.057-.929-2.246-1.333-3.02-.456-.577-1.109-1.795-1.762-3.02l-.028-.029-.19-.358c-.693-1.149-1.479-2.206-1.957-2.685 1.01 1.443 2.748 4.573 2.655 4.827 2.361 3.892 3.903 6.848 5.438 11.605.439 1.94.133 1.79-.092.999.393 2.032.433 1.501.797 2.817-.428-1.345-.329-.924-.376-.092l.266 1.004c.127.497.301.924.353 1.23.081.254.133.398.185.45l-.028-.335.069.15c.011.173-.012.213-.041.185l.018.485.866 3.99-.254-2.379c.161 1.282.363 2.344.352 3.268l.035.277.018-1.363-.075-.56.046.185-.012-.428c-.208-.912-.468-2.927-.652-3.995l-.179-.681c-.018-.139.022-.041.081.156a51.197 51.197 0 0 1-.497-2.269c.099.468.19.837.202.646-.266-1.46 0-2.275-.906-4.688l.398 1.443-1.189-3.181c-.226-1.167.601 1.587.831 2.015-.86-2.494-1.114-4.717-1.859-5.756.059-.202.162-.548-.484-2.165.312 1.218-.479-.924-.266.092-.226-.456-.571-1.484-.773-1.761l.052.041c-1.172-2.714-1.883-3.447-2.599-4.475-1.969-2.927-2.69-4.4-4.562-6.588 0-.145-.294-.918-1.016-1.813-.398-.364-2.31-2.153-2.586-2.257 1.385 1.53 1.27 1.12 2.158 1.975.509.935-.08.202.723 1.362-.561-1.033-3.522-3.678-4.244-4.706l.318.294c-1.306-1.495-1.438-1.934-4.088-3.926-.428-.306-.844-.641-1.305-.895l-.404-.249.404.249.133.041c-2.119-1.484-1.444-1.23-3.875-2.725.186.104.081.029.266.138-1.281-1.01-2.881-1.53-3.955-2.13-.611-.479.214-.011.67.11-2.447-1.536-5.479-2.35-7.159-2.927-.537-.294-1.126-.451-1.709-.664 1.079.225 2.35.635 2.084.421-.946-.37-.808-.242-2.165-.675.266 0 .878.063 1.547.196-2.8-1.045-.721.098-2.644-.774-.896-.283-1.444-.317-1.577-.254-.53-.196-1.039-.45-1.604-.601-.208.104-2.257-.3-3.603-.56-.162.029 1.057.358 1.576.41-.133.086-1.553-.15-2.459-.329-.295-.427-6.092-.618-4.972-.86-4.192-.254-10.122.179-12.818.832-.912.092-2.725.433-1.663.109-3.36.549-4.914 1.49-8.135 2.379-.277.035 1.432-.508 1.293-.537-2.026.826-3.816 1.23-6.859 2.726.398-.202.56-.341.635-.404-.225.167-1.253.75-1.922 1.126-.451.213.577-.335.323-.243-5.687 2.806-9.562 5.947-13.92 10.317.936-.953 1.201-1.432 1.178-1.484l-1.322 1.271c-.427.571-1.478 1.466-2.125 2.431.081-.058.029.041-.479.675l.479-.675c-.104.086-.508.491-.162.023-2.563 2.592-3.326 4.567-5.854 8.176l2.731-4.636-.854 1.027c.416-.664.762-1.397 1.253-2.015-.987 1.016-1.42 2.24-1.651 2.28.133-.266.56-.849.508-.93-.82 1.109-.797 1.253-1.351 2.119 1.189-2.471 4.555-6.64 6.587-8.655.306-.329-.231.318-.271.393.825-.82 1.397-1.229 2.437-2.304.554-.722-.566.416-1.103.913 0-.139.271-.393.826-.964.139-.116 3.453-2.829 4.359-3.337 3.476-2.581-.826.029 2.726-2.263l1.149-.542c1.79-1.409 4.359-2.714 6.703-3.816 0 0 0-.029.081-.087l.537-.213c-.185.092-.404.202-.618.3 0 .052.416-.087.646-.15 1.975-.681 3.632-1.646 4.902-1.842 2.229-.9 6.074-2.05 8.771-2.517.773.069-3.482.808-4.562 1.218l1.443-.294c-.831.19-1.316.346-1.94.658 2.096-.566 2.789-.751 4.804-1.218-.139.081.139.069 1.074-.11l.266-.185s.092-.012.398-.023l3.649-.416c-.773.012-.825-.11-1.772-.023.341.052-.456.138-1.409.225.832-.162-.935 0-.935-.058 1.911-.196 4.267-.422 5.52-.589l.41.138c1.825.041 3.771-.011 5 .029l-.404.063c2.193.162 4.342.329 6.259.682 1.916.266 4.388.531 5.981.837.854.11 5.462 1.802 7.528 2.61.139.063-1.455-.479-2.159-.722 1.334.601 2.5.866 2.858 1.201-3.02-1.339.109.202-1.282-.334 1.403.629 2.95 1.137 3.62 1.495-1.749-.843-.202-.306-.565-.497-.063-.023-.196-.092-.462-.179.266.086.398.156.462.179 1.697.71 3.649 1.807 5.387 2.794-.052.058.161.243.872.762l.635.306c.895.629-1.812-1.08-.012.19 2.062 1.028 5.41 4.128 6.357 4.55 1.229 1.229-2.615-2.015-.723-.214-1.252-.849-2.725-2.361-3.279-2.437 1.254.797.358.421 1.104.999l1.328.987-.266-.243c2.263 1.576 5.393 4.706 7.649 7.431 2.044 2.194 3.487 3.712 5.353 6.807-.612-.849 1.501 2.622.161.768.751 1.496 1.548 2.921 1.646 2.904-.658-1.305-.213-.468-.744-1.582.468.704 1.345 2.419 1.634 3.152-.156-.341-.104-.202-.168-.254.745 1.57.468.71.999 1.853.029.427.993 2.622 1.362 3.724l.699 1.542c-.375-.843.398 1.559.375 1.854.398 1.137.9 2.055 1.166 3.886-.19-.733.231 1.663.116 1.726.56 3.072.987 5.116 1.067 8.106-.028-.092-.092-.693-.133.179.041.676.023 1.876.023 2.615l.081.601-.029.012c.133 1.271.243 1.923.058 4.394.133-.155.358-2.257.318-3.175l-.133-.779c.213-.745-.029-2.258.04-2.818.329 1.484.121 5.785-.104 8.389.063-.26.127-.601.185-.953.022-.109.04-.248.063-.352.208-1.34.387-3.13.415-4.942.012.254.012.52.041.825.121.335.058-2.246.081-1.79.144 2.691-.186 4.054-.537 5.907-.023.127-.041.236-.063.352-.087.479-.18.947-.26 1.53.027.183.217.183.108 1.252zm-9.642 23.158l.109-.099-1.005 1.467.896-1.368zm-22.107 19.094c-.186.202.357 0 .682-.162-1.71.964-1.139.455-.682.162zm-42.628 3.741l1.334.329.138.058-1.339-.335-.133-.052zM19.364 73.015c-.018.133-.041-.202-.081-.578l.081.578zm97.949-31.871l.855.976.068.11-.854-.964-.069-.122zm6.075 7.864c.751 1.38.416.814 1.114 2.165-.225-.387-.871-1.519-1.114-2.165zm2.783 7.003l.357.785.18.548-.537-1.333zm-2.783-4.936l-.646-1.126-.04-.127.686 1.253zM66.327 18.557l.11-.086c.629-.052.022.029-.11.086z"/><path fill="#713F31" d="M128.55 89.111c-.081.087-.162.202-.335.595l.012.393.323-.988zM127.533 96.883l.052-.242.012-.075c-.127.323-.236.606-.346.883.074-.047.144-.231.282-.566z"/><path fill="none" d="M73.861 130.624l.543-.052M119.156 105.786a4.788 4.788 0 0 0-.156.341M123.019 99.516l.081-.306M72.072 130.959l-.624.052M40.547 121.756l-.774-.531M45.553 121.889l.254.178M59.595 128.441l.589.139M66.384 130.307h.341M18.238 65.364l.161-.912M37.874 30.093a5.51 5.51 0 0 0 .67-.451M22.782 50.012c.052-.145.133-.283.214-.474M55.599 20.186c-.669.225-1.316.479-1.975.745a59.088 59.088 0 0 0-3.349 1.38M110.478 119.446l.104-.115M39 117.87l.341.335M126.391 99.821l-.486.948M120.483 109.92l.053-.052M72.943 16.952l1.75.041M107.661 30.214l-.404-.248M130.281 79.105c-.022.145-.022.254-.022.254M98.845 24.804c.184.104.409.214.75.404M125.154 54.141c0 .075.058.179.11.375M128.925 67.42c-.052-.306-.226-.733-.353-1.23M113.394 36.415c-.156-.104-.352-.294-.595-.52M86.419 131.611l-1.131.289M109.474 120.931l.375-.347M91.575 19.891l-.699-.202M99.012 23.199c-.063-.023-.196-.092-.462-.179M51.09 127.379l.56.289M130.905 62.01c-.081-.416-.19-.9-.369-1.605"/><path fill="#D85B26" d="M20.299 61.271a4.492 4.492 0 0 0-.109.508c.046-.173.081-.329.121-.491-.012 0-.012-.017-.012-.017zM100.819 126.149c-.324.162-.867.364-.682.162-.456.294-1.027.803.682-.162zM130.905 62.01c.127.693.185 1.149.393 2.125-.422-1.634-.127-.243-.295-.393-.04-1.011-.849-4.151-.225-2.038-.283-1.316-1.08-3.875-1.305-4.463l.266 1.144c-.485-1.876-1.271-3.615-1.727-4.284.924 2.206 1.08 2.067 1.923 5.006.779 3.21-.358-.722.058 1.409l.67 2.251-.19-1.091c.254.306.669 3.58.825 3.257.341 2.361.375 3.071.479 5.704.139.612.046-.335-.012-1.097.098 1.322.393 1.392.341 3.141-.058.785.167.416.115-.75.098 1.155.04 2.286.04 3.574l.15-1.53v1.582l.093-1.322c0 .277.011.571.022.854.047-1.333.301-2.194.087-3.805l-.139.624c-.092-.698-.283-2.338-.369-3.169.052-.214-.041-2.569.179-.837-.34-3.207-.75-3.329-1.379-5.892zM129.127 68.355c.115 1.467.277 1.12.438 2.893-.052-.561-.133-.716-.161-.797.294 2.096.133 4.232.173 6.34.069-.186.145-2.021.174-.786.08-.542.028-2.228-.053-2.471l.081.474c-.081-1.473.081-2.471.214-1.519v-.145l-.866-3.989zM28.994 108.229l.416.52.104.104c-.081-.128-.375-.457-.52-.624zM93.579 126.3c1.333-.63 4.711-2.032 4.393-2.188-1.051.572-2.39 1.062-2.898 1.374l.457-.161-1.952.975zM20.108 63.996c.456-2.292.375-3.054.953-4.914-.231.375-.52 1.282-.75 2.206.306-.202-.364 2.113-.203 2.708zM62.187 18.511l2.073-.612-3.303.658-.196.185c.277-.104 1.415-.387 1.882-.427l-.456.196zM19.947 58.424c.537-1.599.86-2.789 1.259-3.487.162-.467.11-.56.335-1.16l-.173.404-.243-.029-.583 1.536.774-2.65c-.624.71-1.444 3.291-1.79 4.319.583-1.212-.219 1.057.722-1.386l-.213 1.397-.735 2.223c.063.052-.381 1.697.006.618.069-.231.179-.67.294-.987.029.266-.774 2.985-.398 2.373.346-1.808.566-2.045.745-3.171zM118.197 112.969l-.601.813.826-.936c-.241.256.063-.334-.225.123zM91.627 19.729c.149.109.779.398-.052.162 4.244 1.229 7.8 3.002 11.859 5.104-3.072-1.888 2.142.999 1.258.277l-1.766-.895.189.041-2.125-1.131c.388.317.705.508.561.542-2.806-1.536-.785-.652-2.869-1.75l-3.314-1.374.295.069c-.295-.11-.428-.15-.52-.162-.503-.19-1.028-.318-1.536-.491 1.333.462 2.546.958 2.881 1.224-2.534-.946-1.282-.415-4.861-1.616z"/><path fill="#D85B26" d="M93.607 20.122a44.167 44.167 0 0 0-2.113-.682c.71.22 1.415.434 2.113.682zM18.498 65.255c.063-.018-.375 2.304-.127 1.587-.023-.536.294-1.818.127-1.587zM129.323 94.014l.745-2.876c-.053.393.352-.987.242-.369.058-.214.353-1.241.214-.964l-.156.56c.242-1.53-.023-.629.329-3.204-.398 1.547-.479 2.258-.67 3.089l-.196.745-.45 2.425-.058.594zM20.057 64.983l.19-1.304-.046.144-.179 1.281zM126.442 100.757l.156-.242.52-1.253-.144.242zM86.621 131.571h-.069l-.133.04zM38.734 119.539c-.19-.208-.67-.664-.404-.509-.427-.294-.479-.184.404.509zM20.189 61.779c-.254 1.068-.41 2.056-.294 2.113.052-.693.127-1.201.294-2.113zM19.439 66.444l.035-.064v-.167zM18.775 79.296v-.006.006zM88.85 128.049l.317-.04c.059-.024-.012-.024-.317.04zM18.238 67.911v.069l.029.023zM98.122 124.296c-.416.226-.883.468-1.443.774.254-.11.826-.416 1.443-.774zM79.496 17.218l-.49.029 1.189.132zM75.68 16.825l.335.19c.594.041 1.2-.011 1.801.087-.184-.15-.398-.311-2.136-.277zM58.844 130.382l-1.334-.329.133.051 1.339.335zM18.509 66.294l.254-.976c-.011-.092-.069-.041.041-.601l-.295 1.577zM79.006 17.247l-1.189-.144c.08.063.162.115.346.167l.843-.023zM83.054 17.766c2.488.491 6.143 1.299 6.367 1.276-.074 0-.254.023.226.179l1.443.266-1.316-.456c.398.052 1.022.208 1.721.41-2.627-.796-5.288-1.478-7.991-1.945-2.171-.29 1.148.403-.45.27zM17.788 83.765v.052l.051.162zM94.589 129.343c-.063.139 1.529-.561 1.178-.422-.346.127-.901.358-1.178.422zM126.528 56.796l-.357-.785.537 1.334zM122.245 107.218l-.895 1.368 1.004-1.467zM123.388 49.008c.243.646.89 1.778 1.114 2.165-.698-1.351-.363-.785-1.114-2.165zM130.259 59.487c-.19-.953.323.635.415.774l-.952-3.262-.236-.185.773 2.673zM68.411 17.218c.375-.029.895-.052 1.339-.115.023-.087-.883.051-1.339.115z"/><path fill="#D85B26" d="M132.037 81.276c-.058.353-.121.693-.185.953.225-2.604.433-6.905.104-8.389-.069.56.173 2.073-.04 2.818l.133.779c.04.918-.186 3.02-.318 3.175.186-2.471.075-3.123-.058-4.394l.029-.012-.081-.601c0-.739.018-1.939-.023-2.615.041-.872.104-.271.133-.179-.08-2.991-.508-5.035-1.067-8.106.115-.063-.307-2.459-.116-1.726-.266-1.831-.768-2.749-1.166-3.886.023-.294-.75-2.696-.375-1.854l-.699-1.542c-.369-1.103-1.333-3.297-1.362-3.724-.531-1.143-.254-.283-.999-1.853.063.052.012-.087.168.254-.289-.733-1.166-2.448-1.634-3.152.531 1.114.086.277.744 1.582-.098.017-.895-1.409-1.646-2.904 1.34 1.854-.773-1.617-.161-.768-1.865-3.095-3.309-4.613-5.353-6.807-2.257-2.725-5.387-5.854-7.649-7.431l.266.243-1.328-.987c-.745-.578.15-.202-1.104-.999.555.075 2.027 1.588 3.279 2.437-1.893-1.801 1.952 1.443.723.214-.947-.421-4.296-3.522-6.357-4.55-1.801-1.27.906.439.012-.19l-.635-.306c-.711-.52-.924-.704-.872-.762-1.737-.987-3.689-2.084-5.387-2.794.363.19-1.184-.346.565.497-.67-.358-2.217-.866-3.62-1.495 1.392.537-1.737-1.005 1.282.334-.358-.334-1.524-.6-2.858-1.201.704.243 2.298.785 2.159.722-2.066-.808-6.674-2.5-7.528-2.61-1.594-.306-4.065-.571-5.981-.837-1.917-.353-4.065-.52-6.259-.682l.404-.063c-1.23-.04-3.176.012-5-.029l-.41-.138c-1.253.167-3.608.393-5.52.589 0 .058 1.767-.104.935.058.953-.087 1.75-.173 1.409-.225.947-.087.999.035 1.772.023l-3.649.416c-.306.012-.398.023-.398.023l-.266.185c-.936.179-1.213.19-1.074.11-2.015.467-2.708.652-4.804 1.218.624-.312 1.109-.468 1.94-.658l-1.443.294c1.08-.41 5.335-1.149 4.562-1.218-2.697.467-6.542 1.617-8.771 2.517-1.27.196-2.927 1.161-4.902 1.842-.231.063-.646.202-.646.15-2.344 1.103-4.914 2.407-6.703 3.816l-1.149.542c-3.551 2.292.75-.317-2.726 2.263-.906.508-4.22 3.222-4.359 3.337-.554.572-.826.826-.826.964.537-.497 1.657-1.634 1.103-.913-1.04 1.074-1.611 1.484-2.437 2.304.04-.075.577-.722.271-.393-2.032 2.015-5.398 6.184-6.587 8.655.554-.866.531-1.01 1.351-2.119.052.081-.375.664-.508.93.231-.041.664-1.264 1.651-2.28-.491.618-.837 1.351-1.253 2.015l.854-1.027-2.731 4.636c2.529-3.609 3.291-5.583 5.854-8.176-.347.468.058.063.162-.023.646-.964 1.697-1.859 2.125-2.431l1.322-1.271c.023.052-.242.531-1.178 1.484 4.359-4.371 8.233-7.511 13.92-10.317.254-.092-.774.456-.323.243.669-.375 1.697-.958 1.922-1.126-.075.063-.237.202-.635.404 3.042-1.496 4.833-1.9 6.859-2.726.139.029-1.57.572-1.293.537 3.222-.889 4.775-1.83 8.135-2.379-1.062.323.75-.017 1.663-.109 2.696-.652 8.626-1.085 12.818-.832-1.12.243 4.677.433 4.972.86.906.179 2.326.416 2.459.329-.52-.052-1.738-.381-1.576-.41 1.346.26 3.395.664 3.603.56.565.15 1.074.404 1.604.601.133-.063.682-.029 1.577.254 1.923.872-.156-.271 2.644.774-.669-.133-1.281-.196-1.547-.196 1.357.433 1.219.306 2.165.675.266.214-1.005-.196-2.084-.421.583.213 1.172.37 1.709.664 1.681.577 4.712 1.391 7.159 2.927-.456-.121-1.281-.589-.67-.11 1.074.601 2.674 1.12 3.955 2.13-.185-.109-.08-.035-.266-.138 2.431 1.495 1.756 1.241 3.875 2.725l-.133-.041c.461.254.877.589 1.305.895 2.649 1.992 2.782 2.431 4.088 3.926l-.318-.294c.722 1.028 3.684 3.672 4.244 4.706-.803-1.16-.214-.427-.723-1.362-.889-.854-.773-.445-2.158-1.975.276.104 2.188 1.894 2.586 2.257.722.895 1.016 1.668 1.016 1.813 1.871 2.188 2.593 3.661 4.562 6.588.716 1.027 1.427 1.761 2.599 4.475l-.052-.041c.202.277.548 1.305.773 1.761-.214-1.016.577 1.126.266-.092.646 1.617.543 1.963.484 2.165.745 1.04.999 3.262 1.859 5.756-.23-.427-1.057-3.181-.831-2.015l1.189 3.181-.398-1.443c.906 2.413.641 3.228.906 4.688-.012.19-.104-.179-.202-.646.139.716.317 1.53.497 2.269-.059-.196-.099-.294-.081-.156l.179.681c.185 1.068.444 3.083.652 3.995l.012.428-.046-.185.075.56-.018 1.363-.035-.277.023.531-.046 1.409.058.739v-.375c.133.132.398 1.686.155 3.567.087-.438.214-1.281.191-2.419l.063.514c-.168 2.264-.445 4.371-.722 6.322.109-.716.109-1.467.23-2.344-.266 2.107-.825 5.335-1.207 6.275.468-3.222.884-4.705 1.074-8.123.358-1.727-.109 2.194-.012 2.327l.243-1.923c-.075.236.225-3.765-.128-2.789-.213 4.232-.958 8.378-1.836 11.911l-.508-3.672s-.028-.081-.04-.242c-.688 3.429.139 1.761.012 2.604-.11.791-.237 1.443-.509 2.072l.029-.381c-.577 2.143-.018.71-.618 2.599-.375 1.559.428-1.334.237-.317-.693 1.985.028 1.38-1.415 4.382.012-.179-.317.254.404-1.53l-.854 1.687c.785-2.073.335-.803 1.12-2.916.133-1.068-.04-.866.109-1.83-.213.831-.034.716-.404 1.928-.617 1.409.029-.254-.022-.427-.485 1.986-1.017 2.015-1.524 3.776.323-.255.185.08.814-1.062-.445 1.212-1.219 2.667-1.322 2.482l.052.317c-.145.266-.67 1.149-.722 1.189l-.15.416c.577-.763 1.017-1.403 1.57-2.968-.161.67.595-.733-.19 1.271-.375.854-.133.052-.202.092-2.193 4.278-2.367 4.191-4.457 7.321.491-.803 1.871-2.645 2.558-4.33-.646.871-1.027 2.124-1.691 2.938.479-.803.508-.964-.162-.075l-.185.41c-.381.549-1.027 1.536-1.126 1.588.034.04.214-.185.566-.67-.733 1.53-2.622 4.042-4.637 6.195-.012-.312 2.616-3.309 1.12-1.761-.803.889-1.108 1.951-2.754 3.279.555-.711-.773.571-.814.49l-1.899 2.194c-1.091.895-2.384 1.854-3.36 2.725.329-.294.773-.646 1.334-1.073-1.374 1.472-2.91 2.193-4.994 3.585l.918-.698c-1.611.976-2.807 1.923-4.134 2.621l-.04-.15c-.059.15-1.149.814-2.166 1.38 2.604-1.327 2.83-1.039 6.005-3.291-1.305 1.098-2.292 1.819-3.874 2.783-.635.306-.9.41-.977.398-.484.347-.594.537-1.529 1.097l-.347.063c-2.927 1.068-2.488 1.409-5.317 2.396-.589.063 2.338-1.154 3.979-1.951-1.363.381 2.695-1.23 1.097-.803l-.774.438c-.871.341-.819.202-.288-.012-1.114.491-.86.353-1.229.601-4.383 1.709.393-.288-3.961 1.08.479-.185 1.686-.543 1.414-.583l2.281-.884-.012-.145c-2.823 1.23-4.578 1.75-5.872 2.425 2.667-.929.347.075 1.778-.276a5.536 5.536 0 0 1-1.328.375c-.185.104-1.547.531-1.345.56-.739-.115-6.744.924-5.421.329-1.728.191-7.044.82-10.809.688l1.028-.104c-3.562-.434-3.51-.099-5.249-.099.427-.04-2.407-.398-3.042-.704-1.796-.283-3.32-.237-5.733-1.086-.473-.306-.473-.548-1.992-1.039l-1.097-.202c-1.478-.658-3.516-1.392-4.428-1.87l.213.08c-1.634-.831-1.772-.722-.525-.028l-1.564-.716-.041-.087c-2.067-.987-4.076-1.772-7.079-3.892.895.422-2.119-1.784.629.035-.826-.479.347.415.468.571.964.698 1.94 1.178 2.373 1.443-.277-.266.115-.254.722-.063-2.188-.924-7.315-5.04-7.904-5.196-2.257-1.848-4.982-4.544-6.957-7.194l.127.317-1.64-2.355.444.497c-.352-.509-.75-1.017-1.022-1.576-.052-.202.352.381.883.976.294.329.497.676.214.357 1.345 1.496-.987-1.356-.063-.398.283.388.71.866.918 1.144-1.386-1.824-2.119-2.609-2.702-3.926-.71-.826-2.05-2.627-2.823-4.562.438.658-1.068-2.021-.433-1.166-.491-.658-1.091-2.419-1.305-2.685.162.254.456 1.12.71 1.691-.416-.745-.508-.82-.901-1.796l.029-.086c-.583-1.23-.508-.289-1.42-2.523-1.929-6.022.566.762.456-.162-.254-.155-1.016-2.829-1.305-4.041l.109.277c-.19-.601-.577-1.484-.618-2.177-.214-.347-.479-1.068-.67-1.473l-.56-2.806.202.56a7.966 7.966 0 0 1-.306-1.761c.104-.254.081.595.317 1.432 0-.468-.075-1.027-.237-1.668l.023.346c-.138-.722-.537-3.377-.369-1.259-.271-1.587-.087-2.107-.243-3.175.075-.121.196.877.208.335-.075-1.057.035-1.75-.052-2.622-.023.844-.081-.242-.127 1.098-.052-.456-.081-1.501-.104-1.727-.011-.999-.052-1.998.046-2.985.029.052.029.179.029.352.069-1.905.294-4.775.37-6.062l-.127.554c-.035.462-.11 1.397-.191 1.773.093-1.455-.266.999-.213-.52.133-2.142.849-3.903.826-5.081-.421 1.951-1.068 4.602-.987 5.438l.15-1.293-.052 2.979c-.098.087-.231 2.575-.312 2.518 0-1.011.133-1.934.185-2.72-.052.173-.347 2.696-.294 3.782l.058-1.351c.15 2.408-.041 5.474.398 7.789-.289-1.818.104 2.321-.162.878-.093-.444-.104-1.091-.104-1.276-.145-.149.104 1.421.052 1.895.081.254.433 2.586.347 1.189.058.773.508 2.401.618 3.446.104-.335.421 1.923.635 2.27.115.427.19.813.242 1.131-.34-.9-.675-2.055-.964-3.273h.023c-.075-.479-.254-1.402-.231-1.114l-.058-.022c-.722-2.385-.93-4.868-1.144-6.138l.133.601c-.456-1.842-.173-3.753-.323-5.676.029.063.058.289.058-.069-.029-2.379-.029-3.337.237-5.237l.052.243c.029-.162.058-1.288-.052-1.097-.133 1.623-.133 1.928-.294 3.354-.023-.589.058-1.888.133-2.817l-.133-.122c-.075-1.241.404-2.419.497-3.643l-.387 1.386.023-.237c-.104.624-.185 1.184-.156 1.334-.139 2.165-.456 3.233-.56 3.574-.162 1.01-.162-.381-.266-.266-.139 1.634 0 1.542.052 3.17-.029.514-.075.196-.086-.029l.086 1.212c-.052.058-.098 2.84-.202 1.195.011-.242.011-.71.011-1.056-.242 2.269.081 6.224-.104 6.114.104 1.259.063.913.335 2.888.277.883.225-.104.705 2.003l-.266-1.686-.254-1.011.346 1.744c-.266-1.08-.294-.89-.468-1.184-.37-2.743-.156-3.499-.254-4.891.173.854.277 2.298.375 1.737.011 1.375.208 1.496.346 3.072L17.785 83c.346 1.241.242 1.432.531 2.46l-.023.202c.508 2.257-.04-.693.531 1.547.375 2.004-.092.698-.035 1.271-.912-3.338-.26.133-1.125-3.528-.179.053.04 1.507.467 3.487-.19-1.293.439.745.237-.987.803 2.888 1.195 2.506 1.928 5.774l-.052-.087.612 1.241.618 1.784c-.606-1.033-1.097-2.385-1.473-3.222.56 2.234 1.311 2.817 2.258 5.277.624 2.124-1.149-2.448-1.293-2.379.237.479.676 1.87.56 1.732-.86-2.345-.67-1.357-1.611-3.99.566 1.241-.012-.214.167 0-.19-.357-.941-2.857-1.42-4.625-.266-.357.329 1.565.595 2.697.658 2.102 1.397 4.267 2.159 5.79.884 2.2-.069.214-.029.341.733 2.032.479.814.774 1.421 1.605 2.806 1.42 3.308 2.621 5.288 1.126 1.565 3.701 5.422 5.837 7.904-.306-.266-.063.109.017.323 1.507 1.241.958.803 2.771 2.437l-1.357-1.553c1.172 1.172 2.2 1.975 3.181 3.152-1.328-1.513 2.107 1.605 3.095 2.269 1.178 1.213 2.702 1.952 3.366 2.593l-.202-.121 1.992 1.403-.375.022c1.288 1.103 3.262 1.796 2.771 1.501 1.507.896.583.428.756.642-.907-.404-2.91-1.23-3.274-1.802.122.093.416.306.497.335-3.718-2.673-1.392-.618-3.314-1.848.976.682 1.657 1.287 2.754 1.945.451.41 2.645 1.433 3.736 1.952-1.496-.722-2.246-1.172-3.285-1.963.912.646 1.178.554 1.951 1.097l-.289-.121 1.103.508c.098.214 2.898 1.646 1.201.912 1.472.763.548.19 1.911.797l-2.592-1.42.121-.127c.987.444 1.166.669 2.217 1.218l-.012-.202 1.854.976c-.179-.213 1.287.456 1.697.618 1.062.496.254.496 2.153 1.051l-.138-.052c1.114.271 1.755.438 3.291.964-.098 0-.52-.109-.733-.173 2.107.877 5.745 1.275 6.703 1.721-.202.092-1.114-.18-1.189-.023-3.395-.89-2.482-.208-6.415-1.548-.086-.3-3.389-.889-3.96-1.582 1.455.733 3.58 1.179 3.314 1.04-1.443-.329-3.332-1.282-4.29-1.675.797.462.468.531-.202.364 2.217.952 6.333 2.58 9.688 3.383l-.341-.277c2.939.451-.398.116 1.876.583l1.04.053.133.04 1.691.179c-1.172-.23-.664.023-1.934-.323-1.149-.294.081-.133.427-.185.75.289 3.58.571 1.819.508l3.124.099c-.023.075-.705.034-1.028.058l2.246.185-.092.035c1.812.127 4.353-.035 5.716-.11-3.072-.167 1.466-.144 1.201-.294 1.068-.127 1.443.294-.877.52-.647-.115-2.264.028-3.453.028 1.53.087 2.009-.017 3.21-.017-.831.104 1.605.121 1.576.139-.149.075-.646.317-2.194.207-2.321-.011-.254-.167-.935-.155-.612-.214-3.222.115-4.602-.174-.15-.04.3-.017.531 0-1.189-.121-3.712-.363-3.915-.254l3.008.214c.652.099-.941.023-.018.202.693.012 1.524.139 2.408.167l-.162.047c1.813.063 4.7.236 6.801-.121.433-.323 1.519-.601 2.385-1.005 3.077-.387 6.305-.895 9.486-1.842-.723.347-2.697 1.039-4.977 1.374l.94-.242c-1.813.306-2.482.548-3.233.75.098-.04-.052-.04-.34-.028-1.611.266-2.472.456-1.611.508l.543-.115h1.143c.393-.364 3.742-.773 5.508-1.328-1.189.438-2.251.831-3.873.987l.189.115c-1.396.289-2.546.353-3.319.531l1.634-.242v.092c1.144-.23 2.598-.611 3.684-.75.924-.226 1.75-.612 4.197-1.294l-.086.041c1.622-.624 4.625-1.357 5.785-1.992.6-.508-2.633.953-3.482 1.155.988-.468 2.079-.774 1.173-.584 2.274-1.039 1.472-.34 3.313-1.264l-1.091.363c.813-.427 2.269-.936 3.014-1.507.04-.242-1.362.745-3.042 1.276l.664-.416-3.205 1.432c-.912.571.023.317-2.026 1.08-1.155.202-1.865.149-1.433-.156.924-.185 2.547-.722 2.547-.577.912-.497 3.493-1.651 2.928-1.6l.363-.139c1.178-.236 2.857-.9 5.738-2.384.561-.301.596-.416.404-.474.642-.248 1.178-.612 1.738-.93-.295.214-.479.438-.906.722 1.264-.751 2.506-1.553 3.753-2.327l-.283.271c.531-.393 1.097-.756 1.576-1.206-.854.738-2.378 1.576-2.084 1.229 1.858-1.241 2.858-2.032 4.243-3.343.162.23.711-.15.318.381l-.191.115c-.467.571-1.582 1.657-2.5 2.419 3.338-2.592 2.535-1.858 5.33-4.289.387-.059-2.46 2.361-1.75 1.882l-2.777 2.102c.457-.375.479-.444.693-.629-1.784 1.628-2.697 1.842-4.105 3.014-.998.565 1.432-1.062.369-.393a16.031 16.031 0 0 0 2.016-1.703c-2.344 1.432-1.189 1.004-3.117 2.326l-1.56.803c-.924.508.358-.058.415-.081-1.096.658-1.593.757-2.453 1.213.266-.093.871-.358.756-.242-1.506.623-2.846 1.512-4.312 1.847.843-.236-.803.612-1.449.878.976-.317 1.992-.571 2.939-.987 3.498-1.761 5.664-2.91 9.127-5.369l-.155.213c5.462-3.868 4.151-3.694 8.187-7.655.33.086 1.703-1.986 1.732-1.681-1.125 1.3-.825 1.098-.438.78.601-.809.896-1.403 2.199-2.824-.369.618.78-.623-.397.85 1.789-1.929 2.453-3.217 3.089-4.4 2.205-3.631 1.027-.871 2.973-4.624l-.225.589 1.241-2.333-.508.704c.444-.935.964-1.83 1.281-2.834.635-1.802-.421.669-.41.403l-.121.642c-.641 1.097-1.362 2.708-1.576 2.881.947-1.796.612-1.426.936-2.177l-.872 1.749-.398.485c-.895 1.732-1.749 2.938-2.31 3.949.509-.624.642-1.132 1.12-1.675-.375.89-1.709 2.893-2.99 4.845-.081.022-.561.577-.398.323.023-.046.306-.347.427-.525-.19.058.584-.976-.831.698.456-.675 1.138-2.165 1.068-2.136.692-1.074 1.68-2.541 2.298-3.372l-.023.081c.624-.89 1.57-3.043 1.79-3.141.289-.612 1.149-2.258.185-.624.456-.947.976-1.848 1.311-2.835.023.589 1.225-2.119.214.843.018-.086.295-.808.745-1.951-.254 1.051.421-.41 1.097-1.975l.029-.428c.623-1.345.918-2.193 1.466-4.087.347-1.513.497-3.049.601-4.591l.231-1.322c.242-.577.508-2.569.531-1.772.104-.179.028.497-.191 1.369-.046.115-.011-.104-.046.022.023.271.099.393.41-.658-.226 1.086-.277 1.219-.364 1.992l.243-1.091c-.289 1.616-.612 4.14-.479 4.14-.081-.531.289-1.536.502-2.402-.098.682-.288 2.137-.046 1.039 0-.427.508-3.424.023-1.311.121-.906.306-2.124.508-3.123-.104 1.2.081.427.133.773.109-1.068-.081-1.068-.109-1.253.08-.579.173-1.047.26-1.527zM19.15 74.637c.023.335.041.652-.017 1.288-.006-.422.029-.861.017-1.288zm14.983 39.665s.081.023.243.19c-1.68-1.801-1.975-1.848-3.193-3.395l.444.428c-.139-.347-1.218-1.508-2.217-2.777-.341-.335-1.068-1.086-1.311-1.669l.196.139c-.092-.277-.947-1.6-1.905-3.095l.474.561c.3.352.618.773.999 1.293-.22-.289-.433-.652-.728-1.166l1.946 2.453c-.814-1.339-1.167-1.374-2.16-3.031.214.006.231-.133 1.449 1.519.93 1.513-.139-.022.289.779.878 1.017.878 1.496 1.952 2.5 1.068 1.316.635.987.93 1.467-1.08-1.34.364.763-1.011-.924 1.011 1.455.93.884 1.819 2.084l.023.295c.924.976 2.806 3.251 4.302 4.354-1.12-1.092.756.496.641.254-.329-.04-1.842-1.536-1.738-1.611.722.745 2.592 2.218 3.424 2.922l-1.38-1.265c.699.462 3.02 2.218 3.101 2.229.71.572 1.842 1.316 2.182 1.681l-1.484-.854-.433-.439-.872-.467c.837.744 2.731 2.072 3.054 2.494-2.166-1.44-5.428-3.716-9.036-6.949zm57.615 14.307l-.202-.081c-3.684 1.108-6.299 2.015-10.26 2.512.543-.127 2.033-.347 1.818-.37-2.349.358-2.003.555-4.382.624 3.372-.347-2.078.139.924-.266-4.18.722-8.724.173-11.478-.109.699.149-1.131.017-1.224.028-.727-.08-.456-.149.133-.08-1.432-.214-1.646-.41-1.391-.485l2.887.3c-.936-.139-1.432-.266-2.188-.375-.334-.029-.71-.081-1.207-.167-.479-.035-.398 0-.398.058-.935-.093-2.096-.196-3.608-.37l.092-.017c-1.039-.145-2.015-.531-3.031-.797l.375.034-1.79-.427c.075-.133-.531-.243-.404-.295-1.04-.479-3.846-1.403-6.138-2.459l.393.104c-1.328-.393-4.191-2.223-6.033-3.291l.069.012c1.16.617 1.455.646.947.294.427.185 1.057.503 1.443.693.624.352 2.425 1.27 2.523 1.472-1.339-.71-1.212-.629-.658-.219 1.345.687 3.955 1.686 3.874 1.472 1.929.809.56.277 1.929.936.144.139-.353-.023-.86-.185 1.876.831 3.892 1.213 5.826 1.859.294-.093-3.712-1.3-1.657-.884.508.093.508-.145 2.459.52.012.029-.156-.018-.346-.069.895.254 1.039.283 2.032.52.277.202-1.259-.104-1.928-.179.629.156 1.38.179 2.09.358l-.19.022 2.142.393c.901.063-1.605-.352-1.709-.456l1.386.19c1.53.422 5.768.676 7.182 1.062 1.848.121 1.045-.087 1.496-.173 1.126-.133 2.136.04 3.239-.012-.029-.109 1.253-.121 1.282-.295l1.761-.149c.988-.317-2.113.202-2.586.086-.936-.161 1.305-.121.688-.23-1.346.109-1.444.145-2.108.202-.774.012-1.189-.058-1.172-.121 2.171.086 1.184-.145 2.95-.133l.064.052c.022-.162 2.534-.289 3.469-.456 1.94-.012-1.518.375-1.466.404l2.338-.254c-.999.196.041.196-1.327.415 1.42-.219 1.634.006 2.974-.363-1.502.537 1.945-.185 2.13-.081-1.61.444-4.693.601-4.267.479.063.046-1.929.202-2.702.202l-1.126.317c1.288-.104 3.025-.37 2.569-.145l1.737-.236c-1.772.427-1.696.415-3.313.681 3.349 0 5.866-.866 8.551-1.253l.161-.034s-.028.018-.057.018c5.011-1.282 6.316-1.502 7.506-1.646-.778.346-1.523.653-2.233.843zm24.538-17.009c-.04.127.041.058.186-.074l-1.012 1.229c.11-.226-.189-.012.826-1.155zm-4.885 5.005c-.057 0 .491-.565.797-.883a56.714 56.714 0 0 1-2.096 1.854c1.426-1.08.717-.439 1.109-.59-.826.733-2.246 1.837-2.749 2.258-1.218.936-2.333 1.519-1.564.832-.682.548-1.455.987-2.165 1.559 1.057-.757.063.347 1.871-1.039.732-.226-1.675 1.229-2.783 1.842.549-.37.04-.145.156-.283-1.571 1.103-.74.751.421.058l-1.737 1.253-1.842 1.017c-.324-.012-.428-.081.144-.324l-1.12.434 1.588-.86c-.722.23-1.784.912-2.627 1.328-.976.381 2.096-1.219 3.008-1.929.85-.571 2.783-1.721 2.518-1.455-.075-.225 2.766-1.836 3.626-2.8 2.321-1.899 1.802-.936 3.724-2.812l-.785.577c1.663-1.709 2.426-2.379 4.284-4.238.335-.104-.813.872-1.229 1.328l1.004-.751c-.404.388-1.107 1.271-1.195 1.12.041.069-.52.791.647-.409l-.831.964.225-.179-.797.813c-.377.282-.989.883-1.602 1.315zm6.565-6.068l.301-.213c-.589.641-.953 1.224-1.34 1.547-.052-.018 2.431-3.568 2.968-4.82.878-1.381 1.946-2.749 2.431-3.649l-.213.456c-4.359 6.415-2.298 3.915.617.173-1.496 2.136-2.916 4.503-4.764 6.506zm6.26-11.021c-.029.277.225-.063.53-.601-.063.202-.121.307-.109.347l-.854 1.536c-.236.427-.479.813-.45.669-.093-.202.906-2.032 1.051-2.644.15-.497 1.097-2.743 1.005-2.194-.753 1.524-.215 1.605-1.173 2.887zm4.883-12.772c.11-.508.174-.773.214-.918l-.242 1.08.028-.162zm-.559 2.367l-.323.987-.012-.393c.173-.392.254-.507.335-.594zm-.965 7.53l-.052.242c-.139.335-.208.52-.282.565l.346-.883-.012.076z"/><path fill="#D85B26" d="M117.567 108.332l.642-1.148c-.571.883-1.017 1.576-.803 1.402.456-.508.803-1.091 1.201-1.657-.426.335-.288.479-1.04 1.403zM129.537 56.022c-.052-.109-.231-.438-.398-.802l.583 1.778c.029-.028.017-.236-.185-.976zM123.388 51.075l-.687-1.253.04.127zM66.327 18.557c.133-.058.739-.138.11-.086l-.11.086zM76.016 17.016l-1.323-.023 1.357.063zM40.039 120.526c-2.217-1.651-3.256-2.321-5.398-4.163 2.702 2.546 3.822 3.083 6.265 4.994l-.867-.831zM104.854 25.324c.508.369.999.75 1.547 1.143-1.501-.809 1.525 1.08 1.017.941-.67-.387-1.576-1.027-2.107-1.438-.243-.069.491.537.341.56 2.188 1.721 2.928 1.443 4.977 3.279-.168.029-.859-.45.52.687l-.369-.266c2.264 1.761 1.553 1.6 3.105 2.569l-.138.087c.993.843 2.754 2.656 3.741 3.672l-.081-.041c2.662 2.979 1.495 1.669 4.25 5.214-.398-.566-.907-1.034-1.363-1.553.906 1.241 1.23 1.443 1.819 2.39-.053-.04-.041.139-.358-.294.958 1.363 1.986 2.702 2.864 4.111.698 1.114-.023-.289-.064-.502.307.387 1.352 2.523 1.322 2.673-.185-.271-.802-1.374-.479-.641l1.067 1.559c.987 2.269-1.148-1.547-1.783-2.575 1.062 2.274 1.731 2.794 2.725 5.289-.3-.733-.393-1.241-.543-1.634.162-.179.987 2.206 1.669 3.862-.341-1.091-.034-.491.341.254l.133.294.133.254-.081-.196v-.191c-.612-1.414-.906-2.534-1.271-3.447.202.981-1.455-2.991-2.153-4.024l-.664-1.242-.236-.473c-.029-.098.075 0 .49.687-.294-.595-1.564-2.471-1.507-2.257-.964-1.415-1.761-2.951-2.887-4.232l-.242-.375c-.133-.133-.162-.145-.162-.145-4.274-5.541-9.608-10.298-15.573-13.999zM90.61 130.457c-1.842.49-1.506.583-2.598.946 2.066-.617 2.494-.698 4.965-1.472-1.939.526-2.441.641-2.367.526zM38.278 119.839l.531.688c-.294-.382 1.842 1.097 1.599.744-1.558-1.01-.825-.33-2.13-1.432zM49.393 126.94l1.264.589-.958-.508zM19.283 72.437c.041.375.063.71.081.578l-.081-.578zM22.77 50.133c0-.04-.011-.052.012-.121-1.333 2.927-.023.797-1.23 3.701.081-.191.191-.433.347-.739.3-.762.646-1.368.566-1.062.548-1.564.652-1.564.56-1.83.427-.976 1.091-1.899.583-.808l1.351-2.737-.895 1.593c.086-.542 1.443-2.54 1.536-3.152l-1.564 2.927.029-.179c-.308.698-1.041 1.969-1.295 2.407zM118.169 42.12l-.856-.976.071.121.853.964zM19.681 93.586c-.052.15.353.896.531 1.316a11.308 11.308 0 0 0-.531-1.316zM97.02 24.048c.595.254 1.247.439 1.825.756-.404-.236-.537-.329-.699-.456-.133-.011-1.352-.479-1.126-.3zM18.584 63.742c-.023-.173.664-4.128-.035-.837-.122-.162.277-2.165.571-3.025-.242.635-.029-.329-.127-.156-.115.438-.26.964-.41 1.68-.133.312 0-.814.334-1.628-.41 1.016.254-1.362-.254.081-.693 3.204-1.178 5.508-1.12 7.829.052-1.871.618-3.903.907-5.387l.029.658c-.427 1.651-.682 2.708-.826 4.394.104-1.27.479-2.5.733-3.73.479-1.726.277-.548.011.832.083-.33.153-.63.187-.711zM27.886 106.022c.381.537.722 1.229 1.27 1.935-.15-.243-.364-.583-.364-.682-.306-.479-.589-.773-.906-1.253zM39.029 117.737c.185.133 1.253 1.138.86.652l-.86-.652zM86.419 128.13c-1.396.387 2.338-.145-.104.428 3.188-.612-.271-.069 2.038-.682-1.345.387-2.067.323-1.934.254zM32.199 109.47l-.433-.405 1.143 1.363zM132.638 75.018c-.023-.456.04 2.125-.081 1.79-.029-.306-.029-.571-.041-.825a37.308 37.308 0 0 1-.415 4.942c.351-1.854.68-3.216.537-5.907zM132.037 81.276c.022-.115.04-.225.063-.352-.023.104-.04.243-.063.352zM73.596 130.67l.266-.046c-1.415.133-4.036-.104-4.342-.04.474.098 2.979.335 2.552.375.987-.04 2.459.093 2.991.069-1.623-.109-.162-.15.935-.202 1.004.052-.185.133.687.173l2.304-.242-2.01.179.596-.201-.214.022c-3.39.179-.295-.214-3.765-.087zM47.083 122.587c-.069-.139 1.854.987.687.237-.999-.531-.837-.386-.687-.237zM61.921 128.009l-.427-.052-.773-.023zM128.191 83.102c.277-1.738.19-2.795.295-3.996.242-1.293.173-2.962.086-3.972.22-1.051.047 3.811.243 1.767-.052 1.443-.243 3.527-.295 4.647.243-1.854.618-3.47.682-2.938.052-4.071-.41-.018-.468-3.562l.063-2.442-.3-.831c-.133-1.473.276.877.052-1.363-.162-.589-.196-2.056-.323-2.488.052.058.161.069 0-1.062-.047-.086-.116.041-.289-.849.127-.664.45 2.286.508 1.207-.508-2.696-.52-1.484-.71-2.032.035.069.052.202.104.548-.081-.012-.226-1.126-.283-.987l.266 1.224c-.266-.733.167 1.282.155 2.061.318 1.778.595 5.445.491 7.904 0-.207-.023-.635-.063-.369.012 3.487-.295 4.942-.849 8.88l.115.739c.046.012.15-.71.277-1.524.03.188.053.366.243-.562zM103.81 122.143l-1.629 1.068c.265-.105 1.773-1.057 1.629-1.068zM105.975 31.19c.185.092 2.633 2.119 2.817 2.096-1.08-1.068 1.686 1.218-.416-.624-.104-.242.977.491 1.952 1.386-.145 0-1.017-.773-.479-.185.744.468.947.75.832.439 1.2.86 1.333.947 2.118 1.593-1.241-1.293-4.07-3.793-5.999-5.011-1.137-.554-.67.093-.825.306z"/><path fill="#D85B26" d="M77.574 130.734l.242-.052h-.144zM29.104 42.72c.462-.78 1.559-2.177 2.044-2.823-.433.537-1.311 1.472-1.501 1.969l.029-.069-.572.923zM110.415 34.995c.52.467.687.577.986.883 0-.173-.553-.531-.986-.883zM68.042 130.358l-.508-.052c.537-.012.277-.029-.213-.029-.531-.052-.508 0-.595.029h.11c.853.098 1.385.133 1.206.052zM61.517 129.29c-.56-.104-1.103-.265-1.495-.369.669.295.935.277 1.495.369zM91.056 128.407l-1.271.439 1.548-.491zM86.003 129.694c.711-.127 1.352 0 1.912-.352-.197.029-1.403.295-1.912.352zM86.472 129.412l-.104.017-.266.063c.144-.028.237-.052.37-.08z"/><path fill="#D85B26" d="M128.683 65.278c-.364-1.316-.404-.785-.797-2.817.225.791.531.941.092-.999-1.535-4.757-3.077-7.713-5.438-11.605.093-.254-1.646-3.383-2.655-4.827.479.479 1.264 1.536 1.957 2.685-.398-.745-1.225-1.963-1.784-2.87l-.485-.219c-2.667-4.042.843.872-.317-1.028-.751-1.132-1.229-1.386-1.755-2.026 2.431 2.979-.496-.294 1.727 2.898-.398-.404-1.768-2.166-2.564-3.205-.773-1.288.906.918 1.282 1.068-.993-1.207-.854-.964-1.345-1.409-1.393-2.015-3.534-3.591-4.319-4.844-1.241-1.253-1.282-1.045-2.107-1.634-.242-.011 1.894 1.796 2.177 2.448l-.174-.306 1.022 1.12c-.946-1.08.283 0 .843.548.404.398 1.178 1.201 1.011 1.138l-.606-.589c.722.802 1.635 1.761 2.281 2.713l-.347-.283c.878.935 1.749 1.842 2.817 3.447l-.773-.832c.987 1.178 2.938 4.076 3.822 6.322-.099-.242-.289-.687-.133-.444.692 1.229 1.051 2.229.669 1.697.826 1.138 1.923 4.879 2.726 6.576a53.048 53.048 0 0 1 3.065 8.187l-.266-1.004c.045-.83-.054-1.251.374.094zM128.925 67.42l.202.935-.018-.485c-.051-.052-.103-.196-.184-.45zM66.569 17.697l.133-.341c-1.715.306-1.57.508-.641.393-1.553.37-.854-.023-1.899.352.057.116 1.951-.352 2.407-.404z"/><path fill="#D85B26" d="M125.154 54.141c-.104-.468.82 1.356-.266-1.103.081.196.059.075.145.26-.49-1.68-1.079-2.188-1.749-3.528-.329-.825.791 1.259.433.485-.831-1.686-2.736-5.196-2.996-4.908-.751-1.12-.803-1.316-.97-1.698-1.409-1.611-4.799-6.397-5.174-6.033.589.531 1.426 1.495 2.16 2.361l-.197.162c1.057 1.328.283.029 1.779 1.911l-.428-.56c1.253 1.23 2.725 3.915 3.874 5.606-.162-.167.508 1.149.294 1.004.652 1.224 1.306 2.442 1.762 3.02.405.775.964 1.964 1.333 3.021z"/><path fill="#D85B26" d="M122.06 48.101l-.219-.387.19.358zM130.057 74.949l-.041 1.997.052-1.772zM129.081 67.535l.028.335c.029.029.052-.012.041-.185l-.069-.15zM32.88 37.553l-.479.675c.508-.635.56-.733.479-.675zM128.855 64.556zM50.992 22.934c-.081.058-.081.087-.081.087.213-.098.433-.208.618-.3l-.537.213zM129.739 69.966l.254 2.379.098.889c.012-.924-.191-1.986-.352-3.268zM32.562 110.445l-.427-.502-.167-.075zM101.165 55.474c3.713-17.737-36.969-22.355-51.478-14.555-11.212 6.004-7.188 37.453-1.709 47.072-4.197.826-6.819 5.248-6.767 8.465.242 20.236 62.95 23.308 62.997 3.741.018-4.302-3.228-10.456-7.119-11.195 1.241-2.593 2.471-5.19 3.395-8.124 19.919 2.783 20.075-27.621.681-25.404zm-2.026-7.436c.958 25.474-50.012 20.086-52.177 2.708-2.073-16.762 46.057-10.74 52.177-2.708zM50.004 90.364c10.364 10.745 35.987 13.771 45.739.335 27.997 27.599-69.116 23.153-45.739-.335zm39.977 3.049c-24.683 12.984-52.333-14.33-43.36-37.939 9.278 13.522 41.865 16.351 52.165 2.713.699 13.961 1.496 29.804-8.805 35.226zm10.832-27.09c1.633-1.484 4.624-1.466 6.443-.352.017 3.747-3.39 4.064-6.092 5.092-.224-1.484.446-3.816-.351-4.74zm-.33 12.177c.549-1.253.277-3.32.33-5.07 8.336 3.296 12.217-12.893.352-9.821v-5.075c17.35-3.886 14.423 23.188-.682 19.966z"/><path fill="#D85B26" d="M97.771 51.075c-5.18-7.945-26.583-9.388-36.571-8.793-5.745.317-12.552 2.442-12.211 7.783 1.039 15.456 46.033 18.457 48.782 1.01zm-39.296 6.096c-.912.254-.67-.669-1.351-.687.306-.583 1.241-.554 1.351-1.345 1.16.711.132.982 0 2.032zm4.405.682c.595.011.883-.254 1.022-.682 1.143.214.542 2.177 2.026 2.044-.75.618-3.036-.115-3.048-1.362zm.681-2.027c-.681-1.125 2.084-2.887 3.383-2.038-.802.987-1.951 1.657-3.383 2.038zm5.092 2.714c-2.725.058-2.621-5.081 0-5.081-.86 1.975.393 3.805 0 5.081zm4.059-4.752c-.104-1.068.976.86 1.022-.329.797 1.138-1.848 1.75-3.395 1.68.127-.906 3.205-.6 2.373-1.351zm2.038 3.049c-.063 1.894-1.559.242-3.054.675.607-1.316 1.796 0 3.054-.675zm-2.384 3.729c2.24-.849 4.116-.335 7.118-.681-1.517 1.415-5.218.479-7.118.681zm9.481-3.729c.323-.936 1.051-1.455 1.362-2.379-.606-1.305-2.592-1.253-3.725-2.026 1.461-.537 3.817.906 5.411 1.356-.796 1.207-1.963 2.09-3.048 3.049zm14.913-3.724c-1.472 1.691-2.887 3.447-5.081 4.399-5.688-9.908-29.838-10.202-35.9-2.373-2.927-1.253-4.382-3.966-4.758-7.789 13.476-4.601 36.363-4.526 45.739 5.763z"/></svg>