<svg xmlns="http://www.w3.org/2000/svg" width="150" height="150" viewBox="0 0 150 150"><path fill="#3FB38E" d="M58.275 89.138c-8.041 3.156-16.93 1.852-24.788-2.799a18.561 18.561 0 0 0 1.606-.932c.162-.101.335-.224.486-.335.334-.245.675-.463.998-.726.179-.139.34-.306.536-.462.273-.229.558-.463.82-.708.178-.185.346-.374.524-.558.235-.246.469-.48.686-.747.185-.196.335-.402.491-.592.218-.273.407-.529.608-.792.151-.217.295-.44.435-.669a15.27 15.27 0 0 0 .904-1.522c.156-.284.296-.563.429-.869.111-.229.218-.486.324-.731.117-.296.229-.58.346-.87.078-.262.167-.523.246-.78.089-.308.178-.603.256-.927.067-.261.128-.518.178-.78.067-.307.117-.624.156-.948.039-.262.095-.529.134-.803.022-.306.034-.636.062-.953.011-.268.022-.553.022-.815.017-.334 0-.658-.022-.992 0-.273-.011-.531-.039-.787a8.619 8.619 0 0 0-.145-1.043 12.404 12.404 0 0 0-.09-.753c-.078-.374-.178-.764-.267-1.132-.067-.217-.106-.429-.168-.646a15.553 15.553 0 0 0-.625-1.768C37.091 49.744 12.85 45.914 14.685 32.892c0 0-17.238 19.345-7.373 43.598 3.485 8.565 12.397 13.289 21.136 11.599-5.945-4.667-11.014-11.309-14.221-19.456-3.586-9.124-4.205-18.458-2.348-26.579a43.648 43.648 0 0 0-.552 6.91v.122c0 .597 0 1.188.039 1.796l.033.747c.017.307.039.607.056.915.022.128.022.262.022.374.011.117.044.234.056.34.407 4.305 1.433 8.705 3.134 13.066 1.768 4.484 4.088 8.488 6.815 11.984 0 0 .039.057.05.078 0 0 .028.017.028.033 2.811 3.569 6.034 6.587 9.508 8.963.012-.028.039-.028.051-.028 2.041 1.383 4.171 2.571 6.363 3.485 8.705 2.8 18.392 1.288 25.798-4.438-1.547 1.076-3.209 2.012-5.005 2.737"/><path fill="#5B6EB3" d="M134.051 95.261H41.885a1.879 1.879 0 0 0-1.879 1.886c0 1.037.837 1.884 1.879 1.884H134.05a1.886 1.886 0 0 0 .001-3.77"/><path fill="#3FB38E" d="M145.182 95.289c-37.246 25.652-77.192 25.636-114.411-.028a686.123 686.123 0 0 0 2.878 9.123c.05.168.05.302 0 .391-1.166 1.896-1.746 2.839-2.878 4.696 37.219 25.675 77.165 25.691 114.411.027a449.69 449.69 0 0 1-2.889-4.701c-.062-.072-.051-.206 0-.373a766.405 766.405 0 0 0 2.889-9.135"/><path fill="#5B6EB3" d="M61.744 67.355c-.346 5.293-.836 6.619-.836 11.521 0 3.329.101 3.77 27.275 3.77h.028c27.158 0 27.258-.44 27.258-3.77 0-4.902-.49-6.229-.825-11.521 5.46-.563 10.077-2.95 13.842-6.82 3.418-3.553 4.997-8.505 4.656-13.451-.318-4.461-2.783-9.492-6.073-12.553-5.225-4.862-13.055-6.525-19.937-4.991-5.136-7.25-12.542-9.096-18.921-9.096h-.028c-6.374 0-13.791 1.846-18.938 9.096-6.881-1.534-14.711.128-19.936 4.991-3.279 3.062-5.755 8.092-6.045 12.553-.369 4.946 1.221 9.898 4.628 13.451 3.792 3.87 8.37 6.257 13.852 6.82"/></svg>