<svg xmlns="http://www.w3.org/2000/svg" width="150" height="150" viewBox="0 0 150 150"><path fill="none" d="M59.486 104.588c.711 5.855 1.523 11.64 2.21 17.538 1.885.462 3.876.806 6.069.942-.753-6.034-2.234-11.368-2.881-17.526-1.563-.568-3.342-.9-5.398-.954zM67.439 105.542c.302 5.874.877 11.469.96 17.526 1.66.479 3.959.303 6.058.313-.504-5.855-1.204-11.51-1.589-17.508-2.151.232-3.318-.532-5.429-.331zM80.206 105.542c-1.293.32-2.798.386-4.475.332-.574 5.477-.249 11.865-.628 17.508 1.95-.143 4.605.38 6.052-.313-.225-5.933.574-12.875-.949-17.527zM92.001 103.628c-1.115 6.241-2.46 12.215-3.515 18.498 2.335.095 3.733-.747 5.748-.949 1.12-6.223 1.968-12.683 3.177-18.829-2.015.218-3.265 1.191-5.41 1.28zM83.703 105.233c-.48 6.093-1.274 11.902-1.921 17.835 2.371.148 4.084-.374 6.069-.611.184-6.217.829-11.937 1.28-17.869-2.139-.125-3.36.693-5.428.645zM51.497 102.68c1.807 5.535 2.478 12.203 4.137 17.852 1.577.782 3.781.919 5.441 1.595-.955-6.484-3.088-11.807-4.155-18.184-1.66-.357-3.966-1.755-5.423-1.263zM45.445 99.8c1.138 2.548 1.796 6.128 3.177 10.531 1.416 4.439 2.181 9.851 6.075 9.887-1.642-6.639-4.019-12.602-5.743-19.126-1.126-.274-2.566-1.904-3.509-1.292zM68.399 82.902c14.355-1.15 30.127-1.228 29.973-14.658-3.029 6.063-10.729 9.589-19.771 10.188-9.312.634-21.8-1.434-29.646.32-5.886 1.328-14.029 6.454-8.292 11.818 3.437-8.818 15.996-6.743 27.736-7.668zM104.435 99.152c-1.315.932-3.082 1.394-4.457 2.253-1.387 6.697-3.567 12.601-4.789 19.439a73.337 73.337 0 0 0 5.75-1.907c.502-5.945 4.343-15.494 3.496-19.785z"/><path fill="none" d="M55.319 86.404c-4.486.284-9.453.806-10.52 5.109 3.965 3.212 10.082 1.854 15.635 1.28 19.73-2.045 41.684-4.237 43.367-22.656.32 5.236-1.671 9.065-3.823 11.495-8.434 9.406-26.522 11.38-40.19 14.984 17.514 2.495 39.249-5.323 45.607-17.538 3.07-5.897 1.15-15.004-3.834-17.541-.023-.187-.048-.364-.319-.309-2.935 4.413.723 12.077-2.869 16.255-7.635 9.65-27.093 7.931-43.054 8.921zM104.435 95.016c9.804-.758 18.99-15.604 9.572-22.942-.029.397-.415.438-.332.949.48 6.827-1.861 10.312-4.142 14.028-1.791 2.916-4.179 5.108-5.098 7.965zM108.258 96.937c-1.831 7.29-5.18 14.793-6.371 21.674 1.161-.627 2.341-1.262 3.823-1.588 1.783-7.13 3.537-14.313 5.41-21.378-.064-.236-.255-.355-.64-.303-.45.801-1.221 1.31-2.222 1.595z"/><path fill="none" d="M109.533 73.981c-.451 8.743-7.813 14.35-13.385 17.858-1.849 1.144-4.562 1.926-5.429 4.137 20.039 3.059 29.113-31.994 10.521-36.999v.972c5.133 2.482 8.606 7.739 8.293 14.032z"/><path fill="#3F454A" d="M144.572 78.291a65.464 65.464 0 0 1-2.183 12.778 65.908 65.908 0 0 1-8.308 18.349c-4.28 6.579-10.367 13.295-18.434 18.807-8.02 5.512-18.053 9.762-29.219 11.326-11.161 1.595-23.423.497-34.868-3.966a67.583 67.583 0 0 1-16.275-8.99 68.652 68.652 0 0 1-13.471-13.354 66.273 66.273 0 0 1-9.229-16.814 65.868 65.868 0 0 1-3.959-18.829c-.366-6.458.191-12.942 1.714-19.209a65.615 65.615 0 0 1 7.225-17.795 66.692 66.692 0 0 1 11.918-14.85A69.238 69.238 0 0 1 44.822 14.91c5.5-2.827 11.333-4.898 17.2-6.131 5.885-1.259 11.83-1.698 17.579-1.455 11.534.48 22.214 3.853 30.962 8.819 8.801 4.964 15.689 11.451 20.668 18.018 5 6.579 8.131 13.22 10.04 18.978a64.339 64.339 0 0 1 2.838 12.656c-.599-5.304-1.797-10.543-3.711-15.563-2.82-7.512-7.088-14.524-12.459-20.587a69.077 69.077 0 0 0-19.131-14.995c-7.213-3.829-15.166-6.348-23.34-7.436A71.036 71.036 0 0 0 60.86 8.269a69.652 69.652 0 0 0-22.67 9.506c-6.893 4.454-12.985 10.147-17.839 16.743-4.873 6.55-8.529 13.985-10.699 21.814-2.174 7.826-2.874 16.091-2.097 24.188a66.117 66.117 0 0 0 6.739 23.394 68.083 68.083 0 0 0 14.817 19.611 69.53 69.53 0 0 0 20.951 13.294c15.458 6.365 33.369 6.987 49.299 1.678a70.435 70.435 0 0 0 22.006-11.901 69.854 69.854 0 0 0 16.365-18.741c5.41-10.716 7.782-22.604 6.998-34.15-.009-.002.038 1.605-.158 4.586zM144.298 67.314c-.046-.462-.123-1.01-.188-1.521.13 1.126.266 2.252.337 3.382a73.86 73.86 0 0 0-.149-1.861z"/><path fill="#3F454A" d="M144.446 69.175c.096 1.508.191 3.02.179 4.528-.019-.515-.012-2.098-.179-4.528zM127.764 25.791c.834.859 1.677 1.715 2.465 2.62-.291-.306-1.11-1.248-2.465-2.62zM119.768 18.803zM126.482 24.522a73.254 73.254 0 0 0-4.67-4.119c2.068 1.701 4.089 3.467 5.951 5.388-.386-.395-.8-.809-1.281-1.269zM116.964 16.803c-.313-.216-.688-.436-1.02-.652 1.293.859 2.591 1.712 3.823 2.652a66.569 66.569 0 0 0-2.803-2z"/><path fill="#3F454A" d="M128.279 121.225a71.11 71.11 0 0 1-13.177 10.728 71.118 71.118 0 0 1-20.334 8.795c-7.913 2.04-16.903 2.863-26.262 1.814a71.465 71.465 0 0 1-27.833-9.073c-8.854-5.08-16.856-12.264-22.913-21.047-6.051-8.719-10.082-19.002-11.492-29.676-1.428-10.651-.29-21.648 3.278-31.686 3.539-10.04 9.477-19.087 16.827-26.261 7.332-7.21 16.067-12.544 25.035-15.875a72.7 72.7 0 0 1 26.599-4.475 72.953 72.953 0 0 1 22.735 4.117 71.117 71.117 0 0 1 15.202 7.565c-6.016-3.998-12.582-7.213-19.576-9.222-13.103-3.787-27.388-3.787-40.515.035-13.164 3.787-25.136 11.454-34.05 21.684-4.469 5.13-8.185 10.858-10.977 17.019a68.506 68.506 0 0 0-5.554 19.401c-.895 6.688-.77 13.507.309 20.181a68.424 68.424 0 0 0 6.158 19.286c5.992 12.197 15.688 22.676 27.56 29.734 5.938 3.526 12.399 6.254 19.132 7.972 6.715 1.742 13.709 2.513 20.69 2.312a73.543 73.543 0 0 0 20.542-3.509 73.43 73.43 0 0 0 18.699-9.092c7.913-6.128 14.392-13.833 18.984-22.356-.019 0-.692 1.162-2.134 3.201-1.433 2.075-3.668 5.038-6.933 8.428z"/><path fill="#BF5AA1" d="M35.239 85.13v2.561c4.706 7.325 8.831 17.318 12.755 26.47.93 2.176 1.577 4.907 2.555 6.371 4.03 6.063 18.876 9.382 29.972 8.611 8.884-.604 22.913-4.812 26.149-11.159 1.221-2.389 1.795-5.897 2.863-8.933 1.865-5.275 4.142-11.415 6.376-16.902 1.624-3.978 3.717-6.592 3.823-11.167.153-6.152-3.438-9.569-7-12.737-2.169-6.034-5.938-10.443-11.491-13.078-1.565-7.916-7.243-12.438-14.344-14.354-6.045-1.651-14.468-.412-16.577-6.39 1.221 8.242 13.092 5.827 18.812 9.569-3.403-.648-8.079-.332-10.531.972 10.905-1.233 20.661 2.19 20.731 12.108.071 9.486-7.083 15.398-14.343 17.224-17.016 4.279-44.084-5.9-49.75 10.834zm13.383 25.201c-1.381-4.403-2.039-7.983-3.177-10.531.943-.611 2.383 1.019 3.509 1.292 1.724 6.524 4.101 12.487 5.743 19.126-3.894-.036-4.659-5.447-6.075-9.887zm7.011 10.2c-1.659-5.648-2.33-12.316-4.137-17.852 1.458-.491 3.763.906 5.423 1.263 1.067 6.377 3.2 11.699 4.155 18.184-1.659-.676-3.864-.813-5.441-1.595zm6.063 1.595c-.687-5.898-1.5-11.683-2.21-17.538 2.057.054 3.835.386 5.399.954.646 6.158 2.128 11.492 2.881 17.526a34.087 34.087 0 0 1-6.07-.942zm6.703.942c-.083-6.058-.658-11.652-.96-17.526 2.11-.201 3.278.563 5.429.332.385 5.998 1.085 11.652 1.589 17.508-2.098-.011-4.397.166-6.058-.314zm12.755 0c-1.446.693-4.102.171-6.052.313.38-5.643.054-12.031.628-17.508 1.677.054 3.182-.012 4.475-.332 1.524 4.653.725 11.595.949 17.527zm.628 0c.646-5.933 1.44-11.742 1.921-17.835 2.068.048 3.289-.771 5.429-.646-.451 5.933-1.097 11.652-1.28 17.869-1.986.238-3.699.761-6.07.612zm6.704-.942c1.055-6.283 2.399-12.257 3.515-18.498 2.145-.089 3.396-1.062 5.41-1.28-1.209 6.146-2.057 12.606-3.177 18.829-2.014.202-3.413 1.044-5.748.949zm6.702-1.281c1.222-6.839 3.402-12.742 4.789-19.439 1.375-.859 3.142-1.321 4.457-2.253.848 4.291-2.993 13.84-3.496 19.785a73.616 73.616 0 0 1-5.75 1.907zm10.522-3.823c-1.482.326-2.662.961-3.823 1.588 1.191-6.881 4.54-14.384 6.371-21.674 1.001-.284 1.772-.794 2.223-1.595.385-.053.575.066.64.303-1.874 7.065-3.628 14.249-5.411 21.378zm7.965-44c-.083-.51.303-.552.332-.949 9.418 7.337.231 22.184-9.572 22.942.92-2.856 3.308-5.049 5.099-7.965 2.279-3.716 4.621-7.2 4.141-14.028zm-12.434-14.044c18.592 5.005 9.518 40.057-10.521 36.999.866-2.211 3.58-2.993 5.429-4.137 5.571-3.509 12.934-9.115 13.385-17.858.312-6.294-3.16-11.551-8.292-14.032v-.972zm0 2.252c.271-.056.296.122.319.309 4.984 2.537 6.904 11.643 3.834 17.541-6.358 12.215-28.093 20.033-45.607 17.538 13.667-3.604 31.756-5.578 40.19-14.984 2.152-2.43 4.144-6.259 3.823-11.495-1.683 18.418-23.637 20.611-43.367 22.656-5.554.574-11.67 1.932-15.635-1.28 1.067-4.304 6.034-4.825 10.52-5.109 15.961-.99 35.419.729 43.053-8.919 3.593-4.18-.064-11.844 2.87-16.257zM48.954 78.753c7.847-1.754 20.334.313 29.646-.32 9.043-.599 16.742-4.125 19.771-10.188.154 13.43-15.617 13.507-29.973 14.658-11.741.925-24.3-1.15-27.737 7.669-5.736-5.365 2.407-10.491 8.293-11.819z"/><path fill="#BF5AA1" d="M39.696 77.805c5.132-5.381 17.223-4.291 27.423-5.731 7.272-1.056 14.865-2.937 19.778-6.076 2.317-1.467 5.755-4.563 6.691-7.651 1.47-4.783-1.055-9.432-4.138-10.215 5.839 2.605 3.847 10.573.949 13.724-5.121 5.583-15.321 7.64-25.195 8.283-9.683.642-25.122-.558-25.508 7.666zM60.102 45.267c3.142 1.712 8.227.906 8.944-2.555-.344-.219-1.482-1.233-1.926-.314 1.072 2.184-5.388 2.13-7.018 2.869z"/><path fill="#BF5AA1" d="M44.153 68.245c11.119-1.298 34.684-2.955 41.464-9.583 3.172-3.094 2.786-10.079-1.589-10.201 2.441 1.233 4.291 3.66 3.183 6.707-3.443 9.394-29.877 8.502-40.16 9.874 1.067-6.131 5.85-8.57 10.834-10.834 1.352 2.003 2.27 3.867 4.137 4.771 10.639 5.281 19.392-8.775 11.16-16.581-1.043-.874-2.881-.93-3.515-2.222-.682-2.312-.534-.273 0 .948-.516.042-2.875-.178-1.902.314 1.346-.187 2.098.237 3.188.334 6.531 4.783 4.735 15.123-2.555 16.246-8.6 1.342-14.319-9.395-7.965-14.026-2.952 1.135-4.528 4.65-3.2 8.298-6.483 2.986-14.124 6.492-13.08 15.955zM50.548 24.232c.432.717 2.222.122 3.188.329.51-1.274-1.381-.11-1.286-.972 1.784-.839 2.454 1.523 3.183 2.234 3.426 3.263 4.949 5.097 6.389 11.16.189.827.023 2.717.326 1.263.83-4.09-1.097-8.218-2.863-10.505-1.991-2.537-6.857-8.171-8.937-3.509z"/></svg>