<svg xmlns="http://www.w3.org/2000/svg" viewBox="0 0 2000 2000"><path fill="none" d="M1123.5 1093.2c16.7.5 33.3 1.3 50 2.2-15-2.6-31.7-4.2-49.9-4.7-25.3-.8-53.3.1-82.5 1.8 27.5-.3 54.9-.1 82.4.7zM989.5 1371.1c.4-.1.8-.2 1.3-.2 3.9-.5 7.8-1.4 11.7-2.1 71.5-33.7 132.5-55.9 171.5-175.3-120.7 36-305.6 32.6-415.7 8.4-2.9 3.8-5.6 7.5-8.1 11.4 31.6 48.4 170.5 98.4 195.8 101.7-28.3-1.2-133.1-31-206.3-73.2-.8-.5-1.6-1-2.5-1.4-2.8 9-4.3 18.1-4.1 27 .8 24.7 13.6 46.2 35.2 63.4 33.1 26.5 87.1 42.7 151.1 44.2 22.5.5 45.9-.7 70.1-3.9zM1122.8 1099.1c-38.6 1.9-80.4 5.6-122 10.8-60.6 7.6-120.7 18.4-169.5 31.6-12.8 7.3-24.7 15.1-35.5 23.5 158.9 7.3 345.2-22.6 431.6-47.5-10.4-9.2-25-15.6-43-19.7-19.1-.2-39.7.2-61.6 1.3zM498.1 1046.4c8.3-10.2 16.8-20.6 25.5-31-8.6 10.4-17.2 20.8-25.5 31zM526.9 1011.4c56.6-68.1 117.8-138.3 151.4-188v-.1c-33.6 49.8-94.7 120-151.4 188.1z"/><path fill="#FFA400" d="M681.4 876.8l.7-3.7 3.7.5c17.5 2 36.3 3.6 56 5 1.5-3.3 3-6.5 4.6-9.6-24.1-.5-48.2-1-72.4-1.7-7.5 30.3-13 60.8-17.5 91.5-4.3 30.7-7.4 61.6-7.8 92.5-.6 30.9 1.2 61.7 5.1 92.1 1.9 14.1 4.6 28.1 8 41.9-15.1-81.5-4.3-182.9 19.6-308.5zM979.1 1895.3c0 4.2 0 8.5-.1 12.7 3.7 0 7.3-.1 10.8-.3l-.7-13.2c-3.3.3-6.6.6-10 .8zM891.1 1891.2c35 10.2 56.5 15.1 56.5 15.1 1.4.1 2.6.2 4 .4 0-3.4.1-6.9.1-10.3-7.9-.1-15.8-.4-23.4-1.2-12.6-.8-25-2.1-37.2-4zM1041.1 1092.5c29.2-1.6 57.1-2.6 82.5-1.8-1-43.7-62.1-106.4-62.1-106.4 54.8 12.9 126.6 57.4 186.7 126.6 3.6-1.3 6.8-2.5 9.7-3.7-.2-7.1-.4-14.3-.4-21.4-1.8-15-2.8-30.1-5.2-45.1-3.3-14.8-5.3-29.9-9.5-44.4-4.6-14.4-8.1-29.3-13.7-43.4-5.9-14-10.9-28.4-17.4-42.2l-17.8-35.4c-13.8-.1-27.7-.3-41.5-.4-65.1 9.1-160.2 12.1-247.6 12.4 2.8 75.1 34 159.4 79 206.8 19-.8 38.1-1.3 57.3-1.6z"/><path fill="#FFA400" d="M769.7 1347.9c-.2-5.6-.5-11.3-1.3-17.2-21.6-17.2-34.4-38.7-35.2-63.4-.3-8.9 1.2-18 4.1-27-46.3-27.2-79.2-59.3-70.1-92.1 4.3-7.4 19.7-14.1 41.2-20-13.9-90.6-.1-173.6 30.7-243.5-25.8-.9-43.9-1.9-50.5-2.7-36.5 193.4-64.4 355.7 81.1 465.9z"/><path fill="#FFA400" d="M1429.3 1112.7c-6.8-6.9-13.7-13.7-20.7-20.4.1-3.8-.2-7.2-.3-10.7-28.8-40.6-51.6-64.8-51.6-64.8 14.2 21.2 14.3 64.3 3.7 117.1-22.1-31.4-46.7-61.4-71.4-90.4 10-134.1-43.9-243-119.8-328.4.2-.7.3-1.4.5-2.1-.2-.2-.4-.4-.7-.6 5.5-41.3 11.2-81.5-1-118.4-14-41.6-41.6-79.2-79.4-104.9-4.1-15.8-10.4-30.7-19.1-43.9 5.6 2.3 10.8 5.2 16.1 8.1-8.3-5.1-17-9.8-26.2-13.7 32.6 49.4 34.8 121.5 0 175.7-4.5-3.3-8.9-6.6-13.4-9.8 10.7-40.1-2.1-77.6-23.5-112.1-12.9-21.5-31.2-41.5-51.9-60.8 9.4 10.3 17.8 20.8 24.4 31.9 18.1 29.2 29 61.1 20 95 .5.4 1 .7 1.5 1.1-2.3 7.3-5.2 14.4-8.8 21.3-4.3-2.4-8.5-4.7-12.8-7 5.8-34.8-9.1-65.2-31.2-92.2-56.4-70.7-191.6-110-233.8-190.3-13.4-25.6-16.8-52.7-9.7-79.7 16.2-31.3 41.5-60.7 72.8-85.3 16.9-31.9 46.9-61.9 90.7-87.8-123.9 47-212.9 154.6-209.5 255.4 3.4 136.2 127.4 262.9 80.1 404.5-22.9 67-167.4 224.1-263.2 350.5-59.5-75-32.2-188.8-12.6-222.1-31.8 36.3-245.5 341.3-156.7 648.9 49.1 170.2 235.4 283.5 392 350.9-69-41.1-122.5-96.2-145.5-152.6-104.1-254.4 64.4-395.7 64.4-374.4 0 197.6 117.7 181.5 134.9 78.6-12.8-7.5-25-15.9-36.4-25.5-20.3-17.3-37.6-38-51.2-60.7-19.8-32.8-32-69.4-39-106.9 0-.2-.1-.4-.1-.6-1.3-6.8-2.4-13.7-3.3-20.5-.1-.4-.1-.8-.2-1.3-1-7.3-1.8-14.6-2.4-21.9l-2-34.7.2-34.8 2-34.7 3.7-34.6 4.9-34.4 6.2-34.2 7.5-34 8.6-33.6.9-4.9.3-1.7 1.8-.1 84-4.4c21.2-39.6 47.9-74.2 77.9-102.6 79.2-75 168.5-17.3 168.5-17.3-58.7 6.4-87 52.9-93.5 111.9l32.3-1.7c89.7-4.5 179.4-9.7 269.2-13.6l8.5-.4 3.3 7.9c10.3 24.9 20.7 48.7 29.7 74.4 4.6 12.6 9.2 25.3 12.9 38.2 3.8 12.9 8.3 25.5 11.4 38.6l9.8 39.2 7.2 39.9c3.4 26.9 6.3 54 5.4 81.4.3 7.4-.1 14.7-.8 22.1 78.3 125.8 110.7 304.8-5.4 513.9-68.6 123.6-165.2 183.9-265.9 202 .3 4.4.6 8.9.9 13.4 13.1-2.8 20.1-5.8 20.1-5.8 98.2-35 201-86.5 260.8-144.3 17.8-17.2 32.9-36.1 45.2-56 273.3-189.5 167.1-446.8 78.7-584.3zm-751-289.4v.1c-12.9 57.6-130.4 205.1-205.4 321-67.5-52.8-56.8-149-42.4-178.8-24.4 32.1-173.4 284-79 513.1-7.9-13.3-14.7-27.1-20.1-41.4-93.1-249.3 92.8-508.9 120.8-540-16.9 28.2-37.9 122.9 19.7 182.1 8.4-10.8 17.1-21.8 26.2-33 8.3-10.2 16.8-20.6 25.5-31 1.1-1.3 2.2-2.7 3.3-4 56.7-68.1 117.8-138.3 151.4-188.1 0 .1 0 .1 0 0z"/><path fill="#FFA400" d="M952.2 880.6c75.1-2.8 142.4-1 193.9-5.7-69.6-.5-139.2-1.1-208.7-2.1-11-.2-22-.4-32.9-.6 0 3.2 0 6.4.1 9.7 15.9-.4 31.8-.8 47.6-1.3zM478.5 827.9c2.6-3 4.2-4.7 4.2-4.7-1.7 1.1-3 2.7-4.2 4.7z"/><path fill="#F6B561" d="M1429.3 1112.7c-7.2-11.2-14.3-21.6-21-31.1.2 3.5.4 7 .3 10.7 7 6.7 13.9 13.5 20.7 20.4zM720.2 212.7c-7.1 27.1-3.8 54.2 9.7 79.7 42.2 80.2 177.4 119.5 233.7 190.1 22.2 27 37 57.4 31.2 92.2 4.3 2.3 8.5 4.6 12.8 7 3.6-6.9 6.5-14 8.8-21.3-.5-.4-1-.7-1.5-1.1 9-34-1.8-65.8-20-95-6.6-11.1-15.1-21.6-24.4-31.9-55.3-60.6-149.3-110.4-176.3-182.5-22.7-60.7 3.8-123.6 83.1-170.4-31.2 11.8-59.6 28.4-84.3 47.9-31.3 24.6-56.5 54-72.8 85.3z"/><path fill="#F4B919" d="M1289.4 1687.9c116-209 83.7-388.1 5.4-513.9-.6 6.3-1.4 12.6-2.2 18.9-1 7-1.3 13.4-2.8 20.8-1.6 6.5-2.8 12.8-4.6 19.5-7.5 27.6-18.9 52.9-35.1 76-16 23-36.7 42.7-59.8 57.8-21.3 14-44.4 24.4-68.1 32.5 60.7 54.6 161.1 229 32 388.8-42.4 52.4-87.2 82.1-130.9 96.6.1 1.6.2 3.3.3 4.9 100.6-18 197.2-78.3 265.8-201.9zM708.5 1128.2c24.2-6.6 56.2-12.3 89.5-17 61.6-8.7 123.6-14.3 185.7-17-45-47.4-76.2-131.7-79-206.8-64.5.2-124.6-1.1-165.5-2.6-30.8 69.7-44.6 152.8-30.7 243.4zM919.5 1374.9c-64-1.6-118-17.8-151.1-44.2.7 5.9 1.1 11.6 1.3 17.2 2.8 2.2 5.7 4.3 8.7 6.5 4.7 2.8 9.4 5.7 14.3 8.2 46.6 24.1 99.4 36 152.3 37.4-6.9-10.2-16.5-18.6-25.5-25.1zM904.6 881.8c-.1-3.2-.1-6.5-.1-9.7-52.7-1-105.3-2.1-158-3.3-1.6 3.2-3.1 6.4-4.6 9.6 50.2 3.4 106.4 4.4 162.7 3.4zM954.5 1425.6c-5.5-.1-11.1-.3-16.6-.6 3.5 4.9 6.3 10.2 8.4 15.7 1.9 4.7 3.3 9.6 4.6 14.4 2.4-8.6 3.9-17.2 3.9-25.9 0-1.1-.2-2.4-.3-3.6zM1218.8 1098.6c-10.6-.6-22.3-.9-34.4-.9 18 4.2 32.6 10.6 43 19.7 7.7-2.2 14.7-4.4 20.7-6.5-60.1-69.2-131.9-113.7-186.7-126.6 0 0 61.2 62.8 62.1 106.4 18.2.6 34.9 2.1 49.9 4.7 15.2 1 30.3 1.9 45.4 3.2zM999.6 736s-89.3-57.8-168.5 17.3c-30 28.4-56.7 63-77.9 102.6l152.9-8c6.5-58.9 34.7-105.4 93.5-111.9zM744.3 1198.5c.8 4.8 2.8 9.8 6 14.7 2.4-3.8 5.2-7.6 8.1-11.4-4.9-1-9.6-2.1-14.1-3.3zM790.9 1153.8c-8.7 3.1-15.9 6.3-22 9.6 8.9.7 17.9 1.2 26.9 1.6 10.8-8.4 22.6-16.2 35.5-23.5-14.5 3.9-28.1 8-40.4 12.3zM989 1893.6c-3.3.5-7 1-10 1.3v.4c3-.2 6.7-.5 10-.8v-.9z"/><path fill="#F4B919" d="M1126.1 1476.2c6.3-34.8-2.3-59.2-11.2-74-17.3 5.7-35 9.4-52.7 12.5 40.1 33.7 62.6 68.6 63.9 61.5zM632.8 1300.7c0-21.3-168.5 120-64.4 374.4 23.1 56.4 76.5 111.5 145.5 152.6 52.2 31.1 113.3 54.1 177.2 63.6 12.3 1.8 24.6 3.2 37.1 3.9-79.3-8.6-143.6-55.7-164.8-84.3-82.2-110.1 123.1-221.6 178.3-331.9-1.3-6-2.6-12-4.7-17.7-1-3.1-1.9-6.3-3.1-9.3l-4.1-8.8c-4.1-7.9-9.7-15.2-16.8-20.4-13.6-1.6-27.2-3.7-40.6-6.7-1.5-.3-3-.8-4.4-1.1-23.3-4.4-46.4-10.8-68.1-19.8-11.1-4.6-21.7-10-32-15.9-17.5 102.9-135.1 119-135.1-78.6zM1008.2 1378.7c8.6 4.3 16.8 9 24.5 14.1 37.6-7.2 73.9-19.7 106.6-38.7 25.7-14.9 48.8-33.8 67.4-56.3 18.8-22.4 32.3-48.8 39.6-77.1.9-4.5 2-9 3-13.6-37.4 92.2-142.8 157-241.1 171.6zM994.7 1372.5c2.6-1.3 5.2-2.5 7.8-3.7-3.9.7-7.8 1.6-11.7 2.1 1.3.5 2.6 1.1 3.9 1.6z"/><path fill="#E63D25" d="M763.3 1810.9c21.3 28.6 82.7 75.7 162.1 84.3 7.7.8 20.7 1.2 20.7 1.2v-.4c0-6.1 2.7-12.2 2.7-18.3l.8-40c0-13.6.7-26.7.9-40.1l1.5-79.8c.6-26.6 1.2-53.1.8-79.6l-.2-39.8-2-39.6c-.7-13.3-1.1-26.3-2.8-39.6-.6-6.7-1.4-13.2-2.5-19.6-1-6.5-1.9-13-3.5-19.3-.1-.4-.2-.9-.3-1.3-55.1 110.3-260.4 221.8-178.2 331.9zM976.1 1381.7c6.2-3.2 12.4-6.3 18.6-9.2-1.3-.5-2.6-1.1-3.9-1.6-.4.1-.8.2-1.3.2-24.2 3.2-47.7 4.3-70 3.8 9 6.5 18.5 14.8 25.4 25 7.4.2 14.9.2 22.3 0 21.9-.7 43.9-3 65.5-7.1-7.7-5-15.9-9.8-24.5-14.1-10.8 1.6-21.5 2.7-32.1 3zM1154.1 1788.4c129.1-159.8 28.7-334.2-32-388.8-2.1.7-4.1 1.5-6.2 2.2-.4.1-.7.2-1.1.3 8.9 14.9 17.5 39.3 11.2 74-1.3 7.1-23.8-27.7-63.9-61.5-5.9 1-11.8 2-17.7 2.9-.2.3-.5.6-.7.9-3.7 5.3-6.5 11.3-9 17.3-5 12.1-8.6 24.7-11.6 37.4-5.9 25.5-9.4 51.6-11.7 77.7-4.8 52.2-5 104.9-1.4 156.9 4.4 52.7 8 105.5 11.8 158.1.5 6.5.9 12.8 1.3 19.2 43.8-14.5 88.6-44.1 131-96.6zM986.9 1853.6l-6.9-146-1.9-73.2c-.6-24.4-.7-48.8-.7-73.3.1-24.5.5-48.9 2.1-73.4.7-12.2 1.8-24.5 3.4-36.7 1.3-8.7 2.5-17.4 4.9-26.1-6.7.4-13.4.8-20.1.9-4.4.1-8.9-.1-13.3-.2.1 1.2.3 2.5.3 3.7 0 8.6-1.4 17.2-3.9 25.9.3 1.1.8 2.2 1.1 3.3 6.2 24.2 8.3 49 10.9 73.7 1.7 14.2 2.9 29.5 4.1 45.3l1.3 14.3c1 9.9 1 19.9 1.6 29.9l1.2 21.4c1.9 24.9 3.1 49.8 4.1 74.6 1.1 25.6 1.5 51 2 76.5l.2 7c.3 10 .8 19.8.8 30l.2 29.6.4 16.5c.1 5.9.2 11.8.3 17.6 3.3-.4 6.6-.8 9.9-1.3l-2-40z"/><path fill="#F6B561" d="M1088.7 488.9c37.8 25.7 65.4 63.3 79.4 104.9 12.2 37 6.5 77.1 1 118.4.2.2.4.4.7.6 12.1 10.4 23.7 21.3 34.8 32.8-9.4-12.7-19.3-24.9-29.8-36.6 9.5-40.5 18.9-79.8 11.2-117.8-11.8-57-47.2-109.4-100.5-138.1-5.3-2.8-10.5-5.7-16.1-8.1 8.9 13.2 15.3 28.2 19.3 43.9zM523.6 1015.4c-8.6 10.4-17.2 20.8-25.5 31-9.1 11.2-17.9 22.2-26.2 33-57.7-59.2-36.6-153.9-19.7-182.1-28 31.1-213.9 290.7-120.8 540 5.4 14.4 12.2 28.2 20.1 41.4-94.5-229.1 54.6-480.9 79-513.1-14.4 29.8-25.1 126 42.4 178.8 75-115.8 192.5-263.4 205.4-321v-.1c-33.6 49.8-94.7 119.9-151.4 188-1.1 1.4-2.2 2.8-3.3 4.1z"/><path fill="#EB2026" d="M1227.4 1117.4c-86.4 25-272.6 54.9-431.6 47.5-9.1-.4-18.1-.9-26.9-1.6 6.1-3.3 13.3-6.5 22-9.6 12.2-4.3 25.9-8.4 40.4-12.3 48.9-13.2 108.9-24 169.5-31.6 41.6-5.2 83.4-8.9 122-10.8 21.8-1.1 42.4-1.5 61.6-1.4 12.1.1 23.8.3 34.4.9-15.1-1.3-30.2-2.3-45.3-3.1-16.7-1-33.3-1.7-50-2.2-27.5-.9-54.9-1.1-82.4-.7-19.2.2-38.3.8-57.5 1.6-62.1 2.7-124.1 8.3-185.7 17-33.3 4.7-65.3 10.4-89.5 17-21.5 5.9-36.9 12.6-41.2 20-9.1 32.8 23.7 65 70.1 92.1.8.5 1.6.9 2.5 1.4 73.1 42.2 178 72 206.3 73.2-25.2-3.3-164.1-53.2-195.8-101.7-3.2-4.9-5.2-9.9-6-14.7 4.5 1.1 9.2 2.3 14.1 3.3 110.1 24.2 294.9 27.6 415.7-8.4-39 119.5-100 141.6-171.5 175.3-2.6 1.2-5.2 2.5-7.8 3.7-6.1 2.9-12.3 6-18.6 9.2 10.5-.4 21.3-1.4 32.1-3 98.2-14.6 203.6-79.4 241.2-171.7 9.8-24.1 14.9-50.1 14.1-77.5 0-1.5 0-3.1-.1-4.6l-1.1-19.6c-1.3.6-3 1.2-4.5 1.9-2.9 1.2-6.2 2.4-9.7 3.7-6.1 2.3-13 4.5-20.8 6.7z"/></svg>