<svg xmlns="http://www.w3.org/2000/svg" width="150" height="150" viewBox="0 0 150 150"><path fill="none" d="M106.851 95.406c-4.531 11.191-16.796 10.069-16.796 10.069 3.844-14.276 4.825-16.992 12.695-21.342 6.309-3.482 9.517-7.998 18.288-17.964.026-.653.097-1.296.097-1.954 0-7.06-1.538-13.748-4.223-19.786-4.167 6.034-6.378 15.233-8.31 22.757-1.998 7.771-10.173 8.111-10.173 8.111 1.275-9.735 1.682-11.613 6.478-15.171 4.222-3.124 5.887-6.749 11.997-15.711-2.843-6.389-6.999-12.024-12.142-16.534-2.493 5.063-3.152 12.29-3.78 18.233-.644 6.138-6.821 7.321-6.821 7.321-.127-7.553-.035-9.029 3.216-12.275 2.86-2.854 3.718-5.797 7.358-13.307-8.14-7.134-18.671-11.468-30.189-11.468-25.173 0-45.697 20.621-46.508 46.27 10.607 11.849 13.827 16.865 20.67 20.642 7.87 4.349 8.854 7.071 12.697 21.342 0 0-12.267 1.119-16.795-10.069-4.311-10.658-9.346-23.67-16.575-31.876-.017.511-.076 1.008-.076 1.524 0 26.359 20.9 47.811 46.587 47.811 24.938 0 45.297-20.227 46.476-45.521-5.971 8.166-10.354 19.458-14.171 28.898zM42.854 66.355c-1.995-7.771-4.264-17.358-8.702-23.368 6.468 9.427 8.078 13.109 12.396 16.307 4.8 3.554 5.203 5.433 6.478 15.172 0 0-8.17-.341-10.172-8.111zm7.622-21.078c-.648-6.133-1.29-13.686-3.987-18.759 3.862 7.903 4.666 10.884 7.593 13.809 3.251 3.242 3.343 4.723 3.217 12.266 0 .001-6.178-1.178-6.823-7.316zm24.637 63.535c-6.111 0-14.047-1.045-14.047-2.336 0-1.175 7.058-2.145 12.37-2.314h.023V88.246c-16.818-.694-19.263-15.625-19.281-15.782-.062-.308-1.526-8.679 3.537-17.24 4.604-7.794 3.805-19.904 3.795-20.027l-.097-1.411h27.402l-.097 1.411c-.011.123-.793 12.247 3.799 20.027 5.06 8.556 3.598 16.932 3.528 17.292-.019.104-2.455 15.029-19.277 15.729v15.915c5.612.164 12.392 1.135 12.392 2.314.001 1.293-7.937 2.338-14.047 2.338z"/><path fill="none" d="M86.035 36.418H64.202c.081 3.597-.124 13.212-4.217 20.15-4.545 7.676-3.223 15.389-3.208 15.465.068.463 1.428 8.475 9.428 11.981-5.678-3.88-6.627-10.221-6.627-10.221s-1.349-7.297 3.019-14.679c4.361-7.382 5.319-18.636 5.319-18.636v.01h18.188a48.937 48.937 0 0 1-.069-4.07z"/><path fill="#311D10" d="M125.413 64.216c0-1.988-.132-3.937-.341-5.858a14.156 14.156 0 0 1-.497-3.322C120.33 30.616 99.535 12 74.546 12c-24.981 0-45.772 18.607-50.022 43.016a14.11 14.11 0 0 1-.502 3.36 54.093 54.093 0 0 0-.338 5.839c0 28.777 22.819 52.201 50.862 52.201 28.042.001 50.867-23.423 50.867-52.2zm-50.867 47.81c-25.687 0-46.587-21.451-46.587-47.811 0-.516.06-1.013.076-1.524-.362-.407-.706-.871-1.079-1.254.393.435.705.795 1.082 1.216.812-25.649 21.335-46.27 46.508-46.27 11.519 0 22.05 4.334 30.189 11.468.083-.175.149-.322.236-.497-.083.156-.128.36-.209.525 5.143 4.51 9.299 10.146 12.142 16.534.145-.208.258-.378.405-.596-.141.189-.261.417-.397.61 2.685 6.038 4.223 12.726 4.223 19.786 0 .658-.07 1.301-.097 1.954a413.789 413.789 0 0 1 3.466-3.895c-1.228 1.268-2.373 2.716-3.482 4.23-1.179 25.298-21.538 45.524-46.476 45.524z"/><path fill="#FBAF1C" d="M76.77 104.161V88.246c16.822-.7 19.259-15.625 19.277-15.729.069-.36 1.531-8.736-3.528-17.292-4.592-7.78-3.81-19.904-3.799-20.027l.097-1.411H61.414l.097 1.411c.01.123.81 12.233-3.795 20.027-5.063 8.561-3.599 16.932-3.537 17.24.019.156 2.463 15.087 19.281 15.782v15.915h-.023c-5.312.17-12.37 1.14-12.37 2.314 0 1.291 7.936 2.336 14.047 2.336 6.109 0 14.048-1.045 14.048-2.336-.001-1.18-6.78-2.151-12.392-2.315zm-8.854-63.673v-.01s-.958 11.254-5.319 18.636c-4.368 7.382-3.019 14.679-3.019 14.679s.949 6.341 6.627 10.221c-8-3.506-9.36-11.518-9.428-11.981-.015-.076-1.337-7.79 3.208-15.465 4.093-6.938 4.297-16.553 4.217-20.15h21.833c-.027.975-.027 2.385.069 4.07H67.916z"/><path fill="#6AA543" d="M129.931 67.367h-1.077c0 29.274-23.193 53.086-51.709 53.086v1.104c29.103.001 52.786-24.31 52.786-54.19z"/><path fill="#6AA543" d="M136.799 92.959c-11.741-2.621-15.37 7.26-15.37 7.26 9.909 3.767 15.37-7.26 15.37-7.26zM127.826 105.937c-11.355-4.014-16.095 5.366-16.095 5.366 9.423 4.922 16.095-5.366 16.095-5.366zM127.826 87.735c10.346 2.205 14.15-9.521 14.15-9.521-11.98-.805-14.15 9.521-14.15 9.521zM129.372 65.395c7.505-9.729-2.227-19.739-2.227-19.739-2.025 3.545-2.657 6.687-2.57 9.379.041 1.202.215 2.309.497 3.322 1.242 4.491 4.3 7.038 4.3 7.038zM144.573 62.995c-12.002.392-13.183 10.884-13.183 10.884 10.501 1.174 13.183-10.884 13.183-10.884zM98.721 118.855c7.645 7.485 16.911-.417 16.911-.417-9.763-7.179-16.911.417-16.911.417zM20.25 67.367h-1.082c0 29.88 23.688 54.19 52.791 54.19v-1.104c-28.511 0-51.709-23.811-51.709-53.086z"/><path fill="#6AA543" d="M12.3 92.959s5.473 11.027 15.382 7.26c.001 0-3.643-9.881-15.382-7.26zM21.272 105.937s6.687 10.288 16.097 5.366c.001 0-4.739-9.38-16.097-5.366zM21.272 87.735s-2.167-10.326-14.146-9.521c0 0 3.799 11.726 14.146 9.521zM21.952 45.656s-9.732 10.009-2.227 19.739c0 0 3.05-2.537 4.297-7.018a14.11 14.11 0 0 0 .502-3.36c.082-2.689-.552-5.822-2.572-9.361zM17.714 73.879S16.533 63.387 4.525 62.995c0 0 2.688 12.058 13.189 10.884zM50.378 118.855s-7.141-7.597-16.919-.417c-.001 0 9.274 7.903 16.919.417zM53.324 122.621c-18.939 1.817-35.123 6.143-45.784 11.949 11.314-3.61 25.916-6.298 42.368-7.628 3.042 1.235 10.569 3.326 15.323-3.631-.001.001-5.492-3.88-11.907-.69zM83.873 123.312c4.564 6.702 11.723 5.007 14.963 3.768 15.792 1.373 29.812 3.994 40.76 7.486-10.2-5.552-25.444-9.739-43.328-11.688-6.619-3.646-12.395.434-12.395.434zM61.405 104.638c-3.843-14.271-4.827-16.993-12.697-21.342-6.843-3.776-10.063-8.792-20.67-20.642-.376-.421-.689-.781-1.082-1.216.374.383.717.847 1.079 1.254 7.229 8.206 12.264 21.218 16.575 31.876 4.528 11.189 16.795 10.07 16.795 10.07zM46.548 59.294c-4.318-3.198-5.928-6.88-12.396-16.307 4.438 6.01 6.708 15.597 8.702 23.368 2.002 7.77 10.172 8.111 10.172 8.111-1.276-9.739-1.678-11.618-6.478-15.172zM54.082 40.328c-2.927-2.925-3.731-5.906-7.593-13.809 2.698 5.073 3.339 12.625 3.987 18.759.646 6.138 6.823 7.316 6.823 7.316.125-7.544.034-9.025-3.217-12.266zM102.75 84.134c-7.87 4.35-8.852 7.065-12.695 21.342 0 0 12.265 1.122 16.796-10.069 3.817-9.44 8.2-20.732 14.171-28.9 1.109-1.514 2.255-2.962 3.482-4.23a413.789 413.789 0 0 0-3.466 3.895c-8.771 9.964-11.979 14.479-18.288 17.962zM104.907 60.127c-4.796 3.559-5.202 5.437-6.478 15.171 0 0 8.175-.341 10.173-8.111 1.932-7.524 4.143-16.724 8.31-22.757.137-.194.257-.421.397-.61-.147.218-.261.388-.405.596-6.11 8.963-7.775 12.587-11.997 15.711zM94.161 53.436s6.178-1.183 6.821-7.321c.628-5.943 1.287-13.169 3.78-18.233.081-.166.126-.37.209-.525-.087.175-.153.322-.236.497-3.641 7.51-4.498 10.454-7.358 13.307-3.251 3.246-3.343 4.722-3.216 12.275z"/></svg>