<svg xmlns="http://www.w3.org/2000/svg" viewBox="0 0 2000 2000"><path fill="#ACD496" d="M1383 1839s100.7 81.3 139-19.1c23.3-61.3-217-167-483-166.5v84.2c101 10.4 221.9 39.8 344 101.4zM545.2 1824.7s164.8-92.2 404.8-91.5v-75.6c-139 13.4-291.5 61.5-404.8 167.1zM1613.7 905.1c97.9-2.8 138.6-97 138.6-97-48.5-20.2-89.2-21.5-122.3-13.4.8-13.3 1.3-26.7 1.3-40.2 0-263.2-159.6-489.1-387.3-586.3 27.8-26.2 40.3-55.1 40.3-55.1-82.4-34.3-142-14.1-180.5 13.7-35.7-6.2-72.4-9.6-109.9-9.6-273.2 0-506.1 171.9-596.8 413.4-37.1-16.5-86.6-22.1-149.5 4.1 0 0 36.1 82.7 121.2 95.4-8 40.3-12.2 81.8-12.2 124.4 0 337.2 264.4 613 593.4 635.7V974h-2.5c-41.6 0-73.5-39.2-73.5-80.7V468h38v342h26V468h38v342h38V468h25v342h38V468h38v425.3c0 41.6-33.2 80.7-74.8 80.7h-1.2v416.1c278-19.2 510.3-219.6 574.7-485zM735.3 460.2c88.5 25.8 72.2 108.2 72.2 108.2-95.7-22.4-72.2-108.2-72.2-108.2zM604.4 599.7c161-67.1 234.8 73.8 234.8 73.8-167.8 80.5-234.8-73.8-234.8-73.8zM912.1 1227c-167.7 80.5-234.8-73.8-234.8-73.8 161-67.1 234.8 73.8 234.8 73.8zm-31.6-105c-95.7-22.5-72.2-108.2-72.2-108.2 88.5 25.7 72.2 108.2 72.2 108.2zm473.9-478.7s-23.8 57.1-106.5 62.8c0 0 27.3-76.9 106.5-62.8zm-176.7 257.3s-16.3-82.4 72.2-108.2c0 0 23.5 85.7-72.2 108.2zm123.1-620.4s17.4 167.4-168.2 179.6c-.1 0-5-158.9 168.2-179.6zm-154.7 725.4s73.8-140.9 234.8-73.8c0 0-67.1 154.3-234.8 73.8z"/><path fill="#DBC5B9" d="M994.5 1391.8c-14.8 0-31.5-.7-44.5-1.7V1886h89v-495.9c-13 1-29.7 1.7-44.5 1.7z"/><path fill="#FFF" d="M1040.2 974c41.6 0 74.8-39.2 74.8-80.7V468h-38v342h-38V468h-25v342h-38V468h-38v342h-26V468h-38v425.3c0 41.6 32 80.7 73.5 80.7h2.5v416.1c13 1 29.7 1.7 44.5 1.7s31.5-.7 44.5-1.7V974h1.2z"/><path fill="#FFFFFE" d="M1300.8 280.2c-173.2 20.7-168.2 179.6-168.2 179.6 185.5-12.2 168.2-179.6 168.2-179.6zM1146.1 1005.6c167.7 80.5 234.8-73.8 234.8-73.8-161-67.1-234.8 73.8-234.8 73.8zM1177.7 900.6c95.7-22.5 72.2-108.2 72.2-108.2-88.5 25.7-72.2 108.2-72.2 108.2zM677.3 1153.1s67.1 154.3 234.8 73.8c0 .1-73.8-140.8-234.8-73.8zM808.3 1013.7s-23.5 85.8 72.2 108.2c0 .1 16.3-82.4-72.2-108.2zM839.1 673.5s-73.8-140.9-234.8-73.8c.1 0 67.1 154.3 234.8 73.8zM807.5 568.5s16.3-82.4-72.2-108.2c0-.1-23.5 85.7 72.2 108.2z"/><path fill="#ACD496" d="M1651.4 962.4c20.1 80.5 80.5 93.9 80.5 93.9 0-80.5-80.5-93.9-80.5-93.9z"/><path fill="#FFFFFE" d="M1247.9 706.1c82.8-5.7 106.5-62.8 106.5-62.8-79.2-14.1-106.5 62.8-106.5 62.8z"/><path fill="#ACD496" d="M918 1427.8s-115.1-9.5-136.5 115.3c0 0 120.6 18.8 136.5-115.3zM1066.5 1417.6s30.2 111.4 154.8 89.2c0 0-23.3-119.9-154.8-89.2zM267.7 782.9s60.4-13.4 80.5-93.9c0-.1-80.5 13.3-80.5 93.9z"/></svg>