<svg xmlns="http://www.w3.org/2000/svg" width="100" height="100" viewBox="0 0 100 100"><path fill="#231F20" d="M64.178 84.809c0 .488-.451.807-.822 1.047-.398.24-.822.421-1.256.583-.865.318-1.76.547-2.656.748-1.799.365-3.626.583-5.453.736a56.436 56.436 0 0 1-10.994-.213c-1.831-.261-3.657-.532-5.441-1.287-.437-.217-.897-.425-1.291-.925-.197-.265-.318-.682-.161-1.072.146-.342.378-.538.586-.703.874-.603 1.783-.814 2.689-1.043 3.629-.792 7.306-.887 10.951-.705-1.823.113-3.641.231-5.44.472-1.799.213-3.598.488-5.322.973-.842.248-1.728.539-2.35.996-.15.11-.256.244-.284.327-.015.043-.019.126.06.22.173.221.563.44.945.603 1.59.649 3.409.934 5.18 1.165 3.578.448 7.212.531 10.833.434a47.306 47.306 0 0 0 5.408-.453c.898-.122 1.789-.275 2.658-.52a7.428 7.428 0 0 0 1.264-.464c.38-.196.841-.448.896-.919z"/><path fill="#231F20" d="M59.932 83.938c0 .339-.313.563-.568.736-.275.165-.57.295-.869.405-.602.224-1.221.39-1.842.531-1.248.261-2.512.417-3.783.523-2.536.209-5.09.169-7.634-.13-1.267-.185-2.535-.374-3.783-.901-.311-.154-.63-.3-.917-.661a.966.966 0 0 1-.154-.358l-.012-.109-.003-.028a.36.36 0 0 1 .003-.055v-.004l.004-.032.008-.059c.008-.031.02-.079.035-.117.114-.292.276-.402.425-.528.622-.429 1.252-.57 1.882-.729 2.523-.54 5.078-.594 7.605-.448-1.263.09-2.523.177-3.771.354-1.244.149-2.492.346-3.681.685-.578.173-1.192.382-1.613.689-.205.192-.209.205-.142.314.11.142.374.291.634.401 1.094.44 2.354.638 3.579.799 2.476.311 4.995.37 7.503.314a31.735 31.735 0 0 0 3.746-.303c.619-.078 1.24-.181 1.844-.347a5.08 5.08 0 0 0 .877-.314c.267-.131.582-.3.627-.628z"/><path fill="#90278E" d="M37.178 43.849c0 .015 0 .007 0 0zM75.885 23.067c.332-.087.658-.181.984-.276l.072-.098c-.359.103-.717.197-1.07.287-2.775.697-5.604 1.146-8.438 1.492-5.68.653-11.399.842-17.104.779-5.708-.075-11.412-.437-17.053-1.197-2.818-.377-5.629-.85-8.361-1.566-1.362-.358-2.712-.78-3.968-1.338-.63-.28-1.237-.603-1.744-.992-.512-.382-.902-.874-.882-1.275-.016-.398.37-.894.882-1.272.507-.39 1.118-.713 1.744-.992 1.255-.563 2.606-.98 3.968-1.342 2.732-.712 5.543-1.188 8.361-1.563 5.641-.755 11.346-1.122 17.053-1.197 5.708-.066 11.424.126 17.104.78 2.834.346 5.662.795 8.438 1.488 1.377.35 2.756.76 4.061 1.327.41.181.805.386 1.189.61l.016-.023a11.15 11.15 0 0 0-1.186-.623c-1.311-.586-2.68-1.007-4.066-1.374-2.766-.725-5.594-1.2-8.432-1.579-5.672-.764-11.4-1.13-17.124-1.205-5.732-.063-11.471.123-17.179.787-2.854.347-5.7.799-8.511 1.5-1.401.358-2.799.771-4.161 1.362-.677.299-1.35.638-1.984 1.11-.315.24-.622.512-.886.866a2.772 2.772 0 0 0-.338.602 2.259 2.259 0 0 0-.138.737c.004.519.217.987.477 1.338.264.354.575.626.886.866.634.472 1.307.811 1.988 1.11 1.358.591 2.756 1 4.157 1.358 2.811.705 5.657 1.158 8.511 1.508 5.708.653 11.447.846 17.179.783 5.728-.075 11.452-.445 17.124-1.205 2.837-.376 5.665-.852 8.431-1.573z"/><path fill="#90278E" d="M50.33 31.803c-4.913-.075-9.826-.394-14.675-1.063-2.425-.331-4.838-.755-7.185-1.37-1.173-.308-2.33-.662-3.409-1.142-.535-.24-1.05-.512-1.484-.838-.433-.307-.748-.771-.732-.996-.012-.37.299-.725.732-1.063.434-.327.949-.603 1.484-.839.445-.197.91-.366 1.378-.523a53.179 53.179 0 0 1-2.011-.469c-.531.244-1.059.516-1.563.894a3.747 3.747 0 0 0-.78.764 2.31 2.31 0 0 0-.303.54 2.105 2.105 0 0 0-.122.626c0 .543.193.909.425 1.24.232.315.504.551.78.764.551.409 1.138.708 1.724.969 1.177.512 2.386.874 3.594 1.185 2.425.606 4.881.98 7.341 1.271 4.925.555 9.869.708 14.806.646 4.932-.078 9.866-.397 14.747-1.071a63.179 63.179 0 0 0 6.691-1.244l.043-.063c-2.225.527-4.486.874-6.754 1.146-4.889.545-9.815.702-14.727.636z"/><path fill="#90278E" d="M50.33 36.086c-4.204-.075-8.404-.362-12.554-.941-2.07-.283-4.133-.653-6.137-1.177-.996-.264-1.984-.571-2.901-.976-.453-.201-.894-.437-1.252-.709-.366-.271-.61-.61-.591-.814-.02-.201.225-.543.591-.811.122-.09.264-.177.397-.256a38.41 38.41 0 0 1-1.429-.414 2.407 2.407 0 0 0-.634.886 1.725 1.725 0 0 0-.114.595c0 .425.177.803.382 1.078.204.28.444.488.685.67.48.362.984.618 1.493.842 1.015.441 2.05.748 3.09 1.016 2.082.519 4.188.834 6.294 1.082 4.216.465 8.452.587 12.68.52 4.219-.075 8.444-.362 12.625-.944a54.864 54.864 0 0 0 5.584-1.04l.049-.066c-1.867.433-3.76.72-5.656.944-4.186.459-8.403.578-12.602.515z"/><path fill="#90278E" d="M50.33 40.188c-3.511-.075-7.015-.326-10.467-.823-1.728-.24-3.448-.551-5.114-.988-.831-.22-1.649-.476-2.409-.811a5.297 5.297 0 0 1-1.023-.582c-.299-.22-.477-.488-.457-.603-.016-.114.157-.382.457-.598.256-.197.567-.362.89-.516-.283-.063-.567-.122-.85-.192-.26-.067-.52-.138-.78-.208a2.665 2.665 0 0 0-.566.559 1.8 1.8 0 0 0-.236.425c-.06.146-.103.401-.098.531 0 .382.157.72.334.957.185.248.386.424.594.582.413.307.838.524 1.264.713.858.37 1.724.629 2.598.85 1.744.433 3.503.693 5.267.897 3.527.378 7.066.465 10.597.397 3.528-.07 7.051-.327 10.538-.822a46.447 46.447 0 0 0 4.588-.859l.049-.066c-1.535.346-3.094.578-4.656.76-3.497.377-7.016.463-10.52.397z"/><path fill="#90278E" d="M50.33 43.561c-2.886-.075-5.763-.295-8.602-.712-1.417-.201-2.826-.46-4.188-.823-.682-.181-1.351-.39-1.965-.661a4.337 4.337 0 0 1-.823-.468c-.24-.174-.354-.382-.334-.414-.016-.032.094-.236.334-.41.182-.142.41-.268.65-.382-.315-.067-.626-.13-.937-.208-.212-.051-.421-.118-.629-.177a2.208 2.208 0 0 0-.308.327 1.454 1.454 0 0 0-.295.851c0 .342.141.642.299.851.158.216.331.366.508.5.351.259.708.437 1.063.594.712.311 1.429.519 2.149.704 1.44.358 2.897.563 4.35.732 2.906.299 5.822.358 8.728.291a73.545 73.545 0 0 0 8.672-.716 38.288 38.288 0 0 0 3.949-.768l.039-.055c-1.318.311-2.666.503-4.008.657-2.878.299-5.771.354-8.652.287z"/><path fill="#231F20" d="M49.602 49.187h1.452v34.885h-1.452z"/><path fill="#90278E" d="M50.33 46.372a59.236 59.236 0 0 1-7.156-.63 29.865 29.865 0 0 1-3.477-.692 10.724 10.724 0 0 1-1.622-.547 3.444 3.444 0 0 1-.666-.382c-.141-.086-.217-.225-.232-.248.003-.043.003-.04 0-.023a.23.23 0 0 1 .035-.059.926.926 0 0 1 .197-.193c.146-.114.331-.216.528-.311a20.478 20.478 0 0 1-.685-.154 16.317 16.317 0 0 1-.827-.236c-.059.063-.119.122-.173.193a1.508 1.508 0 0 0-.185.338c-.047.099-.09.37-.083.394.032.729.441 1.004.712 1.24.303.225.606.374.906.503.602.265 1.204.438 1.807.595 1.208.292 2.425.465 3.638.599 2.428.24 4.857.275 7.282.208a61.784 61.784 0 0 0 7.228-.634 33.098 33.098 0 0 0 3.282-.646l.039-.06c-1.098.26-2.219.414-3.346.54-2.391.24-4.802.272-7.202.205z"/><path fill="#90278E" d="M50.33 48.896a54.286 54.286 0 0 1-6.413-.587 27.472 27.472 0 0 1-3.11-.626c-.503-.138-1-.292-1.445-.492a2.969 2.969 0 0 1-.586-.33c-.111-.083-.161-.162-.181-.193.02-.023.07-.106.185-.185.154-.122.362-.236.583-.334l.004-.004a12.342 12.342 0 0 1-1.465-.465 1.813 1.813 0 0 0-.248.264c-.067.09-.126.196-.177.315-.044.11-.083.323-.075.409 0 .295.122.551.252.724.133.177.271.299.409.406.28.205.551.342.827.461.543.232 1.086.393 1.629.531 1.091.264 2.181.414 3.271.532 2.181.208 4.365.232 6.539.165a54.928 54.928 0 0 0 6.483-.59 30.57 30.57 0 0 0 2.043-.374l.072-.099c-.709.126-1.422.232-2.135.311-2.151.207-4.313.227-6.462.161z"/></svg>