<svg xmlns="http://www.w3.org/2000/svg" width="150" height="150" viewBox="0 0 150 150"><path fill="none" d="M34.591 35.381c.047-.121.101-.237.148-.353-.048.116-.101.232-.148.353zM107.107 132.604c-.121.15-.231.312-.354.463.123-.152.233-.313.354-.463zM37.043 30.068c.138-.267.282-.533.423-.8-.141.267-.285.534-.423.8zM40.084 24.836c.176-.271.345-.543.526-.815-.181.272-.35.544-.526.815zM116.389 116.807c-.047.116-.1.231-.148.348.045-.117.101-.232.148-.348zM43.925 19.509c.098-.121.187-.247.284-.367-.098.12-.186.246-.284.367zM110.906 127.331c-.182.281-.355.568-.541.845.186-.281.36-.564.541-.845zM113.939 122.114c-.141.271-.285.538-.431.81.146-.272.291-.538.431-.81zM39.251 60.524c-1.315 5.071-2.088 10.358-2.088 15.836 0 5.086.629 10.021 1.769 14.76 2.618 4.397 5.748 8.567 9.53 12.351 2.516 2.516 5.24 4.679 8.044 6.676-.76-6.087-1.452-10.861-1.947-12.692-.088-.322-.221-.82-.948-1.132-5.546-2.571-8.077-6.278-9.827-16.214L41.81 61.691l.511-.085 5.491 22.885c.093.533.408.931.898.845.488-.091.644-.563.546-1.106L46.54 60.862l.608-.111 5.441 22.895c.093.533.407.931.896.851.485-.091.644-.568.545-1.106l-2.664-23.378.559-.101 5.438 22.89c.098.538.402.936.893.85.488-.085.649-.568.551-1.102L56.09 59.178l.563-.101 4.44 17.984c1.75 9.931.644 14.282-3.688 18.599-.574.538-.531 1.051-.5 1.389.181 2.163 1.446 8.059 3.139 15.312 5.023 1.288 10.258 2.048 15.683 2.048.302 0 .591-.051.891-.056.51-8.854.812-16.193.596-18.562-.03-.322-.078-.815-.737-1.243-5.023-3.38-10.126-8.994-10.126-18.759 0-11.018 6.51-19.962 12.048-19.962 5.536 0 12.048 8.944 12.048 19.962 0 9.765-5.107 15.379-10.121 18.759-.664.428-.707.921-.736 1.243-.219 2.344.074 9.583.575 18.347 3.394-.241 6.729-.674 9.953-1.429a61.61 61.61 0 0 0 5.783-3.849c.219-1.228.423-2.385.581-3.376h-.021c-1.062-.171.933-2.596-.865-3.812-1.18-.79-1.809-1.524-2.075-3.638-1.607-12.863 6.681-36.638 10.014-40.466 1.854-2.123 5.073-1.374 4.816.262l-7.372 46.795c.597-.554 1.226-1.052 1.804-1.63 3.494-3.492 6.449-7.325 8.952-11.35 1.313-5.061 2.085-10.343 2.085-15.821 0-5.086-.629-10.021-1.773-14.76-2.618-4.392-5.744-8.567-9.525-12.345-3.41-3.411-7.141-6.288-11.055-8.753-5.18-1.378-10.595-2.183-16.209-2.183-4.963 0-9.77.614-14.405 1.706-4.507 2.651-8.786 5.84-12.655 9.709-3.491 3.488-6.444 7.311-8.947 11.326z"/><path fill="#008DBC" d="M79.588 95.789c.029-.322.072-.815.736-1.243 5.014-3.38 10.121-8.994 10.121-18.759 0-11.018-6.512-19.962-12.048-19.962-5.539 0-12.048 8.944-12.048 19.962 0 9.765 5.104 15.379 10.126 18.759.659.428.707.921.737 1.243.217 2.369-.086 9.709-.596 18.562 1.197-.015 2.366-.131 3.546-.216-.5-8.763-.793-16.002-.574-18.346zM103.533 57.566C100.2 61.394 91.912 85.169 93.52 98.032c.267 2.113.896 2.848 2.075 3.638 1.798 1.217-.196 3.642.865 3.812h.021a195.81 195.81 0 0 1-.581 3.376 62.933 62.933 0 0 0 5.078-4.235l7.372-46.795c.256-1.636-2.963-2.385-4.817-.262zM57.405 95.658c4.331-4.316 5.438-8.668 3.688-18.599l-4.44-17.984-.563.101 2.717 23.372c.098.533-.063 1.017-.551 1.102-.491.086-.795-.312-.893-.85l-5.438-22.89-.559.101 2.664 23.378c.098.538-.06 1.016-.545 1.106-.488.08-.803-.317-.896-.851L47.147 60.75l-.608.111 2.716 23.368c.098.543-.058 1.016-.546 1.106-.49.086-.805-.312-.898-.845L42.32 61.605l-.511.085 1.975 18.417c1.75 9.936 4.281 13.643 9.827 16.214.727.312.86.81.948 1.132.496 1.831 1.188 6.605 1.947 12.692.996.714 1.987 1.434 3.013 2.077l.523.136c-1.692-7.254-2.958-13.149-3.139-15.312-.029-.337-.072-.85.502-1.388z"/><path fill="#F9EC1E" d="M44.209 19.142c-.098.121-.186.247-.284.367a63.868 63.868 0 0 0-3.315 4.513c-.181.271-.35.543-.526.815a63.547 63.547 0 0 0-2.618 4.432c-.141.267-.285.533-.423.8a64.231 64.231 0 0 0-2.304 4.96c-.047.116-.101.231-.148.353-7.274 18.045-5.786 38.746 4.341 55.739a62.995 62.995 0 0 1-1.769-14.76c0-5.479.772-10.766 2.088-15.836-.141.231-.322.438-.46.669 6.779-27.452 31.573-47.811 61.12-47.811 1.882 0 3.745.085 5.587.246 1.844.161 3.664.393 5.461.705C100.52 8.366 88.441 4.95 75.553 4.95c-6.464 0-12.73.86-18.689 2.475a.288.288 0 0 0-.063.02l-.063.015a63.556 63.556 0 0 0-12.529 11.682z"/><path fill="#0973B9" d="M91.465 39.963c3.914 2.465 7.645 5.343 11.055 8.753 3.781 3.778 6.907 7.954 9.525 12.345-.029-.125-.04-.256-.07-.377 10.308 17.069 11.752 37.951 4.414 56.122-.047.116-.103.231-.148.348a62.265 62.265 0 0 1-2.301 4.96c-.141.271-.285.538-.431.81a60.746 60.746 0 0 1-2.603 4.407c-.182.281-.355.563-.541.845a63.137 63.137 0 0 1-3.258 4.428c-.121.15-.231.312-.354.463a63.06 63.06 0 0 1-4.181 4.653 63.513 63.513 0 0 1-8.323 7.002l-.022.005a.095.095 0 0 1-.03.025c11.596-3.154 22.558-9.286 31.671-18.392a71.717 71.717 0 0 0 11.43-14.921c.596-3.477.913-7.048.913-10.705-.001-29.153-19.848-53.607-46.746-60.771z"/><path fill="#26AAE1" d="M146.658 76.169c0-6.464-.86-12.728-2.473-18.684l-.01-.045-.008-.02a64.326 64.326 0 0 0-6.935-8.23c-20.719-20.716-52.248-23.906-76.383-9.704 4.636-1.092 9.442-1.706 14.405-1.706 5.614 0 11.029.805 16.209 2.183 26.898 7.164 46.745 31.618 46.745 60.771 0 3.657-.317 7.229-.913 10.705-.008.045-.011.09-.018.136 5.966-10.433 9.381-22.522 9.381-35.406z"/><path fill="#6ABC45" d="M38.791 61.193c.139-.231.32-.438.46-.669 2.503-4.015 5.456-7.838 8.944-11.329 3.869-3.869 8.147-7.058 12.655-9.709 24.135-14.202 55.664-11.012 76.383 9.704a64.326 64.326 0 0 1 6.935 8.23l.071.091c-3.157-11.601-9.292-22.558-18.4-31.668a71.71 71.71 0 0 0-15.022-11.495l-.067-.035a62.424 62.424 0 0 0-5.252-.685 64.142 64.142 0 0 0-5.587-.246c-29.547 0-54.341 20.359-61.12 47.811z"/><path fill="#68328E" d="M102.572 137.72a63.264 63.264 0 0 0 4.181-4.653c.123-.151.233-.312.354-.463a62.904 62.904 0 0 0 3.258-4.428c.186-.276.359-.563.541-.845a60.746 60.746 0 0 0 2.603-4.407c.146-.271.29-.538.431-.81a62.62 62.62 0 0 0 2.301-4.96c.049-.116.102-.231.148-.348 7.338-18.171 5.894-39.053-4.414-56.122.03.121.041.251.07.377a62.738 62.738 0 0 1 1.773 14.76c0 5.479-.771 10.761-2.085 15.821.141-.222.317-.428.452-.654-6.778 27.452-31.572 47.816-61.12 47.816-1.892 0-3.76-.09-5.606-.251a64.611 64.611 0 0 1-5.438-.699c10.436 5.966 22.52 9.382 35.398 9.382a71.75 71.75 0 0 0 18.692-2.47c.02-.011.045-.016.045-.016l.07-.025.022-.005a63.284 63.284 0 0 0 8.324-7z"/><path fill="#FAAE3A" d="M59.52 112.224c-1.026-.644-2.017-1.363-3.013-2.077-2.805-1.997-5.529-4.16-8.044-6.676-3.783-3.783-6.912-7.953-9.53-12.351-10.127-16.993-11.616-37.694-4.341-55.739.047-.121.101-.237.148-.353a64.231 64.231 0 0 1 2.304-4.96c.138-.267.282-.533.423-.8a63.943 63.943 0 0 1 2.618-4.432c.176-.271.345-.543.526-.815a64.1 64.1 0 0 1 3.315-4.513c.098-.121.187-.247.284-.367A63.634 63.634 0 0 1 56.739 7.459l.042-.03c-11.596 3.159-22.558 9.292-31.67 18.402a71.641 71.641 0 0 0-11.43 14.916 63.459 63.459 0 0 0-.911 10.7c0 29.155 19.851 53.614 46.75 60.777z"/><path fill="#E92429" d="M90.116 112.707c-3.225.755-6.56 1.188-9.953 1.429-1.18.085-2.349.201-3.546.216-.3.005-.589.056-.891.056-5.425 0-10.66-.76-15.683-2.048l-.523-.136c-26.899-7.163-46.75-31.622-46.75-60.775 0-3.652.317-7.224.911-10.7.007-.045.01-.091.018-.136C7.732 51.041 4.316 63.13 4.316 76.014c0 6.469.865 12.732 2.473 18.688a.23.23 0 0 0 .02.061 63.483 63.483 0 0 0 6.935 8.23c20.716 20.716 52.243 23.905 76.372 9.714z"/><path fill="#B6255F" d="M112.186 90.989c-.135.227-.312.433-.452.654-2.503 4.024-5.458 7.857-8.952 11.35-.578.578-1.207 1.076-1.804 1.63a62.52 62.52 0 0 1-5.078 4.235 61.806 61.806 0 0 1-5.783 3.849c-24.129 14.191-55.656 11.002-76.373-9.714a63.55 63.55 0 0 1-6.935-8.23l-.07-.091c3.157 11.601 9.292 22.562 18.4 31.668a71.338 71.338 0 0 0 14.966 11.465c.021.01.035.025.056.035l.068.03c1.723.302 3.469.523 5.232.685 1.846.161 3.715.251 5.606.251 29.546 0 54.34-20.365 61.119-47.817z"/></svg>