<svg xmlns="http://www.w3.org/2000/svg" viewBox="0 0 2000 2000"><path fill="#D0898B" d="M924.8 1181.7c-3.1.1-6.1.2-9.2.3l9.9.4-.7-.7z"/><path fill="#D0898B" d="M1799.2 752.7c-41.4 47.4-165.5 81.9-312.2 81.9-180.5 0-326.9-52.2-326.9-116.5 0-30.4 32.6-58 86-78.8-5.9-12.6-10.1-26.8-11.6-42.8-11.1-119.3 266.4-141.5 349.6-52.7 20.6 22 34.7 45.7 40.9 68.7 45.1 7.5 84.6 18.6 115.7 32.2-148.8-227.8-425-380.9-741.3-380.9-125.6 0-244.7 24.3-352.2 67.6 87.4-4.7 161.5 14.2 169.4 43.2 16.6 60.9-66.5 60.9-66.5 60.9l78 117c129.7 6.9 232.2 91.9 232.2 196 0 108.6-111.6 196.7-249.3 196.7-137.7 0-249.3-88-249.3-196.7 0-29.3 8.3-56.9 22.9-81.9-.3-1.3-.6-2.5-.7-4-5.5-72-72-94.2-72-94.2 22.2-66.5-33.2-49.9-33.2-49.9s44.3 0-11.1 66.5c-42.7 51.2-137.9 36.6-128.7-43.7-123.4 132.9-197.6 303.6-197.6 489.8 0 423.8 384.2 767.4 858.2 767.4 474 0 858.2-343.6 858.2-767.4 0-98.3-20.9-192.1-58.5-278.4zm-744.9-308.8c-58.3-61.1-105.4-16.7-177.6-19.4-72.2-2.8-30.5-33.3-30.5-33.3s-22.2 30.5 58.3 11.1 124.9-8.3 169.3 47.2c44.4 55.5 108.2-52.7 213.6-44.4 91.8 7.3 65.8 50.3 57.6 61.3-1.2 1.6-2.1 2.6-2.1 2.6 19.4-72.1-105.4-22.2-141.5 0-36.1 22.1-88.8 35.9-147.1-25.1zm212.2 1100.8l-6.6-7.1c.2 4.1.3 8 0 11.5-5.5 83.1-271.5 149.6-310.3 127.4-31.6-18.1-37.5-257.5-110.8-477.5-211.1 118.7-176.3 416.7-235.5 422.1-60.9 5.5-103.7-66.5-103.7-66.5-31.5-356.8 246.4-499.8 281.4-514v-1.3s7.9-.7 24.5-2.6c16.5 19.5 57 49.9 154 49.9 0 0 56.1-24.4 72.2-91.4 105.9-27.1 223.8-69.9 309.3-136.3 38.3 5.6 80.1 8.7 124 8.7 39.7 0 77.6-2.5 112.8-7.1-22.8 76.9-161 219.3-402.4 285.6 53 131.7 91.1 398.6 91.1 398.6z"/><path fill="#D4BAAC" d="M584.7 666.6c-14.5 25-22.9 52.6-22.9 81.9 0 108.6 111.6 196.7 249.3 196.7 137.7 0 249.3-88 249.3-196.7 0-104.1-102.5-189.1-232.2-196l21.7 32.6c-43.5 65.1-251.9 146.2-265.2 81.5z"/><path fill="#EBC5C5" d="M1415 735.2c92.8 5.6 151.7-10 183.6-36.4-41.4-14.6-91.6-43.1-94.9-49.6 0 0-58.3-33.3-22.2-55.5 25.7-15.8 103.4 23.3 145 61.1 3-13.4 2.3-27.8-1.6-42.4-6.1-23-20.2-46.7-40.9-68.7-83.2-88.8-360.7-66.6-349.6 52.7 1.5 16 5.6 30.2 11.6 42.8 38.5 81.2 155.1 95.2 169 96z"/><path fill="#F1D5D4" d="M1481.6 593.7c-36.1 22.2 22.2 55.5 22.2 55.5 3.3 6.5 53.4 35.1 94.9 49.6 29.1 10.2 53.8 13.6 55-2.4.8-11.2-10.1-26.3-27-41.6-41.6-37.8-119.4-76.9-145.1-61.1z"/><path fill="#D0898B" d="M962.4 1108.7s-58.6 51.3-22 113.6c0 0 62.3-44 22-113.6zM1054 1152.7s-7.3-44-76.9-36.7c0 0 44 36.7 76.9 36.7z"/></svg>