<svg xmlns="http://www.w3.org/2000/svg" width="100" height="100" viewBox="0 0 100 100"><path fill="#563422" d="M92.167 45.471l-14.74-12.944c-2.317-2.034-7.65-3.626-12.146-3.626H35.797c-4.496 0-9.831 1.593-12.144 3.626L8.912 45.471c-1.28 1.121-1.984 2.629-1.984 4.254 0 1.619.704 3.13 1.984 4.25l14.741 12.948c2.313 2.029 7.648 3.62 12.144 3.62h29.484c4.495 0 9.828-1.591 12.146-3.62l14.74-12.948c1.28-1.12 1.983-2.632 1.983-4.25 0-1.625-.703-3.133-1.983-4.254zm.724 4.477c-.004.103-.018.203-.028.302l-.926-.128a.072.072 0 0 1-.008.032V50.179l-.003.007v.01l-.003.007v.025c-.008.003-.008.003-.008.007V50.256l-.004.007v.003c-.003.028-.011.054-.017.079l.922.199c-.015.054-.025.103-.036.148l-.908-.237a.763.763 0 0 0-.021.067v.007c-.004.004-.004.008-.004.008l-.004.003v.007l-.031.1v.004l-.005.004v.01l-.003.008v.003l.898.305a4.912 4.912 0 0 1-.1.284l-.881-.376a1.434 1.434 0 0 1-.049.107l.873.407c-.042.093-.086.182-.129.27l-.848-.476c-.01.018-.025.039-.035.062l-.011.018v.003c-.003 0-.008.003-.008.008v.003l-.006.007c-.018.028-.036.061-.057.093l.819.539c-.025.043-.054.085-.082.128l-.802-.571c-.007.003-.007.011-.015.014 0 .004 0 .007-.003.007l-.003.005-.005.006a1.445 1.445 0 0 1-.057.074v.005c-.003 0-.003 0-.003.003h-.004l-.003.008-.008.007v.003c-.014.014-.023.036-.042.05l.777.633a4.637 4.637 0 0 1-.182.227l-.745-.689c-.015.018-.028.036-.049.054a.174.174 0 0 1-.03.031l.726.713c-.064.072-.128.144-.2.211l-.688-.768c-.021.021-.046.039-.07.061v.004l-.103.085.677.791a.118.118 0 0 0-.021.018l-.064.057-.677-.79-.062.049v.005l-.113.095.682.791-.172.152-.679-.799-.085.075.685.794-.173.148-.685-.795-.033.028h-.003l-.003.005c-.054.046-.131.116-.131.116l.685.795-.09.074-.685-.798s-.031.028-.067.064h-.003l-.103.088.688.798-.17.149-.688-.798-.054.046h-.007v.003c-.019.011-.024.022-.024.022l.688.805-.17.148-.695-.806-.172.149.696.811-.089.07-.692-.807s-.148.129-.17.146h-.008l.699.812-.174.154-.695-.816-.085.077.695.813-.171.147-.698-.814-.139.119s-.007.005-.007.008a.093.093 0 0 1-.028.021l.702.816-.085.079-.703-.816-.116.099c-.032.025-.057.047-.057.047l.706.82-.17.147-.711-.819-.066.062-.019.014.711.823-.175.149-.706-.823s-.018.01-.038.031l-.14.117.714.822-.085.079-.714-.831-.17.149.709.831-.17.152-.717-.834-.085.074.717.831-.171.152-.716-.834-.136.113-.042.036.724.837-.089.074-.72-.837v.003h-.001l-.004.003c-.032.03-.164.144-.164.144l.718.837-.17.149-.721-.842-.085.078.721.841-.172.149-.724-.842-.034.033h-.007c-.051.046-.132.113-.132.113l.727.845-.085.074-.727-.844-.097.085-.078.063.729.848-.17.149-.729-.848h-.008v.003c-.013.014-.08.07-.08.07l.729.849-.17.152-.734-.852-.077.071c-.047.036-.093.078-.093.078l.731.852-.085.074-.736-.852-.173.146.738.857-.171.149-.737-.857s-.021.016-.039.034l-.046.04.737.857-.171.152-.741-.862-.173.149.741.862-.09.078-.736-.866-.104.085-.004.005-.067.06.741.865-.17.149-.744-.865-.087.071.746.873-.17.145-.749-.869-.06.054-.115.095.754.873-.09.075-.749-.873-.163.139v.003l-.003.004c-.004 0-.004.004-.004.004l.749.872-.17.152-.757-.876-.085.075.757.876-.175.153-.752-.881-.174.146.756.888-.086.07-.759-.879-.021.018v.003h-.004l-.145.128.759.884-.17.152-.764-.891-.024.021a4.81 4.81 0 0 1-.063.054l.767.887-.175.153-.763-.891-.174.149.767.891-.088.074-.767-.891s-.072.06-.121.106l-.05.043.766.894-.17.149-.77-.896s-.003.005-.011.008l-.074.063.77.898-.17.149-.773-.898-.171.149.774.901-.083.087-.774-.901-.066.057h-.003l-.005.004c-.046.043-.103.089-.103.089l.777.904-.17.149-.778-.906-.088.075.777.905-.171.152-.78-.908-.042.038h-.005l-.003.005-.003.003-.118.103.78.909-.085.074-.78-.908-.173.146.783.914-.17.149-.788-.912-.063.053v.005a.131.131 0 0 1-.021.013l.785.919-.172.146-.788-.916s-.041.036-.085.071l-.088.078.788.919-.085.074-.788-.919-.175.146.793.922-.172.152-.794-.927-.085.079.794.922-.17.149-.794-.927-.154.129-.003.003c-.01.011-.021.018-.021.018l.798.93-.085.075-.798-.926s-.022.014-.051.042l-.121.103.796.933-.171.149-.803-.933s-.041.039-.066.06l-.019.016.803.933-.17.151-.803-.936-.173.149.806.936-.085.075-.811-.94-.17.152.809.941-.173.147-.809-.942-.09.074.813.943-.175.153-.809-.947s-.078.07-.132.113l-.043.036.813.947-.106.091-.795-.969c-.014.019-.036.033-.057.05h-.003c0 .004-.005.004-.005.004-.035.031-.074.06-.113.089l.76 1.011a3.21 3.21 0 0 1-.22.171l-.725-1.046c-.028.021-.063.038-.092.063l.709 1.068c-.07.051-.145.1-.219.153l-.683-1.097c-.063.039-.134.075-.198.116l.656 1.122c-.038.021-.074.047-.11.067l-.646-1.133-.063.036v.003l-.008.005c-.008 0-.011.003-.015.003v.003l-.113.061.62 1.153c-.073.042-.147.086-.222.127l-.601-1.174c-.004 0-.007.004-.01.004l-.008.004c-.021.015-.046.025-.067.035h-.004c-.006.003-.011.003-.014.008l.589 1.185c-.074.039-.148.074-.224.113l-.568-1.199c-.067.032-.139.063-.209.095l.551 1.215c-.04.019-.074.039-.11.053l-.543-1.221c-.025.011-.047.022-.072.028l-.003.004s-.003 0-.007.003l-.003.004h-.005c-.006.004-.011.004-.014.007-.035.015-.071.028-.105.047l.525 1.235a3.94 3.94 0 0 0-.229.098l-.511-1.248c0 .004-.007.004-.007.004-.035.014-.063.024-.092.039l.496 1.252-.227.096-.486-1.263c-.067.024-.143.053-.213.077l.469 1.274-.114.047-.461-1.282c-.061.022-.121.044-.181.064-.004 0-.008.003-.008.003-.007.005-.021.005-.028.012l.447 1.288c-.07.023-.149.057-.228.082l-.437-1.3c-.031.011-.066.025-.099.033-.004.003-.004.006-.004.006l.426 1.303-.23.074-.415-1.309c-.071.023-.146.045-.22.067l.404 1.318c-.039.011-.078.025-.113.036l-.397-1.323-.221.067.384 1.331c-.078.021-.156.046-.23.066l-.373-1.337c-.007.003-.014.003-.024.006a.44.44 0 0 1-.085.022l.365 1.342a5.02 5.02 0 0 0-.231.067l-.354-1.35-.007.005c-.003 0-.011 0-.018.003h-.004l-.082.021a.038.038 0 0 1-.024.008l-.004.003c-.007 0-.014.005-.024.005h-.004a.077.077 0 0 1-.024.006h.003a.045.045 0 0 1-.024.007l.341 1.356c-.039.011-.074.021-.117.031l-.333-1.359c-.058.016-.11.029-.164.039 0 0-.003.005-.007.005h-.015c-.011.007-.024.007-.039.011l.323 1.361c-.078.021-.156.039-.234.062l-.313-1.369-.092.021-.014.003.305 1.37c-.078.021-.156.035-.234.057l-.298-1.381c-.05.016-.104.025-.156.036-.021.003-.042.011-.064.014l.281 1.382c-.039.006-.079.016-.117.023l-.278-1.379-.167.031-.057.01.267 1.391c-.081.016-.16.033-.238.047l-.251-1.394c-.04.003-.075.013-.113.021l.244 1.398c-.074.01-.156.025-.238.039l-.23-1.401-.181.031c-.011 0-.018 0-.021.005h-.022l.221 1.403a1.026 1.026 0 0 1-.121.022l-.213-1.41c-.035.013-.074.016-.113.019v.004h-.028c-.011.003-.018.003-.024.003h-.006c-.021.003-.036.008-.057.011l.198 1.413-.234.031-.188-1.411c-.019 0-.035.003-.054.003-.021.007-.042.007-.063.01l.184 1.416-.24.031-.168-1.419h-.003-.021l-.007.005h-.028c-.007.003-.014.003-.025.006-.034.005-.07.005-.105.011-.012 0-.025 0-.032.004l.149 1.422-.121.013-.146-1.424c-.011 0-.014.003-.024.003h-.022c-.007 0-.015 0-.019.005h-.01s-.015 0-.015.003H67.21c-.035.003-.074.01-.106.01l.128 1.432-.241.021-.117-1.43-.113.006.109 1.435c-.085.007-.162.015-.245.018l-.092-1.434c-.046.004-.092.004-.139.007h-.006a.598.598 0 0 1-.082.004l.074 1.44c-.039 0-.078.003-.121.003l-.067-1.437c-.038.003-.074.003-.11.003l-.007.005c-.035 0-.07 0-.106.003h-.007l.05 1.441a6.46 6.46 0 0 1-.241.006l-.036-1.443c-.021 0-.042 0-.063.003h-.05l.024 1.444c-.085.004-.166.004-.248.004l-.003-1.448h-.228v1.448h-.113v-1.448h-.227v1.448H64.6v-1.448h-.117v1.448h-.224v-1.448h-.234v1.448h-.113v-1.448h-.228v1.448h-.227v-1.448h-.113v1.448h-.228v-1.448h-.226v1.448h-.114v-1.448h-.23v1.448h-.228v-1.448h-.113v1.448h-.23v-1.448h-.228v1.448h-.113v-1.448h-.227v1.448h-.228v-1.448h-.117v1.448h-.224v-1.448h-.23v1.448h-.118v-1.448h-.224v1.448h-.23v-1.448h-.113v1.448h-.228v-1.448h-.227v1.448h-.113v-1.448h-.228v1.448H58.9v-1.448h-.12v1.448h-.228v-1.448h-.224v1.448h-.117v-1.448h-.227v1.448h-.228v-1.448h-.113v1.448h-.23v-1.448h-.227v1.448h-.114v-1.448h-.227v1.448h-.228v-1.448H56.5v1.448h-.228v-1.448h-.227v1.448h-.113v-1.448h-.228v1.448h-.224v-1.448h-.113v1.448h-.23v-1.448h-.228v1.448h-.117v-1.448h-.224v1.448h-.231v-1.448h-.113v1.448h-.227v-1.448h-.227v1.448h-.113v-1.448h-.227v1.448h-.23v-1.448h-.114v1.448h-.23v-1.448h-.228v1.448h-.113v-1.448h-.228v1.448h-.227v-1.448h-.113v1.448h-.228v-1.448h-.23v1.448h-.113v-1.448h-.228v1.448h-.23v-1.448h-.114v1.448h-.227v-1.448h-.227v1.448h-.114v-1.448h-.227v1.448h-.228v-1.448h-.117v1.448h-.231v-1.448h-.223v1.448h-.113v-1.448h-.231v1.448h-.227v-1.448h-.113v1.448h-.228v-1.448h-.227v1.448h-.114v-1.448h-.23v1.448h-.23v-1.448h-.11v1.448h-.23v-1.448h-.228v1.448h-.113v-1.448h-.227v1.448h-.227v-1.448h-.114v1.448h-.228v-1.448h-.227v1.448h-.117v-1.448h-.231v1.448h-.227v-1.448h-.113v1.448h-.228v-1.448h-.229v1.448h-.112v-1.448h-.23v1.448h-.226v-1.448h-.115v1.448h-.229v-1.448h-.226v1.448h-.113v-1.448h-.229v1.448h-.228v-1.448h-.114v1.448h-.228v-1.448h-.229v1.448h-.113v-1.448h-.228v1.448h-.227v-1.448h-.116v1.448h-.227v-1.448h-.228v1.448h-.114v-1.448h-.229v1.448h-.227v-1.448h-.114v1.448h-.228v-1.448h-.228v1.448h-.115v-1.448h-.229v1.448h-.226v-1.448h-.114v1.448h-.227v-1.448h-.229v1.448h-.113v-1.448h-.229v1.448h-.227v-1.448h-.114v1.448h-.229v-1.448h-.229v1.448h-.113v-1.448h-.228v1.448h-.227v-1.448h-.115v1.448h-.229v-1.448h-.227v1.448h-.111v-1.448h-.231v1.448h-.227v-1.448h-.113v1.448h-.229v-1.448h-.229l-.014 1.444h-.124l.026-1.444c-.04-.005-.078-.005-.118-.005h-.076c-.012 0-.023-.004-.035-.004l-.045 1.444c-.081-.008-.163-.008-.245-.011l.061-1.441c-.018 0-.036 0-.055-.003h-.058l-.069 1.437c-.082-.003-.164-.01-.245-.013l.087-1.438c-.046-.004-.092-.004-.141-.007a.42.42 0 0 0-.077-.008H34.393l-.104 1.434a3.95 3.95 0 0 0-.121-.01l.113-1.435a3.475 3.475 0 0 1-.229-.018l-.126 1.43c-.08-.006-.161-.019-.243-.024l.142-1.426c-.008 0-.018-.005-.025-.005-.023 0-.042-.003-.063-.003-.008 0-.017-.003-.026-.003l-.149 1.422c-.08-.008-.16-.018-.24-.023l.161-1.424a9.207 9.207 0 0 1-.225-.028l-.175 1.419c-.041-.008-.082-.011-.121-.014l.182-1.416c-.062-.01-.128-.021-.192-.028-.01-.004-.023-.004-.032-.004l-.197 1.413c-.08-.016-.16-.025-.24-.036l.21-1.408c-.008-.003-.018-.003-.025-.003-.011 0-.021-.008-.034-.008-.018-.005-.035-.005-.053-.008l-.215 1.406c-.08-.016-.16-.025-.238-.039l.228-1.402-.11-.021h-.006c-.006 0-.012 0-.019-.003-.007 0-.015 0-.02-.004H32.2c-.008 0-.014 0-.023-.004h-.007s-.01 0-.016-.003c-.007 0-.017 0-.023-.004l-.242 1.397c-.039-.007-.078-.01-.117-.021l.247-1.396-.225-.041-.257 1.391c-.08-.019-.16-.028-.237-.047l.271-1.388h-.007c-.037-.01-.071-.013-.104-.021l-.279 1.383c-.078-.016-.156-.034-.234-.052l.29-1.377a3.244 3.244 0 0 0-.165-.036h-.005l-.007-.003a.127.127 0 0 0-.044-.008l-.302 1.37c-.039-.008-.078-.018-.117-.025l.308-1.37c-.075-.016-.148-.034-.222-.052l-.322 1.365a5.007 5.007 0 0 0-.234-.057l.333-1.362a.912.912 0 0 0-.11-.025l-.337 1.354c-.08-.019-.158-.041-.234-.062l.348-1.352c-.071-.019-.146-.036-.22-.057l-.36 1.341-.116-.032.366-1.337c-.073-.021-.146-.044-.22-.064l-.378 1.334c-.076-.024-.156-.046-.23-.07l.391-1.328c-.021-.006-.046-.01-.071-.021-.012 0-.025-.008-.038-.011l-.397 1.323-.23-.074.41-1.313c-.037-.013-.075-.023-.113-.038a.734.734 0 0 0-.077-.021l-.001-.004h-.003l-.021-.006-.424 1.306c-.039-.016-.078-.025-.115-.039l.431-1.303a.735.735 0 0 0-.091-.028c-.042-.015-.083-.033-.125-.043l-.444 1.287c-.078-.023-.154-.052-.229-.08l.458-1.285c-.005 0-.007 0-.013-.003a.048.048 0 0 0-.024-.007c-.004-.005-.005-.005-.007-.005-.021-.006-.041-.017-.062-.021h-.001l-.473 1.279a8.217 8.217 0 0 0-.229-.088l.479-1.271-.137-.053s-.004-.005-.007-.005h-.005l-.001-.003-.061-.021-.495 1.257a2.741 2.741 0 0 0-.114-.047l.502-1.253-.211-.085-.518 1.238c-.076-.036-.151-.067-.225-.104l.534-1.228c-.009-.003-.018-.006-.027-.011h-.001c-.002 0-.004 0-.008-.003l-.069-.032-.542 1.225-.228-.113.563-1.203-.003-.004h-.001c-.034-.014-.067-.031-.101-.047 0 0-.006-.006-.011-.006-.024-.012-.049-.025-.074-.035-.003 0-.009-.005-.014-.005l-.58 1.189c-.038-.021-.075-.044-.114-.06l.591-1.182a2.94 2.94 0 0 0-.125-.064l-.002-.005c-.001 0-.004 0-.007-.003a.32.32 0 0 1-.068-.036l-.612 1.164a6.501 6.501 0 0 1-.224-.131l.636-1.139c-.011-.008-.021-.011-.034-.018-.014-.011-.03-.019-.044-.028l-.021-.011-.648 1.133c-.074-.047-.148-.098-.221-.144l.672-1.103c-.065-.044-.129-.082-.191-.124L25 66.386l-.11-.079.715-1.064c-.046-.028-.09-.061-.133-.092h-.005c-.016-.016-.032-.025-.048-.039l-.749 1.025c-.064-.05-.127-.104-.19-.157l-.025-.021.783-.983c-.024-.021-.05-.039-.073-.06-.005-.003-.01-.011-.016-.011l-.803.955-.183-.16.814-.944-.058-.049-.116-.101-.811.945-.085-.075.811-.944-.09-.074c-.041-.039-.083-.075-.083-.075l-.809.941-.171-.148.807-.938s-.008-.011-.017-.018l-.069-.06-.807.939-.17-.153.805-.936-.086-.072-.087-.074-.804.934-.085-.074.802-.934-.172-.152-.801.937-.171-.153.8-.93-.037-.031-.049-.043-.801.931-.17-.149.797-.93s-.052-.043-.098-.085l-.075-.063-.797.925-.085-.078.794-.919s-.057-.054-.104-.092l-.067-.058-.793.924-.175-.154.792-.922-.085-.072-.792.919-.172-.147.792-.919-.055-.046-.119-.104-.788.915-.085-.075.786-.914-.174-.149-.784.912-.172-.149.784-.912-.089-.074-.781.911-.17-.151.779-.909-.153-.131-.019-.014-.779.904-.085-.075.777-.904-.016-.018a7.653 7.653 0 0 1-.156-.131l-.776.901-.172-.146.776-.904s-.014-.011-.028-.025l-.058-.05-.775.901-.171-.151.772-.898-.172-.149-.771.898-.085-.075.77-.898-.113-.095-.059-.054-.77.895-.17-.148.766-.891-.007-.008a9.65 9.65 0 0 0-.08-.07l-.765.894-.171-.149.765-.891-.172-.148-.765.888-.085-.075.763-.888s-.043-.036-.084-.074l-.091-.075-.761.888-.17-.151.76-.884-.087-.071-.759.88-.171-.153.756-.879-.172-.146-.754.878-.087-.075.756-.877-.174-.149-.753.877-.171-.151.752-.873-.08-.069-.009-.006-.749.873-.17-.149.749-.873-.079-.068-.095-.08-.747.868-.086-.07.747-.873-.172-.148-.745.869-.17-.153.744-.865-.087-.07-.743.861-.17-.152.74-.858-.163-.142h-.01l-.005-.008-.739.862-.087-.079.738-.857-.04-.036a5.783 5.783 0 0 1-.13-.11l-.738.853-.172-.146.735-.859-.085-.074-.735.854-.17-.148.731-.851-.172-.154-.731.855-.087-.078.733-.852-.174-.145-.73.848-.17-.152.726-.845-.018-.014a.79.79 0 0 0-.068-.061l-.728.844-.17-.148.724-.845-.123-.106-.049-.043-.725.842-.085-.075.722-.841s-.011-.007-.023-.021h-.003l-.145-.127-.721.841-.173-.163.719-.837-.085-.072-.719.834-.172-.148.717-.835-.172-.148-.717.834-.085-.078.714-.831-.085-.07-.089-.077-.71.828-.172-.148.711-.827-.023-.021-.063-.057-.708.829-.174-.152.709-.826-.174-.146-.708.821-.084-.073.705-.823-.172-.152-.704.823-.172-.148.704-.819-.086-.075-.703.819-.17-.152.699-.815s-.055-.05-.103-.09l-.004-.003h-.001l-.065-.057-.699.816-.083-.078.699-.811-.174-.148-.698.806-.17-.145.694-.813-.075-.064-.013-.006-.694.806-.17-.149.69-.806-.049-.046-.123-.104-.69.807-.085-.079.69-.802-.174-.149-.688.803-.171-.149.687-.803-.063-.052-.024-.022-.687.799-.172-.149.685-.799-.146-.124c-.016-.013-.027-.025-.027-.025l-.683.796-.085-.075.682-.793-.173-.15-.681.791-.17-.152.679-.791-.087-.071-.678.787-.035-.028c-.046-.041-.09-.085-.137-.126l.676-.782a.114.114 0 0 0-.014-.011.1.1 0 0 0-.024-.023c-.006-.008-.013-.012-.018-.016h-.002s-.003-.007-.005-.007l-.004-.003c-.001-.003-.001-.003-.005-.003-.001-.005-.003-.005-.005-.008h-.001a2.315 2.315 0 0 1-.087-.082l-.713.731c-.033-.039-.067-.075-.098-.11l.731-.703h-.001l-.005-.006-.002-.005c-.003 0-.003-.003-.005-.007h-.004l-.003-.003-.004-.008c-.003 0-.003-.003-.003-.003L10 51.858l-.001-.005-.004-.003c-.003 0-.003-.003-.007-.003l-.001-.007c-.001 0-.004 0-.005-.005l-.004-.003s-.001-.003-.003-.003l-.001-.005c-.001 0-.004 0-.005-.003l-.005-.007-.002-.003c-.005-.005-.011-.008-.012-.016h-.003l-.005-.01h-.011l-.001-.002-.003-.004s-.004-.003-.005-.006l-.004-.005-.003-.003-.001-.004c-.004 0-.004-.004-.004-.004l-.005-.003-.001-.004-.006-.006h-.005l-.014-.022-.765.648a3.707 3.707 0 0 1-.174-.233l.794-.593-.001-.003-.005-.008c-.002-.003-.003-.007-.006-.01H9.72c-.001 0-.001-.003-.005-.003v-.005l-.003-.006-.004-.005-.003-.003-.036-.049-.811.56a4.444 4.444 0 0 1-.148-.256l.837-.496a5.77 5.77 0 0 1-.069-.124v-.003a.036.036 0 0 1-.01-.018h-.003l-.003-.005-.004-.008v-.003s-.001-.007-.003-.007v-.003c-.007-.008-.012-.021-.018-.032l-.862.437-.061-.143.873-.396c-.02-.043-.039-.09-.057-.132l-.001-.004-.004-.007-.002-.011h-.002c-.002-.003-.002-.007-.002-.007l-.002-.004-.001-.007c-.002-.004-.002-.004-.004-.004v-.007l-.001-.003c-.002 0-.003-.008-.003-.008v-.003c-.001 0-.004-.004-.004-.008l-.001-.007-.895.329a2.841 2.841 0 0 1-.085-.29l.906-.256-.003-.015v-.003l-.002-.007h-.002l-.002-.002v-.007l-.001-.007c-.001-.007-.004-.007-.004-.007v-.004l-.014-.053-.916.224a5.34 5.34 0 0 1-.054-.298l.923-.149a3.199 3.199 0 0 1-.028-.227l-.929.078-.009-.149.934-.042-.001-.064v-.007l-.002-.003v-.004V49.727v-.011-.01-.01V49.682v-.008l.002-.006v-.008-.023-.008l-.934-.031c.004-.1.009-.199.02-.298l.93.099c.002-.01.002-.024.003-.039v-.004l.001-.004v-.003l.002-.003V49.332l.007-.042-.925-.14c.013-.099.028-.198.05-.294l.917.209a.712.712 0 0 1 .009-.039l.002-.004c.009-.042.021-.085.032-.124 0 0 .001-.007.003-.007v-.003l.002-.003a.234.234 0 0 1 .012-.04l-.903-.283a2.73 2.73 0 0 1 .042-.143l.896.316a.251.251 0 0 1 .016-.042l.004-.011.003-.007.001-.004v-.003l.001-.007.004-.004.002-.006v-.004c.002 0 .003-.004.003-.007l.002-.003.001-.008s.002 0 .002-.003l.001-.003.004-.008.001-.006.001-.004c.006-.005.007-.008.007-.008v-.003c.004 0 .004-.008.005-.008v-.003l.002-.007h.003l.003-.01.005-.008v-.003l.007-.018.006-.011-.876-.386c.037-.092.078-.181.122-.274l.853.454c.003-.007.009-.014.014-.025 0-.003.004-.007.004-.007l.001-.003.001-.007h.002a.436.436 0 0 0 .02-.035h.001l.004-.011c.004-.003.004-.007.009-.01l-.843-.486a3.22 3.22 0 0 1 .149-.26l.815.554c.03-.049.065-.096.099-.142h.001c0-.007.004-.007.004-.007.01-.011.018-.025.028-.036l-.785-.615.087-.117.77.643.021-.028.005-.007h.003l.005-.004s.002-.003.002-.007h.001l.114-.127-.734-.695c.062-.071.127-.142.195-.213l.703.749a.052.052 0 0 1 .021-.018l.002-.007h.001l.041-.036a.052.052 0 0 0 .018-.018l-.685-.775c.057-.053.113-.106.174-.16l.005-.003.68.788.172-.146-.682-.792.087-.078.681.795.172-.153-.683-.791.172-.153.683.798.083-.071.002-.003h.001l-.685-.795.172-.153.687.799s.027-.025.058-.05l.114-.099-.688-.802.085-.074.688.802s.065-.057.117-.099l.055-.05-.692-.802.174-.152.692.805.085-.071-.691-.809.171-.149.694.81.172-.149-.694-.81.083-.078.697.813.172-.149-.697-.813.17-.149.701.813.085-.075-.699-.813.172-.152.7.816.174-.149-.704-.816.085-.075.707.816.101-.085.002-.004.005-.004h.001l.003-.003v-.003l.058-.046-.706-.823.17-.149.708.823.087-.074-.708-.823.17-.153.711.828.172-.149-.711-.827.085-.078.713.83.172-.149-.713-.831.17-.148.715.833.089-.078-.719-.834.172-.149.719.834.117-.099.004-.004h.002l.048-.042-.718-.838.085-.078.72.841.121-.103.001-.004.002-.003c.026-.018.048-.04.048-.04l-.722-.837.174-.153.722.842s.032-.029.058-.05l.028-.024-.724-.845.17-.149.726.844.021-.018h.003c.046-.042.149-.128.149-.128l-.729-.852.086-.075.73.852.171-.149-.731-.851.172-.153.731.855.071-.063.016-.011-.732-.852.172-.152.732.855.174-.149-.736-.858.085-.075.739.858.171-.149-.738-.859.172-.148.738.859.087-.071-.74-.863.172-.153.742.866s.025-.025.058-.054l.114-.099-.743-.862.085-.075.745.866.172-.149-.745-.869.17-.149.747.87.088-.075-.749-.87.171-.152.75.876s.046-.042.094-.082l.078-.067-.752-.877.087-.075.753.873.144-.124h.001l.005-.004.002-.004a.201.201 0 0 1 .02-.014l-.754-.879.171-.149.757.88.06-.057.025-.018-.756-.884.17-.146.758.88.124-.107.05-.042-.761-.883.087-.075.761.883.054-.046.001-.003h.003c.051-.046.116-.1.116-.1l-.765-.884.172-.152.765.887.048-.042a.256.256 0 0 1 .037-.028l-.762-.891.17-.149.766.887s.112-.092.157-.131l.017-.014-.77-.895.085-.074.768.894.174-.149-.768-.897.17-.152.771.901.087-.075-.773-.898.17-.152.776.901.125-.107v-.003l.048-.036-.776-.905.086-.074.776.905.042-.039.13-.113-.779-.905.171-.149.779.909.087-.074-.78-.909.17-.149.782.909.026-.024h.005v-.004l.006-.004c.051-.042.136-.117.136-.117l-.784-.912.086-.075.784.912.08-.067.093-.078-.787-.918.172-.149.788.916.085-.071-.788-.919.171-.153.79.923.174-.149-.792-.922.087-.075.791.922.112-.096.061-.053-.775-.926.17-.149.795.926h.003l.001-.003h.004v-.004l.078-.067-.796-.926.174-.149.796.926.174-.149-.8-.93.085-.078.802.934.143-.125.029-.022-.802-.932.169-.153.807.934.012-.011.073-.06-.806-.937.172-.149.807.937.072-.063.1-.086-.81-.94.087-.075.809.941.154-.135h.001l.002-.004h.001l.004-.004.009-.006-.811-.941.172-.152.813.948s.012-.014.026-.025l.059-.053-.813-.944.174-.153.813.948.007-.003.004-.004c.032-.024.062-.054.096-.082h.001l.004-.003h.003l.001-.004c.004 0 .004-.004.004-.004h.001c.003 0 .003-.003.003-.003h.002c.003-.003.003-.007.003-.007h.004l.001-.004c.014-.006.027-.018.041-.028l-.772-.994c.036-.031.071-.063.11-.092l.75 1.019c.026-.018.053-.04.08-.061.035-.024.071-.05.106-.071l-.72-1.058c.071-.049.146-.103.22-.156l.69 1.085.034-.017c.019-.014.042-.028.064-.042l-.678-1.101c.073-.049.146-.095.222-.142l.651 1.125c.065-.04.131-.075.199-.11l-.627-1.15.112-.063.616 1.16c.066-.036.135-.071.202-.106l-.594-1.178c.072-.039.147-.078.225-.117l.573 1.196a.92.92 0 0 0 .044-.021l.005-.004h.002c.017-.007.035-.018.052-.025l-.563-1.203c.072-.035.147-.074.223-.109l.547 1.217c.041-.018.083-.035.124-.057h.016l.004-.004c.024-.01.048-.021.073-.028l-.531-1.231.114-.054.521 1.235c.014-.004.026-.011.039-.015.057-.024.113-.045.172-.071l-.506-1.249c.076-.032.153-.063.227-.096l.491 1.263c.015-.011.031-.014.046-.021.02-.004.039-.015.058-.021l-.482-1.267c.076-.028.152-.06.23-.088l.466 1.274h.007c.003-.003.005-.003.006-.003.045-.018.087-.032.131-.046l.002-.004h.005c.023-.01.04-.014.062-.021l-.454-1.288c.037-.011.076-.025.116-.042l.445 1.291.157-.053h.008a.28.28 0 0 1 .051-.018l-.434-1.302c.077-.028.153-.054.231-.078l.418 1.305c.009 0 .018-.003.027-.006.005 0 .012-.004.02-.008h.008c.017-.006.035-.014.053-.017l-.414-1.313.23-.075.401 1.32h.003c.005-.003.011-.003.017-.007.067-.018.133-.039.198-.06l-.389-1.324c.039-.014.076-.028.116-.04l.383 1.331c.009 0 .02-.004.031-.007l.189-.053-.371-1.337c.077-.021.155-.046.234-.067l.355 1.345.019-.003c.03-.007.062-.015.093-.025l-.352-1.348c.076-.021.154-.042.232-.06l.339 1.352a.212.212 0 0 0 .055-.014h.002c.006 0 .017-.003.026-.003.046-.011.092-.025.139-.035l-.328-1.359c.039-.014.078-.021.119-.032l.319 1.363.062-.011c.054-.014.109-.025.16-.039l-.308-1.37c.078-.018.156-.035.234-.057l.298 1.377.112-.022-.292-1.38c.078-.018.158-.032.236-.05l.281 1.384c.037-.011.072-.014.109-.025h.001c.007 0 .017 0 .023-.007h.023c.021-.003.045-.011.065-.014l-.269-1.387a.633.633 0 0 1 .119-.021l.263 1.388c.021-.004.042-.01.065-.01.004-.004.007-.004.01-.004 0 0 .009-.004.017-.004h.005c.044-.01.085-.018.126-.024l-.249-1.395.237-.042.236 1.397.03-.003c.027-.004.055-.011.081-.014l-.23-1.402a6.55 6.55 0 0 1 .238-.039l.219 1.405c.012-.003.021-.003.031-.006.064-.008.13-.018.194-.025l-.206-1.413c.04-.003.08-.014.12-.017l.197 1.413.229-.032-.188-1.416.241-.032.171 1.42c.019-.004.035-.004.053-.007.021 0 .041-.004.062-.007l-.165-1.42.24-.028.15 1.423h.031c.007-.003.016-.003.024-.003h.008c.005 0 .01 0 .014-.004.051-.003.101-.01.15-.014l-.135-1.43c.039-.004.08-.004.121-.01l.128 1.43a.714.714 0 0 1 .092-.008c.044-.003.09-.007.134-.014l-.113-1.43c.082-.006.162-.014.243-.021l.099 1.437c.009 0 .021 0 .032-.003.027-.004.053-.004.08-.007l-.089-1.434c.082-.003.164-.01.244-.018l.074 1.44h.039l.188-.01-.057-1.441c.041 0 .081-.003.122-.003l.048 1.44c.077-.003.154-.003.229-.007l-.03-1.44c.083-.004.165-.004.249-.004l.009 1.444h.113v-1.448H35.939v1.448h.228v-1.448h.115v1.448h.228v-1.448h.227v1.448h.116v-1.448h.227v1.448h.228v-1.448h.115v1.448h.229v-1.448h.227v1.448H38v-1.448h.228v1.448h.228v-1.448h.114v1.448h.229v-1.448h.227v1.448h.116v-1.448h.227v1.448h.229v-1.448h.114v1.448h.227v-1.448h.229v1.448h.114v-1.448h.228v1.448h.229v-1.448h.115v1.448h.228v-1.448h.227v1.448h.114v-1.448h.23v1.448h.225v-1.448h.116v1.448h.229v-1.448h.226v1.448h.115v-1.448h.229v1.448h.227v-1.448h.114v1.448h.229v-1.448h.228v1.448h.115v-1.448h.228v1.448h.227v-1.448h.115v1.448h.229v-1.448h.228v1.448h.113v-1.448h.23v1.448h.228v-1.448h.114v1.448h.227v-1.448h.228v1.448h.113v-1.448h.227v1.448h.23v-1.448h.11v1.448h.23v-1.448h.227v1.448h.117v-1.448h.228v1.448h.227v-1.448h.113v1.448h.228v-1.448h.227v1.448h.113v-1.448h.23v1.448h.228v-1.448h.117v1.448h.227v-1.448h.228v1.448h.113v-1.448h.227v1.448h.228v-1.448h.114v1.448h.227v-1.448h.23v1.448h.114v-1.448h.231v1.448h.227v-1.448h.113v1.448h.228v-1.448h.227v1.448h.113v-1.448h.228v1.448h.23v-1.448h.113v1.448h.231v-1.448h.228v1.448h.113v-1.448h.227v1.448h.228v-1.448h.113v1.448h.227v-1.448h.228v1.448h.117v-1.448h.23v1.448h.224v-1.448h.114v1.448h.23v-1.448h.227v1.448h.113v-1.448h.228v1.448h.227v-1.448h.113v1.448h.23v-1.448h.228v1.448h.114v-1.448h.23v1.448h.228v-1.448h.113v1.448h.227v-1.448h.228v1.448h.117v-1.448h.227v1.448h.227v-1.448h.114v1.448h.23v-1.448h.228v1.448h.113v-1.448h.228v1.448h.227v-1.448h.113v1.448h.228v-1.448h.227v1.448h.117v-1.448h.228v1.448h.23v-1.448h.114v1.448h.227v-1.448h.228v1.448h.113v-1.448h.227v1.448h.23v-1.448h.114v1.448h.227v-1.448h.228v1.448h.117v-1.448h.228v1.448h.227v-1.448h.113v1.448h.228v-1.448h.227v1.448h.117v-1.448h.227v1.448h.228v-1.448h.113v1.448h.231v-1.448h.227v1.448h.114v-1.448h.227v1.448h.228v-1.448h.113v1.448h.23v-1.448h.227v1.448h.113v-1.448h.047l-.004 1.448h.097-.009.129l.021-1.444c.082 0 .164.004.249.008l-.043 1.44a.457.457 0 0 0 .064.003h.049l.05-1.44c.082.003.164.011.249.014l-.071 1.438a.127.127 0 0 0 .035.003h.062l.011.004h.064a.39.39 0 0 0 .057.003l.086-1.437.12.01-.092 1.433c.021 0 .046.004.067.007l.16.011.109-1.433.244.021-.127 1.43.106.011h.007l.135-1.427c.078.004.156.014.241.025l-.148 1.423a.347.347 0 0 0 .063.007c.054.007.106.011.163.018l.164-1.423c.038.007.077.01.12.018l-.171 1.419h.025l.011.003h.004c.045.007.096.011.138.018h.021c.011.003.021.003.028.003l.181-1.415c.082.01.16.024.238.035l-.191 1.413h.007c.035.007.071.011.106.018l.199-1.416c.077.014.159.025.237.04l-.209 1.409a.96.96 0 0 1 .105.018h.025c.003.003.011.003.015.003.003.004.007.004.01.004.007 0 .015 0 .021.003h.007s.011 0 .015.004l.021.003.227-1.405.121.021-.234 1.402c.019.003.035.007.057.007v.003c.011 0 .015 0 .021.004h.014l.018.003h.004l.113.022.245-1.398c.078.014.156.031.238.045l-.263 1.392c.007 0 .014.004.018.004.024.003.047.01.067.014.011 0 .021.003.028.003l.267-1.391c.077.018.155.032.234.049l-.273 1.388.116.021.018.003h.008a.037.037 0 0 0 .018.004c.004 0 .011.003.018.007.015.003.028.003.043.007l.291-1.38c.035.01.078.018.116.028l-.294 1.377c.015.003.028.003.046.01h.004s.004 0 .007.004l.164.031.308-1.37c.079.018.157.04.234.058l-.319 1.366c.04.007.075.014.11.024l.326-1.362c.078.021.156.039.234.061l-.337 1.355c.035.011.074.018.11.028v.003c.01 0 .014 0 .024.004h.004c.007 0 .014.004.021.004.019.006.043.014.061.017l.347-1.36.117.032-.354 1.348.081.021c.004 0 .008.004.011.004h.008c.021.007.035.01.057.018.007 0 .01 0 .014.003.019.003.035.011.051.014l.368-1.341c.078.021.153.045.23.067l-.38 1.331.05.018c.015.004.035.011.05.014.007 0 .007 0 .011.004l.387-1.334c.078.028.153.049.228.075l-.396 1.323c.074.021.146.043.216.067l.411-1.317c.036.015.078.025.114.04l-.416 1.313c.047.011.089.025.136.039h.003s.004.003.007.003c.022.007.047.018.071.025l.426-1.303.234.082-.443 1.292c.003.004.007.004.011.004.014.006.032.014.049.018.015.007.032.011.047.017l.45-1.288c.078.025.153.057.228.085l-.462 1.277c.015.004.025.011.036.014l.007.004.171.064.475-1.271a.752.752 0 0 1 .114.046l-.485 1.265c.028.01.058.024.086.032l.007.004h.004c.004.003.007.003.011.003.007.008.01.008.01.008l.004.003h.011l.004.003c.003 0 .007 0 .01.004h.004c.021.01.043.018.064.024l.5-1.252c.075.032.152.064.225.1l-.512 1.241c.035.014.066.025.103.042l.525-1.234c.074.036.152.068.224.103l-.54 1.221c.043.021.089.04.131.061h.005c0 .003.003.003.003.003l.071.032.557-1.207c.039.018.078.035.113.053l-.566 1.203c.018.007.031.018.049.021v.004l.008.003c.042.018.077.036.113.05.011.011.021.014.031.021l.59-1.181c.074.035.151.078.224.12l-.607 1.164s.003 0 .003.004c.012.003.022.01.032.014l.004.003.007.004c.015.003.028.014.043.021.004.003.007.003.011.007l.621-1.157.219.131-.639 1.136c.005.003.008.007.016.01.003 0 .007.004.007.004h.003l.096.057.003.003c.005 0 .005 0 .008.004.021.014.043.025.064.039l.667-1.111c.038.022.074.046.113.071l-.686 1.097c.067.042.132.082.192.125l.714-1.064c.074.053.145.109.216.163l-.741 1.029.003.004c.008.003.015.01.021.014v.003s.008 0 .008.004l.003.003h.005c0 .004.003.004.003.004h.004a.213.213 0 0 0 .047.035l.755-1.007c.043.031.082.063.121.099l.098.089-.793.961a.382.382 0 0 0 .041.04l.008.004c.008.006.015.01.018.017l.104.088.816-.947.085.075-.822.942.178.153.809-.944.17.148-.809.941s.015.01.028.028h.003l.054.046.809-.937.172.149-.806.937.103.089c.034.032.07.06.07.06l.806-.936.085.078-.806.933s.036.032.079.064l.096.085.801-.937.171.153-.799.933.085.075.803-.933.17.152-.798.93.113.096.06.053.796-.93.085.075-.794.926.063.057.11.092.791-.923.172.149-.788.923s.049.042.07.063l.015.011.794-.923.17.153-.794.918.099.085.074.063.793-.919.085.075-.788.919.163.138.007.007.788-.912.17.148-.785.913.025.024c.028.021.064.053.064.053l.78-.916.175.149-.787.916s.11.096.157.131l.018.018.78-.908.085.074-.78.908.173.149.78-.909.172.153-.781.905.089.074.777-.904.17.153-.774.901.028.025c.051.042.146.124.146.124l.771-.901.085.075-.771.897.064.057.109.092.77-.897.172.152-.771.895.088.074.771-.894.17.149-.766.894.127.11c.028.021.043.039.043.039l.766-.891.085.075-.762.891.174.149.76-.891.17.152-.76.884.086.078.762-.887.175.149-.76.887s.021.021.053.046l.118.099.759-.879.085.074-.759.88.092.078c.042.035.082.074.082.074l.756-.88.17.149-.752.876s.007.003.015.01l.07.063.752-.876.175.152-.752.869.173.153.746-.873.088.075-.749.869s.085.078.136.121h.003l.031.028.749-.866.175.146-.746.87.085.074.746-.865.17.152-.744.863.178.149.736-.862.085.075-.736.862.17.149.737-.863.174.152-.738.859.09.071.736-.855.172.149-.738.855.057.046.116.107.735-.855.085.074-.735.852.175.149.731-.852.17.153-.731.844.093.078.724-.848.17.148-.724.849.175.146.719-.841.09.074-.724.841.018.015c.042.039.155.135.155.135l.724-.841.17.153-.724.837.085.075.726-.837.17.149-.718.837.172.149.716-.834.085.075-.716.83.176.152.714-.833.171.152-.713.827.085.075.713-.827.171.153-.711.823.101.085.074.064.709-.827.085.078-.709.824.085.071.088.078.708-.82.17.146-.703.823.085.075.703-.82.17.149-.698.82.173.149.698-.82.087.078-.7.813.171.149.702-.813.17.153-.695.809s.058.05.078.071l.008.004.695-.809.17.149-.695.809s.057.046.103.089l.075.061.688-.806.089.075-.692.806.156.134.015.011.691-.802.17.152-.688.798.085.078.688-.802.175.149-.688.798.163.142.011.008.685-.795.085.075-.685.795.124.105.051.043.68-.795.17.149-.677.794.063.054c.004.014.019.021.019.021l.675-.792.173.149-.677.792.025.021c.044.042.147.128.147.128l.671-.788c.036.035.07.063.106.099l-.692.762c.043.04.09.082.131.125l.008.006c.005.004.008.004.008.004 0 .007 0 .007.003.007 0 0 .004.003.007.003l.003.004v.004l.005.003.727-.713c.064.074.129.148.186.223l-.76.657.021.025.005.003s.003 0 .003.004c0 0 0 .003.008.007 0 .003.003.003.003.003.004.004.004.007.004.007s.003 0 .003.004c.003 0 .003.003.003.007a.09.09 0 0 1 .025.028l.777-.631.167.241-.806.571c.021.025.036.053.054.078l.003.004.003.007.005.003s0 .004.003.007h.003v.007l.005.004s.003.003.003.007v.003a3.56 3.56 0 0 1 .049.071l.831-.508c.025.043.05.086.07.131l-.845.472c.036.067.072.135.104.206l.87-.412c.043.092.077.184.11.28l-.892.34a.042.042 0 0 1 .008.018v.003l.003.004.003.007v.003c.008.014.012.032.018.046v.004h.005c0 .006 0 .014.003.021l.898-.305c.028.097.057.192.077.288l-.908.234c.008.043.018.079.028.117V49.125l.004.003.004.015v.007c0 .004 0 .014.003.021.004.014.004.025.004.039l.925-.16a.715.715 0 0 1 .022.146l-.926.127c.007.057.015.113.018.174 0 .007.003.014.003.014v.039l.938-.053c0 .099.003.199 0 .301l-.93-.021c0 .01-.003.018-.003.024V49.825l-.005.004v.061l.932.058zM17.369 58.221zM90.25 52.6zM22.816 62.899z"/><g><path fill="#563422" d="M72.157 45.68c-.571-.533-1.447-.845-2.509-.895a1.882 1.882 0 0 0-.908-1.532 33.389 33.389 0 0 0-7.217-3.236 1.936 1.936 0 0 0-.848-.068c-.518.078-1.221.213-2.008.436a1.886 1.886 0 0 0-1.505-1.443 35.932 35.932 0 0 0-6.323-.572h-.036c-.057 0-.109 0-.166.004h-.074c-.128 0-.256.014-.384.042-1 .22-2.299.603-3.605 1.273a1.899 1.899 0 0 0-1.88-.777 34.529 34.529 0 0 0-8.016 2.441 1.684 1.684 0 0 0-.4.241 11.507 11.507 0 0 0-1.711 1.636 1.838 1.838 0 0 0-.714-.142c-.343 0-.694.096-.999.287-5.447 3.393-8.695 7.859-8.692 11.94.002 2.51 1.244 4.358 3.587 5.345 1.652.698 3.898 1.01 7.287 1.01 2.014 0 4.29-.105 6.701-.217 2.757-.131 5.883-.272 9.088-.275h.12c2.87 0 5.589.105 8.346.227l.618.028c2.398.103 4.662.203 6.678.203 3.75 0 7.511-.291 9.599-2.379 1.032-1.027 1.553-2.377 1.55-3.998-.001-3.163-1.988-6.563-5.579-9.579zm-5.762-1.583c.469.249.926.504 1.366.773-.032-.006-.07-.006-.109-.006-.313 0-.773.106-1.257.266v-1.033zm-10.254-3.413c.23.039.457.074.685.117-.231.121-.458.252-.685.391v-.508zm-12.087.276c.321-.067.644-.127.971-.188a9.981 9.981 0 0 0-.559.55 9.695 9.695 0 0 0-.412.426v-.788zm-10.895 4.472c.225-.153.458-.305.694-.451a9.011 9.011 0 0 0-.694 2.1v-1.649zm-6.12 12.549c-.641-.648-.985-1.519-.987-2.664 0-1.153.345-2.367.987-3.591v6.255zm1.83 1.09c-.713-.255-1.3-.585-1.755-1.018v-6.466c.455-.83 1.042-1.66 1.755-2.473v9.957zm1.193-10.087v10.413a10.004 10.004 0 0 1-1.116-.301v-10.07c.345-.387.718-.767 1.116-1.146v1.104zm1.829 0V59.66a17.544 17.544 0 0 1-1.757-.247V47.809c.54-.503 1.129-1 1.757-1.479v2.654zm1.191-1.484c-.166 1.043-.126 1.944 0 2.466v9.776a55.413 55.413 0 0 1-1.115-.074V46.273c.356-.269.731-.536 1.115-.792V47.5zm1.832 1.484v10.797c-.612 0-1.2-.011-1.754-.039v-9.534c.062.152.135.241.215.241.01 0 .024-.004.037-.007.061-.032.229-2.325 1.502-4.467v3.009zm1.192 0v10.789c-.363.005-.722.008-1.07.008h-.048V45.85c.167-.269.352-.539.557-.798.175-.252.364-.487.561-.709v4.641zm1.829 0v10.741c-.604.021-1.188.036-1.756.046V44.257a9.954 9.954 0 0 1 1.267-1.179c.161-.074.325-.138.489-.209v6.115zm1.191 0v10.695c-.378.018-.749.031-1.115.041V42.838c.366-.156.736-.305 1.115-.447v6.593zm1.831 0V59.6c-.596.028-1.185.053-1.756.075V42.361c.571-.216 1.16-.416 1.756-.604v7.227zm1.19-4.231c-.669 1.626-.731 2.963-.389 2.963h.009c.025-.007.148-.305.38-.777V59.543c-.377.017-.748.034-1.115.053V41.738c.367-.114.738-.22 1.115-.323v3.338zm1.833 4.231v10.481l-1.756.075V46.791c.354-.702.926-1.704 1.756-2.679v4.872zm0-7.157a10.166 10.166 0 0 0-1.756 2.753v-3.183c.574-.156 1.16-.298 1.756-.422v.852zm1.188 7.157v10.429a78.16 78.16 0 0 0-1.114.049V44.024c.332-.38.701-.753 1.114-1.101v6.061zm1.832 0V59.351c-.59.015-1.178.036-1.757.062V42.859c.121-.096.242-.195.366-.288a9.73 9.73 0 0 1 1.392-.958v7.371zm1.192 0V59.32c-.376.011-.745.018-1.115.031v-17.78c.373-.209.746-.394 1.115-.55v7.963zm1.831 0v10.311c-.589.005-1.178.015-1.756.025V40.989a13.47 13.47 0 0 1 1.756-.593v8.588zm1.192-1.757c-.397 1.175-.408 2.034-.121 2.034h.004c.015 0 .05-.071.117-.192v10.223H50.101V40.379c.17-.046.326-.082.475-.117h.263c.124 0 .249.003.376.003v6.962zm1.831 1.757V59.31c-.582-.01-1.168-.018-1.756-.018V48.923c.272-.529.848-1.608 1.756-2.722v2.783zm0-5.067a10.736 10.736 0 0 0-1.756 3.094v-6.745c.588.007 1.174.032 1.756.067v3.584zm1.189 5.067v10.35a68.87 68.87 0 0 0-1.111-.024V46.109c.323-.394.695-.791 1.111-1.171v4.046zm0-6.306c-.004.006-.016.014-.025.021-.404.351-.767.73-1.086 1.125V40.34c.369.025.741.061 1.111.096v2.242zm1.83 6.306v10.404c-.578-.021-1.16-.039-1.757-.054V44.871c.319-.287.668-.56 1.036-.813.234-.177.477-.344.721-.497v5.423zm0-7.743c-.61.383-1.206.837-1.757 1.366v-2.165c.597.063 1.179.138 1.757.23v.569zm1.189 7.743V59.43c-.365-.011-.737-.029-1.113-.042V43.515c.368-.227.744-.425 1.113-.599v6.068zm1.835 0v10.524c-.578-.028-1.16-.053-1.756-.074V42.88a12.61 12.61 0 0 1 1.756-.649v6.753zm1.188 0V51.943c-.22.734-.22 1.23 0 1.272v6.342c-.298-.014-.6-.025-.901-.039a16.01 16.01 0 0 1-.213-.011V42.209c.404-.117.78-.206 1.114-.273v7.048zm1.835 10.651c-.579-.023-1.16-.049-1.757-.074v-6.407c.185-.26.771-1.249 1.757-2.375v8.856zm0-11.088c-.88 1.128-1.458 2.282-1.757 3.158v-9.779c.217-.046.423-.079.6-.107.391.124.777.252 1.157.39v6.338zm1.189 2.165v8.967c-.365-.011-.738-.025-1.114-.039V50.693c.33-.375.703-.759 1.114-1.135v1.154zm0-3.492c-.411.394-.784.813-1.114 1.231v-6.217c.376.139.749.276 1.114.426v4.56zm1.831 1.764v10.748c-.567-.013-1.157-.028-1.753-.051V49.486a11.982 11.982 0 0 1 1.753-1.323v.821zm0-3.272c-.252.152-.454.312-.567.465a10.46 10.46 0 0 0-1.186.976v-4.46a30.49 30.49 0 0 1 1.753.766v2.253zm1.192 3.272V59.75c-.365-.008-.738-.012-1.115-.018V48.118a11.4 11.4 0 0 1 .483-.281c.213-.127.426-.248.632-.354v1.501zm0-3.822a6.651 6.651 0 0 0-1.115.504v-2.172c.377.181.75.37 1.115.561v1.107zm1.831 3.822V59.72a41.68 41.68 0 0 1-1.568.03h-.192V47.447a7.487 7.487 0 0 1 1.761-.635v2.172zm1.189 0v10.679c-.358.025-.728.044-1.118.057V46.794a5.554 5.554 0 0 1 1.118-.124v2.314zm1.834 0v10.478c-.546.085-1.136.149-1.76.198V46.67c.745.01 1.267.198 1.473.415l.287.245v1.654zm1.189 0V59.21c-.348.093-.725.17-1.117.237V47.394c.393.344.77.695 1.117 1.046v.544zm1.831 1.728v7.731c-.486.316-1.075.558-1.757.746V48.515a15.43 15.43 0 0 1 1.757 2.125v.072zm1.189 6.5c-.262.472-.639.859-1.114 1.179v-7.633c.476.717.853 1.434 1.114 2.146v4.308zm.078-.142v-3.957c.248.731.384 1.451.384 2.151 0 .702-.132 1.299-.384 1.806z"/></g><g><path fill="#231010" d="M23.438 47.493c-.466-.223-1.41-.394-2.274-.273-1.384.194-2.616.763-3.701 1.374-.75.422-1.526.847-2.351 1.209-.014-.006-.028-.01-.042-.017-.77-.331-1.772-.792-2.723-.862-.451-.046-1.295-.046-1.909.472-.185.156-.253.327-.206.511.036.143.144.281.28.401.016.025.03.042.046.057 1.241 1.186 3.255.681 4.909-.042.138.057.273.113.411.167.783.309 1.738.588 2.651.458.228-.031.451-.113.633-.227.005 0 .009 0 .014-.004a.765.765 0 0 0 .245-.209.656.656 0 0 0 .174-.358.024.024 0 0 1-.009.018c.035-.206-.052-.387-.26-.543-.336-.256-.832-.245-1.094-.085-.152.092-.192.22-.114.337a.345.345 0 0 0 .067.082c.078.06.178.085.225.057.046-.032.022-.107-.054-.167a.335.335 0 0 0-.164-.067c-.014-.085.067-.149.113-.181.196-.114.628-.153.937.082.186.138.263.301.229.482a.758.758 0 0 1-.197.358c-.256.206-.581.23-.928.228a5.452 5.452 0 0 1-1.059-.143 8.142 8.142 0 0 1-1.411-.471 22.878 22.878 0 0 0 1.436-.749c1.001-.56 1.936-1.164 3.132-1.508 1.004-.287 2.237-.578 3.353-.057a2.2 2.2 0 0 1 .596.55c.208.287.403.742.154 1.281-.267.578-.821.844-1.244.968-.61.174-1.215.131-1.519.014-.654-.248-.862-.72-.776-1.075.057-.234.235-.415.488-.511.024.064.156.121.321.135.191.018.359-.032.371-.106.013-.078-.133-.152-.326-.167-.03-.004-.059-.004-.087-.004-.007-.003-.016-.003-.023-.003-.01.003-.017.003-.026.003a.755.755 0 0 0-.1.018c-.379.078-.653.309-.728.621-.094.384.13.895.836 1.161a2.1 2.1 0 0 0 .724.113c.291 0 .605-.043.889-.125.444-.127 1.031-.408 1.31-1.018.261-.564.057-1.039-.163-1.341-.312-.44-.591-.62-1.056-.844zm-9.564 2.782c-1.11.352-2.2.585-3.17.067-.174-.131-.318-.287-.36-.451-.041-.16.02-.309.183-.443a1.79 1.79 0 0 1 .568-.323c.61-.135 1.329-.007 2.081.249.524.177 1.019.39 1.512.606a12.14 12.14 0 0 1-.814.295zM91.123 49.395c-.613-.518-1.458-.518-1.908-.472-.948.071-1.952.532-2.722.862-.014.007-.028.011-.042.017-.823-.362-1.598-.787-2.351-1.209-1.084-.61-2.319-1.179-3.704-1.374-.858-.121-1.806.05-2.271.273-.467.224-.744.404-1.057.841-.221.302-.427.777-.164 1.341.281.61.867.891 1.311 1.018.283.082.595.125.891.125.273 0 .532-.04.724-.113.703-.267.93-.777.837-1.161-.077-.312-.351-.543-.73-.621a.838.838 0 0 0-.099-.018c-.008 0-.016 0-.025-.003-.011 0-.019 0-.025.003-.028 0-.057 0-.088.004-.191.014-.338.089-.322.167.01.074.176.125.368.106.167-.014.299-.071.319-.135.255.096.433.276.489.511.085.355-.121.827-.772 1.075-.307.117-.912.16-1.526-.014-.42-.124-.974-.39-1.242-.968-.244-.54-.051-.994.155-1.281.167-.23.388-.416.597-.55 1.115-.521 2.349-.23 3.354.057 1.196.344 2.132.948 3.13 1.508.395.22.891.49 1.438.749a8.164 8.164 0 0 1-1.413.471 5.446 5.446 0 0 1-1.057.143c-.348.003-.675-.021-.93-.228a.739.739 0 0 1-.195-.358c-.033-.181.046-.345.229-.482.306-.234.742-.196.938-.082.043.031.128.096.113.181a.325.325 0 0 0-.163.067c-.077.061-.103.135-.057.167.05.028.149.003.227-.057a.233.233 0 0 0 .064-.082c.082-.117.042-.246-.113-.337-.263-.16-.752-.171-1.094.085-.206.156-.294.337-.263.543 0-.004-.006-.011-.006-.018a.661.661 0 0 0 .173.358.786.786 0 0 0 .245.209c.007.004.011.004.015.004.184.113.407.195.635.227.913.131 1.871-.148 2.651-.458.134-.053.272-.11.411-.167 1.653.724 3.669 1.229 4.911.042a.585.585 0 0 0 .046-.057c.135-.121.242-.259.28-.401.048-.181-.022-.352-.212-.508zm.097.497c-.043.164-.185.319-.362.451-.969.518-2.058.285-3.169-.067a12.267 12.267 0 0 1-.813-.295c.493-.216.986-.429 1.512-.606.752-.256 1.469-.384 2.08-.249.198.071.397.174.567.323.162.134.227.283.185.443z"/></g><g><path fill="#231010" d="M55.462 65.593l-.014-.283.014.283z"/></g></svg>