<svg xmlns="http://www.w3.org/2000/svg" viewBox="0 0 2000 2000"><path fill="none" d="M510.9 1348.1l-4.1-42.2c-3.5-11.5-6-18.2-7.1-19l11.2 61.2zM758 1801c-4.1-.6-8.3-1.2-12.5-1.8-2.5-.6-5.1-1.1-7.7-1.7l.7 8.2c1.8.3 3.6.6 5.4 1 4.3.4 8.6.9 12.8 1.3 8.5.8 16.7 1.6 24.8 2.3h.3l-.8-6.1c-7.4-1.1-15.1-2.1-23-3.2zM682.2 1783.9l1.1 11.1c16 4.2 32.3 6.2 47.8 9.3l1.8.3-1.3-8.6c-16.1-3.8-33.1-6.5-49.4-12.1zM787.5 1805.1l.4 6.2c13.7 1.3 26.9 1.8 39.2 1.8h.5l-.4-4.4c-12.5-.7-25.8-1.6-39.7-3.6zM897.2 1810.3c-8.2.3-20.4 2.7-31.8 2.7h.1c11.4 0 23.6-2.2 31.7-2.7 4.9-.4 3.8-1.3 14.8-1.5v-.6c-11 .1-10 1.9-14.8 2.1zM633 1767.6l2.5 14.4c13.3 4.3 27 7.7 40.4 11.1l-2.1-11.8c-13.7-4.1-27.5-8.3-40.8-13.7zM739.7 1500.9l-10.1-73.6 6.6 156.7zM604.3 1756.3l-24.3-11.4c-1.8-.8-3.5-1.7-5.3-2.5l4.4 18.9c6.2 2.6 12.4 5.2 18.6 7.7 8.7 3.2 17.7 6.1 26.5 9.1 1.5.6 3 1 4.6 1.6-1.2-4.9-2.5-10-3.8-15.3l-20.7-8.1zM1262.3 1560.1l16.5-122.2-12.4 41.5zM920.6 1807.7s-3 .1-8.4.3v.4c5.4-.5 8.4-.7 8.4-.7zM1154.4 1632.4l5.6-132-9.2 45.3zM534.2 1720.8c-3.5-2.1-6.8-4.2-10.2-6.3l7.4 24.9c12.9 6.4 25.9 13.2 39.9 18.7l-6.1-20.3c-10.6-5.6-20.8-11.6-31-17zM832.1 1808.5l.2 3.8c10.1.1 19.4.4 28.1 0l-.2-2.6c-8.7 0-18.1-.7-28.1-1.2z"/><path fill="#EC2A7B" d="M701.9 804.2c130.8-15 401.1-26.5 456.9-113.7 1.7-16.3 3.1-37.7-13.8-50-.6-.4-1.3-1-2.1-1.5-31.6 36.2-77.7 59.3-129.2 60.4C999.5 715 966.8 738 892 756.3c-125.1 30.7-360.1-6.6-443 146.5 0 0 22.1-14.9 62.5-30.2 3.7-4.6 7.5-9.1 11.5-13.3 35.3-19.4 96.2-45.7 178.9-55.1z"/><path fill="#EC2A7B" d="M906.2 706.8c-27.7 9.1-61.6 15-98 20.8 77.8 2.9 145.6-13.6 184.2-28.8-14.3-1.4-28-4.7-41.1-9.3-12.9 5.7-27.6 11.5-45.1 17.3zM765.7 683.8c55.2 4.9 107-1.4 150-11.6-39.1-24.7-67.8-64.3-78.1-110.9-5.3 27.2-16 49.3-40.6 63.2-42.2 24-209.4 55.9-274.2 149.1 0 0 32.6-25.2 85.9-41.7 23.8-17.8 51.3-32.3 78.9-44.4 23.7-4.3 49.8-6.2 78.1-3.7zM797.3 837.4c-23.6.5-45.8.8-65.8 1.4 20.7-.4 42.8-.8 65.8-1.4z"/><path fill="#EC2A7B" d="M1100.1 1136.7c67.1-10.4 129.2-24.4 181.5-40.8 42.7-14.6 77.6-29.5 107.1-45 13.2-7.8 24.3-15.9 32.6-24 7.2-7.1 13.4-12.8 18.9-17.4-.4 15.9-2.2 28.1-2.2 28.1s2.3 7.1 6.4 11.4c1.3.5 2.5 1 3.7 1.6-.1-.4-.3-.7-.3-.7s12-80.5-18.1-101.8c-30.1-21.3-63.3-41.3-63.3-51.9 0-10.7 1.5-71.9-25.6-95.9s-85.9-79.9-134.1-85.2c-48.2-5.3-43.7 5.3-48.2-5.3-1.3-3-.9-8.4-.2-14.9-12.4 24.5-44.3 69.6-119.7 94-99.9 32.4-282.4 34.6-282.4 34.6s57.3 4.7 115.2 11.4c128.3-6.5 259.7-24.9 288.5-87.7 0 0-26.4 76.7-138.6 103.8-15.8 3.8-33.5 6.8-52 9.1 6.9-.7 13.7-1.4 20.3-2.3.5.8.6 1.6 0 2.4-9.3 11.5-74 12.3-155.5 15-18.7-3.4-35.9-6.4-49.1-8.6-33.6-.8-56-2.3-56-2.3s251.6 39.9 236.5 55.9c-15.1 16-147.6 0-280.2 0s-268.2 5.4-304.3 75.9c0 0 19-12.5 58.1-22.6 1.8-2.1 3.5-4.2 5.4-6.2 31.2-16.7 109.4-47.6 245.1-34.8 27.9 2.6 263.4 38.3 649-43.2 0 0-40.4 66.7-250.3 69.8-116.6 1.7-250.2 5.1-347.4 13.5-29.6-4.6-48.1-8.6-54.7-9.7-90-15.5-155-8.8-197 1.4 41.7-4.9 95.7-5.1 163 6.5 28.4 4.9 267.1 59.9 668.9 6.7 0 0-46.7 65.2-262.1 51.9-166.6-10.3-367.4-19.8-454.8-8.2 3.7 21.3 32.8 33 129.4 45.5 120.1 15.4 407.8 11.6 407.8 11.6s-115.5 32.2-263.5 39.9c-60.4-6.3-119.4-13.7-159-22-115.3-23.9-129.5-39-119.6-70.4.5-1.6 1.8-3 3.5-4.4-24.8 3.4-40.2 8.6-42.6 16-10.6 33.3 4.5 49.3 126.6 74.5 81.6 16.9 240.4 30.8 336.9 38.2 54.9-5.6 89.5-12.4 89.5-12.4s-4.6-.4-13.1-1z"/><path fill="#EC2A7B" d="M1460.6 1064.5c-6.5 5.6-13.1 11-20.2 16.4-3.8-5.5-17-1.7-52.2 27.8-8.6 7.2-20 14.2-33.4 20.8-29.7 12.8-64.6 24.7-107.1 35.7-140.7 32.6-350.6 43.4-534.3 11.4-64.1-11.2-114.6-26.3-154.4-42.8-71.4-23.1-138.9-57.7-194.4-108.5 0 0 33.1 122.5 316.4 171.7 194.4 33.8 416.5 22.5 565.4-12.1 44.9-11.6 81.9-24.2 113.3-37.7 14.2-7 26.2-14.4 35.3-22.1 37.2-31.2 51.3-35.2 55.3-29.4 7-5.2 13.6-10.6 20-16.1 1.8-2.2 3.5-4.4 5-6.4-3.2-2.4-8.3-5.7-14.7-8.7z"/><path fill="#612A15" d="M1475.3 1073.2c-1.5 2-3.2 4.1-5 6.4-9.2 11.5-22.2 25.8-40.1 41.4l-32.3 176 12.8-38.9c7.7 0 15 0 22.2.1-.7 6.7-1.1 13.6-1.1 20.8 0 12.4.1 24.8.3 37.3-1 3.1-1.9 6.3-2.9 9.4L1216 1850.2l169.8-516.4 6-61.5-202.7 582.6 152.3-562.3-24.8 18.4-38 127-16.5 122.3 4.1-80.7-116.2 389 122.7-516 7.3-144.3c-31.7 12.3-68 23.4-109.2 32.5l-2.2 52.9 33.6-2-42.2 208.7-5.5 132-3.6-86.7-67.9 335.2 62.7-459.3-5.5-130.9-102.3 597.8h-.1l68.1-630.6 32.9-.1-.4-10.6c-23.1 4.3-47.6 7.9-73.6 10.8l9 2.8-71 637.1 40.3-634.9c-7 .6-14.2-.2-21.5.4l-17.3 109.7-42.5 522.5-.3-.1 17.8-630.9c-3.6.1-7.1.3-10.8.4l-18.8 448.8-11-261.5-26.5 355.7c5.4-.2 8.4-.3 8.4-.3s-3 .2-8.5.7l-6.6 88.5 1.8-88.1c-3.5.3-7.6 1.1-12.4 1.5-8.2.6-18.1 2.8-29.5 2.8h-.1l.9 83.7-.4-.3-5.5-84c-8.6.4-18 1.6-28.1 1.5l4 84.1h-.1l-8.7-85h-.5c-12.3 0-25.5-.5-39.2-1.8l5.1 80.3v-.1l-11.1-81.1c-.1 0-.2 0-.3-.1-8.1-.7-16.3-1.6-24.8-2.4-4.2-.4-8.5-.8-12.8-1.3-1.8-.3-3.6-.9-5.4-1.2l7.1 79.6-12.7-80.6c-.6-.1-1.2-.1-1.8-.2-15.5-3.1-31.8-5.1-47.8-9.2l8.2 81.6-.4-.1-15.2-83.4c-13.4-3.5-27.1-6.9-40.4-11.1l15 86.2c-1.3-5.2-9.6-39.3-21.8-88.5-1.5-.5-3.1-1-4.6-1.6-8.8-3-17.8-5.9-26.5-9.1-6.2-2.6-12.4-5.2-18.6-7.7l20.4 88.6c138.8 66.4 321.1 55.9 321.1 55.9s230.3 13.3 370.2-84.4l27.7-58.6c-1.5 6-3.1 12-4.6 18l-22.3 40.1c17.8-12.5 34.2-26.7 48.4-43.1l148.7-725.3c.2 0-3.7 7.9-13.2 20.7zm-252.4 184.7h47.1L1124.2 1874l98.7-616.1zm126.3 378.6l-91.9 198.2 120.5-317.7c-9.7 39.7-19.1 79.5-28.6 119.5zM691.5 1274.4l2.5 28.2 31 15.1-2.8-66.9c-40-6.6-76-14.9-108.3-24.6l2 38.6 28.4 13.8c27.1-2.4 47.2-4.2 47.2-4.2zM531.4 1739.4l25.8 86.8c13.3 8.8 27.3 16.5 41.8 23.5l-27.7-91.6c-14-5.5-27-12.3-39.9-18.7zM582.9 1283.3l-4.5-24.9h15.8l-5.4-40.2c-36.5-12.3-67.9-26.2-94.6-40.6l10.8 110c12.1.3 43.9-1.7 77.9-4.3z"/><path fill="#612A15" d="M524 1714.5l10.2 6.3c10.2 5.4 20.3 11.4 31 16.9l-139.9-463.1-13.1-3.6 54.4 2 108.2 469.3c1.8.8 3.5 1.7 5.3 2.5 8 3.8 16.1 7.6 24.3 11.4l20.6 8.1c-35.3-142.6-96.7-388.5-118.2-458.5l4.1 42.2-11.2-61.2v-.1L478 1168.5c-96.3-56.3-125.4-116.1-125.4-116.1l130.1 634.7c3.7 2.6 7.3 5.2 11.1 7.9 7.8 5.5 16.3 10.8 25 16.1-.5-6.5-.9-13-1.5-19.5l6.7 22.9zM520.5 1733.8c-11.1-6.1-21.8-12.1-32-18.2l12.7 62.2c15.5 17.9 33.7 33.4 53.5 46.7l-34.1-89.1c0-.5-.1-1.1-.1-1.6zM778.2 1343.5l-20.8-10.1 30.1 471.7c13.9 2 27.2 2.6 39.6 3.2l-48.9-464.8zM585.2 1296l-34 3.1 81.8 468.5c13.3 5.4 27.1 9.7 40.8 13.8L585.2 1296zM1404.8 1141.2c-24.3 17.9-55 36.6-93.2 53.8l-8.5 62.9c32.3 0 62.6.1 90.2.1l11.5-116.8zM665.3 1372.9l-23.2 12.2 40.1 398.9c16.3 5.6 33.3 8.3 49.4 12.1l-66.3-423.2zM758 1801c7.9 1.1 15.6 2.1 23.1 3.2l-41.4-303.3-3.5 83.1-6.6-156.7-11.2-82.2-19.7 10.3 39.1 442.1c2.6.6 5.1 1.2 7.7 1.7 4.2.6 8.4 1.2 12.5 1.8z"/><path fill="#612A15" d="M755.5 1303.6l53.6 35.3 23 469.6c10 .5 19.4 1.2 28.1 1.2L824 1262.3c-25.9-1.9-50.7-4.4-74-7.5l-3.1 73.4 10.5 5.1-1.9-29.7zM865.4 1813c11.4 0 21.3-2.4 29.5-2.7 4.8-.2 8.9-1.1 12.5-1.3l11.1-542.8c-20.4 0-39.9.9-58.9 0l5.8 546.8z"/><path fill="#FBF2DE" d="M686.4 962.7c6.5 1.1 25.1 5.1 54.7 9.7 97.1-8.4 230.8-11.8 347.4-13.5 209.9-3.1 250.3-69.8 250.3-69.8-385.6 81.4-621 45.8-649 43.2-135.7-12.8-213.9 18.1-245.1 34.8-2 2-3.7 4.1-5.4 6.2-3.5 4.2-6.7 8.5-9.1 13.3 0 0 19.3-12.8 59.2-22.5 42-10.1 106.9-16.8 197-1.4zM599.5 1025.7c-9.9 31.5 4.3 46.5 119.6 70.4 39.7 8.2 98.7 15.7 159 22 147.9-7.7 263.5-39.9 263.5-39.9s-287.7 3.8-407.8-11.6c-96.7-12.5-125.8-24.2-129.4-45.5 0-.3-.1-.5-.2-.8-.5.3-.8.7-1.2 1-1.7 1.3-3 2.8-3.5 4.4zM1038.7 788.8c75.3-24.4 107.3-69.5 119.7-94 5.2-10.2 7-16.9 7-16.9-1.6 4.4-3.9 8.6-6.5 12.7-55.8 87.2-326.1 98.7-456.9 113.7-82.7 9.4-143.6 35.7-179 55-4 4.2-7.8 8.7-11.5 13.3-6.3 8-12.2 16.6-17.3 26.1 0 0 79.7-54.1 213.5-59.1 7.5-.3 15.5-.5 23.9-.7 20-.5 42.2-.9 65.8-1.4 24.9-.5 51.2-1.2 78-2.3-1.2-.1-2.5-.3-3.7-.4-57.9-6.7-115.2-11.4-115.2-11.4s182.2-2.2 282.2-34.6z"/><path fill="#FBF2DE" d="M1247.7 1165.2c42.5-11 77.4-22.9 107.1-35.7 13.4-6.6 24.7-13.6 33.4-20.8 35.2-29.5 48.5-33.3 52.2-27.8 7.1-5.3 13.7-10.8 20.2-16.4 1.5-1.3 3.1-2.6 4.6-3.9-3.1-2.4-9.3-6.6-17.2-10-1.2-.5-2.4-1.1-3.7-1.6-4.1-4.3-6.4-11.4-6.4-11.4s1.8-12.2 2.2-28.1c-5.5 4.7-11.7 10.4-18.9 17.4-8.3 8.1-19.4 16.2-32.6 24-29.4 15.4-64.4 30.4-107.1 45-52.2 16.4-114.3 30.5-181.5 40.8 8.5.6 13.3.9 13.3.9s-34.6 6.8-89.5 12.4c-57.7 5.8-138 10.3-224.6 4-21.9-.9-43.6-2.4-65-4.4-214.4-20.6-288-94.3-310.5-127.1-3.1-2.7-6.2-5.4-9.3-8.2 0 0 18.2 66.9 144.5 119.4 39.8 16.6 90.3 31.7 154.4 42.8 183.8 32 393.7 21.3 534.4-11.3zM951.3 689.4c-12.6-4.4-24.5-10.2-35.6-17.2-43 10.2-94.7 16.5-150 11.6-28.3-2.5-54.4-.6-78.2 3.7-27.6 12-55.1 26.6-78.9 44.4-17.4 13-33 27.7-44.7 44.7 0 0 89.6-69.8 214.5-49 5.2.9 10.4 1.5 15.6 2.1 4.8-.7 9.5-1.5 14.1-2.2 36.4-5.7 70.2-11.7 98-20.8 17.6-5.7 32.3-11.5 45.2-17.3zM989.8 860c.6-.8.5-1.6 0-2.4-6.7.9-13.4 1.6-20.3 2.3-96.3 9.5-210.5 2.2-210.5 2.2s10.2 1.6 26.2 4.3c13.2 2.2 30.4 5.2 49.1 8.6 81.5-2.6 146.2-3.5 155.5-15z"/><path fill="#C32126" d="M1143 639.1c27.2-31.1 43.8-71.6 43.8-116.2 0-95.7-76.2-142.2-171.1-143.9 40.9-150.5 156.5-267.2 302.4-309.8 7.7-2.5 11.7-12.5 8.8-22.6-2.9-10.1-12.2-16.3-20.7-13.5C1150 90 1039 223 1007.9 378.9c-96.6.7-174.5 47.2-174.5 144.1 0 13.2 1.6 26.1 4.3 38.5 10.3 46.6 39.1 86.1 78.1 110.9 11.1 7 23 12.8 35.6 17.2 13.1 4.6 26.8 7.9 41.1 9.3 5.8.6 11.6.9 17.5.9 1.3 0 2.5-.2 3.7-.2 51.6-1.2 97.6-24.4 129.3-60.5zm-54.7-69.3c-5.8 4.2-15.5-19.9-15-33.7 6.5-194.7 164.9-72.6 15 33.7z"/><path fill="#C32126" d="M1088.3 569.8c149.8-106.3-8.5-228.4-15-33.7-.5 13.8 9.3 37.8 15 33.7z"/><path opacity=".3" fill="#FFF" d="M1088.3 569.8c149.8-106.3-8.5-228.4-15-33.7-.5 13.8 9.3 37.8 15 33.7z"/><path fill="#CE8068" d="M907.3 1808.7c1.8-.1 3.4-.3 4.8-.4v-.4c-1.4 0-3 .1-4.8.2v.6zM930.8 1265.7l7.8 186.7 14.4-193.9-34.5.1-.1 7.3h2.2c3.5-.1 6.8-.2 10.2-.2z"/><path fill="#612A15" d="M912.2 1808l26.5-355.7-7.8-186.7c-3.5 0-6.7.1-10.2.1h-2.2l-11.1 542.4c1.8 0 3.4-.1 4.8-.1z"/><path fill="#CE8068" d="M912.2 1808l26.5-355.7-7.8-186.7c-3.5 0-6.7.1-10.2.1h-2.2l-11.1 542.4c1.8 0 3.4-.1 4.8-.1z"/><path fill="#612A15" d="M905.5 1896.8l6.6-88.5c-1.4.1-3 .2-4.8.4l-1.8 88.1z"/><path fill="#CE8068" d="M905.5 1896.8l6.6-88.5c-1.4.1-3 .2-4.8.4l-1.8 88.1zM859.5 1258.5h-35.8l.3 3.9c11.6.8 23.5 1.5 35.6 2l-.1-5.9zM860.2 1809.7l.2 2.6c1.7-.1 3.4-.1 5.1-.3v-2.4c-1.8.1-3.6.1-5.3.1z"/><path fill="#612A15" d="M865.9 1896.2h.4l-.9-84.2c-1.6.2-3.4.2-5.1.3l5.6 83.9z"/><path fill="#CE8068" d="M865.9 1896.2h.4l-.9-84.2c-1.6.2-3.4.2-5.1.3l5.6 83.9z"/><path fill="#612A15" d="M865.4 1809.7l-5.8-545.3c-12.1-.5-24.1-1.2-35.6-2l36.2 547.4c1.7-.1 3.5-.1 5.2-.1z"/><path fill="#CE8068" d="M865.4 1809.7l-5.8-545.3c-12.1-.5-24.1-1.2-35.6-2l36.2 547.4c1.7-.1 3.5-.1 5.2-.1zM827.2 1808.3h-.1l.4 4h4.7l-.2-3.8c-1.5-.1-3.1-.2-4.8-.2z"/><path fill="#612A15" d="M836.2 1898l-4-84.1c-1.6 0-3.1.8-4.7.8l8.7 83.3z"/><path fill="#CE8068" d="M836.2 1898l-4-84.1c-1.6 0-3.1.8-4.7.8l8.7 83.3z"/><path fill="#612A15" d="M827.1 1813h.1c1.7 0 3.2-2.2 4.9-2.1l-23-470.8-53.6-35.9 1.9 29.5 20.8 12.3 48.9 467z"/><path fill="#CE8068" d="M827.1 1813h.1c1.7 0 3.2-2.2 4.9-2.1l-23-470.8-53.6-35.9 1.9 29.5 20.8 12.3 48.9 467zM601 1856.1l-1.4-6.1c-.2-.1-.4-.2-.5-.3l1.9 6.4zM565.2 1737.7l6.1 20.3c.3.1.6.2.9.4 2.3 1 4.6 1.9 6.9 2.9l-4.4-18.9c-3.2-1.5-6.4-3.1-9.5-4.7z"/><path fill="#612A15" d="M466.6 1273.1l-54.4-2 13.1 3.6 139.9 463.1c3.1 1.6 6.3 3.2 9.6 4.7l-108.2-469.4z"/><path fill="#CE8068" d="M466.6 1273.1l-54.4-2 13.1 3.6 139.9 463.1c3.1 1.6 6.3 3.2 9.6 4.7l-108.2-469.4z"/><path fill="#612A15" d="M572.2 1758.4c-.3-.1-.6-.2-.9-.4l27.7 91.6c.2.1.4.2.5.3l-20.4-88.6c-2.3-1-4.6-1.9-6.9-2.9z"/><path fill="#CE8068" d="M572.2 1758.4c-.3-.1-.6-.2-.9-.4l27.7 91.6c.2.1.4.2.5.3l-20.4-88.6c-2.3-1-4.6-1.9-6.9-2.9zM531.4 1739.4l-7.4-24.9c-1.8-1.1-3.5-2.2-5.3-3.2.6 7.5 1.2 15 1.7 22.6 1.1.6 2.1 1.2 3.2 1.8 2.7 1.1 5.2 2.4 7.8 3.7zM562.6 1845.3l.3.1-5.7-19.2c-.8-.6-1.7-1.1-2.5-1.7l7.9 20.8z"/><path fill="#612A15" d="M517.2 1691.7c.6 6.5 1 13 1.5 19.5 1.7 1.1 3.5 2.2 5.3 3.2l-6.8-22.7z"/><path fill="#CE8068" d="M517.2 1691.7c.6 6.5 1 13 1.5 19.5 1.7 1.1 3.5 2.2 5.3 3.2l-6.8-22.7z"/><path fill="#612A15" d="M523.7 1735.6c-1.1-.6-2.2-1.2-3.2-1.8 0 .5.1 1.1.1 1.6l34.1 89.1c.8.6 1.7 1.1 2.5 1.7l-25.8-86.8c-2.6-1.3-5.1-2.6-7.7-3.8z"/><path fill="#CE8068" d="M523.7 1735.6c-1.1-.6-2.2-1.2-3.2-1.8 0 .5.1 1.1.1 1.6l34.1 89.1c.8.6 1.7 1.1 2.5 1.7l-25.8-86.8c-2.6-1.3-5.1-2.6-7.7-3.8zM1022 1258.2l-42.6.1-.2 6.2c14.4-.6 28.5-1.4 42.2-2.4l.6-3.9z"/><path fill="#612A15" d="M961.7 1895.3l42.5-522.8 17.3-110.4c-13.7 1-27.8 1.8-42.2 2.4l-17.8 630.9.2-.1z"/><path fill="#CE8068" d="M961.7 1895.3l42.5-522.8 17.3-110.4c-13.7 1-27.8 1.8-42.2 2.4l-17.8 630.9.2-.1zM782.4 1804.3c-.4-.1-.9-.1-1.3-.2l.8 6.1c2 .3 4 .4 5.9.6l-.4-5.8c-1.6-.2-3.3-.4-5-.7zM739.7 1500.9l7.2-172.6-21.9-10.7 4.6 109.7zM615.9 1266l-13.1-5h-8.6l34.2 252.7zM629.6 1766.3l-4.7-1.8c1.3 5.2 2.6 10.3 3.8 15.3 2.2.8 4.5 1.6 6.7 2.3l-2.5-14.4c-1-.6-2.2-1-3.3-1.4zM732.9 1796.4c-.4-.1-.9-.2-1.4-.3l1.3 8.6c1.9.3 3.8.7 5.6 1l-.7-8.2c-1.5-.4-3.1-.8-4.8-1.1zM681.3 1783.7c-2.5-.8-5-1.5-7.5-2.3l2.1 11.8c.7.2 1.3.3 2 .5 1.8.5 3.6.9 5.4 1.4l-1.1-11.1c-.3-.2-.6-.2-.9-.3zM506.8 1305.9l-1.8-18.3c-3.3-.1-5.2-.3-5.3-.7 1.1.8 3.5 7.5 7.1 19z"/><path fill="#612A15" d="M499.7 1286.9s-.1-.1 0 0c-.1-.1 0 0 0 0z"/><path fill="#CE8068" d="M499.7 1286.9s-.1-.1 0 0c-.1-.1 0 0 0 0z"/><path fill="#612A15" d="M650.5 1868.2l-15-86.2c-2.3-.7-4.5-1.5-6.7-2.3 12.1 49.2 20.4 83.3 21.7 88.5z"/><path fill="#CE8068" d="M650.5 1868.2l-15-86.2c-2.3-.7-4.5-1.5-6.7-2.3 12.1 49.2 20.4 83.3 21.7 88.5z"/><path fill="#612A15" d="M793 1891.3l-5.1-80.4c-2-.2-3.9-.3-5.9-.6l11 81z"/><path fill="#CE8068" d="M793 1891.3l-5.1-80.4c-2-.2-3.9-.3-5.9-.6l11 81z"/><path fill="#612A15" d="M745.6 1885l-7-79.6c-1.9-.3-3.7-.8-5.6-1.1l12.6 80.7z"/><path fill="#CE8068" d="M745.6 1885l-7-79.6c-1.9-.3-3.7-.8-5.6-1.1l12.6 80.7z"/><path fill="#612A15" d="M675.9 1793.1l15.2 83.4.4.1-8.2-81.6c-1.8-.5-3.6-.9-5.4-1.4-.7-.1-1.3-.3-2-.5z"/><path fill="#CE8068" d="M675.9 1793.1l15.2 83.4.4.1-8.2-81.6c-1.8-.5-3.6-.9-5.4-1.4-.7-.1-1.3-.3-2-.5z"/><path fill="#612A15" d="M781.1 1804.2c.4.1.9.1 1.3.2 1.7.3 3.4.5 5.1.7l-30.1-471.7-10.5-5.1-7.2 172.6 41.4 303.3z"/><path fill="#CE8068" d="M781.1 1804.2c.4.1.9.1 1.3.2 1.7.3 3.4.5 5.1.7l-30.1-471.7-10.5-5.1-7.2 172.6 41.4 303.3z"/><path fill="#612A15" d="M625 1764.4l4.7 1.8c1.1.5 2.2.9 3.3 1.3L551.2 1299l34-3.1 88.6 485.4c2.5.8 5 1.5 7.5 2.3l.9.3-40.1-398.9 23.2-12.2 66.2 423.2c.5.1.9.2 1.4.3 1.6.4 3.3.7 4.9 1.1l-39.1-442.1 19.7-10.3 11.2 82.2-4.6-109.6-31-15.1-2.5-28.2s-20.1 1.8-47.2 4.1l-28.4-13.8 12.5 247-34.2-253.4h-15.8l4.5 24.9c-34 2.6-65.7 4.6-77.9 4.3l1.8 18.3c21.5 70.2 82.9 316.1 118.2 458.7z"/><path fill="#CE8068" d="M625 1764.4l4.7 1.8c1.1.5 2.2.9 3.3 1.3L551.2 1299l34-3.1 88.6 485.4c2.5.8 5 1.5 7.5 2.3l.9.3-40.1-398.9 23.2-12.2 66.2 423.2c.5.1.9.2 1.4.3 1.6.4 3.3.7 4.9 1.1l-39.1-442.1 19.7-10.3 11.2 82.2-4.6-109.6-31-15.1-2.5-28.2s-20.1 1.8-47.2 4.1l-28.4-13.8 12.5 247-34.2-253.4h-15.8l4.5 24.9c-34 2.6-65.7 4.6-77.9 4.3l1.8 18.3c21.5 70.2 82.9 316.1 118.2 458.7zM1160 1500.4l8.6-206.7-5.6.3-17.4 127.6 5.2 124.1z"/><path fill="#612A15" d="M1202.2 1291.7l-33.6 2-8.6 206.7z"/><path fill="#CE8068" d="M1202.2 1291.7l-33.6 2-8.6 206.7z"/><path fill="#612A15" d="M1150.8 1545.7l-5.2-124.1-62.6 459.3z"/><path fill="#CE8068" d="M1150.8 1545.7l-5.2-124.1-62.6 459.3zM1398 1297l-12.1 36.7-6.2 62.8z"/><path fill="#612A15" d="M1429.3 1325.6c1-3.2 1.9-6.3 2.9-9.4-.2-12.5-.3-24.9-.3-37.3 0-7.2.4-14.1 1.1-20.8-7.2 0-14.6-.1-22.2-.1l-12.8 39-18.2 99.5 6.2-62.8-169.8 516.4 213.1-524.5z"/><path fill="#CE8068" d="M1429.3 1325.6c1-3.2 1.9-6.3 2.9-9.4-.2-12.5-.3-24.9-.3-37.3 0-7.2.4-14.1 1.1-20.8-7.2 0-14.6-.1-22.2-.1l-12.8 39-18.2 99.5 6.2-62.8-169.8 516.4 213.1-524.5z"/><path fill="#612A15" d="M1349.2 1636.5c9.4-40 18.9-79.8 28.5-119.5l-120.5 317.7 92-198.2z"/><path fill="#CE8068" d="M1349.2 1636.5c9.4-40 18.9-79.8 28.5-119.5l-120.5 317.7 92-198.2zM1043 1258.2l-.1 2.2c7.4-.7 14.6-1.4 21.8-2.2H1043z"/><path fill="#612A15" d="M1002.6 1898l71-637.1-9-1.4c-7.1.8-14.4 3.6-21.8 4.3l-40.2 634.2z"/><path fill="#CE8068" d="M1002.6 1898l71-637.1-9-1.4c-7.1.8-14.4 3.6-21.8 4.3l-40.2 634.2zM1288.3 1827l3.4-6.1c-.3.2-.5.4-.8.6l-2.6 5.5z"/><path fill="#612A15" d="M1318.6 1762.9l-27.7 58.6c.3-.2.5-.4.8-.6l22.3-40.1c1.5-5.9 3.1-12 4.6-17.9z"/><path fill="#CE8068" d="M1318.6 1762.9l-27.7 58.6c.3-.2.5-.4.8-.6l22.3-40.1c1.5-5.9 3.1-12 4.6-17.9zM1145.7 1258h-7l1.4 32.8z"/><path fill="#612A15" d="M1037.8 1888.6l102.3-597.8-1.4-32.8h-32.8z"/><path fill="#CE8068" d="M1037.8 1888.6l102.3-597.8-1.4-32.8h-32.8zM1278.8 1439.4l24.3-178.4h-7.8l-22.5 93.1-6.4 126.9 12.4-41.6zM1396.8 1258h-3.5l-1.4 14.1 4.9-14.1z"/><path fill="#612A15" d="M1316.8 1310.8l24.8-18.4-152.3 562.3 202.7-582.6 1.4-14.1c-27.7-.1-57.9-.1-90.2-.1l-24.3 180 37.9-127.1z"/><path fill="#CE8068" d="M1316.8 1310.8l24.8-18.4-152.3 562.3 202.7-582.6 1.4-14.1c-27.7-.1-57.9-.1-90.2-.1l-24.3 180 37.9-127.1z"/><path fill="#612A15" d="M1266.4 1479.4l6.4-126.8-122.8 516z"/><path fill="#CE8068" d="M1266.4 1479.4l6.4-126.8-122.8 516z"/><path fill="#612A15" d="M1222.9 1257.9l-98.7 616.1 145.8-616.1h-47.1z"/><path fill="#CE8068" d="M1222.9 1257.9l-98.7 616.1 145.8-616.1h-47.1z"/></svg>