<svg xmlns="http://www.w3.org/2000/svg" width="150" height="150" viewBox="0 0 150 150"><path fill="#7AC8AB" d="M31.655 101.901s-1.005 19.987-26.917 12.626c0 0 3.904-21.686 26.542-15.617 0 0-7.608 2.597-10.209 5.577 0 0 5.413-3.258 10.584-2.586"/><path fill="#00B3D3" d="M113.929 23.07l2.272 2.149-22.828 23.295 2.303 2.16 22.69-23.285 2.4 2.36-22.88 23.464 2.206 2.114 22.896-23.408 2.569 2.519-22.899 23.439 2.227 2.139 22.925-23.418 2.001 1.996-17.637 21.484s-.702.826-.949 1.087a13.709 13.709 0 0 1-11.064 4.032c-15.391 1.144-18.607 14.41-20.578 16.406-2.175 2.186-35.478 36.248-35.478 36.248l-.046.092a5.206 5.206 0 0 1-7.443.053c-2.134-1.996-2.16-5.367-.139-7.444.072-.062.087-.051.087-.051l.021-.057s32.898-33.607 35.376-36.141c2.283-2.359 15.949-7.905 15.939-21.966l.035-.097c-.122-3.334.894-6.633 3.196-9.352.2-.225.651-.646.651-.646l22.147-19.172z"/><path fill="#007589" d="M24.119 55.02s26.265 28.677 47.17-13.128c0 0 19.688-37.612 57.901-19.699 0 0-33.427-31.062-60.897 14.913-.001 0-13.113 31.041-44.174 17.914"/><path fill="#00B3D3" d="M28.31 131.271s15.667 17.108 28.127-7.828c0 0 11.752-22.433 34.56-11.764 0 0-19.95-18.528-36.34 8.901 0 0-7.828 18.524-26.347 10.691"/><path fill="#7AC8AB" d="M36.667 91.786s8.639-25.717-27.65-29.282c0 0-5.843 29.282 25.707 32.872 0 0-8.301-7.068-10.102-12.102-.001 0 5.211 6.793 12.045 8.512"/><path fill="#007589" d="M115.021 69.927l3.37 10.346h10.885l-8.792 6.388 3.345 10.362-8.808-6.402-8.792 6.402 3.355-10.362-8.804-6.388h10.886z"/><path fill="#00B3D3" d="M141.748 72.025l-1.093 4.617 4.063 2.473-4.725.373-1.093 4.628-1.826-4.39-4.723.404 3.585-3.099-1.832-4.364 4.063 2.457zM127.486 57.025l-1.082 4.617 4.047 2.467-4.719.38-1.092 4.607-1.822-4.371-4.729.406 3.6-3.11-1.835-4.355 4.047 2.452zM98.775 95.013l-1.083 4.622 4.037 2.457-4.709.375-1.082 4.632-1.827-4.392-4.724.415 3.581-3.112-1.822-4.357 4.042 2.463zM116.088 102.707l-1.067 4.628 4.047 2.446-4.723.401-1.079 4.606-1.841-4.365-4.725.379 3.585-3.073-1.82-4.381 4.042 2.458zM137.029 92.961l-1.093 4.616 4.057 2.447-4.724.4-1.078 4.607-1.84-4.381-4.726.395 3.597-3.083-1.826-4.37 4.042 2.451z"/></svg>