<svg xmlns="http://www.w3.org/2000/svg" width="100" height="100" viewBox="0 0 100 100"><g fill="#A6A8AB"><path d="M33.932 40.175c-3.989-7.61-4.34-18.823-4.34-18.823-3.537 6.987.237 13.966 4.34 18.823z"/><path d="M40.822 46.676s-3.553-2.547-6.89-6.501c.046.097.101.195.152.288-7.395-8.908-14.349-5.051-14.349-5.051 5.681-1.328 12.897 4.201 14.708 5.681 1.566 2.669 3.639 4.771 6.379 5.583zM29.571 35.619c-13.587-15.172-11.4-19.585-11.4-19.585-4.603 7.695 11.4 19.585 11.4 19.585z"/></g><radialGradient id="a" cx="40.697" cy="10.955" r="50.902" gradientUnits="userSpaceOnUse"><stop offset="0" stop-color="#039baa"/><stop offset="1" stop-color="#007883"/></radialGradient><path fill="url(#a)" d="M25.877 29.565c.415-.478.842-.943 1.282-1.396a13.824 13.824 0 0 1 1.476-7.306 1.07 1.07 0 1 1 2.027.452c.004.038.055 1.434.288 3.545a31.787 31.787 0 0 1 19.022-6.282c11.743 0 22.004 6.337 27.55 15.774.762.694 1.869 2 2.902 4.332l-.652-3.029 2.953 5.597s-1.421-5.597-3.46-9.551c3.586 6.222 5.52 10.947 6.256 17.334.348-3.756-2.72-13.878-2.72-13.878l2.03 2.339-.69-3.947s4.484 6.438 4.219 14.069c.342-7.588-2.377-15.757-2.377-15.757l3.265 7.057a1.721 1.721 0 0 1-.025-.089C84.146 21.148 67.86 8.208 48.551 8.208c-11.146 0-21.281 4.311-28.836 11.354.761 2.064 2.457 5.279 6.162 10.003z"/><radialGradient id="b" cx="31.158" cy="27.162" r="72.084" gradientUnits="userSpaceOnUse"><stop offset="0" stop-color="#039baa"/><stop offset="1" stop-color="#007883"/></radialGradient><path fill="url(#b)" d="M87.514 64.176s-2.183 4.488-6.285 8.397c0 0 4.483-8.55 4.983-11.117l-1.033 1.266s1.222-5.825 1.916-8.278C85.94 56.739 82.992 64.6 82.992 64.6l1.264-6.135s-1.302 2.61-3.294 5.521l1.34-3.679-2.529 2.339s.119-.542.296-1.418c-4.403 12.373-16.213 21.231-30.096 21.231-17.64 0-31.941-14.302-31.941-31.941 0-5.114 1.21-9.941 3.346-14.226-.491.012-.96.059-1.4.165a1.076 1.076 0 0 1-1.244-.655c-.19-.5.017-1.066.483-1.324.063-.038 1.489-.813 3.714-.948.304-.482.622-.956.951-1.421-2.682-2.627-5.677-6.138-6.963-9.683-6.641 7.47-10.676 17.309-10.676 28.092 0 23.367 18.942 42.305 42.309 42.305 18.819 0 34.771-12.288 40.263-29.285l-.876.753-.425-.115z"/><g fill="#049DAD"><path d="M34.955 61.562s-9.936-1.21-9.97-11.285c0-.001-1.963 10.599 9.97 11.285zM72.519 52.68c.385-1.367.617-2.894.638-4.611 0 0-1.04 2.183-2.813 5.08a6.8 6.8 0 0 1 2.175-.469z"/><path d="M73.156 48.068l-48.171 2.208s43.248 6.697 48.171-2.208z"/></g><path fill="#A6A8AB" d="M68.91 53.271c-8.701 2.11-17.449 4.06-26.129 6.269-2.45.621-5.123 1.477-7.826 2.021-2.779.563-5.588.791-8.193.103-3.118-.826-6.016-2.01-8.888-3.473-2.212-1.13-4.636-2.306-6.616-3.816.021.012 44.767 34.158 72.16-4.577-4.83 1.159-9.673 2.297-14.508 3.473zM36.486 65.83c23.071 3.52 41.285-10.554 41.285-10.554C58.948 72.162 36.486 65.83 36.486 65.83zm41.235-14.145c-8.896 2.517-29.373 8.134-42.385 10.287 0 0 30.773-7.284 42.385-10.287 2.725-.771 4.361-1.252 4.361-1.252-.066.105-1.718.571-4.361 1.252z"/><path fill="#049DAD" d="M51.541 47.171s5.313-6.146-3.414-9.497c0 0 4.929 3.351 3.414 9.497z"/><path fill="#049DAD" d="M51.774 48.559s29.495-15.009-6.07-28.164c0 0 30.963 11.133 6.07 28.164z"/></svg>