<svg xmlns="http://www.w3.org/2000/svg" width="150" height="150" viewBox="0 0 150 150"><g fill="#00B9F1"><path d="M145.372 93.361c-.03-.082-.045-.171-.082-.26-.052-.187-.126-.357-.193-.528a4.859 4.859 0 0 0-.616-1.018 3.02 3.02 0 0 0-.565-.595 3.958 3.958 0 0 0-.729-.49 3.616 3.616 0 0 0-.803-.306c-.289-.066-.587-.104-.877-.141-.312 0-.602.037-.892.074-.074.015-.156.029-.23.045-.037 0-.066.021-.104.021l-.045.016-.052.015c-.142.037-.275.066-.417.141a4.797 4.797 0 0 0-1.479.825 5.282 5.282 0 0 0-1.107 1.204c-.29.424-.521.914-.669 1.39a5.54 5.54 0 0 0-.253 1.412c-.022.312 0 .603.03.877a9.164 9.164 0 0 0-1.271-2.326 9.354 9.354 0 0 0-2.304-2.215 9.218 9.218 0 0 0-1.902-.966 6.618 6.618 0 0 0-1.554-.356 6.36 6.36 0 0 0-1.42 0 7.748 7.748 0 0 0-1.501.26 9.898 9.898 0 0 0-1.843.646c-.342.156-.685.35-1.063.572-.356.224-.735.498-1.137.817-.379.327-.751.714-1.13 1.16a8.141 8.141 0 0 0-.996 1.561 9.53 9.53 0 0 0-.401.966c-.052.171-.097.327-.148.521a5.684 5.684 0 0 0-.126.543c-.015.066-.037.155-.037.229 0 0-.016.082-.016.112a6.07 6.07 0 0 0 .016 2.118c.141.653.386 1.241.676 1.717.275.482.617.877.951 1.188.342.312.685.551.981.722.282.192.558.312.788.386.223.082.386.134.513.149.134.015.186.015.186 0 .022-.016-.029-.053-.148-.097-.104-.074-.26-.127-.469-.246a5.933 5.933 0 0 1-.706-.431 5.722 5.722 0 0 1-.861-.772 5.628 5.628 0 0 1-.788-1.152 5.57 5.57 0 0 1-.535-1.561 5.637 5.637 0 0 1 .052-1.896c.037-.156.074-.327.127-.483.044-.171.118-.342.186-.513a5.96 5.96 0 0 1 .513-1.018 6.349 6.349 0 0 1 1.62-1.784 6.722 6.722 0 0 1 2.349-1.152 6.105 6.105 0 0 1 2.772-.118c.245.029.482.081.729.148l.342.104c.134.037.237.104.364.142.476.186.974.408 1.404.684a7.891 7.891 0 0 1 2.378 2.186 8.678 8.678 0 0 1 1.457 3.018 8.753 8.753 0 0 1 .156 3.471 7.797 7.797 0 0 1-.193.854.814.814 0 0 1-.067.223c0 .067-.029.148-.052.224a9.79 9.79 0 0 1-.156.431 9.119 9.119 0 0 1-.787 1.702 11.013 11.013 0 0 1-2.356 2.868c-.937.796-1.977 1.45-3.077 1.889a11.101 11.101 0 0 1-3.389.802 11.275 11.275 0 0 1-3.33-.267c-.126-.03-.26-.06-.401-.097-.052-.016-.118-.037-.186-.053l-.208-.074c-.275-.082-.521-.163-.795-.253a15.574 15.574 0 0 1-1.472-.653c-.053-.022-.127-.074-.179-.104.126-.476.208-.996.275-1.531.163-1.167.193-2.438.081-3.745a17.136 17.136 0 0 0-.75-3.977 18.036 18.036 0 0 0-1.598-3.731 17.315 17.315 0 0 0-2.171-3.054 16.586 16.586 0 0 0-2.46-2.327 16.064 16.064 0 0 0-2.452-1.598 13.77 13.77 0 0 0-2.186-.966 9.311 9.311 0 0 0-1.762-.438 1.243 1.243 0 0 0-.289-.037 17.757 17.757 0 0 0-4.4-.967 24.126 24.126 0 0 0-5.344.082c-1.709.23-3.337.639-4.883 1.196a22.783 22.783 0 0 0-4.214 2.021c-1.271.773-2.445 1.636-3.456 2.564a24.527 24.527 0 0 0-2.007 2.029 5.93 5.93 0 0 0-.885 0 5 5 0 0 1-1.664-.208 4.839 4.839 0 0 1-1.36-.565 8.203 8.203 0 0 1-1.019-.772c-.03-.045-.067-.09-.082-.127-.03-.029-.067-.066-.104-.097a1.093 1.093 0 0 1-.186-.208c.126-.186.26-.379.372-.572.141-.268.26-.579.35-.884.059-.312.119-.603.134-.937.022-.29 0-.603-.052-.907a3.88 3.88 0 0 0-.252-.862 6.838 6.838 0 0 0-.535-.966c.066-.082.111-.163.193-.238.067-.066.134-.155.201-.215.015-.037.03-.037.052-.082.03-.015.03-.029.067-.045l.104-.104c.148-.134.342-.261.535-.364a2.42 2.42 0 0 1 .625-.29c.289-.104.602-.142.898-.142.312.016.603.104.863.209.281.118.505.289.69.482.03.022.067.053.067.053.037.029.052.066.074.081.052.053.082.104.119.164.066.097.119.2.156.312.096.216.133.438.133.646 0 .201-.037.417-.104.58a1.703 1.703 0 0 1-.253.453 1.21 1.21 0 0 1-.163.171c-.03.008-.053.008-.053.008l-.015.022-.015.022-.016.015h-.021s0 .022-.016.037l-.029.015a.9.9 0 0 1-.275.104c-.088.015-.178.029-.244.052-.09 0-.149 0-.224.015a.794.794 0 0 0-.2.03c-.053.021-.119.021-.216.059-.067.03-.148.053-.216.104-.074.052-.178.119-.245.186-.097.09-.171.171-.26.305a.757.757 0 0 0-.134.424c.021.134.082.275.186.424.111.119.275.26.482.356.238.111.498.164.789.164.312 0 .639-.053.966-.208a1.77 1.77 0 0 0 .483-.283c.156-.097.274-.237.408-.371.037-.037.066-.074.104-.104 0-.029.03-.044.03-.044l.044-.06.016-.037.015-.016.022-.037s.029-.029.045-.066c.021-.029.037-.067.066-.111.09-.179.179-.35.246-.543.118-.371.17-.795.133-1.182-.029-.408-.133-.832-.342-1.189-.104-.186-.201-.363-.342-.527-.134-.163-.289-.297-.445-.438-.09-.052-.172-.119-.261-.148a1.504 1.504 0 0 0-.274-.156 2.097 2.097 0 0 0-.551-.223 3.619 3.619 0 0 0-2.356.081 4.542 4.542 0 0 0-1.033.603c-.089.066-.156.141-.238.208-.067.074-.141.156-.208.223-.082.104-.171.224-.275.342a3.178 3.178 0 0 0-.268-.342 1.398 1.398 0 0 1-.208-.223c-.067-.067-.164-.142-.23-.208a4.616 4.616 0 0 0-1.033-.603 3.693 3.693 0 0 0-1.167-.237 3.605 3.605 0 0 0-1.189.156c-.2.052-.379.118-.557.223a1.158 1.158 0 0 0-.26.156c-.082.029-.178.097-.26.148-.156.142-.312.275-.446.438a3.88 3.88 0 0 0-.372.527 3.132 3.132 0 0 0-.32 1.189 3.024 3.024 0 0 0 .38 1.725c.037.044.052.082.067.111a.12.12 0 0 0 .037.052l.015.052h.015l.022.016.015.037.015.029c.022.03.038.045.052.074a.51.51 0 0 0 .089.104c.134.134.275.274.431.371.149.127.305.216.483.283.312.155.654.208.944.208.312 0 .565-.053.788-.164.223-.097.394-.237.498-.356a.91.91 0 0 0 .171-.424.757.757 0 0 0-.134-.424 1.051 1.051 0 0 0-.26-.305 1.46 1.46 0 0 0-.238-.186.668.668 0 0 0-.23-.104c-.067-.037-.134-.037-.201-.059a.82.82 0 0 0-.208-.03c-.044-.015-.119-.015-.201-.015a1.83 1.83 0 0 0-.26-.052 1.136 1.136 0 0 1-.275-.104l-.03-.015-.022-.037h-.015v-.013l-.015-.022h-.03c-.015-.022-.03-.022-.052-.03-.045-.052-.097-.104-.149-.171a1.285 1.285 0 0 1-.26-.453 2.005 2.005 0 0 1-.112-.58c0-.208.03-.431.126-.646a.835.835 0 0 1 .178-.312c.037-.06.067-.111.104-.164 0 0 .03-.052.067-.066l.067-.067c.208-.193.438-.364.691-.482.268-.104.565-.193.877-.209.29 0 .602.038.892.142.238.067.454.171.632.29.193.104.364.23.528.364.03.029.06.066.111.104.015.016.037.03.052.045.015.045.03.045.052.082.089.06.156.148.223.215.067.075.126.156.178.238a6.697 6.697 0 0 0-.52.966 4.864 4.864 0 0 0-.275.862c-.052.305-.067.617-.052.907.015.334.082.624.156.937a4.41 4.41 0 0 0 .706 1.456 2.214 2.214 0 0 1-.178.208l-.097.097c-.037.037-.067.082-.104.127a5.763 5.763 0 0 1-1.018.772 4.71 4.71 0 0 1-1.338.565 5.073 5.073 0 0 1-1.672.208 6.025 6.025 0 0 0-.892 0 24.282 24.282 0 0 0-1.992-2.029A22.073 22.073 0 0 0 63.8 90.8a23.064 23.064 0 0 0-4.244-2.021 22.886 22.886 0 0 0-4.876-1.196 23.983 23.983 0 0 0-5.329-.082 18.052 18.052 0 0 0-4.422.967c-.082 0-.186.015-.29.037-.483.066-1.063.215-1.754.438-.646.23-1.39.535-2.185.966a17.319 17.319 0 0 0-4.913 3.925 19.975 19.975 0 0 0-2.163 3.054c-.639 1.152-1.211 2.408-1.605 3.731a17.528 17.528 0 0 0-.743 3.977 17.265 17.265 0 0 0 .097 3.745c.067.535.148 1.056.268 1.531-.067.03-.119.082-.171.104-.483.237-.974.468-1.516.653-.238.09-.491.171-.751.253l-.208.074c-.067.016-.134.037-.208.053a11.258 11.258 0 0 1-3.716.364 10.904 10.904 0 0 1-3.381-.802 11.003 11.003 0 0 1-3.1-1.889 11.195 11.195 0 0 1-2.333-2.868 9.652 9.652 0 0 1-.795-1.702c-.052-.134-.119-.275-.148-.431-.037-.075-.052-.156-.074-.224a.873.873 0 0 0-.067-.223c-.075-.298-.119-.572-.171-.854a8.252 8.252 0 0 1 .148-3.471 8.55 8.55 0 0 1 1.449-3.018 8.286 8.286 0 0 1 3.783-2.87c.119-.037.238-.104.356-.142.149-.037.246-.074.364-.104.238-.067.483-.119.706-.148a6.166 6.166 0 0 1 2.787.118 6.702 6.702 0 0 1 2.341 1.152 6.375 6.375 0 0 1 1.627 1.784c.208.326.364.676.498 1.018.074.171.141.342.193.513.044.156.097.327.134.483a4.82 4.82 0 0 1 .03 1.896 4.614 4.614 0 0 1-.513 1.561c-.238.461-.513.84-.81 1.152-.29.326-.557.564-.832.772a6.508 6.508 0 0 1-.729.431c-.186.119-.364.172-.461.246-.104.044-.164.081-.164.081s.082.03.193.016c.134-.016.29-.067.52-.149.238-.074.498-.193.803-.386a4.63 4.63 0 0 0 .966-.722 5.74 5.74 0 0 0 .959-1.188c.297-.476.52-1.063.654-1.717a5.581 5.581 0 0 0 .037-2.118c0-.03 0-.082-.022-.112-.015-.074-.015-.163-.03-.229-.052-.187-.082-.372-.134-.543a2.804 2.804 0 0 0-.142-.521 6.941 6.941 0 0 0-.416-.966 7.483 7.483 0 0 0-.988-1.561 8.019 8.019 0 0 0-1.145-1.16 8.338 8.338 0 0 0-1.13-.817 9.522 9.522 0 0 0-1.07-.572 10.315 10.315 0 0 0-1.813-.646 8.169 8.169 0 0 0-1.516-.26 6.29 6.29 0 0 0-1.412 0 6.906 6.906 0 0 0-1.561.356 9.391 9.391 0 0 0-1.896.966 9.542 9.542 0 0 0-2.319 2.215c-.52.722-.951 1.502-1.263 2.326.022-.274.037-.564.022-.877a5.764 5.764 0 0 0-.238-1.412 5.586 5.586 0 0 0-.676-1.39 5.208 5.208 0 0 0-1.115-1.204 4.45 4.45 0 0 0-1.479-.825c-.119-.074-.26-.104-.394-.141l-.052-.015-.052-.016c-.03 0-.089-.021-.126-.021l-.193-.045c-.297-.037-.587-.074-.899-.074a7.411 7.411 0 0 0-.877.141c-.275.067-.55.171-.811.306a4.035 4.035 0 0 0-.728.49 3.272 3.272 0 0 0-.565.595 3.79 3.79 0 0 0-.609 1.018c-.074.171-.149.342-.216.528a1.035 1.035 0 0 1-.082.26 4.2 4.2 0 0 1-.052.29c-.052.379-.074.735 0 1.1.052.387.171.743.35 1.07.148.327.394.64.669.877.134.134.268.253.446.364.06.045.156.097.238.148a.913.913 0 0 0 .26.104c.171.089.357.141.55.171.186.037.379.066.58.052a2.687 2.687 0 0 0 1.107-.274c.342-.156.669-.395.907-.677.126-.126.223-.275.312-.424a.5.5 0 0 0 .067-.119c.015-.015.037-.037.052-.074l.02-.032v-.022l.022-.029.015-.037s.015-.045.015-.067c.015-.029.037-.089.052-.119.074-.171.089-.349.126-.527.015-.179.015-.35 0-.521a2.98 2.98 0 0 0-.297-.862c-.141-.237-.305-.431-.498-.55a.988.988 0 0 0-.513-.223.77.77 0 0 0-.438.052.797.797 0 0 0-.275.29 1.494 1.494 0 0 0-.119.35l-.03.2c0 .171.015.238.015.312.015.066.03.134.052.186.015.067.03.126.067.179.015.066.052.118.097.186.03.074.044.156.082.223.015.082.03.179.03.275v.067l-.015.016h.015-.016v.037l-.015.074a.323.323 0 0 1-.052.186c-.06.156-.141.305-.246.431-.096.134-.26.253-.409.364-.178.082-.386.164-.587.179a1.787 1.787 0 0 1-.342.022c-.052 0-.112-.022-.171-.022-.038-.015-.075-.015-.089-.015-.03-.015-.067-.015-.104-.03a2.117 2.117 0 0 1-.705-.345 2.035 2.035 0 0 1-.542-.609 1.758 1.758 0 0 1-.327-.78c-.06-.216-.06-.438-.06-.639 0-.209.015-.417.06-.603.015-.037.015-.089.03-.142l.022-.066.015-.066a1.65 1.65 0 0 1 .082-.275 3.61 3.61 0 0 1 .23-.543c.082-.163.179-.319.305-.49.104-.179.216-.327.379-.483.134-.148.312-.312.491-.445a3.97 3.97 0 0 1 .609-.357c.238-.111.498-.208.773-.282.29-.066.602-.097.929-.082.171 0 .342 0 .513.03.089.022.178.022.26.037.044.015.082.015.156.037.037.015.089.03.119.052.357.082.736.238 1.093.438a5.24 5.24 0 0 1 2.036 2.089 5.87 5.87 0 0 1 .572 1.68c.045.312.067.654.067.996 0 .312-.037.639-.104.974a10.054 10.054 0 0 0-.468 3.195c0 1.101.193 2.215.535 3.278.104.26.186.535.312.787.104.245.216.521.342.766.275.49.55.996.862 1.457a14.336 14.336 0 0 0 2.319 2.631 14.181 14.181 0 0 0 2.772 1.933c.527.305 1.078.579 1.65.803 1.204.482 2.46.772 3.701.862a12.771 12.771 0 0 0 3.62-.327 10.6 10.6 0 0 0 .862-.245c.275-.097.565-.201.818-.312a11.007 11.007 0 0 0 1.59-.699c.082.306.186.603.29.893.379.996.84 1.895 1.323 2.66.483.766.996 1.397 1.494 1.896.505.535.966.929 1.36 1.204.074.052.141.119.208.179.461.46.966.884 1.464 1.285a15.076 15.076 0 0 0 5.017 2.609c1.769.542 3.597.743 5.344.639.216-.015.438-.045.639-.066.23-.016.431-.03.654-.075.431-.066.862-.148 1.271-.252a13.154 13.154 0 0 0 2.341-.893 12.466 12.466 0 0 0 3.768-2.92 11.795 11.795 0 0 0 2.237-3.754 11.94 11.94 0 0 0 .766-3.88c.022-.52 0-1.04-.045-1.553.03-.09.082-.193.097-.327.112-.416.141-1.033.037-1.806-.104-.736-.379-1.65-.854-2.558a8.792 8.792 0 0 0-2.088-2.615 9.243 9.243 0 0 0-2.884-1.695 8.417 8.417 0 0 0-2.661-.461c-.766 0-1.368.135-1.776.298-.394.148-.602.342-.587.513.015.156.246.275.625.416.372.134.907.275 1.509.461a14.67 14.67 0 0 1 2.029.825c.743.379 1.479.854 2.185 1.457a11.149 11.149 0 0 1 1.754 1.954c.46.669.825 1.323 1.115 1.881.275.587.49 1.092.669 1.434.037.053.059.082.074.119.037.513.052 1.07.022 1.636a11.25 11.25 0 0 1-.795 3.589c-.476 1.212-1.211 2.371-2.155 3.427a10.96 10.96 0 0 1-3.493 2.631c-.03.015-.082.03-.112.052.223-.118.438-.274.706-.46.32-.23.632-.506.944-.833.327-.327.632-.684.929-1.093.275-.423.55-.884.773-1.382a8.116 8.116 0 0 0 .535-1.635 9.113 9.113 0 0 0 .186-1.821c0-.327-.03-.654-.067-.981-.015-.156-.03-.327-.089-.498a4.213 4.213 0 0 0-.097-.468 6.005 6.005 0 0 0-.795-1.873 6.98 6.98 0 0 0-1.39-1.612 4.55 4.55 0 0 0-.847-.588 7.495 7.495 0 0 0-1.672-.869 8.529 8.529 0 0 0-1.903-.453c-.312-.037-.624-.037-.951-.037-.148 0-.305.021-.453.037-.164 0-.312.015-.476.066a5.136 5.136 0 0 0-1.761.587 5.075 5.075 0 0 0-1.464 1.101 4.958 4.958 0 0 0-1.033 1.479 4.911 4.911 0 0 0-.498 1.725c-.052.453-.037.848.03 1.174.052.335.126.625.223.862.104.261.23.491.364.706.141.224.327.453.535.691.208.223.461.483.803.729.178.126.342.237.558.371.208.119.446.246.698.342.26.104.55.193.877.246a3.82 3.82 0 0 0 1.033.081c.193 0 .387-.015.565-.044.104-.022.215-.037.312-.053.104-.037.193-.074.312-.089.037-.015.067-.037.119-.052l.052-.022a3.588 3.588 0 0 0 1.048-.558c.275-.245.505-.521.654-.795.179-.261.275-.535.342-.773.067-.26.104-.482.104-.669.015-.208 0-.364-.015-.498-.022-.141-.052-.229-.074-.297-.015-.066-.03-.104-.044-.104 0 0-.022.053 0 .127v.29c0 .134 0 .274-.037.461a1.99 1.99 0 0 1-.156.616 2.777 2.777 0 0 1-.357.714 3.12 3.12 0 0 1-.639.669c-.26.2-.565.356-.929.461-.082.029-.186.044-.275.066-.104.022-.201.037-.312.06-.201.015-.431.015-.639.015a3.879 3.879 0 0 1-1.301-.342 3.891 3.891 0 0 1-1.182-.862 3.858 3.858 0 0 1-.795-1.33c-.038-.134-.082-.253-.097-.394a.647.647 0 0 1-.037-.201c-.015-.066-.038-.148-.052-.208a4.437 4.437 0 0 1-.015-.885 4.793 4.793 0 0 1 .423-1.746 5.953 5.953 0 0 1 1.115-1.517 5.214 5.214 0 0 1 1.672-.98c.171-.045.327-.097.476-.134.037-.015.067-.015.149-.037.03 0 .067-.015.111-.015a.846.846 0 0 1 .26-.038 6.767 6.767 0 0 1 1.033-.066c.706.029 1.39.179 2.021.409a6.469 6.469 0 0 1 1.761 1.018c.491.432.929.922 1.271 1.457s.602 1.13.75 1.725c.022.074.037.134.06.2.022.052.022.067.037.126l.015.119c.022.148.052.298.067.446.037.312.067.602.082.914a7.865 7.865 0 0 1-.148 1.725 8.021 8.021 0 0 1-.468 1.546 6.784 6.784 0 0 1-.721 1.322 6.414 6.414 0 0 1-.825 1.078c-.29.312-.602.602-.892.847a8.856 8.856 0 0 1-1.672 1.026c-.476.245-.892.379-1.167.468h-.015a5.21 5.21 0 0 1-.84.171 5.726 5.726 0 0 1-.609.067c-.193.015-.386.015-.602.037a13.842 13.842 0 0 1-4.935-.64 13.685 13.685 0 0 1-4.623-2.452 13.683 13.683 0 0 1-1.635-1.517c-.483-.78-1.115-1.828-1.687-3.144a15.319 15.319 0 0 1-.803-2.394c-.141-.542-.23-1.137-.312-1.739.104-.066.186-.126.297-.223a14.81 14.81 0 0 0 2.133-2.2 15.934 15.934 0 0 0 1.509-2.386c.416-.817.743-1.598.974-2.378.245-.773.401-1.509.505-2.237.208-1.404.178-2.646.067-3.604a13.319 13.319 0 0 0-.409-2.118c.847-.899 1.68-1.65 2.49-2.274 1.182-.922 2.267-1.561 3.025-2.036a19.007 19.007 0 0 1 4.541-1.093 24.843 24.843 0 0 1 5.091.037c1.635.208 3.196.587 4.675 1.085 1.464.498 2.824 1.152 4.073 1.858a23.867 23.867 0 0 1 3.389 2.423 22.994 22.994 0 0 1 2.646 2.668 29.65 29.65 0 0 1 1.746 2.371 14.123 14.123 0 0 0-1.516 1.754 13.186 13.186 0 0 0-1.323 2.356c-.148.356-.275.721-.394 1.077a11.75 11.75 0 0 0-1.078.335 8.004 8.004 0 0 0-1.249.653 10.2 10.2 0 0 0-.981.751 6.423 6.423 0 0 0-.736.758c-.438.483-.766.93-1.018 1.36a8.655 8.655 0 0 0-.602 1.204 5.55 5.55 0 0 0-.357 1.196c-.074.424-.104.87-.089 1.383.015.527.104 1.151.342 1.836.26.892.706 1.776 1.271 2.512a8.678 8.678 0 0 0 2.029 1.977 9.384 9.384 0 0 0 2.616 1.22 9 9 0 0 0 2.884.371c.252 0 .505-.029.75-.06.238-.015.491-.052.736-.104.476-.082.958-.208 1.442-.342.208-.067.416-.142.602-.208.059.052.126.104.193.178a1.824 1.824 0 0 0-.297.327 4.642 4.642 0 0 0-.75 1.42c-.037.141-.074.26-.111.401l-.015.052v.045c-.015.037-.015.066-.037.104a.811.811 0 0 1-.03.208c0 .067 0 .119-.015.171a1.335 1.335 0 0 0-.193-.431 1.772 1.772 0 0 0-.513-.476 1.828 1.828 0 0 0-.825-.29c-.134-.022-.312-.037-.483-.022-.171 0-.342.037-.513.089-.037.016-.067.016-.104.053-.03 0-.052.015-.075.015l-.037.015h-.029v.015h-.015l-.037.022c-.015 0-.037.015-.044.03a2.003 2.003 0 0 0-.119.052 2.446 2.446 0 0 0-.438.29 2.5 2.5 0 0 0-.669.847 2.63 2.63 0 0 0-.29 1.063c-.022.193 0 .371.015.55.037.179.067.364.141.535.03.089.082.171.119.245.029.082.082.171.119.238.104.155.208.305.327.453.238.253.513.476.84.669a3.4 3.4 0 0 0 .996.342c.126.037.283.052.394.052l-.015.03a1.572 1.572 0 0 0-.171.379c-.045.141-.097.289-.126.445a2.448 2.448 0 0 0 0 .469c0 .156.044.29.082.416.045.134.097.253.164.356.067.104.126.201.193.282.082.06.148.142.223.179.052.052.119.082.171.111 0 .015.015.015.015.015.074.038.141.09.193.104.186.111.409.163.625.208.2.015.409.015.617-.045.015 0 .037-.015.067-.015.015 0 .03-.022.067-.022a.699.699 0 0 0 .141-.059c.082-.037.164-.082.23-.134.148-.112.268-.246.349-.38.104.134.208.268.357.38.074.052.164.097.245.134.03.029.082.044.142.059 0 0 .052.022.066.022 0 0 .052.015.067.015.193.06.394.06.602.045.223-.045.432-.097.617-.208.074-.015.141-.066.193-.104 0 0 .021 0 .037-.015.045-.029.097-.06.163-.111.075-.037.149-.119.216-.179.06-.081.127-.178.208-.282.044-.104.097-.223.148-.356.03-.126.067-.26.082-.416 0-.156 0-.298-.015-.469a2.19 2.19 0 0 0-.104-.445 1.572 1.572 0 0 0-.171-.379l-.021-.016c.125-.015.26-.029.408-.066.342-.067.684-.179.988-.342.312-.193.588-.416.825-.669.126-.148.245-.298.327-.453.059-.067.089-.156.141-.238.03-.074.067-.156.104-.245.081-.171.111-.356.155-.535.016-.179.03-.356.016-.55-.016-.372-.141-.736-.29-1.063a3.01 3.01 0 0 0-.69-.847 1.682 1.682 0 0 0-.432-.29c-.037-.015-.066-.037-.104-.052-.016-.016-.03-.03-.067-.03l-.015-.022h-.02v-.015h-.044l-.03-.015c-.015 0-.037-.015-.066-.015-.053-.037-.082-.037-.119-.053a1.81 1.81 0 0 0-.506-.089c-.163-.015-.342 0-.49.022a1.84 1.84 0 0 0-.811.29 1.616 1.616 0 0 0-.534.476 1.328 1.328 0 0 0-.187.431v-.171c-.021-.044-.021-.141-.037-.208-.015-.037-.015-.066-.015-.066l-.015-.082-.022-.052-.104-.401a5.43 5.43 0 0 0-.75-1.42c-.097-.126-.216-.23-.297-.327a.846.846 0 0 1 .186-.178c.193.066.401.141.602.208.469.134.967.26 1.428.342.268.052.512.089.735.104.268.03.505.06.743.06a9.128 9.128 0 0 0 2.913-.371 9.412 9.412 0 0 0 2.594-1.22 8.745 8.745 0 0 0 2.044-1.977c.565-.735.996-1.62 1.271-2.512.223-.685.327-1.309.327-1.836.037-.513 0-.959-.09-1.383-.066-.424-.186-.803-.342-1.196s-.342-.773-.602-1.204a10.79 10.79 0 0 0-1.011-1.36 6.101 6.101 0 0 0-.759-.758 8.29 8.29 0 0 0-.966-.751 6.992 6.992 0 0 0-1.249-.653 15.461 15.461 0 0 0-1.085-.335c-.119-.356-.245-.735-.394-1.077a14.66 14.66 0 0 0-1.323-2.356 13.461 13.461 0 0 0-1.501-1.754 24.666 24.666 0 0 1 1.739-2.371 24.077 24.077 0 0 1 2.646-2.668 23.791 23.791 0 0 1 3.382-2.423 24.073 24.073 0 0 1 4.08-1.858 23.843 23.843 0 0 1 4.675-1.085c1.636-.186 3.345-.2 5.076-.037 1.517.179 3.062.521 4.534 1.093.78.476 1.865 1.114 3.055 2.036.81.624 1.643 1.375 2.489 2.274-.156.498-.312 1.189-.408 2.118-.127.959-.164 2.2.052 3.604.111.729.275 1.464.506 2.237.229.78.55 1.561.966 2.378a14.48 14.48 0 0 0 1.531 2.386c.602.78 1.308 1.517 2.133 2.2.082.097.171.156.274.223a14.72 14.72 0 0 1-.305 1.739 16.954 16.954 0 0 1-.795 2.394c-.572 1.315-1.227 2.363-1.688 3.144a15.736 15.736 0 0 1-1.627 1.517 14.075 14.075 0 0 1-4.631 2.452 13.797 13.797 0 0 1-4.935.64c-.208-.022-.416-.022-.617-.037-.208-.016-.394-.03-.587-.067a5.48 5.48 0 0 1-.862-.171h-.015c-.26-.089-.654-.223-1.167-.468a9.137 9.137 0 0 1-1.672-1.026 13.109 13.109 0 0 1-.877-.847 8.645 8.645 0 0 1-.84-1.078 8.829 8.829 0 0 1-.706-1.322 8.534 8.534 0 0 1-.476-1.546 8.385 8.385 0 0 1-.142-1.725c.022-.312.037-.603.074-.914.015-.148.045-.298.067-.446l.044-.119c0-.059 0-.074.016-.126a1.82 1.82 0 0 0 .052-.2c.163-.595.401-1.189.743-1.725s.772-1.025 1.293-1.457a6.24 6.24 0 0 1 1.731-1.018c.64-.23 1.323-.38 2.037-.409.342 0 .698.015 1.04.066.089 0 .164.016.26.038.053 0 .09.015.119.015.053.022.082.022.127.037.171.037.326.089.476.134.639.215 1.204.572 1.687.98a5.72 5.72 0 0 1 1.101 1.517c.26.564.416 1.174.445 1.746.016.298 0 .588-.029.885-.022.06-.022.142-.037.208 0 .067-.015.134-.03.201-.037.141-.074.26-.104.394a3.874 3.874 0 0 1-.795 1.33 3.848 3.848 0 0 1-1.189.862c-.424.201-.87.305-1.309.342-.215 0-.423 0-.653-.015-.082-.022-.179-.037-.29-.06-.104-.022-.186-.037-.275-.066a2.805 2.805 0 0 1-.943-.461 4.847 4.847 0 0 1-.64-.669 5.695 5.695 0 0 1-.356-.714 4.028 4.028 0 0 1-.142-.616c-.029-.187-.029-.327-.029-.461v-.417c-.015 0-.037.038-.052.104-.016.067-.06.156-.075.297-.029.134-.029.29-.029.498 0 .187.045.409.104.669.066.238.186.513.356.773.156.274.364.55.661.795.29.216.632.424 1.025.558.03 0 .053.022.053.022.044.015.111.037.141.052.097.015.201.052.312.089.097.016.179.03.305.053.186.029.379.044.564.044.357.022.729-.015 1.033-.081.312-.053.603-.142.877-.246.238-.096.483-.223.691-.342.201-.134.409-.245.543-.371.342-.245.616-.506.832-.729.208-.238.356-.468.521-.691.148-.215.268-.445.371-.706.082-.237.171-.527.224-.862.06-.326.066-.721.037-1.174a5.626 5.626 0 0 0-.498-1.725 5.287 5.287 0 0 0-1.033-1.479 5.432 5.432 0 0 0-1.464-1.101 5.393 5.393 0 0 0-1.776-.587 1.472 1.472 0 0 0-.461-.066c-.148-.016-.319-.037-.461-.037-.327 0-.632 0-.959.037a8.554 8.554 0 0 0-1.895.453 8.091 8.091 0 0 0-1.688.869 4.286 4.286 0 0 0-.817.588 6.653 6.653 0 0 0-1.42 1.612 6.82 6.82 0 0 0-.788 1.873c-.052.163-.074.327-.111.468-.029.171-.044.342-.06.498a6.22 6.22 0 0 0-.066.981c0 .632.045 1.233.163 1.821.142.587.335 1.122.551 1.635.229.498.49.959.765 1.382.305.409.617.766.93 1.093.312.327.653.603.966.833.23.186.461.319.699.46-.053-.021-.104-.037-.142-.052a11.47 11.47 0 0 1-3.493-2.631 11.381 11.381 0 0 1-2.126-3.427 11.535 11.535 0 0 1-.81-3.589c-.016-.565 0-1.123.029-1.636.022-.037.037-.066.067-.119.178-.342.386-.847.676-1.434.275-.558.64-1.212 1.101-1.881.49-.676 1.062-1.33 1.775-1.954a11.472 11.472 0 0 1 2.163-1.457 15.536 15.536 0 0 1 2.044-.825c.609-.186 1.115-.327 1.501-.461.38-.141.617-.26.64-.416 0-.171-.193-.364-.602-.513-.424-.163-1.004-.298-1.776-.298-.773 0-1.68.135-2.669.461a9.196 9.196 0 0 0-2.868 1.695 8.764 8.764 0 0 0-2.081 2.615 8.335 8.335 0 0 0-.862 2.558c-.104.772-.067 1.39.029 1.806.03.134.06.237.112.327-.053.513-.067 1.033-.053 1.553.037 1.241.268 2.572.773 3.88a11.518 11.518 0 0 0 2.229 3.754 12.585 12.585 0 0 0 3.753 2.92 13.6 13.6 0 0 0 2.356.893c.416.104.825.186 1.248.252.23.045.438.06.654.075.23.021.438.052.654.066a15.273 15.273 0 0 0 5.351-.639 14.81 14.81 0 0 0 5.002-2.609 15.1 15.1 0 0 0 1.465-1.285c.089-.06.141-.127.223-.179a8.374 8.374 0 0 0 1.36-1.204c.476-.498.996-1.13 1.493-1.896.483-.766.93-1.664 1.316-2.66.096-.29.2-.587.305-.893.498.275 1.018.498 1.561.699.274.111.55.216.825.312.297.089.587.178.861.245a12.83 12.83 0 0 0 3.627.327 12.396 12.396 0 0 0 5.352-1.665 14.734 14.734 0 0 0 2.787-1.933 13.994 13.994 0 0 0 2.304-2.631c.32-.461.595-.967.862-1.457.134-.245.238-.521.356-.766.097-.252.209-.527.298-.787.356-1.063.55-2.178.55-3.278a9.884 9.884 0 0 0-.476-3.166 5.037 5.037 0 0 1-.097-1.003c0-.342.022-.684.066-.996a5.647 5.647 0 0 1 .573-1.68c.252-.506.579-.914.929-1.264a5.354 5.354 0 0 1 1.077-.825c.38-.2.759-.356 1.123-.438.029-.021.081-.037.118-.052.045-.022.082-.022.142-.037.082-.015.171-.015.268-.037.156-.03.35-.03.498-.03.35-.015.654.016.929.082.298.074.543.171.773.282.223.097.438.23.616.357.193.134.35.297.506.445.134.156.274.305.379.483.111.171.208.327.29.49.082.179.178.35.245.543.015.082.045.186.067.275l.015.052c.015.052.037.066.037.066 0 .067 0 .119.029.156.037.186.052.394.052.603 0 .2-.015.423-.052.639-.066.29-.171.543-.327.78a1.95 1.95 0 0 1-.572.609 1.909 1.909 0 0 1-.698.342c-.015.016-.052.016-.089.03-.03 0-.06 0-.074.015-.082 0-.135.022-.179.022-.119 0-.245 0-.35-.022a1.526 1.526 0 0 1-.564-.179 1.518 1.518 0 0 1-.432-.364 1.207 1.207 0 0 1-.237-.431c-.015-.052-.053-.119-.053-.186-.015-.015-.015-.037-.015-.037v-.037l-.015-.037V95.234c0-.097.015-.193.029-.275.038-.066.053-.148.082-.223a.755.755 0 0 1 .097-.186c.03-.053.03-.111.067-.179.015-.052.029-.119.044-.186 0-.074.022-.142.022-.238 0 0-.022-.178-.052-.274a.726.726 0 0 0-.126-.35c-.067-.134-.149-.238-.268-.29-.127-.052-.261-.082-.417-.052a.959.959 0 0 0-.527.223 1.654 1.654 0 0 0-.506.55 2.91 2.91 0 0 0-.274.862c0 .171-.037.342 0 .521.015.179.066.356.119.527.021.03.021.09.037.119.021.022.021.052.021.052l.03.053.022.029v.022l.015.029c.015.037.015.06.029.074.022.038.053.067.067.119.104.148.193.298.327.424.245.282.535.521.899.677.342.171.735.26 1.122.274a2.13 2.13 0 0 0 .572-.052c.193-.03.371-.082.558-.171.081-.022.171-.052.26-.104.082-.052.171-.104.238-.148.155-.111.312-.23.445-.364a2.98 2.98 0 0 0 .669-.877c.156-.327.275-.684.342-1.07a3.869 3.869 0 0 0-.015-1.1 1.625 1.625 0 0 0-.042-.289M39.418 96.163c.037.981 0 2.155-.238 3.508a16.781 16.781 0 0 1-.572 2.118c-.252.722-.58 1.472-.996 2.237a17.027 17.027 0 0 1-1.494 2.215 15.66 15.66 0 0 1-1.888 1.91v-.066a17.293 17.293 0 0 1 .082-3.211c.119-1.107.342-2.229.706-3.359a16.284 16.284 0 0 1 1.286-3.166 18.991 18.991 0 0 1 1.709-2.706c.394-.505.788-.974 1.197-1.404.074.483.156 1.115.208 1.924m34.79-4.125a3.85 3.85 0 0 1-.142-1.649c.03-.245.067-.469.142-.691.067-.223.148-.416.23-.617.097-.171.193-.349.297-.513.126.164.208.342.305.513.097.201.179.395.23.617.067.223.119.446.149.691.037.26.037.513 0 .787 0 .261-.067.565-.149.862-.082.29-.215.603-.394.914-.037.067-.096.112-.141.179-.037-.066-.082-.111-.134-.179a4.185 4.185 0 0 1-.393-.914m-1.672 3.182c.565-.23 1.1-.535 1.561-.914.126-.119.223-.209.342-.327l.045-.053.03-.015c.037-.037.052-.066.089-.111a.88.88 0 0 0 .134-.148c.045.052.104.104.141.148.03.045.052.074.082.111l.052.015.03.053c.112.118.23.208.327.327a7.139 7.139 0 0 0 1.568.914c.387.134.758.223 1.138.312l-.38.045c-.824.163-1.857.431-2.958.951a12.18 12.18 0 0 0-2.958-.951 11.048 11.048 0 0 1-.356-.045c.377-.09.749-.178 1.113-.312m2.2 1.873c.483.274.974.572 1.479.929.446.327.893.706 1.338 1.114a22.166 22.166 0 0 0-2.133 5.069 22.154 22.154 0 0 0-.669 3.448c0 .074 0 .156-.015.238 0-.082 0-.164-.022-.238-.06-.788-.23-1.962-.647-3.448a23.246 23.246 0 0 0-2.14-5.069c.453-.408.884-.787 1.338-1.114.505-.357.995-.655 1.471-.929m-4.801-.893c-.163-.23-.372-.445-.564-.669.104.016.238.03.401.045h.029c.067 0 .134.015.186.037a15.43 15.43 0 0 1 1.724.305 14.83 14.83 0 0 1 2.445.899c-.401.208-.81.446-1.226.721-.446.312-.892.654-1.331 1.056a21.59 21.59 0 0 0-1.664-2.394m-.974 7.269c.342-.81.736-1.546 1.204-2.229.372-.587.825-1.107 1.271-1.583a23.416 23.416 0 0 1 2.17 4.697c.29.907.49 1.665.654 2.312a4.992 4.992 0 0 0-1.962-1.955 5.088 5.088 0 0 0-1.776-.572c-.037-.015-.082-.015-.111-.015-.052-.015-.134-.015-.201-.029-.149-.016-.327-.016-.498-.037h-.461c-.193.021-.342.037-.52.052.074-.21.141-.432.23-.641m3.352 14.567c-.126.015-.275.015-.401.015h-.394c-.275 0-.527-.029-.78-.081a7.334 7.334 0 0 1-2.876-.996 7.521 7.521 0 0 1-2.17-1.984 7.859 7.859 0 0 1-1.219-2.542 7.05 7.05 0 0 1-.223-1.353c0-.104-.022-.23-.022-.35v-.327c0-.208.022-.423.038-.639a6.208 6.208 0 0 1 .825-2.282 6.15 6.15 0 0 1 1.554-1.687 5.63 5.63 0 0 1 .906-.535 3.6 3.6 0 0 0-.156.676c-.082.476-.149.974-.186 1.494-.015.253-.037.513-.037.773v.772c.074 1.056.275 2.104.654 3.129a10.154 10.154 0 0 0 1.65 2.898c.349.401.706.796 1.1 1.175a12.732 12.732 0 0 0 2.237 1.791c-.173.016-.344.038-.5.053m-.84 7.945a2.067 2.067 0 0 1-.736-.327c-.215-.163-.423-.342-.557-.55-.134-.23-.26-.461-.312-.706-.015-.022-.015-.052-.015-.052s-.015-.067-.015-.119c-.015-.052-.015-.104-.015-.156 0-.104 0-.208.015-.327a1.24 1.24 0 0 1 .208-.55c.097-.156.215-.29.364-.379.126-.119.275-.179.386-.224.082-.021.156-.052.208-.066H71.16c.097 0 .208.015.29.045.066.021.134.052.193.066.067.045.134.074.186.097.044.03.097.067.156.082.052.022.134.037.186.052h.223c.089.015.171 0 .282 0 .097-.029.201-.052.342-.119a.657.657 0 0 0 .275-.26s.015-.052.03-.082v.29c.037.268.067.564.156.825.089.274.193.535.327.78.126.23.29.453.468.669.067.066.148.148.223.216a.676.676 0 0 1-.193.141c-.111 0-.275-.015-.409-.015a3.3 3.3 0 0 0-.602.097c-.156.037-.312.126-.483.193l-.037.015c-.03.022-.097.037-.164.082a1.096 1.096 0 0 0-.23.148 2.986 2.986 0 0 0-.223.2s-.037.016-.067.016a3.443 3.443 0 0 1-.616-.082m2.683-.557a1.862 1.862 0 0 1-.453.268c-.149.082-.327.127-.491.186-.111.053-.193.067-.282.09-.03 0-.052.015-.052.015-.052 0-.067 0-.089.015-.044 0-.082.015-.134.015-.03 0-.067 0-.104.022.126-.119.223-.23.29-.297.156-.082.327-.148.483-.186a1.54 1.54 0 0 1 .572-.104c.082-.024.186-.024.26-.024m.58 3.055c-.037-.104-.074-.193-.082-.297a.838.838 0 0 1-.022-.409c0-.06.022-.126.03-.179v-.015c.037-.037.052-.066.074-.104.03.037.045.066.075.104l.015.015c.015.053.037.119.037.179.015.134.015.29-.022.409-.016.103-.06.193-.105.297m2.735-.454a.909.909 0 0 1-.096.29.829.829 0 0 1-.127.26c-.089.142-.186.245-.26.327a.802.802 0 0 0-.201.141c-.193.09-.379.149-.587.172a1.264 1.264 0 0 1-.55-.022c-.038-.015-.052-.015-.052-.015-.037-.016-.067-.016-.067-.016-.052-.015-.111-.029-.164-.052a.58.58 0 0 1-.215-.142.95.95 0 0 1-.327-.364l-.015-.015c.052-.111.096-.26.119-.379.03-.148.03-.305.015-.453a.398.398 0 0 0-.038-.164v-.052s0-.111-.015-.208l-.015-.015a.22.22 0 0 1 .067-.082c.066-.052.134-.148.223-.179.104-.044.186-.096.275-.133.089-.016.171-.038.238-.038.075-.015.142-.015.193-.029.03 0 .067-.015.067-.015.015-.037 0-.06-.052-.097-.052-.015-.119-.045-.193-.06a.707.707 0 0 0-.305 0 .823.823 0 0 0-.35.134.759.759 0 0 0-.29.26h-.015a.847.847 0 0 0-.297-.26.691.691 0 0 0-.342-.134.818.818 0 0 0-.327 0 .784.784 0 0 0-.164.06c-.052.037-.067.06-.067.06s.03.052.082.052c.03.015.097.015.164.029.097 0 .164.022.245.038.082.037.193.089.275.133.104.03.179.127.246.179.015.03.052.052.052.082v.015c-.037.097-.037.156-.037.156v.104c-.015.053-.015.104-.03.164-.022.148-.022.305.015.453.015.119.082.268.134.364l-.022.029a.886.886 0 0 1-.342.364.42.42 0 0 1-.223.142c-.03.022-.082.037-.119.052-.03 0-.044 0-.06.016 0 0-.052 0-.074.015a1.348 1.348 0 0 1-.572.022 1.688 1.688 0 0 1-.565-.172.72.72 0 0 0-.223-.141c-.067-.082-.156-.186-.245-.327-.052-.066-.082-.148-.134-.26a.902.902 0 0 1-.104-.29 1.469 1.469 0 0 1-.044-.364c0-.134 0-.26.015-.394 0-.134.03-.253.067-.38.052-.118.104-.237.148-.342.037-.066.075-.141.112-.186.097 0 .186 0 .29-.015.089-.022.171-.037.253-.052.089-.037.178-.053.26-.075.171-.044.364-.104.52-.171.186-.066.357-.171.535-.274.134-.052.253-.119.394-.171.052-.03.134-.052.186-.067.075.016.141.037.208.067.134.052.26.119.379.186.171.089.356.193.55.26.148.067.327.127.521.171.06.022.148.038.253.075.089.015.17.029.26.052.082.015.171.015.268.015.052.045.089.119.127.186.051.104.104.224.141.342.029.127.045.246.082.38v.394c-.002.126-.039.245-.054.364m-2.772-2.616c.015 0 .037-.015.037-.015.015 0 .03.015.03.015s-.015.015-.03.015c0 0-.022-.015-.037-.015m.624.015c.082 0 .171 0 .26.022.186 0 .372.029.565.104.171.037.342.104.476.186.097.066.192.178.297.297-.015-.022-.067-.022-.067-.022-.066 0-.104-.015-.155-.015-.037-.015-.052-.015-.052-.015-.053 0-.067-.015-.067-.015a.964.964 0 0 1-.298-.09c-.17-.059-.341-.104-.512-.186a2.724 2.724 0 0 1-.447-.266m.684-1.903c.089-.261.126-.558.142-.825.015-.089.015-.186.015-.29v.067a.775.775 0 0 0 .312.274c.119.067.246.09.342.119.09 0 .193.015.261 0h.245c.053-.015.119-.029.164-.052.066-.015.119-.052.178-.082.053-.022.097-.052.164-.097l.215-.066a.664.664 0 0 1 .253-.045h.185c.051.015.126.045.193.066.133.045.274.104.408.224.141.089.26.223.35.379.104.156.186.342.223.55.015.119.015.223.015.327 0 .052-.015.104-.015.156s-.016.074-.016.104c0 0-.021.045-.021.067a2.896 2.896 0 0 1-.305.706c-.164.208-.35.387-.551.55a2.22 2.22 0 0 1-.758.327c-.208.052-.416.066-.602.082-.029 0-.053-.016-.082-.016a6.028 6.028 0 0 1-.215-.2 2.087 2.087 0 0 0-.224-.148c-.067-.045-.134-.06-.186-.082l-.037-.015c-.156-.067-.312-.156-.483-.193a3.165 3.165 0 0 0-.58-.097c-.141 0-.297.015-.431.015a1.17 1.17 0 0 1-.193-.141c.082-.067.179-.149.246-.216.171-.216.327-.438.46-.669a3.53 3.53 0 0 0 .328-.779m-.639-3.181c.193.357.312.722.401 1.086 0 .037.015.066.015.118a.32.32 0 0 1 .037.082c.015.142.015.208.052.298.015.171.015.342.015.497 0 .312-.052.617-.119.87a6.842 6.842 0 0 1-.275.729c-.126.223-.26.408-.379.587a3.015 3.015 0 0 1-.379.379c-.134-.111-.238-.245-.364-.379-.112-.179-.26-.364-.372-.587-.104-.224-.215-.461-.282-.729a3.476 3.476 0 0 1-.111-.87c0-.155 0-.326.015-.497.015-.09.015-.156.03-.261.022-.037.022-.089.037-.119 0-.052.015-.081.015-.118.104-.364.23-.729.409-1.086a4.91 4.91 0 0 1 .624-.898c.259.296.482.586.631.898m-.706-1.337c.022-.022.052-.022.074-.037.03.015.075.015.089.037-.044.029-.06.066-.089.097-.022-.031-.052-.068-.074-.097m6.986-6.883c.379-1.025.602-2.073.653-3.129.015-.253.015-.513.015-.772 0-.261-.015-.521-.029-.773a15.013 15.013 0 0 0-.186-1.494c-.06-.245-.127-.453-.179-.69.312.155.64.342.914.55a6.04 6.04 0 0 1 1.561 1.687 5.71 5.71 0 0 1 .811 2.282c.037.216.052.431.052.639v.327c0 .119-.015.245-.015.35-.06.453-.104.906-.223 1.353a7.621 7.621 0 0 1-1.241 2.542 7.493 7.493 0 0 1-2.163 1.984 7.443 7.443 0 0 1-2.854.996 4.208 4.208 0 0 1-.772.081h-.423c-.127 0-.268 0-.395-.015-.164-.015-.342-.037-.49-.052a13.3 13.3 0 0 0 2.236-1.791 12.92 12.92 0 0 0 1.078-1.175 10.361 10.361 0 0 0 1.65-2.9m-.639-7.186c.104.379.208.758.261 1.151.104.469.155.922.17 1.412.022.23.037.498.037.722v.356c0 .119-.015.245-.015.364a10.305 10.305 0 0 1-.632 2.869c-.356.929-.885 1.82-1.516 2.652a10.961 10.961 0 0 1-2.379 2.097 9.135 9.135 0 0 1-2.2 1.025 9.343 9.343 0 0 1-2.185-1.025 10.6 10.6 0 0 1-2.371-2.097 10.502 10.502 0 0 1-1.531-2.652 9.371 9.371 0 0 1-.617-2.869c0-.119-.022-.245-.022-.364v-.356c0-.224 0-.491.022-.722.03-.49.089-.943.171-1.412.052-.394.171-.772.26-1.151.03 0 .067-.016.082-.037.327-.082.669-.134.981-.171.171 0 .327-.016.498-.016.141 0 .29 0 .454.016a4.31 4.31 0 0 1 1.561.431c.483.223.877.535 1.204.84.327.312.587.64.773.966.178.327.305.64.409.915.089.26.141.49.178.698.052.193.082.35.097.446.015.104.015.155.015.155.037 0 .052-.052.067-.155.03-.097.059-.253.096-.446.03-.208.082-.438.179-.698a4.41 4.41 0 0 1 .438-.915c.171-.326.431-.653.736-.966a4.885 4.885 0 0 1 1.211-.84 4.173 4.173 0 0 1 1.576-.431c.133-.016.297-.016.445-.016.178 0 .327.016.482.016.328.037.654.089.982.171.039.021.068.037.083.037m-1.68-3.695c.461.684.862 1.42 1.204 2.229.082.209.148.432.223.64-.171-.015-.35-.03-.513-.052h-.483c-.17.021-.326.021-.482.037-.074.015-.142.015-.209.029-.029 0-.066 0-.118.015a4.964 4.964 0 0 0-1.754.572 4.938 4.938 0 0 0-1.271.981 5.227 5.227 0 0 0-.691.974c.134-.646.349-1.42.654-2.312a23.032 23.032 0 0 1 2.17-4.697c.437.477.877.997 1.27 1.584m.208-5.039a20.595 20.595 0 0 0-1.657 2.394c-.438-.401-.87-.743-1.323-1.056a13.908 13.908 0 0 0-1.233-.721 14.41 14.41 0 0 1 2.46-.899 15.461 15.461 0 0 1 1.694-.305.748.748 0 0 1 .193-.037h.037c.171-.015.29-.029.394-.045-.186.224-.379.439-.565.669m35.727 11.885l-.015.029a13.71 13.71 0 0 1-1.896-1.873 17.859 17.859 0 0 1-1.472-2.215 15.38 15.38 0 0 1-1.003-2.237 13.554 13.554 0 0 1-.564-2.118 13.57 13.57 0 0 1-.224-3.508c.03-.81.119-1.441.187-1.925.4.431.81.899 1.188 1.404a19.573 19.573 0 0 1 1.717 2.706c.513.98.951 2.044 1.294 3.166.363 1.13.564 2.252.706 3.359a20.36 20.36 0 0 1 .082 3.212"/><path d="M79.121 90.01l.015-.016h-.015zM41.172 59.195l61.457 8.681c2.268-17.592-3.82-34.232-14.99-46.354 16.536 9.231 26.666 27.789 24.14 47.648l8.732 1.219c3.523-25.054-13.378-48.28-38.038-52.858l.016-.134.431-3.01c.966.119 1.917.268 2.876.394 1.286.149 2.074-.669 1.732-1.806-.327-1.174-1.286-2.549-2.186-2.943a15.894 15.894 0 0 0-7.604-1.085c-.973.141-2.281 1.204-2.92 2.222-.632 1.018-.112 2.014 1.174 2.229.959.141 1.91.26 2.876.401l-.446 3.151c-24.957-2.445-47.64 15.214-51.178 40.283l13.928 1.962zM123.625 73.658H23.32c-1.13 0-2.044.907-2.044 2.059 0 1.101.914 2.052 2.044 2.052H123.625c1.13 0 2.044-.951 2.044-2.052a2.041 2.041 0 0 0-2.044-2.059"/></g></svg>