<svg xmlns="http://www.w3.org/2000/svg" viewBox="0 0 2000 2000"><path fill="none" d="M1313.6 1520.5c6.2 0 11.3-5.1 11.3-11.3 0-6.2-5-11.3-11.3-11.3-6.2 0-11.3 5-11.3 11.3 0 6.2 5.1 11.3 11.3 11.3zM1248.6 1532.5c0-43.2-35.2-78.4-78.4-78.4-20.9 0-40.6 8.1-55.4 22.9-14.8 14.8-22.9 34.5-22.9 55.4s8.1 40.6 22.9 55.4c14.8 14.8 34.5 22.9 55.4 22.9 43.2.1 78.4-35 78.4-78.2zM1131 1414.4c8.5 0 15.5-6.9 15.5-15.5 0-8.5-6.9-15.5-15.5-15.5-8.5 0-15.5 6.9-15.5 15.5.1 8.5 7 15.5 15.5 15.5zM1332 364.8v67.8-67.8zM1085.5 1706.1c10.8 0 19.7-8.8 19.7-19.6 0-10.9-8.8-19.7-19.7-19.7s-19.7 8.8-19.7 19.7c0 10.8 8.8 19.6 19.7 19.6zM1350.9 1780c-8.5 0-15.4 6.9-15.4 15.5 0 8.5 6.9 15.5 15.4 15.5s15.5-6.9 15.5-15.5c-.1-8.5-7-15.5-15.5-15.5zM1300.6 1643c4.9 5.4 9.3 11.3 12.9 17.8 2.3-5.4 5.6-10.2 9.3-14.6-1.3.1-2.5.4-3.7.4-6.6 0-12.8-1.4-18.5-3.6zM1651 371.7c0-136.5-111-249.3-247.5-249.3-127 0-229.8 97.5-244.3 216.5h45.6c14.2-93 97.6-170.3 198.8-170.3 111.1 0 201.2 91 201.2 202.1s-90.1 201.7-201.2 201.7c-24 0-47-4.2-68.4-12-.6 15.1-1.6 30.8-2.9 47 23.4 7.1 47.2 11.6 71.2 11.6 136.5.2 247.5-110.8 247.5-247.3zM1368.7 1652.1c-17.8 0-32.2 14.4-32.2 32.2 0 17.8 14.5 32.2 32.2 32.2 17.8 0 32.2-14.5 32.2-32.2 0-17.8-14.5-32.2-32.2-32.2zM1319 1571.1c-13.1 0-23.8 10.7-23.8 23.9 0 13.1 10.7 23.9 23.8 23.9 13.2 0 23.9-10.7 23.9-23.9-.1-13.2-10.8-23.9-23.9-23.9zM1231.6 1640.2c-36.3 0-65.8 29.5-65.8 65.8s29.5 65.8 65.8 65.8 65.8-29.5 65.8-65.8-29.5-65.8-65.8-65.8z"/><path fill="#C46158" d="M1283.3 1163.7c-.2-7.7-6.7-13.7-14.3-13.4-129.2 4.3-307.1 156.2-314.7 162.7-5.8 5-6.5 13.8-1.5 19.6 5 5.8 13.8 6.5 19.6 1.5 1.8-1.5 178.1-152 297.5-156 7.6-.4 13.6-6.8 13.4-14.4zM1202.3 759H859v336c249-50.6 343.3-336 343.3-336zM1318.2 367.6c6.6 4.4 11.2 10.3 12.2 18.7.2 2 1.6 6.5 1.6 15v-35.8-2.1c0-11.5-9.2-24.4-20.7-24.4h-152.1c14.5-119 117.3-216.5 244.3-216.5 136.5 0 247.5 111.9 247.5 248.4s-111 247.9-247.5 247.9c-24 0-47.8-4.2-71.2-11.3-1.1 14-2.6 28.4-4.3 43 24.8 6.8 50.1 10.3 75.5 10.3 159.4 0 289.1-129.7 289.1-289.1 0-159.4-129.7-287-289.1-287-156.3 0-282.7 122.3-288.5 280.3h188c5.6 0 10.8-.4 15.2 2.6zM1085.5 1733.9c26.2 0 47.4-21.3 47.4-47.4 0-26.2-21.3-47.4-47.4-47.4-26.1 0-47.4 21.3-47.4 47.4-.1 26.1 21.2 47.4 47.4 47.4zm0-67.1c10.8 0 19.7 8.8 19.7 19.7 0 10.8-8.8 19.6-19.7 19.6s-19.7-8.8-19.7-19.6c0-10.9 8.8-19.7 19.7-19.7zM1350.9 1752.3c-23.8 0-43.2 19.4-43.2 43.2 0 23.8 19.4 43.2 43.2 43.2s43.2-19.4 43.2-43.2c0-23.8-19.4-43.2-43.2-43.2zm0 58.7c-8.5 0-15.4-6.9-15.4-15.5 0-8.5 6.9-15.5 15.4-15.5s15.5 6.9 15.5 15.5c-.1 8.5-7 15.5-15.5 15.5z"/><path fill="#C46158" d="M1368.7 1624.3c-2.7 0-5.4.5-8 .8 6.2-8.5 9.9-18.9 9.9-30.2 0-24.7-17.5-45.4-40.7-50.4 13.4-6.2 22.7-19.7 22.7-35.4 0-21.5-17.5-39-39-39s-39.1 17.5-39.1 39c0 17.5 11.7 32.3 27.7 37.2-20.2 7-34.9 26-34.9 48.6 0 10.7 3.3 20.6 8.8 28.8-11.1-6-23.6-9.8-36.8-10.9 22.6-19.5 37-48.3 37-80.3 0-58.5-47.6-106.1-106.1-106.1-2.1 0-4.2.2-6.4.3 6.4-7.6 10.4-17.2 10.4-27.8 0-20.6-14.4-37.7-33.7-42.1-.1-5-2.7-9.8-7.5-12.3-33.7-16.8-34.2-75.1-34.2-75.6 0-7.7-6.2-13.9-13.9-13.9s-13.9 6.2-13.9 13.9c0 2.8.6 63.7 38 93-12.7 7.6-21.2 21.2-21.2 37 0 19.4 12.9 35.6 30.5 41.1-8.3 4.7-16.1 10.5-23.1 17.4-20 20-31.1 46.7-31.1 75 0 28.3 11.1 55 31.1 75 19.3 19.3 44.7 30.1 71.8 30.9-17.8 17-29 41-29 67.5 0 51.6 42 93.5 93.5 93.5 45.6 0 83.7-32.9 91.8-76.2 11 12.7 27.1 21 45.2 21 33.1 0 60-26.9 60-60 .2-32.9-26.7-59.8-59.8-59.8zm-55.1-126.3c6.2 0 11.3 5 11.3 11.3 0 6.2-5 11.3-11.3 11.3-6.2 0-11.3-5.1-11.3-11.3 0-6.3 5.1-11.3 11.3-11.3zm-198-99.1c0-8.5 6.9-15.5 15.5-15.5 8.5 0 15.5 6.9 15.5 15.5 0 8.5-6.9 15.5-15.5 15.5s-15.5-7-15.5-15.5zm-.8 189c-14.8-14.8-22.9-34.5-22.9-55.4s8.1-40.6 22.9-55.4c14.8-14.8 34.5-22.9 55.4-22.9 43.2 0 78.4 35.1 78.4 78.4 0 43.2-35.2 78.4-78.4 78.4-20.9-.2-40.6-8.3-55.4-23.1zm116.8 183.9c-36.3 0-65.8-29.5-65.8-65.8s29.5-65.8 65.8-65.8 65.8 29.5 65.8 65.8c0 36.2-29.5 65.8-65.8 65.8zm81.9-111c-3.5-6.5-7.9-12.4-12.9-17.8 5.7 2.2 11.9 3.5 18.4 3.5 1.3 0 2.5-.3 3.7-.4-3.7 4.5-6.9 9.3-9.2 14.7zm5.5-42c-13.1 0-23.8-10.7-23.8-23.9s10.7-23.9 23.8-23.9c13.2 0 23.9 10.7 23.9 23.9-.1 13.2-10.8 23.9-23.9 23.9zm49.7 97.8c-17.8 0-32.2-14.5-32.2-32.2 0-17.8 14.5-32.2 32.2-32.2 17.8 0 32.2 14.4 32.2 32.2 0 17.7-14.5 32.2-32.2 32.2z"/><path fill="#619F42" d="M1701.8 1457.4c-236.2-344.8-543.2-158.5-546.3-156.6-6.5 4-8.5 12.6-4.4 19.1 4 6.5 12.6 8.5 19.1 4.4 11.5-7.1 279.6-167.8 498.7 135.7-3.2 1.4-6.9 2.9-11 4.5-.2-3.5-1.6-6.9-4.4-9.5-178.7-164.6-404.7-130-414.2-128.4-7.6 1.2-12.7 8.3-11.5 15.9 1.2 7.6 8.4 12.7 15.9 11.5 2.2-.4 220.4-33.4 388.6 119.4-76.7 23.5-226.4 42.6-362.4-96.5-5.4-5.5-14.2-5.6-19.6-.2-5.5 5.4-5.6 14.1-.2 19.6 203.9 208.6 444.4 82.5 446.8 81.2 3.5-1.9 6-5.1 6.9-9 1-3.8.2-7.9-2-11.1zM1604.8 371.7c0-111.1-90.1-203-201.2-203-101.2 0-184.7 77.3-198.8 170.3h106.5c11.5 0 20.7 12.8 20.7 24.4v69.3c0 19.4 3.2 43.8 3.2 72.1 0 17.3.2 36.2-.6 56 21.4 7.7 44.6 12.2 68.7 12.2 111.1 0 201.5-90.1 201.5-201.3zm-147.1 122.6c-3.6 1.2-7.6-.7-8.8-4.4l-20.8-62.5c-1.2-3.6.7-7.6 4.4-8.8 3.6-1.2 7.6.8 8.8 4.4l20.8 62.5c1.2 3.7-.7 7.6-4.4 8.8zm62.1-120.9c3.7-.9 7.5 1.3 8.4 5.1.9 3.7-1.3 7.5-5 8.4l-55.5 13.9c-3.7.9-7.5-1.3-8.4-5.1-.9-3.7 1.3-7.5 5-8.4l55.5-13.9zm-121.1 62.9l-38.2 52.1c-2.3 3.1-6.6 3.8-9.7 1.5-3.1-2.3-3.8-6.6-1.5-9.7l38.2-52c2.3-3.1 6.6-3.8 9.7-1.5 3.1 2.2 3.7 6.5 1.5 9.6zm.8-29.2c-1.5 3.6-5.5 5.2-9.1 3.7l-41.6-17.4c-3.5-1.5-5.2-5.6-3.7-9.1 1.4-3.6 5.5-5.2 9.1-3.7l41.6 17.3c3.5 1.6 5.2 5.7 3.7 9.2zm4.3-28.8l45.1-163.1c1-3.7 4.8-5.9 8.6-4.8 3.7 1 5.9 4.8 4.8 8.6l-45.2 163c-1 3.7-4.8 5.9-8.5 4.8-3.7-1-5.9-4.8-4.8-8.5z"/><path fill="#9D9FA2" d="M747 719.4c2.1 7.4 9.8 11.6 17.2 9.5 7.4-2.1 11.6-9.8 9.5-17.2L625.6 193.6c-1-3.4-3.2-6.3-6.3-8.2L415.7 65.1c-6.6-3.9-15.1-1.7-19 4.9-1.3 2.2-1.9 4.7-1.9 7.1 0 4.7 2.4 9.4 6.8 11.9 0 0 189.7 112.1 198.8 117.5C603.4 217 747 719.4 747 719.4zM751.8 1147.3c6.9 3.3 15.2.5 18.6-6.4 3.3-6.9.5-15.2-6.4-18.6-298-145-252.7-676.9-252.2-682.2.7-7.6-4.9-14.4-12.5-15.1-7.6-.7-14.4 4.9-15.1 12.6-2.2 22.6-47.7 556.3 267.6 709.7z"/><path fill="#9D9FA2" d="M951 1770.2v-509.6c0-52 19.8-72.4 24.8-76.3 251.1-88.3 330.5-336.8 353.7-533.7 1.7-14.6 2.4-29 3.5-42.9 1.3-16.2 1.9-31.8 2.5-46.9.9-19.9 1-38.7 1-56 0-28.3-1-52.7-2.1-72.1-.7-12.9-1.6-23.5-2.3-31.4-.7-8.5-1.4-14-1.6-16-1-8.3-5.7-13.3-12.3-17.6-4.4-2.9-9.7-2.6-15.3-2.6H741.1c-15.3 0-27.8 10.7-27.8 26s12.4 26 27.8 26h536.3c1.3 14 2.7 45.6 2.7 80.1 0 180-38.1 537.5-329.9 636.8-1.9.6-5.9 1.4-7.6 2.4-2.3 1.4-57.6 34.2-57.6 124.3v536.6c0 15.1 14.3 27.5 29.4 27.8 117.4 2.3 254.2 14.7 300.2 30.7-3.7 5.1-5.8 10.9-5.8 17.1 0 5.2 1.7 10.3 4.7 14.8 8.4 12.3 24 16.5 36.7 8.7 24.4-15 31.1-30.9 31.1-43.8 0-3.8 2.5-7.3 1.6-10.4-4.2-16-16.9-63.1-331.9-72z"/><path fill="#9D9FA2" d="M819 1196.4c-7.7 0-13 6.2-13 13.9v592c-53 7.9-151.7 30-164.1 72.7-.8 2.7-2.2 5.8-2.2 9.2 0 9.2 3.5 20.6 17.1 32.5 5.8 5.1 14.3 4.5 19.4-1.3 5-5.7 4.4-14.5-1.4-19.6-4.2-3.7-9.1-9-7.9-13.1 5.8-19.8 83.9-44.4 152.5-55 6.8-1 12.5-6.9 12.5-13.7v-603.7c.1-7.7-5.2-13.9-12.9-13.9z"/><path fill="#FFFFFE" d="M1408.6 386.8c3.7 1 7.5-1.1 8.5-4.8l45.1-163.1c1-3.7-1.1-7.5-4.8-8.6-3.7-1-7.5 1.1-8.6 4.8l-45.1 163.1c-1 3.8 1.2 7.6 4.9 8.6zM1395.7 398l-41.6-17.3c-3.5-1.5-7.6.2-9.1 3.7s.2 7.6 3.7 9.1l41.6 17.4c3.5 1.5 7.6-.2 9.1-3.7 1.6-3.6-.1-7.7-3.7-9.2zM1387.5 428.1l-38.2 52c-2.3 3.1-1.6 7.4 1.5 9.7 3.1 2.3 7.4 1.6 9.7-1.5l38.2-52.1c2.3-3.1 1.6-7.4-1.5-9.7-3.1-2.1-7.5-1.5-9.7 1.6zM1459.2 395.7c.9 3.7 4.7 6 8.4 5.1l55.5-13.9c3.7-.9 6-4.7 5-8.4-.9-3.7-4.7-6-8.4-5.1l-55.5 13.9c-3.6.9-5.9 4.7-5 8.4zM1441.3 423.1c-1.2-3.6-5.1-5.6-8.8-4.4-3.6 1.2-5.6 5.2-4.4 8.8l20.8 62.5c1.2 3.6 5.2 5.6 8.8 4.4 3.6-1.2 5.6-5.1 4.4-8.8l-20.8-62.5z"/></svg>