<svg xmlns="http://www.w3.org/2000/svg" viewBox="0 0 2000 2000"><path fill="#7ACEBE" d="M262.1 612.6v-.5c-.9 2.1-1.8 4.2-2.7 6.4.9-1 1.8-2.1 2.8-3.1 0-1.3-.1-2.8-.1-2.8zM245.1 655c-1.3 3.5-2.7 7-4 10.6l5.7.4c-.9-3.6-1.5-7.3-1.7-11zM380.1 563c.2.1.4.3.5.4.2-.2.3-.5.5-.7l-.6.3h-.4zM325.4 534.1c-1.4-4.2-2.1-8.5-2.1-12.9 0-6.5 1.9-12.8 5-18.6-.3-.7-.5-1.3-.5-1.3-1.1-3.3-1.7-6.7-2.2-10.1-14.8 23.5-28.6 47.9-41.2 72.9 12.3-11.3 28.8-18.3 46.9-18.8-2.4-3.4-4.5-7.1-5.9-11.2zM657.4 563.2c-1.8-2.3-3.3-4.8-4.5-7.5-1.9-4.1-2.8-8.3-3.2-12.7-2.8 5-6.8 9.1-11.6 12.4 6 2.9 11.7 6.5 16.9 11 .6-1.2 1.5-2.2 2.4-3.2zM781.9 470.8c0 .1-.1.3-.1.4.1 2.2.2 4.4.2 4.8 7.8-2.6 16.2-4.1 24.9-3.9 0-5.2 1-10.3 3-15.3.2-.6.6-1 .8-1.6-4.5.9-9 1.1-13.5.5-3.9 5.9-9.1 11.1-15.3 15.1zM191.3 959.4c0 172.3 49.1 332.4 133.1 466.3L236 681.2c-28.8 87.2-44.7 180.7-44.7 278.2z"/><path fill="#7ACEBE" d="M404.8 437.3c4.7-3.9 10-7 16-8.7 23.1-6.3 47.8 6.7 55.2 28.9 1.4 4.2 2.1 8.5 2.1 12.8 0 8.9-3.4 17.3-9 24.5.6 1.5 1.1 2.7 1.3 3.2 2.9-5.2 6.5-10.1 11-14.3 0-1.2-.1-2.8-.1-2.8.1-4.7.7-9.3 1.7-13.8-2.7-3.2-4.9-6.8-6.2-10.9-1-3.2-1.6-6.5-1.6-9.7 0-4.5 1.8-8.6 3.7-12.7-.2-.5-.4-1.1-.4-1.1-1.4-4.1-2-8.3-2-12.4 0-6.3 1.6-12.5 4.6-18.2 5.2-9.7 14.2-16.8 25.2-19.8 9.6-2.6 19.6-1.2 28.8 2.7 3.4-2.7 6.9-5.3 11.2-6.5 17.4-4.8 35.9 5 41.5 21.7 1 3.2 1.6 6.5 1.6 9.7 0 4.4-1.2 8.5-3.1 12.4 5.1 2.8 10.1 6 14.5 10 2.8-1.3 5.8-2.3 8.8-3.1v-1c.8-37.8 33.3-68 72.6-67.4 17.7.3 33.9 4.2 46.7 15.7 7.5-3.4 15.7-8.4 23.9-8.4h.1c2.5 0 5.2-.6 8.2-2 .2-.7.5.3.5.2 10.1-24.9 39.3-37.3 65.2-28.6 11.3 3.8 19.9 11.9 25.6 21.7 5.6-.5 11.2.2 16.4 2 10 3.4 17.9 10.4 22.2 19.7 2.2 4.7 3.3 9.9 3.3 14.9v.2c4.3.4 8.7 1.2 12.9 2.6 12.9 4.3 22.7 13.2 29.2 24.5 6.4-.7 12.9-.1 18.9 1.9 11.2 3.8 20 11.5 24.8 21.9 2.4 5.3 3.6 10.9 3.6 16.5 3.7.2 7.3.8 10.7 1.9 11.2 3.8 20 11.6 24.8 22 2.5 5.3 3.7 10.9 3.7 16.6 0 4.5-.9 9-2.4 13.4 5.1.3 10.2 1 15.2 2.7 12.9 4.3 22.7 13.2 29.1 24.5 6.5-.7 12.9-.1 18.9 1.9 11.2 3.8 20 11.5 24.8 21.9 2.5 5.3 3.7 11 3.7 16.7 0 5.2-1 10.4-3 15.4-1.4 3.4-3.2 6.6-5.4 9.4 1.1 1.6 2.3 3.1 3.3 4.8 6.4-.6 12.9-.1 18.9 1.9 11.2 3.8 20 11.5 24.8 21.9 2.5 5.3 3.7 11 3.7 16.7 0 2.4-.3 4.8-.7 7.2l31.8-.7-43.9 367.5c25.1-105.8 109.5-189.2 216.5-213.6l-64.4-257.4-229.7-146.2c0-43.5 32.6-59.8 32.6-59.8l210.4 174.4c4.6-1.8 10.5-1 18.2 5.1l73.3 277.6c8.2-.7 16.4-1.1 24.7-1.1 159 0 288.4 127.7 289.4 285 18.3 12.8 30 33.4 30 56.1 0 35.8-27.3 65.6-62.2 69.1l-1.7 13.6-.5 4-28.4 223-2 15.8c104.2-143 166.3-321.6 166.3-515.4 0-469.4-363.2-850-811.3-850-258.6 0-488.7 126.8-637.2 324.2 12.8-3.5 26.6-2 39.1 3.6zM951.8 1807.5h.2l-.2-.2v.2zM1195.8 1403.5l-7.1-56.1-17.2-133.3h-4.3c-17.8 0-34-4.6-46.2-15.7l-66.9 561.5c1.2.4 2.4 1.2 3.4 1.7 7.9 4 13.5 11 15.8 19.3.8 2.7 1.1 5.5 1.1 8.3 0 5.7-1.6 11.4-4.8 16.5-.2.3-.4.5-.5.7 60.4-5.1 119-16.9 174.9-35.2l-48.2-367.7z"/><path fill="#FDE8DA" d="M793.5 393.5c3.2-.9 6.7-1.4 10.4-1.3l-4.4-1c1.4-6.2 2.1-14.3-2.1-17.7-5.8-4.8-19.3-1.4-26.1 1l-1 2.8-.7.3c8.3 2.8 16 7.3 22.2 13.7.6.7 1.1 1.5 1.7 2.2z"/><path fill="#FDE8DA" d="M779.8 360.2c8.3-1.4 18.1-1.4 24.9 4.3 6.8 5.7 8.8 15.3 6.1 28.5 2.2.5 4.3 1.2 6.6 2.2l-4.8 10.6c-4.2-1.9-8.3-2.3-12.1-1.9 3.7 7.2 5.9 15.1 5.9 23.3v1c-.1 5.6-1.3 11.1-3.2 16.2 7.1.1 14.2-2.1 19.8-6.7l3.5-2.2s.7.4 1.6.8c1.6-1 3.2-2 4.9-2.8l.6-1.8c1.6-4 3.7-7.6 6.1-11-3.9-.6-8.4.2-13.7 2.3l-4.5-10.7c10.1-4.2 19-4.5 26.6-1.1 9.4-8.5 21.5-13.9 34.3-15.2 0-3.5-.6-7.1-2.1-10.3-2.9-6.3-8.4-11.1-15.3-13.5-3.2-1-6.6-1.3-10-1.2-.9 7.3-3.1 16.3-8.8 19.2-2.9 1.5-6.3 1.3-9.4-.6l6.1-9.8c-.6-.3-1.9-.1-2.4.4 1.3-1.3 2.7-7.4 3.2-13.3-4.2-8.3-11.5-14.5-20.8-17.7-15.5-5.1-32.5-.2-43.1 11zM363 471.2c10.6.3 19.8 7.7 27.4 22l-10.2 5.4c-5.5-10.4-11.4-15.7-17.4-15.8-9.1-.2-18.6 10.8-22.9 17.2l1.3 3.2-1.6 2.5c-4.7 7.3-5.8 16.3-3 24.7 2.4 7.2 7.4 13 13.6 16.9 4.9 1.2 9.6 3 14.1 5.2 4.4.6 8.9.4 13.4-.9l8.6-3.8 3.1-1.4.4.2c3.1-1 7.7-3 9.2-5.6.4-.6.6-1.5.1-3l6.5-2.2c11.5-17.7 32.5-27.8 53.7-26.4.4-1.3.6-2.7.6-4.1 0-.8-.2-1.6-.3-2.4-3.3-2.1-10.7-6-18.3-4.6-5.7 1.1-10.6 5.1-14.7 12l-10-5.9c5.9-10 13.5-15.9 22.7-17.5 7.4-1.4 14.3.4 19.6 2.7 5-5.4 7.7-12.2 7.7-19.3 0-3.1-.5-6.2-1.5-9.3-5.5-16.4-23.9-26-41.1-21.3-3.8 1-7.2 3-10.3 5.2 4.7 7.2 9.4 16.8 6.5 22.9-1.5 3.2-4.7 5.1-8.6 5.3l-.3-11.6c-.7.1-1.6 1.2-1.7 1.9.2-2.1-3.3-9-7.6-15-10.6-5.3-22.6-6.6-33.8-3.5-11.7 3.2-21.1 10.6-26.6 20.8-3.2 6.1-4.6 12.7-4.5 19.4 6-6.9 15.1-14.1 25.9-13.9zm38.3 31.7c-20.3 3.4-22.9 25.7-23 26.6l-11.5-1.1c1.1-11.1 9.3-33 32.6-36.9l1.9 11.4z"/><path fill="#E8A26C" d="M366.8 528.4l11.5 1.1c.1-.9 2.7-23.2 23-26.6l-1.9-11.4c-23.3 3.8-31.5 25.8-32.6 36.9z"/><path fill="#FDE8DA" d="M512.4 425.4c-2.1-2.7-4.6-4.9-7.4-4.9-5.5-.2-11.5 6.6-14.5 10.9l.9 2.3-1.6 2.5c-3.1 4.8-3.8 10.7-2 16.2l.3.6c5.3-11.2 13.8-20.7 24.3-27.6zM505.2 408.9c6.6.1 12.4 3.9 17.4 10.9 9.5-4.2 20.1-6.6 31.2-6.4 7.7.1 15 1.7 22 4.2 2-4.3 2.4-9.1.8-13.9-3.6-11-15.9-17.3-27.4-14.2-2 .6-3.9 1.4-5.6 2.5 3.5 5.7 6.2 12.2 3.9 16.8-1.4 2.9-4.1 4.5-7.6 4.7l-.5-11.6c-1.2.1-2.7 1.7-2.7 2.9-.1-1.4-2.3-5.7-4.9-9.4-7.1-3.5-15.1-4.3-22.7-2.2-7.9 2.2-14.3 7.1-18 14.1-1.5 2.8-2.4 5.8-2.8 8.9 4.5-4 10.3-7.5 16.9-7.3zM652.1 404.7c15.2-11.5 35.8-15.8 54.9-9.4 7.4 2.5 13.7 6.6 19 11.7-.2-4.5-1.3-11.3-3.2-17.7-11-10.6-25.6-16.7-41.2-17-28.2-.5-52.1 18-58.8 43.1 7.9-4.9 18.7-10.2 29.3-10.7zM633.8 428.1c1.1-2.7 2.5-5.2 4-7.7-4.3 2-8.4 4.4-11.8 6.8 2.7.1 5.2.4 7.8.9zM736.2 419.7c6.4-.7 12.9-.1 18.9 1.9 11.2 3.8 20 11.5 24.8 21.9 1.8 3.9 2.7 7.9 3.2 12 7.3-7.4 11.5-17 11.7-27.4v-.8c0-10.4-4-20.3-11.4-28-8.1-8.4-19.1-13.1-31-13.3-6-.1-11.8 1.3-17.4 3.6 2.3 8.7 4.5 21.6.1 28.5.3.5.8 1 1.1 1.6zM951.4 436.1c-3.9-1.3-8.2-1.6-12.4-1.4-.1.9-.2 1.8-.4 2.7 2.6.5 5.1.9 7.7 1.8 10.4 3.5 18.8 10.1 25 18.4-.4-1.9-1.1-3.8-1.9-5.7-3.5-7.5-9.8-13.1-18-15.8zM903.3 409.7c-18.8-6.3-39.3.2-51.5 14.5 9.7-2 21.9-2.5 30 4.3 5.6 4.7 8.2 11.8 7.9 21.3 10.4-8.4 23.5-13.3 37.1-13.5.3-1.9.6-3.9.8-5.9-4.9-9.7-13.4-17.1-24.3-20.7z"/><path fill="#FDE8DA" d="M874.5 437.4c-7-5.8-23.2-1.6-30.9 1.1l-1.1 3.3-2.5.9c-8.8 3.4-15.8 10.1-19.2 18.4-1.6 4-2.3 8.2-2.1 12.3 12.8 2.4 24.4 8.4 34.2 16.9 4.6-7 11.4-12.6 19.3-16.3.1-.4.3-.8.4-1.1-10 2.8-17.1 9.7-17.6 10.2l-8.2-8.2c.8-.7 14.6-14.3 33-14.8.3-.4.6-.7.8-1l-3.5-.8c1.6-7.2 2.4-16.7-2.6-20.9zM990.6 476.4c-4-1.3-8.2-1.6-12.5-1.4-.9 7.7-3.3 18.6-9.6 21.9-1.8.9-5.5 2.1-10-.7l6.2-9.8c-.5-.2-1.5 0-1.8.3 1.5-1.4 3.3-8.9 3.9-16-4.9-9.7-13.4-17.1-24.3-20.8-18.8-6.3-39.3.2-51.5 14.5 9.7-2 21.9-2.5 30 4.3 7.6 6.3 9.8 17.3 6.6 32.4l-11.3-2.5c1.6-7.3 2.4-16.8-2.6-21-7-5.8-23.2-1.7-30.9 1.1l-1.1 3.3-2.5 1c-2 .8-3.8 1.7-5.6 2.8 1.4-.1 2.8-.2 4.1-.2 14.1.2 27.1 5.7 37.2 15.2 6.4-.8 13.5-.3 20.9 3.1l-4.8 10.5c-2.3-1-4.5-1.7-6.7-2 1.9 3.3 3.4 6.7 4.6 10.2 15.4-14.5 38.5-20.6 59.7-13.5 6.2 2.1 11.6 5.3 16.4 9.2.8-.2 1.6 1.2 2.4 1.1.5-1 1.3-1.6 1.7-1.6 3-13 2.9-17.1-.4-24.3-3.6-7.3-10-14.3-18.1-17.1zM824.8 609.7c2.3-12.4 8-23.7 16.2-32.8l-.1-.1c.2-.2.4-.3.7-.5 13.4-14.5 33-23.6 54.6-23.2 1.6 0 3 .4 4.6.5 3.9-3.8 8.5-6.9 13.5-9.3l.6-1.8c1.2-3 2.8-5.7 4.4-8.4-1-8.7-4.7-16.9-11-23.4-8.1-8.4-19.1-13.1-31-13.3-6-.1-11.9 1-17.5 3.2 2.5 9.4 5.2 24.1-.9 30.5-1.6 1.7-5.1 4.3-11 2.8l2.5-10.6c1.5-2.3.2-12.9-2.7-22.6-11-10.6-25.5-16.7-41.2-16.9-9.9-.2-19.2 2.2-27.5 6.2 6.1-.5 12.3 0 18.1 1.9 11.2 3.8 20 11.5 24.8 21.9 2.5 5.3 3.7 11 3.7 16.7 0 5.2-1 10.4-3.1 15.4-1.4 3.4-3.2 6.4-5.3 9.3 2.2 0 4.3-.2 6.6.1l-1.4 11.5h-.4c1.6 4.3 2.6 8.8 2.6 13.4 0 5.2-1 10.4-3 15.4-1.4 3.4-3.3 6.6-5.4 9.4 1.1 1.6 2.3 3.1 3.3 4.8 1.9-.2 3.6-.1 5.3-.1zM942.1 571.3c4.2-6.4 10.3-11.5 17.4-15.1-.4-3.3-1.3-6.3-3.6-8.2-7-5.8-23.2-1.7-30.9 1.1l-1.1 3.3-2.5 1c-2.2.8-4.2 1.9-6.1 3 9.8 3 19 8 26.8 14.9z"/><path fill="#FDE8DA" d="M967.1 543.6c5.9-9 14.3-16 23.9-20.5-2-1-4-2-6.2-2.8-18.8-6.3-39.3.2-51.5 14.5 9.7-2 21.8-2.5 30 4.3 1.6 1.2 2.7 2.8 3.8 4.5zM651.9 420.7c9.7-2 21.9-2.5 30 4.3 7.7 6.3 9.9 17.3 6.5 32.4l-11.3-2.5c1.6-7.3 2.4-16.8-2.6-21-5.6-4.7-17.1-2.9-25.5-.6 5.4 2.7 10.4 6.2 14.6 10.6 3.9 4 6.9 8.7 9.3 13.6 7.1-1.4 15.1-1.1 23.6 2.7l-4.8 10.5c-5.1-2.3-10.1-2.7-14.7-2.1.8 3.7 1.4 7.4 1.4 11.2v1c-.1 6.7-1.6 13.2-4.2 19.1l1.1.4.6-1.8c11.4-28.1 44.3-42.9 73.4-33.1 6.9 2.3 12.8 5.9 17.8 10.5 1-1.5 2-3 2.7-4.7 1.4-3.6 2.2-7.4 2.2-11.1 0-4.1-.9-8.1-2.6-11.8-3.4-7.4-9.8-13.1-18-15.8-4-1.3-8.2-1.6-12.5-1.4-.9 7.7-3.3 18.6-9.6 22-1.8.9-5.5 2.1-9.9-.6l6.2-9.8c-.5-.2-1.4-.1-1.8.3 1.6-1.4 3.4-8.9 3.9-16-4.9-9.7-13.5-17.1-24.3-20.7-18.8-6.3-39.3.1-51.5 14.4z"/><path fill="#FDE8DA" d="M622.3 549.7c10.1-2.1 18-9.9 19.8-19.8-2.9-3.6-10.5-11.7-21-13-8.2-1.1-16.9 2.3-25.6 10l-7.6-8.7c11.4-10 23.2-14.3 34.9-12.7 9.3 1.2 16.8 6 21.9 10.5l.4-.2c13.3-7.4 21.4-20.5 21.7-35 .2-10.7-3.8-20.9-11.4-28.7-8.1-8.4-19.1-13.1-31.1-13.3-6-.1-11.9 1-17.4 3.2 2.5 9.4 5.1 24.1-.9 30.5-1.6 1.7-5.1 4.3-11 2.8l2.5-10.6c1.5-2.3.2-13-2.6-22.6-11-10.6-25.5-16.7-41.2-16.9-28.2-.5-52.2 18-58.9 43.1 10.7-6.8 27-14.3 41-9.2 11.8 4.3 19.3 16.3 22.2 35.5l-11.5 1.7c-2.3-14.8-7.2-23.6-14.7-26.4-12.3-4.5-30.6 7.2-38.9 13.8l.1 4.4-2.2 1.8c-7.5 6.1-12.4 14.5-14.2 23.5 11.6 4.6 20.6 12.8 26.6 23.3 6.4-.7 12.9-.1 18.9 1.9 10.6 3.6 19 10.8 23.9 20.4 1.7-.6 3.3-1.4 4.5-2.5 1.4-1.3 2.1-2.9 2.1-5l11.6.2c-.1 5.3-2.1 9.8-5.9 13.3-2.4 2.2-5.4 3.8-8.5 4.9v.4c1.4.5 2.8 1 4.2 1.4 13.4-14.7 33.1-23.9 55-23.5 4.5 0 9 .5 13.3 1.5zm-52.7-41.8c-28-3.3-41.4 24.5-41.9 25.6l-10.5-4.9c5.9-12.7 24.7-35.7 53.8-32.2l-1.4 11.5z"/><path fill="#E8A26C" d="M517.1 528.7l10.5 4.9c.6-1.2 13.9-29 41.9-25.6l1.4-11.5c-29.1-3.5-47.9 19.5-53.8 32.2z"/><path fill="#FDE8DA" d="M793.6 502.8c-4-1.3-8.2-1.6-12.5-1.4-.9 7.7-3.3 18.7-9.6 21.9-1.5.8-4.3 1.6-7.7.3 5.5 4.4 10.1 9.7 13.6 15.8 6.4-.6 12.9-.1 18.9 1.9 4.5 1.5 8.4 4.6 12.1 7.2 1.4-2 2.7-5.7 3.6-5.7 3-13 2.9-16.5-.4-23.7-3.4-7.2-9.8-13.6-18-16.3zM748.3 515.1c5 1.7 9.5 4.3 13.5 7.2l6-9.4c-.5-.2-1.5 0-1.8.3 1.6-1.4 3.3-8.8 3.9-16-4.9-9.7-13.4-17.1-24.3-20.8-18.8-6.3-39.3.2-51.5 14.5 9.7-2 21.9-2.5 30 4.3 4.7 4 7.1 9.8 7.7 17.2 5.5.2 11.1.9 16.5 2.7z"/><path fill="#FDE8DA" d="M720.5 513.1c-.3-3.6-1.3-6.9-3.7-8.9-7-5.8-23.2-1.7-30.9 1.1l-1.1 3.3-2.5 1c-8.8 3.4-15.8 10.1-19.2 18.4-3 7.6-2.9 15.7.4 22.9.7 1.5 1.6 2.9 2.5 4.2 2.6-1.9 5.3-3.6 8.3-5 .3-.9.7-1.8.7-1.8 7.6-19.3 25.6-32.1 45.5-35.2zM539 577.2c0-4-.9-8.1-2.6-11.8-3.4-7.5-9.8-13.1-18-15.8-4-1.3-8.2-1.6-12.4-1.4-.9 7.7-3.3 18.6-9.6 21.9-1.8.9-5.5 2.1-10-.7l6.2-9.8c-.5-.2-1.4-.1-1.8.3 1.6-1.4 3.3-8.9 3.9-16-4.9-9.7-13.4-17.1-24.3-20.8-18.7-6.3-39.3.2-51.4 14.5 9.7-2 21.8-2.5 30 4.3 7.7 6.3 9.9 17.3 6.6 32.4l-11.3-2.5c1.6-7.3 2.4-16.8-2.6-21.1-7-5.8-23.2-1.7-30.9 1.1l-1.1 3.3-2.5 1c-2 .8-3.8 1.7-5.6 2.8 1.4-.1 2.8-.2 4.1-.2 14.1.2 27.1 5.7 37.1 15.1 6.4-.8 13.5-.3 20.9 3.1l-4.8 10.5c-2.3-1-4.6-1.7-6.8-2 1.9 3.3 3.4 6.7 4.6 10.3 15.4-14.5 38.5-20.6 59.7-13.5 6.9 2.3 12.8 6 17.8 10.5.9-1.5 2-3 2.7-4.7 1.3-3.4 2.1-7.1 2.1-10.8z"/><path fill="#FDE8DA" d="M308.4 672.3l69.5 6.7h.6l33.8.4c2.6-1.8 5-5 6.8-7.6-2-4.8-3-10.3-3-15.4 0-.3.1-.8.1-1.1-3.7-2.9-8.5-5.8-14.2-6.6-8.2-1.1-16.9 2.2-25.6 9.9l-7.6-8.8c11.4-10 23.2-14.3 34.9-12.7 5.7.8 10.7 2.9 14.9 5.5.2-.7.4-1.5.7-2.2 4.2-10.3 12.6-18.3 23-23.1.3-.9.7-1.8.7-1.8 1.2-3 2.8-5.7 4.4-8.4-1-8.7-4.7-16.9-11-23.4-8.1-8.4-19.1-13.1-31.1-13.3-6-.1-11.9 1-17.5 3.3 2.5 9.4 5.1 24.1-.9 30.5-1.6 1.7-5.1 4.3-11 2.8l2.5-10.7c1.5-2.3.2-13-2.7-22.6-11-10.6-25.5-16.7-41.2-16.9-28.2-.5-52.2 18-58.9 43.1 10.7-6.8 27-14.3 41-9.2 11.8 4.3 19.2 16.3 22.2 35.5l-11.5 1.8c-2.3-14.8-7.2-23.6-14.7-26.4-12.3-4.5-30.6 7.2-38.9 13.8l.1 4.4-2.2 1.8c-9.4 7.7-15 18.9-15.2 30.6-.1 5-1.6 10 .1 14.6l10.3.9 41.6 4.6zm43.4-44l-1.4 11.5c-28-3.3-41.4 24.5-42 25.6l-10.5-4.9c6-12.6 24.8-35.7 53.9-32.2z"/><path fill="#E8A26C" d="M259.1 666.8c-1.7-4.6-2.6-9.5-2.5-14.6.2-11.8 5.8-22.9 15.2-30.6l2.2-1.8-.1-4.4c8.2-6.6 26.5-18.3 38.9-13.8 7.5 2.8 12.4 11.7 14.7 26.4l11.5-1.8c-3-19.3-10.4-31.2-22.2-35.5-14-5.1-30.3 2.5-41 9.2 6.7-25.1 30.6-43.6 58.9-43.1 15.7.3 30.2 6.3 41.2 16.9 2.9 9.6 4.2 20.3 2.7 22.6l-2.5 10.7c5.9 1.4 9.4-1.2 11-2.8 6-6.4 3.4-21.1.9-30.5 5.5-2.2 11.5-3.4 17.5-3.3 11.9.2 23 4.9 31.1 13.3 6.3 6.5 10 14.7 11 23.4-1.7 2.7-3.2 5.4-4.4 8.4 0 0-.3.9-.7 1.8-10.3 4.9-18.8 12.8-23 23.1-.3.7-.4 1.5-.7 2.2-4.2-2.6-9.2-4.7-14.9-5.5-11.7-1.6-23.5 2.7-34.9 12.7l7.6 8.7c8.8-7.7 17.4-11 25.6-10 5.7.7 10.5 3.5 14.2 6.4 0 .3-.1.6-.1.9 0 5.1 1.1 10.2 3.1 15-1.8 2.6-4 4.8-6.6 6.6l10.4.7 15.3-.3c-3.4-2.8-6.1-6.2-7.9-10.2-3.3-7.2-3.5-15.4-.4-22.9 3.4-8.3 10.4-15 19.2-18.4l2.5-1 1.1-3.3c7.7-2.8 24-6.9 30.9-1.1 5.1 4.2 4.2 13.8 2.6 21l11.3 2.5c3.3-15.2 1.1-26.1-6.6-32.4-8.1-6.8-20.3-6.3-30-4.3 12.2-14.3 32.7-20.8 51.5-14.5 10.6 3.6 19 10.8 23.9 20.2 0 .6-.1 1.3-.1 1.9 0 0 0 1.4.1 2.6v.2c-10.4 9.7-16.9 22.6-17.2 36.6v1c0 2.8.4 5.5.8 8.3-2.9.7-5.8 1.6-8.9 2.9l3.9 9.2 5.3-.1c.9-.3 1.9-.5 2.8-.7l.3.6 12.9-.3c-3.6-6.3-5.6-13.4-5.5-20.7.3-11.7 5.8-22.9 15.2-30.6l2.2-1.8-.1-4.4c8.2-6.6 26.5-18.3 38.9-13.8 7.5 2.7 12.4 11.6 14.7 26.4l11.4-1.7c-2.9-19.3-10.4-31.2-22.2-35.5-14-5.1-30.3 2.5-41 9.2 6.7-25.1 30.6-43.6 58.9-43.1 15.7.2 30.2 6.3 41.2 17 2.8 9.7 4.2 20.3 2.6 22.6l-2.5 10.6c5.9 1.5 9.4-1.1 11-2.8 6-6.4 3.4-21.1.9-30.5 5.5-2.2 11.5-3.4 17.4-3.2 11.9.2 23 4.9 31 13.3 6.3 6.5 10 14.7 11 23.5-1.7 2.7-3.2 5.4-4.4 8.4l-.6 1.8c-10.3 4.8-18.8 12.8-23 23.1-.3.7-.4 1.5-.7 2.2-4.2-2.6-9.2-4.7-14.9-5.5-11.7-1.6-23.5 2.7-34.9 12.7l7.6 8.7c8.8-7.7 17.4-11 25.6-10 5.7.7 10.5 3.5 14.2 6.4 0 .3-.1.6-.1.9 0 4.6 1 9.2 2.6 13.6l12.5-.3c-.3-.5-.7-1-.9-1.5-3.3-7.2-3.5-15.3-.4-22.9 3.4-8.3 10.3-15 19.2-18.4l2.5-1 1.1-3.3c7.7-2.8 24-6.9 31-1.1 5 4.2 4.2 13.7 2.6 21l11.3 2.5c3.3-15.2 1.1-26-6.5-32.4-8.2-6.8-20.3-6.2-30.1-4.3 12.2-14.3 32.7-20.8 51.5-14.5 10.9 3.6 19.4 11 24.3 20.8-.6 7.1-2.4 14.6-3.9 16 .4-.3 1.4-.5 1.8-.3l-6.2 9.8c2.7 1.7 2.9 1.8 4.8 1.5-1.9 5-5.6 10.3-5.6 15.8v1c0 1.9 2.6 3.7 2.8 5.6-6.5-.9-12.6.2-20.5 3.5l.8.5 33.9-.7c-.7-3.1-1-6.3-1-9.5.3-11.8 5.9-22.9 15.3-30.6l2.2-1.8-.1-4.4c8.2-6.6 26.6-18.3 38.9-13.8 7.5 2.7 12.5 11.6 14.7 26.4l11.5-1.8c-2.9-19.3-10.4-31.2-22.2-35.5-14-5.1-30.3 2.5-41 9.2 6.7-25.1 30.6-43.6 58.9-43.1 15.7.3 30.2 6.4 41.2 16.9 2.9 9.6 4.2 20.3 2.6 22.6l-2.5 10.7c5.9 1.4 9.5-1.2 11-2.8 6-6.4 3.4-21.1.9-30.5 5.5-2.2 11.4-3.4 17.4-3.2 11.9.2 23 4.9 31.1 13.3 6.3 6.5 10 14.7 11 23.4-1.7 2.7-3.2 5.4-4.4 8.4 0 0-.3.9-.7 1.8-10.4 4.8-18.8 12.8-23 23.1-.3.7-.4 1.5-.6 2.2-4.2-2.6-9.2-4.7-14.9-5.5-11.7-1.6-23.5 2.7-34.9 12.7l7.6 8.7c8.8-7.7 17.4-11 25.6-10 5.7.8 10.5 3.5 14.2 6.4 0 .3-.1.5-.1.8 0 .8.2 1.6.3 2.4l11.5-.3c-.3-4.4.2-8.9 2-13.3 3.4-8.3 10.4-15 19.2-18.4l2.5-1 1.1-3.3c7.7-2.8 24-6.9 31-1.1 5 4.2 4.2 13.7 2.6 21l11.3 2.5c3.3-15.2 1.1-26.1-6.6-32.4-8.2-6.8-20.3-6.2-30-4.3 12.2-14.3 32.7-20.8 51.5-14.5 10.9 3.6 19.4 11 24.3 20.8-.6 7.1-2.4 14.6-3.9 16 .4-.4 1.4-.5 1.8-.3l-6.2 9.8c4.4 2.8 8.2 1.6 10 .6 6.3-3.3 8.7-14.2 9.6-21.9 4.3-.2 8.5.1 12.4 1.4 8.2 2.7 14.5 8.3 18 15.8 1.7 3.8 2.6 7.8 2.6 11.8 0 2.5-.4 5-1.1 7.4l12-.3c.4-2.4.7-4.8.7-7.2 0-5.7-1.2-11.4-3.7-16.7-4.8-10.4-13.6-18.2-24.8-21.9-6-2-12.4-2.5-18.9-1.9-1-1.7-2.2-3.2-3.3-4.8 2.2-2.9 4-6 5.4-9.4 2-5 3-10.2 3-15.4 0-5.7-1.2-11.4-3.7-16.7-4.8-10.4-13.6-18.1-24.8-21.9-6-2-12.4-2.6-18.9-1.9-6.5-11.3-16.3-20.1-29.1-24.5-5-1.7-10.1-2.4-15.2-2.7 1.5-4.4 2.4-8.9 2.4-13.4 0-5.7-1.2-11.3-3.7-16.6-4.8-10.4-13.6-18.2-24.8-22-3.5-1.1-7.1-1.7-10.7-1.9 0-5.6-1.2-11.3-3.6-16.5-4.8-10.4-13.6-18.2-24.8-21.9-6-2-12.5-2.6-18.9-1.9-6.5-11.3-16.3-20.1-29.2-24.5-4.2-1.4-8.6-2.2-12.9-2.6v-.2c0-5.1-1.1-10.2-3.3-14.9-4.3-9.3-12.2-16.2-22.2-19.6-5.2-1.8-10.8-2.2-16.4-1.8-5.8-9.8-14.4-17.6-25.6-21.3-25.9-8.7-55.2 4.5-65.2 29.4 0 .1-.3-2.4-.5-1.8-3 1.4-5.7 2-8.2 2h-.1c-8.3 0-16.4 5.1-23.9 8.4-12.9-11.5-29.1-16.9-46.7-17.3-39.3-.7-71.8 30.3-72.6 68.2v1.4c-3 .8-5.9 2-8.8 3.3-4.4-4-9.4-7.1-14.5-9.9 1.9-3.9 3.1-8 3.1-12.4 0-3.2-.5-6.5-1.6-9.7-5.5-16.7-24.1-26.5-41.5-21.7-4.3 1.2-7.8 3.8-11.2 6.5-9.2-3.9-19.2-5.4-28.8-2.7-11 3-19.9 10-25.2 19.8-3 5.7-4.6 11.9-4.6 18.2 0 4.1.7 8.3 2 12.4 0 0 .2.6.4 1.1-1.9 4.1-3.7 8.2-3.7 12.7 0 3.2.5 6.5 1.6 9.7 1.4 4.1 3.5 7.8 6.2 10.9-1 4.4-1.6 9.1-1.7 13.8 0 0 0 1.6.1 2.8-4.5 4.2-8.1 9.1-11 14.3-.2-.5-.7-1.7-1.3-3.2 5.6-7.2 9-15.6 9-24.5 0-4.3-.7-8.5-2.1-12.8-7.4-22.2-32.1-35.1-55.2-28.9-6 1.7-11.3 4.8-16 8.7-12.5-5.6-26.3-7.1-39.4-3.6-.1 0-.3 0-.4.1-14.8 4-26.8 13.5-33.8 26.5-4.1 7.6-6.1 15.9-6.1 24.3 0 2.2.3 4.4.5 6.6.4 3.4 1.1 6.7 2.2 10.1 0 0 .3.7.5 1.3-3.1 5.8-5 12.2-5 18.6 0 4.3.7 8.7 2.1 12.9 1.4 4.1 3.5 7.8 5.9 11.3-18.1.5-34.6 7.5-46.9 18.8-13.3 12.1-21.8 29.1-22.3 48v.5s0 1.5.1 2.8c-1 1-1.8 2.1-2.8 3.1-8.7 9.3-14.2 20.9-14.5 33.5v1c0 .7.2 1.3.2 2 .1 3.8.7 7.4 1.7 11l12.5 1.2zm82.4-201.1c5.5-10.2 14.9-17.6 26.6-20.8 11.3-3.1 23.2-1.8 33.8 3.5 4.2 6 7.7 12.9 7.6 15 .1-.7 1-1.7 1.7-1.9l.3 11.6c4-.2 7.1-2.1 8.6-5.3 3-6.2-1.8-15.8-6.5-22.9 3.1-2.3 6.5-4.2 10.3-5.2 17.2-4.7 35.6 4.9 41.1 21.3 1 3.1 1.5 6.2 1.5 9.3 0 7.1-2.7 13.9-7.7 19.3-5.3-2.2-12.2-4-19.6-2.7-9.2 1.7-16.8 7.6-22.7 17.5l10 5.9c4.1-6.9 9.1-11 14.7-12 7.6-1.4 15 2.5 18.3 4.6.1.8.3 1.6.3 2.4 0 1.4-.2 2.8-.6 4.1-21.2-1.3-42.2 8.7-53.7 26.4L399 538c.5 1.5.2 2.4-.1 3-1.5 2.6-6 4.6-9.2 5.6l-.4-.2-3.1 1.4-8.6 3.8c-4.5 1.2-9 1.4-13.4.9-4.5-2.2-9.2-4-14.1-5.2-6.2-3.9-11.2-9.7-13.6-16.9-2.8-8.4-1.7-17.4 3-24.7l1.6-2.5-1.3-3.2c4.4-6.4 13.8-17.4 22.9-17.2 6.1.1 11.9 5.5 17.4 15.8l10.2-5.4c-7.6-14.4-16.8-21.8-27.4-22-10.7-.2-19.8 7-26.1 13.9 0-6.7 1.4-13.3 4.7-19.4zm146.2-13.3c-1.8-5.5-1.1-11.4 2-16.2l1.6-2.5-.9-2.3c3.1-4.3 9.1-11.1 14.5-10.9 2.8.1 5.3 2.2 7.4 4.9-10.5 6.9-19 16.4-24.4 27.6 0-.2-.1-.4-.2-.6zm21.5-59.1c7.6-2.1 15.6-1.2 22.7 2.2 2.6 3.7 4.8 8 4.9 9.4-.1-1.2 1.4-2.9 2.7-2.9l.5 11.6c3.5-.1 6.2-1.8 7.6-4.7 2.2-4.6-.4-11.1-3.9-16.8 1.7-1.1 3.6-2 5.6-2.5 11.5-3.1 23.8 3.2 27.4 14.2 1.5 4.7 1.1 9.6-.8 13.9-7-2.5-14.3-4.1-22-4.2-11.2-.2-21.7 2.2-31.2 6.4-5-7-10.8-10.8-17.4-10.9-6.6-.2-12.4 3.4-16.8 7.4.4-3.1 1.3-6.1 2.8-8.9 3.6-7.1 10-12 17.9-14.2zm172.5-20.9c15.6.2 30.2 6.3 41.2 17 1.9 6.4 3.1 13.1 3.2 17.7-5.3-5.1-11.6-9.3-19-11.7-19.1-6.4-39.7-2.1-54.9 9.4-10.7.5-21.5 5.8-29.3 10.8 6.6-25.3 30.6-43.7 58.8-43.2zm141.2-23.1c9.3 3.1 16.5 9.4 20.8 17.7-.5 5.9-2 12-3.2 13.3.5-.5 1.8-.7 2.4-.4l-6.1 9.8c3.1 1.9 6.5 2.1 9.4.6 5.6-2.9 7.8-11.8 8.8-19.2 3.4-.1 6.9.2 10 1.2 7 2.3 12.4 7.1 15.3 13.5 1.5 3.3 2.2 6.8 2.1 10.3-12.8 1.3-24.8 6.7-34.3 15.2-7.6-3.4-16.5-3.2-26.6 1.1l4.5 10.7c5.2-2.2 9.8-2.9 13.7-2.3-2.4 3.4-4.5 7-6.1 11l-.6 1.8c-1.7.8-3.3 1.8-4.9 2.8-.9-.5-1.6-.8-1.6-.8l-3.5 2.2c-5.6 4.6-12.7 6.8-19.8 6.7 1.9-5.2 3.1-10.6 3.2-16.2v-1c0-8.2-2.2-16.1-5.9-23.3 3.8-.4 7.9-.1 12.1 1.9l4.8-10.6c-2.2-1-4.4-1.7-6.6-2.2 2.7-13.2.8-22.8-6.1-28.5-6.8-5.7-16.6-5.7-24.9-4.3 10.6-11.3 27.6-16.2 43.1-11zm233.3 202.5c-.6 7.2-2.4 14.6-4 16 .4-.4 1.4-.5 1.9-.3l-6.2 9.8c4.4 2.7 8.1 1.6 9.9.6 6.3-3.3 8.7-14.2 9.6-21.9 4.3-.2 8.5.1 12.5 1.4 8.1 2.7 14.5 8.3 17.9 15.8 1.7 3.8 2.6 7.8 2.6 11.9 0 3.7-.7 7.4-2.2 11.1-.7 1.7-1.7 3.1-2.7 4.7-5.1-4.5-11-8.2-17.8-10.5-21.2-7.1-44.3-1.1-59.7 13.5-1.2-3.6-2.7-7-4.6-10.2 2.2.4 4.5 1 6.7 2l4.8-10.6c-7.4-3.4-14.5-4-20.9-3.1-10-9.5-23-14.9-37.1-15.2-1.4 0-2.8.1-4.1.2 1.8-1.1 3.6-2.1 5.6-2.8l2.5-1 1.1-3.3c7.7-2.8 24-6.9 30.9-1.1 5 4.2 4.2 13.8 2.7 21.1l11.3 2.5c3.3-15.2 1.1-26-6.6-32.4-8.2-6.8-20.3-6.3-30-4.3 12.2-14.3 32.7-20.7 51.5-14.5 10.9 3.5 19.4 10.9 24.4 20.6zm-265.7 33.5c-21.2-7.1-44.3-1-59.7 13.5-1.2-3.6-2.7-7-4.6-10.3 2.2.4 4.5 1 6.7 2l4.8-10.5c-7.4-3.4-14.5-4-20.9-3.1-10-9.4-23-14.9-37.2-15.2-1.4 0-2.8.1-4.2.2 1.8-1.1 3.7-2.1 5.7-2.8l2.5-.9 1.1-3.3c7.7-2.8 23.9-6.9 30.9-1.1 5.1 4.2 4.2 13.8 2.6 21l11.3 2.5c3.3-15.2 1.1-26.1-6.5-32.4-8.2-6.8-20.3-6.3-30-4.3 12.2-14.3 32.7-20.7 51.5-14.5 10.9 3.6 19.4 11 24.3 20.7-.6 7.2-2.4 14.6-3.9 16 .4-.4 1.4-.5 1.8-.3l-6.2 9.8c4.4 2.7 8.1 1.6 10 .7 6.3-3.3 8.7-14.2 9.6-22 4.3-.2 8.5.1 12.5 1.4 8.2 2.7 14.5 8.3 18 15.8 1.7 3.8 2.6 7.8 2.6 11.9 0 3.7-.7 7.4-2.2 11.1-.7 1.7-1.7 3.2-2.7 4.7-5-4.7-10.9-8.3-17.8-10.6zm-274.2-2.9c-21.2-7.1-44.3-1.1-59.7 13.5-1.2-3.6-2.7-7-4.6-10.3 2.2.4 4.5 1 6.8 2l4.8-10.5c-7.4-3.4-14.5-4-20.9-3.1-10-9.4-23-14.9-37.1-15.1-1.4 0-2.8.1-4.1.2 1.8-1.1 3.6-2.1 5.6-2.8l2.5-1 1.1-3.3c7.7-2.8 24-6.9 30.9-1.1 5.1 4.2 4.2 13.8 2.6 21.1l11.3 2.5c3.3-15.2 1.1-26.1-6.6-32.4-8.1-6.8-20.3-6.3-30-4.3 12.2-14.3 32.7-20.7 51.4-14.5 10.9 3.6 19.4 11 24.3 20.8-.6 7.1-2.4 14.6-3.9 16 .4-.4 1.4-.5 1.8-.3l-6.2 9.8c4.4 2.7 8.2 1.6 10 .7 6.3-3.3 8.7-14.2 9.6-21.9 4.3-.2 8.5.1 12.4 1.4 8.2 2.7 14.5 8.3 18 15.8 1.8 3.8 2.6 7.8 2.6 11.8 0 3.7-.7 7.5-2.2 11.1-.7 1.7-1.7 3.2-2.7 4.7-5-4.8-10.9-8.5-17.7-10.8zm-135.7-19c-.2-.1-.4-.3-.5-.4.2 0 .3 0 .5-.1 0 0 .3-.2.6-.3-.2.3-.4.6-.6.8zm173.4 8.2c-1.4-.4-2.9-.9-4.2-1.4v-.4c3-1.1 6-2.6 8.5-4.9 3.8-3.5 5.8-8 5.9-13.3l-11.6-.2c0 2.1-.7 3.7-2.1 5-1.2 1.1-2.7 1.9-4.5 2.5-4.9-9.5-13.3-16.8-23.9-20.4-6-2-12.4-2.6-18.9-1.9-6-10.5-15-18.7-26.6-23.3 1.9-9.1 6.7-17.4 14.2-23.5l2.2-1.8-.1-4.4c8.2-6.6 26.6-18.3 38.9-13.8 7.5 2.7 12.4 11.6 14.7 26.4l11.5-1.7c-2.9-19.3-10.4-31.2-22.2-35.5-14-5.1-30.3 2.5-41 9.2 6.7-25.1 30.6-43.6 58.9-43.1 15.7.2 30.2 6.3 41.2 16.9 2.9 9.6 4.2 20.3 2.6 22.6l-2.5 10.6c5.9 1.5 9.4-1.1 11-2.8 6-6.4 3.4-21.1.9-30.5 5.5-2.2 11.4-3.4 17.4-3.2 11.9.2 23 4.9 31.1 13.3 7.6 7.8 11.6 18 11.4 28.7-.3 14.6-8.4 27.7-21.7 35l-.4.2c-5.2-4.5-12.6-9.3-21.9-10.5-11.7-1.6-23.5 2.7-34.9 12.7l7.6 8.7c8.8-7.7 17.4-11 25.6-10 10.5 1.4 18.1 9.5 21 13-1.7 10-9.7 17.7-19.8 19.8-4.3-.9-8.7-1.5-13.3-1.6-21.8-.3-41.6 8.9-55 23.6zm181-182.1c5.5-2.2 11.4-3.6 17.4-3.6 11.9.2 23 5 31 13.3 7.4 7.7 11.4 17.6 11.4 28v.8c-.2 10.4-4.5 20.1-11.7 27.4-.5-4.1-1.4-8.1-3.2-12-4.8-10.4-13.6-18.1-24.8-21.9-6-2-12.4-2.6-18.9-1.9-.3-.6-.8-1.1-1.1-1.6 4.4-6.9 2.2-19.7-.1-28.5zm145.6 69.7c-.3.4-.6.7-.8 1-18.5.4-32.3 14-33 14.8l8.2 8.2c.5-.5 7.6-7.4 17.6-10.2-.1.3-.3.7-.4 1.1-7.9 3.7-14.7 9.3-19.3 16.3-9.8-8.5-21.4-14.5-34.2-16.9-.2-4.1.5-8.3 2.1-12.3 3.4-8.3 10.3-15 19.2-18.4l2.5-.9 1.1-3.3c7.7-2.8 24-6.9 30.9-1.1 5.1 4.2 4.2 13.8 2.7 21.1l3.4.6zm52.7 75.6c12.2-14.3 32.7-20.8 51.5-14.5 2.2.7 4.2 1.7 6.2 2.8-9.6 4.6-18 11.5-23.9 20.5-1.1-1.7-2.3-3.3-3.8-4.6-8.1-6.7-20.3-6.2-30-4.2zM703.4 406.2c10.9 3.6 19.4 11 24.3 20.7-.6 7.1-2.4 14.6-3.9 16 .4-.4 1.4-.5 1.8-.3l-6.2 9.8c4.4 2.7 8.1 1.6 9.9.6 6.3-3.3 8.7-14.2 9.6-22 4.2-.2 8.5.1 12.5 1.4 8.2 2.7 14.5 8.4 18 15.8 1.7 3.8 2.6 7.8 2.6 11.8 0 3.7-.7 7.5-2.2 11.1-.7 1.7-1.7 3.2-2.7 4.7-5.1-4.6-11-8.2-17.8-10.5-29.1-9.8-62.1 5-73.4 33.1l-.6 1.8-1.1-.4c2.6-5.9 4.1-12.4 4.2-19.1v-1c0-3.8-.5-7.6-1.4-11.2 4.6-.6 9.6-.3 14.7 2.1l4.8-10.5c-8.4-3.8-16.5-4.1-23.6-2.7-2.4-4.9-5.4-9.5-9.3-13.6-4.3-4.4-9.3-7.9-14.6-10.6 8.4-2.3 19.9-4.1 25.5.6 5.1 4.2 4.2 13.8 2.6 21l11.3 2.5c3.3-15.2 1.1-26.1-6.5-32.4-8.2-6.8-20.3-6.3-30-4.3 12.2-14.2 32.7-20.6 51.5-14.4zm107.4 49.1c-.2.5-.6 1-.8 1.6-2 5-3 10.2-3 15.3-8.7-.2-17.1 1.3-24.9 3.9 0-.4-.1-2.6-.2-4.8 0-.1.1-.3.1-.4 6.2-4.1 11.4-9.2 15.4-15.1 4.5.6 9 .3 13.4-.5zM812 543c-.9 0-2.2 3.7-3.7 5.7-3.6-2.7-7.6-5.4-12.1-6.9-6-2-12.4-2.8-18.9-2.1-3.5-6.1-8.1-11.5-13.6-15.9 3.4 1.3 6.2.4 7.7-.4 6.3-3.3 8.7-14.2 9.6-22 4.3-.2 8.5.1 12.5 1.4 8.2 2.7 14.5 9.1 18 16.5 3.4 7.3 3.6 10.7.5 23.7zm-80.2-30.6c-.6-7.3-3-13.2-7.7-17.2-8.2-6.8-20.3-6.2-30-4.3 12.2-14.3 32.7-20.8 51.5-14.5 10.9 3.7 19.4 11 24.3 20.8-.6 7.2-2.4 14.6-3.9 16 .4-.3 1.4-.5 1.8-.3l-6 9.4c-4.1-3-8.5-5.5-13.5-7.2-5.4-1.8-11-2.5-16.5-2.7zm-56.9 35.8s-.3.9-.7 1.8c-3 1.4-5.7 3.1-8.3 5-.9-1.4-1.8-2.7-2.5-4.2-3.3-7.2-3.5-15.3-.4-22.9 3.4-8.3 10.4-15 19.2-18.4l2.5-1 1.1-3.3c7.7-2.8 24-6.9 30.9-1.1 2.4 2 3.4 5.3 3.7 8.9-19.8 3.2-37.8 16-45.5 35.2zm-41.1-120.1c-2.5-.5-5.1-.8-7.7-.9 3.4-2.3 7.5-4.8 11.8-6.8-1.6 2.5-3 5-4.1 7.7zM649.6 543c.4 4.3 1.4 8.6 3.2 12.7 1.2 2.7 2.8 5.2 4.5 7.5-.8 1-1.8 2-2.5 3.1-5.1-4.5-10.8-8.1-16.9-11 4.9-3.2 8.9-7.4 11.7-12.3zm172.2 52.4c2-5 3-10.2 3-15.4 0-4.6-1-9-2.6-13.4h.4l1.4-11.5c-2.3-.3-4.4-.1-6.6-.1 2.1-2.8 3.9-5.9 5.3-9.3 2.1-5 3.1-10.2 3.1-15.4 0-5.7-1.2-11.4-3.7-16.7-4.8-10.4-13.6-18.2-24.8-21.9-5.7-1.9-11.9-2.4-18.1-1.9 8.3-4 17.6-6.3 27.5-6.2 15.6.2 30.2 6.3 41.2 16.9 2.9 9.7 4.2 20.3 2.7 22.6l-2.5 10.6c5.9 1.5 9.4-1.2 11-2.8 6-6.4 3.4-21.1.9-30.5 5.5-2.2 11.5-3.4 17.5-3.2 11.9.2 23 4.9 31 13.3 6.3 6.5 10 14.7 11 23.4-1.7 2.7-3.2 5.4-4.4 8.4l-.6 1.8c-5.1 2.4-9.7 5.5-13.5 9.3-1.5-.1-3-.5-4.6-.5-21.7-.4-41.3 8.7-54.6 23.2-.2.2-.4.3-.7.5l.1.1c-8.2 9.1-13.9 20.4-16.2 32.8-1.7 0-3.4-.2-5.2 0-1-1.7-2.2-3.2-3.3-4.8 2-2.7 3.9-5.8 5.3-9.3zm.6 25.8c.4 0 .8-.1 1.2-.1 0 .6 0 1.3.1 2.1-.7.7-1.3 1.5-1.9 2.1.3-1.4.5-2.7.6-4.1zm92.8-64.8c1.9-1.2 4-2.2 6.1-3l2.5-1 1.1-3.3c7.7-2.8 23.9-6.9 30.9-1.1 2.2 1.9 3.2 4.9 3.6 8.2-7 3.7-13.1 8.8-17.4 15.1-7.7-6.9-16.9-11.9-26.8-14.9zM1009 518c-.4 0-1.2.5-1.7 1.6-.8.1-1.6-.5-2.4-.3-4.7-3.9-10.2-7.5-16.4-9.6-21.2-7.1-44.3-1.2-59.7 13.3-1.2-3.6-2.7-7.1-4.6-10.3 2.2.4 4.5 1 6.7 2l4.8-10.6c-7.4-3.4-14.5-4-20.9-3.1-10-9.4-23-14.9-37.2-15.2-1.4 0-2.8.1-4.1.2 1.8-1.1 3.6-2.1 5.6-2.8l2.5-1 1.1-3.3c7.7-2.8 24-6.9 30.9-1.1 5 4.2 4.2 13.8 2.6 21l11.3 2.5c3.3-15.2 1.1-26.1-6.6-32.4-8.2-6.8-20.3-6.3-30-4.3 12.2-14.3 32.7-20.8 51.5-14.5 10.9 3.7 19.4 11 24.3 20.8-.6 7.1-2.4 14.6-3.9 16 .4-.3 1.4-.5 1.8-.3l-6.2 9.8c4.5 2.8 8.2 1.6 10 .7 6.4-3.3 8.7-14.2 9.6-21.9 4.3-.2 8.5.1 12.5 1.4 8.2 2.7 14.5 9.8 18 17.2 3.4 7.1 3.5 11.2.5 24.2zm-37.7-60.5c-6.3-8.3-14.6-14.9-25-18.4-2.5-.8-5.1-1.3-7.7-1.8.1-.9.3-1.8.4-2.7 4.3-.2 8.5.1 12.4 1.4 8.2 2.7 14.6 8.3 18 15.8.8 1.9 1.4 3.8 1.9 5.7zm-44.4-21.2c-13.6.2-26.7 5-37.1 13.5.3-9.5-2.3-16.6-7.9-21.3-8.2-6.8-20.3-6.3-30-4.3 12.2-14.3 32.7-20.8 51.5-14.5 10.9 3.6 19.4 11 24.3 20.7-.2 2-.5 4-.8 5.9zm-156.6-59l1-2.8c6.8-2.4 20.3-5.8 26.1-1 4.1 3.5 3.4 11.5 2.1 17.7l4.4 1c-3.7-.1-7.2.4-10.4 1.3-.6-.7-1.1-1.5-1.8-2.2-6.2-6.4-13.8-10.9-22.2-13.7l.8-.3z"/><path fill="#E8A26C" d="M350.5 639.8l1.4-11.5c-29.1-3.5-47.9 19.6-53.8 32.2l10.5 4.9c.5-1.2 13.9-28.9 41.9-25.6z"/><path fill="#FDE8DA" d="M520 664.2c-.4-2.7-.8-5.5-.8-8.3v-1c.3-14 6.8-26.9 17.2-36.6v-.2c0-1.2-.1-2.6-.1-2.6 0-.7.1-1.3.1-1.9-5-9.4-13.3-16.6-23.9-20.2-18.8-6.3-39.3.2-51.5 14.5 9.7-2 21.9-2.5 30 4.3 7.7 6.3 9.9 17.3 6.6 32.4l-11.3-2.5c1.6-7.2 2.4-16.8-2.6-21-7-5.8-23.2-1.7-30.9 1.1l-1.1 3.3-2.5 1c-8.8 3.4-15.8 10.1-19.2 18.4-3 7.6-2.9 15.7.4 22.9 1.8 4 4.6 7.4 7.9 10.2l76.7-1.7-3.9-9.2c3.1-1.3 6-2.3 8.9-2.9zm-19.1-6.3c-18.8-8.5-36 8.3-36.7 9l-8.2-8.2c.9-1 23.5-23.3 49.7-11.4l-4.8 10.6zM520.3 676.1l3.1-.1-.3-.6c-.9.2-1.8.5-2.8.7z"/><path fill="#E8A26C" d="M456 658.7l8.2 8.2c.7-.7 17.9-17.5 36.7-9l4.8-10.5c-26.3-12-48.8 10.3-49.7 11.3z"/><path fill="#FDE8DA" d="M813.2 580c0-4.1-.9-8.1-2.6-11.9-3.4-7.4-9.8-13-18-15.8-3.9-1.3-8.2-1.6-12.5-1.4-.9 7.7-3.3 18.7-9.6 22-1.8.9-5.5 2.1-10-.7l6.2-9.8c-.5-.2-1.4 0-1.8.3 1.6-1.4 3.3-8.8 3.9-16-4.9-9.7-13.4-17.1-24.3-20.7-18.8-6.3-39.3.2-51.5 14.5 9.7-2 21.9-2.5 30 4.3 7.7 6.3 9.8 17.3 6.5 32.4l-11.3-2.5c1.6-7.3 2.4-16.8-2.6-21-7-5.8-23.2-1.7-30.9 1.1l-1.1 3.3-2.5.9c-2 .8-3.9 1.8-5.7 2.8 1.4-.1 2.8-.2 4.2-.2 14.1.3 27.1 5.7 37.2 15.2 6.4-.8 13.5-.3 20.9 3.1l-4.8 10.5c-2.3-1-4.5-1.7-6.7-2 1.9 3.3 3.4 6.7 4.6 10.3 15.4-14.5 38.5-20.6 59.7-13.5 6.9 2.3 12.8 6 17.9 10.5.9-1.5 2-3 2.7-4.7 1.4-3.5 2.1-7.2 2.1-11z"/><path fill="#FDE8DA" d="M690.5 658c-3.7-2.9-8.5-5.7-14.2-6.4-8.2-1.1-16.9 2.3-25.6 10l-7.6-8.7c11.4-10 23.2-14.3 34.9-12.7 5.7.8 10.7 2.9 14.9 5.5.2-.7.4-1.5.7-2.2 4.1-10.3 12.6-18.3 23-23.1l.6-1.8c1.2-3 2.8-5.7 4.4-8.4-1-8.7-4.7-16.9-11-23.5-8.1-8.4-19.1-13.1-31-13.3-6-.1-11.9 1-17.4 3.2 2.5 9.4 5.1 24.1-.9 30.5-1.6 1.7-5.1 4.3-11 2.8l2.5-10.6c1.5-2.3.2-12.9-2.6-22.6-11-10.6-25.5-16.7-41.2-17-28.2-.5-52.2 18-58.9 43.1 10.7-6.8 27-14.3 41-9.2 11.8 4.3 19.3 16.3 22.2 35.5l-11.4 1.7c-2.3-14.8-7.2-23.6-14.7-26.4-12.3-4.5-30.6 7.2-38.9 13.8l.1 4.4-2.2 1.8c-9.4 7.7-14.9 18.9-15.2 30.6-.1 7.3 1.8 14.4 5.5 20.7l156.7-3.4c-1.6-4.4-2.6-9-2.6-13.6-.2-.2-.1-.5-.1-.7zm-65.8-15.3c-28-3.3-41.4 24.5-41.9 25.6l-10.5-4.9c5.9-12.7 24.7-35.7 53.8-32.2l-1.4 11.5z"/><path fill="#E8A26C" d="M572.3 663.4l10.5 4.9c.6-1.2 13.9-29 41.9-25.6l1.4-11.5c-29.1-3.5-47.9 19.5-53.8 32.2z"/><path fill="#FDE8DA" d="M804.8 666.5c-.2-1.9-2.8-3.7-2.8-5.6v-1c0-5.5 3.7-10.8 5.6-15.8-1.9.3-3.2.2-5.9-1.5l6.7-9.8c-.5-.2-1.2 0-1.5.3 1.6-1.4 3.5-8.9 4.1-16-4.9-9.7-13.4-17.1-24.3-20.8-18.8-6.3-39.3.2-51.5 14.5 9.7-2 21.9-2.5 30.1 4.3 7.6 6.4 9.9 17.3 6.6 32.4l-11.3-2.5c1.6-7.3 2.4-16.8-2.6-21-7-5.8-23.2-1.7-31 1.1l-1.1 3.3-2.5 1c-8.8 3.4-15.8 10.1-19.2 18.4-3.1 7.6-2.9 15.7.4 22.9.2.5.6 1 .9 1.5l80.1-1.7-1.3-.5c7.9-3.4 13.9-4.4 20.5-3.5zm-29.6-5.7c-18.8-8.6-36 8.3-36.7 9l-8.2-8.2c1-.9 23.5-23.3 49.7-11.3l-4.8 10.5zM823.7 621.2c-.4 0-.8 0-1.2.1-.2 1.3-.4 2.7-.6 4.2.7-.7 1.2-1.5 1.9-2.1-.1-.9-.1-1.7-.1-2.2z"/><path fill="#E8A26C" d="M730.2 661.6l8.2 8.2c.7-.7 17.9-17.6 36.7-9l4.8-10.5c-26.2-12-48.7 10.4-49.7 11.3z"/><path fill="#FDE8DA" d="M1031.9 531c-18.8-6.3-39.3.2-51.5 14.5 9.7-2 21.8-2.5 30 4.3 7.6 6.4 9.8 17.3 6.6 32.4l-11.3-2.5c1.6-7.3 2.4-16.8-2.7-21.1-7-5.8-23.2-1.7-30.9 1.1L971 563l-2.5 1c-2 .8-3.8 1.7-5.6 2.8 1.4-.1 2.8-.2 4.1-.2 14.1.3 27.1 5.7 37.1 15.2 6.4-.8 13.5-.3 20.9 3.1l-4.8 10.6c-2.3-1-4.5-1.7-6.7-2 1.9 3.2 3.4 6.7 4.6 10.2 15.4-14.5 38.5-20.6 59.7-13.5 6.8 2.3 12.8 5.9 17.8 10.5 1-1.5 2-3 2.7-4.7 1.5-3.6 2.2-7.4 2.2-11.1 0-4.1-.9-8.1-2.6-11.9-3.4-7.4-9.8-13-17.9-15.8-4-1.3-8.2-1.6-12.5-1.4-.9 7.7-3.3 18.6-9.6 21.9-1.8.9-5.5 2.1-9.9-.6l6.2-9.8c-.5-.2-1.5-.1-1.9.3 1.6-1.4 3.4-8.8 4-16-5.1-9.5-13.6-16.9-24.4-20.6zM977.7 663c-3.7-2.9-8.5-5.7-14.2-6.4-8.2-1.1-16.9 2.3-25.6 10l-7.6-8.7c11.4-10 23.2-14.3 34.9-12.7 5.7.8 10.7 2.9 14.9 5.5.2-.7.4-1.5.6-2.2 4.1-10.3 12.6-18.3 23-23.1.3-.9.6-1.8.7-1.8 1.2-3 2.8-5.7 4.4-8.4-1-8.7-4.7-16.9-11-23.4-8.1-8.4-19.1-13.1-31.1-13.3-6-.1-11.9 1-17.4 3.2 2.5 9.4 5.1 24-.9 30.5-1.5 1.7-5.1 4.3-11 2.8l2.5-10.7c1.5-2.3.2-13-2.6-22.6-11-10.6-25.5-16.7-41.2-16.9-28.2-.5-52.2 18-58.9 43.1 10.7-6.8 27-14.3 41-9.2 11.8 4.3 19.3 16.3 22.2 35.5l-11.5 1.8c-2.3-14.8-7.2-23.7-14.7-26.4-12.3-4.5-30.6 7.2-38.9 13.8l.1 4.4-2.2 1.8c-9.4 7.7-15 18.9-15.2 30.6-.1 3.3.4 6.4 1.1 9.5l41.2-.9-.8-.4c5.9-12.7 24.7-35.7 53.8-32.2l-1.4 11.5c-21.2-2.5-33.9 12.7-39.2 20.9l105.1-2.3c-.1-.8-.3-1.6-.3-2.4.2-.4.2-.7.2-.9z"/><path fill="#E8A26C" d="M912 647.6l1.4-11.5c-29.1-3.5-47.9 19.6-53.8 32.2l.8.4 12.4-.3c5.2-8 18-23.3 39.2-20.8z"/><path fill="#FDE8DA" d="M1140.1 643.4c-3.4-7.4-9.8-13-18-15.8-3.9-1.3-8.2-1.6-12.4-1.4-.9 7.7-3.3 18.6-9.6 21.9-1.8.9-5.5 2.1-10-.6l6.2-9.8c-.5-.2-1.4-.1-1.8.3 1.6-1.4 3.3-8.9 3.9-16-5-9.7-13.5-17.1-24.3-20.8-18.8-6.3-39.3.2-51.5 14.5 9.7-2 21.9-2.5 30 4.3 7.6 6.3 9.8 17.3 6.6 32.4l-11.3-2.5c1.6-7.3 2.4-16.8-2.6-21-7-5.8-23.2-1.7-31 1.1l-1.1 3.3-2.5 1c-8.8 3.4-15.8 10.1-19.2 18.4-1.7 4.3-2.3 8.8-2 13.3l29.3-.6c5.3-4.8 25.4-20.6 48.4-10.1l-4.2 9.1 78.5-1.7c.7-2.5 1.1-5 1.1-7.4.1-4.1-.8-8.2-2.5-11.9z"/><path fill="#FDE8DA" d="M1042.2 664.8l16-.3c-5.7-1.6-11.2-1.2-16 .3z"/><path fill="#E8A26C" d="M1018.8 665.3l23.4-.5c4.8-1.5 10.2-1.9 16-.3l4.8-.1 4.2-9.1c-23-10.6-43.1 5.3-48.4 10z"/><path fill="#E53D25" d="M271.8 667.7l-12.7-.9-12.3-.9-5.7-.4-7-.5 1.9 16.1 88.4 744.5 25.8 216.9c2.2.5 4.4 1 6.6 1.8l-85-976.6zM699.2 1815c3-4.8 7.8-8.1 13.2-10l.1-.2c8.5-13.9 27.2-19.1 41.6-11.8 5.6 2.8 9.4 7.4 12 12.8l3.6-1135.1 43.6-1-3.3 1090c.2-.4.4-.7.4-.7 15.8-25.7 50.5-35.5 77.3-21.8 1.6.8 2.9 1.8 4.3 2.8l23.1-1072.4 43.6-.9-23.8 1106.2c3.5 2.5 6.6 5.4 9.1 8.7.7-4 1.8-7.8 4.1-11.5 4.3-7 11.4-11.8 19.5-14.4.2-.4.5-.9.5-.9 2.6-4.3 6-7.9 9.8-10.9l60.9-1079 43.8-1-60.6 1072.6c1.5.6 3.1 1 4.6 1.8 8.8 4.5 14.8 12 18.3 20.8 3.2.3 6.3.9 9.3 1.9l66.9-560.4c-14-12.7-22.9-30.9-22.9-51.2 0-25.4 14.2-47.4 35.6-59.5.4-20.8 3.1-41.1 7.7-60.6l43.9-367.5-31.8.7-12 .3-78.5 1.7-4.8.1-16 .3-23.4.5-29.3.6-11.5.3-105.1 2.3-12.4.3-41.2.9-33.6.7-80.1 1.7-12.5.3-156.7 3.4-12.9.3-3.1.1-5.3.1-76.7 1.7-15.3.3 53.4 1058.3c6.9 4 13.6 10.2 13.6 18.1 0 3.2 2.9 6.4 2.9 9.6 0 6.4-1.7 12.4-5.5 17.7.4.9 1.2 2 1.2 2 .5 1.8.9 3.7.9 5.6 0 4-1 7.8-3.1 11.3-1.3 2.2-3 4-5 5.6l.7 13.4-8.8-9.2 35.3 37.2 46.2-4.3-28-1165.9 43.6-.9 27.9 1162.7-21.4 2 71.9-6.7 9.2-1161.6 43.6-.9-9.2 1158.4-37.9 3.5 41.7-3.9c-.2-1.1-.5-2.2-.5-3.3-.2-4.2 1-8.3 3.3-12.1zM388.9 1721.5l16.4 17.4zM379.1 675.2l-68.4-4.8 5.1.4 84.8 973.8c5.7 4 10.2 9.6 12.5 16.5 1 3.2 1.6 6.5 1.6 9.7 0 6.4-2.5 12.4-6.3 17.6.4.9.8 2 .8 2 .5 1.8.7 3.7.7 5.6 0 3.9-1.1 7.8-3.2 11.3-.2.3-.4.5-.6.8l2.6 29.6c.9-.3 1.7-.8 2.6-1 7.6-2.1 15.3-1.5 22.8.7l-55-1062.2z"/><path fill="#FDF5EF" d="M412.6 677.5l-33.5-2.3 55 1062.1c2 .6 4.1 1.3 6 2.1 3.4-2.7 6.9-5.3 11.1-6.5 9.2-2.5 18.7-.9 26.5 3.6L423 678.3l-10.4-.8z"/><path fill="#FFFFFE" d="M392.1 1717.4s-.7.1-1.2.1c-.5 1.4-1.4 2.7-2.1 4l16.5 17.4c1.1-.5 2.2-.9 3.3-1.3L406 1708c-3.1 4.8-8 8.1-13.9 9.4z"/><path fill="#FDF5EF" d="M570.3 676.7l-45 .9L552 1843.4v.1l23.5-2.1 22.1-2zM701.6 672.2l-44 1-9.6 1161.5 6.1-.5 38.1-3.5z"/><path fill="#FFFFFE" d="M482 1819.8l-.7-13.4c-2.3 1.9-5.1 3.3-8.1 4.1l8.8 9.3z"/><path fill="#FDF5EF" d="M315.8 670.8l-7.5-.4-41.4-2.7 87.4 976.8c1.2.4 3.6.8 4.8 1.3 3.4-2.7 7.5-5.3 11.8-6.5 10.2-2.8 21.1-.5 29.3 5.3l-84.4-973.8zM813.4 669.8l-43.6 1-3.6 1135.1c.2.4.5.9.7 1.3 3.5.8 8 1.8 8 1.8 1.2.6 2.2 1.3 3.2 2.1-.8-3.2-1.3-6.4-1.3-9.6 0-7.4 2.1-14.7 6.2-21.4 5.8-9.4 15.4-16 26.3-19.3.2-.4.4-.7.6-1.1l3.5-1089.9zM958.7 666.6l-43.6.9L891.9 1740c9.5 6.2 16.4 15.1 20.2 25.6 6.3.3 12.5 1.4 17.9 4.2 1.8.9 3.3 2 4.9 3.1l23.8-1106.3zM1082.5 663.9l-43.8 1-60.9 1079c12.2-9.8 29.2-12.9 44.1-7.4l60.6-1072.6z"/><path fill="#FDE8DA" d="M381.9 1710.9l1.4-4.1 6.4-.8c3.1-.6 5.6-2.4 7.1-4.9 1.1-1.8 1.4-3.9 1.3-5.9-2.4-1.4-6.7-3.5-11.1-2.6-3.6.7-6.7 3.3-9.4 7.9l-10-5.9c4.5-7.6 10.3-12 17.3-13.3 5.1-.9 9.9.1 13.8 1.5 4.1-5.1 5.5-11.7 3.4-18-3.6-11-15.9-17.4-27.4-14.2-2 .6-3.9 1.4-5.6 2.5 3.5 5.7 6.2 12.2 3.9 16.8-1.4 2.8-4.1 4.5-7.6 4.7l-.5-11.6c-1.2.1-2.7 1.7-2.7 3-.1-1.5-2.3-5.7-4.9-9.4-7.1-3.4-15.1-4.3-22.7-2.2-7.9 2.2-14.3 7.2-18 14.1-1.5 2.8-2.4 5.9-2.8 9 4.5-4.1 10.2-7.6 16.9-7.5 8 .2 14.9 5.6 20.6 16 1.6-.6 3.3-1.1 5.2-1.4l1.9 11.4c-13.3 2.2-15.1 17-15.1 17.6l-11.5-1.2c.5-5.4 3.3-14.1 9.9-20.4l-.2.1c-2.5-4.7-6.4-10.4-11-10.5-5.5-.1-11.5 6.7-14.5 11l.9 2.3-1.6 2.5c-3.1 4.8-3.8 10.7-2 16.2 2.5 7.6 9.2 12.9 16.8 14.4 2.8-1.6 5.9-3.4 5.9-3.4 4.1-1.1 8.2-1 12.1-.1l1.5-.7.4.2c2.2-.8 4.4-2 5-3.1v-.8l11-3.6-.9 10.1c.4-.1.8 0 1.2-.1 7.8-2 14-8 15.6-15.6z"/><path fill="#E8A26C" d="M390.9 1717.5c.5-.1 1.2-.1 1.2-.1 5.8-1.3 10.7-4.6 14-9.4.2-.3.4-.5.6-.8 2.1-3.5 3.2-7.4 3.2-11.3 0-1.8-.3-3.7-.7-5.6 0 0-.4-1.1-.8-2 3.8-5.3 6.3-11.3 6.3-17.6 0-3.2-.5-6.5-1.6-9.7-2.3-6.9-6.8-12.5-12.5-16.5-8.2-5.7-18.8-8.1-29-5.3-4.2 1.2-7.8 3.8-11.2 6.5-1.2-.5-2.4-.8-3.6-1.3-2.2-.8-4.4-1.4-6.6-1.8-6.1-1.2-12.4-1.4-18.6.3-11 3-20 10-25.2 19.8-3 5.7-4.6 11.9-4.6 18.2 0 4.1.6 8.3 2 12.4 0 0 .2.6.4 1.1-1.9 4.1-3.7 8.2-3.7 12.7 0 3.3.5 6.6 1.6 9.7 1.3 3.8 3.3 7.3 5.8 10.3-7.5 2.3-13.6 7.1-17.2 13.9-2.2 4.1-3.3 8.6-3.3 13.1 0 3 .5 6 1.5 9 0 0 .1.3.1.4-1.1 2.7-2.5 5.4-2.5 8.4 0 2.4.4 4.8 1.2 7.1 4 12.2 17.6 19.3 30.2 15.9 0 0 2.2-.9 4.1-1.8 4.2 1.3 8.5 1.9 12.7 1 7.4-1.5 12.7-7 15.7-13.6 4.9-1.1 8.8-3.8 11.1-7.8 1.6-2.6 2.4-5.6 2.4-8.5 0-1.4-.2-2.8-.6-4.3 0 0-.2-.5-.3-.7 2.4-3.6 4-7.7 4-12 0-2.4-.4-4.8-1.2-7.1-.3-.8-.7-1.5-1-2.2 1.2-.1 2.3-.2 3.5-.4 9.2-2 16.1-8.2 20.3-16 1-1.3 1.8-2.6 2.3-4zm-39.2 49.3c-.8 1.3-2.1 2.2-3.6 2.5l-4.1.5-2.5 4.2c-.8 4-3.7 7-7.6 8.3l.4-4.9-11 3.6c-.1-.3 0-.8.2-1l-2 .9h-.1l-3.1 1.4-3.4 1.4c-6.8 1.9-14-1.9-16.2-8.3-1-3.2-.6-6.5 1.2-9.4l1.6-2.5-.6-1.4c2.2-2.9 5.4-5.8 7.6-5.8 1.5.1 3.4 1.9 5.2 5-4 4.5-5.8 10.1-6.1 13.7l11.5 1.2c.1-.9 1.2-9 8.6-10.2l-1.9-11.4c-.9.1-1.6.4-2.4.7-4-6.7-8.9-10.3-14.7-10.5-2.9-.1-5.5.8-7.9 2.1.1-.1 0-.2.1-.3 2.3-4.2 6.2-7.3 11-8.5 4.4-1.2 9.1-.8 13.4 1.1l2.8 5.1.9-2.6 2.7-1.5.5 11.6c3.1-.1 5.5-1.7 6.7-4.2 1.4-2.9.8-6.6-1.6-11.1l1.5-.9c6.8-1.9 14.1 1.9 16.2 8.3 1.1 3.2.5 6.6-1.3 9.4-2.6-.8-5.5-1.4-8.8-.7-3.6.7-8.9 2.9-13 9.9l10 5.9c1.5-2.6 3.2-4 5-4.4 1.8-.3 3.8.4 5.3 1.1.1.6-.2 1.3-.5 1.7zm13.3-40.5l.9-10.1-11 3.6v.8c-.6 1.1-2.9 2.3-5 3.1l-.4-.2-1.5.7c-3.9-.9-8-1-12.1.1 0 0-3 1.7-5.9 3.4-7.7-1.6-14.3-6.9-16.8-14.4-1.8-5.5-1.1-11.4 2-16.2l1.6-2.5-.9-2.3c3.1-4.3 9.1-11.1 14.5-11 4.6.1 8.5 5.8 11 10.5l.2-.1c-6.6 6.4-9.4 15.1-9.9 20.4l11.5 1.2c.1-.6 1.8-15.4 15.1-17.6l-1.9-11.4c-1.9.3-3.6.9-5.2 1.4-5.7-10.3-12.6-15.8-20.6-16-6.6-.1-12.4 3.4-16.9 7.5.4-3.1 1.3-6.1 2.8-9 3.7-6.9 10.1-11.9 18-14.1 7.6-2.1 15.5-1.2 22.7 2.2 2.6 3.7 4.8 7.9 4.9 9.4-.1-1.2 1.4-2.8 2.7-3l.5 11.6c3.5-.1 6.3-1.9 7.6-4.7 2.2-4.6-.4-11.1-3.9-16.8 1.7-1.1 3.6-2 5.6-2.5 11.5-3.2 23.8 3.2 27.4 14.2 2.1 6.3.7 12.9-3.4 18-3.9-1.5-8.6-2.5-13.8-1.5-7 1.3-12.9 5.8-17.3 13.3l10 5.9c2.7-4.5 5.8-7.2 9.4-7.9 4.4-.8 8.8 1.2 11.1 2.6.1 2.1-.2 4.1-1.3 5.9-1.6 2.5-4.1 4.3-7.1 4.9l-6.4.8-1.4 4.1c-1.6 7.6-7.8 13.6-15.7 15.3-.3.4-.7.3-1.1.4z"/><path fill="#FDE8DA" d="M469.4 1799.6c3.1-.7 5.6-2.4 7.1-4.9 1-1.6 1.5-3.4 1.5-5.2 0-.2-.1-.4-.1-.7-2.4-1.4-6.8-3.6-11.3-2.7-3.6.7-6.7 3.3-9.4 7.8l-10-5.9c4.5-7.6 10.3-12 17.4-13.3 5.1-.9 9.8.1 13.7 1.5 2.8-3.4 4.5-7.5 4.5-11.8 0-2-.3-4.1-1-6.1-3.6-11-15.9-17.3-27.5-14.1-2 .5-3.8 1.4-5.6 2.5 3.5 5.7 6.2 12.2 3.9 16.8-1.4 2.8-4.1 4.5-7.6 4.7l-.5-11.6c-1.2.1-2.7 1.7-2.7 3 0-1.5-2.3-5.7-4.8-9.4-7.1-3.5-15.1-4.3-22.7-2.2-7.9 2.2-14.3 7.2-18 14.1-1.5 2.8-2.4 5.9-2.8 9 4.5-4.1 10.2-7.6 16.8-7.5 8 .2 14.9 5.6 20.6 16 1.6-.6 3.3-1.1 5.2-1.4l1.9 11.4c-13.3 2.2-15 17-15.1 17.6l-11.5-1.1c.5-5.4 3.3-14.1 9.9-20.4l-.2.1c-2.5-4.7-6.4-10.4-11.1-10.5-5.5-.2-11.4 6.6-14.5 10.9l.9 2.3-1.6 2.5c-3.1 4.9-3.9 10.7-2 16.3 3.6 10.9 15.9 17.3 27.4 14.2l5.7-2.5 3.2-1.4.4.2c2.2-.8 4.4-2 5-3.1v-.8l11-3.6-.9 10.1c.4-.1.8 0 1.2-.1 8-1.7 14.1-7.7 15.7-15.3l1.4-4.1 6.5-1.3z"/><path fill="#E8A26C" d="M481.4 1806.4c1.9-1.6 3.7-3.4 5-5.6 2.1-3.5 3.2-7.3 3.2-11.3 0-1.8-.2-3.7-.7-5.6l-.8-2c3.8-5.3 4.8-11.3 4.8-17.7 0-3.2-2.9-6.5-2.9-9.6 0-7.9-6.8-14.1-13.6-18.1-7.8-4.5-16.6-6.2-25.8-3.6-4.2 1.1-7.4 3.8-10.8 6.5-2-.8-3.8-1.5-5.9-2.1-7.4-2.2-15.1-2.7-22.7-.7-.9.3-1.7.7-2.6 1-1.1.4-2.2.8-3.3 1.3-8.2 3.6-15 9.6-19.2 17.5-3 5.7-4.6 11.9-4.6 18.2 0 4.2.7 8.4 2 12.5 0 0 .3.6.4 1.1-1.9 4-3.7 8.2-3.7 12.7 0 3.2.5 6.5 1.6 9.7 5.6 16.7 24.2 26.5 41.5 21.8 0 0 3.8-1.7 6.5-2.8 6 2.1 12.2 3.1 18.5 1.7 10.8-2.3 18.5-10.3 22.3-20.1.5-.1 1.2-.1 1.2-.1.5-.1 1-.3 1.5-.5 3-.9 5.7-2.3 8.1-4.2zm-19.8-1.9c-1.6 7.6-7.8 13.6-15.7 15.3-.4.1-.8 0-1.2.1l.9-10.1-11 3.6v.8c-.6 1.1-2.9 2.3-5 3.1l-.4-.2-3.2 1.4-5.7 2.5c-11.5 3.1-23.8-3.3-27.4-14.2-1.8-5.6-1.1-11.4 2-16.3l1.6-2.5-.9-2.3c3.1-4.3 9-11.1 14.5-10.9 4.6.1 8.5 5.8 11.1 10.5l.2-.1c-6.6 6.4-9.4 15.1-9.9 20.4l11.5 1.1c.1-.6 1.8-15.4 15.1-17.6l-1.9-11.4c-1.9.3-3.6.8-5.2 1.4-5.7-10.4-12.6-15.8-20.6-16-6.6-.1-12.4 3.4-16.8 7.5.4-3.1 1.3-6.1 2.8-9 3.7-6.9 10.1-11.9 18-14.1 7.6-2.1 15.6-1.2 22.7 2.2 2.5 3.7 4.8 7.9 4.8 9.4 0-1.2 1.4-2.9 2.7-3l.5 11.6c3.5-.2 6.2-1.9 7.6-4.7 2.2-4.6-.4-11.1-3.9-16.8 1.7-1.1 3.6-2 5.6-2.5 11.5-3.2 23.8 3.2 27.5 14.1.7 2.1 1 4.1 1 6.1 0 4.3-1.7 8.4-4.5 11.8-3.8-1.4-8.6-2.5-13.7-1.5-7 1.3-12.9 5.8-17.4 13.3l10 5.9c2.7-4.5 5.8-7.1 9.4-7.8 4.5-.9 8.9 1.3 11.3 2.7 0 .2.1.4.1.7 0 1.9-.5 3.6-1.5 5.2-1.6 2.5-4.1 4.3-7.1 4.9l-6.4.8-1.5 4.6z"/><path fill="#FDE8DA" d="M342 1768.3l-10-5.9c4.1-7 9.3-9.2 13-9.9 3.3-.6 6.2-.1 8.8.7 1.8-2.8 2.4-6.1 1.3-9.4-2.1-6.4-9.4-10.2-16.2-8.3l-1.5.9c2.4 4.5 3 8.3 1.6 11.1-1.2 2.6-3.7 4.1-6.7 4.2l-.5-11.6-2.7 1.5-.9 2.6-2.8-5.1c-4.2-1.9-8.9-2.3-13.4-1.1-4.9 1.3-8.7 4.3-11 8.5-.1.1 0 .2-.1.3 2.4-1.3 5-2.2 7.9-2.1 5.8.1 10.7 3.8 14.7 10.5.8-.2 1.5-.5 2.4-.7l1.9 11.4c-7.4 1.2-8.5 9.3-8.6 10.2l-11.5-1.2c.3-3.6 2.1-9.2 6.1-13.7-1.8-3-3.7-4.9-5.2-5-2.2-.1-5.4 2.9-7.6 5.8l.6 1.4-1.6 2.5c-1.8 2.8-2.2 6.2-1.2 9.4 2.1 6.5 9.4 10.2 16.2 8.3l3.4-1.4 3.1-1.4h.1l2-.9c-.2.3-.3.8-.2 1l11-3.6-.4 4.9c3.9-1.3 6.8-4.3 7.6-8.3l2.5-4.2 4.1-.5c1.6-.3 2.9-1.2 3.6-2.5.3-.4.5-1.1.6-1.8-1.5-.8-3.5-1.5-5.3-1.1-1.9.5-3.6 1.9-5.1 4.5zM769.6 1819.3l-2.6-.6c-1.5 4.1-3.9 7.9-7.4 9-2.6.9-5.3.3-7.5-1.6l7.6-8.8c-.2-.2-.5-.1-.8-.2l-.5-.1v-.1c-1.4-.4-2.9-.2-3.5.5l1.9-5.1c-1.4-3.8-4-7-7.9-8.9-4.6-2.4-9.9-2.7-14.7-1.3 2.4.8 4.7 2.1 6.5 4.1 3.5 4 4 9.6 1.8 16.4.5.3 1.1.4 1.6.8l-6.3 9.7c-6.5-4.2-14.8 1.7-14.9 1.7l-6.9-9.3c.4-.3 6.9-4.9 15.2-5.4 1.4-3.9 1.2-5.8.8-6.3-1.3-1.4-6.2-1.5-10.7-.8l-.7 1.4-2.6.6c-3.8.9-7 3.1-8.9 6.1-1.7 2.7-2.2 5.8-1.4 8.7.8 2.9 2.8 5.2 5.6 6.7l3.5 1.2 3.5 1.1.1.3c.9.3 1.8.5 2.2.4l-.3.2 9.9 6.1c-.7 1.2-1.7 2.1-2.6 2.9 3.5.8 7.4.3 10.6-1.7l4.6-.8 3 2.1c2.2 1.3 5.2 1 7.3-.6-.4-1.1-1-2.4-2.2-3.2-2-1.4-5.3-1-7.6-.4l-2.8-11.3c7-1.8 12.9-1 17.4 2.3 2.2 1.7 3.6 3.7 4.7 5.7 3.8-.8 7.2-2.9 9.2-6.1 1.2-1.9 1.7-3.9 1.7-6 0-.9-.1-1.9-.4-2.8-.7-2.8-2.7-5.2-5.5-6.6zM939.3 1798.4c-2.1-7.5-7.3-14.2-14.6-17.9-3.6-1.8-7.7-3-11.9-3.3-2.2 7.5-6.4 17.8-13.2 20-3.3 1.1-6.7.3-9.6-2.2l7.6-8.8c-.4-.3-1.4-.3-1.9-.1 1.8-1.1 4.8-8.1 6.6-15.1-3.1-10.1-10.1-18.4-20-23.5-17.1-8.7-38.1-5.4-52.5 6.7 9.8-.5 21.5.8 28.2 8.6 6.4 7.4 6.7 18.4.9 32.7 2.4.9 4.8 2 7.2 3.6l-6.3 9.7c-16.9-11-37.1 3.5-37.3 3.6l-6.9-9.3c1-.7 21.8-15.6 43.1-7.6l-10.6-4.3c2.8-6.9 5.2-16 1.1-20.7-5.8-6.6-22.4-4.8-30.3-3.2l-1.7 3-2.5.6c-9.3 2.1-17.3 7.6-22 15.4-4.4 7-5.6 15.1-3.5 22.7 2.1 7.5 7.3 13.7 14.6 17.4l8.9 3 3.6 1.1.2.5c3.5 1.6 11 4.2 13.8-.4l9.9 6.1c-3.8 6.1-9.5 8-15.3 8 1.5 1.3 3.1 2.6 4.8 3.6 10.4 6.1 24.2 5.8 35.1-.7l3.7-1.6 5.8 4.2c8 4.7 18.7 2.6 24.9-4.4-.6-3.3-2.4-9.7-7.6-13.5-4.8-3.5-11.8-4.1-20.7-1.8l-2.9-11.2c12.5-3.2 22.8-1.9 30.6 3.8 5.1 3.8 8.1 9.8 9.9 14.3 11.2-.8 21.7-2.1 27.3-15.1 4.4-12.3 5.7-16.3 3.5-23.9zM1062.2 1784.2c-1.4-5.1-4.9-9.3-9.9-11.8-2.1-1.1-4.4-1.7-6.9-2-1.9 5.9-5.1 12.8-10.3 14.5-2.9.9-6 .2-8.5-1.9l7.6-8.8c-.8-.7-2.5-.7-3.3-.1 1.1-.9 3-5.4 4.2-9.7-2.2-6.8-7-12.4-13.7-15.8-10.6-5.4-23.2-4.2-32.9 2 6.3.3 12.9 1.9 17.1 6.7 4.9 5.6 5.3 13.8 1.4 24.2 1.4.6 2.9 1.1 4.3 2.1l-6.3 9.7c-11.4-7.5-25.4 2.5-25.5 2.6l-6.9-9.3c.6-.5 11.5-8.2 24.5-7.6l-1.2-.5c1.5-3.8 3.7-10.5 1.1-13.5-3.1-3.6-12.9-3.3-20-2l-1.2 2.2-2.5.5c-6.4 1.4-11.9 5.3-15.1 10.5-2.9 4.8-3.8 10.2-2.3 15.4 1.4 5.1 4.9 9.2 9.9 11.8l6.1 2 3.5 1.1.1.3c2.3 1 6.2 2.2 7.5.1l9.9 6.1c-2.1 3.4-5.1 5.3-8.4 6.1l.2.2c7.1 4.1 16.6 3.9 24.1-.5l3.8-1.6 3.1 2.2s1.6 1.1 1.7 1.2c4.9 2.9 11.5 1.6 15.6-2.4-.5-2.3-1.7-5.8-4.7-8-3.1-2.2-7.8-2.6-13.8-1l-2.9-11.2c9.6-2.5 17.6-1.5 23.6 3 3.6 2.7 5.8 6.1 7.3 9.3 7.3-.8 14-4.8 17.7-10.8 2.5-4.8 3.4-10.2 2-15.3z"/><path fill="#E8A26C" d="M1074.4 1789.1c0-2.7-.4-5.4-1.1-8.1-2.3-8.2-7.9-15-15.8-19-1.1-.6-2.3-.8-3.4-1.2-3-1-6.1-1.6-9.3-1.9-3.4-8.8-9.4-16.3-18.3-20.8-1.5-.8-3-1.2-4.6-1.8-14.9-5.5-31.9-2.4-44.1 7.4-3.8 3.1-7.2 6.6-9.8 10.9 0 0-.3.5-.5.9-8.1 2.6-15.2 7.5-19.5 14.4-2.2 3.6-3.4 7.5-4.1 11.5-2.5-3.3-5.6-6.2-9.1-8.7-1.6-1.1-3.1-2.2-4.9-3.1-5.4-2.7-11.6-3.9-17.9-4.2-3.8-10.5-10.7-19.4-20.2-25.6-1.4-.9-2.7-2-4.3-2.8-26.8-13.7-61.5-3.9-77.3 21.8 0 0-.2.3-.4.7-.2.3-.4.7-.6 1.1-10.9 3.2-20.6 9.8-26.3 19.3-4.1 6.7-6.2 14-6.2 21.4 0 3.2.5 6.4 1.3 9.6-1-.7-2.1-1.5-3.2-2.1 0 0-4.5-1-8-1.8-.2-.5-.5-.9-.7-1.3-2.6-5.4-6.4-10-12-12.8-14.4-7.4-33.1-2.1-41.6 11.8 0 0-.1.1-.1.2-5.4 1.9-10.2 5.3-13.2 10-2.3 3.8-3.5 7.9-3.5 12 0 1.1.3 2.2.5 3.3.1.9.1 1.8.4 2.6 1.7 6 5.8 10.9 11.5 13.9 0 0 2 .7 3.9 1.3 1.9 3.7 4.6 7 8.3 9.1 6.6 3.8 14.4 3.6 21.6.8h.1c8 4.7 18.9 2.3 24.3-5.3 0 0 3-.7 3.3-1.2 6.9-1.4 7.5-4.9 19.5-10.8 0-3.7.8-7.8.8-12 0-.4-1.5-.8-1.5-1.3 3.3 3.6 6.5 6.7 11.1 9.1 0 0 5.4 1.9 8.9 3.1 3.3 7.5 8.5 14.2 15.8 18.4 12.8 7.5 29.2 7.5 43 .8.6.5 1.4 1 1.4 1 13.7 8 32.3 3.9 41.6-9.2 0 0 1.1-2 2.1-3.9 13.9-1.8 26.3-8.9 33.5-20.5 3.6-5.9 5.6-12.3 6-18.8v-.2l.2.2c2.4 2.4 5 4.6 8.2 6.2 0 0 3.7 1.2 6.4 2.2 2.6 5.5 6.5 10.4 11.9 13.5 9.5 5.5 21.3 5.1 31.6.6.5.4 1.2.9 1.2.9 10.5 6.1 25.1 2.9 32.2-7.3 0 0 .7-1.3 1.3-2.5 9.9-1.6 18.8-6.6 24.2-14.8.2-.2.4-.4.5-.7 3.3-4.9 4.9-10.6 4.9-16.3zm-32.3 21.2c-1.4-3.2-3.7-6.7-7.3-9.3-6.1-4.4-14-5.4-23.6-3l2.9 11.2c6.1-1.5 10.7-1.2 13.8 1 3 2.2 4.2 5.7 4.7 8-4.1 4-10.7 5.3-15.6 2.4-.2-.1-1.7-1.2-1.7-1.2l-3.1-2.2-3.8 1.6c-7.5 4.5-17 4.7-24.1.5l-.2-.2c3.3-.8 6.3-2.7 8.4-6.1l-9.9-6.1c-1.3 2.1-5.2.9-7.5-.1l-.1-.3-3.5-1.1-6.1-2c-4.9-2.5-8.4-6.7-9.9-11.8-1.4-5.2-.6-10.6 2.3-15.4 3.2-5.2 8.7-9.1 15.1-10.5l2.5-.5 1.2-2.2c7-1.4 16.9-1.6 20 2 2.6 3 .4 9.8-1.1 13.5l1.2.5c-13-.7-23.9 7.1-24.5 7.6l6.9 9.3c.1-.1 14.1-10 25.5-2.6l6.3-9.7c-1.4-.9-2.9-1.4-4.3-2.1 3.9-10.4 3.5-18.6-1.4-24.2-4.2-4.8-10.8-6.4-17.1-6.7 9.7-6.1 22.4-7.4 32.9-2 6.7 3.4 11.5 9 13.7 15.8-1.2 4.4-3 8.8-4.2 9.7.7-.6 2.5-.6 3.3.1l-7.6 8.8c2.5 2.1 5.6 2.8 8.5 1.9 5.2-1.7 8.4-8.6 10.3-14.5 2.4.3 4.8.9 6.9 2 5 2.5 8.5 6.7 9.9 11.8 1.4 5.1.6 10.5-2.4 15.3-3.3 6-10 9.9-17.3 10.8zM935.9 1822c-5.6 13-16.1 14.3-27.3 15.1-1.8-4.5-4.8-10-9.9-13.8-7.8-5.7-18-7.2-30.6-4l2.9 11.1c8.9-2.3 15.9-1.7 20.7 1.7 5.2 3.8 7 10.2 7.6 13.5-6.1 7-16.9 9-24.9 4.3l-5.8-4.2-3.7 1.6c-10.9 6.5-24.7 6.8-35.1.7-1.8-1-3.4-2.3-4.8-3.6 5.8.1 11.5-1.9 15.3-8l-9.9-6.1c-2.8 4.6-10.3 1.9-13.8.4l-.2-.5-3.6-1.1-8.9-3c-7.3-3.7-12.5-9.9-14.6-17.4-2.1-7.5-.9-15.6 3.5-22.7 4.7-7.7 12.7-13.3 22-15.4l2.5-.6 1.7-3c8-1.6 24.6-3.4 30.3 3.2 4.1 4.7 1.7 13.9-1.1 20.7l10.6 4.3c-21.3-8-42.1 6.9-43.1 7.6l6.9 9.3c.2-.1 20.5-14.6 37.3-3.6l6.3-9.7c-2.4-1.6-4.8-2.7-7.2-3.6 5.8-14.4 5.5-25.4-.9-32.7-6.7-7.7-18.4-9-28.2-8.6 14.4-12.1 35.4-15.4 52.5-6.7 9.9 5.1 16.9 13.4 20 23.5-1.8 7-4.8 14-6.6 15.1.5-.3 1.5-.3 1.9 0l-7.6 8.7c2.9 2.5 6.3 3.2 9.6 2.2 6.8-2.2 11-12.6 13.2-20.1 4.2.4 8.3 1.3 11.9 3.1 7.3 3.8 12.5 10.9 14.6 18.4 2.1 7.9.8 11.9-3.5 23.9zm-160.7 3.9c.3.9.4 1.8.4 2.8 0 2.1-.6 4.1-1.7 6-2 3.2-5.4 5.3-9.2 6.1-1.1-2-2.5-4-4.7-5.7-4.5-3.3-10.4-4.1-17.4-2.3l2.8 11.3c2.4-.6 5.7-1 7.6.4 1.1.8 1.8 2.1 2.2 3.2-2.1 1.5-5.1 1.9-7.3.6l-3-2.1-4.6.8c-3.3 1.9-7.1 2.5-10.6 1.7 1-.8 1.9-1.7 2.6-2.9l-9.9-6.1.3-.2c-.4.1-1.3-.1-2.2-.4l-.1-.3-3.5-1.1-3.5-1.2c-2.8-1.5-4.8-3.9-5.6-6.7-.8-2.9-.3-6 1.4-8.7 1.9-3 5.1-5.3 8.9-6.1l2.6-.6.7-1.4c4.4-.7 9.4-.6 10.7.8.4.5.6 2.4-.8 6.3-8.2.5-14.8 5.1-15.2 5.4l6.9 9.3c.1 0 8.4-5.9 14.9-1.7l6.3-9.7c-.5-.3-1.1-.5-1.6-.8 2.2-6.9 1.7-12.4-1.8-16.4-1.8-2-4-3.3-6.5-4.1 4.8-1.4 10.1-1.1 14.7 1.3 3.8 1.9 6.4 5.1 7.9 8.9l-1.9 5.1c.6-.7 2.1-.8 3.5-.5v.1l.5.1c.3.1.6 0 .8.2l-7.6 8.8c2.2 1.9 4.9 2.5 7.5 1.6 3.6-1.2 5.9-4.9 7.4-9l2.6.6c2.7 1.4 4.7 3.8 5.5 6.6z"/><path fill="#E19BBE" d="M1325.1 531.7c-7.7-6.2-13.6-7-18.2-5.1l-210.4-174.4s-32.6 16.3-32.6 59.8l229.7 146.2 64.4 257.4c13.1-3 26.6-5.1 40.4-6.3l-73.3-277.6z"/><path fill="#C65696" d="M1219 1579.8l-10.6-80.5c244.8 23.8 388.6-42.2 445.9-77.3l-4.7 36.9 28.4-223.2-10.7 84.2c-212.5 94.8-385.2 93.5-471.5 83.6L1244 1771l4.8 36.8s182.3 68 356.4 0l17.5-137.5-1.5 11.7c-159.8 62.8-293.6 71.9-380 67.9l-10.5-80c203.9 15.7 334.4-31.4 400.4-66.2l12.6-99.5c-184.3 77.3-336.5 82.5-424.7 75.6z"/><path fill="#C65696" d="M1678.6 1231.3l1.7-15.5c-2.3.2-4.6-1.9-6.9-1.9h-501.8l17.2 133.3-3.5-25.8c309.2 36.5 464.6-68 493.3-90.1z"/><path fill="#DB8CB5" d="M1680.2 1215.9c34.9-3.5 62.2-31.9 62.2-67.6 0-22.8-11.7-42.8-30-55.6-.9-157.3-130.3-284.8-289.4-284.8-8.3 0-16.6.6-24.7 1.3-13.8 1.2-27.2 3.3-40.4 6.4-107 24.5-191.3 107.8-216.5 213.7-4.6 19.5-7.3 39.8-7.7 60.6-21.5 12.1-35.6 34.2-35.6 59.5 0 20.3 8.9 36.3 22.9 49 12.3 11.1 28.4 15.7 46.2 15.7h506.1c2.4-.1 4.7 2 6.9 1.8zM1423 825.5c150.3 0 272.1 122.3 272.1 271 0 .9-.1 4.4-.1 4.4h-544s-.1-3.5-.1-4.4c0-148.7 121.8-271 272.1-271zM1167.3 1201c-28.6 0-51.7-24.2-51.7-52.7 0-20.3 11.7-34.3 28.8-47.3h551.8c17.1 13 28.9 26.9 28.9 47.3 0 28.5-23.1 52.7-51.7 52.7h-506.1z"/><path fill="#FDF5EF" d="M1695 1101s.1-3.5.1-4.4c0-148.8-121.8-270.2-272.1-270.2s-272.1 121.9-272.1 270.6c0 .9.1 4 .1 4h544zm-506-8.8s16.3-206.8 201.3-234c0 0-108.8 81.6-92.5 217.7l-108.8 16.3zM1725 1148.3c0-20.3-11.8-34.3-28.9-47.3h-551.8c-17 13-28.8 27-28.8 47.3 0 28.5 23.2 52.7 51.7 52.7h506.1c28.6 0 51.7-24.2 51.7-52.7zm-477-34.4v37.1h-50v-26.2l50-10.9zM1678.6 1232c-28.6 21-184 127.4-493.3 91l3.5 27 7.1 54c86.3 10 258.9 10.9 471.5-83.9l10.7-84 .5-4.1zM1230.8 1669.9l10.5 80c86.4 4 220.2-5 380-67.9l1.5-11.7 8.5-66.6c-66.1 34.8-196.7 81.9-400.5 66.2zM1654.3 1421.9c-57.3 35.2-201.1 101.1-445.9 77.3l10.6 80.5c88.3 6.9 240.4 1.7 424.9-75.6l3.7-29.5 2-15.9 4.7-36.8z"/><path fill="#A7DAF3" d="M1390.4 858.2c-185 27.2-201.3 234-201.3 234l108.8-16.3c-16.4-136.1 92.5-217.7 92.5-217.7zM1198 1151h50v-37.1l-50 10.9z"/></svg>