<svg xmlns="http://www.w3.org/2000/svg" width="100" height="100" viewBox="0 0 100 100"><g fill="#8F986A"><path d="M24.621 38.702c3.335 5.891 8.069 7.551 14.781 11.458 3.43 1.993 6.886 4.428 10.162 7.054.598-.462 1.187-.909 1.753-1.332-4.367-3.254-7.719-5.319-8.744-5.935 0 0-2.921-2.701-9.554-14.481-6.632-11.769-7.32-15.31-7.32-15.31-3.937 4.613-5.112 11.39-1.078 18.546zM58.295 65.087c6.231 6.322 13.741 20.251 16.784 24.969 3.042 4.708 8.325 5.87 3.491-3.873-6.138-12.394-17.193-22.557-25.504-28.97a98.77 98.77 0 0 0-1.753 1.442 100.393 100.393 0 0 1 6.982 6.432z"/><path d="M24.062 86.183c-4.832 9.743.45 8.581 3.493 3.873 3.042-4.718 10.551-18.646 16.776-24.969a101.1 101.1 0 0 1 6.983-6.432 97.737 97.737 0 0 0-1.75-1.441c-8.306 6.415-19.356 16.577-25.502 28.969zM63.225 50.16c6.718-3.906 11.446-5.567 14.781-11.458 4.045-7.156 2.865-13.934-1.083-18.546 0 0-.677 3.541-7.31 15.31-6.633 11.78-9.553 14.481-9.553 14.481-1.027.616-4.378 2.681-8.744 5.935.566.423 1.153.868 1.75 1.331 3.276-2.627 6.73-5.063 10.159-7.053z"/><path d="M51.313 58.655a94.57 94.57 0 0 1 1.753-1.442c-.597-.463-1.184-.908-1.75-1.331-.566.423-1.155.87-1.753 1.332.591.474 1.173.956 1.75 1.441z"/><path d="M51.313 58.655a94.57 94.57 0 0 1 1.753-1.442c-.597-.463-1.184-.908-1.75-1.331-.566.423-1.155.87-1.753 1.332.591.474 1.173.956 1.75 1.441z"/></g><path fill="#335E87" d="M66.634 30.27c0-7.57-12.791-23.677-14.489-25.771v21.882l2.709-1.607 6.262-3.725-8.971 7.406v8.556l3.84-2.288 7.289-4.338-11.129 9.205v5.331l.002.006c8.019-.104 14.487-6.625 14.487-14.657zM48.701 44.709l-.36 5.265h2.603l.002-.006V4.5C49.25 6.597 36.464 22.701 36.464 30.27c0 7.264 5.294 13.277 12.237 14.439z"/></svg>