<svg xmlns:xlink="http://www.w3.org/1999/xlink"  xmlns="http://www.w3.org/2000/svg" viewBox="0 0 150 150"><path fill="#0DB14B" d="M28.3 15.5s37.1-13.7 81 .2c0 0-30.1 23.1-32.9 58.6 0 0-7-26.1-8.3-45.5 0 0-8.7-2.9-39.8-13.3z"/><path fill="#909A34" d="M7.6 77.6S23.3 49 58.2 34c0 0-6.3 30.7 11.2 54.3 0 0-18.5-12.5-29.8-23.9 0 .1-7 3-32 13.2z"/><path fill="#A8AA2F" d="M41.4 140.6s-13.2-26.2-6.5-59.7c0 0 19.5 20.3 45.9 19.4 0 0-18.6 7.3-32.8 9.9 0 0-1.5 6.7-6.6 30.4z"/><path fill="#00BEAC" d="M116.4 127.9s-23.6 3.3-47.6-10.6c0 0 20.7-9.7 26.8-30.2 0 0 .8 16.2-1 27.8.1 0 4.9 2.9 21.8 13z"/><path fill="#00A9C5" d="M138.4 76.5s-9.8 19.3-32.5 29.9c0 0 3.5-20.4-8.6-35.7 0 0 12.5 7.8 20.2 15.1 0 .1 4.6-1.9 20.9-9.3z"/><path fill="#AFCDF2" d="M123.6 37s3.7 18.3-6 37.7c0 0-8.6-15.7-24.9-19.6 0 0 12.7-1.4 21.8-.6 0 .1 2-3.8 9.1-17.5z"/></svg>