<svg xmlns:xlink="http://www.w3.org/1999/xlink"  version="1" xmlns="http://www.w3.org/2000/svg" viewBox="0 0 150 150"><path fill="none" d="M77.8 6.1c-31.8.1-57 31.5-57 69.7 0 8.4 1.3 16.5 3.6 24 .1.4.2.8.3 1.1 2.4 7.7 6 14.8 10.4 20.9l.9 1.2c10.4 13.7 25.1 22.4 41.8 22.5 6.3 0 12.3-1.3 17.9-3.6.4-.2.7-.3 1.2-.5 15.7-6.8 28.1-21.7 34.1-40.6l.3-1.2c2.2-7.5 3.5-15.5 3.5-23.8-.1-38.3-25.2-69.7-57-69.7zm33.3 123.2l-.2.2c-1.4 1.4-2.9 2.6-4.5 3.8-.2.2-.5.4-.8.6-1.4 1-2.9 2-4.3 2.9-.3.2-.7.4-1 .6-1.5.8-3.1 1.6-4.7 2.3l-.6.3c-.3.1-.6.2-.9.4 0 0-.1 0-.1.1 0 0-.1 0-.1.1-1.5.6-3.1 1-4.7 1.5-.4.1-.7.2-1.1.3-1.3.3-2.6.6-4 .7-.4.1-.8.1-1.2.2-1.6.2-3.2.3-4.8.3h-.4c-30.3 0-54.8-30.3-54.8-67.6S47.4 8.4 77.7 8.4c30.3 0 54.8 30.3 54.8 67.6 0 21.5-8.4 40.9-21.4 53.3z"/><path fill="#004A6D" d="M89.2 47.1c.6-.7.9-1.6.9-2.4 0-1.6-1.1-3-2.9-4.1v4.7c.8.5 1.5 1.1 2 1.8zM100.3 137.3c-1.5.9-3.1 1.6-4.7 2.3 1.6-.7 3.2-1.5 4.7-2.3zM85.3 42.5v1c0 .2-.1.4-.1.7.4.2.7.3 1 .5V40c-.9-.4-1.9-.8-3-1.1v.5c1.2.7 2.1 1.8 2.1 3.1zM105.6 133.8c-1.4 1-2.9 2-4.3 2.9 1.5-.9 2.9-1.9 4.3-2.9zM110.9 129.4c-1.4 1.4-2.9 2.6-4.5 3.8 1.5-1.1 3-2.4 4.5-3.8zM89.2 141.8c-.4.1-.7.2-1.1.3.3-.1.7-.2 1.1-.3zM84.1 142.8c-.4.1-.8.1-1.2.2.4 0 .8-.1 1.2-.2zM94.1 140.2s-.1 0-.1.1l.1-.1z"/><path fill="#004A6D" d="M77.7 8.1c-30.3 0-54.8 30.3-54.8 67.6s24.5 67.6 54.8 67.6h.4c-16.3-.1-31-9.1-41.1-23.5-.3-.4-.5-.7-.8-1.1-3.6-5.3-6.4-11.4-8.5-18-.1-.4-.2-.8-.3-1.1 2.5-.4 5.1-.7 7.7-.7 8.6 0 16.6 2.5 22.8 6.6 1.6-.3 3.3-.5 5-.6L66.4 58s.1.1.3.1c-1.7-1.4-2.7-3.2-2.7-5v-2.4c0-1 .3-2 .9-2.9-.8-.9-1.2-1.9-1.2-3 0-1.7 1.1-3.3 2.9-4.5V40c0-.1.2-.3.5-.3h.1c1.1-.7 2.5-1.2 4.1-1.7v.6c-1.4.4-2.6.9-3.7 1.6V45c.5-.3 1.1-.6 1.7-.9 0-.2-.1-.4-.1-.7v-1c0-1.3.8-2.4 2.1-3.3V36c-1.4-.8-2.3-2-2.3-3.4 0-.4.1-.7.2-1.1 0-.1.1-.2.1-.2 1.5-4 4.2-6.8 7.3-7.1v-5.3h1.1v5.3c3.1.3 5.8 3 7.3 7 0 .1.1.2.2.3.1.4.2.7.2 1.1 0 1.3-.9 2.5-2.3 3.4v2c1.4.4 2.7.9 3.8 1.5.1 0 .1.1.2.1 2.3 1.3 3.7 3.1 3.7 5 0 1.1-.4 2.1-1.2 3 .6.9.9 1.9.9 2.9 0 2.1-1.4 4-3.6 5.5 2.2-1.4 3.6-3.4 3.6-5.5V53c0 1.8-1 3.5-2.7 5l5.6 53.7c4.1-7.4 11.2-13.1 20.2-14.7 1.8-.3 3.6-.5 5.3-.5 3.6 0 7 .7 10.3 1.9l-.3 1.2c-3.6 11.9-9.9 22.2-17.8 29.8 13-12.4 21.4-31.7 21.4-53.6 0-37.4-24.5-67.7-54.8-67.7z"/><path fill="#004A6D" d="M66.6 45.7V41c-1.4 1.1-2.2 2.3-2.2 3.7 0 .8.3 1.7.9 2.4.3-.5.8-.9 1.3-1.4z"/><path fill="#002D3E" d="M79.9 58.4c2.8-.3 5.2-1.2 7-2.4-1.8 1.2-4.2 2.1-7 2.4z"/><path fill="#6B6B6B" d="M67.1 47.2c-.3 0-.5-.1-.5-.3v-1.2c-.5.4-1 .9-1.3 1.3 1.1 1.4 3 2.5 5.6 3.3-.2-.4-.3-.7-.3-1.1v-3c-.6-.6-1-1.3-1.2-2.1-.6.3-1.2.6-1.7.9v2c-.1.1-.3.2-.6.2zM83.9 46.2v3c0 .4-.1.8-.3 1.1 2.5-.7 4.5-1.9 5.5-3.3-.5-.7-1.2-1.3-2-1.8v1.3c0 .1 0 .1-.1.2l-.1.1c-.1 0-.2.1-.3.1-.3 0-.5-.1-.5-.3v-1.9c-.3-.2-.7-.4-1-.5-.1.7-.5 1.4-1.2 2z"/><path fill="#6B6B6B" d="M77.2 58.6c.9 0 1.8 0 2.7-.2 2.8-.3 5.2-1.2 7-2.4 2.2-1.4 3.6-3.4 3.6-5.5 0-1-.3-2-.9-2.9-.1.2-.3.3-.4.4h.1v4.3c0 .1-.2.3-.5.3s-.5-.1-.5-.3V49c-.7.5-1.4.9-2.3 1.3v5.3c0 .1-.2.3-.5.3s-.5-.1-.5-.3v-4.8c-1.3.5-2.8.8-4.3 1V57l-.1.1h-.1c-.1 0-.2.1-.3.1-.1 0-.2 0-.3-.1-.1 0-.2-.1-.2-.2v-5.1c-.9.2-1.7.2-2.5.2-.9 0-1.8-.1-2.7-.2v5c0 .1-.1.1-.1.1h-.1c-.1 0-.2.1-.3.1-.3 0-.5-.1-.5-.3v-5.2c-1.3-.2-2.6-.5-3.8-.9v4.6c0 .1-.2.3-.5.3s-.5-.1-.5-.3v-5.1c-1-.4-1.9-.9-2.6-1.5v3.5c0 .1-.2.3-.5.3s-.5-.1-.5-.3v-4.5l-.3-.3c-.6.9-.9 1.9-.9 2.9 0 4.8 6 8.4 13.3 8.4zM77.2 47.3c4.4 0 8-2.2 8-4.9 0-1.3-.8-2.4-2.1-3.3v2.3c0 2-2.6 3.8-5.9 3.8-3.3 0-5.9-1.8-5.9-3.8v-2.3c-1.3.9-2.1 2-2.1 3.3 0 2.8 3.6 4.9 8 4.9z"/><path fill="#ADADAD" d="M65.1 48.1l.1-.1c.1.1.2.3.4.4-.3 0-.5-.1-.5-.3v4.3c0 .1.2.3.5.3s.5-.1.5-.3v-3.5c.7.6 1.6 1.1 2.6 1.5v5.1c0 .1.2.3.5.3s.5-.1.5-.3v-4.6c1.1.4 2.4.7 3.8.9V57c0 .2.2.3.5.3.1 0 .2 0 .3-.1h.1l.1-.1v-5c.9.1 1.7.2 2.7.2.8 0 1.6-.1 2.3-.1V57c0 .1.1.2.2.2s.2.1.3.1c.1 0 .2 0 .3-.1h.1l.1-.1v-5.2c1.6-.2 3-.6 4.3-1v4.8c0 .1.2.3.5.3s.5-.1.5-.3v-5.3c.9-.4 1.6-.8 2.3-1.3v3.5c0 .1.2.3.5.3s.5-.1.5-.3v-4.3c0 .1-.2.2-.3.2l.3-.3.4-.4c.8-.9 1.2-1.9 1.2-3 0-1.9-1.4-3.7-3.7-5 0 0-.1-.1-.2-.1-1.1-.6-2.3-1.1-3.8-1.5v-2c-1.1.7-2.6 1.2-4.3 1.4-.5.1-1.1.1-1.7.1-2.3 0-4.4-.6-5.9-1.5v5.4c0 2 2.7 3.8 5.9 3.8 3.3 0 5.9-1.8 5.9-3.8v-2.8c1.1.3 2.1.7 3 1.1v6.6c0 .1.2.3.5.3.1 0 .2 0 .3-.1.1 0 .1 0 .1-.1.1 0 .1-.1.1-.2v-6c1.8 1.1 2.9 2.6 2.9 4.1 0 .8-.3 1.7-.9 2.4-1.1 1.4-3 2.5-5.5 3.3.2-.4.3-.7.3-1.1v-3c-1.4 1.4-3.9 2.4-6.7 2.4-2.8 0-5.3-1-6.7-2.4v3c0 .4.1.8.3 1.1-2.5-.7-4.5-1.9-5.6-3.3-.6-.7-.9-1.6-.9-2.4 0-1.4.8-2.7 2.2-3.7V47c0 .1.2.3.5.3s.5-.1.5-.3v-6.7c1-.6 2.2-1.2 3.7-1.6v-.6c-1.6.4-2.9 1-4.1 1.7-.2.1-.4.2-.5.3l-.1-.1v.1c-1.8 1.2-2.9 2.8-2.9 4.5 0 1.1.4 2.1 1.2 3l.3.3v.2z"/><path fill="#002D3E" d="M65.6 48.4c-.1-.1-.3-.2-.4-.4l-.1.1c0 .2.2.3.5.3zM88.9 48.4c.2 0 .3-.1.3-.2l-.1-.1c0 .1-.1.2-.2.3zM67.2 39.8h-.1c-.3 0-.5.1-.5.3 0 0 0 .1.1.1.1-.2.3-.3.5-.4zM69 32.6c0-.4.1-.7.2-1.1-.1.4-.2.8-.2 1.1zM85.1 31.2zM78.9 37.5c1.7-.2 3.1-.7 4.3-1.4 1.4-.9 2.3-2.1 2.3-3.4 0-.4-.1-.7-.2-1.1.1.4.2.7.2 1.1-.1 2.4-2.9 4.4-6.6 4.8z"/><path fill="#6B6B6B" d="M77.2 37.6c.6 0 1.1 0 1.7-.1 3.7-.5 6.6-2.5 6.6-4.9 0-.4-.1-.7-.2-1.1 0-.1-.1-.2-.2-.3-1.5-4-4.2-6.7-7.3-7v-5.3h-1.1v5.3c-3.1.3-5.7 3.1-7.3 7.1 0 .1-.1.2-.1.2-.1.4-.2.7-.2 1.1 0 1.3.9 2.5 2.3 3.4 1.4 1 3.5 1.6 5.8 1.6zm-7.1-5.1c0-.3.1-.5.1-.8 0 2.5 3.3 4.4 7.3 4.4 3.6 0 6.5-1.5 7.2-3.6 0 2.4-3.3 4.4-7.3 4.4-4.1 0-7.3-2-7.3-4.4z"/><path fill="#ADADAD" d="M72.7 105.2c7.6 1.2 14.4 4.3 19.6 8.5.3-.7.7-1.4 1.1-2.1L87.8 58c1.7-1.4 2.7-3.2 2.7-5v-2.4c0 2.1-1.4 4-3.6 5.5-1.8 1.2-4.3 2.1-7 2.4-.9.1-1.8.2-2.7.2-7.4 0-13.3-3.6-13.3-8V53c0 1.8 1 3.6 2.7 5-.2-.1-.3-.1-.3-.1l-3.5 46.9c.9-.1 1.8-.1 2.7-.1 2.4-.1 4.8.1 7.2.5z"/><path fill="#00557B" d="M56.1 105.7c-5.8-3.6-13.1-5.7-21-5.7-2.5 0-5 .2-7.4.6 2.1 6.6 5 12.6 8.5 18 4.2-6.3 11.4-10.9 19.9-12.9z"/><path fill="#00557B" d="M90.2 130.7c-.3-1.8-.5-3.5-.5-5.2 0-3.7.8-7.2 2.1-10.6-5.1-4.2-11.8-7.2-19.3-8.5-2.3-.4-4.6-.6-6.9-.6-12.4 0-23.2 5.4-28.5 13.9 10 14.4 24.8 23.5 41.1 23.5 1.6 0 3.2-.1 4.8-.3.4 0 .8-.1 1.2-.2 1.3-.2 2.7-.4 4-.7.4-.1.7-.2 1.1-.3 1.6-.4 3.1-.9 4.7-1.5-1.9-2.8-3.2-6-3.8-9.5z"/><path fill="#00557B" d="M119 97.6c-1.7 0-3.4.2-5.1.5-13.5 2.5-23 14.2-23 27.3 0 1.7.2 3.3.5 5 .6 3.4 1.9 6.6 3.6 9.4l.6-.3c1.6-.7 3.1-1.4 4.7-2.3.3-.2.7-.4 1-.6 1.5-.9 2.9-1.8 4.3-2.9.3-.2.5-.4.8-.6 1.5-1.2 3-2.4 4.5-3.8l.2-.2c8-7.6 14.2-17.8 17.8-29.8-3.1-1-6.5-1.7-9.9-1.7z"/><path fill="#ADADAD" d="M77.8 4.9C45.1 5 19.6 37 19.5 75.8c0 8.6 1.3 16.8 3.6 24.4.1.4.2.8.3 1.1 2.5 7.8 6.1 15 10.6 21.2l.9 1.2c10.5 14 25.7 22.9 42.8 22.9 6.5 0 12.6-1.3 18.4-3.7.4-.2.8-.4 1.2-.5 16.1-7 28.7-22.2 34.7-41.4.1-.4.2-.8.4-1.2 2.2-7.6 3.5-15.7 3.6-24.2C135.9 37 110.4 5 77.8 4.9zm53.4 94.7l-.3 1.2c-5.9 18.9-18.4 33.8-34.1 40.6-.4.2-.8.4-1.2.5-5.6 2.3-11.6 3.6-17.9 3.6-16.7-.1-31.5-8.7-41.8-22.5l-.9-1.2c-4.4-6.1-7.9-13.2-10.4-20.9-.1-.3-.2-.7-.3-1.1-2.3-7.5-3.6-15.6-3.6-24C20.8 37.5 46 6.1 77.8 6.1c31.8.1 56.9 31.5 57 69.7 0 8.3-1.3 16.3-3.6 23.8z"/></svg>