<svg xmlns:xlink="http://www.w3.org/1999/xlink"  xmlns="http://www.w3.org/2000/svg" viewBox="0 0 150 150"><path fill="none" d="M76.6 97.2c-5.1 0-9.4-3.6-10.4-8.4-2.7-.7-5.3-1.7-7.7-2.9-.1 2.6.7 6 4.4 9.5 8.2 7.7 23.8 6.8 28.7-5.7.4-1 .6-1.9.7-2.8-1.7.7-3.4 1.3-5.2 1.8-1.1 4.8-5.4 8.5-10.5 8.5z"/><path fill="#FFCA63" d="M87 88.7c1.8-.5 3.5-1.1 5.2-1.8v-.1c-1.7.7-3.4 1.3-5.2 1.9 0-.1 0 0 0 0zM66.1 88.7c-2.7-.7-5.3-1.8-7.7-3v.2c2.4 1.2 5 2.2 7.7 2.8 0 .1 0 0 0 0zM116.3 50.2c0-22-17.9-39.9-39.9-39.9S36.5 28.2 36.5 50.2c0 12 5.3 22.7 13.6 30 0-.1.1-.2.1-.3-7.6-7-12.4-17.1-12.4-28.3C37.8 30.3 55.1 13 76.4 13S115 30.3 115 51.6c0 11.7-5.2 22.2-13.5 29.3 0 .1.1.2.1.3 8.9-7.3 14.7-18.5 14.7-31z"/><path fill="#FFECC7" d="M60 68.5v13.2s-1.2 1.6-1.3 4c2.4 1.3 4.4 2.3 7.1 3-.1-.7-.8-1.5-.8-2.2V82h23v4.5c0 .7-.4 1.5-.6 2.1 1.8-.5 3.3-1.1 5-1.9.6-5.6-2.7-9.8 6.4-13.3.3.1 1.6 2.9 2.7 7.4 8.3-7.1 13.5-17.6 13.5-29.3C115 30.3 97.7 13 76.4 13S37.9 30.3 37.9 51.6c0 11.2 5.1 21.3 12.7 28.3 3.2-7.8 9.4-11.4 9.4-11.4zm15.9-42.9c13.6 0 24.5 11 24.5 24.6 0 8.3-4.4 15.6-10.4 20V79H63v-8c-7-4.3-11.7-12-11.7-20.9 0-13.5 11-24.5 24.6-24.5z"/><path fill="#FFB602" d="M63 71v8h27v-8.9c6-4.4 10.4-11.8 10.4-20 0-13.6-11-24.6-24.5-24.6-13.6 0-24.6 11-24.6 24.6C51.3 59 56 66.7 63 71zm33-25.6c1.3 1.9 2.6 7.1-1.3 7.1-3.9 0-2.9-2.9-3.6-7.1 0 0 3.6-2 4.9 0zm-3-7.2c1.6 2.9-2.6 4.9-4.2 2.9-1.6-1.9-1-6.8-3.6-9.7 0 0 4.6 1 7.8 6.8zm-17.2 7.5l6.8-5.1-1.9 8.7 7.5 4.5-9.1 1.3-2.9 20.8-3.6-19.1-9.3-1.1 6.4-4.8-2.2-9.8 8.3 4.6z"/><path fill="#576A87" d="M76.5 97.2C81.7 97.2 88 94 88 86.5V82H65v4.5c0 8.8 6.4 10.7 11.5 10.7zm7.8-9s-.6 3.6-2.6 3.6c-1.9 0 .6-4.5.6-4.5s2-1 2 .9z"/><path fill="#E18861" d="M61.5 133.2c-.1-.1-.2-.3-.3-.4.1.1.2.2.3.4zM62.3 134c-.1-.1-.2-.3-.4-.4.1.2.2.3.4.4zM63.1 134.8c-.2-.1-.3-.3-.5-.4.2.1.3.3.5.4zM96.8 112c-.3.5-.5.9-.8 1.4.3-.5.6-1 .8-1.4zM93.8 116.7c-.2.3-.4.5-.6.8.2-.3.4-.6.6-.8zM44.3 123.7s-.5-.3-1.1-.8c.6.5 1.1.8 1.1.8zM60.8 132.1c-.1-.1-.1-.2-.2-.3.1.1.2.2.2.3zM95.4 114.3c-.2.4-.5.8-.7 1.1.3-.4.5-.7.7-1.1zM99.9 105.4zM99.1 107.5c-.3.6-.5 1.2-.8 1.8.2-.6.5-1.2.8-1.8zM65.7 136.6c-.9-.4-1.4-1-2.1-1.5 8.6 7 28.5 2.7 28.5 2.7v-18.1c-2 .1-26 17-26 17l-.4-.1zM98 109.7c-.3.5-.5 1.1-.8 1.6.3-.5.6-1 .8-1.6zM98.7 73.4c-9.1 3.6-5.9 7.7-6.5 13.3v.1c-.1.9-.3 1.8-.7 2.8-4.9 12.5-20.6 13.4-28.7 5.7-4.7-4.5-4.1-9.6-4.1-9.7.1-2.4 1.3-4 1.3-4V68.5s-6.2 3.6-9.4 11.4c0 .1-.2.2-.3.3-.2.5-.5 1-.6 1.5-3 12.9 6 19.7 6 19.7s.7 2.6-.8 1.9c-9.1-4.2-8.3-17-7.9-18.1-9.5 12-1 22 2.3 24.2-8.7-3.3-8.3-14.7-8.3-14.7-6.5 15.5 4.1 23 4.9 23.4-6.8-.8-7.9-10.2-7.9-10.2-3.3 7.3 2.6 13 5.3 15l15.2-22.3s12.3 11 28.9 7.1c14-3.9 14.6-12.3 14.6-12.3s.1 3.4-1.2 8.1c-.2.6-.4 1.3-.7 2 3.5-9.5 2.9-18.2 1.6-24.2 0-.1-.1-.2-.1-.3-1.2-4.7-2.6-7.5-2.9-7.6z"/><path fill="#FFFFFE" d="M81.7 91.8c1.9 0 2.6-3.6 2.6-3.6 0-1.9-1.9-1-1.9-1s-2.7 4.6-.7 4.6z"/><path fill="#CF7046" d="M101.8 95.3s-.6 8.4-14.6 12.3c-16.6 3.9-28.9-7.1-28.9-7.1l-15.2 22.3c.7.5 1.1.8 1.1.8s16.3 7 15.9 7c.1.4.3.7.5 1.1.1.1.1.2.2.3.1.2.2.4.4.6.1.1.2.3.3.4.1.2.2.3.4.5.1.1.2.3.4.4l.4.4c.2.1.3.3.5.4.1.1.2.1.2.2.7.6 1.5 1.1 2.4 1.5h.1s25.3-16.9 25.8-17c.6-.7 1.1-1.4 1.7-2.1.2-.3.4-.5.6-.8.3-.4.6-.8.9-1.3.3-.4.5-.8.7-1.1l.6-.9c.3-.5.5-.9.8-1.4.1-.2.3-.4.4-.6.3-.5.6-1.1.8-1.6.1-.1.1-.3.2-.4.3-.6.6-1.2.8-1.8 0-.1.1-.1.1-.2.3-.6.5-1.3.8-1.9v-.1c.2-.7.5-1.3.7-2 1.1-4.5 1-7.9 1-7.9z"/></svg>