<svg xmlns:xlink="http://www.w3.org/1999/xlink"  xmlns="http://www.w3.org/2000/svg" width="100" height="100" viewBox="0 0 100 100"><radialGradient id="a" cx="50.243" cy="50.474" r="55.778" gradientUnits="userSpaceOnUse"><stop offset="0" stop-color="#8ac340"/><stop offset=".321" stop-color="#3ab14a"/><stop offset=".63" stop-color="#009247"/><stop offset="1" stop-color="#006938"/></radialGradient><path fill="url(#a)" d="M32.564 49.437s-22.07 21.189 7.633 21.405c0 0 22.593-1 37.496-14.309l-2.73-1.991 13.027-2.135-4.73 11.563-1.348-2.085s-28.046 19.646-51.897 13.62c-.001 0-25.601-6.717 2.549-26.068z"/><path fill="#231F20" d="M79.242 75.098l3.041-8.675-9.01 1.887 2.156 1.098s-19.71 13.104-41.624 11.403c0 0-29.214-2.596-12.221-24.794 0 0-23.054 17.428 3.407 27.129 0 0 21.672 8.271 53.359-10.494l.892 2.446z"/><radialGradient id="b" cx="52.79" cy="32.487" r="21.956" gradientUnits="userSpaceOnUse"><stop offset="0" stop-color="#8ac340"/><stop offset=".321" stop-color="#3ab14a"/><stop offset=".63" stop-color="#009247"/><stop offset="1" stop-color="#006938"/></radialGradient><circle fill="url(#b)" cx="49.541" cy="40.036" r="5.005"/><radialGradient id="c" cx="116.801" cy="89.436" r="41.522" gradientTransform="rotate(-4.324 -648.416 924.001)" gradientUnits="userSpaceOnUse"><stop offset="0" stop-color="#8ac340"/><stop offset=".321" stop-color="#3ab14a"/><stop offset=".63" stop-color="#009247"/><stop offset="1" stop-color="#006938"/></radialGradient><path fill="url(#c)" d="M57.007 66.415a67.157 67.157 0 0 0 8.073-3.066c-3.938-2.634-8.197-6.071-11.398-8.78 3.886-2.809 28.158-21.584.814-33.517.453.206 14.243 6.648 5.539 19.443 0 0-2.257 2.845-4.979 4.667-1.685 1.125-4.3 2.941-6.829 4.624-18.965-16.808-4.135-26.489-4.135-26.489-22.532 11.018-.58 32.386 12.915 43.118z"/><path fill="#3AB14A" d="M55.005 17.292l-4.735.358-1.804-4.394-1.125 4.615-4.735.356 4.043 2.496-1.125 4.615 3.623-3.074 4.04 2.494-1.804-4.394 3.622-3.072zm-2.473 6.551l-3.12-1.923-2.794 2.372.865-3.56-3.117-1.924 3.654-.277.868-3.559 1.389 3.389 3.653-.275-2.793 2.369 1.395 3.388z"/><radialGradient id="d" cx="116.8" cy="89.438" r="41.518" gradientTransform="rotate(-4.324 -648.416 924.001)" gradientUnits="userSpaceOnUse"><stop offset="0" stop-color="#8ac340"/><stop offset=".321" stop-color="#3ab14a"/><stop offset=".63" stop-color="#009247"/><stop offset="1" stop-color="#006938"/></radialGradient><path fill="url(#d)" d="M47.341 60.265l-5.244-5.493s-7.455 7.29-12.333 13.411c2.208.814 5.239 1.328 9.305 1.43 1.365-2.55 3.866-6.106 8.272-9.348z"/></svg>