<svg xmlns:xlink="http://www.w3.org/1999/xlink"  xmlns="http://www.w3.org/2000/svg" viewBox="0 0 150 150"><path fill="#895B24" d="M72.4 42.6c-4.6 0-8.4 3.7-8.4 8.4 0 4.6 3.7 8.4 8.4 8.4 4.6 0 8.4-3.7 8.4-8.4s-3.7-8.4-8.4-8.4z"/><path fill="#CE6A28" d="M82.3 61.7H63.7c-9.9 0-10 9.3-10 9.3s-.2 6.6-.4 13.1c2.2 2 4.7 3.6 7.3 4.8.3-5.5.5-11.3.5-12.1 0-1.5 0-2.1.7-2.1s.7 1.2.7 1.2v13.9c3.1 1.1 6.3 1.7 9.7 1.7 3.7 0 7.3-.7 10.6-2.1 0-7.4.1-12.8.1-13.4 0-2.4.9-2 .9-2s.3 7.8.5 14.7c1.7-.8 3.4-1.9 5-3.1.8-.6 1.5-1.2 2.2-1.9V72.6c.1-11.3-9.2-10.9-9.2-10.9z"/><path fill="#895B24" d="M128.7 122.6l-21.4-28.2c15.4-17 16.7-43.1 2.7-61.7-9.1-12.1-22.9-19-37.8-19-10.5 0-20.5 3.4-28.8 9.9-20.8 16.1-24.8 46.4-9 67.5 4.2 5.7 9.5 10.2 15.5 13.4 2.1 1.1 4.2 2.1 6.5 2.9 1.5.5 3.1 1 4.7 1.4 3.4.8 6.8 1.3 10.4 1.3H73.4c3.8-.1 7.6-.6 11.2-1.6 1.2-.3 2.5-.7 3.7-1.2 1.2-.4 2.3-.9 3.4-1.4l1.4 1.8 20.3 26.8c1.9 2.5 4.7 3.9 7.7 3.9 2.2 0 4.2-.7 5.9-2 4.1-3.4 4.9-9.5 1.7-13.8zm-34-36.3c-.8.8-1.6 1.5-2.5 2.2-1.8 1.4-3.8 2.6-5.8 3.6-.6.3-1.2.5-1.7.8-3.9 1.6-8.1 2.5-12.4 2.5-3.9 0-7.7-.7-11.2-2-.8-.3-1.5-.6-2.2-.9-3.1-1.4-5.9-3.3-8.5-5.6-1.5-1.4-3-2.9-4.2-4.7-11-14.7-8.2-35.7 6.2-46.9 5.8-4.5 12.7-6.8 19.9-6.8 10.4 0 19.9 4.8 26.2 13.2 10.2 13.7 8.4 33.1-3.8 44.6z"/></svg>