<svg xmlns:xlink="http://www.w3.org/1999/xlink"  xmlns="http://www.w3.org/2000/svg" viewBox="0 0 150 150"><g fill="#D8D9DB"><path d="M94.2 14.5c-8.2-2.4-16.5-2-24.4 1.2l1.3-.5c2.5-.9 2.7-.9 4.3-1.3 2.7-.6 2.7-.6 4.2-.7 2.7-.2 2.7-.2 4.1-.2 1.2 0 2.8.1 4 .2h.2c1.2.2 2.8.5 3.9.7 2.5.7 2.7.7 4.2 1.3l.2.1c-.6-.3-1.4-.6-2-.8M112.6 28.1c.5.7 1.1 1.6 1.6 2.3l.8 1.4c-.7-1.2-1.7-2.7-2.4-3.7"/><path d="M101.4 20c-19.1-8.5-43.5-1.4-50.2 14.6l.1-.3c1-2.1 1.1-2.4 2-3.9 1.3-2 1.4-2.3 2.6-3.8l.1-.1c12-13.9 33.3-13.2 47.1-5.6-.5-.4-1.2-.7-1.7-.9M118.7 50.2c-.1-2.1-.2-7.5-4.6-14.1 4.7 5.7 4.8 10.3 4.8 13.1v.3c-.1.9-.2 2.1-.3 3.1-.1.7-.2 1.6-.4 2.2.4-2.5.5-3.1.5-4.6"/><path d="M101.7 28c-26-11-56.9 5.2-52.4 27.5-.2-1-.4-2.2-.5-3.2-.2-1.7-.3-3.3-.2-5.7l.1-1.4c2.8-20.6 32.5-29.4 54.9-16.3-.7-.3-1.4-.6-1.9-.9M106.4 75c10.8-9.4 9.5-21.2 4.7-29.1 5.9 6.5 6.6 14.8 1.7 22.2l-.4.6c-1.4 1.9-1.7 2.2-3.1 3.7-1.8 1.8-2 2-3.6 3.3.1-.2.4-.5.7-.7"/><path d="M99.3 39c-24.9-10-53 7.1-44.8 27.3 2 4.9 5.4 7.8 7 9.2-2-1.7-2.1-1.8-3.1-2.8-1.6-1.7-1.9-2.1-3.3-3.9-1.3-2-1.5-2.2-2.4-3.7-10.6-21.6 16.1-37 40-29.2 1.2.4 4.3 1.5 8.1 3.9-.3-.3-1-.6-1.5-.8"/><path d="M94.6 51.4C76.8 44.9 57.4 57 63.1 71c6.3 15.3 34.5 15.1 41.5-.4 2-4.5 1.8-9.8-.6-14.6 11.5 10.9-.6 27.2-20.2 27.2-2.3 0-4.2-.3-5.5-.4C55.9 78.7 51 60.5 64.5 51.2c7.5-5.2 20.7-6.6 31.4.7-.4-.1-.9-.3-1.3-.5"/><path d="M88.4 63.2c-8.5-2.4-16.8 3.5-13.5 9.5 3.5 6.3 16.4 5.9 19-2.5.7-2.1.4-4.1 0-5.3 6.1 4.4 3.4 13.3-7.1 15.3-3.1.6-5.6.3-6.8.1-12.3-2.3-15.4-12.6-8.3-17.7 4.9-3.6 12.7-3.2 17.3.8-.2 0-.4-.1-.6-.2"/></g><linearGradient id="a" gradientUnits="userSpaceOnUse" x1="-1121.496" y1="-.258" x2="-1067.546" y2="49.604" gradientTransform="matrix(-1 0 0 1 -1006.454 0)"><stop offset="0" stop-color="#ffc03b"/><stop offset="1" stop-color="#fc9f4c"/></linearGradient><path fill="url(#a)" d="M92.8 17.4C79.7 10.5 62 19.8 65.3 31.8c3.9 14.3 27.8 14.7 34.1 3.7 2.6-4.6 1.7-9.6-2.3-13.4 3.9 8.6-5.6 15.3-15.3 13.8-11.7-2.1-13.9-12.2-6.6-17.2 3.7-2.5 10.7-4.2 18.4-.8-.2-.2-.5-.4-.8-.5"/><linearGradient id="b" gradientUnits="userSpaceOnUse" x1="-1124.409" y1="2.892" x2="-1070.46" y2="52.753" gradientTransform="matrix(-1 0 0 1 -1006.454 0)"><stop offset="0" stop-color="#ffc03b"/><stop offset="1" stop-color="#fc9f4c"/></linearGradient><path fill="url(#b)" d="M83.2 13.3c-2.7.1-2.7.1-4.1.2-2.6.4-2.7.4-4.2.7-2.5.7-2.7.7-4.3 1.3l-1.3.5c-22.6 10.6-15.6 32 1.3 38.4 22.6 8.6 47-7.7 39-25.9-.4-1-1.4-2.9-3.2-5.1 8.9 13.7-6.7 28.5-26.8 25.5C58.3 45 53.8 27.2 66.7 18c3.7-2.6 10.3-5.6 20.5-4.6-1.2 0-2.8-.1-4-.1"/><linearGradient id="c" gradientUnits="userSpaceOnUse" x1="-1128.135" y1="6.921" x2="-1074.187" y2="56.783" gradientTransform="matrix(-1 0 0 1 -1006.454 0)"><stop offset="0" stop-color="#ffc03b"/><stop offset="1" stop-color="#fc9f4c"/></linearGradient><path fill="url(#c)" d="M55.3 26.9c-1.4 1.9-1.6 2.1-2.6 3.8-1.1 2-1.3 2.3-2 3.9l-.1.4c-9 25.2 26.4 41.8 50.6 30.2 14.2-6.8 19.6-20.4 13.2-33l-.8-1.4c9.6 17.4-10.5 35-35.9 31.4-24.3-4.5-32-22.7-22.3-35.4l-.1.1"/><linearGradient id="d" gradientUnits="userSpaceOnUse" x1="-1133.531" y1="12.767" x2="-1079.58" y2="62.632" gradientTransform="matrix(-1 0 0 1 -1006.454 0)"><stop offset="0" stop-color="#ffc03b"/><stop offset="1" stop-color="#fc9f4c"/></linearGradient><path fill="url(#d)" d="M48 47c0 1.7-.1 3.4.2 5.7.1 1 .3 2.2.5 3.2 7.5 28.3 52.6 28.8 65.9 7.1 1.4-2.3 2.5-5.2 3.1-7.8.1-.7.3-1.6.4-2.2.1-.9.2-2.1.3-3.1v-.3c-.8 15.8-19.8 26.6-41.6 23.6-18.1-3.4-29.2-13.9-28.7-27.6L48 47"/><linearGradient id="e" gradientUnits="userSpaceOnUse" x1="-1140.184" y1="19.961" x2="-1086.233" y2="69.825" gradientTransform="matrix(-1 0 0 1 -1006.454 0)"><stop offset="0" stop-color="#ffc03b"/><stop offset="1" stop-color="#fc9f4c"/></linearGradient><path fill="url(#e)" d="M54.6 69.2c1.4 1.9 1.7 2.2 3.3 3.9 1.9 1.9 2 1.9 3.1 2.8 13 9.6 31.1 9.7 44.1.2 1.9-1.6 2.2-1.8 3.6-3.3 1.6-1.7 1.8-2 3.1-3.7l.4-.6c-10.6 13.9-28.3 13.1-35.4 12.1-11.7-2.2-20-7.3-24.5-15.2 1 1.8 1.5 2.6 2.3 3.8"/><path fill="#A4A3A5" d="M120.6 47.8v1.7c0 20.8-16.9 37.6-37.6 37.6-20.8 0-37.6-16.9-37.6-37.6 0-11.7 5.3-22.1 13.7-29-11.6 7.2-19.3 20-19.3 34.7 0 10 3.6 19.1 9.5 26.1C48.2 85 47 94.5 57 106c-4.8 2.3-14.8 8.2-19.8 18.4 0 0 1 .6 2.7 1.6-3.1 1.5-5.7 3.2-7.7 5.2 2.8-1.6 6-2.9 9.6-4.1 5.4 3.1 14.7 8 22.9 10.5L51.8 124l-5.4-1.2s7.5-2 14-5.5c2.8 6.2 7.9 15.2 16.7 23.8L89 128.4s-8.7-.4-9.1.4c-.3.8-2.3 5.8-2.3 5.8s-3.8-17.2-10.7-26.1h.2s-5.2-6.5.6-10.2c1.7-1.1 3.3-2.1 4.9-3.2 2.5.5 5.1.8 7.8.8 22.5 0 40.8-18.3 40.8-40.8 0-2.5-.2-4.9-.6-7.3zM67 81.5c3.4 0 6.1-2.7 6.1-6.1 0-3.4-2.7-6.1-6.1-6.1-3.4 0-6.1 2.7-6.1 6.1 0 3.3 2.7 6.1 6.1 6.1zm9.8 42.5c9.6 1.1 18.1 3.6 24.4 7.2-5.3-5-14.3-8.7-25.1-10.1.3 1 .5 2 .7 2.9z"/></svg>