<svg xmlns:xlink="http://www.w3.org/1999/xlink"  version="1" xmlns="http://www.w3.org/2000/svg" viewBox="0 0 150 150"><path fill="#DDEFE1" d="M129.2 101.1c-2.6-2.5-5.3-4.7-8.2-6.6-17.7 4-33.6-2-41.4-5.8 2.1 3.1 5.4 7.7 10.1 12.2 6.5 6.2 13.7 10.5 21.4 12.9 9 2.8 18.7 3 28.9.6-1.9-3.1-5.5-8.3-10.8-13.3z"/><path fill="#A2D5B1" d="M119.1 70.2C105.8 82.5 89 85.3 80.3 85.8c4.2 2.1 11.3 5.1 19.9 6.5 8 1.3 15.8.8 23.1-1.3 8-2.3 15.5-6.8 22.3-13.2-4.1-2.1-11.7-5.6-21-7.1-1.9-.2-3.7-.4-5.5-.5z"/><path fill="#5FC6CB" d="M78.3 83c4.5-.2 12.8-1 21.6-4.4 7.6-2.9 14.1-7.2 19.3-12.7 5.8-6 10.1-13.6 12.7-22.5-4.6.2-12.9 1-21.8 4.4-7.6 2.9-14.1 7.2-19.4 12.7-5.6 6-9.8 13.6-12.4 22.5z"/><g><path fill="#DDEFE1" d="M23.7 101.1c2.6-2.5 5.3-4.7 8.2-6.6 17.7 4 33.6-2 41.4-5.8-2.1 3.1-5.4 7.7-10.1 12.2-6.5 6.2-13.7 10.5-21.5 12.9-9 2.8-18.7 3-28.9.6 2-3.1 5.6-8.3 10.9-13.3z"/><path fill="#A2D5B1" d="M33.7 70.2C47 82.5 63.8 85.3 72.5 85.8 68.3 88 61.2 91 52.7 92.3c-8 1.3-15.8.8-23.1-1.3-8-2.3-15.5-6.8-22.3-13.2 4.1-2.1 11.7-5.6 21-7.1 1.9-.2 3.7-.4 5.4-.5z"/><path fill="#5FC6CB" d="M74.5 83c-4.5-.2-12.8-1-21.6-4.4-7.6-2.9-14.1-7.2-19.3-12.7-5.8-6-10.1-13.6-12.7-22.5 4.6.2 12.9 1 21.8 4.4 7.5 3 14.1 7.2 19.3 12.7 5.7 6 10 13.6 12.5 22.5z"/></g><path fill="#A2D5B1" d="M63.4 48.1c0-6.8 5.6-12.4 12.4-12.4 6.8 0 12.4 5.6 12.4 12.4 0 6.9-5.6 12.4-12.4 12.4-6.9 0-12.4-5.5-12.4-12.4z"/></svg>