<svg xmlns:xlink="http://www.w3.org/1999/xlink"  xmlns="http://www.w3.org/2000/svg" width="100" height="100" viewBox="0 0 100 100"><radialGradient id="a" cx="-408.486" cy="36.936" r="60.315" gradientTransform="matrix(-1 0 0 1 -352.48 0)" gradientUnits="userSpaceOnUse"><stop offset="0" stop-color="#00adee"/><stop offset=".002" stop-color="#01adee"/><stop offset=".053" stop-color="#15abe6"/><stop offset=".103" stop-color="#22a9e2"/><stop offset=".151" stop-color="#26a9e0"/><stop offset=".327" stop-color="#1b75bb"/><stop offset=".521" stop-color="#2b388f"/><stop offset=".758" stop-color="#1c1651"/><stop offset="1" stop-color="#120742"/></radialGradient><path fill="url(#a)" d="M15.963 49.007c.403-7.112 6.394-6.687 12.768-7.828-.923 7.831-.993 15.815-.161 23.655a100.332 100.332 0 0 1-10.182-2.353c-3.206-.925-2.596-10.562-2.425-13.474z"/><radialGradient id="b" cx="-408.187" cy="36.723" r="59.525" gradientTransform="matrix(-1 0 0 1 -352.48 0)" gradientUnits="userSpaceOnUse"><stop offset="0" stop-color="#00adee"/><stop offset=".002" stop-color="#01adee"/><stop offset=".053" stop-color="#15abe6"/><stop offset=".103" stop-color="#22a9e2"/><stop offset=".151" stop-color="#26a9e0"/><stop offset=".327" stop-color="#1b75bb"/><stop offset=".521" stop-color="#2b388f"/><stop offset=".758" stop-color="#1c1651"/><stop offset="1" stop-color="#120742"/></radialGradient><path fill="url(#b)" d="M31.874 23.293c-.066.016-.303.071 0 0z"/><radialGradient id="c" cx="-503.454" cy="3.518" r="60.301" gradientTransform="scale(-1 1) rotate(-7.429 -88.064 -3408.72)" gradientUnits="userSpaceOnUse"><stop offset="0" stop-color="#00adee"/><stop offset=".002" stop-color="#01adee"/><stop offset=".053" stop-color="#15abe6"/><stop offset=".103" stop-color="#22a9e2"/><stop offset=".151" stop-color="#26a9e0"/><stop offset=".327" stop-color="#1b75bb"/><stop offset=".521" stop-color="#2b388f"/><stop offset=".758" stop-color="#1c1651"/><stop offset="1" stop-color="#120742"/></radialGradient><path fill="url(#c)" d="M80.158 35.105c-15.047-5.359-11.434-5.697-15.133-19.668 10.238 3.525 13.469 8.221 15.018 18.833.043.279.08.558.115.835z"/><radialGradient id="d" cx="-408.48" cy="36.937" r="60.308" gradientTransform="matrix(-1 0 0 1 -352.48 0)" gradientUnits="userSpaceOnUse"><stop offset="0" stop-color="#00adee"/><stop offset=".002" stop-color="#01adee"/><stop offset=".053" stop-color="#15abe6"/><stop offset=".103" stop-color="#22a9e2"/><stop offset=".151" stop-color="#26a9e0"/><stop offset=".327" stop-color="#1b75bb"/><stop offset=".521" stop-color="#2b388f"/><stop offset=".758" stop-color="#1c1651"/><stop offset="1" stop-color="#120742"/></radialGradient><path fill="url(#d)" d="M64.152 63.175c-.562 5.832-26.752 2.955-31.974 2.226h-.025c-4.428-.621-2.113-19.299-1.677-23.341.504-4.662 27.182-2.549 32.107-2.048 2.915.299 1.819 20.548 1.569 23.163z"/><radialGradient id="e" cx="-408.482" cy="36.936" r="60.317" gradientTransform="matrix(-1 0 0 1 -352.48 0)" gradientUnits="userSpaceOnUse"><stop offset="0" stop-color="#00adee"/><stop offset=".002" stop-color="#01adee"/><stop offset=".053" stop-color="#15abe6"/><stop offset=".103" stop-color="#22a9e2"/><stop offset=".151" stop-color="#26a9e0"/><stop offset=".327" stop-color="#1b75bb"/><stop offset=".521" stop-color="#2b388f"/><stop offset=".758" stop-color="#1c1651"/><stop offset="1" stop-color="#120742"/></radialGradient><path fill="url(#e)" d="M16.937 42.051c2.093-9.266 5.411-16.562 14.942-18.759l.002-.002.996-.218c-5.363 13.03-1.115 14.683-15.94 18.979z"/><radialGradient id="f" cx="-409.031" cy="36.916" r="61.167" gradientTransform="matrix(-1 0 0 1 -352.48 0)" gradientUnits="userSpaceOnUse"><stop offset="0" stop-color="#00adee"/><stop offset=".002" stop-color="#01adee"/><stop offset=".053" stop-color="#15abe6"/><stop offset=".103" stop-color="#22a9e2"/><stop offset=".151" stop-color="#26a9e0"/><stop offset=".327" stop-color="#1b75bb"/><stop offset=".521" stop-color="#2b388f"/><stop offset=".758" stop-color="#1c1651"/><stop offset="1" stop-color="#120742"/></radialGradient><path fill="url(#f)" d="M22.69 24.108c-.051.042-.101.082-.151.125.065-.052.113-.095.151-.125z"/><radialGradient id="g" cx="-408.442" cy="36.93" r="60.239" gradientTransform="matrix(-1 0 0 1 -352.48 0)" gradientUnits="userSpaceOnUse"><stop offset="0" stop-color="#00adee"/><stop offset=".002" stop-color="#01adee"/><stop offset=".053" stop-color="#15abe6"/><stop offset=".103" stop-color="#22a9e2"/><stop offset=".151" stop-color="#26a9e0"/><stop offset=".327" stop-color="#1b75bb"/><stop offset=".521" stop-color="#2b388f"/><stop offset=".758" stop-color="#1c1651"/><stop offset="1" stop-color="#120742"/></radialGradient><path fill="url(#g)" d="M29.705 19.289l-.151.078c1.762-.945.597-.316.151-.078z"/><radialGradient id="h" cx="-408.617" cy="35.915" r="57.279" gradientTransform="matrix(-1 0 0 1 -352.48 0)" gradientUnits="userSpaceOnUse"><stop offset="0" stop-color="#00adee"/><stop offset=".002" stop-color="#01adee"/><stop offset=".053" stop-color="#15abe6"/><stop offset=".103" stop-color="#22a9e2"/><stop offset=".151" stop-color="#26a9e0"/><stop offset=".327" stop-color="#1b75bb"/><stop offset=".521" stop-color="#2b388f"/><stop offset=".758" stop-color="#1c1651"/><stop offset="1" stop-color="#120742"/></radialGradient><path fill="url(#h)" d="M56.953 16.449s.004 0 .004.002c-.006-.01-.004-.009-.004-.002z"/><radialGradient id="i" cx="-408.61" cy="36.911" r="60.499" gradientTransform="matrix(-1 0 0 1 -352.48 0)" gradientUnits="userSpaceOnUse"><stop offset="0" stop-color="#00adee"/><stop offset=".002" stop-color="#01adee"/><stop offset=".053" stop-color="#15abe6"/><stop offset=".103" stop-color="#22a9e2"/><stop offset=".151" stop-color="#26a9e0"/><stop offset=".327" stop-color="#1b75bb"/><stop offset=".521" stop-color="#2b388f"/><stop offset=".758" stop-color="#1c1651"/><stop offset="1" stop-color="#120742"/></radialGradient><path fill="url(#i)" d="M22.539 24.232c.209-.079.393-.315.151-.125.403-.351.812-.697 1.235-1.03-.763 1.031-.347.758-1.386 1.155z"/><radialGradient id="j" cx="-408.486" cy="36.669" r="59.511" gradientTransform="matrix(-1 0 0 1 -352.48 0)" gradientUnits="userSpaceOnUse"><stop offset="0" stop-color="#00adee"/><stop offset=".002" stop-color="#01adee"/><stop offset=".053" stop-color="#15abe6"/><stop offset=".103" stop-color="#22a9e2"/><stop offset=".151" stop-color="#26a9e0"/><stop offset=".327" stop-color="#1b75bb"/><stop offset=".521" stop-color="#2b388f"/><stop offset=".758" stop-color="#1c1651"/><stop offset="1" stop-color="#120742"/></radialGradient><path fill="url(#j)" d="M56.957 16.451l.004.005a.662.662 0 0 1-.004-.005z"/><radialGradient id="k" cx="-408.478" cy="36.931" r="60.298" gradientTransform="matrix(-1 0 0 1 -352.48 0)" gradientUnits="userSpaceOnUse"><stop offset="0" stop-color="#00adee"/><stop offset=".002" stop-color="#01adee"/><stop offset=".053" stop-color="#15abe6"/><stop offset=".103" stop-color="#22a9e2"/><stop offset=".151" stop-color="#26a9e0"/><stop offset=".327" stop-color="#1b75bb"/><stop offset=".521" stop-color="#2b388f"/><stop offset=".758" stop-color="#1c1651"/><stop offset="1" stop-color="#120742"/></radialGradient><path fill="url(#k)" d="M36.024 20.625a36.944 36.944 0 0 1 2.904-4.744c-.025.025 1.291-.269 1.891-.41 7.59-1.57 12.941-1.605 16.531 5.189-7.056-1.092-14.271-1.146-21.326-.035z"/><radialGradient id="l" cx="-423.591" cy="30.804" r="60.297" gradientTransform="matrix(-1 0 0 1 -352.48 0)" gradientUnits="userSpaceOnUse"><stop offset="0" stop-color="#00adee"/><stop offset=".002" stop-color="#01adee"/><stop offset=".053" stop-color="#15abe6"/><stop offset=".103" stop-color="#22a9e2"/><stop offset=".151" stop-color="#26a9e0"/><stop offset=".327" stop-color="#1b75bb"/><stop offset=".521" stop-color="#2b388f"/><stop offset=".758" stop-color="#1c1651"/><stop offset="1" stop-color="#120742"/></radialGradient><path fill="url(#l)" d="M72.072 10.322l-.002-.006c-.047-.063-.086-.127-.127-.189 4.992 1.341 9.488 3.255 12.658 7.31-6.601-2.123-8.757-1.541-12.529-7.115z"/><radialGradient id="m" cx="-408.456" cy="37.002" r="60.378" gradientTransform="matrix(-1 0 0 1 -352.48 0)" gradientUnits="userSpaceOnUse"><stop offset="0" stop-color="#00adee"/><stop offset=".002" stop-color="#01adee"/><stop offset=".053" stop-color="#15abe6"/><stop offset=".103" stop-color="#22a9e2"/><stop offset=".151" stop-color="#26a9e0"/><stop offset=".327" stop-color="#1b75bb"/><stop offset=".521" stop-color="#2b388f"/><stop offset=".758" stop-color="#1c1651"/><stop offset="1" stop-color="#120742"/></radialGradient><path fill="url(#m)" d="M40.819 15.471c-.615.126-1.25.263-1.891.41 2.396-.539 2.456-.545 1.891-.41z"/><radialGradient id="n" cx="-408.478" cy="36.936" r="60.302" gradientTransform="matrix(-1 0 0 1 -352.48 0)" gradientUnits="userSpaceOnUse"><stop offset="0" stop-color="#00adee"/><stop offset=".002" stop-color="#01adee"/><stop offset=".053" stop-color="#15abe6"/><stop offset=".103" stop-color="#22a9e2"/><stop offset=".151" stop-color="#26a9e0"/><stop offset=".327" stop-color="#1b75bb"/><stop offset=".521" stop-color="#2b388f"/><stop offset=".758" stop-color="#1c1651"/><stop offset="1" stop-color="#120742"/></radialGradient><path fill="url(#n)" d="M26.397 22.887a44.77 44.77 0 0 1 3.157-3.52l.151-.078a37.158 37.158 0 0 1 6.525-2.698c-3.202 5.042-3.853 4.41-9.833 6.296z"/><radialGradient id="o" cx="-384.721" cy="65.412" r=".011" gradientTransform="matrix(-1 0 0 1 -352.48 0)" gradientUnits="userSpaceOnUse"><stop offset="0" stop-color="#00adee"/><stop offset=".002" stop-color="#01adee"/><stop offset=".053" stop-color="#15abe6"/><stop offset=".103" stop-color="#22a9e2"/><stop offset=".151" stop-color="#26a9e0"/><stop offset=".327" stop-color="#1b75bb"/><stop offset=".521" stop-color="#2b388f"/><stop offset=".758" stop-color="#1c1651"/><stop offset="1" stop-color="#120742"/></radialGradient><path fill="url(#o)" d="M32.226 65.411l.03.002-.03-.002z"/><radialGradient id="p" cx="-384.657" cy="65.402" r=".017" gradientTransform="matrix(-1 0 0 1 -352.48 0)" gradientUnits="userSpaceOnUse"><stop offset="0" stop-color="#00adee"/><stop offset=".002" stop-color="#01adee"/><stop offset=".053" stop-color="#15abe6"/><stop offset=".103" stop-color="#22a9e2"/><stop offset=".151" stop-color="#26a9e0"/><stop offset=".327" stop-color="#1b75bb"/><stop offset=".521" stop-color="#2b388f"/><stop offset=".758" stop-color="#1c1651"/><stop offset="1" stop-color="#120742"/></radialGradient><path fill="url(#p)" d="M32.201 65.403c-.01-.002-.025-.002-.048-.002h.025l.023.002z"/><radialGradient id="q" cx="-408.481" cy="36.937" r="60.309" gradientTransform="matrix(-1 0 0 1 -352.48 0)" gradientUnits="userSpaceOnUse"><stop offset="0" stop-color="#00adee"/><stop offset=".002" stop-color="#01adee"/><stop offset=".053" stop-color="#15abe6"/><stop offset=".103" stop-color="#22a9e2"/><stop offset=".151" stop-color="#26a9e0"/><stop offset=".327" stop-color="#1b75bb"/><stop offset=".521" stop-color="#2b388f"/><stop offset=".758" stop-color="#1c1651"/><stop offset="1" stop-color="#120742"/></radialGradient><path fill="url(#q)" d="M10.837 44.032c-.018.006-.04.015-.063.019 1.356-6.074 4.486-14.822 10.671-17.404-3.828 6.036-4.049 15.031-10.608 17.385z"/><radialGradient id="r" cx="-408.486" cy="36.935" r="60.316" gradientTransform="matrix(-1 0 0 1 -352.48 0)" gradientUnits="userSpaceOnUse"><stop offset="0" stop-color="#00adee"/><stop offset=".002" stop-color="#01adee"/><stop offset=".053" stop-color="#15abe6"/><stop offset=".103" stop-color="#22a9e2"/><stop offset=".151" stop-color="#26a9e0"/><stop offset=".327" stop-color="#1b75bb"/><stop offset=".521" stop-color="#2b388f"/><stop offset=".758" stop-color="#1c1651"/><stop offset="1" stop-color="#120742"/></radialGradient><path fill="url(#r)" d="M12.63 45.342h.007a67.522 67.522 0 0 1 1.934-.649c-.847 5.572-.615 11.276.565 16.785-3.039-1.014-5.237-4.19-6.011-7.493a43.27 43.27 0 0 1-.033-1.538c0-1.256.068-2.502.184-3.729.555-1.542 1.634-2.782 3.354-3.376z"/><radialGradient id="s" cx="-384.365" cy="23.29" r=".005" gradientTransform="matrix(-1 0 0 1 -352.48 0)" gradientUnits="userSpaceOnUse"><stop offset="0" stop-color="#00adee"/><stop offset=".002" stop-color="#01adee"/><stop offset=".053" stop-color="#15abe6"/><stop offset=".103" stop-color="#22a9e2"/><stop offset=".151" stop-color="#26a9e0"/><stop offset=".327" stop-color="#1b75bb"/><stop offset=".521" stop-color="#2b388f"/><stop offset=".758" stop-color="#1c1651"/><stop offset="1" stop-color="#120742"/></radialGradient><path fill="url(#s)" d="M31.881 23.29l-.002.002c.019-.004.017-.004.002-.002z"/><radialGradient id="t" cx="-408.478" cy="36.939" r="60.303" gradientTransform="matrix(-1 0 0 1 -352.48 0)" gradientUnits="userSpaceOnUse"><stop offset="0" stop-color="#00adee"/><stop offset=".002" stop-color="#01adee"/><stop offset=".053" stop-color="#15abe6"/><stop offset=".103" stop-color="#22a9e2"/><stop offset=".151" stop-color="#26a9e0"/><stop offset=".327" stop-color="#1b75bb"/><stop offset=".521" stop-color="#2b388f"/><stop offset=".758" stop-color="#1c1651"/><stop offset="1" stop-color="#120742"/></radialGradient><path fill="url(#t)" d="M30.691 67.04c10.907 1.664 22.083 1.568 32.987-.053-2.404 15.99-14.129 16.097-28.746 12.431-.016-.003-.028-.008-.043-.011-3.399-.859-3.762-9.178-4.198-12.367z"/><radialGradient id="u" cx="-408.479" cy="36.939" r="60.31" gradientTransform="matrix(-1 0 0 1 -352.48 0)" gradientUnits="userSpaceOnUse"><stop offset="0" stop-color="#00adee"/><stop offset=".002" stop-color="#01adee"/><stop offset=".053" stop-color="#15abe6"/><stop offset=".103" stop-color="#22a9e2"/><stop offset=".151" stop-color="#26a9e0"/><stop offset=".327" stop-color="#1b75bb"/><stop offset=".521" stop-color="#2b388f"/><stop offset=".758" stop-color="#1c1651"/><stop offset="1" stop-color="#120742"/></radialGradient><path fill="url(#u)" d="M57.066 22.469c3.486.542 5.24 12.63 5.779 15.729-10.641-1.093-21.418-.89-31.991.765 2.376-17.127 8.76-19.198 26.212-16.494z"/><radialGradient id="v" cx="-408.242" cy="36.972" r="60.086" gradientTransform="matrix(-1 0 0 1 -352.48 0)" gradientUnits="userSpaceOnUse"><stop offset="0" stop-color="#00adee"/><stop offset=".002" stop-color="#01adee"/><stop offset=".053" stop-color="#15abe6"/><stop offset=".103" stop-color="#22a9e2"/><stop offset=".151" stop-color="#26a9e0"/><stop offset=".327" stop-color="#1b75bb"/><stop offset=".521" stop-color="#2b388f"/><stop offset=".758" stop-color="#1c1651"/><stop offset="1" stop-color="#120742"/></radialGradient><path fill="url(#v)" d="M22.675 74.642c.031.012.401.219 0 0z"/><radialGradient id="w" cx="-408.475" cy="36.939" r="60.303" gradientTransform="matrix(-1 0 0 1 -352.48 0)" gradientUnits="userSpaceOnUse"><stop offset="0" stop-color="#00adee"/><stop offset=".002" stop-color="#01adee"/><stop offset=".053" stop-color="#15abe6"/><stop offset=".103" stop-color="#22a9e2"/><stop offset=".151" stop-color="#26a9e0"/><stop offset=".327" stop-color="#1b75bb"/><stop offset=".521" stop-color="#2b388f"/><stop offset=".758" stop-color="#1c1651"/><stop offset="1" stop-color="#120742"/></radialGradient><path fill="url(#w)" d="M17.7 64.19c11.755 2.936 10.104 2.98 13.548 14.16a53.85 53.85 0 0 1-8.573-3.709c-2.862-1.56-4.11-7.402-4.975-10.451z"/><radialGradient id="x" cx="-408.882" cy="36.201" r="61.371" gradientTransform="matrix(-1 0 0 1 -352.48 0)" gradientUnits="userSpaceOnUse"><stop offset="0" stop-color="#00adee"/><stop offset=".002" stop-color="#01adee"/><stop offset=".053" stop-color="#15abe6"/><stop offset=".103" stop-color="#22a9e2"/><stop offset=".151" stop-color="#26a9e0"/><stop offset=".327" stop-color="#1b75bb"/><stop offset=".521" stop-color="#2b388f"/><stop offset=".758" stop-color="#1c1651"/><stop offset="1" stop-color="#120742"/></radialGradient><path fill="url(#x)" d="M34.889 79.407h.005c-.131-.032-.07-.017-.005 0z"/><radialGradient id="y" cx="-407.805" cy="36.65" r="60.257" gradientTransform="matrix(-1 0 0 1 -352.48 0)" gradientUnits="userSpaceOnUse"><stop offset="0" stop-color="#00adee"/><stop offset=".002" stop-color="#01adee"/><stop offset=".053" stop-color="#15abe6"/><stop offset=".103" stop-color="#22a9e2"/><stop offset=".151" stop-color="#26a9e0"/><stop offset=".327" stop-color="#1b75bb"/><stop offset=".521" stop-color="#2b388f"/><stop offset=".758" stop-color="#1c1651"/><stop offset="1" stop-color="#120742"/></radialGradient><path fill="url(#y)" d="M34.894 79.407c.01.003.022.008.038.011.058.015.093.022-.038-.011z"/><radialGradient id="z" cx="-408.394" cy="31.354" r="67.412" gradientTransform="matrix(-1 0 0 1 -352.48 0)" gradientUnits="userSpaceOnUse"><stop offset="0" stop-color="#00adee"/><stop offset=".002" stop-color="#01adee"/><stop offset=".053" stop-color="#15abe6"/><stop offset=".103" stop-color="#22a9e2"/><stop offset=".151" stop-color="#26a9e0"/><stop offset=".327" stop-color="#1b75bb"/><stop offset=".521" stop-color="#2b388f"/><stop offset=".758" stop-color="#1c1651"/><stop offset="1" stop-color="#120742"/></radialGradient><path fill="url(#z)" d="M32.153 65.401c-.149-.023-.078-.015 0 0z"/><radialGradient id="A" cx="-408.465" cy="36.993" r="60.241" gradientTransform="matrix(-1 0 0 1 -352.48 0)" gradientUnits="userSpaceOnUse"><stop offset="0" stop-color="#00adee"/><stop offset=".002" stop-color="#01adee"/><stop offset=".053" stop-color="#15abe6"/><stop offset=".103" stop-color="#22a9e2"/><stop offset=".151" stop-color="#26a9e0"/><stop offset=".327" stop-color="#1b75bb"/><stop offset=".521" stop-color="#2b388f"/><stop offset=".758" stop-color="#1c1651"/><stop offset="1" stop-color="#120742"/></radialGradient><path fill="url(#A)" d="M68.639 82.584c.129-.091.256-.174.383-.267-2.536 1.843-1.137.81-.383.267z"/><radialGradient id="B" cx="-408.478" cy="36.934" r="60.312" gradientTransform="matrix(-1 0 0 1 -352.48 0)" gradientUnits="userSpaceOnUse"><stop offset="0" stop-color="#00adee"/><stop offset=".002" stop-color="#01adee"/><stop offset=".053" stop-color="#15abe6"/><stop offset=".103" stop-color="#22a9e2"/><stop offset=".151" stop-color="#26a9e0"/><stop offset=".327" stop-color="#1b75bb"/><stop offset=".521" stop-color="#2b388f"/><stop offset=".758" stop-color="#1c1651"/><stop offset="1" stop-color="#120742"/></radialGradient><path fill="url(#B)" d="M72.145 77.219a79.361 79.361 0 0 1-3.123 5.099 5.508 5.508 0 0 0-.383.267 36.98 36.98 0 0 1-10.33 5.146c4.619-7.396 5.773-6.944 13.836-10.512z"/><radialGradient id="C" cx="-408.479" cy="36.94" r="60.304" gradientTransform="matrix(-1 0 0 1 -352.48 0)" gradientUnits="userSpaceOnUse"><stop offset="0" stop-color="#00adee"/><stop offset=".002" stop-color="#01adee"/><stop offset=".053" stop-color="#15abe6"/><stop offset=".103" stop-color="#22a9e2"/><stop offset=".151" stop-color="#26a9e0"/><stop offset=".327" stop-color="#1b75bb"/><stop offset=".521" stop-color="#2b388f"/><stop offset=".758" stop-color="#1c1651"/><stop offset="1" stop-color="#120742"/></radialGradient><path fill="url(#C)" d="M79.457 51.879c-.086 10.224-2.904 11.011-12.682 12.745-.318.059-.633.114-.953.167.961-8.18.451-16.382-.752-24.497 9.975 1.204 14.479.896 14.387 11.585z"/><radialGradient id="D" cx="-407.941" cy="33.198" r="65.707" gradientTransform="matrix(-1 0 0 1 -352.48 0)" gradientUnits="userSpaceOnUse"><stop offset="0" stop-color="#00adee"/><stop offset=".002" stop-color="#01adee"/><stop offset=".053" stop-color="#15abe6"/><stop offset=".103" stop-color="#22a9e2"/><stop offset=".151" stop-color="#26a9e0"/><stop offset=".327" stop-color="#1b75bb"/><stop offset=".521" stop-color="#2b388f"/><stop offset=".758" stop-color="#1c1651"/><stop offset="1" stop-color="#120742"/></radialGradient><path fill="url(#D)" d="M64.475 78.177c-.014.003-.025.008-.039.013h.004a.128.128 0 0 1 .035-.013z"/><radialGradient id="E" cx="-408.478" cy="36.938" r="60.306" gradientTransform="matrix(-1 0 0 1 -352.48 0)" gradientUnits="userSpaceOnUse"><stop offset="0" stop-color="#00adee"/><stop offset=".002" stop-color="#01adee"/><stop offset=".053" stop-color="#15abe6"/><stop offset=".103" stop-color="#22a9e2"/><stop offset=".151" stop-color="#26a9e0"/><stop offset=".327" stop-color="#1b75bb"/><stop offset=".521" stop-color="#2b388f"/><stop offset=".758" stop-color="#1c1651"/><stop offset="1" stop-color="#120742"/></radialGradient><path fill="url(#E)" d="M59.594 81.396c-1.104 2.474-2.416 4.847-3.969 7.065.09-.126-2.395.484-2.547.56-9.853 1.994-15.494.918-18.928-7.909 8.267 2.216 17.123 2.135 25.444.284z"/><radialGradient id="F" cx="-408.478" cy="36.946" r="60.289" gradientTransform="matrix(-1 0 0 1 -352.48 0)" gradientUnits="userSpaceOnUse"><stop offset="0" stop-color="#00adee"/><stop offset=".002" stop-color="#01adee"/><stop offset=".053" stop-color="#15abe6"/><stop offset=".103" stop-color="#22a9e2"/><stop offset=".151" stop-color="#26a9e0"/><stop offset=".327" stop-color="#1b75bb"/><stop offset=".521" stop-color="#2b388f"/><stop offset=".758" stop-color="#1c1651"/><stop offset="1" stop-color="#120742"/></radialGradient><path fill="url(#F)" d="M64.436 78.189c-.023.008-.021.005-.006.005-.59.192-1.186.368-1.785.535 4.326-11.975 2.385-11.276 15.037-14.655-2.344 8.342-4.959 11.476-13.242 14.115h-.004z"/><radialGradient id="G" cx="-408.507" cy="36.903" r="60.352" gradientTransform="matrix(-1 0 0 1 -352.48 0)" gradientUnits="userSpaceOnUse"><stop offset="0" stop-color="#00adee"/><stop offset=".002" stop-color="#01adee"/><stop offset=".053" stop-color="#15abe6"/><stop offset=".103" stop-color="#22a9e2"/><stop offset=".151" stop-color="#26a9e0"/><stop offset=".327" stop-color="#1b75bb"/><stop offset=".521" stop-color="#2b388f"/><stop offset=".758" stop-color="#1c1651"/><stop offset="1" stop-color="#120742"/></radialGradient><path fill="url(#G)" d="M22.377 80.03c.242.217.479.431.727.636-1.745-1.473-1.301-1.12-.727-.636z"/><radialGradient id="H" cx="-408.476" cy="36.923" r="60.317" gradientTransform="matrix(-1 0 0 1 -352.48 0)" gradientUnits="userSpaceOnUse"><stop offset="0" stop-color="#00adee"/><stop offset=".002" stop-color="#01adee"/><stop offset=".053" stop-color="#15abe6"/><stop offset=".103" stop-color="#22a9e2"/><stop offset=".151" stop-color="#26a9e0"/><stop offset=".327" stop-color="#1b75bb"/><stop offset=".521" stop-color="#2b388f"/><stop offset=".758" stop-color="#1c1651"/><stop offset="1" stop-color="#120742"/></radialGradient><path fill="url(#H)" d="M34.612 86.492c.131.247.037.078 0 .011.182.333.362.658.55.98-7.363-2.493-8.906-4.715-12.141-10.595 6.759 3.425 8.056 3.085 11.591 9.604z"/><radialGradient id="I" cx="-408.505" cy="36.932" r="60.331" gradientTransform="matrix(-1 0 0 1 -352.48 0)" gradientUnits="userSpaceOnUse"><stop offset="0" stop-color="#00adee"/><stop offset=".002" stop-color="#01adee"/><stop offset=".053" stop-color="#15abe6"/><stop offset=".103" stop-color="#22a9e2"/><stop offset=".151" stop-color="#26a9e0"/><stop offset=".327" stop-color="#1b75bb"/><stop offset=".521" stop-color="#2b388f"/><stop offset=".758" stop-color="#1c1651"/><stop offset="1" stop-color="#120742"/></radialGradient><path fill="url(#I)" d="M18.676 72.254c-4.256-2.791-5.668-4.014-7.201-9.226.002-.018-.255-.983-.285-.996 5.873 2.192 5.02 4.584 7.486 10.222z"/><radialGradient id="J" cx="-408.494" cy="36.94" r="60.313" gradientTransform="matrix(-1 0 0 1 -352.48 0)" gradientUnits="userSpaceOnUse"><stop offset="0" stop-color="#00adee"/><stop offset=".002" stop-color="#01adee"/><stop offset=".053" stop-color="#15abe6"/><stop offset=".103" stop-color="#22a9e2"/><stop offset=".151" stop-color="#26a9e0"/><stop offset=".327" stop-color="#1b75bb"/><stop offset=".521" stop-color="#2b388f"/><stop offset=".758" stop-color="#1c1651"/><stop offset="1" stop-color="#120742"/></radialGradient><path fill="url(#J)" d="M23.104 80.666a16.141 16.141 0 0 0-.727-.636 37.297 37.297 0 0 1-6.394-7.388c3.72 2.645 4.695 4.065 7.121 8.024z"/><radialGradient id="K" cx="-408.493" cy="36.931" r="60.305" gradientTransform="matrix(-1 0 0 1 -352.48 0)" gradientUnits="userSpaceOnUse"><stop offset="0" stop-color="#00adee"/><stop offset=".002" stop-color="#01adee"/><stop offset=".053" stop-color="#15abe6"/><stop offset=".103" stop-color="#22a9e2"/><stop offset=".151" stop-color="#26a9e0"/><stop offset=".327" stop-color="#1b75bb"/><stop offset=".521" stop-color="#2b388f"/><stop offset=".758" stop-color="#1c1651"/><stop offset="1" stop-color="#120742"/></radialGradient><path fill="url(#K)" d="M76.426 75.164c-.039.025-.357.436-.396.499a36.907 36.907 0 0 1-2.441 2.726c1.02-1.798 1.063-2.307 2.837-3.225z"/><radialGradient id="L" cx="-408.477" cy="36.807" r="60.457" gradientTransform="matrix(-1 0 0 1 -352.48 0)" gradientUnits="userSpaceOnUse"><stop offset="0" stop-color="#00adee"/><stop offset=".002" stop-color="#01adee"/><stop offset=".053" stop-color="#15abe6"/><stop offset=".103" stop-color="#22a9e2"/><stop offset=".151" stop-color="#26a9e0"/><stop offset=".327" stop-color="#1b75bb"/><stop offset=".521" stop-color="#2b388f"/><stop offset=".758" stop-color="#1c1651"/><stop offset="1" stop-color="#120742"/></radialGradient><path fill="url(#L)" d="M53.078 89.021c.822-.169 1.67-.353 2.547-.56-2.037.479-2.627.596-2.547.56z"/><radialGradient id="M" cx="-408.493" cy="36.938" r="60.289" gradientTransform="matrix(-1 0 0 1 -352.48 0)" gradientUnits="userSpaceOnUse"><stop offset="0" stop-color="#00adee"/><stop offset=".002" stop-color="#01adee"/><stop offset=".053" stop-color="#15abe6"/><stop offset=".103" stop-color="#22a9e2"/><stop offset=".151" stop-color="#26a9e0"/><stop offset=".327" stop-color="#1b75bb"/><stop offset=".521" stop-color="#2b388f"/><stop offset=".758" stop-color="#1c1651"/><stop offset="1" stop-color="#120742"/></radialGradient><path fill="url(#M)" d="M81.502 61.071c-.426.134-.854.26-1.283.381 1.291-6.031 1.439-12.309.275-18.377 5.852 1.398 5.832 16.531 1.008 17.996z"/><radialGradient id="N" cx="-913.476" cy="165.203" r="60.335" gradientTransform="matrix(-.6982 -.432 -.3361 .5432 -506.478 -466.375)" gradientUnits="userSpaceOnUse"><stop offset="0" stop-color="#00adee"/><stop offset=".002" stop-color="#01adee"/><stop offset=".053" stop-color="#15abe6"/><stop offset=".103" stop-color="#22a9e2"/><stop offset=".151" stop-color="#26a9e0"/><stop offset=".327" stop-color="#1b75bb"/><stop offset=".521" stop-color="#2b388f"/><stop offset=".758" stop-color="#1c1651"/><stop offset="1" stop-color="#120742"/></radialGradient><path fill="url(#N)" d="M91.811 20.617c.139.155.271.307.4.46-.059-.071.184.726.348 1.24.857 3.393.986 6.77.369 9.9-2.901-2.692-.707-8.056-1.117-11.6z"/><radialGradient id="O" cx="-913.428" cy="165.193" r="60.446" gradientTransform="matrix(-.6982 -.432 -.3361 .5432 -506.478 -466.375)" gradientUnits="userSpaceOnUse"><stop offset="0" stop-color="#00adee"/><stop offset=".002" stop-color="#01adee"/><stop offset=".053" stop-color="#15abe6"/><stop offset=".103" stop-color="#22a9e2"/><stop offset=".151" stop-color="#26a9e0"/><stop offset=".327" stop-color="#1b75bb"/><stop offset=".521" stop-color="#2b388f"/><stop offset=".758" stop-color="#1c1651"/><stop offset="1" stop-color="#120742"/></radialGradient><path fill="url(#O)" d="M92.559 22.317a22.578 22.578 0 0 0-.348-1.24c.635 2.056.539 1.846.348 1.24z"/><radialGradient id="P" cx="-419.352" cy="64.609" r=".012" gradientTransform="matrix(-1 0 0 1 -352.48 0)" gradientUnits="userSpaceOnUse"><stop offset="0" stop-color="#00adee"/><stop offset=".002" stop-color="#01adee"/><stop offset=".053" stop-color="#15abe6"/><stop offset=".103" stop-color="#22a9e2"/><stop offset=".151" stop-color="#26a9e0"/><stop offset=".327" stop-color="#1b75bb"/><stop offset=".521" stop-color="#2b388f"/><stop offset=".758" stop-color="#1c1651"/><stop offset="1" stop-color="#120742"/></radialGradient><path fill="url(#P)" d="M66.855 64.611c.036-.007.051-.007 0 0z"/><radialGradient id="Q" cx="-408.787" cy="35.773" r="61.316" gradientTransform="matrix(-1 0 0 1 -352.48 0)" gradientUnits="userSpaceOnUse"><stop offset="0" stop-color="#00adee"/><stop offset=".002" stop-color="#01adee"/><stop offset=".053" stop-color="#15abe6"/><stop offset=".103" stop-color="#22a9e2"/><stop offset=".151" stop-color="#26a9e0"/><stop offset=".327" stop-color="#1b75bb"/><stop offset=".521" stop-color="#2b388f"/><stop offset=".758" stop-color="#1c1651"/><stop offset="1" stop-color="#120742"/></radialGradient><path fill="url(#Q)" d="M82.119 62.799h-.004c-.033.013-.045.015.004 0z"/><radialGradient id="R" cx="-408.481" cy="36.944" r="60.294" gradientTransform="matrix(-1 0 0 1 -352.48 0)" gradientUnits="userSpaceOnUse"><stop offset="0" stop-color="#00adee"/><stop offset=".002" stop-color="#01adee"/><stop offset=".053" stop-color="#15abe6"/><stop offset=".103" stop-color="#22a9e2"/><stop offset=".151" stop-color="#26a9e0"/><stop offset=".327" stop-color="#1b75bb"/><stop offset=".521" stop-color="#2b388f"/><stop offset=".758" stop-color="#1c1651"/><stop offset="1" stop-color="#120742"/></radialGradient><path fill="url(#R)" d="M82.115 62.799c.055-.015.172-.051.004 0 .258-.075.51-.151.768-.232-1.266 4.373-2.588 8.473-6.631 10.621 1.717-3.74 1.855-9.154 5.859-10.389z"/><radialGradient id="S" cx="-408.782" cy="36.99" r="60.048" gradientTransform="matrix(-1 0 0 1 -352.48 0)" gradientUnits="userSpaceOnUse"><stop offset="0" stop-color="#00adee"/><stop offset=".002" stop-color="#01adee"/><stop offset=".053" stop-color="#15abe6"/><stop offset=".103" stop-color="#22a9e2"/><stop offset=".151" stop-color="#26a9e0"/><stop offset=".327" stop-color="#1b75bb"/><stop offset=".521" stop-color="#2b388f"/><stop offset=".758" stop-color="#1c1651"/><stop offset="1" stop-color="#120742"/></radialGradient><path fill="url(#S)" d="M76.029 75.663c.131-.166.27-.328.396-.499-.339.443-.425.542-.396.499z"/></svg>