<svg xmlns:xlink="http://www.w3.org/1999/xlink"  version="1" xmlns="http://www.w3.org/2000/svg" viewBox="0 0 150 150"><path fill="#5A8BC2" d="M79.5 53.3c9.4-2.7 14.9-12.4 12.2-21.8-2.7-9.4-12.5-14.9-21.9-12.2C60.4 22 55 31.7 57.6 41.1c2.7 9.4 12.5 14.9 21.9 12.2zM78.9 66.1l21.3 12.8 25.5-15.3 7.1 11.9 8.5-33.9-2-.5-30.5-7.7-1.4-.4 5 8.5 2.1 3.4z"/><path fill="#436A93" d="M112.4 90.8L35.6 44.9l2-3.4 5-8.4-1.5.4-30.5 7.7-2 .5 8.6 33.9 7.1-11.9 25.5 15.2 3.9 2.3-16.1 9.6c-13.3 8-25.5 18.9-25.1 27.7.4 9.5 15.3 16.5 59.3 14.3-8.7-.9-15.2-2.2-20-3.6-8.8-2.6-11.6-6-11.2-9.5.5-4.5 6.5-9.1 12.3-12.5L75 93.9l22.3 13.3c5.7 3.4 11.7 8.1 12.2 12.5.4 3.5-2.4 6.8-11.2 9.5-4.8 1.4-11.3 2.7-20 3.6 43.9 2.2 58.9-4.8 59.3-14.3.3-8.8-11.8-19.8-25.2-27.7z"/></svg>