<svg xmlns:xlink="http://www.w3.org/1999/xlink"  version="1" xmlns="http://www.w3.org/2000/svg" viewBox="0 0 150 150"><path fill="#00649D" d="M76.5 10.2c-36.1 0-65.4 29.3-65.4 65.4 0 36.1 29.4 65.4 65.4 65.4 36.1 0 65.4-29.4 65.4-65.4 0-36-29.3-65.4-65.4-65.4zM135.3 74H119c-.1-5.1-.6-10-1.4-14.7 8.4 2.9 14.6 6.7 17.5 10.9.1 1.2.2 2.5.2 3.8zm-1-9.4c-4.1-3.5-10.1-6.6-17.5-9.1-.8-3.8-1.9-7.4-3.2-10.8 9.5 4.8 16.8 11.4 20.5 19.1.1.2.2.5.2.8zm-3.2-10.9c-4.9-5.4-11.5-10-19.3-13.4-3.5-7.8-8.1-14.4-13.4-19.3 14.9 6 26.7 17.9 32.7 32.7zM88.4 18c7.6 3.7 14.2 11 19 20.5-3.4-1.3-7-2.3-10.8-3.1-2.4-7.4-5.5-13.4-9.1-17.5.4 0 .6 0 .9.1zm-10.3-1.2c1.3 0 2.6.1 3.9.2 4.2 3 8 9.2 10.9 17.6-4.7-.8-9.7-1.3-14.8-1.4V16.8zM71 17c1.3-.1 2.6-.2 3.9-.2v16.4c-5.1.1-10 .6-14.8 1.4C63 26.2 66.8 20 71 17zm-5.6.8c-3.6 4.1-6.6 10.1-9.1 17.5-3.8.8-7.4 1.9-10.8 3.1C50.4 29 57 21.7 64.6 18c.3-.1.5-.1.8-.2zM54.6 21c-5.4 4.9-10 11.5-13.4 19.3-7.8 3.5-14.4 8.1-19.3 13.4C27.9 38.9 39.7 27 54.6 21zM18.8 63.8c3.7-7.6 11-14.2 20.5-19.1-1.3 3.4-2.3 7-3.2 10.8-7.4 2.4-13.4 5.5-17.5 9.1.1-.3.2-.6.2-.8zm-.9 6.3c2.9-4.2 9.2-8 17.5-10.9-.8 4.8-1.3 9.7-1.4 14.8H17.7c0-1.3.1-2.6.2-3.9zm-.2 7.2H34c.1 5.1.6 10 1.4 14.7-8.4-2.9-14.6-6.7-17.5-10.9-.1-1.2-.2-2.5-.2-3.8zm1 9.5c4.1 3.6 10.1 6.6 17.5 9.1.8 3.8 1.9 7.4 3.2 10.8-9.5-4.8-16.8-11.4-20.5-19.1-.1-.3-.2-.6-.2-.8zm3.2 10.8c4.9 5.4 11.5 9.9 19.3 13.4 3.5 7.8 8.1 14.4 13.4 19.3-14.9-6-26.7-17.9-32.7-32.7zm42.7 35.7c-7.6-3.8-14.2-11-19-20.5 3.4 1.3 7 2.3 10.8 3.2 2.4 7.4 5.5 13.4 9.1 17.5-.4-.1-.6-.1-.9-.2zm10.3 1.2c-1.3 0-2.6-.1-3.9-.2-4.2-3-8-9.2-10.9-17.6 4.7.8 9.7 1.3 14.8 1.4v16.4zm0-20v.3c-5.5-.1-10.8-.7-15.9-1.7 0-.1-.1-.3-.1-.4-1.3-.3-2.5-.5-3.7-.8 0 .1.1.2.1.4-3.4-.8-6.7-1.9-9.7-3.1-1.2-.4-1.9-.7-1.9-.7-1.5-3.6-2.8-7.5-3.8-11.7.1 0 .2 0 .2.1-.3-1.2-.6-2.5-.8-3.7-.1 0-.2 0-.2-.1-1-5.1-1.6-10.4-1.7-15.9h.1v-3.3c0-1.6.1-3.3.2-4.9.1-1.1.2-2.1.3-3.1v-.2c1.5-14.2 5.8-23 5.8-23 1.4-.6 2.9-1.1 4.3-1.6.8-.3 1.6-.5 2.4-.8 1.4-.4 2.8-.8 4.1-1.2l.9-.3c1.2-.3 2.5-.6 3.7-.8h.2c13.3-2.7 25.3-1.8 34.2-.1.2 0 .5.1.7.1 1.3.3 2.5.5 3.7.8h.1c7.2 1.8 11.5 3.8 11.5 3.8 1.5 3.6 2.8 7.5 3.8 11.6-.1 0-.2 0-.2-.1.3 1.3.6 2.5.8 3.7.1 0 .2 0 .2.1 1 5 1.6 10.4 1.7 15.9h-.2v3.3h.2c-.1 5.5-.7 10.8-1.7 15.9h-.2c-.2 1.3-.5 2.5-.8 3.7h.1c-.6 2.3-1.3 4.6-2 6.8-1 3.1-1.8 4.9-1.8 4.9-1.3.5-2.5 1-3.8 1.4-2.5.9-5.1 1.7-7.9 2.4v-.1c-1.2.3-2.5.6-3.7.8v.1c-5.1 1-10.4 1.6-15.9 1.7v-.3c-1.2.2-2.3.1-3.3.1zm7.1 19.8c-1.3.1-2.6.2-3.9.2v-16.4c5.1-.1 10-.6 14.8-1.4-2.9 8.4-6.7 14.6-10.9 17.6zm5.6-.8c3.6-4.1 6.7-10.1 9.1-17.5 3.8-.8 7.4-1.9 10.8-3.2-4.8 9.5-11.4 16.8-19 20.5-.4.1-.6.1-.9.2zm10.8-3.2c5.4-4.9 10-11.5 13.4-19.3 7.8-3.5 14.4-8.1 19.3-13.4-6 14.8-17.8 26.7-32.7 32.7zm35.8-42.8c-3.8 7.6-11 14.2-20.5 19.1 1.3-3.4 2.3-7 3.2-10.8 7.4-2.4 13.4-5.5 17.5-9.1-.1.3-.2.6-.2.8zm.9-6.3c-2.9 4.2-9.2 8-17.5 10.9.8-4.7 1.3-9.7 1.4-14.7h16.4c-.1 1.2-.2 2.5-.3 3.8z"/><path fill="#008EBC" d="M76.5 40.3c-19.4 0-35.2 15.8-35.2 35.2 0 19.4 15.8 35.2 35.2 35.2 19.4 0 35.2-15.8 35.2-35.2 0-19.4-15.8-35.2-35.2-35.2zm6.4 66.3c-.1 0-.3 0-.4.1 1.9-2.2 3.6-5.4 4.9-9.4 2-.5 4-1 5.8-1.7-2.7 5.1-6.2 9-10.3 11zM59.8 95.5c1.8.7 3.8 1.2 5.8 1.7 1.3 4 3 7.2 4.9 9.4-.1 0-.3-.1-.4-.1-4.1-1.9-7.7-5.8-10.3-11zm10.3-51c.1 0 .3-.1.4-.1-1.9 2.2-3.6 5.4-4.9 9.4-2 .5-4 1-5.8 1.7 2.6-5.1 6.2-9 10.3-11zm23 11c-1.8-.7-3.8-1.2-5.8-1.7-1.3-4-3-7.2-4.9-9.4.1 0 .3.1.4.1 4.2 2 7.7 5.9 10.3 11zm-13.7 51.6c-.7.1-1.4.1-2.1.1v-8.8c2.7 0 5.4-.3 7.9-.8-1.5 4.5-3.5 7.9-5.8 9.5zm-11.8-9.5c2.5.5 5.2.7 7.9.8v8.8c-.7 0-1.4-.1-2.1-.1-2.2-1.6-4.2-5-5.8-9.5zM73.5 44c.7-.1 1.4-.1 2.1-.1v8.8c-2.7 0-5.4.3-7.9.8 1.5-4.6 3.5-8 5.8-9.5zm11.8 9.4c-2.5-.5-5.2-.7-7.9-.8v-8.8c.7 0 1.4.1 2.1.1 2.2 1.6 4.2 5 5.8 9.5zm22.9 21.2h-8.8c0-2.7-.3-5.4-.8-7.9 4.5 1.6 7.9 3.6 9.5 5.9 0 .7 0 1.4.1 2zm-10.6 0h-7.2c0-3.6-.3-7-.7-10.2 2.5.4 4.9 1 7 1.6.5 2.8.8 5.7.9 8.6zm-9 0H77.4V63.4c3.6.1 7.2.3 10.5.8.4 3.3.7 6.8.7 10.4zm-11.2-13v-7.2c3 0 5.8.4 8.6.9.6 2.1 1.2 4.5 1.6 7-3.3-.4-6.7-.6-10.2-.7zm-1.8-7.2v7.2c-3.6 0-7 .3-10.2.7.4-2.5 1-4.9 1.6-7 2.7-.5 5.6-.8 8.6-.9zm0 9v11.3H64.3c0-3.6.3-7.2.8-10.5 3.3-.5 6.8-.8 10.5-.8zm-13 11.2h-7.2c.1-3 .3-5.8.9-8.6 2.1-.6 4.5-1.2 7-1.6-.5 3.2-.7 6.7-.7 10.2zm-9 0h-8.8c0-.7.1-1.4.1-2.1 1.6-2.3 4.9-4.3 9.5-5.9-.5 2.6-.7 5.3-.8 8zm-8.8 1.8h8.8c0 2.7.3 5.4.8 7.9-4.5-1.6-7.9-3.6-9.5-5.9-.1-.6-.1-1.3-.1-2zm10.6 0h7.2c0 3.6.3 7 .7 10.2-2.5-.4-4.9-1-7-1.6-.6-2.8-.9-5.6-.9-8.6zm8.9 0h11.3v11.3c-3.6 0-7.2-.3-10.5-.8-.5-3.3-.7-6.8-.8-10.5zm11.3 13v7.2c-3-.1-5.8-.4-8.6-.9-.6-2.1-1.2-4.5-1.6-7 3.2.4 6.6.7 10.2.7zm1.8 7.2v-7.2c3.6 0 7-.3 10.2-.7-.4 2.5-1 4.9-1.6 7-2.8.6-5.7.9-8.6.9zm0-8.9V76.4h11.2c0 3.7-.3 7.2-.8 10.5-3.3.5-6.8.7-10.4.8zm13-11.3h7.2c-.1 3-.4 5.8-.9 8.6-2.1.6-4.5 1.2-7 1.6.4-3.2.6-6.6.7-10.2zm8.9 0h8.8c0 .7-.1 1.4-.1 2.1-1.6 2.3-4.9 4.3-9.5 5.9.5-2.6.8-5.3.8-8zm8.3-6.8c-2.2-1.9-5.4-3.6-9.4-4.9-.5-2-1-4-1.7-5.8 5.1 2.6 9 6.2 11.1 10.3v.4zm-11.4-5.5c-2.1-.6-4.4-1.1-6.8-1.5-.4-2.4-.9-4.7-1.5-6.8 2.2.5 4.3 1.2 6.3 2.1.8 1.9 1.5 4 2 6.2zM65 55.8c-.6 2.1-1.1 4.4-1.5 6.8-2.4.4-4.7.9-6.9 1.5.5-2.2 1.2-4.3 2.1-6.3 2-.8 4.1-1.5 6.3-2zm-10.2 8.9c-4 1.3-7.2 3-9.4 4.9 0-.1 0-.3.1-.4 2-4.1 5.9-7.7 11-10.3-.7 1.8-1.3 3.7-1.7 5.8zm-9.5 16.8c2.2 1.9 5.4 3.6 9.4 4.9.5 2 1 3.9 1.7 5.8-5.1-2.6-9-6.1-11-10.3 0-.1 0-.3-.1-.4zM56.7 87c2.1.6 4.4 1.1 6.9 1.5.4 2.4.9 4.7 1.5 6.8-2.2-.5-4.3-1.2-6.3-2.1-.9-1.9-1.6-4-2.1-6.2zm31.2 8.3c.6-2.1 1.1-4.4 1.5-6.8 2.4-.4 4.7-.9 6.8-1.5-.5 2.2-1.2 4.3-2.1 6.3-1.9.8-4 1.5-6.2 2zm10.3-8.9c4-1.3 7.2-3 9.4-4.9 0 .1 0 .3-.1.4-2 4.1-5.9 7.7-11.1 10.3.8-1.9 1.3-3.8 1.8-5.8zm7.7-22.7c-2.6-2.9-6.2-5.4-10.4-7.2-1.9-4.2-4.3-7.8-7.2-10.4 8 3.2 14.4 9.6 17.6 17.6zM64.7 46.1c-2.9 2.6-5.4 6.2-7.2 10.4-4.2 1.9-7.8 4.3-10.4 7.2 3.2-8 9.6-14.4 17.6-17.6zM47.1 87.3c2.6 2.9 6.2 5.4 10.4 7.2 1.9 4.2 4.3 7.8 7.2 10.4-8-3.2-14.4-9.6-17.6-17.6zm41.2 17.6c2.9-2.6 5.4-6.2 7.2-10.4 4.2-1.9 7.8-4.3 10.4-7.2-3.2 8-9.6 14.4-17.6 17.6z"/></svg>