<svg xmlns:xlink="http://www.w3.org/1999/xlink"  xmlns="http://www.w3.org/2000/svg" viewBox="0 0 150 150"><circle fill="#00A8DE" cx="76.3" cy="76.8" r="57.3"/><path fill="#6FC6EA" d="M51.4 44.9C70.3 40.8 83.8 33 91.8 21.6c-1.8-.5-3.6-.9-5.4-1.2-6.2 7.9-17.1 15.4-36 19.4-9.9 2.1-18 5.3-24.4 9.6-1.8 3.4-3.3 7-4.5 10.7 6.1-7.1 16.2-12.3 29.9-15.2zm81 20.3C128 75.9 117.2 88 91.2 93.6c-18.8 4-31.4 12-37.4 23.6-1.8 3.6-2.9 7.2-3.4 10.6 1.6.8 3.3 1.6 5 2.2.4-3.4 1.3-7 3.1-10.5 5.3-10.2 16.6-17.2 33.8-20.9 19.6-4.2 33.5-12.5 41.3-24.6-.2-3-.6-5.9-1.2-8.8zM62 128c-.7 1.3-1.2 2.5-1.7 3.8 1.7.5 3.4.9 5.1 1.2.4-.9.7-1.8 1.2-2.7 5.3-10.2 16.6-17.2 33.8-20.9 12-2.6 21.8-6.7 29.4-12.2 1.1-2.9 2-5.9 2.6-9-6.5 6.6-16.9 12.7-33.1 16.2-18.8 4-31.3 11.9-37.3 23.6zm11.1 5.9c1 .1 2.1.1 3.2.1 1.2 0 2.4-.1 3.7-.1 6.2-6.4 15.8-11 28.6-13.8 2.5-.5 4.8-1.1 7.1-1.8 2.5-2.4 4.8-5 6.9-7.8-4.4 1.8-9.3 3.3-15.1 4.6-16.1 3.4-27.6 9.8-34.4 18.8zm2.6-114.4c-3.5 0-7 .4-10.4 1-5.1 3-11.5 5.6-19.4 7.6-3.6 2.2-6.9 4.9-9.9 7.8 2.3-.7 4.7-1.3 7.2-1.9 13.7-2.8 24.6-7.7 32.5-14.5zM42.1 98c5.3-10.2 16.6-17.2 33.8-20.9 19.6-4.2 33.5-12.5 41.3-24.6 2.3-3.5 3.8-7 4.8-10.3-1.3-1.7-2.6-3.2-4-4.7-2.5 11.7-11.9 27.8-43.1 34.6-18.8 4-31.4 12-37.4 23.6-3.5 6.8-4.2 13.7-3.8 19.3 1.9 2.1 3.9 4.1 6.1 5.9-1.2-5.4-2.1-14.4 2.3-22.9zm42-10.1c19.6-4.2 33.5-12.5 41.3-24.6 1.7-2.7 3.1-5.4 4-8-1-2.3-2.1-4.6-3.3-6.8C123.5 60.2 114 76.1 83 82.8c-18.8 4-31.4 12-37.4 23.6-2.8 5.5-3.8 11.1-3.9 16 1.7 1.3 3.5 2.5 5.3 3.6-.4-5 .1-11.3 3.2-17.3 5.3-10.1 16.7-17.1 33.9-20.8zm-50.2-.6c5.3-10.2 16.6-17.2 33.8-20.9 19.6-4.2 33.5-12.5 41.3-24.6 1.9-3 3.3-5.9 4.3-8.7-1.4-1.2-2.8-2.3-4.3-3.3-3.5 11.3-13.7 25.4-42.4 31.5-18.8 4-31.4 12-37.4 23.6-3.3 6.3-4.1 12.8-3.8 18.2 2 3.8 4.4 7.4 7.2 10.7-1.2-3.8-4.3-15.6 1.3-26.5zm-8.1-10.8c5.3-10.2 16.6-17.2 33.8-20.9 19.6-4.2 33.5-12.5 41.3-24.6 1-1.6 1.9-3.2 2.6-4.7-1.5-.8-3-1.5-4.6-2.2C94 34.3 83 45.3 58.5 50.6c-18.8 4-31.4 12-37.4 23.6-.9 1.7-1.5 3.3-2.1 5 .3 6.8 1.8 13.3 4.2 19.3-1-5.5-1.6-14 2.6-22z"/><path fill="#AEDBF1" d="M70.9 23.7c-2.9-1-5.7-1.8-8.5-2.5-3.3.8-6.5 1.9-9.5 3.3 4.9.7 10.4 2 16.3 4 12.6 4.4 23.6 5.5 32.9 3.3.5-1.9.8-3.7 1-5.5-8.7 2.6-19.5 1.8-32.2-2.6zM26.5 49.8c-.3.2-.7.3-1 .5-1.4 2.6-2.5 5.4-3.5 8.2 9-7.1 24.5-12.4 50.1-3.6 5.5 1.9 10.6 3.2 15.5 3.8 1.3-1.5 2.6-3.1 3.7-4.7-5.4-.4-11.2-1.8-17.6-3.9-18.6-6.4-34.5-6.5-47.2-.3zM27.9 63c-3.2 1.6-5.9 3.4-8.3 5.3-.4 2.5-.6 5-.6 7.5 7.9-8.8 24-18.2 54.4-7.7 1.2.4 2.3.8 3.5 1.1 1.6-1.3 3-2.7 4.5-4-2-.5-4.1-1.2-6.3-1.9-18.6-6.4-34.5-6.5-47.2-.3zm22.9 21.8c-7.2.1-13.7 1.5-19.6 4.3 6.2-.3 12.9-1.7 19.6-4.3zm21.5-47.9c-11.9-4.1-22.6-5.6-32.2-4.6-2.4 2-4.6 4.1-6.7 6.4 9-2.6 21.1-2.6 37.2 2.9 9.5 3.3 18.2 4.7 25.8 4.3 1-1.8 1.9-3.6 2.7-5.3-7.6 1.1-16.6-.2-26.8-3.7zm-43 39.3c-4 2-7.3 4.3-9.9 6.8.2 1.8.5 3.5.8 5.3.3.1.5.1.8.2 7.1-7.5 20.2-15.1 43.3-10.1 2-1.2 3.9-2.4 5.8-3.8-15.9-4.5-29.6-3.9-40.8 1.6z"/><path fill="#AEDBF1" d="M118.4 102.5c-9.6 5.9-22.8 6-39.1.4-18.6-6.4-34.5-6.5-47.2-.3-1.9.9-3.7 2-5.3 3.1.8 1.4 1.8 2.9 2.7 4.2 9.2-6.4 24.3-10.4 48.1-2.2 17.9 6.2 32.5 5.8 43.5-.9 2.8-1.7 5.1-3.7 7.1-5.8 3.1-6.6 4.9-13.9 5.3-21.5h-.2c-.1.1-2.3 15.3-14.9 23zm-37.7 13.6c-18.3-6.3-34-6.5-46.6-.6 1.2 1.3 2.5 2.6 3.8 3.8 9.3-3.8 22.5-4.8 41.1 1.6 10.5 3.6 19.9 5 28 4.1 3.5-2.2 6.7-4.8 9.7-7.8-9.2 4.3-21.3 3.9-36-1.1zM46 125.3c2.5 1.6 5.2 3 8 4.2 7.2-.3 15.8.9 26 4.4 4-.3 7.9-.9 11.6-2-3-.7-6.2-1.6-9.5-2.7-13.5-4.6-25.6-5.9-36.1-3.9zm62.8-95.7c-1.8-1.2-3.6-2.3-5.5-3.4-8.7 2.7-19.6 1.8-32.4-2.6-2.9-1-5.7-1.8-8.5-2.5-3.3.8-6.5 1.9-9.5 3.3 4.9.7 10.4 2 16.3 4 15.9 5.6 29.2 5.9 39.6 1.2zm23.8 36.7l-.7-.1c0 .2-2.3 15.4-14.8 23.1-9.6 5.9-22.8 6-39.1.4-18.6-6.4-34.5-6.5-47.2-.3-3.5 1.6-6.3 3.6-8.8 5.7.6 1.7 1.2 3.4 1.9 5 8.5-8 24.4-15.2 52.3-5.6 17.9 6.2 32.5 5.8 43.5-.9 7.1-4.4 11.3-10.7 13.8-16v-.8c.1-3.6-.3-7.1-.9-10.5zM70.7 41.7c17.9 6.2 32.5 5.8 43.5-.9 1.5-.9 2.9-1.9 4.1-3l-3.6-3.6c-1 .8-2.1 1.6-3.2 2.3-9.6 5.9-22.8 6-39.1.4-11.9-4.1-22.6-5.6-32.2-4.6-2.4 2-4.6 4.1-6.7 6.4 8.9-2.5 21-2.6 37.2 3zm1.4 13.2c17.9 6.2 32.5 5.8 43.5-.9 3.8-2.3 6.7-5.2 9-8.1-1-1.5-2-3-3.1-4.4-2.1 3-4.9 5.9-8.6 8.2-9.6 5.9-22.8 6-39.1.4-18.6-6.4-34.5-6.5-47.2-.3-.3.2-.7.3-1 .5-1.4 2.6-2.5 5.4-3.5 8.2 8.9-7.1 24.4-12.4 50-3.6zm2.8 26.4c17.9 6.2 32.5 5.8 43.5-.9 7.2-4.4 11.4-10.7 13.9-16.1-.6-2.8-1.4-5.5-2.5-8.1-1.4 4.9-5.1 14.4-14.1 19.9-9.6 5.9-22.8 6-39.1.4-18.7-6.4-34.6-6.5-47.3-.3-4 2-7.3 4.3-9.9 6.8.2 2.1.6 4.1 1 6.1 7.9-8.8 24-18.3 54.5-7.8zm-1.4-13.2c17.9 6.2 32.5 5.8 43.5-.9 5.7-3.5 9.6-8.3 12.1-12.8-.8-2-1.8-3.9-2.8-5.7-2.2 4.8-5.8 10.4-12 14.2-9.6 5.9-22.8 6-39.1.4-18.6-6.4-34.5-6.5-47.2-.3-3.2 1.6-5.9 3.4-8.3 5.3-.4 2.5-.6 5-.6 7.5 7.9-8.8 24-18.2 54.4-7.7z"/></svg>