<svg xmlns:xlink="http://www.w3.org/1999/xlink"  version="1" xmlns="http://www.w3.org/2000/svg" viewBox="0 0 150 150"><path d="M127.2 23.5C121.5 15.2 112.1 10 99.5 8l-.5-.1H51.9l-.6.1c-12.5 2.1-22 7.3-27.6 15.6-4.4 6.5-5.3 13.3-5.3 17.9 0 3.1.4 5.2.5 5.6L33 108.6c6.3 21.2 20 24.5 21.9 24.8l.4.1H62c-.9-1.5-1.6-2.9-2.1-4h-4.1l-.3-.1c-1-.3-12.8-2.3-18.7-21.8l-14-61.4c0-.1-.4-1.9-.4-4.7 0-4.1.8-10.1 4.6-15.7 4.9-7.2 13.1-11.9 25-13.9l.3-.1h12c0 .2-.1.4-.1.7 0 .2.1.4.1.6.2 3.1 1.7 5.9 4 7.8l-9.6 94.9c-21-49.2-23.7-84.7-24-93-11.4 9.1-8.5 22.6-8.5 22.6l14 61.1c5.2 17.5 15.7 19.2 15.7 19.2h4.7c.2.3.4.7.6 1.1 2.8 5.3 7.9 13.4 14.5 17.3 0 0 8.7-8.1 14.9-17.5.2-.3.4-.5.5-.8h3.5s10.5-1.7 15.7-19.2l14-61.1s3-13.8-8.9-22.9c4 45.2-23 93.4-23 93.4L80.7 21.7c3-1.9 5.1-5.2 5.2-9v-.2c0-.3-.1-.4-.1-.7H98.5l.3.1c11.9 2 20.1 6.7 25 13.9 3.8 5.6 4.7 11.6 4.7 15.7 0 2.8-.4 4.5-.4 4.7l-14 61.1c-6 19.8-17.8 21.8-18.8 22.1l-.3.1H91.8c-.8 1.4-1.7 2.7-2.6 4h6.3l.5-.1c1.9-.2 15.6-3.6 22-25L132 47c.1-.3.5-2.4.5-5.5 0-4.6-.9-11.4-5.3-18z"/></svg>