<svg xmlns:xlink="http://www.w3.org/1999/xlink"  version="1" xmlns="http://www.w3.org/2000/svg" viewBox="0 0 150 150"><path fill="#0071BA" d="M89.2 104c-4.3 1.2-5.7-2.5-4.6-4.8.7-1.5.7-1.5 8-4.3 14.3-5.6 31.3-12.9 43.8-21.1V70c-7.3 4.8-17.4 10.2-31.6 16.4-4.7 1.5-6.1-2.8-4.8-5.5.8-1.6.8-1.6 8.3-4.9 7-3.1 18.5-8.6 28-15.3V41.3c-11.3 9.3-31.2 18.9-56.5 29.3-5.2 1.5-7.1-4.1-5.3-6.9.8-1.2.8-1.2 8.1-4.2 22.6-9.5 43.6-19.5 53.7-29.6v-4.7c-11.4 12.9-44.4 26.4-89.9 45-4.9 1.4-6.7-4.3-4.9-7.1.7-1.1.7-1.1 13.3-6.2C93 41.5 126.9 27.8 134 13.8H15v97.3c0 .3.1.5 0 .6V135h121.3v-34.5c-4.3 2.9-10 6.1-17.9 9.8-3.1 1.1-2.6-1.9-2-3.1 1-2.3 1-2.3 7.5-5.4 4-1.9 8.4-4.3 12.5-7V92c-1.6 1-3.3 2.1-5.2 3.2-2.9 1.3-2.9-2.2-1.9-4.4.9-2.1.9-2.1 6.4-5.4.3-.2.4-.3.7-.5V82c-11.4 7.3-27.6 14.4-47.2 22zM28.7 68.9c.6-1.4 1.4-1.7 2.9-2.4 2.9-1 5.3 1.7 5.4 4.7 0 3-1.9 3.8-3.3 4.4-3.6 1.3-6.4-3.4-5-6.7zm-5.2 38.2c-2.7 1.1-6.5-4-5.5-6.3.2-.5.3-.5 1.3-1 1.9-.7 4.5 1.6 5.4 4 .8 2.3-.4 2.9-1.2 3.3zm14.5-6.6c-.1.1-.1.1-6.4 2.8-3.8 1-6.8-4.2-5.4-6.5.4-.6.4-.6 6.9-3.4 3.3-.9 5.4 2.2 5.7 4 .3.7.4 2.2-.8 3.1zm9.9-12.2c.6-1 .6-1 7.1-3.6 46.3-18.3 57.5-23.6 72.1-32.3 3.1-1.4 4.5 2.1 4.6 4.2.1 3.2.1 4.3-16.4 12.3-15.2 7.3-28.9 12.7-62 25.7-4.6 1.1-6.8-3.9-5.4-6.3zm10.2 27.5c-3.2 1-6.4-2.6-5.3-4.9.4-.8.9-1 2.2-1.5 2.5-.8 5.1 1.1 5.5 3.3s-1.3 2.6-2.4 3.1zm10.7-4.1c-4.3 1.1-6.2-3-4.9-5.1.6-.9.6-.9 9-4.1 3.7-1 5.4 1.7 5.3 3.4-.2 2.3-.2 2.3-9.4 5.8zm32.5 4.4c-.8 2-2.6 2.7-3.9 3.2-3 1-4.1-1.4-3.1-3.3.8-1.6 2.1-2.1 3.6-2.7 2.7-1 4.1.7 3.4 2.8zm11.7-4.8c-1 2.2-2.7 2.9-4 3.4-2.8 1-3.5-1.2-2.5-3.2.9-2 2.4-2.6 3.9-3.2 2.6-1 3.6.8 2.6 3z"/><path fill="#FFF" d="M9.2 106c-.1.2.1.6.2.9v-1.2c-.1.1-.2.2-.2.3z"/><path fill="#004275" d="M142.3 78V8.1H9.4V141h132.9V78zm-2.8 14.9V138.2H12.1V10.8H139.3v82.1z"/></svg>