<svg xmlns:xlink="http://www.w3.org/1999/xlink"  version="1" xmlns="http://www.w3.org/2000/svg" viewBox="0 0 150 150"><g fill-rule="evenodd" clip-rule="evenodd"><path fill="#47B8E1" d="M116.1 78.4c-7.5 1.1-40.6 20.3-44.5 13.7-3.5-6 10.3-16.3 9.7-22.3-1.8-17.2-43.2 17.5-48.3 11-2.2-2.8 1.4-7.5 4.1-11.6 5.7-8.6-1.3-8.4-7.9-6.8-5.8 1.4-11.3 4.9-16.9 6.2-.4.9-.7 1.7-1 2.6-1.5 8.1 0 16.3 6.1 22.4 1 1 24.9 34.1 26 35.6 5.1 6.6 12.2 12.2 20.9 11.7 5.6-.5 10.2-3.1 14.3-6.6 10.2-11.1 21-21.9 31.9-32.7 7.8-8.6 18.2-25 5.6-23.2z"/><path fill="#36364E" d="M132 45.7s-1.4-1.2-3.8-3.1c-14-11.3-28.2-22-43.5-31.2-6.1-2-12.2-1.5-18.3.5C50.7 22.1 38 36.3 24.7 49.6c-3.7 4.2-7.5 8.6-9.8 13.8 6-1.4 12.3-6 18.3-8.2 8.7-3.3 15.3-3.8 8.8 7.6-1.7 3-3.1 6.1-1.3 8.1C46.1 77.1 88.4 39.8 91 57c.9 5.9-10.6 20.5-7.9 23.1 5.5 5.3 29.4-18.8 44.7-18.5 12.3.3 6.3 12.9-4.9 25.6l.3-.3c-2.4 3.9-5.3 7.6-7.6 10.1 9.3-7.5 16.5-15.9 20.4-22.9 6.6-8.7 4.5-21.7-4-28.4z"/></g></svg>