<svg xmlns:xlink="http://www.w3.org/1999/xlink"  version="1" xmlns="http://www.w3.org/2000/svg" viewBox="0 0 150 150"><path fill="#483165" d="M92.5 93c9.3-9.3 9.3-24.4 0-33.6-9.3-9.3-24.4-9.3-33.7 0-9.3 9.3-9.3 24.4 0 33.6 9.3 9.3 24.4 9.3 33.7 0z"/><path fill="#00A66D" d="M101.7 135.7c.4.5.8 1 1.3 1.4 9.3 9.3 24.4 9.3 33.7 0 9.3-9.3 9.3-24.3 0-33.7-.3-.3-.6-.6-1-.9-17.9-18.2-18.1-34.4-.4-52.6.5-.4.9-.8 1.4-1.3 9.3-9.3 9.3-24.4 0-33.7-9.3-9.3-24.4-9.3-33.7 0-9.3 9.3-9.3 24.4 0 33.6.4.5.9.9 1.4 1.3 17.7 18.2 17.5 34.3-.4 52.6-.3.3-.7.6-1 .9-.5.5-.9.9-1.3 1.4-18.2 17.7-34.3 17.5-52.6-.5-.3-.3-.5-.6-.8-.9-9.3-9.3-24.4-9.3-33.7 0-9.3 9.3-9.3 24.4 0 33.7 9.3 9.3 24.4 9.3 33.7 0 .3-.3.6-.6.9-1 18.2-17.7 34.3-17.8 52.5-.3z"/></svg>