<svg xmlns:xlink="http://www.w3.org/1999/xlink"  version="1" xmlns="http://www.w3.org/2000/svg" viewBox="0 0 150 150"><path fill="#008BCD" d="M21 147.6V4.5h109.7v143.1H21zm104.7-5v-5 5zm-94.6-5h89.6v-123H31.1v123z"/><path fill="#008BCD" d="M100.8 89.7H51.3c-6.1 0-11.1 5-10.9 11.2.2 11.6 16.4 14.9 21 4v32.7h6.4v-33.4h5.1v33.4H79.2v-33.4h5.1v33.4h6.4V105c4.5 10.5 20.5 8 21-4 .2-6.2-4.8-11.3-10.9-11.3zm4.5 11.2c-.3 4.9-6.8 5.9-8.8 1.7v-4.7h-41v4.7c-2.1 4.3-8.5 2.9-8.8-1.8-.1-2.6 2-4.8 4.6-4.8h49.4c2.7.1 4.8 2.3 4.6 4.9z"/><path fill-rule="evenodd" clip-rule="evenodd" fill="#008BCD" d="M51.3 80.8h49.4v6.3H51.3z"/><path fill-rule="evenodd" clip-rule="evenodd" fill="#006392" d="M100.1 58.7c-2.1-2.2-5.4-2.7-8.6-1.9-1.3.3-2.7.9-3.9 1.7l-1.2-1.2c-.5-.5-1.2-.7-1.7-.4l-1.5-1.5c.1-.3.1-.5-.1-.7l-.9-.9c-.2-.2-.4-.2-.7-.1l-1.1-1.1c.1-.3.1-.5-.1-.7l-.9-.9c-.2-.2-.4-.2-.7-.1l-1.1-1.1c.1-.3.1-.5-.1-.7l-.9-.9c-.2-.2-.4-.2-.7-.1l-6.4-6.4 5.9-5.9-3.6-3.6-3.1 3.1 1.9 1.9-1.2 1.2-5.1-5.1 1.2-1.2 1.9 1.9 3.1-3.1-3.6-3.6-5.9 5.8-.7-.7c-.4-.4-1-.4-1.3-.1l-2.5 2.5c-.3.4-.3.9.1 1.3l15.6 15.6c-.1.3-.1.5.1.7l.9.9c.2.2.4.2.7.1l1.1 1.1c-.1.3-.1.5.1.7l.9.9c.2.2.4.2.7.1l1.1 1.1c-.1.3-.1.5.1.7l.9.9c.2.2.4.2.7.1l1.5 1.5c-.3.4-.1 1.1.4 1.7l1.2 1.2c-2.7 4.4-2.8 9.6.2 12.6 2.2 2.1 5.4 2.7 8.6 1.9 2.3-.6 4.7-1.9 6.7-3.9 4.8-4.8 5.7-11.6 2-15.3zM95.2 71c-1.2 1.2-2.4 2-3.7 2.5-2.2.9-4.4.7-5.7-.6-2.1-2.1-1.2-6.3 1.9-9.4 1.2-1.2 2.5-2 3.7-2.5 2.2-.9 4.4-.7 5.7.6 2.1 2.1 1.2 6.3-1.9 9.4z"/><path fill-rule="evenodd" clip-rule="evenodd" fill="#006392" d="M95.8 34.8l-2.5-2.5c-.3-.3-.9-.3-1.2.1l-.7.7-5.9-5.9-3.6 3.6 3.1 3.1 1.9-1.9 1.2 1.2-5 5.1-1.2-1.2 1.9-1.9-3.1-3.1-3.7 3.6 5.9 5.9-6.5 6.4c-.3-.1-.5-.1-.7.1l-.9.9c-.2.2-.2.4-.1.7l-1.1 1.1c-.3-.1-.5-.1-.7.1l-.9.9c-.2.2-.2.4-.1.7l-1.1 1.1c-.3-.1-.5-.1-.7.1l-.9.9c-.2.2-.2.4-.1.7l-1.5 1.5c-.4-.3-1.1-.1-1.7.4l-1.2 1.2c-1.3-.8-2.6-1.4-3.9-1.7-3.3-.8-6.5-.2-8.6 1.9-3.7 3.7-2.8 10.6 2 15.3 2 2 4.3 3.3 6.7 3.9 3.3.8 6.5.2 8.6-1.9 3-3 3-8.2.2-12.6l1.2-1.2c.5-.5.7-1.2.4-1.7l1.5-1.5c.3.1.5.1.7-.1l.9-.9c.2-.2.2-.4.1-.7l1.1-1.1c.3.1.5.1.7-.1l.9-.9c.2-.2.2-.4.1-.7l1.1-1.1c.3.1.5.1.7-.1l.9-.9c.2-.2.2-.4.1-.7L95.7 36c.4-.3.5-.9.1-1.2zM66.5 73c-1.3 1.3-3.5 1.4-5.7.6-1.3-.5-2.6-1.3-3.7-2.5-3.1-3.1-4-7.3-1.9-9.4 1.3-1.3 3.5-1.4 5.7-.6 1.3.5 2.6 1.3 3.7 2.5 3.1 3.1 4 7.3 1.9 9.4z"/></svg>