<svg xmlns:xlink="http://www.w3.org/1999/xlink"  version="1" xmlns="http://www.w3.org/2000/svg" viewBox="0 0 150 150"><g fill="#F0A11F"><path d="M102.9 93.9c-.6.6-1.2 1.2-1.9 1.8l18.7 22.9c5.9-5 10.9-11.1 14.8-17.9l-29.1-9.6c-.7 1-1.6 1.9-2.5 2.8zM48.7 94.4c-.8-.8-1.5-1.6-2.2-2.4L17 101.3c3.7 6.3 8.3 11.9 13.8 16.7l19.5-22.2c-.5-.5-1.1-.9-1.6-1.4zM68.4 104.7l-13.9 26.9c6 2 12.4 3.1 19 3.3l-1.3-29.6c-1.2-.2-2.5-.3-3.8-.6zM55.9 99.9l-22.3 20.2h-.2c5.3 4.2 11.3 7.7 17.8 10.2l10.4-27.6c-2-.7-3.9-1.7-5.7-2.8zM39.5 79.9L8.5 77c1.2 8 3.7 15.6 7.4 22.4l26.6-13c-1.2-2.1-2.2-4.3-3-6.5zM79.7 105.2L77 134.9c7.4-.2 14.4-1.5 21.1-3.8l-15.2-26.4c-1.1.2-2.1.4-3.2.5zM109.3 85.3l26.5 13c3.5-6.7 5.9-14 7-21.8L112 79.2c-.7 2.1-1.6 4.2-2.7 6.1zM89.7 102.7L101 130c6.1-2.5 11.8-5.8 16.9-9.8L95.6 99.8c-1.9 1.1-3.9 2.1-5.9 2.9z"/></g><path fill="#00AEDB" d="M89.3 17.6v77.8C99.7 89.7 107 80.7 107 80.7V17.6H89.3z"/><path fill="#0091B7" d="M66.7 99.1c11.5 3 19-2 19-2V35.3h-19v63.8z"/><path fill="#00AEDB" d="M45 79.3c2.7 8.4 18.3 18.9 18.3 18.9V51.1H45v28.2z"/></svg>