<svg xmlns:xlink="http://www.w3.org/1999/xlink"  xmlns="http://www.w3.org/2000/svg" width="100" height="100" viewBox="0 0 100 100"><path fill="#1B75BB" d="M69.92 27.073a2.006 2.006 0 0 0-2.003 2.008v22.407L55.955 75.861c-4.546-2.357-8.854-1.158-11.124-.156L33.608 52.123V28.328A2.004 2.004 0 0 0 31.6 26.32a2.006 2.006 0 0 0-2.008 2.008v24.25c0 .297.064.594.192.861L48.51 92.771a2.005 2.005 0 0 0 1.804 1.146h.012a2 2 0 0 0 1.799-1.123l19.605-39.96c.134-.273.203-.576.203-.885V29.082a2.007 2.007 0 0 0-2.013-2.009z"/><path fill="#003058" d="M51.199 29.582L29.467 14.631l12.308 21.863 9.553-7.412"/><path fill="#003058" d="M50.943 29.407l21.62-14.776-12.318 21.863"/><path fill="#1B75BB" d="M53.086 34.608a2.259 2.259 0 0 1-2.259 2.258 2.26 2.26 0 1 1 0-4.522 2.267 2.267 0 0 1 2.259 2.264zM35.596 15.612s13.542-6.083 30.22.41l4.255-2.637s-17.999-11.031-37.685-.37"/></svg>