<svg xmlns:xlink="http://www.w3.org/1999/xlink"  xmlns="http://www.w3.org/2000/svg" viewBox="0 0 150 150"><path fill="#B85856" d="M95.8 93.5s.1 0 0 0c.9-2.8 1.3-5.7 1.3-8.7 0-9-3.9-17.2-10.4-23.4-.8-.8-1.6-1.5-2.5-2.2-1.2-1-2.4-1.9-3.7-2.7-.8-.5-1.6-1-2.5-1.4-.1-.1-.2-.1-.3-.2-.9.7-1.7 1.5-2.5 2.4-.8.8-1.5 1.7-2.1 2.7-.6.9-1.2 1.9-1.6 2.9-.5 1-.8 2.1-1.1 3.2 7.1 4 11.8 10.9 11.8 18.8 0 1.7-.2 3.3-.6 4.9-.4 1.6-1.1 3.2-1.9 4.7-.8 1.5-1.8 2.9-2.9 4.1-.8.9-1.6 1.7-2.5 2.4-4.7 3.9-11.2 6.4-18.3 6.4-14.5 0-26.2-10.1-26.2-22.5S41.5 62.4 56 62.4h.2c.2-.5.3-1.1.5-1.6v-.1l.6-1.5v-.1c.2-.5.4-1 .7-1.5 0 0 0-.1.1-.1.2-.5.5-1 .8-1.4 0 0 0-.1.1-.1.3-.5.5-.9.8-1.4 0 0 0-.1.1-.1.3-.5.6-.9.9-1.4 0 0 0-.1.1-.1.3-.5.6-.9 1-1.3 0 0 0-.1.1-.1.3-.4.7-.9 1.1-1.3l.1-.1c-.8-.1-1.7-.2-2.6-.3l-7.3 9.6-8.2-8.5c-17.3 4.2-30 17.8-30 34 0 18.2 16 33.2 36.6 35.1l-.9 10.8L65 119.5c9.9-1.8 18.5-6.8 24.4-13.6-.7-.1-.7-.1 0 0 .4-.4.7-.9 1.1-1.3l.2-.2.9-1.2c.1-.1.1-.2.2-.2.3-.4.6-.8.8-1.2 0-.1.1-.1.1-.2.3-.5.6-.9.8-1.4.8-2.3 1.7-4.4 2.3-6.7.1 0 .1 0 0 0 .1 0 0 0 0 0zM50.2 49.9c.6.6 1.4.9 2.3.9 1.1 0 2-.5 2.6-1.3.4-.5.6-1 .6-1.6v-.3c0-1.7-1.5-3.1-3.3-3.1-1.8 0-3.3 1.4-3.3 3.1 0 .3.1.6.1.9.3.5.6 1 1 1.4z"/><path opacity=".31" fill="#7B5453" d="M80.5 56.5c-.8-.5-1.6-1-2.5-1.4-.1-.1-.2-.1-.3-.2-.9.7-1.7 1.5-2.5 2.4-.8.8-1.5 1.7-2.1 2.7-.6.9-1.2 1.9-1.6 2.9-.5 1-.8 2.1-1.1 3.2.1.1.3.2.4.3 2.4-1.3 10.6-5.7 15.9-4.9-.8-.8-1.6-1.5-2.5-2.2-1.1-1.1-2.3-2-3.7-2.8z"/><path fill="#FF9F36" d="M102.8 36.1l-5.7 7.5-7.4-7.6c-11 1.4-20.6 6.6-26.9 14l-.1.1c-.4.4-.7.9-1.1 1.3 0 0 0 .1-.1.1-.3.4-.7.9-1 1.3 0 0 0 .1-.1.1-.3.5-.6.9-.9 1.4 0 0 0 .1-.1.1-.3.5-.6.9-.8 1.4 0 0 0 .1-.1.1-.3.5-.5 1-.8 1.4 0 0 0 .1-.1.1-.2.5-.5 1-.7 1.5v.1l-.6 1.5v.1c-.2.5-.4 1-.5 1.6-.8 2.8-1.3 5.7-1.3 8.7 0 12.7 7.7 23.7 19.4 30 .9-.7 1.7-1.6 2.5-2.4 2.3-2.6 4-5.5 4.8-8.8-7.1-4-11.7-10.9-11.7-18.8 0-1.7.2-3.3.6-4.9.3-1.1.7-2.1 1.1-3.2.5-1 1-2 1.6-2.9.6-.9 1.3-1.8 2.1-2.7.8-.8 1.6-1.6 2.5-2.4 4.7-3.9 11.2-6.4 18.3-6.4 14.5 0 26.2 10.1 26.2 22.5s-11.7 22.5-26.2 22.5h-.2-.1.1c-.7 2.2-1.6 4.4-2.7 6.5-.3.5-.5.9-.8 1.4 0 .1-.1.1-.1.2-.3.4-.5.8-.8 1.2-.1.1-.1.2-.2.2l-.9 1.2-.2.2c-.3.4-.7.9-1.1 1.3-.7-.1-.7-.1 0 0l2.4.3-.9 10.8 14.2-11.4c18.5-3.4 32.4-17.6 32.4-34.5.4-17.3-14.5-31.9-34-34.7zm-6.8-1c1.7 0 3.1-1.2 3.2-2.8V32c0-1.7-1.5-3.1-3.3-3.1-1.8 0-3.3 1.4-3.3 3.1 0 .3.1.6.2.9.5 1.3 1.8 2.2 3.2 2.2z"/></svg>