<svg xmlns:xlink="http://www.w3.org/1999/xlink"  xmlns="http://www.w3.org/2000/svg" viewBox="0 0 150 150"><g fill="#D8D9DB"><path d="M59.4 49.9c10.4-3 20.8-2.5 30.9 1.5l-1.6-.7c-3.2-1.1-3.4-1.2-5.4-1.7-3.4-.7-3.4-.7-5.3-.9-3.4-.3-3.4-.3-5.2-.3-1.5 0-3.6.2-5.1.3h-.2c-1.5.2-3.5.6-5 .9-3.2.9-3.4.9-5.2 1.6l-.3.1c.6-.2 1.6-.5 2.4-.8M36.2 67.1c-.6.8-1.4 2-2 2.9l-1 1.7c.9-1.4 2.1-3.3 3-4.6"/><path d="M50.4 56.8c24.1-10.7 54.9-1.7 63.4 18.4l-.2-.4c-1.2-2.7-1.4-3-2.5-5-1.6-2.5-1.8-2.9-3.3-4.8l-.1-.2c-15.2-17.6-42-16.7-59.5-7 .7-.2 1.5-.7 2.2-1M28.5 95.1c.1-2.6.3-9.5 5.8-17.8-5.9 7.2-6 13-6.1 16.5v.4c.1 1.2.2 2.7.3 3.9.1.9.3 2 .5 2.8-.4-3.2-.5-4-.5-5.8"/><path d="M50 67.1c32.9-13.9 71.8 6.6 66.2 34.7.2-1.2.5-2.8.7-4 .2-2.2.4-4.2.3-7.2l-.1-1.8c-3.5-26-41.1-37.2-69.3-20.6.6-.4 1.5-.8 2.2-1.1M44.1 126.4c-13.6-11.8-12-26.8-5.9-36.8-7.5 8.2-8.3 18.7-2.1 28l.5.7c1.8 2.4 2.1 2.8 3.9 4.7 2.2 2.2 2.5 2.5 4.5 4.1-.3-.2-.7-.5-.9-.7"/><path d="M53 80.9c31.4-12.6 66.9 9 56.6 34.5-2.5 6.2-6.8 9.8-8.9 11.6 2.5-2.2 2.6-2.2 3.9-3.6 2-2.1 2.4-2.6 4.1-4.9 1.7-2.5 1.9-2.7 3-4.7C125 86.5 91.4 67.1 61.2 76.9c-1.5.5-5.5 1.9-10.3 4.9.6-.3 1.4-.7 2.1-.9"/><path d="M58.9 96.6c22.5-8.3 47 7 39.8 24.8-7.9 19.3-43.6 19-52.3-.4-2.6-5.7-2.3-12.4.8-18.5-14.5 13.8.8 34.3 25.5 34.4 3 0 5.4-.3 6.9-.5 28.1-5.3 34.4-28.3 17.4-40-9.5-6.5-26.1-8.3-39.6.9.4-.3 1-.6 1.5-.7"/><path d="M66.8 111.5c10.7-3 21.2 4.4 17.1 12.1-4.4 8-20.7 7.5-24-3.1-.8-2.7-.4-5.1 0-6.7-7.8 5.5-4.3 16.8 8.9 19.3 3.9.7 7.1.3 8.6.1 15.5-2.9 19.5-15.8 10.5-22.4-6.2-4.5-16-4.1-21.8 1 .1-.1.5-.2.7-.3"/></g><path fill="#00B7E3" d="M61.2 53.6c16.5-8.7 38.9 3.1 34.7 18.2-5 18-35.2 18.6-43.1 4.6-3.3-5.8-2.2-12.1 2.9-16.9-4.9 10.9 7.1 19.3 19.3 17.4 14.7-2.7 17.6-15.4 8.3-21.7-4.6-3.2-13.5-5.3-23.2-1 .4-.2.8-.5 1.1-.6"/><g fill="#00A251"><path d="M73.4 48.4c3.4.1 3.4.1 5.2.3 3.3.5 3.4.5 5.3.9 3.2.9 3.4.9 5.4 1.7l1.6.7c28.5 13.4 19.7 40.3-1.6 48.4-28.6 10.8-59.4-9.7-49.3-32.7.5-1.2 1.8-3.7 4.1-6.5-11.2 17.3 8.4 36 33.8 32.2 26.9-4.9 32.6-27.4 16.3-39-4.7-3.3-13-7-25.9-5.8 1.5 0 3.5-.2 5.1-.2M54.7 52.5c.8-.4 1.9-.9 2.8-1.2l.3-.1c3.3-1.1 3.3-1.1 5.2-1.6 1.5-.3 3.5-.7 5-.9-3.4.5-8.4 1.3-15.1 4.7.6-.3 1.3-.7 1.8-.9"/></g><path fill="#FFAF3E" d="M108.5 65.6c1.7 2.3 2 2.7 3.3 4.8 1.4 2.6 1.6 2.9 2.5 5l.2.4c11.4 31.8-33.3 52.8-63.9 38.1-17.9-8.6-24.8-25.8-16.7-41.7l1-1.7c-12.1 22 13.3 44.2 45.3 39.6 30.7-5.7 40.4-28.7 28.2-44.7l.1.2"/><path fill="#D27E3D" d="M117.8 91c0 2.2.1 4.2-.3 7.2-.2 1.2-.4 2.8-.7 4-9.5 35.7-66.4 36.4-83.2 9-1.8-2.9-3.2-6.5-3.9-9.9-.1-.9-.3-2-.5-2.8-.1-1.2-.3-2.7-.3-3.9v-.4c1 20 25 33.6 52.5 29.8 22.9-4.2 36.8-17.6 36.3-34.8l.1 1.8"/><path fill="#CF7046" d="M109.4 119c-1.8 2.4-2.2 2.8-4.1 4.9-2.4 2.4-2.5 2.4-3.9 3.6-16.4 12.2-39.2 12.2-55.6.2-2.4-2-2.7-2.3-4.5-4.1-2-2.2-2.3-2.6-3.9-4.7l-.5-.7c13.4 17.5 35.7 16.6 44.7 15.3 14.8-2.8 25.2-9.2 31-19.2-1.6 2.2-2.1 3.2-3.2 4.7"/><path fill="#00B7E3" d="M101.3 10l-5 .3 1.8 2c-5.4 3.6-17.6 11.5-28.3 16.9-1-1.8-2.1-4.5-2.1-4.5l-2.9 1.7 1.8 4.4c-1.6.8-3.2 1.5-4.7 2-14.9 5.8-12 .9-12 .9-4.4 6.7 1.3 13.1 13.7 7.6.3-.2.7-.3 1-.5l2.2 24.7 1.2-.3V54.7l2 .3-.2 12.8 1.8.6s5.4-19.8 5.1-35.1c9.7-7.2 18.1-16.1 21.9-20.4l1.9 2.2.8-5.1z"/></svg>