<svg xmlns:xlink="http://www.w3.org/1999/xlink"  xmlns="http://www.w3.org/2000/svg" viewBox="0 0 150 150"><circle fill="#956843" cx="73.8" cy="48.9" r="4.4"/><path fill="#B86645" d="M120.9 56.7c-1 2.7-2.8 5.2-5.5 6.8-6.3 4-14.7 2.1-18.7-4.2-3.6-5.7-2.4-13.1 2.5-17.4l-3.9-2.7-6.5 21.6c7.3 2.5 13.7 6.8 18.8 12.3L124 58.8l-3.1-2.1z"/><g fill="#00A9DE"><path d="M139.5 89.9c-2.3 1.7-5.2 2.7-8.3 2.6-7.5-.2-13.4-6.4-13.2-13.9.2-6.8 5.3-12.2 11.8-13.1l-1.8-4.4L110.1 76c4.6 5.8 7.7 12.8 9.1 20.4l21.7-3-1.4-3.5z"/><path d="M125.7 77c-2.4-.1-4.4 1.9-4.5 4.3-.1 2.4 1.9 4.4 4.3 4.5 2.4.1 4.4-1.9 4.5-4.3 0-2.4-1.9-4.4-4.3-4.5z"/></g><path fill="#B86645" d="M106.9 61c2-1.3 2.6-4 1.4-6-1.3-2-4-2.7-6-1.4-2 1.3-2.7 4-1.4 6 1.3 2.1 4 2.7 6 1.4z"/><path fill="#006DB6" d="M26.4 81.3c-.1-2.4-2.1-4.3-4.5-4.3-2.4.1-4.3 2.1-4.3 4.5.1 2.4 2.1 4.3 4.5 4.3 2.5-.1 4.4-2.1 4.3-4.5z"/><path fill="#006DB6" d="M17.9 65.6c6.5.9 11.6 6.3 11.8 13.1.2 7.5-5.7 13.7-13.2 13.9-3.1.1-6-.9-8.3-2.6l-1.4 3.5 21.7 3c1.3-7.6 4.5-14.5 9.1-20.4L19.7 61.3l-1.8 4.3z"/><path fill="#E57B3D" d="M48.4 41.9c4.9 4.3 6.2 11.7 2.5 17.4-4 6.3-12.3 8.2-18.7 4.2-2.6-1.7-4.5-4.1-5.5-6.8l-3.1 2.1 16.3 14.4c5.1-5.5 11.5-9.8 18.8-12.3l-6.5-21.6-3.8 2.6z"/><path fill="#E57B3D" d="M40.7 61c2 1.3 4.7.7 6-1.4 1.3-2 .7-4.7-1.4-6-2-1.3-4.7-.7-6 1.4-1.2 2-.6 4.7 1.4 6z"/><path fill="#956843" d="M87 39.4c.7 2.8.5 5.9-.8 8.7-3 6.8-11 9.9-17.9 6.8-6.2-2.8-9.2-9.6-7.5-15.9h-4.7l6.3 20.8c3.6-.9 7.5-1.4 11.4-1.4 4 0 7.8.5 11.5 1.5l5.4-20.4-3.7-.1z"/><g fill="#006DB6"><path d="M84.3 63.2H82c.4 1.7.3 3.6-.5 5.4-1.9 4.2-6.9 6.1-11.1 4.2-3.8-1.7-5.7-5.9-4.7-9.9h-2.9l11.5 57.2 10-56.9z"/><circle cx="73.8" cy="69" r="2.7"/></g><g fill="#00A9DE"><path d="M42.7 75.2l1.9-1.3c.6 1.7 1.8 3.2 3.4 4.2 3.9 2.5 9.1 1.3 11.6-2.6 2.2-3.5 1.5-8.1-1.6-10.8l2.4-1.7 11.4 57.3-29.1-45.1z"/><circle cx="54.7" cy="74.3" r="2.7"/></g><g fill="#B86645"><path d="M32.2 96.7l.9-2.2c1.4 1.1 3.2 1.7 5.2 1.6 4.6-.1 8.3-4 8.2-8.6 0 0-3.3-7.6-7.3-8.1l1.1-2.7 30.4 44.6-38.5-24.6z"/><circle cx="41.7" cy="89.2" r="2.7"/></g><g fill="#E57B3D"><path d="M105 75.2l-1.9-1.3c-.6 1.7-1.8 3.2-3.4 4.2-3.9 2.5-9.1 1.3-11.6-2.6-2.2-3.5-1.5-8.1 1.6-10.8L87.3 63l-11.4 57.3L105 75.2z"/><circle cx="92.9" cy="74.3" r="2.7"/></g><g fill="#956843"><path d="M115.4 96.7l-.9-2.2c-1.4 1.1-3.2 1.7-5.2 1.6-4.6-.1-8.3-4-8.2-8.6 0 0 3.3-7.6 7.3-8.1l-1.1-2.7L77 121.3l38.4-24.6z"/><circle cx="105.9" cy="89.2" r="2.7"/></g></svg>