<svg xmlns:xlink="http://www.w3.org/1999/xlink"  xmlns="http://www.w3.org/2000/svg" viewBox="0 0 150 150"><path fill="#00A9DE" d="M71.9 110.4h-9.7V89.3c0-4.5-3.7-8.2-8.2-8.2-4.5 0-8.2 3.7-8.2 8.2v21.1h-2.6c-8.4 0-15.3-6.9-15.3-15.3V59.4c0-8.4 6.9-15.3 15.3-15.3H67l2.7.5-.6-.5h.6l-8.2-6.6-27.5-24 9 20.4C29 34 17.6 45.4 17.6 59.4v35.7c0 14.1 11.4 25.5 25.5 25.5h41.3l-12.5-10.2zM49.7 66.8v5.7c0 3.3 3.4 5.9 7.6 5.9 4.2 0 7.6-2.7 7.6-5.9v-5.7c0-3.3-3.4-5.9-7.6-5.9-4.2 0-7.6 2.7-7.6 5.9z"/><path fill="#FD9A2B" d="M110.4 33.9h-43l11.9 10.2h31.2c8.4 0 15.3 6.9 15.3 15.3v35.7c0 8.4-6.9 15.3-15.3 15.3h-4.4c.2-.6.2-1.3.2-1.9V86.2c0-4.5-3.7-8.2-8.2-8.2-4.5 0-8.2 3.7-8.2 8.2v22.3c0 .7.1 1.3.2 1.9H77.6l39.4 26.1-7.6-15.9h1.1c14.1 0 25.5-11.4 25.5-25.5V59.4c0-14.1-11.5-25.5-25.6-25.5zm-14 41.7c4.2 0 7.6-2.7 7.6-5.9V64c0-3.3-3.4-5.9-7.6-5.9-4.2 0-7.6 2.7-7.6 5.9v5.7c0 3.3 3.4 5.9 7.6 5.9z"/></svg>