<svg xmlns:xlink="http://www.w3.org/1999/xlink"  version="1" xmlns="http://www.w3.org/2000/svg" viewBox="0 0 150 150"><path fill="#6DCCE8" d="M92 69v1.9c0 .4 0 .9-.1 1.3.7.3 1.1.6 2.1 1v-9.4c-2-.9-4-1.7-6-2.3v.9c2 1.7 4 4 4 6.6zM100 78.1c1.1-1.5 1.8-3.1 1.8-4.8 0-3.2-2.7-6.2-5.7-8.5v9.5c.9 1.2 2.8 2.5 3.9 3.8z"/><path fill="#6DCCE8" d="M119.8 18H30.2c-7 0-12.2 5.6-12.2 12.6v89.6c0 6.9 5.2 12.8 12.2 12.8h17.1l7.5-32.6C51.2 97.5 49 93.8 49 90v-4.9c0-2.1.7-4 1.8-5.8-1.5-1.8-2.5-3.8-2.5-5.9 0-3.4 2.7-6.6 5.7-9.1V64c0-.3.7-.5 1.3-.5h.4c2.3-1.3 5.4-2.5 8.4-3.3v1.3c-3 .8-5 1.8-7 3V74c1-.6 2-1.2 3.2-1.8-.1-.4-.2-.9-.2-1.3V69c0-2.5 1-4.8 4-6.6v-6.2c-3-1.8-4.7-4.2-4.7-6.9v-.9-.2c.1-.3.1-.6.2-.9v-.1c.1-.3.5-.7.7-1C63.4 38.3 68 32.9 75 32.3V22h2v10.3c6 .5 11.3 5.9 14.4 13.7.1.1 0 .2.1.3l.3.9v.2c.1.3.2.6.2.9v.2c0 .3.3.6.3.9 0 2.7-2.4 5.1-4.4 6.9v4c3 .8 5.3 1.8 7.5 3 .1.1.2.1.2.2 4.6 2.6 7.3 6.1 7.3 10 0 2.1-1.1 4.1-2.6 5.9 1.2 1.8 1.6 3.8 1.6 5.8V90c0 3.8-1.9 7.5-5.5 10.4l8.2 32.6h15.1c6.9 0 12.2-5.8 12.2-12.8V30.6c.1-7-5.2-12.6-12.1-12.6z"/><path fill="#6DCCE8" d="M54 75.4v-9.6c-2 2.2-4.2 4.8-4.2 7.6 0 1.7.5 3.3 1.6 4.8.7-1 1.6-1.9 2.6-2.8z"/><path fill="#4A8284" d="M75.8 101.3c14.7 0 26.7-7.2 26.7-16.1 0-2.1-.6-4-1.8-5.8-.3.3-.4.6-.7.9 0 0 .1 0 .1.1V80v8.9c0 .1-.2.2-.3.3h-.1c-.2.1-.4.2-.7.2-.6 0-.9-.2-.9-.5V82c-2 1-3 1.9-5 2.6v10.5c0 .1 0 .2-.1.3-.2.1-.5.2-.8.2-.6 0-1.1-.2-1.1-.5v-9.7c-2 1-5 1.7-8 2.1V98c0 .1-.3.2-.5.3 0 0-.2 0-.2.1-.2.1-.7.2-1 .2-.6 0-1.3-.2-1.3-.5V87.8c-1 .1-3.1.2-4.7.2-1.8 0-3.3-.1-5.3-.3v10c0 .1.1.2 0 .3 0 0 .1 0 0 .1-.2.1-.6.2-.9.2-.6 0-1.2-.2-1.2-.5V87.5c-2-.4-5-1-7-1.9v9.2c0 .1-.2.2-.3.3h-.1c-.2.1-.4.2-.7.2-.6 0-.9-.2-.9-.5v-9.9c-2-.9-4-1.9-5-3v7c0 .1-.3.2-.4.3 0 0-.1 0-.2.1-.2.1-.3.2-.6.2-.6 0-.8-.2-.8-.5v-8.5c0-.1-.2-.1-.2-.2-.2-.3-.6-.5-.8-.8-1.2 1.8-1.9 3.8-1.9 5.8 0 8.7 11.9 16 26.7 16z"/><path fill="#4A8284" d="M56.5 78.3s-.2 0-.2.1c-.2.1-.7.2-1 .2-.6 0-1.3-.2-1.3-.5v-2.6c-1 .9-1.8 1.8-2.5 2.7 2.1 2.9 6.1 5.2 11.2 6.7-.4-.8-.6-1.5-.6-2.3v-6.1c3 2.8 7.9 4.7 13.5 4.7s10.5-2 13.5-4.7v6.1c0 .8-.1 1.6-.5 2.3 3.8-1.1 7-2.7 9.2-4.5 0-.2.2-.3.5-.4.6-.5 1.3-1.1 1.7-1.7-1.1-1.4-2.9-2.6-3.9-3.7V77c0 .1-.2.2-.3.3 0 0-.1.1-.3.1-.2.1-.3.1-.5.1-.6 0-.9-.2-.9-.5v-3.9c-1-.3-1.4-.7-2.1-1 .1-.4.1-.9.1-1.3V69c0 5.4-7.1 9.7-16 9.7s-16-4.4-16-9.7v1.9c0 .4.1.9.2 1.3-1.3.5-2.3 1.1-3.3 1.8v4c0 .1-.3.2-.5.3z"/><path fill="#002D3E" d="M102 90v-4.9c0 8.9-11.8 16.1-26.5 16.1C60.8 101.3 49 94 49 85.1V90c0 3.8 2.2 7.5 5.8 10.4L47.3 133h57.4l-8.2-32.6c3.6-2.9 5.5-6.6 5.5-10.4zM75.8 78.7c8.9 0 16.3-4.4 16.3-9.7 0-2.5-2-4.8-4-6.6V67c0 4-5.4 7.6-12 7.6s-12-3.6-12-7.6v-4.6c-3 1.7-4.3 4-4.3 6.6-.1 5.3 7.1 9.7 16 9.7z"/><path fill="#4A8284" d="M64 67c0 4 5.4 7.6 12 7.6S88 71 88 67v-5.5h-.2l.1-1.3h.1v-4c-3 1.9-7.3 3.1-12 3.1s-9-1.2-12-3.1V67z"/><path fill="#002D3E" d="M52 80.3v8.6c0 .3.2.5.8.5.3 0 .4-.1.6-.2l-.4.1v-7.8V89.1h.4c.1-.1.6-.2.6-.3v-7c1 1.1 3 2.1 5 3v10.1c0 .3.4.5.9.5.3 0 .3-.1.5-.2l-.4.1v-9.8l1 .1v9.6h-.1c.1-.1.1-.2.1-.3v-9.2c2 .8 5 1.4 7 1.9v10.3c0 .3.6.5 1.2.5.3 0 .7-.1.9-.2l-.1.1V87.7 98h-.1c.1 0 .1-.1.1-.2v-10c2 .2 3.5.3 5.3.3 1.6 0 3.7-.1 4.7-.2V98c0 .3.7.5 1.2.5.3 0 .7-.1.8-.2l-.1.1V87.7v10.6h.4c.1-.1.6-.2.6-.3V87.6c3-.4 6-1.2 8-2.1v9.7c0 .3.5.5 1.1.5.3 0 .7-.1.9-.2v.1-10.8-.1 10.7h-.1c.1-.1.1-.2.1-.3V84.6c2-.8 3-1.7 5-2.6v6.9c0 .3.3.5.9.5.3 0 .3-.1.5-.2l-.4.1v-8.4l1-.1v8.4h-.1c.1-.1.1-.2.1-.3V80v.3s-.1 0-.1-.1c.3-.3.5-.6.8-.9 1.5-1.8 2.3-3.8 2.3-5.9 0-3.9-2.8-7.4-7.3-10-.1-.1-.2-.1-.3-.2-2.2-1.2-4.8-2.2-7.6-3v1.3h.2c2.2.6 4.2 1.4 6.2 2.3V77c0 .3.3.5.9.5.2 0 .4 0 .5-.1.1 0 .3-.1.3-.1.1-.1.3-.2.3-.3V64.9c3 2.3 5.7 5.3 5.7 8.5 0 1.7-.7 3.3-1.8 4.8-.4.6-1 1.2-1.6 1.7-.3.1-.5.2-.5.4-2.3 1.9-5.5 3.5-9.3 4.5.4-.8.5-1.5.5-2.3v-6.1c-3 2.8-7.9 4.7-13.5 4.7s-10.5-1.9-13.5-4.7v6.1c0 .8.4 1.6.7 2.3-5.1-1.5-9-3.8-11.1-6.7-1.1-1.5-1.9-3.1-1.9-4.8 0-2.8 2.3-5.4 4.3-7.6V78c0 .3.7.5 1.3.5.3 0 .6-.1.8-.2l-.1.1V64.7v-.2 13.7h.4c.1-.1.6-.2.6-.3V64.4c2-1.2 4-2.2 7-3v-1.3c-3 .8-5.9 1.9-8.2 3.3h-.5c-.6 0-1.3.2-1.3.5v.2c-3 2.5-5.7 5.7-5.7 9.1 0 2.1.9 4.1 2.4 5.9.2.3.8.5 1 .8-.1.3.2.3.2.4zm3-1.9V65.6v-.1 12.9zm-3 10.9v-8.5 8.5zm7 5.9V85 95.2zm10 3V87.6v10.6zm12 .2V87.8v10.6zm11-2.8c-1 0-1-.1-1-.1V85.4s1 0 1-.1v10.3zm6-6.5v-7.3-.1V89.1z"/><path fill="#4A8284" d="M53.3 89.2z"/><path opacity=".5" fill="#002D3E" d="M53.3 89.2z"/><path fill="#002D3E" d="M53 81.7v-.2 7.8s.2 0 .2-.1c0 0-.1 0-.1-.1H53v-7.4z"/><path opacity=".5" fill="#002D3E" d="M53 81.7v-.2 7.8s.2 0 .2-.1c0 0-.1 0-.1-.1H53v-7.4z"/><path fill="#002D3E" d="M52 89.1v.2-8.6z"/><path opacity=".8" fill="#002D3E" d="M52 89.1v.2-8.6z"/><path fill="#4A8284" d="M99.6 89.2z"/><path opacity=".5" fill="#002D3E" d="M99.6 89.2z"/><path fill="#002D3E" d="M100 80.7l-1 .1v8.4s.3 0 .4-.1h.6v-8.4z"/><path opacity=".5" fill="#002D3E" d="M100 80.7l-1 .1v8.4s.3 0 .4-.1h.6v-8.4z"/><path fill="#002D3E" d="M98 81.8V89.2v-7.6.2z"/><path opacity=".8" fill="#002D3E" d="M98 81.8V89.2v-7.6.2z"/><path fill="#4A8284" d="M60.6 95.2s0 .1 0 0z"/><path opacity=".5" fill="#002D3E" d="M60.6 95.2s0 .1 0 0z"/><path fill="#002D3E" d="M61 85.6l-1-.1v9.8s.3 0 .4-.1h.6v-9.6z"/><path opacity=".5" fill="#002D3E" d="M61 85.6l-1-.1v9.8s.3 0 .4-.1h.6v-9.6z"/><path fill="#002D3E" d="M59 85v10.2V85z"/><path opacity=".8" fill="#002D3E" d="M59 85v10.2V85z"/><path fill="#4A8284" d="M56.3 78.3z"/><path opacity=".5" fill="#002D3E" d="M56.3 78.3z"/><path fill="#002D3E" d="M56 78.2V64.6 78.4s.2 0 .2-.1c0 0-.1 0-.1-.1 0 .1-.1 0-.1 0z"/><path opacity=".5" fill="#002D3E" d="M56 78.2V64.6 78.4s.2 0 .2-.1c0 0-.1 0-.1-.1 0 .1-.1 0-.1 0z"/><path fill="#002D3E" d="M55 78.2v.1-12.8 12.7z"/><path opacity=".8" fill="#002D3E" d="M55 78.2v.1-12.8 12.7z"/><path fill="#4A8284" d="M70.2 98.1z"/><path opacity=".5" fill="#002D3E" d="M70.2 98.1z"/><path fill="#002D3E" d="M70 87.8s0-.1 0 0v10.4s.1 0 .2-.1c0 0-.1 0-.1-.1H70V87.8z"/><path opacity=".5" fill="#002D3E" d="M70 87.8s0-.1 0 0v10.4s.1 0 .2-.1c0 0-.1 0-.1-.1H70V87.8z"/><path fill="#002D3E" d="M69 98v.1-10.5V98z"/><path opacity=".8" fill="#002D3E" d="M69 98v.1-10.5V98z"/><path fill="#4A8284" d="M82.3 98.3z"/><path opacity=".5" fill="#002D3E" d="M82.3 98.3z"/><path fill="#002D3E" d="M82 87.6s0 .1 0 0v10.8s.2 0 .2-.1c0 0-.1 0-.1-.1H82V87.6z"/><path opacity=".5" fill="#002D3E" d="M82 87.6s0 .1 0 0v10.8s.2 0 .2-.1c0 0-.1 0-.1-.1H82V87.6z"/><path fill="#002D3E" d="M81 98.3v.1-10.6 10.5z"/><path opacity=".8" fill="#002D3E" d="M81 98.3v.1-10.6 10.5z"/><path fill="#4A8284" d="M93 95.5z"/><path opacity=".5" fill="#002D3E" d="M93 95.5z"/><path fill="#002D3E" d="M93 84.7v10.9l.1-.1V84.7z"/><path opacity=".5" fill="#002D3E" d="M93 84.7v10.9l.1-.1V84.7z"/><path fill="#002D3E" d="M91 95.4s0 .1 1 .1V85.3s-1 0-1 .1v10z"/><path opacity=".8" fill="#002D3E" d="M91 95.4s0 .1 1 .1V85.3s-1 0-1 .1v10z"/><path fill="#002D3E" d="M75.8 59.2c4.7 0 8.9-1.2 11.9-3.1 2.8-1.8 4.6-4.2 4.6-6.9 0-.3 0-.6-.1-.9v-.2c-.1-.3-.1-.6-.2-.9 0-.1 0-.1-.1-.2-.1-.3-.2-.6-.4-.9v-.3c-3.2-7.6-8.5-13-14.5-13.5V22h-2v10.3c-7 .6-11.6 6-14.7 13.9-.2.3-.4.7-.6 1l-.1.1c-.1.3-.2.6-.2.9v.2c0 .3-.1.6-.1.9 0 2.7 1.8 5.1 4.6 6.9 3 1.8 7.2 3 11.9 3zM61.4 48.9c0-.6.1-1.1.3-1.6 0 4.9 6.6 8.9 14.7 8.9 7.1 0 13.1-3.1 14.4-7.2-.1 4.9-6.6 8.8-14.7 8.8s-14.7-4-14.7-8.9z"/><path fill="#4A8284" d="M90.8 48.9c-1.3 4.1-7.3 7.2-14.4 7.2-8.1 0-14.7-4-14.7-8.9-.2.5-.3 1.1-.3 1.6 0 4.9 6.6 8.9 14.7 8.9 8.1.1 14.7-3.9 14.7-8.8z"/><path fill="#002D3E" d="M119.8 10H30.2C18.8 10 10 19.3 10 30.6v89.6c0 11.3 8.8 20.8 20.2 20.8h89.6c11.3 0 20.2-9.5 20.2-20.8V30.6c0-11.3-8.9-20.6-20.2-20.6zM132 120.2c0 6.9-5.3 12.8-12.2 12.8H30.2c-6.9 0-12.2-5.8-12.2-12.8V30.6c0-7 5.2-12.6 12.2-12.6h89.6c6.9 0 12.2 5.6 12.2 12.6v89.6z"/></svg>