<svg xmlns:xlink="http://www.w3.org/1999/xlink"  xmlns="http://www.w3.org/2000/svg" viewBox="0 0 150 150"><path fill="#3F5588" d="M136.5 72.8a63.3 63.3 0 0 1-16.5 30.5l6 5.4c6.7-9.8 10.6-21.6 10.6-34.4 0-.5-.1-1-.1-1.5z"/><path fill="#3F5588" d="M119.2 102.6c9-9.1 15.1-20.9 17.1-34.1-1.8-18.4-11.8-34.5-26.3-44.4l-4.1 66.6 13.3 11.9zM136.3 68.7c.1 1.4.2 2.7.2 4.1 0-1.4-.1-2.8-.2-4.1zM57.3 116.6c.1 0 .1 0 0 0zM57.4 116.6l31.2-16.5L82 78H68.4zM57.4 116.6zM96.2 96.6l1.8 6.1c.4 1.4-.3 2.9-1.7 3.5l2.8 9.3c.1.2 0 .4 0 .6 1.5-.6 3-1.3 4.4-2l1.4-22.1c-1.4.7-4.5 2.4-8.7 4.6z"/><path fill="#6977A1" d="M14.9 72.8c0-1.4.1-2.7.2-4.1-.1 1.4-.2 2.8-.2 4.1zM15.1 68.5v0zM75.7 121.8c-7 0-13.8-1.2-20.1-3.3-4.5 2.4-8.9 4.8-12.9 7-.3-.2-.7-.4-1-.6l12.3-6.6h-.2l-2.2-.6c-.7-.2-1.3-.7-1.7-1.3-17.6-8-30.9-24-35.1-43.4v1.5c0 33.6 27.3 60.9 60.9 60.9 9.6 0 18.8-2.3 26.9-6.3l.8-13.6c-8.4 4-17.8 6.3-27.7 6.3z"/><path fill="#6977A1" d="M49.6 114.9c0-.3 0-.2.1-.6L60 78h-5v-4h-8v-2h8v-2h7.2l3.9-14.2c0-.1.1-.4.1-.5-1.7-2-3-4.6-3-7.4 0-5.8 4.7-10.6 9.7-11.3v-2.1c0-.5-1-1.4-1-2.4v-6.7c0-1.6 1.4-2.8 3-2.8s3 1.3 3 2.8v6.7c0 1-1 1.9-2 2.4v2.1c6 .7 10 5.4 10 11.2 0 2.6-.8 5.3-2.3 7.2l4.5 15H93v2h6v2h-6v4h-2.6l5.5 18 9-5.1 4.1-67.5c.3.2.7.4 1 .6-9.8-6.7-21.6-10.6-34.3-10.6-31.7 0-57.7 24.2-60.6 55 3 20.7 16.3 37.9 34.5 46.5zM14.9 72.9s0-.1 0 0c0-.1 0 0 0 0zM103 128.7c-.1.1-.3.1-.4.2.1 0 .2-.1.4-.2z"/><path fill="#3F5588" d="M104.4 114.8l-.8 13.6c8.7-4.5 16.1-11 21.7-18.9-2.1-1.9-4.1-3.7-6.1-5.5-4.3 4.3-9.3 7.9-14.8 10.8zM104.5 113.6c5.1-2.8 9.8-6.2 14-10.3-6.2-5.5-11.3-10.2-12.6-11.4l-1.4 21.7zM79.7 70l-3.1-10.7c-.6.1-1.1 0-1.7 0-.4 0-.9.2-1.3.1l-3 10.6h9.1zM75.7 120.8c7.5 0 14.6-1.4 21.3-3.8-.3-.1-.5-.3-.6-.7l-2.8-9.3c-1.4.3-2.9-.6-3.3-2l-1.3-4.5c-9.2 5-21 11.3-32.1 17.3 5.9 2 12.2 3 18.8 3z"/><circle fill="#3F5588" cx="74.8" cy="48.2" r="2.7"/></svg>