<svg xmlns:xlink="http://www.w3.org/1999/xlink"  xmlns="http://www.w3.org/2000/svg" width="100" height="100" viewBox="0 0 100 100"><path fill="#1B7D3F" d="M52.024 17.912l.537-.36c-.012.748-.022 1.493-.029 2.239.499-.201.999-.404 1.503-.602.111.542.234 1.085.357 1.633 1.716-.571 3.394-1.25 5.143-1.715.121.74.566 1.538.353 2.271-1.271 1.417-2.784 2.599-4.017 4.055 1.804-.891 3.502-1.969 5.245-2.972.33.636.673 1.266 1.016 1.897-.751 1.06-1.58 2.059-2.381 3.081 1.449-.892 2.942-1.916 4.734-1.816-.8 1.455-.852 3.35-2.182 4.46l-.014.123c-1.819 1.505-3.646 3.002-5.42 4.561 1.912-.971 3.69-2.181 5.614-3.134.656-.269 1.34-.17 1.973.121.09.794.238 1.579.44 2.353l-1.115 1.162c-.939.96-1.887 1.919-2.744 2.954 1.067-.472 2.103-1.005 3.161-1.496 2.104-.865 4.195-2.472 6.608-1.739-.417.617-.844 1.223-1.268 1.831.381-.069 1.14-.206 1.518-.276-.259 1.148-.421 2.36-1.048 3.383-1.206 1.817-3.561 2.59-4.407 4.691 1.543-.522 3.002-1.27 4.481-1.949.377.702 1.094 1.365 1.008 2.217-.418 1.385-1.216 2.625-2.088 3.77-1.58 1.956-3.613 3.462-5.604 4.976.544.111 1.104.235 1.648.381-2.735 1.706-5.704 2.984-8.475 4.622.031 4.902.012 9.805.007 14.704-.54.106-1.077.216-1.612.324-.136-4.509-.214-9.02-.312-13.525-1.16.193-2.338.271-3.494.49-.664.285-1.301.617-1.959.91-1.054.582-1.747-.597-2.452-1.189-.073-.646-.188-1.3-.067-1.944.106-1.022.966-1.807.984-2.851.052-.624.049-1.252.067-1.878-1.614.952-3.146 2.037-4.722 3.05-.33-1.113-.491-2.271-.895-3.359-.192-.644-.555-1.277-.47-1.962 2.124-1.896 4.562-3.41 6.806-5.16-1.144.567-2.357 1.076-3.661.953-.84-1.213-2.479-2.223-2.214-3.897.8-1.708 2.438-2.782 3.649-4.167-1.277.759-2.496 1.617-3.827 2.282a114.6 114.6 0 0 1 .099-1.635 30.2 30.2 0 0 0-1.98-.423c1.871-2.347 4.261-4.227 6.688-5.961-.272-.011-.814-.03-1.088-.037 0-.645.028-1.29-.038-1.932-.367-.425-.846-.727-1.282-1.063.725-.769 1.536-1.455 2.204-2.279.243-1.27.011-2.59.082-3.878.617-.67 1.223-1.348 1.823-2.027-.969-.043-1.939-.084-2.894-.217.727-.596 1.745-.554 2.599-.882 1.584-.443 2.51-1.916 3.412-3.169z"/><path fill="#1B7D3F" d="M89.479 82.414c-2.334-1.626-4.874-2.923-7.471-4.073-7.38-3.29-15.352-5.146-23.387-5.863-5.993-.54-12.028-.408-18.01.2-1.844.203-6.971.986-9.737 1.477.963-.021 1.917-.162 2.878-.237 4.353-.369 8.732-.378 13.092-.096 2.418.122 4.818.495 7.238.602 3.237.208 6.464.519 9.671 1.009 6.95 1.023 13.774 2.83 20.371 5.238 2.21.806 4.39 1.694 6.553 2.622a36.412 36.412 0 0 0-1.198-.879z"/><path fill="#1B7D3F" d="M61.94 61.23a15.509 15.509 0 0 1 3.638-2.835c-1.842 1.878-3.453 3.994-4.659 6.335-1.152 2.293-2.059 4.775-2.242 7.352.928-3.45 2.575-6.943 5.586-9.04-2.189 2.862-3.78 6.3-3.897 9.951 1.41-1.56 2.668-3.25 4.057-4.826-.233.628-.487 1.253-.692 1.895-.444 1.312-.716 2.688-.71 4.075-2.25-.292-4.521-.146-6.771.048.63-4.721 2.363-9.455 5.69-12.955z"/><path fill="#AAD051" d="M30.133 45.714c.476-1.08 1.071-2.1 1.791-3.03-.006.744-.023 1.488-.031 2.233.455-.167.92-.332 1.386-.494a45.993 45.993 0 0 1 2.512-.792c.117.436.24.872.369 1.309-.504.531-.998 1.07-1.479 1.622a65.437 65.437 0 0 0 2.367-1.055c-.106.725-.21 1.449-.314 2.176.66-.177 1.322-.352 1.993-.521-.54 2.083-2.212 3.506-3.803 4.801 1.236-.531 2.375-1.262 3.601-1.825.304 1.52-.514 2.856-1.463 3.947a89.633 89.633 0 0 0 4.226-2.122c.438.748.846 1.525 1.078 2.368-.991 1.336-2.267 2.41-3.468 3.546 1.017-.442 2.059-.854 3.176-.975.411 2.641-1.993 4.287-3.812 5.675.112.179.333.535.445.709-1.526.74-3.056 1.482-4.526 2.331-.017 2.478.108 4.957-.029 7.436.081.56-.514.754-.862 1.056-.085-2.563-.101-5.129-.234-7.689-1.284.187-2.53.562-3.736 1.027a93.468 93.468 0 0 1-.5-2.305c1.096-.906 2.577-1.86 2.357-3.511-1.618.781-3.075 1.837-4.533 2.869a115.69 115.69 0 0 1-.779-2.968c1.768-1.303 3.692-2.395 5.316-3.888-1.078.536-2.027 1.396-3.241 1.595-.699-.47-1.219-1.144-1.79-1.747.708-.91 1.443-1.795 2.179-2.682-.571.357-1.133.733-1.691 1.104-.411-.477-.815-.952-1.219-1.429 1.113-.904 2.258-1.77 3.4-2.637-.299-.685-.594-1.367-.883-2.055a114.85 114.85 0 0 1 4.798-4.287c-.873.072-1.738.143-2.601.208zM43.863 62.447c.523-.724 1.202-1.315 1.9-1.873-2.16 3.905-5.242 7.676-5.199 12.373-1.441.355-2.871.731-4.309 1.084.895-2.637 1.941-5.219 3.017-7.788-.143 1.969-.497 3.917-.755 5.874 1.726-3.251 3.208-6.653 5.346-9.67z"/><path fill="#AAD051" d="M20.485 61.188c3.815 1.012 6.908 3.82 9.108 7.004 1.319 1.916 2.35 4.02 3.155 6.203-2.246.219-4.44.72-6.622 1.267-.492-1.938-1.52-3.666-2.533-5.368 1.669 1.111 3.139 2.484 4.804 3.603-.915-3.351-3.165-6.133-5.615-8.51 2.849 1.062 4.866 3.599 6.423 6.114-.24-1.115-.863-2.093-1.448-3.052-1.853-2.926-4.467-5.275-7.272-7.261z"/><path fill="#AAD051" d="M24.872 75.287c13.167-3.035 27-2.386 40.099.694 6.873 1.619 13.588 3.884 20.09 6.642a147.11 147.11 0 0 1 7.171 3.259c-.728-.148-1.365-.536-2.036-.818-4.9-2.17-9.972-3.948-15.14-5.358a122.283 122.283 0 0 0-16.628-3.297c-13.208-1.641-26.736-.96-39.644 2.34-3.812.916-7.503 2.241-11.217 3.475 1.18-.877 2.498-1.55 3.805-2.218 4.293-2.102 8.85-3.635 13.5-4.719z"/></svg>