<svg xmlns:xlink="http://www.w3.org/1999/xlink"  xmlns="http://www.w3.org/2000/svg" width="100" height="100" viewBox="0 0 100 100"><g fill="#808184"><path d="M20.415 72.853h34.927v1.996H20.415zM12.872 80.041h42.47v1.997h-42.47z"/><path d="M28.848 19.691h1.438v61.346h-1.438zM36.436 26.752h1.443v54.285h-1.443z"/></g><path fill="#1B75BB" d="M49.912 44.365h4.246v4.25h-4.246zM49.912 52.115h4.246v4.247h-4.246z"/><path fill="#808184" d="M56.979 44.365h4.248v4.25h-4.248v-4.25zm3.517.735h-2.775v2.779h2.775V45.1zM56.979 52.115h4.248v4.247h-4.248v-4.247zm3.517.736h-2.775v2.781h2.775v-2.781z"/><path fill="#1B75BB" d="M89.993 45.354l-8.328-4.639V29.832H72.33v5.688l-16.988-9.465v10.219l16.988 9.462v27.083H55.342v9.219h26.323V50.932l8.328 4.639zM12.872 55.561V45.319l42.47-19.264v10.219z"/></svg>