<svg xmlns:xlink="http://www.w3.org/1999/xlink"  version="1" xmlns="http://www.w3.org/2000/svg" viewBox="0 0 150 150"><path fill="#00A6E8" d="M95.5 57.8H23.6l5 11h52.9z"/><path fill="#005680" d="M95.5 71.8H29.6l5.1 11.1h46.8z"/><path fill="#0094D9" d="M95.7 43.3H17l5 11.1h59.7z"/><path fill="#0094D9" d="M92.1 28.7H10.4l5 11.1H92c19.5 0 35.3 15.9 35.3 35.3 0 19.5-15.9 35.3-35.3 35.3-7.9 0-15.5-2.7-21.6-7.4H55c8.8 11.6 22.6 18.5 37.1 18.5 25.6 0 46.4-20.8 46.4-46.4 0-25.6-20.8-46.4-46.4-46.4z"/></svg>