<svg xmlns:xlink="http://www.w3.org/1999/xlink"  xmlns="http://www.w3.org/2000/svg" viewBox="0 0 150 150"><path fill="#80CCEB" d="M33 75h1v-8.4l5.7-4.1 4.3 2.1V67h2V44l14 5.5V60h3v-6.4l12.4-5.8L86 53.9v9.7c1 .1 2 .3 2 .5V52.6l-6-4.1V23.2l1-1V18l2.3-1.8c-9.3 1.2-13.6 9.1-13.6 9.1-15-5.3-21.3 6.6-22.7 9.1 7.9-.5 11.7 4.7 6.6 2.5-4.4-1.9-8.5-1.4-11.1-.9C25.9 42.9 29 66 29 66v7h4v2zm44.8-48c-6.2-1.1-9.3 3.4-9.3 3.4 5.1-9 15.5-2.3 9.3-3.4zM65.9 37c-7-1.1-10.3 3.4-10.3 3.4 5.1-8.8 17.3-2.3 10.3-3.4zM40.8 51.2c-4.2-.8-7.2 2.1-7.2 2.1 5.3-6.8 11.5-1.3 7.2-2.1zM101 32.7V67h3v-8l4.3-2.7 8.7 7.2V77h6V102.4 62.2c0-2.2-1.1-4.1-2-5.3-1-1.1-2.5-2-4.6-2.1-4-.3 0-3.1 3.5 0 .9-12-5.5-14.7-9-15.5-1.4-.2-3.3-.2-5.5.4-4 1.1-1.5-2.1 3.3-1.5.8-5.2-2.7-17.4-14.7-21v7.4l7 8.1z"/><path fill="#EA9238" d="M64.7 125.8c-.8-.2-1.6-.5-2.5-.8 2.5 1.5 12.6 10.6 12.6 10.6l54.6-9.5c-1.2-.7-5.4-3.2-7.6-4.6-6.7 2.1-37.2 10.8-57.1 4.3z"/><path fill="#EA9238" d="M74.8 135.6l.3 5.2c.1.1.2.2.3.2 1.5-.3 50.9-9.9 54-10.5l-53.9 10.2-.7-5.1zM33 101.1v.4-2.1 1.7zM75.2 126.8c6.7.4 15.4.2 26.5-1.8h-.8s-.3-35.2-23-52.5c0 0 22.9 11.7 24.6 52.1 5.4-1 11.4-2.5 17.8-4.5l-1.9-18.2c-1.9-12.9-8.1-22.6-18.4-28.7-14.7-8.8-34.5-7.7-47.7-3.4-5.4 1.8-9.4 4.6-12.2 7.9 1.4-.8 3-1.2 4.9-1.2 12.9-.3 27.1 10.5 30.2 50.3zm18.9-45.7c12.9 12.4 15.2 41.3 15.2 41.3l-6.1 1.5C101.2 96.6 89 81.4 89 81.4s4.8-.8 5.1-.3zm-28.4-5.6c7.4 5.7 8.1 13.2 8.1 13.2s-5.7 3.7-6.8 2.4C63.3 84 57.9 80 57.9 78.6c0-1.5 7.8-3.1 7.8-3.1z"/><path fill="#662E1A" d="M124.3 118.2c-.2-1.5-1.1-12.5-1.4-15.8 0-.4.1-.7.1-.8V77h-6V63.5l-8.7-7.2L104 59v8h-3V32.7l-7-8.2V16.7l-4-3.1-.6-9.2-.7 9.2-3.4 2.7L83 18v4.1l-1 1v25.3l6 4.1V64c0-.2-1-.3-2-.5v-9.7l-10.6-6.2-12.4 6V60h-3V49.5L46 44v23h-2v-2.5l-4.3-2.1-5.7 4.2V75h-1v-2h-4.4.4v21c-1 1.3-.2 2.5-.2 3.5 0 1.5.2 2.6.2 3.4v13.5-.1.7-.1h-1.3c-6.7 0-10.1 1.8-9.3 7.7 0 6.7 5.1 7.7 5.1 7.7l51 14.9 57.3-13.1 1.7-6.8c0 .1-7.8-6.2-9.2-7.1zm4.7 12.3c-3 .6-52.3 10.2-53.8 10.5 0 0 0-.1-.2-.2l.2.9-.2-.2v-5.8l-39.5-21L33 113V101.4v-.2-5.1s-.5-13.9 7.3-18.3c2.9-3.3 6.7-6.2 12.2-7.9 13.3-4.3 33-5.5 47.7 3.4 10.3 6.2 16.4 15.8 18.4 28.7l1.9 18.2c.5-.1.9-.3 1.4-.4-.3 0 1.4 1.4 1.4 1.4s-.7.2-1.5.4c2.2 1.3 6.4 3.9 7.4 4.6-.2 1-.2 2.7-.2 4.3zM73.6 140l-.3.8-.6-.3-27.3-16L73.6 140zM109 58.3l6 5.9V71h-6V58.3zM99 33v18.1l-10-6.5V22.7L99 33zm-6-15.6v5.7l-3-2.7v-5.5l3 2.5zM76 49.5l9 5.3V60h-9V49.5z"/><path fill="#E98A36" d="M103.2 123.9l6.1-1.5S107 93.5 94.1 81.1c-.3-.5-5.1.3-5.1.3s12.2 15.2 14.2 42.5zM75 141.4l.2.3v-.9l-.2-5.2zM64.7 125.8c-2.2-.7-4.2-1.6-6.1-2.7 0 0 5.2 2.9 16.5 3.6C72 86.9 57.9 76.1 45 76.5c-1.9.1-3.4.5-4.8 1.3-7.7 4.4-7.2 18.3-7.2 18.3v16.8l2.4 1.7 39.4 21s-10.2-9.1-12.7-10.6c1 .3 1.8.6 2.6.8z"/><path fill="#EA9238" d="M77.9 72.5c22.6 17.2 23 52.5 23 52.5h.8c.3 0 .6-.2.9-.2-1.8-40.4-24.7-52.3-24.7-52.3z"/><linearGradient id="a" gradientUnits="userSpaceOnUse" x1="107.708" y1="125.789" x2="59.03" y2="40.602"><stop offset="0" stop-color="#662e1a"/><stop offset="1" stop-color="#c46158"/></linearGradient><path fill="url(#a)" d="M77.9 72.5c22.6 17.2 23 52.5 23 52.5h.8c.3 0 .6-.2.9-.2-1.8-40.4-24.7-52.3-24.7-52.3z"/><path fill="#EA9238" d="M102.5 124.7v.3h-.9c-11.1 2-19.8 2.3-26.5 1.8 0-.3-4.3.6-10.5-1.1 19.9 6.5 50.4-2.2 57.1-4.3-.8-.5-1.4-.8-1.4-.8l-.1-.5c-6.3 2.1-12.3 3.6-17.7 4.6z"/><linearGradient id="b" gradientUnits="userSpaceOnUse" x1="100.34" y1="136.086" x2="74.851" y2="91.481"><stop offset="0" stop-color="#662e1a"/><stop offset="1" stop-color="#c46158"/></linearGradient><path fill="url(#b)" d="M102.5 124.7v.3h-.9c-11.1 2-19.8 2.3-26.5 1.8 0-.3-4.3.6-10.5-1.1 19.9 6.5 50.4-2.2 57.1-4.3-.8-.5-1.4-.8-1.4-.8l-.1-.5c-6.3 2.1-12.3 3.6-17.7 4.6z"/><path fill="#662E1A" d="M121.8 121.5c.9-.3 1.3-.4 1.3-.4s-1.7-1.4-1.4-1.4c-.5.1-.9.3-1.4.4l.1.5c0 .1.6.4 1.4.9z"/><linearGradient id="c" gradientUnits="userSpaceOnUse" x1="123.046" y1="123.098" x2="97.544" y2="78.471"><stop offset="0" stop-color="#662e1a"/><stop offset="1" stop-color="#c46158"/></linearGradient><path fill="url(#c)" d="M121.8 121.5c.9-.3 1.3-.4 1.3-.4s-1.7-1.4-1.4-1.4c-.5.1-.9.3-1.4.4l.1.5c0 .1.6.4 1.4.9z"/><path fill="#E98A36" d="M75.2 126.8s0-.1 0 0c-11.3-.8-16.6-3.7-16.6-3.7 1.9 1.1 3.9 2 6.1 2.7 6.2 1.7 10.5.7 10.5 1z"/><linearGradient id="d" gradientUnits="userSpaceOnUse" x1="79.932" y1="147.735" x2="54.431" y2="103.108"><stop offset="0" stop-color="#662e1a"/><stop offset="1" stop-color="#c46158"/></linearGradient><path fill="url(#d)" d="M75.2 126.8s0-.1 0 0c-11.3-.8-16.6-3.7-16.6-3.7 1.9 1.1 3.9 2 6.1 2.7 6.2 1.7 10.5.7 10.5 1z"/><path fill="#EA9238" d="M102.5 124.6c-.3.1-.6.1-.9.2h.9v-.2z"/><linearGradient id="e" gradientUnits="userSpaceOnUse" x1="103.856" y1="127.819" x2="55.219" y2="42.704"><stop offset="0" stop-color="#662e1a"/><stop offset="1" stop-color="#c46158"/></linearGradient><path fill="url(#e)" d="M102.5 124.6c-.3.1-.6.1-.9.2h.9v-.2z"/><linearGradient id="f" gradientUnits="userSpaceOnUse" x1="106.546" y1="132.527" x2="81.045" y2="87.9"><stop offset="0" stop-color="#662e1a"/><stop offset="1" stop-color="#c46158"/></linearGradient><path fill="url(#f)" d="M102.5 124.6c-.3.1-.6.1-.9.2h.9v-.2z"/><path fill="#E98A36" d="M67.1 91c1 1.4 6.8-2.4 6.8-2.4s-.7-7.4-8.1-13.2c0 0-7.8 1.7-7.8 3-.1 1.5 5.3 5.5 9.1 12.6z"/><path fill="#EA9238" d="M75.3 140.6l53.7-10.2V126l-54.5 9.5.8 5.1z"/><linearGradient id="g" gradientUnits="userSpaceOnUse" x1="74.512" y1="133.355" x2="129" y2="133.355"><stop offset="0" stop-color="#c46158"/><stop offset="1" stop-color="#662e1a"/></linearGradient><path opacity=".27" fill="url(#g)" d="M75.3 140.6l53.7-10.2V126l-54.5 9.5.8 5.1z"/><path fill="#662E1A" d="M72.8 140.5l.5.4.3-.9-28.1-15.4z"/><linearGradient id="h" gradientUnits="userSpaceOnUse" x1="38.41" y1="139.933" x2="64.559" y2="130.939"><stop offset="0" stop-color="#c46158"/><stop offset="1" stop-color="#ffad26"/></linearGradient><path fill="url(#h)" d="M72.8 140.5l.5.4.3-.9-28.1-15.4z"/><path fill="#7E4D38" d="M89 44.6l10 6.6V33L89 22.7zM85 54.8l-9-5.3V60h9zM115 64.3l-6-6V71h6zM90 20.4l3 2.7v-5.7l-3-2.5z"/><path fill="#FFF" d="M55.6 37c5 2.2 1.3-3-6.6-2.5-2.7.2-5.8 1-9.2 2.9l2.3-.6s.8-.3 2.2-.6c2.6-.6 6.9-1.1 11.3.8z"/><path fill="#FFF" d="M65.9 37c7 1.1-5.3-5.5-10.3 3.4 0 0 3.4-4.4 10.3-3.4zM105.4 39.6c2.2-.6 4-.6 5.5-.4 2 .3 3.2 1 3.2 1-1.9-1.3-3.7-1.9-5.2-2.1-5-.7-7.5 2.6-3.5 1.5zM40.8 51.2c4.2.8-1.9-4.6-7.2 2.1.1 0 3-3 7.2-2.1zM122.8 60.3c0 .1.1.2.1.3 0 .1-.1-.1-.1-.3zM116.3 54.8c2.1.2 3.5 1.1 4.5 2.1 1.2 1.3 1.7 2.8 1.9 3.4-.7-2.8-1.8-4.5-2.9-5.6-3.4-3.1-7.5-.2-3.5.1zM77.8 27c6.2 1.1-4.2-5.6-9.3 3.4 0 0 3.1-4.5 9.3-3.4z"/></svg>