<svg xmlns:xlink="http://www.w3.org/1999/xlink"  version="1" xmlns="http://www.w3.org/2000/svg" viewBox="0 0 150 150"><g fill="#D06200"><path d="M126.4 17.3H20.6v46.1c.2-.1.5-.1.7-.2 10.2-3 21.5-10.7 25.1-17.2 3.7-6.6-1.7-9.5-11.9-6.6-1.9.5-3.8 1.3-5.7 2.1.9-.4 2-.8 2.9-1.2 2.5-.9 2.6-.9 4-1.3l2-.6c11.1-2.8 16.7.6 12.6 8C46.1 54.2 33 63.2 21 66.7c-.1 0-.2.1-.4.1v8.3c.1 0 .2 0 .3-.1 15.7-4.5 32.9-16.3 38.5-26.4 3.8-6.9 1.2-11.1-5.8-11.7 2.6.1 5.2.3 8.3.9 4.7 1.1 5.4 1.2 9.1 2.5 5.7 2.1 7.2 7.3 3.1 14.7-7.5 13.5-30.5 29.3-51.4 35.3-.7.2-1.4.4-2 .5V102c1.5-.3 3-.7 4.5-1.2C48.7 94 74.6 76.2 83 61.1c4-7.2 3.3-12.6-1.1-15.4 1.1.8 2.6 1.8 3.7 2.6 4 3 4.4 8.3.5 15.5-8.7 15.6-35.4 34-59.7 41-2 .6-3.9 1-5.8 1.4v6.7c2.5-.5 5.2-1.1 8-1.9 25.2-7.3 53-26.3 62-42.6 3.8-6.8 3.7-12 .4-15.3 1.1 1.2 2.7 2.8 3.8 4.1l2.3 2.9c2.4 3.4 2.1 8.3-1.3 14.6C86.5 91.4 58 111 32.1 118.5c-4.1 1.2-7.9 2-11.4 2.4v9.7c4.7-.1 10.3-1.1 16.6-2.9 25.9-7.5 54.5-27.1 63.7-43.8 3-5.4 3.6-9.8 2.2-13.1l.6 1.6c.7 2.1 1.7 5 2.3 7.2.7 3-.1 6.9-2.6 11.4-9 16.2-36.8 35.3-62 42.6-8.4 2.4-15.5 3.2-20.8 2.6v2.8c5.4 1.8 13.7 1.4 24.2-1.7 24.3-7 51.1-25.4 59.8-41.1 2.1-3.9 3-7.2 2.7-9.9.1 1.4.3 3.2.3 4.5.1 2.5-.8 5.5-2.6 8.9-8.4 15.2-34.4 33-57.9 39.8-1.2.3-2.3.6-3.4.9h17.5c18.6-7.5 36.9-21.1 43.5-32.9 1.2-2.2 2-4.3 2.3-6.1-.9 4.5-1.2 6.1-2.2 9.1-1.6 4.4-1.9 5.1-3.8 8.9 0 .1-.1.2-.1.2-3.9 7.1-13.4 15-24.1 20.8h49.7V17.3z"/><path d="M20.6 15h108.1v123.3l4.1-126.8z"/></g></svg>