<svg xmlns:xlink="http://www.w3.org/1999/xlink"  xmlns="http://www.w3.org/2000/svg" viewBox="0 0 150 150"><path fill="none" d="M76 82.4v36.7l7 2.2V87.8z"/><path fill="none" d="M66 143.3l17-5.4v-13.3l-8.8-2.9-1.2-.3V79.8l-7-5.6zM76 78.3l9.3 7.6.7.5v35.9l6 2.3V55.5L76 69.1z"/><path fill="#0081C3" d="M83 137.9l-17 5.4V74.2l7 5.5v-4.1l-6.7-5.4-.3.3L49 89v23.1c-8 4-15.5 9.6-20.4 16.2 5.5-5.4 12.4-9.9 20.4-13.2v22.4l16.6 9 .2.2.1-.1.1.1v-.1l18.7-6.1 1.3-.4v-14.5l-3-1v13.3z"/><path fill="#0081C3" d="M85.3 85.9L76 78.3v4.1l7 5.4v33.5l3 1V86.4z"/><path fill="#B0D0E9" d="M63 34.9l15-12.8v37.8l16-13.3V35.9L79 19.3V6h-3v13.8L60.3 33.1l-.3.4V73.9l3-3.3z"/><path fill="#0081C3" d="M131.5 128.2c-5.3-7.1-12.5-13.1-22.5-17.1v3.1c9 3.4 16.5 8.2 22.5 14zM47 110.6V95.2l-3.3-3.7L41 94v19h-3v-6h-2v11s2-3.1 11-7.4zM124 118v-11h-2v6h-2V94l-2.7-2.5-3.3 3.7v15.4c9 4.3 10 7.4 10 7.4z"/><path fill="#66B245" d="M109 111.1V70.2L92 51.7v-.2L73.4 67.2l-.4.4v53.8l1 .4 8.6 2.9 2.9 1 6.5 2.2v.1l.3-.1.3.1v-.2l16.4-9v-7.7zm-17 13.5l-6.5-2.2-3-1-6.5-2.2V69.1l16-13.6v69.1z"/></svg>