<svg xmlns:xlink="http://www.w3.org/1999/xlink"  xmlns="http://www.w3.org/2000/svg" viewBox="0 0 150 150"><path fill="#737477" d="M14 122l8.8-101.3L23 122V20h-9z"/><path fill="#EA6847" d="M35 122V52h.4l.1 70z"/><path fill="#EA6847" d="M27 52v69.7L35.4 52z"/><path fill="#00A9DE" d="M40 64v58h.2L49 64.4V64z"/><path fill="#737477" d="M13.4 122h8.7V20.7z"/><path opacity=".38" fill="#FFF" d="M13.4 122h8.7V20.7zM26.8 122v-.3l-.1.3zM35.4 52.4v.1z"/><path fill="#EA6847" d="M35.5 122l-.1-70-8.4 69.7v.3z"/><path opacity=".38" fill="#FFF" d="M35.5 122l-.1-70-8.4 69.7v.3zM49 122V63.8 122z"/><path fill="#00A9DE" d="M49 122V64.4L40.2 122z"/><path opacity=".38" fill="#FFF" d="M49 122V64.4L40.2 122z"/><path fill="#737477" d="M129 14H26.8l101.3 8.8-101.3.2H129z"/><path fill="#EA6847" d="M97 36.2l-70 .1V36h70z"/><path fill="#EA6847" d="M97 28H27.1L97 36.2z"/><path fill="#00A9DE" d="M84 50v-9H27l57.4 9z"/><path fill="#737477" d="M27 14.2V23l101.3-.1z"/><path opacity=".38" fill="#FFF" d="M27 14.2V23l101.3-.1zM96.4 36.2h-.1zM26.8 27.5v.1h.3z"/><path fill="#EA6847" d="M97 36.2L27.1 28H27v8.3l70-.1z"/><path opacity=".38" fill="#FFF" d="M97 36.2L27.1 28H27v8.3l70-.1zM84.4 50H27v-.2l58.1.1z"/><path fill="#00A9DE" d="M27 41v9h57.4z"/><path opacity=".38" fill="#FFF" d="M27 41v9h57.4z"/><path fill="#737477" d="M127.7 130l.3-101.3V131h8V28.7z"/><path fill="#EA6847" d="M114 29v70h.4V29zM123 99V29l-8.6 70z"/><path fill="#00A9DE" d="M109 87V29h.6L101 86.3v.7z"/><path fill="#737477" d="M136.5 29h-8.8v101.3z"/><path opacity=".38" fill="#FFF" d="M136.5 29h-8.8v101.3zM123.1 28.7v.3zM114.4 98.3v-.1z"/><path fill="#EA6847" d="M114.4 99l8.6-70h-8.6z"/><path opacity=".38" fill="#FFF" d="M114.4 99l8.6-70h-8.6zM100.9 29v58.1l.1-.8V29z"/><path fill="#00A9DE" d="M101 29v57.3l8.6-57.3z"/><path opacity=".38" fill="#FFF" d="M101 29v57.3l8.6-57.3z"/><path fill="#737477" d="M23 137h101.5l-101.3-8.8 101.3-.2H23z"/><path fill="#EA6847" d="M54 124h70.2L54 115.3z"/><path fill="#EA6847" d="M54 115.2h71v.8H54z"/><path fill="#00A9DE" d="M67 102v9h58v-.6L66.9 102z"/><path fill="#737477" d="M125 137.3v-8.8l-101.3.1z"/><path opacity=".38" fill="#FFF" d="M125 137.3v-8.8l-101.3.1zM54.9 115.2l.1.1v-.1zM124.5 124v-.1h-.3z"/><path fill="#EA6847" d="M54 115.3l70.2 8.7h.8v-8.8H54z"/><path opacity=".38" fill="#FFF" d="M54 115.3l70.2 8.7h.8v-8.8H54zM66.9 102H125v-.3l-58.5.1z"/><path fill="#00A9DE" d="M125 110.4V102H66.9z"/><path opacity=".38" fill="#FFF" d="M125 110.4V102H66.9z"/><path fill="#737477" d="M54.7 55.1L54 93.7V55h-2v38.7zM60 93V67l-.1 26zM56 93.6L59.9 67H56zM61 71v22h.7L65 71.7V71z"/><path fill="#737477" d="M51.5 93h3.4l-.1-38.6z"/><path opacity=".38" fill="#FFF" d="M51.5 93h3.4l-.1-38.6zM59.9 67.2zM56.6 93.7v-.1z"/><path fill="#737477" d="M56 93h3.9V67L56 93.6z"/><path opacity=".38" fill="#FFF" d="M56 93h3.9V67L56 93.6zM65.1 93L65 71.2V93z"/><path fill="#737477" d="M65 93V71.7L61.7 93z"/><path opacity=".38" fill="#FFF" d="M65 93V71.7L61.7 93z"/><path fill="#737477" d="M96 52H56.6l38.6 3.7-38.6.3H96zM56.7 58L83 61v-3zM56 62h27v-1H56zM56 62.8L78.6 66h.4v-4H56z"/><path fill="#737477" d="M56 52.6v3.3h38.6z"/><path opacity=".38" fill="#FFF" d="M56 52.6v3.3h38.6zM56.6 57.7h.1zM83.1 61z"/><path fill="#737477" d="M56 58v3h27l-26.3-3z"/><path opacity=".38" fill="#FFF" d="M56 58v3h27l-26.3-3zM56 66.1h22.5l.1-.1H56z"/><path fill="#737477" d="M56 66h22.6L56 62.8z"/><path opacity=".38" fill="#FFF" d="M56 66h22.6L56 62.8z"/><path fill="#737477" d="M98 58.1l-3.2 38.6.2-38.6V97h3zM89 59v26h1V59zM93 85V58.2L90 85zM88 80V59h.2L85 80.1V80z"/><path fill="#737477" d="M98.4 59h-3.3v38.6z"/><path opacity=".38" fill="#FFF" d="M98.4 59h-3.3v38.6zM90 84.6zM93.3 58.1v.1z"/><path fill="#737477" d="M93 58.2v.8h-3v26z"/><path opacity=".38" fill="#FFF" d="M93 58.2v.8h-3v26zM84.8 59l.1 21.7.1-.6V59z"/><path fill="#737477" d="M85 59v21.1L88.2 59z"/><path opacity=".38" fill="#FFF" d="M85 59v21.1L88.2 59z"/><path fill="#737477" d="M54 99h39.8l-38.5-3.2 38.5.2H54zM68 94h25.7L68 91.1zM94 90H68v1.1h26zM94 89.2L71.9 86h.1v3h22z"/><path fill="#737477" d="M94 99.5v-3.4H55.4z"/><path opacity=".38" fill="#FFF" d="M94 99.5v-3.4H55.4zM93.8 94.4h-.1.1zM67.3 91.1h.1z"/><path fill="#737477" d="M94 91.1H68L93.7 94h.3z"/><path opacity=".38" fill="#FFF" d="M94 91.1H68L93.7 94h.3zM94 85.9H71.7l.2.1H94z"/><path fill="#737477" d="M94 86H71.9L94 89.2z"/><path opacity=".38" fill="#FFF" d="M94 86H71.9L94 89.2z"/></svg>