<svg xmlns:xlink="http://www.w3.org/1999/xlink"  version="1" xmlns="http://www.w3.org/2000/svg" viewBox="0 0 150 150"><path fill="#382A7B" d="M28.9 14.3l-.9.4v22.4l44.3-22.8zM39.8 42.2L28 47.7v16.4l11.8-5.4V45.3zM125 14.3h-25l-16.9 7.8v3.7l13.3 6.6L125 19.2zM115.2 106L62 130.7c.4.1.9.2 1.3.3 0 0 11.4 1.9 13.1 6.6 1.8-4.6 13.1-6.6 13.1-6.6 24.3-5.3 32-19.4 34.4-29l-8.1 3.8v.2h-.6zM125 85.1V68.6l-9.1 4.2v16.5zM43 106.6l-10.3 4.8c2.3 4 5.7 8 10.8 11.5L67 112l-22.6-5.1-1.4-.3zM115.9 45.7v10.6l9.1-4.2V35.7L113.5 41l2.4 1.2zM28 80.6v11.5s-.2 1.9.1 4.9l11.7-5.4V75.1L28 80.6z"/><path fill="#5C2679" d="M77.4 29.4L45.6 45.3v56l31.8 7.1v-79zM50.6 85.6l6.4.2-.2 7.8h-6.2v-8zm0-16.6l6.2-.9v9h-6.2V69zm0-17.3l6.2-2.6v9l-6.2 1.7v-8.1zm14 34l7.4.3-.3 9.1h-7.1v-9.4zm7.1-31.9l-7.1 1.9v-9.4l7.1-3v10.5zm0 11.6v10.4h-7.1v-9.3l7.1-1.1z"/><path fill="#B01275" d="M77.4 29.4v79l32.7-7.1V45.7L77.4 29.4zM98.3 68l6.2.9V77h-6.2v-9zm-.2 17.8l6.4-.2v8.1h-6.2l-.2-7.9zm6.4-26.1L98.3 58v-9l6.2 2.6v8.1zM83.4 95.1l-.3-9.1 7.4-.3V95h-7.1zm7.1-39.4l-7.1-1.9V43.4l7.1 3v9.3zm-7.1 9.7l7.1 1.1v9.3h-7.1V65.4z"/></svg>