<svg xmlns:xlink="http://www.w3.org/1999/xlink"  xmlns="http://www.w3.org/2000/svg" viewBox="0 0 2000 2000"><path fill="#C34E5C" d="M1379.5 266.2s95.8 359.5-377.7 277.3c0 0 .1 303.3-162.9 406.9 0 0 308.4 198.6 602.2 25.4 293.7-173.3 108.7-627.3-61.6-709.6z"/><path fill="#C34E5C" d="M1256.6 442.6c96.8-101.9 40-230.4-29.6-361.1 0 0-404 48.5-323.3 115.3 80.7 66.8 131.4 154.6-3.3 170.8-134.7 16.2 259.4 176.9 356.2 75z"/><path fill="#C34E5C" d="M777.1 926.4c190.8-111.9 122.3-400.7 122.3-400.7-234.3-93.4-103.1-242-103.1-242-542.5 314.6-19.2 642.7-19.2 642.7z"/><path fill="#619F42" d="M1162.2 1138.3c-175.3 22.3-315.5-81.1-315.5-81.1-111.3 33.4-195.3 137.5-195.3 137.5 153.1 105.7 271 33.9 271 33.9C894 1373 849.2 1487 798 1576.8l-35.9-11.9-10.2 84.1c-144.9 204.1-314.4 247-314.4 247l27.3 70.7c54.5-15.7 103.8-37.2 148.7-62.5l105.4-29.5-36.6-14.8c151.1-110.4 240.7-267.5 292-394.9l60.1-57.2-36.3-7.4c30-89 39.5-151.8 39.5-151.8 131.9 75.6 281.6 48.9 281.6 48.9-7.8-107-157-159.2-157-159.2z"/></svg>