<svg xmlns:xlink="http://www.w3.org/1999/xlink"  version="1" xmlns="http://www.w3.org/2000/svg" viewBox="0 0 150 150"><path opacity=".26" d="M133.1 125.2c0 6.7-5.4 12.2-12.2 12.2H31.1c-6.7 0-12.2-5.5-12.2-12.2V35.3c0-6.7 5.5-12.2 12.2-12.2H121c6.7 0 12.2 5.5 12.2 12.2v89.9z"/><path fill="#FFF" d="M132 120.9c0 6.6-5.3 11.9-11.9 11.9H32c-6.6 0-11.9-5.3-11.9-11.9V32.8c0-6.6 5.3-11.9 11.9-11.9h88.1c6.6 0 11.9 5.3 11.9 11.9v88.1z"/><path fill="#C32126" d="M119.7 20.9H31.6c-6.6 0-11.9 5.3-11.9 11.9v23.7h112V32.8c-.1-6.6-5.4-11.9-12-11.9zM36.3 35.7c-2.8 0-5.1-2.3-5.1-5.1s2.3-5.1 5.1-5.1 5.1 2.3 5.1 5.1-2.3 5.1-5.1 5.1zm78.7 0c-2.8 0-5.1-2.3-5.1-5.1s2.3-5.1 5.1-5.1 5.1 2.3 5.1 5.1c-.1 2.8-2.3 5.1-5.1 5.1z"/><path fill="#343433" d="M39.6 29.4c0 1.6-1.3 3-3 3-1.6 0-3-1.3-3-3V15.2c0-1.6 1.3-3 3-3 1.6 0 3 1.3 3 3v14.2zM118.2 29.4c0 1.6-1.3 3-3 3-1.6 0-3-1.3-3-3V15.2c0-1.6 1.3-3 3-3 1.6 0 3 1.3 3 3v14.2z"/><path fill="#B4B4B5" d="M132 103.4l-10.7 2.1c-7.9 1.5-15.5 9.1-17 17l-2.1 10.7 29.8-29.8z"/><path fill="#C32126" d="M75.7 65.9C54.7 49.4 35.3 69 40.3 88c2.6 9.9 10.8 19.2 18.9 26.4V78.8h2.9v38c.6.5 1.3 1 1.9 1.5V87.1h2.9v33.5c.6.5 1.3.9 1.9 1.4V73.8h2.9V124c.7.5 1.3.9 1.9 1.3V68.6h2.9v58.7c1.1.7 1.7 1.1 1.7 1.1s.2-.1.5-.4v-26.5h2.9v24.3c.6-.4 1.2-.9 1.9-1.5V75.8h2.9v46c.6-.5 1.2-1.1 1.9-1.6V86.3h2.9v31.2c.6-.6 1.3-1.2 1.9-1.8V98H96v14.7c6.5-7 12.8-15.6 15-24.7 4.8-19.1-13.7-38.6-35.3-22.1z"/></svg>