<svg xmlns:xlink="http://www.w3.org/1999/xlink"  xmlns="http://www.w3.org/2000/svg" viewBox="0 0 2000 2000"><path fill="#00A9DE" d="M1582.6 394.9c-109.3-23.3-233.2 3.3-354.2 67 82-26 162.9-33.2 236.9-17.5 275.1 58.6 353.1 409.5 174.3 783.9-107.8 225.6-284.2 408.1-467.7 504.8 222.6-70.6 454.2-280.8 584.9-554.4 178.9-374.2 100.9-725.2-174.2-783.8z"/><path fill="#00A9DE" d="M1609 1191.7c161.1-337.3 90.8-653.6-157-706.4-98.5-21-210.2 2.9-319.1 60.4 73.9-23.4 146.7-29.9 213.5-15.7 247.9 52.8 318.2 369 157 706.4-97.1 203.3-256.1 367.7-421.4 454.9 200.6-63.7 409.3-253.1 527-499.6z"/><path fill="#00A9DE" d="M1476.3 1194.7c137.5-288 77.5-557.9-134.1-603-91.4-19.4-196.1 6.3-296.6 64.9 61.1-19.3 121.4-24.6 176.6-12.9 205.7 43.8 264 306.2 130.3 586.2-95.2 199.3-262 353.6-424.5 410.3 197.6-12.3 428.3-194.2 548.3-445.5z"/><path fill="#C46158" d="M359.5 1228.4C180.6 854 258.7 503.1 533.8 444.5c74.1-15.8 154.9-8.5 236.9 17.5-120.9-63.7-244.9-90.3-354.2-67-275.1 58.6-353.1 409.5-174.3 783.9 130.7 273.6 362.3 483.8 584.9 554.4-183.4-96.8-359.9-279.3-467.6-504.9z"/><path fill="#C46158" d="M495.8 1236.3C334.7 899 405 582.7 652.8 530c66.8-14.2 139.6-7.7 213.5 15.7-109-57.4-220.7-81.4-319.1-60.4-247.9 52.8-318.2 369-157 706.4 117.7 246.5 326.4 435.9 527 499.5-165.3-87.2-324.3-251.6-421.4-454.9z"/><path fill="#C46158" d="M741.3 662c115.2-24.5 252.2 24.8 373.9 122-141-143.1-315.9-222.6-458.4-192.3-211.6 45.1-271.6 315-134.1 603 88.6 185.6 237.7 333.2 389.1 402.8-119.1-76.8-230-200.5-301-349.1C477.2 968.3 535.6 705.8 741.3 662z"/></svg>