<svg xmlns:xlink="http://www.w3.org/1999/xlink"  xmlns="http://www.w3.org/2000/svg" viewBox="0 0 2000 2000"><path fill="#C34E5C" d="M549 845.9c127.5-362.3 620.7-253.3 620.7-253.3-287.4-333-1124.1-118.8-908.8 555.7 72.2 226.1 251 385.7 456.4 498 55.4-38.9 114.7-85.3 174-139.4-258.4-211.8-413.8-457.7-342.3-661zm607 844.9c-42.1 29.7-87.1 58.5-135 86.1 316.4 106.3 606.7 127.9 606.7 127.9-163-52.9-324.6-126.9-471.7-214zm-114.6-72.5c-48 37.3-100.6 73.9-157.5 107.3 15.4 6.4 30.7 12.5 46.1 18.5 47.2-28.3 98.5-61.8 150.1-100.2-13.1-8.4-26-17-38.7-25.6zM770.3 792.6s169.4-100.8 281.6 14.1c112.2 115-27.4 368.7-226.6 516.9 0 0 425.5-174.6 389.7-443.7-35.9-270.3-393.3-243.3-444.7-87.3z"/><path fill="#EC008C" d="M957.8 970.5c-11.7-95.7-106.4-107.4-155-73.1-47.7-36.6-145.7-26.2-157.6 71.2-13.8 113.2 141 188.7 157.1 196.2-1 .8-2 1.7-3 2.5 0 0 1.5-.7 4.2-2 .1 0 .3.1.3.1l-.2-.2c26.5-12.7 167.4-86.5 154.2-194.7z"/><path fill="#3155A4" d="M1771.5 451.3S1330 168 602.2 403.3c0 0 427.9-40.4 731.9 90.7 21.3 469.6-210.1 800.7-442.8 1012.9-59.3 54.1-118.7 100.5-174 139.4-154.8 108.9-277.8 159.9-277.8 159.9l57 61.8c142.7-21 273.3-75.3 387.4-142.4 56.9-33.4 109.4-70.1 157.5-107.3 196.4-152.4 314.3-315.5 314.3-315.5l30.5 9.6c-73.3 133.8-190.2 245.1-306.1 331.5-51.6 38.4-102.9 71.9-150.1 100.2-121.7 72.9-216.2 111.4-216.2 111.4l108.6 20.9c71.5-30.9 137.4-64.3 198.6-99.5 48-27.6 92.9-56.3 135-86.1 452.7-319.9 576.6-750.3 608.1-1010.7l.6.2.2-6.8c15.7-134.7 6.6-222.2 6.6-222.2zm-315.9-206.1l49.5 59 155.3 34.2s-6-424.5-319-222.2l82.5 13.6 31.7 115.4z"/></svg>