<svg xmlns:xlink="http://www.w3.org/1999/xlink"  version="1" xmlns="http://www.w3.org/2000/svg" viewBox="0 0 150 150"><path fill="#D5242A" d="M65.9 95.3v29c1.7 2.4 4.4 4.1 7.6 4.8v.1H80.5v-.1c3.2-.7 5.9-2.4 7.6-4.8v-22.6c-8.4-.4-14.4-3.7-16.9-8.7-.7.3-1.4.5-2.1.6-.6.9-1.7 1.5-3.2 1.7zM106.8 102.5c-1.4-.6-2.3-1.5-2.3-2.6 0-.2.1-.3.1-.5-.3-.4-.5-.9-.7-1.3-3.1 2.1-7.3 3.4-12.3 3.7v22.6c.1.1.1.2.2.2 2.6-2 5.2-4.2 7.9-6.4 2.9-2.3 5.7-4.8 8.6-7.2v-6.8c-.5-.6-1-1.1-1.5-1.7z"/><path fill="#D5242A" d="M40.9 103.6c0-.3.1-.6.2-.8-6.1-3.1-10.7-13.1-7-31.1.7-5.9.8-11.1-.1-15.9h12.8c1.5-5.2 3.4-10.1 5.2-14.5h24.3c2.1 4.9 4.2 10.4 5.7 16.3 1.3 4.2 2 8.3 2.1 12h14.3c-.1-11.8 1.5-21.8 1.5-23.1h19.9c0 2.4 5.6 35.1-4.6 52.8 0 .2.1.3.1.5 0 1.1-.9 2-2.3 2.6-.5.6-1 1.1-1.5 1.6v3.8c14.9-13.2 28.1-27.4 30.2-37.6 1.1-3.9 1.7-8.1 1.7-12.5-.3-22.7-17.3-40.6-38.1-40.2-13.6.2-25.5 7.8-31.9 19.1C66.7 25.5 54.7 18.1 41 18.2 20.4 18.5 3.8 37 4.1 59.6c.1 4.4.8 8.6 2 12.4 2.7 11.7 20.6 28.4 38.5 42.8v-8.1c-2.1-.4-3.7-1.6-3.7-3.1z"/><path fill="#D5242A" d="M58.6 93.4c-1.5 4.8-4.1 7.9-7 9.4.1.3.2.6.2.8 0 1.4-1.6 2.6-3.8 3.1v10.8l1.5 1.2c3.2 2.4 7 5.3 10.8 8 .9-.7 1.6-1.5 2.2-2.3v-29c-1.4-.3-2.6-.9-3.2-1.7-.2-.1-.5-.2-.7-.3zM76.3 131.4H67c4.5 3.1 7.8 5.4 7.8 5.4 2.4-1.5 5-3.4 7.9-5.4h-6.4z"/><path fill="#7C7D7F" d="M75.2 130.3c0-.6.5-1.1 1.1-1.1h-2.8v-.1c-3.2-.7-5.9-2.4-7.6-4.8v-29c1.4-.3 2.6-.9 3.2-1.7l2.1-.6c-.5-.9-.8-1.9-1-2.9V90c-.1-.4-.1-.7-.2-1.1 0-.2-.1-.4-.1-.7v-1-.9c0-.3 0-.6.1-.9 0-.3.1-.7.2-1 .1-.3.1-.6.2-.9.1-.4.2-.8.4-1.3.1-.2.1-.5.2-.7.2-.7.5-1.4.8-2 1.4-3.6 3.4-6.9 5.4-9.9h7c-.1-3.8-.8-7.8-2.1-12-1.6-5.9-3.7-11.4-5.7-16.3H52.1c-1.8 4.4-3.7 9.3-5.2 14.5h11.7c-.8 4.8-.8 10-.1 15.9.2 1.1.4 2.3.6 3.3 0 .3.1.6.1.9.1.8.2 1.5.3 2.3 0 .3 0 .6.1.8.1.7.1 1.5.2 2.2v3.3c0 .7 0 1.5-.1 2.1v.3c-.1.7-.1 1.4-.2 2.1v.2c-.1.7-.2 1.4-.4 2.1v.1c-.2.7-.3 1.3-.5 1.9.3.1.5.2.8.2.6.8 1.8 1.4 3.2 1.7v29c-.6.9-1.4 1.6-2.2 2.3 2.4 1.7 4.7 3.3 6.8 4.8h9.3c-.8.1-1.3-.4-1.3-1z"/><path fill="#9B7862" d="M91.6 124.3v-22.6c5.1-.2 9.3-1.6 12.3-3.7-.5-1-1-2-1.4-3 0-.1 0-.1-.1-.2-.4-1-.8-2.1-1.1-3.2v-.1c-.7-2.3-1.2-4.6-1.6-7.1-.2-1.2-.4-2.4-.5-3.6v-.2c-.1-1.2-.3-2.3-.3-3.5v-.2c-.2-2.4-.3-4.9-.3-7.2H84.3v2.4c-.1 1.8-.3 3.6-.6 5.3 0 .2-.1.4-.1.6-.1.5-.2 1-.4 1.5-.1.2-.1.3-.2.5-.3.8-.6 1.7-.9 2.4-.1.2-.2.5-.3.7-.2.4-.4.8-.6 1.1-.1.3-.3.5-.4.8-.2.4-.5.8-.7 1.2l-.9 1.2c-.2.3-.4.5-.7.8-.2.3-.5.5-.7.7l-.7.7c-.3.3-.7.6-1 .9-.3.3-.7.5-1 .7-.3.2-.7.4-1 .6-.3.2-.6.3-.8.4-.4.2-.7.3-1.1.5-.3.1-.5.2-.8.3 2.5 5 8.5 8.3 16.9 8.7v22.6c-1.7 2.4-4.4 4.1-7.6 4.8v.1h-2.8c.6 0 1.1.5 1.1 1.1 0 .6-.5 1.1-1.1 1.1h4.9c2.8-2.1 5.9-4.4 9-6.9-.1 0-.2-.1-.2-.2zM108.8 81.5c.1.2.1.3.2.5-.1-.2-.2-.3-.2-.5zM109.8 85.6c0 .2 0 .4.1.6-.1-.2-.1-.4-.1-.6zM109.8 87.8c0 .2 0 .4-.1.6.1-.2.1-.4.1-.6zM109.7 89.4c0 .3-.1.5-.1.7 0-.2 0-.5.1-.7zM109.5 83.8v0z"/><path fill="#9B7862" d="M103.9 98c-.5-1-1-2-1.4-3 .5 1 .9 2.1 1.4 3zM99.7 84.4c-.2-1.2-.4-2.4-.5-3.6.1 1.3.3 2.4.5 3.6zM106.7 95.6c-.8.9-1.7 1.7-2.8 2.5 1.1-.8 2-1.6 2.8-2.5zM98.8 76.9zM99.1 80.6c-.1-1.2-.3-2.4-.3-3.5.1 1.2.2 2.3.3 3.5zM101.3 91.5c-.7-2.3-1.2-4.6-1.6-7.1.4 2.5.9 4.8 1.6 7.1zM102.5 94.8c-.4-1-.8-2.1-1.1-3.2.3 1.1.7 2.2 1.1 3.2zM109.3 91.1c-.1.4-.3.8-.4 1.1.1-.4.2-.7.4-1.1zM108.6 92.7c-.5 1-1.1 1.9-1.8 2.8.7-.9 1.4-1.8 1.8-2.8zM70.2 90c-.1-.4-.1-.7-.2-1.1.1.4.1.8.2 1.1zM74 91.7c-.3.2-.6.3-.8.4.3-.1.5-.2.8-.4zM70 88.3v-1c-.1.3-.1.6 0 1zM70.2 84.4c.1-.3.1-.6.2-.9-.1.4-.2.7-.2.9zM70.7 82.3c.1-.2.1-.5.2-.7 0 .2-.1.5-.2.7zM70 86.4c0-.3 0-.6.1-.9-.1.3-.1.6-.1.9zM84.2 72.1c-.1 1.8-.3 3.6-.6 5.3.4-1.7.6-3.5.6-5.3zM70.2 90.1c.2 1 .6 2 1 2.9.3-.1.5-.2.8-.3-.3.1-.5.2-.8.3-.4-.9-.7-1.9-1-2.9zM81.8 83c-.2.4-.4.8-.6 1.1.2-.3.4-.7.6-1.1zM83.5 77.9c-.1.5-.2 1-.4 1.5.2-.5.3-1 .4-1.5zM84.2 69.7v1.9c.1-.7.1-1.3 0-1.9zM77.8 88.8l-.7.7c.2-.2.5-.4.7-.7zM76.1 90.4c-.3.3-.7.5-1 .7.3-.2.6-.5 1-.7zM80.8 84.9c-.2.4-.5.8-.7 1.2.2-.4.5-.8.7-1.2zM79.2 87.3c-.2.3-.4.5-.7.8.2-.3.5-.5.7-.8zM83 79.9c-.3.8-.6 1.7-.9 2.4.3-.7.6-1.5.9-2.4z"/><path fill="#D5242A" d="M70.1 88.9c0-.2-.1-.4-.1-.7 0 .3 0 .5.1.7zM70 85.5c0-.3.1-.7.2-1-.1.3-.1.6-.2 1zM70.4 83.6c.1-.4.2-.8.4-1.3-.2.4-.3.9-.4 1.3zM70.2 90.1zM70.9 81.6c.2-.7.5-1.4.8-2-.2.7-.5 1.3-.8 2zM69.9 87.3v-.9.9zM78.5 88.1c-.2.3-.5.5-.7.7.3-.2.5-.4.7-.7zM84.2 69.7zM83.6 77.3c0 .2-.1.4-.1.6.1-.2.1-.4.1-.6zM81.2 84.2c-.1.3-.3.5-.4.8.2-.3.3-.6.4-.8zM84.3 71.5v.5c-.1-.1 0-.3 0-.5zM83.1 79.4c-.1.2-.1.3-.2.5.1-.1.2-.3.2-.5zM77.1 89.5c-.3.3-.7.6-1 .9.3-.3.7-.6 1-.9zM75 91.1c-.3.2-.7.4-1 .6.4-.2.7-.4 1-.6zM73.2 92.2c-.4.2-.7.3-1.1.5.4-.2.7-.3 1.1-.5zM80.1 86.1l-.9 1.2.9-1.2zM82.1 82.4c-.1.2-.2.5-.3.7.1-.3.2-.5.3-.7z"/><path fill="#D5242A" d="M77.2 69.7c-2 3-4 6.3-5.4 9.9-.3.7-.6 1.4-.8 2-.1.2-.1.5-.2.7-.1.4-.3.8-.4 1.3-.1.3-.1.6-.2.9-.1.3-.1.7-.2 1 0 .3-.1.6-.1.9v1.9c0 .2.1.4.1.7 0 .4.1.7.2 1.1v.1c.2 1 .6 2 1 2.9.3-.1.5-.2.8-.3.4-.2.7-.3 1.1-.5.3-.1.6-.3.8-.4.3-.2.7-.4 1-.6.4-.2.7-.5 1-.7.4-.3.7-.6 1-.9l.7-.7.7-.7c.2-.3.5-.5.7-.8l.9-1.2c.3-.4.5-.8.7-1.2.1-.2.3-.5.4-.8.2-.4.4-.7.6-1.1.1-.2.2-.4.3-.7l.9-2.4c.1-.2.1-.3.2-.5.1-.5.3-1 .4-1.5 0-.2.1-.4.1-.6.3-1.7.5-3.4.6-5.3v-.5-1.9c-2.2-.1-4.6-.1-6.9-.1zM75.2 130.3c0 .6.5 1.1 1.1 1.1h1.4c.6 0 1.1-.5 1.1-1.1 0-.6-.5-1.1-1.1-1.1h-1.4c-.6 0-1.1.5-1.1 1.1z"/><path fill="#D5CB95" d="M109.8 88.4c0 .3-.1.7-.1 1 0-.4.1-.7.1-1zM109.8 86.2c0 .5.1 1.1 0 1.6.1-.5 0-1.1 0-1.6zM108.8 92.2c-.1.2-.1.3-.2.5.1-.2.2-.3.2-.5zM109.5 90.1c-.1.3-.2.6-.3 1 .2-.4.3-.7.3-1zM106.8 95.5l-.1.1c0-.1.1-.1.1-.1zM108 79.6c.3.7.6 1.3.8 1.9-.2-.6-.5-1.3-.8-1.9zM109 82c.2.6.4 1.2.5 1.8-.2-.6-.3-1.2-.5-1.8zM109.5 84.1c.1.5.2 1 .2 1.5 0-.5-.1-1-.2-1.5zM98.5 69.7zM101.3 91.6s0-.1 0 0c0-.1 0 0 0 0zM102.5 95c0-.1 0-.1-.1-.2.1.1.1.1.1.2zM103.9 98.1V98zM99.7 84.4zM99.2 80.9v-.2.2zM98.8 77.1v-.2.2z"/><path fill="#D5CB95" d="M106.7 95.6l.1-.1c.7-.9 1.3-1.8 1.8-2.8.1-.2.1-.3.2-.5.2-.4.3-.8.4-1.1.1-.3.2-.6.3-1 .1-.2.1-.5.1-.7.1-.3.1-.7.1-1 0-.2 0-.4.1-.6v-1.6c0-.2 0-.4-.1-.6-.1-.5-.1-1-.2-1.5v-.3c-.1-.6-.3-1.2-.5-1.8-.1-.2-.1-.3-.2-.5-.2-.6-.5-1.3-.8-1.9-1.4-3.6-3.4-6.9-5.4-9.9h-4.1c0 2.4.1 4.8.3 7.2v.2c.1 1.2.2 2.4.3 3.5v.2c.1 1.2.3 2.4.5 3.6.4 2.4.9 4.8 1.6 7.1v.1c.3 1.1.7 2.2 1.1 3.2 0 .1 0 .1.1.2.4 1 .9 2.1 1.4 3 1.2-.7 2.1-1.5 2.9-2.4z"/><path fill="#4E4D50" d="M48 106.7c2.2-.4 3.8-1.6 3.8-3.1 0-.3-.1-.6-.2-.8 2.9-1.5 5.5-4.6 7-9.4-4.6-1.3-8.2-4.1-10.7-8.2-.4-.7-.8-1.3-1.1-2.1 0 0 0-.1-.1-.1l-.9-2.1c0-.1-.1-.2-.1-.3-.2-.7-.5-1.4-.6-2.1 0-.2-.1-.3-.1-.5-.2-.7-.3-1.4-.4-2.1 0-.2 0-.4-.1-.7-.1-.7-.2-1.4-.2-2.1v-.9c0-.6-.1-1.3 0-2 0-.4 0-.8.1-1.2 0-.6 0-1.2.1-1.8 0-.5.1-1 .2-1.5.1-.6.1-1.1.2-1.7.1-.6.2-1.2.4-1.9.1-.5.2-.9.3-1.4l.9-3.3c.2-.6.4-1.2.5-1.8H34.2c.8 4.8.8 10 .1 15.9-3.8 18 .8 27.9 7 31.1-.1.3-.2.6-.2.8 0 1.4 1.6 2.6 3.8 3.1v8.1c1.1.9 2.2 1.8 3.4 2.7v-10.6z"/><path fill="#4E4D50" d="M46.9 55.8c-.2.6-.4 1.2-.5 1.8.1-.6.3-1.2.5-1.8zM44.5 75.2c-.1-.7-.2-1.4-.2-2.1 0 .7.1 1.4.2 2.1zM45 78c-.2-.7-.3-1.4-.4-2.1.1.7.2 1.4.4 2.1zM44.2 72.2c0-.6-.1-1.3 0-2v2zM45.7 80.6c-.2-.7-.5-1.4-.6-2.1l.6 2.1zM44.3 69.1c0-.6 0-1.2.1-1.8-.1.6-.1 1.2-.1 1.8zM44.6 65.8c.1-.6.1-1.1.2-1.7-.1.6-.2 1.1-.2 1.7zM59.9 84.5c0 .7 0 1.5-.1 2.1 0-.6.1-1.3.1-2.1zM59.8 81.9V84c.1-.7.1-1.4 0-2.1zM47.8 85.3c2.5 4 6.1 6.9 10.7 8.2-4.5-1.4-8.2-4.2-10.7-8.2zM47.8 85.2c-.4-.7-.8-1.3-1.1-2.1.4.8.7 1.5 1.1 2.1zM45.2 62.3c.1-.5.2-.9.3-1.4-.2.5-.2.9-.3 1.4zM46.7 83l-.9-2.1c.3.7.5 1.4.9 2.1zM58.5 71.7c.2 1.1.4 2.3.6 3.3-.1-1-.3-2.1-.6-3.3zM59.3 75.9c.1.8.2 1.5.3 2.3-.1-.7-.2-1.5-.3-2.3zM59.7 79.1c.1.7.1 1.5.2 2.2-.1-.8-.2-1.5-.2-2.2zM59.1 91.5c-.2.7-.3 1.3-.5 1.9.2-.6.3-1.3.5-1.9zM59.5 89.3c-.1.7-.2 1.4-.4 2.1.2-.7.3-1.4.4-2.1zM59.8 87c-.1.7-.1 1.4-.2 2.1 0-.7.1-1.4.2-2.1z"/><path fill="#B0BFC8" d="M59.8 86.7v0zM58.6 93.4zM59.2 75.1c0 .3.1.6.1.9-.1-.4-.1-.6-.1-.9zM59.6 78.2c0 .3 0 .6.1.8-.1-.2-.1-.5-.1-.8zM59.5 89.1v0zM59.9 84v0zM59.8 81.2v0zM59.1 91.4zM44.2 70.3c0-.4 0-.8.1-1.2-.1.4-.1.8-.1 1.2zM44.4 67.3c0-.5.1-1 .2-1.5-.1.5-.2 1-.2 1.5zM44.6 75.9c0-.2 0-.4-.1-.7 0 .2 0 .5.1.7zM45.1 78.5c0-.2-.1-.3-.1-.5 0 .2 0 .3.1.5zM44.3 73.1v-.9.9zM45.8 80.9c0-.1-.1-.2-.1-.3 0 .1.1.2.1.3zM58.6 93.4zM47.8 85.3c0-.1 0-.1 0 0 0-.1 0-.1 0 0zM44.8 64.1c.1-.6.2-1.2.4-1.9-.2.7-.3 1.3-.4 1.9zM46.7 83.2s0-.1-.1-.1c.1 0 .1 0 .1.1zM45.4 60.9l.9-3.3-.9 3.3z"/><path fill="#B0BFC8" d="M45.4 60.9c-.1.5-.2.9-.3 1.4-.1.6-.3 1.2-.4 1.9-.1.6-.1 1.1-.2 1.7-.1.5-.1 1-.2 1.5-.1.6-.1 1.2-.1 1.8 0 .4-.1.8-.1 1.2v2.9c0 .7.1 1.4.2 2.1 0 .2 0 .5.1.7.1.7.3 1.4.4 2.1 0 .2.1.3.1.5.2.7.4 1.5.6 2.1 0 .1.1.2.1.3.3.7.5 1.4.9 2.1 0 0 0 .1.1.1.3.7.7 1.4 1.1 2.1 2.5 4 6.1 6.9 10.7 8.2.2-.6.4-1.3.5-1.9v-.1c.1-.7.3-1.3.4-2.1v-.2c.1-.7.2-1.4.2-2.1v-.3c.1-.7.1-1.4.1-2.1v-.5-2.1-.7c0-.7-.1-1.4-.2-2.2 0-.3 0-.5-.1-.8-.1-.7-.2-1.5-.3-2.3 0-.3-.1-.6-.1-.9l-.6-3.3c-.7-5.9-.8-11.1.1-15.9H46.7c-.2.6-.4 1.2-.5 1.8-.2.8-.5 1.9-.8 3z"/></svg>