<svg xmlns:xlink="http://www.w3.org/1999/xlink"  xmlns="http://www.w3.org/2000/svg" viewBox="0 0 2000 2000"><path fill="#D4A4B3" d="M632.7 848.4c35.2-36.1 74.6-50.5 114.8-51.2 9-.2 18 .4 27.1 1.5 86.2 10.4 173 74.1 227.6 112.1-76.4-114.1-164.4-146.9-220.1-155.4l22-128.5-19.6-18.4S741.6 528.9 662 535c-79.6 6.1-361.3 165.3-379.6 300-18.4 134.7 55.1 171.4 55.1 171.4s195.9-257.2 251-293.9c47.5-31.7-150.7 168.8-202.3 334.6L233 1386s50.9 27.9 143.9 55.8v225.9s23.1 61.2 72.1 61.2c49 0 78.9-6.1 85-42.9 2.7-16.4 3.3-108.9 2.7-206.1 5.3.9 6.1 1.7 16.1 2.6v105.6s15.7 79.6 83 73.5c67.4-6.2 83-55.1 83-55.1v-109.2c73 1.3 149.5-3.3 230.1-16.6-93.8-25.2-168.2-63.9-226.9-110.4-123.5-97.9-172.7-230.5-164.5-345.4 5.2-69.1 31.7-131.8 75.2-176.5z"/><path fill="#D4A4B3" d="M1072 400.7c0-81.3-65.7-147.7-147-147.7h-54.5C789.2 253 719 319.4 719 400.7v60.6c0 81.3 70.2 144.7 151.5 144.7H925c81.3 0 147-63.4 147-144.7v-60.6zM886.6 336h-46.9c-18.5 0-33.5-12.5-33.5-31s15-31 33.5-31h46.9c18.5 0 33.5 12.5 33.5 31s-15 31-33.5 31z"/><path fill="#48B2E8" d="M1872.6 835.1c-18.4-134.7-300-293.9-379.6-300-58.3-4.5-96.8 36.9-113.3 59.5-7.3-2.1-13.3-3.8-21.2-5.1 44.7-25.3 76.5-73.1 76.5-128.2v-60.6c0-81.3-69.2-147.7-150.5-147.7H1230c-81.3 0-148.1 66.4-148.1 147.7v60.6c0 76.9 59.3 140 134.5 146.6-154.6 75.5-175.1 328-175.1 328s28.4-89.9 82.6-168.6c38.5-56 90.2-106.3 154.2-114.7 33.4-4.4 62.4-1.9 87.4 4.5 9.6 2.5 18.5 5.6 26.9 9.1 114.1 59.4 185.4 217.3 144.4 398.4-15.3 64.6-46.4 139.2-105.1 217.5-55.3 73.9-133.5 151.1-248 226.4 0 0 127.2-41.7 251.2-145.4v243.4s15.6 49 83 55.1c67.4 6.1 83-73.5 83-73.5V1227l19.5 6.1s-5.6 416.3.6 453.1c6.1 36.7 35.6 42.9 84.6 42.9 49 0 72.4-61.2 72.4-61.2V1123c10-171.4-268-447-212.9-410.2 55.1 36.7 251.7 293.9 251.7 293.9s74.2-36.9 55.8-171.6zM1321.7 347h-60.2c-19.4 0-35.1-17.1-35.1-36.5s15.7-36.5 35.1-36.5h60.2c19.4 0 35.1 17.1 35.1 36.5.1 19.4-15.6 36.5-35.1 36.5z"/><path fill="#CCE5F7" d="M1321.7 274h-60.2c-19.4 0-35.1 17.1-35.1 36.5s15.7 36.5 35.1 36.5h60.2c19.4 0 35.1-17.1 35.1-36.5.1-19.4-15.6-36.5-35.1-36.5z"/><path fill="#EFDAE0" d="M886.6 274h-46.9c-18.5 0-33.5 12.5-33.5 31s15 31 33.5 31h46.9c18.5 0 33.5-12.5 33.5-31s-15-31-33.5-31z"/></svg>