<svg xmlns:xlink="http://www.w3.org/1999/xlink"  version="1" xmlns="http://www.w3.org/2000/svg" viewBox="0 0 150 150"><path fill="#263C47" d="M132.9 61.4c2.8-22.2-4.1-38.8-4.4-39.5-.7-1.6-2.2-2.6-4-2.6h-13.3C93.9 10.4 78.2 6.2 77.5 6c-.4-.1-.7-.1-1.1-.1-.4 0-.7 0-1.1.1-.7.2-16.6 4.3-34 13.2H28c-1.7 0-3.3 1-4 2.6-.3.7-7.2 17.4-4.4 39.5 2.5 20.3 13.9 49.1 53.7 71.6.2.2.4.3.7.5.7.4 1.4.6 2.2.6.4 0 .9-.1 1.3-.2s.7-.2 1-.4c.1-.1.3-.2.4-.3 40.1-22.5 51.5-51.4 54-71.7zm-55.5 63.5c-.1.1-.2.2-.4.2-.3.2-.6.3-.9.4-.2.1-.4.1-.6.1v-.4h-.1v.1h-.1v-.1C7.1 87.2 31.7 29 31.7 29h13c15.9-8.2 30.9-12.1 30.9-12.1s14 3.7 29.3 11.4h11.2c.8 0 1.5.2 2.1.7h1.1s2.2 5.2 3.5 13.6c1 5.7 1.6 13.2.5 21.5-2.3 17.2-11.9 41.7-45.9 60.8z"/><path fill="#C32126" d="M119.4 30.6c.1.3 2 4.8 3.2 12-1.2-8.3-3.5-13.6-3.5-13.6H118c.7 0 1.2.9 1.4 1.6z"/><path fill="#8B181B" d="M122.7 42.6c-1.2-7.2-3.1-11.7-3.2-12-.3-.6-.7-1.4-1.3-1.7-.6-.4-1.3-.8-2.1-.8H104.8C90.1 21 77 17.2 76.4 17c-.2 0-.4.1-.4.1v37.6h-.2c.9-1.1 6.8-12.2 18.9-12.2 12.6 0 20 12.5 13.5 25.5-6.3 12.6-25.9 28.4-31.8 33-.2.2-.5.4-.7.6H76V125.7s.2-.1.4-.1c.3-.1.5-.2.8-.4.1-.1.2-.1.3-.2 33.9-19.1 43.6-43.6 45.7-60.8 1.1-8.5.4-15.9-.5-21.6z"/><path fill="#C32126" d="M76 101.5h-.2c.2-.2.4-.3.6-.6 6-4.5 25.4-20.4 31.8-33 6.6-13-1-25.5-13.5-25.5-12.1 0-18 11.1-18.8 12.2h.2V17.1s.2-.1.4-.1c.6.2 13.7 4 28.4 11h.1c-15.4-7-29.3-11.2-29.3-11.2S60.6 21 44.7 29h-13S7 87.2 75 125.3v.1h1V101.5zM43 68c-6.6-13 .7-25.5 13.3-25.5 11.4 0 17.6 9.9 18.6 11.9v47c0-.1-.1-.3-.3-.4-5.7-4.4-25.2-20.4-31.6-33z"/><path fill="#FFF" d="M75 54.5c-1-2-7.2-11.9-18.6-11.9-12.6 0-20 12.5-13.4 25.5 6.4 12.6 25.9 28.6 31.7 33.1.2.2.3.3.3.4V54.5z"/><path fill="#C32126" d="M130 99.4l-.9-.1c-2.9 22.6-23.6 38.5-46.2 35.6l-.1.9c23.1 2.9 44.3-13.4 47.2-36.4z"/><path fill="#C32126" d="M120.1 123.8c7.5 3.9 12.9-4 12.9-4-9.1-3.2-12.9 4-12.9 4zM118.3 119.7c6-5.9 0-13.5 0-13.5-5.8 7.6 0 13.5 0 13.5zM111.3 131.4c7 4.8 13.3-2.5 13.3-2.5-8.6-4.3-13.3 2.5-13.3 2.5zM111 126.9c6.6-5.2 1.6-13.4 1.6-13.4-6.7 6.9-1.6 13.4-1.6 13.4zM126.4 114.9c8 2.8 12.1-5.9 12.1-5.9-9.4-1.9-12.1 5.9-12.1 5.9zM124.5 110.1c5-6.8-2-13.3-2-13.3-4.6 8.4 2 13.3 2 13.3zM129.8 97.8c6.9-6.7.2-15.4.2-15.4-6.7 8.7-.2 15.4-.2 15.4zM130.6 104.6c8.2 2 11.5-7 11.5-7-9.6-1-11.5 7-11.5 7zM100.2 135.9c5.3 6.5 13.4 1.4 13.4 1.4-6.9-6.5-13.4-1.4-13.4-1.4zM101.2 131.5c7.8-3.1 5.4-12.4 5.4-12.4-8.3 4.7-5.4 12.4-5.4 12.4zM88.1 137.8c3.9 7.5 12.9 4 12.9 4-5.6-7.8-12.9-4-12.9-4zM89.9 133.6c8.3-1.5 7.7-11.1 7.7-11.1-9.1 3.1-7.7 11.1-7.7 11.1zM23.6 101l-.8.1c3.2 23 24.4 39.1 47.4 36l-.1-.9c-22.5 3.2-43.4-12.6-46.5-35.2z"/><path fill="#C32126" d="M33 125.5s-3.9-7.2-12.9-3.9c0 0 5.4 7.9 12.9 3.9zM34.6 107.9s-5.9 7.6.1 13.5c0 0 5.7-5.9-.1-13.5zM28.5 130.6s6.4 7.2 13.3 2.4c0 0-4.7-6.7-13.3-2.4zM40.4 115.1s-5 8.2 1.7 13.4c0 0 5-6.5-1.7-13.4zM26.6 116.6s-2.8-7.7-12.2-5.8c0 0 4.3 8.6 12.2 5.8zM30.3 98.5s-6.9 6.6-1.9 13.4c0-.1 6.5-5 1.9-13.4zM22.7 84.2s-6.6 8.8.3 15.4c0 0 6.5-6.8-.3-15.4zM22.3 106.3s-2-7.9-11.6-6.9c0 0 3.4 9 11.6 6.9zM39.5 138.9s8.2 5.1 13.4-1.5c0 0-6.5-5.1-13.4 1.5zM46.4 120.6s-2.4 9.3 5.5 12.3c0 .1 2.9-7.6-5.5-12.3zM52.2 143.4s9 3.4 12.8-4.1c.1-.1-7.2-3.8-12.8 4.1zM55.4 124.1s-.5 9.6 7.8 11c0 0 1.3-8.1-7.8-11z"/></svg>