<svg xmlns:xlink="http://www.w3.org/1999/xlink"  xmlns="http://www.w3.org/2000/svg" viewBox="0 0 2000 2000"><path fill="#DFC292" d="M1436.9 826.8c0-26.6-3.9-52.5-11.1-77.8-48.7-3.5-122.5-.9-185.7 33.5-27.9 144.3-216.6 256-445.5 256-248 0-449.1-131.1-449.1-292.9 0-161.8 201.1-292.9 449.1-292.9 176.4 0 329 66.3 402.4 162.9 29.3-13.9 69.2-32.3 105.1-46.9-118.7-100.5-305-165.3-514.6-165.3-358.6 0-649.3 189.6-649.3 423.5s290.7 423.5 649.3 423.5c358.6-.2 649.4-189.8 649.4-423.6z"/><path fill="#B98D2F" d="M1793.1 698.7c-150.4-179.2-494.9-137.5-769.6 93-66.4 55.7-122.6 117.4-167.5 181.4 21.5 1.7 47.5 3 72.3 2 33.4-53 77.9-104.4 132.3-150.1 190-159.5 428.3-188.3 532.3-64.4 104 123.9 34.3 353.6-155.7 513.1-190 159.4-428.3 188.2-532.3 64.4-3-3.6-5.8-7.3-8.5-11-50.5 6.2-115.4 10.5-167.8 1.3.3 78.1 22.7 149.1 69.7 205.1 150.3 179.2 494.9 137.5 769.6-93.1 274.7-230.4 375.5-562.6 225.2-741.7z"/></svg>