<svg xmlns:xlink="http://www.w3.org/1999/xlink"  xmlns="http://www.w3.org/2000/svg" viewBox="0 0 2000 2000"><path fill="#FFA7B3" d="M1740.7 791.5l22.7 25.5s3.3 1.6 8.3 4.4c12.7 7.4 36.7 23.9 46.8 48.6 3.2 8 5 16.8 4.5 26.4-2.8 51.1-65.3 326.3-65.3 326.3s113.5-289.4 122-332c8.5-42.4-59.6-85-139-99.2zM1015 1017.1c-.1-9.4-.1-19-.1-28.8-2.8 10.3-7 20.7-12.8 30.9l12.9-2.1z"/><path fill="#FFA7B3" d="M1017.1 1157.6s-.1-6.1-.4-16.5c-24.1 63.7-170.9 107.4-203.8 107.4-37 0-40.1-21.6-27.8-21.6s40.1-27.7 40.1-27.7c-89.4 40.1-160.4 15.4-160.4-3.1s18.5-27.8 18.5-27.8c-24.7-6.2-43.2-52.4-3.1-43.2 40.1 9.2 86.3-30.9 86.3-30.9s-12.3 6.2-21.6-6.2c-9.2-12.4 15.4-12.4 15.4-12.4l13.8-5c-91.9-80.8-67.4-192.2-5.7-205.2 63.4-13.3 89.7 56.9 103.2 72.2 5.9-16.2 69.6-81 117.8-44.4 12.1 9.2 20.8 22.6 25.5 38.2.8-112 5.1-225.2 19.1-233.7 20.8-12.4 411.9 55.6 632.7 100.8C1578 461 1270.9 212.1 905.6 212.1c-274.8 0-516.6 141-657.4 354.5 42.8-31 95.3-49.6 152.2-49.6C543.8 517 660 633.3 660 776.6c0 143.4-116.2 259.6-259.6 259.6-133.4 0-243.2-100.7-257.8-230.2-15.6 61.8-23.9 126.4-23.9 192.9 0 28.5 1.6 56.7 4.6 84.5 27.3-30.7 91.3-88.8 159.2-52.2 90 48.5 242.3 394.7 387.7 436.2 145.4 41.5 360-159.3 436.2-138.5 76.2 20.8 124.6 117.7 124.6 138.5 0 20.8-339.3 256.2-650.8 207.7-41.6-6.5-80-14.7-115.4-24.3 125.8 85.2 277.5 135 440.9 135 89 0 174.5-15 254.2-42.2-49.9-30.4-122.7-82.4-122.7-82.4 221.1-84.7 253.6-153.3 251.7-188.7-.4-3.6-1-7.6-2-11.8-2.8-9.2-7.3-14.2-7.3-14.2l2.2-1.7c-13.1-32.3-47.3-75-132.6-114.1-166.2-76.2-290.8 159.2-401.6 90 0 0-62.3-6.9-20.8-55.4s207.7-166.2 270-166.2c44.5 0 336.4 127.2 499.5 209.9 21.7 8.3 43.9 17.3 63.9 26.4 8.3-12.4 16.1-25.1 23.7-38-171.2-56-566.8-225.9-566.8-239.8zm-1.8-543.3c18.2 4.5 16.3 26.2 17.9 31.8 3.6-3.5 28.4-12.4 36.3 3.2 9.9 19.3-14.3 54-65.7 39 0 0-.5-.2-.6-.2l-.5-.6c-33.3-40.6-8.5-78.4 12.6-73.2zm-252.7 94.2c17.9-18.4 42.1-1.1 49.9.9-1.6-6.6 4.9-42.1 28.9-40.7 29.7 1.7 54 54.2.7 104.7l-.6.5-1 .1c-71.2 11.3-98.6-44.1-77.9-65.5z"/><path fill="#7DCBEB" d="M1680.3 860.7c-148.9-47.3-583.6-108.8-598-77.7 0 0-9.5 124.6-10 221.1 107.9-30.1 189.5-83.5 212.5-85.6 33.9-3.1 67.9 9.2 74 64.8 4.6 41-182.3 93.7-280.6 118.5 1.1 4.6 2.5 8.2 4.1 10.4 22.7 31.2 488 229.8 510.7 218.5 12.5-6.3 58.9-127.9 94.5-243.1 28.8-93.2 50.6-182.1 41.7-202.4-3-7.2-20.9-15.6-48.9-24.5z"/><path fill="#C97B86" d="M989.6 893.4c-48.2-36.6-111.9 28.2-117.8 44.4-13.5-15.2-39.8-85.5-103.2-72.2-61.7 13-86.2 124.4 5.7 205.2 17.4 15.2 38.8 29.4 65 41.6l2.3 1.1c.1 0 2-.3 2-.3 84.4-14.1 134.7-52.4 158.5-94.1 5.8-10.2 10.1-20.6 12.8-30.9 5.4-20.1 5.2-39.7.1-56.7-4.6-15.6-13.3-28.9-25.4-38.1zM1003.2 688.2l.6.2c51.5 15 75.6-19.7 65.7-39-8-15.6-32.8-6.7-36.3-3.2-1.6-5.7.4-27.3-17.9-31.8-21.1-5.2-45.9 32.6-12.5 73.3l.4.5zM840.6 774l1-.1.6-.5c53.3-50.5 29-103-.7-104.7-24-1.3-30.5 34.1-28.9 40.7-7.8-2-32.1-19.3-49.9-.9-20.8 21.4 6.6 76.8 77.9 65.5z"/></svg>