<svg xmlns:xlink="http://www.w3.org/1999/xlink"  xmlns="http://www.w3.org/2000/svg" viewBox="0 0 2000 2000"><path fill="#FFAD26" d="M854.1 1713.9l22.9 162.7L983.7 1629l-32.9-69.7z"/><path fill="#D8505C" d="M1481.3 937.9c-1.1-2.6-2.3-4.9-3.4-7.4l9.1 26.1-239.2 172.4c-35.8 4.4-40.3-34.9-40.3-34.9l199.1-266.6c-115.7-109-280.6-75.2-302.9-10.1-28 81.5 49.9 37.2 52.3 77.9 2.5 40.6-100.9 22.9-105.4-46.4-1.5-22.4-32.9-56.3-79.9-82.5-22.7-15.2-50.9-28.3-85.9-35.5-68-14-150-4.6-217.4 29.6l-5.7 3.3c-225.3 135.1-131 462 162.4 575.4 293.4 113.4 412.2 213.5 412.2 333.5 0 0 149-255.7 228.7-458 35.1-94.6 51.1-194.3 16.3-276.8zm-707.2-83.2c-122 58.3-190.6-36.4-34.3-91s255.4 61.9 255.4 61.9c-64.8-36.5-99.1-29.2-221.1 29.1zm465.1 757.3s0-98.3-144.9-182.1c-125.4-72.5-153.7-82.2-159-83.5-.7-.1-1.1-.2-1.1-.2s.3 0 1.1.2c22.5 4.3 377.7 75.2 303.9 265.6z"/><path fill="#D8505C" d="M1476.6 927.6c-14.8-32.3-32.4-59.4-52-81.6l-122 195.2 174-113.6z"/><path fill="#8C5558" d="M1620.4 667.2l-5.5 2.8 5.1 3.4 40.2 26.3 2.4 1.5 2.2-1.7c1.6-1.2 38.3-30.2 61.4-83.8 21.3-49.4 34-129.7-26-231.7-.1.1 47.9 216.9-79.8 283.2zM1287 684.3c62.5-14.6 140.3-32.8 233.7-79.1C1631.9 550 1667 450 1676.9 375.8c10.7-80.1-4.9-148.1-5.1-148.8 0 0-39 304.6-291.8 382-257.5 78.8-276.9 168.9-276.9 168.9 44.3-61.1 102.9-74.7 183.9-93.6zM1609.3 924.4c40.6 0 69.4-8.9 85.5-26.4 15.4-16.7 13.1-34.9 13-35.7l-98.5 62.1zM1546.9 1048.2c27.4 5 48.8 1.2 63.6-11.3 23.5-19.9 21.3-54.3 21.2-55.8l-84.8 67.1zM1617.3 837.3c122.2-26.7 117.8-155.2 117.7-156.5l-117.7 156.5zM1489.9 1143c27.8 2 44.2-2.2 50-12.6 7.2-12.9-6-29.4-6.6-30.1l-43.4 42.7zM502.3 1214.5c7 12.5 27.5 17.6 61.1 15.2l-53-51.5c-.7.8-16.8 20.8-8.1 36.3zM414.7 1098.5c18.1 15.3 44.3 19.9 78 13.8l-104-82.1c-.1 1.7-2.8 43.9 26 68.3zM347.5 680.8l2.2 1.7 2.4-1.6 49.7-32.6 5.1-3.4-5.5-2.8C242.5 559.7 304 291.3 304 291.3c-74.2 126-58.4 225.2-32.2 286.2 28.5 66.1 73.8 101.9 75.7 103.3zM525.8 563.8c115.6 57.4 211.8 79.8 289.2 97.9 100.5 23.5 173.1 40.4 228.2 116.3 0 0-25.6-110.4-343.9-207.8-313.7-96-360.2-473.6-360.2-473.6-.2.8-19.5 85-6.3 183.9 12.3 91.6 55.7 215.2 193 283.3zM405.9 851.2L260.8 658.3c0 1.6-5.5 160 145.1 192.9zM294.6 883.1c-.1.9-2.9 23.1 15.8 43.5 19.8 21.5 55.2 32.4 105.2 32.4l-121-75.9zM1247.8 1129l28.3-70.4 26.5-17.3 122-195.2 33-52.8c10.2 8.6 19.2 18.4 23.1 28.7l50.8-145.7-118.2 88.6s13.1 6.3 27.9 16.2l-34.7 46.5-199.1 266.6c0-.1 4.5 39.1 40.4 34.8z"/><path fill="#FFAD26" d="M888.7 1533.2l-67.5-18.4-212.1 174.9 183.2-32.2z"/><path opacity=".31" fill="#8C5558" d="M1476.8 927.5l-.2.2c.4.9.9 1.9 1.3 2.8l-1.1-3z"/><path fill="#D8505C" d="M1247.8 1129L1487 956.6l-9.1-26.1c-.4-1-.9-1.9-1.3-2.8l-174 113.6-54.8 87.7z"/><path fill="#9F6F70" d="M1247.8 1129L1487 956.6l-9.1-26.1c-.4-1-.9-1.9-1.3-2.8l-174 113.6-54.8 87.7z"/><path fill="#8C5558" d="M1276.1 1058.5l-28.3 70.5 54.8-87.8z"/><path opacity=".31" fill="#8C5558" d="M1276.1 1058.5l-28.3 70.5 54.8-87.8z"/><path fill="#D8505C" d="M739.8 763.6c-156.3 54.6-87.7 149.3 34.3 91 122-58.3 156.3-65.6 221.1-29.1 0 0-99.1-116.5-255.4-61.9z"/><path fill="#F09C9C" d="M739.8 763.6c-156.3 54.6-87.7 149.3 34.3 91 122-58.3 156.3-65.6 221.1-29.1 0 0-99.1-116.5-255.4-61.9z"/><path fill="#D8505C" d="M935.3 1346.4c-.8-.2-1.1-.2-1.1-.2s.4 0 1.1.2z"/><path opacity=".65" fill="#FFFFFE" d="M935.3 1346.4c-.8-.2-1.1-.2-1.1-.2s.4 0 1.1.2z"/><path fill="#D8505C" d="M935.3 1346.4c5.3 1.3 33.6 11 159 83.5 144.9 83.7 144.9 182.1 144.9 182.1 73.8-190.4-281.4-261.3-303.9-265.6z"/><path fill="#F09C9C" d="M935.3 1346.4c5.3 1.3 33.6 11 159 83.5 144.9 83.7 144.9 182.1 144.9 182.1 73.8-190.4-281.4-261.3-303.9-265.6z"/><path fill="#8C5558" d="M780.4 1716.4s5.1 43.7 45.8 38.8l183.7-288.7c-9-5-18.3-10.1-28-15.1l-201.5 265z"/></svg>