<svg xmlns:xlink="http://www.w3.org/1999/xlink"  xmlns="http://www.w3.org/2000/svg" viewBox="0 0 2000 2000"><path fill="#B54878" d="M293.4 225.6c0 .1 0 .2-.1.3.1 0 .3 0 .4-.1l-.3-.2zM1707.5 225.6l-.3.3c.1 0 .2.1.4.1-.1-.2-.1-.3-.1-.4zM681.2 613.7c-.2 0-.4-.1-.6-.1l-45.3-45.3-342-342c-78.5 360.5 53.9 627 255.9 605.9 110.2-11.5 138.1-81.2 140-144.2.6-19.1-1.3-37.5-3.9-53.5-1.3-7.5-2.7-14.5-4.1-20.8zM1320.3 613.6c-.2 0-.4.1-.6.1-1.4 6.3-2.8 13.2-4.1 20.7-2.6 16.1-4.5 34.5-3.9 53.5 1.8 63 29.7 132.6 140 144.2 202 21.1 334.4-245.4 255.9-605.9l-342 342-45.3 45.4z"/><path fill="#E44486" d="M1320.3 613.6l45.3-45.3 342-342 .3-.3c-.1 0-.2 0-.3-.1-.1 0-.2 0-.4-.1-360.5-78.5-627 53.9-605.9 255.9 12.9 123.3 98.5 143.6 166.3 139.6 19.6-1.1 37.8-4.3 52.2-7.6.1 0 .3 0 .5-.1zM680.6 613.6c.2 0 .4.1.6.1 14.4 3.3 32.6 6.5 52.2 7.6 67.8 4 153.3-16.3 166.3-139.6 21.1-202.1-245.4-334.4-605.9-255.9-.1 0-.2.1-.4.1-.1 0-.2.1-.3.1l.3.3 342 342 45.2 45.3z"/><path fill="#9FA1A4" d="M1031.4 905l26.2 24.9L1311.7 688c-.6-19.1 1.3-37.5 3.9-53.5L1031.4 905zM1480.3 1405.5l-18.3-20.2-55.4-61.3-19.9-22-360.1-342.7-26.2-24.9-30.9-29.4-284.2-270.5c2.6 16.1 4.5 34.5 3.9 53.5l254.2 241.9 30.9 29.4L614.2 1302l-19.9 22-55.4 61.3-18.3 20.2-8.1 1.1-51.9 426.3L835.5 1458l-48.8-270.3 213.8-203.5 213.8 203.5-48.8 270.3 374.9 374.9-51.9-426.3-8.2-1.1z"/><path fill="#5C5D60" d="M685.3 634.5L969.5 905l30.9 29.4 26.2 24.9 360.1 342.7 19.9 22 55.4 61.3 18.3 20.2 8.1 1.1 389.3 51.4-374.9-374.9-238.9 43.1-206.3-196.3-26.2-24.9 284.2-270.5c1.2-7.5 2.7-14.4 4.1-20.7-14.4 3.3-32.6 6.5-52.2 7.6l-267.1 254.2-267-254.2c-19.6-1.1-37.8-4.3-52.2-7.6 1.4 6.2 2.8 13.2 4.1 20.7zM538.9 1385.3l55.4-61.2 19.8-22 360.2-342.7-31-29.5L737 1126.3l-238.9-43.2L123.2 1458l389.3-51.4 8.1-1.1z"/></svg>