<svg xmlns:xlink="http://www.w3.org/1999/xlink"  xmlns="http://www.w3.org/2000/svg" viewBox="0 0 2000 2000"><path fill="none" d="M883.2 1515.2c16.8-9.3 34.9-11.4 51.8-7.5l.5-1.5 1.3.6c8.2-17.8 21.1-32.9 37.9-42.2 16.3-9 33.9-11.3 50.4-7.8 25.8-19.1 49.4-39.8 70.6-61.7 6.4-6.6 12.5-13.3 18.4-20.1 1.6-1.8 3.1-3.6 4.7-5.4 1.5-1.8 3-3.6 4.5-5.5 5.6-9.1 10.9-18.4 15.7-27.7-212.7 15.7-404.4-65.1-490.3-228.3-27.5-52.2-41.8-108.6-44.4-166.5-4.1 2-8.2 4-12.3 6.2-110.3 57.7-191.9 144.2-235 237.2-21.5 76.9-17 154.9 18.9 223.1 77.9 148 278.1 200.8 475.8 137.5 7.9-12.7 18.5-23.3 31.5-30.4zM851.9 958c57.7 108.7 183.7 164.5 325.4 158.9-4.9-25.8-13.5-50.8-26.1-74.6-57.7-109.2-183.8-165.2-325.5-159.3 4.9 25.9 13.5 51.1 26.2 75zM1130 488.6c-17.4 9.6-36 11.8-53.5 7.8l-.5 1.6-1.4-.6c-8.4 18.4-21.8 33.9-39.1 43.5-19.6 10.9-40.9 12.2-60.2 5.8-38.1 28.8-71.2 61.2-98.7 95.8-4.2 6.9-8.1 13.8-11.8 20.9 212.6-14.7 404.3 66.5 490.9 223.5.3 0 .7 2.6 1 3.2 3.5 6.7 6.8 15 9.9 21.9.8 1.7 1.6 3.5 2.3 5.2 2.9 6.8 5.8 13.6 8.3 20.5.1.2.2.4.2.6 2.5 6.8 4.8 13.8 6.9 20.7.6 1.9 1.2 3.9 1.7 5.8 1.9 6.7 3.7 13.4 5.3 20.1.2.8.4 1.6.5 2.4 1.5 6.7 2.8 13.3 3.9 20.1.4 2.2.7 4.5 1.1 6.7 1 6.3 1.8 12.6 2.5 18.9.2 1.7.4 3.5.5 5.2.6 6.1 1 12.3 1.3 18.5 0 .5 0 1 .1 1.4 3.9-1.9 7.9-3.8 11.8-5.9 110.1-57.5 191.7-143.4 235.1-235.8 22.1-77.4 17.8-156.2-18.4-224.9-76.2-144.8-269.4-198.5-462.8-141.5-8.7 16.3-21.1 29.9-36.9 38.6z"/><path fill="#009DBF" d="M1066.5 333.1c10.4-4.2 20.8-8.2 31.2-12-10.5 3.8-20.9 7.8-31.2 12zM955.2 388.2c11.7-6.9 23.5-13.6 35.7-20-12.1 6.3-24 13.1-35.7 20zM1032.4 347.9c9.2-4.2 18.3-8.3 27.6-12.1-9.3 3.8-18.5 7.9-27.6 12.1zM799.7 1064.1c-19.4-36.9-29.7-76.8-31.8-118 4.2 31.9 13.6 62.7 28.9 91.7 65.1 123.6 217.1 180.3 384.4 159.6.3-3.8.6-7.6.8-11.4-161.8 19-310.2-38.3-374.9-160.2-22.8-43-32.9-89.9-31.9-138-56.6 8.1-114.6 25.8-170.9 53.7 2.5 58 16.9 114.3 44.4 166.5 85.9 163.2 277.6 244 490.3 228.3 18.1-34.7 30.8-70.4 37.6-106.2-164.7 15.2-312.3-43.5-376.9-166zM998.6 364.3c-2.6 1.3-5.1 2.5-7.7 3.9 2.6-1.4 5.2-2.6 7.7-3.9zM1024.7 351.4c-8.1 3.8-16.1 7.8-24.2 12 1.9-1 3.9-1.9 5.9-2.9 6.1-3.1 12.2-6.2 18.3-9.1zM883 631.9c-2.3 3.5-4.3 7.1-6.4 10.7 27.6-34.6 60.7-67 98.7-95.8-23.2-7.7-43.6-26.6-54.7-54.2-8.2-20.4-10.1-42.3-6.6-62.8l-.4-.2 1.2-3.9c1.1-5 2.5-9.9 4.2-14.7 10.9-7.2 22-14.2 33.4-21C814 472.3 710.7 586.7 653.8 709.2c68.2-25 137-39.9 203.9-45.2 7.9-10.9 16.2-21.6 25.3-32.1zM1794.7 504.6c-113-214.6-408.6-286.8-694.8-184.3 11.8-4.2 23.6-8.1 35.5-11.8 15.2 9.9 27.9 25.3 35.9 45.1 12.9 32.2 10.2 68.3-4.6 96.5 193.4-57 386.5-3.3 462.8 141.5 36.2 68.7 40.5 147.5 18.4 224.9 1-2.1 2.1-4.2 3-6.3-29.5 115.8-119.1 229.7-251 303.6-.1.8-.1 1.6-.2 2.4-.3 3.7-.7 7.4-1.2 11 236.4-125.9 353.4-368.9 261.1-543.9-29.6-56.3-77.3-98.6-136.2-126.2 71.3 27.6 129.2 74.6 163.5 139.7 95.2 180.7-26.4 431.8-271.3 560.8-7.9 4.2-15.8 8.1-23.8 11.9-.6 3.1-1.3 6.2-2 9.3-1.5 6.6-3.1 13.1-4.8 19.6-.8 2.9-1.6 5.9-2.4 8.8-1.2 4.4-2.5 8.7-3.9 13.1-.7 2.4-1.5 4.8-2.3 7.1-2.7 8.2-5.6 16.5-8.7 24.7-.7 1.8-1.3 3.5-2 5.3-1.9 4.9-3.9 9.7-5.9 14.6-.6 1.4-1.2 2.7-1.8 4.1-1.9 4.4-4 8.7-6.1 13.1 33.8-12.5 67.4-27.3 100.5-44.8 316.5-166.5 469.7-497.8 342.3-739.8z"/><path fill="#00ADD2" d="M1412.7 1052.4c-3.9 2-7.8 3.9-11.8 5.9.1 2.2.2 4.4.2 6.5.2 5.6.2 11.2.1 16.8 0 3.1-.1 6.1-.2 9.2-.2 5.3-.4 10.6-.8 16-.2 2.4-.4 4.8-.6 7.1 131.9-74 221.5-187.8 251-303.6-.9 2.1-2 4.2-3 6.3-43.1 92.4-124.7 178.3-234.9 235.8zM883 631.9c-9.1 10.5-17.4 21.2-25.4 32.1 2.4-.2 4.8-.3 7.2-.5 3.7-7 7.7-14 11.8-20.9 2.1-3.6 4.1-7.2 6.4-10.7z"/><path fill="#80CDE3" d="M1396.2 1144.6c-.6 4.2-1.3 8.4-2 12.6-.7 3.8-1.4 7.6-2.1 11.3-.1.4-.2.8-.3 1.3 8-3.8 15.9-7.8 23.8-11.9 244.9-129 366.5-380.1 271.3-560.8-34.3-65.1-92.1-112.2-163.5-139.7 58.9 27.6 106.6 69.9 136.2 126.2 92.2 175.1-24.7 418-261.1 543.9-.1 1-.2 1.9-.3 2.9-.6 4.7-1.3 9.4-2 14.2zM796.8 1037.8c-15.3-29-24.7-59.8-28.9-91.7 2.1 41.2 12.4 81.1 31.8 118 64.5 122.5 212.2 181.2 376.9 166.1 2.1-11 3.6-21.9 4.5-32.8-167.3 20.7-319.2-36-384.3-159.6z"/><path fill="#F684B9" d="M914.7 425.6l-1.2 3.9.4.2c-3.5 20.5-1.6 42.4 6.6 62.8 11.1 27.6 31.5 46.6 54.7 54.2 19.3 6.4 40.6 5 60.2-5.8 17.4-9.6 30.7-25.1 39.1-43.5l1.4.6.5-1.6c17.5 4 36.2 1.9 53.5-7.8 15.7-8.7 28.1-22.3 36.6-38.5 14.8-28.2 17.6-64.3 4.6-96.5-8-19.8-20.8-35.1-35.9-45.1-11.8 3.6-23.6 7.6-35.5 11.8-.7.3-1.5.5-2.2.8-10.4 3.8-20.8 7.8-31.2 12-2.2.9-4.4 1.8-6.5 2.7-9.2 3.8-18.4 7.9-27.6 12.1-.5.2-1.1.5-1.6.7l25.7 10.8c2.2.6 4.3 1.5 6.3 2.6l1.2.5-.1.2c5.5 3.5 10.2 9 13.1 16.2 7.2 17.9.7 39.2-14.5 47.6-6.1 3.4-12.7 4.2-18.9 2.7l-.2.6-.5-.2c-3 6.5-7.7 12-13.8 15.3-15.2 8.4-33.3.8-40.5-17.1-2.9-7.2-3.6-14.9-2.3-22.2h-.2l.4-1.4c.5-2.5 1.3-5 2.2-7.3l10-32.6c-2.5 1.3-5.1 2.5-7.7 3.8-12.2 6.4-24.1 13.1-35.7 20l-3 1.8c-11.3 6.8-22.5 13.8-33.4 21-1.5 4.8-2.9 9.7-4 14.7zm124.7 97.1s-19.5 31.8-58.6 14.7l58.6-14.7z"/><path fill="#F684B9" d="M1030.6 348.7c-2 .9-3.9 1.8-5.9 2.7-6.1 2.9-12.2 6-18.3 9.1 8-4 16.1-8.1 24.2-11.8zM1039.4 522.7l-58.6 14.7c39.1 17 58.6-14.7 58.6-14.7z"/><linearGradient id="a" gradientUnits="userSpaceOnUse" x1="2571.574" y1="1406.123" x2="2629.509" y2="1477.577" gradientTransform="rotate(180 1795 973.17)"><stop offset="0" stop-color="#fdc0d3"/><stop offset=".173" stop-color="#fcb6cc"/><stop offset=".472" stop-color="#f79abb"/><stop offset=".859" stop-color="#ef6ca0"/><stop offset="1" stop-color="#eb5a95"/></linearGradient><path fill="url(#a)" d="M1039.4 522.7l-58.6 14.7c39.1 17 58.6-14.7 58.6-14.7z"/><path fill="#00ADD2" d="M591.9 947.7c4.1-2.1 8.2-4.1 12.3-6.2 56.3-27.9 114.3-45.7 170.9-53.7-1 48.1 9.1 95 31.9 138 64.7 122 213.2 179.3 374.9 160.2-.2 3.8-.5 7.6-.8 11.4-.9 10.9-2.5 21.9-4.5 32.8-6.8 35.7-19.5 71.5-37.6 106.2-4.9 9.3-10.1 18.6-15.7 27.7.8-1 1.7-2 2.5-3l4.5-5.7c4.9-6.2 9.7-12.6 14.2-18.9.5-.7 1.1-1.4 1.6-2.2 2-2.8 3.9-5.7 5.8-8.5 1.5-2.2 2.9-4.3 4.3-6.5 1.8-2.8 3.6-5.6 5.4-8.5l4.2-6.9c2.1-3.4 4.1-6.9 6-10.3 2.1-3.8 4.2-7.6 6.2-11.4 1.4-2.7 2.7-5.3 4.1-8 1.3-2.6 2.6-5.1 3.8-7.7 1.3-2.7 2.5-5.4 3.7-8 1.3-2.8 2.4-5.6 3.6-8.3 1-2.5 2.1-4.9 3.1-7.4 1.9-4.8 3.7-9.5 5.4-14.3.9-2.4 1.7-4.9 2.5-7.3 1-3 2-5.9 2.9-8.9.8-2.5 1.5-4.9 2.2-7.4 1-3.3 1.8-6.6 2.7-9.9.5-2 1.1-4.1 1.6-6.1 1.2-5 2.3-10 3.2-15 .4-2.2.8-4.3 1.2-6.5.6-3.3 1.1-6.6 1.6-10l.9-6.6c.5-3.8.9-7.7 1.2-11.5.1-1.5.3-3.1.4-4.6.4-5.1.6-10.3.8-15.4.1-1.9 0-3.8.1-5.7 0-3.6 0-7.2-.1-10.7-.1-2-.1-3.9-.2-5.9-.2-4.3-.5-8.6-.9-12.9-.1-1-.1-2-.2-3-.5-5.2-1.2-10.3-2-15.4l-.9-5.1c-.6-3.7-1.4-7.4-2.1-11.1-.4-1.7-.7-3.4-1.1-5.1-1.1-4.7-2.3-9.3-3.6-14-.1-.5-.3-1-.4-1.5-1.5-5.1-3.2-10.1-5-15.1-.5-1.5-1.1-3-1.7-4.5-1.4-3.7-2.9-7.3-4.5-11-.6-1.5-1.3-3-2-4.5-2.2-4.9-4.6-9.8-7.1-14.6-3.7-7-7.7-13.7-12-20.3-.8-1.2-1.6-2.6-2.4-3.7-4.3-6.4-8.7-12.7-13.4-18.7-107.9-136-338.8-162.6-544.1-54.5-136 71.6-229.6 186.1-262.4 303.4 43.2-93.4 124.8-179.9 235-237.7zm559.3 94.6c12.6 23.8 21.1 48.8 26.1 74.6-141.7 5.6-267.7-50.3-325.4-158.9-12.7-23.9-21.3-49.1-26.2-74.9 141.7-6 267.8 50 325.5 159.2z"/><path fill="#00B3E6" d="M1359.7 1272.2c2.1-4.8 4-9.7 5.9-14.6.7-1.8 1.3-3.5 2-5.3 3.1-8.2 6-16.4 8.7-24.7.8-2.4 1.6-4.7 2.3-7.1 1.4-4.4 2.7-8.7 3.9-13.1.8-2.9 1.6-5.9 2.4-8.8 1.7-6.5 3.3-13.1 4.8-19.6.7-3.1 1.4-6.2 2-9.3.1-.4.2-.8.3-1.3.8-3.8 1.5-7.6 2.1-11.3.7-4.2 1.4-8.4 2-12.6.7-4.8 1.4-9.5 1.9-14.3.1-1 .2-1.9.3-2.9.4-3.7.8-7.4 1.2-11 .1-.8.1-1.6.2-2.4.2-2.4.4-4.8.6-7.1.4-5.3.6-10.7.8-16 .1-3.1.2-6.1.2-9.2.1-5.6 0-11.2-.1-16.8-.1-2.2-.2-4.4-.2-6.5 0-.5 0-1-.1-1.4-.3-6.2-.7-12.3-1.3-18.5-.2-1.7-.3-3.5-.5-5.2-.7-6.3-1.5-12.6-2.5-18.9-.3-2.2-.7-4.5-1.1-6.7-1.1-6.7-2.4-13.4-3.9-20.1-.2-.8-.4-1.6-.5-2.4-1.6-6.8-3.3-13.5-5.3-20.1-.6-1.9-1.1-3.9-1.7-5.8-2.1-6.9-4.3-13.9-6.9-20.7-.1-.2-.2-.4-.2-.6-2.5-6.9-5.4-13.7-8.3-20.4-.8-1.7-1.5-3.5-2.3-5.2-3.1-6.9-6.4-15.2-9.9-21.9-.3-.6-.7-3.2-1-3.2-86.6-157-278.3-238.3-490.9-223.5-2.4.2-4.8.3-7.2.5-66.9 5.3-135.7 20.2-203.9 45.2-33.9 12.4-67.6 27.2-100.8 44.7C236.2 920.7 83 1252.7 210.4 1494.7c109.3 207.6 389.1 282.2 666.2 194.1-14.1-9.6-26-24-33.6-42.7-13.6-33.8-9.3-72.1 8.4-100.2-197.7 63.4-397.8 10.6-475.8-137.5C340 1340 335.5 1261.9 357 1185c32.8-117.3 126.4-231.9 262.4-303.5 205.3-108.1 436.3-81.5 544.1 54.5 4.7 6 9.2 12.4 13.4 18.7.8 1.2 1.6 2.5 2.4 3.7 4.2 6.6 8.3 13.3 12 20.3 2.5 4.8 4.9 9.7 7.1 14.7.7 1.5 1.3 3 2 4.5 1.6 3.6 3.1 7.3 4.5 11 .6 1.5 1.2 3 1.7 4.6 1.8 5 3.5 10 5 15.1.1.5.3 1 .4 1.5 1.3 4.6 2.5 9.3 3.6 14 .4 1.7.8 3.4 1.1 5.1.8 3.7 1.5 7.4 2.1 11.1l.9 5.1c.8 5.1 1.5 10.2 2 15.4.1 1 .1 2 .2 3 .4 4.3.7 8.6.9 12.9.1 1.9.1 3.9.2 5.9.1 3.6.1 7.1.1 10.7 0 1.9 0 3.8-.1 5.7-.1 5.1-.4 10.2-.8 15.4-.1 1.5-.3 3.1-.4 4.6-.3 3.8-.7 7.7-1.2 11.5l-.9 6.6c-.5 3.3-1 6.6-1.6 10-.4 2.2-.7 4.4-1.2 6.5-1 5-2 10-3.2 15-.5 2-1.1 4.1-1.6 6.1-.9 3.3-1.7 6.6-2.7 9.9-.7 2.5-1.5 4.9-2.2 7.4-.9 3-1.9 6-2.9 8.9-.8 2.4-1.6 4.9-2.5 7.3-1.7 4.8-3.5 9.6-5.4 14.3-1 2.5-2.1 4.9-3.1 7.4-1.2 2.8-2.4 5.6-3.6 8.3-1.2 2.7-2.5 5.4-3.7 8-1.2 2.6-2.5 5.1-3.8 7.7-1.3 2.7-2.7 5.4-4.1 8-2 3.8-4.1 7.6-6.2 11.4-1.9 3.5-4 6.9-6 10.3l-4.2 6.9c-1.8 2.8-3.6 5.6-5.4 8.5-1.4 2.2-2.9 4.3-4.3 6.5-1.9 2.8-3.8 5.7-5.8 8.5-.5.7-1.1 1.4-1.6 2.2-4.6 6.4-9.3 12.7-14.2 18.9l-4.5 5.7c-.8 1-1.7 2-2.5 3-1.5 1.8-3 3.7-4.5 5.5-1.5 1.8-3.1 3.6-4.7 5.4-5.9 6.8-12 13.5-18.4 20.1-21.2 22-44.8 42.7-70.6 61.7 25.7 5.4 48.9 24.8 60.9 54.6 7.9 19.8 9.7 41 6.4 60.8l.4.2-1.2 3.8c-.7 3.6-1.4 7.1-2.5 10.6 72.4-48.1 133.9-105.1 181.9-167.3v.1c0-.1.6-.1.6-.2 4-5.1 8-10.1 11.8-15.3l.4-.4c7.6-10.2 14.8-20.6 21.7-31 .1-.2.3-.4.5-.6 3.4-5.3 6.8-10.5 10.1-15.8.1-.2.3-.5.4-.7 6.3-10.2 12.2-20.5 17.9-30.9.3-.6.7-1.2 1-1.8 2.8-5.2 5.5-10.3 8.1-15.6l1.2-2.4c2.6-5.2 4.8-10.4 7.2-15.6 2-4.4 4.2-8.7 6.1-13.1.4-1 1-2.4 1.6-3.7zm-1014 144.1c29.6 56.3 77.4 98.7 136.4 126.3-71.4-27.6-129.4-74.6-163.7-139.8C223.2 1222.1 344.8 971 589.7 842c245-129 520.7-87.1 615.9 93.7 19.4 36.9 29.7 76.8 31.8 118-4.2-31.9-13.6-62.7-28.9-91.7-92.6-175.8-360.8-216.6-599-91.1-238.2 125.4-356.4 369.7-263.8 545.4z"/><path fill="#80CDE3" d="M609.5 870.9c238.2-125.4 506.4-84.7 599 91.1 15.3 29 24.7 59.8 28.9 91.7-2.2-41.2-12.4-81.1-31.8-118C1110.4 755 834.7 713 589.7 842c-244.9 129-366.5 380.1-271.3 560.8 34.3 65.2 92.2 112.2 163.7 139.8-59-27.6-106.8-70-136.4-126.3-92.6-175.7 25.6-420 263.8-545.4z"/><path fill="#F684B9" d="M1092.8 1572.4l-.4-.2c3.3-19.8 1.5-41.1-6.4-60.8-12-29.8-35.2-49.2-60.9-54.6-16.5-3.5-34-1.3-50.4 7.8-16.8 9.3-29.7 24.3-37.9 42.2l-1.3-.6-.5 1.5c-16.9-3.9-35-1.8-51.8 7.5-13 7.2-23.6 17.8-31.6 30.4-17.7 28.1-22 66.4-8.4 100.2 7.5 18.6 19.5 33.1 33.6 42.7.2.1.4.3.6.5 46-14.6 91.9-33.6 136.9-57.3 26.1-13.7 50.7-28.9 74.5-44.7 0-.1 0-.2.1-.3 1.1-3.5 2-7 2.8-10.6l1.1-3.7zm-65.2-104.4l-56.7 14.2s18.9-30.7 56.7-14.2zm-47.1 180.5l-26-11c-2.1-.6-4.1-1.5-6.1-2.6l-1.2-.5.1-.2c-5.4-3.4-9.9-8.8-12.7-15.7-7-17.3-.7-37.9 14.1-46 5.9-3.3 12.3-4.1 18.3-2.7l.2-.6.5.2c2.9-6.3 7.4-11.6 13.4-14.9 14.7-8.2 32.3-.8 39.2 16.5 2.8 7 3.4 14.5 2.3 21.5l.1.1-.4 1.3c-.5 2.4-1.2 4.8-2.2 7.1l-10 32.6c-9.8 5.3-19.7 10.2-29.6 14.9z"/><path fill="#F684B9" d="M1027.6 1468c-37.8-16.5-56.7 14.2-56.7 14.2l56.7-14.2z"/><linearGradient id="b" gradientUnits="userSpaceOnUse" x1="991.235" y1="1465.195" x2="1047.335" y2="1534.384"><stop offset="0" stop-color="#fdc0d3"/><stop offset=".173" stop-color="#fcb6cc"/><stop offset=".472" stop-color="#f79abb"/><stop offset=".859" stop-color="#ef6ca0"/><stop offset="1" stop-color="#eb5a95"/></linearGradient><path fill="url(#b)" d="M1027.6 1468c-37.8-16.5-56.7 14.2-56.7 14.2l56.7-14.2z"/></svg>