<svg xmlns:xlink="http://www.w3.org/1999/xlink"  version="1" xmlns="http://www.w3.org/2000/svg" viewBox="0 0 150 150"><path fill="#E70095" d="M142.3 93c-1.3-2.5-4.4-3.5-6.9-2.2l-12.7 6.5-6-11.7C129 70.2 134 52.7 129.9 39.3c-2.4-7.9-7.8-13.4-15.3-15.4-5-1.4-9.6-1-13.8 1.2-5 2.6-8.3 7.2-10.5 11.5 2.8.7 5.6 1.8 8 3.7.4.3 5 4.2 5.8 8.7.7-1.5-2.1-10.1-1.7-11.7.6-1.9 1.7-2.4 3-3.1 1.9-1 4-1.1 6.4-.4 4.1 1.1 6.8 4 8.2 8.5 2.4 8 .5 23-13 38.8-5.7.2-10.8-.2-15.2-1.2-4.2 2.7-9.2 4.6-14.7 5.7 8.7 4.1 19.5 6.2 30.8 5.7l5.5 10.7-9 4.7c-2.5 1.3-3.5 4.4-2.2 6.9 1.3 2.5 4.4 3.5 6.9 2.2l9.1-4.7 4.7 9.1c1.3 2.5 4.4 3.5 6.9 2.2 2.5-1.3 3.5-4.4 2.2-6.9l-4.7-9.1 12.7-6.5c2.6-1.4 3.6-4.4 2.3-6.9z"/><path fill="#2EC1DE" d="M96.2 76.8c6.1-5.5 8.7-12.8 7.4-20.4-.9-5.1-3.2-9.1-7-12-6.2-4.7-14.5-4.9-20-4.4-.9-5.5-3.2-13.4-9.4-18.2-3.7-2.9-8.2-4.1-13.4-3.6-7.7.7-14.1 5.2-18 12.8-6.5 12.6-4.8 31.2 4.1 48.1l-16.6 21.6L21.7 88c-.4-2.8-2.9-4.8-5.7-4.4-2.8.4-4.7 2.9-4.4 5.7l3.3 25c.2 1.4.9 2.6 1.9 3.4 1 .8 2.4 1.2 3.8 1l26-3.4c2.8-.4 4.8-2.9 4.4-5.7-.3-2.8-2.9-4.8-5.7-4.4L31.5 107l17.2-22.5c10.2 2.4 20.1 2.7 28.7 1 5.5-1.1 10.5-3 14.7-5.7 1.5-.9 2.8-1.9 4.1-3z"/></svg>