<svg xmlns:xlink="http://www.w3.org/1999/xlink"  xmlns="http://www.w3.org/2000/svg" viewBox="0 0 2000 2000"><path fill="#FBBCDC" d="M1262.2 974.8c164.5-57.6 205.1-197 106.5-279.2-98.6-82.1-246.4 41.1-342.9 68.2C904.7 791 802 621.7 654.2 687.4 514.5 753.1 572 925.6 777.4 999.5c205.3 73.9 207.9 178.2 207.9 178.2 43.6-150.3 276.9-202.9 276.9-202.9z"/><path fill="#C46158" d="M438.6 767.4C402.4 578.8 656.2 535.9 774 621.6c117.8 85.7 172.2 91.5 172.2 91.5 54.4 20 82.1-14.2 27.7-14.2-33.2 0-60.9-43-51.9-48.7 60.4-100-232.7-168.6-129.9-128.6 105.8 40 96.7 125.7-9.1 54.3-105.7-71.5-324.9-57.2-373.2 102.9C361.5 838.8 499 933.2 641 996c142 62.9 329.3 174.4 290.1 343-48.3 142.9-220.6 148.6-220.6 148.6s250.8 17.1 268.9-205.8c0-282.9-495.5-248.6-540.8-514.4z"/><path fill="#C46158" d="M1079.3 1339c-39.3-168.6 148-280.1 290-343 142-62.9 279.6-157.2 231.2-317.2-48.4-160.1-267.5-174.3-373.2-102.9-105.7 71.4-114.8-14.3-9.1-54.3 102.7-40-190.3 28.6-129.9 128.6 9.1 5.7-18.6 48.7-51.9 48.7-54.4 0-3.5 34.2 50.8 14.2 0 0 31.3-5.7 149.1-91.5 117.8-85.7 371.6-42.9 335.4 145.8-45.3 265.8-540.8 231.5-540.8 514.5 18.1 222.9 268.9 205.8 268.9 205.8s-172.2-5.8-220.5-148.7z"/><path fill="none" d="M1765.9 1088.9c-1.3 0-2.4-.1-3.8 0"/><path fill="#38BBE9" d="M438.6 1127.5s-31 88.4 175.8 81.6c-28.1-2.8-155.7-32-175.8-81.6zM1396.1 1209.1c-1.9-.1-3.6-.1-5.5-.2-.1.5 2 .6 5.5.2zM1458.5 1264.7c-63.4 12.9 208.5 85.7 194.9-81.4 0-.1-18.1 107.1-194.9 81.4z"/><path fill="#38BBE9" d="M1571.8 1127.5c-20.2 49.5-147.8 78.7-175.8 81.6 206.8 6.8 175.8-81.6 175.8-81.6z"/><path fill="#38BBE9" d="M1943.5 840.3s-54.4 111.5-285.5 145.8c-117.7 17.5-190.6 37.1-232.8 52.2C1695.8 888.9 1671.6 716 1671.6 716 1639.8 493 1386 493 1386 493c167.7 30 281 128.6 267.4 235.8-13.6 107.2-49.9 180.1-203.9 278.7-105.8 67.7-181.3 98.6-158.6 90 86.1-30 131.4-30 367.1-60 122-15.5 190.5-50.6 227-82.6-60.3 98.3-104.7 130.9-119 134.1 80.7.8-108 158.6-108 158.6 171.2-50.4 160.4-149.1 141.7-159.2 156.7-75.7 143.8-248.1 143.8-248.1z"/><path fill="#38BBE9" d="M1730.4 1067.5c-31.7 60-145 72.9-149.5 81.4 181.3-8.5 149.5-81.4 149.5-81.4zM619.9 1209c-1.9.1-3.7.1-5.5.2 3.4.3 5.5.2 5.5-.2zM248.2 1088.9c-1.4-.1-2.5 0-3.8 0 1.7.4 3 .4 3.8 0z"/><path fill="#38BBE9" d="M244.4 1088.9c-14.2-3.1-58.6-35.8-118.9-134.1 36.5 32 105 67.1 227 82.6 235.7 30 281 30 367.1 60 22.7 8.6-52.8-22.3-158.6-90C406.8 908.8 370.6 836 357 728.8 343.4 621.6 456.7 523 624.4 493c0 0-253.8 0-285.5 222.9 0 0-24.2 172.9 246.4 322.3-42.2-15.1-115.1-34.8-232.8-52.2C121.3 951.7 66.9 840.3 66.9 840.3S54 1012.7 210.7 1088.4c-18.6 10.1-29.5 108.8 141.7 159.2.1-.1-188.7-157.9-108-158.7z"/><path fill="#38BBE9" d="M280 1067.5s-31.7 72.9 149.5 81.4c-4.5-8.5-117.8-21.4-149.5-81.4zM551.9 1264.7c-176.8 25.7-194.9-81.4-194.9-81.4-13.6 167.1 258.3 94.3 194.9 81.4z"/></svg>