<svg xmlns:xlink="http://www.w3.org/1999/xlink"  version="1" xmlns="http://www.w3.org/2000/svg" viewBox="0 0 150 150"><path fill="none" d="M34.8 97.7c.8-.5 1.6-1.1 2.2-1.6.8-.7 1.4-1.3 1.8-1.9.7-1 1-1.9 1-3.1V91c0-.3 0-.6-.1-.9l-.3-.9c-.2-.5-.5-.9-.9-1.3-.8-.7-1.8-1.1-3-1.1-.7 0-1.5.2-2.1.5-.7.3-1.3.8-1.8 1.4l-.8 1-.8-1c-.5-.6-1.1-1.1-1.8-1.4-.7-.3-1.4-.5-2.1-.5-.8 0-1.6.2-2.3.6-.7.4-1.2 1-1.6 1.7-.1.3-.2.5-.3.8.1.4.1.7.1 1v.1c0 .9.2 1.7.6 2.4.3.7.8 1.3 1.5 2 .8.8 1.8 1.5 2.9 2.3.6.4 1.2.9 1.8 1.3.3.2.6.5.8.7.5.4.9.8 1.3 1.2.4-.5.8-.8 1.2-1.2.4-.4.9-.7 1.3-1 .5-.4 1-.7 1.4-1z"/><path fill="#DA3E26" d="M36.5 101c.2-.1.3-.3.5-.4.6-.4 1.1-.8 1.7-1.3 1.1-.7 2.2-1.5 3.2-2.4.9-.8 1.5-1.6 2-2.5.5-1 .8-2.1.8-3.3v-.2c0-.3 0-.6-.1-.9-.1-.6-.2-1.2-.5-1.7-.5-1.1-1.3-2-2.4-2.6-.5-.3-1.1-.5-1.7-.7-1.1-.2-2.2-.3-3.3 0h-.2c-.4.1-.8.2-1.1.4-.5.2-.9.5-1.3.8-.1.1-.3.2-.4.3-.1-.1-.2-.2-.4-.3-.4-.3-.9-.6-1.4-.9-.3-.2-.7-.3-1-.4-.2 0-.3-.1-.5-.1-.5-.1-1-.2-1.5-.2-.6 0-1.1.1-1.6.2-1 .2-1.9.7-2.7 1.3-.6.5-1.1 1.2-1.4 1.9-.2.5-.4 1.1-.5 1.7 0 .3-.1.6-.1.9v.4c0 1.5.5 3 1.4 4.2.5.8 1.2 1.5 2.2 2.3l2.4 1.8c.5.3.9.6 1.3 1 .3.2.6.5 1 .8v15.7h5.6V101zm-2.9-.1c-.4-.4-.8-.8-1.3-1.2-.2-.2-.5-.5-.8-.7-.6-.5-1.2-.9-1.8-1.3-1.1-.8-2.1-1.5-2.9-2.3-.7-.7-1.2-1.3-1.5-2-.4-.7-.6-1.5-.6-2.4v-.1c0-.3 0-.6.1-.9.1-.3.2-.6.3-.8.3-.7.8-1.3 1.5-1.7.7-.4 1.5-.6 2.3-.6.7 0 1.5.2 2.1.5.7.3 1.3.8 1.8 1.4l.8 1 .8-1c.5-.6 1.1-1.1 1.8-1.4.7-.3 1.4-.5 2.1-.5 1.1 0 2.2.4 3 1.1.4.3.7.8.9 1.3.1.3.2.5.3.9.1.3.1.6.1.9v.1c0 1.1-.3 2.1-1 3.1-.4.6-1 1.2-1.8 1.9-.7.6-1.4 1.1-2.2 1.6-.5.3-.9.7-1.4 1-.4.3-.8.6-1.3 1-.4.3-.9.6-1.3 1.1zM119.6 101c.2-.1.3-.3.5-.4.5-.4 1.1-.8 1.7-1.3 1.1-.7 2.2-1.5 3.2-2.4.9-.8 1.5-1.6 2-2.5.5-1 .8-2.1.8-3.3v-.2c0-.3 0-.6-.1-.9-.1-.6-.2-1.2-.5-1.7-.5-1.1-1.3-2-2.4-2.6-.5-.3-1.1-.5-1.7-.7-1.1-.2-2.2-.3-3.3 0h-.2c-.4.1-.8.2-1.1.4-.5.2-.9.5-1.4.8-.1.1-.3.2-.4.3-.1-.1-.2-.2-.4-.3-.4-.3-.9-.6-1.4-.9-.3-.2-.7-.3-1-.4-.2 0-.3-.1-.5-.1-.5-.1-1-.2-1.5-.2s-1.1.1-1.6.2c-1 .2-1.9.7-2.7 1.3-.6.5-1.1 1.2-1.4 1.9-.2.5-.4 1.1-.5 1.7 0 .3-.1.6-.1.9v.4c0 1.5.5 3 1.4 4.2.5.8 1.2 1.5 2.2 2.3l2.4 1.8c.5.3.9.6 1.3 1 .3.2.7.5 1 .8v15.7h5.6V101zm-2.8-.1c-.4-.4-.8-.8-1.3-1.2-.3-.2-.5-.5-.8-.7-.6-.5-1.2-.9-1.8-1.3-1.1-.8-2.1-1.5-2.9-2.3-.7-.7-1.2-1.3-1.5-2-.4-.7-.6-1.5-.6-2.4v-.1c0-.3 0-.6.1-.9.1-.3.2-.6.3-.8.3-.7.8-1.3 1.5-1.7.7-.4 1.5-.6 2.3-.6.7 0 1.5.2 2.1.5.7.3 1.3.8 1.8 1.4l.8 1 .8-1c.5-.6 1.1-1.1 1.8-1.4.7-.3 1.4-.5 2.1-.5 1.1 0 2.2.4 3 1.1.4.3.7.8.9 1.3.1.3.2.5.3.9.1.3.1.6.1.9v.1c0 1.1-.3 2.1-1 3.1-.4.6-1 1.2-1.8 1.9-.7.6-1.4 1.1-2.2 1.6-.5.3-.9.7-1.4 1-.4.3-.8.6-1.3 1-.5.3-.9.6-1.3 1.1z"/><path fill="#009C4C" d="M56.9 81.7c.2-.1.3-.3.5-.4.6-.4 1.1-.8 1.7-1.3 1.1-.7 2.2-1.5 3.2-2.4.9-.8 1.5-1.6 2-2.5.5-1 .8-2.1.8-3.3v-.2c0-.3 0-.6-.1-.9-.1-.6-.2-1.2-.5-1.7-.5-1.1-1.3-2-2.4-2.6-.5-.3-1.1-.5-1.7-.7-1.1-.2-2.2-.3-3.3 0h-.2c-.4.1-.8.2-1.1.4-.5.2-.9.5-1.3.8-.1.1-.3.2-.4.3-.1-.1-.2-.2-.4-.3-.4-.3-.9-.6-1.4-.9-.3-.2-.7-.3-1-.4-.2 0-.3-.1-.5-.1-.5-.1-1-.2-1.5-.2-.6 0-1.1.1-1.6.2-1 .2-1.9.7-2.7 1.3-.6.5-1.1 1.2-1.4 1.9-.2.5-.4 1.1-.5 1.7 0 .3-.1.6-.1.9v.2c0 1.5.5 3 1.4 4.2.5.8 1.2 1.5 2.2 2.3l2.4 1.8c.5.3.9.6 1.3 1 .3.2.6.5 1 .8V107h5.6V81.7zm-2.8-.1c-.4-.4-.8-.8-1.3-1.2-.3-.2-.5-.5-.8-.7-.6-.5-1.2-.9-1.8-1.3-1.1-.8-2.1-1.5-2.9-2.3-.7-.7-1.2-1.3-1.5-2-.4-.7-.6-1.5-.6-2.4v-.1c0-.3 0-.6.1-.9.1-.3.2-.6.3-.8.3-.7.8-1.3 1.6-1.7.7-.4 1.5-.6 2.3-.6.7 0 1.5.2 2.1.5.7.3 1.3.8 1.8 1.4l.8 1 .8-1c.5-.6 1.1-1.1 1.8-1.4.7-.3 1.4-.5 2.1-.5 1.1 0 2.2.4 3 1.1.4.3.7.8.9 1.3.1.3.2.5.3.9-.1.1-.1.4-.1.7v.1c0 1.1-.3 2.1-1 3.1-.4.6-1 1.2-1.8 1.9-.7.6-1.4 1.1-2.2 1.6-.5.3-.9.7-1.4 1-.4.3-.8.6-1.3 1-.4.4-.8.8-1.2 1.3zM98.2 81.7c.2-.1.3-.3.5-.4.6-.4 1.1-.8 1.7-1.3 1.1-.7 2.2-1.5 3.2-2.4.9-.8 1.5-1.6 2-2.5.5-1 .8-2.1.8-3.3v-.2c0-.3 0-.6-.1-.9-.1-.6-.2-1.2-.5-1.7-.5-1.1-1.3-2-2.4-2.6-.5-.3-1.1-.5-1.7-.7-1.1-.2-2.2-.3-3.3 0h-.2c-.4.1-.8.2-1.1.4-.5.2-.9.5-1.3.8-.1.1-.3.2-.4.3-.1-.1-.2-.2-.4-.3-.4-.3-.9-.6-1.4-.9-.3-.2-.7-.3-1-.4-.2 0-.3-.1-.5-.1-.5-.1-1-.2-1.5-.2-.6 0-1.1.1-1.6.2-1 .2-1.9.7-2.7 1.3-.6.5-1.1 1.2-1.4 1.9-.2.5-.4 1.1-.5 1.7 0 .3-.1.6-.1.9v.2c0 1.5.5 3 1.4 4.2.5.8 1.2 1.5 2.2 2.3l2.4 1.8c.5.3.9.6 1.3 1 .3.2.7.5 1 .8V107h5.6V81.7zm-2.9-.1c-.4-.4-.8-.8-1.3-1.2-.3-.2-.5-.5-.8-.7-.6-.5-1.2-.9-1.8-1.3-1.1-.8-2.1-1.5-2.9-2.3-.7-.7-1.2-1.3-1.5-2-.4-.7-.6-1.5-.6-2.4v-.1c0-.3 0-.6.1-.9.1-.3.2-.6.3-.8.3-.7.8-1.3 1.6-1.7.7-.4 1.5-.6 2.3-.6.7 0 1.5.2 2.1.5.7.3 1.3.8 1.8 1.4l.8 1 .8-1c.5-.6 1.1-1.1 1.8-1.4.7-.3 1.4-.5 2.1-.5 1.1 0 2.2.4 3 1.1.4.3.7.8.9 1.3.1.3.2.5.3.9.1.3.1.6.1.9v.1c0 1.1-.3 2.1-1 3.1-.4.6-1 1.2-1.8 1.9-.7.6-1.4 1.1-2.2 1.6-.5.3-.9.7-1.4 1-.4.3-.8.6-1.3 1-.6.2-1 .6-1.4 1.1z"/><path fill="#DA3E26" d="M77.4 60.9c.2-.1.3-.3.5-.4.6-.4 1.1-.8 1.7-1.3 1.1-.7 2.2-1.5 3.2-2.4.9-.8 1.5-1.6 2-2.5.5-1 .8-2.1.8-3.3v-.2c0-.3 0-.6-.1-.9-.1-.6-.2-1.2-.5-1.7-.5-1.1-1.3-2-2.4-2.6-.5-.3-1.1-.5-1.7-.7-1.1-.2-2.2-.3-3.3 0h-.2c-.4.1-.8.2-1.1.4-.5.2-.9.5-1.3.8-.1.1-.3.2-.4.3-.1-.1-.2-.2-.4-.3-.4-.3-.9-.6-1.4-.9-.3-.2-.7-.3-1-.4-.2 0-.3-.1-.5-.1-.5-.1-1-.2-1.5-.2-.6 0-1.1.1-1.6.2-1 .2-1.9.7-2.7 1.3-.6.5-1.1 1.2-1.4 1.9-.2.5-.4 1.1-.5 1.7 0 .3-.1.6-.1.9v.2c0 1.5.5 3 1.4 4.2.5.8 1.2 1.5 2.2 2.3l2.4 1.8c.5.3.9.6 1.3 1 .3.2.6.5 1 .8v46h5.6V60.9zm-2.9-.1c-.4-.4-.8-.8-1.3-1.2-.2-.2-.5-.5-.8-.7-.6-.5-1.2-.9-1.8-1.3-1.1-.8-2.1-1.5-2.9-2.3-.7-.7-1.2-1.3-1.5-2-.4-.7-.6-1.5-.6-2.4v-.1c0-.3 0-.6.1-.9.1-.3.2-.6.3-.8.3-.7.8-1.3 1.5-1.7.7-.4 1.5-.6 2.3-.6.7 0 1.5.2 2.1.5.7.3 1.3.8 1.8 1.4l.8 1 .8-1c.5-.6 1.1-1.1 1.8-1.4.7-.3 1.4-.5 2.1-.5 1.1 0 2.2.4 3 1.1.4.3.7.8.9 1.3.1.3.2.5.3.9.1.3.1.6.1.9 0 1.1-.3 2.1-1 3.1-.4.6-1 1.2-1.8 1.9-.7.6-1.4 1.1-2.2 1.6-.5.3-.9.7-1.4 1-.4.3-.8.6-1.3 1-.5.3-.9.7-1.3 1.2z"/><g><path fill="#DA3E26" d="M13.5 98.8c.1-34 27.6-61.5 61.5-61.5 34 .1 61.4 27.5 61.5 61.5 0 6.4-1 12.5-2.8 18.3h.2c1.6-5.8 12.1-11.9 12.1-18.3 0-39.3-31.8-71-71-71S4 59.6 4 98.8c0 6.3 10.6 12.4 12.1 18.3h.2c-1.8-5.8-2.7-12-2.8-18.3z"/></g><path fill="#009C4C" d="M40.3 110.2H110v2H40.3zM40.3 114.6H110v2H40.3z"/></svg>