<svg xmlns:xlink="http://www.w3.org/1999/xlink"  version="1" xmlns="http://www.w3.org/2000/svg" viewBox="0 0 150 150"><path fill="none" d="M127.4 72.2c-.9-.1-1.8-.2-2.8-.1 1-.1 1.9-.1 2.8.1zM108.9 85.2c-7.5 12-18.9 20-32.9 25.4v.1c-14-5.4-25.5-13.4-32.9-25.4-4.4 5.2-9.1 10.1-14.4 14.4 9.2 16.7 27 28 47.4 28s38.2-11.3 47.4-28c-5.5-4.3-10.2-9.3-14.6-14.5zM23.6 72.4c1.7-.3 3.5-.4 5.4 0-2-.4-3.8-.4-5.4 0z"/><path fill="none" d="M22 70.4c5.4-3.1 11.5-5.6 16.8-8.7 2.1 1.4 4.6 2.2 7.3 2.2 1.1 0 2.2-.2 3.3-.4C58.9 69 71 72 75.6 82.5c-3.8-3.5-22.5-17.2-25.3-5.1-.4 1.8.1 4 .6 5.6C53.8 92.7 65 99.3 76 103.2v-.1c11-3.9 22.2-10.5 25-20.2.5-1.6 1-3.8.5-5.6-2.8-12.1-21.5 1.6-25.3 5.1 4.6-10.5 16.7-13.5 26.3-19 1.1.3 2.1.4 3.3.4 2.7 0 5.2-.8 7.3-2.2 5.3 3.1 11.5 5.7 16.9 8.7-1.7-28.3-25.2-50.9-54-50.9-28.8.1-52.4 22.6-54 51zm84.3-31.9c6.5 0 11.7 5.3 11.7 11.7 0 6.5-5.3 11.7-11.7 11.7-6.5 0-11.7-5.3-11.7-11.7-.1-6.4 5.2-11.7 11.7-11.7zM57.4 50.4c0 6.5-5.3 11.7-11.8 11.7-6.5 0-11.7-5.3-11.7-11.7 0-6.5 5.3-11.7 11.7-11.7 6.5-.1 11.8 5.2 11.8 11.7z"/><path fill="#00AEEF" d="M33.9 50.4c0 6.5 5.3 11.7 11.7 11.7 6.5 0 11.8-5.3 11.8-11.7 0-6.5-5.3-11.7-11.8-11.7-6.4-.1-11.7 5.2-11.7 11.7zM43.1 85.3c7.5 12 18.9 20 32.9 25.4v-7.5C65 99.3 53.8 92.7 50.9 83c-.5-1.6-1-3.8-.6-5.6 2.8-12.2 21.5 1.6 25.3 5.1C71 72 58.9 69 49.3 63.4c-1.1.3-2.1.4-3.3.4-2.7 0-5.2-.8-7.3-2.2-5.2 3.1-11.4 5.6-16.8 8.7-.1 1-.1 2.1-.1 3.2 0 9.5 2.5 18.4 6.8 26.1 5.4-4.2 10.1-9.1 14.5-14.3zM23.6 72.4c1.6-.3 3.4-.4 5.4 0-2-.4-3.8-.4-5.4 0zM22 104.4c.1-.1.3-.2.4-.3-.1-.1-.2-.3-.2-.4-.1.2-.1.5-.2.7z"/><path fill="#AECB36" d="M106.3 62c6.5 0 11.7-5.3 11.7-11.7 0-6.5-5.3-11.7-11.7-11.7-6.5 0-11.7 5.3-11.7 11.7-.1 6.5 5.2 11.7 11.7 11.7zM105.8 63.8c-1.1 0-2.2-.2-3.3-.4-9.6 5.5-21.6 8.6-26.3 19 3.8-3.5 22.5-17.2 25.3-5.1.4 1.8-.1 4-.5 5.6-2.9 9.7-14 16.3-25 20.2v7.5c14-5.4 25.4-13.4 32.9-25.4 4.4 5.3 9.1 10.2 14.5 14.5 4.3-7.7 6.7-16.6 6.7-26.1 0-1.1 0-2.1-.1-3.2-5.4-3.1-11.6-5.6-16.9-8.7-2.1 1.3-4.6 2.1-7.3 2.1zm21.6 8.4c-.9-.1-1.8-.2-2.8-.1 1-.1 1.9-.1 2.8.1zM28.6 99.7c-4.3-7.7-6.7-16.6-6.7-26.1 0-1.1 0-2.1.1-3.2C23.6 42 47 19.5 76 19.5v-7.6c-34 0-61.7 27.7-61.7 61.7 0 11 2.9 21.2 7.9 30.2.1.1.2.3.2.4C33.1 122.7 53 135.3 76 135.3v-7.6c-20-.1-38.1-11.4-47.4-28z"/><path fill="#00AEEF" d="M76 11.8v7.6c29 0 52.3 22.6 54 50.9.1 1.1.1 2.1.1 3.2 0 9.5-2.4 18.4-6.7 26.1-9.2 16.7-27.4 28-47.4 28v7.6c34 0 61.7-27.7 61.7-61.7S110 11.8 76 11.8z"/></svg>