<svg xmlns:xlink="http://www.w3.org/1999/xlink"  version="1" xmlns="http://www.w3.org/2000/svg" viewBox="0 0 150 150"><path fill="#F48031" d="M130 100.7c-6.2 23.5-35.4 30.5-32.4 29.9 29.2-5.6 35.7-29.2 36.1-30.9-.4.3-3.5-.1-3.7 1zM133.7 99.5v0z"/><path fill="#D03434" d="M120 104.2c-1.7 1.8-3.6 3.5-5.6 5.1-7.3 5.8-15.7 9.5-24.3 11.3-27.1 9.8-55.3 5.1-71.1-13.3 1.2 1.9 2.5 3.8 3.9 5.6 20 25.2 56.7 29.4 82 9.4 6.4-5.1 11.5-11.3 15.1-18.1z"/><path fill="#540B2C" d="M96.7 107.9c10.1-8 16.8-18.8 20-30.4C120 57.9 113 39 99.5 26.2c12 23.8 6.1 53.5-15.5 70.7-20.6 16.3-48.9 16.2-69.2 1.6 19.9 25.2 56.6 29.4 81.9 9.4z"/><path fill="#540B2C" d="M93.1 16.4c1.5 1.8 2.8 3.8 4 5.7 9.4 7 16.5 16.7 20.3 27.8-1.8-8.5-5.5-16.7-11.3-23.9C101 19.6 94.8 14.5 88 10.9c1.8 1.6 3.5 3.4 5.1 5.5z"/><path fill="#F48031" d="M87.5 116.1c-2.5 1.1-5 1.9-7.6 2.5 4.8-.5 9.6-1.7 14.3-3.7 26.5-11.5 40-44.1 30.1-72.9-1.3-3.7-2.9-7.2-4.8-10.4-1.9 1.6-3.9 3.2-6 4.7 1.4 2.6 2.6 5.2 3.6 8.1 9.8 28.3-3.5 60.4-29.6 71.7z"/><path fill="#D03434" d="M18.2 93.6c11.6 10.1 29.8 8.6 44.1 8.8 1 0 1.2-.6.4-1.2-1-.7-2.4-1.2-3.7-1.2-5.7-.1-11.3.1-17-.3-5.8-.4-12.1-1.1-17.1-4.2-5-3.1-8.2-9.1-7.7-15 .3-3.3 1.8-6.6 3.8-9.2 1.6-2.2 4.6-4.7 7.3-4.3.5.8 1.1 1.5 1.8 2.2.9.9 6 1.3 4.8.2-.2-.2-.4-.4-.5-.6.6-.2.6-.7 0-1.2-.4-.3-.8-.6-1.3-.8-2.7-5.7 1.6-13 8.2-13.7 4.9-.5 8.7 6.1 10.4 9.7 4.9 10.2 6 22.6 5.8 33.8 0 1.4 5.4 2.1 5.4 1.2.1-6.4-.4-12.9-1.5-19.2-1.2-7-3.1-14.3-7.4-20.1-3.9-5.2-10.9-8.4-17.4-7.2-6.7 1.2-10.9 7.6-9.3 13.3-1.5-.3-3-.3-4.5 0-4 .8-7 4.4-8.8 7.8-4 7.3-1.8 15.9 4.2 21.2z"/><path fill="#F48031" d="M75.9 90.1c-.1-1.2-.6-2.5-1.3-3.5-3.3-4.3-6.8-8.5-9.8-13-3.1-4.6-6.3-9.8-6.9-15.4-.6-5.6 2-11.6 6.7-14.7 2.7-1.8 6-2.5 9.2-2.6 2.6-.1 6.2.7 7.6 3-.3.8-.5 1.7-.6 2.7-.1 1.2 2.5 5.3 2.7 3.8 0-.2.1-.5.1-.7.5.3.9.1.8-.7 0-.5-.1-1-.1-1.4 2.7-5.4 10.7-6.5 15.2-1.9 3.3 3.4.6 10.1-1.2 13.6-4.8 9.7-13.5 17.9-22 24.3-1.1.8 1.6 5.3 2.3 4.8 4.9-3.7 9.4-7.9 13.6-12.5 4.6-5 9-10.8 10.8-17.5 1.6-6-.2-13.2-4.9-17.4-4.8-4.3-12.1-3.7-15.5.9-.7-1.3-1.6-2.4-2.7-3.4-3-2.6-7.5-2.7-11.1-2-7.8 1.4-12.9 8.1-13.3 15.8C54.7 67 66.6 79.8 75 90.7c.4.6.9.4.9-.6z"/></svg>