<svg xmlns:xlink="http://www.w3.org/1999/xlink"  version="1" xmlns="http://www.w3.org/2000/svg" viewBox="0 0 150 150"><path fill="#B61F34" d="M76.7 98.2c-4.7.1-8.6 2.5-12.5 3.5-2.3 8.8-2.9 20.6-12.4 24.8 6.8.2 13.4-.9 19-4.8.7 4.4 1 9.2.4 13.9 6.1-6.9 8.2-11.8 7-20.9-.6-5-2-10.6-1.4-15.7 6 6.5 5.4 16.5 6.1 24.8.9 10.6 4.5 15.7 13 22-1.9-5.2-2.7-10.7-3-15.9 7.3 3.1 15.1 2.6 22.7.7-13.8-2.9-16.3-20.3-22.7-29.4-5 .6-10.1-3.2-16.2-3zM115.7 130.6c0 .1 0 .1 0 0 .4.3.4.2 0 0zM51.7 126.6s0-.1 0 0c0-.1 0-.1 0 0-.3.2-.3.2 0 0z"/><path fill="#DE2941" d="M117.8 54.8c-.2-7.1 5.1-12.8 2.4-18.7-2.7-5.9-10.4-6-15.6-10.8-5.1-4.9-5.5-12.6-11.6-14.9-6-2.4-11.5 3.1-18.5 3.2-7.1.2-12.9-5-18.8-2.3-5.9 2.6-5.9 10.4-10.8 15.5s-12.6 5.5-15 11.6C27.6 44.5 33.1 50 33.3 57c.2 7.1-5 12.8-2.4 18.8 2.7 5.9 10.4 5.9 15.6 10.8 5.1 4.9 5.5 12.6 11.6 15 2.1.8 4.1.6 6.1.1 3.9-1 7.9-3.4 12.5-3.5 6.1-.2 11.2 3.6 16.3 3 .8-.1 1.7-.3 2.5-.7 5.9-2.6 5.9-10.4 10.7-15.6 4.9-5.1 12.6-5.5 15-11.6 2.3-6-3.2-11.5-3.4-18.5zm-40.5 33l-1 .6-1.1-.6c-12.8-7.4-29.7-20.4-31.1-36.3-.5-5.4 1.5-11.1 5.7-14.8 4.4-3.8 10.8-5 16.4-3.6 4 1 7.6 3.6 10.1 6.9 2.5-3.4 6-5.9 10.1-6.9 5.6-1.4 12-.3 16.4 3.6 4.2 3.6 6.2 9.3 5.7 14.8-1.5 15.9-18.4 28.9-31.2 36.3z"/></svg>