<svg xmlns:xlink="http://www.w3.org/1999/xlink"  version="1" xmlns="http://www.w3.org/2000/svg" viewBox="0 0 150 150"><path fill="#205B7F" d="M113.1 96.1v13.5H96.7v13.3h-7.3v11.6c9.9-7.9 25.4-21.7 37.2-38.3h-13.5z"/><path fill="#0099A8" d="M77.6 122.8v-17H60.5V86.7H50.2c-.4 1.3-1.1 2.4-2 3.3-1.4 1.4-3.4 2.3-5.6 2.3-2.2 0-4.1-.9-5.6-2.3-1.4-1.4-2.3-3.4-2.3-5.6 0-2.2.9-4.1 2.3-5.6 1.4-1.4 3.4-2.3 5.6-2.3 2.2 0 4.1.9 5.6 2.3.9.9 1.6 2 2 3.3h10.3v-27c-1.2-.4-2.3-1.1-3.2-2-1.4-1.4-2.3-3.4-2.3-5.6 0-2.2.9-4.1 2.3-5.6 1.4-1.4 3.4-2.3 5.6-2.3 2.2 0 4.1.9 5.6 2.3 1.4 1.4 2.3 3.4 2.3 5.6 0 2.2-.9 4.1-2.3 5.6-.9.9-2.1 1.6-3.3 2v46.1h17.1v17.1h10V93.4h-15V58.6h13V30.1c-1-.4-1.9-1-2.7-1.8-1.4-1.4-2.3-3.4-2.3-5.6 0-2 .8-3.9 2-5.2-4 1.8-8.2 4.3-12.4 7.5-24.3-19.2-47.6-12.1-59.5 4.4v9.4H29c.4-1.2 1.1-2.4 2-3.3 1.4-1.4 3.4-2.3 5.6-2.3 2.2 0 4.1.9 5.6 2.3 1.4 1.4 2.3 3.4 2.3 5.5 0 2.2-.9 4.1-2.3 5.6-1.4 1.4-3.4 2.3-5.6 2.3-2.2 0-4.1-.9-5.6-2.3-.9-.9-1.6-2-2-3.3H10.9v-6c-2 4.7-3.2 9.8-3.5 15.2h13.3v17.3c1.4.3 2.7 1.1 3.7 2.1 1.4 1.4 2.3 3.4 2.3 5.5 0 2.2-.9 4.1-2.3 5.6-1.4 1.4-3.4 2.3-5.6 2.3-.5 0-1-.1-1.5-.2 20 31.9 62.5 56.5 62.5 56.5s1.9-1.3 5.1-3.7v-15.2h-7.3z"/><path fill="#205B7F" d="M22.1 77.6c0-.9-.4-1.7-1-2.3-.6-.6-1.4-1-2.3-1-.9 0-1.8.4-2.4 1-.6.6-1 1.4-1 2.4 0 .9.4 1.8 1 2.3.6.6 1.4 1 2.4 1 .9 0 1.7-.4 2.3-1 .7-.7 1-1.5 1-2.4zM16.1 70.2v-13H7.4c.2 3 .6 6.1 1.4 9.1.7 2.8 1.7 5.5 2.8 8.2.4-.9 1-1.7 1.6-2.4.8-.9 1.8-1.5 2.9-1.9zM116.4 60.7c.9 0 1.7-.4 2.3-1 .6-.6 1-1.4 1-2.3 0-.9-.4-1.8-1-2.4-.6-.6-1.4-1-2.3-1-.9 0-1.8.4-2.4 1-.6.6-1 1.4-1 2.4 0 .9.4 1.7 1 2.3.6.7 1.5 1 2.4 1zM66.2 47.6c0-.9-.4-1.8-1-2.4-.6-.6-1.4-1-2.3-1-.9 0-1.7.4-2.3 1-.6.6-1 1.4-1 2.4 0 .9.4 1.7 1 2.3.6.6 1.4 1 2.3 1 .9 0 1.8-.4 2.3-1 .6-.5 1-1.4 1-2.3zM93.2 26.1c.9 0 1.7-.4 2.3-1 .6-.6 1-1.4 1-2.3 0-.9-.4-1.8-1-2.3-.6-.6-1.4-1-2.3-1-.9 0-1.8.4-2.4 1-.6.6-1 1.4-1 2.3 0 .9.4 1.8 1 2.3.7.7 1.5 1 2.4 1zM122.1 32.4c-.9 0-1.8.3-2.4.9-.6.6-1 1.4-1 2.3 0 .9.3 1.8.9 2.4.6.6 1.4 1 2.3 1 .9 0 1.8-.3 2.4-.9.6-.6 1-1.4 1-2.3 0-.9-.3-1.8-.9-2.4-.5-.6-1.3-1-2.3-1z"/><path fill="#205B7F" d="M127.4 41.4c-1.5 1.4-3.4 2.2-5.6 2.1-2.2-.1-4.1-1-5.5-2.5-1.4-1.5-2.2-3.5-2.1-5.6s1-4.1 2.5-5.5c1.5-1.4 3.5-2.2 5.6-2.1 2.2.1 4.1 1 5.5 2.5.9.9 1.5 2.1 1.9 3.3l7.8.2C129.6 18.9 113.6 9.5 94.3 15c1.8.2 3.4 1 4.6 2.2 1.4 1.4 2.3 3.4 2.3 5.6s-.9 4.1-2.3 5.6c-1 1-2.4 1.8-3.9 2.1V63.2H81.9v25.7h10.3V77.8h21.6v-13c-1.1-.4-2.1-1-2.9-1.8-1.4-1.4-2.3-3.4-2.3-5.6 0-2.2.9-4.1 2.3-5.6 1.4-1.4 3.4-2.3 5.6-2.3 2.2 0 4.1.9 5.6 2.3 1.4 1.4 2.3 3.4 2.3 5.6 0 2.2-.9 4.1-2.3 5.6-1 1-2.3 1.7-3.7 2.1v17.4H96.7v22.6h11.8V91.6h18.1c.4-1.3 1.1-2.4 2-3.3 1.2-1.2 2.8-2 4.5-2.2 3.6-6.4 6.5-13 8.2-19.8 2.4-9.7 1.5-19.4-1.7-27.8l-10-.3c-.5 1.2-1.2 2.3-2.2 3.2zM42.7 81.1c-.9 0-1.8.4-2.4 1-.6.6-1 1.4-1 2.4 0 .9.4 1.7 1 2.4.6.6 1.4 1 2.4 1 .9 0 1.8-.4 2.4-1 .6-.6 1-1.4 1-2.4 0-.9-.4-1.8-1-2.4-.6-.6-1.5-1-2.4-1zM36.5 44.5c.9 0 1.7-.4 2.3-1 .6-.6 1-1.4 1-2.3 0-.9-.4-1.8-1-2.4-.6-.6-1.4-1-2.4-1-.9 0-1.8.4-2.3 1-.6.6-1 1.4-1 2.4 0 .9.4 1.8 1 2.3.7.6 1.5 1 2.4 1z"/></svg>