<svg xmlns:xlink="http://www.w3.org/1999/xlink"  xmlns="http://www.w3.org/2000/svg" width="100" height="100" viewBox="0 0 100 100"><path fill="#E6E7E8" d="M80.997 92.351c0 .659-7.462 1.192-16.671 1.192-9.202 0-16.667-.533-16.667-1.192 0-.657 7.465-1.19 16.667-1.19 9.209-.001 16.671.532 16.671 1.19z"/><radialGradient id="a" cx="1407.46" cy="71.592" r="40.845" gradientTransform="rotate(-145.538 727.795 267.385)" gradientUnits="userSpaceOnUse"><stop offset="0" stop-color="#ec1c24"/><stop offset=".153" stop-color="#d31c22"/><stop offset=".355" stop-color="#b81b20"/><stop offset=".562" stop-color="#a51b1f"/><stop offset=".774" stop-color="#9a1b1e"/><stop offset="1" stop-color="#961b1e"/></radialGradient><path fill="url(#a)" d="M88.346 76.886s-18.155 4.72-30.253-13.928C51.329 52.063 44.792 39.54 43.054 16.28c5.902-.98 20.351 6.928 23.183 14.379 2.833 7.455 4.752 33.209 22.109 46.227z"/><radialGradient id="b" cx="1410.909" cy="38.06" r="36.014" gradientTransform="rotate(-145.538 727.795 267.385)" gradientUnits="userSpaceOnUse"><stop offset="0" stop-color="#e6e7e8"/><stop offset="1" stop-color="#58595b"/></radialGradient><path fill="url(#b)" d="M89.323 78.892s-8.866 16.532-30.767 12.744c-12.593-2.437-26.225-6.141-44.477-20.669 3.293-4.995 18.907-10.225 26.302-7.246 7.397 2.982 27.601 19.063 48.942 15.171z"/><g fill="#FFF"><path d="M51.554 30.423l-9.429 3.98-3.98-9.432 9.428-3.979z"/><path d="M35.729 23.99l12.819-5.414 5.417 12.83-11.128 4.696-1.702.715-5.406-12.827zm6.394 10.412l1.699-.715-1.699.715zm-1.566-8.449l2.546 6.035 6.028-2.546-2.546-6.035-6.028 2.546z"/></g><path fill="#961B1E" d="M51.554 30.423l-9.429 3.98-3.98-9.432 9.428-3.979z"/><path fill="#6D6E70" d="M46.101 43.832l-9.428 3.98-3.98-9.428 9.429-3.98z"/><g fill="#FFF"><path d="M25.774 74.637l9.425-3.977-3.977-9.433-9.432 3.981z"/><path d="M19.373 64.224L32.2 58.81l5.417 12.831-11.131 4.694-1.699.719-5.414-12.83zm6.397 10.413l1.699-.715-1.699.715zm-1.566-8.449l2.547 6.034 6.031-2.547-2.543-6.034-6.035 2.547z"/></g><path fill="#E6E7E8" d="M25.774 74.637l9.425-3.977-3.977-9.433-9.432 3.981z"/><path fill="#961B1E" d="M31.222 61.227l9.433-3.98-3.984-9.432-9.433 3.98z"/><path fill="#929497" d="M28.71 28.953l9.433-3.979-3.983-9.429-9.433 3.979z"/><path fill="#961B1E" d="M32.691 38.384l-9.428 3.98-3.982-9.433 9.429-3.98z"/><g fill="#FFF"><path d="M21.587 55.932l9.433-3.985-3.983-9.427-9.427 3.98z"/><path d="M15.193 45.52l12.819-5.417 5.421 12.83-11.128 4.694-1.702.719-5.41-12.826zm6.394 10.409l1.702-.715-1.702.715zm-1.562-8.449l2.546 6.035 6.028-2.543-2.546-6.039-6.028 2.547z"/></g><path fill="#D0D2D3" d="M21.587 55.932l9.433-3.985-3.983-9.427-9.427 3.98z"/><path fill="#BBBDBF" d="M15.302 23.505l9.425-3.981-3.977-9.428-9.432 3.976z"/><path fill="#6D6E70" d="M19.905 60.666l-4.855 2.048L13 57.857l4.856-2.047z"/><g fill="#FFF"><path d="M18.556 26.644l-7.58 3.202-3.202-7.579 7.58-3.202z"/><path d="M5.36 21.282l10.974-4.635 4.64 10.977-9.279 3.921-1.703.715L5.36 21.282zm5.616 8.565l1.695-.719-1.695.719zm-.785-6.604l1.765 4.187 4.182-1.765-1.765-4.187-4.182 1.765z"/></g><path fill="#BBBDBF" d="M18.556 26.644l-7.58 3.202-3.202-7.579 7.58-3.202z"/></svg>