<svg xmlns:xlink="http://www.w3.org/1999/xlink"  xmlns="http://www.w3.org/2000/svg" viewBox="0 0 150 150"><path fill="#019CDB" d="M69.9 117.4c.2-.6.4-1.1.7-1.6.3-.5.6-.9.9-1.3.3-.3.7-.6 1.1-.7l3.2-1.1.3-10.6c0-.5 0-.9-.1-1.3s-.2-.7-.4-1c-.2-.3-.4-.5-.6-.6-.4-.2-.7-.2-1-.1l-16 3c-.4.1-.8.3-1.2.5-.4.3-.7.6-1 1.1-.3.4-.5.9-.7 1.5-.2.5-.3 1.1-.3 1.7l-.4 20.6c0 .6.1 1.1.2 1.5.1.4.4.8.6 1 .3.3.6.4.9.5.4 0 .7 0 1.1-.2l12.1-5.3.1-5.7c.2-.7.3-1.4.5-1.9z"/><path fill="#43B7E8" d="M107.6 105.2c-.1-.1-.2-.2-.3-.5-.1-.2-.2-.5-.2-.8 0-.3-.1-.7 0-1.1l.3-7.6L95.2 98c-.4.1-.8 0-1.1-.2-.3-.2-.6-.6-.9-1.1-.3-.5-.5-1.1-.6-1.8-.1-.7-.2-1.5-.2-2.4l.7-20.5L83 70.7c-.7-.1-1.3.1-1.9.4-.6.4-1.2 1-1.7 1.7-.5.8-.9 1.7-1.2 2.8-.3 1.1-.5 2.3-.5 3.5l-.9 33.1 15.2-5.1c.2-.1.5-.1.7 0 .2.1.4.3.5.5.1.3.3.6.3 1 .1.4.1.8.1 1.3l-.4 13.1 16.7-9.3c.3-.2.6-.5.8-.9.3-.4.5-.9.7-1.5.2-.6.4-1.2.5-1.9.1-.7.2-1.4.2-2.2l.1-3.8-4.2 1.7c-.1.2-.3.1-.4.1zm-3 4.4c0 .2 0 .5-.1.7 0 .2-.1.4-.2.6-.1.2-.2.3-.2.5l-.3.3-5 2.4c-.1.1-.2.1-.3 0-.1 0-.2-.1-.3-.3-.1-.1-.1-.3-.2-.5 0-.2-.1-.4 0-.7l.3-9.5c0-.3 0-.5.1-.8.1-.2.1-.5.2-.7.1-.2.2-.4.3-.5.1-.1.2-.2.3-.2l5-1.4c.1 0 .2 0 .3.1.1.1.2.2.2.3.1.1.1.3.1.5v.7l-.2 8.5z"/><path fill="#7BC043" d="M92.6 94.8c.1.7.3 1.3.6 1.8s.6.9.9 1.1c.3.2.7.3 1.1.2l12.1-2.7.2-6.3c0-.4.1-.8.1-1.1l.3-.9c.1-.3.2-.5.4-.6.1-.1.3-.2.4-.2l7-.5.7-17.8v-1.7c-.1-.5-.1-1-.3-1.5-.1-.4-.3-.8-.4-1.1-.2-.3-.4-.5-.6-.6l-18.6-6.7c-.4-.1-.8-.1-1.1.1-.4.2-.7.5-1 1-.3.5-.5 1.1-.7 1.8-.2.7-.3 1.5-.3 2.4L93.1 72l-.7 20.4c0 .9.1 1.7.2 2.4z"/><path fill="#1A5EAB" d="M117.6 86.9c0-.3-.1-.5-.1-.7-.1-.2-.1-.4-.2-.5-.1-.1-.2-.2-.3-.2l-1.2.1-7 .5c-.1 0-.3.1-.4.2-.1.2-.3.4-.4.6l-.3.9c-.1.3-.1.7-.1 1.1l-.2 6.3-.3 7.6v1.1c0 .3.1.6.2.8.1.2.2.4.3.5.1.1.3.1.4.1l4.2-1.7 4-1.6c.1 0 .2-.1.3-.3l.3-.6c.1-.2.1-.5.2-.8.1-.3.1-.6.1-.9l.5-11.6v-.9z"/><path fill="#DB9130" d="M93.5 108.7c-.1-.4-.2-.7-.3-1-.1-.3-.3-.4-.5-.5-.2-.1-.4-.1-.7 0l-15.2 5.1-1.1.4-3.2 1.1c-.4.1-.7.4-1.1.7-.3.3-.7.8-.9 1.3-.3.5-.5 1-.7 1.6-.2.6-.3 1.2-.3 1.8l-.1 5.7-.4 16.4c0 .6.1 1.1.2 1.6.1.4.3.8.6 1 .2.2.5.4.9.4.3 0 .7-.1 1.1-.4l19.5-12.7c.2-.2.5-.4.7-.7.2-.3.4-.7.6-1.1.2-.4.3-.8.4-1.3.1-.5.2-.9.2-1.4l.1-3.6.4-13.1c-.1-.5-.1-.9-.2-1.3z"/><path fill="#DC8B66" d="M77 73.6c.5-.3.9-.7 1.2-1.3.4-.5.6-1.2.8-1.9.2-.7.3-1.6.4-2.4l1-32c0-.9-.1-1.8-.2-2.7-.2-.9-.4-1.7-.7-2.5-.3-.8-.7-1.5-1.2-2.1-.5-.6-1-1.1-1.5-1.4L41.5 6c-1.1-.6-2.1-1-3.1-1.1-1-.1-1.9.1-2.6.6-.8.5-1.4 1.2-1.9 2.2-.5 1-.7 2.2-.7 3.6l-.7 49.3c0 1.3.2 2.7.6 3.9.4 1.2 1 2.3 1.8 3.3.7.9 1.6 1.7 2.5 2.3.9.6 2 .9 3 1l35 3c.6-.1 1.2-.2 1.6-.5z"/><path fill="#FFF" d="M104.7 99.9c-.1-.1-.1-.2-.2-.3-.1-.1-.2-.1-.3-.1l-5 1.4c-.1 0-.2.1-.3.2-.1.1-.2.3-.3.5-.1.2-.2.4-.2.7-.1.2-.1.5-.1.8l-.3 9.5v.7c0 .2.1.4.2.5l.3.3h.3l5-2.4c.1 0 .2-.1.3-.3.1-.1.2-.3.2-.5.1-.2.1-.4.2-.6 0-.2.1-.5.1-.7l.3-8.6v-.7c-.1-.1-.1-.3-.2-.4z"/></svg>