<svg xmlns:xlink="http://www.w3.org/1999/xlink"  xmlns="http://www.w3.org/2000/svg" viewBox="0 0 150 150"><path fill="#3797B6" d="M81.2 17c2.6 0 4.8 2.6 4.8 5.2v7.4c0 .1-.2.3-.2.4 16.7 4 29.2 19 29.2 37 0 18.2-12 33.4-30 37.2v9.3c20 2.3 34.5 11.7 34.5 24.5H34.2c0-12.8 14.8-22.2 33.8-24.5v-9.3c-17-3.8-29.6-19-29.6-37.2 0-18 12.7-33 29.4-37.1 0-.1.2-.3.2-.4v-7.4c0-2.6 1.9-5.2 4.4-5.2H29v121h96V17H81.2z"/><path fill="#3797B6" d="M76.8 92c13.8 0 25-11.2 25-25s-11.2-25-25-25-25 11.2-25 25c.1 13.8 11.2 25 25 25zM62.5 53.9c-.5 1-.7 2.2-.7 3.4 0 4.6 3.7 8.3 8.3 8.3 4.6 0 8.3-3.7 8.3-8.3 0-4.6-3.7-8.3-8.3-8.3h-.6c2.2-.9 4.7-1.4 7.3-1.4 10.7 0 19.4 8.7 19.4 19.4 0 4.5-1.6 8.7-4.2 12 .2-.4.3-.9.3-1.4 0-2.3-1.9-4.2-4.2-4.2-2.3 0-4.2 1.9-4.2 4.2 0 2.3 1.9 4.2 4.2 4.2.6 0 1.1-.1 1.6-.3-3.4 3.1-7.9 4.9-12.9 4.9-10.7 0-19.4-8.7-19.4-19.4 0-5.1 2-9.6 5.1-13.1z"/><path fill="#27628E" d="M76.8 95.4c15.7 0 28.4-12.7 28.4-28.4S92.5 38.6 76.8 38.6 48.4 51.3 48.4 67s12.7 28.4 28.4 28.4zm0-53.4c13.8 0 25 11.2 25 25s-11.2 25-25 25-25-11.2-25-25c.1-13.8 11.2-25 25-25z"/><path fill="#27628E" d="M68 22.2v7.4c0 .1-.1.3-.1.4-16.7 4-29.4 19-29.4 37 0 18.2 12.5 33.4 29.5 37.2v9.3c-19 2.3-33.8 11.7-33.8 24.5h85.3c0-12.8-14.5-22.2-34.5-24.5v-9.3c18-3.8 29.9-19 29.9-37.2 0-18-12.3-33-29.1-37.1 0-.1.2-.3.2-.4v-7.4c0-2.6-2.2-5.2-4.8-5.2h-8.8c-2.5.1-4.4 2.7-4.4 5.3zm8.8 111.2c-4.2 0-7.6-3.4-7.6-7.6 0-4.2 3.4-7.6 7.6-7.6 4.2 0 7.6 3.4 7.6 7.6.1 4.2-3.3 7.6-7.6 7.6zm0-98.3c17.6 0 31.9 14.3 31.9 31.9 0 17.6-14.3 31.9-31.9 31.9-17.6 0-31.9-14.3-31.9-31.9 0-17.6 14.3-31.9 31.9-31.9z"/><path fill="#27628E" d="M76.8 86.4c5 0 9.5-1.9 12.9-4.9-.5.2-1 .3-1.6.3-2.3 0-4.2-1.9-4.2-4.2 0-2.3 1.9-4.2 4.2-4.2 2.3 0 4.2 1.9 4.2 4.2 0 .5-.1.9-.3 1.4 2.6-3.3 4.2-7.5 4.2-12 0-10.7-8.7-19.4-19.4-19.4-2.6 0-5 .5-7.3 1.4h.6c4.6 0 8.3 3.7 8.3 8.3 0 4.6-3.7 8.3-8.3 8.3-4.6 0-8.3-3.7-8.3-8.3 0-1.2.3-2.4.7-3.4-3.2 3.5-5.1 8.1-5.1 13.1 0 10.7 8.7 19.4 19.4 19.4z"/><path fill="#8EDCED" d="M44.9 67c0 17.6 14.3 31.9 31.9 31.9 17.6 0 31.9-14.3 31.9-31.9 0-17.6-14.3-31.9-31.9-31.9-17.6 0-31.9 14.3-31.9 31.9zm31.9-28.4c15.7 0 28.4 12.7 28.4 28.4S92.5 95.4 76.8 95.4 48.4 82.7 48.4 67s12.7-28.4 28.4-28.4z"/><circle fill="#FFFFFE" cx="76.8" cy="125.7" r="7.6"/></svg>