<svg xmlns:xlink="http://www.w3.org/1999/xlink"  version="1" xmlns="http://www.w3.org/2000/svg" viewBox="0 0 150 150"><path fill="#0A2335" d="M134.8 36.7l-25.7-5.2-1.4 1.4-4.5 7.7-57.8-12.3c-2.7-.6-5.3-.1-7 1.4l85.6 18v76.8l-2.1-.6 1.3 4.3-31.7-8.4 31.5 9.4 1.4-1.4 17.9-81.1c.5-4.1-2-8.9-7.5-10z"/><path fill="#0A2335" d="M124 48.5v-.8L38.3 29.6c-.2.2-.5.4-.7.6L124 48.5z"/><linearGradient id="a" gradientUnits="userSpaceOnUse" x1="81.764" y1="36.116" x2="75.828" y2="56.501"><stop offset="0" stop-color="#fff"/><stop offset="1" stop-color="#d9e1f2"/></linearGradient><path fill="url(#a)" d="M124 48.5v-.8L38.3 29.6c-.2.2-.5.4-.7.6L124 48.5z"/><path fill="#AADEE8" d="M91.3 47.2c5.1 1 10.3 5.6 11.6 10.2l18.8 65.7.1.8 2.1.6v-76L38 30.3l-13-2.8v6.9s-.2.1-.1.1l1.7.4c.4 0 1.1.2 1.8.4l.6.1c.3 0 .5.1.6 0 .5.1 1 .3 1.6.3v.1l4.2.8 55.9 10.6z"/><path fill="#1C94D2" d="M88.1 71.2c4.4 4.4 7.8 10.5 7.8 17.3 0 4.6-1.8 9.4-5.7 13.3l-7.1 7.1c-1.4 1.4-2.9 2.5-4.4 3.4-.3.2-.7.4-1 .5-1.6.8-3.2 1.3-4.9 1.5-.6.1-1.2.2-1.8.2l20.4 5.4 31.7 8.4-1.2-4.3-.2-.8-18.8-65.7c-1.3-4.6-6.5-9.2-11.6-10.2L35.4 36.5l-4.2-.8c-.6 1.6-.8 3-.9 4.4-.1 2.7.9 5.5 2.5 8.2 2.4 4 6.3 7.9 10.4 11 5.2-4.7 10.9-6.8 16.2-6.8 4.7 0 9 1.5 12.6 3.7 0 0 .1 0 .1.1 1.9 1.2 3.6 2.5 5 3.9l11 11M52.5 106.7l-.5-.5-1-1-9.4-9.4C37.4 91.5 34 85.3 34 78c0-4.5 1.4-9.2 4.6-13.6-2.6-2-5.2-4.3-7.6-7-2.9-3.2-5.3-6.9-6.6-11.1-.6-2-1-4-1-6.2 0-1.7.3-4 .8-5.8L9.9 31.6c-4.4-.9-7 1.9-5.9 6.1l16.9 63.6L58 111c-1.1-.6-2-1.3-3-2.1-.8-.7-1.7-1.4-2.5-2.2zM26.5 34.8l-1.9-.4c.6.2.8.4 1.9.4z"/><path fill="#1C94D2" d="M52.4 74.2c-.9 0-1.8-.3-2.5-1L44.7 68C42 71.4 41 74.8 41 78c0 2.2.5 4.3 1.3 6.3 2.7-.5 7.9-2.3 14.5-8.9 6.5-6.6 8.7-11.7 9.4-14.4-2.1-1-4.4-1.6-6.8-1.5-3.1 0-6.3.9-9.7 3.5l5.2 5.2c1.4 1.4 1.4 3.6 0 5-.7.6-1.6 1-2.5 1zM85.2 96.8c2.7-2.7 3.6-5.5 3.6-8.4 0-4.2-2.4-9-5.7-12.3L72.2 65.2c-1.5 3.8-4.4 9.2-10.5 15.2-6 6-11.5 8.8-15.5 10.1.1.1.2.2.2.3l11 11c3.3 3.3 8.1 5.8 12.3 5.7 2.9 0 5.6-.9 8.3-3.6l7.2-7.1z"/></svg>