<svg xmlns:xlink="http://www.w3.org/1999/xlink"  version="1" xmlns="http://www.w3.org/2000/svg" viewBox="0 0 150 150"><path fill="#61A37A" d="M5.8 75.5c0-37.8 30.6-68.4 68.4-68.4s68.4 30.6 68.4 68.4c0 37.8-30.6 68.4-68.4 68.4S5.8 113.3 5.8 75.5z"/><path fill="#231F20" d="M86.6 136.2c-4.1.8-8.3 1.3-12.6 1.3h-.1c-2.5 0-5.1-1.3-7.9-4.1-8.2-8.2-14.9-29.4-15.4-54.4h22.2c1.9 0 3.4-1.5 3.4-3.4s-1.5-3.4-3.4-3.4H50.6c.3-16.3 3.2-30.9 7.6-41.4 2.3-5.6 5-10.1 7.8-12.9 2.8-2.8 5.4-4.1 8-4.1 3.3 0 7 2.2 10.6 7.3 3.6 5 6.8 12.6 9.1 21.8.5 1.8 2.3 2.9 4.1 2.5 1.8-.5 2.9-2.3 2.5-4.1-2.4-9.8-5.8-18-10.1-24-.4-.5-.8-1.1-1.2-1.6 12.9 3 25 9.8 32.3 18.4-1.7 1.1-5.5 3-12.9 4.6-1.8.4-3 2.2-2.6 4 .3 1.6 1.7 2.7 3.3 2.7.2 0 .5 0 .7-.1 13.8-3 17.5-7.2 18.2-8.2.3-.4.5-.8.5-1.2.7-1.1.7-2.7-.1-3.8C117 16.8 95 7 74 7c-21.1 0-40 9.6-52.6 24.6 0 0-.1 0-.1.1-.6.4-1 1-1.2 1.6C10.9 44.8 5.4 59.6 5.4 75.6c0 37.9 30.7 68.6 68.6 68.6 4.8 0 9.5-.5 14-1.4 1.8-.4 3-2.2 2.6-4-.3-1.9-2.1-3-4-2.6M59 15.6C50 27 44.4 47.9 43.9 72.2H12.3c.7-12.3 4.9-23.6 11.7-33 2.7 1.7 7.4 3.7 15.1 5.3.2 0 .5.1.7.1 1.6 0 3-1.1 3.3-2.7.4-1.8-.8-3.6-2.6-4-6.4-1.3-10.1-2.9-12.2-4 .6-.7 1.3-1.4 2-2.1C38.1 24 48 18.3 59 15.6M27.4 116.2c1.7-1 4.9-2.5 10.4-3.8 1.8-.4 2.9-2.3 2.5-4.1-.4-1.8-2.3-2.9-4.1-2.5-6.6 1.6-10.6 3.5-12.9 5-6.4-9.1-10.3-20.1-11-31.9h31.5c.4 17 3.3 32.4 8.1 44 2 4.9 4.4 9.2 7.1 12.6-11-2.7-20.9-8.5-28.7-16.3-1-.9-2-1.9-2.9-3"/><path fill="#231F20" d="M72.5 41.5c-3.3 0-6.5-.1-9.3-.2-1.9-.1-3.4 1.4-3.5 3.2-.1 1.9 1.4 3.4 3.2 3.5 3 .1 6.2.2 9.6.2 4.6 0 8.8-.1 12.6-.4 1.9-.1 3.3-1.7 3.2-3.6-.1-1.9-1.7-3.3-3.6-3.2-3.7.4-7.7.5-12.2.5M72.5 108c-3.3 0-6.5.1-9.3.2-1.9.1-3.4-1.4-3.5-3.2-.1-1.8 1.4-3.4 3.2-3.5 3-.1 6.2-.2 9.6-.2 4.6 0 8.8.1 12.6.4 1.9.1 3.3 1.7 3.2 3.6-.1 1.8-1.7 3.3-3.6 3.2-3.7-.4-7.7-.5-12.2-.5"/></svg>