<svg xmlns:xlink="http://www.w3.org/1999/xlink"  version="1" xmlns="http://www.w3.org/2000/svg" viewBox="0 0 150 150"><g fill="#F36D21"><path d="M132.5 10.2c-1.3-3.9-5.6-6-9.5-4.7-3.9 1.3-6 5.6-4.7 9.5 1.3 3.9 5.6 6 9.5 4.7 3.9-1.3 6-5.6 4.7-9.5zM122.6 57.5c-.1-.2-.1-.4-.2-.6-.1-.4-.3-.8-.4-1.2-.4-1.1-.8-2.1-1.2-3.1-4.3-9.3-12.5-16.5-22.1-21-3.7 4.2-7 9.2-9.5 14.9l1.8 1.7c6.4 6.1 11 16.9 12.7 26.9 2.7 16.1.2 36.5-6 42.1 3.1-1.5 5.9-3.4 8.5-5.5.1-.2.2-.3.2-.5.8-1.4 1.6-2.9 2.4-4.3 1.1-2.1 2.2-4.1 3.3-5.9 1.1-1.9 2.2-3.7 3.3-5.5 2.1-3.5 4-6.8 5.5-10.3 2.2-5.3 3.4-11.2 3.1-19.7-.2-2.8-.7-5.4-1.4-8z"/><path d="M88.6 113.8c.6.1 1.2 0 1.8-.2 7.6-2.7 11.2-25.2 8.3-42.9-1.4-8.7-4.8-17.9-9.7-24-4.5 10.1-6.9 22.2-6.4 35.4.5 13.7 2.8 25.4 6 31.7zM66.6 79.9c-1.3-4.7-4.1-10.6-7.6-14.8-.1 0-.1-.1-.1-.1-3.2 9.7-4.4 21-4.1 30.3v.9c.2 5.6 2.2 17.3 5.7 22.7.4 0 .8 0 1.3-.1 7.7-2.8 8-27.8 4.8-38.9z"/><path d="M90.2 116.5l-3.4-3.1-1.3-1.2c-5-4.4-9.2-17.8-9.8-34.5-.5-12.3 1.9-24 6.2-34.3-2.3-.3-4.7-.1-7.2 1-7.6 3.3-12.7 11.2-15.8 20.5l.9.9.5.5c4.7 4.6 8.4 12.8 10 18.5 3.2 11.1 2.7 33.9-5.1 36.6H65c8.5 1.8 17.5 1.3 26.2-1.6 1-.4 2-.7 3-1.2-1.1 0-2.1-.5-3.1-1.3l-.9-.8zM58.7 118.1c-4.8-3.7-7.9-19.5-8.2-26-.3-8.9.8-19.7 3.8-29.3-1.6-.2-3.2 0-4.8.9-8.6 4.8-15.1 18.7-16.1 36.1 6.8 10.5 17.2 17.8 28.9 21l-2.6-2-1-.7z"/></g><path fill="#004F7F" d="M95.6 118.5c-.4.1-.8.2-1.3.2l-3 1.2c-8.8 3-17.8 3.4-26.2 1.6-1 .3-2 .1-2.9-.6-11.7-3.2-22.1-10.6-28.9-21 1.1-17.4 7.5-31.3 16.1-36.1 1.6-.9 3.2-1.2 4.8-.9-3.1 9.6-4.1 20.4-3.8 29.3.3 6.5 3.4 22.3 8.2 26l.9.7 2.6 2c-.6-.5-1.2-1.2-1.8-2-3.5-5.4-5.4-17.1-5.7-22.7v-.9c-.1-9.3 1-20.6 4.3-30.3l.1.1c.3.2.5.5.8.7l-.9-.9c3.1-9.3 8.2-17.2 15.8-20.4 2.5-1.1 4.9-1.3 7.2-1-4.3 10.2-6.7 22-6.2 34.3.7 16.7 4.8 30 9.8 34.5l1.3 1.2 3.4 3.1 1 .9c-.4-.3-.7-.7-1-1.1-.5-.7-1.1-1.5-1.6-2.5-3.3-6.3-5.5-17.9-6-31.6-.5-13.2 1.9-25.3 6.4-35.4v-.1c.6.5 1.3 1 1.9 1.6l-1.8-1.7c2.6-5.6 5.8-10.6 9.5-14.9.6-.6 1.1-1.3 1.7-1.9 5-5.1 10.8-9 17.1-11.1-.6-1.6-1-3.3-1.2-5.1-.1-1.3-.2-2.6 0-3.9-8.8 2.4-17 8.2-23.7 16.3-.7.8-1.4 1.7-2 2.6-4.4-1.2-8.9-2-13.4-2.1h-3.5c-7.3.3-14.2 2.1-20.1 5.8-11.4 7-14.2 10.7-20.5 22-.8 2.3-1.6 4.7-2.4 7-3 3.6-3.3 4-3.1 8.7.1 1.4.2 2.9.2 4.3-.7.8-1.4 1.6-2.2 2.3-2.1 2.2-4.2 4.5-6.3 6.7-1 1.5-.8 2.9-.3 4.3 1.4 1.3 2.9 2.5 4.3 3.8.7.8 1.5 1.5 2.2 2.3-.3 2.4-.9 4.6-2.1 6.6.2 1 .8 2 1 3-.3.9-.9 1.7-1.2 2.5.2 1.8.5 3.4.7 5.1.6 4.2-.2 6-1.8 9.9-.6 2.7-.5 5.1.8 6.7 1.9 1.9 4.1 2.4 6.1 3 3.8.7 9.3-.9 12.4 3.6 1.9 2.7 2.9 6.5 3.4 10.6 9.7-7.1 23.4-11 38.3-9.6 7.5.7 14.5 2.7 20.7 5.6-.4-3-.8-6-.9-8.9-.3-4.7-.2-9.1.4-12.7.2-.8.3-1.6.5-2.3.5-1.8 1.4-3.5 2.3-5.2-2.6 2.1-5.5 3.9-8.5 5.5-.5.6-1.2 1-1.9 1.3z"/></svg>