<svg xmlns:xlink="http://www.w3.org/1999/xlink"  version="1" xmlns="http://www.w3.org/2000/svg" viewBox="0 0 150 150"><path fill="#04BEDB" d="M93.4 73.1c-.1-10.4-8.4-19-18.8-19.4h-1C63.3 54 55 62.4 54.9 72.8V73.7h38.5V73.1zm-29.2-1.7h-6.7c.2-2.1.8-4.1 1.8-5.9h6.1c-.7 1.9-1.1 3.9-1.2 5.9m-3.3-8.5c2.4-3.2 5.9-5.4 9.9-6.3-1.9 1.8-3.3 4-4.4 6.3h-5.5zm12 8.5h-6.3c.2-2 .6-4 1.4-5.9h4.9v5.9zm0-8.5h-3.7c1-1.7 2.2-3.3 3.7-4.9v4.9zm2.4-4.9c1.5 1.5 2.7 3.2 3.7 4.9h-3.7V58zm0 13.4v-5.9h4.9c.8 1.9 1.2 3.9 1.4 5.9h-6.3zm2.2-14.8c4 .8 7.4 3.1 9.8 6.3h-5.5c-1.1-2.2-2.5-4.3-4.3-6.3m6.6 14.8c-.2-2-.6-4-1.2-5.9H89c.9 1.8 1.6 3.8 1.8 5.9h-6.7z"/><path fill="#E95A24" d="M93.4 76v-.2-.4H54.9V76.3c.1 10.4 8.4 18.8 18.8 19.1h1c10.3-.3 18.5-9 18.7-19.4zm-29.2 1.7c.1 2 .5 4 1.2 5.9h-6.1c-.9-1.8-1.5-3.8-1.8-5.9h6.7m2.2 8.5c1.1 2.3 2.6 4.5 4.4 6.3-4-.8-7.5-3.1-9.9-6.3h5.5zm6.5-2.5H68c-.8-1.9-1.2-3.9-1.4-5.9h6.3v5.9zm0 7.4c-1.5-1.5-2.7-3.2-3.7-4.9h3.7v4.9zm2.4-4.9H79c-1 1.7-2.2 3.3-3.7 4.9v-4.9zm6.3-8.5c-.2 2-.6 4-1.4 5.9h-4.9v-5.9h6.3zm-4.1 14.8c1.8-1.9 3.3-4 4.3-6.3h5.5c-2.4 3.2-5.9 5.5-9.8 6.3m13.2-14.8c-.2 2.1-.9 4.1-1.8 5.9h-6.1c.7-1.9 1.1-3.9 1.2-5.9h6.7z"/><path fill-rule="evenodd" clip-rule="evenodd" fill="#E95A24" d="M44.7 74.2c-9.8 2.1-17.5 9.8-19.5 19.5-2-9.7-9.8-17.5-19.5-19.5 9.8-2 17.5-9.8 19.5-19.5 2 9.7 9.7 17.4 19.5 19.5zm10 49.4c9.8-2 17.5-9.7 19.5-19.5 2 9.8 9.8 17.5 19.5 19.5-9.8 2.1-17.5 9.8-19.5 19.5-2-9.7-9.7-17.4-19.5-19.5zM118.2 99c-9.8-2-17.5-9.8-19.5-19.5-2 9.8-9.8 17.5-19.5 19.5 9.8 2 17.5 9.8 19.5 19.5 2-9.8 9.7-17.5 19.5-19.5zm-88.1 0c9.8-2 17.5-9.8 19.5-19.5 2 9.8 9.8 17.5 19.5 19.5-9.8 2-17.5 9.8-19.5 19.5-2.1-9.8-9.8-17.5-19.5-19.5zm24.6-73.9c9.8-2 17.5-9.8 19.5-19.5 2 9.8 9.8 17.5 19.5 19.5-9.8 2-17.5 9.8-19.5 19.5-2-9.7-9.7-17.5-19.5-19.5zm24.7 24.5c9.8-2 17.5-9.7 19.5-19.5 2 9.8 9.8 17.5 19.5 19.5-9.8 2-17.5 9.8-19.5 19.5-2-9.8-9.7-17.5-19.5-19.5zm-10.4 0c-9.8-2-17.5-9.7-19.5-19.5-2 9.8-9.8 17.5-19.5 19.5 9.8 2 17.5 9.8 19.5 19.5 2-9.8 9.7-17.5 19.5-19.5zm73.8 24.6c-9.8 2.1-17.5 9.8-19.5 19.5-2-9.7-9.8-17.5-19.5-19.5 9.8-2 17.5-9.8 19.5-19.5 2.1 9.7 9.8 17.4 19.5 19.5z"/></svg>