<svg xmlns:xlink="http://www.w3.org/1999/xlink"  version="1" xmlns="http://www.w3.org/2000/svg" viewBox="0 0 150 150"><path fill="#00A096" d="M62.5 74.4c0-2-1.7-3.7-3.7-3.7s-3.7 1.7-3.7 3.7 1.7 3.7 3.7 3.7c2 .1 3.7-1.6 3.7-3.7zM25.7 120.5c7.8 8.5 17.7 15 28.8 18.6-5.8-5.9-10.8-14.4-14.4-24.5-5.3 1.6-10.1 3.6-14.4 5.9zM54.7 10.4C43.4 14 33.3 20.6 25.5 29.2c4.3 2.3 9.2 4.3 14.6 6 3.6-10.3 8.6-18.9 14.6-24.8z"/><path fill="#007970" d="M33.7 71.6c.3-11 1.8-21.4 4.5-30.7-6.1-1.9-11.6-4.3-16.5-7.1-8 10.6-13 23.6-13.6 37.8h25.6z"/><path fill="#00A096" d="M95.7 139c11.1-3.6 21-10.1 28.7-18.6-4.2-2.3-9-4.2-14.3-5.9-3.6 10.2-8.6 18.6-14.4 24.5zM110.4 77.9H97.2c-1.2 2-3.4 3.3-5.8 3.3-3.8 0-6.8-3.1-6.8-6.8 0-3.8 3.1-6.8 6.8-6.8 2.7 0 5.1 1.7 6.2 4h12.8c-.3-10.5-1.7-20.3-4.2-29-5.6 1.4-11.6 2.4-17.8 3-1.5 5.6-6.7 9.8-12.8 9.8-6.1 0-11.2-4.1-12.8-9.8C56.2 45 49.9 44 44 42.5c-2.4 8.7-3.9 18.6-4.2 29h12.8c1.1-2.3 3.4-4 6.2-4 3.8 0 6.8 3.1 6.8 6.8 0 3.8-3.1 6.8-6.8 6.8-2.5 0-4.6-1.4-5.8-3.3H39.8c.2 10.6 1.7 20.5 4.2 29.3 5.8-1.5 12.1-2.5 18.6-3.1 1.3-5.9 6.6-10.4 12.9-10.4 6.4 0 11.7 4.5 13 10.5 6.2.6 12.1 1.6 17.6 3 2.5-8.6 4-18.6 4.3-29.2z"/><path fill="#00A096" d="M68.4 107c0 4 3.2 7.2 7.2 7.2s7.2-3.2 7.2-7.2-3.2-7.2-7.2-7.2-7.2 3.2-7.2 7.2z"/><path fill="#C92027" d="M33.7 77.9H8c.7 14.2 5.7 27.3 13.8 37.9 4.8-2.7 10.3-5.1 16.4-7-2.6-9.3-4.2-19.7-4.5-30.9z"/><path fill="#00A096" d="M71.4 7.5c-10.6 1.8-19.9 13-25.6 29.3 5.3 1.3 10.9 2.2 16.8 2.7 1.2-6 6.6-10.6 13-10.6s11.7 4.5 13 10.5c5.6-.6 10.9-1.4 15.8-2.6-5.7-16.3-15-27.5-25.6-29.3v-.2c-1.2-.1-2.5-.1-3.7-.1-1.2 0-2.4 0-3.6.1v.2zM78.8 142.1c10.6-1.9 19.8-13 25.5-29.1-5-1.2-10.4-2.1-15.9-2.6-1.5 5.7-6.7 9.8-12.8 9.8-6.2 0-11.3-4.2-12.8-9.9-5.9.5-11.6 1.4-16.9 2.7 5.7 16.1 14.9 27.2 25.5 29.1v.1c1.2.1 2.4.1 3.6.1 1.3 0 2.6-.1 3.8-.2z"/><path fill="#00A096" d="M82.8 42.2c0-4-3.2-7.2-7.2-7.2s-7.2 3.2-7.2 7.2 3.2 7.2 7.2 7.2 7.2-3.2 7.2-7.2z"/><path fill="#007970" d="M116.5 77.9c-.3 11.1-1.9 21.6-4.6 30.9 6 1.9 11.5 4.3 16.3 7 8.1-10.6 13.2-23.7 13.8-37.9h-25.5z"/><path fill="#00A096" d="M91.4 70.7c-2.1 0-3.7 1.7-3.7 3.7s1.7 3.7 3.7 3.7 3.7-1.7 3.7-3.7-1.7-3.7-3.7-3.7z"/><path fill="#C92027" d="M116.5 71.6h25.6c-.6-14.1-5.6-27.2-13.6-37.7-4.9 2.8-10.4 5.2-16.5 7.1 2.7 9.2 4.2 19.6 4.5 30.6z"/><path fill="#00A096" d="M124.6 29.3c-7.8-8.6-17.8-15.2-29.1-18.9 5.9 6 11 14.5 14.6 24.8 5.4-1.6 10.3-3.6 14.5-5.9z"/></svg>