<svg xmlns:xlink="http://www.w3.org/1999/xlink"  version="1" xmlns="http://www.w3.org/2000/svg" viewBox="0 0 150 150"><path fill="#29AAE2" d="M11.8 100.5h9.6c.2-.5.6-1.1 1-2.3 2.2-5.6 4.4-11.3 6.6-16.9.9-2.4 4.6-3.6 6-.8 2.2 4.5 4.3 8.9 6.5 13.4 3.8-14.7 9.2-41.3 13-56-5.4 3.6-11.3 20.6-13.9 26.6-3.5-1.8-7.4-2.9-11.6-2.9-13.9 0-25.1 11.2-25.1 25.1 0 5.7 1.9 11 5.2 15.3.4-.9 1.3-1.5 2.7-1.5z"/><path fill="#00A69C" d="M59.2 49.6c3.1 14.3 6.2 28.5 9.4 42.8 3-8 6.1-15.9 9.1-23.9 1.1-3 5.3-3.2 6.3 0 2.9 8.9 5.7 17.7 8.6 26.6 1.7-3.2 3.5-6.4 5.2-9.7 1.5-2.7 5-1.7 6 .8l4.2 11.4c.6 1.6.8 2.6.7 3.2.4-.2 1.1-.3 2.2-.3h24.6c1.3-2.6 2-5.6 2-8.7 0-11.1-9-20.1-20.1-20.1-4.9 0-9.4 1.8-12.9 4.7-.8-17.8-15.4-32-33.4-32-5 0-9.7 1.1-13.9 3 1 .4 1.8 1.1 2 2.2z"/><path fill="#231F20" d="M106.9 107c-1.5 0-2.6-1-3.1-2.4l-3.6-9.6c-1.8 3.4-3.6 6.7-5.4 10.1-1.4 2.6-5.1 1.8-6-.8-2.7-8.4-5.4-16.7-8.1-25.1L71 104.6c-1.1 2.8-5.5 3.4-6.3 0-2.9-13.4-5.9-26.8-8.8-40.2l-10.3 39.7c-.7 2.6-4.7 3.4-6 .8-2.4-4.9-4.7-9.7-7.1-14.6-1.9 4.8-3.7 9.5-5.6 14.3-.6 1.4-1.6 2.4-3.2 2.4h-9.5c4.1 3 9.2 4.8 14.8 4.8h88.6c5 0 25.1-1.7 28.6-4.7l-39.3-.1z"/></svg>