<svg xmlns:xlink="http://www.w3.org/1999/xlink"  xmlns="http://www.w3.org/2000/svg" viewBox="0 0 150 150"><path fill="none" d="M24.4 59.5c1.8.6 3.1.3 3.4-.6.3-1-.7-1.8-2.5-2.3-1.7-.5-3-.4-3.3.6-.3.9.6 1.8 2.4 2.3zM23.1 72.2c1.9 0 2.9-.7 2.9-1.6 0-1-1.1-1.5-3-1.4-1.8.1-3 .6-2.9 1.6 0 .9 1.2 1.4 3 1.4zM27.8 44.9c-.5.7.1 1.9 1.6 2.9 1.6 1.1 2.8 1.3 3.4.5.6-.8-.1-1.9-1.7-3-1.4-1-2.7-1.3-3.3-.4zM26.1 84.6c1.8-.6 2.7-1.6 2.4-2.4-.3-.9-1.6-1-3.4-.3-1.7.6-2.7 1.5-2.3 2.4.3.7 1.6.9 3.3.3zM39.7 105.3c.8.5 1.9-.2 2.9-1.7 1.1-1.6 1.2-2.9.4-3.4-.8-.5-1.9.2-2.9 1.8-1 1.5-1.3 2.7-.4 3.3zM32.8 95.4c1.5-1.2 2-2.4 1.5-3.1-.6-.8-1.9-.4-3.3.8-1.4 1.1-2.1 2.2-1.4 3 .5.7 1.8.5 3.2-.7zM37.3 35c-.7.5-.5 1.8.6 3.3 1.1 1.5 2.3 2.1 3 1.6.8-.6.5-1.8-.6-3.3-1.1-1.5-2.1-2.2-3-1.6zM57.6 57h28.7c-4.4-8-13.2-13.9-23.2-13.9-14.5 0-26.4 11.8-26.4 26.3 0 11.4 7.3 21.1 17.3 24.8V60.5c0-1.9 1.7-3.5 3.6-3.5zM51.3 34.4c1-.3 1-1.6.5-3.4-.6-1.7-1.4-2.7-2.4-2.4-.9.3-1 1.6-.5 3.3.7 1.9 1.6 2.8 2.4 2.5zM111.8 85.2c0 3.3 2.7 6 6 6s6-2.7 6-6-2.7-6-6-6-6 2.7-6 6zM91.6 76.5c-2.4 0-4.3 1.9-4.3 4.3s1.9 4.3 4.3 4.3 4.3-1.9 4.3-4.3-2-4.3-4.3-4.3z"/><path fill="none" d="M115.2 69c0-1-.1-3-.3-5H93.5c.3 2 .5 4 .5 5h-4.6c0-1-.2-3-.6-5H61v31.6c1 .1 1 .1 2 .1v4.6c-1 0-1 0-2-.1v4.8h79V64h-18.3c.2 2 .3 4 .3 5h-6.8zM91.6 88.4c-4.2 0-7.7-3.5-7.7-7.7s3.5-7.7 7.7-7.7 7.7 3.5 7.7 7.7c0 4.3-3.5 7.7-7.7 7.7zm39-3.2c0 7.1-5.8 12.8-12.8 12.8-7.1 0-12.8-5.8-12.8-12.8 0-7.1 5.8-12.8 12.8-12.8 7.1 0 12.8 5.7 12.8 12.8zM94.8 45.2c-1.6 1.1-2.2 2.2-1.7 3 .6.8 1.8.5 3.4-.5 1.5-1 2.2-2.1 1.6-2.9-.5-.8-1.8-.6-3.3.4zM85.6 36.5c-1.2 1.5-1.4 2.8-.6 3.3.8.6 1.9-.1 3-1.6 1.1-1.4 1.4-2.7.6-3.3-.7-.5-1.9.1-3 1.6zM74.6 34.4c1 .3 1.8-.7 2.4-2.4.6-1.7.5-3-.5-3.3-.9-.3-1.8.6-2.4 2.4-.6 1.7-.4 3 .5 3.3zM63 33c1 0 1.5-1.4 1.4-3.3 0-1.8-.5-3.1-1.5-3.1-.9 0-1.5 1.4-1.4 3.2-.1 1.9.5 3.2 1.5 3.2z"/><path fill="#A7A9AC" d="M114.9 64c-.3-2-.7-5-1.2-7H91.4c.9 2 1.7 5 2.1 7h21.4zM88.8 64c-.5-3-1.4-5-2.5-7H57.6c-1.9 0-3.6 1.6-3.6 3.5v33.7c2 .8 5 1.3 7 1.5V64h27.8z"/><path fill="#A7A9AC" d="M143.9 57h-23.2c.5 2 .9 5 1.1 7h18.3v41h-79v-4.8c-2-.2-5-.6-7-1.2v9.7c0 1.9 1.7 3.3 3.6 3.3H144c1.9 0 3.1-1.4 3.1-3.3V60.5c-.1-1.9-1.3-3.5-3.2-3.5zM90 115h11v7H90z"/><path fill="#D27E3D" d="M63 100.3v-4.6c-1 0-1.3 0-2-.1-2.4-.2-4.6-.7-6.8-1.5C44 90.5 36.8 80.8 36.8 69.4c0-14.5 11.8-26.3 26.3-26.3 10 0 18.8 5.6 23.2 13.9 1.1 2.1 2 4.2 2.5 6.6.4 1.8.6 4.3.6 5.3H94c0-1-.2-3.5-.5-5.3-.4-2.4-1.1-4.6-2.1-6.7C86.6 46 75.8 38.5 63.1 38.5c-17 0-30.8 13.9-30.8 30.9 0 13.9 9.3 25.7 21.9 29.5 2.2.7 4.4 1.1 6.8 1.2.7.1 1 .2 2 .2z"/><path fill="#00B3E6" d="M115.2 69h6.8c0-1-.1-3.5-.3-5.3-.2-2.3-.6-4.5-1.1-6.7-5.6-25.9-28.7-45.3-56.3-45.3-31.8 0-57.8 25.9-57.8 57.7 0 31.8 26.5 57.7 57.5 57.7v-6.8c-28 0-50.7-22.8-50.7-50.8 0-28 22.9-50.8 50.9-50.8 23.8 0 43.8 16.4 49.3 38.5.6 2.2 1 4.3 1.2 6.6.3 1.7.5 4.2.5 5.2z"/><path fill="#00B3E6" d="M105 85.2c0 7.1 5.8 12.8 12.8 12.8 7.1 0 12.8-5.8 12.8-12.8 0-7.1-5.8-12.8-12.8-12.8-7.1 0-12.8 5.7-12.8 12.8zm18.8 0c0 3.3-2.7 6-6 6s-6-2.7-6-6 2.7-6 6-6 6 2.7 6 6z"/><path fill="#D27E3D" d="M91.6 73c-4.2 0-7.7 3.5-7.7 7.7s3.5 7.7 7.7 7.7 7.7-3.5 7.7-7.7-3.5-7.7-7.7-7.7zm0 12c-2.4 0-4.3-1.9-4.3-4.3s1.9-4.3 4.3-4.3 4.3 1.9 4.3 4.3-2 4.3-4.3 4.3z"/><path fill="#C5C6C8" d="M47.8 102.1l-3 6.8.8.3 1.8-.1.1-.8-1.4.1 2.6-5.9zM39.2 105.9c1.3.8 2.9.3 4.2-1.8 1.3-2 1.2-3.7 0-4.5-1.3-.9-2.9-.2-4.2 1.9-1.3 1.9-1.3 3.6 0 4.4zm.9-3.9c1-1.6 2.1-2.3 2.9-1.8.8.5.6 1.8-.4 3.4-1 1.5-2.1 2.2-2.9 1.7-.9-.6-.6-1.8.4-3.3zM38.2 95.6l-4.9 5.5.6.6 1.8.4.3-.7-1.4-.3v-.1l4.3-4.7zM33.5 96.2c1.9-1.5 2.3-3.1 1.4-4.3-1-1.3-2.7-1.1-4.6.4-1.8 1.5-2.3 3-1.4 4.2 1 1.2 2.7 1.2 4.6-.3zM31 93.1c1.5-1.2 2.7-1.5 3.3-.8.6.7 0 1.9-1.5 3.1-1.4 1.2-2.7 1.4-3.3.7-.6-.8.1-1.9 1.5-3zM31.2 86.5l-6.4 3.6.4.8 1.6.9.5-.5-1.2-.8 5.6-3.2zM26.5 85.5c2.3-.9 3.2-2.3 2.7-3.6-.6-1.5-2.2-1.9-4.5-1-2.2.8-3.2 2.1-2.6 3.6.5 1.3 2.1 1.8 4.4 1zm-1.4-3.7c1.8-.7 3-.6 3.4.3.3.9-.6 1.8-2.4 2.4-1.7.6-3 .5-3.3-.4-.3-.9.6-1.7 2.3-2.3zM21.5 79.2l.7-.3-.9-1.1 6.3-1.3-.2-.9-7.2 1.4.2.8zM23.3 73.2c2.4-.1 3.7-1.1 3.7-2.6 0-1.6-1.5-2.5-3.9-2.4-2.3.1-3.7 1-3.6 2.6 0 1.4 1.3 2.4 3.8 2.4zm-.3-4c1.9-.1 3 .4 3 1.4 0 .9-1 1.5-2.9 1.6-1.8.1-3-.5-3-1.4-.1-1.1 1.1-1.5 2.9-1.6zM19.9 64l.6 1.7.8-.1-.5-1.4 6.3.8.1-.9-7.2-1zM21.2 56.9c-.4 1.4.6 2.8 2.9 3.5 2.3.7 3.9.1 4.3-1.3.5-1.5-.6-2.8-3-3.5-2.2-.6-3.8-.1-4.2 1.3zm.7.3c.3-1 1.6-1.1 3.3-.6 1.8.5 2.8 1.3 2.5 2.3-.3.9-1.5 1.1-3.4.6-1.7-.5-2.6-1.4-2.4-2.3zM23.7 50.6l.1 1.8.8.2-.1-1.4v-.1l5.8 2.8.4-.9-6.6-3.1zM27.3 44.4c-.9 1.2-.4 2.9 1.7 4.3 2 1.4 3.7 1.3 4.5.2.9-1.3.3-2.9-1.7-4.3s-3.7-1.5-4.5-.2zm5.5 3.9c-.5.8-1.8.6-3.4-.5-1.5-1.1-2.1-2.2-1.6-2.9.6-.9 1.8-.5 3.3.5 1.6 1 2.3 2.1 1.7 2.9zM31.6 39.2l-.5 1.8.7.3.4-1.3v-.1l4.6 4.5.7-.7-5.3-5.1zM36.9 34.4c-1.2.9-1.2 2.6.2 4.6 1.5 1.9 3.1 2.4 4.2 1.6 1.3-1 1.2-2.6-.3-4.6-1.3-2-2.8-2.6-4.1-1.6zm4.1 5.5c-.7.6-1.9 0-3-1.6-1.1-1.5-1.3-2.7-.6-3.3.8-.6 1.9.1 3 1.5 1 1.5 1.4 2.8.6 3.4zM43.1 31.7l2.9 5.7.9-.4-3.4-6.6-.8.4-1 1.5.5.6.8-1.2zM51.6 35.2c1.5-.5 2-2.1 1.2-4.5-.7-2.2-2-3.2-3.5-2.8-1.4.5-2 2.1-1.2 4.4.7 2.3 2.1 3.3 3.5 2.9zm-2.2-6.5c1-.3 1.8.7 2.4 2.4.6 1.8.5 3.1-.4 3.4-.9.3-1.8-.6-2.4-2.4-.6-1.9-.4-3.1.4-3.4zM55.9 27.3l1.1 6.4.9-.2-1.2-7.2-.8.1-1.5 1.1.4.7 1.1-.9zM62.9 33c1.6 0 2.5-1.3 2.5-3.8 0-2.3-1-3.6-2.5-3.6s-2.5 1.3-2.5 3.7c.1 2.5 1.1 3.7 2.5 3.7zm-1.5-3.3c0-1.8.5-3.1 1.4-3.1 1 0 1.5 1.3 1.5 3.1 0 1.9-.4 3.3-1.4 3.3-.9 0-1.5-1.4-1.5-3.3zM69.5 33.7l1.1-7.2-.8-.2-1.8.6.1.8 1.4-.5-1 6.4zM74.3 35.1c1.5.5 2.8-.5 3.6-2.9.7-2.2.3-3.8-1.1-4.3-1.4-.5-2.9.5-3.6 2.8-.8 2.3-.3 3.9 1.1 4.4zm-.2-4.1c.6-1.8 1.5-2.7 2.4-2.4 1 .3 1 1.6.5 3.3-.6 1.8-1.4 2.8-2.4 2.4-.9-.2-1.1-1.5-.5-3.3zM80.4 37.6l3.4-6.5-.8-.4h-1.8l-.2.8 1.5-.1-3 5.7zM89.1 34.4c-1.2-.9-2.9-.5-4.3 1.5s-1.4 3.6-.3 4.5c1.3 1 2.9.4 4.4-1.6 1.4-1.9 1.5-3.5.2-4.4zM88 38.2c-1.1 1.5-2.2 2.2-3 1.6-.7-.5-.5-1.8.6-3.3 1.1-1.5 2.3-2.1 3-1.5.9.6.5 1.8-.6 3.2zM89.5 44.7l5.2-5.2-.6-.6-1.7-.5-.4.6 1.4.5-4.6 4.5zM94.2 44.4c-2 1.4-2.5 3-1.7 4.2.9 1.3 2.6 1.3 4.6-.1 1.9-1.3 2.5-2.9 1.6-4.1-.8-1.3-2.5-1.4-4.5 0zm2.3 3.3c-1.5 1.1-2.8 1.4-3.4.5-.5-.7.1-1.9 1.7-3 1.5-1.1 2.8-1.2 3.3-.5.6.9-.1 1.9-1.6 3zM95.9 54.2l6.6-3.2-.4-.7-1.4-1.1-.6.5 1.2.8v.1l-5.8 2.8z"/></svg>