<svg xmlns:xlink="http://www.w3.org/1999/xlink"  xmlns="http://www.w3.org/2000/svg" viewBox="0 0 150 150"><linearGradient id="a" gradientUnits="userSpaceOnUse" x1="50.224" y1="27.491" x2="58.966" y2="119.535"><stop offset="0" stop-color="#ffb602"/><stop offset=".483" stop-color="#f67d4b"/><stop offset=".966" stop-color="#ab5153"/></linearGradient><path fill="url(#a)" d="M33 119.1c-.8 0-1.5-1.1-1.7-1.1h-3.9l-14.9 23.4 81.6-82v-.1L97 8.8 85.6 27H88c.2-1 .9-1.6 1.7-1.6 1 0 1.8.6 1.8 1.6s-.8 2-1.8 2c-.8 0-1.4-1-1.7-1h-3l-2.4 3h8.9c.2-1 .9-1.2 1.7-1.2 1 0 1.8.8 1.8 1.8s-.8 1.7-1.8 1.7c-.8 0-1.4-.3-1.7-1.3h-9.6l-2.4 4h6.8c.2-1 .9-1.3 1.7-1.3 1 0 1.8.7 1.8 1.7s-.8 1.8-1.8 1.8c-.8 0-1.4-1.2-1.7-1.2h-7.5l-1.9 3h3.9c.2-1 .9-1.3 1.7-1.3 1 0 1.8.8 1.8 1.8s-.8 1.8-1.8 1.8c-.8 0-1.5-1.3-1.7-1.3h-4.6l-1.9 4h10.3c.2-1 .9-1.7 1.7-1.7 1 0 1.8.6 1.8 1.5 0 1-.8 2.1-1.8 2.1-.8 0-1.4-.9-1.7-.9h-11l-1.9 2h7.5c.2 0 .9-1.2 1.7-1.2 1 0 1.8.9 1.8 1.8 0 1-.8 1.7-1.8 1.7-.8 0-1.5-.4-1.7-1.4H71l-2.6 4h16.9c.2 0 .9-1.1 1.7-1.1 1 0 1.8.9 1.8 1.9 0 1-.8 1.6-1.8 1.6-.8 0-1.4-.4-1.7-1.4H67.6l-1.9 3h14.1c.2 0 .9-1 1.7-1 1 0 1.8.9 1.8 1.9 0 1-.8 1.6-1.8 1.6-.8 0-1.5-.5-1.7-1.5H65l-.3.8-47.7-.5 2.6 2.8h64c.2 0 .9-.9 1.7-.9 1 0 1.8.9 1.8 1.9 0 1-.8 1.5-1.8 1.5-.8 0-1.4-.5-1.7-1.5h-63l2.7 4H78c.2-1 .9-1.4 1.7-1.4 1 0 1.8.7 1.8 1.7s-.8 1.9-1.8 1.9c-.8 0-1.5-.2-1.7-1.2H24l4.2 5h41.9c.2-1 .9-1.5 1.7-1.5 1 0 1.8.7 1.8 1.7s-.8 1.9-1.8 1.9c-.8 0-1.4-1.1-1.7-1.1h-41l3.6 4h33.6c.2-1 .9-1.4 1.7-1.4 1 0 1.8.7 1.8 1.7s-.8 1.8-1.8 1.8c-.8 0-1.4-1.2-1.7-1.2H33.7l2.7 3h19.4c.2-1 .9-1.3 1.7-1.3 1 0 1.8.8 1.8 1.8s-.8 1.8-1.8 1.8c-.8 0-1.5-1.2-1.7-1.2H37.3l3.3 3h17.6c.2-1 .9-.9 1.7-.9 1 0 1.8.9 1.8 1.9 0 1-.8 2-1.8 2-.8 0-1.4 0-1.7-1H41.5l3.2 3.6-.3.4h9.9c.2-1 .9-1.3 1.7-1.3 1 0 1.8.7 1.8 1.7s-.8 1.8-1.8 1.8c-.8 0-1.4-.2-1.7-1.2H43.7l-1.9 3h7.1c.2-1 .9-1.3 1.7-1.3 1 0 1.8.8 1.8 1.8s-.8 1.8-1.8 1.8c-.8 0-1.5-.3-1.7-1.3h-7.7l-3.7 6h4.2c.2-1 .9-1.3 1.7-1.3 1 0 1.8.7 1.8 1.7s-.8 1.8-1.8 1.8c-.8 0-1.4-1.2-1.7-1.2h-4.9l-2.6 3h3.7c.2 0 .9-.8 1.7-.8 1 0 1.8 1 1.8 2s-.8 1.9-1.8 1.9c-.8 0-1.4-.1-1.7-1.1h-4.3l-1.9 3h.8c.2 0 .9-1.2 1.7-1.2 1 0 1.8.8 1.8 1.8s-.8 1.7-1.8 1.7c-.8 0-1.5-.3-1.7-1.3H31l-2.8 5h3.2c.2-1 .9-1.5 1.7-1.5 1 0 1.8.8 1.8 1.8-.1 1-.9 1.8-1.9 1.8z"/><path fill="#255AA8" d="M65.6 97.4l35.2-30.1 24.1 2.4 15.2-9.5-30.6-.3-85.9 73.3L62.2 109l27 30.9 2.7-49.5v.2z"/><path fill="#4E6FB4" d="M100.8 67.3L65.6 97.4l26.3-6.8v-.2l33-20.7z"/></svg>