<svg xmlns:xlink="http://www.w3.org/1999/xlink"  version="1" xmlns="http://www.w3.org/2000/svg" viewBox="0 0 150 150"><path fill="#004E69" d="M121.2 73.1L40.6 24.3c-1.3-.8-3-.7-4.2.3-1.2.9-1.7 2.6-1.2 4l30.6 90.1c.5 1.5 1.9 2.5 3.5 2.5l1.1-.2c1.1-.4 1.9-1.2 2.3-2.3l8.4-26 21.1 27c2.7 3.5 7.7 4.1 11.2 1.4 3.5-2.7 4.1-7.7 1.4-11.2L94 83.4l25.8-3.5c1.5-.2 2.8-1.4 3.1-2.8.3-1.6-.4-3.2-1.7-4z"/><path fill="#007498" d="M142.7 25.3V8.9h-16.3v6.8H81v-2.6h-7.6v2.6H26.9V8.9H10.6v16.4h7v44.2h2.3V25.3h7V18h46.5v2.7H81V18h45.4v7.3h8.2v44.2h2.3V25.3zM130.3 69.8V81.5h4.3v44.2h-8.2v7H81v-2.2h-7.6v2.2H26.9v-7h-7V81.5h5.5V69.8H13.6V81.5h4v44.2h-7V142h16.3v-7h46.5v3H81v-3h45.4v7h16.3v-16.3h-5.8V81.5h5.2V69.8h-1.7z"/></svg>