<svg xmlns:xlink="http://www.w3.org/1999/xlink"  xmlns="http://www.w3.org/2000/svg" width="100" height="100" viewBox="0 0 100 100"><path fill="#6D6E70" d="M85.169 72.928c-7.781-7.912-7.843-14.897-.188-22.79.205-.177.41-.354.604-.548 4.03-4.027 4.03-10.56 0-14.586-4.025-4.032-10.562-4.032-14.591 0-4.029 4.026-4.026 10.559 0 14.586.197.194.399.371.606.548 7.651 7.892 7.591 14.875-.19 22.785-.137.126-.28.242-.416.376-.196.199-.375.404-.555.617-7.895 7.644-14.873 7.576-22.786-.207-.124-.14-.235-.277-.368-.41-4.028-4.024-10.56-4.03-14.589 0-4.028 4.028-4.028 10.563 0 14.591 4.029 4.03 10.561 4.03 14.589 0 .139-.136.258-.279.382-.421 7.903-7.765 14.874-7.832 22.758-.211.184.216.366.433.568.632 4.029 4.03 10.565 4.03 14.591 0 4.03-4.028 4.03-10.563 0-14.591-.132-.131-.275-.25-.415-.371z"/><path fill="#F05A28" d="M47.285 49.59c4.029-4.027 4.029-10.56 0-14.586-4.028-4.032-10.56-4.032-14.589 0-4.028 4.026-4.028 10.559 0 14.586 4.03 4.03 10.561 4.03 14.589 0z"/><path fill="#6D6E70" d="M51.273 68.112c.183.216.37.429.572.631 4.029 4.028 10.56 4.028 14.589 0 4.029-4.03 4.029-10.564 0-14.592-.135-.136-.276-.25-.418-.377-7.776-7.912-7.837-14.891-.188-22.785.205-.175.41-.352.606-.549 4.029-4.023 4.029-10.559 0-14.588-4.029-4.027-10.56-4.027-14.589.002s-4.029 10.563 0 14.586c.191.197.396.374.602.549 7.654 7.895 7.593 14.874-.188 22.785-.139.127-.282.241-.413.377-.196.196-.379.404-.557.614-7.894 7.646-14.875 7.581-22.787-.207-.121-.139-.237-.277-.364-.407-4.031-4.029-10.563-4.029-14.592 0-4.029 4.027-4.029 10.562 0 14.592 4.029 4.028 10.562 4.028 14.592 0 .135-.14.253-.28.382-.424 7.898-7.762 14.873-7.828 22.753-.207z"/></svg>