<svg xmlns:xlink="http://www.w3.org/1999/xlink"  version="1" xmlns="http://www.w3.org/2000/svg" viewBox="0 0 150 150"><g fill="#8BC542"><path d="M126.2 79.4c-.9-1.1-2.6-1.3-3.7-.4l-5 4-9.4-2.8 11.1-8c1.2-.9 1.5-2.5.6-3.7-.9-1.2-2.5-1.5-3.7-.6L97 81.6l-.9-9.6 6-4.3c1.2-.9 1.5-2.5.6-3.7-.9-1.2-2.5-1.5-3.7-.6l-7.3 5.2c-.8.6-1.2 1.5-1.1 2.4L92 85.2l-2.3 1.6-.1-2.9c0-1.5-1.3-2.6-2.7-2.6-1.5 0-2.6 1.3-2.6 2.7l.2 6.4-1.7 1.2-1 .7c-.1.1-.2.1-.2.2l-4.9 3.7.1-8.5c.1-.2.1-.4.1-.6l.3-21.7 8.9-6.7s-.1 0-.1-.1l9.7-7 14.6 4.3c.2.1.5.1.7.1.6 0 1.2-.2 1.7-.6l6.1-4.9c1.1-.9 1.3-2.6.4-3.7s-2.6-1.3-3.7-.4l-5 4-9.4-2.8 11.1-8c1.2-.9 1.5-2.5.6-3.7-.9-1.2-2.5-1.5-3.7-.6l-18.9 14-.9-9.6 6-4.3c1.2-.9 1.5-2.5.6-3.7-.9-1.2-2.5-1.5-3.7-.6L85 36.3c-.8.6-1.2 1.5-1.1 2.4l1.4 14.1-7.9 5.7.1-7c.1-.2.1-.5.1-.7L78 29l12.2-9.2c.2-.1.4-.3.5-.5.4-.5.6-1.1.5-1.7L91 9.8c0-1.5-1.3-2.6-2.7-2.6-1.5 0-2.6 1.3-2.6 2.7l.2 6.4-7.8 5.9.2-13.7c0-1.5-1.2-2.7-2.6-2.7-1.5 0-2.7 1.1-2.7 2.6L72.6 32l-8.2-4.9.1-7.4c0-1.5-1.2-2.7-2.6-2.7-1.5 0-2.7 1.1-2.7 2.6l-.1 9c0 1 .5 1.8 1.3 2.3l12.2 7.3-.1 6.2c-.1.2-.1.5-.1.7L72 68.5 63.7 63l.1-6.9c0-.6-.2-1.2-.6-1.7l.4-6.3c.1-1-.4-1.9-1.2-2.4l-7.5-5c-1.2-.8-2.9-.5-3.7.7-.8 1.2-.5 2.9.7 3.7l6.2 4.1-.5 9.8-19.5-13c-1.2-.8-2.9-.5-3.7.7-.8 1.2-.5 2.9.7 3.7L46.6 58l-9.3 3.1-5.2-3.8c-1.2-.9-2.8-.6-3.7.6-.9 1.2-.6 2.8.6 3.7l6.3 4.6c.5.4 1.1.6 1.7.5.2 0 .5-.1.7-.1l14.5-4.9 6.4 4.2c.2.6.6 1.1 1.1 1.4l10.1 6.1.5.3c.1 0 .1.1.2.1l1.4.8-.1 7.2c-.1.2-.1.5-.1.7l-.3 22.9-8.2-5.5.1-6.3c0-.4-.1-.9-.3-1.2l.4-7c.1-.9-.4-1.8-1.2-2.4l-7.5-5c-1.2-.8-2.9-.5-3.7.7-.8 1.2-.5 2.9.7 3.7l6.2 4.1-.6 9.6-19.6-13c-1.2-.8-2.9-.5-3.7.7-.8 1.2-.5 2.9.7 3.7l11.4 7.6-9.1 3.2-5.2-3.8c-1.2-.9-2.8-.6-3.7.6-.9 1.2-.6 2.8.6 3.7l6.3 4.6c.5.4 1.1.6 1.7.5.2 0 .5-.1.7-.1l14.5-4.9 5.9 3.9c.1.8.5 1.6 1.3 2l12.2 7.3-.1 9.5H39a2.732 2.732 0 0 0-2.7 2.7v17.1a2.732 2.732 0 0 0 2.7 2.7h9.8c1.5 0 2.7-1.2 2.7-2.7 0-1.5-1.2-2.7-2.7-2.7h-7.2V127h30.7c.4.2.8.4 1.3.4.9 0 1.7-.4 2.1-1 .2-.3.3-.6.4-.9.2-.3.2-.7.2-1.1 0-.2 0-.5-.1-.7l.3-20.6 9.4-7.1 16.5-11.9 14.6 4.3c.2.1.5.1.7.1.6 0 1.2-.2 1.7-.6l6.1-4.9c1.4-.8 1.6-2.5.7-3.6z"/><path d="M103.1 122.6H80.7c-1.5 0-2.7 1.2-2.7 2.7 0 1.5 1.2 2.7 2.7 2.7h19.8v11.7h-43c-1.5 0-2.7 1.2-2.7 2.7 0 1.5 1.2 2.7 2.7 2.7h45.6a2.732 2.732 0 0 0 2.7-2.7v-17.1a2.732 2.732 0 0 0-2.7-2.7z"/></g></svg>