<svg xmlns:xlink="http://www.w3.org/1999/xlink"  version="1" xmlns="http://www.w3.org/2000/svg" viewBox="0 0 150 150"><path fill-rule="evenodd" clip-rule="evenodd" fill="#214254" d="M67.6 140.5l-.9-12-1.6-.3c-3.3-.6-6.6-1.4-9.8-2.6l-1.6-.6-6.8 9.9-11.8-6.8 5.2-10.8-1.3-1.1c-2.6-2.1-5-4.5-7.1-7.1l-1.1-1.3L20 113l-6.8-11.8 9.9-6.8-.6-1.6c-1.2-3.1-2-6.4-2.6-9.8l-.3-1.6-12-.9V67l12-.9.3-1.6c.6-3.3 1.5-6.6 2.6-9.8l.6-1.6-9.9-6.8L20 34.5l10.8 5.2 1.1-1.3c2.2-2.6 4.6-5 7.1-7.1l1.3-1.1-5.2-10.9 11.8-6.8 6.8 9.9 1.6-.6c3.2-1.2 6.5-2 9.8-2.6l1.6-.3.9-12h13.6l.9 12 1.6.3c3.3.6 6.6 1.4 9.8 2.6l1.6.6 6.8-9.9 11.8 6.8-5.2 10.9 1.3 1.1c2.5 2.1 4.9 4.5 7.1 7.1l1.1 1.3 10.8-5.2 6.8 11.8-9.9 6.8.6 1.6c1.2 3.2 2.1 6.5 2.6 9.8l.3 1.6 12 .9v13.6l-12 .9-.3 1.6c-.6 3.3-1.4 6.6-2.6 9.8l-.6 1.6 9.9 6.8-6.8 11.8-10.8-5.2-1.1 1.3c-2.2 2.6-4.6 5-7.1 7.1l-1.3 1.1 5.2 10.8-11.8 6.8-6.8-9.9-1.6.6c-3.1 1.2-6.4 2-9.8 2.6l-1.6.3-.9 12H67.6zm6.8-116.3c-27.4 0-49.6 22.3-49.6 49.6s22.3 49.6 49.6 49.6c27.4 0 49.6-22.3 49.6-49.6s-22.2-49.6-49.6-49.6z"/><path fill="#383838" d="M36.3 64.2c-1.5 1.2-1.9 5.2 0 5.5 1.2 0 1.8-1.6 1.9-2.5v-.3c.3-2.1-.7-3.6-1.9-2.7zM53.1 114.3c.8.4 1.6.8 2.5 1.2-.9-.7-1.8-1.2-2.5-1.2zM100 38.3c.3-.4-.7-1.5-1.5-2.1-1.4-1.1-3-1.7-3-1.2-.1.8 3.6 3.9 4.5 3.3zM59.8 34c-1 1.1-1.4 3-.3 2.9.8-.2 1.3-1.2 1.4-1.7.1-.3.1-.7.1-1 0-.7-.4-1.1-1.2-.2z"/><path fill="#29ABE2" d="M110.5 101.6c-.1.1-.2.1-.3.2.2-.4.4-.7.6-1.1.3-.2.6-.3.8-.5-.2.4-.4.8-.6 1.1 3.9-5.1 6.7-11.1 8.1-17.6.1-.5.2-.9.3-1.4.5-2.7.8-5.5.8-8.3 0-21.6-15-39.6-35.1-44.3.2.1.4.1.6.2l-.2.2c-.7-.3-1.5-.5-2.2-.8-1.9-.4-3.9-.6-6-.7 2.3.6 4.5 1.5 6.7 2.5-.1.1-.2.1-.3.2-1.9-.9-3.8-1.7-5.7-2.3 0 0-.1.1-.2.1-.4-.1-.8-.3-1.2-.4.1 0 .1-.1.2-.1-.7 0-1.4-.1-2.2-.1-10.1 0-19.4 3.3-26.9 8.9-.2.2-.5.4-.7.6h-.1c-7.8 5.8-13.5 14-16.3 23.5.1 0 .2-.1.4-.1 1 .2 1.1 2.8.6 5-.6 2.6-1.7 4.2-2.6 3.3 0 .4 0 .8-.1 1.2L38 81.8c.2-.1.5-.2.8-.2.5 0 1 .2 1.5.5l4-11.3c-2.7-1.9-1.4-7.6 1.8-8.1 2-.2 3.2 2.1 3 4.4-.1.9-.3 1.7-.7 2.3l10.3 11.3c.2-.1.5-.2.8-.3.7-.1 1.4 0 2 .2l4.7-11.8c-.4-.1-.7-.2-1-.4-2.9-1.6-2.8-6.9 1-7.9h.1l-2.8-9c-.3-.1-.5-.1-.8-.3-2.5-1.4-1.8-6 1-6.8 1.6-.4 2.9 1 3.3 2.6l3.9-1c-.2-1.5.3-2.9 1.7-3.4.6-.2 1.1-.1 1.7.1l4.1-10.2c-2.1-.8-4.6-2.6-4.1-3 .5-.3 2.6.2 4.4 1.1 1.2.6 1.6 1.1 1.8 1.3.4.5.3.8-.2.9l6.2 5.7c1.3-.6 3.6.7 4.9 2.2.3.3.5.7.7 1 1 1.9 0 3.2-2 2.6-2.3-.7-4.4-3.5-4.2-5.1l-6.4-5.9-4 10c.7.5 1.3 1.3 1.5 2 .4 1 .3 1.9-.1 2.6l10 8c.2-.2.5-.3.8-.5 2.2-.8 4.4 1 5.2 3.1 1.1 3.2-1.4 5.9-4.3 4.7-2.4-1-3.5-4.2-2.4-6.3l-10-8 .1-.2c-.8.7-2 .9-3.2.3-.9-.4-1.5-1.2-1.9-2L67 48c0 1.6-1 2.9-2.2 3.3l2.8 9.1c1.7.3 3 1.8 3.2 3.7.1.6 0 1.1-.1 1.6l11.8 11.1c.5-.4 1-.8 1.7-1 2.6-.7 5 .9 5.3 3.6.2 1.3-.2 2.4-.9 3.3L96 92c.5 0 .9 0 1.2.2l7.3-15c-1.7-2-1.9-6.4.7-7.9 1.7-.8 3.5.7 3.9 3.4.5 3.2-1.3 6-3.4 5.3-.1 0-.2-.1-.2-.1l-7.3 15c.4.6.7 1.3.6 2.3-.1 1-.5 2-1.2 2.8l7.1 6.2c.4-.5.9-.8 1.4-1.1.1 0 .2-.1.4-.2h.2l3.8-9.5c-1.2-1.1-.3-6.1 2-7.8 1.3-.8 2.1.7 1.6 3.2-.5 2.4-1.9 4.6-3 4.8l-3.9 9.9c0 .5-.3 1.2-.8 2-1.2 1.9-3.3 3.9-4 3.6-.7-.3.3-2.5 1.7-4.2L97 98.6c-.1.1-.3.2-.4.3l.6 7.6c.3-.2.6-.3.8-.5.1 0 .1 0 .2-.1 1.4-.5 2.4.4 1.5 2.3-.9 1.9-3.3 3.8-4.5 3.3-1.2-.5-.5-2.8 1.2-4.4l-.6-7.7c-.8.3-1.6.4-2.4.1-2.5-1.1-2-5.5 1.3-7.1l-6.9-8.6c-1.1.9-2.6 1.2-4 .7L74.6 98c1 .6 1.7 1.5 1.8 2.6.4 3.1-3.4 5-6.2 3.2-2.4-1.5-2.5-4.8.2-6.1l-7.9-9c-1.1.6-2.6.6-3.9-.3-2.4-1.6-2.8-5.2-1-7.1l-10-11c-.6.6-1.3.9-2 .8l-4.2 11.8c.7.9 1.1 2 1.3 3.3v.2l14.7 13c.3-.2.6-.3 1-.4 2.5-.3 4.7 1.5 5.1 3.4 0 .1 0 .2.1.2.5 2.9-2.6 4.3-5.4 2.4-1.9-1.3-2.7-3.5-1.8-4.9L42.7 88.3c-.4 2-2.1 2.9-3.8 1.5-2-1.7-2.7-5.4-1.5-7.2L29 72.5c0 .5-.1 1-.1 1.5 0 9.3 2.8 18 7.6 25.2.1 0 .3.1.4.1l.9 1.8c3.7 5 8.5 9.3 13.9 12.4.1 0 .2-.1.3-.1 1.5 0 3.7 1.3 5 2.6l.2.2c5.3 2.2 11.1 3.4 17.3 3.4 14.2 0 27-6.5 35.3-16.8.2-.4.5-.8.7-1.2zM39.1 67.3c-.5 3-2.5 4.8-3.9 3.4-2.1-2-.6-7.9 2-8.1 1.7 0 2.3 2.4 1.9 4.7zm1.6-17.7c-1.2 2.4-2.9 3.8-3.7 3.1-1.3-1.2 2.1-7.1 4.2-7.2 1 .1.5 2.1-.5 4.1zm3 3.6h-.8c.7-2.1 1.5-4.1 2.4-6h-.5l.6-1.2h1.1c-1 2.3-2 4.7-2.8 7.2zm5.8-.2h-.9c.5-2.1 1-4 1.6-6h-.5c.1-.4.3-.8.4-1.2.4 0 .9 0 1.3-.1-.7 2.5-1.4 4.9-1.9 7.3zm.1-14.7c-.8-.7 3.3-4.9 5.2-5.3h.1c.7 0-1.6 2.7-1.6 2.7-1.9 2.1-3.3 2.9-3.7 2.6zm6.1 32c-.1-2.3-.2-4.6-.3-6.8-.3 0-.6.1-.8.1v-1.4c.7-.1 1.3-.1 2-.2 0 2.7.2 5.4.4 8.2-.4 0-.9.1-1.3.1zm-.5-23.5c.1-.4.1-.8.2-1.1.5 0 .9-.1 1.4-.1-.4 2.2-.6 4.6-.8 7-.3 0-.7.1-1 .1.2-2 .5-4 .8-5.9-.2-.1-.4-.1-.6 0zm-.6-8.6H54c.9-1.6 1.8-3 2.8-4.3h-.3c.2-.3.4-.5.6-.8h.6c-1.1 1.5-2.2 3.2-3.1 5.1zm6.8-3.1c-.4 2-1.9 3.1-2.8 2.6-1.4-.8.5-4.6 2.1-5.1.9 0 1 1.5.7 2.5zm3.2 1.9c-.1-1.4-.2-2.8-.3-4-.1 0-.2 0-.3.1v-.7c.2 0 .5-.1.7-.1.1 1.4.3 2.9.5 4.6-.2 0-.4 0-.6.1zm4.8-1.3c-1.8-.8-2.5-3.8-1.4-4.3.8-.3 2.3.8 3 1.8l.3.6c.7 1.6-.6 2.5-1.9 1.9zm6.9-1.5c-.2.1-.4.1-.6.2-1.1-1.2-2.3-2.3-3.5-3.2-.1 0-.2.1-.3.1-.2-.2-.5-.4-.7-.6.2-.1.4-.1.6-.2 1.6 1 3 2.2 4.5 3.7zm7.5 12.7c-1-1.8-2-3.5-3-5.1-.2.1-.4.1-.6.2-.2-.3-.4-.7-.6-1 .5-.1.9-.3 1.4-.4 1.3 1.9 2.6 3.9 3.8 6.1-.4 0-.7.1-1 .2zM80.4 66c-.5.1-.9.2-1.4.3-.5-2.2-1.1-4.5-1.6-6.6-.3.1-.6.1-.9.2-.1-.4-.2-.9-.3-1.3.7-.2 1.5-.3 2.2-.5.6 2.6 1.4 5.2 2 7.9zm18.3-30c2.1 1.6 2.9 3.1 2.2 3.3-1.4.5-7.1-4-6.6-5.1.4-.5 2.6.4 4.4 1.8zm-6.4 1.3c-.1.1-.2.1-.3.2-.3-.3-.7-.6-1-.8.3-.1.5-.3.8-.4 2.1 1.6 4 3.3 5.9 5.2-.2.1-.4.2-.5.3-1.6-1.7-3.2-3.2-4.9-4.5zm5 44.1c-.2-1-.3-2.1-.5-3.1-.2-1.3-.5-2.6-.8-3.9l-.9.3c-.1-.5-.2-1-.3-1.4.7-.2 1.4-.4 2.1-.7.4 1.8.8 3.6 1.1 5.4.2 1 .4 2.1.5 3.1-.4 0-.8.1-1.2.3zm2.6-21.6c-3.2-.9-4.9-6.2-2.4-7.7 1.5-.7 3.7.6 4.8 2.9 1.2 2.9 0 5.5-2.4 4.8zm5.2 36.3c-.3.1-.6.2-1 .4.3-1.9.5-4 .5-6.1-.2.1-.5.2-.7.3v-1.3c.6-.2 1.2-.4 1.7-.7.1 2.6-.1 5.1-.5 7.4zm11.6-33.5c.6-.8 1.5.9 2 3.5.5 2.7.3 5.2-.4 5.3-1 .2-2.7-6.9-1.6-8.8zm.7 21.4l-.3.3c0-.5.1-.9.1-1.4.3-.2.5-.4.7-.6-.3 2.7-.7 5.3-1.4 7.8-.1.1-.3.2-.4.3.6-2.1 1-4.2 1.3-6.4zM108 56.5c-1-2.1-2.1-4.1-3.4-6-.2.1-.3.2-.5.2-.3-.4-.5-.8-.8-1.2.4-.2.7-.4 1.1-.6 1.5 2.3 2.9 4.7 4.2 7.1-.1.2-.4.4-.6.5zm0-10.2c.5-.7 2.1.6 3.5 2.7 1.3 2.1 1.8 4.2 1.1 4.5-1.5.6-5.5-5.7-4.6-7.2zm6 28.2c-.1-1-.3-2.1-.5-3.1-.2-1.3-.5-2.6-.8-3.9-.2.1-.3.2-.5.3-.1-.5-.2-.9-.4-1.4.4-.2.8-.4 1.1-.7.5 1.7.9 3.5 1.2 5.3.2 1.1.4 2.1.5 3.1-.1.2-.3.3-.6.4zM49.7 90.1c-.2-1-.4-2-.6-3.1-.2-1.3-.4-2.6-.6-4h-.8c-.1-.5-.1-1-.2-1.5.7 0 1.4-.1 2.1-.1.2 1.8.5 3.6.8 5.4.2 1 .4 2.1.6 3.1-.5.2-.9.2-1.3.2zm-16.9-.6c-.2-1-.5-2-.7-3.1-.2-1.3-.4-2.6-.6-4-.2 0-.3-.1-.5-.1-.1-.5-.1-1-.1-1.5.4.1.8.2 1.2.2.1 1.8.4 3.6.7 5.4.2 1.1.4 2.1.7 3.1-.2.1-.4 0-.7 0zm12.3 17c-1.1-1.7-2.1-3.5-3-5.5h-.6l-.6-1.2c.5 0 1 .1 1.5.1 1 2.4 2.2 4.6 3.5 6.7-.2 0-.5 0-.8-.1zm6.2.2c-1-1.7-1.8-3.5-2.6-5.5H48c-.2-.4-.3-.8-.5-1.2h1.8c.9 2.4 1.9 4.6 3.1 6.7-.4-.1-.7-.1-1.1 0zm9.5 9.7c-1.8-1.3-1.9-2.8-.1-3.1 1.7-.2 3.9.9 4.8 2.3.2.3.3.6.4.9.2 1.7-3 1.4-5.1-.1zm11 .5c-.7-1.1-1.3-2.2-1.9-3.6-.3 0-.5.1-.7.1-.1-.3-.3-.5-.4-.8.6-.1 1.2-.2 1.8-.2.7 1.7 1.5 3.1 2.2 4.4-.4 0-.7 0-1 .1zm6-1.7c-1.9-1.1-1.5-3.6 1.3-4.4 2-.5 3.8.5 3.8 2.1.1 1.9-2.9 3.6-5.1 2.3zm6.2-12.9c-.2-1.8-.4-3.7-.7-5.7-.3.1-.7.2-1 .2-.1-.4-.1-.8-.2-1.2.8-.2 1.6-.4 2.4-.5.3 2.5.6 4.8.8 7-.4 0-.8.1-1.3.2zm5.4 11.1c-.3.1-.6.2-.9.2.2-1.2.4-2.6.5-4-.3.1-.5.1-.8.2v-.9c.6-.2 1.3-.3 1.9-.5-.2 1.9-.4 3.6-.7 5z"/><path fill="#383838" d="M78.1 112.5c-.8 1.1.2 2.6 2 2.4 1.4-.3 1.7-1.3 1.7-1.8v-.2c-.1-1.5-2.6-1.8-3.7-.4zM41.6 86.4c-.3-2.3-2.1-4.1-3.2-3-1.4 1.3-.4 5.4 1.8 5.6 1.3 0 1.5-1.7 1.4-2.6zM60.7 105.1c2-.3 1.5-2.2 1.5-2.3-.5-2.2-3.3-3.1-4.4-1.9-1.2 1.4.4 4.3 2.9 4.2zM97.6 53.9c-.9 1.7 1.1 5.2 3.2 4.5 1.2-.6.9-2.2.6-3-1-2.2-3.1-2.8-3.8-1.5zM110.7 48.6c-1-1.3-1.9-1.8-2-1-.2 1.2 2.3 5.2 3.2 4.5.4-.5-.3-2-.8-2.8 0-.1-.2-.4-.4-.7zM118.4 69.8c.4-.6.2-2.4.1-3.3-.2-1.1-.5-2-.8-2.4-.3-.4-.6-.1-.7.7-.2 2 .7 5.6 1.4 5zM60.7 114.3c-.8.8 1.2 2.8 3.2 2.7 1.4-.1.6-1.3.6-1.4-.9-1.3-3.1-1.9-3.8-1.3zM40.1 46.8c-1.5.8-3.4 4.4-2.2 4.8 1 .1 2.1-2 2.2-2.1.3-.5.5-1 .6-1.4.3-1.2.1-1.7-.6-1.3zM52.8 34.5c-1.6 1.2-2.8 2.8-2.2 2.9.7 0 1.9-1.4 2.2-1.6.7-.8 1.2-1.6 1.2-1.8.1-.4-.6 0-1.2.5zM68.2 32.2c-.5.7.4 3 2 2.8.8-.3.6-1.2.3-1.6-.7-1.1-1.9-1.7-2.3-1.2zM48 67.1v-.3c.1-2.3-1.6-3.5-3-2.2-1.7 1.6-1.5 5.2.8 5.2 1.5-.1 2.1-1.8 2.2-2.7zM74.7 48.1c1.5-.4 1.4-1.8 1.2-2.5-.6-1.9-2.8-2.7-3.7-1.4-.9 1.4.2 4.4 2.5 3.9zM65.9 47.5c-.2-1.8-2-2.8-3.2-1.3-1.2 1.6-.6 4.3 1.5 4 1.3-.3 1.7-1.7 1.7-2.5.1 0 .1-.1 0-.2zM107 76.5c1.3-.6 1.4-2.5 1.3-3.4 0-.1-.1-.4-.2-.7-.7-2.2-2.4-2.3-3.2-.9-1.1 2.1.1 5.7 2.1 5zM111.8 92.2c1-.6 1.5-2.2 1.7-3 .2-1.1 0-1.7 0-1.9-.4-1-1.5-.3-2.2 1.4-.8 1.9-.6 4 .5 3.5zM90.4 62.1c1.6-.6 1.5-2.3 1.3-3.1-.8-2.4-3.3-3-4.3-1.5-1.2 1.9.5 5.2 3 4.6zM90.8 43.3c1-.5.3-1.7-.2-2.3-1.2-1.4-3.2-2.1-3.6-1.3-.4 1 2 4.2 3.8 3.6zM103.6 108c.8-.4 1.8-1.6 2.2-2.3.4-.7.6-1.3.5-1.6-.2-.5-1 0-1.8.9l-.1.1c-.5.5-.9 1.2-1.2 1.9 0 .3-.4 1.3.4 1zM79.4 32.1c.5-.2-.2-.9-1.1-1.4-1.2-.7-2.9-1.1-3-.8-.2.4 1.9 1.8 3.3 2.1v-.1l.3.1c.2.2.4.2.5.1zM96.6 110.7c1.2-.4 2-1.6 2.2-2.1.3-.6.3-1 .2-1.2-.3-1.1-2.3-.2-3.2 1.5-.5 1-.4 2.1.8 1.8zM58.4 82.7c-1.4 1.9-.1 5.3 2.6 5.1 1.8-.3 2.2-2.1 2.1-3-.3-2.6-3.2-3.9-4.7-2.1zM70.2 99.7c-1 1.4.1 4.1 2.8 3.7 1.8-.4 2.1-1.8 2-2.5-.3-2.2-3.5-3.1-4.8-1.2zM85.9 83.2c1.9-.6 2.3-2.4 2.2-3.3v-.3c-.4-2.4-3.5-3.4-5-.9-1.3 1.8-.1 5.1 2.8 4.5z"/><path fill="#F15B27" d="M64.5 84.6c.2 1.4-.3 2.6-1.1 3.5l8.3 9.4c.5-.1.9 0 1.4.1l9.4-13.7c-1.7-1.4-2-4.1-.8-6l-11.5-11c-.6 1-1.6 1.7-2.7 1.9l-4.9 12.4c1 .8 1.8 2 1.9 3.4zm8.4-6.1c.3 1.8.6 3.6 1 5.4.2 1.1.4 2.1.6 3.1l-1.5.3c-.2-1-.4-2.1-.6-3.1-.2-1.3-.5-2.6-.7-4-.3.1-.7.1-1 .2l-.3-1.5c.9-.1 1.7-.2 2.5-.4z"/><path fill="#383838" d="M95.4 98.4c1.6-.5 2.2-2.1 2.2-2.9v-.9c-.5-1.9-2.8-1.8-4 .2-1.1 1.9-.3 4.1 1.8 3.6zM29.6 68.5c.7.2 1.3-1.4 1.5-2.2.5-2 .1-3.7-.6-3.4-.1 0-.1.1-.2.2-.4 1.7-.8 3.4-1 5.2.1 0 .1.2.3.2zM69.4 64.4c-.1-1.5-1.2-2.5-2.3-2.6l-.4.1v-.2c-.6.1-1.1.3-1.6.9-1.5 1.9-.4 5 2.2 4.7 1.9-.3 2.2-2 2.1-2.9z"/></svg>