<svg xmlns:xlink="http://www.w3.org/1999/xlink"  version="1" xmlns="http://www.w3.org/2000/svg" viewBox="0 0 150 150"><path fill="#263C47" d="M125.5 34.8c-1.5-1.9-3-3.6-4.7-5.3-1.9-1.9-3.9-3.7-6-5.3C89.6 4.4 53.1 6.1 30 29.3 5.7 53.6 5 92.6 28.1 117.7l.1-.1c.7.8 1.4 1.5 2.2 2.3.8.8 1.5 1.5 2.3 2.2 25.1 23.1 64.1 22.4 88.4-1.9 23.3-23.3 24.8-60.3 4.4-85.4zm-76.7 92c7.2-.1 15.4-2.2 23.8-6.2 2.3 4.3 4 8.4 5.2 12.4-9.9.5-20-1.6-29-6.2zm16.9-25.7c2.9-4.5 2.4-10.5-1.5-14.4-3.9-3.9-9.9-4.4-14.3-1.6-4.4-3.6-8.8-6.8-13.3-9.5 3.8-6.9 9-13.9 15.4-20.6l8.1 8.1c-.5 2 0 4.1 1.5 5.6 2.3 2.3 6.1 2.3 8.4 0 2.3-2.3 2.3-6.1 0-8.4-1.7-1.7-4.1-2.1-6.3-1.3l-7.8-7.8c6.6-6.3 13.5-11.4 20.4-15.3 2.7 4.5 6 9.1 9.6 13.5-2.5 4.4-1.9 10.1 1.9 13.8 3.8 3.7 9.5 4.4 13.9 1.8 4.2 3.4 8.5 6.5 12.8 9.1-3.8 6.8-9 13.8-15.3 20.4l-7.8-7.8c.8-2.1.3-4.6-1.3-6.3-2.3-2.3-6.1-2.3-8.4 0-2.3 2.3-2.3 6.1 0 8.4 1.5 1.5 3.7 2 5.6 1.5l8 8.1c-6.6 6.3-13.7 11.5-20.5 15.4-2.7-4.3-5.7-8.6-9.1-12.7zm-5.2-1.8a6.4 6.4 0 0 1-8.9 0c-2.4-2.4-2.4-6.4 0-8.8 2.4-2.4 6.4-2.4 8.8 0 2.5 2.4 2.5 6.3.1 8.8zm42-76.5c-7.3 0-15.7 2.2-24.2 6.3-2.3-4.3-4-8.5-5.2-12.6 10-.6 20.2 1.5 29.4 6.3zm-28.8 8.6c-7.3 4-14.7 9.5-21.6 16.1L36.3 31.7c9.1-8.3 20.1-13.2 31.6-14.8 1.2 4.7 3.2 9.6 5.8 14.5zm-41.2 4.2l15.7 15.7c-6.7 7-12.1 14.4-16.2 21.8-4.9-2.5-9.7-4.5-14.3-5.8 1.5-11.5 6.4-22.6 14.8-31.7zM17.2 72.5c4 1.2 8.2 2.9 12.4 5.2-4 8.4-6.1 16.6-6.2 23.8-4.5-9-6.6-19-6.2-29zm46.3-10.2c1.3-1.3 3.3-1.3 4.6 0 1.3 1.3 1.3 3.3 0 4.5-1.3 1.3-3.3 1.3-4.6 0-1.3-1.2-1.3-3.2 0-4.5zm27.9-11.6a6.1 6.1 0 0 1 8.8 0c2.4 2.4 2.4 6.4 0 8.8-2.4 2.4-6.4 2.4-8.8 0-2.4-2.4-2.4-6.4 0-8.8zm27.1 63.2l-15.7-15.7c6.6-6.9 12-14.3 16.1-21.6 4.9 2.6 9.8 4.5 14.4 5.8-1.5 11.4-6.5 22.5-14.8 31.5zm15.3-36.6c-4-1.2-8.2-2.9-12.5-5.2 4.1-8.6 6.2-16.9 6.3-24.2 4.6 9.1 6.7 19.3 6.2 29.4zm-50.4 9.6c-1.3-1.3-1.3-3.3 0-4.6 1.3-1.3 3.3-1.3 4.6 0 1.3 1.3 1.3 3.3 0 4.6-1.3 1.2-3.3 1.2-4.6 0zm-6.2 31.4c7.4-4.1 14.8-9.5 21.8-16.2l15.7 15.7c-9.1 8.3-20.2 13.2-31.7 14.8-1.3-4.7-3.2-9.5-5.8-14.3zm42-82.6l-.1.1c5.4 7.7 4.2 20.2-2.3 33.7-3.8-2.3-7.6-5-11.3-8.1 2.9-4.5 2.4-10.5-1.5-14.4-3.9-3.9-10-4.4-14.4-1.5-3.3-3.9-6.2-8-8.6-12 13.5-6.5 26-7.7 33.7-2.3l.1-.1c.8.7 1.5 1.4 2.3 2.2.6.8 1.4 1.5 2.1 2.4zm-87.3 78.2c.1-.1.1-.1 0 0-5.3-7.7-4.1-20.1 2.2-33.6 4 2.5 8.1 5.4 12 8.7-2.6 4.4-2 10.2 1.8 14 3.8 3.7 9.5 4.3 13.9 1.8 3.1 3.8 5.8 7.6 8.2 11.4-13.4 6.4-25.9 7.5-33.5 2.2-.8-.7-1.6-1.5-2.3-2.2l-2.3-2.3z"/></svg>