<svg xmlns:xlink="http://www.w3.org/1999/xlink"  version="1" xmlns="http://www.w3.org/2000/svg" viewBox="0 0 150 150"><path fill="#00B4EC" d="M73.5 27.1c-19.4 0-35.3 15.3-36.1 34.5 3.1 0 1.8-.1 3.1 0 .9-5.2 6.4-9.7 14.3-12.5.6 2.5 1.2 6 1.4 8.8-1 .6-1.6 1.6-1.6 2.9 0 1.9 1.5 3.4 3.3 3.4 1.8 0 3.3-1.5 3.3-3.4 0-1.4-.8-2.6-2.1-3.1-.3-3-.9-6.8-1.6-9.4 4.3-1.2 9.2-2 14.3-2.1v6.4c-1 .6-1.6 1.6-1.6 2.9 0 1.8 1.5 3.3 3.3 3.3 1.8 0 3.3-1.5 3.3-3.3 0-1.4-.8-2.5-2-3v-6.2c5.1.1 10 .8 14.2 2-.8 3-1.3 6.2-1.6 9.6-1.1.6-1.8 1.7-1.8 3 0 1.8 1.5 3.3 3.3 3.3 1.8 0 3.3-1.5 3.3-3.3 0-1.3-.8-2.4-1.9-3 .2-3.1.7-6 1.4-8.7 8 2.8 13.4 7.3 14.4 12.5h3.1c-.5-19.3-16.3-34.6-35.7-34.6zM41.8 53.6c1.7-5.7 4.9-10.7 9.1-14.6 1.2 2.2 2.2 4.6 3.1 7.4-5.1 1.7-9.3 4.2-12.2 7.2zm16.1 5.3c1 0 1.8.8 1.8 1.8s-.8 1.8-1.8 1.8-1.8-.8-1.8-1.8c0-.9.8-1.8 1.8-1.8zm-1.1-13.5c-1-3.1-2.2-5.9-3.6-8.4 5.2-4.1 11.7-6.6 18.7-6.9v13c-5.4.2-10.5 1-15.1 2.3zm18.7 10.1c0 1-.8 1.8-1.8 1.8s-1.8-.8-1.8-1.8.8-1.8 1.8-1.8c.9-.1 1.8.7 1.8 1.8zm15.6 5.3c0 1-.8 1.8-1.8 1.8s-1.8-.8-1.8-1.8.8-1.8 1.8-1.8c.9 0 1.8.8 1.8 1.8zM90 45.4c-4.5-1.3-9.6-2.1-15-2.2v-13c7 .3 13.4 2.8 18.7 6.8-1.4 2.4-2.7 5.3-3.7 8.4zm2.8.9c.8-2.7 1.9-5.2 3.1-7.4 4.3 3.9 7.5 9 9.2 14.7-2.9-3-7.1-5.5-12.3-7.3zM45.5 107.5l22.8-17-29.6-20c5.1 10.4 9.1 23.4 6.8 37z"/><path d="M112 66.2l-75.3.1 37.9 25.5z"/><path fill="#00B4EC" d="M74.6 94.9l-4.1-2.8-25.3 18.8 58.6-.2-25.3-18.6zM110.5 70.3L80.8 90.6l22.4 15.1c-1.7-13.1 2.3-25.5 7.3-35.4z"/><path d="M38.2 124.8c20.7-36.3-16-72.8-16-72.8C46.4 83.1 4 97.9 4 97.9c36.5-7.6 34.2 26.9 34.2 26.9z"/><path d="M11 69.2C8 72 7.9 77 11 80.4s8 3.9 11.1 1.1c3.1-2.8 3.1-7.8 0-11.2-3-3.3-8-3.8-11.1-1.1zM110.7 124.8C90 88.5 126.8 52 126.8 52 102.6 83.1 145 98 145 98c-36.6-7.7-34.3 26.8-34.3 26.8z"/><path d="M137.9 69.2c3.1 2.8 3.1 7.8 0 11.2-3.1 3.4-8 3.9-11.1 1.1-3.1-2.8-3.1-7.8 0-11.2 3.1-3.3 8-3.8 11.1-1.1z"/></svg>