<svg xmlns:xlink="http://www.w3.org/1999/xlink"  xmlns="http://www.w3.org/2000/svg" width="100" height="100" viewBox="0 0 100 100"><radialGradient id="a" cx="50.863" cy="44.647" r="65.343" gradientUnits="userSpaceOnUse"><stop offset="0" stop-color="#00adee"/><stop offset=".002" stop-color="#01adee"/><stop offset=".061" stop-color="#15abe6"/><stop offset=".119" stop-color="#22a9e2"/><stop offset=".176" stop-color="#26a9e0"/><stop offset=".358" stop-color="#1b75bb"/><stop offset=".588" stop-color="#2b388f"/><stop offset=".812" stop-color="#292666"/><stop offset="1" stop-color="#150c46"/></radialGradient><path fill="url(#a)" d="M89.568 42.604h-8.963a31.953 31.953 0 0 0-2.75-6.2V32.1h-2.984a32.096 32.096 0 0 0-10.485-8.376V17.13a4.979 4.979 0 0 0-4.973-4.972H41.01a4.976 4.976 0 0 0-4.972 4.972v6.594A32.07 32.07 0 0 0 25.556 32.1h-3.209v4.689a31.782 31.782 0 0 0-2.528 5.815h-7.93a4.978 4.978 0 0 0-4.972 4.972v9.446a4.978 4.978 0 0 0 4.972 4.972h7.93a31.883 31.883 0 0 0 5.244 9.898v3.781h3.483a32.164 32.164 0 0 0 7.492 5.187v5.852a4.977 4.977 0 0 0 4.972 4.973h18.403a4.98 4.98 0 0 0 4.973-4.973v-5.837a32.036 32.036 0 0 0 7.494-5.201h4.187v-4.731a31.966 31.966 0 0 0 4.524-8.948h8.978a4.979 4.979 0 0 0 4.973-4.972v-9.446a4.98 4.98 0 0 0-4.974-4.973zM38.962 17.129a2.05 2.05 0 0 1 2.048-2.048h18.403a2.05 2.05 0 0 1 2.046 2.048v9.443a2.05 2.05 0 0 1-2.046 2.049H41.01a2.049 2.049 0 0 1-2.048-2.049v-9.443zM58.41 30.17a1.047 1.047 0 1 1-2.094 0 1.047 1.047 0 0 1 2.094 0zm-3.038 0a1.048 1.048 0 0 1-2.095 0 1.048 1.048 0 0 1 2.095 0zM11.888 59.067a2.05 2.05 0 0 1-2.048-2.046v-9.446c0-1.128.92-2.048 2.048-2.048H30.29c1.131 0 2.051.92 2.051 2.048v9.446a2.05 2.05 0 0 1-2.051 2.046H11.888zm17.403 1.549a1.047 1.047 0 1 1-2.095 0 1.047 1.047 0 0 1 2.095 0zm-3.037 0c0 .58-.471 1.047-1.048 1.047a1.046 1.046 0 1 1 0-2.095c.577 0 1.048.469 1.048 1.048zm28.07 30.74a1.05 1.05 0 0 1-1.047-1.048c0-.578.471-1.05 1.047-1.05a1.05 1.05 0 0 1 0 2.098zm3.038 0a1.052 1.052 0 0 1-1.048-1.048 1.048 1.048 0 1 1 1.048 1.048zm4.097-4.645a2.048 2.048 0 0 1-2.046 2.048H41.01a2.047 2.047 0 0 1-2.048-2.048v-9.445c0-1.129.917-2.045 2.048-2.045h18.403c1.128 0 2.046.916 2.046 2.045v9.445zm12.105-17.297h-3.757v4.199a29.11 29.11 0 0 1-5.422 3.946v-.294a4.977 4.977 0 0 0-4.973-4.969H41.01a4.975 4.975 0 0 0-4.972 4.969v.291a29.24 29.24 0 0 1-4.718-3.322v-4.82h-4.461a29.057 29.057 0 0 1-3.95-7.421h7.381a4.978 4.978 0 0 0 4.974-4.972v-9.446a4.978 4.978 0 0 0-4.974-4.972h-7.378a28.536 28.536 0 0 1 1.923-4.246h3.77v-5.321a29.213 29.213 0 0 1 7.455-6.006 4.979 4.979 0 0 0 4.95 4.518h18.403a4.978 4.978 0 0 0 4.948-4.518 29.057 29.057 0 0 1 7.235 5.757v5.571h3.992a28.601 28.601 0 0 1 1.917 4.246h-6.341a4.976 4.976 0 0 0-4.972 4.972v9.446a4.976 4.976 0 0 0 4.972 4.972h6.353a28.799 28.799 0 0 1-3.953 7.42zm10.916-7.751a1.048 1.048 0 1 1-.001-2.097 1.048 1.048 0 0 1 .001 2.097zm3.038 0a1.048 1.048 0 1 1 0-2.096 1.048 1.048 0 0 1 0 2.096zm4.096-4.642a2.048 2.048 0 0 1-2.046 2.046H71.165a2.048 2.048 0 0 1-2.048-2.046v-9.446a2.05 2.05 0 0 1 2.048-2.048h18.403a2.05 2.05 0 0 1 2.046 2.048v9.446z"/></svg>