<svg xmlns:xlink="http://www.w3.org/1999/xlink"  version="1" xmlns="http://www.w3.org/2000/svg" viewBox="0 0 150 150"><path fill="#72973E" d="M144.5 75.9c0 5.8-8.7 10.4-10.1 15.7-1.5 5.6 3.7 13.9.9 18.7-2.9 4.9-12.7 4.6-16.7 8.6s-3.6 13.8-8.6 16.7c-4.9 2.8-13.2-2.4-18.7-.9-5.4 1.4-10 10.1-15.8 10.1-5.8 0-10.4-8.7-15.8-10.1-5.6-1.5-13.9 3.7-18.7.9-4.9-2.9-4.6-12.7-8.6-16.7s-13.8-3.6-16.7-8.6c-2.8-4.8 2.4-13.2.9-18.7-1.4-5.4-10.1-10-10.1-15.8 0-5.8 8.7-10.4 10.1-15.8 1.5-5.5-3.7-13.9-.9-18.7 2.8-4.9 12.7-4.6 16.7-8.6S36 18.9 41 16c4.9-2.8 13.2 2.4 18.7.9C65.2 15.6 69.8 7 75.6 7c5.8 0 10.4 8.7 15.8 10.1 5.6 1.5 13.9-3.7 18.7-.9 4.9 2.8 4.6 12.7 8.6 16.7s13.8 3.6 16.7 8.6c2.8 4.8-2.4 13.2-.9 18.7 1.4 5.3 10 9.9 10 15.7"/><path fill="#DBD7C4" d="M125.4 75.9l-35.8.9 35.5 5.3-35.7-3.6 34.5 9.8-35-8.1 33 14-33.6-12.4 31 18.1-31.9-16.5 28.5 21.8-29.5-20.4 25.5 25.2-26.7-23.9 22.2 28.2-23.6-27.1 18.5 30.7-20-29.8L96.8 121l-16-32.1L91 123.3 79.1 89.4l5.8 35.4-7.5-35.1 1.3 35.9-3.1-35.7-3.1 35.7 1.3-35.9-7.5 35.1 5.8-35.4-11.9 33.9 10.3-34.4L54.4 121l14.5-32.9-20 29.8 18.5-30.7-23.5 27.1 22.2-28.2L39.3 110l25.5-25.2-29.5 20.4 28.5-21.8L32 99.9l31-18.1-33.7 12.4 33-14-34.9 8.1 34.5-9.8-35.7 3.6 35.5-5.3-35.9-.9 35.9-.9-35.5-5.3 35.7 3.6-34.5-9.8 34.9 8.1-33-14.1L63 69.9l-31-18 31.8 16.5-28.5-21.8L64.8 67 39.3 41.8l26.8 23.9-22.2-28.2 23.5 27.1-18.5-30.8 20 29.8-14.5-32.8 16.1 32.1-10.3-34.4 11.9 33.8-5.8-35.4L73.8 62l-1.3-35.8 3.1 35.7 3.1-35.7L77.4 62l7.5-35.1-5.8 35.4L91 28.5 80.8 62.9l16-32.1-14.5 32.8 20-29.8-18.5 30.8 23.6-27.1-22.2 28.2 26.7-23.9L86.4 67l29.5-20.4-28.5 21.8 31.9-16.5-31 18 33.6-12.4-33 14.1 35-8.1-34.5 9.7 35.7-3.5L89.6 75z"/><g fill="#FFF"><path d="M72 51.7h6.4c.3 6.9.3 13.7.3 20.6h-7c0-6.9 0-13.7.3-20.6z"/><path d="M53.4 77.6c-.6-8.9 4.8-16.9 12.4-21 1-.5 2-1 3-1.3v7.5c-4 2.9-7.7 6.7-8.2 11.9-1.3 8.7 6.6 17.2 15.4 16.5 9.3 0 16.7-10.4 13.5-19.2-1.2-4.1-4.6-6.8-7.8-9.3v-7.5c.9.3 1.7.7 2.5 1.1 7.1 3.6 12.8 10.3 13.1 18.6 1.3 11.1-7.4 21.9-18.4 23.4-12.6 2.4-25.5-8-25.5-20.7z"/></g></svg>