<svg xmlns:xlink="http://www.w3.org/1999/xlink"  xmlns="http://www.w3.org/2000/svg" width="100" height="100" viewBox="0 0 100 100"><path fill="#B54926" d="M54.922 74.953c0 .201-.139.387-.297.531-.16.148-.344.279-.533.391a8.98 8.98 0 0 1-1.201.592c-.82.348-1.66.631-2.509.896a50.601 50.601 0 0 1-5.134 1.279 48.584 48.584 0 0 1-5.188.646c-.866.025-1.73.008-2.593-.123a5.696 5.696 0 0 1-1.297-.33 2.658 2.658 0 0 1-.651-.377 1.445 1.445 0 0 1-.312-.361 1.248 1.248 0 0 1-.12-.27 1.344 1.344 0 0 1-.046-.258l-.003-.045v-.061l.001-.066a1.146 1.146 0 0 1 .048-.276c.031-.113.072-.217.12-.305.097-.184.205-.318.312-.438a3.84 3.84 0 0 1 .651-.545 7.485 7.485 0 0 1 1.297-.66 16.173 16.173 0 0 1 2.592-.779 49.046 49.046 0 0 1 5.188-.676 43.723 43.723 0 0 1 2.579-.078c.857-.008 1.708.014 2.555.061a22.46 22.46 0 0 1 2.509.258c.414.064.816.154 1.201.285.189.07.373.145.533.254.159.111.298.26.298.455zm0 0c0-.195-.145-.344-.297-.445a2.36 2.36 0 0 0-.541-.25 7.418 7.418 0 0 0-1.199-.266 19.024 19.024 0 0 0-2.523-.152 54.03 54.03 0 0 0-5.114.418c-.851.127-1.7.279-2.543.461-.844.174-1.685.387-2.514.627-.829.248-1.652.52-2.436.871a7.3 7.3 0 0 0-1.103.598 2.374 2.374 0 0 0-.425.355.804.804 0 0 0-.105.146l-.012.027c-.002.006 0 .006 0 .006v-.012V77.34s-.002-.004 0 0l.012.027a.492.492 0 0 0 .105.119c.105.092.259.18.425.248.332.141.714.242 1.103.32.783.152 1.606.217 2.436.25a30.13 30.13 0 0 0 2.514-.008 40.112 40.112 0 0 0 2.545-.186 56.003 56.003 0 0 0 5.112-.885 21.907 21.907 0 0 0 2.523-.791 9.308 9.308 0 0 0 1.199-.568c.193-.113.375-.236.541-.385.152-.141.297-.327.297-.528z"/><path fill="#B54926" d="M47.93 71.748c.083.334.134.67.175 1.004.042.338.067.676.086 1.016.011.338.023.68.011 1.02-.014.344-.062.689-.107 1.033a4.484 4.484 0 0 1-.026.221h-.172a9.43 9.43 0 0 0-1.322.078c-.442.059-.884.148-1.326.254-.439.105-.879.217-1.322.293-.442.08-.882.156-1.324.229-.142.023-.209.037-.354.059l-.009-.385a16.566 16.566 0 0 1 0-1.092c.009-.363.034-.729.056-1.092l.045-.551c.022-.219.035-.328.058-.549.044-.363.094-.732.169-1.098l.07-.008c.073.355.122.711.167 1.07.025.213.035.322.061.531l.045.537c.022.359.045.715.058 1.074.009.359.011.719 0 1.08l-.367-.326c.442-.039.882-.074 1.324-.107.443-.037.883-.037 1.322-.045.442-.006.884-.025 1.326-.078.438-.055.881-.15 1.322-.262-.08.084-.12.131-.2.217-.045-.336-.092-.67-.105-1.016-.015-.336-.001-.686.011-1.025.017-.346.042-.693.086-1.033a9.14 9.14 0 0 1 .173-1.047c.027-.002.041-.002.069-.002z"/><path fill="#B54926" d="M69.977 61.834c.018 1.672-.807 3.438-2.246 4.85a10.447 10.447 0 0 1-2.504 1.824c-.936.49-1.955.838-2.984 1.016-4.063.686-8.125 1.389-12.183 2.119-8.143 1.506-16.26 3.123-24.368 4.799-1.217.25-1.827.377-3.044.635-.166.029-.245.047-.41.08-.165.025-.316.047-.463.063a7.71 7.71 0 0 1-.897.053 7.25 7.25 0 0 1-1.759-.203c-2.294-.543-4.273-2.264-5.347-4.762-.541-1.24-.858-2.666-.929-4.133l-.111-3.627c-.062-2.387-.142-4.77-.188-7.16-.212-9.576-.328-19.152-.35-28.735-.001-1.578.27-3.138.785-4.531.517-1.396 1.277-2.623 2.222-3.584 1.879-1.948 4.565-2.739 7.224-2.289 2.068.356 4.072.736 6.111 1.106 2.03.367 4.061.758 6.092 1.139 8.127 1.549 16.246 3.156 24.365 4.734 1.219.235 1.828.352 3.047.584.158.032.242.047.402.08.156.032.301.065.445.102.291.076.574.163.857.257.566.192 1.117.425 1.643.7 2.115 1.092 3.791 2.79 4.619 4.596.412.903.623 1.833.607 2.735-.035 1.001-.061 1.498-.102 2.499-.064 1.662-.141 3.326-.188 4.991a741.517 741.517 0 0 0-.346 20.062zm0 0a739.515 739.515 0 0 0-.35-20.092c-.051-1.68-.123-3.362-.188-5.049-.029-.834-.066-1.698-.109-2.514a5.666 5.666 0 0 0-.711-2.289c-.813-1.469-2.293-2.729-3.969-3.443a9.254 9.254 0 0 0-1.283-.431 8.686 8.686 0 0 0-.652-.135c-.111-.018-.219-.032-.313-.047-.145-.015-.217-.021-.363-.04-1.219-.124-1.828-.189-3.047-.313-8.119-.816-16.246-1.606-24.365-2.448-2.031-.218-4.062-.424-6.092-.657-2.022-.232-4.079-.45-6.073-.693-1.411-.16-2.748.355-3.722 1.364-.976 1.009-1.523 2.514-1.514 4.103-.02 9.34-.139 18.677-.35 28.018-.047 2.336-.127 4.678-.188 7.025-.043 1.385-.063 2.078-.105 3.467a7.396 7.396 0 0 0 .399 2.592c.559 1.621 1.734 2.924 3.234 3.467a4.978 4.978 0 0 0 1.779.312c.12 0 .18-.004.299-.008.139-.01.21-.016.354-.029 1.217-.119 1.827-.178 3.044-.301 8.134-.818 16.255-1.701 24.368-2.703 4.066-.518 8.125-1.063 12.183-1.625 2.01-.289 4.027-1.301 5.455-2.709 1.441-1.39 2.281-3.146 2.279-4.822z"/><path fill="#FAAF3B" d="M25.689 25.713c1.703.058 3.41.167 5.116.254 2.047.134 3.069.203 5.117.344 3.414.236 6.823.53 10.232.834 3.412.312 6.824.65 10.232 1.009 1.023.109 1.531.159 2.559.272 1.033.108 2.145.413 3.156.878 2.037.928 3.768 2.496 4.678 4.287.461.889.723 1.836.76 2.764.029.867.041 1.302.072 2.166.039 1.712.057 2.568.102 4.273.072 2.847.115 5.688.166 8.528.018 1.705.029 2.553.051 4.254l.045 4.281c.004.947-.24 1.959-.689 2.908-.451.955-1.119 1.869-1.945 2.674a11.547 11.547 0 0 1-2.902 2.061c-1.08.551-2.262.928-3.424 1.104-3.41.5-6.82 1-10.235 1.494-3.408.479-6.818.951-10.232 1.422a1059.568 1059.568 0 0 1-12.79 1.658c-.173.021-.189.025-.384.043a7.17 7.17 0 0 1-.434.025c-.279.01-.557.004-.834-.018a6.733 6.733 0 0 1-1.609-.32c-2.075-.678-3.744-2.395-4.582-4.654a10.288 10.288 0 0 1-.626-3.635l.078-2.996.167-5.904c.125-3.926.261-7.85.406-11.775.16-3.906.332-7.813.524-11.72.107-2.14.994-4.099 2.354-5.282a5.544 5.544 0 0 1 4.871-1.229c-.854-.033-1.678.116-2.421.439s-1.4.816-1.93 1.447c-1.076 1.24-1.616 3.003-1.517 4.763.192 3.877.363 7.755.524 11.633.144 3.863.281 7.722.406 11.582l.167 5.775c.031 1.139.047 1.709.08 2.844.04.689.188 1.35.45 1.934.513 1.172 1.472 2.023 2.574 2.326a3.967 3.967 0 0 0 1.277.137c.067-.004.156-.014.203-.018.02-.004.217-.029.253-.037 1.023-.145 1.534-.213 2.558-.357 3.409-.488 6.821-.938 10.232-1.391 3.414-.436 6.825-.869 10.232-1.307 3.415-.408 6.825-.82 10.235-1.232a5.017 5.017 0 0 0 2.895-1.363 4.23 4.23 0 0 0 .902-1.244c.215-.451.32-.904.332-1.395.043-3.521.061-5.285.102-8.799.045-2.942.088-5.88.16-8.815.043-1.759.063-2.64.107-4.4.025-.863.037-1.298.066-2.162a3.673 3.673 0 0 0-.32-1.542c-.436-1.005-1.334-1.945-2.475-2.518a5.863 5.863 0 0 0-1.838-.58c-1.027-.152-1.535-.225-2.559-.377a729.894 729.894 0 0 1-10.232-1.589 503.507 503.507 0 0 1-10.232-1.759c-2.048-.377-3.07-.569-5.117-.954-1.704-.344-3.411-.671-5.114-1.041z"/><path fill="#FFF0A3" d="M60.867 57.971c0 2.553-2.354 4.871-5.256 5.172-8.923.922-17.844 1.852-26.763 2.771-2.901.301-5.257-2.063-5.257-5.281V35.758c0-3.218 2.356-5.598 5.257-5.314l26.763 2.601c2.902.283 5.256 2.583 5.256 5.14v19.786z"/><path fill="#B54926" d="M59.424 69.822s.18.25.496.684c.16.219.379.465.611.752.219.297.52.596.826.936.316.33.668.686 1.045 1.041.391.352.797.719 1.248 1.063.434.371.928.693 1.406 1.043.504.311 1.002.648 1.537.92.518.305 1.068.541 1.598.791.547.207 1.074.449 1.609.6.262.08.523.158.777.238.258.063.512.119.754.178.486.131.967.174 1.396.246.432.08.838.072 1.186.105.354.037.662.029.916.025.508-.012.793-.012.793-.012v2.039l-.896-.082a8.16 8.16 0 0 1-1.014-.131c-.385-.08-.83-.121-1.299-.254-.471-.131-.979-.232-1.5-.432-.264-.092-.529-.182-.801-.275-.268-.113-.537-.23-.813-.35-.559-.217-1.092-.533-1.648-.811-.535-.328-1.086-.637-1.594-1.01-.529-.346-1.018-.746-1.498-1.127-.461-.412-.934-.795-1.34-1.217-.422-.402-.797-.822-1.156-1.223-.352-.398-.664-.795-.953-1.156-.268-.381-.539-.711-.734-1.033-.201-.32-.398-.584-.529-.816l-.423-.732z"/><path fill="#B54926" d="M81.982 81.875c3.223 0 6.303-.254 9.156-.715a10.46 10.46 0 0 0-9.156-5.4c-3.943 0-7.379 2.18-9.154 5.4a57.55 57.55 0 0 0 9.154.715z"/><path fill="#FFF" d="M80.902 78.963h-6.449c-.27.279-.523.576-.764.889H81.8v-.445a6.614 6.614 0 0 0-1.031-3.57 8.852 8.852 0 0 0-.963.152 5.768 5.768 0 0 1 1.096 2.974z"/></svg>