<svg xmlns:xlink="http://www.w3.org/1999/xlink"  xmlns="http://www.w3.org/2000/svg" width="100" height="100" viewBox="0 0 100 100"><radialGradient id="a" cx="43.292" cy="16.877" r="107.936" gradientUnits="userSpaceOnUse"><stop offset="0" stop-color="#7cc5f1"/><stop offset=".009" stop-color="#79c4f1"/><stop offset=".261" stop-color="#22b2ed"/><stop offset=".376" stop-color="#00abeb"/><stop offset=".465" stop-color="#00a4e3"/><stop offset=".605" stop-color="#0091cc"/><stop offset=".779" stop-color="#0072a7"/><stop offset=".979" stop-color="#004775"/><stop offset="1" stop-color="#00426f"/></radialGradient><path fill="url(#a)" d="M49.551 55.101c.056-6.223-.06-12.454-.019-18.67.007-.886.007-1.764.007-2.635-3.183-.668-5.871-2.845-7.395-5.69-.744-2.102-1.201-4.324-.833-6.569-9.977-.473-20.048-1.727-29.485-5.143-.023.18-.075.548-.102.728-1.595 3.574-3.003 7.245-3.915 11.066-2.143 8.611-1.426 17.822 1.746 26.096a10.244 10.244 0 0 1 5.871-3.432c2.586-.18 5.139.601 7.132 2.268l.162-.03c1.771 2.064 3.085 4.715 2.691 7.5-.36 4.084-3.87 7.364-7.853 7.928 4.136 5.458 8.926 10.397 14.095 14.887.049-10.218-.019-20.435.011-30.645.004-1.066.004-2.132 0-3.198-2.609-.796-4.887-2.913-5.214-5.721-.541-2.68.773-5.323 2.808-7.02 1.231-.436 2.361-1.224 3.712-1.253 1.603-.173 3.127.465 4.497 1.239l.176-.03c1.873 1.779 3.165 4.362 2.605 6.989-.552 3.018-3.235 5.105-6.069 5.871-.026 1.839-.034 3.679.004 5.518.041 7.38-.038 14.767.007 22.14h15.353c.03-7.397-.041-14.792.008-22.194zm-6.505 3.161c-1.524 0-2.331-1.404-2.823-2.628.541-1.059 1.036-2.455 2.417-2.59 1.573-.346 2.688 1.021 3.209 2.319-.176 1.472-1.197 2.913-2.803 2.899z"/><radialGradient id="b" cx="43.289" cy="16.885" r="107.897" gradientUnits="userSpaceOnUse"><stop offset="0" stop-color="#7cc5f1"/><stop offset=".009" stop-color="#79c4f1"/><stop offset=".261" stop-color="#22b2ed"/><stop offset=".376" stop-color="#00abeb"/><stop offset=".465" stop-color="#00a4e3"/><stop offset=".605" stop-color="#0091cc"/><stop offset=".779" stop-color="#0072a7"/><stop offset=".979" stop-color="#004775"/><stop offset="1" stop-color="#00426f"/></radialGradient><path fill="url(#b)" d="M38.042 42.376c-.011-3.101-3.705-5.098-6.374-3.679-3.165 1.381-3.183 6.494-.004 7.875 2.838 1.592 6.769-.938 6.378-4.196z"/><radialGradient id="c" cx="43.29" cy="16.862" r="107.965" gradientUnits="userSpaceOnUse"><stop offset="0" stop-color="#7cc5f1"/><stop offset=".009" stop-color="#79c4f1"/><stop offset=".261" stop-color="#22b2ed"/><stop offset=".376" stop-color="#00abeb"/><stop offset=".465" stop-color="#00a4e3"/><stop offset=".605" stop-color="#0091cc"/><stop offset=".779" stop-color="#0072a7"/><stop offset=".979" stop-color="#004775"/><stop offset="1" stop-color="#00426f"/></radialGradient><path fill="url(#c)" d="M42.284 54.095c-.901.474-1.212 1.727-.563 2.538.777 1.11 3.029.645 3.018-.849.243-1.292-1.348-2.319-2.455-1.689z"/><radialGradient id="d" cx="43.295" cy="16.869" r="107.949" gradientUnits="userSpaceOnUse"><stop offset="0" stop-color="#7cc5f1"/><stop offset=".009" stop-color="#79c4f1"/><stop offset=".261" stop-color="#22b2ed"/><stop offset=".376" stop-color="#00abeb"/><stop offset=".465" stop-color="#00a4e3"/><stop offset=".605" stop-color="#0091cc"/><stop offset=".779" stop-color="#0072a7"/><stop offset=".979" stop-color="#004775"/><stop offset="1" stop-color="#00426f"/></radialGradient><path fill="url(#d)" d="M21.796 61.316c1.032-2.973-1.062-6.501-4.174-6.988-2.777-.639-5.51 1.275-6.358 3.903 1.182 2.335 2.455 4.64 3.918 6.81 2.737.563 5.863-.916 6.614-3.725z"/><radialGradient id="e" cx="87.847" cy="20.514" r="67.243" gradientUnits="userSpaceOnUse"><stop offset="0" stop-color="#cb2229"/><stop offset=".334" stop-color="#aa181d"/><stop offset=".77" stop-color="#840c0f"/><stop offset="1" stop-color="#76070a"/></radialGradient><path fill="url(#e)" d="M80.293 16.724l-.037-.315a30.205 30.205 0 0 0-3.239.855c-4.937 1.607-10.06 2.545-15.191 3.266.808 3.289 0 6.742-1.967 9.459-1.817 2.064-4.302 3.454-7.03 3.844a62.56 62.56 0 0 0-.045 5.052c.063 3.776-.068 7.56.015 11.344.052 5.69-.022 11.396-.011 17.094 5.326-.007 10.641 0 15.964 0 .007-1.523-.004-3.047-.03-4.564-2.988-1.163-5.454-4.084-5.297-7.402-.021-1.943 1.014-3.701 2.347-5.044 1.354-1.021 2.897-1.892 4.632-1.997 2.229-.248 4.32.833 5.953 2.26 1.865 2.357 2.53 5.721 1.078 8.445-1.003 2.154-3.229 3.371-5.47 3.859.022 2.867-.03 5.742.038 8.618 7.334-8.731 12.796-19.52 13.359-31.073.509-8.199-1.784-16.269-5.069-23.701zM67.984 43.419c-2.184-.225-3.682-2.222-3.952-4.302.218-2.47 2.38-4.767 4.989-4.422 2.582.225 4.203 2.883 3.903 5.338-.694 2.05-2.683 3.732-4.94 3.386z"/><radialGradient id="f" cx="87.843" cy="20.512" r="67.24" gradientUnits="userSpaceOnUse"><stop offset="0" stop-color="#cb2229"/><stop offset=".334" stop-color="#aa181d"/><stop offset=".77" stop-color="#840c0f"/><stop offset="1" stop-color="#76070a"/></radialGradient><path fill="url(#f)" d="M56.982 27.939c1.813-1.892 2.005-4.737 1.27-7.147-4.227.405-8.468.308-12.703.405-.499 2.41-.169 5.158 1.67 6.944 2.527 2.741 7.365 2.659 9.763-.202z"/><radialGradient id="g" cx="87.846" cy="20.5" r="67.272" gradientUnits="userSpaceOnUse"><stop offset="0" stop-color="#cb2229"/><stop offset=".334" stop-color="#aa181d"/><stop offset=".77" stop-color="#840c0f"/><stop offset="1" stop-color="#76070a"/></radialGradient><path fill="url(#g)" d="M67.204 36.655c-1.831.901-1.903 3.724-.157 4.737 1.749 1.171 4.447-.226 4.215-2.41.109-2.026-2.383-3.318-4.058-2.327z"/><radialGradient id="h" cx="87.843" cy="20.535" r="67.207" gradientUnits="userSpaceOnUse"><stop offset="0" stop-color="#cb2229"/><stop offset=".334" stop-color="#aa181d"/><stop offset=".77" stop-color="#840c0f"/><stop offset="1" stop-color="#76070a"/></radialGradient><path fill="url(#h)" d="M75.549 56.31c.66-3.198-2.805-6.088-5.841-4.992-3.292.863-4.227 5.683-1.55 7.747 2.492 2.259 7.075.653 7.391-2.755z"/><radialGradient id="i" cx="87.846" cy="20.494" r="67.265" gradientUnits="userSpaceOnUse"><stop offset="0" stop-color="#cb2229"/><stop offset=".334" stop-color="#aa181d"/><stop offset=".77" stop-color="#840c0f"/><stop offset="1" stop-color="#76070a"/></radialGradient><path fill="url(#i)" d="M52.666 69.725c-.078 6.645.146 13.296-.119 19.939 5.648-4.361 11.287-8.858 15.949-14.301.011-1.885.007-3.762.007-5.646-5.281.008-10.556.008-15.837.008z"/><radialGradient id="j" cx="43.291" cy="16.856" r="107.963" gradientUnits="userSpaceOnUse"><stop offset="0" stop-color="#7cc5f1"/><stop offset=".009" stop-color="#79c4f1"/><stop offset=".261" stop-color="#22b2ed"/><stop offset=".376" stop-color="#00abeb"/><stop offset=".465" stop-color="#00a4e3"/><stop offset=".605" stop-color="#0091cc"/><stop offset=".779" stop-color="#0072a7"/><stop offset=".979" stop-color="#004775"/><stop offset="1" stop-color="#00426f"/></radialGradient><path fill="url(#j)" d="M49.303 79.8H34.424c-.004 1.907.007 3.813-.012 5.721 2.56 2.38 5.387 4.444 8.225 6.464.709.488 1.426.969 2.151 1.449.432.285.859.578 1.295.87.496-.308.999-.607 1.49-.923.593-.398 1.19-.811 1.76-1.239l.56-.442c-1.074-3.875-.41-7.944-.59-11.9z"/></svg>