<svg xmlns:xlink="http://www.w3.org/1999/xlink"  version="1" xmlns="http://www.w3.org/2000/svg" viewBox="0 0 150 150"><path fill="#00B8EC" d="M75.4 140.6c20.4 0 38.4-9.8 49.8-24.9l-54.9 24.6c1.7.2 3.4.3 5.1.3zM131.2 106.2c4.3-8.4 6.7-18 6.7-28.1 0-17.7-7.4-33.7-19.3-45l.1.6 12.5 72.5zM13 78.1c0 18.7 8.3 35.4 21.3 46.9L20.4 48.5C15.7 57.3 13 67.4 13 78.1z"/><path fill="#C7C7C7" d="M100.6 28.9l5.6 1 1.8-10.7-10.7-1.9-1.5 8.8L85.2 20l-62.1 4.7 21.4 118.7 78.9-35.4-12.6-73.3-10.2-5.8zM52.2 129.8L34.6 33.4 80.1 30l5.3 23.2 16.5-6.2 11.1 54.9-60.8 27.9zM114.1 12.6l-7-1.2-1.2 7 7 1.2zM120.6 5.5l-2.4-.4-.5 2.4 2.5.5zM118.6 8l-4.7-.8-.8 4.7 4.7.8z"/><g fill="#00B8EC"><path d="M91.3 63.7l-1.1-5.9-38.3 10.7 1.2 6.1zM92.6 70.2l-38 12 1.3 6.3 38-11.8zM95.1 83l-38 11.9 1.3 6.3 38-11.8zM97.6 95.7l-38 12 1.3 6.3 38-11.8z"/></g></svg>