<svg xmlns:xlink="http://www.w3.org/1999/xlink"  xmlns="http://www.w3.org/2000/svg" viewBox="0 0 150 150"><path fill="none" d="M94.7 42.9h.1-.1zM88.5 43.8h.2v-.3c0 .1-.1.2-.2.3zM77.9 45.2zM83.9 44.4h.1l-.1-.1c-.1.1-.1.1 0 .1zM107.1 10.2c-.6-.3-1.3-.5-1.9-.7.1.1.2.1.3.1 3 1.4 5.6 3.5 7.7 6-1.5-2.4-3.6-4.2-6.1-5.4z"/><path fill="#00ADDF" d="M107.3 10c-1.9-.9-4-1.5-6.1-1.8C86.7 6 68.3 16.7 52.9 35.4c1.7.2 3.7.9 5.3 2.4.4.3.7.7 1.1 1.2C74.1 19.2 90.9 7.4 102.9 9c.8.1 1.5.3 2.3.5.7.2 1.3.4 1.9.7 2.5 1.2 4.5 3 6.1 5.5 5.2 7.9 5.7 21.9 1.8 38.5-2.5 10.8-6.9 22.6-13.1 34.5-3 5.8-6.3 11.3-9.7 16.4-14.6 21.7-32 35.9-45 36.7h-1.4c17.8 2.9 41.8-13.9 58.6-41.3 1.7-2.8 3.4-5.7 4.9-8.7 6.9-13.3 11.1-26.7 12.7-38.8 2.7-20.5-2.3-37.2-14.7-43z"/><path fill="#00735C" d="M125.1 52.4l-3 .6c-1.6 12.1-5.8 25.5-12.7 38.8-1.6 3-3.2 5.9-4.9 8.7l17.4-6.6s6-31.4 6.7-36.7c.6-5.2-3.5-4.8-3.5-4.8zM53.3 65.5c-6.7 1.7-6 7.4-6 7.4-.5 2.2 2.9 41.7 2.8 45.7-.1 4-3.2 2.6-3.2 2.6 2.2 1.5 6.7-1.3 6.7-1.3l36.2-13.8c3.7-5.4 7.3-11.4 10.6-17.7 6-11.7 10.4-23.3 12.9-33.8l-60 10.9zm-19.8 1.9c-12.5 29.4-12 57.7 1.3 69.3-8-9.5-7.3-31.1 1.5-55.4l-2.8-13.9z"/><path fill="#0081C3" d="M112.1 44.6c-1.7-4.6-6.9-3.3-6.9-3.3h-.3c.2.4.3.8.3 1.3 0 1.6-1.4 2.9-3.1 2.9-1.7 0-3.1-1.3-3.1-2.9v-.4h-.3c.5-.5.8-1.2.8-1.9 0-1.6-1.4-2.9-3.1-2.9-1.7 0-3.1 1.3-3.1 2.9 0 .3.1.6.2.9.2.7.7 1.2 1.3 1.6.1.3.2.6.2.9 0 1.6-1.4 2.9-3.1 2.9-1.7 0-3.1-1.3-3.1-2.9h-.2c.1-.1.1-.2.2-.4l.3-.9V42c0-1.6-1.4-2.9-3.1-2.9-1.7 0-3.1 1.3-3.1 2.9 0 .4.1.8.2 1.2.2.4.4.7.7 1l.1.1h-.1c.1.3.2.7.2 1 0 1.6-1.4 2.9-3.1 2.9-1.7 0-3.1-1.3-3.1-2.9V45c.5-.5.8-1.1.9-1.8v-.3c0-1.6-1.4-2.9-3.1-2.9-1.7 0-3.1 1.3-3.1 2.9 0 .2 0 .4.1.5.2.9.7 1.6 1.5 2 .2.1.4.2.7.3 0 .2.1.3.1.5 0 1.6-1.4 2.9-3.1 2.9-1.6 0-2.9-1.1-3.1-2.6.5-.1 1-.4 1.4-.8.5-.5.9-1.2.9-2v-.4c-.2-1.2-1.5-2.3-3-2.3-1 0-2 .5-2.5 1.2-.4.5-.6 1.1-.6 1.7 0 .8.3 1.5.9 2.1.2.2.4.4.7.5-.6.7-1.5 1.2-2.5 1.2-1.7 0-3.1-1.3-3.1-2.9v-.2c-1.5-.9-2.4-2.3-3.5-3.9-2.4-3.6-5.9-3.6-5.9-3.6l-19.6 1.6c-3.4 1.6-2.8 4.9-2.8 4.9L44 116.3c2.2 5.9 4.7 2.8 4.7 2.8S45 81 45 73.1c0-7.9 8-8.9 8-8.9l60.6-11.6c0-.2.1-.4.1-.6 0-1.3-.3-3.9-1.6-7.4zm-32.6-6.7c1.4 0 2.6-1.1 2.6-2.5s-1.2-2.5-2.6-2.5c-1.4 0-2.6 1.1-2.6 2.5.1 1.4 1.2 2.5 2.6 2.5zm8.4-3.9c0 1.3 1.1 2.3 2.4 2.3 1.3 0 2.4-1 2.4-2.3 0-1.3-1.1-2.3-2.4-2.3-1.3.1-2.4 1.1-2.4 2.3zm13 1.1c1 0 1.7-.7 1.7-1.7 0-.9-.8-1.7-1.7-1.7-1 0-1.7.7-1.7 1.7-.1 1 .7 1.7 1.7 1.7zm-31.7 3.2c1 0 1.8-.7 1.8-1.7 0-.9-.8-1.7-1.8-1.7s-1.7.7-1.7 1.7.7 1.7 1.7 1.7zm15.1-8.4c1 0 1.8-.7 1.8-1.7 0-.9-.8-1.7-1.8-1.7s-1.7.7-1.7 1.7.8 1.7 1.7 1.7zm-10.6 1.4c1 0 1.7-.7 1.7-1.7 0-.9-.8-1.7-1.7-1.7-1 0-1.7.7-1.7 1.7-.1.9.7 1.7 1.7 1.7zm21.8-4.6c.8 0 1.4-.6 1.4-1.3 0-.7-.6-1.3-1.4-1.3-.8 0-1.4.6-1.4 1.3 0 .7.6 1.3 1.4 1.3zm-14.8-3.2c.8 0 1.4-.6 1.4-1.3 0-.7-.6-1.3-1.4-1.3-.8 0-1.4.6-1.4 1.3 0 .7.6 1.3 1.4 1.3zm7.7-2.7c.4 0 .7-.3.7-.7 0-.4-.3-.7-.7-.7-.4 0-.7.3-.7.7 0 .4.3.7.7.7zm7.9-2.6c.4 0 .7-.3.7-.7 0-.4-.3-.7-.7-.7-.4 0-.7.3-.7.7 0 .4.3.7.7.7zm5.4 8.6c.4 0 .7-.3.7-.7 0-.4-.3-.7-.7-.7-.4 0-.7.3-.7.7 0 .4.3.7.7.7zm4.6 10c.4 0 .7-.3.7-.7 0-.4-.3-.7-.7-.7-.4 0-.7.3-.7.7 0 .4.3.7.7.7z"/></svg>