<svg xmlns="http://www.w3.org/2000/svg" viewBox="0 0 1500 1500"><path fill="#855863" d="M585.7 561c-36.5 20.5-68.7 43.2-52.5 99-7.1-30 8-54.2 65-89 67.7-41.4 87.8-110.3 86.5-130.4.1 0-22.5 82.8-99 120.4zM533.2 660c1.3 5.6 3.4 11.4 6.1 17.5-2.6-6.2-4.5-11.9-6.1-17.5zM667.2 371.7c18.8 13.8 18.8-11.3 11.3-33.8-60.2-79-141.7-46.4-170.5 6.3 56.4-80.4 159.2 27.5 159.2 27.5z"/><path fill="#855863" d="M456.3 479.3c16.3-2.1 36.1-10 58.2-16.6.4 3.4 1.5 9.1 3.9 15.3 3.1-2.4 6.9-3.8 11.1-3.8 10.1 0 18.4 8.2 18.4 18.4 0 4.3-1.6 8.3-4.1 11.4 3.5 1.3 7.4 2.4 11.8 3 38.4 4.8 84.6-20.3 57.7-45.5 14.7 5.6 29.8 14.5 45.1 28 0 0-61.4-72.7-134.1-50.1-11.8 3.7-22.4 6.9-32.2 9.7-18.7 2.7-54.3 3.9-74.9-20.4 6.5 12.1 18.9 25.3 39.6 29.1-27.9 5.2-44.9 2.5-57.9-12.2 5 28.9 31 37.1 57.4 33.7zm117.1 2.1c-5.5 0-10-4.5-10-10s4.5-10 10-10 10 4.5 10 10-4.4 10-10 10z"/><path fill="#B3525A" d="M572.8 840.9c50.4 5.5 86.6 27.4 108.5 49.3 21.9 21.9 73.4 42.7 81.1 31.8 7.7-11-9.8-16.5-24.1-16.5-14.2 0-29.6-66.8-65.8-98.6-36.2-31.8-76.7-29.6-92-23-15.3 6.6-23-21.9-48.2-14.2-25.2 7.7-57 25.2-71.2 82.2-7.7 9.9-6.6 0-13.1 1.1 0 0-5.5-3.3-5.5 8.8 0 12.1 9.9 17.5 41.7 0 31.6-17.6 38.2-26.4 88.6-20.9z"/><path fill="#B3525A" d="M619.9 893.5c-30.7-7.7-76.7-13.2-111.8-11-35.1 2.2-27.4 43.8-27.4 43.8 105.2 52.6 196.2 30.7 204.9 14.3 8.8-16.4-35-39.5-65.7-47.1z"/><path fill="#855863" d="M559.6 662.2c-7.7 19.7 21.9 26.3 21.9 26.3l8.8-5.5c0 .1-23-40.5-30.7-20.8zM658.2 663.3c-24.1-2.2-6.5 11 3.3 23 9.9 12.1 21.9 24.1 19.7 13.2.1 0 1.2-34-23-36.2zM706.5 731.3c107.4-5.5 18.6-124.9 18.6-124.9 44.9 61.3 12.1 126-18.6 124.9zM515.3 390.7c10.6-3.7 80.3-23.6 115 73 0 0-22.2-109.4-115-73zM515.3 390.7c-.9.3-1.4.5-1.4.5.4-.2.9-.3 1.4-.5zM477.5 1155.7l-8.8 5.9s104.3 20.8 70.7 277c26.5-129.6 150.3-238.7 244.6-238.7-162.1 2.9-241.7-20.7-306.5-44.2z"/><path fill="#855863" d="M1120.6 550.1c1.1-1.7 1.6-2.8 1.6-2.8s-.7.7-2.1 1.8c-19.2-36.6-46.2-72.4-82.7-106.6-35.2-33-67.6-61.6-97.6-86.8 44.9-9.1 148.7-18.3 194.7 96.1-22.6-70.3-56-138.1-227.7-123.2C732.2 188.1 648.9 168.4 598.5 61.1c0 0 22.2 125.3 248 285-1.6 2.6-2.9 5.4-3.5 9.1-1.5 10.6 13.6 13.1 33.7 11.7 3 2 5.8 4 8.9 6 27 17.7 51.7 36.9 74.3 57.4-72.6-2.7-112.6 64.4-112.6 64.4 40.9-47.6 83.8-59.7 119.6-57.9 38.1 35.7 69.3 75.2 92.8 117.9-19.1-4.8-43.2-14.8-73.2-34.1-101-64.7-197.3-1.6-197.3-1.6 59.6-13.6 86.5-13.8 113.9-3.6-5.8 3.5-17.7 12.6-16.8 28.6 1.1 19.7 37.2 40.4 64.2 42.7 0-.5-.1-.9-.1-1.4 0-11 8.9-20 20-20 7.2 0 13.5 3.9 17 9.6 4-3.5 7-7.4 8.5-11.1 32.8 16.4 58 19.5 76.9 16.5 77.6 167.5 38.4 377.8-174.7 588.2 148.3-123.8 342.4-387.7 222.5-618.4zm-189 .3c-5 0-9-4-9-9s4-9 9-9 9 4 9 9c0 4.9-4.1 9-9 9zM377.1 680.4s-94.3 246.1 24.6 377.3c0 0-94.3-110.8-24.6-377.3z"/><path fill="#FFFFFE" d="M573.4 461.4c-5.5 0-10 4.5-10 10s4.5 10 10 10 10-4.5 10-10-4.4-10-10-10zM529.6 474.3c-4.2 0-8 1.5-11.1 3.8-4.4 3.4-7.3 8.6-7.3 14.6 0 10.1 8.2 18.4 18.4 18.4 5.8 0 10.9-2.7 14.3-6.9 2.5-3.1 4.1-7.1 4.1-11.4 0-10.3-8.3-18.5-18.4-18.5zM931.6 532.3c-5 0-9 4-9 9s4 9 9 9 9-4 9-9c0-4.9-4.1-9-9-9zM970.3 565.2c-11.1 0-20 9-20 20 0 .5.1 1 .1 1.4.8 10.4 9.3 18.5 19.9 18.5 11 0 20-8.9 20-20 0-3.8-1.1-7.4-3-10.4-3.6-5.6-9.8-9.5-17-9.5z"/></svg>