<svg xmlns="http://www.w3.org/2000/svg" viewBox="0 0 1500 1500"><path fill="#EB4D97" d="M1226.7 161.1s307.6 404.4 124 504.7c-183.6 100.3-234.7 192-234.7 192s365.2 233.8 215.9 420.8c-149.4 187-566.5-263.4-474.3-549.9 0 0-33.6 289.1 212.8 359 246.4 69.8 50-197.4-68.4-240.9 0 0 239.7-106.6 232.8-215.6C1228 522.3 1155 384 1155 384S914.4 519.3 860 684.2c0 0-16.1-105.9 164.4-268s202.3-255.1 202.3-255.1zM256.9 161.1s-307.6 404.4-124 504.7c183.6 100.3 234.7 192 234.7 192S2.4 1091.6 151.7 1278.6c149.4 187 566.5-263.4 474.3-549.9 0 0 33.6 289.1-212.8 359-246.4 69.8-50-197.4 68.4-240.9 0 0-239.7-106.6-232.9-215.6 6.8-108.9 79.9-247.3 79.9-247.3s240.6 135.4 295 300.3c0 0 16.1-105.9-164.4-268S256.9 161.1 256.9 161.1z"/><path fill="#C652B4" d="M743.8 333.4s-125.2-179.4 0-184c115.8-4.2 36.8 110.4 36.8 110.4s14.7-66.2-36.8-66.2c-51.6 0-22.1 110.3 0 139.8zM755.1 350.2c-.6-.7-.6-.7 0 0 20.5 37.8 36 84.1 27.6 131.1-9.1 51-44.4 79.8-66.8 119.9-69.3 123.9 3.7 265.6 49.1 379.2 44.8 111.9 112.4 295 56.5 420.4 48.5-108.7 53.3-233.4 25.1-349.5C819 937.2 748.4 839.2 757 715.9c4.7-67.7 43.3-120.3 53.6-185.8 10.8-68.5-16.4-135.1-55.5-179.9z"/><g fill="#FFC5D9"><path d="M550.6 827.4s96.9-153.7-43.4-237.2-150.3-160.3-150.3-160.3S229.9 637 417 730.6c0 0 66.8 40 133.6 96.8zM540.6 874.2s-210.5 120.3-143.6 167c66.8 46.8 143.6-167 143.6-167z"/></g><g fill="#FFC5D9"><path d="M948.6 827.4S851.7 673.7 992 590.2s150.3-160.3 150.3-160.3 126.9 207.1-60.1 300.6c.1.1-66.7 40.1-133.6 96.9zM958.7 874.2s210.4 120.3 143.6 167c-66.8 46.8-143.6-167-143.6-167z"/></g></svg>