<svg version="1" xmlns="http://www.w3.org/2000/svg" viewBox="0 0 150 150"><path fill="#E7B22F" d="M107.8 31.7c-7 0-12.7 5.7-12.7 12.7 0 3.4 1.4 6.5 3.6 8.8-11.3 10.2-17.9 23.8-21.3 33l.6-43.7c5.9-1.1 10.3-6.2 10.3-12.4 0-7-5.7-12.7-12.7-12.7-7 0-12.7 5.7-12.7 12.7 0 6.7 5.3 12.2 11.9 12.6l-.6 43.1c-5.5-15.4-16.6-29.3-21-34.4 1.3-2 2.1-4.4 2.1-7 0-7-5.7-12.7-12.7-12.7s-12.7 5.7-12.7 12.7S35.8 57 42.8 57c3.3 0 6.3-1.3 8.5-3.4 5.5 6.5 20.2 25.3 22.9 43.2l-.6 39.5h.4c.9 0 1.8.1 2.7.1l.6-39.8c.7-2.7 7-26.6 23.9-41.6 1.9 1.2 4.2 1.9 6.6 1.9 7 0 12.7-5.7 12.7-12.7-.1-6.8-5.7-12.5-12.7-12.5z"/><path fill="#3BB990" d="M128.1 62.6c-.1.1-22.5 12.3-31.2 23.4-9 11.4-13.4 27.1-15.2 35.4-1 4.4-3 10.2-5.6 15.1 2.3-.7 4.7-1.3 7.3-1.2 19.3.5 33.7-6.6 41.5-20.5 6.5-11.4 10.1-27.8 13.6-43.7 1.7-7.6 3.3-14.9 5.2-21.5-4.4 4.7-9.9 10-15.6 13zM88 128.3c30.5-29.6 43.5-63.2 43.5-63.2-6.7 49.4-43.5 63.2-43.5 63.2zM68.3 121.5c-1.8-8.3-6.2-24-15.2-35.4-8.7-11.1-31-23.3-31.2-23.4-5.7-3-11.2-8.2-15.5-13.1 1.9 6.6 3.5 13.9 5.2 21.5 3.5 15.9 7.1 32.2 13.5 43.7 7.9 13.9 22.2 21 41.5 20.5 2.6-.1 5 .4 7.3 1.2-2.6-4.8-4.6-10.6-5.6-15zM19.6 67.7s14.4 33 46 61.4c0-.1-37.2-12.4-46-61.4z"/></svg>