<svg version="1" xmlns="http://www.w3.org/2000/svg" viewBox="0 0 150 150"><path fill="none" d="M87.7 133c.2.1.3.1.5.1-.2 0-.3-.1-.5-.1zM86.9 132.6c.1.1.2.1.3.1-.1 0-.2 0-.3-.1zM86.1 132.2c.1 0 .1.1.2.1 0 0-.1-.1-.2-.1zM73.5 52.3l.3-.3c-.3 0-.3.1-.3.3zM84.8 131.1zM88.6 133.2c.3.1.6.1.9.2-.3 0-.6-.1-.9-.2zM86 127.8c0-.1 0-.2-.1-.3 0 .1 0 .2.1.3zM85.7 126.2v-.8.8zM71.9 68.9c-3.2 3.9-3.2 9.3.1 12.2l.2.2c3.4 2.8 8.6 1.9 11.9-1.8.1-.1.2-.2.3-.4 3.3-4 3.2-9.6-.3-12.4-.6-.5-1.3-.9-2-1.2-1.9-.7-4.1-.6-6.1.2-1.5.8-2.9 1.8-4.1 3.2zM85.8 125c0-.2 0-.4.1-.5-.1.1-.1.3-.1.5zM86 124.1c0-.2.1-.4.2-.6-.2.2-.2.4-.2.6zM85.4 131.7l.1.1c0-.1 0-.1-.1-.1zM84.2 130.4zM85.8 127v-.3.3zM86.5 122.2l-.3.9.3-.9z"/><path fill="none" d="M84.6 81.5C78.2 86 73.1 92.6 71.3 97.9c-.1.4-.2.7-.3 1.1-5.4-14.8-4.8-27.7-.4-39.5.9-2.4 1.9-4.7 3.1-7 0-.1-.1-.2-.1-.3-1.4 1.8-2.8 3.8-4.1 6-8 13.7-12.2 34.3-2.2 53.2 4 7.7 10 13.9 16.4 18.3-1.7-2.3-2.8-5.3-3.5-8.5 1.8 2.6 4 5.5 6.9 8.8-.4-.5-.6-1-.8-1.6-3.4-4-5.6-8.4-6.9-12.9-2.6-9.5-.7-19.5 5.4-27.1 3.8-4.7 9.1-8.6 15.9-10.8l2.1-.6c-.8-.2-1.5-.3-2.3-.3-5.7-.5-11.2 1.5-15.9 4.8z"/><path fill="#51C8E7" d="M86.1 123.5c-.1.2-.1.4-.2.6 0 .1-.1.2-.1.4s-.1.4-.1.5v2c0 .2.1.4.1.5 0 .1 0 .2.1.3 0 .2.1.4.2.6.2.6.5 1.1.8 1.6-2.9-3.3-5.1-6.2-6.9-8.8.7 3.2 1.8 6.2 3.5 8.5.2.3.4.5.6.7l.6.6.1.1c.2.2.4.4.6.5l.1.1c.2.2.4.3.6.4.1 0 .1.1.2.1l.6.3c.1.1.2.1.3.1.2.1.3.2.5.2.2.1.3.1.5.1.1 0 .3.1.4.1.3.1.6.1.9.2h-1.2c1.4.4 2.8.9 4.3 1.3-4.5-1.7-6-6.9-6.1-12.5l-.3.9c0 .4-.1.5-.1.6z"/><path fill="#E92179" d="M43.6 89.3c-3.1-17 6.1-30.5 18-41.1-3.6-5.6-5.9-11.9-1.7-16.4-4.5 5-9.4 9.7-13.8 14.8-12.9 15.3-24.7 34.9-15.4 55.2 5.1 11.3 16 19.5 26.9 25 5.7 2.7 13.6 6 30.7 6.6-14.1-4.6-20.4-9.3-24.9-13.1-9.1-8.1-17.6-18.7-19.8-31z"/><path fill="#54C7E6" d="M73.5 52.3c0-.1 0-.3.3-.3l-.3.3c0 .1 0 .2.1.3-1.2 2.3-2.2 4.6-3.1 7 1.8 2.1 3.7 4.2 5.5 6.4 2-.8 4.2-.9 6.1-.2 3.3-2.6 7.1-4.5 11.2-6-.4-.8-.8-1.6-1.2-2.5-3.2-6.8-11.7-22.5-2.7-28.3-5.6 3.7-11.5 7-17 10.9-3.6 2.6-7.3 5.4-10.7 8.4 2.5 4 5.7 7.6 7.7 10 1.3-2.2 2.6-4.2 4.1-6z"/><path fill="#4A276D" d="M70.9 99c.1-.4.2-.7.3-1.1-.8-5.6-.7-11.4.7-16.8-3.2-2.9-3.3-8.3-.1-12.2 1.2-1.4 2.6-2.4 4.1-3-1.8-2.1-3.7-4.2-5.5-6.4-4.3 11.8-4.9 24.8.5 39.5z"/><path fill="#4A276D" d="M88.6 133.2c-.1 0-.3-.1-.4-.1-.2 0-.3-.1-.5-.1-.2-.1-.3-.1-.5-.2-.1 0-.2-.1-.3-.1l-.6-.3c-.1 0-.1-.1-.2-.1-.2-.1-.4-.3-.6-.4l-.1-.1c-.2-.2-.4-.3-.6-.5l-.1-.1-.6-.6c-.2-.2-.4-.5-.6-.7-6.5-4.4-12.4-10.6-16.4-18.3-9.9-18.8-5.8-39.5 2.2-53.2-2-2.4-5.2-6.1-7.7-10-11.9 10.6-21.1 24.1-18 41.1 2.2 12.2 10.6 22.8 19.8 30.9 4.5 3.8 10.8 8.6 24.9 13.1h1.2l-.9-.3z"/><path fill="#F17A21" d="M114.6 56.1c-7.1.3-14.5 1.3-21.2 3.6 2.7 5.5 5.8 11 7.1 16.9.8.1 1.5.2 2.3.3l-2.1.6c.2 1.3.4 2.6.4 3.9.1 10.1-8.1 17.1-11.7 25.9-1.4 3.3-2.8 9.2-2.7 14.8 1.9-5.1 6.9-10.3 10-12.4 6.3-4.4 15-5.7 19.4-12.6 3.8-6.1 3.7-13.6 4.6-20.5.8-6 1.8-20.5 10.5-20.6-5.7.2-11.2-.1-16.6.1z"/><path fill="#4D612C" d="M84.2 66.8c3.5 2.8 3.6 8.4.3 12.4-.1.1-.2.2-.3.4 0 .1.1.2.1.3.2.6.3 1.1.4 1.7 4.7-3.3 10.2-5.4 15.8-4.9-1.2-5.9-4.3-11.4-7.1-16.9-4.1 1.4-7.9 3.3-11.2 6 .7.1 1.4.5 2 1zM100.9 81.5c0-1.3-.1-2.7-.4-3.9-6.8 2.2-12.2 6-15.9 10.8-1 6.6-4.3 12.9-5.2 19.5-.3 1.9-.4 4.7-.1 7.6 1.2 4.5 3.5 8.9 6.9 12.9-.1-.2-.1-.4-.2-.6 0-.1 0-.2-.1-.3 0-.2-.1-.4-.1-.5v-.3-.5-.8-.4c0-.2 0-.4.1-.5 0-.1 0-.2.1-.4 0-.2.1-.4.2-.6 0-.1.1-.2.1-.3l.3-.9c-.1-5.5 1.3-11.5 2.7-14.8 3.5-8.8 11.7-15.9 11.6-26z"/><path fill="#441214" d="M72.2 81.3c-.1-.1-.2-.1-.2-.2-1.5 5.4-1.5 11.2-.7 16.8 1.8-5.3 6.9-11.9 13.3-16.4-.1-.6-.2-1.1-.4-1.7 0-.1-.1-.2-.1-.3-3.3 3.8-8.5 4.6-11.9 1.8zM79.2 115.5c-.2-2.9-.2-5.6.1-7.6.9-6.6 4.2-13 5.2-19.5-5.9 7.6-7.9 17.6-5.3 27.1z"/><path fill="#E92179" d="M98.4 124.2c-3.3 0-5.9 2.6-5.9 5.9 0 3.3 2.6 5.9 5.9 5.9s5.9-2.6 5.9-5.9c0-3.3-2.6-5.9-5.9-5.9z"/><path fill="#54C7E6" d="M111.2 121.1c-1.8 0-3.3 1.5-3.3 3.3 0 1.8 1.5 3.3 3.3 3.3 1.8 0 3.3-1.5 3.3-3.3 0-1.8-1.4-3.3-3.3-3.3z"/><path fill="#F17A21" d="M119.7 117.5c-.8 0-1.5.7-1.5 1.5s.7 1.5 1.5 1.5 1.5-.7 1.5-1.5-.7-1.5-1.5-1.5z"/><circle fill="#157D67" cx="126" cy="112.9" r=".9"/><path fill="#157D67" d="M140.3 70.2c0-36.1-29.3-65.4-65.4-65.4-36.2 0-65.5 29.3-65.5 65.4 0 36.1 29.3 65.4 65.4 65.4 3.6 0 7.2-.3 10.7-.9-1.9.2-3.9.3-5.9.3-31.8 0-58.4-26.6-58.4-58.4 0-31.8 26.6-58.4 58.4-58.4S138 44.8 138 76.6c0 8.9-2.1 17.3-5.8 24.9 5.2-9.3 8.1-20 8.1-31.3z"/></svg>