<svg xmlns="http://www.w3.org/2000/svg" width="100" height="100" viewBox="0 0 100 100"><path fill="#6FC6B1" d="M20.877 31.427c-4.231-5.633-6.434-13.912-.518-15.191 6.186-1.338 6.991 6.751 3.321 14.952-2.167.416-2.803.239-2.803.239z"/><path fill="#6FC6B1" d="M22.981 30.752c2.767-6.477 8.835-12.522 12.899-8.035 4.25 4.69-2.355 9.428-11.293 10.347-1.441-1.672-1.606-2.312-1.606-2.312z"/><path fill="#6FC6B1" d="M24.614 32.244c6.995-.84 15.267 1.394 13.409 7.156-1.94 6.025-9.346 2.673-14.603-4.612.723-2.089 1.194-2.544 1.194-2.544z"/><path fill="#6FC6B1" d="M24.143 34.399c4.224 5.641 6.414 13.919.499 15.191-6.19 1.327-6.983-6.764-3.301-14.956 2.17-.415 2.802-.235 2.802-.235z"/><path fill="#6FC6B1" d="M22.039 35.069c-2.775 6.474-8.855 12.507-12.911 8.017-4.247-4.698 2.367-9.425 11.309-10.328 1.441 1.673 1.602 2.311 1.602 2.311z"/><path fill="#6FC6B1" d="M20.41 33.578c-6.999.829-15.261-1.42-13.396-7.179 1.947-6.025 9.346-2.654 14.598 4.639-.731 2.082-1.202 2.54-1.202 2.54zM52.316 20.24c-4.232-5.633-6.438-13.912-.523-15.188C57.98 3.71 58.789 11.801 55.118 20c-2.171.417-2.802.24-2.802.24z"/><path fill="#6FC6B1" d="M54.415 19.565c2.771-6.477 8.84-12.522 12.903-8.036 4.25 4.691-2.355 9.429-11.294 10.348-1.443-1.672-1.609-2.312-1.609-2.312z"/><path fill="#6FC6B1" d="M56.052 21.057c6.992-.84 15.262 1.394 13.406 7.156-1.939 6.029-9.343 2.673-14.603-4.612.726-2.089 1.197-2.544 1.197-2.544z"/><path fill="#6FC6B1" d="M55.581 23.212c4.221 5.641 6.414 13.919.495 15.19-6.19 1.328-6.984-6.763-3.302-14.955 2.172-.416 2.807-.235 2.807-.235z"/><path fill="#6FC6B1" d="M53.474 23.883c-2.771 6.473-8.855 12.506-12.911 8.016-4.243-4.699 2.372-9.425 11.308-10.329 1.441 1.673 1.603 2.313 1.603 2.313z"/><path fill="#6FC6B1" d="M51.844 22.391c-6.994.829-15.261-1.421-13.396-7.18 1.951-6.025 9.351-2.653 14.598 4.64-.73 2.081-1.202 2.54-1.202 2.54z"/><g><path fill="#4E61AB" d="M34.502 93.424c6.972.232 11.301-8.604 9.582-15.808-1.72-7.203-.754-14.613.949-22.472 1.705-7.855 1.457-15.945-4.042-22.084 0 0-3.721-3.184-8.684-2.41l-.172-.09c-5.005-.385-8.471 3.082-8.471 3.082-5.001 6.543-4.616 14.63-2.308 22.331 2.308 7.702 3.851 15.014 2.696 22.331-1.154 7.316 3.847 15.784 10.779 15.015l-.329.105z"/></g><g><path fill="#FFF" d="M34.671 92.184h-.259l-.012-.075c-.055.004-.11.004-.161.008l-.028-.656c.161-.008.322-.02.487-.039l.023.106c.436-.007.86-.048 1.272-.125l.125.647a7.798 7.798 0 0 1-1.429.133c.001.001-.01.001-.018.001zm-3.784-.675l.26-.604c.479.204.98.357 1.499.451l-.118.644a7.777 7.777 0 0 1-1.641-.491zm6.606-.573a7.16 7.16 0 0 0 1.367-.776l.385.541a8.704 8.704 0 0 1-1.488.841l-.264-.606zm-9.425-1.319l.459-.476c.385.377.797.711 1.229 1.005l-.37.542a9.805 9.805 0 0 1-1.318-1.071zm12.467-.024l-.471-.463a9.951 9.951 0 0 0 1.024-1.221l.538.385a11.09 11.09 0 0 1-1.091 1.299zm-14.532-2.638l.566-.33c.274.468.573.911.895 1.328l-.522.404c-.341-.44-.655-.911-.939-1.402zm15.93-.408c.247-.467.468-.954.664-1.459l.612.235c-.2.529-.436 1.044-.698 1.534l-.578-.31zm-17.271-2.674l.627-.191c.157.518.346 1.021.558 1.507l-.604.263c-.22-.511-.417-1.04-.581-1.579zm19.061-.152l-.636-.164c.133-.515.235-1.045.313-1.574l.652.09a14.341 14.341 0 0 1-.329 1.648zm-19.681-3.148l.655-.051c.039.537.11 1.066.208 1.598l-.647.117a14.563 14.563 0 0 1-.216-1.664zm20.155-.177l-.654-.02c.003-.141.007-.285.007-.427 0-.393-.015-.789-.051-1.174l.656-.06c.034.409.05.821.05 1.233 0 .148 0 .298-.008.451v-.003zm-20.179-1.511c.02-.482.071-.97.149-1.448.012-.075.02-.145.032-.22v.004l.652.094c-.012.075-.02.149-.036.225-.071.454-.118.914-.137 1.378l-.66-.033zM43.2 76.91a25.67 25.67 0 0 1-.285-1.338l.643-.126c.086.439.181.875.282 1.314.024.095.044.188.063.287h.004l-.648.137a2.865 2.865 0 0 0-.059-.274zm-18.805-1.306a32.83 32.83 0 0 0 .11-1.625l.66.027a33.082 33.082 0 0 1-.114 1.661l-.656-.063zm18.068-3.326l.655-.059c.043.541.106 1.08.182 1.621l-.652.091a26.108 26.108 0 0 1-.185-1.653zM24.48 70.72v-.003l.66-.032c.031.55.047 1.107.05 1.661l-.659.003a30.618 30.618 0 0 0-.051-1.629zm17.854-1.57v-.193l.655.005v.188c0 .479.007.961.026 1.444l-.654.023a37.706 37.706 0 0 1-.027-1.467zm-18.159-1.683l.651-.083c.075.549.137 1.095.188 1.645l-.652.063a57.35 57.35 0 0 0-.187-1.625zm18.853-.138l-.656-.028c.023-.55.056-1.099.103-1.652l.656.051a45.78 45.78 0 0 0-.099 1.63h-.004v-.001zm-19.395-3.086l.644-.129c.109.541.212 1.086.302 1.629l-.647.109c-.095-.537-.189-1.071-.299-1.609zm19.65-.173h.004-.004zm-.651-.069a49.59 49.59 0 0 1 .203-1.646l.652.095a86.472 86.472 0 0 0-.204 1.621l-.651-.07zm-19.721-2.957l.64-.157c.133.538.263 1.072.381 1.605l-.636.146a64.598 64.598 0 0 0-.385-1.594zm20.816-.216l-.647-.105c.086-.542.18-1.084.282-1.63l.647.118c-.098.541-.191 1.08-.277 1.617h-.005zm-21.668-2.951l.632-.182c.153.53.302 1.061.443 1.591l-.636.172c-.145-.525-.29-1.052-.439-1.581zm21.609-.404c.11-.539.22-1.076.338-1.613l.643.137c-.113.533-.223 1.071-.333 1.605l-.648-.129zM21.148 54.7l.636-.161c.141.522.287 1.049.44 1.57l-.628.189a39.08 39.08 0 0 1-.448-1.598zm23.187-.451c.103-.533.196-1.067.274-1.609l.648.098a38.282 38.282 0 0 1-.271 1.638l-.651-.127zm-23.878-2.794l.647-.106c.087.533.188 1.067.307 1.602l-.644.138a34.281 34.281 0 0 1-.31-1.634zm24.357-.429c.055-.546.094-1.087.125-1.625l.655.032a27.763 27.763 0 0 1-.129 1.656l-.651-.063zm-24.73-2.873l.656-.035c.031.533.078 1.075.137 1.617l-.652.075a27.423 27.423 0 0 1-.141-1.657zm24.836-2.006l.659-.044c.035.554.055 1.107.055 1.665l-.655.004a25.127 25.127 0 0 0-.059-1.625zm-24.875.338a22.89 22.89 0 0 1 .078-1.664l.651.051a24.826 24.826 0 0 0-.07 1.621l-.659-.008zm24.432-3.548l.645-.138c.117.542.211 1.092.286 1.645l-.651.091a22.992 22.992 0 0 0-.28-1.598zm.93 1.506v.005-.005zM20.32 43.156c.09-.545.2-1.094.337-1.636l.636.161a19.61 19.61 0 0 0-.321 1.586l-.652-.111zm23.215-3.305l.607-.247c.209.518.397 1.044.558 1.578l-.632.193a15.68 15.68 0 0 0-.533-1.524zm-22.403.063a19.6 19.6 0 0 1 .624-1.554l.601.274c-.224.491-.424.989-.601 1.5l-.624-.22zm20.923-2.932l.557-.354c.304.476.581.958.833 1.453l-.581.302a17.515 17.515 0 0 0-.809-1.401zm-19.529-.114c.274-.479.573-.95.899-1.414l.538.381c-.314.443-.605.899-.868 1.362l-.569-.329zm17.845-2.112s-.099-.083-.299-.227l.388-.534c.216.157.331.259.37.294.286.318.554.639.812.97l-.519.408a18.557 18.557 0 0 0-.752-.911zm-15.745-.558c.349-.27.825-.601 1.405-.93l.33.569c-.554.314-1.001.628-1.335.883l-.4-.522zm12.62-1.153l.224-.62c.581.212 1.099.447 1.55.679l-.008.004-.302.581c-.42-.22-.911-.444-1.464-.644zm-11.215.219h.004l-.004.004v-.004zm1.527-.73a11.494 11.494 0 0 1 1.618-.506l.145.644c-.542.122-1.052.287-1.52.471l-.243-.609zm6.571-.098l.02-.659c.594.02 1.159.09 1.688.196l-.125.644a9.66 9.66 0 0 0-1.583-.181zm-1.95.071l-.094-.051a9.034 9.034 0 0 0-.652-.023c-.18 0-.36.004-.537.016l-.039-.656c.191-.016.38-.02.576-.02.251 0 .507.011.762.032l.066.003.063.031.063.036a.422.422 0 0 1 .066-.008l.008.043.023.016-.02.036.078.553c-.051.012-.106.02-.161.028l-.105.016-.097-.052zm3.657-.534v-.003.003z"/></g><g><path fill="#6FC6B1" d="M22.883 66.305c.043-9.006 1.782-17.606 5.696-21.856 1.319-1.41 3.03-2.344 4.957-2.336.154 0 .307.005.452.016 3.391.263 6.061 2.874 7.842 6.583 1.803 3.74 2.827 8.769 2.831 14.54 0 1.581-.079 3.214-.239 4.897l-2.622-.255c.157-1.598.228-3.147.228-4.643.004-5.453-.994-10.141-2.567-13.398-1.589-3.289-3.651-4.973-5.676-5.095-.087-.012-.165-.012-.248-.012-1.087.004-2.045.467-3.042 1.512-.985 1.036-1.904 2.645-2.649 4.663-1.507 4.035-2.332 9.637-2.328 15.384 0 .698.012 1.404.035 2.111h.004l-2.634.09a57.855 57.855 0 0 1-.04-2.201z"/></g><g><path fill="#FFF" d="M33.646 69.013c.047-.016.063-.048.043-.103-.034.025-.046.055-.043.103zm.103-.255l.114-.004c-.059-.126-.095-.122-.114.004zM33.799 66.689c.043-.048.036-.071-.028-.071l.028.071zm.318.278c.047-.051.047-.117.012-.191-.067.038-.07.105-.012.191zm.059.205c.047-.048.041-.07-.023-.075l.023.075zm.232.082c.047-.039.039-.062-.027-.066l.027.066zm.239.321c.055-.058.06-.125.024-.199a.223.223 0 0 0-.024.199zm.102-.047l.052-.02c-.032-.077-.052-.073-.052.02zm.099-.039c.153-.152.137-.208-.043-.169l.043.169zm.412-1.071c.042-.047.034-.074-.032-.074l.032.074zm.086-.086l.07-.008c-.039-.063-.062-.063-.07.008zm.048.172c.042-.039.039-.059-.024-.055l.024.055zm.926.334c.042-.047.034-.07-.024-.074l.024.074z"/></g><path fill="#4E61AB" d="M92.154 72.836c5.534-4.244 3.277-13.821-2.622-18.297-5.904-4.479-9.857-10.817-13.527-17.97-3.667-7.156-8.988-13.255-17.135-14.508 0 0-4.898-.098-8.242 3.643l-.186.043C46.329 28.625 45.85 33.5 45.85 33.5c.283 8.235 5.708 14.242 12.378 18.728 6.672 4.487 12.502 9.162 16.25 15.553 3.749 6.387 12.993 9.755 17.861 4.765l-.185.29z"/><path fill="#FFF" d="M84.754 73.971l.052-.656c.264.024.526.032.785.032.271 0 .537-.008.805-.035l.059.659a10.81 10.81 0 0 1-.863.039c-.28 0-.559-.012-.838-.039zm-3.289-.75l.232-.616c.506.192 1.017.345 1.53.467l-.146.64a12.863 12.863 0 0 1-1.616-.491zm6.481-.197c.501-.149.985-.35 1.448-.604l.317.576a7.807 7.807 0 0 1-1.581.656l-.184-.628zm-6.481.197zm-2.99-1.532l.364-.549c.447.297.915.573 1.386.816l-.299.585a14.914 14.914 0 0 1-1.451-.852zm12.199-.176c.121-.109.239-.228.361-.345l.083.066a6.77 6.77 0 0 0 .906-.91l.506.424c-.36.427-.77.828-1.24 1.185l-.051-.047c-.043.039-.082.078-.126.114l-.439-.487zm-14.771-1.986l.479-.452c.369.389.762.754 1.169 1.1l-.424.506a15.157 15.157 0 0 1-1.224-1.154zm16.985-.51a7.58 7.58 0 0 0 .565-1.472l.636.172a8.396 8.396 0 0 1-.616 1.598l-.585-.298zm-18.869-1.982a17.92 17.92 0 0 0-.117-.201l.565-.338.117.204c.235.394.486.778.761 1.146l-.525.393a12.33 12.33 0 0 1-.801-1.204zm19.71-1.049c.027-.294.042-.593.042-.892 0-.235-.011-.467-.022-.702l.654-.043c.021.247.024.494.027.745a10.4 10.4 0 0 1-.047.95l-.654-.058zM72.08 64.137l.525-.396c.333.443.656.895.966 1.354l-.546.365c-.302-.447-.62-.887-.945-1.323zm-2.085-2.503l.487-.444c.372.408.737.824 1.091 1.248l-.506.424a29.611 29.611 0 0 0-1.072-1.228zm23.125-.378l.623-.208c.181.537.326 1.079.437 1.625l-.647.133a12.398 12.398 0 0 0-.413-1.55zM67.695 59.32v-.003l.447-.482c.408.38.801.761 1.193 1.152l-.467.465a39.332 39.332 0 0 0-1.173-1.132zm24.077-.98l.562-.341c.295.482.559.98.794 1.487l-.601.274a14.322 14.322 0 0 0-.755-1.42zm-26.546-1.174l.421-.51c.427.353.851.71 1.263 1.071l-.432.494a58.855 58.855 0 0 0-1.252-1.055zM89.81 55.8l.473-.459c.388.4.757.828 1.103 1.271l-.522.401A13.982 13.982 0 0 0 89.81 55.8zm-27.167-.644l.394-.529c.443.329.883.662 1.314 1l-.404.518a73.039 73.039 0 0 0-1.304-.989zm25.757-.6a34.001 34.001 0 0 1-1.078-.855l.424-.507c.341.286.694.565 1.052.836l.231.177-.408.521c-.074-.059-.145-.118-.221-.172zm.629-.35v.004-.004zm-29.059-.957l.377-.546c.455.313.903.632 1.35.95l-.38.537a69.996 69.996 0 0 0-1.347-.941zm24.914-1.811l.476-.459c.38.389.765.77 1.166 1.138l-.451.479a30.171 30.171 0 0 1-1.191-1.158zm-27.631-.066l.393-.534c.436.321.88.633 1.335.938l-.368.546c-.461-.31-.916-.624-1.36-.95zm-2.591-2.073l.432-.493c.409.353.825.706 1.253 1.04l-.412.521a36.656 36.656 0 0 1-1.273-1.068zm28.021-.341l.51-.416c.346.424.694.836 1.056 1.244v.005l-.49.432a38.922 38.922 0 0 1-1.076-1.265zm-28.021.341zm-2.387-2.32h.005l.487-.443c.36.396.741.785 1.13 1.165l-.459.472a29.738 29.738 0 0 1-1.163-1.194zm28.417-.67l.541-.377c.314.451.633.892.958 1.326l-.53.394c-.326-.441-.65-.888-.969-1.343zm-30.496-1.928l.542-.373c.305.44.627.875.969 1.299l-.515.409c-.348-.437-.682-.88-.996-1.335zm28.69-.84l.562-.345c.287.466.578.926.872 1.382l-.551.356a53.042 53.042 0 0 1-.883-1.393zM48.52 41.492l.594-.282c.23.487.482.966.757 1.428l-.569.334a19.02 19.02 0 0 1-.782-1.48zm28.702-.809l.573-.318c.271.479.538.954.816 1.425h-.008l-.565.33c-.274-.471-.546-.95-.816-1.437zm-29.856-2.331l.635-.169c.142.521.302 1.036.487 1.539l-.617.227a18.754 18.754 0 0 1-.505-1.597zm28.302-.578l.584-.306c.252.494.507.977.767 1.456h-.005l-.581.31c-.255-.483-.515-.968-.765-1.46zm-28.302.578zm-.554-3.302h-.005l.66-.05c.041.545.107 1.08.193 1.605l-.651.106a17.488 17.488 0 0 1-.197-1.661zm27.281-.145l.565-.342c.282.479.559.958.824 1.444l-.576.315a57.826 57.826 0 0 0-.813-1.417zm-1.802-2.717l.53-.392c.325.447.644.903.95 1.362l-.546.365a36.496 36.496 0 0 0-.934-1.335zm-25.346 1.131c.098-.436.259-.993.494-1.617l.617.235a12.16 12.16 0 0 0-.472 1.531l-.639-.149zm23.27-3.634l.479-.452c.377.404.747.825 1.104 1.252l-.506.42a26.94 26.94 0 0 0-1.077-1.22zm-22.057.482c.26-.468.565-.946.931-1.413h.003l.52.404c-.346.44-.637.887-.88 1.327l-.574-.318zm19.675-2.681l.411-.518c.437.345.856.71 1.265 1.087l-.443.487a21.49 21.49 0 0 0-1.233-1.056zm-17.595.016c.314-.29.664-.573 1.037-.836l.059-.039.063-.012.074-.016.047-.051.035.032h.021l.007.027.42.389c-.039.043-.074.082-.113.122l-.072.082-.105.02-.114.027c-.329.236-.631.483-.914.738l-.445-.483zm14.909-1.806l.313-.577c.49.267.97.554 1.434.864l-.37.549a16.876 16.876 0 0 0-1.377-.836zm-12.373-.294c.467-.357.951-.659 1.43-.918l.306.581c-.447.24-.895.526-1.335.86l-.401-.523zm9.414-.985l.203-.624c.534.172 1.057.373 1.566.588l-.263.604c-.486-.207-.993-.4-1.506-.568zM55.75 23.8a12.362 12.362 0 0 1 1.63-.456v-.004l.133.648a12.01 12.01 0 0 0-1.542.432l-.221-.62zm3.689-.035c-.055 0-.168 0-.341.012l-.039-.659c.184-.008.317-.012.38-.012.036 0 .056.004.083.004.424.067.844.146 1.252.24l-.145.64a16.942 16.942 0 0 0-1.19-.225z"/><g><path fill="#6FC6B1" d="M56.477 39.467c-.021-2.363.804-4.605 2.736-5.955 1.287-.911 2.834-1.334 4.454-1.331 6.207.082 13.881 5.617 20.114 14.822l-2.187 1.468c-5.853-8.812-13.357-13.738-17.928-13.656-1.185 0-2.143.291-2.936.849-1.084.776-1.602 1.947-1.621 3.804-.059 4.808 4.291 12.996 10.257 19.713v.004l-1.975 1.734c-6.18-7.081-10.852-15.309-10.914-21.452z"/></g><path fill="#9FD1E4" d="M33.184 39.894l.729 2.246h2.36l-1.909 1.389.731 2.245-1.911-1.389-1.913 1.389.731-2.245-1.908-1.389h2.359zM57.219 32.299l2.072 1.126 1.711-1.625-.428 2.324 2.077 1.127-2.344.306-.427 2.324-1.017-2.131-2.343.305 1.71-1.624z"/></svg>