<svg version="1" xmlns="http://www.w3.org/2000/svg" viewBox="0 0 150 150"><path fill="#003C76" d="M57 113.4c-.9-.8-10.9-9.8-19.5-11.6-.4 3.1-2.6 5.9-5.8 6.7-4.2 1.1-8.5-1.4-9.6-5.6s1.4-8.5 5.6-9.6c3.5-.9 6.9.7 8.7 3.6 7.4.7 15.6 6.4 20.2 10-.7-7.5-2.3-14.5-5.4-19.9l-1.5.6c-5.1 1.3-10.4-1.8-11.7-6.9-1.3-5.1 1.8-10.4 6.9-11.7 5.1-1.3 10.4 1.8 11.7 6.9.8 2.9 0 5.9-1.7 8.2 2.9 4.8 4.7 10.8 5.7 17.1 2.5-2.9 6.1-6.6 10.5-10.2l-.5-.4c.3-.5 7.8-11.9-2.6-27.9-2.9.5-5.8-1.3-6.5-4.3-.8-3.1 1.1-6.3 4.2-7.1 3.1-.8 6.3 1.1 7.1 4.2.4 1.7.1 3.3-.8 4.7 6.7 10.2 6.9 19 5.7 25 .4-.6.9-1.2 1.4-1.9.8-2.4 7-21.1 5.8-39.8-2.3-.4-4.3-2.1-4.9-4.6-.9-3.3 1.1-6.8 4.5-7.6 3.3-.9 6.7 1.1 7.6 4.5.7 2.6-.4 5.3-2.6 6.7.8 10.4-.6 20.6-2.2 28.5 7.9-12.7 17.3-30.1 19.1-43.7-4.6-.4-8.7-3.6-10-8.3-.4-1.4-.4-2.8-.3-4.2H27.4c-5 0-9 4-9 9V129c0 5 4 9 9 9h28.1c.9-7.1 1.8-15.9 1.5-24.6z"/><path fill="#0058A2" d="M123.6 14.9h-2.7c.1 5.1-3.1 9.7-7.9 11.5-.3 2.8-.9 5.8-1.7 8.9-.6-.1-1.2-.3-1.8-.4-1.7 6.5-4.5 13.3-7.8 19.9 3.7-2.3 8.3-4.4 12.5-4.5.7-1.6 2.1-2.9 3.9-3.4 3.2-.8 6.4 1.1 7.3 4.3.8 3.2-1.1 6.4-4.3 7.3-2.9.8-5.9-.8-7-3.5-6.1.3-14.3 6.6-17.3 9.2l-.1-.1c-3.9 6.8-7.8 13-11 17.8 5.1-2.3 10.8-3.8 16.7-3.9.4-2.9 2.5-5.3 5.5-6.1 4-1 8 1.4 9 5.3 1 4-1.4 8-5.3 9-3.3.9-6.7-.7-8.3-3.6-8.7-.2-16.8 3.4-23.5 7.9 3.9 1.2 9.2 3 12.9 5 .9-.8 1.9-1.5 3.2-1.8 4-1 8.2 1.4 9.2 5.4s-1.4 8.2-5.4 9.2-8.2-1.4-9.2-5.4c-.3-1.2-.3-2.3-.1-3.4-3.3-1.8-9.6-4-15.3-5.6-6.7 5.4-11.6 11.2-13.6 13.7.8 10.6 0 21.6-1.2 30.5h63.4c5 0 9-4 9-9V23.9c-.1-5-4.1-9-9.1-9zM104.3 5.4c6-1.5 12.1 2 13.6 8 .1.5.2 1 .3 1.4h2.7c0-1-.1-1.9-.4-2.9-1.7-6.5-8.3-10.4-14.8-8.7-4 1-7.1 4-8.4 7.7 1.4-2.6 3.9-4.7 7-5.5z"/><path fill="#0058A2" d="M111 26.7c-.3 2.6-.8 5.4-1.6 8.2.6.1 1.2.2 1.8.4.8-3 1.4-6 1.7-8.9 4.9-1.8 8-6.4 7.9-11.5h-2.7c.7 5.1-2.3 10-7.1 11.8z"/></svg>