<svg version="1" xmlns="http://www.w3.org/2000/svg" viewBox="0 0 150 150"><path fill="#DB4E85" d="M132.6 58.4c-.6-1.9 4.9-21.9-13.9-25.6-3.9-.8-9 .7-14.2 3.7 1.3-5.8 1.2-11.1-.8-14.5C94.3 5.2 77 16.6 75 16.6S55.7 5.1 46.3 21.9c-2 3.5-2.1 8.9-.9 14.8-5.2-3.1-10.3-4.6-14.2-3.8C12.4 36.6 18 56.6 17.4 58.5c-.6 1.9-16.8 14.8-3.8 28.9 2.7 2.9 7.8 4.7 13.8 5.4-4.5 4-7.6 8.4-8 12.3-2.2 19.1 18.5 20 20.1 21.1 1.6 1.2 8.9 20.6 26.3 12.6 3.6-1.7 6.9-5.9 9.4-11.4 2.4 5.5 5.6 9.8 9.2 11.4 17.5 8 24.7-11.5 26.3-12.6 1.6-1.2 22.3-2.1 20.1-21.2-.5-4-3.5-8.4-8-12.4 6-.6 11-2.3 13.7-5.3 13-14.1-3.3-27-3.9-28.9zM107 82.6c.1 3.1 1 5.5 2 7.4 0 0 .8 1.5 1.3 2.2.8 1-2.4 2.4-3.9 2.3 5.5 4.8 10 9.8 11.8 14.3-4-.4-8.9-2.6-14-5.6-.8.7-2 .1-2.2 1.4-.2 1.4-.8 5.2-4.5 3.8-1.3-.5-2.3-.9-4.1-1.9-2.9-1.6-4.7-2.1-5.8-3.6 0 0-.4 9.8.9 17.8-.1 0-.2-.1-.3-.1.1 3.3-.1 6.3-.9 8.6-2.6-2.5-4.8-6.6-6.7-11.4-4.7-2.1-9.2-4.6-13.3-7.7-.1-.1-.2-.1-.2-.2-.1 0-.1-.1-.2-.1-2.9 7.8-6.5 14.8-10.6 18.3-1.4-5.8.2-14.6 2.9-23.5-.9-.7-1.8-1.4-2.6-2-1.8-1.5-4.2-4.2-6.8-7.7-8.5 5.3-17.5 9.5-23.8 9.5 2.8-5.7 10.6-11.8 19-17.1-.7-1.2-1.4-2.5-2-3.8h-.1l.1-.1c-.7-1.5-1.4-3.1-2.1-4.6-8.6-.4-17.8-1.4-24.5-4.2 5.6-2 13.9-3 22.2-3.2-.8-3.5-1.2-6.9-.8-10.2.3-3.1 1.2-6 2.4-8.5-4.7-4.6-8.3-9.2-9.8-13.4 4.3.6 9.4 3.2 14.7 6.9C49 42.6 54 40 59.6 38.4c-1.2-6.8-1.6-13.2-.3-17.6 3.4 3.2 6.3 9.1 8.5 15.9 1.3-.2 2.6-.3 4-.4 4.3-.3 7.8.4 10.7 1.4 2.9-6.7 6.4-12.4 10.1-15.4 1 5.1-.3 12.4-2.7 20.1 2.9 2.8 4.1 5.5 4.1 5.5s3.3.6 6.6 2.4c6.7-4.3 13.4-7.4 18.5-7.8-1.9 4.5-6.7 9.4-12.4 14 1.2 2.4 2.1 5.4 2.4 9.5.1 2.3-.2 4.5-.8 6.4 0 .4-.1.8-.2 1.2 8.6 1.1 16.6 3.1 21 6.4-4.9 2.7-13.4 3.2-22.1 2.6z"/><path fill-rule="evenodd" clip-rule="evenodd" fill="#9E1E5B" d="M106.8 56.7c5.8-4.6 10.5-9.6 12.4-14-5.1.3-11.8 3.5-18.5 7.8l1.5.9c1.7 1.3 3.3 3 4.6 5.3zM45 46.3c-5.3-3.6-10.5-6.3-14.7-6.9 1.4 4.1 5.1 8.8 9.8 13.4 1.2-2.5 2.9-4.7 4.9-6.5zM25.9 104.5c6.4 0 15.4-4.2 23.8-9.5-1.6-2.2-3.3-4.8-4.8-7.6-8.4 5.3-16.1 11.4-19 17.1zM56.2 128.2c4.1-3.5 7.7-10.5 10.6-18.3-2.5-1.6-5.3-3.4-7.6-5.2-2.8 8.9-4.4 17.8-3 23.5zM92.7 22.4c-3.7 3-7.2 8.7-10.1 15.4 3.2 1.2 5.7 3 7.5 4.7 2.3-7.6 3.6-15 2.6-20.1zM42.8 83.6h.1s0-.1-.1 0c0-.1 0 0 0 0zM16.3 74.7c6.8 2.7 15.9 3.8 24.5 4.2-1-2.4-1.8-4.9-2.3-7.4-8.3.2-16.6 1.2-22.2 3.2zM59.3 20.9c-1.3 4.4-1 10.8.3 17.6 2.7-.8 5.4-1.3 8.3-1.7-2.3-6.8-5.2-12.7-8.6-15.9zM105.7 98.1s-.3 2.1-1.9 2.1c0 0 1.2 1.6.4 2.7-.1.1-.2.2-.2.3 5.1 3.1 10 5.2 14 5.6-1.7-4.5-6.3-9.5-11.8-14.3-.1.2-1.5 1.6-.5 3.6zM107.8 75.6c-.4 1.6-.6 3-.7 4.2.4-.2.7-.4.7-.4-.2.3-.5.5-.7.7v.2c.9-.4 1.5-.8 1.5-.8-.4.5-.9.9-1.4 1.2 1.2-.3 2.4-1.1 2.4-1.1-.6.7-1.3 1.2-2 1.4 1.3-.1 2.6-.7 2.6-.7-.7.6-1.4.9-2.1 1 1.3.3 2.9 0 2.9 0-1.6.8-3.1.5-4 .2v1c8.8.6 17.2.1 22.3-2.4-4.5-3.3-12.5-5.3-21-6.4-.2.7-.3 1.3-.5 1.9zM80.5 117.9c1.9 4.8 4.2 8.9 6.7 11.4.7-2.4 1-5.4.9-8.6-2.5-.8-4.9-1.6-7.4-2.6-.1-.1-.1-.2-.2-.2z"/><path fill="#343433" d="M109.1 66.2c-.3-4-1.1-7.1-2.4-9.5-1.2-2.3-2.8-4-4.6-5.3-.5-.3-1-.7-1.5-.9-3.2-1.8-6.6-2.4-6.6-2.4s-1.2-2.7-4.1-5.5c-1.8-1.7-4.2-3.5-7.5-4.7-2.9-1.1-6.4-1.7-10.7-1.4-1.3.1-2.6.2-4 .4-2.8.4-5.6.9-8.3 1.7-5.4 1.5-10.5 4.1-14.4 7.7-2 1.9-3.7 4.1-5 6.5-1.3 2.5-2.1 5.3-2.4 8.5-.3 3.3 0 6.7.8 10.2.6 2.5 1.4 5 2.3 7.4.6 1.6 1.3 3.1 2.1 4.6v.1c.6 1.3 1.3 2.6 2 3.8 1.6 2.8 3.2 5.3 4.8 7.6 2.5 3.5 5 6.2 6.8 7.7.8.7 1.7 1.3 2.6 2 2.4 1.8 5.1 3.6 7.6 5.2.1 0 .1.1.2.1 4.3 2.8 8 4.8 8 4.8s-4.3-2.9-7.6-6.6c-1-1.2-1.9-2.4-2.6-3.6.9 1 2 1.8 3 2.6 1.4 1 2.8 1.8 4 2.3 1.5.6 2.8.9 3.7 1 .5.1.8.1 1.1.1h.4s-.1-.1-.3-.2c-.2-.1-.6-.2-1-.5-.8-.4-1.9-1-3.2-1.9-1.3-.9-2.6-2-4-3.3-1.3-1.3-2.6-2.7-3.7-4.3-.3-.5-.7-1-1-1.5.5-4.6 2.6-10.4 5.6-13.9.6-.7 1.3-1.4 2-1.9.4-.3.8-.5 1.1-.7 2.3-1.1 6.3-2.1 10.4-3.3-.5.4-1 .8-1.5 1.3-1.4.7-2.7 1.3-3.9 1.9-.7.3-1.3.6-1.9.9-.6.3-1.1.5-1.5.7-.8.4-1.3.6-1.3.6s.5 0 1.4-.1c.5-.1 1-.1 1.6-.2.6-.1 1.2-.2 1.9-.4-1 1-1.8 2-2.5 3-.1.1-.1.2-.2.4-.4.7-.8 1.3-1 1.9-.3.7-.3 1.5-.1 2.1.1.3.3.5.5.6.2.1.3.2.5.3.3.1.4.1.4.1l-.3-.3c-.1-.1-.2-.2-.3-.4-.1-.2-.2-.3-.2-.6-.1-.4.1-1 .5-1.5.4-.6.9-1.1 1.5-1.7.5-.5 1.1-1 1.7-1.6 1.4-1.2 3.1-2.5 4.9-3.9.1-.1.3-.2.4-.3 1.8-.7 3.6-1.7 5.3-2.8 1.8-1.2 3.4-2.7 4.8-4.2.2-.2.3-.4.5-.6.5-.4.9-.8 1.2-1.3.1-.1.1-.2.2-.3l1.2-1.8c1.1-1.8 1.7-3.3 2.1-4.4v-.1.1c0 .5.1 1.1.1 1.6 0 .6.1 1.2.1 1.7.1 1 .1 2 .2 2.9 0 1.2.1 2.2.1 3.2 0 1.1 0 2-.1 2.6 0 .3-.1.6-.1.7v.3l.2-.2c.1-.1.3-.4.5-.6.3-.6.8-1.5 1.1-2.6.3-1 .5-2.1.7-3.3.2-1.4.2-3 .1-4.6v-.5c0-.4-.1-.9-.1-1.3-.1-.4-.1-.8-.2-1.2.6.3 1.3.8 1.9 1.5l.1.1c.6.7 1.1 1.6 1.3 2.8.2 1.1.3 2.2.2 3.4 0 3.6-.8 7-.8 7s2.3-2.6 3.8-6.7c.1-.4.3-.8.4-1.2.8-1.5 1.2-3.6 1-5.9z"/></svg>