<svg version="1" xmlns="http://www.w3.org/2000/svg" viewBox="0 0 150 150"><path fill="#82BC00" d="M117.9 44.8l6-6.3 6.3 6-12 12.7-19-18c4.2 4 4.3 8.1.3 12.3l-18 19-19-18c-8.5-8-8.7-16.2-.7-24.7l18-19 38.1 36zm-49.7-11c-4 4.2-3.9 8.4.3 12.4l12.7 12 12.2-12.8c3.9-4.1 3.7-8.2-.5-12.2l-12.7-12-12 12.6z"/><path fill="#76C4D5" d="M106.4 115.9l6.3 6-6 6.3-12.7-12 18-19c-4 4.2-8.1 4.3-12.4.3l-19-18 18-19c8-8.5 16.2-8.7 24.7-.7l19 18-35.9 38.1zm11-49.7c-4.2-4-8.3-3.9-12.4.3L93 79.2l12.8 12.2c4.1 3.9 8.2 3.7 12.2-.5l12-12.7-12.6-12z"/><path fill="#9E1D57" d="M35.3 104.3l-6 6.3-6.3-6 12-12.7 19 18c-4.2-4-4.3-8.1-.3-12.4l18-19 19 18c8.5 8 8.7 16.2.7 24.7l-18 19-38.1-35.9zm49.7 11c4-4.2 3.9-8.3-.3-12.4L72 91l-12.2 12.8c-3.9 4.1-3.7 8.2.5 12.2L73 128l12-12.7z"/><path fill="#E7B22F" d="M46.9 33.2l-6.3-6 6-6.3 12.7 12-18 19c4-4.2 8.1-4.3 12.4-.3l19 18-18 19c-8 8.5-16.2 8.7-24.7.7l-19-18 35.9-38.1zM35.8 83c4.2 4 8.4 3.9 12.4-.3l12-12.7-12.8-12.2c-4.1-3.9-8.2-3.7-12.2.5L23.2 71l12.6 12z"/></svg>