<svg xmlns="http://www.w3.org/2000/svg" viewBox="0 0 1500 1500"><path fill="none" d="M362.7 588.4c0-41.2-33.5-74.7-74.7-74.7-20 0-38.7 7.8-52.8 21.9-14.1 14.1-21.9 32.9-21.9 52.8 0 20 7.8 38.7 21.9 52.8 14.1 14.1 32.9 21.9 52.8 21.9 20 0 38.7-7.8 52.8-21.9 14.1-14.1 21.9-32.9 21.9-52.8zM288 969c-20 0-38.7 7.8-52.8 21.9-14.1 14.1-21.9 32.9-21.9 52.8s7.8 38.7 21.9 52.8c14.1 14.1 32.9 21.9 52.8 21.9 41.2 0 74.7-33.5 74.7-74.7S329.1 969 288 969z"/><path fill="#939598" d="M787.6 1143.7c48.8 11.8 101.6 10.3 101.6 10.3L707.6 967.1c23.1 55.1 52.2 118.4 80 176.6zM623.5 880.6l-65.1-67 330.7-335.5c-85.4-21.3-163.6 46.2-163.6 46.2L499.3 752.6l-86.5-89c13.6-22.5 21-48.3 21-75.2 0-80.4-65.4-145.9-145.9-145.9-39 0-75.6 15.2-103.1 42.7-27.5 27.6-42.7 64.2-42.7 103.1 0 39 15.2 75.6 42.7 103.1C212.4 719 249 734.2 288 734.2c16.8 0 33.1-3 48.5-8.4l95.1 95.1-87.4 88.2c-17.3-7.3-36.3-11.3-56.2-11.3-39 0-75.6 15.2-103.1 42.7-27.5 27.5-42.7 64.2-42.7 103.1s15.2 75.6 42.7 103.1c27.5 27.5 64.2 42.7 103.1 42.7 80.4 0 145.9-65.4 145.9-145.9 0-29.3-8.8-56.6-23.8-79.5l81.8-83 139 139c-4.7-48.2-7.6-96.5-7.4-139.4zM235.1 641.2c-14.1-14.1-21.9-32.9-21.9-52.8s7.8-38.7 21.9-52.8c14.1-14.1 32.9-21.9 52.8-21.9 41.2 0 74.7 33.5 74.7 74.7 0 20-7.8 38.7-21.9 52.8-14.1 14.1-32.9 21.9-52.8 21.9s-38.7-7.8-52.8-21.9zm52.9 477.2c-20 0-38.7-7.8-52.8-21.9-14.1-14.1-21.9-32.9-21.9-52.8s7.8-38.7 21.9-52.8c14-14.1 32.8-21.9 52.8-21.9 41.2 0 74.7 33.5 74.7 74.7s-33.6 74.7-74.7 74.7z"/><path fill="#935550" d="M1143.7 51.2c-163.6 85.4-53.4 273.9-53.4 273.9l53.4-78.3c-56.9-117.4 21.3-217 67.6-181.4 46.3 35.6 28.5 113.8 28.5 113.8l-434 597.7 21.3 266.8 259.7-177.9L1286 218.4c24.9-149.4-60.4-199.2-142.3-167.2zM1275.4 446.1l-46.2 81.8s32 156.5-60.5 202.8l-3.6 49.8s195.6-74.7 110.3-334.4z"/><path fill="#935550" d="M688.4 919.2c-56.9-149.4 106.7-202.8 106.7-202.8l28.5-46.2c-96.1 14.2-174.3 67.6-192.1 117.4-5.4 25.3-7.7 57.4-7.9 93-.2 43 2.7 91.2 7.3 139.6 14 148.3 43.3 297.5 43.3 297.5l156.5 160.1 49.8-145.9s-44.3-86.3-92.9-188.2c-27.8-58.2-56.9-121.5-80-176.6-7-16.8-13.5-32.9-19.2-47.9z"/></svg>