<svg xmlns="http://www.w3.org/2000/svg" width="100" height="100" viewBox="0 0 100 100"><g fill-rule="evenodd" clip-rule="evenodd"><path fill="#F9EC31" d="M96.65 24.036C79.534 49.772 80.43 70.543 71.183 84.359c-8.451 12.59-25.879 16.93-39.01 3.699-13.145-13.246-8.622-30.531 3.969-38.998 13.645-9.147 34.643-8.095 60.508-25.024z"/><path fill="#F9EC31" d="M3.35 24.036c17.129 25.736 16.219 46.507 25.466 60.323 8.451 12.59 25.892 16.93 39.023 3.699C80.97 74.812 76.446 57.527 63.87 49.06c-13.642-9.147-34.641-8.095-60.52-25.024z"/><path fill="#D6DE23" d="M71.013 8.229c-3.6 30.702 6.602 48.813 4.609 65.316-1.835 15.052-15.407 26.817-33.12 20.955-17.698-5.847-21.497-23.318-14.098-36.563 8.009-14.34 27.215-22.903 42.609-49.708z"/><path fill="#04AD4D" d="M85.268 14.49c-10.67 29.037-4.951 49.026-10.756 64.605-5.292 14.211-21.226 22.478-37.074 12.646-15.863-9.817-15.479-27.686-5.193-38.825C43.384 40.823 64.042 36.982 85.268 14.49z"/><path fill="#D6DE23" d="M29.57 8.229c3.6 30.702-6.616 48.813-4.595 65.316C26.796 88.597 40.368 100.362 58.08 94.5c17.713-5.847 21.496-23.318 14.1-36.563-7.996-14.34-27.202-22.903-42.61-49.708z"/><path fill="#04AD4D" d="M15.315 14.49C25.97 43.527 20.28 63.516 26.07 79.095c5.279 14.211 21.227 22.478 37.089 12.646 15.85-9.817 15.465-27.686 5.179-38.825C57.213 40.823 36.541 36.982 15.315 14.49z"/><path fill="#008D3E" d="M50.327 5.256C56.558 35.53 71.924 49.53 75.196 65.834c2.988 14.881-6.203 30.29-24.869 30.29-18.637 0-27.713-15.396-24.839-30.29 3.101-16.133 18.636-30.303 24.839-60.578z"/></g></svg>