<svg xmlns="http://www.w3.org/2000/svg" width="100" height="100" viewBox="0 0 100 100"><path fill="#009345" d="M13.434 18.444s17.595 13.089 21.372 30.384c0 0 1.168 7.27 1.031 10.626 0 0 2.9 22.676 7.552 32.992 0 0-4.944-25.585-4.798-33.148 0 0-.437-15.404-5.674-22.236 0 0-7.416-10.764-7.416-13.82 0 0 6.541 4.944 10.764 7.572 0 0 8.292 7.99 17.158 3.775l15.115-5.955s4.807-1.752 1.459 1.732c0 0-7.124 8-10.9 15.708 0 0-10.043 18.462-7.134 32.71 0 0 .438-18.9 11.493-35.182 0 0 11.912-19.191 26.891-23.698 0 0-18.325 2.18-36.058 11.192 0 0-7.202 4.545-14.091-1.45 0-.001-13.236-13.227-26.764-11.202z"/><path fill="#3D291E" d="M27.681 41.858s-1.596 10.755-1.45 17.295c0 0 0 6.111 5.382 11.337 0 0 6.686 7.281-.292 21.956 0 0 1.275-9.762-2.395-13.429 0 0 2.122.914 3.456 7.259 0 0 1.839-8.175-1.119-12.906 0 0-1.558-3.442-3.884-5.272-2.676-2.258-2.754-7.338-2.89-9.52 0 0-.428-6.209.067-7.542 0 0-2.111 3.386-3.728 9.724 0 0-1.702 5.43 5.84 14.869 0 0-8.876-5.771-6.765-17.479.002-.001 3.867-11.376 7.778-16.292zM69.315 41.858s1.597 10.755 1.459 17.295c0 0 0 6.111-5.381 11.337 0 0-6.686 7.281.283 21.956 0 0-1.266-9.762 2.393-13.429 0 0-2.11.914-3.444 7.259 0 0-1.841-8.175 1.128-12.906 0 0 1.547-3.442 3.874-5.272 2.676-2.258 2.745-7.338 2.881-9.52 0 0 .428-6.209-.058-7.542 0 0 2.11 3.386 3.737 9.724 0 0 1.691 5.43-5.859 14.869 0 0 8.895-5.771 6.773-17.479.001-.001-3.864-11.376-7.786-16.292z"/><path fill="#009345" d="M49.813 7.554c-5.635 0-10.209 4.369-10.209 9.761 0 5.382 4.575 9.751 10.209 9.751 5.644 0 10.219-4.37 10.219-9.751 0-5.392-4.575-9.761-10.219-9.761zm-.916 19.279c-4.028 0-7.308-3.532-7.308-7.902 0-4.36 3.28-7.902 7.308-7.902 4.03 0 7.309 3.542 7.309 7.902 0 4.369-3.279 7.902-7.309 7.902z"/></svg>