<svg version="1" xmlns="http://www.w3.org/2000/svg" viewBox="0 0 150 150"><path fill="none" d="M58 42.1l5.5 2.6 25.2 11.2 1.6.7C85.5 45 75.7 36.7 63.9 33.8c-1.7.9-3.9 1.6-5.9 1.9v6.4zM16.1 66.3c-.6 3.7-.5 7.7.1 11.7h76.6c.8-5 .6-10-.5-14.9l-35.8-16-40.4 19.2zM63.6 109.3C77.7 105.9 88.2 95 91.8 82H17.1c5.6 20 26.1 32.3 46.5 27.3z"/><path fill="#231F20" d="M139 115.3l-27.7-18c-2.4-1.6-5.3-1.9-7.9-1.3-.9.2-1.7.5-2.6 1l-4.6-3c2.2-4 3.8-8.4 4.8-13 .4-1.9.7-3.9.9-5.8.2-2.5.2-5 0-7.5-.2-2.1-.5-4.3-1-6.4-.1-.4-.1-.7-.2-1.1-4-16.4-16.1-28.8-31-33.8-1 3.2-3 5.7-6 7.4C75.4 36.7 85.5 45 90.3 56.6c.8 1.8 1.4 3.7 1.9 5.7 0 .2.1.3.1.5 1.1 5 1.3 9.9.5 14.7-.2 1.5-.5 2.9-.9 4.3-3.6 13.1-14.1 23.9-28.2 27.3-20.4 5-40.9-7.2-46.5-27.3l-.3-1.2c-.2-1-.4-2.1-.6-3.1-.6-3.9-.6-7.7-.1-11.5.3-2.1.7-4.1 1.4-6.1 3.9-12.6 14.1-22.8 27.9-26.2 1.9-.5 3.7-.8 5.7-.9v-1.7c0-.2.1-.5.1-.7.3-1 1.1-1.8 2.2-1.8 3.7 0 6.8-1.7 8.6-4.3-6-1-12.4-.8-18.7.7-19.6 4.9-33.3 21-36 39.7-.4 2.6-.6 5.3-.5 7.9 0 .9.1 1.8.1 2.7.2 2 .5 4.1.9 6.1l.3 1.2c6.2 25.5 32 41.2 57.5 35 10.1-2.5 18.6-8 24.9-15.4l4.8 3.1c-.2 3.6 1.3 7.3 4.6 9.4l27.7 18c2.5 1.6 5.4 2 8.1 1.4 2.5-.6 4.8-2.1 6.3-4.5 3.1-4.7 1.7-11.1-3.1-14.3z"/><path fill="#F17A21" d="M56.5 46.9l35.8 15.9c0-.2-.1-.3-.1-.5-.5-2-1.1-3.9-1.9-5.7l-1.7-.7-25.1-11.2-5.5-2.6v-6.5c2-.3 4.2-.9 5.9-1.9 3.1-1.7 5-4.2 5.9-7.4.5-1.5.6-3.1.6-4.7 0-4.8-2-8.8-5.2-11.4-.7-.6-1.6-1.1-2.4-1.5-1.7-.7-3.7-1.2-5.8-1.2-8 0-14.8 6.6-14.8 14.5v.2c0 .5.2.9.5 1.2.5.6 1.2 1 2 1 .4 0 .8-.1 1.1-.3.8-.4 1.4-1.2 1.4-2.1 0-5.1 4.6-9.6 9.9-9.6 1.2 0 2.3.2 3.3.6.5.2.9.5 1.4.7 2.4 1.6 3.9 4.4 3.9 7.9 0 1.2-.2 2.4-.7 3.4-1.4 3.5-5 5.9-9.4 5.9-1.1 0-2.1.7-2.4 1.8-.1.2-.2.4-.2.7v9.7L17.4 60c-.6 2-1 4-1.3 6.1l40.4-19.2zM89 78H16.2c.2 1 .4 1.9.6 2.9.1.4.2.1.3 1.1h74.7c.4-2 .7-3 .9-4H89z"/></svg>