<svg xmlns="http://www.w3.org/2000/svg" viewBox="0 0 1500 1500"><path fill="none" d="M589.8 695.1c-3.4 2.5-7 5.2-10.7 8 6.9 2.4 14.1 4.7 21.2 7 4.3-3.2 8.4-6.1 12.4-8.9-7.7-1.9-15.4-3.9-22.9-6.1zM937.5 708.1c10-3.3 19.8-6.7 29.4-10.3-7-5.2-13.4-9.8-19.2-13.6-11.2 3.3-22.6 6.4-34.5 9.3 6 3.2 14.2 8.1 24.3 14.6zM806.1 944.4c-11.3-45.6-19.7-96.1-24.6-152.1-2.3-7.9-4.7-15.6-7.2-23-.8 8.3-1.6 16.7-2.6 24.7 13.3 51.4 22.7 112.6 22.7 183.3 0 114.6-24.8 253.9-97.1 415.9 19.2-32.8 42.3-78.2 62.5-134.5 38.9-121.9 50.3-226.5 46.3-314.3z"/><path d="M797.2 860.9c-.4-2-.7-4-1.1-6-4-22.4-9-43.2-14.7-62.6 4.9 56 13.3 106.6 24.6 152.1-1.3-29.8-4.4-57.6-8.8-83.5z"/><path fill="#00A9DE" d="M759.4 733.2c-1.1-1-3.4-2.3-3.4-3.9v-.3c0-1.1.7-2.2.2-3.3-53.5-5.1-100.8-13.5-144.2-24.5-4 2.7-7.7 5.7-12 8.9 43 13.9 89.3 25.7 138.8 35 2.5.5 4.4 2.7 4.4 5.2v1c-.5 2.9-3.3 4.8-6.2 4.2-52.6-9.9-101.4-22.6-146.8-37.7-92.7 72.3-242.6 240.8-201.4 557.3 0 0 220.5-10.9 330.5-273.4 23.8-56.8 42.4-125.2 52.5-207.9 1-8.1 1-16.4 1.8-24.7-4.3-12.6-9.6-24.6-14.2-35.9zM782.2 715.5c3.6 10.1 6.9 20 10.1 29.9.1 0 .2-.2.4-.2 51.9-9.8 100-22.3 144.8-37.1-10-6.5-18.3-11.4-24.2-14.6-39.7 9.6-83.3 17.1-131.1 22zM829 982.7c104.5 294.9 343.3 306.7 343.3 306.7 44.8-343.6-135.7-512.9-223.7-573.8-47.2 16-98.2 29.4-153.2 39.9 24.8 81.9 34.1 158.4 33.6 227.2zM796.1 854.9c.4 2 .7 4 1.1 6-.3-2-.7-4-1.1-6z"/><path fill="#F10F83" d="M756.2 725.7c.5 1.1-.2 2.2-.2 3.3v-.1c0-7.2 2.6-14.2 2.9-21.3-1.3-25.5-.5-50.6.8-75-3-54.3-12.3-105.4-27.9-152.3-31.7-68.9-80-128.8-148.2-167-108.2-60.7-280.9-43-350.6-163 0 0-89.5 409.7 344 541.2 4.1 1.3 8.4 2.5 12.7 3.7 7.5 2.1 14.4 4.2 22.2 6.1 43.5 10.9 90.8 19.3 144.3 24.4zM319.7 310.5c-13 0-23.5-12.6-23.5-28.2s10.5-28.2 23.5-28.2 23.5 12.6 23.5 28.2-10.5 28.2-23.5 28.2zM767.3 568.4c-.6 2.5-1.2 5.1-1.8 7.6.1.6.2 1.1.3 1.7.4-3.1 1-6.2 1.5-9.3zM829 982.7c.4-68.9-8.8-145.3-33.6-227.3-.3.1-.5.1-.8.2-2.9.6-5.6-1.3-6.2-4.2-.1-.3-.1-.7-.1-1 0-2.3 1.6-4.3 3.9-5-3.1-9.9-6.5-19.9-10.1-29.9 47.8-4.9 91.4-12.4 131-22 11.9-2.9 23.3-6 34.5-9.3 4.3-1.3 8.7-2.5 12.9-3.9C1387.7 547 1299 140.8 1299 140.8c-69.7 120-242.5 102.3-350.7 163-60.3 34-105.3 85-136.8 144.2-22.9 55.3-36.7 117.6-40.4 184.6 1.3 24.5 1.4 49.5 0 75.1.4 7.1.7 14.1 1.3 21.3v.4c0 2.7-2.1 5-4.9 5.3-.6.1-1.2-.1-1.7-.2-.6.1-1.1.3-1.7.2-1.2-.1-2.3-.7-3.1-1.4 4.6 11.3 9.1 23.3 13.4 36 2.5 7.4 4.9 15.1 7.2 23 5.6 19.4 10.6 40.2 14.7 62.6.4 2 .7 4 1.1 6 4.4 25.9 7.5 53.7 8.8 83.5 4 87.8-7.4 192.5-46.3 314.3-8.9 27.9-19.1 56.6-31.1 86.3 0 0 13.5-19.6 30.6-55.2 26.7-55.5 62-150.4 68.6-272.1.6-10.3.9-20.7 1-31.3v-3.7z"/><path fill="#100" d="M1284.8 466.5c119.2-199.7 50.4-423.4 49.6-425.6-.7-2.1-2.5-3.5-4.7-3.7-2.2-.1-4.2 1.1-5.2 3.1-41.1 88.8-135.8 121.3-227.3 152.6-53.2 18.2-108.3 37.1-151.5 66.9-95.4 65.7-157.5 175.8-178.4 308.6-.5 3.1-1.1 6.2-1.5 9.3-.1-.6-.2-1.1-.3-1.7-19.7-136.2-82.4-249.3-179.6-316.2-43.2-29.8-98.3-48.7-151.5-66.9-91.6-31.4-186.2-63.8-227.4-152.6-.9-2-3-3.2-5.2-3.1-2.2.1-4.1 1.6-4.7 3.7-.7 2.2-69.6 225.9 49.6 425.6 63.6 106.6 168.1 186.8 311.1 240.1-103.2 85.3-274.7 286.2-214.8 650.5.5 2.7 2.9 4.7 5.7 4.4 3.8-.3 361.2-35.6 419.5-536.4 30.7 144.1 27 356.8-112.2 629.9-1.2 2.4-.4 5.4 1.8 6.8 2.3 1.5 5.3 1.1 7-1 1.2-1.5 51.5-63.2 94.5-171.1-17.1 35.6-30.6 55.2-30.6 55.2 11.9-29.7 22.2-58.4 31.1-86.3-20.2 56.3-43.3 101.7-62.5 134.5 72.4-162 97.1-301.3 97.1-415.9 0-70.7-9.4-131.9-22.7-183.3-10.1 82.7-28.7 151.1-52.5 207.9C619.3 1300 389.9 1345 353 1350.3c-7.9-49.4-11.6-95.8-11.6-139.2 0-274.5 141.7-430.7 227.9-500.3 6.8 2.4 13.8 4.7 20.8 7 45.4 15.1 94.2 27.7 146.8 37.7 2.9.6 5.7-1.3 6.2-4.2.1-.3.1-.7.1-1 0-2.5-1.8-4.7-4.3-5.2-49.5-9.4-95.6-21.1-138.6-35-7.1-2.3-14.3-4.6-21.2-7 3.7-2.9 7.3-5.5 10.7-8-4.2-1.2-8.5-2.4-12.7-3.7-3.1 2.4-6.3 4.8-9.6 7.4C423.8 646.5 319.2 567 256 461.2c-54.1-90.6-68.7-186.2-68.7-263.1 0-66.8 11-119.4 16.7-142 45.6 83.9 137.5 116.2 227 146.8 52.6 18 106.9 36.6 148.9 65.6 70.5 48.6 122.4 122.3 152.3 211.8 15.7 46.9 25.3 98.1 28.3 152.3-1.3 24.5-2.9 49.5-1.6 75-.4 7.1-2.9 14.1-2.9 21.3v.4c0 1.5 2.3 2.9 3.4 3.9.8.8 2.7 1.3 3.9 1.4.6.1 1.6-.1 2.1-.2.6.1 1.3.3 1.9.2 2.8-.2 5-2.5 5-5.3v-.4c-.6-7.1-.9-14.2-1.3-21.3 1.3-25.5 1.3-50.6 0-75.1 3.7-67 17.6-129.3 40.4-184.6 30.9-74.9 78.4-136.8 140.2-179.4 42-29 96.4-47.6 148.9-65.6 89.5-30.7 181.4-62.9 227-146.8 5.7 22.6 16.7 75.2 16.7 142 0 76.8-14.6 172.5-68.7 263.1-61.1 102.2-160.8 179.9-297 232.3-6.4-4.9-12.3-9.2-17.9-13.1-4.2 1.3-8.6 2.6-12.9 3.9 5.7 3.9 12.2 8.4 19.2 13.6-9.6 3.5-19.5 7-29.4 10.3-44.8 14.8-93 27.3-144.8 37.1-.2 0-.2.2-.4.2-2.3.6-3.9 2.6-3.9 5 0 .3 0 .7.1 1 .5 2.9 3.3 4.8 6.2 4.2.3-.1.5-.1.8-.2 55-10.4 106-23.8 153.2-39.9 9.6-3.3 19-6.7 28.2-10.2 85.4 66.8 234.8 223.9 234.8 505.8 0 43.3-3.7 89.8-11.6 139.2-37.6-5.4-274-52-371.1-364-.1 10.6-.5 21.1-1 31.3 112.8 317.9 373 343.6 376.3 343.9 2.8.2 5.2-1.7 5.7-4.4 61.3-372.6-119.4-574.2-221.6-656.1 135.5-53.2 234.9-131.7 296.4-234.6z"/><path fill="#FFF" d="M319.7 254.1c-13 0-23.5 12.6-23.5 28.2s10.5 28.2 23.5 28.2 23.5-12.6 23.5-28.2-10.5-28.2-23.5-28.2z"/></svg>