<svg xmlns="http://www.w3.org/2000/svg" viewBox="0 0 1500 1500"><path fill="#CA5262" d="M918.2 992.8c15.4 7.3 21.7 13.1 23.9 14.8 69.5 53.1 20.1 156.6-119.1 152-155.8-5.1-242.7-206.9-273.4-393.4-23.9-145.5-150.5-334.6-212.3-430.1-.1-12.2-.6-25.1-1.8-39.4-7.5-89.6-65.2-44-78.7-32.1-14.9 10.8-32.1 25.7-52.2 46.8-99.6 104.8-92 288.7-92 288.7s46 63.1 86.9 211.2c35.2 127.7 36.3 360.6 36 415.6H272V794.3s16.2-40.9 95.4 23c79.2 63.8 102.6 219.7 128.2 296.3 25.5 76.6.2 171.2 212.3 209.5 212.1 38.3 615.8-69.2 620.9-76.9 1.1-1.7 1.9-7.1 2.4-14.4 75.3-198-413-239-413-239zM143.6 602.9l-10.3-16.5C120.9 405.5 232 298.5 232 298.5c-90.5 119.3-88.4 304.4-88.4 304.4zM589.8 1243s106.9 79.5 331.7 46.6c0 0-213.9 57.6-331.7-46.6zm692.9-95.1c-19.2 33.7-60.1-28.4-74.3-41.3-47-42.5-121-72.4-182.7-84.3 72.3 14 149.3 34.1 212.7 72.3 14.9 9 56.8 31.3 44.3 53.3z"/><path fill="#FFFFFE" d="M133.3 586.4l10.3 16.5s-2.1-185.1 88.4-304.3c0-.1-111.1 106.9-98.7 287.8zM1238.4 1094.6c-63.4-38.1-140.3-58.3-212.7-72.3 61.7 11.9 135.7 41.8 182.7 84.3 14.2 12.8 55.1 74.9 74.3 41.3 12.5-22-29.4-44.3-44.3-53.3zM589.8 1243c117.9 104.2 331.7 46.6 331.7 46.6-224.8 32.9-331.7-46.6-331.7-46.6z"/><path fill="#CA5262" d="M1064.2 674.5c10.3 4.9 18.6 11.8 21.5 14.6 38.6 36.8 4.3 100.8-85.7 97.9-105-3.4-163.6-139.5-184.2-265.1-15.9-96.7-99-221.9-141.2-287 0-9.2-.3-19-1.2-29.9-5.1-61.8-47.9-27.3-56.2-20-9.7 7.2-20.9 16.9-33.8 30.5-67.1 70.6-62 194.6-62 194.6s31 45.3 58.5 145.2c23.7 86 24.5 238.9 24.2 282.9H628V540.8s11.3-27.5 64.7 15.5c53.4 43 69.3 148.1 86.6 199.7 17.2 51.6.2 115.3 143.1 141.2 142.9 25.8 415-46.7 418.5-51.8.8-1.1 1.3-4.8 1.7-9.7 50.6-133.5-278.4-161.2-278.4-161.2zm-522-262.7l-6.9-11.1c-8.3-121.9 66.5-194 66.5-194-61 80.4-59.6 205.1-59.6 205.1zm300.6 431.4s72.1 53.6 223.6 31.4c0 0-144.1 38.8-223.6-31.4zm467-64.1c-12.9 22.7-40.5-19.2-50-27.8-31.7-28.6-81.6-48.8-123.1-56.8 48.7 9.4 100.6 23 143.3 48.7 10 6 38.2 21 29.8 35.9z"/><path fill="#FFFFFE" d="M535.2 400.7l6.9 11.1s-1.4-124.7 59.6-205.1c0 0-74.8 72.1-66.5 194zM1279.9 743.2c-42.8-25.7-94.6-39.3-143.3-48.7 41.6 8 91.4 28.2 123.1 56.8 9.6 8.7 37.2 50.5 50 27.8 8.5-14.9-19.7-29.9-29.8-35.9zM842.8 843.2c79.4 70.2 223.6 31.4 223.6 31.4-151.5 22.2-223.6-31.4-223.6-31.4z"/></svg>