<svg xmlns="http://www.w3.org/2000/svg" viewBox="0 0 1500 1500"><path fill="#FAA7D1" d="M1056.8 1145.3c-6.3 1.6-17.4 0-39.6-19-22.2-19-53.9-46-80.9-58.7-27-12.7-50.8 14.3-63.4 12.7-12.7-1.6-41.2-27-76.1 0-34.9 27-46 69.8-69.8 72.9-23.8 3.2-28.5-14.3-30.1 4.8 0 0 19 41.2 84.1 22.2 65-19 76.1-38.1 136.4-25.4 60.3 12.7 98.3 33.3 150.7-4.8 7.7-7.8-4.9-6.3-11.3-4.7z"/><path fill="#FAA7D1" d="M910.9 1197.7c-30.1 17.4-34.9 12.7-84-3.2-49.2-15.8-79.3 20.6-79.3 20.6-3.2 36.5 68.2 84 131.6 85.6 57.4 1.4 142.7-52.3 134.8-88.8-7.9-36.4-72.9-31.7-103.1-14.2z"/><path fill="#C2C4C6" d="M1152 463.5c-128.5-17.4-180.8 90.4-180.8 90.4 46-47.6 55.5-34.9 203-36.5 147.5-1.6 176-95.1 176-95.1-25.4 31.6-69.8 58.6-198.2 41.2zM1083.8 622c-76.1 11.1-101.5 88.8-101.5 88.8 41.2-44.4 101.5-49.2 101.5-49.2s-11.1 3.2-23.8 14.3c-12.7 11.1 9.5 38.1 38.1 31.7 28.5-6.3 31.7-44.4 31.7-44.4s9.5-1.6 19 0 36.5 4.8 36.5 4.8c-22.2 38.1-44.4 39.6-44.4 39.6 46-1.6 74.5-41.2 74.5-41.2 68.2-7.9 76.1-49.2 76.1-49.2-47.6 65.1-113.6-8.9-207.7 4.8z"/><path fill="#C1CCA8" d="M774.6 676c288.6-336.2 78.2-538.1 78.2-538.1-364.7 133.2-436.6 512.7-436.6 512.7 94.1-576.1 536-564.5 536-564.5S606.5 22.6 362.3 355.6c-240.8 328.4-126.9 742.1 66.6 916.6 214.9 193.8 440.8 139.6 440.8 139.6-415.5-25.4-383.7-399.7-95.1-735.8z"/></svg>