<svg xmlns:xlink="http://www.w3.org/1999/xlink"  xmlns="http://www.w3.org/2000/svg" width="100" height="100" viewBox="0 0 100 100"><radialGradient id="a" cx="50.54" cy="54.054" r="29.127" gradientUnits="userSpaceOnUse"><stop offset=".03" stop-color="#f28ab8"/><stop offset=".267" stop-color="#ed4f9b"/><stop offset=".551" stop-color="#eb008b"/><stop offset="1" stop-color="#7c003a"/></radialGradient><path fill="url(#a)" d="M74.729 60.734s1.948 7.563 11.921 3.528c-3.398-4.817-7.345-6.5-11.921-3.528zm1.355.546c3.865-.926 5.216-.159 7.965 2.065-5.234 2.157-7.965-2.065-7.965-2.065z"/><radialGradient id="b" cx="50.523" cy="54.048" r="29.142" gradientUnits="userSpaceOnUse"><stop offset=".03" stop-color="#f28ab8"/><stop offset=".267" stop-color="#ed4f9b"/><stop offset=".551" stop-color="#eb008b"/><stop offset="1" stop-color="#7c003a"/></radialGradient><path fill="url(#b)" d="M79.153 59.068c2.697 0 5.271 1.715 7.644 5.091l.14.187-.218.087c-1.969.795-3.773 1.198-5.358 1.198-5.501 0-6.8-4.801-6.813-4.853l-.035-.126.117-.077c1.537-.996 3.06-1.507 4.523-1.507zm7.202 5.109c-2.26-3.138-4.683-4.731-7.202-4.731-1.351 0-2.771.459-4.212 1.368.238.758 1.641 4.449 6.419 4.449 1.485 0 3.165-.368 4.995-1.086zm-7.535-3.464c2.116 0 3.432.94 5.346 2.489l.242.195-.291.121c-1.008.415-2.004.624-2.946.624-3.411 0-5.169-2.646-5.243-2.762l-.134-.218.251-.063c1.108-.264 1.996-.386 2.775-.386zm4.861 2.576c-1.713-1.376-2.952-2.208-4.86-2.208-.685 0-1.463.101-2.415.321.488.623 2.116 2.372 4.766 2.372.803 0 1.651-.161 2.509-.485z"/><radialGradient id="c" cx="50.55" cy="54.053" r="29.117" gradientUnits="userSpaceOnUse"><stop offset=".03" stop-color="#f28ab8"/><stop offset=".267" stop-color="#ed4f9b"/><stop offset=".551" stop-color="#eb008b"/><stop offset="1" stop-color="#7c003a"/></radialGradient><path fill="url(#c)" d="M82.417 55.845c1.883-.736 3.899-1.567 4.973-3.407 1.139-1.956.499-4.783-.813-6.537-.83-1.116-2.208-2.623-3.774-2.375-2.376.372-2.545 5.297.701 3.497 1.343-.744 1.983 1.212 2.079 2.251.38 4.338-5.278 5.488-8.434 6.112-1.497.293-3.458.684-4.969.328 3.402.806 6.86 1.45 10.237.131z"/><radialGradient id="d" cx="50.536" cy="54.051" r="29.13" gradientUnits="userSpaceOnUse"><stop offset=".03" stop-color="#f28ab8"/><stop offset=".267" stop-color="#ed4f9b"/><stop offset=".551" stop-color="#eb008b"/><stop offset="1" stop-color="#7c003a"/></radialGradient><path fill="url(#d)" d="M59.978 35.622c1.438 0 2.706.658 3.468 1.805.523.788.58 1.67.143 2.476-.511.965-1.602 1.61-2.696 1.61-1.096 0-2.009-.636-2.567-1.792l-.052-.121.13.018c.29.03.575.047.844.047.966 0 1.658-.225 1.81-.589.121-.29-.121-.619-.342-.844-.285-.281-.892-.463-1.55-.463-.532 0-1.874.129-2.766 1.324-.931 1.264-1.022 3.298-.243 5.891l.053.199-.169-.116c-.026-.018-2.97-2.069-1.139-5.97.994-2.108 2.981-3.475 5.076-3.475z"/><radialGradient id="e" cx="50.536" cy="54.059" r="29.134" gradientUnits="userSpaceOnUse"><stop offset=".03" stop-color="#f28ab8"/><stop offset=".267" stop-color="#ed4f9b"/><stop offset=".551" stop-color="#eb008b"/><stop offset="1" stop-color="#7c003a"/></radialGradient><path fill="url(#e)" d="M56.078 45.005s-2.931-1.986-1.108-5.874c1.069-2.272 3.112-3.433 5.008-3.433 1.342 0 2.614.58 3.406 1.766 1.273 1.917-.58 3.974-2.492 3.974-.931 0-1.892-.494-2.498-1.749.299.03.584.048.853.048 1.61 0 2.477-.602 1.516-1.554-.286-.29-.896-.489-1.598-.489-2.01.001-4.788 1.611-3.087 7.311m.259.36l-.116-.398c-.766-2.571-.684-4.584.238-5.827.874-1.173 2.182-1.299 2.705-1.299.641 0 1.225.173 1.498.442.203.208.429.511.324.762-.134.338-.81.545-1.74.545-.269 0-.545-.017-.831-.047l-.272-.03.121.242c.567 1.182 1.506 1.835 2.628 1.835a3.22 3.22 0 0 0 2.766-1.649c.441-.835.394-1.74-.151-2.555-.774-1.168-2.061-1.839-3.528-1.839-1 0-2.004.312-2.896.887-.957.624-1.731 1.532-2.246 2.632-.971 2.064-.606 3.601-.126 4.527.52 1.004 1.256 1.516 1.286 1.532l.34.24z"/><radialGradient id="f" cx="50.537" cy="54.051" r="29.127" gradientUnits="userSpaceOnUse"><stop offset=".03" stop-color="#f28ab8"/><stop offset=".267" stop-color="#ed4f9b"/><stop offset=".551" stop-color="#eb008b"/><stop offset="1" stop-color="#7c003a"/></radialGradient><path fill="url(#f)" d="M50.312 21.51h.022c.857.022 2.817.55 3.064 4.856.226 3.935-2.468 7.32-2.9 7.834-.009.026-.013.048-.026.065a.193.193 0 0 1-.161.082H50.273a.194.194 0 0 1-.156-.082c-.008-.014-.013-.035-.026-.065-.446-.523-3.121-3.904-2.9-7.834.243-4.315 2.216-4.834 3.069-4.856h.052zm-.017 12.15c.701-1.61 1.299-3.493 1.272-6.168-.03-2.312-.938-3.29-1.272-3.566-.329.276-1.246 1.255-1.273 3.566-.03 2.675.576 4.558 1.273 6.168z"/><radialGradient id="g" cx="50.536" cy="54.054" r="29.13" gradientUnits="userSpaceOnUse"><stop offset=".03" stop-color="#f28ab8"/><stop offset=".267" stop-color="#ed4f9b"/><stop offset=".551" stop-color="#eb008b"/><stop offset="1" stop-color="#7c003a"/></radialGradient><path fill="url(#g)" d="M50.273 34.167v-.013c.008 0 .008-.009.013-.014-.324-.32-3.129-3.856-2.904-7.761.229-4.142 2.082-4.67 2.891-4.683H50.311c.818.013 2.671.541 2.901 4.683.221 3.905-2.581 7.44-2.905 7.761 0 .004.004.014.004.014 0 .008.009.013 0 .013l-.017-.013c-.008.009-.012.013-.021.013m.022-10.476c-.173.113-1.424 1.057-1.458 3.797-.035 2.913.675 4.891 1.458 6.626.787-1.736 1.489-3.714 1.454-6.626-.025-2.74-1.286-3.684-1.454-3.797m-.022 10.844H50.311a.37.37 0 0 0 .317-.169c.013-.021.018-.039.034-.06.29-.338.991-1.268 1.632-2.537.653-1.294 1.411-3.285 1.286-5.41-.1-1.883-.55-3.268-1.325-4.117-.697-.767-1.484-.905-1.909-.913-.013-.004-.018-.004-.035-.004H50.273c-.009 0-.013 0-.022.004-.428.008-1.216.146-1.917.913-.77.849-1.22 2.233-1.329 4.117-.116 2.125.633 4.116 1.295 5.41.632 1.269 1.333 2.199 1.631 2.537.008.021.021.039.035.06.07.108.186.169.307.169zm.022-10.363c.368.364 1.069 1.316 1.086 3.325.03 2.42-.467 4.186-1.086 5.688-.614-1.501-1.112-3.268-1.082-5.688.017-2.009.718-2.961 1.082-3.325z"/><radialGradient id="h" cx="50.537" cy="54.054" r="29.128" gradientUnits="userSpaceOnUse"><stop offset=".03" stop-color="#f28ab8"/><stop offset=".267" stop-color="#ed4f9b"/><stop offset=".551" stop-color="#eb008b"/><stop offset="1" stop-color="#7c003a"/></radialGradient><path fill="url(#h)" d="M57.831 27.773c.29 0 .515.086.649.16l.017.009.013.004c.005.004.014.013.022.013.411.255 1.237 1.069.169 3.233-.913 1.835-3.009 2.801-3.527 2.97a.187.187 0 0 1-.109.039.226.226 0 0 1-.104-.03.277.277 0 0 1-.095-.112c-.005-.021-.005-.047-.005-.078-.117-.528-.359-2.822.754-4.541.887-1.376 1.697-1.667 2.216-1.667zm-2.532 5.81a7.673 7.673 0 0 0 2.082-2.428c.546-.982.454-1.632.372-1.896-.264.069-.861.325-1.429 1.294a7.604 7.604 0 0 0-1.025 3.03z"/><g><radialGradient id="i" cx="50.538" cy="54.048" r="29.123" gradientUnits="userSpaceOnUse"><stop offset=".03" stop-color="#f28ab8"/><stop offset=".267" stop-color="#ed4f9b"/><stop offset=".551" stop-color="#eb008b"/><stop offset="1" stop-color="#7c003a"/></radialGradient><path fill="url(#i)" d="M55.064 34.015s0-.004-.004-.013c0 .005-.009.005-.009.005-.009 0-.009 0 0-.008 0 0 .009 0 .009-.005-.069-.238-.446-2.666.714-4.458.823-1.272 1.55-1.576 2.057-1.576.251 0 .445.074.571.143.005 0 .005 0 .013.004l.005.005c.381.225 1.116.973.112 2.999-.943 1.905-3.221 2.827-3.458 2.888v.013c-.01-.001-.01.003-.01.003m2.814-4.964c-.112.008-.961.117-1.718 1.406-.797 1.373-.991 2.498-1.086 3.528.835-.61 1.7-1.359 2.471-2.744.719-1.308.382-2.086.333-2.19m-2.814 5.332a.396.396 0 0 0 .204-.057c.593-.208 2.675-1.203 3.597-3.055.477-.958.637-1.766.493-2.42a1.66 1.66 0 0 0-.731-1.048c-.008-.004-.018-.008-.021-.018h-.009c-.004-.004-.013-.004-.013-.008a.033.033 0 0 0-.021-.008 1.559 1.559 0 0 0-.731-.182c-.827 0-1.623.588-2.372 1.749-1.121 1.74-.904 4.039-.783 4.657a.383.383 0 0 0 .191.333c.068.04.137.057.196.057zm2.555-4.878c.034.302.004.826-.403 1.558a7.389 7.389 0 0 1-1.661 2.074c.13-.749.381-1.563.926-2.494.423-.723.857-1.017 1.138-1.138z"/></g><g><radialGradient id="j" cx="50.53" cy="54.054" r="29.127" gradientUnits="userSpaceOnUse"><stop offset=".03" stop-color="#f28ab8"/><stop offset=".267" stop-color="#ed4f9b"/><stop offset=".551" stop-color="#eb008b"/><stop offset="1" stop-color="#7c003a"/></radialGradient><path fill="url(#j)" d="M42.465 27.773c.519 0 1.329.291 2.211 1.667 1.069 1.658.887 3.844.762 4.476l.022.018-.035.125-.039.13h-.095a.186.186 0 0 1-.061.013h-.173l-.003-.064c-.607-.217-2.581-1.178-3.459-2.944-.947-1.913-.415-2.77.004-3.121l-.013-.017.208-.113.173-.1.009.017c.129-.047.294-.087.489-.087zm2.532 5.81a7.758 7.758 0 0 0-1.026-3.03c-.567-.97-1.164-1.226-1.437-1.294-.074.264-.165.914.381 1.896a7.623 7.623 0 0 0 2.082 2.428z"/><g><radialGradient id="k" cx="50.542" cy="54.041" r="29.115" gradientUnits="userSpaceOnUse"><stop offset=".03" stop-color="#f28ab8"/><stop offset=".267" stop-color="#ed4f9b"/><stop offset=".551" stop-color="#eb008b"/><stop offset="1" stop-color="#7c003a"/></radialGradient><path fill="url(#k)" d="M45.23 34.015s0-.004-.008-.004v-.013c-.239-.061-2.52-.983-3.463-2.888-1-2.026-.269-2.774.112-2.999l.008-.005.009-.004c.125-.069.325-.143.576-.143.506 0 1.234.304 2.056 1.576 1.156 1.792.784 4.22.715 4.458 0 .005.008.005.008.005.004.008.004.008 0 .008 0 0-.008 0-.008-.005-.005.01-.005.014-.005.014m-2.813-4.964c-.047.104-.385.882.333 2.19.771 1.385 1.636 2.134 2.472 2.744-.096-1.03-.291-2.155-1.086-3.528-.758-1.29-1.611-1.398-1.719-1.406m2.813 5.332c.026 0 .052-.004.082-.004h.204l.082-.26a.434.434 0 0 0 .018-.125c.125-.619.342-2.917-.784-4.657-.749-1.16-1.544-1.749-2.367-1.749-.147 0-.277.021-.394.052l-.026-.056-.342.199h-.005v.004l-.389.212.039.057a1.736 1.736 0 0 0-.416.796c-.142.654.022 1.462.498 2.42.914 1.852 2.995 2.848 3.597 3.055a.37.37 0 0 0 .203.056zm-2.553-4.878c.277.121.714.415 1.138 1.138.537.93.797 1.745.922 2.494a7.45 7.45 0 0 1-1.667-2.074c-.402-.731-.432-1.255-.393-1.558z"/></g></g><g><radialGradient id="l" cx="50.539" cy="54.054" r="29.127" gradientUnits="userSpaceOnUse"><stop offset=".03" stop-color="#f28ab8"/><stop offset=".267" stop-color="#ed4f9b"/><stop offset=".551" stop-color="#eb008b"/><stop offset="1" stop-color="#7c003a"/></radialGradient><path fill="url(#l)" d="M25.865 60.734c-4.584-2.973-8.532-1.289-11.921 3.528 9.973 4.036 11.921-3.528 11.921-3.528zm-9.319 2.612c2.744-2.225 4.09-2.991 7.956-2.065-.001-.001-2.728 4.221-7.956 2.065z"/><radialGradient id="m" cx="50.529" cy="54.048" r="29.124" gradientUnits="userSpaceOnUse"><stop offset=".03" stop-color="#f28ab8"/><stop offset=".267" stop-color="#ed4f9b"/><stop offset=".551" stop-color="#eb008b"/><stop offset="1" stop-color="#7c003a"/></radialGradient><path fill="url(#m)" d="M21.433 59.068c1.463 0 2.986.511 4.532 1.507l.108.077-.03.126c-.018.052-1.307 4.853-6.809 4.853-1.593 0-3.397-.403-5.358-1.198l-.217-.087.135-.187c2.375-3.376 4.942-5.091 7.639-5.091zm4.211 1.745c-4.108-2.597-7.93-1.472-11.414 3.363 1.839.718 3.519 1.086 5.003 1.086 4.719.001 6.173-3.709 6.411-4.449zm-3.878-.1c.788 0 1.667.122 2.784.387l.25.063-.143.221c-.074.112-1.822 2.759-5.233 2.759-.948 0-1.939-.209-2.952-.624l-.291-.121.243-.195c1.918-1.55 3.225-2.49 5.342-2.49zm2.423.689c-.961-.221-1.731-.321-2.424-.321-1.9 0-3.146.832-4.861 2.208.866.324 1.709.485 2.52.485 2.654 0 4.277-1.749 4.765-2.372z"/></g><g><radialGradient id="n" cx="50.532" cy="54.053" r="29.122" gradientUnits="userSpaceOnUse"><stop offset=".03" stop-color="#f28ab8"/><stop offset=".267" stop-color="#ed4f9b"/><stop offset=".551" stop-color="#eb008b"/><stop offset="1" stop-color="#7c003a"/></radialGradient><path fill="url(#n)" d="M13.204 52.438c1.07 1.84 3.082 2.671 4.974 3.407 3.376 1.319 6.831.675 10.237-.131-1.511.355-3.472-.035-4.974-.328-3.159-.624-8.816-1.774-8.427-6.112.086-1.039.736-2.995 2.078-2.251 3.238 1.8 3.073-3.125.701-3.497-1.575-.247-2.948 1.26-3.779 2.375-1.307 1.753-1.953 4.58-.81 6.537z"/></g><g><radialGradient id="o" cx="50.538" cy="54.053" r="29.128" gradientUnits="userSpaceOnUse"><stop offset=".03" stop-color="#f28ab8"/><stop offset=".267" stop-color="#ed4f9b"/><stop offset=".551" stop-color="#eb008b"/><stop offset="1" stop-color="#7c003a"/></radialGradient><path fill="url(#o)" d="M30.553 54.061c1.792 1.424 3.943 1.817 6.046 1.498.182.909.191 1.805-.363 2.45-.952 1.099-2.709.241-3.9.658-1.177.401-1.805 2.091-2.151 3.15 0 0-.516 2.225 2.64 3.415 2.753 1.035 5.047-.818 6.069-3.216.987-2.333.455-4.753.156-7.159 1.835-.762 3.497-2.021 4.653-3.528.221-.277 1.52-2.476 1.818-3.826a8.639 8.639 0 0 0 4.173-3.965c.233-.446.437-.922.602-1.416.16.494.372.969.598 1.416.887 1.736 2.38 3.177 4.182 3.965.289 1.35 1.593 3.549 1.809 3.826 1.164 1.507 2.818 2.767 4.658 3.528-.295 2.406-.831 4.826.159 7.159 1.021 2.397 3.316 4.251 6.069 3.216 3.151-1.19 2.631-3.415 2.631-3.415-.346-1.06-.974-2.749-2.143-3.15-1.198-.417-2.956.44-3.899-.658-.554-.646-.554-1.541-.363-2.45 2.104.319 4.255-.074 6.038-1.498 1.818-1.441 2.177-3.307 1.982-5.479-.126-1.364-.87-2.831-2.173-3.415-.802-.36-1.835-.104-2.269.709-.507.983.735 1.104 1.242 1.598 1.372 1.372.511 3.849-.589 5.077-.956 1.082-2.346 1.373-3.734 1.303.116-.342.216-.653.294-.931.333-1.277.351-2.445-.363-3.592-1.178-1.883-3.402-2.727-5.528-2.914-2.783-.238-5.397-1.744-6.514-2.935-1.108-1.19-.953-2.775-.239-4.286 1.434.082 2.551-1.667.321-2.22-1.108-.278-1.797.441-2.169 1.368-.368-.927-1.056-1.646-2.173-1.368-2.22.553-1.108 2.302.321 2.22.714 1.511.87 3.095-.239 4.286-1.108 1.19-3.73 2.697-6.506 2.935-2.134.187-4.358 1.03-5.527 2.914-.719 1.147-.697 2.314-.364 3.592.07.277.178.589.286.931-1.38.07-2.77-.221-3.735-1.303-1.091-1.229-1.961-3.705-.58-5.077.498-.494 1.744-.614 1.233-1.598-.424-.813-1.458-1.069-2.268-.709-1.299.584-2.047 2.051-2.168 3.415-.192 2.172.168 4.037 1.977 5.479zm29.421-5.346c1.605.784 1.797 2.869 1.714 4.545-2.073-.857-3.761-2.888-4.35-5.138.9.125 1.839.204 2.636.593zm-19.362 0c.805-.389 1.74-.468 2.636-.593-.58 2.25-2.268 4.28-4.341 5.138-.082-1.676.099-3.761 1.705-4.545z"/></g><g><radialGradient id="p" cx="50.538" cy="54.051" r="29.127" gradientUnits="userSpaceOnUse"><stop offset=".03" stop-color="#f28ab8"/><stop offset=".267" stop-color="#ed4f9b"/><stop offset=".551" stop-color="#eb008b"/><stop offset="1" stop-color="#7c003a"/></radialGradient><path fill="url(#p)" d="M40.612 35.622c2.091 0 4.086 1.368 5.073 3.475 1.839 3.9-1.104 5.952-1.129 5.97l-.178.116.061-.199c.779-2.592.688-4.631-.251-5.891-.892-1.195-2.225-1.324-2.757-1.324-.658 0-1.273.182-1.549.463-.225.225-.463.554-.342.844.151.364.844.589 1.81.589.26 0 .545-.018.839-.047l.134-.018-.061.121c-.558 1.156-1.471 1.792-2.567 1.792a3.138 3.138 0 0 1-2.697-1.61c-.429-.805-.381-1.688.151-2.476.762-1.148 2.021-1.805 3.463-1.805z"/><g><radialGradient id="q" cx="50.541" cy="54.059" r="29.138" gradientUnits="userSpaceOnUse"><stop offset=".03" stop-color="#f28ab8"/><stop offset=".267" stop-color="#ed4f9b"/><stop offset=".551" stop-color="#eb008b"/><stop offset="1" stop-color="#7c003a"/></radialGradient><path fill="url(#q)" d="M44.508 45.005c1.709-5.7-1.074-7.311-3.078-7.311-.706 0-1.312.199-1.606.489-.953.953-.086 1.554 1.524 1.554.26 0 .545-.018.844-.048-.606 1.255-1.558 1.749-2.498 1.749-1.913 0-3.761-2.056-2.484-3.974.792-1.186 2.056-1.766 3.402-1.766 1.896 0 3.944 1.16 5.004 3.433 1.831 3.888-1.108 5.874-1.108 5.874m-.259.36l.346-.239c.03-.017.771-.528 1.29-1.532.476-.927.844-2.463-.13-4.527-.519-1.1-1.294-2.008-2.247-2.632-.892-.576-1.892-.887-2.896-.887-1.462 0-2.748.67-3.523 1.839-.546.814-.598 1.719-.152 2.555.524.987 1.636 1.649 2.757 1.649 1.13 0 2.065-.654 2.636-1.835l.117-.242-.269.03a8.17 8.17 0 0 1-.831.047c-.94 0-1.606-.208-1.749-.545-.099-.251.121-.554.333-.762.269-.269.858-.442 1.498-.442.519 0 1.827.125 2.697 1.299.927 1.242 1.009 3.255.247 5.827l-.124.397z"/></g></g><g><radialGradient id="r" cx="50.538" cy="54.054" r="29.13" gradientUnits="userSpaceOnUse"><stop offset=".03" stop-color="#f28ab8"/><stop offset=".267" stop-color="#ed4f9b"/><stop offset=".551" stop-color="#eb008b"/><stop offset="1" stop-color="#7c003a"/></radialGradient><path fill="url(#r)" d="M50.261 46.823c.013 0 .025 0 .034.005.013-.005.017-.005.035-.005h.005c.06 0 .103.052.103.108 0 .169 0 .338.005.502.567 3.757 3.186 8.692 6.592 10.458a.11.11 0 0 1 .052.121c-.013.052-.052.087-.107.087-3.961.057-5.965 5.293-6.489 6.912a8.51 8.51 0 0 1-.052.38.11.11 0 0 1-.103.097h-.006c-.018 0-.022-.005-.035-.01a.072.072 0 0 1-.034.01h-.009c-.047-.005-.095-.043-.1-.097-.013-.12-.034-.246-.047-.38-.523-1.619-2.528-6.855-6.497-6.912-.048 0-.095-.035-.1-.087-.013-.047.004-.101.052-.121 3.398-1.766 6.021-6.701 6.592-10.458v-.502c0-.056.048-.103.109-.108zm3.73 10.606c-1.242-.581-2.484-3.233-3.255-4.865a21.888 21.888 0 0 0-.441-.905c-.108.209-.259.528-.438.91-.77 1.627-2.021 4.279-3.254 4.86a7.426 7.426 0 0 1 3.692 4.695 7.403 7.403 0 0 1 3.696-4.695z"/><g><radialGradient id="s" cx="50.537" cy="54.051" r="29.127" gradientUnits="userSpaceOnUse"><stop offset=".03" stop-color="#f28ab8"/><stop offset=".267" stop-color="#ed4f9b"/><stop offset=".551" stop-color="#eb008b"/><stop offset="1" stop-color="#7c003a"/></radialGradient><path fill="url(#s)" d="M50.261 65.375c-.022-.129-.035-.26-.048-.389-.489-1.512-2.519-6.938-6.597-6.995 3.498-1.818 6.078-6.817 6.645-10.549v-.511c.013.091.025.183.034.273.013-.09.026-.182.035-.273v.511c.563 3.731 3.152 8.73 6.649 10.549-4.077.057-6.112 5.483-6.597 6.995-.013.129-.034.26-.052.389 0 0-.009-.039-.035-.117l-.034.117m.034-13.937c-.506.792-2.337 5.604-3.978 5.973a7.272 7.272 0 0 1 3.978 5.22 7.3 7.3 0 0 1 3.974-5.22c-1.641-.368-3.463-5.181-3.974-5.973m.035 14.158h.013c.1-.005.19-.082.203-.186.021-.112.035-.234.052-.377.226-.696.853-2.429 1.913-3.964 1.304-1.875 2.806-2.836 4.468-2.857a.236.236 0 0 0 .217-.169.229.229 0 0 0-.113-.251c-3.363-1.745-5.956-6.635-6.532-10.367v-.494a.225.225 0 0 0-.207-.22h-.013c-.009 0-.022 0-.035.004-.009-.004-.021-.004-.034-.004h-.009a.223.223 0 0 0-.212.22v.494c-.571 3.732-3.164 8.622-6.527 10.367a.205.205 0 0 0-.112.251c.017.095.108.164.208.169 1.662.021 3.169.982 4.467 2.857 1.069 1.535 1.696 3.268 1.921 3.964.014.134.026.256.043.377a.227.227 0 0 0 .212.186h.009c.013 0 .025 0 .034-.005a.088.088 0 0 0 .034.005zm3.428-8.167a7.552 7.552 0 0 0-3.463 4.293 7.556 7.556 0 0 0-3.458-4.293c.48-.299 1-.901 1.567-1.823.602-.986 1.155-2.146 1.549-2.99.13-.277.247-.523.342-.715.096.191.208.438.337.715.403.844.948 2.004 1.559 2.99.567.921 1.081 1.524 1.567 1.823z"/></g></g><g><radialGradient id="t" cx="50.538" cy="54.047" r="29.133" gradientUnits="userSpaceOnUse"><stop offset=".03" stop-color="#f28ab8"/><stop offset=".267" stop-color="#ed4f9b"/><stop offset=".551" stop-color="#eb008b"/><stop offset="1" stop-color="#7c003a"/></radialGradient><path fill="url(#t)" d="M46.434 79.296s1.104-.598.329-1.498c-.779-.9-2.086.126-2.168 1.062-.078.938.614 2.658 2.697 1.718 2.083-.939 3.563-3.553 4.887-5.801 1.32-2.245 3.281-3.882 5.168-3.063.845.429.563.696.688 1.104 0 0-.199-.662-.922-.632-1.159.039-1.121 1.565-.489 1.957.641.384 2.225.696 2.662-.936.425-1.636-1.558-2.848-3.15-2.628-1.593.23-2.983 1.359-4.229 3.169-1.034 1.506-2.489 4.111-3.489 4.951-1.001.84-1.797 1.091-1.984.597z"/><radialGradient id="u" cx="50.535" cy="54.053" r="29.127" gradientUnits="userSpaceOnUse"><stop offset=".03" stop-color="#f28ab8"/><stop offset=".267" stop-color="#ed4f9b"/><stop offset=".551" stop-color="#eb008b"/><stop offset="1" stop-color="#7c003a"/></radialGradient><path fill="url(#u)" d="M49.741 71.12s3.146 6.271 10.055 6.718c6.904.45 11.332-.957 13.886-5.614 1.473-3.269-1.661-5.126-3.259-5.048 0 0-2.091.286-1.805 1.762.285 1.468 1.696 1.233 2.207.464.406-.606.061-1.057.061-1.057s2.307.832 2.186 2.385c-.16 1.97-2.661 4.021-4.645 4.974-1.974.953-7.445 1.523-10.067.953-2.616-.573-6.455-2.204-8.619-5.537z"/><radialGradient id="v" cx="50.538" cy="54.058" r="29.124" gradientUnits="userSpaceOnUse"><stop offset=".03" stop-color="#f28ab8"/><stop offset=".267" stop-color="#ed4f9b"/><stop offset=".551" stop-color="#eb008b"/><stop offset="1" stop-color="#7c003a"/></radialGradient><path fill="url(#v)" d="M67.189 70.703s.025.729-.953.832c-.519.056-1.047-.654-.354-1.498s3.095-.623 3.064 1.671c-.043 2.576-4.169 3.363-6.419 2.101-1.636-.94-3.269-4.006-4.739-5.147-1.472-1.144-3.593-1.021-4.532-.204-.939.813-1.221 1.672-1.078 2.286-.476-1.104.091-2.234 1.018-2.827.938-.605 2.999-1.622 5.129.541.818.835 1.567 1.728 2.294 2.645.685.854 1.352 1.91 2.411 2.32.853.328 1.982.328 2.865.117.455-.108.987-.338 1.334-.671 1.103-1.066.57-2.005-.04-2.166z"/><g><radialGradient id="w" cx="50.539" cy="54.047" r="29.133" gradientUnits="userSpaceOnUse"><stop offset=".03" stop-color="#f28ab8"/><stop offset=".267" stop-color="#ed4f9b"/><stop offset=".551" stop-color="#eb008b"/><stop offset="1" stop-color="#7c003a"/></radialGradient><path fill="url(#w)" d="M53.61 79.296s-1.112-.598-.338-1.498c.779-.9 2.087.126 2.174 1.062.073.938-.61 2.658-2.701 1.718-2.082-.939-3.563-3.553-4.887-5.801-1.32-2.245-3.281-3.882-5.16-3.063-.844.429-.571.696-.696 1.104 0 0 .199-.662.921-.632 1.16.039 1.121 1.565.49 1.957-.633.384-2.226.696-2.653-.936-.434-1.636 1.549-2.848 3.142-2.628 1.593.23 2.982 1.359 4.229 3.169 1.039 1.506 2.488 4.111 3.488 4.951 1 .84 1.806 1.091 1.991.597z"/></g><g><radialGradient id="x" cx="50.537" cy="54.053" r="29.124" gradientUnits="userSpaceOnUse"><stop offset=".03" stop-color="#f28ab8"/><stop offset=".267" stop-color="#ed4f9b"/><stop offset=".551" stop-color="#eb008b"/><stop offset="1" stop-color="#7c003a"/></radialGradient><path fill="url(#x)" d="M50.295 71.12s-3.147 6.271-10.046 6.718c-6.904.45-11.341-.957-13.895-5.614-1.472-3.269 1.667-5.126 3.268-5.048 0 0 2.091.286 1.796 1.762-.281 1.468-1.688 1.233-2.199.464-.407-.606-.069-1.057-.069-1.057s-2.308.832-2.186 2.385c.16 1.97 2.662 4.021 4.645 4.974 1.982.953 7.454 1.523 10.068.953 2.615-.573 6.454-2.204 8.618-5.537z"/></g><g><radialGradient id="y" cx="50.536" cy="54.058" r="29.119" gradientUnits="userSpaceOnUse"><stop offset=".03" stop-color="#f28ab8"/><stop offset=".267" stop-color="#ed4f9b"/><stop offset=".551" stop-color="#eb008b"/><stop offset="1" stop-color="#7c003a"/></radialGradient><path fill="url(#y)" d="M32.847 70.703s-.021.729.961.832c.516.056 1.048-.654.355-1.498-.697-.844-3.1-.623-3.064 1.671.035 2.576 4.164 3.363 6.411 2.101 1.636-.94 3.268-4.006 4.739-5.147 1.472-1.144 3.593-1.021 4.532-.204.939.813 1.221 1.672 1.078 2.286.476-1.104-.082-2.234-1.017-2.827-.939-.605-3-1.622-5.125.541-.813.835-1.563 1.728-2.298 2.645-.675.854-1.342 1.91-2.402 2.32-.861.328-1.991.328-2.865.117-.463-.108-.996-.338-1.337-.671-1.103-1.066-.579-2.005.032-2.166z"/></g></g><g><radialGradient id="z" cx="50.538" cy="54.037" r="29.131" gradientUnits="userSpaceOnUse"><stop offset=".03" stop-color="#f28ab8"/><stop offset=".267" stop-color="#ed4f9b"/><stop offset=".551" stop-color="#eb008b"/><stop offset="1" stop-color="#7c003a"/></radialGradient><path fill="url(#z)" d="M73.293 72.219h21.135v.654H73.293z"/></g><g><radialGradient id="A" cx="50.536" cy="54.045" r="29.128" gradientUnits="userSpaceOnUse"><stop offset=".03" stop-color="#f28ab8"/><stop offset=".267" stop-color="#ed4f9b"/><stop offset=".551" stop-color="#eb008b"/><stop offset="1" stop-color="#7c003a"/></radialGradient><path fill="url(#A)" d="M73.695 70.211h21.136v.653H73.695z"/></g><g><radialGradient id="B" cx="50.536" cy="54.037" r="29.136" gradientUnits="userSpaceOnUse"><stop offset=".03" stop-color="#f28ab8"/><stop offset=".267" stop-color="#ed4f9b"/><stop offset=".551" stop-color="#eb008b"/><stop offset="1" stop-color="#7c003a"/></radialGradient><path fill="url(#B)" d="M5.625 72.219h21.136v.654H5.625z"/><g><radialGradient id="C" cx="50.538" cy="54.045" r="29.132" gradientUnits="userSpaceOnUse"><stop offset=".03" stop-color="#f28ab8"/><stop offset=".267" stop-color="#ed4f9b"/><stop offset=".551" stop-color="#eb008b"/><stop offset="1" stop-color="#7c003a"/></radialGradient><path fill="url(#C)" d="M5.162 70.211h21.136v.653H5.162z"/></g></g></svg>