<svg xmlns:xlink="http://www.w3.org/1999/xlink"  xmlns="http://www.w3.org/2000/svg" viewBox="0 0 150 150"><path fill="none" d="M96.4 118.4c2.2.7 4.5 1.3 6.9 1.2h.7c1.1-1.6 2-3.4 3-5.2-1.9 0-3.8.1-5.6.1-1.3 1.2-3 2.5-5 3.9zM49.7 114.5h-4.3c1 1.8 1.9 3.6 3 5.2 2.5 0 5.1-.1 7.6-.2-2.9-1.7-5.1-3.5-6.3-5zM95.1 129.9l.3-.3c-.3.1-.6.3-.8.3.2.1.3.1.5 0zM59.9 128.2h-4.6c.6.6 1.2 1.1 1.8 1.6 1.1-.3 2.1-.6 3.2-.9l-.4-.7zM95.9 129.2c.5-.5 1-.9 1.5-1.4-1.8.1-3.6.4-5.4.8 1.3.1 2.6.3 3.9.6zM56.7 107.1c-.8-1.4-2.3-1.8-3.8-2 3.4-.9 6.9-.6 10.5-.7.2-.5.2-1.1-.1-1.7 1 .5 1.8 1.1 2.4 1.6 1.4-.1 2.7-.3 4-.8.1-.4.3-1.2.4-1.5h1.7c.1-4.6.2-8.8.3-11.3.4-7.3-1.6-9.8-8.1-16.6-4.1-4.3-4.4-6.2-5-9.6 2.6 2.4 2.7 5.1 6.4 7.8 3 2.2 6.3 4.5 7.8 8.1 1-7.5 1.9-18 2.1-25 2.7 7.7 1.3 24.9 1.3 34.5 3.3-5.4 8.6-5.1 18-14.5-5.8 12.2-18.4 13.2-17.4 25.4 0 .4.1.8.1 1.2h8c-.1.5-.3 1.6-.4 2.1 2.3.1 4.7.2 7 .2v-.7c.1.2.1.5.2.7 3.5.1 7 .1 10.5.2-.3.5-1 1.5-1.3 2 3 .2 6.1.2 9.1.1 3.5-9.3 5.5-20 5.5-31.6 0-17.6-4.7-33.5-12.1-44.8-7.4-11.3-17.3-17.9-27.7-17.8-10.5 0-20.3 6.5-27.7 17.8C41 41.4 36.3 57.3 36.3 74.9c0 11.9 2.2 22.9 5.8 32.3 4.9.2 9.7.2 14.6-.1zm-7.8-16.3c11-10.3 22.5-.6 21.9 9.1-5.1-5.9-10.6 5-21.9-9.1zm22.5-2.9c-3.5-3.2-12.4.9-14.6-6.5 7.6-4.6 12.1-.6 14.6 6.5zm1-11.8c-.3-3.7-6.4-1-3.9-8.4 5.6-.6 5.3 4.1 3.9 8.4zm-7.3-5.6c-6.3-9.6-2.2-18.4 6.4-17.3 6.5 15.1-6.5 9.1-6.4 17.3zm14.4 14.6c3.5-5-6.1-11.6 6.4-17.1 4.8 6.5 2 12.9-6.4 17.1zm10.2-9.3c2.5-5.4-3.2-3.8 0-11.3 5.5 3.2 3.2 9 0 11.3zm-11.6-4.3c-1.1-16.7 4-21.4 15.4-20.1 3.1 16.8-10.4 8.5-15.4 20.1zm.4 30.2c.2-7.4 3.8-10.3 11.6-8.7-3.2 10.4-7.1 3.9-11.6 8.7zm5.9-12.1C92 79.9 99.2 79 105.3 84c-6.3 13-13.6 6.1-20.9 5.6zm12.4-10.4c2.9-3.7 9.6-5 11.1-.9-2.7 4.6-6.1 0-11.1.9zm12.3-18.5c1.3 8.7-2.3 16-14 13.8-3.5-11 5-15.2 14-13.8zm-9.3-12.1c6.7 10.3-.7 11.3-5.6 14.1 3.5-4.5-2-8.9 5.6-14.1zm-2.7-8.1c1.3 14.4-10.4 5.7-14.8 11.6.7-10.2 6.1-12.6 14.8-11.6zM82.5 33c6.4 1.5 3.7 8.7.9 11.2 1.3-4.1-5-5.9-.9-11.2zm-10.1-.8c9.2 4 12.6 17.3 3.1 21.9-13-6.1-6.6-19.6-3.1-21.9zM64.3 38c5.6 10.9-2.2 10.1-2.5 17.3-6.4-7.7-5-14.8 2.5-17.3zm-9.5.6c3.2 3.5.4 6 1.3 9.3-5.6-2.1-4.4-8.3-1.3-9.3zm4.1 24.6c-13.1 2.6-12.1-10.7-13.3-15.4 15-1.8 16.3 10.4 13.3 15.4zm-2.5 5.4c-5.4-2.5-8.6 3.7-13.9-4.8 6-2.3 11.3.2 13.9 4.8zm-14.8 7.5c5.7-9.6 17.4-7.9 23.5 1.8-8.1-2.2-15.3 10.3-23.5-1.8zm2.4 7.5c7.7-3.5 7.6 2.2 12 .6-3.3 2.6-8.5 6.9-12-.6z"/><linearGradient id="a" gradientUnits="userSpaceOnUse" x1="53.698" y1="116.471" x2="62.445" y2="216.429"><stop offset="0" stop-color="#a2ddf8"/><stop offset=".117" stop-color="#9cd5f3"/><stop offset=".302" stop-color="#8bbee4"/><stop offset=".532" stop-color="#7098cc"/><stop offset=".797" stop-color="#4b64ab"/><stop offset="1" stop-color="#2b388f"/></linearGradient><path fill="url(#a)" d="M51.8 112.7c-.2-.9-.6-1.4-2.2-1.3 2.4-3.1 6 .5 6.5 2.3 1.9-2.4.7-4.9 2.3-9.2-.8 4.8 1.5 6.3 1 9 1.6-1.2 1-2.8 0-4.4 3 1.2 3.9 4.2 3.6 5.9 2.1-3.3-.2-3.9-.5-6.2-.3-2.2.6-3.3 1-4.4-3.5.1-7.1-.3-10.5.7 1.4.3 3 .7 3.8 2-4.8.4-9.7.4-14.5.2 1 2.5 2.1 5 3.2 7.2h4.3c-2-2.2-1.7-3.5 2-1.8z"/><linearGradient id="b" gradientUnits="userSpaceOnUse" x1="101.229" y1="112.313" x2="109.971" y2="212.219"><stop offset="0" stop-color="#a2ddf8"/><stop offset=".117" stop-color="#9cd5f3"/><stop offset=".302" stop-color="#8bbee4"/><stop offset=".532" stop-color="#7098cc"/><stop offset=".797" stop-color="#4b64ab"/><stop offset="1" stop-color="#2b388f"/></linearGradient><path fill="url(#b)" d="M101.3 106.5c.3-.5 1-1.5 1.3-2-3.5-.1-7-.1-10.5-.2 1.2 4-1.8 7.2-.1 10.3.3-3.8 4.8-7.5 10.3-5.7-1.4.8-1.3 1.7-1.5 2.8 4.1-2.3 3.7-.3.4 2.8 1.9 0 3.8-.1 5.6-.1 1.3-2.5 2.4-5.1 3.5-7.9-2.9.1-5.9.1-9 0z"/><linearGradient id="c" gradientUnits="userSpaceOnUse" x1="75.729" y1="114.549" x2="84.476" y2="214.507"><stop offset="0" stop-color="#a2ddf8"/><stop offset=".117" stop-color="#9cd5f3"/><stop offset=".302" stop-color="#8bbee4"/><stop offset=".532" stop-color="#7098cc"/><stop offset=".797" stop-color="#4b64ab"/><stop offset="1" stop-color="#2b388f"/></linearGradient><path fill="url(#c)" d="M96.4 118.4c-5.3 3.5-12.8 6.8-21 6.8-7.7 0-14.5-2.7-19.4-5.7-2.5.1-5.1.1-7.6.2 2.1 3.2 4.4 6 6.9 8.4h4.6l.4.7c-1.1.3-2.1.6-3.2.9 5.8 5 12.3 7.8 19.1 7.8 6.7 0 13.2-2.7 18.9-7.6h-.5c.2-.1.5-.2.8-.3l.5-.5c-1.3-.2-2.6-.4-3.8-.6 1.8-.4 3.6-.7 5.4-.8 2.3-2.3 4.5-5 6.5-8 0 0 0-.1.1-.1h-.7c-2.5.1-4.8-.5-7-1.2z"/><linearGradient id="d" gradientUnits="userSpaceOnUse" x1="69.203" y1="115.116" x2="77.954" y2="215.118"><stop offset="0" stop-color="#a2ddf8"/><stop offset=".117" stop-color="#9cd5f3"/><stop offset=".302" stop-color="#8bbee4"/><stop offset=".532" stop-color="#7098cc"/><stop offset=".797" stop-color="#4b64ab"/><stop offset="1" stop-color="#2b388f"/></linearGradient><path fill="url(#d)" d="M65.6 115.9c.6-1.8 3.9-1.8 4.4-6.5.5 1.6 1 4 1.8 6V102h-1.7c-.1.4-.3 1.2-.4 1.5-1.3.4-2.7.6-4 .8 6.1 5-1.2 9.6-.1 11.6z"/><linearGradient id="e" gradientUnits="userSpaceOnUse" x1="85.426" y1="113.695" x2="94.175" y2="213.675"><stop offset="0" stop-color="#a2ddf8"/><stop offset=".117" stop-color="#9cd5f3"/><stop offset=".302" stop-color="#8bbee4"/><stop offset=".532" stop-color="#7098cc"/><stop offset=".797" stop-color="#4b64ab"/><stop offset="1" stop-color="#2b388f"/></linearGradient><path fill="url(#e)" d="M81.1 105.4c-1.4 6.2-1.2 9.8 1.2 11.4-1.6-2.3 1.7-3.7 0-6.8 2.5.6 1 3.8 3.3 4.7.6-2.6-2.2-4.4.1-7.9 4.7 3.4 1.1 6.4 3.1 5.9 1.4-1.3 3.1-5.4 3.2-8.5-2.3-.1-4.7-.1-7-.2.1-.5.3-1.6.4-2.1h-8c.2 2.7.4 7 .7 11 .3-2.3 1-5 3-7.5z"/><path fill="#00AC93" d="M82.4 52.1c4.4-5.9 16.1 2.8 14.8-11.6-8.8-1-14.2 1.4-14.8 11.6z"/><path fill="#00AC93" d="M78.1 71.5c5-11.6 18.4-3.4 15.3-20.1-11.3-1.3-16.4 3.4-15.3 20.1zM79.5 85.1C88 81 90.7 74.5 85.9 68c-12.6 5.5-2.9 12.1-6.4 17.1zM75.5 54.1c9.5-4.6 6.1-17.9-3.1-21.9-3.5 2.3-9.9 15.8 3.1 21.9z"/><path fill="#00AC93" d="M83.4 44.2c2.8-2.5 5.5-9.7-.9-11.2-4.1 5.3 2.2 7.1.9 11.2zM89.7 64.5c-3.2 7.5 2.5 5.9 0 11.3 3.2-2.3 5.5-8.1 0-11.3z"/><path fill="#00AC93" d="M95.1 74.5c11.7 2.2 15.3-5.1 14-13.8-9-1.4-17.5 2.8-14 13.8zM84.4 89.6c7.3.5 14.6 7.4 20.9-5.6-6.1-5-13.3-4.1-20.9 5.6zM78.5 101.7c4.5-4.9 8.4 1.7 11.6-8.7-7.8-1.6-11.4 1.3-11.6 8.7z"/><path fill="#00AC93" d="M96.8 79.2c5-.9 8.3 3.7 11.1-.9-1.4-4.1-8.1-2.8-11.1.9zM94.2 62.7c4.8-2.8 12.3-3.8 5.6-14.1-7.6 5.2-2.1 9.6-5.6 14.1zM56.4 68.6c-2.6-4.6-7.9-7.1-13.9-4.8 5.3 8.5 8.5 2.3 13.9 4.8zM48.9 90.8c11.2 14.1 16.8 3.2 21.9 9.1.6-9.7-10.9-19.4-21.9-9.1zM65.1 70.5c-.1-8.2 12.9-2.2 6.5-17.3-8.7-1.1-12.7 7.8-6.5 17.3zM55.9 84.2c-4.4 1.6-4.2-4.1-12-.6 3.6 7.5 8.8 3.2 12 .6z"/><path fill="#00AC93" d="M56.8 81.4c2.2 7.3 11.1 3.2 14.6 6.5-2.5-7.1-7-11.1-14.6-6.5z"/><path fill="#00AC93" d="M65.1 77.9c-6.1-9.7-17.8-11.3-23.5-1.8 8.2 12.1 15.4-.4 23.5 1.8zM58.9 63.2c3.1-5 1.8-17.2-13.3-15.4 1.1 4.6.1 18 13.3 15.4zM68.5 67.7c-2.5 7.3 3.6 4.7 3.9 8.4 1.4-4.3 1.7-9-3.9-8.4z"/><path fill="#00AC93" d="M64.3 38c-7.4 2.5-8.9 9.6-2.5 17.3.3-7.1 8-6.4 2.5-17.3z"/><path fill="#00AC93" d="M56.1 47.9c-.9-3.2 1.9-5.7-1.3-9.3-3.1 1-4.3 7.2 1.3 9.3zM91.9 104.3c-.1 3.1-1.8 7.1-3.2 8.5-2.1.5 1.5-2.5-3.1-5.9-2.3 3.5.5 5.3-.1 7.9-2.3-.9-.8-4.1-3.3-4.7 1.8 3.1-1.6 4.5 0 6.8-2.3-1.6-2.6-5.3-1.2-11.4-1.9 2.6-2.6 5.3-3 7.5-.3-4-.5-8.3-.7-11 0-.4-.1-.9-.1-1.2-1-12.2 11.6-13.2 17.4-25.4-9.4 9.4-14.7 9-18 14.5.1-9.6 1.4-26.7-1.3-34.5-.3 7-1.1 17.5-2.1 25-1.5-3.7-4.7-6-7.8-8.1-3.7-2.7-3.8-5.4-6.4-7.8.6 3.4.9 5.3 5 9.6 6.5 6.8 8.6 9.3 8.1 16.6-.1 2.5-.2 6.7-.3 11.3-.1 4.4-.1 9.2 0 13.4-.8-2-1.3-4.4-1.8-6-.4 4.7-3.8 4.7-4.4 6.5-1-1.9 6.2-6.6.2-11.6-.7-.5-1.4-1.1-2.4-1.6.3.7.2 1.2.1 1.7-.3 1.1-1.2 2.3-1 4.4.3 2.4 2.6 3 .5 6.2.3-1.7-.5-4.7-3.6-5.9 1 1.6 1.6 3.1 0 4.4.4-2.7-1.8-4.2-1-9-1.6 4.3-.4 6.8-2.3 9.2-.4-1.7-4.1-5.4-6.5-2.3 1.6-.1 2 .4 2.2 1.3-3.7-1.7-4-.4-2.1 1.8 1.2 1.4 3.4 3.2 6.3 5 4.9 3 11.7 5.7 19.4 5.7 8.2 0 15.8-3.3 21-6.8 2-1.3 3.7-2.6 4.9-3.8 3.3-3.1 3.7-5.1-.4-2.8.1-1.1.1-2 1.5-2.8-5.5-1.8-9.9 1.8-10.3 5.7-1.7-3.2 1.2-6.4.1-10.3-.1-.2-.1-.5-.2-.7 0 .1-.1.3-.1.6z"/><path fill="#00AC93" d="M122.3 74.9c0-18.7-4.9-35.7-13.1-48.3-8.1-12.4-19.8-20.7-33-20.7-13.3 0-24.9 8.2-33.1 20.7C34.9 39.2 30 56.2 30 74.9c0 11.3 1.8 21.9 5.1 31.4 0 .1.1.3.1.4.2.6.4 1.2.7 1.8.8 2 1.6 4 2.5 5.9.9 1.8 1.8 3.6 2.7 5.3.7 1.2 1.3 2.4 2.1 3.5 1.1 1.7 2.3 3.3 3.5 4.9.6.8 1.3 1.5 1.9 2.3 5 5.5 10.8 9.7 17.3 11.9 3.3 1.1 6.8 1.7 10.3 1.7 4.1 0 8.1-.8 11.9-2.3 5.9-2.3 11.2-6.3 15.8-11.4.6-.7 1.2-1.4 1.8-2.2 1.2-1.5 2.4-3.1 3.5-4.8.8-1.1 1.4-2.4 2.1-3.6 1-1.7 1.9-3.4 2.7-5.2 1.2-2.6 2.3-5.2 3.2-8 3.3-9.6 5.1-20.3 5.1-31.6zM104 119.6l-.1.1c-2 3-4.2 5.7-6.5 8-.5.5-1 .9-1.5 1.4l-.5.5-.3.3c-5.7 4.9-12.2 7.6-18.9 7.6-6.8 0-13.3-2.8-19.1-7.8-.6-.5-1.2-1.1-1.8-1.6-2.5-2.4-4.8-5.2-6.9-8.4-1.1-1.6-2.1-3.4-3-5.2-1.2-2.3-2.3-4.7-3.2-7.2-3.6-9.4-5.8-20.5-5.8-32.3 0-17.6 4.7-33.5 12.1-44.8 7.4-11.3 17.2-17.8 27.7-17.8s20.3 6.5 27.7 17.8C111.3 41.5 116 57.4 116 75c0 11.6-2.1 22.3-5.5 31.6-1 2.8-2.2 5.4-3.5 7.9-1 1.7-2 3.5-3 5.1z"/></svg>