<svg xmlns:xlink="http://www.w3.org/1999/xlink"  xmlns="http://www.w3.org/2000/svg" viewBox="0 0 150 150"><path fill="#00AFB5" d="M76.8 15.3c35.3 0 64 28.6 64 64 0 8.5-1.7 16.6-4.7 24 3.8-8.2 5.9-17.2 5.9-26.8 0-35.3-28.6-64-64-64-26.8 0-49.8 16.5-59.3 40C28.9 30.6 51 15.3 76.8 15.3z"/><path fill="#00AFB5" d="M82.1 49.2c0 5.3-4.3 9.5-9.5 9.5-5.3 0-9.5-4.3-9.5-9.5 0-5.3 4.3-9.5 9.5-9.5s9.5 4.3 9.5 9.5z"/><path fill="none" d="M91.3 139.2c25.9-7.2 44.9-30.8 44.9-58.9 0-27.3-18.1-50.5-42.9-58.3-5.6-1.7-11.5-2.6-17.6-2.6-2 0-4 .1-6 .3-14.5 2.6-25.5 15.1-25.5 30.2 0 16.3 12.8 29.6 28.9 30.7h4.1c16.1 1 28.9 14.4 28.9 30.7 0 13.7-9 25.3-21.5 29.3.9-.1 1.8-.2 2.6-.4.4-.1.8-.2 1.2-.2 1-.3 2-.5 2.9-.8z"/><path fill="#00AFB5" d="M106.1 111.3c0-16.3-12.7-29.6-28.9-30.7h-4.1c-16.1-1-28.9-14.4-28.9-30.7 0-15.1 11-27.7 25.5-30.2-30.6 3-54.6 29.1-54.6 60.6 0 33.6 27.2 61 60.6 61 3 0 5.9-.3 8.8-.7 12.6-4 21.6-15.5 21.6-29.3zM75.8 121c-5.3 0-9.5-4.3-9.5-9.5 0-5.3 4.3-9.5 9.5-9.5s9.5 4.3 9.5 9.5-4.3 9.5-9.5 9.5zM93.3 22c-5.9-1.9-12.1-2.9-18.5-2.9h-.1c-1.7 0-3.3.2-4.9.5 2-.2 4-.3 6-.3 6.1.1 12 1 17.5 2.7zM87.2 140.2c.4-.1.8-.2 1.2-.2-.3 0-.8.1-1.2.2z"/><path fill="#00AFB5" d="M136.2 80.3c0 28-19.1 51.7-44.9 58.9 25.9-6.9 45.1-30.6 45.1-58.9 0-27.5-18.2-50.7-43-58.3 24.8 7.9 42.8 31 42.8 58.3zM91.3 139.2c-.9.2-1.9.5-2.8.7.9-.2 1.9-.4 2.8-.7zM84 140.8c1.1-.2 2.2-.4 3.2-.6-.9.2-1.7.3-2.6.4-.2.1-.4.2-.6.2z"/></svg>