<svg xmlns:xlink="http://www.w3.org/1999/xlink"  xmlns="http://www.w3.org/2000/svg" viewBox="0 0 1500 1500"><path fill="#CA96C3" d="M1376.1 1262.3c-79.2-65.4 66.8-260.9 2-427.6-64.7-166.6-243.1-192.1-243.1-192.1 207.2-4.8 247.8-289.2 260.9-380.8 13.1-91.6-48.2-75.7-31.7-53.7 16.5 22-37.8 93-264.4 129.5-85.2 13.7-140 53.4-175.2 97.5-30.7 42.3-133.7 196 68.4 344 26.2 19.2 47.4 38.8 64.7 58.5 116.7 133 48.8 267.6 48.8 267.6l-4.4-68.3c-1.5-36.7-47.7-63.2-87.1-88.4-5.4-3.4-12.9-6.1-21.8-8.2-28.9-6.9-73-8-111.3-9.2 32.7 113.6 133.3 359.1 379.8 291 26.8 1 55.2 15.4 70.3 73.1 25.5 97.3 123.3 32.5 44.1-32.9zM941.7 589.4s-4.9-116.8 116.9-160.7c121.7-43.8 209.3-29.2 282.4-121.7 0 .1-151 443.1-399.3 282.4zm116.9 131.5s170.4-34.1 224 43.8c53.5 77.9-73.1 53.6-224-43.8zm182.9 306.9c-22.1-13.1-46.7-30.2-72.1-50.9 0 0 29.2-2.5 62.8 1.7 35.5 4.4 76 16.4 92.3 46.9 23.6 44.1-18.9 40.3-83 2.3zM1216 893.7c-20.8-13.3-43.3-29.4-66.3-48.1 0 0 25.4-2.2 57.2.5 42.6 3.6 96.6 15.9 117.1 54.1 28.3 52.8-27.9 44.5-108-6.5zM485.2 943.9c-39.5 25.1-85.6 51.7-87.1 88.4l-4.4 68.3S325.7 966 442.5 833c17.3-19.7 38.5-39.4 64.7-58.5 203.2-148.8 99.9-300.7 69.8-342.1l.1.1c-35.2-44.9-90.3-85.6-176.8-99.6-226.5-36.5-280.9-107.4-264.4-129.5 16.5-22-44.7-37.9-31.7 53.7 13.1 91.6 53.7 375.9 260.9 380.8 0 0-178.3 25.5-243.1 192.1-64.7 166.6 81.2 362.2 2 427.6-79.2 65.4 18.6 130.1 44 33.1 15.2-57.8 43.5-72.1 70.3-73.1 246.4 68.2 347-177.4 379.8-291-38.3 1.2-82.4 2.2-111.3 9.2-8.7 2-16.2 4.6-21.6 8.1zm-326-641.7c73 92.5 160.7 77.9 282.4 121.7 121.7 43.8 116.9 160.7 116.9 160.7-248.4 160.6-399.3-282.4-399.3-282.4zm67.1 457.6c53.6-77.9 224-43.8 224-43.8-151 97.4-277.6 121.8-224 43.8zm31.3 268.7c-58.6 32.7-95.7 34-73.3-7.9 15-28 50.3-40.3 83.4-45.6 37.2-5.9 71.6-2.9 71.6-2.9-29.1 23.7-57.3 42.8-81.7 56.4zM283 894.9c-74.8 45.5-125.4 51.1-98.2.4 19.1-35.6 67.3-48.7 108.3-53.2 35.8-4 66-1.3 66-1.3-26.7 21.6-52.5 39.8-76.1 54.1z"/><path fill="#BD89D2" d="M558.4 584.6s4.9-116.9-116.9-160.7c-121.7-43.8-209.3-29.2-282.4-121.7.1 0 151 443 399.3 282.4zM1015 948.7c39.5 25.1 85.6 51.6 87.1 88.4l4.4 68.3s68-134.6-48.8-267.6c-17.3-19.7-38.5-39.4-64.7-58.5-202.2-148-99.1-301.8-68.4-344 .2-.2.4-.5.5-.7 0 0-108.1 84.6-73 208.5 0 0-17.7 17.4-35.1-.3 0 0-2 31.8 29.6 30.5 0 0-65.7 63.1-72.4 68.1-9.4 7.1-2.7 15.1 10.9 21.3 13.6 6.1 23.8 10.7 22.5 19.2-1.3 8.4-11.1 13.8-5.8 20.3s27.4 15.6 27.4 15.6-21.7-.8-23 9.3c-1.3 10.1 15.6 12.7 17.8 26 2.2 13.3-36.3 53.3-17.2 69.2 8 6.7 39 8 75.2 9.2 38.3 1.2 82.4 2.3 111.3 9.2 8.8 1.9 16.3 4.6 21.7 8z"/><path fill="#BD89D2" d="M1341 307.1c-73 92.5-160.7 77.9-282.4 121.7-121.7 43.8-116.9 160.7-116.9 160.7C1190 750.1 1341 307.1 1341 307.1zM653.4 668.4c31.7 1.3 29.6-30.5 29.6-30.5-17.4 17.7-35.1.2-35.1.2 34.7-122.4-68.5-203.8-70.9-205.7l-.1-.1c30 41.3 133.4 193.3-69.8 342.1-26.2 19.2-47.5 38.9-64.7 58.5-116.7 133.1-48.8 267.6-48.8 267.6l4.4-68.3c1.5-36.7 47.7-63.2 87.1-88.4 5.4-3.4 12.9-6.1 21.8-8.2 28.9-6.9 73-8 111.3-9.2 36.2-1.2 67.2-2.5 75.2-9.2 19-15.9-19.4-55.9-17.2-69.2 2.2-13.3 19-15.9 17.8-26-1.3-10.1-23-9.3-23-9.3s22.1-9.1 27.4-15.6c5.3-6.5-4.5-11.9-5.8-20.3-1.3-8.4 8.9-13 22.5-19.2 13.6-6.1 19.5-12.7 10.9-21.3-6.1-5.7-72.6-67.9-72.6-67.9z"/><path fill="#FFFFFE" d="M1232.2 978.6c-33.6-4.2-62.8-1.7-62.8-1.7 25.4 20.7 50.1 37.8 72.1 50.9 64.1 38 106.6 41.8 82.9-2.4-16.3-30.4-56.7-42.4-92.2-46.8zM293.1 842c-40.9 4.5-89.2 17.7-108.3 53.2-27.2 50.7 23.4 45.2 98.2-.4 23.5-14.3 49.4-32.5 76.1-54.2 0 .1-30.2-2.6-66 1.4zM1206.9 846c-31.8-2.7-57.2-.5-57.2-.5 23 18.7 45.4 34.8 66.3 48.1 80.1 51 136.4 59.4 108 6.4-20.5-38-74.5-50.4-117.1-54zM1282.5 764.7c-53.6-77.9-224-43.8-224-43.8 151 97.4 277.6 121.7 224 43.8zM267.8 974.9c-33.1 5.3-68.5 17.7-83.4 45.6-22.4 41.9 14.6 40.6 73.3 7.9 24.4-13.6 52.6-32.7 81.8-56.5-.1.1-34.6-2.9-71.7 3zM450.2 716s-170.4-34.1-224 43.8c-53.5 78 73.1 53.6 224-43.8z"/></svg>