<svg xmlns:xlink="http://www.w3.org/1999/xlink"  xmlns="http://www.w3.org/2000/svg" viewBox="0 0 1500 1500"><path fill="#C4E1F6" d="M127.9 868.2c-.4-2.4-.8-4.9-1.1-7.3.4 2.5.7 4.9 1.1 7.3zM133.9 900.5c-.7-3.4-1.4-6.8-2-10.2.6 3.5 1.3 6.9 2 10.2zM175.4 1027.9c-7.2-16.1-13.7-32.6-19.6-49.4 5.8 16.8 12.4 33.2 19.6 49.4zM142.3 935.2c-1.1-4.2-2.3-8.3-3.3-12.5 1.1 4.1 2.2 8.3 3.3 12.5zM123.7 836.7c-.2-2.3-.5-4.6-.7-6.9.2 2.3.5 4.6.7 6.9zM153 970.2c-2.5-7.5-4.9-15.1-7.1-22.7 2.2 7.6 4.5 15.2 7.1 22.7zM245.2 385.8c2.2-3 4.5-6 6.8-9-2.3 3-4.6 6-6.8 9zM225.2 414.5c2.1-3.1 4.1-6.3 6.2-9.4-2.1 3.2-4.1 6.3-6.2 9.4zM120.9 802.3c-.1-2-.2-3.9-.3-5.9.1 1.9.2 3.9.3 5.9zM210.5 437.9c2-3.4 4.1-6.8 6.2-10.1-2.1 3.4-4.2 6.7-6.2 10.1zM284.8 337.3l6.9-7.5c-2.3 2.5-4.7 5-6.9 7.5zM262 364.1c2.3-2.9 4.6-5.8 7-8.6-2.4 2.9-4.7 5.8-7 8.6zM126 679.2c1-7.5 2.2-14.9 3.4-22.2-1.3 7.4-2.4 14.8-3.4 22.2zM120.6 737.7c.1-2.2.2-4.3.3-6.5-.1 2.2-.2 4.4-.3 6.5zM122.8 706.1c.4-3.8.8-7.5 1.2-11.3-.4 3.7-.8 7.5-1.2 11.3zM235.1 1133.7c-3.9-5.6-7.7-11.2-11.4-16.9 3.8 5.7 7.5 11.3 11.4 16.9zM1048.2 1341.4c-4 2-7.9 4-11.9 5.9 4-1.9 8-3.9 11.9-5.9zM929.3 1386.6c-3.4.9-6.7 1.8-10.1 2.7 3.3-.8 6.7-1.7 10.1-2.7zM1073.8 1328c-4.1 2.3-8.3 4.6-12.5 6.8 4.2-2.3 8.3-4.5 12.5-6.8zM1176.6 1256.7c-4.6 3.9-9.3 7.7-14 11.5 4.7-3.8 9.4-7.6 14-11.5zM894 1395.1c-1 .2-2 .5-3.1.7 1.1-.2 2.1-.4 3.1-.7zM1098.2 1313.7c-4.2 2.6-8.5 5-12.7 7.5 4.2-2.5 8.5-4.9 12.7-7.5zM1155.2 1274.1zM291.6 1203.7c-4.2-4.5-8.3-9.1-12.4-13.8 4.1 4.6 8.2 9.2 12.4 13.8zM431.6 1317.4c-3.6-2.2-7.1-4.4-10.7-6.7 3.6 2.2 7.1 4.5 10.7 6.7zM357.2 1265.1c-4.1-3.3-8.1-6.8-12.2-10.2 4.1 3.4 8.1 6.9 12.2 10.2zM337.3 1248.2c-4.1-3.6-8.2-7.3-12.3-11.1 4.1 3.8 8.2 7.4 12.3 11.1zM636.3 1396.5c-2.2-.4-4.5-.9-6.7-1.4 2.3.5 4.5.9 6.7 1.4zM832.1 1404.9c-2.4.3-4.7.5-7.1.8 2.4-.2 4.8-.5 7.1-.8zM732.2 1408.1l-5.7-.3 5.7.3zM861.8 1401c-2.3.4-4.7.7-7 1 2.3-.3 4.6-.6 7-1zM192.1 1063c-.4 0-.8-1.8-1.2-2.6-.3-.5-.5-1.1-.8-1.6 9.7 18.9 20.3 37.5 31.7 55.3-10.6-16.6-20.5-32.1-29.7-51.1zM1090.5 215.3c2 1.2 4.1 2.4 6.1 3.6-2-1.2-4.1-2.4-6.1-3.6zM1210.4 1225.9c-1.2 1.2-2.4 2.3-3.6 3.4-6.4 6.2-12.9 12.2-19.6 18.1-.6.6-1.2 1.2-1.8 1.7 15.9-14 31.2-28.8 45.6-44.3-6.6 7.2-13.6 14.2-20.6 21.1zM1182.4 1251.7c.8-.7 1.6-1.3 2.3-2-.3.3-.6.5-.9.8-.5.4-.9.8-1.4 1.2zM827 128.1c.8.1 1.5.2 2.3.3-.7-.1-1.5-.2-2.3-.3zM1291 403.3c1.9 2.8 3.9 5.7 5.8 8.5-1.9-2.8-3.8-5.6-5.8-8.5zM478.2 1342.7c-.2-.1-.5-.2-.7-.4 3.4 1.7 6.8 3.3 10.2 5-.8-.4-1.6-.8-2.5-1.2-2.4-1.1-4.7-2.2-7-3.4zM892.7 533.3c.8-3 5.1-5.7 5.5-8.6.7-5.2-3.8-10.5-1.9-15.7.9-2.5 1.8-4.9 3-6.9l-95 82.6s-30.1 106.1-194.5 79.6c0 0-23.6 2.3-55.9 4 60.7 29.4 105.9 56.6 160 44.3 104.4-23.7 154.2-78.3 154.2-78.3s6-33.2 20.4-56.9c-11.7-7.6 1.4-33.7 4.2-44.1zM855.8 131.7c2.3.3 4.6.7 6.9 1-2.3-.3-4.6-.7-6.9-1zM659.8 133c2.5-.4 4.9-.8 7.4-1.2-2.5.4-4.9.8-7.4 1.2zM695.5 128.2c1.1-.1 2.3-.2 3.4-.3-1.1.1-2.3.2-3.4.3zM314.6 1227.1c-6.7-6.5-13.3-13.1-19.7-20 7.9 8.4 16.1 16.6 24.4 24.5-1.4-1.3-2.8-2.7-4.2-4l-.5-.5zM724.8 125.9c2.6-.1 5.1-.3 7.7-.4-2.6.2-5.2.3-7.7.4zM1065.5 201.1c2.2 1.2 4.4 2.4 6.6 3.7-2.2-1.3-4.4-2.5-6.6-3.7zM181.5 1041.1c-.7-1.5-1.5-2.9-2.2-4.4v-.1c-1-2.1-2-4.2-3-6.4 3.9 8.7 8 17.3 12.3 25.7-.7-1.4-1.4-2.9-2.1-4.4-1.6-3.4-3.3-6.9-5-10.4zM791.3 125.5c2.3.1 4.7.2 7 .4-2.3-.1-4.7-.3-7-.4zM1118 232.7c2.3 1.6 4.7 3.2 7 4.8-2.3-1.7-4.6-3.3-7-4.8zM1273.6 379.1c2.1 2.7 4.1 5.5 6.1 8.2-2-2.7-4.1-5.4-6.1-8.2zM1309.2 1102.1c-10.5 17-21.7 33.5-33.6 49.5-1.4 1.9-2.9 3.8-4.3 5.6-2.2 2.8-4.3 5.7-6.5 8.5 20-25.2 38.1-51.9 54.2-79.9-1.8 3.1-3.7 6.1-5.5 9.2-1.5 2.4-2.9 4.8-4.3 7.1zM452.5 1329.4c3.2 1.8 6.5 3.5 9.8 5.2-.3-.2-.6-.3-.9-.5-3-1.5-6-3.1-8.9-4.7zM1036 186.2c2.1 1 4.2 2 6.4 3-2.2-1-4.3-2-6.4-3zM984.3 1369.2c-3 1.1-6.1 2.1-9.2 3.2 3.5-1.2 7-2.4 10.4-3.7-.4.2-.8.3-1.2.5zM978.5 162.4c2.2.8 4.4 1.5 6.5 2.3-2.1-.8-4.3-1.6-6.5-2.3zM1009.8 174.5c2 .9 4 1.8 6.1 2.6-2-.9-4-1.8-6.1-2.6zM1251.9 1181.2c-.9 1-1.7 2.1-2.6 3.1 4.8-5.6 9.5-11.2 14.1-16.9-2.3 2.9-4.8 5.8-7.2 8.7-1.4 1.7-2.8 3.4-4.3 5.1zM1246.5 1187.7c-4.8 5.5-9.6 10.9-14.6 16.3 4.9-5.4 9.8-10.8 14.6-16.3zM1007.6 1360c3.9-1.6 7.7-3.3 11.5-5-3.8 1.7-7.6 3.4-11.5 5zM241.8 1143c-.7-1-1.4-1.9-2-2.8 0-.1-.1-.1-.1-.2-.9-1.2-1.8-2.4-2.6-3.6 11.8 16.8 24.4 32.9 37.8 48.5-11.5-13.4-22.5-27.3-32.8-41.7-.2-.1-.2-.2-.3-.2zM1342.9 1040.1h-.1c-4.5 9.5-9.2 18.8-14.1 28.1-1.3 2.5-2.7 4.9-4 7.4-1.7 3.1-3.4 6.3-5.2 9.4 20.3-35.6 37.3-73.2 50.7-112.6-7.8 23.2-17 45.8-27.3 67.7-.1 0-.1 0 0 0zM957.4 1378.4c-3.4 1.1-6.9 2.2-10.4 3.2 3.7-1.1 7.4-2.2 11-3.4-.2.1-.4.1-.6.2.1-.1.1 0 0 0zM918.4 144.1c2.2.6 4.5 1.1 6.7 1.7-2.3-.6-4.5-1.1-6.7-1.7zM1108.1 1307.3c8.4-5.4 16.6-10.9 24.7-16.7-.1 0-.1.1-.2.1-8 5.8-16.2 11.3-24.5 16.6zM399.9 1296.9c-.9-.6-1.9-1.3-2.8-1.9 3.8 2.6 7.6 5.2 11.5 7.8-1.8-1.2-3.5-2.4-5.3-3.6-1.2-.8-2.3-1.5-3.4-2.3zM951.3 153.2c1.7.5 3.5 1.1 5.2 1.7-1.7-.5-3.4-1.1-5.2-1.7zM508 1356.6c2.4 1.1 4.9 2.1 7.4 3.1-.1 0-.2-.1-.3-.1-2.4-1-4.7-2-7.1-3zM890.3 137.7c1.3.3 2.6.6 4 .9-1.4-.3-2.7-.7-4-.9zM1233.5 331.3c2.2 2.3 4.3 4.7 6.5 7.1-2.2-2.3-4.3-4.7-6.5-7.1zM399.1 237.2c2.6-1.8 5.3-3.6 7.9-5.4-2.6 1.8-5.3 3.6-7.9 5.4zM425 220.3c1.7-1 3.3-2.1 4.9-3.1-1.6 1-3.2 2.1-4.9 3.1zM368 1273.6c5.7 4.5 11.5 8.8 17.4 13.1-.4-.3-.7-.5-1-.8-5.5-4-11-8.1-16.4-12.3zM374.8 254.6c2.2-1.7 4.5-3.3 6.7-5-2.2 1.7-4.5 3.4-6.7 5zM693.8 1405.2c1.5.2 3.1.3 4.6.5-1.1-.1-2.1-.2-3.2-.3-.5-.1-.9-.2-1.4-.2zM479.2 190.3c1.9-1 3.8-1.9 5.8-2.9-1.9 1-3.8 2-5.8 2.9zM537.2 1368.3c3 1.1 6 2.2 9 3.2-2-.7-4-1.5-6.1-2.2-1-.3-1.9-.6-2.9-1zM452.6 204.2c2.6-1.4 5.1-2.8 7.7-4.2-2.6 1.4-5.2 2.8-7.7 4.2zM792.1 1408.1c1.8-.1 3.7-.2 5.5-.3-1.4.1-2.9.1-4.3.2-.4 0-.8 0-1.2.1zM303.5 317.5c2.5-2.6 5-5.1 7.6-7.7-2.6 2.6-5.1 5.1-7.6 7.7zM321.8 610.5c-18.8-2.2-68.9-11-51.6-40 0 0 382-21.2 405-38.9 11.2-8.6 94.2-101.6 176.6-194.9-12.1-5.8-26.6-8.4-44.3-7.3-5.3 15.4-23.9 44-37.7 47.1-.5.1-14.3-7.5-18.6-7.6-8.9-.3-16.5 8.7-24 8.3-17.4-1-89.3-37.1-92.6 4.1-30.7-28.8-53.8-46.2-96.7-33.9-63 18.1-121.2 70.6-118.1 140.1-30.8-37.9-93.1-56.8-140-55-20 .8-53.9 10.2-81.1 26.1.1-.2.2-.3.3-.5-32.5 59.2-55.9 124-68.4 192.7 2.1-11.2 4.4-22.4 7-33.4 50.7-4.8 112.3-7.6 184.2-6.9zM1212.6 309.7l6.9 6.9-6.9-6.9zM599.9 1388.2c1.4.4 2.7.7 4.1 1-.5-.1-.9-.2-1.4-.4l-2.7-.6zM663.7 1401.3c.6.1 1.1.2 1.7.2h-.1c-.6 0-1.1-.1-1.6-.2zM328.8 292.9c2.1-1.9 4.2-3.7 6.3-5.6-2.1 1.9-4.2 3.7-6.3 5.6zM349.3 275c2.6-2.2 5.2-4.4 7.9-6.5-2.7 2.2-5.3 4.4-7.9 6.5zM568.5 1379.1c1.7.5 3.3 1 5 1.6l-.9-.3c-1.3-.4-2.7-.8-4.1-1.3zM1174.2 274.9l-6.9-5.7c2.4 1.8 4.7 3.7 6.9 5.7zM1189.5 288c1.7 1.6 3.5 3.1 5.2 4.6-1.7-1.5-3.5-3-5.2-4.6zM568.9 154.4c2.2-.7 4.4-1.3 6.5-2-2.2.7-4.4 1.3-6.5 2zM597 146.3c2.3-.6 4.6-1.3 7-1.8-2.4.5-4.7 1.2-7 1.8zM1254 354.6c2.2 2.6 4.3 5.2 6.4 7.8-2.1-2.6-4.3-5.2-6.4-7.8zM1234.5 444.9c-26.2-19.5-58-34.7-85-8.4-1.3-32.1-95.1-94.5-95.6-47.3-3-4.7-6.5-8.8-10.1-12.6l-140.3 122c1.8-.7 4.1-.7 7.2.6.5-10.7 10.7-15.7 20.8-13.8 8.2-23.7 22.4 6.3 25.4 14.2 2.8.9 11.9 1.6 13.9 1.3-.4-21.9 4.2-36.3 14.3-53.9 11.7-1.6 41.9 18.2 40.8 29.3 11.8-2.6 28.7 3.9 32.9 15.2 3.6 9.6-2.1 25.3-11.9 34 28.7-9.8 61-17.3 98.9-23.9 130.9-23 254.7 150.3 206.9 291.8-14.5 42.9-39.9 75.5-68.2 100.2 25.2 22.1 58.1 50.9 85.8 78.4 21.7-64.4 33.7-133.4 33.7-205.2 0-122.8-34.5-237.6-94.4-335.1.1.2.3.5.5.7-27-4.3-55.7-1-75.6 12.5zM631.1 138.2c1.8-.4 3.6-.7 5.3-1-1.8.3-3.6.6-5.3 1zM509.2 176.5c2.4-1 4.9-2 7.3-3-2.4 1-4.8 2-7.3 3zM536.7 165.5c2.2-.8 4.3-1.7 6.5-2.4-2.2.8-4.4 1.6-6.5 2.4zM1141.8 249.3l5.7 4.2-5.7-4.2z"/><path opacity=".44" fill="#FFFFFE" d="M1134.2 243.9c2.5 1.8 5.1 3.6 7.6 5.4-5.5-4-11.1-8-16.7-11.9.5.3 1 .7 1.5 1.1 2.5 1.8 5 3.6 7.6 5.4zM1167 268.8c-6.4-5.2-12.9-10.4-19.5-15.3 5.1 3.9 10.2 7.9 15.2 11.9 1.4 1.2 2.9 2.3 4.3 3.4zM460.3 200c6.3-3.3 12.6-6.6 18.9-9.7-6.4 3.2-12.7 6.4-18.9 9.7zM575.4 152.4c7.1-2.2 14.3-4.2 21.6-6.1-7.3 1.9-14.4 3.9-21.6 6.1zM543.1 163.1zM430 217.2c7.4-4.5 15-8.8 22.6-13-7.7 4.2-15.2 8.5-22.6 13zM516.5 173.5c6.7-2.8 13.4-5.4 20.1-7.9-6.7 2.5-13.4 5.1-20.1 7.9zM485 187.4c8-3.8 16.1-7.5 24.2-10.9-8.1 3.5-16.2 7.1-24.2 10.9zM311 309.8c5.8-5.7 11.7-11.4 17.8-16.9-6 5.5-11.9 11.2-17.8 16.9zM998.3 169.9c.1 0 .1.1.2.1 3.8 1.5 7.6 2.9 11.3 4.5-8.2-3.4-16.4-6.7-24.8-9.8 4.5 1.7 8.9 3.5 13.3 5.2zM231.4 405.2c4.5-6.6 9.1-13 13.8-19.4-4.7 6.4-9.3 12.8-13.8 19.4zM269 355.5c5.1-6.2 10.4-12.2 15.8-18.2-5.4 6-10.7 12-15.8 18.2zM216.7 427.8zM252 376.8zM1111.4 228.4c2.2 1.4 4.5 2.8 6.7 4.3-7.1-4.7-14.2-9.3-21.5-13.8 2.7 1.7 5.4 3.5 8 5.2 2.3 1.4 4.5 2.8 6.8 4.3zM357.2 268.5c5.8-4.7 11.7-9.4 17.6-13.9-5.9 4.6-11.8 9.2-17.6 13.9zM335.1 287.3c4.7-4.2 9.4-8.2 14.2-12.3-4.8 4.1-9.5 8.2-14.2 12.3zM381.5 249.7c5.8-4.3 11.6-8.4 17.6-12.5-5.9 4-11.8 8.2-17.6 12.5zM407 231.8c5.9-3.9 11.9-7.8 18-11.5-6 3.7-12 7.6-18 11.5zM198.9 458.1c3.7-6.8 7.6-13.5 11.6-20.1-4 6.6-7.8 13.3-11.6 20.1zM1087.7 213.7c.9.5 1.9 1 2.8 1.6-6-3.6-12.2-7.1-18.3-10.5 4.3 2.4 8.5 4.8 12.7 7.3.9.5 1.9 1 2.8 1.6zM925.1 145.8c8.8 2.3 17.6 4.8 26.3 7.5-8.8-2.7-17.5-5.2-26.3-7.5zM291.7 329.9zM1260.4 362.4zM1279.7 387.4c3.9 5.3 7.6 10.6 11.3 16-3.7-5.4-7.5-10.8-11.3-16zM1296.8 411.8c4.3 6.5 8.6 13.1 12.7 19.8-4.1-6.6-8.4-13.2-12.7-19.8zM1042.3 189.2c7.8 3.8 15.5 7.8 23.2 11.9-7.6-4.1-15.4-8.1-23.2-11.9zM1240 338.4c4.8 5.3 9.4 10.7 14 16.2-4.6-5.5-9.3-10.9-14-16.2zM1174.2 274.9c5.1 4.3 10.2 8.7 15.2 13.2-4.9-4.5-10-8.9-15.2-13.2zM1219.4 316.6c4.8 4.8 9.4 9.7 14 14.7-4.5-4.9-9.2-9.8-14-14.7zM604 144.4c9-2.3 18-4.4 27.1-6.3-9.1 2-18.2 4.1-27.1 6.3zM1015.9 177.1c6.8 2.9 13.5 5.9 20.1 9.1-6.7-3.1-13.4-6.2-20.1-9.1zM1194.7 292.7c6.1 5.6 12 11.3 17.9 17-5.9-5.8-11.8-11.5-17.9-17zM732.5 125.5c9.8-.4 19.5-.7 29.4-.7-9.9 0-19.7.3-29.4.7zM956.5 154.9c7.4 2.3 14.7 4.8 22 7.4-7.3-2.5-14.6-5-22-7.4zM698.9 127.9c8.6-.8 17.2-1.5 25.8-2-8.6.5-17.2 1.2-25.8 2zM667.2 131.8zM636.4 137.1zM761.9 124.8c9.9 0 19.6.3 29.4.7-9.8-.4-19.6-.7-29.4-.7zM894.3 138.5c8.1 1.7 16.1 3.6 24.1 5.6-8-2-16-3.9-24.1-5.6zM798.3 125.9c9.6.5 19.2 1.2 28.7 2.2-9.5-1-19.1-1.7-28.7-2.2zM862.7 132.7c9.3 1.5 18.5 3.1 27.6 4.9-9.1-1.8-18.3-3.4-27.6-4.9zM829.4 128.3c8.9.9 17.7 2.1 26.5 3.4-8.8-1.3-17.7-2.4-26.5-3.4z"/><path fill="#C4E1F6" d="M1126.5 238.5c-.5-.3-1-.7-1.5-1.1-2.3-1.6-4.6-3.2-7-4.8-2.2-1.5-4.5-2.8-6.7-4.3 5.2 3.4 10.2 6.7 15.2 10.2z"/><path opacity=".44" fill="#FFFFFE" d="M1126.5 238.5c-.5-.3-1-.7-1.5-1.1-2.3-1.6-4.6-3.2-7-4.8-2.2-1.5-4.5-2.8-6.7-4.3 5.2 3.4 10.2 6.7 15.2 10.2z"/><path fill="#C4E1F6" d="M1104.6 224.1c-2.7-1.7-5.3-3.5-8-5.2-2-1.2-4.1-2.4-6.1-3.6-.9-.5-1.9-1.1-2.8-1.6 5.7 3.3 11.3 6.8 16.9 10.4z"/><path opacity=".44" fill="#FFFFFE" d="M1104.6 224.1c-2.7-1.7-5.3-3.5-8-5.2-2-1.2-4.1-2.4-6.1-3.6-.9-.5-1.9-1.1-2.8-1.6 5.7 3.3 11.3 6.8 16.9 10.4z"/><path fill="#C4E1F6" d="M1162.6 265.4c-5-4-10-8.1-15.2-11.9l-5.7-4.2c-2.5-1.8-5.1-3.6-7.6-5.4 9.8 6.9 19.3 14.1 28.5 21.5z"/><path opacity=".44" fill="#FFFFFE" d="M1162.6 265.4c-5-4-10-8.1-15.2-11.9l-5.7-4.2c-2.5-1.8-5.1-3.6-7.6-5.4 9.8 6.9 19.3 14.1 28.5 21.5z"/><path fill="#C4E1F6" d="M1043.7 376.6c3.6 3.8 7.1 7.8 10.1 12.6.5-47.2 94.3 15.2 95.6 47.3 27.1-26.2 58.9-11 85 8.4 20-13.5 48.6-16.8 75.5-12.5-.1-.2-.3-.5-.5-.7-4.1-6.7-8.4-13.3-12.7-19.8-1.9-2.9-3.8-5.7-5.8-8.5-3.7-5.4-7.5-10.7-11.3-16-2-2.8-4.1-5.5-6.1-8.2-4.3-5.7-8.7-11.2-13.1-16.7-2.1-2.6-4.3-5.2-6.4-7.8-4.6-5.5-9.2-10.9-14-16.2-2.1-2.4-4.3-4.7-6.5-7.1-4.6-5-9.3-9.9-14-14.7l-6.9-6.9c-5.9-5.8-11.8-11.5-17.9-17-1.7-1.6-3.5-3.1-5.2-4.6-5-4.5-10.1-8.9-15.2-13.2l-6.9-5.7-123.7 107.3z"/><path opacity=".44" fill="#FFFFFE" d="M1043.7 376.6c3.6 3.8 7.1 7.8 10.1 12.6.5-47.2 94.3 15.2 95.6 47.3 27.1-26.2 58.9-11 85 8.4 20-13.5 48.6-16.8 75.5-12.5-.1-.2-.3-.5-.5-.7-4.1-6.7-8.4-13.3-12.7-19.8-1.9-2.9-3.8-5.7-5.8-8.5-3.7-5.4-7.5-10.7-11.3-16-2-2.8-4.1-5.5-6.1-8.2-4.3-5.7-8.7-11.2-13.1-16.7-2.1-2.6-4.3-5.2-6.4-7.8-4.6-5.5-9.2-10.9-14-16.2-2.1-2.4-4.3-4.7-6.5-7.1-4.6-5-9.3-9.9-14-14.7l-6.9-6.9c-5.9-5.8-11.8-11.5-17.9-17-1.7-1.6-3.5-3.1-5.2-4.6-5-4.5-10.1-8.9-15.2-13.2l-6.9-5.7-123.7 107.3z"/><path fill="#C4E1F6" d="M279.8 432.5c46.9-1.8 109.2 17.1 140 55-3.1-69.5 55.1-122 118.1-140.1 42.9-12.3 66 5.1 96.7 33.9 3.4-41.3 75.2-5.1 92.6-4.1 7.5.4 15.1-8.6 24-8.3 4.3.1 18.1 7.7 18.6 7.6 13.8-3 32.4-31.6 37.7-47.1 17.8-1.1 32.3 1.5 44.3 7.3C909 271.9 966 206.9 998.3 170c-4.4-1.8-8.8-3.6-13.3-5.2-2.2-.8-4.4-1.6-6.5-2.3-7.3-2.6-14.6-5.1-22-7.4-1.7-.6-3.5-1.1-5.2-1.7-8.7-2.7-17.4-5.1-26.3-7.5-2.2-.6-4.5-1.1-6.7-1.7-8-2-16-3.9-24.1-5.6-1.3-.3-2.6-.6-4-.9-9.1-1.9-18.3-3.5-27.6-4.9-2.3-.4-4.6-.7-6.9-1-8.8-1.3-17.6-2.4-26.5-3.4-.8-.1-1.5-.2-2.3-.3-9.5-1-19.1-1.6-28.7-2.2-2.3-.1-4.7-.2-7-.4-9.7-.4-19.5-.7-29.4-.7-9.9 0-19.6.3-29.4.7-2.6.1-5.1.3-7.7.4-8.7.5-17.3 1.1-25.8 2-1.1.1-2.3.2-3.4.3-9.5 1-18.9 2.2-28.3 3.6-2.5.4-4.9.8-7.4 1.2-7.9 1.3-15.7 2.6-23.4 4.2-1.8.4-3.6.7-5.3 1-9.1 1.9-18.1 4-27.1 6.3-2.3.6-4.7 1.2-7 1.8-7.2 1.9-14.4 4-21.6 6.1-2.2.7-4.4 1.3-6.5 2-8.7 2.7-17.2 5.6-25.7 8.7-2.2.8-4.3 1.6-6.5 2.4-6.8 2.5-13.5 5.2-20.1 7.9-2.4 1-4.9 2-7.3 3-8.2 3.5-16.2 7.1-24.2 10.9-1.9.9-3.9 1.9-5.8 2.9-6.4 3.1-12.7 6.4-18.9 9.7-2.6 1.4-5.2 2.8-7.7 4.2-7.6 4.2-15.2 8.5-22.6 13-1.7 1-3.3 2.1-4.9 3.1-6.1 3.7-12.1 7.6-18 11.5-2.7 1.8-5.3 3.6-7.9 5.4-5.9 4.1-11.8 8.2-17.6 12.5-2.2 1.7-4.5 3.3-6.7 5-6 4.5-11.8 9.1-17.6 13.9-2.6 2.2-5.3 4.3-7.9 6.5-4.8 4-9.5 8.1-14.2 12.3-2.1 1.9-4.2 3.7-6.3 5.6-6 5.5-11.9 11.2-17.8 16.9-2.6 2.5-5.1 5.1-7.6 7.7-4 4.1-7.9 8.2-11.8 12.4-2.3 2.5-4.7 4.9-6.9 7.5-5.4 6-10.6 12-15.8 18.2-2.4 2.8-4.7 5.7-7 8.6-3.4 4.2-6.7 8.4-10 12.7-2.3 3-4.6 5.9-6.8 9-4.7 6.4-9.3 12.8-13.8 19.4-2.1 3.1-4.1 6.2-6.2 9.4-2.9 4.4-5.7 8.8-8.5 13.3-2.1 3.4-4.2 6.7-6.2 10.1-4 6.6-7.8 13.3-11.6 20.1-.1.2-.2.3-.3.5 27.2-16 61.1-25.4 81.1-26.2z"/><path opacity=".44" fill="#FFFFFE" d="M279.8 432.5c46.9-1.8 109.2 17.1 140 55-3.1-69.5 55.1-122 118.1-140.1 42.9-12.3 66 5.1 96.7 33.9 3.4-41.3 75.2-5.1 92.6-4.1 7.5.4 15.1-8.6 24-8.3 4.3.1 18.1 7.7 18.6 7.6 13.8-3 32.4-31.6 37.7-47.1 17.8-1.1 32.3 1.5 44.3 7.3C909 271.9 966 206.9 998.3 170c-4.4-1.8-8.8-3.6-13.3-5.2-2.2-.8-4.4-1.6-6.5-2.3-7.3-2.6-14.6-5.1-22-7.4-1.7-.6-3.5-1.1-5.2-1.7-8.7-2.7-17.4-5.1-26.3-7.5-2.2-.6-4.5-1.1-6.7-1.7-8-2-16-3.9-24.1-5.6-1.3-.3-2.6-.6-4-.9-9.1-1.9-18.3-3.5-27.6-4.9-2.3-.4-4.6-.7-6.9-1-8.8-1.3-17.6-2.4-26.5-3.4-.8-.1-1.5-.2-2.3-.3-9.5-1-19.1-1.6-28.7-2.2-2.3-.1-4.7-.2-7-.4-9.7-.4-19.5-.7-29.4-.7-9.9 0-19.6.3-29.4.7-2.6.1-5.1.3-7.7.4-8.7.5-17.3 1.1-25.8 2-1.1.1-2.3.2-3.4.3-9.5 1-18.9 2.2-28.3 3.6-2.5.4-4.9.8-7.4 1.2-7.9 1.3-15.7 2.6-23.4 4.2-1.8.4-3.6.7-5.3 1-9.1 1.9-18.1 4-27.1 6.3-2.3.6-4.7 1.2-7 1.8-7.2 1.9-14.4 4-21.6 6.1-2.2.7-4.4 1.3-6.5 2-8.7 2.7-17.2 5.6-25.7 8.7-2.2.8-4.3 1.6-6.5 2.4-6.8 2.5-13.5 5.2-20.1 7.9-2.4 1-4.9 2-7.3 3-8.2 3.5-16.2 7.1-24.2 10.9-1.9.9-3.9 1.9-5.8 2.9-6.4 3.1-12.7 6.4-18.9 9.7-2.6 1.4-5.2 2.8-7.7 4.2-7.6 4.2-15.2 8.5-22.6 13-1.7 1-3.3 2.1-4.9 3.1-6.1 3.7-12.1 7.6-18 11.5-2.7 1.8-5.3 3.6-7.9 5.4-5.9 4.1-11.8 8.2-17.6 12.5-2.2 1.7-4.5 3.3-6.7 5-6 4.5-11.8 9.1-17.6 13.9-2.6 2.2-5.3 4.3-7.9 6.5-4.8 4-9.5 8.1-14.2 12.3-2.1 1.9-4.2 3.7-6.3 5.6-6 5.5-11.9 11.2-17.8 16.9-2.6 2.5-5.1 5.1-7.6 7.7-4 4.1-7.9 8.2-11.8 12.4-2.3 2.5-4.7 4.9-6.9 7.5-5.4 6-10.6 12-15.8 18.2-2.4 2.8-4.7 5.7-7 8.6-3.4 4.2-6.7 8.4-10 12.7-2.3 3-4.6 5.9-6.8 9-4.7 6.4-9.3 12.8-13.8 19.4-2.1 3.1-4.1 6.2-6.2 9.4-2.9 4.4-5.7 8.8-8.5 13.3-2.1 3.4-4.2 6.7-6.2 10.1-4 6.6-7.8 13.3-11.6 20.1-.1.2-.2.3-.3.5 27.2-16 61.1-25.4 81.1-26.2z"/><path fill="#C4E1F6" d="M1084.8 212c-4.2-2.5-8.4-4.9-12.7-7.3-2.2-1.2-4.4-2.5-6.6-3.7-7.6-4.1-15.4-8.1-23.2-11.9-2.1-1-4.2-2-6.4-3-6.6-3.1-13.3-6.2-20.1-9.1-2-.9-4-1.8-6.1-2.6-3.7-1.6-7.6-3-11.3-4.5 30.1 12 58.9 26.1 86.4 42.1z"/><path opacity=".44" fill="#FFFFFE" d="M1084.8 212c-4.2-2.5-8.4-4.9-12.7-7.3-2.2-1.2-4.4-2.5-6.6-3.7-7.6-4.1-15.4-8.1-23.2-11.9-2.1-1-4.2-2-6.4-3-6.6-3.1-13.3-6.2-20.1-9.1-2-.9-4-1.8-6.1-2.6-3.7-1.6-7.6-3-11.3-4.5 30.1 12 58.9 26.1 86.4 42.1z"/><path fill="#C1D1CD" d="M717.4 1407.3c-2.8-.2-5.5-.4-8.3-.6 2.8.1 5.6.4 8.3.6zM623.4 1393.8c-2.8-.6-5.6-1.3-8.5-2 2.8.7 5.6 1.4 8.5 2zM644.3 1398.1c-1.5-.3-3-.6-4.6-.9 1.6.2 3.1.6 4.6.9zM561.9 1376.9c-3.1-1-6.3-2-9.4-3.1 3.1 1.1 6.2 2.1 9.4 3.1zM739.6 1408.4c-2.4-.1-4.7-.2-7.1-.3 2.4.1 4.7.2 7.1.3zM841.7 1403.9c-2.6.3-5.1.6-7.7.8 2.5-.3 5.1-.5 7.7-.8zM873.9 1399c-3.8.7-7.6 1.4-11.4 2 3.8-.7 7.6-1.4 11.4-2zM818.1 1406.3c-2.9.3-5.8.5-8.7.7 2.9-.2 5.8-.4 8.7-.7zM1313.4 1095.1c1.8-3.1 3.7-6.1 5.5-9.2.2-.3.4-.6.5-.9 1.8-3.1 3.4-6.3 5.2-9.4-3.6 6.5-7.4 13-11.2 19.5zM466.5 1336.9c3.6 1.9 7.3 3.7 10.9 5.5.2.1.5.2.7.4-3.8-2-7.7-3.9-11.6-5.9zM485.1 1346.1c.8.4 1.6.8 2.5 1.2 2.9 1.4 5.8 2.7 8.7 4-3.7-1.6-7.5-3.4-11.2-5.2zM418.4 1309.2c.8.5 1.7 1 2.5 1.6 3.5 2.2 7.1 4.5 10.7 6.7 6.9 4.1 13.9 8.1 20.9 12 2.9 1.6 5.9 3.2 8.9 4.7-14.7-7.8-29-16.2-43-25zM504.1 1354.8c1.3.6 2.6 1.2 3.9 1.7 2.4 1 4.7 2 7.1 3-3.7-1.4-7.3-3-11-4.7zM1206.8 1229.3zM572.7 1380.4l.9.3c2.9.9 5.8 1.7 8.6 2.5-3.2-.9-6.4-1.8-9.5-2.8zM403.2 1299.2c1.8 1.2 3.5 2.4 5.3 3.6 2.6 1.7 5.2 3.4 7.9 5.1l-13.2-8.7zM665.2 1401.6h.1c2.4.4 4.8.7 7.1 1-2.3-.4-4.8-.7-7.2-1zM687 1404.4c2.3.3 4.6.5 6.9.8.5 0 .9.1 1.4.1-2.8-.3-5.6-.5-8.3-.9zM785.6 1408.3c2.1-.1 4.3-.2 6.4-.3.4 0 .8-.1 1.2-.1-2.5.2-5 .3-7.6.4zM593.4 1386.4l6.6 1.8c.9.2 1.8.4 2.7.7-3.1-.8-6.2-1.7-9.3-2.5zM1256.2 1176c2.4-2.9 4.8-5.7 7.2-8.7.4-.5.8-1.1 1.3-1.6 2.2-2.8 4.4-5.7 6.5-8.5-4.9 6.4-9.8 12.7-15 18.8zM241.8 1142.9c9.3-2.7 20.8-5.9 34.1-9.2-18 2.7-30.6 5.2-36.1 6.4.7 1 1.4 1.9 2 2.8zM314.6 1227.1c-26.5-25.8-50.8-53.9-72.6-83.9 10.4 14.3 21.3 28.3 32.8 41.7 1.5 1.7 2.9 3.4 4.4 5.1 4.1 4.6 8.2 9.3 12.4 13.8 1.1 1.2 2.2 2.3 3.3 3.4 6.4 6.7 13 13.3 19.7 19.9zM186.6 1051.6c.7 1.4 1.4 2.9 2.1 4.4.5.9 1 1.9 1.4 2.8.3.5.5 1 .8 1.5-1.5-2.9-2.9-5.8-4.3-8.7zM179.4 1036.7c.7 1.5 1.5 2.9 2.2 4.4l-2.1-4.5-.1.1zM315.1 1227.6c1.4 1.3 2.8 2.7 4.2 4 1.9 1.8 3.8 3.7 5.8 5.5 4 3.7 8.1 7.4 12.3 11.1 2.6 2.3 5.1 4.5 7.7 6.7 4 3.4 8.1 6.9 12.2 10.2 3.5 2.9 7.2 5.7 10.8 8.5 5.4 4.2 10.9 8.3 16.4 12.3-24.6-17.8-47.7-37.3-69.4-58.3zM387 1287.9c3.3 2.4 6.7 4.8 10.1 7.1.9.7 1.9 1.3 2.8 1.9-4.3-2.9-8.6-6-12.9-9zM1320.4 1044c7.1-.9 14.3-1.8 21.7-2.4-4.3 9-8.8 17.8-13.5 26.6 4.9-9.2 9.7-18.6 14.1-28.1-.3 0-8.5 1.1-22.3 3.9zM1275.6 1151.6c12-15.9 23.2-32.4 33.6-49.5-10.5 17-21.7 33.6-33.6 49.5zM523.7 1363.1c4.5 1.8 9 3.6 13.5 5.3 1 .4 1.9.7 2.9 1-5.5-2.1-10.9-4.2-16.4-6.3zM1017.1 1355.9c-4.3 1.9-8.6 3.7-12.9 5.5 1.1-.5 2.2-.9 3.3-1.3 3.9-1.6 7.7-3.3 11.5-5-.5.2-1.2.5-1.9.8zM884.4 1397c2.2-.4 4.3-.8 6.5-1.2 1-.2 2-.5 3.1-.7 1-.2 1.9-.4 2.9-.7-4.1 1-8.3 1.8-12.5 2.6zM1134.6 1289.4c2.2-1.6 4.5-3.1 6.6-4.7 4.7-3.4 9.3-7 13.9-10.6 2.5-1.9 5-3.9 7.5-5.9 4.7-3.8 9.4-7.6 14-11.5 2-1.7 3.9-3.4 5.8-5 .5-.4.9-.8 1.4-1.2-15.7 13.7-32.2 26.7-49.2 38.9zM1246.5 1187.7c1-1.1 1.9-2.2 2.9-3.4.9-1 1.7-2.1 2.6-3.1-13.1 15.5-27 30.4-41.5 44.6 7-6.9 13.9-13.8 20.6-21 .3-.3.6-.6.8-.9 4.9-5.3 9.8-10.7 14.6-16.2zM1108 1307.4s.1 0 0 0c8.4-5.4 16.6-10.9 24.6-16.6-8 5.7-16.2 11.2-24.6 16.6zM1049.8 1340.7c3.9-1.9 7.7-3.9 11.5-5.9 4.2-2.2 8.4-4.5 12.5-6.8 3.9-2.2 7.8-4.5 11.7-6.7 4.3-2.5 8.5-5 12.7-7.5 2.6-1.6 5.1-3.3 7.7-4.9-18.1 11.4-36.8 22.1-56.1 31.8zM1020.5 1354.5c5.3-2.3 10.6-4.7 15.9-7.2 4-1.9 8-3.9 11.9-5.9.3-.2.6-.3 1-.5-9.5 4.8-19.1 9.3-28.8 13.6zM985.5 1368.7c3.9-1.5 7.8-3 11.7-4.6-3.9 1.6-7.7 3.2-11.7 4.6zM984.5 1368.9c-5.9 2.2-11.9 4.2-17.9 6.3v.1c-1 .3-2.1.6-3.1 1-2 .7-3.9 1.4-5.9 2.1.2-.1.4-.1.6-.2 5.7-1.8 11.4-3.8 17-5.8 3.1-1.1 6.2-2.1 9.2-3.3l.1-.2z"/><path fill="#C1D1CD" d="M957.5 1378.2c-5.2 1.7-10.3 3.4-15.5 4.9.4-59.7 24.1-314.8 400.8-343 10.3-21.9 19.5-44.5 27.3-67.7 0-.1.1-.2.1-.4-27.7-27.5-60.6-56.3-85.8-78.4-39.6 34.5-84.8 53.4-114.3 62.9 18.9 32.5-5 75.6-79.2 103.9-111.4 42.4-222.9 24.8-222.9 24.8l-163.3-126c-83.4 9-178.1 18.3-180.7 14.3-4.7-7.1 7.1 71.2-113.9 83.1-46.1 4.5-130.8 5.9-217.9 6 9.1 17.6 19 34.7 29.7 51.3.6 1 1.2 2 1.9 2.9 3.7 5.7 7.5 11.3 11.4 16.9.6.9 1.3 1.8 1.9 2.7.9 1.2 1.8 2.4 2.6 3.6 547-165.5 679.3 184.7 697.6 244.4-6.2 1.7-12.4 3.3-18.6 4.8 0 .1.1.2.1.2-4.3 1.1-8.6 2.1-13 3.1 4.5-1 9-2 13.4-3.2 3.4-.9 6.7-1.8 10.1-2.7 6-1.6 11.9-3.3 17.8-5.1 3.5-1 6.9-2.1 10.4-3.2-.1 0 0-.1 0-.1z"/><path fill="#6EC829" d="M918.6 1389.2c-3 .7-5.9 1.6-8.9 2.3-155.3-301.9-514.5-275.8-633.8-257.8-13.3 3.3-24.8 6.3-34.1 9.3l.1.1c21.8 30 46.1 58.1 72.6 83.9.2.2.4.3.5.5 21.7 21 44.8 40.5 69.3 58.4.3.3.7.5 1 .8.5.4 1.1.8 1.6 1.1 4.3 3.1 8.6 6.1 12.9 9.1 1.1.8 2.2 1.5 3.3 2.2 4.4 2.9 8.7 5.9 13.2 8.7.7.4 1.4.9 2 1.3 14 8.9 28.3 17.2 43 25 .3.2.6.3.9.5 1.4.7 2.8 1.5 4.2 2.2 3.9 2 7.8 3.9 11.7 5.9 2.3 1.1 4.6 2.3 7 3.4 3.7 1.8 7.5 3.5 11.2 5.2 2.6 1.2 5.2 2.3 7.8 3.5 3.6 1.6 7.3 3.2 11 4.7.1 0 .2.1.3.1 2.8 1.2 5.6 2.2 8.4 3.4 5.4 2.2 10.9 4.3 16.4 6.3 2 .7 4 1.5 6.1 2.2 2.1.7 4.2 1.5 6.3 2.3 3.1 1.1 6.3 2.1 9.4 3.1 2.2.7 4.4 1.5 6.7 2.2 1.4.4 2.8.9 4.1 1.3 3.2 1 6.3 1.9 9.5 2.8 3.7 1.1 7.4 2.1 11.2 3.2 3.1.8 6.2 1.7 9.3 2.5.5.1.9.2 1.4.4 3.6.9 7.2 1.8 10.9 2.6 2.8.7 5.6 1.3 8.5 2 2.1.5 4.2.9 6.3 1.3 2.2.5 4.5.9 6.7 1.4 1.1.2 2.3.5 3.4.7 1.5.3 3 .6 4.6.9 6.4 1.2 12.9 2.3 19.4 3.3.5.1 1 .1 1.6.2 2.4.4 4.8.7 7.2 1 4.8.7 9.6 1.3 14.5 1.9 2.7.3 5.5.6 8.3.9 1.1.1 2.1.2 3.2.3 3.6.4 7.1.7 10.7.9 2.8.2 5.5.4 8.3.6 3 .2 6.1.4 9.1.6l5.7.3h.3c2.4.1 4.7.2 7.1.3 7.4.3 14.8.4 22.3.4 8 0 15.9-.2 23.8-.5 2.5-.1 5.1-.2 7.6-.4 1.4-.1 2.9-.1 4.3-.2 3.9-.2 7.9-.5 11.8-.8 2.9-.2 5.8-.4 8.7-.7 2.3-.2 4.6-.4 7-.6 2.4-.2 4.8-.5 7.1-.8.6-.1 1.2-.1 1.8-.2 2.6-.3 5.1-.5 7.7-.8 4.4-.5 8.7-1.2 13.1-1.8 2.3-.3 4.7-.6 7-1 .2 0 .5-.1.7-.1 3.8-.6 7.6-1.3 11.4-2 3.5-.6 7-1.2 10.5-1.9 4.2-.8 8.3-1.6 12.5-2.5 3-.6 5.9-1.3 8.8-2 4.3-1 8.7-2 13-3.1-.5-.1-.5-.2-.5-.3zm-485.7-190l443 199-.6.4c-23.1 4.1-46.6 7-70.5 8.6l-371.9-208zM1206.8 1229.3c1.2-1.1 2.4-2.3 3.6-3.4 14.5-14.2 28.4-29.1 41.5-44.6 1.5-1.7 2.9-3.5 4.3-5.2 5.1-6.2 10.1-12.4 15-18.8 1.4-1.9 2.9-3.7 4.3-5.6 12-15.9 23.2-32.4 33.6-49.5 1.4-2.3 2.8-4.7 4.2-7 3.8-6.4 7.6-13 11.2-19.5 1.4-2.5 2.7-4.9 4-7.4 4.7-8.8 9.2-17.6 13.5-26.6-7.4.7-14.6 1.6-21.7 2.4-75.1 15.3-315 83.3-353.8 331.2 6-2 12-4.1 17.9-6.3l180.6-209.5-144.6 195c-1.1.5-2.3 1-3.4 1.5.6-.3 1.3-.5 2-.8.4-.2.9-.4 1.3-.6 9.7-4.3 19.3-8.8 28.7-13.5l.6-.3c19.3-9.7 38-20.4 56.1-31.9.7-.5 1.4-.9 2.1-1.4 8.3-5.3 16.5-10.9 24.6-16.6.1 0 .1-.1.2-.1.6-.4 1.2-.8 1.8-1.3 17-12.2 33.4-25.2 49.2-38.9.3-.3.6-.5.9-.8.2-.2.4-.4.7-.6.6-.6 1.2-1.1 1.8-1.7 6.9-6 13.4-12 19.8-18.2zM957.4 1378.4h.1c2-.6 3.9-1.4 5.9-2.1-2 .7-4 1.2-6 1.9.1 0 0 .1 0 .2z"/><path fill="#387167" d="M1352.6 793.3c47.8-141.5-76.1-314.8-206.9-291.8-37.9 6.7-70.2 14.1-98.9 23.9-4 3.6-8.6 6-13.7 6.3 13.5 2.2 22.9 6.3 34.8 14.1-2.3.4-5.8 1.4-9.5 1.7 14.4 1.3 16.2 11.3 12.7 20.8 38.4-5.2 78.5-.9 110.1 25.5 87.8 73.5 135.3 170.8 106.8 239.6-10.9 26.2-49.4 53.1-96 76.4 3.1-16.7 7.9-50.7-11.1-68.9v3.5s-25.6-1.3-9.7 11c12.9 10.1 19.2 39.7 19.8 55.2-15.2 7.5-30.9 14.6-47.5 21.2 12 6.9 21 15.2 26.3 24.4 29.5-9.5 74.8-28.5 114.4-62.9 28.4-24.4 53.9-57 68.4-100z"/><path fill="#FFFFFE" d="M1144 932.1c-.3.1-.5.2-.8.3-24.4-22.8-67.4-39.9-118.7-46.2-1.6-.2-3.1-.4-4.7-.6-12.6-1.4-25.6-2.1-39-2.1-5 0-9.8.2-14.7.4-1.4.1-2.9 0-4.3.1-30.9 1.6-59.5 7-83.9 15.3-31.5 10.7-55.9 26.2-69.5 44.4-1 1.4-2.1 2.8-3 4.2-23.4 2.7-60.6 6.9-100.5 11.2l163.3 126s111.4 17.7 222.9-24.8c74.2-28.3 98.1-71.4 79.2-103.9-5.5-9.1-14.3-17.4-26.3-24.3zm-311.4 77c-19.5-40.7 15.9-65.4 15.9-65.4-38.9 77.8 51.3 100.8 109.6 113.2 58.4 12.4 183.9-30.1 164.5-84.9-19.5-54.8-201.6-7.1-183.9 19.5 17.7 26.5 100.8-1.8 100.8-1.8-44.2 24.8-127.3 28.3-123.8-8.8s145-67.2 198.1-37.1c53.1 30.1 44.2 88.4-61.9 116.7-106.1 28.2-199.8-10.7-219.3-51.4z"/><path fill="#F0B78C" d="M181.5 1041.1l5.1 10.5c1.4 2.9 2.9 6 4.3 8.8.4.8.8 2.6 1.2 2.6h.1c87.2 0 171.8-1.7 217.9-6.2 121-11.9 109.2-90.3 113.9-83.2 2.6 4 97.4-5.4 180.7-14.4 39.9-4.3 77.2-8.6 100.5-11.3.9-1.4 2-2.8 3-4.2-25.6.6-42.9 5.2-42.9 5.2s35.4-260 63.7-237c0 0-24.7 120.3-5.3 152.1 10.8 17.7 34.9 28.9 54 35.3 24.5-8.3 53.1-13.7 83.9-15.3L928 821.6s41.8 16.2 37.9 62.3c4.9-.2 9.7-.4 14.7-.4 13.4 0 26.5.8 39 2.1l-3.2-14.5c0-21.2 23 12.4 23 12.4l-15.1 2.7c51.3 6.3 94.2 23.3 118.7 46.2.3-.1.5-.2.8-.3 16.6-6.6 32.8-13.7 48-21.2-.6-15.5-7.7-45.2-20.7-55.2-15.9-12.4 9.7-11 9.7-11v-3.5c19 18.2 14.2 52.1 11.1 68.9 46.5-23.3 84.2-50.2 95.1-76.4 28.5-68.8-18.5-166.1-106.3-239.6-31.5-26.4-71.4-30.8-109.8-25.5-1.2 3.2-2.8 6.3-5 9-12.9 16.4-47.7 23.2-68.9 21.1-.3-2.2.1-4 .7-5.6-3.2 2.3-6.4 4.4-9.8 6.1-1.3-.8-1.2-2.7-1.5-2.9-3.1 8.5-8.1 17-15.7 22-1.4-1.1-1.1-1.7-2.3-2.9-5.6 4.7-15.2 9.7-22.8 9.8-15.4.2-10-5.6-19-10.5-7.3-4-18.3.9-15.3-12.2-7-5.9-9.6-18.4-2.8-24.7l-8.8 1.8c-5.2.5-8.9-.3-11.4-2-14.4 23.7-20.4 56.9-20.4 56.9l8.8 5.2s-14 9.1-22.9 18.2l-7.1 11.8c0-3.4 3-7.6 7.1-11.8l14.1-23.5s-49.8 54.6-154.2 78.3c-54.1 12.3-99.3-14.9-160-44.3 32.4-1.8 55.9-4 55.9-4 164.5 26.5 194.5-79.6 194.5-79.6l95-82.6 4-3.5 140.3-122L1167 269.3c-.1-.1-.2-.2-.4-.3-1.4-1.2-2.9-2.3-4.4-3.4-9.3-7.4-18.8-14.6-28.5-21.5-2.5-1.8-5.1-3.7-7.6-5.4-5-3.5-10.1-6.8-15.2-10.1-2.2-1.5-4.5-2.9-6.7-4.3-5.6-3.5-11.2-7-16.9-10.4-1-.6-1.9-1.1-2.9-1.7-27.6-16-56.4-30.1-86.3-42-.1 0-.1-.1-.2-.1C965.6 207 908.7 272 851.4 336.8 769.5 430 686.4 523 675.2 531.6c-23 17.7-405 38.9-405 38.9-17.4 29 32.8 37.8 51.6 40-71.9-.7-133.5 2.1-184.2 6.9-2.6 11-4.9 22.2-7 33.4-.4 2.1-.7 4.1-1.1 6.2-1.3 7.4-2.4 14.8-3.4 22.2-.7 5.2-1.4 10.3-2 15.5-.4 3.7-.8 7.5-1.2 11.3-.8 8.3-1.4 16.7-1.9 25.2-.1 2.2-.2 4.3-.3 6.5-.4 9.6-.7 19.3-.7 29.1 0 9.9.3 19.7.7 29.5.1 2 .2 3.9.3 5.9.5 9.2 1.2 18.4 2.1 27.6.2 2.3.5 4.6.7 6.9.9 8.1 1.9 16.2 3.1 24.2.4 2.4.7 4.9 1.1 7.3 1.2 7.4 2.5 14.8 4 22.1.7 3.4 1.3 6.8 2 10.2 1.6 7.4 3.3 14.8 5.1 22.1 1 4.2 2.2 8.4 3.3 12.5 1.1 4.1 2.3 8.2 3.5 12.3 2.2 7.6 4.6 15.2 7.1 22.7.9 2.8 1.8 5.5 2.8 8.3 5.9 16.8 12.4 33.3 19.6 49.4.4.8.7 1.6 1.1 2.4 1 2.1 2 4.2 3 6.4.6 1.5 1.3 3 2 4.5zm750.2-182.3l7.1 23c-8.9-1.8-7.1-23-7.1-23zm88.4-8.9L1006 834s21.2 8.9 14.1 15.9zm130.4 62.8l-25.2-53.1c0 .1 71.7 14.7 25.2 53.1zm-17.2-6.2c-10.6 0-23-47.8-23-47.8l23 47.8zm-75.6-24.3l-11.9-11.9c91.5-69 128.7-33.2 128.7-33.2-35.9-18.6-116.8 45.1-116.8 45.1zm100.4-180.8c3.5 38.9 3.5 67.2 3.5 67.2s-12.4 0-12.4-7.1 0-51.3-8.9-70.7c-8.8-19.5-28.3-47.8-28.3-47.8s42.5 19.5 46.1 58.4zm-64.6 65.4l-4-102.1s86.2 29.1 4 102.1zm-23.9-88.4l10.6 81.4c-35.3-21.3-10.6-81.4-10.6-81.4zm58.4-426.3c18.6 0 29.2 15.9 29.2 15.9L817.6 562.5 1128 252.1zm-935.6 799.5l-10.6-53.1c14.1 46 244.1 46 244.1 46l-233.5 7.1zm158.3-422.7l45.1 39.8c-39.8 0-45.1-39.8-45.1-39.8zm220.2 336.9l-53 7.1 56.6-145c47.7-7.1-3.6 137.9-3.6 137.9zm106.1-199c-39.8 23.9-257.3-39.8-270.6-90.2-1.2-4.4-1-8.2.1-11.6 1.8.3 3.4.7 5.2 1 35.4 5.4 86.5 4.8 128 3 11.5 4.8 175.7 74.8 137.3 97.8zM549.6 618.2s-82.2 5.3-145.9 8c-52.4 2.2-72.5-15.4-77.9-21.7-1-.7-1.7-1.4-1.7-2.2 0 0 .5.9 1.7 2.2 19.9 13.7 223.8 13.7 223.8 13.7zM119.9 769.9v-2.3c37.2-10.3 127-33.2 125.6-14.9l-125.6 17.2z"/><path fill="#E9A470" d="M411.7 666c-1.8-.3-3.5-.7-5.2-1-1.1 3.4-1.2 7.2-.1 11.6C419.6 727 637.2 790.7 677 766.8c38.4-23-125.8-93-137.3-97.9-41.5 1.9-92.6 2.5-128-2.9z"/><path fill="#FFFFFE" d="M1058.5 547.6c3.6-.3 7.2-1.4 9.5-1.7-11.9-7.9-21.3-12-34.8-14.1 5-.3 9.7-2.7 13.7-6.3 9.8-8.7 15.5-24.4 11.9-34-4.2-11.2-21-17.7-32.9-15.2 1.1-11.1-29.1-30.8-40.8-29.3-10.1 17.7-14.7 32-14.3 53.9-2 .2-11.1-.4-13.9-1.3-3-7.9-17.2-38-25.4-14.2-10.1-1.9-20.3 3.1-20.8 13.8-3.1-1.2-5.4-1.2-7.2-.6l-4 3.5c-1.2 2-2.1 4.4-3 6.9-1.9 5.3 2.6 10.5 1.9 15.7-.4 2.9-4.7 5.6-5.5 8.6-2.7 10.4-15.9 36.5-4.2 44.1 2.5 1.6 6.2 2.4 11.4 2l8.8-1.8c-6.8 6.3-4.2 18.8 2.8 24.7-3 13.1 8 8.2 15.3 12.2 9 5 3.5 10.7 19 10.5 7.5-.1 17.1-5.1 22.8-9.8 1.2 1.1.9 1.7 2.3 2.9 7.6-5 12.6-13.5 15.7-22 .3.2.2 2.1 1.5 2.9 3.4-1.7 6.6-3.9 9.8-6.1-.6 1.6-1 3.4-.7 5.6 21.2 2.1 56-4.8 69-21.1 2.1-2.7 3.9-5.8 5.1-9 3.2-9.5 1.4-19.5-13-20.8zm-79.1-16c8.8 0 15.9 7.5 15.9 16.8s-7.1 16.8-15.9 16.8-15.9-7.5-15.9-16.8 7.1-16.8 15.9-16.8z"/><path fill="#D77D31" d="M979.4 565.2c8.8 0 15.9-7.5 15.9-16.8s-7.1-16.8-15.9-16.8-15.9 7.5-15.9 16.8 7.1 16.8 15.9 16.8z"/><path fill="#E9A470" d="M574.4 827.8l-56.6 145 53-7.1c.1.1 51.4-144.9 3.6-137.9zM877.8 899.4c-19.1-6.4-43.2-17.5-54-35.3-19.4-31.8 5.3-152.1 5.3-152.1-28.3-23-63.7 237-63.7 237s17.3-4.6 42.9-5.2c13.6-18.2 38-33.7 69.5-44.4z"/><path fill="#387167" d="M1080.2 759.7l-10.6-81.4c0 .1-24.7 60.2 10.6 81.4zM1149.2 761.5c0 7.1 12.4 7.1 12.4 7.1s0-28.3-3.5-67.2c-3.5-38.9-46-58.4-46-58.4s19.4 28.3 28.3 47.8c8.8 19.4 8.8 63.6 8.8 70.7zM1133.3 906.5l-23-47.8c0 .1 12.4 47.8 23 47.8zM1006 834l14.1 15.9c7.1-7-14.1-15.9-14.1-15.9z"/><path fill="#E9A470" d="M928.1 821.6l33.6 62.4c1.4-.1 2.9-.1 4.3-.1 3.9-46.1-37.9-62.3-37.9-62.3zM938.7 881.8l-7.1-23c.1 0-1.7 21.2 7.1 23z"/><path fill="#387167" d="M1039.6 883.5s-23-33.6-23-12.4l3.2 14.5c1.6.2 3.1.4 4.7.6l15.1-2.7zM846.8 669.5l7.1-11.8c-4.1 4.2-7.1 8.5-7.1 11.8zM876.8 639.5l-8.8-5.2-14.1 23.5c8.9-9.2 22.9-18.3 22.9-18.3z"/><path fill="#E9A470" d="M119.9 767.6v2.3l125.5-17.3c1.4-18.2-88.3 4.7-125.5 15zM403.7 626.2c63.7-2.7 145.9-8 145.9-8s-204 0-223.8-13.7c5.5 6.3 25.5 23.9 77.9 21.7zM325.8 604.5c-1.2-1.3-1.7-2.2-1.7-2.2 0 .8.7 1.5 1.7 2.2zM395.8 668.7l-45.1-39.8s5.3 39.8 45.1 39.8zM1157.2 268.1s-10.6-15.9-29.2-15.9L817.6 562.5l339.6-294.4z"/><path fill="#CFDBD8" d="M1051.9 1060.4c106.1-28.3 115-86.7 61.9-116.7-53.1-30.1-194.6 0-198.1 37.1s79.6 33.6 123.8 8.8c0 0-83.1 28.3-100.8 1.8-17.7-26.5 164.5-74.3 183.9-19.5 19.4 54.8-106.1 97.3-164.5 84.9-58.4-12.4-148.5-35.4-109.6-113.2 0 0-35.4 24.8-15.9 65.4 19.5 40.8 113.2 79.7 219.3 51.4z"/><path fill="#E9A470" d="M1045.7 870.3l11.9 11.9s80.9-63.7 116.7-45.1c.1 0-37-35.8-128.6 33.2zM1089.5 664.7l4 102.1c82.2-73-4-102.1-4-102.1zM1125.3 859.7l25.2 53.1c46.5-38.5-25.2-53.1-25.2-53.1zM181.8 998.5l10.6 53.1 233.5-7.1s-230 0-244.1-46z"/><path fill="#FFFFFE" d="M1342.9 1040.1h-.1c-376.7 28.1-400.4 283.2-400.8 343 5.2-1.5 10.3-3.2 15.5-4.9 2-.6 4-1.2 6-1.9 1-.3 2.1-.6 3.1-1v-.1c38.7-247.9 278.7-315.9 353.8-331.2 13.8-2.8 22-3.9 22.4-3.9h.1zM239.8 1140.2c5.6-1.2 18.2-3.7 36.2-6.4 119.3-18 478.5-44.1 633.8 257.8 3-.7 5.9-1.6 8.9-2.3 6.2-1.6 12.5-3.1 18.6-4.8-18.3-59.7-150.6-409.9-697.6-244.4 0-.1 0 0 .1.1z"/><path fill="#FFFFFE" d="M1017.1 1355.9c1.1-.5 2.3-1 3.4-1.5l144.6-195-180.6 209.5-.2.2-.1.1c.4-.2.8-.3 1.2-.5 3.9-1.5 7.8-3 11.7-4.6 2.3-.9 4.7-1.8 7-2.8 4.5-1.7 8.8-3.6 13-5.4zM875.3 1398.6l.6-.4-443-199 371.9 208c23.9-1.5 47.4-4.4 70.5-8.6z"/></svg>