<svg xmlns:xlink="http://www.w3.org/1999/xlink"  xmlns="http://www.w3.org/2000/svg" viewBox="0 0 150 150"><path fill="#00B5EF" d="M70.2 38.9c0-2.1-.4-4-1.1-5.8-4.6 5.1-5.5 12.6-1.9 18.9l3 5.2V38.9zM70.4 25.6c.1-.1.3-.2.4-.3l11.6-6.7-16-9.2-5.5 9.5c3.8 1.4 7.1 3.7 9.5 6.7"/><path fill="#FDC35F" d="M73.1 29.8c1.3 2.8 2.1 5.8 2.1 9.1v12.3c0-10.1 6.7-18.3 16-20.6-.5-3.2-2.1-6.3-4.4-8.7l-13.5 7.8c-.1 0-.1.1-.2.1"/><path fill="#00B5EF" d="M96.6 30H110l-9.3-16.1-9.5 5.5c2.6 3 4.3 6.7 4.9 10.6h.5M32.6 81.8c5.1 4.6 12.6 5.5 18.9 1.9l5.2-3H38.4c-2 0-4 .4-5.8 1.1M59.2 115.6c6.5-2.1 11.1-8.2 11.1-15.4v-6L61.1 110c-1 1.8-1.7 3.7-1.9 5.6M80.2 112.5c0 2.1.4 4 1.1 5.8 4.6-5.1 5.5-12.6 1.9-18.9l-3-5.2v18.3zM40.9 61.6c-1.8-1-3.7-1.6-5.6-2 2.1 6.5 8.1 11.1 15.4 11.1h6l-15.8-9.1zM50.4 37c2.5 1.7 4.7 4 6.4 6.8l6.1 10.6c-5-8.7-3.3-19.2 3.6-25.8-2.1-2.5-4.9-4.4-8.2-5.4l-7.8 13.5c0 .2 0 .3-.1.3M116.6 46.8l11.6 6.7V34.9h-11c.8 3.9.4 8-1 11.6.1.1.3.2.4.3M125.2 71c.1.1.2.3.3.4l6.7 11.6 9.3-16.1-9.5-5.5c-1.4 3.8-3.7 7.1-6.8 9.6M41.3 102.2c6.7 1.4 13.7-1.5 17.3-7.8l3-5.2-15.8 9.1c-1.7 1.1-3.2 2.4-4.5 3.9M91.2 35.8C84.7 38 80.1 44 80.1 51.2v6l9.1-15.8c1.1-1.8 1.7-3.7 2-5.6M115.1 91.7c-2.2-6.5-8.1-11.1-15.4-11.1h-6l15.8 9.1c1.8 1.1 3.7 1.7 5.6 2M97.9 105c1 1.8 2.3 3.3 3.9 4.5 1.4-6.7-1.5-13.7-7.8-17.3l-5.2-3 9.1 15.8zM117.8 69.6c-5.1-4.6-12.6-5.5-18.9-1.9l-5.2 3H112c2 0 4-.4 5.8-1.1M96.3 34.9c-.2 3.1-1.1 6.1-2.7 8.9l-6.1 10.6c5-8.7 14.9-12.4 24.2-9.8 1.1-3.1 1.4-6.5.5-9.8H96.6c-.1.1-.2.1-.3.1"/><path fill="#00B5EF" d="M109 49.2c-6.7-1.4-13.7 1.5-17.3 7.8l-3 5.2 15.8-9.1c1.8-1.1 3.3-2.4 4.5-3.9"/><path fill="#FDC35F" d="M107 57.3l-10.6 6.1c8.7-5 19.1-3.3 25.8 3.6 2.5-2.1 4.4-4.9 5.3-8.2L114 51c-.1 0-.2-.1-.2-.1-1.7 2.6-4 4.8-6.8 6.4"/><path fill="#00B5EF" d="M79.9 125.7c-.1.1-.3.2-.4.3l-11.6 6.7L84 142l5.5-9.5c-3.8-1.4-7.1-3.7-9.6-6.8M99.9 114.4c-2.5-1.7-4.7-4-6.4-6.8L87.4 97c5 8.7 3.3 19.1-3.6 25.8 2.1 2.5 4.9 4.4 8.2 5.4l7.8-13.5c.1-.2.1-.3.1-.3M53.8 121.4H40.4l9.3 16.1 9.5-5.5c-2.6-3-4.3-6.7-4.9-10.6h-.5"/><path fill="#FDC35F" d="M77.3 121.6c-1.3-2.8-2.1-5.8-2.1-9.1v-12.2c0 10.1-6.7 18.2-16 20.5.5 3.2 2.1 6.3 4.4 8.7l13.5-7.8s.1-.1.2-.1"/><path fill="#00B5EF" d="M104.3 116.7c-.1.1-.1.3-.2.4l-6.7 11.6H116v-11c-4 .8-8 .4-11.7-1"/><path fill="#FDC35F" d="M107 94.1L96.4 88c8.7 5 12.5 14.9 9.8 24.2 3.1 1.1 6.5 1.4 9.8.5V97.1v-.3c-3.1-.2-6.2-1.1-9-2.7"/><path fill="#00B5EF" d="M52.5 46.3c-1-1.8-2.4-3.3-3.9-4.5-1.4 6.7 1.5 13.7 7.8 17.3l5.2 3-9.1-15.8zM121.2 73.8c-.1-.1-.1-.2-.1-.2-2.8 1.3-5.8 2.1-9.1 2.1H99.7c10 0 18.2 6.7 20.5 16 3.2-.5 6.3-2.1 8.7-4.4l-7.7-13.5zM120.9 96.6v13.9l16.1-9.3-5.5-9.5c-3 2.6-6.7 4.3-10.6 4.9"/><path fill="#FDC35F" d="M43.4 57.3L54 63.4c-8.7-5-12.4-14.9-9.8-24.1-3.1-1.1-6.5-1.4-9.8-.5v15.9c3.1.1 6.1 1 9 2.6"/><path fill="#00B5EF" d="M29.2 77.6c0 .1.1.1.1.2 2.8-1.3 5.8-2.1 9.1-2.1h12.2c-10 0-18.2-6.7-20.5-16-3.2.5-6.3 2.1-8.7 4.4l7.8 13.5zM54.1 116.5c.2-3.1 1.1-6.1 2.7-8.9L62.9 97c-5 8.7-14.9 12.4-24.1 9.8-1.1 3.1-1.4 6.5-.5 9.8h15.5c.1-.1.2-.1.3-.1M29.5 54.8V40.9l-16.1 9.3 5.5 9.6c3-2.7 6.7-4.4 10.6-5M46.1 34.7c.1-.1.1-.3.2-.4L53 22.7H34.4v11c4-.8 8-.4 11.7 1M25.1 80.4c-.1-.1-.2-.3-.3-.4l-6.7-11.6-9.2 16.1 9.5 5.5c1.3-3.8 3.7-7.1 6.7-9.6M33.8 104.6l-11.6-6.7v18.6h11c-.8-3.9-.4-8 1-11.6-.1-.1-.3-.2-.4-.3"/><path fill="#FDC35F" d="M43.4 94.1L54 88c-8.7 5-19.1 3.3-25.8-3.6-2.5 2.1-4.4 4.9-5.4 8.2l13.5 7.8c.1 0 .2.1.3.1 1.7-2.6 3.9-4.8 6.8-6.4"/></svg>