<svg xmlns:xlink="http://www.w3.org/1999/xlink"  xmlns="http://www.w3.org/2000/svg" viewBox="0 0 150 150"><path fill="none" d="M139 10.1h-32.8c-13.5 0-25.8 8.6-30.6 21.1-.3.8-.6 1.5-.8 2.3l-.9 2.9-.7-2.3-.2-.6C68.9 19.7 55.9 10 41.5 10H9v33c0 14.4 9.5 27.3 23.3 31.5l1.3.4 1.5.5-1.4.4-1.4.5C18.5 80.3 9 93.3 9 107.6v32.9h32.7c3.7 0 7.2-.6 10.5-1.8 9.8-3.4 17.7-11.3 20.8-21.6l.9-2.9.9 2.9c3.1 10.3 11.1 18.3 21 21.7 3.3 1.1 6.8 1.7 10.4 1.7H139v-32.9c0-14-9.1-26.6-22.3-31.1-.4-.1-.7-.3-1.1-.4l-2.9-.9 2.9-.9 1.8-.6c12.8-4.6 21.6-17 21.6-30.7V10.1zM32.5 71.8C20.2 68 11 56.5 11 43V13h30.5l.1-.1c15.8 0 28.7 12.1 30 27.6-.1.8-.3 1.5-.4 2.4-.4 2.8-2.1 7.2-2.1 7.2-.9 1-10.2 4.8-13.7 6.3-3.6 1.5-16.7 8.5-20.2 10.2-3.3 1.5-3.3 3.4-2.7 5.2zm9.1 66.1l-.1.1H11v-30.4c0-14.1 9.9-25.8 22.9-29.1.2 1.5.5 3 .7 4.2.4 3.2 3.5 12 4.8 15.2 1.2 3.2 8.2 18.7 8.6 20.4.4 1.7.9 7.2 1.1 8.7.2 1.5.1 1.6.1 2.4 0 .6 1.7 4.4 2.4 6.7-3.2 1.1-6.5 1.8-10 1.8zm17.7-46c.2 4.5-1.7 10.2-1.7 10.2-.5-1.6-7.2-7.9-7.2-7.9-.4-2-5.6-15.8-5.6-15.8-.1-.2-.2-.4-.3-.4h17.1c-1.5 4-2.5 10.8-2.3 13.9zm12.7-25c-3 .4-6.1 2.9-8.1 5.5-.1.2-.4.6-.6.6H45.7c1.1-1 2.3-2 2.3-2 2.5-4 20.2-13.3 22.4-14.6.6-.2.6-.4 1.6-.5v11zm11.3 4c-2.6-3.5-5.3-4.2-7.3-4.2V53.9c0-.3.2-.5.2-.5.2 1.4 1.5 1.5 4 2.2 2.5.7 16 10.6 17.3 12 1.3 1.3 5.6 5.5 6.2 5.5h-19c-.4-1.1-.9-1.5-1.4-2.2zm10.5 28.8c-2.8 2.5-5.9 7.6-5.9 7.6-.2-.6-1.2.9-2.2-1.4-1-2.2 2.7-15 2.1-18.6-.4-2.3-.4-6.3-1.4-9.3h19c0 1-.8 2.7-2.1 4.8-1.9 3.1-5.7 13.1-5.7 13.1-.8 1.4-.9 1.3-3.8 3.8zM113.9 87c.6-1.6 1.2-4.8 2-7.8 11.8 4.1 20.1 15.3 20.1 28.4V138h-29.7l-.1-.1c-3.4 0-6.7-.7-9.7-1.7.6-2.1 1.2-4.1 1.6-4.7.6-1-.2-1-.2-1s1.5-6.3 1.6-8.4c.1-2.1 2-5.2 2-5.2 1-2 4-7.9 5.3-11.1 1.3-3.3 6.1-16 7.1-18.8zM136 43c0 12.6-7.5 23.3-18.5 27.8-.3-1.2-1.1-1.6-2.1-2.1-1.6-.7-6.6-4.7-10.5-7.1-3.8-2.4-17.8-8.5-18.9-9.5-1.1-1-1.5-.2-3.1-2-1.6-1.7-3.2-5.7-3.8-7.7-.6-2-.5-2.6-.9-4.3-.2-.9-.6-2.6-.8-3.9 3.8-12.4 15.2-21.3 28.8-21.3l.1.1H136v30z"/><path fill="#642A10" d="M44.5 78c.1 0 .2.2.3.4 0 0 5.2 13.9 5.6 15.8 0 0 6.7 6.1 7.2 7.7 0 0 2-5.6 1.7-10.1-.2-3.1.8-9.9 2.3-13.9H44.5zM49 127c-.2-1.5-.7-6.9-1.1-8.7-.4-1.7-7.3-17.2-8.5-20.4-1.2-3.2-4.3-12-4.7-15.2-.1-1.2-.6-2.7-.8-4.2-13 3.3-22.9 15.1-22.9 29.1V138h30.5l.1-.1c3.5 0 6.9-.7 10-1.8-.7-2.3-2.4-6-2.4-6.7-.1-.7.1-.9-.2-2.4z"/><path fill="#EEC85C" d="M101.4 116.9s-1.9 3.1-2 5.2c-.1 2.1-1.6 8.4-1.6 8.4s.9 0 .2 1c-.3.5-1 2.5-1.6 4.6 3.1 1 6.3 1.8 9.7 1.8l.1.1H136v-30.4c0-13.2-8.3-24.4-20.1-28.4-.8 3-1.5 6.2-2.1 7.8-1 2.7-5.8 15.5-7.1 18.7-1.4 3.2-4.3 9.2-5.3 11.2zM97.7 95.8s3.8-9.9 5.7-13c1.3-2.2 2.1-3.8 2.1-4.8h-19c1 3 1 7 1.3 9.3.6 3.6-3.1 16.5-2.1 18.7 1 2.2 2 .7 2.2 1.3 0 0 3.1-5.1 5.9-7.6 2.9-2.5 3-2.5 3.9-3.9z"/><path fill="#F4BA35" d="M55.3 56.5c3.6-1.5 12.9-5.3 13.7-6.3 0 0 1.7-4.3 2.1-7.2.1-.9.2-1.7.4-2.5-1.3-15.5-14.2-27.6-30-27.6l-.1.1H11v30c0 13.6 9.2 25 21.5 28.8-.6-1.8-.6-3.6 2.7-5.2 3.4-1.6 16.5-8.7 20.1-10.1zM48 71s-1.2 1-2.3 2h17.6c.1 0 .4-.4.6-.6 1.9-2.6 5.1-5.1 8.1-5.5v-11c-1 .1-1 .3-1.5.6-2.3 1.2-20 10.6-22.5 14.5z"/><path fill="#F37021" d="M106.2 12.9c-13.6 0-25.1 8.9-28.8 21.3.3 1.3.6 3 .8 3.9.4 1.7.2 2.3.9 4.3.6 2 2.2 5.9 3.8 7.7 1.6 1.7 2 1 3.1 2s15.1 7.2 18.9 9.5c3.8 2.4 8.9 6.3 10.5 7.1 1 .5 1.7.9 2 2.1C128.5 66.3 136 55.5 136 43V13l-29.8-.1c.1.1 0 0 0 0zM97.5 67.5c-1.4-1.4-14.9-11.2-17.3-12-2.5-.7-3.8-.9-4-2.2 0 0-.2.2-.2.5v12.8c2 0 4.7.7 7.3 4.2.5.7 1 1.1 1.4 2.1h19.1c-.7.1-5-4.1-6.3-5.4z"/><path fill="gray" d="M141 43V8.3h-34.7c-14.3 0-27.2 8.8-32.4 22C68.8 17.1 55.8 8 41.5 8H7v35c0 14.3 9 27.2 22.2 32.3C16 80.4 7 93.4 7 107.6v34.7h34.6c3.8 0 7.4-.6 10.9-1.8 9.6-3.3 17.6-10.7 21.4-20.4 3.8 9.7 11.8 17.1 21.4 20.4 3.5 1.2 7.2 1.8 10.9 1.8h34.7v-34.7c0-14.3-9-27.2-22.2-32.3C132 70.2 141 57.2 141 43zm-23.6 30.8l-1.8.6-2.9.9 2.9.9c.4.1.7.3 1 .4 13.3 4.4 22.4 17 22.4 31v32.9h-32.8c-3.6 0-7.1-.6-10.4-1.7-9.9-3.4-17.9-11.3-21-21.7l-.9-2.9-.9 2.9c-3.1 10.3-11.1 18.2-20.9 21.6a30.9 30.9 0 0 1-10.5 1.8H8.9v-32.9c0-14.4 9.5-27.3 23.3-31.5l1.4-.5 1.3-.4-1.6-.5-1.2-.4C18.5 70.3 9 57.3 9 43V10h32.5c14.4 0 27.4 9.7 31.5 23.5l.2.6.7 2.3.9-2.9c.2-.8.5-1.6.8-2.3 4.8-12.5 17.1-21.1 30.6-21.1H139V43c0 13.7-8.8 26.1-21.6 30.8z"/></svg>