<svg xmlns:xlink="http://www.w3.org/1999/xlink"  xmlns="http://www.w3.org/2000/svg" viewBox="0 0 1500 1500"><path fill="none" d="M491.5 951.1c.6-.7 1.2-1.4 1.9-2.1-27-1.6-59.9-7.5-76-25.4 10.3 20 45.8 26 74.1 27.5zM1159 866.1l-81 50.1c-2 3.5-4.1 6.9-6.3 10.1l82-50.6c1.8-3.2 3.6-6.4 5.3-9.6zM518.3 869c-.9-.3-1.7-.7-2.6-1.2-.2-.1-.4-.1-.6-.3-.4-.3-.9-.4-1.3-.7-16.9-11.6-37.7-10.6-54.1-4-4.3 1.7-8.3 3.7-11.8 6-13.2 8.8-19.7 20.5-17.9 31.6.1.6.1 1.2.2 1.7 3 12.7 22.6 19.4 44.9 22.7-.5-1.2-1.1-2.3-1.3-3.6-.6-2.3-.8-4.7-.8-7.1 0-11.5 6.6-22.7 18.2-30.4 7.8-5.2 18.3-8.6 29.2-8.9-.7-1.8-1.4-3.8-2.1-5.8zM613.9 697c12.2-8.1 18.7-16.3 18.7-23.7 0-22.3-58.1-51.5-157-63-5.8 23-17.8 45.8-39.1 66.6-4.4 4.3-11.4 4.2-15.7-.2-1.9-1.9-2.8-4.4-3-6.9 0-.3-.2-.6-.2-.9 0-2.9 1.1-5.8 3.3-8 16.9-16.5 26.9-34.6 32.3-52.9.4-1.4.8-2.9 1.2-4.3 1.5-5.9 2.5-11.7 3.1-17.6.5-4.7.8-9.5.8-14.2 0-35.2-12.9-68.2-24.2-90.5-1.1 3.2-2.4 6.5-3.9 10 10.7 19.3 27.4 56.2 23.4 94.3-.6 5.9-1.7 11.7-3.4 17.5-.4 1.4-.8 2.9-1.3 4.3-4.7 13.9-12.8 27.6-25.7 40.2l-8.6.7c.1.5.3 1 .3 1.6v28.6c0 4.3-5.3 7.7-9.5 7.7-4.3 0-9.5-3.4-9.5-7.7V650c0-.1 1.9-.2 1.9-.3l-16.2 1.4s-7.4-18.1-10.4-40.6c2.6 30.7 14.3 57.6 14.5 58.1.5 1.1.8 2.3.8 3.5 0 .3.2.6.2.9 0 4.3-2.5 8.4-6.7 10.2-5.6 2.4-12.2-.1-14.6-5.8-1-2.3-14.8-34.7-16.5-71.5-107 4.8-178.9 29.4-201.1 52.6-4.8 5-7.6 9.9-7.6 14.6 0 3.5 1.4 7.1 4.2 10.8 1.2 1.6 2.7 3.2 4.4 4.8 26.1 25.4 111.7 52.4 237.6 52.4 112.7.3 193.1-21.3 227.5-44.1zM607.5 773.7c12-20.4 21.2-42.1 26.8-64-16.4 13.4-41.7 24.4-72.2 32.9 19.9 4.2 35.3 15.1 45.4 31.1zM495.9 1053.1c13.7 4.4 28.9 1.8 43.1-3.6-13.8 4.1-28.4 5.4-42.1 1-7.7-2.4-13.9-6.7-18.8-12.2 3.5 6.7 9.3 12.1 17.8 14.8zM371 277.4c-55.7-26.2-112.8-26.2-137.4-24.7.1.5.3 1 .4 1.4 30.9.1 81.3 4.7 130 28.7 2.3-1.8 4.6-3.6 7-5.4zM978.5 189.5c-.8-37.1-6-67.1-9.5-83.3-1.2.5-2.3 1.1-3.4 1.6 3.8 20.1 7.4 47.8 7 79.4 1.9.7 3.9 1.5 5.9 2.3zM787.1 532.7l-.9.3c.4-.1.8-.1 1.2-.1 13.2-1.7 27.1-2.2 41.6-1.4.8 0 1.5.2 2.3.2 19.4 1.3 37.7 5.1 54.8 10.9 78.6 26.7 133.6 95.6 161.1 159.4 2.3 5.4 4.5 11 6.5 16.9 8.1 23.8 13.3 51.4 13.4 78.6.1 23.6-3.6 46.7-12.8 66.6-.2.6-.6 1.1-.8 1.6-7 14.6-16.6 26.5-28.4 35.7-.9.7-1.7 1.3-2.6 2-9 6.6-19.3 11.7-30.9 15.2-48.7 14.9-116.5-8.2-153.8-39.2-35.5-29.4-78.9-101-68.1-158.9 5.6-30.3 25.5-52 57.5-62.8 50.2-16.9 108.6 12.1 136.1 49.9 14 19.3 24.3 59.7 17.4 89.1-3.8 16.1-12.5 28.2-25.2 34.7-19.4 10.1-37.3 11.7-53.1 4.7-27.7-12.2-37.1-46.5-37.5-48-1.6-5.9 1.9-12 7.9-13.6 5.9-1.6 12 1.9 13.6 7.8.1.3 7.2 25.6 25.1 33.4 9.3 4.1 20.7 2.7 33.8-4.1 6.8-3.5 11.5-10.3 13.8-20.1 5.7-24.3-4.2-57.7-13.8-70.9-22.3-30.8-72.3-55-111-41.9-24.2 8.1-38.6 23.6-42.7 45.8-8.3 44.7 25.1 108.5 60.4 137.7 32.1 26.6 92.1 47.6 133.1 35 20.1-6.2 35.4-18.2 45.5-35.7.6-1 1.1-2.1 1.6-3.1.7-1.3 1.4-2.5 2-3.8 7.9-17.1 11-37.6 10.7-58.5-.3-25.3-5.5-51.2-13.1-72.8-1.5-4.4-3.2-8.6-4.9-12.7-25.8-59.9-77.6-124.6-151.3-148.1-15.1-4.8-30.9-8-47.8-9-2.7-.2-5.3-.1-7.9-.1-49.7-1.1-89 14.3-116.7 46.4-10.7 12.5-19.5 27.4-26.1 44.1-11.8 34.4-14.9 73.3-9.1 113.1 18.3-4.2 40.9-4 64.9 5.3 25.8 10 41.1 29.5 41.1 55.1v.4c0 27.8-18.1 59-38.7 80.7 52.7 48.8 125.9 78.4 189 78.2 25.5-.1 60.6-5 91.9-25.7 5.1-3.4 10-7.2 14.8-11.5 11.6-10.3 22.2-23.2 31.1-39.6 8.2-15.3 14.9-33.6 19.3-55.5 14.5-72.1-5.3-146.5-55.8-209.5-40.1-50.1-94.6-85.8-152.9-102.2-13.5-3.8-27.3-6.5-41.1-8.1-3.2.1-6.3.6-9.4.9-1.1-.7-2.2-1.4-3.2-2.1-3.8-.3-7.7-.5-11.5-.6-1.8-.1-3.4-.6-4.9-1.4l-18.7 9.1c-.2.1 1 .8 3.2 2.2zM608.2 161.8c3.6-.9 7.3-1.7 10.9-2.5-24.3-24.9-47-42.1-59.8-51-.9 1.7-1.6 3.4-2.4 5.2 14.5 11.6 32.7 27.8 51.3 48.3zM615 1039.5c1.3-.3 2.6-.5 3.9-.8-8.8-5.2-17-11.8-24.1-19.7-.3.2-.6.5-1 .7 6.1 7.9 13.3 14.6 21.2 19.8z"/><path fill="none" d="M495.8 837.3c-7.2-14.1-13.8-31.6-13.8-47.9 0-7.8 1.5-15.3 5.2-22 2.4-4.3 5.9-8.1 10-11.6-35.3 5.1-73.3 7.7-110.7 7.7-83.2 0-169.7-13-221.3-37.6 4.7 17.6 15.5 50.3 37.1 82.6 26.1 38.8 68 76.8 133.9 86.5 19.9 2.9 42 3.3 66.5.2 1.7-.2 3.3 0 4.8.5.4-17.1 10.5-33.8 28.2-45.6 15.6-10.2 38-15.9 60.1-12.8zm-257.3-83.5l100.1 11.1c-26 50 16.7 120.5 16.7 120.5-116.8-7.4-116.8-131.6-116.8-131.6zM524.7 1005.8c-12.7-4-22.7-14.9-22.7-29.2v-.3c0-3.6 3.2-7.5 4.3-11.3-12.3 12.2-18 28.2-18.1 41.8-.1 8.2 3 18.7 14.9 22.5 28.7 9.2 71.2-21.4 85.1-33.9.3-.3.8-.4 1.1-.6-2.1-1.6-5.3-3.2-7.2-5-12.3 9.1-36.3 22.8-57.4 16zM683.1 1025c12.5-4.9 22.8-14.5 29.9-28.1 11.1-21.5 6.6-39.3-1.2-52.2-9.3-12-19.7-18.6-19.7-18.6.8-.3 1.5-.6 2.3-1-2.1-1.6-3.6-2.7-3.9-2.8-3.5-2.3-5.5-6.4-5-10.5.5-4.2 3.2-7.8 7.1-9.2 2.8-1 5.8-2.7 8.9-4.7 5.5-3.7 11.4-8.8 17.1-14.9 16.2-17.4 30.9-42.8 31-65.1 0-6.3-1.2-11.8-3.6-16.6-4-7.9-11.4-13.8-22.2-18-19.6-7.6-36.9-7.7-51.7-4.3-1.9.4-3.7 1-5.6 1.6 0 .2.1.4.1.6-2.3.5-4.6 1.1-6.9 1.8-5.2 2.1-9.9 4.4-14.1 7-16.9 10.3-26.8 23.1-27.6 24.2-2.7 3.5-7.1 5.2-11.4 4.2h-.2c-.9-.2-1.8-.6-2.6-1.1-3-1.6-5.2-4.5-5.7-8-.9-5.6-2.5-10.3-4.2-14.6-.9-2.4-1.9-4.7-3.1-6.8-9.7-16.8-25.4-22.3-35.6-24.1-13.1-2.3-25.7-.3-35 3.8-6.4 2.8-11.2 6.5-13.5 10.7-7.3 13.1 2.5 38.3 13.8 58 8.1-11.5 26.4-17.8 44.2-14.7 2 .3 3.7 1.1 5.6 1.6 11.4 3.5 20.5 10.7 26.3 20.8 14.2-11 36-20.1 62.1-12 1.6.5 2 .8 3.6 1.4 16.6 6.4 24.6 19.1 24.6 35.7v.2c0 3.8.4 7.7-.5 11.7-4 16.5-15 33.3-27.4 43.8 6.8 7.9 13 18.5 13 31.4 0 7-1.6 14.6-5.7 22.6-8.4 16.2-23 26.2-40.2 27.4-5 .4-10-.1-14.9-1.2 14.5 15.7 35 24.7 54.8 23.7 5.8-1.2 11.5-2.4 17.1-3.7zM1208.1 835.8l-11.1 6.9c-1.6 3.1-3.3 6.2-4.9 9.3l12.3-7.6c1.2-2.9 2.5-5.7 3.7-8.6zM1220 798.5c-1 1.9-1.9 3.8-2.9 5.6 2.2-1.4 4.4-2.7 6.6-4.1 11.5-26.4 22.8-51.3 34-72.7-12.5 22.4-25.1 46.9-37.7 71.2zM668.8 1050.9c-3.4.7-6.8 1.5-10.2 2.2 8.7 0 17.2-1.6 25.3-4.9-4.8 1.3-9.8 2.3-15.1 2.7zM1334.2 634.8c-16.9 4-35.9 26.3-55.5 57.3 15.6-22.4 31.5-35.8 48.6-34.9 0 0 5 9.5 11.6 27.2.6-11.2.6-17.9.5-18.4 0-1.6.3-3 .8-4.4-1.8-12.3-4.2-21.2-6-26.8z"/><path fill="#D9EBF9" d="M825.5 501.3c.2.1.5.3.7.5 4.6.4 9.1.9 13.7 1.5l349.9-170.4c-2-2.1-4-4.3-6.1-6.4-121 59-311.5 151.8-352.5 171.7-1.9 1-3.8 2.1-5.7 3.1zM677 644.1c-13.2 33-18.1 72.9-13.7 114.3 1.5-.4 3.1-.9 4.7-1.3-5.9-39.8-2.7-78.7 9-113zM1166.7 310c-48.8-45.8-105.2-83.5-167-111.4-.4 69.9-16.7 160.2-82.3 232.8L1166.7 310zM378.2 524.4c24.6-22.3 33.7-42.3 36.8-56-4.3-.2-8.8-.5-13.3-1-44.5-.4-98.9-16.1-141.9-75.1-50.7 68.5-87.3 148-105.8 234.2 42.8-24.6 118.3-39.1 195.8-42.7 2.3-21.5 10.2-42.9 28.4-59.4zM711.8 944.7c-5.7-9.4-13-16.1-17.5-19.6-.8.3-1.5.7-2.3 1 .1 0 10.5 6.7 19.8 18.6zM469.8 330.4c-3.8-35.3-.9-76.1 11.7-123-32.3 15.9-63 34.5-91.7 55.6 28.8 14.9 56.8 36.4 80 67.4zM1090 1033.6c46-38.9 82-115.3 114.4-189.2l-12.3 7.6c-33.6 63-68.8 121.8-108.7 155.6-50.6 42.8-140 77.1-221.7 101.6-46.4 24.8-168.6 67.6-168.6 67.6s290.5-53.3 396.9-143.2zM497.6 1061.7c32.5-5.2 73.9-13.2 117.4-22.2-7.9-5.2-15.1-11.8-21.2-19.7-11.5 8.9-32.2 23.1-54.8 29.7-14.2 5.4-29.4 8-43.1 3.6-8.5-2.7-15.8-8.1-19.4-14.8-7-8-12.5-18.7-12.5-31.2v-.5c0-18 10.2-39 25.9-55.5-28.3-1.5-63-7.5-73.3-27.5-2.5-2.7-4.1-5.7-5.7-9-1.6 1.4-3.3 2.6-5.7 2.8-204 25.2-256.7-164.5-264-195.8-.6 10.9-.9 21.9-.9 33 0 161 62.5 307.3 164.5 416.2.6-1 1.2-2 2.1-2.7 74.3-62.2 138.4-98 190.7-106.4z"/><path fill="#D9EBF9" d="M867.4 1032.5c2.5-9.2 3.9-19.1 4.7-27.4-30 7-103.6 24.2-182.1 41.2-1.9.7-4 1.3-6 1.8-8.1 3.3-16.6 4.9-25.3 4.9-57.5 12.2-115 23.8-157.5 30.6-45.3 7.3-103.9 39.7-169.9 93.4 6 5.7 12.1 11.1 18.2 16.5 51.7-40.7 111.2-77.8 163.6-86.3 100.4-16.2 282.6-58 354.3-74.7zM614.1 786.1c6.9-6.2 16.3-13.4 27.8-19.3-2.7-21.4-3.1-42.6-1.3-62.8-1.9 1.9-4 3.8-6.3 5.6-5.6 22-14.8 43.6-26.8 64 2.5 4 4.8 8.1 6.6 12.5zM716 914.6c13.2 12.9 26 32.5 26 56.7 0 11.1-2.7 23.1-9.3 35.9-1.5 2.8-3.1 5.5-4.8 8.1 48.3-10.7 91.7-20.7 119.9-27.3-47.4-13.6-93.9-39.2-130.8-74.1-.3.2-.6.4-1 .7zM478.3 411.3c3.9 1.7 7.3 3.4 10.3 4.9-24.2-75.2-70.3-116.5-117.7-138.7-2.3 1.9-4.7 3.6-7 5.5 45.2 22.1 88.9 61 114.4 128.3z"/><path fill="#D9EBF9" d="M709.1 522.7c-2.4 5.7-8.9 8.3-14.5 5.9-4.3-1.8-6.8-5.9-6.8-10.3 0-1.4.3-2.9.9-4.3 20-47.6 28.2-91.6 28.2-131.5 0-100.4-51.7-175.9-97.7-223.2-3.6.8-7.3 1.7-10.9 2.5 64 70.6 132 192.6 63 356.5l-5.5 5.5c8.9 3.5 14.4 5.2 14.7 5.2 4.9 1.4 8.1 5.8 8.1 10.7 0 1-.1 2-.4 3-1.7 5.9-7.8 9.4-13.7 7.7-1.8-.5-17.9-5.2-40-16.1-26.7-10.5-82.6-37.6-122.2-92.3-.5.9-1.1 1.8-1.9 2.5-.5 3.7-2.7 7-6.4 8.6-1.7.7-22.5 9.5-52.6 13.4 14.3 27.7 32.6 73.9 28.1 121.7 81.6 9.7 151.8 32.3 170.5 66.4 7.8-26.8 20.1-50.6 36.4-69.5 25.1-29.1 59.2-46.9 100-52.4l.9-.3c-2.2-1.3-3.4-2-3.4-2l18.7-9.1c-3.6-1.9-6.1-5.6-6-10 0-.6.3-1.2.4-1.8-.1 0-.3-.2-.3-.2-2.7-1.5-4.5-4.1-5.2-7-.2-1-.3-2-.3-3 .2-4.1 2.6-7.8 6.3-9.6l27.5-13.4c127.6-71.2 153.9-191.2 153.9-278.1 0-3.1-.1-6-.2-9-2-.8-3.9-1.6-5.9-2.3-.9 84.5-30.5 196.9-161.6 266.1-2.6 7.2-4.3 12.7-5 16.4 1 1.7 1.5 3.6 1.5 5.5 0 3.6-1.7 7.1-4.9 9.2-.3.2-.5.2-.8.3-3.9 2.7-9.1 2.9-13 0-2.1-1.6-4.4-3.3-4.8-8.5-4.2-7.1-11.9-21.1-19.2-39.9-24.3-50.7-65.4-177.7 62.8-286.1-25.4-3.2-51.3-5.1-77.6-5.1-36.3 0-71.9 3.4-106.5 9.5 65.8 73.4 136.3 199.8 65.4 368.4zM889.7 1076.8c69.2-22.7 138.6-51.8 179.3-86.2 29.6-25.1 58-67.8 84.7-114.9l-82 50.6c-31.9 46.8-83 72.5-147.9 72.7-9.5 0-19.1-.6-28.9-1.7-.3 6.8-1.1 17.6-3.4 29.5 4-.9 6.2-1.4 6.2-1.4s-.1 28.2-8 51.4z"/><path fill="#FFB602" d="M646.8 968.7c10.8-20.9-8.8-34.5-11.1-36-3.5-2.3-5.4-6.4-5-10.6.5-4.2 3.2-7.7 7.1-9.2 10.9-4.1 29.1-26.7 29.2-43.5 0-4.9-1.3-11.1-11.5-15.1-32.5-12.6-53.5 14.7-54.4 15.8-2.7 3.5-7.2 5.2-11.6 4.1-4.3-1.1-7.6-4.6-8.3-9-2.5-15.5-12.5-20.4-20.4-21.8-4.3-.8-8.5-.5-12 .3-5.3 1.1-9.3 3.4-10.4 5.6-.5.9-.7 2.1-.8 3.5-.4 7.9 6.3 22.6 14 33.1 3.2 4.4 2.8 10.5-1.1 14.4-3.9 3.9-10 4.4-14.4 1.1-10.3-7.5-24.1-4.8-32.5.8-2.3 1.5-9.6 7-8 13.8 1.9 7.9 29.9 12 52.8 10.2 5.7-.4 10.8 3.5 11.8 9 1.1 5.6-2.3 11.1-7.7 12.7-14.3 4.3-23.2 18.2-23.3 28.6-.1 6.6 3.3 7.6 4.7 8.1 14 4.5 36.5-12 43.3-18.2 2.4-2.1 5.5-3.2 8.7-2.8 3.2.4 6 2.1 7.9 4.7 7.3 10.4 19.4 16.6 30.9 15.8 6.7-.5 15.9-3.5 22.1-15.4zM399.8 650c.2-4.1 3.5-7.4 7.6-7.4 3.7 0 6.6 2.6 7.4 6.1l8.5-.7c12.9-12.6 21-26.3 25.7-40.2.5-1.4.9-2.9 1.3-4.3 1.7-5.8 2.8-11.7 3.4-17.5 4-38.1-12.7-75.1-23.4-94.3-6.5 14.7-17.7 31.6-37.2 49.3-12.5 11.4-18.6 26.5-20.8 42.3-.7 5.1-1 10.4-1 15.5 0 .7 0 1.4.1 2.1 0 1.6 0 3.1.1 4.7.1 1.8.2 3.5.4 5.2 3 22.5 10.9 40.6 10.9 40.6l17-1.4z"/><path fill="#E9A36E" d="M741.8 1363c-25.7 0-51.2-1.7-76.4-4.8-123.9-15.1-239.5-66.9-333.8-150.2-1.2 1-2.5 2.1-3.8 3.1 110 108.4 261 175.3 427.7 175.3 333.6 0 604.6-268.1 609.4-600.5-1-6.4-2.1-12.5-3.3-18.5-1.8 44-8.1 86.8-18.7 128-68.7 267.9-313.4 467.6-601.1 467.6z"/><path fill="#E9A36E" d="M833.9 1093.9c18.2-5.2 37-10.9 55.9-17.1 7.9-23.2 8-51.4 8-51.4s-2.2.5-6.2 1.4c-3.2 16.3-9 34.4-20.2 45.5-5.7 5.7-19.7 13.3-37.5 21.6z"/><path fill="#E9A36E" d="M1278.6 692.1c-6.9 10.8-13.8 22.7-20.9 35.3-11.2 21.4-22.5 46.3-34 72.7-5.1 11.7-10.3 23.7-15.6 35.8-1.2 2.9-2.5 5.7-3.8 8.6-32.4 73.9-68.4 150.2-114.4 189.2-106.4 90-396.8 143.2-396.8 143.2s122.2-42.8 168.6-67.6c-91.8 27.6-174 42.9-180.3 44-5.7 1.1-11.3-2.5-12.7-8.1-.3-.9-.4-1.9-.4-2.8 0-4.6 2.9-8.9 7.4-10.5 62.3-21.8 166.3-61.5 179.9-75.1 5.4-5.4 9.1-14.4 11.8-24.1-71.7 16.7-253.9 58.5-354.3 74.7-52.5 8.5-111.9 45.6-163.6 86.3 108.9 95 246.6 147.2 392.3 147.2 296.1 0 545.1-219.3 590.8-504.9-33.4 104.2-105 231.1-259.1 304.2-5.6 2.6-12.2.3-14.8-5.3-2.6-5.5-.3-12.2 5.3-14.8 178.8-84.8 241.5-245.9 263.5-351.6l1.5-7.2c2-10.4 3.7-20.2 5-29.2 2.9-19.9 4.2-36.1 4.9-47.6-6.6-17.7-11.6-27.2-11.6-27.2-17.2-1-33.1 12.4-48.7 34.8z"/><path fill="#97A822" d="M439.2 445.5c18.2-1.5 33.3-5.1 43.3-8.1-28.7-14.2-105.7-41.9-176.7-64.9-5.9-1.9-9-8.2-7.1-14 1.9-5.9 8.1-9.1 14-7.2 89.4 28.9 138.6 47.7 165.8 60C452.8 344 409.1 305.1 364 282.9c-48.8-24-99.1-28.7-130-28.7 11 45.3 26.3 82.8 45.9 112.4 18.4 27.7 40.5 48.5 66.4 61.9 23.7 12.2 47.8 16.8 69.6 17.6 8.1.2 15.9 0 23.3-.6zM634.4 534.5c-36.5-18-89.4-53.2-121.7-115 .4 3.5-.8 6.9-3.3 9.3 2.5 2.3 3.1 3.8 3.5 4.9 1.2 3 .8 6-.7 8.6 39.6 54.5 95.5 81.7 122.2 92.2zM764.8 436.3c-14.5-37.6-27.6-94.8-8.8-157.2 14.2-47.4 44.4-89.6 90.1-126.4 31-25 69.3-47.4 114.5-67.3-1.9-7.2-3.2-11.2-3.2-11.2-55.7 23.2-98 49-129.8 76-128.3 108.4-87.2 235.4-62.8 286.1zM608.2 161.8c-18.6-20.5-36.8-36.7-51.3-48.3-12.2 25.5-22.3 50.1-30 73.9-13.2 40.4-20.1 78.3-20.1 113.3 0 34.4 6.3 66.1 19 95 34.5 78.9 108.4 115.7 139.9 128.2l5.5-5.5c68.9-164 1-286-63-356.6zm49 339.9c-18.8-18.8-82-210.1-100.9-268.3-1.9-5.8 1.3-12.1 7.1-14 5.8-1.9 12.1 1.3 14 7.1C609.9 326.4 661 473 673 486c4.1 4.5 4 11.5-.4 15.7-4.4 4.2-11.1 4.3-15.4 0z"/><path fill="#97A822" d="M401.7 467.4c-20.8-2.2-43.2-7.7-65.4-19.1-27.5-14.1-51.2-35.3-71-63.2-23.8-33.6-41.9-77.1-54.2-130.1-4.6.4-7.3.7-7.3.7 13.1 61.1 32.9 105.1 56 136.7 42.9 59 97.4 74.6 141.9 75zM469.8 330.4c8.4 11.2 16.1 23.6 23.1 37.4-12.9-50.3-10.6-106.7 6.9-168.9 8.9-31.6 21.9-64.7 38.7-99.2C531.3 94.6 527 92 527 92c-21.4 42.1-36.1 80.5-45.5 115.5-12.6 46.8-15.5 87.6-11.7 122.9zM972.6 187.2c.4-31.6-3.2-59.3-7-79.4-34.3 15.3-64.1 32.1-89.5 50.4-51 36.6-84.2 79-98.7 127.1-5.9 19.6-8.3 38.8-8.3 57 0 41.3 12.2 77.1 22.5 100 11.2-31.9 36.8-89.6 90.6-195.8 2.8-5.5 9.5-7.7 15-4.9s7.7 9.5 4.9 14.9c-38.2 75.4-77.2 158.6-91.1 196.8 131-69.2 160.6-181.6 161.6-266.1z"/><path opacity=".13" fill="#387167" d="M338.5 764.9l-100.1-11.1s0 124.2 116.8 131.6c0 0-42.6-70.4-16.7-120.5zM1207.8 479.5c-3.7-5.6-20.4-7.4-42.6-9.3-12.8-1.1 33-43.5 74-79.2 14.7-12.8 28.7-24.7 39.3-33.5 11.1-9.3 18.3-15.2 18.3-15.2l-19.8 9.5-49.7 23.9L917 525c37.1 16 71.7 39.3 101.3 68.8 28.4-15.9 192.9-109.2 189.5-114.3z"/><path fill="#387167" d="M1408.1 699.3c-3.2-5.2-10.1-6.8-15.3-3.6 0 0-7.4 4.6-20 12.4-2.4 1.5-4.9 3-7.6 4.7.4-13.5 0-25.6-.8-36.1-3.1-39.6-12.7-58.5-13.2-59.6-.9-1.8-2.3-3.2-4-4.2-1.4-.9-3-1.4-4.7-1.6-.2 0-.4-.1-.5-.1-48.8-2.6-91.8 80.7-141.6 177.2-6.6 12.7-13.2 25.7-20.1 38.7-31.8 19.7-61.8 38.2-85.5 52.8 3.3-9.8 6.2-20 8.4-30.9 15.6-77.5-6.4-160.6-60.3-227.8-7.7-9.6-15.9-18.6-24.4-27.2-29.7-29.6-64.3-53-101.5-69-24.8-10.7-50.8-18.1-77.2-21.8-4.6-.6-9.1-1.1-13.7-1.5-.2-.1-.5-.3-.7-.5 2-1 3.8-2.1 5.7-3.1 41-20 231.4-112.7 352.5-171.7 59.3-28.9 101.9-49.7 101.9-49.7 4-1.9 6.3-5.9 6.3-10 0-1.6-.4-3.3-1.1-4.9-2.7-5.5-9.3-7.8-14.9-5.1L1166.7 310 917.4 431.4c65.6-72.7 81.9-162.9 82.3-232.8.4-63.4-12.1-109.9-12.5-111.1-.8-3.1-3-5.6-5.9-7-2.9-1.4-6.2-1.5-9.1-.3-4 1.7-7.8 3.4-11.8 5.1-45.2 19.8-83.5 42.3-114.5 67.3-45.6 36.8-75.9 79-90.1 126.4-18.7 62.4-5.7 119.6 8.8 157.2 7.3 18.8 14.9 32.8 19.2 39.9.5 5.2 2.7 7 4.8 8.5 4 3 9.2 2.8 13 0 .3-.1.5-.2.8-.3 3.2-2.1 4.9-5.7 4.9-9.2 0-1.9-.5-3.8-1.5-5.5.6-3.6 2.3-9.2 5-16.4 13.9-38.2 52.9-121.4 91.1-196.8 2.8-5.5.6-12.2-4.9-14.9-5.5-2.8-12.2-.6-15 4.9-53.8 106.3-79.4 163.9-90.6 195.8-10.3-22.9-22.5-58.7-22.5-100 0-18.2 2.4-37.4 8.3-57 14.5-48 47.7-90.5 98.7-127.1 25.4-18.3 55.3-35.1 89.5-50.4 1.1-.5 2.2-1.1 3.4-1.6 3.5 16.1 8.8 46.1 9.5 83.3.1 3 .2 5.9.2 9 0 86.8-26.3 206.9-153.9 278.1L797.3 490c-3.7 1.8-6.1 5.5-6.3 9.6 0 1 .1 2 .3 3 .7 2.9 2.5 5.5 5.2 7 0 0 .2.1.3.2-.1.6-.4 1.2-.4 1.8-.1 4.3 2.4 8.1 6 10 1.5.8 3.1 1.3 4.9 1.4 3.9.1 7.7.3 11.5.6 1.1.7 2.1 1.3 3.2 2.1 3.2-.3 6.3-.8 9.4-.9 13.8 1.6 27.6 4.3 41.1 8.1 58.3 16.3 112.7 52.1 152.9 102.2 50.5 63 70.3 137.4 55.8 209.5-4.4 21.9-11.1 40.1-19.3 55.5-8.8 16.4-19.5 29.4-31.1 39.6-4.8 4.3-9.8 8.1-14.9 11.5-31.3 20.7-66.7 25.7-92.2 25.7-63.1.2-135.7-29.3-188.5-78.2 20.6-21.7 38.7-52.9 38.7-80.7v-.4c0-25.6-15.3-45.1-41.1-55.1-24-9.3-46.1-9.5-64.4-5.3-1.6.4-3.4.8-4.9 1.3-4.3-41.5.4-81.4 13.6-114.3 6.6-16.7 15.3-31.7 26-44.1 27.7-32.1 67-47.5 116.6-46.4 2.7.1 5.2-.1 7.9.1 16.9 1 32.8 4.2 47.8 9 73.7 23.5 125.5 88.2 151.3 148.1 1.7 4 3.3 8.3 4.9 12.7 7.6 21.6 12.8 47.5 13.1 72.8.2 20.9-2.8 41.4-10.7 58.5-.6 1.3-1.3 2.6-2 3.8-.5 1-1.1 2.1-1.6 3.1-10.1 17.5-25.3 29.5-45.5 35.7-41 12.5-101-8.4-133.1-35-35.3-29.2-68.7-93-60.4-137.7 4.1-22.2 18.5-37.6 42.7-45.8 38.7-13.1 88.7 11.2 111 41.9 9.6 13.2 19.5 46.6 13.8 70.9-2.3 9.8-7 16.6-13.8 20.1-13.1 6.8-24.5 8.2-33.8 4.1-17.9-7.9-25-33.1-25.1-33.4-1.6-5.9-7.7-9.4-13.6-7.8-5.9 1.6-9.4 7.7-7.9 13.6.4 1.5 9.8 35.7 37.5 48 15.8 7 33.7 5.4 53.1-4.7 12.7-6.6 21.4-18.6 25.2-34.7 6.9-29.4-3.4-69.8-17.4-89.1C935.6 670.1 877.2 641 827 658c-32 10.8-51.9 32.5-57.5 62.8-10.8 57.9 32.6 129.5 68.1 158.9 37.3 31 105.1 54.1 153.8 39.2 11.6-3.5 21.9-8.7 30.9-15.2.9-.6 1.7-1.3 2.6-2 11.9-9.2 21.4-21.1 28.4-35.7.3-.6.6-1.1.8-1.6 9.2-19.9 13-43.1 12.8-66.6-.1-27.1-5.3-54.8-13.4-78.6-2-5.9-4.2-11.6-6.5-16.9-27.5-63.8-82.5-132.7-161.1-159.4-17.2-5.8-35.5-9.6-54.8-10.9-.8-.1-1.5-.2-2.3-.2-14.5-.8-28.4-.3-41.6 1.4-.4.1-.8.1-1.2.1-40.8 5.6-74.9 23.4-100 52.4-16.3 18.9-28.5 42.7-36.4 69.5-18.7-34.2-88.9-56.7-170.5-66.4 4.6-47.9-13.8-94-28.1-121.7 30.1-3.9 50.9-12.6 52.6-13.4 3.7-1.6 5.8-5 6.4-8.6.8-.8 1.4-1.6 1.9-2.5 1.5-2.5 1.9-5.5.7-8.6-.4-1.1-1.1-2.6-3.5-4.9 2.5-2.4 3.7-5.8 3.3-9.3 32.3 61.8 85.2 97 121.7 115 22.1 10.9 38.2 15.6 40 16.1 5.9 1.7 12-1.8 13.7-7.7.3-1 .4-2 .4-3 0-4.9-3.2-9.3-8.1-10.7-.2-.1-5.8-1.7-14.7-5.2-31.5-12.5-105.3-49.3-139.9-128.2-12.7-28.9-19-60.6-19-95 0-35 6.8-72.9 20.1-113.3 7.7-23.7 17.8-48.4 30-73.9.8-1.7 1.5-3.4 2.4-5.2 12.8 8.9 35.5 26 59.8 51 46.1 47.4 97.7 122.9 97.7 223.2 0 40-8.2 83.9-28.2 131.5-.6 1.4-.9 2.9-.9 4.3 0 4.3 2.6 8.5 6.8 10.3 5.6 2.4 12.2-.3 14.5-5.9 70.9-168.6.4-295-65.6-368.1-41.9-46.4-82.1-71.5-83.1-72.1-2.6-1.6-5.8-2-8.8-1.2-3 .8-5.5 2.9-6.9 5.7-2.2 4.3-4.2 8.5-6.2 12.7-16.8 34.5-29.7 67.6-38.7 99.2-17.6 62.2-19.8 118.7-6.9 168.9-7-13.8-14.7-26.2-23.1-37.4-23.2-30.9-51.2-52.5-80-67.4-82-42.4-170.2-31.4-171.6-31.2-3 .4-5.8 2.1-7.6 4.6-1.8 2.5-2.4 5.7-1.8 8.7.7 3.3 1.5 6.6 2.3 9.8 12.4 53 30.5 96.5 54.2 130.1 19.8 27.9 43.5 49.1 71 63.2 22.2 11.4 44.5 17 65.4 19.1 4.5.5 9 .8 13.3 1-3.1 13.7-12.2 33.7-36.8 56-18.2 16.5-26 37.9-28.4 59.5-77.5 3.5-153 18-195.8 42.7-22.4 12.9-35.8 28.5-35.8 46.8 0 14.1 8.1 26.7 22.1 37.6.2.2.4.4.7.6-.1.2-.2.3-.2.5-.5 1.6-.7 3.3-.4 5.1.1.2.4 1.8 1 4.5 7.3 31.4 60.1 221.1 264.1 195.8 2.3-.3 4.2-1.4 5.9-2.8 1.6 3.3 3.6 6.3 6.1 9 16.1 17.9 49 23.8 76 25.4-.7.7-2.9 1.4-3.5 2.1-15.7 16.5-25.9 37.6-25.9 55.5v.5c0 12.5 5.5 23.2 12.5 31.2 4.9 5.5 11.9 9.8 19.6 12.2 13.7 4.4 28.6 3.1 42.5-1 22.7-6.7 43.5-20.8 55-29.7.3-.2.8-.5 1.1-.7 7.1 7.9 15.3 14.5 24.1 19.7-1.3.3-2.6.5-3.9.8-43.5 9-84.9 17-117.4 22.2-52.3 8.4-116.4 44.2-190.6 106.4-.9.8-1.5 1.8-2.1 2.7-1 1.6-1.8 3.4-1.8 5.3-.1 3.1 1.1 6.2 3.3 8.4 8.2 8.1 16.7 15.9 25.3 23.5 94.3 83.2 209.9 135 333.8 150.2 25.2 3.1 50.6 4.8 76.4 4.8 287.7 0 532.4-199.7 601.2-467.7 10.6-41.2 16.9-84 18.7-128 .2-5.3.6-10.5.6-15.8.2-1.7.3-3.3.5-4.9.2-2.3.5-4.5.6-6.7l15.3-9.4 25.7-15.9c5.6-3.7 7.2-10.6 4-15.8zm-513.2 298c9.7 1.1 19.4 1.7 28.9 1.7 64.9-.2 116-25.9 147.9-72.7 2.2-3.3 4.3-6.7 6.3-10.1l81-50.1c-1.8 3.2-3.5 6.4-5.3 9.5-26.7 47-55 89.8-84.7 114.9-40.7 34.5-110.1 63.6-179.3 86.2-18.8 6.2-37.6 11.9-55.9 17.1 17.9-8.3 31.9-15.9 37.5-21.5 11.1-11.1 17-29.2 20.2-45.5 2.3-11.8 3.1-22.7 3.4-29.5zm-47-9.4c-28.2 6.6-71.6 16.6-119.9 27.3 1.7-2.6 3.3-5.2 4.8-8.1 6.6-12.7 9.3-24.8 9.3-35.9 0-24.2-12.8-43.8-26-56.7.3-.2.7-.5 1-.8 36.8 35 83.4 60.6 130.8 74.2zM640.6 704c-1.8 20.3-1.4 41.4 1.3 62.8-11.5 5.9-20.9 13.1-27.8 19.3-1.8-4.5-4.1-8.6-6.6-12.4-10.1-15.9-25.5-26.9-45.4-31.1 30.6-8.5 55.8-19.5 72.2-32.9 2.3-1.9 4.5-3.8 6.3-5.7zM346.3 428.4c-25.9-13.4-48-34.1-66.4-61.9-19.6-29.5-34.9-67-45.9-112.4-.1-.5-.2-.9-.4-1.4 24.6-1.5 81.7-1.5 137.4 24.7 47.3 22.3 93.5 63.6 117.7 138.7-3-1.5-6.4-3.1-10.3-4.9-27.2-12.3-76.3-31-165.8-60-5.9-1.9-12.1 1.3-14 7.2-1.9 5.8 1.3 12.1 7.1 14 71 23 148 50.7 176.7 64.9-10 3-25.1 6.6-43.3 8.1-7.3.6-15.2.8-23.3.5-21.8-.7-45.9-5.3-69.5-17.5zM144.6 684.2c-2.7-3.7-4.2-7.4-4.2-10.8 0-4.6 2.7-9.6 7.6-14.6 22.2-23.1 94.2-47.8 201.1-52.6 1.7 36.9 15.5 69.2 16.5 71.5 2.5 5.6 9 8.2 14.6 5.8 4.2-1.8 6.7-5.9 6.7-10.2 0-.3-.2-.6-.2-.9-.1-1.2-.2-2.4-.7-3.5-.2-.5-11.6-27.4-14.2-58.1-.2-1.7-.3-3.5-.4-5.2-.1-1.6-.1-3.1-.1-4.7 0-.7-.1-1.4-.1-2.1 0-5.2.3-10.4 1-15.5 2.2-15.8 8.3-30.9 20.8-42.3 19.6-17.7 30.8-34.6 37.2-49.3 1.5-3.5 2.8-6.8 3.9-10 11.3 22.3 24.2 55.3 24.2 90.5 0 4.7-.3 9.4-.8 14.2-.6 5.8-1.6 11.7-3.1 17.6-.4 1.4-.8 2.9-1.2 4.3-5.4 18.3-15.4 36.4-32.3 52.9-2.2 2.2-3.3 5.1-3.3 8 0 .3.2.6.2.9.2 2.5 1.1 4.9 3 6.9 4.3 4.4 11.3 4.5 15.7.2 21.2-20.8 33.3-43.6 39.1-66.6 98.9 11.5 157 40.7 157 63 0 7.4-6.6 15.6-18.7 23.7-34.4 22.7-114.8 44.4-227.3 44.4-125.9 0-211.5-27-237.6-52.4-1.7-1.9-3.2-3.5-4.4-5.1zm262.9 211.7c-1.5-.5-3.1-.7-4.8-.5-24.5 3-46.6 2.7-66.5-.2-65.9-9.6-107.8-47.6-133.9-86.5-21.7-32.3-32.5-65-37.1-82.6 51.6 24.7 138.1 37.6 221.3 37.6 37.4 0 75.4-2.6 110.7-7.7-4.1 3.4-7.6 7.2-10 11.6-3.7 6.7-5.2 14.2-5.2 22 0 16.3 6.6 33.8 13.8 47.9-22.1-3.2-44.5 2.6-60.1 13-17.7 11.6-27.8 28.3-28.2 45.4zm83.7-12.1c-11.6 7.7-18.2 18.9-18.2 30.4 0 2.3.3 4.7.8 7.1.3 1.3.9 2.4 1.3 3.6-22.3-3.2-41.9-10-44.9-22.7-.2-.6-.2-1.2-.2-1.7-1.8-11.1 4.7-22.8 17.9-31.6 3.5-2.3 7.5-4.3 11.8-6 16.4-6.6 37.2-7.6 54.1 4 .4.3.9.4 1.3.7l.6.3c.8.5 1.7 1 2.6 1.2.7 2 1.4 3.9 2.2 5.8-11 .2-21.5 3.7-29.3 8.9zm97.2 111.6c-13.8 12.5-56.1 43.1-84.8 33.9-12-3.8-14.4-14.3-14.3-22.5.1-13.6 4.6-29.5 16.9-41.8-1.1 3.9-4.3 7.7-4.3 11.3v.3c0 14.2 10 25.1 22.7 29.2 21.1 6.8 45.2-6.9 57.5-16 1.9 1.8 4.5 3.5 6.6 5-.2.3 0 .4-.3.6zm5.4-27.1c-1.8-2.6-4.7-4.3-7.9-4.7-3.2-.4-6.3.7-8.7 2.8-6.8 6.2-29.4 22.7-43.3 18.2-1.5-.5-4.8-1.5-4.7-8.1.1-10.4 9-24.3 23.3-28.6 5.4-1.6 8.8-7.1 7.7-12.7-1.1-5.6-6.2-9.5-11.8-9-22.9 1.8-50.9-2.3-52.8-10.2-1.6-6.7 5.7-12.2 8-13.8 8.5-5.7 22.3-8.3 32.5-.8 4.4 3.2 10.5 2.8 14.4-1.1 3.9-3.9 4.3-10 1.1-14.4-7.7-10.5-14.4-25.2-14-33.1.1-1.4.2-2.6.8-3.5 1.2-2.1 5.2-4.4 10.4-5.6 3.6-.8 7.7-1 12-.3 7.9 1.4 17.9 6.3 20.4 21.8.7 4.4 4 7.9 8.3 9 4.3 1.1 8.9-.6 11.6-4.1.9-1.2 21.9-28.4 54.3-15.9 10.3 4 11.6 10.1 11.5 15.1-.1 16.8-18.3 39.5-29.2 43.5-3.9 1.5-6.7 5.1-7.1 9.2-.5 4.2 1.5 8.3 5 10.6 2.3 1.5 21.9 15.1 11.1 36-6.1 11.9-15.4 15-22.1 15.4-11.4.9-23.5-5.3-30.8-15.7zm17.5 36.7c4.9 1.1 9.9 1.6 14.9 1.2 17.3-1.2 31.9-11.2 40.3-27.4 4.1-8 5.8-15.6 5.8-22.6 0-12.9-5.9-23.5-12.8-31.4 12.5-10.4 22.8-27.2 26.9-43.8 1-3.9.5-7.9.5-11.7v-.2c0-16.6-8-29.3-24.6-35.7-1.6-.6-2.6-.9-4.2-1.4-26.1-8.1-47.6.9-61.9 12-5.8-10.1-14.7-17.4-26.2-20.8-1.9-.6-3.6-1.3-5.6-1.6-17.8-3.1-36 3.2-44.1 14.7-11.4-19.8-21.1-44.9-13.8-58 2.3-4.1 7.2-7.9 13.6-10.7 9.3-4.1 21.9-6.1 35-3.8 10.2 1.8 26 7.3 35.6 24.1 1.2 2 2.1 4.4 3.1 6.8 1.8 4.3 3.3 9 4.2 14.6.6 3.5 2.7 6.4 5.7 8 .8.4 1.7.8 2.6 1.1h.2c4.3 1 8.7-.6 11.4-4.2.8-1.1 10.7-13.9 27.6-24.2 4.3-2.6 9-5 14.1-7 2.2-.7 4.5-1.3 6.9-1.8 0-.2-.1-.4-.1-.6 1.8-.6 3.7-1.1 5.6-1.6 14.8-3.4 32.1-3.3 51.7 4.3 10.8 4.2 18.2 10.2 22.2 18 2.5 4.8 3.6 10.3 3.6 16.6-.1 22.2-14.8 47.6-31 65.1-5.7 6.1-11.6 11.3-17.1 14.9-3.1 2.1-6.1 3.7-8.9 4.7-3.9 1.5-6.7 5-7.1 9.2-.4 4.2 1.5 8.3 5 10.5.3.2 1.8 1.2 3.9 2.8 4.5 3.5 11.8 10.2 17.5 19.6 7.8 12.8 12.3 30.6 1.2 52.2-7 13.7-17.4 23.2-29.9 28.1-5.6 1.2-11.3 2.5-16.9 3.7-19.8 1-40.4-8-54.9-23.7zm727.5-320.6c-.6 11.5-2 27.7-4.9 47.6-1.3 9.1-3 18.8-5 29.2-.5 2.3-1 4.8-1.5 7.2-22 105.7-84.7 266.8-263.5 351.6-5.6 2.6-7.9 9.3-5.3 14.8 2.6 5.6 9.3 7.9 14.8 5.3 154-73.1 225.7-200 259.1-304.2-45.8 285.5-294.7 504.9-590.8 504.9-145.6 0-283.4-52.3-392.3-147.2-6.2-5.4-12.3-10.8-18.2-16.5 66-53.7 124.6-86.1 169.9-93.4 42.5-6.9 99.9-18.4 157.5-30.6 3.4-.7 6.8-1.4 10.2-2.2 5.3-.4 10.3-1.4 15.1-2.7 2-.6 4-1.1 6-1.8 78.5-17.1 152.1-34.2 182.1-41.2-.8 8.3-2.2 18.2-4.7 27.4-2.6 9.8-6.4 18.7-11.8 24.1-13.6 13.6-117.6 53.3-179.9 75.1-4.5 1.6-7.4 5.9-7.4 10.5 0 .9.1 1.9.4 2.8 1.5 5.6 7 9.1 12.7 8.1 6.3-1.2 88.5-16.4 180.3-44 81.7-24.5 171.1-58.8 221.7-101.6 39.9-33.8 75.1-92.6 108.7-155.6 1.6-3.1 3.3-6.2 4.9-9.3l11.1-6.9c5.3-12.1 10.5-24.1 15.6-35.8-2.2 1.4-4.4 2.7-6.6 4.1 1-1.9 1.9-3.8 2.9-5.6 12.6-24.3 25.2-48.8 37.7-71.2 7-12.6 14-24.4 20.9-35.3 19.7-31 38.6-53.3 55.5-57.3 1.8 5.6 4.2 14.5 6 26.8-.5 1.4-.8 2.8-.8 4.4.2.6.3 7.2-.4 18.5z"/><path fill="#387167" d="M407.4 642.6c-4.1 0-9.3 3.3-9.5 7.4 0 .1-1.9.2-1.9.3v28.6c0 4.3 5.2 7.7 9.5 7.7 4.2 0 9.5-3.4 9.5-7.7v-28.6c0-.6-.2-1-.3-1.6-.7-3.5-3.6-6.1-7.3-6.1zM673 486c-11.9-13-63-159.6-95.5-259.5-1.9-5.9-8.2-9-14-7.1-5.8 1.9-9 8.2-7.1 14 18.9 58.2 82.1 249.5 100.9 268.3 4.3 4.3 11 4.2 15.4 0 4.3-4.2 4.4-11.3.3-15.7z"/></svg>