<svg xmlns:xlink="http://www.w3.org/1999/xlink"  xmlns="http://www.w3.org/2000/svg" viewBox="0 0 150 150"><path fill="#1B75BB" d="M78.1 51.2c4.2 0 11-1.8 21.7-15.8-3.8-2.2-7.9-3.9-12.3-5 1.6 2.1 2.6 4.7 2.6 7.6 0 6.9-5.6 12.5-12.5 12.5S65.1 44.9 65.1 38c0-3.2 1.2-6.1 3.2-8.3-8.1 1.4-15.5 4.8-21.7 9.8 6.1 2.9 17 8 23.7 10.2 2.5.7 5.1 1.5 7.8 1.5zM116.6 81.1c2.1 1.7 3.9 3.2 5.5 4.6.7-3.1 1-6.4 1-9.7 0-12.2-4.6-23.3-12.2-31.6-.9 2-1.8 4-2.5 5.8-5.7 14.1-3.9 21 8.2 30.9zM101.2 89.1c-.8-.4-1.6-.7-2.4-1.1 7.1 5.9 13.8 10.8 17 13 .8-1.3 1.6-2.7 2.3-4.1-5.2-2.3-11.6-5.3-16.9-7.8zM42.9 100.8c.5-1.2 1-2.4 1.4-3.6.5-1.3.9-2.5 1.2-3.6l1.1-4.4c.4-2.1.5-4 .4-5.8l-.9-4.3c-.7-1.9-1.8-3.7-3.3-5.6l-4.3-4.4c-1-.8-2-1.7-3.2-2.6-1.6-1.3-3.1-2.4-4.5-3.5-1.2 4.1-1.8 8.4-1.8 12.9 0 11.7 4.3 22.4 11.3 30.6.3-.6.5-1.2.8-1.8l1.8-3.9zM57.7 61.4C50.5 54.6 43.5 48.7 40 45.9c-1.5 1.8-2.9 3.7-4.1 5.7C40.7 53.7 46 56 50.6 58c2.4 1.1 4.8 2.2 7.1 3.4z"/><path fill="#29B473" d="M80.7 96.4c3 2.3 5 5.9 5 10 0 6.9-5.6 12.5-12.5 12.5s-12.5-5.6-12.5-12.5c0-1.4.3-2.8.7-4.1-3.1 3-6.6 7.2-10.6 13.1 7.3 4.7 16.1 7.5 25.4 7.5 13.4 0 25.5-5.6 34-14.6-3.6-1.6-19.1-8.8-27.8-11.4-.6-.2-1.1-.4-1.7-.5z"/><path fill="#FFF" d="M68.7 37.9c0-4.7 3.8-8.4 8.4-8.4 4.6 0 8.4 3.8 8.4 8.4s-3.8 8.4-8.4 8.4c-4.6 0-8.4-3.7-8.4-8.4z"/><path fill="#29B473" d="M67.9 66.4c12.3 13.2 32.4-19.8 32.4-19.8l-7.7 15c-7.7 15-1.3 18.5 9.9 23.8 11.2 5.2 27 12.5 27 12.5s-3-3.1-16-13.7c-13-10.5-16-19.2-9.4-35.6 6.6-16.4 21.8-43.2 21.8-43.2s-3.3 4.3-20.3 28.4c-17 24.1-27 23-37 19.7-10.1-3.3-28.8-12.6-28.8-12.6s15.8 12.3 28.1 25.5z"/><path fill="#29B473" d="M85.6 37.9c0-4.7-3.8-8.4-8.4-8.4-4.7 0-8.4 3.8-8.4 8.4s3.8 8.4 8.4 8.4c4.6 0 8.4-3.7 8.4-8.4z"/><path fill="#1B75BB" d="M81.1 106.3c0-4.7-3.8-8.4-8.4-8.4s-8.4 3.8-8.4 8.4c0 4.7 3.8 8.4 8.4 8.4s8.4-3.7 8.4-8.4z"/><path fill="#1B75BB" d="M83.5 80c-12.6-12.9-32 20.6-32 20.6l7.4-15.2c7.4-15.2.9-18.6-10.4-23.5C37.2 56.9 21.2 50 21.2 50s3.1 3.1 16.3 13.3c1.2 1 2.4 1.9 3.5 2.9l4.5 4.6c1.9 2.3 3.3 4.7 4.2 7.2l1 4.9c.2 2.2 0 4.6-.5 7.3l-1.1 4.6c-.4 1.3-.8 2.6-1.4 4-.4 1.2-.9 2.5-1.5 3.7l-1.6 3.9c-1.2 2.8-2.5 5.6-3.8 8.5l-1.5 3.1c-1.6 3.2-3.1 6.4-4.6 9.4l-1.1 2.2c-3.8 7.5-6.7 12.9-6.7 12.9s3.2-4.4 19.6-28.9C63 89 73 89.9 83.1 92.9c10.1 3.1 29.1 12 29.1 12S96.1 92.9 83.5 80z"/></svg>