<svg xmlns:xlink="http://www.w3.org/1999/xlink"  xmlns="http://www.w3.org/2000/svg" viewBox="0 0 1500 1500"><path fill="none" d="M1095.5 1004.5s-1-1.2-2.4-3.1c.5 1.8 1.3 3.1 2.4 3.1zM1078.2 549.9c1.2-1.7 2.5-3.4 4.1-5.1.1 0-1.7 1.8-4.1 5.1zM246.9 774.3c-.1 0-.1 0-.2.1 0-.1.1-.1.2-.1zM1328.5 941.2v-.1.1z"/><path fill="#A1D8F2" d="M1164.6 1173c.1-.1.2-.1.3-.2.9-.8 1.7-1.6 2.5-2.4-.9.9-1.8 1.7-2.8 2.6zM1005.6 694.4c-43.5-9.7-91.2-21.2-144.1-34.5-24.1 35.8-28.6 90.4 19.3 152.3 90.5 116.8 283.4 39.5 326.2-82.5-52.8-5.1-114.7-16.2-190.1-32.8-3 5-7 9.9-12.1 14.5 0 .1 1.1-6.9.8-17z"/><path fill="#A1D8F2" d="M1228 731.7c-119.7 242.8-451.7 146.2-406.2-43.5 3.2-13.2 7.6-24.8 12.3-35-24.8-6.3-50.6-12.9-77.7-19.9 1 5.9 1.9 12 2.4 18.3 5.1 71-19.7 111.9-44.4 134.8-6.5 10.5-15.4 20.6-26.9 29.8 211.3 73.1 456.7 147.4 653.9 90.7 13.1-38.7 22.7-79 28.1-120.6v-.1c1.4-10.9 2.5-21.9 3.3-33l-1.7-.1c.8-11.1-.1-22.3-.1-33.5-39 12.1-85.5 16-143 12.1z"/><path fill="#E7D7CC" d="M687.5 816.1c-2.3 1.9-4.6 3.7-7.2 5.5l-15.3-7.3c-.5-.5-3.1-3.5-6.5-8.3-26.2-9.1-51.8-18.2-76.6-26.8-49.5-17.2-98.6-25.5-145.9-27.5 21.8 20.2 41.5 49.2 44.4 89.2 3.6 49.4-13.7 77.8-30.9 93.8-5.5 8.9-13.2 17.4-23.9 24.8l-10.7-5.1c-.4-.4-2.4-2.7-5-6.5-15-12-43.4-45.2-25-116.6 9.3-36 9.8-61.7 6.8-79.7-51.8 1.9-100.9 10.8-144.8 22.5-.1 0-.1 0-.2.1-1.3.4-2.6.8-4 1.1-42.2 11.7-79.4 26-109.3 39.3 12.9 73.1 38.5 141.8 74.3 203.8.2.4.4.7.6 1.1 4.2 7.3 8.6 14.5 13.2 21.6.4.7.9 1.4 1.3 2 4.5 6.9 9.1 13.8 13.8 20.6.5.6.9 1.3 1.4 1.9 4.8 6.8 9.8 13.6 14.9 20.3.1.2.2.3.4.5 16.1 21 33.6 40.9 52.2 59.7l.9.9c5.8 5.8 11.7 11.5 17.8 17.1l.6.6c.2.1.3.3.5.4.2.2.5.4.8.7 5 4.6 10.1 9.1 15.3 13.5 1 .8 1.1 1.7 2.1 2.6.2.2-.2.3-.2.5V930.6l158 90.8V1279h-.8c.5.2.5.4 1 .6 2.4 1 4.5 2 6.8 3 2.5 1 4.8 2 7.3 3 3 1.2 5.9 2.4 8.9 3.6 2.5 1 5 2 7.6 3 .1 0 .1 0 .1.1.6.2.1.4.7.6 3.1 1.1 8.4 2.2 8.4 3.3V778.8l237 137.4v248.2c9-27.1 40.1-69 162.8-73.6 182.8-6.9 213.6-72.4 182.5-103.5-26.2-26.2-32.9 4-30.1 14.1 1.4 1.9 2.3 3.1 2.3 3.1-1.1 0-1.9-1.3-2.4-3.1-6.9-9.6-24.1-38.2 16.2-38.2 48.3 0 110.4 93.2 55.2 203.5-1.4 2.9-3.1 5.8-4.8 8.6-.8 1.5-1.7 2.9-2.7 4.3v.1c.4-.4.9-.8 1.3-1.2 2.1-1.8 4.2-3.7 6.3-5.6.9-.8 1.9-1.7 2.9-2.5 6.6-6 13.1-12 19.4-18.2 6.2-6.1 12.4-12.3 18.3-18.7.5-.5 1-1 1.4-1.5 4.9-5.2 9.6-10.5 14.2-15.8.9-1 1.8-2 2.7-3.1 1.1-1.3 2.2-2.7 3.3-4 2.1-2.5 4.2-5 6.2-7.5 1.5-1.8 3-3.5 4.4-5.3.1-.2.3-.3.4-.5 4.6-5.8 9.1-11.6 13.5-17.6 5.3-7.1 10.4-14.4 15.4-21.7v.1c2-2.9 3.9-5.9 5.8-8.8 3.2-4.9 6.4-9.9 9.5-14.9 3.2-5.1 6.3-10.3 9.4-15.6.1-.2.2-.4.3-.5 4.2-7.2 8.1-14.6 11.9-22 3.7-7 7.2-14 10.6-21.2-1.3 2.8-2.8 5.6-4.2 8.4 2.4-4.8 4.7-9.5 6.9-14.3 2.1-4.6 4.2-9.3 6.2-14.1 1.8-4.1 3.6-8.2 5.3-12.4v-.1c2.2-5.6 4.4-11.2 6.5-16.8 2.2-5.8 4.4-11.6 6.4-17.4v-.1h-.1c-197.3 56.7-442.7-17.6-654-90.7z"/><path fill="#E7D7CC" d="M1330.3 936.9c2.4-5.9 4.6-11.9 6.8-17.9-.6 1.8-1.3 3.5-2 5.2-1.6 4.3-3.2 8.5-4.8 12.7zM1314.4 973.6c1.3-2.8 2.5-5.6 3.8-8.4-.4.8-.8 1.7-1.1 2.5-.9 1.9-1.8 3.9-2.7 5.9zM1318.2 965.1c2.7-5.9 5.3-11.9 7.9-17.9-.9 2.1-1.9 4.2-2.8 6.4-1.7 3.9-3.4 7.7-5.1 11.5zM1184.9 1154.2c1.3-1.2 2.6-2.4 3.9-3.7-.6.6-1.2 1.1-1.8 1.7-.8.6-1.5 1.3-2.1 2z"/><path fill="#FFD7AE" d="M391.7 751.7c2.9 18.1 2.5 43.7-6.8 79.7-18.4 71.4 10 104.6 25 116.6-8.3-12-22.9-39-13.3-68.8 12.7-39.2 34.1-61.6 28.5-80.9 0 0 59.7 79.1 24.5 136.4 17.2-16 34.5-44.4 30.9-93.8-2.9-40-22.7-69-44.4-89.2-29.6-27.4-62.9-38.6-62.9-38.6s13.7 9.3 18.5 38.6zM605 468.2s43.6 28.9 23.7 138.4c-1.8 9.8-4 20.1-6.8 31.2-26.4 102.4 14.4 150 35.9 167.2-11.9-17.2-32.9-56-19.1-98.7 13.2-40.5 32.7-68.5 39.6-91.3 2.7-8.8 3.5-16.9 1.3-24.6 0 0 8.3 11 18.2 28.6 22 39.1 51.8 110.7 16.7 167.3 24.8-22.9 49.6-63.8 44.5-134.8-.5-6.3-1.3-12.3-2.3-18.3C735.9 512 605 468.2 605 468.2zM1210.3 719.2c-1 3.6-2.1 7.1-3.3 10.5-42.7 121.9-235.7 199.3-326.2 82.5-47.9-61.8-43.4-116.4-19.3-152.3 22.7-33.8 62.8-51 92.9-41.6 43.1 13.5 50.6 53.1 51.2 76 .3 10.1-.8 17-.8 17 5.1-4.6 9.1-9.5 12.1-14.5 43.9-72.8-123-174.7-182.4-43.8-4.6 10.3-8.7 21.8-11.9 35-45.5 189.7 287.3 286.3 407 43.5 2.6-5.4 5.3-10.7 7.8-16.4 89.1-208.9-1.9-373.8-43.6-433.4 60 91.3 60.5 185.5 36.3 255.3 5.6 66.1-4.9 127.7-19.8 182.2z"/><path fill="none" d="M306.3 1147.2c1.4 1.4 2.8 2.9 4.3 4.3"/><path fill="#FFC1C7" d="M1282 1032.9c0-.1.1-.2.2-.2 2.1-3.4 4.1-6.8 6.2-10.2 1-1.8 2.1-3.5 3.1-5.2-3 5.3-6.2 10.4-9.4 15.6 0-.1 0 0-.1 0zM628.7 606.7C648.6 497.1 605 468.2 605 468.2s130.9 43.7 151.6 165c27 7 53.1 13.6 77.9 19.9 59.4-130.9 226.3-29.1 182.4 43.8 75.3 16.6 137.3 27.7 190.1 32.8 1.2-3.5 2.4-7 3.3-10.5 14.9-54.5 25.5-116.1 19.9-182-26.9 77.3-84.1 124.7-124.5 104.4-63.1-31.6-38.9-75.9-27.7-91.4-37.7 55.8 141.5 101.8 66.5-52.1-77.5-158.9-356.6-54.3-473-96.9C555.1 358.7 547.4 254 547.4 254c-316.1 53.6-395.9 308.7-415.9 443.4 98.4-59.3 264.9-123.7 497.2-90.7zm453.7-61.9c-1.6 1.7-2.9 3.4-4.1 5.1 2.3-3.3 4.1-5.1 4.1-5.1z"/><path fill="#FFC1C7" d="M697.7 619.1c-9.9-17.6-18.2-28.6-18.2-28.6 2.2 7.7 1.4 15.8-1.3 24.6-6.9 22.9-26.4 50.8-39.6 91.3-13.8 42.7 7.2 81.5 19.1 98.7.2.4.5.7.7 1 3.4 4.8 6 7.8 6.5 8.3l15.3 7.3c2.6-1.8 4.9-3.6 7.2-5.5 11.6-9.2 20.4-19.2 26.9-29.8 35.2-56.7 5.4-128.3-16.6-167.3zM330.6 1170.3c-1.6-1.4-3.1-2.9-4.7-4.4-.2-.2-.5-.4-.8-.7 1.8 1.7 3.7 3.4 5.5 5.1zM425.1 798.4c5.6 19.3-15.8 41.7-28.5 80.9-9.6 29.7 5 56.8 13.3 68.8 2.6 3.8 4.6 6.1 5 6.5l10.7 5.1c10.7-7.5 18.4-15.9 23.9-24.8 35.3-57.4-24.4-136.5-24.4-136.5zM954.4 618.4c-30.1-9.4-70.2 7.7-92.9 41.6 52.9 13.2 100.7 24.7 144.1 34.5-.6-23-8.1-62.6-51.2-76.1zM1341.5 906.8c13.1-38.6 22.6-79 27.9-120.6-5.4 41.7-14.9 82-28 120.6h.1zM1137.8 215.6c20.3 19.3 38.3 40 53.1 61.7 1.1 1.6 2 3.1 3 4.7 41.6 59.5 132.6 224.5 43.6 433.4-2.4 5.7-5.1 11-7.8 16.4 57.5 3.9 103.7 0 144.7-12.2.1-4.6.3-9.2.3-13.9 0-198.7-92.6-375.5-236.9-490.1zM1223.6 1113.1c3.2-3.8 6.4-7.6 9.5-11.5-2.1 2.5-4.1 5-6.2 7.5-1.1 1.3-2.2 2.7-3.3 4zM1158.3 1178.6l6.6-5.7c-.1.1-.2.1-.3.2-2.1 1.7-4.2 3.6-6.3 5.5zM323.9 1164c.3.3.6.5.8.8l-.6-.6c-.1 0-.2-.1-.2-.2zM533.4 1292.9s0-.1 0 0zM551.2 199.7c36.4-65.1 93.4-102.5 159.1-118.3-226.1 13.9-419.7 147.9-517.8 339.1 132.2-181 358.7-220.8 358.7-220.8zM533.5 1293c3.2 1 6.5 2 9.5 3.2-3-1.1-6.3-2.1-9.4-3.1h-.1z"/><path fill="none" d="M305.4 1146.2l.9.9"/><path fill="#FFC1C7" d="M1297 1007.2c1.8-3.2 3.6-6.4 5.3-9.6l1.5-3c0 .1-.1.1-.1.2-3.9 7.4-7.8 14.7-11.9 22 1.8-3.3 3.5-6.5 5.2-9.6zM1245.5 1085.9c2-2.5 3.9-5 5.9-7.6.1-.1.1-.2.2-.3 0 .1-.1.1-.1.2-4.4 5.9-8.9 11.8-13.5 17.6l7.5-9.9zM1233.7 1100.9c1.3-1.5 2.6-3 3.8-4.6-1.4 1.8-3 3.6-4.4 5.3.2-.2.4-.5.6-.7zM1208.2 1130.4c2-2.1 3.9-4.3 5.8-6.5 2.3-2.6 4.7-5.2 7-7.8-4.7 5.4-9.4 10.7-14.2 15.8.4-.5.9-1 1.4-1.5zM507.7 1282.7c.3.1.6.3.9.4-.3-.1-.6-.2-.8-.4-2.4-1-4.7-2-7.1-3 2.3 1 4.6 2 7 3zM1167.5 1170.4c-.9.8-1.7 1.6-2.5 2.4.8-.8 1.7-1.6 2.5-2.4 6-5.4 11.7-10.8 17.4-16.2.7-.7 1.4-1.3 2.1-2-6.4 6.2-12.9 12.3-19.5 18.2zM1188.7 1150.5c5.6-5.6 11.1-11.2 16.6-17-6 6.4-12.1 12.6-18.3 18.7.5-.6 1.1-1.1 1.7-1.7zM1266.9 1056.5c1.9-2.8 3.8-5.7 5.6-8.6.1-.2.2-.4.4-.6-.1.1-.2.3-.2.4-2 3-3.9 5.9-5.8 8.8zM1328.6 941.1c-.1 0-.1 0 0 0 .5-1.4 1.1-2.8 1.7-4.2 1.7-4.2 3.2-8.4 4.8-12.6-2.2 5.6-4.3 11.2-6.5 16.8zM1337 919.1c1.1-3.1 2.3-6.2 3.4-9.3.3-1 .7-1.9 1-2.9-2 5.9-4.2 11.6-6.4 17.4.7-1.8 1.4-3.5 2-5.2zM1310.1 982c1.4-2.8 2.9-5.6 4.2-8.4.9-2 1.8-3.9 2.7-5.9-2.2 4.8-4.5 9.5-6.9 14.3zM1317 967.7c.4-.8.8-1.7 1.1-2.5 1.7-3.8 3.4-7.7 5.1-11.5-2 4.6-4 9.3-6.2 14zM1323.3 953.6c.9-2.1 1.9-4.2 2.8-6.4.9-2 1.7-4.1 2.5-6.1v.1c-1.8 4.2-3.6 8.3-5.3 12.4z"/><path fill="#85D5C8" d="M881.6 1142.5c-48.9 3.7-82.1 23.8-104.8 48.3-.7.8-1.5 1.6-2.2 2.4-32.8 37-42.1 82.7-44.2 96.7-.4 2.8-.6 4.4-.6 4.4 15.6 2.3 30.4 3.8 44.8 5 .7.1 1.4.1 2.2.2 125.4 9.5 208.2-23.8 262.5-68.5 86.6-71.3 101-171.3 101-171.3-27.6 69-120.7 72.4-258.7 82.8z"/><path fill="#00B3E6" d="M847.1 1363.3c-8-6.7-15.6-12.4-22.8-17.2-11.1-7.4-21.3-12.8-30.5-16.6l-.2-.1c-6.1-2.5-11.7-4.4-16.8-5.7-.8-.2-1.5-.3-2.2-.5-22-5.3-34.5-1.3-34.5-1.3.6 3.2 1.4 6.1 2.1 9 1.2 4.7 2.4 9.2 3.8 13.5 37.7 114 162.8 67 189.2 55.6-10.5 3.3-38.3 5.2-88.1-36.7zM940.2 1397.8s-1.8.9-5 2.2c3.4-1 5-2.2 5-2.2z"/><path fill="#A1D8F2" d="M246.9 774.3c43.9-11.8 93-20.6 144.8-22.5-4.8-29.3-18.6-38.5-18.6-38.5s33.3 11.2 62.9 38.6c47.3 2 96.4 10.2 145.9 27.5 24.8 8.6 50.4 17.7 76.6 26.8-.2-.3-.5-.6-.7-1-21.5-17.2-62.3-64.9-35.9-167.2 2.9-11.1 5.1-21.4 6.8-31.2-232.3-33-398.8 31.4-497.2 90.7-3.3 22.1-5 41-5.8 55.2.3 3.9.5 7.9.9 11.7.3 3.2.6 6.4.9 9.5.8 7.2 1.7 14.4 2.8 21.6.3 2.3.6 4.7 1 7 .6 4.1 1.4 8.1 2.2 12.1 29.8-13.3 67.1-27.5 109.3-39.1 1.3-.4 2.6-.8 4-1.1-.1-.1 0-.1.1-.1z"/></svg>