<svg xmlns:xlink="http://www.w3.org/1999/xlink"  xmlns="http://www.w3.org/2000/svg" viewBox="0 0 150 150"><path fill-rule="evenodd" clip-rule="evenodd" fill="#2A2766" d="M93.7 141.3c-2.7-10.8 3.3-12.5 12.1-19 11.6-8.4 19.1-22.5 8.5-43.3 7.6 19.9-3.4 28.8-12.8 37.6-10.1 9.4-15.1 14.8-7.8 24.7z"/><path fill-rule="evenodd" clip-rule="evenodd" fill="#E9118D" d="M32.4 6.1c7.3 8.4 2.7 12.7-2.3 22.4C23.6 41.2 23.2 57.2 42 71c-15.7-14.4-10-27.3-5.5-39.3 4.9-13.1 6.9-20.2-4.1-25.6z"/><path fill="#CFA795" d="M73.4 46.2s-3.1-4.4-7.5-5.2c-6.2-1-7.9 3.3-7.8 4.2 0 0 1.3.1 1.1.1-.2 0 2.8-1.6 2.8-1.6l3.9-.5c0 .2 3.8.4 7.5 3z"/><path fill="#00ADD8" d="M67 43.6c-.8-.1-1.6-.1-2.4-.2h-.1c-.5.5-.8 1.3-.7 2 .2 1.4 1.5 2.3 2.9 2.2 1.4-.2 2.5-1.4 2.3-2.8 0-.2-.1-.4-.2-.6-.7-.3-1.2-.5-1.8-.6z"/><path fill="#51C8E7" d="M68.7 44.1c-.2-.1-.5-.2-.7-.2.1.1.2.2.2.4 0 0 0 .1.1.1.1.2.1.4.2.6.1.4 0 .9-.2 1.3-.1.3-.3.5-.5.6-.1.1-.2.1-.4.2-.1 0-.2.1-.3.1-.1.1-.3.1-.4.1-.1.1-.3.1-.5.1-1.3.2-2.3-1.2-2-2.4.1-.4.3-.8.6-1 .3-.2.6-.3.9-.3.1-.1.2-.2.3-.2-.5 0-1-.1-1.4-.1h-.1c-.5.5-.8 1.3-.7 2 .2 1.4 1.5 2.3 2.9 2.2 1.4-.2 2.5-1.4 2.3-2.8-.1-.3-.2-.5-.3-.7z"/><circle fill="#180C0B" cx="66.3" cy="45.3" r=".8"/><circle fill="#FEFFFF" cx="67" cy="44.9" r=".4"/><path fill="#00ADD8" d="M83.2 43.7c.8-.1 1.6-.1 2.4-.2h.1c.5.5.8 1.2.7 2-.2 1.4-1.5 2.3-2.9 2.2-1.4-.2-2.5-1.4-2.3-2.8 0-.2.1-.4.2-.6.6-.3 1.2-.5 1.8-.6z"/><path fill="#51C8E7" d="M81.4 44.2c.2-.1.5-.2.7-.2-.1.1-.2.2-.2.4 0 0 0 .1-.1.1-.1.2-.1.4-.2.6-.1.4 0 .9.2 1.3.1.3.3.5.5.6.1.1.2.1.4.2.1 0 .2.1.3.1.1.1.3.1.4.1.1.1.3.1.5.1 1.3.2 2.3-1.2 2-2.4-.1-.4-.3-.8-.6-1-.3-.2-.6-.3-.9-.3-.1-.1-.2-.2-.3-.2.5 0 1-.1 1.4-.1h.1c.5.5.8 1.2.7 2-.2 1.4-1.5 2.3-2.9 2.2-1.4-.2-2.5-1.4-2.3-2.8.2-.3.2-.5.3-.7z"/><circle fill="#180C0B" cx="83.8" cy="45.4" r=".8"/><circle fill="#FEFFFF" cx="83.1" cy="45.1" r=".4"/><path fill="#180C0B" d="M73.4 46.2s-4.1-5-10.5-3.3c-1.5.4-4.1 1.2-5.7 1.6 0 0 2.9 3.1 6.3 3.1 0 0-1.3-.3-2.2-.8-.9-.5-1.3-1.2-1.3-1.2s5.5-4.1 13.4.6z"/><path fill="#333" d="M73.2 41s.3-.3.1-1.1c-.3-1.2-1.2-1.6-1.2-1.6s-7.6-4.3-15.6-2l-1 .7c.1-.1 9.3-3.1 17.7 4z"/><path fill="#CFA795" d="M76.4 46.2s3.1-4.4 7.5-5.2c6.2-1 7.9 3.3 7.8 4.2 0 0-1.3.1-1.1.1.2 0-2.8-1.6-2.8-1.6l-3.9-.5c0 .2-3.8.4-7.5 3z"/><path fill="#180C0B" d="M76.4 46.2s4.1-5 10.5-3.3c1.5.4 4.1 1.2 5.7 1.6 0 0-2.9 3.1-6.3 3.1 0 0 1.3-.3 2.2-.8.9-.5 1.3-1.2 1.3-1.2s-5.5-4.1-13.4.6z"/><path fill="#333" d="M76.6 41s-.3-.3-.1-1.1c.3-1.2 1.1-1.6 1.1-1.6s7.6-4.3 15.6-2l1 .7c0-.1-9.2-3.1-17.6 4z"/><path fill-rule="evenodd" clip-rule="evenodd" fill="#2A2766" d="M91.5 143.9c-13.7-10.3-6.7-24.7 6.9-35.7 15-12.2 19.1-36.4.8-62.2 14.3 25.5 4.1 42.6-7.6 55.5-12.9 14.2-22.9 34-.1 42.4z"/><path fill-rule="evenodd" clip-rule="evenodd" fill="#2A2766" d="M61.7 110.8C57 128.3 66.6 146.1 85 147c-11.1-4.3-18.7-14.2-15.7-25.6C74 104.2 87 98.3 93.9 85.2c8.7-16.7 9.4-43.6-10.6-70.4 13.3 22.3 11.5 41 2.7 58.1-6.9 13.1-19.6 20.6-24.3 37.9z"/><g opacity=".75"><g fill="#D21E4A"><path d="M83.6 65.4l-5-.4c-.1.2-.3.3-.5.4-1 .6-2.8.7-2.8.7s-1.9-.1-2.8-.7c-.2-.1-.4-.2-.5-.4l-5 .4.1.1c.4.4 2.9 2.9 5 4 0 0 1.2.7 3.2-.1 2 .8 3.2.1 3.2.1 2.2-1.2 4.8-3.9 5.1-4.1z"/><path d="M72.5 65.4c1.5-.1 2.7-.3 2.7-.3s1.3.2 2.9.3c.2-.1 5.5-.1 5.5-.1.4-.1.8-.1 1.1-.2 0 0-2.5-.1-4.4-1.2-1.7-1-3.4-2.2-5.1-1.1-1.7-1.1-3.4.1-5.1 1.1-1.9 1.2-4.4 1.2-4.4 1.2.4.1.9.2 1.4.3l-.1-.1s5.3 0 5.5.1z"/></g></g><path fill-rule="evenodd" clip-rule="evenodd" fill="#E9118D" d="M33.2 2.6c16.9 3 17.1 19 10 34.9-7.9 17.7-.7 41.1 27.4 55.9-24.3-16.3-22.9-36.2-18.2-53C57.3 22.1 57.3-.1 33.2 2.6z"/></svg>