<svg xmlns:xlink="http://www.w3.org/1999/xlink"  xmlns="http://www.w3.org/2000/svg" viewBox="0 0 150 150"><path fill="#43B98A" d="M109.5 72.7c.6.7 2 2.5 2.5 3.5-.6 1-1.5 2.5-2.5 3.5-1.1-.7-3.3-2.4-5.7-3.5.5-.2 3.8-1.9 5.7-3.5z"/><path fill="#004D5C" d="M100.4 77.8c1.3.6 4.9 2.2 7 3.9-1.1.8-5.6 4.2-13.4 4.3-7.4-.3-11.7-2.4-16.2-6.7 3.3.8 11.8 2.9 22.6-1.5zM100.4 74.7c1.3-.6 4.9-2.2 7-3.9-1.1-.8-5.6-4.2-13.4-4.3-7.4.3-11.7 2.4-16.2 6.7 3.3-.8 11.8-3 22.6 1.5z"/><path fill="#43B98A" d="M43.5 79.7c-.6-.7-1.9-2.5-2.5-3.5.6-1 1.5-2.5 2.5-3.5 1.1.7 3.3 2.4 5.7 3.5-.5.3-3.8 2-5.7 3.5z"/><path fill="#004D5C" d="M52.6 74.7c-1.3-.6-4.9-2.2-7-3.9 1.1-.8 5.6-4.2 13.4-4.3 7.4.3 11.7 2.4 16.2 6.7-3.3-.8-11.8-3-22.6 1.5zM52.6 77.8c-1.3.6-4.9 2.2-7 3.9 1.1.8 5.6 4.2 13.4 4.3 7.4-.3 11.7-2.4 16.2-6.7-3.3.8-11.8 2.9-22.6-1.5z"/><g><path fill="#43B98A" d="M80 114.2c-.7.6-2.5 1.9-3.5 2.5-1-.6-2.5-1.5-3.5-2.5.7-1.1 2.4-3.3 3.5-5.7.2.5 2 3.9 3.5 5.7z"/><path fill="#004D5C" d="M74.9 105.1c-.6 1.3-2.2 4.9-3.9 7-.8-1.1-4.2-5.6-4.3-13.4.2-7.4 2.4-11.7 6.7-16.2-.8 3.3-2.9 11.8 1.5 22.6zM78.1 105.1c.6 1.3 2.2 4.9 3.9 7 .8-1.1 4.2-5.6 4.3-13.4-.3-7.4-2.4-11.7-6.7-16.2.7 3.3 2.9 11.8-1.5 22.6z"/></g><g><path fill="#43B98A" d="M73 38.2c.7-.6 2.5-1.9 3.5-2.5 1 .6 2.4 1.5 3.5 2.5-.8 1.1-2.4 3.3-3.5 5.7-.3-.4-2-3.8-3.5-5.7z"/><path fill="#004D5C" d="M78.1 47.4c.6-1.3 2.2-4.9 3.9-7 .8 1.1 4.2 5.6 4.3 13.4-.3 7.4-2.4 11.7-6.7 16.2.7-3.3 2.9-11.8-1.5-22.6zM74.9 47.4c-.6-1.3-2.2-4.9-3.9-7-.8 1.1-4.2 5.6-4.3 13.4.2 7.3 2.4 11.7 6.7 16.2-.8-3.3-2.9-11.8 1.5-22.6z"/></g><path fill="#004D5C" d="M76.2 22.8c-14.7 0-28 6-37.6 15.6C29 48.1 23 61.4 23 76s6 28 15.6 37.6c10 10 23.5 15.6 37.6 15.6 14.7 0 28-6 37.6-15.6 9.7-9.7 15.6-23 15.6-37.6s-6-28-15.6-37.6c-9.6-9.6-22.9-15.6-37.6-15.6zm0 105.6c-28.8 0-52.3-23.5-52.3-52.3s23.5-52.3 52.3-52.3c28.8 0 52.3 23.5 52.3 52.3s-23.5 52.3-52.3 52.3z"/><path fill="#004D5C" d="M134.4 81.3h-.2V81h.2c2.7 0 4.9-2.2 4.9-4.9s-2.2-4.9-4.9-4.9h-.2v-.3h.2c2.7-.5 4.5-3 4-5.7s-3-4.5-5.7-4h-.2c0-.1 0-.2-.1-.3.1 0 .1 0 .2-.1 2.6-.9 3.9-3.8 3-6.3-.9-2.6-3.8-3.9-6.3-3-.1 0-.1 0-.2.1l-.1-.2c.1 0 .1-.1.2-.1 2.4-1.4 3.2-4.4 1.8-6.8-1.4-2.4-4.4-3.2-6.8-1.8-.1 0-.1.1-.2.1l-.2-.2c.1 0 .1-.1.2-.1 2.1-1.8 2.4-4.9.6-7-1.8-2.1-4.9-2.4-7-.6-.1.1-.1.1-.2.1l-.2-.2c.1-.1.1-.1.1-.2 1.8-2.1 1.5-5.2-.6-7-2.1-1.8-5.2-1.5-7 .6 0 .1-.1.1-.1.2l-.2-.1c0-.1.1-.1.1-.2 1.4-2.4.6-5.4-1.8-6.8-2.4-1.4-5.4-.6-6.8 1.8 0 .1-.1.1-.1.2l-.2-.1c0-.1.1-.1.1-.2.9-2.6-.4-5.4-3-6.3-2.6-.9-5.4.4-6.4 3 0 .1 0 .1-.1.2l-.3-.1v-.2c.5-2.7-1.3-5.3-4-5.7-2.7-.5-5.3 1.3-5.7 4v.2h-.3v-.2c0-2.7-2.2-4.9-4.9-4.9s-4.9 2.2-4.9 4.9v.2h-.3v-.2c-.5-2.7-3-4.5-5.7-4s-4.5 3-4 5.7v.2c-.1 0-.2 0-.3.1 0-.1 0-.1-.1-.2-.9-2.6-3.8-3.9-6.3-3-2.6.9-3.9 3.8-3 6.3 0 .1 0 .1.1.2l-.2.1c0-.1-.1-.1-.1-.2-1.4-2.4-4.4-3.2-6.8-1.8-2.4 1.4-3.2 4.4-1.8 6.8 0 .1.1.1.1.2l-.2.1c0-.1-.1-.1-.1-.2-1.8-2.1-4.9-2.4-7-.6-2.1 1.8-2.4 4.9-.6 7 .1.1.1.1.1.2l.1.3-.2-.2c-2.1-1.8-5.2-1.5-7 .6-1.8 2.1-1.5 5.2.6 7 .1 0 .1.1.2.1l-.1.2c-.1 0-.1-.1-.2-.1-2.4-1.4-5.4-.6-6.8 1.8-1.4 2.4-.5 5.4 1.8 6.8.1 0 .1.1.2.1l-.1.2c-.1 0-.1-.1-.2-.1-2.6-.9-5.4.4-6.3 3-.9 2.6.4 5.4 3 6.3.1 0 .1 0 .2.1l-.1.3h-.2c-2.7-.5-5.3 1.3-5.7 4-.5 2.7 1.3 5.3 4 5.7h.2v.3h-.2c-2.7 0-4.9 2.2-4.9 4.9s2.2 4.9 4.9 4.9h.2v.3h-.2c-2.7.5-4.5 3-4 5.7s3 4.5 5.7 4h.2c0 .1 0 .2.1.3-.1 0-.1 0-.2.1-2.6.9-3.9 3.8-3 6.3.9 2.6 3.8 3.9 6.3 3 .1 0 .1 0 .2-.1 0 .1.1.2.1.2-.1 0-.1.1-.2.1-2.4 1.4-3.2 4.4-1.8 6.8 1.4 2.4 4.4 3.2 6.8 1.8.1 0 .1-.1.2-.1l.1.2c-.1 0-.1.1-.2.1-2.1 1.8-2.4 4.9-.6 7 1.8 2.1 4.9 2.4 7 .6l.2-.2.2.2c-.1.1-.1.1-.1.2-1.8 2.1-1.5 5.2.6 7 2.1 1.8 5.2 1.5 7-.6 0-.1.1-.1.1-.2l.2.1c0 .1-.1.1-.1.2-1.4 2.4-.6 5.4 1.8 6.8 2.4 1.4 5.4.6 6.8-1.8 0-.1.1-.1.1-.2l.2.1c0 .1 0 .1-.1.2-.9 2.6.4 5.4 3 6.3 2.6.9 5.4-.4 6.3-2.9 0-.1.1-.1.1-.2l.3.1v.2c-.5 2.7 1.3 5.3 4 5.7 2.7.5 5.3-1.3 5.7-4v-.2h.3v.2c0 2.7 2.2 4.9 4.9 4.9s4.9-2.2 4.9-4.9v-.2h.3v.2c.5 2.7 3 4.5 5.7 4s4.5-3 4-5.7v-.2c.1 0 .2 0 .2-.1 0 .1.1.1.1.2.9 2.6 3.8 3.9 6.3 2.9 2.6-.9 3.9-3.8 3-6.3 0-.1-.1-.1-.1-.2.1 0 .2-.1.2-.1 0 .1.1.1.1.2 1.4 2.4 4.4 3.2 6.8 1.8 2.4-1.4 3.2-4.4 1.8-6.8 0-.1-.1-.1-.1-.2l.2-.1c0 .1.1.1.1.2 1.8 2.1 4.9 2.4 7 .6 2.1-1.8 2.4-4.9.6-7 0-.1-.1-.1-.1-.2l.2-.2.2.2c2.1 1.8 5.2 1.5 7-.6 1.8-2.1 1.5-5.2-.6-7-.1 0-.1-.1-.2-.1l.2-.2c.1 0 .1.1.2.1 2.4 1.4 5.4.6 6.8-1.8 1.4-2.4.6-5.4-1.8-6.8-.1 0-.1-.1-.2-.1l.1-.2c.1 0 .1.1.2.1 2.6.9 5.4-.4 6.3-3 .9-2.6-.4-5.4-3-6.3-.1 0-.1 0-.2-.1l.1-.3h.2c2.7.5 5.3-1.3 5.7-4 .4-2.6-1.4-5.2-4.1-5.7zm1.8-6.5c.7 0 1.2.5 1.2 1.2s-.6 1.2-1.2 1.2c-.7 0-1.2-.5-1.2-1.2-.1-.7.5-1.2 1.2-1.2zM16.3 77.5c-.7 0-1.2-.5-1.2-1.2s.5-1.2 1.2-1.2 1.2.5 1.2 1.2c0 .6-.6 1.2-1.2 1.2zm.6-10.5c-.7-.1-1.1-.8-1-1.4.1-.7.8-1.1 1.4-1 .7.1 1.1.8 1 1.4-.1.7-.7 1.1-1.4 1zm.5 20.8c-.7.1-1.3-.3-1.4-1-.1-.7.3-1.3 1-1.4.7-.1 1.3.3 1.4 1 .1.7-.3 1.3-1 1.4zm2-30.9c-.6-.2-1-.9-.7-1.6.2-.6.9-1 1.6-.7.6.2 1 .9.7 1.6-.2.6-.9.9-1.6.7zm.9 41c-.6.2-1.3-.1-1.6-.7-.2-.6.1-1.3.7-1.6.6-.2 1.3.1 1.6.7.3.6 0 1.3-.7 1.6zM127.5 45c.6-.3 1.3-.1 1.7.4.3.6.1 1.3-.4 1.7-.6.3-1.3.1-1.7-.4-.4-.6-.2-1.4.4-1.7zm-6.2-8.4c.5-.4 1.3-.4 1.7.1.4.5.4 1.3-.1 1.7-.5.4-1.3.4-1.7-.2-.5-.4-.4-1.2.1-1.6zm-7.6-7.3c.4-.5 1.2-.6 1.7-.2.5.4.6 1.2.2 1.7-.4.5-1.2.6-1.7.2-.5-.4-.6-1.1-.2-1.7zm-8.7-5.8c.3-.6 1.1-.8 1.7-.4.6.3.8 1.1.5 1.7-.3.6-1.1.8-1.7.4-.6-.3-.8-1.1-.5-1.7zm-8-4.9c.6.2 1 .9.7 1.6-.2.6-.9 1-1.6.7-.6-.2-1-.9-.7-1.6.3-.6 1-.9 1.6-.7zm-10.3-2.7c.7.1 1.1.7 1 1.4-.1.7-.8 1.1-1.4 1-.7-.1-1.1-.8-1-1.4.1-.7.8-1.2 1.4-1zm-10.6-1c.7 0 1.2.6 1.2 1.2 0 .7-.5 1.2-1.2 1.2s-1.2-.5-1.2-1.2c0-.6.5-1.2 1.2-1.2zm-10.6 1c.7-.1 1.3.3 1.4 1 .1.7-.3 1.3-1 1.4-.7.1-1.3-.3-1.4-1-.1-.7.3-1.3 1-1.4zm-10.3 2.8c.6-.2 1.3.1 1.6.7.2.6-.1 1.3-.8 1.6-.6.2-1.3-.1-1.6-.7-.2-.7.1-1.4.8-1.6zm-9.7 4.5c.6-.3 1.3-.1 1.7.5.3.6.1 1.3-.4 1.7-.6.3-1.3.1-1.7-.4-.4-.7-.1-1.5.4-1.8zm-8.7 6.1c.5-.4 1.3-.4 1.7.1.4.5.4 1.3-.2 1.7-.5.4-1.3.4-1.7-.2-.4-.4-.3-1.1.2-1.6zm-7.5 7.6c.4-.5 1.2-.6 1.7-.2.5.4.6 1.2.2 1.7-.4.5-1.2.6-1.7.1-.6-.3-.7-1.1-.2-1.6zm-6.1 8.7c.3-.6 1.1-.8 1.7-.4.6.3.8 1.1.4 1.7-.3.6-1.1.8-1.7.5-.6-.4-.8-1.2-.4-1.8zm1.8 61.6c-.6.3-1.3.1-1.7-.4-.3-.6-.1-1.3.4-1.7.6-.3 1.3-.1 1.7.4.3.7.1 1.4-.4 1.7zm6.2 8.5c-.5.4-1.3.4-1.7-.2-.4-.5-.4-1.3.2-1.7.5-.4 1.3-.4 1.7.2.3.5.3 1.2-.2 1.7zm7.5 7.2c-.4.5-1.2.6-1.7.2-.5-.4-.6-1.2-.1-1.7.4-.5 1.2-.6 1.7-.2.5.4.5 1.2.1 1.7zm8.7 5.8c-.3.6-1.1.8-1.7.4-.6-.3-.8-1.1-.4-1.7.3-.6 1.1-.8 1.7-.4.5.4.7 1.1.4 1.7zm8 4.9c-.6-.2-1-.9-.7-1.6.2-.6.9-1 1.6-.7.6.2 1 .9.7 1.6-.3.6-1 1-1.6.7zm10.3 2.8c-.7-.1-1.1-.7-1-1.4.1-.7.8-1.1 1.4-1 .7.1 1.1.8 1 1.4-.1.7-.7 1.1-1.4 1zm10.6.9c-.7 0-1.2-.6-1.2-1.2 0-.7.5-1.2 1.2-1.2s1.2.5 1.2 1.2c0 .6-.5 1.2-1.2 1.2zm10.6-1c-.7.1-1.3-.3-1.4-1-.1-.7.3-1.3 1-1.4.7-.1 1.3.3 1.4 1 .2.7-.3 1.3-1 1.4zm10.3-2.7c-.6.2-1.3-.1-1.6-.7-.2-.6.1-1.3.7-1.6.6-.2 1.3.1 1.6.7.3.6 0 1.3-.7 1.6zm9.7-4.6c-.6.3-1.3.1-1.7-.4-.3-.6-.1-1.3.4-1.7.6-.3 1.3-.1 1.7.4.4.7.2 1.4-.4 1.7zm8.7-6.1c-.5.4-1.3.4-1.7-.1-.4-.5-.4-1.3.2-1.7.5-.4 1.3-.4 1.7.2.4.4.3 1.2-.2 1.6zm7.6-7.5c-.4.5-1.2.6-1.7.2-.5-.4-.6-1.2-.2-1.7.4-.5 1.2-.6 1.7-.2.5.4.6 1.1.2 1.7zm6-8.8c-.3.6-1.1.8-1.7.4-.6-.3-.8-1.1-.4-1.7.3-.6 1.1-.8 1.7-.5.6.5.8 1.2.4 1.8zm-14.4 8.1c-9.9 9.9-23.5 16-38.6 16-15 0-28.7-6.1-38.6-16-9.9-9.9-16-23.5-16-38.6 0-15 6.1-28.7 16-38.6 9.9-9.9 23.5-16 38.6-16 15 0 28.7 6.1 38.6 16 9.9 9.9 16 23.5 16 38.6 0 15.1-6.1 28.7-16 38.6zm17.3-60.3c.6-.2 1.3.1 1.6.7.2.6-.1 1.3-.7 1.6-.6.2-1.3-.1-1.6-.7-.3-.7.1-1.4.7-1.6zm.9 41c.6.2 1 .9.7 1.6-.2.6-.9 1-1.6.7-.6-.2-1-.9-.7-1.6.3-.6 1-1 1.6-.7zm2-31c.7-.1 1.3.3 1.4 1 .1.7-.3 1.3-1 1.4-.7.1-1.3-.3-1.4-1-.1-.7.4-1.3 1-1.4zm.1 23.2c-.7-.1-1.1-.7-1-1.4.1-.7.8-1.1 1.4-1 .7.1 1.1.8 1 1.4-.1.7-.8 1.1-1.4 1z"/><path fill="#43B98A" d="M76.2 22c-29.8 0-54.1 24.3-54.1 54.1s24.3 54.1 54.1 54.1 54.1-24.3 54.1-54.1S106 22 76.2 22zm37.8 91.9c-9.7 9.7-23 15.7-37.7 15.7-14.7 0-28.1-6-37.7-15.7-9.7-9.7-15.7-23-15.7-37.7 0-14.7 6-28.1 15.7-37.7 9.7-9.7 23-15.7 37.7-15.7 14.7 0 28.1 6 37.7 15.7 9.7 9.7 15.7 23 15.7 37.7-.1 14.6-6.1 28-15.7 37.7z"/></svg>