<svg xmlns:xlink="http://www.w3.org/1999/xlink"  xmlns="http://www.w3.org/2000/svg" viewBox="0 0 1500 1500"><radialGradient id="a" cx="757.082" cy="766.071" r="640.713" gradientUnits="userSpaceOnUse"><stop offset=".348" stop-color="#fffffe"/><stop offset="1" stop-color="#ffaf3a"/></radialGradient><path fill="url(#a)" d="M164.6 1010.2c1.7 4.2 3.5 8.3 5.3 12.4-1.8-4.1-3.5-8.3-5.2-12.5l-.1.1z"/><radialGradient id="b" cx="757.082" cy="766.071" r="640.713" gradientUnits="userSpaceOnUse"><stop offset=".348" stop-color="#fffffe"/><stop offset="1" stop-color="#ffaf3a"/></radialGradient><path fill="url(#b)" d="M133.2 911.5c-1.7-7.5-3.4-15-4.9-22.6 1.4 7.6 3.1 15.1 4.9 22.6z"/><radialGradient id="c" cx="757.082" cy="766.071" r="640.713" gradientUnits="userSpaceOnUse"><stop offset=".348" stop-color="#fffffe"/><stop offset="1" stop-color="#ffaf3a"/></radialGradient><path fill="url(#c)" d="M140.4 939.6c-2-7-3.9-14.1-5.6-21.3 1.7 7.2 3.6 14.3 5.6 21.3z"/><radialGradient id="d" cx="757.082" cy="766.071" r="640.713" gradientUnits="userSpaceOnUse"><stop offset=".348" stop-color="#fffffe"/><stop offset="1" stop-color="#ffaf3a"/></radialGradient><path fill="url(#d)" d="M694.3 1403.7c-4.1-.4-8.2-.9-12.3-1.4 4.1.4 8.2 1 12.3 1.4z"/><radialGradient id="e" cx="757.082" cy="766.071" r="640.713" gradientUnits="userSpaceOnUse"><stop offset=".348" stop-color="#fffffe"/><stop offset="1" stop-color="#ffaf3a"/></radialGradient><path fill="url(#e)" d="M182.3 1049.3z"/><radialGradient id="f" cx="757.082" cy="766.071" r="640.713" gradientUnits="userSpaceOnUse"><stop offset=".348" stop-color="#fffffe"/><stop offset="1" stop-color="#ffaf3a"/></radialGradient><path fill="url(#f)" d="M574.1 1380.1c-4.4-1.3-8.7-2.6-13-4 4.3 1.4 8.7 2.7 13 4z"/><radialGradient id="g" cx="757.09" cy="766.071" r="640.717" gradientUnits="userSpaceOnUse"><stop offset=".348" stop-color="#fffffe"/><stop offset="1" stop-color="#ffaf3a"/></radialGradient><path fill="url(#g)" d="M382 789c-44.5-57.9-56.5-117.1-56.5-117.1 66.9-11.8 123.8-8.5 171.7 4-18.1-77.4-13-145.7-13-145.7 74.4 19.8 128.8 49.1 168.5 82.7 23.1-93.4 77.6-167.3 77.6-167.3 61.1 67.9 93 130.5 106.8 185.9 40.7-41.3 100.7-78 188.7-101.3 0 0 5 68.3-13.1 145.7 47.9-12.4 104.7-15.8 171.7-4 0 0-18.9 93.9-98.3 161 26.9-21.5 51.1-49.6 70.1-86.5 14.4-21.6 63.1-2.1 67.8 37.2.2.9 2.1 1.9 2.1 2.9v.2c0 1.1-1.6 2.3-1.7 3.4 0 4.9-1.3 10-2.7 15.3-14 53.4 50.2 11.2 55.8 78.7 0 33.4 15.3 35.8 23.2 34.8 52.9-30.5 86.1-77.7 97-140-1 50.8-8.1 100.1-20.3 147.4.2-.4.4-.7.6-1.1 13-50.9 19.9-104.1 19.9-159 0-353.9-286.9-640.7-640.7-640.7-353.9 0-640.7 286.9-640.7 640.7 0 40.3 3.9 79.7 11 118-1.5-8.3-3-16.6-4.2-24.9 46.3-29.6 132.5-69.7 258.7-70.3z"/><radialGradient id="h" cx="757.082" cy="766.071" r="640.713" gradientUnits="userSpaceOnUse"><stop offset=".348" stop-color="#fffffe"/><stop offset="1" stop-color="#ffaf3a"/></radialGradient><path fill="url(#h)" d="M545.4 1370.8c-4.3-1.5-8.6-3-12.8-4.6 4.2 1.6 8.5 3.1 12.8 4.6z"/><radialGradient id="i" cx="757.082" cy="766.071" r="640.713" gradientUnits="userSpaceOnUse"><stop offset=".348" stop-color="#fffffe"/><stop offset="1" stop-color="#ffaf3a"/></radialGradient><path fill="url(#i)" d="M603.4 1388.1c-4.4-1.1-8.8-2.2-13.2-3.4 4.4 1.2 8.8 2.3 13.2 3.4z"/><radialGradient id="j" cx="757.082" cy="766.071" r="640.713" gradientUnits="userSpaceOnUse"><stop offset=".348" stop-color="#fffffe"/><stop offset="1" stop-color="#ffaf3a"/></radialGradient><path fill="url(#j)" d="M787.2 893.4c6.1 2.1 12.1 4.2 18.1 6.3-5.6-2-11.4-4.3-17.1-6.4-.4 0-.7 0-1 .1z"/><radialGradient id="k" cx="757.082" cy="766.071" r="640.713" gradientUnits="userSpaceOnUse"><stop offset=".348" stop-color="#fffffe"/><stop offset="1" stop-color="#ffaf3a"/></radialGradient><path fill="url(#k)" d="M195.9 1075.3z"/><radialGradient id="l" cx="757.082" cy="766.071" r="640.713" gradientUnits="userSpaceOnUse"><stop offset=".348" stop-color="#fffffe"/><stop offset="1" stop-color="#ffaf3a"/></radialGradient><path fill="url(#l)" d="M799.5 891.9c12.6 1.9 28.7 3.8 47.4 4.9-12.9-1.3-26.3-3.3-40.2-5.8-2.3.3-4.8.5-7.2.9z"/><radialGradient id="m" cx="757.082" cy="766.071" r="640.713" gradientUnits="userSpaceOnUse"><stop offset=".348" stop-color="#fffffe"/><stop offset="1" stop-color="#ffaf3a"/></radialGradient><path fill="url(#m)" d="M517.2 1360.2c-4.2-1.7-8.4-3.3-12.5-5.1 4.1 1.8 8.3 3.4 12.5 5.1z"/><radialGradient id="n" cx="757.082" cy="766.071" r="640.713" gradientUnits="userSpaceOnUse"><stop offset=".348" stop-color="#fffffe"/><stop offset="1" stop-color="#ffaf3a"/></radialGradient><path fill="url(#n)" d="M401.6 1299.1c-4.4-2.9-8.7-6-13-9.1 4.3 3.1 8.6 6.2 13 9.1z"/><radialGradient id="o" cx="757.082" cy="766.071" r="640.713" gradientUnits="userSpaceOnUse"><stop offset=".348" stop-color="#fffffe"/><stop offset="1" stop-color="#ffaf3a"/></radialGradient><path fill="url(#o)" d="M377.6 1282.3c-4.4-3.2-8.7-6.6-12.9-9.9 4.3 3.3 8.5 6.6 12.9 9.9z"/><radialGradient id="p" cx="757.082" cy="766.071" r="640.713" gradientUnits="userSpaceOnUse"><stop offset=".348" stop-color="#fffffe"/><stop offset="1" stop-color="#ffaf3a"/></radialGradient><path fill="url(#p)" d="M489.4 1348.2c-4-1.8-8-3.6-11.9-5.5 3.9 1.9 8 3.6 11.9 5.5z"/><radialGradient id="q" cx="757.082" cy="766.071" r="640.713" gradientUnits="userSpaceOnUse"><stop offset=".348" stop-color="#fffffe"/><stop offset="1" stop-color="#ffaf3a"/></radialGradient><path fill="url(#q)" d="M426.3 1314.9c-4.3-2.6-8.5-5.4-12.8-8.1 4.3 2.7 8.5 5.5 12.8 8.1z"/><radialGradient id="r" cx="757.082" cy="766.071" r="640.713" gradientUnits="userSpaceOnUse"><stop offset=".348" stop-color="#fffffe"/><stop offset="1" stop-color="#ffaf3a"/></radialGradient><path fill="url(#r)" d="M311.1 1225.9c-4.2-4.1-8.3-8.2-12.4-12.3 4.1 4.1 8.2 8.2 12.4 12.3z"/><radialGradient id="s" cx="757.082" cy="766.071" r="640.713" gradientUnits="userSpaceOnUse"><stop offset=".348" stop-color="#fffffe"/><stop offset="1" stop-color="#ffaf3a"/></radialGradient><path fill="url(#s)" d="M272 1184.4c-4.2-4.9-8.4-9.7-12.4-14.7 4 5 8.2 9.8 12.4 14.7z"/><radialGradient id="t" cx="757.082" cy="766.071" r="640.713" gradientUnits="userSpaceOnUse"><stop offset=".348" stop-color="#fffffe"/><stop offset="1" stop-color="#ffaf3a"/></radialGradient><path fill="url(#t)" d="M291 1205.4c-4.2-4.4-8.3-8.8-12.3-13.3 4 4.5 8.1 8.9 12.3 13.3z"/><radialGradient id="u" cx="757.082" cy="766.071" r="640.713" gradientUnits="userSpaceOnUse"><stop offset=".348" stop-color="#fffffe"/><stop offset="1" stop-color="#ffaf3a"/></radialGradient><path fill="url(#u)" d="M354.5 1264.4c-4.3-3.5-8.6-7.1-12.8-10.7 4.3 3.6 8.5 7.2 12.8 10.7z"/><radialGradient id="v" cx="757.082" cy="766.071" r="640.713" gradientUnits="userSpaceOnUse"><stop offset=".348" stop-color="#fffffe"/><stop offset="1" stop-color="#ffaf3a"/></radialGradient><path fill="url(#v)" d="M254.6 1163.4c-4.4-5.6-8.9-11.2-13.1-17 4.3 5.8 8.7 11.4 13.1 17z"/><radialGradient id="w" cx="757.082" cy="766.071" r="640.713" gradientUnits="userSpaceOnUse"><stop offset=".348" stop-color="#fffffe"/><stop offset="1" stop-color="#ffaf3a"/></radialGradient><path fill="url(#w)" d="M332.3 1245.6c-4.2-3.8-8.4-7.6-12.6-11.5 4.2 3.9 8.4 7.7 12.6 11.5z"/><radialGradient id="x" cx="757.082" cy="766.071" r="640.713" gradientUnits="userSpaceOnUse"><stop offset=".348" stop-color="#fffffe"/><stop offset="1" stop-color="#ffaf3a"/></radialGradient><path fill="url(#x)" d="M1050.9 1335.4c-6 3.1-12 6.2-18.1 9.1 6.1-2.9 12.1-6 18.1-9.1z"/><radialGradient id="y" cx="757.082" cy="766.071" r="640.713" gradientUnits="userSpaceOnUse"><stop offset=".348" stop-color="#fffffe"/><stop offset="1" stop-color="#ffaf3a"/></radialGradient><path fill="url(#y)" d="M993.1 1361.7c-5.7 2.3-11.5 4.6-17.3 6.7 5.9-2.1 11.6-4.4 17.3-6.7z"/><radialGradient id="z" cx="757.082" cy="766.071" r="640.713" gradientUnits="userSpaceOnUse"><stop offset=".348" stop-color="#fffffe"/><stop offset="1" stop-color="#ffaf3a"/></radialGradient><path fill="url(#z)" d="M963.1 1372.7c-5.6 1.9-11.1 3.9-16.8 5.6 5.7-1.7 11.2-3.7 16.8-5.6z"/><radialGradient id="A" cx="757.082" cy="766.071" r="640.713" gradientUnits="userSpaceOnUse"><stop offset=".348" stop-color="#fffffe"/><stop offset="1" stop-color="#ffaf3a"/></radialGradient><path fill="url(#A)" d="M1022.4 1349.2c-5.9 2.7-11.7 5.4-17.7 7.9 5.9-2.5 11.8-5.2 17.7-7.9z"/><radialGradient id="B" cx="757.082" cy="766.071" r="640.713" gradientUnits="userSpaceOnUse"><stop offset=".348" stop-color="#fffffe"/><stop offset="1" stop-color="#ffaf3a"/></radialGradient><path fill="url(#B)" d="M1105.4 1303.7c-6.2 4-12.4 8-18.7 11.8 6.3-3.8 12.5-7.8 18.7-11.8z"/><radialGradient id="C" cx="757.082" cy="766.071" r="640.713" gradientUnits="userSpaceOnUse"><stop offset=".348" stop-color="#fffffe"/><stop offset="1" stop-color="#ffaf3a"/></radialGradient><path fill="url(#C)" d="M461.5 1334.5c-6.2-3.2-12.4-6.6-18.5-10 6.1 3.4 12.3 6.7 18.5 10z"/><radialGradient id="D" cx="757.082" cy="766.071" r="640.713" gradientUnits="userSpaceOnUse"><stop offset=".348" stop-color="#fffffe"/><stop offset="1" stop-color="#ffaf3a"/></radialGradient><path fill="url(#D)" d="M932.4 1382.3c-5.4 1.5-10.8 3.2-16.3 4.6 5.5-1.4 10.9-3.1 16.3-4.6z"/><radialGradient id="E" cx="757.082" cy="766.071" r="640.713" gradientUnits="userSpaceOnUse"><stop offset=".348" stop-color="#fffffe"/><stop offset="1" stop-color="#ffaf3a"/></radialGradient><path fill="url(#E)" d="M1078.6 1320.2c-6.1 3.5-12.2 7.1-18.4 10.5 6.2-3.4 12.3-7 18.4-10.5z"/><radialGradient id="F" cx="757.082" cy="766.071" r="640.713" gradientUnits="userSpaceOnUse"><stop offset=".348" stop-color="#fffffe"/><stop offset="1" stop-color="#ffaf3a"/></radialGradient><path fill="url(#F)" d="M800.9 1405.1c-3.7.3-7.4.6-11.1.8 3.8-.1 7.4-.5 11.1-.8z"/><radialGradient id="G" cx="757.082" cy="766.071" r="640.713" gradientUnits="userSpaceOnUse"><stop offset=".348" stop-color="#fffffe"/><stop offset="1" stop-color="#ffaf3a"/></radialGradient><path fill="url(#G)" d="M900.9 1390.4c-5.2 1.2-10.3 2.5-15.6 3.5 5.3-1 10.5-2.3 15.6-3.5z"/><radialGradient id="H" cx="757.082" cy="766.071" r="640.713" gradientUnits="userSpaceOnUse"><stop offset=".348" stop-color="#fffffe"/><stop offset="1" stop-color="#ffaf3a"/></radialGradient><path fill="url(#H)" d="M725.5 1406c-3.5-.2-6.9-.5-10.3-.7 3.4.2 6.8.5 10.3.7z"/><radialGradient id="I" cx="757.082" cy="766.071" r="640.713" gradientUnits="userSpaceOnUse"><stop offset=".348" stop-color="#fffffe"/><stop offset="1" stop-color="#ffaf3a"/></radialGradient><path fill="url(#I)" d="M868.8 1396.9c-4.9.9-9.8 1.8-14.7 2.6 4.9-.8 9.8-1.8 14.7-2.6z"/><radialGradient id="J" cx="757.082" cy="766.071" r="640.713" gradientUnits="userSpaceOnUse"><stop offset=".348" stop-color="#fffffe"/><stop offset="1" stop-color="#ffaf3a"/></radialGradient><path fill="url(#J)" d="M835.9 1401.8c-4.6.6-9.1 1.3-13.7 1.7 4.6-.5 9.1-1.2 13.7-1.7z"/><radialGradient id="K" cx="757.082" cy="766.071" r="640.713" gradientUnits="userSpaceOnUse"><stop offset=".348" stop-color="#fffffe"/><stop offset="1" stop-color="#ffaf3a"/></radialGradient><path fill="url(#K)" d="M1300.5 1105.3c-5.3 8.4-10.7 16.7-16.4 24.9 5.7-8.1 11.2-16.4 16.4-24.9z"/><radialGradient id="L" cx="757.082" cy="766.071" r="640.713" gradientUnits="userSpaceOnUse"><stop offset=".348" stop-color="#fffffe"/><stop offset="1" stop-color="#ffaf3a"/></radialGradient><path fill="url(#L)" d="M1112.5 1299.2c1.2-.8 2.5-1.6 3.7-2.5h-.2c-1.2.8-2.3 1.7-3.5 2.5z"/><radialGradient id="M" cx="757.082" cy="766.071" r="640.713" gradientUnits="userSpaceOnUse"><stop offset=".348" stop-color="#fffffe"/><stop offset="1" stop-color="#ffaf3a"/></radialGradient><path fill="url(#M)" d="M1300.8 1104.8c.8-1.4 1.8-2.7 2.6-4-.1.1-.2.1-.3.1-.7 1.3-1.5 2.7-2.3 3.9z"/><radialGradient id="N" cx="757.082" cy="766.071" r="640.713" gradientUnits="userSpaceOnUse"><stop offset=".348" stop-color="#fffffe"/><stop offset="1" stop-color="#ffaf3a"/></radialGradient><path fill="url(#N)" d="M1206.5 1222.6c6.3-6.2 12.4-12.6 18.5-19-6.1 6.4-12.2 12.8-18.5 19z"/><radialGradient id="O" cx="757.082" cy="766.071" r="640.713" gradientUnits="userSpaceOnUse"><stop offset=".348" stop-color="#fffffe"/><stop offset="1" stop-color="#ffaf3a"/></radialGradient><path fill="url(#O)" d="M196.3 1076c.3.5.6 1.1.9 1.6-.3-.6-.6-1.1-.9-1.6z"/><radialGradient id="P" cx="757.082" cy="766.071" r="640.713" gradientUnits="userSpaceOnUse"><stop offset=".348" stop-color="#fffffe"/><stop offset="1" stop-color="#ffaf3a"/></radialGradient><path fill="url(#P)" d="M234 1135.8c2.3 3.2 4.5 6.4 6.8 9.6-2.3-3.2-4.5-6.4-6.8-9.6z"/><radialGradient id="Q" cx="757.082" cy="766.071" r="640.713" gradientUnits="userSpaceOnUse"><stop offset=".348" stop-color="#fffffe"/><stop offset="1" stop-color="#ffaf3a"/></radialGradient><path fill="url(#Q)" d="M663.5 1399.9c-4.3-.6-8.6-1.4-12.9-2.1 4.3.7 8.6 1.5 12.9 2.1z"/><radialGradient id="R" cx="757.082" cy="766.071" r="640.713" gradientUnits="userSpaceOnUse"><stop offset=".348" stop-color="#fffffe"/><stop offset="1" stop-color="#ffaf3a"/></radialGradient><path fill="url(#R)" d="M1283.5 1131.2c-5.5 8-11.2 15.8-17.1 23.5 5.8-7.7 11.5-15.5 17.1-23.5z"/><radialGradient id="S" cx="757.082" cy="766.071" r="640.713" gradientUnits="userSpaceOnUse"><stop offset=".348" stop-color="#fffffe"/><stop offset="1" stop-color="#ffaf3a"/></radialGradient><path fill="url(#S)" d="M633.2 1394.7c-4.4-.9-8.8-1.8-13.1-2.8 4.4 1 8.7 1.9 13.1 2.8z"/><radialGradient id="T" cx="757.082" cy="766.071" r="640.713" gradientUnits="userSpaceOnUse"><stop offset=".348" stop-color="#fffffe"/><stop offset="1" stop-color="#ffaf3a"/></radialGradient><path fill="url(#T)" d="M1265.1 1156.3c-5.8 7.5-11.6 14.8-17.7 22.1 6.1-7.3 12-14.7 17.7-22.1z"/><radialGradient id="U" cx="757.082" cy="766.071" r="640.713" gradientUnits="userSpaceOnUse"><stop offset=".348" stop-color="#fffffe"/><stop offset="1" stop-color="#ffaf3a"/></radialGradient><path fill="url(#U)" d="M1245.7 1180.4c-5.9 7-12 13.9-18.2 20.6 6.2-6.7 12.2-13.6 18.2-20.6z"/><path fill="#D36874" d="M325.6 671.9S337.5 731 382.1 789c52.7-.3 112.3 6.4 178.9 23.5-33.6-40.3-52.9-90.1-63.7-136.6-48-12.5-104.8-15.8-171.7-4z"/><path fill="#DE848B" d="M652.7 612.8c-39.7-33.6-94.1-62.9-168.5-82.7 0 0-5 68.3 13 145.7 10.8 46.5 30.1 96.3 63.7 136.6 40.4 10.4 83.2 24.6 128.7 43.5 12.9 5.4 25.7 10.5 38.3 15.5-91.3-75.8-95.9-175-75.2-258.6z"/><path fill="#D36874" d="M806.7 891c13.8 2.5 27.3 4.5 40.2 5.8 66.4 3.8 163.7-3.6 239.2-63.9 79.4-67.1 98.3-161 98.3-161-66.9-11.8-123.8-8.5-171.7 4C991.4 767 938 870.8 806.7 891z"/><path fill="#DE848B" d="M771.1 886.9c-1.7-.7 9.2 2.1 28.4 5 2.4-.3 4.9-.5 7.2-.9 131.3-20.2 184.7-123.9 206-215.1 18.1-77.4 13.1-145.7 13.1-145.7-87.9 23.3-147.9 60-188.7 101.3 33.6 135.1-40.7 228.4-66.7 256l16.8 6c.3 0 .6-.1 1-.1-5.7-2.3-11.3-4.3-17.1-6.5z"/><path fill="#D36874" d="M837.1 631.4c-13.8-55.5-45.8-118-106.8-185.9 0 0-54.5 73.9-77.6 167.3-20.7 83.6-16.1 182.8 75.3 258.7 14.3 5.6 28.4 10.9 42.4 15.9 26-27.6 100.3-120.9 66.7-256z"/><path fill="#7BBAE7" d="M645.8 937c413.8 163.4 618.1 200.6 731.4-10.8 12.2-47.3 19.2-96.5 20.2-147.4-10.8 62.3-44.2 109.5-97.1 140 2.8-.3 4.6-1.1 4.6-1.1s-140.1 111-499.7-18.2c-6-2-12.1-4.1-18.1-6.3-5.6-2-11.2-3.9-16.8-6-14-5.1-28.1-10.3-42.4-15.9-12.6-5-25.4-10.1-38.3-15.5-45.5-18.9-88.3-33.1-128.7-43.5-66.6-17-126.2-23.6-178.9-23.3-126.2.6-212.5 40.7-258.8 70.2 1.2 8.4 2.7 16.7 4.2 24.9.3 1.6.6 3.3.9 4.9 1.5 7.6 3.1 15.1 4.9 22.6.5 2.3 1 4.6 1.6 6.8 1.7 7.1 3.6 14.2 5.6 21.3.6 2 1.1 4 1.7 6 79.5-43.3 255.8-106.5 503.7-8.7zM621.1 1157.1c-172.9-68.2-304.9-50-387-21.3 2.3 3.2 4.4 6.4 6.7 9.6.3.3.5.7.8 1.1 4.2 5.8 8.7 11.4 13.1 17 1.7 2.1 3.3 4.2 4.9 6.3 4 5 8.2 9.9 12.4 14.7 2.2 2.6 4.4 5.2 6.7 7.7 4 4.5 8.2 8.9 12.3 13.3 2.6 2.7 5.1 5.5 7.8 8.2 4.1 4.2 8.2 8.3 12.4 12.3 2.9 2.8 5.7 5.5 8.7 8.2 4.1 3.9 8.3 7.7 12.6 11.5 3.1 2.8 6.2 5.5 9.4 8.1 4.2 3.6 8.5 7.2 12.8 10.7 3.3 2.7 6.7 5.3 10.1 8 4.3 3.3 8.6 6.7 12.9 9.9 3.6 2.7 7.3 5.2 10.9 7.8 4.3 3 8.6 6.1 13 9.1 4 2.6 8 5.1 12 7.7 4.2 2.7 8.5 5.5 12.8 8.1 5.5 3.3 11.1 6.4 16.7 9.6 6.1 3.4 12.3 6.8 18.5 10 5.3 2.8 10.6 5.6 16 8.2 3.9 1.9 7.9 3.7 11.9 5.5 5.1 2.3 10.1 4.7 15.3 6.9 4.1 1.8 8.3 3.4 12.5 5.1 5.1 2.1 10.2 4.1 15.4 6.1 4.2 1.6 8.5 3.1 12.8 4.6 5.2 1.8 10.4 3.6 15.7 5.3 4.3 1.4 8.7 2.7 13 4 5.4 1.6 10.7 3.1 16.1 4.6 4.4 1.2 8.8 2.3 13.2 3.4 5.5 1.4 11.1 2.6 16.7 3.8 4.4 1 8.7 1.9 13.1 2.8 5.8 1.1 11.6 2.1 17.4 3.1 4.3.7 8.6 1.5 12.9 2.1 6.1.9 12.3 1.6 18.5 2.4 4.1.5 8.2 1 12.3 1.4 6.9.7 13.9 1.1 20.8 1.6 3.4.2 6.9.5 10.3.7 10.5.5 21 .8 31.6.8 11 0 21.9-.3 32.8-.8 3.7-.2 7.4-.6 11.1-.8 7.1-.5 14.2-.9 21.2-1.6 4.6-.5 9.2-1.2 13.7-1.7 6.1-.7 12.1-1.4 18.1-2.3 5-.8 9.8-1.7 14.7-2.6 5.5-1 11.1-1.8 16.6-3 5.2-1.1 10.4-2.4 15.6-3.5 5.1-1.2 10.2-2.2 15.2-3.5 5.5-1.4 10.8-3 16.3-4.6 4.6-1.3 9.3-2.5 13.9-3.9 5.7-1.7 11.2-3.7 16.8-5.6 4.2-1.4 8.5-2.8 12.7-4.3 5.8-2.1 11.5-4.4 17.3-6.7 3.8-1.5 7.7-3 11.6-4.6 6-2.5 11.8-5.2 17.7-7.9 3.5-1.6 7-3.1 10.4-4.7 6.1-2.9 12.1-6 18.1-9.1 3.1-1.6 6.2-3.1 9.3-4.8 6.2-3.4 12.3-6.9 18.4-10.5 2.7-1.6 5.5-3.1 8.1-4.7 6.3-3.8 12.5-7.8 18.7-11.8 2.3-1.5 4.7-3 7-4.5 1.2-.8 2.3-1.7 3.5-2.5-137.6-5.8-304.3-64.8-494.8-140z"/><path fill="#7BBAE7" d="M621.1 999.8c-235.7-93.1-395.6-25.4-456.3 10.3 1.7 4.2 3.4 8.4 5.2 12.5 1 2.3 2 4.5 3.1 6.8 3 6.7 6.1 13.3 9.3 19.9.9 1.7 1.8 3.5 2.7 5.2 3.5 7 7.1 14 10.9 20.8.1.2.3.5.4.7.3.5.6 1.1.9 1.6 93.5-35.9 247.5-62.6 448.6 16.8 259.6 102.5 436.7 155.2 560.6 128.2 6.3-6.2 12.5-12.6 18.5-19 .8-.9 1.7-1.7 2.5-2.6 6.2-6.7 12.3-13.6 18.2-20.6.6-.7 1.2-1.4 1.8-2 6.1-7.2 12-14.6 17.7-22.1.4-.5.8-1 1.2-1.6 5.9-7.7 11.6-15.5 17.1-23.5.2-.3.5-.7.7-1 5.6-8.2 11.1-16.4 16.4-24.9.1-.2.2-.3.3-.5.8-1.3 1.5-2.6 2.3-3.9-161.2 88.8-394.5 12.4-682.1-101.1z"/><radialGradient id="V" cx="757.082" cy="766.071" r="640.713" gradientUnits="userSpaceOnUse"><stop offset=".348" stop-color="#fffffe"/><stop offset="1" stop-color="#ffaf3a"/></radialGradient><path fill="url(#V)" d="M1277 884.1c-5.6-67.4-70.3-25.3-56.2-78.7 1.4-5.4 1.9-10.4 1.9-15.3-.3 2.7-1.2 5.3-2.8 7.8-13.1 20.6-69.3 89.9-207.9 106.8-5.6.7 106.8-22.5 174.2-125.5 10.2-24.8 32.8-12.1 36.2 4.5-4.7-39.4-51.8-58.8-66.2-37.2-18.9 36.9-43.1 65-70.1 86.5-51 43.1-127 75.1-239.2 63.9-18.7-1.1-34.8-3-47.4-4.9-3.8.5-7.4 1-11.3 1.4 5.7 2.1 11.5 4.4 17.1 6.4 222.3 74.9 394.3 77.5 495.1 19.3-8 .8-23.4-1.6-23.4-35z"/><linearGradient id="W" gradientUnits="userSpaceOnUse" x1="1044.289" y1="855.988" x2="1044.289" y2="1092.049"><stop offset="0" stop-color="#4ca950"/><stop offset="1" stop-color="#485956"/></linearGradient><path fill="url(#W)" d="M1277 884.1c-5.6-67.4-70.3-25.3-56.2-78.7 1.4-5.4 1.9-10.4 1.9-15.3-.3 2.7-1.2 5.3-2.8 7.8-13.1 20.6-69.3 89.9-207.9 106.8-5.6.7 106.8-22.5 174.2-125.5 10.2-24.8 32.8-12.1 36.2 4.5-4.7-39.4-51.8-58.8-66.2-37.2-18.9 36.9-43.1 65-70.1 86.5-51 43.1-127 75.1-239.2 63.9-18.7-1.1-34.8-3-47.4-4.9-3.8.5-7.4 1-11.3 1.4 5.7 2.1 11.5 4.4 17.1 6.4 222.3 74.9 394.3 77.5 495.1 19.3-8 .8-23.4-1.6-23.4-35z"/><radialGradient id="X" cx="1226" cy="786.585" r=".063" gradientUnits="userSpaceOnUse"><stop offset=".348" stop-color="#fffffe"/><stop offset="1" stop-color="#ffaf3a"/></radialGradient><path fill="url(#X)" d="M1226 786.5v0z"/><linearGradient id="Y" gradientUnits="userSpaceOnUse" x1="1226" y1="855.988" x2="1226" y2="1092.049"><stop offset="0" stop-color="#4ca950"/><stop offset="1" stop-color="#485956"/></linearGradient><path fill="url(#Y)" d="M1226 786.5v0z"/><path fill="#D36874" d="M846.9 896.7C959 908 1035 876 1086.1 832.9c-75.5 60.2-172.8 67.7-239.2 63.8z"/><linearGradient id="Z" gradientUnits="userSpaceOnUse" x1="966.463" y1="855.988" x2="966.463" y2="1092.049"><stop offset="0" stop-color="#4ca950"/><stop offset="1" stop-color="#485956"/></linearGradient><path fill="url(#Z)" d="M846.9 896.7C959 908 1035 876 1086.1 832.9c-75.5 60.2-172.8 67.7-239.2 63.8z"/><path fill="#DE848B" d="M771.1 886.9c5.8 2.2 11.4 4.2 17 6.3 3.9-.3 7.6-.9 11.3-1.4-19.1-2.8-30-5.6-28.3-4.9z"/><linearGradient id="aa" gradientUnits="userSpaceOnUse" x1="785.233" y1="855.988" x2="785.233" y2="1092.049"><stop offset="0" stop-color="#4ca950"/><stop offset="1" stop-color="#485956"/></linearGradient><path fill="url(#aa)" d="M771.1 886.9c5.8 2.2 11.4 4.2 17 6.3 3.9-.3 7.6-.9 11.3-1.4-19.1-2.8-30-5.6-28.3-4.9z"/><path fill="#7BBAE7" d="M805.3 899.6c359.6 129.2 499.7 18.2 499.7 18.2s-1.9.7-4.6 1.1c-100.8 58.2-272.8 55.6-495.1-19.3z"/><linearGradient id="ab" gradientUnits="userSpaceOnUse" x1="1055.181" y1="855.988" x2="1055.181" y2="1092.049"><stop offset="0" stop-color="#4ca950"/><stop offset="1" stop-color="#485956"/></linearGradient><path fill="url(#ab)" d="M805.3 899.6c359.6 129.2 499.7 18.2 499.7 18.2s-1.9.7-4.6 1.1c-100.8 58.2-272.8 55.6-495.1-19.3z"/><path fill="#A9D4A5" d="M1186.1 779.2c-67.4 103.1-179.8 126.2-174.2 125.5 138.6-16.9 194.8-86.2 207.9-106.8 1.6-2.5 4.1-5.2 4.5-7.8.1-1.1 1.7-2.3 1.7-3.4v-.2c0-1-1.9-1.9-2.1-2.9-3.3-16.5-27.6-29.2-37.8-4.4z"/></svg>