<svg xmlns:xlink="http://www.w3.org/1999/xlink"  xmlns="http://www.w3.org/2000/svg" width="100" height="100" viewBox="0 0 100 100"><path fill="#272525" d="M82.996 70.478a38.657 38.657 0 0 0 6.588-21.644c0-11.524-5.049-21.844-13.021-28.956L64.281 40.126l18.715 30.352z"/><path fill="#187DBC" d="M46.622 59.352l2.479-4.281 10.317 17.934h20.093L59.149 40.126l13.999-22.98C66.816 12.661 59.102 10 50.75 10c-2.059 0-4.065.208-6.037.516l7.139 13.297-2.705 4.239-8.938-16.565a38.717 38.717 0 0 0-13.279 6.722l13.834 23.266-20.177 31.443h18.29l-2.612 4.413H24.432c6.923 6.396 16.148 10.336 26.318 10.336 10.22 0 19.485-3.974 26.42-10.427H56.978L46.622 59.352z"/><path fill="#187DBC" d="M23.59 21.1c-7.197 7.051-11.674 16.864-11.674 27.734 0 7.515 2.171 14.51 5.868 20.457l17.852-27.998L23.59 21.1z"/></svg>