<svg xmlns:xlink="http://www.w3.org/1999/xlink"  xmlns="http://www.w3.org/2000/svg" viewBox="0 0 1000 1000"><path fill="#F8E44C" d="M340.7 220.7c-150 0-272.7 122-272.7 272.7 0 16.7 1.3 32.7 4.7 48.7 27.3-14 53.3-20.7 79.3-20.7 41.3 0 75.3 16.7 108.7 32.7 30 14.7 58 28.7 89.3 28.7 29.3 0 59.3-13.3 91.3-40l16 14.7c-44 58-86.7 85.3-134 85.3-32.7 0-63.3-12.7-96-26C192 602 156 587.3 114 587.3c-9.3 0-18 .7-27.3 2 39.3 102.7 138.7 176 254.7 176 40 0 78-8.7 112-24.7-16 2.7-32.7 4-49.3 4-68.7 0-131.3-24-191.3-72.7l10-18.7c20.7 6 41.3 8.7 63.3 8.7 75.3 0 154-34.7 230-68 29.3-12.7 59.3-26 89.3-37.3 4.7-20.7 8-42 8-64.7-.1-149.2-122.1-271.2-272.7-271.2z"/><path fill="#EEA843" d="M453.3 741.3c-34 15.3-72 24.7-112 24.7-116 0-216-73.3-254.7-176-14 2-28 6-42 12 44 121.3 160.7 207.3 296.7 207.3 90.7 0 172-38.7 230-99.3-39.3 13.3-78 25.3-118 31.3zM72.7 542C70 526 68 510 68 493.3c0-150 122-272.7 272.7-272.7s272.7 122 272.7 272.7c0 22-2.7 44-8 64.7 16-6 31.3-11.3 47.3-16 2.7-16 4-32 4-48.7 0-174-142-316-316-316s-316 142-316 316c0 25.3 3.3 50 8.7 73.3 13.3-9.9 26.6-17.9 39.3-24.6z"/><path fill="#547EBE" d="M63.3 572c16.7-4 33.3-6.7 50-6.7 46 0 86 16.7 121.3 30.7 30.7 12.7 59.3 24 88 24 15.3 0 36.7-3.3 63.3-22-12 3.3-24 5.3-36 5.3-36 0-68-15.3-98.7-30.7-30.5-15.3-62.5-30.6-99.2-30.6-28.7.7-58 10.7-88.7 30z"/><path fill="#5995CB" d="M350 604.7c12 0 24-2 36-5.3-26 18.7-47.3 22-63.3 22-28.7 0-57.3-12-88-24-35.3-14.7-75.3-30.7-121.3-30.7-16.7 0-33.3 2-50 6.7 30.7-20 60-29.3 88.7-29.3 36 0 68 15.3 99.3 30.7 30.6 13.9 62.6 29.9 98.6 29.9z"/><path fill="#547EBE" d="M604 674c66-24.7 134.7-50 205.3-50 59.3 0 114.7 18.7 167.3 56.7-66-90.7-137.3-134-221.3-134-75.3 0-154 34.7-230.7 68-78 34-158.7 70-238.7 70-6.7 0-14 0-20.7-.7 44 26.7 89.3 40 138 40 68.1-.7 135.5-25.3 200.8-50z"/><path fill="#2E5A88" d="M404 723.3c-48.7 0-94-13.3-138-40 6.7.7 13.3.7 20.7.7 80 0 160.7-35.3 238.7-70 76-32.7 154.7-67.3 230-67.3 84 0 155.3 42.7 220.7 134-52.7-38-108-56.7-167.3-56.7-70 0-138.7 25.3-205.3 50-64.8 24.7-132.2 49.3-199.5 49.3z"/></svg>