<svg xmlns:xlink="http://www.w3.org/1999/xlink"  xmlns="http://www.w3.org/2000/svg" width="100" height="100" viewBox="0 0 100 100"><path fill="#3F62A9" d="M49.187 12.204l35.686 35.687-35.687 35.687-35.687-35.687z"/><path fill="#CF4738" d="M53.562 88.244l-3.587-3.875 35.687-35.688 3.588 3.876z"/><path fill="none" d="M55.244 32.452c-.303-.749-.849-1.433-1.641-2.044-1.42-1.254-3.192-1.698-5.311-1.336-2.399.407-4.316 1.381-5.748 2.917-1.435 1.536-2.186 3.603-2.261 6.198l15.822-2.692c-.237-1.397-.525-2.408-.861-3.043z"/><path fill="#FFF" d="M48.659 55.023c-.949.162-1.958.129-3.029-.092a9.49 9.49 0 0 1-2.73-1.363c-1.401-1.154-2.261-2.658-2.579-4.519l-.187-1.62 33.565-5.714-.022-3.183c-.019-.11-.062-.36-.127-.751a91.914 91.914 0 0 1-.157-.921l-.243-1.428c-.616-3.622-1.954-6.927-4.014-9.908-2.056-2.979-4.84-5.159-8.348-6.548-3.507-1.383-7.831-1.639-12.966-.766a32.274 32.274 0 0 0-3.891.923c-1.31.395-2.478.796-3.502 1.2-2.082.927-4.145 2.144-6.185 3.642-3.913 3.311-6.769 6.789-8.561 10.431-1.033 2.019-1.792 4.074-2.267 6.165a27.84 27.84 0 0 0-.718 6.165l.282 4.698c.944 5.537 3.624 9.653 8.048 12.35 4.419 2.701 9.979 3.483 16.676 2.344a45.16 45.16 0 0 0 6.575-1.62l-1.84-11.018c-1.059.766-2.313 1.284-3.78 1.533zm-6.115-23.035c1.432-1.536 3.349-2.51 5.748-2.917 2.119-.362 3.891.082 5.311 1.336.792.611 1.338 1.295 1.641 2.044.336.635.624 1.646.861 3.042l-15.822 2.692c.075-2.594.826-4.661 2.261-6.197z"/><circle fill="#CF4738" cx="62.549" cy="57.189" r="6.736"/></svg>