<svg xmlns:xlink="http://www.w3.org/1999/xlink"  xmlns="http://www.w3.org/2000/svg" width="100" height="100" viewBox="0 0 100 100"><path fill="none" d="M59.553 49.703h7.575v-4.052l3.562 3.795 3.562 3.794-3.562 3.796-3.562 3.794v-3.95h-9.425a30.01 30.01 0 0 1-1.642 3.343c-.092.17-.189.333-.293.503a.554.554 0 0 1-.012.032c-.082.141-.169.282-.257.424.459 1.078 1.092 2.063 1.955 2.884 4.632 4.403 13.397 2.639 18.572-2.738a19.988 19.988 0 0 0 2.699-3.509c1.563-2.592 2.372-5.362 2.334-7.922-.038-2.632-.965-5.062-2.874-6.868-4.638-4.408-12.506-2.937-18.076 2.205-.182.167-.344.346-.517.518a20.501 20.501 0 0 1-.039 3.951zM47.222 65.053l1.874-10.501c.544-1.572.848-3.149.826-4.655-.038-2.632-.965-5.062-2.874-6.868-3.04-2.89-7.467-3.239-11.726-1.699-.602.143-1.19.307-1.751.519a13.58 13.58 0 0 0-4.554 2.865 15.696 15.696 0 0 0-3.535 5.005c-1.062 1.947-1.717 4.015-1.904 6.021-.088.982-.074 1.941.056 2.867.292 2.115 1.171 4.021 2.682 5.46 1.014.963 2.233 1.615 3.562 2.015 1.297.505 2.766.763 4.408.763 1.979 0 3.779-.41 5.386-1.221l-.018.675H47l.222-1.246zm-6.017-.266l.061-2.115c-1.893 1.772-4.219 2.659-6.979 2.659-2.779 0-4.949-.795-6.51-2.384s-2.341-3.651-2.341-6.186l.029-1.357.211-1.177c.605-3.419 2.065-6.226 4.381-8.419a12.078 12.078 0 0 1 4.048-2.549c1.51-.572 3.183-.86 5.016-.86.987 0 1.832.066 2.537.196.705.129 1.439.376 2.205.737 1.331.602 2.357 1.5 3.082 2.694.726 1.193 1.089 2.623 1.089 4.288v.121h-6.768c-.221-1.813-1.289-2.719-3.203-2.719-3.142 0-4.964 2.759-5.468 8.277 0 2.679 1.239 4.018 3.716 4.018.766 0 1.567-.235 2.403-.709.835-.474 1.404-1.083 1.707-1.828h-3.112l.815-4.713h9.758l-2.145 12.024h-4.532z"/><path d="M67.128 60.83l3.562-3.794 3.562-3.796-3.562-3.794-3.562-3.795v4.052h-7.575c-.092.893-.22 1.791-.421 2.695-.012.064-.032.139-.047.213-.009.032-.012.064-.021.104-.018.049-.023.097-.038.146-.015.062-.026.114-.045.176-.006.032-.015.061-.021.093-.021.065-.035.13-.053.195a1.833 1.833 0 0 1-.057.203c-.009.049-.023.089-.035.13-.012.044-.018.081-.029.122a27.343 27.343 0 0 1-1.084 3.1h9.425v3.95z"/><path d="M90.72 45.521a17.16 17.16 0 0 0-.85-3.895 15.564 15.564 0 0 0-4.042-6.329c-7.492-7.119-19.854-5.39-29.321 2.077a16.11 16.11 0 0 1 1.318 2.152c.347.68.659 1.375.906 2.099.431 1.242.714 2.55.85 3.895.007.075.006.154.013.229.173-.172.335-.351.517-.518 5.57-5.142 13.438-6.613 18.076-2.205 1.909 1.807 2.836 4.236 2.874 6.868.038 2.56-.771 5.33-2.334 7.922a20.073 20.073 0 0 1-2.699 3.509c-5.175 5.377-13.94 7.142-18.572 2.738-.863-.82-1.496-1.806-1.955-2.884-.039.064-.076.13-.117.194-.198.325-.404.642-.62.959a32.886 32.886 0 0 1-2.254 2.988 35.637 35.637 0 0 1-1.578 1.747c-.132.136-.274.257-.409.391a29.132 29.132 0 0 1-2.51 2.207 13.696 13.696 0 0 0 1.823 2.147c8.051 7.645 23.26 4.59 32.235-4.745a35.134 35.134 0 0 0 1.578-1.747c.82-.966 1.57-1.965 2.255-2.988.215-.317.422-.634.619-.959.13-.208.254-.414.375-.618a.554.554 0 0 0 .012-.032c.103-.17.2-.333.292-.503a28.719 28.719 0 0 0 2.726-6.442c.012-.041.018-.078.03-.122.012-.041.026-.081.035-.13.021-.064.041-.134.056-.203.018-.065.032-.13.054-.195.006-.032.015-.061.021-.093.018-.062.029-.113.044-.176.015-.049.021-.097.038-.146.009-.04.012-.072.021-.104.016-.074.036-.148.048-.213.515-2.344.672-4.667.445-6.875z"/><path fill="#EBB631" d="M50.931 67.07a35.637 35.637 0 0 0 1.578-1.747 32.886 32.886 0 0 0 2.254-2.988c.216-.317.422-.634.62-.959.041-.064.078-.13.117-.194.088-.142.175-.283.257-.424a.554.554 0 0 0 .012-.032c.104-.17.201-.333.293-.503a30.01 30.01 0 0 0 1.642-3.343 27.207 27.207 0 0 0 1.084-3.1c.012-.041.018-.078.029-.122.012-.041.026-.081.035-.13a2.08 2.08 0 0 0 .057-.203c.018-.065.032-.13.053-.195.006-.032.015-.061.021-.093.019-.062.03-.113.045-.176.015-.049.021-.097.038-.146.009-.04.012-.072.021-.104.015-.074.035-.148.047-.213a23.45 23.45 0 0 0 .421-2.695c.137-1.344.158-2.667.041-3.952-.007-.075-.006-.154-.013-.229a17.16 17.16 0 0 0-.85-3.895 16.044 16.044 0 0 0-.906-2.099 16.15 16.15 0 0 0-1.318-2.152 15.267 15.267 0 0 0-1.817-2.077c-8.046-7.646-21.711-5.094-31.374 3.818-3.8 3.505-6.505 7.774-8.024 12.17-.455 1.3-.8 2.608-1.039 3.912-1.177 6.373.204 12.583 4.443 16.617 7.239 6.873 20.239 5.067 29.316-2.147a28.835 28.835 0 0 0 2.51-2.207c.132-.135.275-.256.407-.392zm-9.725-.773h-1.552l.018-.675c-1.606.811-3.407 1.221-5.386 1.221-1.642 0-3.111-.258-4.408-.763-1.329-.399-2.549-1.052-3.562-2.015-1.51-1.438-2.39-3.345-2.682-5.46a12.495 12.495 0 0 1-.056-2.867c.188-2.006.842-4.073 1.904-6.021a15.692 15.692 0 0 1 3.535-5.005 13.595 13.595 0 0 1 4.554-2.865 14.303 14.303 0 0 1 1.751-.519c4.259-1.54 8.686-1.19 11.726 1.699 1.909 1.807 2.835 4.236 2.874 6.868.022 1.506-.282 3.083-.826 4.655l-1.874 10.501L47 66.297h-5.794z"/><path d="M38.123 52.763l-.815 4.713h3.112c-.302.745-.872 1.354-1.707 1.828-.836.474-1.638.709-2.403.709-2.477 0-3.716-1.339-3.716-4.018.504-5.519 2.326-8.277 5.468-8.277 1.914 0 2.981.905 3.203 2.719h6.768v-.121c0-1.665-.363-3.095-1.089-4.288-.724-1.193-1.751-2.092-3.082-2.694-.766-.361-1.5-.608-2.205-.737-.705-.13-1.55-.196-2.537-.196-1.833 0-3.505.288-5.016.86a12.078 12.078 0 0 0-4.048 2.549c-2.316 2.193-3.776 5-4.381 8.419l-.211 1.177-.029 1.357c0 2.534.78 4.597 2.341 6.186 1.561 1.589 3.731 2.384 6.51 2.384 2.76 0 5.086-.887 6.979-2.659l-.061 2.115h4.532l2.145-12.024h-9.758z"/></svg>