<svg xmlns:xlink="http://www.w3.org/1999/xlink"  xmlns="http://www.w3.org/2000/svg" width="100" height="100" viewBox="0 0 100 100"><path fill="#272525" d="M25.369 88.175V17.048h12.442v2.621l9.118-5.262-9.118-5.267v2.624h-17.72v81.691h26.838v-5.28z"/><path fill="#00ABEB" d="M75.788 17.048v71.127H63.35v-2.626l-9.12 5.269 9.12 5.261v-2.624h17.72V11.764H54.23v5.284z"/><g><path fill="#00ABEB" d="M34.938 25.582h7.921v27.58c.774-1.133 5.641-10.325 14.6-27.58h9.081v.125L52.066 53.162h5.517c4.615 0 7.562 2.062 8.833 6.182l.124 1.615v19.95h-7.879V64.692c0-1.631-.762-2.75-2.282-3.36a7.792 7.792 0 0 0-1.203-.125H42.859v19.702h-7.921V25.582z"/></g></svg>