<svg xmlns:xlink="http://www.w3.org/1999/xlink"  xmlns="http://www.w3.org/2000/svg" width="100" height="100" viewBox="0 0 100 100"><path fill="#DA802E" d="M20.683 80.125V30.043H70.77V80.125H20.683zm49.293-.791v-.787.787zm-47.708-.787h46.916V31.618H22.268v46.929z"/><path fill="#DA802E" d="M10.309 55.082l35.415-35.416 34.857 34.857-.556.559.556-.559.561.559L45.724 90.5 10.309 55.082zm2.234 0l33.18 33.18 33.184-33.18-33.183-33.176-33.181 33.176z"/><g><path fill="#78470F" d="M46.638 75.416c-1.349 0-2.66-.133-3.937-.396a27.122 27.122 0 0 1-3.67-1.037 19.475 19.475 0 0 1-3.405-1.811 23.747 23.747 0 0 1-2.979-2.34 21.155 21.155 0 0 1-2.419-2.898 21.12 21.12 0 0 1-1.889-3.324 21.212 21.212 0 0 1-1.17-3.672c-.283-1.275-.425-2.588-.425-3.936s.125-2.668.372-3.963c.25-1.293.604-2.526 1.064-3.697a18.029 18.029 0 0 1 1.729-3.404 19.645 19.645 0 0 1 2.314-2.925 16.913 16.913 0 0 1 2.818-2.447 22.663 22.663 0 0 1 3.245-1.863 20.968 20.968 0 0 1 3.697-1.17A18.756 18.756 0 0 1 46 36.108c1.382 0 2.729.133 4.042.399 1.311.267 2.552.647 3.723 1.144a17.714 17.714 0 0 1 3.352 1.756 18.739 18.739 0 0 1 5.239 5.213 19.624 19.624 0 0 1 1.781 3.297c.497 1.135.869 2.34 1.117 3.617.249 1.277.374 2.607.374 3.988 0 1.35-.125 2.67-.374 3.965a20.64 20.64 0 0 1-1.064 3.695 21.996 21.996 0 0 1-1.754 3.406c-.674 1.064-1.437 2.057-2.287 2.979s-1.783 1.746-2.793 2.473a17.507 17.507 0 0 1-3.218 1.836 18.668 18.668 0 0 1-3.591 1.145c-1.26.262-2.562.395-3.909.395zM46 72.705c1.098 0 2.128-.115 3.085-.346a10.331 10.331 0 0 0 2.66-1.037 12.913 12.913 0 0 0 2.288-1.65 10.977 10.977 0 0 0 1.86-2.182 14.517 14.517 0 0 0 1.489-2.578 20.45 20.45 0 0 0 1.063-2.928c.284-1.01.497-2.064.639-3.164.141-1.098.214-2.215.214-3.35 0-1.1-.073-2.189-.214-3.271a24.122 24.122 0 0 0-.611-3.111 16.93 16.93 0 0 0-1.038-2.847 15.76 15.76 0 0 0-1.436-2.473 13.05 13.05 0 0 0-1.809-2.048 10.996 10.996 0 0 0-2.182-1.571 10.11 10.11 0 0 0-2.526-.957 12.717 12.717 0 0 0-2.898-.318c-1.987.035-3.796.452-5.426 1.25a11.99 11.99 0 0 0-4.148 3.323c-1.171 1.385-2.067 3.042-2.686 4.975-.622 1.933-.931 4.05-.931 6.356 0 1.135.061 2.27.185 3.402.124 1.137.32 2.227.585 3.271.267 1.047.585 2.049.957 3.008.373.955.825 1.842 1.357 2.658a11.699 11.699 0 0 0 1.728 2.287c.656.674 1.384 1.25 2.181 1.729.799.479 1.667.852 2.606 1.117s1.944.418 3.008.455z"/></g></svg>