<svg xmlns:xlink="http://www.w3.org/1999/xlink"  xmlns="http://www.w3.org/2000/svg" width="100" height="100" viewBox="0 0 100 100"><path fill="#8F8EB1" d="M38.649 45.581l35.087-9.813L64.564 46.8l-25.729 6.999.054 1.899.393 2.408.098.369c.367 1.354.914 2.394 1.645 3.124l1.726 1.247 1.047.443 1.223.126 1.977-.27 22.314-6.122-1.535-5.963 23.896-29.864-32.975 7.826-9.81 2.668c-6.771 1.84-10.183 6.473-10.239 13.891z"/><path fill="#1E1E1E" d="M28.92 44.327c.642-3.379 1.666-6.345 3.052-8.917l-17.284 4.524L28.229 54.89c-.083-4.295.142-7.828.691-10.563zM41.763 72.106c-4.444.017-7.864-1.851-10.25-5.612a19.662 19.662 0 0 1-2.514-5.594 21.624 21.624 0 0 1-.554-2.862L16.088 94.163l28.55-22.277-.833.193-2.042.027zM73.393 72.858l-2.088-8.106-15.012 4.161zM38.782 27.827c1.314-.842 2.835-1.651 4.559-2.428 1.065-.468 3.233-1.167 6.508-2.103 1.028-.298 2.093-.598 3.138-.898L42.563 6.629l-7.099 23.929c1.01-1.042 2.106-1.966 3.318-2.731z"/></svg>