<svg xmlns:xlink="http://www.w3.org/1999/xlink"  xmlns="http://www.w3.org/2000/svg" viewBox="0 0 1000 1000"><path fill="#8E6350" d="M739.9 670.9l-67 23.3c-5.9 15.7-14 30.8-24.7 45-15.8 21.3-35.9 37.6-60.5 49.1-24.5 11.4-50.6 17.2-78.2 17.2-28.3 0-55.5-6.3-81.5-18.8-26-12.6-46.7-30.1-62.1-52.6-9-13.2-16-27-21.4-41.3l-63-21.9C243.8 654.2 212 623 188 581.7c1.3 59.1 6.6 106.9 16.3 142 11.3 40.3 30.6 77.2 58.1 110.6 27.4 33.4 61.9 58.9 103.6 76.3 41.6 17.4 87.8 26.2 138.7 26.2 49.4 0 91.4-6.1 125.9-18.2 34.5-12.2 65.4-30.3 92.7-54.3 27.2-24 49.1-52.5 65.7-85.6 16.5-33.1 27.3-71 32.4-113.9 2.2-16.1 3.6-39.8 4.3-69.7-23 34.8-52.1 60.9-85.8 75.8z"/><path fill="#00A84F" d="M264.6 374.7c-1.2-21.4-2.2-42.6-3.2-63.6 5 23.2 9.6 46.4 14.6 69.4 15 82.8 29.8 165.8 46.5 246.5 38.5-107.9 60.7-227.8 51.2-334.2-19.5-121.7-80.4-193.4-148.1-229.6-39.8 131.1-72.9 277.1-58 402.8 18.2 97.2 65 160.9 122.2 186.2-7-93.2-16-185.5-25.2-277.5zM795.9 63.2c-67.7 36.2-128.6 107.9-148.1 229.7-9.6 106.4 12.7 226.2 51.2 334.1 16.7-80.7 31.4-163.7 46.5-246.5 5-23 9.7-46.2 14.6-69.4-1.1 21-2 42.2-3.2 63.6-9.1 92-18.1 184.2-25.2 277.5 57.2-25.3 104-89 122.2-186.2 15-125.7-18.1-271.7-58-402.8z"/></svg>