<svg xmlns:xlink="http://www.w3.org/1999/xlink"  xmlns="http://www.w3.org/2000/svg" viewBox="0 0 150 150"><g fill="#00B4BB"><path d="M35.6 86.7c.4 3.4-1 6.5-3.1 6.7-2.2.3-4.2-2.4-4.6-5.8-.4-3.4 2.9-8.7 2.9-8.7s4.4 4.3 4.8 7.8M28.5 75.5c-.2 3-1.9 5.2-3.7 5.1-1.8-.1-3.1-2.6-2.9-5.6.2-3 3.9-6.8 3.9-6.8s2.9 4.4 2.7 7.3M24.1 64c-.2 2.9-1.8 5.2-3.7 5.1-1.8-.1-3.1-2.6-2.9-5.6.2-2.9 3.8-6.8 3.8-6.8s3 4.3 2.8 7.3M25.2 96.7c3.9 2.3 5.9 6.2 4.4 8.6-1.5 2.4-5.8 2.5-9.7.2-3.9-2.3-6.7-9.9-6.7-9.9s8.1-1.2 12 1.1M17.4 83.5c3.3 2.4 4.7 6 3.2 8s-5.3 1.7-8.6-.7-5-9.4-5-9.4 7.2-.3 10.4 2.1M13.3 71.1c2.5 2.2 3.4 5.2 2.1 6.8-1.4 1.6-4.5 1.1-7-1.1s-3.6-8.1-3.6-8.1 6 .2 8.5 2.4M13.3 60.7c1.9 2.7 2.1 5.8.5 7-1.7 1.2-4.5 0-6.5-2.6-1.9-2.7-1.6-8.5-1.6-8.5s5.7 1.4 7.6 4.1"/></g><g fill="#00B4BB"><path d="M115.9 86.7c-.4 3.4 1 6.5 3.1 6.7 2.2.3 4.3-2.4 4.6-5.8.4-3.4-2.9-8.7-2.9-8.7s-4.4 4.3-4.8 7.8M123 75.5c.2 3 1.9 5.2 3.7 5.1 1.9-.1 3.1-2.6 2.9-5.6-.2-3-3.9-6.8-3.9-6.8s-3 4.4-2.7 7.3M127.3 64c.2 2.9 1.8 5.2 3.7 5.1 1.8-.1 3.1-2.6 3-5.6-.2-2.9-3.8-6.8-3.8-6.8s-3.1 4.3-2.9 7.3M126.3 96.7c-3.9 2.3-5.9 6.2-4.4 8.6 1.4 2.4 5.8 2.5 9.6.2 3.9-2.3 6.7-9.9 6.7-9.9s-8.1-1.2-11.9 1.1M134 83.5c-3.2 2.4-4.6 6-3.1 8 1.5 2 5.3 1.7 8.6-.7s5-9.4 5-9.4-7.3-.3-10.5 2.1M138.1 71.1c-2.5 2.2-3.4 5.2-2.1 6.8 1.4 1.6 4.5 1.1 7-1.1s3.6-8.1 3.6-8.1-6 .2-8.5 2.4M138.1 60.7c-1.9 2.7-2.1 5.8-.5 7 1.7 1.2 4.5 0 6.5-2.6 1.9-2.7 1.6-8.5 1.6-8.5s-5.7 1.4-7.6 4.1"/></g><path fill="#231F20" d="M44.2 51.6c0-2-.1-3.5-.4-4.6-.3-1.1-.8-2-1.5-2.6-.7-.6-1.6-1-2.7-1.3-1.1-.2-2.5-.4-4.2-.5-.4 0-.7-.2-1-.5-.2-.4-.3-.7-.3-1.1 0-.4.1-.8.3-1.1.2-.3.6-.5 1-.5h6.8c1.5 0 3.1.1 4.7.1s3.1.1 4.4.2c1.3.1 2.4.2 3.3.4.9.2 1.4.4 1.5.6l20 47.1c.1.2.3.3.4.3.2 0 .4-.1.5-.3l19.7-47.1c.1-.3.9-.5 2.5-.6 1.6-.2 3.5-.3 5.6-.4 2.1-.1 4.3-.2 6.5-.3 2.2-.1 4-.1 5.3-.1.4 0 .7.2.8.5.2.3.2.7.2 1.1 0 .4-.1.8-.3 1.1-.2.3-.5.5-.8.6-2.2.4-4 .8-5.2 1.1-1.2.3-2.2.9-2.8 1.8-.6.9-1 2.2-1.1 3.9-.1 1.7-.2 4.1-.2 7.3v36.4c0 2.2.1 3.9.4 5.1.3 1.2.7 2.2 1.4 2.8.7.7 1.7 1.1 2.9 1.4 1.2.3 2.9.6 4.8.7.4.1.7.3.9.6.2.4.3.7.3 1.1 0 .4-.1.8-.3 1.1-.2.3-.6.5-1 .5-2.6 0-5.2-.1-7.6-.4-2.4-.3-4.8-.4-7.2-.4-2.5 0-5.1.1-7.7.4-2.7.3-5.1.4-7.3.4-.4 0-.7-.2-.9-.5-.2-.3-.3-.7-.3-1.1 0-.4.1-.8.3-1.1.2-.3.5-.6.9-.6 2-.2 3.7-.4 4.9-.7 1.2-.3 2.2-.8 2.9-1.4.7-.7 1.1-1.6 1.4-2.8.2-1.2.3-2.9.3-5.1V56.5c0-.5-.3-.7-.8-.6-.5 0-.9.2-1 .6L80.7 89.9c-1 2.3-2 4.8-2.9 7.5-1 2.7-1.9 5.5-2.8 8.3-.1.2-.2.3-.6.4-.3.1-.6.2-.9.2-.3 0-.6-.1-1-.2-.3-.1-.5-.3-.5-.4L50.3 56c-.1-.3-.4-.5-.8-.6-.4-.1-.6.2-.6.7v36.7c0 2.4.2 4.2.6 5.5.4 1.3 1 2.3 1.7 3 .7.6 1.7 1.1 2.8 1.3 1.1.2 2.4.4 4 .6.3.1.6.3.7.6.2.3.3.7.3 1.1 0 .4-.1.8-.3 1.1-.2.3-.4.5-.8.5-1.5 0-3-.1-4.8-.4-1.7-.3-3.8-.4-6.2-.4-2.5 0-4.7.1-6.7.4-1.9.3-3.6.4-4.9.4-.3 0-.6-.2-.8-.5-.2-.3-.3-.7-.3-1.1 0-.4.1-.8.3-1.1.2-.3.5-.5.9-.6 1.7-.2 3.1-.4 4.3-.6 1.1-.2 2.1-.7 2.7-1.3.7-.7 1.2-1.7 1.5-3 .3-1.3.4-3.2.4-5.5V51.6z"/></svg>