<svg xmlns:xlink="http://www.w3.org/1999/xlink"  xmlns="http://www.w3.org/2000/svg" viewBox="0 0 150 150"><path fill="none" d="M82.5 82.4c-6.7 0-5.3.8-5.9 7.6l-1.9 28.3c0 3.8 2.9 3.4 6.1 3.4 13.6 0 15.1-14.3 15.1-24.6 0-10.1-2.9-14.7-13.4-14.7zM87.3 26.7c-5.9 0-5 1-5.7 6.9L79.5 55c-.4 4.4-1.3 7.8 4 7.8 12.2 0 13.9-15.1 13.9-24.2 0-7.7-2.1-11.9-10.1-11.9z"/><path fill="#7BB065" d="M123.8 69.1c0-2.9 18.5-11.3 18.5-30.4 0-20.8-15.1-31.3-38.4-30.9-19.3.4-38.8.8-58 0-1.2-.1-2.5 0-3.8 0C63.5 21.7 76.3 47 73 74c-3.9 31.5-28.4 55.3-58.4 59.6 1.4 4.9 6.6 8.3 20.7 8.3H97c38.6 0 47.5-26.2 47.5-40.3.1-27.8-20.7-27.2-20.7-32.5zm-43 52.7c-3.2 0-6.1.4-6.1-3.4l1.9-28.3c.6-6.9-.8-7.6 5.9-7.6 10.5 0 13.4 4.6 13.4 14.7 0 10.2-1.5 24.6-15.1 24.6zm2.7-59c-5.3 0-4.4-3.4-4-7.8l2.1-21.4c.8-5.9-.2-6.9 5.7-6.9 8 0 10.1 4.2 10.1 11.8 0 9.2-1.7 24.3-13.9 24.3z"/><path fill="#7BB065" d="M24 115.6c-.2-5.4-4.8-9.5-10.2-9.3-5.4.2-9.6 4.8-9.3 10.2.2 5.4 4.8 9.6 10.2 9.3 5.4-.2 9.6-4.8 9.3-10.2z"/><circle fill="#7BB065" cx="37.2" cy="97.2" r="8.1"/><path fill="#7BB065" d="M43.3 71c.2 3.7 3.3 6.6 7.1 6.5 3.7-.2 6.6-3.3 6.5-7.1-.2-3.7-3.3-6.6-7.1-6.5-3.8.2-6.7 3.4-6.5 7.1zM57.3 44c-.1-2.8-2.5-5-5.3-4.9-2.8.1-5 2.5-4.9 5.3.1 2.8 2.5 5 5.3 4.9 2.9-.1 5-2.5 4.9-5.3z"/></svg>