<svg xmlns:xlink="http://www.w3.org/1999/xlink"  xmlns="http://www.w3.org/2000/svg" width="100" height="100" viewBox="0 0 100 100"><path fill="none" d="M77.634 84.075c-1.751-.148-3.479-.409-5.192-.725-.155-.025-.304-.043-.461-.065-4.688-.892-9.2-2.385-13.537-4.202l2.657-15.137H37.125l-.386 2.197c-.424-.332-.87-.636-1.287-.972-2.531-2.046-4.993-4.178-7.272-6.449-1.631-1.619-3.154-3.316-4.621-5.053-3.11-3.695-5.791-7.646-7.893-11.839l3.828-21.743c-.728.25-1.443.53-2.127.88-2.017 1.021-3.614 2.567-4.808 4.296-.265.471-.443.964-.646 1.456-1.039 2.528-1.301 5.266-.882 7.928.286 2.472 1.199 4.841 2.03 7.198 2.181 4.712 5.142 9.107 8.592 13.207 1.466 1.737 2.989 3.436 4.62 5.053 2.28 2.27 4.741 4.401 7.275 6.449 2.896 2.352 6.006 4.497 9.208 6.535.982.636 1.947 1.306 2.971 1.897.831.5 1.68.981 2.523 1.475.415.234.821.489 1.24.718 6.383 3.357 13.292 6.106 20.583 7.488.154.023.307.042.46.067 1.713.316 3.443.573 5.191.723 2.539.052 6.743-.216 10.247-1.302 1.682-.518 3.215-1.22 4.296-2.199 1.456-1.33 2.46-3.036 3.062-4.818.597-1.636.833-3.319.82-5.006h.022c-.025-2.877-.784-5.765-1.828-8.475-1.155-2.964-2.732-5.783-4.528-8.497l-5.044 28.636c-1.947.229-3.781.307-5.137.279z"/><path fill="#2E2E2E" d="M28.752 68.084c-2.496-2.105-4.839-4.349-7.098-6.666-2.847-2.912-5.479-5.991-7.81-9.234L6.512 93.809H31.88l3.623-20.632c-1.14-.817-2.303-1.61-3.406-2.465-1.128-.871-2.267-1.713-3.345-2.628zM70.75 89.165c-4.632-.806-9.096-2.179-13.397-3.872l-1.497 8.516h25.151l.736-4.163c-.113.012-.226.037-.34.042-3.547.437-7.149.063-10.653-.523zM15.667 41.831c2.102 4.193 4.783 8.144 7.893 11.839 1.467 1.736 2.989 3.434 4.621 5.053 2.279 2.271 4.741 4.403 7.272 6.449.417.336.862.64 1.287.972l.386-2.197h23.976l-2.657 15.137c4.337 1.817 8.85 3.311 13.537 4.202.157.022.306.04.461.065 1.713.315 3.441.576 5.192.725 1.356.027 3.19-.05 5.139-.278l5.044-28.636.031-.177 7.759-43.651H70.457l-5.61 31.418H40.871l5.608-31.418H21.108l-1.216 6.506-.396 2.249-3.829 21.742z"/><path fill="#3F5EA7" d="M95.933 72.48c-.017-.117-.048-.227-.066-.344h.019c-.531-3.083-1.607-6.078-2.992-8.938-1.446-2.841-3.091-5.619-5.045-8.215l-.031.177c1.796 2.714 3.373 5.533 4.528 8.497 1.044 2.71 1.803 5.598 1.828 8.475h-.022c.013 1.687-.224 3.37-.82 5.006-.602 1.782-1.605 3.488-3.062 4.818-1.081.979-2.614 1.682-4.296 2.199-3.504 1.086-7.708 1.354-10.247 1.302a53.466 53.466 0 0 1-5.191-.723c-.153-.025-.306-.044-.46-.067-7.291-1.382-14.2-4.131-20.583-7.488-.419-.229-.826-.483-1.24-.718-.844-.493-1.693-.975-2.523-1.475-1.023-.592-1.988-1.262-2.971-1.897-3.201-2.038-6.311-4.184-9.208-6.535-2.534-2.048-4.996-4.18-7.275-6.449-1.631-1.617-3.154-3.315-4.62-5.053-3.45-4.1-6.411-8.494-8.592-13.207-.832-2.357-1.744-4.726-2.03-7.198-.419-2.662-.157-5.4.882-7.928.203-.492.381-.985.646-1.456 1.194-1.729 2.791-3.275 4.808-4.296a16.19 16.19 0 0 1 2.127-.88l.396-2.249a24.627 24.627 0 0 0-4.286.89c-2.89.906-5.632 2.523-7.239 4.852a11.462 11.462 0 0 0-1.182 1.871c-1.898 3.643-1.705 7.99-.748 11.841l.072.068c.8 3.65 2.495 7.104 4.394 10.4.903 1.515 1.898 2.98 2.94 4.423 2.331 3.243 4.963 6.322 7.81 9.234 2.259 2.317 4.603 4.561 7.098 6.666 1.078.915 2.217 1.757 3.344 2.628 1.104.854 2.267 1.647 3.406 2.465 2.878 2.066 5.834 4.052 8.945 5.847 2.729 1.564 5.502 3.057 8.383 4.38a99.414 99.414 0 0 0 3.88 1.648c.211.086.429.16.643.241 4.302 1.693 8.766 3.066 13.397 3.872 3.504.586 7.106.96 10.653.522.114-.005.227-.03.34-.042 4.563-.419 9.514-3.042 11.908-5.777 2.776-3.158 2.841-7.517 2.282-11.387z"/></svg>