<svg xmlns:xlink="http://www.w3.org/1999/xlink"  xmlns="http://www.w3.org/2000/svg" width="100" height="100" viewBox="0 0 100 100"><path fill="none" d="M50.584 68.228l8.169-24.536-8.255-16.726-8.215 16.649zM43.03 75.188l-11.848-29.09-8.768 1.275 14.044 13.686-3.319 19.331zM78.584 47.373l-9.028-1.311-11.647 29.094 9.946 5.231-3.315-19.328z"/><path fill="#187DBC" d="M90.76 43.417l-27.822-4.043-12.44-25.207-2.541 5.147-9.901 20.06-27.818 4.043 20.13 19.623-4.753 27.707 24.883-13.084L75.382 90.75l-4.753-27.71L90.76 43.417zM50.498 26.966l8.255 16.727-8.169 24.535-8.301-24.613 8.215-16.649zM22.414 47.373l8.768-1.275 11.848 29.09-9.891 5.201 3.319-19.331-14.044-13.685zm35.495 27.783l11.646-29.094 9.028 1.311L64.54 61.059l3.315 19.328-9.946-5.231z"/></svg>