<svg xmlns:xlink="http://www.w3.org/1999/xlink"  xmlns="http://www.w3.org/2000/svg" viewBox="0 0 150 150"><circle fill="#60A87D" cx="75.1" cy="76.5" r="71"/><circle fill="#3F7859" cx="75.1" cy="76.5" r="51.1"/><circle fill="#6DBD8C" cx="75.1" cy="76.5" r="43.2"/><circle fill="#C3E2C8" cx="75.1" cy="76.5" r="35.5"/><path fill="#3F7859" d="M97.9 86.2l1.9 3.9c-3.6 2.1-6.6 3.7-9 4.6-2.4 1-4.3 1.4-5.9 1.4-2.3 0-4-.5-5.2-1.5-1.2-1-1.8-2.5-1.9-4.5-3.1 2.2-5.7 3.7-7.7 4.7-2 .9-3.8 1.4-5.5 1.4-3.1 0-5.8-1.2-7.9-3.5s-3.3-5.2-3.3-8.4c0-5.3 6.1-9.3 18.3-12 2.5-.6 4.5-1 6-1.4 0-.8.1-1.6.1-2.5 0-.9.1-1.4.1-1.6 0-1.9-.4-3.4-1.3-4.3-.9-.9-2.3-1.4-4.2-1.4s-3.4.3-4.5 1-1.6 1.6-1.6 2.8v.8c0 1.2-.6 2-1.7 2.6-1.1.6-2.8.9-5 .9-1.5 0-2.6-.3-3.4-.8-.8-.6-1.1-1.4-1.1-2.5 0-.9.3-1.8 1-2.8.7-1 1.7-2.1 3-3.2 2.3-1.9 5.1-3.4 8.2-4.5 3.2-1.1 6.2-1.7 9.3-1.7 5.2 0 9 1.2 11.6 3.5 2.6 2.4 3.8 5.9 3.8 10.7 0 1.1-.1 3.4-.3 6.9-.2 3.5-.3 6.4-.3 8.8 0 1.3.2 2.4.7 3 .5.7 1.1 1 2 1 .4 0 .9-.1 1.4-.3.6-.2 1.4-.6 2.4-1.1zm-20.1-9.9c-.6.2-1.4.4-2.6.8-5.7 1.7-8.5 3.7-8.5 6.1 0 1.3.5 2.4 1.4 3.4.9.9 2 1.4 3.3 1.4.7 0 1.6-.2 2.5-.6 1-.4 2.2-1.1 3.8-2.1l.1-9z"/></svg>