<svg xmlns:xlink="http://www.w3.org/1999/xlink"  xmlns="http://www.w3.org/2000/svg" width="100" height="100" viewBox="0 0 100 100"><path fill="#D04D38" d="M50.402 10.5L12.08 22.111l.877 3.579c6.389 26.065 17.757 50.072 36.174 69.79l1.27 1.353 1.168-1.245C70.046 75.854 81.444 51.803 87.845 25.69l.876-3.579L50.402 10.5zM86.61 25.388C80.23 51.417 68.876 75.347 50.402 94.98 31.925 75.347 20.57 51.417 14.19 25.388l-.588-2.411 36.8-11.149 36.802 11.149-.594 2.411z"/><path fill="#D04D38" d="M66.464 52.547c0 12.133-6.122 17.903-16.386 17.903-9.913 0-15.744-5.482-15.744-18.021V39.362H20.938c6.95 20.899 17.114 38.716 29.464 51.801 12.349-13.085 22.513-30.902 29.462-51.801h-13.4v13.185z"/><path fill="#929292" d="M43.228 30.502h.028V53.13c0 6.764 2.564 10.206 7.114 10.206 4.664 0 7.231-3.266 7.231-10.206V30.502h.131v-.111h24.86a207.228 207.228 0 0 0 1.475-5.627L50.402 14.562 16.734 24.765c.466 1.897.962 3.771 1.477 5.627h25.017v.11z"/></svg>