<svg xmlns:xlink="http://www.w3.org/1999/xlink"  xmlns="http://www.w3.org/2000/svg" viewBox="0 0 1000 1000"><path fill="#5D5D5D" d="M692.7 491.3C652.7 470 591.3 450 508 430c-6.7-1.3-12.7-3.3-18.7-4.7-144-22.7-258-110-286-220.7-2 2.7-3.3 4.7-5.3 7.3-24.7 38-36.7 78.7-36.7 121.3 0 67.3 26 124 78 170.7 37.3 33.3 101.3 61.3 193.3 84C504 606 550 618 570 625.3c29.3 10.7 50 22.7 61.3 36.7 12 14 17.3 31.3 17.3 51.3 0 31.3-14 58.7-42 82-28 23.3-69.3 35.3-124.7 35.3-52 0-93.3-13.3-124-39.3S306.7 724 296.7 668L130 684c11.3 94.7 45.3 167.3 103.3 216.7 57.3 49.3 140 74.7 247.3 74.7 74 0 135.3-10.7 184.7-30.7 49.3-20.7 87.3-52 114.7-94.7 26.7-42.7 40.7-88 40.7-136.7 0-53.3-11.3-98.7-34-135.3-22.7-36.7-54-65.3-94-86.7z"/><path fill="#F05D22" d="M546.7 375.3h8c-124.7-28-217.3-132-217.3-256.7 0-8.7.7-16.7 1.3-25.3-42.7 22-76 47.3-100 70 16 119.4 148 212 308 212z"/><path fill="#CC5328" d="M704.7 355.3h8c-124.7-28-217.3-132-217.3-256.7 0-19.3 2.7-38.7 6.7-56.7-36.7 5.3-70 13.3-99.3 24-4.7 16.7-8 34.7-8 52.7-.1 130.7 139.2 236.7 309.9 236.7z"/><path fill="#AF4726" d="M656.7 79.3c0-13.3 1.3-26.7 3.3-39.3-24.7-2.7-48.7-4-72-4-7.3 0-14 0-20.7.7-7.3 20-11.3 40.6-11.3 62.6 0 130.7 139.3 237.3 310 237.3h8C749.3 308 656.7 203.3 656.7 79.3z"/></svg>