<svg xmlns:xlink="http://www.w3.org/1999/xlink"  xmlns="http://www.w3.org/2000/svg" viewBox="0 0 1000 1000"><path fill="#1A2F5B" d="M960 564.7c-1.3-.7-5.3 0-7.3 4.7-2 7.3-5.3 15.3-8 22.7-6.7 18-14.7 35.3-23.3 52C904 677.3 882 708 856 735.3c-49.3 52.7-111.3 93.3-179.3 117.3-105.3 36.7-224.7 33.3-326-14-75.3-35.3-138-95.3-175.3-169.3-70.7-136-53.3-316 59.3-425.3 107.3-104.7 286-126.7 410-36.7C706 252 748 321.3 759.3 396.7c11.3 78.7-10 162.7-65.3 221.3-51.3 54-126 83.3-200.7 76.7-78-6.7-148.7-52-182-124-36.7-79.3-22-180.7 45.3-238.7 30.7-26.7 70-42.7 110.7-44.7 40-2 82 8.7 114 33.3 32 24 54.7 60.7 61.3 100.7 7.4 39.4-.6 82.7-24.6 115.4-23.3 32.7-62 54.7-102 58-8 .7-16.7.7-24.7 0-62-3.3-112-48.7-122-108-2-2-4.7-3.3-6.7-6-1.3 30 7.3 62 26 88C418 610 468.7 632 519.3 632c17.3 0 34.7-2.7 51.3-8 49.3-15.3 90.7-52.7 112-100 30.7-66.7 22.7-146-18-206.7-39.3-59.3-106-95.3-176-101.3-72-6-144.7 19.3-197.3 68.7-50.7 46.7-80 111.3-85.3 180-6.7 74 15.3 148.7 60.7 208 44 58 107.3 98 178 114C520 804 600 794.7 670 762c68.7-32.7 125.3-88.7 160-156.7 32-63.3 44-136.7 36.7-207.3-8-74.7-37.3-146.7-84.7-204.7-48.7-59.3-114-102.6-186.7-126-132-42.7-279.3-16-386.7 67.3C145.3 183.3 95.3 250 68 325.3c-23.3 64-31.3 133.3-25.3 200.7 14.7 157.3 114 303.3 258 370.7 136.7 64 301.3 57.3 433.3-14 118-64 204.7-178 230-310 1.3-6-2-7.4-4-8z"/></svg>