<svg xmlns:xlink="http://www.w3.org/1999/xlink"  xmlns="http://www.w3.org/2000/svg" viewBox="0 0 1000 1000"><path fill="none" d="M721.3 516c-42.7-19.3-124.7-36.7-251.3-54-67.3-8.7-115.3-18.7-143.3-29.3-38.7-15.3-57.3-37.3-57.3-66 0-61.3 74-92 220.7-92 67.3 0 119.3 6 154.7 18.7 52 18 78.7 52 82.7 104l.7 12h58.7V396C784 282 684 224 490.7 224c-186 0-280 48-280 142.7 0 51.3 32.7 89.3 96.7 114.7 31.3 12 90 24.7 180.7 39.3 78 12.7 127.3 21.3 146 25.3 36.7 8 62.7 17.3 78 27.3 20 12.7 30 31.3 30 56.7 0 37.3-28.7 64-86.7 81.3-40 12-88.7 18-144 18-178-1.3-264.7-46-264.7-138v-22.7H188v26c0 72.7 40.7 124.7 120 155.3 52 19.3 120 29.3 201.3 29.3 65.3 0 124-8 174-24.7 78-24.7 118-66 118-123.3 0-51.9-26.6-91.2-80-115.2z"/><path fill="none" d="M496 87.3C266 87.3 79.3 274 79.3 504S266 920.7 496 920.7 912.7 734 912.7 504 726 87.3 496 87.3zm0 810.7c-218 0-394-176.7-394-394 0-218 176.7-394 394-394s394 176.7 394 394c.7 217.3-176 394-394 394z"/><path fill="#418BC4" d="M496 109.3c-218 0-394 176.7-394 394 0 218 176.7 394 394 394s394-176.7 394-394c.7-217.3-176-394-394-394zm188 645.4c-50 16-108.7 24.7-174 24.7-81.3 0-149.3-10-201.3-29.3-80-30.7-120-82.7-120-155.3v-26h58v22.7c0 92 86.7 136.7 264.7 136.7 56 0 104-6 144-18 58-17.3 86.7-44 86.7-81.3 0-25.3-10-44-30-56.7-15.3-10-41.3-19.3-78-27.3-18.7-4-68-12.7-146-25.3-90-14-149.3-26.7-180.7-39.3-64.7-24.7-96.7-63.3-96.7-114.7 0-94.7 94-142.7 280-142.7 194 0 293.3 58 296 172V408H728l-.7-12c-4-51.3-30.7-85.3-82.7-104C610 280 558 273.3 490 273.3c-146.7 0-220.7 31.3-220.7 92 0 29.3 18.7 50.7 57.3 66C354 442 402 452 470 461.3c126.7 17.3 208.7 34.7 251.3 54 53.3 24 80 62.7 80 115.3C801.3 688 762 730 684 754.7z"/><path d="M496 68C256 68 60 263.3 60 504s195.3 436 436 436 436-195.3 436-436S736.7 68 496 68zm0 852.7C266 920.7 79.3 734 79.3 504S266 87.3 496 87.3 912.7 274 912.7 504c0 229.3-186.7 416.7-416.7 416.7z"/></svg>