<svg xmlns:xlink="http://www.w3.org/1999/xlink"  xmlns="http://www.w3.org/2000/svg" viewBox="0 0 150 150"><path fill="#384EA0" d="M68.9 84.6l14.2-1.9.3-.4 7.9-.8 2.1-.9.8.5 1.2-.7 7.8-.8.4-2.6-.2-1.5 1.1-5.1.9-6.9.7-1.9-.2-1.3 1.4-9.8.6-8.6.6-.5.8-8.4.5-2.5.7-8.3-.2-2.6-3.1.5-1-.2-1.6 1.2-1.7.4-2.4.3 2.8 2.2 2.7 3.7-2.9 7.3-4 6.3-.2 1.1-1.1.9-1.2 3.2-1.6 1.7.1.6-2.2 2.3-2.3 4.6-3.8 4.7-2.5 2.1-2.4 4.4-3.6 4.7-.6 1.1-1 .4-.3 1.4-2.8 2.4-1.2 2.2-3.1 3.1.2 1.1-1.2.4z"/><path fill="#5BB947" d="M34.8 113.7l4.1-3.5 1.3-2.1 2-1.2 1.1-1.5 4.1-3.5 2.4-3.4 3.8-3.3 1.3-2.3 2.4-1.5.6-2 1.9-1.5 2.6-2.8.4-.1 3.8-5.7 1.4-.5.3-1.6 2.3-2.4 5.2-6.6 2.4-4.7.9-.5.4-.8.5-.4.9-1.8 1-.6.3-1.4.9-.4 2.9-4.9 2.8-4.7h.3l1.6-2.9.4-1.4 3.5-7.8 4.7-12.2.3-2-7.3 2.9-.2-.6-4.9 1.9-3.9.9-.5.5-3.8 1.6-1.4.1-5.1 1.5-6.3 2.3-1.7.3-2.4 1.4-2.9 1-1.5 2.2.1 1.1 1.6 2.3-.8.5-3.9-2.6-2.6-4.3-.7-1.5.3-.8-1-.6 1.6-2.2 1-.3 4.9-.5 3.5-1.1 6.3-1.3 2.6-.3.9-1 1.8.2 2.7-1 .8.1 1.3-.7 2.3-.3.4-.3 8.2-2.2 1.1.4.6-.6 6.9-1.9.6.1 5-.8.9.1.3-.4 4.9-.8 1.7-.6.1-4.2 3.4.3 1.3 1 3.4 1.4 5.2-1.1 5.2-.5 2.2-.3.3-2H28v108.2l4.8-3.6z"/><path fill="#384EA0" d="M137.1 11l.4.2-2.2 13.4-1.9 8.8-2.5 11.8-1 4.9-2.1 9.9-3.6 18-.9 2.2-.4 3.4-1.2 4.4-4.7 18.8v.7l-1.5 5.4.6.5 1.3-.8 2.1.4 1.3-.7 5.8-.4 3.3.8.7 1.3-.4 1.7-2.1 2.7-5.9 4.4-3.2.9v-.6l3.5-3 1.8-2.8-.5-1.3-3.2.9-1.3-.3-.5.3-.5-.2-4 1-1.3 1.2v.9l-1.2 3.6-1 1-1.1-1.5.7-.8-.5-.9.7-1.1-.8-1.1-7.5 3.3-.9.1-1.1 1.1-2.8.6-3.1 2.2-.9.2-1.6 1.8-1.5 2.8.8 1.5.6.5.1-.1 1-1H143V11z"/><path fill="#384EA0" d="M90.4 135.6l.5-.9-3-.8-3.6-4.2-1.5-2.3.2-2.4 2-.3 1-1 8.9-3.6.7-1.7-.1-1 .4-.7.1-1.7 1.8-6.3 1.1-7.4.3-2 .7-.9-.5-.8.6-3.6.6-.6.7-4.3 1-7.1-2.9.3-1.6.5-4.1 1.3-4 1.4-8 2.6-4.3 2.2-.6.9-1.5.9-.8 1.7.5 1.1v1l.6.2 1.1 1.9h-1.6l-4.6-2.7-3.7-5.8-1-1.5-1.7 1.2-2.8 3.8h-.5l-3 3.1-1.4 2.2-9.9 9.8-.5 1.3-3.5 2.3-2.5 3-8.5 6.6-1.5 1.6-2.9 2.1-1.8 1.2-2.6 1.6-.3.1-.8 1-2.2 1.1-1.6.6-2.4.9-.8.9-1.2-.1-2.5 1.4-.5.2-3.2-.9-3.1-3.1-.2 3.7.2.8 3.1 3.1 3.2 1 3-1.6 1.2.1.8-.9 4-1.6 2.2-1.1.8-.9 4.6-2.9 1-1v3.4h54.8v.1l1.5 2.2 3.6 4.2 4.8 1.2 1.1-.5-2.6-2z"/><path fill="#384EA0" d="M9.1 128.5l.4.5 1.4.1h.1l2.3-.6 3.6-2.4.6-1.1.5-3-.7-1.3-.4.8-5.7 3.8-.3-.8-1.6-.8-1.3 2.5.2 1.5zM129 33.2l.5-2 .6-5.3 1.6-12.3-8.1 2.3-2.1 1.5.5 4-.5 2.6-.1 3.2-.9 8.9.1 2.3-1.2 1.6-.8 6.8-1.6 5.8-.7 9.7-2.3 6.5-1 6.2-.8 1.1-.4 3-.6 1.2-.5 4.5-1.8 7.4-1.3 3.1-1.7 6.1.3.5-3 6.7-1.6 5-1.6 2.6-.2 1.2 3-.2 1.2-1 4-.9.7-.5 2.7-.1 1.2-.7 3.1-11.8.9-4.1.5-1.3 1.9-9.3.6-.8.2-2.9 1.5-9.2 2-9.5.1-1.9.6-3.2v-1.2l.8-.3-.1-2.1.4-.8z"/></svg>