<svg xmlns:xlink="http://www.w3.org/1999/xlink"  xmlns="http://www.w3.org/2000/svg" width="100" height="100" viewBox="0 0 100 100"><path fill="#38683D" d="M87.909 30.777l-.295 41.606L51.927 52.46V9.847z"/><path fill="#4674B7" d="M13.237 30.777l.296 41.606L49.221 52.46V9.847z"/><path fill="#D7DD3F" d="M51.824 52.429v40.904l35.909-20.521.176-42.035z"/><path opacity=".5" fill="#D7DD3F" d="M51.927 52.362v.098l35.687 19.923.295-41.606z"/><path opacity=".2" fill="#4674B7" d="M13.533 72.383l35.623-19.89v-.064L13.237 30.88z"/><path fill="#D7DD3F" d="M49.156 52.429v40.904L13.255 72.812l-.185-42.035z"/><g><path fill="#FFF" d="M69.592 79.517c-6.348-1.852-11.636-3.769-17.586-6.279-.992-.396-2.048-.597-3.107-.661-10.049-.662-19.438-8.066-19.438-22.61 0-13.355 8.462-23.404 21.751-23.404 13.618 0 21.089 10.313 21.089 22.478 0 10.116-4.695 17.257-10.578 19.898v.266c3.438.993 7.271 1.784 10.775 2.511l-2.906 7.801zM50.947 64.574c6.744 0 10.71-6.412 10.71-15.137 0-8.131-3.835-14.877-10.71-14.877-6.875 0-10.841 6.746-10.841 15.073-.066 8.464 4.032 14.94 10.776 14.94h.065z"/></g></svg>