<svg xmlns:xlink="http://www.w3.org/1999/xlink"  xmlns="http://www.w3.org/2000/svg" width="100" height="100" viewBox="0 0 100 100"><path fill="#3BB3EC" d="M53.354 31.699L48.5 25.334l-4.842 6.349a17.263 17.263 0 0 1 4.814-.669c1.695 0 3.324.23 4.882.685zM55.584 59.007c.869-1.077 1.542-2.33 2.018-3.757a14.32 14.32 0 0 0 .714-4.547c0-1.621-.241-3.149-.727-4.584-.484-1.435-1.165-2.692-2.041-3.771a9.935 9.935 0 0 0-3.119-2.555c-1.203-.625-2.521-.938-3.957-.938-1.437 0-2.756.313-3.959.938a9.763 9.763 0 0 0-3.105 2.555c-.87 1.079-1.55 2.335-2.042 3.771-.493 1.436-.737 2.964-.737 4.584 0 1.602.244 3.119.737 4.547.492 1.427 1.173 2.68 2.042 3.757a9.707 9.707 0 0 0 3.105 2.554c1.203.627 2.522.938 3.959.938 1.451 0 2.784-.312 3.995-.938a9.687 9.687 0 0 0 3.117-2.554z"/><path fill="#484748" d="M47.745 76.002c-.268 0-.506-.004-.714-.012a5.697 5.697 0 0 0-1.277.075 4.883 4.883 0 0 0-.839.236l.05-6.312a17.22 17.22 0 0 1-5.924-2.393 18.769 18.769 0 0 1-4.708-4.295c-1.33-1.704-2.364-3.629-3.106-5.774s-1.116-4.422-1.116-6.825c0-.465.054-.912.083-1.367l-1.271 1.667L9.345 76.667h40.771c-.071-.033-.147-.067-.218-.101-.816-.377-1.535-.564-2.153-.564z"/><path fill="#61676A" d="M65.729 57.615c-.768 2.172-1.833 4.117-3.193 5.838a18.578 18.578 0 0 1-4.847 4.308 17.165 17.165 0 0 1-6.086 2.303c.516.219 1.03.456 1.539.716.51.259 1.023.499 1.539.726.519.225 1.033.417 1.543.576.509.159 1.03.247 1.564.263a5.83 5.83 0 0 0 1.518-.199 4.254 4.254 0 0 0 1.337-.627c.402-.285.75-.651 1.041-1.103s.489-1 .588-1.651l5.586 2.779c-.15 1.219-.495 2.32-1.038 3.306-.377.683-.854 1.271-1.377 1.818h22.212L68.077 51.003l-1.278-1.678c.027.461.084.909.084 1.378 0 2.438-.386 4.742-1.154 6.912z"/></svg>