<svg xmlns:xlink="http://www.w3.org/1999/xlink"  xmlns="http://www.w3.org/2000/svg" width="100" height="100" viewBox="0 0 100 100"><path fill="none" d="M41.69 82.593c-6.544 5.733-14 7.604-19.334 8.096-.487-.35-1.304-2.022-1.277-2.738a.795.795 0 0 1 .024-.265.817.817 0 0 0-.057.35c-.027.717.79 2.39 1.275 2.741 5.336-.494 12.791-2.364 19.334-8.097 3.804-3.289 6.059-7.88 7.961-12.718-1.894 4.806-4.146 9.362-7.926 12.631zM66.416 27.283c-1.558.11-2.508.949-3.513 3.776v.006c.989-2.755 1.937-3.588 3.478-3.696.927-.121 2.735-.101 4.365-.109.14-.101.282-.343.409-.647-.118.264-.247.469-.374.561-1.633.008-3.439-.013-4.365.109zM50.332 29.294c.521-2.092.779-3.68-.873-4.67-1.43-.685-2.901-1.102-4.874-1.786-.1-.402.121-1.323.4-2.05-.295.738-.538 1.72-.432 2.139 1.971.681 3.444 1.099 4.873 1.786 1.649.989 1.392 2.579.871 4.669-2.023 6.904-9.549 30.519-14.248 42.722.003-.008.005-.015.009-.021 4.697-12.19 12.246-35.873 14.274-42.789z"/><radialGradient id="a" cx="50.946" cy="50.859" r="40.836" gradientUnits="userSpaceOnUse"><stop offset="0" stop-color="#d46737"/><stop offset=".565" stop-color="#b0432c"/><stop offset="1" stop-color="#982b25"/></radialGradient><path fill="url(#a)" d="M91.592 43.832l-31.948.35c1.536-4.646 2.983-8.996 4.278-12.667.959-2.715 1.685-2.976 2.605-3.039.53-.073 1.464-.085 2.216-.094l1.105-.006.905-.004.642-.208c.942-.678 1.64-3.412 1.146-4.496l-.838-.638c-.657-.108-1.718-.234-3.086-.399-2.562-.306-6.066-.723-10.116-1.379a170.719 170.719 0 0 1-5.097-.914L50.263 9.833l-2.854 9.292a56.323 56.323 0 0 0-1.74-.315l-.824.191c-.864.623-1.616 3.208-1.374 4.194l.716.783c.515.178.993.338 1.444.489.166.054.315.106.471.157L41.46 44.186l-31.159-.354 25.717 17.101-7.73 22.088c-2.133 1.654-4.404 2.653-7.012 3.076l-.467.188c-.446.318-.944.992-.876 1.711-.041 1.058.917 3.093 1.738 3.683l.755.207a38.588 38.588 0 0 0 2.897-.383l4.465-1.051c4.042-1.219 8.479-3.323 12.598-6.93 3.771-3.26 6.052-7.697 7.893-12.227l22.266 18.22-8.038-28.582 27.085-17.101zm-41.975 26.13c-1.903 4.838-4.158 9.429-7.961 12.718-6.544 5.732-13.999 7.603-19.334 8.097-.486-.352-1.302-2.024-1.275-2.741a.82.82 0 0 1 .057-.35 1.04 1.04 0 0 1 .384-.578c3.908-.636 6.822-2.425 9.298-4.832 2.03-1.933 2.961-4.314 5.264-10.173C40.749 59.9 48.275 36.285 50.298 29.381c.521-2.09.778-3.68-.871-4.669-1.429-.687-2.902-1.104-4.873-1.786-.106-.419.136-1.401.432-2.139.179-.465.383-.853.543-.967 2.561.413 6.826 1.469 12.825 2.442 6.268 1.016 11.354 1.476 13.209 1.778.199.439-.05 1.775-.406 2.572-.127.304-.27.547-.409.647-1.63.009-3.438-.011-4.365.109-1.541.108-2.488.941-3.478 3.696-3.687 10.451-8.8 26.917-12.49 36.821-.262.697-.526 1.39-.798 2.077z"/><path fill="#FFF" d="M62.903 31.06c1.005-2.827 1.955-3.667 3.513-3.776.926-.122 2.732-.101 4.365-.11.127-.092.256-.297.374-.561.356-.797.605-2.133.406-2.572-1.855-.302-6.941-.763-13.209-1.778-5.999-.973-10.264-2.029-12.825-2.442-.16.114-.364.501-.543.967-.279.727-.5 1.648-.4 2.05 1.973.684 3.444 1.101 4.874 1.786 1.651.991 1.394 2.579.873 4.67-2.027 6.917-9.577 30.599-14.274 42.787l-.009.021c-2.303 5.858-3.234 8.24-5.264 10.173-2.477 2.407-5.39 4.196-9.298 4.832a1.046 1.046 0 0 0-.384.578.795.795 0 0 0-.024.265c-.027.716.79 2.389 1.277 2.738 5.334-.492 12.79-2.362 19.334-8.096 3.78-3.269 6.032-7.825 7.927-12.631.271-.687.536-1.38.796-2.075 3.69-9.904 8.803-26.37 12.49-36.821v-.005zM40.981 82.038c-6.255 5.481-13.308 7.283-18.29 7.812-.302-.459-.676-1.326-.694-1.651 3.57-.662 6.568-2.266 9.407-5.026 2.176-2.072 3.142-4.531 5.479-10.477 4.748-12.322 12.29-35.97 14.33-42.936.462-1.857 1.082-4.352-1.311-5.787-1.195-.579-2.321-.953-3.626-1.389-.237-.081-.484-.163-.738-.248.082-.389.24-.894.394-1.249.894.162 1.957.382 3.193.639 2.393.493 5.369 1.108 9.005 1.7 4.069.658 7.591 1.077 10.16 1.385.908.109 1.674.199 2.274.281a6.557 6.557 0 0 1-.355 1.291h-.335c-1.45.004-2.819.007-3.653.117-2.319.159-3.409 1.883-4.309 4.421-1.582 4.489-3.39 9.971-5.305 15.777-2.495 7.567-5.074 15.393-7.181 21.036-1.958 5.237-4.224 10.654-8.445 14.304z"/><radialGradient id="b" cx="46.281" cy="55.469" r="29.763" gradientUnits="userSpaceOnUse"><stop offset="0" stop-color="#00abeb"/><stop offset=".154" stop-color="#04a3e4"/><stop offset=".399" stop-color="#0e8cd0"/><stop offset=".702" stop-color="#1f66b0"/><stop offset="1" stop-color="#333b8b"/></radialGradient><path fill="url(#b)" d="M61.912 30.921c.899-2.539 1.989-4.262 4.309-4.421.834-.11 2.203-.113 3.653-.117h.335a6.49 6.49 0 0 0 .355-1.291c-.601-.082-1.366-.171-2.274-.281-2.569-.308-6.091-.727-10.16-1.385-3.636-.592-6.612-1.207-9.005-1.7a134.833 134.833 0 0 0-3.193-.639c-.154.355-.312.86-.394 1.249.254.084.5.167.738.248 1.305.436 2.431.81 3.626 1.389 2.393 1.435 1.773 3.93 1.311 5.787-2.04 6.966-9.582 30.614-14.33 42.936-2.336 5.945-3.302 8.404-5.479 10.477-2.839 2.761-5.837 4.364-9.407 5.026.018.325.392 1.192.694 1.651 4.981-.528 12.035-2.33 18.29-7.812 4.221-3.65 6.486-9.067 8.445-14.304 2.107-5.644 4.686-13.469 7.181-21.036 1.915-5.806 3.723-11.288 5.305-15.777z"/></svg>