<svg xmlns:xlink="http://www.w3.org/1999/xlink"  xmlns="http://www.w3.org/2000/svg" viewBox="0 0 150 150"><path fill="#81CECE" d="M44 120.8c-3.9-3.9-7-8.5-9.2-13.7-2.2-5.2-3.4-10.8-3.4-16.7 0-5.9 1.1-11.5 3.4-16.7C37 68.5 40.1 63.9 44 60c3.9-3.9 8.5-7 13.7-9.2 5.2-2.2 10.8-3.4 16.7-3.4 5.9 0 12 1.6 18.3 4.8 6.2 3.2 10.8 7.1 13.7 11.8V30.2C97 26.6 86.3 24.5 75 24.5c-38.8 0-70.3 24.2-70.3 54.1 0 26.9 25.4 49.2 58.8 53.4-2-.5-4-1.2-5.9-2-5.1-2.3-9.7-5.3-13.6-9.2zM17 67.5l-6.4.1c13.6-30.2 47.6-35.9 47.6-35.9C25.7 40.3 17 67.5 17 67.5z"/><path fill="#037676" d="M117.3 35.4v55c0 5.9-1.1 11.5-3.4 16.7-2.2 5.2-5.3 9.8-9.2 13.7-3.9 3.9-8.5 7-13.7 9.2-2.3 1-4.6 1.7-7 2.3 34.5-3.4 61.1-26.1 61.1-53.7.2-17.7-10.8-33.3-27.8-43.2z"/><path fill="#81CECE" d="M97 113c2.9-2.9 5.2-6.3 6.9-10.2 1.7-3.9 2.5-8 2.5-12.4s-.8-8.5-2.5-12.4c-1.7-3.9-4-7.3-6.9-10.2-2.9-2.9-6.3-5.2-10.2-6.9-3.9-1.7-8-2.5-12.4-2.5s-8.5.8-12.4 2.5c-3.9 1.7-7.3 4-10.2 6.9-2.9 2.9-5.2 6.3-6.9 10.2-1.7 3.9-2.5 8-2.5 12.4s.8 8.5 2.5 12.4c1.7 3.9 4 7.3 6.9 10.2 2.9 2.9 6.3 5.2 10.2 6.9 3.9 1.7 8 2.5 12.4 2.5s8.5-.8 12.4-2.5c3.9-1.7 7.3-3.9 10.2-6.9zM50.5 89c-1.6-22.8 22.1-23.9 22.1-23.9C52.1 70.1 50.5 89 50.5 89z"/><path fill="#B9DCD8" d="M10.6 67.7l6.4-.1s8.7-27.2 41.2-35.7c0-.1-34 5.6-47.6 35.8zM50.5 89s1.6-18.9 22.1-23.9c0 .1-23.7 1.1-22.1 23.9z"/></svg>