<svg xmlns:xlink="http://www.w3.org/1999/xlink"  xmlns="http://www.w3.org/2000/svg" width="100" height="100" viewBox="0 0 100 100"><radialGradient id="a" cx="57.305" cy="57.768" r="26.124" gradientUnits="userSpaceOnUse"><stop offset=".121" stop-color="#d7dd3f"/><stop offset=".455" stop-color="#9dc44d"/><stop offset=".746" stop-color="#51924b"/><stop offset="1" stop-color="#1e4324"/></radialGradient><path fill="url(#a)" d="M37.731 55.372V50.24c0-2.938.902-5.519 2.71-7.741 1.805-2.222 4.155-3.334 7.047-3.334h36.423v-7.029H47.572c-4.977 0-9.03 1.583-12.167 4.749-3.137 3.167-4.707 7.23-4.707 12.194v6.622a44.487 44.487 0 0 1 7.033-.329z"/><radialGradient id="b" cx="57.305" cy="57.768" r="26.124" gradientUnits="userSpaceOnUse"><stop offset=".121" stop-color="#d7dd3f"/><stop offset=".455" stop-color="#9dc44d"/><stop offset=".746" stop-color="#51924b"/><stop offset="1" stop-color="#1e4324"/></radialGradient><path fill="url(#b)" d="M30.699 60.961v4.955c0 4.966 1.553 9.123 4.651 12.466 3.102 3.347 7.176 5.019 12.223 5.019h36.339v-7.029H47.488c-2.892 0-5.242-1.112-7.047-3.333-1.808-2.223-2.71-4.767-2.71-7.636v-4.271a50.641 50.641 0 0 0-7.032-.171z"/><g><radialGradient id="c" cx="52.58" cy="63.063" r="38.07" gradientUnits="userSpaceOnUse"><stop offset="0" stop-color="#5ba59b"/><stop offset="1" stop-color="#1c433f"/></radialGradient><path fill="url(#c)" d="M73.654 64.714c4.893-.997 9.62-2.901 13.709-5.79a41.143 41.143 0 0 1-15.427 8.029c-5.616 1.542-11.642 1.637-17.269.088-2.27-.583-4.402-1.572-6.645-2.254-10.816-3.445-22.794-2.933-33.342 1.21 4.543-2.49 9.488-4.324 14.657-4.939 7.672-.994 15.457.237 22.819 2.438 6.929 2.092 14.378 2.676 21.498 1.218z"/><radialGradient id="d" cx="52.581" cy="63.063" r="38.071" gradientUnits="userSpaceOnUse"><stop offset="0" stop-color="#5ba59b"/><stop offset="1" stop-color="#1c433f"/></radialGradient><path fill="url(#d)" d="M77.154 60.452c4.131-1.075 8.089-2.871 11.586-5.314-5.833 4.775-12.949 8.11-20.465 9.041-4.099.512-8.288.193-12.271-.866-2.717-.702-5.249-1.954-7.959-2.657-10.464-3.021-21.882-2.382-32.013 1.568 3.948-2.152 8.187-3.849 12.635-4.611 8.312-1.488 16.874-.262 24.882 2.176 7.627 2.265 15.877 2.73 23.605.663z"/></g></svg>