<svg xmlns:xlink="http://www.w3.org/1999/xlink"  xmlns="http://www.w3.org/2000/svg" width="100" height="100" viewBox="0 0 100 100"><path fill="none" d="M64.188 89.962c-1.93.801-3.889 1.377-5.852 1.812 3.646-.282 6.474-.871 8.438-1.778 1.785-.87 3.011-2.014 3.677-3.431a35.17 35.17 0 0 1-6.263 3.397zM78.674 30.509V30.4l-.21-.205h-.835c-.426 0-.847.061-1.266.149.382.408.738.842 1.105 1.267a5.36 5.36 0 0 1 .892-.786l.314-.316z"/><linearGradient id="a" gradientUnits="userSpaceOnUse" x1="15.35" y1="42.31" x2="86.551" y2="42.31"><stop offset="0" stop-color="#7e7f80"/><stop offset="1"/></linearGradient><path fill="url(#a)" d="M17.613 43.202c.213-.596.412-1.198.655-1.783-.243.584-.441 1.187-.655 1.783z"/><linearGradient id="b" gradientUnits="userSpaceOnUse" x1="15.346" y1="19.454" x2="86.455" y2="19.454"><stop offset="0" stop-color="#7e7f80"/><stop offset="1"/></linearGradient><path fill="url(#b)" d="M46.448 19.562c.544-.071 1.087-.172 1.631-.215-.544.042-1.087.143-1.631.215z"/><linearGradient id="c" gradientUnits="userSpaceOnUse" x1="15.349" y1="20.042" x2="86.451" y2="20.042"><stop offset="0" stop-color="#7e7f80"/><stop offset="1"/></linearGradient><path fill="url(#c)" d="M42.728 20.263c.614-.148 1.229-.33 1.845-.442-.617.112-1.231.294-1.845.442z"/><linearGradient id="d" gradientUnits="userSpaceOnUse" x1="15.343" y1="19.259" x2="86.456" y2="19.259"><stop offset="0" stop-color="#7e7f80"/><stop offset="1"/></linearGradient><path fill="url(#d)" d="M50.006 19.281c.522-.013 1.05-.056 1.571-.043-.521-.013-1.049.03-1.571.043z"/><linearGradient id="e" gradientUnits="userSpaceOnUse" x1="15.352" y1="45.655" x2="86.503" y2="45.655"><stop offset="0" stop-color="#7e7f80"/><stop offset="1"/></linearGradient><path fill="url(#e)" d="M16.567 46.619c.164-.645.314-1.295.512-1.927-.198.637-.346 1.282-.512 1.927z"/><linearGradient id="f" gradientUnits="userSpaceOnUse" x1="15.355" y1="52.609" x2="85.892" y2="52.609"><stop offset="0" stop-color="#7e7f80"/><stop offset="1"/></linearGradient><path fill="url(#f)" d="M15.463 53.69c.042-.72.077-1.446.161-2.163-.085.717-.118 1.444-.161 2.163z"/><linearGradient id="g" gradientUnits="userSpaceOnUse" x1="15.402" y1="19.93" x2="86.411" y2="19.93"><stop offset="0" stop-color="#7e7f80"/><stop offset="1"/></linearGradient><path fill="url(#g)" d="M56.807 19.785c.55.095 1.104.167 1.648.291-.544-.124-1.099-.197-1.648-.291z"/><linearGradient id="h" gradientUnits="userSpaceOnUse" x1="15.392" y1="19.424" x2="86.413" y2="19.424"><stop offset="0" stop-color="#7e7f80"/><stop offset="1"/></linearGradient><path fill="url(#h)" d="M53.447 19.363c.533.041 1.068.059 1.597.121-.528-.062-1.064-.08-1.597-.121z"/><linearGradient id="i" gradientUnits="userSpaceOnUse" x1="15.353" y1="49.097" x2="86.479" y2="49.097"><stop offset="0" stop-color="#7e7f80"/><stop offset="1"/></linearGradient><path fill="url(#i)" d="M15.848 50.125c.107-.687.203-1.377.348-2.055-.147.678-.241 1.368-.348 2.055z"/><linearGradient id="j" gradientUnits="userSpaceOnUse" x1="15.355" y1="66.936" x2="86.387" y2="66.936"><stop offset="0" stop-color="#7e7f80"/><stop offset="1"/></linearGradient><path fill="url(#j)" d="M17.436 68.149a36.903 36.903 0 0 1-.772-2.428c.218.814.495 1.623.772 2.428z"/><linearGradient id="k" gradientUnits="userSpaceOnUse" x1="15.355" y1="25.767" x2="86.437" y2="25.767"><stop offset="0" stop-color="#7e7f80"/><stop offset="1"/></linearGradient><path fill="url(#k)" d="M30.13 26.2c.386-.286.749-.596 1.146-.868-.397.272-.76.583-1.146.868z"/><linearGradient id="l" gradientUnits="userSpaceOnUse" x1="15.36" y1="20.766" x2="86.443" y2="20.766"><stop offset="0" stop-color="#7e7f80"/><stop offset="1"/></linearGradient><path fill="url(#l)" d="M60.087 20.523c.567.157 1.145.297 1.704.485-.56-.188-1.137-.328-1.704-.485z"/><linearGradient id="m" gradientUnits="userSpaceOnUse" x1="15.351" y1="27.995" x2="86.457" y2="27.995"><stop offset="0" stop-color="#7e7f80"/><stop offset="1"/></linearGradient><path fill="url(#m)" d="M27.329 28.516c.379-.345.734-.712 1.128-1.043-.395.331-.749.698-1.128 1.043z"/><linearGradient id="n" gradientUnits="userSpaceOnUse" x1="15.351" y1="33.141" x2="86.463" y2="33.141"><stop offset="0" stop-color="#7e7f80"/><stop offset="1"/></linearGradient><path fill="url(#n)" d="M22.596 33.807c.324-.444.629-.902.974-1.332-.345.43-.651.885-.974 1.332z"/><linearGradient id="o" gradientUnits="userSpaceOnUse" x1="15.352" y1="21.281" x2="86.447" y2="21.281"><stop offset="0" stop-color="#7e7f80"/><stop offset="1"/></linearGradient><path fill="url(#o)" d="M37.619 21.898z"/><linearGradient id="p" gradientUnits="userSpaceOnUse" x1="15.354" y1="39.097" x2="86.447" y2="39.097"><stop offset="0" stop-color="#7e7f80"/><stop offset="1"/></linearGradient><path fill="url(#p)" d="M18.974 39.916c.257-.548.495-1.103.778-1.638-.283.535-.522 1.09-.778 1.638z"/><linearGradient id="q" gradientUnits="userSpaceOnUse" x1="15.348" y1="36.031" x2="86.514" y2="36.031"><stop offset="0" stop-color="#7e7f80"/><stop offset="1"/></linearGradient><path fill="url(#q)" d="M20.637 36.773c.294-.497.57-1.004.886-1.485-.316.482-.592.989-.886 1.485z"/><linearGradient id="r" gradientUnits="userSpaceOnUse" x1="15.339" y1="23.78" x2="86.49" y2="23.78"><stop offset="0" stop-color="#7e7f80"/><stop offset="1"/></linearGradient><path fill="url(#r)" d="M33.312 24.091c.345-.203.668-.432 1.023-.622-.356.19-.678.419-1.023.622z"/><linearGradient id="s" gradientUnits="userSpaceOnUse" x1="15.354" y1="30.455" x2="86.443" y2="30.455"><stop offset="0" stop-color="#7e7f80"/><stop offset="1"/></linearGradient><path fill="url(#s)" d="M24.828 31.048c.353-.395.686-.81 1.057-1.187-.372.38-.704.792-1.057 1.187z"/><linearGradient id="t" gradientUnits="userSpaceOnUse" x1="15.354" y1="56.177" x2="86.52" y2="56.177"><stop offset="0" stop-color="#7e7f80"/><stop offset="1"/></linearGradient><path fill="url(#t)" d="M15.42 57.307c-.028-.754-.062-1.509-.043-2.26-.019.751.017 1.506.043 2.26z"/><linearGradient id="u" gradientUnits="userSpaceOnUse" x1="15.353" y1="59.769" x2="86.482" y2="59.769"><stop offset="0" stop-color="#7e7f80"/><stop offset="1"/></linearGradient><path fill="url(#u)" d="M15.729 60.936c-.105-.78-.213-1.554-.269-2.334.056.78.165 1.553.269 2.334z"/><linearGradient id="v" gradientUnits="userSpaceOnUse" x1="15.345" y1="26.645" x2="86.448" y2="26.645"><stop offset="0" stop-color="#7e7f80"/><stop offset="1"/></linearGradient><path fill="url(#v)" d="M68.683 30.917c1.237-1.672 2.624-2.955 4.175-3.803a35.423 35.423 0 0 0-7.629-4.741c.454.604.877 1.254 1.252 1.979-.001 0 1.291 2.677 2.202 6.565z"/><linearGradient id="w" gradientUnits="userSpaceOnUse" x1="15.354" y1="73.217" x2="86.443" y2="73.217"><stop offset="0" stop-color="#7e7f80"/><stop offset="1"/></linearGradient><path fill="url(#w)" d="M33.588 76.741c-2.087-.971-3.618-2.156-4.591-3.551-1.044-1.459-1.567-3.162-1.567-5.112 0-1.557.243-2.904.677-4.093-3.564 1.414-7.099 3.094-10.361 5.091.069.189.116.382.19.57a36.592 36.592 0 0 0 8.439 12.803 7.047 7.047 0 0 1 1.369-2.263c1.112-1.325 3.061-2.473 5.844-3.445z"/><linearGradient id="x" gradientUnits="userSpaceOnUse" x1="15.354" y1="84.879" x2="86.443" y2="84.879"><stop offset="0" stop-color="#7e7f80"/><stop offset="1"/></linearGradient><path fill="url(#x)" d="M70.452 86.565c.402-.844.601-1.789.601-2.832 0-1.809-.66-3.168-1.98-4.071-1.323-.904-3.444-1.355-6.366-1.355L50.6 78.095h-2.712c-.768 0-1.428-.034-1.985-.104h-4.591c-.417 0-.8-.036-1.148-.102h-1.251c-.419 0-.87-.036-1.356-.107-1.253.904-2.124 1.812-2.61 2.713-.556.977-.834 2.159-.834 3.552 0 2.711 1.531 4.697 4.592 5.949 2.924 1.319 7.654 1.979 14.193 1.979 1.994 0 3.792-.071 5.442-.201 1.963-.436 3.922-1.012 5.852-1.812a35.317 35.317 0 0 0 6.26-3.397z"/><linearGradient id="y" gradientUnits="userSpaceOnUse" x1="15.405" y1="21.921" x2="86.422" y2="21.921"><stop offset="0" stop-color="#7e7f80"/><stop offset="1"/></linearGradient><path fill="url(#y)" d="M63.273 21.576c.583.225 1.172.435 1.744.691-.572-.257-1.161-.467-1.744-.691z"/><linearGradient id="z" gradientUnits="userSpaceOnUse" x1="15.353" y1="63.363" x2="86.44" y2="63.363"><stop offset="0" stop-color="#7e7f80"/><stop offset="1"/></linearGradient><path fill="url(#z)" d="M16.398 64.56c-.188-.796-.377-1.593-.512-2.393.135.8.324 1.597.512 2.393z"/><linearGradient id="A" gradientUnits="userSpaceOnUse" x1="15.354" y1="53.41" x2="86.445" y2="53.41"><stop offset="0" stop-color="#7e7f80"/><stop offset="1"/></linearGradient><path fill="url(#A)" d="M83.859 42.21c-.293-.744-.64-1.445-.971-2.158a5.32 5.32 0 0 1-1.607.266c-1.459 0-2.646-.557-3.546-1.669-.974-1.109-1.465-2.402-1.465-3.859 0-.767.173-1.498.524-2.193.178-.356.404-.682.674-.984-.367-.425-.724-.859-1.105-1.267a7.099 7.099 0 0 0-2.387 1c-1.187.766-2.332 1.912-3.445 3.445.35.695.679 1.375.992 2.029a13.6 13.6 0 0 1 .786 2.146c.134.764.259 1.548.362 2.344.106.803.156 1.617.156 2.449 0 5.365-1.982 9.71-5.949 13.048-3.895 3.413-9.08 5.115-15.548 5.115a32.86 32.86 0 0 1-6.471-.628c-1.575-.305-2.999-.758-4.349-1.284-1.288.328-2.615.69-3.969 1.086-.126.138-.252.273-.347.409-.556.767-.834 1.601-.834 2.503 0 1.812.869 3.064 2.61 3.76 1.739.767 4.765 1.145 9.081 1.145L65 68.81c5.774.139 9.844 1.009 12.215 2.608 1.571 1.157 2.607 2.852 3.134 5.057a37.68 37.68 0 0 0 3.51-34.265z"/><radialGradient id="B" cx="65.509" cy="30.877" r="42.335" gradientTransform="matrix(.91 0 0 .9396 1.146 13.522)" gradientUnits="userSpaceOnUse"><stop offset="0" stop-color="#00abeb"/><stop offset="1" stop-color="#4674b7"/></radialGradient><path fill="url(#B)" d="M15.886 62.167c-.069-.407-.102-.819-.157-1.231.056.412.088.82.157 1.231z"/><radialGradient id="C" cx="65.914" cy="30.889" r="42.609" gradientTransform="matrix(.91 0 0 .9396 1.146 13.522)" gradientUnits="userSpaceOnUse"><stop offset="0" stop-color="#00abeb"/><stop offset="1" stop-color="#4674b7"/></radialGradient><path fill="url(#C)" d="M41.077 20.665c.549-.162 1.1-.266 1.65-.402-.55.136-1.101.24-1.65.402z"/><radialGradient id="D" cx="66.35" cy="30.912" r="42.951" gradientTransform="matrix(.91 0 0 .9396 1.146 13.522)" gradientUnits="userSpaceOnUse"><stop offset="0" stop-color="#00abeb"/><stop offset="1" stop-color="#4674b7"/></radialGradient><path fill="url(#D)" d="M15.46 58.602c-.029-.434-.025-.862-.04-1.295.015.432.01.861.04 1.295z"/><radialGradient id="E" cx="65.904" cy="30.915" r="42.634" gradientTransform="matrix(.91 0 0 .9396 1.146 13.522)" gradientUnits="userSpaceOnUse"><stop offset="0" stop-color="#00abeb"/><stop offset="1" stop-color="#4674b7"/></radialGradient><path fill="url(#E)" d="M58.455 20.076c.551.127 1.088.296 1.632.447-.544-.151-1.081-.32-1.632-.447z"/><radialGradient id="F" cx="65.9" cy="30.989" r="42.772" gradientTransform="matrix(.91 0 0 .9396 1.146 13.522)" gradientUnits="userSpaceOnUse"><stop offset="0" stop-color="#00abeb"/><stop offset="1" stop-color="#4674b7"/></radialGradient><path fill="url(#F)" d="M61.791 21.008c.503.168.985.378 1.482.567-.497-.189-.979-.398-1.482-.567z"/><radialGradient id="G" cx="65.884" cy="30.919" r="42.603" gradientTransform="matrix(.91 0 0 .9396 1.146 13.522)" gradientUnits="userSpaceOnUse"><stop offset="0" stop-color="#00abeb"/><stop offset="1" stop-color="#4674b7"/></radialGradient><path fill="url(#G)" d="M28.457 27.473c.534-.449 1.11-.853 1.674-1.273-.564.421-1.14.824-1.674 1.273z"/><radialGradient id="H" cx="65.924" cy="30.898" r="42.629" gradientTransform="matrix(.91 0 0 .9396 1.146 13.522)" gradientUnits="userSpaceOnUse"><stop offset="0" stop-color="#00abeb"/><stop offset="1" stop-color="#4674b7"/></radialGradient><path fill="url(#H)" d="M15.377 55.047c.01-.453.058-.903.086-1.356-.028.453-.076.903-.086 1.356z"/><radialGradient id="I" cx="65.872" cy="30.654" r="42.149" gradientTransform="matrix(.91 0 0 .9396 1.146 13.522)" gradientUnits="userSpaceOnUse"><stop offset="0" stop-color="#00abeb"/><stop offset="1" stop-color="#4674b7"/></radialGradient><path fill="url(#I)" d="M65.207 22.342c-.06-.03-.125-.047-.189-.076.073.031.14.074.211.106l-.022-.03z"/><radialGradient id="J" cx="66.282" cy="30.85" r="42.895" gradientTransform="matrix(.91 0 0 .9396 1.146 13.522)" gradientUnits="userSpaceOnUse"><stop offset="0" stop-color="#00abeb"/><stop offset="1" stop-color="#4674b7"/></radialGradient><path fill="url(#J)" d="M16.664 65.722c-.104-.385-.174-.775-.265-1.162.091.386.16.775.265 1.162z"/><radialGradient id="K" cx="65.856" cy="30.903" r="42.567" gradientTransform="matrix(.91 0 0 .9396 1.146 13.522)" gradientUnits="userSpaceOnUse"><stop offset="0" stop-color="#00abeb"/><stop offset="1" stop-color="#4674b7"/></radialGradient><path fill="url(#K)" d="M25.884 29.861c.459-.471.959-.903 1.444-1.345-.485.445-.985.875-1.444 1.345z"/><radialGradient id="L" cx="65.913" cy="30.902" r="42.623" gradientTransform="matrix(.91 0 0 .9396 1.146 13.522)" gradientUnits="userSpaceOnUse"><stop offset="0" stop-color="#00abeb"/><stop offset="1" stop-color="#4674b7"/></radialGradient><path fill="url(#L)" d="M23.569 32.475c.397-.492.835-.954 1.258-1.427-.422.473-.861.935-1.258 1.427z"/><radialGradient id="M" cx="65.906" cy="31.07" r="42.893" gradientTransform="matrix(.91 0 0 .9396 1.146 13.522)" gradientUnits="userSpaceOnUse"><stop offset="0" stop-color="#00abeb"/><stop offset="1" stop-color="#4674b7"/></radialGradient><path fill="url(#M)" d="M55.044 19.484c.594.071 1.175.198 1.763.3-.588-.103-1.169-.229-1.763-.3z"/><radialGradient id="N" cx="65.893" cy="30.924" r="42.62" gradientTransform="matrix(.91 0 0 .9396 1.146 13.522)" gradientUnits="userSpaceOnUse"><stop offset="0" stop-color="#00abeb"/><stop offset="1" stop-color="#4674b7"/></radialGradient><path fill="url(#N)" d="M34.335 23.469z"/><radialGradient id="O" cx="65.9" cy="31.325" r="43.196" gradientTransform="matrix(.91 0 0 .9396 1.146 13.522)" gradientUnits="userSpaceOnUse"><stop offset="0" stop-color="#00abeb"/><stop offset="1" stop-color="#4674b7"/></radialGradient><path fill="url(#O)" d="M48.079 19.346c.644-.054 1.284-.048 1.927-.065-.643.017-1.283.011-1.927.065z"/><radialGradient id="P" cx="65.869" cy="30.9" r="42.581" gradientTransform="matrix(.91 0 0 .9396 1.146 13.522)" gradientUnits="userSpaceOnUse"><stop offset="0" stop-color="#00abeb"/><stop offset="1" stop-color="#4674b7"/></radialGradient><path fill="url(#P)" d="M19.752 38.278c.272-.514.589-1.005.885-1.504-.296.502-.613.99-.885 1.504z"/><radialGradient id="Q" cx="65.781" cy="30.9" r="42.502" gradientTransform="matrix(.91 0 0 .9396 1.146 13.522)" gradientUnits="userSpaceOnUse"><stop offset="0" stop-color="#00abeb"/><stop offset="1" stop-color="#4674b7"/></radialGradient><path fill="url(#Q)" d="M18.269 41.419c.214-.509.468-1.002.705-1.503-.237.501-.492.994-.705 1.503z"/><radialGradient id="R" cx="65.799" cy="30.903" r="42.525" gradientTransform="matrix(.91 0 0 .9396 1.146 13.522)" gradientUnits="userSpaceOnUse"><stop offset="0" stop-color="#00abeb"/><stop offset="1" stop-color="#4674b7"/></radialGradient><path fill="url(#R)" d="M16.195 48.07c.104-.492.249-.967.372-1.451-.123.484-.267.959-.372 1.451z"/><radialGradient id="S" cx="65.894" cy="31.319" r="43.111" gradientTransform="matrix(.91 0 0 .9396 1.146 13.522)" gradientUnits="userSpaceOnUse"><stop offset="0" stop-color="#00abeb"/><stop offset="1" stop-color="#4674b7"/></radialGradient><path fill="url(#S)" d="M44.572 19.821c.626-.121 1.251-.18 1.876-.26-.625.081-1.249.139-1.876.26z"/><radialGradient id="T" cx="65.734" cy="30.9" r="42.465" gradientTransform="matrix(.91 0 0 .9396 1.146 13.522)" gradientUnits="userSpaceOnUse"><stop offset="0" stop-color="#00abeb"/><stop offset="1" stop-color="#4674b7"/></radialGradient><path fill="url(#T)" d="M17.079 44.692c.157-.503.356-.994.534-1.49-.177.496-.377.987-.534 1.49z"/><radialGradient id="U" cx="65.898" cy="30.87" r="42.589" gradientTransform="matrix(.91 0 0 .9396 1.146 13.522)" gradientUnits="userSpaceOnUse"><stop offset="0" stop-color="#00abeb"/><stop offset="1" stop-color="#4674b7"/></radialGradient><path fill="url(#U)" d="M31.276 25.333c.653-.443 1.347-.838 2.036-1.242-.689.404-1.383.798-2.036 1.242z"/><radialGradient id="V" cx="65.862" cy="30.898" r="42.573" gradientTransform="matrix(.91 0 0 .9396 1.146 13.522)" gradientUnits="userSpaceOnUse"><stop offset="0" stop-color="#00abeb"/><stop offset="1" stop-color="#4674b7"/></radialGradient><path fill="url(#V)" d="M21.523 35.288c.334-.507.712-.991 1.073-1.481-.361.49-.739.974-1.073 1.481z"/><radialGradient id="W" cx="65.883" cy="30.896" r="42.597" gradientTransform="matrix(.91 0 0 .9396 1.146 13.522)" gradientUnits="userSpaceOnUse"><stop offset="0" stop-color="#00abeb"/><stop offset="1" stop-color="#4674b7"/></radialGradient><path fill="url(#W)" d="M15.624 51.527c.057-.471.149-.934.224-1.403-.075.47-.167.933-.224 1.403z"/><radialGradient id="X" cx="66.032" cy="30.931" r="42.687" gradientTransform="matrix(.91 0 0 .9396 1.146 13.522)" gradientUnits="userSpaceOnUse"><stop offset="0" stop-color="#00abeb"/><stop offset="1" stop-color="#4674b7"/></radialGradient><path fill="url(#X)" d="M17.733 69.085c.004-.003.007-.007.013-.009-.115-.305-.205-.617-.311-.927.107.312.183.627.298.936z"/><radialGradient id="Y" cx="65.899" cy="30.601" r="42.148" gradientTransform="matrix(.91 0 0 .9396 1.146 13.522)" gradientUnits="userSpaceOnUse"><stop offset="0" stop-color="#00abeb"/><stop offset="1" stop-color="#4674b7"/></radialGradient><path fill="url(#Y)" d="M51.577 19.238c.627.011 1.248.08 1.87.125-.622-.045-1.243-.114-1.87-.125z"/><linearGradient id="Z" gradientUnits="userSpaceOnUse" x1="15.372" y1="44.156" x2="86.465" y2="44.156"><stop offset="0" stop-color="#7e7f80"/><stop offset="1"/></linearGradient><path fill="url(#Z)" d="M29.415 61.607c1.319-1.669 3.444-3.057 6.364-4.176-2.086-1.527-3.688-3.374-4.8-5.532-1.042-1.943-1.563-4.238-1.563-6.882 0-5.984 1.982-10.752 5.947-14.299 4.036-3.479 9.324-5.218 15.865-5.218 3.407 0 6.571.486 9.494 1.461 2.716.974 5.181 2.537 7.409 4.697.176-.265.367-.496.552-.743-.91-3.888-2.202-6.564-2.202-6.564a13.87 13.87 0 0 0-1.252-1.979c-.071-.032-.138-.075-.211-.106-.572-.256-1.161-.466-1.744-.691-.497-.189-.979-.399-1.482-.567-.56-.188-1.137-.328-1.704-.485-.544-.151-1.081-.32-1.632-.447-.544-.124-1.099-.196-1.648-.291-.588-.102-1.169-.229-1.763-.3-.528-.062-1.063-.08-1.597-.121-.622-.045-1.243-.114-1.87-.125-.521-.013-1.049.03-1.571.043-.643.017-1.283.011-1.927.065-.544.043-1.087.144-1.631.215-.625.08-1.25.139-1.876.26-.616.112-1.23.293-1.845.442-.55.136-1.102.24-1.65.402a35.17 35.17 0 0 0-6.742 2.804c-.355.19-.678.419-1.023.622-.689.404-1.383.798-2.036 1.242-.397.271-.76.582-1.146.868-.563.42-1.14.824-1.674 1.273-.394.331-.749.698-1.128 1.043-.485.442-.985.875-1.444 1.345-.371.377-.704.792-1.057 1.187-.423.473-.861.935-1.258 1.427-.344.43-.65.888-.974 1.332-.36.49-.738.974-1.073 1.481-.316.481-.592.989-.886 1.485-.296.499-.612.991-.885 1.504-.283.536-.521 1.09-.778 1.638-.237.5-.491.994-.705 1.503-.244.584-.442 1.187-.655 1.783-.178.497-.377.987-.534 1.49-.198.632-.348 1.282-.512 1.927-.123.483-.268.959-.372 1.451-.145.678-.241 1.368-.348 2.055-.075.469-.167.932-.224 1.403-.084.717-.118 1.443-.161 2.163-.028.453-.077.903-.086 1.356-.019.751.015 1.506.043 2.26.015.433.011.861.04 1.295.056.78.164 1.554.269 2.334.056.412.088.824.157 1.231.135.8.324 1.597.512 2.393.091.387.162.777.265 1.162.219.813.494 1.622.772 2.428.105.31.195.622.311.927 3.262-1.997 6.796-3.677 10.361-5.091.323-.887.742-1.696 1.308-2.38z"/><radialGradient id="aa" cx="65.901" cy="30.9" r="42.613" gradientTransform="matrix(.91 0 0 .9396 1.146 13.522)" gradientUnits="userSpaceOnUse"><stop offset="0" stop-color="#00abeb"/><stop offset="1" stop-color="#4674b7"/></radialGradient><path fill="url(#aa)" d="M29.415 61.607c1.319-1.669 3.444-3.057 6.364-4.176-2.086-1.527-3.688-3.374-4.8-5.532-1.042-1.943-1.563-4.238-1.563-6.882 0-5.984 1.982-10.752 5.947-14.299 4.036-3.479 9.324-5.218 15.865-5.218 3.407 0 6.571.486 9.494 1.461 2.716.974 5.181 2.537 7.409 4.697.176-.265.367-.496.552-.743-.91-3.888-2.202-6.564-2.202-6.564a13.87 13.87 0 0 0-1.252-1.979c-.071-.032-.138-.075-.211-.106-.572-.256-1.161-.466-1.744-.691-.497-.189-.979-.399-1.482-.567-.56-.188-1.137-.328-1.704-.485-.544-.151-1.081-.32-1.632-.447-.544-.124-1.099-.196-1.648-.291-.588-.102-1.169-.229-1.763-.3-.528-.062-1.063-.08-1.597-.121-.622-.045-1.243-.114-1.87-.125-.521-.013-1.049.03-1.571.043-.643.017-1.283.011-1.927.065-.544.043-1.087.144-1.631.215-.625.08-1.25.139-1.876.26-.616.112-1.23.293-1.845.442-.55.136-1.102.24-1.65.402a35.17 35.17 0 0 0-6.742 2.804c-.355.19-.678.419-1.023.622-.689.404-1.383.798-2.036 1.242-.397.271-.76.582-1.146.868-.563.42-1.14.824-1.674 1.273-.394.331-.749.698-1.128 1.043-.485.442-.985.875-1.444 1.345-.371.377-.704.792-1.057 1.187-.423.473-.861.935-1.258 1.427-.344.43-.65.888-.974 1.332-.36.49-.738.974-1.073 1.481-.316.481-.592.989-.886 1.485-.296.499-.612.991-.885 1.504-.283.536-.521 1.09-.778 1.638-.237.5-.491.994-.705 1.503-.244.584-.442 1.187-.655 1.783-.178.497-.377.987-.534 1.49-.198.632-.348 1.282-.512 1.927-.123.483-.268.959-.372 1.451-.145.678-.241 1.368-.348 2.055-.075.469-.167.932-.224 1.403-.084.717-.118 1.443-.161 2.163-.028.453-.077.903-.086 1.356-.019.751.015 1.506.043 2.26.015.433.011.861.04 1.295.056.78.164 1.554.269 2.334.056.412.088.824.157 1.231.135.8.324 1.597.512 2.393.091.387.162.777.265 1.162.219.813.494 1.622.772 2.428.105.31.195.622.311.927 3.262-1.997 6.796-3.677 10.361-5.091.323-.887.742-1.696 1.308-2.38z"/><linearGradient id="ab" gradientUnits="userSpaceOnUse" x1="15.35" y1="60.206" x2="86.451" y2="60.206"><stop offset="0" stop-color="#7e7f80"/><stop offset="1"/></linearGradient><path fill="url(#ab)" d="M39.016 59.316c-1.123.613-1.938 1.206-2.473 1.779 1.354-.396 2.681-.758 3.969-1.086-.5-.195-1.026-.367-1.496-.595v-.098z"/><radialGradient id="ac" cx="65.894" cy="30.926" r="42.583" gradientTransform="matrix(.91 0 0 .9396 1.146 13.522)" gradientUnits="userSpaceOnUse"><stop offset="0" stop-color="#00abeb"/><stop offset="1" stop-color="#4674b7"/></radialGradient><path fill="url(#ac)" d="M39.016 59.316c-1.123.613-1.938 1.206-2.473 1.779 1.354-.396 2.681-.758 3.969-1.086-.5-.195-1.026-.367-1.496-.595v-.098z"/><linearGradient id="ad" gradientUnits="userSpaceOnUse" x1="15.352" y1="43.865" x2="86.447" y2="43.865"><stop offset="0" stop-color="#7e7f80"/><stop offset="1"/></linearGradient><path fill="url(#ad)" d="M51.018 57.118c3.407 0 6.121-1.214 8.142-3.649 1.945-2.368 2.922-5.565 2.922-9.6 0-4.247-.977-7.482-2.922-9.706-2.021-2.299-4.841-3.445-8.456-3.445v-.105c-3.202.14-5.706 1.357-7.514 3.652-1.879 2.437-2.817 5.673-2.817 9.709 0 4.033.974 7.23 2.922 9.595 1.878 2.369 4.452 3.549 7.723 3.549z"/><radialGradient id="ae" cx="65.9" cy="30.902" r="42.607" gradientTransform="matrix(.91 0 0 .9396 1.146 13.522)" gradientUnits="userSpaceOnUse"><stop offset="0" stop-color="#00abeb"/><stop offset="1" stop-color="#4674b7"/></radialGradient><path fill="url(#ae)" d="M51.018 57.118c3.407 0 6.121-1.214 8.142-3.649 1.945-2.368 2.922-5.565 2.922-9.6 0-4.247-.977-7.482-2.922-9.706-2.021-2.299-4.841-3.445-8.456-3.445v-.105c-3.202.14-5.706 1.357-7.514 3.652-1.879 2.437-2.817 5.673-2.817 9.709 0 4.033.974 7.23 2.922 9.595 1.878 2.369 4.452 3.549 7.723 3.549z"/></svg>