<svg xmlns:xlink="http://www.w3.org/1999/xlink"  xmlns="http://www.w3.org/2000/svg" viewBox="0 0 150 150"><path fill="none" d="M103.8 112.9c-1 .8-2 1.7-3.1 2.5-1.6 1.2-3.3 2.5-4.9 4-1.5-1.4-3.1-2.7-4.8-3.9-.9-.7-1.9-1.5-2.8-2.3v-22c0-5.4-1-9.3-2.9-11.7-1.9-2.4-5-3.6-9.2-3.6-5.4 0-9.3 1.7-11.5 5-2.2 3.4-3.2 9.3-3.2 17.5v32.5H46V14.3h15.5v55c5.5-5 11.6-7.5 18.3-7.5 7.6 0 13.7 2.5 18.2 7.4 3.9 4.3 5.8 11.1 5.8 20.5v23.2z"/><path fill="#72BE44" d="M110.7 131.3v10.1H38.6V8.2h72.1v98.4c2-2.3 4.2-3.9 4.2-8.1V4H34.4v141.6H115v-17.9c-1.3 1.4-2.7 2.6-4.3 3.6z"/><path fill="#265C2E" d="M104.1 128.9c2.2-1.8 4.3-3.9 5.9-6.2 1.7-2.3 3-4.9 3.8-7.6-.2.3-.4.5-.6.8-.8 2.2-1.8 4.4-3.2 6.4-1.7 2.3-3.7 4.4-5.9 6.2-2.3 1.8-4.8 3.3-7.4 4.4-1.2.5-2.5.9-3.8 1.3h1c.9-.3 1.9-.6 2.8-.9 2.7-1.2 5.1-2.7 7.4-4.4zM117.8 104c-.4-1.2-.9-2.4-1.5-3.5v-.1.5c.6 1.1 1.1 2.3 1.5 3.5 1 2.9 1.3 5.9 1.1 8.8.2-3-.1-6.1-1.1-9.2zM108.6 113.2c3.1-3 7.3-7.6 7.6-11.2v-.4c-.3 3.6-4.5 8.2-7.6 11.2-6.9 6.6-16 9.5-17 20.8 0 0 .1 0 .1-.1 1.3-10.8 10.1-13.8 16.9-20.3z"/><path fill="#3D3D3D" d="M79.8 61.8c-6.7 0-12.8 2.5-18.3 7.5v-55H46V131h15.5V98.4c0-8.3 1.1-14.1 3.2-17.5 2.2-3.4 6-5 11.5-5 4.2 0 7.3 1.2 9.2 3.6 1.9 2.4 2.9 6.3 2.9 11.7v22c.9.7 1.8 1.6 2.8 2.3 1.7 1.3 3.3 2.6 4.8 3.9 1.6-1.4 3.2-2.7 4.9-4 1-.8 2-1.7 3.1-2.5V89.7c0-9.4-1.9-16.2-5.8-20.5-4.6-4.9-10.7-7.4-18.3-7.4z"/><path fill="#72BE44" d="M75.6 101.7v-1.3c-.6 1.1-1.1 2.3-1.5 3.6-4 12.1 2.6 25.2 14.8 29.2.2.1.5.1.7.2.1-.1.1-.2.2-.3-.1 0-.1.1-.2.1.1-1.1.3-2.1.5-3.1-.8-.5-1.6-1.1-2.3-1.6-2.2-1.8-4.3-3.9-5.9-6.2-1.7-2.3-3-4.9-3.8-7.6 3 4.8 6.6 9 10.9 12.4.6.5 1.1.9 1.7 1.3.2-.5.6-.7.8-1.2.9-1.9 1.9-3.6 3.3-5l-.3-.3c-3.3-3.1-7.5-5.6-11.1-9-3.3-3-7.5-7.6-7.8-11.2z"/><path fill="#3D3D3D" d="M116.3 100.9c0-.1 0-.1 0 0 0-.1 0-.1 0 0V102.1c-.3 3.6-4.5 8.2-7.6 11.2-6.8 6.5-15.7 9.5-16.9 20.4 0 .2-.1.3-.1.4 1.5-.6 3-1.3 4.5-2.1 2.4-1.3 4.7-2.8 6.9-4.5 4.1-3.2 7.4-7.1 10.3-11.6.2-.3.4-.5.6-.8-.9 2.7-2.2 5.3-3.8 7.6-1.7 2.3-3.7 4.4-5.9 6.2-2.3 1.8-4.8 3.3-7.4 4.4-.9.4-1.8.7-2.8.9-.3.1-.7.3-1 .4 3.3.4 6.7.2 10.1-.9 9.2-3 15.2-11.3 15.9-20.4.2-2.9-.1-5.9-1.1-8.8-.6-1.3-1.1-2.5-1.7-3.6z"/></svg>