<svg xmlns:xlink="http://www.w3.org/1999/xlink"  xmlns="http://www.w3.org/2000/svg" viewBox="0 0 150 150"><path fill="#03A14A" d="M134.2 58.6c-.3-5.3-2.2-16.1-2.2-25.9 0-2.6.1-5.2.5-7.5V25c.3-2.1.9-4.1 1.6-5.8-22-.3-48.9-10-58.4-15.7-9.4 5.7-36.4 15.3-58.4 15.7.8 1.7 1.3 3.6 1.6 5.8v.2c.4 2.3.5 4.9.5 7.5 0 9.8-2 20.7-2.2 25.9-.1 1.4-.1 2.8-.1 4.2 0 11.4 2.4 22.8 7.2 33.2 10 22 31.1 39.7 51.4 52.1C96 135.8 117.1 118 127.1 96c4.8-10.5 7.2-21.8 7.2-33.2 0-1.4 0-2.8-.1-4.2zM75.7 141c-9.6-6.1-18.1-12.7-25.4-19.7-9.3-9-16.2-18.3-20.5-27.8-2.5-5.4-4.3-11.1-5.4-17-1.1-5.8-1.5-11.8-1.2-17.7.1-1.7.4-4.2.7-7 1-8.1 2.2-18.5 1-27.1 10.5-1 20.7-3.5 27.9-5.6 8.7-2.6 17-5.8 22.8-8.7 5.8 3 14.1 6.2 22.8 8.7 7.2 2.2 17.4 4.7 27.9 5.6-1.2 8.7 0 19 1 27.1.3 2.9.6 5.4.7 7 .3 5.9-.1 11.9-1.2 17.7-1.1 5.8-2.9 11.5-5.4 17-4.3 9.5-11.2 18.8-20.5 27.8-7 7-15.5 13.6-25.2 19.7z"/><path fill="#8AC53F" d="M124.3 59c-.1-1.5-.4-3.9-.7-6.7-.7-5.7-1.5-12.7-1.5-19.6 0-1.6.1-3.1.2-4.5-17.1-2.2-35.2-8-46.5-13.5C64.4 20.2 46.3 26 29.2 28.1c.1 1.4.2 3 .2 4.5 0 6.9-.8 14-1.5 19.6-.3 2.7-.6 5.2-.7 6.7l-.2 3.9c0 10.2 2.1 20 6.3 29.2 8.8 19.4 27.2 34.6 42.4 44.5 15.2-9.9 33.6-25.1 42.4-44.5 4.2-9.2 6.3-19 6.3-29.1l-.1-3.9zm-52-25.2c1.4-1.3 2.9-1.9 4.7-1.9 1.6 0 3.2.6 4.5 1.9 1.4 1.3 2.1 2.9 2.1 4.9s-.7 3.6-2.1 4.9c-1.4 1.3-2.9 1.9-4.5 1.9-1.7 0-3.3-.6-4.7-1.9-1.4-1.3-2.1-2.9-2.1-4.9s.7-3.6 2.1-4.9zM91 106.1H62.3V95.8h9.1v-28h-9.1V57.5h19.8v38.3H91v10.3z"/></svg>