<svg xmlns:xlink="http://www.w3.org/1999/xlink"  xmlns="http://www.w3.org/2000/svg" viewBox="0 0 1000 1000"><path fill="#F6A829" d="M307.3 374c-26.7 1.3-40 14.7-40 40.7 0 25.3 13.3 38.7 40 38.7h311.3c78.7 0 118 39.3 118 117.3S697.3 688 619.3 688L50 686.7c4 48.7 44.7 87.3 94.7 87.3h626l192.7 62.7-65.3-188v-276L307.3 374z"/><path fill="#FCD49C" d="M618.7 609.3c25.3-.7 38.7-14 38.7-40S644.7 530 618 530H307.3c-78.7 0-118-38.7-118-116.7s39.3-116.7 118-116.7l389.3-.7c2 0 4 0 6 .7H898v-12c0-52.7-42.7-95.3-95.3-95.3h-658c-52.7 0-95.3 42.7-95.3 95.3v322l569.3 2.7z"/></svg>