<svg xmlns:xlink="http://www.w3.org/1999/xlink"  xmlns="http://www.w3.org/2000/svg" viewBox="0 0 150 150"><path fill="#DE1F26" d="M34.9 117.4c2 0 3 1.1 3.5 2 3.1 5.6 6.1 8.8 7.5 8.8 1.4 0 2.5-1.9 4.7-10C55.9 99 61.3 79 66.9 58.2H55.2c-.9-2.6.4-5.9 1.9-6.5h11.7c2.2-7.2 4.9-14.6 8.6-21.2 5.6-10.1 14.5-18 26.8-18.1-9-4.2-19-6.6-29.6-6.6-38.6 0-70 31.3-70 70 0 20.5 8.9 39 23 51.8-.2-.7-.3-1.5-.3-2.3 0-4 4.3-7.9 7.6-7.9z"/><path fill="#F49291" d="M117.3 20.4c.1.7.2 1.5.2 2.3-.1 6.1-5.5 9.2-8 9.2-2 0-3-1.5-3.6-3.6-2.1-8-4.9-10.3-6.5-10.3-1.6 0-4.1 3-6.8 9.2-3.6 7.8-6 16.3-8.2 24.5h14.2c.9 1.7.1 5.5-2 6.5H82.5C77.9 73.6 74 88.4 69.4 103c-2.6 8.2-5.5 16.1-9.1 21-4 5.6-11.5 11-20.4 11-1.1 0-2.1-.1-3.1-.3 10.9 7 23.9 11.1 37.8 11.1 38.6 0 70-31.3 70-70 0-22.5-10.7-42.6-27.3-55.4z"/></svg>