<svg xmlns:xlink="http://www.w3.org/1999/xlink"  xmlns="http://www.w3.org/2000/svg" viewBox="0 0 1000 1000"><path fill="#170000" d="M439.1 503.5L184.5 252.2c-54.3 69.4-87 156.5-87 251.2 0 94.6 32.7 181.7 87 250.9l254.6-250.8z"/><path fill="#00A550" d="M214.7 570.9c-5-21.9-7.7-44.5-7.7-67.5s2.6-45.6 7.7-67.6l68.5 67.6-68.5 67.5z"/><path fill="#170000" d="M504.3 438.9l256.3-252.5C690.5 129.4 601.3 95 504.4 95c-96.6 0-185.5 34.3-255.5 91.2l255.4 252.7z"/><path fill="#00A550" d="M504.4 285.1L432 213.5c23.4-6 47.6-8.9 72.4-8.9 24.9 0 49.2 3.1 72.7 8.9l-72.7 71.6z"/><path fill="#170000" d="M504.3 567.7L249 820.2c70 56.8 158.8 91 255.4 91 96.9 0 186-34.3 256-91.2L504.3 567.7z"/><path fill="#00A550" d="M504.4 801.7c-24.6 0-48.8-3-72.1-8.8l72.1-71.3 72.4 71.2c-23.4 5.9-47.6 8.9-72.4 8.9z"/><path fill="#170000" d="M570.1 503.5l254.6 251c54.4-69.3 87.1-156.4 87.1-251.1 0-94.8-32.8-181.9-87.1-251.3L570.1 503.5z"/><path fill="#00A550" d="M794.6 571L726 503.4l68.5-67.7c5.1 22 7.8 44.6 7.8 67.7 0 23-2.6 45.6-7.7 67.6z"/><path fill="#170000" d="M504.5 51C255.7 51 52.6 254.1 52.6 503.3c0 248.8 203.1 451.9 451.9 451.9 249.2 0 452.3-203.1 452.3-451.9C956.8 254.1 753.7 51 504.5 51zm419.1 495.3l-2.6 21.1-3.8 20.6-4.8 20.7-5.6 19.9-6.7 19.7-7.4 19.2-8.6 18.5-9.4 18.2-10.1 17.8-11 16.8-11.7 16.5-12.5 16.1-13.2 15.4-13.9 14.6-14.6 13.9-15.4 13.4-15.8 12.5-16.5 11.7-17 11-18 10.4-18.2 9.1-18.5 8.6-19.2 7.4-19.5 6.8-20.1 5.7-20.2 4.8-20.9 3.6-21.1 2.6-21.1 1.7-21.8.7-21.6-.7-21.4-1.7-20.6-2.6-20.9-3.6-20.1-4.8-20.2-5.7-19.4-6.8L341 892l-18.7-8.6-18-9.1-17.8-10.3-17-11-16.5-11.8-15.8-12.5-15.4-13.4-14.6-13.9-13.9-14.6-13.3-15.4-12.7-16.1-11.7-16.5-10.8-16.8-10.3-17.8-9.3-18.2-8.4-18.5-7.5-19.2-6.7-19.7-5.8-19.9-4.6-20.7-3.8-20.6-2.6-21.1-1.7-21.3-.5-21.6.5-21.8 1.7-21.4 2.6-21.1 3.8-20.6 4.6-20.4 5.8-20.2 6.7-19.7 7.5-19 8.4-18.7 9.3-18.2 10.3-17.8 10.8-17 11.7-16.5 12.7-16.1 13.2-15.4 13.9-14.6 14.6-13.9 15.4-13.4 15.8-12.5 16.6-11.8 17-11 17.8-10.1 18-9.4 18.7-8.7 19.2-7.4 19.4-6.7 20.2-5.7 20.1-4.8 20.9-3.6 20.6-2.6 21.4-1.7 21.6-.7 21.8.7 21.1 1.7 21.1 2.6 20.9 3.6 20.2 4.8 20.1 5.7 19.5 6.7 19.2 7.4 18.7 8.7 18 9.4 17.8 10.1 17 11 16.5 11.8 15.8 12.5 15.4 13.4 14.6 13.9 13.9 14.6 13.2 15.4 12.5 16.1 11.7 16.5 11 17 10.1 17.8 9.4 18.2 8.6 18.7 7.4 19 6.7 19.7 5.6 20.2 4.8 20.4 3.8 20.6 2.6 21.1 1.7 21.4.5 21.8-.5 21.6-1.5 21.3z"/><path fill="#00A550" d="M925.2 481.5l-1.7-21.4-2.6-21.1-3.8-20.6-4.8-20.4-5.6-20.2-6.7-19.7-7.4-19-8.6-18.7-9.4-18.2-10.1-17.8-11-17-11.7-16.4-12.5-16.1-13.2-15.4-13.9-14.6-14.7-13.9-15.4-13.4-15.8-12.5-16.5-11.8-17-11-17.8-10.1-18-9.4-18.7-8.7-19.2-7.4-19.5-6.7-20.1-5.7-20.2-4.8-20.9-3.6-21.1-2.6-21.1-1.7-21.8-.7-21.6.7-21.4 1.7-20.6 2.6-20.8 3.6-20.1 4.8-20.2 5.7-19.4 6.7-19.2 7.4-18.7 8.7-18 9.4-17.8 10.1-17 11-16.6 11.8-15.8 12.5-15.4 13.4-14.6 13.9-13.9 14.6-13.3 15.4-12.7 16.1-11.7 16.5-10.8 17-10.3 17.8-9.3 18.2-8.4 18.7-7.5 19-6.7 19.7-5.8 20.2-4.6 20.4-3.8 20.6-2.6 21.1-1.7 21.4-.5 21.8.5 21.6 1.7 21.4 2.6 21.1 3.8 20.6 4.6 20.7 5.8 19.9 6.7 19.7 7.5 19.2 8.4 18.5 9.3 18.2 10.3 17.8 10.8 16.8 11.7 16.5 12.7 16.1 13.2 15.4 13.9 14.6 14.6 13.9 15.4 13.4 15.8 12.5 16.6 11.7 17 11 17.8 10.3 18 9.1L341 892l19.2 7.4 19.4 6.8 20.2 5.7 20.1 4.8 20.9 3.6 20.6 2.6 21.4 1.7 21.6.7 21.8-.7 21.1-1.7 21.1-2.6 20.9-3.6 20.2-4.8 20.1-5.7 19.5-6.8 19.2-7.4 18.5-8.6 18.2-9.1 17.8-10.3 17-11 16.5-11.7 15.8-12.5 15.4-13.4 14.6-13.9 13.9-14.6 13.2-15.4 12.5-16.1 11.7-16.5 11-16.8 10.1-17.8 9.4-18.2 8.6-18.5 7.4-19.2 6.7-19.7 5.6-19.9 4.8-20.7 3.8-20.6 2.6-21.1 1.7-21.4.5-21.6-.4-21.9zM504.4 95c96.9 0 186.1 34.4 256.2 91.4L504.3 438.9 248.9 186.2c70-56.9 158.9-91.2 255.5-91.2zM97.5 503.4c0-94.7 32.7-181.8 87-251.2l254.6 251.3-254.6 250.8c-54.3-69.3-87-156.3-87-250.9zm406.9 407.8c-96.5 0-185.4-34.2-255.4-91l255.2-252.5L760.5 820c-70.1 56.9-159.2 91.2-256.1 91.2zm320.3-156.8l-254.6-251L824.7 252c54.3 69.4 87.1 156.6 87.1 251.3 0 94.7-32.7 181.8-87.1 251.1z"/></svg>