<svg xmlns:xlink="http://www.w3.org/1999/xlink"  xmlns="http://www.w3.org/2000/svg" width="100" height="100" viewBox="0 0 100 100"><linearGradient id="a" gradientUnits="userSpaceOnUse" x1="27.887" y1="48.823" x2="72.095" y2="48.823"><stop offset=".103" stop-color="#cb2229"/><stop offset=".667" stop-color="#630414"/><stop offset="1" stop-color="#170000"/></linearGradient><path fill="url(#a)" d="M28.289 22.415c-.096 1.402-.18 2.81-.258 4.229-.19 3.816-.19 7.662-.011 11.487.169 3.449.499 6.885.977 10.311a110.937 110.937 0 0 0 3.586 16.28 117.795 117.795 0 0 0 2.351 6.983c.429 1.187.896 2.362 1.355 3.526a145.777 145.777 0 0 0 5.797-3.975 121.826 121.826 0 0 0 4.804-3.726 128.489 128.489 0 0 0 4.959-4.353 136.719 136.719 0 0 0 5.46-5.47c1.975-2.094 3.827-4.294 5.631-6.527 2.2-2.709 4.193-5.558 6.145-8.438a74.107 74.107 0 0 0 3.01-4.801c-1.653-1.027-22.654-10.649-39.77-14.795-1.294-.312-2.651-.54-4.036-.731z"/><path fill="#FFF" d="M29.443 31.219h11.084l9.297 19.536.994-7.954 2.039-13.747 11.184 2.165-6.313 35.841H46.742l-9.345-19.535-.945 8.152-2.038 17.878L23.13 67.06l6.313-35.841z"/><linearGradient id="b" gradientUnits="userSpaceOnUse" x1="53.355" y1="66.353" x2="35.483" y2="82.12"><stop offset=".103" stop-color="#cb2229"/><stop offset=".667" stop-color="#630414"/><stop offset="1" stop-color="#170000"/></linearGradient><path fill="url(#b)" d="M79.706 24.157c-2.521 4.783-4.842 9.683-7.611 14.327a74.38 74.38 0 0 1-3.01 4.801c-1.951 2.879-3.944 5.728-6.145 8.438-1.804 2.233-3.656 4.433-5.631 6.526a136.034 136.034 0 0 1-5.46 5.469 129.27 129.27 0 0 1-4.959 4.354 124.721 124.721 0 0 1-4.804 3.725 145.8 145.8 0 0 1-5.797 3.976 138.297 138.297 0 0 0 2.071 4.83c1.774 3.847 3.776 7.583 5.918 11.229a34.965 34.965 0 0 0 3.129-1.813c2.679-2.011 5.3-4.085 7.771-6.346a107.727 107.727 0 0 0 4.294-4.254 79.1 79.1 0 0 0 4.383-5.091c1.652-2.133 3.218-4.334 4.653-6.635 1.564-2.571 3.029-5.211 4.265-7.96 1.492-3.357 2.828-6.795 3.805-10.341.449-1.655.876-3.309 1.257-4.972 1.383-6.645 2.24-13.467 1.871-20.263z"/><linearGradient id="c" gradientUnits="userSpaceOnUse" x1="28.475" y1="66.702" x2="17.262" y2="24.129"><stop offset="0" stop-color="#00abeb"/><stop offset=".029" stop-color="#22aae7"/><stop offset=".06" stop-color="#3fa8e3"/><stop offset=".091" stop-color="#53a8e0"/><stop offset=".122" stop-color="#60a7df"/><stop offset=".151" stop-color="#64a7de"/><stop offset=".327" stop-color="#4674b7"/><stop offset=".521" stop-color="#333b8b"/><stop offset=".758" stop-color="#211c51"/><stop offset="1" stop-color="#171043"/></linearGradient><path fill="url(#c)" d="M38.361 80.604a138.297 138.297 0 0 1-2.071-4.83c-.459-1.165-.926-2.342-1.355-3.526a118.78 118.78 0 0 1-2.351-6.983 110.966 110.966 0 0 1-3.586-16.28 115.586 115.586 0 0 1-.977-10.311c-.18-3.826-.18-7.671.011-11.487.081-1.474.169-2.939.269-4.394a62.2 62.2 0 0 1-2.152-.25c-4.483-.337-9.016-.397-13.431.489a82.13 82.13 0 0 1-3.685.579c.07 3.098.199 6.197.499 9.275.358 3.667.886 7.322 1.643 10.918l.15.698a90.253 90.253 0 0 0 2.59 9.425c1.713 4.941 3.865 9.723 6.554 14.206.11.169.32.499.419.669a73.06 73.06 0 0 0 4.742 6.723 69.212 69.212 0 0 0 6.556 7.133c2.928 2.77 6.095 5.302 9.404 7.602a27.494 27.494 0 0 0 2.689 1.575c-2.142-3.648-4.144-7.385-5.918-11.231z"/><linearGradient id="d" gradientUnits="userSpaceOnUse" x1="8.653" y1="13.349" x2="93.793" y2="32.969"><stop offset="0" stop-color="#fff"/><stop offset="1" stop-color="#272525"/></linearGradient><path fill="url(#d)" d="M79.637 23.371c-2.679-1.277-5.21-2.85-7.899-4.106a79.245 79.245 0 0 0-6.557-2.788c-4.225-1.554-8.567-2.771-13.021-3.449-5.07-.775-10.231-.934-15.312-.277-9.275 1.235-19.925 5.877-27.816 10.859 8.31-1.465 16.479-1.564 23.293.079 17.115 4.146 38.116 13.768 39.77 14.796 2.77-4.644 5.091-9.544 7.611-14.327-.018-.2-.04-.599-.069-.787z"/></svg>