<svg xmlns:xlink="http://www.w3.org/1999/xlink"  xmlns="http://www.w3.org/2000/svg" width="100" height="100" viewBox="0 0 100 100"><radialGradient id="a" cx="50.492" cy="52.338" r="55.52" gradientUnits="userSpaceOnUse"><stop offset="0" stop-color="#7cc5f1"/><stop offset=".009" stop-color="#79c4f1"/><stop offset=".261" stop-color="#22b2ed"/><stop offset=".376" stop-color="#00abeb"/><stop offset=".465" stop-color="#00a4e3"/><stop offset=".605" stop-color="#0091cc"/><stop offset=".779" stop-color="#0072a7"/><stop offset=".979" stop-color="#004775"/><stop offset="1" stop-color="#00426f"/></radialGradient><path fill="url(#a)" d="M62.302 55.525l-7.058 3.621c-.689.341-1.384.671-2.076 1.01L51.635 68.7h21.332l-.456 11.889H32.808l2.253-12.797c-4.599 1.52-9.308 2.804-14.144 3.149-2.368.086-4.874.104-7.023-1.03-1.088-.546-1.945-1.652-1.938-2.905.048-1.393.786-2.646 1.636-3.701 1.872-2.22 4.344-3.841 6.909-5.161-2.183.595-4.213 1.643-6.189 2.704-2.685 1.568-5.362 3.507-6.838 6.322-.896 1.662-1.048 3.845.131 5.406 1.479 1.973 3.99 2.756 6.317 3.132 4.917.69 9.889-.16 14.657-1.364.077 1.681-.173 3.388.177 5.042.567 2.25 2.762 3.951 5.088 3.891 13.234-.006 26.465.007 39.705-.006 2.677-.061 5.012-2.46 4.983-5.144.047-3.941-.092-7.878-.039-11.821-.04-6.091.079-12.189-.066-18.283a164.61 164.61 0 0 0 5.261-4.015c3.015-2.445 6.101-4.851 8.743-7.707-2.234 1.49-4.344 3.157-6.566 4.667-7.589 5.268-15.448 10.155-23.563 14.557z"/><radialGradient id="b" cx="50.478" cy="52.337" r="55.537" gradientUnits="userSpaceOnUse"><stop offset="0" stop-color="#7cc5f1"/><stop offset=".009" stop-color="#79c4f1"/><stop offset=".261" stop-color="#22b2ed"/><stop offset=".376" stop-color="#00abeb"/><stop offset=".465" stop-color="#00a4e3"/><stop offset=".605" stop-color="#0091cc"/><stop offset=".779" stop-color="#0072a7"/><stop offset=".979" stop-color="#004775"/><stop offset="1" stop-color="#00426f"/></radialGradient><path fill="url(#b)" d="M82.62 78.557c.04 2.05-1.332 3.803-3.045 4.78.79-.18 1.595-.356 2.28-.811 1.503-.918 2.472-2.639 2.479-4.405V45.919c-.573.356-1.141.725-1.701 1.089-.006 10.517 0 21.032-.013 31.549z"/><radialGradient id="c" cx="30.905" cy="22.782" r="63.928" gradientUnits="userSpaceOnUse"><stop offset="0" stop-color="#ecba31"/><stop offset=".358" stop-color="#cb2229"/><stop offset=".661" stop-color="#a22430"/><stop offset="1" stop-color="#540000"/></radialGradient><path fill="url(#c)" d="M59.423 25.333l-5.339 29.728c1.993-.819 4.34-1.744 8.163-3.591 7.926-3.949 15.764-8.128 23.193-12.975 3.259-2.167 6.549-4.323 9.508-6.896-5.419 2.624-10.739 5.447-16.126 8.148.013-5.59 0-11.173.013-16.773.021-.89-.172-1.792-.645-2.558l.528.027c.942.39 1.885.817 2.677 1.464.591.5 1.197 1.146 1.173 1.978.116 3.969.04 7.944.064 11.914.561-.277 1.122-.561 1.694-.838.007-3.46.007-6.923 0-10.384.019-1.134-.508-2.334-1.568-2.829-1.549-.711-3.264-.982-4.8-1.74a4.012 4.012 0 0 0-3.935-1.134c-3.852 1.042-7.689 2.137-11.533 3.191l-18.368 5.097c-3.415.989-6.85 1.906-10.271 2.867-2.25.667-3.991 2.591-4.695 4.801-.375 1.146-.29 2.381-.296 3.573v16.779c-3.277 1.227-6.587 2.559-9.377 4.708-1.002.817-2.167 1.979-1.844 3.39.415 1.265 1.917 1.576 3.071 1.721 2.889.271 5.776-.278 8.584-.916 2.298-.542 4.547-1.248 6.775-2.015l5.727-32.507 17.627-4.23z"/></svg>