<svg xmlns:xlink="http://www.w3.org/1999/xlink"  xmlns="http://www.w3.org/2000/svg" viewBox="0 0 150 150"><path fill="none" d="M44.8 72.8H32.2v6.6h1.2V85H40v2.7h-6.6v11.2c0 1.7.3 2.8.8 3.4.5.6 1.5.9 2.9.9.6 0 1.1 0 1.5-.1.5-.1.9-.1 1.4-.2v2.1c-1.3.5-2.5.8-3.7 1.1-1.2.2-2.2.4-3.2.4-.4 0-.7 0-1-.1v8H46v-10.9h-1.2V72.8zM114.2 84.7h.2c.1 0 .2 0 .2-.1.1 0 .1 0 .2-.1.1 0 .1-.1.2-.1s.1-.1.2-.1.1-.1.2-.1.1-.1.2-.2c.1 0 .1-.1.2-.1l.2-.2.2-.2c.1-.1.2-.2.2-.3l.1-.1c.1-.2.2-.3.3-.5.9-1.4 1.3-3.4 1.3-5.8 0-2.2-.4-4-1.3-5.4-.1-.2-.2-.3-.3-.5 0-.1-.1-.1-.1-.2-.1-.1-.1-.2-.2-.2l-.2-.2-.2-.2c-.1-.1-.2-.1-.2-.2l-.1-.1c-.1-.1-.2-.1-.3-.2 0 0-.1 0-.1-.1-.1-.1-.2-.1-.3-.1h-.1c-.1 0-.2-.1-.4-.1h-.1c-.1 0-.3-.1-.4-.1v15.4c.2.2.3.1.4.1zM116.7 108.8c.2-.1.4-.2.6-.2 0 0 .1 0 .1-.1.2-.1.3-.2.5-.2.1 0 .1-.1.2-.1.1-.1.2-.1.3-.2.2-.1.3-.3.5-.4 1.3-1.2 2-2.6 2-4.4 0-1.4-.4-2.4-1.3-3.1-.9-.7-2.6-1.3-5.1-1.8l-.6-.1v11.1c1.1 0 2-.2 2.8-.5z"/><path fill="none" d="M113.9 66.3c.6 0 1.2.1 1.9.1h.1c.3 0 .5.1.8.1.3.1.6.1 1 .2 1.3.3 3.8 1.4 5.1 2.8.8-.6 2.7-2.2 4-3 .4-.2.8-.4 1.1-.4H128.2c.1 0 .1.1.1.1.1.1.1.1.1.3l.4.8.9 1.7s.2.4-.2.9l-.1.1c-.2.2-.5.5-1 .7-.5.2-1.2.5-2 .8-.4.1-.9.2-1.5.4-.2 0-.4.1-.6.1.4.8.7 1.5.9 2.3.2.8.3 1.7.3 2.5 0 3.2-1.1 5.8-3.4 7.8-.3.2-.6.5-.8.7-.1.1-.3.2-.4.2-.2.1-.3.2-.5.3-.2.1-.4.2-.5.3-.1.1-.3.1-.4.2-.2.1-.4.2-.7.3-.1 0-.2.1-.4.1-.3.1-.5.2-.8.2-.1 0-.2.1-.3.1-.3.1-.6.1-.9.2h-.2c-.3.1-.7.1-1 .2h-.1c-.4 0-.8.1-1.1.1V92l1.1.2c4.9.8 8.2 1.8 10.1 3.2 1.9 1.3 2.8 3.2 2.8 5.7 0 3.2-1.5 5.9-4.5 8.2-.4.3-.7.5-1.1.7-.1.1-.3.2-.4.2-.2.1-.5.3-.7.4-.2.1-.4.2-.5.3l-.6.3c-.2.1-.4.2-.6.2-.2.1-.4.1-.6.2-.2.1-.5.2-.7.2-.2 0-.3.1-.5.1-.3.1-.6.1-.9.2h-.1c-.8.2-1.7.3-2.6.3v3.9H132V62h-18.1v4.3z"/><path fill="#686868" d="M96.6 59.6V31.2H44.8V71H15.4v45.3h32.5v-12.8h44V119h42.6V59.6H96.6zm-24.9 1.6l-.2-.6L65.8 80H61l-6.2-23.5-2.9-.3v-2.5h11.9v2.5l-2.3.4-.5.8L64.9 73l5.6-19.2h1.2v7.4zM46 114.4H32.2v-8c-.4 0-.8-.1-1.1-.2-.6-.2-1.2-.4-1.6-.7-.6-.4-1-.9-1.3-1.5s-.4-1.7-.4-3.3v-13h-2.9V86l3.3-1.9 2.3-4.7h1.6v27c.3 0 .7.1 1 .1 1 0 2-.1 3.2-.4 1.2-.2 2.4-.6 3.7-1.1v-2.1c-.4.1-.9.2-1.4.2-.5.1-1 .1-1.5.1-1.4 0-2.4-.3-2.9-.9-.5-.6-.8-1.8-.8-3.4V87.7H40V85h-6.6v-5.6h-1.2v-6.6h12.6v30.7H46v10.9zm25.7-13.8V62.7L76.5 80h4.9l6.5-23.4 2.7-.4v-2.5h-9.1v2.5l2.5.3.4.8-4 14.9-.2.7-5.3-19.2h-3.2V34.1h22v25.4h-1.9v41H71.7zm60.3 16h-18.1v-3.9c-.6 0-1.2.1-1.9.1-3.8 0-6.8-.8-9-2.4-2.2-1.6-3.3-3.8-3.3-6.5 0-2 .5-3.7 1.6-5 1.1-1.3 2.6-2 4.4-2.2-.2-.6-.4-1.2-.6-1.7-.1-.5-.2-1.1-.2-1.5 0-1 .3-2 .8-3s1.3-2 2.5-3.1c-2.4-.7-4.2-2-5.4-3.6-1.3-1.7-1.9-3.7-1.9-6.1 0-3.4 1.1-6.1 3.4-8.1s5.3-3.1 9.2-3.1h.2V62H132v54.6z"/><path fill="#686868" d="M112 87.7h-.7c-.2.5-.3.9-.4 1.3-.1.4-.1.8-.1 1.1v.8c0 .3.1.6.1.9l2.9.4v-4.5H112zM109.5 97.4c-.8.7-1.5 1.6-1.9 2.5-.4.9-.6 1.9-.6 2.9 0 1.8.7 3.3 2 4.6 1.3 1.3 2.9 1.9 4.9 1.9h.1V98.2l-4.5-.8zM113.6 69.4c-1.5 0-2.7.7-3.6 2-.9 1.4-1.3 3.2-1.3 5.5 0 2.4.4 4.3 1.3 5.7.9 1.4 2.1 2.1 3.5 2.1h.5V69.4h-.4z"/><path fill="#FFF" d="M114.4 69.5zM116.7 108.8zM114.8 69.6zM115.6 70l.1.1-.1-.1zM115.2 69.7s.1 0 .1.1c-.1 0-.1 0-.1-.1zM117.4 108.5c0 .1-.1.1 0 0-.1.1 0 .1 0 0zM115.9 70.2c.1 0 .1.1.2.2l-.2-.2zM117.5 112.1c-.3.1-.6.1-.9.2.3-.1.6-.1.9-.2zM120 111.3c-.2.1-.4.2-.6.2.1 0 .4-.1.6-.2zM121.2 110.7c-.2.1-.4.2-.5.3.1-.1.3-.2.5-.3zM118.9 107.5c-.2.1-.3.3-.5.4.2-.1.4-.2.5-.4zM118.1 108.2c-.1 0-.1.1-.2.1 0 0 .1-.1.2-.1zM114.4 84.7h-.2.2zM114.9 84.5c-.1 0-.1.1-.2.1 0 0 .1-.1.2-.1zM128.9 67.5l-.4-.8c0-.1-.1-.2-.1-.3.1.1.1.1.1.3l.4.8zM115.3 84.3c-.1 0-.1.1-.2.1.1 0 .1-.1.2-.1zM116.3 70.6c.1.1.1.2.2.2-.1-.1-.2-.1-.2-.2zM116.6 71c.1.1.2.3.3.5-.1-.2-.2-.4-.3-.5zM116.9 82.6c-.1.2-.2.3-.3.5.1-.1.2-.3.3-.5zM116.1 83.7l-.2.2c.1-.1.1-.2.2-.2zM116.5 83.2c-.1.1-.1.2-.2.3 0-.1.1-.2.2-.3zM115.7 84l-.2.2.2-.2zM118.7 111.7c-.2.1-.5.2-.7.2.3 0 .5-.1.7-.2zM116.2 87.4c-.3.1-.7.1-1 .2.4-.1.7-.1 1-.2zM116 66.5c.3 0 .5.1.8.1-.3 0-.6-.1-.8-.1zM121.2 85.4c-.1.1-.3.2-.4.2.2 0 .3-.1.4-.2zM117.3 87.2c-.3.1-.6.1-.9.2.3-.1.6-.1.9-.2zM118.4 86.9c-.3.1-.5.2-.8.2.3-.1.5-.1.8-.2zM128.1 66.3s.1 0 0 0c.1 0 0 0 0 0zM122.3 110.1c-.1.1-.3.2-.4.2.1 0 .3-.1.4-.2zM119.4 86.5c-.2.1-.4.2-.7.3.2-.2.5-.2.7-.3zM115.1 87.6c-.4 0-.8.1-1.1.1.4 0 .7-.1 1.1-.1zM120.3 86c-.2.1-.4.2-.5.3.2-.1.4-.2.5-.3zM127.9 66.3z"/><path fill="#686868" d="M114 69.4c.1 0 .3 0 .4.1h.1c.1 0 .2.1.4.1h.1c.1 0 .2.1.3.1 0 0 .1 0 .1.1.1.1.2.1.3.2l.1.1c.1.1.2.1.2.2.1 0 .1.1.2.2l.2.2c.1.1.1.2.2.2 0 .1.1.1.1.2.1.1.2.3.3.5.9 1.4 1.3 3.2 1.3 5.4 0 2.4-.4 4.3-1.3 5.8-.1.2-.2.3-.3.5 0 .1-.1.1-.1.1-.1.1-.1.2-.2.3l-.2.2-.2.2c-.1.1-.1.1-.2.1l-.2.2c-.1 0-.1.1-.2.1s-.1.1-.2.1-.1.1-.2.1-.1.1-.2.1-.2.1-.2.1h-.4v2.9c.4 0 .8-.1 1.1-.1h.1c.3 0 .7-.1 1-.2h.2c.3-.1.6-.1.9-.2.1 0 .2-.1.3-.1.3-.1.5-.2.8-.2.1 0 .2-.1.4-.1.2-.1.4-.2.7-.3.1-.1.3-.1.4-.2.2-.1.4-.2.5-.3.2-.1.4-.2.5-.3.1-.1.3-.2.4-.2.3-.2.6-.4.8-.7 2.3-2 3.4-4.6 3.4-7.8 0-.8-.1-1.7-.3-2.5-.2-.8-.5-1.5-.9-2.3.2 0 .4-.1.6-.1.6-.1 1.1-.2 1.5-.4.9-.2 1.5-.5 2-.8.5-.2.8-.5 1-.7l.1-.1c.4-.5.2-.9.2-.9l-.9-1.7-.4-.8c0-.1-.1-.2-.1-.3l-.1-.1H128.1c-.3 0-.7.2-1.1.4-1.4.8-3.2 2.4-4 3-1.2-1.4-3.8-2.5-5.1-2.8-.3-.1-.6-.1-1-.2-.3 0-.5-.1-.8-.1h-.1c-.6-.1-1.2-.1-1.8-.1v2.8zM114 98.2l.6.1c2.5.5 4.2 1.1 5.1 1.8.9.7 1.3 1.7 1.3 3.1 0 1.7-.7 3.2-2 4.4-.2.1-.3.3-.5.4-.1.1-.2.1-.3.2-.1 0-.1.1-.2.1-.2.1-.3.2-.5.2 0 0-.1 0-.1.1-.2.1-.4.2-.6.2-.8.3-1.7.4-2.7.5v3.4c.9-.1 1.7-.2 2.5-.3h.1c.3-.1.6-.1.9-.2.2 0 .3-.1.5-.1.2-.1.5-.1.7-.2.2-.1.4-.1.6-.2.2-.1.4-.2.6-.2l.6-.3c.2-.1.4-.2.5-.3.2-.1.5-.3.7-.4.1-.1.3-.2.4-.2.4-.2.7-.5 1.1-.7 3-2.2 4.5-4.9 4.5-8.2 0-2.5-.9-4.4-2.8-5.7-1.9-1.3-5.2-2.4-10.1-3.2l-1-.1v5.8z"/></svg>