<svg xmlns:xlink="http://www.w3.org/1999/xlink"  xmlns="http://www.w3.org/2000/svg" viewBox="0 0 1000 1000"><path fill="#F1F5DD" d="M474.7 395.3V442H542c4.7-4 7.3-9.3 7.3-16v-85.3c0-11.3-9.3-21.3-21.3-21.3h-85.3c-11.3 0-21.3 9.3-21.3 21.3v34H454c11.3 0 20.7 9.3 20.7 20.6zm42.6-12.6c0-2 2-4 4-4H536c2 0 4 2 4 4v18.7h-18.7c-2 0-4-2-4-4v-14.7z"/><path fill="#9DBD3C" d="M532.7 546.7v-52c0-8 6.7-14.7 14.7-14.7h26v-8.7c0-16-13.3-29.3-29.3-29.3h-69.3v28.6c0 11.3-9.3 20.7-20.7 20.7h-44.7V576c0 16 13.3 29.3 29.3 29.3H528V588c0-14 11.3-25.3 25.3-25.3H574V560h-26c-8.7 1.3-15.3-5.3-15.3-13.3zm-30-12H484c-2 0-4-2-4-4V516c0-2 2-4 4-4h14.7c2 0 4 2 4 4v18.7zM528 606.7v72.7c0 14 11.3 25.3 25.3 25.3h78V690c-3.3-2.7-6-6.7-6-10.7V616.7H668V590c0-14-11.3-25.3-25.3-25.3H574v42h-46zm71.3 14.6v40c0 4-3.3 8-8 8h-32c-4 0-8-3.3-8-8v-32c0-4 3.3-8 8-8h40z"/><path fill="#60A344" d="M528 589.3v17.3h46V564h-20.7c-14 0-25.3 11.3-25.3 25.3z"/><path fill="#D1D8DB" d="M500.7 638.7c0-2 0-4-.7-5.3-1.3-.7-2.7-2-2.7-4v-2.7c-4-8-12-13.3-21.3-13.3h-78.7V650H360v78.7c0 14 11.3 25.3 25.3 25.3h115.3V638.7z"/><path fill="#C3D66B" d="M385.3 613.3h12v-30c0-8-6.7-14.7-14.7-14.7h-52c-8 0-14.7 6.7-14.7 14.7v52c0 8 6.7 14.7 14.7 14.7H360v-12c0-13.3 11.3-24.7 25.3-24.7z"/><path fill="#A6BD67" d="M397.3 613.3h-12c-14 0-25.3 11.3-25.3 25.3v12h36.7v-37.3h.6z"/><path fill="#C3D66B" d="M372 550v-29.3c0-3.3-2.7-6.7-6.7-6.7H342c-3.3 0-6.7 2.7-6.7 6.7V544c0 3.3 2.7 6.7 6.7 6.7h30v-.7z"/><path fill="#EAF1CE" d="M335.3 479.3v-18.7c0-2-2-4-4-4h-14.7c-2 0-4 2-4 4v14.7c0 2 2 4 4 4h18.7z"/><path fill="#C3D66B" d="M308 429.3c0-2-2-4-4-4h-14.7c-2 0-4 2-4 4V444c0 2 2 4 4 4H308v-18.7zM388.7 288.7h18.7V270c0-2-2-4-4-4h-14.7c-2 0-4 2-4 4v14.7c0 2.6 2 4 4 4z"/><path fill="#EAF1CE" d="M386.7 343.3h18.7v-18.7c0-2-2-4-4-4h-14.7c-2 0-4 2-4 4v14.7c0 2 1.3 4 4 4z"/><path fill="#D1D8DB" d="M550.7 332h18.7v-18.7c0-2-2-4-4-4h-14.7c-2 0-4 2-4 4V328c0 2 2 4 4 4z"/><path fill="#EAF1CE" d="M636 513.3c-2 0-4 2-4 4V532c0 2 2 4 4 4h18.7v-18.7c0-2-2-4-4-4H636z"/><path fill="#D1D8DB" d="M690 565.3h18.7v-18.7c0-2-2-4-4-4H690c-2 0-4 2-4 4v14.7c0 2 2 4 4 4z"/><path fill="#C3D66B" d="M690 252h18.7v-18.7c0-2-2-4-4-4H690c-2 0-4 2-4 4V248c0 2.7 2 4 4 4z"/><path fill="#D1D8DB" d="M691.3 307.3V322c0 2 2 4 4 4H714v-18.7c0-2-2-4-4-4h-14.7c-2 0-4 2-4 4z"/><path fill="#C3D66B" d="M690.7 510.7c0-2-2-4-4-4H672c-2 0-4 2-4 4v14.7c0 2 2 4 4 4h18.7v-18.7zM501.3 633.3H520v-18.7c0-2-2-4-4-4h-14.7c-2 0-4 2-4 4V626c1.3 2 2 4 2.7 6.7.7 0 1.3.6 1.3.6z"/><path fill="#C3D66B" d="M500 632.7c-.7-2.7-1.3-4.7-2.7-6.7v2.7c0 2 1.4 3.3 2.7 4zM358 697.3c0-2-2-4-4-4h-14.7c-2 0-4 2-4 4V712c0 2 2 4 4 4H358v-18.7zM521.3 401.3H540v-18.7c0-2-2-4-4-4h-14.7c-2 0-4 2-4 4v14.7c0 2.7 2 4 4 4zM498.7 512H484c-2 0-4 2-4 4v14.7c0 2 2 4 4 4h18.7V516c0-2.7-1.4-4-4-4zM597.3 480h-24v81.3H614v-62c-8-3.3-14.7-10-16.7-19.3z"/><path fill="#79B042" d="M547.3 480c-8 0-14.7 6.7-14.7 14.7v52c0 8 6.7 14.7 14.7 14.7h26V480h-26z"/><path fill="#C3D66B" d="M622 360h41.3v-23.3c0-8-6.7-14.7-14.7-14.7h-52c-8 0-14.7 6.7-14.7 14.7v52c0 8 6.7 14.7 14.7 14.7v-18.7c.7-13.4 12.1-24.7 25.4-24.7zM688 692.7h-19.3v12h-37.3v18.7c0 8 6.7 14.7 14.7 14.7h66.7v-66.7c0-6.7-4.7-12-10.7-13.3v21.3c-.1 7.3-6.1 13.3-14.1 13.3z"/><path fill="#79B042" d="M668.7 692.7h-30c-2.7 0-5.3-1.3-8-2.7v14.7H668v-12h.7z"/><path fill="#224859" d="M464.7 282h46v-46c0-5.3-4.7-10-10-10h-36c-5.3 0-10 4.7-10 10v36c0 6 4.6 10 10 10zM638 294h18.7v-18.7c0-2-2-4-4-4H638c-2 0-4 2-4 4V290c0 2.7 2 4 4 4zM580 288.7h18.7V270c0-2-2-4-4-4H580c-2 0-4 2-4 4v14.7c0 2.6 1.3 4 4 4zM303.3 529.3V544c0 2 2 4 4 4H326v-18.7c0-2-2-4-4-4h-14.7c-2-.6-4 1.4-4 4zM308.7 660H294c-2 0-4 2-4 4v14.7c0 2 2 4 4 4h18.7V664c0-2.7-1.4-4-4-4zM357.3 374.7h10v-28c0-8-6.7-14.7-14.7-14.7h-52c-8 0-14.7 6.7-14.7 14.7v52c0 8 6.7 14.7 14.7 14.7h56.7v-38.7zM737.3 385.3c0-14-11.3-25.3-25.3-25.3h-90c-14 0-25.3 11.3-25.3 25.3V476c0 1.3 0 3.3.7 4.7 2 8.7 8 16 16.7 19.3 2.7.7 5.3 1.3 8 1.3h115.3l-.1-116z"/><path fill="#F1F5DD" d="M552 629.3v32c0 4 3.3 8 8 8h32c4 0 8-3.3 8-8v-40h-39.3c-5.4 0-8.7 4-8.7 8z"/><path fill="#EAF1CE" d="M422 447.3h-.7v-26.7H410c-2 0-4-2-4-4V402c0-2 2-4 4-4h11.3v-24H368v39.3h-10V470.7c0 11.3 9.3 20.7 21.3 20.7h31.3v-20.7c-1.3-9.4 4.1-18 11.4-23.4z"/><path fill="#E0EBB5" d="M424.7 398.7c2 0 4 2 4 4v18.7h-7.3V448h.7c4.7-3.3 10.7-5.3 16.7-5.3h36V396c0-11.3-9.3-21.3-20.7-21.3h-32.7v24h3.3z"/><path fill="#92BA3F" d="M474.7 471.3v-28.6h-36c-6 0-12 2-16.7 5.3-7.3 5.3-12.7 14-12.7 24v20.7H454c11.3-.7 20.7-10 20.7-21.4z"/><path fill="#B6CF60" d="M410 398.7c-2 0-4 2-4 4v14.7c0 2 2 4 4 4h11.3v-22.7H410zM428.7 402.7c0-2-2-4-4-4h-3.3v22.7h7.3v-18.7z"/><path fill="#EAF1CE" d="M367.3 374.7h-10v38.6h10z"/><path fill="#9DBD3C" d="M698 656.7c1.3 0 2.7.7 4 .7v-28c0-7.3-6-14-14-14h-19.3V656H698v.7z"/><path fill="#60A344" d="M647.3 616h-22.7v62.7c0 4.7 2.7 8.7 6 10.7v-18.7c0-8 6.7-14.7 14.7-14.7h23.3v-40.7H647.3v.7z"/><path fill="#79B042" d="M668.7 656.7v36H688c7.3 0 14-6 14-14v-21.3c-1.3-.7-2.7-.7-4-.7h-29.3z"/><path fill="#449C47" d="M668.7 692.7v-36h-23.3c-8 0-14.7 6.7-14.7 14.7V690c2 1.3 4.7 2.7 8 2.7h30z"/><g><path fill="#224859" d="M30 264.7c0-83.3 16-140 47.3-169.3C108 66.7 166.7 52 252.7 52H748c86 0 144.7 14.7 176 43.3 31.3 29.3 47.3 85.3 47.3 169.3v474c0 83.3-16 140-47.3 169.3-31.3 29.3-90 43.3-176 43.3H252.7c-86 0-144.7-14.7-176-43.3-31.3-29.3-47.3-85.3-47.3-169.3v-474h.6zM239.3 782h523.3V212.7H239.3V782z"/></g></svg>