<svg xmlns:xlink="http://www.w3.org/1999/xlink"  xmlns="http://www.w3.org/2000/svg" viewBox="0 0 1000 1000"><g fill="#00B489"><path d="M945.3 488.7c0-4 0-17.3-2-39.3-2-21.3-6.7-52-18-87.3s-30-76-60-116.7c-30-40-71.3-80-124-110.7-52.7-30.7-116.7-51.3-186-54-34.7-1.3-70 1.3-105.3 8.7s-70 20-103.3 38c-33.3 17.3-64 40-92 66.7-28 26.7-52 57.3-71.3 91.3s-34 70.7-43.3 109.3c-9.3 38.7-12.7 78.7-10.7 118s10 78.7 24 116c13.3 36.7 32 72 55.3 103.3s50.7 58.7 80.7 82c30 23.3 63.3 41.3 97.3 55.3 68.7 27.3 142 34 209.3 24 67.3-9.3 127.3-36 175.3-69.3C820 790 856 748.7 882 708.7c26-40.7 40.7-80 50-112.7 8.7-33.3 12-60 13.3-78.7 1.3-18 .7-28 .7-28 4.7 70.7-9.3 144-42 209.3-25.3 44-58.7 83.3-98 115.3s-84 57.3-132 73.3c-95.3 32.7-203.3 28.7-296-10-46.7-19.3-89.3-47.3-126-82s-66.7-75.3-88.7-120.7c-22-44.7-36-94-40.7-143.3-4.7-50-.7-100.7 12.7-148.7 12.7-48 34.7-94 64-134 29.3-40.7 65.3-75.3 107.3-102.7 41.3-27.3 88-47.3 136-58s98.7-13.3 148-6.7c48.7 6.7 96.7 22 140 46 43.3 23.3 82.7 54.7 114.7 92s58 80 74.7 126c16.7 45.6 25.3 94.9 25.3 143.6z"/><path d="M858.7 210.7c-2-2.7-9.3-11.3-22.7-24-12.7-12.7-31.3-30-57.3-47.3-25.3-18-58-36-97.3-50.7-39.3-14-85.3-24-136.7-25.3C494 62 438.7 70 385.3 90.7c-54 20.7-106 53.3-150 97.3s-80 99.3-100.7 161.3c-21.3 62-28 130-19.3 195.3C124 610 148 673.3 184 726.7c36 54 84 98 137.3 129.3s111.3 49.3 167.3 56c56 6.7 110 1.3 157.3-11.3s88.7-32 122-54c33.3-21.3 59.3-45.3 79.3-66 19.3-20.7 32.7-39.3 41.3-52s12.7-20 12.7-20c-27.3 52.7-66 99.3-114 137.3-34.7 24-72.7 42.7-112 56-40 13.3-81.3 20-123.3 21.3s-84-3.3-124-14c-40.7-10.7-79.3-27.3-114.7-48.7C242 817.3 184 753.3 148 678c-18-37.3-30.7-77.3-37.3-118.7-6.7-40.7-7.3-82.7-2-124S125.3 354 142 316s39.3-73.3 66-104.7c53.3-62.7 125.3-110 204-133.3s164.7-23.3 243.3 0c79.4 24 150.7 70.7 203.4 132.7z"/><path d="M654 63.3c-2.7-.7-11.3-3.3-26.7-6.7-14.7-3.3-35.3-6.7-61.3-8-25.3-2-56-2-90.7 3.3-34.7 4.7-72.7 14-111.3 30.7s-78 40-114.7 71.3c-36 30.7-68.7 69.3-94.7 114.7-26 44.7-44.7 96-53.3 149.3s-7.3 109.3 4 162.7c11.3 53.3 32.7 104.7 62 150 29.3 45.3 66.7 84 108 114s86 52.7 130.7 66c44.7 14 89.3 20 130 20s78-5.3 110-13.3 59.3-18.7 80.7-28.7 37.3-20 48-26.7c10.7-6.7 16-10.7 16-10.7-38.7 30.7-82 54.7-129.3 71.3C594.7 941.3 524 944 456 931.3S323.3 890 268.7 848c-54.7-41.3-100-96-130.7-157.3S91.3 560.7 91.3 492s16-137.3 46.7-198c30.7-61.3 75.3-115.3 129.3-156.7 54-42 118-70.7 184.7-82.7 66.7-12.6 136.7-9.9 202 8.7z"/><path d="M488.7 36c-2 0-10 .7-22 2.7-12.7 2-29.3 5.3-50 10.7s-44.7 14-70.7 26-54 28-82 48.7-55.3 46.7-80.7 77.3c-24.7 30.7-47.3 66-64 105.3C102 346 90 388.7 84.7 433.3 79.3 478 80 523.3 88 568c8 44.7 22 88 42.7 127.3 20 39.3 46 75.3 74.7 106 28.7 30.7 61.3 56 94 76.7 32.7 20 66.7 35.3 98.7 45.3s62.7 16 90 18.7c27.3 2.7 51.3 3.3 70.7 2 19.3-.7 34.7-2.7 45.3-4.7 10.7-1.3 16-2.7 16-2.7-39.3 9.3-80 14-121.3 12.7-56.7-4.7-112.7-20.7-163.3-46C284.7 878 238 843.3 200 802c-38.7-42-68.7-90.7-90-143.3C89.3 606 78.7 549.3 78 493.3c0-56.7 10-112.7 30-165.3s50-101.3 87.3-143.3S278 108 328 82.7C378 57.3 433.3 41.3 488.7 36z"/><path d="M351.3 59.3c-3.3 1.3-23.3 10-53.3 27.3-30 18-70 46-108 88.7-19.3 21.3-38 46-54.7 74s-31.3 58.7-42 92c-11.3 33.3-18.7 69.3-22 105.3-3.3 36.7-2 74 3.3 110.7S90 630 104 664c14 34 31.3 65.3 51.3 94 20 28 42.7 53.3 66 74.7s47.3 39.3 71.3 54C340 916 384 931.3 414.7 940c31.3 8.7 49.3 10.7 49.3 10.7-33.3-3.3-66-10.7-98-20.7-86.7-34-162.7-94.7-215.3-171.3-26.7-38-47.4-80.7-61.4-124.7s-21.3-90.7-22-136.7S72.7 404.7 86 360c12.7-44.7 32.7-86.7 57.3-125.3 49.4-77.4 122.7-139.4 208-175.4z"/><path d="M268 94c-2.7 2-17.3 11.3-39.3 30s-50.7 46-78 83.3S96.7 292.7 80 348c-8.7 27.3-14.7 56.7-18 86-3.3 30-4 60-2 90.7 2 30 7.3 60 15.3 89.3 8 28.7 18 56 30.7 82 24.7 51.3 56.7 94 88 126 31.3 32.7 62 54.7 84 68.7s35.3 20.7 35.3 20.7c-24.7-11.3-48.7-24.7-71.3-40.7-60-46.7-108.7-107.3-140.7-176-31.3-68-46.7-144-44-220 2.7-75.3 23.3-150.7 60-216C153.3 192.7 206 136 268 94z"/></g><path fill="#00B489" d="M529.3 173.3c43.3 0 84 6.7 121.3 20C688 206.7 722 226 753.3 252.7 788 282 814 317.3 832 357.3s26.7 84.7 26.7 133.3c0 33.3-4 64.7-12.7 94.7-8.7 29.3-21.3 57.3-38.7 83.3-28.7 43.3-68 77.3-116.7 102C642 795.3 588 807.3 530 807.3c-43.3 0-84.7-6.7-122.7-20s-72-32.7-102-57.3c-34.7-29.3-60.7-64.7-78.7-105.3S200 539.3 200 490c0-48.7 8.7-93.3 26.7-133.3 17.3-40 43.3-74.7 77.3-104 30-26.7 64.7-46 102.7-59.3s78.6-20.1 122.6-20.1zm0 48.7c-68.7 0-122.7 24-162.7 72S306 407.3 306 489.3s20 147.3 60.7 196S461.3 758 529.3 758c67.3 0 120.7-24.7 161.3-73.3s60.7-114 60.7-195.3-20-146.7-60.7-195.3C650 246 596 222 529.3 222z"/></svg>