<svg xmlns:xlink="http://www.w3.org/1999/xlink"  xmlns="http://www.w3.org/2000/svg" width="100" height="100" viewBox="0 0 100 100"><path fill="#CC3129" d="M72.657 29.563c1.684 1.015 2.534 2.33 2.534 3.951 0 1.396-.664 2.657-1.998 3.781L37.949 68.607h48.114c2.54-5.197 4.007-11.018 4.007-17.191 0-21.675-17.574-39.25-39.246-39.25-12.91 0-24.327 6.26-31.481 15.878h46.904c2.582 0 4.722.507 6.41 1.519z"/><path fill="#6AB162" d="M28.584 73.79c-1.978-1.108-2.964-2.495-2.964-4.168 0-1.261.681-2.505 2.048-3.724l34.78-31.015H15.262c-2.343 5.028-3.689 10.619-3.689 16.532 0 21.677 17.571 39.251 39.251 39.251 12.608 0 23.804-5.973 30.984-15.221H35.533c-2.657.001-4.975-.55-6.949-1.655z"/></svg>