<svg xmlns:xlink="http://www.w3.org/1999/xlink"  xmlns="http://www.w3.org/2000/svg" width="100" height="100" viewBox="0 0 100 100"><path fill="#E8E873" d="M96.64 40.854L75.95 54.568c-.346-.505-.705-1-1.086-1.482l4.285-9.586c.934-2.091.479-2.398-1.023-.681l-6.207 7.09a26.366 26.366 0 0 0-2.117-1.769l3.689-22.789c.367-2.277-.148-2.447-1.152-.391l-9.527 19.495a28.063 28.063 0 0 0-3.473-.952l-.719-7.341c-.225-2.304-.768-2.34-1.211-.081l-1.361 6.946a29.5 29.5 0 0 0-3.888-.083l-7.298-19.758c-.804-2.172-1.333-2.064-1.186.239l1.336 20.757a26.862 26.862 0 0 0-3.764 1.497l-3.845-5.501c-1.325-1.896-1.805-1.649-1.075.546l2.16 6.499a26.79 26.79 0 0 0-3.089 2.345L19.19 35.858c-1.757-1.489-2.16-1.126-.899.814l12.101 18.604a30.419 30.419 0 0 0-1.665 2.79l-7.569-3.584c-2.072-.979-2.368-.52-.658 1.029l6.676 6.057a29.238 29.238 0 0 0-.814 2.571L3.375 59.965c-2.242-.412-2.407.117-.371 1.162l22.553 11.635c.042.49.092.984.157 1.489l-11.476.984c-2.258.195-2.287.743-.056 1.226L26.7 79.182a33.861 33.861 0 0 0 1.538 4.418c.264.027.529.042.793.064 1.683.106 3.373.146 5.062.139a25.01 25.01 0 0 1-1.469-2.719 24.732 24.732 0 0 1-1.379-4.328 21.25 21.25 0 0 1-.502-4.642c0-1.59.145-3.147.439-4.675.291-1.525.71-2.979 1.253-4.36a21.491 21.491 0 0 1 2.038-4.016 23.377 23.377 0 0 1 2.731-3.45 19.82 19.82 0 0 1 3.324-2.887 26.883 26.883 0 0 1 3.827-2.195 24.697 24.697 0 0 1 4.359-1.379 22.103 22.103 0 0 1 4.738-.502c1.631 0 3.219.158 4.768.472a22.76 22.76 0 0 1 4.391 1.347 21.136 21.136 0 0 1 3.953 2.07 22.222 22.222 0 0 1 6.178 6.15 23.191 23.191 0 0 1 2.104 3.89 20.275 20.275 0 0 1 1.316 4.266c.293 1.507.439 3.075.439 4.706 0 1.59-.146 3.146-.439 4.674-.07.366-.17.716-.256 1.072.561-.05 1.119-.111 1.682-.15.729-.05 1.469-.067 2.203-.099.613-2.4.945-5.228.93-7.743l.037-.023c.482-.348.99-.694 1.521-1.006l-.094.009 11.285-8.061c1.846-1.319 1.6-1.814-.549-1.103l-12.957 4.271c-.012-.041-.018-.08-.027-.119l17.518-21.492c1.439-1.77 1.077-2.181-.815-.927z"/><path fill="#E8E873" d="M69.138 71.486a29.562 29.562 0 0 0-.973-7.527 19.99 19.99 0 0 0-1.223-3.357 18.822 18.822 0 0 0-1.693-2.917 15.72 15.72 0 0 0-2.135-2.415 12.884 12.884 0 0 0-2.572-1.852c-.92-.503-1.914-.88-2.98-1.128a14.828 14.828 0 0 0-3.419-.377c-2.343.041-4.476.533-6.399 1.474a14.182 14.182 0 0 0-4.893 3.921c-1.382 1.631-2.438 3.586-3.168 5.866-.732 2.28-1.098 4.778-1.098 7.496 0 1.34.071 2.678.218 4.015a27.96 27.96 0 0 0 .691 3.859 31.037 31.037 0 0 0 1.128 3.545c.183.468.391.914.606 1.354a74.324 74.324 0 0 0 8.459-1.329c6.481-1.41 12.584-2.846 18.663-3.847.221-.917.408-1.854.535-2.829a30.53 30.53 0 0 0 .253-3.952z"/><path fill="#4A6F2F" d="M75.907 77.295c-2.529.229-5.043.558-7.557.973-6.078 1.001-12.182 2.437-18.663 3.847a74.324 74.324 0 0 1-15.594 1.688 74.903 74.903 0 0 1-7.999-.378 79.37 79.37 0 0 1-17.483-3.813c9.808 3.615 19.252 7.465 29.101 8.819 2.521.349 5.069.519 7.656.491a45.987 45.987 0 0 0 6.62-.523c4.698-.729 9.364-2.35 14.028-4.111 2.895-1.095 5.791-2.237 8.691-3.267 6.262-2.224 12.549-3.888 18.938-3.198-4.809-.783-9.377-.961-13.854-.776-.734.031-1.475.049-2.203.099-.562.038-1.12.099-1.681.149z"/></svg>