<svg xmlns:xlink="http://www.w3.org/1999/xlink"  xmlns="http://www.w3.org/2000/svg" width="100" height="100" viewBox="0 0 100 100"><path fill="#4F4A4A" d="M87.722 54.011c0-13.797-7.672-25.798-18.984-31.978-3.093 3.41-6.508 6.532-9.689 9.861-4.977-1.049-10.307-.801-14.973 1.33-6.234 2.713-11.03 8.371-12.824 14.912 5.23-.002 11.71-.018 14.208.002 1.284-1.518 2.526-3.125 4.249-4.19 3.937-2.57 9.412-2.498 13.274.193 3.132 2.07 5.183 5.667 5.339 9.43.271 4.14-1.81 8.332-5.259 10.649-3.245 2.294-7.674 2.743-11.358 1.258-2.591-.96-4.531-3.009-6.121-5.181-2.528-.026-9.077-.043-14.321-.03.949 3.438 2.659 6.666 5.074 9.301 5.229 5.889 13.608 8.726 21.337 7.134.79-.278 1.609-.069 2.103.625 2.889 2.945 5.838 5.844 8.733 8.782 11.433-6.143 19.212-18.21 19.212-32.098z"/><path fill="#25759D" d="M41.357 87.824c-8.08-2.854-15.04-8.745-19.184-16.245-4.31-7.603-5.565-16.834-3.617-25.336 1.692-7.524 5.934-14.41 11.834-19.36 9.938-8.591 24.71-10.689 36.768-5.621-4.801-2.331-10.166-3.673-15.859-3.673-20.116 0-36.422 16.306-36.422 36.422s16.306 36.422 36.422 36.422a36.44 36.44 0 0 0 10.636-1.587c-6.758 1.672-14.022 1.343-20.578-1.022z"/><path fill="#25759D" d="M55.642 60.764c3.731.463 7.344-2.897 7.144-6.65.065-3.5-3.125-6.608-6.607-6.489-2.771-.03-5.426 1.875-6.223 4.544-1.437 3.841 1.602 8.399 5.686 8.595z"/><path fill="#FFF" d="M57.673 76.701c-7.729 1.592-16.109-1.245-21.337-7.134-2.416-2.635-4.125-5.862-5.074-9.301 5.244-.013 11.792.004 14.321.03 1.59 2.172 3.53 4.221 6.121 5.181 3.685 1.485 8.113 1.036 11.358-1.258 3.449-2.317 5.53-6.51 5.259-10.649-.156-3.763-2.207-7.36-5.339-9.43-3.862-2.691-9.338-2.763-13.274-.193-1.722 1.064-2.965 2.672-4.249 4.19-2.498-.02-8.978-.004-14.208-.002 1.794-6.541 6.59-12.199 12.824-14.912 4.666-2.131 9.997-2.379 14.973-1.33 3.182-3.33 6.597-6.451 9.689-9.861l.055-.057c-.537-.261-1.087-.486-1.634-.714-12.058-5.068-26.83-2.97-36.768 5.621-5.9 4.95-10.142 11.836-11.834 19.36-1.948 8.502-.693 17.733 3.617 25.336 4.144 7.5 11.104 13.391 19.184 16.245 6.556 2.365 13.819 2.693 20.577 1.021a33.976 33.976 0 0 0 6.838-2.473 9.426 9.426 0 0 1-.264-.265c-2.896-2.938-5.845-5.837-8.733-8.782-.493-.692-1.312-.901-2.102-.623zm-7.718-24.532c.797-2.67 3.452-4.575 6.223-4.544 3.482-.119 6.673 2.989 6.607 6.489.2 3.753-3.412 7.113-7.144 6.65-4.083-.196-7.122-4.754-5.686-8.595z"/></svg>