<svg xmlns:xlink="http://www.w3.org/1999/xlink"  xmlns="http://www.w3.org/2000/svg" width="100" height="100" viewBox="0 0 100 100"><path fill="#812124" d="M50.75 92.833l7.694-14.07H43.056zM61.529 27.711L50.75 8 39.897 27.845c.497-.084.921-.134 1.251-.134h20.381zM8.333 50.416l26.003 14.221V36.196z"/><path fill="#848480" d="M41.76 37.127a6.475 6.475 0 0 0-.115 1.108v30.042c0 1.507.69 2.526 2.066 3.062.459.078.83.115 1.111.115h15.461c1.504 0 2.538-.69 3.1-2.065.076-.459.114-.83.114-1.111V56.873h-14.58v-7.271h22.005v12.979l22.244-12.165L65.747 35.42l-.221-.399H44.823c-1.506 0-2.526.704-3.063 2.106z"/></svg>