<svg xmlns:xlink="http://www.w3.org/1999/xlink"  xmlns="http://www.w3.org/2000/svg" viewBox="0 0 150 150"><path fill="#F05822" d="M66.8 128l7.5 7.5 7-7c-1.8.2-3.5.3-5.4.3-3.2 0-6.2-.3-9.1-.8zM134.6 75.1l-17-17h-14.4c-2.5-7.2-6-12.5-10.5-16s-10.1-5.2-17-5.2c-4.4 0-8.4 1-12 3.1-3.6 2.1-6.8 4.9-9.4 8.4-2.6 3.5-4.7 7.6-6.1 12.3-1.4 4.7-2.2 9.6-2.2 14.8 0 7 .9 13 2.6 18.2 1.7 5.1 4 9.4 6.8 12.8.9 1.1 2 2.1 3 3.1-14.2-8.4-22.8-21.2-27.9-32.6 0-.6-.1-1.2-.1-1.8 0-4.3.5-8.6 1.4-12.8.6-2.7 1.4-5.2 2.3-7.7L22.4 66.6l-8.5 8.5 8.5 8.5 19.8 19.8 4.6 4.6c10.5 6.5 21.5 8 26.3 8.3 1 .1 1.9.2 2.9.2 3.8 0 7.2-.8 10.3-2.3 3.1-1.5 5.8-3.5 8.1-6s4.2-5.3 5.7-8.4c1.5-3.2 2.6-6.4 3.2-9.8H119c-.1.4-.2.8-.3 1.1l15.9-16zM75.7 24.6c3.2 0 6.3.3 9.1.7L74.3 14.7 62.4 26.6h.1c4.1-1.4 8.5-2 13.2-2z"/><path fill="#AA3D12" d="M112.8 43.5l-12.3-12.3L74.3 4.9 4.1 75.1l36 36 10.3 10.3 23.8 23.8 20.9-20.9 17.9-17.9 31.3-31.3-31.5-31.6zm-25 83.7l-13.5 13.5L59.6 126l-23.8-23.8-.7-.7-11.7-11.6L8.6 75.1l14.8-14.8 12-12 4-4 13-13L74.3 9.4 91.9 27l25.5 25.5L140 75.1l-23.3 23.3-28.9 28.8z"/></svg>