<svg xmlns:xlink="http://www.w3.org/1999/xlink"  xmlns="http://www.w3.org/2000/svg" width="100" height="100" viewBox="0 0 100 100"><path fill="#5C4D46" d="M28.131 72.849l4.098 13.258c2.046.936 4.444 1.689 7.191 2.265 2.75.575 5.13.843 7.143.809 2.694 0 5.162-.468 7.408-1.403 2.243-.931 4.077-2.119 5.495-3.556a15.26 15.26 0 0 0 3.264-4.873c.752-1.818 1.127-3.587 1.127-5.311 0-3.557-1.201-6.556-3.606-9-2.411-2.441-6.441-5.568-12.099-9.376-5.658-3.81-9.765-6.987-12.314-9.541-2.191-2.261-3.828-4.534-4.905-6.816-1.077-2.28-1.614-4.823-1.614-7.625 0-3.089.842-6.163 2.531-9.214 1.69-3.055 4.292-5.596 7.815-7.625 3.519-2.031 7.849-3.044 12.985-3.044 2.335 0 4.814.116 7.436.348 2.626.236 4.438.35 5.443.35.865-.034 1.671-.059 2.43-.079a20.64 20.64 0 0 0 1.803-.107c.448-.055.925-.118 1.429-.189l.324 18.428h-.704L67.419 18.1c-4.998-2.191-9.345-3.288-13.042-3.288-3.093 0-5.865.584-8.328 1.749-2.461 1.169-4.373 2.771-5.74 4.798-1.366 2.029-2.048 4.319-2.048 6.871 0 2.657.916 5.092 2.751 7.302 1.829 2.209 4.336 4.373 7.519 6.493a998.724 998.724 0 0 0 10.238 6.738c3.645 2.368 6.563 4.652 8.756 6.842 4.273 4.277 6.412 9.214 6.412 14.82 0 3.163-.828 6.423-2.479 9.783-1.652 3.358-4.437 6.205-8.353 8.543-3.917 2.334-8.979 3.499-15.196 3.499-2.193 0-4.859-.126-8.005-.375-3.144-.252-5.453-.377-6.924-.377-.682 0-1.213.016-1.588.051-.377.038-.961.093-1.751.164-.79.069-1.258.106-1.403.106l-.861-18.971h.754zm26.355-59.927h-1.729c-3.949 0-7.598.792-10.939 2.373-3.342 1.583-5.98 3.829-7.918 6.739-1.943 2.912-2.912 6.197-2.912 9.86 0 4.562 1.993 8.839 5.981 12.826 1.76 1.69 3.403 3.108 4.931 4.259 1.525 1.15 3.834 2.772 6.924 4.875 3.092 2.104 5.561 3.826 7.408 5.175 1.854 1.347 3.371 2.632 4.556 3.854 3.234 3.233 4.852 6.842 4.852 10.832 0 2.729-.745 5.361-2.236 7.893-1.494 2.531-3.646 4.601-6.47 6.199-2.821 1.598-6.132 2.418-9.94 2.451v.594c4.385.146 8.289-.627 11.719-2.315 3.43-1.689 6.056-3.917 7.872-6.683 1.812-2.77 2.721-5.624 2.721-8.573 0-2.55-.416-4.866-1.238-6.95-.829-2.081-2.338-4.221-4.53-6.409-1.255-1.261-3.52-3.012-6.79-5.257a6723.526 6723.526 0 0 0-9.917-6.792c-3.34-2.28-5.784-4.157-7.329-5.632-3.771-3.733-5.657-7.846-5.657-12.339 0-3.95 1.716-7.633 5.146-11.049 3.43-3.411 8.599-5.208 15.498-5.386v-.545z"/><path fill="#44A756" d="M42.746 79.146c5.923 1.873 12.375.879 17.801-1.976-4.91-2.468-9.923-4.777-14.938-7.066-1.08-.59-2.161-1.19-3.226-1.772 1.462.398 2.899.826 4.352 1.226 5.01 1.629 10.015 3.27 15.05 4.731-2.239-5.82-6.236-10.981-11.959-13.697-7.187-2.548-15.061-.906-21.772 2.286 3.235 6.626 7.66 13.298 14.692 16.268zM49.317 23.367c-2.431 2.453-3.58 5.895-3.548 9.303 2.467-1.797 4.885-3.689 7.29-5.588.57-.381 1.141-.763 1.697-1.142-.567.619-1.142 1.224-1.712 1.837-2.078 2.065-4.165 4.122-6.167 6.237 3.445.375 7.015-.291 9.812-2.425 3.09-2.906 4.281-7.217 4.41-11.349-4.097-.082-8.523.405-11.782 3.127z"/></svg>