<svg xmlns:xlink="http://www.w3.org/1999/xlink"  xmlns="http://www.w3.org/2000/svg" width="100" height="100" viewBox="0 0 100 100"><radialGradient id="a" cx="-64.186" cy="161.435" r="71.139" gradientTransform="rotate(-3.773 -1918.485 -1359.088)" gradientUnits="userSpaceOnUse"><stop offset="0" stop-color="#fff"/><stop offset=".27" stop-color="#e6f2f1"/><stop offset="1" stop-color="#719f77"/></radialGradient><path fill="url(#a)" d="M65.189 72.154c2.668 2.135 6.27 4.379 11.051 6.168 0 0 21.135-37.838-11.195-65.841 0 0 8.686 17.242 4.127 34.84a16.847 16.847 0 0 1 3.764 10.628c0 5.961-3.09 11.192-7.747 14.205z"/><radialGradient id="b" cx="-22.771" cy="86.908" r="110.577" gradientTransform="rotate(-2.046 -1927.916 -1373.801)" gradientUnits="userSpaceOnUse"><stop offset="0" stop-color="#fff"/><stop offset=".012" stop-color="#fcf4ea"/><stop offset=".04" stop-color="#f5ddbe"/><stop offset=".07" stop-color="#efc898"/><stop offset=".102" stop-color="#eab777"/><stop offset=".137" stop-color="#e6a95d"/><stop offset=".174" stop-color="#e39e48"/><stop offset=".216" stop-color="#e1973a"/><stop offset=".268" stop-color="#df9232"/><stop offset=".351" stop-color="#df912f"/><stop offset=".824" stop-color="#a24725"/><stop offset="1" stop-color="#a24725"/></radialGradient><path fill="url(#b)" d="M56.012 41.026c3.09 0 5.979.843 8.473 2.29.734-3.484 1.121-8.016.369-13.521 0 0-43.333-.697-52.686 41.044 0 0 10.997-15.703 28.547-20.091 2.706-5.74 8.528-9.722 15.297-9.722z"/><radialGradient id="c" cx="69.587" cy="53.773" r="81.436" gradientUnits="userSpaceOnUse"><stop offset="0" stop-color="#00abeb"/><stop offset=".029" stop-color="#22aae7"/><stop offset=".06" stop-color="#3fa8e3"/><stop offset=".091" stop-color="#53a8e0"/><stop offset=".122" stop-color="#60a7df"/><stop offset=".151" stop-color="#64a7de"/><stop offset=".327" stop-color="#4674b7"/><stop offset=".521" stop-color="#333b8b"/><stop offset=".758" stop-color="#211c51"/><stop offset="1" stop-color="#171043"/></radialGradient><path fill="url(#c)" d="M59.031 74.59c-.98.176-1.986.283-3.02.283-9.348 0-16.924-7.576-16.924-16.924 0-.668.049-1.324.125-1.974-3.497 1.12-7.876 3.165-12.536 6.911 0 0 21.746 37.496 62.332 23.982 0 .001-17.268-1.198-29.977-12.278z"/><g><radialGradient id="d" cx="56.125" cy="57.867" r="10.808" gradientUnits="userSpaceOnUse"><stop offset="0" stop-color="#e6f2f1"/><stop offset="1" stop-color="#719f77"/></radialGradient><path fill="url(#d)" d="M66.025 55.913c0 1.101-.072 1.774-.219 2.021-.145.247-.568.368-1.268.368H50.633c-.378 0-.627.052-.744.155-.116.101-.175.27-.175.502 0 2.193.656 4.021 1.968 5.48 1.312 1.463 2.945 2.195 4.898 2.195a6.291 6.291 0 0 0 3.521-1.049c1.062-.697 1.756-1.584 2.078-2.66l.393-1.264c.203-.699.686-1.047 1.443-1.047 1.078 0 1.619.551 1.619 1.656 0 1.891-.961 3.57-2.879 5.037-1.92 1.469-4.102 2.203-6.543 2.203-3.053 0-5.48-1.025-7.283-3.074-1.803-2.051-2.705-4.805-2.705-8.266 0-3.547.96-6.426 2.878-8.636 1.92-2.209 4.42-3.314 7.502-3.314 2.732 0 4.986.912 6.762 2.737 1.775 1.827 2.659 4.145 2.659 6.956zm-15.83-1.101c0 .409.321.611.963.611h10.459c.613 0 .92-.202.92-.611 0-1.541-.584-2.877-1.75-4.012-1.168-1.133-2.539-1.7-4.113-1.7-1.635 0-3.125.588-4.467 1.767-1.342 1.178-2.012 2.492-2.012 3.945z"/></g></svg>