<svg xmlns:xlink="http://www.w3.org/1999/xlink"  xmlns="http://www.w3.org/2000/svg" viewBox="0 0 1000 1000"><path fill="#3A6AB2" d="M834 745.3c-5.3 4-12.7 9.3-21.3 16-8.7 6-18.7 12.7-29.3 18.7-11.3 6-22.7 12-35.3 17.3-12.7 5.3-25.3 9.3-38 11.3s-25.3 2.7-36.7 1.3c-12-1.3-22.7-6-32-13.3-14-10.7-22-23.3-24.7-38.7-2.7-15.3-4.7-29.3-6-42.7-2-14.7-3.3-30-3.3-45.3s-.7-30.7-2-46c-1.3-12.7-5.3-25.3-11.3-38-6-12.7-18-23.3-36-32.7-16-8-34.7-13.3-56.7-16.7-12-1.3-22.7-1.3-32-1.3-6 .7-10.7-1.3-12.7-4.7-2-3.3-.7-6 5.3-8 2.7-.7 6-1.3 10-.7 4 0 8 .7 12 .7h22.7c5.4 0 10.7-.7 16.7-.7 14-.7 27.3-2 40-3.3s25.3-3.3 38-6c24.7-4.7 47.3-11.3 68.7-20 20.7-8.7 39.3-18.7 55.3-30s30-23.3 41.3-36.7 20-26.7 26.7-41.3c6-14.7 9.3-29.3 10-44 .7-14.7-2-29.3-8.7-43.3S778 270.7 764 258.7s-32-22.7-54-31.3c-18.7-7.3-38.7-13.3-59.3-18-21.3-4.7-42.7-8-65.3-10-22.7-2-45.3-2.7-68-2.7-22.7 0-45.3 1.3-67.3 2.7-25.3 1.3-51.3 4-76.7 8-25.3 3.3-50 8.7-74 14.7s-46 14-66 22.7c-20.7 9.3-38 19.3-52 32-14 11.3-24 24-30 36.7-6 13.3-8.7 26.7-7.3 40 1.3 13.3 7.3 26 17.3 38 10.7 12 25.3 22.7 45.3 31.3 12 5.3 24.7 10 38.7 12.7 14 2.7 28.7 5.3 42.7 6 5.3.7 12.7.7 20.7 0s14 .7 17.3 2c3.3 2 4 4 2.7 6.7-2 2.7-5.3 3.3-10.7 3.3-26.7-.7-52-3.3-75.3-9.3s-43.3-14-60-23.3c-16.7-10-30-21.3-39.3-34.7s-13.3-28-12.7-43.3c.7-14.7 5.3-28.7 14.7-42 8.7-13.3 21.3-25.3 36.7-36 15.3-11.3 33.3-20.7 53.3-30 20-8.7 41.3-16 64-22C340.7 202 384 194 428.7 190c44.7-4 90-6 136-6 25.3 0 51.3 1.3 77.3 3.3 26 2.7 50.7 6 74.7 11.3 24 5.3 46 12 66.7 20.7C804 228 822.7 238 838 250.7c16 12.7 27.3 26 35.3 41.3 7.3 14.7 12 29.3 12.7 44.7.7 14.7-2.7 30-9.3 44.7-6.7 14.7-16.7 28.7-30 42-26 26.7-61.3 48-105.3 64-44 16.7-90.7 28.7-140 36.7-8 1.3-16.7 2-24.7 3.3-8 .7-16 2-23.3 2.7l17.3 3.3c22 5.3 41.3 12.7 57.3 22.7s29.3 20 38.7 32.7c11.3 14 18 28 20.7 43.3s3.3 30 2 45.3c-2 14.7-6 30-12 44-6 14.7-8.7 29.3-8.7 44 0 4 1.3 9.3 3.3 14.7 2 5.3 8 8.7 17.3 9.3 18 2.7 36 .7 54-6.7 20.7-7.3 39.3-17.3 54.7-28.7 16-11.3 30.7-23.3 43.3-34.7 28-26 52.7-52 73.3-79.3 5.3-7.3 10.7-14 16-21.3 2.7-3.3 5.3-7.3 8-11.3 9.3-36 14.7-73.3 14.7-112 0-248.7-204-452.7-455.3-452.7S42.7 246.7 42.7 498c0 100 32.7 192.7 88 268 12.7-4 24.7-8.7 34.7-15.3 15.3-10 28.7-19.3 40-29.3 14-12 26-24 36.7-37.3 10.7-13.3 20.7-26 29.3-39.3 16-24.7 30-50 41.3-74.7 12-25.3 22-50.7 31.3-76.7l14.7-40.7c6-14.7 13.3-29.3 22-43.3 8.7-14 18.7-28 29.3-41.3 10.7-13.3 22.7-26 34.7-38.7 12-12.7 26.7-24.7 44-35.3 6.7-4.7 14-8.7 22-12.7s16.7-7.3 26.7-10c6.7-1.3 10.7-.7 11.3 2 .7 2 2 5.3 3.3 8 0 .7-1.3 2-4 4.7-2.7 2-4.7 3.3-6 4.7-6 6-11.3 11.3-14.7 17.3-6 7.3-12 14.7-16.7 22.7C506 338 501.3 346 496 354c-8.7 14.7-16.7 29.3-22.7 43.3-6 14.7-12.7 29.3-20 44-10 22-20 44-30 65.3-10.7 22-21.3 43.3-33.3 64.7-16 28.7-34.7 57.3-56.7 85.3s-50.7 54-84.7 77.3c-15.3 10-32 20-51.3 29.3-16.7 8-36 14-56.7 18 84 104.7 212.7 172 357.3 172 197.3 0 364.7-125.3 428-300.7-3.3 4.7-6.7 8.7-10 13.3C892 694 865.3 720 834 745.3z"/></svg>