<svg xmlns:xlink="http://www.w3.org/1999/xlink"  xmlns="http://www.w3.org/2000/svg" width="100" height="100" viewBox="0 0 100 100"><radialGradient id="a" cx="-45.87" cy="52.175" r="68.567" gradientTransform="matrix(-1 0 .267 1 -4.723 0)" gradientUnits="userSpaceOnUse"><stop offset="0" stop-color="#fff"/><stop offset=".017" stop-color="#f7ddde"/><stop offset=".043" stop-color="#edb1b4"/><stop offset=".071" stop-color="#e48b8e"/><stop offset=".1" stop-color="#dc6a6f"/><stop offset=".131" stop-color="#d65055"/><stop offset=".165" stop-color="#d13b42"/><stop offset=".204" stop-color="#ce2d34"/><stop offset=".251" stop-color="#cc252b"/><stop offset=".327" stop-color="#cb2229"/><stop offset=".486" stop-color="#a31d26"/><stop offset=".619" stop-color="#881924"/><stop offset=".697" stop-color="#7e1823"/><stop offset=".982" stop-color="#5e0011"/></radialGradient><path fill="url(#a)" d="M81.211 51.593c0 .016.007.031.011.051h-2.801C74.975 40.896 64.35 32.943 54.312 31.099l-.752-2.809c3.087.393 6.343 1.371 9.663 3.055 7.784 3.945 15.156 11.495 17.988 20.248z"/><radialGradient id="b" cx="-48.601" cy="53.434" r="111.928" gradientTransform="matrix(-1 0 .267 1 -4.723 0)" gradientUnits="userSpaceOnUse"><stop offset="0" stop-color="#00abeb"/><stop offset=".029" stop-color="#22aae7"/><stop offset=".06" stop-color="#3fa8e3"/><stop offset=".091" stop-color="#53a8e0"/><stop offset=".122" stop-color="#60a7df"/><stop offset=".151" stop-color="#64a7de"/><stop offset=".327" stop-color="#4674b7"/><stop offset=".521" stop-color="#333b8b"/><stop offset=".758" stop-color="#211c51"/><stop offset="1" stop-color="#171043"/></radialGradient><path fill="url(#b)" d="M79.448 56.26h2.88c1.842 11.681-4.543 19.964-13.464 22.637-.425.127-1.027.216-1.72.292l-.842-3.156c9.273-2.124 14.428-9.869 13.146-19.773z"/><g><radialGradient id="c" cx="39.28" cy="53.645" r="22.535" gradientUnits="userSpaceOnUse"><stop offset="0" stop-color="#cb2229"/><stop offset=".429" stop-color="#a31d26"/><stop offset=".788" stop-color="#881924"/><stop offset="1" stop-color="#7e1823"/></radialGradient><path fill="url(#c)" d="M16.694 38.98h10.963l-.802 4.478c1.263-1.491 2.889-2.756 4.879-3.789.496-.266.839-.439 1.033-.515.458-.189 1.098-.402 1.921-.632.822-.229 1.732-.344 2.724-.344 4.786 0 7.692 1.835 8.726 5.51 3.33-3.675 7.155-5.51 11.48-5.51 3.211 0 5.604.669 7.171 2.008 1.571 1.341 2.354 3.541 2.354 6.6 0 1.265-.113 2.699-.344 4.306l-3.158 18.021H51.646l2.7-15.38c.229-1.224.343-2.22.343-2.986 0-1.147-.249-1.959-.745-2.438-.5-.479-1.339-.717-2.526-.717-1.147 0-2.188.354-3.127 1.059-.939.711-1.656 2.404-2.152 5.082L43.5 69.112H31.502l2.756-15.667.23-2.582c0-2.185-1.034-3.271-3.099-3.271-1.339 0-2.467.459-3.388 1.374-.803.882-1.472 2.469-2.007 4.767l-2.697 15.38H11.416l5.278-30.133z"/></g></svg>