<svg xmlns:xlink="http://www.w3.org/1999/xlink"  xmlns="http://www.w3.org/2000/svg" viewBox="0 0 1000 1000"><path fill="#BAD87D" d="M814 598h-.7c0-.7-19.3-60.7-54.7-114-.7-.7-.7-1.3-1.3-2-4.7-7.3-10-14-15.3-20.7-24.7-32.7-53.3-62-86-87.3-41.3-32-88.7-58-141.3-78-34.7-12.7-72-23.3-110-30-88-16.7-155.3-11.3-156-11.3h-3.3l1.3 3.3c28 69.3 109.3 134 150 162.7-94.7-45.3-214-150-215.3-151.3l-4.7-4.7 1.3 7.3c11.3 56.7 33.3 108.7 64 155.3l.7-.7c.7.7 52.7 77.3 118 120l-.7 1.4c8.7 6 17.3 12 26.7 18 100.7 64.7 218 95.3 298 110.7 77.3 14.7 136 16.7 148.7 17.3l2 2c0-4.7 0-8.7 1.3-12.7-5.4-30-13.4-58.6-22.7-85.3z"/><path fill="#688037" d="M316 227.3c-.7-4.7-.7-9.3-.7-14.7 0-19.3 4-38 12.7-56.7 8.7-18.7 21.3-35.3 38-50.7s36.7-27.3 60.7-36.7c24-9.3 52-14 83.3-14 38.7 0 70.7 7.3 96 21.3 25.3 14 46 32.7 62.7 56 16.7 23.3 30 48.7 40.7 77.3 10.7 28.7 20.7 57.3 30 86.7h15.3V58H736c-4 10-8 17.3-11.3 20.7-3.3 4-10.7 5.3-22 5.3-9.3 0-20-2.7-31.3-7.3-11.3-5.3-24.7-10-39.3-16-15.3-5.3-32.7-10.7-52-16-20-5.3-42.7-7.3-68.7-7.3-41.3 0-79.3 7.3-114 22-35.3 14.7-65.3 34-90.7 58-25.3 24-44.7 51.3-59.3 82.7-4.7 10.7-8.7 21.3-12 32 24-2.7 49.3-4.7 76-4.7 2.6-.1 3.3-.1 4.6-.1zM802 716c-42.7 0-75.3-6-98-12.7 6.7 16.7 10 35.3 10 56.7 0 16.7-3.3 36-9.3 58.7-6 22-17.3 43.3-32.7 63.3s-36.7 37.3-63.3 50.7c-26.7 14-61.3 20.7-102.7 20.7-12 0-24.7 0-38.7-.7-14-.7-28.7-2.7-44-7.3-15.3-4.7-31.3-12-48.7-22-16.7-10-34.7-24.7-52.7-44-16.7-16.7-30.7-35.3-42-54.7-11.3-20-20.7-39.3-28.7-58C244 748 238 730 234 714c-4-16.7-6.7-29.3-8-39.3h-18V954h18.7c4-12 8-19.3 13.3-23.3 4.7-4 12.7-6 23.3-6 8 0 20 2.7 36 7.3 16 4.7 34.7 10 55.3 16 20.7 5.3 43.3 10.7 67.3 16 24 5.3 48 7.3 72.7 7.3 48.7 0 93.3-8 133.3-24.7s74-38.7 102.7-66c28.7-28 51.3-60 66.7-96.7 9.3-22 16-45.3 20-68.7-4 .8-10 .8-15.3.8z"/></svg>