<svg xmlns:xlink="http://www.w3.org/1999/xlink"  xmlns="http://www.w3.org/2000/svg" viewBox="0 0 150 150"><path fill="none" d="M47.5 65.9C45.3 60 42.7 54.2 39 49c-.7-1-1.4-1.9-2.2-2.9-.3 1.3-.6 2.6-.9 4 2.3 3.5 7.2 13.1 7.3 13.3 2.9 6.5 6.8 19.1 7.7 27.4.8.6 1.5 1.2 2.3 1.8-.6-3.5-.9-8.5-1.6-11.1-1.3-5.2-2.2-10.5-4.1-15.6zM36.5 67.5c1.8 7.7 5.7 14.7 11.1 20.2-2.3-4.8-5.6-11.7-7.8-15.1-1.1-1.6-2.2-3.3-3.3-5.1zM89.7 99.6c.4-.1.8-.2 1.3-.4-.5 0-.9.1-1.3.4z"/><path fill="#08A9E1" d="M38.9 49.1c3.7 5.2 6.3 11 8.5 16.9 1.9 5.1 2.9 10.4 4.2 15.6.7 2.6 1 7.6 1.6 11.1 7.2 5.2 16 8.3 25.5 8.3 3.8 0 7.5-.5 11-1.4.4-.3.8-.4 1.3-.4 9-2.6 16.7-8.1 22.3-15.3-5.4-4.4-10.9-8.4-17-12.6C78.4 59.1 58.7 49 37.5 43.9c-.2.7-.5 1.5-.7 2.2l2.1 3zM87.9 55.4c2.6 1.6 4.8 3.5 7.5 5 .5 0 1.3.1 1.3-.6v-7.9c0-.6.1-.8-.3-1.5-.9-2.3-3-3.8-5.2-4.3-2.9-.7-4.9-.2-4.9.7-.1 2.5 0 5-.1 7.6.6.3 1.2.6 1.7 1z"/><path fill="#08A9E1" d="M35.9 50.1c-.4 2.4-.6 4.9-.6 7.4 0 3.5.4 6.8 1.2 10 1.1 1.7 2.3 3.4 3.4 5.2 2.1 3.4 5.5 10.2 7.8 15.1 1.1 1.1 2.2 2.1 3.3 3.1-.9-8.3-4.8-20.9-7.7-27.4-.2-.3-5.1-9.8-7.4-13.4zM94.9 61.9c-2.8-2-5.9-3.6-8.7-5.5-.5 0-1.1 0-1.5.2l-1.2.3c-.3 0-.6.1-.8.1-1.4.6-2.8 0-4.2-.1 0 .2.1.6.2.8C91.2 65 103.4 72.9 115 81.6c.7-1 1.4-2.1 2-3.2-7.4-5.6-14.6-11.3-22.1-16.5zM101.3 56.4c-.2.1-.5.3-.7.4-1.1 1-.7 2.4-.6 4.1 0 .3.2.8.3 1.1l.3.9c1.6 2.4 4.4 3.5 6.7 5.2.2.2.5.4.5.2.5-2.1.1-3.1.1-4.6v-2.9c-.9-1.4-4.9-5-6.6-4.4zM110.8 67.6V70c0 1.3 3.8 4.3 5.8 5.8.2.1.5.2.6.1.3-.1.3-.5.4-.8 0-.8.4-3.7 0-4.5-.7-1.4-2.2-2.1-3.4-3.1-2.2-.7-3.4-.3-3.4.1zM79.4 128.2c3.3-.1 6.5-.5 9.7-1.2 6.4-1.4 12.4-3.9 17.8-7.2 5.4-3.3 10.3-7.2 14.7-11.5 2.2-2.2 4.3-4.4 6.2-6.8 2-2.3 3.8-4.8 5.5-7.3-2.4 1.8-4.9 3.6-7.3 5.4-2.4 1.8-4.9 3.5-7.3 5.1-4.9 3.3-10 6.2-15.2 8.5-1.3.6-2.6 1.1-3.9 1.6-1.3.5-2.6 1-4 1.4-2.7.8-5.4 1.5-8.1 1.9-2.7.4-5.5.7-8.2.7-2.7 0-5.5-.2-8.2-.6-2.7-.4-5.4-1-8.1-1.8-2.7-.8-5.4-1.7-8.1-2.8-1.3-.5-2.6-1.1-4-1.7-1.5-.6-3-1.2-4.6-1.7-1.6-.5-3.2-.9-4.8-1.2-1.6-.3-3.3-.5-4.9-.6-6.6-.5-13.2.8-19 3.4-2.9 1.3-5.6 2.9-8.1 4.8s-4.8 4-6.7 6.4c5.2-3.2 10.7-5.5 16.2-6.8 5.6-1.3 11.2-1.5 16.5-.4 1.3.3 2.7.6 4 1 1.3.4 2.6.8 3.8 1.4 1.3.5 2.5 1.1 3.7 1.7l4.2 2.1c2.9 1.3 5.8 2.4 8.9 3.4 3.1 1 6.2 1.7 9.4 2.2 3.4.4 6.6.7 9.9.6z"/><path fill="#0D2240" d="M142.7 93.5l-3.7 4.6c-2.5 3-5 6-7.5 8.8-5.1 5.7-10.4 10.9-16.4 15.1-5.9 4.2-12.4 7.3-19.6 9.2-3.6 1-7.3 1.7-11.1 2.2-1.9.3-3.9.5-5.8.7l-6 .6c1.9.8 3.8 1.4 5.8 2 2 .6 4 1 6 1.3 4.1.6 8.2.8 12.4.4 4.2-.4 8.4-1.3 12.4-2.8 4-1.5 7.8-3.5 11.3-6 7-4.9 12.6-11.4 16.9-18.4 2.1-3.5 4-7.1 5.5-10.9.8-1.9 1.5-3.8 2.1-5.7.6-1.9 1.1-3.9 1.5-5.9-1.3 1.7-2.6 3.3-3.8 4.8z"/><path fill="#EF7622" d="M100.5 33.5c-3.8-2.9-5.5-8.3-4.2-13-3.2 5.3.5 13.8 6 16 5.8 2.4 12 .2 15.1-5.3 3.3-6-.5-14.6-7.5-16.4-5.3-1.4-11.2 2-12.6 7.3-.8 3.2.4 8.7 3.2 11.4z"/><path fill="#0D2240" d="M78.7 113.4c28 0 50.7-22.7 50.7-50.7 0-11.2-3.7-21.6-9.8-30-.1.2-.2.4-.3.5-.7 1.3-1.6 2.4-2.5 3.4 3.4 6.2 5.3 13.3 5.3 20.9 0 7.6-2 14.7-5.4 20.9-.6 1.1-1.3 2.2-2 3.2-.5.8-1 1.5-1.6 2.2-5.5 7.2-13.3 12.7-22.3 15.3-.4.1-.8.2-1.3.4-3.5.9-7.2 1.4-11 1.4-9.5 0-18.3-3.1-25.5-8.3-.8-.6-1.6-1.2-2.3-1.8-1.2-1-2.3-2-3.3-3.1-5.4-5.5-9.3-12.5-11.1-20.2-.8-3.2-1.2-6.6-1.2-10 0-2.5.2-5 .6-7.4.2-1.3.5-2.7.9-4 .2-.8.4-1.5.7-2.2C43.2 26.6 59.5 14 78.7 14c6.3 0 12.2 1.3 17.6 3.7.5-.7 1.1-1.3 1.8-1.9-6-2.5-12.5-3.8-19.3-3.8C50.7 12 28 34.7 28 62.7c0 28 22.7 50.7 50.7 50.7z"/></svg>