<svg xmlns:xlink="http://www.w3.org/1999/xlink"  xmlns="http://www.w3.org/2000/svg" width="100" height="100" viewBox="0 0 100 100"><path fill-rule="evenodd" clip-rule="evenodd" fill="#FFF12D" d="M67.233 64.929a1.194 1.194 0 0 1-.063-.109c.04 0 .08-.012.121 0 .023.029.04.063.046.092-.046.005-.058.017-.104.017zM70.081 63.309a1.205 1.205 0 0 0-.023-.144c.046-.006.069-.006.104-.018.012.041.023.075.035.121-.047.018-.088.024-.116.041z"/><path fill-rule="evenodd" clip-rule="evenodd" fill="#00ABEB" d="M71.839 63.782v.005c.104-.005.294-.005.484-.005a3.551 3.551 0 0 0-.484 0zm-.334-.011h.012-.012zm-10.671.455c.006.04.012.081.029.109a.595.595 0 0 1 .063-.028.315.315 0 0 0-.092-.081zm35.009 1.648c-.099-.138-.133-.3-.161-.467.098-.034.12-.012.195.046.041 0 .075-.011.133-.011.294-.768-.392-1.471-.536-2.226-.075-.04-.121-.069-.179-.098.381-1.286-2.56-4.577-2.577-5.828-.241-.093-.594-.808-.651-1.072-.991-.605-4.945-2.813-5.557-3.407-.288.041-.749-.213-1.142-.179-.127-.316-.334-.006-.513-.288-1.914.029-4.226-1.279-6.134-1.009-.022.018-.034.058-.04.093-.185-.093-.387-.202-.56-.053-.409-.352-.928-.074-1.291-.305-.087.04-.167.063-.236.098a.432.432 0 0 1-.087-.081c-.12.018-.155.006-.225.104-.311-.393-1.43.058-1.787-.248-.207.034-.72.069-.876-.052-.3.074-1.199.074-1.441-.018-.034.018-.046.046-.08.092-.346-.155-.346-.155-.524-.189-.006.046-.006.08-.018.132-.266-.132-1.648-.189-1.77-.086-.167-.012-.536-.167-.767-.202-.26.271-1.47-.058-1.868.087-.046-.035-.058-.063-.086-.099-.064.018-.064.018-.174.11-.501-.323-2.23.138-2.363-.063-.293.04-1.758-.081-1.844.046-.375-.052-2.15.213-2.312.006a.631.631 0 0 0-.38.167c-.577-.098-1.009.046-1.608-.075a.506.506 0 0 1-.012.099c-.098.017-.179.046-.26-.023-.086 0-.172.012-.248.018l-33.307 6.341c-1.758.467-3.649 1.51-5.425 1.752-.634 1.476-7.355 2.087-8.514 3.776-.329.006-.513.288-.812.322-.3.605-2.231.917-2.398 1.753-.404-.047-2.467 1.902-3.147 2.092-.011.041-.023.081-.034.144-.179.075-.404.271-.583.288-1.989 3.165 3.499 5.868 4.883 4.837 1.372.594 3.182.092 4.548.605.56-.341 2.029-.023 2.692-.116.006.035.011.069.023.093.6-.173 1.752.161 2.231-.196.161.075.715.046.801-.075.035.006.069.035.109.059.19-.196.998-.208 1.28-.133.058-.063.6-.145.623-.115.98-.824 3.637-.3 4.594-1.229.334.121 3.816-.697 4.029-1.02 1.672-.087 8.307-1.078 9.321-1.851.179.138 1.165-.156 1.487-.075.496-.381 1.856.075 2.225-.467 3.753-.524 7.529-.911 11.229-1.436.346.34.427.115.9.058.633.133 6.744.375 6.859.282.155.075.265.156.449.162.098-.19.242-.168.334-.398 1.396.398 7.673-.08 11.483.254-.149-.421-.87-.254-1.205-.23.012.034.018.08.023.133-.455-.029-2.104-.819-2.565-.357-.548-.363-2.657-.104-2.79-.404-.185.018-.362.041-.53.063-.052-.08-.127-.104-.155-.173-.208.052-.3.081-.513.012 0 0 .022-.046.057-.058-.012-.052-.012-.109-.022-.167-.034.012-.069.012-.093.023 0 .022.012.052.012.092 0 0-.046.006-.074.006-.006.034-.006.08-.006.115-.329.046-.732-.023-1.066-.069l-.018-.069a5.57 5.57 0 0 1-1.978 0c-.017-.04-.017-.074-.04-.121a2.972 2.972 0 0 1-.404-.046c-.022-.063-.034-.144-.045-.207.034-.058.034-.058.104-.069.012.012.057.022.086.046.213-.145 1.021-.167 1.332-.161 0 0 0 .034.006.058.207 0 .42-.012.628-.023 0 0 .012.034.018.069.939-.104 3.061-.087 3.995.086a.2.2 0 0 0 .022.059c.312-.029.57-.11.859-.145 0 .023.017.058.04.081.242.034.634-.063.934-.069a.108.108 0 0 1 .012.046c.063-.023.127-.058.196-.087v-.017c-.277-.035-.565-.058-.836-.087-.041-.069-.041-.069-.012-.109.098-.006.213-.006.317-.012a96.655 96.655 0 0 1-.784-.069c-.035-.058-.035-.058-.012-.092.213-.018.433-.006.634-.075.006.023.018.029.018.052.098-.006.202-.017.294-.017-.554-.202-3.078-.248-3.626-.283 0 0 .006.047.018.069-.922.312-2.605.542-3.614.248-.202-.034-.397-.063-.565-.121-.08-.196.053-.449 0-.628-.062.022-.133.034-.213.058 0-.081-.012-.167 0-.26.195-.023.397-.034.611-.023.461-.034.968.023 1.464.047.104 0 .202 0 .3-.006l.034.017c.145.012.266.012.392 0 .15.121.381-.046.508.081 1.787-.052 4.093.524 5.661.109.012.081.473.109.564.109.012-.092.012-.092.069-.121.069.047.069.047.081.133h.207c.012.035.012.075.023.109a.467.467 0 0 0 .075.018h.04c.012-.092.012-.092.063-.139.058.058.058.058.086.156h.202s.006.022.006.034c.421.035.922.012 1.222.023.006.018.023.046.035.069.34-.047.749.046 1.031-.145l-.028-.04c-.242-.023-.496-.041-.651-.104.017-.029.04-.047.086-.063-.225-.023-.449-.029-.588-.087.075-.092.346-.069.455-.086.006-.047.006-.093.023-.139a.458.458 0 0 0-.121-.098v.04c-.034.022-.058.034-.058.034-.034-.018-.046-.04-.063-.063.018-.011.052-.017.075-.022-.058-.035-.115-.035-.185-.035h.023s0 .058.006.099c-.053.011-.11.022-.168.046-.08-.046-.092-.046-.138-.145-.023 0-.058.012-.058.012-.023-.012-.035-.034-.035-.034.023-.035.058-.047.104-.058v.068c.046-.011.068-.011.109-.011l-.006-.041c1.418-.08 3.251.15 4.635.375 0 0 .017.034.028.063a.845.845 0 0 1 .179-.04c-.104-.029-.19-.052-.276-.081a1.77 1.77 0 0 1-.058-.207c.109-.069.225-.127.352-.18-.006-.022-.006-.046-.006-.046.139-.028.19-.034.242-.058-.854-.046-2.041-.144-2.554.029-.052-.069-.167-.115-.317-.145-.074.018-.138.023-.195.041-.041-.047-.133-.087-.26-.116-.397-.046-.859-.063-1.066-.092v-.023c-.167-.005-.306-.017-.415-.022a8.407 8.407 0 0 1-.617-.046c-.524-.018-1.101-.116-1.608-.099-.104-.173-2.213-.195-2.957-.23-.017.012-.022.012-.034.023l-.006-.023h-.115l-.047-.063c-.045.006-.092.006-.126.006a.246.246 0 0 1 .005.046c-.051.047-.104.058-.144.075-.017-.028-.034-.052-.046-.075-.115-.006-.115-.006-.352.035-.006-.127-.006-.127.029-.208.207-.022.322-.052.432-.063V62.3c.536-.086.536-.086.963-.092.012.018.012.04.012.069.046-.006.104-.006.155-.018.063-.012.133-.022.196-.034.248-.041.489-.087.686-.093 0 0 .023.035.029.075a5.82 5.82 0 0 1 .651-.04.432.432 0 0 1 .034.08c.87-.121 1.856.035 2.772.047h.041c.173 0 .328 0 .484-.018l.005.058c.468-.04.998-.052 1.522-.035 1.043.006 2.173.127 3.061.363h.012v.006c.046.006.081.018.109.023a.163.163 0 0 1 .035.08c.132-.005.253-.011.386-.022 0 .034.023.063.029.104.086.018.144.04.219.075.086.242.479.276.697.357 0 .022 0 .034.006.069-.19-.047-.19-.047-.363-.047.052.023.104.047.156.063-.283.041-.514.035-.56.375 0 0 .052.029.092.035.053.189.075.23.231.305 0 .029 0 .058.011.099-.08 0-.155.006-.219 0 0-.023-.006-.052-.006-.052-.167-.018-.352-.075-.513-.075.069.028.155.063.23.109.34.087.542.282.934.455 0 0 0 .047.006.069.104.006.104.006.317.127.012.052.022.115.034.173-.737.104-1.452-.075-2.167-.248.011.046.028.099.046.162.063.022.139.052.225.086-.04.058-.069.104-.109.155.081.012.173.012.248.023-.018-.109.063-.139.121-.19.022.075.04.162.069.236.058.035.138.069.225.104-.099.173-.208.346-.3.513-.167-.046-.317-.023-.502 0a.368.368 0 0 0-.069.144c-.495.075-.956-.126-1.452-.011-.104-.167-.461-.156-.629-.156 0 .035 0 .063.006.109.11.029.3.069.357.19.11-.04.22-.063.347-.098 0 .034.005.081.011.121-.068.012-.144.023-.219.034.473.087.963.179 1.106.473.323.11.289-.259.629.133.455-.075.49-.046.824-.092.018.115.046.23.087.346a.144.144 0 0 1-.069.034 10.119 10.119 0 0 1-1.044-.127.615.615 0 0 1 .15.196c.322.121.288-.288.646.15.455-.075.484-.041.818-.081.029.121.052.242.093.375a.508.508 0 0 0-.041.022c-1.551-.127-3.026-.657-4.56-.853-.012-.029-.012-.053-.018-.069-.542-.069-1.182-.282-1.7-.162-.012.035-.035.069-.046.104 1.372.121 2.415.363 2.738.801 4.421.444 16.192 3.274 17.974 7.776.513-.213.006-2.214.91-2.467.081-.26.214-1.32.398-1.459.115.104.052.306.195.357.988-2.069-.632-3.966-.251-5.747zm-23.289-2.496c.04-.012.087-.012.139-.012l.006.029c.046-.006.092-.006.173-.023.046.271.052.312.069.363.161-.028.288-.08.334-.189-.046 0-.069-.006-.069-.006h-.028a.65.65 0 0 1-.179-.081c.034.006.058.018.058.018s-.006-.041-.023-.081c.242-.018.242-.018.3.012 0 0 .006.046.006.058h.023c.028.179.04.271.052.322.017.012.034.012.046.023 0 0-.012.034-.023.046l.023.063a.312.312 0 0 0-.121.093c-.34-.115-.894-.185-1.228-.063-.214-.173-.288-.069-.53-.047-.012-.034-.029-.074-.029-.115-.127 0-.254-.005-.363-.005 0 0-.052.005-.092.017-.006-.04-.023-.075-.023-.109h-.392c-.012-.034-.035-.058-.046-.087.12 0 .247.006.38.006 0 0 .012.035.012.069.185-.075.185-.075.288-.08.012.022.023.058.034.092h.041c.374-.034 1.273.046 1.4-.23l-.075-.006s0 .006.006.023l-.063.022h-.074c-.023-.046-.023-.08-.029-.104 0 0-.028-.006-.04-.018h.037zm-1.263-.034c.069 0 .133.012.214 0a.855.855 0 0 0-.167.098.468.468 0 0 0-.047-.098zm.496-.035c.098 0 .185 0 .288.023l-.012-.023c.047 0 .104-.011.15-.011l.018.068c.046.006.092.023.138.029-.034.012-.052.023-.052.023-.219 0-.409-.023-.6-.047l-.012-.017a2.88 2.88 0 0 1-.461-.047c-.012-.017-.022-.034-.034-.046.186-.032.387.008.577.048zm-.749-.017c-.075.017-.127.052-.179.086a.387.387 0 0 0-.035-.086h.214zm-.288-.029c0 .023.005.046.028.081-.052.012-.087.012-.121.012-.022-.047-.034-.063-.046-.093h.139zm-.473-.04c0 .022.011.046.028.075-.046.011-.081.011-.121.011-.012-.034-.028-.058-.04-.086a.493.493 0 0 1 .133 0zm-.335.524c-.046-.04-.092-.069-.133-.104.087-.058.11-.063.236-.041.053.111-.033.122-.103.145zm.036-.554c-.047.023-.087.069-.133.104-.035-.035-.069-.075-.099-.099.029-.021.029-.021.232-.005zm-.502.473c-.046-.022-.092-.063-.133-.08.087-.063.115-.069.23-.046.07.104-.034.104-.097.126zm.04-.495a.76.76 0 0 0-.132.092c-.029-.04-.063-.058-.099-.086.035-.024.035-.024.231-.006zm-.45.328c.006.041.018.069.023.109-.023.012-.041.012-.041.012a.249.249 0 0 1-.086-.058c.035-.022.075-.04.104-.063zm-.184.099c-.075.022-.121.046-.173.068-.023-.022-.047-.034-.047-.034a.555.555 0 0 1 .22-.034zm-.271-.133c.006.034.006.058.006.092l-.047.006s-.046-.028-.068-.046c.034-.018.068-.04.109-.052zm-.19.081c-.052.017-.099.04-.139.057v.006c-.046.012-.093.023-.127.035-.011-.046-.022-.081-.046-.104a.625.625 0 0 1 .15 0l.012.022c.045-.005.098-.016.15-.016zm-.185-.462c0 .023.035.046.058.087-.127.006-.242.028-.346.046-.023-.023-.034-.028-.046-.046.104-.029.219-.052.334-.087zm-20.81-8.964c-.058.099-.23.099-.346.121-.012-.046-.012-.092-.012-.138.174.035.174.035.358.017zm-.167 1.072c-.063.093-.236.093-.346.115 0-.046-.011-.086-.017-.115.173.018.173.018.363 0zm-.461-1.175c.041.185-.098.207-.213.271-.029-.08-.035-.149-.052-.207.046-.041.046-.041.265-.064zm-.161 1.095c.029.173-.098.179-.225.242-.017-.069-.035-.133-.046-.19.046-.029.046-.029.271-.052zm-2.739 10.307a2.557 2.557 0 0 1-.133.034.14.14 0 0 0-.006-.04.354.354 0 0 1 .162-.063s-.023.046-.023.069zm.311-.064a1.018 1.018 0 0 0-.144.052c0-.034-.011-.058-.011-.075.046-.022.098-.034.167-.058-.023.036-.023.052-.012.081zm.024.076c0-.023-.012-.041-.012-.041.046-.058.046-.058.115-.058 0 .018.006.041.006.041-.034.023-.074.04-.109.058zm.311-.064c-.023-.018-.035-.041-.035-.041.052-.062.052-.062.127-.062 0 .022.006.046.006.046-.04.034-.08.04-.098.057zm4-.271c-.046-.011-.081-.011-.081-.011-.104.011-.167.034-.248.034-.934-.093-1.862.167-2.778.202-.017-.047-.035-.075-.041-.115l.312-.035s-.012-.018-.023-.028c.847-.116 1.683-.19 2.536-.271l.012-.04c.029 0 .075-.012.075-.012.063.018.098.029.144.04 0 0 .058-.011.092-.011v-.081c.041-.006.081-.018.116-.023.207.173.657-.092.968.069-.265.057-.311.115-1.084.282zm.906-8.992v-.052c.041-.018.063-.023.063-.023-.006.051-.006.051-.063.075zm.19-.958c0-.028.012-.052.023-.069l.052-.012c0 .053 0 .053-.075.081zm4.612 8.953c-.012-.034-.035-.063-.047-.086.035-.012.087 0 .139 0 0 0 .006.034.006.058-.041-.001-.064.016-.098.028zm.31-.173h.139c0 .029.006.046.006.046a.313.313 0 0 1-.098.052c-.023-.035-.035-.069-.047-.098zm1.938 1.735c-.006-.023-.006-.052-.006-.052l-.075-.012c0-.023-.012-.052-.034-.063a.315.315 0 0 1-.174-.058.34.34 0 0 0-.098.069c-.018.04-.018.063-.029.092-.138-.104-.138-.104-.166-.195-.07.011-.133.022-.202.046 0 .012-.018.028-.018.028-.028.006-.04-.006-.04-.006-.19.047-.357.087-.554 0 .023-.022.052-.058.093-.068-.15.034-.301.058-.473-.012.172-.208 1.273-.248 1.51-.271a.465.465 0 0 0 .035.058c.161.023.299.012.352.006.046.087.08.173.133.271-.186.092-.186.092-.254.167zm.588-.115a.36.36 0 0 0-.053-.093c.029-.011.076-.011.076-.011a.186.186 0 0 1 .08.098s-.069 0-.103.006zm3.112.017c-.011-.023-.028-.029-.034-.047-.848.121-1.96-.063-2.848-.028-.006-.046.006-.081.046-.099a5.33 5.33 0 0 0-.438 0c-.034-.149.254-.138.352-.161v-.046c.49.213 2.139-.467 2.682-.156.299.012.518.093.576.329-.082.139-.197.162-.336.208zm1.032-1.337c.023.145.121.207-.058.288-.087 0-.467.023-.577-.052-.166.012-.397 0-.426-.046.04-.046.236-.069.352-.139 0-.207-1.729-.063-2.248-.161l-.081-.006.012.034c-.513-.052-1.118.023-1.591-.058v.069c-.363-.04-.762-.133-1.147-.138v-.047c.121-.08.202-.08.294-.006 0 0 .047-.017.075-.022-.012-.018-.012-.046-.018-.063.121-.052.196-.058.288 0 .069-.006.127-.023.208-.029.663-.167 1.626-.068 2.317-.185 0 .023.012.058.018.081h.086a.14.14 0 0 0 .012-.058c.617 0 1.199.046 1.805.058.144-.023.305-.046.443-.04.311-.052.68-.052.761.167-.196.15-.3.226-.525.353zm.202-1.154s.035 0 .059-.011c-.012.08-.023.155-.023.23l-.035.017c-.024-.039-.024-.039-.001-.236zm.438.157l-.04.034c-.041-.046-.041-.046 0-.282h.052a3.403 3.403 0 0 0-.012.248zm.923.167c-.023.012-.064.018-.064.018-.08-.069-.16-.081-.207-.168.081-.028.173-.046.271-.057v.207zm.414-.041s-.057.017-.08.04c-.063-.098-.15-.109-.196-.207.081-.018.179-.047.266-.063-.001.08-.001.149.01.23zm.018.041c.006-.052.115-.104.139-.155 0 .028.012.068.029.104a.6.6 0 0 0-.168.051zm.127-.358c.081.012.179.023.271.04l.012.069c-.093.023-.186.046-.271.069-.012-.063-.018-.114-.012-.178zm.415.294c-.052.023-.104.034-.161.063.006-.023.018-.029.029-.04.022-.047.115-.104.144-.162 0 .029.006.075.017.115-.039.012-.086.023-.132.047l.103-.023zm-.011-.352c.086 0 .189.023.287.046l.012.069a3.143 3.143 0 0 0-.276.075.734.734 0 0 1-.023-.19zm.264.392c.017-.04.017-.04.167-.063a.604.604 0 0 0-.167.063zm.952.069l-.023-.063c.104-.069.104-.069.208-.08.046.034.046.034.046.092a.977.977 0 0 0-.231.051zm.438-.005c-.018-.022-.023-.04-.023-.04.086-.098.086-.098.195-.121.047.046.047.046.047.098a1.288 1.288 0 0 0-.219.063zm.455-.94a1.395 1.395 0 0 0-.121.029c-.012-.023-.018-.023-.018-.023a.554.554 0 0 1 .156-.087c.001 0-.017.041-.017.081zm.426-.098a.259.259 0 0 0-.121.04c-.011-.023-.022-.034-.022-.034.04-.035.099-.058.155-.093-.012.024-.012.058-.012.087zm.917.185a.78.78 0 0 0-.104-.109.206.206 0 0 1 .104-.012c.023.04.046.08.075.109l-.075.012zm.507 1.015a.343.343 0 0 1-.051-.099h.144l.022.069c-.045.012-.08.018-.115.03zm-.231-.381s-.012-.028-.017-.046c.098-.023.202-.052.317-.075a.193.193 0 0 0 .057.069 3.447 3.447 0 0 0-.357.052zm.047-.819s.062-.018.109-.006a.633.633 0 0 1 .074.109c-.028.012-.045.012-.045.012a3.474 3.474 0 0 1-.138-.115zm10.676-4.537c-.133-.19-.381-.08-.582-.063-.133-.173-.56.052-.594-.132-.127.046-.185.034-.335.005 0-.04-.011-.068-.011-.098.616-.006 1.106.093 1.712.185-.017.069-.115.087-.19.103zm4.196-2.974c-.479-.179-.899-.311-1.406-.259-.058-.099-4.347-.715-4.508-.588-.415-.214-1.344-.271-1.787-.283-.034-.034-.058-.052-.058-.052-1.666.335-3.753-.564-5.505-.207-.058-.063-.127-.115-.19-.167-1.188.161-4.393.138-5.517-.214-.605.6-3.499-.386-3.926.26-1.551-.588-4.612.818-5.868.149-.081.047-2.473.335-2.664.214-.207.3-3.279.386-3.389.368a.428.428 0 0 1-.041-.092c1.205-.254 2.652-.536 3.822-.634 0 0 .023.052.058.098.196 0 .196 0 .288-.046.035.034.069.063.104.104.623-.213 1.107-.524 1.759-.392.017-.047.028-.081.052-.121 1.799-.19 3.793-.519 5.568-.294.317-.3 4.22-.133 4.6.034.174-.248 2.053-.3 2.37-.086.939-.329 2.306.109 3.326.052.322.282 2.882.138 3.447.121.155.08.334.185.362-.075l.063-.012c.099.427 1.188.145 1.522.438a.525.525 0 0 1 .092-.058s-.012.058 0 .086c2.121-.3 4.514.818 6.577.975.041.08.905.334 1.084.421.012.046.029.092.052.155-.102.03-.194.065-.287.105zm-7.026 9.466c-.041-.098-.174-.15-.335-.19.006.04.018.087.018.121.104.023.207.052.3.075l.017-.006zm3.994-1.067h-.022a.258.258 0 0 0-.162.149.719.719 0 0 0 .173-.069.32.32 0 0 1 .011-.08zm-8.935 1.355h-.006.006zm8.295-.715c0-.028-.012-.046-.023-.081-.028.006-.074.006-.121.023l.023.058h.121zm-.236.933c-.012-.069.023-.098.069-.132a8.024 8.024 0 0 0-.991-.19c-.196-.23-1.811-.397-2.023-.26a.6.6 0 0 0 .017.139c.928.207 2.052.397 2.928.443z"/><g fill="#AAC94A"><path d="M40.763 19.792l.617 1.77-2.577-.922 1.648 2.323-3.666-.011 1.106.859-3.309 1.165 1.153 1.262-6.479 3.32 13.362.905L45 38.072l-3.856-4.611-2.727 1.66-1.28-3.107-1.787 1.141-1.908-1.545-1.585.398-3.441-1.015.063 3.055-.894-.162.461 2.658-.974-.121.784 3.165-1.003.058.294 2.099-1.527-1.136 2.473 6.808-5.343-7.563 4.577-8.525-2.15 1.332-3.384.34-.842 1.182-2.987.217-.651 2.075-1.326-1.303-1.689 3.741-1.055-2.404-.894 8.606-.507-10.999L25.7 30.451l-6.537.605.254-1.684-3.367.934.45-1.332-3.078 1.948.081-2.825-1.608 2.271-.473-1.902-3.885 3.211 3.92-7.552c2.352.813 4.681 1.649 7.004 2.479a267.28 267.28 0 0 1 6.94 2.577l-1.389-2.64-1.718.519-.83-2.467-1.165.346-1.314-2.663-3.263 3.286-.461-.121 2.899-5.886 9.823 9.454-.923-11.199 7.252-3.891-5.021 4.485 1.845-.127-2.294 3.413 1.718.594-1.314 4.133 1.015.283-.732 1.499 8.791-11.996 7.431 4.041-4.988-.452z"/><path d="M46.354 79.242c.623-3.765.507-7.679-.357-11.76-.853-4.069-2.127-8.088-3.787-12.024a90.613 90.613 0 0 0-5.822-11.426c-2.219-3.666-4.398-6.969-6.52-9.903l-.357-2.012c1.343 1.072 2.651 2.444 3.931 4.133a181.613 181.613 0 0 1 3.39 4.623c1.729 2.537 3.47 5.298 5.251 8.284a83.21 83.21 0 0 1 4.791 9.264 61.813 61.813 0 0 1 3.407 9.73c.847 3.285 1.199 6.479 1.066 9.586l-4.993 1.505z"/></g><g fill="#AAC94A"><path d="M78.878 34.659l-.283 1.545-1.55-1.735.271 2.369-2.756-1.51.468 1.083-2.964-.507.335 1.39-6.261-.248 9.708 6.174-1.355 6.543-1.003-4.964-2.755.099.334-2.802-1.821.092-.802-1.914-1.359-.357-2.18-2.162-1.211 2.248-.611-.484-.76 2.138-.687-.495-.715 2.622-.778-.374-.668 1.666-.675-1.471-.945 6.013-.894-7.736 6.975-4.334-2.173.075-2.692-1.141-1.119.518-2.357-1.078-1.343 1.239-.462-1.499-2.813 2.041.186-2.185-4.243 5.915 4.185-8.237 11.979 3.043-5.193-2.254.905-1.13-2.946-.715.895-.784-3.131.155 1.246-2.035-2.162.997.415-1.579-4.254.738 6.087-3.903a447.414 447.414 0 0 1 4.266 4.704 329.725 329.725 0 0 1 4.168 4.75l.052-2.502-1.511-.334.393-2.145-1.026-.23.115-2.49-3.827 1.055-.301-.265 4.635-3.107 3.506 10.947 3.948-8.554 7.079.15-5.655 1.205 1.43.669-3.13 1.539 1.037 1.141-2.703 2.479.656.634-1.176.784 11.616-5.125 3.926 6.013-3.566-2.388z"/><path d="M58.448 80.39c2.028-2.49 3.562-5.396 4.601-8.722a53.237 53.237 0 0 0 2.121-10.359c.38-3.568.49-7.171.346-10.751-.162-3.591-.427-6.889-.818-9.915l.564-1.62c.576 1.332.992 2.876 1.257 4.635.265 1.752.479 3.343.651 4.778.242 2.571.421 5.31.53 8.215a70.81 70.81 0 0 1-.236 8.756 49.846 49.846 0 0 1-1.458 8.509c-.715 2.743-1.781 5.229-3.171 7.441l-4.387-.967z"/></g></svg>