<svg xmlns:xlink="http://www.w3.org/1999/xlink"  xmlns="http://www.w3.org/2000/svg" viewBox="0 0 1000 1000"><path fill="#E5A355" d="M564.9 323.6c146.2-20.7 281.4 81 302.1 227.2 15 106.3-34.7 206.7-119.1 261.6C882.6 749.8 966.5 604.6 944.6 450c-26.8-189.3-202-321-391.3-294.2-113 16-205.5 84.9-256 178.1 54.4 3.6 112.7 10.9 169.1 24.2 29.4-17.4 62.6-29.5 98.5-34.5z"/><path fill="#546685" d="M649.3 523.2c18.7-11.2 38.9-22.2 60.5-32.8 4.1-2 8.2-4 12.4-6 20.5-9.7 42.1-19 65.2-27.7 0 0-40.7.3-100.8 8.6C630 410.9 550.3 377.8 466.5 358c-56.4-13.3-114.7-20.6-169.1-24.2C162.8 325 52 338.5 52 338.5c46.2 8.9 89 19.1 129 30.4 31.8 9 61.6 18.7 89.6 29 39 14.3 74.5 29.8 106.8 46.1 43.2 21.8 80.7 45.1 113.4 69.3-54.3 20.4-108.5 48.1-155.5 85.8-16.9 13.6-32.9 28.6-47.6 44.9-3.5 3.9-6.9 7.8-10.3 11.9 0 0 9.8 6.5 24.5 15.5 16.2 9.9 38.3 22.8 60 33.4 32.1 15.7 63.1 26.2 71.8 13.9 9.4-13.4 36.7-53 88-100.6 13.4-12.5 28.5-25.5 45.4-38.7 89.6 91.7 123 186.3 135.1 250.4.4 2 .7 4 1.1 5.9 7.7 44.2 5.3 72.4 5.3 72.4 14.8-33 26.6-64.1 35.8-93.5l.2-.8C787.8 675 771 575.4 720.3 504.2c-24.7 5-50.3 12.3-71 19z"/></svg>