<svg xmlns:xlink="http://www.w3.org/1999/xlink"  xmlns="http://www.w3.org/2000/svg" width="100" height="100" viewBox="0 0 100 100"><radialGradient id="a" cx="30.621" cy="19.423" r="68.163" gradientUnits="userSpaceOnUse"><stop offset="0" stop-color="#00a69c"/><stop offset="1" stop-color="#00423d"/></radialGradient><path fill="url(#a)" d="M53.299 4.571c6.754 2.28 13.402 4.898 20.148 7.235a95.25 95.25 0 0 1-1.285 3.646c-.609.217-1.213.442-1.822.667-2.064 5.91-4.336 11.732-6.359 17.65 2.135.771 4.303 1.462 6.391 2.353 2.666 1.068 3.879 4.416 2.932 7.042-1.414 4-2.924 7.966-4.328 11.974 4.832-.29 9.395-2.032 13.947-3.533-3.479 1.678-9.002 4.022-12.471 4.601-14.035 3.004-28.619 1.326-42.447-1.991-5.316-1.293-10.552-2.932-15.683-4.85 4.144.971 8.335 1.806 12.591 2.153 2.916-7.582 5.542-15.266 8.392-22.871.891-2.578 3.831-4.296 6.504-3.605 2.265.619 4.417 1.558 6.649 2.297 2.039-5.926 4.335-11.772 6.36-17.707-.28-.57-.546-1.14-.819-1.71a57.647 57.647 0 0 0 1.3-3.351zm1.068 5.669c-2.111 5.869-4.353 11.708-6.352 17.618 4.747 1.895 9.596 3.508 14.375 5.324 2.223-5.862 4.279-11.78 6.447-17.658-.186-.417-.369-.819-.547-1.229-4.199-1.518-8.391-3.019-12.566-4.577-.449.177-.908.353-1.357.522z"/><g><radialGradient id="b" cx="34.831" cy="54.76" r="68.144" gradientUnits="userSpaceOnUse"><stop offset="0" stop-color="#44c7f4"/><stop offset=".177" stop-color="#22baf1"/><stop offset=".376" stop-color="#00adee"/><stop offset=".465" stop-color="#00a6e6"/><stop offset=".604" stop-color="#0092cf"/><stop offset=".777" stop-color="#0072aa"/><stop offset=".975" stop-color="#004678"/><stop offset="1" stop-color="#004071"/></radialGradient><path fill="url(#b)" d="M22.953 57.032c-3.315-1.397-6.745-2.675-9.756-4.69a93.222 93.222 0 0 0 11.628 3.39c-2.425 6.849-5.011 13.651-7.428 20.5-.417 1.06-.168 2.2.016 3.284 1.694-.85 3.646-1.517 5.533-.898 2.633.657 4.352 3.252 4.497 5.877 5.003 1.792 9.981 3.662 15 5.412 1.734-1.83 4.529-2.69 6.914-1.693 1.832.609 3.011 2.264 3.759 3.959.754-.756 1.533-1.526 1.877-2.554 3.904-10.561 7.598-21.184 11.605-31.696 3.727-.682 9.322-2.208 15.297-5.588-3.83 3.22-10.238 5.686-14.383 6.914C63.65 69.6 59.939 80.005 56.133 90.372c-.633 1.832-2.32 2.972-4.07 3.606-.249-2.505-2.256-4.986-4.955-4.817-1.783-.162-3.091 1.18-4.296 2.28-5.613-1.921-11.162-4.039-16.75-6.039.272-2.393-1.156-4.954-3.589-5.517-1.919-.651-3.839.409-5.195 1.71-1.237-1.622-1.903-3.813-1.141-5.798 2.223-6.27 4.536-12.511 6.816-18.765z"/><radialGradient id="c" cx="34.835" cy="54.752" r="68.15" gradientUnits="userSpaceOnUse"><stop offset="0" stop-color="#44c7f4"/><stop offset=".177" stop-color="#22baf1"/><stop offset=".376" stop-color="#00adee"/><stop offset=".465" stop-color="#00a6e6"/><stop offset=".604" stop-color="#0092cf"/><stop offset=".777" stop-color="#0072aa"/><stop offset=".975" stop-color="#004678"/><stop offset="1" stop-color="#004071"/></radialGradient><path fill="url(#c)" d="M18.352 75.798a5621.876 5621.876 0 0 0 7.244-19.891c13.097 2.835 26.715 4.217 40.047 2.217-3.422 9.291-6.746 18.605-10.168 27.896-.626 1.64-1.059 3.374-2.055 4.843-1.101-1.614-2.529-3.172-4.522-3.613-2.384-.715-4.922.217-6.761 1.775-4.633-1.76-9.323-3.35-13.94-5.124-.369-2.265-1.606-4.449-3.718-5.484-2-1.148-4.449-.933-6.513-.096.04-.852.073-1.719.386-2.523z"/><radialGradient id="d" cx="34.837" cy="54.769" r="68.125" gradientUnits="userSpaceOnUse"><stop offset="0" stop-color="#44c7f4"/><stop offset=".177" stop-color="#22baf1"/><stop offset=".376" stop-color="#00adee"/><stop offset=".465" stop-color="#00a6e6"/><stop offset=".604" stop-color="#0092cf"/><stop offset=".777" stop-color="#0072aa"/><stop offset=".975" stop-color="#004678"/><stop offset="1" stop-color="#004071"/></radialGradient><path fill="url(#d)" d="M19.492 81.098c2.208-1.22 5.316.337 5.557 2.875.586 2.938-2.947 5.501-5.549 3.959-2.786-1.165-2.73-5.622-.008-6.834z"/><g><radialGradient id="e" cx="34.839" cy="54.753" r="68.15" gradientUnits="userSpaceOnUse"><stop offset="0" stop-color="#44c7f4"/><stop offset=".177" stop-color="#22baf1"/><stop offset=".376" stop-color="#00adee"/><stop offset=".465" stop-color="#00a6e6"/><stop offset=".604" stop-color="#0092cf"/><stop offset=".777" stop-color="#0072aa"/><stop offset=".975" stop-color="#004678"/><stop offset="1" stop-color="#004071"/></radialGradient><path fill="url(#e)" d="M44.819 90.862c1.686-1.31 4.36-.858 5.525.932.939 1.413.819 3.413-.306 4.689-1.445 1.469-3.733 1.606-5.428.498-1.718-1.582-1.79-4.753.209-6.119z"/></g></g></svg>