<svg xmlns:xlink="http://www.w3.org/1999/xlink"  xmlns="http://www.w3.org/2000/svg" viewBox="0 0 1000 1000"><path fill="none" d="M614.5 246.8c3.1 0 5.7-2.7 5.7-6s-2.5-6-5.7-6c-3.1 0-5.7 2.7-5.7 6s2.6 6 5.7 6zM667.9 216c3.1 0 5.7-2.7 5.7-6s-2.5-6-5.7-6c-3.1 0-5.7 2.7-5.7 6 0 3.4 2.6 6 5.7 6zM686.3 464.2c15-7.1 30.6-13.7 46.7-19.5 1.2-24.5-7.4-42.7-20.1-56.1-13.3 4.7-27.5 10.1-42.4 16.5 15 16.2 18.3 37.6 15.8 59.1zM639.2 232.7c3.1 0 5.7-2.7 5.7-6s-2.5-6-5.7-6c-3.1 0-5.7 2.7-5.7 6s2.6 6 5.7 6zM749.9 439c11.6-3.7 23.5-7 35.5-9.8 5-26.3-3-44.8-15.3-57.7-11.3 2.7-24.4 6.3-39 10.9 6.3 7.1 11.4 15.7 14.8 26.3 3.4 10.3 4.4 20.4 4 30.3zM631.6 351.8l-1.3 6.8c5.3-1.4 10.6-2.8 16.1-4.1-6.3-1.4-11.5-2.3-14.8-2.7zM629.9 382.8c9.6 2.5 17.6 5.9 24.5 9.8 15.9-6.8 30.4-12.2 43.7-16.6-12.2-8.4-25.8-14-37.8-17.8-9.5 3.4-20.4 7.4-32.1 12.2l-7.2 37.5c8.5-4.1 16.6-7.9 24.4-11.4-8.5-9.2-15.5-13.7-15.5-13.7z"/><ellipse fill="none" cx="510.3" cy="307.5" rx="5.7" ry="6"/><path fill="none" d="M589.8 260.8c3.1 0 5.7-2.7 5.7-6s-2.6-6-5.7-6-5.7 2.7-5.7 6 2.5 6 5.7 6zM460.9 341.6c3.1 0 5.7-2.7 5.7-6s-2.6-6-5.7-6-5.7 2.7-5.7 6 2.6 6 5.7 6zM485.6 327.6c3.1 0 5.7-2.7 5.7-6s-2.5-6-5.7-6c-3.1 0-5.7 2.7-5.7 6s2.6 6 5.7 6zM539 296.8c3.1 0 5.7-2.7 5.7-6s-2.5-6-5.7-6c-3.1 0-5.7 2.7-5.7 6s2.6 6 5.7 6z"/><path fill="#F6516A" d="M367.4 448.5l-15.9-14.2c-40.3 34.8-71.7 72.1-89.1 108.7-53.2 112.2 44.6 175.6 218.5 141.7 142.3-27.8 291.4-112.3 370-203.5-77.1 77.3-206.3 146.2-330 170.1-163.5 31.6-255.5-27.3-205.5-131.5 11.4-23.9 29.4-47.9 52-71.3z"/><path fill="#6CAB36" d="M170.2 565.5C103.6 706.1 226.1 785.6 443.9 743c178-34.8 364.4-140.2 463.1-254.3-96.8 96.5-258.2 182.5-412.9 212.4-204.8 39.6-320.1-34.2-257.5-164.8 19.2-40 52.9-80.6 96.2-118.9L315.5 402c-66.7 51.1-118.9 107.9-145.3 163.5z"/><path fill="#00B7E4" d="M455.4 763C213 809.8 76.6 722.5 150.7 568c28.4-59.3 83.9-119.9 155-174.7L288 377.4C188 445.4 109.1 525 72.3 602.5c-78.9 166.4 66.1 260.4 323.9 210 210.5-41 431-165.8 547.8-300.8C829.5 625.9 638.5 727.6 455.4 763z"/><path fill="#006DB6" d="M547.1 341.9l-6.1 4.7 2 13.5 1.6 10.8 3 19.7 2.4 16.1 5.5 36.3 3.4 22.6 6.4 42.5 41.2-25.9 9.7-50.9 4.5-23.4 7.2-37.5 2.3-11.8 1.3-6.8.2-.8 2.2-11.7 3.5-18.2 7.1-37.1 17.2-10.3c152.5-103.2 53.4-90 53.4-90-.4-.3-.8-.5-1.3-.8-5.2 7.2-17.4 12.8-17.4 12.8l-7-2.9c10.3-5.6 10.7-12.7 10.3-16.1-37.5-10.3-80 20.1-80 20.1L381.6 344.2 309 308.8l-43.9 26.3 119.4 103.4 162.6-96.6zM667.9 204c3.1 0 5.7 2.7 5.7 6s-2.5 6-5.7 6c-3.1 0-5.7-2.7-5.7-6s2.6-6 5.7-6zm-28.7 16.7c3.1 0 5.7 2.7 5.7 6s-2.5 6-5.7 6c-3.1 0-5.7-2.7-5.7-6s2.6-6 5.7-6zm-24.7 14c3.1 0 5.7 2.7 5.7 6s-2.5 6-5.7 6c-3.1 0-5.7-2.7-5.7-6s2.6-6 5.7-6zm-24.7 14.1c3.1 0 5.7 2.7 5.7 6s-2.6 6-5.7 6-5.7-2.7-5.7-6 2.5-6 5.7-6zm-50.8 36c3.1 0 5.7 2.7 5.7 6s-2.5 6-5.7 6c-3.1 0-5.7-2.7-5.7-6s2.6-6 5.7-6zm-28.7 16.7c3.1 0 5.7 2.7 5.7 6s-2.5 6-5.7 6c-3.1 0-5.7-2.7-5.7-6s2.6-6 5.7-6zm-24.7 14c3.1 0 5.7 2.7 5.7 6s-2.5 6-5.7 6c-3.1 0-5.7-2.7-5.7-6s2.6-6 5.7-6zm-24.7 14.1c3.1 0 5.7 2.7 5.7 6s-2.6 6-5.7 6-5.7-2.7-5.7-6 2.6-6 5.7-6z"/><path fill="#006DB6" d="M586.1 204.4L421.9 194l-35.4 31.8L493.4 257z"/><path fill="#00A8DE" d="M660.1 333.3c128.1-24.7 206.5 18.3 171.3 105.3-7.7 19.1-19.8 43.1-37.5 61.4l-1.1 3.2c31.6-27.3 56.2-56.5 69.8-85.2 41.7-87.9-34.9-137.6-171.2-111-17.9 3.5-36 8.3-54 13.9l-3.5 18.2c8.8-2 17.5-4.1 26.2-5.8z"/><path fill="#00A8DE" d="M646.4 354.5c-5.5 1.3-10.9 2.6-16.1 4.1l-2.3 11.8c11.8-4.7 22.6-8.8 32.1-12.2 12 3.7 25.6 9.4 37.8 17.8-13.3 4.4-27.8 9.8-43.7 16.6-6.9-3.9-14.9-7.3-24.5-9.8 0 0 7 4.5 15.4 13.7-7.8 3.5-16 7.3-24.4 11.4l-4.5 23.4c13.7-7.4 27.1-14.1 40.1-20 8.9 14.1 16.6 33.7 16.9 59.1C573 520.6 501.5 589.9 501.5 589.9c52.7-35.1 114.7-68.8 170.3-96.7-2.7 17.6-8.8 37.5-19.9 59.7 0 0 19.4-29.6 29.4-64.5 17.1-8.5 33.5-16.4 48.8-23.6-5.1 21.6-16.8 47.3-38 77.8 0 0 43.8-37.7 55.2-85.9 13.1-6.1 24.9-11.4 35.2-16-1.6 5.1-3.6 10.4-6.2 16.1 0 0 4.5-7 9-17.4 24.7-11 39.8-17.3 39.8-17.3-11.9 1.4-23.8 3.5-35.5 6.1 6.2-18.5 9.4-42.3-5.4-59.9 18.8-4 29.8-5.2 29.8-5.2s-12-5.3-39.6-3.5c-12.1-8.4-30.5-14.2-58.1-15.4 0 0 22.1 3.7 41.5 17.1-11.6 1.6-25.2 4.4-41 8.8-13.3-9.1-28.7-14.1-43-16.7 17.1-5.7 27.5-8.5 27.5-8.5-14.4 1.7-28 3.9-41.1 6.6-12.6-1.3-23.1-1-28.7-.6l-.2.8c3.6.5 8.8 1.4 15.1 2.8zm123.7 17.1c12.2 12.8 20.3 31.3 15.3 57.7-12 2.8-23.9 6-35.5 9.8.5-9.9-.6-20-3.9-30.2-3.4-10.5-8.6-19.2-14.8-26.3 14.5-4.7 27.6-8.3 38.9-11zm-37.2 73.2c-16.1 5.8-31.6 12.4-46.7 19.5 2.5-21.5-.8-42.9-15.8-59.1 14.9-6.4 29.1-11.9 42.4-16.5 12.8 13.4 21.3 31.5 20.1 56.1zM401.5 466.6c36.3-36.3 87.3-70.2 143.2-95.7l-1.6-10.8c-57.2 29.6-107.8 67.2-141.6 106.5zM382.6 603.3s75.3-72.1 176.4-137.6l-3.4-22.6c-144.9 85.8-173 160.2-173 160.2zM429 494.6c35.7-36.2 79.3-65.3 121.1-87.8l-2.4-16.1C461.9 435.5 429 494.6 429 494.6z"/></svg>