<svg xmlns:xlink="http://www.w3.org/1999/xlink"  xmlns="http://www.w3.org/2000/svg" width="100" height="100" viewBox="0 0 100 100"><linearGradient id="a" gradientUnits="userSpaceOnUse" x1="8.582" y1="65.603" x2="69.945" y2="66.411" gradientTransform="rotate(-51.003 54.013 55.19)"><stop offset="0" stop-color="#d173a8"/><stop offset=".5" stop-color="#c61686"/><stop offset="1" stop-color="#ad1d85"/></linearGradient><path fill="url(#a)" d="M62.642 58.408S53.87 62.4 48.45 69.099c-5.414 6.684-6.919 21.539-6.919 21.539s22.722-8.193 21.111-32.23z"/><linearGradient id="b" gradientUnits="userSpaceOnUse" x1="100.375" y1="28.049" x2="64.044" y2="53.883" gradientTransform="rotate(-51.003 54.013 55.19)"><stop offset="0" stop-color="#84be8b"/><stop offset=".5" stop-color="#5da355"/><stop offset="1" stop-color="#518f51"/></linearGradient><path fill="url(#b)" d="M61.007 11.554s-2.869 4.311-3.437 8.899c-.562 4.603 2.982 11.794 2.982 11.794s8.014-10.205.455-20.693z"/><linearGradient id="c" gradientUnits="userSpaceOnUse" x1="12.12" y1="16.308" x2="42.806" y2="55.876" gradientTransform="rotate(-51.003 54.013 55.19)"><stop offset="0" stop-color="#73c0ef"/><stop offset=".5" stop-color="#67aadf"/><stop offset="1" stop-color="#5693cf"/></linearGradient><path fill="url(#c)" d="M42.244 62.428s-8.464-4.609-17.065-4.914c-8.615-.303-21.386 7.441-21.386 7.441s20.229 13.215 38.451-2.527z"/><linearGradient id="d" gradientUnits="userSpaceOnUse" x1="33.715" y1="82.387" x2="62.764" y2="77.546" gradientTransform="rotate(-51.003 54.013 55.19)"><stop offset="0" stop-color="#f7e5a4"/><stop offset=".5" stop-color="#f1c931"/><stop offset="1" stop-color="#e4aa32"/></linearGradient><path fill="url(#d)" d="M79.647 60.355c3.583 2.898 4.139 8.15 1.241 11.727-2.887 3.572-8.144 4.117-11.721 1.219a8.327 8.327 0 0 1-1.23-11.709c2.899-3.578 8.144-4.129 11.71-1.237z"/><linearGradient id="e" gradientUnits="userSpaceOnUse" x1="60.305" y1="23.813" x2="60.305" y2="66.604" gradientTransform="rotate(-51.003 54.013 55.19)"><stop offset="0" stop-color="#d35f2b"/><stop offset=".5" stop-color="#cd572c"/><stop offset="1" stop-color="#bd542d"/></linearGradient><path fill="url(#e)" d="M57.946 34.196c5.363 4.341 6.195 12.215 1.848 17.583-4.336 5.359-12.221 6.189-17.579 1.85-5.369-4.348-6.189-12.222-1.853-17.58 4.347-5.369 12.215-6.2 17.584-1.853z"/><linearGradient id="f" gradientUnits="userSpaceOnUse" x1="67.815" y1="67.121" x2="96.295" y2="67.121" gradientTransform="rotate(-51.003 54.013 55.19)"><stop offset="0" stop-color="#5b59a1"/><stop offset=".5" stop-color="#33388a"/><stop offset="1" stop-color="#484571"/></linearGradient><path fill="url(#f)" d="M89.892 29.838c6.116 4.959 7.054 13.922 2.105 20.033-4.947 6.109-13.905 7.053-20.027 2.1-6.11-4.948-7.06-13.911-2.111-20.021 4.948-6.114 13.922-7.057 20.033-2.112z"/></svg>