<svg xmlns:xlink="http://www.w3.org/1999/xlink"  xmlns="http://www.w3.org/2000/svg" viewBox="0 0 150 150"><path fill="#005F9C" d="M94.5 74.9C83.3 64.2 79.9 53.6 73.2 40.6c-3.9 15.1-1.7 43.2-12.9 53.9.6-2.2-.6-5-.6-6.7-3.4 0-6.7 2.3-9.5 5.1C49 72.1 63.7 66.7 69 50.3l.5-1.1c-2.1 4.9-4.4 9.7-7.5 13.9-6.7 8.4-11.2 3.4-18 7.9-4.1 2.7-4.9 8.8-8.3 13.1.6-.4-10.6 12.8-10.1 12.1-3.4 3.9-6.4-2-1.3 10C34.5 123 53 134.3 74.2 134.4c24.5 0 45.5-15.2 54.1-36.6-3.8-5.5-7.7-12.9-14.7-15-9-2.9-11.2-.6-19.1-7.9zm4.5 27.5c1.7 3.9 3.9 7.3 4.5 11.3-18.5 7.2-12.9-33.2-14.6-38.8l1.1 2.3c2.7 12.6 12.4 18.5 20.8 25.8-3.3 1.1-7.9 0-11.8-.6z"/><path fill="#BCC032" d="M39.7 48.3l9.2 6.9c-.3.9-.6 2-.8 3.1l-5.8.4 5.4 2.5c0 .7-.1 1.3-.1 1.9l1.4.1c0-5.6 2-11.2 5.4-15.7 3.6-4.6 8.5-7.8 14.2-9.1 13.7-3.3 27.6 5.2 30.8 18.9 1 3.9 1 7.9.1 11.9l1.4.3c.8-3.5.9-7 .3-10.5l4.7-2.7-5.4-.5c-.5-1.7-1.1-3.2-1.9-4.7l7.9-8.3-10.8 3.7c-.7-.9-1.5-1.8-2.3-2.6l4.7-10.4-9.1 7c-1.1-.7-2.2-1.4-3.4-1.9l1-8-4.7 6.7c-1.2-.3-2.4-.6-3.6-.8L76 25.4l-3.1 11c-1.4.1-2.8.3-4.2.6l-5-6.3v8c-.8.3-1.5.7-2.2 1.1l-8.6-7.5L57 42.9c-.9.8-1.7 1.6-2.6 2.5L48 42.5l4.3 5.5c-.5.7-.9 1.5-1.4 2.2l-11.2-1.9z"/><path fill="#BCC032" d="M74.2 5.2C35.1 5.2 3.4 36.9 3.4 76c0 14 4.1 26.9 11.1 37.9 5.2 8.1 11.9 15.1 19.8 20.6.9.6 1.9 1.2 2.9 1.8 6 3.7 12.5 6.4 19.4 8.2.4.1.9.2 1.3.3 4.4 1 9 1.6 13.7 1.8h.6c.7 0 1.3.1 2 .1h.2c20.1-.1 38.3-8.6 51.1-22.1 4.5-4.8 8.4-10.2 11.5-16 5.1-9.8 8-20.8 8-32.6 0-39.1-31.7-70.8-70.8-70.8zM131 98.9c-9.1 22.5-31.1 38.4-56.8 38.4-22.3 0-41.7-11.9-52.4-29.6-5.6-9.3-8.9-20.1-8.9-31.7.1-33.9 27.4-61.3 61.3-61.4 33.9.1 61.3 27.5 61.3 61.3 0 8.2-1.6 15.9-4.5 23z"/></svg>