<svg xmlns:xlink="http://www.w3.org/1999/xlink"  xmlns="http://www.w3.org/2000/svg" viewBox="0 0 150 150"><path fill="#657164" d="M146.4 137.1c0-.3-.1-.6-.3-.8-9.9-17.2-19.8-34.4-29.8-51.5h.2c-.3-.8-.8-1.5-1.2-2.2-4.7-8.2-30.8-52.9-35.5-61.1-1.6-2.7-3.1-5.5-4.8-8.2-.1.1-.2.3-.3.4-11.5 19.9-23 39.8-34.4 59.7-.8 1.4-1.6 2.7-2.4 4.1-5.4 9.4-29 50.2-34.3 59.6 22.3-.1 75.5 0 102.5 0 13.5 0 26.9-.1 40.3 0zm-119-13.8c1.1-2.1 13.7-23.8 19.6-34.1h.1l25.2-43.5c1-1.6 1.8-3.4 3-5 1.1 1.7 12.4 21.2 19.7 33.7h-.1c9.3 16.3 18.8 32.6 28.2 48.9h-8.8c-22.8.1-69.9.1-86.9 0z"/><path fill="#9B9B46" d="M98.2 99.5L86.1 78.9h5.4L74.6 50.3 57.8 78.9h5.4L51.1 99.5h6.5l-10.9 18.7h55.9L91.7 99.5z"/></svg>