<svg xmlns:xlink="http://www.w3.org/1999/xlink"  xmlns="http://www.w3.org/2000/svg" viewBox="0 0 1000 1000"><path fill="#FD9A2B" d="M510 653.1c-69.6 7.7-143-23.2-183.1-80.6.9 3.7 3.7 7.9 6 11.4 4.2 6.6 9 12.8 14.1 18.7 23.3 27 55.6 49.8 90.8 58 83.8 19.5 176.6-15.3 215.3-96.4 27.1-58 23.2-127.6-19.3-181.7-30.9-38.7-77.3-61.9-127.6-61.9-69.6 0-135.3 46.4-146.9 119.8-11.6 73.4 34.8 146.9 112.1 158.5 58 7.7 112.1-27.1 127.6-85.1 7.7-38.6 1.1-76.2-34.8-104.4-26.2-20.5-61.8-23.2-92.9-10.4-14.6 7-25.8 17.2-33.3 29.1-20.7 35.4-13 77.9 21.8 97.2 27.1 11.6 65.7 3.9 73.5-30.9 3.9-27.1-23.2-54.1-50.3-46.4 7.7-19.3 35-19.2 50.5-11.5 15.5 7.7 26.8 19.2 30.7 38.5 3.9 27.1-3.9 54.1-23.2 73.5-54.1 46.4-139.2 11.6-154.6-58-3.9-34.8 0-73.4 23.2-100.5 38.7-42.5 100.5-58 154.6-34.8 73.5 30.9 108.2 119.9 77.3 193.3-23.2 54.3-69.6 96.9-131.5 104.6z"/><path fill="#D77145" d="M424 816c-12-5.5-26.2-.3-31.7 11.7s-.3 26.2 11.7 31.7 26.2.3 31.7-11.7.3-26.2-11.7-31.7z"/><path fill="#D77145" d="M408.6 779.6s54.8 42.9 90.8 50.7c0 0-86.3-79.3-65.4-153.1 0 0-77.4 148.7-175.7 199.9-.1 0 125.2-43.2 150.3-97.5zM336.1 781.1s-36.2-111.5 18.3-165.5c0 0-140.5 91.5-251.2 87.8 0 0 130.3 24 178.8-11 0 0 26.7 64.3 54.1 88.7z"/><path fill="#D77145" d="M272.1 765c10.7-7.7 13.1-22.7 5.4-33.4-7.7-10.7-22.7-13.1-33.4-5.4-10.7 7.7-13.1 22.7-5.4 33.4 7.7 10.7 22.7 13.2 33.4 5.4zM167.6 569.6c-13.1 1.5-22.6 13.3-21.1 26.4 1.5 13.1 13.3 22.6 26.4 21.1 13.1-1.5 22.6-13.3 21.1-26.4-1.4-13.1-13.3-22.6-26.4-21.1z"/><path fill="#D77145" d="M217.2 558.7s-8.3 69.1 3.6 103.9c0 0 23.3-114.9 97.2-135.2 0 0-167.3 10.6-261.9-47-.1 0 101.7 84.9 161.1 78.3zM530.4 679.8s5.6 167.5-54.8 260.4c0 0 87.9-99.2 83.1-158.8 0 0 68.8 10.4 104-.5-.1.1-114.2-26.6-132.3-101.1z"/><path fill="#D77145" d="M590 805.6c-13.2 1.1-23 12.6-21.9 25.8 1.1 13.2 12.6 23 25.8 21.9 13.2-1.1 23-12.6 21.9-25.8-1.1-13.2-12.7-23-25.8-21.9zM778.5 586.3s44.5-53.5 53.4-89.2c0 0-81.9 83.9-155 60.8 0 0 146.3 81.8 194.6 181.6-.1 0-39.5-126.6-93-153.2z"/><path fill="#D77145" d="M626.5 635.7s87.2 143.1 80.3 253.7c0 0 27.8-129.6-5.7-179.1 0 0 65.1-24.8 90.3-51.5 0 .1-112.6 32.9-164.9-23.1z"/><path fill="#D77145" d="M740.2 716c-10.9 7.4-13.8 22.3-6.4 33.2 7.4 10.9 22.3 13.8 33.2 6.4 10.9-7.4 13.8-22.3 6.4-33.2-7.4-11-22.3-13.8-33.2-6.4zM787.8 437s12.5-68.5 2.6-103.9c0 0-30.1 113.3-105.1 129.2 0 0 167.6-.6 258.7 62.5 0-.1-96.5-90.9-156.2-87.8zM174.9 396c-12.2-5.2-26.2.5-31.4 12.6-5.2 12.1.5 26.2 12.6 31.4 12.2 5.2 26.2-.5 31.4-12.6 5.2-12.1-.5-26.2-12.6-31.4zM720.4 258.5c7.1 11.2 21.9 14.5 33 7.4 11.1-7.1 14.5-21.9 7.4-33-7.1-11.2-21.8-14.5-33-7.4-11.1 7-14.4 21.8-7.4 33zM583.7 223.1s-52.2-46.1-87.6-56c0 0 81.4 84.4 56.2 156.8 0 0 86.1-143.8 187.3-189.1 0 0-127.6 35.6-155.9 88.3z"/><path fill="#D77145" d="M664.9 205.6s29.5 113.5-28.1 164.2c0 0 145.7-82.9 256-72.7 0 0-128.7-31.7-179.2.3 0 0-22.8-65.8-48.7-91.8zM815.3 572c-5.9 11.8-1.1 26.2 10.7 32.1 11.8 5.9 26.2 1.1 32.1-10.7 5.9-11.8 1.1-26.2-10.8-32.1-11.7-6-26.1-1.2-32 10.7zM223.4 410.9s-41.2 56.1-47.9 92.2c0 0 76.7-88.6 151.1-70 0 0-150.9-72.9-205.1-169.6 0 0 46.9 124 101.9 147.4zM860.6 404c-.7-13.2-11.9-23.3-25.1-22.7-13.2.7-23.3 11.9-22.7 25.1.7 13.2 11.9 23.3 25.1 22.7 13.3-.7 23.4-11.9 22.7-25.1zM379 351.5S283.4 213.8 283.7 103c0 0-20.1 131 16.3 178.4 0 0-63.5 28.6-87.1 56.8.1 0 110.4-39.4 166.1 13.3z"/><path fill="#D77145" d="M260.7 278.2c10.5-8.1 12.5-23.1 4.4-33.5-8-10.5-23.1-12.5-33.5-4.4-10.5 8.1-12.5 23-4.4 33.5 8 10.4 23 12.4 33.5 4.4zM455.1 316.5s4.4-167.6 70.2-256.7c0 0-93.7 93.7-92.4 153.5 0 0-68.1-14.5-103.8-5.7 0-.1 112.4 33.4 126 108.9z"/><path fill="#D77145" d="M403.1 187.3c13.2-.3 23.7-11.2 23.4-24.4-.3-13.2-11.2-23.7-24.4-23.4-13.2.3-23.7 11.2-23.4 24.4.3 13.2 11.2 23.7 24.4 23.4zM570.5 185.9c11.6 6.2 26.1 1.9 32.4-9.8 6.2-11.6 1.9-26.1-9.8-32.4-11.6-6.2-26.1-1.9-32.4 9.8-6.2 11.6-1.8 26.1 9.8 32.4z"/></svg>