<svg xmlns:xlink="http://www.w3.org/1999/xlink"  xmlns="http://www.w3.org/2000/svg" viewBox="0 0 150 150"><path fill="#7F341A" d="M2.1 120.2l18.8-24.7 6.7 6.2 30.3-37.4 23 36.3 7.4-5.4 9.9 11.9 17.7-18.8 26.1 40.1-27.2-24.3-14.8 17L89.9 109l-3.5 10.2-3.8-8.7-3.2 5.5-13-17.8-2.8 9.5-5.3-12.9-9.5 20.5-4.6-14.7-17.7 22.7-5.3-12.7z"/><path fill="#F09120" d="M131.2 80.7c-.7-3.2-1.7-6.2-3-9L143.7 57l-20.5 5.8c-1.3-1.8-2.6-3.4-4.1-5l9.8-18.9-17.5 12.2c-2-1.4-4.1-2.7-6.2-3.8l2.6-14.9-9.4 12.1c-2.2-.7-4.4-1.3-6.7-1.8l-3.2-21-6.9 20.1c-2.6 0-5.2.3-7.8.7l-8.6-12.2-.7 14.7c-1.4.5-2.9 1.2-4.2 1.8L45 32l6.6 20.2c-1.7 1.4-3.4 2.8-5 4.4L35 50.7l7.5 10.6c-1 1.3-1.9 2.6-2.7 4L19 60.7l16.3 13.7c-.7 1.8-1.3 3.7-1.7 5.6l-10.8.3 9.8 5.2c-.2 1.2-.3 5.5-.4 6.6l2.6-3c.6-10.4 4.7-20.5 11.6-28.5 7.1-8.2 16.5-13.5 27.2-15.5 25.8-4.8 50.6 12.3 55.4 38.1 1.4 7.4 1.5 12.8-.6 20l2 2.7c1.9-6.3 2.4-12.9 1.7-19.4l9-4.5-9.9-1.3z"/><path fill-rule="evenodd" clip-rule="evenodd" fill="#327844" d="M77.3 55.9c2.8 2.1 6.6 3.2 9.3 5.5 1.4 1.2 2.6 3.5 3.5 5.4.6 1.5 1.6 5.2 3 5.8 1.2.5 2.5-.3 3.9 0 1.3.2 2 1.2 3.1 1.8-1.4.3-3.1.5-3.9 1.4 1.7 2 4 2.5 5.7 4.5 2.5 2.8 2.7 8.1 4.5 11.8-3.3-1.2-5.8-3.2-6.8-6.6-3.2-2.2-6.4-4.3-9.5-6.5-1.4.9-1.7 2.8-2.6 4.1-3.3-.7-5.5-3.4-5-7.2 1.5-.2 3.8.3 4.9-.5-1.6-4-3.8-7.4-5.1-11.6-2.6-1.4-4.4-3.7-5.2-6.9.1-.3-.3-1 .2-1z"/></svg>