<svg xmlns:xlink="http://www.w3.org/1999/xlink"  xmlns="http://www.w3.org/2000/svg" width="100" height="100" viewBox="0 0 100 100"><radialGradient id="a" cx="40.921" cy="37.587" r="66.756" gradientUnits="userSpaceOnUse"><stop offset="0" stop-color="#00adee"/><stop offset=".002" stop-color="#01adee"/><stop offset=".053" stop-color="#15abe6"/><stop offset=".103" stop-color="#22a9e2"/><stop offset=".151" stop-color="#26a9e0"/><stop offset=".327" stop-color="#1b75bb"/><stop offset=".521" stop-color="#2b388f"/><stop offset=".758" stop-color="#1c1651"/><stop offset="1" stop-color="#120742"/></radialGradient><path fill="url(#a)" d="M74.477 31.472c-5.445.1-10.891.343-16.295 1.139-6.856 1.028-13.773 2.399-20.438 4.325-4.205 1.251-8.419 2.723-12.231 4.911-5.344 2.823-10.854 7.573-11.162 14.046a89.752 89.752 0 0 1 4.305-1.805c4.568-1.261 9.428-1.825 14.106-.746 1.26.291 2.511.665 3.781.998 2.864 1.079 5.656 2.369 8.147 4.164 2.541-1.593 5.152-3.056 7.946-4.144a71.991 71.991 0 0 1 6.19-1.705c3.479-.503 7.037-.463 10.445.475 2.108.534 3.912 1.825 5.99 2.409 1.411-1.4 3.115-2.682 5.151-2.884-2.047-.423-4.285-.816-5.767-2.459-1.543-1.715-1.805-4.104-1.401-6.191.433-2.199 2.057-3.902 3.831-5.253-1.956.251-3.912.523-5.889.474-2.137-.303-4.557-1.14-5.324-3.116-.322-.887-.06-1.886-.1-2.823 5.041-.948 10.173-1.16 15.285-1.392-2.175-.403-4.373-.413-6.57-.423z"/><radialGradient id="b" cx="40.921" cy="37.587" r="66.748" gradientUnits="userSpaceOnUse"><stop offset="0" stop-color="#00adee"/><stop offset=".002" stop-color="#01adee"/><stop offset=".053" stop-color="#15abe6"/><stop offset=".103" stop-color="#22a9e2"/><stop offset=".151" stop-color="#26a9e0"/><stop offset=".327" stop-color="#1b75bb"/><stop offset=".521" stop-color="#2b388f"/><stop offset=".758" stop-color="#1c1651"/><stop offset="1" stop-color="#120742"/></radialGradient><path fill="url(#b)" d="M5.599 56.195c.801-5.122 4.209-9.428 8.263-12.473 6.383-4.81 14.152-7.27 21.835-9.105a162.243 162.243 0 0 1 30.612-3.862c.695-1.693 1.291-3.438 2.138-5.061-1.714 1.229-3.186 2.854-5.213 3.599-1.482.716-3.479.867-4.729-.373-2.521-2.077-2.38-5.656-2.3-8.621-1.472 2.641-4.013 5.535-7.39 4.83-3.388-.787-4.79-4.417-5.496-7.441-.443 1.855-.948 3.73-1.946 5.375-.917 1.432-2.631 2.46-4.355 2.127-2.258-.404-3.821-2.249-5.152-3.953.222 2.772-.283 6.09-2.914 7.623-2.703 2.168-6.398.353-8.389-1.916.681 2.228 1.578 4.487 1.376 6.867-.115 1.573-.634 3.307-2.076 4.164-2.335 1.624-5.324.856-7.845.162.716.786 1.422 1.583 2.122 2.39C8.336 44.59 3.804 51.063 3.668 58.333c-.231 7.863 3.998 15.003 8.898 20.831 1.734 1.704 3.024 3.882 5.117 5.193-2.914-2.894-5.324-6.263-7.511-9.73-3.151-5.536-5.718-11.959-4.573-18.432z"/><radialGradient id="c" cx="40.903" cy="37.587" r="66.775" gradientUnits="userSpaceOnUse"><stop offset="0" stop-color="#00adee"/><stop offset=".002" stop-color="#01adee"/><stop offset=".053" stop-color="#15abe6"/><stop offset=".103" stop-color="#22a9e2"/><stop offset=".151" stop-color="#26a9e0"/><stop offset=".327" stop-color="#1b75bb"/><stop offset=".521" stop-color="#2b388f"/><stop offset=".758" stop-color="#1c1651"/><stop offset="1" stop-color="#120742"/></radialGradient><path fill="url(#c)" d="M92.271 30.705c1.383-1.643 2.914-3.186 4.135-4.961-.253.03-.746.091-.998.111-2.158 1.674-3.67 4.084-5.909 5.687-.766-.12-1.593-.241-2.077-.938-1.431 1.271-2.258-1.22-3.801-1.108a50.593 50.593 0 0 0 1.361 3.115c-.686.686-1.331 1.421-1.875 2.229 1.461-.534 2.61-2.39 4.314-1.664-1.148 1.553-2.772 2.683-3.932 4.225 3.044-.05 4.275-4.527 7.683-3.649 1.694-.646 4.154-.515 5.103-2.289 0-.232-1.181-.192-1.573-.253-.654-.656-1.614-.495-2.431-.505z"/><radialGradient id="d" cx="41.664" cy="47.574" r="64.895" gradientUnits="userSpaceOnUse"><stop offset="0" stop-color="#00a69c"/><stop offset="1" stop-color="#00423d"/></radialGradient><path fill="url(#d)" d="M27.59 55.218c-1.634.05-3.268.21-4.88.503-3.061.856-6.267 1.704-8.813 3.69 4.325-.948 9.039-1.553 13.168.454 3.569 1.926 6.826 4.436 10.668 5.808 3.084 1.23 6.493 1.502 9.739.867a58.686 58.686 0 0 0 2.642-.604c-.907-1.342-2.48-2.714-3.428-3.479-5.343-4.355-12.079-7.392-19.096-7.239z"/><radialGradient id="e" cx="41.666" cy="47.573" r="64.915" gradientUnits="userSpaceOnUse"><stop offset="0" stop-color="#00a69c"/><stop offset="1" stop-color="#00423d"/></radialGradient><path fill="url(#e)" d="M65.18 54.914c-2.793-.343-5.597.011-8.339.523-3.317.899-6.665 2.067-9.508 4.044.766.816 1.049 1.079 1.572 1.574.394.372.787.746 1.18 1.13.837.927 1.604 1.896 2.359 2.894 3.963-3.49 8.702-6.282 13.985-7.1a16.514 16.514 0 0 1 9.226 1.755c-2.107-2.058-4.91-3.6-7.733-4.195-.888-.321-1.815-.493-2.742-.625z"/><radialGradient id="f" cx="41.654" cy="47.569" r="64.936" gradientUnits="userSpaceOnUse"><stop offset="0" stop-color="#00a69c"/><stop offset="1" stop-color="#00423d"/></radialGradient><path fill="url(#f)" d="M63.788 60.753c-4.325 1.976-8.349 4.547-12.181 7.35 2.157 0 4.296-.021 6.434.191.686.142 1.351.293 2.036.444 2.723.615 5.313 1.785 7.502 3.519 2.954-2.107 5.041-5.183 6.695-8.358.423-.727.625-1.543.786-2.37-3.105-1.876-8.994-1.825-11.272-.776z"/><radialGradient id="g" cx="41.661" cy="47.578" r="64.894" gradientUnits="userSpaceOnUse"><stop offset="0" stop-color="#00a69c"/><stop offset="1" stop-color="#00423d"/></radialGradient><path fill="url(#g)" d="M31.321 73.266c1.069-.111 2.107-.313 3.166-.474 3.691-.677 7.059-2.39 10.607-3.499-4.002-.463-7.985-1.32-11.636-3.097-3.146-1.34-5.848-3.649-9.215-4.466-2.48-.665-5.148-.756-7.588-.07-.65.191-1.628.635-2.521.998.187.635.293 1.301.565 1.916.933 2.077 3.312 5.403 6.04 6.846 3.191 1.846 6.992 2.078 10.582 1.846z"/><radialGradient id="h" cx="41.666" cy="47.567" r="64.919" gradientUnits="userSpaceOnUse"><stop offset="0" stop-color="#00a69c"/><stop offset="1" stop-color="#00423d"/></radialGradient><path fill="url(#h)" d="M58.837 70.745l-.03-.101c-7.956-1.504-15.467 2.318-23.08 3.973-5.818 1.259-12.216.847-17.59-2.007 2.234 2.602 5.037 4.688 7.981 6.433 1.341.826 2.742 1.582 4.194 2.198 1.371.585 2.762 1.109 4.214 1.472 11.435 3.489 23.876-1.009 32.407-8.854-.282-.149-.847-.452-1.129-.604a23.32 23.32 0 0 0-6.967-2.51z"/></svg>