<svg xmlns:xlink="http://www.w3.org/1999/xlink"  xmlns="http://www.w3.org/2000/svg" width="100" height="100" viewBox="0 0 100 100"><path fill="#9998B6" d="M70.081 16.695c-.257-.147-.49-.319-.76-.453-10.043-5.255-22.035-5.561-31.944-1.335-12.114 9.468-25.281 26.812-21.68 56.479 2.805 6.136 6.994 11.121 11.452 14.551 11.501 8.685 23.248 9.836 30.805 8.501 3.846-.698 6.725-2.205 8.256-3.699.979-.943 1.445-1.776 1.543-2.377-.649.11-1.323.209-1.997.27-7.777.687-16.045-.612-23.872-4.765-7.827-4.151-14.135-11.979-16.878-21.141-2.964-9.309-1.323-20.369 4.924-28.674 6.088-8.439 16.095-13.265 25.906-13.351 10.068-.025 19.182 5.953 23.432 13.988 4.36 7.888 4.213 18.017-.809 24.706-4.789 6.785-12.775 9.799-19.708 8.843-7.067-1.041-12.064-6.247-13.682-11.379-1.837-5.145-.551-10.35 1.813-13.24 2.339-3.038 5.524-4.03 1.984 1.359a10.709 10.709 0 0 0-1.372 3.54c.637-1.029 1.446-1.936 2.376-2.622 2.707-2.07 5.364-2.474 7.839-1.911 4.997 1.237 6.762 5.169 8.035 4.704.563-.135 1.041-1.262.661-3.381-.416-2.058-1.861-5.279-5.622-7.729-1.85-1.213-4.274-2.119-7.104-2.328-2.891-.208-5.88.417-8.807 1.74-5.879 2.609-11.489 9.345-11.661 18.213-.012 4.458 1.164 8.672 3.491 12.616 2.328 3.932 5.867 7.397 10.313 9.726 4.434 2.302 9.774 3.404 15.201 2.792 5.377-.686 10.215-2.658 14.686-5.928 4.851-3.516 8.66-8.733 10.853-14.698.368-12.727-3.172-28.466-17.674-43.017z"/><path fill="#9998B6" d="M89.422 44.009C87.94 34.186 82.28 25.073 73.951 19.12c8.023 8.525 14.833 19.989 15.396 34.59.515-3.148.589-6.418.075-9.701z"/><path fill="#5B4955" d="M31.866 17.675C23.659 22.623 17.217 30.474 14.4 39.036c-1.654 4.777-2.303 9.59-2.352 14.062-.037 4.385.404 8.953 1.678 13.203.221.748.563 1.409.821 2.132-1.765-15.36.073-35.95 17.319-50.758zM61.801 63.9c4.594-.404 9.554-2.939 12.433-7.41 3.65-5.182 3.576-12.751.037-19.046-3.467-6.247-10.656-10.767-18.422-10.681-7.668.147-15.691 3.919-20.639 10.546a26.75 26.75 0 0 1 7.692-5.316c5.353-2.621 12.359-2.536 18.018.453 5.745 2.903 9.787 8.647 10.84 14.368 1.041 5.352-1.188 10.987-5.169 14.306-1.372 1.2-3.124 2.168-4.79 2.78z"/></svg>