<svg xmlns:xlink="http://www.w3.org/1999/xlink"  xmlns="http://www.w3.org/2000/svg" viewBox="0 0 1000 1000"><path fill="#0193D7" d="M964 618.9c-3.2-4.5-75-48.8-137.2-86.7-48.4-29.5-91.1-55.2-91.1-55.2s-63 32.9-98.7 18.5c-31.7-12.7-179-151.2-179-151.2s-181 139-290.3 219.2c-41.7 30.7-73.1 52.8-79.9 55.3-24.7 9.4-67.8-27.7-67.8-27.7 23.9 63 53.9 74.4 80.4 74.5-.3 0-.7-.1-1-.1-4.8-.3 49.6-13.7 117-14 33.2-5.5 70-11 99.7-11 58.6 0 108 18.5 108 18.5s-6.2-27.8 18.5-21.6c24.7 6.2 188.2 74 163.5 58.6-24.7-15.4-129.6-160.4-132.7-197.4-3.1-37 58.6 9.2 30.8-27.8s-46.3-104.9-33.9-95.6c12.3 9.3 360.9 314.7 360.9 314.7s-58.6-71-64.8-95.6c-6.2-24.7 33.9-9.3 33.9-9.3s-49.4-55.5-49.4-70.9c.2-15.5 218.7 112.7 213.1 104.8z"/><path fill="#D5A169" d="M838.9 455.4s1.9-293.9-309.5-338.6l-9.7 29.2s274.5 7.7 319.2 309.4z"/><path fill="#D5A169" d="M637 495.5c35.8 14.4 98.7-18.5 98.7-18.5s42.7 25.7 91.1 55.2c.9-10.1 1.4-20.2 1.4-30.5 0-184-149.2-333.2-333.2-333.2S161.8 317.7 161.8 501.7c0 21.2 2.1 41.8 5.8 61.9C277.1 483.3 458 344.3 458 344.3s147.3 138.5 179 151.2zm-47.2-213.3l42.8-7.8-48.6 25.3-11.7-54.5 17.5 37zm-78.5 28.6l9.7-21.2-3.8 29.1-27.5-11.6 21.6 3.7z"/><path fill="#0073A2" d="M782 743l-19.2-32h8.1l-17.5-29.7-22.7 29.7h11l-24.9 32zM712.4 719l-26.3-48h11.1l-24-40.9L642 671h15.1l-34.2 48z"/><path fill="#0073A2" d="M99.4 665.5c.3 0 .7.1 1 .1 176.2 11.9 217.1 79.2 277.4 108.3 60.3 29.2 23.3-1.9 58.4-9.7 35-7.8 25.3 15.6 136.2 37 110.9 21.4 325-38.9 325-38.9-74 1.9-216 11.7-297.8-25.3-81.7-37-134.3-54.5-122.6-39 11.7 15.6-23.4 17.5-130.4-25.3-41.1-16.4-88.2-21.4-130.2-21.2-67.5.3-121.8 13.7-117 14zM521.1 289.6l-9.8 21.2-21.6-3.6 27.5 11.6zM632.6 274.4l-42.8 7.8-17.5-37 11.7 54.5z"/></svg>