<svg xmlns:xlink="http://www.w3.org/1999/xlink"  xmlns="http://www.w3.org/2000/svg" viewBox="0 0 150 150"><path fill="#EE3824" d="M133.8 93.7c0-31.1-25.2-56.3-56.3-56.3-2.6 0-5.1.2-7.6.6v.2c-.2 2.4 0 6 .6 8.6 2.3-.3 4.6-.7 7-.7 26.4 0 47.7 21.4 47.7 47.7 0 10.5-3.5 20.2-9.3 28.1-2.1 9.6-7.6 17.7-15.1 23.1 19.4-9 33-28.5 33-51.3z"/><path fill="#0070A0" d="M44.2 127.8c-8.9-8.7-14.4-20.7-14.5-34.1 0-13 5.2-24.7 13.7-33.3-.4-3.1-.6-6.7-.6-11-13.2 10.3-21.6 26.3-21.6 44.3 0 26 17.7 47.9 41.7 54.3-8.5-4.2-15.2-11.3-18.7-20.2z"/><path fill="#FFF" d="M67.4 75.3s.1 0 0 0l.1.1c.1.2.1.5 0 .9h2.4c.1-1 .3-2.1.6-3.3l-4.8-1.4v.2s1.4.3.7 3.3h.1c.1 0 .3-.1.5 0h.2c.1.1.2.1.2.2zM76.7 128v-9.1h-9.6c.2 3.1 1 6.1 2.1 9.1h7.5zM80.3 131.9v7.4c2.3-2.3 4.1-4.8 5.6-7.4h-5.6zM76.7 139.3v-7.4h-5.6c1.5 2.6 3.3 5.1 5.6 7.4zM66.8 131.9h-8.4c3.7 4.8 8.9 8.3 15 9.6-2.8-3-5-6.2-6.6-9.6zM63.3 118.9H53.1c.4 3.2 1.4 6.3 2.8 9.1h9.3c-1-3-1.7-6-1.9-9.1zM69.4 79.7c0-.1.1-.2.1-.2h.1c.1 0 .3 0 .4.1 0-.1 0-.3-.1-.7l-2.8.1c.1.4.2.9.3 1.5.3 1.6 3.2 4 3.2 4s-1.3-2.9-1.3-4.1c0-.4 0-.6.1-.7zM103.9 118.9H93.7c-.2 3.1-.8 6.1-1.8 9.1h9.3c1.5-2.8 2.4-5.8 2.7-9.1zM89.9 118.9h-9.6v9.1h7.5c1.2-2.9 1.9-6 2.1-9.1zM83.6 141.5c6.1-1.3 11.5-4.8 15.1-9.6h-8.4c-1.6 3.5-3.8 6.8-6.7 9.6z"/><path fill="#EE3824" d="M77.8 145.9h1.5c15.8-.5 28.5-13.3 28.7-29.1v-.3c0-.3 0-.7-.1-1H49.1V116.4c.2 15.8 12.9 29 28.7 29.5zm15.9-27h10.2c-.3 3.2-1.3 6.3-2.7 9.1H92c.9-2.9 1.5-6 1.7-9.1zm5.1 13c-3.7 4.8-9 8.3-15.1 9.6 2.8-2.8 5.1-6 6.8-9.6h8.3zm-18.5-13h9.6c-.3 3.1-1 6.1-2.2 9.1h-7.5v-9.1zm0 13h5.6c-1.5 2.6-3.3 5.1-5.6 7.4v-7.4zm-3.6-13v9.1h-7.5c-1.2-3-1.9-6-2.1-9.1h9.6zm0 20.4c-2.3-2.3-4.1-4.8-5.6-7.4h5.6v7.4zM55.9 128c-1.4-2.8-2.4-5.8-2.8-9.1h10.2c.2 3.1.9 6.1 1.9 9.1h-9.3zm2.5 3.9h8.4c1.6 3.4 3.8 6.6 6.6 9.6-6-1.3-11.3-4.8-15-9.6z"/><path fill="#0070A0" d="M98.5 58l-9.7 8.7c-1.2-1.4-4.2-1.9-4.2-1.9l-.4-8.3-.2-7.6-1.1 7.5-1.2 8.1c-3.5.2-5 1.2-5 1.2l-9.8-11.8 7.6 13.5c-1.3.9-2.2 2.1-2.9 3.3l-6.4-.2c-.2-.4-1-.3-1-.3s-1.2-2-1.7-3.2l-.2-.5c0-.1-.1-.2-.1-.3 0-.4 0-2.4-.2-5v-.3c-.2-2.9-.7-6.6-1.7-9.6-1.9-6-1.1-14.1-1.1-14.1 1.8-4.7-.4-10.8-.4-10.8.1 0 .1-.1.2-.1 3-1.3 3.9-3.7 4-5.8V19.8c-.1-2-.7-3.5-.7-3.5l4.8-1.7-5 .4c0-.8-.7-1.1-.7-1.1l3.1-4.7-4.1 3.5c-.3-.9-1.3-.9-1.3-.9L61.4 5l-3.6 6.2c-.5-.8-2-.9-2-.9L57 2.4l-2.2 7.7c-1.1-.7-2.3-.1-2.3-.1l-1.4-7.8v8c-.8 0-1.5.6-1.5.6L45.4 5l2.5 6.7c-.8-.2-1.1 1-1.1 1L43 10.1l2.7 3.4c-.9.4-.7 1.3-.7 1.3l-2.6-.7 2.3 1.9c-.4 1.1-.6 2.2-.6 3.1 0 .2-.1.3-.1.3 0-.1 0-.1.1-.1-.1 4.5 3.6 6.6 3.7 6.7V26.3c-.1.4-.1.6 0 .8.1.4.4.4.4.4 0 .5.7 1.5.7 1.5-1.1 2.1-.4 3.8-.4 3.8.1.1.1.3.2.4v.1c0 .2.1.3.1.4v.1c.1.1.1.2.1.4.1.1.1.3.2.4.1.3.2.5.3.8l.8 1.6c0 .1.1.1.1.2s.1.1.1.2c0 0 .1.1.1.2s.1.1.1.1c.1.1.2.3.2.3v.2c-1.6 21.9 1.1 27 1.1 27l.1 1.2.1.5.6 6.8c-1 .7-4.4 4-6.7 9.4-2 5.6 5 9.1 5 9.1-2.6 2.7-.8 2.9-.8 2.9-1.2 1.8-1.2 4.1-1.1 5.9.2 1.7 1.4 2.4 1.4 2.4-.2 1.6 2.3 1.5 2.3 1.5-1.5 4.3.2 4.9.2 4.9-.9 1.4-4.7 3.7-4.7 3.7h59.9c-.5-2.1-4.9-5.8-4.9-5.8-.2-2.4-2.9-4.4-4.2-5.7-1.3-1.3-3.6-1.4-3.6-1.4L93.6 94c1.1-.3 1.8-1.4.1-4.4-1.7-3-1.1-4.9-1.1-4.9 1.4-.2 1.8-.6 1.9-.9v-.2c0-.1 0-.2-.1-.2v-.1c-.2-.4-.8-2.4-.8-2.4l14.2.3L93.7 78c.3-1 0-3.4 0-3.4l13.4-5.5L93 71.9c-.2-1.8-2.2-3.5-2.2-3.5L99 58l1.2-1.5-1.7 1.5zM66.6 75.2s-.1 0 0 0c.6-2.9-.8-3.3-.8-3.3v-.2l4.8 1.4c-.3 1.1-.5 2.3-.6 3.3h-2.4c.1-.4.1-.7 0-.9l-.1-.1h-.1s-.1-.1-.2-.1H67c-.1-.2-.3-.2-.4-.1zm.8 5.2c-.1-.6-.2-1.1-.3-1.5l2.8-.1c0 .4.1.6.1.7-.1-.1-.2-.1-.4-.1h-.1s-.1.1-.1.2v.6c.1 1.2 1.3 4.1 1.3 4.1s-3-2.2-3.3-3.9z"/></svg>