<svg xmlns:xlink="http://www.w3.org/1999/xlink"  xmlns="http://www.w3.org/2000/svg" viewBox="0 0 150 150"><path fill="none" d="M35.6 101.5h.2l6-11.3c.4-.8 1-1.5 1.7-2.1l6-4.7c1.2-.9 2.6-1.4 4.1-1.4.4 0 .8 0 1.2.1 1.9.4 3.5 1.5 4.4 3.2l.5.8c3.4-6.8 6.9-13.7 10.3-20.5 1.1-2.2 3.3-3.6 5.7-3.6h.2c2.3 0 4.5 1.3 5.7 3.3l10.2 17.6c.4-.1.7-.1 1.1-.1 1.7 0 3.4.7 4.6 1.9l6.9 6.8c.5.5.9 1.1 1.3 1.8l3.3 6.6h.2c1.2 0 2.4.3 3.5 1l13.6 8.4c.7.5 1.4 1.1 1.9 1.8l2.4 3.4c-.2.3-.2 1.1 0 1.3 6.3-10.4 9.7-22.4 9.7-34.8 0-17.9-6.2-32.3-19.6-47.4-17-18.8-50.6-18.6-50.1-18.1-14.3 1.3-27.6 7.4-37.8 17.7-11.7 11.7-18.1 27.1-18.1 43.6 0 11.1 3 21.8 8.4 31.1l9.2-5.4c1-.6 2.1-.9 3.3-1z"/><path fill="none" d="M58.8 20.4c0-.1.1-.1 0 0l.1-.1-.1.1zM26.8 113.4c1.6 2.2 3.4 4.3 5.4 6.3l3.6-11.6-9 5.3zM91.9 20.7c.2 0 .3.1.5.1l-.7-.8.2.7zM92.7 89.4l-5.4 30.8.7-30.4-12.2-21.3L47 125.8l10.8-29.9-4.3-7.4-5.9 4.7-14.5 27.4c11.6 11.5 26.9 17.8 43.2 17.8 13.9 0 27.1-4.6 37.9-13L99.6 96.2l-6.9-6.8zM109 106.4l5.9 18.4c1.7-1.4 3.4-2.9 5-4.5 1.3-1.3 2.5-2.7 3.7-4l-1-1.4-13.6-8.5z"/><path fill="#00A0C1" d="M39.2 88.9c.6-1.1 1.4-2.1 2.4-2.9l5.9-4.7c1.6-1.3 3.7-2 5.7-2 .6 0 1.2 0 1.7.2 1.5.3 2.8.9 3.9 1.8 2.8-5.6 5.7-11.3 8.5-16.9 1.5-3 4.5-4.9 7.9-5 3.5 0 6.6 1.7 8.2 4.6l9.4 16.2c2.3.1 4.4 1 6.1 2.6l6.9 6.8c.7.7 1.3 1.5 1.8 2.4l2.6 5.3c1.2.2 2.3.6 3.3 1.2l13.6 8.5c1 .7 1.9 1.5 2.6 2.5l.5.6c4.6-9 7-19 7-29.3 0-17.1-5.7-30.7-19-45.7-4.9-5.5-11.5-9.3-18.3-12l10.7 18.1-18.3-20.4c-.1 0-.3-.1-.5-.1L96.3 34l-8.5-11.8 6.1 27.7-11.4-26.1v14.7l-4.4-13.8-2.7 28.2-2.8-28.4-4.5 14V24L56.9 50 63 22.1 54.4 34l4.5-13.7h-.1L40.1 41.5l10.6-18c-6 2.8-11.5 6.7-16.3 11.6C23.2 46.2 17.1 61 17.1 76.7c0 9.7 2.4 19.2 6.8 27.6l6.9-4.1c1-.6 2-1 3.1-1.2l5.3-10.1z"/><path fill="#813B3D" d="M143.3 76.8c0-17.9-7-34.7-19.6-47.4C111 16.7 94.2 9.8 76.3 9.8s-34.7 7-47.4 19.6C16.3 42 9.3 58.9 9.3 76.8s7 34.7 19.6 47.4c12.6 12.7 29.5 19.6 47.4 19.6 14.7 0 28.8-4.7 40.3-13.5l.1.1v-.1c2.5-1.9 4.8-3.9 7-6.1 12.7-12.7 19.6-29.5 19.6-47.4zm-128.6 0c0-16.5 6.4-31.9 18.1-43.6C43 22.9 56.3 16.8 70.6 15.5c-.6-.5 33.1-.7 49.8 18.1C133.8 48.7 140 63.1 140 81c0 12.5-3.4 24.4-9.7 34.8-.3-.2-.3-1.1 0-1.3l-2.4-3.4c-.5-.7-1.2-1.3-1.9-1.8l-13.6-8.4c-1.1-.7-2.3-1-3.5-1h-.2l-3.3-6.6c-.3-.7-.8-1.2-1.3-1.8l-6.9-6.8c-1.2-1.2-2.9-1.9-4.6-1.9-.4 0-.7 0-1.1.1L81.4 65.3c-1.2-2-3.3-3.3-5.7-3.3h-.2c-2.4.1-4.6 1.4-5.7 3.6-3.4 6.8-6.9 13.7-10.3 20.5l-.5-.8c-.9-1.7-2.6-2.8-4.4-3.2-.3-.1-.7-.1-1.1-.1-1.5 0-2.9.5-4.1 1.4l-6 4.7c-.7.6-1.3 1.2-1.7 2.1l-6 11.3h-.2c-1.2 0-2.3.4-3.2 1l-9.2 5.4c-5.4-9.3-8.4-20-8.4-31.1zm12.1 36.6l9-5.3-3.6 11.6c-2-2-3.8-4.1-5.4-6.3zm49.5 25c-16.3 0-31.6-6.3-43.2-17.8l14.5-27.4 5.9-4.7 4.3 7.4-10.8 30 28.8-57.3L88 89.8l-.7 30.3 5.4-30.8 6.9 6.8 14.5 29.2c-10.7 8.5-23.9 13.1-37.8 13.1zm43.6-18.1c-1.6 1.6-3.3 3.1-5 4.5l-5.9-18.4 13.6 8.5 1 1.4c-1.2 1.4-2.4 2.7-3.7 4z"/></svg>