<svg xmlns:xlink="http://www.w3.org/1999/xlink"  xmlns="http://www.w3.org/2000/svg" viewBox="0 0 1000 1000"><path fill="none" d="M216 428.2V455h-8v-27.9c-16-3.4-32-5.6-48-6.8v20.2c24 4.4 57.3 11.9 98.6 24.1l5.4 2.9V441c-16-5.5-32-9.7-48-12.8zM112 418.8v16.9c8 .5 24 1.7 40 3.9v-19.7c-16-1-32-1.3-40-1.1zM303.5 469.3l4.5-2.3 3-11.1c-13.2-5.1-21.9-9.5-38.9-13.3V471h-3.8l54.5 16.5c.1-1.3.4-6.2.8-10.7l-20.1-7.5zM64.7 422.1c1.5 4.3 6.2 15.7 6.2 15.7l-2.7.7c9.1-2 19.9-3.2 35.9-2.9v-16.7c-16.1.5-33.6 2.3-39.4 3.2zM308 449c1.5 0 3.1 1.1 4.6 1.7l.5-1.7H308z"/><path fill="#FF9F36" d="M294.1 436.6l8.9-20.8 13.4-37.5s35.7-12.5 60.2-8.3l26.8-20.8 93.7 10.4 8.9-18.7 29 4.2-2.2 16.6 46.8 22.9-6.7 27.1s35.7 20.8 35.7 29.1l15.6 10.4-2.2 18.7 11.1 2.1 24.5-54.1 37.8 8.6C693 300.7 575.2 199.4 430.1 199.4c-139.6 0-254 93.9-264.5 213.1 59.4 1.2 95.1 5.4 128.5 24.1zm272.1-174.8l-49.1-33.3 49.1 33.3zM486 220.2s-232 8.3-276.6 179l-31.2 8.3S209.4 199.4 486 220.2z"/><path fill="#5D6E7F" d="M526.1 349.2l-15.6-2.1-6.7 18.7 7.8 2.7c3.5.8 6.9 1.6 10.3 2.4l4.2-21.7z"/><path fill="#7DA9BE" d="M555.7 408.8l9-19.4c-10.8-8.1-26.1-14-42.9-18.4-3.4-.9-6.8-1.7-10.3-2.4-50.7-11-110.4-9.7-110.4-9.7l-16 22.3c50.5 3.3 127.4 9.5 149.6 17.4 7.7 2.7 14.7 6.3 21 10.2z"/><linearGradient id="a" gradientUnits="userSpaceOnUse" x1="462.059" y1="727.018" x2="419.959" y2="202.17"><stop offset=".022" stop-color="#abc6d4"/><stop offset=".629" stop-color="#7da9be"/></linearGradient><path fill="url(#a)" d="M72.8 468.9c3.5-.4 8.6-.7 15.8-.7-12.3-7.4-25.1-13.5-38.3-17.8 0 0 20 3 49.9 18.1 68.1 2.8 258.8 31.2 733.7 203.2l6.4 3c5.5-8 10-14.8 12.7-18.2 9.9-12.3-19.7-9.8-19.7-9.8l-39.4-4.9-469.4-155.3-1.9-.2v1.1L268.2 471H264v-3.6l-5.4-2.9c-41.3-12.2-74.6-19.7-98.6-24.1V439h-8v.6c-16-2.2-32-3.4-40-3.9v3.3h-8v-3.5c-16-.3-26.5.9-35.6 2.9l-2.7 1.2.2-.3c-21.5 5.6-24.7 15.4-24.7 15.4 10.7 3.4 21.5 8.4 32.1 14.7-.1-.2-.3-.3-.5-.5z"/><linearGradient id="b" gradientUnits="userSpaceOnUse" x1="475.625" y1="725.918" x2="433.547" y2="201.34"><stop offset=".022" stop-color="#abc6d4"/><stop offset=".629" stop-color="#7da9be"/></linearGradient><path fill="url(#b)" d="M276.3 669.7l-11.9 25s-55.3-129.6-142.8-202.8c-5.8 0-11.1.2-15.7.7-2.9-2.4-5.8-4.8-8.7-7 96.2 74.6 177.6 240 177.6 240-9.9-66.5 32.9-76.3 85.4-78.8 52.6-2.5 65.7 44.3 65.7 44.3-16.4-44.3-118.3-9.9-95.3 22.2 23 32 164.3 7.4 256.3-19.7s177.4 32 200.4 32l24.3-17.6s.7.6 1.8 1.4c6.4-6.7 12.7-14.6 18.4-22.4-50.5-17.8-523.8-182-692.4-194.4 43 31.2 94.4 84.9 136.9 177.1zM419 694.6l-11.2-2.1s-2.2-10.4-17.8-12.5c.1.1 33.5-2 29 14.6zM702.3 660c3.7 0 6.7 2.4 6.7 5.5 0 3-3 5.5-6.7 5.5s-6.7-2.4-6.7-5.5c0-3 3-5.5 6.7-5.5zM651 640.5c4.9 0 8.9 3.3 8.9 7.3s-4 7.3-8.9 7.3-8.9-3.3-8.9-7.3 4-7.3 8.9-7.3zm-46.8-16.6c4.9 0 8.9 3.3 8.9 7.3s-4 7.3-8.9 7.3-8.9-3.3-8.9-7.3c-.1-4 3.9-7.3 8.9-7.3zm-55.8-14.6c4.9 0 8.9 3.3 8.9 7.3s-4 7.3-8.9 7.3-8.9-3.3-8.9-7.3 4-7.3 8.9-7.3zm-55.8-16.6c4.9 0 8.9 3.3 8.9 7.3s-4 7.3-8.9 7.3-8.9-3.3-8.9-7.3c0-4.1 4-7.3 8.9-7.3zm-57.9 95.7l6.7 2.1s8.9 14.6-2.2 12.5c-11.2-2.1-4.5-14.6-4.5-14.6z"/><linearGradient id="c" gradientUnits="userSpaceOnUse" x1="837.625" y1="696.881" x2="795.547" y2="172.303"><stop offset=".022" stop-color="#abc6d4"/><stop offset=".629" stop-color="#7da9be"/></linearGradient><path fill="url(#c)" d="M840.3 674.8c-2.4 3.5-5.1 7.3-7.9 11.2 2.8-3.9 5.4-7.6 7.9-11.2z"/><linearGradient id="d" gradientUnits="userSpaceOnUse" x1="102.943" y1="755.813" x2="60.865" y2="231.234"><stop offset=".022" stop-color="#abc6d4"/><stop offset=".629" stop-color="#7da9be"/></linearGradient><path fill="url(#d)" d="M83.3 475.6l-6-3.9 6 3.9z"/><linearGradient id="e" gradientUnits="userSpaceOnUse" x1="112.472" y1="755.048" x2="70.393" y2="230.47"><stop offset=".022" stop-color="#abc6d4"/><stop offset=".629" stop-color="#7da9be"/></linearGradient><path fill="url(#e)" d="M93.5 482.8c-2-1.5-4-3-6-4.4 2 1.5 4 2.9 6 4.4z"/><linearGradient id="f" gradientUnits="userSpaceOnUse" x1="579.637" y1="723.671" x2="537.056" y2="192.835"><stop offset=".022" stop-color="#abc6d4"/><stop offset=".843" stop-color="#9dbdcd"/></linearGradient><path fill="url(#f)" d="M330.8 399.4l5-12.7s121.9 5.5 175.4 16.6l-7 22.3 1.8.6-4.5 12.5s-.5-.1-1.3-.3l-8.4 26.9c.2.1.4.3.6.4l21.8-59.5-21.8 59.5c.1 0 .2.1.2.1l-2.2 10.4s-.6-.2-1.6-.6l-1.5 4.1-11.7 37.4-1.8-.5-1.2 3.3 1.2-3.3-144.6-43.3-.4 4.5L804.5 636l3.8-7.4-3.4 1.6L646.1 568l-2.1 5.9-3.4-1.1 2.2-6.1-34.5-13.5-4.4 12.4-3.4-1.1 4.5-12.6-31.2-12.2-3.3 9.3-3.4-1.1 3.4-9.5-41.8-16.4-1.8 5-3.4-1.1 1.9-5.3-21.4-8.4-4.9 13.7-3.4-1.1 5-13.9-14.6-5.7 2.2-8.3 15.2 6.1 5.4-15.2-14-5.5 6.7-16.6 12.9 6.3 2.9-8.3 3.4 1.1-3.1 8.8 20.8 10.1 6.7-18.9 3.4 1.1-6.9 19.4 19.9 9.6-8.9 10.4-15.9-6.3-5.5 15.3 41.5 16.6 5.5-15.5-19-8 4.5-8.3 17.7 7.5 7.1-19.9 3.4 1.1-7 20.2 30.9 13.1 6.4-17.9 3.4 1.1-6.5 18.2 34.1 14.5 13.2-26-27.4-15.5-25.5-14.5-15.9-9.5-3.7-2.5v-28.1s-15.1-18.2-37.4-32l-172.8-25 1.7-2.6c-26.7-1.8-46.1-2.7-46.1-2.7-19.6 2.7-22.2 14.8-21.9 22.2l1.2-1.6c0-.1 4.4 0 12.1.2zm237.7 68.4l-60.2-27.1 4.5-10.4 60.2 25-4.5 12.5z"/><linearGradient id="g" gradientUnits="userSpaceOnUse" x1="335.541" y1="743.253" x2="292.959" y2="212.401"><stop offset=".022" stop-color="#abc6d4"/><stop offset=".843" stop-color="#9dbdcd"/></linearGradient><path fill="url(#g)" d="M303.5 469.3l20.1 6.7c.1-1.4.2-2.9.4-4.3l-5.9-1.8 4.4-9.6c-2.1-.9-4.3-1.7-6.4-2.6-1.6-.2-3-.4-3.9-.4l.4-1.1c-.4-.2-.8-.3-1.3-.5l-3.2 11.1-4.6 2.5z"/><linearGradient id="h" gradientUnits="userSpaceOnUse" x1="609.87" y1="721.248" x2="567.288" y2="190.396"><stop offset=".022" stop-color="#abc6d4"/><stop offset=".843" stop-color="#9dbdcd"/></linearGradient><path fill="url(#h)" d="M576.4 532.2l31.1 12.5 5.3-15-30.9-13z"/><linearGradient id="i" gradientUnits="userSpaceOnUse" x1="508.223" y1="729.401" x2="465.642" y2="198.549"><stop offset=".022" stop-color="#abc6d4"/><stop offset=".843" stop-color="#9dbdcd"/></linearGradient><path fill="url(#i)" d="M487.3 479.6l1.5-4.1c-.1 0-.1 0-.2-.1l-1.3 4.2z"/><linearGradient id="j" gradientUnits="userSpaceOnUse" x1="339.633" y1="742.567" x2="297.096" y2="212.278"><stop offset=".022" stop-color="#abc6d4"/><stop offset=".843" stop-color="#9dbdcd"/></linearGradient><path fill="url(#j)" d="M313.1 447l-1.1 2.7c.5.2 1 1.3 1 1.5 0 0 4.9.7 12 1.9l1.5-2.6-11.7-11.1 2.7-6.6c-3.5-.2-6.8-.4-10-.4l6.7-8.3s2.4.2 6.5.7l6.7-16.9c-3.2-.2-6.4-.3-9.4-.4l-16.8 37.8c2.3.8 4.6 1.6 6.8 1.6h5.1z"/><linearGradient id="k" gradientUnits="userSpaceOnUse" x1="742.634" y1="716.006" x2="697.189" y2="149.455"><stop offset=".022" stop-color="#abc6d4"/><stop offset=".843" stop-color="#9dbdcd"/></linearGradient><path fill="url(#k)" d="M664.5 509.9l-7.8 28.6 34.4 14.6 2.3 10.4-39.7-16.6-5.1 14.2 147 58.8 14.6 4.9 5.8-11.4-103.8-54 7.8-18.1-43.2-24.4z"/><linearGradient id="l" gradientUnits="userSpaceOnUse" x1="538.308" y1="726.988" x2="495.727" y2="196.136"><stop offset=".022" stop-color="#abc6d4"/><stop offset=".843" stop-color="#9dbdcd"/></linearGradient><path fill="url(#l)" d="M506.8 504.4l21.4 8.5 5.4-15.2-21.4-8.5z"/><linearGradient id="m" gradientUnits="userSpaceOnUse" x1="644.448" y1="718.474" x2="601.867" y2="187.622"><stop offset=".022" stop-color="#abc6d4"/><stop offset=".843" stop-color="#9dbdcd"/></linearGradient><path fill="url(#m)" d="M610.9 546l34.3 13.7 5.1-14.2-34.1-14.4z"/><path fill="#7DA9BE" d="M555.7 408.8c-6.4-3.9-13.4-7.5-20.9-10.2-22.2-7.9-99.1-14.1-149.6-17.4l-1.9 2.6 172.4 25z"/><linearGradient id="n" gradientUnits="userSpaceOnUse" x1="496.333" y1="730.355" x2="453.751" y2="199.503"><stop offset=".022" stop-color="#abc6d4"/><stop offset=".843" stop-color="#9dbdcd"/></linearGradient><path fill="url(#n)" d="M555.7 408.8c-6.4-3.9-13.4-7.5-20.9-10.2-22.2-7.9-99.1-14.1-149.6-17.4l-1.9 2.6 172.4 25z"/><path fill="#7DA9BE" d="M264.4 694.6l11.9-25c-42.5-92.2-93.9-145.9-136.9-177.1-6.4-.5-12.3-.7-17.8-.7 87.6 73.2 142.8 202.8 142.8 202.8zM50.3 450.5c13.3 4.3 26 10.4 38.3 17.8 3.4 0 7.2.1 11.6.3-29.8-15.2-49.9-18.1-49.9-18.1z"/><path fill="none" d="M487.3 479.6l1.5-4M473.8 516.5l-1.2 3.3M514.2 406.1l-21.8 59.5"/><path fill="#FFFFFE" d="M500.2 438.3c-12.2-3.2-105.9-26.9-172.9-30.4l-6.7 16.9c27.5 3.2 135.3 17.1 171.1 40.4l8.5-26.9zM475.5 517.1l11.7-37.4 1.3-4.1c-14.4-5-112.9-38.9-171-42.7l-2.6 6.6 11.9 11.1-1.2 2.6c30.6 5.3 114.4 21.1 146.9 39.7l-2.2 6.2s-97.1-28.8-140.1-38.5l-1 12.7 144.6 43.3 1.7.5zM335.8 386.7l-5 12.7c30.9.8 114.4 5 173.5 26.2l7-22.3c-53.6-11.1-175.5-16.6-175.5-16.6z"/><path fill="#FFFFFE" d="M323.9 471.7c.4-4.7.7-9 .9-10.4-.8-.3-1.6-.6-2.4-1l-4.4 9.6 5.9 1.8z"/><linearGradient id="o" gradientUnits="userSpaceOnUse" x1="636.115" y1="472.579" x2="695.59" y2="472.579"><stop offset=".022" stop-color="#abc6d4"/><stop offset=".843" stop-color="#9dbdcd"/></linearGradient><path fill="url(#o)" d="M688.6 468.5l-4.2 7.6-29-14.5 2.3-8.4 31 14.5 6.9-28.3-29.7-11.1-26.7 67.2 37.6 21.4z"/><linearGradient id="p" gradientUnits="userSpaceOnUse" x1="594.485" y1="467.173" x2="615.3" y2="467.173"><stop offset=".022" stop-color="#abc6d4"/><stop offset=".843" stop-color="#9dbdcd"/></linearGradient><path fill="url(#p)" d="M615.3 456l-11.9-2.7-6.5 18.3 16.7 9.5z"/><path fill="#5D6E7F" d="M500.2 438.3c.9.2 1.3.3 1.3.3l4.5-12.5-1.8-.6c-59-21.2-142.6-25.4-173.5-26.2-7.6-.2-12.1-.2-12.1-.2l-1.3 1.6-5.4 6.7c2 0 3.9 0 6 .1 3.1.1 6.2.2 9.4.4 67 3.5 160.7 27.3 172.9 30.4zM488.8 475.6c1 .4 1.6.6 1.6.6l2.2-10.4c-.1 0-.2-.1-.2-.1-.2-.1-.4-.3-.6-.4-35.8-23.3-143.6-37.2-171.1-40.4-4.1-.5-6.5-.7-6.5-.7l-6.7 8.3c3.2 0 6.5.1 10 .4 58.1 3.8 156.7 37.6 171 42.7.1-.1.2-.1.3 0zM508.3 440.8l60.2 27 4.4-12.5-60.2-24.9zM501.6 465.7l-6.7 16.7 13.9 5.5 5.7-15.9zM552.9 505.3l8.9-10.4-19.9-9.7-5 13.8zM533.6 497.7l5-14-20.8-10.1-5.6 15.6zM506.8 504.4l-2.9 7.9 21.5 8.4 2.8-7.8zM488.2 497l-2.2 8.3 14.6 5.7 2.8-8zM576.4 532.2l-2.7 7.4 31.2 12.3 2.6-7.2zM648.6 561.1l-2.5 6.9 158.8 62.1 3.4-1.6 5.5-2.5-3.6-1.2-14.6-4.9zM610.9 546l-2.6 7.2 34.5 13.5 2.4-7zM531.5 514.3l-2.8 7.7 41.7 16.3 2.6-7.4zM693.4 563.5l-2.3-10.4-34.4-14.6-3 8.4zM612.8 529.7l3.1-8.6L585 508l-3.1 8.7zM650.3 545.5l3-8.4-34.1-14.6-3 8.6zM564 499l-4.4 8.4 19 7.9 3.1-8.7zM69.6 438.4l1.9-.7s-5.2-11.4-6.7-15.7c5.8-.9 23.3-2.7 39.3-3.2V439h8v-20.2c8-.2 24 .1 40 1.1v19.7-.6h8v1.5-20.2c16 1.3 32 3.4 48 6.8V455h8v-26.8c16 3.2 32 7.3 48 12.7V471h8v-28.5c17 3.8 25.7 8.2 38.9 13.3.4.2.9.3 1.3.5l-.3 1.1c1 0 2.3.1 3.9.4 2.1.8 4.3 1.7 6.4 2.6.8.3 1.6.6 2.4 1-.1 1.4-.5 5.7-.9 10.4-.1 1.4-.2 2.9-.4 4.3-.4 4.5-.7 8.6-.8 9.9v.5l1.9.2 3.6.3.7-9 .4-4.5 1-12.7c43 9.7 140.1 38.5 140.1 38.5l2.2-6.2c-32.5-18.9-116.9-34.7-147.5-40-7.2-1.2-12-1.9-12-1.9 0-.2-.4-.4-1-.6-1.5-.6-2.8-1.1-4.3-1.7-2.3-.9-4.6-1.7-6.8-2.6-9.8-3.5-20.9-6.7-28.9-9.5v2.2h-.3c-120.5-40-209-20.7-210-20.5h-3.1l7.6 21.1.1.2 3.3-1.4zM100.2 468.5c-4.3-.2-8.2-.3-11.6-.3-7.2 0-12.3.3-15.8.7.2.1.4.3.6.4l3.9 2.4c2 1.2 4 2.5 6 3.9 1.4.9 2.8 1.9 4.1 2.8 2 1.4 4 2.9 6 4.4l3.6 2.7c2.9 2.3 5.8 4.6 8.7 7 4.7-.5 10-.7 15.7-.7 5.5 0 11.4.8 17.8 1.3C308 505.6 781.3 672 831.7 688c.2 0 .4-1.1.6-1.4 2.8-3.9 6.8-7.9 9.3-11.5l1.4-.2v-.1l-7.8-3c-474.8-172.1-666.8-200.4-735-203.3z"/><path fill="#5D6E7F" d="M492.6 607.2c4.9 0 8.9-3.3 8.9-7.3s-4-7.3-8.9-7.3-8.9 3.3-8.9 7.3c0 4.1 4 7.3 8.9 7.3zM548.4 623.9c4.9 0 8.9-3.3 8.9-7.3s-4-7.3-8.9-7.3-8.9 3.3-8.9 7.3 4 7.3 8.9 7.3zM604.2 638.5c4.9 0 8.9-3.3 8.9-7.3s-4-7.3-8.9-7.3-8.9 3.3-8.9 7.3c-.1 4 3.9 7.3 8.9 7.3zM651 655.1c4.9 0 8.9-3.3 8.9-7.3s-4-7.3-8.9-7.3-8.9 3.3-8.9 7.3 4 7.3 8.9 7.3zM702.3 671c3.7 0 6.7-2.4 6.7-5.5 0-3-3-5.5-6.7-5.5s-6.7 2.4-6.7 5.5c0 3 3 5.5 6.7 5.5z"/><path fill="#9DBDCD" d="M536.9 499l5-13.8 6.9-19.4-3.5-1-6.7 18.9-5 14-5.4 15.2-2.8 7.8-1.9 5.3 3.4 1 1.8-5 2.8-7.7zM512.2 489.2l5.6-15.6 3.1-8.8-3.4-1.1-3 8.3-5.7 15.9-5.4 15.1-2.8 8-5 13.9 3.5 1.1 4.8-13.7 2.9-7.9zM581.9 516.7l3.1-8.7 7.3-20.3-3.5-1.1-7.1 20-3.1 8.7-5.6 15.6-2.6 7.4-3.4 9.5 3.4 1.1 3.3-9.3 2.7-7.4zM616.2 531.1l3-8.6 6.5-18.2-3.4-1-6.4 17.8-3.1 8.6-5.3 15-2.6 7.2-4.5 12.6 3.5 1 4.4-12.3 2.6-7.2zM653.7 546.9l3-8.4 6.9-19.5 2.3-6.3-3.5-1.1-2 5.6-7.1 19.9-3 8.4-5.1 14.2-2.4 7-2.2 6.1 3.4 1.1 2.1-5.9 2.5-6.9z"/><path fill="#5D6E7F" d="M655.4 461.6l29 14.5 4.2-7.6.3-.7-.2-.1-31-14.5z"/><path fill="#FFFFFE" d="M390.1 680.1c15.6 2.1 17.8 12.5 17.8 12.5l11.2 2.1c4.4-16.7-29-14.6-29-14.6zM439.1 703c11.1 2.1 2.2-12.5 2.2-12.5l-6.7-2.1c.1 0-6.6 12.5 4.5 14.6z"/><path fill="#80CCEB" d="M228.5 672.9c4.2-2.8-2.8-17.1-2.8-17.1l-6.5 14.7c5 2.9 7.9 3.4 9.3 2.4z"/><path fill="#80CCEB" d="M767 744.6c-3-13.9-47.6-49.9-110-19.4s-95.2 36.1-95.2 22.2c0-13.9-56.5-27.7-142.7-2.8-86.2 25-98.1 33.3-95.2 16.6 3-16.6-20.8-36.1-59.5-25-38.7 11.1-107.1 27.7-89.2 8.3 17.9-19.4 68.4-38.8 59.5-44.4-8.9-5.6-23.8-11.1-23.8-11.1l8.3-18.6c-1.6-.9-3.3-2.1-5.4-3.6-26.8-19.4-86.2-83.2-89.2-49.9-3 33.3 104.1 55.5 62.4 63.8 0 0-35.7-11.1-17.8 8.3 17.8 19.4 59.5 13.9 41.6 22.2-17.8 8.3-130.8 38.8-95.2 61 35.7 22.2 190.3-30.5 172.5-11.1-17.8 19.4-14.9 47.2 83.3 16.6 98.1-30.5 163.6-55.5 154.6-30.5-8.9 25 8.9 52.7 62.5 27.7 53.5-25 151.7-49.9 154.6-27.7 3 22.2 11.9 27.7 83.3-13.9 0 .2-56.5 25.2-59.4 11.3z"/><path fill="#8DD0ED" d="M499.3 780.1C511.2 750.4 315 812 315 812c-28.2 4.2-25.3-12.2-25.3-12.2-24.5 36.6 93.7 11.2 147.2-6.4 53.5-17.5 42.4-1.6 42.4-1.6l8.2 18.1C517.2 846 645 782.2 645 782.2c-95.1 38.3-157.6 27.7-145.7-2.1z"/><path fill="#80CCEB" d="M572.9 713.4l71.4-8.3c-26.8-8.4-71.4 8.3-71.4 8.3zM167 703s-37.9-10.4-24.5-2.1c13.4 8.3 24.5 2.1 24.5 2.1z"/><path fill="#FF9F36" d="M209.4 399.1C254 228.5 486 220.2 486 220.2c-276.6-20.8-307.8 187.3-307.8 187.3l31.2-8.4z"/><path opacity=".71" fill="#FFB602" d="M209.4 399.1C254 228.5 486 220.2 486 220.2c-276.6-20.8-307.8 187.3-307.8 187.3l31.2-8.4z"/><path fill="none" d="M517.2 228.5l49 33.3"/><path fill="#FF9F36" d="M526.4 159.7c-11.5-11.3-18.2 37.6-18.2 37.6 21.9-27.9 18.2-37.6 18.2-37.6zM387.2 148.5c-15.9-2.2 7.8 41 7.8 41 .9-35.4-7.8-41-7.8-41zM248.3 181.3c-15.9 2.1 18.3 37.5 18.3 37.5-8.4-34.4-18.3-37.5-18.3-37.5zM181.4 300.1c-25-25.2-35-22.7-35-22.7-12.6 10 35 22.7 35 22.7zM153 373.2c-32.2-14.9-40.7-9.1-40.7-9.1-8.3 13.7 40.7 9.1 40.7 9.1zM647.1 227.6c-1.7-16-38 17.4-38 17.4 34.7-7.6 38-17.4 38-17.4zM728.8 331c2.7-15.8-41.2 6.5-41.2 6.5 35.4 2 41.2-6.5 41.2-6.5zM743.5 490.1c9.9-12.7-39.4-13.7-39.4-13.7 30.3 18.5 39.4 13.7 39.4 13.7z"/><path fill="#80CCEB" d="M787.3 725.5c2.9-.5 6.1-.7 9.3-.7l-20.7 5.2s16.9 5.2 39.4-4.1c25.7 3.1 53.5 10.7 63.2 4.3 13.4-8.9 49.1-17.8 49.1-17.8-22.3-22.3-40.1 0-71.4 4.5-9.8 1.4-17.6 1-24-.2.6-.4 1.1-.7 1.7-1.2l-3.4.9c-9-1.9-14.6-5.1-17.1-7-1.1-.8-1.8-1.4-1.8-1.4l-24.3 17.5zM851.7 748c-16.3 2.3-23.3-4.7-23.3-4.7l-12.7 9.2c15.3-2.4 40.7 7.1 47.7 2.4 7-4.7 25.7-9.3 25.7-9.3-11.7-11.6-21.1.1-37.4 2.4z"/><path fill="#A9D4A5" d="M825 380l2.2 15.6c8.9 0 33.5 60.2 33.5 60.2C889.6 393.4 825 380 825 380zM825 375h22.3l31.2-2.2c-29-24.6-53.5 2.2-53.5 2.2zM829.4 344.3l9.1-30c-33.3 18.3-17.1 50.8-17.1 50.8l8-20.8zM817.5 370.3s-17.1-43.6-45.2-40.8l32.1 44.3 13.1-3.5zM815.5 388.9L804 378.1s-41.7-9.6-38.9 47.9c.1 0 27.8-47.6 50.4-37.1z"/><path fill="#CFAE9B" d="M742.4 562.9s0 11.2 11.1 11.2c11.2 0 71.4-87 64.7-194 .1-.1-2.2 93.6-75.8 182.8z"/><path fill="#A9D4A5" d="M850.2 498.9l-2.5 8.4c4.5 2.1 2.9 38 2.9 38 29.1-24.7-.4-46.4-.4-46.4zM851.8 495.6l11.2 5.1 16.2 6.1c-8.9-19-27.4-11.2-27.4-11.2zM851.9 490.6l8.8-8.6 11.5-13c-21 1.5-20.3 21.6-20.3 21.6zM835.4 461.4l5.9 29.7 7.4 1.3c0-.1 1.4-26-13.3-31zM809.6 508.2s24.9-17.5 33.9-7l-3.3-8.1s-18.8-14.4-30.6 15.1z"/><path fill="#CFAE9B" d="M769.6 580.1c5.6 2.6 56-27.3 77.3-82.7 0 0-22.7 46.6-80.3 74.5-.1 0-2.6 5.6 3 8.2z"/></svg>