<svg xmlns:xlink="http://www.w3.org/1999/xlink"  xmlns="http://www.w3.org/2000/svg" viewBox="0 0 150 150"><path fill="#DA5856" d="M89 78.2c-4.3-7.1-24.9 9.6-32.5 6.4-7.6-3.2-10-29.6-18.1-27.7-8.1 1.9 1.4 26.6-4 32.9-5.4 6.2-31.2.4-31.9 8.6-.7 8.3 25.8 6.9 30 14 4.3 7.1-9.3 29.8-1.6 33.1 7.6 3.2 14.5-22.4 22.5-24.3 8.1-1.9 25.5 18.1 30.9 11.8 5.4-6.3-16.8-20.7-16.1-28.9.7-8.3 25.1-18.8 20.8-25.9zM40.1 98c1.2-.3 2.3.5 2.6 1.6.3 1.2-.5 2.3-1.6 2.6-1.2.3-2.3-.5-2.6-1.6-.3-1.2.4-2.3 1.6-2.6zm-31.7 2.9c-1.2.3-2.3-.5-2.6-1.6-.3-1.2.5-2.3 1.6-2.6 1.2-.3 2.3.5 2.6 1.6.3 1.1-.4 2.3-1.6 2.6zm10.7 1c-1.2.3-2.3-.5-2.6-1.6-.3-1.2.5-2.3 1.6-2.6 1.2-.3 2.3.5 2.6 1.6.3 1.1-.5 2.3-1.6 2.6zm11.1.6c-1.2.3-2.3-.5-2.6-1.6-.3-1.2.5-2.3 1.6-2.6 1.2-.3 2.3.5 2.6 1.6.3 1.2-.4 2.4-1.6 2.6zm3.4 38.5c-1.2.3-2.3-.5-2.6-1.6-.3-1.2.5-2.3 1.6-2.6 1.2-.3 2.3.5 2.6 1.6.3 1.2-.4 2.4-1.6 2.6zm4.3-9.3c-1.2.3-2.3-.5-2.6-1.6-.3-1.2.5-2.3 1.6-2.6 1.2-.3 2.3.5 2.6 1.6.2 1.2-.5 2.3-1.6 2.6zm4.6-10.2c-1.2.3-2.3-.5-2.6-1.6-.3-1.2.5-2.3 1.6-2.6 1.2-.3 2.3.5 2.6 1.6.2 1.1-.5 2.3-1.6 2.6zm3-9.6c-1.2.3-2.3-.5-2.6-1.6-.3-1.2.5-2.3 1.6-2.6 1.2-.3 2.3.5 2.6 1.6.3 1.2-.4 2.3-1.6 2.6zm-2.7-36.5c-1.2.3-2.3-.5-2.6-1.6-.3-1.2.5-2.3 1.6-2.6 1.2-.3 2.3.5 2.6 1.6.3 1.1-.5 2.3-1.6 2.6zm3.7 6.7c.3 1.2-.5 2.3-1.6 2.6-1.2.3-2.3-.5-2.6-1.6-.3-1.2.5-2.3 1.6-2.6 1.2-.3 2.4.5 2.6 1.6zm-7.1-21c1.2-.3 2.3.5 2.6 1.6.3 1.2-.5 2.3-1.6 2.6-1.2.3-2.3-.5-2.6-1.6-.3-1.1.4-2.3 1.6-2.6zM46.1 90c1.2-.3 2.3.5 2.6 1.6.3 1.2-.5 2.3-1.6 2.6-1.2.3-2.3-.5-2.6-1.6-.3-1.2.5-2.4 1.6-2.6zm3.5 13.6c-1.2.3-2.3-.5-2.6-1.6-.3-1.2.5-2.3 1.6-2.6 1.2-.3 2.3.5 2.6 1.6.3 1.2-.5 2.4-1.6 2.6zM84.2 79c1.2-.3 2.3.5 2.6 1.6.3 1.2-.5 2.3-1.6 2.6-1.2.3-2.3-.5-2.6-1.6-.2-1.2.5-2.3 1.6-2.6zm-9.1 5.6c1.2-.3 2.3.5 2.6 1.6.3 1.2-.5 2.3-1.6 2.6-1.2.3-2.3-.5-2.6-1.6-.3-1.2.4-2.4 1.6-2.6zm-18.4 24.7c-1.2.3-2.3-.5-2.6-1.6-.3-1.2.5-2.3 1.6-2.6 1.2-.3 2.3.5 2.6 1.6.3 1.2-.5 2.4-1.6 2.6zm-2.9-12.2c-.3-1.2.5-2.3 1.6-2.6 1.2-.3 2.3.5 2.6 1.6.3 1.2-.5 2.3-1.6 2.6-1.1.3-2.3-.5-2.6-1.6zm9.8 19.5c-1.2.3-2.3-.5-2.6-1.6-.3-1.2.5-2.3 1.6-2.6 1.2-.3 2.3.5 2.6 1.6.3 1.2-.4 2.3-1.6 2.6zm15.5 9.6c1.2-.3 2.3.5 2.6 1.6.3 1.2-.5 2.3-1.6 2.6-1.2.3-2.3-.5-2.6-1.6-.3-1.2.5-2.4 1.6-2.6zm-5.3-5c.3 1.2-.5 2.3-1.6 2.6-1.2.3-2.3-.5-2.6-1.6-.3-1.2.5-2.3 1.6-2.6 1.2-.3 2.4.4 2.6 1.6zm-10-28.6c-.3-1.2.5-2.3 1.6-2.6 1.2-.3 2.3.5 2.6 1.6.3 1.2-.5 2.3-1.6 2.6-1.2.3-2.3-.5-2.6-1.6z"/><path fill="#9E5579" d="M141.6 100.1c1.2-4.8-14.5-6.4-16.3-11-1.9-4.6 8.2-16.7 4-19.3-4.2-2.6-10.6 11.8-15.5 12.2-4.9.4-13.3-13-17.1-9.8-3.8 3.2 7.9 13.7 6.8 18.5-1.2 4.8-16.5 8.7-14.6 13.2 1.8 4.6 15.5-3.3 19.7-.7 4.2 2.6 3.1 18.3 8.1 18 4.9-.4 1.6-15.8 5.4-18.9 3.7-3.2 18.3 2.6 19.5-2.2zm-28.9-12.2c.6.4.8 1.2.4 1.8-.4.6-1.2.8-1.8.4-.6-.4-.8-1.2-.4-1.8.4-.6 1.2-.8 1.8-.4zM98.2 75.8c-.6-.4-.8-1.2-.4-1.8.4-.6 1.2-.8 1.8-.4.6.4.8 1.2.4 1.8-.4.6-1.2.8-1.8.4zm4.1 4.9c-.6-.4-.8-1.2-.4-1.8.4-.6 1.2-.8 1.8-.4.6.4.8 1.2.4 1.8-.4.6-1.2.8-1.8.4zm4.4 4.9c-.6-.4-.8-1.2-.4-1.8.4-.6 1.2-.8 1.8-.4.6.4.8 1.2.4 1.8-.4.6-1.2.8-1.8.4zm-14.8 17.7c-.6-.4-.8-1.2-.4-1.8.4-.6 1.2-.8 1.8-.4.6.4.8 1.2.4 1.8-.4.6-1.2.7-1.8.4zm5.7-2.2c-.6-.4-.8-1.2-.4-1.8.4-.6 1.2-.8 1.8-.4.6.4.8 1.2.4 1.8-.4.6-1.2.8-1.8.4zm6.3-2.3c-.6-.4-.8-1.2-.4-1.8.4-.6 1.2-.8 1.8-.4.6.4.8 1.2.4 1.8-.4.5-1.2.7-1.8.4zm5.3-2.8c-.6-.4-.8-1.2-.4-1.8.4-.6 1.2-.8 1.8-.4.6.4.8 1.2.4 1.8-.4.6-1.2.8-1.8.4zm14.2-16.5c-.6-.4-.8-1.2-.4-1.8.4-.6 1.2-.8 1.8-.4.6.4.8 1.2.4 1.8-.4.6-1.2.8-1.8.4zm-1.3 4.4c-.4.6-1.2.8-1.8.4-.6-.4-.8-1.2-.4-1.8.4-.6 1.2-.8 1.8-.4.6.4.8 1.2.4 1.8zm5.8-11.8c.6.4.8 1.2.4 1.8-.4.6-1.2.8-1.8.4-.6-.4-.8-1.2-.4-1.8.4-.6 1.2-.8 1.8-.4zm-9.3 15c.6.4.8 1.2.4 1.8-.4.6-1.2.8-1.8.4-.6-.4-.8-1.2-.4-1.8.5-.7 1.2-.8 1.8-.4zm-4.3 7.1c-.6-.4-.8-1.2-.4-1.8s1.2-.8 1.8-.4c.6.4.8 1.2.4 1.8-.4.6-1.2.8-1.8.4zm25 4.2c.6.4.8 1.2.4 1.8-.4.6-1.2.8-1.8.4-.6-.4-.8-1.2-.4-1.8.4-.5 1.2-.7 1.8-.4zm-6.2-1.4c.6.4.8 1.2.4 1.8-.4.6-1.2.8-1.8.4-.6-.4-.8-1.2-.4-1.8.4-.6 1.2-.8 1.8-.4zm-18.2 2.6c-.6-.4-.8-1.2-.4-1.8.4-.6 1.2-.8 1.8-.4.6.4.8 1.2.4 1.8-.4.6-1.2.8-1.8.4zm4-6.3c.4-.6 1.2-.8 1.8-.4.6.4.8 1.2.4 1.8-.4.6-1.2.8-1.8.4-.6-.4-.8-1.2-.4-1.8zm-4.1 12.3c-.6-.4-.8-1.2-.4-1.8.4-.6 1.2-.8 1.8-.4.6.4.8 1.2.4 1.8-.4.6-1.2.8-1.8.4zm2.5 10.5c.6.4.8 1.2.4 1.8-.4.6-1.2.8-1.8.4-.6-.4-.8-1.2-.4-1.8.4-.6 1.2-.7 1.8-.4zm-.2-4.3c-.4.6-1.2.8-1.8.4-.6-.4-.8-1.2-.4-1.8.4-.6 1.2-.8 1.8-.4.7.4.8 1.2.4 1.8zm7.9-16.2c.4-.6 1.2-.8 1.8-.4.6.4.8 1.2.4 1.8-.4.6-1.2.8-1.8.4-.6-.4-.8-1.2-.4-1.8z"/><path fill="#62BF8B" d="M122.3 27.1c-2.5-6.3-21.3 4.5-27.1.9-5.7-3.6-4.2-25.2-11-24.8-6.8.5-2.3 21.7-7.5 26-5.2 4.4-25.3-3.8-27 2.8-1.6 6.6 19.9 8.9 22.4 15.2 2.5 6.3-11.4 22.9-5.7 26.5 5.7 3.6 14.6-16.2 21.4-16.6 6.8-.5 18.3 17.9 23.4 13.6 5.2-4.3-10.9-18.9-9.2-25.5 1.8-6.6 22.9-11.9 20.3-18.1zm-42.1 9.5c1-.1 1.8.7 1.9 1.7.1 1-.7 1.8-1.6 1.9-1 .1-1.8-.7-1.9-1.6s.7-1.9 1.6-2zm-25.9-1.8c-1 .1-1.8-.7-1.9-1.7-.1-1 .7-1.8 1.6-1.9 1-.1 1.8.7 1.9 1.6.1 1.1-.6 1.9-1.6 2zm8.4 2.2c-1 .1-1.8-.7-1.9-1.6-.1-1 .7-1.8 1.6-1.9 1-.1 1.8.7 1.9 1.6.2 1-.6 1.8-1.6 1.9zm8.9 2c-1 .1-1.8-.7-1.9-1.7-.1-1 .7-1.8 1.6-1.9 1-.1 1.8.7 1.9 1.6.1 1.1-.6 1.9-1.6 2zm-2.3 31.5c-1 .1-1.8-.7-1.9-1.6-.1-1 .7-1.8 1.7-1.9 1-.1 1.8.7 1.9 1.6.1 1-.7 1.9-1.7 1.9zm4.7-7c-1 .1-1.8-.7-1.9-1.6-.1-1 .7-1.8 1.7-1.9 1 0 1.8.7 1.9 1.7 0 .9-.7 1.8-1.7 1.8zm5-7.6c-1 .1-1.8-.7-1.9-1.6-.1-1 .7-1.8 1.6-1.9 1-.1 1.8.7 1.9 1.6.2 1-.6 1.8-1.6 1.9zm3.8-7.3c-1 .1-1.8-.7-1.9-1.6-.1-1 .7-1.8 1.6-1.9 1-.1 1.8.7 1.9 1.6.1.9-.6 1.8-1.6 1.9zm2.5-29.9c-1 .1-1.8-.7-1.9-1.6-.1-1 .7-1.8 1.7-1.9 1-.1 1.8.7 1.9 1.7.1.9-.7 1.7-1.7 1.8zm2.2 5.9c.1 1-.7 1.8-1.6 1.9-1 .1-1.8-.7-1.9-1.6-.1-1 .7-1.8 1.6-1.9 1-.1 1.8.6 1.9 1.6zm-3-17.8c1-.1 1.8.7 1.9 1.6.1 1-.7 1.8-1.7 1.9-1 .1-1.8-.7-1.9-1.6 0-1 .7-1.9 1.7-1.9zm1.7 24.1c1-.1 1.8.7 1.9 1.6.1 1-.7 1.8-1.6 1.9-1 .1-1.8-.7-1.9-1.6-.2-1 .6-1.8 1.6-1.9zm.9 11.5c-1 .1-1.8-.7-1.9-1.6-.1-1 .7-1.8 1.6-1.9 1-.1 1.8.7 1.9 1.7.2.9-.6 1.7-1.6 1.8zm31.3-15.3c1-.1 1.8.7 1.9 1.6.1 1-.7 1.8-1.7 1.9-1 .1-1.8-.7-1.9-1.6 0-1 .7-1.9 1.7-1.9zm-8.1 3.3c1-.1 1.8.7 1.9 1.6.1 1-.7 1.8-1.7 1.9-1 .1-1.8-.7-1.9-1.6 0-1 .7-1.9 1.7-1.9zM92.1 47.9c-1 .1-1.8-.7-1.9-1.6-.1-1 .7-1.8 1.7-1.9 1-.1 1.8.7 1.9 1.6.1 1-.7 1.9-1.7 1.9zm-.6-10.2c-.1-1 .7-1.8 1.7-1.9 1-.1 1.8.7 1.9 1.7.1 1-.7 1.8-1.6 1.9-1.1 0-2-.8-2-1.7zm5.3 17c-1 .1-1.8-.7-1.9-1.6-.1-1 .7-1.8 1.7-1.9 1-.1 1.8.7 1.9 1.6 0 1-.7 1.9-1.7 1.9zm11.3 9.8c1-.1 1.8.7 1.9 1.6.1 1-.7 1.8-1.6 1.9-1 .1-1.8-.7-1.9-1.6-.1-1 .6-1.9 1.6-1.9zm-3.7-4.7c.1 1-.7 1.8-1.7 1.9-1 .1-1.8-.7-1.9-1.6-.1-1 .7-1.8 1.6-1.9 1.1-.1 2 .6 2 1.6zm-4.3-24.5c-.1-1 .7-1.8 1.7-1.9 1-.1 1.8.7 1.9 1.6.1 1-.7 1.8-1.6 1.9-1.1.2-2-.6-2-1.6z"/></svg>