<svg xmlns:xlink="http://www.w3.org/1999/xlink"  xmlns="http://www.w3.org/2000/svg" viewBox="0 0 150 150"><path fill="#008B93" d="M110.3 103.9c-.3-18.6-15.2-34.2-33.8-34.7h-1.7c-18.6.5-33.5 15.6-33.8 34.2v.3c0 .4 0 .8.1 1.2h69.1v-.7l.1-.3zm-52.5-3.1h-12c.4-3.8 1.5-7.4 3.2-10.6h10.9c-1.2 3.4-1.9 7-2.1 10.6m-6-15.2c4.3-5.7 10.6-9.8 17.8-11.3-3.3 3.3-6 7.1-7.9 11.3h-9.9zm21.7 15.2H62.2c.3-3.6 1.1-7.2 2.5-10.6h8.8v10.6zm0-15.2H67c1.7-3.1 3.9-6 6.6-8.7v8.7zm4.3-8.7c2.7 2.7 4.8 5.7 6.6 8.7h-6.6v-8.7zm0 23.9V90.2h8.8c1.4 3.5 2.2 7 2.5 10.6H77.8zm3.9-26.5c7.1 1.5 13.3 5.6 17.6 11.3h-9.8c-2-4-4.5-7.8-7.8-11.3m11.8 26.5c-.3-3.6-1-7.2-2.2-10.6h10.9c1.7 3.3 2.8 6.9 3.3 10.6h-12z"/><g fill="#E6DC67"><path d="M133.7 104.9l-11.5-5.2-1.1 7-.9 7 12.5-1.8 12.5-1.7zM28.4 106.8l-1-7-11.5 5.2-11.6 5.3 12.6 1.8 12.5 1.7zM43.4 64.5l6-3.8 5.9-3.8-9.5-8.3-9.5-8.3 3.6 12.1zM81.8 53.2l-3.6-12.1-3.5-12.2-3.5 12.2-3.6 12.1h7.1zM106 64.5l3.6-12.2 3.6-12.1-9.6 8.3-9.5 8.3 6 3.9zM120.3 87l9.6-8.3 9.6-8.2-12.6 1.8-12.5 1.8 3 6.5zM29.2 87.1l2.9-6.4 3-6.4-12.5-1.9L10 70.6l9.6 8.2z"/></g></svg>