<svg xmlns:xlink="http://www.w3.org/1999/xlink"  xmlns="http://www.w3.org/2000/svg" viewBox="0 0 150 150"><path fill="none" d="M111.2 88.9l-.5-.5-.4.5h.9z"/><path fill="#A8CFCE" d="M111.2 88.9h-.9l-10.6 12.2-7.5-9-2.6 7.6-2.8-6.5-2.4 4.1-9.6-13.2-2.1 7-3.9-9.6-7.1 15.3-3.4-10.9L45 102.7l-4-9.4-13.8 7c3.8 8.4 9.7 16 17.5 22 25.8 19.9 62.7 15.1 82.6-10.6 1.3-1.7 2.5-3.4 3.6-5.2v-.2-.2c-.4-.3-.7-.6-1-1l.9 1.4-19.6-17.6zM32.8 92.5h-.3c-1.3 2.3-3.2 4.3-5.4 5.8-.1.5-.1.9-.1 1.4.1.1.1.2.2.4l5.6-7.6z"/><radialGradient id="a" cx="46.489" cy="87.71" r="48.334" gradientUnits="userSpaceOnUse"><stop offset="0" stop-color="#8bc540"/><stop offset="1" stop-color="#016535"/></radialGradient><path fill="url(#a)" d="M18.9 70.7c3.5-13.3 11.4-24.5 21.7-32.5 4.5-4.1 9.6-7.5 15.1-10.2-19.3 6.8-35 22.2-40.4 42.7-8.7 33 12.1 66.5 46.7 74.8 6 1.4 11.9 2 17.8 1.9-4.7-.1-9.4-.7-14.2-1.9-34.6-8.3-55.4-41.8-46.7-74.8z"/><path fill="#A8CFCE" d="M27 100.3l.2-.2c-.1-.1-.1-.2-.2-.4v.6c0-.1 0-.1 0 0z"/><radialGradient id="b" cx="80.782" cy="110.468" r="47.155" gradientUnits="userSpaceOnUse"><stop offset="0" stop-color="#a4cd39"/><stop offset=".405" stop-color="#8bc540"/><stop offset="1" stop-color="#6aad44"/></radialGradient><path fill="url(#b)" d="M27 100.3l.2-.2c-.1-.1-.1-.2-.2-.4v.6c0-.1 0-.1 0 0z"/><path fill="#A8CFCE" d="M44.8 122.3c-7.8-6-13.7-13.6-17.5-22l-.3.1c.2 16 25.1 35 53.1 35s50.7-12.9 50.9-28.9c-1.1 1.8-2.3 3.5-3.6 5.2-19.9 25.7-56.9 30.4-82.6 10.6z"/><radialGradient id="c" cx="80.782" cy="110.468" r="47.155" gradientUnits="userSpaceOnUse"><stop offset="0" stop-color="#a4cd39"/><stop offset=".405" stop-color="#8bc540"/><stop offset="1" stop-color="#6aad44"/></radialGradient><path fill="url(#c)" d="M139.6 79.2c-.6 9.4-3.4 18.8-8.6 27.2-1.1 1.8-2.3 3.5-3.6 5.2-19.9 25.7-56.9 30.5-82.6 10.6-7.8-6-13.7-13.6-17.5-22l-.3.1-.1.1.1-.2v-.1-.5c-2.9-6.5-4.6-13.4-5-20.3-1.1 18.8 6.8 37.8 22.8 50.1 25.7 19.9 62.7 15.1 82.6-10.6 9.1-11.7 13-25.9 12.2-39.6z"/><path fill="#002D3E" d="M27 100.3l-.1.1h.1l.2-.2L41 93.3l4 9.4 13.1-16.9 3.4 11 7.1-15.3 4 9.6 2.1-7 9.6 13.2 2.4-4.1 2.8 6.5 2.6-7.6 7.5 9 10.7-12.2.3-.5.6.5 19.7 17.6-.9-1.4-18.6-28.4-13.1 14-7.4-8.9-5.5 4-17-27-22.6 27.8-5-4.5-8 10.4-5.6 7.5zM59.2 23.5l-.2.1c-.6.2-.3.9-.2 1.4.2.4.4 1.1 1 .9l.2-.1.9 3.5c.1.5.3.4.5.4l1.1-.4c.3-.1.5-.3.6-.7l.3-3.6L74 22.2l1.4 16.6c.1.6.3.5.5.5l1.1-.4c.3-.1.6-.3.6-.8 1.9-9.4 2.2-10.9 3.7-18.4l8.3-3c3.7-1.4 5.3-4 5-4.7-.2-.7-3.1-1.7-6.9-.3l-8.3 3.1C73.4 10 72.2 9 64.7 3.1c-.4-.3-.7-.3-1-.2l-1 .1c-.2.1-.4.2-.1.6l9.6 13.6-10 4.8-2.5-2.6c-.3-.3-.6-.3-.9-.2l-1.1.4c-.2.1-.4.1-.1.6l1.6 3.3z"/></svg>