<svg xmlns:xlink="http://www.w3.org/1999/xlink"  xmlns="http://www.w3.org/2000/svg" viewBox="0 0 150 150"><path fill="#056CB5" d="M87.1 64c-.8 2.9-2 5.4-3.7 7.4C78.7 67 75.6 60.9 73 54.3c-3.4 2.7-5.2 7.2-5.9 12.6 4.3 9.3 15.4 15.8 20 22.3-2.2-2.3-4.7-4.2-8.1-5.2 2.6 1.6-5 5.8-1.5 1.5-4.8 2.7-2.8-.9-7.4.7.9-2.8 3.8-2.2 3.7-4.4-.1-3.3-10.2-4.6-7.4-6.7-2.1-.8-5.1 1.2-5.2 0 1.8-1.4 3.4-3.1 5.9-3.7-.8-2.6-1.6-5.3-3.7-6.7-5.4 9.9-15.8 14.9-25.6 20.4.2.5.5 1.1.7 1.6 9.1-4.7 18.7-9.1 24.1-17.6.7 1.9-3 5.8-5.2 7.4.1.9 1.3.6 2.2.7-5.8 4.4-13 7.5-21 9.8 1.3 2.9 2.6 5.8 4.1 8.6 7.5 14.4 17.7 28.2 31.8 36.6 13.5-8.1 23.4-21.1 30.8-34.8 0-.5.1-.9.1-.9h.3c.2-.3.4-.7.6-1 1.4-2.6 2.6-5.3 3.7-7.9-9.4-6-17.4-13.5-22.9-23.6zm-1.5 18.5c-5.9-3.5-7.4-11.4-11.1-17.1-.9-.1-1.3.2-1.5.7-1-.2-.6-1.9-.7-3-1.3-.1-1.6.9-3 .7 1-2 2-3.9 3-5.9 6.1 12.2 15.3 21.3 25.2 29.7-.5.7-6.5-5.6-11.9-5.1zm23 5.9c-7.3-2.6-17.5-8.7-20.8-17.8-.9-.1-1.3.2-1.5.7-2.1-1 .6-3.3.7-4.4 6.1 8.4 13 15.8 21.6 21.5z"/><path d="M74.7 142.1v-5c-15.8-9.5-27.2-24.9-35.6-41-1.6-3.2-3.1-6.4-4.6-9.7-.1-.1-.1-.3-.2-.4-.3-.6-.5-1.2-.8-1.8-4.8-11.3-8.3-23.2-10.7-35.3-1.1-6.6-2.2-13.2-2-19.8 17.4-1.4 33.9-7.5 50-13.6 1.2-.5 2.5-.8 3.8-1V9.8c-.6 0-1.1.1-1.7.4-15.5 5.6-31 12.1-47.6 14.1-2.8.2-5.5.4-8.2 1-.7 3.6-.6 7.2-.1 10.8.5 8.7 2.3 17.2 4.5 25.6 2.2 8.4 5 16.6 8.4 24.6 2.7 6.5 5.9 12.8 9.4 18.8.3.5.5 1 .9 1.6 4.1 6.8 8.9 13.3 14.3 19.2 5.9 6.3 12.6 11.9 20.2 16.2z"/><path fill="#056CB5" d="M127.8 61.7c2.2-8.4 4-16.9 4.5-25.6.4-3.6.6-7.2-.2-10.8-2.7-.6-5.5-.9-8.2-1-16.5-2-32-8.5-47.6-14.1-.5-.3-1.1-.4-1.7-.4v4.6c1.3.2 2.5.6 3.7 1 16.2 6.2 32.7 12.3 50 13.6.3 6.7-.9 13.3-2 19.8-2.5 13.2-6.6 26-12 38.3-1.3 3-2.7 6-4.2 8.9-.2.4-.4.8-.6 1.1-.2.3-.3.6-.5.9-8.3 15.4-19.3 29.9-34.4 39v5c6.4-3.6 12.1-8.2 17.3-13.4 3.3-3.3 6.5-6.9 9.3-10.6 2.8-3.6 5.4-7.4 7.7-11.3l.1-.1c1.7-2.9 3.3-5.8 4.8-8.7 1.5-2.8 2.8-5.7 4.1-8.5 4.1-9 7.4-18.3 9.9-27.7z"/><path fill="#231F20" d="M73.3 21.6l3.1 9.4h9.9l-8 5.9 3 9.4-8-5.8-8.1 5.8 3.1-9.4-8-5.9h9.9z"/><path fill="#056CB5" d="M48.4 33.3l2.3 7.2h7.5l-6.1 4.4 2.4 7.2-6.1-4.4-6.1 4.4 2.3-7.2-6.1-4.4H46zM98.2 33.3l2.3 7.2h7.5l-6.1 4.4 2.4 7.2-6.1-4.4-6.1 4.4 2.3-7.2-6.1-4.4h7.6z"/></svg>