<svg xmlns:xlink="http://www.w3.org/1999/xlink"  xmlns="http://www.w3.org/2000/svg" viewBox="0 0 150 150"><path fill="#C0D72F" d="M15.7 20.9c1.1-.5 2.3-1.4 3.6-.7 7.8 3 15.5 6.1 23.3 9.2 1.9-1.1 3.8-2 5.8-2.9.3 1.1.7 2.3 1.1 3.4-.8.5-1.7.9-2.5 1.4 1.1.1 2.3.4 3.4-.1 4.4-1.7 8.6-3.7 13.1-5.3 3.2-1.1 6.6-.7 9.8-.3-3.6 6.8-11.8 8.2-18.1 11.2-2.4.8-3.2 3.4-4.1 5.5 1.6-.7 3.3-1.3 4.9-2 .3 1 .7 1.9 1 2.9-2.1 1.4-4.7 2-7.1 2.6-1.5 3.4-1.9 7.8-5.1 10.1-.3-4.6-.7-9.2-2.8-13.3-4.9 1-9.5 2.8-14.4 3.7-.1 2.3 0 4.7-1.5 6.5-1.4-1.9-2.7-3.9-3.9-5.8-3.3 2.7-6.4 6.4-6.2 11-.2 6.1 4.4 10.8 8.8 14.2 9.5 7.1 20.6 11.7 31.7 15.7 20.5 7.3 41.7 11.9 63 16.2-4.7-.1-9.4-.1-14 .9-1.7.4-3.7 1-4.6 2.7-.5 1.7 1 3.2 2.1 4.3 3.6 3.3 8 5.5 12.3 7.7 9.4 4.6 19.1 8.3 29 11.6-2.5-.4-5-1.1-7.4-1.9-18.9-5.9-37.6-12.1-56.1-19-15-5.7-30-11.6-44-19.5-8-4.7-15.8-10.2-21.8-17.4-3.8-4.6-6.6-11.2-4-17 1.8-4.4 6.1-6.7 9.6-9.6.1-.3.2-1 .3-1.3-2.5-2.1-5.5-3.5-7.9-5.7 2.8-.2 5.6.7 8.2 1.7-.1-.8-.4-2.3-.6-3.1 2.8-.1 5.2 1.5 7.8 2.1 3-1 5.9-2.5 8.8-3.6-6-6.9-14.7-10.4-21.5-16.1z"/><path fill="#7F9AB7" d="M21.7 64.9C34 73.6 48.2 78.7 62.3 83.6c19.5 6.7 39.5 11.8 59.4 17.1-18.7-3-37.4-6.9-55.5-12.4-11.9-3.8-23.7-8.1-34.3-14.7-3.8-2.4-7.5-5.1-10.2-8.7zM10.4 76.5c5.1 4.2 10.2 8.3 15.7 11.8 14.8 11.2 32.4 17.6 49.7 23.9 15.8 5.8 31.8 11.3 48.1 15.6-7.2-.9-14.3-3-21.3-4.7-24.4-6.4-48.6-14.7-70.2-27.9-8.1-5.2-16.2-10.9-22-18.7z"/><path fill="#7F9AB7" d="M131.9 82.9c-.4-2.8-2.8-4.5-4.6-6.5-.1-1.2-.5-2.2-1.2-3.2-1.2-1.7-2.7-3.1-4.3-4.3-4.7-3.7-10-6.5-15.4-9.2 3.9 2.8 8 5.7 10.9 9.6 1.1 1.6 2.1 3.9.7 5.6-2 2.1-5.1 2.4-7.8 2.8-2.5.3-5.1.1-7.6.3l.1-.1c-3.2 0-6.3-.4-9.5-.6l-.2.2v-.2c-2.9-.4-5.7-.7-8.6-1.2-3.5-.6-7-1.2-10.5-2-2-.5-4.1-.9-6.1-1.4-2.2-.5-4.5-1.2-6.7-1.8-1.5-.4-2.9-1-4.4-1.4-2.2-1-4.8-1.5-6.6-3.3l.4-.1v-.2c.9-1.6 1.7-3.3 2.7-4.9h.1c.4-.6.7-1.1 1.1-1.7 1 .5 1.9 1 2.8 1.5h.1c1.4.7 2.8 1.4 4.2 1.9h.1c1 .5 2.1.8 3.2 1.2-.4.9-.7 1.8-.9 2.7-.3 1-.2 2.1-.2 3.2.9-1.8 1.7-3.6 2.7-5.3 2.2.6 4.3 1.3 6.5 1.7 1.8.4 3.6.8 5.4 1.1 3.9.6 7.8 1.1 11.8 1.1-.5 2.6-1.5 5-2.7 7.3 2.6-1.6 3.9-4.5 4.8-7.3 2-.2 4-.2 5.9-.6 1.6-.3 3-1.4 4.2-2.4-3.1.8-6.3 1-9.4 1l.6-3.3c.2-1.3.3-2.6.4-3.9 0-.4.1-.8.1-1.2 1.3.1 2.7.3 4 .3-1.2-.8-2.5-1.4-3.7-2.1l-.3.1c-.1-.6-.1-1.3-.2-1.9h.1c0-.4.1-.9.1-1.3 1.4 1.5 3.2 2.7 4.5 4.3 4.1 4.5 6.5 10.4 7.3 16.4.3 0 1 .1 1.3.1-.8-9.3-6-18.1-13.8-23.3-3.2-2.1-6.9-3.6-10.6-4.5-3.7-.8-7.5-.9-11.3-.3-4 .6-7.9 2.1-11.4 4.1v.1c-4.7 2.7-8.5 6.8-11.1 11.5h-.1c-.9 1.8-1.8 3.6-2.3 5.5h-.1c-.5 1.8-.9 3.6-1.2 5.4.4.2.8.5 1.2.7 1.5.9 3.1 1.7 4.7 2.5 1.8.8 3.6 1.7 5.5 2.4 1.9.9 3.9 1.6 5.9 2.4 2.6 1 5.2 2 7.9 2.8 3.4 1.1 6.9 2.3 10.4 3.3 3.2.9 6.5 1.8 9.7 2.6 3.2.7 6.4 1.5 9.7 2 3.2.6 6.3 1 9.5 1.2 2.6.2 5.2.3 7.9.1 4.1-.3 8.4-1 11.7-3.7 1.8-1.4 3.3-3.5 2.6-5.8zM57.5 56.2c1.4-1.7 3.3-2.9 5.2-4.1 1.3-.7 2.6-1.3 4-1.9 1 .5 1.9.9 2.9 1.3.9.4 1.9.8 2.8 1.2-.3.4-.7.7-1 1.1-1.1 1.2-2.2 2.4-3.1 3.7-.6.9-1.1 1.7-1.7 2.6l-3-1.2c-2.1-.7-4.1-1.7-6.1-2.7zm33.3-4.8l.3 3.3v.8c-1.7-.4-3.3-.9-5-1.4-2.1-.7-4.2-1.4-6.2-2.2-.3-.1-.8-.3-1.1-.4 1.4-1.1 3-1.9 4.6-2.7 2.5.6 5 1.4 7.4 2.6zm-15.3-1.3l-1.2-.6c-.5-.3-1-.5-1.5-.8 1.7-.4 3.5-.4 5.2-.3-.9.5-1.7 1.1-2.5 1.7zm15.7 7.6v2c0 1.4-.1 2.8-.2 4.2l-.3 2.4c-2.6-.3-5.2-.6-7.8-1.1-1.5-.3-3.1-.7-4.6-1.1-2.1-.6-4.2-1.1-6.3-1.8-1.1-.3-2.1-.8-3.2-1.2 1-1.2 2-2.5 3.1-3.7 1.1-1.2 2.4-2.3 3.5-3.5 2.4.8 4.8 1.5 7.2 2.1 2.6.6 5.1 1.2 7.8 1.5.1 0 .6.1.8.2zm30.7 27.4c-3 1.4-6.2 2.1-9.5 2.4-3.2.3-6.4.2-9.6 0-3.2-.3-6.4-.7-9.6-1.3-3.3-.6-6.6-1.5-9.9-2.4-3.6-1-7.1-2.2-10.6-3.6-2.1-.8-4.2-1.6-6.3-2.5-1.9-.8-3.7-1.6-5.5-2.4-1.6-.7-3.1-1.4-4.6-2.2-.6-.3-1.3-.6-1.9-1 1.6.6 3.1 1.2 4.7 1.8 1.9.7 3.9 1.3 5.8 1.9 2.1.6 4.1 1.2 6.2 1.8 3.4.9 6.9 1.8 10.3 2.5 2.8.6 5.7 1.1 8.6 1.6 3.2.5 6.4 1 9.6 1.2 2.6.2 5.2.4 7.9.4 5.1 0 10.5-.2 15.3-2.2.8-.4 1.5-.7 2.3-1.1.9 2.3-1.3 4.1-3.2 5.1z"/></svg>