<svg xmlns:xlink="http://www.w3.org/1999/xlink"  xmlns="http://www.w3.org/2000/svg" viewBox="0 0 150 150"><path fill="#028C90" d="M86.5 31.4c5.6 6.8 9.6 5.5 19.8 4.9 5.6-.3 14.4.5 20.1 1.7C114.8 22.3 96.1 12.1 75 12.1c-2.7 0-5.4.2-8 .5 6.4 5.2 16.2 14.8 19.5 18.8zM72.6 130.5c-3 2.5-7.6 5.4-11.9 7.8 4.7 1.1 9.5 1.7 14.5 1.7 14.9 0 28.7-5.1 39.6-13.7-8.1-.7-18.8-2.3-23.2-3.4-8.6-2.3-11.1 1.1-19 7.6zM45.3 35.2c1.5-5.6 5.2-14.2 8.1-19.3-21.1 7.6-37 25.9-41.1 48.4 7-4.4 17.7-10 22.2-11.7 8.2-3.2 8.2-7.5 10.8-17.4zM120.9 95.7c2 5.2 3.9 13.8 4.6 19.7C134 104.5 139 90.9 139 76.1c0-10.2-2.4-19.8-6.6-28.3-2 6.7-9.7 22.5-13 27.5-4.7 7.4-2.2 10.8 1.5 20.4zM25.6 92c-4.3-2.8-10.3-7.9-14.3-12.1 1.3 21.9 13.6 40.7 31.4 51.2-1.9-8-3.7-19-4-23.5-.4-8.7-4.5-10-13.1-15.6z"/><path fill="#022838" d="M63.1 13.3c4.3 7.3 17.1 27.9 19.4 31.5 2.5 3.9 2.7 6.5 10.5 5 7.3-1.4 27.3-6 35.9-8.2.6-.2 1.2-.3 1.7-.5 3.4-.9.7-2.1-4.2-3.1-5.7-1.1-14.6-2-20.1-1.7-10.3.6-14.3 1.9-19.8-4.9-3.3-4-13.1-13.6-19.5-18.8-4.4-3.6-7.1-5-4.8-.9.3.5.6 1 .9 1.6zM122.7 124.4c-.9-.4-2.2-1-3.9-1.7-9.2-3.9-28.3-11.6-32-13.1-4.3-1.7-6-3.6-11.4 2.1-4.4 4.7-15 16.9-21.5 24.6-1.6 1.9-2.9 3.5-3.8 4.6-2.9 3.7 3.4 1.3 10.5-2.7 4.3-2.4 8.9-5.3 11.9-7.8 8-6.5 10.4-9.9 18.9-7.7 4.3 1.1 15.1 2.8 23.2 3.4 7.8.8 13.2.6 8.1-1.7zM44.3 89c-6.5-3.1-24.4-10.7-33.1-14.1-.9-.4-1.8-.7-2.5-1-3.6-1.3-1.5 1.8 2.6 6 4 4.2 10 9.3 14.3 12.1 8.6 5.6 12.7 6.8 13.2 15.6.3 4.6 2.1 15.6 4 23.5 1.7 7.4 3.5 12.1 4.2 6.6.1-.9.2-2.4.4-4.2.9-9.9 2.3-30.6 2.6-34.5.2-4.5 1.5-6.7-5.7-10zM120.9 95.7c-3.7-9.6-6.2-13-1.4-20.4 3.3-5.1 10.9-20.8 13-27.5.8-2.8.7-4-1.2-2.3l-.6.6c-4.2 4.5-22.2 25.9-25.2 29.5-3 3.6-5.3 4.6-1.5 11.5 3.5 6.4 14 23.9 18.8 31.4.4.6.8 1.2 1.1 1.7 1.9 2.9 2.2 0 1.7-4.9-.8-5.8-2.7-14.4-4.7-19.6zM11.6 68.9c9.3-2.2 30.5-7.5 34.4-8.4 4.5-1.1 7-.6 8-8.5 1-7.5 2.8-28.8 3.2-37.3 0-.4 0-.8.1-1.2.1-3.3-1.6-1.5-3.9 2.4-2.9 5.1-6.6 13.7-8.1 19.3-2.6 9.9-2.6 14.2-10.8 17.4C30 54.3 19.3 60 12.3 64.3c-5.8 3.6-9 6.4-3.9 5.3.7-.1 1.8-.3 3.2-.7z"/><path fill="#DFAB26" d="M82.9 61.1c4.5-.8 17.3-3.8 21.5-5 4.2-1.2-8-3-13.9-2.7-5.9.3-8.2 1.1-11.3-2.8-3.2-3.9-17.1-16.9-13.9-11.2 1.7 3 10.2 16.6 11.6 18.8 1.4 2.3 1.5 3.7 6 2.9zM71.2 107.1c4.5-3.7 5.9-5.7 10.8-4.4 4.9 1.3 23.7 3.6 17.8.9-3.2-1.5-18-7.4-20.5-8.4s-3.4-2.1-6.5 1.2-11.7 13.3-14.4 16.7c-2.7 3.4 8.2-2.2 12.8-6zM44.4 85.2c4.9 3.2 7.2 3.9 7.5 8.9.3 5 3.9 23.7 4.6 17.2.4-3.5 1.5-19.4 1.7-22.1.2-2.6.9-3.9-3.2-5.8-4.1-1.9-16.2-7.1-20.3-8.6-4-1.5 4.8 7.2 9.7 10.4zM104.3 59C102 61.6 91.7 73.8 90 75.8c-1.7 2-3 2.6-.9 6.6s9 15.3 11.4 18.9c2.4 3.6.4-8.6-1.7-14-2.1-5.5-3.5-7.4-.8-11.6 2.7-4.3 10.8-21.5 6.3-16.7zM56.1 67.2c2.6-.6 4-.3 4.6-4.8.6-4.5 1.7-17.6 1.9-22 .2-4.3-5.3 6.7-6.8 12.4s-1.5 8.1-6.1 9.9c-4.7 1.8-21.3 11-14.9 9.7 3.2-.7 18.7-4.6 21.3-5.2z"/></svg>