<svg xmlns:xlink="http://www.w3.org/1999/xlink"  xmlns="http://www.w3.org/2000/svg" viewBox="0 0 1000 1000"><path fill="#00B7E4" d="M540.2 560l39.7 30.2c1.3-3.2 2.6-6.7 2.2-7.6-.7-1.8-1.4-15.8-1.4-15.8s1.1-22.7-2.2-27c-3.2-4.3-6.8-18.7-7.2-20.9-.4-2.2-7.9-15.8-7.9-15.8L541 516.2l-.8 43.8z"/><path fill="#009D77" d="M814.3 642.2l-97-50.5 24.2 43.9-58.8-32.8-37.3 37.3 91.2 69.4-346.1-172.4-201.8 156.1 141.4-195.5L109 695.9v37.3c0 93.6 74.4 167.8 168 167.8h468.8c93.6 0 167.2-74.2 167.2-167.8v-79.9L750.1 561l64.2 81.2z"/><path fill="#00B7E4" d="M745.8 97H277c-93.6 0-168 73.8-168 167.4V548l225.9-144.8 175.2 133.6c1.5-6 2.5-10.7 2.7-11.8.7-3.6 1.4-14 2.4-16.9 1.1-2.9 9.3-9 9.3-9s11.2-9 14.2-11.4l1-35.9c-4-2.3-11.4-2.8-8.7-8.8 2.9-6.5 10.1-13.7 13.7-13.7 3.6 0 2.9 4.3 2.9 4.3l2.5 3.6s.7-12.6 0-16.2c-.7-3.6 6.8-8.6 7.6-10.1.7-1.4-1.8-4.3-4.7-3.2-2.9 1.1-8.3-4-8.3-4l-12.9-11.9c-2.5-2.5 2.5-12.2 7.2-16.5 4.7-4.3 19.4-10.8 23.4 1.1s4 20.1 4 21.6c0 1.4 4 6.5 4 6.5s7.2.4 10.8 0c3.6-.4 6.8 5 6.8 5l1.1-.4s11.9-2.9 22.3-2.5c10.4.3 7.6 26.2 7.6 26.2l.4 6.1s.7 4.7.7 6.8c0 2.2.7 10.8.7 11.9 0 1.1-1.3 11.5-1 14.4.4 2.9-.6 5.4-.6 5.4v5l-.8 1.8-.2-5.4s-6.6 4-12 10.8c-5.4 6.8-9.6 6.5-9.6 6.5s-.3 16.2-.3 18.3c0 2.2.4 18.7 2.9 20.5 2.5 1.8 1.5 8.3 1.5 8.3s0 21.9.4 26.3c.4 4.3-1.4 13.3-1.4 13.3l-1.8 19.4-2.9-.9 7.4 5.6 133.5-114.1L913 633.9V264.4C913 170.8 839.4 97 745.8 97z"/><path fill="#00A9DE" d="M537.1 518.5s-7.5 26.3-8.2 32.8l8 6.1L538 518l-.9.5z"/><path fill="#00B7E4" d="M559.8 469.3c-1.4 0-5.4-10.8-5.4-10.8s-7.7-2.5-12.1-5l-.7 32.3c4-2.2 11.2-5.5 12-7.2 1.1-2.1 7.6-9.3 6.2-9.3z"/></svg>