<svg xmlns:xlink="http://www.w3.org/1999/xlink"  xmlns="http://www.w3.org/2000/svg" viewBox="0 0 1000 1000"><path fill="#333D00" d="M756.3 507.2c-134.5 16.1-70 134.5-26.9 107.6 64.6-48.4 215.2 75.3 86.1 145.3-129.1 70-226-129.1-392.8-139.9-166.8-10.8-247.5 193.7-247.5 193.7 139.9-150.7 328.2 16.1 565 0 236.7-16.2 150.6-322.9 16.1-306.7zM425.3 789c-143.3-40.4-215.9 30.3-215.9 30.3 104.9-32.3 175.6 26.2 341 60.5 165.5 34.3 262.3-66.6 262.3-66.6-108.9 62.5-244.1 16.1-387.4-24.2z"/><path fill="#E7CF1C" d="M368.8 380.7c-117.4 0-212.5 95.2-212.5 212.5 0 50.1 17.3 96 46.3 132.4 5-8.1 11.3-17.5 19.2-27.5-9.2-17.7-14.4-37.8-14.4-59.1 0-71.3 57.8-129.1 129.1-129.1 58.8 0 108.4 39.4 124 93.2 47.6 6.2 87.5 23.6 114.4 42.3 4.2-16.7 6.5-34.1 6.5-52.1 0-117.4-95.2-212.6-212.6-212.6zM115.9 741.2l56.5-8.1-18.8-29.6-37.7 37.7zm8.1-147.9l-43 32.2 51.1 10.8-8.1-43zm32.3-113H89l48.4 43 18.9-43zm75.3-80.8l-67.3-35 26.9 67.3 40.4-32.3zm72.7-113l-18.8 78 48.4-5.4-29.6-72.6zm161.4-8l-53.8 72.6 48.4 18.8 5.4-91.4zm156 88.8l-96.9 29.6 35 43 61.9-72.6zm-26.9 134.5l13.5 61.9 96.9-69.9-110.4 8z"/><path fill="#E7CF1C" d="M770.2 294.8l-3.2-27.1s41.7 35.5 49.7 79.3l8.1-41.4s35.8 28.2 34.5 78.9c0 0 34.3-76.2-1.2-114.6l21.5-7.6s-25.5-33.1-69.4-20c0 0 12.5-15.9 24.7-16.6 0 0-54.3-18.1-111.2 21.1 10.1-16.7 31.4-41.4 68-38.4l-37.3-10s46.5-34.3 77.4-16.3L812 161.3s42.6-42.5 92.6-16c0 0-65.3-64.5-112.7-32.2l1.8-33.4s-61.5 28.9-50.5 73.8l-16.4-34.9s-49.8 30-18.1 123.2c-.6-.1-1.1-.1-1.6-.2-24.3-69.2-67.4-75.2-67.4-75.2l14 31.7c-44.5-43.5-108.6 7.2-108.6 7.2l24.7 7.5C507.5 234.5 513 324.9 513 324.9c16.6-39.4 46.6-44 46.6-44l7.2 33.8c2.6-43.4 67.6-61.5 67.6-61.5l-3.9 41.6c15.5-30.4 49.2-36.8 68-37.9.1.9.3 1.9.5 2.9-42.6 18.3-64.5 67.3-64.5 67.3l29.8-16.5c-28.5 45.9-13.3 88.9-13.3 88.9l16.8-22.9c-1.2 50.6 49.5 89.4 49.5 89.4l8.4-94.1 37 20.2-43.9-67 31.3 2.8-1.8-3.6c72.5 83.2 204.1 265.1 134.2 424.8.2.2 134.1-177.6-112.3-454.3z"/></svg>