<svg xmlns:xlink="http://www.w3.org/1999/xlink"  xmlns="http://www.w3.org/2000/svg" viewBox="0 0 150 150"><path fill="#589D44" d="M75.4 27.9l1 3-4.4-1.6 2.8 3.9h-6.2l1.9 1.5-5.6 2 1.9 2.1-11 5.6 22.6 1.5 4 12.9L76 51l-4.6 2.8-2.2-5.3-3 1.9-3.2-2.5-2.7.7-5.8-1.7.1 5.1-1.5-.3.8 4.5-1.7-.2 1.3 5.4-1.7.1.5 3.6-2.6-1.9 4.2 11.5-9-12.8 7.7-14.4-3.6 2.1-5.7.6-1.4 2-5.1.4-1.1 3.5-2.2-2.2-2.8 6.3-1.8-4.1-1.5 14.5-.9-18.6 23.4-6.2-11 1 .4-2.9-5.7 1.6.8-2.2-5.2 3.3.1-4.8-2.7 3.8-.8-3.2-6.6 5.6 6.6-12.8c4 1.4 7.9 2.8 11.8 4.2 3.9 1.4 7.8 2.9 11.7 4.4L47 39.3l-2.9.9-1.4-4.2-2 .6-2.2-4.5-5.5 5.5-.8-.2 4.9-9.9 16.6 16-1.5-18.9L64.4 18 56 25.5l3.1-.2-3.9 5.8 2.9 1-2.2 7 1.7.5-1.2 2.5 14.9-20.3 12.5 6.8-8.4-.7z"/><path fill="#69472C" d="M72.7 108.4c.8-5 4.5-15.7-1.3-32.6-1.9-5.4-3.6-10.3-6.5-15.2-3-4.9-5.8-9.3-8.7-13.1l-.5-2.7c1.8 1.4 3.5 3.2 5.2 5.5 1.7 2.2 3.2 4.3 4.5 6.1 2.3 3.4 4.6 7 7 11 2.4 4 4.5 8.1 6.4 12.3 1.9 4.3 3.4 8.6 4.5 12.9 1.1 4.4 1.6 8.6 1.4 12.7l-12 3.1z"/><path fill-rule="evenodd" clip-rule="evenodd" fill="#30ACA4" d="M70.4 111.3c15.2 3 31.7-19.3 42.8 1.3 13.5 25.2 39.6 9 29.1-15.1-5.7-13.1-20.8-17.9-33.2-14.2-15.5 4.6-22.1 26.3-38.7 28zM89.3 95.3c4.8-5.2.1-17.1 10.8-16.5 13.1.8 13.1-13.4 1.1-15.1-6.5-.9-12 3.8-13.6 9.6-1.9 7.3 5 15.1 1.7 22z"/><path fill-rule="evenodd" clip-rule="evenodd" fill="#30ACA4" d="M87.6 112.9c3 2.2 8.9-.9 9.1 4.8.3 6.8 7.6 6.1 7.9-.2.1-3.4-2.6-6-5.7-6.5-3.9-.8-7.6 3.2-11.3 1.9z"/><path fill-rule="evenodd" clip-rule="evenodd" fill="#7CCED0" d="M73.1 108.5c-8.5-.5-14.2-14.7-22.9-5.3-10.7 11.5-22.3-.7-13.4-12.1 4.9-6.2 13.6-6.6 19.7-2.9 7.6 4.6 8 17.1 16.6 20.3z"/><path fill-rule="evenodd" clip-rule="evenodd" fill="#7CCED0" d="M70.1 113.5c-5.7 4.1-16.7-2.1-17.5 8.5-.9 13-14.8 11.1-14.9-.9-.1-6.5 5.3-11.3 11.2-12.1 7.3-.9 14 6.9 21.2 4.5zM34.5 90.4c-4.1-.1-7.1-6.9-11.2-2.2-5 5.7-10.8 0-6.7-5.7 2.3-3.1 6.5-3.4 9.5-1.7 3.8 2.1 4.2 8.1 8.4 9.6z"/><path fill-rule="evenodd" clip-rule="evenodd" fill="#30ACA4" d="M44 109.8c-7.9 1.6-16.4-10-22.2.7-7 13.1-20.5 4.7-15.1-7.9 2.9-6.8 10.8-9.3 17.2-7.4 8 2.4 11.4 13.6 20.1 14.6z"/></svg>