<svg xmlns:xlink="http://www.w3.org/1999/xlink"  xmlns="http://www.w3.org/2000/svg" viewBox="0 0 1000 1000"><path fill="#00ADD2" d="M320.7 716.2c127.5 93.7 320.3 2.6 320.3 2.6C415.1 765.4 296.4 595 265.5 587c-30.9-8-72.2 35.6 55.2 129.2z"/><path fill="#0193D7" d="M867.7 318.9c-35.2-45.7-79.3-80.6-128-104.2 6.2 6.8 12.2 13.8 17.9 21.2 114.3 148.3 86.7 361.2-61.7 475.5-134.6 103.7-322.3 90.5-441.3-23.6 11.2 24.6 25.3 48.3 42.5 70.6C418.5 916 644.6 945.3 802.2 823.9c157.5-121.2 186.9-347.4 65.5-505zM585 817.2c-30.9 7.3-51.4 9.6-51.4 9.6 18-2.8 35.1-6.1 51.4-9.6 132.3-31.4 455.2-155.2 175.6-586.8.1 0 390.4 465.6-175.6 586.8zM219.4 612.9s-90.8-141-116.2-94.9c-25.3 46.1 89.5 50.7 116.2 94.9z"/><path fill="#00B3E6" d="M585 817.2c-16.3 3.5-33.4 6.7-51.4 9.6.1.1 20.6-2.2 51.4-9.6zM253.8 733.6C172.6 543.3 74.1 597.8 62.2 631.3c-12 33.5-2.2 115.2 102.4 71.4 0 0 161.1 303.9 425.2 218.9-.1 0-254.8 2.3-336-188zM760.7 230.4c279.6 431.6-43.3 555.4-175.6 586.8C1151 696 760.7 230.4 760.7 230.4z"/><path fill="#69D8DE" d="M248 504.6l110.4 130.2c11.4 6 22.4 11.2 33.1 15.9 180.9 80.5 254.2-3.6 254.2-3.6l3-7.5 5.1-12.8.1-.3c-.7-.8-1.5-1.5-2.3-2.3-46.5-43.1-285.9-98.4-374.8-117.8-1.8-.4-3.5-.8-5.1-1.1-8.3-1.8-14.9-3.2-19.7-4.2-5.5-1.2-8.5-1.8-8.5-1.8l4.5 5.3z"/><path fill="#00818C" d="M425.8 516.3l-.9 4.1-.6 2.8-.1.7 143.6 45.2-.6-3.1-.8-4-.3-1.7-67-338.3-5.2-26.4-5.6 26.6z"/><path fill="#FF9952" d="M663.2 649.9c75.7-46.1 126.2-129.4 126.2-224.5 0-145.1-117.6-262.7-262.7-262.7-8.4 0-16.7.4-25 1.2l80.9 403.9c38.1 14.1 67.8 28.6 80.3 42.1l-9.2 16.8-5.1 12.8 14.6 10.4zM222.7 400l-64.1 14.6 64 35.3zM245.5 285.4l-65-10.6 46 56.8zM270.8 484.2c30.8 6.6 83.4 18.2 140.5 32.7l74.5-351c-125.6 19.7-221.7 128.4-221.7 259.5 0 20.3 2.3 39.9 6.7 58.8zM313.8 196.2l-56.1-34.4 21.1 70zM767 137.9l-69.4 22.9 36.5 34.1zM644 67.9l-55.7 47.4 46.7 17.8zM366.8 81.2l-6.7 72.8 45.8-19.8zM503.7 45.4L470 110.2l49.9-1z"/></svg>