<svg xmlns:xlink="http://www.w3.org/1999/xlink"  xmlns="http://www.w3.org/2000/svg" viewBox="0 0 150 150"><path fill="none" d="M83.6 49.9c-.1.4-.1.8-.3 1.2.3-1.1.4-2.3.4-3.5 0-.8-.1-1.5-.2-2.2 1.9-.1 26-2.1 27-2.2 1.1-.1.9-1.1-.1-1.1-.9 0-26.5 1.1-27.5 1.1-1-3.1-3-5.4-5.4-6.1-.1-3.1-.9-20.9-.9-21.6 0-.6-.4-.6-.6-.6v.2-.2c-.2 0-.6 0-.7.6 0 .8-1 18.7-1.1 21.6-2.5.7-4.5 3-5.5 6.1-2.6-.1-26.4-1.4-27.3-1.4-1 0-1.1 1-.1 1.1 1 .1 24.3 2.2 26.9 2.4-.1.7-.2 1.4-.2 2.2 0 .8 0 1.5.2 2.3-3.9-.5-33.5-4.4-47.2-6.2-.4.7-.8 1.3-1.2 2 .9.1 1.9.3 2.8.4-.1.4-.2 1.2-.2 1.3-2 .3-3.5 2-3.5 4.1 0 2.3 1.9 4.2 4.2 4.2 2.3 0 4.2-2.1 4.2-4.4 0-2-1.4-3.3-3.3-4.3h.1s-.1-.5-.1-1v.1c7.9 1.1 16 2.4 21.2 3.2-.1.4-.1.9-.1 1-2 .3-3.5 2-3.5 4.1 0 2.3 1.9 4.2 4.2 4.2 2.3 0 4.2-1.9 4.2-4.2 0-2-1.4-3.7-3.3-4.1h.2v-.8s.2.1.4.1c.6.1.9.2 1.4.2 3.8.6 8.2 1.7 11.2 2.8l.4 7.3h-.2v-.9c0-.3-.3-.6-.6-.6s-.6.2-.6.5v1.9c0 .3.3.6.6.6.4 0 .6-.3.6-.6v-.8h1.4v.8c0 .3.3.6.6.6.4 0 .6-.2.6-.5v-1.9c0-.3-.3-.5-.6-.5s-.6.4-.6.7v.9l-.4-.2L61 53c4 1 5.8 1.9 5.8 1.9s.6.7 2.2 1.9c.8.6 2 .7 3 .7v2.6h-.2v-.8c0-.3-.3-.6-.6-.6s-.6.2-.6.5v1.9c0 .3.3.6.6.6s.6-.3.6-.6v-.8h1.4v.8c0 .3.3.6.6.6.4 0 .6-.2.6-.5v-1.9c0-.3-.3-.5-.6-.5s-.6.4-.6.7v.8H73v-2.9h6v2.5l-.3.1v-.8c0-.3-.3-.6-.6-.6s-.6.2-.6.5V61c0 .3.3.6.6.6.4 0 .6-.4.6-.7V60l1.4.1v.9c0 .3.3.6.6.6.4 0 .6-.2.6-.5v-1.9c0-.3-.3-.5-.6-.5s-.6.4-.6.7v.8l-.1-.3v-2.5c1 0 2.1-.1 2.9-.7 1.7-1.2 2.4-1.8 2.4-1.8s1.7-.8 5.7-1.8l-.2.1-.2 6.8H90v-.9c0-.3-.1-.5-.4-.5-.3 0-.5.2-.5.5V61c0 .3.1.6.4.6.3 0 .5-.2.5-.5 0 0 .2-.2.2-.4 0-.1.2-.2.2-.3H92V60h-.1v.9c0 .3.3.6.6.6.4 0 .6-.2.6-.5v-1.9c0-.3-.2-.5-.6-.5-.3 0-.6.2-.6.5v.7H91.6l.2-7h.2c3-1 7.6-2.1 11.3-2.7.6-.1 1.2-.2 2.1-.3v.1c0 .4-.1.7-.1.7h.1c-1.9.4-3.3 2.1-3.3 4.1 0 2.3 1.9 4.2 4.2 4.2 2.3 0 4.2-1.9 4.2-4.2 0-2.1-1.5-3.8-3.5-4.1 0-.1-.1-.5-.1-.9v-.1c5.2-.7 13.4-1.9 21.3-3v.1c0 .5-.1 1.3-.1 1.3h.1c-1.9 0-3.3 2-3.3 4 0 2.3 1.9 4.2 4.2 4.2 2.3 0 4.2-1.9 4.2-4.2 0-2.1-1.5-3.8-3.5-4.2 0-.1-.1-1-.2-1.4.7-.1 1.3-.2 1.9-.3-.4-.8-.9-1.5-1.3-2.2-13.3 1.7-43.9 5.7-46.6 6zm-7.4-13.1V25.9v10.9z"/><path fill="#73CAC5" d="M104.9 120.5l-9.7-12.2-3.4 10.2-3.6-8.7-3.2 5.5-12.5-17.7-2.7 9.4-5.1-12.9-9.2 20.5L51 100l-17.1 22.7-5.2-12.7-6.7 3.5C33.6 130.7 53.2 142 75.4 142c22.6 0 42.4-11.7 53.9-29.3l-10-9.3-14.4 17.1z"/><path fill="#7F331A" d="M103.2 106.5l-9.6-12-7.2 5.4-22.1-36.2-29.4 37.4-6.5-6.2-9.6 13.1c1 1.9 2.1 3.7 3.3 5.5l6.7-3.5 5.1 12.7L51 100l4.4 14.7 9.2-20.5 5.1 12.9 2.7-9.4L85 115.4l3.2-5.5 3.6 8.7 3.4-10.2 9.7 12.2 14.3-17.1 10 9.3c1.2-1.8 2.3-3.7 3.3-5.6l-12.2-19.4-17.1 18.7z"/><path fill="#FBBF15" d="M129.4 46.5c.1.4.2 1.2.2 1.4 2 .3 3.5 2.1 3.5 4.1 0 2.3-1.9 4.2-4.2 4.2-2.3 0-4.2-1.9-4.2-4.2 0-2 1.4-4 3.3-4h-.1s.1-.8.1-1.3v-.1c-7.9 1.1-16 2.2-21.3 3 0 .4.1.8.1.9 2 .3 3.5 2.1 3.5 4.1 0 2.3-1.9 4.2-4.2 4.2-2.3 0-4.2-1.9-4.2-4.2 0-2 1.4-3.7 3.3-4.1h-.1s0-.3.1-.7v-.1c-.8.1-1.4.2-2 .3-3.8.5-8.3 1.7-11.3 2.7h-.2l-.1 7H91.9V59c0-.3.2-.5.6-.5.3 0 .6.2.6.5v1.9c0 .3-.3.6-.6.6s-.6-.4-.6-.7v-.9h.1v.3h-1.5c0 .1-.2.2-.2.3 0 .2-.2.4-.2.4 0 .3-.1.5-.4.5-.3 0-.5-.3-.5-.6l.1-1.9c0-.3.1-.5.4-.5.3 0 .5.2.5.5v.9H90.8L91 53l.2-.1c-4 1-5.8 1.8-5.8 1.8s-.6.6-2.3 1.8c-.8.6-2 .7-3 .7v2.5l.2.1V59c0-.3.3-.6.6-.6s.6.2.6.5v1.9c0 .3-.3.5-.6.5s-.6-.3-.6-.6V59.9l-1.6.1v.8c0 .3-.3.6-.6.6s-.6-.2-.6-.5V59c0-.3.3-.5.6-.5s.6.4.6.7v.8l.2-.1v-2.5h-6L73 60h.2v-.8c0-.3.3-.6.6-.6s.6.2.6.5V61c0 .3-.3.6-.6.5-.4 0-.6-.3-.6-.7V60h-1.4v.8c0 .3-.3.6-.6.6-.4 0-.6-.2-.6-.5V59c0-.3.3-.5.6-.5s.6.4.6.7v.8h.2v-2.6c-1 0-2.1-.1-2.9-.7-1.7-1.2-2.4-1.9-2.4-1.9S65 54 61 53l.2 6.8.4.2v-.9c0-.3.3-.6.6-.6s.6.2.6.5v1.9c0 .3-.3.5-.6.5-.4 0-.6-.3-.6-.6V60h-1.4v.8c0 .3-.3.6-.6.6-.4 0-.6-.2-.6-.5V59c0-.3.3-.5.6-.5s.6.4.6.7v.9h.2l-.4-7.4c-3-1-7.5-2.2-11.3-2.8-.5-.1-.8-.2-1.4-.2-.2 0-.3-.1-.3-.1v.8h-.1c1.9.4 3.2 2.1 3.2 4.1 0 2.3-1.9 4.2-4.2 4.2-2.3 0-4.2-1.9-4.2-4.2 0-2.1 1.5-3.8 3.5-4.1 0-.1.1-.6.1-.9-5.2-.8-13.4-2-21.2-3.2v-.2c0 .5.1 1 .1 1h-.1c1.9 1 3.3 2.3 3.3 4.3 0 2.3-1.9 4.3-4.2 4.3-2.3 0-4.2-1.8-4.2-4.2 0-2.1 1.5-3.8 3.5-4.1 0-.1.1-.9.2-1.3-.9-.1-1.9-.3-2.8-.4-5.5 9.5-8.7 20.5-8.7 32.2 0 10.9 2.7 21.2 7.5 30.2L28.3 95l6.5 6.2 29.4-37.4L86.5 100l7.2-5.4 9.6 12 17.1-18.9 12.2 19.4c4.5-8.8 7.1-18.7 7.1-29.3 0-11.5-3-22.3-8.3-31.6-.7.1-1.3.2-2 .3zM76.2 36.8V25.9v10.9z"/><path fill="#FBBF15" d="M68.2 47.5c0-.8.1-1.5.2-2.2-2.6-.2-25.9-2.4-26.9-2.4-1.1-.1-.9-1.1.1-1.1.9 0 24.7 1.2 27.3 1.4 1-3.1 3.1-5.4 5.5-6.1.1-2.8 1.1-20.8 1.1-21.6 0-.7.5-.6.7-.6v.2-.2c.2 0 .5 0 .6.7 0 .8.8 18.5.9 21.6 2.4.7 4.4 3 5.4 6.1 1 0 26.5-1.1 27.5-1.1s1.1 1 .1 1.1c-1 .1-25.2 2.1-27 2.2.1.7.2 1.4.2 2.2 0 1.2-.1 2.4-.4 3.5l.3-1.2c2.7-.3 33.3-4.2 46.4-5.9-11.3-18.2-31.5-30.3-54.5-30.3-22.9 0-42.9 12-54.3 30L68.6 50c-.3-1-.4-1.8-.4-2.5zM14.6 42.8c-4.9-.6-9.4-1.5-9.4-.2 0 1.2 7.4 2 14.8 3 .4-.7.8-1.3 1.2-2-3.3-.4-5.7-.7-6.6-.8z"/><path fill="#FBBF15" d="M143.5 43.2c0-1.2-3.1-.4-8 .1-.8.1-2.8.3-5.5.7.5.7.9 1.5 1.3 2.2 7.1-1 12.1-1.9 12.2-3z"/></svg>