<svg xmlns:xlink="http://www.w3.org/1999/xlink"  xmlns="http://www.w3.org/2000/svg" viewBox="0 0 1000 1000"><path fill="none" d="M90.4 615.2zM809.3 409.9c-4.1 3.8-8.2 7.7-12.4 11.5 4.3-3.9 8.4-7.7 12.4-11.5zM777.2 438.8c-4 3.4-7.9 6.8-12 10.2 4-3.5 8-6.8 12-10.2zM824.3 395.4c-4.1 4-8.2 8-12.4 12 4.2-3.9 8.3-7.9 12.4-12zM760.1 453.1c-3.9 3.2-7.7 6.3-11.7 9.5 3.9-3.2 7.8-6.3 11.7-9.5zM732.3 475.1c3.4-2.6 6.6-5.2 9.9-7.7-3.2 2.6-6.5 5.1-9.9 7.7zM793.6 424.4c-4 3.6-8.1 7.2-12.2 10.8 4.1-3.6 8.2-7.2 12.2-10.8zM888.3 324.1c-3.5 4.5-7.1 9-10.9 13.5 3.7-4.5 7.4-9 10.9-13.5zM877 338.2zM838.6 381.1c-4 4.2-8.1 8.3-12.3 12.5 4.1-4.2 8.2-8.4 12.3-12.5zM864.9 352.4c-3.9 4.4-7.8 8.8-11.9 13.3 4.1-4.5 8.1-8.9 11.9-13.3zM852.1 366.7c-4 4.3-8 8.6-12.1 12.9 4.1-4.3 8.2-8.6 12.1-12.9zM420.4 348.1c-1.2-2.3-3.2-3.9-5.6-4.7-2.4-.8-5-.5-7.3.7l-84.6 44.6c-2.3 1.2-3.9 3.2-4.7 5.6-.7 2.4-.5 5 .7 7.3l6.8 12.9L427.2 361l-6.8-12.9zM85.6 606.1c-1-2.2-2-4.4-2.9-6.6.9 2.2 1.9 4.4 2.9 6.6z"/><path fill="#FFB602" d="M560.9 290.5l1.5-.8c31.2-16.4 69.8-4.5 86.2 26.7l17.1 32.4 3 5.6c30.6-22.4 50.5-58.5 50.5-99.3 0-68-55.1-123.2-123.2-123.2-68 0-123.2 55.1-123.2 123.2 0 26.1 8.2 50.2 22 70.2l66.1-34.8z"/><path fill="#3A5675" d="M183.7 607.1c5.7-1.1 11.3-2.9 16.6-5.7 29.5-15.5 40.8-52.1 25.3-81.5-4.4-8.3-10.4-15.2-17.5-20.4l2.2-1.1 87.7-46.2 247.5-130.5s.1 0 .1-.1l10.7-5.6c.3 8.8 2.6 17.7 6.9 26 15.5 29.5 52.1 40.8 81.6 25.3 2.3-1.2 4.4-2.6 6.5-4l63 119.5c5.4-3.8 10.6-7.7 15.9-11.6l-61.5-116.6-3-5.6-17.1-32.4c-16.4-31.2-55-43.1-86.2-26.7l-1.5.8-66 34.8-42.7 22.5-6.8-12.9c-4.7-8.9-12.6-15.5-22.3-18.5-9.7-3-19.9-2-28.8 2.7l-84.7 44.6c-8.9 4.7-15.5 12.6-18.5 22.3-3 9.7-2 19.9 2.7 28.8l6.8 12.9-126.2 66.5c-31.2 16.4-43.1 55-26.7 86.2l14.2 27 28.4 53.9c7.6 1.3 15.4 2.3 23.5 2.9l-30.1-57.3zm135.1-205.5c-1.2-2.2-1.4-4.8-.7-7.3.8-2.4 2.4-4.4 4.7-5.6l84.6-44.6c2.2-1.2 4.8-1.4 7.3-.7 2.4.8 4.4 2.4 5.6 4.7l6.8 12.9-101.5 53.5-6.8-12.9z"/><path fill="#00A8DE" d="M719.4 651.5l.1-.1-.1.1zM257 746l26 50-26-50zM716.6 486.9c-1.2.9-2.4 1.7-3.6 2.6 1.2-.8 2.4-1.7 3.6-2.6zM651.3 363.1c-2.1 1.4-4.2 2.8-6.5 4-29.5 15.6-66 4.2-81.6-25.3-4.4-8.3-6.6-17.2-6.9-26l-10.7 5.6s-.1 0-.1.1L297.9 452l-87.7 46.2-2.2 1.1c7.1 5.2 13.1 12.1 17.5 20.4 15.5 29.5 4.2 66-25.3 81.5-5.4 2.8-11 4.6-16.6 5.7l30.2 57.2c109.6 8.6 270.1-38.5 427.9-134.1 25.3-15.3 49.5-31.3 72.5-47.7l-62.9-119.2zM684.3 509.8c-3 2.1-6 4.1-9 6.2 3-2.1 6-4.1 9-6.2zM694.4 502.9c3.3-2.3 6.6-4.7 9.9-7-3.3 2.3-6.5 4.6-9.9 7zM662.7 524.2c-2.4 1.6-4.7 3.1-7.1 4.7 2.4-1.6 4.8-3.2 7.1-4.7z"/><path fill="#6EC829" d="M588.8 616.2C472.3 687.5 354.4 731.7 257 746l26.3 50c4.1-4 8.7-7.7 14.1-10.5 29.5-15.6 66-4.2 81.6 25.2 2.9 5.5 4.7 11.3 5.8 17.2l130.4-68.7 204.3-107.7.1-.1 7.9-4.2c-4.2-4.2-8-8.9-10.9-14.5-15.5-29.5-4.2-66 25.3-81.5 2.3-1.2 4.6-2.2 7-3.1l-18.3-34.7c-41.9 35.9-89.5 70.7-141.8 102.8z"/><path fill="#3A5675" d="M971.2 275c-38.1-23.5-65 4.5-65 4.5-34.7-31.4-72.8 3.4-72.8 3.4 35.8-15.7 66.1 4.5 66.1 4.5l-12.3 12.3c17.9-7.8 47 0 47 0l-14.6-12.3c21.4-24.8 51.6-12.4 51.6-12.4zM894.9 315.5c-2.1 2.8-4.4 5.6-6.6 8.4l-.1.1c-3.5 4.5-7.1 9-10.9 13.5-.1.2-.3.4-.4.5-3.7 4.5-7.5 9-11.4 13.5-.2.2-.4.5-.6.7-3.9 4.4-7.8 8.8-11.9 13.3-.3.4-.6.7-1 1.1-4 4.3-8 8.6-12.1 12.9-.5.5-1 1-1.4 1.5-4 4.2-8.1 8.3-12.3 12.5l-1.9 1.9c-4.1 4-8.2 8-12.4 12-.8.8-1.7 1.6-2.5 2.4-4.1 3.8-8.2 7.7-12.4 11.5-1.1 1-2.2 2-3.4 3-4 3.6-8.1 7.2-12.2 10.8l-4.2 3.6c-4 3.4-7.9 6.8-12 10.2l-5.1 4.2c-3.9 3.2-7.7 6.3-11.7 9.5-2 1.6-4.1 3.2-6.1 4.8-3.3 2.6-6.6 5.2-9.9 7.7-.5.3-.9.7-1.3 1-2.4 1.8-4.9 3.6-7.3 5.5-2.4 1.8-4.7 3.5-7.1 5.3-1.2.9-2.4 1.8-3.6 2.6-2.9 2.1-5.8 4.2-8.7 6.2-3.3 2.3-6.5 4.7-9.9 7-3.3 2.3-6.8 4.6-10.1 7-3 2.1-6 4.1-9 6.2-4.1 2.8-8.3 5.5-12.5 8.2-2.4 1.6-4.7 3.1-7.1 4.7-6.7 4.3-13.4 8.5-20.2 12.7-238 145.7-482 178.7-545 73.6-1.5-2.5-2.9-5.1-4.1-7.7-.2-.5-.4-.9-.6-1.4-1-2.2-2-4.4-2.9-6.6-.1-.2-.1-.4-.2-.5-14.2-37.7-6.7-85.3 18.7-137.2-66.4 88.2-91 172.1-57.5 228 29.9 50 100.9 68.6 192.6 58.9l34.3 65.1 10.3 19.6c16.4 31.2 55.1 43.2 86.2 26.7l379.1-199.8 8.8-4.7c31.2-16.4 43.1-55.2 26.7-86.4L768.8 544l-23.2-43.9c68.8-61.6 120.6-125.7 149.3-184.6zM749.1 548h-.1c-2.4 1-4.8 2-7.1 3.2-29.5 15.5-40.8 52.1-25.3 81.6 2.9 5.5 6.7 10.3 10.9 14.5l-7.9 4.2-.1.1-204.4 107.6-130.4 68.7c-1.1-5.8-2.9-11.6-5.8-17.2-15.5-29.5-52.2-40.8-81.7-25.2-5.4 2.8-10.3 6.4-14.3 10.5l-26-50c97.4-14 215.6-58.5 332.1-129.9 52.3-32 99.9-66.8 141.9-102.8l18.2 34.7z"/></svg>