<svg xmlns:xlink="http://www.w3.org/1999/xlink"  version="1" xmlns="http://www.w3.org/2000/svg" viewBox="0 0 150 150"><g fill="#30ACA4"><path d="M86.7 65.3H29.4c-5 0-5.3 2.4-5 5.4l4.5 49.2c.3 3 1 5.4 6 5.4H63c-.3-.2-.5-.3-.8-.5h.6c.1.2.2.3.2.5h31.9c.1-.2.2-.3.3-.5h.6c-.3.2-.6.3-.8.5h28c1.9 0 3.2-.3 4.1-.9.2-.1.3-.3.5-.4.6-.6 1-1.3 1.2-2.2.1-.6.2-1.3.3-1.9l1.7-18.7c-8.4-9.4-25.3-23.1-44.1-35.9zM79 123.7c-11.4 0-16.4-11.3-14.9-19.4 2.1-10.7 14-21.1 14.7-35.6.7 14.5 12.9 24.9 15 35.6 1.5 8.1-3.5 19.4-14.8 19.4zM128.4 65.3h-25.1c12 9.4 21.4 18.3 28.2 26.1l1.9-20.7c.3-3 .1-5.4-5-5.4z"/></g><path fill="#E88224" d="M91.3 59.5c-.4-1.7-2.5-3.1-4.7-3.1H60.3c-2.1 0-5.1-1.2-6.7-2.7l-2.3-2.3c-1.5-1.5-4.5-2.7-6.7-2.7H32.1c-2.1 0-4.1 1.7-4.3 3.8l-1.1 10.1h65.5l-.9-3.1z"/><path fill="#BDD978" d="M68.5 111.3c0 4.2 3.4 9.4 9.7 9.4 6.5 0 10.5-5.9 10.5-9.3 0-8.7-6.7-15.8-10.4-27.1-3.6 11.2-9.8 18.5-9.8 27z"/><path fill="#BFE0F6" d="M126.3 80.4c-2.8 3.9-10.3 4.9-16.9 2.4-6.6-2.6-9.6-7.8-6.9-11.7 2.8-3.9 10.3-4.9 16.9-2.4 6.6 2.6 9.6 7.9 6.9 11.7z"/><path fill="#D3D8C3" d="M78.6 89.8l2.1 3.9-3.2 2.6 3.8-1.8 2.6 3.4-2-3.9 3.2-2.3-3.6 1.4z"/><path fill="none" d="M64.1 104.3c-1.6 8.1 3.5 19.4 14.9 19.4 11.3 0 16.3-11.3 14.8-19.4-2.1-10.7-14.3-21.1-15-35.6-.7 14.5-12.7 24.9-14.7 35.6zM131.6 102.4c-.3-.4-.6-.7-1-1.1l-1.7 18.7c-.1.7-.1 1.3-.3 1.9.7.1 1.4.1 2.1.2 3.8.2 7.4-.4 9.2-2.4.4-3.4-1.8-8.8-8.3-17.3z"/><g fill="#F0DA10"><path d="M15 30.7c-9.8 1.2-3 14.8 7.8 27.8 2.2 2.3 3.8 3.9 3.8 3.9h.3C16.5 48.9 7.7 33.9 15 30.7z"/><path d="M131.6 91.4c-6.9-7.8-16.2-16.7-28.2-26.1-8-6.2-17.1-12.7-27.5-19.3C44.5 25.3 22.2 18.6 9.8 24.7c-4.8 1.8-5.4 5.8-4.6 9.5-.6-3.5-.2-7.4 5-9.2 16.8-.7 32.1 8.1 62.6 25.7 8.2 5 15.7 9.8 22.3 14.6C111.3 76.8 123 87.6 131 96.8c10.5 12.1 14.5 21.5 13.6 26.5 4.5-4.4.8-16.1-13-31.9z"/><path d="M130.7 122c-.7 0-1.4-.1-2.1-.2-.2.9-.6 1.6-1.2 2.2.9.1 1.8.2 2.7.2 5 .2 9.3-.7 9.8-4.7-1.7 2.2-5.3 2.7-9.2 2.5z"/></g><path fill="#EC9429" d="M131.1 96.8c-8-9.2-19.8-20-35.9-31.5-6.7-4.8-14.1-9.6-22.3-14.6-30.7-17.5-46-26.4-62.7-25.7-5.2 1.8-5.6 5.7-5.1 9.2.3 2 1 3.9 1.2 5.2 2.5 7.9 20.3 23.8 20.3 23.8h.3c-1.4-1.5-2.8-3.1-4.1-4.7C12 45.5 5.2 31.9 15 30.7c3.1-.4 7.9.5 14.6 3 16 5.9 37.5 18.3 57 31.6 18.8 12.8 35.7 26.5 44 36 .3.4.7.7 1 1.1 6.5 8.6 8.7 14 8.3 17.2-.5 4-4.8 4.9-9.8 4.7-.9 0-1.8-.1-2.7-.2-.1.1-.3.3-.5.4-.9.6-2.1.9-4.1.9h-2c6.6 1.7 14 2.8 19.8 1.7 2.1-.4 3.5-1.7 3.9-3.9 1.1-5-3-14.4-13.4-26.4z"/></svg>