<svg xmlns:xlink="http://www.w3.org/1999/xlink"  xmlns="http://www.w3.org/2000/svg" viewBox="0 0 150 150"><path fill="#00A9DE" d="M38.6 17h-3.4C27.6 17 21 23 21 30.6v4.6C37 34.9 38.4 33 38.6 17z"/><path fill="#00A9DE" d="M58 72.4c12.5 0 17.8-.3 20-5.1v-3 3.1c1.5-3.2 1.5-8.2 1.5-16.4 0 8 .5 13 1.5 16.2V30.6C81 23 74.9 17 67.4 17H38.6c.2 17 2.2 18.2 21.7 18.2-20.6 0-21.9 1-21.9 21.6 0-19-.4-21.4-17.4-21.7v27.5C21 70.3 27.6 76 35.2 76h42c-2.6-3-8.1-3.6-19.2-3.6zm-7.2-9.6c0-11.5-.6-12-12-12 11.5 0 12-.6 12-12 0 11.5.6 12 12 12-11.4 0-12 .5-12 12z"/><path fill="#6CAB36" d="M78 103.8c0-3.3 0-6.1-.2-8.4H76h1.8c-.3-4-.9-6.5-2.4-8.2h-1.6 1.6c-2.5-2.9-7.4-3.3-17.2-3.3 9.3 0 14.2.1 16.8-2.9H39.7C33.1 81 28 86.8 28 93.4v12.4c15-.4 15.5-3.2 15.5-21.6 0 20.6 1 21.7 21.6 21.7-20.6 0-21.6 1-21.6 21.7 0-18.4-.5-21.2-15.5-21.6v15.6c0 6.6 5.1 11.5 11.7 11.5h16.4c-.2-6-1.5-6.3-9.5-6.3 9.1 0 9.5-.3 9.5-9.4 0 9.1.4 9.3 9.5 9.3-7.9 0-9.3.3-9.5 6.3h11.7c6.6 0 12.2-4.9 12.2-11.5v-26c-1 0-1.2-.1-1.8-.1-.1 2.3-.2 5.1-.2 8.4z"/><path fill="#6CAB36" d="M79.7 88.4c0 1.8-.1 3.7-.1 5.8 0-2.1 0-3.9-.1-5.6-.8 1.6-1.2 3.8-1.4 6.8.6 0 .8 0 1.8-.1V88c.1.2-.1.3-.2.4z"/><path fill="#FFAF3A" d="M123.1 66.9h2.2-2.4c-.1 2.5-.2 5.4-.2 8.9 0-3.5 0-6.4-.2-8.9-5.2.2-5.5 1.4-5.5 8.1 0-7.8-.4-8.2-8.2-8.2 7.8 0 8.1-.4 8.1-8.2 0 6.7.3 7.9 5.5 8.1-.7-12-4.4-12.7-21.5-12.7 17.1 0 20.7-1 21.5-12.9-.2 0-.4-.3-.6-.3H96.6C90.6 41 86 46.3 86 52.3v19c3 1.2 8.1 1.3 15.6 1.3-7.5 0-12.6.1-15.6 1.3v9.6c.6-1.9.6-4.8.6-9.1 0 4.5 0 7.4.8 9.3 2.6.3 6 .4 10.3.4-4.2 0-7.4 0-10 .3C89.1 87 92.3 87 99.4 87c-5.2 0-8.3 0-10.1 1h32.6c5.9 0 11.1-4.5 11.1-10.4v-23c-8 .9-9.4 3.8-9.9 12.3z"/><path fill="#FFAF3A" d="M133 53.7v-1.5c0-5.6-4.3-10.2-9.7-10.7.5 8.5 1.7 11.3 9.7 12.2z"/><path fill="#D08AC2" d="M95.7 95.6c-5.7 0-8.1.1-9.1 2.3v0c-.7 1.5-.8 3.7-.8 7.4 0-3.6.2-5.9-.8-7.4v22.3c0 4.4 3.8 7.8 8.1 7.8h18.6c4.4 0 8.3-3.4 8.3-7.8v-15.4c-10 .1-9.9.9-9.9 10.8 0-10.3-.6-10.8-10.9-10.8 10.3 0 11-.5 11-10.8 0 9.9-.2 10.8 9.8 10.8v-3.2c0-4.4-3.9-7.6-8.3-7.6H87c1.2 1 3.7 1.6 8.7 1.6zm7.1 15.3c0 7.3.4 7.7 7.7 7.7-7.3 0-7.7.4-7.7 7.7 0-7.3-.4-7.7-7.7-7.7 7.3 0 7.7-.4 7.7-7.7z"/><path fill="#FFFFFE" d="M50.8 38.8c0 11.5-.6 12-12 12 11.5 0 12 .6 12 12 0-11.5.6-12 12-12-11.4 0-12-.6-12-12z"/></svg>