<svg xmlns:xlink="http://www.w3.org/1999/xlink"  version="1" xmlns="http://www.w3.org/2000/svg" viewBox="0 0 150 150"><path fill="#9DD6C9" d="M96 16.4s0-.1.1-.1l-.5.5c.2-.1.3-.2.4-.4z"/><path fill-rule="evenodd" clip-rule="evenodd" fill="#027999" d="M140.3 50.4v20.8L113 86.9V22.4l16.7 9.7c8.3 4.7 10.6 8.8 10.6 18.3zM103.1 134.1l-16.7 9.7c-8.2 4.8-12.9 4.8-21.1 0l-18-10.4v-31.5l55.8 32.2z"/><path fill-rule="evenodd" clip-rule="evenodd" fill="#BED638" d="M38.7 128.3L22 118.7c-8.2-4.7-10.6-8.8-10.6-18.3V79.6l27.3-15.8v64.5z"/><path fill-rule="evenodd" clip-rule="evenodd" fill="#0A8" d="M11.4 69.7V50.4c0-9.5 2.4-13.6 10.6-18.3l18-10.4 27.3 15.7-55.9 32.3z"/><path fill-rule="evenodd" clip-rule="evenodd" fill="#BED638" d="M48.6 16.7L65.3 7c8.2-4.8 12.9-4.8 21.1 0l18 10.4v31.5L48.6 16.7z"/><path fill="#0A8" d="M98.3 102.5l-16.2-12 1.8-2.1c.2-.3.3-.6.2-1l-6.8-19.7c-.1-.3-.4-.6-.7-.6l-20.4-4c-.3-.1-.7.1-.9.3l-3.2 3.7c-.4.4-.3 1 .1 1.4l7 6.1c.1.1.3.2.5.2l9.4 1.8 3.1 9-6.2 7.2-9.3-1.8-3.1-9.1c-.1-.2-.2-.3-.3-.4l-6.9-6c-.4-.4-1-.3-1.4.1l-3.2 3.7c-.2.3-.3.6-.2 1l6.8 19.7c.1.3.4.6.7.6l20.4 4c.3.1.7-.1.9-.3l1.8-2.1 28.8 20.4s0-.1.1-.1l9.5 6.8 19.3-10.4c8.2-4.7 10.6-8.8 10.6-18.3V81.1l-42.2 21.4z"/></svg>