<svg xmlns:xlink="http://www.w3.org/1999/xlink"  version="1" xmlns="http://www.w3.org/2000/svg" viewBox="0 0 150 150"><path fill="#86CBCC" d="M131.3 11.2H110c1.7.6 3.1 1.7 3.9 3.4l25 32V18.9c0-4.2-3.4-7.7-7.6-7.7zM46.5 131.9c-.2-2.3-7.1-8-7.2-9.3-.2-3 3.3-6.4 2.4-6.2-.5.1-2.1 2.3-4.4 4.7 0 0-.6-1.2-.5-1.8.1-1.6 3.8-6.2 3.4-6.7-.7-.8-5.7 5.9-5.8 5-.1-.9-5.3-5.3-4.7-6.8.5-1.5 6.1-4.4 3.9-3.9-2.2.6-4.3 2.3-6.1.8-1.8-1.6-5.2-6.1-4.7-6.2.5-.1 8.5-2.1 7.6-1.9-.9.2-11-.7-11.3-1.3-.3-.7-3.5-5.3-3.5-5.3 6.3-2.4 8.8.5 19.1-11.2C38.6 75.6 45 67.5 57 72.6c2.6 1.1 4.7 2.2 6.5 3.4L103 13.3c.9-1.3 2-1.6 3.1-2H20.7c-4.2 0-7.7 3.4-7.7 7.7v110.5c0 4.2 3.4 7.7 7.7 7.7h48l-18.5-5.7c-2.2.7-3.7.6-3.7.4z"/><path fill="#5E8E8E" d="M113.9 14.6c.7 1.7.9 3.6-.5 5.7L69.1 80.9c0 .1-.1 0-.2.1 1 1.3 2 2.9 3 4.8 5.7 10.9 1 17.1-3.8 26.6h-.2c-6.7 12.9-13.7 17.6-17.8 19l18.5 5.7h62.5c4.2 0 7.7-3.4 7.7-7.7V46.7l-24.9-32.1z"/><path fill="#FFF" d="M33.7 83.2c.3-.4.6-.9.9-1.4C24.3 93.6 21.9 90.6 15.5 93c0 0 3.1 4.6 3.5 5.3.3.6 10.4 1.5 11.3 1.3.9-.2-7.1 1.7-7.6 1.9-.5.1 2.9 4.7 4.7 6.2 1.8 1.6 3.9-.2 6.1-.8 2.2-.6-3.3 2.3-3.9 3.9-.5 1.5 4.6 5.9 4.7 6.8.1.9 5.1-5.8 5.8-5 .4.4-3.3 5.1-3.4 6.7-.1.7.5 1.8.5 1.8 2.3-2.3 3.9-4.6 4.4-4.7.9-.2-2.6 3.2-2.4 6.2.1 1.2 7 6.9 7.2 9.3 0 .2 1.5.3 3.8-.5 4.1-1.5 11.1-6.1 17.8-19l-3.9-.4-30.4-28.8z"/><path fill="#4D4D4E" d="M62.8 77.1l.6-1c-1.9-1.2-4-2.3-6.5-3.4-12-5.2-18.4 2.9-22.3 9.2-.3.5-.7 1-.9 1.4L64.2 112l3.9.4h.2c4.8-9.5 9.5-15.7 3.8-26.6-1-1.9-2-3.5-3-4.8-2.5 2.3-8.1-1.8-6.3-3.9z"/><path fill="#333" d="M63.5 76.1l-.6 1c-1.9 2.1 3.7 6.3 6.1 3.8 0 0 .1 0 .2-.1l44.3-60.5c1.4-2 1.2-4 .5-5.7-.7-1.7-2.1-2.8-3.9-3.4-1.3-.5-2.5-.5-3.8 0-1.1.4-2.3.8-3.1 2L63.5 76.1z"/></svg>