<svg xmlns:xlink="http://www.w3.org/1999/xlink"  xmlns="http://www.w3.org/2000/svg" viewBox="0 0 150 150"><path fill="#8F9194" d="M124.1 65.6c-5.5 0-10.2 3.6-11.8 8.6-.4 1.2-.6 2.4-.6 3.7 0 1.3.2 2.6.6 3.7 1.6 5 6.3 8.6 11.8 8.6 6.8 0 12.4-5.5 12.4-12.4 0-6.6-5.5-12.2-12.4-12.2z"/><path fill="#B85856" d="M130.1 99.8c-.6.2-1.1.4-1.7.5-.6.1-1.1.3-1.7.3h-.1c-.6.1-1.1.2-1.7.2h-.3c-.6 0-1.1.1-1.7.1-.5 0-1.1 0-1.6-.1h-.4c-.5 0-1-.1-1.6-.2h-.1l-1.5-.3c-.1 0-.2-.1-.4-.1-.5-.1-1-.3-1.5-.4h-.1c-.5-.1-.9-.3-1.4-.5-.1 0-.2-.1-.3-.1-.5-.2-1-.4-1.4-.6-.5-.2-.9-.5-1.3-.7-.1 0-.2-.1-.2-.1-.5-.3-.9-.5-1.3-.8-.4-.3-.8-.6-1.3-.9-.1 0-.1-.1-.2-.1-.8-.7-1.6-1.4-2.4-2.2l-.1-.1c-.7-.8-1.4-1.6-2.1-2.5l-.1-.1c-.6-.9-1.2-1.9-1.7-2.9v-.1c-.3-.5-.5-1-.7-1.5h-48l-.9 1.5c0 .1-.1.1-.1.2-.6 1-1.3 1.9-2.1 2.8l-.1.1c-.3.4-.7.8-1.1 1.2l-.2.2c-.8.8-1.7 1.6-2.6 2.3l-.2.2-1.2.9c-.1.1-.1.1-.2.1L43 97c-.5.3-.9.5-1.4.8-.1.1-.2.1-.3.2-.4.2-.9.4-1.3.6-.1 0-.2.1-.3.1-.5.2-1 .4-1.6.6-.1 0-.2.1-.3.1-.4.2-.9.3-1.3.4-.1 0-.3.1-.4.1-.5.1-1 .2-1.4.4-.1 0-.2 0-.2.1-.6.1-1.1.2-1.7.3-.1 0-.3 0-.4.1-.4.1-.9.1-1.3.1h-.5c-.6 0-1.2.1-1.8.1H26.7c-.2 0-.5 0-.7-.1-.3 0-.6-.1-.9-.1-.2 0-.3 0-.5-.1-.3-.1-.7-.1-1-.2-.1 0-.2 0-.3-.1-.4-.1-.7-.2-1.1-.2H22l-1.2-.3h-.1c-.4-.1-.8-.2-1.2-.4-.4-.1-.8-.3-1.2-.4 9.3 21.7 30.9 37 56.1 37H76l-4.5-9.4v-36h11.7v36l-4.5 9.3c23-1.8 42.5-16.1 51.4-36.2zM33.4 87.6c3.7-.5 7.7-6.4 6.9-16.8-.7-10.4-9.8-11.8-9.8-11.8H15.7c-1.4 5.1-2.2 10.5-2.2 16.1 0 4.4.5 8.7 1.4 12.8 8 0 16.7 0 18.5-.3z"/><path fill="#DB9130" d="M87 15.4c.8 2.3 1.3 5 1.3 7.9v39.3H66.6V23.2c0-3.3.6-6.3 1.7-8.8C47.6 16.5 30 28.9 20.7 46.3c.6-.2 1.2-.3 1.8-.5h.2c.6-.1 1.3-.3 1.9-.4.6-.1 1.2-.1 1.8-.2h.4c.6 0 1.2-.1 1.9-.1s1.4 0 2.1.1h.4c.7.1 1.3.1 2 .3.1 0 .2 0 .4.1.6.1 1.3.2 1.9.4h.1c.7.2 1.3.4 1.9.6.1 0 .2.1.4.1.6.2 1.2.5 1.8.7.1 0 .2.1.2.1.6.3 1.2.5 1.8.9 0 0 .1 0 .1.1.6.3 1.2.7 1.8 1 .1.1.2.1.2.2.6.4 1.1.8 1.7 1.2.6.4 1.1.9 1.6 1.3l.1.1c.5.5 1 .9 1.5 1.5l.1.1c1 1 1.9 2.1 2.7 3.3l1.2 1.8v.1c.7 1.3 1.4 2.6 1.9 4 .3.7.5 1.4.7 2.1h47.9c.8-1.2 1.7-2.3 2.6-3.3.3-.3.6-.7 1-1 .7-.6 1.4-1.2 2.2-1.8.3-.3.7-.5 1.1-.7.1 0 .1-.1.2-.1.3-.2.7-.4 1.1-.6 0 0 .1 0 .1-.1.8-.4 1.6-.8 2.5-1.2.1 0 .2-.1.3-.1.3-.1.6-.2 1-.4.1 0 .2-.1.3-.1.4-.1.7-.2 1.1-.3.1 0 .1 0 .2-.1.4-.1.9-.2 1.3-.3.1 0 .2 0 .3-.1.3-.1.7-.1 1-.2.1 0 .3 0 .4-.1.3 0 .6-.1 1-.1h3.3c.3 0 .6 0 .9.1h.3c.3 0 .6.1.9.1.1 0 .2 0 .3.1.3.1.6.1.9.2.1 0 .2 0 .2.1.3.1.7.2 1 .2h.2c.3.1.7.2 1 .3h.1c.4.1.7.3 1.1.4.4.1.7.3 1.1.5C126 35.8 108.6 19.9 87 15.4zM71.9 60c.5 0 .9-.4.9-.9V20.4c0-.5-.4-.9-.9-.9s-.9.4-.9.9v38.8c0 .4.4.8.9.8zm5.9 0c.5 0 .9-.4.9-.9V20.4c0-.5-.4-.9-.9-.9s-.9.4-.9.9v38.8c0 .4.4.8.9.8zm5.1 0c.2 0 .3-.4.3-.9V20.4c0-.5-.1-.9-.3-.9-.2 0-.3.4-.3.9v38.8c0 .4.1.8.3.8z"/></svg>