<svg xmlns:xlink="http://www.w3.org/1999/xlink"  xmlns="http://www.w3.org/2000/svg" width="100" height="100" viewBox="0 0 100 100"><radialGradient id="a" cx="56.887" cy="57.191" r="33.434" gradientUnits="userSpaceOnUse"><stop offset="0" stop-color="#a4a7a9"/><stop offset="1" stop-color="#e6e7e8"/></radialGradient><path fill="url(#a)" d="M84.093 27.684c-1.851-1.81-4.029-3.146-6.429-4.082 4.441 11.352-.435 27.917-13.056 40.84-12.799 13.12-29.532 18.352-41 13.847 1 2.566 2.478 4.871 4.456 6.798 10.725 10.467 31.957 6.096 47.428-9.753 15.473-15.856 19.322-37.192 8.601-47.65z"/><radialGradient id="b" cx="43.863" cy="57.191" r="33.434" gradientUnits="userSpaceOnUse"><stop offset="0" stop-color="#a4a7a9"/><stop offset="1" stop-color="#e6e7e8"/></radialGradient><path fill="url(#b)" d="M16.657 27.684c1.852-1.81 4.03-3.146 6.429-4.082-4.44 11.352.437 27.917 13.056 40.84 12.801 13.12 29.529 18.352 40.999 13.847-1.001 2.566-2.474 4.871-4.452 6.798-10.731 10.467-31.959 6.096-47.431-9.753-15.471-15.856-19.321-37.192-8.601-47.65z"/><radialGradient id="c" cx="329.201" cy="20.149" r="73.515" gradientTransform="matrix(-1 0 0 1 400.283 0)" gradientUnits="userSpaceOnUse"><stop offset="0" stop-color="#8dd7f7"/><stop offset=".503" stop-color="#00adee"/><stop offset="1" stop-color="#1b75bb"/></radialGradient><path fill="url(#c)" d="M74.021 28.409C55.197 9.125 29.374 3.817 16.334 16.542c-7.627 7.449-9.153 19.412-5.366 31.921-.904-7.543.847-14.414 5.608-19.054 10.363-10.122 30.899-5.897 45.861 9.437 14.961 15.33 18.685 35.956 8.317 46.071-4.951 4.834-12.221 6.36-20.091 4.999a3.348 3.348 0 0 1-.505.23c13.215 5.029 26.229 4.124 34.32-3.777 13.045-12.728 8.359-38.674-10.457-57.96z"/><radialGradient id="d" cx="29.761" cy="20.149" r="73.517" gradientUnits="userSpaceOnUse"><stop offset="0" stop-color="#8bc53f"/><stop offset="1" stop-color="#5d8929"/></radialGradient><path fill="url(#d)" d="M30.09 84.917c-10.37-10.11-6.645-30.741 8.316-46.071 14.962-15.334 35.492-19.559 45.86-9.437 4.756 4.64 6.513 11.51 5.613 19.054 3.783-12.509 2.257-24.472-5.37-31.921C71.469 3.817 45.64 9.125 26.823 28.409 8.006 47.695 3.319 73.641 16.365 86.369c8.438 8.238 22.232 8.88 36.019 3.104-8.706 2.073-16.886.726-22.294-4.556z"/><radialGradient id="e" cx="47.902" cy="45.292" r="19.598" gradientUnits="userSpaceOnUse"><stop offset="0" stop-color="#fff"/><stop offset=".003" stop-color="#f9fbfd"/><stop offset=".026" stop-color="#c7deef"/><stop offset=".052" stop-color="#9ac4e1"/><stop offset=".079" stop-color="#74add6"/><stop offset=".107" stop-color="#539acc"/><stop offset=".137" stop-color="#398bc5"/><stop offset=".17" stop-color="#247fbe"/><stop offset=".208" stop-color="#1676ba"/><stop offset=".253" stop-color="#0e71b8"/><stop offset=".327" stop-color="#0b70b7"/><stop offset=".494" stop-color="#0a68ab"/><stop offset=".697" stop-color="#0a61a1"/><stop offset="1" stop-color="#002e58"/></radialGradient><path fill="url(#e)" d="M64.808 51.624c0 7.423-6.021 13.445-13.449 13.445-7.423 0-13.441-6.022-13.441-13.445 0-7.428 6.018-13.451 13.441-13.451 7.427 0 13.449 6.023 13.449 13.451z"/></svg>