<svg xmlns:xlink="http://www.w3.org/1999/xlink"  xmlns="http://www.w3.org/2000/svg" viewBox="0 0 150 150"><path fill="#CCE8F6" d="M15.5 95.2c0 11.3 5.2 21.4 13.2 28.1-6.6-6.6-10.7-15.7-10.7-25.8 0-20.1 16.3-36.4 36.4-36.4 4 0 7.9.7 11.6 1.9l.3-1.2c-4.4-1.9-9.3-3-14.4-3-20.1 0-36.4 16.3-36.4 36.4zM52.7 124c-7 0-13.3-2.5-18.3-6.6 5.2 5.2 12.4 8.4 20.3 8.4 15.9 0 28.8-12.9 28.8-28.8 0-1.8-.2-3.6-.5-5.4-.6-.2-1.2-.4-1.8-.7.2 1.4.3 2.8.3 4.2-.1 16-13 28.9-28.8 28.9z"/><path fill="#57C1E7" d="M116.2 67.7c0-13.9-11.3-25.3-25.3-25.3-10.4 0-19.3 6.3-23.2 15.2-4.9-2-10.2-3.1-15.7-3.1-10.9 0-21.2 4.3-29 12-7.7 7.7-12 18-12 29 0 22.6 18.4 41 41 41 10.9 0 21.2-4.3 29-12 7.7-7.7 12-18 12-29 0-.9 0-1.7-.1-2.6 13-1 23.3-11.9 23.3-25.2zM52 133.9c-21.2 0-38.4-17.2-38.4-38.4 0-10.3 4-19.9 11.3-27.2C32.2 61 41.8 57 52.1 57c5.2 0 10.2 1 14.8 3-.2.6-.3 1.1-.5 1.7l-.3 1.2c-.3 1.5-.4 3.1-.4 4.7 0 10.5 6.4 19.5 15.5 23.3.6.3 1.2.5 1.8.7 2.3.8 4.8 1.2 7.4 1.3.1.8.1 1.7.1 2.5 0 10.3-4 19.9-11.3 27.2-7.3 7.3-16.9 11.3-27.2 11.3zM90.9 45c12.5 0 22.7 10.2 22.7 22.7s-10.2 22.7-22.7 22.7-22.7-10.2-22.7-22.7S78.4 45 90.9 45z"/><path fill="#CCE8F6" d="M68.8 67.5c0 6.8 3.1 12.9 8 17-4-4-6.5-9.5-6.5-15.6 0-12.2 9.9-22 22-22 5.3 0 10.2 1.9 14 5-4-4-9.5-6.5-15.6-6.5-12 .1-21.9 10-21.9 22.1zM103.6 55.2c3.1 3.1 5.1 7.5 5.1 12.3 0 9.6-7.8 17.4-17.4 17.4-4.2 0-8.1-1.5-11.1-4C83.3 84 87.7 86 92.5 86c9.6 0 17.4-7.8 17.4-17.4 0-5.4-2.4-10.2-6.3-13.4z"/><path fill="#57C1E7" d="M112.8 95.5c-10.3 0-18.7 8.4-18.7 18.7 0 10.3 8.4 18.7 18.7 18.7 10.3 0 18.7-8.4 18.7-18.7 0-10.3-8.4-18.7-18.7-18.7zm0 35.7c-9.4 0-17-7.6-17-17s7.6-17 17-17 17 7.6 17 17-7.6 17-17 17z"/><path fill="#CCE8F6" d="M114 98.7c4 0 7.6 1.4 10.4 3.8-3-3-7.1-4.8-11.6-4.8-9.1 0-16.4 7.3-16.4 16.4 0 5.1 2.3 9.6 6 12.6-3-3-4.8-7.1-4.8-11.6 0-9 7.3-16.4 16.4-16.4zM122.3 104.9c2.3 2.3 3.8 5.6 3.8 9.2 0 7.1-5.8 12.9-12.9 12.9-3.1 0-6-1.1-8.2-3 2.3 2.3 5.6 3.8 9.2 3.8 7.2 0 12.9-5.8 12.9-12.9-.1-4-2-7.6-4.8-10z"/><path fill="#57C1E7" d="M121.6 39c7 0 12.8-5.7 12.8-12.8 0-7-5.7-12.8-12.8-12.8-7 0-12.8 5.7-12.8 12.8 0 7.1 5.8 12.8 12.8 12.8zm0-24.2c6.3 0 11.5 5.2 11.5 11.5s-5.2 11.5-11.5 11.5-11.5-5.2-11.5-11.5c0-6.4 5.2-11.5 11.5-11.5z"/><path fill="#CCE8F6" d="M114.5 34.8c-2-2-3.3-4.8-3.3-7.9 0-6.2 5-11.1 11.1-11.1 2.7 0 5.2 1 7.1 2.6-2-2-4.8-3.3-7.9-3.3-6.2 0-11.1 5-11.1 11.1.1 3.4 1.6 6.5 4.1 8.6zM128 20c1.6 1.6 2.6 3.8 2.6 6.2 0 4.9-3.9 8.8-8.8 8.8-2.1 0-4.1-.8-5.6-2 1.6 1.6 3.8 2.6 6.2 2.6 4.9 0 8.8-3.9 8.8-8.8 0-2.8-1.2-5.2-3.2-6.8z"/><path fill="#57C1E7" d="M50 52c9.3 0 16.8-7.6 16.8-16.8 0-9.3-7.6-16.8-16.8-16.8-4.5 0-8.7 1.8-11.9 4.9-3.2 3.2-4.9 7.4-4.9 11.9s1.8 8.7 4.9 11.9C41.3 50.2 45.5 52 50 52zm0-32c8.4 0 15.2 6.8 15.2 15.2 0 8.4-6.8 15.2-15.2 15.2-4 0-7.9-1.6-10.7-4.4-2.9-2.9-4.4-6.7-4.4-10.7 0-4 1.6-7.9 4.4-10.7C42.2 21.6 46 20 50 20z"/><path fill="#CCE8F6" d="M40.7 46.4C38 43.7 36.4 40 36.4 36c0-8.1 6.6-14.7 14.7-14.7 3.6 0 6.8 1.3 9.4 3.4-2.7-2.7-6.3-4.3-10.4-4.3-8.1 0-14.7 6.6-14.7 14.7-.1 4.5 2 8.6 5.3 11.3zM58.5 26.9c2.1 2.1 3.4 5 3.4 8.2 0 6.4-5.2 11.6-11.6 11.6-2.8 0-5.4-1-7.4-2.6 2.1 2.1 5 3.4 8.2 3.4 6.4 0 11.6-5.2 11.6-11.6 0-3.7-1.6-6.9-4.2-9z"/></svg>