<svg xmlns:xlink="http://www.w3.org/1999/xlink"  xmlns="http://www.w3.org/2000/svg" viewBox="0 0 150 150"><path fill="none" d="M116.7 39.7l-3.2 21 8.6-20.6c-2.8-1.6-4.6-.9-5.4-.4zm2.6 1.4s1.3-.9 1.7 0l-4.7 12 3-12zM68 83.7l5.2 4.7.1.1.1.1s2.2 1.9 8.7-.8c1.2-.5 2.9-2 4.2-3.3l-4.6-12.2H73.9c-2.2-.1-4.1-.6-5.8-1.4 1.9 3.7 1.8 8-.1 12.8zM106.4 27.9l-3 15.6 5.6 19.7 6-39.2c-5.8-1.3-8.1 2.9-8.6 3.9zm-.3 20.1l4.7-22.6s2.1-1.3 3.2-.4l-5 33.2-2.9-10.2z"/><path fill="#BFE2F4" d="M93.3 25c-2.3.2-1.6 4.9-1.6 4.9l10.8 38.9-5.4 3.1-5.6-12c-2.1 0-2.1 2.1-2.1 2.1L98 82.5l-1.9 42c8.9-.7 12-5.2 12-5.2l-2.8-50.9-12-43.4zm17.5.5L106.1 48l2.8 10.2 5.1-33.1c-1.1-1-3.2.4-3.2.4zm8.5 15.6l-3 12 4.7-12c-.4-1-1.7 0-1.7 0z"/><path fill="#27628E" d="M111 77.3l15.5-37.2.6-1.5-1.3-.9c-3.3-2.4-6.2-2.9-8.4-2.5l1.9-12.3.2-1.6-1.6-.6c-9-3.3-14 2.3-15.4 5.8l-.1.2v.2l-1.5 8-4-14.1-.6-2-2 .7c-4.2 1.4-11.8 6.4-10.9 15.5v.2l4.3 19.2 4-.9-4.2-19.1c-.5-5.7 3.6-8.9 6.2-10.3l12.7 44.5.5 8.3-.1.3.1.1 2.4 43.2c-1.7 1.1-6.3 3.6-15.1 5-4.5.7-8.6.3-12-.5.2-2.4.6-8.4.6-11.7 0-4.2 4.4-7.4 4.4-7.4l1.4-3s-5.1 3.5-9.7 4.8c-1.6.5-3 .5-4.1.4l-4.4-1.9-16.8-13.9L59.3 68c1.7.8 4.1 2.2 5.3 4.8 1.3 2.8 1 6.4-.9 10.6l-.6 1.4 1.1 1 6.3 5.6c.8.9 4.5 3.9 13.3.3 2.8-1.2 6.1-4.8 6.5-5.2l.8-.9-.4-1.2-5.5-14.8-.5-1.3h-1.4l-9 .1c-7.1-.4-9.2-5.9-9.9-9l27.7-.5 5.1 11 3.7-1.7L95.3 56l-.6-1.2h-1.3l-31.4.5h-2l.1 2c.1 2 .6 4.8 2 7.4-1.9-1-3.5-1.4-3.6-1.4l-2-.5-.5 2-6.6 27.7-.3 1.2 1 .8L68 109.4l.2.2.3.1 3.8 1.6-2 11.7-.2 1.3 1.2.7c.2.1 2 1.2 5 2.3v7.8h4v-6.5c4 1 8.9 1.6 14.4.8 4.4-.7 7.8-1.7 10.5-2.6v7.4h4V125c2.2-1.1 3.3-2 3.4-2.1l.7-.6-.1-1-2.4-43.6.2-.4zm-37-4.9H81.7l4.6 12.2c-1.3 1.3-3 2.8-4.2 3.3-6.5 2.7-8.7.8-8.7.8l-.1-.1-.1-.1-5.2-4.8c1.9-4.8 2-9.1.3-12.7 1.6.8 3.5 1.3 5.7 1.4zm48.1-32.3l-8.6 20.6 3.2-21c.8-.5 2.6-1.2 5.4.4zm-18.7 3.4l3-15.6c.5-1 2.8-5.2 8.6-3.8l-6 39.2-5.6-19.8z"/><path fill="#00A8DE" d="M55.4 19c-2.2 16-3.9 17.7-19.9 19.9 16 2.2 17.7 3.9 19.9 19.9 2.2-16 3.9-17.7 19.9-19.9-16-2.1-17.8-3.9-19.9-19.9zM37.8 52.2c-1 7.1-1.7 7.9-8.8 8.8 7.1 1 7.9 1.7 8.8 8.8 1-7.1 1.7-7.9 8.8-8.8-7-.9-7.8-1.7-8.8-8.8zm0-20.7c1.1-7.8 1.9-8.6 9.7-9.7-7.8-1.1-8.6-1.9-9.7-9.7-1.1 7.8-1.9 8.6-9.7 9.7 7.8 1.1 8.7 1.9 9.7 9.7z"/></svg>