<svg xmlns:xlink="http://www.w3.org/1999/xlink"  version="1" xmlns="http://www.w3.org/2000/svg" viewBox="0 0 150 150"><path fill="#26A8E0" d="M137.3 64.9l6-1.6-6-1.5 1-1.6-1.6 1-1.5-5.9-1.5 5.9-1.7-1 1 1.6-5.9 1.5 5.9 1.6-1 1.6 1.7-1 1.5 5.9 1.5-5.9 1.6 1z"/><path fill="#66A9DC" d="M144.4 55l3-.8-3-.8.5-.8-.8.5-.8-3-.8 3-.8-.5.5.8-3 .8 3 .8-.5.8.8-.5.8 3 .8-3 .8.5z"/><path fill="#46A9DF" d="M63.3 116.1c-4.2-2.1-18.8-10.2-22.3-13.7C23.2 84.6 23.2 55.7 41 38c2.4-2.4 5.1-4.5 7.9-6.3 1.6-1 3.2-1.8 4.8-2.6 1.2-.6 1.6-1.5 1.6-2.1-.1-2.8-4.2-5.7-8.1-1.8-5.2 5.2-7.8 11.5-10.9 13.3-3.1 1.8-2.3-5.2-1.1-7.6 1.1-2.4 1.4-6.3-2.2-6-3.6.3-.9 4.9-.8 7.6.2 2.7-.3 4.8-1.8 8.2-1.5 3.4-4.2 6.1-6.4 3.9-2.3-2.3-4.7-6.6-4.5-9 .2-2.4-.5-4.6-2.8-4.2-1.2.2-1.4 1.4-.7 3.1.6 1.5 2.4 3.6 3.3 5.2 1.8 3.4 2.2 5.6 2 8-.2 2.4-1.5 7.9-3.9 10.6-2.4 2.7-1 5.2-2.4 6.6-1.5 1.4-6.1 0-7.6-1.1C6 62.6 3.4 62.7 3 65c-.3 2.3 1.8 3.3 3.9 2.8 2.1-.5 3.7-1.4 5.6.8 1.4 1.6 3.8 7.9 2.3 9.7-2 2.4-4.7 3-5.9 3-1.3 0-3.1 1.8-1.4 4.1 1.7 2.3 4.3-.3 6-2.2 1.7-1.9 3.1-.3 4.2 1 2.3 2.7 5.6 6.8 6.8 10.4.7 2.3 1.4 7.8 5.8 9 4.3 1.3 8 2.7 10.6 5.4 3.7 4 10.7 6.8 16.9 7.7-2-1.6 6.9 1.7 5.5-.6z"/><path fill-rule="evenodd" clip-rule="evenodd" fill="#253B39" d="M54.8 47.1c5.7 1.2 11.9 1.9 18.4 2.1v18H50.7c.3-7.4 1.8-14.1 4.1-20.1zm51 25.2c-.3 7.8-1.9 14.9-4.2 21.2 4.8 1.2 9.2 2.8 13.2 4.5 5.3-7.3 8.6-16.2 9.1-25.7h-18.1zm-6.2 26c-.6 1.3-1.2 2.6-1.9 3.8-3.3 6.1-7.4 11.2-11.4 14.8 9.1-2 17.2-6.6 23.5-13 .6-.6 1.1-1.1 1.6-1.7-3.6-1.5-7.6-2.8-11.8-3.9zm-21.4-8c6.5.2 12.7.9 18.4 2.1 2.3-5.9 3.8-12.7 4.1-20.1H78.2v18zm16.3 6.9c-5.1-1-10.5-1.6-16.3-1.8v21.2c4.8-2.8 10.5-8.7 15-17 .5-.7.9-1.6 1.3-2.4zm-21.3-1.8c-5.8.1-11.2.8-16.3 1.8.4.8.8 1.7 1.3 2.5 4.5 8.3 10.3 14.2 15 17V95.4zm-21.4 2.9c-4.2 1.1-8.2 2.4-11.8 3.9.5.6 1.1 1.1 1.6 1.7 6.3 6.3 14.4 10.9 23.5 13-4-3.6-8-8.6-11.4-14.8-.6-1.2-1.3-2.5-1.9-3.8zm-15.1-.2c4-1.7 8.4-3.3 13.2-4.5-2.4-6.3-3.9-13.5-4.2-21.2H27.5c.5 9.5 3.9 18.4 9.2 25.7zm18.1-5.7c5.7-1.2 11.9-1.9 18.4-2.1v-18H50.7c.3 7.4 1.8 14.2 4.1 20.1zm51-25.2c-.3-7.8-1.9-14.9-4.2-21.2 4.8-1.2 9.2-2.8 13.2-4.5 5.3 7.3 8.6 16.2 9.1 25.7h-18.1zm-6.2-26c-.6-1.3-1.2-2.6-1.9-3.8-3.3-6.1-7.4-11.2-11.4-14.8 9.1 2 17.2 6.6 23.5 13 .6.6 1.1 1.1 1.6 1.7-3.6 1.6-7.6 2.9-11.8 3.9zm-21.4 8c6.5-.2 12.7-.9 18.4-2.1 2.3 5.9 3.8 12.7 4.1 20.1H78.2v-18zm16.3-6.8c-5.1 1-10.5 1.6-16.3 1.8V22.9c4.8 2.8 10.5 8.7 15 17 .5.8.9 1.6 1.3 2.5zm-21.3 1.7c-5.8-.1-11.2-.7-16.3-1.7.4-.8.8-1.7 1.3-2.5 4.5-8.3 10.3-14.2 15-17v21.2zm-21.4-2.9c-4.2-1.1-8.2-2.4-11.8-3.9.5-.6 1.1-1.1 1.6-1.7 6.3-6.3 14.4-10.9 23.5-13-4 3.6-8 8.6-11.4 14.8-.6 1.3-1.3 2.5-1.9 3.8zm-15.1.3c4 1.7 8.4 3.3 13.2 4.5-2.4 6.3-3.9 13.5-4.2 21.2H27.5c.5-9.6 3.9-18.4 9.2-25.7z"/><path fill="#46A9DF" d="M135.8 88.6l.3-.4-.5-.1h-.1c-3 0-6 .2-7.9.9-3.4 1.3-6 3.5-7.2 5.9 1.3 2.1 4.3 2.9 7.1 1.8 3.2-1.1 8.1-7.8 8.3-8.1zM135.7 77l.3-.2-.2-.3v-.1c-1.6-1.4-3.3-2.5-4.6-2.8-2.4-.5-4.7.1-6.3 1.5-.2 2.2 1.1 4.3 3.1 4.7 2 .5 7.4-2.7 7.7-2.8zM116.9 69.6c-1.3-.9-3.4-.6-4.7 1.4-.9 1.4 0 1.9-.4 3s-4.1 5.7-4.6 6.1c-.5.4-2.4 0-1-2.6s.6-5.6-.9-6.5c-2.9-1.6-7.5.1-5.4 4.5.6 1.1.7 2 .6 2.8-10.4-7.8-28.9-4.4-32 9.5-.4 1.6-.5 3.1-.6 4.5.7-.9 1.5-1.7 2.4-2.4.1-.3.3-.5.4-.8.3-5.5 5-9.9 10.5-9.9.9 0 1.8.1 2.6.3.5-.1 1.1-.1 1.6-.1 4.7 0 9 2.2 12.1 5.7 1.1 1 1.9 2.3 2.5 3.7 1.5 2.8 2.3 6.1 2.3 9.6 0 8.1-4.5 15-10.8 17.7-2.9 2.4-6.6 3.9-10.7 4-8.9.2-19.1-4.2-30-7.4-10.9-3.2-16.7 8-16.7 8s5.7-8.9 18.7-2.7c10.3 5 28.7 13.8 44.1 5.3 5.8-3.2 9.3-7.6 11.5-12.4.7-1.5 1.7-3.5 2.4-5.4 1.3-3.9 2.9-5.7 3.3-8 .4-2.9-2.1-1.1-2.1-4.3 0-3.2 3.6-4.8 3-7.5-.6-2.7-2.8-2.3-4.8-1.2-1.5.8-2.6-1.1-1.6-3.7 1-2.5 2.5-3.7 3.8-4.9.9-.9 3.4-.8 4.8-1.8 1.2-.8 2.1-3-.3-4.5z"/><path fill-rule="evenodd" clip-rule="evenodd" fill="#46A9DF" d="M66.6 83.2c-4.9 8.4-1.9 21.2 8.1 25.5 4.7 2 10 1.6 14.1-.6 4.3-2.1 7.2-6.5 7.6-10.6 1.2-8.6-6.3-14.2-10.8-13.4-4.6.4-5.7 3.2-5.1 3.8.6 1 2.5.7 4.3 2 1.7 1 2.6 3.4 1.7 5.8-.7 2.1-4 3.3-7 2.1-2.7-1-4.9-5.8-3.4-10 1.3-4.3 6.4-6.8 10.7-6.9 4.4-.1 8.6 1.8 11.4 5.2 2.8 3.4 4.7 8.2 4.3 13.6-.3 5.3-3 11.6-9.3 15.9 13.3-8 14.1-22.8 8.8-32-2.8-4.9-7.9-8.9-14.6-9.9-6.3-1.1-15.5.5-20.8 9.5z"/></svg>