<svg xmlns:xlink="http://www.w3.org/1999/xlink"  version="1" xmlns="http://www.w3.org/2000/svg" viewBox="0 0 150 150"><path fill="#22322E" d="M124 92.8c-4.9-2.5-9.7-4.5-14.4-5.9-5.3 13.6-18.3 23.3-33.6 23.3-19.9 0-36.1-16.4-36.1-36.6C39.9 53.4 56.1 37 76 37c19.9 0 36.1 16.4 36.1 36.6v1.8c7.6.6 15.4 2.8 23.4 6.7 1 .5 1.9 1.1 2.7 1.7h.3V68.4l-11.3-1.7c-.4-2.6-.9-5.2-1.6-7.7l9.6-7.8-1.7-2.9-4.3-7.5-1.7-2.9-10.5 4c-1.6-2.2-3.4-4.2-5.3-6l4.4-11.3-2.9-1.7-7.5-4.3-3-1.7-6.9 8.5c-2.5-1.1-5.2-1.9-7.9-2.5l-1.8-11.8H70.7L69 21.9c-2.8.4-5.5.9-8.1 1.8l-7.4-9.3-3 1.7-7.4 4.3-2.9 1.7 4 10.4c-2.1 1.7-4.1 3.5-5.9 5.5L27 33.5l-1.7 2.9-4.3 7.5-1.7 2.9 8.8 7.1c-1 2.4-1.7 4.9-2.4 7.5l-12.3 1.9v15.4l11.3 1.7c.3 2.6.9 5.2 1.6 7.7L16.8 96l1.7 3 4.3 7.4 1.7 2.9 10.5-4.1c1.6 2.2 3.4 4.2 5.3 6l-4.4 11.3 2.9 1.7 7.5 4.3 3 1.7 6.9-8.5c2.5 1.1 5.2 1.9 7.9 2.6l1.8 11.8h15.4l1.7-10.8c2.8-.4 5.5-.9 8.1-1.7l7.4 9.3 3-1.7 7.4-4.3 3-1.7-4-10.4c2.1-1.7 4.1-3.5 5.9-5.5l11.4 4.4 1.7-3 4.3-7.4 1.7-3-8.9-7.1c-.1-.1 0-.2 0-.4z"/><path fill-rule="evenodd" clip-rule="evenodd" fill="#005999" d="M47.8 104.9c10.8-24 27.1-31.9 52.8-33.4 13.5-.8 10.1-14.7-2.7-13.2-27.2 3.3-42.6 20.9-50.1 46.6z"/><path fill-rule="evenodd" clip-rule="evenodd" fill="#00A7D1" d="M45.1 121.8C40 98.6 47.5 84.1 65.3 69.2c9.3-7.9-.6-16.1-9.1-8.1-17.9 17-19.6 38-11.1 60.7z"/><path fill-rule="evenodd" clip-rule="evenodd" fill="#74C9E2" d="M54.4 134.8C37.2 122.1 33.8 107.7 37 87c1.7-10.9-10-10.6-11-.1-2.1 22.2 9.2 37.5 28.4 47.9z"/><path fill-rule="evenodd" clip-rule="evenodd" fill="#B8E2F8" d="M66.2 137.2c-19.2 1.6-30.1-6.1-40.2-22-5.3-8.4-13.1-1.3-7.5 6.4 11.7 16.3 28.5 20 47.7 15.6z"/><path fill-rule="evenodd" clip-rule="evenodd" fill="#18467F" d="M56 96.6c24.5-15.8 44.5-13.2 69.3.9 13 7.4 18.3-7.5 5.5-13.9-27.3-13.4-52.3-6.4-74.8 13z"/></svg>