<svg xmlns:xlink="http://www.w3.org/1999/xlink"  xmlns="http://www.w3.org/2000/svg" viewBox="0 0 150 150"><path fill="#6CAB36" d="M29.4 103s-3-9 6.4-17.7c1.2-3.8 2.7-6.9 3.9-9.1-5.8 3.3-19.1 13.1-10.3 26.8z"/><path fill="#6DC6E9" d="M120.9 89c-.5-1.9-1.1-4-1.9-6.2-6.7 9.2-16.4 18.4-28.4 26.1-16 10.3-32.7 15.9-46.3 16.5 1.2 1.2 2.4 2.4 3.7 3.5 13.5-.3 30.4-5.8 46.5-16.1 10.9-7 19.9-15.3 26.4-23.8z"/><path fill="#6DC6E9" d="M122.1 99.8c0-1.2-.1-2.4-.2-3.6-.1-1.4-.2-3.1-.6-4.8-6.7 9.3-16.5 18.6-28.6 26.4-13 8.4-26.4 13.6-38.3 15.7 2.2 1.2 4.5 2.3 7 3.2 11.2-2.1 23.7-7.2 35.8-15 10.1-6.6 18.6-14.2 24.9-21.9z"/><path fill="#00A9DE" d="M92.2 104c10.6-6.9 19.4-14.9 25.9-23.1-.7-1.5-1.4-3-2.4-4.6-2.1-3.9-4.6-7.9-7.5-12-.1-.1-.2-.1-.3-.2 1.1 7.8 3.3 37-23.4 35.6 0 0 16.5-9.9 18.7-26.4 0 0-16.5 21.5-20.4 20.9 0 0-7.2-12.7 16.5-22.6 0 0 5.6-5.2 7.7-8.3-.8-.8-1.4-1.8-1.7-2.9-2.4-3.2-5.1-6.5-8-9.9-15.5-18.4-19.6-37.8-19.6-37.8s-4.1 19.5-19.5 37.8c-6.8 8-12.4 15.3-16.5 22.4 0 0-.8 1.2-2 3.4s-2.7 5.4-3.9 9.1c-.2.7-.4 1.4-.6 2.2 0 .1-.1.2-.1.2l-.6 2.7c.4-.5.8-.9 1.2-1.4-.4.6-.9 1.1-1.3 1.7-.3 1.8-.6 3.6-.7 5.6-.1 0-.1.1-.2.1-.1 1.3-.2 2.6-.2 4 0 2.4.3 5 1 7.5 9.3 3.3 24 1.7 38.5-5.2C87 96 97.4 86 101 76.8c-2.6 10-13.8 21.5-29.7 29.1-13 6.2-26.1 8.3-35.6 6.5 1 2.6 2.4 5.3 4.1 7.8 14.3 1.3 33.9-4.2 52.4-16.2zm4.1-50.6c2 0 3.6 1.7 3.6 3.7s-1.6 3.7-3.6 3.7-3.6-1.7-3.6-3.7 1.6-3.7 3.6-3.7zm-14.9-11c2 0 3.6 1.7 3.6 3.7s-1.6 3.7-3.6 3.7-3.6-1.7-3.6-3.7c.1-2 1.7-3.7 3.6-3.7zM69.9 90c-2 0-3.6-1.7-3.6-3.7s1.6-3.7 3.6-3.7 3.6 1.7 3.6 3.7c0 2.1-1.6 3.7-3.6 3.7zm1.9-22.6c0-4.7 3.7-8.5 8.3-8.5 4.6 0 8.3 3.8 8.3 8.5s-3.7 8.5-8.3 8.5c-4.6.1-8.3-3.8-8.3-8.5z"/><path fill="#6DC6E9" d="M95.5 126.6c-8.4 5.4-16.9 9.5-25.2 12.3 2.1.3 4.7.6 6.7.7h1c27-1.1 42.2-20.3 43.7-36.6-6.6 8.4-15.3 16.6-26.2 23.6z"/><path fill="#8BBC60" d="M71.3 105.7c15.9-7.5 27.1-19 29.7-29.1-3.5 9.2-13.9 19.2-28.2 26-14.5 6.9-29.2 8.6-38.5 5.2-4-1.4-7.1-3.8-8.7-7.2-3.3-7 .6-16.4 9.4-24.9-10.8 9.3-16 20.1-12.2 28 2.1 4.4 6.8 7.2 12.9 8.4 9.5 1.8 22.6-.3 35.6-6.4z"/><path fill="#8BBC60" d="M107 63.3c-2.1 3.1-7.7 8.3-7.7 8.3-23.7 9.9-16.5 22.6-16.5 22.6 3.9.6 20.4-20.9 20.4-20.9-2.2 16.4-18.7 26.4-18.7 26.4 26.8 1.4 24.5-27.8 23.4-35.6-.3-.3-.6-.5-.9-.8z"/><path fill="#42BDE6" d="M88.3 67.4c0-4.7-3.7-8.5-8.3-8.5-4.6 0-8.3 3.8-8.3 8.5s3.7 8.5 8.3 8.5c4.6.1 8.3-3.8 8.3-8.5zm-12.1 5.3l5.5.6c-2.7 1.6-5.5-.6-5.5-.6zm8.8-8c-.7 1.5-2.7 2.1-4.3 1.3-1.6-.8-2.4-2.7-1.6-4.2.7-1.5 2.7-2.1 4.3-1.3 1.6.9 2.3 2.7 1.6 4.2z"/><ellipse transform="rotate(-64.063 81.987 63.3)" fill="#42BDE6" cx="82" cy="63.3" rx="3" ry="3.3"/><ellipse transform="rotate(-64.063 81.987 63.3)" opacity=".6" fill="#FFF" cx="82" cy="63.3" rx="3" ry="3.3"/><path fill="#FFF" d="M81.7 73.2l-5.5-.6c0 .1 2.8 2.3 5.5.6z"/><path fill="#42BDE6" d="M96.3 60.8c2 0 3.6-1.7 3.6-3.7s-1.6-3.7-3.6-3.7-3.6 1.7-3.6 3.7c0 2.1 1.6 3.7 3.6 3.7zm-.4-6.1c.3-.7 1.1-.9 1.9-.6.7.3 1 1.2.7 1.8-.3.7-1.2.9-1.9.6-.7-.3-1.1-1.1-.7-1.8zm1.1 4.9c-1.2.7-2.4-.2-2.4-.2l2.4.2z"/><ellipse transform="scale(-1) rotate(-64.076 -88.427 155.232)" fill="#42BDE6" cx="97.1" cy="55.3" rx="1.3" ry="1.4"/><ellipse transform="scale(-1) rotate(-64.076 -88.427 155.232)" opacity=".6" fill="#FFF" cx="97.1" cy="55.3" rx="1.3" ry="1.4"/><path fill="#FFF" d="M97 59.6l-2.4-.2s1.2.9 2.4.2z"/><path fill="#42BDE6" d="M81.4 49.8c2 0 3.6-1.7 3.6-3.7s-1.6-3.7-3.6-3.7-3.6 1.7-3.6 3.7c.1 2.1 1.7 3.7 3.6 3.7zm-.4-6.1c.3-.7 1.2-.9 1.9-.6.7.3 1 1.2.7 1.8-.3.7-1.2.9-1.9.6-.7-.3-1-1.2-.7-1.8zm1.2 4.9c-1.2.7-2.4-.2-2.4-.2l2.4.2z"/><ellipse transform="rotate(115.964 82.274 44.324)" fill="#42BDE6" cx="82.3" cy="44.3" rx="1.3" ry="1.4"/><ellipse transform="rotate(115.964 82.274 44.324)" opacity=".6" fill="#FFF" cx="82.3" cy="44.3" rx="1.3" ry="1.4"/><path fill="#FFF" d="M82.2 48.6l-2.4-.2s1.2.9 2.4.2z"/><path fill="#42BDE6" d="M69.9 82.6c-2 0-3.6 1.7-3.6 3.7s1.6 3.7 3.6 3.7 3.6-1.7 3.6-3.7-1.6-3.7-3.6-3.7zm-1.7 6l2.4.2c-1.2.7-2.4-.2-2.4-.2zm3.8-3.4c-.3.7-1.2.9-1.9.6-.7-.3-1-1.2-.7-1.8.3-.7 1.2-.9 1.9-.6.7.3 1 1.1.7 1.8z"/><ellipse transform="rotate(-64.036 70.706 84.523)" fill="#42BDE6" cx="70.7" cy="84.5" rx="1.3" ry="1.4"/><ellipse transform="rotate(-64.036 70.706 84.523)" opacity=".6" fill="#FFF" cx="70.7" cy="84.5" rx="1.3" ry="1.4"/><path fill="#FFF" d="M70.6 88.8l-2.4-.2s1.2.9 2.4.2z"/><path fill="#88CEEC" d="M107.9 64.1c.1.1.2.1.3.2 1 .7 2.2 1 3.5 1 3.7 0 6.7-3.1 6.7-6.9 0-3.8-3-6.9-6.7-6.9s-6.7 3.1-6.7 6.9c0 .7.1 1.3.3 2 .3 1.1.9 2.1 1.7 2.9.3.3.6.5.9.8zm3-10.2c.6-1.2 2.2-1.7 3.5-1 1.3.6 1.9 2.2 1.3 3.4-.6 1.2-2.2 1.7-3.5 1-1.3-.7-1.9-2.2-1.3-3.4zm2.2 9.2c-2.2 1.3-4.5-.4-4.5-.4l4.5.4z"/><ellipse transform="scale(-1) rotate(-64.05 -88.012 181.143)" fill="#88CEEC" cx="113.3" cy="55.1" rx="2.5" ry="2.7"/><ellipse transform="scale(-1) rotate(-64.05 -88.012 181.143)" opacity=".6" fill="#FFF" cx="113.3" cy="55.1" rx="2.5" ry="2.7"/><path fill="#FFF" d="M113.1 63.1l-4.5-.4s2.2 1.7 4.5.4z"/><path fill="#88CEEC" d="M102.5 46c1.9 0 3.4-1.6 3.4-3.5s-1.5-3.5-3.4-3.5-3.4 1.6-3.4 3.5 1.5 3.5 3.4 3.5zm-.4-5.8c.3-.6 1.1-.9 1.8-.5.7.3 1 1.1.7 1.7-.3.6-1.1.9-1.8.5-.7-.3-1-1.1-.7-1.7zm1.1 4.6c-1.1.7-2.3-.2-2.3-.2l2.3.2z"/><ellipse transform="rotate(115.944 103.317 40.757)" fill="#88CEEC" cx="103.3" cy="40.8" rx="1.2" ry="1.4"/><ellipse transform="rotate(115.944 103.317 40.757)" opacity=".6" fill="#FFF" cx="103.3" cy="40.8" rx="1.2" ry="1.4"/><path fill="#FFF" d="M103.2 44.8l-2.3-.2s1.2.9 2.3.2z"/></svg>