<svg xmlns:xlink="http://www.w3.org/1999/xlink"  xmlns="http://www.w3.org/2000/svg" width="100" height="100" viewBox="0 0 100 100"><radialGradient id="a" cx="-7673.164" cy="3406.433" r="10.301" gradientTransform="scale(-1 1) rotate(19.816 5686.328 23574.267)" gradientUnits="userSpaceOnUse"><stop offset="0" stop-color="#a5cd39"/><stop offset=".521" stop-color="#37b34a"/><stop offset=".794" stop-color="#009345"/><stop offset="1" stop-color="#006838"/></radialGradient><path fill="url(#a)" d="M45.846 93.14c-4.555-5.203-6.153-10.428-5.976-14.942a30.3 30.3 0 0 0 3.973-2.427c-.602 3.466-.54 7.077.353 10.595-.644-4.255-.135-8.146.83-11.507 1.194-.986 2.314-2.096 3.19-3.319-.254 2.322.524 4.813 1.753 7.116a37.627 37.627 0 0 1-1.607 3.32c-2.444 4.528-2.932 8.039-2.516 11.164z"/><radialGradient id="b" cx="-7677.983" cy="3397.998" r="22.364" gradientTransform="scale(-1 1) rotate(19.816 5686.328 23574.267)" gradientUnits="userSpaceOnUse"><stop offset="0" stop-color="#a5cd39"/><stop offset=".521" stop-color="#37b34a"/><stop offset=".794" stop-color="#009345"/><stop offset="1" stop-color="#006838"/></radialGradient><path fill="url(#b)" d="M28.56 86.929C25.696 64.108 38.873 57.5 46.872 61.462c-7.128 2.252-13.29 8.229-15.863 17.203C35.232 68.01 43.672 64.514 48.17 62.713c3.808 6.142-3.372 12.467-10.676 15.6-4.96 2.136-7.487 5.134-8.934 8.616z"/><radialGradient id="c" cx="-7689.228" cy="3396.518" r="19.588" gradientTransform="scale(-1 1) rotate(19.816 5686.328 23574.267)" gradientUnits="userSpaceOnUse"><stop offset="0" stop-color="#a5cd39"/><stop offset=".521" stop-color="#37b34a"/><stop offset=".794" stop-color="#009345"/><stop offset="1" stop-color="#006838"/></radialGradient><path fill="url(#c)" d="M85.401 57.157c-20.662-16.839-35.261-7.979-36.288 2.314 6.6-5.613 16.259-7.979 26.66-4.991-13.067-2.408-21.695 3.729-26.234 7.035 3.699 7.511 14.328 4.356 21.907-.884 5.147-3.557 9.655-4.19 13.955-3.474z"/><radialGradient id="d" cx="-7685.1" cy="3407.641" r="16.663" gradientTransform="scale(-1 1) rotate(19.816 5686.328 23574.267)" gradientUnits="userSpaceOnUse"><stop offset="0" stop-color="#a5cd39"/><stop offset=".521" stop-color="#37b34a"/><stop offset=".794" stop-color="#009345"/><stop offset="1" stop-color="#006838"/></radialGradient><path fill="url(#d)" d="M60.121 94.902c5.557-9.981 5.552-17.544 3.082-22.327-1.847-.218-3.933-.623-5.872-1.303 2.77 4.196 4.191 9.604 3.554 15.678.052-8.369-3.688-13.814-6.863-17.266-.986-.637-1.821-1.405-2.438-2.318-5.291 3.995-1.329 11.858 3.849 17.053 3.516 3.543 4.647 6.998 4.688 10.483z"/><radialGradient id="e" cx="-7695.602" cy="3405.625" r="11.838" gradientTransform="scale(-1 1) rotate(19.816 5686.328 23574.267)" gradientUnits="userSpaceOnUse"><stop offset="0" stop-color="#a5cd39"/><stop offset=".521" stop-color="#37b34a"/><stop offset=".794" stop-color="#009345"/><stop offset="1" stop-color="#006838"/></radialGradient><path fill="url(#e)" d="M81.127 75.34c-3.138-6.21-6.896-10.38-10.682-12.969-.529.326-1.059.644-1.604.939a34.36 34.36 0 0 1-2.536 1.285 32.16 32.16 0 0 1 8.372 5.261 32.017 32.017 0 0 0-9.544-4.757c-4.141 1.691-9.068 2.672-12.814.647a9.498 9.498 0 0 1-.711-.436c1.396 4.95 9.966 6.822 17.249 6.621 5.432-.145 9.194 1.257 12.27 3.409z"/><radialGradient id="f" cx="-8081.903" cy="2487.232" r="60.855" gradientTransform="scale(-1 1) rotate(14.004 5833.728 33973.739)" gradientUnits="userSpaceOnUse"><stop offset="0" stop-color="#a5cd39"/><stop offset=".521" stop-color="#37b34a"/><stop offset=".794" stop-color="#009345"/><stop offset="1" stop-color="#006838"/></radialGradient><path fill="url(#f)" d="M11.197 6.951c1.655-.415 9.903 2.396 14.199 14.66C29.483 33.263 37.7 45.448 39.792 47.835a8.053 8.053 0 0 1 1.115-.378c2.241-.55 4.954 2.988 6.583 5.54.882 1.391-7.631 6.775-8.046 6.164-3.788-5.604-3.32-8.015-3.32-8.015s.415-.877 1.38-1.801c-1.375-2.863-9.338-15.22-18.427-23.563-9.576-8.788-8.912-17.472-7.88-18.831z"/></svg>