<svg xmlns:xlink="http://www.w3.org/1999/xlink"  xmlns="http://www.w3.org/2000/svg" width="100" height="100" viewBox="0 0 100 100"><g fill="#FFCA05"><path d="M10.168 57.529c.546-2.504 1.757-4.875 3.515-6.742 1.337-1.691 3.087-3.006 4.988-4.011l.118.015c6.746-3.463 14.558-2.858 21.851-3.936.831.007 1.2-.805 1.654-1.352h.063c.971-1.344 2.097-2.563 3.153-3.833l.115.008c1.765-2.016 4.19-3.449 6.864-3.81 3.326-.451 6.69-.503 10.04-.643.734.827 1.45 1.666 2.137 2.522-3.707.1-7.414.177-11.109.491-1.584.082-2.999.805-4.376 1.533-1.336 1.248-2.61 2.566-3.762 3.987l-.048-.003a78.282 78.282 0 0 1-1.691 2.208c7.669.067 15.475-.081 22.951 1.876-11.388-1.167-22.866-.354-34.253.417-2.459.089-4.87.654-7.3.935-2.673.864-5.553 1.573-7.646 3.56l.549-.007c-.132.694-.243 1.425-.671 2.008-1.241 1.809-2.873 3.293-4.553 4.671-.447 2.358.609 4.531 1.47 6.643a5.173 5.173 0 0 0 3.681 1.919c2.606.208 5.232.159 7.82.599-1.927 0-3.855.049-5.775.255 1.843 1.525 4.364 1.134 6.554.872 1.407-.167 2.618-1.119 4.064-1.072 1.219.012 2.445.063 3.664.104 1.724.003 3.142 1.171 4.814 1.399 1.869.266 3.759.31 5.646.324-2.798.79-5.745.414-8.599.285-1.942-.077-4.042-.653-5.849.327-1.388.758-2.917 1.257-4.508 1.35-1.725.099-3.541.313-5.195-.329-1.159-.422-2.06-1.433-3.331-1.559-2.34-.421-4.777-1.728-5.59-4.106h-.033c-1.03-2.149-1.739-4.505-1.422-6.905z"/><path d="M39.434 59.264c1.358 1.137 3.308.732 4.917.594 3.021-.486 6.137-1.442 8.389-3.599l.185.029c.466-1.314.603-2.961-.42-4.054-1.094-1.034-2.785-.823-4.125-.517-2.91.782-5.712 2.181-7.905 4.274h-.2c-.561.94-1.602 2.177-.841 3.273zm9.237-5.622h.048c.536-.515 1.215-.854 1.923-1.046.333-.073.739-.125 1.009.125.247.271.214.674.104.99l-.049-.008c-.55.527-1.307.761-2.045.88-.391.036-.867.133-1.196-.145-.185-.269.066-.573.206-.796zM64.209 63.038c.1-2.127.21-4.719 2.126-6.071-1.735 3.67-1.602 7.998-.11 11.712-1.861-1.211-1.965-3.648-2.016-5.641z"/><path d="M57.016 64.641c1.13-1.736 1.44-3.848 2.112-5.783.673-2.421 2.148-4.74 4.493-5.825 1.577-.798 3.651-.653 4.944.612 1.107.959 1.447 2.438 1.654 3.821-.791-1.163-1.426-2.64-2.858-3.138-1.483-.491-3.098.18-4.209 1.178-1.145.975-1.72 2.399-2.193 3.783l-.025-.003c-.609 2.023-1.03 4.158-2.102 6.008-.428.808-1.203 1.376-2.052 1.672-2.127.776-4.397 1.142-6.661 1.145 2.252-1.23 5.095-1.507 6.897-3.47zM63.581 72.415c1.728-.224 3.264-1.106 4.504-2.296 1.005-1.292 1.581-2.821 2.034-4.386.126-.687.271-1.381.403-2.067a260.036 260.036 0 0 1 4.615-1.603c.029.908.052 1.813.06 2.709-.82.274-1.614.627-2.452.813-.325 1.669-.86 3.302-1.654 4.804l-.06-.011c-1.632 3.426-5.634 4.922-9.233 4.727-3.814-.141-7.994-1.779-9.825-5.333 3.433 2.105 7.58 3.265 11.608 2.643z"/></g><g fill="#035BA9"><path d="M54.867 15.77c.015-.509.919-.503 1.215-.215.012.532-.912.487-1.215.215zM60.472 20.355c-1.048-.103-2.001-.553-2.905-1.056 1.022.067 2.413-.085 2.905 1.056zM28.97 32.314c.465-2.766 1.529-5.402 3.061-7.746 1.71-2.308 3.84-4.368 6.455-5.601 3.578-1.707 7.573-2.057 11.398-2.896.809-.059 1.968-.531 2.407.443-1.706.258-3.475.096-5.155.598.487.262 1.004.539 1.58.546 2.219.177 4.479.089 6.647-.439 1.155-.259 2.381-.705 3.521-.166-1.439 1.012-3.308.384-4.94.716-.561.129-1.47.244-1.41 1 1.211.455 2.541.314 3.773.676-2.511.472-5.024-.398-7.546-.225-5.28.521-10.571 2.621-14.16 6.643-3.634 4.109-4.789 9.651-5.288 14.954-.539-2.735-.801-4.703-.343-8.503z"/><path d="M78.675 64.108c-.296-1.913-.88-3.78-1.16-5.701l-.103.074c-.461-2.001-1.078-3.95-1.71-5.907h-.055c-.488-1.61-1.123-3.176-1.743-4.734-.705-1.72-1.521-3.39-2.312-5.062-1.145-2.146-2.326-4.269-3.67-6.295a60.807 60.807 0 0 0-4.549-5.841c-3.67-3.847-8.212-7.133-13.499-8.233-2.348-.562-4.771-.384-7.156-.365 3.157-.897 6.461-1.43 9.748-1.061 6.402.628 12.251 4.194 16.449 8.965 1.739 1.762 3.187 3.803 4.489 5.904.215.306.432.609.647.904-.252-1.222-.743-2.37-1.256-3.5 2.799.185 5.615.99 7.876 2.71 1.753 1.211 3.075 2.895 4.655 4.305 1.115.609 2.393.953 3.36 1.824l.146-.011a6.902 6.902 0 0 1 2.557 5.705c-.108 1.994-.559 3.981-.288 5.989a16.513 16.513 0 0 1-.104 4.059c-.303 2.07-1.271 4.313-3.319 5.164-1.695.518-3.497.43-5.239.348.025.823.044 1.64.033 2.452.026 3.514 1.956 7.111.357 10.526-.915-1.378-.487-3.127-.725-4.678-.265-1.936-.268-4.004-1.217-5.753-.524 2.481-.465 5.028-.547 7.548-.044 2.479.018 4.961-.008 7.442-.047 1.698-.073 3.544-1.145 4.97-.864-1.536-.376-3.323-.134-4.954.496-2.461.499-4.971.471-7.458.033-3.14-.295-6.256-.849-9.336z"/><path d="M82.359 81.226c-.52-1.193.376-2.43.543-3.618.196 1.185.79 2.89-.543 3.618zM76.581 83.663c.255.502.033 1.721-.669 1.631-.247-.509.101-1.558.669-1.631z"/></g></svg>