<svg xmlns:xlink="http://www.w3.org/1999/xlink"  xmlns="http://www.w3.org/2000/svg" viewBox="0 0 1000 1000"><path fill="#006DB6" d="M444.1 164l95.4 95.4L423 375.8l-90.8 90.8 90.8 90.8 67.5-67.5 67.5 67.5-33.7 33.7 77.8 77.9 33.7-33.7 139.8-139.8 82.4 82.4 51.2-465.1L444.1 164zm-52.2 507.6l67.5 67.5 67.5-67.5-67.5-67.5-67.5 67.5zm-2.6-85.6L314 510.7 238.8 586l75.2 75.2 75.3-75.2zm-90.8 147.9l51.9 51.9 51.9-51.9-51.9-51.9-51.9 51.9zM436 793.6l33.7 33.7 33.7-33.7-33.7-33.7-33.7 33.7zm-111.6 44.1l31.1 31.1 31.1-31.1-31.1-31.1-31.1 31.1zM171.3 726.1l54.5 54.5 54.5-54.5-54.5-54.5-54.5 54.5zm-67.5 0l26 25.9 25.9-25.9-26-25.9-25.9 25.9zm109 98.7l15.6 15.6 15.6-15.6-15.6-15.6-15.6 15.6zm77.9 31.1l10.4 10.4 10.4-10.4-10.4-10.4-10.4 10.4zM205 900l13 13 13-13-13-13-13 13zm140.2 15.6l15.6 15.6 15.6-15.6-15.7-15.6-15.5 15.6zM90.9 879.2l20.8 20.8 20.8-20.8-20.8-20.8-20.8 20.8z"/></svg>