<svg xmlns:xlink="http://www.w3.org/1999/xlink"  xmlns="http://www.w3.org/2000/svg" viewBox="0 0 150 150"><path fill="#F9B42A" d="M135.3 42.8c-8.6-12.6-21.6-21-36.5-23.9-14.8-2.8-29.8.3-42.3 8.7 1.2.3 2 1.1 2.6 2-1.2-1.5-2.9-2.5-5-2.5-3.5 0-6.3 2.8-6.3 6.3s2.8 6.3 6.3 6.3 6.3-2.8 6.3-6.3c0-.6-.1-1.1-.2-1.6 11.2-7.3 24.5-10 37.6-7.5 13.5 2.5 25.2 10.2 33 21.5.5.8 1.4 1.2 2.3 1.2.5 0 1.1-.2 1.6-.5 1.2-.7 1.5-2.5.6-3.7zm-81.2-5.3c-2.2 0-4-1.8-4-4s1.8-4 4-4 4 1.8 4 4-1.8 4-4 4z"/><path fill="#363435" d="M79.8 8.9c-31.2 0-56.7 25.3-57 56.4-1.1 1.1-1.8 2.7-1.8 4.4 0 3.5 2.8 6.3 6.3 6.3s6.3-2.8 6.3-6.3c0-3.1-2.2-5.7-5.2-6.2 1.2-27.3 23.8-49.1 51.4-49.1 1.5 0 2.8-1.2 2.8-2.8s-1.3-2.7-2.8-2.7zM31.3 69.8c0 2.2-1.8 4-4 4s-4-1.8-4-4 1.8-4 4-4 4 1.8 4 4z"/><path fill="#6DA9C6" d="M95.4 26.5c-.3-.1-.6 0-.9 0-1.2-1.4-2.9-2.2-4.8-2.2-3.5 0-6.3 2.8-6.3 6.3s2.8 6.3 6.3 6.3c2.9 0 5.3-2 6-4.6 27.1 5.9 44.8 32.4 39.6 59.8-.3 1.5.7 3 2.2 3.2h.5c1.3 0 2.5-.9 2.7-2.3 6.1-30.8-14.3-60.7-45.3-66.5zm-5.6 8.1c-2.2 0-4-1.8-4-4s1.8-4 4-4 4 1.8 4 4-1.8 4-4 4z"/><path fill="#70C7BA" d="M115.8 45.2c-.1-.1-.2-.2-.4-.3-.5-3-3.1-5.3-6.2-5.3-3.5 0-6.3 2.8-6.3 6.3s2.8 6.3 6.3 6.3c1.6 0 3-.6 4.1-1.5 8.8 9.5 13.7 21.8 13.7 34.9 0 13.7-5.4 26.7-15.1 36.4-1.1 1.1-1.1 2.8 0 3.9.5.5 1.3.8 2 .8s1.4-.3 2-.8c10.8-10.8 16.7-25.1 16.7-40.3s-6.1-29.6-16.8-40.4zm-10.7.7c0-2.2 1.8-4 4-4s4 1.8 4 4-1.8 4-4 4c-2.1 0-4-1.8-4-4z"/><path fill="#167261" d="M126 78.7c0-3.5-2.8-6.3-6.3-6.3s-6.3 2.8-6.3 6.3 2.8 6.3 6.3 6.3c1.5 0 2.8-.5 3.9-1.4-.8.9-2 1.6-3.6 1.6-.4 0-.8 0-1.1-.1-.8 27.7-23.5 50.1-51.4 50.1-1.5 0-2.8 1.2-2.8 2.8s1.2 2.8 2.8 2.8c31.4 0 57-25.6 57-57 0-.3 0-.5-.1-.7.9-1.3 1.6-2.7 1.6-4.4zm-6.3 4c-2.2 0-4-1.8-4-4s1.8-4 4-4 4 1.8 4 4-1.8 4-4 4z"/><path fill="#EF7A22" d="M109.6 110c0-3.5-2.8-6.3-6.3-6.3S97 106.5 97 110c0 1.5.6 2.9 1.5 4-9.5 8.8-21.8 13.6-34.8 13.6-13.7 0-26.7-5.4-36.4-15.1-1.1-1.1-2.8-1.1-3.9 0s-1.1 2.8 0 3.9c10.8 10.8 25.1 16.7 40.3 16.7s29.5-5.9 40.3-16.7c.1-.1.1-.2.2-.2 3-.4 5.4-3 5.4-6.2zm-6.3 4.1c-2.2 0-4-1.8-4-4s1.8-4 4-4 4 1.8 4 4-1.8 4-4 4z"/><path fill="#DC4026" d="M70.7 114c-3.1 0-5.6 2.2-6.2 5.1-13.6-.1-26.5-5.4-36.1-15.1-9.7-9.7-15.1-22.6-15.1-36.4 0-1.5-1.2-2.8-2.8-2.8-1.5 0-2.8 1.2-2.8 2.8 0 15.2 5.9 29.6 16.7 40.3 10.8 10.8 25.1 16.7 40.3 16.7.4 0 .8-.1 1.1-.2 1.2 1.4 2.9 2.2 4.8 2.2 3.5 0 6.3-2.8 6.3-6.3.1-3.4-2.7-6.3-6.2-6.3zm0 10.4c-2.2 0-4-1.8-4-4s1.8-4 4-4 4 1.8 4 4-1.8 4-4 4z"/><path fill="#BB2025" d="M37.9 96.2c-1.6 0-3.1.6-4.2 1.6C15.4 77.6 16 46.4 35.4 26.9c1.1-1.1 1.1-2.8 0-3.9s-2.8-1.1-3.9 0c-22.2 22.2-22.2 58.4 0 80.6l.2.2c.6 2.9 3.1 5 6.2 5 3.5 0 6.3-2.8 6.3-6.3s-2.9-6.3-6.3-6.3zm0 10.3c-2.2 0-4-1.8-4-4s1.8-4 4-4 4 1.8 4 4-1.8 4-4 4z"/></svg>