<svg xmlns:xlink="http://www.w3.org/1999/xlink"  xmlns="http://www.w3.org/2000/svg" width="100" height="100" viewBox="0 0 100 100"><path fill="none" d="M56.784 23.715c-.608.953-1.582 1.25-2.525 1.538-.668.203-1.361.414-1.938.873l-1.046.824-.249-1.31c-.137-.724-.522-1.336-.89-1.93-.246-.386-.483-.777-.663-1.195H27.854V79.39h5.724c.15-.896.225-1.993.408-3.011.137-.811.272-1.617.406-2.422-.117-.953-.388-1.622-.603-2.448-.269-1.025-.471-2.201-.711-3.184-.386-1.579-.526-3.252-.988-4.73-.14-.462-.454-.731-.632-1.103-.699-1.548-1.313-3.158-.479-4.932-.32-.326.729-4.396.38-5.721-.034-.997-.294-2.109-.294-2.109-.663-2.389-.446-6.069.66-7.652.429-.611 1.314-.774 1.882-1.129.157-.237.318-.473.48-.708a.59.59 0 0 1-.034.008c-.117-.588-.157-1.424-.037-2.091-.026-.005-.048-.013-.071-.021l-.037.677c-.206-.179-.029-2.091.229-2.607.159-.327.257-.823.472-1.14.514-.779 1.556-1.426 2.51-1.447.137.029.268.054.405.088.188-.027.343-.157.612-.146.131.103.379.373.602.363.131-.005.271-.12.503-.005.368.185.706.576 1.002.796.191.137.343.062.485.234.246.296.109.609.134 1.042.018.29.251.552.251.901-.009.306-.18.47-.26.693-.011.081-.02.157-.034.236v.045c.143-.016.3.015.437.107a.4.4 0 0 0 .086-.183.438.438 0 0 1 .294.021c.035-.054.065-.105.091-.159a.553.553 0 0 1 .194.004c.229-.345.405-.168.794-.192.234-.017.394-.137.588-.204.223-.077.511-.009.788.074.154.065.308.129.466.197.257.135.488.279.694.43.163-.065.237-.025.443.072.123.052.246.101.366.15.191.135.422.601.437.847.086.069.266.066.359.146.057.102.106.204.154.309l.303.165c.376.385.414 1.015.425 1.619 0 .096 0 .194.003.288l-.117.478c-.06.11-.114.219-.177.329l.083.408c.109.753.412 1.301.349 2.14a5.62 5.62 0 0 1-.098.303c-.123.414-.2.729-.371 1.06-.074.15-.143.299-.223.449.014.481.545.787.494 1.404-.042.417-.345 1.074-.551 1.292l-.482.304c-.209.188-.42.377-.625.565.203.52.262.845-.131 1.452-.095.142-.337.297-.369.508.026.217.032.44.006.651a9.79 9.79 0 0 1-.04.349 3.223 3.223 0 0 1-.091.651c-.083.56-.174 1.102-.277 1.652-.103.606-.454 1.357-.2 2.277.251.92.697 1.748 1.008 2.599.371 1.034.628 2.291.882 3.434.269 1.223.071 2.648.308 3.947.144.799.392 3.736.195 4.262-1.105.189-2.349.263-3.579.331h-.14a6.35 6.35 0 0 1-.314.748c2.605-1.462 5.729.263 7.737 1.054 1.134.34 2.276.678 3.416 1.015 1.156.229.931-1.479 2.013-1.332.572.086.815.624 1.194.909.66.494 1.659 1.816 1.659 1.816.232.057.89 1.854.3 1.959-.437.081-1.535-.913-1.941-1.091-.468-.114-.942-.222-1.411-.331-2.213-.363-4.436-.726-6.651-1.091-1.729-.293-3.713.054-5.353-.249.611 1.071 1.131 2.002 1.345 3.55v.029h16.013V22.514h-4.356a3.26 3.26 0 0 1-.462 1.201zm-13.067 9.428c-.8-.843-1.962-.842-2.336-1.675-.446-.99.299-2.231 1.625-1.634.957-1.09 2.148-.264 2.15.821 0 .914-1.059 1.39-1.439 2.488zm2.379-7.662c-.371-.357-.885-.332-1.068-.691-.213-.428.089-.994.686-.757.4-.501.946-.16.968.32.02.402-.44.635-.586 1.128zm3.876 4.703c-.597.415-1.391-.062-2.279.188.188-.904-.34-1.663.034-2.287.442-.74 1.594-.815 1.802.318 1.149.134 1.152 1.286.443 1.781z"/><path fill="#00B6CC" d="M44.243 75.811c1.64.303 3.625-.044 5.353.249 2.216.365 4.438.728 6.651 1.091.469.109.943.217 1.411.331.406.178 1.505 1.172 1.941 1.091.59-.104-.067-1.902-.3-1.959 0 0-.999-1.322-1.659-1.816-.379-.285-.622-.823-1.194-.909-1.082-.147-.856 1.561-2.013 1.332-1.14-.337-2.282-.675-3.416-1.015-2.008-.791-5.132-2.516-7.737-1.054.117-.225.217-.479.314-.748h.14c1.23-.068 2.474-.142 3.579-.331.197-.525-.051-3.463-.195-4.262-.237-1.299-.04-2.725-.308-3.947-.254-1.143-.512-2.399-.882-3.434-.312-.851-.757-1.679-1.008-2.599-.254-.92.097-1.671.2-2.277a44.44 44.44 0 0 0 .277-1.652c.055-.206.08-.43.091-.651.015-.117.029-.229.04-.349a2.73 2.73 0 0 0-.006-.651c.032-.211.274-.366.369-.508.394-.606.334-.932.131-1.452.205-.188.417-.377.625-.565l.482-.304c.206-.217.508-.875.551-1.292.052-.617-.479-.922-.494-1.404.08-.149.148-.298.223-.449.171-.331.248-.646.371-1.06.035-.101.068-.202.098-.303.063-.838-.24-1.387-.349-2.14l-.083-.408c.063-.109.117-.219.177-.329.04-.157.077-.315.117-.478-.003-.094-.003-.192-.003-.288-.012-.604-.049-1.234-.425-1.619l-.303-.165a4.442 4.442 0 0 0-.154-.309c-.094-.08-.273-.077-.359-.146-.015-.247-.246-.712-.437-.847l-.366-.15c-.206-.097-.28-.137-.443-.072a5.493 5.493 0 0 0-.694-.43c-.158-.068-.312-.132-.466-.197-.277-.083-.565-.151-.788-.074-.194.067-.354.187-.588.204-.389.024-.565-.152-.794.192a.553.553 0 0 0-.194-.004 1.88 1.88 0 0 1-.091.159.438.438 0 0 0-.294-.021.405.405 0 0 1-.086.183.648.648 0 0 0-.437-.107v-.045c.015-.079.023-.155.034-.236.08-.223.251-.387.26-.693 0-.349-.234-.611-.251-.901-.025-.433.112-.746-.134-1.042-.143-.172-.294-.097-.485-.234-.297-.22-.634-.611-1.002-.796-.231-.114-.372 0-.503.005-.223.01-.471-.26-.602-.363-.269-.011-.423.119-.612.146-.137-.034-.268-.059-.405-.088-.954.021-1.996.668-2.51 1.447-.215.317-.313.813-.472 1.14-.257.516-.434 2.428-.229 2.607l.037-.677c.023.008.045.016.071.021-.12.667-.08 1.503.037 2.091a.441.441 0 0 0 .034-.008c-.162.235-.323.472-.48.708-.567.355-1.453.518-1.882 1.129-1.105 1.583-1.323 5.263-.66 7.652 0 0 .26 1.112.294 2.109.349 1.324-.7 5.395-.38 5.721-.834 1.773-.22 3.384.479 4.932.178.371.492.641.632 1.103.462 1.479.603 3.151.988 4.73.24.982.442 2.158.711 3.184.214.826.486 1.495.603 2.448-.134.805-.269 1.611-.406 2.422-.183 1.018-.257 2.114-.408 3.011h12.01v-.029c-.213-1.549-.733-2.48-1.344-3.551z"/><path fill="#455156" d="M57.415 7.441H32.041c-4.202 0-7.603 3.933-7.603 8.781v69.405c0 4.858 3.41 8.786 7.603 8.786h25.374c4.199 0 7.604-3.928 7.604-8.786V16.225c0-4.851-3.414-8.784-7.604-8.784zm2.25 4.196a1.687 1.687 0 1 1-1.69 1.688c0-.937.754-1.688 1.69-1.688zm-6.411 1.009h2.444v.928h-2.444v-.928zm-1.945.25a.423.423 0 0 1 .846 0v.763a.422.422 0 1 1-.846 0v-.763zm-6.58-.163c.768 0 1.391.24 1.391.544 0 .305-.623.553-1.391.553-.769 0-1.391-.249-1.391-.553-.001-.303.622-.544 1.391-.544zm13.164 74.589H31.564c-.56 0-1.011-.458-1.011-1.019 0-.557.451-1.013 1.011-1.013h26.328a1.016 1.016 0 1 1 .001 2.032zm3.708-55.067V79.39H27.854V22.515h21.619c-.208-.492-.329-1.021-.238-1.625.226-1.5 1.44-2.632 2.826-2.632.782 0 1.505.36 2.082 1.02.163-.021.319-.033.477-.033 1.017 0 1.862.487 2.328 1.335.316.58.411 1.269.297 1.936h4.356v9.739z"/><ellipse fill="#FFF" cx="44.729" cy="13.282" rx="1.391" ry=".549"/><path fill="#FFF" d="M59.665 15.011a1.687 1.687 0 1 0-.007-3.375 1.687 1.687 0 0 0 .007 3.375zm0-2.7c.553 0 1.012.454 1.012 1.013a1.013 1.013 0 0 1-2.025 0c0-.559.454-1.013 1.013-1.013z"/><path fill="#00B6CC" d="M59.665 14.333c.553 0 1.012-.454 1.012-1.009 0-.56-.459-1.013-1.012-1.013-.559 0-1.013.454-1.013 1.013 0 .555.454 1.009 1.013 1.009z"/><path fill="#FFF" d="M53.254 12.646h2.444v.928h-2.444zM51.729 14.081a.426.426 0 0 0 .426-.422v-.763a.423.423 0 0 0-.846 0v.763c0 .235.191.422.42.422zM57.893 85.291H31.564c-.56 0-1.011.456-1.011 1.013 0 .561.451 1.019 1.011 1.019h26.328a1.016 1.016 0 0 0 .001-2.032z"/><path fill="#00B6CC" d="M43.006 29.833c-1.326-.597-2.071.644-1.625 1.634.374.833 1.537.833 2.336 1.675.38-1.097 1.439-1.574 1.439-2.488-.002-1.085-1.194-1.91-2.15-.821zM49.529 28.404c-.208-1.134-1.36-1.058-1.802-.318-.374.624.154 1.382-.034 2.287.888-.25 1.682.227 2.279-.188.709-.496.706-1.648-.443-1.781zM56.104 23.283c.978-1.535.046-3.783-2.297-3.11-1.325-2.042-3.504-.964-3.772.836-.226 1.519 1.419 2.569 1.785 4.482 1.526-1.204 3.459-.919 4.284-2.208zM45.713 24.033c-.597-.237-.899.329-.686.757.183.36.697.334 1.068.691.146-.493.606-.726.585-1.128-.021-.48-.566-.822-.967-.32z"/></svg>