<svg xmlns:xlink="http://www.w3.org/1999/xlink"  xmlns="http://www.w3.org/2000/svg" viewBox="0 0 1000 1000"><path fill="none" d="M550 553v-30h202v31.7l5.9-4.3 18.6-15.1 29.1-23.9-28.9-23.9-18.8-15-5.9-4.3V501H550v-30h26.7l-1.2-.5 224.3-223.8 4.3-4.1 29.9 30 5 5 1-10.9 3.7-38.1 5.9-60.7-60.7 5.9-38.1 3.7-11 1 5 5 29.9 29.9-4.3 4.3L545.2 442l-2.2-1.2V463h-22V264.2l24-2.2h4.3l-4.3-4.2-15-17.6-23.9-28.8-23.9 29.2-15.1 17.2-4.3 4.2h4.3l23.9 2.2V463h-23v-22.2l-1.6 1.2-224.5-224.3-4.4-4.3 29.9-29.9 4.9-5-11-1.1-38.1-3.6-60.7-5.9 5.9 60.7 3.7 38.1 1.1 11 4.9-5 30-29.9 4.3 4.3 224.2 223.4-1.2.5H461v30H259v-32.8l-5.3 4.3-18.3 15-29.1 23.9 29 23.9 18.4 15.1 5.3 4.3V523h202v30H435.4l1.2-.1-224.3 223.6-4.2 3.9-30-30.1-5-5-1 10.9-3.7 38.1-5.9 60.7 60.7-5.9 38.1-3.7 11-1-5-5-29.9-30 4.3-4.3 224.6-224.2 1.7 1.2V560h23v202h-28.2l4.3 3.6 15.1 17.4 23.9 28.6 23.9-29.2 15-16.7 4.3-3.7H521V560h22V582.1l2.2-1.2L770 805.1l4.5 4.3-29.9 30-4.8 5 11 1 38.1 3.7 60.7 5.9-5.9-60.7-3.7-38.1-1-11-5 5-29.9 29.9-4.3-4.2L575.5 553h1.2-2.4z"/><path fill="#584732" d="M545.2 442l224.7-224.3 4.6-4.3-29.8-29.9-4.9-5 11-1 38.1-3.7 60.7-5.9-5.9 60.7-3.7 38.1-1 11-5-5-29.9-29.9-4.3 4.3-224.3 223.4 1.2.5h57.5l195.5-194.7 81.2 81.6 27-278.5-278.6 27.1 80.2 81.2L543 383.3v57.5zM466.3 580.9L241.9 805.1l-4.4 4.3 29.9 30 4.9 5-11 1-38.1 3.7-60.7 5.9 5.9-60.7 3.7-38.1 1-11 5 5 30 29.9 4.2-4.2L436.6 553h-58.7L182.4 747.2l-81.2-81.9-27 278.3 278.7-27.1-80.8-81.3L468 639.6v-57.5zM436.6 470.5L212.4 246.7l-4.3-4.1-30 30-4.9 5-1.1-10.9-3.7-38.1-5.9-60.7 60.7 5.9 38.1 3.6 11 1.1-5 5-29.9 29.9 4.3 4.3L466.4 442l1.6-1.2v-57.6L272.1 187.8l81-81.3L74.3 79.6l26.9 278.6 81.2-81.9L377.9 471h57.5zM829.7 747.2L634.2 553h-57.5l-1.2-.1 224.3 223.6 4.3 3.9 29.9-30.1 5-5 1 10.9 3.7 38.1 5.9 60.7-60.7-5.9-38.1-3.7-11-1 5-5 29.9-30-4.2-4.3-225.3-224.2-2.2 1.2v57.5l196.5 195.5-80.7 81.2 278.8 27-26.8-278z"/><path fill="#2E2211" d="M574.3 471H550v30h202v-32.8l5.9 4.3 18.6 15 29.1 23.9-28.9 23.9-18.9 15.1-5.8 4.3V523H550v30h202v68.2l133.3-109.8L752 401.6V471H576.7zM437.8 553H461v-30H259v31.7l-5.3-4.3-18.3-15.1-29.1-23.9 29-23.9 18.4-15 5.3-4.3V501h202v-30H259v-69.4L125.7 511.4 259 621.2V553h176.4zM468 443.2V463h23V264.2l-23.9-2.2h-4.3l4.3-4.2 15.1-17.6 23.9-28.8 23.9 29.2 15 17.2 4.3 4.2H545l-24 2.2V463h22v-79.7l2-114.3h70.9L506.1 135.7 396.2 269H468v171.8zM543 579.7V560h-22v202h28.3l-4.3 3.6-15 17.4-23.9 28.6-23.9-29.2-15.1-16.7-4.3-3.7H491V560h-23v194h-71.7l109.8 133.3L615.9 754H543V582.1z"/></svg>