<svg xmlns:xlink="http://www.w3.org/1999/xlink"  xmlns="http://www.w3.org/2000/svg" width="100" height="100" viewBox="0 0 100 100"><radialGradient id="a" cx="44.056" cy="40.536" r="84.273" gradientUnits="userSpaceOnUse"><stop offset="0" stop-color="#00a69c"/><stop offset="1" stop-color="#00423d"/></radialGradient><path fill="url(#a)" d="M22.927 35.061c.21-.113.631-.332.85-.447 2.216-1.191 4.346-2.541 6.571-3.714.027-2.629 0-5.249-.044-7.876.079-3.215.036-6.439.018-9.646V12.8c-2.506 1.314-4.889 2.83-7.359 4.17a265.928 265.928 0 0 0-.036 5.853c.052 4.082-.026 8.164 0 12.238z"/><radialGradient id="b" cx="44.06" cy="40.538" r="84.311" gradientUnits="userSpaceOnUse"><stop offset="0" stop-color="#00a69c"/><stop offset="1" stop-color="#00423d"/></radialGradient><path fill="url(#b)" d="M34.913 28.228c2.506-1.499 5.073-2.891 7.552-4.424a122.256 122.256 0 0 1-.018-5.029c-.026-1.604-.018-3.207-.018-4.819.018-2.725 0-5.458-.017-8.184-2.523 1.394-4.994 2.882-7.509 4.311 0 2.427 0 4.854-.026 7.28.026 1.297.018 2.594.018 3.89.027 2.322-.044 4.644.018 6.975z"/><radialGradient id="c" cx="44.047" cy="40.539" r="84.292" gradientUnits="userSpaceOnUse"><stop offset="0" stop-color="#00a69c"/><stop offset="1" stop-color="#00423d"/></radialGradient><path fill="url(#c)" d="M89.312 69.906c-.008-2.709-.008-5.406-.025-8.105-2.506 1.42-5.029 2.85-7.5 4.338.018 2.873-.034 5.738 0 8.613-.009 1.84 0 3.68-.017 5.51 2.522-1.348 4.933-2.9 7.481-4.205.132-2.049.018-4.102.061-6.151z"/><radialGradient id="d" cx="44.056" cy="40.532" r="84.283" gradientUnits="userSpaceOnUse"><stop offset="0" stop-color="#00a69c"/><stop offset="1" stop-color="#00423d"/></radialGradient><path fill="url(#d)" d="M10.819 33.695c.07 2.795-.018 5.581.026 8.375 2.523-1.376 4.951-2.927 7.491-4.249.07-2.717-.018-5.424.035-8.139-.017-1.569 0-3.137 0-4.705 0-1.762-.017-3.522 0-5.275-2.155 1.086-4.188 2.392-6.308 3.54-.412.298-1.017.447-1.209.981-.07 1.472 0 2.944 0 4.424-.018 1.684 0 3.365-.035 5.048z"/><radialGradient id="e" cx="44.057" cy="40.528" r="84.297" gradientUnits="userSpaceOnUse"><stop offset="0" stop-color="#00a69c"/><stop offset="1" stop-color="#00423d"/></radialGradient><path fill="url(#e)" d="M89.269 37.847c.01-3.312.192-6.658-.07-9.961-3.268-1.893-6.518-3.82-9.821-5.625-.009 4.529-.044 9.042.044 13.572-.122 4.801-.026 9.62 0 14.429-7.465 4.347-32.242 18.531-36.272 20.931-.824.465-.351 1.596-.508 2.365.043 4.172.333 13.809.333 17.094 3.153 1.832 6.291 3.688 9.497 5.434.026-2.016 0-4.031.018-6.037.034-4.338-.08-8.674.034-13.01 1.122-.291 33.855-19.506 36.781-22.213-.036-5.658.069-11.318-.036-16.979z"/><radialGradient id="f" cx="44.063" cy="40.536" r="84.296" gradientUnits="userSpaceOnUse"><stop offset="0" stop-color="#00a69c"/><stop offset="1" stop-color="#00423d"/></radialGradient><path fill="url(#f)" d="M57.28 33.249c0-.079.079-21.966.132-23.691-3.26-1.919-6.554-3.776-9.839-5.643-.027 2.997-.018 21.676.035 24.313-1.937 1.069-35.212 19.451-36.947 20.485.035.849.043 1.699.07 2.549 0 3.084-.088 6.186.035 9.26-.105 3.873-.053 7.746-.035 11.617 3.364 1.754 6.544 3.857 9.927 5.592-.044-4.074.061-8.131-.062-12.195.14-3.471-.018-6.949.07-10.418.035-.229.088-.658.105-.875 1.42-.8 35.896-20.662 36.509-20.994z"/><radialGradient id="g" cx="44.062" cy="40.534" r="84.288" gradientUnits="userSpaceOnUse"><stop offset="0" stop-color="#00a69c"/><stop offset="1" stop-color="#00423d"/></radialGradient><path fill="url(#g)" d="M42.781 62.205c2.207-1.254 4.38-2.586 6.606-3.83 1.577-.893 3.135-1.84 4.712-2.725 4.749-2.715 9.463-5.501 14.229-8.183 1.682-.929 3.259-2.007 4.994-2.83l-.018-.298c.053-3.803.035-7.605.043-11.407-.008-3.365-.025-6.712.01-10.067a53.106 53.106 0 0 0-.123-4.24c-3.295-1.691-6.325-3.847-9.69-5.38-.034 1.98-.018 3.96-.026 5.949.009 3.005-.008 6.019.026 9.033-.018 3.539-.052 7.071.035 10.61-5.117 3.041-35.046 20.143-36.43 20.906-.763.463-.359 1.488-.465 2.215.062 1.332-.079 14.08.044 15.508a77.995 77.995 0 0 0-.044 3.811c3.355 1.752 6.457 3.986 9.909 5.529.036-1.857.018-3.705.027-5.564 0-1.217.009-2.443.025-3.652-.035-2.365-.035-4.74-.035-7.115 0-1.611-.018-3.223.035-4.818 2.105-1.052 4.05-2.376 6.136-3.452z"/><radialGradient id="h" cx="44.058" cy="40.532" r="84.296" gradientUnits="userSpaceOnUse"><stop offset="0" stop-color="#00a69c"/><stop offset="1" stop-color="#00423d"/></radialGradient><path fill="url(#h)" d="M77.205 68.82c-2.524 1.27-4.881 2.838-7.387 4.17-.019 4.283-.009 8.576-.052 12.852a3.391 3.391 0 0 0 .262 1.525l.019-.332c2.417-1.279 4.713-2.787 7.131-4.039.07-1.867.027-3.74.035-5.6.017-2.873 0-5.72-.008-8.576z"/><radialGradient id="i" cx="44.072" cy="40.519" r="84.311" gradientUnits="userSpaceOnUse"><stop offset="0" stop-color="#00a69c"/><stop offset="1" stop-color="#00423d"/></radialGradient><path fill="url(#i)" d="M65.245 75.707c-2.559 1.322-4.959 2.916-7.518 4.238-.035 2.885 0 5.775-.018 8.666.018 1.84-.018 3.68.018 5.529 2.531-1.367 4.977-2.893 7.518-4.26.018-2.145-.018-4.293-.01-6.438.01-2.575.01-5.151.01-7.735z"/></svg>