<svg xmlns:xlink="http://www.w3.org/1999/xlink"  xmlns="http://www.w3.org/2000/svg" viewBox="0 0 150 150"><path fill="none" d="M119.1 59.9c.1-.6.4-1.2.7-1.8.1-.1.1-.3.2-.4.1-.1.1-.3.2-.4 1.3-2.2 3.4-3.7 5.9-4.4l1.8-.3c.7 0 1.3 0 2 .1h.1c.3 0 .6.1.9.2.1 0 .3.1.4.1.1 0 .3.1.4.1 1.1.4 2.1 1 2.9 1.7.2.2.4.3.5.5l.1.1c.4.4.8.9 1.2 1.4.1.1.2.2.2.4.1.1.1.2.2.3.1.1.2.3.2.4.1.1.1.2.2.3.1.2.1.3.2.5 0 .1.1.2.1.3.1.2.1.4.2.6 0 .1 0 .2.1.3.1.2.1.5.1.7v2.2c0 .2 0 .4-.1.7v.2c0 .2-.1.5-.1.7v.2c-.1.4-.2.8-.4 1.1 0 .1-.1.2-.1.2-.2.4-.3.8-.6 1.1v.1c-.1.2-.2.3-.3.5-.1.1-.1.2-.2.3l-.2.2c-1.3 1.6-3.1 2.8-5.1 3.3-2.5.6-5 .2-7.2-1.1-1-.6-1.9-1.4-2.6-2.3l-4.6 1.6c1.2 1.9 2.8 3.5 4.8 4.7 3.2 1.9 7.1 2.5 10.7 1.6 3.7-.9 6.8-3.2 8.7-6.5.8-1.3 1.3-2.6 1.6-4 1.4-6-1.2-12.2-6.5-15.4-3.2-1.9-7.1-2.5-10.7-1.6-3.7.9-6.8 3.2-8.7 6.5-.8 1.3-1.3 2.6-1.6 4-.4 1.8-.5 3.6-.2 5.3l4.5-1.5c-.2-1-.1-1.9.1-2.8zM48.7 77.3c-2.9-.9-5.9-1.4-8.9-1.4-12.8 0-24.1 8.2-28 20.5-2.4 7.5-1.7 15.4 1.9 22.4 3.6 7 9.7 12.1 17.2 14.5 2.9.9 5.9 1.4 8.9 1.4 12.8 0 24.1-8.2 28-20.5 2.3-7.4 1.6-15-1.4-21.4l-8.2 5v.1c.1.3.2.7.4 1 .1.2.2.5.2.7.1.4.2.8.3 1.1 0 .2.1.4.1.6.1.4.2.8.2 1.3 0 .2 0 .3.1.5.1.4.1.9.1 1.3V106.5c0 .5-.1.9-.1 1.4v.3c-.2 1.1-.4 2.1-.7 3.2-2.6 8.3-10.2 13.8-18.9 13.8-2 0-4-.3-6-.9-5-1.6-9.2-5.1-11.6-9.8-2.4-4.7-2.9-10.1-1.3-15.1 2.2-7 7.9-12 14.9-13.4h.2c.5-.1.9-.2 1.4-.2h.4c.4 0 .9-.1 1.3-.1h2c1.1.1 2.2.2 3.3.5.1 0 .2.1.3.1.4.1.7.2 1.1.3.1 0 .1 0 .2.1.3.1.7.2 1 .4.2.1.5.2.7.3.1 0 .2.1.3.1 1.5.7 2.8 1.5 4.1 2.5l.1.1c.4.3.8.7 1.2 1l.2.2c.4.3.7.7 1 1.1 0 .1.1.1.1.2l8.2-5c-3.5-4.8-8.4-8.4-14.3-10.3zM73.2 81.1l4.4-2.7c-.2-.8-.3-1.6-.3-2.4 0-1.9.7-3.6 1.9-5l-2.6-4.2c-1.5 1.5-2.7 3.4-3.3 5.6-1.1 3-1 6-.1 8.7zM83.2 44c1.9-5.9 1.3-12.1-1.5-17.6-2.8-5.5-7.6-9.5-13.5-11.4-2.3-.7-4.6-1.1-7-1.1-10.1 0-18.9 6.5-22 16.1-1.9 5.9-1.3 12.1 1.5 17.6 2.8 5.5 7.6 9.5 13.5 11.4 2.3.7 4.6 1.1 7 1.1 3.4 0 6.6-.7 9.5-2.1l-4.1-6.4c-1.7.6-3.5 1-5.5 1-1.6 0-3.2-.2-4.7-.7-4-1.3-7.2-4-9.1-7.7-.5-.9-.9-1.9-1.1-2.9-.3-1-.4-1.9-.5-2.9v-.3-1.2-.1c0-.3 0-.6.1-.9v-.5c.2-1.9.8-3.6 1.6-5.2v-.1c.2-.3.4-.7.6-1 0-.1.1-.1.1-.2.5-.8 1.1-1.6 1.7-2.3.2-.2.4-.4.5-.6l.4-.4.6-.6c.1-.1.3-.2.4-.3.2-.2.5-.4.8-.5.1-.1.2-.2.4-.3.3-.2.7-.4 1.1-.6.1 0 .1-.1.2-.1.4-.2.8-.4 1.2-.5.2-.1.3-.1.5-.2.3-.1.5-.2.8-.3.2-.1.4-.1.6-.2.3-.1.5-.1.8-.2.2 0 .4-.1.6-.1.3-.1.7-.1 1-.1h2.2c.3 0 .7 0 1 .1.2 0 .3 0 .5.1.3 0 .6.1.9.2.2 0 .3.1.5.1l1.2.3c.3.1.7.2 1 .4.2.1.3.1.5.2s.4.2.5.3c3 1.4 5.5 3.8 7 6.8 1.9 3.7 2.3 7.9 1 11.8-.8 2.5-2.2 4.7-3.9 6.4l4.1 6.4c3.2-2.9 5.7-6.5 7-10.7zM90.7 63.3c-1.4-.4-2.8-.7-4.3-.7-1.6 0-3.2.3-4.6.8l3 4.7h.7c2.8.1 5.2 1.5 6.6 3.6l6.4-2.2c-1.7-3-4.5-5.1-7.8-6.2zM86.5 90.7c1.8 0 3.6-.4 5.2-1L88 83.8c-.9.3-1.8.5-2.8.4-1.3 0-2.5-.4-3.5-.9l-5.1 3.1c1.5 1.6 3.5 2.8 5.7 3.5 1.3.6 2.8.8 4.2.8zM100.4 75l-7 2.4c-.1 1-.5 1.9-.9 2.7l4.1 6.4c1.5-1.5 2.7-3.4 3.3-5.6.6-1.9.7-4 .5-5.9zM100.6 114.1c1.2 2.3 3.2 4 5.7 4.7 1 .3 1.9.4 2.9.4 4.2 0 7.9-2.8 9.1-6.8.8-2.5.5-5.1-.7-7.4-1.2-2.3-3.2-4-5.7-4.7-1-.3-1.9-.4-2.9-.4-1.2 0-2.4.3-3.5.7l1.8 2.7c.6-.2 1.1-.3 1.8-.3.4 0 .9.1 1.3.1.1 0 .2 0 .3.1.1 0 .2 0 .4.1 1.7.5 3 1.6 3.8 3.2 0 0 0 .1.1.1.2.4.4.9.5 1.3 0 .1.1.2.1.4v.1c0 .2.1.3.1.5v1.3c-.1.8-.3 1.5-.6 2.2-.3.6-.7 1.1-1.1 1.6 0 0 0 .1-.1.1-.2.2-.4.4-.7.6l-.1.1c-.5.4-1 .6-1.6.9 0 0-.1 0-.1.1-.3.1-.6.2-.9.2h-.1c-.3 0-.6.1-.9.1h-.1-.1c-.3 0-.5 0-.8-.1h-.2c-.3 0-.6-.1-.8-.2-.1 0-.3-.1-.4-.1-.1 0-.2-.1-.2-.1-.1 0-.1-.1-.2-.1-1.3-.6-2.3-1.6-3-2.8-.8-1.5-1-3.3-.5-5 0-.1.1-.2.1-.3l-2-3.1c-.5.8-.9 1.6-1.2 2.5-1 2.4-.7 5 .5 7.3z"/><path fill="#BB2025" d="M67.8 114.2c-3.9 12.2-15.1 20.5-28 20.5-3 0-6-.5-8.9-1.4-7.5-2.4-13.6-7.5-17.2-14.5-3.6-7-4.3-14.9-1.9-22.4 3.9-12.2 15.1-20.5 28-20.5 3 0 6 .5 8.9 1.4 5.9 1.9 10.8 5.4 14.3 10l5.5-3.4C64.1 78.2 58 73.6 50.6 71.2c-3.5-1.1-7.2-1.7-10.8-1.7-15.6 0-29.3 10-34.1 24.9-2.9 9.1-2.1 18.8 2.3 27.3s11.8 14.7 20.9 17.6c3.5 1.1 7.2 1.7 10.8 1.7 15.6 0 29.3-10 34.1-24.9 2.9-9.2 1.9-18.7-2.1-26.7l-5.5 3.4c3.2 6.5 3.9 14.1 1.6 21.4z"/><path fill="#8BC541" d="M49.8 26.5c.2-.2.4-.4.5-.6-.1.2-.3.4-.5.6zM64.8 21.9l1.2.3c-.4-.1-.8-.3-1.2-.3zM60.1 21.5h1.3-.2c-.3-.1-.7 0-1.1 0zM76.1 41.7c1.3-4 .9-8.2-1-11.8-1.6-3-4-5.4-7-6.8 5.3 2.6 8.9 8 8.7 14.3-.1 4.2-1.9 8-4.7 10.8v.1c1.8-1.9 3.2-4.1 4-6.6zM48.1 28.7c0 .1-.1.1-.1.2 0 0 .1-.1.1-.2zM47.4 29.9s0 .1 0 0c0 .1 0 0 0 0zM45.8 35.2v0zM45.8 38.2c.1 1 .3 2 .5 2.9-.3-.9-.4-1.9-.5-2.9zM56.6 51.8c1.5.5 3.1.7 4.7.7 1.9 0 3.7-.4 5.5-1-1.8.7-3.7 1-5.8 1-6-.2-11-3.5-13.5-8.4 1.9 3.7 5.1 6.4 9.1 7.7zM45.8 37.9v-1.2c-.1.4-.1.8 0 1.2zM62.9 21.5c-.3 0-.7-.1-1-.1.3.1.6.1 1 .1zM58 21.8c-.3.1-.5.1-.8.2.3-.1.6-.2.8-.2zM59.6 21.5c-.3 0-.7.1-1 .1.4 0 .7 0 1-.1zM64.3 21.8c-.3-.1-.6-.1-.9-.2.3 0 .6.1.9.2zM67.5 22.8c-.2-.1-.3-.1-.5-.2.2 0 .3.1.5.2zM56.7 22.1c-.3.1-.5.2-.8.3.2-.1.5-.2.8-.3zM52.6 24.1c-.3.2-.5.4-.8.5.3-.1.5-.3.8-.5zM51.4 25l-.6.6c.2-.3.4-.5.6-.6zM55.4 22.6c-.4.2-.8.3-1.2.5.4-.2.8-.3 1.2-.5zM54 23.2c-.4.2-.7.4-1.1.6.4-.2.7-.4 1.1-.6z"/><path fill="#1FB799" d="M61.3 60c-2.4 0-4.7-.4-7-1.1C48.4 57 43.6 53 40.8 47.5 38 42.1 37.4 35.9 39.3 30c3.1-9.6 11.9-16.1 22-16.1 2.4 0 4.7.4 7 1.1 5.9 1.9 10.7 5.9 13.5 11.4 2.8 5.5 3.4 11.7 1.5 17.6-1.3 4.2-3.8 7.9-7 10.6l2.7 4.3c4.2-3.4 7.4-7.9 9.1-13.3 2.3-7.1 1.6-14.7-1.8-21.4-3.4-6.7-9.3-11.6-16.4-13.8-2.8-.9-5.6-1.3-8.5-1.3-12.3 0-23 7.9-26.7 19.6-2.3 7.1-1.6 14.7 1.8 21.4 3.4 6.7 9.3 11.6 16.4 13.8 2.8.9 5.6 1.3 8.5 1.3 4.4 0 8.5-1 12.3-2.8L70.8 58c-2.9 1.3-6.2 2-9.5 2z"/><path fill="#BCB5B3" d="M58.5 98.9c-.1-.3-.2-.7-.4-1 .2.3.3.6.4 1zM59.5 104.4c0-.4-.1-.9-.1-1.3.1.4.1.8.1 1.3zM59 100.7c-.1-.4-.2-.8-.3-1.1.1.4.2.7.3 1.1zM59.4 107.9c.1-.5.1-.9.1-1.4 0 .4 0 .9-.1 1.4zM53.6 91.1c.4.3.7.7 1 1.1-.3-.3-.7-.7-1-1.1zM20.9 99.3c-1.6 5-1.1 10.4 1.3 15.1 2.4 4.7 6.5 8.2 11.6 9.8 2 .6 4 .9 6 .9 8.6 0 16.2-5.5 18.9-13.8.3-1 .6-2.1.7-3.2-.8 5.5-3.9 10.6-9 13.9-9.2 5.8-21.4 3.1-27.3-6.1-5.8-9.2-3.1-21.4 6.1-27.3 2.1-1.3 4.3-2.2 6.5-2.6-6.8 1.4-12.6 6.4-14.8 13.3zM37.4 85.7c-.5.1-.9.1-1.4.2.5-.1.9-.2 1.4-.2zM44.7 86.2c.4.1.8.2 1.2.4-.1 0-.1 0-.2-.1-.3-.2-.6-.2-1-.3zM39.5 85.5H41h-1.5zM59.4 102.6c-.1-.4-.1-.8-.2-1.3 0 .4.1.8.2 1.3zM52.1 89.8c-1.2-1-2.6-1.8-4.1-2.5 1.5.7 2.8 1.5 4.1 2.5zM44.4 86.1c-1.1-.3-2.2-.4-3.3-.5 1.1 0 2.2.2 3.3.5zM59.6 104.8v0zM39.1 85.5c-.4 0-.9 0-1.3.1.4 0 .8 0 1.3-.1zM47.7 87.2c-.2-.1-.5-.2-.7-.3.2.1.5.2.7.3zM53.4 91c-.4-.4-.8-.7-1.2-1 .4.3.8.6 1.2 1z"/><path fill="#263C47" d="M99.9 80.9c-.7 2.1-1.8 4-3.3 5.6l2.8 4.3c2.4-2.2 4.3-5 5.4-8.3 1-3 1.1-6.1.6-9.1l-4.8 1.6c0 1.9-.1 4-.7 5.9zM73.1 72.4c.7-2.2 1.8-4 3.3-5.6l-2.7-4.3c-2.4 2.2-4.3 5.1-5.4 8.4-1.4 4.4-1.1 8.9.5 12.9l4.4-2.7c-.9-2.7-1-5.7-.1-8.7zM86.5 90.7c-1.4 0-2.9-.2-4.3-.7-2.2-.7-4.2-1.9-5.7-3.5l-4.3 2.7c2.2 2.5 5.1 4.5 8.5 5.6 1.9.6 3.8.9 5.8.9 2.8 0 5.5-.6 8-1.8l-2.7-4.3c-1.7.7-3.5 1.1-5.3 1.1zM86.5 62.6c1.4 0 2.9.2 4.3.7 3.3 1 6 3.2 7.8 6.2l4.8-1.6c-2.3-4.5-6.3-7.8-11.1-9.3-1.9-.6-3.8-.9-5.8-.9-2.6 0-5.1.5-7.4 1.5l2.7 4.3c1.5-.6 3.1-.9 4.7-.9z"/><path fill="#8BC541" d="M118.9 62.6c0-1 .1-1.9.3-2.9.1-.6.4-1.1.6-1.6-.3.6-.5 1.2-.7 1.8-.2.9-.3 1.8-.2 2.7zM137.9 61.8v0zM137.2 65.8c0-.1.1-.2.1-.2-.1 0-.1.1-.1.2zM137.8 63.3c0-.2.1-.4.1-.7 0 .3 0 .5-.1.7zM137.3 58.6c-.1-.2-.1-.3-.2-.5.1.2.1.4.2.5zM135.1 55.3zM131.6 53.1c-.1 0-.3-.1-.4-.1.1 0 .3 0 .4.1zM136.6 66.9s0 .1 0 0c0 .1 0 .1 0 0zM123.5 70.3c2.2 1.3 4.8 1.7 7.2 1.1 2-.5 3.8-1.7 5.1-3.3-2.3 2.8-6.1 4.2-9.8 3.3-2.1-.5-3.9-1.8-5.1-3.3.7.8 1.6 1.5 2.6 2.2zM136 67.8c.1-.1.1-.2.2-.3 0 .1-.1.2-.2.3zM137.8 63.5c0 .3-.1.5-.2.8v-.1c.1-.2.2-.4.2-.7zM127.9 52.5c.6 0 1.3 0 2 .1-.7-.1-1.4-.1-2-.1zM134.6 54.8s-.1 0 0 0c-.1 0 0 0 0 0zM120.2 57.2c-.1.1-.1.3-.2.4 1.3-2.4 3.5-4.2 6.1-4.8-2.5.6-4.6 2.2-5.9 4.4zM130.7 52.8c-.3-.1-.6-.1-.9-.2.4.1.7.1.9.2zM137.8 60.5c0-.2-.1-.5-.1-.7 0 .3.1.5.1.7zM137.9 61.4v-.5.5zM137 57.8c-.1-.1-.1-.3-.2-.4 0 .2.1.3.2.4zM136.5 57.1c-.1-.1-.2-.2-.2-.4.1.2.2.3.2.4zM137.6 59.6c-.1-.2-.1-.4-.2-.6.1.2.2.4.2.6z"/><path fill="#F9B42A" d="M137.2 47.3c-4-2.4-8.6-3-13.1-1.9s-8.2 3.9-10.6 7.9c-.9 1.5-1.6 3.2-2 4.9-.6 2.4-.6 4.7-.2 7l3-1c-.2-1.7-.2-3.5.2-5.3.3-1.4.9-2.8 1.6-4 1.9-3.2 5-5.5 8.7-6.5 3.7-.9 7.5-.4 10.7 1.6 5.3 3.2 7.9 9.4 6.5 15.4-.3 1.4-.9 2.8-1.6 4-1.9 3.2-5 5.5-8.7 6.5-3.7.9-7.5.4-10.7-1.6-2-1.2-3.6-2.8-4.8-4.7l-3 1c1.4 2.5 3.5 4.7 6.2 6.3 4 2.4 8.6 3.1 13.1 1.9 4.5-1.1 8.2-3.9 10.6-7.9.9-1.5 1.6-3.2 2-4.9 1.8-7.3-1.4-14.9-7.9-18.7z"/><path fill="#8BC541" d="M111.2 115.8s.1 0 .1-.1c0 0-.1 0-.1.1zM110.2 116h0zM108.1 116h.2-.2zM109.3 116.1h-.1.1zM115.5 108.3c0-.1-.1-.2-.1-.4.1.2.1.3.1.4zM115.6 109c0-.2 0-.3-.1-.5.1.1.1.3.1.5zM107.3 103.3c.6-.1 1.2-.3 1.9-.3.4 0 .8.1 1.2.1-.4-.1-.9-.1-1.3-.1l-1.8.3zM107.3 115.8s-.1 0 0 0c-.1 0-.1 0 0 0-.1 0 0 0 0 0zM115.6 109.2v.4c.1-.1 0-.2 0-.4zM113.8 114.1zM106.6 115.6c.1 0 .2.1.2.1-.1-.1-.1-.1-.2-.1zM103.4 112.6c.7 1.3 1.7 2.2 3 2.8-2.2-1.1-3.8-3.3-3.7-5.9 0-.8.2-1.5.4-2.1 0 .1-.1.2-.1.3-.6 1.6-.4 3.4.4 4.9zM111.1 103.4c-.1 0-.2-.1-.4-.1 1.9.5 3.4 1.7 4.3 3.4 0 0 0-.1-.1-.1-.8-1.6-2.2-2.7-3.8-3.2zM113 114.9l.1-.1s-.1 0-.1.1zM115 112.5zM115.6 110.2z"/><path fill="#2FABA3" d="M109 99.9c1 0 2 .1 2.9.4 2.5.8 4.5 2.4 5.7 4.7 1.2 2.3 1.5 4.9.7 7.4-1.2 4-4.9 6.8-9.1 6.8-1 0-2-.1-2.9-.4-2.5-.8-4.5-2.4-5.7-4.7-1.2-2.3-1.5-4.9-.7-7.4.3-.9.7-1.7 1.2-2.5l-1.2-1.9c-.9 1.1-1.5 2.4-2 3.8-.9 3-.6 6.2.8 9 1.5 2.8 3.9 4.8 6.9 5.7 1.2.4 2.4.5 3.6.5 5.1 0 9.6-3.4 11.1-8.3.9-3 .6-6.2-.8-9-1.5-2.8-3.9-4.8-6.9-5.7-1.2-.4-2.4-.5-3.6-.5-1.6 0-3.2.4-4.6 1l1.2 1.8c1.1-.4 2.2-.7 3.4-.7z"/><path fill="#363435" d="M120.9 68c1.3 1.6 3 2.8 5.1 3.3 3.7 1 7.5-.4 9.8-3.3l.2-.2c.1-.1.1-.2.2-.3.1-.2.2-.3.3-.5 0 0 0-.1.1-.1.2-.4.4-.7.6-1.1 0-.1.1-.2.1-.2.1-.4.3-.7.4-1.1v-.1c.1-.3.1-.5.2-.8v-.2c0-.2.1-.4.1-.7v-.4-.5-.4-.5-.4c0-.2-.1-.5-.1-.7 0-.1 0-.2-.1-.3-.1-.2-.1-.4-.2-.6 0-.1-.1-.2-.1-.3-.1-.2-.1-.3-.2-.5 0-.1-.1-.2-.2-.3-.1-.1-.1-.3-.2-.4-.1-.1-.1-.2-.2-.3-.1-.1-.2-.2-.2-.4-.3-.5-.7-1-1.2-1.4l-.1-.1-.5-.5c-.8-.7-1.8-1.3-2.9-1.7-.1 0-.3-.1-.4-.1-.1 0-.3-.1-.4-.1-.3-.1-.6-.1-.9-.2h-.1c-.7-.1-1.3-.1-2-.1-.6 0-1.2.1-1.8.3-2.6.7-4.8 2.4-6.1 4.8-.1.1-.1.3-.2.4-.2.5-.4 1.1-.6 1.6-.2 1-.3 1.9-.3 2.9l-4.5 1.5-3 1-8.1 2.8-4.8 1.6-6.4 2.2c-1.4-2.1-3.8-3.6-6.6-3.6h-.7l-3-4.7-2.7-4.3-.2-.3-2.7-4.3-4.1-6.4v-.1c2.8-2.7 4.6-6.5 4.7-10.8 0-6.1-3.6-11.5-8.9-14.1-.2-.1-.4-.2-.5-.3-.2-.1-.3-.1-.5-.2-.3-.1-.7-.3-1-.4l-1.2-.3c-.2 0-.3-.1-.5-.1-.3-.1-.6-.1-.9-.2-.2 0-.3 0-.5-.1-.3 0-.7-.1-1-.1h-.3H59.7c-.3 0-.7.1-1 .1-.2 0-.4.1-.6.1-.3.1-.5.1-.8.2-.2.1-.4.1-.6.2-.3.1-.5.2-.8.3-.2.1-.3.1-.5.2-.4.2-.8.3-1.2.5-.1 0-.1.1-.2.1-.4.2-.7.4-1.1.6-.1.1-.3.2-.4.3-.3.2-.5.4-.8.5-.1.1-.3.2-.4.3l-.6.6c-.1.1-.3.2-.4.4-.2.2-.4.4-.5.6-.6.7-1.2 1.5-1.7 2.3 0 .1-.1.1-.1.2-.2.3-.4.7-.6 1v.1c-.8 1.6-1.4 3.4-1.6 5.2v.5c0 .3-.1.6-.1.9v1.6c.1 1 .3 2 .5 2.9.3 1 .7 2 1.1 2.9C50 49 55 52.3 60.9 52.5c2 0 4-.3 5.8-1l4.1 6.4 2.7 4.3.2.3 2.7 4.3L79 71c-1.1 1.4-1.8 3.1-1.9 5 0 .8.1 1.6.3 2.4L73 81.1l-4.4 2.7-.1.2-5.5 3.3-8.2 5c0-.1-.1-.1-.1-.2-.3-.4-.7-.7-1-1.1l-.2-.2c-.4-.4-.8-.7-1.2-1l-.1-.1c-1.3-1-2.6-1.8-4.1-2.5-.1 0-.2-.1-.3-.1-.2-.1-.5-.2-.7-.3-.3-.1-.7-.3-1-.4-.4-.1-.8-.3-1.2-.4-.1 0-.2-.1-.3-.1-1.1-.3-2.2-.4-3.3-.5h-2c-.4 0-.9 0-1.3.1h-.4c-.5.1-.9.1-1.4.2H36c-2.3.5-4.5 1.3-6.5 2.6-9.2 5.8-12 18-6.1 27.3 5.8 9.2 18.1 12 27.3 6.1 5.1-3.2 8.2-8.3 9-13.9v-.3c.1-.5.1-.9.1-1.4v-.3-1.4-.4c0-.4-.1-.9-.1-1.3 0-.2 0-.3-.1-.5-.1-.4-.1-.8-.2-1.3 0-.2-.1-.4-.1-.6-.1-.4-.2-.8-.3-1.1-.1-.2-.2-.5-.2-.7-.1-.3-.2-.7-.4-1v-.1l8.2-5 5.5-3.4.4-.2 4.3-2.7 5.1-3.1c1.1.5 2.3.9 3.5.9 1 0 1.9-.1 2.8-.4l3.8 5.9 2.7 4.3 5.4 8.4 1.2 1.9 2 3.1c-.2.7-.4 1.4-.4 2.1 0 2.6 1.5 4.9 3.7 5.9.1 0 .1.1.2.1s.2.1.2.1c.1 0 .3.1.4.1h.1c.3.1.6.1.8.2h.2c.3 0 .5.1.8.1h.2c.3 0 .6 0 .9-.1h.1c.3-.1.6-.1.9-.2 0 0 .1 0 .1-.1.6-.2 1.1-.5 1.6-.9l.1-.1c.2-.2.5-.4.7-.6 0 0 0-.1.1-.1.5-.5.8-1 1.1-1.6.3-.7.6-1.4.6-2.2v-.1-.5-.4-.3c0-.2 0-.3-.1-.5v-.1c0-.1-.1-.2-.1-.4-.1-.5-.3-.9-.5-1.3-.8-1.7-2.4-2.9-4.3-3.4-.1 0-.2 0-.3-.1-.4-.1-.8-.1-1.2-.1-.7 0-1.3.1-1.9.3l-1.8-2.7-1.2-1.8-5.1-8-2.8-4.3-4.1-6.4c.5-.8.8-1.8.9-2.7l7-2.4L105 73l8.1-2.8 3-1 4.8-1.2z"/></svg>