<svg xmlns:xlink="http://www.w3.org/1999/xlink"  xmlns="http://www.w3.org/2000/svg" viewBox="0 0 1500 1500"><path fill="#00B5E3" d="M747.3 236.2c-170.6 0-323.1 78.6-423.3 201.6 116.2-42.9 264.3-68.4 427.5-68.4 157.1 0 300 23.1 414.1 62.6-100-119.5-250.5-195.8-418.3-195.8z"/><path fill="none" d="M1434.3 687.9h.1z"/><path fill="#1D0000" d="M747.3 236.2c167.8 0 318.2 76.2 418.5 195.8 31.5 10.9 60.6 23.1 87.4 36.3-105.3-168.9-292.5-281.7-505.8-281.7-216.8 0-406.8 116.6-511 290.1 26.7-14.2 56.1-27.3 87.8-39C424.3 315 576.8 236.2 747.3 236.2zM1282.6 889.5c-49.9 249.9-271 438.8-535.3 438.8-266.4 0-488.7-191.9-536.4-444.4-20.9-12.5-39.6-25.5-56-39.2 31.4 299.2 285 533.2 592.3 533.2 304.7 0 556.5-229.9 591.3-525.4-15.8 12.1-33.2 24-52.5 35.1l-3.4 1.9z"/><path fill="#00B5E3" d="M1404.8 687.3c0 4.6-.3 9.1-.8 13.6.4-4.5.8-9 .8-13.6zM1401.4 715.8c-32.8-145.5-311.1-259.2-649.8-259.2-338.6 0-616.9 113.7-649.8 259.2 12.2 54.6 58.8 104.6 130.2 146-2.4-18.9-3.9-38.1-3.9-57.8 0-28.6 2.9-56.7 8.1-84C251 688.8 340 551.1 758.5 548.6c170.9 2.5 444.4 42.6 503.2 148 8.7 34.5 13.3 70.5 13.3 107.5 0 19.5-1.3 38.7-3.9 57.8 71.5-41.5 118.2-91.5 130.3-146.1zM1403.6 704.1c-.4 3.6-1.1 7.1-1.8 10.7.7-3.6 1.3-7.2 1.8-10.7zM99.5 700.9c-.5-4.5-.8-9.1-.8-13.6 0 4.6.3 9.1.8 13.6zM101.7 714.8c-.8-3.6-1.3-7.1-1.8-10.7.5 3.6 1.1 7.1 1.8 10.7z"/><path d="M751.7 456.6c338.5 0 617 113.7 649.8 259.2v.1c.2-.4.2-.9.3-1.3.8-3.5 1.3-7 1.8-10.7.2-1 .3-2.1.5-3 .4-4.5.8-9.1.8-13.6 0-159.2-292.3-288-653.1-288-360.6 0-653.1 129-653.1 288 0 4.6.3 9.1.8 13.6.1 1.1.3 2.1.5 3.2.5 3.6 1 7 1.8 10.7.1.4.1.9.1 1.2v-.1c32.8-145.6 311.2-259.3 649.8-259.3z"/><path fill="#1D0000" d="M1230.6 710.2c-55.2-99-312-136.5-472.4-138.9-392.9 2.2-476.4 131.5-490.4 161-5 25.6-7.6 51.9-7.6 78.9 0 249.2 220 451.1 491.4 451.1S1243 1060.4 1243 811.2c.1-34.8-4.3-68.5-12.4-101zm-697.7 344.6c28.5-40.7 91.8-45.6 141.3-10.9 49.5 34.6 66.6 95.8 38.1 136.5-28.5 40.6-91.7 45.6-141.3 10.8-49.4-34.6-66.6-95.8-38.1-136.4zm406.4 152.6s169.5-172.8 13-592.8c0 0 252.9 44.8 258.1 131.8 0 .2 69.1 307.4-271.1 461z"/><path fill="#C2C4C6" d="M555.6 1083c19.7-15.4 55.7-10.6 85.2 12.9 30.9 24.6 43.5 60.8 30 83.4 9-2.4 16.8-7.1 22.3-13.9 19.2-24.2 5.8-66.6-29.8-95.1-35.7-28.3-80.1-31.8-99.3-7.8-4.7 5.8-7.3 12.9-8.4 20.5z"/></svg>