<svg xmlns:xlink="http://www.w3.org/1999/xlink"  xmlns="http://www.w3.org/2000/svg" viewBox="0 0 150 150"><path fill="#17A99C" d="M71.6 9.6H52.8V44c1.6.6 2.7 2 2.7 3.8 0 2.2-1.8 4.1-4.1 4.1-2.2 0-4.1-1.8-4.1-4.1 0-2 1.4-3.6 3.2-4V9.6H24.3v34.6c1.4.6 2.4 2 2.4 3.7 0 2.2-1.8 4.1-4.1 4.1-2.2 0-4.1-1.8-4.1-4.1 0-2.1 1.6-3.8 3.6-4V9.6h-5.5C9.9 9.6 4.5 15 4.5 21.7v55c0 6.7 5.5 12.2 12.2 12.2H36V51.7c-1.7-.5-3-2-3-3.9 0-2.2 1.8-4.1 4.1-4.1 2.2 0 4.1 1.8 4.1 4.1 0 1.9-1.2 3.4-2.9 3.9v37.2h22V45.4c0-6.9 5.5-12.5 12.4-12.5H84V21.7C83.8 15 78.4 9.6 71.6 9.6z"/><path fill="#A3CD39" d="M139.6 40c-2-1.5-4.6-2.5-7.3-2.5h-55c-6.7 0-12.2 5.5-12.2 12.2v55c0 3.6 1.5 6.7 4 9 2.2 2 5 3.2 8.2 3.2h50c5.6 7.6 6.6 16.6-3.3 27.8 6.1-5.3 11.2-13.1 14.7-22.1 0-9.1-2.5-17.6-6.6-25.4-.1-.2-.2-.3-.3-.5-7-2.9-12.8-1.4-17.6 1.4-1.4.8-2.7 1.7-3.9 2.7.1.5.1 1 0 1.5-.1.8-.4 1.7-1 2.4-1.6 2.2-4.4 3-6.3 1.7-1.9-1.3-2.1-4.2-.5-6.4.5-.7 1.1-1.2 1.8-1.6 1.5-.8 3.2-.9 4.5 0 .2.2.4.3.6.5l2.1-1.5c6.2-4.2 12.3-5.5 18.5-3.8-5.1-8.3-11.9-15.8-19.2-22.1-5.3-1.4-9.4.8-12.7 3.4.1.9-.1 1.8-.7 2.7-1 1.3-2.6 1.9-3.8 1.4-.2-.1-.3-.1-.5-.2l-.1-.1c-1.2-.9-1.3-2.8-.2-4.3s3-2 4.3-1.1c.1.1.3.2.4.4 3.7-2.9 7.4-4.2 11.1-4.1-8.5-7.1-17.4-12.7-24.8-16.6 8.3 3.3 16.1 7.3 23.1 11.9-.7-4.9 1-9.2 5.1-13.3.2-.2.4-.5.7-.7-.1-.1-.2-.3-.3-.5-.5-1.1-.1-2.3.8-3.3.3-.3.6-.5 1-.7 1.7-.8 3.6-.3 4.2 1 .4.8.3 1.8-.3 2.6-.4.6-.9 1-1.6 1.4-.9.5-1.9.5-2.8.2l-1.2 1.2c-3 3-5.3 7.1-3.9 12.8-.1.1-.2.1-.3.2 4.7 3.2 9 6.7 12.8 10.5-.4-4.9.8-9.4 3.9-13.8.9-1.3 2-2.6 3.2-3.9.5-.5 1-1.1 1.6-1.6-.2-.2-.3-.4-.4-.7-1-2 .2-4.7 2.7-5.9 2.5-1.2 5.2-.5 6.2 1.5s-.2 4.7-2.7 5.9c-1.4.7-2.9.7-4.1.3-.7.6-1.4 1.2-2 1.9-1.2 1.2-2.3 2.6-3.2 4-2.5 3.8-3.8 8.6-2.4 14.7-.1 0-.1.1-.2.1 3.5 3.8 6.6 8 9.2 12.5.5.9 1 1.8 1.5 2.8 2.1 4 3.8 8.2 5 12.8.7 2.3 1.2 4.7 1.7 7.1.2-.7.3-1.3.5-2v.1c1.7-2.1 2.7-4.8 2.7-7.7v-55c.1-3.7-1.8-7.2-4.7-9.4z"/></svg>