<svg xmlns:xlink="http://www.w3.org/1999/xlink"  xmlns="http://www.w3.org/2000/svg" viewBox="0 0 150 150"><path fill="#5E4230" d="M96.9 5.5H53.1c-23.7 0-42.9 19.2-42.9 42.9v53.3c0 23.7 19.2 42.9 42.9 42.9H97c23.7 0 42.9-19.2 42.9-42.9V48.3c-.1-23.6-19.3-42.8-43-42.8zM83.8 126.2s-13.2 1.5-20.4-.9c0 0-40.3-9.9-27.8-46.4 11.3-33 39.1-58.6 39.1-58.6S105 53 112.5 84.5c3.9 16.5-7.8 37.7-28.7 41.7z"/><path fill="#8BC541" d="M112.5 84.5C105 53 74.7 20.2 74.7 20.2S46.9 45.9 35.6 78.8c-12.5 36.5 27.8 46.4 27.8 46.4 7.2 2.3 20.4.9 20.4.9 20.9-3.9 32.6-25.1 28.7-41.6zm-30.9 35.3s-3.7.4-8.1.4v-.1l.2-12.6 5.5-4.1 9.6-6.9 8.5 2.5c.1 0 .3.1.4.1.4 0 .7-.1 1-.3l3.6-2.8c.7-.5.8-1.5.2-2.2-.5-.7-1.5-.8-2.2-.2l-2.9 2.3-5.4-1.8 6.5-4.7c.7-.5.8-1.5.4-2.2-.5-.7-1.5-.9-2.2-.4l-11.1 8-.6-5.4 3.5-2.5c.7-.5.8-1.5.4-2.2-.5-.7-1.5-.9-2.2-.4l-4.2 3.1c-.5.3-.7.9-.6 1.4l.8 8.2-1.3 1-.1-1.7c0-.9-.7-1.5-1.6-1.5-.9 0-1.5.7-1.5 1.6l.1 3.7-1 .7-.6.4-.1.1-2.9 2.2.1-4.9c0-.1.1-.2.1-.4l.2-12.6 5.2-3.9h-.1l5.7-4.1 8.5 2.5c.1 0 .3.1.4.1.4 0 .7-.1 1-.3l3.6-2.8c.7-.5.8-1.5.2-2.2-.5-.7-1.5-.8-2.2-.2L93.5 77 88 75.4l6.5-4.7c.7-.5.9-1.5.4-2.2-.5-.7-1.5-.8-2.2-.4l-11.1 8-.5-5.6 3.5-2.5c.7-.5.8-1.5.4-2.2-.5-.7-1.5-.9-2.2-.4l-4.2 3c-.4.3-.7.9-.6 1.4l.8 8.2-4.6 3.3.1-4.1c0-.1.1-.3.1-.4l.2-12.6 7.1-5.3.3-.3c.2-.3.3-.6.3-1l-.2-4.5c0-.9-.7-1.5-1.6-1.5-.9 0-1.5.7-1.5 1.6l.1 3.7-4.6 3.4.1-8c0-.9-.7-1.6-1.5-1.6-.9 0-1.6.7-1.6 1.5l-.2 13.7-4.8-2.9.1-4.3c0-.9-.7-1.6-1.5-1.6-.9 0-1.6.7-1.6 1.5V64c0 .6.3 1.1.8 1.3l7.1 4.3-.1 3.7c0 .1-.1.2-.1.3L71 87.3l-4.8-3.2.1-4c0-.4-.1-.7-.3-1l.2-3.7c0-.6-.2-1.1-.7-1.4l-4.4-2.9c-.7-.5-1.7-.3-2.1.4-.5.7-.3 1.7.4 2.1L63 76l-.3 5.6L51.3 74c-.7-.5-1.7-.3-2.1.4-.5.7-.3 1.7.4 2.1l6.6 4.4-5.4 2.1-3-2.2c-.7-.5-1.7-.4-2.2.3-.5.7-.4 1.7.3 2.2l3.7 2.7c.3.2.6.3 1 .3.1 0 .3 0 .4-.1l8.4-2.8 3.7 2.5c.1.3.3.6.6.8l5.9 3.5.3.2s.1 0 .1.1l.8.5-.1 4.3c0 .1-.1.2-.1.3l-.2 13.3-4.8-3.2.1-3.7c0-.3-.1-.5-.2-.7l.3-4.1c0-.5-.2-1.1-.7-1.4l-4.4-2.9c-.7-.5-1.7-.3-2.1.4-.5.7-.3 1.7.4 2.1l3.6 2.4-.3 5.6-11.4-7.6c-.7-.5-1.7-.3-2.1.4-.5.7-.3 1.7.4 2.1l6.6 4.4-5.4 1.8-3-2.2c-.7-.5-1.7-.4-2.2.3-.5.7-.4 1.7.3 2.2l3.7 2.7c.3.2.6.3 1 .3.1 0 .3 0 .4-.1l8.4-2.8 3.4 2.3c0 .5.3.9.7 1.2l7.1 4.3-.1 7.3v.1c-2.4-.1-4.8-.4-6.7-1.1 0 0-35.1-8.7-24.2-40.5 9.9-28.8 34.1-51.1 34.1-51.1s26.5 28.6 33 56.1c3.7 14.3-6.6 32.9-24.7 36.3z"/></svg>