<svg xmlns:xlink="http://www.w3.org/1999/xlink"  xmlns="http://www.w3.org/2000/svg" viewBox="0 0 1000 1000"><path fill="#00A9DE" d="M117.1 523.7c0-193.6 147.6-352.8 336.4-371.1-12-1.2-24.2-1.8-36.6-1.8C211 150.8 44 317.8 44 523.7s167 372.9 372.9 372.9c12.3 0 24.5-.6 36.6-1.8-188.8-18.3-336.4-177.4-336.4-371.1z"/><path fill="#00A9DE" d="M541.3 152.6c-7.3-1.2-14.7-1.8-22.2-1.8-125.1 0-226.4 167-226.4 372.9s101.3 373 226.3 373c7.5 0 14.9-.6 22.2-1.8C426.6 876.5 337 717.4 337 523.7c0-193.6 89.6-352.7 204.3-371.1zM607.5 824c-9.9 0-18 8-18 18 0 9.9 8 18 18 18 9.9 0 18-8 18-18s-8.1-18-18-18zM689.7 763.5c0-10.4-8.5-18.9-18.9-18.9-10.4 0-18.9 8.5-18.9 18.9 0 10.4 8.5 18.9 18.9 18.9 10.5 0 18.9-8.5 18.9-18.9z"/><path fill="#97A822" d="M757.8 661.4c0-16.7-13.5-30.2-30.2-30.2s-30.2 13.5-30.2 30.2 13.5 30.2 30.2 30.2c16.6.1 30.2-13.5 30.2-30.2z"/><path fill="#00A9DE" d="M740.8 576.4c17.7 0 32.1-14.4 32.1-32.1 0-17.7-14.4-32.1-32.1-32.1-17.7 0-32.1 14.4-32.1 32.1-.1 17.7 14.3 32.1 32.1 32.1zM763.4 429.9c0-17.2-14-31.2-31.2-31.2s-31.2 14-31.2 31.2 14 31.2 31.2 31.2c17.3 0 31.2-14 31.2-31.2z"/><path fill="#97A822" d="M704.9 362.8c17.7 0 32.1-14.4 32.1-32.1 0-17.7-14.4-32.1-32.1-32.1-17.7 0-32.1 14.4-32.1 32.1-.1 17.7 14.3 32.1 32.1 32.1z"/><path fill="#00A9DE" d="M668.9 235.3c0-16.2-13.1-29.3-29.3-29.3-16.2 0-29.3 13.1-29.3 29.3 0 16.2 13.1 29.3 29.3 29.3 16.2 0 29.3-13.2 29.3-29.3zM568.8 168.2c-8.4 0-15.1 6.8-15.1 15.1s6.8 15.1 15.1 15.1 15.1-6.8 15.1-15.1-6.8-15.1-15.1-15.1z"/><path fill="#97A822" d="M653.8 183.3c7.3 0 13.2-5.9 13.2-13.2 0-7.3-5.9-13.2-13.2-13.2-7.3 0-13.2 5.9-13.2 13.2 0 7.3 5.9 13.2 13.2 13.2z"/><path fill="#00A9DE" d="M754 232.4c12.5 0 22.7-10.2 22.7-22.7S766.5 187 754 187s-22.7 10.2-22.7 22.7c0 12.6 10.2 22.7 22.7 22.7zM857.9 268.3c0-17.7-14.4-32.1-32.1-32.1-17.8 0-32.1 14.4-32.1 32.1 0 17.7 14.4 32.1 32.1 32.1 17.8.1 32.1-14.3 32.1-32.1zM884.4 377.9c17.7 0 32.1-14.4 32.1-32.1s-14.4-32.1-32.1-32.1c-17.7 0-32.1 14.4-32.1 32.1s14.4 32.1 32.1 32.1z"/><path fill="#97A822" d="M882.5 444.1c0 19.8 16.1 35.9 35.9 35.9 19.8 0 35.9-16.1 35.9-35.9 0-19.8-16.1-35.9-35.9-35.9-19.8 0-35.9 16.1-35.9 35.9z"/><path fill="#00A9DE" d="M924.1 517.8c-19.8 0-35.9 16.1-35.9 35.9 0 19.8 16.1 35.9 35.9 35.9 19.8 0 35.9-16.1 35.9-35.9 0-19.8-16.1-35.9-35.9-35.9zM893.9 642.5c-17.7 0-32.1 14.4-32.1 32.1 0 17.7 14.4 32.1 32.1 32.1 17.7 0 32.1-14.4 32.1-32.1 0-17.7-14.4-32.1-32.1-32.1zM842.8 733.3c-15.1 0-27.4 12.3-27.4 27.4 0 15.1 12.3 27.4 27.4 27.4 15.1 0 27.4-12.3 27.4-27.4 0-15.2-12.2-27.4-27.4-27.4z"/><path fill="#97A822" d="M757.8 814.5c-12 0-21.7 9.7-21.7 21.7s9.7 21.7 21.7 21.7 21.7-9.7 21.7-21.7c0-11.9-9.7-21.7-21.7-21.7z"/><path fill="#00A9DE" d="M686.9 861.8c-6.3 0-11.3 5.1-11.3 11.3 0 6.3 5.1 11.3 11.3 11.3 6.3 0 11.3-5.1 11.3-11.3 0-6.2-5-11.3-11.3-11.3z"/></svg>