<svg xmlns:xlink="http://www.w3.org/1999/xlink"  xmlns="http://www.w3.org/2000/svg" width="100" height="100" viewBox="0 0 100 100"><path fill="#D4D6D7" d="M78.617 84.509c0 1.786-13.859 3.23-30.957 3.23-17.104 0-30.964-1.444-30.964-3.23 0-1.785 13.859-3.229 30.964-3.229 17.098 0 30.957 1.444 30.957 3.229z"/><g fill="#231F20"><path d="M35.396 78.656c31.738-3.324 56.274-36.569 46.698-54.369l.726 1.315c10.119 22.241-17.408 54.082-42.352 57.28-3.222.271-8.086.67-13.07-1.906-3.612-2.081-3.819-2.209-5.845-3.739-3.174-2.641-3.509-2.92-5.487-5.072 2.042 2.01 7.464 7.328 19.33 6.491"/><path d="M86.759 52.517c-.2.869-.438 2.033-.678 2.895-5.097 16.467-20.144 27.376-32.376 29.641l-.239.047c-3.206.446-3.62.503-6.028.583h-2.169c18.085-.232 37.478-15.727 41.49-33.166M69.829 14.328c3.182 7.353.869 18.101-6.834 28.333C44.917 66.639 9.408 74.04 5.691 48.784c.216 1.628.59 3.796.917 5.406.319 1.261.829 2.919 1.22 4.163 5.12 12.735 18.987 10.894 24.713 9.505 25.087-6.052 47.033-36.609 37.526-53.738-.07.064-.15.144-.238.208z"/></g><radialGradient id="a" cx="48.431" cy="3.992" r="102.271" gradientUnits="userSpaceOnUse"><stop offset=".012" stop-color="#26a9e0"/><stop offset=".086" stop-color="#239cd7"/><stop offset=".224" stop-color="#1c79be"/><stop offset=".236" stop-color="#1b75bb"/><stop offset="1" stop-color="#120742"/></radialGradient><path fill="url(#a)" d="M88.824 45.667c-.088 22.16-18.126 40.055-40.286 39.967C26.377 85.538 8.491 67.509 8.57 45.347c.097-22.16 18.134-40.062 40.286-39.966 22.168.087 40.056 18.125 39.968 40.286z"/><path fill="#1694D2" d="M55.236 14.766c-5.375-.933-8.182-1.203-14.139-.933 2.328 1.276 2.815 1.531 5.048 3.103-28.021 12.151-39.217 38.93-28.404 51.498 2.711 2.798 2.935 3.038 5.04 4.704 3.206 2.306 3.333 2.393 5.406 3.525-18.102-11.165.877-39.968 26.125-48.292 1.101 3.285 1.195 3.548 2.153 6.635 2.088-3.756 3.252-5.599 6.027-9.099 2.36-2.799 3.645-4.147 6.126-6.172-2.633-1.372-7.035-3.677-13.382-4.969"/><path fill="#1694D2" d="M49.08 40.508c-3.174-.176-3.828-.208-7.073-.064.917.749 2.153 1.747 3.062 2.512-18.206 14.856-21.586 36.649-.12 38.563l1.994.089c3.157-.04 3.413-.048 5.582-.296l.207-.024c-17.687 1.659-20.471-12.383-10.247-24.624 2.193-2.623 4.889-5.056 8.015-7.232.605.973 1.419 2.271 2.041 3.245.358-2.528.423-2.982 1.093-5.525.806-2.6.965-3.063 2.017-5.591-2.249-.48-4.027-.863-6.571-1.053M29.328 13.945c-2.775.957-3.278 1.125-5.669 2.225.438.191 1.021.438 1.467.646C11.074 28.53 8.395 39.415 8.618 46.487c.176 1.507.446 3.501.702 4.993.304 1.164.694 2.719 1.053 3.859-3.517-13.404 7.304-27.272 17.647-35.07.319.781.75 1.834 1.077 2.607 1.547-2.927 1.787-3.381 3.397-5.885 1.651-2.369 1.898-2.727 3.525-4.649-2.617.511-4.339.853-6.691 1.603"/><g><path fill="#D0D2D3" d="M54.032 11.13c-5.733-.861-8.7-1.061-15-.558 2.504 1.332 3.03 1.61 5.438 3.277C15.197 28.347 4.2 58.537 16.066 72.165c2.959 3.039 3.198 3.278 5.487 5.072 3.477 2.456 3.621 2.551 5.845 3.739-19.537-11.809-.375-44.536 26.1-54.663 1.276 3.613 1.379 3.899 2.504 7.304 2.09-4.25 3.254-6.339 6.068-10.334 2.416-3.19 3.731-4.737 6.3-7.089-2.839-1.436-7.583-3.844-14.338-5.064"/><path fill="#D0D2D3" d="M47.979 38.034c-3.429-.055-4.146-.07-7.663.24 1.029.83 2.4 1.93 3.429 2.775-19.099 18.029-21.841 43.389 1.523 44.633h2.169c3.413-.192 3.7-.208 6.028-.583l.239-.048c-19.123 2.735-22.727-13.396-12.168-28.029 2.257-3.134 5.072-6.077 8.373-8.725a310.706 310.706 0 0 0 2.353 3.652c.279-2.941.327-3.469.94-6.442.774-3.047.918-3.597 1.954-6.564-2.456-.446-4.401-.804-7.177-.909M26.561 12.661c-2.902 1.125-3.429 1.34-5.933 2.616a39.29 39.29 0 0 1 1.579.646C7.709 29.152 5.221 41.089 5.691 48.784c.224 1.628.583 3.796.917 5.406.343 1.253.813 2.927 1.22 4.163-4.154-14.472 6.867-29.927 17.568-38.763.351.846.845 1.97 1.22 2.799 1.54-3.237 1.778-3.739 3.397-6.523 1.683-2.623 1.938-3.038 3.58-5.175-2.75.646-4.561 1.077-7.032 1.97"/></g></svg>