<svg xmlns:xlink="http://www.w3.org/1999/xlink"  xmlns="http://www.w3.org/2000/svg" viewBox="0 0 1000 1000"><path fill="#64C4E8" d="M230.3 507.9c0-148.6 123.7-269.1 268.7-269.5V77h-16.8l-30.7 75.5c-12.9 1.8-25.7 4.4-38.1 7.4l-50.1-59-27 9.8-3 79.1c-12.3 6.3-24.2 13.2-35.7 20.8l-65.1-37.1-22 18.4 23.2 72.1c-10.3 10.9-20 22.3-28.9 34.4l-70.3-12-14.4 24.8 44.3 57.1c-6.3 14.7-11.7 29.8-16 45.4L81 426l-5 28.3 60 37.7c-.2 5.2-.4 10.5-.4 15.8 0 11.2.6 22.3 1.6 33.3l-58.7 34.3 5 28.2 70.1 15.1c5.1 15.2 11.2 30 18.2 44.3l-44.5 53.7 14.3 24.9 74.2-10.2c9.4 11.5 19.5 22.3 30.2 32.6l-24.5 69 22 18.4 69.5-36.7c11.7 6.9 23.8 13.2 36.3 18.8l.4 76.3 27 9.8 54.4-60.1c12.5 2.4 25.3 5.1 38.3 6.3l27.1 74.1h2.5V777.4c-145-.4-268.7-120.9-268.7-269.5z"/><path fill="#00A9DE" d="M864.8 507.9c0-5.3-.1-10.6-.4-15.8l60-37.7-5-28.3-67.4-12.3c-4.3-15.6-9.7-30.7-16-45.4l44.3-57.1-14.3-24.8-70.3 12c-8.9-12-18.5-23.5-28.9-34.4L790 192l-22-18.4-65.1 37.1c-11.5-7.6-23.4-14.5-35.7-20.8l-3-79.1-26.9-9.8-50.1 59.1c-12.5-3.1-25.2-5.8-38.1-7.6L518.3 77H499v161.4h1c148.9 0 269.6 120 269.6 268.9 0 76.4-31.7 142.7-82.8 193.7h8.2v14h14v15h7v7h15v7h7v15h-29v22h7v21h15v29h-18l43.9 21.8 22-19.1-24.6-69.2c10.7-10.2 20.8-21.3 30.2-32.8l74.2 10.1 14.3-24.9-44.5-53.7c7-14.3 13.1-29.1 18.2-44.3l70.1-15.1 5-28.2-58.7-34.3c1.1-11 1.7-22.1 1.7-33.4zM702 824.1V810h-7v-22h-15v-15h-7v8h-7v14h-15v-61.9c-43 28-94.9 44.3-149.6 44.3H499V940h4.9l27.1-74.1c13-1.2 25.8-3.4 38.3-5.8l54.4 59.9 27-9.9.4-76.4c12.5-5.6 23.7-11.9 35.4-18.9l15.5 8.6v.7z"/><path fill="#D77D31" d="M651 687.9c-29 20-54 35.1-84.9 44 23.3-20.1 42.4-50.7 56.5-88.2 18.4 3.9 34.8 9.1 53.3 15.6-5 5.8-9.8 11.4-17.8 16.6v3h15v9.7c51-45.6 77.4-109.7 77.4-180.7 0-138-112.3-250.2-250.2-250.2C362.2 257.7 250 370 250 507.9c0 138 113.6 250.2 251.6 250.2C557 758.1 608 740 651 709.5v-21.6zM645.1 498c-.8-37-6.9-76.6-17.3-109.7 19.7-5 39.7-11.8 60-19.8 27.1 36.6 43.7 85.5 45.4 129.5h-88.1zM491 740.5c-36-4.7-73.6-41.8-95.3-96.6 27-5.1 59.3-9.4 95.3-10.7v107.3zM390.2 628.9c-10.8-32.7-16.9-72.9-17.8-109.9H491v97.1c-36 1.4-72.4 7.4-100.8 12.8zM491 275.4v111.9c-36-.8-69.7-5.5-96.9-11.1 21.6-57.2 53.9-96 96.9-100.8zm112.1 101.2c-34 7.3-61.1 10.4-97.1 10.7v-112c43 4.9 75.6 43.9 97.1 101.3zM491 404.2V498H372.4c.8-37 6.4-74.6 16.5-106.4 28.6 6.1 66.1 11.8 102.1 12.6zM506 519h122c-.8 37-8.2 74.6-18.4 106.5-35.3-6.4-67.6-10-103.6-9.8V519zm0-21v-93.7c36-.3 68.1-4.3 104-12.1 9.9 31.6 17.2 68.8 18 105.8H506zm116.2-125.1c-14.1-37.8-34-68.7-57.4-88.9 44 12.7 82.6 38 111.8 71.7-18.4 7-36.6 12.7-54.4 17.2zm-186.5-89c-23.4 20.1-43.2 50.8-57.3 88.5-25.3-6.1-44.2-12.7-54.6-16.7 29.2-33.8 67.9-59.1 111.9-71.8zM312.6 369c9.1 3.7 30.3 11.2 60.2 18.5-10.5 33.2-16.7 73.5-17.5 110.5h-88.1c1.8-44 18.4-92.5 45.4-129zm42.8 150c.8 37 7.5 79.2 18.7 113.3-33 7.2-54.9 15.2-60.5 17.1C286 612.6 269.1 563 267.3 519h88.1zm24.4 128.2c14 35.9 33.3 65.3 55.9 84.7-43.4-12.5-81.5-37.3-110.6-70.3 9.7-3.1 28.7-8.8 54.7-14.4zM506 740.5V632.8c36-.2 63.2 1.9 96.6 7.8-21.6 56.6-53.6 95.1-96.6 99.9zm121.5-111.7C638 595.6 644.3 556 645 519h88.1c-1.7 44-18.1 91.7-44.7 128.1-20.2-7.4-40.6-13.9-60.9-18.3z"/><path fill="#FFF" d="M709.1 824H724v-14.4V824zM709 788v14h7v-14h-7zM702 804v-2h-6v2h6z"/><path d="M731 802h-7v22h-22v-.6 7.6h29v-29zM702 804h-6v-2h-3v5h9v-3zM702 759v22h7v7h7V781h-7v-22h-7zM695 781h-15v-8h-7v8h-7.4 7.4v-8h7v15h15v-7z"/><path fill="#C6C8CA" d="M731 757.4V752h-7v-8h-15v-7h-7v-14h-7v-8h-15v-14h.5-7.5v-7h-15v-8h-7v104.6-2.6h15v-7h7v-8h7v8h15v21h-2.1 9.1v22h22v-22h-15v-21h-7v-22h29v1.8z"/></svg>