<svg xmlns:xlink="http://www.w3.org/1999/xlink"  xmlns="http://www.w3.org/2000/svg" viewBox="0 0 150 150"><path d="M42.8 124.2c.6 1.9.8 3.9.1 5.3-1.5 3 .6 7.1 4.6 9.1 4.1 2.1 8.6 1.4 10.1-1.6.9-1.9 3.7-3 6.1-3.5-7.2-1.5-14.5-4.7-20.7-9.6-.1.2-.1.2-.2.3zM139.1 79.6c-.3-4.5-3.1-8.1-6.4-8-3.3.2-7.3-4.5-7.9-6.3-.7-1.8 1-4.7 3.8-6.5 2.8-1.8 3-6.4.6-10.2-2.5-3.8-6.8-5.5-9.5-3.7-2.8 1.8-8.6-.3-10.1-1.5s-1.4-4.6.1-7.5c1.5-3-.6-7.1-4.6-9.1-3.3-1.7-6.8-1.5-8.9.1 13 15.2 26.9 35.9 26.9 54.9 0 36.1-26.9 52.9-49.5 52.9-1.5 0-3.1-.1-4.7-.2 1.1 1.2 1.9 3.3 2 5.5.2 3.3 4 5.8 8.6 5.6 4.6-.2 8.1-3.1 8-6.4-.2-3.3 4.5-7.3 6.3-8 1.8-.7 4.7 1.1 6.5 3.8 1.8 2.8 6.4 3.1 10.2.6 3.8-2.5 5.5-6.8 3.7-9.6-1.8-2.8.3-8.6 1.5-10.1s4.6-1.4 7.5.1c2.9 1.5 7-.6 9.1-4.6 2.1-4 1.4-8.6-1.6-10.1s-4-7.6-3.7-9.5c.3-1.9 3.3-3.5 6.6-3.7 3.2-.1 5.7-4 5.5-8.5z"/><path fill="#BB2025" d="M83.4 107.6c0-3.2-2.6-5.8-5.8-5.8-3.2 0-5.8 2.6-5.8 5.8 0 3.2 2.6 5.8 5.8 5.8 3.2 0 5.8-2.6 5.8-5.8zM109.8 90.2c0-3.2-2.6-5.8-5.8-5.8-3.2 0-5.8 2.6-5.8 5.8 0 3.2 2.6 5.8 5.8 5.8 3.2 0 5.8-2.6 5.8-5.8zM73.3 31.1c0-3.2-2.6-5.8-5.8-5.8-3.2 0-5.8 2.6-5.8 5.8 0 3.2 2.6 5.8 5.8 5.8 3.2 0 5.8-2.6 5.8-5.8zM81.1 71c0-3.2-2.6-5.8-5.8-5.8-3.2 0-5.8 2.6-5.8 5.8 0 3.2 2.6 5.8 5.8 5.8 3.2 0 5.8-2.6 5.8-5.8z"/><path fill="#BB2025" d="M68.3 110H43.4l-3.4 8.6c9.2 9.4 21.6 13.8 32.9 13.8 21.4 0 47-16.4 47-51.6 0-18.2-12.6-38-24.8-52.7-11.3-13.7-22.2-23-22.2-23S48.7 26 35 51h25l2-7.4 1.1-4.1c-3-1.6-5.1-4.8-5.1-8.4 0-5.2 4.3-9.5 9.5-9.5s9.5 4.2 9.5 9.5c0 5.2-4.3 9.5-9.5 9.5-.3 0-.6-.1-.8-.1l-1.8 6.6-.6 2.1-1.4 4.8H33.1c-2.6 5-4.6 10-5.9 16h38.7c.5-4 4.5-8.5 9.4-8.5 5.2 0 9.5 4.3 9.5 9.5s-4.3 9.6-9.5 9.6c-4.3 0-7.9-2.6-9.1-6.6H26.4c-.4 2-.6 5-.6 7.3 0 2.9.2 5.7.5 8.7h68.2c.5-6 4.5-8.9 9.4-8.9 3.5 0 6.6 1.8 8.3 4.6.8 1.4 1.2 2.9 1.2 4.6 0 3.5-1.9 6.5-4.7 8.2-1.4.8-3 1.3-4.8 1.3-4.3 0-7.9-2.8-9.1-6.8H26.9c1.7 9 5.4 16 10.2 21.9l3.6-9.9h27.5c.8-4 4.7-7.4 9.3-7.4 5.2 0 9.5 4.5 9.5 9.7 0 5.2-4.3 9.8-9.5 9.8-4.5 0-8.2-3.1-9.2-7.1z"/></svg>