<svg xmlns="http://www.w3.org/2000/svg" width="150" height="150" viewBox="0 0 150 150"><path fill="none" d="M73.432 37.426c-.62-.185-1.253-.369-1.921-.555a131.724 131.724 0 0 0-15.574-3.415c-.535-.084-1.081-.158-1.63-.235-1.091 4.132-1.928 8.419-2.607 12.745a36.806 36.806 0 0 1 19.067-7.528c.829-.323 1.718-.659 2.665-1.012zM39.838 88.706a130.67 130.67 0 0 1-5.297-3.317c-5.498-3.67-10.715-7.735-15.337-12.339-1.653 2.09-3.22 4.314-4.572 6.712-1.862 3.443-3.373 7.335-3.293 11.143.034.921.151 1.9.386 2.708.128.396.174.729.442 1.292l.325.769c-.009-.027.082.199-.013-.04l.046.071.087.147.176.286c.917 1.556 2.271 2.85 3.917 3.869 3.32 2.05 7.637 2.909 12.018 3.302 4.886.369 9.956.054 15.078-.669a132.798 132.798 0 0 1-1.578-8.972 35.665 35.665 0 0 1-2.385-4.962zM71.032 38.417a37.51 37.51 0 0 1 3.231-.149c.694 0 1.381.024 2.068.062-.847-.272-1.752-.558-2.716-.85-.914.326-1.78.635-2.583.937zM41.899 53.071a124.486 124.486 0 0 0-5.204 3.586c-4.067 2.994-8.432 6.542-12.609 10.843 4.046 3.474 8.557 6.629 13.257 9.565a36.86 36.86 0 0 1 3.966-18.576c.164-1.805.351-3.617.59-5.418z"/><path fill="none" d="M71.552 36.718c.718.22 1.396.433 2.06.643.606-.226 1.228-.449 1.883-.685 4.164-1.507 9.299-3.139 15.292-4.675 1.327-.325 2.712-.647 4.125-.956a78.575 78.575 0 0 0-2.453-5.478c-1.674-3.352-3.642-6.731-6.091-9.833-2.476-3.035-5.494-5.909-9.048-7.288-.869-.318-1.816-.58-2.652-.674-.415-.033-.742-.117-1.364-.083l-.834.009c.032.002-.213-.002.046.006l-.088.013-.169.027-.331.046c-1.788.259-3.498 1.014-5.066 2.154-3.164 2.291-5.601 5.953-7.632 9.858-1.973 3.925-3.503 8.203-4.724 12.663.521.096 1.045.196 1.553.299 6.06 1.253 11.264 2.646 15.493 3.954zM100.653 48.286a173.041 173.041 0 0 1 10.963 5.982c4.404 2.665 9.204 5.804 14.024 9.714 1.866-1.848 3.614-3.761 5.185-5.774 2.666-3.5 4.931-7.282 5.653-11.125.768-3.807-.335-7.509-3.128-10.114-2.77-2.623-6.661-4.125-10.466-5.063-3.854-.885-7.75-1.218-11.496-1.298-5.212-.101-10.129.363-14.67 1.052 1.445 4.633 2.477 9.049 3.3 13.121.233 1.209.439 2.359.635 3.505z"/><path fill="none" d="M75.544 36.827c-.606.197-1.188.395-1.752.59 1.016.33 1.966.641 2.846.938a36.756 36.756 0 0 1 21.621 8.772c.576.274 1.163.556 1.766.854-.218-1.003-.432-2.003-.688-3.048-1.02-4.08-2.312-8.505-4.094-13.042-1.479.243-2.914.509-4.301.786a132.248 132.248 0 0 0-15.398 4.15zM124.429 65.159c-4.399-4.132-8.957-7.492-13.182-10.305a130.375 130.375 0 0 0-10.534-6.256c.058.336.112.672.17.997 6.402 6.651 10.349 15.683 10.349 25.638 0 .132-.011.262-.011.392 4.705-3.233 9.216-6.688 13.208-10.466zM100.245 48.943c-.049-.215-.104-.451-.151-.666-.43-.228-.84-.436-1.256-.649.478.427.951.863 1.407 1.315zM22.811 66.37c4.606-4.103 9.231-7.44 13.484-10.29a166.412 166.412 0 0 1 5.676-3.566c.331-2.471.725-4.924 1.197-7.348.853-4.333 1.927-8.612 3.268-12.779-3.503-.233-7.191-.291-11.023-.036-3.738.257-7.611.773-11.417 1.84-3.753 1.117-7.571 2.802-10.21 5.552-.626.678-1.236 1.455-1.641 2.187-.187.371-.391.639-.602 1.226l-.312.775c.014-.029-.088.197.021-.038l-.021.083-.042.165-.083.328c-.448 1.748-.411 3.621.037 5.502.896 3.799 3.345 7.459 6.166 10.833 1.676 1.948 3.534 3.796 5.502 5.566zM129.518 70.433c-4.414 4.84-9.45 9.169-14.787 13.11a125.705 125.705 0 0 1-5.555 3.845 36.93 36.93 0 0 1-7.02 12.096c-.042.389-.093.783-.14 1.18 6.618.892 13.173 1.216 19.379.446 4.363-.588 8.639-1.656 11.862-3.864 3.239-2.148 5.076-5.549 4.938-9.364-.101-3.814-1.792-7.632-3.82-10.982-1.454-2.325-3.115-4.466-4.857-6.467zM101.091 89.698a30.952 30.952 0 0 0 3.589-11.695 1.303 1.303 0 0 1-.176-.121l-9.263-8.525-8.933 2.932-3.79 11.672 5.835 7.603 12.519-1.861a.768.768 0 0 1 .219-.005zM92.063 107.641a36.776 36.776 0 0 1-17.8 4.563 36.768 36.768 0 0 1-16.091-3.68 119.22 119.22 0 0 1-4.158.75c1.841 7.909 4.314 15.548 8.052 22.109 2.223 3.802 4.856 7.334 8.132 9.465 3.232 2.162 7.077 2.543 10.547.957 3.479-1.566 6.354-4.588 8.666-7.751 2.285-3.231 4.076-6.705 5.576-10.138 2.29-5.275 3.823-10.486 4.944-15.346a122.829 122.829 0 0 1-7.828-.924c-.01-.001-.024-.005-.04-.005zM101.49 100.595c.024-.142.049-.288.07-.43-.119.134-.246.26-.369.391.101.012.199.021.299.039zM81.062 105.188a.774.774 0 0 1 .059-.21l4.878-11.474-5.555-7.24H66.781l-5.555 7.24 4.878 11.474c.027.068.046.137.058.21 2.42.596 4.912.894 7.45.894a31.193 31.193 0 0 0 7.45-.894zM52.908 66.449l9.238 3.039 9.94-7.224v-9.686L61.127 46.44a.888.888 0 0 1-.175-.131 31.214 31.214 0 0 0-10.529 7.643c.03.064.053.129.065.2l2.42 12.297zM94.317 66.449l2.416-12.297a.902.902 0 0 1 .066-.2 27.182 27.182 0 0 0-1.108-1.172 31.273 31.273 0 0 0-9.42-6.471.79.79 0 0 1-.176.131l-10.959 6.138v9.686l9.942 7.224 9.239-3.039zM64.706 83.962L60.914 72.29l-8.932-2.932-9.26 8.525a1.465 1.465 0 0 1-.178.121 30.925 30.925 0 0 0 3.589 11.695.791.791 0 0 1 .222.005l12.516 1.861 5.835-7.603z"/><path fill="#98C858" d="M142.243 87.57c-.634-4.927-2.999-8.895-5.468-12.297-1.794-2.422-3.756-4.57-5.767-6.535 1.852-2.149 3.587-4.392 5.153-6.756 2.732-4.234 5.027-8.922 5.559-14.197.104-1.316.117-2.646-.062-3.973-.111-.667-.172-1.292-.397-2.018l-.305-1.036c-.105-.321-.215-.534-.325-.804-1.008-2.462-2.703-4.545-4.641-6.064-3.924-3.038-8.404-4.164-12.562-4.825-4.196-.624-8.241-.65-12.082-.435-5.387.335-10.349 1.145-14.919 2.096a95.752 95.752 0 0 0-2.138-5.98c-1.445-3.56-3.2-7.209-5.559-10.734-2.371-3.482-5.308-7.048-9.738-9.31-1.129-.537-2.265-.989-3.598-1.274-.674-.134-1.433-.283-1.927-.297l-.83-.068c-.102 0 .073-.006-.251-.006l-.127.006-.248.011-.499.019c-2.666.122-5.297 1.02-7.554 2.361-4.539 2.743-7.811 6.822-10.466 11.109-2.784 4.6-4.949 9.539-6.675 14.657a101.124 101.124 0 0 0-11.456-.872c-3.847-.035-7.89.178-12.054 1.001-4.122.851-8.543 2.189-12.333 5.408-.932.834-1.783 1.708-2.563 2.831-.382.573-.808 1.221-1.01 1.664l-.387.741c-.038.09.024-.071-.099.228l-.044.119-.086.234-.171.466c-.914 2.512-1.095 5.286-.724 7.886.777 5.247 3.292 9.833 6.225 13.932 1.689 2.309 3.542 4.478 5.505 6.56-1.926 2.058-3.794 4.304-5.481 6.82-2.316 3.519-4.495 7.592-4.901 12.546-.063 1.248-.052 2.47.191 3.813.136.672.288 1.437.463 1.896l.25.794c.038.095-.035-.067.092.233l.048.11.105.23.211.452c1.124 2.419 2.955 4.51 5.061 6.091 4.264 3.153 9.28 4.623 14.254 5.446 5.867.911 11.818.965 17.774.465 2.446 8.739 5.838 17.148 10.862 24.573 2.875 4.137 6.338 8.041 11.01 10.544 1.179.594 2.4 1.112 3.695 1.453.662.148 1.265.333 2.019.396l1.075.116c.338.026.578.004.867.004 2.659.005 5.238-.769 7.369-1.979 4.307-2.48 7.056-6.192 9.248-9.782 2.175-3.64 3.736-7.375 5.006-11.008 1.909-5.629 3.124-11.018 4.005-16.001 7.286.555 14.57.364 21.663-1.077 4.923-1.067 9.861-2.76 13.971-6.109.999-.857 1.95-1.786 2.762-2.853.392-.553.795-1.035 1.145-1.71l.519-.948c.153-.302.224-.527.341-.796 1.022-2.452 1.298-5.127.999-7.567zm-30.854-56.963c3.746.08 7.642.413 11.496 1.298 3.805.938 7.696 2.44 10.466 5.063 2.793 2.605 3.896 6.307 3.128 10.114-.723 3.843-2.987 7.625-5.653 11.125-1.57 2.013-3.318 3.926-5.185 5.774-4.82-3.91-9.62-7.049-14.024-9.714a173.041 173.041 0 0 0-10.963-5.982 169.227 169.227 0 0 0-.635-3.506c-.823-4.071-1.854-8.488-3.3-13.121 4.541-.688 9.458-1.151 14.67-1.051zm-10.506 18.988c-.058-.325-.112-.661-.17-.997a130.964 130.964 0 0 1 10.534 6.256c4.225 2.812 8.782 6.172 13.182 10.305-3.992 3.777-8.503 7.233-13.208 10.466 0-.13.011-.259.011-.392-.001-9.955-3.947-18.987-10.349-25.638zm-.638-.652a36.35 36.35 0 0 0-1.407-1.315c.416.214.826.421 1.256.649l.151.666zm-.908-4.009c.256 1.045.47 2.044.688 3.048-.603-.299-1.189-.58-1.766-.854a36.746 36.746 0 0 0-21.621-8.772c-.88-.296-1.83-.608-2.846-.938a91.433 91.433 0 0 1 1.752-.59 132.083 132.083 0 0 1 15.398-4.148c1.387-.277 2.822-.543 4.301-.786 1.781 4.535 3.074 8.96 4.094 13.04zm-23.005-6.603a37.424 37.424 0 0 0-2.068-.062c-1.089 0-2.167.057-3.231.149.803-.302 1.668-.612 2.584-.937a154.2 154.2 0 0 1 2.715.85zM59.229 19.802c2.031-3.905 4.468-7.567 7.632-9.858 1.569-1.14 3.279-1.895 5.066-2.154l.331-.046.169-.027.088-.013c-.26-.009-.015-.004-.046-.006l.834-.009c.622-.033.949.05 1.364.083.836.094 1.783.355 2.652.674 3.554 1.379 6.572 4.253 9.048 7.288 2.449 3.103 4.417 6.482 6.091 9.833a78.366 78.366 0 0 1 2.453 5.478c-1.413.308-2.798.631-4.125.956-5.993 1.536-11.128 3.167-15.292 4.675-.656.236-1.277.459-1.883.685-.664-.21-1.341-.423-2.06-.643-4.229-1.308-9.433-2.701-15.494-3.954a85.865 85.865 0 0 0-1.553-.299c1.223-4.46 2.752-8.737 4.725-12.663zm-4.923 13.419c.549.077 1.095.151 1.63.235a131.724 131.724 0 0 1 15.574 3.415c.668.186 1.302.371 1.921.555-.946.353-1.835.689-2.665 1.012a36.789 36.789 0 0 0-19.067 7.528c.679-4.326 1.516-8.613 2.607-12.745zM17.31 60.803c-2.821-3.373-5.27-7.033-6.166-10.833-.447-1.881-.484-3.754-.037-5.502l.083-.328.042-.165.021-.083c-.108.235-.006.008-.021.038l.312-.775c.211-.587.415-.855.602-1.226.404-.731 1.014-1.509 1.641-2.187 2.64-2.75 6.458-4.435 10.21-5.552 3.806-1.067 7.679-1.583 11.417-1.84 3.832-.255 7.52-.198 11.023.036-1.341 4.167-2.416 8.446-3.268 12.779a125.947 125.947 0 0 0-1.197 7.348 166.412 166.412 0 0 0-5.676 3.566c-4.253 2.85-8.878 6.187-13.484 10.29-1.969-1.769-3.827-3.617-5.502-5.566zm20.033 16.262c-4.7-2.936-9.211-6.092-13.257-9.565 4.177-4.302 8.542-7.85 12.609-10.843a125.453 125.453 0 0 1 5.204-3.586 131.904 131.904 0 0 0-.591 5.419 36.856 36.856 0 0 0-3.965 18.575zm-8.621 26.244c-4.381-.393-8.698-1.252-12.018-3.302-1.647-1.02-3-2.313-3.917-3.869l-.176-.286-.087-.147-.046-.071c.094.239.004.013.013.04l-.325-.769c-.268-.563-.314-.896-.442-1.292-.235-.808-.352-1.787-.386-2.708-.08-3.808 1.432-7.699 3.293-11.143 1.352-2.398 2.919-4.623 4.572-6.712 4.622 4.604 9.839 8.669 15.337 12.339a130.67 130.67 0 0 0 5.297 3.317 35.665 35.665 0 0 0 2.385 4.962c.427 3.011.945 6.004 1.578 8.972-5.122.722-10.192 1.038-15.078.669zm66.266 20.608c-1.5 3.433-3.291 6.906-5.576 10.138-2.312 3.163-5.188 6.185-8.666 7.751-3.47 1.586-7.314 1.205-10.547-.957-3.276-2.131-5.909-5.663-8.132-9.465-3.738-6.562-6.211-14.2-8.052-22.109 1.387-.228 2.774-.472 4.158-.75a36.785 36.785 0 0 0 16.091 3.68 36.776 36.776 0 0 0 17.8-4.563c.016 0 .029.004.041.007 2.605.388 5.216.705 7.828.924-1.121 4.858-2.655 10.069-4.945 15.344zm-21.376-13.443c-19.669 0-35.616-15.944-35.616-35.615 0-19.67 15.947-35.618 35.616-35.618 19.67 0 35.617 15.948 35.617 35.618s-15.947 35.615-35.617 35.615zm27.878-9.879c-.101-.018-.198-.026-.299-.039.123-.131.25-.257.369-.391-.021.142-.045.288-.07.43zm31.768-3.35c-3.224 2.208-7.499 3.276-11.862 3.864-6.206.77-12.761.445-19.379-.446.047-.396.098-.791.14-1.18a36.919 36.919 0 0 0 7.02-12.096 125.443 125.443 0 0 0 5.555-3.845c5.337-3.94 10.373-8.27 14.787-13.11 1.742 2.001 3.403 4.142 4.858 6.465 2.028 3.351 3.72 7.168 3.82 10.982.137 3.817-1.7 7.218-4.939 9.366z"/><path fill="#1B3142" d="M73.612 39.24c-19.669 0-35.616 15.948-35.616 35.618 0 19.671 15.947 35.615 35.616 35.615 19.67 0 35.617-15.944 35.617-35.615 0-19.67-15.947-35.618-35.617-35.618zm-27.48 50.458a31.92 31.92 0 0 1-1.292-2.688 30.894 30.894 0 0 1-2.297-9.007c.062-.037.123-.076.178-.121l9.26-8.525 8.932 2.932 3.792 11.672-5.837 7.603-12.516-1.861a.777.777 0 0 0-.22-.005zm5.401-36.919a31.227 31.227 0 0 1 9.418-6.471.888.888 0 0 0 .175.131l10.959 6.138v9.686l-9.94 7.224-9.238-3.039-2.42-12.297a.808.808 0 0 0-.065-.2c.36-.401.729-.79 1.111-1.172zm14.571 52.199l-4.878-11.474 5.555-7.24h13.663l5.555 7.24-4.878 11.474a.811.811 0 0 0-.059.21 31.1 31.1 0 0 1-7.451.894c-2.538 0-5.03-.298-7.45-.894a.93.93 0 0 0-.057-.21zm9.033-52.401l10.959-6.138a.814.814 0 0 0 .176-.131 31.273 31.273 0 0 1 9.42 6.471c.382.382.752.771 1.108 1.172a.854.854 0 0 0-.066.2l-2.416 12.297-9.238 3.039-9.942-7.224v-9.686zm7.382 31.385l3.79-11.672 8.933-2.932 9.263 8.525c.053.045.114.084.176.121a30.952 30.952 0 0 1-3.589 11.695.768.768 0 0 0-.219.005l-12.519 1.861-5.835-7.603z"/></svg>