<svg xmlns="http://www.w3.org/2000/svg" width="150" height="150" viewBox="0 0 150 150"><path fill="none" d="M66.819 50.183c-.107.147-.197.31-.314.45.117-.14.207-.301.314-.448v-.002zM49.243 60.915l-.832 2.558h-2.688l2.174 1.58-.83 2.557 2.176-1.579 2.173 1.579-.832-2.557 2.176-1.58h-2.688zM100.604 60.915l-.831 2.558h-2.688l2.173 1.58-.829 2.557 2.175-1.579 2.175 1.579-.831-2.557 2.175-1.58h-2.687zM75.754 52.393l-.831-2.558-.831 2.558h-2.686l2.173 1.579-.829 2.557 2.173-1.58 2.175 1.58-.831-2.557 2.174-1.579z"/><path fill="none" d="M104.241 56.637c-6.065 0-16.732-3.019-29.318-19.729-12.725 16.893-23.482 19.888-29.505 19.888-3.306 0-5.186-.903-5.186-.903s.19 6.16 1.476 14.593l.16.007c.01.462.04.931.062 1.395 1.084 6.663 2.844 14.538 5.693 21.876.306.604.621 1.196.945 1.773-.05.06-.105.114-.157.171 5.075 12.037 13.276 22.131 26.512 22.131 32.792 0 34.711-62.17 34.711-62.17s-1.961.968-5.393.968zM81.676 113.89c-2.077.725-4.322 1.122-6.753 1.122-2.97 0-5.656-.592-8.102-1.649a20.88 20.88 0 0 1-3.377-1.85c-.074-.154-.15-.299-.219-.463.067.162.145.309.217.463a22.807 22.807 0 0 1-1.671-1.238c-.003-.001-.005-.001-.006-.003-7.582-6.152-12.111-17.364-14.808-28.025.684 2.047 1.9 4.066 3.642 5.807 2.748 2.748 6.19 4.213 9.346 4.278 1.326.19 3.972.703 6.876 1.989 2.075.917 4.279 2.229 6.232 4.113.062.092.098.15.114.181.006.028.013.043.013.043l.26.261.104.104-.446.418c-.005.005-.015.005-.02.01l.014-.003-1.029.96c-.017.012-.042.017-.055.029 0 0 .025-.005.033-.01l-1.362 1.276c-.012.008-.03.01-.042.021l.027-.007-1.402 1.311-.019.01.012-.003-1.337 1.25c-.001.001-.006.001-.008.005l.007-.004-1.095 1.025-.02.021c-.015.009-.04.01-.053.023l.037-.008-.13.121s-.23-.283-.479.224c-.01.019-.007.044-.012.063-.113.301.072.598.072.598l.586.586v.003l.015.012c.02.023.039.041.059.062l.055.055c.026.028.063.06.093.093l.199.198c.033.035.07.071.113.113a.124.124 0 0 0 .023.023c.028.028.052.054.08.08l.237.235c.652.653.978.396 1.038.336.371-.213.201-.403.166-.433l-.007-.009L70 106.525h.001s.147-.14.139-.13l-.015.007s-.007.005-.019.008l4.836-5.167.114-.108-.015.007s-.007.003-.009.006l.256-.272.408.437c.006.005.006.014.011.019l-.003-.012.963 1.028c.01.018.014.04.026.054 0 0-.005-.023-.009-.033l1.275 1.362c.008.012.012.029.02.04l-.006-.025 1.309 1.4c.006.007.006.015.012.021l-.002-.013 1.249 1.339c.004.003.004.007.006.007l-.002-.004 1.043 1.114c.01.014.013.039.024.051l-.008-.034.07.074.051.057s-.029.024-.051.067c-.027.043-.041.107 0 .184.033.069.11.146.273.227.018.008.041.003.062.01.301.114.6-.069.6-.069l.585-.588c.045-.04.081-.077.12-.116 0 0 .004-.001.004-.003l.016-.019c-.002.004-.006.007-.006.009.006-.009.008-.009.014-.016-.002.002-.004.006-.008.007l.057-.055.221-.222c.006-.003.01-.01.014-.013.021-.023.045-.045.07-.071.029-.028.058-.055.087-.086.014-.016.029-.029.045-.048l.243-.241c.641-.642.403-.971.337-1.04-.215-.375-.405-.201-.435-.167-.004.003-.006.007-.008.007l-1.181-1.104c-.002-.001 0-.001-.002-.003l-.132-.137.006.015s.006.005.01.014l-.992-.928-4.187-3.914c-.04-.043-.104-.11-.097-.104l.006.013s.004.011.006.011l-.381-.357.021-.021.216-.215.173-.174s.008-.026.016-.064c.016-.029.046-.078.092-.147a20.34 20.34 0 0 1 4.135-3.065v-.002c3.429-1.945 6.847-2.711 8.629-2.995 3.268.062 6.891-1.409 9.763-4.28.297-.299.582-.606.849-.919.101-.118.189-.241.287-.36.159-.2.324-.397.47-.602.085-.109.155-.225.231-.339-3.574 12.254-9.712 24.386-20.227 28.052zm-26.47-42.648l.574.575-.456.454-.574-.574.456-.455zm-.037-.322c.02.002.042.003.062.006l-.027.029-.035-.035zm11.59 9.292c.019.058.045.112.062.169.017.054.03.108.045.162l-.045.045-.394.393-.573-.574.549-.548.356.353zm-.21-.499l.02-.021a.952.952 0 0 1 .021.064l-.041-.043zm4.536 15.407h-.005a1.626 1.626 0 0 1-.224.001h-.015a2.37 2.37 0 0 1-.311-.051l-.082-.018a3.118 3.118 0 0 1-.413-.138c-.03-.012-.063-.028-.093-.038a4.653 4.653 0 0 1-.543-.276c-.579-.343-1.622-.841-2.579-1.264v.001c-.987-.438-1.88-.793-2.088-.819a1.87 1.87 0 0 1-.209-.038l-.046-.012a.939.939 0 0 1-.184-.064c-.001-.001-.003-.003-.005-.003a.323.323 0 0 1-.112-.087.074.074 0 0 1-.013-.021c-.018-.035-.027-.073-.003-.118.03-.061.104-.127.241-.204.462-.256 1.098-.65 1.581-1.062l-.057.056c.077-.064.155-.128.224-.191a6.57 6.57 0 0 0 .488-.438c.07-.072.12-.143.185-.213.129-.141.264-.285.367-.422.381-.473.746-1.07.988-1.502.014-.025.025-.038.039-.06.147.009.241.314.274.585.053.412 1.386 3.494 2.083 4.668.549.929.54 1.516.512 1.728zm.075-.011h.003a.834.834 0 0 1-.074.009c.031-.003.053-.005.071-.009zM47.274 79.825c-.028-.197-.046-.393-.067-.588l.196-.194.574.575-.454.453-.249-.246zm.105.389l-.028.029c-.005-.024-.008-.046-.014-.067l.042.038zm-.195-1.24c-.003-.055-.012-.11-.015-.164l.088.09-.073.074zm19.637 7.185l-.489-.488.456-.453.033.033.329.329a8.03 8.03 0 0 1-.195.712l-.134-.133zm.06.348c-.022.055-.039.113-.06.169v-.229l.06.06zm-6.915-4.808l-.574-.575.456-.454.574.574-.456.455zm.599-.311l.574.574-.455.454-.575-.574.456-.454zm-.741.454l-.456.456-.574-.574.456-.456.574.574zm-1.174-.262l-.431-.432.456-.456.431.432-.456.456zm-.144.144l-.479.479-.431-.431.479-.479.431.431zm-.43-.72l-.574-.574.456-.454.574.575-.456.453zm-.144.144l-.479.479-.575-.574.479-.48.575.575zm-.622.623l-.454.455-.574-.575.454-.454.574.574zm-.575-.861l-.574-.574.479-.479.575.575-.48.478zm-.143.144l-.456.454-.574-.574.457-.454.573.574zm-1.172-.264l-.576-.575.457-.453.573.572-.454.456zm-.144.144l-.456.454-.574-.574.456-.453.574.573zm-1.172-.264l-.576-.574.456-.453.574.572-.454.455zm-.144.143l-.456.454-.574-.573.456-.455.574.574zm.143.144l.574.574-.454.456-.575-.574.455-.456zm.719.718l.574.574-.456.454-.574-.574.456-.454zm.142-.144l.454-.454.576.574-.455.454-.575-.574zm1.174.264l.574.574-.456.454-.575-.574.457-.454zm.717.718l.431.431-.456.455-.429-.43.454-.456zm.143-.143l.456-.455.431.431-.457.454-.43-.43zm1.029.119l.574.575-.456.455-.574-.576.456-.454zm.144-.145l.479-.479.574.575-.479.479-.574-.575zm1.197.241l.574.574-.479.479-.574-.573.479-.48zm.144-.144l.456-.456.575.574-.456.455-.575-.573zm1.172.262l.576.574-.456.456-.574-.574.454-.456zm.143-.141l.456-.456.574.574-.456.456-.574-.574zm.6-.6l.454-.454.574.574-.454.454-.574-.574zm-.144-.144l-.574-.574.454-.454.574.574-.454.454zm-.718-.717l-.574-.574.453-.454.574.574-.453.454zm-.717-.719l-.431-.43.454-.454.431.431-.454.453zm-.146.144l-.452.454-.431-.432.454-.453.429.431zm-1.027-.12l-.575-.574.455-.455.574.577-.454.452zm-.719-.718l-.575-.573.456-.455.575.574-.456.454zm-.144.145l-.454.453-.574-.575.454-.453.574.575zm-1.172-.263l-.574-.575.456-.456.574.575-.456.456zm-.143.141l-.479.481-.575-.574.479-.479.575.572zm-1.198-.238l-.574-.573.479-.479.574.572-.479.48zm-.143.145l-.455.454-.574-.573.454-.456.575.575zm-1.174-.264l-.574-.573.456-.456.574.575-.456.454zm-.143.144l-.455.454-.572-.575.453-.453.574.574zm-.598.598l-.454.455-.575-.575.455-.455.574.575zm-.598.596l-.454.456-.575-.573.454-.456.575.573zm.146.146l.573.575-.455.451-.574-.573.456-.453zm.716.717l.574.574-.454.456-.574-.575.454-.455zm.718.719l.574.573-.452.453-.578-.574.456-.452zm.717.718l.574.574-.454.452-.574-.574.454-.452zm.144-.145l.454-.453.576.573-.456.454-.574-.574zm1.174.265l.431.43-.456.453-.431-.43.456-.453zm.573.573l.574.575-.454.455-.575-.574.455-.456zm.143-.143l.454-.454.576.573-.454.454-.576-.573zm1.174.263l.574.575-.455.453-.576-.573.457-.455zm.144-.144l.454-.453.575.573-.454.455-.575-.575zm1.171.265l.576.573-.458.456-.573-.575.455-.454zm.144-.145l.479-.479.576.574-.479.479-.576-.574zm1.197.24l.575.574-.479.479-.574-.573.478-.48zm.145-.144l.452-.452.576.57-.454.456-.574-.574zm.598-.6l.454-.454.575.575-.455.453-.574-.574zm.598-.597l.454-.453.574.573-.454.454-.574-.574zm1.172.263l.574.574-.454.454-.572-.573.452-.455zm-.575-.861l.454-.454.574.574-.454.454-.574-.574zm-.143-.144l-.574-.576.456-.452.574.574-.456.454zm-.718-.717l-.575-.574.455-.454.574.574-.454.454zm-.718-.718l-.574-.574.456-.456.574.575-.456.455zm-.718-.718l-.431-.432.456-.454.43.432-.455.454zm-.574-.575l-.574-.573.454-.455.574.575-.454.453zm-.144.145l-.454.453-.574-.575.454-.453.574.575zm-1.172-.264l-.574-.575.452-.454.576.575-.454.454zm-.718-.719l-.574-.573.453-.455.574.575-.453.453zm-.144.144l-.456.456-.574-.576.456-.453.574.573zm-1.172-.263l-.574-.575.454-.454.575.575-.455.454zm-.143.143l-.454.454-.576-.573.456-.453.574.572zm-1.174-.262l-.574-.576.455-.453.574.573-.455.456zm-.143.142l-.479.48-.574-.575.479-.479.574.574zm-1.199-.239l-.572-.574.479-.479.574.574-.481.479zm-.142.145l-.456.455-.575-.575.456-.453.575.573zm-.597.598l-.456.453-.574-.574.455-.454.575.575zm-.598.597l-.456.455-.574-.574.456-.454.574.573zm-.601.599l-.453.454-.574-.575.453-.452.574.573zm-.598.601l-.454.453-.573-.577.452-.453.575.577zm.144.141l.574.575-.452.452-.574-.571.452-.456zm.718.72l.576.572-.455.453-.574-.57.453-.455zm.717.717l.574.575-.452.451-.574-.573.452-.453zm.72.716l.574.575-.456.456-.574-.575.456-.456zm.716.719l.576.574-.455.456-.574-.574.453-.456zm.72.718l.431.431-.455.456-.431-.431.455-.456zm.143-.144l.456-.454.429.431-.455.452-.43-.429zm1.029.118l.574.575-.454.455-.575-.575.455-.455zm.718.72l.576.574-.456.456-.574-.574.454-.456zm.143-.143l.456-.455.574.574-.456.456-.574-.575zm1.172.261l.576.577-.456.453-.575-.575.455-.455zm.144-.143l.456-.453.574.574-.456.454-.574-.575zm1.172.266l.576.573-.454.453-.574-.571.452-.455zm.145-.145l.454-.455.575.575-.455.453-.574-.573zm1.172.263l.574.574-.453.455-.574-.575.453-.454zm.143-.143l.479-.479.574.574-.479.479-.574-.574zm.624-.621l.456-.456.574.573-.456.453-.574-.57zm.599-.602l.454-.452.574.572-.454.455-.574-.575zm1.172.265l.575.573-.455.456-.574-.575.454-.454zm.145-.145l.452-.454.574.575-.452.454-.574-.575zm.596-.597l.455-.453.575.573-.456.455-.574-.575zm-.144-.143l-.573-.575.453-.454.574.575-.454.454zm-.694-1.891l.456-.454.574.574-.455.455-.575-.575zm-.142-.143l-.576-.574.454-.454.576.574-.454.454zm-.72-.718l-.574-.575.455-.453.576.574-.457.454zm-.717-.718l-.574-.574.456-.456.574.574-.456.456zm-.719-.717l-.431-.431.456-.454.431.43-.456.455zm-.574-.575l-.574-.575.454-.454.575.575-.455.454zm-.718-.718l-.575-.573.456-.456.574.576-.455.453zm-.143.143l-.454.455-.574-.574.454-.456.574.575zm-1.172-.263l-.575-.575.456-.454.574.575-.455.454zm-.718-.718l-.575-.574.454-.454.574.575-.453.453zm-.144.143l-.454.454-.574-.574.454-.452.574.572zm-1.172-.262l-.574-.575.452-.454.574.574-.452.455zm-.143.142l-.456.454-.574-.574.456-.454.574.574zm-1.174-.264l-.575-.574.456-.454.574.574-.455.454zm-.145.144l-.452.454-.575-.574.456-.454.571.574zm-1.17-.264l-.574-.574.456-.454.573.574-.455.454zm-.144.144l-.479.481-.574-.577.479-.479.574.575zm-.623.625l-.455.454-.574-.575.455-.454.574.575zm-.598.597l-.454.454-.576-.573.456-.455.574.574zm-.597.597l-.456.455-.574-.575.456-.453.574.573zm-.598.599l-.456.455-.575-.575.453-.451.578.571zm-.601.6l-.453.454-.574-.575.453-.453.574.574zm.121 1.314l-.454.456-.575-.576.454-.453.575.573zm.143.145l.576.575-.458.453-.573-.574.455-.454zm.718.716l.574.575-.454.456-.574-.575.454-.456zm.719.721l.573.572-.454.455-.574-.573.455-.454zm.718.717l.574.575-.456.453-.574-.573.456-.455zm.717.716l.576.575-.456.456-.574-.575.454-.456zm.719.72l.43.429-.455.456-.431-.431.456-.454zm.573.572l.574.574-.454.456-.575-.574.455-.456zm.145-.145l.452-.45.574.574-.452.452-.574-.576zm1.172.268l.574.575-.454.451-.574-.574.454-.452zm.716.717l.576.574-.454.453-.576-.575.454-.452zm.146-.144l.454-.454.574.573-.454.454-.574-.573zm1.172.263l.574.575-.453.452-.574-.574.453-.453zm.143-.144l.456-.456.574.575-.454.456-.576-.575zm1.174.265l.575.572-.456.454-.575-.574.456-.452zm.144-.144l.452-.456.574.574-.453.453-.573-.571zm1.172.264l.574.574-.455.452-.576-.574.457-.452zm.143-.146l.455-.454.574.574-.455.454-.574-.574zm.599-.597l.477-.479.575.576-.477.478-.575-.575zm.621-.624l.456-.455.574.574-.455.456-.575-.575zm1.174.264l.574.574-.454.456-.574-.577.454-.453zm.143-.143l.455-.454.574.575-.454.451-.575-.572zm.598-.6l.455-.453.574.574-.454.454-.575-.575zm.598-.597l.454-.455.576.574-.454.454-.576-.573zm-.121-1.315l.456-.456.575.576-.455.453-.576-.573zm-.143-.145l-.572-.574.454-.453.573.573-.455.454zm-.693-1.889l.456-.455.575.573-.456.456-.575-.574zm-.144-.145l-.574-.575.454-.456.575.575-.455.456zm-.717-.719l-.575-.574.454-.456.574.577-.453.453zm-.718-.715l-.574-.576.454-.454.575.574-.455.456zm-.72-.718l-.429-.431.456-.456.429.431-.456.456zm-.573-.576l-.574-.574.455-.456.574.574-.455.456zm-.719-.718l-.574-.575.456-.453.574.574-.456.454zm-.716-.717l-.574-.575.454-.455.574.575-.454.455zm-.144.142l-.454.456-.576-.573.456-.456.574.573zm-1.174-.261l-.574-.575.454-.454.574.574-.454.455zm-.717-.719l-.574-.574.456-.456.574.575-.456.455zm-.143.142l-.455.456-.574-.574.454-.455.575.573zm-1.173-.262l-.575-.574.455-.456.574.576-.454.454zm-.143.144l-.454.454-.575-.574.455-.454.574.574zm-1.173-.264l-.574-.575.454-.453.573.574-.453.454zm-.143.144l-.455.454-.574-.574.455-.454.574.574zm-1.174-.264l-.574-.574.455-.456.576.575-.457.455zm-.143.143l-.454.454-.575-.574.455-.454.574.574zm-.598.6l-.479.479-.574-.575.479-.479.574.575zm-.623.622l-.455.454-.575-.573.456-.456.574.575zm-.597.598l-.456.455-.574-.575.454-.453.576.573zm-.6.598l-.454.455-.574-.576.454-.456.574.577zm-.597.599l-.454.452-.574-.573.454-.453.574.574zm-.598.6l-.455.454-.574-.576.453-.453.576.575zm.118 1.313l-.454.456-.575-.574.454-.456.575.574zm.121 1.317l-.455.456-.574-.575.455-.456.574.575zm.143.144l.574.574-.454.454-.576-.574.456-.454zm.718.718l.574.573-.454.455-.574-.573.454-.455zm.718.718l.574.575-.454.454-.574-.575.454-.454zm.718.718l.574.573-.455.455-.574-.574.455-.454zm.718.718l.575.574-.454.455-.574-.573.453-.456zm.718.716l.431.431-.456.456-.429-.431.454-.456zm.574.573l.574.577-.454.454-.574-.574.454-.457zm.718.721l.574.574-.455.455-.574-.575.455-.454zm.143-.144l.456-.455.574.575-.456.456-.574-.576zm1.174.264l.575.574-.456.454-.574-.574.455-.454zm.718.718l.574.574-.456.455-.574-.575.456-.454zm.142-.144l.456-.454.574.574-.453.453-.577-.573zm1.173.263l.575.574-.454.452-.574-.571.453-.455zm.146-.146l.453-.453.574.575-.452.452-.575-.574zm1.17.268l.574.573-.452.454-.576-.575.454-.452zm.145-.145l.454-.456.574.575-.454.452-.574-.571zm1.172.263l.575.574-.454.452-.576-.574.455-.452zm.144-.145l.452-.452.576.573-.454.453-.574-.574zm.598-.598l.454-.454.574.574-.454.455-.574-.575zm.597-.598l.479-.479.574.573-.478.479-.575-.573zm1.199.241l.573.572-.479.479-.574-.574.48-.477zm.142-.146l.456-.454.574.575-.456.453-.574-.574zm.601-.598l.453-.455.574.574-.454.454-.573-.573zm.596-.598l.456-.454.573.573-.455.455-.574-.574zm.599-.598l.455-.455.572.575-.453.454-.574-.574zm.453-.741l-.574-.575.456-.454.574.575-.456.454zm-.693-1.891l.454-.456.574.577-.454.454-.574-.575zm-.144-.145l-.574-.572.454-.454.574.571-.454.455zm-.122-1.314l-.573-.576.456-.454.575.575-.458.455zm-.715-.719l-.574-.573.454-.456.575.573-.455.456zm-.719-.716l-.575-.574.456-.458.574.575-.455.457zm-.717-.719l-.574-.575.454-.456.574.577-.454.454zm-.719-.719l-.431-.431.456-.454.429.431-.454.454zm-.575-.573l-.574-.574.457-.455.573.572-.456.457zm-.716-.719l-.575-.574.456-.456.573.574-.454.456zm-.719-.716l-.574-.577.454-.453.575.572-.455.458zm-.719-.718l-.573-.574.455-.456.574.573-.456.457zm-.142.14l-.454.455-.575-.573.455-.456.574.574zm-1.174-.261l-.574-.575.456-.454.575.574-.457.455zm-.715-.719l-.575-.574.454-.456.574.574-.453.456zm-.146.143l-.454.456-.574-.575.454-.456.574.575zm-1.172-.264l-.574-.572.454-.456.574.573-.454.455zm-.143.142l-.454.458-.574-.574.454-.454.574.57zm-1.173-.259l-.574-.574.456-.456.573.576-.455.454zm-.143.143l-.456.454-.574-.574.456-.454.574.574zm-1.172-.264l-.574-.575.454-.454.575.575-.455.454zm-.144.145l-.456.455-.574-.577.456-.454.574.576zm-.597.597l-.456.453-.574-.573.452-.453.578.573zm-.6.597l-.479.48-.574-.574.478-.479.575.573zm-.623.624l-.454.456-.576-.576.456-.453.574.573zm-.597.6l-.456.452-.574-.574.456-.454.574.576zm-.598.596l-.456.454-.574-.573.455-.455.575.574zm-.6.597l-.454.455-.575-.575.452-.453.577.573zm-.597.6l-.454.455-.576-.575.456-.454.574.574zm.12 1.317l-.456.454-.574-.574.456-.456.574.576zm-.599.598l-.452.454-.576-.576.454-.452.574.574zm.143.143l.574.574-.454.454-.574-.576.454-.452zm.695 1.89l-.551.55-.574-.575.551-.549.574.574zm.143.144l.575.575-.551.55-.574-.573.55-.552zm.719.718l.574.573-.551.551-.574-.574.551-.55zm.717.717l.575.575-.551.551-.574-.575.55-.551zm.717.718l.576.575-.549.551-.576-.574.549-.552zm.719.719l.575.574-.551.551-.574-.574.55-.551zm.718.718l.431.431-.551.549-.431-.429.551-.551zm.574.574l.575.574-.551.551-.574-.574.55-.551zm.718.718l.574.574-.549.552-.576-.575.551-.551zm.718.717l.575.575-.551.55-.576-.573.552-.552zm.144-.145l.452-.451.576.573-.454.454-.574-.576zm1.172.265l.576.574-.456.456-.574-.574.454-.456zm.718.718l.575.575-.455.456-.574-.575.454-.456zm.144-.141l.454-.455.576.573-.456.455-.574-.573zm1.173.261l.574.575-.454.453-.574-.573.454-.455zm.143-.143l.455-.454.574.575-.453.454-.576-.575zm1.172.262l.575.575-.453.455-.575-.574.453-.456zm.145-.145l.453-.452.574.574-.453.452-.574-.574zm1.173.267l.573.573-.453.456-.574-.575.454-.454zm.143-.145l.454-.454.574.574-.456.452-.572-.572zm.598-.598l.454-.453.573.573-.452.452-.575-.572zm.6-.596l.454-.455.573.572-.454.454-.573-.571zm1.17.26l1.142 1.143c-.06.051-.117.106-.179.156-.109.087-.222.161-.333.24l-1.083-1.084.453-.455zm.145-.143l.478-.478 1.146 1.147c-.082.092-.155.191-.243.28-.074.073-.154.134-.23.202l-1.151-1.151zm.621-.623l.456-.453 1.077 1.076a6.773 6.773 0 0 1-.395.516l-1.138-1.139zm.6-.597l.454-.456.927.929a7.2 7.2 0 0 1-.333.575l-1.048-1.048zm.597-.599l.456-.455.63.634v.226a5.573 5.573 0 0 1-.208.474l-.878-.879zm1.197-1.196l.366-.365a9.388 9.388 0 0 1-.095.637l-.271-.272zm-.11-.177l-.035.033-.573-.575.454-.453.154.153.421.42-.421.422zm-.728-1.856l.456-.456.271.273v.603l-.152.154-.575-.574zm.454-.742l-.575-.575.454-.454.394.392.18.182-.18.183-.273.272zm-.719-.717l-.573-.575.454-.456.576.573-.457.458zm-.691-1.893l.549-.549.574.574-.549.55-.574-.575zm-.146-.145l-.574-.573.551-.55.574.574-.551.549zm-.718-.716l-.574-.573.551-.552.574.574-.551.551zm-.716-.719l-.574-.575.548-.547.574.572-.548.55zm-.718-.718l-.431-.429.549-.55.429.431-.547.548zm-.574-.573l-.576-.576.55-.549.575.574-.549.551zm-.72-.719l-.574-.574.549-.548.576.571-.551.551zm-.716-.718l-.574-.574.548-.548.574.573-.548.549zm-.72-.718l-.574-.575.551-.549.574.574-.551.55zm-.717-.718l-.574-.574.549-.548.574.571-.549.551zm-.144.143l-.454.456-.574-.574.456-.456.572.574zm-1.174-.263l-.574-.573.456-.456.574.574-.456.455zm-.718-.718l-.574-.571.458-.458.572.575-.456.454zm-.141.143l-.455.456-.574-.574.454-.456.575.574zm-1.173-.264l-.576-.574.456-.454.574.574-.454.454zm-.143.146l-.456.456-.574-.576.456-.454.574.574zm-1.174-.262l-.574-.574.454-.456.574.575-.454.455zm-.143.142l-.454.456-.574-.574.454-.456.574.574zm-1.172-.262l-.574-.575.454-.455.574.572-.454.458zm-.145.143l-.453.455-.575-.575.453-.454.575.574zm-.598.598l-.455.454-.574-.574.455-.454.574.574zm-.598.597l-.454.455-.574-.575.454-.454.574.574zm-.598.599l-.479.48-.575-.574.478-.481.576.575zm-.622.624l-.456.454-.574-.574.455-.454.575.574zm-.598.597l-.456.454-.575-.574.456-.454.575.574zm-.6.598l-.454.454-.574-.574.455-.454.573.574zm-.599.598l-.452.456-.574-.576.453-.454.573.574zm-.597.599l-.455.452-.574-.571.456-.455.573.574zm.12 1.316l-.455.454-.574-.574.454-.455.575.575zm-1.052 1.34l.574.574-.464.465a10.663 10.663 0 0 1-.239-.912l.129-.127zm.718.718l.574.574-.551.549-.561-.559a.257.257 0 0 0-.007-.021l.545-.543zm-.119 1.269l-.117.117c-.049-.124-.088-.245-.134-.367l.251.25zm.144.143l.573.575-.385.384a13.808 13.808 0 0 1-.364-.785l.176-.174zm.716.717l.575.575-.589.589a12.41 12.41 0 0 1-.414-.732l.428-.432zm.718.72l.576.572-.738.736a13.673 13.673 0 0 1-.461-.685l.623-.623zm.717.717l.575.575-.83.831c-.173-.214-.347-.424-.505-.645l.76-.761zm.719.718l.574.574-.873.873c-.187-.199-.374-.396-.547-.601l.846-.846zm.718.718l.574.574-.87.868c-.142-.13-.287-.256-.426-.395-.055-.053-.102-.112-.157-.17l.879-.877zm.717.718l.433.431-.836.835c-.066-.057-.137-.105-.204-.164-.085-.075-.17-.16-.255-.236l.862-.866zm.575.573l.576.575-.745.743c-.048-.034-.097-.065-.143-.099-.171-.127-.339-.267-.506-.4l.818-.819zm.719.719l.575.575-.522.521.143.142.521-.52.576.575-.397.396c-.035-.02-.073-.035-.108-.053-.17-.091-.335-.188-.503-.284-.14-.08-.28-.157-.417-.243-.175-.111-.344-.229-.514-.345-.023-.018-.046-.031-.068-.05l.714-.714zm1.434 1.436l.576.573-.13.129-.16-.062a11.476 11.476 0 0 1-.493-.229c-.047-.021-.091-.044-.137-.066l.344-.345zm.146-.143l.549-.551.576.573-.551.551-.574-.573zm.573.86l.147.147-.117-.043c-.032-.012-.063-.026-.097-.037l.067-.067zm.143-.143l.551-.551.574.574-.354.354.146.145.352-.354.576.575-.057.057c-.159-.032-.317-.063-.478-.103-.157-.04-.312-.085-.468-.128-.132-.041-.264-.077-.396-.12l-.446-.449zm1.412.023l.456-.453.574.573-.455.458-.575-.578zm1.172.265l.575.573-.108.11-.304-.026c-.16-.017-.315-.036-.476-.06l-.14-.144.453-.453zm.144-.145l.456-.454.574.575-.456.454-.574-.575zm1.173.265l.564.563a8.936 8.936 0 0 1-.788.027c-.033 0-.065-.004-.099-.004l-.131-.134.454-.452zm.144-.144l.456-.454.573.572-.454.455-.575-.573zm1.172.263l.302.301-.052.012c-.164.032-.333.06-.5.082-.054.007-.108.012-.161.017l.411-.412zm.145-.145l.452-.452.645.645c-.048.015-.097.033-.145.05-.162.05-.328.096-.494.137l-.066.014-.392-.394zm.598-.597l.455-.454.894.894c-.064.031-.126.066-.191.093a6.1 6.1 0 0 1-.446.179l-.712-.712zm.598-.6l.453-.452 1.059 1.059c-.067.041-.13.089-.197.13-.12.073-.249.139-.375.205l-.94-.942zm4.624-4.993l-.522-.522-.01-.01.01-.011.444-.445.092.092c.01.299.005.602-.014.896zm-.522-.83v-.603l.301.302-.301.301zm.444-.444l-.444-.445-.13-.128.13-.131.324-.325.078.077c.046.298.082.595.105.89l-.063.062zm-.12-1.318l-.324-.325-.25-.248.25-.25.108-.109c.088.31.166.617.224.925l-.008.007zm-.742-2.128l-.574-.574.301-.303c.128.263.252.526.36.788l-.087.089zm-.717-.719l-.574-.574.514-.514c.144.243.288.484.415.735l-.355.353zm-.718-.718l-.574-.574.668-.668c.16.228.319.454.46.689l-.554.553zm-.718-.719l-.575-.573.771-.771c.172.214.344.429.499.647l-.695.697zm-.718-.719l-.431-.427.818-.818c.135.151.27.303.399.46l-.786.785zm-.573-.57l-.578-.577.833-.833c.056.057.116.104.169.16.139.138.264.284.397.427l-.821.823zm-.72-.721l-.574-.575.799-.798c.204.173.402.36.602.547l-.827.826zm-.717-.717l-.574-.574.716-.716c.217.158.429.333.641.507l-.783.783zm-.718-.718l-.574-.574.578-.578c.23.146.459.301.685.463l-.689.689zm-.718-.72l-.574-.574.382-.382c.247.13.493.267.734.416l-.542.54zm-.718-.716l-.574-.574.126-.129c.262.113.526.234.785.364l-.337.339zm-.143.142l-.551.551-.574-.574.551-.551.574.574zm-.575-.861l-.149-.147c.074.028.146.049.217.079l-.068.068zm-.144.144l-.55.55-.575-.573.496-.496c.058.017.115.042.172.061l.457.458zm-1.268-.167l-.574-.575.079-.08c.306.065.609.147.913.24l-.418.415zm-.144.144l-.454.455-.574-.574.454-.457.574.576zm-1.174-.264l-.574-.574.15-.149c.232.022.465.05.701.089l.18.179-.457.455zm-1.314-.119l-.576-.575.068-.068c.254-.013.509-.015.768-.006l.192.195-.452.454zm-.145.145l-.454.452-.574-.574.454-.454.574.576zm-1.171-.266l-.374-.374c.26-.05.526-.086.796-.114l.032.033-.454.455zm-.144.144l-.454.456-.725-.726c.232-.075.471-.14.714-.194l.465.464zm-.6.599l-.452.455-.982-.981c.208-.099.422-.188.641-.267l.793.793zm-.597.598l-.453.456-1.154-1.152c.189-.122.381-.231.58-.334l1.027 1.03zm-.598.598l-.454.454-1.242-1.242c.168-.137.339-.271.518-.391l1.178 1.179zm-.598.597l-.479.479-1.256-1.253c.07-.077.129-.157.202-.23.09-.088.188-.162.28-.246l1.253 1.25zm-.624.625l-.454.454-1.188-1.188c.123-.177.259-.346.401-.511l1.241 1.245zm-.597.597l-.455.454-1.045-1.046a7.7 7.7 0 0 1 .339-.57l1.161 1.162zm-.597.598l-.456.455-.816-.816a7.28 7.28 0 0 1 .275-.637l.997.998zm-.599.598l-.454.454-.496-.494c.057-.241.123-.476.204-.708l.746.748zm-.599.601l-.456.452-.069-.07c.031-.267.067-.529.121-.788l.404.406zm-.455.739l.574.575-.454.456-.24-.242c-.005-.226-.005-.451.005-.672l.115-.117zm19.713 29.388c-.019-.018-.025-.022-.045-.043-.017-.017-.021-.02-.034-.036.013.017.025.026.039.04l.04.039zm17.314-27.209l.55.549-.573.572-.354-.351-.144.145.354.352-.576.577-.055-.058a10.153 10.153 0 0 1 .23-.947c.04-.132.079-.263.12-.393l.448-.446zm-.289.002c.014-.039.027-.079.043-.119l.036-.092.066.065-.145.146zm10.173-8.497l.451.454-.571.574-.454-.453.574-.575zm-.029-.316c.021-.005.047-.008.068-.014l-.041.042-.027-.028zm1.344.197l.453.452-.573.574-.452-.454.572-.572zm-.073-.364c.052-.005.106-.012.161-.015l-.088.088-.073-.073zm-.739 19.077l-.555-.553.578-.572.548.549-.571.576zm.018.308c-.021.009-.043.015-.064.023l.045-.046.019.023zm1.753-9.451l-.576.575-.454-.455.574-.575.456.455zm-.313-.596l.573-.575.456.456-.574.574-.455-.455zm-.859.575l-.457-.458.573-.572.456.456-.572.574zm-.145.141l-.574.575-.458-.456.576-.574.456.455zm-.719.717l-.573.578-.454-.458.573-.574.454.454zm-.456-.741l-.479-.479.577-.572.478.477-.576.574zm-.143.146l-.574.572-.478-.479.574-.574.478.481zm-.718.715l-.43.431-.479-.479.43-.432.479.48zm-.477-.764l-.453-.455.573-.575.454.456-.574.574zm-.146.143l-.43.431-.454-.456.431-.43.453.455zm-.573.574l-.573.573-.456-.453.575-.575.454.455zm-1.173-.024l-.454-.456.574-.575.455.456-.575.575zm-.143.144l-.573.574-.454-.456.573-.574.454.456zm-.717.715l-.576.575-.454-.453.576-.576.454.454zm.143.146l.455.454-.575.575-.456-.454.576-.575zm.143-.144l.574-.575.456.456-.574.575-.456-.456zm1.174.024l.479.479-.575.574-.478-.477.574-.576zm.142-.143l.576-.574.478.479-.576.573-.478-.478zm1.2.047l.453.456-.575.574-.455-.456.577-.574zm.14-.142l.433-.432.454.456-.431.43-.456-.454zm1.03.168l.453.453-.43.432-.454-.454.431-.431zm.144-.144l.573-.575.456.456-.574.575-.455-.456zm.719-.72l.573-.574.454.458-.573.57-.454-.454zm1.171.024l.456.455-.574.575-.455-.454.573-.576zm.143-.142l.573-.575.456.455-.575.575-.454-.455zm.719-.719l.574-.574.453.456-.573.571-.454-.453zm.12-1.317l.573-.573.456.457-.573.572-.456-.456zm-.144-.142l-.458-.455.576-.575.456.454-.574.576zm-.145.146l-.571.571-.456-.454.574-.574.453.457zm-1.173-.027l-.478-.479.574-.574.478.479-.574.574zm-.143.144l-.573.574-.479-.479.573-.574.479.479zm-1.195-.049l-.456-.454.574-.574.456.454-.574.574zm-.143.143l-.575.577-.456-.454.575-.578.456.455zm-1.173-.022l-.458-.456.576-.575.456.456-.574.575zm-.146.141l-.573.575-.454-.455.573-.573.454.453zm-.716.721l-.431.43-.456-.453.433-.432.454.455zm-1.03-.167l-.456-.456.432-.432.456.456-.432.432zm-.143.143l-.574.573-.453-.456.573-.573.454.456zm-.718.716l-.573.575-.456-.455.574-.574.455.454zm-.719.718l-.573.576-.454-.456.573-.574.454.454zm-.719.72l-.572.574-.454-.456.572-.574.454.456zm.146.141l.453.456-.571.574-.456-.456.574-.574zm.597.601l.454.455-.574.572-.453-.455.573-.572zm.599.598l.478.478-.574.573-.478-.48.574-.571zm.144-.145l.573-.573.479.478-.573.575-.479-.48zm1.198.048l.454.456-.574.574-.456-.453.576-.577zm.144-.144l.571-.574.456.455-.573.575-.454-.456zm1.17.026l.456.453-.576.574-.454-.451.574-.576zm.144-.144l.575-.576.454.456-.573.574-.456-.454zm1.173.023l.456.453-.576.577-.454-.456.574-.574zm.143-.143l.43-.431.456.456-.433.431-.453-.456zm.574-.573l.576-.573.453.452-.573.574-.456-.453zm1.171.021l.458.456-.575.575-.456-.458.573-.573zm.145-.142l.574-.575.455.455-.573.575-.456-.455zm.718-.719l.573-.573.456.456-.574.573-.455-.456zm.719-.719l.573-.575.456.458-.573.574-.456-.457zm.12-1.314l.573-.576.456.456-.574.575-.455-.455zm.718-.716l.573-.578.454.454-.573.578-.454-.454zm-.143-.144l-.456-.458.576-.573.452.456-.572.575zm-.6-.601l-.453-.454.573-.574.454.455-.574.573zm-.596-.597l-.479-.479.573-.574.479.479-.573.574zm-.146.143l-.576.575-.477-.478.575-.575.478.478zm-1.196-.048l-.456-.456.575-.574.456.456-.575.574zm-.146.145l-.572.573-.453-.455.569-.574.456.456zm-1.171-.027l-.454-.454.573-.573.454.456-.573.571zm-.143.145l-.574.574-.455-.456.575-.574.454.456zm-1.173-.023l-.454-.455.576-.575.453.456-.575.574zm-.144.141l-.574.576-.455-.456.573-.573.456.453zm-.716.719l-.574.573-.457-.454.576-.574.455.455zm-1.174-.023l-.455-.454.575-.575.456.454-.576.575zm-.143.144l-.431.431-.456-.456.431-.43.456.455zm-.574.574l-.573.575-.454-.455.573-.575.454.455zm-.717.716l-.576.575-.455-.454.575-.574.456.453zm-.719.721l-.575.574-.454-.456.574-.574.455.456zm-.717.716l-.573.574-.456-.454.575-.574.454.454zm-.12 1.315l-.575.574-.454-.453.574-.573.455.452zm.141.148l.456.452-.573.574-.456-.456.573-.57zm.6.595l.456.456-.576.575-.454-.456.574-.575zm.596.6l.479.478-.571.573-.481-.479.573-.572zm.624.621l.456.457-.571.571-.458-.455.573-.573zm.145-.143l.574-.574.453.455-.573.575-.454-.456zm1.173.026l.454.452-.576.574-.451-.452.573-.574zm.143-.144l.576-.576.451.455-.573.575-.454-.454zm1.173.022l.452.456-.574.574-.453-.456.575-.574zm.142-.142l.576-.578.455.456-.575.574-.456-.452zm1.173.022l.456.454-.576.576-.455-.456.575-.574zm.143-.144l.573-.574.456.456-.573.574-.456-.456zm.717-.718l.431-.43.456.456-.431.43-.456-.456zm1.03.168l.455.454-.432.432-.454-.454.431-.432zm.143-.142l.576-.575.454.455-.574.573-.456-.453zm.72-.719l.573-.573.456.454-.575.573-.454-.454zm.716-.718l.576-.574.453.454-.575.575-.454-.455zm.72-.716l.573-.575.454.454-.574.574-.453-.453zm.117-1.318l.576-.575.453.456-.573.574-.456-.455zm.72-.721l.575-.572.454.456-.576.574-.453-.458zm.573-.859l-.454-.456.576-.574.454.456-.576.574zm-.597-.597l-.455-.456.575-.575.456.458-.576.573zm-.599-.599l-.454-.455.574-.573.455.453-.575.575zm-.6-.599l-.478-.479.574-.573.478.48-.574.572zm-.621-.621l-.455-.455.575-.575.454.456-.574.574zm-.142.142l-.574.575-.454-.454.574-.577.454.456zm-1.174-.025l-.453-.454.573-.574.454.454-.574.574zm-.143.146l-.574.573-.456-.455.574-.574.456.456zm-1.173-.024l-.453-.456.571-.574.456.455-.574.575zm-.143.146l-.574.57-.454-.454.574-.572.454.456zm-1.171-.027l-.456-.455.573-.574.456.456-.573.573zm-.145.143l-.574.576-.454-.456.574-.574.454.454zm-.718.719l-.573.573-.456-.453.574-.575.455.455zm-1.171-.024l-.458-.455.576-.574.454.454-.572.575zm-.146.144l-.573.573-.456-.455.576-.574.453.456zm-.718.718l-.431.43-.453-.453.43-.432.454.455zm-.575.573l-.573.575-.454-.454.574-.574.453.453zm-.716.719l-.575.574-.456-.456.575-.574.456.456zm-.719.717l-.574.574-.453-.454.573-.574.454.454zm-.718.718l-.573.574-.456-.454.576-.574.453.454zm-.119 1.316l-.576.574-.451-.454.573-.572.454.452zm-.718.718l-.573.573-.456-.454.574-.574.455.455zm.142.144l.456.453-.573.575-.456-.455.573-.573zm.599.601l.456.45-.576.576-.454-.455.574-.571zm.6.595l.455.456-.575.574-.456-.456.576-.574zm.599.599l.478.478-.575.575-.479-.479.576-.574zm.623.622l.454.456-.576.575-.454-.457.576-.574zm.599.6l.451.454-.573.575-.454-.456.576-.573zm.141-.144l.576-.575.452.456-.572.571-.456-.452zm1.173.024l.454.454-.573.572-.454-.451.573-.575zm.141-.145l.576-.572.456.454-.576.574-.456-.456zm1.171.023l.458.456-.573.575-.456-.456.571-.575zm.146-.141l.574-.576.454.456-.574.575-.454-.455zm1.173.023l.456.454-.575.574-.454-.454.573-.574zm.145-.143l.574-.575.456.455-.576.574-.454-.454zm.718-.719l.573-.573.454.454-.574.574-.453-.455zm1.171.024l.456.453-.576.575-.454-.456.574-.572zm.143-.143l.432-.431.456.454-.435.432-.453-.455zm.576-.575l.574-.573.453.454-.573.574-.454-.455zm.716-.717l.574-.575.456.454-.574.575-.456-.454zm.718-.72l.575-.573.454.454-.573.574-.456-.455zm.719-.717l.574-.574.453.454-.573.574-.454-.454zm.12-1.315l.573-.574.456.454-.573.574-.456-.454zm.717-.718l.576-.576.453.456-.573.574-.456-.454zm.12-1.317l.575-.574.454.454-.573.574-.456-.454zm.717-.718l.576-.574.454.454-.574.575-.456-.455zm-.142-.144l-.453-.456.573-.574.454.456-.574.574zm-.595-.597l-.458-.456.574-.574.455.458-.571.572zm-.601-.599l-.456-.455.576-.572.456.454-.576.573zm-.599-.599l-.478-.479.571-.575.481.479-.574.575zm-.623-.623l-.456-.456.575-.573.456.456-.575.573zm-.598-.595l-.456-.457.576-.573.456.454-.576.576zm-.145.139l-.573.577-.454-.456.574-.574.453.453zm-1.171-.022l-.454-.455.574-.573.454.454-.574.574zm-.143.143l-.575.573-.454-.453.576-.574.453.454zm-1.173-.023l-.454-.454.576-.574.454.453-.576.575zm-.144.144l-.573.574-.456-.454.574-.574.455.454zm-1.171-.024l-.458-.454.574-.574.456.454-.572.574zm-.145.144l-.573.574-.456-.456.576-.572.453.454zm-.719.717l-.571.574-.458-.453.573-.575.456.454zm-1.173-.022l-.452-.455.574-.574.453.454-.575.575zm-.143.144l-.573.573-.454-.456.575-.573.452.456zm-.717.716l-.574.572-.454-.451.576-.575.452.454zm-.72.718l-.428.432-.454-.455.431-.431.451.454zm-.571.575l-.576.573-.453-.454.575-.573.454.454zm-.719.716l-.574.575-.456-.453.574-.575.456.453zm-.718.718l-.573.576-.454-.454.573-.574.454.452zm-.717.72l-.576.574-.453-.454.573-.574.456.454zm-.122 1.315l-.573.574-.454-.456.571-.572.456.454zm-.716.718l-.574.575-.453-.454.573-.575.454.454zm-.573.861l.452.454-.573.575-.454-.454.575-.575zm.598.598l.454.456-.574.574-.456-.456.576-.574zm.598.598l.453.455-.573.574-.454-.455.574-.574zm.596.597l.454.456-.574.576-.453-.454.573-.578zm.6.602l.478.478-.574.574-.478-.481.574-.571zm.623.621l.453.455-.573.575-.454-.456.574-.574zm.599.6l.454.453-.576.573-.451-.455.573-.571zm.597.597l.454.454-.576.575-.454-.454.576-.575zm.146-.144l.573-.575.452.456-.574.575-.451-.456zm1.169.022l.453.457-.573.574-.454-.457.574-.574zm.143-.144l.573-.574.458.457-.576.574-.455-.457zm1.175.027l.453.454-.575.575-.454-.455.576-.574zm.144-.144l.571-.574.456.454-.572.574-.455-.454zm1.17.024l.453.454-.571.574-.454-.454.572-.574zm.144-.144l.575-.576.454.456-.576.575-.453-.455zm.719-.718l.571-.574.458.454-.573.574-.456-.454zm1.171.024l.456.454-.574.574-.455-.454.573-.574zm.143-.144l.573-.574.456.454-.573.573-.456-.453zm.719-.719l.433-.43.454.453-.431.432-.456-.455zm.576-.573l.573-.575.454.454-.572.575-.455-.454zm.717-.718l.574-.575.455.455-.575.573-.454-.453zm.717-.718l.574-.573.456.453-.574.574-.456-.454zm.719-.718l.573-.574.454.456-.576.574-.451-.456zm.118-1.316l.576-.574.456.454-.576.575-.456-.455zm.719-.717l.573-.574.456.454-.573.574-.456-.454zm.121-1.316l.573-.574.456.454-.576.574-.453-.454zm.716-.717l.573-.574.456.453-.575.575-.454-.454zm.12-1.32l.575-.574.454.457-.576.573-.453-.456zm-.143-.143l-.454-.452.573-.576.456.454-.575.574zm-.598-.594l-.456-.458.574-.574.456.457-.574.575zm-.598-.602l-.454-.454.573-.574.454.454-.573.574zm-.598-.597l-.479-.479.573-.575.479.479-.573.575zm-.623-.622l-.454-.455.572-.574.456.454-.574.575zm-.6-.6l-.453-.455.573-.574.454.458-.574.571zm-.596-.599l-.456-.454.576-.573.453.454-.573.573zm-.144.144l-.575.575-.454-.454.573-.575.456.454zm-1.173-.022l-.454-.456.574-.574.453.456-.573.574zm-.143.143l-.574.574-.456-.454.573-.574.457.454zm-1.173-.023l-.454-.456.574-.574.453.456-.573.574zm-.144.143l-.575.574-.454-.455.573-.575.456.456zm-1.173-.024l-.454-.453.574-.574.453.45-.573.577zm-.145.143l-.573.575-.452-.456.573-.574.452.455zm-.717.719l-.576.574-.451-.455.573-.573.454.454zm-1.171-.024l-.456-.455.573-.573.456.453-.573.575zm-.145.145l-.574.573-.453-.456.573-.573.454.456zm-.716.717l-.575.574-.456-.455.576-.575.455.456zm-.719.716l-.573.575-.456-.454.573-.577.456.456zm-.719.72l-.429.43-.456-.454.431-.43.454.454zm-.572.574l-.575.575-.456-.456.576-.575.455.456zm-.719.716l-.574.576-.455-.456.573-.574.456.454zm-.716.72l-.576.574-.456-.454.576-.574.456.454zm-.72.718l-.573.574-.454-.456.573-.574.454.456zm-.122 1.315l-.571.575-.454-.456.572-.573.453.454zm-.715.718l-.573.573-.456-.453.575-.574.454.454zm-.12 1.316l-.575.575-.454-.455.576-.573.453.453zm-.573.862l.454.453-.574.575-.455-.455.575-.573zm.597.597l.455.455-.577.576-.454-.456.576-.575zm.599.598l.454.456-.576.573-.453-.456.575-.573zm.597.6l.456.455-.576.574-.456-.456.576-.573zm.599.598l.479.478-.575.575-.478-.479.574-.574zm.621.623l.456.454-.574.573-.455-.454.573-.573zm.602.6l.452.451-.574.575-.454-.456.576-.57zm.596.597l.452.455-.571.571-.454-.451.573-.575zm.596.594l.456.458-.574.572-.455-.456.573-.574zm.146-.141l.573-.575.456.456-.575.575-.454-.456zm1.173.024l.454.455-.574.573-.453-.453.573-.575zm.143-.143l.573-.573.454.453-.573.574-.454-.454zm1.171.021l.456.456-.576.575-.453-.456.573-.575zm.145-.141l.573-.574.454.454-.573.574-.454-.454zm1.173.024l.452.455-.572.573-.453-.455.573-.573zm.142-.144l.573-.574.456.454-.573.574-.456-.454zm.719-.718l.574-.574.455.454-.575.576-.454-.456zm1.173.024l.551.55-.574.574-.552-.549.575-.575zm.143-.142l.574-.575.552.551-.578.573-.548-.549zm.718-.719l.573-.575.552.551-.573.574-.552-.55zm.719-.716l.43-.435.551.552-.433.431-.548-.548zm.573-.576l.574-.575.552.55-.575.575-.551-.55zm.718-.718l.575-.574.551.55-.576.573-.55-.549zm.718-.719l.571-.575.553.552-.574.573-.55-.55zm.717-.716l.574-.574.552.549-.573.575-.553-.55zm.118-1.318l.578-.574.453.454-.575.574-.456-.454zm.721-.718l.574-.574.454.454-.574.574-.454-.454zm.572-.861l-.454-.454.574-.574.455.453-.575.575zm.264-1.174l.575-.573.456.455-.576.574-.455-.456zm.121-1.313l.576-.575.453.454-.573.575-.456-.454zm.12-1.318l.573-.576.454.457-.571.573-.456-.454zm-.143-.143l-.454-.456.574-.574.454.456-.574.574zm-.598-.599l-.457-.455.573-.573.458.455-.574.573zm-.599-.597l-.456-.456.574-.574.457.455-.575.575zm-.599-.599l-.479-.481.574-.57.481.478-.576.573zm-.623-.623l-.453-.455.573-.575.456.455-.576.575zm-.597-.598l-.456-.455.574-.574.455.456-.573.573zm-.598-.599l-.456-.454.574-.574.456.454-.574.574zm-.598-.596l-.454-.456.571-.573.456.455-.573.574zm-.144.144l-.576.572-.453-.454.575-.574.454.456zm-1.175-.025l-.454-.456.575-.575.454.456-.575.575zm-.143.143l-.574.573-.453-.454.573-.573.454.454zm-1.171-.026l-.454-.453.573-.574.454.456-.573.571zm-.144.145l-.576.575-.455-.454.577-.574.454.453zm-1.173-.024l-.456-.454.575-.574.456.454-.575.574zm-.143.144l-.574.574-.453-.456.573-.574.454.456zm-.718.72l-.575.574-.454-.455.574-.575.455.456zm-1.175-.026l-.55-.548.576-.575.55.55-.576.573zm-.143.145l-.571.573-.552-.551.575-.574.548.552zm-.717.716l-.573.576-.553-.551.576-.574.55.549zm-.717.718l-.576.575-.548-.55.573-.574.551.549zm-.72.719l-.573.574-.55-.551.575-.575.548.552zm-.716.719l-.433.428-.548-.548.431-.43.55.55zm-.574.572l-.576.573-.548-.547.571-.575.553.549zm-.719.719l-.573.574-.551-.549.576-.575.548.55zm-.715.718l-.578.575-.55-.552.574-.574.554.551zm-.721.716l-.574.575-.55-.551.573-.572.551.548zm-.12 1.319l-.572.574-.455-.456.573-.573.454.455zm-.715.717l-.576.573-.456-.453.576-.575.456.455zm-.122 1.317l-.576.573-.453-.453.573-.576.456.456zm-.574.86l.454.455-.573.573-.454-.453.573-.575zm-.263 1.172l-.301.303c-.006-.019-.01-.038-.014-.055a9.89 9.89 0 0 1-.081-.492c-.008-.056-.012-.112-.02-.167l.416.411zm.144.145l.453.454-.645.645c-.016-.049-.037-.099-.051-.147a7.638 7.638 0 0 1-.134-.487c-.008-.023-.01-.047-.016-.07l.393-.395zm.596.597l.456.453-.894.896c-.032-.063-.065-.124-.095-.19a7.786 7.786 0 0 1-.181-.444l.714-.715zm.598.597l.456.456-1.058 1.057c-.043-.062-.088-.126-.132-.193-.074-.124-.137-.25-.206-.377l.94-.943zm.599.602l.456.455-1.144 1.142c-.047-.06-.102-.115-.153-.175-.084-.109-.161-.227-.239-.34l1.08-1.082zm.599.597l.479.478-1.149 1.148c-.093-.083-.19-.157-.281-.245-.072-.074-.133-.155-.202-.232l1.153-1.149zm.623.621l.456.454-1.079 1.081a7.847 7.847 0 0 1-.517-.395l1.14-1.14zm.599.602l.454.454-.927.924a6.44 6.44 0 0 1-.576-.33l1.049-1.048zm.598.596l.454.455-.689.689a6.627 6.627 0 0 1-.641-.265l.876-.879zm.597.597l.455.456-.363.36a7.931 7.931 0 0 1-.715-.193l.623-.623zm.599.6l.366.367a8.886 8.886 0 0 1-.637-.098l.271-.269zm.144-.144l.574-.575.455.454-.575.575-.454-.454zm1.172.024l.454.454-.093.093c-.302.007-.601.003-.896-.015l.535-.532zm.144-.145l.574-.573.455.453-.575.575-.454-.455zm1.173.024l.454.456-.076.076a9.808 9.808 0 0 1-.891.103l-.061-.06.574-.575zm.141-.144l.576-.574.455.456-.577.574-.454-.456zm1.175.026l.357.356c-.31.088-.616.164-.923.226l-.01-.009.576-.573zm.142-.145l.574-.573.552.552-.354.351c-.11.037-.221.075-.332.109l-.44-.439zm1.984-.599l.303.301c-.262.129-.524.253-.786.36l-.088-.086.571-.575zm.146-.143l.573-.574.516.515c-.246.144-.489.287-.737.413l-.352-.354zm.716-.719l.578-.573.668.668c-.229.16-.456.318-.691.461l-.555-.556zm.72-.716l.573-.575.772.771c-.214.172-.429.344-.648.501l-.697-.697zm.717-.719l.431-.431.819.816c-.151.137-.305.273-.462.402l-.788-.787zm.576-.574l.573-.574.831.831c-.053.058-.104.117-.157.17-.138.141-.283.265-.426.396l-.821-.823zm.717-.719l.573-.573.8.798c-.171.207-.359.403-.546.603l-.827-.828zm.719-.716l.574-.574.715.714c-.159.217-.334.431-.507.642l-.782-.782zm.718-.718l.573-.576.578.579c-.146.23-.301.459-.462.687l-.689-.69zm.023-1.411l.575-.576.549.551-.574.574-.55-.549zm.719-.72l.574-.574.552.552-.576.573-.55-.551zm.12-1.315l.573-.574.454.454-.573.574-.454-.454zm.717-.719l.574-.573.455.454-.573.574-.456-.455zm.12-1.316l.573-.573.458.454-.575.573-.456-.454zm.12-1.315l.573-.574.456.455-.574.572-.455-.453zm.719-.719l.375-.374c.05.262.085.527.11.798l-.031.031-.454-.455zm-.144-.144l-.456-.456.724-.722c.076.232.142.471.196.714l-.464.464zm-.602-.597l-.451-.456.98-.98c.098.209.187.423.269.644l-.798.792zm-.592-.6l-.458-.454 1.151-1.152c.12.187.231.381.332.58l-1.025 1.026zm-.602-.596l-.454-.455 1.24-1.242c.14.167.273.339.395.518l-1.181 1.179zm-.597-.599l-.479-.479 1.253-1.253c.075.07.159.126.232.2.088.09.161.188.245.28l-1.251 1.252zm-.623-.623l-.454-.456 1.188-1.188c.175.124.344.257.511.401l-1.245 1.243zm-.599-.599l-.456-.455 1.046-1.044c.198.103.387.217.571.339l-1.161 1.16zm-.599-.598l-.454-.454.817-.816c.216.08.426.174.635.275l-.998.995zm-.596-.598l-.456-.455.495-.496c.242.056.476.125.709.203l-.748.748zm-.599-.599l-.455-.454.068-.07c.27.028.53.068.79.121l-.403.403zm-.144.146l-.573.574-.456-.457.574-.572.455.455zm-1.173-.025l-.455-.455.241-.241c.226-.005.452-.005.672.005l.116.117-.574.574zm-1.316.119l-.453-.454.247-.248c.196-.028.389-.049.584-.067l.194.196-.572.573zm-1.316.12l-.463-.463c.302-.092.608-.172.909-.238l.13.126-.576.575zm-.143.142l-.574.576-.55-.551.558-.559c.008-.003.016-.005.021-.008l.545.542zm-1.268-.117l-.118-.117c.122-.05.246-.089.365-.133l-.247.25zm0 .284l.55.551-.573.576-.553-.551.576-.576zm-.718.435l-.386-.387c.26-.13.522-.251.786-.364l.175.177-.575.574zm-.144.143l-.576.574-.589-.591c.243-.147.487-.286.734-.414l.431.431zm-.718.718l-.575.574-.735-.738c.225-.161.454-.317.685-.461l.625.625zm-.718.718l-.574.574-.831-.832c.213-.174.425-.347.641-.507l.764.765zm-.717.718l-.574.575-.876-.876c.198-.187.398-.374.603-.547l.847.848zm-.72.718l-.575.574-.866-.871c.131-.141.255-.287.395-.426.053-.055.114-.103.169-.157l.877.88zm-.717.717l-.431.429-.835-.833c.058-.066.104-.136.161-.203.077-.087.163-.171.24-.255l.865.862zm-.574.575l-.575.575-.743-.745.101-.144c.126-.171.266-.338.398-.505l.819.819zm-.719.718l-.575.573-.52-.521-.143.144.521.52-.574.575-.396-.394c.02-.038.035-.076.055-.113.089-.167.185-.331.279-.498.082-.14.159-.281.245-.42.108-.174.23-.344.346-.515.017-.022.03-.047.048-.068l.714.717zm-1.434 1.435l-.575.575-.128-.131c.02-.053.039-.106.063-.16.07-.163.148-.327.226-.49.021-.045.047-.095.068-.141l.346.347zm-1.321 2.99l.458.456-.573.575-.11-.109c.006-.105.018-.206.027-.312.018-.153.033-.311.06-.466l.138-.144zm-.117 1.318l.455.454-.563.565a7.222 7.222 0 0 1-.023-.886l.131-.133zm.073 6.397c-.021-.024-.049-.05-.068-.076.061.076.123.15.185.217.13.164.272.326.439.487.211.214.425.399.633.555.472.385 1.071.748 1.503.986.026.015.038.025.06.039-.012.149-.316.24-.588.276-.348.042-2.607 1.005-4.006 1.724-.254.13-.479.25-.662.357-.928.551-1.518.544-1.725.514v-.003a1.802 1.802 0 0 1 .049-.558c.006-.025.012-.047.016-.07.032-.127.076-.266.14-.42.01-.029.024-.058.036-.088.071-.167.156-.347.277-.547.539-.907 1.452-2.945 1.869-4.02.122-.315.202-.554.214-.649.008-.066.021-.14.039-.207.005-.017.007-.029.013-.045a.802.802 0 0 1 .064-.185c0-.004.002-.004.002-.004a.25.25 0 0 1 .086-.112l.021-.015a.12.12 0 0 1 .117-.003c.062.029.128.104.205.24.257.472.665 1.124 1.081 1.607zm18.177-5.378l-.542-.542.573-.574.386.383c-.13.245-.267.49-.417.733zm.515-.922l-.338-.338.574-.576.128.129c-.112.264-.232.524-.364.785zm.448-.988l-.068-.066.147-.147c-.028.068-.051.143-.079.213zm.244-.665l-.454.454-.553-.551.576-.574.495.494c-.017.06-.044.119-.064.177zm.127-.397l-.414-.417.571-.575.083.08c-.067.302-.145.608-.24.912zm.336-1.456l-.179.177-.451-.454.573-.574.147.146a8.6 8.6 0 0 1-.09.705zm.114-.97l-.027-.024.031-.03a.53.53 0 0 1-.004.054zm-.17-.168l-.454-.458.572-.57.066.066c.014.254.018.511.01.769l-.194.193zm2.438-11.741l-.006.038a143.3 143.3 0 0 1-1.582 9.497c-.012-.066-.031-.129-.045-.196-.033-.152-.065-.304-.108-.45-.045-.167-.1-.327-.155-.489a8.593 8.593 0 0 0-.155-.433 8.385 8.385 0 0 0-.208-.461 8.254 8.254 0 0 0-.206-.41 6.991 6.991 0 0 0-.264-.431 5.583 5.583 0 0 0-.257-.384 8.34 8.34 0 0 0-.311-.397c-.058-.07-.106-.144-.167-.21.033.04.061.086.092.127-.125-.147-.247-.302-.389-.443-3.786-3.786-10.786-2.928-15.634 1.918-2.748 2.751-4.212 6.192-4.279 9.346-.072.521-.2 1.254-.398 2.117-.676 2.907-2.223 7.378-5.701 10.996-.092.06-.15.094-.182.111a.196.196 0 0 0-.043.016l-.386.384h.001l-.068.066h.006l-.018.018-.041-.038-.382-.38s-.023-.009-.06-.016a2.763 2.763 0 0 1-.155-.095c-4.3-4.461-5.656-10.244-6.059-12.762.042-2.107-.566-4.362-1.77-6.471v-.004a15.558 15.558 0 0 0-3.429-4.139c-.108-.091-.222-.173-.331-.262-.208-.17-.417-.341-.631-.498-.133-.097-.272-.18-.407-.272-.196-.134-.391-.271-.587-.393-.149-.092-.304-.17-.455-.256-.188-.105-.375-.219-.567-.314-.161-.082-.322-.152-.488-.228-.182-.083-.365-.172-.551-.25-.17-.068-.339-.125-.507-.188-.182-.065-.361-.137-.543-.193-.173-.055-.349-.099-.524-.147-.177-.046-.353-.097-.529-.139-.179-.039-.355-.068-.534-.1-.172-.029-.342-.063-.512-.086-.184-.025-.363-.037-.543-.053a8.403 8.403 0 0 0-.496-.038c-.183-.008-.362-.003-.542-.001-.158.001-.318 0-.477.011-.179.01-.354.031-.533.051-.153.016-.309.032-.46.056-.175.03-.346.067-.52.105-.146.034-.295.063-.44.105-.168.046-.332.1-.498.157-.142.05-.284.098-.422.152-.16.065-.315.138-.469.213a5.4 5.4 0 0 0-.402.203 7.393 7.393 0 0 0-.438.265 6.589 6.589 0 0 0-.778.566c-.068.057-.144.106-.21.166.041-.035.085-.06.127-.092-.148.127-.302.247-.442.389-1.977 1.975-2.676 4.825-2.217 7.789-1.965-8.431-2.816-16.277-3.168-20.695.645.068 1.354.111 2.125.111 4.538 0 10.685-1.422 17.844-6.708.028-.007.057-.011.085-.018.006-.023.018-.044.028-.067-.01.022-.022.043-.03.067-.027.007-.056.01-.082.017.037-.026.075-.056.112-.083a50.37 50.37 0 0 0 2.701-2.152c.249-.212.496-.431.743-.651.095-.082.187-.161.277-.243a62.92 62.92 0 0 0 3.621-3.517c.092-.096.187-.195.279-.294a80.574 80.574 0 0 0 3.527-3.997c.132-.163.264-.318.399-.483.144.175.286.341.427.514a81.769 81.769 0 0 0 3.022 3.453c.23.248.459.487.688.727.88.923 1.755 1.788 2.615 2.593 9.172 8.585 17.058 10.683 22.563 10.683.587 0 1.121-.031 1.639-.073a3.932 3.932 0 0 1 0-.001c.233-.019.473-.036.695-.061-.025.314-.056.649-.085.997a152.855 152.855 0 0 1-.74 6.738z"/><path fill="#FEA945" d="M52.19 81.15l-.576-.574.454-.456.575.574zM47.163 78.515l.24.242.454-.456-.574-.575-.115.117c-.011.22-.011.446-.005.672zM55.756 86.197l.574.575-.456.455-.574-.575zM47.184 78.974l.073-.074-.088-.09c.003.053.012.109.015.164zM48.032 74.599l1.045 1.046.455-.454-1.161-1.162a7.499 7.499 0 0 0-.339.57zM47.212 77.369l.069.07.456-.452-.404-.406c-.054.259-.09.522-.121.788zM56.353 85.6l.575.576-.454.453-.575-.575zM47.663 75.427l.816.816.456-.455-.997-.998a7.28 7.28 0 0 0-.275.637zM55.036 85.48l.575.574-.456.455-.574-.574zM47.977 79.618l-.574-.575-.196.194c.021.195.039.391.067.588l.249.246.454-.453zM52.789 80.837l.573.576-.456.453-.573-.575zM47.386 76.346l.496.494.454-.454-.746-.748a7.01 7.01 0 0 0-.204.708zM52.667 79.235l-.574-.574.454-.455.575.574zM57.789 87.035l.574.574-.455.456-.574-.574zM48.838 83.064l-.573-.575-.177.174c.113.264.232.523.364.785l.386-.384zM48.122 82.346l-.25-.25c.045.122.085.243.134.367l.116-.117zM66.549 79.713l.042.044-.021-.064-.021.02zM48.264 82.2l.551-.549-.574-.574-.544.543.007.021.56.559zM49.557 83.781l-.575-.575-.429.432c.128.246.267.491.414.732l.59-.589zM48.097 80.934l-.574-.574-.128.127c.065.304.145.607.239.912l.463-.465zM47.379 80.214l-.042-.038.014.067.028-.029zM57.068 86.317l.576.575-.453.453-.575-.574zM48.486 73.858l1.188 1.188.454-.454-1.242-1.245a6.703 6.703 0 0 0-.4.511zM52.069 79.833l-.575-.574.456-.455.574.574zM52.786 80.551l-.574-.575.454-.454.575.575zM63.557 85.575l.574.574-.453.453-.574-.574zM55.633 84.882l.574.574-.451.451-.574-.574zM54.461 84.905l.43.429-.454.455-.43-.429zM65.35 83.78l.576.574-.454.455-.576-.574zM56.233 84.282l.574.575-.455.454-.574-.575zM55.062 84.307l.43.431-.455.455-.43-.43zM66.69 82.443l.131.128v-.259zM56.951 85.001l.576.574-.455.456-.576-.574zM65.373 82.326l.454-.457.576.574-.454.456zM65.472 85.096l.572.573-.456.456-.572-.573zM66.788 85.218l-.456.453.489.488v-.908zM64.752 84.379l.574.574-.454.454-.574-.574zM66.667 83.902l-.454.453.573.576.035-.034v-.841zM65.494 83.632l.455-.454.574.575-.455.454zM66.811 83.759l.01.01v-.021zM52.906 82.155l.575.575-.453.452-.575-.575zM54.341 83.59l.576.573-.454.456-.575-.574zM54.099 70.91l-.068.068.576.575.453-.455-.192-.195a8.943 8.943 0 0 0-.769.007zM53.505 81.554l.574.574-.454.455-.574-.574zM53.745 84.186l.576.575-.455.456-.576-.575zM53.626 82.87l.574.576-.456.455-.575-.575zM61.138 87.993l.575.574-.454.454-.574-.574zM64.155 84.978l.574.575-.455.454-.574-.575zM50.276 84.498l-.576-.572-.623.624c.146.23.299.46.461.685l.738-.737zM62.335 86.796l.574.574-.454.454-.574-.574zM62.957 86.173l.574.573-.479.48-.574-.574zM61.735 87.395l.576.573-.45.453-.577-.573zM51.71 85.936l-.574-.574-.846.847c.173.205.36.401.547.601l.873-.874zM59.839 91.098a8.92 8.92 0 0 0 .788-.027l-.564-.563-.454.453.131.134c.034-.001.066.003.099.003zM58.555 79.092l-.575-.575.455-.454.574.575zM59.848 80.383l-.431-.43.452-.454.432.43zM55.3 79.474l-.575-.573.48-.48.573.573zM57.237 78.972l-.574-.576.457-.455.574.576zM59.367 82.299l-.574-.574.456-.456.575.574zM55.925 78.85l-.576-.572.453-.455.576.573zM59.248 80.98l-.43-.431.453-.453.431.432zM59.273 79.809l-.575-.575.455-.454.574.575zM58.313 76.46l-.574-.575.455-.454.575.575zM56.64 79.571l-.575-.575.457-.456.574.576zM57.956 79.689l-.574-.573.454-.456.575.574zM58.907 91.044c.102.01.202.019.304.026l.108-.11-.575-.573-.454.454.14.144c.162.023.317.042.477.059zM61.981 90.86c.167-.041.332-.087.494-.137.048-.017.097-.035.145-.05l-.645-.645-.452.452.391.393c.022-.003.045-.009.067-.013zM54.82 81.389l-.574-.574.455-.455.574.574zM51.111 76.485l-.575-.576.456-.455.575.576zM63.34 81.478l.455-.454.574.576-.456.454zM51.71 75.885l-.575-.574.48-.48.574.574zM58.65 81.58l-.43-.431.456-.456.43.432zM62.478 80.624l-.574-.576.455-.455.575.576zM64.033 83.376l-.573-.576.456-.453.573.575zM54.702 80.074l-.574-.573.454-.455.574.573zM55.42 80.79l-.577-.575.454-.455.576.575zM49.317 78.277l-.575-.576.455-.454.575.575zM58.388 86.437l.574.575-.453.452-.574-.575zM50.513 77.082l-.574-.575.454-.454.574.575zM61.628 90.938l.052-.012-.302-.301-.411.411c.052-.005.107-.01.161-.017.167-.021.337-.048.5-.081zM56.4 76.937l-.574-.575.454-.454.575.576zM57.453 81.63l-.574-.575.478-.479.575.574zM58.676 80.407l-.574-.574.453-.453.574.574zM57.358 80.288l-.575-.576.455-.453.574.575zM52.977 88.688l.745-.743-.576-.575-.818.819c.167.134.335.273.506.4.046.034.095.065.143.099zM55.085 76.818l-.574-.574.454-.455.575.574zM52.167 88.062l.836-.835-.433-.431-.863.865c.085.076.17.161.255.236.069.06.139.109.205.165zM58.65 81.864l.575.575-.48.479-.575-.575zM55.537 82.392l.577.573-.452.455-.577-.574zM50.992 85.218l-.575-.575-.761.762c.158.221.332.431.505.645l.831-.832zM57.669 85.72l.573.572-.453.455-.574-.573zM59.106 87.155l.573.575-.453.452-.574-.575zM51.558 87.521l.87-.868-.574-.574-.878.878c.055.058.102.117.157.17.138.139.283.265.425.394zM55.585 90.165l.16.062.13-.129-.576-.573-.344.345c.045.022.09.045.137.066.164.08.328.158.493.229zM56.999 76.34l-.574-.575.455-.455.574.574zM56.017 80.192l-.575-.573.48-.48.575.573zM56.165 90.39l-.147-.147-.067.067c.034.011.065.025.097.037l.117.043zM56.136 81.51l-.574-.575.455-.455.574.574zM57.453 81.914l.43.43-.455.456-.43-.43zM57.004 90.667c.155.043.311.088.468.128.16.039.319.07.478.103l.057-.057-.576-.575-.352.354-.146-.145.354-.354-.574-.574-.551.551.447.448c.131.044.263.08.395.121zM56.855 82.227l-.575-.575.455-.455.575.576zM53.731 89.198c.137.086.278.163.417.243.167.096.333.193.503.284.035.018.073.033.108.053l.397-.396-.576-.575-.521.52-.143-.142.522-.521-.575-.575-.716.715c.022.019.045.032.068.05.173.115.341.233.516.344zM59.701 86.556l.575.572-.453.455-.575-.572zM58.027 82.203l-.43-.43.478-.48.431.431zM55.683 76.22l-.574-.574.454-.454.574.574zM56.735 80.911l-.574-.574.479-.478.574.574zM52.187 81.436l.576.573-.453.455-.576-.572zM52.547 77.92l-.574-.576.455-.454.574.575zM58.794 71.96l.574.574.337-.339c-.259-.13-.523-.251-.785-.364l-.126.129zM58.65 71.815l.068-.068c-.072-.029-.144-.051-.217-.079l.149.147zM56.664 71.217l.574.575.417-.416a11.163 11.163 0 0 0-.913-.24l-.078.081zM50.134 81.764l-.455.457-.576-.574.455-.456zM49.532 82.375l-.551.55-.574-.575.552-.55zM49.677 82.513l.574.575-.55.55-.575-.575zM60.948 74.113l.574.574.783-.783c-.212-.174-.424-.349-.641-.507l-.716.716zM51.113 83.948l.574.575-.55.55-.575-.575zM60.229 73.396l.574.574.688-.689a13.717 13.717 0 0 0-.685-.463l-.577.578zM50.393 83.23l.574.573-.55.551-.574-.573zM51.951 78.517l-.576-.574.453-.455.576.574zM59.512 72.676l.574.574.542-.541a13.094 13.094 0 0 0-.734-.416l-.382.383zM54.008 72.152l-.575-.575.454-.453.574.574zM61.666 74.83l.574.575.827-.826c-.199-.187-.397-.374-.602-.547l-.799.798zM48.576 79.017l-.455.454-.573-.574.455-.455zM48.72 78.876l-.576-.575.454-.455.576.575zM60.9 85.36l.573.574-.453.453-.574-.574zM52.81 73.348l-.574-.575.454-.454.575.575zM53.409 72.75l-.574-.575.456-.456.574.575zM48.242 80.79l-.577-.575.454-.454.576.577zM48.839 80.478l.574.574-.453.453-.574-.574zM48.598 77.56l-.573-.577.454-.453.574.576zM55.169 70.92l.035.035.027-.029-.062-.006zM55.497 70.949l-.15.149.574.574.458-.455-.18-.179c-.237-.039-.47-.066-.702-.089zM49.294 79.74l-.457.455-.573-.576.456-.454zM60.301 85.96l.574.573-.454.454-.574-.574zM58.028 89.667l.573.573-.454.455-.574-.573zM59.345 89.787l.575.575-.455.455-.575-.576zM66.821 81.661l-.394-.391-.454.454.574.575.274-.274zM58.628 89.07l.574.575-.455.455-.574-.576zM57.31 88.95l.575.575-.456.455-.574-.575zM66.57 81.126l.251.248v-.498zM61.857 88.71l.574.575-.453.454-.575-.574zM59.944 89.19l.574.575-.455.454-.574-.575zM56.592 88.232l.576.574-.455.456-.576-.574zM66.071 84.5l.572.574-.456.454-.572-.575zM61.26 89.31l.573.573-.454.453-.573-.573zM66.819 82.858l-.27-.273-.456.456.574.574.152-.154zM60.66 89.908l.574.572-.455.455-.573-.573zM51.83 84.665l.575.576-.55.55-.576-.574zM52.548 85.384l.574.574-.55.551-.575-.574zM55.994 88.83l.576.573-.549.552-.576-.574zM64.394 77.56l.574.574.554-.553c-.142-.235-.3-.462-.46-.689l-.668.668zM63.214 74.716l-.833.833.578.577.822-.823c-.133-.143-.259-.289-.397-.427-.054-.056-.114-.104-.17-.16zM63.101 76.27l.431.427.787-.785a14.605 14.605 0 0 0-.399-.46l-.819.818zM65.111 78.277l.574.574.354-.353c-.127-.251-.271-.492-.415-.735l-.513.514zM63.675 76.842l.575.573.696-.697a12.997 12.997 0 0 0-.499-.647l-.772.771zM54.558 87.394l.574.574-.55.551-.575-.574zM53.266 86.102l.43.43-.55.551-.431-.43zM55.276 88.11l.575.576-.553.552-.575-.575zM53.84 86.676l.575.574-.551.55-.574-.573zM65.829 78.997l.574.574.087-.089a14.077 14.077 0 0 0-.36-.788l-.301.303zM63.078 80.025l-.574-.574.453-.453.575.574zM50.753 79.713l-.574-.575.455-.455.575.575zM51.35 79.115l-.574-.575.456-.455.575.575zM62.598 82.225l.574.573-.454.454-.574-.572zM50.871 81.03l-.572-.578.455-.451.572.577zM52.212 73.946l-.574-.574.454-.455.574.574zM54.965 75.501l-.575-.575.454-.453.574.575zM57.877 71.44l-.496.496.575.573.55-.55-.457-.459c-.057-.018-.113-.043-.172-.06zM51.471 80.718l.574.575-.454.454-.574-.576zM56.878 75.024l-.574-.575.456-.455.574.575zM64.873 85.695l.574.574-.454.454-.574-.574zM63.198 81.342l-.576-.574.454-.455.576.574zM62.598 81.939l-.574-.576.456-.454.574.576zM55.563 74.903l-.574-.574.456-.456.574.574zM63.676 86.892l.573.572-.48.48-.573-.573zM58.266 85.12l.577.577-.455.454-.577-.577zM63.054 87.516l.573.572-.454.455-.573-.572zM58.987 85.837l.574.576-.456.455-.575-.575zM62.455 88.114l.572.573-.454.454-.572-.573zM64.275 86.293l.574.575-.455.455-.574-.576zM62.36 79.307l-.575-.575.456-.455.574.576zM63.278 90.416c.065-.026.127-.062.191-.093l-.894-.894-.455.454.711.711a5.4 5.4 0 0 0 .447-.178zM51.591 82.033l.575.576-.456.455-.575-.576zM52.308 82.753l.573.572-.454.455-.573-.572zM65.854 80.406l.573.574.394-.393v-.207c-.017-.057-.043-.111-.062-.169l-.355-.354-.55.549zM59.581 85.243l.576.573-.452.455-.577-.573zM53.027 83.47l.575.575-.456.455-.574-.575zM51.47 80.43l-.574-.575.453-.453.575.575zM62.717 83.541l.574.572-.452.455-.575-.573zM63.318 82.943l.574.575-.454.453-.574-.574zM62.121 84.14l.574.573-.456.456-.574-.573zM49.796 76.363l-.575-.574.455-.455.574.574zM61.639 78.59l-.43-.431.458-.455.429.43zM53.769 76.698l-.574-.575.453-.454.575.575zM50.992 75.168l-.575-.574.48-.48.574.574zM51.615 74.543l-.574-.574.455-.454.574.574zM61.522 84.737l.574.574-.48.48-.573-.575zM49.198 76.96l-.574-.573.454-.454.574.574zM48.003 78.158l-.575-.572.453-.454.574.571zM50.393 75.766l-.574-.574.456-.455.574.574zM53.144 77.321l-.574-.577.481-.479.575.577zM62.741 82.082l.454-.454.574.574-.454.454zM60.349 77.297l-.575-.575.455-.455.575.576zM59.632 76.58l-.575-.576.455-.454.575.575zM55.78 71.822l-.456.454-.573-.575.455-.454zM56.64 72.391l-.574-.574.455-.455.574.575zM58.194 75.144l-.574-.576.455-.455.575.576zM61.067 78.014l-.574-.575.455-.455.574.574zM63.795 80.742l-.574-.575.455-.455.575.575zM58.914 75.86l-.575-.573.455-.456.574.574zM54.725 72.87l-.574-.574.455-.455.574.575zM56.281 75.622l-.574-.574.454-.454.574.574zM57.596 75.742l-.574-.574.455-.455.575.574zM54.367 76.1l-.574-.575.455-.454.574.574zM58.076 81.005l-.574-.574.455-.455.574.574zM62.839 84.856l.574.574-.455.455-.574-.574zM56.257 83.11l.43.43-.454.455-.43-.43zM55.66 83.71l.43.43-.456.455-.43-.43zM54.246 74.785l-.574-.575.454-.454.575.574zM56.832 83.684l.574.575-.456.455-.574-.575zM63.436 84.258l.575.574-.453.454-.575-.573zM53.648 75.382l-.574-.574.455-.456.574.575zM54.94 82.991l.575.574-.453.453-.574-.574zM52.427 76.604l-.574-.575.479-.478.574.575zM53.05 75.98l-.574-.574.454-.454.575.574zM61.283 82.104l.574.574-.456.457-.574-.575zM59.463 83.924l.576.574-.453.456-.577-.574zM61.283 81.82l-.574-.575.453-.454.575.574zM51.83 77.202l-.575-.574.454-.455.575.573zM51.231 77.8l-.574-.576.456-.455.574.576zM61.88 81.222l-.574-.574.454-.454.575.574zM57.55 84.403l.574.574-.455.456-.574-.575z"/><path fill="#FEA945" d="M66.819 106.941l.001.001v-.003l-.586-.586s-.185-.297-.072-.598c.005-.02.001-.045.012-.063.249-.507.479-.224.479-.224l.13-.121-.037.008c.013-.014.039-.015.053-.023l.02-.021V94.32a26.934 26.934 0 0 0-6.876-1.989c-3.156-.065-6.598-1.53-9.346-4.278-1.742-1.74-2.958-3.76-3.642-5.807 2.697 10.661 7.226 21.873 14.808 28.025.001.002.003.002.006.003l-.005-.003c.474.281.957.547 1.459.778.068.164.145.309.219.463a20.923 20.923 0 0 0 3.377 1.85h-.001v-6.421zM58.148 83.804l.575.576-.456.455-.575-.576zM58.865 84.522l.574.574-.454.455-.575-.574zM54.103 80.956l.574.574-.455.456-.574-.574zM53.505 81.27l-.574-.574.455-.455.573.573zM55.418 81.076l.575.573-.453.455-.576-.574zM54.104 80.67l-.576-.574.454-.455.576.574zM64.775 82.92l.456-.456.575.575-.456.456zM53.982 79.355l-.574-.573.456-.456.573.573zM53.383 79.952l-.572-.575.455-.453.572.575zM65.232 82.178l-.574-.573.454-.455.574.572zM59.509 75.264l-.573-.574.457-.456.573.574zM65.826 81.582l-.573-.575.459-.457.573.575zM57.478 74.424l-.574-.573.454-.456.575.574zM58.075 73.826l-.575-.572.455-.456.574.572zM54.822 81.673l.574.574-.455.456-.574-.575zM54.845 74.186l-.574-.574.455-.455.574.575zM55.442 73.588l-.574-.575.457-.456.574.576zM54.222 82.272l.573.573-.453.454-.574-.573zM56.162 74.304l-.574-.572.453-.455.574.572zM64.035 83.66l.575.576-.454.453-.574-.575zM64.632 83.063l.575.573-.454.455-.575-.574z"/><path fill="#FEA945" d="M66.505 50.633c-.15.007-.289.027-.429.047a50.771 50.771 0 0 1-2.701 2.152c-.01.022-.022.044-.028.067-.028.007-.057.011-.085.018-7.159 5.286-13.306 6.708-17.844 6.708-.772 0-1.481-.042-2.125-.111.352 4.418 1.204 12.265 3.168 20.695-.459-2.964.24-5.813 2.217-7.789.14-.142.294-.262.442-.389-.042.032-.086.057-.127.092.067-.06.142-.109.21-.166.132-.11.264-.214.399-.312.124-.091.25-.174.379-.254a6.374 6.374 0 0 1 .84-.468c.154-.075.309-.148.469-.213.139-.054.28-.102.422-.152a7.98 7.98 0 0 1 .498-.157c.146-.042.294-.072.44-.105.174-.038.344-.075.52-.105.152-.024.307-.041.46-.056.179-.021.354-.042.533-.051.159-.011.319-.009.477-.011.181-.002.359-.007.542.001.164.006.331.022.496.038.18.016.359.027.543.053.17.022.34.057.512.086.179.032.355.062.534.1.177.042.353.093.529.139.175.048.351.092.524.147.182.056.361.128.543.193.168.062.337.12.507.188.186.077.369.167.551.25.166.075.327.146.488.228.192.096.379.209.567.314.15.086.306.165.455.256.197.122.392.259.587.393.135.092.274.175.407.272.214.157.422.327.631.498.109.088.222.17.331.262a15.583 15.583 0 0 1 3.429 4.139V50.185c-.104.147-.193.308-.311.448zm-15.921 14.42l.832 2.557-2.173-1.579-2.175 1.579.83-2.557-2.174-1.581h2.688l.832-2.558.83 2.558h2.688l-2.178 1.581z"/><path fill="#FEA945" d="M56.76 73.707l-.574-.574.455-.456.574.574zM58.793 74.544l-.574-.574.454-.455.574.574zM55.156 86.796l.574.574-.454.455-.575-.574zM56.473 86.916l.574.574-.454.455-.575-.574zM50.73 81.17l-.454.456-.575-.573.454-.456zM50.872 81.317l.576.575-.454.455-.576-.575zM66.636 90.335a6.354 6.354 0 0 1-.488.438c-.068.063-.147.127-.224.191l.057-.056c-.482.411-1.119.806-1.581 1.062-.137.077-.211.144-.241.204a.12.12 0 0 0 .003.118.054.054 0 0 0 .013.021.323.323 0 0 0 .112.087l.005.003c.05.025.116.048.184.064l.046.012c.069.017.139.029.209.038.208.026 1.102.382 2.088.819V90.12c-.063.072-.113.143-.183.215zM55.872 87.514l.575.573-.45.453-.576-.573zM53.861 78.037l-.572-.574.48-.48.573.575zM59.752 77.896l-.575-.573.454-.455.575.573zM50.011 80.454l-.453.456-.576-.573.454-.456zM57.19 87.633l.575.574-.455.455-.574-.574zM53.865 85.502l.43.431-.455.455-.43-.43zM59.034 77.178l-.575-.573.454-.456.576.573zM51.71 83.35l.575.575-.454.454-.575-.575zM53.146 84.787l.574.574-.454.455-.574-.574zM57.717 77.058l-.575-.574.454-.454.574.574zM50.274 81.913l.574.574-.455.456-.574-.575zM52.427 84.068l.574.573-.454.455-.574-.573zM54.44 86.077l.574.577-.457.454-.574-.577zM50.154 80.313l-.574-.576.454-.453.574.576zM54.486 77.415l-.574-.574.453-.453.574.574zM50.992 82.633l.574.573-.454.455-.574-.573zM64.734 89.531c.062-.05.119-.105.179-.156l-1.142-1.143-.454.455 1.083 1.084c.112-.079.225-.153.334-.24zM59.822 87.874l.574.573-.453.454-.574-.573zM61.617 86.078l.574.574-.454.455-.574-.574zM59.225 88.472l.574.575-.455.454-.574-.575zM61.76 79.906l-.573-.574.456-.456.574.574zM58.507 87.753l.575.574-.455.455-.574-.574zM49.916 77.68l-.574-.573.455-.456.574.573zM50.633 78.397l-.574-.576.455-.453.574.575zM61.042 79.189l-.43-.43.455-.456.43.43zM60.54 88.59l.574.575-.452.452-.574-.574zM62.24 85.456l.575.576-.479.478-.575-.576zM50.036 78.995l-.574-.573.453-.454.574.573zM66.07 88.089l-1.077-1.076-.456.453 1.139 1.139c.14-.166.27-.339.394-.516zM61.019 86.677l.574.574-.454.454-.574-.574zM49.437 79.595l-.574-.575.455-.454.574.575zM66.517 87.342l-.927-.929-.454.456 1.048 1.048a7.2 7.2 0 0 0 .333-.575zM60.422 87.275l.575.575-.456.455-.574-.575zM57.907 88.352l.576.574-.453.455-.576-.573zM60.468 78.614l-.575-.575.455-.454.575.575zM65.297 89.039c.088-.089.162-.188.243-.28l-1.146-1.147-.478.478 1.15 1.152c.077-.069.157-.13.231-.203zM53.264 78.637l-.574-.575.455-.455.575.575zM65.135 79.69l.549-.55.575.576-.549.548zM64.992 79.546l-.574-.573.55-.551.573.573zM58.027 82.488l.575.575-.455.454-.575-.575zM56.521 78.254l-.574-.575.455-.455.574.576zM60.445 79.786l-.43-.432.454-.454.431.432zM60.182 84.642l.575.575-.455.454-.575-.575zM60.565 81.101l-.575-.574.454-.453.574.574zM60.804 84.02l.574.574-.48.48-.574-.575zM59.39 73.946l-.573-.574.55-.55.574.574zM61.398 83.423l.577.571-.45.454-.576-.57zM58.673 73.228l-.574-.574.551-.551.574.574zM52.916 71.059l.374.374.454-.455-.032-.033a8.864 8.864 0 0 0-.796.114zM57.838 78.373l-.574-.573.452-.453.574.573zM57.428 83.086l.575.573-.453.455-.575-.573zM56.042 72.988l-.575-.574.453-.455.576.574zM59.871 79.211l-.574-.573.454-.454.574.573zM59.152 78.494l-.574-.574.455-.455.574.574zM57.359 73.109l-.575-.572.454-.456.575.57zM60.947 76.699l-.575-.574.455-.455.574.574zM62.84 77.392l-.43-.43.545-.548.431.43zM62.001 82.823l.575.575-.454.454-.575-.575zM64.536 80.285l.456-.454.573.575-.456.454zM61.545 76.1l-.574-.574.55-.55.575.574zM62.24 77.99l-.431-.43.454-.455.431.431zM58.744 83.207l.575.574-.452.453-.575-.573zM59.369 82.584l.574.575-.48.479-.574-.574zM62.264 76.819l-.575-.576.55-.55.576.576zM61.664 77.417l-.575-.574.457-.456.574.574zM64.273 78.83l-.574-.573.55-.552.574.573zM66.819 86.674v-.226l-.63-.634-.456.455.878.878c.076-.155.146-.309.208-.473zM60.11 74.664l-.575-.575.55-.55.575.576zM61.881 81.507l.574.574-.454.454-.574-.574zM64.63 82.777l-.572-.575.456-.454.572.575zM60.829 75.382l-.574-.575.548-.548.574.575zM59.965 81.7l-.574-.575.456-.455.574.575zM63.556 78.11l-.574-.576.549-.548.574.575zM59.968 81.985l.574.573-.456.457-.574-.574zM56.856 82.512l.43.43-.455.456-.43-.43zM62.957 78.71l-.574-.575.454-.454.574.575zM53.53 74.066l-.574-.574.455-.455.573.574zM52.333 75.262l-.573-.574.454-.454.574.573zM60.684 82.702l.576.574-.455.456-.575-.574zM50.342 72.077l1.154 1.152.453-.456-1.027-1.03c-.199.102-.39.212-.58.334zM63.938 80.89l.455-.456.574.575-.455.455zM55.203 78.133l-.574-.576.456-.454.574.576zM60.565 81.386l.574.574-.455.455-.574-.574zM49.655 72.583l1.242 1.242.454-.454-1.179-1.179c-.178.12-.349.254-.517.391zM52.93 74.665l-.574-.577.457-.454.574.577zM60.228 75.981l-.574-.577.457-.455.574.578zM64.393 80.144l-.574-.573.455-.456.574.573zM51.112 71.648l.982.981.452-.455-.793-.793a7.335 7.335 0 0 0-.641.267zM64.033 90.021c.067-.041.13-.089.197-.13l-1.059-1.059-.453.452.938.941c.128-.066.257-.131.377-.204zM49.221 72.963c-.073.073-.132.153-.202.23l1.256 1.253.479-.479-1.252-1.25c-.093.084-.191.158-.281.246zM57.12 77.655l-.575-.574.454-.454.574.575zM54.58 78.757l-.573-.576.48-.48.574.576zM51.967 71.306l.725.726.454-.456-.464-.464a7.82 7.82 0 0 0-.715.194zM61.163 80.505l-.574-.575.455-.455.574.574zM56.138 81.794l.574.574-.455.455-.575-.574zM60.085 83.302l.576.574-.478.48-.576-.575zM54.127 73.468l-.574-.574.455-.455.574.574zM58.435 77.777l-.575-.576.456-.455.574.576zM63.675 79.428l-.576-.574.455-.456.576.574zM55.802 77.536l-.574-.575.455-.454.574.574zM90.036 72.709l.589.591.576-.574-.431-.431a13.42 13.42 0 0 0-.734.414zM85.1 85l-.574.575-.455-.453.575-.576zM100.553 80.645l.456.455-.572.574-.456-.454zM96.15 87.441l.551.551-.574.576-.552-.551zM92.919 87.083l.456.454-.572.574-.456-.454zM99.263 81.938l.576-.574.455.456-.576.574zM89.173 73.281l.735.738.575-.574-.626-.625c-.23.143-.46.3-.684.461zM100.46 83.136l.575-.576.55.55-.575.575zM95.596 70.912c-.055.003-.109.01-.161.015l.073.073.088-.088zM101.754 81.841l.551.552-.574.574-.551-.552zM98.163 85.44l.552.55-.574.575-.552-.55zM99.594 83.995l.553.552-.573.574-.553-.552zM98.877 84.713l.55.55-.574.575-.55-.55zM95.893 70.904l-.241.241.455.455.574-.574-.116-.117c-.22-.01-.447-.01-.672-.005zM87.281 74.875c-.14.139-.264.285-.395.426l.866.871.575-.574-.878-.88c-.053.054-.115.102-.168.157zM86.507 75.708c-.057.067-.104.137-.161.203l.835.833.431-.429-.864-.862c-.078.084-.164.168-.241.255zM87.598 74.579l.876.876.574-.575-.848-.848c-.204.173-.404.361-.602.547zM88.359 73.905l.831.832.574-.574-.764-.766c-.216.161-.428.334-.641.508zM96.867 86.724l.552.55-.574.575-.552-.55zM97.452 86.148l.552.552-.433.432-.55-.552zM100.32 83.278l.551.548-.572.576-.552-.549zM96.968 71.025l.455.454.403-.403a8.492 8.492 0 0 0-.79-.121l-.068.07zM93.358 73.157l-.456-.455.574-.576.456.455zM87.162 78.157l-.548-.547.574-.575.548.547zM94.646 71.86l-.571.574-.454-.451.572-.574zM87.867 84.904l.455.456-.576.574-.454-.456zM92.64 73.872l-.454-.456.576-.572.453.456zM94.665 73.036l-.454-.453.571-.573.455.453zM95.962 71.742l-.573.574-.453-.452.573-.574zM88.472 85.502l.477.477-.574.575-.478-.477zM94.164 71.094l.027.028.041-.042c-.021.006-.046.009-.068.014zM90.959 72.195l.386.387.575-.574-.175-.177c-.264.113-.526.234-.786.364zM93.401 88.999l.453.455-.576.572-.452-.456zM93.011 71.375l.463.463.576-.575-.13-.126c-.301.066-.608.146-.909.238zM92.614 72.698l-.573.576-.552-.55.573-.575zM88.443 76.866l-.55-.55.574-.574.55.551zM87.278 84.308l.456.45-.569.577-.456-.45zM87.874 77.44l-.548-.548.43-.43.548.548zM86.679 83.708l.456.453-.572.575-.456-.453zM89.172 76.148l-.548-.55.577-.575.548.55zM92.765 71.448l-.558.559.55.551.574-.576-.545-.542c-.006.002-.014.004-.021.008zM90.172 88.637l.456.456-.574.574-.456-.456zM90.608 74.712l-.552-.551.571-.573.552.551zM91.327 73.994l-.55-.549.574-.575.55.548zM89.884 75.423l-.552-.55.574-.577.552.551zM85.219 83.685l-.575.575-.453-.454.575-.574zM98.493 73.996l-.455-.455.572-.574.456.454zM92.32 86.484l.458.456-.572.574-.458-.456zM95.979 72.918l-.454-.455.576-.574.454.455zM84.762 82.944l-.456-.454.571-.575.457.453zM84.619 83.09l-.576.573-.455-.458.576-.573zM97.905 73.395l-.456-.454.573-.576.456.455zM95.431 88.159l.55.55-.574.575-.55-.55zM94.72 88.879l-.578.572.554.553.572-.576zM84.5 84.403l-.573.573-.455-.454.574-.574zM91.605 87.209l.458.457-.573.574-.458-.457zM94.584 71.017l-.247.248.453.454.572-.573-.194-.196a11.73 11.73 0 0 0-.584.067zM91.01 86.606l.454.454-.574.574-.454-.454zM97.566 71.624l.456.455.748-.747a7.678 7.678 0 0 0-.709-.203l-.495.495zM89.1 86.125l.455.456-.576.574-.455-.456zM97.3 72.799l-.454-.457.575-.572.454.456zM86.432 78.876l-.551-.549.572-.574.551.549zM85.719 79.587l-.55-.552.578-.576.55.552zM94.197 90.5l.354-.352-.552-.552-.574.573.44.439c.112-.033.222-.071.332-.108zM84.163 82.346l-.456-.453.573-.577.456.453zM84.997 80.311l-.55-.55.576-.575.55.551zM89.695 86.726l.45.454-.576.573-.451-.454zM85.598 80.91l-.455-.456.575-.572.454.457zM85.457 81.052l-.572.575-.456-.454.573-.574zM92.063 71.864l.247-.25c-.119.044-.243.083-.365.133l.118.117zM98.284 84.114l.456.456-.575.575-.455-.456zM99.003 83.396l.456.453-.571.576-.456-.454zM96.268 86.124l.456.455-.572.574-.456-.454zM97.567 84.833l.454.454-.574.574-.454-.454zM99.724 82.679l.454.456-.575.573-.454-.457zM96.856 85.55l.455.453-.431.432-.455-.454zM92.677 89.713l.455.456-.576.575-.455-.456zM88.982 87.442l.455.454-.572.572-.454-.453zM90.896 87.92l.453.457-.577.572-.453-.457zM89.574 88.04l.454.454-.576.575-.454-.454zM99.862 82.535l.578-.574.454.457-.578.574zM100.699 80.503l.574-.574.454.454-.574.574zM92.2 87.8l.454.455-.576.574-.453-.454zM95.712 89.872l-.303-.301-.571.575.088.086c.262-.107.524-.231.786-.36zM85.965 84.14l-.457-.455.573-.574.456.454zM90.745 87.778l-.452-.456-.573.575.451.457zM92.804 88.399l.454.453-.574.574-.454-.454zM93.515 87.681l.454.455-.574.572-.454-.454zM94.845 87.56l.455.454-.574.575-.455-.454zM94.115 88.278l.456.455-.572.574-.457-.454zM94.649 90.335c.021-.009.043-.015.064-.023l-.02-.022-.044.045zM91.494 88.519l.455.453-.573.574-.455-.453zM95.551 86.842l.456.455-.572.574-.456-.454zM85.817 84.281l-.573.576-.454-.453.573-.575zM98.387 75.31l-.454-.456.575-.574.454.455zM87.654 87.562l.457.454-.572.574-.456-.454zM88.264 88.16l.453.45-.573.575-.452-.451zM86.563 85.024l.453.455-.576.573-.453-.455zM85.964 84.425l.454.456-.576.574-.454-.457zM99.007 75.932l-.479-.478.573-.574.479.478zM85.843 85.741l.455.457-.576.572-.454-.456zM96.591 73.515l-.453-.455.575-.573.453.454zM86.444 86.34l.456.455-.574.575-.456-.455zM87.03 86.939l.48.477-.573.575-.48-.478zM97.777 74.711l-.453-.455.574-.571.453.455zM91.364 89.834l.454.453-.572.574-.455-.453zM90.764 89.236l.454.456-.575.573-.454-.455zM100.939 77.87l.575-.575.454.455-.575.574zM87.754 86.22l.477.478-.572.572-.477-.477zM88.382 86.843l.453.455-.575.573-.453-.455zM92.085 89.115l.456.456-.574.574-.456-.456zM89.455 89.354l.455.458-.574.572-.456-.458zM100.802 77.726l-.454-.452.574-.577.454.453zM88.855 88.76l.452.456-.576.572-.452-.455zM99.6 76.53l-.454-.453.574-.574.454.454zM100.197 77.131l-.456-.458.576-.573.456.458zM87.16 85.622l.455.456-.577.575-.455-.457zM94.546 74.353l-.454-.457.575-.573.455.457zM102.736 79.665l.451.454.179-.177c.04-.236.069-.472.091-.705l-.147-.146-.574.574zM102.616 80.981l.414.417c.095-.305.173-.61.24-.912l-.083-.08-.571.575zM103.48 78.972a.528.528 0 0 0 .004-.055l-.031.03.027.025zM101.512 77.01l-.454-.457.575-.573.455.456zM101.896 81.698l.553.551.454-.454c.02-.058.047-.117.064-.177l-.495-.494-.576.574zM97.184 74.113l-.456-.453.571-.575.456.454zM102.659 82.46c.027-.07.051-.145.079-.214l-.147.147.068.067zM102 79.207l.456.455-.574.574-.456-.455zM95.86 74.235l-.454-.456.575-.572.454.455zM101.873 83.11l.338.338c.132-.262.252-.521.364-.785l-.128-.129-.574.576zM100.921 76.412l-.457-.455.573-.575.457.455zM99.362 73.417l.454.456 1.245-1.244a6.807 6.807 0 0 0-.511-.401l-1.188 1.189zM98.761 72.819l.456.455 1.161-1.16a6.402 6.402 0 0 0-.571-.339l-1.046 1.044zM101.658 77.154l.574-.577.456.455-.573.576zM101.397 78.612l.456.453-.571.575-.456-.453zM100.102 79.906l.573-.574.454.454-.573.573zM102.597 79.806l.456.455-.573.574-.455-.455zM101.538 78.47l.576-.576.455.456-.576.575zM102.136 79.066l.573-.573.456.455-.574.573zM103.428 77.775l-.572.57.454.458.194-.193a8.945 8.945 0 0 0-.01-.769l-.066-.066zM102.256 77.751l.572-.574.455.454-.573.574zM95.275 73.633l-.454-.454.574-.573.454.454zM85.367 83.542l-.453-.454.575-.574.454.454zM100.796 78.012l.454.454-.574.575-.454-.454zM89.758 76.748l-.456-.454.575-.576.456.455zM87.043 79.474l-.455-.456.576-.574.455.456zM88.477 78.039l-.456-.454.428-.43.456.454zM89.05 77.464l-.456-.455.573-.575.457.454zM86.322 80.194l-.457-.454.574-.576.456.454zM87.755 78.758l-.456-.456.574-.575.457.456zM98.164 72.222l.454.454.998-.996a7.242 7.242 0 0 0-.635-.275l-.817.817zM86.054 81.649l-.571.575-.456-.452.572-.576zM86.918 80.79l-.454-.454.575-.574.454.454zM96.703 72.191l-.456-.457.574-.573.456.457zM86.205 81.509l-.453-.455.575-.574.454.455zM86.653 82.25l-.573.573-.455-.455.573-.574zM101.298 81.1l.573-.573.455.453-.573.574zM100.32 75.815l-.456-.456.575-.575.456.456zM92.063 74.734l.453.456.573-.575-.452-.455zM93.956 73.754l-.455-.453.574-.577.455.453zM93.228 74.473l-.455-.454.574-.575.455.453zM99.713 75.216l-.479-.481.576-.574.48.481zM90.484 76.028l-.453-.457.575-.571.453.456zM91.194 75.311l-.456-.455.573-.575.456.455zM99.093 74.592l-.453-.455.577-.575.453.455zM101.156 81.243l.454.454-.574.574-.454-.454zM91.925 74.593l-.454-.455.575-.575.454.456zM96.615 81.004l.456.454-.573.575-.456-.455zM97.799 82.202l.453.454-.575.574-.454-.454zM92.164 79.138l-.455-.456.575-.574.455.456zM97.084 82.92l.456.454-.572.575-.457-.455zM96.363 83.638l.454.455-.576.575-.454-.456zM95.077 84.93l.454.453-.574.574-.454-.454zM98.77 78.566l-.454-.455.575-.575.455.456zM98.066 80.742l.576-.575.455.456-.576.575zM93.358 80.337l-.456-.455.575-.577.456.454zM95.659 84.353l.455.455-.43.431-.456-.454zM87.99 83.303l-.454-.456.574-.573.455.457zM94.785 78.9l-.453-.455.574-.572.453.455zM88.71 82.87l.453.457-.576.572-.454-.456zM88.707 82.585l-.454-.457.576-.573.454.456zM88.592 89.932l-.454-.455-.876.88c.206.098.42.187.641.265l.689-.69zM88.11 81.988l-.455-.457.576-.573.454.456zM94.368 85.646l.456.454-.574.576-.456-.455zM96.465 74.831l-.454-.454.575-.575.454.454zM93.756 85.047l.457.455-.574.576-.456-.455zM94.077 79.617l-.457-.454.573-.576.457.455zM93.48 79.019l-.454-.456.574-.573.455.456zM90.536 84.69l.453.455-.576.573-.453-.455zM88.592 84.186l.456.456-.575.575-.456-.457zM90.746 82.032l.456.456-.575.575-.456-.456zM91.444 79.856l-.456-.454.572-.575.456.454zM92.882 78.421l-.454-.455.575-.574.455.455zM90.742 81.747l-.455-.456.576-.574.455.457z"/><path fill="#FEA945" d="M101.203 86.773c-.098.119-.187.242-.287.36-.267.312-.552.62-.849.919-2.872 2.871-6.495 4.342-9.763 4.28-1.782.284-5.2 1.05-8.629 2.995v8.041l.992.928a.042.042 0 0 0-.01-.014l-.006-.015.132.137c.002.002 0 .002.002.003l1.181 1.104c.002 0 .004-.004.008-.007.029-.034.22-.208.435.167.066.069.304.398-.337 1.04l-.243.241c-.016.019-.031.032-.045.048-.029.031-.058.058-.087.086-.025.026-.049.048-.07.071-.004.003-.008.01-.014.013l-.221.222-.057.055-.016.019c0 .002-.004.003-.004.003-.039.039-.075.076-.12.116l-.585.588s-.299.184-.6.069c-.021-.007-.045-.002-.062-.01-.163-.08-.24-.157-.273-.227v5.883c10.516-3.666 16.653-15.798 20.229-28.057-.076.114-.146.229-.231.339-.146.206-.311.403-.47.603z"/><path fill="#FEA945" d="M83.33 107.457c0-.002.004-.005.006-.009.004-.001.006-.005.008-.007-.006.007-.008.007-.014.016zM91.342 82.346l-.456-.454.571-.575.456.453zM93.857 82.56l.453.454-.43.43-.453-.453zM89.19 90.53l-.455-.456-.623.623c.233.076.474.14.715.193l.363-.36zM87.983 83.59l.455.452-.57.574-.455-.452zM89.557 80.55l-.454-.455.575-.573.454.455zM91.104 91.008l-.454-.454-.534.532c.295.018.594.021.896.015l.092-.093zM89.334 90.674l-.271.27c.21.041.422.071.637.098l-.366-.368zM96.943 76.748l-.455-.456.574-.574.455.456zM98.171 77.966l-.454-.455.576-.575.454.456zM93.971 80.958l-.478-.48.576-.574.478.479zM96.34 76.147l-.455-.457.576-.573.455.456zM97.557 77.37l-.477-.48.574-.573.478.48zM90.025 82.465l-.455-.456.575-.573.454.457zM93.25 81.676l-.477-.48.574-.572.478.48zM92.045 80.453l-.455-.455.575-.574.454.456zM91.461 81.03l-.456-.454.429-.43.456.452zM94.695 80.24l-.48-.48.574-.573.479.48zM92.759 79.738l-.458-.455.574-.576.457.455zM92.345 90.965l.076-.076-.454-.456-.573.575.061.06c.294-.02.591-.055.89-.103zM88.825 81.27l-.455-.455.575-.576.455.454zM97.453 78.683L97 78.23l.574-.573.453.454zM96.489 82.32l.455.455-.575.575-.455-.456zM96.226 77.463l-.454-.454.575-.574.454.454zM97.324 80.288l.453.456-.576.572-.453-.456zM94.579 81.558l-.458-.456.574-.576.458.456zM92.067 81.914l.477.478-.575.574-.478-.478zM96.85 78.087l-.48-.48.575-.574.479.48zM89.907 84.067l.477.478-.572.572-.477-.478zM91.253 83.972l.455.456-.578.576-.455-.457zM91.86 84.572l.451.455-.579.574-.45-.455zM89.302 83.47l.454.455-.573.572-.454-.455zM92.057 81.628l-.454-.456.43-.43.455.457zM93.85 82.274l-.455-.458.578-.573.455.458zM90.617 83.35l.48.478-.573.574-.48-.478zM94.477 84.33l.456.456-.573.574-.456-.456zM95.292 80.832l-.457-.458.574-.573.457.458zM92.568 83.853l.456.453-.573.577-.456-.453zM93.883 83.732l.457.453-.573.576-.456-.453zM90.034 82.75l.455.454-.575.577-.455-.455zM89.302 83.184l-.454-.454.575-.576.454.454zM93.263 81.961l.455.456-.433.432-.455-.457zM95.051 83.756l.456.456-.43.43-.456-.456zM95.3 81.125l.454.458-.576.57-.454-.457zM92.688 82.25l-.48-.478.43-.43.48.478zM94.575 81.842l.456.456-.574.574-.456-.456zM95.766 83.037l.458.455-.572.575-.458-.456zM89.669 79.235l-.454-.453.43-.43.454.453zM93.717 76.386l-.456-.454.572-.575.456.455zM92.99 77.106l-.456-.455.573-.574.456.455zM92.273 77.823l-.455-.456.577-.574.454.457zM93.157 84.449l.455.456-.578.576-.454-.456zM94.313 76.984l-.454-.456.577-.573.453.456zM95.022 76.268l-.454-.454.573-.575.455.454zM95.408 79.522l-.478-.478.574-.573.478.478zM88.95 79.953l-.454-.454.574-.574.454.454zM91.68 77.224l-.458-.453.57-.576.457.453zM91.558 78.54l-.456-.453.571-.575.457.453zM90.237 78.66l-.455-.454.572-.574.456.454zM90.958 77.943l-.458-.455.572-.575.458.455zM90.835 79.26l-.456-.454.575-.576.455.454zM97.469 80.145l.573-.577.457.455-.574.576zM98.043 79.284l-.456-.458.575-.572.455.458zM98.764 78.85l.453.454-.575.575-.454-.454zM97.927 80.883l.456.457-.576.573-.455-.458zM97.205 81.602l.456.456-.573.574-.457-.456zM92.633 81.054l-.453-.455.575-.573.453.455zM90.865 80.432l-.456-.456.432-.431.456.456zM90.268 79.835l-.456-.457.43-.43.457.456zM89.423 81.868l-.455-.455.573-.575.456.455zM95.633 76.863l-.453-.454.575-.574.453.455zM96.016 80.12l-.457-.454.57-.573.457.455zM90.15 81.148l-.453-.456.575-.572.453.456zM90.06 89.954l.455.454-.575.575-.455-.454zM99.115 82.082l.453.454-.575.574-.453-.455zM93.641 90.672l-.357-.356-.575.573.01.009c.305-.062.612-.138.922-.226zM98.403 82.798l.454.454-.574.574-.454-.454zM96.96 84.235l.454.455-.574.572-.453-.454zM97.681 83.517l.456.454-.573.576-.457-.454zM96.124 78.806l-.477-.478.576-.575.477.478zM96.245 84.953l.457.454-.43.432-.457-.454zM83.684 86.216c.014.049.035.099.051.147l.645-.645-.453-.454-.392.394c.006.023.008.047.016.07.039.165.082.326.133.488zM84.085 87.211l.894-.896-.456-.453-.713.714c.057.15.114.298.181.444.029.067.062.127.094.191zM99.957 80.048l.453.456-.578.575-.453-.457zM84.519 87.972l1.058-1.057-.456-.456-.939.942c.069.127.132.253.206.377.043.068.088.131.131.194zM93.637 86.365l.456.454-.572.575-.457-.454zM87.85 83.445l-.575.574-.453-.454.575-.574zM97.518 88.804l-.668-.668-.578.573.555.556c.235-.143.461-.301.691-.461zM95.898 81.437l-.454-.455.576-.575.454.455zM87.252 82.848l-.576.574-.452-.454.576-.574zM94.904 77.585l-.456-.455.572-.574.456.455zM87.4 82.705l-.456-.455.573-.574.456.454zM90.422 86.007l.452.456-.578.573-.452-.455zM95.677 85.526l.456.453-.572.576-.456-.453zM89.18 84.785l.48.478-.572.574-.48-.478zM94.244 86.962l.455.456-.577.575-.455-.457zM96.644 89.368l-.516-.515-.573.574.352.354c.247-.126.49-.269.737-.413zM83.387 84.876c.023.165.05.33.081.492.004.017.008.036.014.055l.301-.303-.415-.411c.007.055.011.111.019.167zM96.872 79.544l.573-.573.456.456-.573.573zM92.683 82.537l.453.456-.576.573-.454-.456zM98.28 76.65l-.477-.478.576-.574.477.478zM93.287 83.134l.454.456-.576.575-.455-.457zM84.47 78.837c-.077.163-.155.327-.226.49a2.3 2.3 0 0 0-.063.16l.128.131.575-.575-.346-.347c-.021.046-.047.096-.068.141zM82.231 87.902a.118.118 0 0 0-.117.003l-.021.015a.264.264 0 0 0-.086.112s-.002 0-.002.004a.743.743 0 0 0-.064.185c-.006.016-.008.028-.013.045a1.536 1.536 0 0 0-.039.207c-.012.096-.092.334-.214.649v4.834c1.398-.719 3.658-1.682 4.006-1.724.271-.036.576-.127.588-.276-.021-.014-.033-.024-.06-.039-.432-.238-1.031-.602-1.503-.986a5.574 5.574 0 0 1-.633-.555 4.742 4.742 0 0 1-.439-.487 3.74 3.74 0 0 1-.185-.217c.02.026.047.052.068.076-.416-.483-.823-1.135-1.082-1.605-.076-.137-.142-.211-.204-.241zM91.346 82.631l.478.479-.574.575-.48-.479zM84.062 79.788c-.016.04-.029.08-.043.119l.146-.146-.066-.065-.037.092zM97.662 76.028l-.456-.456.574-.574.456.456zM85.819 76.576a3.702 3.702 0 0 1-.101.144l.743.745.575-.575-.819-.818c-.132.166-.272.333-.398.504zM97.061 75.423l-.456-.458.577-.575.456.457zM85.556 76.96c-.115.171-.237.341-.346.515-.086.139-.163.28-.245.42-.095.167-.19.331-.279.498-.02.037-.035.075-.055.113l.396.394.574-.575-.521-.52.143-.144.52.521.575-.573-.715-.717c-.017.021-.031.046-.047.068zM91.972 83.253l.456.455-.572.573-.456-.454zM86.801 82.106l-.456-.454.572-.575.456.454zM96.724 79.404l-.458-.456.573-.576.458.455zM100.082 78.444l-.453-.456.576-.573.453.457zM95.508 78.182l-.456-.456.575-.575.456.456zM83.365 82.643c-.01.106-.021.207-.027.312l.11.109.573-.575-.458-.456-.139.144c-.026.155-.041.312-.059.466zM83.311 83.576a7.222 7.222 0 0 0 .027.794l.563-.565-.455-.454-.132.134a1.36 1.36 0 0 0-.003.091zM85.242 85.142l.455.456-.575.575-.456-.455zM83.74 80.745c-.045.155-.088.312-.127.47-.038.159-.071.316-.103.477l.055.058.576-.577-.354-.352.144-.145.354.351.573-.572-.55-.549-.448.447c-.041.129-.08.26-.12.392zM95.898 81.72l.456.455-.574.576-.456-.455zM96.728 79.688l.456.457-.575.574-.456-.456zM99.487 77.848l-.458-.456.57-.573.458.456zM98.877 77.25l-.456-.454.574-.576.456.455zM94.95 86.246l.458.454-.57.575-.459-.454zM98.905 78.706l.576-.574.455.456-.576.574zM102.376 76.432l.456.456.464-.464a7.985 7.985 0 0 0-.196-.714l-.724.722zM99.503 79.305l.576-.574.455.456-.576.574zM101.779 75.835l.451.456.798-.793a8.378 8.378 0 0 0-.269-.644l-.98.981zM101.18 75.237l.458.454 1.025-1.026a6.492 6.492 0 0 0-.332-.58l-1.151 1.152zM98.666 81.341l.573-.574.456.455-.573.574zM99.365 79.448l.454.456-.574.573-.455-.457zM101.009 85.404l-.715-.714-.574.574.782.781c.173-.21.348-.424.507-.641zM93.594 77.703l-.454-.454.572-.572.454.454zM101.589 84.55l-.578-.579-.573.576.689.689c.161-.227.316-.456.462-.686zM101.154 83.828l.542.542c.149-.243.287-.488.417-.733l-.386-.383-.573.574zM87.52 81.389l-.453-.455.575-.573.454.454zM100.582 74.64l.454.455 1.181-1.18a6.323 6.323 0 0 0-.395-.518l-1.24 1.243zM91.125 85.29l.454.453-.572.574-.454-.452zM98.524 81.484l.454.454-.574.574-.454-.454zM91.723 85.887l.456.454-.573.575-.456-.454zM87.397 88.733l-.456-.454-1.14 1.141c.167.139.34.271.517.395l1.079-1.082zM89.813 85.416l.456.457-.574.573-.456-.457zM87.994 89.335l-.454-.454-1.049 1.048c.187.12.379.23.576.33l.927-.924zM92.455 85.17l.452.456-.578.572-.452-.455zM93.046 85.767l.454.456-.576.574-.454-.457zM101.213 72.763l-1.253 1.253.479.479 1.251-1.252c-.084-.092-.157-.19-.245-.28-.073-.073-.157-.13-.232-.2zM100.374 86.206l-.8-.798-.573.573.827.827c.187-.199.375-.395.546-.602zM85.031 88.657l1.144-1.142-.456-.455-1.08 1.082c.078.113.155.23.239.34.052.06.106.116.153.175zM85.648 89.284l1.149-1.148-.479-.478-1.153 1.148c.069.077.13.158.202.232.091.089.189.163.281.246zM103.461 77.456a8.655 8.655 0 0 0-.11-.798l-.375.374.454.455.031-.031zM92.397 76.506l-.456-.456.573-.573.456.456zM91.787 75.908l-.451-.455.577-.572.452.455zM91.08 76.626l-.452-.455.577-.573.453.455zM93.839 75.07l-.454-.454.575-.575.454.456zM90.36 77.344l-.455-.456.574-.572.455.456zM93.122 75.788l-.458-.454.57-.576.459.454zM88.358 79.355l-.453-.454.576-.575.453.455z"/><path fill="#FEA945" d="M105.878 59.393c-.518.042-1.052.073-1.639.073-5.506 0-13.392-2.098-22.563-10.683v37.019c.198-.863.326-1.596.398-2.117.067-3.153 1.531-6.595 4.279-9.346 4.848-4.847 11.848-5.705 15.634-1.918.142.141.264.296.389.443-.031-.041-.059-.087-.092-.127.061.067.109.14.167.21.107.13.212.264.311.397.092.125.177.253.257.384.093.14.181.284.264.431.072.134.14.27.206.41.072.15.144.304.208.461.058.144.106.287.155.433.056.162.11.322.155.489.043.146.075.298.108.45.014.067.033.13.045.196.689-3.4 1.2-6.63 1.582-9.497a.086.086 0 0 1-.004-.024l.01-.015v.001a153.3 153.3 0 0 0 .74-6.736 3.248 3.248 0 0 1-.061-.048 3.908 3.908 0 0 0-.549-.886zm-3.93 5.66l.831 2.557-2.175-1.579-2.176 1.579.829-2.557-2.173-1.581h2.688l.831-2.558.831 2.558h2.688l-2.174 1.581z"/><path fill="#FEA945" d="M88.232 80.671l-.456-.456.575-.575.456.456zM87.632 80.073l-.456-.453.573-.577.456.453zM94.192 78.3l-.454-.453.572-.572.454.454zM89.077 78.636l-.454-.456.43-.429.454.455zM89.644 78.06l-.454-.45.572-.575.454.45zM95.179 82.44l.453.453-.574.575-.453-.452zM81.676 107.823c.021-.043.051-.067.051-.067l-.051-.057v.124zM98.958 87.66l-.819-.816-.431.431.788.788c.157-.129.311-.266.462-.403zM95.753 75.548l-.454-.455.575-.574.454.455zM99.531 87.127c.053-.053.104-.112.157-.17l-.831-.831-.573.574.821.823c.143-.131.289-.255.426-.396zM94.43 75.67l-.453-.455.575-.575.454.454zM95.154 74.951l-.457-.454.573-.575.456.455zM98.337 88.189l-.772-.771-.573.575.697.697c.219-.157.434-.329.648-.501zM94.455 83.158l.456.456-.43.43-.456-.456z"/><path fill="#1DB0A7" d="M67.145 81.987l-.324.325v.259l.444.445.063-.062a11.907 11.907 0 0 0-.105-.89l-.078-.077zM66.821 86.676c.021-.056.038-.114.06-.169l-.06-.061v.23zM66.821 83.748v.021l.522.522c.019-.294.024-.597.013-.896l-.092-.092-.443.445zM67.15 85.58l-.329-.329v.908l.134.133c.076-.231.14-.471.195-.712zM67.297 84.709l-.366.365.271.271c.041-.208.068-.421.095-.636zM67.916 104.286a.027.027 0 0 1-.007.004c.002-.004.007-.004.008-.005l1.337-1.25-.012.003c.003-.003.013-.007.019-.01l1.402-1.311a.373.373 0 0 1-.027.007c.012-.012.03-.014.042-.021l1.362-1.276a.155.155 0 0 1-.033.01c.013-.013.038-.018.055-.029l1.029-.96a.161.161 0 0 0-.014.003c.005-.005.015-.005.02-.01l.446-.418-.104-.104-.26-.261s-.007-.015-.013-.043a2.813 2.813 0 0 0-.114-.181c-1.953-1.884-4.157-3.196-6.232-4.113v10.991l1.096-1.026zM79.061 46.189c-.229-.24-.458-.479-.688-.727a81.769 81.769 0 0 1-3.022-3.453c-.142-.173-.283-.339-.427-.514-.135.165-.267.32-.399.483a81.553 81.553 0 0 1-3.527 3.997c-.092.099-.188.198-.279.294a63.585 63.585 0 0 1-3.621 3.517c-.09.082-.182.161-.277.243-.247.221-.494.439-.743.651.141-.02.279-.041.429-.047.117-.14.207-.303.314-.45v27.449c1.204 2.108 1.812 4.363 1.77 6.471.402 2.518 1.758 8.301 6.059 12.762.072.047.124.077.155.095a.37.37 0 0 1 .06.016l.382.38.041.038.018-.018H75.3l.068-.066h-.001l.386-.384s.017-.009.043-.016c.032-.018.09-.052.182-.111 3.478-3.618 5.025-8.089 5.701-10.996v-37.02a62.394 62.394 0 0 1-2.618-2.594zm-1.963 10.34l-2.175-1.58-2.173 1.58.83-2.557-2.173-1.579h2.686l.831-2.558.832 2.558h2.687l-2.175 1.579.83 2.557zM68.489 88.724c-.033-.271-.127-.576-.274-.585-.013.021-.025.034-.039.06-.242.432-.607 1.029-.988 1.502-.104.137-.238.281-.367.422v3.215c.957.423 2 .921 2.579 1.264.199.119.376.203.543.276.03.01.063.026.093.038.152.062.289.105.413.138l.082.018c.116.024.224.045.311.051h.015c.092.005.167.004.224-.001h.005c.028-.212.037-.799-.513-1.729-.698-1.175-2.031-4.257-2.084-4.669zM66.821 83.461l.301-.301-.301-.302zM66.866 80.543l-.045-.162v.207l.045-.045zM66.821 80.876v.498l.324.325.008-.008a10.185 10.185 0 0 0-.224-.925l-.108.11zM66.95 107.071c.02.021.026.025.045.043l-.04-.039c-.014-.014-.025-.023-.039-.04.013.017.017.02.034.036z"/><path fill="#1DB0A7" d="M81.676 108.007a.176.176 0 0 1 0-.184v-.124l-.07-.074a.35.35 0 0 0 .008.034c-.012-.012-.015-.037-.024-.051l-1.043-1.114.002.004c-.002 0-.002-.004-.006-.007l-1.249-1.339.002.013c-.006-.006-.006-.014-.012-.021l-1.309-1.4c0 .005.006.025.006.025-.008-.011-.012-.028-.02-.04l-1.275-1.362a.3.3 0 0 1 .009.033c-.013-.014-.017-.036-.026-.054l-.963-1.028a.21.21 0 0 0 .003.012c-.005-.005-.005-.014-.011-.019l-.408-.437-.256.272c.001-.003.009-.006.009-.006l.015-.007-.114.108-4.836 5.167a.06.06 0 0 0 .019-.008l.015-.007a6.55 6.55 0 0 0-.139.13H70l-1.107 1.184a.245.245 0 0 0 .007.009c.035.029.206.22-.166.433-.06.06-.386.317-1.038-.336l-.237-.235c-.028-.026-.052-.052-.08-.08-.008-.007-.015-.013-.023-.023-.043-.042-.08-.078-.113-.113l-.199-.198c-.03-.033-.067-.064-.093-.093l-.055-.055c-.02-.021-.039-.039-.059-.062l-.015-.012-.001-.001v6.421h.001c2.446 1.058 5.132 1.649 8.102 1.649 2.431 0 4.676-.397 6.753-1.122v-5.882h-.001zM67.001 81.843l-.18-.182v.364zM77.541 98.396a2.272 2.272 0 0 0-.092.147c-.008.038-.016.064-.016.064l-.173.174-.216.215-.021.021.381.357c-.002 0-.006-.011-.006-.011l-.006-.013.097.104 4.187 3.914V95.33a20.383 20.383 0 0 0-4.135 3.066zM71.16 95.109c-.019.004-.041.006-.07.009a.834.834 0 0 0 .074-.009h-.004zM66.821 84.056v.841l.421-.421-.421-.42zM79.807 93.142c-.121.2-.206.38-.277.547-.012.03-.026.059-.036.088a3.272 3.272 0 0 0-.14.42c-.004.023-.01.045-.016.07a1.8 1.8 0 0 0-.049.558v.003c.207.03.797.037 1.725-.514.183-.107.408-.228.662-.357v-4.834c-.417 1.073-1.33 3.111-1.869 4.019zM61.771 110.274c.541.439 1.099.854 1.671 1.238-.072-.154-.15-.301-.217-.463a15.917 15.917 0 0 1-1.459-.778l.005.003zM63.345 52.899c.008-.024.02-.044.03-.067-.037.027-.075.057-.112.083.027-.006.055-.009.082-.016zM105.878 59.392c.222.272.406.569.55.888.02.016.039.032.061.048.029-.347.06-.682.085-.997-.223.025-.463.042-.696.061zM105.738 67.078c0 .009.002.017.004.024l.006-.038v-.001a.065.065 0 0 0-.01.015z"/><path fill="#1DB0A7" d="M147.587 60.883c-9.914 5.268-23.803 8.923-38.138 9.558 1.513-9.484 1.733-16.554 1.733-16.554s-15.671 8.018-36.26-19.313c-20.59 27.331-36.26 19.313-36.26 19.313s.217 7.062 1.728 16.538c-14.222-.674-27.978-4.313-37.819-9.542a96.284 96.284 0 0 0 6.538 11.765c6.9 3.171 15.375 5.729 23.919 6.383-7.645 1.306-13.959 1.216-18.941.507a80.012 80.012 0 0 0 6.818 7.522c5.69-.161 11.316-.751 17.096-2.501-5.017 3.006-9.164 4.739-13.189 6.029a67.693 67.693 0 0 0 7.417 5.423c3.81-1.511 7.611-3.387 11.181-5.664-2.85 2.972-5.609 5.409-8.224 7.409a56.334 56.334 0 0 0 7.706 3.539 68.005 68.005 0 0 0 4.672-4.675c5.33 12.314 13.827 22.495 27.358 22.495 13.616 0 22.131-10.307 27.457-22.726a67.501 67.501 0 0 0 4.885 4.905 56.522 56.522 0 0 0 7.708-3.539c-2.613-2-5.378-4.438-8.223-7.409 3.565 2.277 7.369 4.153 11.178 5.664a67.69 67.69 0 0 0 7.42-5.423c-4.027-1.29-8.175-3.023-13.19-6.029 5.78 1.75 11.405 2.34 17.095 2.501a80.422 80.422 0 0 0 6.819-7.522c-4.982.709-11.299.799-18.941-.507 8.542-.654 17.019-3.212 23.921-6.383a96.186 96.186 0 0 0 6.536-11.764zM74.923 117.84c-13.236 0-21.437-10.094-26.512-22.131.052-.057.106-.111.157-.171a47.864 47.864 0 0 1-.945-1.773c-2.85-7.339-4.609-15.214-5.693-21.876-.021-.464-.051-.933-.062-1.395-.055-.001-.105-.005-.16-.007-1.286-8.433-1.476-14.593-1.476-14.593s1.88.903 5.186.903c6.023 0 16.78-2.995 29.505-19.888 12.586 16.71 23.253 19.729 29.318 19.729 3.432 0 5.393-.967 5.393-.967s-1.919 62.169-34.711 62.169z"/></svg>