<svg xmlns="http://www.w3.org/2000/svg" viewBox="0 0 1500 1500"><path fill="#3A5675" d="M530.8 429.4c28.4 13.7 52 37.6 70.3 60.6H753V148.9c-284 .9-528.7 205.9-584.6 478.3.8-1.6 1.9-2.9 2.7-4.5C249.9 458.3 411.2 372 530.8 429.4zM1002 434.2c121.9-49.5 275.3 44.7 344.7 211-47.4-272.4-276.7-482-561.7-495.6V490h143.3c19.9-23 44.6-44 73.7-55.8z"/><path fill="#00A9DE" d="M938.8 902h-375c-85.6 118-217.1 172.3-318.7 123.4-11-5.3-21.2-12.3-30.7-19.6 96.2 202.7 302.7 342.5 542 342.5 232.1 0 433.5-132.1 533.1-325.1-12 8.9-25 17.8-39.2 23.5-104.9 42.8-233.5-26.7-311.5-144.7zM759 1298.6c-141.3 0-255.9-44.6-255.9-99.6 0-55 114.6-99.6 255.9-99.6s255.9 44.6 255.9 99.6c0 55-114.6 99.6-255.9 99.6z"/><path opacity=".32" fill="#BAC1CE" d="M1341.7 715.2l-43 15.6c30.7 303.3-156.2 281.2-156.2 281.2 257.8 35.3 199.2-296.8 199.2-296.8zM303.9 1011.1C460.2 1018.9 565.7 846 565.7 846h339.8l3.9-42-398.4-3.3s-289.1 343.5-359.4-47.1c0-.1-3.9 249.7 152.3 257.5z"/><path fill="#3A5675" d="M389.6 809.8c18.5 16.9 51.4 11 73.4-13.1 16.9-18.5 22.5-42.3 16-60.1-.7 14-7 29.2-18.6 41.9-22.1 24.1-55 30-73.4 13.1-4.3-3.9-7.4-8.8-9.4-14.2-.6 12.6 3.2 24.3 12 32.4zM381 644.3c16.9-18.5 22.6-42.4 15.9-60.1-.7 14-7 29.2-18.6 41.9-22.1 24.1-55 30-73.4 13.1-4.3-3.9-7.4-8.8-9.4-14.2-.6 12.7 3.3 24.4 12 32.4 18.6 16.9 51.4 11 73.5-13.1zM225.6 825.4c18.5 16.9 51.3 11 73.4-13.1 16.9-18.5 22.6-42.3 16-60.1-.7 14-7 29.2-18.6 41.8-22.1 24.1-55 30-73.4 13.1-4.3-3.9-7.4-8.8-9.4-14.2-.7 12.7 3.2 24.5 12 32.5z"/><path fill="#00A9DE" d="M460.4 778.4c11.6-12.7 17.9-27.8 18.6-41.9.6-12.7-3.2-24.4-12-32.4-18.5-16.9-51.4-11-73.4 13.1-16.9 18.5-22.6 42.3-16 60.1 2 5.4 5.1 10.3 9.4 14.2 18.5 16.9 51.4 11.1 73.4-13.1zM378.4 626.1c11.6-12.7 17.9-27.9 18.6-41.9.6-12.7-3.3-24.4-12-32.4-18.5-16.9-51.4-11-73.4 13.1-16.9 18.5-22.5 42.3-15.9 60.1 2 5.4 5.1 10.3 9.4 14.2 18.4 16.9 51.2 11 73.3-13.1zM296.4 794c11.6-12.7 17.8-27.8 18.6-41.8.6-12.7-3.3-24.4-12-32.4-18.5-16.9-51.4-11-73.4 13.1-16.9 18.5-22.5 42.3-16 60.1 2 5.4 5.1 10.3 9.4 14.2 18.5 16.8 51.3 11 73.4-13.2z"/><path fill="#3A5675" d="M1193.9 751H1149v8h44.9c17.3 0 31.3-14.1 31.3-31.3 0-1.8-.2-2.3-.5-4-2.6 14.8-15.3 27.3-30.8 27.3zM1041.6 751c-15.5 0-28.2-12.6-30.7-27.3-.3 1.7-.5 2.8-.5 4.6 0 17.3 14 30.7 31.2 30.7h44.4v-8h-44.4zM1117.5 824.6c-17.3 0-31.5-14-31.5-31.2v10.4c0 17.3 14.2 31.3 31.5 31.3s31.5-14 31.5-31.3v-10.4c0 17.2-14.2 31.2-31.5 31.2z"/><path fill="#00A9DE" d="M1117.5 824.6c17.3 0 31.5-14 31.5-31.2V751h44.9c15.5 0 28.2-12.6 30.7-27.3.3-1.7.5-3 .5-4.8 0-17.3-14-30.9-31.3-30.9H1149v-47c0-17.3-14.2-31.2-31.5-31.2s-31.5 14-31.5 31.2v47h-44.4c-17.3 0-31.2 13-31.2 30.2 0 1.8.2 4.3.5 6 2.5 14.8 15.2 26.8 30.7 26.8h44.4v42.4c0 17.2 14.2 31.2 31.5 31.2z"/><path fill="#11B8E4" d="M759 1099.4c-141.3 0-255.9 44.6-255.9 99.6 0 55 114.6 99.6 255.9 99.6s255.9-44.6 255.9-99.6c0-55.1-114.6-99.6-255.9-99.6z"/></svg>