<svg xmlns="http://www.w3.org/2000/svg" viewBox="0 0 1500 1500"><path fill="#B3525A" d="M308.5 652.4c41 6.5 30.2 34.6 21.6 60.5-8.6 25.9-30.2 38.9-30.2 62.7 0 23.8 56.2 36.7 121 41 64.8 4.3 41-47.5 41-47.5s-6.5-65.2 62.6-56.2c53.8 7.1 63.4 60.5 35.4 82.1-28.1 21.6-25.9 38.9 4.3 49.7 30.2 10.8 105.1 23.8 122.4 23.8 17.3 0 2.2-47.5 2.2-82.1s8.6-67 38.9-73.4c30.2-6.5 48.4 26.7 78.6 46.1 30.3 19.5 81.2-20.2 48.8-54.8-23.6-25.2-60.5-17.3-90.7-6.5-30.3 10.8-41-10.8-41-36.7 0-25.9 17.3-75.6 17.3-88.6s-125.3-32.4-151.2-32.4c-25.9 0-23.8 17.3-21.6 38.9 2.2 21.6-23.8 62.7-64.8 45.4-41-17.3-32.4-60.5-2.2-73.5s13-30.2-19.4-41-90.7-28.1-88.6-15.1c2.2 13-4.3 60.5-32.4 97.2-28.1 36.7-58.3 13-86.4-2.2-28.1-15.1-75.6-23.8-86.4 10.8-10.8 34.6 10.8 60.5 45.4 60.5 34.4 0 34.4-15.2 75.4-8.7z"/><path fill="#FF6F49" d="M956.8 889.9c29.5-3.9 102.3 43.3 114.1 33.4 11.8-9.8 9.8-57 9.8-76.7 0-19.7-21.6-45.3-33.4-45.3-11.8 0-47.2 27.5-78.7 5.9-31.5-21.7-37.4-86.6 3.9-86.6s45.3 35.4 68.9 35.4c23.6 0 35.4-21.7 35.4-55.1 0-33.4-3.9-49.2-3.9-49.2s-64.9 0-98.4-21.7c-33.4-21.6-29.5-21.6-7.9-47.2s17.7-51.2-15.7-63c-33.5-11.8-65.3 15.7-65.3 35.4s10.2 41.3-25.2 35.4c-35.4-5.9-90.5-25.6-100.3-5.9-9.8 19.7-21.9 99.7-.3 99.7 21.6 0 49.5-17 75.1-9.2 25.6 7.9 55.1 41.3 45.2 68.9-9.8 27.6-39.8 52.4-76.9 25.2-25.4-18.7-41.4-43.9-74.8-24.3-33.4 19.7-31.3 109.2 27.7 111.2s118 17.7 118 37.4-25.6 43.3-23.6 76.7c2 33.5 27.5 45.3 47.2 45.3 19.7 0 54.4 0 53.1-47.2-.7-28.5-23.5-74.6 6-78.5z"/><path fill="#A489D7" d="M735.9 385.2c13-16.1 34.3-45 48.9-29.2 14.6 15.8 16.9 78.3 27.6 81.2 10.7 2.9 37.8-17.9 49.4-26.1 11.6-8.2 17.7-31.5 12.8-38.5-4.9-7-35.8-16.4-36.1-44-.3-27.6 35.6-58 52.7-33.6s-2.1 41.4 7.7 55.4c9.8 13.9 27.5 11.9 47.2-2 19.7-13.9 27.4-22.7 27.4-22.7s-26.9-38.3-28-67.1c-1.1-28.7.5-26.4 24.6-24.2 24.1 2.1 37.5-10.8 30.6-35.4-6.9-24.6-36.4-32-48-23.8-11.6 8.2-20.1 23.2-31.4-.2-11.2-23.3-22.5-64-38.2-61.7-15.7 2.4-72.5 30.2-63.5 42.9 9 12.8 35.2 20.4 41.1 38.8 6 18.4-1.5 49.7-21.9 55.3-20.3 5.6-51.3-3.8-44.6-36.3 6.7-32.5 11.1-46-14.4-57.5-25.5-11.6-81.9 31.6-58.6 67.2 23.3 35.7 38.5 77 26.9 85.2-11.6 8.2-36.2 2.9-55.1 17.9-18.9 15-15.3 35-7.1 46.7 8.3 11.5 37 27.7 50 11.7z"/><path fill="#6CAB36" d="M656.6 1058.4c24.1 1.9 68.8 45.8 113.5 49.8 27.3 2.4 52-35.3 22.3-61.3s-106.1-1.5-134-1.5c-27.8 0-27.9-42.7-9.3-65 18.6-22.3 13-73.4 13-82.7 0-9.3-59.4-22.3-107.7-26-48.3-3.7-44.2-56.4-25.7-78.7 18.6-22.3 31.6-42.7-5.6-48.3-37.1-5.6-40.9 16.7-39 31.6 1.9 14.9 7.1 59.2-20.8 79.6-27.9 20.5-111.4-16.7-120.7-11.1-9.3 5.6-44.6 66.9-29.7 94.8 14.9 27.8 46.4 18.6 91 13 44.6-5.6 83.6 53.9 35.3 96.6-48.3 42.7-74.3 1.9-94.7-20.4-20.4-22.3-39-20.4-72.4 11.1-33.4 31.6-59.4 107.7-53.9 109.6 5.6 1.9 98.4 16.7 124.4 26s27.9 46.4-5.6 70.6c-33.4 24.1-57.6 85.4 1.9 96.6 59.4 11.1 76.2-53.9 65-76.2-11.1-22.3-13-48.3 5.6-63.1 18.6-14.9 33.4-3.7 70.6 3.7 37.1 7.4 115.2 26 115.2 26 1.8-92.9 18.6-111.4 24.1-130 5.6-18.7 13-46.6 37.2-44.7z"/><path fill="#8A8A8D" d="M1061.7 321.8c4-9.2 11.5-16.4 20.9-14.5 9.3 1.9 9.7 9.4 17 22.7 7.3 13.3 21.6 42.2 21.6 42.2 29.1-23.3 39.1-22.9 46.2-26 7.2-3 17.6-7.9 23.3 0 5.6 7.9 3.6 32.9 13.8 47.7 6.3 9 24.2 7 24.6-8.9.4-15.8-26.8-33.1-33.9-41.7-7.2-8.6 6-19.5 17.6-19.6 11.6 0 25.9-14.8 28.8-17.2 2.9-2.4-8.4-24-19.7-39.9-11.3-15.8 6-28.1 17.6-28.1 11.6 0 21.3-1.2 13.4-14.1-7.8-12.9-15.7-8.3-19.7-3.9-4.1 4.4-16.4 17.4-29.9 14.1-13.4-3.3-23.5-38.6-27.6-40-4.1-1.4-32 3.4-36.8 15.2-4.8 11.7 6.2 19.1 19.4 31.4 13.2 12.3 4.9 39.6-20.7 35.7-25.6-3.9-19.6-22.4-18-34.4 1.6-12-3.7-17.3-22-19.5-18.3-2.2-48.4 9.4-47.6 11.6.9 2.2 20.1 34.6 24 45 3.8 10.4-7.2 20.5-23.2 16.4-16-4.1-41.1 4.2-29.3 25.4 11.8 21.1 36.2 9.5 40.2.4z"/><path fill="#FFAF3A" d="M1210.4 1108.2c-69.1 17.3-105.8 8.6-123.1-34.6-17.3-43.2-2.2-118.8-2.2-118.8s-97.1-44-123-37.5c0 0-8.6 6.5-2.2 21.6 6.5 15.1 23.3 104.6-56.6 104.6s-84.3-77.7-65.7-102.1c15.5-20.3 24.3-44.5 3-54.1-26.8-12-44.9.6-79.5.6s-47.5-6.5-56.2-10.8c-8.7-4.3-8.7 13-4.3 32.4 4.3 19.4 0 45.4-10.8 56.2-10.8 10.8-38.9 64.8 10.8 58.3s114.5-15.1 125.3 28.1c10.8 43.2-22.6 80.9-57.1 78.6-25.4-1.8-48-12.7-59.6-24.6-17.7-18-38.9-34.6-54-19.4-15.1 15.1-49.7 166.3-30.2 168.5 19.4 2.1 79.9 13 110.2 19.4 30.3 6.5 108 36.7 77.8-51.8 0 0-23.8-64.8 17.3-77.8 41-13 101.5 19.4 101.5 62.6s-41 60.5-43.2 95.1c-2.2 34.6 73.5 56.2 170.7 45.4 0 0-6.5-127.5 15.1-157.7 21.6-30.3 43.2-43.2 77.8-19.5 34.6 23.8 56.2 62.7 108 43.2 51.7-19.5 19.3-123.2-49.8-105.9z"/></svg>