<svg xmlns="http://www.w3.org/2000/svg" viewBox="0 0 1500 1500"><path fill="#636467" d="M637.3 1372c-166.4-37.9-185.4-61.1-177-96.9 1.5-6.2-62.6 60.2-8.4 88.5 122.8 64.3 432 80.1 651.1-21.1 0 0-299.2 67.4-465.7 29.5zM546.7 251c-109.6 134.9-19 307.6 23.2 402.4 42.1 94.8 23.2 282.4-103.3 330.8 0 0 99 143.3 560.5 33.7 0 0-244.4 40-453-48.5 0 0 162.2-168.6 18.9-383.5-143.2-214.8 38-419.2 183.4-446.6 0 0-120.1-23.2-229.7 111.7z"/><path fill="#636467" d="M411.9 952.7s240.2-48.5 86.4-421.4C344.4 158.3 698.4 93 763.8 126.7c0 0-40.6-27.5-105.6-24.5-23.2-20.1-70.4-47.9-152.7-43.8 0 0 10.4 44.3 49.2 69.5l-12.9-41.1s49.9 8.3 74.6 21.2c-34 8.1-72.5 25-113.8 56.5C353 278.3 393 465.8 460.4 613.3s58.9 286.7-48.5 339.4zM790.1 226.5c24.2 32.6 68.4 12.3 68.4 12.3-65.8-71-127.5 1.8-127.5 1.8 43.9-23.1 59.1-14.1 59.1-14.1zM1090.4 1195s-25.3 82.2-278.1 80.1c-252.9-2.1-343.5-61.1-238.1-94.8 105.3-33.7 52.7-113.8-19-126.4 0 0 48.5 29.5-23.2 71.6-32.2 19-77.1 33.1-89.6 72.4-8.5 26.7 3.1 54.4 24.6 71.2 57.7 45.1 159.5 37 227.2 35.5 183.3-4.3 415.1-19 396.2-109.6z"/><path fill="#636467" d="M1122 434.3c0-16.9-9.2-57.2-49.5-101.2C945 194.1 790 133.7 790 133.7c283.4 218.1 296.1 271.1 300.3 281.6 4.2 10.5-14.7 21.1-50.6 16.9-35.7-4.2-44.2 35.8-44.2 35.8s-33.7-37.9-166.5-40c-132.7-2.1-158-37.9-158-37.9C679.4 487 753.2 605 911.2 702c158.1 96.9 143.3 244.4 143.3 244.4 69.6-168.6-2.1-242.3-71.6-290.8-69.5-48.4-170.7-139.1-183.3-155.9-12.7-16.9 6.3-37.9 33.7-37.9 27.4 0 128.5 12.6 153.8 29.5 25.3 16.9 10.5 29.5 27.4 44.2 16.9 14.8 69.6-12.7 69.6-12.7l-12.6-18.9 16.9-10.5s-21.1-21.1-46.4-27.4c-25.3-6.3 10.5-6.3 21.1-4.2 10.5 2.1 35.8 21.1 48.5 25.3 12.7 4.2 14.8-2.1 14.8-12.6-.2-10.7-4.4-23.3-4.4-40.2z"/><path fill="#FFDBAA" d="M560.5 1331.5s50.3 44.1 232.8 38.6 258-60.6 232.9-60.6l-465.7 22zM1026.3 1100.6c-107-50.4-188.8 0-327.3-6.3 0 0 0 44-50.3 69.2-50.4 25.2-44.1 75.5 144.7 75.5s339.8-88.1 232.9-138.4zM831.1 402c119.6 25.2 157.4 31.5 214 12.6C1101.8 395.7 806 162.8 806 162.8 636.1 181.7 598.3 301.3 585.7 402c-12.6 100.7 25.2 214 88.1 302.1 62.9 88.1-25.2 207.7 6.3 251.7 31.4 44.1 321 88.1 333.5-44.1 12.6-132.2-75.5-113.3-182.5-176.2-107-62.9-169.9-232.9-195.1-314.7-25.1-81.8 75.6-44 195.1-18.8zm27.4-163.2s-44.3 20.3-68.4-12.3c0 0-15.2-8.9-59 14.1-.1-.1 61.6-72.8 127.4-1.8z"/></svg>