<svg xmlns="http://www.w3.org/2000/svg" width="150" height="150" viewBox="0 0 150 150"><path fill="none" d="M98.454 105.136a22 22 0 0 1-1.184.105l-.447.028c-.018 0-.035 0-.052.004l-.587.025-.782.028h-.036l-.324.009-.119.002-.666.007h-.082l-.166.002c-.05-.002-.098-.002-.144-.002l-.807-.009c-.022 0-.05 0-.072-.004l-.685-.024c-.026 0-.052-.004-.076-.004l-.48-.03c-.023 0-.046-.004-.069-.004l-.229-.023-.677-.073-.226-.037c-.008 0-.017 0-.025-.002l-.441-.091c-.007 0-.016-.004-.021-.004l-.579-.196c-.967-.379-1.401-.4-2.517-1.562l-8.07-11.262 16.031-22.371.176.128.431-.603-1.495-1.073-.432.602.175.125-15.754 21.981-15.752-21.98.175-.125-.432-.602-1.494 1.073.431.603.177-.128L77.157 92.02l-8.069 11.262c-1.117 1.162-1.551 1.184-2.518 1.562l-.577.196c-.007 0-.017.004-.024.004l-.441.091c-.009.002-.016.002-.023.002l-.227.037-.676.073-.23.023c-.021 0-.045.004-.066.004l-.481.03c-.027 0-.051.004-.074.004l-.687.024c-.025.004-.049.004-.073.004l-.806.009c-.048 0-.097 0-.142.002l-.169-.002h-.082l-.667-.007-.117-.002-.326-.009h-.036l-.783-.028-.587-.025c-.016-.004-.031-.004-.051-.004l-.446-.028a22.211 22.211 0 0 1-1.186-.105c-1.457-.191-1.423 1.825-.134 2.809.258.193.809.325 1.528.396l.057.003c.149.015.303.029.465.038h.035l.024.002c.164.009.335.012.51.014h.094c.479.009.988-.005 1.519-.035l.002.013.34-.034.172-.015c.264-.021.53-.048.794-.073l.012-.004.166-.02h.001l.119-.011-.001-.003c.192-.021.384-.045.576-.074l.021-.003h.006c.191-.03.386-.06.576-.093l.063-.01v-.003c.242-.043.481-.084.713-.136h.007l.346-.081.016-.002c.196-.046.386-.096.569-.147l.062-.019.068-.02c.11-.03.216-.066.317-.097l.087-.028c.864-.288 1.529-.644 1.827-1.061l9.475-13.218 9.478 13.218c.296.417.961.772 1.825 1.061l.085.028c.104.03.211.066.318.097l.068.02.062.019c.185.052.375.102.57.147l.015.002.348.081h.004c.235.052.474.093.718.136v.003l.062.01c.189.033.38.062.574.093h.006l.023.003c.189.029.381.053.571.074v.003l.118.011h.004l.164.02.009.004c.268.025.534.052.798.073l.171.015.339.034.006-.013c.528.03 1.041.044 1.518.035h.093c.175-.002.348-.005.511-.014l.024-.002h.033c.162-.009.317-.023.467-.038l.056-.003c.721-.07 1.271-.202 1.528-.396 1.288-.985 1.321-3.002-.137-2.81zM76.251 33.403c.01-.029.018-.059.029-.088l-.031.088h.002z"/><path fill="none" d="M78.021 103.208c-2.041 0-3.696.675-3.696 1.504v2.235c0 .833 1.656 1.507 3.696 1.507 1.739 0 3.196-.49 3.595-1.147l-.012.009c-.039.033-.084.078-.142.114l-.18.112c-.067.038-.141.066-.215.097-.076.036-.153.075-.235.091l-.249.072a1.047 1.047 0 0 1-.253.048c-.083.013-.166.023-.245.038-.08.009-.155.028-.23.024-.074.004-.145.004-.21.007-.255.006-.426.008-.426.008s.171-.011.425-.034c.063-.002.132-.009.206-.015.074-.005.147-.028.227-.043.081-.014.158-.03.242-.048a.987.987 0 0 0 .243-.062 4.69 4.69 0 0 0 .237-.082c.082-.023.151-.062.223-.097.068-.039.138-.071.198-.109a3.11 3.11 0 0 0 .165-.116c.053-.03.087-.073.125-.107.034-.035.067-.065.083-.091l.049-.061a.929.929 0 0 1 .077-.093c0-.01.004-.015.004-.021v-.242c-.043.054-.126.116-.191.172-.067.054-.135.127-.23.179l-.288.185c-.106.061-.226.104-.347.161-.121.053-.242.112-.376.141a19.27 19.27 0 0 1-.401.111c-.132.046-.269.065-.403.084l-.396.057c-.128.013-.249.045-.369.041-.118 0-.231.008-.334.008-.411.011-.688.016-.688.016s.274-.023.685-.054l.33-.028c.119 0 .238-.039.364-.062.126-.025.255-.052.389-.077.129-.023.265-.052.392-.102.127-.047.255-.09.382-.134.127-.034.242-.101.354-.158.112-.059.223-.106.321-.171.094-.064.18-.127.26-.185.087-.054.144-.125.204-.179.058-.056.105-.1.135-.143.031-.047.059-.072.074-.101.017-.028.136-.163.136-.163v-1.591c-.002-.83-1.659-1.505-3.705-1.505zM76.614 56.02l-.061.001c.082.001.164.004.245.004-.061 0-.123-.005-.184-.005zM51.53 68.644l1.414-.745 1.416.745-.271-1.575 1.145-1.115-1.581-.23-.709-1.434-.706 1.434-1.582.23 1.143 1.115z"/><path fill="#E5B92E" d="M147.546 58.495c-9.042 4.739-22.108 8.945-36.349 11.433v15.708a107.97 107.97 0 0 0 11.166 2.013 66.272 66.272 0 0 0 6.989-4.883c-4.661-.381-9.546-1.063-15.645-2.542 6.673.479 12.939.14 19.187-.51a61.4 61.4 0 0 0 5.901-6.304c-5.295 1.174-12.173 2.089-20.79 2.184 9.196-1.617 17.928-4.592 24.814-7.791a55.5 55.5 0 0 0 4.727-9.308zM111.803 92.869a69.211 69.211 0 0 0 7.688-3.572 93.51 93.51 0 0 1-8.294-3.204v6.521c.204.081.402.175.606.255z"/><path fill="#FF6427" d="M67.019 81.736h-2.293c.004 1.509-.068 4.48-.608 6.672a2.81 2.81 0 0 0 .956-.652c1.382-1.405 1.839-4.285 1.945-6.02zM52.208 81.736c.107 1.734.564 4.614 1.947 6.02.287.295.605.512.952.652-.537-2.191-.609-5.163-.605-6.672h-2.294z"/><path fill="#FF6427" d="M80.447 56.172c-.072-.005-.145-.007-.215-.013a51.31 51.31 0 0 0-3.434-.134c-.081 0-.163-.003-.245-.004-9.854.013-20.138 3.359-27.031 6.169l-.952.386v36.405c0 4.155 5.51 10.683 14.738 17.464 4.779 3.516 9.649 6.437 12.894 8.27l.765.429.757-.443c3.215-1.872 8.027-4.854 12.733-8.408 9.147-6.906 14.61-13.534 14.61-17.727V62.442l-.968-.382c-6.115-2.406-14.858-5.213-23.652-5.888zm18.063 7.972l.708-1.434.708 1.434 1.581.23-1.144 1.116.271 1.576-1.416-.743-1.415.743.271-1.576-1.146-1.116 1.582-.23zM83.89 60.32l.706-1.434.707 1.434 1.582.231-1.144 1.114.27 1.575-1.415-.744-1.416.744.271-1.575-1.144-1.114 1.583-.231zm-17.943.345l.708-1.434.708 1.434 1.581.23-1.145 1.115.272 1.576-1.416-.743-1.416.743.271-1.576-1.145-1.115 1.582-.23zm-13.709 5.059l.707-1.434.709 1.434 1.581.23-1.145 1.115.271 1.575-1.416-.745-1.414.745.269-1.575-1.144-1.115 1.582-.23zm2.244 31.742c0-.443.36-.803.804-.803h2.158c.326-.508 1.226-1.978 1.586-3.357-.386-.148-.651-.44-.651-.776h-.577a.482.482 0 0 1-.471-.587h-.26a.484.484 0 0 1-.483-.484c0-.159.077-.299.197-.385-.58-.148-1.016-.738-1.339-1.566-4.372-.826-4.231-8.739-4.231-8.739h16.796s.141 7.913-4.229 8.739c-.324.828-.759 1.418-1.34 1.566a.482.482 0 0 1-.286.869h-.261a.478.478 0 0 1-.47.587h-.577c0 .336-.265.628-.651.776.359 1.38 1.259 2.85 1.585 3.357h2.159a.804.804 0 1 1 0 1.61h-8.654a.807.807 0 0 1-.805-.807zm27.242 8.837s-.119.135-.136.163c-.016.028-.043.054-.074.101-.029.043-.077.087-.135.143-.061.054-.117.125-.204.179-.08.058-.166.12-.26.185-.099.064-.209.112-.321.171-.111.058-.227.124-.354.158-.127.044-.255.087-.382.134-.127.05-.263.078-.392.102-.134.025-.263.052-.389.077-.126.023-.245.062-.364.062-.115.011-.228.02-.33.028-.41.03-.685.054-.685.054s.276-.005.688-.016c.103 0 .216-.008.334-.008.12.004.241-.028.369-.041l.396-.057c.135-.019.271-.038.403-.084.137-.036.27-.073.401-.111.134-.028.255-.088.376-.141.121-.058.24-.101.347-.161.102-.064.199-.127.288-.185.096-.052.163-.125.23-.179.065-.056.148-.118.191-.172v.242c0 .007-.004.012-.004.021a.929.929 0 0 0-.077.093c-.01.014-.028.033-.049.061-.016.025-.049.056-.083.091-.038.034-.072.077-.125.107a3.11 3.11 0 0 1-.165.116c-.061.038-.13.07-.198.109-.071.034-.141.073-.223.097a4.69 4.69 0 0 1-.237.082.944.944 0 0 1-.243.062 6.075 6.075 0 0 1-.242.048c-.079.015-.152.038-.227.043-.074.006-.143.013-.206.015-.254.023-.425.034-.425.034s.171-.002.426-.008c.065-.003.136-.003.21-.007.075.004.15-.016.23-.024.079-.015.162-.025.245-.038.085-.007.171-.02.253-.048l.249-.072c.082-.016.159-.055.235-.091.074-.03.147-.059.215-.097l.18-.112c.058-.036.103-.081.142-.114l.012-.009c-.398.657-1.855 1.147-3.595 1.147-2.041 0-3.696-.674-3.696-1.507v-2.235c0-.829 1.656-1.504 3.696-1.504 2.046 0 3.702.675 3.702 1.504v1.592zm16.865 1.641c-.257.193-.808.325-1.528.396l-.056.003a10.4 10.4 0 0 1-.467.038h-.033l-.024.002c-.163.009-.336.012-.511.014h-.093a20.33 20.33 0 0 1-1.518-.035l-.006.013-.339-.034-.171-.015c-.264-.021-.53-.048-.798-.073l-.009-.004-.164-.02h-.004l-.118-.011v-.003c-.19-.021-.382-.045-.571-.074l-.023-.003h-.006c-.194-.03-.385-.06-.574-.093l-.062-.01v-.003c-.244-.043-.482-.084-.718-.136h-.004l-.348-.081-.015-.002a15.22 15.22 0 0 1-.57-.147l-.062-.019-.068-.02c-.107-.03-.214-.066-.318-.097l-.085-.028c-.864-.288-1.529-.644-1.825-1.061l-9.478-13.218-9.475 13.218c-.298.417-.963.772-1.827 1.061l-.087.028c-.102.03-.207.066-.317.097l-.068.02-.062.019c-.183.052-.373.102-.569.147l-.016.002-.346.081h-.006c-.232.052-.471.093-.713.136v.003l-.063.01c-.19.033-.384.062-.576.093h-.006l-.021.003c-.191.029-.384.053-.576.074l.001.003-.119.011h-.001l-.166.02-.012.004c-.264.025-.531.052-.794.073l-.172.015-.34.034-.002-.013c-.531.03-1.041.044-1.519.035h-.094a11.84 11.84 0 0 1-.51-.014l-.024-.002h-.035a10.305 10.305 0 0 1-.465-.038l-.057-.003c-.719-.07-1.27-.202-1.528-.396-1.289-.983-1.323-3 .134-2.809.268.034.682.071 1.186.105l.446.028a.2.2 0 0 1 .051.004l.587.025.783.028h.036l.326.009.117.002.667.007h.082l.169.002c.045-.002.094-.002.142-.002l.806-.009c.024 0 .048 0 .073-.004l.687-.024c.023 0 .047-.004.074-.004l.481-.03c.021 0 .045-.004.066-.004l.23-.023.676-.073.227-.037c.007 0 .015 0 .023-.002l.441-.091c.007 0 .017-.004.024-.004l.577-.196c.967-.379 1.401-.4 2.518-1.562l8.069-11.262-16.028-22.37-.177.128-.431-.603 1.494-1.073.432.602-.175.125 15.753 21.979 15.753-21.979-.175-.125.432-.602 1.495 1.073-.431.603-.176-.128-16.031 22.371 8.07 11.262c1.115 1.162 1.55 1.184 2.517 1.562l.579.196c.006 0 .015.004.021.004l.441.091c.009.002.018.002.025.002l.226.037.677.073.229.023c.023 0 .046.004.069.004l.48.03c.024 0 .05.004.076.004l.685.024c.022.004.05.004.072.004l.807.009c.046 0 .094 0 .144.002l.166-.002h.082l.666-.007.119-.002.324-.009h.036l.782-.028.587-.025c.017-.004.034-.004.052-.004l.447-.028a22 22 0 0 0 1.184-.105c1.458-.192 1.425 1.825.135 2.808zm-13.59-21.568h7.661l2.367-7.286v14.571l-6.199 4.502 2.367-7.286-6.196-4.501zm16.226 11.787l-6.196-4.506V79.09l2.367 7.286h7.66l-6.2 4.501 2.369 7.286z"/><path fill="#E5B92E" d="M3.287 59.443a55.265 55.265 0 0 0 4.725 9.308c6.887 3.199 15.618 6.174 24.813 7.791-8.614-.095-15.495-1.009-20.789-2.184a61.167 61.167 0 0 0 5.9 6.303c6.249.649 12.513.989 19.188.51-6.096 1.479-10.984 2.162-15.645 2.544a66.211 66.211 0 0 0 6.989 4.881c4.472-.568 9.01-1.397 13.375-2.551a94.488 94.488 0 0 1-10.502 4.201 68.992 68.992 0 0 0 7.687 3.57 85.113 85.113 0 0 0 3.411-1.451V71.34C27.117 68.936 12.92 64.493 3.287 59.443z"/><path fill="#414042" d="M111.197 58.415c-3.032-1.392-13.747-6.018-25.624-7.805H67.859c-11.783 1.818-22.43 6.577-25.42 7.999v40.372c0 14.537 29.634 30.575 34.575 33.149 4.897-2.637 34.184-19.011 34.184-33.565v-40.15zm-6.13 40.15c0 4.192-5.463 10.82-14.61 17.727-4.706 3.555-9.519 6.536-12.733 8.408l-.757.443-.765-.429c-3.245-1.833-8.115-4.754-12.894-8.27-9.228-6.781-14.738-13.309-14.738-17.464V62.576l.952-.386c6.894-2.81 17.177-6.156 27.031-6.169l.061-.001c.061 0 .123.006.185.006 1.141.005 2.287.051 3.434.134.07.006.143.008.215.013 8.794.675 17.537 3.482 23.652 5.888l.968.382v36.122z"/><path fill="#FFDE5D" d="M76.28 33.407l-.029-.002v-.001h-.002v.001c-1.985 5.539-3.234 11.109-3.234 11.109-.759-2.857-2.653-7.258-3.192-8.489-.045.008-.093.01-.141.014.023 3.026-1.417 8.93-1.417 8.93-.869-2.533-4.415-6.895-4.594-7.115l-.006.001h-.001c.446 2.689.816 12.755.816 12.755h11.799V33.407z"/><path fill="#FF6427" d="M76.28 33.315c.012.029.021.059.033.088.14-.004.271-.035.393-.088h.003a1.056 1.056 0 0 0-.429-2.023 1.057 1.057 0 0 0-.031 2.112v-.001c.01-.029.022-.059.031-.088z"/><path fill="#FF6427" d="M76.251 33.404l.029.002.031-.002h.002c-.012-.03-.021-.06-.033-.089-.011.029-.019.06-.029.089zM70.673 34.987a1.059 1.059 0 0 0-2.116 0c0 .585.473 1.058 1.057 1.058.024 0 .046-.006.068-.006.047-.004.095-.006.141-.015.485-.096.85-.524.85-1.037zM63.671 37.854a1.056 1.056 0 0 0-.236-2.085 1.057 1.057 0 1 0 .228 2.087l-.002-.012.002.002.001.01c.003-.002.005-.002.007-.002z"/><path fill="#E5B92E" d="M76.28 50.61H88.083s.37-10.095.816-12.767c0 0-3.712 4.527-4.602 7.125 0 0-1.442-5.908-1.421-8.935a.759.759 0 0 1-.133-.018h-.001c-.537 1.225-2.436 5.635-3.197 8.497 0 0-1.248-5.571-3.234-11.109l-.031.002V50.61z"/><path fill="#FF6427" d="M82.744 36.017a.86.86 0 0 0 .135.018 9.536 9.536 0 0 1 0 .001c.032.002.063.01.095.01a1.058 1.058 0 1 0-1.057-1.057c0 .503.354.922.827 1.028z"/><circle fill="#FF6427" cx="89.322" cy="36.824" r="1.057"/><path fill="#E5B92E" d="M63.94 98.272a.806.806 0 0 0 0-1.61h-2.159c-.326-.508-1.226-1.978-1.585-3.357.386-.148.651-.44.651-.776h.577a.482.482 0 0 0 .47-.587h.261a.483.483 0 0 0 .483-.484.471.471 0 0 0-.197-.385c.581-.148 1.016-.738 1.34-1.566 4.371-.826 4.229-8.739 4.229-8.739H51.215s-.141 7.913 4.231 8.739c.323.828.759 1.418 1.339 1.566a.471.471 0 0 0-.197.385c0 .268.216.484.483.484h.26a.475.475 0 0 0 .471.587h.577c0 .336.265.628.651.776-.36 1.38-1.261 2.85-1.586 3.357h-2.158a.806.806 0 0 0 0 1.61h8.654zm.786-16.536h2.293c-.105 1.734-.562 4.614-1.945 6.02-.29.295-.607.512-.956.652.54-2.191.612-5.163.608-6.672zm-10.571 6.02c-1.383-1.405-1.84-4.285-1.947-6.02h2.294c-.004 1.509.068 4.48.605 6.672a2.772 2.772 0 0 1-.952-.652z"/><path fill="#FFDE5D" d="M95.027 93.661V79.09l-2.367 7.286h-7.661l6.196 4.501-2.367 7.286z"/><path fill="#E5B92E" d="M97.396 86.376l-2.368-7.286v14.567l6.197 4.506-2.37-7.286 6.201-4.501z"/></svg>