<svg xmlns="http://www.w3.org/2000/svg" viewBox="0 0 1500 1500"><path fill="#E9EAEE" d="M1073.7 951.9c-8.1-13.4-15.8-27.2-24.3-40.4-30.9-17.1-72.1-26.7-124.3-12.4C789.8 936 1122 985.2 1122 985.2s-.5-1-1.4-2.6c-18.3-1.3-35.1-11-46.9-30.7zM344.1 1267.7c-22.8-38.3-39.4-93.8-51.8-153.7-36.4-25.6-76.8-42.6-117.8-42.6-152.7 0 90.5 185.3 179 249.3 18.5 13.4 30.2 21.4 30.2 21.4 25.7 12.9 41.7 13 49.7 4.5-40.6-1.4-77.7-28.8-89.3-78.9z"/><path fill="#6E7D97" d="M537.5 179.3c-129.2 98.4-153.8 61.5-166.1 43.1-12.3-18.4-73.8-24.6-36.9 18.5 67.7 61.5 110.7 24.6 233.8-43.1 83.7-46 150.3 21.8 184.3 69.9 7.2-4.8 16-8.2 25.1-9.2-74.2-119.7-150.4-126.7-240.2-79.2z"/><path fill="#D77145" d="M1081 232.2L832.7 306c-3-15.2-9.8-30.8-24.5-40.6-9.5-6.3-20.2-8.2-30.5-7-9.1 1-17.9 4.4-25.1 9.2-16.2 10.7-24.7 28.2-12.1 40.8 6.6 6.6 11.4 13.7 15 20.5L513.3 401s-305.5 58.8-262.7 374.6c7 25.9 12.3 195.2 41.8 338.4 12.4 60 28.9 115.4 51.8 153.7 11.6 50.1 48.8 77.5 89.3 78.8 42.6 1.4 89-25.9 113.3-86.2l138.8-257.1s85.3-146.9 205.1-161.6c92.5-11.3 130.1 25.4 158.8 69.8 8.5 13.1 16.2 26.9 24.3 40.4 11.9 19.6 28.7 29.4 46.9 30.7 36.3 2.6 78.1-28.3 97.8-82.1 29.5-80.8 120.3-279.1 136.1-492.1 9.4-154.1-64.7-242.2-273.6-176.1zm-334.3 65.4c30.7-49.2 55.4 55.4 55.4 55.4h-24.6l-30.8-55.4zm272.6 316.5c-10.7 5.4-21.1 11-31.2 16.7 7.1 19.5 1.3 48.4-16.7 74-24.2 34.5-61.4 49.9-83.1 34.5-2.5-1.8-4.6-3.9-6.5-6.3-6.5-2.3-12.4-5.9-17.4-11C748.2 832.1 679 979.5 600.2 1150.2c-101.7 235-177.3 161.6-198.7 36.7-7.3-257.1-20-528.8 95.4-631.6 115.4-102.8 390-198.3 390-198.3 326.3-124.8 352.9 146.9 132.4 257.1z"/><path fill="#D77145" d="M886.7 357s-274.6 95.5-390 198.3C381.3 658.1 394 929.9 401.3 1186.9c21.4 124.8 97.1 198.3 198.7-36.7C679 979.5 748.2 832.1 864.5 722c-1-1-1.9-1.9-2.8-3-20.3-24.3-13.6-65.8 14.8-92.6 21.8-20.6 50.2-26.5 71.3-17.2 10.5-1.9 20.4-.4 28.3 5.2 5.6 4 9.5 9.6 12 16.4 10.1-5.7 20.5-11.4 31.2-16.7 220.5-110.2 193.9-381.9-132.6-257.1zM657.2 812.4l-17.1 29.4S562 856.5 574.6 739c0 0 35.5 58.8 125.9 58.8-7.8 7.2-43.3 14.6-43.3 14.6zm167.3-197.7c-50.1 47.1-116.9 53.9-149.3 15-.2-.2-.3-.4-.5-.6-7.9-4-15-9.4-20.9-16.5-31-37.2-17.3-103.9 30.6-149 40-37.6 91.1-48.2 124.9-29.1 18.7 2.2 35.2 10.3 47.1 24.6 32.5 38.7 18.1 108.4-31.9 155.6zm271.9-112.1c-38.1 52.3-96.7 74.1-130.7 48.6-3.8-2.8-7-6.2-9.9-9.9-7.6-3.7-14.4-9-20.1-15.7-29.3-35.2-16.3-98.2 28.9-140.9 32.4-30.5 72.6-42.2 103.6-33.5 13.3-.3 25.6 3 35.7 10.5 34 25.5 30.6 88.6-7.5 140.9z"/><path opacity=".46" fill="#FFDD30" d="M886.7 357s-274.6 95.5-390 198.3C381.3 658.1 394 929.9 401.3 1186.9c21.4 124.8 97.1 198.3 198.7-36.7C679 979.5 748.2 832.1 864.5 722c-1-1-1.9-1.9-2.8-3-20.3-24.3-13.6-65.8 14.8-92.6 21.8-20.6 50.2-26.5 71.3-17.2 10.5-1.9 20.4-.4 28.3 5.2 5.6 4 9.5 9.6 12 16.4 10.1-5.7 20.5-11.4 31.2-16.7 220.5-110.2 193.9-381.9-132.6-257.1zM657.2 812.4l-17.1 29.4S562 856.5 574.6 739c0 0 35.5 58.8 125.9 58.8-7.8 7.2-43.3 14.6-43.3 14.6zm167.3-197.7c-50.1 47.1-116.9 53.9-149.3 15-.2-.2-.3-.4-.5-.6-7.9-4-15-9.4-20.9-16.5-31-37.2-17.3-103.9 30.6-149 40-37.6 91.1-48.2 124.9-29.1 18.7 2.2 35.2 10.3 47.1 24.6 32.5 38.7 18.1 108.4-31.9 155.6zm271.9-112.1c-38.1 52.3-96.7 74.1-130.7 48.6-3.8-2.8-7-6.2-9.9-9.9-7.6-3.7-14.4-9-20.1-15.7-29.3-35.2-16.3-98.2 28.9-140.9 32.4-30.5 72.6-42.2 103.6-33.5 13.3-.3 25.6 3 35.7 10.5 34 25.5 30.6 88.6-7.5 140.9z"/><path fill="#019CDB" d="M707.2 473.9c31.7-29.8 70-43.4 102.2-39.6-33.8-19.1-84.9-8.5-124.9 29.1-47.9 45.1-61.6 111.8-30.6 149 5.9 7.1 13 12.5 20.9 16.5-31.8-38.9-17.4-108.1 32.4-155z"/><path opacity=".2" fill="#45505F" d="M707.2 473.9c31.7-29.8 70-43.4 102.2-39.6-33.8-19.1-84.9-8.5-124.9 29.1-47.9 45.1-61.6 111.8-30.6 149 5.9 7.1 13 12.5 20.9 16.5-31.8-38.9-17.4-108.1 32.4-155z"/><path fill="#019CDB" d="M973.1 410.3c26.8-36.8 63.7-58.4 95-59.2-31-8.7-71.1 3-103.6 33.5-45.3 42.7-58.2 105.8-28.9 140.9 5.6 6.8 12.5 12 20.1 15.7-22.8-29.4-16.5-84.3 17.4-130.9z"/><path opacity=".2" fill="#45505F" d="M973.1 410.3c26.8-36.8 63.7-58.4 95-59.2-31-8.7-71.1 3-103.6 33.5-45.3 42.7-58.2 105.8-28.9 140.9 5.6 6.8 12.5 12 20.1 15.7-22.8-29.4-16.5-84.3 17.4-130.9z"/><path fill="#D77145" d="M893 648.9c15.5-22 36.2-36.2 54.8-39.6-21.2-9.3-49.5-3.4-71.3 17.2-28.5 26.8-35.1 68.3-14.8 92.6.9 1.1 1.9 2 2.8 3 5 5 10.9 8.7 17.4 11-14.4-18.5-10.3-53.7 11.1-84.2z"/><path opacity=".2" fill="#945465" d="M893 648.9c15.5-22 36.2-36.2 54.8-39.6-21.2-9.3-49.5-3.4-71.3 17.2-28.5 26.8-35.1 68.3-14.8 92.6.9 1.1 1.9 2 2.8 3 5 5 10.9 8.7 17.4 11-14.4-18.5-10.3-53.7 11.1-84.2z"/><path fill="#019CDB" d="M809.3 434.3c-32.1-3.8-70.5 9.7-102.2 39.6C657.4 520.8 643 590 674.8 629c.2.2.3.4.5.6 32.4 38.9 99.2 32.2 149.3-15 50.1-47.1 64.4-116.9 32-155.7-12-14.2-28.6-22.3-47.3-24.6zm-3.1 25.5c11.5 0 20 8.2 18.9 18.4-1.1 10.1-11.3 18.4-22.8 18.4s-20-8.2-18.9-18.4c1-10.1 11.2-18.4 22.8-18.4zm-110.6 55c17.6-27.7 44.3-42.5 59.5-32.9 15.2 9.6 13.2 39.8-4.4 67.5-17.7 27.7-44.3 42.5-59.5 32.9-15.3-9.6-13.3-39.8 4.4-67.5zM1103.8 361.7c-10.1-7.6-22.4-10.9-35.7-10.5-31.4.8-68.2 22.4-95 59.2-33.9 46.5-40.3 101.5-17.4 131 2.9 3.7 6.1 7 9.9 9.9 34 25.5 92.6 3.7 130.7-48.6 38.2-52.4 41.6-115.5 7.5-141zm-125.4 67.4c13.9-21.9 34.9-33.5 46.9-26s10.4 31.4-3.5 53.3-34.9 33.5-46.9 26c-12-7.6-10.4-31.5 3.5-53.3z"/><path fill="#FFFFFE" d="M574.5 738.9C562 856.4 640 841.7 640 841.7l17.1-29.4s35.6-7.3 43.3-14.7c-90.4.1-125.9-58.7-125.9-58.7z"/><path fill="#FFAF3E" d="M976.1 614.4c-7.8-5.6-17.7-7.1-28.3-5.2-18.6 3.4-39.3 17.6-54.8 39.6-21.4 30.5-25.5 65.7-11.2 84.1 1.9 2.4 4 4.5 6.5 6.3 21.6 15.5 58.8 0 83.1-34.5 18-25.6 23.8-54.5 16.7-74-2.4-6.7-6.4-12.3-12-16.3zm-71.3 63.7c-5.6-4.9-3.7-16.7 4.3-26.4s19-13.6 24.6-8.7c5.6 4.9 3.6 16.7-4.4 26.4-7.9 9.8-19 13.6-24.5 8.7z"/><path fill="#FFFFFE" d="M691.1 582.3c15.2 9.6 41.8-5.2 59.5-32.9 17.6-27.7 19.6-58 4.4-67.5-15.2-9.6-41.8 5.2-59.5 32.9-17.6 27.7-19.6 57.9-4.4 67.5zM974.9 482.4c12 7.5 33-4.1 46.9-26 13.9-21.9 15.5-45.8 3.5-53.3s-33 4.1-46.9 26c-13.9 21.8-15.5 45.7-3.5 53.3zM802.2 496.6c11.5 0 21.8-8.2 22.8-18.4 1.1-10.1-7.4-18.4-18.9-18.4-11.5 0-21.8 8.2-22.8 18.4-1.1 10.1 7.4 18.4 18.9 18.4zM929.4 669.5c8-9.7 10-21.5 4.4-26.4-5.6-4.9-16.6-1-24.6 8.7s-10 21.5-4.3 26.4c5.4 4.8 16.5 1 24.5-8.7z"/><path fill="#FFAF3E" d="M802.1 353s-24.6-104.6-55.4-55.4l30.7 55.4h24.7z"/></svg>