<svg xmlns="http://www.w3.org/2000/svg" width="100" height="100" viewBox="0 0 100 100"><path fill-rule="evenodd" clip-rule="evenodd" fill="#FBCD12" d="M64.583 15.416c-1.018-.126-1.692 1.428-2.058 2.142-1.117 2.179-1.765 3.839-2.678 5.803-.414.891-.763 2.268-2.058 2.263-.525-1.074-.127-2.44.061-3.646.576-3.817 2.468-10.793 1.146-11.872-2.987-1.184-2.943 3.242-3.475 5.958-.215 1.124-.481 2.573-.824 4.133-.216.974-.548 3.624-1.543 3.479-.78-.104-.758-1.925-.72-3.258.095-3.497.841-8.824.477-11.618-.183-1.383-.765-1.814-1.561-1.859-1.56-.077-1.654 2.396-1.753 3.834-.228 3.131-.315 6.196-.481 9.228-.067 1.217.044 4.017-.946 4.022-.813.005-1.156-2.185-1.405-3.341-.349-1.593-.592-2.91-.869-3.939-.829-3.098-1.411-8.282-4.381-6.158-.78 1.256.608 5.156 1.046 7.79.437 2.639 1.521 5.244 1.609 7.656.072 1.991-.646 5.609-2.339 5.792-1.915.205-2.352-2.268-3.463-3.59-.127-.149-.83-.886-1.195-1.189-.598-.509-5.986-3.319-6.645-1.057-.415 1.421 1.428 2.107 2.174 2.738.94.792 1.991 1.688 2.5 2.385 1.61 2.206 2.385 5.255 4.443 7.522 1.726 1.893 4.442 4.139 5.311 6.572 1.112 3.132.017 6.513.581 10.086 4.166-.193 8.32-.394 12.48-.587.028-3.656-1.155-6.688-1.029-9.842.051-1.238.797-2.284 1.428-3.474 1.848-3.475 2.207-7.558 2.274-12.154a477.59 477.59 0 0 0 4.176-10.312c.36-.924 1.173-3.33-.283-3.507z"/><path fill-rule="evenodd" clip-rule="evenodd" fill="#DE1175" d="M38.256 84.585c1.023.122 1.693-1.428 2.058-2.146 1.117-2.18 1.765-3.839 2.683-5.809.415-.885.763-2.263 2.052-2.252.537 1.068.127 2.429-.055 3.641-.581 3.817-2.467 10.799-1.151 11.872 2.988 1.185 2.943-3.237 3.475-5.959.216-1.122.481-2.572.83-4.127.216-.983.547-3.624 1.543-3.485.775.111.752 1.931.719 3.265-.093 3.496-.846 8.818-.48 11.612.182 1.383.757 1.814 1.571 1.864 1.549.077 1.648-2.39 1.748-3.839.222-3.132.315-6.191.477-9.224.065-1.223-.04-4.021.951-4.026.813-.006 1.15 2.186 1.404 3.342.344 1.599.593 2.909.863 3.938.836 3.098 1.411 8.281 4.388 6.163.774-1.256-.614-5.151-1.051-7.795-.438-2.634-1.521-5.239-1.61-7.656-.072-1.987.647-5.61 2.34-5.787 1.914-.204 2.351 2.263 3.469 3.584.127.149.824.886 1.189 1.196.598.508 5.986 3.313 6.645 1.056.415-1.427-1.423-2.113-2.175-2.738-.939-.791-1.985-1.692-2.5-2.385-1.605-2.207-2.384-5.255-4.442-7.518-1.721-1.897-4.442-4.144-5.311-6.577-1.112-3.132-.017-6.513-.582-10.086l-12.48.581c-.028 3.656 1.156 6.699 1.034 9.842-.049 1.239-.797 2.284-1.433 3.479-1.848 3.475-2.213 7.552-2.268 12.149a485.1 485.1 0 0 0-4.183 10.316c-.36.92-1.173 3.326.282 3.509z"/><path fill-rule="evenodd" clip-rule="evenodd" fill="#EE3F39" d="M16.835 36.831c-.127 1.024 1.427 1.699 2.142 2.064 2.185 1.117 3.839 1.759 5.814 2.676.885.416 2.262.759 2.251 2.059-1.073.531-2.434.127-3.635-.056-3.823-.58-10.804-2.473-11.877-1.149-1.184 2.981 3.236 2.938 5.958 3.468 1.118.222 2.573.492 4.127.83.979.216 3.624.548 3.485 1.544-.111.78-1.931.757-3.264.719-3.502-.094-8.824-.842-11.612-.477-1.383.178-1.82.759-1.864 1.561-.077 1.56 2.396 1.654 3.839 1.76 3.125.222 6.19.304 9.228.475 1.217.067 4.011-.044 4.021.947.005.818-2.191 1.156-3.347 1.405-1.594.348-2.905.592-3.939.868-3.093.83-8.282 1.41-6.158 4.381 1.256.78 5.151-.607 7.795-1.045 2.634-.442 5.239-1.527 7.651-1.609 1.991-.072 5.615.646 5.792 2.346.205 1.908-2.268 2.345-3.585 3.457-.149.127-.885.836-1.195 1.194-.508.598-3.313 5.986-1.056 6.64 1.422.414 2.114-1.422 2.744-2.17.786-.939 1.682-1.99 2.379-2.5 2.207-1.609 5.261-2.384 7.523-4.448 1.897-1.72 4.138-4.437 6.572-5.299 3.132-1.117 6.512-.028 10.085-.592-.188-4.16-.387-8.315-.58-12.476-3.657-.027-6.694 1.156-9.842 1.029-1.246-.051-2.286-.797-3.475-1.428-3.479-1.848-7.556-2.207-12.16-2.273a487.453 487.453 0 0 0-10.307-4.178c-.927-.359-3.327-1.172-3.51.277z"/><path fill-rule="evenodd" clip-rule="evenodd" fill="#1A95CF" d="M86.004 63.164c.128-1.023-1.427-1.693-2.141-2.059-2.18-1.117-3.84-1.764-5.809-2.683-.886-.415-2.263-.763-2.258-2.052 1.073-.536 2.435-.127 3.642.049 3.821.587 10.798 2.474 11.877 1.156 1.184-2.981-3.242-2.942-5.964-3.474-1.117-.222-2.566-.486-4.128-.829-.973-.211-3.623-.548-3.484-1.539.111-.785 1.931-.757 3.265-.724 3.501.093 8.823.852 11.616.481 1.384-.183 1.82-.765 1.86-1.565.082-1.562-2.391-1.655-3.835-1.755-3.131-.227-6.196-.314-9.228-.475-1.217-.072-4.016.037-4.022-.952-.005-.813 2.186-1.15 3.342-1.405 1.594-.349 2.91-.592 3.938-.868 3.099-.831 8.283-1.405 6.163-4.382-1.262-.774-5.155.613-7.799 1.051-2.634.438-5.24 1.521-7.652 1.604-1.991.077-5.609-.642-5.792-2.34-.204-1.909 2.268-2.346 3.585-3.464.149-.127.886-.823 1.2-1.194.51-.592 3.309-5.986 1.052-6.639-1.423-.416-2.108 1.421-2.744 2.174-.785.939-1.683 1.991-2.379 2.494-2.208 1.61-5.256 2.39-7.524 4.448-1.892 1.722-4.138 4.448-6.566 5.313-3.137 1.105-6.517.016-10.09.585.193 4.155.393 8.315.586 12.47 3.651.028 6.694-1.15 9.836-1.029 1.245.051 2.29.798 3.479 1.428 3.48 1.849 7.557 2.213 12.154 2.274a527.265 527.265 0 0 0 10.313 4.183c.924.36 3.324 1.173 3.507-.282z"/><circle fill-rule="evenodd" clip-rule="evenodd" fill="#FFF" cx="51.42" cy="49.997" r="20.134"/><g><radialGradient id="a" cx="45.971" cy="-17.88" r="103.699" gradientUnits="userSpaceOnUse"><stop offset="0" stop-color="#00a69c"/><stop offset="1" stop-color="#00423d"/></radialGradient><path fill-rule="evenodd" clip-rule="evenodd" fill="url(#a)" d="M51.422 31.321c10.313 0 18.678 8.371 18.678 18.676 0 10.318-8.365 18.677-18.678 18.677-10.316 0-18.676-8.358-18.676-18.677 0-10.306 8.359-18.676 18.676-18.676z"/><path fill-rule="evenodd" clip-rule="evenodd" fill="#FFF" d="M54.647 32.129c4.819.868 8.99 3.646 11.684 7.511-.569-.171-1.189-.259-1.875-.292-2.107-1.788-4.442-3.259-6.909-4.438a8.651 8.651 0 0 0-2.9-2.781zM69.523 48.62c.033.46.056.918.056 1.377 0 2.136-.37 4.188-1.051 6.098.338-1.572.569-3.23.587-4.968.171-.847.331-1.527.408-2.507zm-1.615 8.989c-1.089 2.357-3.694 4.67-5.814 5.478-1.482-1.123-2.959-2.379-4.26-3.784.593-2.273 1.438-5.223 1.804-8.104 1.959-1.129 3.89-2.483 5.836-3.796 1.533 1.372 2.285 2.169 3.276 3.696.105 2.018-.35 4.404-.842 6.51zm-8.768 8.825a18.092 18.092 0 0 1-7.718 1.721c-.807 0-1.598-.055-2.373-.149-1.394-.775-2.849-1.727-4.049-2.684 1.223-1.195 2.567-2.739 3.801-4.393 2.921-.051 6.506-.985 8.763-1.395 1.2 1.395 2.688 2.628 4.254 3.763a30.33 30.33 0 0 1-2.678 3.137zm-20.912-3.967c-2.202-2.329-3.054-5.946-3.463-7.96.763-1.799 1.255-2.739 2.783-4.847 2.473 1.234 5.056 2.186 7.574 3.204.841 2.854 2.174 5.332 3.374 7.833a37.19 37.19 0 0 1-3.845 4.476c-1.898-.404-4.713-1.688-6.423-2.706zm-2.622-3.545a18.249 18.249 0 0 1-1.848-4.703c.221.144.437.282.647.404a64.91 64.91 0 0 0 1.201 4.299zm-.775-16.304a18.217 18.217 0 0 1 11.491-10.047c-.808.913-1.77 2.175-2.257 3.226-2.728 1.797-4.88 3.762-6.589 5.908-1.012.205-1.82.476-2.645.913zm30.516 4.415c-1.936 1.249-3.817 2.566-5.786 3.756-2.379-1.493-4.31-2.872-7.025-4.244-.332-2.854-.88-5.726-1.45-8.58 2.146-1.233 4.73-2.212 6.346-2.711a31.47 31.47 0 0 1 6.743 4.31c.408 1.167 1.205 4.908 1.172 7.469zm-20.132 5.499c-2.539-1.019-5.123-2.042-7.612-3.215-.442-2.456-.122-6.08.116-7.358 1.626-2.063 3.679-4 6.39-5.764 2.5.536 3.978.963 6.633 1.798.57 2.859 1.101 5.742 1.444 8.603-2.656 1.947-4.918 3.839-6.971 5.936z"/></g></svg>