<svg xmlns="http://www.w3.org/2000/svg" viewBox="0 0 1500 1500"><path fill="#C8CFD5" d="M730 1340v-127.4l-158-9.4v3.8h-25v-5.1l-85-5.1s-32.8 12.4-74 30l-42.1 109.4-21.3-8.2 34-88.5c-92.5 41.1-198.2 97.5-89.3 100.1 172.3 4.2 410.5-37.8 415.6-16.8 5.1 21 207.8 33.6 273.7 4.2 35.6-15.9 121.7-36.7 177.9-54.5l-15.2-36.3L746 1214v126h-16zM1166.2 1238.8l-18.5-1.1 10.3 27.6c32.9-11.8 45.1-21.6 8.2-26.5z"/><path fill="#CA8886" d="M322.8 934.3c0 .6.1 1.2.1 1.8 29.1-29.2 94.4-79.8 204.7-90.5 0 0-166 67.3-185.6 130.2 53.3 55.9 211.5 96.4 398.4 96.4 230.7 0 417.7-61.7 417.7-137.8 0-75.9-185.7-137.4-415.2-137.8h-2.5c-37.2 0-73.2 1.6-107.5 4.6-178.4 15.6-310.1 69.3-310.1 133.1zm245.4-103.9c11.2 0 20.3 3.4 20.3 7.6s-9.1 7.6-20.3 7.6c-11.2 0-20.3-3.4-20.3-7.6s9.1-7.6 20.3-7.6z"/><path fill="#FFFFFE" d="M745.6 796.5h-2.5c229.5.5 415.2 62 415.2 137.8 0 76.1-187 137.8-417.7 137.8-186.9 0-345.1-40.5-398.4-96.4 19.6-62.8 185.6-130.2 185.6-130.2-110.3 10.7-175.6 61.3-204.7 90.5 0-.6-.1-1.2-.1-1.8 0-63.9 131.6-117.6 310.2-133.2-197.6 16.6-343.7 75.7-343.7 146 0 83.1 204.2 150.5 456.1 150.5 251.9 0 456.1-67.4 456.1-150.5S997.5 796.5 745.6 796.5z"/><path fill="#FFFFFE" d="M568.2 845.6c11.2 0 20.3-3.4 20.3-7.6s-9.1-7.6-20.3-7.6c-11.2 0-20.3 3.4-20.3 7.6s9.1 7.6 20.3 7.6z"/><path fill="#CFD291" d="M552.8 308c98.2 50.8 21.8 99.3 26.8 125.9 4.9 26.6 143.3-71.2 143.3-71.2l-2.9-54.6c68.6-71.2 128.9-168.4 105.2-181.2l-54-3.8c-7 39.2-88.2 119.6-88.2 119.6-37.3 11.6-119-9.1-119-9.1l-93.6-44.7-41.1 66.1s77.9 29.5 123.5 53z"/><path fill="#B4CCD8" d="M717.7 392.7C660.3 411.8 615.9 465 615.9 465l6.4 93s-48.1-5.5-98.2 19.3-9.2 92.2-9.2 92.2 147.5-54.7 171.9-68.6c14.6-8.3 20.3-77.4 22.5-131.6l42.7 19.5s47.2 90.5 78.2 118c31 27.4 76.7-24.9 76.7-24.9L801.4 427.4l-83.7-34.7z"/><path fill="#BDBDC1" d="M502.5 667.3l-14.8-60s-44.9-6.9-30 27.3c15 34.2 27.2 62.1 44.8 32.7zM959.7 563.1c3-45.4-52.8 18.6-52.8 18.6L884.2 617c10.9 24.9 72.5-8.4 75.5-53.9z"/><path fill="#E5BFBC" d="M437.1 234l33.3-45.1-34.6-14.3 3.1 16.6s-62.1-9.2-48.1 8.9c13.9 18.2 46.3 33.9 46.3 33.9zM838 100.5c12.9-26.5-45.3 4.9-45.3 4.9l-15.6-7.5c-15.6-7.5-6 25.2-6 25.2l54 3.8c0 .1 0 .1 12.9-26.4z"/><path fill="#6A7E91" d="M345.8 1336.2l42-109.4 34-88.2-21.3-8.2-42 109.1-34 88.6zM874.7 766.1l126.7-192.6-4.8-3.1L869.9 763zM393.5 644.4l86.1 141.9 4.9-2.9-86.2-142zM575.5 770.1l5.7-1L566 688l-5.6 1.1zM771 665h9v100h-9zM1165.7 1351.3l21.3-7.9-29-78.1-10.3-27.6-41.7-112.2-21.4 7.9 38.3 102.9 13.5 36.3zM572 1207v-59h-25v59zM892 1206.4l22.6-3.2-6.3-44.3-22.6 3.2z"/><path fill="#6A7E91" d="M1282.8 972.3c0-99.3-243.9-179.8-544.8-179.8S193.2 873 193.2 972.3c0 99.3 243.9 179.8 544.8 179.8s544.8-80.5 544.8-179.8zm-537.2 125.2c-251.9 0-456.1-67.4-456.1-150.5 0-70.3 146.1-129.4 343.6-145.9 34.3-3 70.3-4.6 107.5-4.6h5c251.9 0 456.1 67.4 456.1 150.5s-204.2 150.5-456.1 150.5z"/><path fill="#6A7E91" d="M730 1212.6V1340h16v-192h-16z"/><ellipse fill="#E5BFBC" cx="645.3" cy="171" rx="59.3" ry="66.4"/></svg>