<svg xmlns="http://www.w3.org/2000/svg" viewBox="0 0 1500 1500"><g fill="#506E5A"><path d="M707.6 742.7c14.3 0 26-11.6 26-26 0-14.3-11.6-25.9-26-25.9-14.3 0-25.9 11.6-25.9 25.9-.1 14.3 11.6 26 25.9 26zM1303.5 869s-47.6-147.9-87.8-254.5C1175.4 507.9 1060.1 511 1060.1 511H675.8c3.7 124 122.6 129.1 122.6 129.1s145-2.1 198.1.1c53.1 2.2 53.1 44.5 53.1 44.5s1.8 113.1 0 166.4c-1.8 53.3-62.2 50.9-62.2 50.9h-62.6c-64 0-51.7 95.9-51.7 95.9v4.4l-5.1 15.6h522V869h-86.5z"/><path d="M850.1 741.5c14.3 0 26-11.6 26-25.9 0-14.3-11.6-26-26-26-14.3 0-25.9 11.6-25.9 26-.1 14.3 11.5 25.9 25.9 25.9zM876.1 829.4c0-14.3-11.6-25.9-26-25.9-14.3 0-25.9 11.6-25.9 25.9 0 14.3 11.6 25.9 25.9 25.9 14.3 0 26-11.6 26-25.9zM791 863.1V680.8c0-4.3-4.2-7.7-8.5-7.7s-8.5 3.5-8.5 7.7V863c0 4.3 4.2 7.7 8.5 7.7 4.3.1 8.5-3.4 8.5-7.6zM707.6 849.8c14.3 0 26-11.6 26-25.9 0-14.3-11.6-26-26-26-14.3 0-25.9 11.7-25.9 26-.1 14.3 11.6 25.9 25.9 25.9zM983.7 741.5c14.3 0 26-11.6 26-25.9 0-14.3-11.6-26-26-26-14.3 0-25.9 11.6-25.9 26 0 14.3 11.6 25.9 25.9 25.9zM880.7 435.5l43.3-26.3-67.2-65.7s-30.3 55.2 23.9 92zM914.2 796.8c14.3 0 26-11.6 26-25.9 0-14.3-11.6-26-26-26s-25.9 11.6-25.9 26c-.1 14.3 11.5 25.9 25.9 25.9zM983.7 855.3c14.3 0 26-11.6 26-25.9 0-14.3-11.6-25.9-26-25.9-14.3 0-25.9 11.6-25.9 25.9 0 14.3 11.6 25.9 25.9 25.9z"/><path d="M726 899.3s-145 2.4-198.1.2c-53.1-2.2-53.1-44.3-53.1-44.3s-1.8-118.9 0-172.2c1.8-53.3 62.2-47.8 62.2-47.8h62.6c64.1 0 58.3-110.8 58.3-110.8v-4.5l-1.5-8.8H133v141h87.9s47.6 147.9 87.9 254.5C349 1013.1 464.3 1010 464.3 1010H848.6C845 894 726 899.3 726 899.3zM643.7 1086.6l-43.3 26.3 67.1 65.7s30.4-55.2-23.8-92zM521.1 1090.1c40.3 33.3 87.8 4.5 87.8 4.5l141-62 16.9-6.1-335.7 3.7c.1 0 49.8 26.6 90 59.9zM1003.3 432c-40.3-33.3-87.8-4.4-87.8-4.4l-141 62-12.2 5.9 326.4 1.8c-.1 0-45.2-32-85.4-65.3z"/><path d="M539.7 797.9c-14.3 0-25.9 11.7-25.9 26s11.6 25.9 25.9 25.9c14.3 0 26-11.6 26-25.9 0-14.4-11.7-26-26-26zM539.7 690.7c-14.3 0-25.9 11.6-25.9 25.9 0 14.3 11.6 26 25.9 26 14.3 0 26-11.6 26-26 0-14.2-11.7-25.9-26-25.9zM623.6 690.7c-14.3 0-26 11.6-26 25.9 0 14.3 11.6 26 26 26 14.3 0 26-11.6 26-26 0-14.2-11.6-25.9-26-25.9zM623.6 797.9c-14.3 0-26 11.7-26 26s11.6 25.9 26 25.9c14.3 0 26-11.6 26-25.9 0-14.4-11.6-26-26-26z"/></g></svg>