<svg xmlns="http://www.w3.org/2000/svg" width="150" height="150" viewBox="0 0 150 150"><path fill="#00AF70" d="M117.256 57.139a45.068 45.068 0 0 0-.491-4.479 43.109 43.109 0 0 0-.63-3.146 44.513 44.513 0 0 0-8.701-17.821 44.39 44.39 0 0 0-3.015-3.383 44.874 44.874 0 0 0-18.785-11.402 44.892 44.892 0 0 0-26.229.01 44.703 44.703 0 0 0-18.787 11.385 46.088 46.088 0 0 0-3.019 3.382 44.79 44.79 0 0 0-9.323 20.979 45.089 45.089 0 0 0-.491 9.728 44.836 44.836 0 0 0 1.862 10.406 44.605 44.605 0 0 0 8.031 15.13l.004.006c6.325 7.804 15.19 13.408 25.253 15.603a56.772 56.772 0 0 0 .86-7.852c.252-1.089.425-1.937.521-2.44.075-.394.126-.762.184-1.142l-5.095-10.961c2.381-1.915 7.896-8.792 9.28-11.562l16.628.007c.72 2.794 4.308 8.855 6.614 10.936l-5.912 7.91-.283.386c.299.46.485.97.582 1.504l.428-.57 6.362-8.519a.567.567 0 0 0 .178.005c.821-.091 3.136-.893 5.601-1.907 2.688-1.108 5.552-2.473 6.853-3.455l4.908 3.262.33-.5c-4.688 9.519-12.813 17.099-22.847 21.034a72.452 72.452 0 0 0-1.562-1.843c-1.046-1.191-2.319-2.562-3.317-3.398l2.089-2.799c-.205-.021-.412-.019-.622-.022a8.793 8.793 0 0 0-1.104.044l-.063.085-1.459 1.952c-.319-.102-.991-.19-1.9-.271-.18-.017-.384-.03-.58-.044.198 1.095.712 3.469 1.528 6.444.477-.148 1.209 1.602 1.973 3.479a44.707 44.707 0 0 0 24.256-15.362c.005-.001.009-.009.012-.013a44.751 44.751 0 0 0 8.027-15.13c.175-.58.335-1.168.489-1.758a44.854 44.854 0 0 0 1.362-13.898M85.925 19.083a42.98 42.98 0 0 1 15.639 9.211l-.438 1.749-13.666-3.159a8.74 8.74 0 0 0-.625-.531c-3.133-2.47-10.343-5.729-12.788-6.391l-.681-3.033c4.364.085 8.58.839 12.559 2.154m-26.805-.021a42.728 42.728 0 0 1 10.887-2.078 44.23 44.23 0 0 1 1.954-.067l.686 3.061c-2.917.853-9.348 5.628-11.039 7.456l-3.649 1.008-12.042 3.33-1.298-4.5a42.62 42.62 0 0 1 14.501-8.21M31.733 72.898a49.614 49.614 0 0 1-.294-.97 42.776 42.776 0 0 1-1.702-9.653 42.854 42.854 0 0 1 .367-8.573c.128-.876.282-1.748.461-2.606a42.178 42.178 0 0 1 1.26-4.74l2.695-.16 9.072 12.679c-1.13 2.84-1.375 12.11-1.256 14.983l-8.466 4.415a43.515 43.515 0 0 1-2.137-5.375m32.159 21.129c-.942.874-2.571 2.915-3.839 4.562-.527.686-.997 1.308-1.324 1.74C48.283 96.77 39.572 89.258 34.486 79.49l8.331-4.339c.598.579 1.768 1.3 3.207 2.048 3.978 2.066 10.048 4.342 12.117 4.457l5.751 12.371zm-5.131-40.022c-.948-.011-2.344.219-3.901.573-3.802.864-8.585 2.483-10.3 3.286L35.8 45.636l5.818-7.423 1.503-1.92 2.332-2.976 12.336-3.411 3.546-.981c.775 2.475 4.348 8.356 6.211 10.21l-8.785 14.87zm26.48 14.215l-16.27-.008c-.558-2.912-6.593-12.003-8.863-13.8l8.63-14.598c2.669.553 12.344.668 15.01-.123l5.471 8.956 3.547 5.802c-.508.529-1.066 1.225-1.64 2.025-2.556 3.544-5.473 9.168-5.885 11.746m8.893-14.824a1.502 1.502 0 0 0-.312.158l-4.91-8.034-4.085-6.68c.87-1.268 1.975-3.957 2.711-6.38.489-1.603.818-3.092.806-3.968l12.942 2.989 1.396 2.119 1.834 2.789 5.429 8.243-3.525 11.481c-2.688-.938-10.204-3.43-12.286-2.717m19.174 19.502a42.983 42.983 0 0 1-1.986 5.049l-4.778-3.178c.729-2.704 1.963-14.706 1.052-17.816l3.654-11.925 1.479-.085a42.742 42.742 0 0 1 1.756 6.142c.177.862.324 1.736.448 2.618.169 1.168.301 2.35.369 3.551a42.636 42.636 0 0 1-1.705 14.677c-.097.322-.184.648-.289.967"/><path d="M46.338 101.063c-.004.002-.007.004-.011.004.049.03.101.06.149.092l.002-.004c-.045-.032-.093-.06-.14-.092M46.693 100.914c-.104.04-.241.103-.354.149.047.029.094.062.143.092.074-.084.138-.156.211-.241M97.205 100.914c.062.066.109.125.171.191.038-.022.08-.047.116-.07-.092-.036-.202-.089-.287-.121"/><path fill="#01464D" d="M60.035 12.473c.419-2.852.852-5.593 1.303-8.217a61.584 61.584 0 0 0-25.793 11.265 194.725 194.725 0 0 1 3.527 8.581 48.821 48.821 0 0 1 20.963-11.629M105.967 24.102a195.021 195.021 0 0 1 3.529-8.579A61.623 61.623 0 0 0 83.701 4.256c.449 2.624.882 5.366 1.301 8.217 7.969 2.097 15.134 6.159 20.965 11.629M35.246 28.122c-1.797-2.658-3.653-5.24-5.543-7.644a61.791 61.791 0 0 0-13.714 19.598c2.908 1.81 6.2 4 9.429 6.539a48.846 48.846 0 0 1 9.828-18.493M133.763 56.813a61.583 61.583 0 0 0-2.592-11.242c-3.47 1.373-7.029 3.093-10.621 5.009.568 2.975.875 6.042.875 9.186 0 3.407-.35 6.732-1.012 9.942 4.076-.983 8.857-1.601 13.819-1.338a61.724 61.724 0 0 0-.469-11.557M119.704 72.628a48.621 48.621 0 0 1-7.437 15.611c4.242.611 9.724 2.16 15.089 5.286a61.491 61.491 0 0 0 6.442-20.409c-4.276-.588-8.982-.643-14.094-.488M25.339 72.628c-5.116-.155-9.82-.1-14.096.488a61.341 61.341 0 0 0 6.439 20.409c5.366-3.126 10.849-4.675 15.089-5.286a48.672 48.672 0 0 1-7.432-15.611M24.63 69.709a49.217 49.217 0 0 1-1.014-9.944c0-3.14.308-6.21.874-9.185-3.589-1.913-7.148-3.636-10.619-5.009a61.852 61.852 0 0 0-2.598 11.243 62.492 62.492 0 0 0-.468 11.558c4.964-.263 9.749.354 13.825 1.337M129.05 40.074a61.825 61.825 0 0 0-13.714-19.597c-1.892 2.404-3.742 4.984-5.545 7.642a48.74 48.74 0 0 1 9.831 18.493c3.228-2.536 6.518-4.727 9.428-6.538M109.282 92c-.226-.088-.458-.162-.683-.251a46.67 46.67 0 0 1-11.107 9.288c.193.072.425.188.634.277.034.018.073.03.107.05 3.33 1.488 8.764 4.986 13.395 11.05.11-.095.219-.193.33-.289.082.101.163.187.239.289a62.037 62.037 0 0 0 12.879-14.885c-3.578-2.835-8.16-5.146-13.899-7.825A47.884 47.884 0 0 1 109.282 92"/><path fill="#01464D" d="M97.824 101.623c-.154-.175-.293-.339-.451-.518-5.831 3.489-12.538 5.804-19.744 6.621a51.34 51.34 0 0 0 6.84-1.293c-.434-.836-.901-2.008-1.359-3.133-.766-1.878-1.498-3.626-1.973-3.479-.816-2.976-1.328-5.348-1.53-6.444l-.023-.131c.578-.724 2.206-1.408 4.026-1.594a9.64 9.64 0 0 1 1.104-.042c.211.002.418 0 .623.021.36.036.722.092 1.072.179.002-.032 0-.064.002-.099a6.336 6.336 0 0 0-.097-1.387 4.116 4.116 0 0 0-.582-1.508c-.779-1.196-2.338-2.076-5.271-2.198a22.473 22.473 0 0 0-7.993-1.497c-2.729-.008-5.171.494-7.061 1.272-.424 1.579-.57 3.521-.907 5.709-.058.378-.111.748-.184 1.144-.096.504-.269 1.35-.521 2.44a55.387 55.387 0 0 1-.216 3.164 56.284 56.284 0 0 1-.645 4.686 58.022 58.022 0 0 1-.745 3.592 49.102 49.102 0 0 1-15.324-5.758c-.098-.056-.201-.106-.297-.162-.01-.004-.023-.013-.034-.019l-.053-.034-.002.004a6.199 6.199 0 0 0-.153-.092c.004 0 .008-.002.013-.004-.214-.137-.429-.27-.639-.41-.237-.153-.474-.306-.708-.468a49.106 49.106 0 0 1-11.129-10.483c-5.741 2.678-10.323 4.994-13.902 7.827a.076.076 0 0 1 .015.023c-.158.049-.309.111-.463.163a62.141 62.141 0 0 0 12.755 14.698c.079-.103.16-.188.239-.291.114.1.22.196.333.291 4.678-6.124 10.195-9.651 13.518-11.116-5.233 6.001-8.592 9.921-10.304 14.05a61.262 61.262 0 0 0 15.947 8.187c.02-.064.043-.121.06-.185.171.058.341.124.513.185 1.712-6.14 4.582-10.569 6.619-12.958-5.202 17.693-3.21 15.041 12.755 37.424.098-.139.188-.263.288-.399.094.137.184.261.286.399 15.96-22.387 17.957-19.73 12.751-37.424 2.038 2.389 4.904 6.818 6.62 12.958.174-.061.342-.127.515-.185.018.063.041.12.061.185a61.25 61.25 0 0 0 15.945-8.187c-1.702-4.107-5.035-8.009-10.224-13.955-.121.077-.243.157-.366.231M73.329 86.608c2.176.094 4.646.58 5.863 1.179-.31.507-.805.77-1.369.84a2.596 2.596 0 0 1-.704-.004c-1.593-.241-2.298-1.032-4.403-2.037.199.004.406.014.613.022"/></svg>