<svg xmlns="http://www.w3.org/2000/svg" width="150" height="150" viewBox="0 0 150 150"><path fill-rule="evenodd" clip-rule="evenodd" fill="#1DB0A7" d="M37.581 114.171c11.227 7.939 25.738 11.081 40.096 7.386 12.866-3.31 23.19-11.488 29.514-22.052-20.83 9.818-46.02 17.326-69.61 14.666M39.542 73.418c-5.104-19.844 5.602-40.045 24.251-47.27a48.868 48.868 0 0 0-10.282 1.501c-16.434 4.23-28.715 16.395-33.815 31.335-1.567 5.463-2.202 10.278-1.944 14.784.522 9.146 2.971 12.322 11.292 16.164 7.356 3.395 15.914 4.558 24.061 4.604a39.868 39.868 0 0 1-13.563-21.118"/><path fill="#BB4B26" d="M56.753 95.783c4.863-.23 9.889-.796 15.018-1.67a70.585 70.585 0 0 1-6.275-.796 54.729 54.729 0 0 1-4.459-.965 35.948 35.948 0 0 1-4.524-4.068c6.026 2.319 12.986 3.54 20.405 3.54 2.482 0 5.017-.146 7.534-.418a189.358 189.358 0 0 0 10.686-3.06 11.425 11.425 0 0 0-.178-.853 11.442 11.442 0 0 1-.085-.383c-.548-2.396-1.483-4.743-2.316-6.757-.065-.145-.123-.323-.189-.518-.134-.4-.422-1.241-.699-1.336-.104 0-.279.062-.414.107-.1.041-.193.075-.283.1l-.167.05c-.737.233-1.48.468-2.227.679-2.417.708-5.104 1.254-8.206 1.671-2.716.36-5.47.546-8.195.546-5.661 0-11.003-.777-15.863-2.304a47.15 47.15 0 0 1-7.198-2.934 35.307 35.307 0 0 1-1.137-3.579c.431.266.873.522 1.31.777l.236.136c6.09 3.476 13.848 5.315 22.436 5.315 2.748 0 5.572-.187 8.386-.555 2.253-.297 4.604-.775 7.193-1.477.243-.064.509-.128.784-.192.763-.173 1.623-.377 2.183-.72.034-.003.025-.083-.086-.317-.338-.662-.709-1.319-1.079-1.979l-.154-.274c-1.355-2.406-2.842-4.607-4.421-6.54l-.34-.431c-.577-.738-1.175-1.503-1.885-1.89-.283-.152-1.05.026-1.662.206a9.311 9.311 0 0 1-.813.205c-.928.169-1.849.36-2.776.551-1.641.339-3.344.693-5.054.907-2.083.264-3.945.476-5.861.392-3.783-.158-7.762-1.176-12.514-3.215-2.074-.907-4.078-2.177-6.13-3.885a6.71 6.71 0 0 1-.514-.528c-.019-.023-.044-.055-.073-.08.188-1.43.458-2.83.812-4.197-.029.316-.025.611.034.858.328 1.378 1.733 2.363 2.969 3.233.143.093.248.172.363.266.159.121.529.403.69.443.17-.169.359-1.196.419-1.536.037-.198.071-.374.101-.498.594-2.375 1.542-4.958 2.817-7.68.287-.607.564-1.216.845-1.826 1.178-2.547 2.391-5.187 3.94-7.64 1.845-2.956 4.144-5.813 7.322-9.11a35.12 35.12 0 0 1 6.175-2.219c-.005.004-.005.006-.007.006-.359.315-.707.632-1.052.927-6.358 5.436-11.274 12.406-15.025 21.307-.941 2.229-2.009 4.755-2.61 7.331-.055.238-.154.513-.258.808-.154.434-.368 1.028-.317 1.324.03.168.527.434 1.475.783a6.1 6.1 0 0 1 .551.218c1.825.814 3.892 1.426 6.15 1.814.206.03.434.082.666.128.503.114 1.021.232 1.427.178.101-.055.191-.385.237-.538l.076-.257c.417-1.229.824-2.481 1.217-3.721.35-1.088.783-2.147 1.194-3.175.21-.513.415-1.02.617-1.533 1.463-3.843 2.792-7.061 4.499-10.267 3.373-6.269 7.917-11.523 13.141-15.2a42.33 42.33 0 0 1 1.438-.968c1.338.172 2.657.421 3.946.738-1.691.799-3.216 1.822-4.504 2.769C78.88 37.58 74.48 45.571 72.128 51.293c-1.328 3.214-2.828 6.862-3.926 10.461-.094.319-.23.672-.371 1.023-.231.578-.468 1.174-.493 1.666.163-.058.283-.058.412-.055.849 0 1.742-.139 2.612-.275.353-.057.705-.111 1.05-.156l.485-.069c2.177-.292 4.235-.57 6.332-1.045.301-.069.668-.116 1.059-.165.83-.099 1.868-.227 2.284-.616.232-.218.39-.803.517-1.275.078-.29.153-.572.246-.81l.316-.813c.611-1.574 1.244-3.207 1.97-4.776 2.111-4.604 5.059-8.861 8.754-12.655 2.375-2.444 5.379-4.544 8.235-5.756a18.738 18.738 0 0 1 2.108-.757 37.078 37.078 0 0 1 2.87 2.363c-.241-.106-.471-.183-.696-.183-1.291.18-2.552.701-3.396 1.079l-.194.082c-.126.055-.364.159-.418.224.073.097.634.594.871.803.183.167.349.312.452.43a63.601 63.601 0 0 1 4.091 4.911l.11.151c2.054 2.722 4.18 5.541 5.932 8.559 1.635 2.8 3.119 6.167 4.421 10.011.151.454.287.916.412 1.383a35.488 35.488 0 0 1-1.228 8.208 76.204 76.204 0 0 0-.137-1.221c-.292-2.35-.663-4.843-1.386-7.183-1.921-6.262-5.394-11.71-8.207-15.76-1.986-2.855-3.891-5.23-5.819-7.256a15.868 15.868 0 0 1-.373-.422c-.327-.384-1.094-1.279-1.469-1.279-.418.114-.922.535-1.371.907a7.847 7.847 0 0 1-.475.381c-1.561 1.204-2.979 2.607-4.731 4.689a12.53 12.53 0 0 1-.433.457c-.282.279-1.139 1.133-1.109 1.438.063.311.795.925 1.184 1.255.229.196.433.369.584.519a74.676 74.676 0 0 1 4.732 5.179c4.212 5.151 8.805 11.382 10.942 18.535.993 3.324 1.664 6.345 2.043 9.163a225.453 225.453 0 0 0 9.993-4.343 40.904 40.904 0 0 0 2.609-14.411c0-22.646-18.36-41.003-41.005-41.003h-.002c-.157 0-.309.002-.465.004-22.427.25-40.535 18.509-40.535 41 0 12.884 5.946 24.378 15.238 31.893"/><path fill="#BB4B26" d="M92.053 52.23a24.456 24.456 0 0 0-1.779-1.801c-.168-.148-.315-.28-.375-.299.028.014-.113.245-.171.342l-1.245 2.071c-1.121 1.88-1.937 3.973-2.724 6l-.506 1.294c-.09.228-.215.495-.351.782-.307.639-.686 1.444-.609 1.925.05.297.502.698.866 1.019.219.195.432.391.593.569a32.128 32.128 0 0 1 3.338 4.372c3.099 4.931 6.481 10.844 8.102 17.341.143.571.256 1.146.362 1.724a216.702 216.702 0 0 0 10.897-3.944c-.835-6.59-2.715-12.43-5.616-17.349-1.232-2.098-2.673-4.108-3.926-5.826-2.174-2.985-4.583-5.718-6.856-8.22"/><path fill="#BB4B26" d="M144.973 68.846a198.948 198.948 0 0 1-5.367 3.184c-6.456 3.712-13.358 7.21-20.508 10.383a226.5 226.5 0 0 1-8.695 3.642c-.529.207-1.055.42-1.582.626a212.08 212.08 0 0 1-10.909 3.859 194.049 194.049 0 0 1-10.061 2.976c-9.463 2.509-18.83 4.18-27.675 4.751-15.959 1.033-30.216-1.503-40.199-9.184-1.811-1.394-3.114-3.146-4.025-5.092a16.987 16.987 0 0 1-1.093-3.06c-1.19-4.724-.914-10.843.359-16.188a55.625 55.625 0 0 0-2.419 2.521c-6.898 7.63-10.085 15.824-8.15 23.348.288 1.119.703 2.19 1.211 3.225 2.959 6.028 9.518 10.616 18.227 13.432 17.883 5.781 38.38 3.904 58.542-2.374 11.201-.031 21.339-4.552 28.725-11.858 12.694-6.489 24.613-14.223 34.893-22.259"/></svg>