<svg xmlns="http://www.w3.org/2000/svg" width="150" height="150" viewBox="0 0 150 150"><path fill="none" d="M127.463 100.26c.059-.191.119-.379.176-.57-.045.145-.088.291-.137.436a2.162 2.162 0 0 1-.039.134zM115 101.725c.264-.066.521-.131.781-.199-.26.068-.517.13-.781.199-.049.014-.102.027-.15.039a.419.419 0 0 1-.047.014.334.334 0 0 1 .043-.01c.052-.016.105-.03.154-.043zM116.945 101.23c.1-.021.197-.047.299-.072-.098.021-.197.047-.297.068-.086.02-.17.043-.258.064.086-.021.172-.045.258-.064 0 .003-.002.003-.002.004zM81.4 126.791c13.729-.842 25.695-8.293 32.754-19.211a42.37 42.37 0 0 0 2.211-3.846 84.022 84.022 0 0 1 .002-.002c-.236.064-.475.131-.715.201a41.75 41.75 0 0 1-2.523 4.229c-6.824 9.992-17.897 16.863-30.598 17.996-1.227.111-2.47.178-3.725.178a41.37 41.37 0 0 1-12.756-2.014c-.226.113-.453.23-.677.344a41.953 41.953 0 0 0 13.435 2.211c.87 0 1.731-.035 2.592-.086zM127.633 99.691v-.002c-.258.01-.518.008-.779.023-.02 0-.039.004-.059.004.02 0 .041 0 .061-.002.259-.015.519-.015.777-.023z"/><path fill="none" d="M86.256 124.061c9.377-1.773 17.606-6.826 23.438-13.926a39.888 39.888 0 0 0 3.832-5.576 5.37 5.37 0 0 0-.168.051c-.068.021-.139.041-.209.066h-.002a40.096 40.096 0 0 1-4.168 5.879c-5.594 6.543-13.268 11.256-21.994 13.092-2.642.555-5.374.85-8.178.85a39.55 39.55 0 0 1-10.367-1.383c1.575-.805 3.147-1.648 4.719-2.475-1.572.826-3.145 1.67-4.719 2.475-.063.029-.124.062-.187.094-.056.031-.113.059-.169.088a39.905 39.905 0 0 0 10.722 1.475 40.123 40.123 0 0 0 7.45-.71zM114.041 101.98c-.199.055-.398.107-.598.166-.438.123-.877.264-1.312.396.439-.133.877-.271 1.312-.396l.598-.166zM78.354 117.914c.086-.037 4.945-2.168 11.688-4.877-6.755 2.713-11.62 4.844-11.688 4.877zM127.551 99.965l.057-.184-.057.184zM37.635 90.186c.514-.102 1.026-.201 1.54-.318-.514.118-1.026.216-1.54.318-.178.037-.355.078-.534.111-1.073.207-2.145.35-3.218.496 1.074-.146 2.147-.287 3.218-.494l.534-.113zM31.274 91.086c-1.028.09-2.056.191-3.083.225-.25.006-.499.014-.748.023.249-.01.499-.016.748-.023 1.027-.034 2.055-.135 3.083-.225zM108.848 58.74l-.104.036c-12.025 4.18-24.053 10.967-36.078 17.271 12.025-6.304 24.052-13.091 36.078-17.269l.104-.038zM127.301 100.777c.004-.016.012-.029.016-.041l.062-.203a6.493 6.493 0 0 1-.064.203c-.003.01-.01.026-.014.041zM110.617 58.132a.977.977 0 0 1 .072-.021c-.025.006-.051.014-.074.021-.531.173-1.064.367-1.596.549-.03.012-.059.021-.087.03l.089-.028c.53-.184 1.063-.379 1.596-.551zM120.395 100.557zM86.463 113.641c3.75-1.941 7.498-3.807 11.245-5.518-3.747 1.709-7.495 3.574-11.245 5.518zM56.359 128.857zM63.828 129.602l.607.441-.339 1.045.341-1.045zM96.58 127.602h-.002l-1.631 1.183zM80.877 131.539l-.389.283.313.961-.31-.961zM78.473 131.822l-.313.961.313-.961zM76.837 130.637l.968.703-.965-.703zM91.297 127.602l1.631 1.183-1.628-1.183zM107.84 124.51l-1.633-1.188zM93.937 125.68l-.623 1.92h.002zM77.848 133.742l.817-.594-.817.594zM92.306 130.705l1.631-1.185-1.631 1.183zM62.331 133.1a50.754 50.754 0 0 1-4.923-1.961c-.052-.023-.102-.041-.154-.064a50.997 50.997 0 0 0 5.333 2.117c-.074-.026-.171-.063-.256-.092zM67.078 131.961l-.624-1.918.622 1.918zM56.439 130.689c-.364-.178-.72-.367-1.078-.551.326.184.694.369 1.076.551h.002zM56.992 130.955zM57.254 131.074c-.035-.016-.069-.033-.106-.049-.113-.049-.228-.102-.343-.154.15.07.302.135.449.203zM63.814 131.961l1.631-1.184-1.631 1.184zM66.07 128.857l-.625-1.921-.624 1.921h-2.017l.002.002h2.015l.624-1.921.625 1.921h2.014l.002-.002zM81.111 133.742v-.004l-1.158-.842zM120.662 55.6a58.684 58.684 0 0 1 4.529-.597c-1.51.143-3.02.33-4.527.595-2.807.49-5.611 1.191-8.416 2.039l-.533.163.533-.161c2.805-.848 5.611-1.548 8.414-2.039zM95.57 130.705v-.002l-1.633-1.183zM84.08 43.234c-.02.133-.059.25-.096.365 2.549.318 5.027.862 7.412 1.623-.002-.194.01-.377.022-.564a41.852 41.852 0 0 0-7.604-1.625c.088.071.17.143.266.201zM82.746 41.511c-.487-1.084-.837-2.517-1.277-4.055.438 1.539.79 2.971 1.277 4.055zM81.74 45.091l.02.138a39.335 39.335 0 0 1 11.262 2.521c1.524 1.31 2.023 2.881 1.832 4.32.191-1.439-.305-3.011-1.832-4.321a6.318 6.318 0 0 0-.406-.315 4.973 4.973 0 0 0-.381-.27l-.004-.002a39.66 39.66 0 0 0-10.51-2.208c.004.041.015.09.019.137zM84.471 55.268c1.895 2.081 5.354 2.185 8.037.354a5.067 5.067 0 0 0 0-.001c-2.684 1.831-6.143 1.728-8.037-.353zM59.293 45.38c-.002.078.011.149.006.229.005-.079-.008-.151-.006-.229zM86.758 49.897c.15 1.92-.914 2.846-2.074 2.953 1.16-.105 2.224-1.031 2.074-2.953zM36.934 88.875c.178-.033.356-.076.531-.109.519-.104 1.035-.205 1.549-.32-.516.115-1.03.215-1.546.316a41.113 41.113 0 0 1-.195-3.96c0-1.595.1-3.165.275-4.712a12.716 12.716 0 0 0 0-.002c-.187.047-.371.096-.562.134h-.002a43.275 43.275 0 0 0-.251 4.58 41.264 41.264 0 0 0 .201 4.073zM65.326 51.602zM62.676 55.679c-.546.274-1.13.487-1.77.536.64-.049 1.223-.26 1.77-.536zM64.06 14.149l-.003-.005.003.006h.004l-.002-.001zM77.388 12.655v-.006s-.034.085-.1.228a.097.097 0 0 0 .024.002c-.008-.001-.016 0-.022-.002l.098-.222zM72.81 11.001h-.002c.006.023.018.042.024.062-.007-.021-.016-.039-.022-.062zM55.539 52.335c.008.042.024.083.032.124.015.053.026.106.042.161a39.567 39.567 0 0 1 11.331-5.701c.381.793 1.002 1.073 1.941 1.341.299 1.42-1.011 3.178-2.418 3.461 1.41-.283 2.719-2.041 2.42-3.461-.939-.268-1.562-.549-1.941-1.341-.024-.044-.048-.083-.065-.131-.015-.035-.024-.082-.039-.122-.048-.13-.084-.294-.124-.451.039.157.076.322.124.453a39.798 39.798 0 0 0-11.303 5.667zM84.139 54.774c-.164-.231-.347-.441-.475-.711.128.27.311.479.475.711zM83.183 52.528c.075.433.222.803.366 1.171-.145-.368-.291-.738-.366-1.171zM93.143 40.398c-.861 1.145-1.479 2.406-1.665 3.886.186-1.48.803-2.741 1.665-3.886zM82.263 46.663c.382.734.952 1.434 1.673 1.84-.721-.406-1.29-1.106-1.673-1.84zM68.373 44.595zM53.891 83.529l-.039.09c.011-.032.03-.062.042-.09-.597-.113-1.006-.446-1.173-.951.166.505.571.838 1.17.951zM110.568 56.692l-.002-.001-.371.129a35.176 35.176 0 0 0-.746-.809l-.002-.001c-.035-.025-.076-.046-.113-.071 0 .277.162.625.453 1.02.139-.045.271-.094.41-.139.123-.043.244-.089.371-.128zM53 80.584c.187.188.427.275.705.285-.278-.01-.519-.099-.705-.285zM108.021 57.568a107.331 107.331 0 0 1 0-.002c-.041.016-.082.029-.123.042-.053.021-.106.036-.158.056.054-.02.105-.035.16-.056l.121-.04zM49.571 85.279zM54.259 76.574c2.711-2.598 3.305-6.77 4.606-10.594-1.304 3.824-1.897 7.997-4.606 10.592-.874.919-3.795 2.403-6.627 2.342 2.832.062 5.756-1.423 6.627-2.34zM39.014 88.445c.045-.012.089-.02.134-.027.043-.012.087-.018.132-.029a40.158 40.158 0 0 1-.167-3.588c0-1.818.132-3.603.371-5.357l-.147.059c-.045.02-.093.037-.141.059a40.113 40.113 0 0 0-.356 5.241c0 1.226.066 2.441.174 3.642zM45.533 78.059c3.167-1.533 7.146-10.807 5.562-12.356 1.581 1.549-2.396 10.822-5.562 12.356zM45.555 61.941l-.004.003c-.659 2.044-2.262 4.464-4.298 6.755 2.039-2.292 3.643-4.713 4.302-6.758zM41.365 56.045zM69.394 39.71c-.158-.831-.497-1.534-1.047-1.896-.206-.064-.492-.136-.813-.217.321.081.607.153.813.218.55.362.889 1.066 1.047 1.895zM115.021 55.386c.047-.011.092-.027.137-.039-.045.012-.09.028-.137.039zM66.497 44.568a41.785 41.785 0 0 0-10.52 4.917l-.002.002a4.04 4.04 0 0 0-.377.885 41.382 41.382 0 0 1 10.94-5.255c.02.216.05.395.081.58-.031-.185-.061-.364-.081-.581-.015-.177-.032-.35-.041-.551-.002-.036-.007-.065-.009-.104.002.04.007.067.009.107zM66.595 44.539c.228.196.447.316.655.376.373-.108.746-.22 1.124-.32.182-.178.349-.397.49-.672.454-.875.692-2.16.633-3.348.059 1.187-.18 2.472-.633 3.347-.764.186-1.524.39-2.269.617zM39.985 70.057l.004-.004a41.342 41.342 0 0 1 2.583-5.517c-.379.323-.755.643-1.132.961a41.96 41.96 0 0 0-2.351 5.443c.307-.29.601-.585.896-.883zM65.651 78.184c14.028-7 28.06-15.478 42.089-20.52-14.031 5.042-28.06 13.519-42.089 20.52zM58.664 76.123zM114.506 67.457l.064-.197.028-.084-.028.082-.064.198-2.098 6.452h-7.707H112.412zM81.723 104.258c-.533-.949-1.162-2.207-1.485-3.451a1.642 1.642 0 0 0-.001 0c.322 1.244.951 2.502 1.486 3.451zM82.616 99.045a.68.68 0 0 0-.015-.143H82.6a.633.633 0 0 1 .016.143zM50.812 118.811l-1.23-3.784 1.23 3.784zM120.201 77.309l-.486.352-.69.501.69-.5.488-.355 4.533-3.293.043-.032-.047.033zM85.449 105.477a1.121 1.121 0 0 1 0 2.242c.617 0 1.121-.502 1.121-1.123 0-.616-.504-1.119-1.121-1.119h-3.004 3.004zM86.544 84.695h-.003c.003.786-.01 1.854-.066 3.045-.09 1.879-.291 4.049-.707 5.895.418-1.846.62-4.016.709-5.895.056-1.189.067-2.26.067-3.045zM84.284 97.096c.366-.387.683-.918.943-1.582 1.104-.207 2.001-.74 2.729-1.473-.729.732-1.626 1.264-2.729 1.471-.26.664-.577 1.195-.943 1.584zM85.695 93.986zM89.573 86.318c.007-.057.018-.117.024-.174.062-.52.112-1.016.141-1.449h-.002c-.026.435-.078.933-.139 1.447-.006.059-.017.12-.024.176zM77.705 99.727c0 .469.37.873.908 1.08-.538-.209-.908-.612-.908-1.08zM67.735 83.352h-.002s-.017 1.303.2 3.053c-.217-1.751-.198-3.053-.198-3.053zM82.619 99.055v-.002c0 .15-.076.27-.158.383.082-.114.158-.233.158-.381zM91.115 83.502zM119.443 73.908h-2.269l-.166-.508.166.508h7.709zM76.232 99.053a.76.76 0 0 1-.002.002.671.671 0 1 0 .002-.002zM75.486 97.693a.673.673 0 0 0-.275.539c0 .186.078.354.2.475a.666.666 0 0 1-.197-.475.675.675 0 0 1 .272-.539zM73.99 96.312zM73.101 95.342c.173.057.334.137.521.172v-.002c-.187-.033-.348-.114-.521-.17zM73.402 105.477h3.001c.343-.525 1.134-1.809 1.718-3.229-.584 1.42-1.375 2.703-1.718 3.229h-3.001a1.12 1.12 0 0 0-1.119 1.119v.002a1.12 1.12 0 0 1 1.119-1.121zM64.32 121.799l.056-.031c1.316-.67 2.648-1.375 3.978-2.068-1.33.693-2.661 1.398-3.978 2.068a.44.44 0 0 0-.056.031zM72.359 117.584c1.342-.713 2.68-1.426 4.036-2.152 13.317-7.137 26.976-14.449 39.887-17.566-12.913 3.115-26.571 10.432-39.887 17.566-1.356.724-2.694 1.439-4.036 2.152zM28.683 133.334v-1.625h-.002v1.627c7.141 0 14.757-2.166 22.727-5.479l.267-.113-.267.113c-7.972 3.309-15.586 5.477-22.725 5.477zM116.281 97.865c.057-.014.111-.023.166-.035l.074-.018-.074.018a6.005 6.005 0 0 1-.166.035zM118.066 52.183c-2.104-.827-3.957-1.698-5.357-2.537 1.4.839 3.254 1.711 5.357 2.537zM60.33 121.984c.393-.195.787-.395 1.182-.594a186.585 186.585 0 0 1-1.789.889c.201-.099.402-.199.607-.295zM110.717 48.184l.002.001 2.24.417-2.242-.418zM44.577 114.281l1.943 1.412-1.943-1.412zM37.55 109.174l-3.062-2.223h-.002l3.064 2.227 3.173 2.302zM62.416 120.939c4.082-2.061 8.241-4.281 12.455-6.539-4.217 2.258-8.376 4.479-12.455 6.539a3.269 3.269 0 0 1-.169.082 1.271 1.271 0 0 1-.072.039c.024-.012.048-.023.072-.037.056-.027.114-.058.169-.084zM48.925 111.119l.125-.09 5.615-4.078-5.617 4.078zM44.573 99.62h.002v.002h-.002zM42.497 106.02l.225-.694.332-1.023-.332 1.023-.225.694-.304.929h.002zM117.164 96.004c.58-.129 1.158-.266 1.738-.377.197-.039.393-.062.59-.098.615-.111 1.223-.17 1.834-.262-.611.092-1.219.148-1.834.26-.197.039-.393.061-.592.098-.578.111-1.156.252-1.736.377a1.648 1.648 0 0 1-.143.031c-.025.008-.053.014-.08.02l.078-.018c.051-.012.096-.019.145-.031zM49.582 115.027l-.365-1.119-.787-2.428.787 2.43zM76.959 113.287c11.593-6.211 23.418-12.439 34.848-15.881-11.43 3.44-23.255 9.67-34.848 15.881zM116.17 112.512l1.631 1.185-1.631-1.185zM104.574 124.51l1.633-1.188-1.633 1.188zM79.326 74.705c6.811-3.634 13.682-7.194 20.496-10.146-6.814 2.952-13.685 6.512-20.496 10.146zM37.971 94.922c-3.058.668-6.05 1.061-8.958 1.088 2.909-.028 5.9-.42 8.958-1.088zM103.565 121.404l1.633 1.186-1.631-1.186zM39.92 92.789l-.137.037c-.041.012-.084.023-.125.037.041-.012.084-.025.125-.035l.137-.039zM116.168 108.672l-.621 1.92.623-1.918zM108.462 121.686l-1.247.904.538 1.65-.536-1.65zM113.525 110.592l1.633 1.187-.621 1.918.623-1.918zM28.681 94.393c2.886 0 5.866-.387 8.924-1.055-3.059.668-6.038 1.055-8.924 1.055zM117.176 111.779l.625 1.918-.623-1.918 1.631-1.187zM39.92 92.789c2.687-.705 5.439-1.639 8.236-2.715-2.797 1.076-5.549 2.01-8.236 2.715zM121.027 85.768l-.078-.241.078.241zM107.146 75.683l2.444 1.774.449.326-.449-.326zM116.639 82.578l1.841 1.34.071.05-.071-.051zM114.793 68.068v-1.49l.127.39-.127-.391-.002.004v14.656h.002v-5.355zM120.309 83.557l.47 1.449-.468-1.447-1.665-5.122-.001.002z"/><path fill="#8F7A6C" d="M56.805 130.871c.115.053.23.105.343.154-.052-.023-.104-.049-.156-.07a7.661 7.661 0 0 1-.221-.1c.011.004.021.012.034.016zM127.463 100.26l-.084.273-.062.203c-.004.012-.012.025-.016.041l-.016.055c.916-.418 1.83-.83 2.746-1.221-.799 0-1.596.041-2.393.078-.056.192-.117.379-.175.571zM63.285 133.443s-14.74 9.041-36.639 2.785c12.877 5.352 26.032 3.326 39.321-2.016a49.674 49.674 0 0 1-3.164-.943c.3.11.482.174.482.174z"/><path fill="#01464D" d="M82.746 41.511c.289.642.629 1.165 1.067 1.521l.002.001c2.613.313 5.155.854 7.604 1.625v-.001c.009-.129.044-.246.059-.373.187-1.48.804-2.741 1.665-3.886.936-1.244 2.13-2.362 3.288-3.514a50.838 50.838 0 0 0-16.259-3.092c.566 1.221.957 2.474 1.297 3.664.44 1.539.79 2.971 1.277 4.055zM36.934 88.875a41.571 41.571 0 0 1-.202-4.073c0-1.548.091-3.076.251-4.58-.696.136-1.42.214-2.158.208-2.216-.018-4.547-.775-6.542-2.873a51.494 51.494 0 0 0-.519 7.245c0 1.706.087 3.392.25 5.056a56.248 56.248 0 0 0 8.92-.983zM41.365 56.045a45.648 45.648 0 0 1-3.359 1.925 57.435 57.435 0 0 1-3.637 1.728 50.464 50.464 0 0 0-1.843 3.576c4.87-2.744 8.839-5.843 8.839-7.229zM41.44 65.497c-4.326 3.651-8.551 6.846-12.593 8.809-.169.815-.319 1.64-.451 2.468 3.11-.043 7.226-2.576 10.693-5.833a41.854 41.854 0 0 1 2.351-5.444zM59.299 45.609a8.323 8.323 0 0 1-.152 1.238c-1.601.721-2.611 1.648-3.17 2.638a41.785 41.785 0 0 1 10.52-4.917c-.002-.041-.007-.067-.009-.106v-.002c.035.036.067.049.104.078l.002.001a41.837 41.837 0 0 1 2.268-.617c.454-.875.692-2.16.633-3.347a6.441 6.441 0 0 0-.102-.864c-.158-.83-.497-1.533-1.047-1.896-.206-.065-.492-.137-.813-.218-.653-.166-1.466-.385-2.199-.71-.546-.243-1.045-.54-1.377-.928a50.696 50.696 0 0 0-7.681 3.035c.399.423.772.858 1.121 1.302 1.134 1.446 1.926 3.057 1.896 5.084-.002.078.011.15.006.229zM112.959 48.603c-.748-.139-1.486-.278-2.24-.417.471.465 1.148.958 1.99 1.46 1.4.839 3.254 1.71 5.357 2.537a52.323 52.323 0 0 0-2.863-3.162h-.004l-2.24-.418zM67.848 44.918c.188-.057.364-.167.525-.323-.377.1-.75.211-1.124.32.213.061.413.06.599.003zM81.771 44.28c-.059.18-.071.411-.05.673a39.581 39.581 0 0 1 10.51 2.208 7.619 7.619 0 0 0-.675-.413 8.262 8.262 0 0 1-.159-1.525 41.192 41.192 0 0 0-7.412-1.623c-.349 1.042-1.344 1.391-2.214.68z"/><path fill="#01464D" d="M55.598 50.373a3.878 3.878 0 0 0-.154.991 4.01 4.01 0 0 0 .096.972 39.814 39.814 0 0 1 11.303-5.668c-.048-.13-.084-.295-.124-.453a6.41 6.41 0 0 1-.1-.516c-.031-.185-.061-.364-.081-.58a41.287 41.287 0 0 0-10.94 5.254zM41.252 68.7c2.036-2.292 3.639-4.711 4.298-6.755-.998.878-1.991 1.744-2.978 2.59v.001a41.342 41.342 0 0 0-2.583 5.517c.439-.443.858-.896 1.263-1.353zM37.272 84.802c0 1.337.069 2.657.195 3.96.516-.102 1.03-.201 1.546-.316a40.659 40.659 0 0 1-.174-3.644c0-1.777.13-3.524.356-5.241-.519.207-1.067.385-1.648.529a42.106 42.106 0 0 0-.275 4.712zM110.566 56.691a46.652 46.652 0 0 1-1.117-.68c.254.267.503.537.746.809l.371-.129zM82.531 126.158c12.7-1.133 23.773-8.004 30.598-17.996a41.385 41.385 0 0 0 2.523-4.229c-.697.199-1.406.408-2.127.625a39.888 39.888 0 0 1-3.832 5.576c-5.831 7.1-14.061 12.152-23.438 13.926a40.035 40.035 0 0 1-7.449.709 39.86 39.86 0 0 1-10.722-1.475h-.002c-.676.344-1.353.689-2.032 1.027a41.374 41.374 0 0 0 12.756 2.014 40.579 40.579 0 0 0 3.725-.177zM127.633 99.691a1.72 1.72 0 0 0-.025.09l-.057.184a5.253 5.253 0 0 1-.049.16c.049-.145.092-.291.137-.436h-.006v.002zM116.947 101.227c-.086.02-.172.043-.258.064-.02.006-.039.012-.059.016.107-.023.211-.049.314-.076.001-.002.003-.002.003-.004z"/><path fill="#01464D" d="M119.396 102.951c-.979.236-1.98.488-3.031.783a42.643 42.643 0 0 1-2.211 3.846c-7.059 10.918-19.025 18.369-32.754 19.211-.861.051-1.723.086-2.592.086-4.7 0-9.212-.787-13.435-2.211h-.002a225.676 225.676 0 0 1-4.337 2.086 174.725 174.725 0 0 1-4.675 2.105c-.597.258-1.193.539-1.787.791.243.162.501.326.789.49-.004-.004-.006-.004-.011-.006l.011.006c.358.184.714.373 1.078.551.095.045.193.098.291.143.011.006.02.01.028.016.078.037.154.072.234.107.052.021.104.047.156.07.037.016.072.033.106.049.052.023.102.041.154.064-.052-.023-.104-.041-.154-.066a90.97 90.97 0 0 0 5.539 2.193c-.156-.051-.306-.113-.462-.166.084.029.182.066.256.092.069.025.137.053.206.074.004.002.006.004.011.004 1.043.344 2.093.668 3.164.943a50.975 50.975 0 0 0 12.841 1.635c22.243 0 41.152-14.236 48.145-34.086-.582.008-1.238.059-1.932.137-1.626.178-3.538.551-5.626 1.053zm-51.31 25.908l-1.633 1.184.625 1.918h-.002v.002l-1.631-1.186-1.631 1.184-.002.002.284-.875.338-1.045-.607-.441-1.026-.742h.004l-.002-.002h2.017l.625-1.922.625 1.922h2.017l-.002.002h.001zm13.027 4.883l-.002-.004v.004l-1.158-.846-.473-.342-.815.594-.817.594.312-.959.312-.961-.668-.482-.968-.703h2.019l.625-1.92.625 1.92h2.017l-1.245.902-.386.283.31.961.312.959zm15.467-6.14l-1.633 1.184.623 1.918v.002l-1.634-1.186-1.631 1.186v-.002l.622-1.918-1.631-1.184h.004l-.003-.002h2.018l.622-1.92.624 1.92h2.02l-.002.002h.001zm11.26-3.092l-1.633-1.188-1.633 1.188.624-1.92-1.633-1.186h.002-.002 2.017l.625-1.922.624 1.922h2.019l-.388.281-1.245.904.536 1.65.087.271zm9.961-10.813l-1.631-1.186-1.633 1.186.621-1.918-1.633-1.188h2.021l.621-1.92.002.002v-.002l.621 1.92h2.018l-1.631 1.188.624 1.918z"/><path fill="#6A7F7A" d="M63.285 133.443s-.182-.064-.481-.174c-.004 0-.006-.002-.011-.004-.069-.021-.137-.049-.206-.074a50.997 50.997 0 0 1-5.333-2.117c-.147-.068-.299-.133-.449-.203-.013-.004-.023-.012-.035-.016a.035.035 0 0 0-.013-.008l-.028-.016c-.098-.045-.195-.098-.291-.143h-.002c-.381-.182-.75-.367-1.076-.551-.292-.154-.594-.295-.882-.453-9.277 3.877-18.553 6.543-27.832 6.543 21.899 6.257 36.639-2.784 36.639-2.784z"/><path fill="none" d="M56.437 130.689h.002M56.729 130.832c-.098-.045-.195-.098-.291-.143"/><path fill="#6A7F7A" d="M62.793 133.266a91.914 91.914 0 0 1-5.539-2.193c.05.025.102.043.154.066a50.754 50.754 0 0 0 4.923 1.961c.156.052.306.115.462.166zM54.572 129.648h-.004c-.015.004-.03.014-.048.018-.013.006-.028.014-.041.018.286.156.583.299.872.449.004.002.007.002.011.006a12.028 12.028 0 0 1-.79-.491z"/><path fill="#4E5E5B" d="M127.314 100.736c.018-.049.039-.121.064-.203l.084-.273c.016-.049.027-.088.039-.135l.049-.16.057-.184.025-.09c-.258.008-.518.008-.777.023-.02.002-.041.002-.061.002-.008.002-.018.002-.027.006-.965.061-1.932.197-2.896.311a61.433 61.433 0 0 0-3.477.523c-.932.168-1.861.318-2.791.527-.109.025-.215.043-.324.066-.01.002-.021.008-.035.008-.102.025-.199.051-.299.072a7.575 7.575 0 0 1-.314.076.873.873 0 0 1-.068.02c-.258.061-.521.133-.781.199-.26.068-.518.133-.781.199-.049.014-.102.027-.154.043a.334.334 0 0 0-.043.01c-.047.012-.094.021-.137.035a.083.083 0 0 0-.025.006c-.199.055-.398.111-.6.162l-.598.166c-.436.125-.873.264-1.312.396-.438.133-.875.258-1.314.396-.113.035-.229.074-.346.113-4.253 1.387-8.508 3.127-12.763 5.07-3.747 1.711-7.495 3.576-11.245 5.518a880.627 880.627 0 0 0-8.109 4.273c.068-.033 4.934-2.164 11.688-4.877 6.796-2.729 15.493-6.037 23.104-8.361h.002c.07-.025.141-.045.209-.066a155.956 155.956 0 0 1 3.01-.877 89.403 89.403 0 0 1 3.029-.781c2.088-.502 4-.875 5.625-1.053.693-.078 1.35-.129 1.932-.137h.012s.217-.617.318-.928c0-.002 0-.002.002-.002l.016-.055c.003-.012.01-.028.012-.038zM119.748 54.311a71.778 71.778 0 0 0-4.59 1.037c-.045.012-.09.028-.137.039a79.248 79.248 0 0 0-4.453 1.306c-.127.039-.248.085-.371.128-.139.044-.271.093-.41.139v.001c-.05.017-.096.034-.146.049-.54.182-1.079.367-1.62.56l-.121.04c-.055.021-.106.036-.16.056-14.029 5.042-28.061 13.52-42.089 20.52-3.934 1.962-7.866 3.814-11.8 5.436a117.78 117.78 0 0 1-4.281 1.66 87.678 87.678 0 0 1-8.601 2.68c-.564.143-1.128.303-1.689.43-.045.012-.089.018-.132.029a2.118 2.118 0 0 0-.134.027c-.514.115-1.03.217-1.549.32-.175.033-.353.076-.531.109a56.13 56.13 0 0 1-8.919.982c-.456.012-.913.045-1.366.045v1.457c.265 0 .529-.014.794-.025.249-.01.499-.018.748-.023 1.028-.033 2.056-.135 3.083-.225.87-.078 1.739-.174 2.609-.293 1.074-.146 2.145-.289 3.218-.496.178-.033.356-.074.534-.111.514-.102 1.026-.199 1.54-.318.043-.01.087-.016.13-.027.045-.008.091-.014.137-.027 4.775-1.1 9.55-2.74 14.328-4.701 6.3-2.592 12.597-5.763 18.897-9.064 12.025-6.304 24.052-13.091 36.078-17.271l.104-.036c.018-.005.035-.012.053-.019a.202.202 0 0 0 .032-.011l.087-.03c.531-.182 1.064-.375 1.596-.549a.799.799 0 0 1 .074-.021l.117-.037c.125-.039.252-.073.377-.113.178-.056.355-.108.531-.161l.533-.163c2.805-.848 5.609-1.548 8.416-2.039a56.946 56.946 0 0 1 4.527-.595c.451-.043.902-.101 1.354-.132a51.454 51.454 0 0 1 3.488-.129v-1.457c-2.424 0-4.846.197-7.273.534h-.002l.002.001a59.186 59.186 0 0 0-3.013.488zM53.852 83.619z"/><path fill="#F7D195" d="M125.191 55.003c-1.51.145-3.018.332-4.529.597-2.803.491-5.609 1.19-8.414 2.039l-.533.161c-.176.052-.354.104-.531.161-.125.04-.252.074-.377.113a5.264 5.264 0 0 1-.117.037l-.072.021c-.533.172-1.066.367-1.596.551-.03.01-.059.02-.089.028l-.032.011-.053.019a2.514 2.514 0 0 1-.104.038c-12.025 4.178-24.053 10.965-36.078 17.269-6.3 3.302-12.597 6.473-18.897 9.064-4.778 1.961-9.553 3.602-14.328 4.701-.046.014-.091.02-.137.027-.043.012-.087.018-.13.027-.514.117-1.025.217-1.54.318l-.534.113c-1.071.207-2.145.348-3.218.494-.87.119-1.739.215-2.609.293-1.028.09-2.056.191-3.083.225-.25.008-.499.014-.748.023-.265.012-.529.025-.794.025h-.002v44.869c9.279 0 18.555-2.666 27.832-6.545.013-.004.028-.012.041-.018.018-.004.033-.014.048-.018h.004c.594-.252 1.19-.533 1.787-.791a177.96 177.96 0 0 0 4.675-2.105 225.676 225.676 0 0 0 4.337-2.086h.002l.677-.344c.679-.338 1.355-.684 2.032-1.027h.002c.056-.029.113-.057.169-.088.063-.031.124-.064.187-.094 1.575-.805 3.147-1.648 4.719-2.475 1.728-.91 3.454-1.801 5.181-2.719l.014-.006a856.792 856.792 0 0 1 8.109-4.273c3.75-1.943 7.498-3.809 11.245-5.518 4.255-1.943 8.51-3.684 12.763-5.07.117-.039.232-.078.346-.113.439-.139.877-.264 1.314-.396.436-.133.875-.273 1.312-.396.199-.059.398-.111.598-.166.201-.051.4-.107.6-.162.006-.002.018-.006.025-.006.043-.014.09-.023.137-.035a.419.419 0 0 0 .047-.014c.049-.012.102-.025.15-.039.264-.068.521-.131.781-.199.26-.066.523-.139.781-.199a.873.873 0 0 0 .068-.02c.02-.004.039-.01.059-.016.088-.021.172-.045.258-.064.1-.021.199-.047.297-.068.014 0 .025-.006.035-.008.109-.023.215-.041.324-.066.93-.209 1.859-.359 2.791-.527a60.017 60.017 0 0 1 3.477-.523c.965-.113 1.932-.25 2.896-.311.01-.004.02-.004.027-.006.02 0 .039-.004.059-.004.262-.016.521-.014.779-.023h.006c.797-.037 1.594-.078 2.393-.078h.002V54.742c-1.164 0-2.324.05-3.488.129-.45.032-.901.089-1.353.132zm-96.51 39.419v-.029c2.886 0 5.866-.387 8.924-1.055.175-.037.354-.08.529-.119.508-.115 1.011-.225 1.525-.355.041-.014.084-.025.125-.037l.137-.037c2.687-.705 5.439-1.639 8.236-2.715 2.019-.777 4.06-1.619 6.131-2.551 6.875-3.088 14.02-6.914 21.341-10.838 1.23-.66 2.464-1.32 3.697-1.98 6.811-3.634 13.682-7.194 20.496-10.146a130.871 130.871 0 0 1 5.504-2.26c.08-.031.158-.065.236-.093a97.711 97.711 0 0 1 4.665-1.623c.052-.016.104-.032.153-.049.041-.014.082-.025.125-.038.527-.171 1.062-.347 1.592-.504.184-.056.367-.106.553-.161.072-.02.143-.037.217-.058a75.702 75.702 0 0 1 2.387-.648 62.238 62.238 0 0 1 6.859-1.337 47.54 47.54 0 0 1 6.223-.43v1.627c-1.744 0-3.516.131-5.301.345a56.27 56.27 0 0 0-5.248.886 68.016 68.016 0 0 0-4.13 1.03c-.188.053-.371.098-.559.151-.523.154-1.053.317-1.578.482l-.121.038c-.051.015-.102.032-.15.048a96.01 96.01 0 0 0-4.285 1.463c-.32.118-.639.229-.965.352-1.994.757-4 1.585-6.014 2.467l-.711.311c-7.604 3.374-15.295 7.493-22.879 11.558-7.391 3.962-14.604 7.826-21.565 10.943-4.988 2.236-9.843 4.082-14.542 5.312-.046.01-.091.025-.137.035-.042.014-.084.023-.126.039-.512.129-1.017.238-1.526.354-.174.043-.352.082-.527.121-3.058.668-6.048 1.061-8.958 1.088-.108 0-.221.012-.332.012v-1.599zm96.202-20.514l-.104.074-.043.031-4.533 3.293-.488.355-.689.5-.379.274 1.664 5.122.469 1.447.092.279.078.242.078.24v.002l-.168-.12-.531-.388-1.574-1.143-.137-.101-.066-.051-.07-.05-1.842-1.34-1.846-1.34v-.001h-.002v.001l-6.233 4.531v-.002l2.382-7.328-.9-.656-.449-.326-2.444-1.774-2.444-1.774h.002-.002 7.707l2.098-6.452.064-.198.027-.082.025-.083.168-.513v.001l.002-.004.127.391.908 2.796 1.18 3.636.166.508h7.707-.002.002zM91.021 85.422c-.205 2.434-.875 6.424-3.064 8.619-.729.732-1.626 1.266-2.729 1.473-.261.664-.577 1.195-.943 1.582-.275.291-.575.51-.919.598a.679.679 0 0 1 .272.539c0 .371-.304.67-.675.67h-.361a.68.68 0 0 1 .015.143c0 .002.003.004.003.008v.002c0 .148-.076.268-.158.381-.122.166-.293.291-.517.291h-.8c0 .287-.152.547-.387.754a1.631 1.631 0 0 1-.521.326c.323 1.244.952 2.502 1.485 3.451.133.238.252.453.365.643.134.221.271.443.357.576h3.004c.617 0 1.121.504 1.121 1.119 0 .621-.504 1.123-1.121 1.123H73.402c-.154 0-.301-.029-.436-.086a1.123 1.123 0 0 1-.683-1.035v-.002a1.12 1.12 0 0 1 1.119-1.119h3.001c.343-.525 1.134-1.809 1.718-3.229.195-.473.366-.961.492-1.441-.538-.207-.908-.611-.908-1.08h-.801a.671.671 0 0 1-.654-.824h-.365a.677.677 0 0 1-.675-.67c0-.223.111-.414.275-.539-.28-.07-.527-.238-.759-.443a3.451 3.451 0 0 1-.737-.938 7.347 7.347 0 0 1-.369-.799c-.187-.035-.347-.115-.521-.172-.217-.068-.442-.117-.644-.209-2.837-1.303-3.969-5.047-4.42-7.977-.039-.258-.074-.51-.104-.752-.217-1.75-.2-3.053-.2-3.053H91.111v.15c.002.295-.011 1-.09 1.92zm-41.804 28.486l.364 1.119 1.23 3.783v.002l-4.292-3.119-1.943-1.412h-.002l-4.751 3.453-1.483 1.076.67-2.062 1.713-5.268-3.172-2.303-3.064-2.227h.002l-.002-.002h7.708l.303-.93.226-.693.332-1.023.332-1.025.054-.162.065-.201 1.069-3.293v-.002.002h.002l2.288 7.045.093.285h7.708l-5.615 4.078-.125.09-.096.07-.399.291.785 2.428zM119 97.264c-.207.037-.412.094-.619.135a73.077 73.077 0 0 0-1.859.414l-.074.018c-.055.012-.109.021-.166.035-12.911 3.117-26.569 10.43-39.887 17.566-1.355.727-2.693 1.439-4.036 2.152-1.342.717-2.676 1.416-4.005 2.115-1.33.693-2.661 1.398-3.978 2.068l-.056.031-.115.059c-.05.023-.102.049-.149.078-.62.314-1.234.617-1.85.928-.208.104-.418.205-.625.311-3.184 1.578-6.324 3.053-9.407 4.357-.167.07-.332.141-.499.213l-.267.113c-7.97 3.312-15.586 5.479-22.727 5.479v-1.627h.002c6.586 0 13.656-1.943 21.075-4.945 1.212-.486 2.44-1.029 3.667-1.568a173.719 173.719 0 0 0 6.903-3.213c.393-.193.79-.393 1.184-.592.197-.098.395-.195.592-.295.023-.014.047-.023.071-.035l.072-.039c.056-.025.113-.053.169-.082 4.079-2.061 8.239-4.281 12.455-6.539.253-.137.503-.266.757-.402.442-.236.887-.475 1.332-.711 11.593-6.211 23.418-12.441 34.848-15.881a74.968 74.968 0 0 1 5.059-1.338c.023-.006.051-.01.076-.016.027-.006.055-.012.08-.02.049-.008.096-.02.143-.031.58-.125 1.158-.266 1.736-.377.199-.037.395-.059.592-.098.615-.111 1.223-.168 1.834-.26 2.361-.354 4.707-.596 7.012-.596v1.627c-3.053.001-6.172.343-9.34.966z"/><path fill="#F7D195" d="M70.915 84.695h-1.801c.035.574.1 1.24.202 1.943.323 2.266 1.039 4.947 2.507 6.441a3.92 3.92 0 0 0 1.329.906c-.75-3.055-.85-7.188-.846-9.291h-1.391zM87.025 93.08c1.541-1.566 2.246-4.438 2.548-6.762.007-.057.018-.117.024-.176.061-.515.112-1.013.139-1.447h-3.192c0 .785-.011 1.855-.067 3.045-.089 1.879-.291 4.049-.709 5.895-.026.115-.043.24-.072.352.256-.104.502-.242.733-.404.208-.145.407-.312.596-.503z"/><path fill="#338470" d="M93.021 47.75a39.328 39.328 0 0 0-11.262-2.521c.078.442.25.945.503 1.435.384.734.952 1.434 1.673 1.84.717.407 1.587.521 2.566.081.144.481.227.918.256 1.314.15 1.921-.914 2.848-2.074 2.953a2.51 2.51 0 0 1-1.501-.322c.075.433.222.803.366 1.171.045.114.062.256.115.363.128.27.311.48.475.711.115.16.201.352.332.494 1.895 2.081 5.354 2.184 8.037.354a5.06 5.06 0 0 0 .761-.59c.849-.777 1.436-1.824 1.585-2.962.192-1.441-.307-3.011-1.832-4.321zM68.885 48.259c-.939-.268-1.56-.548-1.941-1.341a39.567 39.567 0 0 0-11.331 5.701c.373 1.257 1.327 2.369 2.62 3.011.911.482 1.822.649 2.674.584.64-.049 1.223-.261 1.77-.536 1.637-.826 2.761-2.481 2.648-4.077h.002c.215.107.436.164.662.177.161.01.321-.027.479-.059 1.406-.282 2.716-2.039 2.417-3.46zM39.281 88.389c.562-.127 1.125-.287 1.689-.43a88.326 88.326 0 0 0 8.601-2.68 117.78 117.78 0 0 0 4.281-1.66c.013-.032.028-.062.039-.09-.599-.113-1.004-.446-1.171-.951-.165-.507-.091-1.186.277-1.994H53c.187.186.427.275.705.285 1.674.061 4.706-2.723 5.845-4.158.191-.239.327-.441.397-.586a1.974 1.974 0 0 1-.679.121c-.217 0-.418-.043-.603-.123-.371-.163-.672-.48-.868-.936 1.833.227 5.86-8.756 1.069-9.208-1.301 3.824-1.896 7.997-4.606 10.594-.872.917-3.795 2.401-6.627 2.34a6.976 6.976 0 0 1-1.397-.17 5.554 5.554 0 0 1-1.323-.487c.202-.028.41-.097.62-.198 3.167-1.533 7.144-10.807 5.562-12.356-1.55 2.626-2.856 4.679-4.001 6.329-1.908 2.748-3.368 4.379-4.773 5.679-.631.577-1.629 1.215-2.837 1.733a39.797 39.797 0 0 0-.371 5.357c.001 1.212.061 2.405.168 3.589zM78.807 124.496c2.804 0 5.536-.295 8.178-.85 8.727-1.836 16.4-6.549 21.994-13.092a40.096 40.096 0 0 0 4.168-5.879c-7.611 2.324-16.309 5.633-23.104 8.361-6.743 2.709-11.603 4.84-11.688 4.877l-.014.006c-1.727.918-3.453 1.809-5.181 2.719-1.572.826-3.145 1.67-4.719 2.475a39.531 39.531 0 0 0 10.366 1.383zM91.115 83.352H67.736s-.02 1.303.197 3.053c.03.242.065.494.104.752.451 2.93 1.583 6.674 4.42 7.977.202.092.427.141.644.209.173.057.334.137.521.17v.002c.115.289.236.557.369.799.217.393.466.695.737.938.232.205.479.373.759.443a.67.67 0 0 0 .399 1.209h.365a.671.671 0 0 0 .654.824h.801c0 .469.37.871.908 1.08-.126.48-.297.969-.492 1.441-.584 1.42-1.375 2.703-1.718 3.229h-3.001a1.123 1.123 0 1 0-.436 2.156c.135.057.282.086.436.086H85.45a1.12 1.12 0 0 0 0-2.242h-3.004a20.832 20.832 0 0 1-.357-.576c-.113-.189-.232-.404-.365-.643-.535-.949-1.164-2.207-1.487-3.451.206-.08.378-.195.522-.326.234-.207.387-.467.387-.754h.8c.224 0 .395-.125.517-.291.082-.113.158-.232.158-.383 0-.004-.003-.006-.003-.008a.582.582 0 0 0-.017-.143h.363a.673.673 0 0 0 .675-.67.679.679 0 0 0-.272-.539c.344-.088.644-.307.919-.598.366-.389.683-.92.943-1.584 1.104-.207 2.001-.738 2.729-1.471 2.189-2.195 2.859-6.186 3.064-8.619.078-.92.092-1.625.094-1.92l-.001-.15zM71.823 93.08c-1.468-1.494-2.184-4.176-2.507-6.441a23.81 23.81 0 0 1-.202-1.943H72.306c-.004 2.104.096 6.236.846 9.291a3.938 3.938 0 0 1-1.329-.907zm13.872.906c.029-.111.046-.236.072-.352.416-1.846.617-4.016.707-5.895.057-1.191.069-2.259.066-3.045h3.197c-.028.434-.078.93-.141 1.449-.007.057-.018.117-.024.174-.302 2.324-1.007 5.195-2.548 6.762a4.283 4.283 0 0 1-.597.502c-.23.165-.476.304-.732.405z"/><path fill="#B54624" d="M128.338 94.672c-2.305 0-4.65.242-7.012.596-.611.092-1.219.15-1.834.262-.197.035-.393.059-.59.098-.58.111-1.158.248-1.738.377-.049.012-.094.02-.145.031l-.078.018c-.025.006-.053.01-.076.016a75.126 75.126 0 0 0-5.059 1.338c-11.43 3.441-23.255 9.67-34.848 15.881-.445.236-.89.475-1.332.711-.254.137-.503.266-.757.402-4.214 2.258-8.373 4.479-12.455 6.539-.054.025-.113.057-.169.084-.024.014-.048.025-.072.037s-.048.021-.071.035c-.198.1-.395.197-.592.295-.395.199-.789.398-1.182.594a172.933 172.933 0 0 1-6.905 3.211c-1.227.539-2.455 1.082-3.667 1.568-7.419 3.002-14.489 4.945-21.075 4.945v1.625c7.139 0 14.753-2.168 22.725-5.477l.267-.113c.167-.072.332-.143.499-.213 3.083-1.305 6.224-2.779 9.407-4.357.206-.105.417-.207.625-.311.616-.311 1.23-.613 1.85-.928.048-.029.1-.055.149-.078l.115-.059.056-.031c1.316-.67 2.648-1.375 3.978-2.068 1.329-.699 2.663-1.398 4.005-2.115 1.342-.713 2.68-1.428 4.036-2.152 13.315-7.135 26.974-14.451 39.887-17.566l.166-.035.074-.018a68.692 68.692 0 0 1 1.859-.414c.207-.041.412-.098.619-.135 3.168-.623 6.287-.965 9.338-.965v-1.628zM37.971 94.922c.176-.039.354-.078.527-.121.509-.115 1.015-.225 1.526-.354.042-.016.084-.025.126-.039.045-.01.091-.025.137-.035 4.699-1.23 9.555-3.076 14.542-5.312 6.961-3.117 14.174-6.981 21.565-10.943 7.584-4.065 15.275-8.185 22.879-11.558l.711-.311c2.014-.882 4.02-1.71 6.014-2.467.326-.123.645-.233.965-.352a96.448 96.448 0 0 1 4.285-1.463l.15-.048.121-.038a83.314 83.314 0 0 1 1.578-.482c.188-.053.371-.098.559-.151.314-.089.629-.173.941-.257a67.08 67.08 0 0 1 3.189-.773 56.601 56.601 0 0 1 5.248-.886c1.785-.213 3.557-.345 5.301-.345V57.36a47.54 47.54 0 0 0-6.223.43 62.148 62.148 0 0 0-6.859 1.337c-.793.201-1.59.42-2.387.648-.074.021-.145.038-.217.058-.186.054-.369.105-.553.161-.529.157-1.064.333-1.592.504-.043.013-.084.024-.125.038-.049.017-.102.033-.153.049a98.832 98.832 0 0 0-4.665 1.623c-.078.028-.156.062-.236.093a129.543 129.543 0 0 0-5.504 2.26c-6.814 2.952-13.686 6.511-20.496 10.146-1.233.66-2.467 1.32-3.697 1.98-7.321 3.924-14.467 7.75-21.341 10.838a120.284 120.284 0 0 1-6.131 2.551c-2.797 1.076-5.549 2.01-8.236 2.715a4.1 4.1 0 0 0-.137.039c-.041.01-.084.023-.125.035-.514.131-1.017.24-1.525.355-.175.039-.354.082-.529.119-3.058.668-6.038 1.055-8.924 1.055v1.629c.11 0 .223-.012.332-.012 2.908-.029 5.901-.421 8.959-1.089zM65.445 126.938l-.624 1.921h-2.019l1.026.743.609.441-.341 1.045-.284.875.002-.002 1.631-1.184 1.631 1.186v-.002l-.622-1.918 1.632-1.184H66.07zM80.877 131.539l1.245-.902h-2.017l-.625-1.92-.625 1.92H76.84l.965.703.668.482-.313.961-.312.959.817-.594.815-.593.473.341 1.158.842.002.004-.312-.959-.313-.961zM94.561 127.6l-.624-1.92-.621 1.92H91.297l.003.002 1.628 1.183-.622 1.918 1.631-1.183 1.633 1.183-.623-1.918 1.631-1.183.002-.002zM108.462 121.686l.388-.282h-2.019l-.624-1.922-.625 1.922h-2.017.002l1.631 1.186-.624 1.92 1.633-1.188 1.633 1.188-.087-.27-.538-1.65zM118.809 110.592h-2.018l-.621-1.92v.002l-.623 1.918h-2.022l1.635 1.187-.623 1.918 1.633-1.185 1.631 1.185-.625-1.918z"/><path fill="#E5B92E" d="M134.654 64.484c4.338.557 7.633-2.481 8.799-10.771-.979 3.058-6.855 3.157-13.42 1.92v8.23c1.643.307 3.199.519 4.621.621z"/><path fill="#E5B92E" d="M145.6 40.689c-2.268 2.278-4.312 3.397-10.758 3.397-3.398 0-20.764-1.119-23.574-3.891 11.623.517 28.471 1.241 32.988-2.603 3.672-3.129 1.506-8.111.494-13.438-2.107 7.771-6.381 6.683-41.211 9.576 5.381-2.84 3.062-5.974-3.191-6.513.94 4.479-1.395 7.155-3.917 9.664v.001c-1.158 1.152-2.353 2.271-3.288 3.514-.861 1.145-1.479 2.406-1.665 3.886-.015.127-.05.244-.059.373v.001a6.96 6.96 0 0 0-.022.564c.003.483.055.99.159 1.525.241.129.462.269.675.413l.004.002c.135.085.26.177.381.27.142.103.28.207.406.315 1.527 1.31 2.023 2.882 1.832 4.321-.149 1.139-.736 2.185-1.585 2.962a4.968 4.968 0 0 1-.761.591c-2.684 1.831-6.143 1.727-8.037-.354-.131-.142-.217-.334-.332-.494-.164-.231-.347-.441-.475-.711-.053-.107-.07-.25-.115-.363-.145-.369-.291-.738-.366-1.171.455.267.986.37 1.501.322 1.16-.106 2.225-1.032 2.074-2.953a6.18 6.18 0 0 0-.256-1.314c-.979.44-1.85.326-2.566-.081-.721-.406-1.291-1.106-1.673-1.84a5.156 5.156 0 0 1-.503-1.435l-.02-.138c-.004-.047-.016-.096-.02-.138-.021-.263-.009-.494.05-.673.87.711 1.865.362 2.214-.68.037-.115.076-.232.096-.365-.096-.059-.178-.13-.265-.202l-.002-.001c-.438-.356-.778-.878-1.067-1.521-.487-1.084-.839-2.517-1.277-4.055-.34-1.19-.73-2.443-1.297-3.664v-.001a13.968 13.968 0 0 0-.609-1.185c1.41.006 3.466-.71 2.807-4.208-1.119.835-3.695.421-6.059-.57-3.054-1.227-9.293-4.451-9.135-1.171-5.133-2.609-6.116-1.865-6.044 2.774 2.457-1.228 7.51 2.434 7.684 3.52-3.722-2-6.489-1.714-8.347-1.745-.809-.029-2.967-.01-3.821-2.097-.87 2.877.354 5.539 1.915 5.292 1.03-.216 2.657-1.333 4.279-1.466 2.351-.227 5.51-.227 6.083.213-.722 2.969-4.331 1.446-5.133.666-.434.917-.284 1.61.167 2.143.332.389.831.688 1.377.93.733.325 1.546.544 2.199.71.321.081.607.153.813.217.551.362.889 1.066 1.047 1.896.052.276.087.567.102.864.059 1.188-.18 2.473-.633 3.348a2.548 2.548 0 0 1-.49.672 1.265 1.265 0 0 1-.525.323 1.053 1.053 0 0 1-.599-.003 1.769 1.769 0 0 1-.655-.376l-.002-.001c-.037-.029-.069-.042-.104-.078v.002c.002.039.006.068.009.104.009.201.026.374.041.551.02.217.05.396.081.581.028.187.062.359.1.516.039.157.076.321.124.451.015.04.024.087.039.122.017.049.041.087.065.131.379.792 1.002 1.073 1.941 1.341.299 1.42-1.01 3.178-2.42 3.461-.159.031-.319.068-.479.059a1.672 1.672 0 0 1-.662-.177h-.002c.113 1.596-1.011 3.251-2.648 4.077-.546.275-1.13.487-1.77.536-.852.065-1.763-.102-2.674-.584-1.292-.642-2.247-1.754-2.62-3.011-.015-.054-.026-.107-.042-.161-.008-.04-.024-.082-.032-.123a3.953 3.953 0 0 1 .058-1.963v-.001c.086-.3.212-.594.377-.885l.002-.002c.56-.99 1.57-1.917 3.17-2.638.084-.43.134-.842.152-1.238.004-.079-.009-.15-.006-.229.03-2.028-.761-3.638-1.896-5.084a19.066 19.066 0 0 0-1.121-1.301c-3.036-3.217-7.109-5.996-5.92-11.684-6.256.54-8.575 3.678-3.194 6.514-34.829-2.888-39.101-1.79-41.206-9.567-1.015 5.333-3.182 10.309.49 13.436 4.518 3.841 21.366 3.119 32.987 2.593-2.811 2.783-20.173 3.897-23.569 3.897-6.449 0-8.492-1.115-10.763-3.397-1.124 3.866.826 11.394 4.758 11.943 7.208-.098 18.208-2.229 30.129-4.435-4.769 4.69-30.589 12.246-32.736 5.51 1.162 8.29 4.458 11.339 8.796 10.779 5.15-.371 12.068-2.163 18.32-4.881a56.889 56.889 0 0 0 3.637-1.728 44.736 44.736 0 0 0 3.359-1.925c0 1.386-3.969 4.485-8.839 7.228-6.703 3.771-15.118 6.862-17.295 3.864 1.544 6.853 3.5 9.494 6.992 9.183 2.138-.187 4.353-.908 6.625-2.015 4.042-1.963 8.267-5.158 12.593-8.809.377-.318.753-.638 1.132-.961v-.001c.987-.847 1.98-1.712 2.978-2.59l.004-.003c-.659 2.045-2.262 4.466-4.303 6.759-.405.458-.824.911-1.262 1.353l-.004.004c-.295.298-.59.593-.896.883-3.468 3.257-7.583 5.791-10.693 5.833-.284.004-.568.009-.835-.031.234.299.477.559.722.814 1.995 2.097 4.326 2.855 6.542 2.873a10.81 10.81 0 0 0 2.158-.208h.002c.191-.038.375-.087.562-.134.579-.143 1.13-.322 1.648-.527.047-.021.095-.039.141-.059l.147-.059c1.208-.519 2.206-1.156 2.837-1.733 1.405-1.3 2.865-2.931 4.773-5.679 1.145-1.65 2.451-3.703 4.001-6.329 1.583 1.549-2.396 10.823-5.562 12.356-.21.102-.418.17-.62.198.421.222.865.38 1.323.487.458.105.926.158 1.397.17 2.832.062 5.753-1.423 6.627-2.342 2.709-2.596 3.303-6.768 4.606-10.592 4.791.451.763 9.434-1.069 9.208.195.455.497.772.868.936a1.5 1.5 0 0 0 .603.123c.215.002.442-.037.679-.121-.07.145-.206.347-.397.586-1.139 1.436-4.17 4.219-5.845 4.158-.277-.01-.518-.098-.705-.285h-.002c-.369.809-.442 1.487-.277 1.994.167.505.577.838 1.173.951-.011.027-.03.058-.042.09 3.934-1.621 7.866-3.474 11.8-5.436 14.028-7.001 28.058-15.478 42.089-20.52.052-.02.105-.035.158-.056.041-.013.082-.026.123-.042.538-.191 1.08-.375 1.62-.558.05-.015.096-.032.146-.049v-.001c-.291-.396-.453-.743-.453-1.02.037.025.078.046.113.071l.002.001c.366.231.739.457 1.117.68l.002.001a79.248 79.248 0 0 1 4.453-1.306c.047-.012.092-.027.137-.039a71.778 71.778 0 0 1 4.59-1.037 64.19 64.19 0 0 1 3.012-.49l-.002-.001a66.797 66.797 0 0 1-4.691-1.636c-2.104-.826-3.957-1.698-5.357-2.537-.842-.503-1.52-.996-1.99-1.46l-.002-.001a3563.066 3563.066 0 0 1 4.482.837h.004c10.158 1.89 19.346 3.53 25.639 3.606 3.936-.548 5.88-8.087 4.757-11.936zM44.574 108.285V99.621l-1.069 3.293-.065.201-.054.162-.332 1.026-.332 1.023-.225.694-.302.929h-7.709l.002.002 3.062 2.223 3.173 2.306-1.713 5.268-.671 2.063 1.484-1.077 4.751-3.453v-5.06zM114.791 68.067V66.58l-.168.513-.025.083-.028.084-.064.197-2.094 6.451H104.701l2.445 1.775 2.444 1.774.449.326.9.656-2.381 7.329v.002l6.233-4.532V75.882z"/><path fill="#C19721" d="M48.925 111.119l.123-.09 5.617-4.078h-7.707l-.094-.285-2.287-7.045h-.003v14.66h.003l1.943 1.412 4.292 3.119v-.001l-1.23-3.784-.365-1.117-.787-2.43.399-.291zM118.883 73.908h-1.709l-.166-.508-1.18-3.636-.908-2.796-.127-.39v14.66l1.846 1.34 1.841 1.339.071.051.066.051.137.1 1.574 1.143.531.387.168.121v-.002l-.078-.241-.078-.242-.092-.279-.47-1.449-1.664-5.118.001-.002.379-.275.69-.501.486-.352 4.531-3.294.047-.033.104-.074H119.443z"/><path fill="#FFDE5D" d="M64.057 14.15c.31 1.866.568 8.846.568 8.846h8.182v-11.93c-.006 0-.013 0-.021-.002-1.375 3.842-2.24 7.705-2.24 7.705-.529-1.983-1.841-5.032-2.216-5.887l-.093.009c.013 2.098-.987 6.193-.987 6.193-.603-1.759-3.064-4.785-3.184-4.935H64.057z"/><path fill="#FF6427" d="M68.917 12.162a.73.73 0 1 0-1.463 0c0 .405.328.733.733.733.015 0 .03-.004.047-.004.03-.002.065-.004.096-.009a.732.732 0 0 0 .587-.72zM63.899 14.169a.575.575 0 0 0 .158-.02h.002l-.002-.006c0 .003.002.005.002.005h.002l.002.001a.73.73 0 0 0 .568-.713.732.732 0 1 0-1.464 0 .734.734 0 0 0 .732.733z"/><path fill="#E5B92E" d="M72.832 11.063v.001-.001zM72.821 11.065a.03.03 0 0 1-.011.002v11.929h8.182s.26-7 .566-8.854c0 0-2.574 3.138-3.19 4.941 0 0-1-4.094-.985-6.195a.513.513 0 0 1-.07-.01c-.01 0-.016 0-.024-.002v.001c-.371.849-1.685 3.905-2.216 5.89 0 0-.863-3.862-2.24-7.704l-.012.002z"/><path fill="#FF6427" d="M72.821 11.065l.011-.001v-.001c-.006-.021-.018-.039-.024-.062h.002c.006.023.015.042.021.062v.001a.734.734 0 0 0 .711-.731.735.735 0 0 0-1.468 0c0 .398.316.72.711.731.008.002.015.002.021.002l.015-.001zM77.288 12.877c.065-.143.1-.228.1-.228v.006l-.098.222c.007.002.015.001.022.002.023.004.045.008.07.01.024.002.047.007.068.007a.733.733 0 1 0-.733-.733.738.738 0 0 0 .571.714zM81.854 14.168a.733.733 0 1 0-.736-.733.73.73 0 0 0 .736.733z"/></svg>