<svg xmlns="http://www.w3.org/2000/svg" width="150" height="150" viewBox="0 0 150 150"><path fill="#FBBB21" d="M73.868 33.289c-23.931 0-43.329 19.4-43.329 43.329 0 23.931 19.398 43.329 43.329 43.329s43.329-19.398 43.329-43.329c-.001-23.93-19.398-43.329-43.329-43.329m16.339 75.809c-4.727 2.714-10.164 4.28-15.918 4.28-9.191 0-17.583-3.988-23.536-10.295-7.582-5.88-12.569-15-12.733-25.126a31.377 31.377 0 0 1-.362-4.674c0-14.603 10.059-27.204 23.52-31.172a31.781 31.781 0 0 1 12.766-2.686c13.839 0 25.886 9.031 30.485 21.429 3.643 5.242 5.799 11.568 5.799 18.321 0 13.31-8.353 24.961-20.021 29.923"/><path fill="#587477" d="M26.232 76.309c0-18.371 10.281-34.34 25.401-42.469H20.369c-7.898 0-14.3 6.402-14.3 14.3v56.341c0 7.898 6.402 14.3 14.3 14.3h31.264c-15.12-8.133-25.401-24.098-25.401-42.472M128.477 33.838H97.209c15.124 8.131 25.404 24.1 25.404 42.47 0 18.373-10.28 34.342-25.404 42.472h31.268c7.898 0 14.3-6.401 14.3-14.3V48.138c-.001-7.896-6.402-14.3-14.3-14.3M36.908 31.837v-2.489a3.375 3.375 0 0 0-3.375-3.375H24.17a3.374 3.374 0 0 0-3.375 3.375v2.489h16.113z"/><path fill="#FBBB21" d="M135.475 45.155a1.815 1.815 0 0 1-1.815 1.817h-9.802a1.817 1.817 0 0 1-1.817-1.817v-3.113c0-1.004.814-1.816 1.817-1.816h9.802c1.003 0 1.815.812 1.815 1.816v3.113z"/><path fill="#1B3142" d="M73.87 36.476c-22.169 0-40.14 17.973-40.14 40.141 0 22.169 17.971 40.139 40.14 40.139 22.167 0 40.138-17.97 40.138-40.139 0-22.168-17.971-40.141-40.138-40.141M49.493 70.418l10.065 3.302 4.272 13.157-6.574 8.568-14.108-2.102a.96.96 0 0 0-.251-.002 36.003 36.003 0 0 1-1.454-3.029 34.781 34.781 0 0 1-2.588-10.153c.07-.039.138-.082.199-.137l10.439-9.604zm-1.76-17.362a35.192 35.192 0 0 1 11.868-8.614.982.982 0 0 0 .197.149l12.351 6.916v10.917l-11.204 8.14-10.41-3.423-2.726-13.86a.977.977 0 0 0-.076-.225M66.171 89.47h15.394l6.266 8.163-5.499 12.927a.897.897 0 0 0-.065.238 35.187 35.187 0 0 1-8.396 1.006 35.17 35.17 0 0 1-8.397-1.006.983.983 0 0 0-.066-.238l-5.499-12.927 6.262-8.163zm9.413-37.964l12.354-6.916a.817.817 0 0 0 .197-.149 35.132 35.132 0 0 1 10.615 7.294c.43.43.85.867 1.254 1.32a1.015 1.015 0 0 0-.078.225l-2.723 13.86-10.41 3.423-11.209-8.14V51.506zm8.322 35.372l4.271-13.157 10.066-3.302 10.439 9.605c.061.055.128.098.199.137a34.816 34.816 0 0 1-2.59 10.153 35.994 35.994 0 0 1-1.453 3.029.945.945 0 0 0-.249.002l-14.108 2.102-6.575-8.569z"/></svg>