<svg xmlns="http://www.w3.org/2000/svg" width="150" height="150" viewBox="0 0 150 150"><circle fill="none" cx="99.14" cy="14.73" r="3.001"/><path fill="none" d="M112.316 25.801a3 3 0 1 0 2.998-5.196 3 3 0 0 0-2.998 5.196zM25.407 112.711a3.003 3.003 0 0 0-4.1-1.101 2.999 2.999 0 0 0-1.099 4.1 3.003 3.003 0 0 0 4.099 1.105 3.008 3.008 0 0 0 1.1-4.104zM72.285 64.296l-5.083 4.911a4.246 4.246 0 0 0-1.021 4.521l5.092 13.598a4.235 4.235 0 0 0 3.489 2.72c.642.075 1.308 0 1.957-.244a4.22 4.22 0 0 0 2.471-5.439L75.075 73.36s7.104-6.878 9.481-9.168c2.667-2.567 3.438-8.305-.382-11.919l-13.652-12.89c-4.508-4.25-11.72-2.307-13.86 3.698-1.231 3.443-5.585 13.518-5.585 13.518l-9.878-1.614c-2.388-.397-4.473 1.188-4.852 3.491a4.23 4.23 0 0 0 3.491 4.851l13.394 2.185a4.227 4.227 0 0 0 4.377-2.588l3.705-8.974 10.971 10.346z"/><path fill="none" d="M83.023 70a2.83 2.83 0 0 0 0 3.985l4.35 4.341c-2.115 2.764-3.52 6.097-3.905 9.738-.57.521-.947 1.244-.947 2.076 0 .83.377 1.56.947 2.075 1.038 9.788 9.316 17.414 19.381 17.414 10.763 0 19.483-8.728 19.483-19.489 0-10.764-8.721-19.491-19.483-19.491-4.284 0-8.233 1.4-11.446 3.742L87.008 70a2.813 2.813 0 0 0-3.985 0zm19.826 5.35c8.164 0 14.786 6.621 14.786 14.79 0 8.172-6.622 14.793-14.786 14.793-7.205 0-13.196-5.153-14.512-11.975h10.579c.886 1.227 2.306 2.028 3.933 2.028a4.841 4.841 0 0 0 4.839-4.847 4.845 4.845 0 0 0-4.839-4.846c-.174 0-.327.037-.489.053l-7.583-7.581a14.708 14.708 0 0 1 8.072-2.415zm-12.12 6.338l5.635 5.637h-8.029a14.716 14.716 0 0 1 2.394-5.637z"/><circle fill="none" cx="14.334" cy="99.535" r="3.004"/><path fill="none" d="M50.965 132.063a3.001 3.001 0 0 0-4.101 1.102 3 3 0 1 0 5.198 2.998 3 3 0 0 0-1.097-4.1zM36.289 123.592a3.004 3.004 0 0 0-3.005 5.201 3.002 3.002 0 0 0 4.103-1.099 3.001 3.001 0 0 0-1.098-4.102zM12.833 52.457a2.997 2.997 0 0 0 4.1-1.097 3.001 3.001 0 1 0-5.199-3.001 2.996 2.996 0 0 0 1.099 4.098zM21.307 37.785a3.001 3.001 0 1 0 2.999-5.201 2.996 2.996 0 0 0-4.097 1.097 2.999 2.999 0 0 0 1.098 4.104zM50.964 17.329a3.001 3.001 0 1 0-3.003-5.199 3.001 3.001 0 1 0 3.003 5.199zM12.95 83.168a3.002 3.002 0 1 0-3.003 3.004 3.003 3.003 0 0 0 3.003-3.004zM65.829 13.348a3.003 3.003 0 0 0 0-6.005 3 3 0 0 0-3.001 3 3 3 0 0 0 3.001 3.005zM82.774 13.348a3.003 3.003 0 0 0 0-6.005c-1.658 0-3 1.346-3 3a3.002 3.002 0 0 0 3 3.005zM9.947 69.228a3.003 3.003 0 0 0 0-6.005 3.003 3.003 0 0 0 0 6.005zM135.774 52.457a3.006 3.006 0 0 0 1.099-4.097 3.007 3.007 0 0 0-4.102-1.101 3 3 0 1 0 3.003 5.198z"/><circle fill="none" cx="138.653" cy="83.169" r="3.002"/><path fill="none" d="M135.771 96.937a3 3 0 0 0-4.1 1.099 3 3 0 0 0 1.095 4.099 3 3 0 0 0 4.107-1.099 3.005 3.005 0 0 0-1.102-4.099z"/><circle fill="none" cx="65.829" cy="139.049" r="3.003"/><circle fill="none" cx="138.653" cy="66.225" r="3.002"/><path fill="none" d="M127.298 111.61a3.007 3.007 0 0 0-4.104 1.099 3.009 3.009 0 0 0 1.1 4.104 2.997 2.997 0 0 0 4.098-1.101 2.997 2.997 0 0 0-1.094-4.102zM36.288 25.801a2.995 2.995 0 0 0 1.1-4.099 3 3 0 0 0-4.103-1.097 3.002 3.002 0 0 0-1.099 4.102 2.998 2.998 0 0 0 4.102 1.094zM123.194 36.684a3.011 3.011 0 0 0 4.104 1.103 3.003 3.003 0 0 0 1.094-4.106 3 3 0 0 0-4.098-1.097 3.004 3.004 0 0 0-1.1 4.1z"/><circle fill="none" cx="82.774" cy="139.049" r="3.003"/><path fill="none" d="M97.638 132.063a3.002 3.002 0 0 0-1.098 4.099 2.996 2.996 0 0 0 4.1 1.103 3.002 3.002 0 0 0 1.1-4.103 3 3 0 0 0-4.102-1.099zM112.316 123.594a3 3 0 1 0 3 5.196 3 3 0 1 0-3-5.196z"/><path fill="#4BB797" d="M55.939 17.044c.78-.508 1.622-.951 2.591-1.208.967-.26 1.915-.294 2.842-.246a6.868 6.868 0 0 1-2.428-5.244c0-.814.143-1.589.399-2.312-.775.509-1.613.949-2.582 1.207-.966.257-1.912.296-2.838.246a6.819 6.819 0 0 1 1.5 1.801 6.856 6.856 0 0 1 .516 5.756z"/><path fill="#4BB797" d="M65.829 15.963c2.762 0 5.216-2.205 8.472-2.205 3.257 0 5.712 2.205 8.474 2.205a5.617 5.617 0 1 0 0-11.236c-2.762 0-5.217 2.203-8.474 2.203-3.256 0-5.71-2.203-8.472-2.203a5.614 5.614 0 0 0-5.617 5.615 5.618 5.618 0 0 0 5.617 5.621zm16.945-8.621a3.003 3.003 0 0 1 0 6.005c-1.658 0-3-1.345-3-3.005 0-1.654 1.342-3 3-3zm-16.945 0a3.003 3.003 0 0 1 0 6.005 3.001 3.001 0 0 1-3.001-3.005 3 3 0 0 1 3.001-3zM139.512 54.319a7.007 7.007 0 0 1-1.798 1.502 6.877 6.877 0 0 1-5.763.513c.514.782.95 1.621 1.211 2.592.261.967.301 1.913.248 2.843a6.878 6.878 0 0 1 7.556-2.032c-.509-.775-.949-1.614-1.206-2.581-.26-.965-.296-1.909-.248-2.837zM115.05 29.969c.827.422 1.631.928 2.342 1.639.711.712 1.217 1.514 1.637 2.342a6.872 6.872 0 0 1 5.526-5.538c-.828-.42-1.627-.926-2.334-1.633-.709-.707-1.21-1.512-1.633-2.339a7.073 7.073 0 0 1-.81 2.207 6.863 6.863 0 0 1-4.728 3.322z"/><path fill="#4BB797" d="M120.934 37.994c1.378 2.387 4.514 3.413 6.141 6.236 1.631 2.818.949 6.047 2.331 8.438a5.62 5.62 0 0 0 7.674 2.057 5.624 5.624 0 0 0 2.056-7.672c-1.381-2.394-4.517-3.416-6.141-6.235-1.633-2.823-.951-6.049-2.332-8.443a5.622 5.622 0 0 0-7.676-2.055 5.62 5.62 0 0 0-2.053 7.674zm11.837 9.264a3.007 3.007 0 0 1 4.102 1.101 3.006 3.006 0 0 1-1.099 4.097 3 3 0 0 1-4.104-1.097 3 3 0 0 1 1.101-4.101zm-8.477-14.674a3 3 0 0 1 4.098 1.097 3.003 3.003 0 0 1-1.094 4.106 3.013 3.013 0 0 1-4.104-1.103 3.004 3.004 0 0 1 1.1-4.1zM87.232 15.587c.925-.045 1.872-.011 2.84.249.971.26 1.812.7 2.587 1.208a6.886 6.886 0 0 1 .52-5.757 6.85 6.85 0 0 1 1.501-1.799c-.926.048-1.871.009-2.837-.249-.966-.258-1.807-.698-2.584-1.207.259.723.397 1.498.397 2.312a6.86 6.86 0 0 1-2.424 5.243zM37.596 28.065c2.393-1.379 3.415-4.51 6.238-6.142 2.82-1.626 6.044-.947 8.438-2.328a5.623 5.623 0 0 0 2.054-7.677 5.618 5.618 0 0 0-7.672-2.052c-2.393 1.382-3.416 4.512-6.238 6.142-2.82 1.628-6.044.949-8.438 2.328a5.621 5.621 0 0 0-2.056 7.672c1.552 2.686 4.989 3.612 7.674 2.057zM47.961 12.13a3.002 3.002 0 1 1 3.005 5.199 3.002 3.002 0 0 1-3.005-5.199zm-14.676 8.475a3 3 0 0 1 4.103 1.097 2.995 2.995 0 0 1-1.1 4.099 2.999 2.999 0 0 1-4.102-1.094 3.003 3.003 0 0 1 1.099-4.102z"/><path fill="#4BB797" d="M96.332 19.593c2.391 1.384 5.617.705 8.436 2.331 2.823 1.629 3.846 4.76 6.241 6.144 2.684 1.553 6.12.627 7.672-2.059a5.613 5.613 0 0 0-2.057-7.67c-2.389-1.381-5.615-.702-8.439-2.328-2.822-1.632-3.847-4.762-6.235-6.144a5.617 5.617 0 0 0-5.618 9.726zm14.885 2.109a2.995 2.995 0 0 1 4.098-1.097 3 3 0 1 1-2.998 5.196 2.998 2.998 0 0 1-1.1-4.099zM96.54 13.228a2.997 2.997 0 0 1 4.1-1.097 3 3 0 1 1-3 5.199 3.003 3.003 0 0 1-1.1-4.102zM92.659 132.352c-.774.505-1.616.947-2.587 1.207-.968.258-1.915.297-2.84.249a6.866 6.866 0 0 1 2.424 5.244c0 .809-.139 1.587-.397 2.312.777-.509 1.618-.948 2.58-1.208.97-.256 1.915-.297 2.841-.245a6.743 6.743 0 0 1-1.501-1.803 6.882 6.882 0 0 1-.52-5.756zM61.372 133.808c-.927.048-1.875.011-2.842-.249-.969-.262-1.812-.699-2.591-1.207a6.855 6.855 0 0 1-.517 5.756 6.694 6.694 0 0 1-1.5 1.801c.927-.05 1.872-.011 2.838.249.969.258 1.807.7 2.582 1.204a6.868 6.868 0 0 1 2.03-7.554zM119.03 115.445c-.422.834-.93 1.634-1.639 2.339-.709.712-1.516 1.222-2.34 1.644a6.843 6.843 0 0 1 4.725 3.326c.408.7.671 1.441.81 2.198.425-.83.928-1.628 1.637-2.335.707-.709 1.508-1.215 2.336-1.634a7.016 7.016 0 0 1-2.204-.812 6.852 6.852 0 0 1-3.325-4.726z"/><path fill="#4BB797" d="M82.774 133.436c-2.762 0-5.217 2.202-8.474 2.202-3.256 0-5.71-2.202-8.472-2.202a5.616 5.616 0 1 0 0 11.231c2.762 0 5.216-2.202 8.472-2.202 3.257 0 5.712 2.202 8.474 2.202a5.62 5.62 0 0 0 5.619-5.615 5.617 5.617 0 0 0-5.619-5.616zm-16.945 8.616a2.999 2.999 0 0 1-3.001-3 3.002 3.002 0 1 1 3.001 3zm16.945 0a3 3 0 0 1-3-3 3.002 3.002 0 0 1 3-3.006 3.004 3.004 0 0 1 0 6.006zM111.009 121.332c-2.394 1.377-3.416 4.51-6.239 6.14-2.82 1.626-6.047.948-8.438 2.328a5.618 5.618 0 0 0 5.617 9.733c2.389-1.386 3.412-4.516 6.235-6.146 2.824-1.628 6.047-.948 8.439-2.33a5.62 5.62 0 0 0 2.059-7.674 5.615 5.615 0 0 0-7.673-2.051zm-10.369 15.933a2.995 2.995 0 0 1-4.1-1.103 3.002 3.002 0 1 1 4.1 1.103zm14.676-8.476a3 3 0 0 1-3-5.196 3.001 3.001 0 1 1 3 5.196zM144.271 66.225a5.617 5.617 0 0 0-5.617-5.618 5.619 5.619 0 0 0-5.614 5.618c0 2.758 2.198 5.214 2.198 8.472 0 3.258-2.198 5.711-2.198 8.471a5.62 5.62 0 0 0 5.614 5.619 5.619 5.619 0 0 0 5.617-5.619c0-2.76-2.198-5.213-2.198-8.471-.001-3.258 2.198-5.714 2.198-8.472zm-5.618 19.947a3.004 3.004 0 0 1 0-6.005 3 3 0 0 1 3.001 3.001 3.002 3.002 0 0 1-3.001 3.004zm0-16.944a3.003 3.003 0 0 1 0-6.004 3.001 3.001 0 0 1 0 6.004z"/><path fill="#4BB797" d="M133.41 87.629c.053.926.013 1.874-.248 2.841-.261.969-.699 1.809-1.207 2.588a6.871 6.871 0 0 1 7.555 2.021c-.048-.926-.01-1.875.251-2.841.259-.967.697-1.806 1.204-2.584a6.798 6.798 0 0 1-2.31.404c-2.1 0-3.98-.947-5.245-2.429z"/><path fill="#4BB797" d="M137.079 94.672a5.618 5.618 0 0 0-7.674 2.057c-1.382 2.392-.7 5.618-2.331 8.44-1.627 2.82-4.763 3.842-6.141 6.238a5.614 5.614 0 1 0 9.727 5.61c1.382-2.389.701-5.61 2.332-8.438 1.626-2.818 4.762-3.845 6.143-6.233a5.624 5.624 0 0 0-2.056-7.674zm-8.687 21.04a2.997 2.997 0 0 1-4.098 1.101 3.008 3.008 0 0 1-1.1-4.104 3.006 3.006 0 0 1 4.104-1.099 2.997 2.997 0 0 1 1.094 4.102zm8.481-14.677a3 3 0 0 1-4.107 1.099 2.999 2.999 0 0 1-1.095-4.099 3 3 0 0 1 4.1-1.099 3.005 3.005 0 0 1 1.102 4.099zM15.565 83.168c0-2.76-2.202-5.213-2.202-8.471s2.202-5.711 2.202-8.475a5.616 5.616 0 0 0-11.233 0c0 2.763 2.202 5.216 2.202 8.475 0 3.258-2.202 5.711-2.202 8.471a5.618 5.618 0 1 0 11.233 0zM9.947 63.223a3.002 3.002 0 1 1 .001 6.005 3.002 3.002 0 0 1-.001-6.005zM6.946 83.168a3.002 3.002 0 1 1 6.003.005 3.002 3.002 0 0 1-6.003-.005z"/><path fill="#4BB797" d="M15.191 61.77c-.049-.928-.011-1.879.248-2.843.262-.971.704-1.81 1.209-2.592a6.876 6.876 0 0 1-5.757-.513 6.983 6.983 0 0 1-1.8-1.5c.049.926.009 1.87-.25 2.836-.26.967-.699 1.808-1.203 2.581a6.865 6.865 0 0 1 7.553 2.031zM29.573 33.95c.421-.828.929-1.63 1.638-2.342.711-.708 1.512-1.219 2.341-1.639a6.836 6.836 0 0 1-4.726-3.324 6.842 6.842 0 0 1-.81-2.205c-.421.83-.927 1.63-1.634 2.339-.708.709-1.509 1.213-2.338 1.633a6.866 6.866 0 0 1 5.529 5.538z"/><path fill="#4BB797" d="M11.523 54.723a5.618 5.618 0 0 0 7.674-2.057c1.383-2.387.704-5.618 2.333-8.436 1.626-2.823 4.761-3.849 6.14-6.238a5.616 5.616 0 0 0-2.054-7.67 5.615 5.615 0 0 0-7.674 2.052c-1.382 2.392-.701 5.618-2.327 8.44-1.63 2.822-4.763 3.844-6.146 6.238a5.615 5.615 0 0 0 2.054 7.671zm8.685-21.042a2.996 2.996 0 0 1 4.097-1.097 3.002 3.002 0 1 1-4.097 1.097zm-8.474 14.678a3.001 3.001 0 1 1 5.199 3.001 2.997 2.997 0 0 1-4.1 1.097 2.996 2.996 0 0 1-1.099-4.098zM52.271 129.8c-2.392-1.38-5.618-.7-8.438-2.328-2.823-1.633-3.843-4.763-6.238-6.143a5.62 5.62 0 0 0-7.674 2.053c-1.546 2.689-.628 6.126 2.059 7.672 2.392 1.384 5.616.704 8.438 2.332 2.82 1.632 3.845 4.764 6.236 6.145a5.62 5.62 0 0 0 7.674-2.059 5.622 5.622 0 0 0-2.057-7.672zm-14.884-2.107a3 3 0 1 1-5.2-2.999 3.001 3.001 0 0 1 5.2 2.999zm14.675 8.469a3 3 0 1 1-5.198-2.998 3 3 0 0 1 5.198 2.998zM9.09 95.078a6.885 6.885 0 0 1 1.8-1.505 6.878 6.878 0 0 1 5.761-.514c-.51-.781-.951-1.621-1.21-2.59-.261-.967-.298-1.917-.25-2.841a6.879 6.879 0 0 1-7.553 2.028c.504.777.945 1.614 1.204 2.581.261.966.298 1.915.248 2.841z"/><path fill="#4BB797" d="M33.553 119.426c-.831-.42-1.63-.928-2.344-1.644-.708-.703-1.214-1.506-1.635-2.34a6.872 6.872 0 0 1-5.529 5.539c.829.422 1.628.931 2.334 1.635.71.707 1.216 1.507 1.637 2.334a6.753 6.753 0 0 1 .808-2.195 6.863 6.863 0 0 1 4.729-3.329z"/><path fill="#4BB797" d="M27.668 111.405c-1.377-2.393-4.513-3.416-6.14-6.236-1.63-2.822-.951-6.047-2.333-8.442a5.619 5.619 0 0 0-9.729 5.62c1.382 2.391 4.516 3.415 6.145 6.233 1.63 2.825.948 6.047 2.328 8.438a5.616 5.616 0 0 0 9.729-5.613zm-11.832-9.268a3.004 3.004 0 1 1-3.005-5.203 3.006 3.006 0 0 1 4.101 1.102 3 3 0 0 1-1.096 4.101zm8.471 14.678a3.003 3.003 0 0 1-4.099-1.105 2.999 2.999 0 0 1 1.099-4.1 3.002 3.002 0 0 1 4.1 1.101 3.008 3.008 0 0 1-1.1 4.104z"/><path fill="#252326" d="M74.302 130.527c30.832 0 55.833-24.996 55.833-55.83s-25.001-55.83-55.833-55.83a55.637 55.637 0 0 0-23.73 5.29c3.228.851 5.879 3.424 6.647 6.904 1.1 4.961-2.034 9.875-6.993 10.969-4.959 1.101-9.876-2.03-10.97-6.991a9.167 9.167 0 0 1-.044-3.755C26.565 41.517 18.47 57.16 18.47 74.697c0 5.812.89 11.413 2.539 16.68-.026-.41-.063-.818-.063-1.235 0-10.764 8.725-19.491 19.492-19.491 1.141 0 2.249.121 3.339.308l.56-1.719a2.827 2.827 0 0 1 3.561-1.801 2.816 2.816 0 0 1 1.797 3.557l-.564 1.722c6.394 3.196 10.793 9.79 10.793 17.425 0 10.762-8.726 19.489-19.486 19.489-5.295 0-10.087-2.118-13.599-5.543 9.845 15.866 27.415 26.438 47.463 26.438zm17.1-56.135a19.364 19.364 0 0 1 11.446-3.742c10.763 0 19.483 8.728 19.483 19.491 0 10.762-8.721 19.489-19.483 19.489-10.064 0-18.343-7.626-19.381-17.414-.57-.516-.947-1.245-.947-2.075 0-.832.377-1.555.947-2.076a19.352 19.352 0 0 1 3.905-9.738l-4.35-4.341a2.83 2.83 0 0 1 0-3.985 2.81 2.81 0 0 1 3.984 0l4.396 4.391zM57.609 62.923a4.229 4.229 0 0 1-4.377 2.588l-13.394-2.185a4.23 4.23 0 0 1-3.491-4.851c.378-2.303 2.464-3.888 4.852-3.491l9.878 1.614s4.354-10.075 5.585-13.518c2.14-6.005 9.352-7.948 13.86-3.698l13.652 12.889c3.819 3.614 3.049 9.353.382 11.919-2.378 2.29-9.481 9.168-9.481 9.168l4.115 11.003a4.22 4.22 0 0 1-2.471 5.439 4.165 4.165 0 0 1-1.957.244 4.235 4.235 0 0 1-3.489-2.72l-5.092-13.598a4.242 4.242 0 0 1 1.021-4.521l5.083-4.911L61.314 53.95l-3.705 8.973z"/><path fill="#252326" d="M90.729 81.688a14.733 14.733 0 0 0-2.395 5.637h8.029l-5.634-5.637zM38.98 85.541l3.289-10.009c-.606-.073-1.203-.183-1.832-.183-8.169 0-14.797 6.623-14.797 14.792 0 8.172 6.628 14.793 14.797 14.793 8.17 0 14.791-6.621 14.791-14.793 0-5.545-3.089-10.319-7.601-12.851l-3.291 10.006c.591.8.943 1.777.943 2.845a4.845 4.845 0 0 1-9.689 0c0-2.167 1.431-3.976 3.39-4.6z"/><path fill="#252326" d="M102.849 85.294a4.845 4.845 0 0 1 4.839 4.846 4.841 4.841 0 0 1-4.839 4.847c-1.627 0-3.047-.802-3.933-2.028H88.337c1.315 6.821 7.307 11.975 14.512 11.975 8.164 0 14.786-6.621 14.786-14.793 0-8.169-6.622-14.79-14.786-14.79-2.986 0-5.746.898-8.072 2.416l7.583 7.581c.161-.017.315-.054.489-.054z"/></svg>