<svg xmlns="http://www.w3.org/2000/svg" viewBox="0 0 1500 1500"><path fill="#655B58" d="M638.9 711.8c40.4-141.3 138.2-145.4 138.2-145.4l6.3-4.4H653l-64.4 303H241.2L59.9 1169H528l63.1-304h49c-12.5-36-18.5-92.8-1.2-153.2zM876.9 609.5l-8.7 24.8 38.4 27-16.2-99.3H823v10.2zM1287.5 865H940l-20.4-126-7.4 11.1L864 731c-34.2 31.1-79.2 6-79.2 6-1.5 26.4 59 63.4 94.7 113.1 4 5.5 6.8 14.8 8.9 14.8h48.7l48.3 304h468.1l-166-303.9zM674.3 397h194.4l27.1 165h263l-93.3-174H870.3l-27.9-166H709l-36.2 166H477.6L375.8 562h263z"/><path fill="#F67D4B" d="M784.9 736.8s45 24.9 79.2-6.2l48.2 18.7 7.4-12 29.9-48.6-42.7-28.7-38.2-25.7 8.2-24.8-53.9-37.3V516.3l-40.7 43.2-5.7 6.5s-97.6 6.2-138 147.6C621.3 774 627.5 827 640 868.3c16.8 55.3 45.4 88.7 45.4 88.7H710c-9.5-18-28-47.1-40.7-88.7-24-78.8-27-190.9 92.7-282.1 0 0-130.1 111-56.8 282.1 12 28.1 29.6 61.8 54.1 88.8h109.3s36.7-44 19.7-88.7c-2.1-5.6-4.9-11.1-8.9-16.6-35.5-49.8-96.1-88.5-94.5-115zM749 967v147h-46V967h-26.9l-28.1 35.5v114.9s-1.4 14.6 23.5 14.6h206.6c24.9 0 27.9-14.6 27.9-14.6v-114.9L873.4 967H749z"/></svg>