<svg xmlns="http://www.w3.org/2000/svg" width="150" height="150" viewBox="0 0 150 150"><path fill="#1B3142" d="M92.054 134.751c-2.341.458-4.577.875-6.736 1.26-5.706 3.11-11.662 4.836-15.481 5.712-.863.194-3.721.85-4.131 2.489-.496 1.504 1.59 1.938 2.669 2.091 2.623.149 27.791 1.807 49.417-14.58.243-.182.473-.369.709-.557.649-.562.79-.801 1.349-1.728-.063-.22-.146-.499-.204-.703-2.852-1.316-8.664 2.308-27.592 6.016M127.42 122.785c-.135.155-.281.301-.422.455.141-.152.297-.293.432-.443a73.433 73.433 0 0 0 6.691-8.751 71.22 71.22 0 0 0 4.341-7.707 73.368 73.368 0 0 1-4.353 7.705 70.934 70.934 0 0 1-6.689 8.741M142.881 94.837a76.174 76.174 0 0 1-2.217 6.495 70.638 70.638 0 0 0 2.217-6.495M144.196 89.562a94.522 94.522 0 0 1-1.067 4.428c.402-1.47.771-2.959 1.073-4.439a.03.03 0 0 1-.006.011M90.693 7.319c.22-.982-.295-1.693-1.641-2.098-1.967-.401-32.822-7.808-65.23 19.264l-.547.577c-.725.813-.706 1.003-.606 2.076 3.11 2.021 13.393-1.151 39.17-6.249 1.151-.229 2.283-.449 3.386-.662 9.438-7.388 18.91-9.996 22.79-10.808.854-.168 2.363-.671 2.678-2.1M9.104 45.777l-.124.315c.063-.146.121-.298.19-.443a3.092 3.092 0 0 0-.066.128M14.357 36.165c-.059.099-.121.207-.183.308.146-.23.298-.455.447-.682-.085.123-.178.252-.264.374M21.049 27.41l-.315.386c.191-.217.374-.439.568-.654l-.253.268zM3.009 69.628c.005-.02.012-.039.018-.059a68.18 68.18 0 0 1 .303-3.071c-.02.135-.045.273-.065.401l-.256 2.729zM5.296 56.47c.069-.255.142-.51.212-.762-.04.125-.085.26-.123.383-.031.121-.058.256-.089.379M129.613 29.963a70.159 70.159 0 0 1 6.428 9.326 71.481 71.481 0 0 1 4.982 10.5c.231.611.447 1.225.661 1.84a83.742 83.742 0 0 0-.661-1.848 72.394 72.394 0 0 0-4.975-10.503 71.487 71.487 0 0 0-6.43-9.321 71.905 71.905 0 0 0-7.677-8.034 68.916 68.916 0 0 0-6.181-4.938 70.207 70.207 0 0 1 6.171 4.933 70.475 70.475 0 0 1 7.682 8.045M39.631 137.565c.234.136.479.276.694.409-.027-.019-.045-.041-.073-.062-.207-.109-.414-.23-.621-.347M26.539 128.292c.111.088.232.188.349.281-.235-.207-.467-.417-.7-.626.115.114.238.237.351.345M143.651 58.269c.123.498.25.998.359 1.495-1.579-4.771-17.773-3.847-39.507-.599a6.906 6.906 0 0 0-.9.622 33.371 33.371 0 0 1 4.548 16.853c0 3.819-.646 7.485-1.824 10.904a8.565 8.565 0 0 0 2.722.431c.37 0 .721-.026 1.062-.066 27.612-17.241 33.906-23.887 33.906-28.136-.114-.505-.243-1.004-.366-1.504M18.863 120.248c.025.032.058.063.084.094-.036-.044-.076-.087-.115-.131.012.013.024.024.031.037M12.433 110.915l.157.249c-.099-.171-.196-.343-.292-.511.045.087.089.178.135.262M35.294 134.989c.455.291.966.603 1.497.915-.553-.338-1.108-.67-1.651-1.025l.154.11M41.406 71.822c.048.042.095.089.143.131.053-.239.117-.471.18-.706-2.373.215-4.146 1.314-5.312 2.845.015-.219.041-.434.058-.65C14.638 87.416 6.512 94.879 7.133 99.582c.11.277.219.56.313.846.024.062.055.128.082.193a4.092 4.092 0 0 0-.078-.193 4.396 4.396 0 0 0-.202-.535c2.598 4.256 17.542 3.446 41.755-.408.188-.183.364-.37.53-.57-5.267-5.925-8.473-13.725-8.473-22.276 0-1.637.118-3.244.346-4.817"/><path fill="#2FC2BC" d="M110.996 88.455c-4.982 15.353-19.376 26.466-36.391 26.466-2.703 0-5.338-.294-7.886-.828a38.247 38.247 0 0 1-21.32-12.718 7.203 7.203 0 0 0 3.605-1.891c-24.214 3.854-39.158 4.666-41.752.408.075.174.143.351.198.535.026.066.053.126.079.19a72.114 72.114 0 0 0 4.769 10.032 70.82 70.82 0 0 0 6.538 9.559c.036.046.076.089.111.135a71.258 71.258 0 0 0 7.242 7.605l.696.624a71.463 71.463 0 0 0 8.255 6.306c.542.353 1.098.688 1.651 1.027.946.562 1.941 1.13 2.84 1.657.207.116.414.239.624.353.111.059.217.125.328.183 5.617 1.89 18.678 2.554 44.735-2.088 2.159-.385 4.397-.802 6.736-1.26 18.927-3.711 24.742-7.332 27.589-6.019.06.205.143.486.204.706-.555.927-.699 1.165-1.347 1.725-.014.016-.021.025-.04.038.315-.237.603-.488.915-.726a69.249 69.249 0 0 0 4.123-3.641c.049-.045.095-.091.143-.133a74.94 74.94 0 0 0 3.357-3.462c.139-.152.285-.3.422-.453a70.908 70.908 0 0 0 6.689-8.743 73.272 73.272 0 0 0 4.353-7.707c.311-.634.616-1.27.911-1.913a68.022 68.022 0 0 0 1.289-3.092 76.907 76.907 0 0 0 2.221-6.495c.069-.239.146-.478.216-.72.009-.042.019-.089.03-.131a87.73 87.73 0 0 0 1.073-4.449c.052-4.275-9.655-4.717-33.206-1.08M36.772 70.885c2.777-18.409 18.648-32.528 37.833-32.528 5.185 0 10.12 1.045 14.628 2.914a38.411 38.411 0 0 1 18.882 16.857c-1.41.065-2.603.452-3.609 1.035 21.731-3.249 37.924-4.17 39.505.601-.111-.499-.236-.997-.359-1.494a72.516 72.516 0 0 0-1.967-6.641c-.216-.614-.43-1.228-.661-1.84a71.866 71.866 0 0 0-4.98-10.499 70.366 70.366 0 0 0-6.428-9.325 71.082 71.082 0 0 0-13.852-12.978c-4.962-2.529-16.545-3.287-50.54 3.242-1.103.215-2.233.434-3.385.661-25.776 5.1-36.061 8.27-39.17 6.249-.101-1.07-.118-1.26.606-2.072.053-.062.101-.115.162-.183a75.625 75.625 0 0 0-2.136 2.259c-.194.215-.376.437-.568.655a71.343 71.343 0 0 0-6.108 7.993 71.809 71.809 0 0 0-5.453 9.858c-.068.149-.125.298-.191.446a71.806 71.806 0 0 0-3.468 9.613c-.073.253-.147.508-.214.763A70.983 70.983 0 0 0 3.329 66.5a66.716 66.716 0 0 0-.302 3.067c-.01.121-.029.241-.036.362.957 3.962 10.666 4.388 33.781.956"/><path fill="#E5B92E" d="M46.406 72.105a62.605 62.605 0 0 1 3.504 4.103c2.219 2.824 4.526 6.149 7.159 10.111.484.732.98 1.478 1.489 2.251 3.034 4.617 7.688 7.722 13.112 8.734 5.572 1.045 11.559-.229 16.011-3.402 8.764-6.239 10.154-16.778 7.012-23.52-3.064-6.567-9.147-9.824-26.042-13.933-7.216-1.758-11.895-4.008-14.905-6.079a33.561 33.561 0 0 0-11.6 17.771c.194.155.381.315.573.476a41.28 41.28 0 0 1 3.687 3.488"/><path fill="#E5B92E" d="M103.605 59.785c-.084-.148-.167-.3-.256-.446A33.65 33.65 0 0 0 86.111 45.12a33.494 33.494 0 0 0-11.505-2.025 33.357 33.357 0 0 0-17.951 5.203c2.694 1.667 6.743 3.479 12.773 4.948 15.982 3.888 24.286 7.235 28.25 15.745 3.703 7.947 2.132 20.325-8.084 27.6-4.021 2.864-8.932 4.383-13.945 4.383-1.528 0-3.062-.143-4.59-.426-6.309-1.181-11.728-4.792-15.259-10.167-.518-.784-1.012-1.53-1.501-2.266a218.436 218.436 0 0 0-4.222-6.147c-3.142-4.389-5.786-7.551-8.527-10.014a5.693 5.693 0 0 0-.144-.131 33.728 33.728 0 0 0-.345 4.817c0 8.552 3.206 16.352 8.474 22.275.125.146.252.286.378.424 5.827 6.331 14.051 10.416 23.235 10.809.484.021.969.036 1.459.036 13.326 0 24.837-7.77 30.25-19.028.289-.603.559-1.221.812-1.845a33.538 33.538 0 0 0 2.486-12.671 33.4 33.4 0 0 0-4.55-16.855"/></svg>