<svg xmlns:xlink="http://www.w3.org/1999/xlink"  xmlns="http://www.w3.org/2000/svg" viewBox="0 0 1500 1500"><path fill="none" d="M533 756h71v71h-71z"/><path fill="#B3525A" d="M562.2 618.3L882.7 813h85.8L562.2 564.9 169.4 813h72.3z"/><path fill="#D2CECC" d="M293 980.7c113-13.5 267.4-.8 461.8 72.6 30 11.3 61.2 21.7 89.2 31.3V808.5L568.5 651 293 808.5v172.2zM533 756h71v71h-71v-71z"/><path fill="#4CA950" d="M1268 1212.5v-205.8c29-12 41.5-65.2 41.5-129 0-72.7-24.5-131.5-53.9-131.5s-55.8 58.9-55.8 131.5c0 63.8 26.2 117 40.2 129v205.5c-42-1.5-85-7.7-141-19.7v-256c28-13.9 52.7-82 52.7-164 0-92.1-31.7-166.7-68.9-166.7-37.3 0-66.6 74.6-66.6 166.7 0 79.7 25.8 146.3 53.8 162.7v251.4c-84-19.3-191.1-50.6-316.7-98C230.6 891.4 27.2 1142 27.2 1142s126.5-66 644.9 96c341.3 106.7 721.1 74.7 801.1-106.7-28.4 39.9-77.2 81.2-205.2 81.2z"/><path fill="#ACDDF4" d="M363.2 544.5c38.5-57.8 99-100.9 172.4-115.8 91.9-18.6 182.4 11.6 244.6 72.7 61.2 0 118 28.2 155.4 74.3-11.6 12.6-21.1 27.5-27.6 44.3 9.6-13.7 21.4-25.5 34.7-35.1 1.9 2.7 3.8 5.3 5.6 8.1-1.2-3.2-2.5-6.2-3.8-9.3 35.3-24.7 81.1-33.8 125.5-20.8 45.1-23.7 99.2-30.2 151.7-13.9 65.7 20.4 113.3 71.6 131.9 132.8 36 19.6 61.3 53.2 71.5 91.5-.2-50.9-28.1-98.6-73.4-123.3-17.8-58.8-63.6-108-126.7-127.6-50.4-15.6-102.4-9.4-145.8 13.3-51.5-15.1-104.7.7-140 36.5-32.5-64.4-98.8-105.9-171.6-105.9-59.8-58.7-146.7-87.7-235-69.9-70.6 14.3-128.7 55.7-165.7 111.2-82.9 18.2-141.9 87.5-150.4 168 22.1-64.1 75.9-115.5 146.7-131.1z"/><path fill="#ACDDF4" d="M488.1 298.6c27.9-41.9 71.8-73.2 125-84 66.7-13.5 132.3 8.4 177.4 52.7 36.4 0 70.6 13.8 96.8 37.2-4.4 3.2-8.5 6.6-12.4 10.5 4.5-3.4 9.2-6.3 14.1-9 .5.5 1.1.9 1.6 1.4-.4-.5-.9-1-1.4-1.6 26-14.3 57.4-18.7 88-9.8 35.6-18.7 78.3-23.8 119.7-11 51.8 16.1 89.4 56.5 104 104.8 26.5 14.5 45.8 38.6 54.8 66.3-5.7-33-26.1-62.4-56.3-78.9-14.1-46.4-50.1-85.2-99.9-100.6-39.8-12.3-80.8-7.4-115 10.5-34.4-10.1-69.8-2.7-96.8 16.9-26.1-30.8-64.8-49.8-106.4-49.7-43.3-42.4-106.3-63.4-170.4-50.5-51.2 10.3-93.3 40.4-120.1 80.7-51.2 11.2-89.8 49.3-103.9 96.4 18.3-40.5 54.7-72.1 101.2-82.3z"/></svg>