<svg xmlns:xlink="http://www.w3.org/1999/xlink"  xmlns="http://www.w3.org/2000/svg" viewBox="0 0 150 150"><path fill="#F6B51B" d="M90.3 70.7c-.4-.9-.9-1.8-1.4-2.6l3.8-5.3-5.9 3c-.5-.5-1-.9-1.5-1.3l1.9-6.3-4.6 4.7c-.7-.3-1.4-.6-2.1-.8l-.1-4.7-2.1 4.2c-.7-.1-1.4-.1-2.1-.1L74 55.3l-1 6.5c-.8.2-1.6.4-2.3.7l-3.3-3.2.6 4.5c-.4.3-.8.5-1.2.8L61.4 61l3.2 5.7c-.4.5-.9 1.1-1.2 1.6l-3.9-1.1 2.9 2.8c-.2.4-.4.9-.6 1.4l-6.6-.2 5.7 3.2c-.1.6-.2 1.2-.2 1.8l-3.2.7 3.3 1c0 .4.1.7.1 1.1l.8-.1c-.4-3.2.2-6.5 1.9-9.3 1.7-2.9 4.2-5.1 7.3-6.3 7.5-3 16.1.8 19 8.3.9 2.2 1.2 4.4 1 6.7l.8.1c.2-2 0-4-.6-6l2.5-1.9-3.3.2z"/><path fill-rule="evenodd" clip-rule="evenodd" fill="#6DBE52" d="M20 97c44.2-9.5 86-2.4 128 18.6C117.8 88.8 57.4 77.8 20 97z"/><path fill-rule="evenodd" clip-rule="evenodd" fill="#6DBE52" d="M2.2 99.6c36.5-16.6 74.7-20.4 114.1-15-40.2-12.1-78.5-9.4-114.1 15z"/><path fill-rule="evenodd" clip-rule="evenodd" fill="#0E783D" d="M20 97c37.3-19.3 97.8-8.3 128 18.6-41.9-21-83.8-28.1-128-18.6z"/><path fill-rule="evenodd" clip-rule="evenodd" fill="#6DBE52" d="M2.2 99.6c35.5-24.4 73.8-27.1 114.1-15-39.4-5.4-77.6-1.6-114.1 15z"/><path fill="#8BD5E7" d="M124.8 73.6c-.7-5.1-3.3-9.4-7-12.5-4-3.3-9.4-5.1-15-4.3-1.5.2-2.8.6-4.2 1-1.9-2.3-4.1-4.2-6.6-5.8-2.8-1.8-6-3.2-9.4-4-3-8.5-11.7-14-21-12.8-10.6 1.4-18 11.1-16.8 21.6-2.1-.4-4.2-.5-6.4-.2C27.9 58 20.5 67.7 21.9 78.2c.4 3 1.5 5.7 3 8-.2-.8-.4-1.5-.5-2.3C23 73.4 30 63.8 40 62.4c2.1-.3 4.2-.2 6.1.3-1.1-10.4 5.9-20 16-21.4 8.9-1.2 17.1 4.4 20.1 12.9 3.2.8 6.3 2.1 9 4 2.4 1.6 4.5 3.6 6.3 5.9 1.3-.5 2.6-.8 4-1 5.3-.7 10.4 1 14.3 4.4 3.5 3 6 7.4 6.7 12.5.3 2 .2 4-.1 5.9.4-.6.7-1.3 1-1.9 1.3-3.1 1.9-6.7 1.4-10.4z"/></svg>