<svg xmlns:xlink="http://www.w3.org/1999/xlink"  xmlns="http://www.w3.org/2000/svg" viewBox="0 0 1500 1500"><path fill="#FFC979" d="M563.1 318c4.3-1.1 8.9-2.9 9.2-1.1 3.1-3.9 3.2-5.7-9.2 1.1z"/><path fill="#FFC979" d="M572.2 316.9l-2.1 2.4 2.2-1.8z"/><path fill="#FFAD26" d="M575 393.3c1.9-2.3 4.2-4.5 6.7-6.8-2.3 2.1-5.8 4.6-6.7 6.8z"/><path fill="#FFC979" d="M321.9 915.8c-.8-21.4-5.2-22.8-8-43.7.7-15.9 9.5-22.3 14-35.7l-6.7 7c-6.3-20.9 2.5-14.5-4.2-31.1l11.2.8c-5.5-5.8 0-20.4 3.2-26l-7.5-5.9c4.7-12.9 7.2-21.1 15.1-24.2l-7.2.4c5.2-4.3 6.8-49.6 16.4-32.2-.9-3.9-4.5-8.1-1.8-15.9l7.3.3c1.1-11.6 3.1-24.7 7.7-26.8.1 6.5 2.6 9.3 5.1 12.1 13.6-46.5-21.2-16.6-6.9-58.8l4.2 2.1-.7-12.4 9.5-9c-8-21.2 27.4-56.2 35.4-82.4 4.1-10.2 19.8-16.4 31.2-32.7l-6.4-3.2c14.6-9.6 58.2-51.7 80.9-48.3 7.1-13.8-2.2-.1-5.8-4.4 16.6-24.8 25-18.6 39.7-23.8 11.9-13.3-12.5 5.9-8.2-3.9 25.3-11.4 11.7-21.5 43.2-35.6 2.1.7 1.3 2-.3 3.6 18.9-16.5 53.6-32.2 81.6-44.7 39.2-11.1 97.3-23.6 143.9-22.5l.6-2.6c19.7 6.3 40-2.7 62.5 1.4l-10.9-4.2c14.8-3.8 23.1-.7 37.1-2.1l7.1 8.1c15.1-.6 7.2-5.5 18.6-8 13.3 5.5 42.4 7.6 48.9 9.1 3.7 4.2-6.6 3.5-9.2 5.1 17.8.8 18.3-6.2 39.8-.1l-.2 2c54.4 4.5 116.7 35.9 168.5 67.3-3-2.9-1.3-3.5-1.7-5.7 54.4 35.8 104.8 90.4 148 124.9-20-29.5-52.8-84.4-89.6-99.3-6.3-13.5-27.4-21-27.4-30-40.2-35-66.1-34.8-110.5-56.4-5.9-4.2-1.2-6.1-1.7-10.1 12.7 4.4 25.4 9 37.6 14.9-6.8-4.8-13.3-10.1-20.4-14.2 11.4 1.3 32.7 16.9 38.8 12.4-34.1-12.4-84.7-39.7-117.2-40.2 13.2 5.9 30.7 10.7 46.5 17.3 5.9 5.4 15.7 11.8 13.5 14.7-47.9-10-83.5-27.6-132.6-32.9-12-2.1-28.5-3.6-30.1-7.7 8.2-.3 2.5-3.9 9.3-4.8-17.8.9-3.4 12.5-28 8.1l4.3-11.9c-11 11.6-31-3.8-49.3 2.9-6.5-5.1 5.5-7.6 19.5-7.3-15.9-2.6-17.4 3.8-30 4.5 3.9-3.6 7.9-7.7 12-10.9-13.5 10.2-24.3-.9-32.5-3.9-.8 2.6 6.8 10.2-10.2 10.5-7.4-1-3.9-3.8-5.7-5.2-.7 3-6.5 6.9-17.5 9.2-2.4-3.1 6.8-6.5 7.2-10-8.5 1.3-15.2 3.2-21.8 1.2-14.6 5.2 1.7 4.9-6.9 10-23.2 1-4.3-11.7-14-17.7 16.9-7.3 39.8-13.6 49.4-16-11.6 1-22.9 4.7-34.3 7.1 1.6-4.4-24.6-3.4-6.8-10.2-35.7.8-76.8 16.3-106.9 31.4 5-.3 11-1.6 10.9 1.2-15.4 8.2-15.3 2.7-19.8 1.2-11.1 7.1-7.1 13.2-12.3 20.8-26.1 5.2-27.6 10.5-51.8 12.4l4.6 5.7c-17 1.8-13.2 13.3-29.9 18.2-1.6-.8 3-5.8 6.7-9.9-11.7 9.8-15.1 2.1-26.3 12.2l5.9-12.9c-10.2 6.4-23.6 17.8-22.2 8.9-12 19.5-44.2 37.6-59.5 59.7l-2.9-5.7c-5.5 13.9-36.4 34-37.1 49.2l-3.2-.2c-3.8 8.5-8 16.5-11.3 25.2-7.7 9.1-12.6.1-11.1 2.5-14.6 22.2-26.8 38.7-37.7 52 5.2 8.4-8.8 31.9-16.4 52.5-53.8 91.5-64.2 210.6-46.5 304.2 2.1 14.4 14.1 32.6 20.2 49z"/><path fill="#FFAD26" d="M581.7 386.5c.2-.2.4-.3.5-.5-.1.2-.3.4-.5.5z"/><path fill="#FFC979" d="M1157.9 330.5l-.5-7.3-23.2-8.3c6.1 9.1 12.6 7.8 23.7 15.6zM1143.8 343.7c4.1 1 7.9 2.7 11.8 4.1-5.5-3.7-11.3-6.8-17.2-9.8l5.4 5.7zM911.7 253.6c-16.2-.3-32.5 1.2-48.5 1.7l3 1.1c15-.9 30.2-2.8 45.5-2.8zM575.5 298.6l-17.3 14.1 3.2-.8c3-5.6 10.4-8.5 14.1-13.3z"/><path fill="#63B263" d="M1254.3 918.2s-236.5-288.5-588.4-86.6c-351.9 202-496.1 144.3-559.6 98.2 138.5 236.5 709.6 559.6 1049.9 92.3-294.2 178.8-698 75-698 75 375 11.5 553.8-46.2 663.4-115.4 109.6-69.2 209.1-10.9 254.5 34.5 16.5-28.9 20.7-45.4 20.7-45.4s-66.1-45.2-142.5-52.6z"/><path fill="#88C484" d="M1288.4 767.9c66.7 15.1 82 73.9 82 107.8 17-4.6 24.7-9.2 24.7-9.2s-7.8-41.5-33.5-72.7c0 0 19.4-195.8-187.2-251.7C967.9 486.2 935.6 410.9 929.2 370c-36.6 139.8 55.9 473.2 357.1 425.9C1109.8 752.8 998 563.5 998 563.5c135.5 144.2 223.7 189.3 290.4 204.4z"/><path fill="#55924E" d="M937.6 730C767.4 478 544.8 562.4 544.8 562.4 733.4 520.5 877.4 730 877.4 730h60.2z"/><path fill="#55924E" d="M463.6 779.2s159.7-165 343.1-28.8l68.1-10.5s-267.1-199-411.2 39.3zM1008.4 745.2c-47.1-41.9-146.7-206.9-107.4-330-86.4 112.6 13.1 267.1 13.1 267.1l49.7 52.4 44.6 10.5z"/></svg>