<svg xmlns:xlink="http://www.w3.org/1999/xlink"  xmlns="http://www.w3.org/2000/svg" viewBox="0 0 1500 1500"><path fill="none" d="M823.9 604.7l10.8 4.4L836 451l-13.4-1.4zM783.7 602.1l10.7 4.3 1.4-158.1-13.4-1.4zM838.7 409.3L676.2 404l-4.2-1.4v16.1l163.8 10.7zM653.7 326.2l-4.1-18.8-54.9 10.8 2.6 21.4zM624.2 280.6c-17.4 0-20.1 20.1-20.1 20.1l33.5-1.3s4-18.8-13.4-18.8zM738.1 594l10.8 4.4 1.3-158.1-13.4-1.5zM894.8 301.2c-17.2-2.7-22.9 16.8-22.9 16.8l33.3 3.7c0 .1 6.8-17.9-10.4-20.5zM688.5 591.3l10.7 4.4 1.4-158.1-13.4-1.5zM915.9 331.6l-55.9 2.3-.7 21.6 57.7-4.8z"/><path fill="#99846F" d="M672.2 711.4s-32.5-10.8-37.9 8.1c-5.4 19 37.9 6.8 43.3 6.8 5.5 0 2.7-14.9-5.4-14.9zM494.9 1217.7c31.1 0 81.3-8.1 90.7-47.4 9.5-39.2-47.4-44.7-47.4-44.7-100.2 69.1-74.4 92.1-43.3 92.1zM651.9 673.5s-51.5 10.8-40.6 17.6c10.8 6.8 55.5-14.9 40.6-17.6zM557.2 909.1c29.8 1.3 85.3-24.4 58.2-39.3 0 0-37.9-20.3-74.5-8.1-36.5 12.2-13.5 46 16.3 47.4zM677.6 804.8c14.9 0 28.4-19 2.7-25.7 0 0-36.5 8.1-39.2 19-2.7 10.8 21.7 6.7 36.5 6.7zM607.3 841.4c19-2.7 24.4-39.2 12.2-39.2 0 0-67.7-8.2-93.4 17.6-25.8 25.6 62.2 24.3 81.2 21.6zM540.9 726.3C528.7 748 559.8 750.7 572 748c12.2-2.7 69.1-31.1 37.9-33.8.1-.1-56.8-9.5-69 12.1zM605.9 982.2c-12.2 17.6 6.8 32.5 39.3 24.3 32.5-8.1 90.7-40.6 39.3-46-51.5-5.4-77.2 17.6-77.2 17.6l-1.4 4.1zM455.7 756.1s-47.4 5.4-46 24.4c1.3 18.9 40.6 1.3 47.4-2.7 6.7-4.1 4-23.1-1.4-21.7zM607.3 949.7c14.9-5.4 20.3-23 12.2-29.8 0 0-39.3-1.3-44.7 10.8-5.5 12.2 17.6 24.4 32.5 19zM477.3 823.8c12.2 0 21.7-6.8 8.1-16.3 0 0-31.1-16.3-40.6-1.4-9.5 15 20.3 17.7 32.5 17.7zM501.6 746.6c17.6-1.4 27.1-13.5 17.6-17.6 0 0-25.7-2.7-33.8 6.8-8.1 9.5-1.3 12.2 16.2 10.8z"/><path fill="#99846F" d="M373.1 817c-16.2 27.1 23 23 33.9 17.6 10.8-5.4 46-14.9 27.1-33.8-.1 0-44.8-10.9-61 16.2zM554.5 766.9s-46-14.9-71.7 5.4c-25.7 20.3 5.4 27.1 32.5 25.7 27-1.3 63.5-13.5 39.2-31.1zM474.6 884.7c33.8-1.4 56.8-31.2 37.9-44.7 0 0-90.7-12.2-100.2 16.2-9.4 28.5 28.5 29.9 62.3 28.5zM661.4 748s-74.5-16.3-88 17.6c-13.6 33.8 50.1 18.9 67.7 16.2 17.6-2.7 55.5-24.4 20.3-33.8zM857.7 880.6c-8.1 16.2 20.3 18.9 37.9 17.6 17.6-1.4 52.8 1.4 33.8-17.6 0 0-63.6-16.2-71.7 0zM1013.3 911.8S929.4 901 905 932.1c-24.3 31.1-5.4 40.6 71.8 33.8 77.2-6.8 77.2-50.1 36.5-54.1zM1024.2 1128.4s-65-12.2-102.9 17.6c-37.9 29.8 5.4 63.6 47.4 59.6 42-4.2 112.3-75.9 55.5-77.2zM716.9 877.9s-52.8-9.5-78.5 20.3c-25.7 29.8 19 42 52.8 35.2 33.8-6.8 69-52.8 25.7-55.5zM727.7 655.9s-32.5 5.4-20.3 9.5 31.2-6.8 20.3-9.5zM704.7 673.5s-40.6 2.7-43.3 14.9c-2.7 12.2 36.6 9.5 46 6.8 9.5-2.7 32.5-19-2.7-21.7zM697.9 826.5s-31.1-16.2-67.7 9.5c-36.5 25.7 67.7 31.1 77.2 29.8 9.5-1.4 42-24.4-9.5-39.3zM614 1289.4c10.8-4.1 42-16.2 14.9-31.1 0 0-28.4 1.3-35.2 16.2-6.8 14.9 9.5 19 20.3 14.9zM622.1 1112.1c43.3 0 173.3-35.2 134-82.6 0 0-25.7-28.4-104.2-1.4-78.5 27.2-73.1 84-29.8 84zM601.8 1145.9c5.4 17.6 46 6.8 62.3 5.4 16.2-1.3 29.8-14.9 10.8-25.7.1 0-78.5 2.7-73.1 20.3zM737.2 1185.2s-60.9-33.9-115.1-9.5c-54.1 24.3-19 63.6 21.7 66.3 40.6 2.8 128.6-27 93.4-56.8zM941.6 1290.8c32.5 2.7 134-14.9 48.7-62.3 0 0-37.9-20.3-74.5 8.1-36.4 28.5-6.7 51.5 25.8 54.2z"/><path fill="#99846F" d="M860.4 1242.1c54.2-5.4 67.7-37.9 20.3-65 0 0-54.2-14.9-94.8 1.4-40.6 16.2 20.3 69 74.5 63.6zM844.2 1152.7c90.7-14.9 115.1-70.4 90.7-77.2 0 0-178.7-5.4-224.7 33.9-46.1 39.3 43.2 58.2 134 43.3zM991.7 1043.1c31.1-13.5 54.2-52.8 6.8-59.6 0 0-79.9-12.2-89.4 23s51.5 50.1 82.6 36.6z"/><path fill="#99846F" d="M833.3 1060.7c65-1.3 96.1-86.6 48.7-86.6 0 0-73.1-13.5-105.6 12.2-32.4 25.6-8.1 75.7 56.9 74.4zM794.1 653.2c13.5 0 21.6-4.1 14.9-6.8 0 0-28.5 6.8-14.9 6.8zM326.6 1216.6c-10.1 30.1 30.1 40.2 53.6 33.5 23.4-6.7 140.6-40.2 33.5-73.7 0 0-77 10-87.1 40.2zM768.3 643.7s-31.1-1.4-18.9 5.4c12.2 6.8 23-8 18.9-5.4zM744 665.4c13.6 9.5 37.9-4.1 27.1-9.5-.1 0-40.7 0-27.1 9.5zM544.3 1072.6s-130.6 33.5-147.3 73.7c-16.7 40.2 63.6 3.3 87.1 0 23.4-3.4 93.7-73.7 60.2-73.7zM960.6 1091.8c2.7 33.8 62.3 14.9 86.6 6.8 24.4-8.1 55.5-39.3 33.9-51.5-3.6-1.9-123.3 10.9-120.5 44.7zM825.2 869.8s-46-9.5-60.9 8.1c-14.9 17.6-8.1 28.4 32.5 28.4 40.6.1 47.4-31.1 28.4-36.5zM1100 1032.2c17.6-1.4 73.1-28.4 19-42 0 0-50.1-20.3-65 8.1-14.9 28.5 28.4 35.3 46 33.9zM1121.6 945.6s-27.1-14.9-47.4-8.1c-20.3 6.8-33.8 20.3-9.5 25.7 24.5 5.4 81.3 4.1 56.9-17.6zM578.8 1313.8c-71.8 0-124.5 46-124.5 46-1.4 8.1 165.1 10.8 192.2 4.1 27.1-6.8 4.1-50.1-67.7-50.1zM565.3 1247.5s-100.2-27.1-138.1 5.4c-37.9 32.5-13.5 65 28.4 66.3 42 1.4 172-47.4 109.7-71.7zM729.1 936.1c-16.2 33.8 37.9 37.9 86.6 27.1 48.7-10.8 85.3-43.3 40.6-50.1 0 0-111-10.8-127.2 23zM377.1 1294.9c-28.4-4.1-62.3 31.1-62.3 31.1-24.4 35.2 23 48.7 75.8 35.2 52.9-13.5 14.9-62.3-13.5-66.3zM848.2 1349s-69.1-25.7-121.8-13.5c-52.8 12.2-42 29.8-16.3 29.8 25.8 0 176 6.7 138.1-16.3zM979.5 1296.2c-74.5 1.3-134 51.4-83.9 58.2 50.1 6.8 236.9 28.4 186.8-21.7 0 .1-28.4-37.9-102.9-36.5z"/><path fill="#99846F" d="M781.9 1240.7s-82.6-6.8-129.9 35.2c-47.4 42 12.2 55.5 128.6 46 116.4-9.4 123.1-65 1.3-81.2z"/><path fill="#A6DAE5" d="M948 649.7c24.5 4.7 49.4 10.1 74.6 16.1l24.1-126.2c-23.2-6.6-46.1-12.8-67.8-18.4L948 649.7zM1048.8 672.2c20.3 5.2 40.9 10.7 61.6 16.8l33.1-118.7c-18.8-6.7-38.8-13.3-59.1-19.5l-35.6 121.4z"/><path fill="#A6DAE5" d="M341.2 635.5L320.1 504c-37.1 5.7-61.5 10.3-61.5 10.3l-1.2-29.7c20.1-4.2 39.3-7.9 57.9-11.1l-4.6-28.5 17.3-35.9 27.3 28.5 1.8 29.3c24.9-3.6 48.4-6.4 70.2-8.4l-3.9-24.5 17.3-35.9 27.3 28.5 1.8 28.8c25-1.4 47.4-1.9 67.2-1.7l-3.3-20.9 17.3-35.9 27.3 28.5 1.9 29.8c16 1 29.3 2.3 39.7 3.7l-11.8-107 44.2-10.7 3.8 276.4c62 1.9 129.3 7.1 200.7 17.2l6-140.8c-8.4-1.9-13.2-2.9-13.2-2.9l-1.2-16.1c5.1.2 10.1.4 15.2.8l4.5-106.5 45.4-3.9-15.8 113.7c15.4 2 31 4.6 46.4 7.6l4.4-31.4 27.1-29.2 17.7 35.2-8.3 34.5c22.8 5.6 45.1 12.1 66.4 18.9l6.1-31.8L1086 455l15.9 36.1-10.8 36.9c21.1 7.5 40.7 15 58.1 22.1l10.8-38.9 30.8-25.4 12.9 37.3-16.6 43c27.6 12.1 44.1 20.4 44.1 20.4l-5 19.8c-13-7.4-28.7-14.7-46.2-21.9L1136.5 697c43.1 13.3 86.9 28.5 131.1 46l7.9-624.4-1074.4 67.3L251.7 653s32.3-8.6 89.5-17.5zm553.6-334.3c17.2 2.6 10.4 20.6 10.4 20.6l-33.3-3.7s5.7-19.5 22.9-16.9zM860 333.9l56-2.3 1.1 19.2-57.7 4.7.6-21.6zM699.2 595.7l-10.7-4.3-1.3-155.2 13.4 1.5-1.4 158zm49.7 2.7l-10.7-4.4-1.4-155.2 13.4 1.4-1.3 158.2zm45.5 8l-10.7-4.3-1.3-155.2 13.4 1.5-1.4 158zm40.3 2.7l-10.7-4.3-1.3-155.2L836 451l-1.3 158.1zM672 402.6l4.2 1.4 161.7 5.4-2.5 20.1L672 418.7v-16.1zm-47.8-122c17.4 0 13.4 18.7 13.4 18.7l-33.5 1.3c-.1.1 2.6-20 20.1-20zm25.4 26.8l4 18.8-56.3 13.4-2.7-21.4 55-10.8z"/><path fill="#A6DAE5" d="M471.7 485.8l8.4 134.6c25.9-1.7 53.6-3 83-3.6l-21.6-134.7c-22.4.4-46.1 1.7-69.8 3.7zM875.6 637.3c15.3 2.3 30.7 4.9 46.3 7.6l18.7-133.2c-17.2-4.2-32.8-7.8-46-10.9l-19 136.5zM590.2 616.4c15.3-.1 31 .1 47 .4L622.8 486c-12.4-1.9-26.2-3.1-41-3.7l8.4 134.1zM359.1 498.4l8.3 133.3c25.2-3.4 54.1-6.7 86.2-9.4l-21.3-132.9c-25.7 2.7-50.6 5.8-73.2 9z"/><path fill="#C2CDA9" d="M869.7 657.2s-134.9 30.2-161.1 80.5c-26.2 50.3 4 90.6 163.2 106.7 159.1 16.1 425 90.6 294 207.5-130.9 116.8-179.2 189.3-38.3 302.1l48.3 10.1L1337 810.2s-269.9-145-467.3-153zM412.5 1087.2c120.8-48.3 261.8-111.3 0-197.9-261.8-86.6 211.5-247 211.5-247C396.4 612.1 136.6 690 136.6 690l100.7 662h52.4c-88.6-122 2-216.5 122.8-264.8z"/></svg>