<svg xmlns:xlink="http://www.w3.org/1999/xlink"  xmlns="http://www.w3.org/2000/svg" viewBox="0 0 1500 1500"><path fill="none" d="M1343.5 520.6c-.2 9.4-1.5 19-1.3 28.4v.7c1.4-24.5 7.2-59.8-3.7-80.2 5.2 16.2 5.4 34.3 5 51.1zM1298.5 457.2c-6.8 2.2-13.3 5.4-18.8 8.8-8.7 5.2-17.5 10.9-24.8 18.2-2.1 2.1-3.1 4.8-3.5 7.9 1.3-2.9 3.2-5.8 6.1-8.4 7.4-7.1 24.3-19.9 41-26.5zM1346.1 617.9c3.2-.5 5.9-4.7 6.9-15.7.2-2.6.1-5.1-.2-7.4.3 8.6-1.2 17.5-6.7 23.1z"/><path fill="none" d="M1329.4 584.5c.3 0 .4.3.5.4.6 0 1.1-.1 1.8-.1 2.3.3.2 5-1.8 4.8-5.8-.7 3.7 21.9 12.3 27.2 2.6-.4 4.9-3.5 6.1-11.2 1.6-7.5 1.3-15.1-.9-22.6-2.8-7.1-8.5-15.6-8.6-23.5-.4-26.1 6.4-56.9-2-82.3-8.8-26.7-34.9-20.3-54.1-8.6-7.3 4.5-14.6 9.3-20.9 15.2-11.3 10.6-5.8 27.4 4.8 36 8.8 5.9 19.9 6.6 29.3-5.3 1.8-2.2 2.9-.4 2.4 1.5.5.7.5 2-.3 3.1-6.5 8.7-15.2 11.2-23.4 9.9l.1.1c3.7 4.6 7.3 9.3 11 13.9 7.5 9.4 15 18.9 22.5 28.3 3.2 4 6.4 8.1 9.6 12.1 1 1.3 2.7 2.9 4.2 4.7 1.1-2.4 3.5-3.9 7.4-3.6zM807.9 985.4s-91.7-13.6-143-124.3c0 0 12.5 97.8 133.6 139.8h26c-.8 0-7.4-6.3-16.6-14.7v-.8zM827.1 806.8s-61.8 71.2-2.4 194.2h22.1c.7 0 35.6-88.9 152.2-120.7 0 0-63.2-3.1-119.2 53.4-9.3 22.5-24.1 44.8-46.4 65.4 0 0-48.3-77.7-6.3-192.3z"/><path fill="#E6673E" d="M1145.8 616.3c1.2-3.5 3-5.8 5.3-6.3 7.2-1.5 16.5 14.2 20.8 35 4.3 20.8 2.1 38.9-5.1 40.3-1.8.4-3.8-.4-5.8-2.1l.5 2.1-5.3-3.9c7.7 39 13.8 69.4 13.9 69.9 2 10.1 2.2 11.3 12.9 12.2 34.6 2.9 143.5 2.8 182.8-105.5 3.8-10.3 1.5-12.3-5.1-20.5-3.3-4.1-6.6-8.3-9.8-12.4-.7-.9-1.6-2.5-2.7-3.8.2-.2.4-.2.7-.4 10.8-9.2 9-28.4 6.2-40.4-4.3-18.1-8.7 4.2-9.3-32.3-.2-9.7 1.1-19.7 1.4-29.4.5-17.5.3-36.3-5.3-53.1-13.1-39.4-71.3-.1-87.8 14.8-3.6 3.2-6.7 7.4-8.5 11.7-2.2-2.7-4.4-5.5-6.5-8.2-3.5-4.4-7-8.8-10.4-13.2-.7-.9-1.7-1.4-2.7-1.8-4.3 5.6-27.2 18.4-51.3 28.4-25.5 10.5-47.5 16.5-51.8 14.3.1 1.2.4 2.7.8 4.7 3.3 16.8 11.2 56.3 19.5 98.2l2.8 1.3-.2.4zm109.1-132.2c7.3-7.2 16.1-12.9 24.8-18.2 5.5-3.3 12.1-6.5 18.8-8.8 17-6.7 33.7-7.1 39.9 11.7.1.2.1.4.2.6 10.8 20.4 5 55.7 3.7 80.2.4 13.8 5.8 18.3 8.6 30.5 1 4.1 1.8 9.4 2 14.7.3 2.3.4 4.8.2 7.4-1 10.9-3.7 15.2-6.9 15.7-.4.4-.6.8-1 1.2-11.9 10.2-28.5-20.2-23.2-31-1.5-1.8-3.2-3.4-4.2-4.7-3.2-4-6.4-8.1-9.6-12.1-7.5-9.4-15-18.9-22.5-28.3-3.7-4.6-7.4-9.3-11-13.9l-.1-.1c-16.3-2.7-30.6-20.7-23.1-37 .2-3 1.2-5.8 3.4-7.9z"/><path fill="#B86645" d="M1174.4 497.4c24.1-9.9 46.9-22.8 51.3-28.4.6-.8.9-1.5.7-1.9-1.6-3.8-30 5.2-57.6 16.5-27.6 11.4-48.6 23.7-47.1 27.5.1.3.6.4.9.6 4.4 2.2 26.3-3.8 51.8-14.3z"/><path fill="#E6673E" d="M1330 589.7c2 .2 4.1-4.5 1.8-4.8-.7-.1-1.2 0-1.8.1.9 1-.6 4.2-2.2 4.1-7.2-.6 5.8 29.1 14.5 27.8-8.7-5.3-18.2-27.9-12.3-27.2zM1295.8 514.5c-9.4 12-20.5 11.2-29.3 5.3 8.6 7.1 20.6 8.6 29.6-3.3.9-1.2 1.7-1.1 2.1-.5.5-1.9-.6-3.7-2.4-1.5z"/><path fill="#FF7546" d="M1274.5 529c8.2 1.4 16.9-1.1 23.4-9.9.8-1.1.8-2.4.3-3.1-.4-.6-1.2-.7-2.1.5-9 12-21 10.4-29.6 3.3-10.5-8.6-16.1-25.4-4.8-36 6.3-5.9 13.6-10.7 20.9-15.2 19.2-11.7 45.4-18.1 54.1 8.6 8.3 25.3 1.6 56.2 2 82.3.1 7.8 5.8 16.4 8.6 23.5 2.2 7.5 2.5 15.1.9 22.6-1.2 7.7-3.4 10.8-6.1 11.2-8.7 1.3-21.7-28.4-14.5-27.8 1.6.1 3.1-3 2.2-4.1-.2-.2-.2-.4-.5-.4-3.9-.3-6.3 1.1-7.5 3.6-5.3 10.8 11.3 41.2 23.2 31 .4-.3.7-.8 1-1.2 5.5-5.6 7-14.5 6.7-23.1-.2-5.4-1-10.6-2-14.7-2.8-12.1-8.2-16.6-8.6-30.5v-.7c-.2-9.4 1.1-19 1.3-28.4.4-16.8.2-34.9-4.9-51.1-.1-.2-.1-.4-.2-.6-6.2-18.8-22.9-18.4-39.9-11.7-16.7 6.6-33.6 19.4-41 26.4-2.9 2.7-4.7 5.5-6.1 8.4-7.4 16.3 6.9 34.4 23.2 37.1zM966.2 562.8c-.8-2.8-1.1-5.4-1.3-8 .4 4.8 1.3 8 1.3 8zM966.2 562.8l2.5-.8c0-.1.1-.2.1-.3l-2.6 1.1zM972 560.4l-.7.3c0 .2.1.4.1.6l16.3-5 168.4 125.1 5.3 3.9-.5-2.1c2 1.7 4 2.5 5.8 2.1 7.2-1.5 9.5-19.6 5.1-40.3-4.4-20.8-13.7-36.4-20.8-35-2.3.5-4 2.8-5.3 6.3l-.1-.5-2.8-1.3L991 546.3l-10.7-28.1 1.7 6.6c-13.3 21.5-10 35.6-10 35.6zM964.7 551.6c.1-15.8 9.3-27.2 13.5-31.4-11.2 10-13.6 22.5-13.5 31.4z"/><path fill="#B86645" d="M970 548h.2s.6 6.6 1.1 9l.7 1.5s-3.3-13.1 9.9-34.6l-1.7-6.2s-.9 1.1-2 2.2c-4.2 4.3-13.4 15.8-13.5 31.5 0 1.1 0 2.2.1 3.3.2 2.6.5 5.2 1.3 8l2.6-4.8c1.1-4 1.3-9.9 1.3-9.9z"/><path fill="#57844D" d="M1307 1001H926.9c131.6-28 174.8-214.9 174.8-214.9-108.5-8.7-172.3 22.9-209.8 64.2 2.3 27.4-.7 55.4-12.1 83 56-56.4 119.2-52.9 119.2-52.9C882.4 912.3 847.4 1001 846.8 1001h-22.1s0 .1.1.2l-.2-.2h-26C677.5 959 665 861.2 665 861.2c51.3 110.7 143 124.9 143 124.9v-.6c-25-22.5-69-72.3-70.9-144-73.9-59.6-182.2-65.8-182.2-65.8C569.5 941.5 660.8 987 728.1 1001H252v41h1055v-41z"/><path fill="#55924E" d="M61 1042h1411v41H61zM807.9 985.1c9.3 8.3 15.8 12.9 16.6 13.4.1 0 .2.2.2.2 0-.1 0-.1-.1-.2-59.4-115.7 2.4-193 2.4-193-42 114.6 6.3 192.6 6.3 192.6 22.2-20.6 37.1-42.6 46.4-65.1 11.4-27.6 14.4-55.9 12.1-83.3-8.1-97-82.1-182.4-82.1-182.4-56.2 67.1-74.1 125.5-72.8 174 2.1 71.7 46.1 121.4 71 143.8z"/><path fill="#7ECBEF" d="M964.7 741c-.1 0-.5 5.7-11.4 20.7-3.7 5.1-7 10.4-6.6 17.2.3 6.5 3.7 10.8 8.3 14.1 2.9 2.1 6.4 2.6 9.9 2.5 5.6-.2 11.3-3.2 14.4-8.4 3.2-5.3 3.1-12.4 1.1-18.3-3.6-10.8-12.1-15.9-15-27.1 0 .1-.7-.7-.7-.7zm4 51.1c2.1-3.1 5.4-4.9 7.7-7.8 2.5-3.2 3.7-7.3 4.2-11.3-.2 1.9.2 3.8 0 5.7-.5 3.7-1.7 8-4.3 10.9-1.2 1.3-6.4 6.3-7.9 3.7-.2-.3 0-.7.3-1.2zm-1.3 1.1c0 .9-.7 1.6-1.6 1.6-.9 0-1.6-.7-1.6-1.6 0-.9.7-1.6 1.6-1.6.9 0 1.6.8 1.6 1.6z"/><path fill="#FFFFFE" d="M964.3 793.2c0 .9.7 1.6 1.6 1.6.9 0 1.6-.7 1.6-1.6 0-.9-.7-1.6-1.6-1.6-.9 0-1.6.8-1.6 1.6zM976.3 789.5c2.5-2.9 3.8-7.1 4.3-10.9.2-1.9-.2-3.8 0-5.7-.4 4-1.6 8.1-4.2 11.3-2.3 2.9-5.7 4.7-7.7 7.8-.3.5-.4.8-.3 1.1 1.5 2.7 6.8-2.2 7.9-3.6z"/><path fill="#7ECBEF" d="M949.9 675.3c6 4.3 13.4 6.3 20.8 6.1 11.8-.4 23.6-6.3 30.1-17.1 6.7-11.2 6.4-25.8 2.3-38.1-7.5-22.5-25.3-39.4-31.3-62.8 0-.1-.2-1.1-.5-2.2 0-.2-.1-4.1-.1-4.3-.5-2.3-1.1-9-1.1-9h-.1s-.2 6-1.2 10c0 .1 0 2.1-.1 2.2-2.1 7.9-7.6 23.5-22.3 43.9-7.7 10.7-14.6 25.3-13.9 39.6.6 13.7 7.7 24.7 17.4 31.7zm27.5-1.2c4.3-6.4 11.5-10.2 16.2-16.3 5.3-6.7 7.8-15.4 8.7-23.8-.4 3.9.4 7.9-.1 11.9-1 7.8-3.6 16.8-8.9 22.8-2.4 2.7-13.4 13.2-16.6 7.8-.2-.6.1-1.4.7-2.4zm-5.8-.9c1.8 0 3.3 1.5 3.3 3.3 0 1.8-1.5 3.3-3.3 3.3-1.8 0-3.3-1.5-3.3-3.3 0-1.9 1.4-3.3 3.3-3.3z"/><path fill="#FFFFFE" d="M971.6 679.7c1.8 0 3.3-1.5 3.3-3.3 0-1.8-1.5-3.3-3.3-3.3-1.8 0-3.3 1.5-3.3 3.3 0 1.8 1.4 3.3 3.3 3.3zM993.4 668.7c5.3-6 7.9-15 8.9-22.8.5-4-.3-8 .1-11.9-.9 8.4-3.4 17-8.7 23.8-4.8 6-11.9 9.9-16.2 16.3-.6 1-.9 1.8-.6 2.4 3.1 5.5 14.1-5 16.5-7.8z"/></svg>