<svg xmlns:xlink="http://www.w3.org/1999/xlink"  xmlns="http://www.w3.org/2000/svg" viewBox="0 0 1500 1500"><path fill="none" d="M776 410.4v-15.1l-11.9 5.7zM714.7 448.3l53.1-23.3-20.6-16.2-51.4 24.5zM836 478v5.3l4.5-1.8zM587.4 504.1l-15.3-12-33.1 15.8 14.9 10.9zM878.6 439.5L834 456.6v1.2l22 17 45.7-18.2zM834 411.7v28.9l30.2-11.9-25.7-18.8zM706.9 534.3l-23.5-18.5-39.2 15.3 23.6 18.7zM852.5 492l-18.5 6.9v24.2l39.2-14.6zM916.8 467.4l-46.7 18.1 20.9 16.6 48.1-18.1zM745.4 491.7L698.3 510l23.3 18.5 46.9-18.7zM602.2 497.6l37.2-16.3-16.8-13.2-36 17.2zM690 641.2v291c25-1.6 64-2.3 91-2V614.4l-91 26.8zM1005 780.8V537.2l-171 57.5v338.1c12 .6 15.8 1.3 24.4 2.1 18.3-74 79.6-132.8 146.6-154.1zM893.7 699c11.4-7.4 21.1 2.3 21.1 2.3 7.4-7.4 20.6-2.8 20.6-2.8-14.3-.6-20.6 12-20.6 12-3.4-10.9-21.1-11.5-21.1-11.5zM633.1 576.9l20.1 14.7L684 580l-19.4-15.3zM518 532.3v427.2c39-10.9 92-19.6 145-24.6V644.3l-145-112zM686.3 500.4l46.4-18.6-21.7-17.1-45.3 19.4zM776 479.9l-14.2 5.5 14.2 11.3zM781 437.2L729.6 458l23.2 17.3 28.2-10.8zM654.1 474.8l44.8-19.6-18.5-14.5-43.4 20.6zM713.9 603.5l-18.2-14.4-30.6 11.2 18.7 13.7zM671.3 506.4l-20.3-16-37.7 16.1 19.4 15.4zM224.3 926.7l.1-1.7-8.7-26.3c-2.3 2.1-4.7 4.1-7.3 5.9l15.9 22.1zM772.6 583.8L752.4 569l-41.2 14.7 20.6 14.6 49.2-16.4v-1.7zM617.7 527.9l-19.2-15.1-33.4 14.2 19.4 14.2zM953.9 495l-49.2 17.9 21 16.7 50.9-17.7zM221.8 892.8l6.8 14 16.8-17.9c-4.4-3.1-8.6-6.4-12.5-10.2-3.2 5.1-7 9.7-11.1 14.1zM781 521.9l-44.7 16.2 21.2 15.7 23.5-8.3zM653.1 555.7l-23.9-18.8-33 12.9 25.2 18.5zM776 560l-9.9 3.6 9.9 7.8zM718.9 543.8L679.4 559l19.4 15.4 40-15zM887.1 519.1L834 538.2v5.9l15.6 11.9 58.4-20.4z"/><path fill="#FFB602" d="M1270.2 1057.2c7.8-22.2 12.5-45.9 12.5-70.7 0-118.3-96.5-214.2-214.8-214.2-3.5 0-10.9.3-10.9.5v199.9c64 19.7 140.5 47.4 213.2 84.5zM1175 873.7c19.4-19.4 53.6-7.5 53.6-7.5-37.2-1.5-53.6 31.3-53.6 31.3-8.9-28.3-55.1-29.8-55.1-29.8 29.8-19.4 55.1 6 55.1 6zM857.2 934.9c47.8 4.5 106.8 12.6 147.8 24.7V780.8c-67 21.3-129.5 80.1-147.8 154.1z"/><path fill="#97A822" d="M80.6 885.5c-5.6-7.3-10.1-15.5-13.4-24.3 3.3 8.8 7.8 17 13.4 24.3zM124.9 917.2c-3.9-1.3-7.6-2.9-11.2-4.6 3.6 1.8 7.4 3.3 11.2 4.6zM154.4 922.1c-4.5 0-8.9-.4-13.2-1 4.3.5 8.7 1 13.2 1zM138.4 920.6c-4.2-.7-8.4-1.7-12.4-3 4 1.3 8.2 2.3 12.4 3zM112.1 911.8c-3.9-2-7.6-4.2-11.1-6.7 3.5 2.5 7.2 4.7 11.1 6.7zM80.8 885.7c5.5 7.2 12.1 13.5 19.5 18.8-7.4-5.3-14-11.6-19.5-18.8zM354.3 808.6c25.6 10.2 41.8-1.6 51.8-18.1.6 4.6 1.1 9.3 1.1 14.1 0-56.8-46.1-102.9-102.9-102.9-.6 0-1.2.1-1.8.1-7.9-31.3-36.1-54.4-69.8-54.4-28 0-52.3 16-64.2 39.4-3.1-.6-6.3-1-9.7-1-28.3 0-51.2 22.9-51.2 51.2 0 3.8.5 7.5 1.3 11.1-28.3 15.9-47.5 46.2-47.5 81.1 0 11.3 2.1 22 5.8 32 16.5.8 42-5.6 81.3-26 124.6-64.6 147.6-49.9 205.8-26.6z"/><path fill="#96AB70" d="M148.7 857.5l.4-6.1 19.9 10.8 26.2-35.7 4.9.7-20.6 37.1 28.8 40.3c2.5-1.8 4.9-3.8 7.3-5.9l-3.6-10.8 5.9-2.7 3.7 7.6c4.1-4.4 8-9 11.2-14.1 3.9 3.7 8.1 7.1 12.5 10.2l21.1-22.5-4.2-20.2 1.8-4.7 13.9 24.2 40.3-23.5.8 8.1-43.9 33-12.4 15.5c12.7 5.6 26.6 8.8 41.4 8.8 56.8 0 102.9-46.1 102.9-102.9 0-4.8-.4-9.4-1.1-14.1-10 16.4-26.2 28.3-51.8 18.1-58.1-23.3-81.2-37.5-205.7 27C109.2 856 83.7 862 67.2 862v-.4c3.2 8.8 7.8 16.8 13.4 24.1.1.1.1 0 .2.1 5.5 7.2 12.1 13.5 19.5 18.8.2.2.5.3.7.5 3.5 2.5 7.3 4.7 11.1 6.7.5.3 1.1.5 1.7.8 3.6 1.8 7.3 3.3 11.2 4.6.4.1.7.3 1.1.4 4 1.3 8.2 2.2 12.4 3 .9.2 1.9.3 2.8.4 4.3.6 8.7 1 13.2 1 15.4 0 29.8-3.9 42.6-10.5L172 872.3l-23.3-14.8z"/><path fill="#9D8874" d="M231.9 1066.5c7.7-4.2 15.7-8.4 24.1-12.7h.1c.2-.1.5-.2.7-.4l-7.4-137.8 13.5-16.9 12.4-15.5 43.9-33-.8-8.1-40.4 23.5-13.9-24.2-1.8 4.7 4.2 20.2-21.1 22.5-16.8 17.9-6.8-14-3.7-7.6-5.9 2.7 3.6 10.8 8.7 26.3-.1 1.7-15.8-22.1-28.8-40.3 20.6-37.1-4.9-.7-26.2 35.7-19.9-10.8-.4 6.1 23.2 14.8 25.1 39.2 25.5 39.8-9.3 125.5c5.8-3.3 12-6.7 18.3-10.1-.1 0 0-.1.1-.1z"/><path fill="#A0703B" d="M518 532.3l145 112v290.6c12-1.1 27-2 27-2.7v-291l91-26.8v315.8c12 .3 40 1.1 53 2.5v-338l171-57.5V959.5c25 3.9 39 8.2 52 13V510.9l-9.3-7.5-227.8-169.7-11.8-8.9-13.4 6.4-316.8 151.3-12.9 6.7v483.2c13-4.6 26-8.9 53-13V532.3zm135.2 59.3l-20.1-14.7 31.5-12.1L684 580l-30.8 11.6zm42.5-2.5l18.3 14.3-30.2 10.6-18.7-13.7 30.6-11.2zm-15.3-148.4l18.5 14.5-44.8 19.6-17.1-13.5 43.4-20.6zm49.2 17.3l51.4-20.8v27.4l-28.2 10.8-23.2-17.4zm3.1 23.8l-46.4 18.6-20.5-16.3 45.3-19.3 21.6 17zm43.3-1.9v16.8l-14.2-11.3 14.2-5.5zm60-1.9l4.5 3.5-4.5 1.8V478zm-2-20.2v-1.2l44.6-17.1 23.3 17.1-46.1 18.1-21.8-16.9zm0-17.2v-28.9l4.8-1.8 25 18.8-29.8 11.9zm-58-30.2l-11.9-9.4 11.9-5.7v15.1zm-8.2 14.6l-53.1 23.3-18.8-15 51.4-24.4 20.5 16.1zm-128.4 56.3l-37.2 16.3-15.6-12.4 36-17.1 16.8 13.2zm11.6 9.1l20.4 16-38.7 15.5-19.4-15.4 37.7-16.1zm32.4 25.4l23.5 18.5-39.1 15.5-23.6-18.8 39.2-15.2zm14.9-5.8l47-18.3 23.1 18.1-46.9 18.6-23.2-18.4zM834 498.9l18.5-6.9 20.7 16.5-39.2 14.6v-24.2zm36.1-13.4l46.7-18 22.3 16.6-48.1 18-20.9-16.6zm-298 6.6l15.3 12-33.5 14.7-14.9-10.9 33.1-15.8zm26.4 20.7l19.2 15.1-33.2 13.3-19.4-14.2 33.4-14.2zm30.7 24.1l23.9 18.8-31.7 12.6-25.2-18.5 33-12.9zm50.2 22.1l39.6-15.3 19.9 15.6-40 15.1-19.5-15.4zm56.9-20.9l44.7-16.2v23.6l-23.5 8.3-21.2-15.7zM776 560v11.5l-9.9-7.9 9.9-3.6zm58-15.9v-5.8l53.1-19.1 21.3 16.5-59 20.3-15.4-11.9zm70.7-31.2l49.2-17.9 22.7 16.9-50.9 17.7-21-16.7zm-173.2 85.4l-19.6-14.5 39.9-14.8 21.2 14.8 8.1-3.6v1.7l-49.6 16.4z"/><path fill="#97A822" d="M123.3 1135.1s.5-.4 1.3-1c-.8.6-1.3 1-1.3 1zM124.8 1134zM1271 1056.6c-72.7-37.1-143.7-64.4-212.5-84.3-16.7-4.8-33.3-9-49.7-12.9-50.7-12.1-100-20.1-147.8-24.6-8.6-.8-17.2-1.5-25.7-2.1-20.2-1.4-40.1-2.3-59.6-2.5-27.6-.4-54.5.3-80.8 2-11.7.7-23.2 1.7-34.6 2.8-52.4 5-101.9 13.6-148 24.6-17 4-33.6 8.4-49.7 13l-16.2 4.8c11.3-2 23.6-3.8 36.7-5.5 248.9-51.4 325.5 7.5 293.9 31.9-33.9 26.2-.2 23.3 187.8 33.3 167.9 8.9 229.3 58.1 251.8 97.1h188c-45.1-25.2-89.6-55.2-133.6-77.6zM136.3 1125.5c2.6-1.9 5.6-4 9-6.4-3.4 2.4-6.4 4.5-9 6.4zM409.8 988.9zM129.2 1130.7c1.7-1.3 3.9-2.9 6.4-4.7-2.5 1.8-4.7 3.4-6.4 4.7zM231.6 1066.7c-6.3 3.4-12.5 6.8-18.3 10.1-29.4 16.7-52 31.4-67.2 41.9 18.2-12.6 47.1-31.2 85.5-52zM409.6 989c-59.2 20.1-110.5 42.9-152.8 64.4-.2.1-.5.2-.7.4 42.4-21.7 94.1-44.6 153.5-64.8zM256.1 1053.8c-8.4 4.3-16.5 8.5-24.1 12.7 7.6-4.2 15.6-8.4 24.1-12.7z"/><path fill="#95AA6E" d="M821.7 1110.8c-210.9 1.5-212.5-25.9-135.5-95.2 77-69.3-261.7-30.6-261.7-30.6 20.6-5.1 40-10.1 58.6-13.9-13.1 1.6-25.4 3.9-36.7 4.9 0 1-.1.6-.1.6-12.5 3.8-24.6 8-36.5 12-.1 0-.1.2-.2.2-59.5 20.2-111.1 43.2-153.5 64.8l-.1.1c-8.4 4.3-16.5 8.6-24.1 12.7-.1.1-.2.1-.4.2-38.3 20.8-67.3 39.5-85.6 52-.2.2-.5.3-.7.5-3.4 2.3-6.4 4.5-9 6.4-.2.2-.4.3-.7.5-2.5 1.8-4.7 3.4-6.4 4.7-.2.1-.3.2-.5.4-1.7 1.2-3 2.3-3.9 2.9-.1.1-.1-.5-.2-.4-.8.6-1.3.5-1.3.5h847.3c-10.1-12.1-46.4-24-148.8-23.3z"/><path fill="#9D8874" d="M964.9 1036.9c-188.1-10-221.7-7.4-187.8-33.6 31.5-24.4-45-83.2-293.9-31.7-18.6 3.8-38.1 8.3-58.6 13.5 0 0 338.7-38.5 261.7 30.8s-75.4 96.5 135.5 94.9c102.4-.7 138.7 11.2 149 23.2h246c-22.6-39-84-88.2-251.9-97.1zM1175 897.5s16.4-32.8 53.6-31.3c0 0-34.2-11.9-53.6 7.5 0 0-25.3-25.3-55.1-6 0 0 46.2 1.5 55.1 29.8zM1241 765.1s12.5-25.1 41.1-24c0 0-26.3-9.1-41.1 5.7 0 0-19.4-19.4-42.3-4.6.1.1 35.5 1.3 42.3 22.9zM1136.6 725.3s6.3-12.6 20.6-12c0 0-13.1-4.6-20.6 2.8 0 0-9.7-9.7-21.1-2.3 0 .1 17.7.6 21.1 11.5zM935.4 698.4s-13.1-4.6-20.6 2.8c0 0-9.7-9.7-21.1-2.3 0 0 17.7.6 21.1 11.4 0 .1 6.3-12.4 20.6-11.9z"/></svg>