<svg xmlns:xlink="http://www.w3.org/1999/xlink"  xmlns="http://www.w3.org/2000/svg" viewBox="0 0 150 150"><path fill="none" d="M132.9 71.3c-.1-1.2-.3-2.4-.4-3.5l-5.2 1.6c2 .4 3.8 1 5.6 1.9zM36.8 59.5L22 47.6c-1.6 2.8-3 5.7-4.1 8.8l16.3 3.8c.9-.2 1.8-.5 2.6-.7zM133.1 79.4c-.2.3-.5.5-.8.6-.3.1-.6.2-.9 0-3.2-1.4-6.5-2-10-2h-.2c-.7 0-1.3-.7-1.4-1.4 0-.7.6-1.4 1.3-1.4h.2c3.9 0 7.6.7 11.1 2.3.3.1.5.4.7.7v-1c0-.9 0-1.8-.1-2.7-3.9-2.1-8.3-3.2-12.8-3.2-2.3 0-4.6.3-6.8 1-7.4 2.1-13.5 7.2-16.8 14.2l-.5 1-.9-.5c-1.5-.4-3.1-.5-4.6-.5h-1c1.5.8 2.8 1.8 4 2.9 1.3 0 2.6.1 3.9.3.9-1.8 2-3.4 3.3-4.9.5-.6 1.3-.6 1.9-.2.6.5.6 1.3.2 1.9-1.4 1.6-2.5 3.4-3.4 5.3l-.5 1-1.1-.3c-.5-.1-1.1-.2-1.6-.3.6.8 1.2 1.6 1.7 2.5.8 0 1.5.1 2.2.3.9-1.8 2-3.4 3.4-4.9.5-.6 1.3-.6 1.9-.1.6.5.6 1.3.1 1.9-1.4 1.6-2.5 3.4-3.4 5.3l-.5 1-1.1-.3c-.4-.1-.8 0-1.2 0 .4 1 .8 2.2 1 3.2h27.8c3-7.1 4.7-14.1 4.9-21.7zm-26.9 3.7c-.5.1-1.1 0-1.4-.5-.5-.6-.3-1.4.2-1.9 3.1-2.4 6.6-4.1 10.4-5 .7-.2 1.4.3 1.6 1 .2.7-.3 1.4-1 1.6-3.4.8-6.6 2.3-9.4 4.5-.1.2-.3.3-.4.3zm5.9 3.6c-.6.3-1.5.1-1.8-.5-.3-.7-.1-1.5.6-1.8 3.6-1.9 7.6-2.9 11.7-3 2.1 0 4.2.2 6.3.7.7.2 1.2.9 1 1.6-.1.5-.5.8-.9 1-.2.1-.4.1-.7 0-1.8-.4-3.7-.7-5.6-.7-3.8.1-7.4 1-10.6 2.7zM39.4 29.7l17.7 18.6L52.2 25l12.6 21.2 1.1-23.6 7 22.9 7-22.9L81 46.2 93.6 25l-4.9 23.3 17.7-18.6-10.7 21.9 21.7-14.9C106.5 24.9 91 17.6 73.7 17.6c-17.5 0-33.4 7.5-44.4 19.8l20.8 14.3-10.7-22zM124.5 46.1c-2-3.4-4.4-6.5-7.1-9.4L101.6 56l22.9-9.9zM29.1 37.7c-2.4 2.8-4.6 5.8-6.5 9l21.6 9.4-15.1-18.4zM132.2 66.3c-.6-3.1-1.4-6.2-2.4-9.1l-20 10.3 22.4-1.2zM129.4 56.1c-1.2-3.3-2.7-6.4-4.5-9.3l-18.4 14.7 22.9-5.4zM75.6 95.8c-.1.8-.9 1.3-1.7 1.1-.9-.2-1.8-.3-2.7-.3-1.3 0-2.5.1-3.8.3l-1.5.3-.2-1.5c-.3-2.2-.9-4.4-1.8-6.5-.3-.7 0-1.6.7-1.9.7-.3 1.6 0 1.9.7.8 1.9 1.4 3.8 1.8 5.8 1-.1 2-.2 3-.1 1.1 0 2.2.1 3.2.3.7.3 1.3 1 1.1 1.8zm-7.4-13.3c.7-.3 1.6.1 1.9.8.8 1.9 1.3 3.8 1.7 5.8 1.1-.1 2.2-.2 3.3-.2 1 0 1.9.1 2.8.3.8.1 1.3.9 1.2 1.6-.1.8-.9 1.3-1.6 1.2-.8-.1-1.6-.2-2.5-.2-1.4 0-2.8.1-4.1.4l-1.5.3-.2-1.5c-.3-2.2-.9-4.4-1.7-6.5-.3-.9 0-1.7.7-2zm-12-12.7c.4-.7 1.3-.9 2-.5l.2.1c3.5 2.2 6.5 5 8.8 8.3.4.6.3 1.5-.4 2-.4.3-.8.4-1.2.3-.3-.1-.6-.3-.8-.6-2.1-3.1-4.8-5.6-7.9-7.5l-.2-.1c-.7-.4-.9-1.3-.5-2zM61.1 80c.5.6.5 1.5 0 2-.4.4-.9.5-1.4.3-.2-.1-.4-.2-.6-.4-1.4-1.4-3-2.7-4.7-3.8-3.3-2-7.1-3.2-10.9-3.5-.9.1-1.5-.6-1.5-1.4.1-.8.7-1.4 1.5-1.3 4.3.3 8.5 1.6 12.2 3.9 2 1.2 3.8 2.6 5.4 4.2zM40.3 65.4c4.2-.4 8.3 0 12.3 1.4.7.3 1.1 1.1.9 1.8-.3.7-1.1 1.1-1.8.9-3.6-1.2-7.3-1.6-11.1-1.2h-.5c-.5-.2-1-.6-1-1.2-.2-1 .4-1.7 1.2-1.7zm-19.2.9c.3-.7 1.2-1 1.9-.7.7.3 1.4.7 2 1.1 1.2.7 2.3 1.6 3.4 2.5 1.8-1.1 3.8-2 5.8-2.6.7-.2 1.6.2 1.8.9.2.7-.2 1.6-.9 1.8-2.1.7-4.2 1.7-6.1 2.9l-1 .6-.8-.8c-1.1-1.1-2.3-2.1-3.6-2.9-.6-.3-1.1-.7-1.7-.9-.8-.3-1.1-1.1-.8-1.9zm-.5 6.5c.3-.7 1.2-1 1.9-.7l2.4 1.2c1.1.7 2.1 1.5 3.1 2.3 1.8-1.1 3.8-1.9 5.8-2.6.8-.2 1.6.2 1.8.9.2.8-.2 1.6-.9 1.8-2.2.7-4.2 1.6-6.1 2.8l-1 .6-.8-.8c-1-1-2.1-1.9-3.4-2.7-.7-.4-1.3-.8-2-1.1-.8-.1-1.1-1-.8-1.7z"/><path fill="#FDBB16" d="M20 57.6c1.9.6 3.8 1.4 5.5 2.4 1.3.8 2.5 1.7 3.6 2.7 1.7-1 3.4-1.8 5.2-2.5L18 56.4c-.1.2-.1.4-.2.6.7.2 1.4.4 2.2.6zM138.4 66h-.8v.2l.8-.2zM70.9 78.5c-2.2-5.2-5.9-9.7-10.8-12.8 4.6 3.1 8.4 7.6 10.8 12.8z"/><path fill="#FDBB16" d="M53.7 59.6c2.6.8 5.1 1.9 7.4 3.3 7.6 4.7 12.8 12.2 14.3 21 1.2-.2 2.4-.2 3.6-.2 2 .1 4 .4 5.9.9h.1c1.8-.5 3.7-.8 5.5-.8 1.4 0 2.9.1 4.3.4 3.7-7.2 10.2-12.5 18-14.7 2.4-.7 5-1 7.5-1.1 2.4 0 4.7.3 7 .8l5.2-1.6c-.1-.5-.2-1-.3-1.4l-22.4 1.3 20-10.3c-.1-.4-.3-.7-.4-1.1l-22.9 5.4 18.4-14.7c-.1-.2-.2-.4-.4-.6l-22.8 9.9 15.8-19.3-.1-.1-21.7 14.9 10.7-21.9-17.7 18.6L93.6 25 81 46.2l-1.1-23.6-7 22.9-7-22.9-1.1 23.6L52.2 25l4.9 23.3-17.7-18.6 10.7 21.9-20.7-14.3-.3.3 15 18.4-21.6-9.4c-.2.3-.4.6-.5.9l14.8 11.8c5.5-1.3 11.3-1.3 16.9.3z"/><path fill="#34A49E" d="M117 76.8c-.2-.7-.9-1.2-1.6-1-3.8.9-7.3 2.6-10.4 5-.6.5-.7 1.3-.2 1.9.3.4.9.6 1.4.5.2 0 .3-.1.5-.2 2.8-2.2 6-3.7 9.4-4.5.6-.3 1.1-1 .9-1.7zM128.8 84.7c.5-.1.8-.5.9-1 .2-.7-.3-1.4-1-1.6-2-.5-4.2-.7-6.3-.7-4.1 0-8.1 1.1-11.7 3-.7.3-.9 1.2-.6 1.8.3.7 1.2.9 1.8.5 3.2-1.7 6.8-2.6 10.4-2.6 1.9 0 3.8.2 5.6.7.5-.1.7-.1.9-.1zM67.5 84.3c.9 2.1 1.4 4.3 1.7 6.5l.2 1.5 1.5-.3c1.4-.3 2.7-.4 4.1-.4.8 0 1.7.1 2.5.2s1.5-.4 1.6-1.2c.1-.8-.4-1.5-1.2-1.6-.9 0-1.9-.1-2.8-.1-1.1 0-2.2 0-3.3.2-.4-2-.9-3.9-1.7-5.8-.3-.7-1.1-1.1-1.9-.8-.7.3-1 1.1-.7 1.8zM56.7 71.8l.2.1c3.2 1.9 5.9 4.5 7.9 7.5.2.3.5.5.8.6.4.1.8.1 1.2-.2.6-.4.8-1.3.4-2-2.3-3.4-5.3-6.2-8.8-8.3l-.2-.1c-.7-.4-1.5-.2-2 .5-.4.6-.2 1.5.5 1.9zM40 68.1c.2.1.4.1.5 0 3.8-.4 7.5 0 11.1 1.2.8.3 1.6-.1 1.8-.9.3-.7-.1-1.6-.9-1.8-4-1.3-8.1-1.8-12.3-1.4-.8.1-1.4.8-1.3 1.6.1.7.6 1.2 1.1 1.3zM21.8 68.2c.6.3 1.2.6 1.7.9 1.3.8 2.6 1.8 3.6 2.9l.8.8 1-.6c1.9-1.2 3.9-2.2 6.1-2.9.7-.2 1.2-1.1.9-1.8-.2-.7-1.1-1.2-1.8-.9-2 .7-4 1.5-5.8 2.6-1-.9-2.2-1.8-3.4-2.5-.6-.4-1.3-.8-2-1.1-.7-.3-1.6 0-1.9.7-.2.8.1 1.6.8 1.9zM85.1 91.8c-.7-.4-1.6-.2-1.9.4-.4.8-.2 1.8.5 2.2 2.8 1.6 5.1 3.6 6.7 6.6h3.3c-1.9-4-4.9-7.1-8.6-9.2z"/><path fill="#34A49E" d="M74.5 94.2c-1-.2-2.1-.3-3.2-.3-1 0-2 0-3 .1-.4-2-1-3.9-1.8-5.8-.3-.7-1.1-1.1-1.9-.7-.7.3-1.1 1.2-.7 1.9.9 2.1 1.5 4.2 1.8 6.5l.2 1.5 1.5-.3c1.3-.3 2.5-.4 3.8-.3.9 0 1.8.1 2.7.3.8.1 1.5-.4 1.7-1.1.2-1-.4-1.7-1.1-1.8zM42 73.2c-.1.8.5 1.5 1.3 1.5 3.8.3 7.6 1.5 10.9 3.5 1.7 1.1 3.3 2.3 4.7 3.8.2.2.4.3.6.4.5.1 1 0 1.4-.3.6-.5.6-1.5 0-2-1.6-1.6-3.4-3-5.3-4.2-3.7-2.3-7.9-3.6-12.2-3.9-.6-.1-1.3.5-1.4 1.2zM21.4 74.7c.7.3 1.4.7 2 1.1 1.2.8 2.4 1.7 3.4 2.7l.8.8 1-.6c1.9-1.2 3.9-2.2 6.1-2.8.8-.2 1.2-1 .9-1.8-.2-.8-1-1.2-1.8-.9-2 .6-4 1.5-5.8 2.6-.9-.9-2-1.6-3.1-2.3-.8-.5-1.6-.9-2.4-1.2-.7-.3-1.6 0-1.9.7-.3.5 0 1.4.8 1.7zM80.9 96.7c-.7-.4-1.6-.3-1.9.4-.4.7-.2 1.7.5 2.1.8.5 1.6.7 2.3 1.7h4.1c-1.5-1.9-3.1-3.1-5-4.2z"/><path fill="#B3D135" d="M90.4 101H19.2c9.2 21 30.2 35.9 54.6 35.9 24.4 0 45.4-14.9 54.6-35.9h-38z"/><path fill="#34A49E" d="M137.7 66.2V66c-5.3-30.5-31.9-53.9-63.9-53.9-28 0-52.1 17.5-61.1 43.1 0 .1 0 .1-.1.2-1.2 3.5-1.7 4.8-2.4 8.6-1 4.2-1.3 13-1.3 13 0 35.8 29.1 64.9 64.9 64.9 35.8 0 64.9-29.1 64.9-64.9-.1-3.7-.4-7.3-1-10.8zM22 47.6c.2-.3.4-.6.5-.9 1.9-3.2 4.1-6.2 6.5-9l.3-.3c10.9-12.2 26.8-19.8 44.4-19.8 17.2 0 32.8 7.4 43.7 19.1l.1.1c2.6 2.9 5 6 7.1 9.4.1.2.2.4.4.6 1.8 3 3.3 6.1 4.5 9.3.1.4.3.7.4 1.1 1 2.9 1.8 6 2.4 9.1.1.5.2 1 .3 1.4.2 1.2.3 2.3.4 3.5-1.8-.8-3.7-1.5-5.6-2-2.3-.5-4.6-.8-7-.8-2.5 0-5.1.4-7.5 1.1-7.8 2.2-14.3 7.5-18 14.7-1.4-.3-2.8-.4-4.3-.4-1.9 0-3.7.3-5.5.8H85c-2-.6-4-.9-6-.9-1.2 0-2.4 0-3.6.2-1.6-8.7-6.7-16.3-14.3-21-2.3-1.4-4.8-2.5-7.4-3.3-5.6-1.6-11.4-1.6-16.9-.1-.9.2-1.7.5-2.6.8-1.8.7-3.5 1.5-5.2 2.5-1.1-1-2.3-1.9-3.6-2.7-1.7-1-3.6-1.9-5.5-2.4-.7-.2-1.5-.4-2.3-.5.1-.2.1-.4.2-.6 1.2-3.2 2.6-6.2 4.2-9zM15.1 67c.4-2.5 1-4.9 1.7-7.2.8.1 1.6.3 2.3.5 1.7.5 3.3 1.2 4.8 2.1 1.4.9 2.8 1.9 3.9 3.1l.8.8 1-.6c6.9-4.5 15.4-5.7 23.2-3.4 2.3.7 4.6 1.7 6.7 3 .2.1.3.2.5.3 4.9 3.1 8.6 7.6 10.8 12.8 1 2.3 1.6 4.7 2 7.2l.2 1.5 1.5-.3c1.5-.3 2.9-.4 4.4-.4 1.8 0 3.5.5 5.2 1 6.6 1.9 11.5 6.5 13.5 13.5h3c-.3-1-.6-2.2-1-3.2.4.1.8 0 1.2.1l1.1.2.5-1c.9-1.9 2-3.7 3.4-5.3.5-.6.4-1.4-.1-1.9-.6-.5-1.4-.4-1.9.1-1.3 1.5-2.4 3.2-3.4 4.9-.7-.1-1.5-.2-2.2-.3-.5-.9-1.1-1.7-1.7-2.5.5.1 1.1.2 1.6.3l1.1.3.5-1c.9-1.9 2-3.7 3.4-5.3.5-.6.4-1.4-.2-1.9-.6-.5-1.4-.4-1.9.2-1.3 1.5-2.4 3.2-3.3 4.9-1.3-.2-2.6-.4-3.9-.3-1.2-1.1-2.6-2-4-2.9h1c1.6 0 3.1.2 4.6.5l1.1.3.5-1c3.3-7 9.4-12.1 16.8-14.2 2.2-.6 4.5-.9 6.8-1 4.6 0 8.9 1.1 12.8 3.2 0 .9.1 1.8.1 2.7v1c-.1-.3-.4-.5-.7-.7-3.5-1.5-7.3-2.3-11.1-2.3h-.2c-.7 0-1.3.8-1.3 1.5s.6 1.4 1.4 1.4h.2c3.5 0 6.9.5 10 1.9.3.1.6.1.9 0 .3-.1.6-.4.8-.7-.3 7.6-2 14.8-4.8 21.4-9.1 21.1-30.2 35.9-54.6 35.9-24.4 0-45.4-14.8-54.6-35.9-3.1-7.2-4.9-15.2-4.9-23.5-.2-1.8-.4-4.9.5-9.8z"/></svg>