<svg xmlns:xlink="http://www.w3.org/1999/xlink"  xmlns="http://www.w3.org/2000/svg" viewBox="0 0 1500 1500"><path fill="none" d="M441 500h-69v77.7c28 7.9 41 17.4 69 28.6V500zM1000 500v115.6c27-22.5 55-41 83-56.3V500h-83zM567 500h-70v128.8c28 13.5 56 29.2 70 47V500z"/><path fill="#B69879" d="M1000 615.6V500h83v59.3c13-9 28-16.9 56-23.8V500h28.5c5.4 0 9.7-1.1 9.7-6.5s-4.4-6.5-9.7-6.5H1139V380c0-13.4-14.6-24.3-28-24.3s-28 10.9-28 24.3v107h-83V380c0-13.4-8.1-24.3-21.5-24.3S957 366.6 957 380v107h-83V380c0-13.4-7.6-24.3-21-24.3s-21 10.9-21 24.3v107h-84V380c0-13.4-7.6-24.3-21-24.3s-21 10.9-21 24.3v107h-84V380c0-13.4-14.1-24.3-27.5-24.3S567 366.6 567 380v107h-70V380c0-13.4-14.6-24.3-28-24.3s-28 10.9-28 24.3v107h-69V380c0-13.4-15.1-24.3-28.5-24.3S315 366.6 315 380v107h-15c-5.4 0-9.7 1.1-9.7 6.5s4.3 6.5 9.7 6.5h15v64.2c15 3.9 43 8.4 57 13.4V500h69v106.3c28 6.8 42 14.3 56 22.5V500h70v175.7c28 11.3 42 23.3 55 36.5V500h84v236.4c0 13.4 7.6 24.3 21 24.3s21-10.9 21-24.3V500h84v236.4c0 13.4 7.6 24.3 21 24.3s21-10.9 21-24.3V500h83v166.7c15-18.9 28-35.9 43-51.1z"/><path fill="#718F40" d="M43 534c-2-.1-4-.1-6-.1 1.8 0 4 0 6 .1zM494.6 628.8c-16.2-8.2-32.4-15.7-48.6-22.5-26.5-11.2-52.9-20.6-78.9-28.6-16.4-5-32.7-9.5-48.6-13.4C195.6 534.2 89.3 534.9 43 534c50.3 1.9 102.3 30.6 197.3 217.7 136.5 331.1 348.6 299.2 493.8 319.5 145.2 20.3 87.1 191.7 87.1 191.7s26.1 32 37.8-5.8c11.6-37.8 5.8-95.8-20.3-136.5C542.4 745.9 252 612.3 188.1 574.5c403.8 138.5 668.1 540.3 668.1 540.3s-2.9-46.5-20.3-90c-51-140.9-127.6-241.1-213.7-312.5-15.9-13.2-32.1-25.2-48.6-36.5-25.9-17.8-52.3-33.5-79-47z"/><path fill="#98C21F" d="M1132.2 535.4c-16.3 6.9-32.6 14.8-48.6 23.8-27.2 15.3-53.8 33.8-78.9 56.3-16.9 15.2-33.2 32.2-48.6 51.1-41.6 51.2-76.6 116.9-99.9 201.1 0-5.8 206.2-302.1 499.6-360.2-52.3 20.3-313.7 113.3-496.7 400.8-23.2 34.9-20.3 110.4 5.8 151.1 20.3 26.1 26.1-11.6 26.1-11.6s-72.6-174.3 75.5-194.6c148.1-20.3 264.3-61 307.9-197.5 43.6-136.5 188.8-156.9 188.8-156.9s-167.5-32.3-331 36.6z"/></svg>