<svg xmlns:xlink="http://www.w3.org/1999/xlink"  xmlns="http://www.w3.org/2000/svg" width="100" height="100" viewBox="0 0 100 100"><path fill="#6B9B30" d="M29.093 10.466c.516-.3.915.21 1.349.43-.059.373-.175 1.122-.236 1.495.605.121 1.495-.318 1.976.25.314.708.24 1.606.856 2.17 1.692 1.768 3.063 3.805 4.266 5.931-.424-2.019.362-4.404 2.555-4.916.437 1.128.996 2.337.37 3.511 2.39.61 3.472 3.19 2.879 5.464-1.341-.483-2.732-1.181-3.41-2.506-.241-.871.188-1.765.325-2.618a47.409 47.409 0 0 1-2.225 1.632c1.545 1.787 3.305 3.419 5.418 4.514a59.833 59.833 0 0 1 1.564-3.467c.707-1.707 1.328-2.976 3.266-4.896-.784 1.503-1.696 3.055-2.746 5.425-2.201 5.094-3.025 10.792-1.919 16.263.717-1.698 2.517-2.093 4.182-1.749-.496 1.74-1.96 3.081-3.801 3.191.274.819.54 1.635.795 2.462.252-.531.472-1.086.82-1.563.665-.318 1.417-.408 2.135-.579.253 1.654-.695 3.154-2.253 3.689 1.262.939 1.747 2.62 3.116 3.397.156.338.321.682.481 1.027a40.907 40.907 0 0 1 1.339-3.938c.569-1.211 1.252-3.184 2.864-4.375-1.146-.185-2.437-.092-3.415-.817-.687-.735-.735-1.817-1.004-2.736 2.19-.609 4.226.788 5.062 2.774-.628-1.622-1.16-3.305-1.271-5.05.065-1.13.394-2.227.572-3.344-.592-.768-.812-2.19.4-2.486.524.178 1.606-.042 1.646.752.445 1.1-.82 1.554-1.385 2.225-.511 2.204-.068 4.488.762 6.56 1.547-1.536 3.202-2.969 5.023-4.171-.696-3.722-1.453-7.648-.301-11.366.57-2.043 1.811-3.809 3.162-5.416.057-.762-.303-1.728.435-2.267.713-.624 1.72-.123 2.57-.163-.021.98.252 2.26-.78 2.853-.583.06-1.172.083-1.758.075-.416.54-.847 1.073-1.255 1.624 1.165-.301 2.451-1.242 3.665-.57.729.45 1.183 1.213 1.734 1.858-1.781 1.33-4.309 1.106-5.72-.63-.202.369-.599 1.115-.797 1.486.538.153 1.08.318 1.622.48l-.086 1.139c-.259.005-.778.009-1.035.009a15.608 15.608 0 0 0-.56-1.578c-.459 1.433-.853 2.888-.994 4.391.377-.511.676-1.095 1.154-1.521.724-.242 1.494-.275 2.256-.387.116 1.971-1.367 3.639-3.331 3.794-.079-.421-.232-1.264-.313-1.683.223 2.467.493 4.946 1.303 7.303a27.624 27.624 0 0 1 12.185-3.495c3.238-.132 5.097-.132 6.423.491-1.842.277-3.723.083-6.23.101-.775.064-1.543.123-2.312.184.863.355 1.973.448 2.565 1.257.371.753.549 1.583.769 2.395-2.275.616-4.73-.795-5.208-3.13-1.627.452-3.19 1.11-4.816 1.583.85.327 1.906.961 1.689 2.045-.106 1.336-1.948 1.954-2.879 1.02-.636-.504-.344-1.435-.474-2.126-1.223.86-2.456 1.703-3.67 2.579.8.41 1.82.671 2.31 1.499-.953 1.891-3.392 1.9-5.122 1.233-.579.759-1.165 1.521-1.736 2.291-.783 1.223-1.422 2.667-1.933 4.128-.517 1.112-.7 2.346-1.047 3.52 1.693-3.417 5.863-4.137 9.313-3.832-.571-1.036-1.402-2.17-1.01-3.417.38-.778.965-1.426 1.499-2.106 1.856 1.468 1.876 4.044.87 6.015 1.905-3.465 5.103-6.083 8.82-7.402.074-1.628 1.979-2.728 3.276-1.396.435-1.203 1.037-2.346 2.462-2.479.156 1.138-.465 2.15-1.567 2.479-1.097.367-.298 1.92-1.213 2.49-.945.882-2.141.106-2.875-.619-.729.371-1.45.749-2.167 1.135 1.542.232 3.276.202 4.565 1.222.85.933.803 2.315 1.127 3.474-1.326 0-2.82.224-3.916-.703-1.318-.77-1.897-2.228-2.333-3.605-1.782 1.562-3.346 3.373-4.424 5.499 3.671 1.183 7.56 1.433 11.378.979-1.011-.683-.615-2.211-.143-3.118.455-1.102 1.662-1.444 2.664-1.852.133.834.36 1.667.303 2.517-.265 1.09-1.353 1.591-2.275 2.012l1.252.188.051.215c-1.221.588-2.566.851-3.876 1.157 1.663.579 2.417 2.331 2.22 3.999-.846-.196-1.838-.159-2.512-.781-.693-.915-.657-2.107-.766-3.189-2.818.296-5.654-.116-8.383-.808-2.195-.551-4.574-.851-6.748-.062-2.577.896-4.284 3.654-4.108 6.347 1.112-.439 2.238-.844 3.399-1.154-.165-2.425 1.7-4.679 4.195-4.677-.02.915.044 1.844-.132 2.75-.526.985-1.637 1.308-2.622 1.631 2.506-.209 5.177-.051 7.325 1.391 4.202 3.411 10.185 4.099 15.245 2.347.562-2.059 2.745-2.87 4.687-2.882-.236 1.192-.528 2.623-1.713 3.241-1.475.371-3.056.051-4.478.659-3.889 1.333-8.435 1.435-12.033-.765.919.953 1.878 2.015 2.086 3.372.079.802-.145 1.604-.243 2.396-1.103-.389-2.4-.509-3.268-1.365-1.051-1.479-.845-3.386-.669-5.082.579.167 1.16.342 1.744.515-2.565-1.855-5.826-2.795-8.953-1.992 1.158 1.078 1.941 2.595 1.371 4.191-.762-.291-1.56-.497-2.236-.963-.658-.698-.57-1.744-.768-2.617-.551.338-1.1.676-1.642 1.02 1.079 3.156.804 6.562 1.784 9.744 1.854-.802 3.681-1.677 5.572-2.403-.589.705-1.126 1.468-1.839 2.05-.843.574-1.831.979-2.459 1.811-1.158 1.451-1.359 3.372-1.599 5.151-.481 3.311-.694 6.684-.325 10.012.351 2.664 1.685 5.604 4.45 6.467 6.482 1.771 13.233 2.168 19.889 2.93 17.2 2.027 1.106 1.517-24.128 1.229-4.576-.35-9.153.081-13.729.071-20.772.538-23.609-1.219-8.553-2.369 4.008-.404 8.06-.691 11.979-1.667 2.048-.478 3.902-1.951 4.486-4.022 2.243-6.967 3.536-14.309 3.184-21.639-.222-3.198-.915-6.416-2.497-9.231-2.076 4.642-5.719 8.864-10.703 10.414.18.077.544.238.726.313.569 2.319-.103 5.513-2.813 6.023-.234-1.191-.703-2.39-.546-3.625.347-1.163 1.417-1.844 2.291-2.59-2.825.832-5.811.863-8.71.507-.593-.176-1.168.042-1.71.252l.586.289c-.53.68-.844 1.77-1.871 1.753-.404-.022-1.213-.06-1.614-.083.58-1 1.348-1.959 2.604-2.049-.011-.217-.027-.653-.037-.873-1.846.302-2.72-1.536-2.869-3.057 1.736.028 4.523 1.398 3.32 3.509 2.424-.125 4.881-.057 7.252-.679-.957-.555-2.277-.94-2.62-2.128-.128-.811.074-1.621.171-2.421 2.175.255 3.637 2.217 3.476 4.367 5.581-1.65 10.448-6.196 11.416-12.091-.252-.225-.762-.676-1.016-.9-.531.378-1.056.755-1.582 1.14.458 1.11 1.034 2.298.682 3.53-.079 1.346-1.176 2.212-2.08 3.06-.553-.861-1.211-1.692-1.455-2.706-.004-1.374.917-2.48 1.856-3.384-2.974 1.856-6.722 2.178-10.064 1.276.972 2.195-.15 4.745-2.311 5.685-.368-.887-.824-1.769-.94-2.739.244-1.38 1.461-2.212 2.38-3.146-2.372-.278-4.759-.051-7.064.535 1.271 2.4-.499 4.986-2.505 6.305-.493-1.172-1.129-2.44-.73-3.741.151-.912 1.018-1.431 1.589-2.076-1.559.771-3.123 1.546-4.519 2.592.082 2.039-1.671 3.433-3.479 3.911-.058-1.094-.238-2.344.501-3.26 1.012-.982 2.614-.873 3.691-1.764 2.673-2.153 5.954-3.662 9.414-3.857 2.595-.254 5.118.737 7.711.557 2.904-.072 5.708-1.296 7.782-3.312a43.327 43.327 0 0 1-2.014-3.287c-.795-1.606-2.599-2.195-3.992-3.145.463 1.001.687 2.37-.399 3.06-1.296 1.051-3.217-.232-3.085-1.78.13-.97 1.032-1.459 1.731-2.006-.338-.082-1.022-.241-1.365-.323-.864.948-2.187 1.677-3.467 1.093-.894-.266-1.102-1.227-1.582-1.887-2.2-.189-4.417.265-6.571.687-.067-.125-.199-.365-.263-.492 2.186-.963 4.588-1.128 6.929-1.455.534-1.227 1.879-2.177 3.249-1.706 1.132.257 1.657 1.374 1.999 2.377 1.894.544 3.708 1.314 5.454 2.222-.83-2.593-2.688-4.681-4.532-6.618-2.677-2.77-6.337-4.572-10.192-4.835-.789.54-1.645.171-2.453.139-.09.928.708 1.871.229 2.817-.246 1.211-1.286 1.956-2.24 2.611-.353-.828-.863-1.644-.867-2.57.224-1.171 1.227-1.949 2.2-2.51l.257-.652c-1.337.176-2.665.362-3.984.617.89.826 1.557 2.234.642 3.296-1.02 1.356-3.579.656-3.489-1.14.042-.293.132-.886.18-1.178-.214-.18-.425-.354-.63-.524.949-.404 1.894-.83 2.874-1.159-1.958.467-3.509-1.148-4.207-2.798 1.068-.129 2.214-.413 3.235.086.724.663 1.093 1.597 1.564 2.44 1.762-.551 3.584-.88 5.41-1.13 2.831.283 5.709.827 8.172 2.33 1.124-3.34.735-7.387-1.852-9.956-1.035-.979-2.129-2.934-.769-4.073.515.489.783 1.157 1.083 1.791-.255.417-.502.834-.756 1.249 1.766 1.438 3.284 3.292 3.817 5.555.485 2.126.292 4.342 0 6.484 1.905 1.532 3.762 3.167 5.228 5.135-.288-3.671-.134-7.406.992-10.943-1.911-1.26-3.854-2.653-5.001-4.688-.915-1.669-1.97-3.241-2.903-4.896a2.907 2.907 0 0 1-1.049 1.414c-.078-.289-.234-.88-.317-1.174.285-.083.845-.248 1.125-.334-1.042-1.083-1.762-2.936-3.511-2.894-.94.037-1.06-1.047-1.094-1.718-.941.921-2.238.658-3.339.244.468-.384.863-.983 1.526-1.025.717.088 1.371.419 2.066.625-.505-.72-1.14-1.437-1.084-2.379z"/><path fill="#6B9B30" d="M47.095 11.199c.803-.006.987.915 1.301 1.49.637 1.438.281 3.156-.979 4.123-.579-.833-1.292-1.621-1.586-2.606-.109-1.155.538-2.175 1.264-3.007zM64.942 14.965c-1.183-.834-.443-2.493.714-2.987.24 1.041.3 2.318-.714 2.987zM49.016 17.238c.864-1.027 2.01-2.277 3.52-1.788.584.254 1.718.313 1.648 1.169-1.194 1.442-3.6 2.482-5.196 1.074a3.303 3.303 0 0 1 .26-2.07c-.06.404-.176 1.212-.232 1.615zM30.292 15.983c.923-.58 2.028.072 2.917.437-.219 1.604-2.555 1.87-3.716 1.095-.442-.656.415-1.112.799-1.532zM53.654 21.771c2.282-.355 4.313 1.444 4.444 3.699-1.328-.018-2.789-.099-3.816-1.044-.399-.83-.469-1.76-.628-2.655zM45.046 24.695c.937-.7 1.894-1.742 3.175-1.61.606.305 1.148.713 1.714 1.09-1.177 1.576-3.404 1.752-4.889.52zM20.753 25.086c1.49-.074 3.189 0 4.344 1.08.693.889.623 2.113.871 3.164-1.114-.063-2.365.024-3.263-.771-1.222-.743-1.587-2.196-1.952-3.473zM27.584 24.896c2.196.346 3.232 2.69 2.936 4.722-1.217.224-2.394-.658-2.957-1.676-.232-1.006-.032-2.037.021-3.046zM69.086 25.624c.771-.365 1.705-.922 2.572-.571.614 2.319-1.067 4.606-3.351 5.045-.133-1.486-.347-3.296.779-4.474zM43.65 29.67c.579-1.31 1.439-2.629 2.835-3.165.97 0 1.88.404 2.8.672-.733 2.37-3.414 3.268-5.635 2.493zM62.843 32.328c-.457-1.811-.487-4.619 1.716-5.251.766.852 1.102 2.403.488 3.468-.402.925-1.386 1.329-2.204 1.783zM38.807 27.07c2.023.127 3.154 2.19 2.763 4.056-1.078-.4-2.109-.94-2.908-1.775.042-.767.09-1.526.145-2.281zM80.194 27.73c.818-.615 1.899-.272 2.837-.242-.618 1.666-2.152 3.136-4.065 2.638.323-.831.609-1.726 1.228-2.396zM49.902 31.009c-.707-.663-.219-1.689-.202-2.513 1.813.32 2.795 1.954 2.976 3.671-1.014-.111-2.125-.287-2.774-1.158zM49.158 32.789c.77.112 1.683-.062 2.306.517.869.525.709 1.659.902 2.515-1.184-.213-3.081-.427-3.208-3.032zM13.211 31.943c.732-.309 1.467-.807 2.305-.702.601.265 1.109.695 1.654 1.057l-.684.545.429.594c-.738.419-1.473.85-2.188 1.299-.182 1.591-1.729 2.324-3.16 2.427.191-.596.236-1.283.666-1.78.641-.875 1.916-.511 2.745-1.081.56-.36 1.075-.786 1.609-1.186-1.281.169-2.524-.193-3.376-1.173zM55.349 31.213c.838-.371 1.8-.199 2.694-.281.086 2.374-2.022 4.121-4.314 3.994.3-1.31.46-2.84 1.62-3.713zM38.184 31.549c1.615.039 3.623 1.439 3.101 3.212-.981.582-2.111-.252-2.846-.891-.225-.752-.194-1.551-.255-2.321zM28.611 34.761c.976-1.927 3.339-2.708 5.247-1.639-.706.911-1.375 2.032-2.548 2.375-.966.204-1.83-.429-2.699-.736zM17.272 32.74c1.796 1.387 1.23 3.836-.099 5.311-.616-.796-1.146-1.709-1.143-2.745.441-.843 1.046-1.607 1.242-2.566zM26.653 35.953c.89.011 1.791-.042 2.671.123 1.17.852 1.409 2.39 1.647 3.718-2.265.124-4.163-1.607-4.318-3.841zM78.862 44.9c-1.406-2.526.678-5.111 2.928-6.169.425 1.367.794 2.985-.005 4.289-.792.873-1.931 1.3-2.923 1.88zM16.297 41.492c.959-.373 2.003-1 3.052-.531.799.455 1.242 1.291 1.706 2.056.986-.472 1.984-.933 2.969-1.417.317.153.64.318.961.484-1.453.202-2.766 1.031-4.222 1.126l-.229-.014c-.794-.043-1.589-.072-2.375-.155-.829-.186-1.307-.979-1.862-1.549zM22.758 43.748c.813-1.222 2.408-1.424 3.716-1.775.265 2.317-1.533 4.393-3.862 4.422.023-.883-.07-1.785.146-2.647zM47.311 46.015c.125-.818.682-1.446 1.246-2.006.654 1.192.825 2.649-.187 3.722-.436-.516-.876-1.062-1.059-1.716zM66.455 46.506c.498-1.635 2.21-2.333 3.798-1.929-.31.63-.577 1.293-.979 1.872-.921.266-1.884.103-2.819.057zM29.316 46.307c1.275-.004 2.59-.18 3.844.143 1.494.698 2.024 2.418 2.528 3.862.521-.57.898-1.499 1.809-1.465 1.436-.34 2.719 1.378 2.05 2.669-.652 1.626-3.32 1.395-3.645-.365.004.272.02.803.022 1.069-1.788.03-3.652-.389-4.893-1.765-1.281-1.004-1.471-2.659-1.715-4.148zM76.754 47.327c1.184-.035 2.475-.147 3.52.555 1.198.518 1.606 1.824 2.071 2.933-1.033.217-2.139.666-3.183.307-1.378-.77-2.101-2.309-2.408-3.795zM21.204 49.702c2.265-1.769 5.285-.253 6.689 1.865-1.232.631-2.649 1.295-4.055.839-1.117-.629-1.826-1.752-2.634-2.704zM27.611 50.737c-.696-1.422 1.945-2.339 2.333-.83.381.658-.396 1.242-.567 1.847-.636-.216-1.573-.207-1.766-1.017zM74.24 56.952c-.774-2.873 1.692-5.15 4.267-5.768.38 1.508.278 3.283-.838 4.464-1.006.722-2.26.961-3.429 1.304zM17.711 53.601c.68-.577 1.26-1.403 2.178-1.582 1.368-.035 2.436.944 3.414 1.778-1.591 1.537-4.067 1.266-5.592-.196zM70.934 56.052c-.63-1.04-.204-2.089.894-2.537.291.501 1.153.825.956 1.52-.032.962-1.192.867-1.85 1.017zM37.991 56.265c-.644-.921.596-1.411 1.169-1.871.338.542 1.242 1.049.799 1.792-.31.809-1.578.879-1.968.079zM76.372 57.729c2.26-.281 4.605 1.363 4.419 3.788-.894-.095-1.859.087-2.692-.299-1.126-.793-1.368-2.26-1.727-3.489zM70.692 58.356c1.438.32 3.187.649 3.948 2.084.498 1.167.262 2.482.313 3.714-2.964-.101-4.42-3.158-4.261-5.798zM44.407 66.375c-1.247-2.129-.492-4.927 1.718-6.062.527 1.367 1.304 2.965.553 4.404-.601.74-1.494 1.144-2.271 1.658zM49.858 14.454c.028-1.959 1.091-4.136 3.286-4.249-.114 1.128.292 2.638-.825 3.38-.676.605-1.63.654-2.461.869zM60.308 14.011c1.513 1.031 1.809 3.081.841 4.606-.79-.764-1.718-1.543-1.813-2.721.138-.707.621-1.275.972-1.885zM56.908 16.76c1.096.615 2.709 1.069 2.88 2.532.27.953-.16 1.859-.595 2.68-.891-.771-1.951-1.49-2.359-2.651-.373-.821-.015-1.723.074-2.561zM54.76 28.735c-.232-1.411 1.563-1.903 2.665-1.681-.579.87-1.387 2.425-2.665 1.681zM36.779 36.774c.915.303 2.233.191 2.758 1.174a4.67 4.67 0 0 1 .321 3.285c-2.057-.437-3.443-2.359-3.079-4.459z"/><path fill="#6B9B30" d="M21.727 39.988c-.765-1.966 1.968-3.673 3.46-2.277 1.057.829.779 2.249.237 3.296-.264-.035-.782-.099-1.045-.131l.628.737c-1.199-.099-2.947-.152-3.28-1.625zM27.658 43.089c1.036-1.055 2.758-1.856 4.21-1.369.526 1.257-.389 2.55-1.251 3.413-.881.989-2.277 1.007-3.492 1.085.156-1.044.133-2.141.533-3.129zM79.35 46.072c1.674-1.323 3.921-.792 5.435.507-.711.755-1.647 1.418-2.732 1.319-1.194.015-1.971-1.045-2.703-1.826zM66.373 54.516c-.813-2.375 1.486-4.632 3.781-4.81.018 1.351.49 3.162-.95 3.978-.851.439-1.858 1.328-2.831.832zM31.928 70.172c-.448-2.202 1.112-4.154 3.189-4.692.378 1.336.223 2.934-.728 4.003-.759.408-1.636.497-2.461.689z"/><g fill="#6B9B30"><path d="M35.192 14.072c.474-.461.974-1.159 1.714-1.063.886 1.567-.183 3.254-1.353 4.308-.586-.93-1.172-2.259-.361-3.245zM33.345 19.501c1.479-.167 3.024.435 3.327 2.041-.799-.119-1.736.198-2.458-.254-.65-.345-.609-1.205-.869-1.787zM52.836 27.304c-.141-.678.391-1.178.759-1.661.603.953.816 2.049.852 3.165-.668-.292-1.596-.637-1.611-1.504z"/></g><path fill="#6B9B30" d="M65.414 14.987c1.229-.698 2.655-.757 3.848.065-.911 1.134-3.533 1.932-3.848-.065zM26.447 18.568c1.343-.735 2.629.013 3.317 1.24-1.294.259-2.618-.048-3.317-1.24zM28.439 21.039c.692-.562 1.495-.939 2.342-1.211l.003.731.863-.261c.087 2.01-2.136 1.4-3.208.741z"/><g fill="#6B9B30"><path d="M35.825 23.232c.305-.516.847-.823 1.292-1.207.395 1.215.289 2.576-.891 3.298-.138-.687-.615-1.376-.401-2.091zM66.272 42.482c1.176-.771 2.043 1.257.841 1.711-1.016.667-2.002-1.328-.841-1.711z"/></g><path fill="#6B9B30" d="M31.592 26.596c.911.313 2.324.042 2.793 1.112.507.829.572 1.821.706 2.761-2.098.038-3.84-1.745-3.499-3.873zM79.439 30.513c1.117-.029 2.521-.226 3.346.717.692.665.749 1.681.973 2.563-1.904.018-4.483-1.066-4.319-3.28zM54.148 35.235c.937-.924 2.506.498 1.514 1.427-.82 1.026-2.328-.437-1.514-1.427zM74.094 38.134c.794-.083 1.606-.329 2.425-.235.899.246 1.326 1.134 1.795 1.861-1.655.641-3.405-.079-4.22-1.626zM20.13 44.564c.431-.204.896-.454 1.371-.2.056.303.16.909.211 1.207-.552.977-1.542 1.493-2.558 1.846.074-.981-.187-2.392.976-2.853z"/></svg>