<svg xmlns:xlink="http://www.w3.org/1999/xlink"  xmlns="http://www.w3.org/2000/svg" viewBox="0 0 150 150"><path fill="#9F6928" d="M10.7 97c0-34.7 29.7-62.9 66.2-62.9 33.1 0 60.5 23 65.4 53.1v-1.7c0-37.6-30.5-68.1-68.1-68.1-37.6 0-68.1 30.5-68.1 68.1 0 11.9 3 23 8.4 32.7-2.4-6.6-3.8-13.7-3.8-21.2z"/><path fill="#29AAE2" d="M67.1 105.1c4.3 3.1 12.9 7.2 22 7.2 14.5-.1 30.1-5.7 30-5.1 0-.1-35.6 23.2-49.6 10.3-5.6-5.2-9.5-9.2-20.2-9.8C36 107 16 123.5 16 123.4c0 0 17.1-16.7 27.6-21.4 10.5-4.7 12.3-4.9 23.5 3.1z"/><path fill="#53C5CF" d="M64.6 120.9c3.9 3.6 11.8 8.9 20.7 10.5-4.6.7-11.9 2.4-19.7-.7-6.6-2.7-13.8-9.9-18.6-11.1-12.9-3.2-35.6 9.3-35.6 9.3s20.1-12.5 31.4-15.2c11.2-2.7 15 1 21.8 7.2z"/><path fill="#36BEC5" d="M119.8 110.9c3.6-2.7 8.5-6 13.2-6.3 7.4-.5 12.8 3.3 12.8 3.2.1 0-11.7-3.6-20 9.8-4.8 7.8-13.2 8.6-18.8 8.1-5.7-.4-7-3.8-6.9-3.7 0 0 7.6-2.3 19.7-11.1z"/><g fill="#184822"><path d="M81.4 53.8l-8.3 12.8 2.9.3-5.1 7.4 2.9.3-5.1 8 5.4-.9S67.5 90 68.4 90c.9 0 6-.3 6-.3s-6 6.9-4.9 6.3c1.1-.6 9.1-4.3 9.1-4.3v20.8h2.6V91.7l10 4-4.3-6.9s5.7 1.4 4.9 1.1c-.9-.3-4.6-6.2-4.6-6.2l4.4-.4-4.8-6.3 4.3-.3-4.8-4.6 3.5 1-3.5-6.5 2.7.2-7.6-13zM110.3 67l-5.9 9.2 2.1.2-3.7 5.3 2.1.2-3.7 5.7 3.9-.6s-4.7 5.9-4.1 5.9c.6 0 4.3-.2 4.3-.2s-4.3 4.9-3.5 4.5c.8-.4 6.6-3.1 6.6-3.1v15h1.8v-15l7.2 2.9-3.1-4.9s4.1 1 3.5.8c-.6-.2-3.3-4.5-3.3-4.5l3.1-.3-3.4-4.6 3.1-.2-3.4-3.3 2.5.7-2.5-4.6 2 .2-5.6-9.3zM53.5 65.7L47.6 75l2.1.2-3.7 5.3 2.1.2-3.7 5.7 3.9-.6s-4.7 5.9-4.1 5.9c.6 0 4.3-.2 4.3-.2S44.2 96.4 45 96c.8-.4 6.6-3.1 6.6-3.1v15h1.8V93l7.2 2.9-3.2-4.9s4.1 1 3.5.8c-.6-.2-3.3-4.5-3.3-4.5l3.1-.3-3.4-4.6 3.1-.2-3.4-3.4 2.5.7L57 75l2 .2-5.5-9.5z"/></g></svg>