<svg xmlns:xlink="http://www.w3.org/1999/xlink"  xmlns="http://www.w3.org/2000/svg" viewBox="0 0 150 150"><path fill="none" d="M79.1 92.4h7.5v24.2h-7.5zM69.1 92.4h7.5v24.2h-7.5zM59 92.4h7.6v24.2H59zM89.2 92.4h7.5v24.2h-7.5z"/><path fill="#914020" d="M76.6 77.4v12.5h-7.5V77.4h-2.5v12.5H59V77.4h-2.5v12.5h-4.9v2.5h4.9v24.2h-4.9v2.5h4.9v15.6H59v-15.6h7.6v15.6h2.5v-15.6h7.5v15.6h2.5v-15.6h7.5v15.6h2.5v-15.6h7.5v15.6h2.5v-15.6h4.9v-2.5h-4.9V92.4h4.9v-2.5h-4.9V77.4h-2.5v12.5h-7.5V77.4h-2.5v12.5h-7.5V77.4h-2.5zM59 116.6V92.4h7.6v24.2H59zm10.1 0V92.4h7.5v24.2h-7.5zm27.7-24.2v24.2h-7.5V92.4h7.5zm-10.1 0v24.2h-7.5V92.4h7.5z"/><path fill="#46803C" d="M111.7 37.8S79 35.5 79.5 70.3c0 0 6.5-10 11.7-12.7 0 0-6.6 6.6-7.6 14.3.1.1 29.3 5.9 28.1-34.1zM74.7 70.3c.5-34.8-32.2-32.5-32.2-32.5-1.2 40 28 34.2 28 34.2-.9-7.7-7.5-14.3-7.5-14.3 5.2 2.6 11.7 12.6 11.7 12.6zM106.6 104h18.5v37.5h-95V104h18.1v-3.8H26.3v45.1h102.6v-45.1h-22.3z"/><path fill="#F7CD26" d="M128.6 44.1c-1.6-6.4-4.5-12.8-8.9-18.6-4.3-5.7-10-10.8-16.7-14.4-6.6-3.6-14.2-5.8-22-6.4-7.8-.4-15.7.9-22.8 3.7-1.8.6-3.5 1.5-5.2 2.4-1.8.8-3.4 1.9-5 3l-1.2.8-1.1.8-2.1 1.7-.5.4-.3.2-.1.1-.1.2-.2.1-1 1c-.7.7-1.3 1.3-2 1.9-5.2 5.3-9 11.6-11.5 18s-3.5 12.9-3.6 18.9c-.1 6 .8 11.5 2.2 16.2.2.6.3 1.2.5 1.7.2.6.4 1.1.6 1.6.4 1.1.8 2.1 1.2 3.1.9 1.9 1.8 3.7 2.6 5.2 1 1.5 1.9 2.9 2.7 4.1.8 1.2 1.5 1.9 2 2.6 1.1 1.4 1.7 2.1 1.7 2.1l.1.1c1.5 1.8 4.2 2 6 .5 1.8-1.5 2-4.2.5-6.1 0 0-.6-.7-1.7-2-.5-.7-1.4-1.5-2-2.4-.6-.9-1.3-2-2.2-3.1-.7-1.3-1.5-2.8-2.4-4.4-.4-.8-.7-1.7-1.1-2.6-.2-.4-.4-.9-.6-1.4-.2-.5-.3-1-.5-1.5-1.4-4-2.2-8.7-2.4-13.9-.1-5.2.6-10.8 2.6-16.4 2-5.6 5.2-11.2 9.6-16l1.7-1.8.9-.9.9-.8 2-1.7 1-.8 1-.7c1.4-.9 2.6-1.9 4.2-2.7 1.5-.8 3-1.7 4.6-2.3 6.3-2.8 13.4-4.1 20.5-4 7 .3 14.1 2.1 20.3 5.2 6.3 3.2 11.6 7.6 15.9 12.9 4.2 5.2 7.1 11.1 8.8 17 1.7 6 2.1 11.9 1.7 17.3-.4 5.4-1.6 10.3-3.3 14.3l-.6 1.5c-.2.5-.5 1-.7 1.4-.5 1-.9 1.8-1.3 2.7-1 1.7-2 3.1-2.8 4.5-1 1.2-1.8 2.4-2.6 3.3-.7 1-1.6 1.7-2.1 2.3-1.2 1.2-1.8 1.9-1.8 1.9v.1c-.3.3-.3.6 0 .9.2.3.7.3.9 0 0 0 .7-.6 1.9-1.9.6-.6 1.5-1.3 2.3-2.3.8-1 1.8-2.1 2.8-3.4.9-1.4 2-2.8 3-4.5l1.5-2.7c.2-.5.5-.9.8-1.4.2-.5.4-1 .7-1.5 1.9-4.2 3.3-9.3 3.9-14.9.7-5.5.4-11.8-1.2-18.2z"/></svg>