<svg xmlns:xlink="http://www.w3.org/1999/xlink"  xmlns="http://www.w3.org/2000/svg" viewBox="0 0 1500 1500"><path fill="none" d="M1229.9 949l-2.1-2.1c.8.8 1.5 1.6 2.3 2.4 0-.1-.1-.2-.2-.3zM1199.9 918.9l7.4 7.1c-2.4-2.4-4.9-4.7-7.4-7.1zM1252.7 973.9c2.4 2.7 4.8 5.5 7.2 8.3-2.4-2.8-4.8-5.6-7.2-8.3zM457.6 710.4c-.2 0-.4.1-.6.1.2 0 .4 0 .6-.1zM1176 896.6c2.6 2.4 5.3 4.8 7.9 7.2-2.6-2.4-5.2-4.8-7.9-7.2zM1275.4 1000.3l8.1 9.9-8.1-9.9zM1298.6 1029.2l7.2 9.3c-2.3-3.1-4.7-6.2-7.2-9.3zM519.1 700.1c-.5.1-1 .1-1.5.2.5-.1 1-.1 1.5-.2zM988.8 769c.9.4 1.8.9 2.6 1.3-.8-.4-1.7-.9-2.6-1.3zM1025.8 788.3s-.1 0-.1-.1c.3.2.6.4.9.5-.3-.1-.5-.2-.8-.4zM1074.3 817.9l6.3 4.2c-2.1-1.5-4.2-2.9-6.3-4.2zM1100.1 835.5c1.6 1.1 3.2 2.2 4.7 3.4-1.5-1.1-3.1-2.2-4.7-3.4zM1152.6 876.2c2.2 1.9 4.5 3.8 6.7 5.7-2.2-1.8-4.4-3.8-6.7-5.7zM1049.8 802.4c1.9 1.1 3.7 2.3 5.6 3.5-1.9-1.2-3.7-2.4-5.6-3.5zM184.4 800.9c-1 .4-1.9.9-2.9 1.3 1-.4 2-.8 2.9-1.3zM268.5 765.4c-.4.1-.7.3-1.1.4.3-.1.7-.3 1.1-.4zM246.2 774.1c-.6.2-1.2.5-1.7.7.5-.2 1.1-.4 1.7-.7zM224.5 783.1c-1.1.5-2.1.9-3.2 1.4 1-.5 2.1-.9 3.2-1.4zM165.6 809.9c-1.1.5-2.2 1.1-3.3 1.6 1.1-.5 2.2-1.1 3.3-1.6zM202.5 792.7c-.4.2-.7.3-1.1.5.3-.2.7-.3 1.1-.5zM428 716.7c-.3.1-.7.2-1 .2.4 0 .7-.1 1-.2zM293.6 756.1c-.8.3-1.7.6-2.5.9.8-.3 1.7-.6 2.5-.9zM371.7 731.1c-.5.1-1 .3-1.4.4.4-.1.9-.3 1.4-.4zM344.1 739.3l-.9.3.9-.3z"/><path fill="#00B26E" d="M1298.6 1029.2c-5-6.5-10.1-12.8-15.1-19l-8.1-9.9c-5.1-6.2-10.3-12.2-15.5-18.1-2.4-2.8-4.8-5.6-7.2-8.3-7.5-8.4-15-16.6-22.5-24.6-.8-.8-1.5-1.6-2.3-2.4-6.8-7.1-13.7-14.1-20.5-20.9-2.5-2.4-4.9-4.8-7.4-7.1-5.3-5.1-10.6-10.2-16-15.1-2.6-2.4-5.3-4.8-7.9-7.2-5.5-5-11.1-9.9-16.7-14.6-2.2-1.9-4.5-3.9-6.7-5.7-15.8-13.3-31.8-25.7-47.8-37.3-1.6-1.1-3.2-2.2-4.7-3.4-6.5-4.6-13-9.1-19.5-13.5l-6.3-4.2c-6.3-4.1-12.6-8.2-18.9-12.1-1.9-1.2-3.7-2.3-5.6-3.5-7.7-4.7-15.5-9.2-23.2-13.6-.3-.2-.6-.4-.9-.5-11.4-6.4-22.8-12.3-34.2-17.9-.9-.4-1.8-.9-2.6-1.3-11.6-5.7-23.1-11-34.7-15.9-84.8-36.3-170.1-54.4-252.5-59.9-5.4-.4-10.8-.7-16.2-1-46.3-2.2-91.7-.4-135.5 4.1-10.4 1.1-20.7 2.3-30.9 3.7-.5.1-1 .1-1.5.2-20.4 2.8-40.5 6.2-60.1 10.1-.2 0-.4.1-.6.1-9.8 1.9-19.4 4-29 6.2-.3.1-.7.2-1 .2-19 4.3-37.5 9.1-55.4 14.2-.5.1-1 .3-1.4.4-8.9 2.5-17.6 5.1-26.2 7.8l-.9.3c-17.1 5.3-33.6 10.8-49.5 16.5-.8.3-1.7.6-2.5.9-7.7 2.8-15.3 5.6-22.6 8.4-.4.1-.7.3-1.1.4-7.2 2.8-14.3 5.5-21.2 8.3-.6.2-1.2.5-1.7.7-6.8 2.8-13.5 5.5-20 8.3-1.1.5-2.1.9-3.2 1.4-6.4 2.8-12.7 5.5-18.8 8.2-.4.2-.7.3-1.1.5-5.8 2.6-11.5 5.2-17 7.8-1 .4-1.9.9-2.9 1.3-5.5 2.6-10.8 5.1-15.9 7.6-1.1.5-2.2 1.1-3.3 1.6-5.2 2.5-10.2 5-15 7.5 6.5 7.6 13.5 15 20.9 22.1 705.7-157.7 1042.9 109 1155.4 231.3 1.3-1.4 2.7-2.9 4-4.3-7.2-10.1-14.5-19.8-21.8-29.4-2.3-3.2-4.7-6.3-7.2-9.4z"/><path fill="#A1CF89" d="M197.2 866.1c25.3 20 53.4 37.4 82 51.7 537.5-30.9 904.7 148.1 995.7 198 2.2-1.6 4.3-3.4 6.5-5.1C981.3 780.4 404 834.2 197.2 866.1z"/><path fill="#80CFA0" d="M440.3 966.3c102.1 18.5 196.4 30.7 284.6 92 189 27.7 338.9 76.8 440.8 118.5 17.1-6.8 33.9-14.7 50.1-23.4C990.7 980.2 672 955.6 440.3 966.3z"/><path fill="#A1CF89" d="M954.3 1206.4c46.9 6.5 97.5 2.9 147.1-9.2-103.2-53.7-217.5-85.1-330.4-102 52.1 45.8 113.7 101.5 183.3 111.2z"/><path fill="#D77D31" d="M701 693.2L480.9 405.7c-4.5 2-8.9 4-13.5 5.8-54.6 21.7-114.9 30.8-172 48.2l390 230.2h.1c5.4 0 15.6 1.9 15.6 2.3v1zM693.7 284.2c-45.2 18.7-85.3 46.2-126.1 72.6l185.2 314-59.1-386.6zM949.7 261.4c-51-12.9-104.4-13.8-156.5-5.3l12.3 399.8 144.2-394.5zM1157.1 407.7c-32.4-40.4-68.2-77.2-111.8-105.1L858.8 668.3l298.3-260.6zM1368 713.6L954.1 753c11.6 5 23.2 10.3 34.7 15.9.9.4 1.8.9 2.6 1.3 11.4 5.6 22.8 11.6 34.2 17.9 0 0 .1 0 .1.1.3.1.5.3.8.5 7.8 4.3 15.5 8.9 23.2 13.6 1.9 1.1 3.7 2.3 5.6 3.5 6.3 3.9 12.6 7.9 18.9 12.1l6.3 4.2c6.5 4.4 13 8.9 19.5 13.5 1.6 1.1 3.2 2.2 4.7 3.4 16 11.6 32 24.1 47.8 37.3 2.2 1.9 4.5 3.8 6.7 5.7 5.6 4.8 11.1 9.6 16.7 14.6 2.6 2.4 5.3 4.8 7.9 7.2 5.4 4.9 10.7 10 16 15.1l7.4 7.1c6.9 6.8 13.7 13.7 20.5 20.9l2.1 2.1 140.5 60.6c1-1.7 2.1-3.4 3-5.2 19.1-35.6 29.8-70.1 33.9-103.8 8-65.5-9.4-127.6-39.2-187zM1308 615.3c-12.5-17.8-25.4-35.3-38.5-52.7-17.9-23.8-35.2-48.7-52.6-73.6L899.6 704.9l408.4-89.6zM165.6 809.9c5.1-2.5 10.4-5 15.9-7.6 1-.4 1.9-.9 2.9-1.3 5.5-2.6 11.1-5.2 17-7.8.4-.2.7-.3 1.1-.5 6.1-2.7 12.4-5.5 18.8-8.2 1.1-.5 2.1-.9 3.2-1.4 6.5-2.8 13.2-5.5 20-8.3.6-.2 1.2-.5 1.7-.7 6.9-2.8 14-5.6 21.2-8.3.4-.1.7-.3 1.1-.4 7.4-2.8 14.9-5.6 22.6-8.4.8-.3 1.7-.6 2.5-.9 15.9-5.7 32.4-11.2 49.5-16.5l.9-.3c8.6-2.7 17.3-5.2 26.2-7.8.5-.1 1-.3 1.4-.4 17.9-5.1 36.4-9.8 55.4-14.2.3-.1.7-.2 1-.2 9.5-2.2 19.2-4.2 29-6.2.2 0 .4-.1.6-.1 19.6-3.9 39.6-7.3 60.1-10.1.5-.1 1-.1 1.5-.2 10.2-1.4 20.5-2.7 30.9-3.7l-381.8-168c-27.5 26.4-49.8 60.8-62.3 97.9-14.1 41.8-15.9 87 .8 128.2 9.2 22.8 23.3 44.4 40.6 64.5 4.8-2.4 9.9-4.9 15-7.5 1-.5 2.1-1.1 3.2-1.6z"/><path fill="#FFB18F" d="M1230.2 949.3c7.6 8 15.1 16.2 22.5 24.6 2.4 2.7 4.8 5.5 7.2 8.3 5.2 5.9 10.3 12 15.5 18.1l8.1 9.9c5.1 6.2 10.1 12.6 15.1 19 2.4 3.1 4.8 6.1 7.2 9.3 7.3 9.6 14.6 19.4 21.8 29.4 16.6-18.1 31-37.7 42.8-58.4L1229.9 949l.3.3z"/></svg>