<svg xmlns:xlink="http://www.w3.org/1999/xlink"  xmlns="http://www.w3.org/2000/svg" viewBox="0 0 1500 1500"><path fill="#FF893D" d="M701.4 1365c6.5.4 13.1.8 19.7 1 0-.1.1-.1.1-.2-6.7-.2-13.3-.4-19.8-.8zM791.9 1364.4zM1355 754.2c0-338.2-274.2-612.3-612.3-612.3-338.2 0-612.3 274.1-612.3 612.3 0 324.1 251.9 589.2 570.5 610.7 59.9-216.5 13.2-405.4-29.2-514.9-31.5 120.8-237.3 62.5-100.1-175.1-181.9 315-392.5-49.8-28.7-49.8-363.7 0-153.2-364.7 28.7-49.7-181.9-315 239.3-315 57.4 0 181.8-314.9 392.3 49.4 29.1 49.7C652 603.7 632.4 588 609 588c-28.5 0-51.5 23.1-51.5 51.5S580.6 691 609 691c9.2 0 17.8-2.6 25.3-6.9 33.9 61.7 44.4 110.8 40.8 147.3 94.3 173.2 103.1 340.2 82.2 453 39.4-81.4 102.5-191.5 189.2-279.7-55-6.2-66.9-100.8 65.2-109.1 0 .5-.2 1-.2 1.5 0 19.5 11 36.3 27 45-18 27-36.1 44-52.9 53.4-100.3 125.8-157.9 261.3-191.6 368.7 314.1-26 561-289.1 561-610zm-638.1 516.4c-66 29-83.7-29-83.7-29 49.9-20.9 83.7 29 83.7 29zm-17.7-204.4c-66 29-83.7-29-83.7-29 49.9-20.9 83.7 29 83.7 29zM634.6 684c15.5-8.9 26-25.4 26-44.5 0-5-.9-9.8-2.3-14.4 359.4.4 156.7 357.3-23.7 58.9zm182.1 445.4c-19.9-41.4 16.6-54 16.6-54 14.5 31.4-16.6 54-16.6 54zm-26.4-98.7c9.6-71.5 68.3-56.5 68.3-56.5-8.1 53.5-68.3 56.5-68.3 56.5zm111.9 114.1c49.6-36.4 75.2 8.6 75.2 8.6-37.7 26.8-75.2-8.6-75.2-8.6zm212.1-250.2c-.8-17.2-10-32.1-23.6-40.8 108.9-172.5 227.4 32.7 23.6 40.8zm-24.3-41.2c-7.9-4.9-17-7.8-27-7.8-7.8 0-15.1 1.8-21.7 4.9-90.9-177.7 143.2-176.7 48.7 2.9zm-49.5-2.4c-16.3 8-27.7 24.2-28.7 43.4-193.5-12.2-78.5-209.1 28.7-43.4zm-.9 91.8c7.1 3.6 15 5.9 23.5 5.9 10.6 0 20.5-3.2 28.8-8.8 89.3 175.3-138.3 176.3-52.3 2.9zm53-3.6c13.2-9.3 21.9-24.7 21.9-42.1 0-.6-.2-1.2-.2-1.7 202.6 8 86.6 211-21.7 43.8z"/><path fill="#8FCF69" d="M946.4 1004.7c-86.7 88.3-149.8 198.3-189.2 279.7 20.9-112.8 12.1-279.8-82.2-453-.6 6.6-4.2 12.8-5.7 18.6 42.4 109.6 89.7 298.5 26.7 515h2.9c6.5.4 14.4 3.1 21 3.3 0 .1.6 2.7.6 2.7h.3c7.2 0 14.5-2 21.8-2 8.9 0 17.9-1.5 26.7-1.9 7.6-.4 16.7-1.5 24.2-2.1.7-.1 3.6-.7 3.6-.8 25-107.4 89.9-242.9 190.1-368.7-14.4 8.1-29.3 10.5-40.8 9.2z"/><path fill="#FFFFFE" d="M658.2 625.2c1.3 4.6 2.3 9.3 2.3 14.4 0 19.1-10.5 35.6-26 44.5 180.5 298.3 383.2-58.6 23.7-58.9z"/><path fill="#FFFFFE" d="M634.3 684.2c-7.5 4.2-16 6.9-25.3 6.9-28.5 0-51.5-23.1-51.5-51.5 0-28.5 23.1-51.5 51.5-51.5 23.4 0 43 15.7 49.2 37.2 363.1-.3 152.6-364.6-29.1-49.7 181.9-315-239.3-315-57.4 0-181.9-315-392.5 49.7-28.7 49.7-363.7 0-153.2 364.8 28.7 49.8C434.5 912.5 640.3 970.8 671.8 850c1.5-5.8 2.6-12 3.2-18.6 3.6-36.5-6.8-85.6-40.7-147.2zM1040.5 851c-107.2-165.8-222.2 31.2-28.7 43.4 1-19.2 12.4-35.4 28.7-43.4zM1063 845.6c9.9 0 19.1 2.9 27 7.8 94.5-179.6-139.7-180.6-48.7-2.9 6.7-3 14-4.9 21.7-4.9zM1114.3 894.6c203.8-8.1 85.3-213.3-23.6-40.8 13.6 8.7 22.7 23.6 23.6 40.8zM1114.4 895.4c0 .6.2 1.1.2 1.7 0 17.4-8.7 32.8-21.9 42.1 108.2 167.2 224.2-35.8 21.7-43.8zM1063 948.7c-8.5 0-16.4-2.3-23.5-5.9-86 173.4 141.6 172.4 52.2-2.9-8.1 5.5-18 8.8-28.7 8.8zM985.6 995.5c16.8-9.4 34.9-26.4 52.9-53.4-16-8.7-27-25.5-27-45 0-.5.1-1 .2-1.5-132.1 8.4-120.2 102.9-65.2 109.1 11.4 1.3 24.8-1.1 39.1-9.2z"/><path fill="#8FCF69" d="M699.2 1066.2s-33.8-49.9-83.7-29c-.1 0 17.6 58 83.7 29zM633.1 1241.7s17.7 58 83.7 29c.1-.1-33.7-50-83.7-29zM816.7 1129.4s31.1-22.6 16.6-54c0 0-36.5 12.6-16.6 54zM790.3 1030.7s60.2-2.9 68.3-56.5c-.1 0-58.8-15-68.3 56.5zM902.2 1144.8s37.5 35.4 75.2 8.6c0 0-25.5-45-75.2-8.6z"/></svg>