<svg xmlns:xlink="http://www.w3.org/1999/xlink"  xmlns="http://www.w3.org/2000/svg" viewBox="0 0 1500 1500"><path fill="none" d="M1157 892.3l-652 194.9c22.6 4.5 43.4 14.2 61.3 27.7 137.7-43.8 461.4-146.8 593.9-189l-3.2-33.6zM506.5 1047.2l-244.4-258c-28.5 7.7-48.1 13.1-55.7 15.1 40.4 38 254.6 239.3 268.4 252.3 2.5-.7 13.8-4 31.7-9.4zM442.4 1250.7c0 1.3-.1 2.4 0 3.8-.1 0-.2-1.4 0-3.8-1.2-61 41.9-68 64.7-67.4-9.4-5.2-19.9-8.4-31.3-8.4-37 0-66.9 31.1-66.9 69.4s30 69.4 66.9 69.4 66.9-31.1 66.9-69.4c0-13.3-3.8-25.6-10-36.2-81.5-26.7-89.6 27.5-90.3 42.6zM978.4 1132.1c16.8-3.3 72.6-14.1 98.1-19.1-1-21-3.5-76-5.1-109.1l-167.8 53.4 74.8 74.8z"/><path fill="#748798" d="M1152.8 854c-3.5-27-34-260.5-38.6-296.2-33.8 9.2-655.4 178.1-852 231.5l244.4 258c130.9-39.3 620.6-185.6 646.2-193.3z"/><path fill="#5DC2E8" d="M287.7 615c9.8-24.9 47.7-105.9 124.9-120 18.6-45.2 70.5-106.8 162.6-83.1 22.2-13.5 90.5-47.3 162.5-8.8 41.8-25.9 117.2-50.4 168.1 3.1 24.1 1.1 90.1 8.7 113.2 52 28.2 4 80.3 14.3 109.2 37.5-19.3-224.6-207.4-400.9-437-400.9-242.4 0-439 196.5-439 439 0 35.3 4.3 69.6 12.2 102.5 7-8.6 14.6-16.1 23.3-21.3zm786.2-197h-38.1s-49-261.2-478.9-244.9c0 0 375.5-105.1 517 244.9z"/><path fill="#6CAB36" d="M992 493.1l-3.5-12.1c-8.6-30.1-69.8-37-90.6-37h-9.1l-5.7-7.1c-46.1-57.6-130.3 1.1-133.8 3.6l-10.4 7.4-10.8-6.8c-67.6-43-135.5 4.6-138.3 6.6l-7.8 5.5-9-2.8c-94.6-29.6-125.4 57.4-128.6 67.4l-3.9 12.1-12.6 1C354.6 537 321.3 633.2 321 634.1l-2.7 8.1-7.8 3.3c-24.3 10.4-44.1 60.7-55 102.8 22.1-4.9 45.1-10 68.6-15.2l776.3-210.9c-17.5-10.8-54.4-22.8-95.8-27.6l-12.6-1.5zM387.4 674.6c-.6 2.5-3.2 4.1-5.7 3.4-15.9-4-41.7 13.7-50.2 20.8-2 1.7-5 1.4-6.7-.6s-1.4-5 .6-6.7c1.4-1.2 34.8-28.7 58.6-22.7 2.5.7 4 3.3 3.4 5.8zm43.7-45.4c-34.8-5-54.7 19-55.5 20.1-1.6 2-4.6 2.4-6.6.7-2-1.6-2.4-4.6-.8-6.7.6-.7 8.3-10.1 22.4-17-2.2-7.6-6.1-12.5-11.9-14.9-16-6.6-40.7 6.9-41 7-2.3 1.3-5.2.4-6.4-1.8-1.3-2.3-.4-5.2 1.8-6.4 1.2-.6 29-15.9 49.2-7.5 8.3 3.4 14 10.2 17.1 20 9.2-3.1 20.3-4.7 33.1-2.9 2.6.4 4.4 2.8 4 5.4-.4 2.5-2.8 4.3-5.4 4zm22.3-70.3c-5.9 3.7-6 10.9-6 11.2-.1 2.6-2.2 4.7-4.8 4.7-2.6 0-4.7-2.1-4.7-4.7 0-.5.1-12.5 10.3-19.1 9.9-6.4 25.1-5.1 45.4 3.9 2.4 1.1 3.5 3.9 2.4 6.2-1.1 2.4-3.9 3.5-6.3 2.4-21.2-9.4-31.4-7.7-36.3-4.6zm47 52.6l-27.2 27.2c-1.9 1.9-4.9 1.9-6.7 0-1.9-1.9-1.9-4.8 0-6.7l27.2-27.2c1.8-1.9 4.9-1.9 6.7 0 1.9 1.9 1.9 4.8 0 6.7zm71.1-81.9c-1.7 2-4.7 2.3-6.7.6-28.5-23.8-52.2 3.7-53.2 4.8-1.7 2-4.7 2.3-6.7.6s-2.3-4.7-.6-6.7c.2-.2 8.1-9.5 20.6-14.6-1.1-6.9-3.7-11.3-8.1-13.2-15.5-6.6-48.6 14.9-60.1 23.7-2.1 1.6-5 1.2-6.6-.9-1.6-2.1-1.2-5 .9-6.6 4.7-3.6 46.3-34.8 69.6-24.9 7.2 3.1 11.6 9.6 13.5 19.2 10.6-1.9 23.3 0 36.8 11.3 2 1.7 2.2 4.7.6 6.7zm104.1-61.2c-1 2.4-3.7 3.6-6.2 2.6-23.4-9.4-48.6 25.2-48.8 25.6-1.5 2.1-4.5 2.6-6.6 1.1s-2.6-4.5-1.1-6.6c.6-.9 9.3-12.8 21.9-21.6-.4-.6-.8-1.2-.9-1.9-.9-4.5-2.8-7.3-5.9-8.7-8.8-4-25.1 3.3-30.6 6.5-2.3 1.3-5.2.5-6.5-1.8s-.5-5.2 1.8-6.5c2.5-1.4 24.5-13.6 39.3-6.9 3.9 1.8 8.9 5.8 10.9 14.5 9.1-4.6 19.5-6.7 30.1-2.4 2.4.9 3.6 3.7 2.6 6.1z"/><path fill="#415766" d="M324.1 733.1c-23.5 5.3-46.5 10.3-68.6 15.2 10.9-42.1 30.8-92.4 55-102.8l7.8-3.3 2.7-8.1c.3-1 33.6-97.1 106.9-103.2l12.6-1 3.9-12.1c3.2-10 34.1-97 128.6-67.4l9 2.8 7.8-5.5c2.9-2 70.7-49.7 138.3-6.6l10.8 6.8 10.4-7.4c3.6-2.5 87.8-61.2 133.8-3.6l5.7 7.1h9.1c20.8.1 82 7 90.6 37l3.5 12.1 12.5 1.5c41.4 4.9 78.3 16.9 95.8 27.6l24.8-6.7c5.3-1.4 10.9-.5 15.5 2.5 4.3 2.8 7.1 7.3 8.1 12.4-1.1-13.9-8.9-25.4-20.5-34.7-29-23.2-81-33.5-109.2-37.5-23.2-43.3-89.1-51-113.2-52-51-53.5-126.4-29-168.1-3.1-72-38.4-140.3-4.7-162.5 8.8-92.1-23.7-144 37.9-162.6 83.1-77.3 14.1-115.1 95.1-124.9 120-8.6 5.2-16.3 12.7-23.3 21.3-31.5 39-46.9 104.7-51.4 127l111.1-30.2z"/><path fill="#160000" d="M1367.1 462.3c-3.4-12.6-16.4-20.1-29.1-16.7l-134.2 36.3c-10.5 2.8-17.5 12.3-17.5 22.8 0 1.6.2 3.3.5 5l69 323.1c1 4.6 1.5 9 1.5 13.3 0 35.1-31.5 56.8-39 61.5-.5.2-8.1 1.2-21.1 5.3l-4.6-49.8h-.1s.1.9 0 .7L1149 530.6c0-.3-.2-.3-.2-.6-.9-5-3.8-9.4-8.1-12.2-4.5-3-10.2-3.9-15.5-2.4l-24.8 6.8-776.3 210.9-111 30.2-49.2 13.4c-6.6 1.8-11.8 7-13.4 13.7-1.7 6.7.4 13.7 5.4 18.4l295.5 277.7c-73.5 12.2-129.7 78.1-129.7 157.8 0 88.4 69 160 154.2 160 85.1 0 154.2-71.7 154.2-160 0-33.9-10.2-65.3-27.5-91.1l250.3-79.7 101 101 21.3 6.5 130.6-25.4 19.1-24.4-6.6-142.2 117.1-37.3c1.5-.5 3-1.1 4.3-1.9 2.9-1.7 65.2-37.1 65.2-103 0-7.7-.8-15.9-2.7-24.4 0 0-56.1-262.6-64.2-300.7 30.5-8.2 112.5-30.4 112.5-30.4 10.6-2.9 17.5-12.4 17.5-22.9-.1-2-.4-4-.9-6.1zm-800.8 652.6c-17.9-13.5-38.7-23.2-61.3-27.7l652-194.9 3.2 33.6c-132.5 42.2-456.3 145.2-593.9 189zM262.1 789.3c196.6-53.4 818.2-222.3 852-231.5 4.7 35.8 35.1 269.2 38.6 296.2-25.6 7.7-515.3 154-646.3 193.2-17.9 5.4-29.2 8.7-31.6 9.4-13.8-13-228-214.3-268.4-252.3 7.6-2 27.2-7.3 55.7-15zm213.7 524.4c-37 0-66.9-31.1-66.9-69.4 0-38.4 30-69.4 66.9-69.4 11.4 0 21.9 3.2 31.3 8.4-22.9-.6-66 6.4-64.7 67.4.7-15.1 8.8-69.4 90.3-42.6 6.2 10.6 10 22.9 10 36.2 0 38.3-30 69.4-66.9 69.4zm600.7-200.7c-25.5 5-81.3 15.8-98.1 19.1l-74.8-74.8 167.8-53.4c1.6 33.2 4.1 88.1 5.1 109.1zM432.4 619.8c-12.9-1.8-23.9-.2-33.1 2.9-3.1-9.8-8.8-16.6-17.1-20-20.2-8.4-48 6.9-49.2 7.5-2.3 1.3-3.1 4.2-1.8 6.4 1.3 2.3 4.1 3.1 6.4 1.8.3-.1 25-13.6 41-7 5.8 2.4 9.8 7.3 11.9 14.9-14.1 6.9-21.8 16.4-22.4 17-1.6 2-1.3 5 .8 6.7 2 1.6 5 1.3 6.6-.7.8-1 20.7-25 55.5-20.1 2.6.4 5-1.4 5.4-4 .4-2.6-1.4-5-4-5.4zM496 561.1c1.1-2.4 0-5.2-2.4-6.2-20.2-9-35.5-10.3-45.4-3.9-10.1 6.6-10.3 18.6-10.3 19.1 0 2.6 2.1 4.7 4.7 4.7s4.7-2.1 4.8-4.7c0-.3.2-7.5 6-11.2 4.8-3.1 15-4.8 36.3 4.6 2.4 1.1 5.2 0 6.3-2.4zM534 511.6c-1.8-9.5-6.3-16.1-13.5-19.2-23.3-9.9-64.9 21.3-69.6 24.9-2.1 1.6-2.5 4.6-.9 6.6 1.6 2.1 4.6 2.5 6.6.9 11.5-8.8 44.7-30.3 60.1-23.7 4.4 1.9 7 6.3 8.1 13.2-12.5 5.2-20.5 14.4-20.6 14.6-1.7 2-1.4 5 .6 6.7s5 1.4 6.7-.6c1-1.2 24.7-28.6 53.2-4.8 2 1.7 5 1.4 6.7-.6s1.4-5-.6-6.7c-13.5-11.3-26.2-13.2-36.8-11.3zM673 462.3c-10.6-4.3-21-2.1-30.1 2.4-2.1-8.6-7-12.7-10.9-14.5-14.7-6.7-36.8 5.5-39.3 6.9-2.3 1.3-3.1 4.2-1.8 6.5s4.2 3.1 6.5 1.8c5.5-3.2 21.9-10.5 30.6-6.5 3.1 1.4 5 4.3 5.9 8.7.1.7.5 1.4.9 1.9-12.6 8.8-21.2 20.7-21.9 21.6-1.5 2.1-1 5.1 1.1 6.6s5.1 1 6.6-1.1c.2-.4 25.4-34.9 48.8-25.6 2.4 1 5.2-.2 6.2-2.6s-.2-5.2-2.6-6.1zM384 668.9c-23.8-6-57.2 21.6-58.6 22.7-2 1.7-2.3 4.7-.6 6.7 1.7 2 4.7 2.3 6.7.6 8.6-7.1 34.3-24.8 50.2-20.8 2.5.6 5.1-.9 5.7-3.4.6-2.6-.9-5.2-3.4-5.8zM493.7 604.8L466.5 632c-1.9 1.9-1.9 4.8 0 6.7 1.8 1.9 4.8 1.9 6.7 0l27.2-27.2c1.8-1.9 1.8-4.8 0-6.7-1.8-1.9-4.8-1.9-6.7 0z"/><path fill="#5DC2E8" d="M1035.8 418h38.1c-141.5-350-517-244.9-517-244.9C986.8 156.8 1035.8 418 1035.8 418z"/><path opacity=".51" fill="#FFF" d="M1035.8 418h38.1c-141.5-350-517-244.9-517-244.9C986.8 156.8 1035.8 418 1035.8 418z"/><path d="M442.3 1254.5c-.1-1.4.1-2.5 0-3.8-.1 2.4 0 3.8 0 3.8z"/></svg>