<svg xmlns:xlink="http://www.w3.org/1999/xlink"  xmlns="http://www.w3.org/2000/svg" viewBox="0 0 1500 1500"><path fill="#FFAD26" d="M1448.1 795.2c-178.3-61.7-347-95-501.2-109.9l-31 27.8s-22.4 17-56.5 17c-34 0-305.5-34-305.5-34v153.2s24.6 39.7 64.3 8.5c39.7-31.2 153.1-116.3 153.1-116.3l59.5 5.6-216.5 167.5S527 926 514 883.4V733s-70.4-14.7-112.2-28c-202.4 35-323.3 88.9-323.3 88.9s384.9 47.7 689.7 242.3c276.2-176.3 618-232 679.9-241zM930.2 733c54.8 0 99.3 44.4 99.3 99.3s-44.5 99.3-99.3 99.3c-54.9 0-99.3-44.4-99.3-99.3s44.4-99.3 99.3-99.3zM1450.8 796.2c-4.3 1.3-8.5 2.7-12.7 4 5.6-1.5 10.6-2.8 14.2-3.5-.4-.2-.9-.4-1.5-.5z"/><path fill="#FFAD26" d="M930.2 877.7c25.1 0 45.4-20.3 45.4-45.4 0-25.1-20.3-45.4-45.4-45.4-25 0-45.4 20.3-45.4 45.4 0 25.1 20.3 45.4 45.4 45.4z"/><path fill="#6CAB36" d="M621.7 1149h4.7l-1.8-2.7c-.9.9-1.9 1.7-2.9 2.7zM1458 793.9s-3.4.4-9.9 1.4c-61.9 8.9-404.2 64.7-680.3 241 50.7 32.4 99.1 68.8 143.2 109.7 18-25.8 171.6-232.4 527.1-345.7 4.2-1.3 8.4-2.7 12.7-4 2.5-.9 4.8-1.7 7.2-2.4z"/><path fill="#7C5F47" d="M514 883.4c13 42.6 100.3 31.2 100.3 31.2l217.5-167.4-60.1-5.6s-113.5 85.1-153.2 116.3c-39.7 31.2-64.6-8.5-64.6-8.5V696.1s271.5 34 305.5 34c34.1 0 56.6-17 56.6-17l30.9-27.8 190.3-169.6c42.6-39.7-17.1-32.8-17.1-32.8H493c-56.8 0-60.2 31.5-60.2 31.5v156.1s-19.6-2.8-39.4-14.2c-19.9-11.4-21.1-69.6-21.1-120.7 0-51.1-35.3-66.7-35.3-66.7h-8.4c-4.5-13-15.2-19.6-28.8-21.3l-90.2-10c-19.5-2.3-37.1 11.9-39.5 31.4-2.3 19.4 11.6 37.3 31 39.6l90.2 10.9c9 1.1 15.7-1.4 22.6-6.1 10.1 8.4 11 21 11 21V611c0 36.9 24.5 68.1 44.4 82.3 4.8 3.4 18.2 7.5 31.6 11.8 41.8 13.3 113.1 28 113.1 28v150.3zm-316.2-436s93.4 8.4 107.8 13.2c14.4 4.8 10.8 24 10.8 24l-118.6-37.2zM493.7 496h584.1s53.1 4.5 10.6 36.3c-42.5 31.9-201.8 178.8-201.8 178.8l175.2-190.7-597.3 3.7s-2.7-28.1 29.2-28.1z"/><path fill="#7C5F47" d="M930.2 931.6c54.8 0 99.3-44.4 99.3-99.3S985 733 930.2 733c-54.9 0-99.3 44.4-99.3 99.3s44.4 99.3 99.3 99.3zm0-144.7c25.1 0 45.4 20.3 45.4 45.4 0 25-20.3 45.4-45.4 45.4-25 0-45.4-20.3-45.4-45.4 0-25.1 20.3-45.4 45.4-45.4z"/><path fill="#189A62" d="M767.8 1036.2C463 841.6 77.6 793.9 77.6 793.9c369.8 111.8 528.6 323.5 547 349.7 1.2 1.7 1.8.4 1.8.4h287.4c-1 0-1.9.5-2.9-.4-44-40.9-92.4-75-143.1-107.4z"/><path fill="#7C5F47" d="M1061.8 520.9L886.6 712s159.3-147.8 201.8-179.7c42.5-31.8-10.6-36.3-10.6-36.3H493.7c-31.9 0-29.2 28.3-29.2 28.3l597.3-3.4z"/><path opacity=".53" fill="#FFFFFE" d="M1061.8 520.9L886.6 712s159.3-147.8 201.8-179.7c42.5-31.8-10.6-36.3-10.6-36.3H493.7c-31.9 0-29.2 28.3-29.2 28.3l597.3-3.4z"/><path fill="#7C5F47" d="M316.4 484.5s3.6-19.2-10.8-24c-14.4-4.8-107.8-13.2-107.8-13.2l118.6 37.2z"/><path opacity=".53" fill="#FFFFFE" d="M316.4 484.5s3.6-19.2-10.8-24c-14.4-4.8-107.8-13.2-107.8-13.2l118.6 37.2z"/></svg>