<svg xmlns:xlink="http://www.w3.org/1999/xlink"  xmlns="http://www.w3.org/2000/svg" viewBox="0 0 150 150"><path fill="none" d="M134.3 63.5h-.3L75.4 50.7 17.1 63.5h-.2c-3.6 0-6.4 2.9-6.4 6.4v31.8c0 3.6 2.9 6.4 6.4 6.4h.2l8.6 1.9v-9.9c-3.5-2-6.2-8.5-6.2-16.2 0-9.3 3.8-16.9 8.4-16.9s8.4 7.6 8.4 16.9c0 7.9-2.7 14.5-6.4 16.4V111l17.5 3.8v-14.7c-3.5-2-6.2-8.5-6.2-16.2 0-9.3 3.8-16.9 8.4-16.9 4.7 0 8.4 7.6 8.4 16.9 0 7.9-2.7 14.5-6.4 16.4v15.4l21.3 4.7v-22C68.8 96 65.7 88.3 65.7 79c0-11.2 4.5-20.2 10.1-20.2S85.9 67.9 85.9 79c0 9.5-3.3 17.4-7.7 19.6v21.9l21.4-4.7v-15.6c-3.5-2-6.2-8.5-6.2-16.2 0-9.3 3.8-16.9 8.4-16.9 4.7 0 8.4 7.6 8.4 16.9 0 7.9-2.7 14.5-6.4 16.4v14.5l17.5-3.8v-10.8c-3.5-2-6.2-8.5-6.2-16.2 0-9.3 3.8-16.9 8.4-16.9 4.7 0 8.4 7.6 8.4 16.9 0 7.9-2.7 14.5-6.4 16.4v9.7l8.3-1.8h.3c3.5 0 6.4-2.9 6.4-6.4V69.9c.2-3.5-2.7-6.4-6.2-6.4z"/><path fill="#026536" d="M134.5 59.2L75.4 46.3 16.6 59.2c-5.8.1-10.5 4.9-10.5 10.7v31.8c0 5.8 4.7 10.6 10.5 10.7l35.1 7.7 24 5.2 58.8-12.9c5.8-.1 10.5-4.9 10.5-10.7V69.9c0-5.8-4.7-10.5-10.5-10.7zm6.2 42.6c0 3.6-2.9 6.4-6.4 6.4h-.3l-8.3 1.8v-9.7c3.7-1.8 6.4-8.4 6.4-16.4 0-9.3-3.8-16.9-8.4-16.9-4.7 0-8.4 7.6-8.4 16.9 0 7.7 2.6 14.2 6.2 16.2V111l-17.5 3.8v-14.5c3.7-1.8 6.4-8.4 6.4-16.4 0-9.3-3.8-16.9-8.4-16.9-4.7 0-8.4 7.6-8.4 16.9 0 7.7 2.6 14.2 6.2 16.2v15.6l-21.4 4.7V98.6c4.4-2.2 7.7-10.1 7.7-19.6 0-11.2-4.5-20.2-10.1-20.2S65.9 67.9 65.9 79c0 9.3 3.1 17 7.4 19.4v22L52 115.7v-15.4c3.7-1.8 6.4-8.4 6.4-16.4 0-9.3-3.8-16.9-8.4-16.9-4.7 0-8.4 7.6-8.4 16.9 0 7.7 2.6 14.2 6.2 16.2v14.7L30 111v-10.7c3.7-1.8 6.4-8.4 6.4-16.4 0-9.3-3.8-16.9-8.4-16.9s-8.4 7.6-8.4 16.9c0 7.7 2.6 14.2 6.2 16.2v9.9l-8.6-1.9H17c-3.6 0-6.4-2.9-6.4-6.4V69.9c0-3.6 2.9-6.4 6.4-6.4h.2l58.3-12.8L134 63.5h.3c3.5 0 6.4 2.9 6.4 6.4v31.9z"/><path fill="#415945" d="M80 118.1V99.3c4.7-3.1 7.7-11.1 7.7-20.6 0-12.3-5.2-22-11.8-22-6.6 0-11.8 9.7-11.8 22 0 9.1 2.9 17.1 7.4 20.3v19l-17.9-3.9V101c3.9-2.7 6.4-9.4 6.4-17.3 0-10.4-4.5-18.6-10.2-18.6-5.7 0-10.2 8.2-10.2 18.6 0 7.6 2.4 14.3 6.2 17.1v11.6l-14-3.1V101c3.9-2.7 6.4-9.4 6.4-17.3 0-10.4-4.5-18.6-10.2-18.6-5.7 0-10.2 8.2-10.2 18.6 0 7.6 2.4 14.3 6.2 17.1v6.9l-6.5-1.4H16.9c-2.6 0-4.7-2.1-4.7-4.7V69.7c0-2.6 2.1-4.7 4.7-4.7H17.5l57.9-12.7L133.7 65H134.3c2.6 0 4.7 2.1 4.7 4.7v31.8c0 2.6-2.1 4.7-4.7 4.7h-.7l-6.3 1.4V101c3.9-2.7 6.4-9.4 6.4-17.3 0-10.4-4.5-18.6-10.2-18.6-5.7 0-10.2 8.2-10.2 18.6 0 7.6 2.4 14.3 6.2 17.1v8.5l-14 3.1V101c3.9-2.7 6.4-9.4 6.4-17.3 0-10.4-4.5-18.6-10.2-18.6-5.7 0-10.2 8.2-10.2 18.6 0 7.6 2.4 14.3 6.2 17.1v13.3l-17.7 4zM56.2 30.5l1.5 4.6h4.8l-3.9 2.8 1.5 4.5-3.9-2.8-3.8 2.8 1.4-4.5-3.8-2.8h4.7zM93.4 30.5l1.5 4.6h4.7l-3.8 2.8 1.5 4.5-3.9-2.8-3.9 2.8 1.5-4.5-3.9-2.8h4.8zM75.2 26.7l2 6.4h6.7L78.5 37l2.1 6.3-5.4-3.9-5.4 3.9 2-6.3-5.4-3.9h6.7z"/></svg>