<svg xmlns:xlink="http://www.w3.org/1999/xlink"  xmlns="http://www.w3.org/2000/svg" viewBox="0 0 1500 1500"><path fill="#72C0E1" d="M1399.5 789c1.8 17.1 2.7 34.4 2.7 51.9 0 127-47.4 243-125.5 331.6 91.9-93.6 148.6-221.4 148.6-362.5 0-247.4-174.3-454.3-407.6-506.7l.9 28.1c210.9 51.6 369.3 235.3 380.9 457.6zM428.1 640.9C499.3 451.8 681.1 317 896.5 317c32.2 0 64.5 3.1 92.5 8.9v-18.6l18.7-5.7c-34.7-7.2-69.9-11-106.8-11-229.1 0-423.2 146.1-494.2 349.5l15.9 12.5c1.6-4.1 3.8-7.8 5.5-11.7z"/><path fill="#ACD7EC" d="M989 325.8c-28-5.8-60.3-8.9-92.5-8.9-215.4 0-398 134.8-469.3 323.9-1.4 3.7-2.4 7.5-3.7 11.2l15.2 12C510.8 486.4 684.3 361 889 361c34.9 0 72 3.7 100 10.6v-45.8zM1018.6 331.5l1.6 47c34.2 9.3 66.9 22.2 97.6 38.3 19.9-2.2 44.6 0 75.2 9.1 0 0-3.6 13.1-12 30.3 119.6 88.1 197.1 229.3 197.1 388.5 0 121.2-41.6 227.1-115.7 311.9l.1.1c87.3-89.6 137.7-206.9 137.7-341.5 0-8.8-.2-17.6-.7-26.3-11.6-222.2-170-405.9-380.9-457.4z"/><path fill="#999FA7" d="M708.6 1161.7c-.5.3-1 .7-1.4 1l-74-70.3 88.2 59.8c62-43.9 139.3-77.3 232.5-81.3L710.8 884.4l-16 37.3-90.6 106.6 21.3-111.9-32-42.6 10.6-16-128.2-97.1 2.2-2.8c4.1-5.4 3.3-13.1-1.9-17.4 0 0-126-108.3-225.7-186.8L134 457c-3-2.5-6.9-3.4-10.7-2.6-2.7.6-66.8 15.4-84.4 100.4-1 4.8.9 9.7 4.8 12.6l358.7 268.3c5.5 4.1 13.3 3 17.5-2.4 5.5 1.2 10.8-.5 15.7-4.1L551 916.3l16-21.3 21.3 26.6-37.3 143.9-101.2 101.2-26.6 10.7 155.6 115.2c8-9.5 17-19.6 26.7-29.8 27.2-33.8 61.5-69.6 103.1-101.1z"/><path fill="#C08A5F" d="M1268.2 1209.5c-327.2-208.7-551.5-63.2-662.7 53.3-9.8 10.3-18.7 20.3-26.7 29.8-21.8 25.9-37 48.2-45.7 61.7 44.7-32.4 91.2-57.2 138.4-75.7 190.8-123.2 596.7-69.1 596.7-69.1z"/><path fill="#DCB69A" d="M1284.9 1309.7c-94.9-50.6-362.3-129.8-613.5-31.1-47.1 18.5-93.6 43.3-138.4 75.7-31.7 23-62.5 49.6-92 80.7 0 0 350.9-284.1 793.7 0 .1 0 175.5-58.4 50.2-125.3z"/><path fill="#718F40" d="M989 325.8v750l51.9-34.6-21.5-662.7-1.2-47-.7-28.1-.1-4.6-9.7 2.7-18.7 5.7zM1268.2 649.7C1042.6 582.9 1042.6 775 1042.6 775c20.9 12.5 125.3-66.8 125.3-66.8l-108.6 100.3c158.7 25 208.9-158.8 208.9-158.8zM793.3 473.8c-39.6 231.9 151.2 209.1 151.2 209.1 10-22.2-81.3-116.5-81.3-116.5l112.5 95.9c6.1-160.6-182.4-188.5-182.4-188.5zM1193 425.9c-30.6-9.1-55.2-11.3-75.2-9.1-83.5 9.2-83.6 97.3-83.6 97.3 14.7 8.8 88.2-47 88.2-47l-76.4 70.5c76.2 12 116.8-44.4 135-81.4 8.4-17.2 12-30.3 12-30.3zM993.9 277.4c16.5-11.5 12.9-117.5 12.9-117.5l14.4 116.3c82.8-111.4-7.1-212.1-7.1-212.1-136.6 147.6-20.2 213.3-20.2 213.3zM1076 1042.4l-54.3 37.6s142-16.7 250.6 91.9c0 0-2.8-5.8-9.9-15.1l-.1-.1c-19.1-25.5-70.3-77.7-186.3-114.3z"/></svg>