<svg xmlns:xlink="http://www.w3.org/1999/xlink"  xmlns="http://www.w3.org/2000/svg" viewBox="0 0 1500 1500"><path fill="#FEC345" d="M1237.4 904.2c-4.1-27.2-10.6-53.6-19.1-79.1h.1l-1.8-5.4c-.5-1.4-.9-2.9-1.4-4.3-2-5.8-4.2-11.5-6.5-17.2-.6-1.4-1.1-2.8-1.6-4.2-2.3-5.7-4.8-11.3-7.3-16.9l-1.8-3.9c-2.6-5.6-5.3-11.2-8.2-16.7-.6-1.2-1.2-2.3-1.8-3.5-2.9-5.6-5.9-11.1-9.1-16.6-.6-1-1.2-2-1.8-3.1-3.2-5.5-6.6-11-10-16.4-.5-.9-1.1-1.7-1.6-2.6-3.6-5.5-7.2-10.9-11-16.3l-1.5-2.1c-3.9-5.5-7.9-10.8-12-16.1-.4-.5-.8-1-1.2-1.6-4.2-5.4-8.6-10.7-13-16-.3-.3-.6-.7-.9-1-4.6-5.4-9.3-10.6-14.1-15.8l-.1-.1c-88.9-95-215.3-154.5-355.6-154.5-215.5 0-398.1 140-462.2 334 2.2-.9 4.3-1.9 6.5-2.8C392.8 686.9 547.9 598.1 724 598.1c116.9 0 224.7 39.1 311 104.9 2 1.5 3.9 3.1 5.8 4.6 4 3.1 8 6.3 11.9 9.5l6.9 6c3.4 2.9 6.8 5.8 10.1 8.8 2.5 2.2 4.8 4.6 7.3 6.9 3 2.9 6.1 5.7 9 8.7 2.5 2.5 4.9 5 7.3 7.5 2.8 2.9 5.6 5.8 8.3 8.7l7.2 8.1c2.6 2.9 5.1 5.8 7.7 8.8 2.4 2.8 4.7 3 7.1 5.9.2.3.4-1.9.6-1.9 24.8 41 46.1 67.3 63.3 103.4 0 0 0 1.3-.1 1.3.5 1.1 1 2.8 1.5 3.9 1.9 4 3.8 8.4 5.6 12.5 1.2 2.7 2.3 5.6 3.4 8.3 1.8 4.4 3.6 8.8 5.3 13.2.9 2.4 1.7 4.8 2.6 7.2 1.8 4.8 3.6 9.7 5.2 14.6.5 1.5 1 3.1 1.5 4.7 1.8 5.7 3.7 11.5 5.3 17.3 8.5 30.1 14.4 61.4 17.3 93.5 5.1-28.3 8-57.3 8-87-.1-24.6-2-49.2-5.7-73.3.1 0 0 0 0 0z"/><path fill="#CCE0B6" d="M1124 785c-109.2-27-234.5-50.5-367.9-50.5-170.8 0-328.5 33-455.8 86.4-2.2.9-4.3 2.5-6.5 3.5-96.8 41.5-175.6 96.1-228.4 158.8C237 896.3 482.9 842.1 756.1 842.1c155.5 0 302.1 17.8 431.2 49 0 0 0-2.6.1-2.6-17.3-36.2-38.6-62.5-63.4-103.5zM1237.4 904.2s.1 0 0 0c77.8 21.7 148.3 48.4 209.4 79.3-52.8-62.6-131.6-116.8-228.4-158.4h-.1c8.5 25.5 15 51.9 19.1 79.1z"/><path fill="#FEC345" d="M947.8 506.1l10.7-71.5-28.6-46.5 17.9-43-39.4 35.8 17.9 35.8-35.7 64.4zM643.7 464.8l-7.1-44.8h-60.9l3.6-41-25 56.4 28.6 7.6zM396.9 552.6l-50.1 17.9 67.9 28.6zM1219.7 631.3l39.3 25.1 21.5-64.4-32.2 21.4-35.8-3.5-50.1 25 18 35.8z"/></svg>