<svg xmlns:xlink="http://www.w3.org/1999/xlink"  xmlns="http://www.w3.org/2000/svg" viewBox="0 0 1500 1500"><path fill="#C9DA2A" d="M399.7 1067.2c0 .1.1.2.1.2.1 0 .1-.1-.1-.2z"/><path fill="#C9DA2A" d="M1224.5 746.8c-1.4-6.2-2.9-12.3-4.5-18.5l206-20.9-219.7-22.3c-1.9-5.1-3.8-10.2-5.8-15.2-20.2-50-49.2-96.6-85-137.2-20-22.8-42.2-43.5-66.2-62.2l89.7-120.3-114.6 102.1c-11.3-7.7-23-14.9-35-21.7-23.7-13.4-48.6-24.8-74.3-34.1-25.7-9.1-52.2-16.1-79.1-20.8-21-3.7-42.3-6-63.6-7l-21.9-215.9-21.9 215.9c-18.5.8-37 2.6-55.4 5.7-53.9 8.7-106.5 26.2-154.3 52.4-13.5 7.4-26.6 15.4-39.4 24l-113-100.6 88.2 118.3c-23 17.6-44.4 37.1-63.8 58.4-36.4 40.2-66.3 86.3-87.4 136-3.1 7.3-5.9 14.7-8.6 22.1l-220 22.4 206.3 21c-7.9 29.8-13.6 60.3-14.8 90.9-6.8 167.1 127.9 243.2 133.2 247.9-17.6-34.6-30.1-71.3-37.4-108.8-8.2-43.2-9.7-87.5-4-130.6 10.9-86.2 50.4-167.2 110.1-228.2 59.4-61.4 138.5-102.3 222.1-115.1 41.8-6.2 84.9-6.3 126.6.7 20.9 3.5 41.4 8.8 61.4 15.7 20.1 6.8 39.6 15.2 58.3 25.2 37.5 20 71.7 46.2 101.2 77.1 29.4 31 53.8 66.9 72.2 105.8 9.1 19.5 16.7 39.8 22.5 60.6 6 20.8 10.2 42.1 12.8 63.8 4.9 43.3 3.3 87.8-5.7 131-17.5 86.6-64.7 168.4-133.3 229.6-68.5 61.5-158.5 101.4-255.5 111.2 48.5 5.1 98.6 1.4 147.1-11.1s95.3-33.8 137.5-62.7c21.1-14.5 41.1-30.7 59.7-48.6 18.5-18 35.6-37.6 51-58.6 30.7-42 54.5-89.7 69.6-140.4 15-50.7 21.7-104.1 19-157.4-1.2-26.6-4.6-53.3-10.3-79.6z"/><path fill="#414D00" d="M986.2 1016.3c16.6-33.1 27.9-64.9 35.7-93.2 7.8-28.3 11.8-53 14-71.6-40.8 10.7-77.1 23.4-109.5 37.7-19.5 118.5-83.3 262-247 386.4 82-30.2 144.8-69.3 193.1-112.1 53.2-47 89-98.6 113.7-147.2z"/><path fill="#9EAE21" d="M696 857.5v-.8c0-127.1-52.1-222.4-82.8-267.9-42.3 61.1-69.3 118-86.3 170.4-16.9 52.4-22.9 100.2-22.4 143.5 1.3 129.2 66.2 221.5 102.6 263.1 35.1-58.3 57-113.3 71.1-164.9 14.2-51.4 17.8-99.4 17.8-143.4z"/><path fill="#C9DA2A" d="M833.1 998.6c33.2-75.4 41.9-146.6 41.4-204.7v-1.2c-.5-40.8-5.9-74.8-11.3-98.4-44.7 30-81.5 60.7-111.8 91.4 3.3 22.4 5.4 46.2 5.7 71v.5c1.3 104.9-27.7 229.1-115.1 363.6.9 2.5 1.7 5 2.5 7.2 97.6-74.6 155.4-154.1 188.6-229.4z"/></svg>