<svg xmlns:xlink="http://www.w3.org/1999/xlink"  xmlns="http://www.w3.org/2000/svg" viewBox="0 0 1500 1500"><path fill="none" d="M593.1 480.7l.9 1.3c4.4-1.7 8.8-3.3 13.2-4.8l-9-12.7-5.1 16.2zM851.3 1177.9c-2.4 18.3-6.1 34-9.5 45.7 11.7-2.2 23.2-4.9 34.7-7.9l-24.9-37.8h-.3z"/><path fill="none" d="M775.6 326.1c-88.3 0-170.3 26.8-238.5 72.7l38.4 56.3c7.7-26.7 26.3-50 26.3-50 36.3 23.2 47.6 43.4 48.1 59.5 31.6-7.5 64.5-11.4 98.4-11.4 77.6 0 150.3 20.8 213 56.9 94.8 3.6 170.1 95.5 168.5 177.4 9.1 17.9 16.9 36.4 23.5 55.7 1.2-.6 2.4-1.2 3.5-1.9 16.9-9.6 31.4-20.6 44.2-32.6-22.5-215.1-204.4-382.6-425.4-382.6zM1029.7 510l-11.8-36.7-23.1 33.2s-57.4-33.5 19.7-83.3c0 .1 45 55.6 15.2 86.8zm146.4 96.2s-6 42-31.6 41.7l11.2-20-23.8 3.4c0-.1-8.7-38.6 44.2-25.1zM1187.7 842.5c0-8.1 4.5-15.3 10.5-21.3 3.5-21.9 5.4-44.3 5.4-67.1 0-4-.2-7.9-.3-11.8-12.9 11.2-26.6 21-41 29.9 9.1 34.8 14.1 71.3 14.1 109 0 4.5-.3 9-.4 13.5 1.3 0 2.5.1 3.8.1 5.9-17 10.8-34.4 14.5-52.3h-6.6zM493.5 537.4l-42.4-62.2C396 539.4 359.5 620 350.2 708.7c1.4 1.9 2.9 3.7 4.4 5.6 29.9-70.6 78.1-131.7 138.9-176.9z"/><path fill="none" d="M1086.9 619.4c-13.7-25.7-35.8-47.3-60.1-63.2 22.1 19 42.2 40.1 60.1 63.2zM1189 894.8c12.9-.2 24.6-1 35.4-2.1 4.2-12.1 8-24.4 11.3-36.8-10.4 12.1-30.9 14.3-37.6 14.6-2.8 8.2-5.9 16.3-9.1 24.3zM874.6 1172.3c2.9 13.5 6.2 27.2 9.8 41.2 153.7-43.4 277.6-157.5 334.3-305.1-11.6 2.5-24.2 4.4-38.1 5.7-57.9 125.9-169.7 221.9-306 258.2z"/><path fill="#FFC97C" d="M1162.3 772.1c-69 42.3-152.4 62.5-220.1 111 26-5.3 71.4-7.8 149.2 4 32.2 4.9 60.2 7.1 84.6 7.4.2-4.5.4-9 .4-13.5 0-37.6-4.9-74.1-14.1-108.9zM1203.3 742.2c.1 3.9.3 7.9.3 11.8 0 22.9-1.9 45.2-5.4 67.1 5-5.1 11.1-9.3 16.5-12.5 5.5-27.9 8.4-56.6 8.7-86-6.4 7-13.1 13.5-20.1 19.6zM1195.9 870.6l7.9-28.2-9.5.1c-3.8 17.9-8.6 35.3-14.5 52.3 3.1 0 6.3.1 9.2.1 3.2-8 6.3-16.1 9.1-24.3h-2.2zM513.6 955.8c92.2-14.5 146.1-11.9 176.9-5.7-119.1-84.4-278.4-95.3-363.9-226.3-15.5-23.8-28-49-38.8-75-3.3 22.5-5.1 45.5-5.1 68.9 0 89.7 25.1 173.6 68.7 244.9 40.4 4.6 93.4 4.1 162.2-6.8zm-124.2-19.2s-90.7-.1-38.2-81.3c0 0 47.8 20.7 47.8 47.7h-19.1l9.5 33.6zM1180.6 914.1c-18.2 1.7-38.5 2.3-61 1.2-84.5-4.1-149.5-17.4-196.6-17.1-71.2 62.3-73.5 158.4-48.4 274.2 136.3-36.4 248.1-132.4 306-258.3zm-181.5 42l44.4 23.9-8.3-52.3s84.5-20.5 56.8 96.4c0 0-92.7-11.6-92.9-68zM713.7 967.8c-55.9-.1-133.1 16.1-233.5 21.5-46.4 2.5-84.8-.9-116.3-7.3 84.6 124.5 227.4 206.3 389.3 206.3 17.1 0 33.9-1 50.5-2.8 20.5-110.5-5.3-150.2-90-217.7zm-200.1 150.4c-33.4-138.5 66.9-114.6 66.9-114.6l-9.6 62.1 52.5-28.7c0 66.9-109.8 81.2-109.8 81.2zM851.3 1177.5c0 .1-.1.3-.1.4.1 0 .2-.1.2-.1l-.1-.3z"/><path fill="#FFC97C" d="M451.1 475.3l42.4 62.2c-60.8 45.2-109 106.3-139 177 20.9 26.3 46.7 49.7 80.3 68.6 25.6 14.3 52.5 26.1 79.9 36.8-122.3-102 7.2-328.6 176.5-311.6C772.1 516.4 843.7 625 794.3 690c-48.2 63.4-217.7 37.1-166.1-54.7-28.9 51.5 85.6 76 119.7 52.1 37.8-26.5 36.2-76.5 14.3-114.4 13.6 32.3-32.7 68.5-32.7 68.5-57.1-59.1-.3-76.5-.3-76.5l13.4 33.7 17.4-29.1c-9.3-15-21.8-27.9-36.4-36.2-73.2-41.8-347.8 112.7-156.9 306.1 65.6 23.9 131.1 47.8 185.5 92.7 24.5 20.1 43.4 41.4 57.9 63 8.9-41.5 31.3-86.7 79.7-126.9 45.7-38.1 100.9-58.5 156-78.9 63.2-64.7 65.3-123.9 40.9-169.8-17.9-23-38-44.2-60.1-63.2-42.1-27.5-90.8-38.1-114.4-24.5-12.2 7.1-22.7 18-30.5 30.7l14.8 24.4 11.2-28.4s48 14.5.1 64.5c0 0-39.1-30.2-27.9-57.5-18.3 32-19.4 74.1 12.6 96.3 28.9 20 125.3-1.1 100.7-44.4 43.9 77.3-98.9 100.1-139.8 46.8-41.9-54.6 18.1-146.4 86.2-153.6 7.3-.8 14.6-.9 21.7-.6-62.8-36.1-135.4-56.9-213-56.9-33.9 0-66.8 4-98.4 11.4.7 24.5-24.1 39.1-24.1 39.1l-18.7-26.5c-4.4 1.6-8.9 3.1-13.2 4.8l-.9-1.3-8.6 27.4c-14.4-15-14.1-34.8-8.8-53l-38.4-56.3c68.1-45.8 150.1-72.7 238.5-72.7 221 0 402.8 167.5 425.5 382.5 7.7-7.3 14.7-14.9 21.2-22.9-16.5-244.8-220.2-438.2-469.2-438.2-166.6 0-312.9 86.7-396.5 217.4-1.6 29.7-13.7 42.5-26.7 47.5-15 30.8-26.6 63.5-34.6 97.6 15.2 35.2 32.1 68.9 54.8 98.9 9.3-88.9 45.7-169.5 100.9-233.6zM464 652.4l-28.3-3.8 13.4 23.7c-30.4.5-37.8-49.3-37.8-49.3 62.8-16.3 52.7 29.4 52.7 29.4zm88 97.9l1-28.6-22.2 15.7c-3.5-30.2 45.3-42.4 45.3-42.4 22.5 60.8-24.1 55.3-24.1 55.3zm485.5-82.7s41.2 10.1 38.4 35.6l-18.8-13.2 1 24.1s-39.3 4.8-20.6-46.5zM792.9 900c-12.7 0-23-10.3-23-23s10.3-23 23-23 23 10.3 23 23-10.3 23-23 23z"/><path fill="#FFC97C" d="M1089.8 772.5c21.8-8.7 43.2-18.1 63.7-29.5-6.6-19.2-14.4-37.8-23.5-55.7-.6 32-12.9 62.2-40.2 85.2z"/><path fill="#55924E" d="M1330.7 882.5l3.4 12.3-23.2-.2s16 58.4 59 10.3c-.1-.1-20.8-27.5-39.2-22.4zM1290.3 659.7l51.6 11.7-38.8 32.3c52.4 20.7 97.7-60.9 97.7-60.9-98.1-69.1-110.5 16.9-110.5 16.9zM1399 365.5l23.9-3.4-11.2 20c25.6.3 31.6-41.7 31.6-41.7-53-13.4-44.3 25.1-44.3 25.1zM1058.1 714.1l-1-24.1 18.8 13.2c2.8-25.5-38.4-35.6-38.4-35.6-18.7 51.3 20.6 46.5 20.6 46.5zM351.2 855.4c-52.5 81.2 38.2 81.1 38.2 81.1l-9.5-33.5H399c-.1-27-47.8-47.6-47.8-47.6zM1035.2 927.7l8.3 52.3-44.4-23.9c.3 56.4 92.9 68 92.9 68 27.6-116.9-56.8-96.4-56.8-96.4zM530.8 737.4l22.2-15.7-1 28.6s46.6 5.5 24.2-55.3c0 0-48.9 12.2-45.4 42.4zM1187.7 842.5h6.6l9.5-.1-7.9 28.2s.8 0 2.1-.1c6.6-.4 27.2-2.5 37.6-14.6 4.7-5.5 7.3-13.1 5.6-23.5-1.4-8.2-5.4-18.2-13.4-30.4 0 0-5.9 2.4-13.1 6.7-5.4 3.2-11.4 7.4-16.5 12.5-6 6-10.5 13.2-10.5 21.3zM580.4 1003.6s-100.3-23.9-66.9 114.6c0 0 109.8-14.3 109.8-81.2l-52.5 28.7 9.6-62.1zM261.2 739.5l-46.1-38.1 61.2-14.3s-15.2-102-131.3-19.4c0 .1 54.1 96.7 116.2 71.8zM994.8 506.5l23.1-33.2 11.8 36.7c29.7-31.2-15.2-86.8-15.2-86.8-77.1 49.9-19.7 83.3-19.7 83.3zM145.6 338.9s10.1-45.8-52.6-29.5c0 0 7.4 49.8 37.8 49.3L117.3 335l28.3 3.9zM1155.7 627.9l-11.2 20c25.6.3 31.6-41.7 31.6-41.7-52.9-13.5-44.2 25.1-44.2 25.1l23.8-3.4zM356.7 464.8c.5-9.7 0-21.2-2.1-34.9 0 0-84.6 3.6-89.1 54.5l41.9-18.3-11.4 46.7s17.7 5.8 34-.5c12.9-5 25-17.8 26.7-47.5zM908 622.9c47.9-50-.1-64.5-.1-64.5l-11.2 28.4-14.8-24.4c-.6 1-1.3 2-1.8 3-11.3 27.3 27.9 57.5 27.9 57.5zM411.4 623s7.4 49.8 37.8 49.3l-13.4-23.7 28.3 3.8c-.1 0 10-45.7-52.7-29.4zM229.7 951.6c-21.9-5.9-46.3 26.7-46.3 26.7 51.3 56.8 69.9-12.6 69.9-12.6l-27.5.4 3.9-14.5zM729.3 564.7s-56.8 17.5.3 76.5c0 0 46.3-36.2 32.7-68.5-.7-1.2-1.4-2.3-2.1-3.4l-17.4 29.1-13.5-33.7zM601.9 405.1s-18.6 23.3-26.3 50c-5.3 18.2-5.6 38 8.8 53l8.6-27.4 5.1-16.3 9 12.7 18.7 26.5s24.8-14.6 24.1-39.1c-.3-16-11.6-36.2-48-59.4zM1272.9 512.8l-9.8-39.3 35.4 15.3c-4-42.9-75.3-45.6-75.3-45.6-13.2 90.9 49.7 69.6 49.7 69.6z"/><path fill="#7B6648" d="M792.9 854.1c-12.7 0-23 10.3-23 23s10.3 23 23 23 23-10.3 23-23c0-12.8-10.3-23-23-23z"/><path fill="#7B6648" d="M1320.7 857.9c-8.9 9-31.7 24.4-76.6 32.1 5.4-28.9 8.3-58.5 8.3-89 0-12.3-.6-24.5-1.5-36.6-1.7 23.1-5 45.8-9.7 67.9 1.7 10.4-.8 17.9-5.6 23.5-3.3 12.5-7.1 24.8-11.3 36.8-10.8 1.1-22.5 1.9-35.4 2.1-2.9 0-6.2-.1-9.2-.1-1.3 0-2.5 0-3.8-.1-24.4-.4-52.4-2.5-84.6-7.4-77.7-11.9-123.2-9.4-149.2-4 67.8-48.5 151.2-68.7 220.1-111 14.4-8.9 28.1-18.7 41-29.9 7-6.1 13.7-12.6 20.1-19.6 8.8-9.6 17-20.1 24.5-31.7 62.3-96.6 66.1-219 134.8-312.4-18.6 25.3-35.3 52.2-50.3 79.9-41.8 77.3-58.2 163.1-110.2 227.3-6.5 8-13.5 15.7-21.2 22.9-12.7 12-27.3 23-44.2 32.6-1.2.7-2.4 1.3-3.5 1.9-20.4 11.3-41.8 20.8-63.7 29.5 27.3-23 39.6-53.2 40.2-85.1 1.5-81.9-73.7-173.8-168.5-177.4-7.1-.3-14.3-.2-21.7.6-68.1 7.2-128.1 99-86.2 153.6 40.9 53.3 183.7 30.5 139.8-46.8 24.6 43.3-71.8 64.5-100.7 44.4-31.9-22.2-30.9-64.3-12.6-96.3l1.8-3c7.8-12.7 18.3-23.6 30.5-30.7 23.6-13.6 72.3-3 114.4 24.5 24.3 15.9 46.4 37.4 60.1 63.2 24.4 45.9 22.3 105.1-40.9 169.8-55.2 20.4-110.3 40.8-156 78.9-48.3 40.2-70.8 85.3-79.7 126.9-14.5-21.6-33.4-42.8-57.9-63-54.5-44.9-120-68.8-185.5-92.7-190.9-193.5 83.7-348 156.9-306.1 14.6 8.3 27 21.2 36.4 36.2.7 1.1 1.5 2.3 2.1 3.4 21.9 37.9 23.5 87.9-14.3 114.4-34.1 23.9-148.6-.6-119.7-52.1-51.6 91.9 117.9 118.1 166.1 54.7 49.4-65-22.3-173.6-103.1-181.7-169.3-17-298.8 209.6-176.5 311.6-27.4-10.7-54.3-22.5-79.9-36.8-33.6-18.9-59.4-42.2-80.3-68.6-1.5-1.9-3-3.7-4.4-5.6-22.7-30-39.6-63.7-54.8-98.9-22.6-52.6-41.5-108.7-70.3-161.3-17.9-32.7-37.8-64.5-60.1-94.4 64.9 87.4 81.8 196.5 122.9 294.8 10.8 25.9 23.3 51.1 38.8 75 85.4 131 244.7 141.9 363.9 226.3-30.8-6.2-84.8-8.9-176.9 5.7-68.8 10.9-121.8 11.4-162.1 6.9-66.1-7.4-98.2-28.5-110.1-40.3 0 0 33.9 41.6 122.5 59.5 31.5 6.4 69.9 9.8 116.3 7.3 100.4-5.4 177.6-21.6 233.5-21.5 84.7 67.5 110.5 107.2 90 217.7-2.6 13.8-5.8 28.7-9.8 44.9-15.5 1.4-31.1 2.2-46.9 2.2-160.5 0-303.4-74.9-396-191.5 83.3 145 239.6 242.7 418.8 242.7 231.8 0 425.3-163.3 472-381.2 56.9-17.3 79.1-44.9 79.1-44.9zm-479 365.7c3.4-11.7 7.1-27.4 9.5-45.7 0-.1 0-.2.1-.4l.2.3 24.9 37.8c-11.4 3.1-22.9 5.8-34.7 8zm42.7-10.1c-3.6-14-6.9-27.7-9.8-41.2-25.1-115.7-22.8-211.9 48.4-274.2 47.1-.3 112.2 13 196.6 17.1 22.5 1.1 42.8.6 61-1.2 13.9-1.3 26.5-3.3 38.1-5.7-56.7 147.7-180.6 261.8-334.3 305.2z"/></svg>