<svg xmlns:xlink="http://www.w3.org/1999/xlink"  xmlns="http://www.w3.org/2000/svg" viewBox="0 0 1500 1500"><path fill="#FFF" d="M1177.9 1108.2l-14-23.1c4.8 10.2 9.6 17.7 14 23.1z"/><path fill="#FFF" d="M481.3 522.1c-27.5 37.3-12 110.7-12 110.7 4.7 23.6 8 45.8 10.3 67 85.1-77.3 205.5-148.4 375.8-198.3-14.3 4.2-36.2 63.2-42.1 75.7-31.8 68-17.1 148-8.7 225.6 39.7-9.2 92.9 0 133.6 86.4 0 0 59.2-50.3 94.7 41.4 0 0 65.6-29.2 100 57.9 37 12.7 89 45.5 57.1 126.8 83-98.8 133-226.1 133-365.2 0-313.8-254.4-568.2-568.2-568.2-289.7 0-528.6 216.9-563.6 497.1 92.4-153.5 290.1-156.9 290.1-156.9zM333.3 771.9c-60 10.5-102.2 63.4-130 115.7 8.3 33.6 19.7 65.9 33.8 96.8 9.9-97.3 96.2-212.5 96.2-212.5z"/><path fill="#FFF" d="M609.7 815.2s17.5 238-258.8 334.6c18.3 18.5 37.9 35.7 58.5 51.5 72-55.8 242.7-209.7 200.3-386.1z"/><path fill="#60B77F" d="M160 1001.4s.9-3.8 2.7-10.3c-3.1-7.6-6.2-15.3-9-23.1 1.8 10.9 3.8 22 6.3 33.4zM333.3 771.9S247 887.1 237.1 984.4c12.8 28.3 27.8 55.4 44.9 81 13.3-94.9 57.8-238.7 197.5-365.6-2.3-21.1-5.6-43.4-10.3-67 0 0-15.5-73.4 12-110.7 0 0-197.7 3.4-290.2 156.9-2.9 23.3-4.6 47-4.6 71.1 0 47.4 5.9 93.5 16.9 137.6 27.9-52.4 70.1-105.2 130-115.8z"/><path fill="#52B376" d="M770 1040.8c-26.3 52.7-65.8 97.9-119.6 131.2-61.9 38.3-134.7 51.8-207.2 53.2 89.5 58.8 196.5 93.1 311.6 93.1 162.3 0 308.7-68.2 412.2-177.4 1.4-2 2.1-3.2 2.1-3.2-157.6-117.6-325.2-108.7-399.1-96.9z"/><path fill="#60C3E8" d="M1132.9 988.5c-34.3-87-100-57.9-100-57.9-35.5-91.7-94.7-41.4-94.7-41.4-40.7-86.3-94-95.5-133.6-86.4 3.3 30.1 5.6 59.8 3.9 88.3-3.2 53.5-15.9 104.3-38.5 149.7 74-11.8 241.5-20.7 399.1 97 0 0-.7 1.1-2.1 3.2 7.9-8.3 15.6-16.9 23-25.7 31.9-81.3-20.1-114.1-57.1-126.8zm31 96.5l14 23.1c-4.4-5.3-9.2-12.8-14-23.1z"/><path fill="#00A251" d="M754.8 110.8C401.7 110.8 115.6 397 115.6 750c0 76.5 13.5 149.9 38.1 217.9 2.8 7.8 5.9 15.5 9 23.1 95.2 233.6 324.3 398.2 592.1 398.2 353 0 639.2-286.2 639.2-639.2 0-353-286.2-639.2-639.2-639.2zM186.5 750.1c0-24.1 1.7-47.8 4.6-71.1 35-280.2 273.9-497.1 563.6-497.1 313.8 0 568.2 254.4 568.2 568.2 0 139.1-50 266.4-133 365.2-7.4 8.8-15.1 17.3-23 25.7-103.5 109.2-249.9 177.4-412.2 177.4-115.1 0-222.1-34.3-311.6-93.1 72.5-1.4 145.3-14.9 207.2-53.2 53.8-33.3 93.4-78.5 119.6-131.2 22.6-45.3 35.4-96.1 38.5-149.7 1.7-28.5-.7-58.3-3.9-88.3-8.4-77.7-23.1-157.6 8.7-225.6 5.9-12.5 27.7-71.5 42.1-75.7-170.2 49.9-290.6 121-375.8 198.3C339.8 826.8 295.2 970.7 282 1065.5c-17.1-25.6-32.1-52.7-44.9-81-14-30.9-25.4-63.2-33.8-96.8-10.9-44.1-16.8-90.2-16.8-137.6zM351 1149.8c276.3-96.6 258.8-334.6 258.8-334.6 42.3 176.4-128.4 330.3-200.2 386.1-20.8-15.9-40.4-33.1-58.6-51.5z"/></svg>