<svg xmlns:xlink="http://www.w3.org/1999/xlink"  xmlns="http://www.w3.org/2000/svg" viewBox="0 0 1500 1500"><path fill="none" d="M973.3 1287.2l72.7-72.7s23.4-14.1-4.7-42.2c-28.1-28.1-68-49.3-91.5-44.6-20.8 4.2-26.9 8.3-41 22.3-14 14.2-18.1 20.3-22.3 41-4.7 23.5 16.4 63.3 44.6 91.5 28.1 28.1 42.2 4.7 42.2 4.7zM623.7 1154.2c-14.2-13.9-20.3-18.1-41-22.3-23.4-4.7-63.3 16.4-91.4 44.5-28.2 28.1-4.7 42.2-4.7 42.2l72.7 72.7s14.1 23.4 42.2-4.7c28.1-28.1 49.2-68 44.6-91.4-4.3-20.7-8.5-26.8-22.4-41z"/><path fill="#939598" d="M816.6 1096.8l-19 19 61 61s-21.3 54.1 6.8 82.3c28.2 28.1 72.7 72.7 72.7 72.7s39.9 25.8 75-9.4l32.8-32.8 2.3-2.3 32.8-32.8c35.2-35.2 9.4-75 9.4-75s-44.6-44.5-72.7-72.7c-28.1-28.1-82.3-6.8-82.3-6.8l-61-61-19 19s-19.2-18.7-49-47.7c-14.2 14.2-27.4 27.4-39 39.1 29.9 28.7 49.2 47.4 49.2 47.4zm69.9 94.2c4.2-20.8 8.4-26.9 22.3-41 14.1-14 20.3-18.1 41-22.3 23.5-4.7 63.3 16.4 91.5 44.6 28.1 28.1 4.7 42.2 4.7 42.2l-72.7 72.7s-14.1 23.4-42.2-4.7c-28.2-28.1-49.3-68-44.6-91.5zM469.9 681.2c-16.4-21.1 23.8-108.3 33.2-117.7 9.4-9.4-7-35.2-7-35.2S402.3 444 362.5 413.5c-39.9-30.5-63.2-21.9-121.9-14.1-29.4 3.9-49.8 6.1-62.7 12.4-4.2 2-7.7 4.1-10.4 6-1.9 2.7-3.9 6.2-6 10.4-6.2 13-9.4 33.2-12.3 62.7-6 60.8-16.4 82.1 14.1 122C193.6 652.7 278 746.5 278 746.5s25.8 16.4 35.2 7c9.4-9.4 96.5-49.7 117.6-33.2C453 742.5 621.2 906.5 728 1010.6c11.7-11.7 24.8-24.9 39-39.1-106.7-104.1-274.9-268.1-297.1-290.3z"/><path fill="#A7A9AC" d="M1040.5 797.3l54.2-54.2s89.3 7.3 108.3 20.5c13.2-13.2 219.7-243.1 219.7-243.1s-5.9-14.6-14.6-5.9c-8.8 8.8-197.7 186-197.7 186l-23.4-23.4 186-206.4s-5.9-14.6-19-4.4c-13.2 10.3-194.8 183-194.8 183l-12.2-12.2-6.9-6.9-12.2-12.2s172.8-181.6 183-194.8c10.3-13.2-4.4-19-4.4-19l-206.5 186-23.4-23.4s177.2-188.9 186-197.7c8.8-8.8-5.9-14.6-5.9-14.6s-229.9 206.5-243.1 219.7c13.2 19 20.5 108.3 20.5 108.3L980 736.9l10.3 11.2c-58.2 58.3-153 153.2-223.1 223.5-14.2 14.2-27.4 27.4-39 39.1-30.9 31-51.3 51.3-51.3 51.3l-19-19-61 61s-54.1-21.3-82.3 6.8c-28.2 28.1-72.7 72.7-72.7 72.7s-25.8 39.9 9.4 75l32.8 32.8s0 .1 2.3 2.3l32.9 32.8c35.2 35.2 75 9.4 75 9.4l72.7-72.7c28.1-28.2 6.8-82.3 6.8-82.3l61-61-19-19s20.5-20.6 51.8-51.9c11.7-11.7 24.8-24.9 39-39.1 70.1-70.2 164.5-164.8 222.6-223l11.3 10.5zm-439.1 489.4c-28.1 28.1-42.2 4.7-42.2 4.7l-72.7-72.7s-23.5-14.1 4.7-42.2c28.1-28.2 68-49.2 91.4-44.5 20.8 4.2 26.9 8.3 41 22.3 13.9 14.2 18.1 20.3 22.3 41 4.7 23.4-16.4 63.3-44.5 91.4z"/><path fill="#6CAB36" d="M788.3 866.5c-53.2-101.6-24.2-232.3 43.6-348.5s-58.1-363-58.1-363 33.9 154.9-67.8 348.5c-101.6 193.6 82.3 363 82.3 363z"/><path fill="#FFAD26" d="M807.7 668C744.8 784.2 827 881 827 881c-24.2-48.4 24.2-135.5 67.8-213 92-154.9 33.9-300.1-29-348.5 48.4 63 4.8 232.4-58.1 348.5z"/><path fill="#5B784D" d="M754.4 885.8S575.3 697 652.7 537.3c72.6-145.2 29-227.5 19.4-261.4 4.8 58.1-50.8 158.7-94.4 211.9-43.5 53.4-79.8 228.6 176.7 398z"/></svg>