<svg xmlns:xlink="http://www.w3.org/1999/xlink"  xmlns="http://www.w3.org/2000/svg" width="100" height="100" viewBox="0 0 100 100"><radialGradient id="a" cx="1285.307" cy="42.448" r="25.021" gradientTransform="matrix(-1 0 0 1 1316.64 0)" gradientUnits="userSpaceOnUse"><stop offset="0" stop-color="#ede722"/><stop offset=".189" stop-color="#ede222"/><stop offset=".407" stop-color="#efd421"/><stop offset=".638" stop-color="#f1bd21"/><stop offset=".878" stop-color="#f39d20"/><stop offset="1" stop-color="#f58a1f"/></radialGradient><path fill="url(#a)" d="M6.312 42.45c3.472 1.46 5.833-2.789 9.652-1.4-1.119-.795-3.484-1.294-5.017-.214 1.693-1.899 4.127-2.619 6.658-1.243a7.565 7.565 0 0 1 1.128.749 12.68 12.68 0 0 1 .356-1.55c-.713.09-1.545.084-2.371-.23-1.037-.363-1.581-.88-2.313-1.708-.992-1.134-1.75-2.734-3.453-2.618 2.059-.862 4.095.372 5.141 1.354-1.887-3.069-5.265-1.413-6.429-5.652 2.274 3.005 6.441.502 9.057 3.617-.572-1.249-2.368-2.863-4.233-2.697 2.413-.799 4.88-.202 6.387 2.255.196.318.372.666.535 1.049.024.055.042.106.063.161a13.12 13.12 0 0 1 1.092-1.158c-.668-.282-1.385-.705-1.941-1.388-.719-.832-.931-1.549-1.152-2.634-.29-1.478-.148-3.245-1.682-3.994 2.214.284 3.359 2.364 3.777 3.74-.1-3.602-3.855-3.855-2.743-8.107.466 3.738 5.328 3.659 6.036 7.663.129-1.37-.621-3.665-2.319-4.455 2.489.517 4.33 2.265 4.403 5.144.012.375-.01.768-.061 1.179-.009.057-.018.109-.024.169a11.712 11.712 0 0 1 1.521-.46c-.438-.575-.846-1.3-.985-2.174-.206-1.08-.03-1.805.321-2.858.486-1.424 1.493-2.881.541-4.3 1.775 1.355 1.727 3.731 1.4 5.128 1.712-3.166-1.412-5.264 1.678-8.391-1.463 3.471 2.785 5.832 1.4 9.651.792-1.122 1.294-3.483.214-5.016 1.899 1.693 2.619 4.124 1.243 6.659a7.795 7.795 0 0 1-.644.988l-.109.14c.529.087 1.046.208 1.551.36-.091-.72-.082-1.549.233-2.376.36-1.035.877-1.579 1.705-2.311 1.134-.992 2.734-1.754 2.619-3.454.858 2.056-.369 4.094-1.352 5.141 3.066-1.888 1.412-5.269 5.649-6.429-3.003 2.273-.505 6.44-3.614 9.06 1.246-.574 2.861-2.371 2.694-4.239.799 2.416.203 4.884-2.252 6.386a7.362 7.362 0 0 1-1.213.605c.408.338.795.701 1.161 1.089.275-.669.701-1.386 1.388-1.941.829-.72 1.549-.932 2.634-1.153 1.478-.293 3.244-.148 3.994-1.681-.284 2.211-2.368 3.36-3.744 3.777 3.602-.104 3.858-3.855 8.11-2.746-3.737.472-3.659 5.331-7.663 6.042 1.37.127 3.665-.623 4.455-2.323-.517 2.489-2.265 4.331-5.146 4.403a7.604 7.604 0 0 1-1.177-.06c-.057-.006-.112-.019-.169-.025.03.082.054.167.081.248a4.062 4.062 0 0 0-.904-.405c-1.89-4.221-6.124-7.167-11.046-7.167-6.686 0-12.104 5.422-12.104 12.107 0 2.873 1.003 5.513 2.679 7.59-.084.421-.13.834-.137 1.249-.274.551-.656 1.109-1.212 1.563-.834.72-1.551.929-2.637 1.148-1.476.294-3.241.152-3.992 1.683.282-2.214 2.365-3.36 3.741-3.773-3.599.097-3.855 3.853-8.107 2.741 3.737-.469 3.656-5.331 7.66-6.038-1.367-.127-3.662.62-4.451 2.322.517-2.491 2.262-4.333 5.143-4.405.375-.01.765.009 1.176.06.061.009.116.019.173.024a12.923 12.923 0 0 1-.463-1.521c-.575.438-1.297.847-2.171.985-1.08.206-1.806.03-2.857-.32-1.424-.487-2.882-1.494-4.297-.541 1.351-1.775 3.729-1.727 5.128-1.4-3.168-1.71-5.267 1.413-8.393-1.674z"/><radialGradient id="b" cx="1285.517" cy="40.901" r="14.409" gradientTransform="matrix(-1 0 0 1 1316.64 0)" gradientUnits="userSpaceOnUse"><stop offset="0" stop-color="#f3e91e"/><stop offset=".183" stop-color="#f2e41e"/><stop offset=".393" stop-color="#f1d61f"/><stop offset=".616" stop-color="#eebf21"/><stop offset=".848" stop-color="#eb9f22"/><stop offset="1" stop-color="#e88624"/></radialGradient><path fill="url(#b)" d="M41.882 42.75a6.622 6.622 0 0 0-1.481-1.231 6.756 6.756 0 0 0-3.565-1.016 6.756 6.756 0 0 0-5.791 3.23 6.748 6.748 0 0 0-1.01 3.864 6.35 6.35 0 0 0-3.578 2.764 6.41 6.41 0 0 0-.94 3.773c-1.258.109-2.519.239-3.783.387a15.244 15.244 0 0 1-5.767-11.953c0-8.439 6.843-15.285 15.286-15.285 7.496 0 13.728 5.401 15.028 12.521a7.727 7.727 0 0 0-4.399 2.946z"/><path fill="#41542A" d="M50.315 49.75v.048a4.306 4.306 0 0 0-4.016 4.134 135.918 135.918 0 0 0-19.501.093 5.12 5.12 0 0 1 4.684-5.399 5.503 5.503 0 0 1 .656-4.216 5.516 5.516 0 0 1 7.584-1.796 5.476 5.476 0 0 1 2.256 2.746c.157-.484.365-.956.644-1.403a6.499 6.499 0 0 1 8.252-2.488c-.006.157-.021.312-.021.468a9.1 9.1 0 0 0 1.141 4.406 4.294 4.294 0 0 0-1.679 3.407z"/><path fill="#5D7634" d="M87.676 63.368c-11.18-4.71-25.08-8.205-40.09-9.344a3.008 3.008 0 0 1 4.623-2.472 2.983 2.983 0 0 1-.605-1.802c0-1.407.968-2.583 2.269-2.916a7.813 7.813 0 0 1 6.084-12.712c4.14 0 7.518 3.224 7.786 7.294.16-.027.327-.046.494-.046a3.015 3.015 0 0 1 2.993 2.67 6.373 6.373 0 0 1 7.568 6.253 6.39 6.39 0 0 1-.185 1.503 5.354 5.354 0 0 1 3.29-1.128 5.398 5.398 0 0 1 5.395 5.397c0 1.51-.619 2.87-1.618 3.85a5.034 5.034 0 0 1 1.996 3.453z"/><path fill="#5D7634" d="M46.134 57.439c-.735-.835-1.458-1.66-2.184-2.465 23.078.829 41.725 8.041 48.207 11.543a41.818 41.818 0 0 1-9.525 9.461c-20.444-.295-28.6-9.554-36.498-18.539z"/><path fill="#1B75BB" d="M37.667 64.38c-2.474-3.242-4.875-6.385-7.611-9.09 3.299-.273 6.544-.396 9.719-.394 1.373 1.434 2.718 2.961 4.098 4.529 7.396 8.416 15.654 17.796 34.269 19.347a41.245 41.245 0 0 1-15.926 4.766C49.904 80.425 43.705 72.303 37.667 64.38z"/><path fill="#41542A" d="M26.04 55.694c3.42 2.891 6.269 6.625 9.232 10.512 4.735 6.207 9.842 12.894 18.08 17.172C37.794 81.44 24.91 70.896 19.618 56.656a105.57 105.57 0 0 1 6.422-.962z"/><path fill="#1B75BB" d="M78.141 78.772c-18.614-1.551-26.873-10.931-34.269-19.347-.856-.973-1.7-1.93-2.546-2.859 3.735 12.001 16.586 16.285 21.358 26.924a41.155 41.155 0 0 0 15.457-4.718z"/></svg>