<svg xmlns:xlink="http://www.w3.org/1999/xlink"  xmlns="http://www.w3.org/2000/svg" viewBox="0 0 150 150"><path fill="#FFC265" d="M79.4 13.5S143 54.1 91.3 130.9c0 .1 66.3-70.7-11.9-117.4z"/><path fill="#F67D4B" d="M66.2 15s-61 38.8-11.4 112.3c0 0-63.6-67.7 11.4-112.3z"/><path fill="#39499B" d="M71.2 13.7s-16.5 68.3 1.7 119c0 0 2.1-73.4-1.7-119z"/><path fill="#00A9DE" d="M75 10.8c-33.9 0-61.5 28.7-61.5 64.2 0 35.4 27.5 64.2 61.5 64.2s61.5-28.7 61.5-64.2c0-35.4-27.6-64.2-61.5-64.2zm3.4 2.3c31.4 0 56.8 26.9 56.8 60.2 0 15.6-5.6 29.8-14.8 40.5-8.7-4.7-44.2-21.8-92.3-12.5-3.1-6.2-5.2-13-6-20.2 41.5 10.7 100.4-8.8 100.4-8.8C59 82.2 31.3 78 21.6 75.4c0-.7-.1-1.4-.1-2.1 0-6.4.9-12.5 2.7-18.3 54.3 9.5 91.9-14.1 91.9-14.1-44.7 16.1-78.7 10-89.4 7.3 9-20.8 28.8-35.1 51.7-35.1zm0 120.3c-19.2 0-36.2-10.1-46.4-25.6 8.9-2.4 42.8-9.4 88.2 6.2-10.5 11.9-25.3 19.4-41.8 19.4z"/></svg>