<svg xmlns:xlink="http://www.w3.org/1999/xlink"  xmlns="http://www.w3.org/2000/svg" width="100" height="100" viewBox="0 0 100 100"><radialGradient id="a" cx="49.685" cy="43.164" r="65.306" gradientUnits="userSpaceOnUse"><stop offset="0" stop-color="#7cc5f1"/><stop offset=".009" stop-color="#79c4f1"/><stop offset=".261" stop-color="#22b2ed"/><stop offset=".376" stop-color="#00abeb"/><stop offset=".465" stop-color="#00a4e3"/><stop offset=".605" stop-color="#0091cc"/><stop offset=".779" stop-color="#0072a7"/><stop offset=".979" stop-color="#004775"/><stop offset="1" stop-color="#00426f"/></radialGradient><path fill="url(#a)" d="M9.001 16.797c1.02-.363 2.067-.692 3.166-.644 4.642.034 9.276-.034 13.911.048 2.496 7.681 5.244 15.355 9.447 22.29 3.796 6.243 9.115 11.741 15.763 14.924a59.427 59.427 0 0 0 12.151 4.531c-6.854.103-13.706 0-20.559.041-.76-.068-1.427.287-2.081.609.558 1.691.647 4.607 2.964 4.696 8.732.068 17.464-.007 26.199.034 3.368-.123 6.641 2.129 7.756 5.299 1.496 3.771-.499 8.441-4.214 10.029-3.442 1.629-7.934.376-9.987-2.842-1.078-1.547-1.393-3.456-1.403-5.306-6.072-.033-12.148.014-18.224-.013-.127 1.998-.424 4.1-1.752 5.695-2.352 3.286-7.349 4.196-10.697 1.924-3.033-1.862-4.488-5.881-3.299-9.248.869-2.959 3.618-4.957 6.551-5.56-4.521-13.35-9.218-26.644-13.579-40.041-2.988-.082-5.973.014-8.958-.048-1.28-.116-2.779-.191-3.631-1.3-1.211-1.503-.811-3.796.476-5.118z"/><radialGradient id="b" cx="63.02" cy="41.313" r="21.14" gradientUnits="userSpaceOnUse"><stop offset="0" stop-color="#919395"/><stop offset=".673" stop-color="#424243"/><stop offset="1" stop-color="#272525"/></radialGradient><path fill="url(#b)" d="M38.226 24.608c16.529.096 33.055.014 49.588.048-3.731 11.138-7.552 22.256-11.392 33.36-.928-.015-1.855-.021-2.776-.035 1.989-4.183 3.28-8.886 2.492-13.534-1.205-7.407-6.781-13.774-13.76-16.389-7.685-3.046-16.088-2.574-24.152-3.45z"/></svg>