<svg xmlns:xlink="http://www.w3.org/1999/xlink"  xmlns="http://www.w3.org/2000/svg" viewBox="0 0 150 150"><path fill="#0E323B" d="M111.9 49.3v-1.1c0-3.3-2.5-6-5.6-6h-92c-3.1 0-5.6 2.7-5.6 6v62.1c0 3.3 2.5 6 5.6 6h36.8v5.9c0 3.6-2.9 6.5-6.5 6.5h-6.5c-1.8 0-3.2 1.4-3.2 3.2 0 1.8 1.4 3.2 3.2 3.2h45.2c1.8 0 3.2-1.4 3.2-3.2 0-1.8-1.4-3.2-3.2-3.2h-6.5c-3.6 0-6.5-2.9-6.5-6.5v-5.9h35.8c3.1 0 5.6-2.7 5.6-6v-3.2h-6.5v2.8H15.1V48.7h90.3v4.1l6.5-3.5z"/><path fill-rule="evenodd" clip-rule="evenodd" fill="#14A989" d="M105.3 105.8v-6.5l14.1-1.4v7.9z"/><path fill-rule="evenodd" clip-rule="evenodd" fill="#C52228" d="M124.8 38.6v-8.5l18.7-11.9v10.3z"/><path fill-rule="evenodd" clip-rule="evenodd" fill="#14A989" d="M105.3 60.7v-6.6l14.1-7.6v8z"/><path fill-rule="evenodd" clip-rule="evenodd" fill="#C52228" d="M143.5 43.9l-18.7 8.2v-8.5l18.7-10zM124.8 57.1l18.7-8v10.4l-18.7 6.1z"/><path fill-rule="evenodd" clip-rule="evenodd" fill="#37ABD9" d="M88.2 77.9v-5l11.9-5.1v6.1z"/><path fill-rule="evenodd" clip-rule="evenodd" fill="#14A989" d="M105.3 72.2v-6.6l14.1-6.1v7.9z"/><path fill-rule="evenodd" clip-rule="evenodd" fill="#F68D2D" d="M73.3 89.6v-3.3l10-3.1v4.4z"/><path fill-rule="evenodd" clip-rule="evenodd" fill="#37ABD9" d="M88.2 86.5v-4.8l11.9-3.7v6z"/><path fill-rule="evenodd" clip-rule="evenodd" fill="#14A989" d="M119.4 72v8l-14.1 3v-6.6z"/><path fill-rule="evenodd" clip-rule="evenodd" fill="#C52228" d="M124.8 78.8v-8.4l18.7-5.8v10.3z"/><path fill-rule="evenodd" clip-rule="evenodd" fill="#F26226" d="M60.7 99.7v-3.2l7.6-1.6v4z"/><path fill-rule="evenodd" clip-rule="evenodd" fill="#F68D2D" d="M73.3 97.9v-3.5l10-2.1v4.5z"/><path fill-rule="evenodd" clip-rule="evenodd" fill="#37ABD9" d="M88.2 96.3v-5l11.9-2.4V95z"/><path fill-rule="evenodd" clip-rule="evenodd" fill="#14A989" d="M105.3 94.4v-6.5l14.1-2.9v7.9z"/><path fill-rule="evenodd" clip-rule="evenodd" fill="#C52228" d="M143.5 90.4l-18.7 2v-8.5l18.7-3.9z"/><path fill-rule="evenodd" clip-rule="evenodd" fill="#0E3A53" d="M50.9 105.8v-2l6.6-.7v2.7z"/><path fill-rule="evenodd" clip-rule="evenodd" fill="#F26226" d="M60.7 105.8v-3l7.6-.8v3.8z"/><path fill-rule="evenodd" clip-rule="evenodd" fill="#C52228" d="M124.8 97.4l18.7-1.9v10.3h-18.7z"/><path fill-rule="evenodd" clip-rule="evenodd" fill="#F68D2D" d="M73.3 105.8v-3.2l10-1.1v4.3z"/><path fill-rule="evenodd" clip-rule="evenodd" fill="#37ABD9" d="M88.2 105.8v-4.7l11.9-1.2v5.9z"/></svg>