<svg xmlns:xlink="http://www.w3.org/1999/xlink"  xmlns="http://www.w3.org/2000/svg" viewBox="0 0 150 150"><path fill="#D2D3D4" d="M29.3 138.3c0 1.1 13 2 28.9 2 5.4 0 10.4-.1 14.7-.3-7.4-.2-14.3-1.4-20.8-3.7-13.1.2-22.8 1-22.8 2z"/><path fill="#C0D449" d="M81.3 73h7.8c-1-3-2.7-6.1-5.3-8.4-2.6-2.3-5.9-3.6-8.9-4.1V68c1 .4 2.8 1.1 4.1 2.1 1.1.9 1.7 1.9 2.3 2.9zM117.4 73h7.3c-1-13-7.1-26-17.5-35.1C98.1 30 87 25.7 75 25.3v7.3c10 .4 19.6 4 27.4 10.8 8.8 7.7 14 18.6 15 29.6z"/><path fill="#C0D449" d="M134.5 73h7.3c-.7-18-8.9-35.9-23.1-48.3C106.4 14 91 8.3 75 8.1v7.3c14 .2 28 5.2 38.9 14.8 12.6 11 19.8 26.8 20.6 42.8zM99.2 73h7.4c-.9-8-4.8-15.9-11.2-21.6-5.8-5-13.4-7.8-20.4-8.1v7.3c6 .4 11.1 2.5 15.6 6.3 4.8 4.3 7.8 10.1 8.6 16.1zM75 136.6V114h-.3c-6.3 0-12.1-1.5-17.3-4.1l-16 4.3 6-11.7-.5-.5c-7.6-7.8-11.4-17-11.4-28 0-.1 0 0 0 0H8v-.2c0 18.4 6.4 34 19.6 46.9 7.4 7.2 15.5 12.4 24.5 15.6 6.5 2.3 13.4 3.5 20.8 3.7H75v-3.4z"/><path fill="#0E323B" d="M46.8 45.7c5.7-6 12.2-9.9 20.2-11.3V7.7C52 9.3 38.7 15.8 27.4 27 14.2 39.9 7.7 55 7.7 74h27.9c0-11 3.7-20.4 11.2-28.3zM102.7 102.2C95.1 110 86 113.7 75 113.7V140.1c18 0 34-6.3 47.2-19.1 11.5-11.3 17.9-24.9 19.4-39.9h-28.1c-1.3 7.9-4.8 14.9-10.8 21.1z"/></svg>