<svg xmlns:xlink="http://www.w3.org/1999/xlink"  xmlns="http://www.w3.org/2000/svg" width="100" height="100" viewBox="0 0 100 100"><radialGradient id="a" cx="29.748" cy="40.007" r="82.983" gradientUnits="userSpaceOnUse"><stop offset="0" stop-color="#919395"/><stop offset=".673" stop-color="#424243"/><stop offset="1" stop-color="#272525"/></radialGradient><path fill="url(#a)" d="M58.685 24.772c-3.339-2.324-7.276-3.801-11.343-4.079-6.213-.531-12.66 1.673-17.127 6.043l-.117-.019c-2.497 2.494-4.514 5.462-5.752 8.783a24.977 24.977 0 0 0-1.323 8.373c.211 2.936.695 5.936 2.065 8.574l.281.114-.095.246c1.414 3.435 4.025 6.271 6.917 8.562.71-.657 1.424-1.319 2.14-1.977-.707-.36-1.408-.714-2.112-1.061-.11-2.021.202-4.028.237-6.037 2.365.632 4.524 1.838 6.857 2.577.5-.462.995-.941 1.49-1.415-2.681-.884-5.313-1.913-7.918-2.987.47-2.077.922-4.161 1.484-6.219.243-.878.479-1.756.729-2.626.186-.02.571-.051.767-.07 2.822 1.155 5.793 1.882 8.66 2.917a344.539 344.539 0 0 0-2.418 7.811c.896-.814 1.882-1.553 2.649-2.5.688-1.528 1.042-3.183 1.604-4.768.929.297 1.854.581 2.791.878.54-.499 1.08-1.004 1.629-1.496-1.291-.404-2.58-.802-3.861-1.232.562-1.768 1.099-3.542 1.651-5.31.43-1.389.856-2.772 1.276-4.149 3.038 1.042 6.062 2.115 9.007 3.385.42-.467.991-.846 1.279-1.415.4-2.045.375-4.142.388-6.22 1.234.847 2.318 1.895 3.344 2.993.356-.334.714-.657 1.08-.991-1.671-2.574-3.761-4.885-6.259-6.685zm-22.633-.303c1.787-.783 3.77-.814 5.67-1.004-1.197 1.68-2.223 3.479-3.249 5.267l-.17.259c-2.144-.171-4.281-.386-6.428-.366.395-.486.795-.966 1.196-1.446.885-1.017 1.804-2.047 2.981-2.71zm-4.736 33.706c-1.825-1.604-4.082-3.183-4.556-5.733-.268-1.396-.357-2.81-.455-4.218 1.667 1.351 3.562 2.38 5.39 3.485 0 .102-.007.31-.007.404-.221 2.014-.372 4.035-.372 6.062zm.389-8.272c-1.955-.96-3.855-2.046-5.642-3.296.117-.922.234-1.837.366-2.752.24-1.712.635-3.397 1.004-5.083 2.125.745 4.256 1.484 6.391 2.198-.234.921-.474 1.85-.708 2.785-.54 2.031-.982 4.089-1.411 6.148zm2.661-10.621l-6.491-1.989c.126-.322.373-.96.496-1.282.773-2.103 1.743-4.124 2.728-6.125 2.198.076 4.383.31 6.554.644-.672 1.667-1.357 3.322-1.967 5.007-.446 1.251-.881 2.495-1.32 3.745zm10.731 3.328c-1.777-.542-3.536-1.124-5.313-1.635-1.364-.429-2.721-.871-4.098-1.288.395-1.162.783-2.33 1.19-3.485.65-1.812 1.364-3.593 2.042-5.393 3.088.663 6.16 1.452 9.188 2.387-.509 1.478-.982 2.981-1.456 4.477-.508 1.641-1.035 3.289-1.553 4.937zm3.53-11.138c-2.955-.891-6.002-1.453-8.957-2.324.973-1.932 2.018-3.839 3.23-5.632 2.652.322 5.241.947 7.864 1.44-.479 1.521-.988 3.049-1.489 4.571-.218.65-.436 1.294-.648 1.945zm10.372 3.864a133.982 133.982 0 0 0-8.636-3.315c.196-.732.411-1.458.623-2.185.422-1.452.843-2.905 1.28-4.351 2.481.992 4.974 1.996 7.294 3.354-.053 2.172-.265 4.338-.561 6.497z"/><radialGradient id="b" cx="29.75" cy="40.004" r="82.98" gradientUnits="userSpaceOnUse"><stop offset="0" stop-color="#919395"/><stop offset=".673" stop-color="#424243"/><stop offset="1" stop-color="#272525"/></radialGradient><path fill="url(#b)" d="M26.028 68.928c-2.649-1.01-5.09-2.551-7.044-4.615a17.313 17.313 0 0 1-3.027-5.544c-.846-3.119-.755-6.353-.581-9.547.517-1.749.618-3.593 1.143-5.335.518-2.273 1.386-4.445 1.989-6.687-2.015 3.731-3.514 7.754-4.335 11.915-2.169 2.457-2.93 5.771-3.861 8.833-.799 3.588-.881 7.369.243 10.898.859 2.242 2.163 4.312 3.893 5.999 4.859 4.364 12.464 6.062 18.438 3.024-5.692-.751-11.754-1.124-16.679-4.382-1.815-1.357-3.284-3.132-4.209-5.203-1.146-3.112-1.212-6.491-.748-9.749.467-2.822 1.225-5.582 2.103-8.297.082.044.25.139.329.184.082.473.151.954.214 1.44l-.142.05c-.17 2.469.01 4.938.467 7.362l.054-.019c.556 2.329 1.594 4.496 2.917 6.478l.028-.018c1.575 2.172 3.653 3.927 5.942 5.322 5.756 3.176 13.089 3.966 19.069.941-5.49-.568-11.044-1.131-16.275-3l.072-.05z"/><radialGradient id="c" cx="85.314" cy="41.313" r="68.55" gradientUnits="userSpaceOnUse"><stop offset="0" stop-color="#ecba31"/><stop offset=".358" stop-color="#cb2229"/><stop offset=".661" stop-color="#a22430"/><stop offset="1" stop-color="#540000"/></radialGradient><path fill="url(#c)" d="M86.548 43.785c-3.074-3.404-6.193-6.794-9.285-10.191-4.272.935-8.54 1.894-12.817 2.797-.765.158-1.538.379-2.081.954-5.992 5.443-11.928 10.95-17.955 16.348l.009.102c-2.857 2.475-5.623 5.063-8.414 7.628-.628.347.076.833.3 1.155 3.205 3.485 6.381 6.996 9.579 10.494.044-.044.085-.082.123-.119l9.706 10.538 15.214-14.019v.057a73.298 73.298 0 0 1 2.229-2.076s-.006-.013-.015-.02l7.542-6.952a.385.385 0 0 1 .051.058c.647-.594 1.294-1.188 1.942-1.775 1.151-4.496 2.784-8.858 4.097-13.304.135-.57.312-1.258-.225-1.675zm-8.574-5.045c1.641-.891 3.795.713 3.406 2.538-.152 1.882-2.76 2.703-4.036 1.377-1.183-1.08-.889-3.297.63-3.915z"/></svg>