<svg xmlns:xlink="http://www.w3.org/1999/xlink"  xmlns="http://www.w3.org/2000/svg" viewBox="0 0 150 150"><path fill="#00A9DE" d="M104.4 130.1c-9.8 5.2-21.1 6.3-31.7 3.1C62 130 53.3 122.8 48 112.9L28.5 76.3C17.6 56 25.3 30.7 45.6 19.9c9.8-5.2 21.1-6.3 31.7-3.1C88 20 96.7 27.2 102 37l19.6 36.7c5.2 9.8 6.3 21.1 3.1 31.7-3.3 10.7-10.5 19.4-20.3 24.7zm1.2 2.2c10.4-5.6 18.1-14.8 21.5-26.1 3.4-11.3 2.3-23.3-3.3-33.7l-19.6-36.7c-5.6-10.4-14.8-18.1-26.1-21.5-11.3-3.4-23.3-2.3-33.7 3.3C22.9 29.1 14.7 56 26.2 77.5l19.6 36.7c5.6 10.4 14.8 18.1 26.1 21.5 11.3 3.4 23.3 2.2 33.7-3.4z"/><path fill="#FFB602" d="M65.3 136.7c-11-1.7-20.7-7.6-27.2-16.6-6.6-9-9.2-20-7.5-31L37.1 48C40.7 25.3 62 9.7 84.7 13.3c11 1.7 20.7 7.6 27.2 16.6 6.5 9 9.2 20 7.5 31l-6.5 41.1c-1.7 11-7.6 20.7-16.6 27.2-9 6.6-20 9.2-31 7.5zm-.4 2.5c11.7 1.8 23.4-1 32.9-7.9s15.8-17.2 17.7-28.9l6.5-41.1c1.8-11.7-1-23.4-7.9-32.9-7-9.5-17.2-15.8-28.9-17.7C61 7 38.3 23.5 34.6 47.6l-6.5 41.1c-1.8 11.7 1 23.4 7.9 32.9 7 9.5 17.2 15.8 28.9 17.6z"/><path fill="#D77D31" d="M29.4 117.7c-7.6-8.1-11.6-18.7-11.2-29.8.4-11.1 5-21.4 13.1-29l30.3-28.4c16.8-15.7 43.2-14.9 58.9 1.9 7.6 8.1 11.6 18.7 11.2 29.8-.4 11.1-5 21.4-13.1 29l-30.3 28.4c-8.1 7.6-18.7 11.6-29.8 11.2-11.1-.3-21.5-5-29.1-13.1zm-1.8 1.7c8.1 8.6 19 13.6 30.8 14 11.8.4 23.1-3.9 31.7-11.9L120.4 93c8.6-8.1 13.6-19 14-30.8.4-11.8-3.9-23.1-11.9-31.7-16.7-17.8-44.7-18.7-62.5-2L29.6 56.9C21 65 16 76 15.6 87.8c-.3 11.8 3.9 23 12 31.6z"/><path fill="#A55A4D" d="M13.4 85.2C9.6 62.5 25 41 47.7 37.3l41-6.8c22.7-3.8 44.2 11.6 47.9 34.3 1.8 11-.7 22-7.2 31.1-6.5 9-16.1 15-27.1 16.9l-41 6.8c-11 1.8-22-.7-31.1-7.2-9-6.6-15-16.2-16.8-27.2zm-2.5.4c1.9 11.6 8.3 21.9 17.9 28.7 9.6 6.9 21.3 9.6 33 7.7l41-6.8c11.7-1.9 21.9-8.3 28.7-17.9s9.6-21.3 7.7-33c-4-24.1-26.8-40.4-50.8-36.4l-41 6.8C23.2 38.8 6.9 61.6 10.9 85.6z"/><path fill="#97A822" d="M18.6 48.1c4.8-10 13.2-17.6 23.7-21.3 10.5-3.7 21.8-3.1 31.8 1.7l37.5 17.9c10 4.8 17.6 13.2 21.3 23.7 3.7 10.5 3.1 21.8-1.7 31.8s-13.2 17.6-23.7 21.3c-10.5 3.7-21.8 3.1-31.8-1.7l-37.5-17.9C28.3 98.9 20.7 90.5 17 80c-3.7-10.5-3.2-21.8 1.6-31.9zM16.3 47c-5.1 10.7-5.7 22.7-1.8 33.8 3.9 11.1 12 20.1 22.6 25.1l37.5 17.9c10.7 5.1 22.7 5.7 33.8 1.8 11.1-3.9 20.1-12 25.1-22.6 5.1-10.7 5.7-22.7 1.8-33.8s-12-20.1-22.6-25.1l-37.4-18c-10.7-5.1-22.7-5.7-33.8-1.8-11.2 4-20.1 12.1-25.2 22.7z"/></svg>