<svg xmlns:xlink="http://www.w3.org/1999/xlink"  xmlns="http://www.w3.org/2000/svg" viewBox="0 0 150 150"><path fill="#253C47" d="M130.9 24c-.7-1.7-2.4-2.9-4.3-2.9h-14.4c-18.9-9.5-35.9-14-36.6-14.2-.4-.1-.8-.2-1.2-.2-.4 0-.8.1-1.2.2-.7.2-18 4.7-36.8 14.3H22c-1.9 0-3.6 1.1-4.3 2.9-.3.8-7.8 18.8-4.8 42.9 2.7 22 15.1 53.2 58.2 77.6.2.2.5.4.7.5.7.4 1.5.6 2.3.6.5 0 .9-.1 1.4-.2.4-.1.8-.3 1.1-.5.2-.1.3-.2.5-.3 43.4-24.4 55.8-55.8 58.5-77.8 3-24.1-4.4-42.1-4.7-42.9zM74.3 135.8l-.1.1v-.1c-75.1-41.9-48.1-106-48.1-106h14.3c17.5-9 34-13.3 34-13.3s16.2 4.3 33.7 13.3h14.3s27 64.1-48.1 106z"/><path opacity=".28" d="M130.8 24.3c-.7-1.7-2.4-2.9-4.3-2.9h-14.4c-18.9-9.5-35.9-14-36.6-14.2-.3-.1-.5-.1-.8-.1v138.8c.3 0 .5-.1.8-.2.4-.1.8-.3 1.1-.5.2-.1.3-.2.5-.3 43.4-24.4 55.8-55.8 58.5-77.8 3-24-4.5-42-4.8-42.8z"/><path fill="#C0D449" d="M103.4 59.7H45c-3.4 0-6.2 2.8-6.2 6.2v11.9c0 3.4 2.8 6.2 6.2 6.2h58.4c3.4 0 6.2-2.8 6.2-6.2V65.9c0-3.4-2.8-6.2-6.2-6.2zm-.5 11.4c0 1.7-1.4 3.2-3.2 3.2-1.8 0-3.2-1.4-3.2-3.2 0-1.8 1.4-3.2 3.2-3.2 1.8 0 3.2 1.4 3.2 3.2zm-11.3 0c0 1.7-1.4 3.2-3.2 3.2-1.8 0-3.2-1.4-3.2-3.2 0-1.8 1.4-3.2 3.2-3.2 1.8 0 3.2 1.4 3.2 3.2zM79 71c0 .7-.6 1.3-1.3 1.3H48.6c-.7 0-1.3-.6-1.3-1.3 0-.7.6-1.3 1.3-1.3h29.1c.7 0 1.3.6 1.3 1.3z"/><path fill="#0E323B" d="M103.4 35.6H45c-3.4 0-6.2 2.8-6.2 6.2v11.9c0 3.4 2.8 6.2 6.2 6.2h58.4c3.4 0 6.2-2.8 6.2-6.2v-12c0-3.4-2.8-6.1-6.2-6.1zm-.5 11.3c0 1.7-1.4 3.2-3.2 3.2-1.8 0-3.2-1.4-3.2-3.2 0-1.8 1.4-3.2 3.2-3.2 1.8.1 3.2 1.5 3.2 3.2zm-11.3 0c0 1.7-1.4 3.2-3.2 3.2-1.8 0-3.2-1.4-3.2-3.2 0-1.8 1.4-3.2 3.2-3.2 1.8.1 3.2 1.5 3.2 3.2zm-12.6 0c0 .7-.6 1.3-1.3 1.3H48.6c-.7 0-1.3-.6-1.3-1.3 0-.7.6-1.3 1.3-1.3h29.1c.7 0 1.3.5 1.3 1.3zM103.4 83.9H45c-3.4 0-6.2 2.8-6.2 6.2V102c0 3.4 2.8 6.2 6.2 6.2h58.4c3.4 0 6.2-2.8 6.2-6.2V90.1c0-3.5-2.8-6.2-6.2-6.2zm-.5 11.3c0 1.7-1.4 3.2-3.2 3.2-1.8 0-3.2-1.4-3.2-3.2 0-1.8 1.4-3.2 3.2-3.2 1.8.1 3.2 1.5 3.2 3.2zm-11.3 0c0 1.7-1.4 3.2-3.2 3.2-1.8 0-3.2-1.4-3.2-3.2 0-1.8 1.4-3.2 3.2-3.2 1.8.1 3.2 1.5 3.2 3.2zm-12.6 0c0 .7-.6 1.3-1.3 1.3H48.6c-.7 0-1.3-.6-1.3-1.3 0-.7.6-1.3 1.3-1.3h29.1c.7 0 1.3.6 1.3 1.3z"/></svg>