<svg xmlns:xlink="http://www.w3.org/1999/xlink"  xmlns="http://www.w3.org/2000/svg" viewBox="0 0 150 150"><path fill="#75A76D" d="M41.1 63.1l.7 1.6.2-.6-.4-.8-.3-1.8h-.4l-.4-.9-.5-1.9-.5-.2.2 1.4 1.4 3.2zm-.2-6.2l.1-2.5.5-.6-.2-.4.3-.3-.1-1.9.6-3.2-.3-1.4-2 7.2-.3 3.9.4.5 1-1.3zm15 31.8l-.6-.3.1-1.2-1.1-1.6.6-2.2-.2-.7-.5-.4.5-2-.3-.2-.8.4-1.5 1.8-.5.2-.5-.2-1.5-2.6-.2-.9.7-.6.3.2.5-.2-.1-.4-.4.1.1-.3-.5-.2-1.4-2-.1-.1.1.7-1.2-1-.1.3h-.7l-.1.6-.4-.8-.5.1.3-.3-.1-.6-.7-.9-.1.2-.4-.3-.1.3-.5-.2-.3.5-.3-.7-.3.7V73h-.4l-.2.5-.8.1-1.9-1.7-1.3-.3.1-.4-.1.1-.5.8.1 1.2-.2-.6v.7l-.2-.4.4 3.9v.6l-.2-.1.9 1.9.8.4 1.3 1.6 1 .4 1.4 1.2 1.2 1.5.1.1.8 1 .5 1.6L47 87l-.1.4-.6.1.4.4.3-.2v.3l-.3.1.6.4v.9l.6.9.8.8.8.3.6.9 1.9.8h.1l1.4-.5H54.9l.9-.6.5-1.2-.7-1.7.3-.4zm35.8-60.5l-.2-.5-.4-.2-.3.5.9.2zm-42.2 65l1.2.5v-.4l-1.5-1.2.3 1.1zm42.9-58.4l-.1-.6h-.5l.6.6zm.4-10l-.5-.2.4.5.1-.3zm-.6 8.7l.9.6.2-.6-.3-.2-.4-.3-.4.5zm.1-5.6l-.8-.2.3.4.5-.2zM51.4 57l.4-.5-.6.3.2.2zm.6-10.4l-.4.5.1.6.6.1.7-.2.1-.4-.3-.4-.8-.2zm1.9 12.3l-.4 1.2.5-.6-.1-.6zm-1.6 0v.7l1-.7-.3-.3-.7.3zm-5.2-1.3l-.6-.5-1.1.2-.5-.5-.6.4-.3-1.1-.2.2-.2-.2-.5.5-.8 2.6.9 1.5.3 1.6.7.3 2.5-1.4.3.6.8-2.5 1.1.4-.3-1.3.2-.8h-1.7zm8.7-2.6l.7-.9-.7-.9-1.3 1.1-.2-.3-.8 1.8.5.6.3 1.8.6-.8-.3-.9-.4-.6.3-.6 1.3-.3zm-2.2 3.9l-1.1.7.7-.2.4-.5zM108 34.2l1.2.9v-1l-.5-.7 2.3 1.9-.5-1h.3l-.6-.9-.5-.8h-.5l-.2-.7-.9-.9.3 1-.6-.5-.2.4.6 1.5-.8-.5.6 1.3zm-3.9-2l.6.4v-.4l-.2-.4-.9-.1.5.5zm1.2 1.6l.3-.2-.5-.4-.4.1.1.2.5.3zm.9 2.6l-.6-1.2v.5l.2.7h.4zm.5.8l.1.6.8 1.4.6.3-.6-2.1-.9-.2zm1.7 1.5l.8-.1-.1.8 1 .2-.3-1.3.3.1-.6-1.2-.5.1-1.1-.8.1 1.3-.4-.5.8 1.4zm-3.1-6.4l1 .7-.2-.9-.5-.5-1-.9-.1.2-.6-.7-1.9-1.1.9 1.6.5.6.2-.6.7.6.6.1.4.9zm-11.6 1.8l-.3-.7-.2.6.5.1zm13.4 1.4l-.5-.5-.4.1-.2.4 1.1 1v-1zM94.9 24.4l-.2-.2-.9-.3.7.5h.4zm-1.1 10.3l.5.3-.5-.8v.5zm1.3-10.5l.4.1-.1-.2-1.1-.5.3-.1-.9-.6.3.9 1.1.4zm11.7 9.2l-.5-.3-.3.3.2.3 1 .2-.3-1.3-.7-.6.6 1.4zm-6.4-8.5l-1.3-.4.5.7-.8.5.3.2h-.8l1.4 1.6 1.1.8.1-.3 1.3 1.2 1 .4 1.5 1.2-.1-.7.5.7.2-.3-.8-1.1.5-.4 1.9.3-2.2-2.2-5.3-3.2 1 1zm-.8 15.2l-.4-.5-.3.4.7.1zm-.8-17.5l-1.7-.8 2.7 1.7-1-.9zM52.9 56.9h.2l.4-.4-.4-.7-.2 1.1zM81 50.3h1.3l-.5-.2-.8.2zm-23.2 1.2l1.9-.9.2-.5-1.4.2-.7 1.2zm30.9-26.9l.6.2-.6-1.5-.9-.3v-.3l-.6.1.8.5.7 1.3zm13 21.6l.3-.1-.9-.6.6.7zM85.3 22.1l1.9.7.3-.2-1-.6-1.2.1zm-3 22.9l-2.6 2.9.7.3.3-1.1.9-.7.4.8 1.8-3.7-1.3.8-.2.7zm-7.7 6.2h-.9l-.4-.6-1.7.5-1.3-1.1h-1.6l.4.6.4-.1 1.5 1.1-.5.3v.6h.9v-.4l.4-.1-.1.4.9.7 1.4.1 1.3-1.3 1.1-.3.6-1.6-.4-.1-2 1.3zm3.6-2.1l-1.1-.1-.5.7h1.3l.3.8.7-.3 1 .4v-.7l-.6-1.9-1.1 1.1zm20-8.6l-3.4-1.4-.2-1.2-2.8-3.3-.7.4-1-1.4-.9.2.1-.7.8-.3-.3-1.1-.5.1-2.3-3 3 1.2.5-1.3-4.8-3.7-2.3-1.1-1.2.4-.5-1.3 4.3 1.4.3-.3-1.1-.7-2.3-.4 1.7-.6-1-.5 1.8-1.8 2.9.2 1.7.4.5-.8-.4-.6.9-.2-1.3-.7L88 18l-2.8-.8 2.3 1.2.4.6h-.4l-.8-.3v-.4l-1.9-.7-.8.3-1-.1.5-.1.9-.1-.8-.2-.6-.2 1 .1-.4-.2-.1-.1-.2-.1 1.7.1-1.6-.3-1.6-.2-1.9-.2-2-.1H74l-1 .6-.5-.2-2.3.4-1.6.2 3.3-.8-1.9.3-2 .3-1.9.5-1.8.5-2 .6-1.8.6-1.9.8-1.7.8-1.7.9-3.5 2.2-1.9 1.4h.4l1.6-.6L54 23l.8-.4H54l1.1-.8.2-.1h.1l2.9-1.5 1-.3-3.6 1.9-2.7 2.6-.5 1-1.5 1.5-.9.7-1.1 1.1v.4l-.9.9-2.3 2-4.1 5 1-.1 2.9-2.3.5.4 2.3.4.8-.3.3.8.2.5.8-.2-1.1 1.5-2.4 3.8 1.1-.1-.3.9-3.1 3.6-1 .8-.4 1.9L42 51l.1 2.3.5-1.3.7-.9.2-1.3 1.3-3.7 1.9-.9-.4 2.1-.2 1.4-.8 1.3 2.7.6 1.8-2.1.4-1.7.7-1.7 1.1-.2.9.2v1.7l.7-.4 1.1 1 1.8 1.2 2.5.3 2.3-.4 1.8-1.1 1.4-2.4v-.7l2.7.3-.3-1-.9-.2.4-1.5 2.7.7-.2.4-1.3.4 1.8.7.2.7-1.1.4v.4l.5.5-.8.3-1.2 1.3 1.1.7 1.2-.1.7-.9.2-.9.1-.7.4-.2h2.7l1-.1.1.9 1.1.3 4.7-.8 2.3-1.6.5-1.5-1.2-.4.1-1.2 4.3-.1 2.6 2.3 1.2.6v-.5l1.6-.5 1.1.5-.5.8 1.2-.1.4-.5.4.3-.7.8h-.7l-1.9.8-1.4.3-.8 1.1-.9 2.6 3.3-1.2 1.9-3 2.3 1.1 1.3-.7 1.8.3-.3-1.8 1.2-.1 1.5 1.4.8-1-3.5-4.1zm9.4-5.9l1.1.9-1.1-1.4v.5zm12.1 23.2l-.1-2-.2-1.9-.3-2.2-.4-1.7-.5-1.9-.6-2-.7-1.9-.8-1.9-.8-1.9-.8-1.6-.9-1.7-1.1-1.7-1.1-1.6-.6-.7 1.2 2.1-1-1.2.6 1.5 1.9 2 .9 1.7.7 1.8-.3.1.1.9-1.5-1.9-1-1.8-1-1.7-1.2-2-.7-.6-.1.4 1.3 1.5-2-.6.9 1 .7.2.6.9-.3.2.2.8h-.6l.1 1.9-1.3-.4v.5l-.9-.4-.2 1.5-1.1-.1-1.9-.2-1.1-.6-.8.6-.2.9-.5.3.8 1 .6.9-.7-.5-.8.5.6.9h1.3l.1.9-1.3 1.3 1.4 2.3.5-.4.2.7.6-.4-.2 1.3-1.6 1.5 1.2-.2 1.4-1.9-.2-.9.6-1.4.2-.2.2.5-.4 1.3.7-.7v-.7l.8.2.3.3 1-.4.7.7.7.3-.4-.8 2.1 2.8.1-.3 1.4 2.5h.7l.7.7.3 1.1-.3-.4-.2.2.6 1.1.4 3.2v.1l1.2 4.4.4-.2.2.6.1.1.5 4.1.1-1.9-.3-2.5h.2l.2 1.4.1 1.7.1-.3.2-1.2.2-1.8.1-1.9v-4.2zM111.6 36l-.3.4 1 1.2-.7-1.6zm-.8 13.4l.3.5v-.5h-.3zm-4.4 1.5l.3.4.4-.7-.5-.2-.2.5zm6.6 2l.3.3-.4-.7.1.4zm-1.2-2.5l.1.3.6.7-.4-.9-.3-.1zM42.9 65.8l-.2.3 1 .9-.8-1.2zm3 4.9l1.3.5-1.8-1.2-.4.2.6.5h.3zm1.4-8.2l-1.8 1.2-.7 1.9.3.5.9-1.4.4.2-.5 1.5.7.4.3-2.2 1.3.5-1.4-1.1.5-1.1L49 65l.9-.1-1.9-2.2-.7-.2zm1.6 6.2v-.6l-.3-.3-.1.4.4.5zm-4.5-.4l1 .7-1.4-1.6.4.9zm5.3.6l-.2.1 1.2 1.7.1-.5-.4-.7-.7-.6zm1.1-1.9l.4.5-.1-.5.4-.1-.1-.3h-.6l.3-.7-.6.4.3.7zm-1.3 6.2l.4-.3h-.5l.1.3zm-3.1-6.1l-.2.4.5-.3v-.3l-.3.2zm22.5-16.3l-.1.7.7-.1.3.3.5-.1-.1-.6-1.3-.2zM58.7 80.4l.6.3.1-.4-.9-1.1-.3-1.6-1.5-2.3-1.4-2.2-2.2-.3-.2-1 .5-1-.7-1.1-1.1-.1.4 1.2-.3 1.2.7.8 1.6 2.6-1.2 1.3 1.3.9.4 1.2 1.3.9 1.1-.2.8 1.2.3 1.6 1.6 1.3v-.2l-.8-1.9-.1-1.1zm1.4.2v-.2l-.1-.2.1.4zm-9.2-20.3l.5-.2v.4l.6.3-.5 1 .3 1 .5-.7h.4l-.2.7.7-.4.5-1.1-.1-.7-.4.4-.2-.4h-.9l.1-.6-.7-.2-.7.2.1.3zm16.8-10.5l-.3.4.2.2.3-.3-.1.3-.9.6v.3l.4-.2-.3.4 1.5-.4.3-.6-.2-.5-.9-.2zM51.8 73.5v.5l.3-.5h-.3zm-9.5-8.1l.3.4.2-.3-.3-.3-.2.2zm1.5 2.5l-.4-.4.5 1.3-.1-.9z"/><path opacity=".41" fill="#3E96DB" d="M80.7 63.4c-8.9.1-16.1 13.7-16.1 30.5s7.2 30.4 16.1 30.5v-61z"/><path fill="#008B6E" d="M131.3 58.6c0-29.6-24.1-53.7-53.7-53.7-29.6-.1-53.7 24-53.7 53.7 0 22.5 13.9 41.8 33.6 49.8 3.6 12.4 11.1 20.8 20.1 20.8h.5c-.1.7-.3 1.5-.9 2.1-1.2 1.5-3.5 2.2-6.9 2.1-8.7-.3-29.1.1-29.6 10.7 0 .6.5 1.1 1.1 1.2.6 0 1.1-.4 1.2-1.1.4-8.8 21-8.8 27.3-8.5 4.2.1 7.1-.8 8.8-3 .9-1.2 1.3-2.6 1.4-3.7 7.7-1.5 14.1-9.4 17.3-20.5 19.5-8.1 33.5-27.4 33.5-49.9zm-53.7 62.7c-3.8 0-7.9-3.8-10.7-10.1 3.5.7 7.1 1.1 10.8 1.1 3.7 0 7.2-.4 10.7-1.1-3 6.3-7 10.1-10.8 10.1zM63 91.6c0-17.5 7.7-29.7 14.5-29.7 6.9 0 14.5 12.2 14.5 29.7 0 3.9-.4 7.6-1.1 10.9-4.2 1.3-8.8 2-13.4 2-4.7 0-9.2-.7-13.5-2-.6-3.4-1-7-1-10.9zm36.5 7.3c.3-2.4.4-4.8.4-7.3 0-21.1-9.8-37.5-22.3-37.5C65 54 55.2 70.5 55.2 91.6c0 2.5.1 4.9.4 7.3-14.2-7.9-23.9-23-23.9-40.3 0-25.3 20.6-45.9 45.9-45.9 25.3 0 45.9 20.6 45.9 45.9 0 17.3-9.7 32.5-24 40.3z"/></svg>