<svg xmlns:xlink="http://www.w3.org/1999/xlink"  xmlns="http://www.w3.org/2000/svg" viewBox="0 0 150 150"><path fill="#204389" d="M49.7 88.8l13.9 22.8 12.7-23.4z"/><path fill="#E43D26" d="M35.8 66l13.9 22.8 12.7-23.4z"/><path fill="#06A2DC" d="M62.4 65.4L49.7 88.8l26.6-.6-13.9-22.8z"/><path fill="#41A56F" d="M75.2 41.9L61.3 19.2 48.5 42.6z"/><path fill="#A5C439" d="M48.5 42.6l13.9 22.8 12.8-23.5-26.7.7z"/><path fill="#DAC725" d="M21.9 43.2L35.8 66l12.7-23.4z"/><path fill="#FCB814" d="M48.5 42.6L35.8 66l26.6-.6-13.9-22.8z"/><path fill="#8BB93F" d="M48.5 42.6L34.6 19.8 21.9 43.2z"/><path fill="#5A2C80" d="M49.7 88.8l-12.8 23.4 26.7-.6z"/><path fill="#C42429" d="M35.8 66L23 89.5l26.7-.7z"/><path fill="#CB1E55" d="M49.7 88.8l-26.7.7 13.9 22.7z"/><path fill="#F09721" d="M21.9 43.2l-1.7 3L9.1 66.7l26.7-.7-13.9-22.8z"/><path fill="#EB6224" d="M9.1 66.7L23 89.5 35.8 66l-26.7.7z"/><path fill="#099C49" d="M61.3 19.2l-26.7.6 13.9 22.8z"/><path fill="#204389" d="M102.2 65l-13-23.3-13.7 22.9z"/><path fill="#E43D26" d="M115.1 88.3L102.2 65 88.5 87.9z"/><path fill="#06A2DC" d="M88.5 87.9L102.2 65l-26.7-.4 12.9 23.3z"/><path fill="#41A56F" d="M74.7 110.8l13 23.4 13.7-22.9z"/><path fill="#A5C439" d="M101.4 111.3L88.5 87.9l-13.8 22.9 26.7.5z"/><path fill="#DAC725" d="M128.1 111.7l-13-23.4-13.7 23z"/><path fill="#FCB814" d="M101.4 111.3l13.7-23-26.6-.4 12.9 23.4z"/><path fill="#8BB93F" d="M101.4 111.3l13 23.3 13.7-22.9z"/><path fill="#5A2C80" d="M102.2 65l13.7-22.9-26.7-.4z"/><path fill="#C42429" d="M115.1 88.3l13.8-22.8-26.7-.5z"/><path fill="#CB1E55" d="M102.2 65l26.7.5-13-23.4z"/><path fill="#F09721" d="M128.1 111.7l1.7-2.9 12-20-26.7-.5 13 23.4z"/><path fill="#EB6224" d="M141.8 88.8l-12.9-23.3-13.8 22.8 26.7.5z"/><path fill="#099C49" d="M87.7 134.2l26.7.4-13-23.3z"/></svg>