<svg xmlns:xlink="http://www.w3.org/1999/xlink"  xmlns="http://www.w3.org/2000/svg" width="100" height="100" viewBox="0 0 100 100"><path fill="#8BC53F" d="M51.887 72.419a3.398 3.398 0 1 1-6.797.001 3.398 3.398 0 0 1 6.797-.001z"/><path fill="#14BDEF" d="M63.124 28.974v17.86a10.93 10.93 0 0 1 3.174-1.462 9.105 9.105 0 0 1 1.101-.238v-16.16c0-5.417-4.409-9.831-9.831-9.831H38.187c-5.422 0-9.831 4.413-9.831 9.831V59.52a11.382 11.382 0 0 1 4.274-.949V28.974a5.563 5.563 0 0 1 5.557-5.553h19.381a5.56 5.56 0 0 1 5.556 5.553z"/><path fill="#8BC53F" d="M68.539 56.649v15.547a5.565 5.565 0 0 1-5.554 5.557H34.433a5.559 5.559 0 0 1-5.553-5.557v-.925c-1.485.357-2.916.674-4.274.944.008 5.414 4.413 9.812 9.828 9.812h28.552c5.418 0 9.827-4.409 9.827-9.831v-17.72a172.27 172.27 0 0 1-4.274 2.173zM73.957 35.267c4.233-.437 7.006-.016 7.57 1.41 1.442 3.627-11.877 12.322-29.756 19.429C33.896 63.207 18.238 66.023 16.8 62.4c-.568-1.426 1.156-3.635 4.536-6.224-8.893 5.335-14.038 10.141-12.973 12.811 1.863 4.694 22.137 1.044 45.287-8.155 23.15-9.2 40.402-20.461 38.539-25.156-1.064-2.67-8.099-2.634-18.232-.409z"/><path fill="#14BDEF" d="M52.229 28.982h-8.497a.714.714 0 0 1 0-1.429h8.497a.714.714 0 1 1 0 1.429zM77.476 38.071c-.477-1.195-3.853-1.112-8.961-.02v.46c1.024.028 1.676.238 1.847.664.767 1.93-8.512 7.432-20.723 12.286-12.215 4.851-22.737 7.222-23.504 5.287-.17-.432.171-1.049.925-1.787v-.513c-4.69 2.81-7.344 5.152-6.856 6.384.998 2.502 14.622-.564 30.436-6.849 15.817-6.284 27.83-13.41 26.836-15.912z"/></svg>