<svg xmlns:xlink="http://www.w3.org/1999/xlink"  xmlns="http://www.w3.org/2000/svg" width="100" height="100" viewBox="0 0 100 100"><path fill="#2E3191" d="M55.462 88.764c-15.164 0-29.524-9.155-35.384-24.11-3.022-7.708-2.862-16.13.456-23.719 3.313-7.588 9.383-13.428 17.095-16.45 6.323-2.476 13.234-2.345 19.455.374 6.226 2.723 11.021 7.7 13.498 14.023 4.217 10.771-1.109 22.962-11.876 27.184a17.318 17.318 0 0 1-13.325-.259 17.316 17.316 0 0 1-9.239-9.601 3.154 3.154 0 0 1 1.787-4.086 3.157 3.157 0 0 1 4.09 1.786 11.05 11.05 0 0 0 5.892 6.123 11.066 11.066 0 0 0 8.492.163c7.531-2.952 11.256-11.477 8.304-19.007A19.003 19.003 0 0 0 54.563 30.64a19.014 19.014 0 0 0-14.635-.283c-6.138 2.41-10.972 7.063-13.612 13.104-2.64 6.044-2.771 12.75-.366 18.892 6.365 16.25 24.765 24.286 41.014 17.921a3.162 3.162 0 0 1 4.09 1.786 3.158 3.158 0 0 1-1.79 4.09 37.8 37.8 0 0 1-13.802 2.614zM26.172 24.858a8.686 8.686 0 0 1-17.37 0 8.686 8.686 0 0 1 17.37 0z"/><radialGradient id="a" cx="46.823" cy="-13.631" r="167.593" gradientUnits="userSpaceOnUse"><stop offset="0" stop-color="#fff"/><stop offset=".021" stop-color="#fdedd9"/><stop offset=".048" stop-color="#fcd7ad"/><stop offset=".077" stop-color="#fac587"/><stop offset=".109" stop-color="#f9b566"/><stop offset=".142" stop-color="#f8a84c"/><stop offset=".179" stop-color="#f79e37"/><stop offset=".22" stop-color="#f69729"/><stop offset=".27" stop-color="#f69321"/><stop offset=".351" stop-color="#f6921e"/><stop offset=".824" stop-color="#ba461d"/><stop offset="1" stop-color="#ba461d"/></radialGradient><path fill="url(#a)" d="M43.595 12.416c15.173 0 29.528 9.157 35.388 24.112 3.019 7.708 2.858 16.133-.456 23.718-3.316 7.589-9.387 13.433-17.094 16.45-6.328 2.476-13.235 2.344-19.46-.373-6.225-2.72-11.013-7.705-13.493-14.027-4.221-10.768 1.108-22.959 11.875-27.176a17.261 17.261 0 0 1 13.32.255 17.288 17.288 0 0 1 9.239 9.6 3.157 3.157 0 0 1-1.786 4.09 3.155 3.155 0 0 1-4.086-1.79 11.006 11.006 0 0 0-5.893-6.119 11 11 0 0 0-8.496-.164c-7.526 2.948-11.251 11.477-8.303 19.004a19 19 0 0 0 10.151 10.545 18.996 18.996 0 0 0 14.626.284c6.144-2.407 10.98-7.061 13.617-13.104 2.645-6.045 2.767-12.755.365-18.894-6.369-16.249-24.766-24.289-41.018-17.92a3.156 3.156 0 0 1-4.086-1.786 3.159 3.159 0 0 1 1.787-4.09 37.845 37.845 0 0 1 13.803-2.615z"/><radialGradient id="b" cx="46.842" cy="-13.621" r="167.569" gradientUnits="userSpaceOnUse"><stop offset="0" stop-color="#fff"/><stop offset=".021" stop-color="#fdedd9"/><stop offset=".048" stop-color="#fcd7ad"/><stop offset=".077" stop-color="#fac587"/><stop offset=".109" stop-color="#f9b566"/><stop offset=".142" stop-color="#f8a84c"/><stop offset=".179" stop-color="#f79e37"/><stop offset=".22" stop-color="#f69729"/><stop offset=".27" stop-color="#f69321"/><stop offset=".351" stop-color="#f6921e"/><stop offset=".824" stop-color="#ba461d"/><stop offset="1" stop-color="#ba461d"/></radialGradient><path fill="url(#b)" d="M72.89 76.323a8.679 8.679 0 0 1 8.685-8.681 8.678 8.678 0 0 1 8.681 8.681c0 4.795-3.885 8.685-8.681 8.685a8.683 8.683 0 0 1-8.685-8.685z"/></svg>