<svg xmlns:xlink="http://www.w3.org/1999/xlink"  xmlns="http://www.w3.org/2000/svg" viewBox="0 0 150 150"><path fill="#F78E2D" d="M85 96.9c-2.2 13.3-12.8 23.8-26.1 25.7v18.5c11.3-1.1 44.9 0 44.9 0V96.8H85z"/><g fill="#00507F"><path d="M58.8 42.6v18.5c1.9.3 3.6.7 5.4 1.3 6.6-1 12.4-3.8 17.9-8.3.6-.6 1.3-1.2 1.8-1.8-7.1-5.3-15.8-8.8-25.1-9.7zM95.9 65.2c-1 .7-2.1 1.5-3.1 2.3-4.4 3.7-7.6 7.8-9.8 12.5.9 2.1 1.5 4.4 1.9 6.8h18.6c-.8-7.8-3.4-15.2-7.6-21.6zM5.1 86.9h18.6c2.1-13.1 12.4-23.4 25.5-25.6V42.6C25.8 44.9 7.3 63.5 5.1 86.9zM23.6 96.9H5.2c2.5 23 20.9 41.3 44 43.5v-17.9c-13.1-2.1-23.4-12.5-25.6-25.6z"/></g><path fill="#449BD5" d="M138.6 18.1c-3.8-4.5-8.6-7.1-14.3-7.6-.7-.1-1.5-.1-2.2-.1-5.1 0-9.6 1.7-13.6 5-4.5 3.8-7.1 8.6-7.6 14.4-.9 10.2-5 19-12.4 26.6-.8.8-1.6 1.6-2.5 2.4-4.2 3.6-8.8 6.2-13.7 7.9-4.5 1.6-9.3 2.4-14.3 2.4-.9 0-1.8 0-2.6-.1-1.2-.2-2.4-.3-3.6-.3-4.7 0-9 1.5-12.8 4.6-4.8 3.9-7.4 8.8-7.9 14.8s1.1 11.2 4.9 15.8c3.8 4.5 8.6 7.1 14.4 7.6.7.1 1.4.1 2.1.1 4.9 0 9.4-1.6 13.3-4.9 4.5-3.7 7.1-8.3 7.9-13.8.5-7.1 2.5-13.5 5.8-19.1 2.4-4 5.6-7.6 9.4-10.9 1.1-.9 2.2-1.8 3.4-2.6 7.1-5 15-7.5 23.5-7.5 1.9 0 3.8.1 5.7.4h1.1c5.1 0 9.7-1.8 13.7-5.3 4.3-3.8 6.7-8.6 7.2-14.4.5-5.7-1.1-10.8-4.9-15.4z"/></svg>