<svg xmlns:xlink="http://www.w3.org/1999/xlink"  xmlns="http://www.w3.org/2000/svg" width="100" height="100" viewBox="0 0 100 100"><path fill="#D0D2D3" d="M83.021 80.65c0 .813-7.778 1.467-17.373 1.467-9.597 0-17.374-.654-17.374-1.467 0-.807 7.777-1.461 17.374-1.461 9.594 0 17.373.655 17.373 1.461z"/><path fill="#4AAE48" d="M87.444 65.252c-.692-1.51-1.184-3.655-3.113-3.968-2.101-.56-3.949.679-5.576 1.83-8.67.006-16.965 2.982-25.096 5.669-1.485-2.336.206-4.854.684-7.24 9.607-2.754 19.294-5.229 28.865-8.131 2.902-.734 2.88-4.152 3.267-6.528.912-7.992 1.927-15.988 2.461-24.01.196-2.116-2.176-3.062-3.868-2.165-14.106 5.061-28.176 10.224-42.252 15.357-.943-1.522-1.722-3.155-2.881-4.529-1.419-.718-2.893.157-4.26.556-1.894.73-3.886 1.316-5.583 2.451-1.247 1.087-.701 3.563 1.069 3.666 2.113-.308 4.016-1.618 6.181-1.564 4.786 7.809 8.959 15.997 13.59 23.899-.815 2.135-.482 5.173-2.784 6.356-4.976 2.633-5.289 11.924.556 13.757 3.398-1.167 5.085-4.461 5.864-7.736 7.337-1.969 14.669-4.509 22.35-4.535.515 2.536 1.024 6.406 4.349 6.563 2.513.404 3.862-2.062 5.235-3.678 2.276-.658 4.27-2.262 4.155-4.843-1.072-.405-2.144-.79-3.213-1.177zM54.271 44.508c1.262-.441 2.523-.888 3.786-1.332.006 1.416.006 2.823.014 4.242-1.219.399-2.442.788-3.655 1.19a407.162 407.162 0 0 1-.145-4.1zm3.767 11.769c-1.156.284-2.316.567-3.473.863a556.327 556.327 0 0 1-.198-4.088c1.237-.375 2.475-.742 3.713-1.135-.01 1.453-.023 2.908-.042 4.36zm21.281-28.533c1.678-.556 3.354-1.136 5.03-1.715-.03.525-.103 1.582-.136 2.113a233.53 233.53 0 0 0-5.109 2.135c.07-.855.142-1.694.215-2.533zm-.658 7.736a705.128 705.128 0 0 0 4.864-1.951c-.076 1.643-.15 3.286-.238 4.928a383.823 383.823 0 0 1-4.967 1.951c.111-1.643.22-3.286.341-4.928zm-.786 10.124a245.24 245.24 0 0 1 4.754-1.681c-.122 1.657-.254 3.315-.375 4.982-1.57.585-3.158 1.12-4.734 1.66.108-1.661.229-3.309.355-4.961zm-7.132-14.859c1.354-.477 2.712-.96 4.076-1.431-.038.942-.078 1.884-.108 2.826a303.9 303.9 0 0 0-4.04 1.627c.024-1.008.05-2.014.072-3.022zm-.359 7.899c1.336-.474 2.667-.96 4.002-1.438-.067 1.407-.079 2.82-.248 4.228-1.038 1.051-2.584 1.361-3.89 1.99.025-1.598.082-3.183.136-4.78zm-.479 9.602c1.272-.428 2.55-.863 3.834-1.292-.091 1.601-.188 3.204-.284 4.807-1.244.405-2.494.804-3.729 1.196.058-1.568.112-3.141.179-4.711zM45.193 39.51c1.564-.546 3.135-1.102 4.716-1.633.049 1.238.11 2.491.175 3.738-.992.356-1.986.712-2.976 1.075-.634-1.06-1.269-2.126-1.915-3.18zm5.142 36.005a17.86 17.86 0 0 1-2.506.625c-.137-1.504-.779-3.2.311-4.518.483-1.139 2.06-.604 3.004-.954.206 1.648.502 3.539-.809 4.847zM82.2 71.16c-.525-.348-1.58-1.063-2.111-1.423.118-1.911 1.055-5.471 3.665-4.106 1.215 2.006-.057 4.14-1.554 5.529z"/><path fill="#5A5B5B" d="M45.1 52.8c-2.666-4.545-4.991-9.307-7.829-13.748-3.539.329-6.721 2.189-10.206 2.832-4.125.849-8.964 1.664-12.678-.849-1.881-3.451-1.048-7.379.075-10.918-3.46 7.077-7.554 15.568-3.907 23.377 2.054 4.505 6.728 7.06 11.284 8.405 9.031 2.47 18.597 2.041 27.698.194-.714-3.412-2.804-6.275-4.437-9.293z"/></svg>