<svg xmlns:xlink="http://www.w3.org/1999/xlink"  xmlns="http://www.w3.org/2000/svg" viewBox="0 0 150 150"><path fill="#AFB1B4" d="M58.7 77.1c-3.6 2.7-6 7.1-6.2 12.1l6.6-3.5c-.6-3.5-.6-6.6-.4-8.6zM65.1 98.6l-6.8 3.4c2.5 1.9 5.5 3.1 8.9 3.1 1.6 0 3.1-.3 4.5-.7-2.7-1.8-4.9-3.7-6.6-5.8zM72.7 104c5.3-2.2 9-7.5 9.2-13.8l-16 8c1.8 2.1 4 4.1 6.8 5.8zM59.3 86.5l-6.8 3.6c.1 2.1.5 4.2 1.4 6l7.2-4.3c-.9-1.7-1.5-3.5-1.8-5.3zM61.4 92.7L54.2 97c.9 1.7 2 3.2 3.4 4.4l7-3.5c-1.4-1.7-2.4-3.4-3.2-5.2zM65.4 97.5L82 89.2c-.1-2.7-.8-5.3-2.1-7.5L62.1 92.3c.8 1.8 1.9 3.5 3.3 5.2zM59.9 85.2l5.1-2.7.4.8-5.3 2.8c.4 1.7.9 3.5 1.7 5.4L79.4 81c-2.7-4.1-7.1-6.7-12.2-6.7-2.8 0-5.4.8-7.6 2.2-.2 1.8-.4 5 .3 8.7z"/><path fill="#CF7046" d="M128.6 113.4c-5.2.2-9.7 2.7-12.5 6.5l-15-10c3.2-6 5.1-12.8 5.1-20.2 0-14.2-7-26.8-17.6-34.1l12-18c1.7.5 3.5.8 5.4.7 9.1-.4 16.2-8.4 15.8-17.9-.4-9.5-8.1-16.9-17.2-16.6-9.1.4-16.2 8.4-15.8 17.9.2 5.6 3 10.5 7.1 13.5L84.2 53c-5.1-2.6-10.9-4.1-17-4.1-13 0-24.5 6.6-31.6 16.8l-7.5-6.4c.2-.6.3-1.2.3-1.9.4-5.2-3.7-9.7-9.1-10.1-5.3-.4-10 3.5-10.4 8.6-.4 5.2 3.7 9.7 9.1 10.1 2.8.2 5.4-.7 7.3-2.4l7.6 6.5c-3 5.8-4.8 12.5-4.8 19.5 0 9.4 3 18.1 8.2 25l-9.5 5.7c-.7-.6-1.6-1.1-2.4-1.5-5.8-2.4-12.5.5-15 6.5s.1 12.8 5.8 15.3c5.8 2.4 12.5-.5 15-6.5 1.4-3.3 1.2-6.8-.1-9.7l9.7-5.8c7.1 7.3 16.8 11.8 27.5 11.8 12.7 0 24.1-6.4 31.2-16.2l15.4 10.2c-.5 1.5-.7 3.2-.6 4.8.3 8.5 7.8 15.1 16.7 14.8 8.9-.4 15.8-7.5 15.5-16-.5-8.4-8-15-16.9-14.6zm-61.4.8c-13 0-23.5-11-23.5-24.5s10.5-24.5 23.5-24.5 23.5 11 23.5 24.5-10.5 24.5-23.5 24.5z"/><g fill="#FFF"><ellipse opacity=".42" cx="105.4" cy="12.2" rx="7.8" ry="5.7"/><ellipse opacity=".42" cx="130.8" cy="119.9" rx="7.8" ry="5.7"/><ellipse opacity=".42" cx="18.5" cy="53.3" rx="5.9" ry="4.3"/><ellipse opacity=".42" cx="18.5" cy="124.1" rx="4.6" ry="3.4"/></g></svg>