<svg xmlns:xlink="http://www.w3.org/1999/xlink"  xmlns="http://www.w3.org/2000/svg" viewBox="0 0 150 150"><path fill="#A55A4D" d="M53.6 129.1c0 1.5-.6 2.8-1.6 3.9-1 1-2.4 1.6-3.9 1.6s-2.8-.6-3.9-1.6c-1-1-1.6-2.4-1.6-3.9 0-3 2.5-5.5 5.5-5.5s5.5 2.4 5.5 5.5z"/><path fill="#27628E" d="M51.8 131.9c0 .7-.4 1.4-1.1 1.9-.7.5-1.6.8-2.6.8s-1.9-.3-2.6-.8c-.7-.5-1.1-1.2-1.1-1.9 0-1.5 1.7-2.7 3.7-2.7 2.1 0 3.7 1.2 3.7 2.7z" opacity=".27"/><path fill="#FFFFFE" d="M49.3 124.6c0 .2-.1.3-.4.4-.2.1-.5.2-.9.2-.3 0-.6-.1-.9-.2-.2-.1-.4-.3-.4-.4 0-.3.5-.6 1.2-.6.9 0 1.4.2 1.4.6z"/><path fill="#52C0E7" d="M129.3 50.9c5-13.1 5-24.2-1.1-30.5-7.4-7.6-22.4-6.2-39.5 2.2-2.4-.3-4.8-.5-7.3-.5-26.6 0-48.7 19.2-53.3 44.5 5.9-6.4 12.7-12.8 20.3-18.9 9.6-7.7 19.5-14 29-18.8-4.4 2.8-8.8 5.9-13.2 9.4-.2.2-.4.3-.6.5-.8.7-1.7 1.4-2.5 2.1-.3.2-.6.5-.9.7-.8.6-1.5 1.3-2.3 2-.3.3-.6.6-1 .9-.8.7-1.5 1.4-2.3 2.1-.3.3-.6.5-.9.8-1 1-2.1 2-3.1 3l-3.2 3.2-.9.9c-.8.8-1.5 1.6-2.2 2.4-.3.3-.6.6-.9 1-.8.9-1.6 1.8-2.4 2.6-.2.2-.4.4-.5.6-2 2.3-3.9 4.6-5.7 6.9 0 0 0 .1-.1.1-.9 1.2-1.7 2.3-2.6 3.5l-.1.1C15.2 95 9.3 117.5 19 127.4c4.9 5 13.1 6.1 23 3.9-4.7.6-8.6-.2-11.3-2.6-5.6-5-4.6-16.1 1.4-29.7 8.6 18.5 27.4 31.4 49.1 31.4 29.9 0 54.2-24.2 54.2-54.2.2-9.1-2.1-17.7-6.1-25.3zm-4.6-25.7c4.3 3.9 4.7 11.5 1.8 21-6-8.9-14.5-16-24.6-20.1 10-4.4 18.2-5 22.8-.9z"/><path opacity=".09" fill="#27628E" d="M125.3 70.4c9.9 9.9 6.6 29.3-7.5 43.3-14 14-33.4 17.4-43.3 7.5-9.9-9.9-6.6-29.3 7.5-43.3 14-14 33.4-17.4 43.3-7.5z"/></svg>