<svg xmlns:xlink="http://www.w3.org/1999/xlink"  xmlns="http://www.w3.org/2000/svg" viewBox="0 0 150 150"><path fill="#5BBA47" d="M124.2 79.5c-6 0-10.9 4.9-10.9 10.9s4.9 10.9 10.9 10.9c.6 0 1.1-.1 1.7-.1 3.1-.5 5.7-2.2 7.4-4.7 1.2-1.7 1.8-3.8 1.8-6 0-6.1-4.9-11-10.9-11z"/><path fill="#00B4E2" d="M29.5 47.7c-.6 0-1.1.1-1.7.1-3.1.5-5.8 2.2-7.4 4.7-1.1 1.7-1.8 3.8-1.8 6 0 6 4.9 10.9 10.9 10.9s10.9-4.9 10.9-10.9c0-5.9-4.9-10.8-10.9-10.8z"/><path fill="#0A142D" d="M135.5 101.7c-2.1 2.1-4.8 3.6-7.8 4.3.4 1.9.3 3.4-.4 4.4-.6.8-1.8 1.4-3.5 1.7-4.7.8-12.7-.6-23-4.7 1.2-6.3 1.9-13.1 2.4-20 18.6-15.2 31.2-31.2 33.1-42.5.7-4.1 0-7.6-1.9-10.4-5.6-7.9-19.4-6.8-35.5-.5C94.6 17 87.2 5 77 5c-8.7 0-15.4 8.9-19.8 22.1 3 1.3 5.8 2.7 8.3 4C69 20 73.4 13.8 77.1 13.8c4.3 0 9.7 8.7 13.4 23.9-4.4 2.1-8.8 4.5-13.3 7.1-24.6-14.5-49.4-21.7-57.4-10.3-2.3 3.3-2.7 7.4-1.6 12 2.2-2.1 5-3.6 8.1-4.2 0-1.1.2-2.1.6-2.7 2.3-3.3 12.2-2.7 26.3 2.9-1.2 6.4-2 13.3-2.4 20.4-22.9 18.8-39.3 40.9-30.9 52.7 4.7 6.7 15.2 6.9 27.9 3.1-.6-3.3-1.1-6.4-1.4-8.8-10.3 3.3-17.5 3.3-19.4.5-2.7-3.8 3-15.5 16.7-29.4 2.2 2 4.6 4 7 6 1.5 24.9 7.5 45.2 16.2 53.6 3.1 2.9 6.4 4.4 10 4.4 8.7 0 15.3-8.7 19.7-21.8-2.5-.9-5.4-1.9-8.5-3.1-3.4 10.4-7.7 16.2-11.2 16.2-1 0-2.2-.6-3.5-1.9-3.5-3.4-7.2-10.9-9.9-21.9 4.4-2.1 9-4.5 13.5-7.2 19.4 11.3 37.3 17.2 48.1 15.3 4.1-.7 7.2-2.5 9.2-5.3 2.7-3.6 2.9-8.3 1.2-13.6zm-32-26.3V75v-.5c.2.2.4.3.5.5-.2.1-.3.3-.5.4zm23.6-35.9c.6.8.7 2.1.4 3.8-1 5.7-6.6 14.9-17.2 25.6-2.3-2.1-4.8-4.2-7.3-6.2-.4-7-1.2-13.7-2.4-20.1 14.2-5.7 24.2-6.4 26.5-3.1zm-34.9 6.9c.5 2.8.9 5.7 1.2 8.8-.5-.4-1-.7-1.5-1.1-2.1-1.5-4.2-2.9-6.3-4.3 2.2-1.2 4.4-2.3 6.6-3.4zm-30.4 0c2.2 1.1 4.4 2.2 6.8 3.5-2.1 1.4-4.2 2.8-6.3 4.3-.6.4-1.1.8-1.7 1.2.3-3.2.7-6.2 1.2-9zM50.2 75c.1-.1.2-.2.3-.2v.5l-.3-.3zm11.6 28.7c-.5-2.9-.9-5.9-1.2-9.1.3.2.6.5.9.7.9-.4 4.3-2.1 8.5-4.8-.8-.6-1.7-1.2-2.6-1.8-2.7-1.9-5.2-3.8-7.7-5.7-.1-2.6-.2-5.2-.2-8 0-2.7.1-5.4.2-8 2.4-1.9 5-3.8 7.6-5.7 3.3-2.3 6.5-4.5 9.7-6.5 3.2 2 6.4 4.1 9.7 6.4 2.6 1.8 5.1 3.7 7.4 5.5.1 2.7.2 5.4.2 8.2 0 2.8-.1 5.5-.2 8.2-2.3 1.8-4.8 3.7-7.4 5.5-8.8 6.4-17.3 11.4-24.9 15.1zm30.1-7.8c.5-.3 1-.7 1.4-1-.3 3.1-.7 6-1.2 8.7-2.1-1-4.3-2.2-6.5-3.4 2.1-1.5 4.2-2.9 6.3-4.3z"/></svg>