<svg xmlns:xlink="http://www.w3.org/1999/xlink"  xmlns="http://www.w3.org/2000/svg" viewBox="0 0 150 150"><path fill="#00A9DE" d="M75.4 50.2c-9.3 0-17.4 5.1-21.7 12.7 4 1.7 15.6 4.8 35.2-3.1.3-.1.6 0 .8.3.1.3 0 .6-.3.7-20.2 8.1-32 4.9-36.2 3-1.6 3.3-2.6 7.1-2.6 11v1.1c5.5 2.2 21.9 6.9 42.7-5.3.3-.2.6-.1.8.2.2.3.1.6-.2.8-20.6 12-37 7.9-43.2 5.6.4 4.2 1.9 8.1 4.1 11.5 3.2 1.5 15 5.7 35.9-2.7.3-.1.6 0 .8.3.1.3 0 .6-.3.7-18.6 7.5-30 5.3-35 3.5 4.5 5.5 11.4 9.1 19.2 9.1 13.7 0 24.8-11.1 24.8-24.8 0-13.5-11.1-24.6-24.8-24.6z"/><path fill="#1B559E" d="M42.9 75c0 17.9 14.6 32.5 32.5 32.5s32.5-14.6 32.5-32.5-14.6-32.5-32.5-32.5S42.9 57.1 42.9 75zm2.3 0c0-16.7 13.5-30.2 30.2-30.2s30.2 13.5 30.2 30.2-13.5 30.2-30.2 30.2c-16.6 0-30.2-13.5-30.2-30.2z"/><path fill="#FD9A2B" d="M33.5 75c0 23.1 18.8 42 42 42s42-18.8 42-42c0-23.1-18.8-42-42-42s-42 18.9-42 42zm2.2 0c0-21.9 17.8-39.7 39.7-39.7 21.9 0 39.7 17.8 39.7 39.7 0 21.9-17.8 39.7-39.7 39.7-21.9 0-39.7-17.8-39.7-39.7z"/><path fill="#F67D4B" d="M23.2 75c0 28.8 23.4 52.2 52.2 52.2 28.8 0 52.2-23.4 52.2-52.2 0-28.8-23.4-52.2-52.2-52.2-28.7 0-52.2 23.4-52.2 52.2zm2.3 0c0-27.5 22.4-49.9 49.9-49.9s49.9 22.4 49.9 49.9-22.4 49.9-49.9 49.9S25.5 102.5 25.5 75z"/><path fill="#B55366" d="M10.9 75c0 35.6 29 64.6 64.6 64.6S140 110.6 140 75c0-35.6-29-64.6-64.6-64.6S10.9 39.4 10.9 75zm2.2 0c0-34.3 27.9-62.3 62.3-62.3 34.3 0 62.3 27.9 62.3 62.3 0 34.3-27.9 62.3-62.3 62.3-34.3 0-62.3-28-62.3-62.3z"/></svg>