<svg xmlns:xlink="http://www.w3.org/1999/xlink"  xmlns="http://www.w3.org/2000/svg" viewBox="0 0 150 150"><linearGradient id="a" gradientUnits="userSpaceOnUse" x1="26.902" y1="68.154" x2="105.281" y2="68.154" gradientTransform="rotate(49.617 80.239 47.898)"><stop offset="0" stop-color="#fac321"/><stop offset="1" stop-color="#e85525"/></linearGradient><path fill="url(#a)" d="M105.7 54.4c0 3.1-.9 5.4-2.5 6.9-1.7 1.5-3.9 2.3-6.7 2.3h-4.8c-3.1 0-5.5-.7-7.2-2.1-1.8-1.4-2.7-3.8-2.6-7.1v-8c0-2.4-.5-4.3-1.6-5.5-1.1-1.2-3.1-1.8-6-1.8L38.7 39c-2.6 0-4.4.6-5.3 1.9-.9 1.3-1.4 3.1-1.4 5.4v8c0 3.4-.9 5.8-2.8 7.1-1.8 1.4-4.4 2.1-7.8 2.1h-3.9c-3.4 0-5.9-.7-7.6-2.1s-2.5-3.8-2.5-7.1v-5.7c0-3.2.9-5.6 2.8-7.2 1.8-1.6 4.3-2.4 7.4-2.4h6.7c2.8 0 4.7-.6 6-1.7s1.9-3 1.8-5.6v-7.8c0-3.1.9-5.4 2.7-7 1.7-1.6 4.2-2.4 7.2-2.4l30-.2c3.2 0 5.6.9 7.3 2.6 1.7 1.8 2.5 4.2 2.5 7.3v7.1c0 3.1.6 5.1 1.7 6.1s2.8 1.5 4.9 1.5h7.8c3.2 0 5.6.9 7.1 2.5 1.5 1.7 2.3 4.1 2.3 7.1l.1 5.9z"/><path fill="#F68D2D" d="M93.6 103.7c-3.1 0-5.4-.9-6.9-2.5-1.5-1.7-2.3-3.9-2.3-6.7v-4.8c0-3.1.7-5.5 2.1-7.2 1.4-1.7 3.7-2.6 7.1-2.6h8c2.4 0 4.3-.5 5.5-1.6 1.2-1.1 1.8-3.1 1.9-6l.1-35.6c0-2.6-.6-4.4-1.9-5.3-1.3-.9-3.1-1.4-5.4-1.4h-8c-3.4 0-5.8-.9-7.1-2.8-1.4-1.8-2.1-4.4-2.1-7.8v-3.9c0-3.4.7-5.9 2.1-7.6 1.4-1.7 3.8-2.5 7.1-2.5h5.7c3.2 0 5.6.9 7.2 2.8 1.6 1.8 2.4 4.3 2.4 7.4v6.7c0 2.8.6 4.7 1.7 6 1.1 1.2 3 1.9 5.6 1.9h7.8c3.1 0 5.4.9 7 2.7 1.6 1.7 2.4 4.2 2.4 7.2l.1 29.9c0 3.2-.9 5.6-2.7 7.3-1.8 1.7-4.2 2.5-7.3 2.5h-7.1c-3.1 0-5.1.6-6.1 1.7s-1.5 2.8-1.5 4.9v7.8c0 3.2-.9 5.6-2.5 7.1-1.7 1.5-4.1 2.3-7.1 2.3l-5.8.1z"/><path fill="#14A989" d="M44.3 91.6c0-3.1.9-5.3 2.5-6.9 1.7-1.5 3.9-2.3 6.7-2.3h4.8c3.1 0 5.5.7 7.2 2.1 1.8 1.4 2.6 3.8 2.6 7.1v8c0 2.4.5 4.3 1.6 5.5 1.1 1.2 3.1 1.8 6 1.8l35.6.1c2.6 0 4.4-.7 5.3-1.9.9-1.3 1.4-3.1 1.4-5.4v-8c0-3.4.9-5.8 2.8-7.1 1.8-1.4 4.4-2.1 7.8-2.1h3.9c3.4 0 5.9.7 7.6 2.1 1.7 1.4 2.5 3.7 2.5 7.1v5.7c0 3.2-.9 5.6-2.8 7.2-1.8 1.6-4.3 2.4-7.4 2.4h-6.6c-2.8 0-4.8.6-6 1.7-1.2 1.1-1.9 3-1.8 5.6v7.8c0 3.1-.9 5.4-2.7 7-1.7 1.6-4.2 2.4-7.2 2.4l-30.1.2c-3.2 0-5.6-.9-7.3-2.6-1.7-1.8-2.5-4.2-2.5-7.3v-7.1c0-3.1-.5-5.1-1.7-6.1-1.1-1-2.8-1.5-4.9-1.5h-7.8c-3.2 0-5.6-.9-7.1-2.5-1.5-1.7-2.3-4.1-2.3-7.1l-.1-5.9z"/><path fill="#37ABD9" d="M56.4 42.3c3.1 0 5.4.9 6.9 2.5 1.5 1.7 2.3 3.9 2.3 6.7v4.8c0 3.1-.7 5.5-2.1 7.2-1.4 1.7-3.8 2.6-7.1 2.6h-8c-2.5 0-4.3.5-5.5 1.6-1.2 1.1-1.8 3.1-1.8 6l-.1 35.6c0 2.6.6 4.4 1.9 5.3 1.3.9 3.1 1.4 5.4 1.4h8c3.4 0 5.7.9 7.1 2.8 1.4 1.8 2.1 4.4 2 7.8v3.9c0 3.4-.7 5.9-2.1 7.6-1.4 1.7-3.8 2.5-7.1 2.5h-5.7c-3.2 0-5.6-.9-7.2-2.8-1.6-1.8-2.4-4.3-2.4-7.4v-6.7c0-2.8-.6-4.8-1.7-6-1.1-1.2-3-1.9-5.6-1.9h-7.8c-3.1 0-5.4-.9-7-2.7-1.6-1.7-2.4-4.2-2.4-7.3L16.3 76c0-3.2.9-5.6 2.6-7.3 1.8-1.7 4.2-2.5 7.3-2.5h7.1c3.1 0 5.1-.6 6.1-1.7s1.5-2.8 1.5-4.9v-7.8c0-3.2.8-5.6 2.5-7.1s4.1-2.3 7.1-2.3l5.9-.1z"/><g><path fill="#C52228" d="M105.7 54.4c0 3.1-.9 5.4-2.5 6.9-1.7 1.5-3.9 2.3-6.7 2.3h-4.8c-3.1 0-5.5-.7-7.2-2.1-1.8-1.4-2.7-3.8-2.6-7.1v-8c0-2.4-.5-4.3-1.6-5.5-1.1-1.2-3.1-1.8-6-1.8L38.7 39c-2.6 0-4.4.6-5.3 1.9-.9 1.3-1.4 3.1-1.4 5.4v8c0 3.4-.9 5.8-2.8 7.1-1.8 1.4-4.4 2.1-7.8 2.1h-3.9c-3.4 0-5.9-.7-7.6-2.1s-2.5-3.8-2.5-7.1v-5.7c0-3.2.9-5.6 2.8-7.2 1.8-1.6 4.3-2.4 7.4-2.4h6.7c2.8 0 4.7-.6 6-1.7s1.9-3 1.8-5.6v-7.8c0-3.1.9-5.4 2.7-7 1.7-1.6 4.2-2.4 7.2-2.4l30-.2c3.2 0 5.6.9 7.3 2.6 1.7 1.8 2.5 4.2 2.5 7.3v7.1c0 3.1.6 5.1 1.7 6.1s2.8 1.5 4.9 1.5h7.8c3.2 0 5.6.9 7.1 2.5 1.5 1.7 2.3 4.1 2.3 7.1l.1 5.9z"/></g></svg>