<svg xmlns:xlink="http://www.w3.org/1999/xlink"  xmlns="http://www.w3.org/2000/svg" viewBox="0 0 150 150"><path fill="#E2B250" d="M118.3 31h-4.8c-3.6 0-4.5-1.7-4.5-4.7v-7.6c0-1.7-1.2-2.7-2.8-2.7h-9.3c-1.7 0-2.9 1-2.9 2.7V28c0 1.7 1.2 3 2.9 3h7.7c2.7 0 4.4.4 4.4 4.1v3.7c0 2.5-.8 4.1-3.5 4.1h-2.2c-2.4 0-3.3-.9-3.3-2.9v-3.7c0-1.3-.7-2.4-2-2.4h-4.7C92 34 91 35.1 91 36.4v3.4c0 1.8-.6 2.5-1.7 2.7.9.7 1.7 1.7 1.7 2.9v5.1c0 .9 0 1.6.1 2.3 0 0-.1 0-.1-.1v-5.5c0-2.4.4-4.3 3.5-4.3h1.8c2.2 0 3.7 1 3.7 3.7v3.5c0 1.3.9 1.9 2.2 1.9h4.8c1.3 0 2-.6 2-1.9v-3.2c0-3 1.9-3.9 4.9-3.9h4.4c1.7 0 2.7-1.3 2.7-3v-6.3c0-1.7-1-2.7-2.7-2.7zM124.3 17h-5.2c-1.1 0-2.1.8-2.1 1.9v5.2c0 1.1 1 1.9 2.1 1.9h5.2c1.1 0 1.7-.8 1.7-1.9v-5.2c0-1.1-.6-1.9-1.7-1.9z"/><path fill="#2D688D" d="M29.3 43.8h5.2c1.1 0 2.1-.9 2.1-2.1v-5.2c0-1.1-.9-2.1-2.1-2.1h-5.2c-1.1 0-2.1.9-2.1 2.1v5.2c.1 1.2 1 2.1 2.1 2.1zM56.2 36c1.4 0 2.6.6 3.6 1.4v-4.6c0-1.7-1.3-3-3-3h-7.7c-2.7 0-4.3-.4-4.3-4.2v-3.7c0-2.5.8-4.1 3.5-4.1h2.2c2.4 0 3 .9 3 2.9v3.7c0 1.3 1 2.3 2.3 2.3h4.7c1.3 0 2.3-1 2.3-2.3V21c0-3.1 2.5-2.9 4.6-2.9H73c1.8 0 3.3-1.5 3.3-3.3V8.1c0-1.8-1.5-3.3-3.3-3.3h-6.7c-1.8 0-3.3 1.5-3.3 3.3v5.5c0 2.4-.5 3.8-3.6 3.8h-1.8c-2.2 0-3.6-.6-3.6-3.2v-3.5c0-1.3-1-2.4-2.3-2.4h-4.8c-1.3 0-2.4 1-2.4 2.3v3.2c0 3-1.6 3.8-4.5 3.8h-4.4c-1.7 0-3.1 1.4-3.1 3.1V27c0 1.7 1.4 3.1 3.1 3.1h4.8c3.6 0 4.3 1.3 4.3 4.3v1.7c.4-.1.7-.1 1.1-.1h10.4z"/><path fill="#153037" d="M62 67.1v-5.4c0-1.2-.4-2.1-.8-2.8-.1.4-.3.8-.3 1.2L61 65c.1 3.6-1.2 4.4-4.2 4.4l-7.6.2c-1.7 0-3 1.4-2.9 3.1l.2 9.3c0 1.7 1.4 3 3.1 2.9l9.3-.2c1.7 0 3-1.4 2.9-3.1l-.2-7.7c-.1-1.9.3-3.2 1.7-3.9-.9-.7-1.3-1.7-1.3-2.9zM70.9 100c-.9 0-1.7-.3-2.5-.8.5 1.3 1 2.5 1.2 3.9-1.4 9.2-3.8 18.2-7 27-.2.5-.3.9-.3 1.3-19.6.9-35.9 5.1-42.7 10.8 12.3-3.3 29.8-5.4 49.2-5.4h1.3c3.9.6 7.9.9 11.8.3 15.6.8 29.3 2.9 39 5.9-4.9-4.9-16.7-8.8-31.7-10.6.1-.7.2-1.4-.1-2.3-2.7-9.8-4-19.9-3.8-30 0-.1 0-.1.1-.2v.1H70.9z"/><path fill="#F15E47" d="M106 83c-1.8 0-3 1.8-3 3.6v8.2c0 1.8 1.2 3.3 3 3.3h8.2c1.8 0 2.8-1.5 2.8-3.3v-8.2c0-1.8-1-3.6-2.8-3.6H106zM91 45.5c0-1.2-.8-2.2-1.7-2.8-.6-.5-1.6-.7-2.4-.7h-7.5c-2 0-3.4 1.5-3.4 3.5V51c0 4.2-2.6 5-6 5h-2.9c-4.8 0-6.1-2.2-6.1-6v-8.7c0-1.5-.4-2.9-1.4-3.8-.9-.9-2-1.4-3.3-1.4H45.6c-.4 0-.9.1-1.3.1-2.4.5-4.3 2.6-4.3 5.1v10.6c0 2.9 2.7 5.1 5.6 5.1h8.8c2.5 0 5.5-.1 6.8 1.9.4.7.8 1.6.8 2.8v5.4c0 1.1.4 2.3 1.2 3 .6.5 1.2.9 2.1.9h7.4c2 0 3.3-1.9 3.3-3.9v-5.8c0-3.1 1.2-4.3 5-4.3h3.5c4.2 0 5.5 2.2 5.5 6.3v5.9c0 5.9-2.6 6.9-6.9 6.9H70.9c-2.6 0-4.9 1.8-4.9 4.4v14.7c0 1.7 1 3.3 2.4 4.1.7.4 1.7.8 2.6.8h14.7s-.2-.1-.1-.1c2.6 0 4.5-2.2 4.5-4.8v-12c0-4.8 1.6-7.1 7.2-7.1h7.5c2.7 0 5.3-1.9 5.3-4.6v-9.9c0-2.7-2.6-4.5-5.3-4.5h-7c-3.8 0-6-1-6.7-3.9-.2-.7-.1-1.6-.1-2.5v-5.2z"/></svg>