<svg xmlns:xlink="http://www.w3.org/1999/xlink"  xmlns="http://www.w3.org/2000/svg" viewBox="0 0 1500 1500"><path fill="#00B0D5" d="M1366 669c30-24 44-66 32-105s-47-65-86-68c22-32 23-76-1-110-23-34-64-48-102-40 11-37 0-79-33-105-32-26-76-28-110-8 0-39-24-76-62-91-39-15-81-4-107 25-12-37-45-65-86-68s-78 20-95 55c-22-32-62-49-102-40s-69 42-75 81c-31-24-74-28-110-8-36 21-53 61-47 99-36-14-79-5-107 25s-33 74-16 109c-39-3-77 18-95 55s-10 80 16 109c-38 9-68 40-74 81s14 79 48 99c-34 20-54 58-47 99 6 41 37 72 75 81-26 29-34 71-16 109 18 37 56 58 95 55-17 35-11 78 17 108s71 39 107 25c-6 38 12 78 48 99s79 16 110-8c6 39 35 71 75 80s80-8 102-40c16 33 50 55 88 55h7c41-3 74-31 86-68 26 28 69 39 107 24 39-15 62-52 62-91 34 19 77 17 109-8 32-26 44-68 32-105 38 9 79-6 102-40s22-78 0-110c39-3 74-29 86-69s-2-81-32-105c36-14 62-50 62-91v-4c-1-42-27-77-63-91zm-600 659c-312 0-565-254-565-566-1-312 253-565 565-565s566 254 566 566c-1 311-254 565-566 565z"/><path fill="#FFF" d="M766 197c-312 0-566 253-566 565s254 566 565 566 566-254 566-566-253-565-565-565zm0 1103c-296 0-538-241-538-538 0-296 241-538 538-538s538 241 538 538-241 538-538 538z"/><path fill="#00B0D5" d="M766 308c-251 0-454 203-454 454s203 454 454 454 454-203 454-454c0-250-203-454-454-454z"/><g><path fill="none" d="M978 997c-138 24-222-29-268-78-43-45-62-94-67-109-9-3-18-6-26-11l-161 40c-3 1-6-1-8-3-1-2-1-6 0-8l94-134c-12-78 40-151 117-164 45-8 90 6 123 37l24 21c41-49 115-155 166-229-62-32-132-52-206-52-251 0-454 203-454 454s203 454 454 454c153 0 287-76 370-192l-41-61c-41 17-80 29-117 35z"/><path fill="none" d="M1045 797l144 127c20-51 32-106 32-164 0-16-3-30-5-45-65 23-144 53-155 57-5 10-11 17-16 25z"/><path fill="#6F7073" d="M1045 797c-3 5-6 10-10 14-4 5-8 11-13 16-22 25-47 43-83 49-88 16-163-36-179-123-8-43-10-100 42-160 1-1 3-4 5-6l-24-21c-33-31-78-45-123-37-77 13-129 87-117 164l-94 134c-2 2-2 6 0 8s5 4 8 3l161-40c8 5 17 8 26 11 5 15 24 64 67 109 46 49 130 102 268 78 37-6 77-19 117-35l41 61c21-30 39-63 53-98l-145-127z"/><path fill="#0099D6" d="M1176 383v2c3-2 3-2 0-2zM803 593c-52 60-50 117-42 160 15 87 90 139 179 123 36-6 61-24 83-49 5-5 9-11 13-16 3-5 7-10 10-14 6-8 11-16 17-25 11-4 90-34 155-57-16-156-110-288-243-357-51 74-125 180-166 229-3 2-5 5-6 6z"/><path fill="#6F7073" d="M1304 761c0-26-4-51-8-77-3-19-6-38-11-56-4-16-9-31-14-46-9-25-20-48-32-71l-1-1c-50-93-126-169-219-220-76-41-161-66-253-66-296 0-538 241-538 538s241 538 538 538c170 0 319-81 418-204 28-34 52-71 70-112 32-69 50-144 50-223zm-537 454c-251 0-454-203-454-454s203-454 454-454c75 0 144 20 206 52 133 69 227 201 243 357 2 15 5 30 5 45 0 58-12 113-32 164-14 35-31 68-53 98-82 116-216 192-369 192z"/></g></svg>