<svg xmlns:xlink="http://www.w3.org/1999/xlink"  xmlns="http://www.w3.org/2000/svg" viewBox="0 0 150 150"><linearGradient id="a" gradientUnits="userSpaceOnUse" x1="36.209" y1="257.531" x2="40.05" y2="99.065"><stop offset="0" stop-color="#fff"/><stop offset="1" stop-color="#909a34"/></linearGradient><path fill="url(#a)" d="M48 113.3c-18.8-6.2-34.6-18.5-38.4-33.2l-.1-.1s-5.8 32.1 16.7 48.4c18.4 13.3 36 6.8 44.5.5-10.4-1.3-19.1-7.4-22.7-15.6z"/><linearGradient id="b" gradientUnits="userSpaceOnUse" x1="102.343" y1="259.132" x2="106.185" y2="100.666"><stop offset="0" stop-color="#fff"/><stop offset="1" stop-color="#909a34"/></linearGradient><path fill="url(#b)" d="M102.8 112.2c-3.7 9.8-14.7 17-27.6 17 8.7 6.1 26 12.3 44.1-.8 15.4-11.1 17.5-29.6 17.3-40.2-6.5 10.2-19.4 18.8-33.8 24z"/><path fill="#616162" d="M9.8 70.2c3.3-15 13-23.9 19.5-28.4 2.7-.6 5.5-1.6 8.3-3.1 5.8-3.1 10.3-7.6 12.5-12.2 1.7-3.6 1.9-7.4.2-10.6-3.8-7.2-15.4-8.5-25.9-3-10.4 5.6-15.8 16-11.9 23.2 1.7 3.2 4.7 5.1 8.5 5.9-6.6 8.7-9.3 16.4-10.4 21.6-.9 4.1-.8 6.6-.8 6.6zM130.4 42c3.8-.7 6.8-2.7 8.5-5.9 3.8-7.2-1.5-17.6-12-23.2-10.5-5.6-22.1-4.2-25.9 3-2 3.7-1.3 8.1 1.1 12.3 2.4 4 6.4 7.8 11.6 10.5 2.8 1.5 5.6 2.5 8.3 3.1 6.1 4.2 14.9 12.2 18.8 25.4.3 1 .5 2 .8 3 0 0 .8-12.6-11.2-28.2z"/><path fill="#FFF" d="M64.3 67.6s6.9-7.2 3.1-13.3c-3.9-6.1-30 5.6-32.2 18.1-2.3 12.5 13.8 16.9 29.1-4.8zm-18.7-1.8c2.3-4.3 5.4-2.6 5.4-2.6s-2.6 1.1-1.1 4.9c1.4 3.7 3.7 1.7 3.7 1.7-3.7 4.6-10.3.3-8-4z"/><linearGradient id="c" gradientUnits="userSpaceOnUse" x1="38.381" y1="248.9" x2="47.024" y2="130.777"><stop offset="0" stop-color="#fff"/><stop offset=".994" stop-color="#a7a9ac"/></linearGradient><path fill="url(#c)" d="M64.3 67.6s6.9-7.2 3.1-13.3c-3.9-6.1-30 5.6-32.2 18.1-2.3 12.5 13.8 16.9 29.1-4.8zm-18.7-1.8c2.3-4.3 5.4-2.6 5.4-2.6s-2.6 1.1-1.1 4.9c1.4 3.7 3.7 1.7 3.7 1.7-3.7 4.6-10.3.3-8-4z"/><path fill="#FFF" d="M118.4 72.4C116.2 59.9 90 48.2 86.1 54.3c-3.9 6.1 3.1 13.3 3.1 13.3 15.3 21.7 31.4 17.3 29.2 4.8zm-15.3-4.3c1.4-3.7-1.1-4.9-1.1-4.9s3.2-1.7 5.4 2.6c2.3 4.3-4.3 8.6-8 4-.1.1 2.2 2.1 3.7-1.7z"/><linearGradient id="d" gradientUnits="userSpaceOnUse" x1="88.159" y1="252.542" x2="96.802" y2="134.418"><stop offset="0" stop-color="#fff"/><stop offset=".994" stop-color="#a7a9ac"/></linearGradient><path fill="url(#d)" d="M118.4 72.4C116.2 59.9 90 48.2 86.1 54.3c-3.9 6.1 3.1 13.3 3.1 13.3 15.3 21.7 31.4 17.3 29.2 4.8zm-15.3-4.3c1.4-3.7-1.1-4.9-1.1-4.9s3.2-1.7 5.4 2.6c2.3 4.3-4.3 8.6-8 4-.1.1 2.2 2.1 3.7-1.7z"/><path fill="#FFF" d="M67.5 105.6c2.3 4.4 7.3 6.9 10.1 6 2.8-.9 9.2-6.2 7.8-9.2-1.4-3-6.4-.4-9.9-1.4h-6.4s-3.9.3-1.6 4.6z"/><linearGradient id="e" gradientUnits="userSpaceOnUse" x1="65.418" y1="250.856" x2="74.06" y2="132.742"><stop offset="0" stop-color="#fff"/><stop offset=".994" stop-color="#a7a9ac"/></linearGradient><path fill="url(#e)" d="M67.5 105.6c2.3 4.4 7.3 6.9 10.1 6 2.8-.9 9.2-6.2 7.8-9.2-1.4-3-6.4-.4-9.9-1.4h-6.4s-3.9.3-1.6 4.6z"/><path fill="#FFF" d="M53.6 69.9s-2.3 2-3.7-1.7c-1.4-3.7 1.1-4.9 1.1-4.9s-3.2-1.7-5.4 2.6c-2.3 4.2 4.3 8.5 8 4zM107.4 65.8c-2.3-4.3-5.4-2.6-5.4-2.6s2.6 1.1 1.1 4.9c-1.4 3.7-3.7 1.7-3.7 1.7 3.7 4.6 10.2.3 8-4z"/></svg>