<svg xmlns:xlink="http://www.w3.org/1999/xlink"  xmlns="http://www.w3.org/2000/svg" viewBox="0 0 1500 1500"><path fill="#0F2738" d="M1394 843c-4-18-14-36-20-55l-34-51c-8-21-18-41-30-60-4-19-3-41-10-60-10-36-33-70-61-92 3-8 7-15 8-24 2-34 25-61 18-98-7-36-15-73-32-105-16-54-25-112-30-171-7-15 0-37-16-47-56 3-102 28-151 48-49 35-99 86-144 130-6-2-9-6-9-6-34 11-75 74-109 89-6-8-9-20-13-30 0 0-15 21-22 28-12-10-19-26-34-30l-5 43c-8-9-19-20-30-26-2 5-2 11-6 15-9 2-27-13-29-14-11-8-23-23-39-21-16-22-35-46-57-64-12-15-50-51-69-71 0 0-45-37-68-53-14-11-33-18-50-10-41 40-68 88-92 137-9 20-13 37-23 62-9 44-24 86-26 132 2 14 3 32 7 46 3 19 6 36 12 55-5 5-14-3-16 5 2 20 5 40 16 56-15 16-33 32-39 52 0 0 21-1 32-1-12 14-20 32-28 49-16 41-32 129-32 129-4 20-2 47 0 68 1 10 5 20 5 30 7 7 14-2 19-6-16 45-8 87-7 136 0 3 17-3 23-4-3 11-5 25-8 36-7 33 6 62 6 91 6 23 13 47 28 67 0 0 31 3 45 5 5 16 11 32 19 46 4 8 4 22 15 22 7-12 25-21 31-19 17 7 34 12 53 11 2 6 3 13 7 19 7 2 11-6 16-8 11 3 26 4 37 3 17 29 50 47 80 60 19 13 20-19 30-28 0 0 30 34 50 32 9-5 21-10 30-8 21 19 47 31 74 33 18-1 42 3 60-4 23-9 47-16 64-36 18-19 34-44 60-58 22-6 43-26 67-15l12 16s2-22 10-23c18-3 30-17 41-13 16 13 26 33 40 48 0 0-1-19 47-74 7-9 30-23 47-27 11 7 17 21 27 30 5 2 40-61 42-93 8 1 16 5 23 7 0 0 5-18 7-27 10-6 19-14 28-23 5-4 6-13 13-16 0 0 17 9 18 7 3-14 11-27 16-41 5-21 18-40 24-61 5 5 17 11 17 11 2-28 4-56 7-84 3-31 4-67-3-97 0 2 10 4 11 0z"/><path fill="#93AC3C" d="M747 1428h-33c-28-3-55-14-77-34-5 0-13 2-22 7l-2 1h-2c-17 2-38-15-50-26-1 1-1 2-2 4-4 9-9 22-22 22-4 0-8-1-12-4-26-11-61-29-81-59h-1c-7 0-19 0-30-3l-1 1c-3 3-8 7-15 7-1 0-3 0-4-1l-3-1-2-3c-4-5-5-10-7-15-16 0-32-4-49-11-4 0-16 6-21 15l-3 5h-5c-15 0-19-14-21-21-1-2-1-5-2-6-7-13-13-27-18-42-15-2-39-4-39-4h-4l-2-3c-16-21-24-46-30-70v-2c0-10-2-20-4-31-3-19-7-40-2-62 1-5 2-9 3-14 0-2 1-5 2-7-8 2-13 2-17-2l-3-3v-4c0-11-1-22-1-32-2-30-3-58 3-87-3 0-7-1-11-5l-3-3v-4c0-5-1-10-3-16-1-4-2-9-3-13-2-21-4-49 0-71 1-4 17-90 33-131l1-2c5-11 11-24 18-35-7 0-13 1-13 1l-13 1 4-13c6-18 19-32 32-46l4-4c-9-16-11-34-13-52v-4c2-7 6-11 13-11-4-16-7-30-9-45-3-12-5-26-6-39 0-3-1-5-1-8v-2c1-34 9-66 17-97 3-12 6-25 9-37v-1c4-10 7-19 10-27 4-12 8-23 13-35 24-48 52-98 94-140l1-1 1-1c6-3 13-4 20-4 18 0 32 9 40 15 13 9 33 24 43 33 16 13 23 18 26 22l27 27c17 16 34 33 42 43 23 19 42 43 55 61 14 1 24 9 32 17 3 2 5 4 7 6 2 1 3 2 6 4s10 7 15 9c0-1 1-2 1-3 0-2 1-4 2-6l4-9 9 4c7 4 14 9 20 14l4-35 10 3c12 3 20 12 26 20 1 2 3 3 4 5 7-9 15-20 15-21l9-12 7 14c2 4 3 8 5 12 1 3 3 7 4 10 13-8 28-23 43-38 21-21 41-41 60-48l6-2 4 6c6-6 12-12 19-18 39-39 80-79 122-108l2-1c7-3 15-6 22-10 41-18 83-37 131-39h3l2 1c14 9 16 23 17 35 1 6 1 11 3 16l1 1v1c6 68 15 122 29 169 17 33 25 70 32 106v1c4 24-3 43-9 62-4 13-9 25-9 38v1c-1 7-4 13-6 19 28 23 49 57 59 92 5 13 6 26 7 39 1 7 1 14 3 21 11 19 21 38 29 59l34 51v1c2 7 5 15 9 22 4 11 9 22 12 33v2c0 7-7 10-12 11 5 25 5 55 1 91-2 20-4 40-5 59-1 8-1 17-2 25l-1 13-12-6c-1-1-4-2-8-5-3 7-5 13-8 19-5 10-9 19-11 29v1c-2 5-4 9-6 14-4 8-8 17-9 25v2l-1 2c-2 2-5 4-8 4-1 0-5 0-16-6 0 1-1 1-1 2-2 3-4 7-7 10-7 7-16 15-26 21-2 9-6 23-6 24l-2 8-8-2-9-3c-1-1-3-1-4-2-7 32-34 91-49 91h-2l-4-1-1-1c-5-4-8-10-12-15-3-5-7-9-10-13-15 5-33 16-38 22-43 50-45 68-45 68l1 24-16-18c-6-6-11-14-16-21-7-9-13-18-21-25-2 0-7 2-12 5-6 3-13 7-22 9-2 3-3 10-4 16l-2 23-24-32c-11-4-24 1-37 8-6 3-13 6-20 8-16 9-29 24-42 39-5 6-10 12-15 17-15 18-35 25-54 33-4 2-8 3-13 5-13 6-25 7-35 7zm-24-19h24c8 0 18 0 25-4 4-2 9-4 13-5 18-7 35-13 47-28 5-6 10-11 15-17 14-16 28-33 48-43l2-1c6-2 12-5 18-8 11-6 23-11 36-11 6 0 12 1 18 4l2 1 2 2c3-6 7-11 13-11 7-1 12-4 18-7 7-3 13-7 20-7 3 0 5 0 7 1l1 1 1 1c10 8 18 19 26 30 2 2 3 5 5 7 6-13 18-32 44-62 9-11 34-26 52-30l4-1 3 2c8 5 13 12 18 19 1 2 3 4 4 6 10-15 31-57 32-81l1-9 9 1c6 1 11 3 16 5 2-6 3-13 4-16l1-4 3-2c10-6 18-14 26-22l1-1c1-1 2-2 3-4 2-4 5-10 13-13l4-2 4 2c3 1 5 3 8 4 2-7 5-13 8-20 2-4 4-8 5-12 3-11 8-22 12-32s9-19 11-29l4-15 11 11c1 1 1 1 3 2 0-4 1-7 1-11 1-19 3-39 5-59 4-37 3-70-3-94l-1-5 3-3c2-3 6-4 9-4-2-7-5-15-9-22-3-7-6-15-9-23l-34-51c-8-20-18-40-29-59l-1-1v-2c-2-8-2-16-3-24-1-12-2-24-6-35v-1c-9-34-31-67-58-87l-5-4 2-6c1-2 1-4 2-5 2-6 4-11 6-16 1-15 6-29 10-42 6-17 12-34 8-53-7-35-15-71-31-102l-1-2c-14-48-24-103-30-172-2-6-3-13-4-20-1-10-2-16-6-20-44 3-82 20-122 38-7 3-14 6-22 9-40 28-80 67-118 105-8 8-16 16-24 23l-4 3-5-1c-4-1-7-3-9-4-15 7-32 24-48 41-19 19-37 38-55 46l-6 3-4-6c-4-5-6-11-8-17-4 6-9 12-13 16l-6 9-7-5c-5-4-9-9-13-14-3-3-5-6-8-9l-5 48-15-16c-5-5-11-11-17-16-1 3-3 5-5 8l-2 2-2 1h-4c-9 0-19-6-28-13-1-1-2-1-3-2h-1l-2-1c-3-2-7-5-10-8-8-7-15-13-24-12l-5 1-3-4c-13-18-32-43-55-63l-1-1c-7-9-25-27-41-42l-28-28c-5-4-45-37-67-52-14-11-29-14-40-10-37 37-63 80-89 133-5 11-8 22-12 34-3 8-6 17-10 27-3 13-6 25-9 37-8 30-15 60-16 92 0 2 1 5 1 7 1 12 3 26 6 36v1c3 18 6 35 11 54l1 5-4 4c-3 3-7 5-12 4 2 17 5 33 13 46l4 6-5 5c-3 3-6 6-9 10-8 9-16 17-22 26h36l-10 16c-11 13-19 30-26 46l-1 1c-15 39-31 127-31 128-4 20-2 46 0 65 0 3 1 7 2 11s2 7 2 11c1-1 1-1 2-1 2-1 3-2 4-3l22-14-9 25c-12 33-10 64-8 101 0 8 1 15 1 23 2-1 5-1 6-2 2-1 4-1 6-2l15-4-3 15c-2 6-4 14-5 21l-3 15c-4 19-1 37 2 55 2 11 4 22 4 33 6 24 12 43 24 59 9 1 30 3 41 5l6 1 2 5c5 15 11 31 18 44 2 3 2 6 3 9 0 1 1 3 2 5 9-10 22-16 31-16 2 0 4 0 6 1 17 8 32 11 49 10h7l2 7c0 1 1 3 1 4 1 2 1 5 2 7 2-2 5-4 8-6l3-1 3 1c7 2 17 3 29 3h11l3 5c17 29 51 46 76 57l2 1c2 1 3 2 3 2 1-1 4-8 6-11 3-6 6-13 10-18l7-6 6 7c10 11 29 28 41 29 14-7 25-10 34-8l2 1 2 2c19 18 43 28 68 31 2-5 5-5 7-5z"/><path fill="#93AC3C" d="M828 366c13-12 28-18 34-35-9 58-6 85 14 133 4 7 20 35 27 37-14-26-25-94-11-139l6-9c-3 37-9 80 5 116 8 23 14 47 29 68-35-21-69-60-87-99-4 0-9-2-9-2l-3 18c-5-18-7-32-9-52 0-13-1-25 4-36zM659 379c19 27 28 59 39 90l-2 13c-10-14-23-28-39-38-2 1-6 5-6 5-11 10-33 24-51 32 35-25 54-62 59-102zM302 278c8-28 20-53 35-78 4 4 4 14 12 14 2-15 10-27 21-38l21 21c2 0 2-17 4-24 8-4 16 2 24 5 19 5 37 16 50 32 24 39 69 64 89 105 3 4 6 7 6 12-2 0-10-6-13 0 16 28 27 60 32 91-9-7-18-15-28-19-15 1-5 4 1 16 7 13 10 28 13 43-9-2-31-12-32-10 2 8 5 14 9 21l-26-18c-10-8-19-20-31-26 14 0 25 7 36 9 2-5-3-10-4-15-12-11-42-48-42-48 8 1 38 26 38 26 3 2-23-53-41-77-25-14-43-42-71-49-15-2-42-12-42-12 2 31 4 60 12 89 4 8 10 16 17 23-11 38 1 73 6 110-2 12-8 23-14 34-8-22-6-47-15-69-2-2-7 53-18 76-5 13-15 24-19 38 1 1 15-5 19-12-3 15-7 30-11 45 1 1 14 2 20 0 2 9 3 21 0 30-18 3-48-19-49-17 0 7 7 11 9 16-14-5-23-22-24-37 4-22-4-46-12-66 12-2 23 9 34 0-1-9-11-12-15-20 6-3 19 2 22-9 1-3-9-7-9-7-26-24-31-57-32-92 0-36 10-75 18-113zM646 1309c-5-22 1-40 14-56 12-15 18-21 36-28 15-9 42 3 58 1 14 2 37-7 59-3 13 4 41 42 30 77-6 23-19 35-48 42-11 2-19 1-48-13-17 10-31 12-51 13-24 3-41-15-50-33zM785 1396c-27 22-82 11-93-1 0 0-5-2-13-14 22 6 44 9 66 1 23 2 48 2 68-9-7 10-17 15-28 23zM264 1082l10-1c0-4 0-8-1-12-8-6-15-13-20-21-4-10 5-17 6-25l8-1c-3-26-5-51-2-76-13 8-24 20-32 34 8 34 5 72 12 107 7 36 6 67 21 105 5 13 11 26 18 38 2 2 4 3 7 5 3 7 6 14 9 20 1 1 1 1 1 2-4-12-5-26-3-34 1-3 4-6 7-5l13 31c3 6 7 11 10 17v-12s11 23 16 37c11 15 23 29 38 40 1-2 1-4 2-6-10-9-18-19-24-31-7-16-12-35-24-49 8 4 16 7 24 9v-1c-4-16-11-28-17-43-15-9-25-23-37-34-3 2-5 6-10 5l-3-13c-6-12-10-24-13-35-9-8-19-16-25-25-2-11 7-18 9-26zM1203 1190c26-32 40-71 60-106 11 6 14 12 21 15 6-44 12-86 2-129-4-4-8-8-11-12 1 29-3 58-7 87-7-4-10-9-21-15-20 35-34 74-60 106-3-11-17-34-20-34-15 52-65 87-107 118-6 5-8 13-13 18 0 0-9-27-15-46-10 8-21 16-31 23-6 5-8 13-13 18 0 0-4-11-8-24-6 8-13 16-20 24-7-15-20-26-33-39-4 6-8 12-13 17 1 1 1 3 2 4 13 27 46 45 60 71 22-25 84-1 92-32 11 2-30-38-25-27-1 5 20 65 20 65 5-5 7-13 13-18 42-31 92-66 107-118 2 0 17 23 20 34zM1192 308l-11 8s1-30 1-44c-3-30-18-64-50-75-3 3-3 8-7 10l-30-42c-15 8-36 6-50 17 0 0-2-10 1-12-16 9-31 22-46 32-26 19-40 48-53 75-9 1-3-10-5-12-14 17-19 40-25 61-3 19-9 42-3 60l18-19s-7 23-9 34c-3 29-1 58 8 85 1-7 9-19 9-19 5 21 14 44 33 57 21 24 52 27 77 44 8 2 16 6 24 9 23 37 66 45 106 44-4-23 14-41 7-64-2-4-2-4-7-10 10-8 19-21 22-30l-9 7c-5 1-9 3-14-2 2-7 10-13 14-20-6 1-11 3-17 4-4-1-8-3-10-6 16-14 24-32 35-48 5-25 0-54 3-79 4-29 5-48-12-65zm-24 275c-12 2-12-6-19-5-21-4-37-19-56-29l-12-13c-5 5-3 14-10 17-7-6-3-19-5-28v-19c-16 13-30 31-48 41-12-16-4-39 3-55 2-5 6-10 6-16-11 8-38 33-38 28 3-29 2-59 15-85l9-15c-4 2-20 7-22 4 1-3 9-70 17-99 4-19 7-39 16-57 7-15 14-31 21-46 5-3 11 3 15 5l36 41c29 33 34 78 35 121 9 41 18 86 26 129-6 5-14 0-21-4-2 16 5 33 11 48 5 13 9 27 21 37z"/><path fill="#93AC3C" d="M1273 830c-10-7-22-8-31-15 14-20 29-40 36-62-1-1-36 16-54 21-24 4-48 10-73 11 1-3 4-6 4-9 0 0-22 3-53 0-40-4-66-34-88-64-30-24-79-26-112-7-23 15-48 22-66 44 0 1 79-34 119-23 14 1 27 11 39 18 7 9 18 18 22 28-11-3-23-4-34-9-16-10-26-25-44-28-20 2-36 10-53 17 1-14 19-7 25-18 1-2-24-2-32 6-6 9 2 19 0 28-7 15-22 26-30 41-5 13 6 21 6 33 5 13-1 29-9 41-6 12-20 19-21 33 10 17 3 39 4 57 1 2 5-7 6-12 12-14-5-32 4-48 9-13 18-27 27-41 4 5 11 5 17 3 2-7-4-13-3-20 2-3 4-5 7-6 46 2 66-10 85-49 0 0 31 5 36 6-6 10-13 20-21 29-2 3 2 5 4 6-6 19-17 37-25 55-7 9-14 20-25 24 5 25-5 51-1 75 2 3 29-34 32-56l12 1c-3-5-1-19 2-20 9-4 14-13 18-20-2-2-5-2-8-4 15-23 36-42 41-69l-6-3c2-14 3-28 14-39l15-4c27 17 44 49 49 80 0 6 0 13 2 19 0 0 10-25 14-37 3 4 6 8 7 12 11 37 14 78 20 117l12-43c9 14 13 33 21 49 5 15 8 32 14 47 1 2 16-66 9-100l1-1c14 11 33 16 43 32 18 28 27 61 34 94 7 1 5-7 8-10-2-14 2-28 5-41 3 3 6 2 9 1 1-2 5-84-2-122 0 0 14-1 19-4-12-13-30-33-51-44zm-359-59s1 10-2 11c-2 0-6 0-8-2l10-9zm32 42c-14 19-32 30-61 23-6-2-11-8-12-14-5-15 5-28 17-37 4 6 10 13 16 13 6-1 16-5 20-11 3-6 3-17 0-24 10 0 21 1 27 10 6 14-2 30-7 40zM177 858c5 3 19 4 19 4-7 38-3 119-2 122 3 1 6 2 9-1 2 13 6 27 5 41 3 3 1 11 8 10 7-33 16-65 34-94 10-16 29-21 43-32l1 1c-7 34 9 103 9 100 6-15 9-31 14-47 7-16 12-35 21-49l12 43c7-39 9-80 20-117 1-5 4-9 7-12 4 12 14 37 14 37 1-6 2-13 2-19 6-31 23-62 49-80l15 4c11 11 12 25 14 39l-7 2c5 26 26 46 41 69-2 2-5 2-8 4 4 7 9 16 18 20 3 1 5 15 2 20l12-1c3 22 30 59 32 56 4-24-5-51-1-75-10-4-18-15-25-24-8-19-19-36-25-55 2-2 6-3 3-6-8-9-15-19-21-29 5-1 36-6 36-6 19 39 39 51 85 49 2 1 5 3 7 6 2 7-5 12-3 20 5 2 12 2 17-3 9 13 18 28 27 41 9 16-8 34 4 48 1 5 5 14 6 12 0-18-6-40 4-57-1-14-15-21-21-33-8-12-14-28-9-41 1-12 12-20 6-33-8-14-23-26-30-41-2-9 6-19 0-28-8-8-33-9-32-6 6 11 24 3 25 18-17-7-34-14-53-17-18 3-28 18-44 28-11 5-23 6-34 9 4-10 15-19 22-28 12-7 25-17 39-18 41-11 119 24 119 23-18-22-44-29-66-44-33-19-82-18-112 7-22 31-48 60-88 64-31 3-53 0-53 0 0 4 2 6 4 9-25 0-49-7-73-11-18-5-52-22-54-21 7 22 21 42 36 62-9 6-21 8-31 15-20 5-39 25-49 45zm419-101c-2 3-6 3-8 3-4-1-2-11-2-11l10 8zm-50-8c6-9 17-10 27-10-3 7-2 18 0 24 3 6 14 10 20 11 7 0 12-7 16-13 11 9 21 22 17 37-1 6-6 12-12 14-28 7-47-4-61-23-5-10-13-25-7-40z"/><path fill="#93AC3C" d="M628 716c1 12 5 23 11 32-7 7-4 17-4 25 4 13 3 32 19 35 1-1 1-3 1-3-12-16 0-34 3-51-2-15-29-39-30-38zM820 715c-10 6-20 18-18 33 7 15 5 35-4 48 1 1 3 2 5 2 8-8 18-13 21-25s-3-22-11-30c-2-12 9-27 7-28zM834 1010c2 27-15 56 0 80 2 4 18 34 23 46 2 1 4 1 5-1 8-43-20-77-24-117 1-5 3-10-4-8zM628 1011c-17 42-30 86-27 136 0 3 3 6 6 4 5-17 15-32 20-48 0-30-1-58 4-89 1-3-1-3-3-3z"/><ellipse fill="#93AC3C" cx="591" cy="753" rx="20" ry="21"/><ellipse fill="#93AC3C" cx="909" cy="777" rx="20" ry="21"/></svg>