<svg xmlns:xlink="http://www.w3.org/1999/xlink"  version="1" xmlns="http://www.w3.org/2000/svg" viewBox="0 0 150 150"><path fill="#00B3D0" d="M31.3 26.3l34.9 65.8s0-.1.1-.1l-35-65.7c0-.1 0 0 0 0zM3.9 82.1c0 19.3 7.7 36.9 20.3 49.6l9.3-4.9L4.6 72.4c-.4 3.2-.7 6.4-.7 9.7z"/><path fill="#9DDAED" d="M4.6 72.4l28.9 54.5 13.4-7-36.1-68.1c-3.1 6.4-5.2 13.3-6.2 20.6z"/><path fill="#3C8699" d="M10.8 51.8l36.1 68.1 7.7-4v-.7c0-3.6.8-6.5 1.9-9l-36.6-69c-3.6 4.5-6.6 9.4-9.1 14.6z"/><path fill="#F37C65" d="M24.6 32c-1.6 1.7-3.2 3.4-4.7 5.2l36.5 68.9c2.4-5.9 6.6-9.7 9.7-14L31.3 26.3c-2.4 1.8-4.6 3.7-6.7 5.7z"/><path fill="#346978" d="M58.9 67.4l-2.7-.2 9.5-5.8c0-.4.1-1 .2-1.6L44 18.4c-4.5 2.2-8.7 4.8-12.7 7.8L66.2 92c2.1-2.9 3.6-6 3.5-10.3-.2-8.3-.2-13.6-10.8-14.3z"/><path fill="#00B3D0" d="M82.5 91l-1.2-2.2c.4.8.8 1.5 1.2 2.2z"/><path fill="#F16653" d="M74.6 43.8c-.1 0-.1 0 0 0-.9 0-1.4.6-1.4 1.3 0 .6.4 1.2 1 1.3l.3.1.3-.1c.4-.1.6-.3.8-.7l-1-1.9zM75.8 47.9v5.5c.5.1 1 .2 1.4.3l1.3-2.3-2.2-4.1c-.1.2-.2.4-.5.6zM79.6 55c2.6 2.1 3 5.6 3 8 0 7.4-3 10.8-2.9 18.7 0 2.8.7 5.1 1.7 7.2l1.2 2.2c4.2 6.5 11.6 11.2 12.2 23l2.4 4.6 22.7 10.6L80 54.2l-.4.8zM65.8 46.1c-.4.2-.7.7-.7 1.1 0 .2.1.5.2.7.2.4.7.7 1.2.7.1 0 .3 0 .4-.1l.3-.1.2-.2c.3-.3.4-.7.4-1 0-.2 0-.5-.2-.7-.3-.4-.7-.7-1.2-.7-.1 0-.4.1-.6.3z"/><path fill="#F16653" d="M69.2 54.5l-2.5-4.3h-.2c-1 0-2.1-.6-2.6-1.5-.3-.5-.4-1-.4-1.5 0-1.1.6-2.1 1.5-2.6.5-.3 1-.4 1.5-.4 1 0 2.1.5 2.6 1.5.3.5.4 1 .4 1.5 0 .6-.2 1.2-.5 1.7l2.6 4.5c.5-.1 1-.2 1.5-.2v-5.3c-1-.5-1.7-1.5-1.7-2.7 0-1.4 1-2.6 2.3-2.9l-15.4-29c-5 1.2-9.8 2.9-14.4 5.1l22 41.5c.4-1.7 1.2-3.9 3.3-5.4z"/><path fill="#64BD71" d="M82.1 48.5c.1 0 .3.1.4.1.5 0 .9-.3 1.2-.6.1-.3.2-.5.2-.7 0-.5-.2-.9-.7-1.2-.2-.1-.4-.2-.7-.2-.5 0-.9.2-1.2.7-.1.2-.2.4-.2.6 0 .4.2.7.4 1l.2.2.4.1z"/><path fill="#F16653" d="M75.8 45.1c0-.7-.6-1.2-1.3-1.3l1 2c.2-.2.3-.4.3-.7z"/><path fill="#64BD71" d="M74.5 42.1c1.7 0 3 1.3 3 3 0 .9-.5 1.6-1.1 2.2l2.2 4.1 1.4-2.5c-.3-.5-.5-1.1-.5-1.7 0-.5.1-1.1.4-1.5.5-1 1.6-1.5 2.6-1.5.5 0 1 .1 1.5.4 1 .6 1.5 1.6 1.5 2.6 0 .5-.1 1-.4 1.5-.6 1-1.6 1.5-2.6 1.5h-.2l-2.3 4 39.8 75.1 5.3 2.5c2.9-2.9 5.5-6.1 7.8-9.5l-58.8-111c-5.4 0-10.7.7-15.8 1.9l15.4 29c.3 0 .5-.1.8-.1z"/><path fill="#009154" d="M140.7 107.5l-50-94.4c-5.2-1.2-10.5-1.9-16-1.9h-.5l58.8 111c3.1-4.5 5.7-9.4 7.7-14.7z"/><path fill="#9DC2A6" d="M145.4 84.6l-33-62.4c-6.6-4.1-13.8-7.2-21.6-9l50 94.4c2.7-7.2 4.3-14.9 4.6-23z"/><path fill="#B86D5C" d="M145.5 82.1c0-19.6-7.9-37.2-20.7-50.1-3.7-3.7-7.9-7-12.4-9.8l33 62.4c0-.9.1-1.7.1-2.5z"/></svg>