<svg xmlns:xlink="http://www.w3.org/1999/xlink"  xmlns="http://www.w3.org/2000/svg" viewBox="0 0 1500 1500"><g fill="#00A250"><path d="M632 850l175 7c10-23 18-43 24-57-24 7-43 11-52 13-36 6-120-1-161-5-30-47-97-65-159-40-67 27-103 95-81 154 0 1 1 2 1 3 24 59 99 84 167 56 58-24 93-79 86-131zm-223 62l-1-2c-15-41 13-91 63-112 51-21 107-4 124 38l1 2c15 41-13 91-63 112-52 21-107 4-124-38z"/><path d="M699 1246c55-34 81-97 62-150 0-1-1-1-1-2 14-35 49-108 114-179 20-32 470-381 470-381l-14-14-471 274s-74 192-127 260c-39-33-102-36-154-4-55 34-81 97-62 150 2 6 5 12 9 18 34 54 112 66 174 28zm180-416c-4-10 2-22 12-26s22 1 26 12-1 22-12 26c-10 4-22-2-26-12zm-325 370l-6-12c-14-38 6-84 48-110 47-29 105-22 128 17l6 12c14 38-6 84-48 110-47 29-105 22-128-17z"/><path d="M1403 638l-7-18-233 78c-56 44-115 91-163 131l403-191z"/></g><path fill="#00A250" d="M498 624l-15-30-15 30-33 5 24 23-5 33 29-15 30 15-6-33 24-23zM687 646l-15-30-15 30-33 4 24 24-6 33 30-16 30 16-6-33 24-24zM870 624l-15-30-15 30-33 5 24 23-6 33 30-15 30 15-6-33 24-23z"/><path fill="#007B48" d="M840 459c-20-72-95-62-108-53 0 0-74-31-117 3 0 0-45-33-91-16s-108 92-80 110c15 10 47 14 61-2 20-26 64-33 79-51 0 0 9 58 32 77 0 0-32 36 10 60h97c9-9 22-27 11-55 0 0 32-38 22-94 35 46-23 108 26 132 39 12 79-39 58-111z"/><path fill="#00A250" d="M1405 1154c-126 134-313 219-523 219-378 0-685-277-685-620 0-342 307-620 685-620 210 0 397 85 523 219-133-158-344-260-580-260C422 92 95 387 95 752s327 660 730 660c236 2 447-100 580-258z"/></svg>