<svg xmlns:xlink="http://www.w3.org/1999/xlink"  xmlns="http://www.w3.org/2000/svg" viewBox="0 0 150 150"><path fill="#2D658F" d="M123.1 53.1l-22.2-8.9c-.4-1.1-.6-2.3-.6-3.6 0-2.1.5-4.2 1.4-6.2.4 1.8 1.5 3.6 3.9 4.9 6 3.2 12.8-1.4 13.5-5 .7-3.6-1.1-2.5-1.1-2.5s-1.1 5.7-7.8 5c-6.8-.7-6.4-5.7-6.4-5.7V31c.4-.5.7-.9 1.2-1.3 3.1-3.3 7-5.1 11.6-5.3 3.5-.3 5.2-.8 5.2-1.7 0-.7-.9-1.1-2.6-1.3-2.6 0-5.5.2-8.7.7-3.5 1-7.7 3.4-9.1 5.4-3.7 3.8-5.6 8.2-5.6 13.1 0 .7.1 1.6.3 2.7-3.7-1.5-6.5-3.6-8.4-6.4-1.9-2.7-2.8-5.7-2.8-9 0-2 .5-4.2 1.5-6.6 1-2.3 2.5-4.5 4.6-6.4.1 2.1 1.1 4.3 4 5.9 6 3.2 12.8-1.4 13.5-5 .7-3.6-1.1-2.5-1.1-2.5s-1.1 5.7-7.8 5c-5.5-.6-6.3-4-6.4-5.3 3.1-2.3 6.1-3.6 9-3.8 3.3-.4 4.9-1.2 4.9-2.3 0-.8-.9-1.1-2.7-1.1-1.9 0-3.8.3-5.7.8-1.2.3-2.5.6-3.7 1-.3.1-.6.2-1 .3-.8.2-1.7.5-2.4.9-2.3 1.5-4.5 3.8-6.4 5.8-1.1 1.2-2.2 2.3-3 3.7-1.6 2.8-2.4 6.2-2.4 9.4 0 4.6 1.4 8.8 4.1 12.6 2.7 3.9 6.5 6.3 11.3 7.4.6.1.9.7.9 1.6 0 1.8-1.2 5-3.6 9.7-1 2.2-2.1 3.8-3.3 4.8-1.3 1-3.3 1.4-6.1 1.4H42.8c-4.6 0-8.7 1.3-12.3 3.8-3.6 2.6-5.7 5.8-6.3 9.7 0 6.3 3.2 12.5 9.7 18.6 4.3 3.9 6.5 7.1 6.5 9.5l.4 4.8c-2.4 0-3.6.8-3.6 2.5 0 .6.2 1.2.6 1.8.4.6 1 1 1.7 1.3l6.2 2.4 7.5 14.2c1.4 3 2.9 4.5 4.3 4.5.7-.3 1-1 1-2 0-.7-.1-1.6-.4-2.7-.3-.7-.9-2.2-2-4.5s-2.1-4.5-2.9-6.5l19.7 8.9c-2.2 5.7-3.3 9.4-3.3 11 .5.8.9 1.2 1.3 1.2 1 0 2.4-1.9 4.4-5.6 1.3-2.4 2.8-5.3 4.6-8.4 1.8-3.2 3-5.3 3.5-6.4 2.3-5.3 4.2-10.5 5.7-15.6.9-3 2.4-4.5 4.6-4.5 4.7 0 7 .8 7 2.3 0 1-.6 2.3-1.9 3.9-2.3 2.9-5.5 6.8-9.6 11.6-.7 1.2-1.1 2.4-1.1 3.8 0 .6.1 1 .4 1.3.9 0-.2-.3 1.1-.9 1.3-.6 2.1-1.1 2.5-1.5 2.1-3 7-6.5 10.5-10.4 3.4-3.9 5.7-6.5 7-7.9 1.4-2.2 2.2-3.9 2.2-4.9 0-1.6-1.3-3-3.9-4.2-4.1-2-6.2-3.8-6.2-5.4l.3-7.9c0-1.1.3-2.7.9-4.6.6-2 1.3-4.3 2.3-6.9.9-2.6 1.6-4.6 2-5.9.3-1.2 1.3-2.1 2.9-2.7 1.6-.6 3.6-1.1 5.9-1.4 2.3-.3 4.5-.6 6.6-.9 2.2-.3 3.3-1.3 3.3-3.2-.1-2.2-1-3.5-2.8-4.3zm-45.4 67c-.3.8-.8 2.1-1.5 3.7-.7 1.7-1.3 3.1-1.8 4.3l-23-12.4c-1.2-.6-1.9-1.4-1.9-2.2 0-.7.5-1.3 1.6-2 1.3-1.4 3.5-4.7 6.7-10h17.7v5.9c.1.5.6 1.9 1.5 4.1.9 2.2 1.3 4.2 1.3 6-.1.9-.3 1.7-.6 2.6zM107 53.7c-.9 0-1.6-.7-1.6-1.6 0-.9.7-1.6 1.6-1.6.9 0 1.6.7 1.6 1.6 0 .9-.7 1.6-1.6 1.6z"/></svg>