<svg xmlns:xlink="http://www.w3.org/1999/xlink"  version="1" xmlns="http://www.w3.org/2000/svg" viewBox="0 0 150 150"><path fill="#00A273" d="M50.6 26.7c3.5-3.2 6.3-4.8 8.6-4.8h.3l.3.1c2.5 1.3 3 2.9 3 4.1l-2.7 17.1V49c.1.1 1.8 1.8 15.1 4 6.8 0 14.5 4.9 22.6 14.7l.2.3c5.2 9.9 7.8 18.5 7.8 25.8v6l-.9 6.8 8.8 1c6.8 0 11.9-1.9 15.4-5.7V21.1c0-1.7-1.4-3.1-3.1-3.1H38l-3.2-3.4 8.3 10.7 7.5 1.4z"/><path fill="#FFC50A" d="M143.9 93.8c0-4.6-1.2-8.4-3.6-11.3 1.4 2.6 2.1 5.6 2.1 9 0 12.1-6.2 20.4-18.4 24.8l-11.3 1.7-9.9-.6-3.8.6-2.6-.5-4.3 1.6-11.1-2c-1.1 1.9-4.3 3.5-9.8 5-1.3 2.5-4 5.1-9.8 5.1H61l-.4-.2c-6.9-4.3-7.2-5.2-7.2-6.2v-.6c0-2.2 1.5-4.3 4.4-6.3.6-2.6 3.8-4.1 6.6-5.1l1.4-8-2.3-6.5-2.8-.6c-8.6 24.5-13.4 29.2-16.7 29.7l-.6.6h-1.2c-5.8-.6-6.9-3.2-6.9-5.3 0-1.5 1.3-3.3 7.4-7.1 1.7-3.2 3.4-9.1 5.1-17.7 0-1.9-1.4-6.6-7.9-16.3l-.2-.3c-3.8-10.7-5.8-19.2-6-25.3-2-.5-3.1-2.1-3.3-4.5l-2.2-2.2v-6.1c0-2.2 1.2-5.4 3.8-9.7l.6-11.5H17.8c-1.7 0-3.1 1.4-3.1 3.1v108.3c0 1.7 1.4 3.1 3.1 3.1h108.3c1.7 0 3.1-1.4 3.1-3.1V117c9.7-4.7 14.7-12.5 14.7-23.2z"/><path fill="#666351" d="M15.5 135.7c-2.1 0-3.9-1.7-3.9-3.8V18.7c0-2.1 1.8-3.8 3.9-3.8h14.8l-.2 1.5H15.5c-1.3 0-2.3 1-2.3 2.3v113.2c0 1.3 1 2.3 2.3 2.3h112.7c1.3 0 2.3-1.1 2.3-2.3v-12.5l1.5-.8v13.2c0 2.1-1.7 3.8-3.8 3.8H15.5v.1z"/><g><path fill="#666351" d="M130.5 97.1V18.7c0-1.3-1-2.3-2.3-2.3H41.3L40 14.9h88.2c2.1 0 3.8 1.7 3.8 3.8v76.6l-1.5 1.8zM41.3 16.4z"/></g></svg>