<svg xmlns:xlink="http://www.w3.org/1999/xlink"  version="1" xmlns="http://www.w3.org/2000/svg" viewBox="0 0 150 150"><path fill="none" d="M75.9 24.2c-38.1 0-68.1 23.6-68.1 51.5 0 20.9 17 39.4 41.5 47.4.3-1 .7-1.9 1.2-2.8 0-.4-.4-.3-.5-.4-2.9-2-5.5-7.6-6.6-9.2-.1-.5-.3-1.1-.7-1.5-2.2-.8-4.4-2-6.4-3.3-2-1.2-4.2-2.9-5.6-5-1.1-1.8-1.5-4-1.9-6.2-.1-1.1-.1-2.2-.2-3.3.1 0 0-.1.1-.1-1.5-1.7-2.9-3.5-3.6-5.8-.9-3.7-.8-7.7 0-11.2-.2-.3-1 .4-1.9-.6.1-.9-.9-.9-1.3-1.6-2.1-3.3 1.1-5.8.5-6.9-1.1-1.1-2.8-.3-3.1-.3-.4-1 1.4-2.1 2-2.4.4-.9-.6-3.1.1-3.5.2-.5 1 .4.8-.4-.1-.9-.1-1.7.4-2.5.6-.2.8.4.8.4-.1-.8.1-2.9.8-2.3.3 1.3.6-2.1 2.1-2.4.7.1.4 1 .3 1.4.2.2.2-1 .8-1.1.7.1.3.9.4 1.2.4-.1.3-1.5 1.1-1.4.2 0 .2.3.3.5.1-.4 1-2 1.7-1 .2.5-.5.8-.4 1.3.2 0 .4-.5.7-.2.3.3-.1.6-.1.9.3-.3 1.3-1.2 1.9-.3 0 .6-.4 1.1-.8 1.5.2.1 1.5-.5 1.6.8-.1.5-.6.6-.8 1.1.2.2.6 0 .7.3.5 1-.6 1.1-.5 1.3-.2.3-.5.5-.9.7.8.6 1.5 1.6 2.1 2.5.6 1.1 1.4 2.2 1.8 3.4 1.1 2.4 1.9 5 3 7.5.6 1.8 1.4 3.5 2.5 5 1.1.5 1.2 2.2 2.7 2 .7.2 1.4.3 2.2.3.2.1.4.1.6.1 1.9.4 4.1 0 6 .3 4.2-.1 8.1.7 12 1.6 1.1.2 2.7.3 3.5-.7 1.6-1 2.1-3 3-4.6 2.2-3.2 5.6-9 12-8.5.7-.3 9-4.3 14.5 4.7 0 .5.2 1-.1 1.3.1.1 0 .2 0 .4-.4 0-.8-.1-1.2.1 1.1 1.1 2 2.2 2.5 3.7-.2.4-.2.9 0 1.3.6 1.8.5 5.4-.6 5.2-.5-.4-1.5-3.5-3-3.7-.1.2 1 2 .5 3.4.7 1.1 2.6 3.2 2.2 4.2-.8.1-1.6-.2-2.3-.4.9 1 1.8 6.4.1 6.3-.6-.1-2-4.6-4.2-5.7 0 .5.4 1 .6 1.5.4 1.1.7 2.2 1 3.3.7 1.2.1 2.5-.2 3.6-.1.3.2.8-.1.8 0-1.5-1.6-2.1-2-3.3-.6-.8 0-2-.7-2.7.1.7-.4 1.3-.2 2-.1-.1-.2.1-.4 0-.3-.7-1-.8-1.6-1.2 0 0 0 .1-.1.1.9 1.6 1.6 3.3 2.2 5.1 0 .5.5 1.2 0 1.5-.2.4-.5.5-1 .5-.2 0-.4-.1-.6-.1.3 2.1 1.1 3.9.9 6-.2.3-.2.6-.6.7-.5-.2-.9-.5-1.2-.9-.8-1-1.5-2.1-2.1-3.2-.1.2-.3.6-.3.8 0 .1-.1 0-.2 0-.4-.7-1.3-1.1-1.6-1.9l-.1.1c.3 1.4.2 2.7.1 4-.6.4-.6-.4-1.1-.5-.1 1.2-1 2-1.4 3.2-.2.3-.6.6-1 .5-.5-.6-.2-1.4-.3-2.1 0-1.2.2-3.1-1.1-3.7-.2.1-.5.2-.7.2-.2.6-.2 1.2-.3 1.8-.7.9-1.1-.8-1.2-1.3-.1 1.8-1.1 5.2-1.2 5.3 0-.7-.3-1.4-.3-2.2-.2-.1-.2.3-.5.3-.2.4-.9.4-.8 1.1.2.4-.4.4-.5.5-.6.4-1.2 1.2-2 .9-.4.3-.6.6-1 .9-.6.5-1.6.5-2.4.9-.3.1-.6 0-.9 0-.3.2-.5.9-1 .6-.7.1-1.4-.2-1.9.4 0 1.1.7 1.7 1 2.6.3.5.7.9 1 1.3-.4.4-.1.9.1 1.2.2.1.5.4.2.6-.7.1-.2 1-.9 1.2-.1.1-.3 0-.4.1-.8 2-1.5 4.1-1.5 6.4 0 .3-.1.6-.1.8 4 .5 8 .9 12.2.9 38.1 0 68.1-23.6 68.1-51.5-.1-27.8-30-51.4-68.1-51.4zm24.5 95.3c3.9-7.3 6-15.6 6-24.4 0-30-25.2-54.3-56.3-54.3-8.9 0-17.4 2.1-24.9 5.6 11.6-11.7 30-19.3 50.8-19.3 35 0 63.5 21.5 63.5 48 0 20.1-16.1 37.2-39.1 44.4z"/><path fill="#F89A1C" d="M76.1 27.1c-20.8 0-39.2 7.6-50.8 19.3 7.5-3.6 15.9-5.6 24.9-5.6 31.1 0 56.3 24.3 56.3 54.3 0 8.8-2.2 17.1-6 24.4 22.9-7.2 39.1-24.4 39.1-44.4-.1-26.4-28.5-48-63.5-48z"/><path fill="#7CC142" d="M75.9 19.3C36 19.4 5.8 44 5.7 75.7c.1 31.6 30.3 56.2 70.2 56.3 39.9 0 69.8-24.7 69.9-56.3-.1-31.7-30-56.3-69.9-56.4zM61.6 124.9c0 .4-.1.7-.1 1-3.4-.6-6.8-1.4-10-2.3.9-2.5 2.5-4.9 2.9-5.2.4.2 2.8 2.5 7.3 2.2.3 1.3-.1 2.8-.1 4.3zm14.3 2.2c-4.2 0-8.3-.3-12.2-.9.1-.3.1-.5.1-.8.1-2.2.8-4.3 1.5-6.4.1-.1.3 0 .4-.1.7-.2.2-1.1.9-1.2.3-.2 0-.5-.2-.6-.2-.4-.5-.8-.1-1.2-.4-.4-.7-.8-1-1.3-.3-.9-1-1.5-1-2.6.5-.6 1.2-.3 1.9-.4.5.3.7-.4 1-.6.3 0 .6.1.9 0 .7-.4 1.7-.4 2.4-.9.4-.3.6-.6 1-.9.9.3 1.4-.6 2-.9.2-.1.7-.1.5-.5-.1-.6.6-.7.8-1.1.2-.1.3-.4.5-.3 0 .7.2 1.5.3 2.2 0 0 1.1-3.4 1.2-5.3.1.5.5 2.2 1.2 1.3.1-.6.1-1.2.3-1.8.2 0 .5-.1.7-.2 1.3.6 1.1 2.5 1.1 3.7 0 .7-.2 1.5.3 2.1.5.1.8-.2 1-.5.4-1.1 1.2-2 1.4-3.2.5.1.5.9 1.1.5.1-1.3.2-2.6-.1-4h.1c.3.8 1.1 1.2 1.6 1.9.1 0 .1.1.2 0 0-.3.2-.6.3-.8.7 1.1 1.4 2.2 2.1 3.2.3.4.7.7 1.2.9.4-.1.4-.4.6-.7.2-2.1-.7-3.9-.9-6 .2 0 .4.1.6.1.4 0 .8-.1 1-.5.5-.3 0-1 0-1.5-.6-1.8-1.3-3.5-2.2-5.1l.1-.1c.6.5 1.2.5 1.6 1.2.1.1.2-.1.4 0-.2-.6.3-1.3.2-2 .7.7.1 1.9.7 2.7.4 1.2 2 1.8 2 3.3.3-.1 0-.6.1-.8.2-1.2.9-2.4.2-3.6-.3-1.1-.6-2.3-1-3.3-.2-.5-.6-.9-.6-1.5 2.1 1.1 3.6 5.7 4.2 5.7 1.7.1.9-5.3-.1-6.3.7.1 1.5.5 2.3.4.4-1-1.5-3.1-2.2-4.2.5-1.4-.6-3.2-.5-3.4 1.5.2 2.5 3.2 3 3.7 1 .2 1.2-3.4.6-5.2-.2-.4-.1-.9 0-1.3-.5-1.4-1.4-2.5-2.5-3.7.4-.1.8-.1 1.2-.1 0-.1.1-.2 0-.4.2-.4.1-.9.1-1.3-5.4-9-13.8-5-14.5-4.7-6.4-.5-9.8 5.3-12 8.5-.9 1.6-1.4 3.6-3 4.6-.8 1.1-2.4 1-3.5.7-3.9-.9-7.8-1.7-12-1.6-2-.3-4.1.1-6-.3-.2 0-.4.1-.6-.1-.8 0-1.5-.1-2.2-.3-1.5.2-1.6-1.5-2.7-2-1.2-1.5-1.9-3.3-2.5-5-1.1-2.5-2-5-3-7.5-.4-1.2-1.2-2.3-1.8-3.4-.6-.9-1.3-1.8-2.1-2.5.4-.1.7-.4.9-.7-.1-.1 1-.3.5-1.3-.1-.3-.5-.1-.7-.3.2-.5.7-.6.8-1.1-.1-1.3-1.3-.7-1.6-.8.4-.4.8-.9.8-1.5-.6-.9-1.6 0-1.9.3 0-.3.4-.6.1-.9-.3-.3-.4.2-.7.2-.1-.5.6-.7.4-1.3-.7-1-1.5.6-1.7 1-.1-.2 0-.5-.3-.5-.8-.2-.7 1.3-1.1 1.4-.1-.3.3-1.1-.4-1.2-.6.1-.6 1.4-.8 1.1.1-.4.4-1.3-.3-1.4-1.5.4-1.8 3.7-2.1 2.4-.7-.6-.9 1.5-.8 2.3 0 0-.2-.7-.8-.4-.5.7-.5 1.6-.4 2.5.2.8-.6-.1-.8.4-.7.3.3 2.6-.1 3.5-.7.3-2.5 1.5-2 2.4.3 0 2-.8 3.1.3.6 1.2-2.7 3.6-.5 6.9.4.7 1.4.7 1.3 1.6.9.9 1.7.3 1.9.6-.7 3.5-.9 7.5 0 11.2.7 2.3 2 4.1 3.6 5.8-.1 0 0 .1-.1.1.1 1.1.1 2.2.2 3.3.4 2.2.8 4.4 1.9 6.2 1.4 2.1 3.6 3.8 5.6 5 2 1.4 4.2 2.6 6.4 3.3.4.4.6 1 .7 1.5 1.1 1.5 3.7 7.2 6.6 9.2.1.1.6 0 .5.4-.5.8-.9 1.8-1.2 2.8-24.5-8.1-41.5-26.6-41.5-47.5.1-27.9 30-51.5 68.1-51.5 38.1 0 68.1 23.6 68.1 51.5-.1 27.8-30 51.4-68.1 51.4z"/></svg>