<svg xmlns:xlink="http://www.w3.org/1999/xlink"  xmlns="http://www.w3.org/2000/svg" viewBox="0 0 150 150"><path fill="#FA8A3B" d="M100.6 93H48.2c-1.9 8-8.8 15-17.5 16.3C41 123 57.4 131.8 75.9 131.8c18.4 0 34.7-8.6 45-22.2-9.9-.2-18.2-7.6-20.3-16.6zm-44.2 24.1c-1.6.6-3.1.5-4.3-.4-.3-.2-.4-.5-.4-1 0-.4-.1-.8-.3-.9.1-.2.2-.4.2-.7 0-.2-.1-.4-.2-.5.1-.2.2-.5.2-.9.2-.5.5-1.1 1.2-1.8l1.7-1.7h.1v-.2c.3-.1.5-.2.6-.4-1.1 0-1.9-.1-2.4-.3-.2-.1-.3-.4-.4-.7-.1-.3-.2-.6-.4-.7-.2-.2-.1-.4.1-.6l.2-.2c-.1-.1-.2-.3-.3-.3-.2-.2-.1-.4.1-.6.2-.3.3-.4.3-.6.2-.3.4-.7.6-1.3h.2s.2-.2.6-.4c.3-.2.5-.3.7-.3.1 0 .3-.2.5-.5.2-.2.4-.3.6-.2.1 0 .3-.1.6-.4.2-.2.4-.2.6-.1.3 0 .8-.1 1.5-.2.2.1.6.1 1.2.2.5.1.9.2 1.1.4.2.2.3.4.4.7l.3 1.7c0 .1-.1.2-.1.3l.1.9c-.2.5-.6 1-1 1.5-.5.5-.9.9-1.3 1-.3.3-.8.5-1.3.6-.1 0-.2 0-.3.1.7.1 1.2.4 1.6.7.4.3.6.7.6 1.2 0 .2-.1.4-.1.7.1.1.1.3.1.4 0 .3-.1.8-.3 1.5-.1.9-.6 1.8-1.4 2.8-.4.2-.9.6-1.5 1.2zm6.9 4.7c-.2.1-.4.2-.9.4-.4.2-.7.3-.9.5-.3.1-.7.1-1.2.2v-.1c-.9 0-1.5-.2-1.9-.6-.1-.1-.2-.2-.3-.4-.1-.1-.2-.4-.2-.7 0-.1.1-.4.1-.7v-.1c0-.1 0-.2-.1-.4 0-.1.1-.4.1-.7 0-.3 0-.6.2-.8.1-.5.5-1 1.1-1.7 1-1.1 1.5-1.6 1.4-1.5.2-.1.5-.3 1-.7.4-.4.7-.5.9-.5l.1-.1c.1.1.1.1.2.1l.2-.2c.1-.1.1-.1.2 0 .3 0 .7.1 1.1.5-.2-.1.2.2.9.9v1.2c.1 2.2-.6 4-2 5.4zm10.8-6.7c0 .3-.1.7-.2 1.3-.5 1.3-.8 2-1.1 2.3-.5.6-1.5 1-2.9 1.3-.1 0-.4.1-1 .2-.4.1-.7 0-1-.1 0 0-.2-.1-.6-.5-.2-.2-.3-.4-.3-.5-.3-.5-.3-1.1-.2-1.7-.2-.6-.1-1.3.3-2.1-.1-.2-.1-.4.1-.6.1-.1.2-.2.2-.5.1-.2.1-.4.1-.4.1-.1.2-.1.4-.1.1-.2.2-.4.3-.7.1-.2.3-.2.6-.2.3.1.5.1.6-.1.1-.1.1-.2.2-.3.3-.1.5-.2.7-.4.3-.2.6-.2.8-.1.2-.1.5-.2.8-.2.3 0 .6 0 .9.1.5.4.9 1 1.1 1.9 0 .2 0 .5-.1.9.2.3.2.4.3.5zm1.2-6.7c.1.1.1.3.1.5 0 .3-.1.5-.1.5-1.1 1.2-2.3 1.8-3.7 1.8-1.2-.3-2.1-.3-2.6 0-.5-.1-1.1-.1-1.8.1-.8.2-1.4.3-1.7.2-.5.1-1.3-.2-2.2-1 0-.1-.1-.3-.4-.8-.2-.3-.2-.6-.1-.8-.1-.1 0-.3 0-.5-.1-.2-.1-.5 0-.6-.1-.2 0-.4.1-.8 0-.1.1-.2.1-.3v-.3-.2c.1-.2.1-.5 0-.9.2-.1.2-.3.1-.4.1-.2.1-.5.1-.7-.1-.8-.4-1.5-1-2.2 0-.4-.1-.8-.1-1.2 0-.2 0-.4.1-.6 0-.2 0-.4-.1-.5 0-.4.1-.8.4-1.1l-.1-.1s.1.1.2.1c0 0 .1-.1.1-.2l-.1-.1c0 .1.1.1.2.1l-.1-.2c.1.1.3 0 .5-.2.3-.3.4-.5.4-.5.2-.1.4-.1.7 0 .3.1.6.1.7 0 .9.7 1.5 1.1 1.6 1.2.5.5.9 1 1 1.6.6.4 1.4 1.1 2.5 2 .1.3.3.6.6.9.4.4 1.1.7 1.9.8.5.1 1 .3 1.4.7.7.7 1.2 1.5 1.5 2.6.1.1.1.3.1.5 0 .3-.1.5-.1.5-.2 0-.2 0-.2.1zm10 8c0 .1 0 .3-.2.4-.3.3-.5.4-.4.4-.2.1-.5.1-.8.1-.5-.1-.7-.1-.8-.1-1.1-.2-1.9-.6-2.3-1.1-.2-.2-.5-.8-.9-1.8-.1-.5-.2-.8-.2-1 0-.1.1-.2.1-.3-.1-.3-.1-.6-.1-.8.2-.7.5-1.2.9-1.5.2 0 .5 0 .7-.1.2 0 .5 0 .6.1.2-.1.4-.1.6.1l.6.3c0 .1.1.2.1.2.1.1.3.1.5 0s.4 0 .5.1c0 .3.1.5.2.6.1 0 .2 0 .3.1 0 0 .1.2.1.3 0 .2.1.3.2.4.2.1.2.3.1.4.3.6.4 1.2.2 1.7.3.5.2 1 0 1.5zm-.2-6.2c-.6-.1-1-.2-1.4-.1-.4-.2-1.1-.2-2.1 0-1.1 0-2-.5-2.9-1.4 0 0 0-.1-.1-.4 0-.2 0-.3.1-.4 0-.1.1-.2.1-.3l-.1-.1s0-.1-.1-.4c0-.2 0-.3.1-.4.2-.9.6-1.6 1.1-2.1.3-.3.7-.5 1.1-.6.6-.1 1.1-.3 1.5-.6.2-.2.4-.4.5-.7.9-.7 1.6-1.2 2-1.5.1-.4.3-.8.8-1.2.1-.1.5-.4 1.2-.9.1.1.3.1.6 0s.4-.1.6 0l.4.4c.1.2.3.2.4.2l-.1.1c.1 0 .1 0 .2-.1l-.1.1c0 .1.1.1.1.2.1 0 .1-.1.1-.1l-.1.1c.2.2.3.5.3.9 0 .2 0 .4-.1.6.1.2.1.3.1.5 0 .3-.1.7-.1 1-.4.5-.6 1-.7 1.5 0 .2 0 .3.1.5-.1.1-.1.2 0 .3-.1.3-.1.6 0 .7-.1.1 0 .3 0 .4 0 .1 0 .1.1.2.1.3.1.5.1.6.1.2.1.4-.1.6.1.3.1.5.1.6.1.2.1.4-.1.6-.2.3-.3.5-.3.6-.7.6-1.3.9-1.7.8-.5 0-.9 0-1.6-.2zm7.3 7.2v.5c0 .3-.1.5-.2.6-.1.1-.2.2-.2.3-.3.3-.8.4-1.5.5v.1c-.4-.1-.8-.1-1-.2-.1-.1-.4-.3-.7-.4-.3-.1-.5-.2-.6-.4-1.1-1.1-1.6-2.6-1.5-4.3V113l.7-.7c.3-.3.6-.4.9-.4h.2l.1.1s.1 0 .2-.1l.1.1c.2-.1.4.1.7.4.4.3.6.5.8.6 0-.1.3.3 1.1 1.2.5.5.8 1 .9 1.3.1.2.1.4.1.6v.5c0 .1 0 .3-.1.4v.4zm5.3-4.4c-.1.2-.2.4-.2.7 0 .3-.1.6-.3.8-1 .7-2.2.8-3.4.3-.5-.5-.9-.8-1.1-1.1-.7-.7-1-1.5-1.1-2.2-.1-.5-.2-.9-.2-1.2 0-.2.1-.3.1-.4-.1-.3-.1-.5-.1-.7.1-.4.2-.7.5-1 .2-.2.5-.3.8-.5-.3-.1-.6-.2-.8-.4-.3-.1-.7-.4-1.1-.8-.3-.4-.6-.8-.8-1.2l.1-.9c0-.1-.1-.2-.1-.2l.2-1.3.3-.6c.2-.2.5-.3.9-.3.5-.1.8-.1.9-.2.5.1.9.1 1.1.2.1-.1.3 0 .5.1.2.2.4.3.5.3.1-.1.3 0 .4.2.2.3.4.4.4.4.1 0 .3 0 .5.2.3.2.4.3.4.3h.2c.2.5.3.8.5 1.1-.1.1 0 .2.2.4s.2.4.1.5c-.1.1-.2.2-.3.4 0 .1.1.1.2.2.2.2.2.4.1.5-.2.1-.3.3-.4.6-.1.3-.2.5-.3.6-.4.2-.9.2-1.6.3.1 0 .1.1.2.1v.2h.1c.8.7 1.2 1.2 1.3 1.3.5.5.8 1 .9 1.4 0 .3.1.5.2.7-.1.1-.1.3-.2.5.2.3.3.5.4.7zM48.3 58h52.4c2.1-9 10.6-16.5 20.7-16.6C111.1 27.5 94.6 18.7 76 18.7c-18.7 0-35.3 8.9-45.6 22.9 8.8 1.2 16 8.4 17.9 16.4zm46.1-19.9c1.6-.6 3.1-.5 4.3.4.3.2.4.5.4 1 0 .4.1.8.3.9-.1.2-.2.4-.2.7 0 .2.1.4.2.5-.1.2-.2.5-.2.9-.2.5-.5 1.1-1.2 1.8L96.3 46h-.1v.2c-.3.1-.5.2-.6.4 1.1 0 1.9.1 2.4.3.2.1.3.4.4.7.1.3.2.6.4.7.2.2.1.4-.1.6l-.2.2c.1.1.2.3.3.3.2.2.1.4-.1.6-.2.3-.3.4-.3.6-.2.3-.4.7-.6 1.3h-.2s-.2.2-.6.4c-.3.2-.5.3-.7.3-.1 0-.3.2-.5.5-.2.2-.4.3-.6.2-.1 0-.3.1-.6.4-.2.3-.4.3-.6.2-.3 0-.8.1-1.4.2-.2-.1-.6-.1-1.2-.2-.5-.1-.9-.2-1.1-.4-.2-.2-.3-.4-.4-.7l-.3-1.7c0-.1.1-.2.1-.3l-.1-.8c.2-.5.6-1 1-1.5.5-.5.9-.9 1.3-1 .3-.3.8-.5 1.3-.6.1 0 .2 0 .3-.1-.7-.1-1.2-.4-1.6-.7-.4-.3-.6-.7-.6-1.2 0-.2.1-.4.1-.7-.1-.1-.1-.3-.1-.5 0-.3.1-.8.3-1.5.1-.9.6-1.8 1.4-2.8.3-.3.7-.7 1.4-1.3zm-6.9-4.7c.2-.1.4-.2.9-.4.4-.2.7-.3.9-.5.3-.1.7-.1 1.2-.2v.1c.9 0 1.5.2 1.9.6.1.1.2.2.3.4.1.1.2.4.2.7 0 .1-.1.4-.1.7v.1c0 .1 0 .2.1.3 0 .1-.1.4-.1.7 0 .3 0 .6-.2.8-.1.5-.5 1-1.1 1.7-1 1.1-1.5 1.6-1.4 1.5-.2.1-.5.3-1 .7-.4.4-.7.5-.9.5l-.1.1c-.1-.1-.1-.1-.2-.1l-.2.2c-.1.1-.1.1-.2 0-.3 0-.7-.1-1.1-.5.2.1-.2-.2-.9-.9v-1.2c-.1-2.1.5-3.9 2-5.3zm-10.8 6.7c0-.3.1-.7.2-1.3.5-1.3.8-2 1.1-2.3.5-.6 1.5-1 2.9-1.3.1 0 .4-.1 1-.2.4-.1.7-.1 1 .1 0 0 .2.1.6.5.2.2.3.4.3.5.3.5.3 1.1.2 1.7.2.6.1 1.3-.3 2.1.1.2.1.4-.1.6-.1.1-.2.2-.2.5-.1.2-.1.4-.1.4-.1.1-.2.1-.4.1-.1.2-.2.4-.3.7-.1.2-.3.2-.6.2-.3-.1-.5-.1-.6.1-.1.1-.1.2-.2.3-.3.1-.5.2-.7.4-.3.2-.6.2-.8.1-.2.1-.5.2-.8.2-.3 0-.6 0-.9-.1-.5-.4-.9-1-1.1-1.9 0-.2 0-.5.1-.9-.2-.3-.3-.4-.3-.5zm-1.2 6.7c-.1-.1-.1-.3-.1-.5 0-.3.1-.5.1-.5 1.1-1.2 2.3-1.8 3.7-1.8 1.2.3 2.1.3 2.6 0 .5.1 1.1.1 1.8-.1.8-.2 1.4-.3 1.7-.2.5-.1 1.3.2 2.2 1 0 .1.1.3.4.8.2.3.2.6.1.8.1.1 0 .3 0 .5.1.2.1.5 0 .6.1.2 0 .4-.1.8-.1.1-.1.2-.1.3v.5c-.1.2-.1.5 0 .9-.2.1-.2.3-.1.4-.1.2-.1.5-.1.7.1.8.4 1.5 1 2.2 0 .4.1.8.1 1.2 0 .2 0 .4-.1.6 0 .2 0 .4.1.6 0 .4-.1.8-.4 1.1l.1.1s-.1-.1-.2-.1c0 0-.1.1-.1.2l.1.1c0-.1-.1-.1-.2-.1l.1.2c-.1-.1-.3 0-.5.2-.3.3-.4.5-.4.5-.2.1-.4.1-.7 0-.3-.1-.6-.1-.7 0-.9-.7-1.5-1.1-1.6-1.2-.5-.5-.9-1-1-1.6-.6-.4-1.4-1.1-2.5-2-.1-.3-.3-.6-.6-.9-.4-.4-1.1-.7-1.9-.8-.5-.1-1-.3-1.4-.7-.7-.7-1.2-1.5-1.5-2.6-.1-.1-.1-.3-.1-.5 0-.3.1-.5.1-.5.2-.1.2-.1.2-.2 0 .1 0 0 0 0zm-10-8c0-.1 0-.3.2-.4.3-.3.5-.4.4-.4.2-.1.5-.2.8-.1.5.1.7.1.8.1 1.1.2 1.9.6 2.3 1.1.2.2.5.8.9 1.8.1.5.2.8.2 1 0 .1-.1.2-.1.3v1c-.2.7-.5 1.2-.9 1.5-.2 0-.5 0-.7.1-.2 0-.5 0-.6-.1-.2.1-.4.1-.6-.1l-.6-.3c0-.1-.1-.2-.1-.2-.1-.1-.3-.1-.5 0s-.4 0-.5-.1c0-.3-.1-.5-.2-.6-.1 0-.2 0-.3-.1 0 0-.1-.2-.1-.3 0-.2-.1-.3-.2-.4-.2-.1-.2-.3-.1-.4-.3-.6-.4-1.2-.2-1.7-.2-.7-.2-1.2.1-1.7zm.1 6.2c.6.1 1 .2 1.4.1.4.2 1.1.2 2.1 0 1.1 0 2 .5 2.9 1.4 0 0 0 .1.1.4 0 .2 0 .3-.1.4 0 .1-.1.2-.1.3l.1.1s0 .1.1.4c0 .2 0 .3-.1.4-.2.9-.6 1.6-1.2 2.1-.3.3-.7.5-1.1.6-.6.1-1.1.3-1.5.6-.2.2-.4.4-.5.7-.9.7-1.6 1.2-2 1.5-.1.4-.3.8-.8 1.2-.1.1-.5.4-1.2.9-.1-.1-.3-.1-.6 0s-.5.1-.6 0l-.4-.4c-.1-.2-.3-.2-.4-.2l.1-.1c-.1 0-.1 0-.2.1l.1-.1c0-.1-.1-.1-.1-.2-.1 0-.1.1-.1.1l.1-.1c-.2-.3-.3-.5-.3-.9 0-.2 0-.4.1-.6-.1-.2-.1-.3-.1-.5 0-.3.1-.7.1-1 .4-.5.6-1 .7-1.5 0-.2 0-.3-.1-.5.1-.1.1-.2 0-.3.1-.3.1-.6 0-.7.1-.1 0-.3 0-.4 0-.1 0-.1-.1-.2-.1-.3-.1-.5-.1-.6-.1-.2-.1-.3.1-.6-.1-.3-.1-.5-.1-.6-.1-.2-.1-.4.1-.6.2-.3.3-.5.3-.6.7-.6 1.3-.9 1.7-.8.7 0 1.1.1 1.7.2zm-7.3-7.2v-.5c0-.3.1-.5.2-.6.1-.1.2-.2.2-.3.3-.3.8-.4 1.5-.5v-.1c.4.1.8.1 1 .2.1.1.4.3.7.4.3.1.5.2.6.4 1.1 1.1 1.6 2.6 1.5 4.3v1.1l-.7.7c-.3.3-.6.4-.9.4h-.2l-.1-.1s-.1 0-.2.1l-.1-.1c-.2.1-.4-.1-.7-.4-.4-.3-.6-.5-.8-.6 0 .1-.3-.3-1.1-1.2-.5-.5-.8-1-.9-1.3-.1-.2-.1-.4-.1-.6v-.5c0-.1 0-.3.1-.3v-.5zm-5.2 4.4c.1-.2.2-.4.2-.7 0-.3.1-.6.3-.8 1-.7 2.2-.8 3.4-.3.5.5.9.8 1.1 1.1.7.7 1 1.5 1.1 2.2.1.5.2.9.2 1.2 0 .2-.1.3-.1.4.1.3.1.5.1.7-.1.4-.2.7-.5 1-.2.2-.5.3-.8.5.3.1.6.2.8.4.3.1.7.4 1.1.8.3.4.6.8.8 1.2l-.1.9c0 .1.1.2.1.2l-.2 1.3-.3.6c-.2.2-.5.3-.9.3-.5.1-.8.1-.9.2-.5-.1-.9-.1-1.1-.2-.1.1-.3 0-.5-.1-.2-.2-.4-.3-.5-.3-.1.1-.3 0-.4-.2-.2-.3-.4-.4-.4-.4-.1 0-.3 0-.5-.2-.3-.2-.4-.3-.4-.3h-.1-.1c-.2-.5-.3-.8-.5-1.1.1-.1 0-.2-.2-.4s-.2-.4-.1-.5c.1-.1.2-.2.3-.4 0-.1-.1-.1-.2-.2-.2-.2-.2-.4-.1-.5.2-.1.3-.3.3-.6.1-.3.2-.5.3-.6.4-.2.9-.2 1.6-.3-.1 0-.1-.1-.2-.1v-.2h-.1c-.8-.7-1.2-1.2-1.3-1.3-.5-.5-.8-1-.9-1.4 0-.3-.1-.5-.2-.7.1-.1.1-.3.2-.5-.1-.3-.2-.5-.3-.7z"/><path fill="#D8B9A7" d="M142.9 63.1c0-5.7-2.2-11.1-6.3-15.2-4-4-9.4-6.3-15.2-6.3l-.1-.3c-10.2.1-18.6 7.6-20.7 16.6H48.2c-1.9-8-9-15.1-17.9-16.3-1-.1-2-.1-3-.1-5.7 0-11.1 2.3-15.2 6.3C8.2 52 6 57.4 6 63.1c0 4.5 1.5 8.8 4 12.4-2.6 3.6-4 7.9-4 12.4 0 11.8 9.6 21.4 21.4 21.4 1.1 0 2.3.1 3.4 0C39.4 108 46.4 101 48.3 93h52.4c2.1 9 10.4 16.3 20.3 16.6.2 0 .4-.1.5-.1 11.8 0 21.4-9.7 21.4-21.5 0-4.5-1.5-8.8-4-12.4 2.6-3.6 4-8 4-12.5zm-21.4 43.5c-9.6 0-17.4-8.6-18.2-16.6H45.6c-.8 8-8.6 16.6-18.2 16.6-10.1 0-18.3-8.4-18.3-18.5 0-4.6 1.8-9.1 4.9-12.5-3.1-3.4-4.9-7.8-4.9-12.4 0-4.9 1.9-9.5 5.4-13 3.5-3.5 8.1-5.7 12.9-5.7C37 44.5 44.8 53 45.6 61h57.7c.8-8 8.6-16.5 18.2-16.5 4.9 0 9.5 2.1 12.9 5.5 3.5 3.5 5.4 8.1 5.4 13 0 4.6-1.8 9-4.9 12.4 3.1 3.4 4.9 7.9 4.9 12.6 0 10.2-8.2 18.6-18.3 18.6z"/><path fill="#9D9FA2" d="M134.9 75.5c3.1-3.4 4.9-7.8 4.9-12.4 0-4.9-1.9-9.5-5.4-12.9-3.5-3.5-8.1-5.7-12.9-5.7-9.6 0-17.4 8.5-18.2 16.5H45.6c-.8-8-8.6-16.5-18.2-16.5-4.9 0-9.5 2.1-12.9 5.5-3.5 3.5-5.4 8.1-5.4 13 0 4.6 1.8 9 4.9 12.4-3.1 3.4-4.9 7.8-4.9 12.4 0 10.1 8.2 18.6 18.3 18.6 9.6 0 17.4-8.5 18.2-16.5h57.7c.8 8 8.6 16.6 18.2 16.6 10.1 0 18.3-8.4 18.3-18.5 0-4.5-1.7-9.1-4.9-12.5zm3.9 12.4c0 9.5-7.7 17.3-17.3 17.3-9.2 0-16.7-6.9-17.2-16V89H44.7v.2c-.5 9.2-8 16.2-17.2 16.2-9.5 0-17.3-7.8-17.3-17.3 0-4.5 1.7-8.8 4.9-12.1l.4-.4-.5-.4c-3.2-3.2-4.9-7.5-4.9-12 0-4.6 1.8-9 5.1-12.2 3.3-3.3 7.6-5.1 12.2-5.1 9.2 0 16.7 7.3 17.2 16.5v.6h59.6v-.6c.5-9.2 8-16.4 17.2-16.4 4.6 0 9 1.8 12.2 5 3.3 3.3 5.1 7.6 5.1 12.2 0 4.5-1.7 8.8-4.9 12l-.4.4.4.4c3.2 3.2 5 7.4 5 11.9z"/><path fill="#9D9FA2" d="M43 63s0 .1 0 0c0-8.8-7.1-15.9-15.8-15.9-8.7 0-15.8 7.3-15.8 16.2 0 1.2.1 2.3.4 3.4-.1-.5-.1-1.1-.1-1.6 0-8.5 6.8-15.5 15.1-15.5 8.2 0 15.1 6.7 15.1 15v.4h62v-2H43zM106.5 88v-.3c0 8.8 6.9 15.7 15.4 15.7s15.4-7.2 15.4-16c0-1.2-.1-2.3-.4-3.4.1.5.1 1 .1 1.6 0 8.4-6.9 15.2-15.1 15.2-8 0-15-6.6-15-14.7V86H46v2h60.5z"/><path fill="#A26946" d="M75.4 47.4c0 .2 0 .4.1.5.2 1.1.7 2 1.5 2.6.4.4.9.6 1.4.7.8.1 1.4.4 1.9.8.3.2.5.5.6.9 1.1.9 2 1.5 2.5 2 .1.5.4 1.1 1 1.6.1.1.6.5 1.6 1.2.2-.1.4-.1.7 0 .3.1.6.1.7 0 0 0 .2-.2.4-.5.2-.2.3-.3.5-.2l-.1-.2c.1 0 .2.1.2.1l-.1-.1c0-.1.1-.2.1-.2.1 0 .2.1.2.1l-.1-.1c.3-.3.4-.7.4-1.1 0-.2 0-.4-.1-.6-.1.2-.2.3-.3.5l.1.1s-.1-.1-.2-.1c0 0-.1.1-.1.2l.1.1s-.1-.1-.2-.1l.1.2c-.1-.1-.3 0-.5.2-.3.3-.4.5-.4.5-.2.1-.4.1-.7 0-.3-.1-.6-.1-.7 0-.9-.7-1.5-1.1-1.6-1.2-.5-.5-.9-1-1-1.6-.6-.4-1.4-1.1-2.5-2-.1-.3-.3-.6-.6-.9-.4-.4-1.1-.7-1.9-.8-.5-.1-1-.3-1.4-.7-.7-.6-1.2-1.5-1.4-2.5-.1.1-.2.3-.2.6zM87.7 47.8c-.1.1-.1.4 0 .6 0-.1 0-.2.1-.3.1-.4.2-.6.1-.8.1-.2.1-.4 0-.6 0 .1 0 .2-.1.3-.1.4-.2.7-.1.8zM87.7 49.2c-.2.6-.2 1.3-.1 1.8 0-.2.1-.4.1-.7-.2-.2-.1-.3.1-.4-.1-.4-.1-.7 0-.9v-.2c-.2.1-.3.2-.1.4zM77.8 43.2c.3 0 .6 0 .9.1.3 0 .6 0 .8-.2.2.1.5.1.8-.1.2-.1.5-.2.7-.4 0-.1.1-.2.2-.3.1-.1.3-.1.6-.1.3.1.5 0 .6-.2 0-.3.1-.6.3-.7.2 0 .3 0 .4-.1 0-.1.1-.2.1-.4s.1-.4.2-.5c.2-.2.3-.3.1-.6.4-.7.5-1.4.3-2.1l-.3.9c.1.2.1.4-.1.6-.1.1-.2.2-.2.5-.1.2-.1.4-.1.4-.1.1-.2.1-.4.1-.1.2-.2.4-.3.7-.1.2-.3.2-.6.2-.3-.1-.5-.1-.6.1-.1.1-.1.2-.2.3-.3.1-.5.2-.7.4-.3.2-.5.2-.7.1-.2.1-.5.2-.8.2-.3 0-.6 0-.9-.1-.4-.3-.8-.9-1-1.6-.1.4-.1.7-.1.9.2.9.5 1.5 1 1.9zM98.4 49.5c-.2.3-.4.7-.6 1.3h-.2s-.2.2-.6.4c-.3.2-.5.3-.7.3-.1 0-.3.2-.5.5-.2.2-.4.3-.6.2-.1 0-.3.1-.6.4-.2.2-.4.2-.6.1-.3 0-.8.1-1.4.2-.2-.1-.6-.1-1.2-.2-.5-.1-.9-.2-1.1-.4-.2-.2-.3-.4-.4-.7l-.1-.8c0 .1-.1.2-.1.3l.3 1.7c.1.3.2.5.4.7.2.2.6.3 1.1.4.6.1 1 .1 1.2.2.6-.1 1.1-.1 1.4-.2.2.1.4.1.6-.1.3-.2.5-.3.6-.4.2.1.4 0 .6-.2.3-.3.4-.5.5-.5.2 0 .4 0 .7-.3.4-.3.5-.4.6-.4h.2c.2-.6.4-1 .6-1.3-.1-.1 0-.3.3-.6.2-.3.3-.5.1-.6l-.3-.3c-.2.1-.3.2-.2.3zM98 43.1l-1.7 1.7h-.1v.2c-.3.1-.5.2-.6.4-.2 0-.4 0-.7.2-.3.2-.5.2-.7.2-1-.1-1.7-.4-2.2-.8-.2-.2-.4-.5-.5-.8-.1.3-.1.5-.1.7.1.5.3.9.6 1.2.4.3.9.6 1.6.7.4-.1.7-.2 1.1-.3h.9c.2-.2.4-.3.6-.4v-.2h.1l1.7-1.7c.6-.7 1-1.3 1.2-1.8 0-.4.1-.7.2-.9-.1-.1-.2-.3-.2-.5v.2c-.2.6-.6 1.2-1.2 1.9zM85.6 40c.8.7 1.1 1 .9.9.4.3.8.5 1.1.5h.2l.2-.2c.1 0 .1 0 .2.1l.1-.1c.2.1.5-.1.9-.5.5-.4.8-.7 1-.7-.1.1.4-.4 1.4-1.5.6-.6 1-1.2 1.1-1.7.1-.2.2-.4.2-.8 0-.3 0-.5.1-.7 0-.1 0-.2-.1-.3 0 .3-.1.5-.2.6-.1.5-.5 1-1.1 1.7-1 1.1-1.5 1.6-1.4 1.5-.2.1-.5.3-1 .7-.4.4-.7.5-.9.5l-.1.1c-.1-.1-.2-.2-.3-.1l-.2.2c-.1.1-.1.1-.2 0-.3 0-.7-.1-1.1-.5.2.1-.2-.2-.9-.9 0 .4 0 .8.1 1.2zM53.3 44.1c.1.4.4.9.9 1.4.1.2.6.6 1.3 1.3h.1v.2c.1 0 .1.1.2.1h1c.4.1.7.2 1.1.3.1 0 .1.1.2.1.3-.1.6-.3.8-.5.3-.3.5-.6.5-1 0-.2-.1-.4-.1-.7-.1.2-.2.4-.4.5-.4.3-.9.6-1.7.6-.1 0-.3 0-.5-.2-.2-.1-.4-.2-.6-.1-.1-.2-.3-.3-.5-.3v-.2h-.1c-.8-.7-1.2-1.2-1.3-1.3-.5-.5-.8-1-.9-1.4 0 .2-.1.4-.2.5.1.2.2.4.2.7zM69.8 50c-.6.1-1.1.3-1.5.6-.2.2-.4.4-.5.7-.9.7-1.6 1.2-2 1.5-.1.4-.3.8-.8 1.2-.1.1-.5.4-1.2.9-.1-.1-.3-.1-.6 0s-.5.1-.6 0l-.4-.4c-.1-.2-.3-.2-.4-.2l.1-.1c-.1 0-.1 0-.2.1l.1-.1c0-.1-.1-.1-.1-.2-.1 0-.1.1-.1.1l.1-.1c-.1-.1-.2-.2-.2-.4 0 .2 0 .4-.1.6 0 .3.1.6.3.9l-.1.1.1-.1s.1.1.1.2l-.1.1s.1-.1.2-.1l-.1.1c.1 0 .2 0 .4.2.2.3.4.4.4.4.1.1.3.1.6 0s.4-.1.6 0c.7-.5 1.2-.8 1.2-.9.4-.4.7-.8.8-1.2.5-.3 1.1-.8 2-1.5.1-.3.2-.5.5-.7.3-.3.8-.5 1.5-.6.4-.1.8-.3 1.1-.6.6-.5 1-1.2 1.2-2.1.1-.1.1-.3.1-.4 0-.3-.1-.4-.1-.4l-.1-.1c-.2.7-.6 1.3-1.1 1.8-.4.4-.7.6-1.1.7zM62.4 49.2c.1-.1.1-.2 0-.3V50c.2.1.2.2 0 .3 0 .2 0 .3.1.5 0-.5 0-1-.1-1.6zM60.3 51.7c-.2.2-.5.3-.9.3-.5.1-.8.1-.9.2-.5-.1-.9-.1-1.1-.2-.1.1-.3 0-.5-.1-.2-.2-.4-.3-.5-.3-.1.1-.3 0-.4-.2-.2-.3-.4-.4-.4-.4-.1 0-.3 0-.5-.2-.3-.2-.4-.3-.4-.3h-.1-.1c-.2-.5-.3-.8-.5-1.1v-.2c-.1.2-.2.3-.3.4-.1.1-.1.3.1.5s.3.3.2.4c.2.2.3.6.5 1.1h.2s.2.1.4.3c.2.2.4.2.5.2.1 0 .2.2.4.4s.3.2.4.2c.1 0 .2.1.5.3.2.1.3.2.5.1.3 0 .7.1 1.1.2.1-.1.4-.1.9-.2.4 0 .7-.1.9-.3.2-.1.3-.3.3-.6l.2-1.3c0-.1-.1-.2-.1-.2l-.1.4c0 .3-.2.5-.3.6zM58.3 39c0 .3 0 .5.1.6.1.4.4.8.9 1.3.8.9 1.2 1.2 1.1 1.2.2 0 .4.2.8.6.3.3.6.4.7.4l.1.1c.1-.1.1-.1.2-.1 0 0 0 .1.1.1.1.1.1.1.2 0 .3 0 .5-.1.9-.4-.1.1.1-.2.7-.7V41l-.7.7c-.3.3-.6.4-.9.4h-.2l-.1-.1s-.1 0-.2.1l-.1-.1c-.2.1-.4-.1-.7-.4-.4-.3-.6-.5-.8-.6 0 .1-.3-.3-1.1-1.2-.5-.5-.8-1-.9-1.3-.1-.1-.1-.2-.1-.3 0 .1 0 .2-.1.3.1 0 .1.2.1.5zM62.3 48.1c.1-.2.1-.4-.1-.7v-.1c-.1.2-.2.4-.1.6-.1.1 0 .3.1.6 0 .1 0 .1.1.2.1-.2.1-.4 0-.6zM65.6 42.1c-.1.2-.1.3.1.4.1.1.1.2.2.4 0 .2.1.3.1.3.1.1.2.1.3.1.1.1.2.3.2.6.1.1.2.1.5.1.2-.1.4 0 .5 0 0 .1.1.1.1.2l.6.3c.2.1.4.1.6.1.2.1.4.1.6.1.3 0 .5 0 .7-.1.4-.3.7-.8.9-1.5 0-.2 0-.5-.1-.8-.2.5-.4.9-.8 1.2-.2 0-.5 0-.7.1-.2 0-.5 0-.6-.1-.2.1-.4.1-.6-.1l-.6-.3c0-.1-.1-.2-.1-.2-.1-.1-.3-.1-.5 0s-.4 0-.5-.1c0-.3-.1-.5-.2-.6-.1 0-.2 0-.3-.1 0 0-.1-.2-.1-.3 0-.2-.1-.3-.2-.4-.2-.1-.2-.3-.1-.4-.1-.2-.2-.4-.2-.6-.2.5-.1 1 .2 1.7zM56 108.6c.3-.2.5-.2.7-.2.2 0 .4.1.6.1.1 0 .2 0 .3-.1.5-.1 1-.4 1.3-.6.4-.1.9-.5 1.3-1s.8-1 1-1.5l-.1-.9c-.2.4-.5.8-.9 1.2-.5.5-.9.9-1.3 1-.3.3-.8.5-1.3.6-.5.1-.9.2-1.4.3-1.5.1-2.7 0-3.3-.3-.2-.1-.3-.4-.4-.7 0-.2-.1-.3-.1-.4 0 .1-.1.1-.2.2-.2.3-.3.5-.1.6.2.1.4.4.4.7.1.3.2.6.4.7.5.2 1.4.3 2.4.3.1.2.4.1.7 0zM59.5 111.5c0-.2-.1-.3-.1-.4 0 .2-.1.5-.2.8-.1.9-.6 1.8-1.4 2.8-.3.3-.7.7-1.4 1.3-1.6.6-3.1.5-4.3-.4-.3-.2-.4-.5-.4-1 0-.2 0-.3-.1-.5 0 .3-.1.5-.2.7.2.2.2.5.3.9 0 .4.2.8.4 1 1.3.9 2.7 1 4.3.4.6-.6 1.1-1 1.4-1.3.8-.9 1.3-1.8 1.4-2.8.1-.6.2-1.1.3-1.5zM63.3 120.6c-.1.1-.4.3-.8.4-.4.2-.7.3-.9.5-.3.1-.7.1-1.2.2v-.1c-.9 0-1.5-.2-1.9-.6-.1-.1-.2-.2-.3-.4-.1-.1-.1-.2-.1-.4v.1c0 .3 0 .5-.1.7 0 .4.1.6.2.7.1.1.2.2.3.4.4.4 1 .6 1.9.6v.1c.5-.1 1-.1 1.2-.2.2-.2.5-.3.9-.5s.7-.3.8-.4c1.4-1.4 2.1-3.2 1.9-5.4-.1 1.8-.7 3.2-1.9 4.3zM72.8 117.6c-.5.6-1.5 1-2.9 1.3-.1 0-.4.1-1 .2-.4.1-.7 0-1-.1 0 0-.2-.1-.6-.5-.2-.2-.3-.4-.3-.5-.1-.2-.2-.4-.2-.5-.1.6-.1 1.2.2 1.7 0 .2.1.3.3.5.4.3.6.5.6.5.3.2.7.2 1 .1.6-.1.9-.2 1-.2 1.4-.3 2.4-.7 2.9-1.3.3-.3.6-1.1 1.1-2.3.1-.6.2-1 .2-1.3 0-.1-.1-.2-.1-.3 0 .1-.1.3-.1.4-.5 1.2-.9 2-1.1 2.3zM63.1 106.4c0 .1-.1.1 0 0v0zM62.2 100.9c0-.2-.1-.4-.1-.7-.1.2-.1.4-.1.6 0 .4.1.8.1 1.2.6.7.9 1.4 1 2.2.3-1.2-.1-2.3-.9-3.3zM69 110.1c-.5-.1-1.1-.1-1.8.1-.8.2-1.4.3-1.7.2-.5.1-1.3-.2-2.2-1 0-.1-.1-.3-.4-.8 0 0 0-.1-.1-.1-.1.2-.1.4 0 .5-.1.2-.1.5.1.8.2.4.4.7.4.8.9.8 1.7 1.1 2.2 1 .3 0 .9-.1 1.7-.2.7-.2 1.3-.2 1.8-.1.6-.3 1.4-.2 2.6 0 1.4 0 2.6-.6 3.7-1.8 0 0 0-.2.1-.5 0-.2 0-.4-.1-.5v-.1c-1.1 1.1-2.3 1.7-3.7 1.8-1.2-.4-2-.4-2.6-.1zM88.5 106.4c-.1 0 0 0 0 0-.1 0 0 0 0 0zM97.1 113.3c-1 .7-2.2.8-3.4.3-.5-.5-.9-.8-1.1-1.1-.7-.7-1-1.5-1.1-2.2 0-.2-.1-.3-.1-.5-.1.1-.1.3-.1.4 0 .3.1.7.2 1.2.1.7.4 1.5 1.1 2.2l1.1 1.1c1.3.5 2.4.4 3.4-.3.2-.2.3-.4.3-.8 0-.3.1-.6.2-.7-.1-.1-.2-.4-.2-.7v.3c.1.4-.1.7-.3.8zM88.3 104.4c.1-.6.3-1.1.7-1.5 0-.3.1-.6.1-1 0-.2 0-.4-.1-.5v.3c-.6.8-.8 1.7-.7 2.7zM85.1 115.7c-.3.3-.5.4-.4.4-.2.1-.5.2-.8.1-.5-.1-.7-.1-.8-.1-1.1-.2-1.9-.6-2.3-1.1-.2-.2-.5-.8-.9-1.8v-.2c0 .1-.1.2-.1.3 0 .2 0 .6.2 1 .4 1 .7 1.6.9 1.8.4.5 1.2.8 2.3 1.1 0 0 .3.1.8.1.3.1.6 0 .8-.1l.4-.4c.2-.1.2-.3.2-.4.2-.5.3-1 .1-1.5 0 .1-.1.2-.1.4-.1.1-.2.2-.3.4zM92.1 117.7c-.3.3-.8.4-1.5.5v.1c-.4-.1-.8-.1-1-.2-.1-.1-.4-.3-.7-.4-.3-.1-.5-.2-.6-.4-.9-.9-1.4-1.9-1.5-3.2-.1 1.8.4 3.2 1.5 4.3.1.1.3.2.6.4.3.1.6.3.7.4.2 0 .5.1 1 .2v-.1c.7 0 1.2-.2 1.5-.5.1-.1.2-.2.2-.3.1-.1.1-.3.2-.6 0-.1-.1-.3 0-.5v-.3c0 .1-.1.2-.1.2-.1.2-.2.3-.3.4zM88.2 109.6c0-.1.1-.3.3-.6.2-.2.2-.4.1-.6.1-.1 0-.3-.1-.6-.2.3-.3.5-.3.6-.7.6-1.3.9-1.7.8-.2 0-.7 0-1.3-.2-.6-.1-1-.2-1.4-.1-.4-.2-1.1-.2-2.1 0-1 0-2-.5-2.8-1.4 0 .1-.1.2-.1.3-.1.1-.1.3-.1.4 0 .3.1.4.1.4.9.9 1.8 1.4 2.9 1.4.9-.2 1.6-.2 2.1 0 .4-.1.8-.1 1.4.1.6.1 1.1.2 1.3.2.4.2 1 0 1.7-.7zM94 107.8c.2.1.4.2.6.1.1.1.2.2.3.2.7 0 1.3-.1 1.6-.3.1-.1.2-.3.3-.6.1-.3.2-.5.4-.6.1-.1.1-.3-.1-.5-.1-.1-.1-.2-.2-.2 0 .1 0 .1-.1.2-.1.3-.2.5-.3.6-.5.2-1.4.3-2.6.2-.4-.1-.7-.2-1.1-.3-.4-.1-.8-.3-1-.5-.3-.1-.7-.4-1.1-.8-.3-.3-.5-.6-.7-.9l-.1.9c.2.4.5.8.8 1.2.4.4.7.7 1.1.8.2.2.5.3.8.4.3-.1.5-.2.9-.2.1.1.3.1.5.3z"/><path fill="#FFF" d="M91.3 43.7c0 .2.1.3.1.5.1.3.3.5.5.8.5.4 1.2.7 2.2.8.2 0 .4 0 .7-.2.3-.2.5-.2.7-.2.2-.2.4-.3.6-.4v-.2h.1l1.7-1.7c.6-.7 1-1.3 1.2-1.8v-.2c0-.3.1-.5.2-.7-.2-.2-.2-.5-.3-.9 0-.4-.2-.8-.4-1-1.3-.9-2.7-1-4.3-.4-.6.6-1.1 1-1.4 1.3-.8.9-1.3 1.8-1.4 2.8 0 .6-.1 1.1-.2 1.5zM86.5 39.8c.4.3.8.5 1.1.5.1.1.1 0 .2 0l.2-.2c.1 0 .1 0 .2.1l.1-.1c.2.1.5-.1.9-.5.5-.4.8-.7 1-.7-.1.1.4-.4 1.4-1.5.6-.6 1-1.2 1.1-1.7.1-.2.1-.4.2-.6V35c0-.3 0-.5.1-.7 0-.4-.1-.6-.2-.7-.1-.1-.2-.2-.3-.4-.4-.4-1-.6-1.9-.6v-.1c-.5.1-1 .1-1.2.2-.2.2-.5.3-.9.5s-.7.3-.8.4c-1.4 1.4-2.1 3.2-1.9 5.4.5.6.8.9.7.8zM78.3 50.2c.8.1 1.4.4 1.9.8.3.3.5.5.6.9 1.1.9 2 1.5 2.5 2 .1.5.4 1.1 1 1.6.1.1.6.5 1.6 1.2.2-.1.4-.1.7 0 .3.1.6.1.7 0 0 0 .2-.2.4-.5.2-.2.3-.3.5-.2l-.1-.2c.1 0 .2.1.2.1l-.1-.1c0-.1.1-.2.1-.2.1 0 .2.1.2.1l-.1-.1c.1-.2.2-.3.3-.5.1-.2.1-.4.1-.6 0-.4-.1-.8-.1-1.2-.6-.7-.9-1.4-1-2.2-.1-.6 0-1.2.1-1.8-.1-.1-.1-.3 0-.4v-.3-.6c-.1-.2-.1-.5.1-.8 0-.1.1-.2.1-.3.1-.2.1-.4 0-.5.1-.2.1-.5-.1-.8-.2-.4-.4-.7-.4-.8-.9-.8-1.7-1.1-2.2-1-.3 0-.9.1-1.7.2-.7.2-1.3.2-1.8.1-.6.3-1.4.2-2.6 0-1.4 0-2.6.6-3.7 1.8 0 0 0 .2-.1.5 0 .2 0 .4.1.5v.1c.2 1 .7 1.9 1.4 2.5.5.3.9.6 1.4.7zM93.6 46.8c-.1 0-.2 0-.3.1-.5.1-1 .4-1.3.6-.4.1-.9.5-1.3 1s-.8 1-1 1.5l.1.9.1.8c.1.3.2.5.4.7.2.2.6.3 1.1.4.6.1 1 .1 1.2.2.6-.1 1.1-.1 1.4-.2.2.1.4.1.6-.1.3-.2.5-.3.6-.4.2.1.4 0 .6-.2.3-.3.4-.5.5-.5.2 0 .4 0 .7-.3.4-.3.5-.4.6-.4h.2c.2-.6.4-1 .6-1.3-.1-.1 0-.2.1-.4 0-.1.1-.1.2-.2.2-.3.3-.5.1-.6-.2-.1-.4-.4-.4-.7-.1-.3-.2-.6-.4-.7-.5-.2-1.4-.3-2.4-.3h-.9c-.4-.1-.8 0-1.1.1zM77.8 42c.3 0 .6 0 .9.1.3 0 .6 0 .8-.2.2.1.5.1.8-.1.2-.1.5-.2.7-.4 0-.1.1-.2.2-.3.1-.1.3-.1.6-.1.3.1.5 0 .6-.2 0-.3.1-.6.3-.7.2 0 .3 0 .4-.1 0-.1.1-.2.1-.4s.1-.4.2-.5c.2-.2.3-.3.1-.6.2-.3.2-.6.3-.9.1-.6.1-1.2-.2-1.7 0-.2-.1-.4-.3-.5-.4-.3-.6-.5-.6-.5-.3-.2-.7-.2-1-.1-.6.1-.9.2-1 .2-1.4.3-2.4.7-2.9 1.3-.3.3-.6 1.1-1.1 2.3-.1.6-.2 1-.2 1.3 0 .1.1.2.1.3.4.9.8 1.5 1.2 1.8zM62.6 45.6c0 .1-.1.3-.3.6-.2.2-.2.4-.1.6-.1.1 0 .3.1.6v.1c.1.3.1.5.1.7.1.1 0 .4 0 .7.1.1.1.2 0 .3.1.6.2 1.1.1 1.6-.1.6-.3 1.1-.7 1.5 0 .3-.1.6-.1 1 0 .2 0 .4.1.5 0 .1.1.2.2.4l-.1.1.1-.1s.1.1.1.2l-.1.1s.1-.1.2-.1l-.1.1c.1 0 .2 0 .4.2.2.3.4.4.4.4.1.1.3.1.6 0s.4-.1.6 0c.7-.5 1.2-.8 1.2-.9.4-.4.7-.8.8-1.2.5-.3 1.1-.8 2-1.5.1-.3.2-.5.5-.7.3-.3.8-.5 1.5-.6.4-.1.8-.3 1.1-.6.5-.5.9-1.1 1.1-1.8 0-.1.1-.2.1-.3.1-.1.1-.3.1-.4 0-.3-.1-.4-.1-.4-.9-.9-1.8-1.4-2.9-1.4-.9.2-1.6.2-2.1 0-.4.1-.8.1-1.4-.1-.6-.1-1.1-.2-1.3-.2-.8-.3-1.4 0-2.1.6zM56.9 47.1h-1c-.7 0-1.2.1-1.6.3-.1.1-.2.3-.3.6-.1.3-.2.5-.3.6-.1.1-.1.3.1.5.1.1.1.2.2.2 0 .1.1.1 0 .2.2.2.3.6.5 1.1h.2s.2.1.4.3c.2.2.4.2.5.2.1 0 .2.2.4.4s.3.2.4.2c.1 0 .2.1.5.3.2.1.3.2.5.1.3 0 .7.1 1.1.2.1-.1.4-.1.9-.2.4 0 .7-.1.9-.3.2-.1.3-.3.3-.6l.1-.4.1-.9c-.2-.4-.5-.8-.8-1.2-.4-.4-.7-.7-1.1-.8-.2-.2-.5-.3-.8-.4-.1 0-.1-.1-.2-.1-.3-.1-.7-.2-1-.3zM65.7 41.3c.1.1.1.2.2.4 0 .2.1.3.1.3.1.1.2.1.3.1.1.1.2.3.2.6.1.2.3.2.5.1s.4 0 .5 0c0 .1.1.1.1.2l.6.3c.2.1.4.1.6.1.2.1.4.1.6.1.3 0 .5 0 .7-.1.3-.3.6-.6.8-1.2 0-.1.1-.2.1-.3 0-.2 0-.6-.2-1-.4-1-.7-1.6-.9-1.8-.4-.5-1.2-.8-2.3-1.1 0 0-.3-.1-.8-.1-.3-.1-.6 0-.8.1l-.4.4c-.2.1-.2.3-.2.4-.2.5-.3 1-.1 1.5.1.2.1.4.2.6 0 .2 0 .3.2.4zM59.3 39.7c.8.9 1.2 1.3 1.1 1.2.2 0 .4.2.8.6.3.3.6.4.7.4l.1.1c.1-.1.1-.1.2-.1 0 0 0 .1.1.1.1.1.1.1.2 0 .3 0 .5-.1.9-.4l.7-.7c.1-1.8-.4-3.2-1.5-4.3-.1-.1-.3-.2-.6-.4-.3-.1-.6-.3-.7-.4-.2 0-.5-.1-1-.2v.1c-.7 0-1.2.2-1.5.5-.1.1-.2.2-.2.3-.1.1-.1.3-.2.6 0 .1.1.3 0 .5v.3c0 .1.1.2.1.3 0 .6.3 1 .8 1.5zM54.2 44.3c.1.2.6.6 1.3 1.3h.1v.2c.2.1.4.2.5.3.1 0 .3 0 .6.1.2.1.4.2.5.2.8-.1 1.3-.3 1.7-.6.2-.2.3-.3.4-.5.1-.1.1-.3.1-.4 0-.3-.1-.7-.2-1.2-.1-.7-.4-1.5-1.1-2.2L57 40.4c-1.3-.5-2.4-.4-3.4.3-.2.2-.3.4-.3.8 0 .3-.1.6-.2.7.1.1.2.4.2.7.1.4.4.9.9 1.4zM65.2 115.2c-.8-.7-1.1-1-.9-.9-.4-.3-.8-.5-1.1-.5H63l-.2.2c-.1 0-.1 0-.2-.1l-.1.1c-.2-.1-.5.1-.9.5-.5.4-.8.7-1 .7.1-.1-.4.4-1.4 1.5-.6.6-1 1.2-1.1 1.7-.1.2-.2.4-.2.8 0 .3 0 .5-.1.7 0 .1 0 .2.1.4 0 .2.1.3.1.4.1.1.2.2.3.4.4.4 1 .6 1.9.6v.1c.5-.1 1-.1 1.2-.2.2-.2.5-.3.9-.5s.7-.3.8-.4c1.2-1.1 1.8-2.6 1.9-4.3.2-.4.2-.8.2-1.2zM75.4 107.8c0-.2 0-.4-.1-.5-.2-1.1-.7-2-1.5-2.6-.4-.4-.9-.6-1.4-.7-.8-.1-1.4-.4-1.9-.8-.3-.3-.5-.5-.6-.9-1.1-.9-2-1.5-2.5-2-.1-.5-.4-1.1-1-1.6-.1-.1-.6-.5-1.6-1.2-.2.1-.4.1-.7 0-.3-.1-.6-.1-.7 0 0 0-.2.2-.4.5-.2.2-.3.3-.5.2l.1.2c-.1 0-.2-.1-.2-.1l.1.1c0 .1-.1.2-.1.2-.1 0-.2-.1-.2-.1l.1.1c-.3.3-.4.7-.4 1.1 0 .2 0 .4.1.5 0 .2.1.5.1.7.8 1 1.1 2.1 1 3.3 0 .2-.1.4-.1.7.2.2.1.3-.1.4.1.4.1.7 0 .9v.5c0 .1 0 .2-.1.3-.1.4-.2.6-.1.8-.1.2-.1.4 0 .6 0 0 0 .1.1.1.2.4.4.7.4.8.9.8 1.7 1.1 2.2 1 .3 0 .9-.1 1.7-.2.7-.2 1.3-.2 1.8-.1.6-.3 1.4-.2 2.6 0 1.3 0 2.6-.6 3.7-1.8.1.1.1-.1.2-.4zM72.9 112.1c-.3 0-.6 0-.9-.1-.3 0-.6 0-.8.2-.2-.1-.5-.1-.8.1-.2.1-.5.2-.7.4 0 .1-.1.2-.2.3-.1.1-.3.1-.6.1-.3-.1-.5 0-.6.2 0 .3-.1.6-.3.7-.2 0-.3 0-.4.1 0 .1-.1.2-.1.4s-.1.4-.2.5c-.2.2-.3.3-.1.6-.4.8-.5 1.4-.3 2.1 0 .2.1.4.2.5 0 .2.1.4.3.5.4.3.6.5.6.5.3.2.7.2 1 .1.6-.1.9-.2 1-.2 1.4-.3 2.4-.7 2.9-1.3.3-.3.6-1.1 1.1-2.3 0-.2.1-.3.1-.4.1-.4.1-.7.1-.9-.4-1.1-.7-1.7-1.3-2.1zM52.1 115.6c1.3.9 2.7 1 4.3.4.6-.6 1.1-1 1.4-1.3.8-.9 1.3-1.8 1.4-2.8.1-.3.1-.6.2-.8.1-.3.1-.5.1-.7-.1-.5-.3-.9-.6-1.2-.4-.3-.9-.6-1.6-.7-.2 0-.4-.1-.6-.1-.2 0-.4 0-.7.2-.3.2-.5.2-.7.2-.2.2-.4.3-.6.4v.2h-.1l-1.7 1.7c-.6.7-1 1.3-1.2 1.8 0 .4-.1.7-.2.9.1.1.1.3.2.5 0 .1.1.3.1.5-.1.3 0 .6.3.8zM52.8 107.3c.7.3 1.8.4 3.3.3.5-.1.9-.2 1.4-.3.5-.1 1-.3 1.3-.6.4-.1.9-.5 1.3-1 .4-.4.6-.8.9-1.2 0-.1.1-.2.1-.3l-.3-1.7c-.1-.3-.2-.5-.4-.7-.2-.2-.6-.3-1.1-.4-.6-.1-1-.1-1.2-.2-.6.1-1.1.1-1.5.2-.2-.1-.4-.1-.6.1-.3.2-.5.3-.6.4-.2-.1-.4 0-.6.2-.3.3-.4.5-.5.5-.2 0-.4 0-.7.3-.4.3-.5.4-.6.4h-.2c-.2.6-.4 1-.6 1.3.1.1 0 .3-.3.6-.2.3-.3.5-.1.6l.3.3c.1.1.1.2.1.4.3.4.4.6.6.8zM92.4 116.3c0-.3 0-.5-.1-.6-.1-.4-.4-.8-.9-1.3-.8-.9-1.2-1.3-1.1-1.2-.2 0-.4-.2-.8-.6-.3-.3-.6-.4-.7-.4l-.1-.1c-.1.1-.1.1-.2.1 0 0 0-.1-.1-.1-.1-.1-.1-.1-.2 0-.3 0-.5.1-.9.4.1-.1-.1.2-.7.7v1.1c.1 1.3.6 2.3 1.5 3.2.1.1.3.2.6.4.3.1.6.3.7.4.2 0 .5.1 1 .2v-.1c.7 0 1.2-.2 1.5-.5.1-.1.2-.2.2-.3 0-.1.1-.1.1-.2s0-.2.1-.4c.1-.3.1-.5.1-.7zM97.5 111.1c-.1-.4-.4-.9-.9-1.4-.1-.2-.6-.6-1.3-1.3h-.1v-.2c-.1 0-.1-.1-.2-.1-.1-.1-.2-.1-.3-.2-.1 0-.3 0-.6-.1-.2-.1-.4-.2-.5-.2-.3 0-.6.1-.9.2-.3.1-.6.3-.8.5-.3.3-.5.6-.5 1 0 .2.1.4.1.7 0 .1.1.3.1.5.1.7.4 1.5 1.1 2.2l1.1 1.1c1.3.5 2.4.4 3.4-.3.2-.2.3-.4.3-.8v-.3c0-.2.1-.4.2-.5-.1-.2-.2-.4-.2-.8zM85.2 113.2c.1-.2.1-.3-.1-.4-.1-.1-.1-.2-.2-.4 0-.2-.1-.3-.1-.3-.1-.1-.2-.1-.3-.1-.1-.1-.2-.3-.2-.6-.1-.2-.3-.2-.5-.1s-.4 0-.5 0c0-.1-.1-.1-.1-.2l-.6-.3c-.2-.1-.4-.1-.6-.1-.2-.1-.4-.1-.6-.1-.3 0-.5 0-.7.1-.4.3-.7.8-.9 1.5 0 .2 0 .5.1.8v.2c.4 1 .7 1.6.9 1.8.4.5 1.2.8 2.3 1.1 0 0 .3.1.8.1.3.1.6 0 .8-.1l.4-.4c.2-.1.2-.3.2-.4.1-.1.1-.2.1-.4.2-.5.1-1.1-.2-1.7zM83.7 109c.4-.1.8-.1 1.4.1.6.1 1.1.2 1.3.2.4.1 1-.2 1.7-.8 0-.1.1-.3.3-.6.1-.2.2-.4.1-.6.1-.1 0-.3-.1-.6 0-.1 0-.1-.1-.2v-.1-.4c-.1-.1-.1-.4 0-.7-.1-.1-.2-.2 0-.3 0-.2 0-.3-.1-.5-.1-1 .1-1.9.7-2.7v-.3c0-.2 0-.4.1-.6 0-.3-.1-.6-.3-.9l.1-.1-.1.1s-.1-.1-.1-.2l.1-.1s-.1.1-.2.1l.1-.1c-.1 0-.2 0-.4-.2-.2-.3-.4-.4-.4-.4-.1-.1-.3-.1-.6 0s-.4.1-.6 0c-.7.5-1.2.8-1.2.9-.4.4-.7.8-.8 1.2-.5.3-1.1.8-2 1.5-.1.3-.2.5-.5.7-.3.3-.8.5-1.5.6-.4.1-.8.3-1.1.6-.6.5-1 1.2-1.1 2.1-.1.1-.1.3-.1.4 0 .3.1.4.1.4l.1.1c.8.9 1.8 1.3 2.8 1.4 1.3-.2 2-.2 2.4 0zM91.8 106.2c.3.2.6.4 1 .5.4.1.7.2 1.1.3 1.2.1 2.1 0 2.6-.2.1-.1.2-.3.3-.6 0-.1 0-.1.1-.2.1-.2.2-.3.3-.4.1-.1.1-.3-.1-.5s-.3-.3-.2-.4c-.2-.2-.3-.6-.5-1.1h-.1-.1s-.2-.1-.4-.3c-.2-.2-.4-.2-.5-.2-.1 0-.2-.2-.4-.4s-.3-.2-.4-.2c-.1 0-.2-.1-.5-.3-.2-.1-.3-.2-.5-.1-.3 0-.7-.1-1.1-.2-.1.1-.4.1-.9.2-.4 0-.7.1-.9.3-.2.1-.3.3-.3.6l-.2 1.3c0 .1.1.2.1.2.2.3.4.6.7.9.2.5.6.7.9.8z"/></svg>