<svg xmlns:xlink="http://www.w3.org/1999/xlink"  version="1" xmlns="http://www.w3.org/2000/svg" viewBox="0 0 150 150"><path fill="#FAAF40" d="M138.4 100.3l7.1-1.3-14.5-1c0 .6.1 1.2.1 1.7-.2-4.3-1-8.6-2.1-12.8 0 .2.1.3.2.5l13.2-6-14.3 2.6c.1.2.1.3.2.5-1.2-3.6-2.8-7-4.7-10.3v.1l11.2-9.1-13.1 6.1c-2-3-4.2-5.8-6.7-8.4l8.6-11.6-11.1 9.1c-2.6-2.4-5.5-4.6-8.7-6.5l5.4-13.3-8.5 11.5c-2.8-1.5-5.8-2.8-8.9-3.8-.4-.1-.8-.2-1.1-.3l1.9-14.1-5.3 13.2c-3.6-.8-7.2-1.3-10.7-1.5L75 31.5l-1.9 14.1c-3.7.1-7.3.5-10.8 1.2l-5.1-13.2 1.7 14c-3.5 1-6.9 2.3-10.1 3.9L40.6 40l5.1 13.1c-3.1 1.8-6.1 3.9-8.9 6.3l-10.7-9.1L34.4 62c-2.6 2.5-4.9 5.3-7 8.3l-12.6-6.1 10.8 9c-1.9 3.1-3.4 6.4-4.7 9.8L7 80.3l12.7 6.1c-1.1 3.6-1.8 7.1-2.1 10.7l-14 .7 12.6 2.5h7.5c.2-4.4 1-8.9 2.4-13.3C34.8 60.4 63.4 45.9 90 54.6c1.8.6 3.5 1.2 5.1 2l1.2.6c16.9 8.1 27.7 24.9 28.6 43.1h13.5z"/><path fill="#423F3B" d="M103.7 104l-1-1h-.1l-3.8-3.9-1.6 1.6 2.3 2.3h-2l-3.9-3.9-1.5 1.6 2.2 2.3H52.4v-2.8h-2.2v2.8h-1v-2.8H47v2.8h-1.2v2.2H47v2.7h2.2v-2.7h1v2.7h2.2v-2.7h42.2l-2.5 2.5 1.5 1.6 4.1-4.1h2l-2.5 2.5 1.6 1.6 4.9-4.9-.2-.2z"/><path fill-rule="evenodd" clip-rule="evenodd" fill="#B0508C" d="M53.9 85.8c-2 3 0 7.2.9 9.8-2.9-2.3-4.3-7.8-3.8-11.9-3 4-.8 11.2 1.4 14-5-1.8-5.6-12.8-2.6-19-.5-1.1-2.9 1.2-3 .6.3-7.8 13.1-7.7 17.1-3.1 3.3-2 5.5 2.9 8.6.9 4.7-3 6.9-12.7 15.4-11.9-1.1-.9-2.2-3.4-.5-4.6 4.2.3 5.9 3.8 5.9 7.9-.3-.3-.8-.5-1.5-.5.1.9.5 1.4.2 2.6-1.1.5-1.6 1.7-3.5 1.3 0 .5 0 1.1-.4 1.1 2.4 12.1-6.9 14.9-11.8 21.1.9 2.6 4.3 3 3.7 7-.6-.4-.6-1.4-1-1.9-.7.4-.4 1.9-.9 2.6-1.5-1.4 0-4.2-2-4.6-1 .4-.9 2-1 3.3 1.7 1.2 1.8 2.2 4.7 2.5-.9 1.1-4.8-1.2-3.9 2-1.2-.4-1.7-3.2-3.3-2.1-.6-3 2.1-4.9.8-7.5-.7-1.4-2.6-1.4-4-2.5-2.1-1.6-3.1-4.5-5.4-4.8-.9.1-1.8.1-1.6 1.4-1.1-.1-1.4-.9-2.2-1.3-1.2 0-.9 1.9-.1 2.2-2.1.3-5.1-2.3-6.2-4.6z"/></svg>