<svg xmlns:xlink="http://www.w3.org/1999/xlink"  xmlns="http://www.w3.org/2000/svg" viewBox="0 0 150 150"><path fill="#ACB165" d="M17.6 69.2c-2.9-2.4-5.1-5.6-6-9.3 0-.1-.1-.3-.1-.4-1.2 4.9-1.8 10-1.8 15.3 0 10 2.3 19.5 6.3 28-.6-1.4-1-3-1.4-4.5-2.3-9.4-1.1-19.5 3-29.1zM74.9 9.5C51.7 9.5 31.3 21.7 19.7 40c2.5-1.9 5.5-3.3 8.8-4.1 6.2-1.5 12.3-.6 17.1 2.1 5.4-3.1 11.3-5.5 17.6-7 8.2-2 16.4-2.4 24.2-1.5 3-3 7-5.4 11.6-6.5 12-3 23.7 3 26.2 13.4.8 3.4.5 6.9-.6 10.1 6.4 6.2 11.1 13.6 13 21.7 6.4 26.1-17.2 49-51.2 57.4-27 6.6-52.3 2-64.9-13.2C33.4 129 52.9 140 74.9 140c36 0 65.2-29.2 65.2-65.2S111 9.5 74.9 9.5z"/><path fill="#434345" d="M17.6 69.2c5.2-12.3 15-23.7 28.1-31.2-4.8-2.7-10.9-3.6-17.1-2.1-3.3.8-6.3 2.2-8.8 4.1-6.4 4.7-9.8 12.2-8.2 19.5 0 .1.1.3.1.4.8 3.7 3 6.9 5.9 9.3zM125.2 36.4C122.7 26 111 20 99.1 22.9a24.6 24.6 0 0 0-11.6 6.5c14.6 1.7 27.8 8 37.1 17 1.2-3.2 1.4-6.6.6-10z"/><path fill="#FFF6F3" d="M86.5 125.4c34-8.3 57.6-31.3 51.2-57.4-2-8.1-6.6-15.5-13-21.7-9.4-9-22.6-15.3-37.1-17-7.8-.9-16-.5-24.2 1.5-6.4 1.6-12.3 4-17.6 7C32.7 45.3 22.9 56.7 17.7 69c-4 9.6-5.3 19.7-3 29 .4 1.6.9 3.1 1.4 4.5 1.4 3.5 3.3 6.7 5.6 9.5 12.4 15.4 37.8 20 64.8 13.4zM95 55.2c10-2.5 19.9 2.6 22 11.3 2.1 8.7-4.3 17.7-14.3 20.2s-19.9-2.6-22-11.3C78.6 66.7 85 57.7 95 55.2zm-5.2 47s-4.9 15.7-16.5 4.5c0 0 9.1 3 16.5-4.5zM46.5 67.1c10-2.5 19.9 2.6 22 11.3 2.1 8.7-4.3 17.7-14.3 20.2s-19.9-2.6-22-11.3c-2.2-8.7 4.2-17.7 14.3-20.2z"/><path fill="#434345" d="M54.2 98.6c10-2.5 16.4-11.5 14.3-20.2-2.1-8.7-12-13.8-22-11.3S30.1 78.6 32.2 87.3c2.1 8.7 12 13.8 22 11.3zm-3.7-27.2C56.3 70 62 72.9 63.2 78c1.2 5-2.5 10.3-8.3 11.7-5.8 1.4-11.5-1.5-12.7-6.5-1.2-5.1 2.5-10.4 8.3-11.8z"/><path fill="#FFF" d="M55 89.6c5.8-1.4 9.5-6.7 8.3-11.7-1.2-5-6.9-8-12.7-6.6-5.8 1.4-9.5 6.7-8.3 11.7 1.1 5.1 6.9 8.1 12.7 6.6zm-6.6-8.1c1.3-.3 2.1-1.5 1.8-2.6-.1-.6-.6-1-1.1-1.3.7-.8 1.6-1.4 2.8-1.7 2.7-.7 5.3.7 5.9 3 .6 2.3-1.1 4.7-3.8 5.4-2.6.6-5.1-.6-5.8-2.8h.2z"/><path fill="#434345" d="M54 84.3c2.7-.7 4.4-3.1 3.8-5.4-.6-2.3-3.2-3.7-5.9-3-1.2.3-2.1.9-2.8 1.7.6.3 1 .7 1.1 1.3.3 1.1-.5 2.3-1.8 2.6h-.2c.7 2.2 3.2 3.4 5.8 2.8zM102.7 86.7c10-2.5 16.4-11.5 14.3-20.2-2.1-8.7-12-13.8-22-11.3S78.6 66.7 80.7 75.4c2.1 8.7 12 13.8 22 11.3zm-9.3-25.8c5.8-1.4 11.5 1.5 12.7 6.6 1.2 5-2.5 10.3-8.3 11.7-5.8 1.4-11.5-1.5-12.7-6.5-1.2-5.1 2.5-10.4 8.3-11.8z"/><path fill="#FFF" d="M97.9 79.1c5.8-1.4 9.5-6.7 8.3-11.7-1.2-5-6.9-8-12.7-6.6-5.8 1.4-9.5 6.7-8.3 11.7 1.2 5.1 6.9 8.1 12.7 6.6zm-6.7-7.8c1.3-.3 2.1-1.5 1.8-2.6-.2-.7-.7-1.2-1.4-1.4.7-.7 1.6-1.2 2.6-1.5 2.7-.7 5.3.7 5.9 3 .6 2.3-1.1 4.7-3.8 5.4-2.6.6-5.1-.6-5.8-2.8.3-.1.5-.1.7-.1z"/><path fill="#434345" d="M96.3 74.1c2.7-.7 4.4-3.1 3.8-5.4-.6-2.3-3.2-3.7-5.9-3-1.1.3-2 .8-2.6 1.5.7.2 1.3.7 1.4 1.4.3 1.1-.5 2.3-1.8 2.6-.2.1-.5.1-.7.1.7 2.2 3.2 3.5 5.8 2.8zM89.8 102.2c-7.4 7.5-16.5 4.5-16.5 4.5 11.5 11.2 16.5-4.5 16.5-4.5z"/></svg>