<svg xmlns:xlink="http://www.w3.org/1999/xlink"  version="1" xmlns="http://www.w3.org/2000/svg" viewBox="0 0 150 150"><path fill="#59B4E5" d="M110 88.8l24.3 7.7.3-.9c2.1-6.3 3.2-12.9 3.2-19.9 0-6.6-1-13-2.9-18.9h-1c-7.8 0-15.1 2.7-20.9 7.3-.5.4-4.9 4.4-5.3 4.8-1.9 2-7 8.6-10.9 13.9 2.3 2.3 9.1 3.5 13.2 6z"/><g fill="#5FA7DC"><path d="M78.1 66.3l14.2-24.6c.5.2 1 .4 1.4.8 2.7 1.8 4.1 4.8 3.9 7.9 1.8-3.1-1.3-7.9-4.6-10-.5-.3-1-.5-1.4-.8l-7.4 12.8-6.1 13.9zM97.1 58c-.4-.3-.6-.7-.9-.9l-4 3.6-4.2 6.5 8.9-8c.3.3.7.6.9.9 1.4 1.7 1.8 3.9 1.4 5.9 1.8-2 1.2-5.2-2.1-8zM88.2 108.1l2.5 7.7-.9.3c.6 0 1.1-.1 1.7-.2.4-.1.8-.3 1.2-.5l-1.2-3.7-3.3-3.6zM96.9 106.3l8.5 8.5c-.3.4-.6.7-.9 1-.7.7-1.6 1.2-2.5 1.5 1.6 0 3.2-.6 4.5-1.8.3-.3.6-.6.9-1l-5-4.9-5.5-3.3zM97.3 96.4l25.3 12.7c-.2.5-.4 1-.7 1.5-1.1 2-2.9 3.3-4.9 4 2.8-.1 5.5-1.7 7-4.3.3-.5.5-1 .7-1.5l-16.7-8.4-10.7-4zM99 84.3c.1 0 .1-.1 0 0 4.1-6.3 12.7-19.7 13.6-19.6.1-.2.3-.4.4-.6-.5.4-4.9 4.4-5.3 4.8-2 2-7.4 9.1-11.4 14.6-.2.3-.4.6-.6.8l.4.1 2.3.7 35.8 11.4 2.9.9c-.1.7-.3 1.4-.5 2-1.2 3.1-3.6 5.4-6.5 6.4-.3.1-.5.2-.8.2.2 0 .5 0 .7-.1 3.8-.5 7.2-3.1 8.7-7 .2-.7.4-1.3.5-2l-4.7-1.5L99 84.3zM140.8 37.3c-.1-1.1-.1-2.2 0-3.2-1.9.8-3.8 1.6-5.6 2.6-2.6 1.4-5.1 3-7.4 4.7-1.2.9-2.4 1.8-3.6 2.8-4.7 3-8.8 7.2-12.9 11.4-.6.6-1.2 1.3-1.8 1.9 3.7-3.4 7.6-6.6 11.8-9 2.5-1.9 5.1-3.5 7.9-5l3.6-1.8c1.8-.8 3.8-1.6 5.7-2.2-.1 1.1-.2 2.1-.2 3.2 0 2.9.4 5.7 1.1 8.4.2-5.7 1.7-8.8 1.4-13.8zM66.3 107.1c1.1 0 2.2-.1 3.3-.3 3.1-.5 6.2-1.6 9.2-3.1l-.5-1.8c-3.8 2.4-7.9 4.3-12 5.2zM47.1 65.6c-.3-.2-.7-.4-1.2-.4-.7 0-1.3.4-1.7.9-.2.3-.3.7-.3 1 0 1.1.9 2 2 2 1 0 1.8-.8 2-1.7v-.3c0-.5-.2-1-.5-1.3-.1 0-.2-.1-.3-.2z"/><path d="M101.7 64.7c.4-.4.8-.7 1.2-1.1-.1-.1.6-.4.5-.5-1.2 1-3.1 2.2-4.3 3.2-.2.2-.5.4-.7.6C97 68 95.5 69.1 94 70c-.8.5-1.5.9-2.3 1.4-.1 0-.2.1-.2.1-4.9 2.7-10 4.1-15 3.4-3.7-.5-7.4-2.3-10.8-5.6l-.4-.4 16.3-42.5c.7.1 1.3.4 2 .7 2.6 1.1 4.5 3.2 5.6 5.6-.7-3.3-2.9-6.3-6.3-7.7-.7-.3-1.3-.5-2-.6L64.1 67.8c-.6-.7-1.3-1.5-1.9-2.3-5.8-7.9-14.5-12.7-22.5-4.2-.3.3-.6.7-1 1.1v.2c7.5-6.2 15.4-1.6 20.8 5.8 1.1 1.5 2.2 2.7 3.3 3.9v.1c.3.3.6.5.8.8 3.2 2.9 6.6 4.4 10 4.9 4.7.7 9.6-.7 14.3-3.1.2-.1.4-.2.7-.3h.1c.6-.3 1.2-.7 1.8-1.1.2-.1.5-.3.8-.4 1.5-.9 3-2 4.4-3.1 1-.8 2-1.6 3-2.5 1.1-1.1 2-2 3-2.9z"/></g><g fill="#58AFB6"><path d="M102.9 63.6l.2-.2-.1.1-.1.1z"/><path d="M122.7 105.9l-14.7-5.5 16.7 8.4c-.2.5-.4 1-.7 1.5-1.5 2.6-4.2 4.2-7 4.3-2.2.7-4.6.5-6.7-.7l-7.9-4.4 5 4.9c-.3.4-.5.7-.9 1-1.3 1.2-2.9 1.8-4.5 1.8-2.5.9-5.4.2-7.3-1.9l-3.2-3.5 1.2 3.7c-.4.2-.8.4-1.2.5-.6.2-1.1.2-1.7.2-.1 0-.2.1-.4.1-3.7 1-7.5-1.2-8.5-4.9l-2.1-7.8c-3 1.5-6.1 2.6-9.2 3.1-1.1.2-2.2.3-3.3.3-1.1.3-2.3.5-3.4.6-2.8.3-5.7 0-8.4-.8-3.3-1-6.5-2.8-9.5-5.7-6.4-6.2-7.6-18.5-8.5-26.9-.8-.8-1.6-1.7-2-2-1-.8-2.8-2.3-4.4-2.4-1.6-.1-8.6 0-10.6.3-1.9.2-1.7 0-1.7 0s-.1-.4 1-.7 9.8-1 10.3-.9c.5.1 2.9-.8 2.9-.8s3-1.3 4.1-2.4c.3-.4.6-.7 1-1.1.6-.6 1.1-1.1 1.7-1.6v-.2c.3-.4.6-.7 1-1.1 8-8.5 16.7-3.7 22.5 4.2.6.8 1.2 1.6 1.9 2.3l16.7-43.5c.7.1 1.3.4 2 .6 3.3 1.5 5.6 4.4 6.3 7.7 1.2 2.7 1.3 5.8 0 8.7l-4.8 10.9 7.4-12.8c.5.2 1 .4 1.4.8 3.2 2.1 6.4 6.9 4.6 10-.1 1.3-.5 2.7-1.3 3.9l-4.2 6.5 4-3.6c.3.3.6.7.9.9 3.3 2.7 3.8 5.9 2.1 8 0 .1-.1.2-.1.4 1.1-.8 2.6-1.9 3.8-2.8l.1-.1.3-.3c1.4-1.3 2.9-2.7 4.3-4 .6-.5 1.2-1.1 1.8-1.6.6-.6 1.2-1.3 1.8-1.9 4.1-4.3 8.2-8.4 12.9-11.4 1.2-1 2.4-1.9 3.6-2.8C116.4 23.7 96.6 12 74 12c-35.2 0-63.8 28.5-63.8 63.8s28.5 63.8 63.8 63.8c24.2 0 45.3-13.5 56.1-33.4-.2 0-.5 0-.7.1-2.1.5-4.4.4-6.7-.4z"/></g></svg>