<svg xmlns:xlink="http://www.w3.org/1999/xlink"  xmlns="http://www.w3.org/2000/svg" viewBox="0 0 150 150"><path fill="none" d="M76 16c1.8 0 3.3-1.5 3.3-3.3 0-1.8-1.5-3.3-3.3-3.3-1.1 0-2.1.5-2.7 1.4-.4.6-.6 1.2-.6 1.9 0 1.8 1.5 3.3 3.3 3.3z"/><path fill="#CCE8F6" d="M36 104.6l-.4.4 1.8.6c5.2 2.4 7.8 6.3 8.7 7.9 2.6.9 5.1 2.5 7 5 0 0 9.2-8 15.4-3.7 0 0 .5-5 3.3-10.3-14.7-6.4-26-5.4-33.8-2.6-.3.5-.6.9-.9 1.4-.3.5-.7.9-1.1 1.3zM30.5 113c.1.2.3.4.4.6h.2c-.2-.3-.4-.4-.6-.6zM68 89.4l-.2-1.4c-.3 0-.6-.1-.9-.1l-.5 1.2-1.2 5.4c1.1 0 2.1.4 3 .8l-.2-5h.1v-.9z"/><path fill="#CCE8F6" d="M125.3 93.8c0-.2.1-.4.1-.6-1.7.7-3.9.9-6.6 0 0 0-1-4.2 3.7-6.8 1.3-.7 2.6-1.2 3.7-1.4v-1.3c0-28.9-23.5-52.4-52.4-52.4S21.4 54.8 21.4 83.7c0 3 .3 6 .8 8.8v-.1c1.3-5.5 5.2-8 5.2-8s1.9 2.8 2.4 6.2c0 .1.1.2.1.3 0 .4.1.8.1 1.2v.5c-.1 1.5-.5 3.1-1.6 4.5 6.6-3.3 18.3-6.7 34.3-2.6l-.3-4.7-.2.1-.6-3.5c-5.8-2.1-10-5.5-12.5-8.2-8.1 18.3-18.9 13-17.2 6.3.1-.5.4-1 .6-1.5-5.1-.6-6.6-5.4-3.8-8.5.8-.9 2-1.5 3.3-1.8-5.9-3.2-4.7-9.2-.2-10.3 2.3-.6 4.8.5 7.1 2.2-4.5-8 1.3-12.7 5.8-10.2s4.3 11.9 3.9 16.8c1.1-1.4 2.2-2.6 3.3-3.9-1.1-1.1-1.4-1.9-1.4-1.9s7.8-10.7 16.6-12.2c7.3-5.2 13.7-7.3 18.7-7.2 0-5.6-3.8-3.7-3.8-3.7s-.4 1.4-1.3 1.3c-.9-.1-.7-4.4 3.9-2.7 3.6 1.3 3.5 4 3.2 5.2h.1c.6-.7 1.5-2.1 1-3.8-.7-2.4-1.7-2.4-1.7-2.4s.3-1.4 1.7-.7c1.3.6 4.2 2.9.1 7.2 3.9 1 6.7 3.5 8.2 7.1 1.8-1.2 4.8-3.1 5.3-2.6.6.6-3.5 3.8-4.6 4.7 0 .2.1.3.1.5 1.3 1 5.4 4.4 4.1 5.3-.8.5-2.3-.7-3.7-2.4v.3c.5 15.4-8.8 28.5-25.8 28.8L72 91l-.3-.5-1.1 5.2c2.5.1 4.4 1.5 5.3 3 2-2.2 4.6-4.1 8-5.4 5.7-2.3 10.4-1.4 14 .3.1-3 1.1-5 1.1-5s2.8 1.4 4.9 3.9c.4.5.8 1.1 1.2 1.8.8 1.6 1.1 3.5.6 5.7.3.4.5.7.5.7s1.8-3 8.4-3.5c1.3-1.7 2.1-3.4 2.2-5 .8-7.1-8.2-5.5-8.1-1.7.1 3.9-3.6-.4-2.1-2.3s11.1-5 11.8 2.8c.1 1.4-.2 3.2-1 5.2 1-.6 2.1-1.1 3.5-1.5 1.5-.5 3-.7 4.4-.9z"/><path fill="#CCE8F6" d="M70.1 96.9c.4.2.9.3 1.3.5-.5-.3-1-.5-1.5-.7l.2.2zM23.9 99.3c0 .1.1.3.1.4.1 0 .1-.1.2-.1l-.3-.3z"/><path fill="#FFF" d="M98.4 97.9c-.4-1.5-.6-3-.5-4.2-3.6-1.8-8.4-2.6-14-.3-3.3 1.3-5.9 3.2-8 5.4.1.2.2.3.3.5 12.1 4.3 21 4.9 27.3 3.8-1.3-.4-4-1.4-5.1-5.2zM108.9 119.1h-.3c-.5-.1-1.1-.2-1.6-.3-.1 0-.3-.1-.4-.1-.1 0-.2-.1-.3-.1-3.2-1-6.2-3.4-7.6-8.4-6.6 1-14.8-.1-25-4.8-.6-.3-1.2-.5-1.8-.8-2.8 5.4-3.3 10.3-3.3 10.3-6.2-4.3-15.4 3.7-15.4 3.7-1.9-2.6-4.4-4.1-7-5 .3.5.4.8.4.8s-4 1.9-8.5 1.7c-.1 0-.2.1-.4.1-.5 0-1.1-.2-1.6-.3-.1 0-.2-.1-.3-.1-.1 0-.3-.1-.4-.1-1.4-.4-2.9-1-4.2-2H31c9.5 13.6 25.2 22.6 43 22.6 15.2 0 29-6.6 38.6-17-1.2-.1-2.4-.1-3.7-.2zM112.3 104.4s0-.4.1-1c-1.7 1.6-3.7 3.1-6.1 4.3.9.2 1.8.5 2.7 1.1 3.4 1.8 5.6 4.3 6.9 6.2 1.9-2.5 3.6-5.3 5-8.1-2.6.1-5.4-.6-8.6-2.5zM106 100.7s-.2-.2-.5-.7c-.2.9-.6 1.8-1.1 2.7 4.8-1.1 8.1-3.2 10-5.6-6.6.6-8.4 3.6-8.4 3.6z"/><path fill="#A3B580" d="M28.1 97.3c.1 0 .2-.1.3-.1 1.1-1.4 1.5-3 1.6-4.5-.1 1.5-.6 3.1-1.9 4.6zM30 90.9zM29.9 90.6c-.5-3.4-2.4-6.2-2.4-6.2s-3.9 2.6-5.2 8v.1c.4 2.3.9 4.6 1.6 6.8l.3.3.9-.6 2.4-14.4c0 .1 1.9 2.7 2.4 6zM30 92.1v0z"/><path fill="#8BA261" d="M30 92.4v-.2c0-.4-.1-.8-.1-1.2 0-.1 0-.2-.1-.3-.5-3.3-2.4-5.9-2.4-5.9L25.1 99c.8-.5 1.9-1.1 3-1.7 1.3-1.5 1.8-3.1 1.9-4.7v-.2z"/><path fill="#FFBD79" d="M67.7 88s-.1 0 0 0v1.4V88z"/><path fill="#FFBD79" d="M70.6 95.7l1.1-5.2-.4-.7-1.7 1-.6-1.1-1.3.6.4 5c-.9-.5-1.9-.8-3-.8l1.2-5.4-.3 1.2v-.8l-1.7.8-.4-1.3-1.5.9.3 4.7v.3s3.3.7 4.7 2.5c1.3 1.8-.2 4.6-.2 4.6s1.4 1.6 3.3-.5c1-1.1.7-3.1-.5-4.6l-.2-.2c.5.2 1 .4 1.5.7.6.3 1.1.8 1.5 1.3 1.3 1.8-.2 4.6-.2 4.6s1.4 1.6 3.3-.5c.8-.9.8-2.3.2-3.6-.1-.2-.2-.3-.3-.5-.9-1.5-2.7-2.9-5.2-3z"/><path fill="#DDA2B3" d="M46.1 74.6l.9-1.2c-4-3.2-6.6-6.1-8-8.7-2.4-1.7-4.9-2.8-7.1-2.2-4.5 1.2-5.7 7.1.2 10.3 4.2-1 10.4.6 14 1.8z"/><path fill="#E6B7C4" d="M47.3 76.3c-.8-1-1.2-1.7-1.2-1.7-3.6-1.2-9.8-2.8-14.1-1.8-1.3.3-2.5.9-3.3 1.8-2.8 3.1-1.3 7.9 3.8 8.5C35 79 43 77 47.3 76.3zM47 73.4c.6-.7 1.1-1.4 1.7-2.1.4-4.9.7-14.3-3.9-16.8-4.6-2.6-10.3 2.1-5.8 10.2 1.4 2.6 4 5.5 8 8.7z"/><path fill="#DEA4B5" d="M47.3 76.3C43 77 35 79 32.5 83c-.3.5-.5 1-.6 1.5-1.7 6.6 9.2 11.9 17.2-6.2-.8-.7-1.3-1.4-1.8-2z"/><path fill="#A99382" d="M127.5 92c-.6.5-1.3.9-2 1.2 0 .2-.1.4-.1.6 2.5-.2 4.8 0 6.5.3.6-3.4 1-6.9 1-10.4 0-31.5-24.9-57.3-55.9-58.8v-4.3c4-.4 7-3.8 7-7.9 0-4.4-3.6-7.9-8-7.9-2.6 0-5 1.3-6.5 3.4l3.8 2.7c.6-.9 1.6-1.4 2.7-1.4 1.8 0 3.3 1.5 3.3 3.3 0 1.8-1.5 3.3-3.3 3.3-1.8 0-3.3-1.5-3.3-3.3 0-.7.2-1.3.6-1.9l-3.8-2.7c-.9 1.3-1.4 2.9-1.4 4.6 0 4 2.9 7.4 6.9 7.9V25h-1.1C41.4 25 15 51.4 15 83.9s26.4 58.9 58.9 58.9c25.4 0 47.1-16.2 55.3-38.8-.6.4-1.2.9-1.8 1.2-.1 0-.2.1-.2.1-.2.1-.4.2-.5.3-1.7.9-3.6 1.4-5.8 1.5-1.4 2.9-3.1 5.6-5 8.1 1.2 1.7 1.6 3.1 1.6 3.1s-2.2.8-5.1 1c-9.6 10.4-23.3 17-38.6 17-17.8 0-33.6-8.9-43-22.6-.1-.2-.3-.4-.4-.6-1.5-1.3-2.7-3.2-3.6-5.9l.3-.3c-.2-.1-.5-.1-.7-.2 0 0-1.2-4.5 3.8-7.4 5-3 9.7-2 9.7-2s-.5 2.3-1.8 4.7c7.8-2.8 19-3.8 33.8 2.6.6.3 1.2.5 1.8.8 10.2 4.7 18.4 5.8 25 4.8-.1-.2-.1-.4-.2-.6 0 0 3-3.1 7.8-1.8 2.4-1.2 4.4-2.7 6.1-4.3.2-1.6 1.2-4.9 4.9-7.1.8-2 1.1-3.8 1-5.2-.7-7.8-10.3-4.7-11.8-2.8-1.5 1.9 2.2 6.2 2.1 2.3-.1-3.9 8.9-5.5 8.1 1.7-.2 1.6-.9 3.3-2.2 5-1.9 2.4-5.2 4.5-10 5.6-.1.1-.1.2-.2.3 0 0-.3 0-.8-.1-6.3 1.2-15.3.5-27.3-3.8.6 1.3.6 2.7-.2 3.6-1.9 2.1-3.3.5-3.3.5s1.5-2.8.2-4.6c-.4-.5-.9-.9-1.5-1.3-.4-.2-.9-.3-1.3-.5 1.2 1.6 1.5 3.5.5 4.6-1.9 2.1-3.3.5-3.3.5s1.5-2.8.2-4.6c-1.3-1.8-4.7-2.5-4.7-2.5v-.3c-16-4.1-27.7-.7-34.3 2.6-.1 0-.2.1-.3.1-1.2.6-2.2 1.2-3 1.7l-.9.6c-.1 0-.1.1-.2.1 0-.1-.1-.3-.1-.4-.7-2.2-1.2-4.5-1.6-6.8-.5-2.9-.8-5.8-.8-8.8C21.6 55 45.1 31.5 74 31.5s52.4 23.5 52.4 52.4v1.3c3.1-.7 5.4-.2 5.4-.2s-.7 3.1-2.7 5.6c-.6.4-1.1 1-1.6 1.4z"/><path fill="#D38BA1" d="M98.2 56.3c0-.2-.1-.3-.1-.5-.2.1-.3.2-.3.2s.2.1.4.3z"/><ellipse fill="#B08E9B" cx="86.1" cy="54" rx="1.9" ry="1.9"/><path fill="#E6B7C4" d="M59.1 72.2c7 3.1 16.8 2.1 19.5-6.6 2.7-8.7-6.9-12-6.9-12-1.5-.4-3-.4-4.5-.1-8.8 1.5-16.6 12.2-16.6 12.2s.3.8 1.4 1.9c1.2 1.2 3.4 2.9 7.1 4.6z"/><path fill="#FFBD79" d="M98.6 59.2c1.4 1.7 2.9 2.9 3.7 2.4 1.3-.9-2.8-4.3-4.1-5.3-.2-.2-.4-.3-.4-.3s.1-.1.3-.2c1.1-.8 5.2-4.1 4.6-4.7-.5-.5-3.5 1.4-5.3 2.6-.8.5-1.4 1-1.4 1 .1 1 1.3 2.9 2.6 4.5z"/><path fill="#D38BA1" d="M64.3 90.3l1.7-.8v.8l.4-1.2.4-1.2c.3 0 .7.1 1 .1h.2v2.4h-.1l1.2-.6.5 1.1 1.7-1 .4.7.3.4.8-2.7c16.9-.2 26.2-13.4 25.8-28.8v-.3c-1.3-1.6-2.4-3.5-2.6-4.5 0 0 .6-.4 1.4-1-1.5-3.5-4.3-6.1-8.2-7.1 4.1-4.3 1.2-6.6-.1-7.2-1.4-.6-1.7.7-1.7.7s1 0 1.7 2.4c.5 1.6-.4 3-1 3.8H88c.2-1.2.3-3.9-3.2-5.2-4.7-1.7-4.8 2.6-3.9 2.7.9.1 1.3-1.3 1.3-1.3s3.9-2 3.8 3.7c-5-.1-11.4 2-18.7 7.2 1.5-.2 3-.2 4.5.1 0 0 9.6 3.3 6.9 12-2.7 8.7-12.5 9.6-19.5 6.6-3.8-1.6-5.9-3.4-7.2-4.7-1.1 1.2-2.2 2.5-3.3 3.9-.6.7-1.1 1.4-1.7 2.1l-.9 1.2s.4.7 1.2 1.7c.5.6 1.1 1.3 1.8 2.1 2.5 2.7 6.7 6.2 12.5 8.2l.6 3.5.2-.1 1.5-.9.4 1.2zM86.1 52c1 0 1.9.9 1.9 1.9 0 1.1-.8 1.9-1.9 1.9-1 0-1.9-.9-1.9-1.9 0-1 .8-1.9 1.9-1.9z"/><path fill="#A3B580" d="M127.2 105.2c.1 0 .2-.1.2-.1s-.1 0-.2.1zM125.3 93.8c-1.4.1-3 .4-4.6.9-1.4.4-2.5.9-3.5 1.5-3.7 2.3-4.6 5.5-4.9 7.1-.1.6-.1 1-.1 1 3.2 1.9 6 2.6 8.6 2.5 2.1 0 4.1-.6 5.8-1.5-3.6 1.8-8.2 2.1-14-1.2l23-8.7s-2 4.7-6.1 8c4.3-3.4 6.5-8.2 6.5-8.2s-1.6-.8-4.2-1.3c-1.7-.1-3.9-.3-6.5-.1z"/><path fill="#8BA261" d="M135.6 95.6l-23 8.7c5.7 3.3 10.4 3 14 1.2.2-.1.4-.2.5-.3.1 0 .2-.1.2-.1.7-.4 1.3-.8 1.8-1.2.1-.1.2-.1.2-.2 4.3-3.4 6.3-8.1 6.3-8.1z"/><path fill="#A3B580" d="M107 118.7c-.1 0-.3-.1-.4-.1.1.1.2.1.4.1zM108.6 119.1zM109 108.8c-1-.5-1.9-.9-2.7-1.1-4.9-1.2-7.8 1.8-7.8 1.8.1.2.1.4.2.6 1.5 5 4.4 7.4 7.6 8.4-3.1-1-6.1-3.5-7.5-8.8l18.5 8.2s-4 1.6-8.4 1.1c1.2.1 2.5.1 3.6 0 2.9-.2 5.1-1 5.1-1s-.5-1.3-1.6-3.1c-1.4-1.8-3.5-4.2-7-6.1z"/><path fill="#8BA261" d="M107 118.7c.5.1 1.1.2 1.6.3h.3c4.4.5 8.4-1.1 8.4-1.1l-18.5-8.2c1.4 5.3 4.4 7.8 7.5 8.8.1 0 .2.1.3.1.1.1.2.1.4.1z"/><path fill="#A3B580" d="M35.3 115.5c-3.2-.8-6.3-3.1-8.1-8.3l19.1 7s-3.9 1.9-8.2 1.7c4.5.2 8.5-1.6 8.5-1.6s-.1-.3-.4-.8c-.9-1.6-3.5-5.5-8.7-7.9-.6-.3-1.2-.5-1.8-.6-2 1.7-4.8 2.7-9 1.5l13-9.1s-.5 3.3-2.6 6c.3-.5.7-.9.9-1.4 1.4-2.4 1.8-4.7 1.8-4.7s-4.7-1-9.7 2c-5 3-3.8 7.4-3.8 7.4.3.1.5.1.7.2l-.3.3c.9 2.7 2.2 4.6 3.6 5.9.2.2.4.3.6.5 1.5.9 2.9 1.5 4.4 1.9zM37.6 116z"/><path fill="#A3B580" d="M36 115.6c-.1 0-.2 0-.3-.1.1.1.2.1.3.1z"/><path fill="#8BA261" d="M46.2 114.2l-19.1-7c1.8 5.2 4.9 7.5 8.1 8.3.1 0 .3.1.4.1.1 0 .2.1.3.1.5.1 1.1.3 1.6.3.1 0 .2-.1.4-.1 4.5.2 8.3-1.7 8.3-1.7z"/><path fill="#A3B580" d="M36 104.6z"/><path fill="#8BA261" d="M36 104.6c.4-.4.8-.8 1.1-1.3 2-2.7 2.6-6 2.6-6l-13 9.1c4.2 1.2 7 .2 9-1.5l.3-.3z"/><path fill="#A3B580" d="M105 94.4c1.1 2.2 1.2 5-.8 8.4l-5.1-14s2.8 1.2 4.8 3.7c-2-2.6-4.9-3.9-4.9-3.9s-1 2-1.1 5c0 1.3.1 2.7.5 4.2 1.1 3.8 3.7 4.8 5 5.1.5.1.8.1.8.1.1-.1.1-.2.2-.3.5-1 .9-1.9 1.1-2.7.6-2.1.3-4-.5-5.6z"/><path fill="#8BA261" d="M99 88.9l5.1 14c2.1-3.5 1.9-6.3.8-8.4-.3-.7-.7-1.3-1.2-1.8-1.9-2.6-4.7-3.8-4.7-3.8z"/><path fill="#A3B580" d="M118.9 93.3c2.7.9 4.9.7 6.6 0 .8-.3 1.4-.7 2-1.2-1.9 1.5-4.6 2.4-8.4 1.1l12.4-8.2s-.6 3-2.5 5.5c2-2.6 2.7-5.6 2.7-5.6s-2.3-.5-5.4.2c-1.2.3-2.4.7-3.7 1.4-4.8 2.6-3.7 6.8-3.7 6.8z"/><path fill="#8BA261" d="M119.1 93.2c3.8 1.2 6.5.4 8.4-1.1.6-.5 1.1-1 1.5-1.6 1.9-2.5 2.5-5.5 2.5-5.5l-12.4 8.2z"/></svg>