<svg xmlns:xlink="http://www.w3.org/1999/xlink"  xmlns="http://www.w3.org/2000/svg" viewBox="0 0 150 150"><path opacity=".1" fill="#3F5962" d="M122.4 110.8c.2.8.3 1.4.4 2 1.4 6.6-1.7 9.7-1.7 9.7-13.3 10.9-42 11.7-42 11.7-27.7.6-41.9-6.6-47.2-10.5-.3-.2-.6-.5-.9-.7-2.8-2.4-3.3-4.8-3.3-6.2 0-.7.1-1.1.1-1.1s.5-2 1.1-4.9c-7.7 3.5-12.2 8-12.2 12.8 0 11.6 26.4 21 59.1 21 32.6 0 59.1-9.4 59.1-21 0-4.8-4.7-9.3-12.5-12.8zM93.4 103.7h.2l-6.3-.6h-.7c-.4 0-.7-.1-1-.2-3.2-.2-6.4-.3-9.7-.3-6.2 0-12.2.3-17.8 1 5.3 1.1 11.4 1.8 17.8 1.8 6.2.1 12.2-.6 17.5-1.7z"/><path fill="#3F5962" d="M106.2 93.1c0-.2.1-.4.1-.6.7.5 1.3.9 1.9 1.4 1.7-1.6 2.7-3.3 2.7-5.2 0-7.4-15.6-13.4-34.9-13.4-19.3 0-34.9 6-34.9 13.4 0 1.8 1 3.6 2.7 5.2 1.1-1 2.6-2 4.4-2.9.1.6.5 1.2 1.1 1.6l-.1-.1c-.3-.4-.4-.8-.4-1.3 0-1.4 1.3-2.5 3-2.5 1.6 0 3 1.1 3 2.5 0 .5-.2.9-.4 1.3 0 .1-.1.1-.1.2.7-.6 1.1-1.3 1.1-2.2 0-.7-.3-1.3-.8-1.9l1.2-.3c-.1.2-.1.4-.1.7 0 .9.4 1.7 1.1 2.2l-.1-.1c-.3-.4-.4-.8-.4-1.3 0-1.4 1.3-2.5 3-2.5 1.6 0 3 1.1 3 2.5 0 .5-.2.9-.4 1.3 0 .1-.1.1-.1.2.7-.6 1.1-1.3 1.1-2.2 0-.8-.4-1.5-.9-2 .2 0 .5-.1.7-.1 0 .2-.1.3-.1.5 0 .9.4 1.7 1.1 2.2l-.1-.1c-.3-.4-.5-.8-.5-1.3 0-1.4 1.3-2.5 3-2.5 1.6 0 3 1.1 3 2.5 0 .5-.2.9-.4 1.3 0 .1-.1.1-.1.2.7-.6 1.1-1.3 1.1-2.2 0-.5-.1-.9-.3-1.3h.5c-.1.2-.1.5-.1.8 0 .9.4 1.7 1.1 2.2l-.1-.1c-.3-.4-.4-.8-.4-1.3 0-1.4 1.3-2.5 3-2.5 1.6 0 3 1.1 3 2.5 0 .5-.2.9-.4 1.3 0 .1-.1.1-.1.2.7-.6 1.1-1.3 1.1-2.2 0-.4-.1-.7-.2-1h1c-.1.2-.2.5-.3.7-.2.9.1 1.7.6 2.4 0-.1 0-.1-.1-.2-.2-.4-.2-.9-.1-1.4.3-1.4 1.9-2.2 3.4-1.8 1.6.4 2.6 1.8 2.3 3.1-.1.5-.4.8-.7 1.2l-.2.2c.8-.4 1.4-1.1 1.6-1.9.2-.7 0-1.4-.3-2 .4 0 .8.1 1.3.1-.2.3-.4.6-.5 1-.2.9.1 1.7.6 2.4 0-.1 0-.1-.1-.2-.2-.4-.2-.9-.1-1.4.3-1.4 1.9-2.2 3.4-1.8 1.6.4 2.6 1.8 2.3 3.1-.1.5-.4.8-.7 1.2l-.2.2c.8-.4 1.4-1.1 1.6-1.9.1-.6.1-1.1-.2-1.7.8.1 1.5.3 2.3.5-.5.4-1 .9-1.1 1.6-.2.9.1 1.7.6 2.4 0-.1 0-.1-.1-.2-.2-.4-.2-.9-.1-1.4.3-1.4 1.9-2.2 3.4-1.8 1.6.4 2.6 1.8 2.3 3.1-.1.5-.4.8-.7 1.2l-.2.2c.8-.4 1.4-1.1 1.6-1.9.1-.6.1-1.1-.2-1.6.7.2 1.3.4 1.9.7-.7.4-1.3 1-1.5 1.9-.2.9.1 1.7.6 2.4 0-.1 0-.1-.1-.2-.2-.4-.2-.9-.1-1.4.3-1.4 1.9-2.2 3.4-1.8 1.6.4 2.6 1.8 2.3 3.1-.1.5-.4.8-.7 1.2l-.2.2c.6-1.1 1.2-1.8 1.4-2.6z"/><path fill="#70838A" d="M31 123c.3.2.6.5.9.7 5.3 3.9 19.5 11.1 47.2 10.5 0 0 28.7-.8 42-11.7 0 0 3.1-3.1 1.7-9.7-.1-.6-.3-1.3-.4-2-1.7-7.5-5-21.5-5-21.5s-1.8-4.9-6.4-7.9c2.3 2 3.7 4.1 4.1 6.4.2.8.3 1.5.1 2.3 0 0-.1.4-.4 1.1-1 2.9-3.7 5.5-7.6 7.8-3.2 1.9-7.5 3.6-13.5 4.8h-.2c-5.3 1.1-11.2 1.8-17.6 1.8-6.4 0-12.4-.7-17.8-1.8-1.9-.4-3.6-.9-5.3-1.4-3.9-1.1-7.9-2.8-11-5.2-2.4-1.8-4.1-3.7-4.8-5.8-.2-.5-.4-1-.6-1.6 0 0 0-.7.2-1.8.3-2.9 2.4-5.9 5.8-7.9h-.5s-7.2 5-8 9.4c-.5 3.1-3.2 14.8-4.8 21.5-.7 2.9-1.1 4.9-1.1 4.9s-.1.4-.1 1.1c-.2 1.2.3 3.6 3.1 6z"/><path fill="#236A95" d="M137.7 50c-2.1-.3-5.4-9.4-5.4-9.4-2.4-12.6-9.4-16.9-14.2-18-4.8-1.1-4.6-5.9-4.6-5.9 2.1-8-.8-12.3-.8-12.3-23.2 12.4-36.6 41.3-36.6 41.3l-.8 2c-2.6-5.6-5.4-10.6-7.5-12.5 0 0-4-29.2-5.1-31.4 0 0-9.7-.8-11 18.5 0 0-13.4 7.2-18 12.6L29.4 40s-19 7-21.2 9.4c0 0-1.3 5.9 4 8.3 0 0 3.5 14.5 24.9 8.6 0 0 11-1.3 13.4 6.2l.7 1.8c6.7-2.4 15.3-3.8 24.8-3.8 1.5 0 3 0 4.5.1l1.5-.2 1.3.4c6.2.5 11.9 1.6 16.6 3.2 2.6-3.8 9.4-11.7 18.6-9 12.1 3.5 15.3-6.7 15.3-6.7 6.6-.5 3.9-8.3 3.9-8.3z"/><path fill="#3F5962" d="M100.6 97c.4-1.6-.9-3.3-2.8-3.7-1.9-.4-3.7.5-4.1 2.2-.2.9.1 1.7.6 2.4 0-.1 0-.1-.1-.2-.2-.4-.2-.9-.1-1.4.3-1.4 1.9-2.2 3.4-1.8 1.6.4 2.6 1.8 2.3 3.1-.1.5-.4.8-.7 1.2l-.2.2c.9-.5 1.5-1.2 1.7-2zM92.9 95.1c.4-1.6-.9-3.3-2.8-3.7-1.9-.4-3.7.5-4.1 2.2-.2.9.1 1.7.6 2.4 0-.1 0-.1-.1-.2-.2-.4-.2-.9-.1-1.4.3-1.4 1.9-2.2 3.4-1.8 1.6.4 2.6 1.8 2.3 3.1-.1.5-.4.8-.7 1.2l-.2.2c.9-.5 1.5-1.2 1.7-2zM85.5 93.5c0-1.7-1.5-3.1-3.5-3.1-1.9 0-3.6 1.3-3.6 3 0 .9.4 1.7 1.1 2.2 0 0-.1-.1-.1-.2-.3-.4-.4-.8-.4-1.3 0-1.4 1.4-2.5 3-2.5s2.9 1.2 2.9 2.6c0 .5-.2.9-.4 1.3 0 .1-.1.1-.1.2.6-.6 1.1-1.3 1.1-2.2zM72.4 89.5c-1.6.3-2.8 1.5-2.8 2.9 0 .9.4 1.7 1.1 2.2 0 0-.1-.1-.1-.2-.3-.4-.4-.8-.4-1.3 0-1.4 1.4-2.5 3-2.5s2.9 1.2 2.9 2.6c0 .5-.2.9-.4 1.3 0 .1-.1.1-.1.2.7-.5 1.1-1.3 1.2-2.2 0-1.6-1.3-2.8-3.1-3.1h-.4c-.4.1-.6.1-.9.1zM64.7 91.6c1.6 0 2.9 1.2 2.9 2.6 0 .5-.2.9-.4 1.3 0 .1-.1.1-.1.2.7-.5 1.1-1.3 1.2-2.2 0-1.7-1.5-3.1-3.5-3.1-1.9 0-3.6 1.3-3.6 3 0 .9.4 1.7 1.1 2.2 0 0-.1-.1-.1-.2-.3-.4-.4-.8-.4-1.3 0-1.4 1.3-2.6 2.9-2.5zM50.6 95.9c0 .9.4 1.7 1.1 2.2 0 0-.1-.1-.1-.2-.3-.4-.4-.8-.4-1.3 0-1.4 1.4-2.5 3-2.5s2.9 1.2 2.9 2.6c0 .5-.2.9-.4 1.3 0 .1-.1.1-.1.2.7-.5 1.1-1.3 1.2-2.2 0-1.7-1.5-3.1-3.5-3.1-.4 0-.7 0-1.1.1-.2 0-.4.1-.5.2-1.2.5-2 1.5-2.1 2.7zM64 99.4c0-1.7-1.5-3.1-3.5-3.1-1.9 0-3.6 1.3-3.6 3 0 .9.4 1.7 1.1 2.2l-.1-.1c-.3-.4-.4-.8-.4-1.3 0-1.4 1.4-2.5 3-2.5s2.9 1.2 2.9 2.6c0 .5-.2.9-.4 1.3 0 .1-.1.1-.1.2.7-.7 1.1-1.4 1.1-2.3zM80.8 99.8c0-1.7-1.5-3.1-3.5-3.1-1.7 0-3.1 1-3.5 2.3-.2-1.5-1.6-2.7-3.4-2.7-1.9 0-3.6 1.3-3.6 3 0 .9.4 1.7 1.1 2.2 0 0-.1-.1-.1-.2-.3-.4-.4-.8-.4-1.3 0-1.4 1.4-2.5 3-2.5s2.9 1.2 2.9 2.6c0 .5-.2.9-.4 1.3 0 .1-.1.1-.1.2.5-.4.9-.9 1.1-1.5.1.7.5 1.4 1 1.8 0 0-.1-.1-.1-.2-.3-.4-.4-.8-.4-1.3 0-1.4 1.4-2.5 3-2.5s2.9 1.2 2.9 2.6c0 .5-.2.9-.4 1.3 0 .1-.1.1-.1.2.5-.6.9-1.3 1-2.2zM86.7 98.4c1.6 0 2.9 1.2 2.9 2.6 0 .5-.2.9-.4 1.3 0 .1-.1.1-.1.2.7-.5 1.1-1.3 1.2-2.2 0-1.7-1.5-3.1-3.5-3.1-1.9 0-3.6 1.3-3.6 3 0 .9.4 1.7 1.1 2.2 0 0-.1-.1-.1-.2-.3-.4-.4-.8-.4-1.3-.1-1.4 1.2-2.6 2.9-2.5z"/></svg>