<svg xmlns:xlink="http://www.w3.org/1999/xlink"  xmlns="http://www.w3.org/2000/svg" viewBox="0 0 150 150"><path fill="none" d="M27.6 98.9l.6-.3c-.3-.4-.6-.8-.9-1.1.1.3.2.8.3 1.4zM28.7 97c.1.4.2.8.4 1.3.1 0 .1 0 .2-.1V98c-.2-.7-.5-1.5-.8-2.3 0 .4.1.8.2 1.3zM17.9 104c.1-.1.2-.1.3-.2-.3-.9-.7-1.9-1.1-3 .2 1 .5 2.2.8 3.2zM25.3 99.9c.1 0 .2-.1.2-.1-.2-.2-.3-.4-.4-.5 0 .2.1.4.2.6zM135 103.9c.3-1.1.6-2.3.8-3.4-.4 1.1-.8 2.3-1.1 3.2.1 0 .2.1.3.2zM127.7 99.3c0-.1.1-.2.1-.3-.1.1-.1.2-.2.2.1 0 .1 0 .1.1zM125 97.9c-.1.1-.1.2-.2.3-.1.1-.1.2-.2.3.2.1.3.1.5.2v-.2c-.1-.2-.1-.4-.1-.6z"/><path fill="#FFC03B" d="M117.2 93c-.1.8-.2 1.6-.4 2.4.2-.6.6-1.6 1-2.7l-.6.3zM120.1 95.2c.8-1.9 1.5-3.8 1.5-3.8-.1.8-.4 2.1-.8 3.2.3-.2.6-.3.9-.4 0 0-.5.5-1.1 1.2-.2.5-.3.9-.4 1.3.2.1.4.2.7.2.7-1.6 1.8-4.7 2.1-5.6-.2-.5-.3-1-.5-1.5s-.3-1-.6-1.4c-.1 1 0 2.1-.9 2.8-.3.2-.7.4-1 .5-.2 1.2-.5 3-.8 4.4.2-.2.5-.6.9-.9zM118.6 92.3c-.1.7-.3 2.1-.6 3.8.1 0 .2.1.4.1.5-1.5 1-3.1 1.3-4.2-.4 0-.7.1-1.1.3zM122.2 97.6c.5-1 1.1-2.5 1.6-3.8l-.3-.6c-.4 1-1.1 2.7-1.6 4.3.2 0 .3 0 .3.1zM124.1 94.2c0 .2-.1.3-.1.5.1-.1.1-.2.2-.3-.1-.1-.1-.2-.1-.2zM119.4 88.7c-.1.3-.1.7-.2 1 .1-.3.2-.7.2-1zM123.5 92.9c-.2-.4-.3-.8-.5-1.1-.1 1-.5 2.6-1 4.1.4-1.2 1-2.2 1.5-3zM103.2 92.4c.1-.3.2-.6.2-1-.1-.9-.3-1.6-.3-1.6.2.2.4.5.5.8.1-.2.1-.4.2-.6v-.1c-.2-.4-.4-.8-.6-1.1-.3 1.2-.5 2.5-.7 3.5.2 0 .4.1.7.1zM101 85.2c0 .4.1 1 .1 1.6 0 0 .1 0 .1-.1 0 0 0 .1-.1.2 0 .6 0 1.2-.1 1.9.3-.8.6-1.6.8-2.2-.2-.4-.5-.8-.7-1.3l-.1-.1zM101.2 92.1c.4-1.9.8-4 1-4.9-.1-.2-.2-.3-.3-.5-.5 1.6-.8 3.8-1 5.4h.3z"/><path fill="#FFC03B" d="M89 84.9c.3 1 .3 2.6.3 4.2.3-1.8.6-3.8 1.1-4.6 0 0-.4 4.2-.5 6.2.2 0 .5 0 .7.1 0-.3.1-.8.1-1.3-.3-.9-.5-1.6-.5-1.6.2.2.4.4.6.7.2-1.2.4-2.5.7-3.3 0 0-.2 1.9-.3 4 .2.5.4 1 .5 1.5.5-2.1 1.2-5 1.5-5.4 0 0-.5 3-.8 5.5h.4c.4-1.6.8-3 1-3.6 0-.2.1-.3.1-.4 0 0 0 .1-.1.4-.2.7-.3 2.2-.5 3.7.3-3.5 1.4-8 1.8-9.5 0-.2.1-.4.1-.5 0 0 0 .2-.1.5-.3 1.8-.8 7.2-1 9.3.2-.8.4-1.7.7-2.4-.1-.2-.1-.4-.1-.4l.2.2c.2-.6.4-1.2.6-1.5 0 0-.1.9-.3 2 .2.4.5.8.6 1.2.1-.2.3-.5.5-.7.4-1.7.8-3.2.8-3.2l-.3 2.7c.2-.2.4-.3.6-.4 0 0-.3.5-.7 1.2l-.2 1.8h.2c.3-1.1.7-2.2 1.2-2.9-.2-.8-.3-1.3-.3-1.3.6.6 1 1.5 1.3 2.4.3-.9.6-1.7.8-2.1 0 0-.1.9-.3 2 .4-.9.8-1.7 1.3-2.2.2-.9.3-1.7.3-2.4-.4-1.3.4-2.7.6-4.1.1-.9.2-1.7-.3-2.6-.4-.7-1.3-1-1.7-1.7-.1-.2-.1-.3-.2-.4-.3-.1-.4.2-.5.3-.2.3-.4.7-.5 1.1-.2.5-.7.8-1 1.2-.6.1-1.2.1-1.8.4-1.3.7-2.4 1.3-3.6 1.9-.6.3-1 .7-1.5 1.2-.6.8-1.1 1.6-1.5 2.5-.2.4-.3.8-.4 1.2-.1 1.6-.2 3.3-.2 4.6h.3c.1-2.5.3-5.5.3-5.5zM102.8 88.3c-.2-.3-.3-.6-.5-.8 0 1-.1 2.2-.3 3.4.3-.9.6-1.8.8-2.6zM104.3 92.6c.1-.2.1-.3.2-.5-.2-.5-.3-1-.4-1.5 0 .2-.1.5-.1.7.1.4.2.8.2 1.2 0 .1.1.1.1.1zM105.6 89.4c.4-.8.7-1.5.8-1.6 0 0-.3.9-.6 2 .2.3.3.6.5.9.2-.4.3-.7.4-1 .1-.2.1-.3.2-.4 0 0-.1.1-.2.4-.1.3-.2.7-.4 1.1 0 0 0 .1.1.1.8-2.8 2-5.7 2.4-6.8.1-.2.1-.4.2-.5 0 0-.1.2-.2.5-.5 1.4-1.4 5.3-1.9 7.8 0 .1.1.2.1.3.2-.4.4-.9.6-1.3 0-.3-.1-.4-.1-.4.1.1.1.2.1.2.3-.6.6-1.1.8-1.4 0 0-.3.9-.6 1.9.2.4.3.9.5 1.3.2-.2.4-.4.5-.6.6-1.6 1.2-3.1 1.2-3.1l-.6 2.6c.2-.2.4-.3.7-.4 0 0-.4.5-.9 1.1l-.3 1.3c.1 0 .2 0 .2.1.4-.9.8-1.7 1.3-2.3-.1-.8-.2-1.3-.2-1.3.5.7.8 1.6 1 2.5.4-.9.8-1.6 1.1-2 0 0-.2.6-.4 1.5.3-.2.5-.3.8-.3.3-1 .5-1.8.5-1.8 0 .5 0 1.2-.1 1.9.1 0 .1.1.2.1.6-.6 1.2-1.1 1.9-1.4 0 0-.4.4-.9 1v.4c.1-.1.3-.2.4-.3v-.1s0 .1.1.1l.1-.1c.2-.1.3-.1.5-.2l.6-1.7s-.1.7-.3 1.6c.8-.3 1.5-.5 2.3-.8.1-.1.3-.1.4-.2.3-.8.6-1.6.8-2.3-.1-1.3-.8-2.5-1.2-3.7-.2-.5-.3-1-.4-1.6-2.2-.2-4.5-.1-6.7-.7-1.9-.5-3.2-2-5.1-2.3-.1 0-.1.2-.1.3-.6 1.5-.6 2.9-1 4.4-.2.5-.3 1-.3 1.5.2 1.5.6 2.6 1.2 3.7zM116 95.5c.2-.5.3-1.2.5-1.8-.2.3-.5.7-.8 1v.6c.1.1.2.1.3.2zM87.1 88.6c-.1 0-.1.1-.2.1-.1.6-.2 1.2-.3 1.7h.3c.1-.5.1-1.1.2-1.8z"/><path fill="#FFC03B" d="M98.2 91.6c.1-.2.1-.4.2-.7-.1-.8-.3-1.5-.5-2.2-.2.6-.4 1.6-.6 2.7h.1c.1-.2.3-.5.5-.7 0 0-.1.3-.2.8.1.1.3.1.5.1zM124.9 97zM95.1 89.5c-.1.6-.2 1.2-.3 1.7h.4c.1-.1.1-.3.2-.5l-.3-1.2zM123.8 98.2c.2-.5.3-1.1.4-1.5.1-.5.2-.9.3-1.3-.4 1-.7 1.9-1 2.7.1 0 .2 0 .3.1zM28 93.1v.2c.3.5.6 1 1 1.6-.3-1.2-.5-2.3-.6-3.1-.1-.4-.1-.7-.2-.9 0 0 .1.4.2.9.2.9.7 2.1 1.1 3.3 0-.5 0-1-.1-1.4-.3-.8-.5-1.3-.5-1.3.1.2.3.4.4.6-.1-.5-.2-1-.2-1.5-.2-.9-.4-1.8-.7-2.7-.1-.5-.1-.9-.2-1.4 0-.2-.1-.4-.1-.6 0-.4-.2-.8-.2-1.1 0-.4-.2-.8-.3-1.1-.1-.3-.2-.5-.4-.7-.3-.4-.4-.8-.5-1.2-.1-.9-.1-1.9-.1-2.8v-.7c-.1-1.2-.5-2.3-.9-3.4-.1-.4-.3-.7-.4-1.1-.1-.4-.3-.7-.4-1.1-.2-.5-.3-.9-.4-1.4 0 .8-.1 1.5-.1 2.3 0 6.3 1.1 12.3 3.1 17.8 0 .3.2.6.5.8-.1.1 0 .1 0 0zM129.1 68.9c-.4.8-.6 1.6-1 2.3-.8 1.3-1.8 2.4-2.3 3.9-.2.4-.2.8-.3 1.1-.1 1.4-.3 2.8-.6 4.2-.2.6-.3 1.2-.7 1.7.1.8 0 1.6.1 2.4.4 2.5 1 4.8 1.6 7.2.5-.6.8-1 .8-1-.2.3-.4.7-.7 1.3.2.9-.1 1.9.1 2.8 0 .2.1.3.1.5 2.7-6.4 4.3-13.4 4.3-20.8 0-2.2-.1-4.4-.4-6.5l-.1-.1c-.6.2-.7.6-.9 1zM31.8 55.4c.1.1.3.1.3.3.5.8 1.2 1.4 1.7 2.3.7 1.2 1.9 1.6 3.1 2.3 1 .5 2 .8 2.8 1.5.1 0 .3.1.4.1.5.3.9.8 1.4 1.1 1.1.9 1.9 1.9 2.4 3.2.1.3.2.5.3.8 0 .3.1.5 0 .8 0 .1.1.2 0 .3 0 .1.1 0 .1 0-.1.1 0 .2 0 .3-.1 1.1.1 2.1.1 3.2 0 .6 0 1.2.1 1.8 0 .3 0 .5.1.8 0 .2.1.4.1.6 0 .4.1.9.2 1.3.3 1.1 1.2 2 1 3.2-.1.4-.1 1-.5 1.3-.1.1-.1 0-.2-.1s0-.2 0-.3c-.4-.6-.9-1.1-.8-1.9 0-.5.1-1 0-1.6l-.3-1.5c-.2-.8 0-1.6-.4-2.4-.4.6-.3 1.4-.5 2-.3.9-.3 2-.1 3 0 .7.3 1.2.8 1.7.6.8 1.3 1.3 1.9 2 .3 2.1.5 4.3.9 6.4.4.4 1.3 2.7 2 4.5.1 0 .2 0 .3-.1.1-.3.1-.6.2-.9l-.8-4c.4.7.8 2 1.1 3.2.1-.3.3-.6.5-.8 0 0-.2.7-.3 1.6.1.3.1.5.2.7.2 0 .5-.1.7-.1-.4-2.1-1.2-5.6-1.2-5.6.5.7 1.2 2.7 1.7 4.4-.3-1.5-.4-3.1-.3-4.2 0 0 .5 2.6 1 5.1.1 0 .2 0 .3-.1-.2-1.8-.6-4.3-1.2-5.8-.2-.6-.4-.9-.4-.9.1.2.3.5.4.9.3.7.7 1.7 1.1 2.9-.1-.7-.1-1.3-.1-1.9 0-.1-.1-.2-.1-.2s.1 0 .1.1c0-1.6.2-2.6.2-2.6 0 .6.1 1.8.3 3 .5.5 1 1.4 1.3 2.2-.2-1.1-.3-2-.3-2 .3.5.6 1.2.8 2.1.3-.9.7-1.7 1.3-2.4 0 0-.1.5-.3 1.3.4.6.7 1.4 1 2.2-.1-.6-.1-1.1-.1-1.7-.2-.4-.4-.7-.4-.7.1.1.3.2.4.3v-1.6l-.1-.9s.1.2.1.5c.1-1.1.3-2.2.8-3.3.2-.6.6-1 1.1-1.5 0-.1 0-.2-.1-.3-.1-.3-.1-.5-.1-.5 0 .1.1.3.1.5 0 .1 0 .2.1.3.5-.5.9-1 .9-1.6 0-.6-1-.8-1.6-1.4-1-1.4-2-2.6-2.6-3.7-.6-1.2-.4-2.8-.8-4.1-.2-.2-.2-.8-.6-.8-1 0-2 .2-3 0-.4-.2-1-.6-.6-1 1.6-1.4 3-2.6 4.9-3.5.8-.2.8-1.6 1.6-1.8.4-.2.2.6.6.8.8.2 1.2-.8 2-1-.6 1.2-1 2.4-1.6 3.3-.6 1.4-.6 4.3 1 4.7 4.5 1.4 9.1-.4 13.6-.8 2.2-.2 3.9.8 5.7 2 1.2 1 .6 2.4.2 3.5-.6.8-1.6 1.8-1.6 2.8 0 1 2 1.4 2.2 2.4.2.9.5 1.9.6 2.8.4-1.5.8-2.3.8-2.3-.2.5-.3 1.6-.4 2.7.1-.5.2-.8.3-1 0 0 0 .7-.1 1.7.3.6.4 1.3.5 2.1.1-.8.3-1.5.3-2 0-.2 0-.3.1-.4 0 0 0 .1-.1.4-.1.8-.1 2.5 0 4.2-.1-3.5.5-8.5.7-10.1 0-.2 0-.4.1-.5 0 0 0 .2-.1.5-.1 1.8 0 7.3.1 9.4.1-.8.2-1.7.4-2.5l-.2-.4.2.2c.1-.7.3-1.2.5-1.6 0 0 0 .9-.1 2 .3.4.5.7.8 1.2.1-.2.2-.5.4-.7.2-1.7.4-3.3.4-3.3v2.7c.2-.2.4-.4.6-.5 0 0-.3.5-.6 1.3v2.4h.1c0-.2 0-.4.1-.6 0-.1-.1-.2-.1-.3 0-.6-.1-1.1.3-1.6.1-.1.2-.2.3-.2.1-.3.2-.6.4-.9-.3-.7-.5-1.2-.5-1.2.6.5 1.1 1.3 1.4 2 0 0 .1 0 .1-.1 0 0 0-.1.1-.1.1-.8.3-1.4.5-1.8v.9c.7-.6 1.1-1.3 1.4-2.1 0-.7 0-1.3-.1-1.6 0 0 .1.4.3 1.1.3-1.1.5-2.3.8-3.3.2-.5.4-1 .8-1.4.5-.4 1.1-.4 1.7-.7.5-.3.8-.7 1-1.2.3-.6.5-1.4.6-2 .2-1.5 0-2.9 0-4.4l-.6.6c-.9 1.1-1.6 2.4-2.8 3.3-.8.6-1.6 1-2.4 1.2-.5.1-1.1.2-1.6 0-.7-.3-1.3-.5-2-.8.1-.4.4 0 .7-.2-.7-.4-1.4-.7-2.1-1v-.1c1.1 0 2.2-.3 3.1-.9-.4-.1-.9-.1-1.4-.2-.5-.2-1-.2-1.4-.4 0-.1.1-.1.1-.2.2.1.5.2.7.1 1-.1 2-.4 2.9-.9.8-.5 1.4-1.2 2-1.8 1.6-1.4 2.8-3.5 5-4.2 1.2-.4 2.5-.5 3.7-.1.5-.3 1.1-.5 1.6-.6 1.5-.3 3-.4 4.5-.3.9 0 1.7.2 2.5.6 1.8.8 3.3 1.8 5.1 2.3 2 .5 4-.1 6-.2.4-.4.9-.5 1.3-.9.5-.6.9-1.2 1.3-1.9-.2 0-.4 0-.6.1.3-.4.4-1 .9-1.2.3-.1.7 0 .8-.2.1-.3-.2-.6-.3-.8.5-.1 1.1.4 1.5 0 .1-.1-.3-.1-.2-.2.7-.7 1.6-1.1 2.5-1.3.3-.1.3-.4.3-.7 0 0 0-.1.1-.2.4 0 .5.4.9.4.2 0 .5 0 .6-.2.1-.2-.3-.2-.5-.3l.9-.3c.8-.2 1.4.3 2.2.3.1 0 .2 0 .2-.1s-.2-.1-.3-.2c.1-.2.3-.3.5-.3-6.7-21.6-26.9-37.3-50.7-37.3C56 21.5 37.7 34 29.3 52c.3.6.7 1.1 1.1 1.6.4.7 1 1.1 1.4 1.8zm68.3-9.8c.8-1.7 3.6-.5 3.6-.5-2.5-.8-3.7 2.1-3.7 2.1-.2-2.2-3.4-2.3-3.4-2.3 2-1 3.5.7 3.5.7zm-7.4 6.1c.4-.9 1.9-.2 1.9-.2-1.3-.4-1.9 1.1-1.9 1.1-.1-1.1-1.7-1.2-1.7-1.2.9-.6 1.7.3 1.7.3zM66.8 45c.5-1.1 2.3-.3 2.3-.3-1.6-.5-2.4 1.3-2.4 1.3-.1-1.4-2.2-1.5-2.2-1.5 1.3-.6 2.3.5 2.3.5zm-4.9-4.5c.1-1.7 2.8-1.6 2.8-1.6-2.3.2-2.4 3-2.4 3-.9-1.7-3.6-.8-3.6-.8 1.4-1.6 3.2-.6 3.2-.6zM115.7 93.8c.1-.1.3-.3.5-.4-.2 0-.3.1-.5.1-.1.2 0 .2 0 .3zM99.2 91.8c.1 0 .2 0 .3.1.2-.8.4-1.8.6-2.8-.2.8-.6 1.8-.9 2.7zM113.7 94.7c.1-.2.1-.5.2-.7-.1 0-.2.1-.2.1v.6zM114.5 93.8c0 .4-.1.8-.2 1.1h.1l.4-1.3c-.1.2-.2.2-.3.2zM114.3 91.9c-.2.2-.4.5-.6.7h.1c.1-.1.3-.2.4-.3 0-.1.1-.3.1-.4zM113.4 94.3c-.2.1-.3.2-.4.3.1 0 .2.1.4.1-.1-.2 0-.3 0-.4zM107.9 93.3c0-.5-.1-.9-.1-1.3-.1.4-.2.8-.4 1.2.2.1.3.1.5.1 0 .1 0 .1 0 0zM110.7 94c.1 0 .1 0 0 0 0-.9-.1-1.6-.1-2.3-.2.5-.5 1.2-.8 2.1.1 0 .2 0 .3.1l.2-.2s0 .1-.1.2c.2 0 .4.1.5.1zM118.5 92.3c-.3 1.2-.7 2.5-1.1 3.6.6-1.4 1.1-2.9 1.1-3.6h0z"/><path fill="#FFC03B" d="M75.4 88.8v1.4h.1c0-.5 0-1-.1-1.4.1-.1 0 0 0 0zM62.3 90.8h.2c.1-.6.1-1.3 0-1.9l-.3.9c0 .4.1.7.1 1zM63.6 89.4c0-1.5 0-3.1.3-4.2 0 0 .1 2.7.4 5.4h.3c0-1.8-.1-4.4-.4-6.1l-.3-.9.3.9c.2.7.5 1.8.7 3 0-.7.1-1.3.2-1.9 0-.1-.1-.2-.1-.2l.1.1c.2-1.6.5-2.6.5-2.6-.1.6-.1 1.8-.1 3.1.6.9 1 2.3 1.3 3.6 0-.1.1-.3.1-.5-.1-1.6-.1-3.3-.1-3.3.2.5.4 1.3.6 2.2.4-.8.9-1.6 1.5-2.2 0 0-.2.5-.5 1.2.5.8.7 2.1.8 3.3h.1v-2.1c-.3-.8-.6-1.3-.6-1.3.2.1.4.3.6.5v-2.7l.4 3.2c.1.2.3.5.4.7.2-.4.5-.8.8-1.2 0-1.1-.1-2-.1-2 .2.4.3.9.5 1.6l.2-.2s-.1.1-.2.4c.1.8.3 1.6.4 2.5.1-2.1.2-7.6.1-9.4 0-.3-.1-.5-.1-.5 0 .1 0 .3.1.5.2 1.5.8 6.3.7 9.7 0-1.5 0-3.1-.1-3.8 0-.2-.1-.4-.1-.4 0 .1.1.2.1.4.1.4.2.9.3 1.6.1-.9.3-1.7.6-2.4 0-.6-.1-1.1-.1-1.1.1.1.1.4.2.7 0 0 0-.1.1-.1-.1-1.3-.2-2.4-.4-3 0 0 .4.9.8 2.5 0 0 0-.1.1-.1v.2c.1.5.3 1.2.4 1.9.1-1.2.3-2.4.4-3.1 0-.3.1-.6.1-.8-1-1.2-2.3-2.3-3.5-3.5-2.6 1.4-5.5 1.6-8.3 1.8-.3 1.8-.2 3.6-.2 5.4.4 1.1.6 2.2.7 3.2zM59.6 91.1c-.1-1.4-.3-2.7-.5-3.4-.1-.2-.1-.4-.1-.4 0 .1.1.2.1.4.2.6.6 1.9.9 3.3h.4c-.3-2.4-.8-5.2-.8-5.2.3.4 1 3.1 1.5 5.1h.1c.1-.4.2-.8.4-1.2-.1-2.1-.3-4-.3-4 .3.8.5 2.1.7 3.3.1-.2.2-.3.4-.5-.1-.6-.2-1.3-.4-1.8-.4-1.6-.2-3.3-1.4-4.7-.8.7-1.8 1.2-2.5 1.8.6 1.9 1.2 4.8 1.5 7.3-.1 0 0 0 0 0z"/><path fill="#FFC03B" d="M75 87.7c.1-1.7.1-3.1.1-3.1.2.8.3 2.1.3 3.3-.1-2-.2-3.8-.2-3.8.3.8.6 2.1.7 3.3l.1-.1c0-.9.1-1.8.2-2.5-.1-.3-.2-.7-.4-1-.2-.4-.5-.9-.9-1.3 0 .2-.1.4-.1.8 0 1.3.1 2.9.2 4.4zM84.6 90.3h.5V90c-.2.1-.4.1-.5.1v.2zM76 87.6c0 .2 0 .4.1.6v-.8c-.1.1-.1.2-.1.2zM57.1 90.3c.2-.4.4-.9.6-1.2-.2-1.1-.3-2-.3-2 .2.3.4.9.6 1.5l.2-.2s0 .2-.1.4c.2.7.4 1.5.6 2.3-.1-1.6-.4-4.9-.7-7.2-.3.3-.5.6-.7 1-.7 1.3-.8 2.8-.8 4.4 0 .1.1.3.1.4.2.2.4.4.5.6zM30.6 92.8c0 .1 0 .3.1.7.4 1.1.9 2.4 1.3 3.4.1-.3.2-.5.2-.5l.1-.6v-.1c-.5-.6-.9-.9-.9-.9.2.1.5.2.7.3l-2.5-10.3s.1 3 .4 4.2c.2 1.1.6 3.5.6 3.8zM30.6 79.6c-.2.9.2 1.7.2 2.6 0 .2.2.4.2.6.1.7.2 1.3.3 2 .1.8.3 1.6.4 2.5.6 2.7 1.2 5.2 1.8 7.9-.4-1.8-.7-3.6-.6-4 0 0 .8 2.8 1.5 5.1.1 0 .3-.1.4-.1-.3-1.5-.5-2.9-.6-3.5 0-.2-.1-.3 0-.4v.4c.1.7.6 2 1.1 3.4-1.1-3.3-2-7.7-2.3-9.2v-.6s0 .2.1.5c.4 1.7 2.3 6.9 3.1 8.9-.2-.8-.3-1.7-.4-2.5l-.3-.3c.1 0 .2.1.2.1-.1-.7-.1-1.3-.1-1.7 0 0 .2.9.5 1.9.4.2.8.5 1.1.9 0-.3.1-.5.1-.8-.4-1.7-.7-3.2-.7-3.2l.9 2.5c.1-.2.2-.5.4-.7 0 0-.1.6-.1 1.4l.6 1.6c.1 0 .1 0 .2-.1-.2-1.1-.3-2.2-.2-3-.5-.6-.9-1-.9-1 .7.3 1.2.7 1.8 1.2v-1c.1-.9-.2-1.8-.2-2.7.1-.5.3-.9.3-1.4.1-1.4-.1-2.7-.4-4-.1-.4-.3-.8-.3-1.2-.2-.9-.2-1.8-.3-2.8-.5-.3-.8-.8-1.1-1.3v-.2c-.6-.8-1-1.6-1.3-2.5l-.3-.6c-.3-.6-.3-1.3-.8-1.9-.7.6-1.6.6-2.5.6-.5 0-1-.1-1.4-.2-.6-.2-1-.6-1.5-.8.1 2 .1 4 .5 6 .2.6.3 1.2.6 1.6z"/><path fill="#FFC03B" d="M39.2 94.9c0-.3 0-.6.1-1 0-.2.1-.5.1-.7-.2-.3-.5-.6-.7-.9 0 .6.2 1.5.5 2.6zM41.4 94.3v-.1c-.3-.9-.5-1.8-.7-2.5-.1.6-.1 1.3-.2 1.9.2.3.4.5.5.8.2-.1.3-.1.4-.1zM53.6 91.8c-.3-.8-.6-1.7-.9-2.4.2.9.4 1.7.6 2.5.1 0 .2-.1.3-.1zM55.2 91.6c-.1-.3-.1-.5-.1-.5.1.1.2.3.3.4h.2c-.2-1-.4-1.8-.6-2.4-.2.6-.3 1.4-.5 2.2 0 .1.1.2.1.3h.6zM41.6 93c.2-.9.4-1.8 1-2.5 0 0-.1.5-.2 1.3.5.5.9 1.2 1.2 2 .1 0 .2 0 .3-.1l-.3-1c-.5-.7-.9-1.1-.9-1.1.2.1.5.2.7.4l-.6-2.6s.6 1.4 1.2 3.1c.2.2.4.4.5.6.1-.5.3-.9.4-1.3-.3-1.1-.6-1.9-.6-1.9.3.3.5.8.8 1.4 0-.1.1-.2.1-.2s0 .2-.1.4c.3.6.5 1.2.8 1.8h.1c-.5-2.3-1.6-7.1-2.1-8.7-.1-.3-.2-.5-.2-.5.1.1.1.2.2.5.2.6.7 1.8 1.2 3.2-.1-.5-.3-1.1-.4-1.7-.2-1.1-.7-2-1.4-2.9-.5-.7-1.1-1.3-1.8-1.9-.1 0-.1.3-.1.4-.1.5 0 1.1-.2 1.6-.2 1-.2 2-.4 3-.1.5.1 1.1.1 1.7-.1 1.2-.2 2.3-.3 3.4.4.4.7.9 1 1.6zM47.1 90.8c.1.1.1.2.2.3.2.5.2 1 .3 1.5 0 .1 0 .2.1.3.1 0 .2 0 .3-.1-.5-1.8-1.1-3.8-1.3-4.4.1.7.3 1.3.5 2-.1.1-.1.2-.1.4z"/><path fill="#FFC03B" d="M42.1 94.1c.3-.1.6-.1.9-.2-.3-.7-.5-1.4-.7-1.8-.1.6-.1 1.3-.2 2zM78 86.5c-.1-.3-.1-.5-.2-.8 0 .6.1 1.3.1 2.1.1-.5.1-.9.1-1.3zM45.1 93.4c.1 0 .3-.1.4-.1-.1-.3-.2-.6-.3-1-.1.4-.1.7-.1 1.1zM79.3 89.1v1.1h.1c0-.4 0-.8-.1-1.1zM36.8 95.6c.1 0 .3-.1.4-.1v-.3c-.3-.4-.6-.7-.8-1 .1.4.3.9.4 1.4zM73.5 90.2h.1v-1.3c-.1.4-.1.8-.1 1.3zM82.3 89.2c-.2-.5-.3-.9-.5-1.2 0 .8-.1 1.6-.1 2.2h.2c.2-.3.3-.6.4-1zM84.5 87c0 .1 0 .3-.1.5h.3c0-.2-.1-.3-.2-.5zM124.6 98.5c.1-.1.2-.2.2-.3-.1.1-.2.2-.2.3zM77.5 88.4c0 .5-.1 1.1-.1 1.7h.1v-1.7zM65.7 87.9c.1.9.2 1.8.2 2.6h.3c-.1-.9-.3-1.8-.5-2.6zM68.4 87.4c-.2.6-.5 1.3-.7 2.1 0 .3.1.6.1.9h.5c-.1-.6-.1-1-.1-1 .2.3.4.6.5.9-.1-1.3-.2-2.3-.3-2.9zM71.1 88.3c-.1.4-.3.8-.5 1.2.1.2.1.4.2.7h.3v-1.9zM30.9 96.1c0-.1-.1-.3-.1-.4v.1c0 .1.1.2.1.3zM57.8 89.8c-.1.4-.2.8-.3 1.3 0 .1 0 .1.1.2.1 0 .3 0 .4-.1 0-.4-.1-.9-.2-1.4z"/><path fill="#2D7F67" d="M131.1 91.7c.1-.2.1-.4.1-.5 0 0 0 .2-.1.5zM129.9 97.5c0-.2.1-.3 0-.4.1 0 0 .2 0 .4z"/><path fill="#2D7F67" d="M137.8 96s-.7.7-1.6 2.1V98v.2c-.3.5-.6 1-1 1.6.3-1.2.5-2.3.6-3.1-.4 1.8-1.6 4.5-2.4 6.1-.1 0-.2-.1-.2-.1.9-2.6 2.1-5.4 2.1-5.4-.7.8-1.4 2.2-2 3.7.5-1.7 1-3.7 1-4.6 0 0-1.3 3.8-2.2 5.7-.2-.1-.4-.2-.6-.4.1-.3.2-.6.3-1 .6-.7 1.1-1.2 1.1-1.2-.3.1-.6.2-.9.4.4-1.2.7-2.4.8-3.2 0 0-.7 1.8-1.5 3.8-.3.3-.6.5-.8.8-.1 0-.1-.1-.2-.1.4-2 .9-4.7.8-5.1 0 0-.7 2.6-1.4 4.8-.1-.1-.3-.1-.4-.2.3-1.4.4-2.6.5-3.1-.1.6-.5 1.7-.9 2.9 1-3.2 1.9-7.3 2.2-8.7-.4 1.6-2 5.9-2.8 8.2l-.1-.1c.1-.6.2-1.2.3-1.7l.3-.3c-.1 0-.2.1-.2.1.1-.7.1-1.3.1-1.7 0 0-.2.9-.5 1.9-.2.1-.5.3-.7.5-.2-.3-.3-.6-.4-.9.3-1.5.6-2.7.6-2.7l-.8 2.2c-.1-.4-.3-.7-.4-1.1.2-.2.3-.4.3-.4-.1 0-.2.1-.4.2-.1-.2-.1-.5-.2-.7 0-.2-.1-.3-.1-.5-.2-.9.1-1.9-.1-2.8.3-.5.5-1 .7-1.3 0 0-.3.3-.8 1-.6-2.4-1.3-4.7-1.6-7.2-.1-.8 0-1.6-.1-2.4.4-.5.6-1.1.7-1.7.3-1.4.5-2.7.6-4.2.1-.4.1-.7.3-1.1.5-1.5 1.5-2.6 2.3-3.9.4-.7.6-1.5 1-2.3.2-.4.4-.8.8-1l.1.1c.3.2.6.6.8.8.7.5 1.4.8 2 1.4.5.5.9.9 1.1 1.5.2.6.4 1.2 1 1.4 1.1.4 2.1-.5 2.4-1.5.6-2.1-.8-4-1.3-5.9-.1-.6.2-1.2.1-1.7-.2-1-.8-1.8-1.3-2.8-.1-.1.1-.3.2-.4.6-.6.8-1.3 1.1-2.1.1-.4.3-.6.5-.9h-.3c-.8.7-1.7 1.5-2.8 1.5-.6 0-1.4-.2-1.6-.8-.2-.6-.3-1.2-.5-1.9h-.2c-.4.7-.5 1.4-.9 2.1-.1.2-.3.4-.6.3-.6 0-1.3-.3-1.8-.2-.2 0-.3.1-.5.3.1 0 .3 0 .3.2 0 .1-.2.1-.2.1-.8 0-1.5-.5-2.2-.3-.3 0-.6.2-.9.3.2 0 .5.1.5.3-.1.2-.4.2-.6.2-.4 0-.5-.4-.9-.4-.1 0-.1.1-.1.2 0 .3 0 .6-.3.7-.9.2-1.8.6-2.5 1.3-.1.1.3.1.2.2-.4.4-1-.1-1.5 0 .1.3.5.6.3.8-.1.2-.5.1-.8.2-.6.2-.6.8-.9 1.2.2-.1.4-.1.6-.1-.4.6-.7 1.3-1.3 1.9-.3.4-.9.6-1.3.9-2 .1-4 .7-6 .2-1.8-.5-3.3-1.5-5.1-2.3-.8-.3-1.6-.6-2.5-.6-1.5-.1-3 0-4.5.3-.6.1-1.2.3-1.6.6-1.2-.3-2.5-.2-3.7.1-2.2.7-3.4 2.7-5 4.2-.6.6-1.2 1.3-2 1.8-.9.5-1.9.8-2.9.9-.2.1-.5 0-.7-.1 0 0-.1.1-.1.2.4.2.9.2 1.4.4.4.2.9.1 1.4.2-.9.5-2 .8-3.1.9v.1c.7.3 1.4.5 2.1 1-.1.3-.5-.1-.5.3.6.3 1.3.5 2 .8.6.2 1.1.1 1.6 0 .9-.2 1.7-.6 2.4-1.2 1.2-1 1.9-2.2 2.8-3.3l.6-.6c-.1 1.5.1 3 0 4.4-.1.7-.2 1.4-.6 2-.2.5-.5.9-1 1.2-.6.3-1.2.3-1.7.7-.4.4-.6.9-.8 1.4-.4 1.1-.5 2.2-.8 3.3-.2-.7-.3-1.1-.3-1.1.1.4.1.9.1 1.6-.3.8-.7 1.5-1.4 2.1v-.9c-.2.4-.4 1.1-.5 1.8 0 0 0 .1-.1.1l-.1.1c-.4-.8-.8-1.5-1.4-2 0 0 .2.5.5 1.2-.1.3-.3.6-.4.9-.1 0-.2.1-.3.2-.4.5-.3 1.1-.3 1.6 0 .1.1.2.1.3 0 .2-.1.4-.1.6h-.1v-2.4c.3-.8.6-1.3.6-1.3-.2.1-.4.3-.6.5v-2.7s-.2 1.6-.4 3.3c-.1.2-.3.5-.4.7-.2-.4-.5-.8-.8-1.2 0-1.1.1-2 .1-2-.2.4-.3.9-.5 1.6l-.2-.2s.1.1.2.4c-.2.8-.3 1.6-.4 2.5-.1-2.1-.2-7.6-.1-9.4-.2 1.6-.8 6.6-.7 10.1v-4.2c-.1.4-.2 1.1-.3 2-.1-.8-.3-1.5-.5-2.1 0-1 .1-1.7.1-1.7-.1.1-.2.5-.3 1 .1-1.2.2-2.2.4-2.7 0 0-.4.9-.8 2.3-.2-.9-.4-1.9-.6-2.8-.2-1-2.2-1.4-2.2-2.4s1-2 1.6-2.8c.4-1.2 1-2.6-.2-3.5-1.8-1.2-3.5-2.2-5.7-2-4.5.4-9.1 2.2-13.6.8-1.6-.4-1.6-3.3-1-4.7.6-1 1-2.2 1.6-3.3-.8.2-1.2 1.2-2 1-.4-.2-.2-1-.6-.8-.8.2-.8 1.6-1.6 1.8-2 1-3.3 2.2-4.9 3.5-.4.4.2.8.6 1 1 .2 2 0 3 0 .4 0 .4.6.6.8.4 1.4.2 3 .8 4.1.6 1.2 1.6 2.4 2.6 3.7.6.6 1.6.8 1.6 1.4 0 .6-.4 1.1-.9 1.6 0-.1 0-.2-.1-.3 0 .1 0 .2.1.3-.4.5-.9.9-1.1 1.5-.4 1.1-.6 2.2-.8 3.3-.1-.3-.1-.5-.1-.5l.1.9c0 .5-.1 1.1 0 1.6-.1-.1-.3-.2-.4-.3 0 0 .2.3.4.7 0 .6.1 1.1.1 1.7-.2-.8-.6-1.6-1-2.2.2-.8.3-1.3.3-1.3-.6.6-1 1.5-1.3 2.4-.3-.9-.6-1.7-.8-2.1 0 0 .1.9.3 2-.4-.9-.8-1.7-1.3-2.2-.2-1.3-.4-2.4-.3-3 0 0-.2 1-.2 2.6 0 0-.1 0-.1-.1 0 0 0 .1.1.2 0 .6 0 1.2.1 1.9-.4-1.2-.8-2.2-1.1-2.9.5 1.6.9 4.1 1.2 5.8-.1 0-.2 0-.3.1-.6-2.5-1-5.1-1-5.1-.2 1.1 0 2.6.3 4.2-.5-1.7-1.1-3.7-1.7-4.4 0 0 .8 3.5 1.2 5.6-.2 0-.5.1-.7.1-.1-.2-.1-.5-.2-.7.1-.9.3-1.6.3-1.6-.2.2-.4.5-.5.8-.3-1.2-.7-2.4-1.1-3.2 0 0 .4 1.9.8 4-.1.3-.1.6-.2.9-.1 0-.2 0-.3.1-.7-1.9-1.6-4.1-2-4.5-.4-2.2-.6-4.3-.9-6.4-.6-.7-1.3-1.2-1.9-2-.3-.8-.6-1.4-.6-2-.1-1-.1-2 .1-3 .2-.7.1-1.4.5-2 .4.7.2 1.6.4 2.4l.3 1.5c.1.5 0 1 0 1.6-.1.7.5 1.3.8 1.9 0 .1-.1.2 0 .3.1.1.1.2.2.1.4-.3.4-.9.5-1.3.2-1.2-.7-2.1-1-3.2-.1-.4-.2-.9-.2-1.3 0-.2-.1-.4-.1-.6 0-.3 0-.5-.1-.8 0-.6-.1-1.2-.1-1.8 0-1.1-.2-2.1-.1-3.2 0-.1-.1-.2 0-.3h-.1c.1-.1 0-.2 0-.3.1-.3 0-.5 0-.8-.1-.3-.1-.5-.3-.8-.5-1.3-1.3-2.4-2.4-3.2-.5-.3-.9-.8-1.4-1.1-.2 0-.3-.1-.4-.1-.9-.7-1.8-1-2.8-1.5-1.2-.6-2.4-1.1-3.1-2.3-.5-.9-1.2-1.4-1.7-2.3-.1-.1-.3-.1-.3-.3-.3-.7-1-1.1-1.4-1.8-.4-.5-.8-1-1.1-1.6-.5-.8-.9-1.6-1.4-2.4-.3-.4-.5-.9-.6-1.4-.3-1.4-.1-2.8-.2-4.2-.1-1.5 0-2.9.2-4.4.1-.6.1-1.1.2-1.7 0-.1 0-.2.1-.3.1-.4.1-.8 0-1.2 0-.7 0-1.4-.1-2.1-.1-.6-.2-1.2-.2-1.9 0-.5-.1-1.1-.1-1.6 0-.1-.1 0-.1-.1 0-.2-.1-.4-.1-.5-.4-.6-.4-1.4-.7-2.1 0-.1-.1-.3-.1-.4-.1-.3-.2-.7-.4-1-.6-.7-1.4-1.2-2.3-1.5-.1 0-.2-.2-.2-.2 0-.7.1-1.3.4-1.9 0-.1-.1-.2-.2-.2-.4-.1-1.1-.3-1.2.2-.1.5.2 1 .1 1.5-.1.3-.3.6-.5.5-.6-.3-.9-.8-1.4-1.1-.3-.1-.8-.3-.9 0-.1.8.5 1.6 1.2 2-.2.2-.5.2-.7.4-.2.2-.5.4-.7.6-.1.3-.3.6-.4.8 0 .1-.1.2-.2.3-.3.7-1 1.2-1.5 1.7-.4.3-.9.4-1 .9-.1.4-.6.6-.8 1 0 .2.1.3.2.3.2.1.5-.1.7 0 .3.1.6.2.9.1.5 0 .7-.6 1.2-1 .2-.1.4-.1.6-.2.8-.1 1.5 0 2.2-.2.4-.1.9-.1 1.2-.3.2.3.3.7.4 1.1.1.4.1.8.1 1.2.1 1.5-.1 2.8-.3 4.3-.2 1.4-.5 2.6-.7 4.1v.4c0 .2-.1.4-.2.7-.4 2.4-.7 4.6-.9 7-.1 1-.1 2.1-.1 3.1 0 1.3.4 2.5.6 3.8.1.5.1 1 .1 1.5-.1.8-.5 1.4-.8 2.1-.1.2-.3.3-.4.6v.4c0 .1-.2 0-.2.1-.1.7-.1 1.4.1 2.1.1.1.1.2.2.3v.2c0 .1.2.1.2.1-.1.2.1.3.2.4.1.2.4.4.5.7.4 1.5 1 2.7 1.9 3.9.2.2.2.5.3.7.1.2.1.4.2.5.3.8.6 1.5.8 2.3.1.5.3.9.4 1.4.1.4.4.7.4 1.1.1.4.3.7.4 1.1.4 1.1.8 2.2.9 3.4v.7c0 .9 0 1.9.1 2.8.1.4.2.9.5 1.2.2.2.2.5.4.7.1.3.3.7.3 1.1.1.4.2.7.2 1.1 0 .2.1.4.1.6.1.4.1.9.2 1.4.3.9.5 1.8.7 2.7.1.5.2 1 .2 1.5-.1-.2-.3-.4-.4-.6 0 0 .2.5.5 1.3.1.5.1.9.1 1.4-.5-1.1-.9-2.3-1.1-3.3.1.7.3 1.8.6 3.1-.3-.6-.7-1.2-1-1.6v-.2.1l-.6-.9c-.6-.8-1-1.2-1-1.2.4.5.9 1.5 1.4 2.7-.2 1 0 2.3.3 3.5-.5-.5-1.1-.9-1.7-1.2 0 0 .4.4.9 1-.1.5-.1 1.2 0 1.9-.1.1-.2.1-.4.2l-.2-.6c0-.8.1-1.4.1-1.4-.2.2-.3.4-.4.7l-.9-2.5s.3 1.5.7 3.2c-.1.3-.1.5-.1.8-.3-.3-.7-.6-1.1-.9-.3-1.1-.5-1.9-.5-1.9 0 .4 0 1 .1 1.7-.1 0-.2-.1-.2-.1l.3.3c.1.5.2 1.1.3 1.7 0 0-.1 0-.1.1-.8-2.3-2.4-6.6-2.8-8.2.3 1.4 1.1 5.4 2.1 8.5-.4-1.1-.7-2.2-.8-2.7.1.6.2 1.7.5 2.9-.1.1-.3.1-.4.2-.7-2.2-1.3-4.6-1.3-4.6-.1.4.4 2.9.8 4.9-.1 0-.2.1-.3.1-.2-.2-.4-.5-.7-.7-.8-1.9-1.5-3.8-1.5-3.8.1.8.4 2.1.8 3.2-.3-.2-.6-.3-.9-.4 0 0 .5.5 1.1 1.2.1.3.2.6.3.8-.2.1-.4.2-.6.4-.8-2-2.1-5.5-2.1-5.5-.1.9.5 2.9 1 4.6-.6-1.4-1.3-2.8-2-3.7 0 0 1.1 2.7 2 5.2-.1.1-.2.1-.3.2-.8-1.6-1.9-4.2-2.3-6 .1.7.3 1.8.6 3.1-.3-.6-.7-1.2-1-1.6v-.2.1c-.9-1.4-1.6-2.1-1.6-2.1.4.5.9 1.5 1.4 2.7-.3 1.8.8 4.8 1.1 5.8l.5-.1V130h117v-25.5c1-1.1 1.5-4 1.2-5.7.1-1.3.9-2.3 1.2-2.8zm-119.9 8c-.3-1-.6-2.2-.8-3.2.4 1.1.8 2.2 1.1 3-.1.1-.2.2-.3.2zm7.4-4.1c-.1-.2-.1-.4-.2-.7.1.2.3.4.4.5l-.2.2zm99.6-2.9zm-.4-1.7c-.1.4-.2.9-.3 1.3-.1.5-.3 1-.4 1.5-.1 0-.2-.1-.3-.1.3-.8.6-1.7 1-2.7zm-29.7-4.1c.1-.5.2-1.1.3-1.7.1.4.2.8.3 1.3-.1.2-.1.3-.2.5-.1-.1-.3-.1-.4-.1zm2.5.3c.2-1.1.4-2.1.6-2.7.2.6.3 1.4.5 2.2-.1.2-.1.4-.2.7-.2 0-.4 0-.5-.1.1-.5.2-.8.2-.8-.3.2-.4.5-.6.7zm1.9.3c.3-.9.6-1.9 1-2.7-.2 1-.4 2-.6 2.8-.2-.1-.3-.1-.4-.1zm8.2 1.4c.1-.4.2-.8.4-1.2 0 .4.1.8.1 1.3-.2 0-.3 0-.5-.1 0 .1 0 0 0 0zm2.7.7c-.1 0-.2 0-.3-.1.3-.8.6-1.6.8-2.1.1.6.1 1.4.2 2.2v.1c-.2 0-.4-.1-.5-.1.1-.1.1-.2.1-.2-.2 0-.2.1-.3.2zm2.8.7c.1-.1.3-.2.4-.3 0 .1-.1.3-.1.4 0 0-.2-.1-.3-.1zm1-.6c-.1.2-.1.5-.2.7 0-.2 0-.4-.1-.6.1 0 .2 0 .3-.1zm-.2-1.4c.2-.2.4-.5.6-.7 0 .1-.1.3-.1.4-.1.1-.2.2-.4.3h-.1zm.6 2.4c.1-.4.1-.7.2-1.1.1 0 .3-.1.4-.1l-.4 1.3c-.1-.1-.2-.1-.2-.1zm1.4-1.2v-.3c.2 0 .3-.1.5-.1-.2.2-.4.3-.5.4zm.8-.1c-.2.6-.4 1.2-.5 1.8-.1 0-.2-.1-.3-.1v-.6c.3-.4.6-.8.8-1.1zm7.6.5c0 .1 0 .1.1.2-.1.1-.1.2-.2.3 0-.2 0-.4.1-.5zm-.5-1l.3.6c-.5 1.3-1.2 2.8-1.6 3.8-.1 0-.2-.1-.3-.1.5-1.6 1.2-3.3 1.6-4.3zm-.6-1.5c.2.4.3.8.5 1.1-.5.8-1 1.9-1.5 2.9.4-1.4.9-3 1-4zm-3.1.2c.4-.1.7-.2 1-.5.9-.7.8-1.8.9-2.8.3.4.4.9.6 1.4.2.5.3 1 .5 1.5-.3.9-1.4 4-2.1 5.6-.2-.1-.4-.2-.7-.2.1-.3.3-.8.4-1.3.6-.7 1.1-1.2 1.1-1.2-.3.1-.6.2-.9.4.4-1.2.7-2.4.8-3.2 0 0-.7 1.8-1.5 3.8-.4.3-.7.7-1.1 1.1.4-1.6.8-3.4 1-4.6zm-.3.1c-.3 1.1-.8 2.8-1.3 4.2-.1 0-.2-.1-.4-.1.3-1.6.5-3.1.6-3.8-.2.7-.6 2.2-1.1 3.6.4-1.1.8-2.4 1.1-3.6h.1v0c.4-.2.7-.3 1-.3zm-2.8 3.4c.2-.8.3-1.6.4-2.4l.6-.3c-.4 1-.8 2-1 2.7zm2.4-5.7c.1-.4.2-.7.2-1 0 .3-.1.7-.2 1zm-14.5-5.3c.4-1.5.5-2.9 1-4.4 0-.1 0-.3.1-.3 1.9.4 3.3 1.8 5.1 2.3 2.2.6 4.5.4 6.7.7.1.5.2 1.1.4 1.6.4 1.2 1.1 2.5 1.2 3.7-.2.7-.5 1.5-.8 2.3-.1.1-.3.1-.4.2-.8.3-1.5.5-2.3.8.2-.9.3-1.6.3-1.6l-.6 1.7c-.2.1-.3.1-.5.2 0 0-.1 0-.1.1 0 0 0-.1-.1-.1v.1c-.2.1-.3.2-.4.3v-.4c.5-.6.9-1 .9-1-.7.3-1.4.8-1.9 1.4-.1 0-.1-.1-.2-.1.1-.8.2-1.5.1-1.9 0 0-.2.8-.5 1.8-.3 0-.6.1-.8.3.3-.8.4-1.5.4-1.5-.3.4-.7 1.2-1.1 2-.2-.9-.4-1.8-1-2.5 0 0 .1.5.2 1.3-.5.6-1 1.4-1.3 2.3-.1 0-.2 0-.2-.1l.3-1.3c.5-.7.9-1.1.9-1.1-.2.1-.5.2-.7.4l.6-2.6s-.6 1.4-1.2 3.1c-.2.2-.4.4-.5.6-.1-.5-.3-.9-.5-1.3.3-1.1.6-1.9.6-1.9-.3.3-.5.8-.8 1.4 0-.1-.1-.2-.1-.2s0 .2.1.4c-.2.4-.4.8-.6 1.3 0-.1-.1-.2-.1-.3.6-2.5 1.5-6.4 1.9-7.8-.4 1.1-1.5 4-2.4 6.8 0 0 0-.1-.1-.1.1-.5.3-.9.4-1.1-.1.2-.3.6-.4 1-.2-.3-.3-.6-.5-.9.3-1.2.6-2 .6-2-.2.2-.5.8-.8 1.6-.6-1.1-1-2.2-1.1-3.5-.1-.7.1-1.2.2-1.7zm-.6 6.2c.2.5.3 1 .4 1.5-.1.2-.1.4-.2.5h-.1c-.1-.4-.1-.8-.2-1.2 0-.3 0-.5.1-.8zm-.3-.7s0 .1 0 0c0 .3-.1.5-.1.7-.1-.3-.3-.6-.5-.8 0 0 .2.7.3 1.6-.1.4-.2.7-.2 1-.2 0-.5-.1-.7-.1.2-1 .5-2.3.7-3.5.1.4.3.7.5 1.1zm-1.4-2.5c.2.3.3.6.5.8-.3.8-.6 1.7-.8 2.6.1-1.2.3-2.4.3-3.4zm-.2-.2c-.2.9-.6 3-1 4.9-.1 0-.2 0-.3-.1.2-1.5.5-3.7 1-5.4l.3.6zm-1.2 1.6c.1-.7.1-1.3.1-1.9 0-.1.1-.2.1-.2s-.1 0-.1.1c0-.7 0-1.2-.1-1.6 0 .1.1.1.1.2.3.4.5.8.7 1.3-.2.5-.5 1.3-.8 2.1zM88.5 86c.1-.4.2-.8.4-1.2.4-.9.9-1.7 1.5-2.5.5-.5.9-.9 1.5-1.2 1.3-.6 2.4-1.3 3.6-1.9.6-.3 1.2-.3 1.8-.4.3-.4.7-.8 1-1.2.2-.4.3-.8.5-1.1.1-.2.3-.4.5-.3.1 0 .1.2.2.4.4.8 1.2 1 1.7 1.7.5.8.4 1.7.3 2.6-.1 1.3-1 2.7-.6 4.1 0 .6-.2 1.5-.3 2.4-.5.5-1 1.4-1.3 2.2.2-1.1.3-2 .3-2-.3.5-.6 1.2-.8 2.1-.3-.9-.7-1.7-1.3-2.4 0 0 .1.5.3 1.3-.5.7-.9 1.8-1.2 2.9h-.2l.2-1.8c.4-.7.7-1.2.7-1.2-.2.1-.4.3-.6.4l.3-2.7s-.4 1.5-.8 3.2c-.2.2-.3.4-.5.7-.2-.4-.4-.9-.6-1.2.2-1.1.3-2 .3-2-.2.3-.4.9-.6 1.5l-.2-.2s0 .2.1.4c-.2.7-.5 1.6-.7 2.4.2-2.1.7-7.6 1-9.3-.4 1.5-1.4 6-1.8 9.5.1-1.5.3-3 .5-3.7-.2.6-.6 2-1 3.6h-.4c.3-2.5.8-5.5.8-5.5-.3.4-1 3.3-1.5 5.4-.1-.5-.3-1-.5-1.5.1-2.1.3-4 .3-4-.3.8-.5 2.1-.7 3.3-.2-.3-.4-.5-.6-.7 0 0 .2.6.5 1.6-.1.5-.1 1-.1 1.3-.2 0-.5 0-.7-.1.1-2 .5-6.2.5-6.2-.4.8-.8 2.8-1.1 4.6 0-1.5 0-3.1-.3-4.2 0 0-.2 3-.4 5.7h-.3c.1-1.5.1-3.3.3-4.8zm-1.6 2.7c.1 0 .1-.1.2-.1-.1.7-.1 1.3-.2 1.9h-.3l.3-1.8zm-1.8 1.7h-.5v-.1c.2 0 .4-.1.5-.1v.2zm-.6-3.4c.1.2.1.3.2.5h-.3c.1-.2.1-.3.1-.5zm-2.7 1c.1.4.3.8.5 1.2-.1.3-.2.7-.3 1h-.2V88zm-2.5 1.1c0 .4.1.7.1 1.1h-.1v-1.1zM78 86.5c0 .4-.1.8-.1 1.3 0-.8-.1-1.5-.1-2.1.1.3.2.5.2.8zm-.5 1.9v1.7h-.1c0-.5 0-1.1.1-1.7zm-35.4 5.7c0-.7.1-1.4.2-2 .2.4.4 1.1.7 1.8-.3.1-.6.1-.9.2zm3-.7c0-.4.1-.7.1-1 .1.3.2.6.3 1h-.4zm12.4-2.3c.1-.5.2-.9.3-1.3.1.5.1.9.2 1.4-.1 0-.3 0-.4.1 0-.1 0-.1-.1-.2zm8.2-3.2c.2.8.4 1.7.6 2.6H66c-.1-.8-.2-1.7-.3-2.6zm2.6 2.5h-.5c0-.3-.1-.6-.1-.9.2-.7.5-1.5.7-2.1.1.6.2 1.7.3 2.9-.1-.3-.3-.6-.5-.9 0-.1.1.3.1 1zm2.3-.8c.2-.5.3-.9.5-1.2 0 .7 0 1.3.1 1.9h-.3c-.1-.3-.2-.5-.3-.7zm2.9.6c0-.4 0-.9.1-1.3v1.3h-.1zm1.9-.1v-1.4-.1V90c.1.1 0 .1 0 .1zm.6-2.5c0-.1.1-.1.1-.2v.8c-.1-.2-.1-.4-.1-.6zm-12.7-6.7c2.8-.2 5.7-.4 8.3-1.8 1.2 1.2 2.5 2.2 3.5 3.5-.1.2-.1.5-.1.8.1-.4.1-.6.1-.8.3.4.6.8.9 1.3.2.3.3.7.4 1-.1.7-.2 1.6-.2 2.5l-.1.1c-.1-1.3-.4-2.5-.7-3.3 0 0 .1 1.8.2 3.8 0-1.2-.1-2.5-.3-3.3 0 0 0 1.4-.1 3.1-.1-1.5-.2-3.1-.1-4.3-.1.7-.3 1.9-.4 3.1-.1-.7-.3-1.3-.4-1.9v-.2l-.1.1c-.4-1.6-.8-2.5-.8-2.5.2.6.3 1.7.4 3 0 0 0 .1-.1.1-.1-.3-.1-.6-.2-.7 0 0 0 .4.1 1.1-.3.7-.4 1.6-.6 2.4-.1-.7-.2-1.3-.3-1.6.1.7.1 2.3.1 3.8.1-3.5-.5-8.2-.7-9.7.1 1.8 0 7.3-.1 9.4-.1-.8-.2-1.7-.4-2.5l.2-.4-.2.2c-.1-.7-.3-1.2-.5-1.6 0 0 0 .9.1 2-.3.4-.5.7-.8 1.2-.1-.2-.2-.5-.4-.7-.2-1.7-.4-3.2-.4-3.2v2.7c-.2-.2-.4-.4-.6-.5 0 0 .3.5.6 1.3v2.1h-.1c-.1-1.2-.4-2.4-.8-3.3.3-.7.5-1.2.5-1.2-.7.6-1.2 1.4-1.5 2.2-.2-.9-.4-1.7-.6-2.2 0 0 .1 1.7.1 3.3-.1.2-.1.3-.1.5-.3-1.3-.7-2.7-1.3-3.6-.1-1.3-.1-2.5.1-3.1 0 0-.3 1-.5 2.6l-.1-.1s0 .1.1.2c-.1.6-.1 1.2-.2 1.9-.3-1.2-.5-2.3-.7-3 .3 1.7.4 4.3.4 6.1h-.3c-.2-2.6-.4-5.4-.4-5.4-.3 1-.3 2.6-.3 4.2-.1-1-.3-2.1-.5-3-.4-2-.4-3.8-.1-5.7zm-.8 9.9h-.2c0-.3-.1-.6-.1-1 .1-.4.2-.7.3-.9.1.6.1 1.3 0 1.9zm-1.8-8.9c1.2 1.4 1 3.2 1.4 4.7.2.6.3 1.2.4 1.8-.1.1-.2.3-.4.5-.2-1.2-.4-2.5-.7-3.3 0 0 .2 1.9.3 4-.2.4-.3.8-.4 1.2h-.1c-.5-2-1.2-4.7-1.5-5.1 0 0 .5 2.7.8 5.2h-.4c-.4-1.4-.7-2.7-.9-3.3.2.7.3 2 .5 3.4-.3-2.4-.9-5.3-1.3-7.3.5-.6 1.5-1.1 2.3-1.8zm-3.3 3c.2-.4.4-.7.7-1 .3 2.3.6 5.6.7 7.2-.2-.8-.4-1.6-.6-2.3.1-.2.1-.4.1-.4l-.2.2c-.2-.6-.4-1.2-.6-1.5 0 0 .1.9.3 2-.2.4-.5.8-.6 1.2-.1-.2-.3-.5-.5-.7 0-.1-.1-.3-.1-.4 0-1.5.1-3 .8-4.3zM55 89.2c.1.5.3 1.4.6 2.4h-.2c-.1-.1-.2-.3-.3-.4 0 0 0 .2.1.5-.2 0-.4 0-.5.1 0-.1-.1-.2-.1-.3.1-.9.3-1.7.4-2.3zm-1.4 2.6h-.3c-.2-.7-.4-1.6-.6-2.5.3.9.6 1.7.9 2.5zm-5.7 1c-.1 0-.2 0-.3.1 0-.1 0-.2-.1-.3-.1-.5-.1-1-.3-1.5-.1-.1-.1-.2-.2-.3v-.4c-.2-.7-.3-1.3-.5-2 .3.7.9 2.6 1.4 4.4zM41 86.2c.2-1 .2-2 .4-3 .1-.5.1-1 .2-1.6 0-.2 0-.5.1-.4.7.6 1.3 1.2 1.8 1.9.7.9 1.2 1.8 1.4 2.9.1.6.3 1.1.4 1.7-.5-1.4-.9-2.6-1.2-3.2.5 1.6 1.6 6.3 2.1 8.7h-.1c-.3-.6-.5-1.3-.8-1.8 0-.3.1-.4.1-.4-.1.1-.1.2-.1.2-.3-.6-.6-1.1-.8-1.4 0 0 .3.9.6 1.9-.2.4-.3.9-.4 1.3-.2-.2-.4-.4-.5-.6-.6-1.6-1.2-3.1-1.2-3.1l.6 2.6c-.2-.2-.4-.3-.7-.4 0 0 .4.5.9 1.1l.3 1c-.1 0-.2 0-.3.1-.4-.8-.8-1.5-1.2-2 .1-.8.2-1.3.2-1.3-.5.7-.8 1.6-1 2.5l-.8-1.6c.1-1.1.3-2.3.3-3.4-.2-.5-.4-1.1-.3-1.7zm-.3 5.5c.2.6.5 1.5.7 2.5v.1c-.1 0-.2.1-.4.1-.2-.2-.3-.5-.5-.8.1-.6.1-1.3.2-1.9zm-9.6-18.8c.4.1.9.2 1.4.2.9.1 1.9 0 2.5-.6.5.5.5 1.2.8 1.9l.3.6c.3.9.7 1.7 1.3 2.5v.2c.3.5.6 1 1.1 1.3.1.9.1 1.8.3 2.8.1.4.3.8.3 1.2.3 1.3.5 2.6.4 4 0 .5-.3.9-.3 1.4-.1.9.2 1.8.2 2.7v1c-.5-.5-1.1-1-1.8-1.2 0 0 .4.4.9 1-.1.9 0 2 .2 3-.1 0-.1 0-.2.1l-.6-1.6c0-.8.1-1.4.1-1.4-.2.2-.3.4-.4.7l-.9-2.5s.3 1.5.7 3.2c-.1.3-.1.5-.1.8-.3-.3-.7-.6-1.1-.9-.3-1.1-.5-1.9-.5-1.9 0 .4 0 1 .1 1.7-.1 0-.2-.1-.2-.1l.3.3c.1.8.3 1.6.4 2.5-.7-2-2.6-7.1-3.1-8.9.3 1.5 1.2 5.9 2.3 9.2-.5-1.4-.9-2.7-1.1-3.4.1.6.3 2 .6 3.5-.1 0-.3.1-.4.1-.9-2.3-1.6-5.1-1.6-5.1-.1.4.2 2.2.6 4-.6-2.7-1.3-5.2-1.8-7.9-.2-.9-.4-1.7-.4-2.5-.1-.7-.2-1.3-.3-2 0-.2-.2-.4-.2-.6.1-.9-.4-1.7-.2-2.6-.3-.4-.4-1-.5-1.4-.3-2-.4-4-.5-6 .5.2.9.6 1.4.7zm8.2 20.3c0 .2 0 .5-.1.7 0 .3 0 .7-.1 1-.2-1.1-.4-2-.5-2.6.2.2.5.6.7.9zm-2.1 2.2c-.1 0-.3.1-.4.1-.1-.5-.3-1-.4-1.5.3.3.5.7.8 1v.4zM32 95c-.2-.1-.5-.3-.7-.3l.9.9v.1l-.1.6s-.1.3-.2.5c-.4-1-.9-2.3-1.3-3.4 0-.3 0-.6-.1-.7 0-.3-.4-2.6-.7-3.8-.3-1.2-.4-4.2-.4-4.2L32 95zm-1.1 1.1c0-.1-.1-.2-.1-.3v-.1c0 .2.1.3.1.4zm-3.3 2.8c-.1-.6-.2-1-.3-1.4.3.3.6.7.9 1.1l-.6.3zm1.6-.7c-.1 0-.1 0-.2.1-.1-.5-.3-.9-.4-1.3-.1-.5-.2-.9-.3-1.3.3.8.6 1.6.8 2.3.1 0 .1.1.1.2zm95.4.3c0-.1.1-.2.2-.3.1-.1.1-.2.2-.3 0 .2 0 .4.1.6v.2c-.2-.1-.3-.2-.5-.2zm3.1.8l-.1-.1c.1-.1.1-.2.2-.2 0 0 0 .1-.1.3zm7.3 4.6c-.1-.1-.2-.1-.3-.2.3-.9.7-2 1.1-3.2-.2 1-.5 2.3-.8 3.4z"/><path fill="#2D7F67" d="M135.9 96.8c.1-.4.1-.7.2-1-.1 0-.1.4-.2 1zM23 97.9c0-.2-.1-.4-.1-.4s.1.2.1.4zM21.8 92c-.1-.3-.1-.5-.1-.5 0 .2 0 .3.1.5zM17 97.1c-.1-.6-.2-.9-.2-.9.1.2.1.6.2.9zM72.6 86.4c0-.2 0-.3-.1-.4 0 0 .1.1.1.4zM59.1 87.7c0-.2-.1-.3-.1-.4 0 0 0 .2.1.4zM71.9 80.4c0-.2 0-.4-.1-.5.1 0 .1.2.1.5zM44.1 84.5c-.1-.2-.1-.4-.2-.5 0 .1 0 .2.2.5zM93.8 87.4c.1-.2.1-.4.1-.4s-.1.2-.1.4zM34.3 92.7v-.4c-.1 0 0 .2 0 .4zM108.9 84.2c.1-.3.2-.5.2-.5-.1.1-.2.3-.2.5zM106.8 89.7l.2-.4c-.1.1-.2.3-.2.4zM64.2 84.5c-.1-.4-.2-.7-.3-.9.1 0 .2.3.3.9zM95.2 81.6c.1-.3.1-.5.1-.5-.1.1-.1.2-.1.5zM33.1 86.8c-.1-.3-.1-.5-.1-.5 0 .1 0 .3.1.5zM100 47.2s1.3-2.9 3.7-2.1c0 0-2.8-1.2-3.6.5 0 0-1.5-1.7-3.5-.7 0 0 3.1.2 3.4 2.3zM80.3 86c0-.2.1-.4.1-.4 0 .1-.1.2-.1.4zM57.8 81.9c0-.2-.1-.4-.1-.5-.1 0 0 .2.1.5zM50.8 86.2c-.1-.3-.2-.7-.4-.9 0 .1.2.4.4.9zM81 80.1c0-.3.1-.5.1-.5-.1.1-.1.3-.1.5zM62.3 41.9s.1-2.8 2.4-3c0 0-2.8-.1-2.8 1.6 0 0-1.8-.9-3.2.6 0 0 2.7-1 3.6.8zM28.3 91.9c-.1-.6-.2-.9-.2-.9.1.2.1.6.2.9zM92.6 52.5s.7-1.5 1.9-1.1c0 0-1.4-.6-1.9.2 0 0-.8-.9-1.8-.4 0 .1 1.7.2 1.8 1.3zM66.7 46.1s.8-1.8 2.4-1.3c0 0-1.8-.8-2.3.3 0 0-.9-1.1-2.3-.5 0 0 2 .1 2.2 1.5z"/></svg>