<svg xmlns:xlink="http://www.w3.org/1999/xlink"  xmlns="http://www.w3.org/2000/svg" viewBox="0 0 1500 1500"><path fill="#00778C" d="M1313 523c-91-212-302-361-547-361-286 0-525 202-582 471 6 10 12 21 19 31 11 16 24 31 40 43 24 0 33 15 47 24-2-30-8-73 6-95 19 5 27 22 40 34 20-23 6-80 27-102-6-8-16-10-23-20-4-6-4-13-7-20-9-20-24-44-9-66 10 21 47 63 70 67 13 2 26-3 37-9 3-10 13-15 19-25 8-14 11-33 20-46 4-6 10-13 16-17 12-9 38-26 59-26s31 16 50 19c18 2 38-7 56-8 41-4 66 14 98 21 47 11 105 9 151-4 21-6 46-17 68-17 11 0 31 5 46 8 15 4 27 13 43 19 29 10 64 5 102 11 33 5 49 28 70 47 22 19 47 40 68 65 7-7 21 3 38 15-3-3-20-54-22-59z"/><path fill="#00B8DA" d="M1334 657c3 46-7 93-24 126-9 16-20 31-29 46-10 16-16 34-26 49-3 6-11 9-14 15-18 26-30 64-39 98-3 11-4 25-10 35s-19 12-24 23c-10 21 4 35 7 56-37 4-87 4-126 1 8-24 33-27 43-46 6-13 11-44 7-60-3-12-15-25-19-40-7-27 1-61-18-74-51 27-126 52-210 33-7 20-12 45-14 69-2 17-2 42 1 58 5 24 28 37 29 61-41 2-87 7-128 3-10-28 19-32 24-49 8-26-10-50-16-73-6-26-7-53-20-70-13-5-28-19-43-17-14 2-12 15-24 20 2 31 11 54 9 83-1 21-18 39-17 56 1 23 24 28 24 51-36 12-85 10-132 10-10-25 13-30 24-39 15-12 28-34 24-65-1-15-8-36-13-47-8-19-31-35-46-53-16-21-24-41-33-66-16-1-21 18-33 26-7 5-16 7-23 11-38 24-71 73-123 52-21 11-59 11-76-4-4-33-7-59 3-88-18-14-25-40-43-55-6-31-24-55-32-87 0-2-1-4-1-5-2 20-3 39-3 59 0 329 267 596 596 596s596-267 596-596c0-43-5-84-13-124 0 0 7 21 0 0 0 0-30-47-36-40 10 16 19 36 21 61z"/><path fill="#00778C" d="M1355 531l-15-36c-100-217-320-369-574-369-349 0-632 284-632 632 0 349 284 632 632 632 349 0 632-283 632-632 0-80-16-156-43-227zm-589 835c-335-1-607-273-608-608 0-33 3-65 8-96 2-14 5-27 8-41 63-269 303-471 592-471 253 0 469 155 561 375 5 11 8 22 13 34 22 63 35 130 35 200-2 334-274 607-609 607z"/></svg>