<svg xmlns:xlink="http://www.w3.org/1999/xlink"  version="1" xmlns="http://www.w3.org/2000/svg" viewBox="0 0 150 150"><path fill="#00AE4D" d="M67.2 75.6c2.5-.1 4.5-2.1 4.4-4.6 0-2.5-2.1-4.5-4.6-4.4-2.5 0-4.5 2.1-4.5 4.6.1 2.4 2.2 4.4 4.7 4.4M84.1 75.2c2.5 0 4.5-2.1 4.4-4.6 0-2.5-2.1-4.5-4.6-4.5-2.5 0-4.5 2.1-4.4 4.6.1 2.5 2.1 4.5 4.6 4.5"/><path fill="#ECB11F" d="M58.6 50.7c1.3-2.1-6-10.2-8.8-8.7-4.2 2.1-2.8 12.2-2.8 12.2 4.6.8 10.3-1.4 11.6-3.5M69.9 82.1c.8 1.9 2.6 4.3 5 5.8.1.1.1.4.1.7-.7 3.2-12.3 15.8-22.1 2.5-.6-.9-1.7-1.2-2.6-.7-.9.6-1.2 1.7-.6 2.6 5.8 12.1 22 7.4 27.3-.6.1-.1.4-.1.5 0 5.6 8.1 24.5 12.5 27.4-1.3.5-.9.1-2.1-.9-2.6-.9-.5-2.2-.2-2.6.8-5.7 16.4-21.7 2.4-22.4-1.3-.1-.2 0-.4.1-.5 1.6-1.6 3-4.2 3-5.9 0-.6-.1-1.1-.5-1.4-1.8-1.5-7.2-1.8-11.3.1-.5.1-.7 1.3-.4 1.8M105.4 50.9s.7-9.4-3.7-11.7c-2.8-1.4-9.5 6.8-8.1 8.9 1.4 2 7.2 3.9 11.8 2.8M42.2 81.2c-.2.9-.8 1.5-1.3 1.3l-31.3-14c-.5-.2-.7-1.2-.5-2.1.2-1 .8-1.5 1.3-1.3l31.3 14.1c.5.2.7 1.1.5 2zM41.7 85.6c-.1 1-.6 1.6-1.1 1.5L8.3 78.9c-.5-.1-.8-1-.6-2 .1-1 .6-1.7 1.1-1.5l32.3 8.3c.5.1.7 1 .6 1.9zM41.2 90c0 1-.5 1.7-1 1.7L7.3 89.2c-.5 0-.9-.9-.8-1.9 0-1 .5-1.8 1-1.7l32.9 2.5c.5.1.9.9.8 1.9zM110.1 80c.2.9.7 1.6 1.1 1.4l32.2-11.8c.5-.2.8-1.1.6-2-.1-1-.7-1.6-1.1-1.4L110.7 78c-.5.2-.8 1.1-.6 2zM110.3 84.5c.1 1 .5 1.7 1 1.6l32.8-6c.5-.1.8-.9.8-1.9-.1-1-.5-1.7-1-1.6l-32.8 6c-.6 0-.9.9-.8 1.9zM110.4 88.8c0 1 .4 1.8.9 1.8l33-.1c.5 0 .9-.8.9-1.8s-.4-1.8-.9-1.8l-33 .2c-.4-.1-.9.7-.9 1.7z"/></svg>