<svg xmlns:xlink="http://www.w3.org/1999/xlink"  xmlns="http://www.w3.org/2000/svg" viewBox="0 0 1500 1500"><path fill="#8ED3D8" d="M437 1009c88-18 179-44 325-122 159-84 307-200 427-214 82-9 148 22 193 56 34 6 54 15 54 15s-101-139-262-121c-121 13-268 129-427 214-170 90-264 111-367 130-101 18-170 14-170 14s72 38 227 28z"/><path fill="#39A3DB" d="M1445 859s-97-142-259-128c-121 10-272 123-432 203-172 86-267 105-370 121s-172 10-172 10 123 70 401 11c192-41 398-155 530-208 175-70 302-9 302-9z"/><path fill="#154577" d="M518 448c-8 40 14 78-1 117-27 70-144 63-232 110-11 6-23 21-34 27-78 44-146 25-196 23 50 26 108 33 180 12 34 75-13 113 20 187 12 9 37-2 49-13-5-18-24-4-31-18-1-14-2-27 6-36 12 10 18 33 33 37 15-4 23-11 33-17-5-26-30-7-36-31 0-19 18-30 28-44 65 27 169-58 243-41 4 11 12 32.1 17 43.1 0 0 42-29 65-49-6-16-25-19.1-35-26.1 57-57 5-153 3-230 34-11 59-25 59-51-13-18-38-11-58-13-25-30-88-26-113 13z"/><path fill="#298CA4" d="M869 757s20-40 35-85 19-97-1-108c-28-16-90 58-151 114-62 58-137 118-184 145s-98 57-178 79c-84 22-149 36-175 38-23 1-47 3-47 3s153 23 304-25c155-49 268-142 337-197 40-32 45-20 45-5s-21 64-21 64l36-23z"/></svg>