<svg xmlns:xlink="http://www.w3.org/1999/xlink"  version="1" xmlns="http://www.w3.org/2000/svg" viewBox="0 0 150 150"><path fill="#77A340" d="M34 73.1c.7-6.8 3.1-13.5 7-19.2 6-8.7 15.4-15.1 25.8-17.1 8.5-1.8 17.7-.8 25.6 2.9 9.3 4.2 16.8 12 20.9 21.2 3.6 8.4 4.3 17.9 2.1 26.7.9.3 1.9.5 2.9.6.1-1.6 1-3.1.6-4.6.2.4.4-2.3.6-3.9.7-11-3.1-22.3-10.2-30.7-4.9-5.9-11.4-10.6-18.7-13.2-10.8-4-23.2-3.6-33.6 1.2-10.6 4.7-19.1 13.8-23.2 24.7C32 66.2 31.1 71.1 31 76c.2-.2 1.2-1.3 3-2.9zM34 93.6c.4.9.9 1.8 1.1 2.8 1 .1 2 0 3.1-.1-.3-1.3-1-2.5-1.5-3.7-1.2-3.1-2.1-6.3-2.5-9.6-.6.7-1.4 1.7-2.4 2.8.5 2.6 1.2 5.3 2.2 7.8z"/><path fill="#77A340" d="M137.2 100.9c-5.1-4.2-10.8-7.5-16.9-9.8-12.9-4.9-27.2-5.1-40.7-2.6-8.3 1.3-16.2 4.3-24.4 6.3-7.4 1.8-14.9 3.5-22.5 3.8-4.5.4-9.1.1-13.6-.6-4.8-.9-9.4-2.7-14-4.4 4.1 1.8 8.2 3.6 12.5 5 5.6 1.9 11.4 3 17.2 3.4 7.4.4 14.9.1 22.2-1 8.1-1.1 16.1-3.3 24-5.3 5.6-1 11.2-1.8 16.9-1.7 13.4-.2 26.8 3.3 38.7 9.6 2.5 1.3 4.8 2.8 7.3 4.1-1.8-2.6-4.3-4.7-6.7-6.8z"/><path fill="#3B5829" d="M33.8 80.3c15.3-18.1 26.9-19.9 26.9-19.9-15.1 1.5-28.5 16.3-28.5 16.3C23 87.8 15.2 90 15.2 90c10.8 2.3 18.6-9.7 18.6-9.7zM54.3 74.5s-3.9 3.1-4.2 7.8c0 0 1.5-3.6 6.5-6.7 0 0 8.9-5 6.6-13.3 0 0-2.3 8.2-8.9 12.2zM71.6 55.3L81 55c4.1 3 18.3 2.8 20.8 2.7 4.6 2.9 5.9 5.3 6.2 6.9.2 1 0 1.8-.2 2.2l-4.1-.8c-.2 0-.3 0-.4.1l-2.2 1.4c-.4.2-.5.7-.3 1.2l.9 1.9c.1.3.3.4.6.5 1.9.3 3.9.6 5.1.8l-3.8 3.1c-1.4-1-6-3.4-10.9.3-1.6.5-3.7.6-4.2.1 0 0-.1-.1 0-.4l-1.4-.4c-.2 1 .2 1.7.5 2 1.3 1.5 4.7.6 5.7.3h.1l.1-.1c5.1-3.9 9.7-.3 9.9-.1l.4.4 5.4-4.3-.4-.6c.1 0 .2.1.2 0 .3-.2.4-.6.4-.9-.2-.8-.2-.8-6.5-1.7l-.4-.8 1.4-.9 4.3.8c.2.1.5 0 .6-.3 0-.1 1.2-1.6.7-4-.5-2.9-2.9-5.6-7.2-8.3-.1-.1-.2-.1-.4-.1-4.6.1-17.3-.1-20.3-2.5-.1-.1-.3-.2-.5-.2l-9.6.3c-.4 0-.7.4-.7.9.1.4.4.8.8.8zM67.3 80.1l-.8-2.8c-4.6 2.7-8.4 8.3-10.9 13h.8c5.3-7.5 10.9-10.2 10.9-10.2z"/><path fill="#3B5829" d="M69 81c-4.1 2.8-7.2 6-9.7 9.3.9 0 1.8-.1 2.7-.1 4.7-5.5 8.6-7.1 8.6-7.1l-.1-.1c2.3 2.3 5.9 3.2 11.4-1.2 0 0 3.5-2.2 4.9-6.1 0 0-16 14.1-19.9 0 0-.1 0-.1-.1-.2v.2c.3.6.9 3.1 2.2 5.3zM86.3 63.6c-1.7.8-9.4.2-9.4.2 2 1.3 9.8 1.1 9.8 1.1l2.2 2.7c0-3.5-2.6-4-2.6-4zM85.5 62.3c-3.8.3-2.3-4.5-2.3-4.5-1.2 2.1-7.4 2.5-7.4 2.5 1.9 3.1 8.5 2.2 9.7 2h.2-.2zM60.9 56.7l7.3-.7-5.5-3.8 5-.4-10.6-.8 3.9 3.3-6.2.8s11.9 7 13.2 6.8l-7.1-5.2z"/></svg>