<svg xmlns:xlink="http://www.w3.org/1999/xlink"  xmlns="http://www.w3.org/2000/svg" viewBox="0 0 1500 1500"><path fill="#F89F1B" d="M358 369c-5-26-5-53 9-75l17-25 7 30s2 8 5 21c12 49 48 169 90 209 8 5 64 44 118 115l128 106c6 1 19 4 34 6 21 3 46 4 61 0 3-1 5-2 8-3 4-3 17-13 35-17 12-3 27-4 43 0 7 0 28 3 36 26 2 7 1 14 0 22l-4 14 1 6h-3v3l-3-5-12-1c0 1-1 0-3 1-3 1-7 2-11 6 0 0-10 10-21 24-11 13-23 30-25 39 0 1 0 1-1 2 13 13 68 67 132 126 73 67 158 141 200 161h1l1 1 2 1c1 1 4 2 7 3 6 2 15 3 27 0s26-11 44-29l21-21 2 27c81-110 130-246 130-393 0-366-297-663-663-663-177 0-337 70-456 182 6 16 18 45 33 76 2 9 6 17 10 25z"/><path fill="#00A0C1" d="M1027 1351c-8 2-16-1-21-6-2 0-5 0-8-2-4-1-8-4-11-9-2 1-4 2-7 2-12 4-30 2-44-12-1 1-2 1-3 1-7 2-15 3-24 1-9-1-20-10-23-22-1-3-1-5-1-8-6 5-13 9-20 11-6 2-14 1-21-3-3-2-6-5-8-8-8-1-18-7-25-19h-9c-9-1-25-4-30-21 0-2-1-4-1-6-9-3-19-10-24-24h-4c-8 0-23-1-29-18-1-2-1-4-1-6-6-3-11-8-15-17 0-2-1-3-1-4-6-2-13-5-16-15-6-2-15-5-18-17-1-2-1-4-1-5-4-3-8-7-11-14-1-10 1-19 8-27-13 0-30 1-38-18-2-11 1-19 8-29h-4c-4 0-8-2-12-5-2 2-5 7-8 13 0 1-11 22-26 46-16 23-34 49-60 56-7 2-15 2-22-1-6 4-14 9-23 12-3 1-8 2-13 0-3-1-5-3-8-5-2 1-4 1-6 2-6 2-13 3-21 0-4-1-7-4-10-7-2 1-4 1-6 2-6 1-13 3-21 1s-17-9-20-19c-1-5-1-11 0-17 0-5 1-17 10-33-2 0-4 0-6-1-6-1-15-6-16-15-2-12 2-22 11-37-7-4-14-12-18-23-4-17 9-33 32-44h1l92-29c0-5 0-11 3-18-4-2-8-6-12-11-3 2-7 4-11 5-5 1-12 1-18-3-5-3-8-8-10-13-3 0-7-1-10-2-6-2-12-7-16-13-3 0-6 1-10 0-5 0-15-4-18-14-6-1-17-1-23-16v-9c-4 1-10 1-15 0-8-1-18-7-22-17-9-2-19-7-25-23 0-1-1-3-1-4h-1c-7-2-18-7-23-18h-6c-9 0-25-3-30-20-2-6-1-12 1-18-7-3-17-7-21-20 3-2 3-5 3-9-7-1-15-4-20-16-1-9 2-16 7-22-4-5-9-11-11-19-2-6-1-15 4-21 3-3 6-6 9-7-7-2-16-3-25-5h-2l-3-2c0-1-18-9-24-29-2-8 0-17 6-24-6-5-11-13-14-22v-7c-19 62-29 127-29 195 0 366 297 663 663 663 108 0 209-26 299-72-5-7-10-13-15-23-6 14-11 27-28 33zM141 541c1 0 1 0 0 0z"/></svg>