<svg xmlns:xlink="http://www.w3.org/1999/xlink"  xmlns="http://www.w3.org/2000/svg" viewBox="0 0 1500 1500"><path fill="none" d="M1395 528c-3-13-16-22-29-24 9 23 16 46 22 69 9-11 12-26 7-45z"/><g fill="#F0A72A"><path d="M1402 639c-4 2-8 4-13 6-4 2-8 3-13 4 4 28 6 56 6 84 0 339-276 615-615 615-273 0-505-179-586-426-5 1-9 1-14 1s-9 1-14 1c82 261 325 451 613 451 354 0 642-288 642-642 1-31-2-63-6-94zM155 588l13 4c64-272 308-474 599-474 250 0 466 150 562 366 3-4 6-7 10-10 3-3 7-5 11-7-101-221-324-375-583-375-301 0-554 208-623 487l10 8 1 1zM151 734c0-18 1-36 3-54-5-2-9-5-13-8s-9-7-12-10c-3 24-4 48-4 72 0 33 3 66 7 98 4-4 8-8 12-13s8-10 11-15c-2-23-4-47-4-70zM1344 515c0 1-1 2-1 3 3 9 7 18 9 27h3c1-4 4-7 8-9 1 0 3-1 4-1 6 0 11 6 11 12 0 2-1 4-1 6-1 3-3 6-6 8-2 2-5 3-7 4s-3 1-5 1l6 24c4-2 8-4 12-7s8-7 11-11c-6-24-14-47-22-69-5 0-9 0-13 2-3 3-6 6-9 10z"/><path d="M1356 546c0-1 1-1 1-1-1 0-1 1-1 1z"/></g><path fill="#10304F" d="M1317 571l-39 11c1 1 3 2 4 3l35-14zM1283 1006l-7-4-1 1 8 3zM265 488l47 27c2-1 4-2 5-3l-52-24zM231 571l13 4 1-1zM1275 1003s0-1 0 0v-1c-1 0-1 0 0 1z"/><path fill="#CAA2A2" d="M600 894c-4-1-9-2-13-2l3 9 2 5 12 32 4 11 13 33 8 20 12 33 6 16h53V910c-30-4-62-8-99-15 0 0 0-1-1-1zM1017 887c-10-1-19-3-29-4-2 0-5-1-7-1v-1s-5 8-26 17c-1 1-3 1-4 2-9 4-21 7-36 10l41 108 14 36h53V888c-2-1-4-1-6-1z"/><g fill="#102943"><path d="M1376 649c-1 0-1 1-2 1-47 10-90 5-126-12l-4 30 93-10-94 20-7 59-1 5 109 5-112 6-3 11c4 19 6 36 7 51l102 21-102-11c-1 14-3 26-7 36l-21 21 108 41-118-32-18 18v38l93 53 1 1 7 4-8-4h-1l-93-42v78l55 44-55-36v21h-53l-28-74-11-30-21-55-6-16-7-18-10-26h-4l6 21 6 21 4 12-33-15v22l47 38 11 34-56-37v37l84 93 6 6 64 70-154-140v44h-15l101 154-124-154h-16l-14-36-68-84 145 321-175-304 92 340-125-330 38 350-72-345-17 352-17-352-72 345 38-350-22 58v33h-12l-91 239 65-239h-15l-6-16-127 221 114-254-8-20-37 46-4-35 29-44-4-11-28 25-4-37 19-21-2-4-18 12-3-24-1-12-1-7-4-35v-10l-1-5h-3v219h-53l-3-8-133 120 124-137-15-40-167 110 160-129-13-35-193 87 185-107-10-25c-3 2-6 3-9 4-22 2-44 4-66 7l-137 37 79-30-27 2c-38 15-72 24-102 27 80 247 312 426 586 426 339 0 615-276 615-615 2-28 0-56-4-84zm-832 399l26-3-132 163 106-160zM244 575l-13-5 14 4 10-17c18-16 37-30 57-43l-47-27 52 23c24-14 49-26 76-35l-81-65 93 61c16-5 33-9 50-12l18-3-103-113 122 110c18-3 35-6 51-8L438 285l126 157c15-2 28-3 40-4l-90-199 113 198c13-1 24 0 33 1l-63-233 89 234 25-5-27-250 51 246 17-3c3-1 6-2 9-4l12-246 12 237c11-4 22-8 32-11l45-219-22 211c14-4 28-8 42-10l68-180-48 177c16-2 30-4 44-4h7l80-139-63 140c20 2 39 4 58 8l81-101-68 104c23 5 44 12 64 20l72-65-63 69c24 10 45 22 64 36l57-37-51 41c22 17 39 36 52 56l47-21-44 25c8 14 14 29 17 45 6 10 14 18 22 24l39-11-35 13 12 6c28 9 53 9 71 1-2-8-4-20.5-6-28.5-3 1-6 1-9 1-5 0-34.7 3.4-34-36.5 0-2 6-32 14-42-96-215-312-366-562-366-290 0-534 202-599 473l57 16 18-34z"/><path d="M1351 545h2l-9-27c-3 9-2 26 7 27zM154 679c-2 18-3 36-3 54 0 24 2 47 4 70 22-31 34-67 38-109-15-3-28-9-39-15z"/></g><path fill="#F9C4C7" d="M1438 518c-8-16-22-28-40-36-14-6-28-6-42-2-4 1-8 3-12 5s-8 5-11 8c-10 9-16 20-16 33 0 2-1 3-1 5 0 5 1 10 3 15 0 1 1 2 1 3 1 3 3 6 5 8 2 3 3 4 5 4l6 3c4 1 8 2 13 3 3 0 6 0 9-1 2 0 3-1 5-1 3-1 5-2 7-4s4-5 6-8c1-2 1-4 1-6 0-6-4-12-11-12-1 0-3 0-4 1-4 1-7 5-8 9v1-1h-5c-9-1-10-18-8-27 0-1 1-2 1-3 2-4 5-7 9-8 4-2 9-3 13-2 13 1 26 11 29 24 5 19 2 34-6 46-3 4-7 8-11 11s-8 5-12 7c-18 7-43 7-71-1-4-1-8-3-12-6-1-1-3-2-4-3-8-6-16-14-22-24-3-15-9-30-17-45-1-1-2-3-3-4-13-20-30-39-52-56-2-1-4-3-5-4-19-14-40-26-64-36-3-1-6-3-9-4-20-8-41-15-64-20-4-1-9-2-13-3-18-4-38-7-58-9-6 0-11-1-17-1h-7c-14 0-28 1-44 4-7 1-13 2-20 4-13 3-27 6-42 10-7 2-15 4-23 7-10 3-21 7-32 11l-24 9c-3 1-6 2-9 4l-17 3-24 4-25 5-9 2c-4-1-10-2-16-3-9-1-20-1-33-1-7 0-15 1-24 2-12 1-25 3-40 4-7 1-14 2-22 3-16 2-33 5-51 8-6 1-12 2-19 3l-18 3c-17 3-34 7-50 12-4 1-8 3-12 4-27 9-52 21-76 35-2 1-4 2-5 3-20 12-39 27-57 43l-10 17-1 1-19 31-3 6-57-5-13-1-6-1-6-4-22-13-7-2v7c-5 28 1 51 19 69 4 4 8 7 12 10s8 5 13 8c11 6 24 11 39 16-3 42-16 78-38 109-4 5-7 10-11 15-4 4-8 9-12 13l-2 2-55 14v5l15-4c14 6 24 19 24 35 0 13-13 22-25 29 16 7 41 13 64 13 4 0 9 0 14-1 4 0 9-1 14-1 30-4 63-13 102-27l27-2 29-2c3-1 6-2 9-2 6-1 13-2 19-3 22-3 44-6 66-7 3-1 6-3 9-4l10 25 7 19 13 35 7 19 15 40 7 18 3 8h53V820h3l1 6v10l4 35 1 6 1 12 18 3c5 1 9 2 13 2h3c36 6 69 11 99 15 106 13 173 9 214 1 15-3 27-6 36-10 1-1 3-1 4-2 20-9 26-17 26-17v1c2 0 5 1 7 1 10 1 19 2 29 4 2 0 4 1 6 1 10 1 20 3 29 5l-6-21-6-21h4l10 26 7 18 6 16 21 55 11 30 28 74h53V915v-2l18-18 9-9 21-21c4-10 6-22 7-36v-10c0-15-3-32-7-51l3-11 3-11 1-5 7-59 1-10 4-30c36 17 79 23 126 12 1 0 1 0 2-1 4-1 9-2 13-4s9-4 13-6c48-29 60-85 38-125zM347 636c-2 10-10 17-20 17-11 0-20-9-20-20s9-20 20-20c6 0 12 3 15 7s5 8 5 13v3z"/><ellipse fill="#402312" cx="91" cy="861" rx="7" ry="7"/><ellipse fill="#402312" cx="92" cy="891" rx="7" ry="7"/><path fill="#402312" d="M342 620c-4-4-9-7-15-7-11 0-20 9-20 20s9 20 20 20c10 0 18-7 20-17v-3c0-5-2-10-5-13z"/><path fill="#CAA2A2" d="M92 843l-15 4h-1v56c5 4 10 7 15 10 2-1 5-2 7-3 11-7 19-18 19-32-1-16-11-29-25-35zm-1 12c4 0 7 3 7 7s-3 7-7 7-7-3-7-7c-1-4 3-7 7-7zm1 44c-4 0-7-3-7-7s3-7 7-7 7 3 7 7-3 7-7 7z"/></svg>