<svg xmlns:xlink="http://www.w3.org/1999/xlink"  xmlns="http://www.w3.org/2000/svg" viewBox="0 0 1500 1500"><path fill="#72CFF5" d="M871 962s222-237 146-548c0 0-66-59-206-56 0 0 224 337 60 604z"/><path fill="#41BDED" d="M841 891s49-321-188-535c0 0-87-12-202 70 1 0 375 153 390 465z"/><path fill="#0B3F53" d="M466 752c-6-11-11-22-16-33l1-1-12-33c-6-27-8-56-1-89v-3c-198-26-411 22-424 42 0 0 207 78 243 149s-100 233-134 267c-34 33 287-85 383-238-9-13-17-25-25-37l-15-24zm-44 37c-73 46-141 84-145 77 5 7 70-35 140-86 2 2 3 6 5 9zm-16-30c-60 36-109 63-113 56 4 6 52-24 109-64 2 3 3 6 4 8zm-137-4c7-1 60-13 127-20 1 3 2 6 4 8-71 3-126 12-131 12zm6-141c36-1 73-1 106 1-1 6-2 13-2 21-33-4-68-7-104-8-109-5-214 12-214 11 0 1 103-23 214-25zm-122 65c0 1 104-24 214-26h12c0 5 0 10 1 15-4 0-9 0-13-1-109-5-214 13-214 12zm68 40c0 1 74-17 164-23 1 4 2 7 3 11-91 1-167 13-167 12zm214 89c3 4 5 8 8 12-89 59-190 117-194 108 5 8 101-56 186-120zm-234 195c7 10 161-97 251-171l12 15c-95 69-257 167-263 156zM1281 593c-1 1-54-84-155-136 0 0 15 175-52 339-10 18-20 38-28 58-35 63-85 121-156 162 0 0 130-61 130-58 52 8 101 10 146 7-6-55-19-93-27-114 2-2 4-4 6-7 49 38 76 81 90 114 104-15 158-43 161-52 8-21 0-166-115-313zm19 169c-5 27-31 45-58 40s-45-31-40-58 31-45 58-40 45 31 40 58z"/></svg>