<svg xmlns:xlink="http://www.w3.org/1999/xlink"  xmlns="http://www.w3.org/2000/svg" viewBox="0 0 3000 3000"><path fill="#006667" d="M2700 1076c-144-588-740-950-1328-806-544 134-894 652-830 1194 6-446 312-850 766-960 538-132 1082 198 1214 736 112 454-106 912-498 1122 510-192 808-740 676-1286z"/><path fill="#0697CC" d="M1886 2768c-700 198-1428-210-1626-912C78 1208 414 538 1018 284c-462 270-704 828-552 1366 180 640 846 1014 1486 834 540-152 890-648 878-1184 102 648-296 1284-944 1468z"/><path fill="#0697CC" d="M2352 1224c58 352-126 714-468 864-116 52-240 74-360 68-36-28-38-74-14-142 44-122 152-154 192-100 12 16 18 12 30-4 74-94-4-200-172-198-34-86-156-62-270 0-72 40-140 94-180 144-26 34-46 74-60 118-22 64-36 136-50 214h-2c-2-92-2-176 12-248-76-72-140-160-186-262-150-340-44-730 236-952-376 224-534 698-352 1108 196 444 716 644 1160 448 410-182 612-640 484-1058z"/></svg>