<svg xmlns:xlink="http://www.w3.org/1999/xlink"  xmlns="http://www.w3.org/2000/svg" viewBox="0 0 1500 1500"><path fill="#FCB912" d="M676 306c-12-60-30-123-13-184 86 57 87 171 75 262-42 2-51-47-62-78zM1113 231c-3 73-42 141-103 183-4-8-13-25-18-33 11-88 63-163 94-244 40 13 25 61 27 94zM314 446c-25-22-56-45-59-80 66 5 127 39 179 79 22 13 22 40 22 62-55 4-101-30-142-61zM1186 543c-22 10-45-3-55-23 60-56 128-110 206-137 7 6 21 17 28 22-46 61-106 115-179 138zM1140 673c-30-99-103-184-192-236-40-22-315-37-397 74-91 39-133 151-123 246 3 81 42 156 99 212l3-1c77 78 189 113 297 117 102-5 213-41 268-133 56-81 67-185 45-279zM346 729c15 37-33 38-57 35-53-8-105-20-158-29-30-8-75-14-74-54 98 1 201 4 289 48zM1323 689c42-4 116-8 108 54-59 51-140 30-211 29-16-16-41-30-33-57 40-25 90-20 136-26zM292 929c35-17 77-44 115-20 0 38-34 66-60 91-53 40-113 93-185 74 13-69 76-111 130-145zM1319 1086l-11 17c-69-19-140-70-170-138 71 16 145 56 181 121zM555 1071c27 15 21 50 13 74-22 59-57 112-96 162-11 16-29 21-48 23-5-9-14-26-19-35 14-70 51-133 95-188 15-16 32-36 55-36zM1032 1303c-44-58-98-114-117-186 108 5 154 122 183 210-21 30-49-10-66-24z"/><path fill="#00ADEE" d="M990 702c6 25 15 50 14 76-3 29-19 57-46 71-12 2-17-3-15-15 5-11 16-20 15-32-3-22-28-47-55-41-66 11-140 64-170 104-33 43-43 102-43 157s4 115 42 158c42 8 85 8 127 18-19 26-57 27-76 53-17 22-8 59-37 72-17-40-6-86-25-126-13-21-35-33-51-52-89-94-126-231-105-358 8-32 20-66 47-86-14-11-33-20-49-13-16 6-46 1-25-13 40-39 98-42 150-46 47-23 99-40 152-41 75-4 154-3 221 33 26 11 90 29 85 39-21 34-107 37-156 42z"/></svg>