<svg xmlns:xlink="http://www.w3.org/1999/xlink"  xmlns="http://www.w3.org/2000/svg" viewBox="0 0 1500 1500"><path fill="#0F2446" d="M444 1040l-72-16-5 13c-99 287-147 309-159 309h-7l-6 6c-42-5-42-20-42-23 0-1 6-15 68-51l4-2 2-4c20-37 40-103 60-205 0-41-29-104-89-193-41-119-62-210-62-272v-16h-16c-10 0-19-2-19-25v-7l-23-23v-10l12-12-10-12-1-18c0-13 7-38 38-90l2-3 5-108 64 83 84 16c3-11 9-21 18-28 1-3 2-7 3-10-3 3-6 5-9 8l-79-15-77-100H94l-6 144c-27 46-41 80-41 104v65l23 23c2 26 14 43 35 48 3 65 24 156 64 270l2 4c70 104 84 153 85 174-18 91-37 155-54 189-66 40-80 59-80 75 0 22 13 51 74 57h12l6-6c34-5 86-55 178-316l30 7 11 30c-2-21 2-42 11-60z"/><path fill="#00A89C" d="M589 1359h-5l-4-2c-73-46-77-55-77-66v-6c0-24 16-46 48-67 6-28 41-44 70-55l15-85-25-69-30-7c-92 262-143 311-178 316l-6 6h-12c-61-6-74-34-74-57 0-16 14-36 80-75 18-34 36-98 54-189 0-20-15-70-85-174l-2-4c-40-115-62-205-64-270-21-5-33-22-35-48l-23-23v-65c0-24 13-58 41-104l6-145h35l77 100 79 15c37-34 68-51 92-51h4l3 2c26 13 32 31 32 43l-29 183v61c2 1 19 19 161 42 73 0 155 53 242 157l2 3c55 105 83 198 83 275v64l-10 73 94 10c99 0 164-37 199-113l15-68-37-118 31-21h28l4 3c43 34 64 83 64 146 0 129-66 218-196 265l-121 18-106-6-40 6-27-5-46 17-118-21c-12 20-45 37-104 53-14 28-43 56-105 56zm-54-73c4 4 17 15 58 41 38-1 62-15 74-42l3-7 8-2c92-24 93-43 93-43v-19l142 26 47-17 31 6 38-5 106 6 115-17c115-42 172-118 172-234 0-51-16-90-48-118h-7l-3 2 33 103-18 80c-40 90-118 134-230 134l-106-12h-22l14-105v-62c0-71-26-158-79-258-80-96-154-144-219-144-159-26-190-48-190-74v-65l29-183c0-2-4-6-11-10-11 1-33 10-73 48l-8 5-107-20-64-83-5 108-2 3c-32 52-38 78-38 90l1 18 11 11-12 12v10l23 23v7c0 23 9 25 19 25h16v16c0 62 21 153 62 272 60 89 89 152 89 193-20 103-40 169-60 205l-2 4-4 2c-62 37-67 50-68 51 0 4 0 19 42 23l6-6h7c12 0 60-22 159-309l5-13 75 17 33 94-20 112-9 3c-43 14-59 29-59 37v9l-7 5c-26 16-39 31-39 45v2h-1z"/></svg>