<svg xmlns:xlink="http://www.w3.org/1999/xlink"  xmlns="http://www.w3.org/2000/svg" viewBox="0 0 150 150"><path fill="#6D4D42" d="M46.6 77.2c-.9-.4-2-.4-2.9.2-.6.4-1 1-1.1 1.8-.2-.3-.5-.6-.9-.7-.4-.2-.8 0-1.1.3-.3.3-.3.8-.1 1.2.3.5.9.6 1.1.3.1-.1.2-.3.1-.5l-.2-.2h-.1c-.1-.1-.1-.2-.1-.2h.2c.1.1.2.2.3.2.3.4-.1.9-.1.9-.3.4-.9.1-1.1 0-.1-.1-.2-.1-.3-.2-.7-.6-1-1.3-1.3-2-.1-.3-.2-.5-.3-.8-.4-1.2-.9-2.5-1.6-3.6-1-1.4-2.1-2.4-3.4-2.9-1.5-.6-2.6-.7-3.5-.1-.8.5-1.6 1.6-1.2 2.8.2.6.6 1 1.1 1.3.4.2.9.3 1.3.2.6-.1 1.1-.5 1.3-1.1.2-.5.1-1-.2-1.4-.4-.5-1.2-.7-1.7-.4-.3.2-.5.5-.6.8 0 .2.1.4.3.5.2.1.3.1.5 0 .1-.1.2-.2.3-.4 0 0 0-.1.1-.1h.2l.3.3c0 .1 0 .2-.1.3-.1.2-.3.3-.6.4-.1 0-.3 0-.5-.1-.3-.1-.6-.4-.7-.8-.2-.7.2-1.3.9-1.5.9-.3 1.9 0 2.5.3.6.3 1.3.8 1.8 1.3 1.3 1.3 2 3 2.6 4.7v.1c.4 1.1.9 2.4 2 3.2.1.1.2.1.4.2.9.4 1.8.3 2.3-.4l.3-.6c.2.5.6 1 1.1 1.2 1 .5 2 .1 2.4-.4.4-.6.4-1.3 0-1.8-.1-.1-.3-.3-.5-.4-.5-.2-1-.1-1.3.2-.1.1-.1.2-.1.3 0 .2.2.3.4.4.1 0 .2 0 .3.1.1 0 .2 0 .3.1.1.1 0 .4 0 .5-.1.2-.5.3-.8.1-.1 0-.2-.1-.3-.2-.4-.3-.5-.8-.4-1.1.1-.3.2-.9.8-1.1.3-.1.8-.3 1.5 0 .2.1.3.2.5.3 1 .7 1.6 2.3.9 3.7-1.1 2.2-4 3.1-6.2 2-1.9-1-2.9-2.9-3.8-4.7-.1-.3-.3-.5-.4-.8-1.1-2.1-2.5-3.2-4.1-3.4-1.6-.2-2.7.8-3 1.9-.3 1 0 2.2 1.2 2.8.1.1.3.1.4.2.7.2 1.4.1 1.9-.3.4-.3.6-.8.6-1.3s-.3-.9-.7-1.1c-.5-.2-1-.2-1.4.1-.2.2-.4.4-.4.6 0 .1 0 .3.1.4.2.3.5.3.9 0 .1-.1.2-.1.3 0 .1 0 .1.1.1.2s0 .2-.1.3c-.1.1-.4.2-.7.2-.4-.1-1-.5-1.1-.9 0-.6.2-1.1.6-1.4.6-.4 1.2-.4 2 0 .9.4 1.7 1.3 2.1 1.9l.9 1.5c1 1.8 2 3.6 3.8 4.8l.6.3c2 1 4.9.5 6.6-1.2 1.4-1.3 1.8-3 1.1-4.8-.7-1.3-1.4-2.1-2.3-2.5zM104.9 77.4c.9-.4 2-.4 2.9.2.6.4 1 1 1.1 1.8.2-.3.5-.6.9-.7.4-.2.8 0 1.1.3.3.3.3.8.1 1.2-.3.5-.9.6-1.1.3-.1-.1-.2-.3-.1-.5l.2-.2h.1c.1-.1.1-.2.1-.2h-.1-.1c-.1.1-.2.2-.3.2-.3.4.1.9.1.9.3.4.9.1 1.1 0 .1-.1.2-.1.3-.2.7-.6 1-1.3 1.3-2 .1-.3.2-.5.3-.8.4-1.2.9-2.5 1.6-3.6 1-1.4 2.1-2.4 3.4-2.9 1.5-.6 2.6-.7 3.5-.1.8.5 1.6 1.6 1.2 2.8-.2.6-.6 1-1.1 1.3-.4.2-.9.3-1.3.2-.6-.1-1.1-.5-1.3-1.1-.2-.5-.1-1 .2-1.4.4-.5 1.2-.7 1.7-.4.3.2.5.5.6.8 0 .2-.1.4-.3.5-.2.1-.3.1-.5 0-.1-.1-.2-.2-.3-.4 0 0 0-.1-.1-.1h-.2l-.3.3c0 .1 0 .2.1.3.1.2.3.3.6.4.1 0 .3 0 .5-.1.3-.1.6-.4.7-.8.2-.7-.2-1.3-.9-1.5-.9-.3-1.9 0-2.5.3-.6.3-1.3.8-1.8 1.3-1.3 1.3-2 3-2.6 4.7v.1c-.4 1.1-.9 2.4-2 3.2-.1.1-.2.1-.4.2-.9.4-1.8.3-2.3-.4l-.3-.6c-.2.5-.6 1-1.1 1.2-1 .5-2 .1-2.4-.4-.4-.6-.4-1.3 0-1.8.1-.1.3-.3.5-.4.5-.2 1-.1 1.3.2.1.1.1.2.1.3 0 .2-.2.3-.4.4-.1 0-.2 0-.3.1-.1 0-.2 0-.3.1-.2.1 0 .4 0 .5.1.2.5.3.8.1.1 0 .2-.1.3-.2.4-.3.5-.8.4-1.1-.1-.3-.2-.9-.8-1.1-.3-.1-.8-.3-1.5 0-.2.1-.3.2-.5.3-1 .7-1.6 2.3-.9 3.7 1.1 2.2 4 3.1 6.2 2 1.9-1 2.9-2.9 3.8-4.7.1-.3.3-.5.4-.8 1.1-2.1 2.5-3.2 4.1-3.4 1.6-.2 2.7.8 3 1.9.3 1 0 2.2-1.2 2.8-.1.1-.3.1-.4.1-.7.2-1.4.1-1.9-.3-.4-.3-.6-.8-.6-1.4 0-.5.3-.9.7-1.1.5-.2 1-.2 1.4.1.2.2.4.4.4.6 0 .1 0 .3-.1.4-.2.3-.5.3-.9 0-.1-.1-.2-.1-.3 0-.1 0-.1.1-.1.2s0 .2.1.3c.1.1.4.2.7.2.4-.1 1-.5 1.1-.9 0-.6-.2-1.1-.6-1.4-.6-.4-1.2-.4-2 0-.9.4-1.7 1.3-2.1 1.9l-.9 1.5c-1 1.8-2 3.6-3.8 4.8l-.6.3c-2 1-4.9.5-6.6-1.1-1.4-1.3-1.8-3-1.1-4.8.7-1.1 1.5-1.9 2.3-2.4z"/><g fill="#6D4D42"><path d="M89.1 48c-2.6-1.8-6.4-3-9.9-1.6-1.7.7-3.2 2.2-3.9 4-.7-1.8-2.2-3.3-3.9-4-3.6-1.4-7.3-.2-9.9 1.6-3.1 2.1-4 5.7-3.8 9.3.2 4.3 2.9 7.8 5.6 10.9 3.2 3.5 6.8 7 10.9 9.5.2.1.6.4 1 .4s.8-.2 1-.4c4.1-2.4 7.7-6 10.9-9.5 2.8-3 5.4-6.6 5.7-10.9.3-3.5-.6-7.2-3.7-9.3zm-3.6 19.7c-3.1 3.1-6.3 6.3-10 8.6-.1.1-.4.1-.5 0-3.8-2.3-7-5.5-10-8.6-3.3-3.3-5.9-7.1-5.9-12s4.4-8.5 8.9-8.6c3.5 0 5.8 2.3 6.1 5.1.1 1.3-.3 2.3-1.1 3.1-.8.7-2.1 1.2-3.2.9-1.3-.4-2.7-1.8-1.9-3.2.7-1.2 2.1-.9 2.4-.2.3.6-.3.7-.3 1.2 0 .3.3.5.4.5.3.1.5 0 .7-.2 1.7-2.2-.7-4.2-3.1-3.2-1.7.7-2 2.3-1.6 3.7.4 1 1.2 1.9 2.2 2.3 3.1 1.2 5.6-.4 6.6-2.9 1 2.5 3.5 4.1 6.6 2.9 1-.4 1.8-1.2 2.2-2.3.5-1.4.1-3-1.6-3.7-2.4-1-4.7 1-3.1 3.2.2.2.4.3.7.2.1 0 .4-.3.4-.5 0-.5-.6-.6-.3-1.2.3-.7 1.7-1 2.4.2.8 1.3-.6 2.8-1.9 3.2-1.1.3-2.3-.1-3.2-.9-.8-.9-1.3-1.9-1.1-3.1.3-2.8 2.5-5.1 6.1-5.1 4.6 0 8.9 3.6 8.9 8.6.2 4.9-2.5 8.7-5.8 12z"/><path d="M74.8 46.1c-.8.3-.9 1.3-.3 1.8l.2.2c.8.5 1.6-.2 1.7-1 .2-.8-.9-1.3-1.6-1zm.3 1.6c-.2-.1-.3-.3-.4-.5 0-.1 0-.2.1-.3 0-.1.1-.1.2-.2.4-.2.9 0 .9.4-.1.4-.5.8-.8.6z"/><path d="M76.4 44.9c-.8.3-.9 1.3-.3 1.8l.2.2c.8.5 1.6-.2 1.7-1 .2-.8-.9-1.3-1.6-1zm.3 1.6c-.2-.1-.3-.3-.4-.5 0-.1 0-.2.1-.3 0-.1.1-.1.2-.2.4-.2.9 0 .9.4s-.4.7-.8.6z"/><path d="M78.2 44c-.8.3-.9 1.3-.3 1.8l.2.2c.8.5 1.6-.2 1.7-1 .2-.9-.8-1.3-1.6-1zm.3 1.5c-.2-.1-.3-.3-.4-.5 0-.1 0-.2.1-.3 0-.1.1-.1.2-.2.4-.2.9 0 .9.4s-.4.8-.8.6z"/><path d="M80.4 43.3c-.8.3-.9 1.3-.3 1.8l.2.2c.8.5 1.6-.2 1.7-1 .2-.8-.8-1.3-1.6-1zm.3 1.6c-.2-.1-.3-.3-.4-.5 0-.1 0-.2.1-.3 0-.1.1-.1.2-.2.4-.2.9 0 .9.4s-.4.8-.8.6z"/><path d="M82.9 43.1c-.8.3-.9 1.3-.3 1.8l.2.2c.8.5 1.6-.2 1.7-1 .1-.8-.9-1.3-1.6-1zm.3 1.6c-.2-.1-.3-.3-.4-.5 0-.1 0-.2.1-.3 0-.1.1-.1.2-.2.4-.2.9 0 .9.4-.1.3-.5.7-.8.6z"/><path d="M85.3 43.7c-.8.3-.9 1.3-.3 1.8l.2.2c.8.5 1.6-.2 1.7-1 .2-.9-.9-1.3-1.6-1zm.3 1.5c-.2-.1-.3-.3-.4-.5 0-.1 0-.2.1-.3 0-.1.1-.1.2-.2.4-.2.9 0 .9.4-.1.4-.5.8-.8.6zM87.6 44.5c-.8.3-.9 1.3-.3 1.8l.2.2c.8.5 1.6-.2 1.7-1 .2-.8-.8-1.3-1.6-1zm.3 1.6c-.2-.1-.3-.3-.4-.5 0-.1 0-.2.1-.3 0-.1.1-.1.2-.2.4-.2.9 0 .9.4s-.4.8-.8.6zM89.7 45.8c-.8.3-.9 1.3-.3 1.8l.2.2c.8.5 1.6-.2 1.7-1 .2-.8-.8-1.3-1.6-1zm.3 1.6c-.2-.1-.3-.3-.4-.5 0-.1 0-.2.1-.3 0-.1.1-.1.2-.2.4-.2.9 0 .9.4s-.4.7-.8.6zM91.5 47.5c-.8.3-.9 1.3-.3 1.8l.2.2c.8.5 1.6-.2 1.7-1 .2-.8-.8-1.3-1.6-1zm.3 1.6c-.2-.1-.3-.3-.4-.5 0-.1 0-.2.1-.3 0-.1.1-.1.2-.2.4-.2.9 0 .9.4 0 .3-.4.7-.8.6z"/><path d="M92.7 49.6c-.8.3-.9 1.3-.3 1.8.1.1.2.2.3.2.8.5 1.6-.2 1.7-1 .1-.9-.9-1.3-1.7-1zm.3 1.5c-.2-.1-.3-.3-.4-.5 0-.1 0-.2.1-.3 0-.1.1-.1.2-.2.4-.2.9 0 .9.4s-.4.8-.8.6zM74.8 78.6c-.8.3-.9 1.3-.3 1.8l.2.2c.8.5 1.6-.2 1.7-1 .2-.9-.9-1.3-1.6-1zm.3 1.5c-.2-.1-.3-.3-.4-.5 0-.1 0-.2.1-.3 0-.1.1-.1.2-.2.4-.2.9 0 .9.4-.1.4-.5.8-.8.6zM77.2 77.6c-.8.3-.9 1.3-.3 1.8l.2.2c.8.5 1.6-.2 1.7-1 .1-.8-.9-1.3-1.6-1zm.3 1.6c-.2-.1-.3-.3-.4-.5 0-.1 0-.2.1-.3 0-.1.1-.1.2-.2.4-.2.9 0 .9.4-.1.4-.5.7-.8.6zM79.2 76.2c-.8.3-.9 1.3-.3 1.8l.2.2c.8.5 1.6-.2 1.7-1 .2-.8-.8-1.3-1.6-1zm.3 1.6c-.2-.1-.3-.3-.4-.5 0-.1 0-.2.1-.3 0-.1.1-.1.2-.2.4-.2.9 0 .9.4 0 .3-.4.7-.8.6zM81.2 74.7c-.8.3-.9 1.3-.3 1.8l.2.2c.8.5 1.6-.2 1.7-1 .2-.9-.8-1.3-1.6-1zm.3 1.6c-.2-.1-.3-.3-.4-.5 0-.1 0-.2.1-.3 0-.1.1-.1.2-.2.4-.2.9 0 .9.4 0 .3-.4.7-.8.6zM83.1 73c-.8.3-.9 1.3-.3 1.8.1.2.2.2.2.3.8.5 1.6-.2 1.7-1 .2-.9-.8-1.4-1.6-1.1zm.3 1.6c-.2-.1-.3-.3-.4-.5 0-.1 0-.2.1-.3 0-.1.1-.1.2-.2.4-.2.9 0 .9.4s-.4.8-.8.6zM84.9 71.2c-.8.3-.9 1.3-.3 1.8.1.1.2.2.3.2.8.5 1.6-.2 1.7-1 .1-.8-1-1.3-1.7-1zm.3 1.6c-.2-.1-.3-.3-.4-.5 0-.1 0-.2.1-.3 0-.1.1-.1.2-.2.4-.2.9 0 .9.4s-.4.8-.8.6zM86.6 69.4c-.8.3-.9 1.3-.3 1.8l.2.2c.8.5 1.6-.2 1.7-1 .2-.8-.8-1.3-1.6-1zm.3 1.6c-.2-.1-.3-.3-.4-.5 0-.1 0-.2.1-.3 0-.1.1-.1.2-.2.4-.2.9 0 .9.4s-.4.8-.8.6zM88.3 67.6c-.8.3-.9 1.3-.3 1.8.1.1.2.2.3.2.8.5 1.6-.2 1.7-1 .1-.8-.9-1.3-1.7-1zm.3 1.6c-.2-.1-.3-.3-.4-.5 0-.1 0-.2.1-.3 0-.1.1-.1.2-.2.4-.2.9 0 .9.4s-.4.8-.8.6zM89.9 65.7c-.8.3-.9 1.3-.3 1.8l.2.2c.8.5 1.6-.2 1.7-1 .2-.9-.8-1.3-1.6-1zm.3 1.6c-.2-.1-.3-.3-.4-.5 0-.1 0-.2.1-.3 0-.1.1-.1.2-.2.4-.2.9 0 .9.4 0 .3-.4.7-.8.6z"/><path d="M91.4 63.7c-.8.3-.9 1.3-.3 1.8l.2.2c.8.5 1.6-.2 1.7-1 .2-.9-.9-1.3-1.6-1zm.3 1.5c-.2-.1-.3-.3-.4-.5 0-.1 0-.2.1-.3 0-.1.1-.1.2-.2.4-.2.9 0 .9.4s-.4.8-.8.6zM92.7 61.5c-.8.3-.9 1.3-.3 1.8.1.1.2.2.3.2.8.5 1.6-.2 1.7-1 .1-.8-.9-1.3-1.7-1zm.3 1.6c-.2-.1-.3-.3-.4-.5 0-.1 0-.2.1-.3 0-.1.1-.1.2-.2.4-.2.9 0 .9.4s-.4.8-.8.6z"/><path d="M93.6 59.2c-.8.3-.9 1.3-.3 1.8l.2.2c.8.5 1.6-.2 1.7-1 .2-.8-.9-1.3-1.6-1zm.3 1.6c-.2-.1-.3-.3-.4-.5 0-.1 0-.2.1-.3 0-.1.1-.1.2-.2.4-.2.9 0 .9.4s-.4.7-.8.6zM94 56.7c-.8.3-.9 1.3-.3 1.8l.2.2c.8.5 1.6-.2 1.7-1 .2-.8-.8-1.3-1.6-1zm.3 1.6c-.2-.1-.3-.3-.4-.5 0-.1 0-.2.1-.3 0-.1.1-.1.2-.2.4-.2.9 0 .9.4s-.4.8-.8.6zM94 54.2c-.8.3-.9 1.3-.3 1.8l.2.2c.8.5 1.6-.2 1.7-1 .2-.8-.9-1.3-1.6-1zm.3 1.6c-.2-.1-.3-.3-.4-.5 0-.1 0-.2.1-.3 0-.1.1-.1.2-.2.4-.2.9 0 .9.4-.1.4-.5.8-.8.6zM93.5 51.8c-.8.3-.9 1.3-.3 1.8l.2.2c.8.5 1.6-.2 1.7-1 .2-.8-.8-1.3-1.6-1zm.3 1.6c-.2-.1-.3-.3-.4-.5 0-.1 0-.2.1-.3 0-.1.1-.1.2-.2.4-.2.9 0 .9.4s-.4.7-.8.6zM72.3 46c.1.8 1 1.5 1.7 1 .1-.1.2-.1.2-.2.6-.5.5-1.5-.3-1.8-.6-.4-1.7.1-1.6 1zm.7-.1c0-.4.5-.6.9-.4.1.1.2.1.2.2.1.1.1.2.1.3-.1.2-.2.4-.4.5-.5.1-.9-.2-.8-.6z"/><path d="M70.5 45c.1.8 1 1.5 1.7 1 .1-.1.2-.1.2-.2.6-.5.5-1.5-.3-1.8-.7-.3-1.7.1-1.6 1zm.6 0c0-.4.5-.6.9-.4.1.1.2.1.2.2.1.1.1.2.1.3-.1.2-.2.4-.4.5-.4.1-.8-.3-.8-.6z"/><path d="M68.3 44.4c.1.8 1 1.5 1.7 1 .1-.1.2-.1.2-.2.6-.5.5-1.5-.3-1.8-.7-.4-1.7.1-1.6 1zm.6-.1c0-.4.5-.6.9-.4.1.1.2.1.2.2.1.1.1.2.1.3-.1.2-.2.4-.4.5-.4.2-.8-.2-.8-.6z"/><path d="M65.9 44.2c.1.8 1 1.5 1.7 1 .1-.1.2-.1.2-.2.6-.5.5-1.5-.3-1.8-.7-.4-1.7.1-1.6 1zm.6-.1c0-.4.5-.6.9-.4.1.1.2.1.2.2.1.1.1.2.1.3-.1.2-.2.4-.4.5-.4.1-.8-.3-.8-.6z"/><path d="M63.5 44.7c.1.8 1 1.5 1.7 1 .1-.1.2-.1.2-.2.6-.5.5-1.5-.3-1.8-.7-.3-1.7.1-1.6 1zm.6 0c0-.4.5-.6.9-.4.1.1.2.1.2.2.1.1.1.2.1.3-.1.2-.2.4-.4.5-.4.1-.8-.3-.8-.6zM61.1 45.6c.1.8 1 1.5 1.7 1 .1-.1.2-.1.2-.2.6-.5.5-1.5-.3-1.8-.7-.4-1.7.1-1.6 1zm.6-.1c0-.4.5-.6.9-.4.1.1.2.1.2.2.1.1.1.2.1.3-.1.2-.2.4-.4.5-.4.2-.8-.2-.8-.6zM59 46.9c.1.8 1 1.5 1.7 1 .1-.1.2-.1.3-.2.6-.5.5-1.5-.3-1.8-.8-.4-1.8.1-1.7 1zm.6-.1c0-.4.5-.6.9-.4.1.1.2.1.2.2.1.1.1.2.1.3-.1.2-.2.4-.4.5-.4.1-.8-.2-.8-.6zM57.2 48.6c.1.8 1 1.5 1.7 1 .1-.1.2-.1.2-.2.6-.5.5-1.5-.3-1.8-.6-.4-1.7.1-1.6 1zm.6-.1c0-.4.5-.6.9-.4.1.1.2.1.2.2.1.1.1.2.1.3-.1.2-.2.4-.4.5-.4.1-.8-.3-.8-.6z"/><path d="M56 50.6c.1.8 1 1.5 1.7 1 .1-.1.2-.1.2-.2.6-.5.5-1.5-.3-1.8-.7-.3-1.7.1-1.6 1zm.6 0c0-.4.5-.6.9-.4.1.1.2.1.2.2.1.1.1.2.1.3-.1.2-.2.4-.4.5-.4.1-.8-.3-.8-.6zM71.6 78.7c.1.8 1 1.5 1.7 1 .1-.1.2-.1.2-.2.6-.5.5-1.5-.3-1.8-.7-.4-1.7.1-1.6 1zm.6-.1c0-.4.5-.6.9-.4.1.1.2.1.2.2.1.1.1.2.1.3-.1.2-.2.4-.4.5-.4.1-.8-.2-.8-.6zM69.5 77.3c.1.8 1 1.5 1.7 1 .1-.1.2-.1.2-.2.6-.5.5-1.5-.3-1.8-.7-.4-1.7.1-1.6 1zm.6-.1c0-.4.5-.6.9-.4.1.1.2.1.2.2.1.1.1.2.1.3-.1.2-.2.4-.4.5-.4.1-.8-.3-.8-.6zM67.5 75.8c.1.8 1 1.5 1.7 1 .1-.1.2-.1.2-.2.6-.5.5-1.5-.3-1.8-.7-.4-1.7 0-1.6 1zm.6-.1c0-.4.5-.6.9-.4.1.1.2.1.2.2.1.1.1.2.1.3-.1.2-.2.4-.4.5-.4.1-.8-.3-.8-.6zM65.6 74.1c.1.8 1 1.5 1.7 1 .1-.1.2-.1.2-.2.6-.5.5-1.5-.3-1.8-.7-.4-1.7.1-1.6 1zm.6-.1c0-.4.5-.6.9-.4.1.1.2.1.2.2.1.1.1.2.1.3-.1.2-.2.4-.4.5-.4.2-.8-.2-.8-.6z"/><path d="M63.9 72.3c.1.8 1 1.5 1.7 1 .1-.1.2-.1.2-.2.6-.5.5-1.5-.3-1.8-.7-.4-1.8.1-1.6 1zm.6-.1c0-.4.5-.6.9-.4.1.1.2.1.2.2.1.1.1.2.1.3-.1.2-.2.4-.4.5-.4.2-.8-.2-.8-.6zM62.1 70.5c.1.8 1 1.5 1.7 1 .1-.1.2-.1.2-.2.6-.5.5-1.5-.3-1.8-.6-.4-1.7.1-1.6 1zm.7-.1c0-.4.5-.6.9-.4.1.1.2.1.2.2.1.1.1.2.1.3-.1.2-.2.4-.4.5-.5.2-.9-.2-.8-.6z"/><path d="M60.4 68.7c.1.8 1 1.5 1.7 1 .1-.1.2-.1.3-.2.6-.5.5-1.5-.3-1.8-.8-.4-1.8.1-1.7 1zm.6-.1c0-.4.5-.6.9-.4.1.1.2.1.2.2.1.1.1.2.1.3-.1.2-.2.4-.4.5-.4.2-.8-.2-.8-.6zM58.8 66.7c.1.8 1 1.5 1.7 1 .1-.1.2-.1.3-.2.6-.5.5-1.5-.3-1.8-.8-.3-1.8.1-1.7 1zm.6 0c0-.4.5-.6.9-.4.1.1.2.1.2.2.1.1.1.2.1.3-.1.2-.2.4-.4.5-.4.1-.8-.3-.8-.6z"/><path d="M57.4 64.7c.1.8 1 1.5 1.7 1 .1-.1.2-.1.3-.2.6-.5.5-1.5-.3-1.8-.8-.3-1.9.1-1.7 1zm.6 0c0-.4.5-.6.9-.4.1.1.2.1.2.2.1.1.1.2.1.3-.1.2-.2.4-.4.5-.4.1-.8-.3-.8-.6zM56 62.6c.1.8 1 1.5 1.7 1 .1-.1.2-.1.2-.2.6-.5.5-1.5-.3-1.8-.7-.4-1.7.1-1.6 1zm.6-.1c0-.4.5-.6.9-.4.1.1.2.1.2.2.1.1.1.2.1.3-.1.2-.2.4-.4.5-.4.2-.8-.2-.8-.6z"/><path d="M55.2 60.3c.1.8 1 1.5 1.7 1 .1-.1.2-.1.2-.2.6-.5.5-1.5-.3-1.8-.7-.4-1.8.1-1.6 1zm.6-.1c0-.4.5-.6.9-.4.1.1.2.1.2.2.1.1.1.2.1.3-.1.2-.2.4-.4.5-.4.1-.8-.2-.8-.6zM54.7 57.8c.1.8 1 1.5 1.7 1 .1-.1.2-.1.2-.2.6-.5.5-1.5-.3-1.8-.6-.4-1.7.1-1.6 1zm.6-.1c0-.4.5-.6.9-.4.1.1.2.1.2.2.1.1.1.2.1.3-.1.2-.2.4-.4.5-.4.2-.8-.2-.8-.6zM54.8 55.3c.1.8 1 1.5 1.7 1 .1-.1.2-.1.2-.2.6-.5.5-1.5-.3-1.8-.7-.4-1.8.1-1.6 1zm.6-.1c0-.4.5-.6.9-.4.1.1.2.1.2.2.1.1.1.2.1.3-.1.2-.2.4-.4.5-.4.2-.8-.2-.8-.6zM55.2 52.9c.1.8 1 1.5 1.7 1 .1-.1.2-.1.2-.2.6-.5.5-1.5-.3-1.8-.7-.4-1.7.1-1.6 1zm.6-.1c0-.4.5-.6.9-.4.1.1.2.1.2.2.1.1.1.2.1.3-.1.2-.2.4-.4.5-.4.1-.8-.2-.8-.6z"/></g><path fill="#6D4D42" d="M135.6 88c-3-.1-6 .6-9 1 .6-.3 1.1-.6 1.7-1 3-2.1 4.7-5.3 3.3-8.9-1.2-3.2-4.5-4.8-7.7-3.7-2.4.8-4.1 4.1-2.6 6.4 1.4 2.1 4.7 1.9 5.2-1.2.1-.8-.7-1.3-1.4-.8-.3.3-.4.5-.4.9-.6 1.8-3 .7-2.4-1.7.4-1.6 2.2-2.4 3.6-2.5 3.9-.2 5.3 5 3.7 7.7-3.1 5.3-10.6 5-15.9 4.1-4.8-.9-9.6-2.4-14-4.6-4.2-2.1-8.1-4.8-12.6-6.1-2.2-.6-5.5-.8-7.3 1-1.8 1.7-1.7 5 .6 6.3 1.8 1.1 5.2.3 4.4-2.5-.5-1.7-2.9-2.1-3.6-.3-.1.3.3.6.6.3 1.4-.9 2.5 1 1 1.7-1.2.5-2.6-.4-2.9-1.7-.3-1.7.9-3 2.3-3.4 2-.7 4.2-.1 6.1.6 4.9 1.7 9.2 4.9 13.9 6.9 4 1.7 8.8 3.1 13.1 3.6l3.3.3c1.3.2 2.6.2 3.8.2 3 0 5.9-.4 8.9-.8 3.5-.5 7.1-1.1 9.3 2.1 1.2 1.8.3 3.8-1.2 4.8-.7.5-1.7.6-2.5.4-1.4-.3-1.7-1.8-1.1-2.3.4-.5 1.5-.9 1.8.5.2.9 1.5.2 1.4-.6 0-.1 0-.2-.1-.3 0-.1-.1-.2-.1-.3-1.4-3.1-5.6-1-4.8 2.2.4 1.7 2.4 2.3 3.8 2.4 1.8.1 3.6-1 4.3-2.5 2-4.6-1.9-8-6.5-8.2z"/><path fill="#6D4D42" d="M134.7 83.8c-.6.6-.5 1.5-.1 2.1.6 1.1 2.3 1 3 0 1.3-1.9-1.6-3.6-2.9-2.1zm1.2.6c.3-.1.7.1.8.4.2.4-.3.9-.8.8-.2 0-.3-.2-.4-.4-.2-.3 0-.7.4-.8zM102.2 70.4c-2 1.5-2.7 4-4.3 5.7-1.2 1.3-2.5 2.2-4.3 2.3-1.3.1-2.8-.7-3-2-.1-.5-.1-.9.2-1.6.5-1.2 2.9-1.7 3.1.1.1.5-.6 1-1.3.7-.5-.2-.8 1-.1 1.3 1.1.4 2.7-.1 2.7-1.8 0-3.5-5.1-3.4-5.9-.2-1 4 3.8 6.1 7 4.4 2.1-1.1 3.5-3.1 4.7-5.1 1-1.9 2.2-3.4 4.8-3.7 1.9-.2 4 1.8 2.9 3.6-.2.3-.9 1.7-2.5 1.4-1.1-.2-1.5-1.1-1.3-1.6.3-.6 1.1-.8 1.5-.2.2.9 1.7.5 1.4-.4-.9-2.9-5.5-1.1-4.1 1.9 1.6 3.3 6.7 1.4 6.7-2 0-4.6-5.2-4.9-8.2-2.8z"/><path fill="#6D4D42" d="M105.9 61.2c-1.1.2-2 1.2-2.2 2.2-.2 1.5.9 2.5 2.9 2.2.3-.1.7-.3.7-.7v-.1c0-.6-.8-.5-1.2-.4-1.3.2-1.3-1.4-.4-1.8.9-.4 1.8-.1 2.4.6.9 1 .4 2.8-.6 3.7-1.8 1.8-4.8 1.3-5.7-1-1.1-2.7 2.3-6.5 2.7-9.3.6-4-4.6-6.8-7.4-3.9-2.3 2.2-1 6.4 2.2 5.8 1-.2 2-1.7 1.2-2.5-.5-.5-1.1-.4-1.4.1-.3.4-.2.9-.1.9-.7.5-2.1-.7-1.7-2.2.4-1.4 1.5-1.8 2.6-1.8 3.3-.1 3.8 3 2.5 5.9-.9 2-2.7 4.5-2.1 6.9 1 4.3 6.2 4.8 8.8 1.6 1.9-2.5.2-6.8-3.2-6.2zM71 78.7c-1.8-1.7-5.1-1.6-7.3-1-4.5 1.3-8.5 4-12.6 6.1-4.3 2.2-9.2 3.7-14 4.6-5.3 1-12.7 1.2-15.9-4.1-1.6-2.7-.2-8 3.7-7.7 1.5.1 3.2.9 3.6 2.5.7 2.4-1.8 3.6-2.4 1.7 0-.4-.1-.7-.4-.9-.7-.5-1.5 0-1.4.8.4 3.1 3.8 3.3 5.2 1.2 1.6-2.4-.2-5.6-2.6-6.4-3.2-1.1-6.5.5-7.7 3.7-1.4 3.6.3 6.8 3.3 8.9.6.4 1.1.7 1.7 1-3-.4-6-1-9-1-4.6.1-8.5 3.6-6.4 8.2.7 1.5 2.6 2.6 4.3 2.5 1.5 0 3.5-.7 3.8-2.4.7-3.3-3.5-5.3-4.8-2.2-.1.1-.1.2-.1.3 0 .1 0 .2-.1.3-.2.8 1.2 1.4 1.4.6.3-1.4 1.3-.9 1.8-.5.6.6.3 2.1-1.1 2.3-.9.2-1.8.1-2.5-.4-1.5-1-2.4-3-1.2-4.8 2.2-3.2 5.8-2.6 9.3-2.1 3 .4 5.8.8 8.9.8 1.2 0 2.5 0 3.8-.2 1.1 0 2.2-.1 3.3-.3 4.3-.4 9.1-1.9 13.1-3.6 4.7-2.1 9-5.3 13.9-6.9 1.9-.7 4.1-1.3 6.1-.6 1.3.4 2.6 1.7 2.3 3.4-.3 1.4-1.7 2.2-2.9 1.7-1.5-.7-.4-2.6 1-1.7.2.2.7 0 .6-.3-.7-1.8-3.1-1.4-3.6.3-.8 2.8 2.6 3.6 4.4 2.5 2.2-1.3 2.3-4.6.5-6.3z"/><path fill="#6D4D42" d="M13.3 85.8c.8 1.1 2.4 1.1 3 0 .4-.6.5-1.5-.1-2.1-1.3-1.4-4.2.3-2.9 2.1zm2.1-.6c-.1.2-.3.3-.4.4-.5.1-1-.4-.8-.8.1-.3.6-.5.8-.4.4.1.6.5.4.8zM48.6 70.7c2 1.5 2.7 4 4.3 5.7 1.2 1.3 2.5 2.2 4.3 2.3 1.3.1 2.8-.7 3-2 .1-.5.1-.9-.2-1.6-.5-1.2-2.9-1.7-3.1.1-.1.5.6 1 1.3.7.5-.2.8 1 .1 1.3-1.1.4-2.7-.1-2.7-1.8 0-3.5 5.1-3.4 5.9-.2 1 4-3.8 6.1-7 4.4-2.1-1.1-3.5-3.1-4.7-5.1-1-1.9-2.2-3.4-4.8-3.7-1.9-.2-4 1.8-2.9 3.6.2.3.9 1.7 2.5 1.4 1.1-.2 1.5-1.1 1.3-1.6-.3-.6-1.1-.8-1.5-.2-.2.9-1.7.5-1.4-.4.9-2.9 5.5-1.1 4.1 1.9-1.6 3.3-6.7 1.4-6.7-2 0-4.6 5.2-5 8.2-2.8z"/><path fill="#6D4D42" d="M44.9 61.4c1.1.2 2 1.2 2.2 2.2.2 1.5-.9 2.5-2.9 2.2-.3-.1-.7-.3-.7-.7V65c0-.6.8-.5 1.2-.4 1.3.2 1.3-1.4.4-1.8-.9-.4-1.8-.1-2.4.6-.9 1-.4 2.8.6 3.7 1.8 1.8 4.8 1.3 5.7-1 1.1-2.7-2.3-6.5-2.7-9.3-.6-4 4.6-6.8 7.4-3.9 2.3 2.2 1 6.4-2.2 5.8-1-.2-2-1.7-1.2-2.5.5-.5 1.1-.4 1.4.1.2.4.2.8.1.9.7.5 2.1-.7 1.7-2.2-.4-1.4-1.5-1.8-2.6-1.8-3.3-.1-3.8 3-2.5 5.9.9 2 2.7 4.5 2.1 6.9-1 4.3-6.2 4.8-8.8 1.6-1.9-2.5-.2-6.7 3.2-6.2zM77.7 83.1c-.3-1-1.2-1.7-2.3-1.6-.4 0-.8.2-1.1.4-.5.2-.9.9-1.1 1.4 0 .1-.1.3-.1.4-.1.6.2 1.2.6 1.6l.6.6c.8.5 2 .3 2.7-.3.7-.6 1-1.6.7-2.5zm-1.4.4c.2.6 0 1.2-.5 1.2h-.5c-.4 0-.7-.2-.7-.7-.2-.9 1.3-1.6 1.7-.5z"/></svg>