<svg xmlns:xlink="http://www.w3.org/1999/xlink"  xmlns="http://www.w3.org/2000/svg" viewBox="0 0 150 150"><path fill="#C1272D" d="M130.7 88.2c-7.4 8.5-16.4 15.6-29.1 20-14.4 5-27.2 3.8-38.8 2.8 10.1 4.5 19.5 10.3 27.4 19.3-13.4-.7-35.2-16.9-43.5-23.5-1.2-3.2-2.2-6.6-3.1-10l7.3 3c9.3 2.9 20.2 5.4 32 5.1 11.8-.4 26.6-4.4 36.4-11.3-28.8 11.2-53.9 6.3-73.8-3.6C63.3 77 87 68 117.1 74.2c-10.9-5.1-26.2-6.6-37.8-4.9-11.6 1.6-21.9 6-30.6 10.4l-7 4.3c-.1.4-.2.9-.2 1.4-.5-3.5-.8-7.1-1-10.8 4.7-5.5 26-29.4 40.5-32.6-6.2 10.1-14.4 17.5-23.6 23.6 11.3-3 23.6-6.4 38.7-3.9 13.3 2.2 23.5 7.7 32.2 14.8.4.3 1.6 1.7 1.2.8-.8-1.4-3-3.1-4.6-4.5-11.5-10.4-25.6-17.5-45.6-18.4 4.6-5.4 8.5-11.8 11.3-19.7-24.2 2.5-42.3 13.3-50.1 38v-2.4c0-7.4.7-14.6 2.1-21.4 1.7.3 3.5 0 5-1 3.4-2.1 4.4-6.6 2.2-9.9-.3-.4-.5-.8-.9-1.1-.3-.3-.4-.8-.2-1.2 2-3.6 7.3-11.9 16.2-14.9.5-.2.8-.7.6-1.2-.2-.5-.7-.8-1.2-.6-9.5 3.2-15.1 11.7-17.2 15.6-.2.4-.7.5-1.1.4l-1.2-.3c-.4-.1-.7-.4-.6-.8 1-5.7 4.4-17.7 15-25.9.4-.3.5-.9.2-1.3s-.9-.5-1.3-.2C46.6 15.3 43.3 28.3 42.3 34c-.1.4-.5.8-.8.9-.5.2-1.1.4-1.6.7-3.4 2.1-4.4 6.6-2.2 9.9.2.3.4.6.6.8-3.2 8.8-4.9 18.4-4.9 28.4 0 30.2 15.9 56.5 39.3 69.9-8.9-7.5-16.4-17.3-21.9-28.7 12.2 15.8 29.6 21.2 50.3 19.8-4.1-7.3-9.1-13-14.6-17.5 19.5-4.4 32.2-13.8 41.7-25.9 1.3-1.7 3.2-3.7 3.7-5.3.2-.8-.8.8-1.2 1.2z"/></svg>