<svg xmlns:xlink="http://www.w3.org/1999/xlink"  xmlns="http://www.w3.org/2000/svg" viewBox="0 0 150 150"><path fill="#FDB6D0" d="M69 96.2c2-.2 4.1-.5 6.2-.9-.3-.3-.7-10.6-.7-10.6s1.3-29.3-33.9-33.3c-29.6-5-25.9-11.6-26.3-15-.3-3.3-7.3-1-1.7 3.3 0 0 6 3.3 8 25.3 1.7 18.2 10.2 31.5 36 31.8 3.8-1.6 8.6-1.3 12.4-.6zm-3.8-21.1c.4 1.7-3.4 1.5-3.4-.2 0 0 3-1.5 3.4.2zM18.3 47.3s3.8 4.7 19.5 5.8c13.5.9 25.9 6.9 25.9 15.2 0 8.3-14.3 7.9-14.5.9-.2-7.1 10-4.3 7.7-.9-.2 1.5-.2-2.6-3-.4-2.8 2.1 6.6 9.4 8.8 2.1 2.1-7.3-7.7-11.3-19.2-8.8-11.7 2.6-20.4-2.1-25.2-13.9zm19.1 16.3c10.3 0-3.8 12.2-15.2-7.7 0 0 4.9 7.7 15.2 7.7zm3.2 6.4s-5.8-.9-8.3 2.8c-2.6 3.6-5-5.4 8.3-2.8zM32 87.1c-9.8-6.8-9-26.3-9-26.3 4.5 31.7 14.8 27.4 17.3 23.5 2.6-3.8-2.8-7.7-5.3-4.9-2.6 2.8 1.5 4.9 1.1 4.7-5.1.9-6.2-8.6.6-7.3 9 2.8 5.2 17.2-4.7 10.3zm13.9 1.7c-.6 2.8-4.9 1.3-3-.6 1.9-1.9.4-6.6.4-6.6 2.2 2.7 3.3 4.4 2.6 7.2zm2-4.5s3.2 3 8.8 2.6c5.5 2.1-4.6 6.2-8.8-2.6zm10.9 1.5s3-2.1 3.2-.2c.2 1.9-2.4 1.3-3.2.2zm3-4C58.2 85.7 50 85.7 43.2 78c-6.8-7.7-12.6-.9-12.6-.9 2.8-5.6 10.9-8.6 18 0s12.8 5.6 12.8 1.9c0-3.6-6.2-2.1-6.2-.2 0 1.9 2.1 1.1 2.4 1.1-.9 1.9-6.8.9-3.6-2.8 3.1-3.7 11.4.8 7.8 4.7z"/><path fill="#00B3E6" d="M138.7 36.5c-.3 3.3 3.3 10-26.3 15-35.2 4-33.9 33.3-33.9 33.3s-.3 10.2-.7 10.5c2.3.4 4.5.7 6.6.9 3.8-.7 8.7-1 12.5.6 25.4-.5 33.7-13.8 35.4-31.8 2-21.9 8-25.3 8-25.3 5.7-4.2-1.3-6.6-1.6-3.2zM86 76c.4-1.7 3.4-.2 3.4-.2 0 1.7-3.9 1.9-3.4.2zm11.3 1.9c3.2 3.6-2.8 4.7-3.6 2.8.2 0 2.4.9 2.4-1.1 0-1.9-6.2-3.4-6.2.2s5.8 6.6 12.8-1.9c7.1-8.6 15.2-5.6 18 0 0 0-5.8-6.8-12.6.9s-15 7.7-18.6 3.8c-3.7-3.8 4.6-8.3 7.8-4.7zm13.3-7c13.3-2.6 10.9 6.4 8.3 2.8-2.6-3.7-8.3-2.8-8.3-2.8zM89.2 86.5c.2-1.9 3.2.2 3.2.2-.9 1.1-3.4 1.7-3.2-.2zm5.3 1.3c5.6.4 8.8-2.6 8.8-2.6C99 94 89 89.9 94.5 87.8zm10.7 1.9c-.6-2.8.4-4.5 2.6-7.3 0 0-1.5 4.7.4 6.6 1.9 2-2.3 3.5-3 .7zm13.9-1.7c-9.8 6.8-13.7-7.5-4.7-10.3 6.8-1.3 5.8 8.1.6 7.3-.4.2 3.6-1.9 1.1-4.7-2.6-2.8-7.9 1.1-5.3 4.9 2.6 3.9 12.8 8.1 17.3-23.5 0 0 .9 19.4-9 26.3zm-5.3-23.6c10.3 0 15.2-7.7 15.2-7.7-11.4 19.9-25.5 7.7-15.2 7.7zm-6-2.3c-11.5-2.6-21.4 1.5-19.2 8.8 2.1 7.3 11.5 0 8.8-2.1-2.8-2.1-2.8 1.9-3 .4-2.4-3.4 7.9-6.2 7.7.9-.2 7.1-14.5 7.5-14.5-.9S99.9 54.9 113.3 54c15.6-1.1 19.5-5.8 19.5-5.8-4.7 11.8-13.5 16.5-25 13.9z"/><path fill="#FDB6D0" d="M84.4 96.2c-3.5.6-6.1 1.6-6.1 1.6-.7 22.9 10.3 22.6 20.3 22.6 8.6.3 6.3 7 7.6 6.3 2.7-2.7-4.7-1.7-3.3-14 1.5-9.5-1.5-14-5.9-15.9-3.9-1.6-8.7-1.3-12.6-.6zm2.8 8.1c-.4-1.5-1.3 0-1.5-.9.2-1.7 4.5-.4 1.3 2.1-3.2 2.6-4.7-3-4.7-3 2.2 3.1 5.4 3.3 4.9 1.8zm-.3 12.2c-7.7-.9-6.9-14.3-6.9-14.3v-.6c0 3.4 2.2 11.8 7.4 13.9 5.1 2.1 5.5-4.3 3.1-4.3s-1.8 1.9-1.8 1.9c-1.7-.6-2.3-3.6 1.4-3.6 3.6-.1 4.5 7.8-3.2 7zm9.1 2.8c-1.4-1 1.2-.2 1.5-1v-.3.3c-.1.5-.3 1.8-1.5 1zm-1.1-3.7c.6-4.4-.6-8.8-5.1-8.1-2.3.3-3.2 1.4-3.6 2.3-.1.5-.2 1.1-.2 1.8 0 0-.2-.8.2-1.8 1.3-5.2 8.6-4.8 11.3-.2 3 5.2-3.2 10.5-2.6 6zm5 4.3c-2.1-1.1-.4-5.1-.4-5.1s-.9 3.4.4 3.6c1.2.2 1 1.9 0 1.5zm.2-11.1c.3.7-1.9-4.9-7.7-4.7-5.8.2 4-4.9 7.7 4.7z"/><path fill="#00B3E6" d="M69 96.2c-3.8-.7-8.5-.9-12.3.7-4.4 1.9-7.4 6.4-5.9 15.9 1.3 12.3-6 11.3-3.3 14 1.3.7-1-6 7.6-6.3 10 0 20.9.3 20.3-22.6 0 0-2.8-1.1-6.4-1.7zm2.8 4.7s-1.5 5.6-4.7 3c-3.2-2.6 1.1-3.8 1.3-2.1-.2.9-1.1-.6-1.5.9-.4 1.4 2.8 1.2 4.9-1.8zm-17.5 17.3c-1.1.4-1.3-1.3 0-1.5 1.3-.2.4-3.6.4-3.6s1.7 4-.4 5.1zm-.3-11.1c3.6-9.6 13.5-4.5 7.7-4.7-5.7-.3-7.9 5.4-7.7 4.7zm4.1 10.4c-1.2.8-1.4-.5-1.5-1v-.3.3c.3.9 2.9.1 1.5 1zm1.1-3.6c.6 4.5-5.6-.9-2.6-6 2.7-4.7 10-5.1 11.3.2.4.9.2 1.8.2 1.8 0-.7-.1-1.2-.2-1.8-.4-.9-1.4-2-3.6-2.3-4.5-.7-5.7 3.7-5.1 8.1zm7.9.9c-7.7.9-6.8-7.1-3.1-7.1s3.1 3 1.4 3.6c0 0 .4-1.9-2-1.9s-1.9 6.4 3.2 4.3c5.1-2.1 7.3-10.5 7.3-13.9v.6c.1 0 .9 13.5-6.8 14.4zM78.8 67.2c3-5-6.7-4.5-4 0s1.7 14.7 1.7 14.7c.5-3.7 1-12.2 2.3-14.7z"/><path fill="#FDB6D0" d="M43.4 61.2c11.5-2.6 21.4 1.5 19.2 8.8-2.1 7.3-11.5 0-8.8-2.1 2.8-2.1 2.8 1.9 3 .4 2.4-3.4-7.9-6.2-7.7.9.2 7.1 14.5 7.5 14.5-.9 0-8.3-12.4-14.3-25.9-15.2-15.6-1.1-19.5-5.8-19.5-5.8 4.9 11.8 13.6 16.5 25.2 13.9z"/><linearGradient id="a" gradientUnits="userSpaceOnUse" x1="43.816" y1="51.621" x2="35.476" y2="71.937"><stop offset="0" stop-color="#fffffe"/><stop offset="1" stop-color="#fdb6d0"/></linearGradient><path fill="url(#a)" d="M43.4 61.2c11.5-2.6 21.4 1.5 19.2 8.8-2.1 7.3-11.5 0-8.8-2.1 2.8-2.1 2.8 1.9 3 .4 2.4-3.4-7.9-6.2-7.7.9.2 7.1 14.5 7.5 14.5-.9 0-8.3-12.4-14.3-25.9-15.2-15.6-1.1-19.5-5.8-19.5-5.8 4.9 11.8 13.6 16.5 25.2 13.9z"/><path fill="#FDB6D0" d="M37.4 63.6c-10.3 0-15.2-7.7-15.2-7.7 11.3 19.9 25.4 7.7 15.2 7.7z"/><linearGradient id="b" gradientUnits="userSpaceOnUse" x1="32.015" y1="59.501" x2="29.017" y2="66.806"><stop offset="0" stop-color="#fffffe"/><stop offset="1" stop-color="#fdb6d0"/></linearGradient><path fill="url(#b)" d="M37.4 63.6c-10.3 0-15.2-7.7-15.2-7.7 11.3 19.9 25.4 7.7 15.2 7.7z"/><path fill="#FDB6D0" d="M36.7 76.8c-6.8-1.3-5.8 8.1-.6 7.3.4.2-3.6-1.9-1.1-4.7 2.6-2.8 7.9 1.1 5.3 4.9-2.6 3.8-12.8 8.1-17.3-23.5 0 0-.9 19.5 9 26.3 9.9 6.9 13.7-7.5 4.7-10.3z"/><linearGradient id="c" gradientUnits="userSpaceOnUse" x1="35.818" y1="64.509" x2="24.794" y2="91.362"><stop offset="0" stop-color="#fffffe"/><stop offset="1" stop-color="#fdb6d0"/></linearGradient><path fill="url(#c)" d="M36.7 76.8c-6.8-1.3-5.8 8.1-.6 7.3.4.2-3.6-1.9-1.1-4.7 2.6-2.8 7.9 1.1 5.3 4.9-2.6 3.8-12.8 8.1-17.3-23.5 0 0-.9 19.5 9 26.3 9.9 6.9 13.7-7.5 4.7-10.3z"/><path fill="#FDB6D0" d="M53.8 77.1c-3.2 3.6 2.8 4.7 3.6 2.8-.2 0-2.4.9-2.4-1.1 0-1.9 6.2-3.4 6.2.2s-5.8 6.6-12.8-1.9c-7.1-8.6-15.2-5.6-18 0 0 0 5.8-6.8 12.6.9s15 7.7 18.6 3.8c3.8-3.9-4.5-8.4-7.8-4.7z"/><linearGradient id="d" gradientUnits="userSpaceOnUse" x1="49.622" y1="71.281" x2="43.493" y2="86.211"><stop offset="0" stop-color="#fffffe"/><stop offset="1" stop-color="#fdb6d0"/></linearGradient><path fill="url(#d)" d="M53.8 77.1c-3.2 3.6 2.8 4.7 3.6 2.8-.2 0-2.4.9-2.4-1.1 0-1.9 6.2-3.4 6.2.2s-5.8 6.6-12.8-1.9c-7.1-8.6-15.2-5.6-18 0 0 0 5.8-6.8 12.6.9s15 7.7 18.6 3.8c3.8-3.9-4.5-8.4-7.8-4.7z"/><path fill="#FDB6D0" d="M32.2 72.8c2.6-3.6 8.3-2.8 8.3-2.8-13.2-2.6-10.8 6.4-8.3 2.8z"/><linearGradient id="e" gradientUnits="userSpaceOnUse" x1="36.755" y1="67.917" x2="33.082" y2="76.862"><stop offset="0" stop-color="#fffffe"/><stop offset="1" stop-color="#fdb6d0"/></linearGradient><path fill="url(#e)" d="M32.2 72.8c2.6-3.6 8.3-2.8 8.3-2.8-13.2-2.6-10.8 6.4-8.3 2.8z"/><path fill="#FDB6D0" d="M42.9 88.2c-1.9 1.9 2.4 3.4 3 .6.6-2.8-.4-4.5-2.6-7.3.1.1 1.6 4.8-.4 6.7z"/><linearGradient id="f" gradientUnits="userSpaceOnUse" x1="45.962" y1="82.034" x2="41.791" y2="92.193"><stop offset="0" stop-color="#fffffe"/><stop offset="1" stop-color="#fdb6d0"/></linearGradient><path fill="url(#f)" d="M42.9 88.2c-1.9 1.9 2.4 3.4 3 .6.6-2.8-.4-4.5-2.6-7.3.1.1 1.6 4.8-.4 6.7z"/><path fill="#FDB6D0" d="M56.6 86.9c-5.6.4-8.8-2.6-8.8-2.6 4.3 8.8 14.4 4.7 8.8 2.6z"/><linearGradient id="g" gradientUnits="userSpaceOnUse" x1="53.495" y1="85.351" x2="51.633" y2="89.888"><stop offset="0" stop-color="#fffffe"/><stop offset="1" stop-color="#fdb6d0"/></linearGradient><path fill="url(#g)" d="M56.6 86.9c-5.6.4-8.8-2.6-8.8-2.6 4.3 8.8 14.4 4.7 8.8 2.6z"/><path fill="#FDB6D0" d="M58.8 85.8c.9 1.1 3.4 1.7 3.2-.2-.2-1.9-3.2.2-3.2.2z"/><linearGradient id="h" gradientUnits="userSpaceOnUse" x1="60.976" y1="84.497" x2="59.818" y2="87.319"><stop offset="0" stop-color="#fffffe"/><stop offset="1" stop-color="#fdb6d0"/></linearGradient><path fill="url(#h)" d="M58.8 85.8c.9 1.1 3.4 1.7 3.2-.2-.2-1.9-3.2.2-3.2.2z"/><path fill="#FDB6D0" d="M65.2 75.1c-.4-1.7-3.4-.2-3.4-.2 0 1.7 3.8 1.9 3.4.2z"/><linearGradient id="i" gradientUnits="userSpaceOnUse" x1="63.987" y1="74.013" x2="62.809" y2="76.883"><stop offset="0" stop-color="#fffffe"/><stop offset="1" stop-color="#fdb6d0"/></linearGradient><path fill="url(#i)" d="M65.2 75.1c-.4-1.7-3.4-.2-3.4-.2 0 1.7 3.8 1.9 3.4.2z"/><path fill="#00B3E6" d="M74 99.8c0 3.4-2.2 11.8-7.3 13.9-5.1 2.1-5.5-4.3-3.1-4.3s1.9 1.9 1.9 1.9c1.7-.6 2.1-3.6-1.5-3.6s-4.5 7.9 3.2 7.1c7.7-.9 6.9-14.3 6.9-14.3v-.7z"/><linearGradient id="j" gradientUnits="userSpaceOnUse" x1="69.554" y1="117.715" x2="65.075" y2="89.562"><stop offset="0" stop-color="#fffffe"/><stop offset="1" stop-color="#00b3e6"/></linearGradient><path fill="url(#j)" d="M74 99.8c0 3.4-2.2 11.8-7.3 13.9-5.1 2.1-5.5-4.3-3.1-4.3s1.9 1.9 1.9 1.9c1.7-.6 2.1-3.6-1.5-3.6s-4.5 7.9 3.2 7.1c7.7-.9 6.9-14.3 6.9-14.3v-.7z"/><path fill="#00B3E6" d="M67.9 108.1c.1.5.2 1.1.2 1.8.1-.1.2-.9-.2-1.8z"/><linearGradient id="k" gradientUnits="userSpaceOnUse" x1="69.287" y1="116.462" x2="65.832" y2="94.744"><stop offset="0" stop-color="#fffffe"/><stop offset="1" stop-color="#00b3e6"/></linearGradient><path fill="url(#k)" d="M67.9 108.1c.1.5.2 1.1.2 1.8.1-.1.2-.9-.2-1.8z"/><path fill="#00B3E6" d="M64.3 105.8c2.3.3 3.2 1.3 3.6 2.3-1.3-5.2-8.6-4.8-11.3-.2-3 5.1 3.2 10.5 2.6 6-.6-4.4.6-8.8 5.1-8.1z"/><linearGradient id="l" gradientUnits="userSpaceOnUse" x1="63.091" y1="117.447" x2="59.636" y2="95.73"><stop offset="0" stop-color="#fffffe"/><stop offset="1" stop-color="#00b3e6"/></linearGradient><path fill="url(#l)" d="M64.3 105.8c2.3.3 3.2 1.3 3.6 2.3-1.3-5.2-8.6-4.8-11.3-.2-3 5.1 3.2 10.5 2.6 6-.6-4.4.6-8.8 5.1-8.1z"/><path fill="#00B3E6" d="M54.3 116.7c-1.3.2-1.1 1.9 0 1.5 2.1-1.1.4-5.1.4-5.1s.8 3.4-.4 3.6z"/><linearGradient id="m" gradientUnits="userSpaceOnUse" x1="54.789" y1="119.347" x2="53.147" y2="109.027"><stop offset="0" stop-color="#fffffe"/><stop offset="1" stop-color="#00b3e6"/></linearGradient><path fill="url(#m)" d="M54.3 116.7c-1.3.2-1.1 1.9 0 1.5 2.1-1.1.4-5.1.4-5.1s.8 3.4-.4 3.6z"/><path fill="#00B3E6" d="M56.6 116.5c.1.6.3 1.9 1.5 1 1.4-.9-1.2-.1-1.5-1z"/><linearGradient id="n" gradientUnits="userSpaceOnUse" x1="57.782" y1="118.182" x2="57.234" y2="114.737"><stop offset="0" stop-color="#fffffe"/><stop offset="1" stop-color="#00b3e6"/></linearGradient><path fill="url(#n)" d="M56.6 116.5c.1.6.3 1.9 1.5 1 1.4-.9-1.2-.1-1.5-1z"/><path fill="#00B3E6" d="M56.6 116.5v-.3.3z"/><linearGradient id="o" gradientUnits="userSpaceOnUse" x1="56.927" y1="118.318" x2="56.379" y2="114.873"><stop offset="0" stop-color="#fffffe"/><stop offset="1" stop-color="#00b3e6"/></linearGradient><path fill="url(#o)" d="M56.6 116.5v-.3.3z"/><path fill="#00B3E6" d="M54 107.1c-.3.7 1.9-4.9 7.7-4.7 5.8.2-4-5-7.7 4.7z"/><linearGradient id="p" gradientUnits="userSpaceOnUse" x1="59.242" y1="107.466" x2="57.671" y2="97.588"><stop offset="0" stop-color="#fffffe"/><stop offset="1" stop-color="#00b3e6"/></linearGradient><path fill="url(#p)" d="M54 107.1c-.3.7 1.9-4.9 7.7-4.7 5.8.2-4-5-7.7 4.7z"/><path fill="#00B3E6" d="M66.9 102.6c.4-1.5 1.3 0 1.5-.9-.2-1.7-4.5-.4-1.3 2.1 3.2 2.6 4.7-3 4.7-3-2.1 3.1-5.3 3.3-4.9 1.8z"/><linearGradient id="q" gradientUnits="userSpaceOnUse" x1="69.463" y1="105.362" x2="68.219" y2="97.542"><stop offset="0" stop-color="#fffffe"/><stop offset="1" stop-color="#00b3e6"/></linearGradient><path fill="url(#q)" d="M66.9 102.6c.4-1.5 1.3 0 1.5-.9-.2-1.7-4.5-.4-1.3 2.1 3.2 2.6 4.7-3 4.7-3-2.1 3.1-5.3 3.3-4.9 1.8z"/><path fill="#00B3E6" d="M113.3 54c-13.5.9-25.9 6.8-25.9 15.2s14.3 7.9 14.5.9c.2-7.1-10.1-4.3-7.7-.9.2 1.5.2-2.6 3-.4 2.8 2.1-6.6 9.4-8.8 2.1-2.1-7.3 7.7-11.3 19.2-8.8 11.5 2.6 20.3-2.1 25-13.9.2 0-3.6 4.7-19.3 5.8z"/><linearGradient id="r" gradientUnits="userSpaceOnUse" x1="-21.029" y1="52.477" x2="-29.369" y2="72.792" gradientTransform="matrix(-1 0 0 1 86.309 0)"><stop offset="0" stop-color="#fffffe"/><stop offset="1" stop-color="#00b3e6"/></linearGradient><path fill="url(#r)" d="M113.3 54c-13.5.9-25.9 6.8-25.9 15.2s14.3 7.9 14.5.9c.2-7.1-10.1-4.3-7.7-.9.2 1.5.2-2.6 3-.4 2.8 2.1-6.6 9.4-8.8 2.1-2.1-7.3 7.7-11.3 19.2-8.8 11.5 2.6 20.3-2.1 25-13.9.2 0-3.6 4.7-19.3 5.8z"/><path fill="#00B3E6" d="M113.8 64.4c-10.3 0 3.8 12.2 15.2-7.7 0 0-5 7.7-15.2 7.7z"/><linearGradient id="s" gradientUnits="userSpaceOnUse" x1="-32.83" y1="60.357" x2="-35.829" y2="67.662" gradientTransform="matrix(-1 0 0 1 86.309 0)"><stop offset="0" stop-color="#fffffe"/><stop offset="1" stop-color="#00b3e6"/></linearGradient><path fill="url(#s)" d="M113.8 64.4c-10.3 0 3.8 12.2 15.2-7.7 0 0-5 7.7-15.2 7.7z"/><path fill="#00B3E6" d="M110.8 85.2c-2.6-3.8 2.8-7.7 5.3-4.9 2.6 2.8-1.5 4.9-1.1 4.7 5.1.9 6.2-8.6-.6-7.3-9 2.8-5.1 17.1 4.7 10.3 9.8-6.8 9-26.3 9-26.3-4.5 31.6-14.8 27.3-17.3 23.5z"/><linearGradient id="t" gradientUnits="userSpaceOnUse" x1="-29.027" y1="65.364" x2="-40.051" y2="92.218" gradientTransform="matrix(-1 0 0 1 86.309 0)"><stop offset="0" stop-color="#fffffe"/><stop offset="1" stop-color="#00b3e6"/></linearGradient><path fill="url(#t)" d="M110.8 85.2c-2.6-3.8 2.8-7.7 5.3-4.9 2.6 2.8-1.5 4.9-1.1 4.7 5.1.9 6.2-8.6-.6-7.3-9 2.8-5.1 17.1 4.7 10.3 9.8-6.8 9-26.3 9-26.3-4.5 31.6-14.8 27.3-17.3 23.5z"/><path fill="#00B3E6" d="M108 78.8c6.8-7.7 12.6-.9 12.6-.9-2.8-5.6-10.9-8.6-18 0s-12.8 5.6-12.8 1.9c0-3.6 6.2-2.1 6.2-.2 0 1.9-2.1 1.1-2.4 1.1.9 1.9 6.8.9 3.6-2.8-3.2-3.6-11.5.9-7.9 4.7 3.7 3.9 11.9 3.9 18.7-3.8z"/><linearGradient id="u" gradientUnits="userSpaceOnUse" x1="-15.223" y1="72.137" x2="-21.352" y2="87.065" gradientTransform="matrix(-1 0 0 1 86.309 0)"><stop offset="0" stop-color="#fffffe"/><stop offset="1" stop-color="#00b3e6"/></linearGradient><path fill="url(#u)" d="M108 78.8c6.8-7.7 12.6-.9 12.6-.9-2.8-5.6-10.9-8.6-18 0s-12.8 5.6-12.8 1.9c0-3.6 6.2-2.1 6.2-.2 0 1.9-2.1 1.1-2.4 1.1.9 1.9 6.8.9 3.6-2.8-3.2-3.6-11.5.9-7.9 4.7 3.7 3.9 11.9 3.9 18.7-3.8z"/><path fill="#00B3E6" d="M118.9 73.6c2.6 3.6 4.9-5.3-8.3-2.8 0 .1 5.7-.8 8.3 2.8z"/><linearGradient id="v" gradientUnits="userSpaceOnUse" x1="-28.091" y1="68.772" x2="-31.764" y2="77.717" gradientTransform="matrix(-1 0 0 1 86.309 0)"><stop offset="0" stop-color="#fffffe"/><stop offset="1" stop-color="#00b3e6"/></linearGradient><path fill="url(#v)" d="M118.9 73.6c2.6 3.6 4.9-5.3-8.3-2.8 0 .1 5.7-.8 8.3 2.8z"/><path fill="#00B3E6" d="M107.8 82.4c-2.1 2.8-3.2 4.5-2.6 7.3.6 2.8 4.9 1.3 3-.6-1.9-2-.4-6.7-.4-6.7z"/><linearGradient id="w" gradientUnits="userSpaceOnUse" x1="-18.884" y1="82.89" x2="-23.055" y2="93.049" gradientTransform="matrix(-1 0 0 1 86.309 0)"><stop offset="0" stop-color="#fffffe"/><stop offset="1" stop-color="#00b3e6"/></linearGradient><path fill="url(#w)" d="M107.8 82.4c-2.1 2.8-3.2 4.5-2.6 7.3.6 2.8 4.9 1.3 3-.6-1.9-2-.4-6.7-.4-6.7z"/><path fill="#00B3E6" d="M94.5 87.8c-5.6 2.1 4.5 6.2 8.8-2.6 0 0-3.2 3-8.8 2.6z"/><linearGradient id="x" gradientUnits="userSpaceOnUse" x1="-11.35" y1="86.207" x2="-13.213" y2="90.743" gradientTransform="matrix(-1 0 0 1 86.309 0)"><stop offset="0" stop-color="#fffffe"/><stop offset="1" stop-color="#00b3e6"/></linearGradient><path fill="url(#x)" d="M94.5 87.8c-5.6 2.1 4.5 6.2 8.8-2.6 0 0-3.2 3-8.8 2.6z"/><path fill="#00B3E6" d="M89.2 86.5c-.2 1.9 2.4 1.3 3.2.2 0 0-3-2.2-3.2-.2z"/><linearGradient id="y" gradientUnits="userSpaceOnUse" x1="-3.869" y1="85.352" x2="-5.027" y2="88.175" gradientTransform="matrix(-1 0 0 1 86.309 0)"><stop offset="0" stop-color="#fffffe"/><stop offset="1" stop-color="#00b3e6"/></linearGradient><path fill="url(#y)" d="M89.2 86.5c-.2 1.9 2.4 1.3 3.2.2 0 0-3-2.2-3.2-.2z"/><path fill="#00B3E6" d="M89.4 75.8s-3-1.5-3.4.2c-.5 1.7 3.4 1.5 3.4-.2z"/><linearGradient id="z" gradientUnits="userSpaceOnUse" x1="-.858" y1="74.868" x2="-2.036" y2="77.738" gradientTransform="matrix(-1 0 0 1 86.309 0)"><stop offset="0" stop-color="#fffffe"/><stop offset="1" stop-color="#00b3e6"/></linearGradient><path fill="url(#z)" d="M89.4 75.8s-3-1.5-3.4.2c-.5 1.7 3.4 1.5 3.4-.2z"/><path fill="#FDB6D0" d="M90.2 109.4c-3.6 0-3.2 3-1.5 3.6 0 0-.4-1.9 1.9-1.9 2.4 0 1.8 6.4-3.3 4.3-5.1-2.1-7.4-10.5-7.4-13.9v.6s-.8 13.5 6.9 14.3c7.8.9 7.1-7 3.4-7z"/><linearGradient id="A" gradientUnits="userSpaceOnUse" x1="1.803" y1="119.42" x2="-2.672" y2="91.292" gradientTransform="matrix(-1 0 0 1 86.309 0)"><stop offset="0" stop-color="#fffffe"/><stop offset="1" stop-color="#fdb6d0"/></linearGradient><path fill="url(#A)" d="M90.2 109.4c-3.6 0-3.2 3-1.5 3.6 0 0-.4-1.9 1.9-1.9 2.4 0 1.8 6.4-3.3 4.3-5.1-2.1-7.4-10.5-7.4-13.9v.6s-.8 13.5 6.9 14.3c7.8.9 7.1-7 3.4-7z"/><path fill="#FDB6D0" d="M86 111.6c0-.7.1-1.2.2-1.8-.4.9-.2 1.8-.2 1.8z"/><linearGradient id="B" gradientUnits="userSpaceOnUse" x1="1.47" y1="118.173" x2="-1.986" y2="96.454" gradientTransform="matrix(-1 0 0 1 86.309 0)"><stop offset="0" stop-color="#fffffe"/><stop offset="1" stop-color="#fdb6d0"/></linearGradient><path fill="url(#B)" d="M86 111.6c0-.7.1-1.2.2-1.8-.4.9-.2 1.8-.2 1.8z"/><path fill="#FDB6D0" d="M86.2 109.8c.4-.9 1.4-2 3.6-2.3 4.5-.6 5.8 3.8 5.1 8.1-.6 4.5 5.6-.9 2.6-6-2.7-4.6-10-5-11.3.2z"/><linearGradient id="C" gradientUnits="userSpaceOnUse" x1="-4.726" y1="119.159" x2="-8.181" y2="97.44" gradientTransform="matrix(-1 0 0 1 86.309 0)"><stop offset="0" stop-color="#fffffe"/><stop offset="1" stop-color="#fdb6d0"/></linearGradient><path fill="url(#C)" d="M86.2 109.8c.4-.9 1.4-2 3.6-2.3 4.5-.6 5.8 3.8 5.1 8.1-.6 4.5 5.6-.9 2.6-6-2.7-4.6-10-5-11.3.2z"/><path fill="#FDB6D0" d="M99.4 114.8s-1.7 4.1.4 5.1c1.1.4 1.3-1.3 0-1.5-1.2-.2-.4-3.6-.4-3.6z"/><linearGradient id="D" gradientUnits="userSpaceOnUse" x1="-13.028" y1="121.059" x2="-14.67" y2="110.738" gradientTransform="matrix(-1 0 0 1 86.309 0)"><stop offset="0" stop-color="#fffffe"/><stop offset="1" stop-color="#fdb6d0"/></linearGradient><path fill="url(#D)" d="M99.4 114.8s-1.7 4.1.4 5.1c1.1.4 1.3-1.3 0-1.5-1.2-.2-.4-3.6-.4-3.6z"/><path fill="#FDB6D0" d="M96 119.3c1.2.8 1.4-.5 1.5-1-.2.8-2.9 0-1.5 1z"/><linearGradient id="E" gradientUnits="userSpaceOnUse" x1="-10.036" y1="119.893" x2="-10.584" y2="116.448" gradientTransform="matrix(-1 0 0 1 86.309 0)"><stop offset="0" stop-color="#fffffe"/><stop offset="1" stop-color="#fdb6d0"/></linearGradient><path fill="url(#E)" d="M96 119.3c1.2.8 1.4-.5 1.5-1-.2.8-2.9 0-1.5 1z"/><path fill="#FDB6D0" d="M97.5 118v0z"/><linearGradient id="F" gradientUnits="userSpaceOnUse" x1="-10.891" y1="120.029" x2="-11.439" y2="116.584" gradientTransform="matrix(-1 0 0 1 86.309 0)"><stop offset="0" stop-color="#fffffe"/><stop offset="1" stop-color="#fdb6d0"/></linearGradient><path fill="url(#F)" d="M97.5 118v0z"/><path fill="#FDB6D0" d="M92.4 104.1c5.8-.2 8 5.4 7.7 4.7-3.7-9.6-13.5-4.5-7.7-4.7z"/><linearGradient id="G" gradientUnits="userSpaceOnUse" x1="-8.575" y1="109.177" x2="-10.146" y2="99.3" gradientTransform="matrix(-1 0 0 1 86.309 0)"><stop offset="0" stop-color="#fffffe"/><stop offset="1" stop-color="#fdb6d0"/></linearGradient><path fill="url(#G)" d="M92.4 104.1c5.8-.2 8 5.4 7.7 4.7-3.7-9.6-13.5-4.5-7.7-4.7z"/><path fill="#FDB6D0" d="M87 105.6c3.2-2.6-1.1-3.8-1.3-2.1.2.9 1.1-.6 1.5.9.4 1.5-2.8 1.3-4.9-1.7 0-.1 1.5 5.4 4.7 2.9z"/><linearGradient id="H" gradientUnits="userSpaceOnUse" x1="1.646" y1="107.074" x2=".401" y2="99.251" gradientTransform="matrix(-1 0 0 1 86.309 0)"><stop offset="0" stop-color="#fffffe"/><stop offset="1" stop-color="#fdb6d0"/></linearGradient><path fill="url(#H)" d="M87 105.6c3.2-2.6-1.1-3.8-1.3-2.1.2.9 1.1-.6 1.5.9.4 1.5-2.8 1.3-4.9-1.7 0-.1 1.5 5.4 4.7 2.9z"/></svg>