<svg xmlns:xlink="http://www.w3.org/1999/xlink"  xmlns="http://www.w3.org/2000/svg" viewBox="0 0 150 150"><path fill="#52B0B4" d="M112.3 38.4l-69.4-7.3c-3-.3-5.7 1.9-6 4.9l-1 9.6 5.5-.3.9-8.8 69.4 7.2-6.5 62.6-2.4-.2 1 22c2.6-.2 4.8-2.2 5.1-4.9l8.2-78.9c.4-2.9-1.8-5.6-4.8-5.9z"/><path fill="#C8A62D" d="M133.8 27.1L66.2 9.7c-2.9-.8-5.9 1-6.7 3.9l-4.1 15.9 4.9.8L64.8 15l67.6 17.4-15.7 60.9-2.3-.6-2.2 21.9c2.6.2 5.1-1.4 5.8-4.1l19.8-76.8c.7-2.9-1.1-5.8-4-6.6z"/><path fill="#ED4E58" d="M91.8 45.8L22.1 49c-3 .1-5.4 2.7-5.2 5.7l3.6 79.3c.1 3 2.7 5.4 5.7 5.2L96 136c3-.1 5.4-2.7 5.2-5.7L97.6 51c-.2-3-2.7-5.4-5.8-5.2zm-66.5 71.5l-2.9-62.9 69.7-3.2 2.9 62.9-69.7 3.2z"/><path fill="#C8A62D" d="M76.4 63.9c-10.1 0-15.3 9.3-16 10.3-.7-.9-5.8-10.3-16-10.3-10.6 0-16.9 10.5-11.4 21.4 5.4 10.6 21.9 24.1 26.8 27.8.2.2.3.3.5.4.2-.1.4-.3.6-.5 5-3.8 21.4-17.2 26.7-27.7 5.7-10.9-.6-21.4-11.2-21.4z"/><path fill="#52B0B4" d="M60.3 73.9c-1.1-1.7-6.2-10-15.8-10-10.6 0-16.9 10.5-11.4 21.4 5.4 10.6 21.9 24.1 26.8 27.8.1.1.3.2.4.3V73.9z"/></svg>