<svg xmlns:xlink="http://www.w3.org/1999/xlink"  xmlns="http://www.w3.org/2000/svg" viewBox="0 0 150 150"><path fill="none" d="M68.3 123.1l-1-2.4c-.1.1-.2.1-.4.2-.4.2-.9.5-1.5.8-1.2.7-2.7 1.6-4 2.5-.8.5-1.5 1.1-1.9 1.5h1.2c2.9-.2 5.8-.9 8.3-1.8-.3-.2-.6-.5-.7-.8zM92.5 83.1s5.8 2.5 5.8-.5-5.3-2.5-5.3-1v-1.1s-.6 0-.8.1l-.5 1.2c.5.7.9 1.4.8 1.3zM85.4 101.7c-.1.4-.4.7-.7.8 2.5.7 5.4 1.2 8.3 1.2h.2c.5 0 .8 0 1.1-.1l-.3-.3c-.7-.6-1.8-1.2-2.9-1.8-2-1.1-4.1-2.1-4.9-2.4l-.8 2.6zM57.5 98.4l.1 1.1c-.1-1.5-5.7-1.6-5.5 1.4.2 3 5.6.1 5.6.1-.1.1.7-1.1 1.2-2.1l-.2-.5h-1.2z"/><path fill="#6A7E91" d="M59.7 96.4c-.1.6-.2 1.2-.4 1.8h.8c.3 0 .6-.1 1-.3l-3.1-8c-.1-.3-.3-.5-.6-.7L15 68.4c5.5-2.2 18.5-7.3 30.6-12 6.1-2.4 12-4.6 16.5-6.3 2.2-.8 4.1-1.5 5.5-2 .2-.1.4-.1.6-.2l-7.9 34.6c-.2.7.3 1.4 1 1.5.7.2 1.4-.3 1.5-1L71 46.7c.1-.2 0-.5 0-.7 0-.7-.7-1.2-1.4-1.2-.3 0-.4.1-.6.1-.8.2-2.2.7-4.2 1.4C58 48.8 44.6 54 33 58.5 21.4 63.1 11.4 67 11.4 67c-.5.2-.8.6-.8 1.1 0 .5.3 1 .7 1.2l44.6 21.9 2.7 7h.5c.3-.6.5-1.2.6-1.8zM138 41.6s-14.2-4.5-28.7-8.9c-7.3-2.2-14.6-4.5-20.3-6.1-2.8-.8-5.3-1.5-7.1-2-.9-.2-1.7-.4-2.2-.6-.3-.1-.5-.1-.7-.2-.2 0-.4-.1-.6-.1-.7 0-1.3.6-1.3 1.3 0 .2 0 .4.1.5 0 .1 0 .2.1.3l11 35.6c.2.7.9 1 1.6.8.7-.2 1-.9.8-1.6l-10.5-34c.7.2 1.6.4 2.7.7 7.1 2 20.7 6.1 32.6 9.8 5.9 1.8 11.4 3.5 15.4 4.8 1.5.5 2.7.9 3.8 1.2l-40.8 24c-.3.2-.5.4-.6.7l-3.9 12.6c.2 0 .3.1.5.1h.8c-.2-.6-.4-1.2-.5-1.8.2.6.4 1.2.7 1.8.4 0 .7-.1 1.1-.1l3.5-11.3 42.8-25.2c.4-.3.7-.7.6-1.2 0-.6-.4-1-.9-1.1zM58.8 98.9l.3-.6h-.5l.2.6zM89.8 80.5h-.5L83 100.9c-.1.4 0 .8.2 1.1-.8-.3-1.5-.6-2.2-.9-1.6-.7-3-1.5-3.9-2.3-.5-.4-.8-.7-1-1-.2-.3-.3-.5-.3-.6-.1-.7-.8-1.2-1.5-1-.7.1-1.2.8-1 1.5.1.6.4 1.2.8 1.7.7.9 1.7 1.7 2.9 2.5 1.9 1.2 4.3 2.2 7 3 2.8.8 5.9 1.3 9.1 1.3h.2c1.1 0 2-.1 2.7-.3.4-.1.7-.3 1-.6.2-.2.3-.4.4-.6.1-.2.1-.5.1-.7 0-.4-.1-.7-.3-1-.3-.5-.6-.8-1-1.2-.7-.6-1.6-1.2-2.6-1.8-2.7-1.6-6.1-3.1-6.6-3.3l4.4-14.2c-.2-.6-.5-1.2-.7-1.9-.3 0-.6 0-.9-.1zm1.3 21c1.1.6 2.2 1.2 2.9 1.8l.3.3c-.3 0-.7.1-1.1.1H93c-2.9 0-5.7-.5-8.3-1.2.3-.1.6-.4.7-.8l.8-2.6c.8.3 2.9 1.3 4.9 2.4zM91.9 80.5c-.3 0-.7.1-1 .1.2.3.4.7.7 1.2l.3-1.3zM79 116.8c-.7-.1-1.3.5-1.4 1.2 0 .1-.1.3-.3.7-.4.6-1.1 1.3-2.1 2.1-1.2.9-2.8 1.8-4.7 2.6.2-.3.2-.7.1-1.1l-9.4-24c-.4 0-.7.1-1.1.1-.3 0-.6.1-.9.1-.1.4-.2.7-.3 1.1l7.4 18.8h-.1s-2.3 1.2-4.7 2.7c-1.2.7-2.3 1.5-3.3 2.3-.5.4-.9.8-1.2 1.2-.2.2-.3.4-.4.7-.1.3-.2.6-.2.9 0 .4.1.8.4 1.1.2.2.4.4.6.5.3.2.7.3 1.1.3.4.1.8.1 1.2.1h1c4.9-.3 9.5-1.8 13-3.7 1.7-.9 3.2-1.9 4.3-3 .5-.5 1-1 1.4-1.6.4-.6.6-1.1.7-1.8.2-.7-.3-1.3-1.1-1.3zm-10 7c-2.5.9-5.4 1.6-8.3 1.8h-1.2c.5-.4 1.2-1 1.9-1.5 1.3-.9 2.8-1.8 4-2.5.6-.3 1.1-.6 1.5-.8.2-.1.3-.2.4-.2l1 2.4c.1.4.4.7.7.8.1 0 .1 0 0 0z"/><path fill="#FF9F9D" d="M119.8 49.6l-32.2-9.4 8.5 20.4zM30.1 73.7l24.5 9.2L61.5 62z"/><path fill="#DABB86" d="M90.1 78.7c.2.6.3 1.2.5 1.8h-.8.9c.2.6.4 1.3.7 1.9C98.3 99.8 118 103 118 103l-3.4-5.9 10.2-1.7s-27.5-7-31-10.6c3.4 2.9 8.9-1.1 7.6-5.2-1.5-4.6-8.4 0-8.4 0v.8h-.8c-.4 0-.9.1-1.2.1-.3-.6-.7-1.2-.9-1.8zm2.1 1.8c.2 0 .8 0 .8-.1v1.1c0-1.5 5.3-2 5.3 1s-5.7.5-5.7.5c.1.1-.5-.6-1-1.4-.3-.4-.4-.8-.6-1.2.4.2.9.1 1.2.1zM61.3 98.1c14-1.7 19.1-15.9 19.1-15.9l-4.5 1.6.1-7.2s-8.3 18-11.2 19.9c2.4-1.9.4-6.1-2.6-5.7-3.3.5-1.1 5.9-1.1 5.9l1.4.3c-1-.2-.7-4.1 1.4-3.7 2.1.4-.4 3.9-.4 3.9.1 0-1.2.5-2.3.8-.4.1-.7.2-1 .3.4-.1.7-.1 1.1-.2z"/><path fill="#DABB86" d="M60.2 98.2h-.8c.1-.6.3-1.2.4-1.8l-.6 1.8h-1.6l-.1-.8s-7.4-4-8.6.6c-1 4.1 4.6 7.7 7.7 4.6-3.2 3.9-8.9 7.6-19.3 8.7l-10.7 4.2 10.3.9-2.9 6.2s20-4.8 25.3-23.3c.1-.4.2-.7.3-1.1 0 .1.3.1.6 0zm-1.4.7c-.5 1-1.2 2.2-1.2 2.1 0 0-5.4 2.9-5.6-.1-.2-3 5.4-2.9 5.5-1.4l-.1-1.1h1.7c-.1.1-.2.3-.3.5zM89.3 80.5c-1.2-.2-3.1-.8-2.9-.8 0 0-2.7-3.3-.6-3.8 2-.5 2.7 3.3 1.7 3.6l1.4-.4s1.8-5.6-1.5-5.8c-2.9-.2-4.7 4.1-2.1 5.9-3.1-1.7-12.7-19-12.7-19l.7 7.1-4.6-1.2c-.2 0 6.1 14.1 20.6 14.4.2.1.3.1.5.1-.2-.1-.3-.1-.5-.1z"/></svg>