<svg xmlns:xlink="http://www.w3.org/1999/xlink"  xmlns="http://www.w3.org/2000/svg" viewBox="0 0 150 150"><path fill="none" d="M64 105.1l-.6.9c-.2.3-.3.6-.5.8 0 0 0 1.1-.1 1.1v.1c3.5.7 7 .6 10.1-1.2 3.2-1.9 5-5.6 3.2-8.7-1.3 1-2.7 1.9-3.9 2.8-.3 2.4-2.2 3.2-4.1 2.8-1.8 1.2-3.4 2.2-4.8 3.1.2-.6.5-1.1.7-1.7zM111.2 42.9c5.8 13.1-4 27.8-16.7 40 3.2-1.2 6.2-3 8.5-5.4 10.5-11 15.7-32.5 1.9-43.6-6.3-5-14-5.4-20.9-3.1 10.6-1.8 22.1.7 27.2 12.1zM59.1 38.2C50.2 27.9 37.2 22 24.3 31.9c-1.1.8-2.1 1.7-3 2.6 11.1-8.2 29.4-3.4 37.8 3.7z"/><path fill="#E74F7E" d="M77.2 87.6c-9.8-3.8-14.9-14.2-11.5-24.2C68.8 54.2 80 51.7 88 55c8.7 3.6 11.2 15.3 2.5 20.5-6.9 4.2-15.2-1.6-13.4-9.3.5-2.2 3.5-1.2 3.2.9-.8 5.7 6.7 8 10 3.8 4.5-5.6-.1-12-6.1-13.3-6.9-1.5-15 1.7-16 9.5C66 83.2 82.1 87.5 94.3 83 107 70.7 116.8 56 111 43c-4.9-11.5-16.4-14-27-12.2-7.1 2.4-13.4 7.8-16.4 14.2-.7 1.6-2.4 2.4-3.2.9-1.5-2.7-3.3-5.3-5.4-7.7-8.4-7.1-26.7-11.9-37.8-3.7-4.7 4.8-6.7 10.7-5.9 17.9.9 8 3.3 16.1 7.6 23 7.8 12.5 16.4 22.9 30.1 29.1 2.9 1.3 6.3 2.8 9.8 3.5v-.1s0-1.1.1-1.1c.2-.3.3-.6.5-.8l.6-.9c-.3.5-.5 1.1-.7 1.6 1.4-.9 3-1.9 4.8-3.1-2.2-.5-4.3-2.7-3.4-6.2 1.6-6.6 10.5-6.4 13.7-.9 3.2-2.3 6.5-4.9 9.7-7.7-3.6.4-7.3.1-10.9-1.2zM21.5 56.5c-1.3 0-2.4-1.1-2.4-2.4 0-1.3 1.1-2.4 2.4-2.4 1.3 0 2.4 1.1 2.4 2.4 0 1.3-1 2.4-2.4 2.4zm13.3 0c-1.3 0-2.4-1.1-2.4-2.4 0-1.3 1.1-2.4 2.4-2.4 1.3 0 2.4 1.1 2.4 2.4.1 1.3-1 2.4-2.4 2.4zm13.4 0c-1.3 0-2.4-1.1-2.4-2.4 0-1.3 1.1-2.4 2.4-2.4s2.4 1.1 2.4 2.4c0 1.3-1.1 2.4-2.4 2.4zm13.3 0c-1.3 0-2.4-1.1-2.4-2.4 0-1.3 1.1-2.4 2.4-2.4 1.3 0 2.4 1.1 2.4 2.4 0 1.3-1.1 2.4-2.4 2.4z"/><path fill="#E74F7E" d="M75.4 97c-1.3-1.5-3.8-1.9-5.8-1.4-3.3.9-3.8 5.1-.8 5.5.5.1 1.4.1 1.6-1.1.2-1.6 1.9-1 1.9.3v.5c1.3-.9 2.6-1.8 3.9-2.8-.2-.3-.5-.7-.8-1zM17.1 71.7c-1.6-3.6-3.2-7.9-4.3-12.4.8 4.2 2.3 8.3 4.3 12.4z"/><path fill="#2B445D" d="M145.4 112.9s-1.3 1.9-4.4 4.3c-1.9 1.4-4 2.6-6.2 3.6-3 1.3-6 2.2-9 2.8-3.6.7-7.4 1.1-11.2 1.1-4.3.1-9.3-.5-12.5-1-2.8-.5-5.7-1.1-8.8-2-.1-.1-.3-.2-.4-.4l-.4-.4c-.4-.3-.7-.7-1.1-1.2-.6-.8-1.1-1.9-1.5-3.3-.1-.4-.1-1-.1-1.4v-.5c.1-.7.1-1.4.3-1.7l.1-.1c.4-1.2 1.3-2.3 2.3-3 .9-.6 2.1-1 3.3-1H96.6l.5.2h.2c.1 0 .3.1.5.2l.2-.1c.5.2.9.6 1.3 1.1.5.6 1.2 1.9.9 3.3-.2.8-.9 1.9-1.8 2.2-.9.4-1.9.4-2.5 0-.7-.4-1.2-1.1-1.3-1.9-.1-.6 0-1.1.4-1.6.6-.7 1.2-.8 1.4-.8l.8-.1.4-1.3-.8-.7h-1.1l-.4.1c-.5.1-1.4.3-2.2 1-.5.4-.8.9-1.2 1.5-.1.3-.3.7-.3 1v.4c0 .2-.1.5-.1.9 0 1.8.9 3.5 2.3 4.6 1.6 1.3 4.1 1.6 6.2.8 2.3-.8 4-2.7 4.6-5.2.6-2.3 0-5-1.5-7-.8-1.1-1.8-1.9-2.8-2.5l-.2-.1c-.5-.2-1-.5-1.6-.7l-1-.3c-.2 0-.4-.1-.6-.1h-.2c-2.5-.1-4.9.5-6.8 1.9-1.9 1.4-3.2 3.3-3.9 5.6-.4 1.2-.4 2.1-.4 3V114.4c.1 1.2.2 2.1.5 3 .3.8.6 1.6 1 2.3-3.4-1.2-7-2.6-10.8-4.2-.2-.1-.4-.3-.6-.4l-1-.5c-.5-.3-1-.4-1.4-.4-2.1-.9-4.2-1.8-6.2-2.7 1.3 0 2.6-.2 3.9-.5 5.9-1.3 10.8-6.1 8.2-13.3-.2-.5-.4-.9-.6-1.3-3.2-5.4-12.1-5.6-13.7.9-.9 3.5 1.2 5.7 3.4 6.2 1.9.4 3.9-.4 4.1-2.8v-.5c0-1.3-1.7-1.8-1.9-.3-.2 1.2-1.1 1.2-1.6 1.1-2.9-.5-2.4-4.6.8-5.5 2-.5 4.5-.2 5.8 1.4.3.4.6.7.8 1.1 1.8 3.2 0 6.9-3.2 8.7-3.1 1.8-6.6 1.9-10.1 1.2s-6.9-2.2-9.8-3.5c-13.8-6.1-22.4-16.5-30.2-29-4.3-6.9-6.7-15-7.6-23-.8-7.2 1.2-13.1 5.9-17.9.9-.9 1.9-1.8 3-2.6 12.9-9.9 26-4 34.8 6.3 2 2.4 3.8 5 5.4 7.7.9 1.5 2.5.7 3.2-.9 3-6.4 9.2-11.8 16.4-14.2 6.9-2.4 14.6-1.9 20.9 3.1 13.8 11 8.6 32.5-1.9 43.6-2.3 2.4-5.2 4.2-8.5 5.4-12.2 4.6-28.3.2-26.1-15.9 1.1-7.8 9.1-11 16-9.5 6 1.3 10.6 7.7 6.1 13.3-3.3 4.2-10.8 1.9-10-3.8.3-2.1-2.7-3.1-3.2-.9-1.9 7.7 6.4 13.5 13.4 9.3 8.7-5.2 6.2-16.8-2.5-20.5-8.1-3.4-19.2-.8-22.3 8.3-3.4 10.1 1.6 20.5 11.5 24.2 3.6 1.4 7.3 1.7 10.9 1.2 7.7-1 15-5.5 19.8-11.2 8.4-9.8 11.1-23.5 6.7-35.7C111 31 101.1 25.3 90 25.8c-7.3.3-15.2 4.5-20.4 10.5-1.4 1.6-2.6 3.4-3.5 5.2-.4-.6-.7-1.1-1.1-1.7-5.6-8.3-13.2-15-23.5-16.5C30.7 22 19.7 29 14.4 37.9c-3.6 6-3.3 13.9-1.5 21.4 1.1 4.5 2.7 8.8 4.3 12.4.1.2.2.4.2.5 4.7 10.4 13.2 21.9 22.5 28.6.9.7 1.9 1.4 3 2.1l-2.3-.5-3.7-.5c-3.8-.5-7.9-.6-12-.1-1.3.1-2.5.4-3.6.7-.5.1-1.1.3-1.6.4-1.1.3-2.1.7-3.1 1.1-.5.2-1 .4-1.4.6-1.2.4-2.3 1-3.2 1.5l-3.8 2.1-5.5 3.7 1.1 1.8 5.6-3.3 3.8-1.8c.9-.4 1.8-.9 2.9-1.2.5-.1 1-.3 1.5-.5.9-.3 1.8-.6 2.7-.8.6-.1 1.2-.2 1.8-.4 1-.2 2-.4 3.1-.5 3.8-.3 7.5-.2 11.1.4l3 .5 6.2 1.4c.4.1.7.2 1.1.3.7.2 1.3.4 2 .6 4 1.3 8.1 3.1 12.6 5.1 1.2.5 2.4 1.1 3.6 1.6 3.1 1.4 6.3 2.8 9.4 4.2.6.3 1.3.5 1.9.8 0 .1.1.2.1.3.3.7.5 1.7.5 2.9 0 .4-.1.8-.2 1.2l-.4 1.2c0 .1 0 .1-.1.2s-.2.3-.2.3c-.5.8-1.4 1.5-2.4 1.9-.9.4-2.2.4-3 .1-.1 0-.2-.1-.3-.1H70l-.5-.3c-.1 0-.2-.2-.3-.2l-.1-.1c-.3-.3-.6-.6-.8-1.1-.1-.1-.1-.2-.1-.4 0-.1-.1-.2-.1-.3l-.1-.7v-.1-.5c0-.1 0-.2.1-.2 0-.1.1-.2 0-.2l.1-.2c.3-.6 1-1.2 1.7-1.3.7-.1 1.5 0 1.9.4.4.4.7 1 .6 1.6 0 .4-.2.8-.6 1-.3.2-.7.3-1 .3h-1l-.6 1.2.6.9 1 .2h.6c.4 0 1.1 0 1.8-.4.5-.2.9-.6 1.3-1.1.2-.2.3-.5.5-.8l.1-.3c.1-.1.2-.4.2-.7.4-1.5 0-3.1-1-4.3-1-1.2-2.5-1.9-4.3-1.9h-.7c-2.1.2-3.8 1.4-4.8 3.3-.2.4-.3.7-.4.9 0 .1-.1.2-.1.3l-.1.2c-.1.5-.1.8-.2 1.1l.3.6v.3c0 .4 0 .8.1 1.2l.1.5c.1.3.2.7.4 1.1.5 1 1.1 1.9 1.8 2.6l.1.1c.3.3.7.6 1.2.8.6.4 1.1.6 1.5.7.9.3 1.8.4 2.7.4 1.1 0 2.2-.2 3.3-.6 1.8-.7 3.3-2.1 4.3-3.8.5-.9.7-1.7.9-2.4v-.1c.1-1 .2-1.7.2-2.5 0-.5-.1-1-.2-1.5 2.5 1 5 1.8 7.4 2.6 5 1.5 9.4 2.6 13.7 3.3 3.8.5 7.2.8 10.2.8 1 0 2 0 3-.1 4-.1 7.9-.6 11.8-1.5 3.1-.7 6.3-1.8 9.5-3.4 2.4-1.2 4.6-2.6 6.6-4.2 1.8-1.5 2.9-2.8 3.6-3.6.7-.9 1.1-1.5 1.1-1.5l-1.9-1.3z"/><circle fill="#FFF" cx="21.5" cy="54.1" r="2.4"/><circle fill="#FFF" cx="34.8" cy="54.1" r="2.4"/><circle fill="#FFF" cx="48.2" cy="54.1" r="2.4"/><circle fill="#FFF" cx="61.5" cy="54.1" r="2.4"/></svg>