<svg xmlns:xlink="http://www.w3.org/1999/xlink"  xmlns="http://www.w3.org/2000/svg" viewBox="0 0 150 150"><path fill="#F06796" d="M93.5 99.6c.8-.1 1.7-.2 2.5-.3-.7-.3-1.4-.5-2.1-.8-.7-.2-.3-1.2.4-1 1.2.4 2.4 1 3.7 1.3.8-6.1 1.9-12.2 2.1-18.3 0-.7 1.1-.6 1.1.1-.2 6.4-1.4 12.7-2.2 19-.1.4-.5.5-.8.4-1.5.2-3 .4-4.4.6-.8.1-1-1-.3-1z"/><path fill="#F5A2C5" d="M100.5 36.8v0z"/><path fill="#97D2E4" d="M97.8 40.1c3.1-.2 6.4.4 9.4 1.9 13.1 6.7 10.1 25.9 23.2 33 4.5 2.4 9.9 2.5 14.6.8-4.8 5.5-12.2 10.2-20.2 11.8-11.7 2.4-24.8-1.1-33.3-9.5-6.6-6.6-11-16.8-8.5-26.1 1.9-7.2 8.1-11.5 14.8-11.9z"/><path fill="#F06796" d="M97.6 102c1.5.1 3.1 0 4.6.3 1.2-6.1 2.7-12.2 3.4-18.4.1-.7 1.1-.6 1.1.1-.7 6.4-2.3 12.7-3.5 19.1.1.2.1.5-.1.6-.1.2-.3.4-.6.3-.7.4-1.4.7-2.1.9-.7.3-1.6.6-2.4.6-.7 0-.6-1.1.1-1.1s1.4-.3 2-.6l1.5-.6c-1.3-.3-2.7-.1-4-.2-.8 0-.7-1.1 0-1zM82.2 56.2l-7-7.4 9.2-.4z"/><path fill="#F5A2C5" d="M90.8 48.7c2.2-2 6-.4 6.6 2.5.5 2.7-1.2 5.1-4.1 4.6-3-.6-5.1-4.2-2.7-6.8 0-.1.1-.2.2-.3z"/><path fill="#F06796" d="M98.4 72.6c-3-2.9-4.3-7.5-3.1-11.5 2.1-6.7 9.6-6 14.5-3 .7.4 1.7-.4 1.1-1.1-3.7-4.4-2.1-11.2 2.8-14 4.4-2.4 9.2 0 11.8 3.6 3.1 4.4 2.5 10.1 1.6 15.1-.5 2.7-1.1 5.5-1.7 8.2-.3 1.5-.5 3-.7 4.5l-.1.1c-8.7 1.1-18.9 5.2-26.2-1.9z"/><path fill="#F5A2C5" d="M120.4 57.8c.5 2.8-.6 5.5-1.4 8.2-1.5-.2-3 .4-4.4.7-2 .4-4.4.2-6.3-.6-2.2-1-3.4-3.7-2.3-5.9 1.2-2.3 4-1.8 5.9-1 .4.2.8-.3.4-.6-2.6-2.3-2.7-7.9 1.7-8.2 3.5-.1 6 4.7 6.4 7.4z"/><path fill="#F06796" d="M56.8 99.6c-.8-.1-1.7-.2-2.5-.3.7-.3 1.4-.5 2.1-.8.7-.2.3-1.2-.4-1-1.2.4-2.4 1-3.7 1.3-.8-6.1-1.9-12.2-2.1-18.3 0-.7-1.1-.6-1.1.1.2 6.4 1.4 12.7 2.2 19 .1.4.5.5.8.4 1.5.2 3 .4 4.4.6.8.1 1-1 .3-1z"/><path fill="#F5A2C5" d="M49.7 36.8v0z"/><path fill="#E74F7E" d="M52.5 40.1c-3.1-.2-6.4.4-9.4 1.9C30 48.6 33 67.9 19.9 74.9c-4.5 2.4-9.9 2.5-14.6.8 4.8 5.5 12.2 10.2 20.2 11.8 11.7 2.4 24.8-1.1 33.3-9.5 6.6-6.6 11-16.8 8.5-26.1-1.9-7.1-8.1-11.4-14.8-11.8z"/><path fill="#F06796" d="M52.6 102c-1.5.1-3.1 0-4.6.3-1.2-6.1-2.7-12.2-3.4-18.4-.1-.7-1.1-.6-1.1.1.7 6.4 2.3 12.7 3.5 19.1-.1.2-.1.5.1.6.1.2.3.4.6.3.7.4 1.4.7 2.1.9.7.3 1.6.6 2.4.6.7 0 .6-1.1-.1-1.1s-1.4-.3-2-.6l-1.5-.6c1.3-.3 2.7-.1 4-.2.8 0 .7-1.1 0-1zM68 56.2l7.1-7.4-9.3-.4z"/><path fill="#F5A2C5" d="M59.5 48.7c-2.2-2-6-.4-6.6 2.5-.5 2.7 1.2 5.1 4.1 4.6 3-.6 5.1-4.2 2.7-6.8-.1-.1-.2-.2-.2-.3z"/><path fill="#97D2E4" d="M51.9 72.6c3-2.9 4.3-7.5 3.1-11.5-2.1-6.7-9.6-6-14.5-3-.7.4-1.7-.4-1.1-1.1 3.7-4.4 2.1-11.2-2.8-14-4.4-2.4-9.2 0-11.8 3.6-3.1 4.4-2.5 10.1-1.6 15.1.5 2.7 1.1 5.5 1.7 8.2.3 1.5.5 3 .7 4.5l.1.1c8.6 1.1 18.9 5.2 26.2-1.9z"/><path fill="#F5A2C5" d="M29.8 57.8c-.5 2.8.6 5.5 1.4 8.2 1.5-.2 3 .4 4.4.7 2 .4 4.4.2 6.3-.6 2.2-1 3.4-3.7 2.3-5.9-1.2-2.3-4-1.8-5.9-1-.4.2-.8-.3-.4-.6 2.6-2.3 2.7-7.9-1.7-8.2-3.4-.1-5.9 4.7-6.4 7.4z"/></svg>