<svg xmlns:xlink="http://www.w3.org/1999/xlink"  xmlns="http://www.w3.org/2000/svg" viewBox="0 0 150 150"><path fill="none" d="M54.6 63.4s-4.1 3.1-1.7 5.1c1.1 1 5.7.9 10.2.7-.1-1.2-.2-2.4-.3-3.7l-8.2-2.1zM81.7 67.3c-.7.1-1.4.2-1.9.3 0 1-.2 1.9-.6 2.6-.1.3-.2.5-.3.7.7-.2 2.1-.5 3.1-.8 0-.9-.2-1.9-.3-2.8zM40 74.5c-1.4 2.6 2.1 2.6 2.7.7.2-.5.3-1.2.2-2-1-.3-2.2.1-2.9 1.3z"/><path fill="none" d="M48.7 69.6c-1-3.4 1.7-13.3 6.2-15.4 1.7-.8 5.1.6 8.7 2.5.9-4.5 2.6-8.8 5-12.6-5.4-4-12-6.3-19.2-6.3-17.8 0-32.3 14.5-32.3 32.3 0 17.8 14.5 32.3 32.3 32.3 2.8 0 5.5-.4 8.1-1-3.3-4.1-7-8.9-7-15.4 0-7.3 6.8-11.1 13.3-12.9-.2-1-.4-2.1-.6-3.1-6.6.8-13.9 1.4-14.5-.4zm-3.6 6.6c-.1-.9-.5-1.6-1-2.2-1.1 2.4-3.3 4.4-4.7 3.9-1.9-.7-1.5-3.9 1.9-5.3.5-.2.9-.3 1.3-.4-.5-1.4-1.7-2.5-4.1-1.1-3.9 2.2-7.4 2.4-6.3.3 1-2.1-1.2-3.1-1.5-3.3-.3-.2 3.9-2 3.8.5-.2 2.6 0 3.4 3.1 1.7s7-2.4 7.2.9c0 .3 0 .6-.1 1 1.5.3 2.4 1.3 2.3 2.1-.2 1.4 2.6.5 3.2 0 .1 0-4.7 5-5.1 1.9zM95.4 83.8l-5-2.7-2.2 4.3c.1-2.4-.3-4.3-1-5.8-1 4-2.6 7.7-4.7 11.1 3.8 2.8 8.3 4.8 13.1 5.7 3.2-9.4 9.5-23.8-7.4-25.3 0 .8-.1 1.5-.1 2.3 7.2 2.8 7.3 10.4 7.3 10.4zM75.1 72.1c-1.6 1.1-2.8 2.4-3.6 3.7 1.4 3.8 3.5 7.2 6.1 10.1 2-3.6 3.4-7.7 3.9-12-2.4-1.1-4.5-1.3-4.5-1.3 1.7-.3 3.3-.5 4.7-.5V71c-1 .1-2.1.2-3.2.3-1.1 1.4-2.5 1.6-3.4.8zM97.6 60.9c1.5-2.8-3.4-4.2-3.4-4.2l-6.8 4.8c.3 1.2.5 2.5.7 3.7 4.4-1.3 8.8-2.9 9.5-4.3zM70.5 72.6c.1.6.3 1.1.5 1.7 1.6-1.1 3.1-1.9 4-2.3-.1-.1-.3-.3-.4-.5-1.5.3-2.9.7-4.1 1.1z"/><path fill="none" d="M65 98.4c1.6-.9 3.2-1.9 4.6-3.1-2.1-2.2-4-4.9-4.8-8.7-.5-2.6 0-4.9 1-6.9-.6-1.5-1.2-3.1-1.6-4.7-12.4 6.7-5.3 16.1.8 23.4zM74.6 61c1.2-.8 2.2-.5 3.1.3.6-.9 1.2-1.8 1.9-2.8-1.4-3.6-3.4-7-6-9.8-2 3.6-3.3 7.5-3.9 11.7 1.3.9 2.4 1.7 3.4 2.3.3-.6.7-1.2 1.5-1.7zM108.9 72.2c-3.1 1.5 2.1 8.2 2.6 1.8.1-.8-.1-1.5-.3-2.1-.8-.1-1.6 0-2.3.3zM81.4 65.7l-1.7 1.2v.6c.5-.1 1.1-.3 1.9-.5-.1-.4-.1-.8-.2-1.3zM73.6 68.2l-4-1c0 .5.1.9.1 1.4 2.2-.2 3.6-.4 3.6-.4s-1.4.3-3.6.7c.1.9.3 1.9.5 2.8 1.8-.3 3.3-.4 4.3-.4-.2-.4-.3-.8-.3-1.3 0-.3-.3-.9-.6-1.8z"/><path fill="none" d="M134.1 64.6c0-17.8-14.5-32.3-32.3-32.3-9.6 0-18.3 4.2-24.2 10.9 2.7 2.8 5 6 6.7 9.5 2.4-2.6 4.7-4.6 6.4-4.5 4.9.4 10.9 8.7 11.2 12.2.1 2-7.2 4-13.7 5.5.1 1 .2 2.1.2 3.1 6.9-.7 15 .3 17.7 7.4 2.9 7.6-.6 14.8-2.2 20.4 16.8-1.1 30.2-15.1 30.2-32.2zM90.7 44c-2.1.3-3.3-.3-3.8.5 0 0 1.5-2.8 3.1-1.8 1.5 1 2.8-1.3 2.8-1.3s0 2.3-2.1 2.6zm27.2 27.4c-.3 2.2-2.9 1.1-5.4.6.8 2.7-.5 5.4-1.5 5.8-2.1.8-3.8-.5-3.8-3.8 0-2.4 1.5-3.1 3.5-3.1-2.5-3.7-10-4.4-8.9-4.4 6.2.2 9.1 2.2 10.3 4.5.4 0 .8.1 1.2.2 3.3.5 2.6.5 3.3-2.3.6-2.1 2.6-1.5 3.7-1.1.1 0 .3.1.4.2.1.1.2.1.2.1-.1 0-.1-.1-.2-.1-.1-.1-.3-.1-.4-.2-1.1-.3-2 .8-2.4 3.6z"/><path fill="#F9D7B6" d="M84.3 52.7c-1.8-3.5-4-6.7-6.7-9.5-.4.4-.7.8-1.1 1.3v.1c-.3.4-.7.9-1 1.3 0 0 0 .1-.1.1-.3.4-.6.9-.9 1.3v.1c-.3.5-.6.9-.9 1.4 2.5 2.9 4.6 6.2 6 9.8 1.4-2 3-4.1 4.7-5.9zM88.3 73.3c.1-.8.1-1.5.1-2.3-1.9-.2-4.1-.2-6.7 0v1.1c2.6 0 4.8.5 6.6 1.2zM88.1 65.2c-.2-1.3-.4-2.5-.7-3.7l-6 4.2c.1.4.1.9.2 1.4 1.8-.5 4.1-1.1 6.5-1.9zM69.6 95.3c-1.4 1.2-3 2.2-4.6 3.1 1.6 1.9 3.2 3.7 4.2 5.3 1.8-1.1 3.5-2.3 5.2-3.6-1.4-1.5-3.1-3-4.8-4.8zM77.8 96.8c.3-.3.5-.5.7-.8l-1.4-.5c.3.5.5.9.7 1.3zM49.4 102.4c-17.8 0-32.3-14.5-32.3-32.3 0-17.8 14.5-32.3 32.3-32.3 7.2 0 13.8 2.3 19.2 6.3 1.2-1.9 2.5-3.7 4-5.4-6.5-4.8-14.5-7.6-23.1-7.6-2.8 0-5.6.3-8.2.9l-1.9 3-2.7-1.7c-15.3 5.3-26.2 19.8-26.2 36.8 0 21.5 17.5 39 39 39 4.2 0 8.3-.7 12.2-1.9-.9-1.8-2.4-3.7-4.1-5.8-2.7.7-5.4 1-8.2 1zm.1-69c5.7-1 13 1.8 13 1.8l-.9 2.8c-4-1.5-12.7-2.5-12.7-2.5l.6-2.1zM81.7 67.3c.1.9.3 1.9.3 2.8 1-.4 4-.9 6.5-1.1 0-1-.1-2.1-.2-3.1-2.5.6-4.8 1.1-6.6 1.4zM81.5 74c-.5 4.3-1.9 8.4-3.9 12-.5.9-1.1 1.9-1.7 2.7.3.2.6.5.9.7 1.9 1.3 3.3 2.5 4.2 3.5.6-.8 1.1-1.5 1.6-2.3 2.1-3.4 3.7-7.1 4.7-11.1-1.3-2.9-3.7-4.6-5.8-5.5z"/><path fill="#F1BE87" d="M95.7 96.3c-4.8-.9-9.3-2.9-13.1-5.7-.5.8-1 1.6-1.6 2.3 3.3 3.3 2.3 4.7 2.3 4.7L79 96.2c4.5 3.2 9.6 5.5 15.2 6.6.1-1 .2-2 .5-3.1.2-1 .6-2.2 1-3.4zM64.2 75.1c.4 1.6 1 3.2 1.6 4.7 1.2-2.3 3.2-4.1 5.1-5.5-.2-.6-.3-1.1-.5-1.7-2.4.8-4.5 1.6-6.2 2.5zM63.6 56.7c2.1 1.1 4.3 2.5 6.2 3.8.5-4.2 1.9-8.2 3.9-11.7.3-.5.6-1 .9-1.4v-.1c.3-.5.6-.9.9-1.3 0 0 0-.1.1-.1.3-.4.6-.9 1-1.3v-.1c.3-.4.7-.9 1.1-1.3 5.9-6.7 14.6-10.9 24.2-10.9 17.8 0 32.3 14.5 32.3 32.3 0 17.2-13.4 31.2-30.3 32.2-.8 2.6-1.1 4.9-.2 6.7 20.7-1 37.2-18 37.2-38.9 0-14.3-7.8-26.9-19.3-33.6l-2.9.7-.6-2.5c-4.9-2.3-10.4-3.5-16.2-3.5-11.6 0-22.1 5.1-29.2 13.2-1.5 1.7-2.8 3.5-4 5.4-2.5 3.6-4.2 7.9-5.1 12.4zm52-26.8l-1.3 3.3c-3.6-2.3-12.1-2.8-12.1-2.8l-.3-2.8c8.3-.5 13.7 2.3 13.7 2.3zM63.1 69.2c2.4-.2 4.8-.4 6.7-.6-.1-.5-.1-.9-.1-1.4l-6.8-1.7c-.1 1.2 0 2.5.2 3.7zM63.2 69.9c.1 1.1.3 2.1.6 3.1 2.3-.7 4.6-1.1 6.5-1.4-.2-.9-.4-1.8-.5-2.8-1.9.4-4.2.8-6.6 1.1zM77.6 85.9c-2.6-3-4.7-6.4-6.1-10.1-2.4 4-.9 8.7 4.4 12.9.6-.9 1.1-1.8 1.7-2.8z"/><path fill="#EFC4E4" d="M41.2 32l3-4.9-7.8-4.8-4.9 7.8 5.2 3.2 2.7 1.7z"/><path fill="#FA9EC1" d="M121.4 30.9l6.2-1.4-2.2-9-8.9 2.1 1.5 6.5.6 2.5z"/><path fill="#EFC4E4" d="M54.9 54.2c-4.4 2.1-7.2 12-6.2 15.4.6 1.9 7.9 1.3 14.4.4 2.5-.3 4.8-.7 6.6-1.1 2.2-.4 3.6-.7 3.6-.7s-1.5.2-3.6.4c-1.9.2-4.3.4-6.7.6-4.5.3-9.1.3-10.2-.7-2.4-2.1 1.7-5.1 1.7-5.1l8.2 2.1 6.8 1.7 4 1c-.6-1.5-1.2-3.6-.5-5.4-1-.7-2.1-1.5-3.4-2.3-1.9-1.3-4.1-2.6-6.2-3.8-3.4-2-6.8-3.3-8.5-2.5zM64.2 75.1c1.7-.9 3.8-1.7 6.2-2.5 1.3-.4 2.6-.8 4.1-1.1 0-.1-.1-.1-.1-.2-.9 0-2.4.2-4.3.4-1.9.3-4.2.7-6.5 1.4C57.1 75 50.3 78.7 50.3 86c0 6.5 3.7 11.4 7 15.4 1.7 2.1 3.2 4 4.1 5.8 1.2 2.4 1.1 4.7-1.6 7.2-8.5 7.9-20.9 5.5-19.8 13l6.2-1.4s-.3 11.6.3 10.6c.7-1 4.4-8.2 14.4-13.3 9.9-5.1 14-10.9 8.2-19.5v-.1c-1.1-1.5-2.6-3.3-4.2-5.3-6-7.3-13.1-16.7-.7-23.3z"/><path fill="#EFC4E4" d="M81 92.9c-1-1-2.3-2.2-4.2-3.5-.3-.2-.6-.5-.9-.7-5.3-4.1-6.7-8.8-4.4-12.9.8-1.3 2-2.6 3.6-3.7L75 72c-.9.4-2.4 1.2-4 2.3-1.9 1.3-3.9 3.2-5.1 5.5-1.1 2-1.6 4.3-1 6.9.8 3.7 2.7 6.4 4.8 8.7 1.7 1.8 3.4 3.3 4.8 4.7 1.5 1.6 2.5 3.2 2.4 5.1 0 0 2.8-4 1-8.3-.2-.4-.4-.9-.7-1.3l1.4.5.4.1 4.3 1.4s1-1.4-2.3-4.7zM77.6 61.3c1.2 1.2 1.9 3.5 2.1 5.6l1.7-1.2 6-4.2 6.8-4.8s4.9 1.4 3.4 4.2c-.7 1.3-5.1 2.9-9.6 4.3-2.4.7-4.6 1.3-6.4 1.8-.6.2-1.6.4-1.6.5v.1c0-.1 1-.2 1.7-.3 1.8-.3 4.1-.8 6.5-1.3 6.5-1.4 13.8-3.5 13.6-5.5-.2-3.6-6.3-11.9-11.2-12.2-1.7-.1-4 1.8-6.4 4.5-1.6 1.8-3.3 3.9-4.7 5.9-.6.8-1.3 1.8-1.9 2.6zM107.1 106.4c-1.8-.7-2.9-1.7-3.5-2.9-.9-1.8-.5-4.1.2-6.7 1.6-5.6 5.1-12.8 2.2-20.4-2.7-7.1-10.8-8-17.7-7.4-2.5.2-4.8.7-6.7 1.1-1.2.3-2.2.6-3 .8-.1.1-.2.2-.3.4 1.1-.1 2.2-.2 3.2-.3 2.6-.2 4.8-.2 6.7 0 16.8 1.5 10.5 15.9 7.4 25.3-.4 1.2-.8 2.4-1 3.4-.3 1.1-.4 2.1-.5 3.1-.6 7.8 5.2 11.1 15 12.3 11.1 1.3 17.1 6.7 18.1 7.4 1 .7-3.4-10-3.4-10l6.2-.9c-1.5-7.5-12.2-.9-22.9-5.2z"/><path fill="#EFC4E4" d="M87.3 79.4c.7 1.6 1.1 3.5 1 5.8l2.2-4.3 5 2.7s-.1-7.6-7.2-10.5c-1.7-.7-3.9-1.2-6.6-1.1-1.4 0-3 .2-4.7.5 0 0 2.1.2 4.5 1.3 2.1 1.1 4.5 2.8 5.8 5.6z"/><path fill="#EFC4E4" d="M80 67.6c0-.3-.1-.5-.2-.7-.1-2.1-1-4.4-2.1-5.6-.8-.8-1.9-1.1-3.1-.3-.7.5-1.2 1.1-1.5 1.8-.7 1.8-.1 3.9.5 5.4.3.9.6 1.5.6 1.7 0 .5.1 1 .3 1.3 0 .1.1.2.1.2.1.2.2.4.4.5l.1.1c.9.8 2.3.6 3.4-.8.1-.1.2-.2.3-.4.2-.2.4-.5.6-.7.3-.6.6-1.5.6-2.5zm-4.4-5.7c1.7 1.4 1 3.6.2 4.4-.9.9-1.7 0-1.7-2.7-.1-2.8 1.5-1.7 1.5-1.7z"/><path fill="#FFFFFE" d="M75.8 66.3c.9-.9 1.5-3.1-.2-4.4 0 0-1.5-1-1.5 1.7-.1 2.7.8 3.6 1.7 2.7z"/><path fill="#EFC4E4" d="M47 74.3c.1-.8-.8-1.8-2.3-2.1 0-.3.1-.6.1-1-.2-3.3-4.1-2.6-7.2-.9-3.1 1.7-3.2.9-3.1-1.7.2-2.6-4.1-.7-3.8-.5.3.2 2.6 1.2 1.5 3.3-1 2.1 2.4 1.9 6.3-.3 2.3-1.3 3.6-.3 4.1 1.1-.4.1-.9.2-1.3.4-3.4 1.4-3.8 4.6-1.9 5.3 1.4.5 3.6-1.5 4.7-3.9.5.5.9 1.3 1 2.2.3 3.1 5.1-1.9 5.1-1.9-.6.6-3.3 1.4-3.2 0zm-4.2.9c-.7 1.9-4.1 1.9-2.7-.7.7-1.3 1.9-1.6 2.9-1.3 0 .8-.1 1.5-.2 2zM120.3 67.8c.2.1.3.1.4.2-.1-.1-.2-.2-.4-.2zM116.6 68.9c-.8 2.8 0 2.8-3.3 2.3-.4-.1-.8-.1-1.2-.2-1.2-2.2-4.1-4.2-10.3-4.5-1 0 6.4.7 8.9 4.4-2.1 0-3.5.7-3.5 3.1 0 3.3 1.8 4.6 3.8 3.8 1-.4 2.3-3.1 1.5-5.8 2.5.5 5.1 1.6 5.4-.6.4-2.8 1.3-4 2.4-3.6-1-.4-3.1-1-3.7 1.1zm-5.1 5.1c-.5 6.4-5.6-.3-2.6-1.8.7-.3 1.4-.4 2.3-.3.2.6.4 1.3.3 2.1zM120.8 68c.1 0 .1.1.2.1 0 0-.1 0-.2-.1zM89.9 42.7c-1.5-1-3.1 1.8-3.1 1.8.5-.8 1.8-.3 3.8-.5 2.1-.3 2.1-2.6 2.1-2.6s-1.2 2.3-2.8 1.3z"/><path fill="#FDE6D0" d="M114.3 33.2l1.3-3.3s-5.4-2.8-13.6-2.3l.3 2.8s8.4.5 12 2.8zM62.5 35.1s-7.3-2.7-13-1.8l-.6 2s8.7 1 12.7 2.5l.9-2.7z"/></svg>