<svg xmlns:xlink="http://www.w3.org/1999/xlink"  xmlns="http://www.w3.org/2000/svg" viewBox="0 0 150 150"><path fill="#FBB03B" d="M130 63.2l-.1.1s0-.1.1-.1zM114.4 98c4.1-3.7 5.2-6.9 5.1-11.3.1 4.4-1 7.5-5.1 11.3zM122.8 52.1c2.7-.9 5.9-.7 8.5.5-2.7-1.1-5.8-1.4-8.5-.5-3.9 1.3-6.1 4.3-7.2 7.9 1.1-3.6 3.3-6.5 7.2-7.9z"/><path fill="#FBB03B" d="M116.5 81.4c1.2 4.8 1.3 11.7-1.4 15.7 2.7-4 2.5-10.9 1.4-15.7zM133.4 64.3c1.3-1.8 1.7-4.1 0-6.4 1.6 2.3 1.2 4.6 0 6.4-1 1.4-2.8 2.6-4.5 2.7 1.7-.1 3.5-1.3 4.5-2.7zM120.5 57c-2.2 2.5-3 5.8-3.2 9.3.2-3.5 1-6.8 3.2-9.3 1.4-1.6 3.5-2.5 5.7-2.6-2.2 0-4.3.9-5.7 2.6zM125.3 64.5c1.7.8 3.6.3 4.6-1.1-1.1 1.3-3 1.8-4.6 1.1z"/><path fill="#FBB03B" d="M123.6 58.8c.8-1 2.2-1.7 3.5-1.4.1 0 .3 0 .4.1-.1 0-.3-.1-.4-.1-1.3-.3-2.7.4-3.5 1.4-3 4 0 9.6 4.6 10.1-4.7-.5-7.7-6-4.6-10.1zM130.6 61.3v0z"/><path fill="#736357" d="M120.3 102.1c-9-7.8-22.4 3.3-28.5 9.2-2.8 2.7-7 5.4-11.1 6.3.7.3 1.4.7 2.1 1 3.4-.3 6.2-2 10-4.9 5.9-4.9 14-12.8 22.2-11.3 3.7.7 6.6 4.4 6.4 8.1-.2 5.4-3.3 7-6.3 6.7-1.7-.2-3.6-1.1-4.6-2.5-1.1-1.8-.7-3.9.4-5.3 0 .3-.1.6 0 .9.2 2.1 2 3.6 4 3.4 2-.2 3.5-2 3.3-4.1 0-.5-.2-.9-.3-1.3-.4-1.3-1.6-2.1-3-2.3-5-.6-8.3 4.8-6.4 9.1 1.2 2.7 5.5 5.4 8.9 4.5 8.8-2.4 8.2-12.8 2.9-17.5zm-6.4 7.8c1-.1 1.8.7 1.9 1.7.1 1-.6 1.8-1.6 1.9-1 .1-1.8-.7-1.9-1.6-.1-1.1.6-2 1.6-2zM76.5 117.8c.5.2 1 .3 1.5.4-.1-.1-.1-.2-.2-.3-.5 0-.9 0-1.3-.1z"/><path fill="#FBB03B" d="M114.2 113.4c1-.1 1.7-.9 1.6-1.9-.1-1-1-1.7-1.9-1.7-1 .1-1.7.9-1.6 1.9.1 1 1 1.7 1.9 1.7zM106.6 99.1c9.3-2.9 10.5-13.3 5.9-8.5 4.8-7.2-5.3-16.7-3.7-6.1-4.3-3.5-2.9 1.5-1.4 4.1 1.8 3.2 2.4 8.5-.8 10.5z"/><path fill="#736357" d="M40.3 94.8c.1.5.2 1 .4 1.5.1-.1.1-.2.1-.3-.2-.4-.4-.8-.5-1.2zM53.6 104.9c-3.7-1.1-8.2-3.4-11-6.4.1.8.1 1.6.1 2.3 2 2.8 4.9 4.4 9.2 6.2 7.2 2.6 18.1 5.8 20.9 13.6 1.3 3.5-.5 7.9-3.8 9.6-4.8 2.5-7.7.7-9-2.1-.7-1.6-.9-3.7-.1-5.2 1-1.9 3-2.5 4.8-2.3-.3.1-.5.3-.8.4-1.7 1.2-2.2 3.5-1 5.2 1.2 1.7 3.5 2 5.2.8.4-.3.7-.6.9-.9.9-1 1-2.5.5-3.7-2-4.6-8.3-4.8-11.1-1-1.7 2.4-1.9 7.5.6 10 6.5 6.4 15.3.7 16.7-6.3 2.4-11.8-13.9-17.8-22.1-20.2zm12.3 18.4c.5.8.3 1.9-.5 2.5-.8.6-1.9.4-2.4-.4s-.3-1.9.5-2.5c.8-.6 1.8-.4 2.4.4z"/><path fill="#FBB03B" d="M63.5 122.9c-.8.6-1 1.7-.5 2.5s1.6 1 2.4.4c.8-.6 1-1.7.5-2.5-.6-.8-1.6-1-2.4-.4zM76.2 116.3c.7.5 1.2 1.1 1.6 1.7.1.1.1.2.2.3 4.3 7.4-9 20.6 1.6 14.8-1 3.3-1.7 6.4-.8 9.1 1.9 6 8.3 2.2 6.5-.9 0-.1-.1-.1-.1-.2-.6-1-1.8-1.3-2.8-.7-1 .6-1.3 1.8-.8 2.8.2.3.4.6.7.7-1.7.9-2.8-1.3-2.9-1.9-.4-3.3 1.3-3.7 2.7-5.9 4.4 5.3 5.8-7.1 3.3-9.3 5.7 4.6 5.3-3.4-2.6-8-.6-.4-1.3-.7-2.1-1-1.3-.7-2.9-1.2-4.5-1.5zM85.3 106.2c.9-5.5-2.7-1.8-4.3.9-1.9 3.2-6.1 6.4-9.5 4.5 7.1 6.6 16.8 2.5 10.3.8 8.7.5 11.8-12.9 3.5-6.2z"/><path fill="#736357" d="M42.1 52L41 53.1h.3c.2-.4.5-.7.8-1.1zM37.3 68.2c1.3 7.5 4 18.5-1.3 24.9-2.4 2.8-7.1 3.5-10.2 1.5-4.6-2.9-4.4-6.4-2.7-8.8 1-1.4 2.8-2.6 4.5-2.7 2.1-.1 3.7 1.4 4.4 3-.2-.2-.5-.3-.8-.5-1.9-.9-4.1-.1-5 1.8-.8 1.8 0 4 1.9 4.9.4.2.9.3 1.3.3 1.3.3 2.6-.4 3.5-1.4 3-4 0-9.6-4.6-10.1-2.9-.3-7.4 2.1-8.3 5.5-2.3 8.8 7.1 13.6 13.7 11.3C45 94 42.1 76.9 40 68.6c-.9-3.7-1.2-8.8 0-12.8-.6.5-1.3.9-1.9 1.3-1.4 3.1-1.3 6.4-.8 11.1zm-7.1 20.2c-.4.9-1.5 1.2-2.4.9-.9-.4-1.3-1.4-.8-2.3.4-.9 1.5-1.2 2.4-.9.9.4 1.3 1.5.8 2.3z"/><path fill="#FBB03B" d="M29.4 86.1c-.9-.4-2 0-2.4.9-.4.9-.1 1.9.8 2.3.9.4 2 0 2.4-.9.5-.8.1-1.9-.8-2.3zM41.5 93.8c-.1.8-.3 1.5-.6 2.2 0 .1-.1.2-.1.3-4.2 7.4-22.4 2.5-12 8.8-3.4.8-6.4 1.8-8.3 3.8-4.3 4.6 2.3 8.3 4.1 5.2 0-.1.1-.1.1-.2.6-1 .2-2.2-.8-2.8-1-.6-2.2-.3-2.8.7-.2.3-.3.6-.3 1-1.7-1.1-.3-3.1.2-3.5 2.7-2 3.8-.8 6.4-.6-2.4 6.5 9 1.4 9.7-1.8-1.2 7.2 5.6 2.9 5.6-6.2 0-.7 0-1.5-.1-2.3-.2-1.4-.6-2.9-1.1-4.6zM54.8 96.7c5.2-2 .2-3.3-2.9-3.3-3.7 0-8.6-2.1-8.7-5.9-2.1 9.5 6.3 15.8 4.4 9.3 3.9 7.8 17.1 3.8 7.2-.1z"/><path fill="#736357" d="M80 32.2c-.5-.2-1-.3-1.5-.4.1.1.1.2.2.3.5 0 .9 0 1.3.1zM36.2 47.9c9 7.8 22.4-3.3 28.5-9.2 2.8-2.7 7-5.4 11.1-6.3-.7-.3-1.4-.7-2.1-1-3.4.3-6.2 2-10 4.9-5.9 4.9-14 12.8-22.2 11.3-3.7-.7-6.6-4.4-6.4-8.1.2-5.4 3.3-7 6.3-6.7 1.7.2 3.6 1.1 4.6 2.5 1.1 1.8.7 3.9-.4 5.3 0-.3.1-.6 0-.9-.2-2.1-2-3.6-4-3.4-2 .2-3.5 2-3.3 4.1 0 .5.2.9.3 1.3.4 1.3 1.6 2.1 3 2.3 5 .6 8.3-4.8 6.4-9.1-1.2-2.7-5.5-5.4-8.9-4.5-8.8 2.4-8.2 12.8-2.9 17.5zm6.4-7.8c-1 .1-1.8-.7-1.9-1.7-.1-1 .6-1.8 1.6-1.9 1-.1 1.8.7 1.9 1.7.1 1-.6 1.9-1.6 1.9z"/><path fill="#FBB03B" d="M42.3 36.6c-1 .1-1.7.9-1.6 1.9.1 1 1 1.7 1.9 1.7 1-.1 1.7-.9 1.6-1.9-.1-1-1-1.7-1.9-1.7zM19.7 45.9c0-1.1-.9-2.1-2-2.1-.4 0-.7.1-1 .3.1-2 2.5-1.8 3.1-1.5 3.1 1.3 2.6 2.9 3.8 5.3-6.8 1.2 3.3 8.5 6.4 7.5-6.9 2.6.3 6.3 8.2 1.8.6-.4 1.3-.8 1.9-1.3 1.2-.9 2.3-1.9 3.4-3.2-.8.3-1.5.5-2.2.5H41c-8.5.1-13.4-18.2-13.6-6-2.3-2.6-4.7-4.7-7.5-5.3-6.1-1.4-6 6.1-2.5 6.1h.2c1.1-.1 2.1-1 2.1-2.1zM47.7 65.5c4.3 3.5 2.9-1.5 1.4-4.1-1.8-3.2-2.5-8.5.8-10.5-9.3 2.9-10.5 13.3-5.9 8.5-4.7 7.3 5.3 16.7 3.7 6.1z"/><path fill="#736357" d="M102.9 45.1c3.7 1.1 8.2 3.4 11 6.4-.1-.8-.1-1.6-.1-2.3-2-2.8-4.9-4.4-9.2-6.2-7.2-2.6-18.1-5.8-20.8-13.6-1.3-3.5.5-7.9 3.8-9.6 4.8-2.5 7.7-.7 9 2.1.7 1.6.9 3.7.1 5.2-1 1.9-3 2.5-4.8 2.3.3-.1.5-.3.8-.4 1.7-1.2 2.2-3.5 1-5.2-1.2-1.7-3.5-2-5.2-.8-.4.3-.7.6-.9.9-.9 1-1 2.5-.5 3.7 2 4.6 8.3 4.8 11.1 1 1.7-2.4 1.9-7.5-.6-10-6.5-6.4-15.3-.7-16.7 6.3-2.5 11.8 13.8 17.8 22 20.2zM90.6 26.7c-.5-.8-.3-1.9.5-2.5.8-.6 1.9-.4 2.4.4s.3 1.9-.5 2.5c-.8.6-1.8.4-2.4-.4zM116.2 55.2c-.1-.5-.2-1-.4-1.5-.1.1-.1.2-.1.3.2.4.4.7.5 1.2z"/><path fill="#FBB03B" d="M93 27.1c.8-.6 1-1.7.5-2.5s-1.6-1-2.4-.4c-.8.6-1 1.7-.5 2.5.6.8 1.6 1 2.4.4zM80.3 33.7c-.7-.5-1.2-1.1-1.6-1.7-.1-.1-.1-.2-.2-.3-4.3-7.4 9-20.6-1.6-14.8 1-3.3 1.7-6.4.8-9.1-1.9-6-8.3-2.2-6.5.9 0 .1.1.1.1.2.6 1 1.8 1.3 2.8.7 1-.6 1.3-1.8.8-2.8-.2-.3-.4-.6-.7-.7 1.7-.9 2.8 1.3 2.9 1.9.4 3.3-1.3 3.7-2.7 5.9-4.4-5.3-5.8 7.1-3.3 9.3-5.7-4.6-5.3 3.4 2.6 8 .6.4 1.3.7 2.1 1 1.3.7 2.8 1.2 4.5 1.5zM75.4 43c1.9-3.2 6.1-6.4 9.5-4.5-7.1-6.6-16.8-2.5-10.3-.8-8.7-.5-11.8 12.9-3.5 6.2-.8 5.4 2.8 1.7 4.3-.9z"/><path fill="#736357" d="M131.3 52.7c-2.6-1.2-5.8-1.4-8.5-.5-3.9 1.3-6.1 4.3-7.2 7.9-2.1 6.8-.4 16 .9 21.4 1.2 4.8 1.3 11.7-1.4 15.7-.2.3-.4.5-.6.8 4.1-3.7 5.2-6.9 5.1-11.3 0-1.5-.2-3.1-.4-4.9-.2-.9-.4-1.9-.5-3-.7-3.9-1.5-8.4-1.3-12.6.2-3.5 1-6.8 3.2-9.3 1.4-1.6 3.5-2.5 5.7-2.6 1.6-.1 3.2.3 4.5 1.1 1.2.8 2.1 1.6 2.7 2.4 1.6 2.3 1.2 4.6 0 6.4-1 1.4-2.8 2.6-4.5 2.7-1.9 0-3.3-1-4.1-2.4l-.3-.6c.2.2.5.3.8.5 1.7.8 3.6.3 4.6-1.1l.1-.1c.1-.2.2-.3.3-.5.2-.4.3-.8.3-1.2v-.2c0-1.4-.8-2.8-2.3-3.5l-.9-.3c-.1 0-.3-.1-.4-.1-1.3-.3-2.6.4-3.5 1.4-3 4 0 9.6 4.6 10.1 2.9.3 7.4-2.1 8.3-5.5 1.4-5.2-1.4-9-5.2-10.7zm-5 8.9c.4-.9 1.5-1.2 2.4-.9.9.4 1.3 1.4.8 2.3-.4.9-1.5 1.3-2.4.9-.9-.4-1.3-1.5-.8-2.3z"/><path fill="#FBB03B" d="M127.1 63.9c.9.4 2 0 2.4-.9.4-.9.1-1.9-.8-2.3-.9-.4-2 0-2.4.9-.5.8-.1 1.9.8 2.3zM115 56.2c.1-.8.3-1.5.6-2.2 0-.1.1-.2.1-.3 1.9-3.4 6.7-4.2 10.4-4.7 2.8-.4 5-.5 4.8-1.4-.1-.5-1-1.4-3.1-2.7.7-.2 1.4-.3 2.1-.5 2.5-.7 4.7-1.7 6.3-3.3 1.1-1.2 1.5-2.3 1.4-3.2-.1-1.7-1.6-2.9-3.1-3.1-.7-.1-1.3 0-1.8.4l-.2.2c-.1.1-.3.3-.4.5 0 .1-.1.1-.1.2-.1.2-.2.4-.2.6-.1.7.1 1.4.7 1.9.1.1.2.2.3.2.1.1.2.1.3.2h.9c.5 0 1-.3 1.3-.6.1-.1.2-.2.2-.3.1-.2.2-.4.2-.6 0-.1 0-.2.1-.4 1.7 1.1.3 3.1-.2 3.5-2.6 2-3.8.8-6.3.6h-.1c1.3-3.6-1.6-3.6-4.6-2.4-2.4 1-4.8 2.8-5.1 4.2.4-2.2 0-3.3-.7-3.6-1.6-.5-5.2 3.4-5.3 9.7l-.4.1c0 .7.5 1.5.5 2.3.1 1.5.9 3 1.4 4.7zM100.8 56c1.1.4 2.4.6 3.6.6 3.7 0 8.5 2.1 8.5 5.9 2-9.5-6.1-15.8-4.3-9.3-.9-1.9-2.3-3-3.9-3.7-4.9-2.1-10.7.9-3.1 3.8-3.1 1.2-2.4 2.1-.8 2.7z"/></svg>