<svg xmlns:xlink="http://www.w3.org/1999/xlink"  xmlns="http://www.w3.org/2000/svg" viewBox="0 0 150 150"><path fill="#6D4D42" d="M76.6 66.8c-19.3 0-35 15.7-35 35s15.7 35 35 35 35-15.7 35-35c-.1-19.3-15.7-35-35-35zm0 67.4c-17.9 0-32.4-14.5-32.4-32.4s14.5-32.4 32.4-32.4S109 83.9 109 101.8s-14.5 32.4-32.4 32.4z"/><g fill="#FBB03B"><path d="M76.6 69.4c-17.9 0-32.4 14.5-32.4 32.4s14.5 32.4 32.4 32.4 32.4-14.5 32.4-32.4-14.5-32.4-32.4-32.4zm0 62.2c-16.5 0-29.8-13.4-29.8-29.8C46.7 85.3 60.1 72 76.6 72s29.8 13.4 29.8 29.8c0 16.5-13.4 29.8-29.8 29.8z"/><path d="M116.1 69.5h-13.9c-3.5-2.7-7.4-4.9-11.6-6.5l-4.7-6.5v-.2c.2 0 .3-.1.5-.1h-.5v-5.9l-7 4.8-3.6 2.4-2.8-1.8-7.7-4.9V60l-2.2 3c-4.2 1.5-8.1 3.7-11.6 6.5H37c-8 0-14.5 6.5-14.5 14.5v35.7c0 7.9 6.5 14.5 14.5 14.5h13.9c7 5.6 15.9 8.9 25.6 8.9 9.7 0 18.6-3.3 25.6-8.9H116c8 0 14.5-6.5 14.5-14.5V83.9c.1-7.9-6.5-14.4-14.4-14.4zM37 126.9c-4 0-7.2-3.2-7.2-7.2V83.9c0-4 3.3-7.2 7.2-7.2h6.8c-5.3 7-8.5 15.7-8.5 25.1 0 9.4 3.2 18.2 8.5 25.1H37zm39.6 9.9c-19.3 0-35-15.7-35-35s15.7-35 35-35 35 15.7 35 35c-.1 19.3-15.7 35-35 35zm46.7-17.1c0 4-3.3 7.2-7.2 7.2h-6.8c5.3-6.9 8.5-15.7 8.5-25.1 0-9.4-3.2-18.2-8.5-25.1h6.8c4 0 7.2 3.3 7.2 7.2v35.8zM47.1 21c.8-2.9 3.1-5.2 6-6-2.9-.8-5.2-3.1-6-6-.8 2.9-3.1 5.2-6 6 2.9.8 5.2 3.1 6 6zM100.8 49.5c.6-2.1 2.3-3.8 4.4-4.4-2.1-.6-3.8-2.3-4.4-4.4-.6 2.1-2.3 3.8-4.4 4.4 2.1.5 3.8 2.2 4.4 4.4z"/></g><g fill="#C1272D"><path d="M69.2 48.1l-7.3-15.9-15.7-5.7 20 21.6 3.2 3.4 2.6 2.9-1.1-2.6zM89.1 32.2l-7.2 15.9-1.4 3.1-1.5 3.2 3.9-4 2.1-2.3 20.4-21.6zM86.5 33H64.6l6.9 15.1 1.8 4 1.6 3.6.6 1.2v.2l.7-1.6 1.7-3.7 1.7-3.7z"/></g><path fill="#F5949D" d="M83.8 24l13-4.3-13-4.2H67.4l-12.6 4.2L67.4 24z"/><path fill="#EC2127" d="M82.8 26.3H68.2l-.2.3-3.4 3.9h21.8z"/><g fill="#84232A"><path d="M98.5 21.2l-13.4 4.6 3.5 4.2 16.8-5.9zM46.2 24.1l16.2 5.8 3.5-4.1-13-4.7z"/></g></svg>