<svg xmlns:xlink="http://www.w3.org/1999/xlink"  xmlns="http://www.w3.org/2000/svg" viewBox="0 0 150 150"><path fill="none" d="M97.6 26.8h0zM41.9 89.3c-.1 0-.3 0-.4-.1.1.3.3.7.4 1h.5c-.2-.2-.3-.6-.5-.9zM74.7 97.1c.3.4.9 1.1 1.4 2.2.3-.5.7-1 1-1.6-.4-.3-.8-.6-1.1-1-.5.1-.9.3-1.3.4zM57.7 100.6c-.1.3 0 .6 0 .9.1.1.2.3.4.4-.2-.4-.4-.8-.4-1.3zM73.8 111.7c-.4.1-.7.1-1.1 0-.1.3-.3.6-.4.8h.2c.5-.1.9-.4 1.3-.8zM75.6 105.7c-1 1.9-2 3.9-2.9 5.9 2-1.1 2.8-3.4 2.9-5.9zM110.4 96.4h-.9c-.3.3-.6.5-.9.7.3.1.6.2.9.2.3-.3.6-.5.9-.9z"/><path fill="#6F7073" d="M90.1 24.8c1.7.3 3.3.7 5 1.2.2-.3.4-.5.6-.7-1.9-.5-3.8-1-5.6-1.3-.4-.1-.6-.1-.8-.1l-.4.8c.3 0 .5 0 1.2.1zM98.2 26C95.9 28.3 83.4 48 82 64.5l-.3 3.7c-.4 4.8-.7 8.8-1.2 12.3-.6-1.5-1.1-3.3-1.7-5.2 0 .2 0 .5-.1.7.6 1.9 1.2 3.8 1.8 5.4.5-3.5.8-7.5 1.2-12.4l.3-3.7c1.4-16.5 13.8-36.2 16.1-38.4 5.6 1.9 11.4 4.6 17.3 8.2l1.3-2c-.1-.1-.3-.2-.4-.2l-.8 1.4c-5.9-3.7-11.7-6.4-17.3-8.3zm-.6.8h.3c0 .1-.1.1-.3 0zM72.3 92.9C67.2 89 61.8 85.6 56 82.1 37.8 71 29.3 51.9 27.7 47.9l-.3.1c.3.9 8.6 22.8 28.7 35 5.7 3.5 11.2 6.9 16.3 10.8v-.1c-.1-.3-.1-.5-.1-.8zM103.5 127.5l-.3.2c.1.1.1.2.2.3 0 0 .1 0 .1-.1.1-.1.1-.3 0-.4z"/><path fill="#6F7073" d="M101.5 130.5c-1.5-.6-1.8-1.5-2.4-3.1-.8-2.2-2.3-6.2-7.9-14.6-3.6-5.5-7.7-10-12-14-.8 1.1-1.5 2.3-2.2 3.4 0 .2.1.4.1.7.7-1.1 1.3-2.2 2-3.2 4.3 4 8.3 8.6 12 14 5.6 8.4 7.1 12.5 7.9 14.6.6 1.6.9 2.5 2.4 3.1 1.3.5 3 0 3.8-1.1.5-.6.7-1.4.5-2.2-.1.5-.2.9-.5 1.3-.7 1.1-2.3 1.6-3.7 1.1zM51.4 32.1c.2.2.4.4.7.6 1.5-.7 3.1-1.4 4.6-2 .6-.2.9-.3 1.1-.5l-.5-.6c-.1.1-.3.1-.6.2-1.8.7-3.5 1.4-5.3 2.3zM97.7 25.9c.1.1.2.1.3.1-.1-.1-.2-.1-.3-.1zM73.3 71.4l-1-3.6C67.8 52.1 52 35.3 49.1 33.3c-5.2 2.8-10.5 6.6-15.6 11.2l-1.1-1.3c-.2.1-.3.3-.5.4l1.6 1.8c5.2-4.6 10.4-8.4 15.6-11.2 2.9 2 18.6 18.8 23.1 34.6l1 3.6c2 7.1 3.5 12.2 5.4 16.6h.4c-2-4.7-3.5-10-5.7-17.6zM47.9 125.2c-.2.5-.2 1-.1 1.6 0-.2.1-.5.1-.7.5-1.4 1.8-2.4 3.6-3-.9.1-1.7.3-2.5.5-.5.4-.9 1-1.1 1.6zM59.9 139.9c-8.7-2.8-15-7.9-15.5-12.1-.5 4.3 6.2 10 15.5 13 9.9 3.2 19.1 2.2 20.5-2.2.1-.3.1-.6.2-1-.1.1-.2.3-.3.4-1.8 4.1-10.8 5-20.4 1.9zM115.7 122.1c-.2-.6-.7-1.1-1.2-1.5-.8-.2-1.7-.3-2.6-.3 1.9.5 3.3 1.4 3.8 2.7.1.3.2.6.2.9.1-.6 0-1.2-.2-1.8z"/><path fill="#6F7073" d="M104.9 137.6c-9.3 3.8-18.1 3.6-20.3-.2l-.5-.5c0 .3.1.7.2 1 1.7 4.3 11 4.6 20.6.7 8.9-3.6 15-9.5 14.5-13.8-.4 4.1-6.3 9.5-14.5 12.8zM72.7 111.7h-.2c-.1 0-.2.1-.3.1-.1.1-.1.2-.2.4-3.9 9.4-4.5 13.6-4.9 15.9-.3 1.7-.4 2.7-1.8 3.5-1.2.7-2.9.6-4-.4-.5-.5-.8-1.1-.9-1.7-.1 1 .2 2 .9 2.6 1.1 1 2.8 1.1 4 .4 1.3-.8 1.5-1.8 1.8-3.5.4-2.3 1-6.5 4.9-15.9.1-.1.1-.2.2-.4.1 0 .2-.1.3-.1h-.2c.1-.3.2-.6.4-.9zM100.7 75.4c-5.6 5.1-10.7 10-15.4 15.5.2.1.3.2.5.3 4.5-5.2 9.5-10 14.9-14.9C118 60.5 122 37.4 122.1 36.4h-.2c-.8 4.4-5.5 24.7-21.2 39z"/><path fill="#6F7073" d="M72.3 111.7h.2c.1 0 .2-.1.2-.1.9-2.1 1.9-4 2.9-5.9v-.9c-1.2 2.1-2.3 4.4-3.3 6.9zM63 129.2l-.2-.1c0 .1 0 .2.1.3.1-.1.1-.2.1-.2z"/><path fill="#FFF" d="M88.3 95.8v-.7c0 .1 0 .2-.1.2.1.2.1.4.1.5zM72.4 93.7V94.5c0-.2.1-.3.1-.5-.1-.1-.1-.2-.1-.3z"/><path fill="#6F7073" d="M74.7 97.1c.4-.1.8-.2 1.3-.4.4.3.8.6 1.1 1 .1-.2.2-.4.4-.6-.5-.4-1-.9-1.5-1.3-1.5.4-2.5.8-2.5.8-.6-.4-1-.9-1.1-1.5-.2.9.1 1.8 1.1 2.4 0 0 .4-.1 1-.3-.1-.3-.1-.4-.1-.4s.1 0 .3.3zM87.2 98.4s-.4-3.2-4.6-3.4c-1.2-.1-2.5.1-3.7.2.3.3.6.5.9.8.9-.1 1.9-.2 2.8-.1 4.2.2 4.6 3.4 4.6 3.4s1.4-1.1 1.1-2.7c-.2 1-1.1 1.8-1.1 1.8zM57.6 100.6c-.4-.5-.7-1.1-1-1.8-.2-.5-.3-1-.3-1.4-.1.7 0 1.4.3 2.3.3.8.6 1.4 1 1.9v-1zM64.2 104.1c-3.2.9-5.3-.4-6.1-2.2-.1-.1-.3-.2-.4-.4.3 2.5 2.6 4.6 6.5 3.5.6-.2 1.1-.3 1.6-.5.1-.3.2-.7.4-1-.6.2-1.3.5-2 .6zM60 96c-1.7 1-2.5 2.8-2.3 4.5.1-1.4.9-2.7 2.3-3.6 4.4-2.6 10.5 1.6 10.5 1.6-.1-.4-.2-.8-.4-1.1-1.4-.9-6.4-3.7-10.1-1.4zM73.8 111.7c-.4.4-.8.7-1.3.9 2.5.3 5.1-1.4 5.1-5.4v-.6c-.1 3.2-1.9 4.8-3.8 5.1zM67 111.2h-.2v-.2c-.9-.8-1.3-2.1-1.4-3.4-.2 2.7.9 5 3.7 5.4l.3-.9c-1 0-1.8-.3-2.4-.9zM74.7 98c-.2-.2-.3-.4-.3-.4s.4 1.3.8 3.2c0-.1.1-.1.1-.2-.2-1-.4-1.9-.6-2.6zM70.8 100.8c-1.3 1.6-2.6 3.9-2.4 6.4.2-2.1 1.3-4.1 2.4-5.5.8-.7 1.3-1.3 1.6-1.7.3-.3.5-.4.5-.4h-.8c-.4.3-.8.7-1.3 1.2zM48.3 92.3c5.9-2.2 8.9-7.1 14.8-.4 0 0-.3-.9-1-2-5.3-5-8.2-.6-13.8 1.5-3.3 1.2-4.8.7-6-1.2h-.5c1.3 2.5 2.8 3.5 6.5 2.1z"/><path fill="#6F7073" d="M37.7 85.3c-1.5-3.5-4.4-3.5-6.1-3.1l-1.3 1.3s5.2-2.5 7.4 2.7c1.1 2.5 2.3 3.8 4.2 4-.1-.3-.3-.6-.4-1-1.7-.3-2.8-1.6-3.8-3.9zM113.8 94.2c-1.2 1.4-2.3 2.1-3.4 2.3l-.9.9c1.5.2 2.8-.5 4.3-2.3 3.7-4.3 7.9-.3 7.9-.3l-.7-1.5c-1.3-.9-4.4-2.3-7.2.9zM102.1 95.8C97.4 92 95.7 87.6 89 91c-.8.8-1.2 1.5-1.2 1.5 7.7-4.5 9.3.2 14.3 4.2 3.3 2.6 5.3 2.5 7.4.6-.3 0-.6-.1-.9-.2-1.8 1.2-3.7 1-6.5-1.3z"/><path fill="#FFF" d="M66.8 111.1v.2h.2l-.2-.2z"/><path fill="#42BDE6" d="M95.7 25.3c-.2.2-.4.5-.6.7-4.5 6-14.2 23.2-15.5 38.3l-.3 3.7c-.2 2.6-.4 5-.6 7.2 0 .1 0 .1.1.2.6 1.9 1.2 3.7 1.7 5.2.5-3.6.8-7.6 1.2-12.5l.3-3.7C83.4 48 95.9 28.3 98.2 26c5.6 1.9 11.4 4.6 17.3 8.2l.8-1.4.4-.7c-9.1-5.6-17.9-9.1-26.2-10.7-.3 0-.5-.1-.6-.1l.2.1-1.1 2.1c.1.1.2.1.4.1s.4.1.8.1c1.7.6 3.6 1 5.5 1.6zm1.9.6h.3c0 .1-.1.1-.3 0zM56.1 82.1c5.7 3.5 11.2 6.9 16.3 10.8.1-.7.5-1.4 1.2-2.1C68.5 87 63 83.6 57.3 80.1 38 68.3 29.7 46.5 29.6 46.3v-.1l-.1-.2-2.1 1.1c0 .1.1.3.3.7 1.6 4.1 10.1 23.2 28.4 34.3zM76 95.8c.5.4 1 .9 1.5 1.3-.1.2-.2.4-.4.6-.3.5-.7 1-1 1.6.4.8.7 1.7 1 2.9.7-1.2 1.4-2.3 2.2-3.4 4.3 4 8.3 8.6 12 14 5.6 8.4 7.1 12.5 7.9 14.6.6 1.6.9 2.5 2.4 3.1 1.3.5 3 0 3.8-1.1.3-.4.5-.8.5-1.3.1-.9-.1-1.8-.8-2.7l-1.9 1.4c.1.2.3.4.3.7 0 .2 0 .3-.1.5 0 0-.1 0-.1.1-.2.2-.7.4-1 .3-.4-.1-.4-.2-1-1.7-.8-2.3-2.4-6.5-8.1-15.1-4.1-6.1-8.6-11.1-13.4-15.4-.3-.3-.6-.5-.9-.8-1 0-2.1.2-2.9.4zM49.1 33.3c2.9 2 18.6 18.8 23.1 34.6l1 3.6c2.1 7.6 3.7 12.9 5.8 17.5.8 0 1.7.1 2.5.4l.2-.2c-2.3-4.7-3.9-10.2-6.2-18.3l-1-3.6C70.4 52.8 57.6 37.9 52 32.8c-.2-.2-.5-.4-.7-.6 1.7-.9 3.5-1.6 5.2-2.3.3-.1.4-.2.6-.2.2-.1.4-.2.5-.3l-1.5-1.9.1-.1c-.1 0-.3.1-.6.2-2.4.9-4.8 2-7.2 3.3h-.1c-5.6 2.9-11.1 6.9-16.6 11.8l.5.5 1.1 1.3c5.4-4.7 10.6-8.4 15.8-11.2zM80.5 136.7c-2.1 3.3-10 3.9-18.5 1.2-8-2.6-13.8-7.2-14.3-11.1-.1-.6 0-1.1.1-1.6.2-.6.6-1.2 1.1-1.7.6-.6 1.5-1 2.5-1.4-3.7.4-6.3 1.7-7 3.9-.2.5-.2 1.1-.2 1.7.4 4.2 6.8 9.3 15.5 12.1 9.7 3.1 18.6 2.3 20.3-1.9 0-.1.1-.2.1-.3.3-.2.4-.5.4-.9z"/><path fill="#42BDE6" d="M119.1 122.8c-.9-2.1-3.6-3.3-7.3-3.4 1.1.3 1.9.7 2.6 1.2.6.4 1 .9 1.2 1.5.2.6.3 1.2.2 1.8-.4 3.8-5.8 8.8-13.4 11.9-8.2 3.3-16.1 3.4-18.5.2 0 .3.1.7.2 1 .1.2.2.3.3.5 2.2 3.8 11.1 4 20.3.2 8.3-3.4 14.1-8.7 14.5-12.9.3-.7.2-1.4-.1-2zM85.3 90.9c4.7-5.5 9.9-10.4 15.4-15.5 15.7-14.3 20.4-34.5 21.3-39 .1-.5.1-.8.2-.9l-2.4-.4c0 .2-4 23.3-20.7 38.5-5.8 5.3-11.2 10.4-16 16.2.2.1.4.1.6.2.6.3 1.1.6 1.6.9zM65.4 131.6c1.3-.8 1.5-1.8 1.8-3.5.4-2.3 1-6.5 4.9-15.9.1-.1.1-.2.2-.4-.5.2-1.1.4-1.8.4h-1l-.3.9c-3.3 8.4-4 12.4-4.3 14.6-.3 1.6-.3 1.6-.7 1.8-.3.2-.9.1-1.1-.1v-.1c-.1-.1-.1-.2-.1-.3 0-.3.1-.6.2-.8l-2.2-1c-.4.8-.5 1.6-.4 2.2.1.7.4 1.3.9 1.7 1 1.1 2.7 1.2 3.9.5zM72.3 111.7c1-2.4 2.1-4.7 3.3-6.9 0-1.4-.2-2.9-.4-4.1 0 .1-.1.1-.1.2-1.8 3.1-3.5 6.3-5 9.9.6.4 1.4.7 2.2.9z"/><path fill="#FFFFFE" d="M83.6 90c-.2-.1-.4-.1-.6-.2-.5-.2-1-.4-1.4-.5-.9-.2-1.7-.3-2.5-.4h-.4c-2.2.1-4 .9-5.1 1.9-.7.6-1.1 1.4-1.2 2.1v.8c0 .1 0 .2.1.3.8-2.6 5.6-5.2 11.2-2.6 3.1 1.4 4.3 2.8 4.6 4 0-.1 0-.2.1-.2.2-1-.2-2.4-2.5-3.9-.2-.1-.3-.2-.5-.3-.6-.4-1.1-.7-1.8-1z"/><path fill="#F386A3" d="M83.6 91.4c-5.6-2.6-10.4 0-11.2 2.6-.1.2-.1.3-.1.5v.6c.1.6.4 1.1 1.1 1.5 0 0 1-.4 2.5-.8.9-.2 1.9-.4 3-.6 1.2-.2 2.5-.3 3.7-.2 4.2.2 4.6 3.4 4.6 3.4s.9-.7 1.1-1.8c0-.2.1-.5 0-.7 0-.1 0-.3-.1-.4-.3-1.3-1.5-2.7-4.6-4.1zM78 91l.7 3.1-1.3.2-.7-2.9-1.6.3c2.6-1.2 2.9-.7 2.9-.7zM57.6 100.6c.1 0 .1 0 0 0v-.2c-.1-1.6.6-3.4 2.4-4.4 3.8-2.2 8.8.5 10.1 1.4l.4.2c-1.4-6.9-14.8-7-14.1-.2 0 .4.1.9.3 1.4.2.7.5 1.3.9 1.8zM67 111.2c.6.5 1.5.9 2.5 1h1c.7 0 1.3-.2 1.8-.4.1 0 .2-.1.3-.1h-.2c-.8-.1-1.5-.5-2.2-1-.7-.6-1.3-1.4-1.5-2.4-.1-.4-.2-.8-.2-1.2-.2-2.5 1.2-4.8 2.4-6.4.5-.5.9-.9 1.2-1.3.1-.2.3-.3.4-.5.3-.3.5-.4.5-.4h-.2c-2 0-3.7 1-4.9 2.5-3.4 1.3-7.7 2.2-10-.4.1.4.2.9.4 1.3.8 1.8 3 3.1 6.1 2.2.7-.2 1.4-.4 2-.7-.1.3-.3.7-.4 1-.3 1.1-.5 2.1-.4 3.1.1 1.4.5 2.6 1.4 3.4-.2.2-.1.3 0 .3zm-.2-.8l-.1-1.1 1.5-.7.7 1.2-2.1.6z"/><path fill="#F386A3" d="M76.1 99.2c-.5-1.1-1.1-1.8-1.4-2.2l-.3-.3s0 .1.1.4c.1.2.1.5.2.8.2.7.4 1.6.5 2.6.2 1.3.4 2.7.4 4.1v.9c-.1 2.5-.9 4.8-2.9 5.9-.1 0-.2.1-.2.1h1.3c2-.3 3.7-1.9 3.8-5.1v-.3c0-1.3-.1-2.5-.3-3.5 0-.2-.1-.4-.1-.7-.4-.9-.7-1.9-1.1-2.7zM48.3 91.4c5.6-2.1 8.5-6.5 13.8-1.5.3.3.7.7 1 1.1 0 0-2.6-8.2-12.1-4.2-4.4 1.8-7.2 2.8-9.2 2.5.2.3.3.6.5.9 1.2 1.9 2.8 2.4 6 1.2z"/><path fill="#F386A3" d="M37.7 85.3c1 2.3 2.1 3.6 3.8 3.9.1 0 .3 0 .4.1-.7-1.4-1.2-3.4-2-5.7-2.2-6.4-6.3-4.2-6.3-4.2l-3.2 3.2s.5-.2 1.3-.4c1.6-.4 4.5-.4 6 3.1zM119.7 89.8s-2.4-3.1-6.5 2.3c-1.4 1.8-2.6 3.3-3.7 4.3.3 0 .6.1.9 0 1.1-.1 2.2-.9 3.4-2.3 2.8-3.2 5.8-1.8 7.2-.8.5.3.7.6.7.6l-2-4.1z"/><path fill="#F386A3" d="M102.1 95.8c2.8 2.3 4.7 2.5 6.6 1.3.3-.2.6-.4.9-.7-2.1-.3-4.5-2.4-8.5-6.1-8.1-7.4-13.2 1.3-13.2 1.3l1.2-.6c6.6-3.4 8.3 1 13 4.8z"/><path fill="#FFFFFE" d="M77.4 94.3l1.3-.2L78 91s-.3-.6-2.9.7l1.6-.3.7 2.9zM66.7 109.3l.1 1.1 2-.5-.7-1.2z"/><path fill="#FFCF8F" d="M51.1 58c-9 2.4-13 0-13 0s.8 1.9 8.5 9.6c7.7 7.7 24.7 18.1 24.7 18.1 3.7 1.6 3.2-.8 3.2-.8C68.4 61 62.8 54.6 60.9 53.2c-1.9-1.3-6.4 0-4.5 0s3.7 2.4-5.3 4.8zm-4 5.9c-.5 0-.9-.4-.9-.9s.4-.9.9-.9.9.4.9.9-.4.9-.9.9zm3.6 3.6c-.9 0-1.6-.7-1.6-1.6 0-.9.7-1.6 1.6-1.6s1.6.7 1.6 1.6c-.1.9-.8 1.6-1.6 1.6zm3.3 3.3c-.7 0-1.3-.6-1.3-1.3 0-.7.6-1.3 1.3-1.3.7 0 1.3.6 1.3 1.3.1.7-.5 1.3-1.3 1.3zm.9-3.6c-.6 0-1.1-.5-1.1-1.1 0-.6.5-1.1 1.1-1.1.6 0 1.1.5 1.1 1.1 0 .6-.5 1.1-1.1 1.1zm4.5 6.3c.5 0 .9.4.9.9s-.4.9-.9.9-.9-.4-.9-.9.4-.9.9-.9zM94.2 47.8c1.8-.3-2.8-.9-4.3.8-1.5 1.7-5.7 9-7.1 34 0 0-.1 2.5 3.2.2 0 0 14.4-13.4 20.3-22.4 6-9.1 6.4-11.1 6.4-11.1s-3.4 3.1-12.4 2.3c-9.2-.8-7.8-3.5-6.1-3.8zm8.9 8c.5 0 .9.4.9.9s-.4.9-.9.9-.9-.4-.9-.9.4-.9.9-.9zm-.7 4.5c.4 0 .7.3.7.7 0 .4-.3.7-.7.7-.4 0-.7-.3-.7-.7 0-.4.3-.7.7-.7zm-4-1.6c.4 0 .7.3.7.7 0 .4-.3.7-.7.7-.4 0-.7-.3-.7-.7 0-.4.3-.7.7-.7zm-.7 4.9c.7 0 1.3.6 1.3 1.3 0 .7-.6 1.3-1.3 1.3-.7 0-1.3-.6-1.3-1.3 0-.7.6-1.3 1.3-1.3zm-7 8.6c-.5 0-.9-.4-.9-.9s.4-.9.9-.9.9.4.9.9-.4.9-.9.9z"/><path fill="#F386A3" d="M70 31.2c-2.3.1-3.2 3.2-1 4.4 2.2 1.2 3.8 2.3 3.8 3 0 0 3.2-3.5 3-5.8-.1-1.9-2.6-1.6-3.3-.5-.4-.6-1.2-1.2-2.5-1.1zM69.3 20.1c1.4-.4 2.6-.6 2.9-.3 0 0-.1-2.9-1.2-3.8-.9-.8-1.8.5-1.6 1.2-.4-.1-1 0-1.6.6-.9 1.1.1 2.7 1.5 2.3zM78.4 26.2c1.2-.4 2.2-.5 2.4-.3 0 0-.1-2.4-1-3.1-.7-.6-1.5.4-1.3 1-.3-.1-.8 0-1.3.5-.8.9 0 2.3 1.2 1.9zM52.9 15.4c.6-.2 1.1-.3 1.2-.1 0 0-.1-1.2-.5-1.5-.4-.3-.7.2-.6.5-.2 0-.4 0-.6.2-.4.4 0 1.1.5.9zM84.2 11.8s1.9-.8 2.3-1.7c.3-.8-.7-1.1-1.2-.8-.1-.3-.3-.7-.8-.9-1-.4-1.9.6-1.2 1.5.6.9 1 1.6.9 1.9zM102.2 19.4s1.4-.6 1.6-1.2c.2-.6-.5-.8-.9-.6 0-.2-.2-.5-.6-.7-.7-.3-1.3.5-.9 1.1.6.7.9 1.2.8 1.4zM42 28s1.4-.6 1.6-1.2c.2-.6-.5-.8-.9-.6 0-.2-.2-.5-.6-.7-.7-.3-1.3.5-.9 1.1.6.7.9 1.2.8 1.4zM62.9 26.7s1.9-.8 2.3-1.7c.3-.8-.7-1.1-1.2-.8-.1-.3-.2-.7-.8-.9-.9-.4-1.9.7-1.2 1.5.7.9 1.1 1.7.9 1.9zM75.8 44.1c.9 1.2 1.5 2.3 1.3 2.7 0 0 2.7-1.1 3.3-2.5.4-1.1-1.1-1.6-1.7-1.1-.1-.4-.3-1-1.1-1.3-1.4-.5-2.7 1-1.8 2.2z"/><circle fill="#FFFFFE" cx="47.1" cy="63" r=".9"/><circle fill="#FFFFFE" cx="50.7" cy="65.9" r="1.6"/><circle fill="#FFFFFE" cx="54" cy="69.5" r="1.3"/><circle fill="#FFFFFE" cx="54.9" cy="66.1" r="1.1"/><circle fill="#FFFFFE" cx="59.4" cy="74.4" r=".9"/><circle fill="#FFFFFE" cx="97.7" cy="65" r="1.3"/><circle fill="#FFFFFE" cx="102.4" cy="61" r=".7"/><circle fill="#FFFFFE" cx="98.4" cy="59.4" r=".7"/><circle fill="#FFFFFE" cx="103.1" cy="56.7" r=".9"/><circle fill="#FFFFFE" cx="90.7" cy="71.3" r=".9"/></svg>