<svg xmlns:xlink="http://www.w3.org/1999/xlink"  xmlns="http://www.w3.org/2000/svg" viewBox="0 0 150 150"><path fill="none" d="M113.9 72c-6.2 3.2-4.7 8-2.5 8.6 1.9.6 9.1-1.4 9.2-9.5-1.9-.4-4.3-.3-6.7.9zM93 60c-.3.4-.5.7-.8.9 1.3-.5 2.7-1.1 4.2-1.9-1-.6-2.3-.6-3.4 1zM41.6 83.8c2.2-.7 3.7-5.5-2.5-8.6-2.3-1.2-4.7-1.3-6.8-.9.2 8.1 7.4 10.1 9.3 9.5z"/><path fill="#8BA261" d="M80.2 72.1s-.2-4.4-1.2-6.6l-.4-.3s1.6 4 1 7l.6-.1zM76.5 61.1L76 61c1.9 4 6.6 7.4 6.6 7.4l.4-.3c-4.3-2.2-6.5-7-6.5-7zM78.2 72.5s1.3-6.1-2.4-11h-.6s3.7 4 2.5 10.8l.5.2z"/><path fill="#8BA261" d="M75.3 62.1l-.3.1s1.8 2.3 1 3.5c-.8 1.2-1.9.6-1.9.6l-.1.5s.8.5 1.9-.3c1-.7.4-3.6-.6-4.4zM89 66.8v-1.2s-1.1 1.7-4.7.6-6.7-5.9-6.7-5.9l-.2.3c5.3 8.8 11.6 6.2 11.6 6.2z"/><path fill="#FB89C2" d="M73.1 63.6c.9-.2 1.2-1.8 1.2-1.8s-.1.4-1.2.6c-1.1.1-1.6-.8-1.1-1.3.5-.6 1.3.1 1.3.1s-1-.1-1.2.4c-.1.5.7.5 1.6.1.9-.4.6-1.6-.7-1.5-.7 0-1.5.6-1.8 1.2-.1-.4-.4-.8-1.1-.9-1.4-.3-3.6 1.1-2.3 2.4.2.2.3.3.5.4h-.5s.3.9 1.3 1c1.1.1 1.9-1.6 1.9-1.6s-.2.5-1.5.3c-1.2-.2-1.6-1.3-.8-1.8.7-.5 1.4.5 1.4.5s-1.1-.4-1.4.1c-.3.5.6.8 1.7.6.3-.1.5-.2.7-.4 0 .3.2.6.6.8.2.1.3.2.5.2l-.5.2c.1-.1.5.6 1.4.4zM67 56c.5-.8-.3-2.1-.3-2.1s.2.4-.5 1.2c-.7.9-1.7.6-1.8-.2 0-.8 1-.9 1-.9s-.8.7-.6 1.1c.2.4.9-.1 1.2-1 .4-.9-.7-1.6-1.6-.7-.9 1-.9 3.3.8 2.9.2 0 .4-.1.5-.2l-.2.4c.1.1 1 .3 1.5-.5zM78 56.5c-.2.4.5.6 1.4.5.9-.1.9-1.3-.2-1.5-1.2-.2-2.9.9-1.8 1.9.1.1.3.2.4.3h-.4s.2.8 1.1.8c.8 0 1.5-1.3 1.5-1.3s-.2.4-1.2.2c-1-.1-1.3-1.1-.7-1.4.6-.4 1.2.4 1.2.4s-1.1-.2-1.3.1zM121.1 89.4c2.3 7.6-4.1 9.4-6.5 7.2-2.4-2.3-1.5-6.5 1.8-6.2 3.4.3 1.7 4.3 1.7 4.3 1.4-.8 1.4-4.6-1.2-5-2.6-.5-5.3 3.5-2.9 7.6s8.7 1.2 9-5.3c.3-6.5-6.4-11.3-12-4.6-3.9 4.6-3.8 13.7-3.4 19 .2.4.4.8.5 1.2.9-24.2 10.8-25.5 13-18.2z"/><path fill="#FB89C2" d="M42 84.6c6-2.3.2-13.3-9.6-12.3.1-.6.2-1.2.3-1.9 7.3 1 11-1.2 12.9-3.8l-.9-1s-3 4.5-11.8 3.6c1.9-7.3 6.7-9.9 11.9-9.4.7.1 1.5.2 2.3.4 1.4.3 2.8.9 4.2 1.6.4.2.8.4 1.3.7 3.1 1.8 6.3 3.2 9.3 3.9.3.1.6.2.9.2 1.1.2 2.1.4 3.2.4h1.1c2.4-.1 4.6-.9 6.2-2.5 0 0-2.7 1.2-7 .8-.3 0-.5-.1-.8-.1-.6-.1-1.3-.2-2-.4-.2 0-.4-.1-.6-.2-2.6-.7-5.5-1.9-8.6-4l-1.5-.9c-.5-.3-1-.5-1.5-.8-1.4-.6-2.9-1-4.3-1.2-.8-.1-1.6-.1-2.3-.1-6.9.2-12.5 5.4-14 11.1-1.9-.4-4-.9-6.4-1.8-15.5-5.6-22.4 4.4-22.4 4.4s8.3-8 21.9-3.2c2.5.9 4.7 1.5 6.7 1.9-.1.9-.2 1.8-.2 2.7-1.4.4-2.9 1-4.5 2-13.9 8.8-17.1 1.5-17.4.6l1.7 4.7-3.5-.2s4.9 7.3 20-3.2c0 0 1.6-1.2 4-1.9.8 6.6 5.7 12.1 11.4 9.9zm-9.7-10.3c2.1-.4 4.4-.3 6.8.9 6.2 3.2 4.7 8 2.5 8.6-1.9.6-9.1-1.4-9.3-9.5zM67.5 59.5c.2 0 .4.1.5.1l-.4.3s.7.6 1.5.1.6-2.1.6-2.1.1.4-1 .9c-1 .5-1.8-.2-1.5-.9.3-.7 1.3-.3 1.3-.3s-1 .3-1 .8.8.3 1.6-.4c.7-.7.1-1.8-1.1-1.3-1.1.3-2.1 2.4-.5 2.8zM43.4 92c-2.6.5-2.6 4.3-1.2 5 0 0-1.7-4 1.7-4.3 3.3-.3 4.3 4 1.8 6.2-2.4 2.3-8.8.5-6.5-7.2 2.3-7.6 12.8-5.9 13.1 20.9v-.2c.3-1.9 2.3-16.5-2.9-22.8-5.6-6.7-12.3-2-12 4.6.3 6.5 6.5 9.4 9 5.3 2.4-4-.4-8-3-7.5zM76.4 49.2c-.3.4.6.7 1.5.5 1-.2 1-1.4-.2-1.7-1.3-.3-3.2 1-2 2.1.1.1.3.3.4.3h-.5s.2.8 1.2.9c.9.1 1.7-1.4 1.7-1.4s-.2.4-1.3.2-1.4-1.2-.7-1.6c.6-.4 1.3.4 1.3.4s-1.2-.1-1.4.3z"/><path fill="#FB89C2" d="M64.1 60.1c.2.2.4.3.7.3.8 0 1.5-1.3 1.5-1.3s-.2.4-1.2.2c-1-.1-1.3-1.1-.7-1.4.6-.4 1.2.4 1.2.4s-.9-.3-1.1.1c-.2.4.5.6 1.4.5.9-.1.9-1.3-.2-1.5-1.2-.2-2.9.9-1.8 1.9.1.1.3.2.4.3h-.4c-.1 0 0 .3.2.5zM70.7 58.8c.1.1.3.3.4.3h-.5s.2.8 1.2.9c.9.1 1.7-1.4 1.7-1.4s-.2.4-1.3.2-1.4-1.2-.7-1.6c.6-.4 1.3.4 1.3.4s-1-.3-1.3.1c-.3.4.6.7 1.5.5 1-.2 1-1.4-.2-1.7-1.3-.1-3.3 1.2-2.1 2.3zM65.9 51.7h.5l-.4.3s.6.4 1.2 0c.7-.4.4-1.8.4-1.8s.1.4-.8.8c-.8.4-1.5-.1-1.3-.7.2-.6 1.1-.3 1.1-.3s-.8.3-.8.7c0 .4.7.2 1.3-.4.6-.6 0-1.5-1-1-.2.1-.4.3-.6.5-.3.3-.4.7-.5 1 .1.4.3.8.9.9zM74.5 51.9c-1.8.6-3.3 3.6-.9 4.2.3.1.5.1.8.1l-.6.4s.9.9 2.1.2c1.2-.6 1-3 1-3s.1.6-1.4 1.3c-1.5.6-2.6-.4-2.1-1.4.5-1 1.9-.4 1.9-.4s-1.5.4-1.5 1.1c0 .7 1.2.4 2.3-.5 1.1-1 .2-2.7-1.6-2zM74.8 58.7c-.3.4.6.7 1.5.5 1-.2 1-1.4-.2-1.7-1.3-.3-3.2 1-2 2.1.1.1.3.3.4.3l-.5.1s.2.8 1.2.9c.9.1 1.7-1.4 1.7-1.4s-.2.4-1.3.2-1.4-1.2-.7-1.6c.6-.4 1.3.4 1.3.4s-1.1-.3-1.4.2z"/><path fill="#FB89C2" d="M68.8 53.9c.2.7 1.3.1 2.1-1.1.8-1.2-.4-2.5-2-1.5-1.6 1.1-2.3 4.3.2 4.3.3 0 .6 0 .8-.1l-.5.5s1.1.6 2.1-.3c1-.9.2-3.1.2-3.1s.2.6-1.1 1.6-2.7.2-2.4-.8c.2-1.1 1.8-.9 1.8-.9s-1.4.7-1.2 1.4zM143 76.9l1.7-4.7c-.3.9-3.5 8.2-17.4-.6-1.5-1-3-1.6-4.5-2 0-1.1-.1-2.2-.3-3.3-.2-.9-.5-1.7-.8-2.5 10.7-1.7 17 4.5 17 4.5s-5.4-7.9-17.6-5.6c-3.7-6.7-13-11.3-22.3-5-.3.2-.7.4-1 .7-.4.3-.9.5-1.3.8-1.4.8-2.8 1.4-4.2 1.9-.6.2-1.1.4-1.7.5-.1 0-.3.1-.4.1-.2 0-.3.1-.4.1-6.1 1.5-10.1-.3-10.1-.3 2.6 2.6 6.6 3 11.1 2 .3-.1.5-.1.8-.2 2.9-.8 5.9-2.1 8.9-3.9 7-4.1 15-4.2 18.6 3.7-.9.2-1.8.5-2.8.9-15.6 5.8-20.4-1.5-20.4-1.5l-.9 1c2.6 3.5 8.3 6.3 21.9 1.5.9-.3 1.8-.6 2.6-.8.3.8.6 1.8.8 2.8.2.8.3 1.5.4 2.2-9.7-1-15.6 10-9.6 12.3 5.7 2.2 10.6-3.4 11.5-9.9 2.4.8 4 1.9 4 1.9 15.1 10.5 20 3.2 20 3.2l-3.6.2zm-31.5 3.7c-2.2-.7-3.7-5.5 2.5-8.6 2.3-1.2 4.7-1.3 6.8-.9-.3 8.2-7.4 10.1-9.3 9.5zM73.4 47.8c-1.5.2-3.1 2.3-1.4 3.1.2.1.4.2.6.2l-.5.2s.6.8 1.6.5c1-.3 1.2-2.1 1.2-2.1s0 .5-1.3.8c-1.2.3-2-.7-1.4-1.4.5-.7 1.5 0 1.5 0s-1.2 0-1.3.6c-.1.5.9.5 1.8 0 .7-.4.7-1.3 0-1.6-.2-.1-.4-.1-.6-.1 0-.2-.1-.2-.2-.2zM81.5 53.4s-.3.6-1.9.4c-1.6-.2-2.1-1.8-1.1-2.4 1-.6 1.9.6 1.9.6s-1.5-.5-1.9.1c-.4.6.8 1 2.2.8 1.4-.2 1.5-2.1-.4-2.5-1.9-.4-4.8 1.4-3 3.2.2.2.4.4.6.5h-.7s.4 1.2 1.7 1.3c1.6.1 2.6-2 2.6-2zM68.9 48.4c0 .5.8.4 1.6-.2.8-.6.3-1.7-.9-1.4-1.3.3-2.5 2.3-.9 2.8.2.1.4.1.5.1l-.5.3s.6.6 1.4.3c.9-.4.9-2 .9-2s0 .4-1.1.8c-1.1.3-1.8-.5-1.4-1.1.4-.6 1.3-.2 1.3-.2s-.9.1-.9.6z"/><path fill="none" d="M87.3 26.5l.1.1"/><path fill="#9A57A5" d="M64.1 60.1c-.1 1.6-.5 3.2-1.2 4.7.2.1.4.1.6.2.7-2.5.6-4.5.6-4.9zM67.6 70.6l2.1-.2-3.2 16.8 6.4-19.8-4.5 1.9-1.1-2.1h-1.1c.5 1.7 1.4 3.4 1.4 3.4zM58.4 70c-1.9.2-5.5-.9-5.5-.9 2 2.3 6.9 2.5 6.9 2.5s1-.6 2.8-4.3l.3-.6c-.3-.1-.6-.1-.9-.2-1.2 2-2.6 3.4-3.6 3.5zM49.3 72.8s-1.5-5-2.1-12.5c-.8-.2-1.5-.3-2.3-.4.6 4.4 1.9 8.8 4.4 12.9zM51.4 61.9c.1 2.3.4 4.5.9 6.5 0 0 .2-2.4.4-5.8-.4-.3-.8-.5-1.3-.7zM66 64.7l-.6-.4c0 .3 0 .6.1 1 .3 0 .5.1.8.1l-.3-.7zM84.1 24.1c3.2 2.4 2.3 5.9 2.3 5.9 1.5-2.6-1.4-9.1-6-7.9-4.7 1.2-3.3 4.2-3.3 4.2-.3-1.9 3.8-4.6 7-2.2zM65.1 50.7c0-.3.2-.7.5-1 1.1-2.5 3.4-8.6 2.6-13.9l-1.5-.7s.9 7.1-1.7 15.8c.1 0 .1-.1.1-.2zM63.6 75.9l-1.7 24.6c.4-1.5 2.8-22.3 2.8-23.3s-1.1-1.3-1.1-1.3zM55.6 72.6l-2.4-1.8s-.5 3.9.1 16.1c.7 12.2 2.2 22.4 2.2 22.4l.1-36.7zM72.7 91c-2.6 15.5-11.5 28.4-11.5 28.4C72.3 109.7 72.7 91 72.7 91z"/><path fill="#9A57A5" d="M93 60c1.1-1.6 2.4-1.6 3.4-1 .4-.2.9-.5 1.3-.8-2-1.2-3.1-6.1-3.8-19.6-.8-14.7-7.4-16.1-8.3-16.3h-.1l-.9.3c9.3 3.8 8 16.8 8 25.5 0 6.1 1.5 8.7 2.2 9.5-.7-.4-1.9.6-2.9 2.5-1 2-2 .5-1.7 1l.3.3c.6-.2 1.1-.3 1.7-.5.3-.2.6-.5.8-.9zM79.2 24.5c.4-.2 1.2-.2 2.6.3 2.2.9 2.7 4.2 2.7 4.2s1.1-2-.1-3.7c-1-1.6-3.8-1.5-5.2-.8zM102 119c-6.1-9.5-8.9-39.1-8.9-39.1s-.4 14.4 2.3 26.7C98 118.8 102 119 102 119z"/><path fill="#9A57A5" d="M87.4 36.7c-.7.2-1.7.7-3.2 2-3.3 2.9-5.2 4.6-6.3 3.5-.3-.3-.4-.6-.5-.9-.3 1.4-.3 3.1 1.2 2.9 2.2-.3 5.8-4.6 8.7-6.6-1 5.4-1.4 11.8 1 16-1.5 1.6-3.9 3.6-6.5 4.9 0 0 9-3.2 8.5-7.2 0 0-.7.9-1.9 2.2-.3-1.5-1.5-9.4.2-14.8 1.9-5.9.8-10.7-1.2-12.1.4.4 1.9 2 .7 7.2-.2.9-.5 1.9-.7 2.9z"/><path fill="#9A57A5" d="M84.4 36.1c.9 1.7 1.4.9 1.4.9-1.7-1.2-.7-5.9-.7-5.9s-1.6 3.2-.7 5zM101.1 94.8c4.5 18.9 9.7 24.8 12.6 26.6-1.8-.1-4.8 1.1-4.9 3.3-.1 2.6-2.7 4.2-6.1-.3-3.4-4.4-6.8-4.6-9 1.7s-6.7 7.5-10.3 2.1c-3.7-5.4-4.7-3.8-6.1-1.8-1.4 2-6.9 6.4-7.3 2.6-.4-3.8-4.1-3.5-7.1-1.7s-6.1 1.4-4.8-3c1.3-4.4-8.4-2-8.4-2 2.1.4 6.1 1.3 5.1 3.8s1.3 5.1 5.6 3.7c4.3-1.4 8.4-2 8.5 1 .1 3 3.1 4.2 6.9.8 3.8-3.4 5.9-3.7 8.2 1 2.4 4.7 7.6-.1 10.1-3.4s4.1-4.7 7.3-.9c3.3 3.8 7.7 1.8 9.7-1.3 2-3.1 3.4-4.7 6.5-3.4 3.1 1.3 3.4-1.6 3.4-1.6-4.9-1.2-9.3-6.5-13-14.6-.2-.4-.4-.8-.5-1.2-2.7-6-5-13.5-6.9-21.8-2.4-10.7-6.2-17.4-9.1-21.3-.3.1-.5.1-.8.2 2.7 5 6.3 14.1 10.4 31.5z"/><path fill="#9A57A5" d="M75.3 67.7s-1.2 4.8-7.3 21.6c-6.2 16.7-15.2 31.5-15.2 31.5s10.5-12.6 17.8-31.1c7.4-18.6 4.7-22 4.7-22zM86.8 58.5c.8.5 1.8 1.4 2.9 3.2.1 0 .3-.1.4-.1-1.9-2.3-3.3-3.1-3.3-3.1zM77.8 26.3s-.9 2.5-.4 4.9c.5 2.4 2.1 4.5 2.1 4.5s3.9-.2 4.7-2.9c0 0-1.6 1-2.5 1.3-.8.4-1.8.3-1.8.3s-2.6-2.5-1.6-8.8l-.5.7zM81.9 77s-.4 7.6-.9 19.1c-.6 11.5-1.9 25.1-1.9 25.1 5.7-10.9 2.8-44.2 2.8-44.2zM59.4 22.8c-1.1 1.8 0 3.9 0 3.9s-.4-2.1 1.4-3.9c1.7-1.8.2-2.8.2-2.8h-.1s-.3 1-1.5 2.8zM64.4 18.2c1.4-.1 2.4 0 2.9.2-1.2-.6-3.3-1.5-6.1-1.1.1 0-.1 1.1 3.2.9zM85.9 51s-3.3 3.2-5.4 4.9c-2.1 1.7 5.6-1.5 5.4-4.9zM59.7 34.6l.4 2.2 2.6-1.6z"/><path fill="#9A57A5" d="M78.8 39.7s2.6-.9 2.6-4.1l-.9.4s.4 1-.3 2.1c-.8 1.2-1.4 1.6-1.4 1.6zM63.1 35.3l2.7 2.2.3-2.5-2.4.1zM76.5 36.6c-.3-3.6-.4-6.1 0-8.6 0 0-2 2.1-1.4 7.6.5 5.5-.3 6.3-.3 6.3s1.9-1.7 1.7-5.3zM61.5 19.3s.5 1.8 4.3 1.9c1.2 0 2.2.3 2.9.5.1 5.1-4.1 9.4-4.1 9.4-2.9-.3-4.9-2.9-4.9-2.9 1.2 4.5 5.5 4.2 5.5 4.2 3.4-3.7 3.5-9.5 3.4-10.6v-.2c1.6.6 2.1 1.5 2.1 1.5s-.7-3.2-3.4-3.6c-2.5-.3-5.2.7-5.8-.2zM54.8 34.8C58 39.1 63 57.7 63 57.7c-.5-13.4-5.8-23.5-5.8-23.5l-2.4.6z"/><path fill="#9A57A5" d="M72.2 37.4c.9.7 1.9 6.6 2 6.8-.7 1.1-1.1 2.4-.4 3.6.2 0 .4 0 .6.1 0-1 .3-3 2-6.1 0 0-1.3 1-2.2 2.4.9-4.2-.8-8.2-.8-8.2s-.7-.1-2.2-.3c-1.5-.2-4.9-3.5-4.9-3.5 1.6 3.2 5.9 5.2 5.9 5.2zM49.4 37.3l6-4.3s-7.4 2.2-7.8 2.7c-.3.3-3.8 10.7-2.9 22.2.8 0 1.6 0 2.3.1-.2-6 .3-13.3 2.4-20.7zM60 19.9s-2.2.4-2.3 2.3c-.2 1.9.6 2.8.6 2.8s.7-4.7 1.7-5.1zM52.3 44.5s-1.1 7.1-1 14.6c.5.2 1 .5 1.5.8.3-6 .5-13.2-.5-15.4zM58.3 26.2s.3 5.4-1.7 7.3c.1 0 4-1.8 1.7-7.3z"/></svg>