<svg xmlns:xlink="http://www.w3.org/1999/xlink"  xmlns="http://www.w3.org/2000/svg" viewBox="0 0 150 150"><path fill="none" d="M103.6 70c-1.8-.5-3.6-.8-5.3-.8-11.1 0-18.7 10.3-21.4 14.8-.1.2-.3.4-.4.7 2.3 1.4 6.8 4.3 10.5 8.6-.2-.5-.4-1.1-.5-1.7-.1-.3-1.5-6.9 2-11.3 1.8-2.4 4.6-3.6 8.2-3.8h.3c1.5 0 6.4.4 9.8 5.4 1.7 2.5 1.3 7.2.5 8.9-.9 2.1-2.9 4.6-7 5h-.7c-.9 0-2.2-.2-3.3-1-.5-.4-1-.9-1.4-1.5-.1-.1-.1-.2-.2-.4l.5-.4-.5.3c-1.4-2.7-1.1-5.6-1-6.4v-.2l.2-.9.1.1c.7-1.5 2.3-2.6 4-2.6 2.4 0 4.4 2 4.4 4.4 0 2.4-2 4.4-4.4 4.4-.5 0-.9-.1-1.4-.2.3.7.6 1.2 1.1 1.5.7.5 1.4.6 1.9.6h.4c2.5-.3 4.2-1.5 5.2-3.6.6-1.2.8-4.9-.3-6.5-2.7-4-6.6-4.3-7.8-4.3h-.2c-2.9 0-5.1 1.1-6.5 2.8-2.7 3.5-1.5 9.2-1.5 9.3 2.1 8.3 8.8 9.2 11.6 9.2.7 0 1.1-.1 1.2-.1 13-1.6 13.2-14 13.2-14.5-.3-13.2-10.8-15.7-11.3-15.8zM76 87.3c-.2-.1-.4-.3-.7-.4-1.3 2.3-4.3 6.8-8.7 10.5.6-.2 1.2-.4 1.8-.5.2 0 1.6-.3 3.5-.3 2.2 0 5.3.4 7.8 2.3 2.3 1.8 3.6 4.6 3.8 8.2 0 .2.4 6.3-5.4 10.1-1.5 1-3.7 1.2-4.8 1.2-1.6 0-3.2-.3-4.1-.7-2.1-.9-4.6-2.9-5-7 0 0-.4-2.2 1-4.1.4-.5.9-.9 1.5-1.4.1-.1.2-.1.4-.2l.1-.1c1.7-.9 3.5-1.1 4.7-1.1.7 0 1.3.1 1.7.1.1 0 .2 0 .2.1l.9.2v.1c1.6.7 2.6 2.3 2.6 4 0 2.4-2 4.4-4.4 4.4-2.4 0-4.4-2-4.4-4.4 0-.5.1-.9.2-1.4-.7.3-1.2.6-1.5 1.1-.8 1.1-.6 2.3-.6 2.3.3 3 2.1 4.5 3.6 5.2.5.2 1.7.5 3.1.5 1.5 0 2.8-.3 3.5-.8 4.6-3.1 4.3-7.8 4.3-8-.1-2.9-1.1-5.1-2.9-6.5-1.9-1.5-4.5-1.8-6.3-1.8-1.7 0-2.9.3-3 .3-10.3 2.6-9.2 12.3-9.1 12.7 1.6 13 14 13.2 14.5 13.2 13.1 0 15.6-10.5 15.7-11 4-14-8.5-23.4-14-26.8zM73.6 83.2c.2.1.4.2.7.4 1.3-2.2 4.3-6.7 8.7-10.5l-1.8.6c-.2 0-1.6.4-3.5.4-2.2 0-5.3-.4-7.8-2.3-2.3-1.8-3.6-4.6-3.8-8.2 0-.3-.4-6.2 5.4-10.1 1.5-1 3.7-1.2 4.8-1.2 1.6 0 3.2.3 4.1.7 2.1.9 4.6 2.9 5 7 0 0 .4 2.2-1 4.1-.4.5-.9 1-1.5 1.4-.1.1-.2.2-.4.2l-.1.1c-1.7.9-3.5 1.1-4.7 1.1-.7 0-1.3-.1-1.7-.1-.1 0-.2 0-.2-.1l-.9-.2v-.1c-1.6-.7-2.6-2.2-2.6-4 0-2.4 2-4.4 4.4-4.4 2.4 0 4.4 2 4.4 4.4 0 .5-.1.9-.2 1.4.7-.2 1.2-.6 1.5-1.1.8-1.1.6-2.3.6-2.3-.2-2.4-1.5-4.2-3.6-5.2-.5-.2-1.7-.5-3.1-.5-1.5 0-2.8.3-3.5.8-4.6 3.1-4.3 7.8-4.3 8 .1 2.9 1.1 5.1 2.8 6.5 1.9 1.5 4.5 1.8 6.3 1.8 1.7 0 2.9-.2 2.9-.2 10.3-2.6 9.2-12.3 9.1-12.7-1.6-13-14-13.1-14.5-13.1-13.1 0-15.6 10.5-15.7 11-3.9 13.5 8.7 23 14.2 26.4zM72.7 86.3c.1-.1.2-.4.4-.7-2.4-1.4-6.8-4.3-10.5-8.6.2.5.4 1.1.5 1.7.1.3 1.5 6.8-2 11.3-1.8 2.3-4.6 3.6-8.2 3.8h-.4c-1.4 0-6.4-.4-9.7-5.4-1.7-2.5-1.3-7.2-.5-8.9.9-2.1 2.9-4.6 7-5h.7c.9 0 2.2.2 3.4 1.1.5.4 1 .9 1.4 1.5.1.1.1.3.2.4l.1.1c1.4 2.6 1.1 5.4 1 6.4v.2l-.2.9h-.1c-.7 1.5-2.3 2.6-4 2.6-2.4 0-4.4-2-4.4-4.4s2-4.4 4.4-4.4c.5 0 .9.1 1.4.2-.3-.7-.6-1.2-1.1-1.5-.7-.5-1.4-.6-1.9-.6h-.4c-2.5.2-4.2 1.5-5.2 3.6-.6 1.2-.8 4.7.3 6.3 2.7 4 6.6 4.1 7.8 4.1h.2c2.9 0 5.1-.9 6.5-2.6 2.7-3.5 1.5-9.1 1.5-9.2-2.1-8.3-8.8-9.1-11.6-9.1-.6 0-1.1.1-1.2.1-13 1.6-13.2 14-13.2 14.5 0 13.1 10.5 15.6 11 15.7 1.8.5 3.6.8 5.4.8 11.1 0 18.7-10.4 21.4-14.9z"/><path fill="#DA4698" d="M128.9 78.9c-.2-1.6-.5-3.3-.9-4.9l-1.2.3c.4 1.6.6 3.2.9 4.8l1.2-.2zM110.5 44.8c-1.2-1.1-2.5-2.1-3.9-3.1l-.7 1c1.3.9 2.6 2 3.8 3l.8-.9zM113.2 49.1c1.1 1.2 2.2 2.4 3.2 3.6l1-.8c-1-1.3-2.1-2.5-3.3-3.7l-.9.9zM119.1 116l1 .7c.9-1.4 1.8-2.8 2.6-4.2l-1.1-.6c-.7 1.4-1.6 2.8-2.5 4.1zM35.2 123.4l-.9.9c1.1 1.2 2.3 2.3 3.6 3.4l.8-.9c-1.2-1.1-2.4-2.2-3.5-3.4zM113.1 123.5l.9.9c1.1-1.2 2.2-2.4 3.3-3.7l-1-.8c-1 1.3-2.1 2.5-3.2 3.6zM20.4 98.5c.4 1.6.8 3.2 1.3 4.8l1.2-.4c-.5-1.5-.9-3.1-1.3-4.7l-1.2.3zM28.1 116.6c.9 1.4 1.9 2.7 2.9 4l1-.8c-1-1.3-2-2.6-2.8-3.9l-1.1.7zM79 140l.1 1.2c1.6-.1 3.3-.4 4.9-.7l-.2-1.2c-1.6.3-3.3.5-4.8.7zM23.5 64.5l1.1.5c.6-1.5 1.3-2.9 2.1-4.3l-1.1-.6c-.8 1.4-1.5 2.9-2.1 4.4zM23.4 107.9c.6 1.5 1.4 3 2.1 4.5l1.1-.6c-.8-1.4-1.5-2.9-2.1-4.4l-1.1.5zM28.2 55.8l1 .7c.9-1.3 1.8-2.7 2.9-3.9l-1-.8c-1.1 1.3-2 2.7-2.9 4zM97.5 134.8l.5 1.2c1.5-.7 2.9-1.5 4.4-2.3l-.6-1.1c-1.4.8-2.8 1.6-4.3 2.2zM69.1 141.2c1.6.1 2.9.2 4.9.2v-1.2c-1 0-3.2-.1-4.8-.2l-.1 1.2zM88.5 138.2l.3 1.2c1.6-.4 3.2-1 4.7-1.5l-.4-1.2c-1.6.6-3.1 1.1-4.6 1.5zM50.2 135.9c1.5.7 3 1.4 4.5 2l.4-1.2c-1.5-.6-3-1.2-4.4-1.9l-.5 1.1zM105.8 129.9l.7 1c1.3-1 2.6-2 3.9-3.1l-.8-.9c-1.2 1-2.5 2-3.8 3zM41.7 130.8c1.3 1 2.7 1.9 4.1 2.7l.6-1.1c-1.4-.8-2.7-1.7-4-2.7l-.7 1.1zM59.4 139.4c1.6.4 3.2.8 4.8 1.1l.2-1.2c-1.6-.3-3.2-.7-4.7-1.1l-.3 1.2zM20.4 73.9l1.2.3c.4-1.6.8-3.1 1.3-4.7l-1.2-.4c-.5 1.6-.9 3.2-1.3 4.8zM74.2 32.3c-1.6 0-3.2.1-4.8.2 1.6-.1 3.2-.2 4.8-.2zM60.1 34.2c1.6-.4 2.9-.8 4.9-1.1-2 .3-3.3.6-4.8 1.1h-.1zM50.8 37.6c1.4-.7 2.9-1.3 4.4-1.9l-.4-1.2c-1.5.6-3.1 1.2-4.6 2l.6 1.1zM129.3 83.9h-1.2v2.3c0 .8 0 1.7-.1 2.5l1.2.1c0-.9.1-1.7.1-2.6.1-.8 0-1.6 0-2.3zM88.6 34.3c1.5.4 3.1 1 4.6 1.5l.4-1.2c-.3-.1-.6-.2-.8-.3-.1.4-.3.7-.4 1.1-1.2-.4-2.5-.8-3.8-1.1zM97.7 37.7c1.4.7 2.9 1.5 4.3 2.3l.6-1.1c-1.4-.9-2.9-1.6-4.4-2.4l-.5 1.2zM83.8 33.2c-.7-.1-1.3-.2-2-.3.7 0 1.4.1 2 .3zM79 32.5c1 .1 1.6.2 2.4.3-.8-.1-1.4-.2-2.4-.3zM38.7 45.6l-.8-.9c-1.2 1.1-2.4 2.2-3.6 3.4l.9.9c1.1-1.2 2.3-2.3 3.5-3.4zM123.7 107.5l1.1.5c.7-1.5 1.2-3.1 1.7-4.6l-1.2-.4c-.3 1.5-.9 3-1.6 4.5zM20.7 79l-1.2-.2c-.2 1.6-.4 3.3-.4 4.9l1.2.1c.1-1.6.2-3.3.4-4.8zM119.2 56.6c.9 1.3 1.7 2.7 2.5 4.2l1.1-.6c-.8-1.5-1.6-2.9-2.5-4.3l-1.1.7zM20.3 88.6h-1.2c.1 1.6.2 3.3.4 4.9l1.2-.2c-.2-1.5-.3-3.1-.4-4.7zM126.7 98.3l1.2.3c.4-1.6.7-3.2.9-4.9l-1.2-.2c-.2 1.7-.5 3.3-.9 4.8zM123.8 65.1c.6 1.5 1.2 3 1.7 4.5l1.2-.4c-.5-1.6-1.1-3.1-1.7-4.6l-1.2.5zM46.5 39.9l-.6-1.1c-1.4.9-2.8 1.8-4.1 2.7l.7 1c1.3-.8 2.7-1.7 4-2.6z"/><path fill="#9A5776" d="M59.8 34.2c1.5-.4 3.1-.8 4.7-1.1 1.6-.3 3.2-.5 4.8-.6 1.6-.1 3.2-.2 4.8-.2 1.7 0 3.3.1 5 .2l2.4.3c.1 0 .2 0 .3.1.7.1 1.3.2 2 .3 1.6.3 3.2.7 4.8 1.1 1.3.3 2.5.7 3.8 1.2.2-.4.3-.7.4-1.1 3-7.5 5-15.9 7.1-24.2-4.3-.5-4.5 3-5.4 5.9-1.3-.5-2.4-2.9-3.8-1.6-1.9.8-2.3 3.1-2.2 5.9 1 .6 4-.8 4.3 1.6 1.8 11.9-23 7.4-14.6-2.2 2.1-.3 2.9.7 3.8 1.6 1.7-1.8 2.9-7.9-1.1-8.1-2.2-.2-2 2.1-3.8 2.4.2-3.5-.6-5.7-2.9-6.7-2.3 1-3.2 3.2-2.9 6.7-1.8-.2-1.6-2.5-3.8-2.3-4 .2-2.8 6.2-1.1 8 .9-.9 1.6-2 3.8-1.6 8.4 9.5-16.4 14-14.6 2.1.4-2.4 3.4-1 4.3-1.6.1-2.8-.3-5.1-2.2-5.9-1.4-1.2-2.5 1.1-3.8 1.6-.9-2.9-1.1-6.5-5.4-5.9 2.3 8.7 4.3 17.5 7.5 25.2 1.4-.4 2.6-.7 3.8-1.1z"/><path fill="#DA4698" d="M104.2 67.6c-2-.6-4-.9-6-.9-3.5 0-6.6.9-9.4 2.3 4-4.7 3.3-10.8 3.3-10.8C90.3 43.1 75.4 43 75.2 43c-15 0-18 12.7-18 12.8-1.7 5.9-.7 11 1.4 15.3-3.5-3-7.9-3.4-9.6-3.4-.8 0-1.2.1-1.2.1-15.1 1.8-15.3 16.8-15.3 16.9 0 15 12.7 18 12.8 18 2 .6 4 .9 6 .9 3.5 0 6.6-.9 9.4-2.3-4 4.7-3.3 10.8-3.3 10.9 1.8 15.1 16.8 15.3 16.9 15.3 15 0 18-12.7 18-12.8 1.7-5.9.7-11-1.4-15.3 3.5 3 7.9 3.3 9.6 3.3.8 0 1.2-.1 1.2-.1 15.1-1.8 15.3-16.8 15.3-16.9 0-15-12.7-18.1-12.8-18.1zM59.5 56.4c.1-.5 2.6-11 15.7-11 .5 0 13 .2 14.5 13.1.1.4 1.2 10.2-9.1 12.7 0 0-1.3.2-2.9.2-1.8 0-4.4-.3-6.3-1.8-1.8-1.4-2.7-3.5-2.8-6.5 0-.2-.3-4.9 4.3-8 .7-.5 2-.8 3.5-.8 1.4 0 2.6.2 3.1.5 2.2 1 3.4 2.7 3.6 5.2 0 0 .2 1.3-.6 2.3-.3.5-.8.9-1.5 1.1.2-.4.2-.9.2-1.4 0-2.4-2-4.4-4.4-4.4-2.4 0-4.4 2-4.4 4.4 0 1.8 1 3.3 2.6 4v.1l.9.2c.1 0 .1 0 .2.1.4 0 .9.1 1.7.1 1.2 0 3-.2 4.7-1.1l.1-.1c.1-.1.3-.2.4-.2.6-.4 1.1-.9 1.5-1.4 1.4-1.9 1-4.1 1-4.1-.4-4.1-2.9-6.1-5-7-.9-.4-2.5-.7-4.1-.7-1.2 0-3.3.1-4.8 1.2-5.8 3.9-5.4 9.9-5.4 10.1.2 3.7 1.4 6.4 3.8 8.2 2.5 1.9 5.6 2.3 7.8 2.3 1.9 0 3.3-.3 3.5-.4.6-.2 1.2-.3 1.8-.6-4.4 3.8-7.4 8.3-8.7 10.5-.3-.2-.5-.3-.7-.4-5.6-3-18.2-12.5-14.2-26.4zm-8.2 44.8c-1.7 0-3.5-.3-5.4-.8-.4-.1-11-2.6-11-15.7 0-.5.2-13 13.2-14.5.1 0 .5-.1 1.2-.1 2.8 0 9.5.9 11.6 9.2 0 0 1.2 5.5-1.5 9-1.4 1.8-3.5 2.6-6.5 2.6h-.2c-1.1 0-5.1-.1-7.8-4.1-1.1-1.6-.9-5.2-.3-6.5 1-2.2 2.7-3.3 5.2-3.6h.4c.5 0 1.3.1 1.9.6.5.4.8.9 1.1 1.6-.4-.2-.9-.2-1.4-.2-2.4 0-4.4 2-4.4 4.4s2 4.4 4.4 4.4c1.7 0 3.3-1 4-2.6h.1l.2-.9v-.2c.2-1 .4-3.8-1-6.4l-.1-.1c-.1-.1-.1-.3-.2-.4-.4-.6-.9-1.1-1.4-1.5-1.2-.9-2.5-1.1-3.4-1.1h-.7c-4.1.4-6.1 2.9-7 5-.8 1.7-1.2 6.4.5 8.9 3.3 5 8.3 5.4 9.7 5.4h.4c3.7-.1 6.4-1.4 8.2-3.8 3.4-4.4 2-11 2-11.3-.2-.6-.3-1.2-.5-1.7 3.7 4.3 8.1 7.2 10.5 8.6-.2.3-.3.5-.4.7-2.7 4.7-10.3 15.1-21.4 15.1zM90 114.1c-.1.5-2.6 11-15.7 11-.5 0-13-.2-14.5-13.2-.1-.4-1.2-10.2 9.1-12.7 0 0 1.3-.3 3-.3 1.8 0 4.4.3 6.3 1.8 1.8 1.4 2.7 3.5 2.9 6.5 0 .2.3 4.9-4.3 8-.7.5-2 .8-3.5.8-1.4 0-2.6-.2-3.1-.5-1.5-.7-3.3-2.1-3.6-5.2 0 0-.2-1.3.6-2.3.4-.5.9-.9 1.5-1.1-.1.5-.2.9-.2 1.4 0 2.4 2 4.4 4.4 4.4 2.4 0 4.4-2 4.4-4.4 0-1.8-1-3.3-2.6-4v-.1l-.9-.2c-.1 0-.1 0-.2-.1-.4 0-.9-.1-1.7-.1-1.2 0-3 .2-4.7 1.1l-.1.1c-.1.1-.3.1-.4.2-.7.4-1.2.9-1.5 1.4-1.4 1.9-1 4.1-1 4.1.4 4.1 2.9 6.1 5 7 .9.4 2.5.7 4.1.7 1.1 0 3.3-.2 4.8-1.2 5.8-3.8 5.4-9.9 5.4-10.1-.1-3.6-1.4-6.4-3.8-8.2-2.5-1.9-5.6-2.3-7.8-2.3-1.9 0-3.3.3-3.5.3-.6.2-1.2.3-1.8.5 4.4-3.8 7.3-8.3 8.7-10.5.3.2.6.3.7.4 5.5 3.4 18 12.8 14 26.8zm11.4-13.9c-.1 0-.5.1-1.2.1-2.8 0-9.5-.9-11.6-9.2 0-.1-1.2-5.7 1.5-9.3 1.4-1.8 3.5-2.8 6.5-2.8h.2c1.1 0 5.1.3 7.8 4.3 1.1 1.6.9 5.3.3 6.5-1 2.2-2.7 3.4-5.2 3.6h-.4c-.5 0-1.3-.1-1.9-.6-.5-.4-.8-.9-1.1-1.5.4.2.9.2 1.4.2 2.4 0 4.4-2 4.4-4.4 0-2.5-2-4.4-4.4-4.4-1.7 0-3.3 1-4 2.6l-.1-.1-.2.9v.2c-.1.8-.4 3.7 1 6.4l.5-.3-.4.6c.1.1.1.2.2.4.4.6.9 1.1 1.4 1.5 1.2.9 2.5 1 3.3 1h.7c4.1-.4 6.1-2.9 7-5 .8-1.7 1.2-6.4-.5-8.9-3.4-5-8.3-5.4-9.8-5.4h-.3c-3.7.1-6.4 1.4-8.2 3.8-3.4 4.4-2 11-2 11.3.2.6.3 1.2.5 1.7-3.7-4.3-8.1-7.2-10.5-8.6.2-.3.3-.6.4-.7 2.7-4.5 10.3-14.8 21.4-14.8 1.8 0 3.5.3 5.3.8.5.1 11 2.6 11 15.7.2.4 0 12.8-13 14.4z"/><path fill="#9A5776" d="M96.9 60.9c.1.5.4 1.6 1.5 1.8 2.3.5 7.7 0 10.4-12.1 0 0-13 2.8-11.9 10.3zM51.1 62.7c1.1-.2 1.4-1.4 1.5-1.8 1.1-7.4-11.9-10.3-11.9-10.3 2.8 12.1 8.1 12.6 10.4 12.1zM108.8 119.8c-2.7-12.1-8.1-12.6-10.4-12.1-1.1.2-1.4 1.4-1.5 1.9-1.1 7.4 11.9 10.2 11.9 10.2zM52.6 109.6c-.1-.5-.4-1.7-1.5-1.9-2.3-.4-7.7.1-10.4 12.1.1 0 13-2.8 11.9-10.2z"/></svg>