<svg xmlns:xlink="http://www.w3.org/1999/xlink"  xmlns="http://www.w3.org/2000/svg" viewBox="0 0 150 150"><path fill="#00B07C" d="M116.2 41.9c.1.4.1.7.2 1.1 12.4 7.7 20.7 21.4 20.7 37 0 24.1-19.5 43.6-43.6 43.6-4.7 0-9.1-.7-13.3-2.1 9.4-6.2 16.3-15.8 19.2-27-3.9 11.3-12.4 20.5-23.3 25.4-1.9-.8-3.7-1.8-5.4-2.9-.2 1.5-.3 2.8-.5 3.6.5.3 1 .7 1.4 1-4.2 1.4-8.7 2.1-13.4 2.1-24.1 0-43.6-19.5-43.6-43.6 0-19.7 13.1-36.3 31.1-41.7v-.1c-20.9 4.4-36.6 22.8-36.6 45 0 25.3 20.5 45.8 45.8 45.8 7.5 0 14.6-1.8 20.8-5 6.2 3.2 13.3 5 20.8 5 25.3 0 45.8-20.5 45.8-45.8.1-18.3-10.6-34-26.1-41.4z"/><path fill="#00B07C" d="M51.5 91.7c2.2 11.9 9 22.1 18.4 28.8v-3.9c-8.8-5.6-15.5-14.5-18.4-24.9z"/><path fill="#B76D30" d="M77.7 97.6s1.9 2.3 5.8 2.5c0 0 .9-3.7-1.4-4.6l-4.4 2.1zM55.2 94.7c8.2 2.3 9.9-2.2 9.9-2.2l-3.8-3c-3.6.8-6.1 5.2-6.1 5.2zM72.4 104.3c2.2-2.2 4-6.7 4-6.7s-8.1 1.1-10.1-3.3c0 0-1.8 4.2 1.8 9.7.6.9 1.2 1.3 1.8 1.4l.1 11.3v5.3s.1-.5.2-1.2c.1-.9.3-2.1.5-3.6.4-4.4 1.2-10.3 1.7-12.9z"/><path fill="#F391BC" d="M71.1 52.8c3.8 13.7 15.5 13.4 15.5 13.4 12.6-12.4 9.6-19.2 6.8-22.1 1.7 3.5-3.4 11.1-10.4 8.1-8.2-3.5-3.5-12.4-3.5-12.4l-8.4 13z"/><path fill="#F391BC" d="M92 42.8c-.2-.1-.4-.2-.5-.2.4.2 1.2.7 2 1.6-.3-.7-.8-1.1-1.5-1.4zM90.7 43.1s-5-3.5-8-.5 1.6 8 5 7c3.5-1 .1-4.9-1.7-4.5 0 0 2.4-3.1 4.7-2z"/><path fill="#F391BC" d="M106.1 47.7c-3.1-8.6-14.2-9.5-14.2-9.5s5.8 3.3 6.8 9.6c.9 6.3-4.2 13.4-4.2 13.4s14.7-4.9 11.6-13.5zM107.3 90.3c5.6.1 5.5-11.6 8.8-13.5 3.3-1.9 3.6-9.6 3.6-9.6s-1.2 2.8-9.9 5.2c-8.7 2.4-6.3 6-12.1 9.9-5.8 3.9-18.5 4.2-29.8-1.6C56.6 74.9 52.7 73 52.7 73s9.9 15.4 17.4 19.7c7.5 4.3 16.4-.2 24-3.5 7.6-3.4 7.6.9 13.2 1.1z"/><path fill="#F391BC" d="M60 38.4c-4 5.1-2.4 9.8.3 13.8 2.8 4 2.3 8.1 4 12.7 1.8 4.7 9.9 11.9 16.1 9.8 6.2-2.1 12.7.9 21.3-1.1 8.6-1.9 6.5-18.4 6.5-18.4s-6.6 9.8-13.6 11.4c-7 1.6-17.4 4.8-25.7-11.3-8.3-16.2 4.8-21 4.8-21S64 33.4 60 38.4zM91.5 42.6c-.3-.2-.4-.2 0 0z"/><path fill="#F391BC" d="M42.7 61.3c4.2 8.5 9.6 8.5 14.6 10.2 2.1.7 5.6 2.5 8.8 4.4l3.9 3s12.3 7.9 23.3 2.4c11-5.4 8-5.1 8-5.1s-10.2 2.4-14.9 1.7c-3.7-.5-13.1.7-19.8-2-3.8-3.5-8.1-9.2-10.6-18.3-5.2-19.2-1-23.9 6.1-25.2 7.1-1.4 13.5-1.7 13.5-1.7s-.4-9.9-8.7-10.1c-8.4-.2-20.1 4.1-20.9 7.7-.8 3.7 2.3 6 .4 8.9-.2.3-.4.7-.6 1.1v.1c-2.4 4.4-6.9 15.2-3.1 22.9z"/><path fill="#F391BC" d="M115.8 39.5c-1.4-8.3-11.6-15.7-24.8-14.3-13.1 1.3-16.2 12.4-16.2 12.4 12.1-6.9 25.9-4.2 33.4 5.4 7.5 9.7 3.3 21.9 3.3 21.9s6.2 0 6.9-3.4c.5-2.9-.8-11.1-2.1-18.6-.1-.4-.1-.7-.2-1.1 0-.7-.2-1.5-.3-2.3z"/></svg>