<svg xmlns:xlink="http://www.w3.org/1999/xlink"  xmlns="http://www.w3.org/2000/svg" viewBox="0 0 150 150"><path fill="#FBB03B" d="M141.6 125.8c2.9-1.1 4.3-2.6 4.3-4.6 0-2-1.4-2.9-4.2-2.9-2.2 0-3.9.6-4.8 1.9v.3l.3.3h.1c1.2-.9 2.4-1.4 3.4-1.4h.5c2.1 0 3.3.7 3.6 2 0 1.9-2 3.1-6 3.6h-1.7c-1 0-2.5-.2-4.6-.6-12.3-4-19.9-6-22.9-6h-.8c-2.6 0-4.7.8-6.4 2.3h-.3v-.3c-2-1.7-4.4-2.5-7-2.5h-.6l-1.9.4c-2.8 1-4.8 2.5-5.9 4.5h.3l.1.1c2.1-2 4.7-2.9 7.8-2.9h.6c2.7 0 4.8.7 6.2 2-.4.9-.6 1.6-.6 1.9v.1c.1 1.2.6 1.8 1.4 1.8 1 0 1.5-.6 1.7-1.8v-.3c0-.7-.3-1.3-.9-1.7 0-1 1.7-1.8 5.2-2.3 3.5.7 6.6 1.4 9.2 2.3 8.7 2.9 15 4.3 18.8 4.3h1.4c1.2 0 2.4-.2 3.7-.5zm-38.8-1.1h-.4l-.5-.5v-.4c0-.5.2-.8.6-1 .2 0 .4.4.6 1.1 0 .4-.1.7-.3.8z"/><path fill="#FBB03B" d="M80.5 126.3s3.6-1.1 8.3.1c4.8 1.2 6.8-.7 7.1-1.3s.5-1.4-.4-1.7c-.9-.3.1.3-.4 1s-1.7-.1-1.3-1c.5-.9 1.5-.8 2.3-.5.8.4 1 1.5.5 2.5-.5 1.1-2.9 2.8-6.8 1.8-4.1-1-6.9-1.2-9.3-.9zM8.7 125.8c-2.9-1.1-4.3-2.6-4.3-4.6 0-2 1.4-2.9 4.2-2.9 2.2 0 3.9.6 4.8 1.9v.3l-.3.3H13c-1.3-.9-2.4-1.4-3.4-1.4h-.5c-2.1 0-3.3.7-3.6 2 0 1.9 2 3.1 6 3.6h1.7c1 0 2.5-.2 4.6-.6 12.3-4 19.9-6 22.9-6h.8c2.6 0 4.7.8 6.4 2.3h.3v-.3c2-1.7 4.4-2.5 7-2.5h.6l1.9.4c2.8 1 4.8 2.5 5.9 4.5h-.1l-.1.1c-2.1-2-4.7-2.9-7.8-2.9H55c-2.7 0-4.8.7-6.2 2 .4.9.6 1.6.6 1.9v.1c-.1 1.2-.6 1.8-1.4 1.8-1 0-1.5-.6-1.7-1.8v-.3c0-.7.3-1.3.9-1.7 0-1-1.7-1.8-5.2-2.3-3.5.7-6.6 1.4-9.2 2.3-8.7 2.9-15 4.3-18.9 4.3h-1.4c-1.3 0-2.5-.2-3.8-.5zm38.8-1.1h.4l.5-.5v-.4c0-.5-.2-.8-.6-1-.2 0-.4.4-.6 1.1 0 .4.1.7.3.8z"/><path fill="#FBB03B" d="M69.8 126.3s-3.6-1.1-8.3.1c-4.8 1.2-6.8-.7-7.1-1.3-.3-.6-.5-1.4.4-1.7.9-.3-.1.3.4 1s1.7-.1 1.3-1c-.5-.9-1.5-.8-2.3-.5-.8.4-1 1.5-.5 2.5.5 1.1 2.9 2.8 6.9 1.8 4-1 6.8-1.2 9.2-.9z"/><path fill="#736357" d="M107.6 111.6c-1.9.5-2.9 2-2.6 4.3 1.9 1.4 3.7 1.2 5.1-.2 1.4-1.4 2.2-3.2 2.6-4.3-1.2-.1-3.2-.3-5.1.2zM94.8 42.1c3.5 1.7 7.5 2.2 9.9 2.4-.5-2.4-1.4-6.3-3.5-9.6-1.9-2.9-4.9-4.1-8.7-2.8.5.4.9.9 1.4 1.3 2.7 2.7 4.8 5.3 6 6.8-1.7-1-4.5-2.8-7.5-5.1l-1.5-1.2c-.7 3.8.8 6.6 3.9 8.2zM52.8 42.5c-3.5 1.7-7.5 2.2-9.9 2.4.5-2.4 1.4-6.3 3.5-9.6 1.9-2.9 4.9-4.1 8.7-2.8-.5.4-.9.9-1.4 1.3-2.7 2.7-4.8 5.3-6 6.8 1.7-1 4.5-2.8 7.5-5.1l1.5-1.2c.7 3.8-.8 6.7-3.9 8.2zM40.6 111.6c1.9.5 2.9 2 2.6 4.3-1.9 1.4-3.7 1.2-5.1-.2-1.4-1.4-2.2-3.2-2.6-4.3 1.2-.1 3.2-.3 5.1.2zM28.8 90c1.9.5 2.9 2 2.6 4.3-1.9 1.4-3.7 1.2-5.1-.2-1.4-1.4-2.2-3.2-2.6-4.3 1.2-.2 3.2-.3 5.1.2zM31.7 61.3c1.9.5 2.9 2 2.6 4.3-1.9 1.4-3.7 1.2-5.1-.2-1.4-1.4-2.2-3.2-2.6-4.3 1.2-.2 3.2-.3 5.1.2z"/><circle fill-rule="evenodd" clip-rule="evenodd" fill="#736357" cx="75.4" cy="125.6" r="1.1"/><circle fill-rule="evenodd" clip-rule="evenodd" fill="#736357" cx="79.5" cy="125.6" r="1.1"/><circle fill-rule="evenodd" clip-rule="evenodd" fill="#736357" cx="71.3" cy="125.6" r="1.1"/><path fill="#736357" d="M72.8 120.7h-.1c-.2 0-17.7-3.6-27.6-22.4-5.4-10.2-6.4-25.1-6.4-47.4v-.5L72.9 33l34.2 17.4v.5c0 22.3-1 37.2-6.4 47.4-9.9 18.8-27.4 22.4-27.6 22.4h-.3zM40.2 51.3c0 21.8 1.1 36.4 6.2 46.2 9.1 17.2 24.7 21.2 26.4 21.6 1.7-.4 17.3-4.4 26.4-21.6 5.2-9.8 6.2-24.4 6.2-46.2L72.8 34.7 40.2 51.3z"/><path fill="#FBB03B" d="M45.5 55.4c0 18.3.9 30.6 5.2 38.9 7.6 14.5 20.8 17.8 22.2 18.1 1.4-.3 14.6-3.7 22.2-18.1 4.4-8.3 5.2-20.5 5.2-38.9l-27.4-14-27.4 14z"/><g fill="#FBB03B"><path d="M72.2 33.8c-.8.8-1.8 1.5-2.8 2-4.1 1.9-9.9 1.1-12.2-2.8-1.1-1.7-1.2-4-.2-5.9 1-1.7 2.7-2.7 4.6-2.7 1.8.1 3.3 1.1 4 2.8.6 1.7 0 3.7-1.8 4.4-1.2.4-2.7 0-3-1.3-.1-.6.1-1.5.8-1.5.5 0 .3.5.4.8.3.8 1.3.5 1.8 0 .9-1 .4-2.5-.6-3.3-1.6-1.2-3.7-.6-5 .8-.8 1-1.2 2.3-1 3.5.5 5.1 8.1 6.2 11.6 4.1 1.4-.7 2.4-1.5 3.4-2.5v1.6z"/><path d="M59.4 35.3c.3-.2-.7-1.3-.9-1.5-1.3-1.3-6.2-5.4-7.6-6.4-1.4-1.1-2.8-1.9-4.2-2.5-3.9-1.4-9-.1-10.7 3.6-.8 1.7-.7 3.7.4 5.3 1 1.4 2.6 2.2 4.4 2 1.6-.2 2.9-1.3 3.3-2.8.4-1.6-.4-3.4-2-3.8-1.1-.2-2.4.3-2.6 1.5-.1.5.2 1.3.9 1.2.4-.1.2-.4.3-.7.2-.7 1.1-.6 1.6-.2.9.8.6 2.2-.2 3-1.3 1.2-3.3.9-4.5-.3-.9-.9-1.3-1.9-1.2-3.1 0-4.6 6.7-6.3 10.1-4.7 1.3.5 2.6 1.3 3.8 2.2.4.4 8.8 7.4 9.1 7.2zM74.4 33.9c.8.8 1.8 1.4 2.8 2 4.1 1.9 9.9 1.1 12.2-2.8 1.1-1.7 1.2-4 .2-5.9-1-1.7-2.7-2.7-4.6-2.7-1.8.1-3.3 1.1-4 2.8-.6 1.7 0 3.7 1.8 4.4 1.2.4 2.7 0 3-1.3.1-.6-.1-1.5-.8-1.4-.5 0-.3.5-.4.8-.3.8-1.3.5-1.8 0-.9-1-.4-2.5.6-3.3 1.6-1.2 3.7-.6 5 .8.9 1 1.2 2.3 1 3.5-.5 5.1-8.1 6.2-11.6 4.1-1.4-.7-2.4-1.5-3.4-2.5v1.5z"/><path d="M87.2 35.3c-.3-.2.7-1.3.9-1.5 1.3-1.3 6.2-5.4 7.6-6.4 1.4-1.1 2.8-1.9 4.2-2.5 3.9-1.4 9-.1 10.7 3.6.8 1.7.8 3.7-.4 5.4-1 1.4-2.6 2.2-4.4 2-1.6-.2-2.9-1.3-3.3-2.8-.4-1.6.4-3.4 2-3.8 1.1-.3 2.4.2 2.6 1.5.1.5-.2 1.3-.9 1.2-.4-.1-.2-.4-.3-.7-.2-.7-1.1-.6-1.6-.2-.9.8-.6 2.2.2 3 1.3 1.2 3.3.9 4.5-.3.9-.9 1.2-1.9 1.2-3.1 0-4.6-6.7-6.3-10.1-4.7-1.3.5-2.6 1.3-3.8 2.2-.4.3-8.7 7.4-9.1 7.1z"/><path fill-rule="evenodd" clip-rule="evenodd" d="M73.2 31.1c1.3 0 2.4 1.1 2.4 2.4 0 1.3-1.1 2.4-2.4 2.4s-2.4-1.1-2.4-2.4c0-1.4 1.1-2.4 2.4-2.4z"/><g fill-rule="evenodd" clip-rule="evenodd"><path d="M73.3 24.8c.4-.9.9-1.3 1.7-1.3.9 0 1.7.8 1.7 1.7 0 1.7-1.7 3.5-3.4 5.2-1.7-1.7-3.4-3.5-3.4-5.2 0-1 .8-1.7 1.7-1.7.8 0 1.2.4 1.7 1.3z"/><path d="M73.3 26.6c.2-.4.4-.6.8-.6.5 0 .8.4.8.8 0 .8-.8 1.7-1.7 2.5-.8-.8-1.7-1.7-1.7-2.5 0-.5.4-.8.8-.8.5 0 .7.2 1 .6z"/><circle cx="73.3" cy="21.2" r="1.4"/><circle cx="73.3" cy="18.2" r=".7"/></g></g><g fill="#FBB03B"><path d="M43.5 100.7c-.8 0-1.7 0-2.7-.2-4.1-.4-9.5-5.9-6.9-10.3.6-1.1 1.6-1.9 2.9-2.2 1.9-.4 3.9.4 4.5 2.3.3 1.2-.1 2.7-1.5 3-.7.1-1.6-.3-1.4-1.1.1-.3.5-.5.1-.9-.6-.4-1.3.2-1.5.7-.5 1.3.4 2.5 1.6 2.9 1.9.5 3.6-.7 4.1-2.5.5-1.7-.2-3.5-1.6-4.6-1.5-1.2-3.5-1.4-5.3-.6-2 .9-3.2 2.8-3.4 4.9-.4 4.5 3.7 8.6 8.2 9.5.8.2 1.6.2 2.4.2.3-.3.4-.7.5-1.1z"/><path d="M33.1 95.4c.3 0 .2-1.5.2-1.8-.3-1.8-1.8-8-2.3-9.7-.5-1.7-1.1-3.2-1.9-4.5-2.3-3.4-7.2-5.4-10.7-3.5-1.6.9-2.8 2.5-2.9 4.5 0 1.7.8 3.3 2.3 4.2 1.4.8 3.1.7 4.4-.3 1.3-1.1 1.7-2.9.6-4.3-.7-.9-2.1-1.2-3-.4-.4.4-.6 1.2 0 1.5.4.2.4-.2.7-.4.6-.4 1.3.2 1.4.8.2 1.2-.9 2.1-2 2.3-1.8.2-3.2-1.2-3.5-2.9-.2-1.2.2-2.3.8-3.2 2.8-3.7 9.1-1 10.9 2.2.8 1.2 1.3 2.6 1.7 4.1.3.7 2.8 11.3 3.3 11.4z"/></g><g fill="#FBB03B"><path d="M30.2 84c.3-.3.6-.5.9-.8-.1-.2-.3-.3-.4-.5-2.4-3.3-2.1-10.9 2.9-12 1.2-.3 2.5-.1 3.6.7 1.6 1.1 2.3 3.1 1.3 4.9-.7 1-2.1 1.7-3.2.9-.5-.4-.9-1.4-.2-1.8.3-.2.7 0 .7-.5-.1-.7-1-.8-1.5-.7-1.3.5-1.5 2-1 3.1.9 1.7 2.9 2.1 4.6 1.3 1.6-.8 2.4-2.5 2.3-4.3-.2-1.9-1.4-3.5-3.1-4.3-2.1-.9-4.3-.4-5.9.8-3.6 2.7-3.8 8.5-1.5 12.4.2.4.4.6.5.8z"/><path d="M29.3 73.5c.2.2 1.2-.8 1.4-1.1 1.1-1.4 4.7-6.8 5.6-8.2.9-1.5 1.6-2.9 2-4.5.9-4-.9-8.9-4.7-10.3-1.7-.6-3.8-.4-5.3 1-1.3 1.2-1.9 2.8-1.5 4.6.4 1.6 1.6 2.7 3.2 3 1.6.2 3.3-.7 3.6-2.4.1-1.1-.5-2.3-1.7-2.4-.5 0-1.3.4-1.1 1 .1.4.5.2.8.2.7.2.7 1.1.4 1.6-.7 1-2.1.8-3 .1-1.3-1.2-1.2-3.2-.2-4.5.8-.9 1.8-1.5 2.9-1.6 4.6-.5 7 6 5.8 9.5-.3 1.4-1 2.7-1.8 4.1-.6.5-6.7 9.6-6.4 9.9z"/></g><path fill="#736357" d="M117.1 91.4c-1.9.5-2.9 2-2.6 4.3 1.9 1.4 3.7 1.2 5.1-.2 1.4-1.4 2.2-3.2 2.6-4.3-1.3-.1-3.3-.3-5.1.2zM114.1 62.7c-1.9.5-2.9 2-2.6 4.3 1.9 1.4 3.7 1.2 5.1-.2 1.4-1.4 2.2-3.2 2.6-4.3-1.2-.1-3.2-.3-5.1.2z"/><g fill="#FBB03B"><path d="M102.3 102.2c.8 0 1.7 0 2.7-.2 4.1-.4 9.5-5.9 6.9-10.3-.6-1.1-1.6-1.9-2.9-2.2-1.9-.4-3.9.4-4.5 2.3-.3 1.2.1 2.7 1.5 3 .7.1 1.6-.3 1.4-1.1-.1-.3-.5-.5-.1-.9.6-.4 1.3.2 1.5.7.5 1.3-.4 2.5-1.6 2.9-1.9.5-3.6-.7-4.1-2.5-.5-1.7.2-3.5 1.6-4.6 1.5-1.2 3.5-1.4 5.3-.6 2 .9 3.2 2.8 3.4 4.9.4 4.5-3.7 8.6-8.2 9.5-.8.2-1.6.2-2.4.2-.2-.3-.4-.7-.5-1.1z"/><path d="M112.7 96.8c-.3 0-.2-1.5-.2-1.8.3-1.8 1.8-8 2.3-9.7.5-1.7 1.1-3.2 1.9-4.5 2.3-3.4 7.2-5.4 10.7-3.5 1.6.9 2.8 2.5 2.9 4.5 0 1.7-.8 3.3-2.3 4.2-1.4.8-3.1.7-4.4-.3-1.3-1.1-1.7-2.9-.6-4.3.7-.9 2.1-1.2 2.9-.4.4.4.6 1.2 0 1.5-.4.2-.4-.2-.7-.4-.6-.4-1.3.2-1.4.8-.2 1.2.9 2.1 2 2.3 1.8.2 3.2-1.2 3.5-2.9.2-1.2-.2-2.3-.8-3.2-2.8-3.7-9.1-1-10.9 2.2-.8 1.2-1.3 2.6-1.7 4.1-.2.8-2.7 11.4-3.2 11.4z"/></g><g fill="#FBB03B"><path d="M115.6 85.5c-.3-.3-.6-.5-.9-.8.1-.2.3-.3.4-.5 2.4-3.3 2.1-10.9-2.9-12-1.2-.3-2.5-.1-3.6.7-1.6 1.1-2.3 3.1-1.3 4.9.7 1 2.1 1.7 3.2.9.5-.4.9-1.4.2-1.8-.3-.2-.7 0-.7-.5.1-.7 1-.8 1.5-.7 1.3.5 1.5 2 1 3.1-.9 1.7-2.9 2.1-4.6 1.3-1.6-.8-2.4-2.5-2.3-4.3.2-1.9 1.4-3.5 3.1-4.3 2.1-.9 4.3-.4 5.9.8 3.6 2.7 3.8 8.5 1.5 12.4-.2.4-.3.6-.5.8z"/><path d="M116.6 75c-.2.2-1.2-.8-1.4-1.1-1.1-1.4-4.7-6.8-5.6-8.2-.9-1.5-1.6-2.9-2-4.5-.9-4 .9-8.9 4.7-10.3 1.7-.6 3.8-.4 5.3 1 1.3 1.2 1.9 2.8 1.5 4.6-.4 1.6-1.6 2.7-3.2 3-1.6.2-3.3-.7-3.6-2.4-.1-1.1.5-2.3 1.7-2.4.5 0 1.3.4 1.1 1-.1.4-.5.2-.8.2-.7.2-.7 1.1-.4 1.6.7 1 2.1.8 3 .1 1.3-1.2 1.2-3.2.2-4.5-.8-.9-1.8-1.5-2.9-1.6-4.6-.5-7 6-5.8 9.5.3 1.4 1 2.7 1.8 4.1.5.5 6.7 9.5 6.4 9.9z"/></g><path fill="#736357" d="M105 108.7c.2-3.9-1-7.8-1.9-10-2 1.4-5.2 3.8-7.4 7.1-1.9 2.9-1.7 6.2.9 9.1.2-.6.4-1.2.7-1.8 1.4-3.5 2.9-6.5 3.8-8.2-.3 1.9-.8 5.3-1.7 8.9-.2.6-.3 1.3-.5 1.9 3.9-.9 5.9-3.5 6.1-7zM41.3 109c-.5-3.8.4-7.6 1.1-9.9 2 1.2 5.4 3.3 7.7 6.3 2.1 2.7 2.1 5.9-.2 8.9-.2-.6-.5-1.1-.8-1.7-1.6-3.3-3.3-6.1-4.3-7.7.4 1.9 1.1 5.1 2.3 8.5l.6 1.8c-3.9-.5-6-2.8-6.4-6.2z"/><g fill="#736357"><path d="M73.2 95.1c-5-8.4-6.5-14.1-6.6-17.8-.3-8.2 2.7-15.1 6.2-21.6-.5 4.9 5.1 11.9 5.7 19.8.5 6.6-1 12.5-5.3 19.6z"/><path d="M73.9 95.4c5-5.4 5.7-11.5 6.5-14.4 2.1-7.8 5.6-11.8 14.9-13-4.9 3.3-4.7 11.5-8.2 16.9-2.9 4.5-6.8 7.6-13.2 10.5zM72.2 95.5c-1.1-1.8-5-3.5-7.9-5.3-2.9-1.9-4.9-3.7-6.6-6.5-2.1-3.4-1.4-6.6-1.8-10.4-.3-2.9-2.3-5.5-4.9-6.8 3.8-.4 6.6 1 8.8 3.1 3.6 3.4 4.1 8.2 5.5 12.7 1.6 4.7 4.3 9 6.9 13.2z"/></g></svg>