<svg xmlns:xlink="http://www.w3.org/1999/xlink"  xmlns="http://www.w3.org/2000/svg" viewBox="0 0 150 150"><path fill="none" d="M85.2 17.1c.5.4.8.8 1 1.4.1.2.1.4.1.6 0 .2 0 .4-.1.6 1.2 1.2 3.3 1.1 4.5 2.2.6.5.7 1.2.8 1.8 1-1.2 1.8-2.7 2.1-4.5.5-2.2-1.4-10.8-8-9.7-4.5.8-4.6 5-2.9 7.6.2-.2.4-.3.7-.4.6-.1 1.2 0 1.8.4zM47.6 60.3c-.1-.1-.2-.2-.2-.4 0-.1-.1-.3-.1-.4 0-.3.1-.5.3-.5h.4c.1 0 .2.1.4.2.1 0 .2.1.3.2.1.1.2.1.3.2l.1.1s.1 0 .1.1l.2.2c.1.1.3.3.3.4.1.2.2.3.3.5l.4.4c.1.1.3.2.5.3.1 0 .2.1.3.1-.3-3.4-1.7-7.7-6.6-7.7-7.4-.1-7.8 7.5-5 9.5 3 2.1 7.8.5 6.3-3.5-.8-2.2-3.1-1.7-3.9-1.1 0 .2 0 .5-.1.8.3.4.4.8.3 1.1-.1.4-.6.6-1 .5-.3 0-.6-.1-.8-.3-.5-.3-.9-.7-1.1-1.1.1-.4.5-1 .9-1.3.2-.2.5-.4.7-.4.4-.1.9-.1 1.1.3 0 0 0 .1.1.2.3-1.1 3.7-2.6 5.1 1.3 0 .1 0 .2.1.3 0-.2.2-.1.3 0 .1 0 0 0 0 0zM60.5 68.9c-1.2-1-2.7-1.8-2.9-3-.1-.3-.1-.6-.1-.9 0-1 .6-2 1.4-2.4.4-.2.9-.3 1.3-.3.9 0 1.6.4 2.1 1 .3-.4.8-.7 1.3-.9-5.7-2.8-11.6 2-11.5 6.1.1 5.3 6.3 9.5 9.6 4.3.4-.6.6-1.2.6-1.7v.1s-.8-1.6-1.8-2.3zM107.7 29.6c.1 0 .3.1.4.1 0-.2 0-.3.1-.5.5.7 1.6.8 2.1 1.5.3.4.3.8.2 1.1.1-.1.1-.2.2-.2l.9-.6c.3-.1.7-.2 1-.2h.3c.4 0 .7.2 1.1.4.7.4 1.1 1.1 1.2 1.9v.1c.1.3.1.6.1.8 0 .3 0 .6-.1.9-.1.4-.3.8-.6 1.1-.3.3-.8.6-1.3.8-.4.2-.8.3-1.3.5-.1 0-.1.1-.2.1 3.1 1.9 6.5-1.7 6.1-5.5-.4-3.6-6.9-7.1-11.2-2.2.3-.1.7-.1 1-.1zM82.2 17.7c0-.1.1-.1.2-.2-.1-.1-.2-.2-.3-.2 0 .1 0 .3.1.4zM100.9 81.4c-.1-2.1-2.6-3.7-3.8-1.6-.7 1.2.4 2.1 1 2.1-.1.1-.2.1-.3.1.1.2.2.3.3.5.2.5.3 1 .4 1.5 1.4-.2 2.5-1.5 2.4-2.6z"/><path fill="#EE2E36" d="M32.8 45.1c-2 .4-3.6 2.5-2.1 4.9h.2c.5.1 1 0 1.5 0s1.1-.1 1.6-.1c.9.1 1.9.3 2.7.8.2.1.4.2.5.4 0-.2 0-.5.1-.8.1-.3.1-.5.2-.8.1-.2.2-.5.2-.7l.6-1.5c.3-.6.5-1.2.7-1.8.2-.6.2-1.2.1-1.9l-.3-.9c-.2-.3-.3-.6-.6-.9-.3-.3-.6-.6-1-.9-.3-.3-.7-.5-1.1-.7-.3-.1-.5-.2-.7-.2-.2 0-.5-.1-.7-.1-.5 0-.9.1-1.2.4-.8.5-1.1 1.3-1.1 2.2 0 .4 0 .7.1 1 .1.3.2.7.3 1v.1c-.2-.1-.5-.1-.7-.2h-.7c-.6.1-1.2.3-1.6.8-.4.4-.6.8-.8 1.2-.1.2-.1.4-.2.6.9-1.5 2.6-2.5 4-1.9zM35.9 88v-.2c0-.4-.1-.8-.3-1.2-.1-.2-.3-.4-.4-.6l-.5-.5c-.5-.3-1-.5-1.7-.3-.7.1-1.1.5-1.4 1.1-.1.3-.2.5-.2.8.9-.9 2.8-1.4 4.5.9zM30.9 88.4c-.1-.2 0-.5.2-.9-.2-.1-.4-.2-.6-.2-.5-.1-.9-.2-1.4 0-.7.2-1.1.7-1.3 1.4-.1.5-.1 1 .1 1.5.1.3.2.6.4.8.2.3.5.5.9.7.4.1.8.2 1.2.2.4 0 .8 0 1.2.1.7.1 1.4.3 2 .7.1.1.3.2.4.3 0-.2 0-.4.1-.6.1-.2.1-.4.2-.6.1-.2.1-.4.2-.5.2-.4.3-.7.5-1 .2-.3.3-.6.4-.8-.1-.3-.3-.7-.5-1-1.4-2.1-3.5-.9-4-.1z"/><path fill="#D83537" d="M63.6 62.3c-.5.2-1 .5-1.3.9-.5-.6-1.3-1-2.1-1-.5 0-.9.1-1.3.3-.9.5-1.5 1.4-1.5 2.5 0 .3 0 .6.1.9.3 1.2 1.7 2.1 2.9 3 1 .8 1.8 2.1 1.8 2.1v-.1c.2-2.1-1.8-3.6-2.9-3.8.7-.8 3.4 0 4.2 2.2.2-.2.4-.4.6-.5 1.2-1 2.6-1.8 2.9-3 .1-.2.1-.3.1-.5-1.1-1.4-2.3-2.4-3.5-3zM57.2 59.9l-.3-.3c-.2-.1-.3-.1-.5-.1-.3 0-.6.2-.8.4-.2-.2-.5-.4-.8-.4-.2 0-.4 0-.5.1-.1.1-.2.1-.3.2.2.6.3 1 .4 1.4.8-.6 1.8-1 2.8-1.3zM67.8 61.7c.4.3.7.8.7.8s.3-.5.7-.8c.5-.4 1-.7 1.1-1.1 0-.1.1-.2.1-.3 0-.4-.2-.7-.5-.9-.2-.1-.3-.1-.5-.1-.3 0-.6.2-.8.4-.2-.2-.5-.4-.8-.4-.2 0-.4 0-.5.1-.3.2-.5.5-.5.9 0 .1 0 .2.1.3-.1.3.4.7.9 1.1zM59.8 58.3c.3.2.5.6.5.6s.2-.4.5-.6c.3-.3.7-.5.7-.8v-.2c0-.3-.2-.5-.4-.6-.1-.1-.2-.1-.3-.1-.2 0-.4.1-.6.3-.1-.2-.3-.3-.6-.3-.1 0-.2 0-.3.1-.1.1-.3.3-.3.6v.2c.1.3.5.6.8.8z"/><path fill="#402312" d="M120.3 58.8c.6.1 1.2.3 1.6.7-.1-.5-.1-1.1-.3-1.5-.3.3-.6.5-1 .7-.1 0-.2 0-.3.1zM38.5 25.5c.2 0 .4.1.6.2l.4.4c-.1-.3-.1-.6-.1-.8 0-.3.2-.5.4-.4.2 0 .5.2.7.5l.3.3c.1.1.2.2.2.4.1.2.2.3.2.5 0-.5 0-1-.4-1.6-.9-1.2-2.7-1.3-3.6-2.6-.2 1.3-.3 2.5.9 3.9l.1.1v-.2c0-.5.1-.7.3-.7z"/><path fill="#ED2224" d="M113.4 36.8c.5-.2.9-.5 1.3-.8.3-.3.5-.7.6-1.1.1-.3.1-.6.1-.9 0-.3 0-.5-.1-.8v-.1c-.2-.8-.5-1.4-1.2-1.9-.4-.2-.7-.3-1.1-.4h-.3c-.3 0-.7.1-1 .2-.3.1-.6.3-.9.6-.1.1-.1.2-.2.2.6-.3 1.2-.4 1.5-.1-1.1.3-3.1 2.5-1.2 4.7.4.4.7.7 1.1 1 .1 0 .1-.1.2-.1.3-.1.7-.3 1.2-.5z"/><path fill="#ED2224" d="M110.1 32.2c-.1-.4-.2-.8-.4-1.1-.2-.4-.5-.7-.8-.9-.1-.1-.3-.2-.5-.3-.1 0-.2-.1-.3-.1-.1 0-.3-.1-.4-.1-.3-.1-.7 0-1 .1-.5.6-1 1.2-1.4 2-.4.8-.7 1.6-.8 2.3 0 .2.1.3.1.5.3.5.6 1 1 1.4l.3.3.9.9c.5.5 1 1 1.4 1.5.2.2.3.4.5.6.1.2.2.4.3.5.1-.2.2-.4.4-.6.2-.2.3-.4.5-.5.1-.1.2-.1.2-.2l.1-.1c.1-.1.2-.1.2-.2h.1c-.2-.1-.3-.3-.5-.4-2.1-2.7-1.1-4.7.1-5.6zM102.3 99.8c3.1.5 4.1-2.5 3.8-3.8 1.4.5 1.2 6.1-4.5 5.1-.7-.1-1.2-.4-1.8-.7.1.4.2.7.4 1 .2.3.4.6.7.9.4.3.8.5 1.3.6.5.1 1.1.1 1.6 0s1.1-.2 1.7-.2h.4c.6 0 1.2 0 1.7.2.2 0 .5.1.7.2.2.1.4.2.6.2-.1-.2-.1-.5-.1-.8 0-.3 0-.7.1-1 .1-.6.2-1.2.4-1.7 0-.1 0-.1.1-.2.2-.6.4-1.1.5-1.7.1-.5.2-1.1.1-1.7-.1-.5-.4-1-.7-1.4-.2-.3-.5-.5-.8-.7-.1-.1-.3-.2-.4-.2v-.1-.2c0-.1-.2-.3-.4-.4-.3-.1-.6-.2-.9-.2h-.7c-.2 0-.5.1-.7.2-.1 0-.1.1-.2.1s-.2.1-.2.1c-.1.1-.3.2-.4.3-.1.2-.3.3-.4.5-.1.2-.3.4-.4.6-.1.1-.1.2-.2.3 0 .1-.1.1-.1.2s-.1.2-.1.3c.1-.1.2-.1.3-.1h.1v.1c-.1.7 0 1.3.2 1.9v.1c-.3-.1-.7-.2-1-.3h-.3c-.3 0-.7 0-1 .1h-.1l-.6.3c-.2.1-.4.3-.5.4-.2.2-.4.5-.5.8.4.4 1.2.8 2.3.9zM104.3 62.1c.4.8.7 1.5.9 2.3 0 .1 0 .2.1.3v.2c.1-.1.2-.2.3-.2.1-.1.2-.1.3-.2.7-.4 1.5-.6 2.2-.7-.9-1.3-2.3-1.8-3.8-1.7z"/><path fill="#ED2224" d="M109.7 63.8h.3c.5-.1.9-.2 1.4-.4.2-.1.4-.3.6-.6.1-.1.2-.3.3-.4.2-.4.4-.9.5-1.4v-.3c0-.7-.1-1.3-.5-1.8l-.2-.2c-.5-.5-1.1-.7-1.8-.7h-.4c-.6.1-1.1.4-1.6.7l-.1.1c0-.4 0-.8-.1-1.2-.2-.5-.4-1-.9-1.3-.3-.2-.6-.4-1-.5-.4-.1-.8-.1-1.2.1-.2.1-.5.2-.7.3-.2.1-.3.2-.4.4l-.3.3c-.2.3-.4.6-.6 1-.2.5-.2.9-.2 1.5.1.5.3 1 .5 1.4 0 0 0 .1.1.1 2.5-.6 5.1.6 6.3 2.9zM68 41c-.2-1 1-2.4 2.8-3.1-.1 0-.1-.1-.2-.1-.6-.2-1.3-.3-1.8-.1h-.1c-.2.1-.4.2-.7.3-.8.5-1.2 1.4-1.3 2.3 0 .8.1 1.4.5 2.1v.1c-.5-.2-1-.2-1.5-.2-.7.1-1.3.3-1.8.7-.8.7-1.1 1.5-1.1 2.5 0 .7.3 1.3.7 1.9.2.3.5.7.9.9.5.3 1 .5 1.6.6.6.1 1.2 0 1.8-.2l1.2-.3c.2 0 .4-.1.6-.1.6-.1 1.2-.2 1.8-.2.4 0 .7 0 1.1.1h.2c.2 0 .5.1.7.2-.1-.3-.2-.5-.2-.8-.2-1.1-.1-2.2.2-3.3.1-.6.3-1.3.4-2 .1-.6.1-1.2-.1-1.8-.1-.3-.3-.7-.5-1-2.3-.2-4.3.6-5.2 1.5zM53.2 29.8v.2c0-.1.1-.2 0-.2.1-.1.1-.2.1-.3l-.2-.2c0 .2.1.3.1.5zM50.9 61.4c-.2-.1-.4-.2-.5-.3-.1-.1-.3-.2-.4-.4-.1-.2-.2-.3-.3-.5-.1-.2-.2-.3-.3-.4l-.2-.2s-.1 0-.1-.1H49c-.1-.1-.2-.1-.3-.2-.1-.1-.2-.1-.3-.2-.1 0-.2-.1-.4-.2h-.4c-.2 0-.4.2-.3.5 0 .1 0 .2.1.4 0 .1.1.2.2.4-.2-.1-.3-.2-.5-.3.2.6.2 1.2.1 1.7.1.1.2.2.4.3.2.1.3.1.5.2.2 0 .3.1.5.1.3 0 .5 0 .7-.1.2-.1.4-.2.6-.2h.1s.1 0 .1-.1c.1 0 .2-.1.3-.1.2-.1.4-.1.6-.2.1 0 .2 0 .2-.1-.1.1-.2 0-.3 0zM138.6 57c-.1-.1-.3-.1-.4-.2-.2 0-.3-.1-.5-.1h-.1c.3-.1.5-.2.7-.3.3-.1.5-.3.5-.5.1-.3 0-.5-.5-.7-.2-.1-.3-.1-.5-.1h-.6c-.3 0-.6 0-.8.1-.4.1-.7.2-1 .4-.3.2-.5.4-.6.6-.1.2-.3.4-.4.6-.2.4-.5.7-.7 1.1 0 .1.1.1.1.2h.1c.1 0 .2 0 .4-.1h.3c.2 0 .4 0 .6.1.2.1.4.2.6.2.2.1.4.1.7.1h.7c.2 0 .3-.1.5-.1s.3-.1.5-.1c.4-.1.7-.3.8-.5 0-.2-.1-.4-.4-.7zM38.8 33.5c-.2.2-.3.5 0 .9.2.3.4.6.7.8l.5.5c.2.2.5.3.7.4.2.1.5.2.7.2.2 0 .5.1.7.2l.6.3c.2.1.4.3.6.5l.3.3c0-.2-.1-.3-.1-.5v-.4-.4-.8-.9c0-.3-.1-.6-.3-.9-.2-.3-.4-.6-.7-.9-.2-.2-.4-.3-.6-.5l-.6-.3c-.3-.1-.5-.2-.7-.2H40c-.3.1-.3.4-.2.8.1.1.2.3.3.4.1.2.2.3.4.5-.3-.1-.5-.2-.8-.2-.4 0-.7.1-.9.2zM44.7 31.7c0 .1-.1.2-.1.2.1-.1.2-.1.3-.2.4-.2.7-.4 1-.5.2-.1.4-.1.6-.2.2-.1.4-.2.5-.4.2-.2.3-.4.4-.6.2-.3.3-.6.3-.8.1-.4.1-.7 0-.8-.1-.2-.3-.2-.6-.1-.2.1-.4.3-.6.5.1-.2.1-.4.1-.6 0-.2 0-.4-.1-.5-.2-.2-.4-.1-.7.1-.2.2-.4.4-.5.6-.1.2-.2.3-.3.5-.1.2-.2.4-.2.7v.6c0 .2.1.3.1.5v.5c-.1.1-.2.3-.2.5zM41.6 29c.1 0 .2.1.2.1-.1-.1-.1-.2-.1-.3-.1.1-.2.1-.1.2-.1 0-.1 0 0 0zM41.4 27c0-.1 0-.2-.1-.4v-.1c-.1-.2-.1-.3-.2-.5-.1-.1-.2-.2-.2-.4l-.3-.3c-.2-.3-.5-.4-.7-.5-.2 0-.4.1-.4.4 0 .2 0 .5.1.8-.1-.2-.3-.3-.4-.4-.2-.1-.4-.2-.6-.2-.2 0-.4.2-.3.6v.2c0 .2.1.4.2.7l.3.6c.2.2.3.5.6.6.1.1.2.1.3.2.4-.5 1-.9 1.7-1.3zM121.1 86.2c-.2.2-.3.3-.4.5-.2.3-.5.5-.9.8-.1.1-.2.1-.3.2h.4c.5.1.8.2 1.1.3.2.1.4.2.5.3.2.1.4.2.6.2.2.1.4.1.6.1h.8c.3-.1.6-.1.8-.3.2-.2.1-.4-.1-.6-.2-.2-.4-.3-.7-.4.2 0 .4-.1.6-.1.3-.1.5-.2.5-.3.1-.2 0-.5-.3-.7-.3-.2-.6-.3-1-.3h-.8c-.1 0-.3 0-.4.1-.2 0-.3.1-.5.2-.2-.3-.4-.2-.5 0zM115.4 70.3c.1.1.2.3.3.4.2.3.4.7.6 1.1v.1c0 .1 0 .1.1.2 0-.1.1-.3.1-.4.2-.5.4-.8.6-1.1.1-.2.3-.4.4-.5.1-.2.2-.4.3-.7 0-.1 0-.2.1-.3v-.5-.3c0-.3 0-.5-.1-.8-.1-.4-.2-.7-.5-.9 0 0-.1 0-.1-.1-.2-.1-.4 0-.5.3l-.1.1c-.1.2-.2.4-.3.7 0-.2-.1-.4-.2-.5V67c-.1-.3-.3-.4-.4-.5-.3-.1-.5 0-.7.4-.1.3-.2.6-.2.9V68.6c0 .3.1.6.2.8 0 .5.2.7.4.9-.1 0-.1 0 0 0zM129.2 62c0-.1-.1-.2-.3-.2h-.1H128.2c-.1 0-.3.1-.4.1-.1.1-.2.1-.3.2l-.1.1c-.1 0-.1.1-.2.1-.1.1-.3.2-.6.3h-.2c.1 0 .1 0 .2.1.1 0 .2.1.2.1.1.1.2.1.3.2.1.1.2.1.3.2.1.1.2.1.4.1h.4c.2 0 .4-.1.6-.2.1 0 .1-.1.2-.1s.1-.1.1-.1c.1-.1.1-.1.1-.2s-.1-.2-.3-.3c-.1 0-.1.2-.2.2s-.2.3-.3.3c.1 0 .2-.4.3-.5.5 0 .5-.3.5-.4z"/><path fill="#EE2E36" d="M60.6 105.4c.3.8.5 1.6.6 2.4.1-.3.1-.5.2-.8.1-.2.1-.5.2-.7.3-.8.7-1.7 1.1-2.5.5-1 1-1.9 1.4-2.9.4-.9.6-1.9.5-3-.1-1-.4-1.9-1-2.8-.4-.6-.8-1.1-1.2-1.5l-.7-.7c-.3-.2-.5-.4-.8-.6-.4-.2-.7-.4-1.1-.6-.4-.2-.8-.3-1.2-.3-.8-.1-1.5-.1-2.2.2-1 .4-1.7 1-2.1 1.9-.2.5-.4 1-.5 1.5-.1.6-.2 1.2-.1 1.8 0 .6.1 1.2.2 1.7v.2c-.4-.2-.7-.4-1.1-.5l-1.2-.3c-1.1-.1-2.1.1-3 .7-1.4.9-2.2 2.2-2.5 3.6-.1.3-.1.5-.1.8v.8c0 .2.1.5.1.7.1.2.1.4.2.7.2.6.5 1.1 1 1.6.5.7 1.3 1.1 2.2 1.4.9.3 1.8.4 2.8.4 1 0 2 0 2.9.1.8.1 1.7.2 2.5.4s1.6.5 2.4.8c.2.1.3.2.5.3.2-1.6.3-3.1 0-4.8zM86.2 19.7c0-.2.1-.4.1-.6 0-.2 0-.4-.1-.6-.1-.5-.4-1-1-1.4-.6-.4-1.2-.5-1.8-.3-.3.1-.5.2-.7.4.2.4.5.7.8 1-.4-.2-.8-.4-1.1-.7l-.2.2v.1c0-.2-.1-.3-.1-.4-.6-.5-1.1-1.1-1.4-1.7-.6-.3-1.2-.2-1.8.1-.2.1-.3.3-.4.4-.3.3-.5.6-.7 1-.1.3-.2.7-.3 1.1v.7c0 .1 0 .2.1.3 0 .1.1.2.1.3.2.4.5.8.8 1.1.3.3.7.6 1 .9.6.5 1.1 1.1 1.5 1.7.1.1.2.3.2.4.1-.2.2-.3.3-.5.5-.6 1.1-1 1.8-1.4l1.2-.6c.4-.2.7-.4 1-.7.5-.2.6-.5.7-.8zM25.5 119.2c2.1 1.1 4.4 0 4.4 0s-2.6 2.6-5.4.8c-.6-.4-1.3-1-2-1.7 0 .5 0 .9-.1 1.4v.5c0 .4-.1.8-.1 1.2-.1.5-.2 1.1-.3 1.7 0 .2-.1.5-.2.7.3-.1.6-.2.9-.2h.8c.3 0 .6.1.8.1.3.1.5.1.8.2.3.1.5.2.8.3l1.2.6c.2.1.3.2.5.3.5.3 1.1.5 1.7.5.3 0 .5 0 .8-.1.3-.1.5-.1.7-.3l.9-.6c.1-.1.3-.2.4-.4l.4-.4c.2-.2.3-.4.4-.6.1-.2.2-.4.3-.7.1-.4.2-.9.1-1.4-.2-1-.9-1.7-1.8-2.1-.7-.3-1.4-.4-2.2-.3h-.1c.3-.4.6-.9.8-1.4.2-.7.2-1.4 0-2-.4-1-1.1-1.7-2-2-.2-.1-.3-.1-.5-.1H27c-.4 0-.7.1-1.1.2-.5.2-.9.3-1.3.6-.6.4-1 .9-1.3 1.5-.1.2-.1.3-.2.5.5 1.7 1.5 2.7 2.4 3.2zM121.4 74c-.2.3-.3.6-.1.9.1.2.2.4.4.6.1.1.2.2.4.2.2.1.4.1.6 0 .2 0 .4-.1.5-.2.2-.1.3-.2.5-.3.3-.2.6-.3 1-.3h.2c-.1-.1-.1-.1-.1-.2-.2-.3-.2-.7-.3-1 0-.2 0-.4-.1-.6 0-.2-.1-.4-.2-.5-.1-.2-.2-.3-.4-.4-.2-.1-.4-.2-.7-.2-.3 0-.6.1-.8.3-.2.2-.3.5-.2.8 0 .2.1.4.3.6-.2 0-.3 0-.5.1-.2-.1-.4 0-.5.2z"/><path fill="#402312" d="M129.2 51.4c.4 0 .8 0 1.2-.2 1.5-.7 2.1-2.7 3.7-3.4-1.4-.6-2.7-.9-4.6.1-1 .5-1.6 1.3-1.8 2-1.2-1.1-2.5-2.1-3.8-2.8-3.3-1.8-7.7-3-12.5-3-3-1.7-7.7-5.2-6.8-10 .1-.7.4-1.5.8-2.3.4-.8.9-1.4 1.4-2 4.3-4.9 10.8-1.4 11.2 2.2.5 3.8-3 7.5-6.1 5.5-.4-.2-.8-.5-1.1-1-1.9-2.2.1-4.3 1.2-4.7-.3-.2-.9-.2-1.5.1.1-.3 0-.7-.2-1.1-.5-.7-1.6-.8-2.1-1.5 0 .2 0 .3-.1.5.1 0 .2 0 .3.1.2.1.3.2.5.3.3.2.6.6.8.9.2.4.3.7.4 1.1-1.2.9-2.2 3 0 5.5.1.2.3.3.5.4 3.7 3.2 10.2-1.1 8.1-7.6-1.4-4.3-9.2-7.1-13.9-1.1-.1-.4-.3-.8-.7-1.2-1.2-1.2-3.3-1-4.5-2.3 0 1.5.1 2.8 1.7 4.3.8.7 1.6.9 2.3 1-3.2 5.9.1 10.9 2.5 13.3-3.5.7-7 2.1-10.4 4.4-.1-2.6-.8-11.9-7.7-17.5 2.4-1.3 5.9-4.4 7.4-11.5 0-.2.1-.4.1-.6-.6 0-1-.4-1.4-.8-.3-.4-.4-.9-.5-1.4-.1-.9.1-2 .4-2.7h.1c.2-.1.5-.2.8-.2-1.6-4-5.7-6.7-9.9-6-3.4.6-5.3 3.8-4.7 6.5h-.2c-.9 0-1.6.8-2.5.7.3.3.5.6.9.7l.4-.4c.6-.4 1.2-.4 1.8-.1.3.6.7 1.2 1.4 1.7.1.1.2.2.3.2.3.2.7.5 1.1.7-.3-.3-.6-.6-.8-1-1.7-2.7-1.7-6.9 2.9-7.6 6.7-1.1 8.5 7.5 8 9.7-.4 1.8-1.2 3.2-2.1 4.5 0-.6-.2-1.2-.8-1.8-1.2-1.2-3.3-1-4.5-2.2v.1c0 1.5.2 2.8 1.7 4.2.8.8 1.7 1 2.4 1-2 1.9-4.5 3.1-6.7 3.8-2.5-1.1-5.4-1.8-9-1.9-4.3-.1-7.8.7-10.6 2.1.3-.5.5-1.2.3-1.9-.4-1.6-2.3-2.6-2.6-4.3-.3.5-.5.9-.7 1.4.3.6.5 1.2.1 1.8l-.3.3c0 .3.1.7.2 1 .4 1.4 1.4 2.1 2 2.4-1 .6-1.9 1.3-2.7 2.1-1.8-2-5.2-4.9-9.6-5.8.5-.2 1.8-.8 2.1-2.3.4-1.8-1-3.6-.6-5.5-1.4.9-2.5 1.8-2.9 4.1-.3 1.9.7 3.2 1.1 3.6-.7-.1-1.5-.2-2.3-.2-2.8 0-5 .5-6.5 1.4-.7.4-1.3.8-1.8 1.3-1.5 1.5-2.1 3.3-2.4 4.9-.3-.4-.7-.8-1.4-.9-1.5-.3-2.9.9-4.4.5.7 1.1 1.5 2 3.3 2.3 1.1.2 1.9-.2 2.4-.5v.7c.3 3.2 3.9 3.8 3.9 3.8s-2.2-1.1-2.6-3.5c-.3-1.6.4-4.7 2.9-6.6.1 0 .1-.1.2-.1 1.3-.9 3.1-1.5 5.5-1.5 2.3 0 4.3.9 6 2l.2.2c2.2 1.6 3.8 3.8 4.5 5.1-2.3 3.9-2.8 8.5-1.8 12.4-.4 0-.9.1-1.3.4-1.4.9-1.7 3-3.2 3.9 1.5.4 2.8.5 4.6-.7.4-.3.7-.6.9-.9.5 1.1 1.2 2.1 2.1 2.9 9.6 9.3 24 2.3 21.6-8.2.4.3 1 .6 1.6.6.8 0 1.6-.4 2.3-.8v-.3c0-.6.1-1.2.4-1.6.2 0 .3-.1.5-.1-.7-.4-1.5-.6-2.7-.5-1.3.1-2.2.8-2.6 1.3-2.2-5.9-6.5-6.2-9.4-5-1.9.3-3.1 1.7-2.9 2.7.9-.9 2.9-1.7 5-1.5 1.8.2 3.6 1.2 4.6 3.8 3.7 9.5-7.9 13.6-15.2 8.5-5-3.5-6-14.2.8-19.5-.1-.5.2-.9.6-1.2.3-.2.7-.4 1.1-.4.4-.1.8-.1 1.2 0 2.1-.9 4.7-1.4 7.9-1.4 16.5.3 17.4 16.1 16.9 23.7-.5.5-1 1-1.5 1.6-7.2 8.5-9.6 20.5-8.6 32.8-2.2-1.6-6.6-4.2-12.2-5.5 2.3-3.5 5.5-10.6.4-17.4-3.4-4.5-8.1-5.6-12-4.5-1 .3-2 .7-2.8 1.3-.1-.3-.2-.8-.4-1.4-1-2.7-3.5-7.5-9.4-7.5-2.4 0-4.2.8-5.5 1.9-1.5-.1-6-.7-8.2-4.2-1.5-2.4.1-4.5 2.1-4.9-1.4-.5-3.1.4-3.8 2-.4 1-.4 2.3.4 3.6 2.6 4.5 7.9 5.5 7.9 5.5l.2-.2c-1.4 2.4-1.3 5.5.5 7.4 3.5 3.8 8.6 1.6 9.2-1.7.1-.5.1-1.1-.1-1.7 0-.1 0-.2-.1-.3-1.4-3.9-4.8-2.4-5.1-1.3v.2c.8-.7 3.1-1.2 3.9 1.1 1.5 4-3.4 5.6-6.3 3.5-2.8-2-2.4-9.6 5-9.5 4.8.1 6.2 4.4 6.6 7.7.1 1.2.1 2.3.1 3-.4.7-.6 1.4-.8 2.2-1.4 8.8 8.8 12.8 12.3 7.3 1.2-1.9 1.3-3.5.9-4.6-.8-2.2-3.5-3-4.2-2.2 1.1.2 3.2 1.6 2.9 3.8-.1.5-.2 1.1-.6 1.7-3.3 5.3-9.5 1.1-9.6-4.3-.1-4.1 5.8-8.9 11.5-6.1 1.2.6 2.4 1.6 3.6 3 .1.2.2.3.4.5 4.6 6.2-.3 12.1-4.1 15.3-5.2-.2-11 .9-17 4.9-1 .7-1.9 1.4-2.8 2 0 0-4-8.6-12-6.5-7.1 1.8-7.6 9.8-3.4 12.4.1 0 .1.1.2.1-.2.1-.5.2-.7.4-.6.7-.4 1.7-1 2.4.8 0 1.5-.2 2.1-1.1.4-.5.4-1 .4-1.3 4.8 2 9.2-2.9 6.8-6.4 0-.1-.1-.1-.1-.2-1.7-2.3-3.6-1.8-4.5-.8-.2.1-.3.3-.4.5-.2.3-.3.6-.2.9.5-.8 2.7-2 4.1 0 .3.4.4.7.5 1 1.1 3-2.7 5.1-5.8 3.9-3.2-1.2-4.8-8.7 2.4-10.4 5.7-1.4 8.1 4.4 8.9 7.6-2.7 2.9-4 6-4.5 9-2.8.1-9.3 1-13.3 6.1-4.5 5.8-3 10.2-.8 12.7.7.7 1.4 1.3 2 1.7 2.8 1.7 5.4-.8 5.4-.8s-2.2 1.1-4.4 0c-.8-.4-1.9-1.5-2.7-2.9-1.1-2.2-1.4-5.4 1.3-8.9 3.5-4.5 9.7-4.4 12.3-4.2.2 2.4.8 4.6 1.8 6.6-.3-.1-.7-.1-1 0-1.7.3-2.7 2.1-4.4 2.4 1.2.9 2.4 1.5 4.5 1.1 1-.2 1.7-.8 2.1-1.3 1.7 2.8 3.7 4.8 5.2 5.6 5.4 2.9 18.4.9 16.7-9.8-.1-.8-.3-1.6-.6-2.4.3 1.7.2 3.2-.2 4.6-.6 2-1.9 3.5-3.5 4.7 0-.5 0-1.1-.4-1.7-.9-1.4-3-1.6-3.9-3.1-.3 1.5-.4 2.8.8 4.5.5.7 1.2 1.1 1.8 1.3-3.2 1.4-7.1 1.3-10.3-.8-1.8-1.2-8.3-8.5-5-17 .3.4.7.7 1.2.9 1.6.5 3.4-.6 5 .1-.6-1.4-1.4-2.5-3.4-3.1-.7-.2-1.2-.2-1.7-.1 1.4-2.4 3.6-4.8 6.9-7.1 4-2.8 8.1-3.8 12.1-3.6-.9 1.3-.8 3.2-1.9 4.4 1.5 0 2.8-.3 4.2-1.9.6-.7.8-1.5.9-2.1 8.3 1.6 15.6 7.4 18.9 10.5.8 4.1 2 8.2 3.5 12.1 4.3 11.1 4.1 20.5 3.3 26-4.6-.2-9.5-.2-14.6-.2-23.9 0-43.2 1.9-43.2 4.2 0 2.3 19.4 4.2 43.2 4.2 23.9 0 43.2-1.9 43.2-4.2 0-1.1-4.6-2.2-11.9-2.9-1.4-2.5-3.1-6-4.7-10.7-1.6-4.7-3.5-10.3-5.2-15.1 2.9.9 10.6 2.4 15.6-5.6.2-.3.4-.6.6-1 .3.5.7 1.1 1.6 1.4 1.6.5 3.4-.6 5 .1-.6-1.4-1.4-2.5-3.4-3.1-1-.3-1.9-.1-2.5.1 2-5.5-.9-10.4-4.7-12.3.1-.9.5-4.3 3.2-5.6 3.2-1.5 5 .8 5.3 1.9.3 1.1-.4 2-.4 2s1.5-.9 1-2.4-2.4-4-6.5-2.1c-.3.1-.6.3-.8.5.1-.3.1-.8-.2-1.2-.5-.7-1.6-.8-2.1-1.5-.1.8-.1 1.5.6 2.3.4.5 1 .7 1.3.7-1.9 1.5-2.7 3.7-2.9 4.7-1.1-.2-2.3-.2-3.4.2-1.3.4-2.3 1.1-3.1 1.8 0-.5-.2-1.1-.7-1.5-1.1-1-2.9-.9-3.9-2 0 1.3.1 2.5 1.5 3.7.7.7 1.5.8 2.1.9-2.4 3.2-1.8 7.5 1.1 9.3.5.3 1.1.6 1.8.7 5.7 1.1 5.9-4.5 4.5-5.1.3 1.3-.6 4.3-3.8 3.8-1-.2-1.8-.6-2.4-1.1-2.4-2.2-.9-6.9 2.5-8.7 4.2-2.2 12.5 3.9 7.3 12.1-5 7.9-13 3.2-16.1.9-.9-2.7-1.5-4.4-1.5-4.4s-5.9-15-4.8-27.9c1.1 1.6 3.3 3.8 7.3 5-.7 1-2.8 4.4-.4 7.5.1.2.3.3.4.5.2-.2.4-.4.6-.5-.1-.1-.3-.3-.4-.5-2-2.6.3-5.2 1.8-6.4 1 .2 2.1.4 3.3.4 4.8.3 8.6-2.7 10-6.4-.3.5-.8.8-1.5 1h-.1v.1c-.2.7-.6 1.3-1.2 1.5-.4.1-.8 0-1.1-.2-1.1.8-2.2 1.3-3.3 1.6.3-.4.9-1.2.7-2.2-.3-1.4-1.9-2.3-2.2-3.8-.7 1.1-1.2 2.1-.8 3.9.4 1.4 1.4 2 1.9 2.2-.8.2-1.5.3-1.9.3-6.9-.5-10.4-7.2-11.8-10.6.4-1.3 1-2.6 1.7-3.8 4.6-7.7 15.5-15.6 26.8-12.8.4 1.9.9 5.6-1.3 8.5-1.7 2.3-4.2 1.5-5.3-.2 0 2.4 3.8 4.3 6.4 1.2l.2-.2c.1.3.2.6.5.9 0-.5.2-1 .6-1.5l.1-.1v-.1c-.3-.7-.3-1.5 0-2 .2-.3.4-.4.7-.5.7-2.2.7-4.3.6-5.2.8.3 1.5.6 2.3 1 10.6 5.6 14.9 18.3 9.8 24.6 0-.5-.1-1.3-.7-1.9-1.1-1-2.9-.9-3.9-2 0 1.3.1 2.5 1.5 3.7.9.8 1.9.9 2.5.9-1.1 1.1-2.4 1.9-4.1 2.4-13.3 4-13.7-5.6-12-9.5-3.7 1.8-2.9 12.2 6.2 12.7-.3.3-.5.7-.6 1.2-.3 1.6.9 3.1.7 4.7.2-.1.3-.3.6-.4.1-.1.3-.1.5-.2.7-.7 1.2-1.5 1.4-3 .1-1-.2-1.9-.5-2.4 1.1-.1 2.3-.4 3.7-.8 10.5-3.2 10.9-13 7-21.3 0-.1-.1-.1-.1-.2-1.6-2.4-3.1-4.7-4.9-6.6zM89.6 70.8c.1-.4.5-.5.8-.6.3 0 .5.1.7.2.4.2.9.6 1.1.9-.1.4-.3.9-.6 1.2-.2.2-.4.4-.6.4-.3.1-.8.1-1-.2-.2-.3-.2-.6-.1-1-.3-.2-.4-.6-.3-.9z"/><path fill="#402312" d="M97.4 81.7c.1.1.3.2.4.4.1 0 .2-.1.3-.1-.6-.1-1.7-.9-1-2.1 1.2-2.1 3.7-.5 3.8 1.6.1 1.1-1 2.4-2.4 2.7v.6c-.1.1-.2.1-.2.2 1.7-.2 3.2-1.4 3.4-2.9.5-3.4-3.6-4.9-4.9-2.7-.5.9-.5 1.6-.2 2 .2 0 .5.1.8.3zM110.1 69.9c.5-1.7.6-3.4.1-5.1-.1-.3-.2-.7-.4-.9-1.2-2.4-3.8-3.5-6.1-3l-.9.3c0-.5-.1-1.2-.7-1.8-1.1-1-2.9-.9-3.9-2 0 1.3.1 2.5 1.5 3.7.6.6 1.3.8 1.9.8-.7.6-1.2 1.5-1.5 2.6 1-1.3 2.7-2.3 4.4-2.5 1.4-.1 2.8.4 3.8 1.8.3.4.5.9.7 1.5.3 1 .4 1.9.3 2.7.1.1.2.1.3.2.2.5.6 1.1.5 1.7z"/><path fill="#EE2E36" d="M107.1 72.9c.6-.2 1-.8 1.2-1.5v-.1h.1c.7-.2 1.2-.5 1.5-1l.1-.1V70c.1-.6-.2-1.2-.7-1.6-.1-.1-.2-.1-.3-.2-.3-.2-.7-.3-1.1-.4-.9-.2-2-.1-2.7.2h-.1c-.3.7-.5 1.8-.4 2.7.1.5.2 1 .5 1.4.2.2.4.5.7.6.5.2.8.3 1.2.2zM83.1 55.1c.9.3 2.2.2 3.3-.1.6-.2 1.1-.4 1.6-.8.6-.6 1.1-1.5.6-2.3-.4-.7-1.1-1-2.1-1.2h-.1v-.1c-.4-.9-.9-1.5-1.7-1.7-.9-.2-1.6.4-2.1 1.2-.3.5-.4 1.1-.4 1.7 0 1.1.3 2.4.9 3.3-.1-.1-.1-.1 0 0-.1 0 0 0 0 0zM85 42.2c-.1 0-.1 0 0 0-.2.4-.4 1.1-.4 1.6v.3c0 .2.1.4.2.5.2.4.6.7 1 .6.4-.1.6-.4.8-.9.5-.1.9-.3 1-.6.2-.4 0-.8-.3-1.1-.2-.2-.5-.3-.8-.4-.4-.1-.8-.1-1.1-.1-.1 0-.3 0-.4.1zM97.7 34.7c-.2.5-.4 1.1.1 1.5.3.3.9.4 1.4.3h.1c.4.5.8.7 1.3.7.6 0 .9-.6 1-1.1.1-.4 0-.7-.1-1.1-.2-.7-.6-1.5-1.1-1.9v-.2c-.6 0-1.4.4-1.9.8-.4.3-.7.7-.8 1zM110.1 49c-.5-.1-1.1-.1-1.6.1-.3.1-.5.2-.7.4-.3.3-.5.7-.3 1.1.2.3.6.5 1 .5.2.4.5.7.8.8.4.1.8-.2 1-.6.1-.2.2-.5.2-.8 0-.5-.1-1.1-.4-1.5zM118.1 54c-.3.5-.3 1.3 0 2v.1l-.1.1c-.4.5-.6 1-.6 1.5v.4c.2.8 1 1 1.7 1 .4 0 .7-.1 1.1-.3.1-.1.2-.1.4-.2.3-.2.7-.4 1-.7.4-.4.8-.8 1-1.2v-.1c-.2-.8-.7-1.7-1.4-2.4-.4-.4-.8-.7-1.3-.8-.4-.1-.9-.1-1.2 0-.2.2-.5.3-.6.6zM125.9 68.7c-.3-.1-.6 0-.9 0-.6.1-1.4.5-1.7.8h-.3c0 .5.4 1.1.7 1.6.2.3.5.5.7.7.4.2.9.3 1.3 0 .3-.3.4-.7.3-1.2.4-.3.6-.7.6-1.1.2-.4-.3-.7-.7-.8zM89.9 71.8c-.1.4-.1.8 0 1 .2.3.6.3 1 .2.2-.1.4-.2.6-.4.3-.3.6-.9.6-1.2-.2-.3-.6-.7-1.1-.9-.2-.1-.5-.2-.7-.2-.4 0-.7.2-.8.6 0 .2.1.6.4.9zM80.1 67.7s.1 0 0 0c.1 0 .1 0 0 0 .6-.7 1-1.8 1.1-2.8.1-.5 0-1.1-.2-1.6-.3-.7-.9-1.4-1.7-1.2-.7.1-1.2.6-1.6 1.3v.1h-.1c-.8 0-1.6.3-1.9.8-.5.7-.2 1.5.3 2.1.3.4.8.7 1.3.9.8.4 2 .5 2.8.4zM94.7 83.6c-.2.2-.3.4-.3.7-.1.6.4 1 1 1.2.4.1.8.1 1.1.1.6-.1 1.2-.3 1.7-.6.1-.1.2-.1.2-.2v-.6c0-.5-.2-1-.4-1.5-.1-.2-.2-.4-.3-.5-.1-.1-.2-.3-.4-.4-.3-.2-.6-.3-.9-.3-.2 0-.6 0-.8.2-.3.1-.6.7-.6 1.3v.1h.2c-.2.1-.3.3-.5.5zM48.8 77.4c.1 0 .1 0 0 0 .8-.1 1.7-.5 2.3-1.1.3-.3.7-.6.8-1.1.2-.6.3-1.3-.3-1.8-.5-.3-1.1-.4-1.8-.1h-.2c-.5-.5-1.1-.8-1.7-.6-.7.1-1 .8-1 1.5 0 .4.1.9.3 1.3.4.7 1 1.5 1.6 1.9zM52.2 42.7h.1c.8-.4 1.8-1.4 2.3-2.4.3-.5.5-1.1.5-1.7 0-.9-.3-1.8-1.2-2.1-.7-.2-1.5.1-2.3.6l-.1.1h-.1c-.9-.4-1.7-.4-2.4 0-.8.5-.8 1.4-.6 2.3.1.6.5 1.1.9 1.5.8.8 2 1.5 2.9 1.7zM40.9 58c-.3.1-.5.2-.7.4-.4.4-.7.9-.9 1.3.2.4.6.9 1.1 1.1.2.1.5.3.8.3.4 0 .9-.1 1-.5.1-.3 0-.7-.3-1.1.1-.3.2-.5.1-.8v-.2c0-.1 0-.1-.1-.2-.2-.3-.6-.4-1-.3zM64.9 30.7c-.4.1-.8.2-1.1.4-.4.3-.7.7-.6 1.2v.2c.2.4.6.7 1.2.9h.1v.1c.2.6.5 1 .9 1.2.6.2 1.1-.2 1.4-.6.2-.3.3-.7.4-1.1.1-.7 0-1.6-.3-2.1-.3-.1-.6-.2-.9-.2-.3-.1-.7-.1-1.1 0zM60.9 24c-.1-.1-.2-.2-.2-.4-.3-.4-.8-.7-1.3-.9-.9-.4-2.2-.5-3-.4h-.1c-.5.7-.9 1.8-1 2.8-.1.5 0 1.1.2 1.6.3.7.9 1.4 1.8 1.3.7-.1 1.3-.6 1.7-1.4v-.1h.1c.7 0 1.3-.2 1.7-.5l.3-.3c.3-.5.2-1.1-.2-1.7zM94 14.4c-.3.7-.5 1.8-.4 2.7.1.5.2 1 .5 1.4.3.5.8.8 1.4.8h.4c.6-.2 1-.8 1.2-1.5v-.1h.1c.8-.2 1.3-.6 1.6-1.1.3-.7-.1-1.4-.7-1.8-.4-.3-.9-.5-1.3-.6-.6-.1-1.2-.1-1.8 0-.4 0-.7.1-1 .2.1 0 0 0 0 0zM93.3 29.3c-.4-.1-1.1-.1-1.6.1-.3.1-.5.2-.7.4-.3.3-.5.7-.3 1.1.2.3.6.5 1 .5.2.4.5.7.8.8.4.1.8-.2 1-.6.1-.2.2-.5.2-.8 0-.4-.2-1.1-.4-1.5 0 .1 0 .1 0 0zM103.2 26.4c.4.1.8 0 1.2-.3.5.2.9.2 1.2 0 .4-.3.4-.7.3-1.2-.1-.3-.3-.6-.5-.8-.4-.4-1-.8-1.5-.9-.4.2-.9.7-1.2 1.2-.1.3-.3.6-.3.9.2.5.3 1 .8 1.1z"/></svg>