<svg xmlns:xlink="http://www.w3.org/1999/xlink"  xmlns="http://www.w3.org/2000/svg" viewBox="0 0 150 150"><path fill="none" d="M61.4 92.8c-.2-.4-.4-.8-.8-1.2.2.3.3.5.4.7.1.3.3 1 .5 1.8h.3c-.2-.7-.3-1.1-.4-1.3zM71.7 91.5c.3.6.5 1.2.7 1.8h.1c-.2-.6-.4-1.2-.8-1.8zM95.9 91.5c.2.9.4 1.9.6 2.8-.1-1-.3-1.9-.6-2.8zM53.5 66.8c.1 1.8.3 3.5.4 5.4h.4l-.8-5.4zM45.7 93.1c.4.8.8 2.2 1.5 2.5-.7-.8-.9-2.3-1.5-2.5zM99.6 71.7v-.2.2zM96.1 39.2c0-.3.1-.7.1-1 .2-1.1-.2-2-.2-2.7l.1 3.7c-.1 0-.1 0 0 0zM47.9 86.1c1.1-1.5 2.6-3 4.6-2.5 2 .4 3 2.5 5.1 2.7 2.5.3 2.8-1.2 4.6-2.5 2-1.5 4.1-1.2 6.1.2 1.5 1.1 2.9 2 4.8 1.1 1.8-.8 2.6-2.9 4.7-3.3 2.2-.4 3.5 1.8 5.3 2.7 1.8.9 3.1.6 4.1-1.1.7-1.2 1.7-2.1 3.2-1.7 1.5.3 2.5 1.8 4 2.2 1.9.6 2.8-.4 3.9-1.8 1-1.3 2.3-2.5 4-2.3 1.6.2 2.3 1.4 3.5 2.4 1.2 1 2.9 1.3 4.1.2 1.2-1.2 1.9-2.1 3.6-2.8h.1c0-2.2-1.2-3.4-3.8-3.7-6.9-.7-13.9-1.6-20.8-1.7-3.8-.1-7.6-.1-11.5-.1-11.2 0-22.4.4-33.5 2.7-.9.2-1.7.6-2.7 1 1.5 3.4 2.3 6.8 2.8 10.2.1.1.3.1.4.2 1.6.4 2.5-1 3.4-2.1zM52.2 90.8c.7 1 1.3 2.8 1.8 4.3h.3c-.7-1.8-1.4-3.6-2.1-4.3z"/><path fill="#FDDED6" d="M96.6 49.4l-.1-1c-.1.3-.1.7-.2 1h.3zM94.6 41.5h-.4c-.9 0-1.6-.6-2.2-1-.6-.5-1.2-.9-1.6-.9-.2 0-.4 0-.6.1-.3.1-.5.5-.9.8-.3.3-.7.7-1.3.9-.2.1-.5.1-.7.1-.8 0-1.4-.4-2-.9-.6-.6-1.1-1-1.7-1-.2 0-.4 0-.7.1-.4.1-.8.4-1.2.8-.4.3-.9.7-1.6.8-.2 0-.5.1-.7.1-.8 0-1.5-.4-2.1-1-.6-.5-1.3-.8-2-.9-.3 0-.7 0-1 .2-.4.2-.7.5-1.1.8-.4.3-.9.7-1.6.8-.3 0-.5.1-.7 0-1 0-1.8-.6-2.5-1.2-.4-.3-.9-.5-1.4-.5-.5 0-1 .1-1.5.4-.3.2-.6.5-.8 1-.3.4-.6.9-1.3 1-.2.1-.5.1-.7.1-.7 0-1.2-.3-1.7-.6s-.9-.7-1.2-1c.2 2.7.3 5.5.3 8.2 1.9-.3 3.9-.6 5.8-.6 9.9 0 19.8.4 29.7 1.1.2-3 .2-5.8.5-8.6-.1.5-.5.8-1.1.9z"/><path fill="#FDDED6" d="M61.3 40.9c.4.3.8.5 1.2.5h.5c.3-.1.5-.3.8-.7.3-.4.6-.9 1.1-1.2.6-.4 1.3-.5 1.9-.5.6 0 1.3.3 1.8.7.8.6 1.3 1 2.1 1h.6c.5-.1.8-.3 1.1-.6.4-.3.7-.7 1.3-1 .5-.2.9-.3 1.4-.2 1 0 1.8.5 2.5 1.1.6.5 1 .7 1.6.8h.5c.4-.1.8-.3 1.2-.7.4-.3.9-.7 1.5-.9.3-.1.6-.1.9-.1.9 0 1.6.6 2.2 1.2.4.4.9.6 1.5.7h.5c.3-.1.5-.3.8-.6.3-.3.6-.7 1.1-1 .3-.2.7-.2 1-.2.8 0 1.5.6 2.1 1 .6.5 1.2.9 1.7.9h.2c.3 0 .6-.3.9-.6.2-.2.6-.5.6-.8v-3.8c-1-1.5-2-2.1-3.9-2.3-5.2-.4-10.4-.8-15.6-.7-4.9.1-9.8.9-14.7 1.3-2.6.2-2.9 1.4-2.6 3.8.1.7.2 1.3.2 2l.6.3c.5-.1.9.3 1.4.6z"/><path fill="#F58F91" d="M125.1 96.2c9 2.5 14.4 5.6 14.4 9.1 0 7.9-28.5 14.4-63.8 14.4-35.2 0-63.8-6.4-63.8-14.4 0-3 4-5.7 10.8-8-10.1 2.7-16.2 6.2-16.2 10 0 8.6 31.1 15.6 69.5 15.6s69.5-7 69.5-15.6c.3-4.4-7.6-8.3-20.4-11.1z"/><path fill="#FDDED6" d="M93.5 54.7c1 .2 2.1-.5 2.7-1.7l.6-1.1c-1.8-.1-3.6-.3-5.5-.5l.3 1.4c.3.9 1 1.7 1.9 1.9z"/><path fill="#FDDED6" d="M99 55.1c.7.1 1.4-.2 1.9-.8-.4-1.6-1.8-2.3-4.2-2.5L97 53c.4 1.1 1.1 1.9 2 2.1zM55.8 54.2l.6-1.3.4 1.1c.5 1.2 1.1 1.9 2 2 1.2.2 2.4-.7 3-2.2l.4-1.3.5 1.3c.5 1 1.1 1.6 1.9 1.7 1.2.2 2.4-.8 2.9-2.3l.5-1.5.5 1.5c.3 1 1 1.6 1.8 1.7 1.2.2 2.3-.8 3-2.3l.5-1.2c.1.1.4 1.2.4 1.2.3 1.1 1 1.9 1.9 2.1 1.2.2 2.4-.8 3.1-2.4l.4-1.2c.1.3.5 1.1.5 1.1.6 1.2 1.1 1.8 1.9 1.9 1.2.2 2.2-.5 3-2.1l.5-1.2c0 .2.4 1.1.4 1.1.4 1.3 1.1 2.1 2 2.2 1 .2 2-.5 2.6-1.7l.6-1.3c-2.9-.3-5.9-.6-8.8-.5-7.5.3-15 .8-22.5 1.4h-.4c-.9.1-1.7.2-2.5.3.8-.1 1.7-.2 2.5-.3h.4c-2.1.2-4.1.3-6.2.5-.6 0-1.2.4-1.4.5.1 1.1.2 2.1.3 3.2.1 0 .2.1.3.1 1.3.2 2.2-.6 3-2.1zm.9-1.7zm-1 .1c-.2 0-.4 0-.5.1.2 0 .4 0 .5-.1z"/><path fill="none" d="M55.2 52.7c.2 0 .4 0 .5-.1"/><path fill="#603A17" d="M56.7 52.5zM56.3 54.2c.3 1.3 1.2 2.3 2.4 2.5 1.5.2 3-1 3.5-2.8.4 1.2 1.2 2.1 2.3 2.3 1.5.2 2.9-.9 3.5-2.7.4 1.1 1.2 1.9 2.2 2.1 1.5.2 3-1 3.5-2.8.3 1.3 1.2 2.3 2.3 2.5 1.5.2 3-1 3.6-2.9.3 1.3 1.2 2.2 2.3 2.4 1.5.2 2.9-.9 3.5-2.7.3 1.4 1.2 2.6 2.4 2.8 1.3.2 2.5-.7 3.2-2 .3 1.3 1.2 2.3 2.3 2.4 1.3.2 2.5-.7 3.2-2 .3 1.3 1.2 2.3 2.3 2.4.8.1 1.5-.2 2.1-.7 0-.2-.1-.4-.1-.6-.6.6-1.3.9-1.9.8-.9-.1-1.6-.9-1.9-2l-.3-1.2h-.1l-.6 1.1c-.6 1.2-1.6 1.9-2.7 1.7-.9-.1-1.6-.9-1.9-2l-.3-1.4-.6 1.3c-.6 1.2-1.6 1.9-2.6 1.7-1-.2-1.7-.9-2-2.2 0 0-.3-1-.4-1.1l-.5 1c-.8 1.6-1.8 2.3-3 2.1-.9-.1-1.4-.7-1.9-1.9 0 0-.3-.8-.5-1.1l-.4 1.2c-.6 1.6-1.8 2.6-3.1 2.4-.9-.1-1.6-.9-1.9-2.1 0 0-.3-1.1-.4-1.2l-.5 1.2c-.7 1.5-1.8 2.5-3 2.3-.8-.1-1.5-.8-1.8-1.7l-.5-1.5-.5 1.5c-.5 1.5-1.7 2.5-2.9 2.3-.8-.1-1.4-.7-1.9-1.7l-.5-1.3-.4 1.3c-.6 1.5-1.8 2.4-3 2.2-.9-.1-1.5-.8-2-2l-.4-1.1-.6 1.3c-.8 1.5-1.7 2.3-2.9 2.1-.1 0-.2-.1-.3-.1 0 .2 0 .4.1.6h.1c1.5.2 2.9-.9 3.5-2.7zM60 52.2h-.4.4zM59.6 52.2c-.9.1-1.7.2-2.5.3.7-.1 1.6-.2 2.5-.3z"/><path fill="#F58F91" d="M98.4 39.4v-.5c0 .1-.1.3-.1.4 0 0 0 .1.1.1zM62.4 42.2c.2 0 .4 0 .7-.1.6-.2 1-.6 1.3-1 .3-.4.5-.8.8-1 .5-.3 1-.4 1.5-.4s.9.2 1.4.5c.8.6 1.5 1.1 2.5 1.2h.7c.7-.1 1.2-.5 1.6-.8.4-.4.7-.7 1.1-.8.3-.1.7-.2 1-.2.7 0 1.5.4 2 .9.6.5 1.3.9 2.1 1 .2 0 .5 0 .7-.1.7-.1 1.1-.5 1.6-.8.4-.3.8-.6 1.2-.8.3-.1.5-.1.7-.1.6 0 1.1.4 1.7 1 .5.5 1.2.8 2 .9.2 0 .5 0 .7-.1.6-.1 1-.5 1.3-.9.3-.4.6-.7.9-.8.2-.1.4-.1.6-.1.5 0 1 .4 1.6.9.6.5 1.3 1 2.2 1h.4c.6-.1.9-.4 1.2-.7 0-.5.1-1 .2-1.6 0 0 0 .1-.1.1-.2.3-.4.6-.6.8-.3.4-.5.6-.9.6h-.2c-.5 0-1.1-.4-1.7-.9-.6-.5-1.3-1-2.1-1-.3 0-.7.1-1 .2-.5.3-.8.7-1.1 1-.3.3-.5.6-.8.6-.2 0-.3.1-.5 0-.5 0-1-.3-1.5-.7-.6-.6-1.3-1.1-2.2-1.2-.3 0-.6 0-.9.1-.6.2-1.1.6-1.5.9-.4.3-.8.6-1.2.7h-.5c-.6 0-1.1-.3-1.6-.8-.7-.6-1.6-1-2.5-1.1-.5 0-.9.1-1.4.2-.6.3-1 .7-1.3 1-.4.3-.7.6-1.1.6h-.6c-.8 0-1.3-.4-2.1-1-.6-.4-1.2-.7-1.8-.7-.7 0-1.3.2-1.9.5-.5.3-.8.8-1.1 1.2-.3.4-.5.6-.8.7h-.5c-.4 0-.8-.2-1.2-.5-.4-.3-.8-.7-1.2-1l-.6-.3c0 .3.1.7.1 1 .4.3.8.7 1.2 1 .3.6.9.9 1.5.9z"/><circle fill="#FDDED6" cx="63" cy="66" r="2.2"/><circle fill="#FDDED6" cx="71.1" cy="59.9" r="2.2"/><circle fill="#FDDED6" cx="56" cy="60.4" r="2.2"/><circle fill="#FDDED6" cx="89.4" cy="65.6" r="2.2"/><circle fill="#FDDED6" cx="77" cy="67.4" r="2.2"/><circle fill="#FDDED6" cx="83.4" cy="58.1" r="2.2"/><circle fill="#FDDED6" cx="97.9" cy="58.5" r="2.2"/><path fill="#FFF" d="M42.3 89.1c-.1-.6-.2-1.1-.4-1.6l.2-.1c-.1-.5-.1-1-.1-1.5 0 0-.1.1 0 .1-.5-2.2-1.3-4.3-2.4-6.2-1.8-3.1-.5-4.4 2.1-5.1 4-1 8.1-1.9 12.2-2.4v-.1c-4.4.5-8.8 1.5-13.1 2.5-2.6.6-4 2-2.1 5.1 1.4 2.3 2.2 5 2.6 7.7.5 3.5.9 7 1.3 10.6l.9-.3c-.4-3-.8-5.9-1.2-8.7zM109.8 75.8c2.6.3 3.7 1.5 3.8 3.7 0-2.2-1.2-3.4-3.8-3.7-6.8-.7-13.6-1.6-20.5-1.7-3.9-.1-7.9-.1-11.8-.1 3.8 0 7.6.1 11.5.1 7 .1 13.9 1 20.8 1.7zM55.1 72.1c8.9-.8 17.9-1.5 26.8-1.4-9.2 0-18.4.6-27.6 1.4h-.4v.1c.4 0 .8 0 1.2-.1z"/><path fill="#F58F91" d="M53.9 72.3c0-.1 0-.1 0 0-.2-1.9-.3-3.7-.4-5.4-.3-3.3-.5-6.6-.8-9.9 0-.2 0-.4-.1-.6-.1-1.1-.2-2.1-.3-3.2.2-.1.8-.4 1.4-.5 2.1-.1 4.1-.3 6.2-.5 7.5-.6 15-1.1 22.5-1.4 2.9-.1 5.8.2 8.8.5 1.8.2 3.6.4 5.5.5h.1c2.3.2 3.7.9 4.2 2.5.1.2.1.4.1.6.1.7 0 1.5-.2 2.4-.9 4.6-.9 9.4-1.3 14.2v.2h.1c1.5-5 2.6-9.9 3.3-15 .8-5.1 0-6.9-5.1-7.3-.4 0-.9-.1-1.3-.1h-.3v.1c0 .2-.4.3-1 .7v-.9c-9.9-.7-19.8-1.1-29.7-1.1-1.9 0-3.9.2-5.8.6v1.7c-.1-.6-.3-1.1-.4-1.7-2.4.4-4.7 1-7.1 1.6-1.3.3-3.4 2.4-3.2 3.3 1.2 6 2.9 11.9 4.6 18.4v.1l.2.2z"/><path fill="#C12026" d="M59.9 50.5v-1.7c0-2.7-.1-5.5-.3-8.2 0-.3-.1-.7-.1-1-.1-.7-.1-1.3-.2-2-.3-2.4-.1-3.6 2.6-3.8 4.9-.4 9.8-1.2 14.7-1.3 5.2-.1 10.4.3 15.6.7 2 .1 3.4.8 3.9 2.3.3.7.4 1.6.2 2.7-.1.3-.1.7-.1 1-.1.5-.1 1-.2 1.6-.3 2.8-.3 5.6-.5 8.6v.9c.6-.4 1-.5 1-.7v-.1c.1-.3.1-.7.2-1 .6-3 1.2-6 1.7-9 0-.1.1-.3.1-.4v-.3c1-5.5 0-7.5-5.7-8-8.2-.7-16.4-.8-24.6-.7-3.2 0-6.4 1.1-9.5 2.2-1.1.4-2.5 2.2-2.3 3.1.9 4.6 2.1 9.1 3.2 13.6 0 .4.1 1 .3 1.5z"/><path fill="#F58F91" d="M96.5 94.2c.1.8.2 1.5.3 1.9.1.4.3 1 .5 1.6-.2-.5-.3-.9-.4-1.2 0-.5-.2-1.3-.4-2.3zM72.6 93.3h-.1c.2.8.4 1.6.6 2.2.5 2 1 4.5 2.5 6-1.3-1.5-1.8-3.7-2.2-5.6-.3-.7-.5-1.6-.8-2.6z"/><path fill="#F58F91" d="M36.4 103.1c0 5.4 18.8 9.8 42 9.8s42-4.4 42-9.8c0-2.2-3-4.2-8.2-5.8-.2 1.2-.4 2.3-.7 3.5-.2 0-.4-.1-.6-.1.1-.9.2-1.8.3-2.6-.3.8-.7 1.6-1.1 2.4 0 .1-3.9 7.1-32.4 7.1-25.6 0-31.9-6.5-33-7.9v.5c-.3-.3-.7-.6-1.2-.8-.1-.6-.1-1.1-.2-1.7l-.9.3c-3.8 1.5-6 3.2-6 5.1z"/><path fill="#F58F91" d="M54.2 95h-.3c.4 1.3.7 2.4 1 2.8.4.8.8 1.2 1.1 1.4-.2-.2-.4-.6-.7-1-.2-.4-.6-1.7-1.1-3.2zM61.5 94.1c.5 2.1 1.2 5.4 2.3 6-1-1.1-1.6-4.2-2.1-6.1 0 .1-.1.1-.2.1z"/><path fill="#FDDED6" d="M114.1 87.5c.1-.1.3-.1.4-.2h.1c.1-.3.1-.7.2-1v-.1c.5-2.5.8-5 1.1-7.3h-.4c-.1 1-.3 2.3-.6 3.8-.2 1.6-.5 3.2-.8 4.8zM42 86c-.1 0 0-.1 0-.1 0 .5 0 1.1.1 1.6l-.1.1.3 1.5v.1c-.1-.6-.1-1.1-.1-1.7-.1-.6-.1-1.1-.2-1.5zM106.1 88.2c2.7.2 1.2 6.9 4 5.9 1.3-.5 1.6-2 2.1-3.4.4-3.1.8-6.3 1.4-9.4.1-.6.1-1.2.1-1.7h-.1c-1.6.7-2.3 1.7-3.6 2.8-1.2 1.2-2.9.8-4.1-.2-1.1-1-1.9-2.2-3.5-2.4-1.7-.2-3 1.1-4 2.3-1.1 1.4-2.1 2.3-3.9 1.8-1.4-.4-2.5-1.9-4-2.2-1.5-.3-2.5.5-3.2 1.7-1 1.7-2.3 2-4.1 1.1-1.8-.9-3.1-3.1-5.3-2.7-2 .4-2.9 2.5-4.7 3.3-1.9.8-3.3-.1-4.8-1.1-1.9-1.4-4.1-1.7-6.1-.2-1.7 1.3-2.1 2.8-4.6 2.5-2.1-.2-3.1-2.3-5.1-2.7-2.1-.5-3.5 1-4.6 2.5-.8 1.1-1.7 2.5-3.3 1.9-.1-.1-.3-.1-.4-.2.3 2.3.5 4.6.5 6.9 0-.6.1-1 .5-1.4.2-.2.3-.2.5-.2.6.1.9 1.7 1.5 2.5.2.3.5.5.8.5 2.5.1 1.4-5 3.3-5.7.3-.1.6 0 .9.3.8.7 1.5 2.6 2 4.3.5 1.4.9 2.8 1.1 3.2.2.5.5.8.7 1 1.5 1.7 1.7-2.6 1.8-4.2.1-1.1-.2-3.3.9-4.1.8-.5 1.5-.1 2 .5.3.4.6.9.8 1.2.1.2.2.7.4 1.3.4 1.8 1.1 4.9 2.1 6.1.5.5 1 .6 1.6-.1 1.4-1.6 2.1-11.3 5-9.8.5.3.9.7 1.3 1.3.3.5.6 1.2.8 1.8.3.9.6 1.9.7 2.6.5 1.8 1 4.1 2.2 5.6.2.3.5.5.8.7 2.2 1.5 2.8-1.2 3.2-3 .5-2.7 1.1-5.2 2.4-7.6.6-1.1 1.1-2.7 2.3-1.6 1.3 1.2 1.8 4 3.6 4.7 2.5.9 2.9-6.6 6-6.5 1 0 1.7 1.5 2.2 3.2.3.9.5 1.9.6 2.8.2 1 .3 1.8.5 2.3.1.3.2.8.4 1.2.4 1.3 1.1 2.7 2.2 2.8 1.6.1 2.2-2.8 2.5-3.9.2-1.9.4-8.6 3.7-8.3zM44.7 95.6v2.6c.2-.8.1-1.7 0-2.6z"/><path fill="#C12026" d="M99.6 71.7v-.2c.4-4.7.4-9.5 1.3-14.2.2-1 .2-1.8.2-2.4-.6.5-1.4.8-2.1.7-1.1-.2-2-1.2-2.3-2.4-.7 1.4-1.9 2.2-3.2 2-1.1-.2-2-1.2-2.3-2.4-.7 1.4-1.9 2.2-3.2 2-1.2-.2-2.1-1.3-2.4-2.8-.6 1.8-2 2.9-3.5 2.7-1.1-.2-2-1.1-2.3-2.4-.5 1.9-2 3.2-3.6 2.9-1.1-.2-2-1.2-2.3-2.5-.6 1.8-2 3-3.5 2.8-1-.2-1.8-1-2.2-2.1-.6 1.8-2 2.9-3.5 2.7-1.1-.2-1.9-1.1-2.3-2.3-.6 1.8-2 3-3.5 2.8-1.2-.2-2-1.2-2.4-2.5-.6 1.8-2 2.9-3.5 2.7h-.1c.3 3.3.5 6.6.8 9.9l.9 5.3c9.2-.9 18.4-1.5 27.6-1.4-8.9 0-17.9.6-26.8 1.4-.4 0-.8.1-1.2.1h-.1c-4.1.5-8.2 1.5-12.2 2.4-2.6.6-3.9 2-2.1 5.1 1.1 1.9 1.8 4 2.3 6.2l.3 1.5c.1.6.1 1.1.2 1.7.4 2.8.7 5.6 1 8.5.1.6.1 1.1.2 1.7.4.2.8.5 1.2.8v-.5c1.1 1.4 7.4 7.9 33 7.9 28.5 0 32.4-7 32.4-7.1.4-.8.7-1.6 1.1-2.4-.1.9-.2 1.8-.3 2.6.2 0 .4.1.6.1.2-1.2.4-2.3.7-3.5.3-1.3.5-2.6.8-3.9.6-2 1.2-4 1.6-6-.2 0-.3.1-.4.2l.9-4.8c.3-1.5.5-2.8.6-3.8.2-3.5-1.3-4.5-6.4-5.6-3.6-.6-6.7-1.1-10-1.5zM56 62.6c-1.2 0-2.2-1-2.2-2.2 0-1.2 1-2.2 2.2-2.2 1.2 0 2.2 1 2.2 2.2 0 1.2-1 2.2-2.2 2.2zm7 5.6c-1.2 0-2.2-1-2.2-2.2 0-1.2 1-2.2 2.2-2.2 1.2 0 2.2 1 2.2 2.2 0 1.3-1 2.2-2.2 2.2zm8.1-6.1c-1.2 0-2.2-1-2.2-2.2 0-1.2 1-2.2 2.2-2.2 1.2 0 2.2 1 2.2 2.2 0 1.2-1 2.2-2.2 2.2zm5.9 7.5c-1.2 0-2.2-1-2.2-2.2 0-1.2 1-2.2 2.2-2.2 1.2 0 2.2 1 2.2 2.2 0 1.2-1 2.2-2.2 2.2zm20.9-13.3c1.2 0 2.2 1 2.2 2.2 0 1.2-1 2.2-2.2 2.2-1.2 0-2.2-1-2.2-2.2 0-1.2 1-2.2 2.2-2.2zm-8.5 7.1c1.2 0 2.2 1 2.2 2.2 0 1.2-1 2.2-2.2 2.2-1.2 0-2.2-1-2.2-2.2 0-1.2 1-2.2 2.2-2.2zm-8.2-5.3c0-1.2 1-2.2 2.2-2.2 1.2 0 2.2 1 2.2 2.2 0 1.2-1 2.2-2.2 2.2-1.3 0-2.2-1-2.2-2.2zm-36.5 40v-2.6c.1 1 .2 1.9 0 2.6zm54.9 2.5c-1.1-.1-1.8-1.6-2.2-2.8-.2-.6-.4-1.2-.5-1.6-.1-.4-.2-1.1-.4-1.9-.2-.8-.3-1.8-.6-2.8-.5-1.7-1.1-3.2-2.2-3.2-3.1-.1-3.6 7.4-6 6.5-1.8-.7-2.3-3.5-3.6-4.7-1.2-1.1-1.7.5-2.3 1.6-1.3 2.4-1.8 4.9-2.4 7.6-.4 1.7-1 4.5-3.2 3-.3-.2-.5-.4-.8-.7-1.5-1.5-2-4-2.5-6-.2-.6-.3-1.4-.6-2.2-.2-.6-.4-1.2-.7-1.8-.3-.5-.8-1-1.3-1.3-2.9-1.6-3.7 8.2-5 9.8-.6.7-1.1.6-1.6.1-1.1-.7-1.8-3.9-2.3-6-.2-.8-.4-1.5-.5-1.8-.1-.2-.2-.5-.4-.7-.5-.6-1.3-1.1-2-.5-1 .7-.8 2.9-.9 4.1-.1 1.7-.3 5.9-1.8 4.2-.3-.1-.6-.5-1.1-1.4-.2-.4-.5-1.6-1-2.8-.5-1.5-1.1-3.3-1.8-4.3-.3-.3-.6-.4-.9-.3-1.8.7-.8 5.8-3.3 5.7-.3 0-.6-.2-.8-.5-.7-.4-1.1-1.8-1.5-2.5-.1 0-.3 0-.5.2-.3.3-.5.8-.5 1.4-.1-2.3-.2-4.6-.5-6.9-.5-3.4-1.3-6.8-2.8-10.2 1-.4 1.8-.8 2.7-1 11.1-2.2 22.3-2.7 33.5-2.7 3.9 0 7.9.1 11.8.1 6.9.1 13.7 1 20.6 1.7 2.5.3 3.7 1.5 3.7 3.7 0 .5 0 1.1-.1 1.7-.5 3.1-1 6.2-1.4 9.4-.4 1.4-.8 2.9-2.1 3.4-2.8 1.1-1.3-5.6-4-5.9-3.2-.3-3.4 6.4-4 8.5 0 1-.7 3.9-2.2 3.8z"/></svg>