<svg xmlns:xlink="http://www.w3.org/1999/xlink"  xmlns="http://www.w3.org/2000/svg" width="100" height="100" viewBox="0 0 100 100"><path fill="#FFF" d="M43.543 15.205c3.711-2.572 9.097-2.141 12.399.927 3.348 2.941 4.385 8.195 2.256 12.141-2.046 4.229-7.231 6.505-11.739 5.206-3.404-.882-6.173-3.688-7.124-7.068-.857-3.314-.136-7.193 2.42-9.598 2.436 2.699 4.811 5.464 7.436 7.974.5-.061.726-.615 1.083-.91 1.566-1.793 3.363-3.38 4.848-5.242-2.187 1.243-4.007 3.191-6.28 4.188-2.26-2.054-4.45-4.188-6.645-6.316.074-.65.904-.896 1.346-1.302zm11.653 1.858c2.12 2.26 3.121 5.579 2.243 8.601-1.013 3.917-4.934 6.851-8.995 6.597-1.685.008-3.24-.678-4.696-1.44 2.711 2.432 6.948 2.809 10.09.997 2.93-1.551 4.795-4.864 4.644-8.17.015-2.574-1.321-4.989-3.286-6.585zM71.381 38.683c2.794-1.535 6.481-.73 8.627 1.534 1.606.922 3.129 2.387 3.276 4.335.115 2.104-1.501 3.777-3.191 4.778 1.678 1.005 3.27 2.629 3.224 4.726-.144 1.271.936 2.271.788 3.526-.196 1.091-.435 2.481-1.686 2.811-3.684 1.267-7.675 1.094-11.51.921-1.952-.262-4.118-.358-5.721-1.652-.042-.721-.23-1.418-.374-2.12-.213-1.136.809-1.992.828-3.092.013-1.104.35-2.161.846-3.143-1.165-1.12-2.264-2.297-3.389-3.449a70.137 70.137 0 0 1 3.344-.086c.763.611 1.268 2.001 2.411 1.813a79.927 79.927 0 0 0-.033-.488c-1.11-.911-2.35-1.887-2.669-3.376-.518-1.903.672-3.811 2.206-4.852 1.071-.652 1.785-1.788 3.023-2.186zm-2.309 2.473c-1.776 1.026-2.904 3.499-1.756 5.39.73 1.251 2.063 2.772 3.671 2.092.71-.386 1.646-.386 2.047-1.194-.488-.082-1.333-.817-.574-1.207 1.374-.024 2.784-.164 4.139.103l.214.558c-.264.18-.796.541-1.063.726 1.059.75 2.408.836 3.549 1.431 1.333-.734 2.625-1.789 3.031-3.322.561-1.924-.755-3.864-2.371-4.799-2.687-.673-5.472-.722-8.221-.431-.889.215-1.735.616-2.666.653zM18.465 43.437c2.388-.87 4.971-.775 7.469-.718 1.522.09 3.13.2 4.492.943.652.333.333 1.145.377 1.715-.28 3.002-.661 6.365-2.949 8.577-1.357 1.312-3.36 1.082-5.082.988-1.739-.255-2.863-1.739-3.667-3.162-.98-1.785-3.396-1.716-4.656-3.204-1.374-1.251-.742-3.9 1.186-4.172.619.25 1.271.489 1.952.361.123-.529.21-1.23.878-1.328zm-.43.513c-.702.91.57 1.324 1.197 1.575 3.158.894 6.575.857 9.754.082.747-.213 1.957-.677 1.443-1.71-1.538 1.666-4.007 1.514-6.078 1.628-2.149-.095-4.663.044-6.316-1.575zm-3.696 2.978c.513 1.698 2.404 2.075 3.925 2.296-.32-1.374-.365-3.494-2.149-3.769-1.029-.373-1.579.66-1.776 1.473zM48.596 60.774a7.405 7.405 0 0 1 .566-2.456c.841.569.641 1.682.816 2.542.857-.426 1.21-1.69 2.276-1.649a12.78 12.78 0 0 1-.878 2.563c.907-.339 1.842-.627 2.814-.63-.436.841-1.337 1.279-1.809 2.082.799.092 1.591.239 2.374.46-.118 1.247-2.043.319-2.289 1.218.633.566 1.325 1.084 1.765 1.829-1.021.131-1.944-.377-2.871-.713.308.907 1.001 1.816.672 2.81-.869-.402-1.197-1.521-2.149-1.739.016 2.034.013 4.064 0 6.1 3.425.058 6.85-.004 10.279.029-.845 1.177-1.751 2.309-2.543 3.522-5.459.07-10.931.049-16.39.013-.808-1.145-1.694-2.228-2.556-3.331l.107-.246c3.282.013 6.559-.009 9.84.017.016-.435.032-.87.057-1.305-.915.176-1.858.259-2.78.103-.644-.377-1.289-.819-1.71-1.442-.226-1.059 1.213-1.019 1.907-.994 1.017-.122 1.723.649 2.596 1.005-.032-1.206-.041-2.411-.086-3.617-.755.541-1.206 1.501-2.146 1.769.103-.937.345-1.842.678-2.711-.879.319-1.731.901-2.708.732.385-.901 1.259-1.419 1.953-2.059-.944-.147-1.965-.151-2.741-.8.845-.46 1.793-.595 2.732-.713-.697-.633-1.608-1.129-1.928-2.071.964-.07 1.833.418 2.715.734-.361-.869-.631-1.773-.685-2.711.933.249 1.269 1.291 2.122 1.659zm-.812 3.101c.312.582.628 1.452 1.448 1.407 1.354.159 1.985-1.973.697-2.539-.902-.648-1.8.358-2.145 1.132zM41.402 77.484c5.329-.147 10.672-.122 16.005-.013-.694 2.65-1.116 5.361-1.69 8.04-4.221.004-8.438-.021-12.658.007-.586-2.668-1.005-5.38-1.657-8.034z"/><path fill="#F16922" d="M44.753 7.666c1.944-.681 4.023-.513 6.045-.497 6.32.518 12.125 5.008 14.143 11.038 1.148 3.807 1.284 8.122-.483 11.764-.805 1.886-1.907 3.663-3.368 5.119-3.962 3.954-7.916 7.92-11.882 11.87-3.868-3.495-7.383-7.371-11.141-10.988-2.437-2.272-4.303-5.164-5.095-8.425-.959-3.481-.504-7.198.801-10.532 1.973-4.587 6.148-8.115 10.98-9.349zm-1.21 7.539c-.443.406-1.272.652-1.346 1.301 2.194 2.128 4.384 4.262 6.645 6.316 2.273-.996 4.093-2.944 6.28-4.188-1.484 1.862-3.281 3.449-4.848 5.242-.357.295-.583.849-1.083.91-2.625-2.51-5-5.275-7.436-7.974-2.556 2.404-3.277 6.284-2.42 9.598.951 3.38 3.72 6.186 7.124 7.068 4.508 1.3 9.693-.977 11.739-5.206 2.129-3.945 1.092-9.2-2.256-12.141-3.301-3.067-8.687-3.498-12.399-.926z"/><path fill="#F16922" d="M55.196 17.063c1.965 1.596 3.301 4.012 3.285 6.583.151 3.306-1.714 6.62-4.644 8.17-3.142 1.813-7.379 1.436-10.09-.997 1.456.763 3.011 1.448 4.696 1.44 4.062.254 7.982-2.679 8.995-6.597.879-3.021-.122-6.339-2.242-8.599z"/><path fill="#5F4637" d="M65.146 78.559c.144.406.283.809.435 1.215-.164.509-.348 1.01-.528 1.513-.045.131-.145.398-.193.533-.861 1.174-1.402 2.539-2.26 3.712-2.298 3.385-6.055 5.559-9.976 6.502-2.021.209-4.073.151-6.103.065-4.635-.718-8.753-3.617-11.247-7.559 1.058.655 1.562 1.874 2.498 2.67 3.081 2.838 7.214 4.696 11.452 4.574 4.417.125 8.793-1.777 11.866-4.92 1.944-2.03 3.175-4.588 4.222-7.165l-.166-1.14z"/><path fill="#1E9A48" d="M14.409 35.406c6.165-3.889 15.012-3.232 20.258 1.939 2.539 2.515 5 5.111 7.613 7.543 1.62 1.419 3.01 3.064 4.634 4.475l-.209.258a8.278 8.278 0 0 1-1.009 1.162c-.176.14-.524.422-.701.563-3.77 3.321-7.101 7.127-10.783 10.548-5.328 4.587-13.613 5.304-19.585 1.56-3.667-2.142-6.153-5.832-7.494-9.795-.845-2.649-.559-5.484-.038-8.17.874-4.181 3.705-7.852 7.314-10.083zm4.056 8.031c-.668.098-.755.799-.878 1.329-.681.127-1.333-.111-1.952-.361-1.928.271-2.56 2.92-1.186 4.172 1.259 1.488 3.675 1.419 4.656 3.204.804 1.423 1.928 2.907 3.667 3.162 1.722.094 3.725.323 5.082-.988 2.289-2.212 2.669-5.575 2.949-8.577-.045-.57.274-1.382-.377-1.715-1.362-.743-2.97-.853-4.492-.943-2.497-.058-5.081-.153-7.469.717z"/><g><path fill="#C43127" d="M70.917 33.568c5.628-1.485 12.022.181 16.096 4.389a16.868 16.868 0 0 1 4.442 7.793c1.727 7.051-1.943 14.749-8.229 18.228-6.186 3.593-14.639 2.494-19.667-2.596-3.208-3.236-6.465-6.423-9.651-9.681-.554-.517-.993-1.271-1.813-1.362-.471-.065-.405-.627-.459-.964 1.965-1.578 3.589-3.54 5.451-5.237a172.525 172.525 0 0 0 3.576-3.582c2.818-3.071 6.034-6.09 10.254-6.988zm.464 5.115c-1.238.398-1.952 1.534-3.022 2.187-1.534 1.041-2.724 2.948-2.206 4.852.319 1.489 1.559 2.465 2.669 3.376l.033.488c-1.144.188-1.648-1.202-2.411-1.813-1.12 0-2.231.033-3.344.086 1.125 1.152 2.224 2.329 3.389 3.449-.496.981-.833 2.039-.846 3.143-.02 1.1-1.041 1.956-.828 3.092.144.702.332 1.399.374 2.12 1.603 1.294 3.769 1.391 5.721 1.652 3.835.173 7.826.346 11.51-.921 1.251-.329 1.489-1.72 1.686-2.811.147-1.256-.932-2.256-.788-3.526.046-2.097-1.546-3.721-3.224-4.726 1.69-1 3.307-2.674 3.191-4.778-.147-1.949-1.67-3.413-3.276-4.335-2.147-2.265-5.834-3.07-8.628-1.535z"/><path fill="#C43127" d="M69.072 41.156c.931-.037 1.776-.438 2.665-.652 2.749-.291 5.534-.242 8.221.431 1.616.935 2.932 2.875 2.371 4.799-.406 1.533-1.698 2.588-3.031 3.322-1.141-.595-2.49-.681-3.549-1.431.268-.185.8-.546 1.063-.726l-.214-.558c-1.354-.267-2.765-.127-4.139-.103-.759.39.086 1.125.574 1.207-.401.808-1.337.808-2.047 1.194-1.607.68-2.94-.841-3.671-2.092-1.147-1.892-.019-4.365 1.757-5.391z"/></g><g fill="#199748"><path d="M18.035 43.95c1.653 1.62 4.167 1.48 6.317 1.575 2.07-.115 4.54.037 6.078-1.628.513 1.034-.697 1.498-1.443 1.71-3.179.775-6.596.812-9.754-.082-.628-.251-1.9-.665-1.198-1.575zM14.339 46.928c.197-.813.747-1.846 1.776-1.473 1.784.275 1.829 2.396 2.149 3.769-1.521-.221-3.412-.599-3.925-2.296z"/></g><g><path fill="#5F4637" d="M48.974 52.21c.144-.017.431-.045.579-.062 2.969 2.801 5.792 5.768 8.704 8.635 1.883 1.922 3.986 3.699 5.361 6.049 1.103 1.893 1.98 3.958 2.309 6.142.197 2.26.378 4.613-.345 6.8-.151-.406-.291-.809-.435-1.215l.165 1.141c-1.047 2.577-2.277 5.135-4.222 7.165-3.072 3.143-7.448 5.045-11.866 4.92-4.237.122-8.371-1.736-11.452-4.574-.936-.796-1.44-2.015-2.498-2.67-1.723-1.851-2.072-4.488-2.506-6.874l-.181.454c-.246-2.01-.041-4.027.25-6.017.689-3.203 2.338-6.227 4.726-8.487 3.794-3.805 7.609-7.604 11.411-11.407zm-.378 8.564c-.854-.368-1.189-1.41-2.121-1.66.054.938.324 1.842.685 2.711-.882-.316-1.751-.805-2.715-.734.32.942 1.23 1.438 1.928 2.071-.939.118-1.887.253-2.732.713.775.648 1.797.652 2.741.8-.693.64-1.567 1.157-1.953 2.059.976.169 1.829-.413 2.708-.732a10.908 10.908 0 0 0-.678 2.711c.94-.268 1.391-1.228 2.146-1.769.045 1.206.054 2.411.086 3.617-.873-.355-1.579-1.127-2.596-1.005-.694-.024-2.133-.064-1.907.994.422.623 1.066 1.065 1.71 1.442-1.838 1.452-4.356.39-6.501.726-.62-.099-.644.616-.85 1.001l.127-.295c.862 1.104 1.748 2.187 2.556 3.331 5.459.036 10.931.058 16.39-.013.792-1.214 1.698-2.346 2.543-3.522-3.429-.033-6.854.028-10.279-.029.013-2.035.016-4.065 0-6.1.952.218 1.28 1.337 2.149 1.739.329-.993-.364-1.902-.672-2.81.927.336 1.85.844 2.871.713-.439-.745-1.132-1.263-1.765-1.829.246-.898 2.171.029 2.289-1.218a15.054 15.054 0 0 0-2.374-.46c.472-.803 1.373-1.241 1.809-2.082-.973.003-1.907.291-2.814.63.386-.818.673-1.682.878-2.563-1.066-.041-1.419 1.224-2.276 1.649-.176-.86.024-1.973-.816-2.542a7.393 7.393 0 0 0-.567 2.456zm-7.194 16.71c.652 2.653 1.071 5.365 1.657 8.034 4.22-.028 8.437-.003 12.658-.007.574-2.679.996-5.39 1.69-8.04-5.333-.109-10.677-.134-16.005.013z"/></g><g><path fill="#5D4637" d="M47.784 63.875c.345-.774 1.243-1.78 2.145-1.132 1.289.566.657 2.698-.697 2.539-.82.045-1.136-.825-1.448-1.407z"/></g><g><path fill="#4A2D1C" d="M45.898 71.992c.922.156 1.866.073 2.78-.103-.024.435-.041.87-.057 1.305-3.282-.025-6.559-.004-9.84-.017l-.107.246-.127.295c.206-.385.23-1.1.85-1.001 2.145-.335 4.663.727 6.501-.725z"/></g></svg>