<svg xmlns:xlink="http://www.w3.org/1999/xlink"  xmlns="http://www.w3.org/2000/svg" viewBox="0 0 1500 1500"><path fill="#655B58" d="M1311.8 850.6c-94.5-3.3-159.7 164.5-202.1 223.2-42.4 58.7-88 47.2-88 47.2H533.6s-45.7 11.5-88-47.2c-42.4-58.7-107.6-227.3-202.1-224.1C149 853 119.6 961 191.3 1068.5c45.7 68.6 124.5 129.3 190.8 165.1l-45.2 93.4c-20-2.1-39.3 10.3-44.9 30.3-3.1 10.8-1.8 22.2 3.7 32s14.4 16.9 25.3 20c10.8 3.1 22.2 1.8 32-3.7s16.9-14.4 20-25.3c1.1-3.8 1.6-7.7 1.6-11.5 0-7.1-1.8-14.1-5.4-20.4-.7-1.3-1.7-2.4-2.5-3.6 22.1-29.7 47.9-66 63.7-88.3 17.6 6.7 32.9 10.8 44.5 11.4 50.6 2.8 249.3-1.6 302.8-2.9 53.5 1.3 252.1 5.8 302.8 2.9 13.3-.7 31.5-6 52.4-14.7 14.9 22 40.1 58.8 61.9 89.3-8.1 10.1-11.6 23.7-8.1 37.1 2.9 10.9 9.8 20 19.5 25.6 9.7 5.7 21 7.2 31.9 4.3 10.9-2.9 18.5-9.8 24.1-19.5 5.7-9.7 10.8-21 2.8-31.9 0-19.3-21.4-31.8-40.5-31.2l-44.2-97.4c64.6-36.2 139.4-94.7 183.3-160.5 71.7-107.5 42.8-215.1-51.8-218.4z"/><path fill="#B54B64" d="M427.4 690.5c13.4 8.1 31.3 25.7 48.4 67.9 33 81.5 43 155.6 43 155.6h518.6s9.9-74.1 42.9-155.6c12.2-30 24.8-47.6 35.8-58.4 21.4-10.5 78.6-27.7 137.8 44.4 0 0-32.7-85.3-133.3-84.1l9.4-367.2s-3-110.8-106.7-146.7c-92.9-32.1-220-32.8-245.4-32.6-25.3-.2-152.5.5-245.4 32.7C429 182.4 426 293.2 426 293.2l9.3 362.4c-100.5-1.1-133.2 84.2-133.2 84.2 50-60.9 98.5-58 125.3-49.3z"/></svg>