<svg xmlns:xlink="http://www.w3.org/1999/xlink"  xmlns="http://www.w3.org/2000/svg" viewBox="0 0 1500 1500"><path fill="#236A95" d="M985.9 1430.1c-.5.2-1 .3-1.5.5 18.8 4.6 37.7 9.2 56.6 13.9 25.2 6.5 50.9-21.7 57.5-62.8 29.2-188.4 58.4-376.8 87.6-565.3-65.8 38.8-187 67.7-332.3 77l132.1 536.7zM1227.2 77.6C909.8 144.4 593.7 215.5 279 290.9c-41.6 10.1-70.2 41.8-63.9 70.8 23.7 111.7 47.3 223.4 71 335 26.6-61 226.4-108.3 469.1-108.3 213.8 0 394.4 36.8 452.5 87.2 27.9-179.8 55.7-359.6 83.6-539.4 6.6-41.3-22.2-67.5-64.1-58.6zM402.4 1245.2c6.3 29 32.1 57.1 57.6 62.9 32.4 7.1 64.8 14.5 97.2 21.8l50.5-437.4s-214-28.4-297.1-80.5l91.8 433.2z"/><path fill="#B3C9F0" d="M1234.7 729.3c-.9-6.1-3.4-12.1-7.3-18 0 1.7-.2 3.4-.5 5.2-2.5 13.5-13.5 26.3-31.4 38.3-68.5 45.6-239.7 78-440.2 78-224.8 0-412.9-40.7-460.5-95.1-5.8-6.6-9.5-13.4-11-20.3-2.8 5.8-4.4 11.8-4.4 17.8 0 14.4 8.3 28.3 23.6 41.2 62.4 53.2 242.2 91.6 454.3 91.6 191.2 0 356.1-31.2 432.5-76.3 29.1-17.2 45.4-36.3 45.4-56.6 0-2-.2-3.9-.5-5.8zM701.8 900.6l-65.4-6.1-53.1 441.2v.4s4.1 20.4 126.7 32.7l-.1-4-8.1-464.2z"/></svg>