<svg xmlns:xlink="http://www.w3.org/1999/xlink"  xmlns="http://www.w3.org/2000/svg" viewBox="0 0 1500 1500"><path fill="none" d="M290.4 1035.3c5.1 1.7 10.3 2.9 15.5 3.9-4.5-1.2-9-2.5-13.4-4.1-.7.1-1.4.2-2.1.2zM748.4 1210.4c.1 8.5.9 16.3 2.8 23 6.7 24.3 18.7 25.3 25.7.5 1.9-6.5 2.8-14.2 3-22.5-.4-21-5.8-46.2-15.8-71.4-9.8 24.8-15.2 49.5-15.7 70.4zM728.3 975.8c-1.2-.8-2.5-1.4-3.7-2.2 7.7 5.3 13.9 11 18.7 17.2-4.3-6.1-9.4-11.2-15-15zM247.8 1007.9c3.9 4.5 8.3 8.3 12.9 11.8.6 0 1.2-.1 1.9-.1-4.7-3.5-9.1-7.4-13.2-11.7h-1.6zM128 954.1c-.8-1.2-1.5-2.5-2.2-3.8 7.8 15.5 21.8 28 35.3 35.4 8.9 4.8 18.8 8.2 29.3 10.6-25.7-7.1-47.9-20.2-62.4-42.2zM784.9 990.8c4.9-6.1 11-11.8 18.6-17.1-1.2.8-2.5 1.4-3.7 2.2-5.4 3.7-10.5 8.8-14.9 14.9zM1337.8 996.3c10.5-2.4 20.4-5.8 29.3-10.6 13.6-7.4 27.6-20 35.4-35.6-.8 1.3-1.5 2.7-2.4 3.9-14.4 22.1-36.6 35.2-62.3 42.3zM1265.6 1019.6c.6 0 1.3.1 1.9.1 4.6-3.5 8.9-7.3 12.8-11.8h-1.5c-4 4.3-8.4 8.2-13.2 11.7zM1222.4 1039.3c5.2-1 10.4-2.3 15.5-3.9-.7 0-1.4-.1-2.1-.1-4.4 1.4-8.9 2.8-13.4 4z"/><path fill="#7B6248" d="M1408.8 905.8c-9.1-35-53.7-49-83.7-32.5-8.5 4.7-16.3 11.1-22.7 20.8-7.1 10.7-13.5 20.4-31.2 17.2 4.7 2.6 9.5 3.7 14.5 3.6-3.9 1.4-8.5 1.9-14.5.8 21.7 12.3 47.6-8.9 71.3-20.4 23.6-11.5 49.4-14 64.5 16.8 1 3.6 1.5 7.2 1.7 10.8-1 25.8-21.6 47.6-41.4 58.3-64.2 34.8-175 .6-240.8-17-69.2-18.5-134.4-45.4-207.9-47.8-52.7-1.6-114.2 10-137.7 48.4 6-8.6 15.7-16.1 28.3-22.1-11.8 6.9-21.6 15.6-28.3 26.5 20.6-29.9 85.4-46.1 163.7-34.6 59.3 8.7 119.6 33.2 182.7 49.1 30.2 7.6 90.9 23.6 149.2 24-4.4 4.4-9.1 8.2-14.2 11.5-20.8-1.1-42.1-3.7-62.7-7.2-59.4-10.2-119.6-27-177.7-44.3-41-12.2-81-21.9-123.5-23.3-26.9-.9-49.9 2.4-71.9 12.2-40.4 18-54.2 41.9-57.5 71.6-.3 3-.4 6.1-.3 9.1-.6 14.9 4.1 30.7 12.8 45.8-6.2 8.9-12 18.3-17 27.9-5.1-9.7-10.8-19-17.1-28 8.7-15.1 13.4-30.8 12.8-45.8.1-3.1.1-6.1-.3-9.1-3.3-29.7-17.2-53.6-57.5-71.6-21.9-9.8-45-13-71.8-12.2-42.6 1.3-82.7 11-123.6 23.3-58 17.4-118.3 34.2-177.8 44.3-20.6 3.5-41.9 6.1-62.7 7.2-5.1-3.3-9.9-7.1-14.3-11.5 58.3-.4 119.1-16.4 149.3-24 63-15.9 123.3-40.4 182.6-49.1 78.3-11.5 143.2 4.7 163.7 34.6-6.7-10.9-16.5-19.7-28.3-26.6 12.6 6 22.4 13.5 28.3 22.1-23.5-38.4-85-50-137.7-48.4-73.5 2.4-138.8 29.3-207.9 47.8-65.9 17.5-176.7 51.7-240.9 17-19.9-10.8-40.5-32.6-41.5-58.4.2-3.5.7-7.1 1.6-10.7 15.1-30.8 40.9-28.4 64.5-16.8 23.6 11.4 49.5 32.7 71.2 20.4-6 1.1-10.6.7-14.5-.8 5 0 9.8-1 14.5-3.6-17.7 3.3-24-6.4-31.2-17.2-6.4-9.8-14.3-16.1-22.8-20.8-29.9-16.5-74.6-2.5-83.7 32.5-1.5 5.5-2.1 10.9-1.9 16.3-.7 12.8 3.3 25.2 10.5 36.4 24.2 36.7 69.4 48.7 117.3 49.4 3.6 4.4 7.7 8.3 12 11.9-47.5 1.5-91.2-5.5-116.1-29.3 8.9 9.7 19.8 17.3 32 23.2-12.4-4.6-23.4-10.6-32-18.8 31.3 34.3 86.6 42.6 141.4 40.8 26.4 11.8 57.8 14.9 86.9 14.9 49.2-.2 123.3-22.5 193.8-41 60.5-11.4 114.7-21.5 175.9 27.4-.4-1.9-.9-3.7-1.3-5.5.5.3.9.6 1.3 1-7.8-39.7-40-52.7-81.3-52.5-33.2.1-66.6 7.8-98.9 15.3-19.6 4.5-41.3 10-65.5 16.6-59.9 16.4-129.2 31.3-179.7 24.5-3.5-.5-7-1.1-10.4-1.8 7.5-.6 14.9-1.2 22.2-2 65.7-7.5 128.3-25.1 191.9-44.9 36.8-11.6 74.5-20.8 112.5-24.8 35.4-3.7 70.9-1.3 98.3 17.6 15.8 10.8 28.3 32.4 28.9 56.6-.4 13.5-4.6 27.7-13.9 41.2-38-51.6-94.3-86.5-153.1-65.6 9.2-1.6 19.1-2.2 28.7-1.4-9.5.6-19.1 2.4-28.7 5.8 32.1-5.5 74.2.4 75.6 38.5-.1 2.1-.2 4.3-.5 6.6-3.6 25.3-43.8 51-92.3 31 9.4 5.6 19.5 9.3 29.5 11.3-9.3-.6-19.2-2.6-29.5-6.9 30.1 18 67 15.6 88.4 5.5 18.8-8.9 26.1-23.2 25.2-37.8.7-12.6-5-25.7-15.4-35.9 25.7 13.1 47.4 34 64.5 58.3-10 11-23.8 21.2-42.5 29.9-18 8.3-36 13.1-55.4 14.5-35.3 2.4-71.4-5.2-98.1-29.9-6.4-7.4-9.6-15.5-10.1-23.3.9-13.3 9.8-25.5 25.6-32.2 22.1-9.3 57.3-.4 66.6 18.9 3.5-2.2 4.9-6.4 4.3-11.1 1.6-9-6.5-22.7-24.9-26.9-20.4-4.6-45.9 3.2-61.8 17.7-8.7 8-12.7 18.4-13.4 31.5-.1 1.4 1.9 2.8 1.9 4.3v.1c-10 33.8 24.6 58.2 48.8 66.7 67.2 23.7 132.4-9.5 164.4-53.7 6.6 10 11.8 20.5 16.8 31-13 28.4-20.8 58.1-21.1 84.6v2.4c0 .7-.1 1.4-.1 2-.1 9.2.6 18 2.3 26.3 12 56.3 37.5 57.3 50 1 2-8.6 2.7-17.9 2.6-27.6 0-.7-.1-1.3-.1-2 0-.8.1-1.6.1-2.4-.3-26.4-7.9-56-20.8-84.3 5-10.6 10.7-21 17.3-31 31.9 44.2 98.1 77.5 165.4 53.7 24.1-8.5 52.4-32.9 50.7-66.6v-.2c0-1.4.1-2.8 0-4.2-.6-13.1-6.5-23.5-15.3-31.5-15.8-14.5-41.5-22.3-61.8-17.7-18.4 4.2-26.6 17.8-25 26.9-.7 4.7.7 8.9 4.3 11.1 9.2-19.3 44.4-28.3 66.5-18.9 15.8 6.7 24.7 18.9 25.6 32.2-.5 7.9-3.8 16-10.2 23.4-26.6 24.7-62.8 32.4-98 29.9-19.3-1.4-37.4-6.2-55.3-14.5-18.7-8.7-32.5-18.9-42.5-29.9 17.1-24.2 38.8-45.2 64.5-58.3-10.4 10.2-16.1 23.3-15.4 35.8-.9 14.6 6.5 28.9 25.3 37.8 21.3 10.1 58.3 12.5 88.3-5.5-10.2 4.2-19.9 6.2-29.1 6.8 9.9-2 19.9-5.6 29.1-11.2-30.6 12.6-58 6.9-74.9-5.3-10.6-7.7-16.7-18.3-17.7-29.8.1-5.8 1.4-11.6 4.2-17.5 11.8-24.5 45.6-29.9 71.2-23.6-10.6-3.8-21.2-5.7-31.6-6 10.6-1.5 21.7-.8 31.6 1.6-58.8-20.9-115 14.1-153 65.7-9.4-13.5-13.6-27.8-13.9-41.4.7-24.2 13.2-45.7 28.9-56.4 27.5-18.8 62.9-21.2 98.3-17.6 38.1 3.9 75.7 13.2 112.6 24.8 63.5 19.9 126.2 37.4 191.9 44.9 7.3.8 14.7 1.5 22.2 2-3.5.7-6.9 1.4-10.4 1.8-50.5 6.8-119.7-8.1-179.7-24.5-24.2-6.6-45.9-12.1-65.5-16.6-32.2-7.5-65.7-15.1-98.9-15.3-41.3-.1-73.5 12.8-81.3 52.5.4-.3.9-.6 1.3-1-.5 1.8-1 3.6-1.3 5.5 61.1-48.9 115.3-38.8 175.9-27.4 70.6 18.5 144.6 40.8 193.9 41 28.9.1 60.4-3.1 86.8-14.9 54.9 1.8 110.1-6.5 141.4-40.8-8.9 8.5-20.2 14.8-33.3 19.4 12.7-6 24-13.7 33.3-23.8-24.9 23.8-68.7 30.8-116.1 29.3 4.3-3.6 8.4-7.5 12.1-11.9 47.8-.7 93-12.7 117.2-49.4 7.3-11.1 11.2-23.6 10.6-36.4-.1-5.3-.6-10.8-2.2-16.2zM161.1 985.7c-13.6-7.4-27.6-19.9-35.3-35.4.7 1.3 1.4 2.5 2.2 3.8 14.5 22 36.7 35.1 62.4 42.2-10.5-2.4-20.4-5.8-29.3-10.6zm99.6 34c-4.6-3.5-9-7.3-12.9-11.8h1.5c4.1 4.3 8.5 8.2 13.2 11.7-.6 0-1.2.1-1.8.1zm45.1 19.5c-5.2-1-10.4-2.3-15.5-3.9.7 0 1.4-.1 2.1-.1 4.4 1.5 8.9 2.9 13.4 4zm418.8-65.6c1.2.8 2.5 1.4 3.7 2.2 5.5 3.8 10.7 8.9 15 15-4.8-6.1-11-11.8-18.7-17.2zm60.3 17.2c4.3-6 9.4-11.1 14.9-14.9 1.2-.8 2.5-1.4 3.7-2.2-7.6 5.3-13.7 11-18.6 17.1zm437.5 48.5c4.5-1.2 9-2.5 13.4-4.1.7 0 1.4.1 2.1.1-5.1 1.7-10.3 2.9-15.5 4zm45.2-19.6c-.6 0-1.3-.1-1.9-.1 4.7-3.5 9.1-7.4 13.2-11.7h1.5c-3.9 4.5-8.3 8.3-12.8 11.8zm99.5-34c-8.9 4.8-18.8 8.2-29.3 10.6 25.7-7.1 47.8-20.2 62.3-42.2.9-1.3 1.6-2.6 2.4-3.9-7.8 15.5-21.8 28.1-35.4 35.5z"/><path fill="#7B6248" d="M738.1 1118.7c1.1-2.6 2.2-5.2 3.5-7.7-26.1 26.9-56.8 41.7-94.1 48.5-53.5 9.7-134.3-12.2-137.2-79.9.5-19.7 13.3-41 41.4-51.4-10.9 2.9-19.8 7.4-26.9 13 6.6-7 15.4-13.1 26.9-17.4-30.4 8-45.6 28.3-49 50.5-.6 4.2-.8 8.3-.6 12.4-.3 13.4 3.6 26.6 10.5 38.3 27.2 46.1 89.5 57.4 139 48.3 13.6-2.4 26.5-6.7 38.1-12.6-5.6 8-9 16.3-8.3 24.7-.2 2.8-.1 5.7.7 8.6 37.5-3.5 43.6-45.6 59.5-78.7-1.2 1.3-2.4 2.3-3.5 3.4zM976.6 1023.9c11.6 4.2 20.4 10.4 27 17.4-7.2-5.6-16.1-10.1-27-13 28.2 10.4 40.9 31.7 41.4 51.4-2.8 67.7-83.7 89.6-137.2 79.9-37.3-6.8-68-21.6-94.1-48.5 1.2 2.5 2.4 5.1 3.5 7.7-1.2-1.1-2.3-2.1-3.5-3.3 16 33.1 22.1 75.2 59.5 78.7.7-2.9.9-5.8.7-8.6.7-8.4-2.7-16.6-8.2-24.6 11.6 5.9 24.6 10.2 38.1 12.6 49.5 9 111.9-2.3 139-48.3 6.9-11.7 10.9-24.9 10.6-38.4.2-4.1 0-8.2-.6-12.4-3.6-22.3-18.8-42.6-49.2-50.6z"/><g fill="#7B6248"><path d="M790 363.8c-1.1 2.6-2.3 5.2-3.5 7.7 26.1-26.9 56.8-41.7 94.1-48.5 53.5-9.7 134.4 12.2 137.2 79.9-.5 19.7-13.3 41-41.4 51.4 10.9-2.9 19.8-7.4 26.9-12.9-6.6 7-15.5 13.1-26.9 17.4 30.4-8 45.6-28.3 49-50.5.7-4.2.8-8.3.7-12.4.3-13.4-3.7-26.6-10.5-38.3-27.2-46-89.5-57.4-139-48.3-13.6 2.4-26.5 6.7-38.1 12.6 5.6-8 9-16.3 8.3-24.7.2-2.9.1-5.7-.7-8.6-37.4 3.5-43.6 45.6-59.5 78.7 1-1.3 2.2-2.3 3.4-3.5zM551.5 458.7c-11.5-4.2-20.4-10.4-27-17.4 7.2 5.6 16.1 10.1 27 13-28.2-10.4-40.9-31.7-41.4-51.4 2.8-67.7 83.7-89.6 137.2-79.9 37.3 6.8 68 21.6 94.1 48.5-1.2-2.5-2.4-5.1-3.5-7.7 1.2 1.1 2.3 2.1 3.5 3.3-16-33.1-22.1-75.2-59.5-78.7-.7 2.9-.9 5.8-.7 8.7-.7 8.3 2.7 16.6 8.2 24.6-11.6-5.9-24.6-10.2-38.1-12.6-49.5-9-111.9 2.3-139 48.3-6.9 11.7-10.9 24.9-10.6 38.4-.2 4.1 0 8.2.6 12.3 3.6 22.3 18.8 42.6 49.2 50.6z"/><path d="M1400 524.1c-24.2-36.7-69.4-48.7-117.3-49.4-3.6-4.4-7.7-8.3-12-11.9 47.5-1.5 91.2 5.5 116.1 29.3-8.9-9.7-19.8-17.3-32-23.2 12.4 4.6 23.4 10.6 32 18.8-31.3-34.3-86.5-42.6-141.4-40.8-26.4-11.8-57.8-14.9-86.9-14.9-49.2.2-123.2 22.5-193.8 41-60.5 11.4-114.8 21.5-175.9-27.4.4 1.9.9 3.7 1.3 5.5-.5-.4-.9-.6-1.3-1 7.8 39.7 40 52.7 81.3 52.5 33.2-.1 66.6-7.8 98.9-15.3 19.6-4.5 41.3-10 65.5-16.6 59.9-16.3 129.2-31.3 179.7-24.5 3.5.5 7 1.1 10.4 1.9-7.5.6-14.9 1.2-22.2 2-65.7 7.5-128.3 25.1-191.9 44.9-36.8 11.6-74.5 20.8-112.5 24.8-35.4 3.7-70.9 1.3-98.3-17.5-15.8-10.8-28.3-32.3-28.9-56.6.4-13.5 4.6-27.7 13.9-41.2 38 51.6 94.2 86.5 153 65.6-9.2 1.6-19.1 2.2-28.7 1.4 9.5-.6 19.1-2.4 28.7-5.8-32.1 5.5-74.2-.4-75.6-38.5.1-2.1.2-4.3.5-6.6 3.6-25.3 43.8-51 92.3-31-9.4-5.6-19.5-9.3-29.6-11.3 9.3.6 19.2 2.6 29.6 6.9-30.2-18-67-15.6-88.4-5.5-18.8 8.9-26.1 23.2-25.2 37.8-.7 12.6 5 25.7 15.4 35.9-25.7-13.1-47.4-34-64.5-58.2 10-11 23.8-21.2 42.5-29.9 18-8.3 36-13.1 55.4-14.5 35.3-2.4 71.4 5.2 98 29.9 6.4 7.4 9.6 15.5 10.1 23.3-.9 13.3-9.8 25.5-25.6 32.2-22.1 9.3-57.3.4-66.6-19-3.5 2.2-4.9 6.4-4.3 11.1-1.6 9 6.5 22.7 24.9 26.9 20.4 4.6 46-3.2 61.9-17.7 8.7-8 14.6-18.4 15.3-31.5.1-1.4 0-2.8 0-4.3v-.1c1.7-33.7-26.6-58.1-50.8-66.6-67.2-23.7-133.4 9.5-165.3 53.7-6.6-10-12.3-20.4-17.2-31 13-28.4 20.5-58.1 20.8-84.6 0-.8-.1-1.6-.1-2.4 0-.7.1-1.4.1-2 .1-9.2-.7-18-2.4-26.3-12-56.3-37.5-57.3-50-1-1.9 8.6-2.8 17.9-2.6 27.6 0 .6.1 1.3.1 1.9 0 .8-.1 1.6-.1 2.5.3 26.4 7.9 56 20.8 84.3-5 10.6-10.7 21-17.3 31-31.9-44.2-98.1-77.5-165.4-53.7-24.1 8.5-52.4 32.9-50.7 66.6v.1c0 1.4-.1 2.8 0 4.3.6 13.1 6.5 23.5 15.3 31.5 15.8 14.5 41.5 22.3 61.8 17.7 18.4-4.2 26.6-17.8 25-26.9.7-4.7-.7-8.9-4.3-11.1-9.2 19.3-44.4 28.3-66.5 19-15.9-6.7-24.7-18.9-25.6-32.1.5-7.9 3.8-16 10.2-23.4 26.6-24.7 62.8-32.4 98-29.9 19.2 1.4 37.4 6.2 55.3 14.5 18.7 8.7 32.5 18.9 42.5 29.9-17.1 24.2-38.8 45.2-64.5 58.2 10.4-10.2 16.1-23.2 15.4-35.8.9-14.6-6.5-28.9-25.3-37.8-21.3-10.1-58.3-12.5-88.3 5.5 10.2-4.2 20-6.2 29.2-6.8-9.9 2-19.9 5.7-29.2 11.2 30.7-12.6 58.1-6.9 74.9 5.3 10.6 7.7 16.7 18.3 17.7 29.8-.2 5.8-1.4 11.6-4.2 17.5-11.8 24.5-45.6 29.9-71.2 23.6 10.6 3.8 21.2 5.7 31.6 6-10.6 1.5-21.7.8-31.6-1.6 58.8 20.9 115-14 153-65.6 9.4 13.5 13.5 27.7 13.9 41.3-.7 24.2-13.1 45.8-28.9 56.5-27.5 18.8-62.9 21.2-98.3 17.5-38.1-3.9-75.7-13.2-112.6-24.8-63.5-19.9-126.2-37.4-191.8-44.9-7.3-.8-14.7-1.5-22.2-2 3.5-.8 6.9-1.4 10.4-1.9 50.5-6.9 119.7 8.1 179.7 24.5 24.2 6.7 45.9 12.1 65.5 16.6 32.2 7.5 65.7 15.1 98.9 15.3 41.3.1 73.5-12.8 81.3-52.5-.4.4-.9.6-1.3 1 .5-1.8 1-3.6 1.3-5.5-61.1 48.9-115.3 38.8-175.9 27.4-70.6-18.5-144.6-40.8-193.8-41-29-.1-60.4 3.1-86.8 14.9-54.9-1.8-110.1 6.5-141.4 40.8 8.9-8.5 20.2-14.8 33.2-19.4-12.7 6-24 13.7-33.2 23.8 24.9-23.8 68.7-30.8 116.1-29.3-4.3 3.6-8.4 7.5-12 11.9-47.9.7-93 12.7-117.2 49.4-7.3 11.1-11.3 23.6-10.6 36.4-.2 5.4.4 10.8 1.9 16.3 9.1 35 53.7 48.9 83.7 32.5 8.5-4.7 16.4-11 22.8-20.8 7.1-10.7 13.5-20.4 31.2-17.2-4.7-2.6-9.5-3.7-14.5-3.7 3.9-1.4 8.5-1.9 14.5-.7-21.7-12.3-47.6 8.9-71.3 20.4-23.6 11.5-49.4 14-64.5-16.9-1-3.6-1.5-7.2-1.7-10.8 1-25.8 21.6-47.6 41.4-58.3 64.3-34.8 175-.6 240.9 16.9 69.2 18.5 134.4 45.4 207.9 47.8 52.8 1.6 114.2-10 137.7-48.4-6 8.6-15.7 16.1-28.3 22.1 11.8-6.9 21.6-15.6 28.3-26.5-20.6 29.9-85.3 46.1-163.7 34.6-59.3-8.7-119.6-33.2-182.6-49.1-30.2-7.6-91-23.6-149.3-24 4.4-4.4 9.1-8.2 14.3-11.5 20.8 1.1 42.1 3.7 62.7 7.2 59.4 10.2 119.6 26.9 177.7 44.3 41 12.2 81 21.9 123.6 23.3 26.9.9 49.9-2.4 71.9-12.1 40.4-18 54.2-41.9 57.5-71.6.3-3 .4-6.1.3-9.1.5-14.9-4.1-30.7-12.9-45.8 6.2-8.9 12-18.3 17.1-28 5.1 9.7 10.8 19 17.1 28-8.7 15.1-13.4 30.9-12.8 45.8-.1 3.1-.1 6.1.3 9.1 3.3 29.7 17.1 53.6 57.5 71.6 21.9 9.8 45 13 71.8 12.1 42.6-1.3 82.7-11 123.6-23.3 58-17.4 118.3-34.2 177.8-44.3 20.6-3.5 41.9-6.1 62.7-7.2 5.1 3.3 9.9 7.1 14.2 11.5-58.3.4-119.1 16.4-149.3 24-63.1 15.9-123.3 40.4-182.7 49.1-78.4 11.5-143.2-4.7-163.7-34.6 6.7 10.9 16.5 19.6 28.3 26.5-12.6-6-22.4-13.5-28.3-22.1 23.5 38.4 85 50.1 137.7 48.4 73.5-2.4 138.8-29.3 208-47.8 65.9-17.5 176.7-51.7 240.8-16.9 19.9 10.8 40.5 32.6 41.5 58.4-.2 3.5-.7 7.1-1.6 10.7-15.2 30.8-40.9 28.4-64.5 16.9-23.6-11.4-49.5-32.7-71.2-20.4 6-1.1 10.6-.7 14.5.7-5 0-9.8 1-14.5 3.7 17.7-3.3 24 6.4 31.2 17.2 6.4 9.8 14.2 16.1 22.7 20.8 29.9 16.5 74.6 2.5 83.7-32.5 1.6-5.5 2.1-10.9 2-16.3.7-13-3.3-25.4-10.6-36.6z"/></g><g fill="#7B6248"><path d="M563.1 858.7l190.8 37.1V750.9l-190.8-5zM753.9 581.8l-190.8 30.5v112.8l190.8 1.6zM965.1 612.3l-190.8-30.5v144.9l190.8-1.6zM774.3 895.8l190.8-37.1V745.9l-190.8 5z"/></g></svg>