<svg xmlns:xlink="http://www.w3.org/1999/xlink"  xmlns="http://www.w3.org/2000/svg" width="100" height="100" viewBox="0 0 100 100"><linearGradient id="a" gradientUnits="userSpaceOnUse" x1="61.849" y1="59.359" x2="71.142" y2="80.27"><stop offset="0" stop-color="#b1d365"/><stop offset="1" stop-color="#55a947"/></linearGradient><path fill="url(#a)" d="M84.539 50.446v19.877L49.875 92.382V71.779z"/><linearGradient id="b" gradientUnits="userSpaceOnUse" x1="32.667" y1="64.34" x2="32.667" y2="81.838"><stop offset="0" stop-color="#d27eb3"/><stop offset="1" stop-color="#b3378e"/></linearGradient><path fill="url(#b)" d="M15.46 62.81v19.633l34.415 9.939V71.779z"/><linearGradient id="c" gradientUnits="userSpaceOnUse" x1="27.172" y1="56.194" x2="46.92" y2="71.683"><stop offset="0" stop-color="#b1d365"/><stop offset="1" stop-color="#55a947"/></linearGradient><path fill="url(#c)" d="M29.334 52.457L15.46 62.81l20.594 5.363 14.464-9.47z"/><linearGradient id="d" gradientUnits="userSpaceOnUse" x1="53.784" y1="40.576" x2="47.541" y2="55.144"><stop offset="0" stop-color="#d27eb3"/><stop offset="1" stop-color="#b3378e"/></linearGradient><path fill="url(#d)" d="M15.46 48.365L64.45 62.81l20.089-12.364-49.51-15.231z"/><linearGradient id="e" gradientUnits="userSpaceOnUse" x1="30.629" y1="15.896" x2="33.727" y2="32.936"><stop offset="0" stop-color="#b1d365"/><stop offset="1" stop-color="#55a947"/></linearGradient><path fill="url(#e)" d="M15.46 28.392v19.973L49.875 25.24V5.849z"/><linearGradient id="f" gradientUnits="userSpaceOnUse" x1="67.207" y1="4.249" x2="67.207" y2="27.002"><stop offset="0" stop-color="#d27eb3"/><stop offset="1" stop-color="#b3378e"/></linearGradient><path fill="url(#f)" d="M84.539 35.663V15.546L49.875 5.849V25.24z"/><linearGradient id="g" gradientUnits="userSpaceOnUse" x1="51.324" y1="25.4" x2="71.073" y2="40.89"><stop offset="0" stop-color="#b1d365"/><stop offset="1" stop-color="#55a947"/></linearGradient><path fill="url(#g)" d="M49.312 39.611l15.316-9.936 19.911 5.988-15.485 10.021z"/></svg>