<svg xmlns:xlink="http://www.w3.org/1999/xlink"  xmlns="http://www.w3.org/2000/svg" width="100" height="100" viewBox="0 0 100 100"><path d="M35.292 28.548c1.47-2.624 5.407-2.747 7.709-1.18 1.122.717 1.267 2.165 1.202 3.374-.021 10.015-.011 20.03-.004 30.045.174 1.676-1.325 2.986-2.823 3.366-1.991.622-4.094.04-5.733-1.166-.138-8.86.011-17.728-.069-26.588-.495-2.57-.933-5.277-.282-7.851zM56.364 28.853c1.448-2.878 5.644-3.218 8.028-1.361 1.521 1.205.955 3.319 1.086 4.998.203 1.741-.832 3.301-.702 5.039.047 8.495-.051 16.982.051 25.471-1.955 1.55-4.84 1.918-7.004.579-.731-.532-1.553-1.281-1.415-2.285-.044-10.815.043-21.627-.044-32.441zM18.229 41.56c2.009-1.339 5.016-1.317 6.765.464-.073 6.808.004 13.624-.04 20.432.044 1.157-1.357 1.534-2.222 1.816-1.651.224-4.072.246-4.836-1.505-.152-6.154 0-12.318-.073-18.474.066-.905-.195-1.951.406-2.733zM76.077 41.166c1.671-.764 3.872-.771 5.421.293 1.003.626.631 1.904.714 2.889-.123 6.199.188 12.432-.153 18.611-1.636 1.987-5.179 1.914-6.97.158-.33-6.062-.03-12.157-.142-18.227.102-1.288-.457-3.149 1.13-3.724z"/><g fill="#E31E2F"><path d="M47.902 26.593c2.433-.822 6.328-.058 6.613 2.99.051 10.366.012 20.737.015 31.103.218 4.977-9.381 5.105-9.063.075.011-10.396-.018-20.783.015-31.178-.186-1.505 1.153-2.541 2.42-2.99zM28.581 34.4c1.947-.966 5.303-.444 5.705 2.031.058 8.477.032 16.953.014 25.431-.463 3.749-7.637 3.406-7.366-.587-.025-7.912.011-15.831-.018-23.748-.094-1.247.395-2.656 1.665-3.127zM68.052 34.281c2.013-.88 5.733-.061 5.411 2.704-.054 8.466.076 16.936-.062 25.397-.955 2.806-6.103 2.806-7.098.005-.13-8.471-.028-16.955-.051-25.431-.208-1.241.667-2.288 1.8-2.675zM11.056 68.912c.847-.224 1.733-.264 2.617-.274 24.313.018 48.621-.008 72.933.007 1.947.022 3.989.616 5.389 2.023.996.908 1.178 2.614.294 3.66-1.343 1.679-3.602 2.313-5.671 2.396-24.31.008-48.629-.01-72.941.008-2.468 0-5.48-.782-6.598-3.226-.678-2.473 1.928-4.094 3.977-4.594z"/></g><g fill="#E62027"><path d="M83.981 49.541c1.054-1.806 3.507-2.012 5.389-1.918 1.626.141 4.174.753 4.011 2.866.058 6.646-.051 13.298.048 19.947-2.31-2.806-6.143-3.146-9.513-2.929.055-5.989-.104-11.983.065-17.966zM6.364 50.547c1.133-2.052 4.21-1.726 6.262-1.628 1.249.163 3.167.615 3.146 2.204.032 5.462-.014 10.92.011 16.385-3.406-.22-7.406.174-9.523 3.223.144-6.726-.076-13.461.104-20.184z"/></g></svg>