<svg xmlns:xlink="http://www.w3.org/1999/xlink"  xmlns="http://www.w3.org/2000/svg" viewBox="0 0 1500 1500"><path fill="#BBD1DC" d="M737.1 459l340.2 163.5C1024.1 502 898.5 417.4 751.9 417.4c-141 0-262.6 78.4-318.9 191.6l298.7-147.3 5.4-2.7zm.1 27.4c-8.7 4.3-241 118.8-319 157.3-1.9 5.3-3.7 10.7-5.3 16.2h299.7l39.4 44.3s19.7-49.3 59.1-49.3H1088c-80.1-38.5-341.9-164.2-350.8-168.5z"/><path fill="#AB5153" d="M376 963.9l-.9-10.4V775.1c0-20.8 10.1-39.2 25.5-50.8 10.6-8 23.8-12.7 38-12.7H676c33 0 62.1 25.4 65.3 57.6 0 .3-.1.7-.1 1h.1c.1 1.6.3 3.3.3 4.9h14.8c0-2-.2-4-.3-6 .8-34.6 38.9-62.5 73.6-62.5h237.4c13.1 0 25.4 4 35.5 10.9 16.9 11.4 28 30.8 28 52.7v178.3l-.8 10.5 14.6 2.4 1-12.9V770.2c0-31.4-18.6-58.4-45.3-70.9-10.1-4.7-21.2-7.4-33-7.4H829.8c-33 0-67.1 20.6-81.4 49.5-13.2-26.3-41.1-44.6-72.2-44.6H438.7c-12.9 0-25.1 3.2-35.9 8.8-25.2 13-42.4 39.3-42.4 69.5v178.3l1 12.8 14.6-2.3zm-138.8 109.2V952.9H323.4v-14.8h-101v136.3c.2 1.3 16 125.2 180.2 138.3-6.5 10.8-21.5 35.8-24.4 40.6h-25.4v14.8h33.7l32.2-54.5c4.2.1 8.4.3 12.9.3h4c-13.6 21-41.6 64.3-44.6 69h-23.1v-12.3h-14.8v27.1H399l54.2-83.7H732v-14.8H431.8c-176.3 0-193.7-119-194.6-126.1zm938.3-134.9V953h86.2v120.1c-.9 7.2-18.2 126.1-194.6 126.1H766.7v14.8h297.6l60.5 89.1h45.9V1276h-14.8v12.3h-23.1c-3.3-5.2-37.1-57.4-48.4-74.7 4.9-.2 9.6-.6 14.3-1l38.1 60.5h33.7v-14.8h-25.4c-3-5-22-36.3-29-47.7 145.6-21.2 160-134.9 160.2-136.2V938.2h-100.8zm-769 28.2c8.7-4 20.6-6 35.2-6h240.6c5.1 1 52.4 10.9 52.4 36.9h14.8c0-40.3-62.6-51.2-65.3-51.6l-.6-.1h-242c-18 0-32.6 2.8-43.6 8.4-6.7 3.4-12 7.8-16.1 13.2-12.5 16.7-6.8 36.3-6.5 37.2l14.2-4.2c0-.1-.9-3.2-.9-7.7 0-4.8 1-11.1 5.2-16.6 2.9-3.9 7.2-7.1 12.6-9.5zm720.7 37.9c.3-.8 5.9-20.4-6.5-37.2-3.8-5.2-9-9.4-15.2-12.7-11.1-5.9-26-8.9-44.5-8.9H819l-.6.1c-2.7.4-65.3 11.3-65.3 51.6H768c0-26 47.3-36 52.4-36.9H1061c15.1 0 27.3 2.2 36.1 6.5 4.9 2.4 8.9 5.4 11.6 9 8.1 10.7 4.3 24.1 4.3 24.3l14.2 4.2zm-734.8 71.8h729.9l1-.3c.6-.2 60.5-17.3 49.7-82.2l-5.7 1-8.8 1.5c.6 3.3.8 6.5.9 9.5 0 1 .1 2 .1 3 0 39.5-34.5 51.3-39.3 52.8H392.4c-10.6 0-19-3.4-25.6-10.4-8.8-9.3-12.8-23.2-14.8-35.4-2.1-13.6-1.5-24.9-1.5-25.1l-14.7-.9c0 .3-.1 1.6-.1 3.6-.2 11.4.9 47.2 20.3 67.9 9.4 9.9 21.7 15 36.4 15z"/><path fill="#D49B98" d="M1180.5 999.7c4.9 54.2-44.3 93.6-44.3 93.6H417c-147.8 0-108.3-123.1-108.3-123.1h-49.3C229.9 1142.6 362.8 1177 362.8 1177h743.7c103.4 0 142.8-118.2 142.8-118.2v-59.1h-68.8zm-408.8-128h-14.8v93.6l14.8-19.7v-73.9z"/><path fill="#FFC589" d="M751.9 265.9c-274.5 0-497 210.6-497 470.4 0 54.4 9.9 106.6 27.8 155.2h55.5V699.3s1.6-2.1 4.4-5.2c29.1-189.3 201.3-334.6 409.3-334.6 214.4 0 390.7 154.3 411.6 352 7 14.7 12 32 12 51.9v123.1l46.1 3.6c17.6-48.2 27.3-99.9 27.3-153.8 0-259.8-222.5-470.4-497-470.4zm0-69l-14.8 44.3h39.4l-24.6-44.3zM921.8 226l-28.1 37.3 37.4 12.5-9.3-49.8zm185.7 81.5l-40.2 23.8 29.8 25.8 10.4-49.6zm111.6 135l-43.6 16.7 25 30.5 18.6-47.2zm41.5 167l2.4 39.3 42.8-27.3-45.2-12zm9.8 152.7l2.4 39.3 42.8-27.3-45.2-12zM578.2 226l-9.3 49.8 37.4-12.5-28.1-37.3zM432.7 331.2l-40.2-23.8L403 357l29.7-25.8zm-108.2 128l-43.7-16.7 18.7 47.1 25-30.4zM237 648.9l2.4-39.3-45.1 12.1 42.7 27.2zm-9.8 152.7l2.4-39.3-45.1 12.1 42.7 27.2z"/></svg>