<svg xmlns:xlink="http://www.w3.org/1999/xlink"  xmlns="http://www.w3.org/2000/svg" viewBox="0 0 150 150"><path fill="#689146" d="M41.9 40.7c1.1-.9 2.2-1.8 3.2-2.6 3.4-2.8 6.8-5.1 11.1-6.5 7.4-2.3 16.3-.7 18.6 7.7v0c2.3-8.4 11.2-10 18.6-7.7 4.3 1.3 7.6 3.6 11 6.5 1 .8 2.1 1.7 3.3 2.6-1.9-2.6-2.9-5.8-2.4-9.3-8.4-4.8-20.7-7.9-31-7.9-10 0-21.8 3-30.2 7.6.8 3.6-.2 6.9-2.2 9.6z"/><path fill="#689146" d="M133 44.7c-.1 0-.1.1-.2.1-3.5 4.4-9.9 5.5-15 4-6.5-1.9-12.9-6.7-18.5-10.4-4.6-3-10.5-6.2-16-4.4-2.7.9-4.7 3-5.5 5.7-.6 2.1-.5 4.7 1.3 6.3 2.1 1.9 6.7 2.5 7.6-1 .3-1.1.3-2.5-.8-3-.8-.4-2.4-.3-2.4.8 0 .7-.7 1-1.3.7-.4-.2-1-.6-1.1-1.1-.3-1.7.9-3.1 2.5-3.6s3.2-.1 4.6 1c3.3 2.5 2.3 7-.4 9.1-3.1 2.4-7.6 2.1-10.5-.5a8.3 8.3 0 0 1-2.4-4 8.3 8.3 0 0 1-2.4 4c-2.9 2.6-7.4 2.9-10.5.5-2.7-2.1-3.7-6.6-.4-9.1 1.3-1 3-1.5 4.6-1 1.6.5 2.8 1.9 2.5 3.6-.1.5-.7.9-1.1 1.1-.6.3-1.3 0-1.3-.7-.1-1.2-1.6-1.2-2.4-.8-1.2.6-1.1 2-.8 3 .9 3.5 5.5 2.9 7.6 1 1.8-1.6 1.9-4.1 1.3-6.3-.7-2.8-2.8-4.8-5.5-5.7-5.5-1.8-11.4 1.4-16 4.4-5.6 3.7-12 8.4-18.5 10.4-5.4 1.6-12.3.3-15.6-4.9-.7 2 .9 4.5 2.9 6.5 3.7 3.7 6.9 8.8 6.9 14.5v3.3c0 1.8 1.3 2.7 5.2 2.7H118c3.9 0 5.2-.9 5.2-2.7v-3.3c0-5.7 3.2-10.8 6.9-14.5 1.6-1.7 3.1-3.9 2.9-5.7zM116.7 76H32.3c-3.8 0-6.8 3.4-6.8 7s3 7 6.8 7h84.3c3.8 0 6.8-3.4 6.8-7 .1-3.6-3-7-6.7-7zM116 95H32.2c-3.7 0-6.2 3-6.2 6.9v7c0 3.9 2.5 7.1 6.2 7.1H116c3.7 0 7-3.3 7-7.1v-7c0-3.9-3.3-6.9-7-6.9z"/><path fill="#402312" d="M17 55.8l-5.3.1c-3 0-5.3 2.3-5.3 5l.6 61.5c0 2.7 2.4 4.9 5.4 4.9l5.3-.1c3 0 5.3-2.3 5.3-5l-.6-61.6c-.1-2.7-2.5-4.9-5.4-4.8zM142 60.6c0-2.7-2.4-4.9-5.4-4.9l-5.3.1c-3 0-5.3 2.3-5.3 5l.6 61.6c0 2.7 2.4 4.9 5.4 4.9l5.3-.1c2.9 0 5.3-2.3 5.3-5l-.6-61.6zM31.8 48.8c6.5-1.9 12.9-6.7 18.5-10.4 4.6-3 10.5-6.2 16-4.4 2.7.9 4.7 3 5.5 5.7.6 2.1.5 4.7-1.3 6.3-2.1 1.9-6.7 2.5-7.6-1-.3-1.1-.3-2.5.8-3 .8-.4 2.4-.3 2.4.8 0 .7.7 1 1.3.7.4-.2 1-.6 1.1-1.1.3-1.7-.9-3.1-2.5-3.6s-3.2-.1-4.6 1c-3.3 2.5-2.3 7 .4 9.1 3.1 2.4 7.6 2.1 10.5-.5 1.2-1.1 2-2.5 2.4-4a8.3 8.3 0 0 0 2.4 4c2.9 2.6 7.4 2.9 10.5.5 2.7-2.1 3.7-6.6.4-9.1-1.3-1-3-1.5-4.6-1-1.6.5-2.8 1.9-2.5 3.6.1.5.7.9 1.1 1.1.6.3 1.3 0 1.3-.7 0-1.2 1.6-1.2 2.4-.8 1.2.6 1.1 2 .8 3-.9 3.5-5.5 2.9-7.6 1-1.8-1.6-1.8-4.1-1.3-6.3.7-2.8 2.8-4.8 5.5-5.7 5.5-1.8 11.4 1.4 16 4.4 5.6 3.7 12 8.4 18.5 10.4 5.1 1.5 11.5.4 15-4 .9-1.1 1.6-2.5 2-4.1.8-3.1-.7-6.6-4.1-6.9-1.8-.1-3.4.2-4.4 1.8-.7 1.2-.8 2.6.1 3.7.2.3.6.3.9.3.3-.1.5-.2.7-.4.1-.1.1-.2.1-.3-1.3-2.3 3.5-3.4 4.2-.6.7 2.6-2 5.2-4 6.3-5.1 2.7-12 .6-16.1-2.9-.5-.4-1-.9-1.4-1.4-1.6-1.9-2.6-4.2-2.7-6.8v-.2c.1-3.5 2.3-7.5 6.1-7.7 3.4-.2 6.4 1.8 5.8 5.5-.3 1.5-1 2-2.4 2.3-1.3.3-1.9-.4-2.7-1.2-.3-.3-.9-.3-1 .1-.8 3.1 3.1 4 5.1 3.5 3.8-.8 4.7-4.8 3.8-8.1-1.1-3.9-5.3-5.4-9-5.1-4.3.3-7.2 4-8.2 7.9-.1.4-.2.8-.2 1.1-.6 3.5.4 6.7 2.4 9.3-1.1-.9-2.2-1.8-3.3-2.6-3.4-2.8-6.8-5.1-11-6.5-7.3-2.4-16.2-.8-18.5 7.5v0c-2.3-8.4-11.2-10-18.6-7.7-4.3 1.3-7.6 3.6-11.1 6.5-1 .8-2.1 1.7-3.2 2.6 2-2.7 3-6 2.3-9.6-.1-.3-.1-.5-.2-.8-1-3.9-3.9-7.6-8.2-7.9-3.7-.3-7.9 1.2-9 5.1-.9 3.3 0 7.3 3.8 8.1 2.1.4 5.9-.5 5.1-3.5-.1-.4-.7-.4-1-.1-.8.9-1.4 1.5-2.7 1.2-1.4-.3-2.1-.9-2.4-2.3-.7-3.7 2.4-5.7 5.8-5.5 3.9.2 6.1 4.4 6.1 7.9 0 3.3-1.6 6.1-4.1 8.3-4.1 3.5-11 5.7-16.1 2.9-2-1.1-4.7-3.7-4-6.3.7-2.7 5.5-1.7 4.2.6-.1.1 0 .3.1.3.2.2.4.4.7.4.3 0 .7 0 1-.3.8-1.1.7-2.5.1-3.7-1-1.7-2.6-2-4.4-1.8-3.4.2-5 3.8-4.1 6.9.3 1.2.8 2.3 1.4 3.2 3.2 5.3 10.1 6.6 15.5 5z"/></svg>