<svg xmlns:xlink="http://www.w3.org/1999/xlink"  xmlns="http://www.w3.org/2000/svg" width="100" height="100" viewBox="0 0 100 100"><path fill-rule="evenodd" clip-rule="evenodd" fill="#D6B089" d="M35.049 46.808c-11.153-.816-17.11-9.779-16.965-19.383.477-30.223 47.095-24.304 41.195 4.846-.377 1.858-4.043 9.93-10.501 11.305-21.612 4.613-22.591-23.771-8.883-28.271-15.415.796-19.401 26.707-4.846 31.503z"/><path fill-rule="evenodd" clip-rule="evenodd" fill="#D6B089" d="M10.011 87.997c.49-19.703-1.016-41.396.81-59.763 1.092 19.553 23.125 33.506 41.999 22.61-9.698 13.727-28.686 25.157-42.809 37.153z"/><path fill-rule="evenodd" clip-rule="evenodd" fill="#8A0304" d="M59.468 7.433a27.176 27.176 0 0 1 2.473 2.618c5.26 6.428 7.162 14.895 5.348 23.839-.596 2.957-3.095 8.48-7.532 12.648a8.173 8.173 0 0 1-.264 9.026c-7.399 10.47-19.05 19.27-30.317 27.781-4.457 3.369-8.681 6.578-12.573 9.811h75.599V7.433H59.468z"/><g fill-rule="evenodd" clip-rule="evenodd" fill="#FFF"><path d="M39.507 21.857h4.068v4.067h-4.068zM46.562 21.857h4.068v4.067h-4.068zM39.507 29.358h4.068v4.067h-4.068zM46.562 29.358h4.068v4.067h-4.068z"/></g></svg>