<svg xmlns:xlink="http://www.w3.org/1999/xlink"  xmlns="http://www.w3.org/2000/svg" viewBox="0 0 150 150"><path fill="#2C3B39" d="M118 123.6h-5.5v5.5c0 3 2.5 5.5 5.5 5.5h5.5c3 0 5.5-2.5 5.5-5.5v-8.5s-2.2 3-11 3zM19 120.6v8.5c0 3 2.5 5.5 5.5 5.5H30c3 0 5.5-2.5 5.5-5.5v-5.5H30c-8.8 0-11-3-11-3zM131.8 64.1c-5.5 0-10.1 3.4-11.9 8.3l-6 13.5c-.5-.3-18.7-6-39.5-6S34.6 85.7 34.2 86l-5.7-12.7c-1.5-5.3-6.4-9.1-12.1-9.1-7 0-12.7 5.7-12.7 12.7 0 5.8 4 10.7 9.4 12.2l2.4 20.3c2.5 8.6 14.8 8.8 14.8 8.8h88s12.3-.2 14.8-8.8l2.4-20.2c5.3-1.5 9.3-6.4 9.3-12.2-.3-7.2-6-12.9-13-12.9z"/><path fill="#2C3B39" d="M34.6 70.9l2.8 6.2c2.7-1 9-1.9 16.1-2.7-1-2.7-3.3-8.4-7.4-14.9C42.3 53.6 37 47 30 41.8c-2-1.5-4.1-2.9-6.4-4.1-5.5 4.8-9.1 12-9.1 19.9v.1c.6 0 1.1-.2 1.7-.2 8.4 0 15.8 5.5 18.4 13.4zM104.9 59.6c-4.2 6.6-6.5 12.5-7.5 15.1 5.9.6 10.9 1.4 13.2 2.3l3.1-7.1c2.9-7.4 10.1-12.4 18-12.4.6 0 1.1.1 1.7.2v-.1c0-7.4-3-14.1-7.9-18.8-2.5 1.5-4.8 3.2-7 5-5.8 4.8-10.3 10.5-13.6 15.8z"/><path fill="#2C3B39" d="M48.4 59.6c2 4.4 3.7 9.3 5.2 14.9 7-.7 14.7-1.1 20.8-1.1 6.6 0 15.5.5 23 1.3 1.5-5.6 3.3-10.6 5.3-15.1 3.5-7.8 7.7-13.9 12-18.6 2.1-2.3 4.3-4.2 6.4-5.9-1.9-1.2-4-2.1-6.1-2.8h-.2c-1.4-.4-2.8-.8-4.3-1-.3.2-.7.4-1 .7-11.4 7.6-18.2 18.7-22.2 27.6-3.5 7.8-4.7 13.8-4.7 13.8.8-5 1.8-9.6 3-13.8 3.9-13.3 10-22.4 16.1-28.5 1-1 2-1.9 3-2.7-.1-.1-.3-.2-.4-.3-7-5.2-19.6-8.8-29.9-8.8-9.9 0-21.9 3.4-29 8.3 1.3 1.1 2.7 2.3 4.1 3.6 6.1 6.1 12.2 15.2 16.1 28.5 1.2 4.2 2.3 8.7 3 13.8 0 0-1.2-6-4.7-13.8-4.1-9.1-11.3-20.7-23.3-28.3-.1 0-.1-.1-.2-.1-4.1.1-8 1.2-11.5 3 1.8 1.3 3.6 2.8 5.4 4.5 4.9 4.8 9.9 11.6 14.1 20.8z"/></svg>