<svg xmlns:xlink="http://www.w3.org/1999/xlink"  xmlns="http://www.w3.org/2000/svg" viewBox="0 0 1000 1000"><path fill="#961114" d="M422 208.7c58.7 10 110-12 145.3-27.3 35.3-16 72.7-33.3 48-4S528.7 232 484.7 232s-226.7-17.3-159.3 4 97.3 27.3 136 23.3 160.7-60.7 210.7-62.7c32-1.3 78 0 117.3 3.3-1.3-10.7-4-21.3-7.3-31.3-19.3-1.3-40-5.3-58.7-14-22.7-10-135.3-32-160.7-38.7-46.7-12.7 6.7-23.3 82-11.3 23.3 4 61.3 1.3 95.3-1.3-28.7-27.3-68-44-110.7-44h-252c-22 0-42.7 4.7-62 12.7h115.3c-30.7 9.3-62.7 13.3-83.3 6.7-32-10-40 12-9.3 22 28.7 9.3 152.7-10 188-28.7h61.3c-60 18.7-128 40.7-141.3 46.7-22.7 10 28.7 16 62.7 4s62 14 14.7 38-144 29.3-194.7 6c-51.3-22.7-50-38-17.3-30.7s178.7 33.3 114 8.7c-64-24.7-101.3-22-136.7-46-2.7-2-6-3.3-10-5.3C272 98.7 266 104 260 110c2 .7 4.7.7 6.7 1.3 30 8 8.7 21.3-18 18-1.3 0-2.7-.7-4.7-.7-3.3 4.7-6 9.3-9.3 14.7 5.3.7 6.7 3.3 0 7.3-1.3 1.3-3.3 2-5.3 3.3-6.7 14.7-11.3 30.7-13.3 47.3 18.7-1.3 37.3-3.3 47.3-6.7 43.9-11.2 99.9 4.2 158.6 14.2z"/><path fill="#961114" d="M757.3 151.3c4.7 0 10.7 0 16.7-.7-2.7-6-6-11.3-9.3-16.7-20.7 8.1-34 17.4-7.4 17.4zM912.7 464c-30-30-70.7-42.7-110-38v4.7c-14.7 1.3-26.7 4.7-41.3 10.7-1.3.7-2 .7-3.3 1.3-35.3 15.3-47.3 4.7-30-10.7 9.3-8.7 19.3-15.3 34-19.3 8-2 17.3-4 28.7-4.7v-20.7c-10.7 2.7-20 6-28.7 9.3-48 19.3-80.7 46-172 44-34.7-.7-56.7-14.7 2.7-22 40-5.3 47.3-6 92-31.3 22.7-12.7 49.3-23.3 77.3-30 9.3-2.7 19.3-4.7 28.7-6v-32c-74.7 2-151.3 3.3-180.7 18-43.3 20.7-40.7 4-11.3-17.3 32-24 132-32.7 180.7-30 4 0 8 .7 11.3.7v-14c-2-.7-3.3-1.3-5.3-1.3-22-6.7-44-10.7-60.7-10.7-84.7 0-95.3-27.3 2-25.3 14.7 0 37.3 3.3 64 9.3v-24c-45.3-3.3-133.3-10-168.7 20.7-38.7 33.3-194.7 62.7-258 39.3-43.3-16-80.7-39.3-147.3-52v30.7c59.3 15.3 121.3 34 152.7 45.3 58 20.7 176 0 211.3-16 35.3-16 11.3 20-26 34s-143.3 8.7-77.3 31.3c66.7 22.7 182-21.3 237.3-24 56-2 41.3 9.3-2 30-43.5 20.7-240.8 52-302.8 30s-114.7-80-158-76.7c-11.3.7-23.3 1.3-36.7 2V348c28.7 0 55.3 3.3 76.7 11.3 94.7 35.3 138 73.3 239.3 54.7 42-8 18.7 16.7-14.7 27.3-34 10 28 11.3 50 12.7 22 1.3 108.7-4 8 22-60 16-132.7 2.7-188.7-10-64-17.3-72.7-26.7-139.3-32.7-36-3.3-58.7-4.7-77.3-2.7-14.7 1.3-26.7 4.7-41.3 10.7-1.3.7-2 .7-3.3 1.3-3.3 1.3-6 2.7-8.7 3.3-8 5.3-15.3 10.7-22 17.3-44 44-44 116 0 160.7 8 8 16.7 14 26.7 18.7V756c0 34 27.3 61.3 61.3 61.3h6l-40.7 100c-6 16.7 2.7 35.3 19.3 41.3 4 1.3 7.3 2 11.3 2 13.3 0 26-8 30.7-21.3l48.7-122.7H750l48.7 122.7c4.7 13.3 17.3 21.3 30.7 21.3 4 0 7.3-.7 11.3-2 16.7-6 25.3-24.7 19.3-41.3l-40.7-100h6c34 0 61.3-27.3 61.3-61.3V642.7c9.3-4.7 18.7-10.7 26.7-18.7 44-44 44-116-.6-160z"/></svg>