<svg xmlns:xlink="http://www.w3.org/1999/xlink"  xmlns="http://www.w3.org/2000/svg" width="100" height="100" viewBox="0 0 100 100"><radialGradient id="a" cx="10.038" cy="23.44" r="72.451" gradientUnits="userSpaceOnUse"><stop offset="0" stop-color="#00adee"/><stop offset="1" stop-color="#130843"/></radialGradient><path fill="url(#a)" d="M59.547 7.252a1.79 1.79 0 0 1-.691.797c-3.268 2.113-6.573 3.789-9.722 6.107-2.806 2.062-5.903 3.658-8.783 5.602.041.442-.127.908-.619 1.294-2.088 1.646-4.573 2.546-6.732 4.102-2.952 2.129-6.1 3.771-9.193 5.668-5.072 3.111-9.852 6.704-14.898 9.86v33.96l31.435-16.189 31.438 16.189V22.685c0-13.551 6.964-15.434 6.964-15.434l-19.199.001z"/><path fill="#231F20" d="M81.548 7.286c-1.515 0-9 1.507-9 15.4v6.722c6.141-7.25 19.376-3.335 19.376-3.335 0-15.825.078-18.787-10.376-18.787z"/><radialGradient id="b" cx="55.778" cy="96.288" r="34.131" gradientUnits="userSpaceOnUse"><stop offset="0" stop-color="#00adee"/><stop offset="1" stop-color="#130843"/></radialGradient><path fill="url(#b)" d="M30.837 69.935h9.224v9.224h-9.224z"/><radialGradient id="c" cx="55.783" cy="96.288" r="34.132" gradientUnits="userSpaceOnUse"><stop offset="0" stop-color="#00adee"/><stop offset="1" stop-color="#130843"/></radialGradient><path fill="url(#c)" d="M41.567 69.935h9.227v9.224h-9.227z"/><g><radialGradient id="d" cx="55.778" cy="96.296" r="34.133" gradientUnits="userSpaceOnUse"><stop offset="0" stop-color="#00adee"/><stop offset="1" stop-color="#130843"/></radialGradient><path fill="url(#d)" d="M30.837 81.606h9.224v9.228h-9.224z"/><radialGradient id="e" cx="55.783" cy="96.296" r="34.144" gradientUnits="userSpaceOnUse"><stop offset="0" stop-color="#00adee"/><stop offset="1" stop-color="#130843"/></radialGradient><path fill="url(#e)" d="M41.567 81.606h9.227v9.228h-9.227z"/></g><g><radialGradient id="f" cx="46.892" cy="9.791" r="31.435" gradientUnits="userSpaceOnUse"><stop offset="0" stop-color="#00adee"/><stop offset="1" stop-color="#130843"/></radialGradient><path fill="url(#f)" d="M25.053 7.249L8.908 17.818v3.67L30.659 7.249z"/><radialGradient id="g" cx="46.889" cy="9.79" r="31.432" gradientUnits="userSpaceOnUse"><stop offset="0" stop-color="#00adee"/><stop offset="1" stop-color="#130843"/></radialGradient><path fill="url(#g)" d="M36.208 7.249l-27.3 17.872v3.665L41.809 7.249z"/><radialGradient id="h" cx="46.889" cy="9.79" r="31.434" gradientUnits="userSpaceOnUse"><stop offset="0" stop-color="#00adee"/><stop offset="1" stop-color="#130843"/></radialGradient><path fill="url(#h)" d="M47.328 7.249L8.908 32.423v3.665L52.927 7.249z"/><radialGradient id="i" cx="46.892" cy="9.79" r="31.434" gradientUnits="userSpaceOnUse"><stop offset="0" stop-color="#00adee"/><stop offset="1" stop-color="#130843"/></radialGradient><path fill="url(#i)" d="M58.412 7.249L8.908 39.721v3.67L64.007 7.249z"/></g></svg>