<svg xmlns:xlink="http://www.w3.org/1999/xlink"  xmlns="http://www.w3.org/2000/svg" viewBox="0 0 150 150"><path fill="none" d="M91.9 80.4c-1.1-2.9-2.7-5.6-4.6-7.9-2-2.3-4.4-4.2-7.1-5.6-2.7-1.4-5.7-2.1-8.9-2.1-2.6 0-5 .5-7.3 1.4-2.3 1-4.4 2.2-6.2 3.8-1.8 1.6-3.2 3.5-4.2 5.8-1 2.2-1.5 4.7-1.5 7.4 0 4.1 1.4 7.6 4.3 10.5 1.6 1.6 3.3 2.7 5.2 3.4 3.5-.2 7-.3 10.6-.3.9-.4 1.7-1 2.5-1.6 2.2-1.9 3.4-4.4 3.4-7.3 0-2.6-.9-4.6-2.8-6.3-1.9-1.6-4-2.4-6.4-2.4-1.7 0-3.2.4-4.6 1.3l-.8-1c.9-1.4 2-2.5 3.5-3.2 1.4-.7 2.9-1.1 4.4-1.1 1.9 0 3.6.4 5.1 1.2 1.5.8 2.7 1.9 3.7 3.3 1 1.3 1.8 2.8 2.3 4.5.5 1.7.8 3.3.8 5 0 2.8-.5 5.3-1.6 7.5 3.7.1 7.3.3 10.8.5.8-2.5 1.1-5.2 1.1-8 0-2.9-.6-5.9-1.7-8.8z"/><path fill="#E88124" d="M56.4 93.7c-2.9-2.9-4.3-6.4-4.3-10.5 0-2.7.5-5.2 1.5-7.4s2.4-4.2 4.2-5.8c1.8-1.6 3.8-2.9 6.2-3.8 2.3-1 4.7-1.4 7.3-1.4 3.2 0 6.2.7 8.9 2.1 2.8 1.4 5.1 3.3 7.1 5.6s3.5 4.9 4.6 7.9c1.1 3 1.6 6 1.6 9 0 2.8-.4 5.5-1.1 8 4.6.3 9 .8 13.2 1.3 0-.1.1-.1.1-.2 2.1-4.4 3.2-9.3 3.2-14.7 0-5.1-1-10-3-14.5s-4.7-8.5-8.1-11.9c-3.4-3.4-7.3-6.1-11.8-8.1-4.5-2-9.3-3-14.4-3-5 0-9.7.9-14.2 2.7-4.5 1.8-8.4 4.3-11.8 7.5-3.4 3.2-6.1 7-8.1 11.3-2 4.4-3 9-3 14 0 3.7.7 7.2 2.1 10.5 1.1 2.5 2.4 4.7 4.1 6.7 6.5-.9 13.5-1.6 20.8-2-1.8-.6-3.6-1.7-5.1-3.3zM77.5 102.1c-.8 0-1.6-.1-2.4-.1h-8.8 11c.2 0 .2.2.2.1z"/><path fill="#E88124" d="M82.4 84.4c-.5-1.7-1.3-3.2-2.3-4.5-1-1.4-2.3-2.4-3.7-3.3-1.5-.8-3.2-1.2-5.1-1.2-1.5 0-3 .4-4.4 1.1-1.4.7-2.6 1.8-3.5 3.2l.8 1c1.4-.9 2.9-1.3 4.6-1.3 2.4 0 4.6.8 6.4 2.4 1.8 1.6 2.8 3.7 2.8 6.3 0 2.9-1.1 5.4-3.4 7.3-.8.7-1.6 1.2-2.5 1.6h2.3c2.4 0 4.8 0 7.1.1 1.1-2.2 1.6-4.7 1.6-7.5.1-1.9-.2-3.5-.7-5.2z"/><path fill="#312C1A" d="M30.6 88.2c-.4-1.8-.6-3.7-.6-5.7 0-5 1-9.7 3-14 1.2-2.5 2.6-4.9 4.2-7 6.7-11.1 18.5-19 35.5-19 29.6 0 43.6 24.1 42 47 .2-1.6.3-3.3.3-5 0-6.5-1.3-12.7-3.8-18.6-2.6-5.8-6-10.9-10.3-15.2-4.3-4.3-9.3-7.7-15.2-10.3-5.8-2.6-12-3.8-18.6-3.8-6.4 0-12.5 1.2-18.2 3.6-5.7 2.4-10.7 5.6-15.1 9.8-4.4 4.2-7.8 9-10.4 14.6-2.6 5.6-3.8 11.6-3.8 18 0 5.1 1 10 3 14.5.8 1.8 1.7 3.4 2.6 5 2.4-.6 4.8-1.1 7.4-1.6-1.1-4-1.8-8.1-2-12.3z"/><path fill="#8C6339" d="M77.5 102.4c28.4.2 53.5 3.8 68.8 9.3-6.8-5.8-21.7-10.5-40.7-13-4.2-.6-8.6-1-13.2-1.3-3.5-.2-7.1-.4-10.8-.5-2.3-.1-4.7-.1-7.1-.1h-2.3c-3.6 0-7.1.1-10.6.3-7.4.4-14.3 1-20.8 2-2.8.4-5.5.9-8.1 1.4-2.6.5-5.1 1-7.4 1.6-11.1 2.7-19.4 6.4-23.7 10.6 14-5.6 37.5-9.4 64.8-10.1 2.9-.1 5.8-.1 8.8-.1.8-.1 1.5-.1 2.3-.1z"/></svg>