<svg xmlns:xlink="http://www.w3.org/1999/xlink"  xmlns="http://www.w3.org/2000/svg" viewBox="0 0 1500 1500"><path fill="none" d="M1033.2 289.2c-6.3-4-13.5-7-21.6-8.6.6.6 1.2 1.1 1.7 1.7 6.9 1.2 13.6 3.6 19.9 6.9zM1060.4 505.2c-1.9-46.5-5.9-99.6-19.3-145.2-6.5.8-13 2.8-19.2 5.9-6.9 4.2-13.2 9.8-17.7 17.3-21.9 35.6 1.3 105.1 56.2 122zM771.2 422c34.9-4.7 80.9-16.5 119.9-38.5-7.1-2.6-14.2-6.7-20.7-12.8-10.9 7.8-22.7 14.4-35.2 19.8-41.9 18-115.7 30.7-271.6 27.7-67.2-1.3-137.3-.7-200.5 18.4-2.2 3.1-4.2 6.4-6.1 9.8-1.6 3-2.7 6.5-3.5 10.2 67.6-22.9 147.2-25.8 186.4-27.7 79.2-3.9 159.4 2.9 231.3-6.9zM281.9 480.7c-4 6.4-7 13.5-8.6 21.6l1.7-1.7c1.2-6.9 3.5-13.5 6.9-19.9zM347.5 458.6c.5-6 1.7-12.1 4.2-17.9.1-.1.1-.3.2-.4-1.4.5-2.9 1-4.3 1.5-30 10.8-60.2 26.3-70 56.6 18.9-17.4 43.3-30.2 69.9-39.8z"/><path fill="none" d="M997.5 447.1c-4.1-13.3-5.8-26.8-4.5-39.2-1.6 12.3 0 26 4.5 39.2zM375.9 509.8c35.6 21.9 105.1-1.3 122-56.2-46.5 1.9-99.6 5.9-145.2 19.3.8 6.5 2.8 13 5.9 19.1 4.2 6.9 9.8 13.2 17.3 17.8z"/><path fill="none" d="M439.8 516.5c-13.2 4.1-26.8 5.8-39.2 4.5 12.3 1.5 25.9-.1 39.2-4.5zM858.1 237c-8.5 6.1-19.3 12.3-32.9 18.3-2.9 1.3-13 4.6-22.6 7.4 10.6-2.3 21.5-5.3 31.7-9.1 10.3-5.6 18.2-11.1 23.8-16.6zM1055.4 354.8c6 .5 12.1 1.7 17.9 4.2.1.1.3.1.4.2-.5-1.4-1-2.9-1.5-4.3-10.8-30-26.3-60.2-56.6-70 17.3 18.9 30.2 43.3 39.8 69.9zM229.6 655.8c6.1 8.5 12.3 19.3 18.3 32.9 1.3 2.9 4.6 12.9 7.4 22.6-2.3-10.6-5.4-21.5-9.1-31.7-5.5-10.3-11.1-18.1-16.6-23.8zM648.5 1284.3c8.5-6.1 19.3-12.3 32.8-18.3 2.9-1.3 12.9-4.6 22.6-7.4-10.6 2.3-21.4 5.4-31.7 9.1-10.2 5.5-18 11.1-23.7 16.6zM1229.1 1022.9c-19 17.3-43.4 30.2-70 39.7-.5 6-1.7 12.1-4.2 17.9-.1.1-.1.3-.2.4 1.4-.5 2.9-1 4.3-1.5 30.1-10.7 60.3-26.2 70.1-56.5zM1233.3 1018.9l-1.7 1.7c-1.1 7-3.5 13.6-6.9 19.9 4-6.3 7-13.5 8.6-21.6zM735.5 1099.3c-34.9 4.7-80.9 16.5-119.9 38.5 7.1 2.6 14.2 6.7 20.7 12.8 10.9-7.8 22.7-14.4 35.2-19.8 41.9-18 115.7-30.7 271.6-27.7 67.2 1.3 137.3.7 200.5-18.4 2.2-3.1 4.2-6.4 6.1-9.8 1.6-3 2.7-6.5 3.5-10.2-67.6 22.9-147.2 25.8-186.4 27.7-79.3 3.8-159.4-2.9-231.3 6.9zM608.5 1260c1.9-1.2 3.8-2.5 5.5-4-5.8 3.6-11.7 6.5-17.2 8.9 4.2-1.2 8-2.9 11.7-4.9zM759 772h51v43h-51zM759 713h51v42h-51zM1095.7 570.9c1.3-67.2.7-137.3-18.4-200.5-3.1-2.2-6.4-4.2-9.8-6.1-3-1.6-6.5-2.7-10.2-3.5 22.9 67.6 25.8 147.2 27.7 186.3 3.8 79.3-2.9 159.5 6.9 231.4 4.7 34.9 16.5 80.9 38.5 119.9 2.6-7.1 6.7-14.2 12.8-20.7-7.8-10.9-14.4-22.7-19.8-35.2-17.9-41.9-30.6-115.7-27.7-271.6zM1258.7 832.6c-1.3-2.9-4.6-12.9-7.4-22.6 2.3 10.6 5.3 21.4 9.1 31.7 5.5 10.3 11.1 18.1 16.6 23.8-6.1-8.6-12.3-19.4-18.3-32.9zM473.4 1232.1c6.4 4 13.5 7 21.6 8.6-.6-.6-1.2-1.1-1.7-1.7-6.9-1.2-13.6-3.6-19.9-6.9zM708 892h111v179H708zM451.3 1166.5c-6-.5-12.1-1.7-17.9-4.2-.1-.1-.3-.1-.4-.2.5 1.4 1 2.9 1.5 4.3 10.8 30 26.3 60.2 56.6 70-17.4-19-30.2-43.3-39.8-69.9z"/><path fill="none" d="M757.6 579.7l5.5 2.5 301.1 134.6c-3-52.5-.3-105.6-2.1-158.8-.4-11.7-.7-24.5-1.2-37.9-56.8-13.6-89.5-96.7-62.3-137.4 5.7-8.5 13.4-15.1 22.1-19.6 5.9-3.5 12.3-6 19-7.4-10.3-33.5-25.9-62.6-49.7-81.5-11-8.8-25.4-16-41.3-19.4-19.4-4.1-36.8-1.1-50.6 6.4-12.4 7.9-21.4 19.6-25.5 33.4-5.4 18.1-1.8 37.3 7.4 53.3 14.7-11.2 27.2-24.7 36.9-41.1-4.4 10-9.5 18.9-15.3 27 6.5-7.1 12.4-14.8 17.5-23.4-8.3 19-19.5 34.3-32.7 46.9 5.3 6.8 11.7 12.8 18.9 17.4 30.8-20.6 55.2-48.5 62.6-85.7-.2 11.4-4.3 25.9-12.4 41.2 6.8-11.3 11.9-23.8 14.6-37.6-.4 23.2-16.7 59.7-51.9 88.7 1.1.4 2.3.9 3.5 1.3-1.9.6-4 1-6 1.3.8.3 1.6.7 2.4.9-1.9.6-3.9.9-5.9 1.2-3.2 2.4-6.5 4.8-10 7.1-27.3 17.9-58.2 30.8-88.5 39.8-85.5 25.4-174.2 15.9-263.1 18.8-11.7.4-24.5.7-37.9 1.2-13.6 56.8-96.8 89.5-137.4 62.3-8.5-5.7-15.2-13.4-19.6-22.2-3.5-5.9-6-12.2-7.3-18.9-33.5 10.3-62.6 25.9-81.6 49.7-8.8 11-16 25.4-19.4 41.3-4.1 19.4-1.1 36.8 6.4 50.6 7.9 12.4 19.6 21.4 33.4 25.4 18.1 5.4 37.2 1.8 53.3-7.4-11.2-14.7-24.7-27.3-41.1-36.9 10 4.4 18.9 9.5 27 15.3-7.1-6.5-14.8-12.4-23.4-17.5 19 8.3 34.3 19.5 46.9 32.7 6.8-5.3 12.8-11.7 17.4-18.9-20.6-30.8-48.5-55.2-85.7-62.6 11.4.2 25.9 4.3 41.1 12.4-11.3-6.8-23.8-11.9-37.5-14.6 23.2.4 59.7 16.7 88.7 51.9.4-1.2.9-2.3 1.3-3.5.6 1.9 1 4 1.3 6.1l.9-2.4c.6 1.9.9 3.9 1.2 5.9 2.4 3.2 4.8 6.5 7.1 10 17.9 27.3 30.8 58.2 39.8 88.5 1.8 6 3.3 12 4.8 18l321.7-136 5.6-2.4z"/><path fill="none" d="M449.2 1160.5c-22.9-67.6-25.8-147.2-27.7-186.4-3.8-79.3 2.9-159.4-6.9-231.4-4.7-34.9-16.5-80.9-38.5-119.9-2.6 7.1-6.7 14.2-12.8 20.7 7.8 10.9 14.4 22.7 19.8 35.2 18 41.9 30.7 115.7 27.7 271.6-1.3 67.2-.6 137.3 18.4 200.5 3.1 2.2 6.4 4.2 9.8 6.1 3.1 1.8 6.6 2.8 10.2 3.6zM708 713h43v42h-43zM708 772h43v43h-43z"/><path fill="#C26437" d="M1001 1190.7c-24.9-24.5-64.5-19.1-102.1-17.7 4.4.7 9 1.8 13.7 3.1-3.9.2-7.7.4-11.5.5 35 5.6 79.2 33.6 102.1 17.7-1.1-1.1-2.3-2-3.4-3l1.2-.6zM337.9 919.9c-.2-3.9-.4-7.7-.5-11.5-5.6 34.9-33.6 79.2-17.7 102.1 1.1-1.1 2-2.3 3-3.4.2.4.4.8.7 1.2 24.5-24.9 19.1-64.5 17.7-102.1-.8 4.5-1.9 9.1-3.2 13.7zM1168.8 601.3c.2 3.9.4 7.7.5 11.5 5.6-35 33.6-79.2 17.7-102.1-1.1 1.1-2 2.3-3 3.4-.2-.4-.4-.8-.7-1.2-24.5 24.9-19.1 64.5-17.7 102.1.8-4.4 1.9-9 3.2-13.7z"/><path fill="#C26437" d="M1364.8 664.2c-19.8-36.2-67.3-94.7-121.9-80.7-7.7 2-15.4 5.4-22.7 10-15.8 8.8-30.1 23.2-39.7 41.7 12.2-42.8 36.8-74.4 64.6-89.8-14.7 3.1-26.5 8.1-36.1 14.5-43.8 26.4-43.6 81.9-40.4 140.6 0-2 0-3.9.1-5.8 0-1.5 0-2.4.1-3.9.3-3.8 1.1-9.1 2.5-14.9.2 7.4.6 14.9 1 22.5v-5.8c0-1.5 0-2.5.1-3.9.8-12.7 8.5-41.8 17.7-55.4 8.6-12.4 17.5-21.2 26.6-27 42.4-23.4 87.3 15.8 112.8 55.2 29.8 46.1 49.2 121.6 31.5 180.2-5.5 18.2-16.5 39.6-31.6 50.2-11.2 6.3-24.5 6.6-39.4-4.4-8.1-6-14.9-15-20.6-25.7 20.4 32 40.9 37 56.9 25.9 2.2-1.1 4.4-2.5 6.4-4.2 28.4-23.5 35.7-80.5 23.7-136.8-7.2-33.5-28.9-95.8-66.7-114.7 15.1 11 27.1 26.8 36.3 44.9-10.4-18.4-23.7-34.6-40-42.7 42.3 30.8 60.8 98.5 60 153.7-.5 32.1-8.2 58.9-19.7 74.8-3 4.2-6.4 7.6-10.1 10.2-15.8 8-36.1-.2-55.4-39.7-4.1-9.2-7.7-19.1-10.7-29.4-4.1-21-5.7-40.4-5.2-51.4-.5 7.6-1.5 14.8-3 21.7-.6-7.8-.8-14.6-.6-19.5-1.9 31.8-14 59-29.1 69.6-16.4 8.4-35.5-2.7-48.9-47.3-20.9-72.6-3.9-151.3-7-227.7-2.7-67.4-14.5-104.6-32-138.8-7.4-14.4-16.1-25.7-25.4-34.5-14.8-49-46.8-94.2-88.5-96.5-17-16.7-37.9-28.5-63.8-32.5-20.6-3.1-41.9.3-60.7 11.8-2.9 1.6-5.8 3.4-8.6 5.4-30.7 21.8-36.6 62.1-20.7 89 1.5 2.6 3.2 4.9 4.9 7.2-78.6 45.4-199.5 40.4-274.2 40.4-73 0-144.4-1.6-192.5 7.9 25.8-14.6 57.9-19.4 88.8-20.6 83.1-3.3 160.8 4.3 243.1-1.6 41.3-2.9 80.4-18.2 96-42.1 13-19.8 8.5-35.8 1.9-45.6-2.1-3.9-4.6-7.2-7-9.6 35.6-13.8 79.5-36.1 81.2-82 .5-13.4-3.6-25.4-10.6-35.8C869 138.7 820.9 120.2 783 119c-43.2-1.4-88.4 9.6-125.9 30.1-36.2 19.8-94.7 67.3-80.7 121.9 2 7.7 5.4 15.4 10 22.8 8.8 15.8 23.2 30.1 41.7 39.7-42.8-12.2-74.4-36.8-89.8-64.6 3.1 14.7 8.1 26.5 14.6 36.1 26.4 43.8 81.9 43.6 140.5 40.4-1.9 0-3.9 0-5.8-.1-1.5 0-2.4 0-3.9-.1-3.8-.2-9.1-1.1-14.9-2.5 7.4-.2 14.9-.6 22.5-1h-5.8c-1.5 0-2.5 0-3.9-.1-12.7-.8-41.8-8.4-55.4-17.7-12.4-8.6-21.2-17.5-27-26.6C575.8 255 615 210 654.5 184.6c46.1-29.8 121.6-49.2 180.1-31.5 18.2 5.5 39.6 16.5 50.2 31.6 6.3 11.2 6.6 24.5-4.4 39.4-6 8.1-15 14.9-25.7 20.6 32-20.4 37-41 25.9-56.9-1.1-2.2-2.5-4.3-4.2-6.4-23.5-28.4-80.5-35.7-136.8-23.7-33.5 7.2-95.8 28.9-114.7 66.7 11-15.1 26.7-27.1 44.9-36.3-18.4 10.4-34.6 23.7-42.7 40 30.8-42.3 98.5-60.8 153.7-60 32.1.5 58.9 8.2 74.8 19.7 4.2 3 7.6 6.4 10.2 10.1 8 15.8-.1 36.1-39.7 55.4-9.1 4.1-19.1 7.7-29.4 10.7-21 4.1-40.4 5.7-51.5 5.2 7.6.5 14.8 1.5 21.7 3-7.8.6-14.5.8-19.5.6 31.8 1.9 59 14 69.6 29.1 8.4 16.4-2.7 35.5-47.3 48.9-72.6 20.9-151.2 3.9-227.7 7-67.4 2.7-104.6 14.5-138.8 32-14.4 7.4-25.8 16.1-34.5 25.4-49.1 14.8-94.2 46.8-96.5 88.5-16.7 17-28.5 37.9-32.5 63.8-3.1 20.6.3 41.9 11.8 60.7 1.6 2.9 3.4 5.8 5.3 8.6 21.9 30.8 62.1 36.6 89 20.7 2.6-1.5 4.9-3.2 7.1-4.9 45.4 78.6 40.4 199.5 40.5 274.2 0 73-1.6 144.4 7.9 192.5-14.6-25.8-19.4-57.9-20.6-88.8-3.3-83.1 4.3-160.8-1.5-243-2.9-41.3-18.2-80.4-42.1-96-19.8-13-35.8-8.5-45.6-1.9-3.9 2.1-7.2 4.6-9.6 7-13.8-35.6-36.1-79.5-81.9-81.2-13.4-.5-25.4 3.6-35.9 10.7-32.5 19.2-51.1 67.3-52.3 105.1-1.4 43.2 9.6 88.5 30.1 125.9 19.8 36.2 67.3 94.7 121.9 80.7 7.7-2 15.4-5.4 22.8-10 15.8-8.8 30.1-23.2 39.7-41.7-12.2 42.8-36.8 74.4-64.6 89.8 14.7-3.1 26.5-8.1 36.1-14.6 43.8-26.4 43.6-81.9 40.4-140.5v5.8c0 1.5 0 2.4-.2 3.9-.2 3.8-1.1 9.1-2.4 14.9-.2-7.4-.6-14.9-1-22.5v5.8c0 1.5 0 2.5-.1 3.9-.8 12.7-8.4 41.8-17.7 55.4-8.6 12.5-17.5 21.2-26.6 27-42.3 23.4-87.3-15.8-112.7-55.3-29.8-46.1-49.2-121.6-31.5-180.2 5.5-18.2 16.5-39.6 31.6-50.2 11.2-6.3 24.5-6.6 39.4 4.4 8.1 5.9 14.9 15 20.6 25.7-20.4-32-40.9-36.9-56.9-25.9-2.2 1.1-4.3 2.5-6.4 4.2-28.4 23.5-35.7 80.5-23.7 136.8 7.2 33.5 28.9 95.8 66.7 114.7-15.1-11-27.1-26.8-36.4-44.9 10.4 18.4 23.7 34.6 40 42.7-42.3-30.8-60.8-98.5-60-153.8.5-32 8.2-58.9 19.7-74.8 3-4.1 6.4-7.6 10.1-10.2 15.8-8.1 36.1.1 55.4 39.7 4.1 9.2 7.7 19.1 10.7 29.4 4.1 21 5.7 40.4 5.2 51.5.4-7.6 1.5-14.8 3-21.7.6 7.8.8 14.6.6 19.5 1.9-31.8 14-59 29.1-69.6 16.4-8.4 35.5 2.7 48.9 47.3 20.9 72.6 3.9 151.2 7 227.7 2.7 67.4 14.5 104.6 32 138.8 7.4 14.4 16.1 25.7 25.4 34.5 14.8 49 46.8 94.2 88.5 96.5 17 16.7 37.9 28.5 63.8 32.5 20.6 3.1 41.9-.3 60.7-11.8 2.9-1.6 5.8-3.4 8.6-5.4 30.7-21.9 36.6-62.1 20.7-89-1.5-2.6-3.2-4.9-4.9-7.1 78.6-45.4 199.5-40.4 274.2-40.5 73 0 144.4 1.7 192.5-7.9-25.8 14.6-57.9 19.4-88.8 20.6-83.1 3.3-160.8-4.3-243.1 1.5-41.3 2.9-80.4 18.3-96 42.1-13 19.8-8.5 35.8-1.9 45.6 2.1 4 4.6 7.2 7 9.6-35.6 13.8-79.5 36.1-81.1 82-.5 13.4 3.6 25.4 10.6 35.8 19.2 32.6 67.3 51.1 105.1 52.3 43.2 1.4 88.5-9.6 125.9-30.1 36.2-19.8 94.7-67.3 80.7-121.9-2-7.7-5.4-15.4-10-22.7-8.8-15.8-23.2-30.1-41.7-39.7 42.8 12.3 74.4 36.8 89.8 64.6-3.1-14.7-8.1-26.5-14.5-36.1-26.4-43.8-81.9-43.7-140.6-40.4 1.9 0 3.9 0 5.8.1 1.5 0 2.4-.1 3.9.1 3.8.2 9.1 1.1 14.9 2.5-7.4.2-14.9.6-22.4 1 1.9 0 3.9 0 5.8.1 1.5 0 2.5 0 3.9.1 12.7.8 41.8 8.4 55.4 17.7 12.4 8.6 21.1 17.5 27 26.6 23.5 42.4-15.8 87.3-55.2 112.8-46.1 29.8-121.6 49.2-180.1 31.5-18.2-5.5-39.6-16.5-50.2-31.6-6.3-11.2-6.6-24.5 4.4-39.4 5.9-8.1 15-14.9 25.6-20.6-31.9 20.4-36.9 40.9-25.8 56.8 1.1 2.2 2.5 4.4 4.2 6.4 23.5 28.4 80.5 35.7 136.8 23.7 33.5-7.2 95.8-28.9 114.7-66.7-11 15.1-26.8 27.1-44.9 36.3 18.4-10.4 34.6-23.7 42.7-40-30.8 42.3-98.5 60.8-153.7 60-32-.5-58.9-8.2-74.8-19.7-4.1-3-7.6-6.4-10.2-10.1-8.1-15.8.1-36.1 39.7-55.4 9.2-4.1 19.1-7.7 29.4-10.7 21-4.1 40.4-5.7 51.4-5.2-7.6-.5-14.8-1.5-21.7-3 7.8-.6 14.5-.8 19.5-.6-31.8-1.9-59-14-69.6-29.1-8.4-16.4 2.7-35.5 47.3-49 72.6-20.9 151.2-3.9 227.7-7 67.4-2.7 104.6-14.5 138.8-32 14.4-7.4 25.8-16.1 34.5-25.4 49-14.8 94.2-46.8 96.5-88.5 16.7-17 28.5-37.9 32.5-63.8 3.1-20.6-.3-41.9-11.8-60.7-1.6-2.9-3.4-5.8-5.4-8.6-21.9-30.7-62.1-36.6-89-20.7-2.6 1.5-4.9 3.2-7.1 4.9-45.4-78.6-40.4-199.5-40.5-274.2 0-73 1.7-144.4-7.9-192.5 14.6 25.8 19.4 57.9 20.6 88.8 3.3 83.1-4.3 160.8 1.5 243.1 2.9 41.3 18.2 80.4 42.1 96 19.8 13 35.8 8.5 45.6 1.9 3.9-2.1 7.2-4.6 9.6-7 13.8 35.6 36.1 79.5 82 81.2 13.5.5 25.4-3.6 35.9-10.7 32.5-19.2 51.1-67.3 52.3-105.1 1.1-43.2-9.9-88.5-30.4-125.9zM802.6 262.7c9.7-2.8 19.7-6.1 22.6-7.4 13.5-6 24.3-12.2 32.9-18.3-5.7 5.5-13.5 11.1-23.8 16.6-10.2 3.7-21 6.7-31.7 9.1zM248 688.7c-6-13.5-12.2-24.3-18.3-32.9 5.5 5.7 11.1 13.5 16.6 23.7 3.8 10.3 6.8 21.1 9.1 31.7-2.9-9.6-6.1-19.6-7.4-22.5zm455.9 569.9c-9.7 2.8-19.6 6.1-22.6 7.4-13.5 6-24.3 12.2-32.8 18.3 5.7-5.5 13.5-11.1 23.8-16.6 10.2-3.7 21-6.7 31.6-9.1zm529.4-239.7c-1.6 8.1-4.6 15.3-8.6 21.6 3.4-6.3 5.7-13 6.9-19.9l1.7-1.7zm-78.3 61.7c2.4-5.9 3.7-11.9 4.2-17.9 26.6-9.6 51-22.4 70-39.7-9.9 30.3-40 45.8-70 56.6-1.4.5-2.9 1-4.3 1.5-.1-.2 0-.4.1-.5zm-82.8-725.7c.5 1.4 1 2.9 1.5 4.3-.1-.1-.3-.1-.4-.2-5.9-2.4-11.9-3.7-17.9-4.2-9.6-26.6-22.4-51-39.7-70 30.2 9.9 45.7 40.1 56.5 70.1zm-74.7 92.2c-4.5-13.3-6.1-26.9-4.5-39.2-1.3 12.4.4 26 4.5 39.2zm6.7-63.9c4.6-7.5 10.8-13.1 17.7-17.3 6.1-3.1 12.7-5.1 19.2-5.9 13.4 45.6 17.5 98.7 19.3 145.2-54.9-16.9-78.1-86.4-56.2-122zm29-94c-6.3-3.4-13-5.7-19.9-6.9-.5-.6-1.1-1.1-1.7-1.7 8.1 1.7 15.3 4.6 21.6 8.6zM356.9 446.4c1.9-3.4 3.9-6.7 6.1-9.8 63.2-19 133.3-19.7 200.5-18.4 155.9 3 229.7-9.7 271.6-27.7 12.5-5.4 24.4-12 35.2-19.8 6.5 6.1 13.6 10.2 20.7 12.8-39 22-85 33.8-119.9 38.5-71.9 9.8-152.1 3-231.4 6.9-39.1 1.9-118.7 4.8-186.4 27.7.9-3.7 2-7.2 3.6-10.2zm141 7.1c-16.9 54.9-86.4 78.2-122 56.2-7.5-4.6-13.1-10.8-17.3-17.8-3.1-6.1-5.1-12.7-5.9-19.1 45.5-13.3 98.7-17.4 145.2-19.3zm-58.1 63c-13.2 4.5-26.8 6-39.2 4.5 12.4 1.2 25.9-.5 39.2-4.5zm-92.3-74.8c1.4-.5 2.9-1 4.3-1.5-.1.1-.1.3-.2.4-2.4 5.9-3.7 11.9-4.2 17.9-26.6 9.6-51 22.4-70 39.7 10-30.2 40.1-45.7 70.1-56.5zm-65.6 39c-3.4 6.3-5.7 13-6.9 19.9l-1.7 1.7c1.6-8 4.6-15.2 8.6-21.6zm129 469.7c3-155.9-9.7-229.7-27.7-271.6-5.4-12.5-12-24.4-19.8-35.2 6.1-6.5 10.2-13.6 12.8-20.7 22 39 33.8 85 38.5 119.9 9.8 71.9 3 152.1 6.9 231.4 1.9 39.1 4.8 118.7 27.7 186.4-3.6-.8-7.1-1.8-10.2-3.5-3.4-1.9-6.7-3.9-9.8-6.1-19-63.3-19.7-133.4-18.4-200.6zm23.5 216c-.5-1.4-1-2.9-1.5-4.3.1.1.3.1.4.2 5.9 2.4 11.9 3.7 17.9 4.2 9.6 26.6 22.4 51 39.7 70-30.2-9.9-45.7-40.1-56.5-70.1zm39 65.7c6.3 3.4 13 5.7 19.9 6.9l1.7 1.7c-8.1-1.7-15.2-4.6-21.6-8.6zm-42.9-513.9c-1.5-6-3-12-4.8-18-9-30.3-21.9-61.1-39.8-88.5-2.3-3.5-4.7-6.8-7.1-10-.3-2-.6-4-1.2-5.9l-.9 2.4c-.3-2.1-.6-4.1-1.3-6.1-.4 1.2-.9 2.3-1.3 3.5-29-35.1-65.5-51.4-88.7-51.9 13.7 2.7 26.2 7.8 37.5 14.6-15.3-8.1-29.8-12.2-41.1-12.4 37.2 7.4 65.2 31.8 85.7 62.6-4.7 7.2-10.6 13.5-17.4 18.9-12.6-13.2-27.9-24.4-46.9-32.7 8.6 5 16.3 11 23.4 17.5-8.1-5.8-17.1-10.9-27-15.3 16.4 9.7 29.9 22.2 41.1 36.9-16 9.2-35.2 12.8-53.3 7.4-13.8-4.1-25.5-13.1-33.4-25.4-7.5-13.8-10.4-31.2-6.4-50.6 3.4-15.8 10.6-30.2 19.4-41.3 18.9-23.8 48.1-39.4 81.6-49.7 1.3 6.7 3.8 13 7.3 18.9 4.4 8.7 11.1 16.4 19.6 22.2 40.6 27.3 123.8-5.5 137.4-62.3 13.4-.5 26.2-.8 37.9-1.2 88.9-2.9 177.6 6.6 263.1-18.8 30.3-9 61.1-21.9 88.5-39.8 3.5-2.3 6.8-4.7 10-7.1 2-.3 4-.6 5.9-1.2l-2.4-.9c2.1-.3 4.1-.6 6-1.3-1.2-.4-2.3-.9-3.5-1.3 35.1-29 51.4-65.5 51.9-88.7-2.7 13.8-7.8 26.3-14.6 37.6 8.2-15.3 12.2-29.8 12.4-41.2-7.4 37.3-31.8 65.2-62.6 85.7-7.2-4.7-13.5-10.6-18.9-17.4 13.2-12.6 24.4-27.9 32.7-46.9-5 8.6-10.9 16.3-17.5 23.4 5.8-8.1 10.9-17 15.3-27-9.7 16.4-22.2 29.9-36.9 41.1-9.2-16-12.8-35.2-7.4-53.3 4.1-13.8 13.1-25.5 25.5-33.4 13.8-7.5 31.2-10.4 50.6-6.4 15.8 3.4 30.3 10.6 41.3 19.4 23.8 18.9 39.4 48.1 49.7 81.5-6.7 1.3-13.1 3.8-19 7.4-8.7 4.4-16.4 11-22.1 19.6-27.3 40.6 5.5 123.8 62.3 137.4.4 13.5.8 26.3 1.2 37.9 1.7 53.2-1 106.4 2.1 158.8L763.1 582.2l-5.5-2.5-5.6 2.4-321.5 136.1zM751 772v43h-43v-43h43zm-43-17v-42h43v42h-43zm0 137h111v179H708V892zm102-120v43h-51v-43h51zm-51-17v-42h51v42h-51zm-150.5 505c-3.6 2-7.5 3.6-11.6 4.9 5.5-2.3 11.4-5.3 17.2-8.9-1.8 1.5-3.7 2.8-5.6 4zm541.2-185.1c-1.9 3.4-3.9 6.7-6.1 9.8-63.2 19-133.3 19.7-200.5 18.4-155.9-3-229.7 9.7-271.6 27.7-12.5 5.4-24.4 12-35.2 19.8-6.5-6.1-13.6-10.2-20.7-12.8 39-22 85-33.8 119.9-38.5 71.9-9.8 152.1-3 231.4-6.9 39.1-1.9 118.7-4.8 186.4-27.7-.9 3.7-2 7.2-3.6 10.2zm-26.3-232.4c5.4 12.5 12 24.4 19.8 35.2-6.1 6.5-10.2 13.6-12.8 20.7-22-39-33.8-85-38.5-119.9-9.8-71.9-3-152.1-6.9-231.4-1.9-39.1-4.8-118.7-27.7-186.3 3.6.8 7.1 1.8 10.2 3.5 3.4 1.9 6.7 3.9 9.8 6.1 19 63.2 19.6 133.3 18.4 200.5-2.9 155.9 9.8 229.7 27.7 271.6zm127.9-32.5c2.8 9.7 6.1 19.6 7.4 22.6 6 13.5 12.2 24.3 18.3 32.8-5.5-5.7-11.1-13.5-16.6-23.8-3.8-10.2-6.8-21-9.1-31.6z"/><path fill="#C26437" d="M505.7 330.6c24.9 24.5 64.5 19.1 102.1 17.7-4.4-.7-9-1.8-13.7-3.1 3.9-.2 7.7-.4 11.5-.5-35-5.6-79.2-33.6-102.1-17.7 1.1 1.1 2.3 2.1 3.4 3l-1.2.6z"/></svg>