<svg xmlns:xlink="http://www.w3.org/1999/xlink"  xmlns="http://www.w3.org/2000/svg" viewBox="0 0 1500 1500"><path fill="none" d="M700.1 923.3c0 3.5-.1 7.1-.2 10.6.9-.1 2 0 3.6.4 5.7 1.3 13.3 7 19.1 12 .1-2.3.1-4.5.1-6.7-6.3-7-14.2-13.8-22.6-16.3zM699.9 938.2c-2.3 128.6-11.8 273.5-39.1 372.9 0 0 37.9-23.5 53.6-158.1-10.4 6.1-15.9 12.8-15.9 12.8 1.6-5.2 8-10.3 16.1-14.9 3.2-28 5.4-60.7 6.2-99 .7-35 1.3-68.7 1.8-100.8-5-3.7-10.1-6.6-14-8-3.8-1.3-6.9-3.1-8.7-4.9z"/><path fill="none" d="M700.2 914.1c0 2.3-.1 4.7-.1 7 .6.2 1.2.3 1.7.5 8.5 3.5 15.8 9.7 21 14.9 0-1.3 0-2.6.1-4-5.8-7.1-13.4-13.1-22.7-18.4z"/><path fill="#4DBDE9" d="M417.7 389.7l-2-1c.9 4.1 1.8 6.6 1.8 6.6s-.1-2.2 0-5.7c.1.1.2.1.2.1zm161.2 94.4c4.1 2.3 7 2.2 7 2.2-13.3-6.4-18-15.3-19-23.2-1.3-10.4 3.5-19.3 3.5-19.3-2.3 7.5-1.5 14.3.5 20.1 4.4 12.4 14.8 20.1 14.8 20.1-3.1-2.7-7.8-10.2-9.6-19.1-1.8-8.7-.7-18.8 7.8-27-6.4-1.2-13.1-2.7-19.6-4-3.4 3.7-9.2 12.8-2.7 28.1.4.9.7 1.7 1.1 2.7 1.7 3.5 3.5 6.3 5.2 8.7 2.9 3.4 6.5 7 11 10.7zm-75 14.5c21.3-4.6 32.5-4.6 32.5-4.6-13.2-.3-58.2-18.4-58.2-18.4-26.2-13.2-41.1-30.6-49.8-45.6-4.1-7-6.8-13.4-8.7-18.6-2.2-6-3.4-10.4-4.2-11.9-.8-1.5-1.6-6.1-2.2-12.1-64.1-36.3-12.9-68.5 40.6-80.5 5.3-5.3 9.1-8.6 9.1-8.6s.6-3.2 4.2-3.1c3.6.2 4.7 3.3 3.2 5-1.5 1.7-8.4.9-8.4.9s-2.1 2-5 5.1c3-.6 5.9-1.2 8.8-1.7 42.9-7.1 118.9-11.6 177.9-14.2-1.8-.4-3.6-1.6-4.7-3.3l-5.4-8.5c-2.3-3.5-1.2-8.2 2.3-10.5l15.9-10.2-4.1-6.5c-40 .1-93.8 1.4-158.3 6.1C281.3 272.4 315.9 368.8 363 448c16.3 27.5 52.5 57.3 93.5 84.5.1-.1.1-.1.1-.2 14.1-22.2 26-29 47.3-33.7zm-50-191.8c1.1-.2 2.1-.5 3.1-.7-1 .2-2.1.5-3.1.7zm202.6 333.9H873c-3.1-4-6.3-7.8-9.5-10.9-17.6-16.8-31.1-20.3-47.2-16.4-16.1 3.9-14.4 11.4-12.7 12.9 1.7 1.5 3.2 5.8-1 2.9s.4-10.8 4.9-15.9c4.4-5.1 14-5.8 14-5.8s-6.2-2.4-12.4-10.8-4.1-18.5 1.7-20.9c5.9-2.4 6.7 3.6 6.7 3.6s-5.5-4.8-8.4 5.4c-2.8 10.2 10.2 20.1 15.9 20.5 5.6.4 14.8.2 23.3 6.8s10.8 5.7 10.8 5.7 7.9 4.7-30.9-35.1c-38.9-39.8-74.5-50.5-89.2-43.9-14.7 6.6-12.6 18.8-10.8 22.8 1.9 3.8 4.8.4 5.9-.8 1.1-1.3-2.2-2.7-2.2-2.7s.1-4.4 3.1-1.8c3 2.6 1.1 9.9-2.9 9.4s-9.1-3.4-8.8-11.4c.2-8 11.7-16 11.7-16-5.3-1.7-20 5.8-25.4 13.7-5.4 8-6.9 38.1 9.9 48.9 16.8 10.9 31.4-3.3 34.7-7.1 3.3-3.8 2.2-8.6 2.2-8.6 3.9 3.4 1.1 15.1-12.1 20.8-13.2 5.7-24.9-1.5-33.1-9.3-8.2-7.8-7.4-31.1-7.4-31.1s-1.7 4.5-3 19c-1.4 14.5 21.1 32.6 34.7 32.4 13.6-.1 40.6-19.2 26.6-35.8-14-16.6-28.1-7.3-28.1-7.3l-1.3-1.1s3.8-8.6 16.4-11.1c12.6-2.4 38.4 16.2 27.3 40.2-11.1 24-46.4 39.6-73.6 11.4-27.3-28.1-4.8-60.9-4.8-60.9-29 32.2-15 66.1-15 66.1-9.5-9.8-3.6-49.4 4-60.7 7.6-11.3 25.7-26.1 30.5-26.4 4.8-.3 6.5-4.1 6.5-4.1s-24.5-1.1-42.8 10.5c-18.4 11.6-16.6 31.1-14.8 34.2 1.8 3.1 4.1 1.3 6.5 1.2 2.4-.2 5.4 3.2 1.2 5.5s-9.2-5-9.2-5c-9.4-19.4 7.8-35.7 19.4-42.1 11.6-6.4 39-7.8 39-7.8s-2.4.1-4.8-.5c-2.5-.6-42.9-.7-56 5.8-2 1-3.6 2-4.9 3.1 1.5 1.4 2.9 3 3.9 4.9 5.1 9.6-11 18.8-13.5 6.9-1-4.8 1-9.1 4.4-12.7-2.3-1.6-5-2.4-9.1-2.5-7.2-.3-23.6-.4-31.9 1.4-8.3 1.8-13.8-2.3-16.3-4.5-2.6-2.2-.3-9.2 3.3-9 3.6.2 3.1 3.4 2.2 7.9-.9 4.5 21.5 4.5 33.4 2.1 7.7-1.6 14.7-.4 20.2 3 5-4.4 11.9-7.5 17.8-8.8 11-2.4 49.6.6 49.6.6s-25.4-3.5-38.4-5.8-122.3-14.5-134.3-14.5c-12 0-30.2 8-37.3 14.5-7.2 6.5-15.5 7.4-9.2.2 6.3-7.2 27.5-13.5 27.5-13.5l4.6-2.7s-30.7 1.7-42.9 14.9c-12.3 13.2-7.2 27.3-5.8 30 1.4 2.7 4.3-1.5 6.4.4 2.1 1.9 1.6 11.1-6.1 4.4-7.6-6.7-7.1-27.1 5.7-37.6 12.9-10.5 31.9-12.6 31.9-12.6-17.8-2-35.6 6.4-53.2 21.6-4.9 4.2-8.1 9-10.2 13.8 76.5 50.2 168.2 91 179.3 91 16.9.1 16.9 15.1 16.9 15.1zM1174.8 313c-36.4-51.4-246.3-62.1-246.3-62.1l-2.1 34.3c213.9 3.9 246.1 76.1 161.1 117.9-7.8 3.8-16.5 7.4-26.2 10.6-33.7 11.3-74.2 22.2-121.3 30.2 3.1 4.1 5.1 8.5 6.6 12.9 5.5 17.2-.2 35.1-6.5 41.8-8.9 9.4-15.8 13.9-18.4 11.6-2.5-2.2.1-10.4 1.1-7.3 1 3.1 4.9 1.3 4.9 1.3 14.6-9.7 19.7-30 15.3-46.5-.4-1.6-.8-3.3-1.5-4.8-1.1-2.7-2.7-5.6-4.6-8.5.1 0 .3 0 .4-.1-26 4.4-54 7.8-84 10-5.4 4.4-11.1 11.4-16.9 22.1-.4.7-.6 1.4-.9 2-17 35.7 18.3 77.3 23.5 84 5.3 6.8 9.5 8.9 6.5 6.4-3-2.6-6.2-41.2 5.3-53.6 11.5-12.4 22.6-13.9 27.7-10.3 5 3.7-.4 10.8-3.9 7.9-3.4-3-.8-5.1-.8-5.1s-13.9-3.9-26.9 20.6c-13 24.5 9.4 57.4 21.2 72.2 3.9 4.9 9.2 12 14.6 19.4 38-19.4 108.7-48.3 171.4-86.3 92.1-55.7 137.1-169.2 100.7-220.6zM883 467.7c-5.2.7-8.2-3.4-9.3-6.6-1-3.1 3.3-3.8 3.3-3.8s-.4 5.6 3.7 6.9c3.7 1.2 5-7.7 1-12.3 1-.1 1.9-.2 2.9-.4 5.2 5.8 3.2 15.5-1.6 16.2zm-228.8 78.7c3.3 1.4 7.3-4.1 3.3-9.8-.7-1-1.4-1.7-2-2.5-5.2 5.5-3.8 11.3-1.3 12.3zM647.4 290c8.6-.4 16.8-.7 24.5-1l-6.4-10-16 10.2c-.6.4-1.4.6-2.1.8zm50.1-1.9c18.3-.6 29.7-.9 29.7-.9L725 253s-7-.5-19.7-.9c-.6 1.2-1.4 2.3-2.6 3.1l-15.9 10.2 10.2 16c1.3 2.1 1.4 4.6.5 6.7zm131.9 191.2c-.9 5.3-.9 8.9-.9 8.9s.4-3.8 2-9c2.1-7 6.5-16.6 15.5-24.3h.2c-3.6.2-7.3.4-11 .6.5 0 1.1-.1 1.6-.1-4.4 8.8-6.4 17.6-7.4 23.9zm-282.2-23.6c2.2 1 4.1 2.6 6 4.6 3.2 3.2 6.5 7.7 11.8 14.6 8.4 11 21.5 14.9 21.5 14.9-2.8-1.9-5.3-3.8-7.6-5.7-3.1-1.7-7-5-11-10.7-3.4-4-5.7-7.9-7.5-11.6-5.7-12.4-3.2-22.6.1-28.6 1 .2 2.1.4 3.1.7-8.4-1.7-16.5-3.2-25.1-5.1-2.6-.6-4.9-1.2-7.4-1.7-14.6 8.8-32.6 10.7-48 2.3-8.8-4.9-14.6-12.1-17.8-20.1-10-3.3-18.8-6.5-26.7-9.7-1.5 13.5 1 25.2 6.3 35.2 11.7 22.1 36.7 36.1 61.1 44.3 37.7 12.6 78.1 11.9 78.1 11.9-4.1-2.1-16.7-9.3-21.9-15.3-5.2-6.1-10.2-14.1-11.9-15.6-.1-.1-.4-.2-.6-.3-.4-.1-.7-.1-1-.2-2.5-.2-6.3 1.4-4.6 4.1 2.3 3.4-2.9 4.2-2.9 4.2-3.8-3.3-3.3-7.5-1.1-10.1 1.8-2.2 4.5-3.3 7.1-2.1zm89.8-9.4c.6 3.1.7 6.3-.1 9.7-1.9 8.4-5.8 14-10.2 17.5-6.8 5.4-14.9 5.7-19.5 2.1-2.6-2-4.1-4.1-5.1-6.1-1.9-3.8-1.5-7-1.5-7 4.4 10.5 17.6 10.8 22.7 3.3 4.1-6.2 5-15-.5-21.4-8.6-1.3-17.4-2.8-26.1-4.4-4.9 2.4-9.5 6.7-12.8 13.2-2.2 4.4-2.5 8.7-1.8 12.7 1.9 10.7 12 19.7 20.5 24.4 11.7 6.4 69.3 1.3 134 10.5s117.6 60.4 117.6 60.4-17.8-19.2-26.4-49.8c-3-10.7-3.8-21.4-2.5-31.6 1-8.5 3.4-16.7 7.3-24.3-58.3 2.9-123.5.8-195.8-9.2h.2zm169.3 732.2c-14.3-11-25.2-2.5-28 1.5-2.8 3.9 2.1 5 3.9 5.4 1.9.4 1.5-3.6 1.5-3.6s4.4-2.3 3.4 2.1c-1 4.3-9.2 6.3-10.8 2.1-1.7-4.2-1.5-10.7 6.5-14.7s21.9 3 21.9 3c-1.2-6.1-16.3-16.6-27-17.7-10.7-1.1-41 13.4-42.7 35.6-1.8 22.2 19.8 29 25.3 30.3 5.5 1.2 9.6-2.4 9.6-2.4-1.2 5.5-14.3 9.1-26.8-.9-12.6-9.9-11.7-25.3-8.3-37.4 3.4-12.2 26.6-23.8 26.6-23.8s-5.3.8-20.3 7.1c-14.9 6.3-20.8 38-13.5 51.3 7.3 13.3 40.3 29.7 49.2 7.2 8.9-22.5-7.7-31.5-7.7-31.5l.4-1.8s10.5-.9 19.6 10.2c9.1 11.1 4.4 46.2-24.9 48-29.4 1.8-63.3-24.6-50.1-66.2 13.2-41.6 57.2-36.9 57.2-36.9-25.5-6.1-44.7.4-56.9 7.7-15.7 134.6-53.6 158.1-53.6 158.1 27.3-99.4 36.8-244.3 39.1-372.9-2.4-2.2-2.8-4.2.1-4.3.1-3.5.1-7.1.2-10.6-.4-.1-.7-.3-1.1-.4-19.5-5-30.6 7.3-32.5 10.1-1.9 2.8 3.7 3.4 3 6.5-.7 3.1-10 7.4-7.6-3.6 2.4-10.7 21.5-20.5 38.2-14.8 0-2.3.1-4.7.1-7-5.6-3.2-11.8-6.1-18.5-8.7-7.6-2.9-14.8-3.2-21.3-2.5-2.3 105.7-5.3 214.2-8.2 256.1-6.4 92.1-40.7 194.9-40.7 194.9s79 40.4 144.4 46.6c8.4-12.1 22-33.8 26.9-51.5 7.2-26.2 3.5-41.2-8.9-55-12.3-13.7-18.8-8.1-19.3-5.6-.6 2.5-4 6.2-3.4.5.6-5.7 10.9-5.3 18.2-3.7 7.3 1.7 13 10.7 13 10.7s-.9-7.3 4-17.8 16-13.9 21.4-9.4c5.4 4.5 0 8.4 0 8.4s1.8-8-9.7-5.4c-11.5 2.6-14.3 20.7-11.7 26.5 2.5 5.7 7.6 14.6 5.6 26.5-2 11.8.2 13.6.2 13.6s-.4 10.3 18.1-49c18.4-59.3 10.2-100-4.1-110.9zM660.4 898.2c1 0 1.9-.2 2.9-.1 16.2 1.1 27.4 4.2 36.9 9.9 1.4-140.6-5.3-254.4-5.3-254.4h-30c.1 0-1.7 119.7-4.5 244.6zM876 911.3c-39.8 31.3-97.8 2-97.4-41.7.3-44.5 62.3-62.3 79.1-25.5 16.8 36.8-20.6 51.6-34.6 42-13.9-9.6-10-24.2-10-24.2-3.2 14.2 18.5 23.5 27.1 19.7 8.6-3.9 17.9-16.7 11.2-29.8-6.7-13.1-27.6-20.4-41.8-.3-14.2 20.1 2.4 38 19.5 41.9 17.2 3.9 40.3-10.3 42.1-38.4 1.8-28-24.5-63-78.1-47.9-53.6 15.1-59 67.6-51.4 111.3 7.6 43.7 29.6 82.9 29.6 82.9-.1-5.2.3-21.3 3.4-29.6 3.2-8.4 8.4-17.5 9-20 .5-2.5-4.6-8.1-6.8-4.1s-5.6-.6-5.6-.6c2.2-9.8 14.6-7.7 14.9-.5.3 7.2-3 13.5-9.4 27.6-6.4 14.1-3.3 29-3.3 29 .4-3.7 1-7.2 1.6-10.5.1-4 1.2-9.5 4.7-16.4 12.3-31.2 36.3-29.9 42.6-27.4 7.7 3 5.2 8.3 0 8.4-5.2.1-2.8-4.5-2.8-4.5s-17.9-9.2-34 13.7c-2.5 3.6-4.3 6.8-5.8 9.8-1.9 4.7-3.5 10.1-4.7 16.4-.1 5.3 1.5 8 1.5 8-1.8-37.9 33.6-37.7 33.6-37.7-27 5.6-31.3 36.3-31.3 36.3 2.2-9.9 23.2-40 52.7-22.4 29.5 17.6 25.1 51.5 1.8 57.9-23.3 6.4-36.8-8.2-35-18.8 1.7-10.6 9.4-13.4 9.4-13.4-8 9.8-1.3 23 8.8 23.9 10.1 1 21.7-4.8 22.1-18.3.5-13.5-10.5-27.6-30.6-26.9-20.1.7-26.5 23.1-26.5 38-.1 14.9 35.4 68.7 60.5 137.1 25.2 68.4 2.9 147.4 2.9 147.4s9.4-27.6 34.9-52.3c4-3.8 8.2-7.1 12.6-10.1-2.9-16.5-5.5-32.4-7-45.7-3-27.3-6.6-157.7-9.5-284.3zM846.5 1309c-3.9 8.8-3.8 14-2.8 9.7 1-4.3 37.2-27.8 55.4-23.1 1.7.4 3.1.9 4.6 1.5-3.2-15.4-6.6-32.5-9.7-49.3-29.2 15.6-44.4 54.2-47.5 61.2zM722.8 936.5c5.2 5.3 8.2 9.7 8.2 9.7-2-4.9-4.8-9.5-8.2-13.7.1 1.4 0 2.7 0 4zm4.4-285.1S725.8 766 723 928.6c14.5 17.2 20.1 27.5 20.1 27.5-6.7-13.2-12.7-66.9-12.7-66.9-2-65.7 37.6-95.6 41.6-101.8 4-6.2 52.3-34.8 61.6-36.6 9.4-1.8 20.7 2.7 20.7 2.7s-22.4 2.1-42.9 10.4-34.2 23.3-34.2 23.3 35.6-21.1 63.6-19.3c11.4.7 22.8 2.9 32.3 5.3-1.4-72-2.4-124-2.4-124l-143.5 2.2zm-4.5 294.8c4.9 4.2 8.6 7.9 8.6 7.9l5.1 3.1s-5.5-8.9-13.6-17.7c-.1 2.2-.1 4.5-.1 6.7zm31.2 153.3c.4 4 7.9 5 11.4-2 .6-1.2 1-2.2 1.4-3.3-8.2-2.2-13.1 2.2-12.8 5.3zm130.3 199.3c-30.9.2-51.4 39.5-59.6 59-4.1 9.8-11.8 25.7-18.3 39 55.4-12.1 109.4-45 109.4-45s-5-21.4-11-49.9c-5-1.8-11.5-3.2-20.5-3.1zM845.8 771c-17.2-.6-42.5 6-42.5 6l12-1.8c22.2-1.6 41.6 3.2 58 11.9-.1-3.9-.2-7.8-.2-11.5-9.1-2.2-19.5-4.3-27.3-4.6zm-22.6 5.9c19.2.4 41.9 14 41.9 14 3 2 5.7 4.1 8.4 6.4-.1-3.3-.1-6.6-.2-9.8-23.6-13.8-50.1-10.6-50.1-10.6zm-76.1 258.3c-4.9 1.5 6.9 23.5 15.6 33.9 5.6 6.8 8.5 14.3 8 21.5 6.9 2.6 13.5 7.7 17.7 12.7 8.1 9.6 25.7 49.1 25.7 49.1s-10.1-26.8-14.6-40.8c-4.6-13.9-50.5-127.7-56.9-139.5-3.9-7.2-12-15.1-20-21-.6 32.1-1.2 65.9-1.8 100.8-.7 38.3-3 71-6.2 99 14.9-8.3 35.8-14.2 45.6-13.3 15.1 1.5 39.3 11.4 42.1 15.9 2.8 4.5 7.4 4.3 7.4 4.3s-11.8-24.6-33-36.5c-21.2-11.9-39.3.2-41.4 3.6-2 3.4.9 4.7 2.3 7s-.3 7.1-4.8 4.1c-4.5-2.9.1-11.6.1-11.6 14-19.5 39.2-11.2 51.6-3.3 12.4 8 28.4 34.2 28.4 34.2s-1.4-2.2-2.1-5c-.7-2.7-22-42.4-35.3-51.9-2-1.4-3.8-2.4-5.5-3.1-.7 2.2-1.5 4.4-2.9 6.4-6.8 10.1-24.2-.9-13.9-9.6 4.2-3.5 9.5-3.8 14.8-2.4.3-3.1-.3-6.2-2.3-10.3-3.5-7.3-12.1-23.4-18.2-30.6-6.1-7.2-5.1-14.7-4.2-18.4.8-3.7 8.9-5.1 10.6-1.5 1.5 3.7-1.9 4.8-6.8 6.3zm15.4-675.1c6.8 0 12.7-3 16.8-7.7 3.5-4 5.7-9.1 5.7-14.8 0-12.4-10.1-22.5-22.5-22.5S740 325.2 740 337.6c0 5.6 2.1 10.6 5.5 14.6 4.1 4.8 10.2 7.9 17 7.9z"/><path fill="#27ADD9" d="M1082.2 391.2c-48.5-13.7-122.9-36.5-302.9-38.8-4.1 4.7-10.1 7.7-16.8 7.7-6.8 0-12.9-3.1-17-7.9-18.5 0-37.8.2-58.4.7-183.4 4.1-238.3 34.4-252 44.9 1.2.5 2.3 1 3.6 1.5 7.9 3.2 16.8 6.5 26.7 9.7 18.2 5.9 40.1 11.9 65.8 17.8 2.5.6 4.9 1.2 7.4 1.7 8.5 1.9 16.7 3.4 25.1 5.1.2 0 .3.1.5.1 6.5 1.3 13.2 2.8 19.6 4 4.3.8 8.5 1.4 12.8 2.1 8.8 1.5 17.5 3.1 26.1 4.4 4.8.7 9.4 1.3 14.1 2 72.2 10 137.5 12.1 195.8 9.2.9 0 1.7-.1 2.6-.1 3.6-.2 7.4-.3 11-.6 2.4-.1 4.8-.3 7.2-.5 30-2.2 58-5.6 84-10 .9-.1 1.8-.3 2.7-.4 47.1-8.1 87.6-19 121.3-30.2 9.7-3.2 18.4-6.8 26.2-10.6 4.6-5.2 3.4-9.3-5.4-11.8zM770 291.6V135.2c0-15 27.8-4.3 27.8-4.3v10.7c-7.1 0-12.9 5.7-12.9 12.9 0 7.1 5.7 12.9 12.9 12.9h34.3c7.1 0 12.9-5.7 12.9-12.9 0-7.1-5.8-12.9-12.9-12.9H827c2-17.9 1.8-58.3-39.8-60-53.6-2.1-55.7 55.7-55.7 55.7l2.1 154.2H770zm73.5-13.2l5.4 8.5c2.3 3.5 6.9 4.6 10.5 2.3l16-10.2 10.2 16c2.3 3.5 6.9 4.6 10.5 2.3l8.5-5.4c3.5-2.3 4.6-6.9 2.3-10.5l-10.2-16 15.9-10.2c3.5-2.3 4.6-6.9 2.3-10.5l-5.4-8.5c-2.3-3.5-6.9-4.6-10.5-2.3l-15.9 10.2-10.2-16c-2.3-3.5-6.9-4.6-10.5-2.3l-8.5 5.5c-3.5 2.3-4.5 6.9-2.3 10.5l10.2 15.9-15.9 10.2c-3.6 2.3-4.6 7-2.4 10.5zm-204.4 8.5c1.1 1.7 2.8 2.8 4.7 3.3 1.2-.1 2.5-.1 3.7-.2.7-.2 1.5-.4 2.1-.8l16-10.2 6.4 10 3.8 5.9c2.3 3.5 6.9 4.6 10.5 2.3l8.5-5.4c1.4-.9 2.3-2.2 2.8-3.7.9-2.2.8-4.7-.5-6.8l-10.2-16 15.9-10.2c1.2-.8 2-1.9 2.6-3.1 1.1-2.3 1.2-5.1-.3-7.4l-5.4-8.5c-2.3-3.5-6.9-4.6-10.5-2.3L673.3 244l-10.2-16c-2.3-3.5-6.9-4.6-10.5-2.3l-8.5 5.5c-3.5 2.3-4.6 6.9-2.3 10.5l6 9.4 4.1 6.5-15.9 10.2c-3.5 2.3-4.6 6.9-2.3 10.5l5.4 8.6z"/></svg>