<svg xmlns:xlink="http://www.w3.org/1999/xlink"  xmlns="http://www.w3.org/2000/svg" viewBox="0 0 1500 1500"><path fill="none" d="M1311.1 1008H215.2l146.2-67H600 357.3c-5.3 0-131.3 53.8-147.3 60.8v31.2h1111v-31.2c-17-5.5-96.9-43.8-134-60.8h-25.2l149.3 67zM835.1 739.8c-.2.1-.3.2-.5.3h.1c.1-.1.3-.2.4-.3zM1145.4 941H933.3zM800.7 714c-.2.4-.3.9-.5 1.3.2-.4.4-.9.5-1.3zM561.9 883H560V779.1c-8 2.8-16 3.4-25 2.2V908h25v-23.6l1.9-1.4zM695.5 590.3c6.2-4.3 7.5-8.4 15.5-10.8V156h-34v428.8c9 1.1 13.4 2.7 18.5 5.5zM711 730.2v-1.4c-8-4.7-11.2-12.5-13.4-22.8-5.7 6.8-6.1 12-8.9 14 1.1 7 3.7 15.4 6.8 23.1l15.5-12.9zM853 774.2v-13.7c-8-1.2-13.8-7-21.6-11.3-2.1 1.7-3.4 3.5-3.4 5.5v32.6l25.3-7.1s-17.3 4-25.3 10.3V883h25V781c0-.6-2.3-1.1-3.5-1.8 1.7-1.8 3.5-3.4 3.5-5zM545.9 684.4c3.1-6.3-.4-18.5.1-25.4-1.3-1 14 3.1 14 5.1V156h-25v523.4c0 1 6.4 2.7 10.9 5zM835.8 557.5c-2.1 2-7.8 6.1-7.8 10.2v8.9c8 .1 16.1 2 24.1 1.1 0 4.3-2.5 8.4-3.1 12.4 2.1.8 4 1.7 4 2.6V156h-25v402.7c0-.3 4.9-.6 7.8-1.2zM543.1 779c2.3-.3 16.9-.4 16.9-.3v-10.6c0 4.2-9.9 8.3-16.9 10.9zM970 156v575.4c8 .6 4.7 1 5.9 1-2 2-5.9 3.8-5.9 5.4V908h33V156h-33zM385 156h33v752h-33zM318 1229.8c0 3.9 5.3 54.2 36.1 54.2h818.1c30.8 0 39.8-50.3 39.8-54.2V1058H318v171.8zM435 1117h627v117H435v-117zM373.9 1334h778.5c1.4-8 2.9-17 3.9-17H370c1 0 2.5 9 3.9 17zM853 622.4v-21.1c0 1.5-4.7 3.1-7.4 4.5 1.8 4 7.4 9.9 7.4 16.6zM677 786.5V883h34v-82.6c-17-5.7-25-10.4-34-13.9zM1120 156h25v752h-25z"/><path fill="#B3CCD8" d="M560 908h16.2L560 884.4zM1161.8 941h25.2-41.7 16.5zM825 576.6v-8.9c-3 3.5-5.1 7.1-7.3 9.3 2.4-.3 4.3-.4 7.3-.4zM809.3 787c0 1.7.7 3.4.6 5.1l18.1-4.9v-32.6c-9 8.4-18.7 19.6-18.7 32.4zM1145 908h30.4l86.6 37.1V156h-117zM508.5 773.5c-.2-2.6 2.5-5.9 5.3-7.6-12.8-6.4-14.2-11.7-18.5-18.7-11.3-6.8-15.3-20.3-4.8-40.9 3.3-4.6 13.1 1.4 16.8-.2-1.5-23.4 11.7-31.2 27.7-26.8V156H418v752h117V781.4c-16-1.2-20.1-3.9-26.5-7.9zM868.5 759.8c-4.9 1-9.5 1.1-12.5.7v13.7c2-4.7 2.8-8.8 12.5-14.4zM800.7 714s-.5-.4-1.2-.9l.7 2.3c.2-.5.4-1 .5-1.4zM1003 156h117v752h-117zM932.6 740.7c20.9 17.2-4.6 13.6-21.8 9.7-8.1 28.9-24.8 44-57.8 30.6v102h115.1L955 908h15V737.8c-8 9.3-21.3 12.1-37.4 2.9zM808.4 800.1c-2.8 22.2-12.4 41-12.4 41l14.5 41.9H828v-92.7c-9 2.9-14 6.2-19.6 9.8zM710 729.4c-.3-.2-.6-.4-.8-.6v1.4l.8-.8zM720.2 766.7c31.2 0 56.2 40.7 56.2 40.7l6.3-27.2 10-65.4c-8.1 5.1-16.8 6.7-23.6 5.6 1.2 1.2 2 3.1 2.2 5.6-12.1 8.9-28.2 11.3-40.3 5.3-4.4 2.6-9.1 3.2-13.6 2-4.8 9.3-8.1 19.8-7.4 30.8 3 1.6 6.4 2.6 10.2 2.6zM671.2 783.7c-7.9-1.8-15.3-3.4-22.3-4.8-7.2 23.4-12.1 25.3-34.3 15.9 3.6 24.4-30.1 13.7-45.2-7.8 13.1-16.6 24.4-25.9 45.5-27.2-3.7-.6-32.3 1.3-45.6 2.3-3.1 1.9-.3 3.9-9.3 5.9v10.6s1.2 0 1.6.1c-.5.2-1.6.3-1.6.4V883h117v-96.5c0-1-3.9-2-5.8-2.8zM739.9 813.9c-10.8-5-20.9-9.4-28.9-13.5V883h28.4c9-8 37.8-51.7.5-69.1z"/><path fill="#B3CCD8" d="M670.3 739.8l-.3-.3c-10.5 11-23.1 28.7-30.6 33.1 2 .5 4.1 1.4 6.1 1.4H665l5.3-34.2zM563.3 665.1c-6.1-13.6 12.1-25.9 39.3-15.3.1-29.5 17.1-31.4 40.2-18.5-.6-1.2-7.7-16.9-9.2-19.6 8.7 1 21.2-.8 29.9-2.5-7-9-6.4-15.5-11.6-24.6 8.5-1.2 17.2-1.1 25.2.3V156H560v508.1c0 .4 3 .8 3.3 1zM720.1 577.5c2 5.3 1.1 11.7 1.5 17.1 3.8.5 6.9 1 10.1 1.4.7-2.4 2.3-4.6 5.6-6.5-3 .5-4.9.6-3.8-.2 9.6-32.9 56.6-33 68.2-20 5.5-14.2 1.2-7.7 26.2-10.5V156H711v423.5c0-1.5 4.8-2.2 9.1-2zM861.1 596.9c-2.8 1-.1 2.6-8.1 4.5v21.1c8 6.5 7.2 13.7 9.4 20.2 6.7-12 13.2-11.3 18.7-17.5 4 5.1-2.1 13.9 2.5 18.8 6.7-1.2 8.4-10.2 16.6-5.2 3 14.2 4.3 26.5 3.7 39.3 9.4-4.3 23.3 1.7 26.1 21 22.1 4.3 30.7 19.9 39.5 26-5.2-1-17.5.2-23.1 1 6.5.6 15.7 3.7 23.7 5.4V156H853v436.8c8 1.3 5.6 2.6 8.1 4.1zM385 908V156H268v769h46.9l36.1-17z"/><path fill="#7B6648" d="M1263 945.7l-87.6-37.7H955l-4.3 8.8-13 24.2H1169c1.1 0 9 1.7 19.1 6 37.1 15.9 115.9 49.3 132.9 54.8v31.2H932.9 210v-31.2c16-7 142-60.8 147.3-60.8h237.9L581 916.8l-4.7-8.8H351l-36.3 14.8L176 981.4v76.6h109v173.7l-.1.9c2.9 26.5 16.9 67 50.6 78.5l14.2 47.9h76.5l20.4 34h77.2l20.4-34H982l20.4 34h77.2l20.4-34h76.5l12.7-47.3c35-10.7 51.6-53 54.6-79.9l2.3-.1V1058h100v-76.6l-83.1-35.7zM1152.4 1334H902.1 373.9c-1.4-8-2.9-17-3.9-17h786.2c-.9 0-2.4 9-3.8 17zm59.6-104.2c0 3.9-9 54.2-39.8 54.2H354.1c-30.8 0-36.1-50.3-36.1-54.2V1058h894v171.8zM415.9 156H1296v-17H235v17h150z"/><path fill="#7B6648" d="M435 1117h627v117H435z"/><path fill="#7DA9BE" d="M215.2 1008h1095.9l-149.3-67H933.3l-17.4 34H619l-19-34H361.5z"/><path fill="#7C5F47" d="M806.8 800.1c5.7-3.6 12-6.9 18.1-9.8 13.3-6.2 25.3-10.3 25.3-10.3l-25.3 7.1-17.3 4.9c.1-1.7.1-3.4.1-5.1 0-12.8 8.4-24.1 17.2-32.4 2.1-2 4.3-3.9 6.3-5.5-1.7-1-3.6-1.4-5.5-2.1 1.7-1 5.3-5.9 9-5.9h-.1c-3.3 0-6.5 2.6-9.7 3.4-4.9 1.2-9.9 1.4-15.3 1.3-4.1 0-8.4-.3-13.2-.4-.2 0-.4-.1-.6-.1-2.1-11.1 1.2-20.1 4.5-30l-.7-2.3c-.5-.5-1.2-1-2-1.7-1.6 1.3-3.2 2.4-4.8 3.5l-10 65.4-6.3 27.2s-25-40.7-56.2-40.7c-3.9 0-7.3-1-10.3-2.6-.7-11 2.6-21.5 7.4-30.8-2.6-.7-5.1-2-7.4-3.8l-.8.7-14.9 12.9c-3-7.7-4.9-16.1-6.1-23.1-1.7 1.2-4.4 1.3-10-.2-3.6-.9-8.5-2.5-15.2-4.9 4.5 4.3 9.7 14.5 14.3 17.7-2.2 1.6-4.8 4-7.4 6.8l.3.4L665 774h-19.6c1.7 0 3.4.4 5.1.7-.5 1.6-.9 2.9-1.3 4.3 7 1.4 14.7 3 22.6 4.8 1.8.8 4 1.7 6.4 2.8 7.7 3.4 18.2 8.1 30.9 13.9 9 4.1 19 8.5 29.8 13.5 37.3 17.4 9.4 61.1.4 69.1h71.1l-15.2-41.9c0-.1 8.8-19 11.6-41.1z"/><path fill="#7D9A61" d="M969.5 725c-8.8-6.1-17.4-21.7-39.5-26-2.8-19.3-16.7-25.3-26.1-21 .6-12.9-.6-25.2-3.6-39.3-8.2-4.9-9.7 4.1-16.4 5.2-4.6-4.9 1.9-13.7-2.1-18.8-5.5 6.2-11.3 5.4-18 17.5-2.2-6.5-5.2-13.6-8-20.2-2.9-6.6-5.6-12.6-7.4-16.5 2.7-1.5 5.1-3.1 7.4-4.5 2.8-1.8 5.4-3.5 8.1-4.5-2.5-1.4-5.3-2.8-8.1-4.1-2-.9-4.1-1.8-6.2-2.6.5-4 1-8.2.9-12.4-8 .9-16.9-1-25.6-1.1-2.5 0-4.9 0-7.3.4 2.2-2.2 4.8-5.7 7.3-9.3 2.9-4.1 5.7-8.2 7.8-10.2-2.9.5-5.5.9-7.8 1.2-22.7 2.9-19.2-3.7-24.7 10.5-11.6-13-57.1-12.9-66.7 20-1.2.9.7.8 3.7.2-3.3 2-5 4.1-5.7 6.5-3.2-.4-6.5-.9-10.4-1.4-.4-5.4 0-11.8-2-17.1-4.3-.2-7.4.5-10 2-4.4 2.4-7.7 6.5-13.9 10.8-5.2-2.8-11-4.4-17-5.4-8.4-1.4-17.3-1.5-25.8-.3 5.2 9.1 4 15.6 11.1 24.6-8.7 1.8-21.1 3.6-29.8 2.5 1.5 2.7 8.8 18.5 9.4 19.6-23.1-12.8-39.7-10.9-39.8 18.5-27.2-10.7-44.8 1.7-38.7 15.3-.3-.2-1-.5-2-.9-5.1-2-17.5-6.1-16.1-5.1-.4 6.9 1 19.2-2.2 25.4-4.5-2.3-8.7-4-12.6-5-16.8-4.5-27.7 3.4-26.1 26.8-3.7 1.5-12-4.5-15.2.2-10.5 20.5-6.7 34 4.6 40.9 4.3 7 5.3 12.3 18.1 18.7-2.7 1.7-6.3 5-6.1 7.6 6.4 4 15.2 6.7 24.8 7.9 10.2 1.2 21.1.6 30.9-2.2.5-.2 1.1-.2 1.6-.4-.4 0-1 0-1.6-.1-4.6-.1-14.6.1-16.9.3 7-2.6 11.6-6.7 16.9-10.9 2.4-2 5-3.9 8.1-5.9 13.3-1.1 40.6-3 44.3-2.3-21.1 1.3-32.3 10.5-45.4 27.2 15.1 21.5 48.9 32.1 45.3 7.8 22.2 9.4 27.3 7.5 34.5-15.9.4-1.4.9-2.9 1.3-4.4-1.7-.3-3.4-.7-5.1-1-2-.4-4.1-.7-6.1-1.2 7.5-4.3 20.1-21.9 30.6-32.9 2.6-2.8 5.2-5.2 7.4-6.8-4.5-3.1-9.7-13.4-14.3-17.7 6.7 2.3 11.5 3.9 15.2 4.9 5.6 1.5 8.3 1.4 10 .2 2.7-2 2.7-7.2 8.4-14 2.2 10.3 6.9 18.1 12.5 22.8.3.2.6.4.8.6 2.3 1.8 4.8 3.1 7.4 3.8 4.5 1.2 9.2.7 13.6-2 12.1 6 28.3 3.7 40.3-5.3-.2-2.5-.9-4.4-2.2-5.6 6.8 1.1 15.6-.5 23.6-5.6 1.6-1 3.3-2.1 4.8-3.5.8.7 1.5 2.3 2 2.8.6.5 1.1 1.9 1.2 1.9-.2 0-.3-.1-.5.3-3.3 9.9-6.7 18.3-4.5 29.5.2 0 .4-.3.6-.2 4.8.1 9.2.1 13.2.2 5.5 0 10.4-.4 15.3-1.6 3.2-.8 6.4-2.1 9.7-3.9.2-.1.3-.2.5-.3-.1.1-.3.2-.4.3-3.7 2.7-7.3 5.3-9 6.4 2 .7 3.8 1.6 5.5 2.6 7.8 4.3 13.9 10.2 24.5 11.3 3.6.4 7.6.3 12.5-.7-9.7 5.6-10.2 9.7-12.5 14.4-.8 1.6-1.8 3.3-3.5 5.1 1.2.7 2.4 1.2 3.5 1.8 27.4 13.4 48.7-1.7 56.7-30.6 17.2 4 41.7 7.5 20.8-9.7 16.1 9.2 27.1 6.4 38.2-2.9 2-1.6 3.9-3.4 5.9-5.4-1.3 0-3.4-.4-5.9-1-7.2-1.6-17.9-4.7-24.4-5.4 5.7-1.2 17.2-2.4 22.4-1.4z"/><path fill="#AB5153" d="M855.8 883H561.9l.6 1.2 13.7 22.4 4.8 7.8 14.2 23.2 4.8 7.1 19 30.3h296.9l17.4-30.3 4.4-7.4 13-23 4.3-7.9 13.1-23.4z"/></svg>