<svg xmlns:xlink="http://www.w3.org/1999/xlink"  xmlns="http://www.w3.org/2000/svg" viewBox="0 0 2000 2000"><path fill="#8EBD64" d="M259.7 1025.6l719.3 463v-253.5l-715.2-452z"/><path fill="#659E7D" d="M979 1652.6V1532L89.8 942.9l-7.4 27.6L979 1654v-2.3z"/><path fill="#A5CA81" d="M979 1488.6l725.2-463-7-242.5-718.2 452z"/><path fill="#7DAD90" d="M982.8 1651.7L1881.5 969l-7.5-27.5-895 589.8v121.3z"/><path fill="#FFBF5E" d="M1497.9 859.1c-24.4-276.7-256.6-493.7-539.6-493.7-272.1 0-497.3 200.6-535.9 462l558.7 357.3 516.8-325.6zM957.8 125.9L934.2 343h52.3zM409.8 714l-214.5-43.7 197.5 93.1zM622.2 429.8L470.1 272.3l110.1 188.6zM1736.1 670.3L1521.5 714l17.1 49.4zM1461.3 272.3l-152.2 157.5 42.1 31.1z"/><path fill="#FFBF86" d="M750.1 1538.6l-225-188.8s-23.1 72.9 36.6 135.8c59.6 63 102.7 102.7 102.7 102.7l-9.9 26.5-195.4-202.1-72.9-178.9-86.1-72.9 59.6 251.8 195.5 365.8-3.3 87.5H796v-247.9c0-43.1-45.9-79.5-45.9-79.5z"/><path fill="#FFBF86" d="M273.6 1157.7l-62.9-49.7 86.1 318 212 301.4-165.6-318zM1598.8 1412.7l59.6-251.8-86.1 72.9-72.9 178.9-195.4 202.1-9.9-26.5s43.1-39.7 102.7-102.7 36.4-135.8 36.4-135.8l-224.5 188.8s-45.6 36.4-45.6 79.5V1866h243.6l-3.3-87.5 195.4-365.8z"/><path fill="#FFBF86" d="M1615.3 1409.4l-165.6 318 212-301.4 86.1-318-62.9 49.7z"/></svg>