<svg xmlns:xlink="http://www.w3.org/1999/xlink"  version="1" xmlns="http://www.w3.org/2000/svg" viewBox="0 0 150 150"><path fill="#3C3D4F" d="M11.5 108.1c0-35.5 28.2-64.3 63-64.3s63 28.8 63 64.3c0 7.8-1.4 15.3-3.9 22.3 4.2-8.7 6.6-18.4 6.6-28.7 0-36.4-29.5-65.9-65.9-65.9s-66 29.5-66 65.9c0 12 3.2 23.2 8.8 32.9-3.6-8.1-5.6-17.1-5.6-26.5z"/><path fill="#FDC711" d="M21.2 111.4c0-29.8 23.6-53.9 52.7-53.9s52.7 24.1 52.7 53.9c0 6.6-1.1 12.8-3.2 18.6 3.5-7.3 5.5-15.4 5.5-24 0-30.5-24.7-55.2-55.2-55.2-30.5 0-55.2 24.7-55.2 55.2 0 10 2.7 19.4 7.4 27.5-3.1-6.8-4.7-14.2-4.7-22.1z"/><path fill="#F05C74" d="M132.6 29.8c-7.8 2.7-10.7 8.6-8 16.4-2.7-7.8-8.6-10.7-16.4-8 7.8-2.7 10.7-8.6 8-16.4 2.7 7.8 8.6 10.7 16.4 8z"/><path fill="#FDC711" d="M130.6 14.6c-4.7 1.6-6.5 5.2-4.8 9.9-1.6-4.7-5.2-6.5-9.9-4.8 4.7-1.6 6.5-5.2 4.8-9.9 1.6 4.6 5.2 6.4 9.9 4.8zM139 17.8c-2.1.7-2.9 2.3-2.2 4.5-.7-2.1-2.3-2.9-4.5-2.2 2.1-.7 2.9-2.3 2.2-4.5.8 2.1 2.4 2.9 4.5 2.2z"/><path fill-rule="evenodd" clip-rule="evenodd" fill="#3C3D4F" d="M71.8 133.7c-.1.1-.2.1-.2.2.2 0 .2 0 .2-.2zM43.1 74.1c-10.6 20.7-5.8 35.6 9.2 56.5-6.2 3-16.5 3.3-27.1-2.9 5.7 8.5 27.5 19.2 46.4 6.2-3.1-.9-35.2-29.6-28.5-59.8zm-2.5 48.6c1.4-4.2-.9-8.8-5.2-10.2-4.2-1.4-8.8.9-10.2 5.2-1.4 4.2.9 8.8 5.2 10.2 4.3 1.3 8.8-1 10.2-5.2z"/><path fill-rule="evenodd" clip-rule="evenodd" fill="#F05C74" d="M76.2 131c-.1 0-.2-.1-.2-.1 0 .2.1.2.2.1zm37.7-54.3c-23.2 1-33.9 12.5-44.6 35.8-5.7-3.9-11-12.7-10.8-25.1-4.6 9.2-3.2 33.4 17.4 43.4-.8-3 8.4-45.1 38-54.1zM70.4 98.4c4.4-.9 7.2-5.1 6.3-9.5-.9-4.4-5.1-7.2-9.5-6.3-4.4.9-7.2 5.1-6.3 9.5.9 4.4 5.2 7.2 9.5 6.3z"/><path fill-rule="evenodd" clip-rule="evenodd" fill="#FDC711" d="M97.3 119.1c5.7-12.9 15.7-27.5 31.9-32.4-23 .9-33.7 12.3-44.3 35.1v.1c-.3.7-.6 1.7-1 2.4-.1.4-.4 1.3-.5 1.5-.4 1.6-.8 3.1-1.4 4.7-.3.8-.7 1.6-1.1 2.2 6.3-4 28.4-8.4 44.2-2.9-8.8-8.9-17.3-11.7-27.8-10.7z"/><circle fill-rule="evenodd" clip-rule="evenodd" fill="#FDC711" cx="114.6" cy="110.3" r="8.1"/></svg>