<svg xmlns:xlink="http://www.w3.org/1999/xlink"  version="1" xmlns="http://www.w3.org/2000/svg" viewBox="0 0 150 150"><path fill="#FDBC11" d="M74.7 77.1c.2 0 .4 0 .6.1v-7.4c-.2 0-.4-.1-.6-.1-4 0-7.7 1.6-10.5 4.3-.5.5-.9 1.1-1.4 1.6-1.9-1.4-4.2-2.3-6.7-2.3-.2 0-.4.1-.7.2l15.1-25.2 3.9-6.6.7 1.2v-1.4c-2.4-2.3-22.5-19.9-68.8-25.1v108.4s24 .4 45.9 7.7v-48c0-2.1 1.7-3.7 3.7-3.7s3.7 1.6 3.7 3.7v50.7c2.6 1.1 5 2.3 7.4 3.6V84.5c.3-4.1 3.6-7.4 7.7-7.4z"/><path fill="#F68E1E" d="M144.3 15.7c-49.5 5.5-69 25.3-69 25.3V42.8l3.6 5.6 15 25c-.2 0-.4-.1-.6-.1-2.5 0-4.7 1-6.6 2.4-.4-.6-.9-1.2-1.5-1.8-2.7-2.7-6.2-4.2-9.9-4.3V77c3.8.3 6.9 3.4 6.9 7.4V139c2.4-1.4 4.9-2.7 7.4-3.8V84.5c0-2 1.7-3.7 3.7-3.7s3.7 1.6 3.7 3.7v47.7c22.3-7.7 47.3-8.1 47.3-8.1V15.7z"/></svg>