<svg xmlns:xlink="http://www.w3.org/1999/xlink"  xmlns="http://www.w3.org/2000/svg" viewBox="0 0 2000 2000"><g fill="#5B784D"><path d="M1197.5 361.4s133.6 223.7 68.7 511.5c-261.2-436.9-746.9-469-746.9-469 411.6 171.5 590.3 462.1 658.7 744-95.5-64.8-378.8-225.2-691.8-97.5 0 0 442.2-107.3 719.5 256 32.5 287.2-31.1 537.6-50.6 607.6h240.6c63.6-391 27.4-682.8-59.1-897.6 37.2-145.5 59.5-405.1-139.1-655z"/><path d="M646.2 624.2s63.8 23.4 89.3-32.8c0-.1-48.7-50.2-89.3 32.8zM798.9 968.7s75.2-71.3-47.1-133.1c0-.1-35.9 94.2 47.1 133.1zM865.7 660.5s-72.2-74.3-132.5 48.8c-.1 0 94.7 34.6 132.5-48.8zM925.8 1438.1s71.5 43.4 115.6-18.4c0 0-46.8-72-115.6 18.4zM602.2 1199.9s99.5-16.6 91.2-107.8c0 0-95.3-16.6-91.2 107.8zM882.9 1294.9s71.7-71 12.3-140.7c0 0-98 33.8-12.3 140.7zM1604.6 899.4s-20.8 83.3 92.3 72c0 0-17-81.9-92.3-72zM1623.3 736.7s66.3 54.6 104.7-52.3c0 0-81.2-19.9-104.7 52.3zM955.6 873.6s-24.5 64.4 32.1 90.9c.1 0 51.4-48.7-32.1-90.9zM1514.5 442.4s66.3 54.6 104.7-52.3c0 0-81.2-19.8-104.7 52.3zM1405.8 935s66.3 54.6 104.7-52.3c0 0-81.2-19.9-104.7 52.3zM1409.9 673.8s66.3 54.6 104.7-52.3c0 .1-81.2-19.8-104.7 52.3zM512.1 895.3s18.3 99.2 109.4 89.3c0 0 22.2-108.1-109.4-89.3zM1130.7 561.1s67.6 43 98.8-4.8c-.1 0-49.5-64.7-98.8 4.8zM1073.3 427.7s15.8-79.8-68.9-70.9c0 0 12.4 79.1 68.9 70.9zM949.8 230.2s48.9-70.6-60.9-99.9c0-.1-13 82.5 60.9 99.9zM1386.4 410.3s-71.8 35.4-47.3 86.8c0 0 80.9-8.5 47.3-86.8zM749 364.9s75.2-71.3-47.1-133.1c0 0-35.8 94.3 47.1 133.1zM1171.9 331.7s75.2-71.3-47.1-133.1c0 0-35.9 94.3 47.1 133.1zM1387.6 214s-72.4 41.7-39.5 110.1c-.1.1 85.6-6.2 39.5-110.1zM501.3 400s22.2-108-109.4-89.3c0 0 18.4 99.2 109.4 89.3zM573.2 507.6S477.9 491 482 615.4c0 0 99.5-16.6 91.2-107.8zM378.3 1158.5s99.5-16.6 91.2-107.8c.1 0-99.4-29-91.2 107.8zM335.8 769.1s73.8 68.8 141.1 6.6c0 0-37.7-96.5-141.1-6.6zM271.1 961.9s49.7 47.6 96.2 5.8c0 0-24.8-66.2-96.2-5.8zM367.3 545.5s-24.8-66.3-96.2-5.8c0 0 49.7 47.6 96.2 5.8z"/></g></svg>