<svg xmlns:xlink="http://www.w3.org/1999/xlink"  version="1" xmlns="http://www.w3.org/2000/svg" viewBox="0 0 150 150"><linearGradient id="a" gradientUnits="userSpaceOnUse" x1="751.516" y1="-127.423" x2="755.054" y2="-131.805" gradientTransform="matrix(-.7382 -.6745 .3639 -.3983 696.641 472.165)"><stop offset="0" stop-color="#bed637"/><stop offset="1" stop-color="#5ab478"/></linearGradient><path fill="url(#a)" d="M93 15c-.4.7-.3 1.7.2 2.1.5.4 1.3.1 1.7-.6.4-.7.3-1.7-.2-2.1-.5-.4-1.3-.1-1.7.6z"/><path fill="#96BF3E" d="M84.9 92.3c-.4.7-.3 1.7.2 2.1.5.4 1.3.1 1.7-.6.4-.7.3-1.6-.2-2.1-.6-.4-1.3-.2-1.7.6z"/><linearGradient id="b" gradientUnits="userSpaceOnUse" x1="691.892" y1="-208.639" x2="693.93" y2="-211.163" gradientTransform="matrix(-.7382 -.6745 .3639 -.3983 696.641 472.165)"><stop offset="0" stop-color="#bed637"/><stop offset="1" stop-color="#5ab478"/></linearGradient><path fill="url(#b)" d="M108.5 88c-.2.4-.2 1 .1 1.2.3.2.7.1 1-.3.2-.4.2-1-.1-1.2-.3-.3-.7-.1-1 .3z"/><path fill="none" d="M71.8 55.8c-.1-.7-.3-1.4-.4-2.1-.9-1.2-1.8-2.4-2.6-3.6-4.4 4.2-8.1 8.5-10.8 12.7.9.8 1.9 1.6 3 2.4 1.6-3.3 5.5-6.6 10.8-9.4zM77.1 40.2c1.1-3.7 2.4-7.1 3.9-10.3-.7-.1-1.4 0-2.1.2-3.3 1-5.3 5.1-5.9 10.9 1 0 2-.1 3.1-.1.4-.2.7-.5 1-.7zM113.1 58.9c-.7 3.5-1.5 6.8-2.4 10.1 2.5-1.4 4.7-2.9 6.3-4.5-.4-2.5-1.3-5.2-2.5-8.1-.4.5-.8 1.1-1.2 1.6-.1.3-.1.6-.2.9zM61.1 53.6c-1.3-.1-1.1-2.1.2-1.9.9.1 1 1 .6 1.6 1.7-1.8 3.5-3.5 5.4-5.2-.6-1-1.2-1.9-1.8-2.9-6.7 1.3-11.3 4.1-12.1 8.1-.5 2.3.4 4.8 2.3 7.2 1.8-2.3 3.8-4.7 6-7-.1.1-.3.1-.6.1zM80.6 78.5c-1.1 0-2.2 0-3.3-.1.3 1.4.6 2.7 1 3.9 1.2-.5 2.4-1.1 3.6-1.8-.4-.6-.9-1.3-1.3-2zM101 83.6c.3-.5.6-.9.9-1.4h-.4c-.1.5-.3 1-.5 1.4zM84.2 83.5c-1.5.9-3 1.7-4.5 2.5 1.8 3.9 4.3 6.3 7.4 6.9 3.2.6 6.6-1 9.8-4.1-.4.2-.7.3-1.1.5-3.6 1-7.7-1.3-11.6-5.8zM80.3 41c4.3.2 8.8.7 13.4 1.5-1.4-2.7-2.9-5-4.5-6.9-2.9 1.5-5.9 3.2-8.9 5.3v.1zM73 60.8c-.2-.8-.4-1.7-.6-2.5-4.5 3-7.1 6.5-6.8 9.6 2.1 1.1 4.5 2.2 7 3.1-.1-3.2 0-6.6.4-10.2zM117.3 67.8c-2.1 1.6-4.7 3.1-7.6 4.4-.3.9-.6 1.9-1 2.8 3.4-.7 6.1-1.8 8.1-3.3.4-1.2.6-2.5.5-3.9zM101.9 30.9c.5.6 1.1 1.2 1.6 1.9 3.4 4.1 6.4 8.4 8.9 12.5.3-5.3 0-10.1-.7-14.4-2.6-.8-5.9-.8-9.8 0zM87.4 81.5c2.4 2 4.9 2.8 7 2.2 1.1-.3 2-1 2.8-1.9-2.7-.3-5.4-.8-8.2-1.3-.5.3-1 .7-1.6 1zM99.8 28.5c4-1.2 7.8-1.9 11-1.8-1.8-6.4-4.9-10.7-9-11.5-3.5-.7-7.2 1.2-10.6 5 2.8 2.5 5.8 5.3 8.6 8.3zM114.5 48.6c.1.1.3.1.4.2 3-6.3 3.6-11.8.9-15.1-.4-.5-.8-.9-1.3-1.2.5 4.8.6 10.3 0 16.1zM96.2 43c.3.1.6.1.9.2 0-.1.1-.2.1-.3.2-.4.7-.6 1-.3.2.2.3.6.2.9 3.7.8 7.2 1.9 10.6 3-1.5-2.2-3.1-4.4-4.9-6.6-2.3-2.8-4.7-5.3-7.1-7.5-2 .6-3.9 1.4-6 2.3 1.7 2.3 3.3 5.1 4.8 8.2.2 0 .3 0 .4.1z"/><path fill="none" d="M77.5 26.5c1.5-.4 3.2-.3 4.9.5.6-1.2 1.2-2.4 1.9-3.5-5.5-2.6-10.3-3-13.2-.6-3.6 3-3.5 9.5-.5 17.3.5-7.3 2.9-12.6 6.9-13.7zM76 23.4c1.3.1 1.1 2.1-.2 1.9-1.2-.1-1.1-2 .2-1.9zM89.5 32.7c1.8-.9 3.5-1.7 5.2-2.4-2.5-2.1-4.9-3.8-7.3-5.2-.7 1.1-1.4 2.3-2.1 3.5 1.4 1.1 2.8 2.5 4.2 4.1zM106.2 73.6c-1.1.4-2.3.8-3.4 1.2v.5c.3.1.5.2.8.3.6-.1 1.3-.1 1.9-.2.2-.5.4-1.1.7-1.8zM60.1 70c0-.2-.1-.4-.1-.6-1.5-1-2.9-2-4.2-3-3.7 6.9-4.6 13.1-1.7 16.7 3.3 4.1 10.7 4.2 19.6 1-.4-1.9-.7-4-.9-6.2-7-1.1-11.9-3.8-12.7-7.9zm1.5 6.2c-1.3-.1-1.1-2.1.2-1.9 1.2 0 1.1 2-.2 1.9zM98.9 48.3L98 48c0 .1.1.2.1.4.3-.1.6-.1.8-.1zM102.8 69.6c0 1 .1 1.9.1 2.8 1.6-.5 3.1-1.1 4.5-1.8 1-2.7 1.8-5.5 2.5-8.5-2.2 2.6-4.5 5.1-7.1 7.5zM89.2 49.7c2.5-.5 4.9-.9 7.3-1.2-.1-.4-.3-.8-.5-1.2-2-.6-4.1-1.1-6.2-1.5-3.6-.7-7.1-1.2-10.5-1.4-.6 2.1-1.1 4.3-1.5 6.5-.1.7-.2 1.3-.4 2 0 .1.1.1.1.2 3.6-1.4 7.5-2.5 11.7-3.4zM75.6 44.3l-1.2.9c-.4.3-.7.6-1.1.9.5.9 1 1.8 1.6 2.7.3-1.6.7-3.1 1.1-4.6-.1.1-.2.1-.4.1zM84.2 31c-.9 1.9-1.8 4-2.6 6.2 2-1.3 4-2.5 6-3.5-1.1-1.1-2.3-2.1-3.4-2.7zM98.1 53.5c-.3-1.2-.7-2.3-1.1-3.4-2.1.2-4.3.6-6.6 1-4.3.9-8.2 2.2-11.6 3.6.9 1.2 1.8 2.4 2.8 3.6 4.5 5.4 9.3 9.8 14 13 1.7-1.4 3.3-2.8 4.9-4.2-.2-4-1-8.7-2.4-13.6zm-2 9.3c-1.3-.1-1.1-2.1.2-1.9 1.3 0 1.1 2-.2 1.9zM98.7 50c.5 1.3.9 2.6 1.3 4 1.1 3.9 1.9 7.8 2.4 11.4 3.6-3.5 6.6-7.1 9-10.6 0-.2.1-.5.1-.7-2.4-1.6-5.3-3-8.4-4.3-1.4 0-2.9.1-4.4.2zM76.4 70.4c0 .7.1 1.3.1 2l.9.3c-.4-.7-.7-1.5-1-2.3zM83.9 74.3c2.1.4 4.1.8 6.1 1 .1 0 .3 0 .4-.1.6-.4 1.1-.8 1.7-1.2-5.2-3.6-10.5-8.3-15.6-14-.1 1.2-.2 2.4-.2 3.6 1.3 3.7 2.9 7.2 4.6 10.1 1.1.2 2 .4 3 .6zM98.6 73.3c.2.1.3.2.5.3.4-.1.9-.2 1.3-.4.1-.5.1-1 .1-1.5-.7.5-1.3 1.1-1.9 1.6z"/><path fill="#96BF3E" d="M97.9 73.9l1.2-.3c-.2-.1-.3-.2-.5-.3-.3.2-.5.4-.7.6zM81.6 58.4c-1-1.2-1.9-2.4-2.8-3.6-.6.3-1.2.5-1.7.8-.2 1.5-.4 3-.5 4.4 5.1 5.7 10.4 10.4 15.6 14 1.1-.8 2.2-1.7 3.4-2.6l.1-.1c-4.7-3-9.6-7.5-14.1-12.9zM117.3 67.8c0 1.5-.1 2.8-.4 3.9 1.8-1.3 3-2.9 3.4-4.7.1-.6.1-1.2.1-1.8-.9.8-1.9 1.7-3.1 2.6zM70.5 45.3v-.9c-1.8.1-3.4.4-4.9.7.6 1 1.2 1.9 1.8 2.9 1-.9 2-1.8 3.1-2.7zM99.8 28.5c-2.8-3.1-5.8-5.9-8.7-8.3-1.3 1.4-2.5 3-3.7 4.9 2.4 1.4 4.8 3.2 7.3 5.2l5.1-1.8zM74.9 48.9c-.6-.9-1.1-1.8-1.6-2.7-.1.1-.3.2-.4.3.1 2.5.4 5.1.9 7.8.1-.9.3-1.8.5-2.7l.6-2.7zM102.7 75.8c.3 0 .5 0 .8-.1-.3-.1-.5-.2-.8-.3v.4zM99.9 75.9v-.2c-.2.1-.4.1-.6.2h.6zM70.6 40.1c-3-7.8-3.1-14.3.5-17.3 2.9-2.4 7.7-2 13.2.6 1.2-2.1 2.5-4 3.8-5.7-11.4-8.5-22.3-11.8-27.8-7.2-6 5-4.2 17.7 3.5 31.6 2.1-.4 4.3-.8 6.7-1 0-.3 0-.6.1-1zM77.5 53v.2c.1 0 .1 0 .2-.1-.1 0-.2-.1-.2-.1zM114.5 56.3l-.1.1c1.2 2.9 2.1 5.6 2.5 8.1 1-.9 1.7-1.9 2.3-2.9-.9-1.7-2.6-3.6-4.7-5.3zM104 39.8c1.8 2.2 3.4 4.4 4.9 6.6l3.3 1.2c.1-.8.1-1.6.2-2.3-2.5-4.1-5.5-8.4-8.9-12.5-.5-.6-1.1-1.3-1.6-1.9-1.6.3-3.3.8-5 1.4 2.4 2.2 4.8 4.8 7.1 7.5zM68.8 50.1c.8 1.2 1.7 2.4 2.6 3.6-.3-1.8-.6-3.6-.7-5.3-.7.6-1.3 1.2-1.9 1.7zM77.1 77.3c.1.4.1.7.2 1.1 1.1.1 2.1.1 3.3.1l-.1-.1c-1.2-.3-2.3-.7-3.4-1.1zM110.7 69c-.3 1.1-.6 2.1-1 3.2 2.9-1.3 5.5-2.8 7.6-4.4 0-1-.2-2.1-.4-3.2-1.5 1.5-3.7 3-6.2 4.4zM102.8 72.4c0 .8 0 1.7-.1 2.5 1.2-.4 2.3-.8 3.4-1.2.4-1 .8-2 1.1-3-1.3.6-2.8 1.2-4.4 1.7z"/><path fill="#96BF3E" d="M100.2 74.2c0-.3.1-.6.1-1-.4.1-.8.2-1.3.4l1.2.6zM98.7 50c1.5-.1 2.9-.1 4.3-.1-1.3-.5-2.7-1.1-4.1-1.5-.3 0-.5 0-.8.1.3.4.4.9.6 1.5zM97 50.1c-.2-.5-.4-1.1-.6-1.6-2.4.3-4.8.6-7.3 1.2-4.2.9-8.1 2.1-11.6 3.4.4.6.8 1.1 1.2 1.7 3.4-1.5 7.4-2.8 11.6-3.6 2.4-.5 4.6-.8 6.7-1.1zM90 75.4h.3l.1-.1c-.1 0-.2 0-.4.1zM72.3 58.3c-.2-.8-.4-1.7-.6-2.5-5.3 2.8-9.1 6.1-10.9 9.4 1.4 1 2.9 1.9 4.6 2.8-.2-3.2 2.4-6.7 6.9-9.7zM60 69.4c0 .2.1.4.1.6.9 4 5.7 6.8 12.8 7.9-.1-.7-.1-1.5-.2-2.2-4.8-1.8-9.1-4-12.7-6.3z"/><path fill="#589040" d="M99 73.6l-1.2.3c-.4.4-.8.7-1.3 1-.4.3-.8.6-1.1.9 1.3.1 2.6.1 3.8.1.2-.1.4-.1.6-.2l.3-1.5c-.3-.2-.7-.4-1.1-.6zM78.8 54.8c-.4-.6-.8-1.1-1.2-1.7-.1 0-.1 0-.2.1-.1.8-.3 1.6-.4 2.4.7-.3 1.2-.5 1.8-.8zM117.3 67.8c1.1-.8 2.2-1.7 3-2.6-.1-1.2-.5-2.3-1.1-3.5-.6 1-1.3 1.9-2.3 2.9.3 1.1.4 2.1.4 3.2z"/><path fill="#96BF3E" d="M98.2 42.5c-.3-.2-.7-.1-1 .3-.1.1-.1.2-.1.3.4.1.9.2 1.3.3.1-.3 0-.7-.2-.9zM102.4 65.4c.2 1.4.3 2.8.4 4.2 2.6-2.4 5-4.9 7.1-7.4.4-1.6.8-3.3 1.1-5 .2-.8.3-1.6.4-2.4-2.4 3.5-5.4 7.1-9 10.6zM100.5 67.3c-1.5 1.4-3.2 2.8-4.9 4.2 1 .7 2 1.3 2.9 1.9.6-.5 1.3-1.1 1.9-1.6.1-1.5.1-3 .1-4.5zM54.2 83.1c-2.9-3.7-2.1-9.8 1.7-16.7-1-.8-1.9-1.6-2.7-2.4-6.9 10.1-9.1 19.4-5 24.6 4.3 5.4 14.6 4.9 26.6-.2-.4-1.3-.7-2.7-1-4.1-8.9 3-16.3 2.9-19.6-1.2zM88.6 80.4c-1.1-.2-2.1-.5-3.1-.7.7.7 1.3 1.3 2 1.8.5-.3 1.1-.7 1.6-1.1h-.5zM93.3 74.8c-.4-.3-.8-.5-1.1-.8-.6.4-1.1.8-1.7 1.2.9 0 1.9-.2 2.8-.4zM81.9 80.5l-3.6 1.8c.4 1.3.9 2.6 1.4 3.7 1.5-.8 3-1.6 4.5-2.5-.8-.9-1.5-1.9-2.3-3zM113.3 58c.4-.5.8-1.1 1.2-1.6 0-.1-.1-.2-.1-.2-.2-.2-.4-.4-.7-.5-.2.7-.3 1.5-.4 2.3zM115.8 33.6c2.7 3.4 2.2 8.9-.9 15.1 1.2.5 2.3 1 3.3 1.5 4.5-8.2 5.5-15.4 2-19.7-1.5-1.9-3.8-3.1-6.6-3.6.3 1.7.6 3.5.8 5.3.6.5 1 1 1.4 1.4zM74.4 45.2l1.2-.9h-2.8v1c.1.3.3.6.4.8.5-.3.9-.6 1.2-.9zM89.3 35.6c-.5-.7-1.1-1.3-1.7-1.8-2 1.1-4 2.2-6 3.5l-1.2 3.6c3-2.1 6-3.9 8.9-5.3zM96.9 32.3c-.7-.7-1.5-1.3-2.2-1.9-1.7.7-3.4 1.5-5.2 2.4.5.6 1 1.3 1.5 2 2.1-1 4-1.8 5.9-2.5zM68.8 50.1c-.5-.7-1-1.4-1.4-2.1-1.9 1.7-3.7 3.5-5.4 5.2 0 .1-.1.1-.2.2-2.2 2.3-4.2 4.7-6 7 .6.8 1.4 1.6 2.2 2.4 2.7-4.2 6.4-8.5 10.8-12.7z"/><path fill="#679C41" d="M76.9 40.9c.1-.2.1-.5.2-.7-.3.2-.7.5-1 .7h.8z"/><path fill="#96BF3E" d="M99.8 28.5l2.1 2.4c3.8-.8 7.2-.8 9.8 0-.3-1.5-.6-2.9-.9-4.2-3.2 0-7 .6-11 1.8z"/><path fill="#589040" d="M70.5 45.3c-1.1.9-2.1 1.8-3.1 2.7.5.7.9 1.4 1.4 2.1.6-.6 1.3-1.2 1.9-1.7-.1-1.1-.2-2.1-.2-3.1z"/><path fill="#96BF3E" d="M114.5 56.3c-.1 0-.1-.1-.2-.1 0 .1.1.2.1.2.1 0 .1 0 .1-.1z"/><path fill="#589040" d="M95.6 71.4c0 .1 0 .1 0 0-1.2 1-2.3 1.8-3.4 2.6.4.3.8.5 1.1.8.7-.1 1.3-.2 2-.4.9-.2 1.7-.4 2.5-.6.2-.2.5-.4.7-.6-.9-.5-1.9-1.1-2.9-1.8zM101.9 30.9l-2.1-2.4c-1.6.5-3.3 1.1-5.1 1.8.7.6 1.5 1.3 2.2 1.9 1.8-.5 3.4-.9 5-1.3z"/><path fill="#96BF3E" d="M72.9 45.3v1.2c.1-.1.3-.2.4-.3-.1-.4-.3-.6-.4-.9zM90.5 75.3l-.1.1c1.5.2 3 .3 4.5.4l-1.5-.9c-1 .1-2 .3-2.9.4z"/><path fill="#366C35" d="M93.3 74.8l1.5.9h.6c.4-.3.8-.6 1.1-.9.4-.3.9-.7 1.3-1-.8.2-1.7.4-2.5.6-.6.2-1.3.3-2 .4z"/><path fill="#96BF3E" d="M76.1 40.9c-1 0-2.1 0-3.1.1-.1.8-.1 1.5-.1 2.4 1.1-.9 2.1-1.7 3.2-2.5zM89.8 45.8c2.1.4 4.2 1 6.2 1.5-.7-1.7-1.4-3.4-2.2-4.9-4.7-.8-9.2-1.3-13.4-1.5-.3 1.1-.7 2.3-1 3.4 3.3.3 6.8.8 10.4 1.5zM84.8 78.9c.4-.2.7-.4 1.1-.6-.5 0-1 .1-1.5.1.1.2.2.4.4.5zM76.1 43.9c-.1.1-.3.2-.4.3h.3s0-.2.1-.3zM98.3 43.7c-.2.4-.7.6-1 .3-.2-.2-.3-.5-.2-.9-.3-.1-.6-.1-.9-.2-.1 0-.3-.1-.4-.1.8 1.6 1.5 3.3 2.2 5.1l.9.3c4.1-.3 8-.2 11.4.2-.4-.7-.9-1.4-1.4-2.1-3.3-1.1-6.9-2.2-10.6-3 .1.2 0 .3 0 .4zM118.3 50.3c-.1.1-.1.2-.2.3 3.3 1.4 5.4 3.5 5.9 6 .6 2.7-.8 5.7-3.6 8.5 1.2 6.4.3 11.6-3.1 14.4-2.7 2.2-6.5 2.6-11.1 1.5-.2.5-.5 1-.7 1.5 16.5.5 29-3.9 30.6-11.7 1.6-6.9-5.7-14.6-17.8-20.5zM114.5 49c.1.1.1.2.2.3l.3-.6c-.1-.1-.3-.1-.4-.2-.1.2-.1.4-.1.5zM83.9 74.3c-1-.2-2-.4-2.9-.7.4.7.9 1.4 1.4 2.1 2.4 0 5-.1 7.7-.4-2.1-.2-4.1-.5-6.2-1zM76.5 72.4c.1 1 .2 2 .3 2.9.7.1 1.4.2 2.1.2-.5-.9-1-1.9-1.5-2.9-.3 0-.6-.1-.9-.2zM96.3 76.7c-.4.1-.9.2-1.3.3-.4.1-.9.2-1.3.3-1.5 1.1-3.1 2.2-4.6 3.3 2.8.6 5.5 1 8.2 1.3.8-.9 1.4-2.1 2-3.5-1.1-.6-2-1.2-3-1.7zM103.1 49.8c3.2 1.3 6 2.8 8.4 4.3.2-1 .3-1.9.4-2.9-.1-.2-.2-.3-.3-.5-2.4-.5-5.3-.8-8.5-.9zM60.9 65.2c-1.1-.8-2.1-1.6-3-2.4-.8 1.2-1.5 2.4-2.1 3.6 1.3 1 2.6 2 4.2 3-.2-1.4.2-2.8.9-4.2zM65.5 67.9c0 .2 0 .4.1.6.6 2.6 3.1 4.6 7 5.9-.1-1.1-.1-2.2-.1-3.3-2.5-1-4.9-2-7-3.2z"/><path fill="#96BF3E" d="M108 76.9c2.7.3 4.9-.1 6.6-1.5 1.1-.9 1.8-2.2 2.3-3.7-2 1.4-4.8 2.5-8.1 3.3-.3.6-.5 1.3-.8 1.9zM119.5 61.1c.7-1.4 1-2.8.7-4.1-.4-1.7-1.6-3.1-3.4-4.3-.1.1-.2.3-.3.4 1.3 2.9 2.3 5.5 3 8zM53.4 53.2c.8-4 5.4-6.8 12.1-8.1-.6-1-1.2-2-1.7-3-8.5 1.8-14.2 5.4-15.2 10.5-.7 3.6 1 7.5 4.6 11.3.8-1.2 1.6-2.3 2.6-3.5-2-2.4-2.8-4.9-2.4-7.2zM103.5 75.7c.5.2 1 .4 1.6.5.1-.2.2-.5.3-.7-.6.1-1.2.2-1.9.2zM101.5 82.2h.4c.4-.7.9-1.5 1.3-2.2-.3-.1-.7-.3-1-.4-.2.9-.4 1.8-.7 2.6z"/><path fill="#589040" d="M114.5 56.3c2.1 1.7 3.8 3.5 4.8 5.3.1-.2.2-.3.3-.5-.7-2.5-1.7-5.2-3-7.9-.7 1-1.4 2.1-2.1 3.1z"/><path fill="#96BF3E" d="M111.9 51.3v-.4c-.1 0-.2 0-.3-.1.1.1.2.3.3.5z"/><path fill="#589040" d="M120.3 67c-.4 1.8-1.6 3.4-3.4 4.7-.4 1.5-1.2 2.8-2.3 3.7-1.7 1.4-3.9 1.8-6.6 1.5-.5 1.4-1.1 2.8-1.7 4.1 4.6 1.1 8.4.7 11.1-1.5 3.3-2.8 4.2-7.9 3.1-14.4l-.1.1c0 .6 0 1.2-.1 1.8zM112.2 48.8c0-.4.1-.8.1-1.2l-3.3-1.2c.5.7.9 1.4 1.4 2.1.5.1 1.2.2 1.8.3z"/><path fill="#96BF3E" d="M103.5 75.7c-.3 0-.5 0-.8.1-.1 1.3-.3 2.6-.5 3.8.3.1.7.3 1 .4.6-1.2 1.3-2.4 1.9-3.7-.5-.2-1.1-.4-1.6-.6zM114.5 49.3h.2v-.1c-.1-.1-.1-.2-.2-.3v.4z"/><path fill="#589040" d="M96.3 76.7c1 .6 2 1.1 2.9 1.6.3-.7.5-1.5.7-2.3h-.6c-1 .2-2 .4-3 .7zM70.5 44.4v-3.3c-2.4.2-4.6.5-6.7 1 .5 1 1.1 2 1.7 3 1.6-.3 3.2-.5 5-.7zM82.3 75.8c.6.9 1.3 1.8 2 2.6.5 0 1-.1 1.5-.1 1.5-.9 3-1.9 4.5-2.9H90c-2.7.3-5.2.4-7.7.4zM93.6 77.2c.4-.1.9-.2 1.3-.3.5-.1.9-.2 1.3-.3-.4-.2-.7-.4-1.1-.6-.4.4-.9.8-1.5 1.2zM72.6 74.4c-3.9-1.2-6.5-3.2-7-5.9 0-.2-.1-.4-.1-.6-1.7-.9-3.2-1.8-4.6-2.8-.7 1.4-1.1 2.9-.9 4.3 3.6 2.3 7.9 4.5 12.7 6.3-.1-.4-.1-.8-.1-1.3zM111.6 50.8c-.4-.7-.9-1.5-1.3-2.2-3.4-.5-7.2-.6-11.4-.2 1.4.5 2.8 1 4.1 1.5 3.3 0 6.2.3 8.6.9zM76.8 75.4c.1.7.2 1.3.3 2 1.1.4 2.2.7 3.4 1-.6-.9-1.1-1.8-1.6-2.8-.7-.1-1.4-.1-2.1-.2zM120.2 57.1c.3 1.3 0 2.7-.7 4.1.4 1.4.7 2.7.9 3.9 2.8-2.8 4.1-5.7 3.6-8.5-.5-2.5-2.7-4.6-5.9-6-.4.7-.8 1.5-1.3 2.2 1.9 1.2 3.1 2.6 3.4 4.3z"/><path fill="#366C35" d="M111.6 50.8c.1 0 .2 0 .3.1.1-.7.1-1.4.2-2-.6-.1-1.2-.2-1.9-.3.6.7 1 1.4 1.4 2.2z"/><path fill="#2B5126" d="M119.3 61.7c.7 1.2 1 2.4 1.1 3.5l.1-.1c-.2-1.3-.5-2.6-.9-3.9-.1.1-.2.3-.3.5z"/><path fill="#3E7538" d="M95.4 75.8c-.1.1-.2.1-.3.2.4.2.7.4 1.1.6 1-.2 2-.5 3-.8-1.2.1-2.4.1-3.8 0z"/><path fill="#96BF3E" d="M114.6 49.4h-.2v.5c.1-.2.2-.4.2-.5z"/><path fill="#589040" d="M97.3 44c.3.2.7.1 1-.3 0-.1.1-.2.1-.3-.4-.1-.9-.2-1.3-.3-.1.4 0 .8.2.9zM75.6 44.3c.1-.1.3-.2.4-.3.3-1 .6-2 .8-3H76c-1.1.8-2.2 1.6-3.2 2.4v.9h2.8zM84.8 78.9c.2.3.5.5.7.7 1 .2 2.1.5 3.1.7.2 0 .3.1.5.1 1.5-1 3.1-2.1 4.6-3.3-2.7.5-5.3.9-7.8 1.1-.4.3-.8.5-1.1.7z"/><path fill="#96BF3E" d="M116.8 52.8l-.6-.3c.1.2.2.5.3.7.2-.1.2-.2.3-.4zM114.3 56.2l-.6-1.2c0 .2-.1.5-.1.7.3.1.5.3.7.5zM55.8 66.4c.6-1.2 1.4-2.4 2.1-3.6-.9-.8-1.6-1.6-2.2-2.4-.9 1.2-1.8 2.4-2.6 3.5.9.9 1.8 1.7 2.7 2.5z"/><path fill="#589040" d="M114.7 49.3c0 .1 0 .1 0 0 1.3.4 2.4.8 3.5 1.3.1-.1.1-.2.2-.3l-3.3-1.5c-.2.2-.3.3-.4.5z"/><path fill="#366C35" d="M113.8 55l.6 1.2c.1 0 .1.1.2.1.7-1 1.4-2.1 2.1-3.1-.1-.2-.2-.5-.3-.7-.6-.3-1.3-.7-2-.9-.3 1.1-.5 2.2-.6 3.4z"/><path fill="#96BF3E" d="M114.7 49.4s-.1 0 0 0z"/><path fill="#366C35" d="M95 75.8c-1.5-.1-3-.2-4.6-.4-1.5 1-3 2-4.6 2.9 2.6-.2 5.2-.6 7.9-1.1.5-.4 1.1-.8 1.6-1.2-.1 0-.2-.1-.3-.2zM116.2 52.5l.6.3c.5-.7.9-1.5 1.3-2.2-1-.5-2.2-.9-3.4-1.2.6 1 1.1 2.1 1.5 3.1z"/><path fill="#2B5126" d="M114.4 49.8c-.1.6-.1 1.2-.2 1.8.7.3 1.4.6 2 .9-.5-1-1-2-1.5-3.1h-.1c0 .1-.1.3-.2.4z"/><path fill="#96BF3E" d="M95.2 76c.1-.1.2-.1.3-.2h-.6c0 .1.2.2.3.2zM102.7 75.4v-.5c-.2.1-.5.1-.7.2.3.1.5.2.7.3zM95.8 42.9c-1.5-3.1-3.1-5.8-4.8-8.2l-1.8.9c1.6 1.9 3.1 4.3 4.5 6.9.7.1 1.4.3 2.1.4zM102.8 69.6c-.8.7-1.5 1.4-2.3 2.1 0 .5-.1 1-.1 1.5.9-.3 1.7-.5 2.5-.8-.1-.9-.1-1.8-.1-2.8zM81 73.7c-1.7-2.9-3.3-6.3-4.6-10.1-.1 2.4-.1 4.6 0 6.8.3.8.7 1.5 1 2.3 1.2.4 2.4.7 3.6 1zM96.4 48.5c.6-.1 1.1-.1 1.7-.2 0-.1-.1-.2-.1-.4-.7-.2-1.3-.4-2-.6.1.4.3.8.4 1.2zM98.1 53.5c1.4 4.8 2.2 9.5 2.3 13.7.7-.6 1.3-1.2 1.9-1.8-.4-3.6-1.2-7.5-2.4-11.4-.4-1.4-.8-2.7-1.3-4-.6 0-1.1.1-1.7.2.5 1 .9 2.2 1.2 3.3zM97.2 81.8c-.8.9-1.7 1.6-2.8 1.9-2.2.6-4.6-.2-7-2.2-1.1.7-2.1 1.3-3.2 2 3.9 4.5 8 6.8 11.5 5.7.4-.1.7-.3 1.1-.5 1.4-1.4 2.8-3.1 4.2-5.2.2-.5.3-.9.5-1.4-1.4 0-2.8-.1-4.3-.3zM73 41c.6-5.8 2.6-10 5.9-10.9.7-.2 1.4-.2 2.1-.2.5-1 .9-2 1.4-3-1.7-.7-3.3-.9-4.9-.5-4 1.2-6.4 6.4-7 13.7.1.3.3.7.4 1 .7 0 1.4-.1 2.1-.1zM71.4 53.7c.1.7.2 1.4.4 2.1.3-.1.6-.3.9-.4-.5-.6-.9-1.1-1.3-1.7zM73.4 57.6c-.4.2-.7.4-1 .7.2.8.4 1.7.6 2.5.1-1 .2-2.1.4-3.2zM81 78.5h-.4c.4.7.9 1.4 1.3 2l2.1-1.2c-1-.2-2-.5-3-.8zM87.6 33.7c.6-.3 1.3-.7 1.9-1-1.4-1.6-2.8-3-4.2-4.1-.4.8-.8 1.5-1.2 2.3 1.2.7 2.4 1.7 3.5 2.8z"/><path fill="#96BF3E" d="M70.6 40.1c0 .3 0 .7-.1 1h.5c-.2-.3-.3-.6-.4-1z"/><path fill="#366C35" d="M71.6 44.4c-.4 0-.8 0-1.2.1v.9c.5-.4.8-.7 1.2-1z"/><path fill="#589040" d="M102 75.1l-2.1.6v.2c1 0 1.9-.1 2.8-.1v-.4c-.2-.1-.4-.2-.7-.3zM73.8 54.8c0-.2 0-.3.1-.5-.5-2.7-.8-5.4-.9-7.8-.8.6-1.5 1.3-2.2 1.9.2 1.7.4 3.5.7 5.3.4.5.8 1.1 1.2 1.6.3-.1.7-.3 1.1-.5zM100.3 73.2c0 .3-.1.7-.1 1 .6.3 1.3.6 1.9.9.2-.1.5-.1.7-.2 0-.8.1-1.6.1-2.5-.9.3-1.7.6-2.6.8z"/><path fill="#96BF3E" d="M81 78.5c-.2 0-.3-.1-.5-.1l.1.1h.4z"/><path fill="#589040" d="M98.7 50c-.2-.5-.4-1.1-.6-1.6-.6 0-1.1.1-1.7.2.2.5.4 1.1.6 1.6.6-.1 1.2-.2 1.7-.2zM73.4 57.6c.1-.4.1-.8.2-1.2-.3-.4-.6-.7-.9-1.1-.3.1-.6.3-.9.4.2.8.4 1.7.6 2.5.3-.1.6-.3 1-.6z"/><path fill="#366C35" d="M99.9 75.7l2.1-.6c-.6-.3-1.2-.6-1.9-.9 0 .5-.1 1-.2 1.5zM72.6 55.3c.3.4.6.7.9 1.1.1-.5.2-1.1.3-1.7-.4.3-.8.5-1.2.6z"/><path fill="#589040" d="M89.3 35.6l1.8-.9c-.5-.7-1-1.4-1.5-2-.6.3-1.3.6-1.9 1 .5.6 1 1.2 1.6 1.9zM100.5 67.3c.1 1.6.1 3 0 4.4.8-.7 1.6-1.4 2.3-2.1-.1-1.3-.2-2.7-.4-4.2-.6.6-1.3 1.2-1.9 1.9zM85.4 79.7c-.5-.1-.9-.2-1.4-.3l-2.1 1.2c.8 1.1 1.5 2.1 2.3 3 1.1-.6 2.1-1.3 3.2-2-.6-.6-1.3-1.2-2-1.9z"/><path fill="#366C35" d="M72.9 44.3h-.5c.2.3.3.6.5 1v-1z"/><path fill="#366C35" d="M72.9 46.5v-1.2c-.2-.3-.3-.6-.5-1h-.8c-.4.3-.8.6-1.2 1 0 1 .1 2 .2 3.1.8-.7 1.5-1.3 2.3-1.9z"/><path fill="#589040" d="M98 48c-.7-1.8-1.4-3.5-2.2-5.1-.7-.1-1.4-.3-2.1-.4.8 1.5 1.5 3.2 2.2 4.9.8.2 1.5.4 2.1.6zM97.2 81.8c1.4.2 2.9.3 4.3.4.3-.8.5-1.7.7-2.6-1-.4-2-.8-3-1.3-.5 1.4-1.2 2.6-2 3.5zM73 41c-.7 0-1.4.1-2.1.1.4.9.8 1.8 1.2 2.8.2-.2.5-.4.7-.5.1-.8.2-1.6.2-2.4zM77.4 72.7c.5 1 1 2 1.5 2.9 1.1.1 2.3.2 3.5.2-.5-.7-.9-1.4-1.4-2.1-1.2-.3-2.4-.6-3.6-1zM84.3 78.4c-1.1.1-2.2.1-3.3.1 1 .3 2 .6 3.1.8.2-.1.5-.3.7-.4-.2-.1-.3-.3-.5-.5z"/><path fill="#366C35" d="M99.2 78.2c1 .5 2 1 3 1.3.2-1.2.4-2.5.5-3.8-.9.1-1.9.1-2.8.1-.2.9-.4 1.7-.7 2.4zM71.9 44.1c.1-.1.2-.2.3-.2-.4-.9-.9-1.9-1.2-2.8h-.5c-.1 1-.1 2.1 0 3.3.4 0 .8-.1 1.2-.1l.2-.2zM82.3 75.8c-1.2 0-2.4-.1-3.5-.2.5 1 1.1 1.9 1.6 2.8.2 0 .3.1.5.1 1.1 0 2.2 0 3.3-.1-.6-.8-1.2-1.7-1.9-2.6zM72.9 44.3v-.9c-.2.2-.5.4-.7.5.1.1.1.3.2.4h.5zM84 79.4c.5.1.9.2 1.4.3l-.7-.7c-.2.1-.4.2-.7.4z"/><path fill="#366C35" d="M72.2 43.9c-.1.1-.2.2-.3.2-.1.1-.2.1-.3.2h.8c-.1-.1-.1-.3-.2-.4z"/><path fill="#96BF3E" d="M80.3 40.8c-.1 0-.1.1-.2.1h.2v-.1zM101.7 15.2c4.1.8 7.2 5.1 9 11.5 1 0 2 .1 3 .3-1.9-9.6-5.8-16.1-11.5-17.2-4.7-.9-9.7 2.2-14.2 8 1 .8 2 1.6 3.1 2.4 3.5-3.7 7.2-5.6 10.6-5zM74.6 57.7c.2.8.4 1.6.7 2.4.3 1.2.7 2.3 1.1 3.4.1-1.2.1-2.4.2-3.6-.7-.6-1.3-1.4-2-2.2zM79.3 44.4c-1.1-.1-2.3-.1-3.4-.1-.4 1.5-.8 3-1.1 4.6.8 1.4 1.7 2.7 2.6 4.1.1-.7.2-1.3.4-2 .5-2.3 1-4.5 1.5-6.6zM73.2 61.7l-.3-.9c-.4 3.6-.5 7-.5 10.3 1.3.5 2.6.9 4 1.4-.1-.7-.1-1.3-.1-2-1.1-2.8-2.2-5.7-3.1-8.8zM101 83.6c-1 2.5-2.4 4.2-4.2 5.2-3.2 3.2-6.6 4.7-9.8 4.1-3.1-.6-5.6-3.1-7.4-6.9-1.6.8-3.3 1.6-4.9 2.3 2.1 7 5.7 11.6 10.3 12.5 7 1.3 14.7-6.1 20.5-18.3-1.2 0-2.5-.1-3.7-.2-.2.4-.5.9-.8 1.3zM85.3 28.7c.7-1.3 1.4-2.4 2.1-3.5-1.1-.6-2.1-1.2-3.1-1.7-.6 1.1-1.3 2.3-1.9 3.5 1 .3 2 .9 2.9 1.7zM105.4 75.5c1.2-.1 2.3-.3 3.4-.6.3-.9.7-1.8 1-2.8-1.1.5-2.3 1-3.5 1.5-.4.7-.6 1.3-.9 1.9zM72.9 78c.2 2.2.5 4.2.9 6.2 1.5-.5 3-1.1 4.5-1.8-.4-1.2-.7-2.5-1-3.9-1.5-.2-3-.3-4.4-.5zM112.4 45.3c.6 1 1.2 2.1 1.8 3.1.1 0 .2.1.3.1.5-5.8.5-11.3 0-16.2-.8-.6-1.8-1.1-2.8-1.4.7 4.3 1 9.2.7 14.4zM111.4 54.8c.1-.2.2-.3.3-.5-.1-.1-.2-.1-.2-.2 0 .3-.1.5-.1.7zM107.3 70.7c1.2-.5 2.3-1.1 3.4-1.7.9-3.2 1.7-6.6 2.4-10.1.1-.3.1-.6.2-.9-1 1.4-2.2 2.8-3.4 4.2-.8 3-1.6 5.8-2.6 8.5zM81.6 37.2c.8-2.2 1.7-4.3 2.6-6.2-1.1-.6-2.2-1-3.2-1.1-1.4 3.2-2.7 6.6-3.9 10.3l4.5-3z"/><path fill="#589040" d="M77.4 53.2V53c-.9-1.4-1.8-2.7-2.6-4.1-.2.9-.4 1.8-.6 2.8-.2.9-.3 1.8-.5 2.7 0 .1 0 .3.1.4 1.2-.6 2.4-1.1 3.6-1.6zM87.4 25.1c1.2-1.9 2.4-3.5 3.7-4.9-1-.9-2-1.7-3.1-2.4-1.3 1.7-2.6 3.6-3.8 5.7 1.1.4 2.1 1 3.2 1.6zM114.2 48.4c-.6-1-1.2-2.1-1.8-3.1 0 .8-.1 1.6-.2 2.3.7.3 1.4.6 2 .8z"/><path fill="#96BF3E" d="M77.1 55.6c-.9.5-1.8.9-2.7 1.4.1.2.1.5.2.7.7.8 1.3 1.5 2 2.3.1-1.4.3-2.9.5-4.4z"/><path fill="#589040" d="M107.3 70.7c-.4 1-.7 2-1.1 3 1.2-.5 2.4-1 3.5-1.5.3-1 .7-2.1 1-3.2-1.1.6-2.2 1.1-3.4 1.7zM72.7 75.7c.1.8.1 1.5.2 2.2 1.4.2 2.9.4 4.5.5-.1-.4-.1-.7-.2-1.1-1.6-.5-3.1-1-4.5-1.6z"/><path fill="#366C35" d="M77.4 53.2c-1.2.5-2.4 1-3.5 1.5.1.8.3 1.5.5 2.3.8-.5 1.7-.9 2.7-1.4l.3-2.4z"/><path fill="#589040" d="M111 57.2c-.3 1.7-.7 3.4-1.1 5 1.2-1.4 2.3-2.8 3.4-4.2.1-.8.3-1.6.4-2.3-.6-.5-1.3-.9-1.9-1.4-.1.2-.2.3-.3.5-.2.8-.4 1.6-.5 2.4zM80.1 41c.1 0 .1-.1.2-.1l1.2-3.6c-1.5.9-3 1.9-4.4 3-.1.2-.1.5-.2.7 1.1-.1 2.2-.1 3.2 0z"/><path fill="#96BF3E" d="M111.7 31c1.1.3 2 .8 2.8 1.4-.2-1.9-.5-3.7-.8-5.3-.9-.2-1.9-.3-3-.3.5 1.3.8 2.7 1 4.2z"/><path fill="#589040" d="M78.3 82.3c-1.5.7-3 1.3-4.5 1.8.3 1.5.6 2.8 1 4.1 1.6-.7 3.2-1.4 4.9-2.3-.5-1-1-2.3-1.4-3.6zM76.5 72.4c-1.4-.4-2.7-.9-4-1.4 0 1.1 0 2.2.1 3.3 1.3.4 2.7.7 4.2 1-.1-.9-.2-1.9-.3-2.9z"/><path fill="#96BF3E" d="M114.5 48.6c-.1 0-.2-.1-.3-.1l.3.6v-.5z"/><path fill="#589040" d="M103.2 80c-.4.8-.9 1.5-1.3 2.2 1.3.1 2.5.1 3.7.2.2-.5.5-1 .7-1.5-1-.2-2-.5-3.1-.9zM105.4 75.5c-.1.2-.2.5-.3.7 1 .3 2 .5 3 .7.2-.6.5-1.3.7-1.9-1.1.2-2.2.4-3.4.5z"/><path fill="#568E3F" d="M111.5 54.1c.1.1.2.1.2.2.3-.5.7-1 1-1.5-.3-.5-.5-1-.8-1.5-.1.9-.3 1.9-.4 2.8z"/><path fill="#589040" d="M79.3 44.4c.3-1.2.6-2.3 1-3.4h-.2c-1.4.9-2.7 1.9-4.1 2.9 0 .1-.1.2-.1.3 1.2.1 2.3.1 3.4.2z"/><path fill="#2F5B2C" d="M112.2 48.8c.8.1 1.6.3 2.3.5V49l-.3-.6c-.6-.3-1.3-.5-1.9-.8-.1.5-.1.8-.1 1.2z"/><path fill="#366C35" d="M112.7 52.8l.9-1.5c-.5-.2-1.1-.3-1.6-.5v.4c.2.6.4 1.1.7 1.6zM105.1 76.2c-.6 1.3-1.2 2.6-1.9 3.7 1.1.4 2.1.7 3.1 1 .6-1.3 1.2-2.7 1.7-4.1-.9 0-1.9-.2-2.9-.6z"/><path fill="#589040" d="M72.6 74.4c0 .4 0 .9.1 1.3 1.4.6 2.9 1.1 4.4 1.6-.1-.6-.2-1.3-.3-2-1.5-.2-2.9-.5-4.2-.9z"/><path fill="#2B5126" d="M111.9 50.9c.6.1 1.1.3 1.6.5.3-.5.6-1 .8-1.5v-.5c-.7-.2-1.5-.4-2.3-.5.1.6 0 1.3-.1 2z"/><path fill="#366C35" d="M76.9 40.9c-.3 1-.6 2-.8 3 1.4-1 2.7-2 4.1-2.9-1.1-.1-2.2-.1-3.3-.1z"/><path fill="#3C7337" d="M111.7 54.3c.7.4 1.3.9 1.9 1.4 0-.2.1-.5.1-.7-.3-.7-.7-1.4-1.1-2.2-.2.5-.5 1-.9 1.5z"/><path fill="#2B5126" d="M112.7 52.8c.4.7.7 1.4 1.1 2.2.2-1.1.3-2.3.5-3.4-.2-.1-.4-.1-.6-.2-.4.4-.7.9-1 1.4z"/><path fill="#213C1B" d="M114.2 51.6c.1-.6.1-1.2.2-1.8-.3.5-.5 1-.8 1.5l.6.3z"/><path fill="#589040" d="M101 83.6c-1.3 2-2.7 3.7-4.2 5.2 1.8-.9 3.2-2.7 4.2-5.2zM73.2 61.7c.9 3.1 2 6 3.1 8.7-.1-2.2-.1-4.5 0-6.8-.4-1.1-.8-2.3-1.1-3.4-.2-.8-.5-1.6-.7-2.4-.2-.2-.3-.4-.5-.6-.3.2-.5.3-.8.5-.1 1.1-.3 2.1-.4 3.1.3.3.4.6.4.9zM85.3 28.7c-1-.7-2-1.3-3-1.7-.5 1-.9 2-1.4 3 1 .1 2.1.5 3.2 1.1.5-.9.8-1.7 1.2-2.4z"/><path fill="#96BF3E" d="M73.8 54.3c0 .2 0 .3-.1.5 0 0 .1 0 .1-.1.1-.1.1-.3 0-.4zM74.1 57.2c.2.2.3.4.5.6-.1-.2-.1-.5-.2-.7-.1 0-.2 0-.3.1z"/><path fill="#2D5428" d="M73.5 56.4c-.1.4-.1.8-.2 1.2.3-.2.5-.3.8-.5-.2-.2-.4-.4-.6-.7z"/><path fill="#366C35" d="M74.4 57c-.2-.8-.4-1.5-.5-2.3 0 0-.1 0-.1.1-.1.6-.2 1.1-.3 1.7.2.2.4.5.6.8.1-.2.2-.2.3-.3z"/><path fill="#96BF3E" d="M61.8 74.2c-1.3-.1-1.4 1.8-.2 1.9 1.3.2 1.4-1.8.2-1.9zM96.3 60.8c-1.3-.1-1.4 1.8-.2 1.9 1.3.2 1.5-1.8.2-1.9zM61.3 51.7c-1.3-.1-1.4 1.8-.2 1.9.3 0 .5-.1.6-.2l.2-.2c.4-.5.3-1.4-.6-1.5zM61.9 53.3l-.2.2.2-.2zM55.2 36.4c1.3.1 1.4-1.8.2-1.9-1.3-.1-1.5 1.8-.2 1.9z"/><path fill="#FFF" d="M75.8 25.3c1.3.1 1.4-1.8.2-1.9-1.3-.1-1.4 1.8-.2 1.9z"/><path fill="#00517A" d="M131.9 37.8c-7.3-18.7-26.6-29.6-51.6-29.4-1.9 0-3.8.1-5.8.3-13.1 1-26 6.5-35.5 15.1-7.2 6.6-15.1 17.6-15.4 29.1-.1 1.9.4 3.5.8 5.1.6 2 1.1 4 .5 6.7-.4 1.9-2.4 3.7-4.3 5.4-.6.6-1.3 1.2-1.9 1.8-.3.3-.7.7-1.2 1.1-2.2 2.1-5.3 4.9-5.2 8.5 0 3.7 2.9 4.9 4.9 5.7 1.4.5 2.5 1 2.9 2 .6 1.4.2 2.2-.4 3.7-.6 1.5-1.4 3.4-1.3 6.2v.4l.3.5c.4.5 1 .9 1.6 1.3-.5.3-.9.8-1.2 1.3-2 3.3.5 5.7 2.1 7.2.8.7 1.6 1.6 1.7 2.1.2 1.2.1 2.5 0 3.8-.2 3-.4 6.7 3.2 8.8 2 1.1 4.7 1.7 8.4 1.6 1.9 0 4-.2 5.9-.4h.2c2-.2 3.8-.3 5.5-.3 2.2 0 3.8.2 5 .6 1.5.6 4.1 4.5 5.7 7.3l1.1.7 2-2.6-.3-.5c-2.1-4.3-4.6-7.1-7.1-8.1-1.6-.6-3.6-.9-6.3-.9-1.9 0-3.9.2-5.9.4-1.9.2-3.9.3-5.8.3-3.1 0-5.2-.3-6.6-1.2-1.8-1-1.8-2.7-1.6-5.8.1-1.4.2-2.9 0-4.5-.3-1.7-1.5-2.8-2.7-4-1.9-1.9-2.1-2.3-1.6-3.2.3-.5 1.4-.6 2.3-.6.6 0 1.3 0 1.9.1h.2c1.6.1 3.2.1 4.3-.1l.3-.1.1-3.2-.3-.1c-1.1-.2-2.2-.4-3.1-.5-2.4-.3-4.8-.6-6-1.6 0-1.7.5-2.9 1-4.1.7-1.7 1.5-3.6.4-6.2-.9-2.3-3-3.1-4.8-3.8-1.5-.7-2.3-1.1-2.3-2.6 0-2.1 2.2-4.2 4.1-5.9.5-.4.9-.8 1.2-1.2l1.7-1.7c2.2-2 4.7-4.3 5.3-7.2.8-3.5.1-6-.5-8.3-.4-1.4-.8-2.7-.7-4.1.3-10.4 7.5-20.5 14.2-26.6 8.9-8 21-13.2 33.2-14.1 1.9-.1 3.7-.2 5.5-.2 23.8-.3 41.4 9.7 48.3 27.3 6.6 16.7 1 38.2-8 50.7-1 1.4-2.1 2.8-3.3 4.3-4 4.9-8.1 10-8.6 17.9-.4 6.2.6 12.3 2.8 18.7l.1.3 4.6 2.5-.9-3.1c-2.4-6.3-3.3-12.3-3-18.3.4-6.8 4-11.2 7.8-15.9 1.2-1.4 2.4-2.9 3.5-4.4 9.4-13 15.9-35.4 8.6-54z"/><path fill-rule="evenodd" clip-rule="evenodd" fill="#00517A" d="M86.2 119.3c16.6-.2 30.8 9.9 36.8 24.4l-5.5.1c-5.6-11.6-17.5-19.5-31.2-19.3-13.7.2-25.4 8.4-30.7 20.1l-5.5.1c5.5-14.7 19.6-25.2 36.1-25.4z"/></svg>