<svg xmlns:xlink="http://www.w3.org/1999/xlink"  xmlns="http://www.w3.org/2000/svg" viewBox="0 0 2000 2000"><path fill="none" d="M1311.7 806.4c-189.2 44.4-266.4 75.6-300.5 129.3-6.9 15.7-11.7 32.9-14 51.8 22-43.3 71.4-95.4 182.2-118 202.3-42.1 314.5-61.4 360.5-122.7 11-7-22.1 91.2-339.7 147.3-115.9 32.3-160.1 52.5-192.7 117.3 47.8-47.6 119.2-88.5 223.3-98.7C1513.4 885 1579 804.9 1607 702.2V596.5c-14 56.8-84.4 160.4-295.3 209.9zM778.3 894C473 827.4 436.2 732.7 447.2 739.7c49.7 64.9 147.2 85.9 349.5 128 80.8 16.5 129.3 49 158.5 82.3-2.1-7.2-4.7-14.8-8.4-22.9-37.5-45.9-110.6-74.6-285.9-120.8C440.7 748.4 393 649.1 393 609.5v96.2c0 47 52.4 176.2 332.5 207 115.3 12.7 197.2 48 248.6 105-33-70-76.1-90.3-195.8-123.7z"/><path fill="none" d="M1489.6 1423.6l.2-.9c117.2-68.3 117.3-218.8 117.3-220.1V849.9c-71 56.2-181.7 65.2-365.6 83.2-178.4 17.4-241.4 183.7-241.4 204v595.5c42.2-31.6 489.5-309 489.5-309zM713.1 943.6C550.8 925.8 450 886.3 393 843.5v358.9c0 1.5-.8 152 116.4 220.3l-3.7.4S901 1675.2 986 1726.4v-616.2c-14-46.5-93.8-146.9-272.9-166.6z"/><path fill="#CBE1F4" d="M1738.9 458.6c-193.8-225.8-456.6-350.1-739.5-350.1-282.8 0-545.3 124.3-739 350.1L238 484.8v717.8c0 9.5 1.9 233.2 191.8 343.8l-3.1-1.8 572.4 360.6 572.5-360.6-2.3 1.8c189.9-110.6 192.7-334.3 192.7-343.8V484.8l-23.1-26.2zm-32.9 744c0 8.5.3 208.5-166.9 305.9l3.9-.9-544.7 342.8-545.1-342.8-.4.9C285.5 1411.1 280 1211.1 280 1202.6V689.7 500.2l14.9-14C479 271.7 730.4 153.6 997.6 153.6c267.2 0 514.7 118.1 698.8 332.7l9.5 14v702.3z"/><path fill="#427B9E" d="M997.7 153.6c-267.2 0-518.7 118.1-702.8 332.7l-14.9 14v702.4c0 8.5 5.5 208.5 172.7 305.9l.3-.9 545.1 342.8 544.7-342.8-3.7.9c167.2-97.4 166.9-297.4 166.9-305.9V500.2l-9.5-14c-184.1-214.5-431.6-332.6-698.8-332.6zm591.4 396.8S1567 610 1504.5 596c-62.5-14-80.9 7-80.9 7s22.1-52.6 77.3-42.1c55.1 10.5 66.1 10.5 88.2-10.5zm-76.5-144s0 63.2-63.8 69.8c-63.9 6.7-73.8 32.3-73.8 32.3s2.4-56.6 58.1-64.2c55.7-7.6 66.1-11.1 79.5-37.9zm-172.4-59.9c41.4-18.4 48.6-23.4 52.5-47.3 0 0 15.6 49.1-32.4 68.5-48 19.5-49.4 41.6-49.4 41.6s-12.1-44.4 29.3-62.8zm-137.4-69.9c24.5-22.2 28.4-27.4 25.2-45 0 0 23.1 31-5.8 55.4-28.9 24.5-24.4 40.4-24.4 40.4s-19.6-28.5 5-50.8zm-125.1-35c24.5-22.2 28.4-27.4 25.2-45 0 0 23.1 31-5.8 55.4-28.9 24.5-24.4 40.4-24.4 40.4s-19.6-28.6 5-50.8zm-131.3-53.9c-6.5 16.8-3.7 22.5 16.3 48.6 20 26-4.5 50.8-4.5 50.8s7.4-14.9-16.5-43.9c-23.9-28.9 4.7-55.5 4.7-55.5zm-174.8 40.4c-3.2 17.6.6 22.8 25.2 45 24.5 22.2 5 50.8 5 50.8s4.5-15.9-24.4-40.4c-28.9-24.4-5.8-55.4-5.8-55.4zm-164.8 67.6c3.8 23.9 11 28.9 52.5 47.3 41.4 18.4 29.4 62.9 29.4 62.9s-1.4-22.2-49.4-41.6c-48.1-19.5-32.5-68.6-32.5-68.6zm-40.3 145.1c55.7 7.6 58.1 64.2 58.1 64.2s-10-25.7-73.9-32.3c-63.9-6.6-63.8-69.9-63.8-69.9 13.4 26.9 23.9 30.4 79.6 38zm-67.8 116.6c55.2-10.5 77.3 42.1 77.3 42.1s-18.4-21-80.9-7c-62.5 14-84.6-45.6-84.6-45.6 22 21 33 21 88.2 10.5zM1607 702.2c-28 102.7-93.6 182.7-376.3 210.4-104.1 10.2-175.4 51.1-223.2 98.7-3.6 7.2-6.7 14.9-10.1 23.3 2.3 12.7 2.6 20.7 2.6 20.7v81.7c0-20.3 63-186.5 241.4-204 183.9-18 294.6-27 365.6-83.2v352.7c0 1.3-.3 151.8-117.5 220.1l.1.9s-447.3 277.4-489.6 309.1v52.4h-14v-58.5c-85-51.3-480.2-303.3-480.2-303.3l3.2-.4c-117.3-68.4-116-218.9-116-220.4V843.5c57 42.8 157.8 82.3 320.1 100.1C892.2 963.3 972 1063.7 986 1110.3v-52.4 25.4-28s-3.6-8.2-1.3-21.2c-2.4-5.7-6.4-11.2-8.8-16.4-51.4-57-134.2-92.3-249.5-105-280.1-30.8-333.3-160-333.3-207v-96.2c0 39.6 47.7 138.9 267.9 196.9 175.2 46.1 248.3 74.8 285.8 120.8-16.7-36.7-54.8-80.6-161.1-113.7 0 0-161.8-49.1-202.3-73.7l8.1-7.5c-.4-6.2-.8-12.5-.8-18.8 0-215 182.8-389.2 408.4-389.2 223.1 0 404.3 170.6 408.2 382.3l25.9 19.2s-45.2 27.5-180.3 63.1c-132.3 34.9-210.6 76.1-241.8 146.9 34.1-53.7 111.4-84.9 300.6-129.3 211-49.5 281.3-153.1 295.3-209.8v105.5z"/><path fill="#427B9E" d="M989.5 1055.3c-.1-.3-.2-.5-.3-.8-.1.3-.2.5-.3.8h.6z"/><path fill="#D77145" d="M855.6 539.9L995.4 361l246.5 298.1 58.9-31.6 106.5 79c-3.9-211.7-185.1-382.3-408.2-382.3-225.5 0-408.4 174.3-408.4 389.2 0 6.3.4 12.5.8 18.8l227.3-209.9 36.8 17.6z"/><path fill="#0081C3" d="M1200.2 894c317.7-56.1 350.7-154.3 339.7-147.3-46 61.4-158.2 80.7-360.5 122.7-110.9 22.6-160.2 74.7-182.3 118-3.3 6.4-5.9 12.7-8.1 18.6-6.4-17-16.8-36.7-33.8-56-29.2-33.3-77.6-65.8-158.5-82.3-202.3-42.1-299.8-63.1-349.5-128-11-7 25.8 87.7 331.1 154.3 119.7 33.4 162.9 53.7 195.9 123.7 2.4 5.2 8.1 10.7 10.5 16.4-2.3 13 1.3 21.2 1.3 21.2V1785h14v-729.6s-.3-8-2.6-20.7c3.4-8.4 6.7-16.1 10.3-23.3 32.6-64.9 76.5-85 192.5-117.4zm-210.7 161.3h-.5c.1-.3.2-.5.3-.8 0 .3.1.6.2.8z"/><path fill="#FFFFFE" d="M1035.9 673.1l69.9 77.2 120-80.7-225.8-284v182.3l63.9 73.6z"/><path opacity=".29" fill="#0081C3" d="M1035.9 673.1l69.9 77.2 120-80.7-225.8-284v182.3l63.9 73.6z"/><path fill="#FFFFFE" d="M1197.7 788.8l99.4-143.7-180.3 115.7z"/><path opacity=".29" fill="#0081C3" d="M1197.7 788.8l99.4-143.7-180.3 115.7z"/><path fill="#FFFFFE" d="M873 781.8l50.2 56.1-67.8-280.5-38.4-17.5v140.2l56 52.6z"/><path opacity=".29" fill="#0081C3" d="M873 781.8l50.2 56.1-67.8-280.5-38.4-17.5v140.2l56 52.6z"/><path fill="#D77145" d="M495 592.5c62.5-14 80.9 7 80.9 7s-22.1-52.6-77.3-42.1c-55.2 10.5-66.2 10.5-88.3-10.5.1 0 22.2 59.6 84.7 45.6zM550.7 472.7c63.9 6.6 73.9 32.3 73.9 32.3s-2.4-56.6-58.1-64.2c-55.7-7.6-66.1-11.1-79.6-38 0 .1 0 63.3 63.8 69.9zM639.2 364.3c48 19.4 49.4 41.6 49.4 41.6s12-44.5-29.4-62.9-48.6-23.4-52.5-47.3c.1 0-15.5 49.1 32.5 68.6zM777.4 283.5c28.9 24.5 24.4 40.4 24.4 40.4s19.5-28.6-5-50.8c-24.5-22.2-28.4-27.4-25.2-45 0 0-23.1 31 5.8 55.4zM1423.5 603s18.4-21 80.9-7c62.5 14 84.6-45.6 84.6-45.6-22.1 21-33.1 21-88.3 10.5-55.1-10.5-77.2 42.1-77.2 42.1zM1374.9 508.6s10-25.7 73.8-32.3c63.9-6.6 63.8-69.8 63.8-69.8-13.4 26.9-23.9 30.4-79.6 38-55.6 7.4-58 64.1-58 64.1zM1360.3 367.8c48-19.4 32.4-68.5 32.4-68.5-3.8 23.9-11.1 28.9-52.5 47.3s-29.3 62.9-29.3 62.9 1.4-22.3 49.4-41.7zM1222.1 287.1c28.9-24.5 5.8-55.4 5.8-55.4 3.2 17.6-.6 22.8-25.2 45-24.5 22.2-5 50.8-5 50.8s-4.4-16 24.4-40.4zM1097 252c28.9-24.5 5.8-55.4 5.8-55.4 3.2 17.6-.6 22.8-25.2 45-24.5 22.2-5 50.8-5 50.8s-4.4-16 24.4-40.4zM958.1 287.1s24.5-24.8 4.5-50.8c-20-26.1-22.8-31.8-16.3-48.6 0 0-28.6 26.6-4.7 55.5 23.9 29 16.5 43.9 16.5 43.9z"/></svg>