<svg xmlns:xlink="http://www.w3.org/1999/xlink"  version="1" xmlns="http://www.w3.org/2000/svg" viewBox="0 0 150 150"><path fill="none" d="M80 26H46c-.9 0-1.5.2-2.2.8-.7.7-.8 1.3-.8 2.2v35h37V26zm-5 27.9c0 .2 0 .5-.2.6-.2.2-.4.2-.6.2-.1 0-7.1-1-10.7.8-.1.1-.3.2-.6.4-.6.5-1.5 1.1-2.5 1.1s-1.8-.6-2.4-1.1c-.2-.2-.4-.3-.6-.4-3.5-1.9-10.7-.9-10.8-.9-.2 0-.4 0-.5-.2-.1-.1-.1-.3-.1-.5V35.4c0-.2 0-.5.2-.6.2-.2.3-.2.6-.1 1 .2 2.2.6 3.2.7v-1.7c0-1.4.9-2.2 2.2-2.2 2.3 0 6.9 2.9 8.3 4.1 1.4-1.1 6.2-3.9 8.5-3.9 1.3 0 2.1.8 2.1 2v1.6l3.3-.8c.2-.1.4 0 .6.2.2.2.2.4.2.6v18.6zM91.9 99.8c1.1-.8 2.2-1.6 3.4-2.6l-1.8-6s-3.5.6-5.1-.1c-1.6-.7-.6-2.3-1.2-2.9-.6-.6-.9-.8-.9-.8l.6-1.1-.6-.9 1.1-1.7s-.8 0-1.3-.6c-.6-.6.3-1 .3-1 1.6-1.1 1.5-2.9 1.5-2.9 0-.7-.3-1.3-.3-1.3-.2-6.1 4.5-7.5 5.9-8 .7-.2 3.3-.6 6.1-.3h.5c2.6 0 5 1.2 6.6 3.1.2.2.4.5.6.8 1 1.4 1.5 3.2 1.5 5.1 0 1.7-.5 3.3-1.3 4.7-.4.9-.9 1.7-1.2 2.4 1.2-1.9 2.2-4 3.1-6.3 1.2-3 1.7-6.1 1.7-9.1V64H80v43.1c0-.1.4-.3.8-.5.9-.5 2.4-1.4 4.7-2.7 2.2-1.2 4.3-2.6 6.4-4.1z"/><path fill="none" d="M62 51.1c2-1 5-1.3 7-1.3V33.7c0-.3.1-.4-.3-.4-1.9 0-5.8 2.6-7 3.4l.3.4v14zM59 36.7c-1-.9-5-3.6-6.8-3.6-.3 0-.2 0-.2.6v16.1c2 0 5 .3 7 1.3V36.7z"/><path fill="none" d="M71 51h-1c-2.2 0-6.2.4-8.7 1.9l-.3.3v.5l-.5-.3-.5.4v-.6l-.2-.3c-2.6-1.5-6.6-1.9-8.7-1.9H50V37c-1-.1-2-.3-3-.5V53c3-.2 7.9-.5 11.1 1.2.3.1.6.6.9.8.4.4 1.1 1 1.5 1 .4 0 1-.7 1.5-1.1.3-.2.8-.6 1-.7 3.2-1.7 8-1.5 11-1.2V36.3l-3 .7v14z"/><path fill="#86162D" d="M108.7 78.6c0-1.9-.6-3.6-1.5-5.1-.2-.3-.4-.5-.6-.8-1.6-1.9-3.9-3.1-6.6-3.1h-.5c-2.8-.3-5.4.1-6.1.3-1.4.5-6.1 1.9-5.9 8 0 0 .3.6.3 1.3 0 0 .1 1.9-1.5 2.9 0 0-.8.5-.3 1 .6.6 1.3.6 1.3.6l-1.1 1.7.6.9-.6 1.1s.3.3.9.8c.6.6-.4 2.2 1.2 2.9 1.6.7 5.1.1 5.1.1l1.8 6c1.1-.9 2.2-1.9 3.4-3 2.4-2.2 4.6-4.5 6.3-6.8.4-.6.8-1.1 1.2-1.7l1.2-2.4c.9-1.4 1.4-3 1.4-4.7zM97.9 133.1c-3.3-1-6.5-.2-7.1 1.9-.6 2.1 1.5 4.6 4.9 5.6 3.3 1 9.1-1.3 9.1-1.3s-3.6-5.2-6.9-6.2zM91.1 124.2c-1.8 2.2-2.2 5-.8 6.1 1.4 1.1 4 .2 5.8-2 1.8-2.2 1.8-7.4 1.8-7.4s-5 1.1-6.8 3.3zM100.2 120.8c-1.2 2.6-.8 5.3.8 6.1 1.6.7 3.9-.8 5.1-3.4 1.2-2.6-.1-7.6-.1-7.6s-4.6 2.3-5.8 4.9zM109.9 115.2c-1 2.7-.5 5.4 1.1 6 1.7.7 3.9-1 4.9-3.7 1-2.7-.5-7.6-.5-7.6s-4.5 2.6-5.5 5.3zM118.5 108.7c-.5 2.5.4 4.8 1.9 5 1.6.3 3.2-1.5 3.7-4s-1.7-6.5-1.7-6.5-3.4 3-3.9 5.5zM127 105.9c1.4.1 2.8-1.6 3-3.9.2-2.3-2.1-5.8-2.1-5.8s-2.9 3-3.1 5.3c-.2 2.3.8 4.3 2.2 4.4zM131.9 97.3c1.2-.1 2.1-1.8 1.9-3.8-.2-2-2.7-4.5-2.7-4.5s-1.9 3-1.7 4.9c.2 2 1.3 3.5 2.5 3.4zM134.7 89.5c1.2-.1 2.1-1.8 1.9-3.8-.2-2-2.7-4.5-2.7-4.5s-1.9 3-1.8 4.9c.2 2 1.3 3.5 2.6 3.4zM109 130.1c-3.4-.4-6.4 1-6.7 3.1-.3 2.1 2.3 4.2 5.8 4.6 3.5.4 8.7-2.9 8.7-2.9s-4.3-4.4-7.8-4.8zM118 124.3c-3.5.3-6.1 2.3-5.9 4.5.2 2.2 3.2 3.6 6.6 3.3 3.5-.3 7.9-4.6 7.9-4.6s-5.2-3.6-8.6-3.2zM126 117.3c-2.7 1.1-4.4 3.3-3.8 5 .7 1.7 3.4 2.2 6.1 1.2 2.7-1.1 5.4-5.6 5.4-5.6s-4.9-1.7-7.7-.6zM131.9 108c-2.6 1.6-3.8 4.2-2.8 5.8 1 1.6 3.9 1.6 6.4 0 2.6-1.6 4.3-6.7 4.3-6.7s-5.3-.7-7.9.9zM136.9 99.1c-2.1 1.7-3 4.1-2 5.4 1 1.3 3.6 1 5.7-.6 2.1-1.7 3.2-6.4 3.2-6.4s-4.8-.1-6.9 1.6zM142.8 94.5c1.6-1.5 2.3-5.4 2.3-5.4s-4 .2-5.6 1.7c-1.6 1.5-2.2 3.5-1.3 4.6.9.9 3 .6 4.6-.9zM139 88.4c1.1.8 3-.1 4.3-1.9 1.2-1.8.9-5.7.9-5.7s-3.8 1.1-5 2.9c-1.2 1.9-1.3 4-.2 4.7z"/><path fill="#86162D" d="M117.6 120.5c5.3-4.4 10-9.5 13.6-15.3 1.8-2.9 3.4-6 4.5-9.2 1.1-3.2 1.8-7.1 1.5-10.1h-.2c.1 7-3 13.2-6.7 18.7-3.8 5.6-8.5 10.4-13.8 14.6-5.3 4.1-11.2 7.4-17.4 9.8-6.2 2.5-12.9 3.7-19.7 3.3v.2c6.7 1.6 13.9.6 20.4-1.6 6.6-2.2 12.5-6 17.8-10.4zM55.9 133.1c-3.3 1-6.8 6.2-6.8 6.2s5.8 2.3 9.1 1.3c3.3-1 5.5-3.5 4.9-5.6-.6-2.1-3.9-2.9-7.2-1.9zM63.5 130.3c1.4-1.1 1-3.9-.8-6.1-1.8-2.2-6.9-3.3-6.9-3.3s0 5.2 1.8 7.4c1.9 2.2 4.5 3.1 5.9 2zM52.8 126.9c1.6-.7 2-3.5.8-6.1-1.2-2.6-5.8-5-5.8-5s-1.3 5-.1 7.6c1.2 2.7 3.4 4.2 5.1 3.5zM42.8 121.2c1.7-.6 2.2-3.3 1.1-6-1-2.7-5.5-5.3-5.5-5.3s-1.6 4.9-.5 7.6c1 2.7 3.2 4.4 4.9 3.7zM33.3 113.7c1.5-.3 2.4-2.5 1.9-5s-3.9-5.4-3.9-5.4-2.2 4-1.7 6.5c.5 2.4 2.1 4.2 3.7 3.9zM23.7 102c.2 2.3 1.6 4.1 3 3.9 1.4-.1 2.4-2.1 2.2-4.4-.2-2.3-3.1-5.3-3.1-5.3s-2.3 3.5-2.1 5.8zM21.8 97.3c1.2.1 2.4-1.4 2.6-3.3.2-2-1.7-4.9-1.7-4.9s-2.5 2.5-2.7 4.5c-.2 1.9.6 3.6 1.8 3.7zM19.1 89.5c1.2.1 2.4-1.4 2.5-3.3.2-2-1.8-4.9-1.8-4.9s-2.5 2.5-2.6 4.5c-.1 1.9.7 3.6 1.9 3.7zM51.5 133.2c-.3-2.1-3.3-3.5-6.7-3.1-3.5.4-7.8 4.9-7.8 4.9s5.3 3.3 8.7 2.9c3.4-.5 6-2.6 5.8-4.7zM41.7 128.7c.2-2.1-2.4-4.2-5.9-4.5-3.5-.3-8.6 3.1-8.6 3.1s4.5 4.3 7.9 4.6c3.4.5 6.4-1 6.6-3.2zM31.5 122.3c.7-1.7-1-3.9-3.8-5-2.7-1.1-7.8.6-7.8.6s2.7 4.6 5.4 5.6c2.8 1 5.6.5 6.2-1.2zM24.7 113.8c1-1.6-.3-4.2-2.8-5.8-2.6-1.6-7.9-1-7.9-1s1.8 5.1 4.3 6.7c2.5 1.7 5.4 1.7 6.4.1zM18.9 104.5c1-1.3.1-3.7-2-5.4-2.1-1.7-7-1.6-7-1.6s1.1 4.7 3.2 6.4c2.2 1.6 4.7 1.9 5.8.6zM15.6 95.3c.9-1 .4-3.1-1.3-4.6-1.6-1.4-5.6-1.7-5.6-1.7s.6 4 2.3 5.5c1.6 1.5 3.7 1.8 4.6.8zM14.8 88.4c1.1-.8 1-2.8-.2-4.7-1.3-1.8-5-2.9-5-2.9s-.3 3.9.9 5.7c1.2 1.9 3.1 2.7 4.3 1.9z"/><path fill="#86162D" d="M54.6 129.1c-6.2-2.4-12.1-5.7-17.4-9.8-5.3-4.1-10-9-13.8-14.6-3.7-5.5-6.8-11.7-6.7-18.7h-.2c-.2 3 .4 6.8 1.5 10.1 1.1 3.2 2.7 6.3 4.5 9.2 3.7 5.8 8.4 10.9 13.7 15.3 5.3 4.4 11.2 8.2 17.7 10.5 6.5 2.2 13.7 3.2 20.4 1.6v-.2c-6.8.3-13.5-.9-19.7-3.4zM74.3 34.5l-3.3.8v-1.6c0-1.2-.8-2-2.1-2-2.3 0-7 2.7-8.4 3.9-1.4-1.1-6-4.1-8.3-4.1-1.3 0-2.2.8-2.2 2.2v1.7c-1-.1-2.3-.5-3.2-.7-.2-.1-.4 0-.6.1-.2.2-.2.4-.2.6v18.5c0 .2 0 .5.2.6.2.2.4.2.6.2.1 0 7.2-1 10.8.9.1.1.3.2.5.3.6.5 1.4 1.1 2.4 1.1s1.9-.6 2.5-1.1c.2-.2.4-.3.6-.4 3.5-1.9 10.6-.8 10.7-.8.2 0 .4 0 .5-.2.2-.2.2-.4.2-.6V35.3c0-.2 0-.5-.2-.6-.2-.2-.3-.2-.5-.2zm-5.6-1.2c.4 0 .3.1.3.4v16.1c-2 0-5 .3-7 1.3V37.2l-.3-.4c1.2-.9 5.2-3.5 7-3.5zm-16.7.4c0-.6-.2-.6.2-.6 1.9 0 5.8 2.7 6.8 3.6V51c-2-1-5-1.3-7-1.3v-16zM74 53c-3-.2-7.8-.6-11 1.1-.3.1-.7.6-.9.8-.5.4-1.1 1.1-1.6 1.1-.4 0-1-.7-1.4-1-.3-.2-.8-.6-1-.7C54.9 52.6 50 52.8 47 53V36.5c1 .2 2 .5 3 .5v14h1.1c2.1 0 6.1.4 8.7 1.9l.2.3v.6l.5-.3.5.3v-.5l.2-.3c2.6-1.5 6.6-1.9 8.7-1.9h1V37l3-.6V53z"/><path fill="#F4B460" d="M111 64V29.1c0-.9-.2-1.6-.9-2.2-.7-.7-1.4-.8-2.3-.8H80v38h31zM91.1 38.3c.8 1.4.9 2.4 1 3.9 2.5-3 5.1-7.1 4.5-10.8 0 0 4.7 1.5 6.6 8.7 1.1-1 1-3.1.5-4.3 1.7 1.2 11.3 12-1.5 19.2 2.4-4.7.6-11-3.5-13.9.3 1.3-.1 4.5-1.9 6.6.4-2.1-.6-3.5-.6-3.5s-.3 1.9-1.7 3.9c-1.2 1.8-2.1 3.7-.5 6.9-5-2.8-6.3-5.5-5.6-9.2.5-2.6 2.6-4.8 2.7-7.5z"/><path fill="#F4B460" d="M43 64v6.3c0 3.1.4 6.1 1.6 9.1 1.2 3 2.6 5.7 4.3 8 1.8 2.3 3.8 4.6 6.3 6.8 2.4 2.2 4.7 4.1 6.8 5.5 2.1 1.5 4.2 2.9 6.5 4.2 2.3 1.3 3.8 2.2 4.8 2.7.9.5 1.7.8 2.3 1.1.4.2.9.3 1.4.3.5 0 1.2-.1 1.6-.3.4-.2.5-.4 1.5-.6V64H43zm25 25.6c0 .3.2.4-.1.4H57.3c-.3 0-.3-.1-.3-.4v-.4c0-.3 0-.2.3-.2H60v-3.1c-1-.8-2.9-2.4-2.9-4.4 0-2 1.9-3.7 2.9-4.4V74h3v-4H62.7 65h-1v4h1v.9c0 .2.2.5.2.7 0 .3-.2.5-.2.7v.7h3v3h-1v3h-2v-3h-2.7s-1.8 0-1.8 1.7 1.6 2.3 2 2.3h5.6c.2 0 .4.3.4.5s-.2.5-.4.5H66c-.7 0-2 1-3 1.2V89h4.9c.3 0 .1-.1.1.2v.4zm-1-6.7l-.2.3h-1.3l-.2-.3H67z"/><path fill="#163962" d="M88.3 116.8c3-1.8 5.9-3.6 8.7-5.6 2.8-2 5.8-4.5 9.1-7.4 3.3-3 6.1-6.1 8.5-9.2 2.4-3.2 4.3-6.8 5.9-10.8 1.6-4.1 2.4-8.2 2.4-12.3V16c0-1.2-.4-2.5-1.3-3.4-.9-.9-1.9-1.6-3.2-1.6H35.3c-1.3 0-2.2.6-3.1 1.6-.9.9-1.2 2.1-1.2 3.4v55.5c0 4.1.6 8.2 2.3 12.3 1.6 4.1 3.5 7.7 5.9 10.8 2.4 3.2 5.2 6.2 8.5 9.2 3.3 3 6.3 5.5 9.1 7.4 2.8 2 5.7 3.8 8.7 5.6 3 1.8 5.2 2.9 6.5 3.6 1.3.6 2.3 1.1 3.1 1.4.6.3 1.2.4 1.9.4s1.3-.1 1.9-.4c.8-.3 1.8-.8 3.1-1.4 1.1-.6 3.3-1.8 6.3-3.6zm-8.7-9.7c-.5.2-1 .4-1.3.6-.4.2-.9.3-1.4.3-.5 0-1-.1-1.4-.3-.6-.3-1.3-.6-2.3-1.1-.9-.5-2.5-1.4-4.8-2.7-2.3-1.3-4.4-2.7-6.5-4.2-2.1-1.5-4.3-3.3-6.8-5.5-2.4-2.2-4.6-4.5-6.3-6.8-1.8-2.3-3-5-4.2-8-1.2-3-1.6-6.1-1.6-9.1V29.1c0-.9.1-1.6.8-2.2.7-.7 1.3-.8 2.2-.8h61.8c.9 0 1.6.2 2.3.8.7.7.9 1.3.9 2.2V70.3c0 3.1-.5 6.1-1.7 9.1-.9 2.3-1.9 4.4-3.2 6.3-.4.6-.8 1.2-1.2 1.7-1.8 2.3-3.9 4.6-6.3 6.8-1.2 1.1-2.3 2.1-3.4 3-1.2 1-2.3 1.8-3.3 2.6-2.1 1.5-4.2 2.9-6.5 4.2-2.3 1.3-3.9 2.2-4.8 2.7-.4.1-.7.3-1 .4z"/><path fill="#FFF" d="M93.9 55c-1.6-3.3-.7-5.2.5-6.9 1.3-1.9 1.7-3.9 1.7-3.9s1 1.4.6 3.5c1.8-2.1 2.2-5.3 1.9-6.6 4.2 2.9 5.9 9.2 3.5 13.9 12.8-7.2 3.2-18 1.5-19.2.6 1.2.7 3.3-.5 4.3-1.9-7.2-6.6-8.7-6.6-8.7.6 3.7-2 7.8-4.5 10.8-.1-1.5-.2-2.5-1-3.9-.2 2.7-2.2 4.9-2.8 7.6-.6 3.6.7 6.3 5.7 9.1zM67.9 89H63v-2.8c1-.2 2.4-1.2 3-1.2h2.1c.2 0 .4-.3.4-.5s-.2-.5-.4-.5h-5.6c-.4 0-2-.6-2-2.3 0-1.7 1.8-1.7 1.8-1.7H65v3h2v-3h1v-3h-3v-.7c0-.2.2-.5.2-.7 0-.3-.2-.5-.2-.7V74h-.5-.5v-4h1-2.3H63v4h-3v3.1c-1 .7-2.9 2.4-2.9 4.4 0 2 1.9 3.6 2.9 4.4V89h-2.7c-.3 0-.3-.1-.3.2v.4c0 .3 0 .4.3.4h10.6c.3 0 .1-.1.1-.4v-.4c0-.3.2-.2-.1-.2z"/><path fill="#FFF" d="M66.8 83.3l.2-.4h-1.6l.1.4z"/></svg>