<svg xmlns:xlink="http://www.w3.org/1999/xlink"  xmlns="http://www.w3.org/2000/svg" viewBox="0 0 2000 2000"><g fill-rule="evenodd" clip-rule="evenodd"><path fill="#183E6A" d="M1639.1 1230.3l276.1-177.8-37.5-23.8-721.6-.2c-.8 0-2.2 1.2-2.3 2l-22.8 160.9c-2.3 16.5-10.9 20-17.8 20h-.1c-6.9-.1-15.6-3.6-17.7-20.3l-59.6-454.5-63.1 316.4c-3.3 16.7-13.9 19-18.3 19.2-4.2.3-15.1-1.1-19.9-17.4l-48.6-166.5-38 122.3c-4.6 14.9-19.9 26.2-35.5 26.2l-659.3-1 .2.2-2.9 351.1c-23.5 15.7-57.4 53.3-64.2 141 0 0 21.5 21.9 85.3 22.5h.1c.1 0 .2-.2.2.1 63.7.3 85.5-21.2 85.5-21.2-5.7-100-48.7-135.8-71-147.9l2.8-322.9 274.5 174.6-1 128.9s-53.5 77.1 241.9 90.4c365.4 16.5 970.1 41.6 933.5-80.2l1.1-142.1z"/><g fill="#BED637"><path d="M1454.2 760.1h7v-61.5h-61.5v27l-78.9-50h32.8v-79.4h-79.4V646l-224.6-142.4L179 1004.2l633.2 1c1.7 0 4.9-2.2 5.4-3.9L866.5 844c4.8-15.6 15.3-17.3 19.7-17.3h.2c4.3.1 14.9 1.8 19.6 17.6l45.3 154.9 69.2-347.1c3.4-17 13.1-19.1 18.8-19.1 5.5.2 15.2 3.1 17.5 20.3l57 434.5 8.7-61.7c2.3-16.4 17.1-29.2 33.6-29.2l671.8.2-373.7-237zM1404.9 573.2h53.9V627h-53.9z"/></g><path fill="#BED637" d="M1481.7 488.7h46.1v46.1h-46.1z"/></g></svg>