<svg xmlns:xlink="http://www.w3.org/1999/xlink"  xmlns="http://www.w3.org/2000/svg" viewBox="0 0 2000 2000"><path fill="none" d="M1240.8 1198.5c53.5-82.5 37.4-199.5 37.4-199.5s-35.8 108.5-72.6 175.7c-36.9 67.1-99.9 120.8-99.9 120.8s81.5-14.3 135.1-97z"/><path fill="#F2F2F2" d="M365.2 1129.2c0 5.9 4.8 9.8 10.7 9.8H501v-18H370.7c-3.2 0-5.5 4.3-5.5 8.2z"/><path fill="#E95365" d="M363.8 1107.9c-4.3 3.5-7.1 7.3-7.1 13.3 0 10.7 8.5 17.8 19.1 17.8H520v5.2-7.3l-15.2-16H520v-15.4l-32.1-41.6h-98.7l-25.4 44zM501 1139H375.9c-5.9 0-10.7-3.8-10.7-9.8 0-4 2.3-8.2 5.5-8.2H501v18z"/><path fill="#F2F2F2" d="M314.8 1516.8c0 9.6 5.5 20.2 12.4 20.2H464v-38H321c-3.8 0-6.2 11.2-6.2 17.8z"/><path fill="#E95365" d="M483 1555V1537.6l-6.6-38.6h6.6v-12.8l-26.2-63.2H342.6l-29.5 69.3c-5 5.9-8.3 17.8-8.3 27.8 0 17.3 9.9 34.9 22.2 34.9h156zm-19-18H327.1c-6.9 0-12.4-10.5-12.4-20.2 0-6.6 2.5-17.8 6.2-17.8h143v38z"/><path fill="#F2F2F2" d="M802.9 1591.8c0 9.7 5.6 20.2 12.5 20.2H955v-38H809.3c-3.8 0-6.4 11.3-6.4 17.8z"/><path fill="#E95365" d="M974 1561.1l-28.9-62.1H830.8l-29.4 68.8c-5.1 5.8-8.3 18.2-8.3 28.1 0 17.3 9.8 35.2 22.1 35.2H974v-18.3l-9.4-38.6h9.4v-13.1zm-19 50.9H815.4c-6.9 0-12.5-10.5-12.5-20.2 0-6.5 2.6-17.8 6.4-17.8H955v38z"/><path fill="#F2F2F2" d="M766.8 203.8c0 6.3 5.2 10.2 11.6 10.2H917v-19H772.8c-3.6 0-6 4.5-6 8.8z"/><path fill="#E95365" d="M778.2 233H936V218.4L918.5 195H936v-10.6L900.2 138H792.9l-27.6 48.2c-4.7 3.8-7.8 14.5-7.8 21.1-.1 11.5 9.3 25.7 20.7 25.7zM917 214H778.4c-6.4 0-11.6-3.9-11.6-10.2 0-4.3 2.3-8.8 5.9-8.8H917v19z"/><path fill="#F2F2F2" d="M917.2 1828.9c0 5.1 4.1 10.1 9.1 10.1H1030v-19H921.8c-2.8 0-4.6 5.5-4.6 8.9z"/><path fill="#E95365" d="M937.7 1782l-21.7 33c-3.8 3-6.2 4.9-6.2 10.1 0 9 7.2 13.9 16.3 13.9h123.8v2.7-6.3l-13.7-15.4h13.7v-11.4l-28.1-26.6h-84.1zm92.3 57H926.2c-5 0-9.1-5-9.1-10.1 0-3.4 1.8-8.9 4.6-8.9H1030v19z"/><path fill="#F2F2F2" d="M192.1 628c0 8.6 7 20 15.7 20H388v-38H200.1c-4.8 0-8 12.2-8 18z"/><path fill="#E95365" d="M207.5 668H407v-22.2L395.5 610H407v-10l-36-46H227.1l-37 56.5c-6.3 5.2-10.5 16.8-10.5 25.6 0 15.4 12.4 31.9 27.9 31.9zM388 648H207.7c-8.7 0-15.7-11.4-15.7-20 0-5.8 3.2-18 8-18h188v38z"/><path fill="#F2F2F2" d="M415.4 826.9c0 5 4.1 10.1 9 10.1H520v-19H420c-2.7 19-4.6 5.5-4.6 8.9z"/><path fill="#C3C74B" d="M424.2 856H540V843.7l-7.9-25.6h7.9v-.6L518.1 781h-82.5l-21.2 37.4c-3.7 3-6.1 12-6.1 17-.1 8.8 7.1 20.6 15.9 20.6zm95.8-19h-95.6c-4.9 0-9-5.1-9-10.1 0-3.3 1.9 10.1 4.6-8.9h100v19z"/><path fill="#F2F2F2" d="M155.6 751.4c0 9.7 5.5 10.6 12.4 10.6h145v-19H161.9c-3.8 0-6.3 1.8-6.3 8.4z"/><path fill="#C3C74B" d="M167.8 781H332v-12.8L317.2 743H332v-26.1L297.7 668H183.4L154 730.2c-5.1 5.8-8.3 12-8.3 21.9 0 17.2 9.8 28.9 22.1 28.9zM313 762H168c-6.9 0-12.4-.9-12.4-10.6 0-6.6 2.5-8.4 6.3-8.4H313v19z"/><path fill="#F2F2F2" d="M158.6 1208.1c-2.7 5.7-2.7 14.6.6 23.7 5.1 13.3 15.4 21.8 23.1 19l161.2-60-16.9-45.2-168 62.5z"/><path fill="#C3C74B" d="M373.1 1201.9l-1.3-3.2-2.4-6.5-3.6-9.7-.2-.5-30.7-39.7 14.7-5.5-9.8-26.1-65.6-63.7-129.8 48.4.3 103.3c-2.7 10.2-1.9 23.6 3.1 37.2 9 24 27.4 39.1 41.4 34.3l3.3-1.2 171.6-63.9 9-3.2zm-190.8 48.9c-7.7 2.8-18.1-5.7-23.1-19-3.3-9.1-3.3-18-.6-23.7l168.1-62.6 16.9 45.2-161.3 60.1z"/><path fill="#F2F2F2" d="M582.2 1469.9c0 5.1 4.1 10.1 9.2 10.1H691v-19H586.9c-2.8 0-4.7 5.5-4.7 8.9z"/><path fill="#C3C74B" d="M709 1456.7l-22-33.7h-84.2l-21.7 36.6c-3.7 3-6.2 12.6-6.2 17.8 0 9 7.3 21.6 16.3 21.6H708.9V1483.4l-7.6-22.5h7.6v-4.2zm-18 23.3h-99.6c-5.1 0-9.2-5-9.2-10.1 0-3.4 1.8-8.9 4.7-8.9H691v19z"/><path fill="#F2F2F2" d="M487.9 391.4c0 16.7 13.5 30.6 30.2 30.6h343v-57H503.3c-9.2 0-15.4 15.3-15.4 26.4z"/><path fill="#C3C74B" d="M517.4 441H917v.4-20.5L879.9 365H917v-32.2L832.6 233H555.5L484 347.5c-12.2 10-20.2 23.7-20.2 40.6 0 29.7 24 52.9 53.6 52.9zM861 422H518c-16.7 0-30.2-13.9-30.2-30.6 0-11.2 6.2-26.4 15.4-26.4H861v57z"/><path fill="#F2F2F2" d="M386.2 742.1c0 7.4 6 19.9 13.4 19.9H559v-38H393c-4.1 19-6.8 13.1-6.8 18.1z"/><path fill="#C32026" d="M384.5 721.7c-5.4 4.4-9 9.9-9 17.4 0 13.3 10.7 22.9 23.9 22.9H578v4.3V757.2L561 724h17v-6l-38.1-50H416.3l-31.8 53.7zM559 762H399.6c-7.4 0-13.4-12.5-13.4-19.9 0-5 2.7.9 6.8-18.1h166v38z"/><path fill="#F2F2F2" d="M471.1 543.9c0 5 4.1 10.1 9.1 10.1H578v-19H475.8c-2.7 0-4.7 5.4-4.7 8.9z"/><path fill="#C32026" d="M596 523.2L575.6 498h-84L470 530.1c-3.7 3-6.2 5-6.2 10.1 0 9 7.2 13.8 16.3 13.8H596v2-6.2l-6.1-14.8h6.1v-11.8zM578 554h-97.8c-5 0-9.1-5.2-9.1-10.1 0-3.4 1.9-8.9 4.7-8.9H578v19z"/><path fill="#F2F2F2" d="M970.4 335.9c0 5 4.1 10.1 9.2 10.1H1088v-19H975c-2.7 0-4.6 5.5-4.6 8.9zM1030 290H922.8c-2.8 0-4.7 5-4.7 8.5 0 5 4.1 9.5 9.1 9.5H1030v-18z"/><path fill="#C32026" d="M910.9 307.8c0 9 7.2 19.2 16.1 19.2H970.8l-1.6-.4c-3.8 3-6.2 2.7-6.2 7.8 0 9 7.3 11.5 16.2 11.5h127.6v5.8-6.4l-17.9-18.5h17.9v-8.2l-32.2-28.8H1050V287l-27.5-35.2h-84L917 290.6c-3.7 3.1-6.1 12-6.1 17.2zm16.3.2c-5 0-9.1-4.5-9.1-9.5 0-3.5 1.8-8.5 4.7-8.5H1030v18H927.2zm160.8 38H979.5c-5.1 0-9.2-5.1-9.2-10.1 0-3.4 1.9-8.9 4.7-8.9h113v19z"/><path fill="#F2F2F2" d="M442.3 1639.8c0 6.3 5.3 10.2 11.6 10.2H578v-19H448.2c-3.5 0-5.9 4.5-5.9 8.8z"/><path fill="#C32026" d="M596 1668v-10.5l-2.9-26.6h2.9v-7.3l-21-30.7H468.4l-27.6 40.2c-4.6 3.8-7.7 8.5-7.7 15.1 0 11.3 9.2 19.7 20.6 19.7H597.4 596zm-18-18H453.9c-6.3 0-11.6-3.9-11.6-10.2 0-4.3 2.4-8.8 5.9-8.8H578v19z"/><path fill="#F2F2F2" d="M464.6 1355.8c0 6.3 5.2 10.2 11.6 10.2H615v-19H470.5c-3.5 0-5.9 4.5-5.9 8.8z"/><path fill="#C32026" d="M476 1385h158v-11.7l-18.5-26.4H634v-7.5l-36.8-29.5H490.6l-27.5 39.6c-4.8 3.8-7.7 8.8-7.7 15.4 0 11.4 9.2 20.1 20.6 20.1zm139-19H476.2c-6.4 0-11.6-3.9-11.6-10.2 0-4.4 2.3-8.8 5.9-8.8H615v19z"/><path fill="#F2F2F2" d="M641.4 571.6c0 11.8 9.6 20.4 21.4 20.4H899v-38H652.3c-6.5 19-10.9 9.6-10.9 17.6z"/><path fill="#34A196" d="M936 537.8L886.8 479H689.5l-50.9 75.4c-8.7 7.1-14.4 11.4-14.4 23.5 0 21.1 17.1 32.1 38.2 32.1H935.9v5.1-14.6L920.4 554H936v-16.2zM899 592H662.7c-11.8 0-21.4-8.6-21.4-20.4 0-8 4.4 1.4 10.9-17.6H899v38z"/><path fill="#F2F2F2" d="M226.4 1365c0 8.6 7 20 15.7 20h184v-38H234.4c-4.8 19-8 12.2-8 18z"/><path fill="#34A196" d="M445 1404v-19.8l-14.8-37.2H445v-8.5l-39.5-47.5h-144l-37.2 57.3c-6.3 5.2-10.6 15.8-10.6 24.7 0 15.4 12.6 31 27.9 31H445zm-19-19H242c-8.7 0-15.7-11.4-15.7-20 0-5.8 3.2 1 8-18H426v38z"/><path fill="#F2F2F2" d="M133.2 971.9c-6.3 5.3-9.7 13.8-8 22.5 2.5 12.9 15 21.3 27.8 18.8l267.2-51.8-8.5-43.6-278.5 54.1z"/><path fill="#34A196" d="M156.3 1032l5.4-1.1 284.4-55.2 14.7-2.8-.6-3 2.2-6.3 1.6-9.3v-.3l-34.9-38.8 22.5-4.7-5.8-25.1-75.8-62.7-215.5 41.7-38.5 98.1c-8 9.5-12 22.3-9.5 35.5 4.5 23.1 26.8 38.2 49.8 34zm-3.3-18.8c-12.8 2.5-25.3-5.9-27.8-18.8-1.7-8.7 1.7-17.2 8-22.5l278.6-54.1 8.5 43.6-267.3 51.8z"/><path fill="#F2F2F2" d="M462.2 1261.9c0 5 4.2 10.1 9.2 10.1H578v-19H467c-2.9 0-4.8 5.5-4.8 8.9z"/><path fill="#34A196" d="M471.3 1291H596V1275.6l-14.5-22.7H596v-4.2l-28.9-32.8h-84.3l-21.7 36.1c-3.7 3-6.1 12.3-6.1 17.5 0 9.2 7.2 21.5 16.3 21.5zm106.7-19H471.4c-5 0-9.2-5.1-9.2-10.1 0-3.4 1.9-8.9 4.8-8.9h111v19z"/><path fill="#F2F2F2" d="M320.2 468.8c0 6.3 5.2 10.2 11.6 10.2H464v-19H326.1c-3.5 0-5.9 4.5-5.9 8.8z"/><path fill="#34A196" d="M331.6 479h151.5v5.3-8L471 460h12v-17.5L452.8 402H346.2l-27.5 45.1c-4.7 3.8-7.8 7-7.8 13.6 0 11.3 9.3 18.3 20.7 18.3zm132.4 0H331.8c-6.4 0-11.6-3.8-11.6-10.2 0-4.3 2.3-8.8 5.9-8.8H464v19z"/><path fill="#F2F2F2" d="M593.3 1743.1c0 12.1 9.7 19.9 21.8 19.9H861v-37H604.5c-6.6 0-11.2 9-11.2 17.1z"/><path fill="#34A196" d="M642.3 1631l-51.8 80.2c-8.8 7.3-14.6 18.7-14.6 31 0 21.5 17.3 39.8 38.8 39.8H899v-20.4l-21.5-35.7H899v-28.1l-55.8-66.9H642.3zM861 1763H615.1c-12.1 0-21.8-7.9-21.8-19.9 0-8.1 4.6-17.1 11.2-17.1H861v37z"/><path fill="#F2F2F2" d="M1606.2 1110.8c0-4-2.2-8.8-5.4-8.8H1465v19h130.5c6 0 10.7-4.2 10.7-10.2z"/><path fill="#E95365" d="M1595.7 1139c10.6 0 19.1-9.5 19.1-20.1 0-6-2.8-11.3-7.2-14.9l-25.5-40.1h-98.6l-37.5 33.3v4.7h20.7l-1.7 26.6v10.4h-2.1 132.8zm-130.7-37h135.8c3.2 0 5.4 4.8 5.4 8.8 0 5.9-4.7 10.2-10.7 10.2H1465v-19z"/><path fill="#F2F2F2" d="M1656.7 1516.9c0-6.7-2.6-17.9-6.3-17.9H1503v38h141.4c6.8 0 12.3-10.4 12.3-20.1z"/><path fill="#E95365" d="M1628.8 1423h-114.2l-30.6 54.8v21.2h11.1l-11.1 30.2v12.1-4.3h160.6c12.3 0 22.2-11 22.2-28.3 0-10-3.3-16.4-8.3-22.2l-29.7-63.5zm-125.8 76h147.4c3.7 0 6.3 11.3 6.3 17.9 0 9.7-5.6 20.1-12.3 20.1H1503v-38z"/><path fill="#F2F2F2" d="M1296.2 1563.7c0-4.2-1.7-8.7-4.1-8.7H1201v19h87.2c4.5 0 8-4 8-10.3z"/><path fill="#E95365" d="M1182 1577.5v15.5h106.3c8.1 0 14.5-12.4 14.5-23.8 0-6.4-2.2-17.8-5.4-21.7l-19.3-48.6h-74.6l-21.5 44.7v11.3h8.8l-8.8 22.3v.3zm19-22.5h91.2c2.4 0 4.1 4.5 4.1 8.7 0 6.3-3.6 10.3-8.1 10.3H1201v-19z"/><path fill="#F2F2F2" d="M1204.6 203.7c0-4.3-2.4-8.7-5.9-8.7H1069v19h124.1c6.4 0 11.5-3.9 11.5-10.3z"/><path fill="#E95365" d="M1050 210v7.9-4h-1.2H1193.2c11.4 0 20.7-6.7 20.7-18.1 0-6.6-3.1-11.5-7.8-15.3l-27.6-42.6h-107.2L1050 176v19h3l-3 15zm19-15h129.7c3.5 0 5.9 4.4 5.9 8.7 0 6.4-5.1 10.3-11.6 10.3h-124v-19z"/><path fill="#F2F2F2" d="M1779.4 618.4c0-5.8-3.3-8.4-8-8.4H1579v19h184.8c8.6 0 15.6-1.9 15.6-10.6z"/><path fill="#E95365" d="M1559 591.6V610h17l-17 27.4v10.5h205.1c15.3 0 27.8-11.6 27.8-27.1 0-8.7-4.2-19.4-10.5-24.6l-37.1-61.3h-143.7l-41.6 56.7zm20 18.4h192.4c4.7 0 8 2.6 8 8.4 0 8.7-7 10.6-15.6 10.6H1579v-19z"/><path fill="#F2F2F2" d="M1556 827c0-3.4-1.8-9-4.6-9H1446v19h101.1c4.9 0 8.9-5.1 8.9-10z"/><path fill="#C3C74B" d="M1547.2 837c8.8 0 15.9-4.5 15.9-13.3 0-5.1-2.3-7.9-6-10.9l-21.2-31.8h-82.5l-25.5 28v9h11.3l-11.3 17.3v6.1-4.4h119.3zM1446 818h105.4c2.7 0 4.6 5.6 4.6 9 0 4.9-4 10-8.9 10H1446v-19z"/><path fill="#F2F2F2" d="M1345.5 241.9c0-3.3-1.9-8.9-4.6-8.9h-103v19h98.6c5 0 9-5.2 9-10.1z"/><path fill="#C3C74B" d="M1220 243.4v8.7h116.7c8.8 0 16-8 16-16.8 0-5.1-2.4-6.6-6-9.6l-21.2-30.6H1243l-23 22.1V233h8.9l-8.9 10.4zm18-10.4h103c2.6 0 4.6 5.6 4.6 8.9 0 4.9-4.1 10.1-9 10.1H1238v-19z"/><path fill="#F2F2F2" d="M1815.9 741.8c0-6.6-2.6-17.8-6.3-17.8H1654v38h149.5c6.8 0 12.4-10.4 12.4-20.2z"/><path fill="#C3C74B" d="M1673.7 648l-37.7 60.5V724h18.2l-18.2 35.9v21h167.7c12.2 0 22.1-17.6 22.1-35 0-9.9-3.3-22.5-8.2-28.3L1788 648h-114.3zm-19.7 76h155.6c3.8 0 6.3 11.3 6.3 17.8 0 9.7-5.6 20.2-12.4 20.2H1654v-38z"/><path fill="#F2F2F2" d="M1812.2 1223.5c3.4-9.1 3.3-18 .6-23.7l-168-62.6-16.8 45.3 161.1 60c7.8 2.9 18.1-5.7 23.1-19z"/><path fill="#C3C74B" d="M1826.9 1087.1l-129.8-48.3-65.6 63.6-9.7 26.2 14.7 5.5-30.6 39.6-.2.4-3.6 9.8-2.4 6.4-1.2 3.2 8.9 3.3 171.6 63.8 3.3 1.3c13.9 4.8 32.4-10.3 41.3-34.3 5.1-13.7 5.9-27.2 3.1-37.3l.2-103.2zm-199 95.4l16.8-45.3 168 62.6c2.7 5.7 2.8 14.7-.6 23.7-5 13.3-15.3 21.8-23.1 19l-161.1-60z"/><path fill="#F2F2F2" d="M1389.2 1469.9c0-3.4-1.9-8.9-4.7-8.9H1276v19h104.1c5.1 0 9.1-5.1 9.1-10.1z"/><path fill="#C3C74B" d="M1380.2 1480c9 0 16.3-6.2 16.3-15.1 0-5.2-2.4-7.1-6.1-10.2l-21.7-31.7h-84.3l-27.4 25.4v12.6h13.1l-13.1 14.2V1481.5v-1.4H1380.2zm-104.2-19h108.5c2.8 0 4.7 5.5 4.7 8.9 0 5-4.1 10.1-9.2 10.1h-104v-19z"/><path fill="#F2F2F2" d="M1468.6 411.1c0-5.2-2.9-9.1-7-9.1H1296v20h159c7.5 0 13.6-3.4 13.6-10.9z"/><path fill="#C3C74B" d="M1276 389.6V402h15l-15 27.4V441H1455.3c13.4 0 24.3-11.3 24.3-24.7 0-7.6-3.7-14.6-9.3-19.1L1438 346h-125.6l-36.4 43.6zm20 12.4h165.6c4.1 0 7 3.9 7 9.1 0 7.5-6.1 10.9-13.7 10.9h-159v-20z"/><path fill="#F2F2F2" d="M1585.3 732.6c0-5-2.9-8.6-6.8-8.6H1428v19h143.9c7.4 0 13.4-3 13.4-10.4z"/><path fill="#C32026" d="M1572.1 762c13.2 0 23.9-12 23.9-25.2 0-7.6-3.6-14.2-9.1-18.6l-31.8-50.2h-123.6l-41.6 41.6V724h20.5l-20.5 24.8V761.9h182.2zM1428 724h150.5c4 0 6.8 3.6 6.8 8.6 0 7.4-6 10.4-13.4 10.4H1428v-19z"/><path fill="#F2F2F2" d="M1500.3 524.9c0-3.4-1.9 10.1-4.7-8.9H1390v19h101.2c5.1 0 9.1-5.1 9.1-10.1z"/><path fill="#C32026" d="M1371 514.8v1.2h10.6l-10.6 25.5V554h120.4c9 0 16.2-9.9 16.2-18.9 0-5.2-2.4-14.3-6.2-17.3l-21.6-38.8h-83.9l-24.9 35.8zm19 1.2h105.7c2.8 19 4.7 5.6 4.7 8.9 0 5-4 10.1-9.2 10.1H1390v-19z"/><path fill="#F2F2F2" d="M1529.2 1639.8c0-4.3-2.4-8.8-5.9-8.8H1390v19h127.6c6.3 0 11.6-3.9 11.6-10.2z"/><path fill="#C32026" d="M1503.2 1574h-106.7l-25.5 41.3v15.7h7.3l-7.3 18.3v8-7.1H1517.8c11.4 0 20.6-5.1 20.6-16.4 0-6.6-3.1-12.4-7.7-16.2l-27.5-43.6zm-113.2 57h133.2c3.5 0 5.9 4.5 5.9 8.8 0 6.3-5.2 10.2-11.6 10.2H1390v-19z"/><path fill="#F2F2F2" d="M1506.8 1355.8c0-4.3-2.4-8.8-5.9-8.8H1371v19h124.3c6.4 0 11.5-3.8 11.5-10.2z"/><path fill="#C32026" d="M1495.4 1366c11.4 0 20.7-5.2 20.7-16.5 0-6.6-3.1-11.9-7.8-15.7l-27.5-42.8h-106.7l-22.2 40.2v15.8h4l-4 18.1v7.8-6.9h-.1 143.6zm-124.4-19h129.9c3.5 0 5.9 4.5 5.9 8.8 0 6.3-5.2 10.2-11.6 10.2H1371v-19z"/><path fill="#F2F2F2" d="M1362 609.4c0-3.4-1.8.6-4.6.6h-99.9 95.5c5 0 9 4.3 9-.6z"/><path fill="#34A196" d="M1238 619.8v9.2h115.3c8.7 0 15.9-8.3 15.9-17.1 0-5.1-2.3-6-6-8.9l-21.3-30h-82.3l-21.6 20.4V610h7.6l-7.6 9.6v.2zm19.5-9.8h99.9c2.8 0 4.6-4 4.6-.6 0 4.9-4 .6-9 .6h-95.5z"/><path fill="#F2F2F2" d="M1745.1 1364.9c0-5.8-3.3-17.9-8-17.9H1559v38h170.4c8.6 0 15.7-11.4 15.7-20.1z"/><path fill="#34A196" d="M1710 1272h-144.1l-43.9 58.1v16.9h19.3l-19.3 28.8v10.7-1.6h207.7c15.4 0 27.9-10.9 27.9-26.4 0-8.7-4.2-19.7-10.5-24.8L1710 1272zm-151 75h178.1c4.7 0 8 12.1 8 17.9 0 8.7-7.1 20.1-15.7 20.1H1559v-38z"/><path fill="#F2F2F2" d="M1846.3 986c1.7-8.7-1.7-17.2-8-22.5l-278.6-54.1-8.4 43.6 267.1 51.8c12.9 2.5 25.4-5.9 27.9-18.8z"/><path fill="#34A196" d="M1855.5 954.1l-38.5-98.2-215.2-41.8-75.4 62.8-4.8 25.2 24.2 4.7-31.5 38.7-.1.4-1.8 9.3-1.2 6.2-.6 3.1 14.8 2.8 284.3 55.2 5.4 1.1c23.1 4.1 45.4-11 49.8-34 2.6-13.1-1.3-25.9-9.4-35.5zm-295.8-44.7l278.6 54.1c6.2 5.3 9.6 13.8 8 22.5-2.5 12.9-15 21.3-27.9 18.8L1551.3 953l8.4-43.6z"/><path fill="#F2F2F2" d="M1509.2 1261.9c0-3.5-1.9-8.9-4.6-8.9H1390v19h110c5.1 0 9.2-5.1 9.2-10.1z"/><path fill="#34A196" d="M1510.4 1247.9l-21.7-31.9h-84.3l-14.4 24.5v33-1.5h-3.2H1500.2c9 0 16.3-4.9 16.3-13.9 0-5.2-2.4-7.2-6.1-10.2zM1390 1253h114.5c2.8 0 4.6 5.4 4.6 8.9 0 5-4.1 10.1-9.1 10.1h-110v-19z"/><path fill="#F2F2F2" d="M1651.3 449.8c0-4.3-2.4-8.8-5.9-8.8H1503v19h136.7c6.4 0 11.6-3.8 11.6-10.2z"/><path fill="#34A196" d="M1484 468v10.9H1640c11.4 0 20.6-10.2 20.6-21.6 0-6.5-3.1-10.2-7.7-14.1l-27.5-41.3h-106.7l-34.6 32.1v6.9h16.4L1484 468zm19-27h142.4c3.5 0 5.9 4.4 5.9 8.8 0 6.4-5.2 10.2-11.7 10.2H1503v-19z"/><path fill="#F2F2F2" d="M1378.2 1733.6c0-8.1-4.6-7.6-11.2-26.6h-260v56h249.4c12 0 21.8-17.5 21.8-29.4z"/><path fill="#34A196" d="M1329.2 1612h-201l-59.3 77.5v17.5h25l-25 46.3v15-5.3h287.8c21.4 0 38.9-13.6 38.9-35.1 0-12.3-5.8-25.1-14.7-32.3l-51.7-83.6zm-222.2 95h260c6.6 19 11.2 18.5 11.2 26.6 0 12-9.8 29.4-21.8 29.4H1107v-56z"/><path fill="#C32026" d="M1051.5 423.3c-43.5 50.6-81.4 131.2-71.2 208.5 75.3 6 152-38.4 198.9-95.3 46.8-57.1 78.4-136.2 69.9-215.2-67.4 2.8-149.2 45.2-197.6 102zM1027.1 1439.5c20.6 6.2 51.4 5.7 83.9 5.7 132.4 0 322.3-217.3 324.9-474.5 2.6-185.4-90.2-310.5-231.7-318.6-102.4-5.8-175.2 39.3-209.6 66.9-.6.4-.9.6-1.4 1-.5-.4-.9-.6-1.4-1-34.5-27.6-107.2-72.7-209.7-66.9-141.6 8.1-234.3 133.2-231.7 318.6 2.7 257.3 192.5 474.5 324.9 474.5 32.6 0 63.3.5 84.1-5.7l33.9-7.8 33.8 7.8zm178.4-264.8c36.8-67.2 72.6-175.7 72.6-175.7s16.1 117.1-37.4 199.5c-53.6 82.6-135.2 96.9-135.2 96.9s63.2-53.6 100-120.7z"/></svg>