<svg xmlns:xlink="http://www.w3.org/1999/xlink"  version="1" xmlns="http://www.w3.org/2000/svg" viewBox="0 0 150 150"><path fill="#253C47" d="M75.4 128.6c-.7 0-1.4-.2-2-.5-.2-.1-.4-.3-.6-.4-37.3-21-47.9-48-50.3-67-2.6-20.7 3.9-36.3 4.1-37 .6-1.5 2.1-2.5 3.7-2.5h12.4C59 12.9 73.9 9 74.6 8.8c.3-.1.7-.1 1-.1.3 0 .7 0 1 .1.6.2 15.3 4.1 31.6 12.3h12.4c1.6 0 3.1 1 3.7 2.5.3.7 6.7 16.2 4.1 37-2.4 19-13.1 46.1-50.5 67.1-.1.1-.3.2-.4.3-.3.2-.6.3-1 .4-.3.1-.7.2-1.1.2z"/><path fill="#C32026" d="M120.6 25.2h-13.4c-16.4-8.4-31.6-12.4-31.6-12.4s-15.4 4-31.8 12.4H30.3S5 85.2 75.4 124.5v.1h.2v-.1c70.3-39.3 45-99.3 45-99.3z"/><path opacity=".28" d="M124 23.6c-.6-1.5-2.1-2.5-3.7-2.5h-12.4C91.6 12.9 76.9 9 76.3 8.8c-.2-.1-.5-.1-.7-.1v119.8c.2 0 .4-.1.7-.1.3-.1.7-.2 1-.4.1-.1.3-.2.4-.3 37.5-21.1 48.1-48.1 50.5-67.1 2.5-20.8-3.9-36.3-4.2-37z"/><g opacity=".2" fill="#CD5455"><path d="M61 108.8c3.7 4.3 7.7 9.1 12.1 14.3.6.3 1.2.7 1.8 1-.2-.3-.4-.5-.6-.9-1.5-2.1-3.8-5.2-6.7-9.4-3-4.1-6.2-8.6-9.8-13.6-3.6-4.9-7.4-10.3-11.5-16-4.1-5.8-8.1-11.3-12.1-16.7-2.6-3.4-5-6.7-7.4-9.8.4 4.1 1.1 8.4 2.3 12.8.1.2.3.3.4.5C35 77.9 40.4 84.4 46 91c5.5 6.6 10.5 12.5 15 17.8zM92.5 108.8c4.5-5.4 9.5-11.3 15.1-17.9 4.9-5.7 9.7-11.5 14.5-17.1 1.2-3.8 2.1-7.6 2.6-11.2-1.5 1.9-3 3.9-4.5 6-5.3 6.7-10.5 13.5-15.6 20.4-5.2 6.9-9.8 13.2-13.9 18.8-3.3 4.5-6.8 9.4-10.7 14.8.6-.4 1.2-.7 1.8-1.1 3.9-4.7 7.5-8.9 10.7-12.7zM81.5 96.7c1.3-8.6 2.7-18.2 4.3-28.8 1.5-10.6 3-21.2 4.4-31.7.7-6.3 1.5-12.1 2.1-17.6-3.4-1.3-6.4-2.4-8.9-3.2-.6 8.1-1.2 16.3-1.7 24.7-.6 9-1.2 17.8-1.6 26.2-.5 8.4-.9 16.3-1.3 23.7-.4 7.4-.7 13.8-1 19.2-.2 4.7-.4 9.8-.6 15.2l.1-.1c1.6-10.3 3-19.4 4.2-27.6zM67.8 107.8c-2.6-5.7-5.5-12-8.6-18.9C56 82 52.5 74.6 48.8 66.6c-3.8-7.9-7.5-15.7-11.1-23.2-2.7-5.6-5.1-10.8-7.4-15.8-.8 2.3-2 6.3-2.8 11.7 1.6 2.9 3.3 6.1 5.3 9.7 2.4 4.5 5.1 9.4 8.1 14.6 3.9 7.6 8 15.1 12.2 22.6 4.2 7.5 8.1 14.3 11.7 20.3 3.2 5.4 6.7 11.4 10.6 17.9-.4-.8-.9-2-1.6-3.6-1.4-3-3.4-7.3-6-13zM76.3 109.1c-.3-5.5-.6-11.9-.9-19.2-.3-7.3-.7-15.2-1.1-23.7-.3-8.4-.8-17.1-1.3-26.1-.5-8.6-1.1-17.1-1.6-25.6-2.4.8-5.6 1.8-9.2 3.2.6 5.6 1.3 11.6 2.1 18 .7 7 1.6 14.1 2.5 21.3.9 7.2 1.8 14.1 2.7 20.8.9 6.7 1.7 13 2.6 18.8.8 5.9 1.5 11 2.1 15.3.6 4.1 1.2 8.4 1.9 13.1h.1v-.1c.3-.2.5-.3.8-.5-.2-5.5-.4-10.6-.7-15.3zM101 86.3c4.3-7.5 8.6-15 12.7-22.4 2.9-5.3 5.7-10.1 8.2-14.5 1.2-2.1 2.3-4.1 3.4-5.9-.5-5.3-1.5-9.7-2.4-12.8-2 4.2-4.2 8.5-6.4 13.2-3.9 7.5-7.7 15.1-11.5 23S97.6 82.2 94.4 89c-3.2 6.8-6.2 13.1-8.8 18.8-2.6 5.7-4.6 10-6 13.1-.5 1.1-.9 2-1.2 2.7.3-.2.7-.4 1-.6 3.6-6 6.8-11.5 9.8-16.4 3.5-6 7.5-12.8 11.8-20.3zM84.4 119.9c14.9-9.7 24.7-20.4 31-31l-31 31zM35 85.6c6.7 12.5 18 25.4 36.7 36.7L35 85.6zM31.3 25.5H31s-.1.1-.1.4c.1-.1.2-.3.4-.4zM99.4 37.9c-1.9 6.8-3.7 13.7-5.5 20.6-1.8 7-3.6 13.7-5.3 20.2-1.7 6.5-3.2 12.6-4.6 18.3-1.4 5.7-2.6 10.6-3.6 14.9-.9 3.7-1.9 7.8-3 12.1.2-.1.5-.3.7-.4.3-.8.6-1.8 1.1-3 1.1-3.1 2.7-7.6 4.8-13.5 2.1-5.8 4.4-12.4 6.9-19.5 2.5-7.2 5.2-14.9 8-23.2 2.9-8.3 5.6-16.5 8.2-24.5 1.6-5.1 3.2-9.9 4.7-14.4h-4l-4.2-2.1c-1.3 4.6-2.7 9.4-4.2 14.5z"/><path d="M47 39.6c2.1 6.8 4.2 13.6 6.5 20.5 2.2 6.8 4.4 13.5 6.6 19.9 2.1 6.4 4.2 12.4 6.1 17.9 1.9 5.5 3.6 10.4 5.1 14.5 1.4 3.8 2.8 7.9 4.3 12.2.2.1.3.2.5.3-.2-.8-.6-2.3-1-4.3-.8-3.2-1.9-7.9-3.3-14s-3-12.9-4.8-20.2c-2-7.5-3.9-15.4-6-23.9-2.1-8.5-4.2-16.8-6.2-24.9-1.5-5.3-2.8-10.4-4.1-15.2-2.1.9-4.2 2-6.3 3.1h-1.7c1.4 4.5 2.8 9.2 4.3 14.1z"/></g><path fill-rule="evenodd" clip-rule="evenodd" fill="#FFF" d="M76.1 80.5h.2c0-.1-.1-.1-.2 0zM71.9 84.7c0 .1 0 .1.1.2 0-.1 0-.2-.1-.2z"/><g fill="#FFF"><path d="M48.4 34.8c-9.1 17.8-5 30.7 7.9 48.6C51 86 42.1 86.3 33 80.9c4.9 7.3 23.7 16.5 39.9 5.4-2.7-.8-30.3-25.5-24.5-51.5z"/><path d="M37.5 81.1c3.6 1.2 7.6-.8 8.7-4.5 1.2-3.6-.8-7.6-4.5-8.7-3.6-1.2-7.6.8-8.7 4.5-1.1 3.6.8 7.5 4.5 8.7zM109.4 37.1c-20 .8-29.2 10.8-38.4 30.8-4.9-3.4-9.5-10.9-9.3-21.6-4 7.9-2.7 28.7 15 37.4-.7-2.7 7.1-38.9 32.7-46.6z"/><circle cx="70.5" cy="48.9" r="6.9"/><path d="M122.5 45.7c-19.8.8-29 10.6-38.1 30.2v.1c-.3.6-.5 1.5-.8 2-.1.4-.4 1.1-.4 1.3-.4 1.3-.7 2.7-1.2 4-.2.7-.6 1.3-1 1.9 5.4-3.4 24.5-7.2 38.1-2.5-7.7-7.6-14.9-9.9-23.9-9.1 4.9-11.1 13.4-23.7 27.3-27.9z"/><circle cx="110" cy="65.9" r="6.9"/></g><g fill="#1A3142"><path d="M54.9 132.8c3.5-.7 6.7.6 7.1 2.9.4 2.3-2.2 4.6-5.7 5.3-3.5.7-9.2-2.5-9.2-2.5s4.3-5 7.8-5.7zM63 124.2c1.6 2.6 1.6 5.5.1 6.6-1.6 1-4.1-.2-5.7-2.8-1.6-2.6-1-8.1-1-8.1s5 1.7 6.6 4.3zM54 119.5c.9 2.9.2 5.8-1.6 6.4-1.8.6-3.9-1.3-4.8-4.2-.9-2.9 1.1-8.1 1.1-8.1s4.4 2.9 5.3 5.9zM44.7 112.4c.7 3-.1 5.8-1.9 6.3-1.8.5-3.9-1.5-4.6-4.5-.7-3 1.5-8 1.5-8s4.3 3.2 5 6.2zM36.6 104.4c.2 2.7-1 5-2.6 5.1-1.6.1-3.1-2-3.3-4.7-.2-2.7 2.5-6.7 2.5-6.7s3.2 3.6 3.4 6.3zM31 96c-.1 2.5-1.3 4.5-2.8 4.4-1.5 0-2.7-2.1-2.6-4.5.1-2.5 2.9-5.9 2.9-5.9s2.6 3.6 2.5 6zM27.3 87.5c-.4 2.1-1.8 3.5-3.1 3.2-1.2-.3-1.9-2.2-1.5-4.2.4-2.1 3.3-4.4 3.3-4.4s1.7 3.3 1.3 5.4zM25.4 78.9c-.4 2.1-1.8 3.5-3 3.2-1.3-.3-1.9-2.2-1.5-4.2.4-2.1 3.3-4.5 3.3-4.5s1.7 3.4 1.2 5.5zM43.8 128.3c3.6 0 6.5 1.8 6.5 4.1s-2.9 4.2-6.5 4.2-8.6-4.1-8.6-4.1 5-4.2 8.6-4.2zM35.3 121c3.5.7 6 3.2 5.5 5.4-.5 2.3-3.7 3.5-7.2 2.7-3.5-.7-7.6-5.9-7.6-5.9s5.7-2.9 9.3-2.2zM27.8 112.7c2.7 1.4 4.2 4 3.3 5.7-.9 1.7-3.8 2-6.5.5-2.7-1.4-4.9-6.6-4.9-6.6s5.4-1.1 8.1.4zM22.9 102.1c2.4 2 3.4 4.9 2.2 6.5-1.2 1.6-4.2 1.2-6.6-.8-2.4-2-3.6-7.7-3.6-7.7s5.6 0 8 2zM18.9 92c2 2 2.6 4.7 1.4 6-1.2 1.3-3.8.7-5.8-1.4-2-2-2.5-7.1-2.5-7.1s4.9.5 6.9 2.5zM17.3 82.9c1.5 1.8 1.9 4 .8 5-1.1 1-3.2.3-4.7-1.5s-1.7-6-1.7-6 4.1.7 5.6 2.5zM18.4 75.5c1 2.1.9 4.3-.4 5-1.3.7-3.1-.4-4.2-2.5s-.3-6.2-.3-6.2 3.8 1.6 4.9 3.7z"/><path d="M20.3 78.1c-1 7.2 1.4 14.4 4.6 20.7 3.2 6.4 7.5 12.1 12.4 17.1 5 5 10.6 9.2 16.7 12.5 6.1 3.4 12.8 5.5 19.8 5.8v.2c-7.1.9-14.4-1-20.8-4.1-6.5-3.2-12.1-7.9-17-13.2-4.9-5.3-9.1-11.3-12.2-17.9-1.5-3.3-2.7-6.7-3.5-10.3-.7-3.6-1-7.3-.3-10.9l.3.1z"/></g><g fill="#1A3142"><path d="M98.4 132.2c-3.5-.7-6.7.6-7.1 2.9-.4 2.3 2.2 4.6 5.7 5.3 3.5.7 9.2-2.5 9.2-2.5s-4.3-5-7.8-5.7zM90.3 123.6c-1.6 2.6-1.6 5.5-.1 6.6 1.6 1 4.1-.2 5.7-2.8 1.6-2.6 1-8.1 1-8.1s-5 1.7-6.6 4.3zM99.2 118.9c-.9 2.9-.2 5.8 1.6 6.4 1.8.6 3.9-1.3 4.8-4.2.9-2.9-1.1-8.1-1.1-8.1s-4.4 3-5.3 5.9zM108.5 111.8c-.7 3 .1 5.8 1.9 6.3 1.8.5 3.9-1.5 4.6-4.5.7-3-1.5-8-1.5-8s-4.3 3.2-5 6.2zM116.6 103.8c-.2 2.7 1 5 2.6 5.1 1.6.1 3.1-2 3.3-4.7.2-2.7-2.5-6.7-2.5-6.7s-3.2 3.6-3.4 6.3zM122.2 95.5c.1 2.5 1.3 4.5 2.8 4.4 1.5 0 2.7-2.1 2.6-4.5-.1-2.5-2.9-5.9-2.9-5.9s-2.5 3.5-2.5 6zM126 86.9c.4 2.1 1.8 3.5 3.1 3.2 1.2-.3 1.9-2.2 1.5-4.2-.4-2.1-3.3-4.4-3.3-4.4s-1.8 3.4-1.3 5.4zM127.8 78.3c.4 2.1 1.8 3.5 3 3.2 1.3-.3 1.9-2.2 1.5-4.2-.4-2.1-3.3-4.5-3.3-4.5s-1.6 3.5-1.2 5.5zM109.5 127.7c-3.6 0-6.5 1.8-6.5 4.1s2.9 4.2 6.5 4.2 8.6-4.1 8.6-4.1-5-4.2-8.6-4.2zM118 120.5c-3.5.7-6 3.2-5.5 5.4.5 2.3 3.7 3.5 7.2 2.7 3.5-.7 7.6-5.9 7.6-5.9s-5.8-3-9.3-2.2zM125.4 112.1c-2.7 1.4-4.2 4-3.3 5.7.9 1.7 3.8 2 6.5.5 2.7-1.4 4.9-6.6 4.9-6.6s-5.4-1.1-8.1.4zM130.4 101.6c-2.4 2-3.4 4.9-2.2 6.5 1.2 1.6 4.2 1.2 6.6-.8 2.4-2 3.6-7.7 3.6-7.7s-5.6-.1-8 2zM134.3 91.4c-2 2-2.6 4.7-1.4 6 1.2 1.3 3.8.7 5.8-1.4 2-2 2.5-7.1 2.5-7.1s-4.9.5-6.9 2.5zM136 82.3c-1.5 1.8-1.9 4-.8 5 1.1 1 3.2.3 4.7-1.5s1.7-6 1.7-6-4.1.7-5.6 2.5zM134.9 74.9c-1 2.1-.9 4.3.4 5 1.3.7 3.1-.4 4.2-2.5s.3-6.2.3-6.2-3.9 1.7-4.9 3.7z"/><path d="M132.9 77.5c1 7.2-1.4 14.4-4.6 20.7-3.2 6.4-7.5 12.1-12.4 17.1-5 5-10.6 9.2-16.7 12.5-6.1 3.3-12.8 5.5-19.8 5.8v.2c7.1.9 14.4-1 20.8-4.1 6.5-3.2 12.1-7.9 17-13.2 4.9-5.3 9.1-11.3 12.2-17.9 1.5-3.3 2.7-6.7 3.5-10.3.7-3.6 1-7.3.3-10.9l-.3.1z"/></g></svg>