<svg xmlns:xlink="http://www.w3.org/1999/xlink"  xmlns="http://www.w3.org/2000/svg" viewBox="0 0 2000 2000"><path fill="none" d="M1425.6 1887.1l71.8 12.9c55 10 107.8-26.8 117.7-81.8 9.9-55-26.8-107.9-81.8-117.7l-71.1-12.8c5.3 34.3 3.4 67.3-1.9 96.7-8.2 45.9-24.8 83.1-34.7 102.7zM389 1540.6c3.3 1.1 6.4 2.8 9.1 5.2 4.5-9 9.6-17.5 15.4-25.6-.9.4-2.1.9-2.9 1.4-8.3 4.7-15.3 11.6-21.6 19zM1343.9 1872.4l57.4 10.3c7.2-13.5 22.8-45.5 32.3-86.8l-141.5-25.5c-4.3 46.4 11.2 94.7 51.8 102zM1437.6 1683.1l-57.8-10.4c-44.3-7.9-73.2 30.4-84 74.5l142.3 25.7c4.4-27.8 5.4-58.5-.5-89.8zM1120.4 63.6C940.8 76 373.9 403.5 288.3 437.7c-111.9 79.2 727.3 414.9 833.7 424.8 85.6 7.9 157.6-32.2 227.1-67.6 69-35 424.6-244 477.5-294.4 73.5-69.8-604.9-443.9-706.2-436.9z"/><path fill="#143B63" d="M1684.4 730.7c-43.4-24.9-168.6 32.8-261.6 97.5-86.5 60.1-146.1 108.4-265.1 137.3-105.9 25.7-512.8-270.2-604.2-201.5-34.3 25.8-38.3 78.1-39.5 115.1-2.7 79.2 16.7 303.5 70.1 395.7 43.1 74.4 146 70 225.6 73.6 94.8 4.3 189.8 7.9 284.7 5.9.1-.2.3-.4.3-.6 3.9 1.2 8.2 2 13.2 1.5 45-4.5 89.5-9.3 134.8-11.2 34.8-2 68.3 3.2 100.5 15.2 46.9 15.7-69.3 45-76.8 46.8-58.3 13.3-119.1 21.3-178.2 32.8-102.5 20.1-251.7 48.2-300.9 126.6-94.3 150.2 337.6 176.7 464.4 193.9 0 .4 0 .8-.1 1.2 2.1.4 4.3 1 6.4 1.3-.5 1.6-.7 3.2-1.2 4.8 3.5 2.2 7.2 3.8 11.4 3.8-4.9 57.5 16.8 115.5 71.5 125.3l153.4 27.6c67.8 12.2 132.8-33.1 145.1-100.8 2.1-12 2.4-23.7 1.3-35.2-5.8-13.9-9.6-27.4-11.6-40.6-16.8-35.1-49.5-62-90.5-69.2l-153.4-27.7c-53.7-9.7-90.5 30.1-106.7 77.7-125-20.5-254.2-23.2-372.5-63.6-238.7-81.7 123.8-177.3 218.5-195.8 72.4-14.1 264.5-23.8 288.8-88.9 34.5-92.8-248.5-64.7-311-58.3-57.1.8-133.2 1.4-186.2 1.7-86.4.6-223.5-.3-286.4-44.5-72-50.6-81.2-316.6-86.9-378.5-3.4-35.1-14.4-93 23.4-115.9 51.4-31 128.7 20.3 171.4 42.3 47.9 24.6 298 131.1 376.9 164.1 76 31.9 168.5-34 242.5-85.3 121.5-84.2 244-187 309.8-147.7 62.3 37.4-59.9 445.5-116.9 517 113.8-81.5 223.2-493 135.7-543.4zm-222.2 956.9l71.1 12.8c55 9.9 91.7 62.7 81.8 117.7-9.9 55-62.7 91.8-117.7 81.8l-71.8-12.9c9.9-19.6 26.4-56.8 34.7-102.8 5.3-29.3 7.2-62.4 1.9-96.6zm-82.4-14.9l57.8 10.4c5.9 31.3 4.9 62 .5 89.7l-142.3-25.7c10.9-44 39.7-82.3 84-74.4zm-87.7 97.7l141.5 25.5c-9.5 41.3-25.1 73.3-32.3 86.8l-57.4-10.3c-40.6-7.3-56.1-55.6-51.8-102z"/><path fill="#143B63" d="M1147.6 40.8C1019 7.7 311.8 394.3 277.4 409.3c-29.7 13-60.7 21.9-55.5 56.4 3.5 23.4 54.4 56.2 80.4 72.4C415.7 608.7 943.5 840 947 841.5c180.3 78.6 267.7 54.4 393.5-16.1 149-83.7 530.8-289.8 528.3-348.2-2.7-67.7-602.7-406-721.2-436.4zm679.1 459.8C1773.8 551 1418.2 760 1349.2 795c-69.5 35.4-141.5 75.5-227.1 67.6-106.5-10-945.7-345.6-833.7-424.8 85.5-34.3 652.4-361.8 832-374.2 101.3-7 779.7 367.1 706.3 437zM509.4 1544.8c-5-9.3-15.8-12.6-25.4-10.8-4.1-2.9-8.5-5.4-13.2-7.3-2.6-5.8-5.5-11.6-8.6-17.2-1.7-3-4.1-5.4-6.9-7.3 10.1-5 17-10.3 14.1-16.2-10.6-15-62.6 20-92.9 16.9 29.5-16 98.9-33.6 94.7-50.4-4.4-17.3-113.7.1-113.3-9.5-2.1-12.2 64.4-26.4 69.6-52.5 2.2-10.8-10.6-36.3-18.8-55.1-2.6-5.8-4.6-10.8-5.7-14.7-20.9-72.6-33.9-143.9-42.5-219.1-11.9-106-25-211.6-33.6-317.9-4.2-52.9-4.1-104.9-4.2-158 0-7.6 3.7-46.3-5.9-50.5-7.8-3.4-19.2 10.5-20.9 17.9-3.2 14.5 1 30.5 1 45.2-.2 41.4 1.7 82.8 4.4 124.1 5.5 80.9 14.7 161.3 21.1 242 10.6 131.9 21.1 260.8 67.7 385.7 1.4 3.4-20.6 18.7-27.4 23.8-26.1 19.6-63.6 37.3-15.1 50.5 10.9 3 71.9 4.7 80.7-1.1-8.5 5.7-111.7 35.4-104.1 51.5 5.3 11.3 55.2 7.8 58.5 7.6-2.2 2.2-3.2 3.2-4.2 4.1-7.2 6.7-15.1 12.8-21.4 20-7.1 8.2-13.2 17.2-19.2 26.2-3.5 5.2-6.5 10.9-8.7 16.7-22.7 60.7 3.8 122.2 32.3 179.8 38.5 77.8 74.8 68.7 103.4 30.1 12.3 0 24.1-11.6 24.1-24.1.2-6.3.3-12.8.6-19.3 20.1-44.2 33.4-96.9 36.5-121.7 1.8-14.7-.5-31.9-6.1-48.4-.5-13.6-3.5-27.3-10.6-41zm-111.3 1.1c-2.7-2.5-5.9-4.1-9.1-5.2 6.4-7.5 13.3-14.4 21.6-19 .8-.5 2-1 2.9-1.4-5.8 8.1-10.9 16.6-15.4 25.6z"/></svg>