<svg xmlns:xlink="http://www.w3.org/1999/xlink"  version="1" xmlns="http://www.w3.org/2000/svg" viewBox="0 0 150 150"><path fill="none" d="M55.1 100.3c-2 0-3.7.8-5 2.1-1.3 1.3-2.1 3.1-2.1 5 0 2 .8 3.7 2.1 5 1.3 1.3 3.1 2.1 5 2.1 2 0 3.7-.8 5-2.1 1.3-1.3 2.1-3.1 2.1-5 0-2-.8-3.7-2.1-5-1.2-1.3-3-2.1-5-2.1zM92.2 32.5c0-.6-.1-1.3.4-1.6-.3.2-.4.9-.4 1.6zM55.1 60.8c2 0 3.7-.8 5-2.1 1.3-1.3 2.1-3.1 2.1-5 0-2-.8-3.7-2.1-5-1.3-1.3-3.1-2.1-5-2.1-2 0-3.7.8-5 2.1-1.3 1.3-2.1 3.1-2.1 5 0 2 .8 3.7 2.1 5 1.3 1.3 3.1 2.1 5 2.1zM55.1 73.5c-2 0-3.7.8-5 2.1-1.3 1.3-2.1 3.1-2.1 5 0 2 .8 3.7 2.1 5 1.3 1.3 3.1 2.1 5 2.1 2 0 3.7-.8 5-2.1 1.3-1.3 2.1-3 2.1-5s-.8-3.7-2.1-5c-1.2-1.3-3-2.1-5-2.1z"/><path fill="#005F9C" d="M78.9 10.3c-36.5 0-66 29.6-66 66 0 36.5 29.6 66 66 66 1.2 0 2.5-.1 3.7-.2-35.2 0-63.7-28.6-63.7-63.8 0-35.2 28.6-63.8 63.8-63.8 23.4 0 43.8 12.6 54.9 31.4-11.1-21.1-33.2-35.6-58.7-35.6z"/><path fill="#005F9C" d="M54.8 65.9h44.4L80.9 42.7l-.2.1-.1-.4-.3-.4-.4-.5H54.8c-6.2 0-11.1 5-11.1 11.1v2.1c0 6.2 5 11.2 11.1 11.2zM48 53.7c0-2 .8-3.7 2.1-5 1.3-1.3 3.1-2.1 5-2.1 2 0 3.7.8 5 2.1 1.3 1.3 2.1 3.1 2.1 5 0 2-.8 3.7-2.1 5-1.3 1.3-3.1 2.1-5 2.1-2 0-3.7-.8-5-2.1-1.3-1.3-2.1-3-2.1-5z"/><path fill="#696969" d="M98.9 68.4H54.8c-6.2 0-11.1 5-11.1 11.2v2.1c0 6.2 5 11.1 11.1 11.1h44.1c6.2 0 11.1-5 11.1-11.1v-2l-8.6-10.9c-.8-.3-1.6-.4-2.5-.4zM62.2 80.6c0 2-.8 3.7-2.1 5-1.3 1.3-3.1 2.1-5 2.1-2 0-3.7-.8-5-2.1-1.3-1.3-2.1-3-2.1-5s.8-3.7 2.1-5c1.3-1.3 3.1-2.1 5-2.1 2 0 3.7.8 5 2.1 1.3 1.2 2.1 3 2.1 5z"/><path fill="#00A692" d="M98.9 95.3H54.8c-6.2 0-11.1 5-11.1 11.2v2c0 6.2 5 11.2 11.1 11.2h44.1c6.2 0 11.1-5 11.1-11.2v-2c.1-6.2-4.9-11.2-11.1-11.2zm-36.7 12.1c0 2-.8 3.7-2.1 5-1.3 1.3-3.1 2.1-5 2.1-2 0-3.7-.8-5-2.1-1.3-1.3-2.1-3.1-2.1-5 0-2 .8-3.7 2.1-5 1.3-1.3 3.1-2.1 5-2.1 2 0 3.7.8 5 2.1 1.3 1.3 2.1 3.1 2.1 5z"/><path fill="#CD9768" d="M97 29l-.4-.1c.1 0 .2 0 .4.1z"/><path fill="#696969" d="M84.3 37.2c.6-.5 1.8-.6 2.6-.3-.2-.7-.1-1.5.5-2l.9-.7 1.2-.9c.7-.6 1.6-.6 2.3-.1l.3.3.1-.1c-.1-.1-.2-.2-.2-.4-.1-.2.2-.4.1-.6 0-.7.1-1.4.4-1.6l2.1-1.7c.5-.4 1.1-.5 1.7-.3l-7.1-1.7-3.6 3.5-.2.1-3.9 2.6v6.1c.1-.2.3-.4.5-.6l2.3-1.6z"/><path fill="#A1A1A1" d="M85.8 30.6l3.6-3.5-7.8-1.9v8.2l.1-.1 3.9-2.6z"/><path fill="#005F9C" d="M97.5 29.5c-.2-.2-.4-.3-.6-.5-.1-.1-.2-.1-.4-.1h-.1c-.6-.1-1.2-.1-1.7.3l-2.1 1.7c-.5.4-.5 1-.4 1.6 0 .2-.2.4-.1.6 0 .1.1.3.2.4l-.1.1-.3-.3c-.7-.5-1.6-.5-2.3.1l-1.2.9-.9.7c-.6.5-.7 1.3-.5 2-.8-.3-2-.2-2.6.3L82.2 39c-.2.2-.4.4-.5.6-.2.3-.3.7-.2 1.1l30.3 38.2 5-4 5.2-4.1 5.2-4.1L109 43.8 97.5 29.5z"/></svg>