<svg xmlns:xlink="http://www.w3.org/1999/xlink"  xmlns="http://www.w3.org/2000/svg" viewBox="0 0 2000 2000"><path fill="none" d="M872.1 1401H1162c1.5-55 12.4-112.3 45-155.7 107.3-138.1 136.1-250.8 143.6-294.8l-.8-1.3 5-47.8c.8-5.4 1.7-11.1 1.7-16.7 0-140.6-85.9-261.6-208-313-25.5-10.8-52.6-18.5-80.8-22.7-16.5-2.5-33.5-3.8-50.7-3.8-17.4 0-34.4 1.3-51.1 3.8-28.1 4.3-55.1 12-80.5 22.7-122 51.5-207.9 172.3-207.9 312.9 0 5.6.9 11.2 1.7 16.6l5 47.6-.8.7c7.6 44.1 36.5 158.1 144.3 297 32.3 42.6 43 99.5 44.4 154.5zm360.2-537c0 6.8-5.5 14-12.4 14h-39.6c-6.9 0-12.4-7.2-12.4-14s5.6-14 12.4-14h39.6c6.9 0 12.4 7.2 12.4 14zm-76.8-88.5l34.4-19.8c5.9-3.4 13.4-1.4 16.9 4.5 3.4 5.9 1.3 13.4-4.5 16.9l-34.4 19.9c-1.9 1.1-4 1.6-6.2 1.6-4.2 0-8.4-2.2-10.7-6.1-3.4-6-1.5-13.5 4.5-17zm-68 612.5H943.8l5.2-306.7 31.2-.9 73.5.5 39 3.1-5.2 304zm6.2-669.9l19.7-34.3c3.5-5.9 11-7.9 16.9-4.6 5.9 3.4 7.9 10.9 4.5 16.9l-19.9 34.3c-2.2 4-6.4 6.2-10.7 6.2-2 0-4.1-.5-6.1-1.6-5.8-3.4-7.8-10.9-4.4-16.9zm-86.7-58.4c0-6.8 6.7-12.3 13.5-12.3s13.5 5.5 13.5 12.3v39.6c0 6.8-6.7 12.4-13.5 12.4s-13.5-5.6-13.5-12.4v-39.6zm-26.9 342.7l43.4-82.1 30.1 62 39.4 81-39.4-.7-73.5-1.2-30.9-.5 30.9-58.5zM915.6 673c5.9-3.3 13.4-1.3 16.8 4.6l19.8 34.3c3.4 5.9 1.4 13.5-4.5 16.9-1.9 1.1-4 1.6-6.2 1.6-4.2 0-8.3-2.2-10.6-6.2l-19.8-34.3c-3.4-5.9-1.4-13.5 4.5-16.9zm-80.9 76.3c3.4-5.8 10.9-7.8 16.8-4.5l34.4 19.8c5.9 3.4 7.9 10.9 4.5 16.8-2.3 4-6.4 6.2-10.7 6.2-2.1 0-4.2-.5-6.1-1.7l-34.3-19.8c-6-3.4-8-10.9-4.6-16.8zm-31.9 107.6c0-6.8 5.5-6.9 12.3-6.9h39.7c6.8 0 12.3.1 12.3 6.9 0 6.8-5.5 7.1-12.3 7.1h-39.7c-6.9 0-12.3-.2-12.3-7.1z"/><path fill="#013F43" d="M789.8 1438.3c-99.1-27-237.8-46.8-416.8-49.2V481c179 2.5 320.4 23.9 412.1 50.7 23.1-15.5 46.2-26.8 72.2-37.5-105.4-40-271.5-71.1-527.8-71.1H304v70.8c-28-.6-42.9-1.8-66.3-1.8H180v1075h57.7c268.7 0 438.3 34.4 548.3 67.4v-153.9h-5.2l4.7-16.8c.8-4.4 3.5-13.5 4.3-25.5zM1796 492c-23.4 0-45 1.3-73 1.9V423h-19c-256 0-420.4 31-525.8 71 26.1 10.8 51.3 23.1 74.5 38.6 91.7-26.8 222.3-49.2 415.3-51.7v908.2c-179 2.4-320.9 21.7-419.9 48.6.5 7.6.8 18.3 1.5 18.3h5.5v22.5l-1 5.5h1v149.3c110-32.5 276.2-66.3 541-66.3h51V492H1796z"/><path fill="#E6362E" d="M980.1 1078.9l-31.2 2.4-5.2 306.7h143.8l5.1-304.4-39-2.1z"/><path fill="#F7C115" d="M1020.5 711.7c6.8 0 13.5-5.6 13.5-12.4v-39.6c0-6.8-6.7-12.3-13.5-12.3s-13.5 5.5-13.5 12.3v39.6c0 6.8 6.7 12.4 13.5 12.4zM930.9 724.1c2.3 4 6.4 6.2 10.6 6.2 2.1 0 4.2-.6 6.2-1.6 5.9-3.4 7.9-10.9 4.5-16.9l-19.8-34.3c-3.4-5.9-10.9-7.9-16.8-4.6-5.9 3.4-7.9 11-4.5 16.9l19.8 34.3zM839.2 766.2l34.3 19.8c2 1.2 4 1.7 6.1 1.7 4.2 0 8.4-2.2 10.7-6.2 3.4-5.8 1.4-13.4-4.5-16.8l-34.4-19.8c-5.9-3.4-13.4-1.3-16.8 4.5-3.3 5.8-1.3 13.3 4.6 16.8zM867 856.9c0-6.8-5.5-6.9-12.3-6.9H815c-6.8 0-12.3.1-12.3 6.9 0 6.8 5.5 7.1 12.3 7.1h39.7c6.8 0 12.3-.2 12.3-7.1zM1167.9 864c0 6.8 5.6 14 12.4 14h39.6c6.9 0 12.4-7.2 12.4-14s-5.5-14-12.4-14h-39.6c-6.9 0-12.4 7.2-12.4 14zM1161.6 798.5c2.1 0 4.2-.5 6.2-1.6l34.4-19.9c5.9-3.4 7.9-10.9 4.5-16.9-3.4-5.8-11-7.9-16.9-4.5l-34.4 19.8c-5.9 3.5-7.9 10.9-4.5 16.9 2.4 4 6.5 6.2 10.7 6.2zM1098.2 735c2 1.1 4.1 1.6 6.1 1.6 4.2 0 8.4-2.2 10.7-6.2l19.9-34.3c3.4-5.9 1.4-13.4-4.5-16.9-5.9-3.4-13.4-1.4-16.9 4.6l-19.7 34.3c-3.5 6-1.5 13.5 4.4 16.9z"/><path fill="#333" d="M980.1 1061.4l73.5 1.2 39.4.7-39.4-81-30.1-62-43.4 82.1-30.9 58.4z"/><path fill="#333" d="M798.7 1456H1235.3c-.5 0-1-8.5-1.4-14.4-3-38.4-3.5-112.2 28.9-155.4 154.7-199.1 164.2-358.4 160.4-362.5 1.3-13.1 3.9-25.8 3.9-39.3 0-146.5-76.8-275-192.4-347.5-23.7-14.9-49-27.4-75.6-37.3-44.3-16.4-92.2-25.3-142.2-25.3-50.1 0-98.1 9-142.4 25.4-26.6 9.8-51.8 22.4-75.4 37.2-115.5 72.5-192.3 201-192.3 347.5 0 13.5 2.7 26.2 4 39.3-3.8 4.1 5.9 163.6 160.4 362.6 32.5 43.2 32 116.9 29 155.3-.5 6-1 14.4-1.5 14.4zM683.4 949.4l.8-.7-5-47.6c-.8-5.4-1.7-10.9-1.7-16.6 0-140.6 85.8-261.4 207.9-312.9 25.4-10.7 52.4-18.4 80.5-22.7 16.7-2.5 33.7-3.8 51.1-3.8 17.2 0 34.1 1.3 50.7 3.8 28.2 4.2 55.3 12 80.8 22.7 122.1 51.5 208 172.3 208 313 0 5.6-.9 11.2-1.7 16.6l-5 47.6.8.7c-7.5 44.1-36.3 157.9-143.6 296-32.5 43.4-43.4 100.7-45 155.7H872.1c-1.4-55-12.2-111.9-44.4-154.7-107.8-139.1-136.6-253.1-144.3-297.1zM1204.4 1478.2c-7.4-3.6-15.7-8.2-24.5-8.2H860.8c-8.8 0-17.1 4.6-24.5 8.2-19 9.2-32.2 29.6-32.2 52.2 0 22.2 12.9 41.8 31.4 51.1-5.6 8.2-8.9 19.1-8.9 29.7 0 28.1 22.8 51.8 50.8 51.8h285.9c28.1 0 50.8-23.5 50.8-51.5 0-10.7-3.3-20.9-8.9-29.1 18.6-9.3 31.4-29.7 31.4-51.9 0-22.5-13.2-43.1-32.2-52.3z"/></svg>