<svg xmlns:xlink="http://www.w3.org/1999/xlink"  xmlns="http://www.w3.org/2000/svg" width="100" height="100" viewBox="0 0 100 100"><path fill="#00AB92" d="M34.87 24.496c2.614.88 5.244 1.696 7.885 2.462-.181 1.618-.462 3.299.037 4.887.912 3.313 4.088 5.885 7.556 5.92 3.568.212 7.021-2.286 8.065-5.676.572-1.697.323-3.497.031-5.22 2.534-.819 5.111-1.55 7.624-2.437-5.196-1.936-10.45-3.701-15.673-5.56-5.159 1.899-10.466 3.465-15.525 5.624M15.665 41.598c6.734-1.896 13.993-2.508 20.801-.623 5.768 1.521 10.917 5.23 14.21 10.209 3.049-3.735 6.93-6.803 11.437-8.59 7.566-3.311 16.136-2.685 23.999-.877-4.094-2.672-8.669-4.616-13.484-5.49-7.471-1.509-15.462.296-21.718 4.607-4.126-2.749-8.861-4.687-13.834-5.048-7.545-.691-15.176 1.605-21.411 5.812m-.488 2.087c2.095 8.2 4.083 16.43 6.321 24.589 6.304-.885 12.927-.545 18.908 1.766 4.051 1.528 7.45 4.284 10.456 7.329 1.894-1.591 3.511-3.532 5.663-4.8 6.724-4.533 15.213-5.275 23.076-4.437.186-.033.563-.097.747-.128 2.181-8.069 4.205-16.193 6.209-24.319-6.85-1.299-14.009-1.265-20.727.687-6.145 1.62-11.798 5.536-14.83 11.203-2.89-4.818-7.259-8.719-12.445-10.925-7.365-3.179-15.716-2.707-23.378-.965m-3.871 2.65c2.169 9.239 4.667 18.413 7.01 27.613 3.813-1.14 7.762-2.096 11.766-1.649 8.086.678 15.308 5.271 20.822 11.008 4.767-5.059 10.849-9.089 17.71-10.563 4.947-1.149 10.063-.327 14.836 1.194 2.344-9.232 4.879-18.426 7.024-27.711-.79-.049-1.573-.098-2.358-.143-2.02 8.135-4.29 16.204-6.081 24.396-4.428-.693-8.951-1.188-13.41-.418-6.824.911-13.145 4.453-17.736 9.544-3.484-3.759-7.795-6.819-12.71-8.356-5.944-2.036-12.355-1.835-18.463-.785-1.872-8.24-3.918-16.442-6.251-24.558-.722.142-1.443.281-2.159.428m-1.829 1.7c.08 3.213.78 6.356 1.198 9.534 1.119 7.777 2.482 15.515 3.479 23.309 3.717-1.719 7.614-3.213 11.75-3.425 7.419-.68 14.736 1.86 20.929 5.8-3.288-3.51-7.439-6.331-12.175-7.396-5.955-1.464-12.185-.492-17.921 1.384-2.329-9.758-4.98-19.438-7.26-29.206m82.775.01c-2.217 9.784-4.91 19.45-7.228 29.21-5.254-1.723-10.896-2.725-16.404-1.701-5.287.806-10.032 3.756-13.622 7.646 3.981-2.364 8.187-4.508 12.811-5.271 6.702-1.495 13.728-.09 19.805 2.938.996-7.801 2.363-15.547 3.479-23.341.405-3.159 1.148-6.278 1.159-9.481"/><path fill="#595959" d="M34.87 24.496c5.064-2.156 10.361-3.725 15.525-5.624 5.223 1.859 10.477 3.624 15.673 5.56-2.513.886-5.09 1.618-7.624 2.439.292 1.721.541 3.521-.031 5.218-1.045 3.391-4.503 5.891-8.065 5.676-3.468-.035-6.649-2.606-7.556-5.92-.499-1.588-.218-3.269-.037-4.887a194.645 194.645 0 0 1-7.885-2.462"/><path fill="#595959" d="M15.665 41.598c6.235-4.21 13.866-6.503 21.411-5.812 4.974.361 9.708 2.299 13.834 5.051 6.256-4.314 14.247-6.119 21.718-4.61 4.815.875 9.391 2.818 13.484 5.49-7.863-1.805-16.433-2.434-23.999.881-4.507 1.784-8.388 4.852-11.437 8.586-3.293-4.979-8.442-8.688-14.21-10.209-6.808-1.885-14.067-1.273-20.801.623M9.477 48.035c2.28 9.768 4.931 19.448 7.259 29.205 5.737-1.876 11.972-2.848 17.921-1.384 4.736 1.065 8.887 3.887 12.175 7.396-6.193-3.939-13.51-6.479-20.929-5.8-4.136.212-8.032 1.706-11.75 3.425-.997-7.794-2.364-15.531-3.473-23.309-.423-3.176-1.123-6.32-1.203-9.533M92.252 48.045c-.011 3.203-.754 6.322-1.16 9.481-1.115 7.794-2.482 15.54-3.479 23.341-6.077-3.027-13.103-4.433-19.805-2.938-4.624.763-8.829 2.906-12.811 5.271 3.59-3.891 8.335-6.84 13.622-7.646 5.509-1.023 11.15-.021 16.404 1.701 2.319-9.76 5.012-19.426 7.229-29.21"/><path fill="#C6C6C6" d="M11.306 46.335c.716-.148 1.437-.286 2.159-.43 2.333 8.116 4.379 16.318 6.251 24.558 6.108-1.05 12.519-1.251 18.463.785 4.915 1.537 9.226 4.598 12.71 8.356 4.592-5.091 10.912-8.633 17.736-9.539 4.459-.77 8.982-.28 13.41.419 1.791-8.197 4.062-16.267 6.076-24.401.79.045 1.573.093 2.363.143-2.146 9.285-4.681 18.479-7.024 27.711-4.772-1.521-9.889-2.344-14.836-1.194-6.861 1.475-12.943 5.505-17.71 10.563-5.509-5.736-12.736-10.33-20.822-11.008-4.003-.446-7.953.51-11.76 1.649-2.349-9.199-4.847-18.373-7.016-27.612"/></svg>