<svg xmlns:xlink="http://www.w3.org/1999/xlink"  xmlns="http://www.w3.org/2000/svg" viewBox="0 0 2000 2000"><path fill="#006DB6" d="M255.7 1114.1c-22.4 13.7-79.8 57.3-79.8 145.2 0 54.6 17.1 150.2 92.1 177.5l590.4 187.7 890.7-215-102.4-41s-34.1-109.2 10.3-167.3l75.1-51.1-68.3-20.5-4.1-.1-606.7 167.3-797.3-182.7zM855 1576.7L268 1389s-47.8-17.1-44.4-126.3c3.4-78.5 30.7-95.5 61.4-92.1 30.7 3.4 580.2 194.5 580.2 194.5s-30.6 119.5-10.2 211.6zm771.3-197.9l-737.1 184.3c-27.3-78.5 17.1-208.2 17.1-208.2l730.3-153.6c-41 51.2-10.3 177.5-10.3 177.5z"/><path fill="#619F42" d="M1756 948.8c-2.7-68.3-31.7-114.6-58.9-130.4L916.5 993.1l-604-170.7c-4.1-1.7-8.1-3.8-12-6.3l-104 30.2s75.1 30.7 85.3 61.4c10.2 30.7 37.5 122.9 0 160.4l-92.2 30.7 66.2 15.2 797.2 182.7 606.8-167.2 24.6-6.8c-.1.1 75-30.6 71.6-173.9zm-713.3 307.1l-740.6-174.1s44.4-99 0-191.1l726.9 163.8c.1.1 37.6 95.6 13.7 201.4zm27.3-3.4c30.7-78.5-3.4-201.3-3.4-201.3L1650.2 860c30.7 0 71.7 20.5 68.3 99-3.4 122.8-54.6 126.3-54.6 126.3L1070 1252.5z"/><path fill="#AB5153" d="M916.5 993.1l780.6-174.8 103.3-23.1-112.6-44.3s-37.5-177.5 88.7-198l-552.9-184.3L309 501.7s-75.1 27.3-78.5 122.9c-3.1 87.8 25.5 164 69.9 191.6 3.9 2.4 7.9 4.6 12 6.3l604.1 170.6zm771.3-402.7s-41 105.8-10.3 177.5L937 948.8s-3.4-167.2 13.6-208.2l737.2-150.2zm-1423.2 41c0-44.4 23.9-85.3 71.7-81.9l583.6 197.9S896 870.3 909.7 945.3l-597.2-174c-.1 0-54.7-37.5-47.9-139.9z"/><path fill="#C7D8E1" d="M937 948.8l740.6-180.9c-30.7-71.7 10.3-177.5 10.3-177.5L950.6 740.6C933.5 781.5 937 948.8 937 948.8zM312.4 771.3l597.2 174c-13.6-75.1 10.2-197.9 10.2-197.9L336.3 549.5c-47.8-3.4-71.7 37.5-71.7 81.9-6.8 102.4 47.8 139.9 47.8 139.9zM1029.1 1054.6L302.2 890.8c44.4 92.1 0 191.1 0 191.1l740.6 174.1c23.8-105.9-13.7-201.4-13.7-201.4zM1718.5 959c3.4-78.5-37.6-99-68.3-99l-583.6 191.1s34.1 122.9 3.4 201.3l593.8-167.2c.1.1 51.3-3.3 54.7-126.2zM223.7 1262.8C220.3 1372 268 1389 268 1389l587 187.7c-20.5-92.2 10.2-211.6 10.2-211.6S315.8 1174 285.1 1170.6c-30.7-3.4-58 13.6-61.4 92.2zM889.2 1563.1l737.1-184.3s-30.7-126.3 10.2-177.5l-730.3 153.6s-44.3 129.7-17 208.2z"/></svg>