<svg xmlns:xlink="http://www.w3.org/1999/xlink"  version="1" xmlns="http://www.w3.org/2000/svg" viewBox="0 0 150 150"><path fill="#51C8E7" d="M45.2 65.3v30.2l32.2 16.3.3-.1V82z"/><path fill="#00A896" d="M77.7 111.7l31.8-16.2-31.8 16.2zM77.7 82v29.7l31.8-16.2V65.2L78.7 82.5z"/><path d="M26.4 111.5l47.3 27.3V117l-28.4-16.4zM82.1 117v21.8l47.3-27.3-18.8-10.9zM114.7 93.4l18.9 10.8V51.7l-18.9 10.6zM22.2 104.2l18.9-10.8V63.2l-18.9-9.7z"/><path fill="#240C0C" d="M77.2 9.6L18.9 42.5l-3.2 1.8-.7.4 1.4.7v5l-.1 13.2c-1.3.8-3.1 2.9-3.4 7.6 0 0 1.2 1.2 4.6 1.2 3.4 0 4.6-1.1 4.6-1.1-.3-5.4-2.6-7.3-3.8-7.9l.1-11.9v-5.1l1.3.7 28 14.4L77.8 77l1 .5 28.4-15.9 28.4-15.9 4.6-2.6-63-33.5z"/></svg>