<svg xmlns:xlink="http://www.w3.org/1999/xlink"  xmlns="http://www.w3.org/2000/svg" viewBox="0 0 2000 2000"><path fill="#D77D31" d="M82.8 1515c235.8-79.6 454.2-122.3 667.2-140.9v-60C339 1362 82.8 1515 82.8 1515zM1908.2 1515c-260.5-125.1-506.2-185.5-733.2-206.3v58.8c453 26.5 733.2 147.5 733.2 147.5z"/><path fill="#237C6E" d="M999 358.1c-110.8-.1-110.8 106-110.8 106 99.2-7.3 110.8-106 110.8-106zM863 1603.5c6.4 0 14-5.2 14-11.6V261.6c0-6.4-7.6-11.6-14-11.6s-14 5.2-14 11.6V1592c0 6.3 7.6 11.5 14 11.5zM975.2 669.7c73.7-86.3 2.9-175 2.9-175-89.1 89.9-2.9 175-2.9 175zM851.1 246.6C843.6 133.3 731.5 131 731.5 131c-1 126.4 119.6 115.6 119.6 115.6zM728.5 1190.6s0-121.1-126.4-121c0 0 13.2 112.7 126.4 121zM507.5 841.3c100.9 76.3 173.8-20.4 173.8-20.4-95.4-61.6-173.8 20.4-173.8 20.4zM534.2 655.3s0-121.1-126.4-121c0 0 13.2 112.7 126.4 121zM697.6 549.5c-114.5 53.7-63 163.3-63 163.3 99-55.7 63-163.3 63-163.3zM841 593.9s0-121.1-126.4-121c0 .1 13.2 112.8 126.4 121zM1090 1591.9V380.8c0-6.4-8.1-11.6-14.5-11.6s-14.5 5.2-14.5 11.6v1211.1c0 6.4 8.1 11.6 14.5 11.6s14.5-5.2 14.5-11.6zM1293.1 707.3c51.5-90.4-27.6-158.1-27.6-158.1-64.6 96.2 27.6 158.1 27.6 158.1zM991 1591.9V702.7c0-6.4-8.1-11.6-14.5-11.6s-14.5 5.2-14.5 11.6v889.2c0 6.4 8.1 11.6 14.5 11.6s14.5-5.2 14.5-11.6zM1247.7 823.9c69 78 158.5 25 158.5 25-70.2-92.3-158.5-25-158.5-25zM1547.1 583c-121-36.7-145.3 77-145.3 77 110.7 24.9 145.3-77 145.3-77zM1205.3 1098.2c99.2-7.3 110.8-106 110.8-106-110.9-.1-110.8 106-110.8 106zM1080.3 174.2c-89 89.8-2.9 175-2.9 175 73.8-86.3 2.9-175 2.9-175zM1236.5 394.5c-126.5-.1-126.4 121-126.4 121 113.2-8.2 126.4-121 126.4-121zM964.5 1819.3l121.9-177.3H846.3zM1099.6 716.4c99.2-7.2 110.8-106 110.8-106-110.9-.1-110.8 106-110.8 106z"/><path fill="#237C6E" d="M1175 1308.6V862.8c14-6.7 211.2-184.8 211.2-184.8 2.6-2.3 5-5.5 5-8.7 0-2.7-.4-5.5-2.3-7.7-4.2-4.8-11.3-5.2-16.1-1L1162.5 849c-2.5 2.2-1.5 5.4-1.5 8.7V1601c-15 5.2-159.6 243.9-193.5 293.6C933.6 1844.8 778 1606.1 778 1601V857.7c0-3.3-4.7-6.5-7.1-8.7L556.4 660.7c-4.8-4.2-12.9-3.8-17.2 1-1.9 2.2-3.3 4.9-3.3 7.7 0 3.2 1.9 6.4 4.5 8.7 0 0 195.6 178.1 209.6 184.8v741.5c0 2.3-.1 4.6 1.2 6.5L963.7 1935l211.7-324.1c1.3-1.9-.4-4.2-.4-6.5v-237-58.8z"/></svg>