<svg xmlns:xlink="http://www.w3.org/1999/xlink"  version="1" xmlns="http://www.w3.org/2000/svg" viewBox="0 0 150 150"><path fill="#FFF" d="M58.6 36.5L41.2 58.7C30.5 52.1 20 45.3 9.4 38.7c14 17.9 28 35.7 42 53.5h24.7c8.2 0 16.5.1 24.7 0 13.9-17.8 27.9-35.5 41.8-53.3-10.7 6.4-21.1 13.3-31.6 19.8-5.9-7.4-11.6-14.9-17.5-22.2-5.1 6.5-10.2 12.9-15.3 19.4-.7 1-1.7 1.8-2.1 3-5.8-7.5-11.6-15-17.5-22.4M54.4 96c7 9 14.1 18 21.2 27l-.1.6c.7-.3 1.3-.8 1.7-1.4 6.8-8.7 13.7-17.4 20.5-26.1H75.9c-7.1-.1-14.3-.1-21.5-.1"/><path fill="#FFF" d="M58.6 42.4C64.3 49.7 70 57 75.8 64.2c.1.1.2.4.2.5 5.9-7.4 11.7-14.9 17.5-22.3 5.3 6.9 10.8 13.5 16 20.5-5.4-5.7-10.6-11.6-16-17.4C87.6 52.9 82 60.4 76 67.7 70.2 60.3 64.4 53 58.6 45.6 53.2 51.3 48 57.3 42.5 63.1c5.2-7 10.7-13.8 16.1-20.7"/><path fill="#D09D1B" d="M58.6 36.5c5.9 7.4 11.7 14.9 17.6 22.4-.2 1.8-.3 3.6-.4 5.4C70 57 64.3 49.7 58.6 42.4c-5.4 6.9-10.9 13.7-16.1 20.7 5.5-5.8 10.7-11.8 16.2-17.5C64.4 53 70.2 60.3 76 67.7v24.5H51.3c-14-17.8-28-35.7-42-53.5 10.6 6.6 21.2 13.4 31.8 20 5.9-7.4 11.7-14.8 17.5-22.2"/><path fill="#ECB11F" d="M93.4 36.5c5.9 7.3 11.6 14.8 17.5 22.2 10.6-6.6 21-13.4 31.6-19.8-13.9 17.8-27.9 35.5-41.8 53.3-8.2.1-16.5 0-24.7 0V67.7c6-7.3 11.6-14.8 17.5-22.1 5.4 5.7 10.6 11.6 16 17.4-5.1-7-10.7-13.7-16-20.5-5.9 7.3-11.6 14.8-17.5 22.2-.1-.1-.2-.4-.2-.5.1-1.8.2-3.6.4-5.4.4-1.1 1.3-2 2.1-3 5-6.4 10.1-12.8 15.1-19.3"/><path fill="#424548" d="M54.4 96h21.5v17.2c0 3.2.3 6.5-.3 9.7C68.5 114 61.5 105 54.4 96"/><path fill="#7C7E7F" d="M75.9 96h21.8c-6.8 8.7-13.7 17.4-20.5 26.1-.5.6-1 1.1-1.7 1.4l.1-.6c.6-3.2.3-6.5.3-9.7V96"/></svg>