<svg xmlns:xlink="http://www.w3.org/1999/xlink"  xmlns="http://www.w3.org/2000/svg" width="100" height="100" viewBox="0 0 100 100"><linearGradient id="a" gradientUnits="userSpaceOnUse" x1="-427.494" y1="557.371" x2="-418.916" y2="557.371" gradientTransform="scale(9.458 -9.458) rotate(-78 -556.313 11.783)"><stop offset="0" stop-color="#da802e"/><stop offset=".5" stop-color="#c90087"/><stop offset="1" stop-color="#33348d"/></linearGradient><path fill="url(#a)" d="M35.381 66.142c18.109 17.586 39.566 24.85 47.947 16.235.399-.411.751-.86 1.077-1.328-7.82 5.581-24.913-.687-39.443-14.809-15.361-14.914-22.048-32.951-14.946-40.261 6.73-6.922 23.412-1.746 38.208 11.479a96.035 96.035 0 0 0-2.522-2.552C52.785 22.357 38.127 15.061 27.756 15.061c-4.137 0-7.589 1.15-9.986 3.62-8.372 8.617-.501 29.864 17.611 47.461z"/><path fill="#F1C930" d="M37.358 30.357c-6.354 6.523-.367 22.609 13.333 35.926C63.933 79.162 79.528 84.72 86.31 79.224c.245-.199.48-.408.702-.636.206-.213.397-.436.578-.668-6.07 4.893-19.995-.091-31.824-11.573-12.242-11.921-17.573-26.292-11.91-32.114 5.499-5.657 19.278-1.229 31.279 9.878-.477-.49-.961-.978-1.458-1.46a71.356 71.356 0 0 0-1.455-1.371C58.826 28.964 43.48 24.054 37.358 30.357z"/><path fill="#FFF" d="M76.926 65.545c-2.181-2.11-2.21-5.596-.1-7.765a5.496 5.496 0 0 1 7.754-.114 5.483 5.483 0 0 1 .115 7.761c-2.108 2.175-5.608 2.234-7.769.118z"/><path fill="#CB2229" d="M84.58 57.666a5.497 5.497 0 0 0-7.754.114c-2.11 2.169-2.081 5.654.1 7.765 2.161 2.116 5.661 2.057 7.77-.118a5.484 5.484 0 0 0-.116-7.761z"/></svg>