<svg xmlns:xlink="http://www.w3.org/1999/xlink"  version="1" xmlns="http://www.w3.org/2000/svg" viewBox="0 0 150 150"><path fill="none" d="M58.1 61.2c1.6-.8 3.5-1.5 5.5-2.1l1.8-.4c2.4-.5 5-.8 7.7-.8 2 0 3.9.2 5.8.4l.7 1.7c-2-.4-4.2-.6-6.5-.6-2.9 0-5.7.3-8.2.9-.8 2.7-1.2 5.8-1.2 9.1 0 2.5.2 4.9.7 7l-1.8-.4c-.4-2-.6-4.2-.6-6.5 0-3.1.4-6 1-8.7-1.5.5-3 1-4.2 1.7-3.6 1.9-5.6 4.4-5.6 7 0 2.6 2 5.1 5.6 7 1.2.6 2.7 1.2 4.2 1.7l1.8.5c2.5.6 5.3.9 8.2.9 2.9 0 5.7-.3 8.2-.9.8-2.7 1.2-5.8 1.2-9.1s-.4-6.4-1.2-9.1l-.5-1.7c-.3-1-.7-1.9-1.2-2.7-1.8-3.4-4.2-5.3-6.5-5.3s-4.7 1.9-6.5 5.3c-.2.5-.5.9-.7 1.5l-1.8.1c.3-.9.7-1.7 1.1-2.4 1.1-2.1 2.5-3.8 4.1-4.9-8.4 1.5-15 7.7-16.5 15.5 1.1-1.8 3-3.4 5.4-4.7zM58.1 77.8c-2.4-1.3-4.3-2.9-5.4-4.7.6 2.8 1.9 5.2 3.6 7.4 3 .4 5.8 1 8.3 1.7-.3-.8-.7-1.5-1-2.4-2.1-.4-3.9-1.1-5.5-2z"/><path fill="none" d="M88 77.8c-1.6.8-3.5 1.5-5.5 2.1l-1.8.4c-2.4.5-5 .8-7.7.8s-5.3-.3-7.7-.8c.3 1 .7 1.9 1.2 2.7 3.6 1.3 6.5 2.8 8.5 4.6 1.6-.8 3.2-2.1 4.5-4.5.2-.3.3-.6.5-.9l1.8-.2c-.3.6-.5 1.2-.8 1.8-.2.4-.5.7-.7 1.1 2.3-1.2 5.3-2.2 8.6-3 2.2-2.5 3.9-5.4 4.6-8.7-1.2 1.8-3.1 3.4-5.5 4.6z"/><path fill="none" d="M87.2 62.5c-1.2-.6-2.7-1.2-4.2-1.7.7 2.6 1 5.6 1 8.7 0 3.1-.4 6-1 8.7 1.5-.5 3-1 4.2-1.7 3.6-1.9 5.6-4.4 5.6-7 .1-2.6-2-5.1-5.6-7zM95 65.7c.2 1.2.4 2.5.4 3.8 0 4.3-1.4 8.4-3.8 11.7 3.8-.8 7.9-1.3 12.4-1.4 1 0 2 .2 3 .2.8-.8 1.7-1.7 2.2-2.3 3.1-4.3.8-10.1-14.2-12zM77.5 51c1.3 1.1 2.5 2.5 3.5 4.4.6 1.1 1.1 2.4 1.5 3.8 2 .5 3.9 1.2 5.5 2.1 2.4 1.3 4.3 2.9 5.4 4.7-1.4-7.2-7.2-12.8-14.6-14.9l-.2.2c-.3-.2-.7-.2-1.1-.3z"/><path fill="#34A196" d="M145 106.4c0-.4-.3-.7-.7-.7H81.5v.2c0 1.2-.9 2.1-2.1 2.1H72c-1.2 0-2.1-.9-2.1-2.1v-.2H7.1c-.4 0-.7.3-.7.7 0 .4.3.7.7.7H69c.5 1.3 1.6 2.4 3 2.4h7.3c1.5 0 2.5-1 3-2.4h61.9c.5 0 .8-.4.8-.7z"/><path fill="#777CBB" d="M109.2 77.8c-.4.6-1.4 1.5-2.2 2.3.5 0 1.1.1 1.6.1 1.5-1.3 3-2.6 4-3.9 5-6.7 3.6-15.9-12.5-19-3-.6-6.3-.8-9.7-.8 2.3 2.7 3.9 5.8 4.6 9.3 15 1.8 17.3 7.6 14.2 12z"/><path fill="#FBAB1D" d="M80 49.7c8.7-11.2 14.7-10.2 16.9-5.5.9 2 1.9 6.2 2.3 11.3.4-6-.3-11.2-1.9-15-3.3-7.7-12-11-22.7 1.3-1.8 2-3.4 4.5-4.9 7 1.1-.2 2.2-.3 3.4-.3 2.4 0 4.7.5 6.9 1.2z"/><path fill="#FBAB1D" d="M78.7 51.3l.2-.2c-.7-.2-1.3-.5-2-.7.2.1.4.4.6.6.4.1.8.1 1.2.3zM99.2 56.3c0-.3 0-.5-.1-.8 0 .2 0 .5-.1.7.1 0 .2.1.2.1z"/><path fill="#003941" d="M57.5 54.5c-4.7-12.4-1-16.8 4.1-16.3 2.2.2 6.3 1.5 10.9 3.7-5-3.3-9.8-5.3-13.9-5.8-8.3-.9-15.6 4.9-10.2 20.3.8 2.4 2.1 4.8 3.4 7.2 1.1-3.6 3-6.7 5.7-9.1z"/><path fill="#DE2C4F" d="M54 80.4c-.6-.9-1.2-1.8-1.6-2.8-14.5-1.9-16.7-7.7-13.7-11.9 1.3-1.8 4.5-4.7 8.6-7.7-5.4 2.6-9.5 5.8-12 9.2-3.1 4.3-3.7 9.5.3 13.5 4-.4 7.9-.8 11.7-.8 2.4 0 4.6.3 6.7.5zM48 57.5c-.2.1-.4.3-.6.4.2-.1.4-.2.7-.3-.1 0-.1 0-.1-.1zM28.9 69.8c3.4-.2 5.9-3 5.8-6.4-.2-3.4-3-5.9-6.4-5.8-3.4.2-5.9 3-5.8 6.4.2 3.4 3 6 6.4 5.8z"/><path fill="#003941" d="M63.9 34.4c3.4-.2 5.9-3 5.8-6.4-.2-3.4-3-5.9-6.4-5.8-3.4.2-5.9 3-5.8 6.4.2 3.4 3.1 6 6.4 5.8z"/><path fill="#FBAB1D" d="M105.3 46.4c3.4-.2 5.9-3 5.8-6.4-.2-3.4-3-5.9-6.4-5.8-3.3.2-5.9 3-5.8 6.4.2 3.4 3 6 6.4 5.8z"/><path fill="#777CBB" d="M121.8 80.4c3.4-.2 5.9-3 5.8-6.4-.2-3.4-3-5.9-6.4-5.8-3.4.2-5.9 3-5.8 6.4.2 3.3 3 5.9 6.4 5.8z"/><path fill="#013F43" d="M81.8 81.9l-1.8.2c-.1.3-.3.6-.5.9-1.3 2.4-2.9 3.8-4.5 4.5.2.2.5.3.6.5 1.1-1.2 2.7-2.2 4.6-3.2.2-.4.5-.7.7-1.1.4-.5.7-1.1.9-1.8zM75.6 90.3h.1c0-.3-.1-.5-.1-.8.1.2 0 .5 0 .8z"/><path fill="#013F43" d="M56.2 80.6c-1.7-2.2-3-4.7-3.6-7.4 1.1 1.8 3 3.5 5.4 4.7 1.6.8 3.5 1.5 5.5 2.1.3.9.6 1.6 1 2.4.8.2 1.3.5 2 .8-.4-.8-.8-1.7-1.2-2.7 2.4.5 5 .8 7.7.8s5.3-.3 7.7-.8l1.8-.4c2-.5 3.9-1.2 5.5-2.1 2.4-1.3 4.3-2.9 5.4-4.7-.7 3.3-2.4 6.2-4.6 8.7.9-.2 1.8-.4 2.8-.6 2.4-3.3 3.8-7.4 3.8-11.7 0-1.3-.2-2.6-.4-3.8-.7-3.5-2.3-6.6-4.6-9.3-2.7-3.1-6.3-5.5-10.4-6.8-2.2-.7-4.5-1.1-6.9-1.1-1.2 0-2.3.2-3.4.3-4.7.7-8.9 2.7-12.1 5.6-2.7 2.4-4.7 5.5-5.8 9-.6 1.9-1.1 4-1.1 6.1 0 2.8.6 5.5 1.7 8 .4 1 1 1.9 1.6 2.8.7 0 1.5 0 2.2.1zm31-4.1c-1.2.6-2.7 1.2-4.2 1.7.7-2.6 1-5.6 1-8.7 0-3.1-.4-6-1-8.7 1.5.5 3 1 4.2 1.7 3.6 1.9 5.6 4.4 5.6 7 .1 2.6-2 5.1-5.6 7zm-8.3-25.4C86.3 53.2 92 58.8 93.5 66c-1.1-1.8-3-3.4-5.4-4.7-1.6-.8-3.5-1.5-5.5-2.1-.4-1.4-1-2.7-1.5-3.8-1-1.8-2.2-3.3-3.5-4.4l-.6-.6c.6.1 1.2.5 1.9.7zm-9.7-.7c-1.6 1.1-3 2.8-4.1 4.9-.4.7-.7 1.5-1.1 2.4l1.8-.3c.2-.5.4-1 .7-1.5 1.8-3.4 4.2-5.3 6.5-5.3s4.7 1.9 6.5 5.3c.4.8.8 1.7 1.2 2.7l.5 1.7c.8 2.7 1.2 5.8 1.2 9.1s-.4 6.4-1.2 9.1c-2.5.6-5.3.9-8.2.9-2.9 0-5.7-.3-8.2-.9L63 78c-1.5-.5-3-1-4.2-1.7-3.6-1.9-5.6-4.4-5.6-7 0-2.6 2-5.1 5.6-7 1.2-.6 2.7-1.2 4.2-1.7-.7 2.6-1 5.6-1 8.7 0 2.3.2 4.5.6 6.5l1.7.5c-.4-2.2-.7-4.5-.7-7 0-3.3.4-6.4 1.2-9.1 2.5-.6 5.3-.9 8.2-.9 2.3 0 4.4.2 6.5.6l-.7-1.7c-1.8-.1-3.8-.2-5.7-.2-2.7 0-5.3.3-7.7.8l-1.8.4c-2 .5-3.9 1.2-5.5 2.1-2.4 1.3-4.3 2.9-5.4 4.7 1.6-7.9 8.1-14.1 16.5-15.6z"/><path fill="#FBAB1D" d="M121.3 100.5c-19.6-1.4-35.1.9-43.2 4.8 8.2-3.4 23.8-5.3 43.9-3.2 6.8.7 13.8 1.7 20.9 2.8-1.1-.8-2.1-1.6-3.2-2.4-6.2-.9-12.4-1.6-18.4-2zM73.3 105.2c-8.1-3.8-23.6-6.1-43.2-4.8-6 .4-12.2 1.1-18.4 1.9-1.1.8-2.1 1.6-3.2 2.4 7.1-1.1 14.1-2.1 20.9-2.8 20.1-1.9 35.7-.1 43.9 3.3z"/><path fill="#DE2C4F" d="M85.4 101.4c-1.4.4-2.4.8-3.6 1.2 1.2-.3 2.2-.8 3.6-1.2zM120.6 99.2c6.6.5 13.3 1.3 20.2 2.3-1.2-.9-2.3-1.8-3.5-2.7-6-.6-11.8-1.1-17.6-1.3-3.4-.1-6.6 0-9.8.1-9.6.7-18 2-24.4 3.8 8.6-2.2 20.7-3.2 35.1-2.2zM69.6 102.7c-1.2-.4-2.2-.9-3.6-1.3 1.4.4 2.4.9 3.6 1.3zM14.1 98.8c-1.1.9-2.3 1.8-3.5 2.7 6.9-1 13.6-1.9 20.2-2.3 14.4-1 26.5 0 35.1 2.2-6.4-1.8-14.9-3.1-24.5-3.8-3.2-.1-6.4-.2-9.8-.1-5.7.2-11.6.7-17.5 1.3z"/><path fill="#34A196" d="M66 101.4c1.4.4 2.4.8 3.6 1.3 1.6.6 3.4 1.2 4.7 1.8.5-4.8.9-9.5 1.3-14.3 0-.3.1-.5.1-.8 0 .3.1.5.1.8.4 4.8.8 9.5 1.3 14.3 1.3-.7 3.1-1.2 4.7-1.8 1.2-.4 2.2-.9 3.6-1.2h.2c6.4-1.8 14.8-3.1 24.4-3.8 3.5-.3 7-.5 10.7-.6 6.3-.2 12.7-.1 19.1.1-7.6-5-14.6-10.6-20.9-16.3-3.4-.5-6.8-.5-10.2-.7-.5 0-1.1-.1-1.6-.1-1 0-2-.2-3-.2-4.5.1-8.6.6-12.4 1.4-.9.2-1.9.4-2.8.6-3.2.8-6.2 1.8-8.6 3-1.9 1-3.4 2-4.6 3.2-.2-.2-.5-.3-.6-.5-2-1.8-4.9-3.3-8.5-4.6-.7-.2-1.3-.5-2-.8-2.5-.7-5.3-1.3-8.3-1.7-.7-.1-1.5-.1-2.2-.2-2.1-.2-4.3-.5-6.6-.5-3.9-.1-7.8.3-11.7.8-1 .1-2 .1-3.1.2-6.3 5.7-13.3 11.3-20.9 16.3 6.4-.2 12.7-.3 19.1-.1 3.7.1 7.2.3 10.7.6 9.6.7 18 2 24.5 3.8H66z"/></svg>