<svg xmlns:xlink="http://www.w3.org/1999/xlink"  xmlns="http://www.w3.org/2000/svg" viewBox="0 0 2000 2000"><path fill="#9D6470" d="M989 112.8v-2l-6.5 1-6.5-1v2L112 238.1v746.8c0 93.4 1.8 386.7 384.2 560.1 283.1 128.3 429.9 271.9 484 337.5l1.5-.3-6.3-19.1-35.5-96.2c.1 0 .2.6.3.5l-.5-.5h.1l-61.7-162.5c.1 0 .1.6.1.6l-.2-1.5c1-.5 2-3.6 3.1-3.6h-3l37.3-446-8.8-2.8-37.1-12.9c-64.3 41.9-144.5 27-144.5 27v-6.8c14 .4 27.4-.7 39.2-2.7 11.8-2 22.8-5 32.3-8.4 9.5-3.4 18.1-7.2 25.3-10.9 6.6-3.4 12.2-6.6 16.7-9.4l-92.9-38.1-8.6-3.4 4.6-15.9.3.1v-.1h.2v-.1l.9.1 176 44.7 17.3-224.8c.7 1.3 1.5 2.6 2.2 4l.3-4.5-.9-1.5s1.1-.1 1-.1l-.1 1.6c16.1 27.6 39.9 56.6 74.2 73.9l22.8 186 171.9-141.4s.1.1.2.1l.1-.1s10.1 4.5 10.4 11.6c0 1-.1 2-.5 3.1-.6 1.6-7.4 12.3-18.2 25.4-18 21.8-47 51.1-76.8 93.1 13.9 0 47.8 8 82.1 8.5 20.5.3 35-2.3 49-9.2v-.7-.4l11.5 5s2.5.1 2.5.2l1 .2s-63 46-161.4 10c-23 26.9-45.2 50.8-62.2 70.6v-1.3L1092 1600h-2.2c1.3 0 2.2 3.8 2.2 3.8l-.1 1c.1.2.1.8.1.8l-63.5 162.1c.1 0 .2.1.2.2l-.1.3.1-1.1-44.7 112h.4c54.1-70 201.5-207.6 484.6-335.9 382.4-173.4 383.9-464.8 383.9-558.1V238.3L989 112.8zm708.6 574.5c34.1 87.8 14.4 161.5-61.4 229 9.5-65.7 26.8-130.7 45.3-182.4-23.9 41.7-47.1 98.5-54.3 178.8-18.2-83.2-4.9-168.2 70.4-225.4zm-436.4-384.6c128.8 52.6 210.1 139.9 165.5 276-15.4-117.1-61.4-178.7-129.4-219.5 58.3 56.6 105.2 122 118.7 227.2-122-65-171.9-156.4-154.8-283.7zm-131.6-41.5c3.2 111.5-63.7 146.9-132.5 165.9 29.6-71 75.5-69.4 93.7-112.1-19.8 31.6-74.4 22.9-105.2 102 13.5-123.4 116.3-109.9 144-155.8zm-75.4 385.1c3.7 44 79.8 59 80.5 133.2-72.6-38.6-102.4-92.9-92.3-168.7 12.9 66.7 123.4 41.8 98.7 164.1 5.7-80.9-71.3-88.5-86.9-128.6zm2.6-177.4c-15.3 106.3-84.1 169.4-213.6 196 38.3-81.9 98-124.8 166.1-158C936 525.3 878 565.2 835 656.4c-8.1-119.3 89-172.4 221.8-187.5zm-115-220c38.3 79.7 25.1 150.1-40.8 218.8-13.6-71.8 3.1-124.6 29.2-174-35.8 41.2-52.8 91.3-37.9 171.3-58.3-79.7-23.6-154.2 49.5-216.1zM732 290.6c80.9 42.7 107.1 121.7 102.8 203.8-19.6-75.4-50.7-125.9-80.2-161.9 25.9 46.4 52.7 105.7 72.2 166.8C743.9 447 713.3 379.8 732 290.6zm-120.3 50.7c67.1 42.4 84.4 112.4 75.1 183.1-11.9-66.5-35.3-112.2-58.3-145.4 19.3 41.8 38.4 94.9 51.1 149.1-68.2-50.9-90.1-111-67.9-186.8zm24.9 272.5c-33.7-82.3-79-118.3-136.2-134.9 53.3 30 99.9 68.6 129.9 142.6-101.3-24-155.1-80.9-167.1-176.8 103.7 13.5 179.7 61.5 173.4 169.1zm-33.5 98.9c-79.3-64.5-151.4-93.7-210.5-108.9 63.4 28.9 137.7 70.8 205.8 120.3-128.3 9-212.8-38.2-262.3-147 118.7-17.7 207.7 45.4 267 135.6zm-215.5 407.9c-10.3-182.3-119-145.7-149.8-220.2 8.6 82.3 134 89.9 138 229-137.5-69.7-174.5-158.6-158.5-300.9 26.6 124.7 212.1 62 170.3 292.1zm-97.7-467.5C309.1 713.3 430.6 726 412.3 871c-13.7-99-78.6-104-92.6-145.7 9.2 53.9 62.2 64.6 76.7 154-73.7-40.4-140.6-99.2-106.5-226.2zM644.8 1172c-117.2-20.5-233.7-68.5-246.3-254.1 53.3 71.7 221.7 33 263.7 235.5-63.8-126.3-153-103.2-190.8-152.5 37.1 68 112.9 58.1 173.4 171.1zM675 970c-43.2-105.7-101.4-151.9-175-173.3 68.4 38.5 128.3 88.1 166.8 183.1-130-30.8-199.1-103.9-214.5-227.1C585.5 770.2 683.1 831.8 675 970zm41.9-139.6C656.5 705 772 616.7 741.8 539.7c6.9 80.3-116.1 156.9-39.4 288.3-142.9-185.1 63.6-234.8 29.9-357.7 79.6 118.9 74.6 234.9-15.4 360.1zm107.2 172.2c-16.6-74.3-1-130 24.6-182.4-35.9 44.2-52 97-33.7 179.8-63.4-81-29.8-159.9 44.3-226.9 42.6 81.8 31.3 155.7-35.2 229.5zm111-114.8v-.1.1zm199.5 70.4c-108.3-29.9-213.5-85.6-208.5-261.1 43.6 72.2 205.4 51.1 226.6 245.3-48.6-124.5-134.5-110.8-165.6-160.6 28.6 67.2 100.9 64.7 147.5 176.4zm69.8-271.5c76.3-131.7-47-207.9-40.4-288.2-29.9 77.1 85.8 165.1 25.9 290.7-90.5-124.8-95.9-240.8-16.6-360.1-33.3 123 173.3 172 31.1 357.6zm53.3 134.9c15.6-54.6 37.6-107.8 59.3-149.5-25.1 32.6-51.2 78.2-66.4 145.4-6.1-72.5 14.9-143.1 85.3-183.1 18.8 78.4-6.3 138.7-78.2 187.2zm172.9-152.5c48 135 14.6 246.1-103.5 345.3-27.7-136.4 105.9-193.6 95.6-275.7-13 79.5-151.1 123.5-109.1 269.8-92.9-214.6 119.4-212 117-339.4zm-112.8 538.3c37.1-70.1 82.5-136.3 124.2-187.1-43.7 37.4-92.5 92-132.8 179.4 12.7-100.9 61.8-191.1 169.5-225.4 3.2 112.5-48.6 187.5-160.9 233.1zm189-755.8c94.7 73.6 110.5 181.5 86.2 286.6-8.1-101.8-36.7-174.1-66.6-227.3 22.9 65.8 43.9 148.4 55.1 231.8-95-86.6-119.1-180.2-74.7-291.1zm14.6 342.3c19.6 50.7-45.7 123.7 28.9 194.4-127.6-93-3.1-164.3-48.2-237.6 74.2 62.1 92.8 138.3 58.1 236.4-62.9-69.8-4.7-148.9-38.8-193.2zM1599 1182c-5-139 136.2-173.7 139.4-256.4-25.9 76.3-169.3 97.2-151.7 248.3-56.7-226.9 152.4-189.6 170.9-315.7 25.2 141.1-25.9 245.3-158.6 323.8z"/><path fill="#B8B7B9" d="M1027.3 1765.8c-.1 0-.2-.1-.2-.1-.1-.1-.3-.1-.4-.2-12.5-5.4-26.2-8.5-40.7-8.5-17 0-33.1 4.2-47.2 11.6-.1 0-.2.1-.3.1l35.6 94.1 6.7 17.7.6 1.6.6-1.6.7-1.7 44.6-113c.1 0 .1 0 0 0z"/></svg>