<svg xmlns:xlink="http://www.w3.org/1999/xlink"  xmlns="http://www.w3.org/2000/svg" viewBox="0 0 2000 2000"><path fill="none" d="M978.5 1223.6c1.1 1.3 2.3 2.6 3.4 4l.1.1c4.5 5.2 9.1 7.3 13.5 16.3h3.8c1.1 0 2.2-2.7 3.4-4 3.1-3.9 6.3-7.7 9.5-11.4 25.7-29.9 51.5-51.5 77.7-66.7 13.7-8 27.4-14.2 41.3-18.8-54.2 8.8-99.1 24.8-122.5 44.6 0 0-8 8.8-13.1 9.8-5.2-1.1-13.2-9.8-13.2-9.8-21.8-18.5-62.5-33.7-112-42.8-.2 0-.4.1-.6.1 36.6 13.5 72.8 38.2 108.7 78.6zM454.7 1220.7c17.8-3.7 35.4-8.2 52.9-13.4 76.4-22.6 150-54 221.6-67.8-3.1-.1-6.2 1.5-9.3 1.5h-.2c-9.6 0-19 .1-28 1.3-18 2.6-40.1 5.2-64.8 9.3-9 2.6-17.9 5-26.7 8.3.3-1.5.6-3.1.8-4.6-97.4 16.6-225.4 40.2-318.5 57.4-2.7.5-5.3.9-8 1.4 16.2 5.4 32.3 9.3 48.3 11.8 44.9 7.2 88.9 3.7 131.9-5.2zM1634.8 1229.6c27.6-1 55.6-5.7 84-15-3.4-.6-6.8-1.3-10.4-1.9-33.1-6.1-70.7-13.1-109.8-20.3-.6.2-1.3.3-1.9.5-1.8-.7-3.7-1.2-5.6-1.9-32.7-6-66.3-12.1-99-18-3.1-.1-6.3-.2-9.4-.2-6.3 0-12.4.6-18.7 1-6.3-3.3-12.7-6.3-19.2-9.2-57.5-10.1-109.5-18.9-145.5-24.1-13-1.9-26.8-3.1-40.9-4 78.6 13.7 159.7 52 244.1 75.1 43.3 11.9 87.3 19.7 132.3 18zM1851.5 1357.4l-44.7-126.6c-4.2-.7-9.3-1.7-14.9-2.7 7.3 45.7 16.8 89.1 34.9 125 9.2 1.6 17.5 3.1 24.7 4.3zM199.4 1228.1c-5.8 1.1-11 2-15.3 2.7l-44.7 126.6c7.2-1.2 15.4-2.7 24.4-4.2 10.9-21.1 18.8-44.8 24.9-70.1 4.3-17.7 7.6-36.2 10.7-55z"/><path fill="none" d="M1000.1 1143.2c-4.2-.8-8.5-1.5-12.8-2.1 2.8 1.6 5.5 3.2 8.1 4.9 1.5-1 3.2-1.9 4.7-2.8z"/><path fill="#A3C552" d="M683 1414.1c-17.8 2.6-40.9 6-67.4 10.1l300.7 1.5c-63.6-20.3-153.7-23.1-233.3-11.6zM994.3 1317.4c.4.3.7.6 1.2.6s.8-.3 1.2-.6c56.9-51.8 178.8-56.2 218.5-56.2 32.5 0 64.7 2.2 95.6 6.7 108.6 15.6 392.7 64 516.1 85.2-18.2-35.9-27.6-79.3-34.9-125-18-3.3-43-7.9-73-13.5-28.4 9.3-56.4 14-84 15-45 1.6-89.1-6.1-132.3-17.9-84.5-23.1-165.5-61.4-244.1-75.1-11-.6-22.3-1-33.8-1-32.6 0-64.4 2.7-93.6 7.4-13.8 4.6-27.6 10.8-41.3 18.8-26.1 15.2-52 36.9-77.7 66.7-3.2 3.6-6.4 7.5-9.5 11.4-1.2 1.4-2.3 4-3.4 4h-3.8c-4.4-9-8.9-11.1-13.5-16.3l-.1-.1c-1.2-1.4-2.3-2.7-3.4-4-35.9-40.4-72.1-65.1-108.8-78.7-.5-.2-1-.3-1.5-.5-31.4-5.6-66.1-8.8-101.9-8.8-10.4 0-20.6.3-30.5.9-2.2.4-4.4.9-6.5 1.3-71.5 13.8-145.2 46.9-221.6 69.5-17.5 5.1-35.1 9.7-52.9 13.4-43 8.9-87 12.4-132 5.4-15.9-2.5-32-6.5-48.3-11.9-30.9 5.7-56.6 10.5-75.1 13.9-3 18.8-6.4 37.3-10.7 55-6.1 25.4-14 49.1-24.9 70.1 123.3-21.2 407.8-69.6 516.3-85.3 31-4.5 63.2-6.7 95.6-6.7 39.8.1 161.6 4.6 218.6 56.3zM1073.1 1426.4l327.3 1.6c-37.2-5.7-69.2-10.6-92.5-13.9-80.8-11.7-171.5-8.7-234.8 12.3z"/><path fill="#A3C552" d="M995.5 1417.4c55.7-47.1 201-65.6 306.8-50.4 79.1 11.4 261 40 402.5 62.5l201.9 1c-18.2-7.7-33.2-18.2-45.9-30.6-83.2-14.3-432.8-74.3-555.7-92-28.6-4.2-59.7-6.3-89.9-6.3-146.3-.2-177.2 37.9-200.3 54.5-8.7 6.2-12 13.5-19.3 13.5-7.3 0-10.6-7.3-19.3-13.5-23.2-16.6-54.2-54.7-200.4-54.5-30.1 0-61.2 2.1-89.8 6.3-123.7 17.8-477.5 78.6-557.4 92.3-8.8 8.1-18.6 15.4-29.9 21.4l230.2 1.1c133.5-21.2 288.6-45.5 359.9-55.8 105.6-15.2 250.9 3.3 306.6 50.5zM210.7 1184.9c-.1 0-.2-.1-.2-.1-1.5-.8-2.9-1.6-4.4-2.5-.2 1.2-.3 2.4-.5 3.6 1.7-.3 3.4-.6 5.1-1zM1785.7 1186l-.3-1.8c-.8.5-1.5.8-2.3 1.3.8.1 1.7.3 2.6.5z"/><path fill="#333E4D" d="M1893.5 1466.6s0-.1-.1-.3l-.3-.8c-.8-2-3.5-5.7-10.9-7.6-26.7-4.3-95.3-15.3-177.4-28.3-141.4-22.5-323.3-51.2-402.5-62.5-105.8-15.2-251.1 3.3-306.8 50.4-55.7-47.1-201-65.6-306.8-50.4-71.4 10.3-226.4 34.6-359.9 55.8-100.4 15.9-188.7 30.1-220 35.1-7.4 1.9-10.1 5.7-10.9 7.6l1.4.8c0 .2 1.7.3 1.7.3l-17.4 38.8c.9 1.2 2.6 2.6 10.2 1.8 64.4-10.4 359.7-58.2 522.2-83.1 26.5-4.1 49.4-7.5 67.2-10.1 79.6-11.5 169.5-8.7 233.2 11.6 29.2 9.3 52.8 22.2 67.4 39.2 1 1.1 6.5 8.5 11.7 8.6 5.2.1 13.1-8.4 14.3-9.8 14.1-15.9 36.2-28.2 63.3-37.2 63.3-21 154-24 234.8-12.3 23.3 3.4 55.3 8.2 92.5 13.9 166.2 25.6 436.4 69.3 497.6 79.2 7.6.8 10.2-.6 11.1-1.8l-15.6-38.9z"/><path fill="#333E4D" d="M775.7 1301.6c146.2-.2 177.2 37.9 200.4 54.5 8.7 6.2 12 13.5 19.3 13.5 7.3 0 10.6-7.3 19.3-13.5 23.2-16.6 54.1-54.7 200.3-54.5 30.2 0 61.3 2.1 89.9 6.3 122.8 17.7 472.4 77.7 555.7 92 11 1.9 17.5 3 18 3.1l18.8 3.2c10 1.8 12.3-1.4 12.7-4.1l-47.9-135.6c1.1 1.3 2.3 2.7 3.4 4-8.1-91.7-70.5-107.5-70.5-107.5-80.3-33.9-86.4-67.5-86.4-67.5-12.4-33.3 7.5-86.9 7.5-86.9 17.1-10.3 29-45.3 29-45.3 28-15.8 32.5-47.4 21.3-49.7-9-1.8-5.6-9.9-5.6-9.9 39.8-137.6-67.2-170.2-67.2-170.2l-16.6-3.9s-109.8-18.6-119.6 126.2c0 0 .7 9.1-8.4 6.7-10.9-3-17.6 28.3 2.8 55.3 0 0-.9 37.7 11.3 54.8 0 0 .2 58.4-22.5 83.4 0 0-16.9 28.1-102.4 23 0 0-41-8.8-77.1 30.4-12.4-2-24-3.9-34.6-5.5-36.8-89.7-109.2-91.1-109.2-91.1-114.4-19.5-130.3-61.1-130.3-61.1-24.3-39.4-10.5-115.1-10.5-115.1 20.2-18.6 27.8-67.7 27.8-67.7 33.4-28.8 31.8-71.4 16.7-70.9-12.6.4-9.5-11.4-9.5-11.4 20.9-190.9-129-200.5-129-200.5h-22.9S810.2 496 830.8 686.6c0 0 2.6 11.6-9.7 11.3-15.4-.5-16.9 42 16.6 71 0 0 7.6 49.2 27.9 67.8 0 0 13.7 75.7-10.4 115.1 0 0-15.9 41.6-130.2 61.1 0 0-59.1 1.1-97.7 67.5-30.3-19.7-58.8-13.6-58.8-13.6-85.5 4.9-102.3-22.2-102.3-22.2-22.7-24.1-22.6-80.4-22.6-80.4 12.2-16.6 11.3-52.9 11.3-52.9 20.4-26 13.7-56.2 2.8-53.3-9.1 2.3-8.4-6.4-8.4-6.4-9.8-139.6-119.7-121.7-119.7-121.7l-16.6 3.8s-107.1 31.5-67.3 164.2c0 0 3.4 7.8-5.6 9.6-11.3 2.2-6.8 32.7 21.2 47.9 0 0 12 33.8 29.1 43.7 0 0 19.8 51.8 7.4 83.9 0 0-6.1 32.4-86.4 65.1 0 0-33.8 8.3-54.9 47.8-2.8 1.8-4.1 3.8-4.6 5l-.4 1.1-70.8 200.5c.4 2.6 2.8 5.8 12.7 4.1l18.9-3.2c.5-.1 6.2-1.1 16.2-2.8 79.9-13.8 433.7-74.5 557.4-92.3 28.7-4.6 59.7-6.7 89.8-6.7zm1010-115.6c-.8-.2-1.7-.3-2.6-.5.8-.5 1.5-.8 2.3-1.3l.3 1.8zm-785.6-42.8c-1.5.9-3.2 1.8-4.6 2.8-2.6-1.7-5.4-3.3-8.1-4.9 4.2.5 8.5 1.3 12.7 2.1zm-789.6 41.6c.1 0 .2.1.2.1-1.7.3-3.5.6-5.1.9.2-1.2.3-2.4.5-3.6 1.5 1 2.9 1.8 4.4 2.6zm-46.7 168.4c-9 1.6-17.3 3-24.4 4.2l44.7-126.6c4.3-.8 9.5-1.7 15.3-2.7 18.5-3.4 44.2-8.1 75.1-13.9 2.7-.5 5.2-1 8-1.5 93.1-17.2 221.1-41 318.5-57.5-.3 1.5-.6 2.9-.8 4.4 8.8-3.2 17.7-6.1 26.7-8.7 24.7-4.1 46.8-5.9 64.8-8.5 9-1.3 18.4-1.3 28-1.3h.2c3.1 0 6.2-1.6 9.3-1.5 2.2-.4 4.4-1.7 6.5-2.1 10-.5 20.1-1.3 30.5-1.3 35.8 0 70.6 3 101.9 8.6.5.2 1 .2 1.5.4.2 0 .4-.1.6-.2 49.5 9.1 90.2 24.2 112 42.8 0 0 8 8.7 13.2 9.8 5.2-1.1 13.1-9.8 13.1-9.8 23.4-19.8 68.3-35.8 122.5-44.6 29.1-4.7 60.9-7.4 93.6-7.4 11.6 0 22.8.4 33.8 1 14.2.8 27.9 2.1 40.9 4 36 5.2 88 13.9 145.5 24.1 6.5 2.9 12.9 5.9 19.2 9.2 6.2-.4 12.4-1 18.7-1 3.1 0 6.3.1 9.4.2 32.8 5.9 66.3 12 99 18 1.9.6 3.7 1.2 5.6 1.9.6-.2 1.3-.3 1.9-.5 39 7.2 76.6 14.1 109.8 20.3 3.6.7 7 1.3 10.4 1.9 30 5.6 55 10.2 73 13.5 5.6 1 10.7 1.9 14.9 2.7l44.7 126.6c-7.2-1.2-15.6-2.7-24.7-4.3-123.4-21.2-407.5-69.6-516.1-85.2-30.9-4.5-63.1-6.7-95.6-6.7-39.7 0-161.6 4.5-218.5 56.2-.4.3-.7.6-1.2.6s-.8-.3-1.2-.6c-56.9-51.8-178.8-56.2-218.5-56.2-32.5 0-64.7 2.2-95.6 6.7-108.4 15.4-392.9 63.8-516.2 85z"/></svg>