<svg xmlns:xlink="http://www.w3.org/1999/xlink"  xmlns="http://www.w3.org/2000/svg" viewBox="0 0 2000 2000"><path fill="none" d="M828.4 1792.3c8.1 1.4 16.2 2.7 24.3 3.9-6.3-7.6-9.6-21.1-10.8-35.5-3.8 12.1-8 23.5-13.5 31.6zM914.4 1798.3c-12.8-1-18.5-12.9-20.9-26.3-3 11.4-7.8 21.8-14.9 26.1-.8.5-1.4.6-2.2 1 27.5 3.1 55.4 4.7 83.7 4.7 9.5 0 18.9-.4 28.3-.7-10-6.5-26.9-17.7-47.3-31.5-4.6 15-12.4 27.8-26.7 26.7zM1090.6 1758.9c-2.5 13.4-8.1 25.4-21 26.3-7.4.5-13-2.7-17.4-7.9-16.3 11.3-29.9 19.3-39.5 24.6 33.9-2.4 67.3-6.8 99.8-13.6-2.2-.7-4.5-1.7-7-3.2-7.1-4.3-11.8-14.8-14.9-26.2zM1130.4 1784.2c8.2-1.9 16.4-3.9 24.6-6.1-5.2-8-9.2-19-12.9-30.6-1.3 15.2-4.8 29.4-11.7 36.7zM1369 743.7c-1-.4-1.5-1.1-1.2-1.9.4-.8 1.6-1.4 2.9-1.4-1.2-.4-1.8-1.3-1.4-2.1.4-1 2.1-1.6 3.7-1.3l2 .3c-4.5-2.8-6.5-7.1-4.8-11.1l5.3-13.6c.9-2.3 2.9-4.3 5.4-5.8 2.1-1.3 4.7-2.2 7.5-2.7.2-8.6.3-17.7.3-27.2 0-18.1-1.9-37.6-6.5-57.7-6.7 2.5-13.3 5-20.2 7.5-.2.1-.4.2-.6.2-5.9 2.2-9.4 4.3-15.5 6.5-2.7 1-1.8 1.5-1.8 1.5v-.1c-17 6.5-39.8 12.7-59.7 18.9 8.6 19.8 14.4 46.5 16.3 82.3 0 .1-.6.2-.6.4 3.1-3.5 5.9-7.1 8.8-10.5 18.3-21 36.8-38.5 51-62.7 27 18.2 7.7 66.7-13.1 82.8 6.2.8 10.3 3.7 13.1 7.6 4.1-5 7.5-8.4 9.1-9.9z"/><path fill="#F3776F" d="M853.1 1690c6.7-12.7 16.7-23.1 31.8-17 9.5 3.8 14.4 13 16.4 23.6 3.7-5.6 8.6-9.9 16-11.6 28.3-6.5 32.6 28.8 30 50.4-.9 7.9-2.3 23-6.4 36.5 20.4 13.8 37.3 25 47.3 31.5 8.2-.3 16.4-.8 24.5-1.3 9.5-5.2 23.2-13.3 39.5-24.6-11.7-14.1-14.2-43-15.7-55.1-2.4-21.6 1.8-56.9 30.1-50.4 7.4 1.7 12.3 6.1 16 11.6 2.1-10.6 6.9-19.7 16.4-23.5 15.2-6.1 25.1 4.3 31.9 17 8.6-31 37.4-50.9 58.3-15.2 14.8-5 29.4-10.5 43.5-17.5 72.5-35.9 93.9-88.3 104.7-164.1 5.4-38 1.2-84.8-18.6-118.3-10.4-17.7-32.2-50.5-55.7-70.8 6.3-3.7 97.1-57.6 133.1-135.2 59-127.4 25.1-211.4-51.1-298.5-1.2-1.4-2.5-2.7-3.7-4 1.2-2 2.3-4.1 3.4-6.1-3.6.7-7.4 1.5-11.8 2.5-19.5-36.9 9.8-77.4 26.5-96.2-2.8-3.8-6.9-6.7-13.1-7.6 20.8-16 40-64.5 13-82.8-14.2 24.2-32.8 41.7-51.1 62.7-2.9 3.4-6 7-9.1 10.5-.6 34.1-86.8 114.7-339.3 125.1-3-.1-6 0-9-.3-.3 0-.6-.1-.9-.1-258.8-22.8-313-132.1-313-132.1s-.6-6 0-15.6c-14.5-15.9-28.6-30.9-39.8-50.2-27.1 18.2-7.7 66.7 13 82.8-27.1 3.6-19.5 44.5 4.5 48.9-12.6 6.4-16.1 17.9-11.7 33.2 1.2 4.1 5 12.3 9.6 20.7-85.4 81.7-94.7 182.3-68.4 252 44.7 118.6 136 170.9 158.1 182.2-26.3 19-51.9 57.2-63.4 76.9-19.8 33.5-24 80.2-18.6 118.3 10.8 75.8 32.1 128.1 104.7 164.1 23.6 11.7 48.4 20 73.6 27 20.6-27.6 46.4-8.5 54.5 20.6zm-252.8-614.9c0-101.9 82.6-184.6 184.5-184.6s184.6 82.6 184.6 184.6c0 32.2-8.3 62.4-22.7 88.8 25.8-2 52.9-.3 76.6 2 .9.1 1.6.3 2.4.4-12.4-24.8-19.6-52.8-19.6-82.5 0-101.9 82.6-184.5 184.5-184.5s184.6 82.6 184.6 184.5c0 102-82.7 184.6-184.6 184.6-59.3 0-111.9-28.1-145.7-71.6-5.8 15.2-20 32.1-27.2 40.8-16.7 20.3-30 47.9-56.8 31.4-20.3-12.6-39.5-31.9-51.5-52.6-.6-1-1.3-2.3-2.1-3.6-32.6 29-75.4 46.8-122.5 46.8-101.9.1-184.5-82.5-184.5-184.5z"/><path fill="#FBAF4A" d="M841.9 1760.6c1.3 14.4 4.5 27.9 10.8 35.5 7.8 1.1 15.7 2.2 23.5 3 .8-.4 1.4-.5 2.2-1 7.2-4.3 11.9-14.7 14.9-26.1 2.5 13.4 8.1 25.3 20.9 26.3 14.3 1 22.2-11.8 26.7-26.6 4.1-13.4 5.5-28.5 6.4-36.5 2.5-21.6-1.8-56.9-30-50.4-7.4 1.7-12.4 6.1-16 11.6-2.1-10.6-7-19.7-16.4-23.6-15.1-6.1-25.1 4.3-31.8 17-8.1-29.1-33.9-48.1-54.4-20.9-3.4 4.6-6.8 10.1-9.8 17.4-5.1 12.4-8.1 67.3 1.3 97.9 12.6 2.9 25.4 5.5 38.3 7.8 5.4-7.8 9.6-19.2 13.4-31.4zM1131 1676.9c-6.7-12.7-16.7-23.1-31.9-17-9.5 3.8-14.3 13-16.4 23.5-3.7-5.5-8.6-9.9-16-11.6-28.3-6.5-32.6 28.8-30.1 50.4 1.4 12.2 3.9 41.1 15.7 55.1 4.4 5.2 10 8.5 17.4 7.9 12.9-1 18.5-12.9 21-26.3 3 11.4 7.8 21.9 14.9 26.2 2.5 1.5 4.8 2.5 7 3.2 6-1.2 11.9-2.7 17.8-4.1 6.9-7.4 10.4-21.5 11.7-36.7 3.6 11.6 7.7 22.6 12.9 30.6 13.6-3.7 27-7.7 40.3-12.1 7.6-31.3 4.7-80.9-.1-92.6-1.8-4.5-3.8-8.4-5.8-11.8-21-35.6-49.8-15.7-58.4 15.3z"/><path fill="#C32026" d="M637.1 728.9s54.2 109.2 313 132.1c.3 0 .6.1.9.1 3 .3 6 .2 9 .3 252.6-10.4 338.7-91 339.3-125.1v-.4c-1.9-35.8-6.4-62.5-15.1-82.3 19.9-6.1 42.7-12.4 59.7-18.9v.1s-.9-.5 1.8-1.5c6.1-2.2 10.9-4.3 16.7-6.5.2 0-.2-.1 0-.2 6.9-2.5 13.2-5 19.9-7.5 4.7 20.1 6.4 39.5 6.4 57.7 0 9.5-.2 18.6-.3 27.2-2.8.6-5.5 1.4-7.6 2.7-2.6 1.5-4.5 3.5-5.4 5.8l-5.3 13.6c-1.6 4.1.4 8.3 4.8 11.1l-2-.3c-1.6-.3-3.2.3-3.7 1.3-.4.8.3 1.7 1.4 2.1-1.3 0-2.6.6-2.9 1.4-.3.8.2 1.6 1.2 1.9-1.6 1.5-5.1 5-9.3 9.7-16.7 18.8-46 59.3-26.5 96.2 4.4-1 8.2-1.8 11.8-2.5 2.4-.5 4.8-.9 6.9-1.3 6.2-1.1 10.9-1.8 14.2-2.2 5-.5 6.9-.5 6.9-.5s1.3-19.1 6.3-34.1c.6-1.7 6.8-12.2 6.8 5.3 0 17.6-2.4 27.8-2.4 27.8s5.8-.8 12.8.7c3.6.8 7.5 2 11.1 4.2 11.3-10.1 8.7-64.6.4-88.5.7-5.2 1.4-11.1 2-17.6 4.5-1.6 8-4.3 9.3-7.6l5.3-13.6c1.1-2.7.6-5.4-1.2-7.8-2-2.7-5.7-5.1-10.6-6.2-.1 0-.2 0-.3-.1.4-9.1.6-18.8.6-28.9 0-20.7-2.3-43.3-8.4-66.5 47.2-18.8 86.5-36.9 116.2-51.2 2.3-2.9 3.8-11.4 0-16.1-11.5-4.5-27-9.1-45.3-13.8l-3.8 2 .5-2.9c-62.8-15.9-159.1-32.8-259.2-47.5-93.1-13.6-189.4-25.3-265.3-32.4-43.7 2.7-158 21.5-268.8 41-130.2 23-255.5 47-255.5 47-6.6 8.4 0 16.1 0 16.1s95.5 38.1 242.6 82.8c-22.3 29.7-27.9 60.2-29.1 78-.4 9.8.2 15.8.2 15.8z"/><path fill="#05B195" d="M1700 470.2c-49.9 42.6-97 88.1-140.7 137.3 93.6 124.9 149 280.1 149 448.1 0 331.1-215.1 611.8-513.1 710.4-13.3 4.4-26.7 8.5-40.3 12.1-8.1 2.2-16.3 4.2-24.6 6.1-5.9 1.4-11.8 2.9-17.8 4.1-32.5 6.7-65.9 11.2-99.8 13.6-8.1.6-16.3 1-24.5 1.3-9.4.3-18.8.7-28.3.7-28.3 0-56.2-1.7-83.7-4.7-7.9-.9-15.7-1.9-23.5-3-8.2-1.2-16.3-2.5-24.3-3.9-12.9-2.3-25.6-4.9-38.3-7.8-97.7-22.7-188.2-64.5-267-121.2-8.2 6.7-16.3 13.3-24.5 19.9 146.2 115.5 331 184.3 531.8 184.3 474.5 0 859.1-384.6 859.1-859-.1-203.9-71-391.1-189.5-538.3zM361.5 1504.7c-94-125.1-149.7-280.6-149.7-449.1 0-413.3 335-748.3 748.3-748.3 151.3 0 292.2 45 409.9 122.2 50.2-42.5 100.8-84.5 152.3-125.5-139.3-97.4-308.9-154.7-491.9-154.7-474.4 0-859 384.7-859 859.1 0 194.1 64.4 373.2 173 517.1 5.6-6.9 11.3-13.9 17.1-20.8z"/><path fill="#3E81B5" d="M428.1 1599.8l-21.9-44.5-22 44.5-49.1 7.1 35.6 34.6-8.4 48.9 43.9-23.1 43.9 23.1-8.4-48.9 35.5-34.6zM1475.8 529.1l66.5-35 70.4 37-13.5-78.4 57-55.5-78.7-11.4-35.2-71.3-35.2 71.3-78.7 11.4 57 55.5-13 75.5-.5 2.9z"/><path fill="#752321" d="M897.6 1177.2c4.9-10.5 22.3-10.2 33.4-11.8 5.1-.8 10.4-1.1 15.6-1.5 14.5-26.3 22.7-56.6 22.7-88.8 0-101.9-82.6-184.6-184.6-184.6s-184.5 82.6-184.5 184.6 82.6 184.6 184.5 184.6c47.1 0 89.9-17.8 122.5-46.8-5.5-9.8-14.1-26.1-9.6-35.7zm-112.7 48.4c-83.1 0-150.5-67.4-150.5-150.5s67.4-150.5 150.5-150.5 150.5 67.4 150.5 150.5c-.1 83.2-67.4 150.5-150.5 150.5z"/><path fill="#1D1D1B" d="M832.8 1075.1c-27.5 0-49.8-22.3-49.8-49.8 0-16.8 8.4-31.7 21.1-40.7-6.2-1.3-12.6-2-19.2-2-51.1 0-92.5 41.4-92.5 92.5s41.4 92.5 92.5 92.5 92.5-41.4 92.5-92.5c0-7.9-1-15.5-2.8-22.8-8.9 13.7-24.3 22.8-41.8 22.8zm-81.5 73.2c-14.2 0-25.8-11.6-25.8-25.8 0-14.3 11.5-25.7 25.8-25.7 14.2 0 25.7 11.5 25.7 25.7s-11.5 25.8-25.7 25.8z"/><path fill="#FFF" d="M751.3 1096.8c-14.2 0-25.8 11.5-25.8 25.7s11.5 25.8 25.8 25.8c14.2 0 25.7-11.6 25.7-25.8 0-14.3-11.5-25.7-25.7-25.7z"/><path fill="#752321" d="M1045 1196.9c33.8 43.5 86.4 71.6 145.7 71.6 101.9 0 184.6-82.6 184.6-184.6 0-101.9-82.7-184.5-184.6-184.5-101.9 0-184.5 82.6-184.5 184.5 0 29.7 7.2 57.6 19.6 82.5 22.6 3.1 24.8 16 19.2 30.5zm145.7-263.5c83.1 0 150.5 67.4 150.5 150.5s-67.4 150.5-150.5 150.5-150.5-67.4-150.5-150.5 67.4-150.5 150.5-150.5z"/><path fill="#1D1D1B" d="M1190.7 1176.3c51.1 0 92.5-41.4 92.5-92.5 0-7.9-1-15.5-2.8-22.8-8.9 13.7-24.3 22.8-41.8 22.8-27.5 0-49.8-22.3-49.8-49.8 0-16.8 8.4-31.7 21.1-40.7-6.2-1.3-12.6-2-19.2-2-51.1 0-92.5 41.4-92.5 92.5 0 51.2 41.4 92.5 92.5 92.5zm-33.6-70.8c14.2 0 25.7 11.5 25.7 25.8s-11.6 25.7-25.7 25.7c-14.2 0-25.8-11.5-25.8-25.7s11.6-25.8 25.8-25.8z"/><path fill="#FFF" d="M1157.1 1157c14.2 0 25.7-11.5 25.7-25.7s-11.6-25.8-25.7-25.8c-14.2 0-25.8 11.5-25.8 25.8s11.6 25.7 25.8 25.7z"/><path fill="#FBAF4A" d="M897.6 1177.2c-4.6 9.6 4.1 25.9 9.8 35.7.8 1.3 1.5 2.5 2.1 3.6 12 20.7 31.2 40 51.5 52.6 26.8 16.5 40.1-11.1 56.8-31.4 7.2-8.7 21.3-25.6 27.2-40.8 5.6-14.5 3.4-27.4-19.2-30.5-.9-.1-1.5-.3-2.4-.4-23.7-2.3-50.9-4-76.6-2-5.3.4-10.5.7-15.6 1.5-11.2 1.6-28.6 1.3-33.6 11.7z"/></svg>