<svg xmlns:xlink="http://www.w3.org/1999/xlink"  version="1" xmlns="http://www.w3.org/2000/svg" viewBox="0 0 150 150"><path fill="#3C5426" d="M96.8 90.9c0-.5-1.9-1.2-2.2-.1-.2 3.9-.2 28.6-.1 48.7H97c.1-20.3.2-45.4-.2-48.6zM89.7 89.2c-.2-.8-2-.7-2.2 0-.6 4.5-.5 29.6-.5 50.3h3.1c.2-20.8.5-46-.4-50.3zM82.3 88.5c-.5-.5-1.1-.7-2-.5-.9 4.2-.8 30-.7 51.3h3.1c.3-20.8.4-46.1-.4-50.8zM103.1 92.8c-.4-.3-1.2-.9-2.1-.6-.6 2.9-.8 27.6-.8 47.3h3c.2-19.2.4-44-.1-46.7z"/><path fill="#7CA13F" d="M113.8 15.4H74c1.9 3.5 0 8.1 1.4 11.9.5 2 3.3 2.2 4.3 3.9.6 1 .5 1.5-.1 2.1-.2.3-.5 1-.7 1.3-.8 2.1-.8 4.2.1 6.2 1.7 2.1-1.1.6-2.3.5-2.2-.5-4.3-.5-6.5 0-1 .2-1.9.5-2.9.8 2-2.7 1.3-6.4 0-9.3-.8-2.8 3.2-3.4 4.5-5.5.7-.8.4-2 .4-2.9-.1-2.8-.7-5.4 1.2-9H33.3v124.1h6.9C38.8 121 38.1 95.7 38 93.1c4.8-8.1 14.9-10 24.1-10.5 19.9-1 40.6 2.4 46.2 9.6-.1 2.9.1 28-1.1 47.3h6.6V15.4zM61.6 46.7c2.8-2 6-3.6 9.5-4 1.9-.2 3.2-.2 5 0 11.2 1.4 18.1 12.7 19.8 23-.2 0-.6.1-.8.1-2.1-5.5-3.6-11.5-8.1-15.7-5-5.4-13.4-7.1-20.2-4.4-1.1.4-1 1.6.6 1.2 2.3-.6 4.8 1 5.9 3.1 1.5 2.9-3.8 8.2-8.4 11.1.8 0 1.6-.1 2.4-.2 3 .1 6-.1 8.9 0 4.2.1 8.3 1.5 12.2 2.8-.3.1-1 .3-1.3.4-1.9.1-7.1-1.1-7.9-1.2-7.8-.9-14.1.1-14.8.3-4.7 1.6-9.8 2-14.2 4.6 3.1-7.4 4.4-16 11.4-21.1zm40.1 37.8C89 81.1 85.6 80.9 78 80c-3.6-.5-15.8.1-16.7.4-5.6.9-11 2.7-16.4 4-.4-3.4-2.6-7.3 0-10.3 4.9-5.7 19.7-9.1 22.1-9.4 3.8-.5 8.3-.5 12.1.3 4.3.6 18.2 3.7 23.1 9.8 2.4 3-.4 6.5-.5 9.7z"/><path fill="#3C5426" d="M79.7 67.2c-3-.6-10-.8-13 0 4.3 2.7 3.6 8.3-1.2 10.1-2.5 1.5 9.6.4 16.3 1.4 2.8.4 13.4 1.8 18 3.1.3-.8 1.5-3.2.8-5.2-2.9-7.6-15.5-8.4-20.9-9.4zM59.6 89.2c-.2-.8-2-.7-2.2 0-.5 4.1-.5 29.8-.4 50.3h3.1c.1-20.7.4-46.2-.5-50.3zM50.3 90.6c-.1 3.4 0 29.1 0 48.9h2c-.1-20.6-.1-47-.1-48.9h-1.9zM75 88.5c.1-1.4-2.4-1.4-2.9-.6-.6 4.9-.5 30.4-.4 51.5h3.7c.1-20.9.3-46.2-.4-50.9zM67 88.5c-.5-1.2-1.7-1.1-2.2 0-1.1 4.4-.9 30-.9 50.9h3.6c.1-20.9.2-46.3-.5-50.9zM46.5 92c-.7.2-1.5-.5-2 .2-.4 2.3-.4 28.3-.4 47.2h2.4c.1-19.3.3-45.2 0-47.4zM33.3 13.4h82.4V84l2.7-73.4z"/></svg>