<svg xmlns:xlink="http://www.w3.org/1999/xlink"  version="1" xmlns="http://www.w3.org/2000/svg" viewBox="0 0 150 150"><path fill="#804A9C" d="M64.4 46.2c-.8.3-1.7.7-2.5 1.3-3.2 2.1-4 4.8-4.9 6 2.8-3 9.8-4.2 11.4 0 .9-3.9-1.1-6.4-4-7.3zM64.2 109.7c-3.9-8.7 1.1-21.5 7.3-34.1 2-4.1 3.5-7.9 4.6-11.3-1.1 1.7-2.4 3.4-4 5.1-14.5 15.4-24.3 33-22.1 46.6.2 1.3.5 2.6.9 3.8 4.1 4.3 9.7 5.4 13.9 5.6 11.2.4 18.4-9.6 18.4-9.6s-13.9 5.1-19-6.1z"/><path fill="#A99575" d="M89.6 34.6s-.1-.1-.3-.2c-.2-.1-.3-.2-.3-.2-1.6-1.1-6.5-4.7-7.7-9.2-3.6 2.1-6.2 5.9-6.7 10.4 4.8 3.2 7.9 8.4 8.9 14.6 1.4.5 3 .8 4.6.8 7.3-.1 13.1-6.2 13.2-13.6-4.3 1.1-9.9-1.7-11.7-2.6z"/><path fill="#A99575" d="M72.8 69.5c1.6-1.7 2.9-3.4 4-5.1 3.8-5.8 5-11.9 4.1-16.9-.7-4-2.7-7.4-5.8-9.5-2.4-1.6-5.4-2.5-9-2.3-15.6.8-16.2 23.5-16.2 23.5S53 51.9 57.2 48c2.1-2 5.4-2.5 8-1.7 2.9.9 4.9 3.3 4 7.3-.2.9-.5 1.8-1.1 2.8-5.9 11.2-35.5 23.2-33.5 53.1 1.4 21.7 26.8 27.7 26.8 27.7s-6.8-6-9.8-17.2c-.3-1.2-.6-2.4-.9-3.8-2.2-13.8 7.6-31.4 22.1-46.7z"/><path fill="#804A9C" d="M109.1 40.2l6-9.8.4.1-.3-.4.1-.1-.3-.2-12-17.5-22.5-3 9.8 14.3 2.8 4.1 4.5.5 16.1 1.9-5.7 9.3c-.8-.2-1.7.1-2.2.9-.3.5-.3 1.2-.1 1.7-1 .9-3 2.8-4.5 6.1l2 1.2 1.4.9c2.3-2.9 3.1-5.6 3.4-6.9.5-.1 1-.4 1.3-.9.4-.6.3-1.6-.2-2.2z"/><path fill="#804A9C" d="M87.9 23.3c-1.7-2.6-3.3-5.1-3.3-5.1l-4 6.6c0 .1.1.2.1.3 1.1 4.4 6 8.1 7.7 9.2 0 0 .1.1.3.2.2.1.3.2.3.2 1.8 1 7.4 3.7 11.9 2.6h.1l4-6.6s-3-.3-6.1-.6c-2.9-.3-5.9-.7-7-.8-.7-1-2.4-3.6-4-6z"/></svg>