<svg xmlns="http://www.w3.org/2000/svg" width="100" height="100" viewBox="0 0 100 100"><path fill="none" d="M52.559 50.669l1.924-1.295.054-.034.026-.035c-.05.004-.091.01-.107.004l-2.302.196.443-2.271c0-.01.005-.041.012-.079l-.005-.039-.074.091-1.49 1.764-1.292-1.919c-.009-.009-.03-.044-.048-.072l-.027-.019c.009.065.012.112.012.112l.184 2.299-2.262-.436c-.011-.001-.04-.007-.076-.014l-.045.007.085.066 1.771 1.495-1.918 1.299a.344.344 0 0 0-.063.037l-.021.03c.051-.004.095-.009.109-.009l2.303-.191-.442 2.273c0 .01-.006.039-.014.075l.007.038.069-.084 1.492-1.769 1.299 1.916.039.065.031.022-.008-.109-.182-2.3 2.257.437.078.018.034-.006a.89.89 0 0 1-.082-.07l-1.771-1.493z"/><path fill="#C27DAF" d="M52.153 49.505l2.302-.196c.017.006.058 0 .107-.004.129-.185.555-.766 1.25-1.534-1.305.316-2.18.394-2.18.394s.145-.756.534-1.896c-.921.62-1.55.937-1.55.937s-.002-.017-.009-.049a.727.727 0 0 0-.012.079l-.442 2.269zM49.34 50.493l-1.771-1.495c-.006-.006-.042-.032-.085-.066-.225.038-.933.148-1.963.199 1.15.701 1.826 1.266 1.826 1.266s-.637.433-1.718.963c1.088.214 1.756.433 1.756.433l-.026.037a.344.344 0 0 1 .063-.037l1.918-1.3zM49.869 49.374l-.184-2.299s-.003-.046-.012-.112a16.95 16.95 0 0 1-1.532-1.248c.317 1.309.395 2.187.395 2.187s-.76-.146-1.905-.537c.621.923.939 1.552.939 1.552l-.04.008c.036.007.065.013.076.014l2.263.435zM96.127 53.031l-1.758-1.494c-.29-.246-6.435-5.391-14.944-7.023a26.1 26.1 0 0 1-4.328 2.93c5.662 1.533 9.641 4.887 9.641 4.887s-4.774 3.239-11.03 3.991a25.163 25.163 0 0 1 4.114 3.414c9.006-.49 16.07-5.192 16.396-5.412l1.909-1.293zM56.272 49.804c-1.089-.214-1.759-.433-1.759-.433l.022-.031a1.046 1.046 0 0 1-.054.034l-1.924 1.295 1.771 1.492c.007.009.043.04.082.07a17.2 17.2 0 0 1 1.964-.199c-1.148-.701-1.824-1.267-1.824-1.267s.64-.431 1.722-.961zM51.039 48.973l1.49-1.764.074-.091a17.269 17.269 0 0 1-.201-1.964c-.702 1.15-1.268 1.826-1.268 1.826s-.432-.636-.961-1.716c-.212 1.085-.43 1.75-.43 1.75l-.044-.031c.018.028.039.062.048.072l1.292 1.918zM50.862 52.193l-1.492 1.769a1.697 1.697 0 0 0-.069.084c.039.229.147.936.198 1.96.701-1.15 1.267-1.826 1.267-1.826s.434.642.966 1.727c.214-1.089.433-1.756.433-1.756l.036.024a2.041 2.041 0 0 1-.039-.065l-1.3-1.917zM52.042 51.788l.182 2.3.008.109c.184.13.763.554 1.53 1.247-.317-1.307-.395-2.184-.395-2.184s.758.146 1.899.535c-.619-.922-.937-1.551-.937-1.551l.048-.008a2.512 2.512 0 0 0-.078-.018l-2.257-.43zM49.75 51.659l-2.303.191c-.014 0-.059.005-.109.009-.131.184-.556.766-1.251 1.532 1.308-.315 2.185-.394 2.185-.394s-.145.757-.534 1.896c.921-.619 1.548-.938 1.548-.938l.009.051a.584.584 0 0 0 .014-.075l.441-2.272zM65.809 31.282c5.085-2.917 10.265-3.355 10.265-3.355S74.989 33.59 71.1 38.549a25.036 25.036 0 0 1 5.339-.496c6.021-6.716 7.684-15.032 7.757-15.422l.439-2.262-2.299.184c-.385.033-8.368.743-15.54 5.601-.149 1.6-.45 3.348-.987 5.128zM47.809 26.438c1.535-5.664 4.892-9.645 4.892-9.645s3.237 4.776 3.992 11.034a25.03 25.03 0 0 1 3.42-4.121c-.039-.715-.1-1.433-.194-2.156-1.042-7.989-5.053-13.986-5.222-14.241l-1.292-1.904-1.495 1.757c-.25.292-5.394 6.441-7.023 14.954a26.244 26.244 0 0 1 2.922 4.322zM70.248 65.437c2.922 5.088 3.36 10.271 3.36 10.271s-5.665-1.086-10.628-4.979a24.99 24.99 0 0 1 .498 5.339C70.196 82.091 78.51 83.75 78.9 83.82l2.255.432-.181-2.292s-.02-.251-.078-.705c-.274-2.134-1.448-8.788-5.532-14.831a26.179 26.179 0 0 1-5.116-.987zM31.657 35.73c-2.92-5.089-3.361-10.273-3.361-10.273s5.664 1.083 10.623 4.972a25.076 25.076 0 0 1-.497-5.334c-6.715-6.021-15.032-7.683-15.418-7.76l-2.259-.428.181 2.292s.022.251.082.708c.275 2.137 1.446 8.792 5.531 14.832 1.596.15 3.342.454 5.118.991zM26.807 53.721c-5.666-1.53-9.646-4.882-9.646-4.882s4.778-3.245 11.036-3.998a25.108 25.108 0 0 1-4.113-3.413c-9.01.487-16.08 5.188-16.403 5.415l-1.9 1.288 1.749 1.491c.292.25 6.437 5.396 14.948 7.029a26.233 26.233 0 0 1 4.329-2.93zM54.091 74.729c-1.533 5.661-4.882 9.642-4.882 9.642s-3.242-4.772-3.997-11.029a25.07 25.07 0 0 1-3.418 4.116c.04.719.1 1.443.196 2.171v.007c1.041 7.979 5.049 13.968 5.219 14.219l1.292 1.904 1.49-1.756c.247-.293 5.394-6.438 7.029-14.949a26.15 26.15 0 0 1-2.929-4.325zM36.098 69.876c-5.088 2.921-10.271 3.359-10.271 3.359s1.084-5.665 4.977-10.624c-1.86.384-3.673.516-5.338.497-6.023 6.713-7.683 15.036-7.75 15.423l-.439 2.263 2.295-.188c.379-.028 8.361-.735 15.538-5.599.147-1.6.45-3.349.988-5.131z"/><path fill="#80B851" d="M55.812 47.771c1.071-1.181 2.77-2.79 4.983-4.02 2.03-1.72 4.656-3.469 7.786-4.532a21.14 21.14 0 0 1 2.518-.67c3.89-4.958 4.974-10.622 4.974-10.622s-5.18.439-10.265 3.355a21.331 21.331 0 0 1-1.286 3.31c-1.457 2.952-3.527 5.313-5.498 7.1-1.594 2.16-3.532 3.685-4.857 4.577-.39 1.14-.534 1.896-.534 1.896s.875-.078 2.179-.394zM52.402 45.153c-.08-1.592-.018-3.931.678-6.37.225-2.65.848-5.743 2.306-8.702a21.08 21.08 0 0 1 1.307-2.255c-.755-6.257-3.993-11.033-3.993-11.033s-3.357 3.981-4.892 9.645a21.43 21.43 0 0 1 1.428 3.246c1.06 3.122 1.27 6.266 1.146 8.931.389 2.646.096 5.087-.209 6.649.53 1.08.961 1.716.961 1.716s.566-.677 1.268-1.827zM53.762 55.444c1.18 1.068 2.79 2.767 4.022 4.982 1.717 2.033 3.469 4.657 4.524 7.783.285.842.5 1.685.672 2.52 4.963 3.893 10.628 4.979 10.628 4.979s-.438-5.184-3.36-10.271a21.372 21.372 0 0 1-3.308-1.286c-2.949-1.457-5.315-3.524-7.098-5.49-2.158-1.599-3.684-3.538-4.576-4.864-1.142-.39-1.899-.535-1.899-.535s.077.876.395 2.182zM62.925 50.006c-2.646.395-5.089.103-6.652-.202-1.082.53-1.721.962-1.721.962s.676.565 1.824 1.267c1.591-.078 3.932-.014 6.371.686 2.646.218 5.747.838 8.703 2.296.797.395 1.544.838 2.257 1.308 6.256-.752 11.03-3.991 11.03-3.991s-3.979-3.354-9.641-4.887a21.553 21.553 0 0 1-3.241 1.426c-3.126 1.057-6.273 1.268-8.93 1.135zM48.141 45.715c-1.182-1.069-2.791-2.767-4.021-4.979-1.715-2.033-3.472-4.661-4.528-7.783-.286-.843-.5-1.687-.673-2.523-4.958-3.889-10.623-4.972-10.623-4.972s.441 5.184 3.361 10.273c1.099.333 2.208.747 3.299 1.286 2.956 1.454 5.322 3.521 7.104 5.487 2.154 1.599 3.677 3.537 4.57 4.862 1.146.391 1.905.537 1.905.537s-.077-.879-.394-2.188zM45.521 49.131c-1.591.078-3.929.014-6.366-.683-2.649-.221-5.746-.841-8.702-2.299a21.036 21.036 0 0 1-2.256-1.309c-6.258.753-11.036 3.998-11.036 3.998s3.98 3.352 9.646 4.882a21.467 21.467 0 0 1 3.241-1.427c3.122-1.059 6.277-1.273 8.93-1.141 2.646-.392 5.087-.099 6.651.206 1.082-.53 1.718-.963 1.718-.963s-.676-.563-1.826-1.264zM49.499 56.006c.08 1.592.016 3.933-.678 6.369-.226 2.654-.846 5.742-2.3 8.706-.394.799-.84 1.546-1.31 2.26.755 6.257 3.997 11.029 3.997 11.029s3.349-3.98 4.882-9.642a21.565 21.565 0 0 1-1.429-3.245c-1.06-3.122-1.266-6.274-1.137-8.931-.392-2.645-.1-5.083.206-6.646a15.81 15.81 0 0 0-.966-1.727s-.564.676-1.265 1.827zM46.086 53.392c-1.07 1.182-2.769 2.79-4.982 4.021-2.034 1.72-4.653 3.473-7.783 4.528-.841.285-1.684.498-2.519.671-3.892 4.959-4.977 10.624-4.977 10.624s5.183-.438 10.271-3.359a21.488 21.488 0 0 1 1.287-3.305c1.45-2.951 3.528-5.31 5.491-7.1 1.594-2.157 3.536-3.684 4.862-4.577.389-1.14.534-1.896.534-1.896s-.876.077-2.184.393z"/></svg>