<svg xmlns="http://www.w3.org/2000/svg" width="100" height="100" viewBox="0 0 100 100"><linearGradient id="a" gradientUnits="userSpaceOnUse" x1="50.301" y1="91.916" x2="50.313" y2="91.916"><stop offset="0" stop-color="#f8d53f"/><stop offset=".274" stop-color="#f8d23d"/><stop offset=".504" stop-color="#f8c739"/><stop offset=".718" stop-color="#f7b631"/><stop offset=".921" stop-color="#f69e25"/><stop offset="1" stop-color="#f69220"/></linearGradient><path fill="url(#a)" d="M50.313 91.906l-.012.019v-.019z"/><linearGradient id="b" gradientUnits="userSpaceOnUse" x1="50.683" y1="91.89" x2="50.719" y2="91.89"><stop offset="0" stop-color="#f8d53f"/><stop offset=".274" stop-color="#f8d23d"/><stop offset=".504" stop-color="#f8c739"/><stop offset=".718" stop-color="#f7b631"/><stop offset=".921" stop-color="#f69e25"/><stop offset="1" stop-color="#f69220"/></linearGradient><path fill="url(#b)" d="M50.683 91.873h.023l.013.033h-.036z"/><linearGradient id="c" gradientUnits="userSpaceOnUse" x1="50.719" y1="91.89" x2="50.75" y2="91.89"><stop offset="0" stop-color="#f8d53f"/><stop offset=".274" stop-color="#f8d23d"/><stop offset=".504" stop-color="#f8c739"/><stop offset=".718" stop-color="#f7b631"/><stop offset=".921" stop-color="#f69e25"/><stop offset="1" stop-color="#f69220"/></linearGradient><path fill="url(#c)" d="M50.737 91.873l.013.033h-.031l.005-.033z"/><linearGradient id="d" gradientUnits="userSpaceOnUse" x1="50.737" y1="71.223" x2="92.083" y2="71.223"><stop offset="0" stop-color="#c3ca32"/><stop offset=".388" stop-color="#c0c833"/><stop offset=".712" stop-color="#b5c036"/><stop offset="1" stop-color="#a5b43a"/></linearGradient><path fill="url(#d)" d="M92.07 50.54h.013L50.75 91.906l-.013-.033z"/><path fill="#FFF" d="M9.292 50.54h.032-.018z"/><linearGradient id="e" gradientUnits="userSpaceOnUse" x1="9.324" y1="50.533" x2="9.352" y2="50.533"><stop offset="0" stop-color="#f8d53f"/><stop offset=".274" stop-color="#f8d23d"/><stop offset=".504" stop-color="#f8c739"/><stop offset=".718" stop-color="#f7b631"/><stop offset=".921" stop-color="#f69e25"/><stop offset="1" stop-color="#f69220"/></linearGradient><path fill="url(#e)" d="M9.353 50.54h-.029l.019-.013z"/><path fill="#515254" d="M50.719 50.54H92.07L50.737 91.873h-.013l-.005-.01z"/><linearGradient id="f" gradientUnits="userSpaceOnUse" x1="92.07" y1="50.54" x2="92.097" y2="50.54"><stop offset="0" stop-color="#c3ca32"/><stop offset=".388" stop-color="#c0c833"/><stop offset=".712" stop-color="#b5c036"/><stop offset="1" stop-color="#a5b43a"/></linearGradient><path fill="url(#f)" d="M92.07 50.54h.027-.014z"/><linearGradient id="g" gradientUnits="userSpaceOnUse" x1="92.097" y1="50.54" x2="92.126" y2="50.54"><stop offset="0" stop-color="#32a7df"/><stop offset="1" stop-color="#2276b8"/></linearGradient><path fill="url(#g)" d="M92.112 50.54h-.015.029z"/><linearGradient id="h" gradientUnits="userSpaceOnUse" x1="92.097" y1="50.533" x2="92.126" y2="50.533"><stop offset="0" stop-color="#ec2227"/><stop offset="1" stop-color="#be202e"/></linearGradient><path fill="url(#h)" d="M92.097 50.54l.015-.013.014.013z"/><path fill="#FFF" d="M92.097 50.54h-.027v-.013zM50.719 9.363H50.887L92.07 50.54H50.719z"/><linearGradient id="i" gradientUnits="userSpaceOnUse" x1="9.293" y1="50.533" x2="9.324" y2="50.533"><stop offset="0" stop-color="#f8d53f"/><stop offset=".274" stop-color="#f8d23d"/><stop offset=".504" stop-color="#f8c739"/><stop offset=".718" stop-color="#f7b631"/><stop offset=".921" stop-color="#f69e25"/><stop offset="1" stop-color="#f69220"/></linearGradient><path fill="url(#i)" d="M9.324 50.54h-.032l.014-.013z"/><path fill="#FFF" d="M9.353 50.54l-.01-.013L50.502 9.363h.015z"/><path fill="#85878A" d="M50.543 9.363h.176V50.54H9.353L50.517 9.363z"/><path fill="#FFF" d="M50.926 9.363L92.07 50.527v.013L50.887 9.363z"/><linearGradient id="j" gradientUnits="userSpaceOnUse" x1="50.926" y1="29.945" x2="92.097" y2="29.945"><stop offset="0" stop-color="#ec2227"/><stop offset="1" stop-color="#be202e"/></linearGradient><path fill="url(#j)" d="M91.669 9.363h.428v41.149l-.027.015L50.926 9.363z"/><linearGradient id="k" gradientUnits="userSpaceOnUse" x1="167.234" y1="-85.046" x2="208.402" y2="-85.046" gradientTransform="rotate(90 115.527 0)"><stop offset="0" stop-color="#ec2227"/><stop offset="1" stop-color="#be202e"/></linearGradient><path fill="url(#k)" d="M9.902 92.451v.424h41.144l.014-.017L9.902 51.707z"/><path fill="#FFF" d="M50.094 9.2h.024l.176.153-.044.01z"/><linearGradient id="l" gradientUnits="userSpaceOnUse" x1="91.669" y1="9.281" x2="92.097" y2="9.281"><stop offset="0" stop-color="#f8d53f"/><stop offset=".274" stop-color="#f8d23d"/><stop offset=".504" stop-color="#f8c739"/><stop offset=".718" stop-color="#f7b631"/><stop offset=".921" stop-color="#f69e25"/><stop offset="1" stop-color="#f69220"/></linearGradient><path fill="url(#l)" d="M91.669 9.2h.428v.163h-.428z"/><path fill="#FFF" d="M50.719 9.363v-.134l.018-.029.134.163zM50.301 9.353l.012.01h-.012zM50.294 9.363h-.044l.044-.01zM50.301 9.363h-.007v-.01l.007-.019v.019z"/><path fill="#FFF" d="M50.118 9.2h.183v.134l-.007.019zM50.469 9.2l-.168.153V9.2z"/><path fill="#FFF" d="M50.301 9.353l.168-.153h.033l-.189.163z"/><linearGradient id="m" gradientUnits="userSpaceOnUse" x1="50.543" y1="9.281" x2="50.719" y2="9.281"><stop offset="0" stop-color="#32a7df"/><stop offset="1" stop-color="#2276b8"/></linearGradient><path fill="url(#m)" d="M50.706 9.2l.013.029v.134h-.176l.14-.163z"/><path fill="#FFF" d="M50.683 9.2l-.14.163h-.026l.161-.163h.005zM50.871 9.363l-.134-.163h.013l.176.163h-.039z"/><path fill="#FFF" d="M50.313 9.363l.189-.163h.176l-.161.163h-.015z"/><linearGradient id="n" gradientUnits="userSpaceOnUse" x1="50.724" y1="9.2" x2="50.737" y2="9.2"><stop offset="0" stop-color="#32a7df"/><stop offset="1" stop-color="#2276b8"/></linearGradient><path fill="url(#n)" d="M50.724 9.2h.013z"/><linearGradient id="o" gradientUnits="userSpaceOnUse" x1="50.706" y1="9.215" x2="50.737" y2="9.215"><stop offset="0" stop-color="#32a7df"/><stop offset="1" stop-color="#2276b8"/></linearGradient><path fill="url(#o)" d="M50.719 9.229l-.013-.029h.031z"/><linearGradient id="p" gradientUnits="userSpaceOnUse" x1="50.683" y1="9.2" x2="50.706" y2="9.2"><stop offset="0" stop-color="#32a7df"/><stop offset="1" stop-color="#2276b8"/></linearGradient></svg>