<svg xmlns="http://www.w3.org/2000/svg" width="100" height="100" viewBox="0 0 100 100"><path fill="none" d="M26.371 62.774a44.929 44.929 0 0 0 2.679 4.723c2.89 4.425 6.391 8.052 10.236 10.823 3.728 2.687 7.729 4.496 11.755 5.475 3.861.925 7.73 1.042 11.396.376a25.142 25.142 0 0 0 9.782-4.002c.423-.29.822-.587 1.229-.893.407-.321.799-.643 1.19-.987.392-.328.768-.681 1.128-1.041.384-.36.736-.736 1.08-1.12 2.694-2.952 4.691-6.398 6-10.087 1.276-3.557 1.957-7.362 2.067-11.216a41.563 41.563 0 0 0-1.284-11.45c-.956-3.767-2.468-7.519-4.512-11.105l-.102-.156-.102.07c-2.318 1.629-4.214 3.955-5.639 6.813-1.48 2.969-2.444 6.501-2.82 10.347-.392 3.954-.18 8.207.682 12.499.854 4.339 2.373 8.646 4.543 12.609-2.781-4.308-5.945-8.075-9.438-11.317a55.888 55.888 0 0 0-11.865-8.411c-4.465-2.357-9.344-4.159-14.544-5.333-5.498-1.238-11.427-1.794-17.7-1.566.157 1.66.407 3.336.768 5.012a47.647 47.647 0 0 0 1.426 5.021 42.365 42.365 0 0 0 2.045 4.916z"/><path fill="none" d="M62.28 48.004c.234-.109.47-.234.689-.36.234-.125.445-.259.673-.399.22-.141.431-.281.643-.446 1.637-1.198 2.897-2.757 3.79-4.519.861-1.739 1.387-3.682 1.559-5.733.173-2.005 0-4.143-.509-6.281a23.213 23.213 0 0 0-2.569-6.336 24.127 24.127 0 0 0-3.728-4.863 22.068 22.068 0 0 0-4.597-3.587c-1.661-.987-3.415-1.708-5.193-2.115-1.816-.446-3.649-.572-5.451-.336-.258.039-.517.078-.775.133a7.792 7.792 0 0 0-.774.165c-.267.071-.518.141-.775.227-.259.078-.517.18-.768.282a11.96 11.96 0 0 0-5.028 3.72c-1.347 1.684-2.264 3.728-2.749 6.007-.478 2.318-.485 4.856.031 7.448.509 2.624 1.543 5.271 3.109 7.793a24.12 24.12 0 0 0 4.793 5.607c1.794 1.535 3.72 2.71 5.702 3.524 1.941.791 3.916 1.222 5.842 1.284.165.016.321.016.463.016 1.715 0 3.383-.306 4.918-.924.234-.096.469-.198.704-.307zm-1.644-5.067a9.236 9.236 0 0 1-.502.235c-.164.07-.345.141-.532.203a9.421 9.421 0 0 1-3.869.518c-1.37-.078-2.78-.432-4.15-1.019a15.392 15.392 0 0 1-3.979-2.562 17.336 17.336 0 0 1-3.336-3.979c-1.096-1.762-1.824-3.609-2.177-5.45-.376-1.817-.399-3.595-.095-5.24.306-1.613.925-3.085 1.841-4.307a8.792 8.792 0 0 1 3.478-2.78c.188-.079.36-.157.556-.22.173-.062.36-.125.541-.18.18-.055.384-.102.556-.149.195-.039.376-.086.557-.102a9.174 9.174 0 0 1 1.605-.133c.768 0 1.551.086 2.317.25 1.301.274 2.593.768 3.822 1.465a16.156 16.156 0 0 1 3.415 2.6 17.593 17.593 0 0 1 2.771 3.563c.886 1.527 1.535 3.125 1.896 4.699.375 1.582.477 3.157.328 4.644-.141 1.496-.548 2.913-1.222 4.167a8.826 8.826 0 0 1-2.851 3.188c-.141.117-.313.211-.47.312-.172.089-.328.183-.5.277z"/><path fill="#686EA2" d="M64.457 39.162c.674-1.254 1.081-2.671 1.222-4.167a14.119 14.119 0 0 0-.328-4.644c-.361-1.574-1.011-3.172-1.896-4.699a17.628 17.628 0 0 0-2.771-3.563 16.156 16.156 0 0 0-3.415-2.6 13.378 13.378 0 0 0-3.822-1.465c-.767-.164-1.55-.25-2.317-.25-.533 0-1.081.039-1.605.133-.181.016-.361.062-.557.102-.172.047-.376.094-.556.149-.181.055-.368.117-.541.18-.195.062-.368.141-.556.22a8.8 8.8 0 0 0-3.478 2.78c-.916 1.222-1.535 2.694-1.841 4.307-.305 1.645-.281 3.422.095 5.24.353 1.841 1.081 3.688 2.177 5.45a17.311 17.311 0 0 0 3.336 3.979 15.435 15.435 0 0 0 3.979 2.562c1.37.587 2.78.94 4.15 1.019a9.388 9.388 0 0 0 3.869-.518 6.74 6.74 0 0 0 .532-.203c.181-.078.345-.156.502-.235.172-.094.328-.188.501-.274.156-.102.329-.195.47-.312a8.858 8.858 0 0 0 2.85-3.191zM45.966 20.076a8.72 8.72 0 0 1 1.605-.971c.165-.055.329-.133.494-.188.18-.07.353-.125.524-.18.165-.039.337-.086.517-.125.173-.039.36-.078.518-.11a9.852 9.852 0 0 1 1.52-.125c.712 0 1.448.086 2.192.251 1.222.25 2.443.729 3.626 1.394a15.263 15.263 0 0 1 3.281 2.491 16.163 16.163 0 0 1 2.671 3.454 15.59 15.59 0 0 1 1.833 4.527c.36 1.512.462 3 .321 4.44a11.327 11.327 0 0 1-.478 2.287 72.344 72.344 0 0 0-18.624-17.145z"/><path fill="#364D9C" d="M49.601 90.609c4.597.947 9.155.916 13.432-.023a29.833 29.833 0 0 0 11.277-5.123c.47-.352.939-.72 1.395-1.104.47-.368.924-.768 1.347-1.183a21.49 21.49 0 0 0 1.276-1.269c.415-.424.822-.878 1.214-1.34 3.023-3.501 5.2-7.542 6.642-11.818 1.371-4.08 2.067-8.442 2.162-12.828a48.374 48.374 0 0 0-1.566-12.954 50.76 50.76 0 0 0-5.083-12.507 49.356 49.356 0 0 0-7.057-9.508 44.439 44.439 0 0 0-8.851-7.213c-3.273-2.021-6.781-3.571-10.4-4.542a33.721 33.721 0 0 0-8.662-1.151c-.986 0-1.988.047-2.983.141-.587.055-1.175.118-1.771.219-.587.086-1.182.204-1.77.329-.604.125-1.198.274-1.793.438a29.16 29.16 0 0 0-1.794.572c-4.855 1.692-9.093 4.542-12.539 8.341-3.634 4.018-6.328 9.045-7.895 14.748-1.613 5.929-1.958 12.483-.869 19.141a50.655 50.655 0 0 0 7.762 19.713c3.493 5.31 7.753 9.594 12.405 12.789 4.495 3.109 9.304 5.145 14.121 6.132zM36.827 10.325a26.738 26.738 0 0 1 1.754-.564 47.881 47.881 0 0 1 1.738-.431 38.424 38.424 0 0 1 1.755-.321 21.037 21.037 0 0 1 1.723-.211 28.073 28.073 0 0 1 2.913-.141c2.836 0 5.687.384 8.521 1.135 3.524.932 6.971 2.444 10.244 4.464a43.573 43.573 0 0 1 8.709 7.111 47.786 47.786 0 0 1 6.97 9.39 49.81 49.81 0 0 1 5.036 12.375 47.043 47.043 0 0 1 1.535 12.773c-.086 4.433-.791 8.693-2.123 12.648-1.456 4.347-3.617 8.191-6.414 11.489a97.628 97.628 0 0 0-.266-5.475c1.887-2.467 3.391-5.255 4.487-8.325 1.292-3.556 2.005-7.393 2.114-11.411a42.038 42.038 0 0 0-1.308-11.614 44.341 44.341 0 0 0-4.581-11.254l-.093-.163-.438-.493-.548.368c-2.365 1.676-4.323 4.041-5.827 7.048-1.089 2.193-1.88 4.645-2.396 7.315a65.827 65.827 0 0 0-1.888-3.203c.062-.086.118-.196.173-.29.9-1.777 1.448-3.782 1.621-5.937.188-2.106 0-4.292-.518-6.477a24.39 24.39 0 0 0-2.639-6.524 25.246 25.246 0 0 0-3.807-4.981c-1.441-1.441-3.031-2.694-4.738-3.681a19.398 19.398 0 0 0-5.364-2.193 16.003 16.003 0 0 0-3.768-.454c-.642 0-1.269.039-1.888.117a13.68 13.68 0 0 0-.822.141c-.281.04-.556.11-.814.172-.266.078-.54.148-.814.243-.273.086-.532.188-.799.282a12.764 12.764 0 0 0-4.645 3.219 73.673 73.673 0 0 0-8.285-3.532c1.738-1.033 3.562-1.941 5.49-2.615zm19.83 38.908c-.142 0-.298 0-.463-.016-1.926-.062-3.9-.493-5.842-1.284-1.982-.814-3.908-1.989-5.702-3.524a24.165 24.165 0 0 1-4.793-5.607c-1.566-2.522-2.601-5.169-3.109-7.793-.517-2.592-.509-5.13-.031-7.448.485-2.279 1.402-4.323 2.749-6.007a11.972 11.972 0 0 1 5.028-3.72c.251-.102.509-.204.768-.282.258-.086.509-.156.775-.227.25-.063.509-.125.774-.165.259-.055.518-.094.775-.133 1.802-.235 3.635-.11 5.451.336 1.778.407 3.532 1.128 5.193 2.115a22.094 22.094 0 0 1 4.597 3.587 24.228 24.228 0 0 1 3.728 4.863 23.181 23.181 0 0 1 2.569 6.336c.509 2.139.682 4.276.509 6.281-.172 2.052-.697 3.994-1.559 5.733-.893 1.762-2.153 3.32-3.79 4.519a8.136 8.136 0 0 1-.643.446c-.228.141-.438.274-.673.399-.22.126-.455.251-.689.36-.235.109-.471.211-.705.306-1.534.62-3.202.925-4.917.925zm-33.756 3.603a43.483 43.483 0 0 1-.768-5.012c6.273-.228 12.202.328 17.7 1.566 5.2 1.174 10.079 2.976 14.544 5.333a55.888 55.888 0 0 1 11.865 8.411c3.492 3.242 6.656 7.01 9.438 11.317-2.17-3.963-3.689-8.271-4.543-12.609-.861-4.292-1.073-8.545-.682-12.499.376-3.846 1.34-7.378 2.82-10.347 1.425-2.858 3.32-5.185 5.639-6.813l.102-.07.102.156c2.044 3.587 3.556 7.339 4.512 11.105a41.53 41.53 0 0 1 1.284 11.45c-.11 3.854-.791 7.659-2.067 11.216-1.309 3.688-3.306 7.135-6 10.087-.344.384-.696.76-1.08 1.12-.36.36-.736.713-1.128 1.041-.392.345-.783.666-1.19.987-.407.306-.807.603-1.229.893a25.142 25.142 0 0 1-9.782 4.002c-3.665.666-7.534.549-11.396-.376-4.025-.979-8.027-2.788-11.755-5.475-3.846-2.771-7.347-6.398-10.236-10.823a44.828 44.828 0 0 1-2.679-4.723 42.14 42.14 0 0 1-2.044-4.918 47.315 47.315 0 0 1-1.427-5.019z"/><linearGradient id="a" gradientUnits="userSpaceOnUse" x1="-480.372" y1="537.885" x2="-473.039" y2="537.885" gradientTransform="scale(-11.3906 11.3906) rotate(-45 -886.451 -298.117)"><stop offset="0" stop-color="#616078"/><stop offset=".772" stop-color="#17182a"/><stop offset="1" stop-color="#17182a"/></linearGradient><path fill="url(#a)" d="M44.267 13.254c.267-.094.525-.195.799-.282.274-.094.549-.165.814-.243.259-.062.533-.133.814-.172.274-.055.541-.102.822-.141a15.06 15.06 0 0 1 1.888-.117c1.237 0 2.507.148 3.768.454a19.355 19.355 0 0 1 5.364 2.193c1.707.987 3.297 2.24 4.738 3.681a25.284 25.284 0 0 1 3.807 4.981 24.377 24.377 0 0 1 2.639 6.524c.518 2.185.705 4.37.518 6.477-.173 2.154-.721 4.159-1.621 5.937-.055.094-.11.204-.173.29a66.646 66.646 0 0 1 1.888 3.203c.517-2.671 1.308-5.122 2.396-7.315 1.504-3.007 3.462-5.372 5.827-7.048l.548-.368.438.493.095.165a44.341 44.341 0 0 1 4.581 11.254 42.08 42.08 0 0 1 1.308 11.614c-.109 4.019-.822 7.855-2.114 11.411-1.097 3.07-2.601 5.858-4.487 8.325a98.54 98.54 0 0 1 .266 5.475c2.797-3.298 4.958-7.143 6.414-11.489 1.332-3.955 2.037-8.216 2.123-12.648a47.034 47.034 0 0 0-1.535-12.773 49.81 49.81 0 0 0-5.036-12.375 47.786 47.786 0 0 0-6.97-9.39 43.573 43.573 0 0 0-8.709-7.111c-3.273-2.021-6.72-3.532-10.244-4.464-2.835-.751-5.686-1.135-8.521-1.135-.955 0-1.941.039-2.913.141-.571.047-1.151.117-1.723.211-.58.094-1.159.196-1.755.321-.579.133-1.159.274-1.738.431-.596.172-1.175.353-1.754.564-1.928.673-3.752 1.582-5.49 2.616a73.673 73.673 0 0 1 8.285 3.532 12.711 12.711 0 0 1 4.643-3.222z"/><path fill="#2D3F7F" d="M44.267 13.254c.267-.094.525-.195.799-.282.274-.094.549-.165.814-.243.259-.062.533-.133.814-.172.274-.055.541-.102.822-.141a15.06 15.06 0 0 1 1.888-.117c1.237 0 2.507.148 3.768.454a19.355 19.355 0 0 1 5.364 2.193c1.707.987 3.297 2.24 4.738 3.681a25.284 25.284 0 0 1 3.807 4.981 24.377 24.377 0 0 1 2.639 6.524c.518 2.185.705 4.37.518 6.477-.173 2.154-.721 4.159-1.621 5.937-.055.094-.11.204-.173.29a66.646 66.646 0 0 1 1.888 3.203c.517-2.671 1.308-5.122 2.396-7.315 1.504-3.007 3.462-5.372 5.827-7.048l.548-.368.438.493.095.165a44.341 44.341 0 0 1 4.581 11.254 42.08 42.08 0 0 1 1.308 11.614c-.109 4.019-.822 7.855-2.114 11.411-1.097 3.07-2.601 5.858-4.487 8.325a98.54 98.54 0 0 1 .266 5.475c2.797-3.298 4.958-7.143 6.414-11.489 1.332-3.955 2.037-8.216 2.123-12.648a47.034 47.034 0 0 0-1.535-12.773 49.81 49.81 0 0 0-5.036-12.375 47.786 47.786 0 0 0-6.97-9.39 43.573 43.573 0 0 0-8.709-7.111c-3.273-2.021-6.72-3.532-10.244-4.464-2.835-.751-5.686-1.135-8.521-1.135-.955 0-1.941.039-2.913.141-.571.047-1.151.117-1.723.211-.58.094-1.159.196-1.755.321-.579.133-1.159.274-1.738.431-.596.172-1.175.353-1.754.564-1.928.673-3.752 1.582-5.49 2.616a73.673 73.673 0 0 1 8.285 3.532 12.711 12.711 0 0 1 4.643-3.222z"/><linearGradient id="b" gradientUnits="userSpaceOnUse" x1="-532.162" y1="585.483" x2="-524.828" y2="585.483" gradientTransform="scale(-3.74) rotate(45 443.228 908.384)"><stop offset="0" stop-color="#84b54f"/><stop offset="1" stop-color="#36502d"/></linearGradient><path fill="url(#b)" d="M65.068 34.933c.141-1.44.039-2.929-.321-4.44a15.59 15.59 0 0 0-1.833-4.527 16.163 16.163 0 0 0-2.671-3.454 15.295 15.295 0 0 0-3.281-2.491c-1.183-.666-2.404-1.144-3.626-1.394a10.15 10.15 0 0 0-2.192-.251c-.502 0-1.019.047-1.52.125-.157.032-.345.071-.518.11-.18.039-.352.086-.517.125-.172.055-.345.11-.524.18-.165.055-.329.133-.494.188a8.687 8.687 0 0 0-1.605.971 72.363 72.363 0 0 1 18.625 17.144 11.4 11.4 0 0 0 .477-2.286z"/><path fill="#525780" d="M65.068 34.933c.141-1.44.039-2.929-.321-4.44a15.59 15.59 0 0 0-1.833-4.527 16.163 16.163 0 0 0-2.671-3.454 15.295 15.295 0 0 0-3.281-2.491c-1.183-.666-2.404-1.144-3.626-1.394a10.15 10.15 0 0 0-2.192-.251c-.502 0-1.019.047-1.52.125-.157.032-.345.071-.518.11-.18.039-.352.086-.517.125-.172.055-.345.11-.524.18-.165.055-.329.133-.494.188a8.687 8.687 0 0 0-1.605.971 72.363 72.363 0 0 1 18.625 17.144 11.4 11.4 0 0 0 .477-2.286z"/></svg>