<svg xmlns="http://www.w3.org/2000/svg" width="100" height="100" viewBox="0 0 100 100"><g fill="#00A3AE"><path d="M58.531 32.245l-.736.752-.723-.763-.006-.003c-3.797 3.653-5.899 5.711-5.985 8.483.089 2.796 2.226 4.917 5.799 8.79v43.495h1.942V49.363c3.363-3.797 5.303-6.009 5.374-8.719-.073-2.785-2.12-4.856-5.665-8.399zM38.903 32.997l-.727-.766c-3.793 3.656-5.901 5.716-5.987 8.483.086 2.699 2.094 4.776 5.444 8.4v43.885h1.941V49.762l.109-.121c3.528-3.98 5.549-6.219 5.625-8.997-.075-2.787-2.124-4.859-5.667-8.397l-.738.75z"/><path d="M59.854 13.933c-3.159.171-5.521 4.767-7.266 5.552-.836-1.943-2.276-8.259-4.324-10.777v-.004l-.034-.037-.004-.006-.006.006-.032.037v.004c-2.049 2.518-3.489 8.833-4.325 10.777-1.747-.785-4.11-5.381-7.269-5.552-.629 9.757 2.302 12.741 10.662 15.981v63.084h1.942V29.915c8.357-3.241 11.286-6.225 10.656-15.982z"/></g></svg>