<svg xmlns="http://www.w3.org/2000/svg" width="100" height="100" viewBox="0 0 100 100"><path fill="#B62A32" d="M88.355 53.53h-6.707v-6.707h-8.401v6.707H66.54v8.408h6.707v6.696h8.401v-6.696h6.707z"/><path fill="#4D85C5" d="M16.469 28.483S37.43 65.879 40.945 84.324c0 0 10.497-47.793 50.438-66.577 0 0-25.784 5.166-52.444 29.076-.001 0-10.398-14.986-22.47-18.34"/><path fill="#CFD0D2" d="M23.031 29.625c5.653-4.711 13.757-8.241 23.045-9.521 9.545-1.314 18.525 0 25.32 3.187a114.685 114.685 0 0 1 6.229-2.722C68.49 16.44 55.81 15.603 42.762 19.09c-8.071 2.15-15.177 5.658-20.819 9.942.368.188.722.383 1.088.593"/><path fill="#B62A32" d="M83.39 23.972a79.863 79.863 0 0 0-5.276 3.731c2.993 2.748 4.934 6.09 5.454 9.848.321 2.346.066 4.679-.688 6.947h1.097v6.7h3.737c3.292-5.394 4.534-11.169 3.058-16.645-1.12-4.207-3.725-7.777-7.382-10.581M64.212 61.356c-3.669 1.452-7.727 2.533-12.026 3.126C33.173 67.1 16.38 59.289 14.695 47.03c-.577-4.229.709-8.431 3.436-12.228a94.499 94.499 0 0 0-.909-1.68C10.15 40.184 6.746 48.614 8.831 56.424c3.902 14.583 25.396 21.511 48.022 15.47 5.121-1.364 9.843-3.275 14.055-5.581v-2.046h-6.695v-2.911z"/><path fill="#4D85C5" d="M52.019 27.642a9.564 9.564 0 0 1-9.567 9.566c-5.276 0-9.555-4.285-9.555-9.566 0-5.271 4.278-9.556 9.555-9.556 5.288-.001 9.567 4.285 9.567 9.556"/></svg>