<svg xmlns="http://www.w3.org/2000/svg" width="600" height="600" viewBox="0 0 600 600"><radialGradient id="a" cx="310.5" cy="38.5" r="167" gradientUnits="userSpaceOnUse"><stop offset="0" stop-color="#fff"/><stop offset="1" stop-color="#bd242a"/></radialGradient><path fill="url(#a)" d="M119.034 280.125c11.714-47.622 42.19-90.601 83.896-116.534 35.595-22.691 79.295-31.894 121.068-26.066 44.056 5.97 85.274 29.145 114.11 62.925 27.784 32.161 44.322 73.747 46.592 116.183 2.678 40.227-8.411 80.635-28.928 115.145 48.219-60.075 53.893-149.429 15.961-216.142-20.543-36.85-53.184-66.859-91.731-84.03-46.892-21.164-102.187-22.729-150.347-4.693-41.406 15.432-77.205 45.37-99.917 83.288-40.814 66.413-37.188 157.99 11.322 219.475-25.86-44.707-35.072-99.25-22.026-149.551z"/><radialGradient id="b" cx="-251.785" cy="910.443" r="260.521" gradientTransform="translate(588 -693)" gradientUnits="userSpaceOnUse"><stop offset="0" stop-color="#00abeb"/><stop offset=".029" stop-color="#22aae7"/><stop offset=".06" stop-color="#3fa8e3"/><stop offset=".091" stop-color="#53a8e0"/><stop offset=".122" stop-color="#60a7df"/><stop offset=".151" stop-color="#64a7de"/><stop offset=".327" stop-color="#4674b7"/><stop offset=".521" stop-color="#333b8b"/><stop offset=".758" stop-color="#211c51"/><stop offset="1" stop-color="#171043"/></radialGradient><path fill="url(#b)" d="M495.59 455.607c-55.045-22.253-114.561-31.272-173.66-33.283-68.573-1.477-137.952 3.938-204.322 22.411-22.044 6.634-44.443 13.709-64.197 25.892 64.831-19.441 132.574-26.867 199.98-29.387 99.195-3.455 201.673 3.32 293.814 43.287-15.228-12.799-33.585-21.026-51.615-28.92z"/><g><radialGradient id="c" cx="-251.774" cy="910.463" r="260.505" gradientTransform="translate(588 -693)" gradientUnits="userSpaceOnUse"><stop offset="0" stop-color="#00abeb"/><stop offset=".029" stop-color="#22aae7"/><stop offset=".06" stop-color="#3fa8e3"/><stop offset=".091" stop-color="#53a8e0"/><stop offset=".122" stop-color="#60a7df"/><stop offset=".151" stop-color="#64a7de"/><stop offset=".327" stop-color="#4674b7"/><stop offset=".521" stop-color="#333b8b"/><stop offset=".758" stop-color="#211c51"/><stop offset="1" stop-color="#171043"/></radialGradient><path fill="url(#c)" d="M203.803 233.613c0-4.498.843-8.74 2.562-12.75 1.71-4.005 4.051-7.484 7.067-10.421 2.97-2.95 6.491-5.282 10.476-7.059 4.021-1.76 8.285-2.641 12.77-2.641h124.694c4.497 0 8.719.88 12.766 2.641 3.988 1.777 7.518 4.109 10.488 7.059 2.987 2.937 5.349 6.417 7.059 10.421 1.703 4.009 2.57 8.252 2.57 12.75v29.646l-32.883 28.189v-57.835H236.669v164.13h124.702v-54.46l32.883 28.211v26.249c0 4.497-.867 8.736-2.57 12.741-1.71 4.021-4.071 7.525-7.059 10.514-2.979 2.986-6.5 5.348-10.488 7.033-4.047 1.719-8.269 2.578-12.766 2.578H236.669c-4.485 0-8.74-.859-12.783-2.578-3.972-1.686-7.493-4.047-10.471-7.033-3.017-2.996-5.361-6.5-7.059-10.514-1.719-4.005-2.566-8.244-2.566-12.741l.013-164.13z"/></g><radialGradient id="d" cx="-264.5" cy="810.691" r="241.221" gradientTransform="matrix(1 0 0 1.0921 588 -714.857)" gradientUnits="userSpaceOnUse"><stop offset="0" stop-color="#00abeb"/><stop offset=".029" stop-color="#22aae7"/><stop offset=".06" stop-color="#3fa8e3"/><stop offset=".091" stop-color="#53a8e0"/><stop offset=".122" stop-color="#60a7df"/><stop offset=".151" stop-color="#64a7de"/><stop offset=".327" stop-color="#4674b7"/><stop offset=".521" stop-color="#333b8b"/><stop offset=".758" stop-color="#211c51"/><stop offset="1" stop-color="#171043"/></radialGradient><path fill="url(#d)" d="M250.436 246.658h96.033v137.426h-96.033z"/></svg>