<svg xmlns="http://www.w3.org/2000/svg" viewBox="0 0 150 150"><linearGradient id="a" gradientUnits="userSpaceOnUse" x1="12.401" y1="76.039" x2="97.825" y2="76.039"><stop offset="0" stop-color="#0097d4"/><stop offset="1" stop-color="#164272"/></linearGradient><path fill="url(#a)" d="M13.2 130.8l1.8-10.1V35.1s1.1-10.8 16.6-9.7l40.9.6s10-4.4 25.4-8.3c0 0-62.3 18-85.4 116.7"/><linearGradient id="b" gradientUnits="userSpaceOnUse" x1="112.453" y1="17.723" x2="88.233" y2="53.503"><stop offset="0" stop-color="#4c7b2a"/><stop offset="1" stop-color="#7fbd48"/></linearGradient><path fill="url(#b)" d="M144.1 9.4S63.7 22.6 43.4 88.7c0 0 23.1-56.1 100.7-79.3z"/><linearGradient id="c" gradientUnits="userSpaceOnUse" x1="68.017" y1="132.258" x2="79.017" y2="99.26"><stop offset="0" stop-color="#4c7b2a"/><stop offset="1" stop-color="#7fbd48"/></linearGradient><path fill="url(#c)" d="M125 28.1s0 9.4-6 29.7V129s.1 6-11.7 6h-74s-14.9 4.7-18.2 5.8c0 0 97.2-36.1 109.9-112.7z"/></svg>