<svg xmlns="http://www.w3.org/2000/svg" width="100" height="100" viewBox="0 0 100 100"><path fill="#81308D" d="M93.255 61.741l-6.56-15.157-.945 4.516c-1.397-1.033-2.66-2.308-3.756-3.769a22.096 22.096 0 0 1-2.704-4.841 21.654 21.654 0 0 1-1.426-5.372c-.234-1.815-.215-3.609.071-5.325l-10.034-7.151c-.973 3.308-1.318 6.913-1.044 10.598.262 3.733 1.155 7.509 2.568 11.102 1.422 3.598 3.355 6.969 5.715 9.899 2.33 2.895 5.051 5.321 8.028 7.08L81.979 69l11.276-7.259z"/><path fill="#81308D" d="M69.462 71.553c.949.083 1.882.262 2.823.536l4.316-12.997a24.546 24.546 0 0 0-5.202-1.759 23.658 23.658 0 0 0-5.059-.536h-.325a25.512 25.512 0 0 0-5.477.727 27.498 27.498 0 0 0-5.459 2.01 30.803 30.803 0 0 0-4.809 2.962 35.483 35.483 0 0 0-4.519 4.103 38.736 38.736 0 0 0-4.07 5.245 43.399 43.399 0 0 0-3.431 6.385l-6.111-2.136 8.779 20.981 17.885-11.65-5.957-2.081a22.249 22.249 0 0 1 1.656-3.145 20.599 20.599 0 0 1 4.174-4.881 17.853 17.853 0 0 1 2.386-1.703c.89-.527 1.812-.949 2.744-1.29a14.572 14.572 0 0 1 2.819-.688 13.767 13.767 0 0 1 2.837-.083z"/><path fill="#81308D" d="M43.12 68.035c1.573-4.682 2.24-9.352 2.109-13.854a38.492 38.492 0 0 0-2.601-12.794 40.013 40.013 0 0 0-6.727-11.301c-2.926-3.479-6.544-6.62-10.816-9.212l2.43-5.019-20.954 4.534 8.668 20.724 3.169-6.496a24.862 24.862 0 0 1 5.865 5.071 23.256 23.256 0 0 1 3.736 6.27 21.943 21.943 0 0 1 1.493 7.048 21.694 21.694 0 0 1-.985 7.493l14.613 7.536z"/><path fill="#2E2442" d="M55.719 8.786l4.424 2.752a9.923 9.923 0 0 1-1.326 1.874 10.73 10.73 0 0 1-1.66 1.545 12.37 12.37 0 0 1-1.973 1.191c-.715.329-1.47.596-2.264.794-.857.223-1.764.357-2.7.409-.945.056-1.934.02-2.927-.104a19.08 19.08 0 0 1-3.093-.655 21.827 21.827 0 0 1-3.205-1.23L34.32 26.937c2.224 1.14 4.455 2.041 6.663 2.688a33.924 33.924 0 0 0 6.346 1.283c2.029.19 3.986.19 5.856 0a25.019 25.019 0 0 0 5.237-1.12 21.123 21.123 0 0 0 4.138-1.878 19.388 19.388 0 0 0 3.479-2.605 18.346 18.346 0 0 0 2.771-3.248 19.419 19.419 0 0 0 2.037-3.855l4.443 2.775-6.455-14.955-13.116 2.764z"/></svg>