<svg xmlns="http://www.w3.org/2000/svg" width="100" height="100" viewBox="0 0 100 100"><path fill="#0B2120" d="M65.814 20.074L49.396 9.008l-4.319 9.647-7.562-4.76L47.789 40.31l21.065-6.709-6.338-3.976 3.298-9.551zM48.39 39.051c-.569-1.485-7.095-18.251-8.802-22.648l5.94 3.738.483-1.072s3.044-6.802 3.812-8.537c1.36.916 9.27 6.237 12.957 8.728a38.747 38.747 0 0 1-5.897 17.082c-3.956 1.266-7.73 2.467-8.493 2.709z"/><path fill="#2AAAA7" d="M61.44 90.568l3.883-14.088 6.923 3.166L61.947 53.45 37.631 63.835l8.439 3.867-5.262 14.688zM72.052 57.419l9.386 5.106 3.937-17.37-8.579-5.356 1.703-6.311-18.563 6.28 10.03 25.408zM39.062 27.656l-3.427 7.516-13.23-7.29-11.586 21.842 15.016 6.946-4.397 9.69 28.183-11.437-10.559-27.267zm-15.09 26.777c-.191 0-.37-.008-.558-.008-4.058-1.879-10.072-4.67-11.184-5.185.881-1.661 9.745-18.364 10.603-19.962 1.567.862 13.277 7.321 13.277 7.321s1.879-4.12 2.877-6.319c.924 2.381 4.339 11.211 6.771 17.502a38.794 38.794 0 0 1-21.786 6.651z"/><linearGradient id="a" gradientUnits="userSpaceOnUse" x1="-445.697" y1="565.477" x2="-440.259" y2="565.477" gradientTransform="scale(-6.6368 6.6368) rotate(-45 -903.382 -240.688)"><stop offset="0" stop-color="#79b652"/><stop offset="1" stop-color="#507942"/></linearGradient><path fill="url(#a)" d="M49.824 10.532c-.768 1.735-3.812 8.537-3.812 8.537l-.483 1.072-5.94-3.738c1.707 4.397 8.232 21.163 8.802 22.648.764-.242 4.537-1.442 8.494-2.709a38.747 38.747 0 0 0 5.897-17.082c-3.688-2.491-11.597-7.812-12.958-8.728z"/><path fill="#212F2E" d="M49.824 10.532c-.768 1.735-3.812 8.537-3.812 8.537l-.483 1.072-5.94-3.738c1.707 4.397 8.232 21.163 8.802 22.648.764-.242 4.537-1.442 8.494-2.709a38.747 38.747 0 0 0 5.897-17.082c-3.688-2.491-11.597-7.812-12.958-8.728z"/><linearGradient id="b" gradientUnits="userSpaceOnUse" x1="-450.242" y1="559.436" x2="-444.804" y2="559.436" gradientTransform="scale(-13.2266 13.2266) rotate(-45 -895.445 -254.344)"><stop offset="0" stop-color="#282f5d"/><stop offset="1" stop-color="#14151c"/></linearGradient><path fill="url(#b)" d="M45.758 47.782c-2.432-6.292-5.847-15.121-6.771-17.502-.998 2.199-2.877 6.319-2.877 6.319S24.4 30.14 22.833 29.278c-.857 1.598-9.722 18.302-10.603 19.962 1.111.515 7.126 3.306 11.184 5.185.188 0 .367.008.558.008a38.794 38.794 0 0 0 21.786-6.651z"/><path fill="#269A97" d="M45.758 47.782c-2.432-6.292-5.847-15.121-6.771-17.502-.998 2.199-2.877 6.319-2.877 6.319S24.4 30.14 22.833 29.278c-.857 1.598-9.722 18.302-10.603 19.962 1.111.515 7.126 3.306 11.184 5.185.188 0 .367.008.558.008a38.794 38.794 0 0 0 21.786-6.651z"/></svg>