<svg xmlns="http://www.w3.org/2000/svg" width="100" height="100" viewBox="0 0 100 100"><g fill-rule="evenodd" clip-rule="evenodd"><path fill="#F4DA66" d="M25.913 79.199c22.552 11.941 51.544 5.088 64.751-15.305 2.569-3.979 4.255-6.945 5.29-11.214-12.061 18.315-38.129 23.197-58.51 12.402-11.352-6.012-18.527-16.021-20.613-26.895a27.167 27.167 0 0 0-3.662 2.05C8.601 43.274 5.416 47.386 3.722 51.9c2.828 11.075 10.5 21.106 22.191 27.299z"/><path fill="#297573" d="M73.719 25.413c-22.573-11.91-51.557-5.014-64.725 15.393-2.571 3.988-4.342 8.188-5.374 12.462C15.648 34.932 41.812 28.78 62.208 39.545c11.366 5.997 20.203 19.034 22.316 31.871 7.096-7.784 9.812-11.608 11.43-18.735-2.852-11.07-10.535-21.088-22.235-27.268z"/><circle fill="#297573" cx="49.24" cy="51.658" r="10.698"/></g></svg>