<svg xmlns="http://www.w3.org/2000/svg" width="600" height="600" viewBox="0 0 600 600"><path fill="#48A856" d="M378.436 235.865L350.88 201.42l-4.921 6.889-3.936-5.904-23.62 23.62c-13.777 13.778-7.873 34.444-7.873 34.444 7.275 12.934 23.837 29.842 29.524 35.473v244.022H350.88V297.442l24.604-28.117c12.793-17.715 2.952-33.46 2.952-33.46zM274.436 235.865L246.88 201.42l-4.921 6.889-3.936-5.904-23.62 23.62c-13.777 13.778-7.873 34.444-7.873 34.444 7.275 12.934 23.837 29.842 29.524 35.473v244.022H246.88V297.442l24.604-28.117c12.793-17.715 2.952-33.46 2.952-33.46z"/><path fill="#2C7EA5" d="M358.603 100.656c-22.482 7.272-26.518 21.222-41.458 30.15-7.594-19.416-13.501-44.529-25.312-58.306-14.762 18.698-14.955 38.768-23.682 58.306-14.943-8.928-19.62-23.862-41.456-30.15-6.223 56.471 26.204 74.294 60.3 90.449l.9-.15V540.5h10.826V189.075c36.802-12.632 64.505-34.363 59.882-88.419z"/></svg>