<svg xmlns="http://www.w3.org/2000/svg" width="100" height="100" viewBox="0 0 100 100"><linearGradient id="a" gradientUnits="userSpaceOnUse" x1="-474.866" y1="566.4" x2="-464.926" y2="566.4" gradientTransform="matrix(0 -15.8062 -15.8062 0 9005.506 -7333.727)"><stop offset="0" stop-color="#3a6791"/><stop offset=".5" stop-color="#4478b6"/><stop offset="1" stop-color="#84bbd8"/></linearGradient><path fill="url(#a)" d="M66.229 26.058c3.109-3.357 7.246-4.675 11.038-5.75-5.675-5.121-12.876-8.646-21.035-9.726a38.702 38.702 0 0 0-5.133-.341c-8.304 0-16.146 2.665-22.607 7.247 3.398 5.288 11.055 9.824 18.088 13.968 0 0 9.154 5.346 14.032 9.704.151-4.966 1.161-10.242 5.617-15.102z"/><linearGradient id="b" gradientUnits="userSpaceOnUse" x1="-479.998" y1="573.717" x2="-470.068" y2="573.717" gradientTransform="matrix(0 -11.821 -11.821 0 6812.763 -5543.102)"><stop offset="0" stop-color="#3a6791"/><stop offset=".5" stop-color="#4478b6"/><stop offset="1" stop-color="#84bbd8"/></linearGradient><path fill="url(#b)" d="M45.269 87.905c2.248-2.641 3.542-4.473 4.097-6.259 1.052-3.282-.555-5.662-2.427-7.72-5.201-5.606-12.332-9.166-18.504-14.379-8.143-6.871-13.135-12.413-14.303-22.943a40.481 40.481 0 0 0-1.774 7.565C9.566 65.315 24.245 84.732 45.269 87.905z"/><linearGradient id="c" gradientUnits="userSpaceOnUse" x1="-479.974" y1="570.553" x2="-470.051" y2="570.553" gradientTransform="matrix(0 -11.8204 -11.8204 0 6816.98 -5542.558)"><stop offset="0" stop-color="#3a6791"/><stop offset=".5" stop-color="#4478b6"/><stop offset="1" stop-color="#84bbd8"/></linearGradient><path fill="url(#c)" d="M89.831 54.438a38.816 38.816 0 0 0-.948-15.025c-6.502 6.415-18.14 11.141-19.197 21.394-1.18 11.465-6.455 20.019-14.217 27.289 17.412-1.953 31.946-15.493 34.362-33.658z"/><linearGradient id="d" gradientUnits="userSpaceOnUse" x1="-486.99" y1="577.814" x2="-477.068" y2="577.814" gradientTransform="matrix(0 -8.6537 -8.6537 0 5077.864 -4119.111)"><stop offset="0" stop-color="#6d9d4d"/><stop offset="1" stop-color="#b2cd49"/></linearGradient><path fill="url(#d)" d="M75.754 33.56c2.773-3.901 3.178-6.698 4.362-9.564-4.092-.058-8.778 2.086-11.69 5.687-2.671 3.306-4.34 8.542-4.289 12.714.047 4.565 2.994 9.223 3.52 13.518 3.521-12.188 12.986-13.378 19.25-20.759 8.045-9.454 2.208-16.782 1.717-22.208.53 7.088-3.214 18.294-12.87 20.612z"/><linearGradient id="e" gradientUnits="userSpaceOnUse" x1="-487.019" y1="581.547" x2="-477.09" y2="581.547" gradientTransform="matrix(0 -8.6536 -8.6536 0 5073.976 -4119.234)"><stop offset="0" stop-color="#6d9d4d"/><stop offset="1" stop-color="#b2cd49"/></linearGradient><path fill="url(#e)" d="M65.224 66.379c2.652-11.01-3.294-18.505-10.795-24.648-9.634-7.883-34.351-16.366-31.924-31.791-2.236 4.779-4.178 8.536-5.057 14.153-.792 5.242-.069 12.153 2.595 16.829 3.04 5.392 8.426 6.421 15.407 7.455 6.565.959 11.217 1.104 15.13 6.051-2.613-1.282-6.149-.826-9.906-.364-4.456.543-9.206 1.092-13.002-1.307 4.449 5.936 11.147 8.93 16.886 13.339 4.738 3.664 10.505 8.576 8.778 15.332-.665 2.589-4.062 6.622-5.548 9.066 7.715-6.276 14.876-13.447 17.436-24.115z"/></svg>