<svg xmlns="http://www.w3.org/2000/svg" width="100" height="100" viewBox="0 0 100 100"><path fill="#173E49" d="M58.301 41.474a49.691 49.691 0 0 0-9.536-3.644 52.027 52.027 0 0 0-10.736-1.713l12.437 29.409L73.71 53.54a50.187 50.187 0 0 0-7.099-6.776 49.798 49.798 0 0 0-8.31-5.29zm-8.517 18.869c-2.728-6.432-8.366-19.781-9.559-22.596 2.779.273 5.538.706 8.187 1.419a49.744 49.744 0 0 1 9.258 3.537 53.74 53.74 0 0 1 2.573 1.415 78.512 78.512 0 0 1-10.459 16.225z"/><path fill="#173E49" d="M81.907 66.187c-.313-.661-.644-1.301-.969-1.941a46.47 46.47 0 0 0-1.025-1.885 44.264 44.264 0 0 0-1.072-1.828L45.883 79.588 27.755 36.517c-.849.107-1.709.239-2.57.394-.869.143-1.729.321-2.613.515-.888.199-1.771.413-2.667.651-.904.246-1.804.512-2.724.793l23.603 56.387L82.82 68.201a68.17 68.17 0 0 0-.913-2.014zm-62.85-26.422c.622-.178 1.2-.349 1.2-.349l2.613-.638 2.558-.512 1.47-.214c.524 1.237 8.152 19.356 13.397 31.833a79.713 79.713 0 0 1-6.549 4.992 19224.044 19224.044 0 0 0-14.689-35.112zM9.013 19.362l4.183 9.972c.333-.096 4.825-1.288 11.058-2.951 5.892-1.561 13.159-3.497 19.875-5.284a7679.109 7679.109 0 0 1 16.292-4.334c3.948-1.062 6.49-1.733 6.49-1.733s1.275 3.005 3.235 7.545c1.941 4.548 4.559 10.614 7.195 16.75 2.642 6.154 5.307 12.344 7.331 17.074 2.042 4.745 3.442 8.024 3.569 8.303l5.305-3.41L69.781 6.199 9.013 19.362zm58.811-5.702c-.077-.174-.128-.277-.128-.277S15.869 27.184 13.993 27.68c-.599-1.454-2.256-5.416-3.065-7.327 2.823-.607 48.942-10.598 56.925-12.318.026.772.051 1.546.051 2.327a66.73 66.73 0 0 1-.08 3.298z"/><path fill="#636048" d="M58.371 20.86a6.47 6.47 0 0 0-2.684 1.543 7.201 7.201 0 0 0-1.669 2.636c-.385 1.031-.547 2.181-.496 3.386.052 1.212.337 2.474.869 3.731a11.585 11.585 0 0 0 2.132 3.302 10.548 10.548 0 0 0 2.896 2.233c1.038.539 2.137.871 3.22.966 1.094.095 2.164-.043 3.159-.448a6.269 6.269 0 0 0 2.471-1.781 7.301 7.301 0 0 0 1.418-2.683 8.831 8.831 0 0 0 .31-3.204 10.992 10.992 0 0 0-.859-3.434 11.525 11.525 0 0 0-1.924-3.061 10.938 10.938 0 0 0-2.633-2.197 8.996 8.996 0 0 0-3.052-1.142 7.233 7.233 0 0 0-1.27-.106 6.946 6.946 0 0 0-1.888.259zm2.923 1.218a7.38 7.38 0 0 1 2.58.968 9.179 9.179 0 0 1 2.296 1.914c.104.121.184.255.283.381-.806 4.108-1.901 8.096-3.323 11.951-.123 0-.246 0-.369-.017-.908-.076-1.804-.35-2.709-.813a9.522 9.522 0 0 1-2.521-1.943 10.272 10.272 0 0 1-1.856-2.902 9.3 9.3 0 0 1-.767-3.259 7.227 7.227 0 0 1 .406-2.842 5.659 5.659 0 0 1 1.346-2.117 4.99 4.99 0 0 1 2.093-1.197 5.774 5.774 0 0 1 2.541-.124z"/><linearGradient id="a" gradientUnits="userSpaceOnUse" x1="-465.558" y1="548.143" x2="-458.884" y2="548.143" gradientTransform="scale(-31.476 31.476) rotate(-32.891 -1157.911 -509.29)"><stop offset="0" stop-color="#616078"/><stop offset=".772" stop-color="#17182a"/><stop offset="1" stop-color="#17182a"/></linearGradient><path fill="url(#a)" d="M26.898 38.052l-1.47.214-2.558.512-2.613.638s-.578.17-1.2.349c.685 1.618 8.496 20.268 14.689 35.113a80.162 80.162 0 0 0 6.549-4.992 37649.966 37649.966 0 0 0-13.397-31.834z"/><path fill="#345660" d="M26.898 38.052l-1.47.214-2.558.512-2.613.638s-.578.17-1.2.349c.685 1.618 8.496 20.268 14.689 35.113a80.162 80.162 0 0 0 6.549-4.992 37649.966 37649.966 0 0 0-13.397-31.834z"/><linearGradient id="b" gradientUnits="userSpaceOnUse" x1="-465.557" y1="547.602" x2="-458.887" y2="547.602" gradientTransform="scale(-31.476 31.476) rotate(-32.891 -1157.911 -509.29)"><stop offset="0" stop-color="#616078"/><stop offset=".772" stop-color="#17182a"/><stop offset="1" stop-color="#17182a"/></linearGradient><path fill="url(#b)" d="M60.243 44.118a53.74 53.74 0 0 0-2.573-1.415 49.717 49.717 0 0 0-9.258-3.537c-2.649-.714-5.408-1.146-8.187-1.419 1.192 2.814 6.831 16.164 9.559 22.596a78.512 78.512 0 0 0 10.459-16.225z"/><path fill="#345660" d="M60.243 44.118a53.74 53.74 0 0 0-2.573-1.415 49.717 49.717 0 0 0-9.258-3.537c-2.649-.714-5.408-1.146-8.187-1.419 1.192 2.814 6.831 16.164 9.559 22.596a78.512 78.512 0 0 0 10.459-16.225z"/><linearGradient id="c" gradientUnits="userSpaceOnUse" x1="-465.557" y1="546.929" x2="-458.886" y2="546.929" gradientTransform="scale(-31.476 31.476) rotate(-32.891 -1157.911 -509.29)"><stop offset="0" stop-color="#616078"/><stop offset=".772" stop-color="#17182a"/><stop offset="1" stop-color="#17182a"/></linearGradient><path fill="url(#c)" d="M10.928 20.353c.809 1.911 2.466 5.873 3.065 7.327 1.875-.496 53.703-14.297 53.703-14.297s.051.104.128.277a65.53 65.53 0 0 0 .079-3.298c0-.781-.024-1.554-.051-2.327-7.982 1.72-54.101 11.711-56.924 12.318z"/><path fill="#345660" d="M10.928 20.353c.809 1.911 2.466 5.873 3.065 7.327 1.875-.496 53.703-14.297 53.703-14.297s.051.104.128.277a65.53 65.53 0 0 0 .079-3.298c0-.781-.024-1.554-.051-2.327-7.982 1.72-54.101 11.711-56.924 12.318z"/><linearGradient id="d" gradientUnits="userSpaceOnUse" x1="-600.835" y1="489.001" x2="-594.158" y2="489.001" gradientTransform="scale(-2.818 2.818) rotate(-45 -887.29 -445.031)"><stop offset="0" stop-color="#84b54f"/><stop offset="1" stop-color="#36502d"/></linearGradient><path fill="url(#d)" d="M56.659 23.398a5.659 5.659 0 0 0-1.346 2.117 7.227 7.227 0 0 0-.406 2.842 9.3 9.3 0 0 0 .767 3.259 10.244 10.244 0 0 0 1.856 2.902 9.538 9.538 0 0 0 2.521 1.943c.905.463 1.801.737 2.709.813.123.017.246.017.369.017 1.422-3.855 2.518-7.843 3.323-11.951-.1-.126-.18-.261-.283-.381a9.2 9.2 0 0 0-2.296-1.914 7.4 7.4 0 0 0-2.58-.968 5.769 5.769 0 0 0-2.542.123 5.027 5.027 0 0 0-2.092 1.198z"/><path fill="#777256" d="M56.659 23.398a5.659 5.659 0 0 0-1.346 2.117 7.227 7.227 0 0 0-.406 2.842 9.3 9.3 0 0 0 .767 3.259 10.244 10.244 0 0 0 1.856 2.902 9.538 9.538 0 0 0 2.521 1.943c.905.463 1.801.737 2.709.813.123.017.246.017.369.017 1.422-3.855 2.518-7.843 3.323-11.951-.1-.126-.18-.261-.283-.381a9.2 9.2 0 0 0-2.296-1.914 7.4 7.4 0 0 0-2.58-.968 5.769 5.769 0 0 0-2.542.123 5.027 5.027 0 0 0-2.092 1.198z"/></svg>