<svg xmlns:xlink="http://www.w3.org/1999/xlink"  version="1" xmlns="http://www.w3.org/2000/svg" viewBox="0 0 150 150"><path fill="none" d="M122.8 47.3c.3 2.9-1.3 5.8-4.1 7.1-3 1.3-6.4.4-8.4-2.1l-29 13c.6 1.7 1 3.5 1 5.5v.7l12.4.3c.3-1.7 1.8-3 3.5-3 1.9.1 3.5 1.7 3.4 3.6-.1 1.9-1.7 3.5-3.6 3.4-1.6 0-3-1.2-3.3-2.8l-12.5-.3c-.3 2.9-1.5 5.6-3.1 7.9L91 89.1c2-2 4.8-3.2 7.9-3.2 6.3 0 11.4 5.1 11.4 11.4 0 1-.1 2.1-.4 3 13.2-7.4 21.7-18.9 21.7-31.8-.2-7.7-3.3-15-8.8-21.2z"/><path fill="none" d="M87.4 97.4c0-2.3.7-4.5 1.9-6.3l-11.9-8.5c-2.9 2.9-7 4.6-11.4 4.7-4.8 0-9.1-2-12.1-5.3l-4.1 4.2c.8 1.3.7 3.1-.4 4.3-1.3 1.4-3.6 1.4-5 .1-1.4-1.3-1.4-3.6-.1-5 1.2-1.3 3.2-1.4 4.6-.4l4.2-4.3c-1.7-2.2-2.8-4.7-3.3-7.6l-12.9-1.2c-.8 3.4-3.9 5.7-7.4 5.4-3.8-.4-6.6-3.8-6.3-7.6.4-3.8 3.8-6.6 7.6-6.3 3.3.3 5.8 2.8 6.2 5.9l12.6 1.2c0-2 .4-4 1.1-5.8L45.4 62c-1 1.4-3 1.8-4.5.9-1.7-1-2.3-3.1-1.3-4.8 1-1.7 3.1-2.3 4.8-1.3 1.4.8 2.1 2.5 1.6 4l5.1 2.9c2.6-5.5 8.2-9.3 14.7-9.3 1.2 0 2.4.1 3.5.4l3.4-10c-3.1-1.5-4.7-5.1-3.5-8.5 1.2-3.6 5.2-5.6 8.8-4.4 3.7 1.2 5.6 5.2 4.4 8.8-1 3.1-4.1 5-7.2 4.7l-3.4 10.1c3.6 1.4 6.6 4 8.5 7.4l29-13c-1-3.3.6-6.9 3.8-8.3 1-.4 2-.6 3-.6-10.3-7.8-24.8-12.7-40.9-12.7-31 0-56.2 18.1-56.2 40.3 0 11.1 6.3 21.4 17.6 29.1l3.7 2.5-4.2 12c12.2-6.4 14.5-6.2 15.6-6.2h1.9c6.8 2.1 14.1 3 21.6 3 6.1 0 11.9-.8 17.4-2-3.2-2-5.2-5.6-5.2-9.6z"/><path fill="#F79020" d="M65.8 58.9c-6.7 0-12.1 5.5-12.1 12.2 0 6.7 5.5 12.1 12.2 12.1C72.6 83.1 78 77.7 78 71c0-6.7-5.5-12.2-12.2-12.1z"/><path opacity=".3" fill="#92C34A" d="M65.8 58.9c-6.7 0-12.1 5.5-12.1 12.2 0 6.7 5.5 12.1 12.2 12.1C72.6 83.1 78 77.7 78 71c0-6.7-5.5-12.2-12.2-12.1z"/><path fill="#F79020" d="M98.7 86c-3.1 0-5.8 1.2-7.9 3.2L79 80.7c1.7-2.3 2.8-4.9 3.1-7.9l12.5.3c.3 1.5 1.7 2.7 3.3 2.8 1.9 0 3.5-1.5 3.6-3.4 0-1.9-1.5-3.5-3.4-3.6-1.8 0-3.3 1.2-3.5 3l-12.4-.3v-.7c0-1.9-.4-3.8-1-5.5l29.1-13.1c1.9 2.5 5.4 3.4 8.4 2.1 2.8-1.3 4.4-4.2 4.1-7.1-2-2.2-4.2-4.3-6.8-6.3-1 0-2 .2-3 .6-3.2 1.4-4.8 5-3.8 8.3l-29 13c-1.8-3.4-4.8-6-8.5-7.4l3.4-10.1c3.1.3 6.1-1.6 7.2-4.7 1.2-3.7-.8-7.6-4.4-8.8-3.6-1.2-7.6.7-8.8 4.4-1.1 3.4.4 7 3.5 8.5l-3.4 10c-1.1-.2-2.3-.4-3.5-.4-6.5 0-12.1 3.8-14.7 9.3l-5-2.8c.4-1.5-.2-3.2-1.6-4-1.7-1-3.8-.4-4.8 1.3-1 1.7-.4 3.8 1.3 4.8 1.5.9 3.5.4 4.5-.9l5.2 2.9c-.7 1.8-1.1 3.8-1.1 5.8l-12.6-1.2c-.5-3.1-3-5.6-6.2-5.9-3.8-.4-7.2 2.5-7.6 6.3-.4 3.8 2.4 7.2 6.3 7.6 3.5.3 6.7-2 7.4-5.4l12.9 1.2c.4 2.8 1.6 5.4 3.3 7.6l-4.2 4.3c-1.4-1-3.4-.9-4.6.4-1.4 1.4-1.3 3.6.1 5 1.4 1.3 3.6 1.3 5-.1 1.1-1.2 1.3-3 .4-4.3l4.1-4.2c3 3.3 7.3 5.3 12.1 5.3 4.4 0 8.4-1.8 11.4-4.7l11.9 8.5c-1.2 1.8-1.9 3.9-1.9 6.3 0 4 2.1 7.5 5.2 9.5 6.3-1.5 12.1-3.7 17.2-6.6.3-1 .4-2 .4-3 0-6.3-5.1-11.4-11.4-11.4zm-32.8-2.8c-6.7 0-12.2-5.4-12.2-12.1 0-6.7 5.4-12.2 12.1-12.2C72.5 58.8 78 64.3 78 71c0 6.7-5.4 12.1-12.1 12.2z"/><path fill="#22322F" d="M75.2 16.9c-37.3 0-67.7 23.2-67.7 51.8 0 13.5 6.9 26.4 19 36L15 137l13.4-7.7c8.8-5.1 19.6-10.8 23.2-12.1 7.5 2.1 15.5 3.2 23.6 3.2 37.3 0 67.7-23.2 67.7-51.7 0-28.6-30.4-51.8-67.7-51.8zm34.5 83.5c-5.1 2.9-10.9 5.1-17.2 6.6-5.5 1.3-11.3 2-17.4 2-7.5 0-14.8-.8-21.6-2.9h-1.9c-1.1 0-3.5-.2-15.6 6.2l4.2-11.8-3.7-2.5c-11.4-7.7-17.6-18.1-17.6-29.2 0-22.2 25.2-40.3 56.2-40.3 16.1 0 30.6 4.9 40.9 12.7 2.5 1.9 4.8 4 6.8 6.3 5.4 6.2 8.6 13.5 8.6 21.4 0 12.6-8.5 24.1-21.7 31.5z"/></svg>