<svg xmlns:xlink="http://www.w3.org/1999/xlink"  version="1" xmlns="http://www.w3.org/2000/svg" viewBox="0 0 150 150"><path fill="#194680" d="M22.4 81.3c4.7-12.6 13.1-21.6 22.3-28.7 19.5-15 39.1-20 58.7-17.5 20.7 2.7 30.9 17 26.6 29.5-6-9.1-18.6-13.6-29-14.2-14.5-.8-32.2 3.2-48.5 13.6-14.8 9.5-31.9 28.6-27.8 49.5.3.5.7.9 1 1.4C26 95 45.2 78.4 58 71.2c18.8-10.4 53.2-17.6 70.9-5.5 6.8 4.7 10.6 10.4 11.6 17.1.3-2.4.4-4.9.4-7.4 0-35.6-28.8-64.4-64.4-64.4C45 11 18.8 33.6 13.2 63.4c8-26.2 38.6-48.3 76.8-39.8-17.8.9-35.7 6.9-51.9 18.8-9.7 7.2-22.1 22-25.9 36.9.6 10.5 3.8 20.3 8.8 28.8-2.1-9.1-1.6-18.9 1.4-26.8z"/><path fill="#E99623" d="M126.2 83c-14.6-9.8-35.5-8.1-53.8-2.2-2.4.8-4.8 1.6-7.1 2.6-16.9 6.8-35.4 22.3-34.3 37.7 11.6 11.6 27.7 18.8 45.4 18.8 26 0 48.4-15.4 58.6-37.6.1-8.2-3.4-15.7-8.8-19.3z"/></svg>