<svg xmlns:xlink="http://www.w3.org/1999/xlink"  xmlns="http://www.w3.org/2000/svg" viewBox="0 0 2000 2000"><path fill="none" d="M1078.5 734.6l-12.7-60.4c-25.4 11.7-51.9 24.3-79 37.6l14 66.7c26.9-15.5 53.1-30.2 77.7-43.9z"/><path fill="none" d="M1146.4 1473.1l-654.3 97.7-115.5-551.2-100.8-481 654.3-97.8 44.3 211.5c27.4-15.5 53.6-30.1 77.8-43.6l-43.3-206.6c-12.6-60.2-71.4-102-131-93.1l-606.7 90.6c-59.6 8.9-97.8 65.1-85.2 125.4l248.3 1184.5c12.6 60.2 71.4 102 131 93.1L1172 1712c59.6-8.9 97.8-65.1 85.2-125.4l-168.7-805.1c-25.6 12.2-52.2 25.1-78.9 38.4l136.8 653.2zm-637-1039.9l148.1-24.9c10.9-1.8 21 2.9 22.6 10.6 1.6 7.7-5.9 15.4-16.9 17.2L515.1 461c-10.9 1.8-21.1-2.9-22.6-10.6-1.6-7.6 5.9-15.3 16.9-17.2zM845.8 1673l-19.8 3c-19.2 2.9-38-10.5-42.1-29.9-4.1-19.4 8.2-37.4 27.3-40.3l19.8-2.9c19.2-2.9 38 10.5 42.1 29.9 4.1 19.3-8.1 37.4-27.3 40.2zM1230.3 652.2l-12.3-41.7c-24.6 8.4-54 20.2-86.7 34.3l11.4 54.4c40.4-22 71.8-38.7 87.6-47z"/><path fill="#00B6E3" d="M376.6 1019.7l115.5 551.2 654.3-97.7-136.9-653c-168 83.5-342.7 179.6-342.7 179.6 56.2-56.5 202.8-146.4 333.9-221.4l-14-66.7c-235.6 114.6-519.6 273-519.6 273 83.5-84.8 323.4-228.3 507.2-332.3L930 440.9l-553.4 578.8z"/><path fill="#A5A7A9" d="M1153.6 751.5c-20.7 9.3-42.6 19.4-65.2 30.2l168.7 805.1c12.6 60.2-25.6 116.5-85.2 125.4l-606.7 90.6c-59.6 8.9-118.3-32.8-131-93.1L186 525.2c-12.6-60.2 25.6-116.5 85.2-125.4l606.7-90.6c59.6-8.9 118.3 32.9 131 93.1l43.3 206.6c23.5-13 45-24.9 64.2-35.3L1078.3 392c-20.7-98.9-117.2-167.5-215-152.9l-606.7 90.6c-97.9 14.6-160.6 107-139.9 205.9L365 1720.1c20.7 98.9 117.1 167.5 215 152.9l606.7-90.7c97.8-14.6 160.6-107 139.9-205.9l-173-824.9z"/><path fill="#A5A7A9" d="M1142.7 699.2l-11.4-54.4c-20.6 8.9-42.5 18.7-65.4 29.3l12.7 60.4c22.9-12.7 44.6-24.6 64.1-35.3z"/><path fill="#CDCFD0" d="M515.1 461l148.1-24.9c10.9-1.8 18.5-9.6 16.9-17.2-1.6-7.7-11.7-12.4-22.6-10.6l-148.1 24.9c-10.9 1.8-18.5 9.6-16.9 17.2 1.6 7.7 11.7 12.5 22.6 10.6z"/><path fill="#A5A7A9" d="M831.1 1602.9l-19.8 2.9c-19.2 2.9-31.4 20.9-27.3 40.3 4.1 19.4 22.9 32.8 42.1 29.9l19.8-3c19.2-2.9 31.4-20.9 27.3-40.3-4.1-19.3-22.9-32.7-42.1-29.8z"/><path fill="#4EBFE7" d="M275.8 538.6l100.8 481.1 553.5-578.8z"/><path fill="#FFA13D" d="M1518.4 492.3c2.9-3.7 161.6-202.4 235.8-295.4l-607.4 168.9 4 13.4c49.7 15.3 362 111.4 367.6 113.1z"/><path fill="#FFBA73" d="M974.4 652.4c-183.8 104-423.7 247.5-507.2 332.3 0 0 284-158.4 519.6-273 27.2-13.2 53.7-25.8 79-37.6 22.9-10.6 44.8-20.4 65.4-29.3 32.6-14.1 62.1-25.9 86.7-34.3l12.3 41.7c-15.8 8.3-47.2 25-87.6 47-19.5 10.6-41.2 22.5-64.2 35.3-24.7 13.7-50.8 28.4-77.7 43.8-131.1 75-277.7 164.9-333.9 221.4 0 0 174.7-96.2 342.7-179.6 26.7-13.3 53.2-26.2 78.9-38.4 22.6-10.8 44.5-20.9 65.2-30.2 36-16.1 68.4-29.5 94.5-38.7l20.1 68L1414 476.6l-259.3-79.8 39.7 134.4c-14 7.5-41.7 22.3-78.2 42.2-19.1 10.4-40.7 22.3-64.2 35.3-24.1 13.6-50.2 28.2-77.6 43.7zM1597 426.7l297.6 180-120.4-407.2-4.7 1.3-246.8 309.3-100.7-31-146.7 306.1L1890.9 614l-298.1-180.3z"/></svg>