<svg xmlns:xlink="http://www.w3.org/1999/xlink"  xmlns="http://www.w3.org/2000/svg" width="100" height="100" viewBox="0 0 100 100"><radialGradient id="a" cx="52.447" cy="59.276" r="51.876" gradientUnits="userSpaceOnUse"><stop offset=".012" stop-color="#26a9e0"/><stop offset=".086" stop-color="#239cd7"/><stop offset=".224" stop-color="#1c79be"/><stop offset=".236" stop-color="#1b75bb"/><stop offset="1" stop-color="#120742"/></radialGradient><path fill="url(#a)" d="M85.636 51.431c-4.172.369-8.299 1.176-12.328 2.304a85.798 85.798 0 0 0-11.937 4.4c-6.094 2.741-11.884 6.114-17.359 9.934a115.284 115.284 0 0 0-9.892 7.717 107.055 107.055 0 0 0-9.073 8.876c10.028 7.712 23.981 9.781 35.841 5.409.828.229 1.647.463 2.476.696l9.215 2.656c2.446.688 4.881 1.408 7.328 2.098-.299-2.356-.603-4.709-.897-7.064-.36-2.955-.755-5.901-1.115-8.848-.073-.578-.151-1.151-.218-1.717 5.847-7.417 8.732-17.049 7.959-26.461z"/><radialGradient id="b" cx="16.921" cy="31.945" r="42.843" gradientUnits="userSpaceOnUse"><stop offset="0" stop-color="#929497"/><stop offset=".673" stop-color="#404041"/><stop offset="1" stop-color="#231f20"/></radialGradient><path fill="url(#b)" d="M17.958 86.078c1.294-6.253 3.483-12.297 6.212-18.063 2.041-4.244 4.389-8.334 6.917-12.31 4.098-6.229 8.663-12.13 13.597-17.711a200.347 200.347 0 0 1 9.573-9.979 203.117 203.117 0 0 1 9.098-8.278 245.692 245.692 0 0 1 5.303-4.355 141.323 141.323 0 0 1 7.363-5.426c-.86-1.623-1.717-3.246-2.581-4.869-3.172 2.447-6.15 5.127-9.109 7.823a289.07 289.07 0 0 0-5.172 4.864l-.545.459c-10.159-3-21.543-1.525-30.534 4.089-6.512 4.008-11.761 10.023-14.818 17.027-3.225 7.311-4 15.649-2.262 23.445 1.332 6.02 4.204 11.657 8.196 16.341-.509 2.302-1.022 4.6-1.238 6.943z"/><radialGradient id="c" cx="52.446" cy="59.275" r="51.876" gradientUnits="userSpaceOnUse"><stop offset=".012" stop-color="#26a9e0"/><stop offset=".086" stop-color="#239cd7"/><stop offset=".224" stop-color="#1c79be"/><stop offset=".236" stop-color="#1b75bb"/><stop offset="1" stop-color="#120742"/></radialGradient><path fill="url(#c)" d="M38.382 64.273c6.339-6.209 13.229-11.863 20.62-16.764l-.086-.054c1.923-1.201 3.799-2.458 5.725-3.651 2.254-1.418 4.562-2.745 6.881-4.052a186.413 186.413 0 0 1 7.331-3.841 142.095 142.095 0 0 1 9.409-4.196c-.647-1.217-1.3-2.434-1.955-3.651a50.44 50.44 0 0 0-7.835 4.151c-1.2-1.467-2.503-2.844-3.856-4.164-.763.418-1.516.849-2.271 1.271a151.042 151.042 0 0 0-6.999 4.388c-2.516 1.655-4.962 3.422-7.385 5.208a186.895 186.895 0 0 0-6.499 5.123c-5.823 4.827-11.342 10.036-16.417 15.65-2.196 2.462-4.331 4.995-6.318 7.63-3.078 4.11-5.909 8.43-8.089 13.088.574.607 1.143 1.214 1.717 1.824-2.414 4.197-4.676 8.507-6.356 13.06 1.127-1.934 2.017-3.986 3.114-5.928 3.5-6.377 7.72-12.34 12.462-17.844 2.184-2.499 4.438-4.928 6.807-7.248z"/></svg>