<svg xmlns:xlink="http://www.w3.org/1999/xlink"  xmlns="http://www.w3.org/2000/svg" viewBox="0 0 2000 2000"><path fill="#00B3E6" d="M1684.3 1727.7c21.6-35 32.7-76 32.7-120.2v-341.8c-64 63-149.4 113.8-230.7 154.1l198 307.9zM1590.4 1806.1l-150.7-360.3-1.7-5.5-51.8 25.1-9 4.1-.5-1.1c-211 78.5-433.5 89.5-621.3 68.6l98.3 290H1491c25.9 0 50.8 6.4 74-1.6L1403.4 1529h12l175 277.1zM1257.3 1060.6L992 676.7l225.8 406.4z"/><path fill="#00B3E6" d="M450.1 1472.6c-.8-1.5-2.1-3.7-3.7-6.3-141.8 10.1-247.6-20.2-288.9-97-73.8-137.3 81-370.5 360.1-573.5-188.1 164.9-283.7 329.7-229.7 430.2 8.2 15.3 19.8 28.5 34 39.7 35.5-126 195.9-255.9 195.9-255.9-85.7 121.4-113.1 218.7-115.3 292.3 166.2 40.2 470-31.5 782.2-197L737.1 258.7c-5.9 2.6-12.4 4.2-19 5 17.7 202.5 40.1 774.2 40.1 774.2 0 39.5-53.2 22.5-53.2 22.5V264.6c-21 0-65.4-28.4-65.4-65.8 0-.9 2.6-.8 2.6-.8H306.7C180.1 198 77 296.7 77 423.3v1184.2c0 126.6 103.1 219.5 229.7 219.5H748v-285.3c-96-12.2-203.1-36.9-279.6-68.9-7.3-.1-11.1 0-18.3-.2z"/><path fill="#00B3E6" d="M1259.7 1246.9c17.1-9.4 33.8-18.9 50-28.5 12.3-7.3 24.3-14.6 36.1-21.9 90.9-56.6 164.5-113.8 222-162.3 60.7-49.5 117.2-95.7 149.2-133.7V423.3c0-126.6-99.5-225.3-226.1-225.3H777.2s.3-.1.3.8c0 25.2-13.9 45.9-34.3 57.6l517.2 807.2c152.2-88 281.7-186.2 377.7-281.6-80.3 121.7-189.6 226.1-294.4 308.9-14.6 10.8-29.6 21.5-44.9 32.2l.9 1.5a1989.3 1989.3 0 0 1-76.1 54.1l-2.2-4.2c-44 27.8-90.2 55-138.6 81-227.5 122.3-453.6 195.8-627.5 210 5.4 2.4 10.9 4.8 16.5 7.2 299.6 1.5 569.9-100.3 788.3-225.1l-.4-.7z"/><path fill="#98C21F" d="M1905.3 815.3c-17.3 22.2-35 43.6-53.1 64.5-42.5 49.1-86.8 94.6-132.1 136.6-111 102.9-226.9 184.6-331.3 247.5-32 19.3-63 36.8-92.4 52.7-153.2 82.5-263.9 119.1-263.9 119.1 102.5-21 197.8-48.5 284.9-79.4 36.4-12.9 71.3-26.4 104.8-40.3 119-49.1 219.2-102.6 297.9-150.4 120.8-73.3 191.2-132.7 200.9-141.1.8-.7 1.2-1.1 1.2-1.1l-16.9-208.1z"/></svg>