<svg xmlns:xlink="http://www.w3.org/1999/xlink"  version="1" xmlns="http://www.w3.org/2000/svg" viewBox="0 0 150 150"><path fill="#00A7C0" d="M29.3 27.1l46 30.7 46.5-30.7-46.5 44-46-44z"/><path fill="#00A7C0" d="M29.4 18.1l6.6 2.6 39.3 18.5 39.9-18.5 6.6-2.6-46.5 34.3-45.9-34.3z"/><path fill="#00A7C0" d="M64.5 22.4c0-6.3 5.1-11.4 11.4-11.4 6.3 0 11.4 5.1 11.4 11.4s-5.1 11.4-11.4 11.4c-6.3 0-11.4-5.1-11.4-11.4zM29.3 122.8l46-30.7 46.5 30.7-46.5-44-46 44z"/><path fill="#00A7C0" d="M29.4 131.8l6.6-2.6 39.3-18.5 39.9 18.5 6.6 2.6-46.5-34.3-45.9 34.3z"/><path fill="#00A7C0" d="M64.5 127.5c0 6.3 5.1 11.4 11.4 11.4 6.3 0 11.4-5.1 11.4-11.4 0-6.3-5.1-11.4-11.4-11.4-6.3 0-11.4 5.1-11.4 11.4z"/><path fill="#9198CC" d="M25.3 121.2l30.7-46-30.7-46.5 44 46.6-44 45.9z"/><path fill="#9198CC" d="M16.3 121.2l2.7-6.6 18.4-39.4-18.5-39.9-2.6-6.6 34.4 46.6-34.4 45.9z"/><path fill="#9198CC" d="M20.6 86c-6.3 0-11.4-5.1-11.4-11.4 0-6.3 5.1-11.4 11.4-11.4S32 68.3 32 74.6C32 80.9 26.9 86 20.6 86z"/><path fill="#3859A7" d="M125.9 121.2l-30.8-46 30.7-46.5-43.9 46.6 44 45.9z"/><path fill="#3859A7" d="M134.9 121.2l-2.7-6.6-18.5-39.4 18.5-39.9 2.7-6.6-34.4 46.6 34.4 45.9z"/><path fill="#3859A7" d="M130.5 86c6.3 0 11.4-5.1 11.4-11.4 0-6.3-5.1-11.4-11.4-11.4-6.3 0-11.4 5.1-11.4 11.4 0 6.3 5.1 11.4 11.4 11.4z"/></svg>