<svg xmlns:xlink="http://www.w3.org/1999/xlink"  version="1" xmlns="http://www.w3.org/2000/svg" viewBox="0 0 150 150"><path fill-rule="evenodd" clip-rule="evenodd" fill="#00A896" d="M142 89c1.3-6.2 1.8-12.5 1.4-18.5-11 17.4-24.9 33.5-41.1 45.1-16.7 12-35.7 19-52.5 21.3 3.8 1.6 7.9 2.9 12.1 3.8 36.4 7.9 72.3-15.3 80.1-51.7zM58 50.1C73.1 39.2 84.2 24.9 91 9c-.2-.1-.5-.1-.7-.2-9.9-2.1-19.7-2-28.9.1-4.9 7.6-11.3 14.4-19.1 20-7.6 5.4-15.8 9.2-24.2 11.5-3.6 6.1-6.3 12.9-7.9 20.2-.5 2.5-.9 5-1.2 7.5 17-1.4 33.9-7.2 49-18zm31.1 44c19.7-14.1 35-32.3 45.6-52.7-.1-.3-.3-.6-.4-.9-5-8.4-11.8-15.8-20-21.4-8.7 19.9-22.7 37.8-41.8 51.5-18.9 13.6-40 21-61.2 22.8 2.9 9.9 8 19 14.8 26.6 22.1-3.5 43.7-12 63-25.9z"/><path fill-rule="evenodd" clip-rule="evenodd" fill="#003056" d="M23.2 34c-3.9 5-7 10.5-9.3 16.1 17.4-10.9 37-19.4 56.6-22.8 20.2-3.5 40.4-1.7 56.6 3.6-2.7-3.1-5.8-6-9.2-8.7C88.4-.7 46 4.6 23.2 34zM82 105.6c-18.3 3.2-34.5 11.3-47.6 22.6.2.2.4.3.6.5 8 6.2 16.9 10.3 26.1 12.5 7.7-4.7 16.4-8 25.9-9.7 9.2-1.6 18.2-1.5 26.8.2 5.9-3.9 11.3-8.9 15.9-14.8 1.6-2 3-4.1 4.3-6.2-16-6.3-33.8-8.3-52-5.1zm-8.9-53.2c-23.9 4.2-45.5 14-63.9 27.7v1c.8 9.8 3.8 19.3 8.7 28 16.4-14.2 36.8-24.2 59.9-28.3 22.9-4 45.2-1.6 65.1 6 1.7-10.2 1.1-20.6-1.8-30.4-21.4-6.4-44.6-8.1-68-4z"/></svg>