<svg xmlns:xlink="http://www.w3.org/1999/xlink"  version="1" xmlns="http://www.w3.org/2000/svg" viewBox="0 0 150 150"><g fill="#BCBEC0"><path d="M123.9 111.6c-.8 1.6-1.4 2.4-1.8 2.7-.3.1-.7.2-1.1.3 1.2-2.3 2.4-4.6 3.4-7 1.5-1.3 3.1-5.9 2.5-6.8-1.4-.2-3.5 5.9-3 6.8l.1.1c-1 2.4-2.1 4.7-3.4 7-.5.1-1.1.2-1.7.3-.6-.1-.5-.8.2-2.3 2-4.2 3.7-8.7 4.9-13.4.5-1.7 1.1-2.7 1.9-3 1.6-.3 2.8-.5 3.5-.8.2.2.3.3-.3 2.6-1.2 4.7-3 9.2-5.2 13.5"/><path d="M124.3 111.5l-.7 1.3-.1.1c.1-.2.1-.3 1.2-2.6.8-1.7 1.6-3.5 2.3-5.3.2-.1.3-.2.4-.4-1 2.2-2.1 4.9-3.1 6.9M128.7 101l-.8 2.2-.4.4c.7-1.8 1.3-3.7 1.8-5.6.6-2 .9-3 1-3.2.1-.1.1-.2.2-.2-.5 1.9-1.2 4.5-1.8 6.4M116.9 122.6c-.3.1-.6.3-1.1.4 1-1.4 1.3-2 1.2-2.3-.8-.1-5.1 5.1-5 6.1.5.1 2-1.6 2.9-2.6.5-.1.9-.3 1.1-.4-1.2 1.5-2.4 2.9-3.8 4.3-1.6 1.7-2.2 2.2-2.4 2.3-.6.2-1.5.4-2.8.6h-.1c-.1-.3.3-.8 1.3-2 2.7-3.1 5.2-6.4 7.4-10 1-1.6 1.8-2.5 2.5-2.7 1.6-.2 2.7-.5 3.4-.8 0 .2.1.4-1.3 2.4-1 1.7-2.1 3.2-3.3 4.7"/><path d="M118.3 121c-4.6 5.8-4.6 5.8-7.3 8.5l-1.2 1.2c.6-.6 1.5-1.5 1.9-2 3.6-3.7 6.8-7.7 9.5-12.1 1.2-2 1.6-2.6 1.8-2.8 0 0 0-.1.1-.1-1.4 2.2-3.2 5.2-4.8 7.3M73.3 6.5c1.3.3 3 .6 4.3.9-.8-.2-1.5-.4-2.1-.5 2.4.6 4.1 1 6.5 1.8l1.9.6c1.8.7 4.3 1.6 6 2.4-.9-.4-1.7-.8-2.2-1-4.5-1.7-9.1-3.1-13.9-4.1-1-.2-1-.2-2.9-.5-.2 0-.3-.1-.5-.1.9.1 2.1.3 2.5.4.1 0 .2 0 .4.1"/><path d="M72.2 6.3c-1-.2-1-.2-2.4-.4-.3 0-.6-.1-.9-.1h.2c.9.1 1.8.3 3.1.5M122.1 44.2c.8 1.5 1 2.4.6 2.7-.5.1-1 .2-1.7.3-1.1-2.4-2.3-4.7-3.6-6.9 1-1.7-3.3-6.2-4.2-6-1.2.2 1 4.3 3 5.7.2.1.4.3.6.3 1.3 2.2 2.5 4.5 3.6 6.9-.7.1-1.4.2-2.2.3-.8-.1-1.6-.9-2.4-2.4-2-4.3-4.4-8.3-7-12.1-.9-1.3-1.1-2.1-.5-2.3.7-.1 1.4-.2 2-.3.6-.1 1.2-.2 1.6-.3.5.1 1.3.7 2.4 2 2.9 3.9 5.6 7.8 7.8 12.1"/><path d="M119.3 36.3c1.6 2.5 3.7 5.9 5.1 8.5.1.3-.1.5-.8.8-.3-.1-.9-.9-1.9-2.6-.9-1.7-1.9-3.3-3-4.9.4-.1.7-.3.9-.4 1.2 1.8 1.6 2.2 1.9 2.5v-.1c-.6-1.4-3.4-5.5-4.4-6.4 0 .3 0 .4 1.6 2.7-.2.1-.5.3-.9.4-1.1-1.6-2.2-3.1-3.4-4.6-1.3-1.6-1.5-2.1-1.6-2.4.6-.3.8-.5.7-.7.2.1.3.3.4.5 1.7 1.9 4 4.6 5.4 6.7M127.4 56.5c-.5.2-1.2.3-2.1.4-1.3-3.2-2.3-3.2-2.7-2.5-.9 1.8 1.2 7.6 2.7 7.4.3 0 1-.5.5-3.4.8-.2 1.5-.3 2.1-.5.6 1.9 1 3.8 1.4 5.7.3 1.9.3 3-.1 3.3-.7.2-1.5.3-2.4.5-.8.1-1.8.2-2.8.4-.8-.1-1.4-1.1-1.9-3-.8-4.4-2-8.7-3.4-12.8-.6-1.8-.5-2.7.1-3 .9-.1 1.8-.2 2.5-.3.9-.1 1.6-.3 2.2-.4.5.1 1.1 1 1.8 2.7.8 1.8 1.5 3.6 2.1 5.5"/><path d="M125.1 46c3 6.8 3.1 7 4.2 10.6.8 3 1.8 7.1 2.3 10.2 0 .3-.2.5-.8.7-.3-.1-.7-1-1.1-2.9-1-5.3-2.6-10.3-4.7-15.1-.7-1.8-1-2.7-.8-3 .3-.1.5-.2.6-.3 1.3 2.6 2.4 5.2 3.3 7.9.1 1.4 1.6 6.6 2.2 7.7l.1-.1c-.1-1.6-1.6-6.7-2.2-7.6-1-2.7-2.1-5.3-3.3-7.9.1-.1.1-.2 0-.3l.2.1M100.7 18.4c.4.3.9.6 1 .8-.1.1-.1.1-.2.1-1-.8-2.1-1.5-3.1-2.2-.3-.4-2.6-1.8-3.1-1.9.2.3 2.5 1.7 3 1.9 1.1.7 2.1 1.4 3.1 2.2-.1 0-.2.1-.3.1-.2 0-.6-.3-1.3-.8C98 17.4 96 16.1 94 15c-.6-.4-.9-.6-1-.7.2-.1.4-.1.5-.2.1 0 .3.1 1.3.6 2 1.1 4 2.4 5.9 3.7"/><path d="M100.4 17.7c.3.2.9.6 1.2.9.1.1 0 .2-.1.3-.2-.1-.3-.1-1.3-.8l-2.4-1.5c.1 0 .1-.1.1-.1.9.5 1.1.7 1.3.8-.3-.4-2.7-1.8-3.3-2 .1.1.1.1 1.3.9l-.1.1c-.8-.5-1.6-1-2.4-1.4-.9-.5-1.1-.6-1.2-.7.1-.1.1-.2.1-.2.1 0 .3.1 1.3.7 1.9.7 3.7 1.8 5.5 3M105.9 22.4c-.1.1-.2.1-.3.2-.8-.6-1.2-.9-1.4-.9-.1.2 2.5 2.5 3 2.5 0-.1 0-.2-1-1.1.1 0 .2-.1.3-.2.7.6 1.4 1.2 2.1 1.9.4.4.8.8 1 1.1-.2.1-.5.2-.8.3-.2 0-.6-.3-1.3-1a48.1 48.1 0 0 0-4.8-4.2c-.6-.5-.9-.8-1-.9.3-.1.6-.2.7-.3.1 0 .4.2 1.3.8.8.6 1.5 1.2 2.2 1.8"/><path d="M109.1 24.6c.8.8 1.1 1 1.1 1.1 0 .1 0 .2-.1.3-.1-.1-.3-.1-1.2-1-1.8-1.7-3.8-3.4-5.8-4.9-.8-.6-1-.8-1.1-.9 0-.1.1-.1.1-.1 1.1.8 2.2 1.7 3.3 2.5.3.4 2.4 2.2 2.9 2.5-.3-.5-2.6-2.3-2.9-2.5-1.1-.9-2.2-1.7-3.3-2.5V19c.1 0 .2.1 1.2.8 2 1.4 3.9 3.1 5.8 4.8M98.8 26.6c.4.6.5.9.1 1-.4 0-.8 0-1.3.1L95.5 25c.7-.5-1.1-2.2-2-2.4-.6-.1-.5.4-.2 1 .1.1.8 1.1 1.8 1.4l2.1 2.7c-.4 0-.9 0-1.3.1-.5 0-1-.4-1.4-1-1.2-1.7-2.4-3.2-3.7-4.7-.4-.5-.5-.8-.1-.9.9 0 1.7-.1 2.5-.1.4 0 .9.3 1.4.8 1.4 1.4 2.8 3 4.2 4.7M102.3 25.8c.6.6.7 1 .5 1.1-.8.1-1.7.1-2.7.2-.4-.1-.9-.4-1.4-1-.5-.7-1.1-1.3-1.7-1.9.5 0 1-.1 1.4-.1 1.2 1.2 1.8 1.2 1.8.8-.1-.8-2.3-2.6-2.7-2.3-.1.1 0 .5.5 1-.5 0-.9.1-1.4.1-.6-.6-1.1-1.2-1.7-1.8-.5-.6-.7-.9-.4-1 .8-.1 1.6-.1 2.3-.2.3 0 .8.3 1.4.9 1.4 1.3 2.8 2.8 4.1 4.2M102.5 31.3c-.6 0-1.2.1-1.8.1-1.2-1.4-2-1.4-2-.7 0 1.2 1.9 3 2.5 2.4.3-.3 0-.9-.1-1.2.6 0 1.2-.1 1.8-.1.5.7 1 1.5 1.4 2.2.4.7.4 1.2.1 1.3-1.2.1-2.4.1-3.7.2-.5-.1-1-.4-1.4-1.2-.9-1.7-1.9-3.4-2.9-4.9-.4-.7-.4-1 0-1.1 1.1 0 2.2-.1 3.3-.2.4 0 .9.4 1.4 1.1.4.7.9 1.4 1.4 2.1"/><path d="M108.9 34.2c.5.7.5 1.1.2 1.2-.9.1-1.9.2-2.9.2-.5 0-1-.4-1.5-1.2-1.2-2-2.6-4-4-5.8-.5-.7-.5-1-.2-1.1.4 0 .8-.1 1.1-.1.8 1 1.6 2 2.4 3.1-.7.7 1.5 3.1 2.3 3 .7-.1.1-1.6-1.1-2.5-.4-.3-.6-.4-.8-.5-.8-1-1.6-2.1-2.4-3.1.4 0 .7-.1 1.1-.1.4 0 .9.4 1.5 1 1.5 1.9 2.9 3.8 4.3 5.9M132.4 78.4c0 .9 0 1.4-.1 1.6l-.2.2v-4.1c.2-.7.1-3.2-.2-3.7 0 0-.1 0-.1.1-.2.8-.1 3.3.2 3.7v4.1c-.1.1-.2.1-.4.2-.1-.1-.2-.2-.2-1.4 0-2.5-.1-5-.3-7.4-.1-.9 0-1.4.1-1.5.3-.1.6-.3.7-.4 0 .1.1.2.2 1.3.2 2.3.3 4.8.3 7.3"/><path d="M132.4 79.2v-1.4c0-1 0-2-.1-3v-.2l.1 4.6M132.3 73.7v.2c-.1-1-.1-2-.2-2.9-.1-1-.1-1.5-.1-1.7v-.1l.3 4.5M132 85.3c-.1.1-.1.2-.3.3.1-.9.1-1.3 0-1.5-.4.2-.6 3.6-.5 4.1.1 0 .2-.1.4-1.7l.3-.3c-.1 1-.2 2-.4 3-.1.9-.3 1.5-.3 1.6-.1.2-.4.3-.8.4-.1-.1-.2-.2 0-1.4.3-2.2.6-4.5.7-6.7.1-1 .2-1.6.3-1.7.4-.2.6-.3.8-.5 0 .1.1.2 0 1.5 0 .9-.1 1.9-.2 2.9"/><path d="M131.5 89.7l-.2 1.2c.1-.5.2-1 .2-1.5.4-2.6.7-5.3.8-8 0-.6 0-1.1.1-1.7v-.1c-.2 3.1-.5 7.2-.9 10.1M127.4 80c0 .9-.3 1.5-.6 1.6-.4.1-.8.1-1.2.2v-.3-3.8c1.1-.8.6-3.5-.2-3.7-.9-.3-1.4 2.2-.6 3.4l.4.4v4.1c-.4.1-.9.1-1.3.2-.5-.1-.7-.5-.7-1.4 0-2.5-.1-5-.3-7.4 0-.9.2-1.4.6-1.5 1-.1 2-.2 2.9-.3.4 0 .6.5.7 1.4.2 2.2.3 4.6.3 7.1M130.6 78.8c0 1-.1 1.6-.4 1.7-.6.1-1.3.3-2.1.4-.3-.1-.5-.6-.5-1.6s0-2-.1-3c.5-.1.9-.1 1.3-.2.2 1.9.6 1.6.7 1.5.6-.6.4-4.2-.3-4.1-.1 0-.4.2-.4 1.8-.4.1-.8.1-1.3.2-.1-1-.1-2-.2-3s.1-1.5.3-1.6c.8-.1 1.5-.3 2.1-.4.2.1.4.5.5 1.5.3 2.2.4 4.5.4 6.8M127.2 86.9c-.5.1-1 .1-1.6.2 0-1.8-.7-1.7-1-1.4-.9.9-1 4-.1 3.9.2 0 .6-.2 1-1.7.6-.1 1.1-.1 1.6-.2-.1 1-.2 2-.4 2.9-.2 1-.4 1.5-.8 1.6-.9.1-2 .3-3.1.4-.4-.1-.5-.5-.5-1.5.3-2.2.5-4.4.6-6.7.1-1 .3-1.5.8-1.7 1.2-.1 2.2-.2 3.2-.4.3 0 .5.5.5 1.5 0 1.1-.1 2.1-.2 3.1M129.7 90.5c-.2 1-.4 1.5-.6 1.6-.5.1-1.2.3-1.9.4-.3 0-.4-.5-.3-1.5.4-2.6.7-5.3.8-8 .1-1 .3-1.5.6-1.7.3-.1.6-.1.9-.2 0 1.5-.1 3-.3 4.4-.9 1-.9 4.1-.3 4 .4-.1 1.4-3.4.6-4.1.1-1.5.2-2.9.3-4.4.3-.1.5-.1.8-.2.2 0 .3.5.3 1.5-.2 2.9-.5 5.6-.9 8.2"/></g><path fill="#60A84E" d="M116 47.3c1.1 2.8 2.5 4.4 4.1 4.9 1.5.2 2.9.4 4 .7-1.4-4.3-3.1-8.5-5.3-12.4-3.2-2.1-7.4-9-6.7-10.2 2.4-.2 8.3 8.7 7.6 10.1 0 .1-.1.1-.2.2 2.1 3.9 3.9 8.1 5.3 12.4 1 .2 1.8.4 2.5.7h.2c.2-.6-.2-1.8-1.1-4.3-3.2-7.8-7.8-14.8-13.4-20.9-2.5-2.7-3.6-3.5-4-3.7-1-.4-2.8-.7-5.2-1.1-.9.1-.6 1 1 3.1 4.7 5.9 8.5 12.9 11.2 20.5"/><path fill="#8FD4DA" d="M90.5 43.3c.8 3 2.5 4.6 5 5.1 6.7.4 12.6.9 17.4 1.4 1.7-.1 2-1.6 1.1-4.6-1.1-3-2.4-5.9-3.9-8.7-2.1-.3-4.6-.5-7.2-.7 1.2 4.8-2 4.8-4 3.8-4.4-2.4-7-9.7-3.6-10.5.1 0 3.1-.6 6.6 4.5 2.6.2 5 .5 7.1.7-1.5-2.7-3.2-5.2-5.1-7.6-1.8-2.2-3.5-3.5-5-3.9-3.4-.4-7.6-.7-12.5-1-1 .1-2.3.5-1.3 3.3 2.2 5.3 4.1 11.4 5.4 18.2"/><path fill="#38A3DC" d="M119.7 70c2.6.3 4.7.6 6.6.9.2-6.2 1.6-5.5 2.1-5.1 2.6 2.2 2.8 14.9.2 14.5-.5-.1-1.6-1.1-2.2-6.5-1.8-.3-4-.6-6.6-.9v3.8c-.1 2.3-.2 4.7-.4 7-.2 3.5.4 5.4 1.9 5.9 4.2.6 7.1 1.1 8.6 1.7.6-.1 1.2-1.9 1.6-5.2.3-2.3.4-4.6.5-6.9.1-5.8-.4-11.5-1.6-17-.7-3.2-1.4-5.1-2.1-5.6-1.5-.6-4.3-1.1-8.3-1.7-1.4.1-1.8 1.7-1.4 4.9.5 3.2.9 6.7 1.1 10.2"/><path fill="#60A84E" d="M92.5 83c0 3.4 1.4 5.3 4.3 5.8 6.6.4 12.4.9 17.2 1.4 2.1-.1 3.5-1.8 4.1-5.2.3-2.8.5-5.7.6-8.6.2-6.8-.4-13.4-1.7-19.7-.9-3.2-2.3-5-4.3-5.5-2-.2-4.3-.4-6.6-.6 1 4.7 1.8 9.6 2.1 14.6 6 2.8 5.1 12.1 1.1 14.1-4.3 2.1-8.8-4.1-7.1-10 .9-3.3 3.1-4 4-4.3-.3-5.1-1-10-2-14.6-2.5-.2-5.1-.4-7.9-.6-2.7.1-4 1.7-3.9 4.8.7 6.2.9 12.7.8 19.6-.4 3.1-.5 6-.7 8.8M72.9 101.9c0 1.6.8 2.5 2.5 2.8 1.8.1 3.5.1 5.2.2.5-2.4.9-4.9 1.2-7.4-3.8-1.3-3.1-5.2-.6-6.6 2.9-1.6 6.6.5 5.4 4-.3 1-1.2 2.2-3.4 2.7-.4 2.5-.8 5-1.3 7.4 1.7.1 3.4.2 5 .3 1.6-.1 2.7-.9 3.2-2.5 1-4.5 1.9-9.2 2.5-14 .1-1.8-.8-2.8-2.5-3.1-1.8-.1-3.6-.2-5.5-.3-2.4-.1-4.9-.2-7.3-.3-1.9.1-3 1-3.3 2.8-.1 4.8-.6 9.5-1.1 14"/><path fill="#8FD4DA" d="M53.4 100.2c.2 1.8 1 2.7 2.6 2.9 4.2.1 8.5.2 12.8.3 1.6-.1 2.5-1 2.8-2.8.2-1.8.4-3.7.5-5.6-2.5-.1-4.9-.2-7.4-.2-1.2 4-4.9 3.7-6.3 1.3-1.7-3 .6-6.7 3.7-6 1 .2 2.2 1 2.7 3.2 2.5.1 5 .1 7.4.2.2-1.9.3-3.8.4-5.8 0-1.9-.9-3-2.6-3.3-4.7-.2-9.4-.3-14-.4-1.7.2-2.6 1.2-2.8 3.1.2 4.6.2 8.9.2 13.1"/><path fill="#467081" d="M70.6 113.8c2.2.1 4.4.2 6.5.3 1.7-3.5 5.1-3.2 5.8-1 .8 2.8-2.5 6-4.9 4.8-1.2-.6-1.2-2-1.2-2.5-2.1-.1-4.3-.2-6.4-.3-.3 1.6-.5 3.2-.8 4.7-.1 1.5.4 2.3 1.7 2.5 2.1.1 4.1.2 6.2.3 1.5.1 2.9.1 4.3.2 1.3-.1 2.2-.8 3-2.3 1.4-3.4 2.7-7.1 3.8-11 .3-1.7-.2-2.6-1.6-2.9l-5.1-.3-7.5-.3c-1.6.1-2.5 1-2.9 2.7-.4 1.7-.6 3.4-.9 5.1"/><path fill="#8FD4DA" d="M53.9 121.4c.2 1.5 1 2.2 2.4 2.4l9.6.3c1.4-.1 2.3-.8 2.7-2.3.7-4.1 1.4-8.5 2-13.2 0-1.7-.8-2.7-2.5-2.9-1.8-.1-3.5-.1-5.3-.2-.1 2.6-.3 5.2-.4 7.6 3.6 1.2 2.7 5.4.2 6.4-2.6 1-5.1-1.6-4.1-4.3.6-1.6 2-2 2.6-2.1.1-2.5.2-5 .3-7.6-1.7 0-3.5-.1-5.2-.1-1.7.1-2.6 1-2.7 2.8.1 4.7.2 9.1.4 13.2"/><path fill="#60A84E" d="M111.2 127.8c-1.3 1.4-1.7 1.9-1.8 2.3.4.3.5.5.3.7l1.2-1.2c5-5.4 5.1-5.5 7.3-8.5 1.5-2.2 3.4-5.1 4.8-7.3 0-.1.1-.2 0-.3-1.4 2.5-2.9 4.8-4.6 7.1-.7 1.3-3.9 5.2-4.9 6v-.1c.6-1 4.1-5.4 4.9-6.1 1.7-2.3 3.2-4.7 4.6-7.1l-.4-.4c-.3 0-.9.8-1.9 2.5-2.8 4.5-5.9 8.6-9.5 12.4"/><g fill="#60A84E"><path d="M89.6 11.7c.2.1.4.1.5.2-.1 0-.1-.1-.2-.1-1.8-.8-4.2-1.8-6-2.4L82 8.7c.2 0 .3.1.5.2 2.4.8 4.8 1.7 7.1 2.8"/><path d="M85.8 10.3c2.1.9 2.5 1.1 2.9 1.2.3.1.5.1.7.2-2.3-1.1-4.7-2-7.1-2.8-1.9-.6-2.9-.9-4.8-1.4-1.3-.3-3-.7-4.3-.9 4.4.7 8.6 2 12.6 3.7"/></g><path fill="#60A84E" d="M81 9.4c1.7.8 2.4 1 2.9 1.1 1.1.1 2.1.2 2.8.4-.2-.2-.3-.3-2.1-1.1-1.7-.7-3.4-1.3-5.1-1.8-.3 0-.6-.1-.9-.1.6.2 1.6.5 2.1.8-.2 0-.3 0-6.6-2 0 0 .8.1 3.2.8.3 0 .6.1.9.1-1.7-.5-3.5-.9-5.3-1.2-.2 0-.4-.1-.6-.1-1-.2-1.9-.3-3.3-.5.8.1 1.3.2 2 .3 3.5.7 6.8 1.8 10 3.3M96.5 16.2c.5.1 1 .2 1.4.3-1.8-1.2-2-1.4-2.2-1.5 1.1.3 5.8 3.5 6.5 4.3-.3-.1-.4-.1-3.1-2-.4-.1-.9-.2-1.5-.3 1.5 1 2.9 2.1 4.2 3.3 1.5 1.2 2.3 1.9 2.8 2 1.1.2 1.9.4 2.5.6-.1-.1-.2-.3-2-1.8-3.4-2.7-7-5.1-10.8-7.2-1.8-1-2.7-1.4-2.9-1.5-.4-.1-.9-.3-1.6-.4.2.2.3.2 2 1.3 1.7.9 3.2 1.9 4.7 2.9"/><path fill="#60A84E" d="M96 20c1.2 1.2 2.2 1.8 3 2 1.7.2 3.2.4 4.5.6h.1c.2-.3-.6-1.1-1.4-1.8-3.6-3.2-7.6-5.9-11.8-8.2-2-1-2.8-1.3-3.1-1.4-.3-.1-.7-.1-1.1-.2 2.2 1.1 4.4 2.4 6.4 3.8 2 .7 5.3 3.1 5.5 4.1l-.1.1c-1.2.1-5.7-3.4-5.9-4.2-2-1.5-4.1-2.7-6.3-3.8-.4 0-.9-.1-1.3-.2h-.1c.1.2.1.3 1.5 1.1 3.7 2.3 7 5 10.1 8.1M122.9 41.9c.9 1.6 1.5 2.6 1.6 2.9-1.5-2.6-3.5-6-5.1-8.5-1.6-2.1-3.7-4.8-5.3-6.7.6.6 1 1.1 1.4 1.7 2.7 3.2 5.2 6.8 7.4 10.6M78.1 10.2c.8.5 1.5.8 2.1.9.5 0 1.1.1 1.6.1-1.2-.8-2.5-1.6-3.8-2.3-1.2-.3-3.4-1.3-3.7-1.6.5-.2 3.6 1 4.1 1.5v.1c1.3.7 2.6 1.4 3.9 2.3.5 0 1 .1 1.4.1.1 0 .1 0 .2-.1 0-.2-.4-.4-1-.8-2.6-1.5-5.3-2.6-8.2-3.5-1.3-.4-1.9-.5-2-.5-.5 0-1.1-.1-1.7-.1.1.1.1.1.9.4 2 1 4.1 2.1 6.2 3.5"/><path fill="#60A84E" d="M71.5 9.5c.6.5 1.1.8 1.7.9 1.5.1 3 .2 4.4.3.1 0 .2 0 .2-.1.1-.2-.2-.4-.7-.8-.8-.5-1.6-1-2.5-1.5-.6 0-1.2-.1-1.8-.1.8.6.5.7.4.7-.6.1-3.2-1.2-3.1-1.7.2-.1 1.1.1 2.1.6.6 0 1.1.1 1.7.1-.8-.4-1.7-.8-2.6-1.1-1.1-.4-1.6-.5-1.8-.5-.7 0-1.4-.1-2.2-.1h-.1v.1c.1.1.2.2.5.4 1.5.6 2.7 1.6 3.8 2.8M83.2 14.8c.9.1 1.8.1 2.7.2-.7-.8-.8-1.2-.3-1.2 1.2.1 4.5 2.5 3.9 3.2-.1.2-1 .3-3-1.4-.9-.1-1.8-.1-2.8-.2.7.8 1.4 1.6 2.1 2.5.8.9 1.5 1.4 2.3 1.5 2 .1 3.8.3 5.5.5.5 0 .4-.5-.4-1.4-2-2-4.2-3.8-6.5-5.4-1-.7-1.8-1-2.3-1.1-1.2-.1-2.5-.2-3.9-.3-.4 0-.3.3.4 1 .8.6 1.5 1.3 2.3 2.1"/><path fill="#73CAE4" d="M77.1 17.8c.5.9 1.2 1.4 2.2 1.5 2.2.1 4.2.2 6.2.4.8 0 .9-.5.3-1.4-1.8-2.4-3.7-4.5-5.8-6.2-.8-.6-1.5-1-2.1-1.1-.6 0-1.2-.1-1.8-.1 1 .9 1.9 1.9 2.8 2.9 2.1.6 3.6 2.6 2.7 3.1-1.2.7-4.3-1.7-3.7-2.9.1-.2.3-.2.4-.3-.9-1.1-1.8-2.1-2.7-2.9-.6 0-1.2-.1-1.9-.1-.6 0-.7.3-.3.9 1.3 1.8 2.5 3.9 3.7 6.2"/><path fill="#467081" d="M75.6 133.2c-.2.6-.1.8.4.9.5 0 1.1.1 1.6.1.5-.8.9-1.6 1.4-2.5-1-.4-.3-1.8.7-2.3 1-.5 1.7 0 1.5.9 0 0-.4 1.1-1.7 1.4-.5.9-1 1.7-1.4 2.5.5 0 1 .1 1.6.1.5 0 1-.3 1.4-.8 1-1.5 1.9-3.1 2.8-4.8.3-.6.1-1-.4-1.1-1.3-.1-2.7-.2-4.2-.2-.7 0-1.1.3-1.4.9-.8 1.8-1.5 3.4-2.3 4.9"/><path fill="#60A84E" d="M69.4 132.6c-.1.6 0 .9.5 1 1.3.1 2.6.1 3.8.2h.3c.5 0 .9-.3 1.3-.9.3-.6.6-1.2.9-1.9-.4 0-.8 0-1.2-.1-.4 0-.8 0-1.2-.1-.9 1.3-2.1 1.2-2.2.4-.3-1.1 1.2-2.5 2.1-2 .5.3.4.8.4 1.1.4 0 .8 0 1.2.1.4 0 .8 0 1.2.1.3-.6.6-1.3.8-2 .2-.7.1-1-.5-1.1h-.4c-1.5-.1-3-.1-4.5-.2-.6 0-1 .4-1.3 1.1-.3 1.4-.7 2.9-1.2 4.3M73.3 137.2c.7 0 1.3.1 2 .1 1-1.1 1.9-1.1 1.9-.5.1.9-1.7 2.2-2.2 1.8-.3-.2-.1-.7 0-.9-.6 0-1.3-.1-2-.1-.3.5-.6 1.1-1 1.6-.3.5-.2.8.1.8 1.1.1 2.1.1 3.1.2.4 0 .8-.3 1.3-.7 1-1.1 1.9-2.4 2.9-3.7.4-.6.3-.9-.1-1-1.2-.1-2.5-.1-3.9-.2-.5 0-.9.3-1.3.9-.2.6-.5 1.2-.8 1.7"/><path fill="#467081" d="M67 139.2c-.2.5-.1.8.4.8 1 0 2 .1 3 .1h.1c.5 0 .9-.3 1.2-.8.9-1.4 1.7-2.8 2.5-4.4.2-.6.1-.9-.4-1h-.1c-.5 0-1.1-.1-1.6-.1-.4.9-.8 1.7-1.1 2.6 1.1.5 0 1.8-.9 2.1-.8.3-1.3-.3-.9-1.1.1-.3.5-.9 1.4-1.1.4-.8.7-1.7 1.1-2.6-.6 0-1.1-.1-1.7-.1-.6 0-1 .3-1.2.9-.7 1.9-1.3 3.4-1.8 4.7"/><path fill="#60A84E" d="M69.4 13.2c.2.4.5.6 1.1.7.5 0 1 0 1.5.1-.3-.6-.6-1.2-.9-1.7C70 12 69.6 11.2 70 11c.5-.4 1.9.4 1.9 1 0 .3-.3.3-.4.3.3.5.6 1.1.9 1.7.5 0 1 .1 1.5.1s.6-.2.4-.6c-.7-1.1-1.4-2.1-2.1-2.9-.3-.3-.6-.5-1.1-.5-.9 0-1.7-.1-2.6-.1-.4 0-.5.2-.3.5.3.6.8 1.6 1.2 2.7M64 12.7c.1.4.4.6.8.7 1.2 0 2.4.1 3.6.1.4 0 .6-.3.5-.7-.2-.4-.3-.8-.5-1.2-.6 0-1.2 0-1.8-.1 0 .8-.8.8-1.3.4-.6-.5-.5-1.2.1-1.3 0 0 .7-.1 1.1.6.6 0 1.2 0 1.7.1-.2-.4-.3-.7-.5-1.1-.2-.3-.5-.5-.8-.6-.9 0-1.9-.1-2.8-.1-.3 0-.5.2-.5.5.2.9.3 1.8.4 2.7"/><path fill="#73CAE4" d="M70.3 16.4c.8 0 1.5.1 2.3.1-.1-1.1 1-1 1.8-.3s.7 1.7-.2 1.6c-.2 0-.9-.1-1.4-.9-.8 0-1.5-.1-2.3-.1.2.5.3 1 .5 1.6.2.5.6.8 1.1.9 1.5.1 3 .1 4.5.2.5 0 .7-.3.5-.8-.6-1.2-1.1-2.4-1.8-3.5-.3-.5-.7-.7-1.2-.8-1.3-.1-2.5-.1-3.8-.2-.4 0-.6.2-.5.7.2.5.3 1 .5 1.5"/><path fill="#60A84E" d="M64.6 18.4c.1.5.5.8 1.1.9 1.4 0 2.8.1 4.2.1.6 0 .8-.3.8-.8-.4-1.5-.8-2.8-1.2-4.1-.2-.4-.5-.7-1-.8H67c.2.6.3 1.3.5 2.1 1.3.3 1.5 1.5.8 1.9-.9.6-2.3-.4-2-1.3.1-.5.6-.6.7-.6-.1-.7-.3-1.4-.4-2.1-.5 0-1 0-1.5-.1-.5 0-.7.3-.7.7-.1 1.3 0 2.6.2 4.1M42.3 38.5c-.1.7.3 1.1 1 1.2h2.4c.2-1.1.3-2.2.5-3.2-1.6-.5-1.2-2.1-.1-2.7 1.3-.7 2.7.2 2.2 1.5-.1.4-.5.9-1.5 1.2-.2 1.1-.3 2.1-.5 3.2h2.4c.8-.1 1.3-.4 1.5-1.2.2-2 .5-3.9.7-5.7 0-.7-.3-1-1.1-1.1h-5.1c-.7.1-1.2.4-1.4 1.1-.3 1.8-.7 3.7-1 5.7M34 38c-.1.8.1 1.2.7 1.3h5.6c.7-.1 1.2-.5 1.4-1.3.2-.8.3-1.6.5-2.3h-3c-.8 1.6-2.4 1.6-2.7.6-.4-1.3 1.2-2.9 2.3-2.4.6.3.6.9.6 1.2h3c.2-.8.3-1.5.5-2.3.1-.7-.2-1.1-.8-1.2h-5.2c-.6.1-1.1.5-1.4 1.2-.5 1.6-1 3.4-1.5 5.2M40.9 44.1h3.4c.7-1.8 2.5-1.7 3-.6.7 1.4-.8 3.2-2.2 2.6-.7-.3-.8-1-.9-1.3h-3.4c-.1.9-.3 1.7-.4 2.6 0 .8.3 1.3 1.1 1.4 2.1 0 4.3 0 6.5.1.8-.1 1.3-.5 1.4-1.4.2-2 .4-3.9.6-5.8 0-.8-.3-1.2-1.1-1.3-2.1 0-4.1 0-6.1-.1-.7.1-1.2.5-1.4 1.3-.2.8-.3 1.7-.5 2.5"/><path fill="#73CAE4" d="M31.7 47.8c-.1.9.3 1.3 1.1 1.4h5.6c.8-.1 1.3-.5 1.5-1.4.3-2.4.7-4.6 1.1-6.8.1-.8-.3-1.2-1-1.3h-2.4c-.3 1.2-.5 2.4-.7 3.6 1.8.6 1.1 2.8-.3 3.4-1.4.6-2.5-.6-2-1.9.2-.5.6-1.1 1.6-1.4.2-1.2.5-2.4.8-3.6h-2.3c-.8.1-1.3.5-1.5 1.3-.6 2.1-1 4.3-1.5 6.7"/><path fill="#60A84E" d="M102 136.6c-.7.5-.9.7-1.1.8 0 .1 0 .1.1.1 1-.7 2.1-1.5 3.1-2.3.3-.3 2.3-1.9 2.7-2.2-.2.4-2.5 2.1-2.7 2.3-1 .8-2 1.5-3.1 2.3v.1c.1 0 .2-.1 1.1-.7 1.9-1.4 3.7-2.8 5.5-4.3.8-.7 1-.9 1.1-1 0-.1 0-.2-.1-.3-.1.1-.2.1-1.1.9-1.8 1.5-3.6 2.9-5.5 4.3"/><path fill="#60A84E" d="M101.6 135.8c-.6.5-.9.7-1 .9.3.1.5.2.7.3.1 0 .4-.2 1.3-.8.8-.6 1.5-1.1 2.2-1.7-.1-.1-.2-.1-.3-.2-.8.6-1.2.9-1.4.9 0-.3 2.6-2.4 3-2.5 0 .1-.1.3-1 1.1.1.1.2.1.3.2l2.1-1.8c.4-.4.9-.8 1-1-.2-.1-.4-.3-.8-.4-.2 0-.6.3-1.3 1-1.5 1.4-3.2 2.7-4.8 4M96.6 140.2c.1 0 .1.1.1.1.9-.5 1.1-.7 1.3-.7-.4.4-2.8 1.7-3.3 2 .1-.1.1-.1 1.3-.8l-.1-.1c-.8.5-1.6.9-2.5 1.4-1 .5-1.1.6-1.3.7.1.1.1.2 0 .2.1 0 .3-.1 1.3-.6 1.9-1 3.7-2.1 5.5-3.2 1-.7 1.3-.8 1.3-.9 0-.1 0-.2-.1-.3-.1.1-.3.1-1.3.8-.6.4-1.4.9-2.2 1.4M92.3 141.8c-.8.5-1.1.6-1.2.7.2.1.4.2.5.2.1 0 .4-.1 1.4-.6 2.2-1.2 4.4-2.5 6.5-3.9.3-.2.9-.6 1.2-.9-.1-.1-.1-.1-.2-.1-1.1.8-2.3 1.6-3.4 2.3-.5.5-3 1.9-3.4 2 .3-.4 2.8-1.8 3.3-2 1.2-.7 2.3-1.5 3.4-2.3-.1 0-.2-.1-.3-.1-.2 0-.6.3-1.4.8-2 1.4-4.2 2.7-6.4 3.9M62.2 132.2c0 .6.2.9.8.9h1.7c.2-.8.3-1.7.5-2.6-1.3-.4-1-1.8-.1-2.3.9-.5 2.1 0 1.9 1.1-.1.3-.3.9-1.3 1.2-.2.9-.4 1.7-.5 2.6.6 0 1.2 0 1.7.1.6 0 1-.3 1.2-.9.4-1.6.9-3.2 1.3-4.9.1-.6-.2-1-.8-1.1-1.5-.1-3.1-.1-4.6-.2-.7 0-1 .4-1.2 1-.2 1.9-.4 3.6-.6 5.1M55.8 131.7c.1.6.4.9.9 1 1.4 0 2.8.1 4.2.1.5-.1.8-.4 1-1 .1-.6.1-1.3.2-1.9-.8 0-1.7 0-2.5-.1-.4 1.4-1.6 1.3-2.1.4-.6-1 .2-2.4 1.2-2.1.3.1.8.3.9 1.1.8 0 1.7 0 2.5.1.1-.7.1-1.3.2-2 0-.7-.3-1-.9-1.1-1.6 0-3.3-.1-4.9-.1-.6.1-.9.4-.9 1.1.1 1.5.1 3 .2 4.5M61.5 136.3c.7 0 1.4 0 2.1.1.6-1.3 1.7-1.1 1.9-.4.3.9-.8 2.1-1.6 1.7-.4-.2-.4-.7-.4-.9-.7 0-1.4 0-2.1-.1-.1.5-.2 1.1-.2 1.6s.1.8.6.9c1.2 0 2.3.1 3.5.1.4 0 .8-.3 1-.8.4-1.2.9-2.4 1.3-3.8.1-.6-.1-.9-.5-1-1.4-.1-2.8-.1-4.3-.1-.5 0-.8.3-1 .9-.2.7-.2 1.2-.3 1.8"/><path fill="#467081" d="M56.1 138.5c.1.5.3.8.8.8 1 0 2.1 0 3.1.1.5 0 .7-.3.9-.8.2-1.4.4-2.9.6-4.5 0-.6-.3-.9-.8-1H59c0 .9-.1 1.8-.1 2.6 1.2.4.9 1.8.1 2.2-.8.3-1.7-.6-1.4-1.5.2-.6.6-.7.8-.7 0-.8 0-1.7.1-2.6h-1.7c-.6 0-.8.4-.9.9 0 1.6.1 3.1.2 4.5"/><path fill="#60A84E" d="M42.6 87.1c.1.9.6 1.3 1.5 1.4h2.7v-4c-1.9-.5-1.9-2.6-.7-3.4 1.4-.9 3.3.3 3 1.9-.1.5-.4 1.2-1.5 1.5v4h2.8c.9-.1 1.4-.5 1.5-1.4 0-2.4 0-4.8.1-7.3-.1-.9-.5-1.4-1.5-1.5-2.1 0-4.2-.1-6.3-.1-.9.1-1.4.6-1.5 1.5-.1 2.5-.1 5-.1 7.4"/><path fill="#38A3DC" d="M33 86.4c.1 1 .5 1.4 1.3 1.5h6.4c.8-.1 1.2-.6 1.2-1.5 0-1 0-1.9-.1-2.9h-3.6c-.4 2.1-2.2 2-3 .7-.9-1.5.2-3.5 1.6-3.2.4.1 1.1.4 1.4 1.6h3.6v-3c-.1-1-.5-1.5-1.3-1.6H34c-.8.1-1.2.6-1.2 1.6.1 2.4.1 4.6.2 6.8M22.1 72.5c-.5.9-.5 1.6.1 2.2l5.4 4.2c.7.4 1.4.3 2-.5.6-.8 1.3-1.7 1.9-2.5l-3-2.4c-1.7 1.5-3.2.2-3-1.3.2-1.8 2.4-2.9 3.4-1.6.3.3.6 1 .1 2.3l3 2.4c.6-.8 1.3-1.7 1.9-2.5.6-.9.6-1.6 0-2.2-1.9-1.5-3.7-2.9-5.5-4.3-.7-.4-1.4-.2-2.1.6-1.4 1.7-2.8 3.6-4.2 5.6"/><path fill="#60A84E" d="M80.6 140.3c-.3-.4-.5-.5-.9-.4-.9.4-1.8.9-2.7 1.3-.3.2-.4.5-.2.9l.6 1.2c.5-.2 1-.5 1.5-.7-.3-1 .5-1.3 1.1-.9.7.4.7 1.5 0 1.6-.2 0-.5.1-.9-.4-.5.2-1 .5-1.5.7l.6 1.2c.2.4.5.5.9.4.9-.4 1.8-.9 2.7-1.4.3-.2.4-.5.2-.9-.4-.8-.9-1.7-1.4-2.6M48.4 101.1c-.5 0-.7.2-.8.5l-.3 3c0 .4.2.6.7.6.5 0 .9.1 1.4.1 0-.6.1-1.1.1-1.7-1-.3-.8-1.1-.2-1.4.7-.3 1.6.2 1.4.9-.1.2-.2.5-.8.6 0 .6-.1 1.1-.1 1.7.5 0 .9.1 1.4.1.5 0 .7-.2.8-.5l.3-3c0-.4-.2-.6-.7-.6-1.1-.2-2.2-.2-3.2-.3M58 77.9c-.3.4-.3.7-.1.9l2.1 2.1c.3.2.6.2.9-.1.3-.3.6-.7 1-1l-1.2-1.2c-.8.5-1.4-.1-1.2-.7.2-.8 1.2-1.1 1.6-.5.1.2.2.5-.1 1l1.2 1.2c.3-.3.6-.7 1-1 .3-.4.3-.7.1-1-.7-.7-1.4-1.5-2.1-2.2-.3-.2-.6-.2-.9.1-.9.9-1.7 1.6-2.3 2.4M38.5 51.1c-.3-.4-.5-.5-.9-.4-.9.4-1.8.9-2.7 1.3-.3.2-.4.5-.2.9l.6 1.2c.5-.3 1-.5 1.5-.7-.3-1 .5-1.3 1.1-.9.7.4.7 1.5 0 1.7-.2 0-.5.1-.9-.4-.5.2-1 .5-1.5.7l.6 1.2c.2.4.5.5.9.4.9-.5 1.8-.9 2.7-1.4.3-.2.4-.5.2-.9-.4-.9-.9-1.8-1.4-2.7"/><path fill="#38A3DC" d="M49.9 25.7c-.3-.4-.5-.5-.9-.4-.9.4-1.8.9-2.7 1.3-.3.2-.4.5-.2.9l.6 1.2c.5-.2 1-.5 1.5-.7-.3-1 .5-1.3 1.1-.9.7.4.7 1.5 0 1.7-.2 0-.5 0-.9-.4-.5.2-1 .5-1.5.7l.6 1.2c.2.4.5.5.9.4.9-.5 1.8-.9 2.7-1.4.3-.2.4-.5.2-.9-.4-.9-.9-1.8-1.4-2.7"/><path fill="#60A84E" d="M60.9 14.6c-.3-.4-.5-.5-.9-.4-.9.4-1.8.9-2.7 1.3-.3.2-.4.5-.2.9l.6 1.2c.5-.2 1-.5 1.5-.7-.3-1 .5-1.3 1.1-.9.7.4.7 1.5 0 1.7-.2.1-.5.1-.9-.4-.5.2-1 .5-1.5.7l.6 1.2c.2.4.5.5.9.4.9-.5 1.8-.9 2.7-1.4.3-.2.4-.5.2-.9-.4-.9-.8-1.8-1.4-2.7"/><path fill="#38A3DC" d="M27.1 44.9c-.4-.1-.7 0-.9.3L25 47.9c-.1.3 0 .6.4.8.4.2.8.4 1.3.5.2-.5.5-1 .7-1.5-.8-.6-.4-1.3.3-1.4.8-.1 1.5.7 1 1.3-.1.1-.4.4-1 .3-.2.5-.5 1-.7 1.5.4.2.8.4 1.3.6.4.2.7.1.9-.2.4-.9.9-1.9 1.3-2.8.1-.3 0-.6-.4-.8-1.1-.5-2-.9-3-1.3"/><path fill="#60A84E" d="M23.4 44.1c.2-.1.3-.3.3-.5-.2-.6-.4-1.1-.5-1.7-.1-.2-.3-.3-.5-.2-.3.1-.5.2-.8.3.1.3.2.6.3 1 .6-.1.7.4.4.7-.3.4-1 .2-1-.2 0-.1 0-.3.3-.5-.1-.3-.2-.6-.3-1-.3.1-.5.2-.8.2-.3.1-.4.3-.3.5.2.6.4 1.2.5 1.8.1.2.3.3.5.2.7-.2 1.3-.4 1.9-.6"/><path fill="#38A3DC" d="M42.5 93.7h3.6c.4-2 2.3-1.9 3.1-.7.9 1.4-.1 3.3-1.6 3-.5-.1-1.1-.5-1.4-1.6h-3.6c0 .9.1 1.9.2 2.8.1.9.6 1.4 1.4 1.5 2.1 0 4.3 0 6.5.1.8-.1 1.2-.5 1.3-1.4V91c-.1-.9-.5-1.5-1.4-1.6-2.3 0-4.5-.1-6.7-.1-.8.1-1.2.6-1.3 1.5-.2 1-.1 1.9-.1 2.9"/><path fill="#60A84E" d="M33.8 97.6c.2.9.7 1.4 1.5 1.5H41c.8-.1 1.2-.6 1.3-1.5-.2-2.5-.3-5-.4-7.6-.1-.9-.6-1.5-1.5-1.6h-2.7c.1 1.4.1 2.8.2 4.2 2 .7 1.9 3.1.6 3.7-1.5.7-3.1-1.1-2.4-2.8.3-.7.9-.9 1.1-1-.1-1.4-.2-2.8-.2-4.2h-2.6c-.8.1-1.3.6-1.3 1.6.2 2.7.4 5.2.7 7.7M78.7 64.8c.1 1.2.8 1.8 2.1 2 1.3.1 2.6.1 3.9.2 0-1.8-.1-3.6-.1-5.3-2.7-.8-2.7-3.5-1.2-4.4 2.1-1.2 4.8.8 4 3-.4 1.1-1.4 1.4-1.9 1.5.1 1.7.1 3.5.1 5.3.7 0 1.3.1 2 .1.6 0 1.2.1 1.8.1 1.2-.1 1.9-.6 1.9-1.8-.1-3.3-.3-6.4-.6-9.5-.2-1.1-.9-1.7-2.1-1.9-.6 0-1.2-.1-1.8-.1l-6.6-.3c-1.2.1-1.8.6-1.9 1.7.3 3 .3 6.1.4 9.4M64.6 63.5c.1 1.3.7 2 1.8 2.1 3.1.1 6.3.2 9.4.3 1.2-.1 1.8-.7 1.9-2 0-1.3 0-2.6-.1-3.9-1.7-.1-3.4-.1-5.1-.2-.7 2.7-3.3 2.5-4.3.8-1.2-2 .4-4.5 2.4-4 .6.2 1.5.6 1.9 2.1 1.7.1 3.4.1 5.1.2 0-1.3-.1-2.5-.1-3.8-.2-1.2-.7-1.9-1.9-2-3-.1-6-.2-9.1-.3-1.1.1-1.7.7-1.8 1.9 0 2.9 0 5.8-.1 8.8"/><path fill="#38A3DC" d="M78.1 74c1.8.1 3.5.1 5.3.2.8-2.9 3.5-2.6 4.5-.8 1.2 2.1-.5 4.8-2.6 4.2-.7-.2-1.6-.7-1.9-2.3-1.7-.1-3.5-.1-5.3-.2 0 1.4-.1 2.7-.1 4.1.1 1.3.7 2 1.8 2.2 2.5.1 5.1.2 7.6.3.7 0 1.3.1 2 .1 1.1-.1 1.8-.7 1.9-2 .1-1.6.1-3.3.2-4.9 0-1.5.1-2.9 0-4.4-.1-1.3-.7-2-1.8-2.2-.7 0-1.3-.1-2-.1-2.5-.1-5-.2-7.6-.3-1.2.1-1.8.8-1.9 2.1-.1 1.3-.1 2.6-.1 4"/><path fill="#60A84E" d="M64.2 79.3c.1 1.3.8 2.1 2 2.2 2.9.1 5.9.2 8.8.3 1.3-.1 2-.8 2.1-2.1.1-1.8.1-3.7.2-5.5 0-1.8.1-3.7.1-5.5-.1-1.3-.8-2-2.1-2.2-1.3 0-2.6-.1-3.9-.1 0 1.9 0 3.9-.1 5.9 3 1.1 2.5 4.6.4 5.4-2.2.9-4.4-1.4-3.5-3.7.5-1.3 1.6-1.6 2-1.7 0-2 .1-4 .1-5.9-1.3 0-2.6-.1-3.9-.1-1.3.1-2 .8-2.1 2.1 0 1.8-.1 3.6-.1 5.5.1 1.8 0 3.6 0 5.4"/><path fill="#38A3DC" d="M50.1 61c0 .9.5 1.3 1.4 1.4.9 0 1.9 0 2.8.1 0-1.3.1-2.6.1-3.9-1.9-.5-1.8-2.5-.6-3.2 1.4-.8 3.2.3 2.9 1.8-.1.4-.4 1.1-1.6 1.4 0 1.3-.1 2.6-.1 3.9.9 0 1.9 0 2.8.1.9-.1 1.4-.5 1.6-1.4.1-2.4.1-4.7.2-7-.1-.8-.5-1.3-1.4-1.4-2.1-.1-4.1-.1-6.2-.1-.9.1-1.4.5-1.5 1.3-.1 2.3-.3 4.6-.4 7"/><path fill="#60A84E" d="M40.2 60.3c0 .9.4 1.4 1.2 1.5 2.2 0 4.4 0 6.6.1.8-.1 1.3-.6 1.4-1.5 0-1 .1-1.9.1-2.8h-3.6c-.7 2-2.5 1.9-3.1.7-.7-1.4.5-3.3 1.9-3 .4.1 1 .4 1.2 1.5h3.6c.1-.9.1-1.8.2-2.8 0-.9-.4-1.4-1.2-1.5-2.2 0-4.3 0-6.4-.1-.8.1-1.2.6-1.4 1.5-.1 2.1-.3 4.2-.5 6.4M49.5 67.7c1.3 0 2.5 0 3.8.1.6-2.1 2.6-1.9 3.3-.7.9 1.5-.3 3.5-1.9 3.1-.5-.1-1.1-.5-1.4-1.7-1.3 0-2.6 0-3.8-.1 0 1-.1 2-.1 3 .1 1 .5 1.5 1.3 1.6 2.3 0 4.7.1 7.1.1.9-.1 1.3-.6 1.4-1.6.1-2.3.1-4.5.2-6.8-.1-.9-.5-1.5-1.4-1.6-2.4 0-4.7-.1-7-.1-.8.1-1.3.6-1.4 1.5-.1 1.2-.1 2.2-.1 3.2"/><path fill="#73CAE4" d="M39.6 71.9c.1 1 .5 1.5 1.4 1.6 2.1 0 4.2 0 6.3.1.9-.1 1.4-.6 1.5-1.6.1-2.7.2-5.4.3-8-.1-1-.5-1.5-1.4-1.6H45c-.1 1.4-.1 2.8-.2 4.3 2.1.7 1.7 3.3.2 3.9-1.6.7-3.1-1-2.4-2.6.4-1 1.1-1.2 1.5-1.3.1-1.4.1-2.9.2-4.3h-2.7c-.9.1-1.4.6-1.5 1.5-.3 2.6-.4 5.2-.5 8"/><path fill="#8FD4DA" d="M70.3 43c2.1.1 4.8.1 6.9.2.3-1.7 1.1-2.5 2.8-2.6 3.8.6 4.6 4.8 2.6 6.3-.6.4-1.2.5-1.8.5-1.8-.2-2.8-1.1-3.5-2.9-2.1-.1-4.9-.1-7-.2l.2 5c.3 2.3 2 2.7 2.2 2.8 1.8.4 4.2.2 6 .2 2.3.1 5.4.2 7.8.3 2.6-.2 3.1-.7.1-13.8-.5-1.5-1.4-2.3-2.8-2.5-5.8-.3-6.7-.3-11.7-.4-2.3.1-2.3.4-1.8 7.1"/><path fill="#60A84E" d="M70.3 32.6c.3 1.3 1.1 2 2.7 2.1l4.7.2c-.3-1.7-.8-4-1.1-5.6-3.3-.9-3.5-3.6-2.1-4.5.5-.3 1-.3 1.5-.3 3.2.4 4.4 3.2 3 4.3-.4.3-.9.4-1.2.5.4 1.7.9 4 1.2 5.6l4.6.2c2.2-.1 3.2-.1-1.6-11.6-.6-1.1-1.4-1.6-2.7-1.8-5-.2-5.2-.2-8.5-.3-1.6.1-1.7 1.1-1.7 1.3l1.2 9.9"/><path fill="#38A3DC" d="M51.6 49.3c.1 1.6.9 2.4 2.6 2.6 6.2.1 7.5.1 12.1.2 3.1-.2 3.1-.2 2.2-14.6-.3-1.4-1.1-2.1-2.6-2.3l-4.7-.2c0 1.9 0 4.4-.1 6.3 3.7 1 3.5 4.4 1.3 5.7-.7.4-1.4.5-2 .5-4.1-.5-4.1-4.1-2.2-5.6.6-.4 1.2-.6 1.6-.7 0-1.9.1-4.4.1-6.3h-4.7c-2.2.2-2.6 1.7-2.6 1.7-.2 1.2-1 12.6-1 12.7"/><path fill="#60A84E" d="M52.4 31.8c0 1.9 1.4 2.2 1.7 2.3 1.5.3 3.7.1 5.3.1 2.4 0 5.5.1 7.9.1 2.5-.2 2.5-.5 1.8-6.4-1.9 0-4.4-.1-6.3-.1-.4 1.4-1.4 2.1-3 2.2-3.4-.4-3.3-3.4-1.8-4.7.7-.6 1.4-.7 2-.7 1.5.2 2.3.8 2.8 2.2 1.9 0 4.4.1 6.2.1l-.5-3.8c-.3-1.2-1-1.8-2.3-1.9-4.1-.1-5.6-.1-10.1-.1-1.8.1-3 .2-3.7 10.7M100.9 128.3c1.1.1 2.7.3 3.8.4 2.1-2 3.3-2.8 4.2-2.9.1 0 .2.1.2.1.4 1.9-5.3 7.1-7.4 7.3 0 0-.1-.1-.2-.1-.1-.4.2-1.1 1.8-3-1.1-.1-2.6-.3-3.7-.4-1.5 1.6-3.4 3.6-4.9 5.1-1.4 1.3-1.9 2.1-1.8 2.5 0 0 .1.1.2.1 1.9.2 3 .4 4.5.6 1.5-.2 9.2-5.8 16.2-14.3 1.5-1.9 2-3.1 1.7-3.4-1.8-.3-2.9-.5-6.4-.9-.4 0-1.2.1-2.8 1.9-2.1 2.1-3.6 4.7-5.4 7M110.6 114.5c-.9 1.9-.9 3 .1 3.3.9.1 2.1.3 3 .4 1.5-2.6 3.5-6.2 4.9-8.9-1.7-1.9 1.4-9 3.9-8.9 1.2.5 1.2 2.7-.2 5.7-.2.4-.6 1-.8 1.4-.5.8-1.4 1.6-1.8 1.8-.1 0-.3.1-.4.2-1.7 2.5-3.3 6.3-4.9 8.9.7.1 1.5.2 2.2.4 2-.2 7.2-9.2 10.6-20.1.6-2.2.6-3.5 0-3.9-1.6-.3-3.3-.6-6.9-1-1.4.1-2.1 1.3-2.5 2-.1.2-.2.5-.3.7-1.4 3.7-2.4 7.6-3.8 11.4-.8 2-2.2 4.6-3.1 6.6"/><path fill="#73CAE4" d="M82.3 134.1c-.9 1.4-.8 2.2.2 2.4 2.3.1 4.6.3 7.3.5 4.8-.3 15.1-15.6 15.2-15.8 1.1-1.9 1-2.9-.2-3.3-1.3-.1-3-.2-4.3-.3-1.4 2.5-3.2 5.8-4.7 8.3 2.5 1.5-2.2 6.3-5 6.8h-.6c-2.5-.6-.1-4.6 2.6-6.2.8-.5 1.4-.6 1.9-.7 1.4-2.4 3.3-5.8 4.6-8.3-1.5-.1-3.5-.2-5-.3-.7 0-2.3.1-3.8 2.3l-.3.6c-1.2 2.6-2.9 6-4.2 8.5-1.2 1.9-2.7 4-3.7 5.5"/><path fill="#38A3DC" d="M92.1 112.3c-.5 2.2 0 3.4 1.7 3.7 5.4.3 7.6.5 12.7.9 2.9-.2 4.4-3.8 7-10.3-3.8-.4-4.3-.4-6.6-.6-1.4 2.5-2.8 3.6-4.8 3.7-4-.9-2.4-7.2.7-9.3 1-.6 1.8-.7 2.4-.7 1.9.4 2.6 1.8 2.4 4.4 4.4.4 4.6.4 6.7.6.7-2.2 1.7-5.2 2.3-7.4.5-2.5 0-3.9-1.4-4.3-5.3-.5-7.4-.6-14.8-1.1-.7 0-2.7.2-3.9 3.1-.1.2-.2.6-.2.8-1.5 5.5-2.7 11-4.2 16.5"/></svg>