<svg xmlns:xlink="http://www.w3.org/1999/xlink"  xmlns="http://www.w3.org/2000/svg" width="100" height="100" viewBox="0 0 100 100"><radialGradient id="a" cx="51.883" cy="89.614" r="17.932" gradientUnits="userSpaceOnUse"><stop offset="0" stop-color="#cfdae0"/><stop offset="1" stop-color="#e0e0e0"/></radialGradient><ellipse fill="url(#a)" cx="51.883" cy="89.614" rx="25.269" ry="2.138"/><radialGradient id="b" cx="58.52" cy="52.981" r="31.718" gradientUnits="userSpaceOnUse"><stop offset="0" stop-color="#009884"/><stop offset="1" stop-color="#00483d"/></radialGradient><path fill="url(#b)" d="M78.963 45.876c-2.148-10.95-7.992-18.259-8.754-19.417-1.457-2.202-2.771-1.354-3.046-1.202-.905.488-1.638 1.058-1.147 1.729 12.852 17.282 10.837 42.22 10.837 42.22 6.249-3.972 2.578-20.967 2.11-23.33z"/><radialGradient id="c" cx="58.52" cy="52.98" r="31.72" gradientUnits="userSpaceOnUse"><stop offset="0" stop-color="#009884"/><stop offset="1" stop-color="#00483d"/></radialGradient><path fill="url(#c)" d="M38.75 22.58c-1.693 1.475-2.741 5.7-.735 9.496 1.577 3.683 21.516 44.098 27.216 49.059 0 0 3.381-1.364 3.898-3.055 0-1.69-6.636-33.546-22.574-52.966-1.05-.63-4.216-6.655-7.805-2.534z"/><radialGradient id="d" cx="58.52" cy="52.98" r="31.719" gradientUnits="userSpaceOnUse"><stop offset="0" stop-color="#009884"/><stop offset="1" stop-color="#00483d"/></radialGradient><path fill="url(#d)" d="M59.431 22.896c-2.281-3.656-4.815-3.055-6.118-2.534-3.959 1.565-1.162 5.382-.531 6.34 17.702 27.093 18.251 50.104 18.251 50.104 8.865-3.692 1.831-27.97.213-32.284-4.55-12.161-9.76-18.33-11.815-21.626z"/><radialGradient id="e" cx="58.523" cy="52.978" r="31.72" gradientUnits="userSpaceOnUse"><stop offset="0" stop-color="#009884"/><stop offset="1" stop-color="#00483d"/></radialGradient><path fill="url(#e)" d="M23.869 50.964c-3.898-8.548-6.413-4.111-6.433-3.175-.316 23.432 27.645 36.62 27.645 36.62h7.908c-17.194-9.607-26.801-28.373-29.12-33.445z"/><radialGradient id="f" cx="58.522" cy="52.98" r="31.719" gradientUnits="userSpaceOnUse"><stop offset="0" stop-color="#009884"/><stop offset="1" stop-color="#00483d"/></radialGradient><path fill="url(#f)" d="M30.88 30.203c-3.531-6.086-8.235 2.729-7.94 4.021 7.554 32.5 27.727 46.207 31.278 48.223 5.924 2.371 8.184-.356 8.184-.356-6.75-3.564-28.835-47.268-31.522-51.888z"/><path fill="#231F20" d="M11.643 51.479c0-22.066 17.536-39.948 39.174-39.948 21.63 0 39.165 17.882 39.165 39.948 0 9.403-3.186 18.037-8.509 24.852 6.616-7.103 10.655-16.506 10.655-26.835 0-22.117-18.493-40.051-41.312-40.051-22.818 0-41.311 17.934-41.311 40.051 0 10.329 4.03 19.732 10.656 26.835-5.324-6.814-8.518-15.448-8.518-24.852z"/></svg>