<svg xmlns:xlink="http://www.w3.org/1999/xlink"  version="1" xmlns="http://www.w3.org/2000/svg" viewBox="0 0 150 150"><path fill-rule="evenodd" clip-rule="evenodd" fill="#A81E22" d="M66.3 5.9l16.2 20.7-7.1.7 1.4 13.3c13.2 1.4 24.5 10.5 28.7 23-5.5-7.7-14.9-12.3-25-11.2-15 1.6-25.9 15-24.3 30 1.5 14.3 13.8 24.9 28 24.5-2.4.8-4.9 1.4-7.5 1.6-18.6 1.9-35.5-11.8-37.4-30.5-1.7-16.3 8.5-31.2 23.5-36l-1.4-13.2-7.1.7 12-23.6z"/><path fill-rule="evenodd" clip-rule="evenodd" fill="#153037" d="M6.4 128.7l9.8-24.4 4.2 5.8 10.8-7.8c-5.4-12.1-3.2-26.4 5.6-36.4-3.9 8.6-3.2 19.1 2.8 27.2 8.8 12.2 26 14.9 38.1 6.1 11.6-8.4 14.7-24.4 7.2-36.5 1.9 1.6 3.6 3.5 5.1 5.6 11 15.2 7.6 36.6-7.6 47.7-13.3 9.6-31.2 8.3-42.9-2.3l-10.8 7.8 4.2 5.8-26.5 1.4z"/><path fill-rule="evenodd" clip-rule="evenodd" fill="#E99623" d="M142.7 119.2l-14.4-22.3-2.9 6.5-12.2-5.4c3.3-15.4-4.5-31.6-19.5-38.3-10.2-4.5-21.4-3.6-30.5 1.4-3.2 3.5-5.5 7.8-6.5 12.5 7.3-4.2 16.5-5 24.8-1.3 13.7 6.1 19.9 22.3 13.8 36.1-4.1 9.2-12.8 15.1-22.2 16 13 2.6 26.5-2.7 34.3-13.4l12.2 5.4-2.9 6.5 26-3.7z"/></svg>