<svg xmlns:xlink="http://www.w3.org/1999/xlink"  xmlns="http://www.w3.org/2000/svg" width="100" height="100" viewBox="0 0 100 100"><radialGradient id="a" cx="49.116" cy="-43.08" r="190.442" gradientUnits="userSpaceOnUse"><stop offset="0" stop-color="#00abeb"/><stop offset=".029" stop-color="#22aae7"/><stop offset=".06" stop-color="#3fa8e3"/><stop offset=".091" stop-color="#53a8e0"/><stop offset=".122" stop-color="#60a7df"/><stop offset=".151" stop-color="#64a7de"/><stop offset=".327" stop-color="#4674b7"/><stop offset=".521" stop-color="#333b8b"/><stop offset=".758" stop-color="#211c51"/><stop offset="1" stop-color="#171043"/></radialGradient><path fill-rule="evenodd" clip-rule="evenodd" fill="url(#a)" d="M62.931 17.244c.834-.018.395.242.322.65-5.706 2.907-10.668 6.55-14.05 11.768 7.626 10.066 17.549 32.331 3.921 42.496-6.406 4.778-15.818 7.479-20.924 12.422-.476-16.392 22.467-13.826 24.513-28.109 1.516-10.529-4.271-18.205-8.497-24.844-3.032 10.568 10.013 11.816 7.195 23.206-4.145-6.554-15.521-14.876-8.173-24.84-1.104-2.489-3.275-3.921-4.253-6.54 2.243 1.139 3.418 3.338 4.907 5.23 3.994-4.827 9.17-8.474 15.039-11.439z"/><radialGradient id="b" cx="49.115" cy="-43.076" r="190.426" gradientUnits="userSpaceOnUse"><stop offset="0" stop-color="#00abeb"/><stop offset=".029" stop-color="#22aae7"/><stop offset=".06" stop-color="#3fa8e3"/><stop offset=".091" stop-color="#53a8e0"/><stop offset=".122" stop-color="#60a7df"/><stop offset=".151" stop-color="#64a7de"/><stop offset=".327" stop-color="#4674b7"/><stop offset=".521" stop-color="#333b8b"/><stop offset=".758" stop-color="#211c51"/><stop offset="1" stop-color="#171043"/></radialGradient><path fill-rule="evenodd" clip-rule="evenodd" fill="url(#b)" d="M53.572 19.057c0 2.328-1.884 4.208-4.208 4.208s-4.217-1.88-4.217-4.208c0-2.324 1.893-4.208 4.217-4.208s4.208 1.883 4.208 4.208z"/><radialGradient id="c" cx="49.115" cy="-43.08" r="190.44" gradientUnits="userSpaceOnUse"><stop offset="0" stop-color="#00abeb"/><stop offset=".029" stop-color="#22aae7"/><stop offset=".06" stop-color="#3fa8e3"/><stop offset=".091" stop-color="#53a8e0"/><stop offset=".122" stop-color="#60a7df"/><stop offset=".151" stop-color="#64a7de"/><stop offset=".327" stop-color="#4674b7"/><stop offset=".521" stop-color="#333b8b"/><stop offset=".758" stop-color="#211c51"/><stop offset="1" stop-color="#171043"/></radialGradient><path fill-rule="evenodd" clip-rule="evenodd" fill="url(#c)" d="M42.285 64.953c4.737-2.529 7.949-4.383 9.196-7.37-.045-.062-.08-.126-.125-.193-.763-1.202-1.947-2.638-3.203-4.153-4.315-5.209-11.27-13.603-6.577-23.153a6.974 6.974 0 0 0-.107-.134c-.969-1.203-2.181-2.71-2.97-4.818a4.791 4.791 0 0 1 1.121-5.074h-6.495c-6.595 0-11.982 5.393-11.982 11.982v32.479c0 5.262 3.44 9.748 8.183 11.35 2.893-5.523 8.491-8.529 12.959-10.916z"/><radialGradient id="d" cx="26.602" cy="44.86" r="75.088" gradientUnits="userSpaceOnUse"><stop offset="0" stop-color="#fff"/><stop offset=".27" stop-color="#e6f2f1"/><stop offset="1" stop-color="#719f77"/></radialGradient><path fill-rule="evenodd" clip-rule="evenodd" fill="url(#d)" d="M67.443 20.214a4.771 4.771 0 0 1-2.019 1.956c-4.486 2.283-7.833 4.737-10.31 7.59 4.944 7.555 10.919 20.331 9.295 31.767-.861 6.074-3.696 10.946-8.425 14.477-.232.175-.493.327-.727.493h10.345c6.586 0 11.979-5.388 11.979-11.978v-32.48c.001-5.962-4.414-10.928-10.138-11.825z"/></svg>