<svg xmlns:xlink="http://www.w3.org/1999/xlink"  version="1" xmlns="http://www.w3.org/2000/svg" viewBox="0 0 150 150"><g fill="#0090D0"><path d="M23.2 43.3l-.3-.5c-6.1 9.6-9.6 21-9.6 33.2 0 17.6 7.3 33.5 19 44.8l3.4-2.1c-11.1-11.5-19.9-29.5-19.9-46.4 0-10.4 2.8-20.3 7.4-29zM72.5 137.8c-1.4 0-2.7-.2-4.1-.3l-.7.4c2.7.3 5.3.6 8.1.6 26.7 0 49.4-16.8 58.4-40.4l-5 3c-9.9 21.6-31.4 36.7-56.7 36.7zM134.8 58.3l.8-.4c-7.8-25.6-31.6-44.3-59.8-44.3-7.7 0-15 1.4-21.7 4l2.6 4.1c6.2-2.1 12.9-3.4 19.8-3.4 26.6 0 49.3 16.6 58.3 40z"/></g><path fill="#0090D0" d="M52.5 18.1c-.1 0-.1 0 0 0v.2-.2zM126.8 67.6l-1 .6-.5.3-.9-1.4-2.6 1.5-1.6 1 .1.1 3.3 5.5 1.6-1-2.5-4.1 2.5-1.5 3.3 5.5 1.7-1-2.4-3.9 1.1-.7.1-.1-.9-1.6z"/><path fill="#0090D0" d="M138.5 83.7l1.4-.9-2.5-4.2 1.4-.8-5.9-9.8-1.5.9-.1.1-.1-.1-.8-1.3-1.4.9h.1l.8 1.4 1.4-.8 5.8 9.7-1.4.8 2.6 4.2-1.5.9 1.7 2.8-11.5 6.8-1.6-2.8-1.5.9-1.7-2.8-1.2.8-.2.1-.1-.2-1.6-2.6-1.4.9h-.1v-.1l-1.9-3.1-1.4.8-.8-1.3-1.4.9h-.1l-.1-.1-1.5-2.6 2.8-1.7-.9-1.4-2.8 1.7-1.2.7h-.1l2.5 4.2 1.3-.7.9 1.3 1.5-.8 1.8 3 1.4-.8 1.7 2.9 1.5-1 1.7 2.8 1.3-.8 1.7 2.8.1.2.7 1.2 14.7-8.8-.9-1.4z"/><path fill="#0090D0" d="M111.6 65.3l-.9-1.4-2.8 1.6.8 1.3.1.2 2.6-1.6.2-.1.1.2 7.5 12.5 1.6-.9-3.5-5.8 2.8-1.7h.1l-.9-1.4-2.8 1.6-3.3-5.5zM108.7 67l-.2.1-1.4.9 7.5 12.6-1.4.8h.1l.8 1.5 1.4-.9 2.8 4.7 1.6-1zM94.9 86.7l-1.1.6-.5.4-.9-1.5-2.5 1.5-1.7 1 .1.1 3.3 5.6 1.6-1-2.5-4.2 2.6-1.5 3.3 5.5 1.6-1-2.4-3.9 1.1-.6.1-.1-.9-1.6z"/><path fill="#0090D0" d="M106.5 102.8l1.4-.8-2.5-4.2 1.4-.8-5.9-9.8-1.5.9-.1.1-.1-.2-.7-1.2-1.4.8v.1l.8 1.3 1.4-.8 5.8 9.7-1.3.8 2.5 4.3-1.4.8 1.6 2.8-11.4 6.9-1.7-2.8-1.5.9-1.7-2.8-1.2.7-.2.1-.1-.2-1.5-2.6-1.5.9-.1.1v-.1l-1.9-3.1-1.3.8-.8-1.4-1.5.9-.1.1-.1-.2-1.5-2.5 2.8-1.7-.9-1.5-2.8 1.7-1.2.7-.1.1 2.5 4.2 1.4-.8.8 1.4 1.5-.9 1.8 3.1 1.4-.8 1.7 2.8 1.6-.9 1.6 2.7 1.3-.8 1.7 2.8.1.3.8 1.2 14.6-8.8-.8-1.5z"/><path fill="#0090D0" d="M84.5 89l-3.3-5.5-1.6.9.1.2 7.5 12.6 1.7-1-3.5-5.8 2.7-1.6.1-.1-.8-1.4zM76.7 86.2l-.2.1-1.4.8 7.5 12.6-1.4.9h.1l.8 1.4 1.4-.8 2.8 4.6 1.6-.9zM76.8 86.1l2.6-1.6h.2l-.9-1.5-2.8 1.7.8 1.3zM47 24.6l-1 .6-.6.3-.9-1.4-2.5 1.5-1.7 1 .1.1 3.3 5.5 1.6-1-2.4-4.1 2.5-1.5 3.3 5.5 1.6-1-2.3-3.9 1.1-.7h.1l-1-1.7z"/><path fill="#0090D0" d="M53 25l-1.4.9-.2.1-.1-.1-.7-1.2-1.4.8v.1l.8 1.3 1.4-.8 5.8 9.7-1.3.8 2.5 4.2-1.4.9 1.7 2.8-11.5 6.8-1.7-2.8-1.5.9-1.6-2.8-1.3.8-.2.1-.1-.2-1.5-2.6-1.5.9h-.1v-.1l-1.9-3.1-1.3.8-.8-1.3-1.5.9h-.1v-.1l-1.6-2.6 2.8-1.7-.8-1.4-2.8 1.7-1.3.7 2.5 4.3 1.3-.8.8 1.4 1.5-.9 1.8 3 1.4-.8 1.7 2.9 1.6-1 1.6 2.8 1.3-.8 1.7 2.8.1.2.8 1.2 14.7-8.8-.9-1.4-1.7-2.8 1.5-.9-2.6-4.2 1.4-.8z"/><path fill="#0090D0" d="M31.7 22.3l-.9-1.4-2.7 1.6.7 1.3.1.2 2.7-1.6.1-.1.1.2 7.5 12.6 1.7-1-3.5-5.8 2.7-1.7h.1l-.8-1.4-2.9 1.7-3.3-5.6zM28.9 24l-.2.1-1.5.9 7.6 12.6-1.4.8v.1l.8 1.3 1.4-.8 2.8 4.7 1.7-1z"/><path fill="#D7443F" d="M81.1 48.7l-1.6 1 .1.1 3.3 5.5 1.6-.9-2.5-4.2 2.5-1.5 3.3 5.5 1.7-1-2.4-3.9 1.1-.7h.1l-.9-1.7-1.3.8-1 .6-.5.3-.9-1.4z"/><path fill="#D7443F" d="M92.2 48.1l-1.5.9-.1.1-.1-.1-.8-1.3-1.4.9.1.1.8 1.3 1.4-.8 5.8 9.7-1.4.8 2.6 4.2-1.5.9 1.7 2.8-11.4 6.8-1.7-2.8-1.5.9-1.7-2.8-1.2.8-.2.1-.1-.2-1.6-2.6-1.4.9h-.1v-.1L75 65.5l-1.3.8-.9-1.3-1.4.9h-.1l-.1-.1-1.5-2.6 2.8-1.7-.9-1.4-2.8 1.7-1.2.7h-.1l2.5 4.2 1.3-.7.9 1.4 1.5-.9 1.8 3 1.4-.8 1.7 2.9 1.5-1 1.7 2.8 1.3-.8 1.7 2.8.1.2.7 1.2 14.7-8.8-.9-1.4-1.6-2.8 1.4-.9-2.5-4.2 1.4-.8z"/><path fill="#D7443F" d="M70.9 45.4l.1.2 7.5 12.6 1.6-1-3.5-5.9 2.8-1.6h.1l-.9-1.4-2.8 1.6-3.3-5.5zM68 47.1l-.2.1-1.4.9 7.5 12.6-1.4.8.1.1.8 1.3 1.4-.8 2.8 4.7 1.6-1zM70 44l-2.8 1.6.8 1.3.1.2 2.6-1.6.2-.1z"/><path fill="#0090D0" d="M54.2 66.8l-1.1.6-.5.4-.9-1.5-2.5 1.6v-.1l-1.7 1 .1.1 3.3 5.6 1.6-1-2.5-4.2 2.6-1.5 3.3 5.5 1.6-.9-2.4-4 1.1-.6.1-.1-.9-1.6z"/><path fill="#0090D0" d="M44.9 87.9l1.7 2.8 1.6-.9 1.6 2.7 1.3-.8 1.7 2.8.1.3.7 1.2 14.7-8.8-.8-1.5-1.7-2.7 1.4-.9-2.5-4.2 1.4-.8-5.9-9.8-1.5.9-.1.1-.1-.2-.7-1.2-1.4.8v.1l.8 1.3 1.4-.8 5.8 9.7-1.3.8 2.5 4.3-1.4.8 1.6 2.8-11.4 6.9-1.7-2.8-1.5.9-1.7-2.8-1.2.7-.2.1-.1-.1-1.6-2.7-1.4.9-.1.1v-.1L43 84.7l-1.3.8-.8-1.4-1.5.9-.1.1-.1-.1-1.5-2.6 2.8-1.7-.9-1.5-2.8 1.7-1.2.7-.1.1 2.5 4.2 1.3-.8.9 1.4 1.5-.9 1.8 3.1z"/><path fill="#0090D0" d="M36 66.3l-.2.1-1.4.8 7.5 12.6-1.3.9.8 1.4 1.4-.8 2.8 4.6 1.6-.9zM38 63.1l-2.8 1.7.8 1.3.1.1 2.6-1.5.2-.1.1.1 7.5 12.6 1.7-1-3.5-5.8 2.7-1.6.1-.1-.8-1.4-2.9 1.7-3.3-5.5-1.6.9zM60.7 107.1l-1 .7-.5.3-.9-1.4-2.6 1.5-1.6 1h.1l3.3 5.6 1.6-1-2.5-4.1 2.5-1.5 3.3 5.5 1.7-1-2.4-3.9 1.1-.7.1-.1-.9-1.6z"/><path fill="#0090D0" d="M72.4 123.3l1.4-.9-2.5-4.2 1.4-.8-5.9-9.8-1.5.9-.1.1-.1-.1-.8-1.3-1.4.9h.1l.8 1.4 1.4-.9 5.8 9.7-1.4.9 2.6 4.2-1.5.9 1.7 2.7-11.5 6.9-1.6-2.8-1.5.9-1.7-2.8-1.2.8-.2.1-.1-.2-1.6-2.6-1.4.9h-.1v-.1l-1.9-3.1-1.4.8-.8-1.3-1.4.8-.1.1-.1-.1-1.5-2.6 2.8-1.7-.9-1.4-2.8 1.6-1.2.8h-.1l2.5 4.2 1.3-.8.9 1.4 1.5-.9 1.8 3.1 1.4-.8 1.7 2.9 1.5-1 1.7 2.8 1.3-.8 1.7 2.8.1.2.7 1.2 14.7-8.8-.8-1.4z"/><path fill="#0090D0" d="M50.4 109.4l-3.3-5.5-1.6 1-.9-1.5-2.8 1.7.8 1.3.1.2 2.6-1.6.2-.1.1.2 7.5 12.5 1.6-.9-3.5-5.9 2.8-1.6.1-.1-.9-1.4zM42.6 106.6l-.2.1-1.4.9 7.5 12.6-1.4.8h.1l.8 1.4 1.4-.8 2.8 4.6 1.6-.9z"/></svg>