<svg xmlns:xlink="http://www.w3.org/1999/xlink"  version="1" xmlns="http://www.w3.org/2000/svg" viewBox="0 0 150 150"><path fill="none" d="M104.8 34.3L76.1 17.1 47.4 34.3v30.9L20.3 81.5v32.8L49 131.5l27.1-16.3 27.1 16.3 28.7-17.3V81.5l-27.1-16.3V34.3zm-57.5 92.6l-23.9-14.4V85.2l23.9 14.4v27.3zM25 82.4L48.9 68l24 14.4L49 96.8 25 82.4zm49.5 30l-23.9 14.4V99.6l23.9-14.4v27.2zm0-32.8L50.6 65.2V38l23.9 14.3v27.3zM52.1 35.2l24-14.4 24 14.4-24 14.4-24-14.4zm49.5 2.7v27.3L77.7 79.5V52.3l23.9-14.4zm0 89l-23.9-14.4V85.2l23.9 14.4v27.3zm27.1-14.5l-23.9 14.4V99.6l23.9-14.4v27.2zm-1.5-30l-24 14.5-24-14.5 24-14.4 24 14.4z"/><path fill="#B8695A" d="M77.7 112.5l23.9 14.4V99.6L77.7 85.2z"/><path fill="#4A9580" d="M50.6 126.8l23.9-14.4V85.2L50.6 99.6z"/><path fill="#2CB896" d="M23.5 112.5l23.8 14.4V99.6L23.5 85.2z"/><path fill="#B8695A" d="M79.2 82.4l24 14.4 24-14.4-24-14.4z"/><path fill="#2CB896" d="M48.9 68L25 82.4l24 14.4 23.9-14.4z"/><path fill="#00B9E6" d="M76.1 20.8l-24 14.4 24 14.4 24-14.4z"/><path fill="#079" d="M77.7 79.5l23.9-14.3V37.9L77.7 52.3z"/><path fill="#F05E50" d="M104.8 126.8l23.9-14.4V85.2l-23.9 14.4z"/><path fill="#00B9E6" d="M50.6 65.2l23.9 14.4V52.3L50.6 38z"/><path fill="#079" d="M135.8 75l-23.4-14.1V30l-3.7-2.2L80 10.5l-3.9-2.3-3.9 2.3-28.7 17.2-3.7 2.2V60.8L16.4 75l-3.7 2.2V118.6l3.7 2.2L45.1 138l3.9 2.3 3.9-2.3 23.2-13.9L99.3 138l3.9 2.3 3.9-2.3 28.7-17.3 3.7-2.2V77.2l-3.7-2.2zm-3.9 39.2l-28.7 17.3-27.1-16.3L49 131.5l-28.7-17.2V81.5l27.1-16.3V34.3l28.7-17.2 28.7 17.2v30.9l27.1 16.3v32.7z"/></svg>