<svg xmlns:xlink="http://www.w3.org/1999/xlink"  version="1" xmlns="http://www.w3.org/2000/svg" viewBox="0 0 150 150"><g fill="#2FABA3"><path d="M84.7 46.8l.7.3.1-1.1-.4-1.1-.7-1.2-.1-.8-1.4.3.3 1.2 1.1 1.1.4 1.3zM75.7 27.6l.7-.5-.9-.7-1.1.1-1.1-.3s-2.4.5-.4.9l1.8.4h1zM75.5 32.5c.4 0 1.6.1 2 .1.4 0 .9-.7 1.5-1.1.5-.4 0-.9 0-.9s-.5 0-.9.1-1.5.3-1.5.3-.1-.7-.4-.8c-.3-.1 0 0-.8-.1s.7.1-.5.8c-1.2.7-1.1.4-1.5.5 0 0-.1.8.3 1.1h1.8zM89.2 51.9l-.8 1.2s1.5.9 1.9.7c.4-.3 1.2 0 1.6-.1l.4-.1s1.1 1.3.7 1.8c-.4.4-.7.7-.7 1.2s-.1 1 .3 1.5.8 1.8.8 1.8 1.2-.9 1.1-1.3c-.1-.4-.8-.9-.4-1.5s.9-.8 1.4-.7c.4.1 1.3 1.1 1.3 1.1s.5.5.5.9-.5 1.1-.4 1.6c.1.5.4 1.1.8 1.1h1.5s.3-.4.1-.9c-.1-.5 0-.4.4-.5.4-.1 1.1.5 1.1.5h.6c.1-.5.3-.9.4-1.4-.4.2-.6.4-.6.4s-.1.1-.5 0-.1-.8-.5-.9c-.5-.3-.8-.3-1.2-.1l-.4.3s-.8-.9-.3-1.3.5-.4 1.2-.7c.7-.3.8-1.2.8-1.2s-.4-.7-.9-.7-1.9.3-1.9.3l-1.1-.1H95l-.8-.3s0-.7.4-1.3c.4-.7.4 0 .4-.7s-.4-1.3-.4-1.3c-.7-.5-1.3-.8-1.3-.8-.5.3.7-.9-2.2.9-2.7 1.8-1.1-.6-1.9.6zM95.8 74.8s0-.1 0 0c0-.1-1.1-.1-1.5-.2-.4-.1-1.2-.5-2-.9s-1.6-.7-2.2-.7c-.5 0-1.2.1-1.6.8-.4.7-1.1.5-1.5.4-.4-.1-1.2-.5-1.9-1-.7-.4-1.8-.1-1.8-.1h-1.6s-1.5.3-2.3.7c-.8.4-1.2.1-1.6.4-.4.3-.4.5-.4 1.1 0 .5.4.9.4.9s-.4.5-.8.8c-.4.3-.5.1-.5.7 0 .5.5.9.5.9s-.1.7-.4 1.2c-.3.5-.4.7-.7 1.2-.3.5.3 1.3.3 1.3s.4.9.8 1.2c.4.3.9.5 1.1.9.1.4.8 1.9.8 1.9l1.6.9 2-.1 1.4-.3 1.5-1.1 1.2-.9 1.2-.7 1.8-.3s.3.8.1 1.2c-.1.4-.3.8-.3.8s-.1 1.4-.7 1.4l-.9.7-.3 1.2-.7.3-.7 1.1.4 1.2.5-.1c1.2-2.1 2.4-4.3 3.6-6.5 2-3.3 3.7-6.8 5.2-10.3z"/><path d="M58.8 19.2c-.5.4-.1.7-.1.7l1.1.9s1.3-.9 1.8-.9c.4 0 1.5-.1 1.5-.1l2.7-.7 1.9-.3 1.5 1.1.5 1.5 2 1.8 1.8-.8s1.1.4.8.8c-.3.4 1.1.5 1.1.5l2 .3 1.3 2 .7.4 1.2.1.5.8.8.3.8.7 1.5-.5s1.1.1 1.5.3c.4.1 2 .7 2.3 1.1.3.4 1.8-.8 1.8-.8s0-.7-.7-1.6l-.3-.8c-.3-.8.1.8-1.2-.9-1.4-1.8.4-.7.4-.7l1.5 1.3s.5.4.8.8c.3.4.8 1.5.8 1.5l.1.5c.1.5.9 1.1.9 1.1l.7 1.2-.7 1.8-.5.3c-.5.3-.9 1.1-1.1 1.5-.1.4-1.2.9-1.6 1.3-.4.4-1.2 1.2-1.2 1.6 0 .4 1 .5 1 .5L89 39l.3 1.3 2 .4s.7.7 1.1.8c.4.1.9 1.1.9 1.1l.9 1.1s2 .3 2.4.3c.4 0 .7.8.7.8s.1 1.9.1 2.4 1.5.9 1.5.9.8.7 1.1 1.1c.3.4 1.1-.3 1.5-.7.4-.4.1-1.6.1-2.4 0-.8-.5-.9-.5-1.8 0-.8.5-.9 1.1-1.6.5-.7-.3-1.4-.9-2-.7-.7-.5-1.2-.7-2.6-.1-1.3.3-1.2.8-.8.5.4.9.8.9.8s1.5.4 1.9.7c.4.3.7.4.7.4l.8.8c.2-2.4.3-4.8.2-7-.1.5-.7 0-.9-.4-.3-.4-1.1-.8-1.1-.8s-.4 1.4.1 1.6c.2.1.3.2.5.3.4.3.6.6.6.6s.8 0 .5.7c-.3.7-.9 1.2-.9 1.2l-.9-.1-1.1-1.2s-.3-.8.3-.7c.5.1 1.2.5 1.2.5l-1.3-1.3-.7-.7s-.4-.5-.1-.9c.3-.4 0-1.2-.4-1.3-.4-.1-1.2.3-1.1.7.1.4.5 1.5.5 1.5l.1.8H100s-.7-1.1-.5-1.5c.1-.4.5-1.8.4-2.2-.1-.4 0-1.2 0-1.2l-.5-.7-1.5-.7-1.5-1.1-1.1.3s-.4.9.3 1.1c.7.1.9.8.9 1.2 0 .4.5 1.5 0 1.6-.5.1-1.6.3-1.8-.1-.1-.4-.8-2-.8-2l.3-1.1s-.5-.4-.9-.7c-.4-.3-.8-1.2-.5-1.6.3-.4.7-.4.8-.8.1-.4-.7-.9-.7-.9l-1.3-.5s-1.8-.9-1.6-1.3c.1-.4.5-1.1.9-1.3l.4-.3-.6-1.2c-5-1.3-10.2-2.1-15.5-2.1-5.2 0-10.3.7-15.2 2-.5.1-.9.6-1.2.8zm21.2 1l1.2.3h.9l.7.3.7.8.7.3 1.1.4.9.8.5 1.2s-.1.7-.5.7-.7.9-.7.9l-.4.1c-.4.1-1.8-.3-1.8-.3s-.4-.5-.8-.5-.5-.4-1.3-.4-.9-.4-1.8-.5c-.8-.1.3-.8.3-.8s1.5.4 2 .7c.5.3.9-.7.9-.7l-.6-.4s-.9-.4-1.8-.7c-.8-.3 0 0 1.4-.4l-.4-1-1.2.8-.5.1c-.5.1.5-.1-.9-.8-1.6-.7.8-.8 1.4-.9z"/><path d="M95.6 24.6c.5-.1 1.6-.4 1.9.1.3.5.1.7.9 1.3.8.7 1.5 1.2 2 1.6.5.4 1.3 1.1 1.3 1.5 0 .4 1.4 1.1 1.4 1.1s1.2-.1 1.5.3c.3.4.7.8.8 1.4.1.3.2.4.2.5-.1-2.2-.4-4.2-.8-6.1h-.6l-1.5-1.6-1.5-1.1s-1.2-1.1-1.8-1.1c-.5 0-2.3.5-2.3.5l-1.6-1.2-.8-1.6-.9-.7-.5.4s.5 1.4.9 1.8c.4.4.9 1.1.8 1.6s.1 1.4.6 1.3zM85 93c-.4 0-1.6-.9-2-1.1-.4-.1-1.1-1.3-1.3-1.8-.3-.4-.9-.8-1.3-.9-.4-.1-2.2-.4-2.2-.4h-1.4l-1.6-.4c-.4-.1-.9-.8-1.5-.8-.5 0-1.4-1.2-2.2-1.3-.8-.1-1.5-1.3-1.9-1.5-.4-.1-1.8-.5-1.9-1.1-.1-.5-.8-.9-1.2-1.6-.4-.7-.4-.7-.4-1.2s.3-.9.3-1.3v-1.5c0-.4-.4-1.2-.4-1.8 0-.5-1.2-1.2-1.5-1.6-.3-.4-.8-.9-1.1-1.4-.3-.4.1-.7.1-1.1 0-.4-.7-1.3-1.1-2.2-.4-.8-.7-1.3-1.2-2.3-.5-.9 0-.9.1-1.3s-.5-1.2-.7-1.6c-.1-.4-.8-.8-1.2-.8-.4 0-.7.1-.8.7-.1.5 0 1.1.8 2 0 0 .1.9-.1 1.3-.3.4-.3 1.1-.3 1.1l.8.3s.5 1.2.5 1.6c0 .4.4 1.8.4 1.8l.7 3.6s-.5-1.2-.9-1.6c-.4-.4-.8-1.2-.9-1.9-.1-.7-.5-1.6-.5-1.6l-.5-.9-1.1-1.2.5-.7.5-.7-.3-1.1-.9-2.2-.1-2-.5-1.9s-.8-.9-1.2-1.2c-.4-.3-.5-1.3-.7-1.8-.1-.4-.4-1.8-.4-2.4 0-.7.3-2.7.4-3.2.1-.5.8-2.2.8-2.2l.9-2 1.3-2.3.7-.9.4-1.2-.3-.9s0-.7.7-.5c0 0 .7 1.2 1.2 1.5l-.1-.9-.9-1.1-.9-.8.8-.8.5.5c.5.5.8.8 1.3 2.2 0 0 .3-1.1.1-1.9-.1-.8-.5-1.3-.5-1.3l-1.1-1.5s-.3-.9 0-1.5c.3-.5.8-.7.7-1.1-.1-.4-.3-.9-.3-1.4 0-.4.5-.9 1.1-1.5.5-.5-.5-1.5-.5-1.5l.3-1.1s-.1-1.4-.3-1.9c-.1-.5-.8-.4-1.2-.5-.4-.1-.8-.7-1.1-1.2-.3-.5-1.2-1.1-1.2-1.1s-.9-.3-1.6.1c-.7.4-.8.4-1.5.7-.7.3-1.2-.3-1.6-.4-.4-.1 0-.8 0-.8s.3-.7.8-1.1c.5-.4.9-.8 1.5-1l1.5-.3 1.5-.4.2-.9-.7-.5-.9-.1s-.8 0-1.5.4-1.3-.3-1.3-.3l.5-.4c-22.5 8.5-38.5 30.2-38.5 55.7 0 24.1 14.4 44.9 35 54.2 11.8-4.8 24.8-18.4 35.8-36.8-.5-.1-1.2-.2-1.4-.2z"/></g><path fill-rule="evenodd" clip-rule="evenodd" fill="#263C47" d="M97 12.2c-8.2-4.3-18.8-2.5-29.6 4.1.4 0 .8-.1 1.3-.1C78 10.6 86.9 9 93.8 12.7c15.9 8.4 15 41.5-2.1 73.9S47.9 138.4 31.9 130c-8.5-4.5-12.2-15.9-11.2-30.6-.3-.5-.6-1.1-.8-1.7-1.3 16.8 3.1 30.3 13.2 35.6 17.8 9.4 47.6-8.7 65.2-42.1 17.6-33.4 16.5-69.6-1.3-79z"/><g fill="#F69320"><path d="M82.5 101.2c0 .1-.1.3-.1.4.2-.3.4-.6.6-.8-.1.2-.3.3-.5.4z"/><path d="M114.9 31.7c.1.4.3 1.7.6 2 .4.4.9 1.4 1.4 1.6.4.3.5 1.8.5 1.8l-.7.8-.9-.7-2.3-1.5-1.9-1.3-.7-1.6-1.2-1.9-.3-.3c.9 3.8 1.4 7.9 1.5 12.4.1-.1.1 0 .1 0l.9 1.6s1.2.7 2 1.2 1 .8 1 .8l-.8.5s-.4.5-.1.9c.3.4.8 0 .8 0s.8-.5 1.8 0c.4.2-.5 1.2-.5 1.2l-.5 1.1s-.7.4-1.1.7c-.4.3-.7-.1-1.1-.1-.4 0-1.1-.4-1.8-.4-.4 0-.7.3-.9.5-.1.7-.1 1.4-.2 2 .2-.4.5-.8.9-1 .7-.4.7.8.7.8s-.1.9.3 1.2c.4.3.5 1.3.5 1.3l-1.5 1.3-1.2.7s-.2.2-.3.4c-1.8 10.7-5.6 22.2-11.5 33.4-1.4 2.7-2.9 5.3-4.5 7.8l.8.1 1.2-.3h1.5l1.1.4.1 1.3s-.7-.3-1.8-.7h-.5c-.5 0-.8.3-.8.3s-.8.1-1.2.1c-.3 0-.6-.1-1-.4-10.3 16-23.2 27.4-35.5 32.6 5.5 1.7 11.3 2.6 17.3 2.6 2.6 0 5.2-.2 7.7-.5h-.7s2.3-.6 2.9-.9c.5-.3 1.3-.4 1.5-.9.1-.5 1.4-.9 2-1.2.7-.3 3.2-1.2 3.6-1.3.4-.1 1.8-1.6 2.2-1.9.4-.3 1.6-1.8 1.6-1.8s2.2-1.4 2.4-1.8c.3-.4 1.2-1.5 1.5-2.2.3-.7-.7-1.2-.8-1.6-.1-.4-.5-.4-1.5-.5-.9-.1-.7-.7-1.8-.9-1.1-.3-.5-.7-1.1-1.6-.5-1-.1-1.1 0-1.6s-.7-1.2-.9-1.6c-.3-.4-.7-.5-1.1-.4-.4.1-.5-.9-1.1-1.2-.5-.3-.3-1.8 0-2 .3-.3.8.1 1.8-.4 0 0 .8-.7.9-1.5l-.7.5-1.1-.1s.8-.8 1.2-1.1c.4-.3 1.2-1.3 1.8-2 .5-.7 1.5-1.8 1.5-1.8h1.5c.4 0 .4-.8.4-.8l-.1-1.2.4-.7.1-1.1-.3-1 .8-.5 2.6-1.9.9-1.1s1.8-.5 2.6-.7c.8-.1.7.7.7.7l-.5.5c-.5.5-.1 1.1-.3 1.5-.1.4.8.5 1.5.7.7.1.8-.9.8-1.6 0-.7-.7-.8-.4-1.2.3-.4 1.3-.5 1.8-.5.4 0 1.5.8 1.9 1.2.4.4 1.3-.3 1.3-.3s1.8-.4 2.3-.4c.5 0 .7.3.3.7-.4.4-.1 1.1-.1 1.5 0 .4 1.1-.4 1.5-.8.4-.4 1.9-.4 2.3-.4.4 0 0 .8-.5 1.1-.5.3-.5 1.1-.5 1.1l1.4.4s1.5-.3 1.9-.5c.4-.3 2.2 0 2.8.8 0 0 .1.5 0 1.5-.1.9 0 0-.1.4s-.8.9-1.2 1.5c-.4.5-1.2.8-1.6 1.2-.4.4-.8.7-1.5 1.2s-1.5 1.2-1.5 1.2.9.1 1.5.1c.5 0 1.4-.9 1.9-1.4.5-.4.9-.9 1.9-1.8.3-.3-.7 1.8-.5 2.2.1.4.9-.8 1.4-1.2l1.2-1.2c.4-.4 1.2-.7 1.2-.7l.8.3.5-.1c4.4-8.3 6.9-17.7 6.9-27.8-.4-17.3-8-33-20-43.8z"/></g></svg>