<svg xmlns:xlink="http://www.w3.org/1999/xlink"  xmlns="http://www.w3.org/2000/svg" width="100" height="100" viewBox="0 0 100 100"><path fill="#C9DA43" d="M40.598 16.141a6.423 6.423 0 0 0-8.231 3.842L16.69 63.065a6.412 6.412 0 0 0 3.835 8.23l43.081 15.677a6.417 6.417 0 0 0 8.231-3.836l15.684-43.081a6.426 6.426 0 0 0-3.842-8.231L40.598 16.141z"/><path fill="#231F20" d="M64.333 90.643l-46.721-17.01a7.613 7.613 0 0 1-4.33-3.97 7.622 7.622 0 0 1-.262-5.871L30.029 17.07a7.703 7.703 0 0 1 7.217-5.056c.895 0 1.779.158 2.625.464l46.722 17.001c3.981 1.454 6.041 5.865 4.591 9.85L74.179 86.051a7.709 7.709 0 0 1-7.216 5.057 7.739 7.739 0 0 1-2.63-.465zM31.371 17.556L14.372 64.277a6.205 6.205 0 0 0 .206 4.779 6.214 6.214 0 0 0 3.524 3.23l46.721 17.007a6.254 6.254 0 0 0 8.007-3.738l17.006-46.721c1.181-3.235-.494-6.827-3.734-8.007L39.384 13.826a6.133 6.133 0 0 0-2.138-.382 6.279 6.279 0 0 0-5.875 4.112z"/><path fill="#231F20" d="M67.839 65.506c7.991-21.945 2.621-44.04-11.987-49.358-2.161-.79-4.408-1.153-6.685-1.149 6.269-3.247 12.95-4.108 19.061-1.883 14.726 5.355 20.519 26.577 12.938 47.396-5.785 15.893-17.694 26.948-29.559 28.91 6.689-5.505 12.554-13.812 16.232-23.916z"/><path fill="#231F20" d="M52.993 58.639c-5.389-23.68-22.529-39.966-38.291-36.379-2.334.532-4.501 1.475-6.494 2.764 3.651-6.367 9.007-10.891 15.598-12.389 15.886-3.617 32.907 11.662 38.019 34.124 3.902 17.151-.277 33.521-9.542 41.917 2.74-8.579 3.19-19.14.71-30.037z"/></svg>