<svg xmlns:xlink="http://www.w3.org/1999/xlink"  xmlns="http://www.w3.org/2000/svg" viewBox="0 0 2000 2000"><path fill="#E57B3D" d="M423.1 884.9c0-70.3 80.4-133.2 206.8-175.1-305 52.5-517 167.9-517 301.9 0 141 234.7 261.4 565.8 309.6-12.1-83.2-19.7-172.3-21.8-265.5-141.9-35.9-233.8-95.7-233.8-170.9zM1886.6 1011.8c0-134-211.9-249.4-517-301.9 126.4 41.9 206.8 104.7 206.8 175 0 126-258.2 208.8-576.7 208.8-31 0-61.4-.8-91.1-2.3 4.8 93.3 17 179.1 35.5 251.8 18.4.4 36.9.7 55.6.7 489.9 0 886.9-148.7 886.9-332.1z"/><path fill="#E65F54" d="M906.4 1000.3c0-318.5 82.8-576.7 208.8-576.7 70.3 0 133.2 80.5 175.1 206.9-52.5-305.1-167.9-517-301.9-517-183.4 0-332.2 397.1-332.2 886.8 0 18.7.3 37.2.7 55.6 2.2 93.1 9.7 182.3 21.8 265.5 48.2 331 168.6 565.8 309.6 565.8 134 0 249.4-211.9 301.9-517-41.9 126.4-104.7 206.8-175.1 206.8-75.2 0-135-92-171-233.8-18.5-72.7-30.7-158.5-35.5-251.8-1.4-29.7-2.2-60.1-2.2-91.1z"/><path fill="#BEBDBF" d="M964.2 1038.8l323.1-294s-232.6-591.2-323.1 294z"/><path fill="#929194" d="M1287.3 744.8l-323.1 294s865.9-3.2 323.1-294z"/></svg>