<svg xmlns:xlink="http://www.w3.org/1999/xlink"  xmlns="http://www.w3.org/2000/svg" viewBox="0 0 2000 2000"><path fill="#4CA950" d="M1132.1 312.1c264.3 54.3 474 263.9 505.2 535.5 36.1 314-178.6 601.4-491 678.4l-53 11.1s-9.7 155.4 160.7 277.1c0 0-68.1-210.1 97.4-323.1 320.9-94.1 546-313 546-568.2-.1-310.1-332.4-566.8-765.3-610.8zM623.1 1316.5c-17.3 32.2 5.5 78.2 51 102.6 45.5 24.4 96.4 18.2 113.7-14.1 17.3-32.2-5.5-78.2-51-102.6-45.5-24.4-96.4-18.1-113.7 14.1z"/><path fill="#4681CF" d="M846.3 1534.4s-9.6-2.4-24.9-6.4c3 .4 5.9.9 9 1.3-257.3-59-459.7-265.9-490.4-532.4-36.7-319.6 186.4-611.7 507.8-682.5C424.7 364.2 102.5 617.6 102.5 923c0 247.5 211.7 460.8 517.2 559.3l3.8 3c.2.3.9 1.2.3.2 327.3 362.3 618.1 334.9 618.1 334.9-322.6-121.7-395.6-286-395.6-286z"/><path fill="#4681CF" d="M1098.7 1429.5c10.1 35.1 58.5 52.1 108.2 37.8 49.6-14.3 81.7-54.3 71.5-89.5-10.1-35.2-58.5-52.1-108.2-37.8-49.6 14.2-81.6 54.3-71.5 89.5z"/><path fill="#CF7046" d="M870.7 472.1L997.5 380l126.7 92.1-48.4-149.5 126.7-92.6h-156.6L997.5 81l-48.4 149H792.4l126.7 92.6z"/></svg>