<svg xmlns:xlink="http://www.w3.org/1999/xlink"  xmlns="http://www.w3.org/2000/svg" width="100" height="100" viewBox="0 0 100 100"><path fill="#035BA9" d="M43.132 67.369l-.646-.945-.392.094-1.021.748-2.384-3.031-.578.092-.781.662-.11.441 2.316 3.084-.578.609.056.289-.447-.193-.267.215-15.734-20.93a10.41 10.41 0 0 1-1.891-4.271c-.686-3.52-.341-5.343 2.331-7.811L51.3 13.738c1.301-1.038 2.608-1.827 4.115-2.19 3.485-.839 4.999-.461 7.318 2.166l16.941 22.479-.214.186-.11.44.049.254-.096.063-.31-.036-.747.528-2.435-3.244-.081.053-.143-.194-.854.816 2.516 3.488-.243-.14-1.04.862-.168.238.508.711h3.972l1.001-.795-.526-1.045 2.692-2.349-17.422-23.212c-3.603-5.043-6.756-5.48-11.228-4.398-1.942.468-3.714 1.944-5.379 3.273l-4.071 3.449c.002.003-23.29 18.505-23.29 18.505-3.245 3.117-4.929 6.811-4.069 11.199.382 1.963 1.351 3.854 2.591 5.496L23.5 54.43c.005-.004.012-.006.015-.008l13.03 17.662-.311.229c-.428-.582-1.132-1.164-1.502-.875l-3.947 2.705c-2.562-.07-6.512 1.66-10.262 4.723-1.925 1.57-3.529 3.271-4.706 4.904L11.6 87.084c-.607.475-.53 1.633.175 2.58l2.484 3.355c.705.949 1.767 1.334 2.373.859l4.528-3.555c1.757-.807 3.655-1.994 5.505-3.504 3.439-2.805 5.857-6.029 6.633-8.539l3.66-3.205c.646-.508-.024-1.742-.024-1.742l3.06-2.723.853.912L65.23 52.086h-2.831L43.132 67.369z"/><path fill="#A6A8AB" d="M78.192 41.758l-4.329-.052-.007-3.64-.146-.51c-.227-.521-.739-.817-1.201-.935l-39.954.015-.229.061c-1.604.488-.994 2.384-1.167 3.749l-1.169.001.012 6.547 1.203.058c.156 1.246-.459 2.918.863 3.592.141.119.379.082.51.189l39.352.021.712-.098c.62-.143 1.08-.701 1.2-1.307l.024-4.555 2.796.017.031 15.489-.063.082c-1.628.02-2.744.008-4.222-.012H54.146l-.57.18c-.404.189-.604.627-.713 1.02-.113 1.553-.005 3.332-.072 4.873l-1.262.002c-.725.063-1.306.502-1.507 1.189l-.032 3.051c.134.639.729 1.113 1.325 1.313l-.034 1.932c-.354.24-.807.629-.899 1.105l.01 17.533c.07.594.586 1.139 1.146 1.338 2.211.031 4.173.16 6.253-.012.499-.203 1.012-.678 1.079-1.234l-.02-16.36-.048-1.326c-.168-.617-.775-1.064-1.383-1.172.095-.629-.064-1.234.031-1.91 1.796-.451.97-2.719 1.133-4.152l-.227-.543c-.559-1.031-1.689-.662-2.686-.756l-.061-.096.028-3.072 8.097.021 14.532-.025c.486-.146 1.069-.525 1.199-1.061l-.013-19.272c-.094-.616-.666-1.149-1.26-1.278z"/></svg>