<svg xmlns:xlink="http://www.w3.org/1999/xlink"  xmlns="http://www.w3.org/2000/svg" viewBox="0 0 150 150"><path fill="none" d="M101.9 85.8c0 .2.1.4.1.6l.3.1c-.1-.3-.3-.5-.4-.7zM107 43.8c.1.2.3.5.4.7 0-.1 0-.2-.1-.2-.1-.2-.2-.4-.3-.5z"/><g fill="#5F473B"><path d="M56.4 73.2c-.7-.3-1.4-.6-2.5-1.1v13.2c-9.1-4.5-17.8-8.8-26.9-13.2v49c12.7-3.2 28.5-5.1 45.6-5.1 2.6 0 5.2 0 7.8.1V84.6c-.2-.1-.4-.1-.6-.2-7.8-3.7-15.6-7.5-23.4-11.2zM113.6 11.8h-.1c-.5.1-.8.4-.8.7v20.9c0 .4.4.8 1 .8.3 0 .5-.1.7-.2.2-.1.3-.3.3-.5v-21c-.2-.4-.6-.7-1.1-.7zM118.4 15.3c-.6 0-1 .3-1 .7v20.8c0 .2.2.5.4.6.2.1.4.2.6.2.5 0 1-.3 1-.8V16.1c-.1-.4-.5-.8-1-.8zM123.4 21.5h-.3c-.4 0-.7.2-.8.4-.1.1-.1.2-.1.3V43.4c.1.3.5.5.9.5.5 0 .9-.3.9-.7v-21c0-.3-.2-.6-.6-.7zM108.7 15.3c-.1 0-.2 0-.4.1-.3.1-.6.4-.6.7v20.8c0 .1 0 .2.1.2.1.3.5.5.9.5.2 0 .4-.1.6-.2.2-.1.3-.3.3-.6V16.1c.1-.5-.4-.8-.9-.8zM104 21.5c-.2 0-.4.1-.6.2-.2.1-.4.3-.4.6V43c0 .4.4.8 1 .8.2 0 .3 0 .5-.1.3-.1.4-.3.5-.6V22.2c-.1-.4-.5-.7-1-.7z"/></g><g fill="#AECC52"><path d="M100 110.9v-.5-3l2.3.9c-1.5-2.5-2.3-5.4-2.3-8.8v-3l2.4.9c-1.3-2.2-2.3-5.1-2.3-8.8v-3l2.1.8c0-.2-.1-.4-.1-.6-.6-1.1-1.1-2.4-1.4-3.9-6.7-3.3-13.3-6.5-20-9.8v44c5 .2 9.8.5 14.5 1 2.3.2 4.4.5 6.6.8-.6-1.2-1-2.5-1.3-3.9-.4-.9-.5-2-.5-3.1zM116.2 54c-.5.8-.9 1.6-1.2 2.5-.3.9-.4 1.8-.4 2.8v.1c0 .4 0 .8.1 1.3v.1s1-.2 2.3-.7c1.1-.4 2.5-1.2 3.9-2.3.8-.7 1.7-1.6 2.4-2.7.2-.3.4-.6.6-1 1-1.8 1.7-4.1 1.7-7.1v-.3c.1.1-6.3 2.5-9.4 7.3zM119 61.3c-.8.7-1.5 1.5-2.2 2.3-.8 1-1.4 2.2-1.8 3.5-.2.8-.4 1.7-.4 2.7v1.5c.2 0 1.4-.3 2.9-1 .7-.3 1.4-.7 2.2-1.2 1-.7 1.9-1.5 2.8-2.6l.1-.1c1.6-2 2.8-4.8 2.8-8.7v-.3s-1.3.5-3 1.4c-.8.5-2.2 1.4-3.4 2.5zM120.2 70.8l-1.2.9c-.2.2-.4.4-.7.6-1.5 1.5-2.8 3.3-3.4 5.4-.2.8-.3 1.6-.3 2.5 0 .3 0 .7.1 1.1v.5h.1c.4-.1 1.9-.4 3.5-1.3.1-.1.3-.1.4-.2.6-.3 1.2-.7 1.8-1.2.4-.3.7-.6 1.1-.9 2.1-2 3.9-5.2 4-10v-.3s-1.3.5-3 1.4c-.7.3-1.5.8-2.4 1.5zM122.7 79.6c-.1.1-.3.2-.5.3-.3.2-.7.4-1.1.7-.4.3-.9.6-1.3.9-.3.2-.6.5-.9.7-.8.7-1.5 1.5-2.2 2.3-.9 1.2-1.6 2.5-1.9 4-.2.7-.3 1.5-.3 2.3 0 .5 0 1 .1 1.5h.2c.2 0 .5-.1.9-.2 1-.3 2.5-.9 4-1.9 2.8-1.9 5.6-5.3 5.7-11.5v-.3s-1 .4-2.3 1.1c0-.2-.2 0-.4.1zM123.7 89.5c-.3.2-.6.3-1 .5-.1.1-.2.1-.3.2-.1.1-.2.1-.4.2-.5.3-1.1.7-1.6 1.1-.5.3-1 .7-1.4 1.1l-.3.3c-.6.6-1.3 1.2-1.8 2-.9 1.2-1.7 2.6-2 4.2-.1.7-.2 1.3-.2 2 0 .4 0 .7.1 1.1v.4h.2c.1 0 .3-.1.4-.1h.2c1.3-.4 3.8-1.3 6-3.4.7-.7 1.4-1.5 2-2.5 1.1-1.9 1.9-4.3 2-7.5V89v-.2s-.5.2-1.2.5c-.2-.1-.4.1-.7.2zM123.7 100c-.3.2-.6.3-1 .5l-.9.6c-.9.6-1.8 1.2-2.8 2-.4.3-.7.7-1.1 1.1l-.4.4c-1.2 1.4-2.2 3-2.7 4.9v.3c-.1.6-.2 1.2-.2 1.9 0 .5 0 1 .1 1.5 0 0 .1 0 .3-.1.1 0 .3-.1.5-.1.8-.2 2.2-.7 3.6-1.5.5-.3 1.1-.7 1.6-1.2.3-.2.6-.5.9-.7.7-.7 1.4-1.6 2-2.6 1.1-1.8 1.8-4.1 1.9-7.1v-.4-.3l-.4.2c-.2 0-.7.2-1.4.6zM122.7 111c-.8.4-1.7 1-2.5 1.7-.4.3-.7.6-1.1.9l-.1.1c-.6.5-1.2 1.1-1.7 1.8-1.2 1.4-2.1 3.1-2.5 5 .4.1.7.2 1.1.2.6.1 1.2.3 1.8.4.6.1 1.1.3 1.7.4.1 0 .2.1.3.1 1.4-.9 2.9-2.3 4-4.1 1-1.7 1.7-3.9 1.9-6.6 0-.3.1-.6.1-.9v-.2-.2s-.8.3-2 .9c-.3.1-.7.3-1 .5zM112.4 58.9c-.1-2.6-1.2-4.7-2.7-6.5-1.8-2.1-4-3.5-5.8-4.5-.9-.5-1.6-.8-2-1-.3-.1-.5-.2-.5-.2v.3c0 2.8.7 5 1.6 6.8.7 1.4 1.6 2.5 2.6 3.4.4.4.9.8 1.3 1.1.4.3.8.5 1.2.8.1.1.2.1.3.2 1.9 1 3.5 1.4 3.8 1.4h.1c.1-.5.1-1 .1-1.5V59v-.1zM108.1 61.3c-1.2-1.1-2.5-1.9-3.7-2.6-1.1-.6-2-1-2.5-1.3-.3-.1-.4-.2-.4-.2v.3c.1 3.1.8 5.6 1.9 7.5 1.1 1.8 2.5 3.1 3.9 4.1 1.9 1.3 3.8 1.8 4.6 2 .3.1.5.1.5.1.1-.4.1-.8.1-1.2v-.1-.1c0-3.7-2.1-6.5-4.4-8.5zM108.1 71.7c-1.2-1.1-2.6-1.9-3.7-2.6-1.1-.6-2.1-1.1-2.6-1.3l-.4-.2v.3c.1 3.6 1 6.2 2.4 8.1 1 1.4 2.1 2.5 3.3 3.3 1.6 1.1 3.2 1.7 4.2 2 .6.2 1 .2 1 .2 0-.3.1-.5.1-.7v-.1-.6c.1-3.5-2-6.3-4.3-8.4zM108.1 82.2c-1.2-1.1-2.5-1.9-3.7-2.6-1.2-.7-2.1-1.1-2.6-1.3-.2-.1-.4-.1-.4-.1v.3c.1 4 1.3 6.9 3 8.9.5.6 1 1.2 1.6 1.7.9.8 1.8 1.3 2.7 1.8.7.4 1.4.6 1.9.8 1 .4 1.7.5 1.7.5v-.3-.1c0-.4.1-.7.1-1.1 0-2.8-1.2-5.2-2.9-7-.4-.6-.9-1.1-1.4-1.5z"/><path d="M108.1 92.6c-.9-.8-1.8-1.4-2.7-2-.3-.2-.7-.4-1-.6-.5-.3-.9-.5-1.3-.7-.6-.3-1-.5-1.3-.6-.2-.1-.3-.1-.3-.1v.3c.1 3.7 1.1 6.4 2.6 8.4.4.5.8 1 1.2 1.4 1.5 1.5 3.2 2.5 4.5 3.1.7.3 1.2.5 1.7.6.6.2 1 .2 1 .2.1-.5.1-1 .1-1.5 0-2.2-.7-4.1-1.8-5.7-.9-1-1.8-2-2.7-2.8zM110.8 106.1c-.1-.1-.1-.2-.2-.4-.6-.8-1.2-1.5-1.9-2.2-.2-.2-.4-.4-.6-.5-.3-.2-.5-.4-.8-.7-.6-.4-1.1-.8-1.6-1.2-.4-.3-.9-.5-1.2-.8l-.6-.3c-.9-.5-1.7-.8-2.1-1-.2-.1-.3-.1-.3-.1v.3c.1 4 1.3 6.9 2.9 8.9.2.2.3.4.5.6.2.2.3.4.5.6.5.5 1.1.9 1.6 1.3.2.2.5.3.7.5.6.4 1.2.7 1.8.9 1.6.7 2.8.9 2.8.9.1-.5.1-1 .1-1.5 0-.7-.1-1.5-.2-2.1-.2-1.1-.8-2.2-1.4-3.2zM110 115.5c-.4-.5-.8-.9-1.2-1.3-.2-.2-.5-.5-.8-.7-1-.9-2.1-1.6-3-2.2-.2-.1-.4-.3-.6-.4-.1-.1-.2-.1-.3-.2-1.5-.9-2.7-1.3-2.7-1.3v.7c0 1 .1 1.9.3 2.7.2 1.2.6 2.3 1 3.3.4.8.8 1.4 1.2 2 .7.1 1.5.2 2.2.3.5.1.9.2 1.4.2l1.5.3c.5.1.9.2 1.4.3.5.1 1.1.2 1.6.3-.4-1.4-1-2.7-1.9-3.9l-.1-.1zM118.7 47.9c.1-.2.1-.3.2-.5.2-.5.3-1.1.4-1.6.1-.3.1-.7.1-1.1 0-.7 0-1.5-.1-2.3-.1-1-.4-1.9-.8-2.8-.1-.2-.2-.5-.3-.7-.2-.4-.4-.8-.7-1.2-1-1.5-2.2-2.7-3.6-3.5-.1.1-.2.1-.3.2-1.5 1-2.7 2.3-3.6 3.8l-.9 1.8c-.3.8-.5 1.7-.6 2.5-.1.9-.1 1.8 0 2.7 0 .2 0 .3.1.5 0 .1 0 .2.1.4.2 1.3.7 2.5 1.4 3.6 0 .1.1.1.1.2.1.1.1.2.2.3.5.7 1 1.3 1.6 1.9.7.6 1.4 1.2 2.1 1.7.1-.1.2-.1.3-.2 0 0 .1 0 .1-.1.1 0 .1-.1.2-.1l.1-.1c1.7-1.3 3.1-3.3 3.9-5.4z"/></g><path fill="#4D4D4E" d="M123.8 122.6c-.1 0-.1 0 0 0l-2.1-.6c-.7-.2-1.3-.4-2-.5-.1 0-.2-.1-.3-.1-.6-.1-1.1-.3-1.7-.4-.6-.1-1.2-.3-1.8-.4-.4-.1-.7-.2-1.1-.2h-.1c-.2 0-.4-.1-.6-.1l-1.5-.3c-.2 0-.3-.1-.5-.1-.5-.1-1.1-.2-1.6-.3-.4-.1-.9-.2-1.4-.3l-1.5-.3c-.5-.1-.9-.2-1.4-.2-.7-.1-1.5-.2-2.2-.3h-.2c-.7-.1-1.5-.2-2.2-.3-2.2-.3-4.4-.6-6.6-.8-4.7-.5-9.5-.8-14.5-1-2.6-.1-5.2-.1-7.8-.1-17.1 0-32.9 1.9-45.6 5.1-11.3 2.8-20.2 6.7-25.2 11.2 7-2.5 15.5-4.5 25.2-6.1 12.3-2 26.5-3.1 41.6-3.1 4 0 7.9.1 11.8.2 5 .2 9.8.5 14.5 1 3.9.4 7.7.8 11.4 1.3.5.1.9.1 1.4.2 5.7.8 11.1 1.9 16 3 10.2 2.4 18.4 5.6 23.9 9.1-2.3-6.3-11-11.7-23.9-15.6z"/></svg>