<svg xmlns:xlink="http://www.w3.org/1999/xlink"  xmlns="http://www.w3.org/2000/svg" viewBox="0 0 150 150"><path fill="none" d="M45.7 72.2l18.6-32.3z"/><path d="M117.9 103.4l-33.7 19.4 23.5-40.7 10.5 18.2c1.2-3.9 4.5-6.7 8.7-6.7.4 0 1.1 0 1.1.1V56.5c-1 .5-2.1.8-3.4.8-3.7 0-6.8-2.2-8.3-5.3l-8.6 15-23.5-40.8 31.9 18.4c1-2.6 3-4.6 5.6-5.5l-38.3-22c-.3 3.7-2.4 6.8-6.4 8v4.5L102 72h11v1.1l8-13.7v30.3L113 76v2h-11.7L77 119.5v4.5c4 1.4 5.8 4.5 5.9 8.3l38.2-22c-1.9-1.7-3.1-4.1-3.2-6.9zM70 124.3v-5.8L46.4 78H35v-3l-8 14.7V59.4l8 14.7V72h10.7l18.8-32.2 5.5-9.2v-6.2c-3-1.6-4.8-4.5-4.9-7.9L28.9 37.4c2.2 1.4 3.8 3.7 4.2 6.3l30.4-17.5L39.9 67l-9-15.5c-1.7 2-4.3 3.3-7.2 3.3-1.7 0-2.8-.5-4.8-1.3V96c1-.7 2.8-1 4.3-1 2.9 0 5.5 1.3 7.2 3.4l9.3-16.1L63.2 123l-30.7-17.7c-.3 2.7-1.7 5.1-3.8 6.6l35.7 20.5c.4-3.6 2.6-6.6 5.6-8.1z"/><path fill="#FFF" d="M121 89.7V59.4l-8 13.7V76z"/><path fill="#006294" d="M116.1 44.6L84.2 26.2 107.7 67l8.7-15c-.6-1.2-.9-2.6-.9-4 0-1.3.2-2.4.6-3.4z"/><path fill="#602B85" d="M31 51.4l9 15.5 23.5-40.7-30.4 17.6c.1.5.1 1.1.1 1.6 0 2.3-.8 4.4-2.2 6z"/><path fill="#FFF" d="M27 89.7L35 75v-.9l-8-14.7z"/><path fill="#13ABD3" d="M32.7 105.1l30.7 17.7-23.5-40.7-9.3 16.1c1.3 1.6 2.1 3.7 2.1 5.9.1.4.1.7 0 1zM84.2 122.9l33.7-19.4v-.4c0-.9.1-1.8.4-2.7l-10.5-18.2-23.6 40.7z"/><path fill="#EDE825" d="M70 78H46.4L70 118.5z"/><path fill="#F89621" d="M77 72h25L77 29.6z"/><path fill="#E33F26" d="M45.7 72H70V30.6l-5.5 9.2z"/><path fill="#9BC63C" d="M77 78v41.5L101.3 78z"/><path d="M31 51.4c1.4-1.6 2.2-3.7 2.2-6.1 0-.5-.1-1.1-.1-1.6-.5-2.7-2-4.9-4.3-6.3-1.4-.9-3.1-1.4-4.9-1.4-5.2 0-9.3 4.2-9.3 9.3 0 3.4 1.9 6.4 4.6 8.1 1.4.8 3 1.3 4.7 1.3 2.8 0 5.4-1.3 7.1-3.3zM32.7 105.1v-.9c0-2.3-.8-4.3-2.1-5.9-1.7-2.1-4.3-3.4-7.2-3.4-1.5 0-3 .4-4.3 1-3 1.5-5.1 4.7-5.1 8.3 0 5.2 4.2 9.3 9.3 9.3 2.1 0 4-.7 5.5-1.8 2.2-1.5 3.7-3.9 3.9-6.6zM128.5 93.8c-.4-.1-.9-.1-1.3-.1-4.2 0-7.8 2.8-8.9 6.7-.3.8-.4 1.7-.4 2.7v.4c.1 2.7 1.4 5.2 3.4 6.8 1.6 1.3 3.7 2.1 5.9 2.1 5.2 0 9.3-4.2 9.3-9.3 0-4.8-3.5-8.7-8-9.3zM116.1 44.6c-.4 1-.6 2.1-.6 3.3 0 1.4.3 2.8.9 4 1.5 3.1 4.7 5.3 8.4 5.3 1.3 0 2.5-.3 3.7-.8 3.3-1.4 5.7-4.7 5.7-8.6 0-5.2-4.2-9.3-9.3-9.3-1.1 0-2.1.2-3.1.5-2.7 1-4.8 3-5.7 5.6zM77 124V78h36v-6H77V25.1c4-1.2 6.1-4.3 6.4-8 0-.3.1-.5.1-.8 0-5.2-4.1-9.3-9.3-9.3-5.2 0-9.3 4.2-9.3 9.3 0 .1.2.2.2.3.1 3.4 1.9 6.3 4.9 7.9V72H35v6h35v46.3c-3 1.5-5.2 4.5-5.3 8 0 .1-.1.3-.1.4 0 5.2 4.1 9.3 9.3 9.3 5.2 0 9.3-4.2 9.3-9.3 0-.1-.2-.3-.2-.4-.2-3.7-2-6.9-6-8.3z"/></svg>