<svg xmlns:xlink="http://www.w3.org/1999/xlink"  xmlns="http://www.w3.org/2000/svg" width="100" height="100" viewBox="0 0 100 100"><radialGradient id="a" cx="45.562" cy="11.722" r="117.536" gradientUnits="userSpaceOnUse"><stop offset="0" stop-color="#00adee"/><stop offset=".002" stop-color="#01adee"/><stop offset=".053" stop-color="#15abe6"/><stop offset=".103" stop-color="#22a9e2"/><stop offset=".151" stop-color="#26a9e0"/><stop offset=".327" stop-color="#1b75bb"/><stop offset=".521" stop-color="#2b388f"/><stop offset=".758" stop-color="#1c1651"/><stop offset="1" stop-color="#120742"/></radialGradient><path fill="url(#a)" d="M75.387 7.968L50.956 41.144s12.781-3.927 19.788 8.681c0 0 5.836 9.428-.693 17.241 0 0-8.326-17.165-18.082-10.102 0 0-9.866 4.469-3.886 13.169l6.079 7.73s-12.199 6.459-20.708-13.551L12.423 92.78l72.879-10.436-9.915-74.376z"/><path fill="#A6A8AB" d="M21.471 21.415l21.117 17.832-10.574 13.249L8.926 31.302l-1.703-9.186z"/><linearGradient id="b" gradientUnits="userSpaceOnUse" x1="12.558" y1="93.481" x2="85.517" y2="93.481"><stop offset="0" stop-color="#f2f3f3"/><stop offset=".205" stop-color="#dddedf"/><stop offset=".497" stop-color="#c5c7c9"/><stop offset=".769" stop-color="#b7b9bc"/><stop offset="1" stop-color="#b2b4b7"/></linearGradient><path fill="url(#b)" d="M85.517 93.481c0 .437-16.333.783-36.476.783-20.149 0-36.483-.347-36.483-.783 0-.431 16.334-.783 36.483-.783 20.143 0 36.476.353 36.476.783z"/></svg>