<svg xmlns:xlink="http://www.w3.org/1999/xlink"  xmlns="http://www.w3.org/2000/svg" viewBox="0 0 150 150"><path fill="#9BBB41" d="M78.2 10.4l-1.4-1.7-1.4 1.7c-.8 1-10.7 13.3-20.5 28.1-.3 3.6.2 7.7 2.8 10.4 7.5 6.7 17.5 6.5 26 11.7 8.9 5 16.5 13.2 15.4 23.9-.5 6.2-5 13.2-10.4 16.1-5.5 1.8-11.4 1.2-15.6-3.1-6.6-6.1-6.1-16.7-6.9-24.8-.9-4-2.2-8.3-6.1-10-1.3-1-2.9.3-4.1.7-1 .6-1.9 1.8-2 2.9 0 6.9 6.6 12.8 4.3 19.7-.9 3.3-3 6.5-6.3 7.4-1.6.4-3.2.1-4.8-.7-6.1-3.5-3.8-11.7-6.7-17-.4-.9-1.5-1-2.3-1-1.1.3-2 1.1-2.7 2.1-.6 2.3-.9 4.5-.9 6.5 0 23.2 18.9 42.1 42.1 42.1 23.2 0 42.1-18.9 42.1-42.1 0-22.6-39-70.9-40.6-72.9z"/><path fill="#4EC4E4" d="M125.1 82.2c-.3-5.2 4.8-9.3 10-10.7.2-.2.8-1.7.2-3.8-.6-2-1.8-3.1-2.3-3.1l-.3.1c-6.1 1.3-13.2-4.1-15.1-7.2-2.8-4.3-.5-10.4 3.3-14.2.1-.3-.2-1.9-1.7-3.4s-3-1.7-3.5-1.6c-1.3 1.3-3.1 2.2-5.4 2.7-2.5.5-11.4-10.2-13.8-10.6 8.7 13.9 22.7 39.7 22.7 49.8 0 1.2-.1 2.3-.2 3.5v.1c0 11.7-4.6 22.8-12.9 31.1-6 6-13.5 10.1-21.8 11.8-14.7 3.1-29.7-1.3-40.3-12-9.8-9.9-13.9-23.3-12.4-36.2.1-1.5.3-3.1.7-4.8 0-.1.1-.1.1-.2 1.8-7.7 5.7-15 11.7-21 2.9-2.9 6.4-5.2 10-7.2-3.7-1.6-.6-7.4-.8-9.8-1 1.1-3.6 5.2-4.4 5.7-.7.5-1.6.8-2.6 1-3.6.8-8.2-.9-11.6-4.3-.1 0-.3 0-.7.1-.9.2-1.9.8-2.7 1.6-1.6 1.5-1.8 3.1-1.6 3.5 4.7 4.6 3 14 1.5 16.8-1.2 2.3-3.5 3.9-6.5 4.5-2.3.5-5 .4-7.5-.3-.3.1-1.5 1.2-2.1 3.1-.6 2.1 0 3.6.4 3.9 6.4 1.7 9.6 10.6 9.7 13.8.3 5.2-4.8 9.4-10 10.7-.2.2-.8 1.7-.2 3.7.6 2.1 1.8 3.1 2.2 3.2l.3-.1c6.5-1.4 13.4 4.6 15.1 7.2 2.8 4.4.5 10.5-3.3 14.2-.1.3.2 1.9 1.7 3.4s3 1.7 3.5 1.6c2-2.1 4.8-3.6 7.4-4.2 2.5-.5 4.9-.2 6.8 1 2.7 1.8 8.7 9 7 15.5.1.3 1.1 1.5 3.2 2.1 1 .3 1.9.3 2.7.1.7-.2 1.1-.4 1.1-.5 1.5-6 9.3-8.9 12.2-9.5.6-.1 1.2-.2 1.6-.2 5.2-.2 9.3 4.8 10.7 10 .2.2 1.6.7 3.5.3l.3-.1c2.1-.6 3.1-1.8 3.2-2.2-1.8-6.4 4.3-13.6 7-15.3.8-.5 1.7-.9 2.6-1.1 3.7-.8 8.2.9 11.6 4.3.1 0 .3 0 .7-.1.9-.2 1.9-.8 2.7-1.6 1.5-1.5 1.8-3.1 1.6-3.5-4.6-4.6-3-13.9-1.6-16.8 1.3-2.4 3.6-4 6.6-4.6 2.3-.5 4.9-.4 7.4.3.3-.1 1.6-1.2 2.1-3.1.6-2.1 0-3.6-.4-3.8-6.1-1.5-9.3-10.4-9.4-13.6z"/></svg>