<svg xmlns:xlink="http://www.w3.org/1999/xlink"  xmlns="http://www.w3.org/2000/svg" viewBox="0 0 150 150"><path fill="#231F20" d="M127.9 89.9c-10.1-.1-20.3 0-30.4-.1-1.8 2.4-3.9 4.6-6.2 6.6 11.4-.1 22.8-.1 34.2 0 .8-2.2 1.6-4.3 2.4-6.5zM25.7 96.4c11.4 0 22.8-.1 34.2 0-2.3-2-4.4-4.2-6.2-6.6-10.1.1-20.3 0-30.4.1.7 2.2 1.5 4.3 2.4 6.5zM127.7 109.3c-1.3-2.1-2.5-4.3-3.8-6.4-33.2-.1-66.3 0-99.5 0-1.3 2.2-2.5 4.3-3.8 6.5 35.7-.1 71.4 0 107.1-.1zM21.4 115.7c-1.9 0-3.8.3-5.6.6 2 2.1 4 4.1 6.1 6.1 34.9-.1 69.7-.1 104.6 0 2.1-2 4.1-4 6.1-6.1-1.9-.4-3.8-.7-5.7-.7-35.2.1-70.3.1-105.5.1zM60.8 135.3h27c.5-2.2 1.1-4.3 1.7-6.5H58.9c.6 2.2 1.2 4.4 1.9 6.5zM63.4 145.4H85c.4-1.2.7-2.4 1.1-3.6H62.2l1.2 3.6zM31.6 132.1c2.1-.8 4-2.1 6-3.2-3.2-.1-6.4-.1-9.6 0 1.2 1.1 2.3 2.2 3.6 3.2zM116.8 132.3l3.5-3.5c-3.1.1-6.2 0-9.4.1 1.9 1.1 3.9 2.3 5.9 3.4z"/><path fill="#0381C4" d="M127.1 58.7a66.7 66.7 0 0 0-4.7-11.4c2.9-5.3 6-10.5 9-15.7-5.2-5.1-10.3-10.2-15.3-15.4-5.2 3-10.4 6-15.5 9-3.7-2-7.8-3-11.4-5.1-2.2-5.4-3-11.3-4.8-16.9H65.2c-1.8 5.6-2.6 11.5-4.8 16.9-3.6 2.1-7.7 3.1-11.4 5.1-5.2-3.1-10.3-6-15.5-9-5.1 5.2-10.2 10.3-15.3 15.4 3 5.2 6.1 10.4 9 15.7-1.9 3.7-3.4 7.5-4.7 11.4-5.8 1.7-11.8 3-17.6 4.9.2 6.6.1 13.2.1 19.8h21.7c-2.4-13.1.6-27 8.3-37.9 8.1-11.8 21.5-19.7 35.7-21.2 1.3-.1 2.6.1 3.9.1h.4c1.3 0 2.6-.3 3.9-.1 14.2 1.4 27.6 9.4 35.7 21.2 7.6 10.9 10.7 24.8 8.3 37.9h21.7c0-6.6-.1-13.2.1-19.7-5.8-2-11.8-3.3-17.6-5z"/><path fill="#0381C4" d="M100 65.7c2 5.7 1.5 11.9-.1 17.6 1.9 0 3.9 0 5.8.1 3.5-12.6-.8-27-11.1-35.1-5.5-4.6-12.5-7-19.7-7.3h-.4c-7.1.3-14.2 2.7-19.7 7.3-10.3 8.1-14.6 22.5-11.1 35.1 1.9 0 3.9-.1 5.8-.1-1.6-5.7-2-11.9 0-17.6 3-9.8 11.9-17.4 22-19 1.1-.2 2.1-.1 3.2-.1s2.2-.1 3.2.1c10.2 1.6 19.1 9.2 22.1 19z"/><path fill="#0381C4" d="M74.8 29.7h-.2c-10.3.4-20.4 4.1-28 11.1C34.7 51.1 29.2 68 32.3 83.4H38c-2.4-11.6 0-24.3 7.6-33.5 6.9-9 18-14.1 29.2-14.6 11.3.5 22.3 5.7 29.2 14.6 7.6 9.2 10 21.9 7.6 33.5h5.7C120.4 68 115 51.1 103 40.8c-7.7-7-17.8-10.7-28-11.1h-.2z"/><path fill="#0381C4" d="M70.6 57.9c-5.9 1.3-10.9 5.9-12.5 11.7-2 6.3.4 13.5 5.5 17.6 4.5 3.8 11 4.9 16.4 2.8 5.3-1.9 9.5-6.8 10.6-12.3 1.5-6.5-1.5-13.8-7.2-17.4-3.7-2.4-8.4-3.5-12.8-2.4z"/></svg>