<svg xmlns:xlink="http://www.w3.org/1999/xlink"  xmlns="http://www.w3.org/2000/svg" viewBox="0 0 150 150"><g fill="#F15B26"><path d="M79.6 13.3h-6.1l.1 6.1h6.1zM75.2 42.8v-5.2h-1.3l-4.9-.1v4.9l1 .1v.4zM69.9 22.4l-7.9-.1v8h7.9v1.3l3.7-.1v-3.7H70zM79.2 66.6v-3.7h-2.8l.1-4.9-8 .1V66l7-.1v.7zM69.2 54.9h3.9v.4l2.1-.1v-2h-1.5v-2.8l-4.3.1v-1.6h-.1v-.6H67v.6h-.1v2.4h2.3zM92.6 65.6v1.5l-.1 6h3.4l4.5-.1V65.1l-7.8.1zM66.2 19.1v-1.8h2.1v-2.8h-2.2v-.4h-5l.1 5zM55.3 64.7v-4.4l-5.8.1v4.2l-.1 1.6h5.9z"/><path d="M55.3 74.4c-1.7-.1-3.5-.1-5.3-.1l-.2 9.7-.2 10.6c.2 0 .4 0 .6-.1 0 .1-.1.2-.1.4l5.1.1c.1-.3.2-.6.4-.9 3.3-8.3 11.4-14 20.8-13.8h.4c4 .2 7.8 1.4 10.9 3.5.4.2.8.5 1.1.8.9.6 1.7 1.3 2.4 2.1 2.6 2.6 4.6 5.8 5.6 9.4h1.4l2.9.1c-.6-2.2-1.4-4.3-2.4-6.2-.4-2-.4-4-.2-5.9h-4.2l-.8-.8v-4.4l-5.8.1v.3c-.3-.1-.5-.3-.8-.4h.7V68.4h4.5v-2.7l-.1-9.4h6.1l-.1-6.1h-6.1l.1 6.1-12.1-.1.1 9.2v1.5h-1v1h-2.3v8.4H76c-.9 0-1.7 0-2.6.1v-1.8h-3.7v2.3c-.5-.1-1-.2-1.5-.4v.8l-2.7.9v-2.3l-5.6.1h-.7v.4l.1 3.2-4.1.1v-.6l.1-4.7zM76.4 8.2V7.1h3.8l.1-3.9H77l.1-1.1h-2.2v2.2h-2.5l.1 3.9zM70 11V8.7h-.9v-.5h-3.5l-.1-1.7h-.1l.1 4.5zM69.1 6.9h.9v.2h-.9zM102.1 100.9l-4.3-.1c0 .7.1 1.3.1 2-.3 12.1-10.3 21.7-22.4 21.4-12.1-.3-21.7-10.3-21.4-22.4 0-.7.1-1.3.1-2l-5-.1c-.1.8-.2 1.6-.2 2.4-.3 14.7 11.3 26.8 25.9 27.2 14.7.3 26.8-11.3 27.2-25.9.1-1 .1-1.8 0-2.5z"/></g><g fill="#00ACA8"><path d="M118.3 113.9c-4.7-1.4-6.8-7.9-6.9-10.2 0-.9.2-1.8.5-2.6l-4.7-.1c0 .4.1.8.1 1.1 0 .9-.1 1.7-.2 2.5v.1c-.2 8.6-3.7 16.5-10 22.4-4.5 4.3-10 7.1-16.1 8.3-10.7 2-21.7-1.5-29.2-9.4-7-7.3-9.7-17.1-8.5-26.4l-6-.1c.9 1.9 1.3 3.7 1.3 4.7.1 3.8-3.7 6.7-7.5 7.6-.1.2-.6 1.2-.2 2.7.4 1.5 1.3 2.3 1.6 2.4l.2-.1c4.8-.9 9.7 3.6 10.9 5.5 2 3.2.2 7.6-2.6 10.3-.1.2.1 1.4 1.2 2.5 1.1 1.1 2.1 1.3 2.5 1.3 1.5-1.5 3.6-2.5 5.5-2.9 1.9-.4 3.6-.1 4.9.9 1.9 1.3 6.2 6.7 4.8 11.5.1.2.8 1.1 2.3 1.6.7.2 1.4.3 2 .1.5-.1.8-.3.8-.4 1.2-4.3 6.9-6.3 9-6.7.4-.1.9-.1 1.2-.1 3.8-.1 6.7 3.7 7.6 7.4.1.1 1.1.5 2.5.3l.2-.1c1.5-.4 2.3-1.3 2.3-1.6-1.2-4.7 3.4-9.8 5.4-11.1.6-.4 1.2-.6 1.9-.7 2.7-.5 6 .8 8.4 3.3.1 0 .2 0 .5-.1.7-.1 1.4-.5 2-1.1 1.1-1.1 1.3-2.2 1.2-2.5-3.3-3.5-2-10.2-.9-12.3 1-1.7 2.7-2.8 4.9-3.3 1.7-.3 3.6-.2 5.4.3.3-.1 1.2-.8 1.6-2.3.7-1.4.3-2.5.1-2.7zM77 53.9l8-.1v-7.9h-6.6v-2.2l-4.4.1v4.4l3.1-.1zM59.9 51.6H54l-.1 5.9h5.9zM79.3 27.9h5.6v-5.6H84V22h-2.1l.3.2h-3zM65.6 8.2h3.5v.5h1.6V7l-.7.1h-.9v-.2h.9V5.6h-.9v-1h-3.6v1.9z"/><circle cx="75.9" cy="115.6" r="8.4"/></g></svg>