<svg xmlns:xlink="http://www.w3.org/1999/xlink"  xmlns="http://www.w3.org/2000/svg" viewBox="0 0 150 150"><path fill="#F9A64A" d="M123.7 54.8c0 .2.1.5.1.7.6 5.4.4 11.1-.8 16.8-2.3 10.9-7.7 20.3-15 27.3 9-6.4 15.7-16 18.1-27.6 3.1-14.8-1.5-29.4-11.1-39.7 4.6 6.4 7.6 14.2 8.7 22.5z"/><path fill="#FF9E16" d="M23.6 56.9c0-23.3 15.5-42.9 36.8-49.2C37 12.5 19.5 33.2 19.5 57.9c0 26.9 20.7 48.9 47 51l.2-1.5c-24.5-3.8-43.1-25-43.1-50.5zM85.2 107.1c-1.6.3-3.2.6-4.8.7v.4c1.7-.3 3.3-.7 4.8-1.1z"/><path fill="#F16A22" d="M130.5 56.2C130.5 27.9 107.6 5 79.3 5 53 5 31.4 24.8 28.4 50.2 33.3 27 53.9 9.6 78.5 9.6c28.3 0 51.2 22.9 51.2 51.2 0 2-.1 4.1-.4 6 .8-3.4 1.2-6.9 1.2-10.6z"/><path fill="#302A1C" d="M82.5 132.6l-2-24.3v-.4l-3.1-37.1c1.6-.6 3-1.5 4.1-2.8l2.3 13 31.6 6.5 2.9-5-34.6-19.9c0-.3.1-.7.1-1 0-3.9-2.3-7.2-5.6-8.8l7.8-6.3L75.8 16H70v36.7c-3 1.5-5.7 4.9-5.7 8.9v.6L55.6 59 34.2 83.1l2.9 5 31.7-18.3c.5.3 1.1.6 1.7.9l-3.9 36.8-.2 1.5-2.6 24.4c-14.8 1.9-25.8 6.7-27.7 12.5 8.1-4.8 24.1-8.1 42.5-8.1 17.2 0 32.3 2.9 40.8 7.1-3.2-6.6-18.3-11.6-36.9-12.3z"/></svg>