<svg xmlns:xlink="http://www.w3.org/1999/xlink"  xmlns="http://www.w3.org/2000/svg" viewBox="0 0 150 150"><path fill="none" d="M73.6 99.2c-1.9.9-3.9 1.4-6.1 1.4-8 0-14.4-6.5-14.4-14.4 0-8 6.5-14.4 14.4-14.4 3.7 0 7.1 1.4 9.7 3.8l38.9-26.3-39.9-23L33 51.1v24.2l33.5-22.6c-.3-1.2-.5-2.5-.5-3.8 0-7.7 6.3-14 14-14s14 6.3 14 14-6.3 14-14 14c-3.6 0-6.8-1.4-9.3-3.6L33 84.7V101l40.6 23.4V99.2z"/><path fill="#FFAD26" d="M76.2 125.9l43.2-24.9V56.4L81.3 82c.4 1.3.6 2.7.6 4.1 0 5.8-3.4 10.7-8.3 13.1v25.2l2.6 1.5z"/><path fill="#FFF" d="M79.9 55.1c3.4 0 6.2-2.8 6.2-6.2s-2.8-6.2-6.2-6.2c-3.4 0-6.2 2.8-6.2 6.2s2.8 6.2 6.2 6.2z"/><path fill="#FFAD26" d="M67.4 79.5a6.7 6.7 0 1 0 6.7 6.7c0-3.8-3-6.7-6.7-6.7z"/><path fill="#48B2E8" d="M128.5 42.3L79.2 13.8a6.05 6.05 0 0 0-6.1 0L23.8 42.3c-1.9 1.1-3.1 3.1-3.1 5.3v56.9c0 2.2 1.2 4.2 3.1 5.3l49.3 28.5c.9.5 2 .8 3.1.8s2.1-.3 3.1-.8l49.3-28.5c1.9-1.1 3.1-3.1 3.1-5.3v-57c-.2-2.1-1.3-4.2-3.2-5.2zM74.1 86.1a6.7 6.7 0 1 1-6.7-6.7c3.7.1 6.7 3 6.7 6.7zm-.4-37.2c0-3.4 2.8-6.2 6.2-6.2 3.4 0 6.2 2.8 6.2 6.2s-2.8 6.2-6.2 6.2c-3.4 0-6.2-2.8-6.2-6.2zm-40.7 52V84.7l37.6-25.4c2.5 2.2 5.7 3.6 9.3 3.6 7.7 0 14-6.3 14-14s-6.3-14-14-14-14 6.3-14 14c0 1.3.2 2.6.5 3.8L33 75.3V51.1l43.2-24.9 39.9 23-39 26.3c-2.6-2.3-6-3.8-9.7-3.8-8 0-14.4 6.5-14.4 14.4 0 8 6.5 14.4 14.4 14.4 2.2 0 4.3-.5 6.1-1.4 4.9-2.3 8.3-7.3 8.3-13.1 0-1.4-.2-2.8-.6-4.1l38.1-25.7v44.5l-43.2 24.9-2.6-1.5L33 100.9z"/></svg>