<svg xmlns:xlink="http://www.w3.org/1999/xlink"  xmlns="http://www.w3.org/2000/svg" viewBox="0 0 150 150"><linearGradient id="a" gradientUnits="userSpaceOnUse" x1="75.253" y1="16.615" x2="75.253" y2="66.775"><stop offset="0" stop-color="#ffc03b"/><stop offset="1" stop-color="#ea6847"/></linearGradient><path fill="url(#a)" d="M15.5 68.1l6.4 3.3c-.1.9-.1 1.6-.1 2.6h17.5c.3-16 11.5-30.7 27.9-34.4 19.4-4.5 38.7 7.6 43.2 27 .6 2.5.9 5.4.9 7.4h17.5c0-1 0-1.4-.1-2.1l6.3-3c2.3-.5 3.7-3.1 3-5.8l-1.9-7.9c-.6-2.7-3-4.4-5.3-3.8l-7.2.2c-1-2.1-2.1-4-3.3-5.9l3.9-5.7c1.7-1.6 1.6-4.5-.3-6.5l-5.5-5.9c-1.9-2-4.8-2.3-6.5-.7l-6.2 3.7c-1.8-1.3-3.8-2.4-5.8-3.5l.6-6.9c.7-2.3-.9-4.7-3.5-5.5l-7.7-2.3c-2.6-.8-5.3.4-6 2.7l-3.5 6.3c-2.2-.2-4.5-.2-6.7-.1l-3-6.3c-.5-2.3-3.1-3.7-5.8-3.1l-7.9 1.8c-2.7.6-4.4 3-3.9 5.3l.1 7.2c-2.6 1.2-5 2.6-7.4 4.2l-5.8-3.8c-1.7-1.7-4.6-1.5-6.5.4l-5.8 5.7c-1.9 1.9-2.2 4.8-.5 6.5l3.9 6.1c-1.2 1.9-2.4 3.8-3.4 5.9l-6.9-.4c-2.3-.6-4.7 1-5.4 3.6l-2.2 7.8c-.7 2.6.6 5.2 2.9 5.9z"/><linearGradient id="b" gradientUnits="userSpaceOnUse" x1="75.201" y1="141.039" x2="75.201" y2="94.758"><stop offset="0" stop-color="#619f42"/><stop offset="1" stop-color="#5b784d"/></linearGradient><path fill="url(#b)" d="M134.9 82.2l-6.3-3.3c.1-1 .1-1.9.1-2.9h-17.5c-.4 16-11.6 30.2-27.9 33.9-19.4 4.5-38.7-7.5-43.2-26.9-.5-2.4-.8-5-.9-7H21.7c0 1 0 1.5.1 2.4l-6.2 3c-2.3.6-3.6 3.2-2.9 5.8l2 7.8c.7 2.6 3.1 4.3 5.4 3.7l7.2-.3c1 2 2.1 4 3.4 5.9l-3.8 5.7c-1.7 1.6-1.5 4.6.4 6.5l5.6 5.8c1.9 2 4.8 2.2 6.5.6l6.1-3.8c1.9 1.3 3.8 2.4 5.9 3.4l-.5 6.9c-.6 2.3.9 4.7 3.6 5.5l7.8 2.2c2.6.7 5.3-.5 5.9-2.8l3.4-6.3c2.2.2 4.5.2 6.8 0l3 6.2c.6 2.3 3.2 3.6 5.8 3l7.8-1.9c2.6-.7 4.3-3 3.8-5.3l-.2-7.2c2.1-1 4-2.1 5.9-3.3l5.7 3.9c1.6 1.7 4.6 1.6 6.5-.3l5.8-5.6c2-1.9 2.2-4.8.6-6.5l-3.8-6.2c1.3-1.9 2.4-3.8 3.4-5.8l6.9.5c2.3.7 4.7-.9 5.5-3.5l2.3-7.8c1-2.7-.2-5.4-2.5-6z"/><path fill="#ABADB0" d="M75 41h2v5h-2zM80.356 46.796l.838-4.726 1.083.192-.838 4.726zM85.156 48.106l1.652-4.507 1.033.378-1.652 4.507zM89.645 50.281l2.414-4.149.95.553-2.413 4.15zM94.558 53.925l-.84-.71 3.102-3.664.84.71zM97.923 57.517l-.702-.847 3.694-3.065.702.847zM100.616 61.82l-.542-.957 4.176-2.367.542.957zM102.5 66.393l-.369-1.036 4.522-1.609.369 1.037zM108.103 69.35l.182 1.085-4.735.792-.181-1.085zM103.701 75.172l4.8.05-.012 1.1-4.8-.05zM103.159 80.05l4.717.889-.204 1.08-4.717-.888zM101.86 84.894l4.49 1.699-.39 1.028-4.49-1.698zM99.604 89.431l4.123 2.458-.563.945-4.123-2.458zM96.737 93.485l3.63 3.14-.72.833-3.63-3.141zM93.102 96.921l3.026 3.726-.854.694-3.026-3.727zM91.333 103.945l-.962.534-2.326-4.199.962-.533zM84.9 106.6l1.1-.3-1.6-4.6-1.1.3zM80.355 107.67l-1.086.17-.747-4.741 1.087-.171zM74.623 103.226l-.1 4.8-1.1-.024.1-4.799zM69.662 102.64l-.935 4.707-1.08-.214.936-4.708zM64.874 101.18l-1.745 4.47-1.025-.4 1.746-4.47zM59.458 98.374l.94.572-2.496 4.1-.94-.572zM55.567 95.241l.825.728-3.176 3.6-.825-.729zM52.321 91.512l.685.86-3.756 2.99-.685-.862zM50.2 88.2l-.5-1-4.3 2.3.6 1zM47.943 82.522l.348 1.044-4.554 1.517-.348-1.044zM47.1 78.8l-.1-1.1-4.8.7.1 1.1zM42 73.7l4.9.1v-1.1l-4.8-.2zM47.47 68.89l-4.697-.986.226-1.076 4.698.986zM44.4 62.3l4.5 1.8.5-1.1-4.5-1.8zM51.237 59.694l-4.071-2.542.583-.933 4.07 2.542zM55 54.8l-3.6-3.2-.8.8 3.6 3.3zM55.766 47.77l2.948 3.787-.868.676-2.948-3.788zM59.842 45.337l.972-.515 2.25 4.24-.972.515zM66.3 42.7l-1.1.4 1.5 4.6 1.1-.4zM72 41.6l-1.1.2.7 4.8 1.1-.2z"/><path opacity=".2" fill="#ABADB0" d="M77.4 59.4l1.1 5.7c4.4 1.3 7.7 5.4 7.7 10.2 0 5.9-4.8 10.7-10.7 10.7-5.9 0-10.7-4.8-10.7-10.7 0-4.8 3.2-8.9 7.5-10.2l1.1-5.8c-8.2 1-14.6 8-14.6 16.5 0 9.2 7.4 16.6 16.6 16.6C84.5 92.5 92 85 92 75.9c0-8.5-6.4-15.5-14.6-16.5z"/><path fill="#ABADB0" d="M64.8 75.3c0 5.9 4.8 10.7 10.7 10.7 5.9 0 10.7-4.8 10.7-10.7 0-4.9-3.2-8.9-7.7-10.2l-1.3-5.7L75 48.6V48v.3-.3.6l-1.8 10.7-1 5.8c-4.4 1.4-7.4 5.4-7.4 10.2zm10.6 4.9c-2.7 0-4.9-2.2-4.9-4.9s2.2-4.9 4.9-4.9 4.9 2.2 4.9 4.9-2.2 4.9-4.9 4.9z"/><circle fill="#FFFFFE" cx="75.4" cy="75.3" r="4.9"/></svg>