<svg xmlns:xlink="http://www.w3.org/1999/xlink"  xmlns="http://www.w3.org/2000/svg" viewBox="0 0 150 150"><path fill="#C1CD23" d="M92.6 95.7c.2 3.9.2 6.7-1.3 11.6-1-1.8-2.1-3.6-3.4-5.4-1.6 1.7-3.6 3.4-6 5-14.9 9.8-39.6 11.2-55.1 3.3-12.9-6.6-15.5-17.6-7.3-26.8 1.2-1.2 2.7-2.8 4-4 3.1-2.6 3.3-2.8 5.7-4.4.8-.5 1.9-1.2 2.8-1.7-.7.4-1.3.8-2 1.2-12.4 8.1-12 20 .9 26.6 12.9 6.6 33.4 5.3 45.8-2.8 2-1.3 3.7-2.7 5-4.2-1.5-1.6-3.1-3.1-4.8-4.6 2.9-.3 4.8-.6 7.6-1.6 2-.8 3.4-1.4 4.7-2.8 1.3 2.5 3 6 3.4 10.6"/><path fill="#63A70A" d="M87.5 129.4c-3.7 3.9-6.3 6.5-12 10.6v-.4c-.1-1.8-.3-3.6-.6-5.5-17.2 5.4-38.2 4.7-52.6-2.7-10.4-5.2-15.3-12.9-14.5-20.7.2-1.8.6-4.3 1-6.1.5-1.9 1.3-4.5 1.9-6.4-3.4 8.8.9 18 12.7 24.1 13.7 7 33.6 7.6 49.9 2.5-.4-2.1-1-4.2-1.5-6.3 4.6.5 7.8.8 13.1.4 4-.4 6.9-.8 10.8-2-1.6 3.3-3.6 7.5-8.2 12.5"/><path fill="#FFD457" d="M77 68.7c3.3-2.2 5.7-3.5 10.7-4.7-1.1 1.8-2.1 3.7-3 5.6 2.3.5 4.8 1.4 7.3 2.7 15.9 8 29.5 28.7 30.4 46.1.8 14.5-7.5 22.2-19.5 19.7-1.6-.4-3.8-1-5.4-1.4-3.8-1.4-4.1-1.5-6.7-2.8-.9-.5-2-1.1-2.9-1.6.7.4 1.3.8 2 1.1 13.2 6.7 23.3.4 22.6-14.1-.8-14.5-12.1-31.6-25.3-38.3-2.1-1.1-4.2-1.8-6.1-2.2-.6 2.1-1.2 4.2-1.6 6.4-1.7-2.3-2.9-3.9-5.1-5.8-1.7-1.3-2.9-2.2-4.8-2.7 1.5-2.1 3.6-5.4 7.4-8"/><path fill="#FF9E16" d="M108.8 56.3c5.2 1.2 8.8 2.2 15.2 5.1-.1.1-.2.2-.3.2-1.5 1-3 2.1-4.5 3.2 13.3 12.2 23.2 30.7 24 46.9.6 11.7-3.6 19.7-10.7 22.9-1.7.7-4.1 1.6-5.8 2.2-1.9.5-4.5 1.1-6.5 1.5 9.3-1.5 15.2-9.8 14.5-23-.8-15.4-10.2-32.9-22.8-44.5-1.6 1.4-3.2 2.9-4.8 4.5-1.9-4.3-3.2-7.2-6.2-11.6-2.4-3.2-4.1-5.5-7.1-8.3 3.7-.2 8.3-.5 15 .9"/><path fill="#67CFE3" d="M57.3 93.8c-3.5-1.8-5.9-3.1-9.5-6.9 2.1 0 4.3 0 6.4-.2-.7-2.3-1.2-4.8-1.3-7.7-1-17.8 10.1-39.9 24.7-49.4 12.2-7.9 23-4.6 26.8 7.1.5 1.6 1.1 3.8 1.5 5.4.7 4 .7 4.3.9 7.2 0 1 .1 2.3.1 3.3v-2.3c-.9-14.9-11.4-20.5-23.5-12.6S62.1 64 62.9 78.7c.1 2.4.5 4.5 1.1 6.4 2.1-.5 4.3-1.1 6.3-1.8-1.1 2.6-1.9 4.4-2.5 7.3-.3 2.1-.5 3.7.1 5.5-2.6-.1-6.5-.4-10.6-2.3"/><path fill="#00AEEF" d="M30.6 72.5c-1.5-5.2-2.5-8.8-3.2-15.7.1.1.2.1.4.2 1.6.8 3.3 1.5 5.1 2.2 3.9-17.6 15-35.4 28.6-44.2 9.8-6.4 18.8-6.7 25.2-2.2 1.5 1.2 3.4 2.7 4.8 3.9 1.4 1.4 3.2 3.3 4.6 4.8-6-7.3-16.1-8.2-27.2-1-12.9 8.4-23.4 25.3-27.1 42 2 .7 4.1 1.3 6.2 1.9-2.8 3.8-4.6 6.4-6.9 11.1-1.6 3.6-2.7 6.3-3.6 10.3-2.2-3-4.8-6.8-6.9-13.3"/></svg>