<svg xmlns:xlink="http://www.w3.org/1999/xlink"  xmlns="http://www.w3.org/2000/svg" viewBox="0 0 150 150"><path fill="#D1D3D4" d="M90.7 100.5H61.3L46.6 75l14.7-25.5h29.4L105.5 75l-14.8 25.5zm-25.3-7.1h21.2L97.2 75 86.6 56.7H65.4L54.9 75l10.5 18.4z"/><path fill="#84B8DE" d="M90.1 46.8H60.4L46.2 22.2c-.6-1.1-.3-2.5.8-3.1 1.1-.6 2.5-.3 3.1.8L63 42.2h24.4l12.9-22.3c.6-1.1 2-1.5 3.1-.8 1.1.6 1.5 2 .8 3.1L90.1 46.8z"/><path fill="#79A971" d="M102.3 131.2c-.8 0-1.6-.4-2-1.2l-12.9-22.3H63L50.1 130c-.6 1.1-2 1.5-3.1.8-1.1-.6-1.5-2-.8-3.1l14.2-24.6h29.7l14.2 24.6c.6 1.1.3 2.5-.8 3.1-.4.3-.8.4-1.2.4z"/><path fill="#DC8A65" d="M136 73.7l-28.4-.1-14.8-25.8 14.3-24.5c.6-1.1 2.1-1.5 3.1-.8 1.1.6 1.5 2 .8 3.1L98 47.8 110.3 69l25.7.1c1.3 0 2.3 1 2.3 2.3 0 1.3-1 2.3-2.3 2.3z"/><path fill="#D08681" d="M42.4 127.3c-.4 0-.8-.1-1.2-.3-1.1-.6-1.5-2-.8-3.1l13-22.2-12.1-21.3-25.7-.1c-1.3 0-2.3-1-2.3-2.3 0-1.3 1-2.3 2.3-2.3l28.4.1 14.8 25.8-14.3 24.5c-.5.8-1.3 1.2-2.1 1.2z"/><path fill="#DC8CCC" d="M108.2 128c-.8 0-1.6-.4-2-1.2l-14-24.7 15.1-25.6 28.4.2c1.3 0 2.3 1 2.3 2.3 0 1.3-1 2.3-2.3 2.3l-25.7-.2-12.4 21 12.7 22.4c.6 1.1.2 2.5-.9 3.1-.4.3-.8.4-1.2.4z"/><path fill="#FFC062" d="M43.7 73.5l-28.4-.2c-1.3 0-2.3-1-2.3-2.3 0-1.3 1-2.3 2.3-2.3l25.7.2 12.4-21-12.6-22.4c-.6-1.1-.2-2.5.9-3.1 1.1-.6 2.5-.2 3.1.9l14 24.7-15.1 25.5z"/></svg>