<svg xmlns:xlink="http://www.w3.org/1999/xlink"  xmlns="http://www.w3.org/2000/svg" viewBox="0 0 150 150"><path fill="#80AD78" d="M82 128.6c-.5 0-.9.1-1.4.1.5 0 1 0 1.4-.1zM90.6 127.4c-.4.1-.9.2-1.3.2.4 0 .9-.1 1.3-.2zM110.5 120.3c-.3.2-.7.4-1.1.6.4-.2.8-.4 1.1-.6zM87.8 127.9c-.4.1-.9.1-1.3.2.4-.1.9-.1 1.3-.2zM114.8 117.5c-.3.2-.6.5-1 .7.3-.2.6-.5 1-.7zM79.1 128.9c-.5 0-.9.1-1.4.1.4-.1.9-.1 1.4-.1zM76 129c-.5 0-.9 0-1.4.1.5 0 .9 0 1.4-.1zM72.9 129.2h-1.4 1.4zM112.7 119c-.3.2-.7.4-1 .6.3-.2.7-.4 1-.6zM85 128.3c-.5.1-.9.1-1.4.2.5-.1.9-.2 1.4-.2zM122.2 110.5c-.3.3-.5.6-.8.9.3-.3.5-.6.8-.9zM106 122.7c-.4.2-.7.3-1.1.5.3-.2.7-.4 1.1-.5zM123.8 108.4c-.2.3-.5.6-.7.9.2-.2.5-.5.7-.9zM101.2 124.6c-.4.1-.8.3-1.2.4.4-.1.8-.2 1.2-.4zM98.6 125.5c-.4.1-.8.2-1.2.4.4-.2.8-.3 1.2-.4zM93.4 126.8c-.4.1-.9.2-1.3.3.4-.1.8-.2 1.3-.3zM96 126.2c-.4.1-.8.2-1.3.3.5-.1.9-.2 1.3-.3zM108.3 121.5c-.4.2-.7.4-1.1.5.4-.1.7-.3 1.1-.5zM69.7 129.2h-1.3 1.3zM58.8 128.9h-.1.1zM129.4 98.9c-.1.3-.3.6-.4.8.1-.3.2-.5.4-.8zM125.4 106.3c-.2.3-.4.6-.7 1 .2-.4.4-.7.7-1zM126.8 103.9c-.2.3-.4.7-.6 1 .2-.3.4-.6.6-1zM118.7 114.2c-.3.3-.6.5-.9.8.3-.2.6-.5.9-.8zM62.9 129.1h-1 1zM66.4 129.2h-1.2 1.2zM125.8 44.2c-9 17.3-52.7 19.4-70.9 35.3-18.7 16.3-6.5 41.9-6.5 41.9 25.5-6.8 38.1-25.2 38.1-25.2s-10.6 18.5-30 25.7c-19.4 7.1-17 19.2-17 19.2h3.1c.3-8 6.1-11 8.3-12h-.1s.1-.1.3-.1c.4-.2.7-.4.7-.4 1.2.1 2.3.1 3.5.2 7.9-.6 25.8-4.2 46.4-23.3 19.2-17.7 26.5-42.4 24.1-61.3zM103.6 123.7c-.4.2-.8.3-1.2.5.4-.2.8-.4 1.2-.5zM120.5 112.4l-.8.8.8-.8zM132 91.4c1.3-4.7 1.8-9.5 1.9-14.1 0 4.6-.6 9.4-1.9 14.1zM128.1 101.5c-.2.3-.4.6-.5 1 .2-.4.4-.7.5-1zM116.7 115.9c-.3.3-.6.5-.9.7.3-.2.6-.4.9-.7z"/><path fill="#828285" d="M51.8 76.3c-1.3-3.2-2-6.8-2-10.5 0-9 4.2-16.9 10.8-22-9.8 2.2-22.7 6.9-34.2 16.8l2.8 1.9c-.1 1.1-.1 2.2-.1 3.3v1.6l-8.4 5.4 2 9.7 9.9 1.6c.6 1.5 1.3 3 2.1 4.5L29.3 97l6 7.8 4.1-1.2c.5-7.5 3.1-18.7 12.4-27.3z"/><path fill="#55924E" d="M126.6 42.7c-.2.5-.6 1-.6 1.5 2 18.9-5 43.2-24.1 60.9C81.2 124.2 63.3 128 55.4 128c1.1 0 2.2.5 3.3.6l.1.2c1.1.1 2.1.2 3.1.2.3 0 .6.1 1 .1.8 0 1.5.1 2.3.1H74.5c.5 0 .9 0 1.4-.1.6 0 1.1-.1 1.7-.1.5 0 .9-.1 1.4-.1.5 0 1.1-.1 1.6-.1s.9-.1 1.4-.1c.5-.1 1-.1 1.6-.2.5-.1.9-.1 1.4-.2.5-.1 1-.1 1.5-.2s.9-.1 1.3-.2c.5-.1 1-.2 1.5-.2.4-.1.9-.2 1.3-.2.5-.1 1-.2 1.4-.3.4-.1.9-.2 1.3-.3.5-.1.9-.2 1.4-.3.4-.1.8-.2 1.3-.3.5-.1.9-.2 1.4-.4.4-.1.8-.2 1.2-.4.4-.1.9-.3 1.3-.4.4-.1.8-.3 1.2-.4.4-.2.9-.3 1.3-.5.4-.1.8-.3 1.2-.5.4-.2.8-.3 1.3-.5.4-.2.8-.3 1.1-.5l1.2-.6c.4-.2.7-.4 1.1-.5l1.2-.6c.4-.2.7-.4 1.1-.6.4-.2.8-.5 1.1-.7.3-.2.7-.4 1-.6.4-.2.7-.5 1.1-.8.3-.2.7-.5 1-.7.4-.3.7-.5 1.1-.8.3-.2.6-.5.9-.7.3-.3.7-.6 1-.9.3-.3.6-.5.9-.8.3-.3.7-.6 1-1l.8-.8c.3-.3.6-.7.9-1 .3-.3.5-.6.8-.9.3-.4.6-.7.9-1.1.2-.3.5-.6.7-.9l.9-1.2c.2-.3.5-.6.7-1 .3-.4.6-.9.8-1.3.2-.3.4-.6.6-1 .3-.5.5-1 .8-1.5.2-.3.4-.6.5-1 .3-.6.6-1.2.8-1.7.1-.3.3-.6.4-.8.4-.9.8-1.8 1.1-2.7.6-1.6 1.1-3.1 1.5-4.7 1.3-4.7 1.9-9.5 1.9-14.1.4-18.9-7.2-35-7.2-35zM51 128.9c.1 0 .1-.1.2-.1h-.3l.1.1z"/><path fill="#5C8FC9" d="M24.6 59.3c23-22.1 53.2-21.6 53.2-21.6 11.4 0 21.1 6.8 25.5 16.5 7.2-3.2 13.2-6.7 17.6-11.4 0-.1-.1-.2-.1-.3l3.2-5.4 1.9-3.2-6.1-7.7-9.6 3c-1.2-1.1-2.5-2.1-3.8-3.1l.9-10-8.9-4.3-7.3 6.9c-1.6-.4-3.2-.5-4.8-.7l-3.6-9h-9.9l-3.6 9c-1.2.2-2.5.3-3.7.6l-7.1-7.1-9 4 .2 3.3.4 6.7c-.5.4-1 .7-1.5 1.1-.8.6-1.6 1.2-2.4 1.9l-9.5-3.2-6.3 7.6.8 1.4 4.1 7.3c-.6 1.1-1.2 2.2-1.7 3.3-.2.4-.3.7-.5 1.1l-10 1.2-1 3.9-1.4 5.6 4 2.6z"/></svg>