<svg xmlns:xlink="http://www.w3.org/1999/xlink"  xmlns="http://www.w3.org/2000/svg" viewBox="0 0 150 150"><path fill="#6E6E73" d="M131.6 108.1c-4.8 7.8-10.9 14.5-17.9 19.8 7.2-5.2 13.3-12 17.9-19.8zM22.6 102.1l8-4.6-7.8-1.5 3.5-4.2-9.6 2.6 10.9-4.1 4.2-5.1-3.2-1.8L14.4 85l12.3-2.5-7.2-4 4.1-2.6-9.9-.5 11.5-.6 6-3.9-2-2.1-14.9-3.1 13.3 1.4-6-6.4 3.9-1-9-3.4 10.8 2.9 7.8-2-.9-1.8-14-8 12.9 5.8-4-8.6 3.2.2-7-5.6 8.8 5.7 9 .5-.1-1.1-11.3-12.6 11.1 10-1.3-10.3 2 .8-4.5-6.8 6 7.4 9.5 3.7v-.1l-7.2-16L55 33.8l2.1-11 1 .8-1.9-7 3 7.9 8.3 6.8-1.8-16.9 3.2 15.5 5.8-10.4.3.5.3-6.3.4 7.4 6 9.3L85 14.5l-1.7 15.9 9.2-8.6 1.9-5.1-1.7 6.1 2.9 11.1 7.7-13.5-6.5 14.4 11.6-5.4 3.2-3.9-3 4.6-.7 11.7 11-10-10.3 11.4 12.9-1.6 3.8-2.5-3.8 3.1-4.3 11.1 13.2-5.9-12.8 7.4 12.9 2.5-.1.1 3.8-1-4.3 1.6-7.7 9.3 14.2-1.5-13.7 2.9 11.1 6.2-.7.4 4 .2-4.7.2-10.1 6.5 14 2.9-13.1-1.4 8.3 8.9-1.5.4 4.1 1.5-4.9-1.3-11.3 2.8.2.4 6.9 4c3 1.3 5.9 2.7 8.5 4.2 4.5-8.9 7-18.9 7-29.5 0-36.2-29.4-65.6-65.6-65.6-36 0-65.4 29.4-65.4 65.6 0 10.9 2.7 21.1 7.4 30.1 1.7-1.1 3.6-2.1 5.7-3.1z"/><path fill="#6E6E73" d="M31.2 98.5c.5-.2 1-.4 1.6-.5h-.2l-1.4.5z"/><path fill="#F4F0D8" d="M117.9 96l11.2-2.9 4.9 1.3-4.1-1.5 1.5-.4-8.3-8.9 13.1 1.4-14-2.9 10.1-6.5 4.7-.2-4-.2.7-.4-11.1-6.2 13.7-2.9-14.3 1.5 7.7-9.3 4.3-1.6-3.8 1 .1-.1-12.9-2.5 12.8-7.4-13.2 5.9 4.3-11.1 3.8-3.1-3.8 2.5-12.9 1.6 10.3-11.4-11 10 .7-11.7 3-4.6-3.2 3.9-11.6 5.4 6.5-14.4-7.7 13.5-2.9-11.1 1.7-6.1-1.9 5.1-9.2 8.6 1.7-15.9-3.3 15.9-6-9.3-.4-7.4-.1 6.3-.3-.5-5.8 10.4-3.2-15.5 1.8 16.9-8.3-6.8-3-7.9 1.9 7-1-.8-2.1 11-7.7-13.5 7.2 16v.1L45 32.8l-6-7.4 4.5 6.8-2-.8 1.3 10.3-11.1-10 11.4 12.6.1 1.1-9-.5-8.8-5.9 7 5.6-3.2-.2 4 8.6-12.9-5.8 14 8 .9 1.8-7.8 2-10.8-2.9 9 3.4-3.9 1 6 6.4-13.3-1.4 14.9 3.1 2 2.1-6 3.9-11.5.6 9.9.5-4.1 2.6 7.2 4L14.4 85l14.1-1.5 3.2 1.8-4.2 5.1-10.9 4.1 9.6-2.6-3.4 4.1 7.8 1.5-8 4.6c2.7-1.3 5.6-2.5 8.6-3.6l1.3-.6h.2c10.2-3.5 22.1-5.8 34.9-6.5l3.1-21.8c-3.7 4.5-7.4 9.1-11 13.6-3.3-2.8-6.4-5.9-9.3-9.3C56.9 68.6 63.5 63.3 70 58c-6.4-5.1-13-10.4-19.5-15.7 2.8-3.3 5.9-6.4 9.3-9.3 5.3 6.5 10.6 13.1 15.8 19.6h.1c5.3-6.5 10.6-13 15.8-19.6 3.3 2.8 6.4 5.9 9.3 9.3-6.5 5.3-13 10.6-19.6 15.8v.1c6.5 5.3 13.1 10.6 19.6 15.8-2.8 3.3-5.9 6.4-9.3 9.3-3.4-4.3-6.9-8.5-10.3-12.8l2.7 20.9c15.6.8 29.8 4 41.2 8.9l-6.9-4-.3-.3z"/><path fill="#F4F0D8" d="M65.9 48.6l2.3-1.6-3-3.7-2 2.6-1.8 2.4 2.3 1.8zM58.5 41.2l3.1-2.3-2.3-2.9c-1 .9-2 1.9-3 2.8-1 1-1.9 2-2.8 3l2 1.6 3-2.2zM88.9 44.8l2 2.6 3.8-3-3.1-2.3-2.9-2.1-1.7 2.1zM81.5 52.2l1.3 1.8 3.6-3-2.2-1.5-2-1.4-1.9 2.3zM56.3 72.1l-2.9 2.3c.9 1 1.9 2 2.8 3 1 1 2 1.9 3 2.8l1.6-2-2.3-3.1-2.2-3zM60.4 68.9L56.6 72l3 2.2 2.9 2.2 1.8-2.2-2-2.7zM62.2 44.9l2.7-2-3.1-3.8-2.3 3.1-2.1 2.9 2.2 1.7zM78 55.7c-1.3-1.3-3.4-1.3-4.8 0-1.3 1.3-1.3 3.4 0 4.8.5.5 1.1.8 1.7.9l.7.1c.8 0 1.7-.3 2.3-1 1.4-1.3 1.4-3.4.1-4.8zm-1 3.8c-.8.8-2 .8-2.7 0-.8-.8-.8-2 0-2.7.8-.8 2-.8 2.7 0 .8.7.8 1.9 0 2.7zM70.7 60.5L69 61.9l1.8 1.2.9.6.2-1.6-.1-.1c-.5-.4-.9-.9-1.1-1.5zM69.7 64.2l-1.3-1.9-3.6 3 2.2 1.5 2.1 1.5 1.8-2.3zM64.4 65.6l-3.7 3 2.6 1.9 2.5 1.8 1.8-2.2-1.6-2.2zM71.7 54.2c.4-.4.9-.8 1.5-1l-1.4-1.7-1.2 1.8-1.1 1.6 1.1.9c.3-.6.7-1.1 1.1-1.6zM71.4 51l-2.9-3.7-1.6 2.3-1.4 2 2.3 1.9 1.8-1.3zM92.6 41.1l2.3 3.1 2.9-2.3c-.9-1-1.9-2-2.8-3-1-1-2-1.9-3-2.8l-1.6 2 2.2 3zM86.3 73.4l3.1 3.8 2.3-3.1 2.1-2.8-2.2-1.8-2.6 2zM80.6 55.7l1.7-1.3-1.8-1.2-1.6-1.1-.9 1.1c.5.3 1.1.6 1.5 1.1.5.4.9.9 1.1 1.4zM81.7 61.5l-1.1-.9c-.2.4-.5.8-.8 1.2h.3l.2 1.7.3-.5 1.1-1.5zM83 69.4l3.1 3.7 1.9-2.6 1.8-2.5-2.2-1.8-2.3 1.6zM85.2 48.5l1.6 2.2 3.7-3-2.6-1.9-2.4-1.8-1.9 2.2zM89.6 77.4l2.3 2.9c1-.9 2-1.9 3-2.8 1-1 1.9-2 2.8-3l-2-1.6-3.1 2.3-3 2.2zM84.3 66.8l1.4-2.1-2.3-1.8-1.8 1.2-1.2.8.2 1.5 2.1 2.6z"/><path fill="#E25E46" d="M70.7 63.2L68.9 62l1.7-1.4c.3.5.6 1.1 1.1 1.5l.1.1.1-.9 3 .2c-.6-.1-1.2-.4-1.7-.9-1.3-1.3-1.3-3.4 0-4.8 1.3-1.3 3.4-1.3 4.8 0 1.3 1.3 1.3 3.4 0 4.8-.6.6-1.5 1-2.3 1l4 .3c.3-.4.6-.8.8-1.2l1.1.9-1.1 1.6-.3.5.2 1.3 1.2-.8 1.8-1.2 2.3 1.9-1.4 2-1.6 2.1-2.1-2.6.5 4.2c3.4 4.3 6.9 8.5 10.3 12.8 3.3-2.8 6.4-5.9 9.3-9.3-6.5-5.3-13.1-10.6-19.6-15.8v-.1c6.5-5.3 13-10.6 19.6-15.8-2.8-3.3-5.9-6.4-9.3-9.3-5.3 6.5-10.6 13-15.8 19.6h-.1C70.3 46.1 65 39.5 59.7 33c-3.3 2.8-6.4 5.9-9.3 9.3 6.5 5.3 13.1 10.6 19.6 15.9-6.4 5.3-13 10.6-19.5 15.8 2.8 3.3 5.9 6.4 9.3 9.3 3.7-4.5 7.4-9.1 11-13.6l.8-5.9-.9-.6zm27.1 11.3c-.9 1-1.9 2-2.8 3-1 1-2 1.9-3 2.8l-2.3-2.9 3.1-2.3 3.1-2.3 1.9 1.7zm-4-3.2l-2.1 2.9-2.3 3.1-3.1-3.8 2.7-2 2.6-2 2.2 1.8zm-4-3.3L88 70.5l-1.9 2.6-3-3.7 2.3-1.6 2.2-1.6 2.2 1.8zm2.1-32c1 .9 2 1.9 3 2.8 1 1 1.9 2 2.8 3l-2.9 2.3-2.3-3.1-2.2-3 1.6-2zm-3.2 4l2.9 2.1 3.1 2.3-3.8 3.1-2-2.7-2-2.6 1.8-2.2zm-.8 5.8l2.6 1.9-3.7 3-1.6-2.3-1.6-2.2 1.8-2.2 2.5 1.8zm-5.7 2.3l2 1.4 2.2 1.6-3.6 3-1.2-1.8-1.2-1.8 1.8-2.4zm-3.3 4l1.6 1.1 1.8 1.2-1.7 1.3c-.3-.5-.6-1.1-1.1-1.5-.5-.5-1-.8-1.5-1.1l.9-1zM56.3 38.9c1-1 2-1.9 3-2.8l2.3 2.9-3.1 2.3-3.1 2.3-2-1.6c1-1.2 1.9-2.2 2.9-3.1zm1.1 6.2l2.1-2.9 2.3-3.1 3.1 3.8-2.7 2-2.6 2-2.2-1.8zm4 3.2l1.8-2.4 1.9-2.6 3 3.7-2.3 1.6-2.2 1.6-2.2-1.9zm4.1 3.3l1.4-2 1.6-2.2 3 3.7-1.8 1.2-1.8 1.2-2.4-1.9zm4 3.3l1.1-1.6 1.2-1.8 1.4 1.7c-.5.3-1 .6-1.5 1-.5.5-.8 1-1.1 1.6l-1.1-.9zM59.3 80.3c-1-.9-2-1.9-3-2.8-1-1-1.9-2-2.8-3l2.9-2.3 2.3 3.1 2.3 3.1-1.7 1.9zm3.2-3.9l-2.9-2.1-3-2.3 3.8-3.1 2 2.7 2 2.6-1.9 2.2zm3.3-4.1l-2.4-1.8-2.6-1.9 3.7-3 1.6 2.3 1.6 2.2-1.9 2.2zm1.2-5.5l-2.2-1.6 3.7-3 1.2 1.8 1.2 1.8-1.9 2.3-2-1.3z"/><path fill="#E25E46" d="M74.3 56.8c-.8.8-.8 2 0 2.7.8.8 2 .8 2.7 0 .8-.8.8-2 0-2.7-.7-.8-2-.8-2.7 0zM80.6 66.4l-.2-1.5-.2-1.3-.2-1.8h-.3l-4-.3-.7-.1-3-.2-.1.9-.2 1.6-.8 5.9-3.1 21.8c2.6-.1 5.3-.2 8-.2 2.8 0 5.5.1 8.1.2l-2.7-20.9-.6-4.1z"/><path fill="#F47E5B" d="M131.6 108.1c.7-1.2 1.3-2.4 1.9-3.6-2.6-1.5-5.5-2.9-8.5-4.2-11.4-4.9-25.6-8.1-41.2-8.9-2.7-.1-5.4-.2-8.1-.2-2.7 0-5.4.1-8 .2-12.8.7-24.7 3-34.9 6.5-.5.2-1 .4-1.6.5-3 1.1-5.9 2.3-8.6 3.6-2 1-4 2-5.8 3.1 10.9 21 32.9 35.5 58.2 35.5 14.5 0 27.8-4.7 38.7-12.7 7-5.3 13.1-12 17.9-19.8z"/><path fill="#E25E46" d="M75 6.5C37.2 6.5 6.4 37.2 6.4 75.1c0 37.8 30.8 68.6 68.6 68.6s68.6-30.8 68.6-68.6c0-37.9-30.8-68.6-68.6-68.6zm0 134.1c-25.3 0-47.3-14.4-58.2-35.5-4.7-9-7.4-19.3-7.4-30.1C9.5 38.9 38.9 9.5 75 9.5c36.2 0 65.6 29.4 65.6 65.6 0 10.6-2.6 20.6-7 29.5-.6 1.2-1.3 2.4-1.9 3.6-4.6 7.8-10.7 14.5-17.9 19.8-10.9 7.9-24.3 12.6-38.8 12.6z"/></svg>