<svg xmlns:xlink="http://www.w3.org/1999/xlink"  xmlns="http://www.w3.org/2000/svg" viewBox="0 0 150 150"><linearGradient id="a" gradientUnits="userSpaceOnUse" x1="75.963" y1="41.31" x2="74.875" y2="94.612"><stop offset="0" stop-color="#fff"/><stop offset="1" stop-color="#c5c6c8"/></linearGradient><path fill="url(#a)" d="M48.6 104.2V92.3l3.3-2.6 2.1 4.1v7.7h2V71l4.7-4.4 4.7 3.6V88.4h6.9V70.9l1.8-1.9 2.8 2.7v24.8h4.3V94h2.9v4.7h5.8V85.8l1.1-1.5 2.2 2.4V100h1.3v-2.3H96v3.3l5.1 2.8s-25.9-6.8-52 .6"/><linearGradient id="b" gradientUnits="userSpaceOnUse" x1="61.639" y1="41.02" x2="60.552" y2="94.313"><stop offset="0" stop-color="#fff"/><stop offset="1" stop-color="#c5c6c8"/></linearGradient><path fill="url(#b)" d="M58.1 69.1v-6.8l2.6-3.2 3.4 2.6v7.2"/><linearGradient id="c" gradientUnits="userSpaceOnUse" x1="8.901" y1="74.881" x2="142.933" y2="74.881"><stop offset="0" stop-color="#a9c0e1"/><stop offset="1" stop-color="#006db6"/></linearGradient><path fill="url(#c)" d="M80.3 103l-.9 6.8c18.4.6 39.8 3.6 63.6 11 0 0-7-4.4-18.9-8.8-2.9-4.5-5.6-8.9-4.8-11.5.9-2.9 7.1-5 12.9-7.2.3-2.4.5-4.8.5-7.3 0-2.4-.2-4.8-.5-7.2-5.8-2.2-11.9-4.3-12.8-7.1-1-3 2.8-8.4 6.1-13.6-2.3-4.2-5.2-8.1-8.4-11.6-6 1.6-12.2 3.4-14.8 1.6-2.5-1.8-2.6-8.3-2.9-14.5-4.3-2-8.8-3.5-13.6-4.4-3.9 4.8-7.9 10-11.1 10-3.2 0-7.1-5.2-11-10-4.7.9-9.3 2.4-13.5 4.4-.4 6.2-.5 12.7-3 14.5-2.5 1.8-8.8-.1-14.7-1.6-3.3 3.5-6.1 7.4-8.4 11.6 3.3 5.2 7 10.6 6.1 13.6-.9 2.9-7.1 5-12.9 7.2-.3 2.4-.5 4.8-.5 7.3 0 2.4.2 4.8.5 7.2 5.8 2.2 11.9 4.3 12.8 7.1.9 2.8-2.4 7.8-5.6 12.8-5.1 2.2-10.3 4.7-15.5 7.7 0 0 23.7-11.1 63.2-11.1l-1-6.7c-7.5.2-15.5 1.1-23.6 2.8-4.1-5.6-6.5-12.4-6.5-19.9 0-18.6 15.1-33.7 33.7-33.7s33.7 15.1 33.7 33.7c0 7.4-2.4 14.2-6.4 19.8-6.8-1.6-14-2.6-21.8-2.9z"/><linearGradient id="d" gradientUnits="userSpaceOnUse" x1="66.574" y1="1.697" x2="75.412" y2="81.725"><stop offset="0" stop-color="#c9d6ec"/><stop offset="1" stop-color="#006db6"/></linearGradient><path fill="url(#d)" d="M117 46.4c-6 1.6-12.2 3.4-14.8 1.6-2.5-1.8-2.6-8.3-2.9-14.5-4.3-2-8.8-3.5-13.6-4.4-3.9 4.8-7.9 10-11.1 10-3.2 0-7.1-5.2-11-10-4.7.9-9.3 2.4-13.5 4.4-.4 6.2-.5 12.7-3 14.5-2.5 1.8-8.8-.1-14.7-1.6-3.3 3.5-6.1 7.4-8.4 11.6 2.5 3.8 5.1 7.7 5.9 10.7 4.4.3 9.7.2 16.2-.6 6-9.5 16.5-15.7 28.5-15.7 6.5 0 12.5 1.8 17.6 5 12.7-3.4 21.5-5.6 28.4-6.3-1-1.8-2.2-3.3-3.6-4.7z"/><g fill="#616264"><path d="M71.7 115.6l-6.4-29.2 2 14.5h-3.7l-3.4-17.4s21.4-4.4 28.7-17.7l2 2.7s-3.2 12.3-10.8 15.7l-.7-2.7-3.4 31.4-1.2-.5V96l-1.1 1.1v20.5l-2-2z"/><path d="M68.4 82l-1.1-5.4 3.1-1.3 3.3 5.4M89.7 59l2.5 2 2.6-1.8-1.1 3 2.5 2L93 64l-1.1 3-.8-3.1-3.2-.1 2.7-1.7z"/></g></svg>