<svg xmlns:xlink="http://www.w3.org/1999/xlink"  xmlns="http://www.w3.org/2000/svg" viewBox="0 0 150 150"><path fill="#0083C6" d="M49.4 16.2c2-2.5 3.4-5.4 5.3-7.9h11.8c0 5.7.1 11.4-.1 17C46 29 29 46.3 25.7 66.7H8.1V54.9c2.6-1.9 5.6-3.3 8-5.4 1.1-1.8 1.9-3.9 2.5-6-.2-3.3-1.3-6.5-1.8-9.7 5.6-5.6 11.1-11.2 16.8-16.7 3.2.5 6.4 1.7 9.7 1.8 2.1-.6 4.3-1.4 6.1-2.7zM125.8 83.8h17.6v11.8c-2.5 1.8-5.3 3.2-7.7 5.1-1.5 1.8-2.2 4.1-2.8 6.3.1 3.3 1.2 6.4 1.8 9.7-5.6 5.6-11.2 11.3-16.9 16.8-3.1-.6-6.1-1.6-9.3-1.8-2.2.5-4.2 1.4-6.1 2.5-2.2 2.4-3.6 5.3-5.4 8-4 .2-8 .1-12 .1v-17c11.4-2.2 22-8.3 29.5-17.2 5.8-6.9 9.7-15.4 11.3-24.3z"/><path fill="#263575" d="M83.6 25.1V8.3h11.8c1.8 2.6 3.4 5.5 5.3 8 1.9 1.1 4.1 1.7 6.1 2.7 3.2-.6 6.4-1.3 9.6-2l16.8 16.8c-.7 3.2-1.4 6.4-2 9.6 1 2.1 1.6 4.2 2.8 6.2 2.5 2 5.4 3.5 8 5.3 0 3.9 0 7.9.1 11.8-5.4.1-10.8 0-16.2 0-2-11.4-7.9-22-16.6-29.6-7.3-6.3-16.3-10.4-25.7-12zM8.1 83.8h17.6c2 11.5 8 22.2 16.8 29.8 6.8 5.9 15.1 9.9 23.9 11.5v17H54.6c-1.8-2.6-3.3-5.4-5.3-7.9-1.9-1.3-4.2-1.8-6.2-2.8-3.2.6-6.4 1.3-9.6 2l-16.8-16.8c.7-3.2 1.4-6.4 2-9.6-.9-2-1.8-4.1-2.6-6.1-2.7-1.7-5.4-3.5-8.2-5.3.2-3.9.2-7.8.2-11.8z"/><g><path fill="#0083C6" d="M88.6 43.4c1.7-.2 3.4-.7 5.1-1l4.5 4.5c-2.2 2.2-4.3 4.4-6.6 6.5-9.2-6.5-22.3-6.3-31.5.2-2.2-2.3-4.5-4.5-6.7-6.8l4.5-4.5c1.7.3 3.4.9 5.1 1 1.1-.3 2.2-.7 3.3-1.3 1.2-1.3 2-3 3-4.4h12.8c1 1.5 1.8 3.1 3 4.4 1.1.6 2.3 1.1 3.5 1.4zM91.9 98.6l6.8 6.8-4.5 4.5c-1.6-.3-3.3-.8-4.9-1-1.2.1-2.4.7-3.5 1.3-1.2 1.3-2 3-3 4.4H69.9c-1-1.4-1.7-3-2.8-4.3-1-.6-2.1-1.1-3.3-1.4-1.7.1-3.4.7-5.1 1-1.6-1.5-3.1-3-4.6-4.6l6.5-6.5c5.2 3.5 11.6 5.3 17.9 4.7 4.7-.3 9.4-2.1 13.4-4.9z"/><path fill="#263575" d="M98.3 59.9c2.1-2.2 4.3-4.3 6.4-6.4l4.5 4.5c-.3 1.7-.8 3.4-1 5.1.3 1.1.9 2.2 1.3 3.4 1.5 1 3 1.9 4.5 2.9v12.9c-1.5 1-3 1.9-4.5 2.9-.4 1.2-1 2.2-1.3 3.4.2 1.7.7 3.4 1 5.1-1.5 1.5-3 3-4.5 4.6-2.1-2-4.1-4.1-6.2-6.2 3.6-5.1 5.4-11.5 5-17.7-.4-5.2-2.2-10.3-5.2-14.5zM46.8 53.5c2.3 2.2 4.5 4.5 6.7 6.7-3.6 5.2-5.4 11.6-5 17.9.3 4.9 2 9.6 4.8 13.6-2.2 2.2-4.4 4.3-6.5 6.5l-4.5-4.5c.3-1.7.8-3.3 1-5-.2-1.2-.9-2.3-1.3-3.5-1.5-1-3-1.9-4.5-2.9V69.4c1.5-.9 3-1.9 4.5-2.9.4-1.1.9-2.2 1.4-3.3-.4-1.7-.7-3.5-1.1-5.2 1.4-1.5 3-3 4.5-4.5z"/></g></svg>