<svg xmlns:xlink="http://www.w3.org/1999/xlink"  xmlns="http://www.w3.org/2000/svg" viewBox="0 0 150 150"><path fill="#3EB44A" d="M68.4 146.9c34.9 2.2 68.6-25.1 74-59.7 4.1-22.2-3.6-45.9-19.5-61.9 0 0-4.7-4.2-5.7-5-1 1.7-3.2 5.8-3.8 7-14.2 26.2-33.5 49.2-53 71.6-3.9 4.2-15.4 14.2-15.4 14.9 27.2-17.9 50.1-41.7 71-66.5 1.2 2.2 2.4 4.5 3.5 6.7-18 24.5-42.5 43-67.6 59.6C78.7 103.5 103 87 123.4 66.9c.2 3.4 1.6 7.1-.2 10.3-18.6 18.4-42.4 30.4-67 38.7 23.1.3 44.9-9.9 64-22-7.3 21.9-31.7 36-54.4 32.7-15.1-1.9-28.7-11.6-36.4-24.6-9.5-16.5-9.4-37.9-.2-54.4 5.6-11.1 15.2-19.1 25.6-25.5C25.8 29.7 3.7 58.9 6.1 89c2.2 31.4 31.5 56.5 62.3 57.9z"/><path fill="#929497" d="M104.4 8.4c4.3-2.3 8.9-4.1 13.4-6-.1 5-.3 10-.6 15-1.4-.7-2.8-1.5-4.2-2.2-4.9 6-8.7 12.8-13.2 19.1C91 47.4 82.4 60.6 73.5 73.6c10.7-20.4 22.8-40 33.9-60.2 1.5-2.2-2.7-2.9-3-5z"/><path fill="#3EB44A" d="M40.8 91.6c13.1-20.2 24.3-42 37.4-62.3-2-1.8-4.1-3.6-6.1-5.4 6.7-2.7 13.4-5.3 20.1-7.9-.6 7.2-1.1 14.4-1.7 21.5-2.1-1.4-4.2-2.7-6.4-4C72 52.8 40.8 91.6 40.8 91.6z"/><path fill="#929497" d="M44.7 45.9c4.5-2.2 9.1-4.3 13.7-6.3.1 5-.2 10-.2 15-1.6-.7-3.1-1.4-4.7-2-4.4 5.4-8 11.6-12 17.3-3.6 5.2-7 10.4-10.7 15.5 2.5-6 5.7-11.8 8.7-17.6 2.9-6.2 6.6-12 9.2-18.2-1.2-1.3-2.6-2.4-4-3.7z"/></svg>