<svg xmlns:xlink="http://www.w3.org/1999/xlink"  xmlns="http://www.w3.org/2000/svg" viewBox="0 0 150 150"><path fill="none" d="M75.2 17c-32 0-57.8 25.9-57.8 57.9 0 16.3 6.6 31 17.6 41.5V99h1.1c.6-15 1.2-31 1.7-46h9.4c.6 15 1.1 30 1.7 46h5c.6-15 1.1-31 1.7-46H65c.6 15 1.3 30.4 1.8 45.6L89 73.4V99h6l24.4-25.4.4 25.4h.3v12.8c8-10 13.2-22.9 13.2-37-.1-31.9-26.1-57.8-58.1-57.8zM53.3 44.9c-1.7.2-3.4.4-5 .7-2.6.5-4.9 1.7-5.9 4.5-1-5.1 3.8-9.8 8-9.8H53c4.7 0 6-.9 7.5-5.6 1.2 6.2-1.4 9.6-7.2 10.2zm25.3-6.6c-.3 3.4-2.1 5.6-5.5 6.2-2.3.4-4.7.6-7.1 1.1-2.5.5-4.6 1.6-6.1 4.1.2-1.2.3-2.4.7-3.6 1.3-3.6 4.6-5.8 8.4-5.8h2.8c3.8-.1 5.1-1.2 6.8-5.4 0 1.2.1 2.3 0 3.4z"/><path fill="#42B4D8" d="M60.6 34.8c-1.6 4.7-2.9 5.6-7.5 5.6h-2.6c-4.2 0-9 4.7-8 9.8 1-2.8 3.3-4 5.9-4.5 1.7-.3 3.3-.6 5-.7 5.7-.7 8.3-4.1 7.2-10.2zM71.9 40.4h-2.8c-3.8 0-7.1 2.2-8.4 5.8-.4 1.1-.5 2.4-.7 3.6 1.5-2.4 3.6-3.6 6.1-4.1 2.3-.4 4.7-.6 7.1-1.1 3.4-.6 5.2-2.8 5.5-6.2.1-1.1 0-2.3 0-3.4-1.7 4.2-3 5.3-6.8 5.4z"/><path fill="#424153" d="M120 102.5V99h-.3l-.4-25.4L95 99h-6V73.4L66.9 98.6C66.3 83.4 65.7 68 65.1 53h-9.4c-.6 15-1.1 31-1.7 46h-5c-.6-16-1.1-31-1.7-46h-9.4c-.6 15-1.2 31-1.7 46H35v17.4c10 10.1 24.7 16.4 40.4 16.4 17.9 0 33.6-8.1 44.6-20.9v-9.4z"/><path fill="#42B4D8" d="M137.4 75h6.3c0-4-.4-8.1-1-12l-6.2 1c-.6-3.6-1.6-7.1-2.8-10.5l5.9-2.2c-1.4-3.8-3.1-7.4-5.1-10.8l-5.4 3.1c-1.8-3.1-3.9-6.1-6.2-8.9l4.8-4c-2.6-3.1-5.4-5.9-8.4-8.4l-4 4.8c-2.8-2.3-5.7-4.4-8.9-6.2l3.1-5.4c-3.4-2-7-3.7-10.8-5l-2.1 5.9c-3.4-1.2-6.9-2.2-10.5-2.8l1-6.2c-3.9-.7-8-1-12-1v6.3c-3 0-7.2.3-10.7.9l-1-6.2c-4 .7-7.8 1.7-11.5 3.1l2.2 5.9c-3.4 1.2-6.7 2.8-9.8 4.6L41 15.6c-3.5 2-6.7 4.3-9.8 6.9l4 4.8c-2.8 2.3-5.3 4.9-7.7 7.7l-4.8-4c-2.6 3-4.9 6.3-6.9 9.8l5.4 3.1c-1.8 3.1-3.3 6.4-4.6 9.8l-5.9-2.1C9.5 55.1 8.5 59 7.8 63l6.2 1.2c-.7 3.4-1 6.8-1 10.8H6.8c0 4 .4 7.9 1 11.8l6.2-1.1c.6 3.6 1.6 7.1 2.8 10.5l-5.9 2.1c1.4 3.8 3.1 7.4 5.1 10.8l5.4-3.1c1.8 3.1 3.9 6.1 6.2 8.9l-4.8 4c2.6 3.1 5.4 5.9 8.4 8.4l4-4.8c2.8 2.3 5.7 4.4 8.9 6.2l-3.1 5.4c3.4 2 7 3.7 10.8 5l2.1-5.9c3.4 1.2 6.9 2.2 10.5 2.8l-1.2 6.2c3.9.7 7.8 1 11.8 1V137c4 0 7.4-.3 10.9-.9l1.1 6.2c4-.7 7.9-1.7 11.6-3.1l-2.1-5.9c3.4-1.2 6.7-2.8 9.8-4.6l3.1 5.4c3.5-2 6.7-4.3 9.8-6.9l-4-4.8c2.8-2.3 5.3-4.9 7.7-7.7l4.8 4c2.6-3 4.9-6.3 6.9-9.8l-5.4-3.1c1.8-3.1 3.3-6.4 4.6-9.8l5.9 2.1c1.3-3.7 2.4-7.6 3.1-11.5l-6.2-1c.5-3.4.8-6.6.8-10.6zm-17.7 36.8c-10.6 12.8-26.6 20.9-44.5 20.9-15.7 0-29.9-6.2-40.3-16.4-10.8-10.5-17.6-25.2-17.6-41.5 0-32 25.9-57.9 57.9-57.9s57.9 25.9 57.9 57.9c0 14.1-5 27-13.4 37z"/></svg>