<svg xmlns:xlink="http://www.w3.org/1999/xlink"  xmlns="http://www.w3.org/2000/svg" viewBox="0 0 150 150"><path fill="none" d="M105 42.5c-6.3-16.8-17.1-28-29.5-28S52.3 25.6 46 42.5c8.9-2.5 18.9-4 29.5-4s20.7 1.4 29.5 4zM46.1 109.9c6.3 16.8 17.1 28 29.5 28s23.2-11.1 29.5-28c-8.9 2.5-18.9 4-29.5 4s-20.6-1.4-29.5-4zM137.3 76.2c0-12.3-11.1-23.2-28-29.5 2.5 8.9 4 18.9 4 29.5 0 10.6-1.4 20.6-4 29.5 16.8-6.3 28-17.2 28-29.5z"/><path fill="none" d="M106.1 45.6c-9-2.9-19.4-4.6-30.6-4.6S54 42.7 45 45.6c-2.9 9-4.6 19.4-4.6 30.6 0 11.1 1.7 21.6 4.6 30.6 9 2.9 19.4 4.6 30.6 4.6s21.6-1.7 30.6-4.6c2.9-9 4.6-19.4 4.6-30.6 0-11.1-1.7-21.6-4.7-30.6zM97 104h-5l.8 2.6c-.4-.6-.8-.7-1.2-1.4v.8h-4s-.2-2-.5-2H54V69.7l21.7-15.9L97 69.7V104zm5.9-33L75.6 49.7 48.3 71c-1.3 1-3.1.7-4-.5-1-1.3-.8-3.1.5-4l28.7-22.4c.6-.5 1.4-.7 2.1-.6.7-.1 1.5.1 2.1.6l28.7 22.4c1.3 1 1.5 2.8.5 4-1 1.2-2.8 1.5-4 .5z"/><path fill="none" d="M41.8 46.7c-16.8 6.3-28 17.1-28 29.5 0 12.3 11.1 23.2 28 29.5-2.5-8.9-4-18.9-4-29.5.1-10.6 1.5-20.6 4-29.5zM108.3 43.5c11.6 3.8 20.9 9.5 26.8 16.3-5.8-20.9-22.2-37.3-43.1-43.1 6.9 5.8 12.5 15.2 16.3 26.8zM108.3 108.9c-3.8 11.6-9.5 20.9-16.3 26.8 20.9-5.8 37.3-22.2 43.1-43.1-5.9 6.9-15.2 12.6-26.8 16.3zM42.8 108.9c-11.6-3.8-20.9-9.5-26.8-16.3 5.8 20.9 22.2 37.3 43.1 43.1-6.8-5.8-12.5-15.2-16.3-26.8zM42.8 43.5c3.8-11.6 9.5-20.9 16.3-26.8C38.2 22.5 21.8 38.9 16 59.8c5.9-6.9 15.3-12.6 26.8-16.3z"/><path fill="#45505F" d="M75.6 10.1c-36.5 0-66.1 29.6-66.1 66.1s29.6 66.1 66.1 66.1 66.1-29.6 66.1-66.1-29.6-66.1-66.1-66.1zm0 101.3c-11.1 0-21.6-1.7-30.6-4.6-2.9-9-4.6-19.4-4.6-30.6 0-11.1 1.7-21.6 4.6-30.6 9-2.9 19.4-4.6 30.6-4.6s21.6 1.7 30.6 4.6c2.9 9 4.6 19.4 4.6 30.6 0 11.1-1.7 21.6-4.6 30.6-9.1 2.9-19.5 4.6-30.6 4.6zm29.4-1.5c-6.3 16.8-17.1 28-29.5 28s-23.2-11.1-29.5-28c8.9 2.5 18.9 4 29.5 4s20.7-1.4 29.5-4zm-63.2-4.2c-16.8-6.3-28-17.1-28-29.5 0-12.3 11.1-23.2 28-29.5-2.5 8.9-4 18.9-4 29.5.1 10.6 1.5 20.6 4 29.5zm4.3-63.2c6.3-16.8 17.1-28 29.5-28s23.2 11.1 29.5 28c-8.9-2.5-18.9-4-29.5-4s-20.6 1.4-29.5 4zm67.2 33.7c0-10.6-1.4-20.6-4-29.5 16.8 6.3 28 17.1 28 29.5 0 12.3-11.1 23.2-28 29.5 2.5-8.9 4-18.9 4-29.5zm21.8-16.4c-5.8-6.9-15.2-12.5-26.8-16.3-3.8-11.6-9.5-20.9-16.3-26.8 20.9 5.8 37.3 22.2 43.1 43.1zm-76-43.1c-6.9 5.8-12.5 15.2-16.3 26.8C31.2 47.3 21.9 53 16 59.8c5.8-20.9 22.3-37.3 43.1-43.1zm-43 75.9c5.8 6.9 15.2 12.5 26.8 16.3 3.8 11.6 9.5 20.9 16.3 26.8-20.9-5.8-37.4-22.2-43.1-43.1zM92 135.7c6.9-5.8 12.5-15.2 16.3-26.8 11.6-3.8 20.9-9.5 26.8-16.3-5.8 20.9-22.2 37.3-43.1 43.1z"/><path fill="#45505F" d="M106.4 66.4L77.7 44.1c-.6-.5-1.4-.7-2.1-.6-.7-.1-1.5.1-2.1.6L44.7 66.4c-1.3 1-1.5 2.8-.5 4 1 1.3 2.8 1.5 4 .5l27.3-21.3L102.9 71c1.3 1 3.1.7 4-.5 1-1.3.7-3.1-.5-4.1z"/><path fill="#00A251" d="M54 69.7V104h33.1c-.9-1-3.1-3.8-5.1-5.7 0 0-18.1 1.6-16.1-25 0 0 22.6 1.9 22.7 21.2-2.2-4.4-7.1-10.7-17.7-14.1 0 0 12.5 12 20.6 24.5.4.6.8 1.1 1.2 1.7L92 104h5V69.7L75.7 53.8 54 69.7z"/></svg>