<svg xmlns:xlink="http://www.w3.org/1999/xlink"  xmlns="http://www.w3.org/2000/svg" viewBox="0 0 150 150"><g fill="#67CFE3"><path d="M12.9 26.5v57.1c.6-.6 1.2-1.2 1.9-1.7 3.8-3.1 8.5-5.4 14-6.5-.6-3.2-.8-6.5-.4-9.8 1.9-19 19-33.4 39.8-33.4 1.5 0 3 .1 4.5.2 1.6.2 3.2.4 4.8.8l8.8-13 1.3-1.9H21c-4.5 0-8.1 3.7-8.1 8.2zM127.5 18.3h-27.3l-.7 1.9-7.2 19.3c3.2 2.1 6.1 4.7 8.5 7.7 3.7-1.8 7.9-2.6 12.1-2.2 12.4 1.2 21.4 12.3 20.2 24.7-.2 1.6-.5 3.2-1 4.7.6.4 1.1.7 1.6 1.1.6.5 1.3.9 1.9 1.4V26.5c.1-4.5-3.5-8.2-8.1-8.2z"/></g><g fill="#1E76BA"><path d="M137.6 78.4c-.6-.6-1.2-1.1-1.9-1.6-.6-.5-1.2-1-1.9-1.4-.5-.4-1.1-.7-1.6-1.1.5-1.5.8-3.1 1-4.7 1.2-12.4-7.8-23.4-20.2-24.7-4.2-.4-8.4.3-12.1 2.2-2.5-2.9-5.3-5.5-8.5-7.7L91 43.1l-1.3 3.6c2.8 2.1 5.2 4.6 7.2 7.4l2.1 3.1 3-2.1c3-2.1 6.6-3.1 10.2-2.7 3 .3 5.8 1.5 8 3.3l4.6-.7 4-.6-2.3 3-2.4 3.2c1.3 2.5 1.9 5.4 1.6 8.5-.2 1.9-.7 3.7-1.6 5.3l-1.7 3.3 3.2 1.7c3.4 1.8 6.1 3.8 8 6 .7.8 1.4 1.7 1.9 2.6 1.1 1.9 1.6 3.9 1.4 5.8-.1 1.3-.6 2.6-1.4 3.8-.5.8-1.1 1.6-1.9 2.3-1.6 1.6-3.6 2.9-6.1 4.1-3.4 1.6-7.6 2.7-12.2 3.1-1.2-.1-2.2 0-3.3.2-2.4.1-4.8 0-7.3-.2-2-.2-4-.5-5.9-.9l-5.4-1.2 1 5.4c.1.7.2 1.3.1 1.9-.6 5.5-8.3 9.9-17.6 10l-2.8 3.6-2.6 3.5c.3 0 .7.1 1 .1 1.3.1 2.7.2 4 .2 13.2 0 23.6-6.5 25.2-15.6.7.1 1.5.2 2.2.3 2.9.3 5.9.4 8.7.3h.3l.3-.1c.5-.1 1.1-.2 1.7-.1h.6c7-.7 13.1-2.6 17.9-5.4.6-.4 1.3-.8 1.9-1.2.6-.4 1.3-.9 1.9-1.4 4-3.3 6.4-7.4 6.9-12 .9-5.8-1.6-11.4-6.5-16.1zM68 39.6c1.2 0 2.5.1 3.7.2.3 0 .6.1.9.1l2.3-3.4 2.3-3.3c-1.6-.3-3.2-.6-4.8-.8-1.5-.1-3-.2-4.5-.2-20.8 0-37.9 14.4-39.8 33.4-.3 3.3-.2 6.6.4 9.8-5.4 1.1-10.2 3.4-14 6.5-.7.5-1.3 1.1-1.9 1.7-.7.7-1.3 1.4-1.9 2.1-2.4 3.4-4.1 7.3-4.6 11.7-.6 5.8 1.3 11.4 4.9 16.2.6.8 1.2 1.5 1.9 2.2.6.6 1.2 1.2 1.9 1.8 5.2 4.6 12.2 7.8 20.3 8.6 4 .4 8 .2 11.9-.7l.5-.1c.3-.1.6-.2.9-.2l.5-.1c2.2-.6 4.3-1.4 6.2-2.4 1 .8 2.1 1.5 3.2 2.1l1.4-3.5 1.4-3.4c-1.1-.7-2.1-1.5-3-2.4l-2.1-2-2.5 1.5c-1.9 1.2-4.1 2.1-6.5 2.8-.7.1-1.3.3-1.9.5-3 .6-6.2.8-9.3.5-9.9-1-18-6.4-21-13.4-1-2.3-1.5-4.8-1.2-7.4.2-1.6.6-3.1 1.2-4.5.5-1.1 1.1-2.1 1.9-3.1 3.5-4.5 9.6-7.7 17-8.3l4.6-.4-1.4-4.4c-1.2-3.6-1.5-7.3-1.2-11.1C37.1 51.1 51.1 39.6 68 39.6z"/></g><g fill="#F16A22"><path d="M54.9 122.7c-1.9 1-4 1.8-6.2 2.4l-.5.1c-.3 0-.6.1-.9.2l-.5.1c-3.8.8-7.9 1.1-11.9.7-8-.8-15.1-4-20.3-8.6V133c0 3.5 2.8 6.3 6.3 6.3h31.2l5.9-14.6c-1-.6-2.1-1.3-3.1-2zM116 114.2h-.6c-.6-.1-1.2 0-1.7.1l-.3.1h-.3c-2.8.1-5.7 0-8.7-.3-.7-.1-1.5-.2-2.2-.3-1.6 9.1-12 15.6-25.2 15.6-1.3 0-2.7-.1-4-.2-.3 0-.7-.1-1-.1l-8 10.2h63.5c3.5 0 6.3-2.8 6.3-6.3v-24.2c-4.7 2.8-10.8 4.8-17.8 5.4z"/><path d="M70.1 125.2l2.6-3.4 17.5-22.9 30.1-39.5-41.8 6.7 8-21.5 1.3-3.5 1.3-3.5 6.5-17.4.7-1.9.7-1.9 4.8-12.8-8.7 12.8-1.3 1.9-1.3 1.9-9.5 14-2.2 3.2-2.2 3.3-35 51.6 35.6-4.7-3.7 9.2-9.2 22.8-1.4 3.4-1.4 3.4-5.2 12.9-.8 1.9-.8 1.9-2 5 3.8-5 1.4-1.9 1.4-1.9 8.3-10.9 2.5-3.2zm6.2-74.9l-4.2 6.6-4.2 6.6-4.2 6.6-4.2 6.6-2.2 3.3c-.7 1.1-1.4 2.2-2.2 3.3-.7 1.1-1.5 2.2-2.2 3.2l-1.5 2.1c1-.1 2.1-.2 3.1-.3 1.5-.1 3-.3 4.4-.4 1.5-.1 3-.2 4.4-.4l2.2-.2 2.2-.2v.2l-2.2.4-2.2.3c-1.5.2-2.9.4-4.4.6-1.5.2-2.9.4-4.4.6-1.5.2-2.9.4-4.4.6l-1.1.3.7-1.1 2.1-3.3 2.1-3.3 2.1-3.3 2.2-3.2 4.4-6.5 4.4-6.5 4.4-6.5 4.4-6.5 5.5-8 2.1-3.1 1.2-1.8.1.1-1.2 1.9-2 3.2-5.2 8.1zm5 54.6l4.6-6.5 4.4-6.2 9-12.8 2.3-3.2 2.3-3.2c.8-1.1 1.5-2.1 2.3-3.1l1.8-2.4-3.5.3-4.4.4c-1.5.1-3 .3-4.4.4l-2.2.2-2.5.3V69l2.2-.3 2.2-.3c1.5-.2 2.9-.4 4.4-.6l4.4-.6 4.4-.6.9-.1-.5.8-2.2 3.2c-.7 1.1-1.5 2.1-2.2 3.2l-2.3 3.2-2.3 3.2-9.2 12.6-4.3 5.9-4.9 6.7-9.2 12.6-.1-.1 9-12.9z"/></g><path fill="#F28021" d="M71.3 56.4L67 62.9l-4.4 6.5-4.4 6.5-2.2 3.2-2.1 3.3-2.1 3.3-2.1 3.3-.7 1.1 1.3-.2c1.5-.2 2.9-.4 4.4-.6 1.5-.2 2.9-.4 4.4-.6 1.5-.2 2.9-.4 4.4-.6l2.2-.3 2.2-.4v-.2l-2.2.2-2.2.2c-1.5.1-3 .2-4.4.4-1.5.1-3 .3-4.4.4-1 .1-2.1.2-3.1.3l1.5-2.1c.7-1.1 1.5-2.1 2.2-3.2.7-1.1 1.5-2.2 2.2-3.3l2.1-3.3 4.2-6.6 4.2-6.6 4.2-6.6 4.2-6.6 5.2-8.2c-.1 0-.2-.1-.3-.1l-5.5 8-4.5 6.3zM84.7 37.1l-.2-.1-1.2 1.8c.1 0 .1.1.2.1l1.2-1.8z"/><path fill="#F28021" d="M81.5 42.1l2-3.2c-.1 0-.1-.1-.2-.1L81.2 42c.1 0 .2.1.3.1zM72.3 117.7l9.3-12.5 4.9-6.7c-.2 0-.5-.1-.7-.1l-4.6 6.5-8.9 12.8z"/><path fill="#F28021" d="M90.9 92.6l9.2-12.6 2.3-3.2 2.3-3.2c.8-1.1 1.5-2.1 2.2-3.2l2.2-3.2.5-.8-.9.1-4.4.6-4.4.6c-1.5.2-2.9.4-4.4.6l-2.2.3-2.3.4v.1l2.2-.2 2.2-.2c1.5-.1 3-.3 4.4-.4l4.4-.4 3.5-.3-1.8 2.4c-.8 1-1.5 2.1-2.3 3.1l-2.3 3.2-2.3 3.2-9 12.8-4.4 6.2c.2 0 .5.1.7.1l4.6-6z"/></svg>