<svg xmlns:xlink="http://www.w3.org/1999/xlink"  data-v-016d51b2="" xmlns="http://www.w3.org/2000/svg" viewBox="0 0 199.63 199.26"><path data-v-016d51b2="" fill="#46bb36" d="M100,.37C44.81.37,0,44.81,0,100s44.81,99.63,100,99.63A99.63,99.63,0,1,0,100,.37Zm-17.78,123c-5.19,0-9.63-1.11-14.81-2.22l-14.81,7.41,4.44-13c-10.74-7.41-17-17-17-28.89,0-20.37,19.26-36.3,42.59-36.3,21.11,0,39.26,12.59,43,30-1.48,0-2.59-.37-4.07-.37-20.37,0-36.3,15.19-36.3,33.7a24.9,24.9,0,0,0,1.48,8.89,9.39,9.39,0,0,1-4.44.74Zm63,15.19,3.33,10.74L137,142.59c-4.44,1.11-8.52,2.22-13,2.22-20.37,0-36.3-13.7-36.3-30.74S103.7,83,124.07,83c19.26,0,36.3,13.7,36.3,31.11,0,9.26-6.3,17.78-15.19,24.44Z" transform="translate(0 -0.37)"></path><path data-v-016d51b2="" fill="#46bb36" d="M62.22,74.07a5.93,5.93,0,1,0,5.93-5.93,5.85,5.85,0,0,0-5.93,5.93Zm45.93,31.11a4.81,4.81,0,1,0,4.81-4.81c-2.59-.37-4.81,1.85-4.81,4.81ZM92.22,74.07a5.93,5.93,0,1,0,5.93-5.93A5.85,5.85,0,0,0,92.22,74.07Zm39.63,31.11a4.81,4.81,0,1,0,4.81-4.82c-2.59-.37-4.81,1.85-4.81,4.81Z" transform="translate(0 -0.37)"></path></svg>