<svg xmlns:xlink="http://www.w3.org/1999/xlink"  xmlns="http://www.w3.org/2000/svg" viewBox="0 0 100 100"><path fill="#091117" d="M7 51.3h-.6c-.2 0-.3-.1-.3-.3s.1-.3.3-.3H7c.2 0 .3.1.3.3s-.1.3-.3.3zM92.9 51.3h-1.2c-.2 0-.3-.1-.3-.3s.1-.3.3-.3h1.2c.2 0 .3.1.3.3s-.2.3-.3.3zm-2.4 0h-1.2c-.2 0-.3-.1-.3-.3s.1-.3.3-.3h1.2c.2 0 .3.1.3.3s-.1.3-.3.3zm-2.4 0h-1.2c-.2 0-.3-.1-.3-.3s.1-.3.3-.3h1.2c.2 0 .3.1.3.3s-.1.3-.3.3zm-2.4 0h-1.2c-.2 0-.3-.1-.3-.3s.1-.3.3-.3h1.2c.2 0 .3.1.3.3s-.1.3-.3.3zm-2.4 0h-1.2c-.2 0-.3-.1-.3-.3s.1-.3.3-.3h1.2c.2 0 .3.1.3.3s-.1.3-.3.3zm-2.4 0h-1.2c-.2 0-.3-.1-.3-.3s.1-.3.3-.3h1.2c.2 0 .3.1.3.3s-.1.3-.3.3zm-2.3 0h-1.2c-.2 0-.3-.1-.3-.3s.1-.3.3-.3h1.2c.2 0 .3.1.3.3s-.2.3-.3.3zm-2.4 0H75c-.2 0-.3-.1-.3-.3s.1-.3.3-.3h1.2c.2 0 .3.1.3.3s-.2.3-.3.3zm-2.4 0h-1.2c-.2 0-.3-.1-.3-.3s.1-.3.3-.3h1.2c.2 0 .3.1.3.3s-.1.3-.3.3zm-2.4 0h-1.2c-.2 0-.3-.1-.3-.3s.1-.3.3-.3h1.2c.2 0 .3.1.3.3s-.1.3-.3.3zm-2.4 0h-1.2c-.2 0-.3-.1-.3-.3s.1-.3.3-.3H69c.2 0 .3.1.3.3s-.1.3-.3.3zm-2.4 0h-1.2c-.2 0-.3-.1-.3-.3s.1-.3.3-.3h1.2c.2 0 .3.1.3.3s-.1.3-.3.3zm-2.3 0h-1.2c-.2 0-.3-.1-.3-.3s.1-.3.3-.3h1.2c.2 0 .3.1.3.3s-.2.3-.3.3zm-2.4 0h-1.2c-.2 0-.3-.1-.3-.3s.1-.3.3-.3h1.2c.2 0 .3.1.3.3s-.2.3-.3.3zm-2.4 0h-1.2c-.2 0-.3-.1-.3-.3s.1-.3.3-.3h1.2c.2 0 .3.1.3.3s-.2.3-.3.3zm-2.4 0h-1.2c-.2 0-.3-.1-.3-.3s.1-.3.3-.3h1.2c.2 0 .3.1.3.3s-.1.3-.3.3zm-2.4 0h-1.2c-.2 0-.3-.1-.3-.3s.1-.3.3-.3h1.2c.2 0 .3.1.3.3s-.1.3-.3.3zm-2.4 0h-1.2c-.2 0-.3-.1-.3-.3s.1-.3.3-.3h1.2c.2 0 .3.1.3.3s-.1.3-.3.3zm-2.4 0h-1.2c-.2 0-.3-.1-.3-.3s.1-.3.3-.3h1.2c.2 0 .3.1.3.3s-.1.3-.3.3zm-2.3 0h-1.2c-.2 0-.3-.1-.3-.3s.1-.3.3-.3h1.2c.2 0 .3.1.3.3s-.2.3-.3.3zm-2.4 0H44c-.2 0-.3-.1-.3-.3s.1-.3.3-.3h1.2c.2 0 .3.1.3.3s-.2.3-.3.3zm-2.4 0h-1.2c-.2 0-.3-.1-.3-.3s.1-.3.3-.3h1.2c.2 0 .3.1.3.3s-.1.3-.3.3zm-2.4 0h-1.2c-.2 0-.3-.1-.3-.3s.1-.3.3-.3h1.2c.2 0 .3.1.3.3s-.1.3-.3.3zm-2.4 0h-1.2c-.2 0-.3-.1-.3-.3s.1-.3.3-.3H38c.2 0 .3.1.3.3s-.1.3-.3.3zm-2.4 0h-1.2c-.2 0-.3-.1-.3-.3s.1-.3.3-.3h1.2c.2 0 .3.1.3.3s-.1.3-.3.3zm-2.4 0H32c-.2 0-.3-.1-.3-.3s.1-.3.3-.3h1.2c.2 0 .3.1.3.3s-.1.3-.3.3zm-2.3 0h-1.2c-.2 0-.3-.1-.3-.3s.1-.3.3-.3h1.2c.2 0 .3.1.3.3s-.2.3-.3.3zm-2.4 0h-1.2c-.2 0-.3-.1-.3-.3s.1-.3.3-.3h1.2c.2 0 .3.1.3.3s-.2.3-.3.3zm-2.4 0h-1.2c-.2 0-.3-.1-.3-.3s.1-.3.3-.3h1.2c.2 0 .3.1.3.3s-.1.3-.3.3zm-2.4 0h-1.2c-.2 0-.3-.1-.3-.3s.1-.3.3-.3h1.2c.2 0 .3.1.3.3s-.1.3-.3.3zm-2.4 0h-1.2c-.2 0-.3-.1-.3-.3s.1-.3.3-.3h1.2c.2 0 .3.1.3.3s-.1.3-.3.3zm-2.4 0h-1.2c-.2 0-.3-.1-.3-.3s.1-.3.3-.3h1.2c.2 0 .3.1.3.3s-.1.3-.3.3zm-2.4 0h-1.2c-.2 0-.3-.1-.3-.3s.1-.3.3-.3h1.2c.2 0 .3.1.3.3s-.1.3-.3.3zm-2.3 0H13c-.2 0-.3-.1-.3-.3s.1-.3.3-.3h1.2c.2 0 .3.1.3.3s-.2.3-.3.3zm-2.4 0h-1.2c-.2 0-.3-.1-.3-.3s.1-.3.3-.3h1.2c.2 0 .3.1.3.3s-.2.3-.3.3zm-2.4 0H8.2c-.2 0-.3-.1-.3-.3s.1-.3.3-.3h1.2c.2 0 .3.1.3.3s-.1.3-.3.3zM94.7 51.3h-.6c-.2 0-.3-.1-.3-.3s.1-.3.3-.3h.6c.2 0 .3.1.3.3s-.2.3-.3.3z"/></svg>