<svg xmlns:xlink="http://www.w3.org/1999/xlink"  xmlns="http://www.w3.org/2000/svg" viewBox="0 0 100 100"><g fill="#091117"><path d="M8.7 46.3l.9 2.7h2.9l-2.4 1.5.9 2.6-2.3-1.8L6.4 53l.9-2.5L5 49h2.8zM18.7 46.3l.9 2.7h2.9l-2.4 1.5.9 2.6-2.3-1.8-2.3 1.7.9-2.5L15 49h2.8zM28.7 46.3l.9 2.7h2.9l-2.4 1.5.9 2.6-2.3-1.8-2.3 1.7.9-2.5L25 49h2.8zM39.2 46.3l.9 2.7h2.8l-2.3 1.5.9 2.6-2.3-1.8-2.3 1.7.9-2.5-2.3-1.5h2.8zM49.4 46.3l.8 2.7h2.9l-2.3 1.5.9 2.6-2.3-1.8L47 53l.9-2.5-2.3-1.5h2.9zM59.5 46.3l.9 2.7h2.9l-2.4 1.5.9 2.6-2.3-1.8-2.3 1.7.9-2.5-2.3-1.5h2.8zM70 46.3l.9 2.7h2.8l-2.3 1.5.9 2.6-2.3-1.8-2.3 1.7.9-2.5-2.3-1.5h2.8zM80 46.3l.9 2.7h2.8l-2.3 1.5.9 2.6-2.3-1.8-2.3 1.7.9-2.5-2.3-1.5h2.8zM90 46.3l.9 2.7h2.8l-2.3 1.5.9 2.6-2.3-1.8-2.3 1.7.9-2.5-2.3-1.5h2.8z"/></g></svg>