<svg xmlns:xlink="http://www.w3.org/1999/xlink"  xmlns="http://www.w3.org/2000/svg" viewBox="0 0 100 100"><g fill="#091117"><path d="M41.9 17.4c2.9-2.3 6.5 2.1 9-1-1.5-1.4-3.6-2.2-6-1.4 2.5-1.1 4.5-.5 6.2.6-.2-4.7-7.7-4.1-9.2 1.8zM81.2 31.3c-.1-1.2-1.9-1.1-1.7-2.4.7.1 1.3.4 1.6 1.1-.3-.9-.9-1.2-1.5-1.4 1.1-.9 2.6 1 1.6 2.7zM31.4 22.8c-1.5.3-2-2-3.6-1.3.3.8.9 1.5 2 1.7-1.2-.1-1.8-.7-2.2-1.4-.8 1.7 2.1 2.9 3.8 1zM79.2 41.3c.6-.9-.8-1.9 0-2.7.5.4.8 1 .6 1.7.3-.8 0-1.3-.4-1.8 1.4-.1 1.5 2.2-.2 2.8zM81.6 47.8c.5 1.5 2.8.8 3 2.5-.9.1-1.8-.1-2.5-.9.6 1 1.5 1.2 2.4 1.2-1.2 1.6-3.7-.3-2.9-2.8zM88.8 45.9c-.9 2-3.9.7-4.4 3 1.2.3 2.5.1 3.5-.9-1 1.3-2.2 1.5-3.4 1.4 1.4 2.3 5.1 0 4.3-3.5zM81.3 52.7c2.3.7 3.4-2.7 5.6-1.4-.6 1.2-1.7 2.1-3.3 2.2 1.8.1 2.8-.7 3.6-1.8.9 2.9-3.7 4.2-5.9 1zM91.1 57.3c-.5-1.7-3.1-1-3.2-2.9 1-.1 2 .2 2.7 1.1-.7-1.1-1.6-1.4-2.6-1.5 1.5-1.7 4.2.6 3.1 3.3zM89.1 48.9c1.4-1-.1-3.3 1.7-4 .4.9.5 2-.2 2.9.9-1 .9-2 .6-2.9 2.1.7.8 4.1-2.1 4z"/><path d="M87.3 54.4c-1.9 2.4-5.7-.4-7.1 2.7 1.5.8 3.4 1.1 5.1-.1-1.8 1.4-3.5 1.3-5.2.7 1.1 3.7 7.1 1.8 7.2-3.3zM14.3 46.2c-.8.9.6 2.1-.5 2.9-.4-.5-.7-1.2-.4-2-.4.8-.2 1.4.1 2-1.4-.1-1.1-2.5.8-2.9zM66.2 19.7c-.5-1.3-2.4-.6-2.6-2 .7-.1 1.5 0 2.1.7-.6-.8-1.3-1-2.1-1 1-1.4 3.3.2 2.6 2.3zM81.4 78c-.1-1.8 2.7-2 2.2-3.9-1 .2-1.9.8-2.3 2 .3-1.4 1.1-1.9 2.1-2.3-2-1.3-3.9 1.8-2 4.2zM79.2 70c-.2-1.1 1.4-1.3 1-2.4-.6.2-1.1.6-1.2 1.3.1-.8.5-1.2 1-1.5-1.1-.5-2 1.4-.8 2.6zM73.2 74.1c0-2.1 3.1-2.2 2.6-4.4-1.1.2-2.2.9-2.6 2.2.4-1.5 1.3-2.2 2.4-2.6-2.2-1.4-4.6 2.1-2.4 4.8zM78.2 80.5c1-1.5-1.3-3.1.1-4.4.7.7 1.2 1.7.9 2.8.4-1.3.1-2.2-.6-3 2.3-.1 2.4 3.6-.4 4.6z"/><path d="M71.1 76.2c.4-1.4-1.8-2.1-1-3.6.8.4 1.4 1 1.4 2 0-1.1-.5-1.8-1.2-2.3 1.9-.5 2.8 2.4.8 3.9zM66.3 80.2c.5-2.3 4.1-1.6 4.1-4.2-1.3-.1-2.7.4-3.5 1.7.8-1.6 2-2.1 3.4-2.2-2.1-2.2-5.6 1.1-4 4.7zM67.4 84.8c.7.9-.7 2.1.3 2.9.5-.5.7-1.1.5-1.9.4.8.1 1.4-.2 2 1.4-.1 1.2-2.5-.6-3zM68.7 84.8c1.3.6 2.3-1.4 3.6-.4-.5.7-1.2 1.2-2.2 1.1 1.1.2 1.8-.2 2.4-.8.3 1.8-2.7 2.2-3.8.1zM71.8 83.6c2.6-1.4.5-5.4 3.7-6.3.5 1.6.4 3.3-.9 4.8 1.6-1.5 1.8-3.1 1.5-4.7 3.3 1.7.5 7-4.3 6.2zM73.5 77.8c1.3-2.9 5.7-1 6.4-4.4-1.7-.4-3.6-.2-5 1.3 1.5-1.9 3.2-2.2 4.9-2-2.1-3.4-7.5 0-6.3 5.1z"/><path d="M72 76.5c-.8 3.4-6 2.3-5.9 6.1 2 .1 3.9-.6 5.1-2.5-1.2 2.3-2.9 3-4.9 3.2 3 3.3 8.1-1.6 5.7-6.8zM56.5 84.1c.3-1.7-2.3-2.2-1.6-4 .9.3 1.7 1 1.9 2.2-.1-1.3-.8-2-1.6-2.4 2-1 3.4 2.2 1.3 4.2zM50.9 82.3c.7-1.2 2.6-.3 3-1.7-.7-.3-1.6-.2-2.3.4.7-.8 1.5-.8 2.3-.7-.8-1.6-3.3-.3-3 2zM65.3 79.9c-.4 1.9-3.3 1.4-3.2 3.5 1.1 0 2.2-.4 2.8-1.5-.6 1.3-1.6 1.7-2.7 1.9 1.7 1.7 4.5-1 3.1-3.9z"/><path d="M58.2 79.6c.5 1.5 3 .8 3.2 2.6-.9.2-1.9 0-2.6-.9.7 1 1.6 1.3 2.5 1.2-1.2 1.7-3.9-.3-3.1-2.9zM62.4 88.6c2-.8.8-3.9 3.1-4.4.3 1.2.1 2.5-1 3.5 1.3-1 1.5-2.2 1.4-3.4 2.4 1.5 0 5.2-3.5 4.3zM55.7 8.5c1 1.1 2.7-.4 3.5 1.1-.7.4-1.6.6-2.5.1.9.6 1.7.5 2.5.2-.4 1.9-3.3 1.1-3.5-1.4zM13.9 38.9c-1.2-.2-.9-2.1-2.3-2 0 .7.3 1.4 1 1.8-.9-.4-1.1-1-1.2-1.7-1.2 1.1.7 2.8 2.5 1.9zM45.8 90.7c-1.1-1.2-2.9.5-3.8-1.1.8-.5 1.7-.7 2.6-.2-1-.7-1.9-.5-2.7-.2.4-1.9 3.6-1.1 3.9 1.5zM44 81c2.5-.4 3.1 3.4 5.7 2.4-.4-1.3-1.4-2.5-3-2.8 1.9.2 2.8 1.2 3.5 2.5 1.3-2.9-3.3-5.1-6.2-2.1zM44.7 81.8c-1.5 1.3-3.6-.9-4.8.9.9.7 2 1 3.2.5-1.3.7-2.4.4-3.4-.1.4 2.6 4.4 2 5-1.3zM44.1 79.1c-1.5.6-2.4-1.7-3.9-.7.5.8 1.2 1.4 2.3 1.3-1.2.1-1.9-.4-2.5-1.1-.5 2.1 2.7 2.8 4.1.5zM34.7 77.7c1.5.8 2.8-1.5 4.3-.3-.6.8-1.5 1.3-2.6 1.1 1.3.3 2.1-.1 2.8-.8.3 2.2-3.2 2.6-4.5 0zM27 68.5c.2 1.9 3.1 1.6 2.9 3.6-1.1-.1-2.1-.5-2.7-1.6.5 1.3 1.4 1.8 2.5 2-1.7 1.6-4.2-1.3-2.7-4zM19.9 65.3c-1.5-.7-.4-3.1-2.2-3.5-.3.9-.2 1.9.6 2.7-1-.8-1.1-1.7-1-2.7-1.9 1.1-.1 4.1 2.6 3.5zM22.4 58.6c-.9 2.5 2.9 3.9 1.3 6.4-1.3-.7-2.3-2-2.3-3.7-.2 2 .7 3.1 1.8 4.1-3.2.8-4.5-4.4-.8-6.8zM19 48.9c.9-1.6-1.5-3-.2-4.5.8.6 1.4 1.6 1.1 2.8.4-1.3-.1-2.2-.8-3 2.3-.2 2.7 3.5-.1 4.7zM21.6 41.6c-.7 1-2.2 0-2.7 1.2.6.3 1.3.3 2-.1-.7.6-1.3.6-2 .4.5 1.4 2.8.5 2.7-1.5zM23.8 34.6c1-1.1-.8-2.6.5-3.6.5.6.8 1.5.5 2.4.5-1 .3-1.8-.2-2.5 1.9.2 1.6 3.2-.8 3.7zM71.7 24.8c-.7.9.6 2-.4 2.8-.4-.5-.6-1.1-.4-1.9-.4.8-.2 1.4.1 1.9-1.4-.1-1.1-2.4.7-2.8zM72.2 26.7c.6 1.7 3.1.8 3.3 2.8-1 .2-2-.1-2.7-1 .7 1.1 1.6 1.4 2.6 1.4-1.2 1.7-4.1-.4-3.2-3.2zM70.1 25.3c-2.1-.8-.9-4-3.3-4.4-.3 1.2 0 2.5 1.1 3.5-1.4-1-1.6-2.2-1.6-3.4-2.3 1.6.2 5.3 3.8 4.3zM15.3 29.6c1.3-.6.4-2.7 2-3.1.2.8.1 1.7-.6 2.4.9-.7 1-1.5.9-2.4 1.7 1 .1 3.6-2.3 3.1zM50.2 20c-1.1-.9-2.5.8-3.5-.4.6-.5 1.4-.8 2.3-.5-1-.4-1.7-.2-2.4.3.1-1.9 3-1.7 3.6.6zM36.8 18.5c-1.2-.9-2.5.9-3.6-.3.6-.6 1.4-.9 2.3-.6-1-.4-1.8-.1-2.5.3.1-1.9 3.1-1.7 3.8.6zM78.2 38.6c.9-3.4-4.3-4.8-2.5-8.2 1.8.8 3.3 2.3 3.5 4.6 0-2.6-1.3-4-2.9-5.1 4-1.5 6.4 5.1 1.9 8.7zM50 18c1.7.8 3-1.9 4.7-.6-.6.9-1.5 1.6-2.8 1.5 1.4.2 2.3-.3 3-1.1.4 2.4-3.4 3-4.9.2zM58.3 14.7c.1 2.2-3.3 2.4-2.7 4.7 1.2-.3 2.3-1 2.8-2.4-.3 1.6-1.3 2.3-2.5 2.8 2.3 1.5 4.7-2.3 2.4-5.1zM59.9 19.6c1.7 1.2 3.6-1.5 5.1.2-.8.8-2 1.4-3.3 1 1.5.5 2.5.1 3.5-.6.1 2.7-4.2 2.7-5.3-.6zM46.1 20.1c-2-.9-3.5 2.1-5.3.6.7-1 1.8-1.7 3.3-1.6-1.6-.3-2.6.3-3.5 1.2-.5-2.8 3.8-3.4 5.5-.2zM34.7 24.6c-2.1-.1-2.3 3.1-4.5 2.5.3-1.1 1-2.2 2.3-2.6-1.5.3-2.2 1.2-2.7 2.3-1.4-2.3 2.2-4.5 4.9-2.2z"/><path d="M26.6 31.6c1-2.8-3.3-4.4-1.6-7.1 1.5.8 2.6 2.2 2.6 4.1.2-2.2-.8-3.5-2.1-4.5 3.6-1 5.2 4.8 1.1 7.5zM70.2 24.2c.3-2.9-4.1-3.5-3.1-6.5 1.6.5 3 1.5 3.4 3.4-.3-2.2-1.5-3.2-3-3.9 3.3-1.8 6 3.5 2.7 7zM30.8 85.1c1.9-.2 2.4 2.7 4.4 2-.3-1-1-2-2.3-2.2 1.5.2 2.2 1 2.6 2 1.1-2.3-2.4-4-4.7-1.8zM10.8 60.3c2.2 1.2.4 4.7 3.1 5.4.5-1.3.4-2.9-.7-4.1 1.4 1.3 1.5 2.7 1.2 4.1 2.9-1.4.5-6-3.6-5.4zM27 21.5c0-1.9-2.8-2-2.3-4 1 .2 2 .8 2.4 2-.3-1.4-1.2-2-2.1-2.3 1.9-1.3 3.9 1.9 2 4.3zM42.6 14.1c-2.4.6-1.6 4.3-4.3 4.3-.1-1.4.3-2.8 1.7-3.7-1.6.9-2.1 2.1-2.2 3.5-2.3-2 1-5.7 4.8-4.1zM84.6 63.1c-.8-1.3-2.8-.1-3.4-1.7.8-.3 1.7-.3 2.5.3-.8-.8-1.7-.8-2.5-.6.8-1.7 3.6-.5 3.4 2zM76.4 70.9c.8-1.7-1.8-3-.5-4.6.9.6 1.5 1.6 1.4 2.8.3-1.4-.3-2.3-1-3 2.3-.5 2.8 3.4.1 4.8zM88 68.3c-.5-2 2.5-2.9 1.4-4.9-1 .5-1.9 1.4-2 2.8 0-1.5.7-2.4 1.7-3.1-2.5-.9-3.8 3.1-1.1 5.2zM11.7 48.9c-.1-3.7 5.6-4 4.6-7.9-2 .4-3.9 1.6-4.7 4 .6-2.7 2.3-3.9 4.2-4.6-3.9-2.7-7.9 3.7-4.1 8.5zM17.6 43.7c-1.2 2 1.9 4 0 5.9-1-.9-1.7-2.2-1.4-3.7-.5 1.7 0 2.9.9 3.9-2.9.2-3.2-4.7.5-6.1zM23.1 36c-1.3 2.5-5.1.6-5.9 3.6 1.5.5 3.2.4 4.5-.9-1.4 1.6-2.9 1.8-4.5 1.5 1.8 3.1 6.8.3 5.9-4.2z"/><path d="M18.5 37.2c2.1-1.9-.8-5.2 1.9-6.7.9 1.3 1.2 3 .3 4.7 1.2-1.8.9-3.3.3-4.8 3.6.7 2.2 6.3-2.5 6.8z"/><path d="M25.4 30.2c-3.1-1.5-.9-6.3-4.6-7.2-.5 1.9-.4 3.9 1.3 5.6-2-1.7-2.3-3.6-2-5.5-3.8 2.1-.3 8.2 5.3 7.1z"/><path d="M27 23c-1.9-1.4-4.1 1.5-5.8-.5 1-.9 2.3-1.5 3.7-1-1.6-.7-2.8-.2-3.9.5.1-3 4.9-2.8 6 1zM19.6 29.8c-3.2 2.3.3 7.2-3.7 9-1-2-1.2-4.3.3-6.5-1.9 2.3-1.8 4.4-1.1 6.5-4.7-1.6-2-9.2 4.5-9zM38.1 11.3c2.4-.6 3.3 3.1 5.8 1.9-.5-1.3-1.6-2.4-3.2-2.5 1.9 0 2.9 1 3.6 2.2 1.2-2.9-3.6-4.7-6.2-1.6zM39.7 12.8c-2.8-.2-3.1 4.1-6.1 3.3.4-1.5 1.3-2.9 3.1-3.4-2.1.4-3 1.6-3.6 3.1-1.8-3.1 3.1-6 6.6-3zM50.6 12c-1.7-1.5-4 1.2-5.5-.8 1-.8 2.3-1.3 3.7-.7-1.5-.7-2.7-.4-3.8.3.2-2.9 4.7-2.5 5.6 1.2zM64.4 11.6c-2.5-.3-3.1 3.5-5.7 2.6.4-1.4 1.4-2.6 3-2.9-1.9.2-2.8 1.3-3.4 2.6-1.5-3 3.1-5.3 6.1-2.3zM62.2 13.6c-1 1.9 1.8 3.5.3 5.3-.9-.7-1.6-1.9-1.4-3.3-.4 1.6.1 2.6 1 3.5-2.8.3-3.2-4 .1-5.5z"/><path d="M49.4 8.7c3.5 1.7 1.1 7.2 5.3 8.1.6-2.1.4-4.5-1.5-6.3 2.3 1.9 2.6 4 2.4 6.2 4.3-2.5.2-9.3-6.2-8zM71.4 14.9c2 1.3 0 4.5 2.5 5.4.5-1.3.6-2.7-.4-4 1.2 1.3 1.2 2.7.9 4 2.9-1.1 1-5.7-3-5.4zM71 16.5c-2.4-2.1-5.8 1.5-7.9-1.4 1.4-1.1 3.3-1.7 5.3-.9-2.2-1.1-3.9-.7-5.5.2.4-4 7-3.2 8.1 2.1zM17.5 72.4c2.4.8 1.3 4.5 4.1 4.7.2-1.4-.1-2.9-1.5-3.9 1.6 1 2 2.3 2 3.8 2.6-1.9-.6-6-4.6-4.6zM21.8 72c-1.9-2.8-6.3.1-7.7-3.4 1.8-.8 3.8-.9 5.7.4-1.9-1.7-3.8-1.7-5.7-1.2 1.5-4 8-1.5 7.7 4.2zM35.5 77.3c-1.3-1.5-3.6.4-4.6-1.5 1-.6 2.1-.7 3.3-.1-1.2-.9-2.3-.8-3.3-.4.5-2.4 4.4-1.3 4.6 2zM22.9 72.9c1.3-2.4-2.4-4.6-.3-6.9 1.2 1 2.1 2.4 1.8 4.3.5-2-.2-3.4-1.2-4.6 3.5-.3 4 5.3-.3 7.2zM21.3 55.2c-1.6-1.6.8-4-1.3-5.3-.7 1-1 2.3-.4 3.6-.9-1.4-.6-2.6-.1-3.7-2.8.5-1.9 4.9 1.8 5.4zM17.1 54.5c1.8 1.6-.7 4.4 1.7 5.8.7-1.2 1-2.6.3-4 1 1.5.8 2.8.3 4.1 2.8-.8 1.7-5.6-2.3-5.9zM30.8 73.2c-2.1 1.8-5-1.4-6.8 1.1 1.2 1 2.8 1.5 4.5.8-1.9 1-3.3.5-4.7-.3.4 3.6 6 2.9 7-1.6zM43.8 84.7c-2.1 2-5.2-1.1-7 1.6 1.3 1 3 1.4 4.8.6-1.9 1.1-3.5.8-4.9 0 .5 3.6 6.3 2.5 7.1-2.2zM51.1 90.2c-2.9-1.3-1-5.9-4.4-6.6-.5 1.8-.2 3.7 1.3 5.2-1.9-1.5-2.2-3.3-2-5.1-3.6 2.1-.2 7.7 5.1 6.5zM60.5 89.1c-3.2-1.5-5.6 3.3-8.6.8 1.2-1.6 2.9-2.8 5.3-2.5-2.6-.6-4.3.4-5.7 1.8-.7-4.3 6.4-5.3 9-.1z"/><path d="M56.8 84.8c2.5-.2 2.8 3.6 5.4 2.8-.3-1.4-1.2-2.6-2.8-3 1.8.3 2.7 1.4 3.2 2.7 1.6-2.7-2.8-5.2-5.8-2.5zM58.6 78.5c2.2 1 3.9-2.4 6-.8-.8 1.2-2 2-3.6 1.9 1.8.3 3-.4 3.9-1.4.6 3-4.4 3.8-6.3.3zM23 77.8c3.7 2.6 7.8-2.9 11.1.8-1.8 1.8-4.3 2.9-7.2 2 3.2 1.3 5.5.4 7.6-1.1 0 5.7-9.3 5.5-11.5-1.7zM81.8 34.5c.5 1.7-2.2 2.5-1.3 4.2.9-.4 1.7-1.2 1.7-2.4 0 1.3-.6 2.1-1.5 2.6 2.3.8 3.5-2.6 1.1-4.4zM85.8 39.4c2-1.1.3-4.1 2.7-4.8.4 1.2.4 2.6-.6 3.7 1.2-1.2 1.3-2.4 1.1-3.6 2.6 1.1.5 5.2-3.2 4.7zM86.2 29.6c-1.3-1.5-3.6.5-4.7-1.4 1-.6 2.1-.8 3.3-.2-1.2-.8-2.3-.7-3.4-.3.7-2.4 4.6-1.4 4.8 1.9z"/><path d="M41.3 81.6c-2.6-.4-3.3 3.6-6 2.5.5-1.4 1.5-2.6 3.3-3-2 .2-3 1.3-3.7 2.6-1.6-3 3.3-5.3 6.4-2.1zM77.1 64.6c2.6 1 4.2-2.9 6.7-1.2-.8 1.3-2.1 2.4-4 2.3 2.1.3 3.3-.6 4.3-1.8.8 3.4-4.6 4.6-7 .7z"/><path d="M79.4 58.8c.5 1.8-2.2 2.7-1.2 4.4.9-.5 1.7-1.3 1.7-2.5.1 1.4-.6 2.2-1.4 2.8 2.3.7 3.4-2.9.9-4.7zM91.7 54.5c-.3-2.1-3.5-1.7-3.3-4 1.2 0 2.4.5 3 1.8-.6-1.5-1.6-2-2.8-2.2 1.9-1.9 4.8 1.3 3.1 4.4zM86.2 46c2.3-1.6-.1-5.2 2.8-6.4.7 1.4.8 3.1-.3 4.7 1.4-1.6 1.4-3.2.9-4.7 3.3 1.2 1.2 6.6-3.4 6.4zM85.9 43.1c-.8 2-3.9.8-4.3 3.2 1.2.3 2.5.1 3.4-1-1 1.3-2.1 1.6-3.3 1.5 1.5 2.2 5.1-.2 4.2-3.7zM39.8 18.7c-2.2 2.3-5.8-1.1-7.6 1.9 1.5 1 3.3 1.5 5.2.5-2 1.3-3.7.9-5.4.2.8 4 7.1 2.6 7.8-2.6zM85.7 64.2c.7-3.1 5.5-2.1 5.5-5.5-1.8-.1-3.6.5-4.7 2.3 1.1-2.1 2.7-2.7 4.5-2.9-2.7-3-7.5 1.3-5.3 6.1zM85.6 65c-.8 3.4-6 2.3-5.9 6.1 1.9.1 3.9-.6 5.1-2.5-1.2 2.3-2.9 3-4.9 3.2 3 3.2 8.1-1.6 5.7-6.8zM76.4 18.8c2.5 2.9-1.9 6.8 1.5 9.3 1.4-1.7 2.1-3.8 1.2-6.2 1.3 2.6.7 4.6-.4 6.4 4.7-.4 3.8-8.1-2.3-9.5z"/><path d="M77.9 42.1c3 .7 4.1-4 7.3-2.5-.7 1.6-1.9 3-4 3.2 2.3-.1 3.6-1.3 4.5-2.8 1.4 3.6-4.5 6-7.8 2.1zM76.5 28.2c-2-2.1 1.2-5.3-1.5-7-1 1.3-1.4 3-.6 4.8-1.1-1.9-.7-3.5 0-4.9-3.7.5-2.7 6.4 2.1 7.1zM31.3 22.4c-1.4-2.7 2.7-4.9.6-7.5-1.4 1-2.3 2.6-2.1 4.6-.5-2.2.3-3.7 1.5-4.9-3.8-.6-4.5 5.6 0 7.8zM84.8 38.4c.6-3.3-4.4-4.3-2.9-7.6 1.8.6 3.3 2 3.6 4.2-.2-2.5-1.5-3.8-3.1-4.7 3.8-1.8 6.5 4.4 2.4 8.1zM17.8 61.1c-3.5-3.2 1.4-8.6-3.1-11.3-1.5 2.2-2.1 5-.6 7.8-1.9-3-1.5-5.6-.4-8-5.9 1.3-3.7 10.7 4.1 11.5zM50.4 86.5c1-2.1 4.3-.5 4.9-3.1-1.3-.4-2.7-.3-3.8.8 1.1-1.3 2.4-1.5 3.7-1.3-1.3-2.6-5.5-.2-4.8 3.6z"/></g></svg>