<svg xmlns:xlink="http://www.w3.org/1999/xlink"  xmlns="http://www.w3.org/2000/svg" viewBox="0 0 150 150"><path fill="none" d="M81.6 82.4c-2.6-.6-5.3-1.4-8-2.2 0 2.3 0 4.7.1 7 2.7.6 5.3 1.2 7.9 1.7v-6.5zM81.5 74.4c-2.6-.8-5.3-1.7-8-2.8 0 2.4 0 4.8.1 7.1 2.7.8 5.4 1.6 8 2.3-.1-2.1-.1-4.3-.1-6.6zM72.3 113.1H64c0 2.4.1 4.9.1 7.3 2.8-.2 5.6-.4 8.3-.6 0-2.2 0-4.4-.1-6.7zM64.3 130.5c0 2.4.1 4.7.1 7.1 2.8-.7 5.5-1.4 8.1-1.9 0-2.2-.1-4.3-.1-6.5-2.6.3-5.3.8-8.1 1.3zM72.1 96.7c-2.8-.4-5.6-.9-8.4-1.4 0 2.5.1 5 .1 7.5 2.9.3 5.6.5 8.4.8 0-2.3 0-4.6-.1-6.9zM72.2 105c-2.7-.2-5.5-.4-8.4-.7 0 2.5.1 4.9.1 7.4 2.8 0 5.6 0 8.3.1.1-2.3.1-4.6 0-6.8zM81.6 105.6c-2.5-.2-5.1-.3-7.8-.5 0 2.3 0 4.5.1 6.7 2.6 0 5.2.1 7.7.1.1-2.1.1-4.2 0-6.3zM81.7 120.6c-2.5.1-5.1.3-7.7.5 0 2.2 0 4.4.1 6.5 2.6-.3 5.1-.6 7.6-.9v-6.1zM81.7 113.1H74c0 2.2 0 4.4.1 6.6 2.6-.2 5.2-.3 7.7-.4-.1-2-.1-4.1-.1-6.2zM74.1 128.9c0 2.2 0 4.3.1 6.4 2.6-.5 5.1-1 7.6-1.4v-6c-2.6.3-5.1.6-7.7 1zM81.6 90.2c-2.6-.5-5.2-1-7.9-1.6 0 2.3 0 4.6.1 6.9 2.7.4 5.3.8 7.9 1.1-.1-2.1-.1-4.2-.1-6.4zM72.1 88.2c-2.8-.6-5.6-1.4-8.5-2.2 0 2.6.1 5.1.1 7.7 2.9.6 5.7 1.1 8.4 1.5v-7zM81.6 98c-2.6-.3-5.2-.7-7.8-1.1 0 2.3.1 4.5.1 6.8l7.8.6c-.1-2.1-.1-4.2-.1-6.3zM114.1 69c-2-.3-4.1-.7-6.2-1.1 0 1.9-.1 3.9-.1 5.8 2.1.4 4.1.7 6.2 1 0-1.9 0-3.8.1-5.7zM50.7 81.9c-3.2-1.2-6.6-2.6-9.9-4.3l.3 10.2c3.3 1.2 6.6 2.1 9.9 3-.1-3-.2-5.9-.3-8.9zM50.5 71c-3.3-1.7-6.6-3.7-10-5.9l.3 10.5c3.4 1.8 6.7 3.3 9.9 4.6-.1-3.2-.2-6.2-.2-9.2zM41.2 89.8c.1 3.4.2 6.7.3 10 3.3.6 6.6 1 9.8 1.5-.1-2.9-.1-5.8-.2-8.8-3.3-.7-6.6-1.6-9.9-2.7zM83.2 133.7c2.4-.4 4.8-.7 7.1-1V127c-2.3.2-4.7.4-7.1.7v6zM72 79.7c-2.8-.9-5.7-1.8-8.6-3 0 2.6.1 5.2.1 7.8 2.9.9 5.7 1.6 8.5 2.3v-7.1zM61.4 66.4c-3.1-1.5-6.2-3.3-9.3-5.3.1 3 .1 6.1.2 9.1 3.1 1.6 6.2 3 9.3 4.3-.1-2.7-.1-5.4-.2-8.1zM71.9 71c-2.8-1.1-5.7-2.4-8.6-3.8.1 2.7.1 5.3.1 7.9 2.9 1.2 5.8 2.2 8.6 3.1-.1-2.3-.1-4.7-.1-7.2zM53.6 123.2c.1 2.7.1 5.4.2 8.1 3-.7 5.9-1.3 8.8-1.9 0-2.4-.1-4.9-.1-7.3-2.9.3-5.9.7-8.9 1.1zM62 94.9c-3-.6-6-1.2-9.1-1.9.1 2.9.1 5.7.2 8.5 3.1.4 6.1.7 9 1 0-2.4-.1-5-.1-7.6zM62.1 104.1c-2.9-.3-6-.5-9-.9.1 2.8.1 5.6.2 8.4h9c-.1-2.4-.1-4.9-.2-7.5zM61.6 76.1c-3-1.2-6.1-2.6-9.2-4.1.1 3 .1 5.9.2 8.9 3.1 1.2 6.2 2.3 9.2 3.2-.1-2.7-.1-5.4-.2-8zM113.4 85.6c2 .2 3.9.4 5.8.6.1-1.8.1-3.7.2-5.5-1.9-.2-3.8-.4-5.8-.6-.1 1.8-.2 3.6-.2 5.5zM100.2 84.9c2.2.3 4.4.7 6.5.9 0-1.9.1-3.8.1-5.7-2.1-.3-4.3-.7-6.5-1.1-.1 2-.1 3.9-.1 5.9zM100.1 91.9c2.2.3 4.3.5 6.4.7 0-1.9.1-3.7.1-5.6-2.1-.3-4.3-.6-6.5-.9.1 1.9 0 3.8 0 5.8zM107 131.4c2-.1 3.9-.1 5.9-.2 0-1.7.1-3.4.1-5.1-1.9 0-3.9 0-5.9.1 0 1.8 0 3.5-.1 5.2zM99.8 112.2c2.1.1 4.3.1 6.3.2 0-1.8.1-3.6.1-5.4-2.1-.1-4.2-.2-6.4-.3.1 1.8.1 3.7 0 5.5zM99.6 131.9c2.1-.2 4.2-.3 6.2-.4 0-1.7.1-3.5.1-5.2-2.1.1-4.1.1-6.3.2v5.4zM105.9 125.2c0-1.8.1-3.5.1-5.3h-6.3c0 1.9 4.2 5.3 6.2 5.3zM107.3 118.8c2 0 4 0 5.9.1 0-1.7.1-3.5.1-5.2-1.9-.1-3.9-.1-5.9-.2-.1 1.8-.1 3.6-.1 5.3zM83.2 126.5c2.4-.2 4.8-.4 7.1-.6v-5.8c-2.3.1-4.7.2-7.2.3.1 2.1.1 4.1.1 6.1zM107.4 112.4c2 .1 4 .1 5.9.2 0-1.8.1-3.5.1-5.3-2-.1-3.9-.2-6-.3.1 1.8 0 3.6 0 5.4zM107.8 92.7c2 .2 4.1.4 6 .6 0-1.8.1-3.7.1-5.5-2-.2-4-.4-6.1-.7.1 1.9 0 3.8 0 5.6zM107.5 105.9l6 .3c0-1.8.1-3.6.1-5.4-2-.1-4-.3-6-.4 0 1.9 0 3.7-.1 5.5zM100 98.7c2.2.2 4.3.4 6.4.5 0-1.8.1-3.7.1-5.6-2.1-.2-4.2-.5-6.4-.7 0 2-.1 3.9-.1 5.8zM83.1 89.2c2.5.5 5 .9 7.4 1.3v-6.1c-2.4-.5-4.9-1-7.4-1.6v6.4zM91.9 83.4c2.4.5 4.7.9 6.9 1.3 0-2 0-3.9.1-5.9-2.3-.4-4.6-.9-7-1.5.1 2 0 4.1 0 6.1zM83.1 81.5c2.5.6 5 1.2 7.4 1.7V77c-2.4-.6-4.9-1.3-7.5-2 .1 2.1.1 4.3.1 6.5zM83.2 111.9c2.5 0 4.9.1 7.2.1v-5.9c-2.4-.1-4.8-.3-7.3-.4 0 2.1.1 4.1.1 6.2zM83.2 119.3c2.4-.1 4.8-.2 7.2-.2v-5.8c-2.4 0-4.8 0-7.2-.1v6.1zM91.7 132.6c2.2-.2 4.5-.4 6.6-.6 0-1.8 0-3.6.1-5.4-2.2.1-4.4.3-6.7.4v5.6zM83.1 104.4c2.5.2 4.9.3 7.3.5v-6c-2.4-.2-4.8-.5-7.3-.8v6.3zM91.7 125.8c2.3-.2 4.5-.3 6.7-.4 0-1.8 0-3.7.1-5.5-2.2 0-4.4.1-6.7.2-.1 1.9-.1 3.8-.1 5.7zM91.9 97.9c2.3.3 4.6.5 6.8.7 0-1.9 0-3.8.1-5.8-2.2-.3-4.5-.6-6.9-.9v6zM91.8 105c2.3.1 4.6.3 6.8.4 0-1.9 0-3.8.1-5.7-2.2-.2-4.5-.4-6.8-.6-.1 2-.1 4-.1 5.9zM91.7 119c2.3 0 4.5-.1 6.7-.1 0-1.8 0-3.7.1-5.6-2.2 0-4.5-.1-6.7-.1 0 1.9 0 3.9-.1 5.8zM91.8 112c2.3 0 4.5.1 6.7.1 0-1.9 0-3.7.1-5.6-2.2-.1-4.5-.2-6.8-.4v5.9z"/><path fill="#00A896" d="M123 65.9v-.5c0-6.1-5.1-11.5-11.1-11.5h-69c2.5 2 4.9 4 7.3 5.6.1 3.1.2 6.3.2 9.4-3.3-1.8-6.6-3.8-10-6.2-.1-2.8-.3-5.5-.4-8.3-5.5.6-10 5.3-10 10.9V134c0 6.1 5.3 10.8 11.4 10.8h70.5c6.1 0 11.1-4.7 11.1-10.8v-15.1c-2-.1-3.4-.1-5-.2 0-1.7.1-3.4.2-5.2 1.6.1 2.9.1 4.9.2v-11.9c-2-.1-3.6-.2-5.4-.3 0-1.8.1-3.6.2-5.4 1.7.1 3.2.2 5.2.4V71.6c-1 0-1.1-.1-1.5-.1.1-1.9.1-3.8.2-5.7.3 0 .2.1 1.2.1zm-15.1 2c2.1.4 4.2.8 6.2 1.1-.1 1.9-.1 3.8-.1 5.7-2-.3-4.1-.6-6.2-1 0-1.9.1-3.8.1-5.8zM40.5 65c3.4 2.3 6.7 4.2 10 5.9.1 3.1.2 6.1.2 9.1-3.3-1.3-6.6-2.8-9.9-4.6-.2-3.4-.2-6.9-.3-10.4zm.3 12.6c3.4 1.6 6.7 3.1 9.9 4.3.1 3 .1 6 .2 8.9-3.2-.9-6.5-1.8-9.9-3 0-3.4-.1-6.8-.2-10.2zm.6 22.3l-.3-10c3.3 1 6.6 1.9 9.8 2.7.1 2.9.1 5.8.2 8.8-3.1-.5-6.3-1-9.7-1.5zm10.7-38.8c3.1 2 6.3 3.7 9.3 5.3.1 2.7.1 5.4.2 8.1-3-1.3-6.1-2.7-9.3-4.3 0-3.1-.1-6.1-.2-9.1zm.3 10.8c3.1 1.6 6.2 2.9 9.2 4.1.1 2.7.1 5.3.1 7.9-3-.9-6.1-2-9.2-3.2 0-2.8 0-5.8-.1-8.8zm.5 21.1c3.1.7 6.1 1.4 9.1 1.9.1 2.6.1 5.1.1 7.7-2.9-.3-6-.7-9-1-.1-2.9-.1-5.7-.2-8.6zm.2 10.3c3.1.3 6.1.6 9 .9 0 2.5.1 5 .1 7.5h-9c0-2.8 0-5.6-.1-8.4zm.7 27.9c-.1-2.7-.1-5.4-.2-8.1 3-.4 6-.8 8.9-1.1 0 2.5.1 4.9.1 7.3-2.9.6-5.8 1.2-8.8 1.9zm9.4-63.9c2.9 1.4 5.8 2.7 8.6 3.8 0 2.4.1 4.8.1 7.2-2.8-.9-5.7-1.9-8.6-3.1 0-2.6 0-5.3-.1-7.9zm.2 9.5c2.9 1.1 5.8 2.1 8.6 3 0 2.4.1 4.8.1 7.1-2.8-.7-5.6-1.4-8.5-2.3-.1-2.6-.2-5.2-.2-7.8zm.2 9.3c2.9.8 5.7 1.5 8.5 2.2 0 2.4 0 4.7.1 7l-8.4-1.5c-.1-2.6-.2-5.2-.2-7.7zm.1 9.2c2.9.5 5.7 1 8.4 1.4 0 2.3 0 4.6.1 6.9-2.7-.2-5.5-.5-8.4-.8 0-2.5 0-5-.1-7.5zm.2 9c2.9.2 5.6.5 8.4.7 0 2.3 0 4.6.1 6.8-2.7 0-5.5-.1-8.3-.1-.1-2.5-.2-4.9-.2-7.4zm.1 8.9h8.3c0 2.2.1 4.5.1 6.7-2.7.2-5.5.4-8.3.6 0-2.5 0-4.9-.1-7.3zm.5 24.4c0-2.3-.1-4.7-.1-7.1 2.8-.5 5.5-1 8.2-1.4 0 2.2.1 4.4.1 6.5-2.8.6-5.5 1.2-8.2 2zm9-65.9c2.7 1 5.4 1.9 8 2.8v6.6c-2.6-.7-5.3-1.4-8-2.3.1-2.4 0-4.7 0-7.1zm.1 8.5c2.7.8 5.4 1.5 8 2.2v6.5c-2.6-.5-5.2-1.1-7.9-1.7 0-2.3-.1-4.6-.1-7zm.1 8.4c2.7.6 5.3 1.1 7.9 1.6v6.5c-2.6-.3-5.2-.7-7.9-1.1v-7zm.1 8.3c2.7.4 5.3.7 7.8 1.1v6.4c-2.5-.2-5.1-.4-7.8-.6v-6.9zm.1 8.2c2.6.2 5.2.4 7.8.5v6.3c-2.5 0-5.1-.1-7.7-.1-.1-2.2-.1-4.5-.1-6.7zm0 8h7.7v6.2c-2.5.1-5.1.2-7.7.4.1-2.2.1-4.4 0-6.6zm.1 7.9c2.6-.2 5.2-.4 7.7-.5v6.1c-2.5.3-5 .6-7.6.9 0-2.1-.1-4.3-.1-6.5zm.2 14.3c0-2.1 0-4.3-.1-6.4 2.6-.4 5.1-.7 7.6-1v6c-2.4.4-5 .9-7.5 1.4zm16.1-2.6c-2.3.3-4.7.6-7.1 1v-6c2.4-.3 4.8-.5 7.1-.7v5.7zm0-6.8c-2.3.2-4.7.4-7.1.6v-6l7.2-.3c-.1 1.9-.1 3.8-.1 5.7zm.1-6.9c-2.3.1-4.7.1-7.2.2v-6.1c2.4 0 4.9 0 7.2.1v5.8zm0-7c-2.4 0-4.8-.1-7.2-.1v-6.2c2.5.2 4.9.3 7.3.4-.1 2-.1 4-.1 5.9zm0-7.1c-2.4-.2-4.8-.3-7.3-.5v-6.3c2.5.3 4.9.6 7.3.8v6zm.1-14.4c-2.4-.4-4.9-.8-7.4-1.3v-6.5c2.5.6 5 1.1 7.4 1.6v6.2zm0-7.4c-2.4-.5-4.9-1.1-7.4-1.7v-6.6c2.5.7 5 1.4 7.5 2-.1 2.2-.1 4.3-.1 6.3zm7.8 48.9l-6.6.6V127c2.3-.2 4.5-.3 6.7-.4-.1 1.8-.1 3.6-.1 5.4zm.1-6.5c-2.2.1-4.4.2-6.7.4v-5.7c2.3-.1 4.5-.1 6.7-.2v5.5zm.1-6.6c-2.2 0-4.4.1-6.7.1v-5.8c2.3 0 4.5.1 6.7.1v5.6zm0-6.7c-2.2-.1-4.5-.1-6.7-.1v-5.8c2.3.1 4.6.3 6.8.4 0 1.7 0 3.6-.1 5.5zm.1-6.8c-2.2-.1-4.5-.3-6.8-.4v-5.9c2.3.2 4.6.4 6.8.6.1 1.9 0 3.8 0 5.7zm.1-6.8c-2.2-.2-4.5-.4-6.8-.7v-6l6.9.9c-.1 2-.1 3.9-.1 5.8zm.2-13.9c-2.3-.4-4.6-.8-6.9-1.3v-6.1c2.4.6 4.7 1.1 7 1.5-.1 1.9-.1 3.9-.1 5.9zm6.9 46.8c-2 .1-4.1.2-6.2.4 0-1.8 0-3.6.1-5.4 2.1-.1 4.2-.2 6.3-.2-.1 1.7-.1 3.5-.2 5.2zm.1-6.3c-2 0-6.2-3.4-6.2-5.3h6.3c0 1.8 0 3.5-.1 5.3zm.3-12.8c-2.1-.1-4.2-.1-6.3-.2 0-1.9.1-3.7.1-5.6 2.2.1 4.3.2 6.4.3-.2 1.9-.2 3.7-.2 5.5zm.2-13.1c-2.1-.2-4.2-.3-6.4-.5 0-1.9.1-3.8.1-5.7 2.2.3 4.3.5 6.4.7 0 1.8-.1 3.6-.1 5.5zm.1-6.7c-2.1-.2-4.3-.5-6.4-.7 0-1.9.1-3.9.1-5.8 2.2.3 4.3.6 6.5.9-.1 1.8-.1 3.7-.2 5.6zm.2-6.8c-2.1-.3-4.3-.6-6.5-.9 0-1.9.1-3.9.1-5.9 2.2.4 4.4.8 6.5 1.1-.1 1.9-.1 3.8-.1 5.7zm6.2 45.5c-1.9 0-3.9.1-5.9.2 0-1.7.1-3.5.1-5.2 2 0 3.9-.1 5.9-.1 0 1.7-.1 3.4-.1 5.1zm.3-12.4c-1.9 0-3.9-.1-5.9-.1 0-1.8.1-3.6.1-5.3 2 .1 4 .1 5.9.2 0 1.7-.1 3.5-.1 5.2zm.1-6.3c-2-.1-3.9-.1-5.9-.2 0-1.8.1-3.6.1-5.4l6 .3c-.1 1.8-.1 3.6-.2 5.3zm.2-6.3l-6-.3c0-1.8.1-3.6.1-5.5 2 .2 4 .3 6 .4 0 1.8-.1 3.6-.1 5.4zm.3-13l-6-.6c0-1.9.1-3.7.1-5.6 2.1.3 4.1.5 6.1.7-.1 1.8-.1 3.7-.2 5.5zm5.4-7.1c-1.9-.2-3.8-.4-5.8-.6 0-1.9.1-3.7.1-5.6 2 .2 3.9.5 5.8.6 0 1.9-.1 3.7-.1 5.6z"/><path fill="#4E4E4E" d="M51.8 39.1c0-13.7 11.1-24.8 24.8-24.8 13.7 0 24.8 11.1 24.8 24.8v14.2h9.4V39.1C110.8 20.3 95.4 5 76.6 5 57.8 5 42.4 20.3 42.4 39.1v14.2h9.4V39.1z"/></svg>