<svg xmlns:xlink="http://www.w3.org/1999/xlink"  xmlns="http://www.w3.org/2000/svg" viewBox="0 0 150 150"><path fill="#486E7A" d="M35.6 85.4l-11.2-8.2c-.1 1.3-.2 2.6-.2 4 0 12.5 4.6 23.9 12.1 32.7l4.3-13.3c-2.6-4.5-4.4-9.7-5-15.2zM108.6 100.6l4.3 13.3c7.5-8.8 12.1-20.2 12.1-32.7 0-1.3-.1-2.6-.2-3.9l-11.2 8.2c-.7 5.4-2.4 10.5-5 15.1z"/><path fill="#78C5DA" d="M74.6 120.4c-2.7 0-5.4-.3-8-.8l-11.3 8.2c5.9 2.5 12.4 3.8 19.3 3.8 6.8 0 13.4-1.4 19.3-3.9l-11.3-8.2c-2.6.6-5.3.9-8 .9z"/><path fill="#0095B0" d="M103.5 54.9h14c-6.9-11.2-18-19.5-31.1-22.6l4.3 13.3c4.9 2.1 9.2 5.3 12.8 9.3zM59.7 45.5L64 32.2c-13.2 3.2-24.3 11.4-31.2 22.6h14c3.6-3.9 8-7.1 12.9-9.3z"/><path fill="#00A0C1" d="M91.3 58.6L74.9 8.1 58.5 58.6H5.4l42.9 31.2-16.4 50.5 43-31.2 42.9 31.2-16.4-50.5 42.9-31.2h-53zM61.4 63h.3l13.2 18.1L19.1 63h42.3zm13.5 40.6V81.2l-34.5 47.5 13.2-40.6 21.3-6.9V22.5L88.1 63 74.9 81.2 130.7 63 96.2 88.1l-21.3-6.9 34.5 47.5-34.5-25.1z"/></svg>