<svg xmlns:xlink="http://www.w3.org/1999/xlink"  xmlns="http://www.w3.org/2000/svg" viewBox="0 0 150 150"><path fill="none" d="M125 100.1c-2.1.5-3.9 3.4-4 6.5-.1 3.1 1.5 5.2 3.5 4.6 2-.6 3.7-3.4 3.9-6.5.1-3-1.4-5.1-3.4-4.6zM125.7 82.1c-2.1.3-3.9 3.1-4 6.3-.1 3.2 1.5 5.4 3.6 5 2-.4 3.7-3.2 3.9-6.3 0-3.1-1.5-5.3-3.5-5z"/><path fill="#1A1A1A" d="M131.4 47.6l-24.7-.3c-1.1-4.1-3.2-7.6-6-9.8l9.7-19.7c.1 0 .1 0 .2.1 1.8.2 3.3-1.7 3.3-4.3.1-2.6-1.3-5-3-5.3-1.8-.3-3.3 1.6-3.4 4.3 0 1.1.2 2.1.5 2.9L97.9 35.8c-1.2-.5-2.5-.9-3.8-.9-1.3-.1-2.5.1-3.7.4L81 12.2c.5-.8.9-1.9.9-3.1.1-3-1.7-5.7-4-6.1-2.3-.4-4.3 1.7-4.4 4.8-.1 3.1 1.8 5.8 4.2 6.1h.2l9.5 22.7c-3.4 2.1-6.2 5.7-7.8 10.4l-39.9-.5c-3.7 0-6.6 3.3-6.6 7.5v11.4c3-.6 7.5-.6 11.4.1v-4.8h.1c.9-1.1 2.1-1.8 3.5-1.9l66.4-1.8c1.6 0 2.8 1.8 2.7 4.1l-1.8 49.3c-.1 2.2-1.4 4.3-2.9 4.8l-33.2 9.1c-1.4.8-2.8 1.5-4.4 2-2.1.7-4.3 1-6.5 1L47.6 133c-1.9.5-3.4-.4-4.1-2.1-3.4.5-7.4.5-10.4-.1v11.1c0 3.9 2.7 6.1 6.3 5l89.3-27.9c1.8-.5 3.2-3.2 3.3-5.8l2.6-60.2c0-3-1.4-5.4-3.2-5.4zm-3 57.2c-.1 3-1.8 5.9-3.9 6.5-2.1.6-3.7-1.5-3.5-4.6.1-3.1 1.9-6.1 4-6.5 2-.6 3.5 1.5 3.4 4.6zm.7-17.7c-.1 3.1-1.8 5.9-3.9 6.3-2.1.4-3.7-1.8-3.6-5 .1-3.2 1.9-6 4-6.3 2.1-.3 3.6 1.9 3.5 5z"/><path fill="#E96026" d="M66 103.6c2.1-10-1.3-19.9-8.1-26.6 1.5-2.4 4.5-5.9 9.5-6.3 4.6-.3 7.8 1.9 9.6 3.8-1.8 2.4-3.1 5.2-3.8 8.4-2.4 11.5 5 22.9 16.5 25.3 11.6 2.4 22.9-5 25.3-16.5 2.4-11.6-4.9-22.9-16.5-25.3-6.3-1.3-12.5.3-17.2 3.8-2.7-2.8-7.4-6-14.2-5.5-7.2.4-11.6 5-13.9 8.5-2.8-1.8-6-3.1-9.4-3.8C27.9 66 12.6 76 9.3 91.6c-3.3 15.6 6.7 31 22.5 34.3 15.5 3.3 30.9-6.8 34.2-22.3zm41.4-13.5c-1.5 7.4-8.8 12-16.2 10.5-7.4-1.6-12-8.7-10.5-16.1 1.6-7.4 8.7-12.2 16.1-10.6 7.4 1.5 12.2 8.8 10.6 16.2zm-9-22.5c5.6 1.2 10.1 4.4 12.9 8.8-1.2 1.5-2.4 3-3.7 4.3-1.9-3.9-5.7-7-10.3-8-8.2-1.7-16.3 3.5-18 11.7-.5 2.4-.5 4.8.1 7.1-3.4-.2-5.5-.7-5.5-.7-.4-2.5-.3-5 .2-7.5 2.4-11 13.2-18 24.3-15.7zm-41.9 34c-2.2 10.4-12.4 17.1-22.8 14.9-10.5-2.2-17.1-12.4-14.9-22.8C21 83.2 31.2 76.5 41.7 78.8c10.4 2.1 17 12.4 14.8 22.8zm-46-9.7c3.2-15 17.9-24.5 32.9-21.3 7.5 1.6 13.6 6 17.4 11.9-1.6 2.2-3.1 4-4.9 5.8-2.7-5.4-7.7-9.4-14-10.8-11.1-2.3-22.1 4.8-24.4 15.9-.7 3.3-.6 6.4.1 9.5-4.5-.2-7.3-.8-7.4-.8-.4-3.3-.4-6.8.3-10.2z"/><path fill="#FFF" d="M41.7 78.8C31.2 76.5 21 83.2 18.9 93.6c-2.2 10.4 4.4 20.6 14.9 22.8 10.4 2.2 20.6-4.5 22.8-14.9 2.1-10.3-4.5-20.6-14.9-22.7zm8 21.3c-1.4 6.6-8 10.8-14.5 9.4-6.6-1.4-10.8-7.8-9.5-14.4.7 1.4 2 2.4 3.7 2.8 2.8.6 5.5-1.2 6.1-4 .6-2.9-1.2-5.7-4-6.3l-.8-.2c2.7-1.8 6-2.7 9.5-1.9 6.5 1.5 10.9 8 9.5 14.6zM96.8 73.8c-7.4-1.6-14.6 3.2-16.1 10.6-1.5 7.4 3.1 14.5 10.5 16.1 7.4 1.6 14.7-3.1 16.2-10.5 1.6-7.3-3.2-14.6-10.6-16.2zm6.3 15.4c-1 5-5.9 8.1-10.9 7-5-1-8.1-5.9-7.1-10.8.5 1.1 1.5 1.9 2.7 2.2 2.2.5 4.4-1 4.8-3.1.4-2.1-1-4.2-3.2-4.7-.2-.1-.4-.1-.6 0 2-1.5 4.6-2.1 7.1-1.5 5.1 1 8.2 5.8 7.2 10.9z"/><path fill="#25292B" d="M40.2 85.6c-3.5-.7-6.8.1-9.5 1.9l.8.2c2.8.6 4.6 3.4 4 6.3-.6 2.8-3.4 4.6-6.1 4-1.7-.4-3-1.4-3.7-2.8-1.4 6.5 2.8 13 9.5 14.4 6.5 1.4 13.1-2.8 14.5-9.4 1.4-6.7-3-13.2-9.5-14.6zM95.9 78.2c-2.5-.5-5.2 0-7.1 1.5.3-.1.4 0 .6 0 2.2.5 3.6 2.6 3.2 4.7-.5 2.2-2.6 3.6-4.8 3.1-1.2-.3-2.2-1.1-2.7-2.2-1 5 2.1 9.8 7.1 10.8 5.1 1.1 9.9-2.1 10.9-7 1-5-2.1-9.8-7.2-10.9z"/><path fill="#EA8023" d="M17.7 102.8c-.7-3.1-.8-6.2-.1-9.5C19.9 82.2 30.8 75.1 42 77.4c6.3 1.3 11.3 5.4 14 10.8 1.8-1.8 3.3-3.6 4.9-5.8-3.8-5.9-9.9-10.3-17.4-11.9-15-3.2-29.7 6.4-32.9 21.3-.7 3.4-.7 6.9-.3 10.2.1.1 2.9.7 7.4.8zM74.1 83.3c-.5 2.5-.6 5.1-.2 7.5 0 0 2.2.5 5.5.7-.7-2.3-.7-4.7-.1-7.1 1.7-8.2 9.8-13.5 18-11.7 4.6 1 8.4 4 10.3 8 1.3-1.2 2.5-2.8 3.7-4.3-2.9-4.4-7.4-7.6-12.9-8.8-11.1-2.3-21.9 4.7-24.3 15.7z"/><path fill="#E96026" d="M79.2 124.1c3.7-2.3 6.6-5.7 8-9.7.4-1.2-.2-2.4-1.5-2.8-1.2-.4-2.6.3-3 1.5-1.5 4.1-5 7.4-9.3 8.8-4.3 1.4-9.1.7-12.7-1.7-1-.7-2.5-.5-3.3.5-.8 1-.6 2.4.4 3.1 3 2.1 6.7 3.2 10.4 3.3 2.2 0 4.4-.3 6.5-1 1.6-.4 3.1-1.1 4.5-2z"/></svg>