<svg xmlns:xlink="http://www.w3.org/1999/xlink"  xmlns="http://www.w3.org/2000/svg" viewBox="0 0 1500 1500"><path fill="#0193D7" d="M619.6 718.5V376.2c0-45.7 17.8-88.7 50.2-121 32.3-32.3 75.3-50.1 121-50.1 94.4 0 171.2 76.8 171.2 171.2v342.3h114.1V376.2c0-157.3-128-285.2-285.3-285.2-76.2 0-147.8 29.7-201.7 83.6-53.9 53.9-83.6 125.5-83.6 201.7v342.3h114.1z"/><path fill="#006DB6" d="M395.4 668.4h780.7v180.2H395.4z"/><path fill="#0193D7" d="M395.4 948.7h780.7v180.2H395.4z"/><path fill="#006DB6" d="M395.4 1228.9h780.7V1409H395.4z"/><path opacity=".51" fill="#006DB6" d="M505.5 718.5h114.1V600.3H505.5v118.2zM962 600.3v118.2h114.1V600.3H962z"/><path opacity=".55" fill="#FFF" d="M704.6 1255.4c-9.9 0-17 8.9-17 25.3.1 16.1 6.7 25 16.2 25h.1c10.6 0 16.8-9.1 16.8-25.7 0-15.5-5.9-24.6-16.1-24.6zm-.5 45.2c-6.1 0-10-7.6-9.9-20.3 0-12.2 3.9-19.8 9.9-19.8 6.9 0 9.9 7.9 9.9 19.8 0 12.4-3.2 20.3-9.9 20.3zM397.7 695.9c-.8 0-1.5.1-2.3.3v5.1c.6-.1 1.1-.3 1.7-.3 6.9 0 9.9 7.8 9.9 19.8 0 12.4-3.2 20.3-9.9 20.3h-.1c-.6 0-1.1-.1-1.7-.3v5.2c.5.1.9.2 1.4.2h.1c10.6 0 16.8-9.1 16.8-25.6.2-15.6-5.7-24.7-15.9-24.7zm333.4 650.5l1.3 5 8.5-4.6h.1v42.5h6.4v-48.6h-5.6l-10.7 5.7zm50.2-6.5c-9.9 0-17 8.9-17 25.3.2 16.1 6.7 25 16.2 25h.1c10.6 0 16.8-9.1 16.8-25.7 0-15.5-5.9-24.6-16.1-24.6zm-.5 45.1c-6.1 0-10-7.6-9.9-20.3 0-12.2 3.9-19.8 9.9-19.8 6.9 0 9.9 7.9 9.9 19.8 0 12.5-3.2 20.3-9.9 20.3zM500.9 702.4l1.3 5 8.4-4.6h.2v42.5h6.4v-48.6h-5.6l-10.7 5.7zm280.4 553c-9.9 0-17 8.9-17 25.3.2 16.1 6.7 25 16.2 25h.1c10.6 0 16.8-9.1 16.8-25.7 0-15.5-5.9-24.6-16.1-24.6zm-.5 45.2c-6.1 0-10-7.6-9.9-20.3 0-12.2 3.9-19.8 9.9-19.8 6.9 0 9.9 7.9 9.9 19.8 0 12.4-3.2 20.3-9.9 20.3zm-49.7-38.7l1.3 5 8.5-4.6h.1v42.5h6.4v-48.6h-5.6l-10.7 5.7zm127 78c-9.9 0-17 8.9-17 25.3.2 16.1 6.7 25 16.2 25h.1c10.6 0 16.8-9.1 16.8-25.7-.1-15.5-6-24.6-16.1-24.6zm-.6 45.1c-6.1 0-10-7.6-9.9-20.3 0-12.2 3.9-19.8 9.9-19.8 6.9 0 9.9 7.9 9.9 19.8 0 12.5-3.2 20.3-9.9 20.3zm103.8-598.1l1.3 5 8.4-4.6h.1v42.5h6.4v-48.6h-5.6l-10.6 5.7zm-103.2 468.5c-9.9 0-17 8.9-17 25.3.2 16.1 6.7 25 16.2 25h.1c10.6 0 16.8-9.1 16.8-25.7-.1-15.5-6-24.6-16.1-24.6zm-.6 45.2c-6.1 0-10-7.6-9.9-20.3 0-12.2 3.9-19.8 9.9-19.8 6.9 0 9.9 7.9 9.9 19.8 0 12.4-3.2 20.3-9.9 20.3zm307.5 39.3c-9.9 0-17 8.9-17 25.3.2 16.1 6.7 25 16.2 25h.1c5.1 0 9.1-2.1 11.9-6.1v-38.5c-2.8-3.7-6.5-5.7-11.2-5.7zm-.5 45.1c-6.1 0-10-7.6-9.9-20.3 0-12.2 3.9-19.8 9.9-19.8 6.9 0 9.9 7.9 9.9 19.8-.1 12.5-3.3 20.3-9.9 20.3zm-280-123.1l1.3 5 8.4-4.6h.1v42.5h6.4v-48.6h-5.6l-10.6 5.7zm-76.7 0l1.3 5 8.4-4.6h.2v42.5h6.4v-48.6h-5.6l-10.7 5.7zm-410.1 78c-.8 0-1.5.1-2.3.3v5.1c.6-.1 1.1-.3 1.7-.3 6.9 0 9.9 7.9 9.9 19.8 0 12.4-3.2 20.3-9.9 20.3h-.1c-.6 0-1.1-.1-1.7-.3v5.2c.5.1.9.2 1.4.2h.1c10.6 0 16.8-9.1 16.8-25.7.2-15.5-5.7-24.6-15.9-24.6zm179.9-637.5l1.3 5 8.4-4.6h.1v42.5h6.4v-48.6h-5.6l-10.6 5.7zm230.2 644l1.3 5 8.4-4.6h.2v42.5h6.4v-48.6h-5.6l-10.7 5.7zM627.9 695.9c-9.9 0-17 8.9-17 25.3.1 16.1 6.7 25 16.2 25h.1c10.6 0 16.8-9.1 16.8-25.6 0-15.6-5.9-24.7-16.1-24.7zm-.5 45.2c-6.1 0-10-7.6-9.9-20.3 0-12.2 3.9-19.8 9.9-19.8 6.9 0 9.9 7.8 9.9 19.8-.1 12.4-3.3 20.3-9.9 20.3zm-76.2 514.3c-9.9 0-17 8.9-17 25.3.1 16.1 6.7 25 16.2 25h.1c10.6 0 16.8-9.1 16.8-25.7-.1-15.5-6-24.6-16.1-24.6zm-.6 45.2c-6.1 0-10-7.6-9.9-20.3 0-12.2 3.9-19.8 9.9-19.8 6.9 0 9.9 7.9 9.9 19.8 0 12.4-3.2 20.3-9.9 20.3zm154 39.3c-9.9 0-17 8.9-17 25.3.1 16.1 6.7 25 16.2 25h.1c10.6 0 16.8-9.1 16.8-25.7 0-15.5-5.9-24.6-16.1-24.6zm-.5 45.1c-6.1 0-10-7.6-9.9-20.3 0-12.2 3.9-19.8 9.9-19.8 6.9 0 9.9 7.9 9.9 19.8 0 12.5-3.2 20.3-9.9 20.3zm-152.9-45.1c-9.9 0-17 8.9-17 25.3.1 16.1 6.7 25 16.2 25h.1c10.6 0 16.8-9.1 16.8-25.7-.1-15.5-6-24.6-16.1-24.6zm-.6 45.1c-6.1 0-10-7.6-9.9-20.3 0-12.2 3.9-19.8 9.9-19.8 6.9 0 9.9 7.9 9.9 19.8 0 12.5-3.2 20.3-9.9 20.3zm27-123.1l1.3 5 8.4-4.6h.1v42.5h6.4v-48.6h-5.6l-10.6 5.7zm-76.7 0l1.3 5 8.4-4.6h.2v42.5h6.4v-48.6h-5.6l-10.7 5.7zm0 84.5l1.3 5 8.4-4.6h.2v42.5h6.4v-48.6h-5.6l-10.7 5.7zm0-559.5l1.3 5 8.4-4.6h.2v42.5h6.4v-48.6h-5.6l-10.7 5.7zm153.5 475l1.3 5 8.5-4.6h.1v42.5h6.4v-48.6H665l-10.6 5.7zm-76.8 84.5l1.3 5 8.4-4.6h.1v42.5h6.4v-48.6h-5.6l-10.6 5.7zm383.7-644l1.3 5 8.4-4.6h.1v42.5h6.4v-48.6h-5.6l-10.6 5.7zm-306.9 644l1.3 5 8.5-4.6h.1v42.5h6.4v-48.6H665l-10.6 5.7zm-26.5-6.5c-9.9 0-17 8.9-17 25.3.1 16.1 6.7 25 16.2 25h.1c10.6 0 16.8-9.1 16.8-25.7 0-15.5-5.9-24.6-16.1-24.6zm-.5 45.1c-6.1 0-10-7.6-9.9-20.3 0-12.2 3.9-19.8 9.9-19.8 6.9 0 9.9 7.9 9.9 19.8-.1 12.5-3.3 20.3-9.9 20.3zm.5-604.6c-9.9 0-17 8.9-17 25.3.1 16.1 6.7 25 16.2 25h.1c10.6 0 16.8-9.1 16.8-25.7 0-15.5-5.9-24.6-16.1-24.6zm-.5 45.1c-6.1 0-10-7.6-9.9-20.3 0-12.2 3.9-19.8 9.9-19.8 6.9 0 9.9 7.9 9.9 19.8-.1 12.5-3.3 20.3-9.9 20.3zm.5 429.9c-9.9 0-17 8.9-17 25.3.1 16.1 6.7 25 16.2 25h.1c10.6 0 16.8-9.1 16.8-25.7 0-15.5-5.9-24.6-16.1-24.6zm-.5 45.2c-6.1 0-10-7.6-9.9-20.3 0-12.2 3.9-19.8 9.9-19.8 6.9 0 9.9 7.9 9.9 19.8-.1 12.4-3.3 20.3-9.9 20.3zM1165 695.9c-9.9 0-17 8.9-17 25.3.2 16.1 6.7 25 16.2 25h.1c5.1 0 9.1-2.1 11.9-6v-38.5c-2.8-3.8-6.5-5.8-11.2-5.8zm-.5 45.2c-6.1 0-10-7.6-9.9-20.3 0-12.2 3.9-19.8 9.9-19.8 6.9 0 9.9 7.8 9.9 19.8-.1 12.4-3.3 20.3-9.9 20.3zm-613.3-45.2c-9.9 0-17 8.9-17 25.3.1 16.1 6.7 25 16.2 25h.1c10.6 0 16.8-9.1 16.8-25.6-.1-15.6-6-24.7-16.1-24.7zm-.6 45.2c-6.1 0-10-7.6-9.9-20.3 0-12.2 3.9-19.8 9.9-19.8 6.9 0 9.9 7.8 9.9 19.8 0 12.4-3.2 20.3-9.9 20.3zM1165 970.4c-9.9 0-17 8.9-17 25.3.2 16.1 6.7 25 16.2 25h.1c5.1 0 9.1-2.1 11.9-6.1v-38.5c-2.8-3.7-6.5-5.7-11.2-5.7zm-.5 45.2c-6.1 0-10-7.6-9.9-20.3 0-12.2 3.9-19.8 9.9-19.8 6.9 0 9.9 7.9 9.9 19.8-.1 12.4-3.3 20.3-9.9 20.3zm.5-235.2c-9.9 0-17 8.9-17 25.3.2 16.1 6.7 25 16.2 25h.1c5.1 0 9.1-2.1 11.9-6.1V786c-2.8-3.6-6.5-5.6-11.2-5.6zm-.5 45.1c-6.1 0-10-7.6-9.9-20.3 0-12.2 3.9-19.8 9.9-19.8 6.9 0 9.9 7.9 9.9 19.8-.1 12.5-3.3 20.3-9.9 20.3zm-153-45.1c-9.9 0-17 8.9-17 25.3.2 16.1 6.7 25 16.2 25h.1c10.6 0 16.8-9.1 16.8-25.7 0-15.5-5.9-24.6-16.1-24.6zm-.5 45.1c-6.1 0-10-7.6-9.9-20.3 0-12.2 3.9-19.8 9.9-19.8 6.9 0 9.9 7.9 9.9 19.8 0 12.5-3.2 20.3-9.9 20.3zm27-123.1l1.3 5 8.5-4.6h.1v42.5h6.4v-48.6h-5.6l-10.7 5.7zm76.7 559.5l1.3 5 8.4-4.6h.1v42.5h6.4v-48.6h-5.6l-10.6 5.7zm0 84.5l1.3 5 8.4-4.6h.1v42.5h6.4v-48.6h-5.6l-10.6 5.7zm-103.2-650.5c-9.9 0-17 8.9-17 25.3.2 16.1 6.7 25 16.2 25h.1c10.6 0 16.8-9.1 16.8-25.6 0-15.6-5.9-24.7-16.1-24.7zm-.5 45.2c-6.1 0-10-7.6-9.9-20.3 0-12.2 3.9-19.8 9.9-19.8 6.9 0 9.9 7.8 9.9 19.8 0 12.4-3.2 20.3-9.9 20.3zm103.7-38.7l1.3 5 8.4-4.6h.1v42.5h6.4v-48.6h-5.6l-10.6 5.7zm-76.7 84.5l1.3 5 8.5-4.6h.1v42.5h6.4v-48.6h-5.6l-10.7 5.7zm76.7 0l1.3 5 8.4-4.6h.1v42.5h6.4v-48.6h-5.6l-10.6 5.7zm-640.3-91c-9.9 0-17 8.9-17 25.3.2 16.1 6.7 25 16.2 25h.1c10.6 0 16.8-9.1 16.8-25.6 0-15.6-5.9-24.7-16.1-24.7zm-.5 45.2c-6.1 0-10-7.6-9.9-20.3 0-12.2 3.9-19.8 9.9-19.8 6.9 0 9.9 7.8 9.9 19.8 0 12.4-3.2 20.3-9.9 20.3zm614.4-45.2c-9.9 0-17 8.9-17 25.3.1 16.1 6.7 25 16.2 25h.1c10.6 0 16.8-9.1 16.8-25.6-.1-15.6-6-24.7-16.1-24.7zm-.6 45.2c-6.1 0-10-7.6-9.9-20.3 0-12.2 3.9-19.8 9.9-19.8 6.9 0 9.9 7.8 9.9 19.8 0 12.4-3.2 20.3-9.9 20.3zm.6 39.3c-9.9 0-17 8.9-17 25.3.1 16.1 6.7 25 16.2 25h.1c10.6 0 16.8-9.1 16.8-25.7-.1-15.5-6-24.6-16.1-24.6zm-.6 45.1c-6.1 0-10-7.6-9.9-20.3 0-12.2 3.9-19.8 9.9-19.8 6.9 0 9.9 7.9 9.9 19.8 0 12.5-3.2 20.3-9.9 20.3zm-203.2 520.9l1.3 5 8.4-4.6h.1v42.5h6.4v-48.6h-5.6l-10.6 5.7zM577.6 786.9l1.3 5 8.4-4.6h.1v42.5h6.4v-48.6h-5.6l-10.6 5.7zm383.7 559.5l1.3 5 8.4-4.6h.1v42.5h6.4v-48.6h-5.6l-10.6 5.7zm0-84.5l1.3 5 8.4-4.6h.1v42.5h6.4v-48.6h-5.6l-10.6 5.7zm50.2 78c-9.9 0-17 8.9-17 25.3.2 16.1 6.7 25 16.2 25h.1c10.6 0 16.8-9.1 16.8-25.7 0-15.5-5.9-24.6-16.1-24.6zm-.5 45.1c-6.1 0-10-7.6-9.9-20.3 0-12.2 3.9-19.8 9.9-19.8 6.9 0 9.9 7.9 9.9 19.8 0 12.5-3.2 20.3-9.9 20.3zm-76.2-45.1c-9.9 0-17 8.9-17 25.3.1 16.1 6.7 25 16.2 25h.1c10.6 0 16.8-9.1 16.8-25.7 0-15.5-5.9-24.6-16.1-24.6zm-.5 45.1c-6.1 0-10-7.6-9.9-20.3 0-12.2 3.9-19.8 9.9-19.8 6.9 0 9.9 7.9 9.9 19.8 0 12.5-3.3 20.3-9.9 20.3zm230.7-129.6c-9.9 0-17 8.9-17 25.3.2 16.1 6.7 25 16.2 25h.1c5.1 0 9.1-2.1 11.9-6.1v-38.5c-2.8-3.6-6.5-5.7-11.2-5.7zm-.5 45.2c-6.1 0-10-7.6-9.9-20.3 0-12.2 3.9-19.8 9.9-19.8 6.9 0 9.9 7.9 9.9 19.8-.1 12.4-3.3 20.3-9.9 20.3zm-76.2-45.2c-9.9 0-17 8.9-17 25.3.1 16.1 6.7 25 16.2 25h.1c10.6 0 16.8-9.1 16.8-25.7-.1-15.5-6-24.6-16.1-24.6zm-.6 45.2c-6.1 0-10-7.6-9.9-20.3 0-12.2 3.9-19.8 9.9-19.8 6.9 0 9.9 7.9 9.9 19.8 0 12.4-3.2 20.3-9.9 20.3zm-152.9-45.2c-9.9 0-17 8.9-17 25.3.1 16.1 6.7 25 16.2 25h.1c10.6 0 16.8-9.1 16.8-25.7 0-15.5-5.9-24.6-16.1-24.6zm-.5 45.2c-6.1 0-10-7.6-9.9-20.3 0-12.2 3.9-19.8 9.9-19.8 6.9 0 9.9 7.9 9.9 19.8 0 12.4-3.3 20.3-9.9 20.3zM551.2 780.4c-9.9 0-17 8.9-17 25.3.1 16.1 6.7 25 16.2 25h.1c10.6 0 16.8-9.1 16.8-25.7-.1-15.5-6-24.6-16.1-24.6zm-.6 45.1c-6.1 0-10-7.6-9.9-20.3 0-12.2 3.9-19.8 9.9-19.8 6.9 0 9.9 7.9 9.9 19.8 0 12.5-3.2 20.3-9.9 20.3zm537.7 514.4c-9.9 0-17 8.9-17 25.3.1 16.1 6.7 25 16.2 25h.1c10.6 0 16.8-9.1 16.8-25.7-.1-15.5-6-24.6-16.1-24.6zm-.6 45.1c-6.1 0-10-7.6-9.9-20.3 0-12.2 3.9-19.8 9.9-19.8 6.9 0 9.9 7.9 9.9 19.8 0 12.5-3.2 20.3-9.9 20.3zM934.8 695.9c-9.9 0-17 8.9-17 25.3.1 16.1 6.7 25 16.2 25h.1c10.6 0 16.8-9.1 16.8-25.6 0-15.6-5.9-24.7-16.1-24.7zm-.5 45.2c-6.1 0-10-7.6-9.9-20.3 0-12.2 3.9-19.8 9.9-19.8 6.9 0 9.9 7.8 9.9 19.8 0 12.4-3.3 20.3-9.9 20.3zm103.7 605.3l1.3 5 8.5-4.6h.1v42.5h6.4v-48.6h-5.6l-10.7 5.7zm0-84.5l1.3 5 8.5-4.6h.1v42.5h6.4v-48.6h-5.6l-10.7 5.7zm-26.5-6.5c-9.9 0-17 8.9-17 25.3.2 16.1 6.7 25 16.2 25h.1c10.6 0 16.8-9.1 16.8-25.7 0-15.5-5.9-24.6-16.1-24.6zm-.5 45.2c-6.1 0-10-7.6-9.9-20.3 0-12.2 3.9-19.8 9.9-19.8 6.9 0 9.9 7.9 9.9 19.8 0 12.4-3.2 20.3-9.9 20.3zm154-245.8c-9.9 0-17 8.9-17 25.3.2 16.1 6.7 25 16.2 25h.1c5.1 0 9.1-2.1 11.9-6.1v-38.5c-2.8-3.6-6.5-5.7-11.2-5.7zm-.5 45.2c-6.1 0-10-7.6-9.9-20.3 0-12.2 3.9-19.8 9.9-19.8 6.9 0 9.9 7.9 9.9 19.8-.1 12.4-3.3 20.3-9.9 20.3zM474.4 970.4c-9.9 0-17 8.9-17 25.3.2 16.1 6.7 25 16.2 25h.1c10.6 0 16.8-9.1 16.8-25.7 0-15.5-5.9-24.6-16.1-24.6zm-.5 45.2c-6.1 0-10-7.6-9.9-20.3 0-12.2 3.9-19.8 9.9-19.8 6.9 0 9.9 7.9 9.9 19.8 0 12.4-3.2 20.3-9.9 20.3zm333.9-313.2l1.3 5 8.4-4.6h.2v42.5h6.4v-48.6h-5.6l-10.7 5.7zm50.3 268c-9.9 0-17 8.9-17 25.3.2 16.1 6.7 25 16.2 25h.1c10.6 0 16.8-9.1 16.8-25.7-.1-15.5-6-24.6-16.1-24.6zm-.6 45.2c-6.1 0-10-7.6-9.9-20.3 0-12.2 3.9-19.8 9.9-19.8 6.9 0 9.9 7.9 9.9 19.8 0 12.4-3.2 20.3-9.9 20.3zm-383.1 239.8c-9.9 0-17 8.9-17 25.3.2 16.1 6.7 25 16.2 25h.1c10.6 0 16.8-9.1 16.8-25.7 0-15.5-5.9-24.6-16.1-24.6zm-.5 45.2c-6.1 0-10-7.6-9.9-20.3 0-12.2 3.9-19.8 9.9-19.8 6.9 0 9.9 7.9 9.9 19.8 0 12.4-3.2 20.3-9.9 20.3zm-49.7-513.7l1.3 5 8.5-4.6h.1v42.5h6.4v-48.6h-5.6l-10.7 5.7zm383.6 0l1.3 5 8.4-4.6h.2v42.5h6.4v-48.6h-5.6l-10.7 5.7zm76.7 190l1.3 5 8.4-4.6h.1v42.5h6.4v-48.6h-5.6l-10.6 5.7zm0 84.4l1.3 5 8.4-4.6h.1v42.5h6.4v-48.6h-5.6l-10.6 5.7zm-103.2-6.5c-9.9 0-17 8.9-17 25.3.2 16.1 6.7 25 16.2 25h.1c10.6 0 16.8-9.1 16.8-25.7 0-15.4-5.9-24.6-16.1-24.6zm-.5 45.2c-6.1 0-10-7.6-9.9-20.3 0-12.2 3.9-19.8 9.9-19.8 6.9 0 9.9 7.9 9.9 19.8 0 12.4-3.2 20.3-9.9 20.3zm154-45.2c-9.9 0-17 8.9-17 25.3.1 16.1 6.7 25 16.2 25h.1c10.6 0 16.8-9.1 16.8-25.7 0-15.4-5.9-24.6-16.1-24.6zm-.5 45.2c-6.1 0-10-7.6-9.9-20.3 0-12.2 3.9-19.8 9.9-19.8 6.9 0 9.9 7.9 9.9 19.8 0 12.4-3.3 20.3-9.9 20.3zm-49.8-313.1l1.3 5 8.4-4.6h.1v42.5h6.4v-48.6h-5.6l-10.6 5.7zm-153.4 274.4l1.3 5 8.5-4.6h.1v42.5h6.4v-48.6h-5.6l-10.7 5.7zm76.7 0l1.3 5 8.4-4.6h.2v42.5h6.4v-48.6h-5.6l-10.7 5.7zm0-84.4l1.3 5 8.4-4.6h.2v42.5h6.4v-48.6h-5.6l-10.7 5.7zm-26.5-281c-9.9 0-17 8.9-17 25.3.2 16.1 6.7 25 16.2 25h.1c10.6 0 16.8-9.1 16.8-25.6 0-15.6-5.9-24.7-16.1-24.7zm-.5 45.2c-6.1 0-10-7.6-9.9-20.3 0-12.2 3.9-19.8 9.9-19.8 6.9 0 9.9 7.8 9.9 19.8 0 12.4-3.2 20.3-9.9 20.3zm.5 229.3c-9.9 0-17 8.9-17 25.3.2 16.1 6.7 25 16.2 25h.1c10.6 0 16.8-9.1 16.8-25.7 0-15.5-5.9-24.6-16.1-24.6zm-.5 45.2c-6.1 0-10-7.6-9.9-20.3 0-12.2 3.9-19.8 9.9-19.8 6.9 0 9.9 7.9 9.9 19.8 0 12.4-3.2 20.3-9.9 20.3zm77.3-319.7c-9.9 0-17 8.9-17 25.3.2 16.1 6.7 25 16.2 25h.1c10.6 0 16.8-9.1 16.8-25.6-.1-15.6-6-24.7-16.1-24.7zm-.6 45.2c-6.1 0-10-7.6-9.9-20.3 0-12.2 3.9-19.8 9.9-19.8 6.9 0 9.9 7.8 9.9 19.8 0 12.4-3.2 20.3-9.9 20.3zm-459.8 39.3c-.8 0-1.5.2-2.3.3v5.1c.6-.1 1.1-.3 1.7-.3 6.9 0 9.9 7.9 9.9 19.8 0 12.4-3.2 20.3-9.9 20.3h-.1c-.6 0-1.1-.1-1.7-.3v5.2c.5.1.9.2 1.4.2h.1c10.6 0 16.8-9.1 16.8-25.7.2-15.5-5.7-24.6-15.9-24.6zm690.6 274.4c-9.9 0-17 8.9-17 25.3.1 16.1 6.7 25 16.2 25h.1c10.6 0 16.8-9.1 16.8-25.7-.1-15.4-6-24.6-16.1-24.6zm-.6 45.2c-6.1 0-10-7.6-9.9-20.3 0-12.2 3.9-19.8 9.9-19.8 6.9 0 9.9 7.9 9.9 19.8 0 12.4-3.2 20.3-9.9 20.3zm-49.7-38.7l1.3 5 8.5-4.6h.1v42.5h6.4v-48.6h-5.6l-10.7 5.7zm76.7 0l1.3 5 8.4-4.6h.1v42.5h6.4v-48.6h-5.6l-10.6 5.7zM884.5 702.4l1.3 5 8.4-4.6h.1v42.5h6.4v-48.6h-5.6l-10.6 5.7zM1038 976.9l1.3 5 8.5-4.6h.1v42.5h6.4v-48.6h-5.6l-10.7 5.7zM858.1 780.4c-9.9 0-17 8.9-17 25.3.2 16.1 6.7 25 16.2 25h.1c10.6 0 16.8-9.1 16.8-25.7-.1-15.5-6-24.6-16.1-24.6zm-.6 45.1c-6.1 0-10-7.6-9.9-20.3 0-12.2 3.9-19.8 9.9-19.8 6.9 0 9.9 7.9 9.9 19.8 0 12.5-3.2 20.3-9.9 20.3zm230.8 144.9c-9.9 0-17 8.9-17 25.3.1 16.1 6.7 25 16.2 25h.1c10.6 0 16.8-9.1 16.8-25.7-.1-15.5-6-24.6-16.1-24.6zm-.6 45.2c-6.1 0-10-7.6-9.9-20.3 0-12.2 3.9-19.8 9.9-19.8 6.9 0 9.9 7.9 9.9 19.8 0 12.4-3.2 20.3-9.9 20.3zm-126.4 45.7l1.3 5 8.4-4.6h.1v42.5h6.4v-48.6h-5.6l-10.6 5.7zm0-84.4l1.3 5 8.4-4.6h.1v42.5h6.4v-48.6h-5.6l-10.6 5.7zm-26.5-6.5c-9.9 0-17 8.9-17 25.3.1 16.1 6.7 25 16.2 25h.1c10.6 0 16.8-9.1 16.8-25.7 0-15.5-5.9-24.6-16.1-24.6zm-.5 45.2c-6.1 0-10-7.6-9.9-20.3 0-12.2 3.9-19.8 9.9-19.8 6.9 0 9.9 7.9 9.9 19.8 0 12.4-3.3 20.3-9.9 20.3zM424.2 702.4l1.3 5 8.5-4.6h.1v42.5h6.4v-48.6h-5.6l-10.7 5.7zm306.9 274.5l1.3 5 8.5-4.6h.1v42.5h6.4v-48.6h-5.6l-10.7 5.7zm280.4-6.5c-9.9 0-17 8.9-17 25.3.2 16.1 6.7 25 16.2 25h.1c10.6 0 16.8-9.1 16.8-25.7 0-15.5-5.9-24.6-16.1-24.6zm-.5 45.2c-6.1 0-10-7.6-9.9-20.3 0-12.2 3.9-19.8 9.9-19.8 6.9 0 9.9 7.9 9.9 19.8 0 12.4-3.2 20.3-9.9 20.3zm.5 39.2c-9.9 0-17 8.9-17 25.3.2 16.1 6.7 25 16.2 25h.1c10.6 0 16.8-9.1 16.8-25.7 0-15.4-5.9-24.6-16.1-24.6zm-.5 45.2c-6.1 0-10-7.6-9.9-20.3 0-12.2 3.9-19.8 9.9-19.8 6.9 0 9.9 7.9 9.9 19.8 0 12.4-3.2 20.3-9.9 20.3zm-152.9-45.2c-9.9 0-17 8.9-17 25.3.2 16.1 6.7 25 16.2 25h.1c10.6 0 16.8-9.1 16.8-25.7-.1-15.4-6-24.6-16.1-24.6zm-.6 45.2c-6.1 0-10-7.6-9.9-20.3 0-12.2 3.9-19.8 9.9-19.8 6.9 0 9.9 7.9 9.9 19.8 0 12.4-3.2 20.3-9.9 20.3zM654.4 786.9l1.3 5 8.5-4.6h.1v42.5h6.4v-48.6H665l-10.6 5.7zm-230.2 274.4l1.3 5 8.5-4.6h.1v42.5h6.4v-48.6h-5.6l-10.7 5.7zm50.2-6.5c-9.9 0-17 8.9-17 25.3.2 16.1 6.7 25 16.2 25h.1c10.6 0 16.8-9.1 16.8-25.7 0-15.4-5.9-24.6-16.1-24.6zm-.5 45.2c-6.1 0-10-7.6-9.9-20.3 0-12.2 3.9-19.8 9.9-19.8 6.9 0 9.9 7.9 9.9 19.8 0 12.4-3.2 20.3-9.9 20.3zm27-38.7l1.3 5 8.4-4.6h.2v42.5h6.4v-48.6h-5.6l-10.7 5.7zm0-84.4l1.3 5 8.4-4.6h.2v42.5h6.4v-48.6h-5.6l-10.7 5.7zm613.8 0l1.3 5 8.4-4.6h.1v42.5h6.4v-48.6h-5.6l-10.6 5.7zM704.6 780.4c-9.9 0-17 8.9-17 25.3.1 16.1 6.7 25 16.2 25h.1c10.6 0 16.8-9.1 16.8-25.7 0-15.5-5.9-24.6-16.1-24.6zm-.5 45.1c-6.1 0-10-7.6-9.9-20.3 0-12.2 3.9-19.8 9.9-19.8 6.9 0 9.9 7.9 9.9 19.8 0 12.5-3.2 20.3-9.9 20.3zM424.2 976.9l1.3 5 8.5-4.6h.1v42.5h6.4v-48.6h-5.6l-10.7 5.7zm0 369.5l1.3 5 8.5-4.6h.1v42.5h6.4v-48.6h-5.6l-10.7 5.7zm50.2-6.5c-9.9 0-17 8.9-17 25.3.2 16.1 6.7 25 16.2 25h.1c10.6 0 16.8-9.1 16.8-25.7 0-15.5-5.9-24.6-16.1-24.6zm-.5 45.1c-6.1 0-10-7.6-9.9-20.3 0-12.2 3.9-19.8 9.9-19.8 6.9 0 9.9 7.9 9.9 19.8 0 12.5-3.2 20.3-9.9 20.3zm180.5-682.6l1.3 5 8.5-4.6h.1v42.5h6.4v-48.6H665l-10.6 5.7zm-256.7 553c-.8 0-1.5.1-2.3.3v5.1c.6-.1 1.1-.3 1.7-.3 6.9 0 9.9 7.9 9.9 19.8 0 12.4-3.2 20.3-9.9 20.3h-.1c-.6 0-1.1-.1-1.7-.3v5.2c.5.1.9.2 1.4.2h.1c10.6 0 16.8-9.1 16.8-25.7.2-15.5-5.7-24.6-15.9-24.6zm26.5 6.5l1.3 5 8.5-4.6h.1v42.5h6.4v-48.6h-5.6l-10.7 5.7zm-26.5-207.1c-.8 0-1.5.2-2.3.3v5.1c.6-.2 1.1-.3 1.7-.3 6.9 0 9.9 7.9 9.9 19.8 0 12.4-3.2 20.3-9.9 20.3h-.1c-.6 0-1.1-.1-1.7-.3v5.2c.5.1.9.2 1.4.2h.1c10.6 0 16.8-9.1 16.8-25.7.2-15.4-5.7-24.6-15.9-24.6zm0-84.4c-.8 0-1.5.2-2.3.3v5.1c.6-.2 1.1-.3 1.7-.3 6.9 0 9.9 7.9 9.9 19.8 0 12.4-3.2 20.3-9.9 20.3h-.1c-.6 0-1.1-.1-1.7-.3v5.2c.5.1.9.2 1.4.2h.1c10.6 0 16.8-9.1 16.8-25.7.2-15.5-5.7-24.6-15.9-24.6zm383.6-190c-9.9 0-17 8.9-17 25.3.2 16.1 6.7 25 16.2 25h.1c10.6 0 16.8-9.1 16.8-25.7 0-15.5-5.9-24.6-16.1-24.6zm-.5 45.1c-6.1 0-10-7.6-9.9-20.3 0-12.2 3.9-19.8 9.9-19.8 6.9 0 9.9 7.9 9.9 19.8 0 12.5-3.2 20.3-9.9 20.3zM654.4 976.9l1.3 5 8.5-4.6h.1v42.5h6.4v-48.6H665l-10.6 5.7zm0 84.4l1.3 5 8.5-4.6h.1v42.5h6.4v-48.6H665l-10.6 5.7zm-26.5-90.9c-9.9 0-17 8.9-17 25.3.1 16.1 6.7 25 16.2 25h.1c10.6 0 16.8-9.1 16.8-25.7 0-15.5-5.9-24.6-16.1-24.6zm-.5 45.2c-6.1 0-10-7.6-9.9-20.3 0-12.2 3.9-19.8 9.9-19.8 6.9 0 9.9 7.9 9.9 19.8-.1 12.4-3.3 20.3-9.9 20.3zm103.7-228.7l1.3 5 8.5-4.6h.1v42.5h6.4v-48.6h-5.6l-10.7 5.7zm0-84.5l1.3 5 8.5-4.6h.1v42.5h6.4v-48.6h-5.6l-10.7 5.7zm-26.5 268c-9.9 0-17 8.9-17 25.3.1 16.1 6.7 25 16.2 25h.1c10.6 0 16.8-9.1 16.8-25.7 0-15.5-5.9-24.6-16.1-24.6zm-.5 45.2c-6.1 0-10-7.6-9.9-20.3 0-12.2 3.9-19.8 9.9-19.8 6.9 0 9.9 7.9 9.9 19.8 0 12.4-3.2 20.3-9.9 20.3zm.5 39.2c-9.9 0-17 8.9-17 25.3.1 16.1 6.7 25 16.2 25h.1c10.6 0 16.8-9.1 16.8-25.7 0-15.4-5.9-24.6-16.1-24.6zm-.5 45.2c-6.1 0-10-7.6-9.9-20.3 0-12.2 3.9-19.8 9.9-19.8 6.9 0 9.9 7.9 9.9 19.8 0 12.4-3.2 20.3-9.9 20.3zm-152.9-45.2c-9.9 0-17 8.9-17 25.3.1 16.1 6.7 25 16.2 25h.1c10.6 0 16.8-9.1 16.8-25.7-.1-15.4-6-24.6-16.1-24.6zm-.6 45.2c-6.1 0-10-7.6-9.9-20.3 0-12.2 3.9-19.8 9.9-19.8 6.9 0 9.9 7.9 9.9 19.8 0 12.4-3.2 20.3-9.9 20.3zm154-404.1c-9.9 0-17 8.9-17 25.3.1 16.1 6.7 25 16.2 25h.1c10.6 0 16.8-9.1 16.8-25.6 0-15.6-5.9-24.7-16.1-24.7zm-.5 45.2c-6.1 0-10-7.6-9.9-20.3 0-12.2 3.9-19.8 9.9-19.8 6.9 0 9.9 7.8 9.9 19.8 0 12.4-3.2 20.3-9.9 20.3zM551.2 970.4c-9.9 0-17 8.9-17 25.3.1 16.1 6.7 25 16.2 25h.1c10.6 0 16.8-9.1 16.8-25.7-.1-15.5-6-24.6-16.1-24.6zm-.6 45.2c-6.1 0-10-7.6-9.9-20.3 0-12.2 3.9-19.8 9.9-19.8 6.9 0 9.9 7.9 9.9 19.8 0 12.4-3.2 20.3-9.9 20.3zm384.2-235.2c-9.9 0-17 8.9-17 25.3.1 16.1 6.7 25 16.2 25h.1c10.6 0 16.8-9.1 16.8-25.7 0-15.5-5.9-24.6-16.1-24.6zm-.5 45.1c-6.1 0-10-7.6-9.9-20.3 0-12.2 3.9-19.8 9.9-19.8 6.9 0 9.9 7.9 9.9 19.8 0 12.5-3.3 20.3-9.9 20.3zm-459.9-45.1c-9.9 0-17 8.9-17 25.3.2 16.1 6.7 25 16.2 25h.1c10.6 0 16.8-9.1 16.8-25.7 0-15.5-5.9-24.6-16.1-24.6zm-.5 45.1c-6.1 0-10-7.6-9.9-20.3 0-12.2 3.9-19.8 9.9-19.8 6.9 0 9.9 7.9 9.9 19.8 0 12.5-3.2 20.3-9.9 20.3zm154 229.3c-9.9 0-17 8.9-17 25.3.1 16.1 6.7 25 16.2 25h.1c10.6 0 16.8-9.1 16.8-25.7 0-15.4-5.9-24.6-16.1-24.6zm-.5 45.2c-6.1 0-10-7.6-9.9-20.3 0-12.2 3.9-19.8 9.9-19.8 6.9 0 9.9 7.9 9.9 19.8-.1 12.4-3.3 20.3-9.9 20.3zm-49.8-38.7l1.3 5 8.4-4.6h.1v42.5h6.4v-48.6h-5.6l-10.6 5.7zm0-84.4l1.3 5 8.4-4.6h.1v42.5h6.4v-48.6h-5.6l-10.6 5.7z"/></svg>