<svg xmlns:xlink="http://www.w3.org/1999/xlink"  xmlns="http://www.w3.org/2000/svg" viewBox="0 0 150 150"><path fill="#96C63D" d="M51.4 42.9V26.8c0-8.9 7.2-16.1 16.1-16.1h16.9c8.9 0 16.1 7.2 16.1 16.1v16.1h6.4V26.8c0-12.4-10.1-22.6-22.5-22.6H67.5c-12.4 0-22.6 10.1-22.6 22.6v16.1h6.5z"/><path fill="#305528" d="M48.7 70.9c-2.9 0-5.2-2.3-5.2-5.2 0-2.9 2.3-5.2 5.2-5.2h43c2.9 0 5.2 2.3 5.2 5.2 0 2.9-2.3 5.2-5.2 5.2h-43z"/><path fill="#96C63D" d="M48.7 90.3c-2.9 0-5.2-2.3-5.2-5.2 0-2.9 2.3-5.2 5.2-5.2h43c2.9 0 5.2 2.3 5.2 5.2 0 2.9-2.3 5.2-5.2 5.2h-43zM48.7 109.7c-2.9 0-5.2-2.3-5.2-5.2 0-2.9 2.3-5.2 5.2-5.2h43c2.9 0 5.2 2.3 5.2 5.2 0 2.9-2.3 5.2-5.2 5.2h-43zM48.7 129.1c-2.9 0-5.2-2.3-5.2-5.2 0-2.9 2.3-5.2 5.2-5.2h30.7c2.9 0 5.2 2.3 5.2 5.2 0 2.9-2.3 5.2-5.2 5.2H48.7z"/><path fill="#333037" d="M123.4 43.8H28.3c-2.9 0-5.2 2.3-5.2 5.2 0 .8.2 1.5.5 2.2-.2.1-.3.1-.5.2v91.5c0 2.9 2.3 5.2 5.2 5.2h67.5c.7 0 1.3-.1 1.9-.4.6-.3 1.2-.7 1.7-1.2l27.7-28.3c.5-.5.8-1 1.1-1.7v-.1c.2-.6.3-1.2.3-1.8V49c.1-2.9-2.3-5.2-5.1-5.2zm-27.8 65.4c-2.9 0-5.2 2.3-5.2 5.2v23.2H33.5V54.2h84.7v55H95.6zm5.2 20.8v-10.4H111L100.8 130z"/></svg>