<svg xmlns:xlink="http://www.w3.org/1999/xlink"  xmlns="http://www.w3.org/2000/svg" width="100" height="100" viewBox="0 0 100 100"><radialGradient id="a" cx="82.998" cy="33.436" r="55.211" gradientUnits="userSpaceOnUse"><stop offset="0" stop-color="#7cc5f1"/><stop offset=".009" stop-color="#79c4f1"/><stop offset=".261" stop-color="#22b2ed"/><stop offset=".376" stop-color="#00abeb"/><stop offset=".465" stop-color="#00a4e3"/><stop offset=".605" stop-color="#0091cc"/><stop offset=".779" stop-color="#0072a7"/><stop offset=".979" stop-color="#004775"/><stop offset="1" stop-color="#00426f"/></radialGradient><path fill="url(#a)" d="M90.083 54.455c-8.339-8.34-16.397-16.952-24.575-25.457-.007 5.262 0 10.524-.007 15.78h-5.272c-.006-3.488.011-6.983-.003-10.478-.057-3.197-1.291-6.546-3.912-8.499-3.052-2.363-7.655-2.403-10.739-.086-2.43 1.754-3.69 4.786-3.697 7.731.006 5.315 0 10.637.006 15.958h28.677c.007 11.624-.016 23.246.011 34.863 6.271-6.063 12.521-12.152 18.629-18.381 1.576-1.608 3.157-3.521 3.271-5.871.144-2.118-.969-4.077-2.389-5.56z"/><radialGradient id="b" cx="39.158" cy="57.06" r="35.792" gradientUnits="userSpaceOnUse"><stop offset="0" stop-color="#919395"/><stop offset=".673" stop-color="#424243"/><stop offset="1" stop-color="#272525"/></radialGradient><path fill="url(#b)" d="M13.181 54.019c-1.457 1.436-3.108 2.985-3.422 5.109-.325 1.946.785 3.733 2.088 5.064 6.959 6.612 13.556 13.581 20.281 20.426 0-11.854-.004-23.716 0-35.577h4.696c-.006-6.513.003-13.026-.006-19.54a8159.652 8159.652 0 0 1-23.637 24.518z"/><g><radialGradient id="c" cx="52.31" cy="55.352" r="37.553" gradientUnits="userSpaceOnUse"><stop offset="0" stop-color="#7cc5f1"/><stop offset=".009" stop-color="#79c4f1"/><stop offset=".261" stop-color="#22b2ed"/><stop offset=".376" stop-color="#00abeb"/><stop offset=".465" stop-color="#00a4e3"/><stop offset=".605" stop-color="#0091cc"/><stop offset=".779" stop-color="#0072a7"/><stop offset=".979" stop-color="#004775"/><stop offset="1" stop-color="#00426f"/></radialGradient><path fill="url(#c)" d="M47.891 67.21c.378-2.343 2.824-4.084 5.17-3.674 2.214.258 4.011 2.351 3.922 4.573.042 1.411-.715 2.668-1.718 3.588.682 4.753 1.381 9.499 2.079 14.251-3.182.126-6.368.101-9.549.212.546-4.851 1.076-9.704 1.602-14.562-1.155-1.112-1.87-2.767-1.506-4.388z"/></g></svg>