<svg xmlns:xlink="http://www.w3.org/1999/xlink"  xmlns="http://www.w3.org/2000/svg" viewBox="0 0 1500 1500"><path fill="#EABD1E" d="M463.9 795c0 158.2 128.3 286.5 286.5 286.5 158.3 0 286.5-128.3 286.5-286.5S908.7 508.5 750.4 508.5c-158.2 0-286.5 128.3-286.5 286.5zm467.9 0c0 100.2-81.2 181.4-181.4 181.4C650.3 976.4 569 895.2 569 795c0-23.2 4.5-45.3 12.5-65.7-7.9-12.3-12.5-26.9-12.5-42.5 0-43.9 35.5-79.4 79.4-79.4 17.3 0 33.3 5.6 46.3 15 17.6-5.7 36.2-8.8 55.7-8.8 100.2.1 181.4 81.2 181.4 181.4z"/><path fill="#2E4548" d="M1280.4 394.4c-118-165.7-311.6-273.8-530.5-273.8-202.9 0-384 92.8-503.4 238.3 143.8-90.3 313.6-141 490.7-141 199.1 0 389.1 63.9 543.2 176.5z"/><path fill="#2E4548" d="M1380.3 608.1C1227 418.6 990.4 304.8 737.2 304.8c-232.7 0-451.3 96.2-604.2 258.9-22 65.3-34.1 135.2-34.1 208 0 4.8.3 9.6.4 14.4l2-3.4C232.8 554.9 482 413.4 751.5 413.4c268.8 0 517.3 140.8 649.2 367.4 0-3.1.2-6.1.2-9.2.1-56.4-7.1-111.2-20.6-163.5zM751.5 1175.2c-269.5 0-518.7-141.5-650.4-369.2l-1.5-2.6c3.5 73.4 19.3 143.6 45.2 208.7 152.2 155.1 365.6 246.5 592.3 246.5 248.4 0 481-109.6 634.4-292.7 15.5-49.8 25.2-102.2 28.2-156.3-132 225.5-380 365.6-648.2 365.6z"/><path fill="#2E4548" d="M285.2 1227.4c118.2 120.5 282.7 195.3 464.7 195.3 199.2 0 377.4-89.6 496.8-230.5-147.7 98-324.7 153.1-509.6 153.1-161.3 0-316.7-42-451.9-117.9zM169.9 794.3c72.5 119.7 180.2 212.3 305.8 267.6-95-64-155.5-160.2-155.5-267.6 0-107.5 60.6-203.8 155.7-267.8-125.7 55.4-233.5 148-306 267.8zM1182.9 794.3c0 107.5-60.6 203.7-155.7 267.7 125.6-55.4 233.4-147.9 305.9-267.7-72.5-119.9-180.4-212.5-306.1-267.8 95.2 64 155.9 160.3 155.9 267.8z"/><path fill="#2E4548" d="M393 794.3c0 159.6 160.8 289.5 358.5 289.5 123.8 0 233.2-51 297.7-128.3 38.4-46.1 60.9-101.6 60.9-161.2 0-62.6-24.8-120.5-66.7-167.9-65.1-73.5-171.6-121.6-291.8-121.6-197.8 0-358.6 129.9-358.6 289.5zm643.9.7c0 158.2-128.2 286.5-286.5 286.5-158.2 0-286.5-128.3-286.5-286.5s128.3-286.5 286.5-286.5c158.3 0 286.5 128.3 286.5 286.5z"/><path fill="#2E4548" d="M694.7 622.5c20 14.4 33 37.8 33 64.4 0 43.8-35.5 79.3-79.3 79.3-28.2 0-52.8-14.7-66.9-36.8-7.9 20.4-12.5 42.5-12.5 65.7 0 100.2 81.2 181.4 181.4 181.4s181.4-81.2 181.4-181.4-81.2-181.4-181.4-181.4c-19.4 0-38.1 3.1-55.7 8.8zm99 57.1c19.9 0 36.1 16.2 36.1 36.1 0 19.9-16.1 36.1-36.1 36.1-19.9 0-36.1-16.1-36.1-36.1s16.2-36.1 36.1-36.1z"/><path fill="#E9E9E1" d="M648.4 766.1c43.8 0 79.3-35.5 79.3-79.3 0-26.5-13.1-50-33-64.4-13-9.4-29-15-46.3-15-43.9 0-79.4 35.5-79.4 79.4 0 15.7 4.6 30.2 12.5 42.5 14.1 22.1 38.8 36.8 66.9 36.8zM793.7 751.7c19.9 0 36.1-16.1 36.1-36.1 0-19.9-16.1-36.1-36.1-36.1-19.9 0-36.1 16.2-36.1 36.1 0 20 16.2 36.1 36.1 36.1z"/></svg>