<svg xmlns:xlink="http://www.w3.org/1999/xlink"  xmlns="http://www.w3.org/2000/svg" viewBox="0 0 150 150"><g fill="#585677"><path fill-rule="evenodd" clip-rule="evenodd" d="M75.4 130.1c-2.5.5-4.1 1.7-5.7 3.7l-.2.3-.1-.3c-.2-.6-1.8-1-.6-2 1.1-.9 2.2-1.5 3.4-2-.8-.1-1.5-.1-2.3-.2-1.6-.2-3.1-.3-4.7-.6-1.7 1.9-3.2 2.8-5.6 3.4-2.9.8-6.4-.9-8.7.3l-.5.3.3-.5c1.2-2.2 2.1-3.5 4.5-4.2.6-.2 1.2-.2 1.8-.2 1.1 0 2.3.2 3.4.3.9.1 1.7.2 2.6.2-4.3-1-8.6-2.4-12.6-4.3-2.1 1.5-3.9 1.9-6.5 1.9-3 0-5.9-2.6-8.5-2l-.6.1.4-.4c1.7-1.8 2.9-2.9 5.5-2.9.6 0 1.2.1 1.8.2 1.2.3 2.3.9 3.4 1.3 1 .4 2 .7 3 1-1.4-.7-2.8-1.5-4.2-2.3-2.7-1.6-5.2-3.4-7.6-5.4-2.4.9-4.3.9-6.8.2-2.9-.8-5.1-4-7.7-4.1H22l.5-.3c2.1-1.3 3.6-2.1 6-1.4.6.2 1.1.4 1.6.7 1.1.6 2 1.4 3 2.2.9.7 1.8 1.3 2.7 1.7-3.5-3.1-6.7-6.6-9.4-10.5-2.6.2-4.4-.3-6.7-1.6-2.6-1.5-3.9-5.2-6.4-6l-.6-.2.6-.2c2.4-.7 4-1.1 6.2.2.5.3 1 .7 1.4 1.1.9.9 1.6 2 2.4 2.9.7.9 1.4 1.7 2.3 2.5-2.7-4-4.8-8.2-6.5-12.7-2.6-.5-4.2-1.4-6.1-3.2-2.1-2.1-2.4-6-4.6-7.4l-.5-.3h.6c2.5-.1 4.1 0 5.9 1.8.4.4.8.9 1.1 1.4.6 1.1 1.1 2.3 1.6 3.5.4 1.1.9 2 1.6 3-1.6-4.5-2.6-9.2-3.1-14-2.3-1.1-3.7-2.4-5-4.7-1.5-2.6-.7-6.4-2.5-8.4l-.4-.4.6.1c2.4.5 4 1.1 5.2 3.3.3.5.5 1.1.7 1.6.3 1.2.4 2.5.6 3.7.1 1.1.4 2.1.7 3.1-.3-4.6-.1-9.3.6-13.9v-.3c-2-1.7-2.9-3.3-3.5-5.8-.7-2.9.9-6.4-.3-8.7l-.3-.5.5.3c2.2 1.1 3.5 2 4.2 4.5.2.6.2 1.2.2 1.8 0 1.2-.2 2.5-.4 3.7-.1 1.1-.2 2.1-.2 3.1.9-4.6 2.4-9.1 4.3-13.3-1.5-2.1-2-3.9-1.9-6.5 0-3 2.6-5.9 2-8.5l-.1-.6.4.3c1.8 1.7 2.9 2.9 2.9 5.5 0 .6-.1 1.2-.2 1.7-.3 1.2-.9 2.3-1.3 3.5-.4 1-.7 2-1 3 1.2-2.4 2.5-4.8 4.1-7 .3-.5.7-1 1-1.4.1-2.4.4-4.7 1.6-6.7 1.5-2.4 5.1-2.2 6-4.7l.3-.7.1.7c.3 2.3.7 5.1-.6 7.2-.3.5-.7.9-1.1 1.2-1.6 1.2-3.4 1.4-5.1 2.9l-1.5 2.1c-2.1 3-3.8 6.3-5.3 9.7 1.3-1.7 1-3.5 3.3-4.9 2.8-1.7 4.6-2.3 8-2.1l.9.1-.9.3c-.8.3-1.3.6-1.8 1.3-.5.7-.8 1.5-1.2 2.2-.6 1-1.2 1.7-2.1 2.4-2.9 2.1-3.8 1.3-6.7 2-1.6 4-2.8 8.2-3.5 12.5-.1.4-.1.8-.2 1.2.9-2 .1-3.6 1.9-5.6 2.2-2.4 3.9-3.4 7.2-4l.9-.2-.8.5c-.7.4-1.1 1-1.4 1.7-.3.7-.4 1.6-.6 2.4-.3 1.1-.7 2-1.4 2.9-2.3 2.8-3.3 2.2-6 3.7-.6 4.6-.6 9.3 0 14 .3-2.1-.8-3.4.4-5.7 1.5-2.9 2.8-4.3 5.9-5.8l.8-.4-.6.7c-.5.6-.9 1.2-.9 2-.1.8 0 1.7.1 2.5 0 1.1-.2 2.1-.7 3.1-1.5 3.2-2.6 3-4.8 5.1.7 4.6 1.8 9.1 3.5 13.4-.4-1.9-1.7-3-1.1-5.4.7-3.2 1.6-4.9 4.2-7.1l.7-.6-.4.8c-.4.7-.5 1.4-.4 2.2.1.8.5 1.6.7 2.4.3 1.1.4 2.1.2 3.2-.6 3.5-1.7 3.5-3.3 6.1 1.8 4.3 4.1 8.3 6.9 12.1-.8-1.8-2.4-2.5-2.5-5.1-.1-3.3.3-5.1 2.2-7.9l.5-.8-.2.9c-.2.8-.1 1.5.2 2.2.3.7.9 1.4 1.3 2.1.6 1 .9 1.9 1 3.1.3 3.6-.8 3.9-1.6 6.8 2.9 3.7 6.2 7.1 9.9 10-1.3-1.7-3.1-1.9-3.9-4.4-1-3.1-1-5 .1-8.3l.3-.9v.9c0 .8.3 1.5.8 2.1.5.6 1.2 1.1 1.8 1.7.8.8 1.4 1.6 1.8 2.7 1.2 3.4.2 4 .2 7 1.7 1.3 3.5 2.5 5.3 3.6 2.2 1.3 4.5 2.5 6.9 3.5-1.7-1.3-3.5-1-4.9-3.3-1.7-2.8-2.3-4.6-2.1-8l.1-.9.3.9c.2.8.6 1.4 1.3 1.8.6.5 1.5.8 2.2 1.2 1 .6 1.8 1.2 2.4 2.1 2.1 2.9 1.3 3.8 2 6.7 4.4 1.8 9 3 13.6 3.7-2-.9-3.6-.1-5.6-1.9-2.4-2.2-3.4-3.9-4-7.2l-.2-.9.5.8c.4.7 1 1.1 1.7 1.4.8.3 1.6.4 2.4.6 1.1.3 2 .7 2.9 1.5 2.8 2.3 2.2 3.3 3.7 6 .6.1 1.2.1 1.8.2 1.8.2 3.6.2 5.4.4 1.8-.2 3.6-.3 5.4-.4.6-.1 1.2-.1 1.8-.2 1.5-2.6.9-3.7 3.7-6 .9-.7 1.8-1.2 2.9-1.5.8-.2 1.7-.3 2.4-.6.8-.3 1.3-.7 1.7-1.4l.5-.8-.2.9c-.6 3.3-1.6 5-4 7.2-2 1.8-3.6 1-5.6 1.9 4.7-.7 9.3-1.9 13.6-3.7.8-2.9 0-3.8 2-6.7.7-.9 1.4-1.6 2.4-2.1.7-.4 1.5-.7 2.2-1.2.7-.5 1-1.1 1.3-1.8l.3-.9.1.9c.3 3.4-.3 5.2-2.1 8-1.4 2.3-3.2 1.9-4.9 3.3 2.4-1 4.7-2.2 6.9-3.5 1.8-1.1 3.6-2.3 5.3-3.6 0-3-1-3.6.2-7 .4-1.1 1-1.9 1.8-2.7.6-.6 1.3-1.1 1.8-1.7.5-.6.7-1.3.8-2.1v-.9l.3.9c1.1 3.2 1.1 5.1.1 8.3-.8 2.5-2.6 2.7-3.8 4.4 3.7-2.9 7-6.3 9.9-10-.8-2.9-1.9-3.2-1.6-6.8.1-1.1.4-2.1 1-3.1.4-.7 1-1.4 1.3-2.1.3-.7.4-1.4.2-2.2l-.2-.9.5.8c1.9 2.8 2.3 4.7 2.2 7.9-.1 2.6-1.7 3.2-2.5 5.1 2.7-3.8 5.1-7.8 6.9-12.1-1.5-2.6-2.7-2.6-3.3-6.1-.2-1.1-.1-2.1.2-3.2.2-.8.6-1.6.7-2.4.1-.8 0-1.5-.4-2.2l-.4-.8.7.6c2.6 2.2 3.5 3.9 4.2 7.1.6 2.5-.7 3.5-1.1 5.4 1.7-4.3 2.9-8.8 3.5-13.4-2.1-2.1-3.3-1.8-4.8-5.1-.5-1-.7-2-.6-3.1 0-.8.1-1.7 0-2.5s-.4-1.4-.9-2l-.6-.7.8.4c3.1 1.5 4.4 2.9 5.9 5.8 1.2 2.3.1 3.7.4 5.7.6-4.6.6-9.3 0-14-2.6-1.5-3.7-.9-6-3.7-.7-.9-1.2-1.8-1.4-2.9-.2-.8-.3-1.7-.6-2.4s-.8-1.3-1.4-1.7l-.8-.5.9.2c3.3.6 5 1.6 7.2 4 1.8 2 1 3.6 1.9 5.6 0-.4-.1-.8-.2-1.2-.7-4.3-1.9-8.5-3.5-12.5-2.9-.8-3.8 0-6.7-2-.9-.7-1.6-1.4-2.1-2.4-.4-.7-.7-1.5-1.2-2.2-.5-.6-1.1-1-1.8-1.3l-.9-.3.9-.1c3.4-.3 5.2.3 8 2.1 2.3 1.4 1.9 3.2 3.3 4.9-1.5-3.4-3.2-6.6-5.3-9.7l-1.5-2.1c-1.6-1.5-3.5-1.7-5.1-2.9-.5-.3-.8-.7-1.1-1.2-1.3-2.1-.9-4.8-.6-7.2l.1-.7.2.7c.9 2.5 4.5 2.3 6 4.7 1.3 2 1.6 4.4 1.6 6.7.3.5.7.9 1 1.4 1.5 2.2 2.9 4.6 4.1 7-.2-1-.6-2-1-3-.5-1.1-1-2.3-1.3-3.5-.2-.6-.2-1.1-.2-1.7 0-2.6 1.1-3.8 2.9-5.5l.4-.4-.1.6c-.6 2.6 2 5.5 2 8.5 0 2.6-.5 4.4-1.9 6.5 2 4.3 3.4 8.8 4.3 13.3 0-1 0-2.1-.2-3.1-.2-1.2-.4-2.5-.4-3.7 0-.6.1-1.2.2-1.8.6-2.5 2-3.4 4.2-4.5l.5-.3-.3.5c-1.2 2.3.5 5.8-.3 8.7-.7 2.5-1.6 4.1-3.5 5.8v.3c.8 4.6 1 9.3.6 13.9.3-1 .6-2 .7-3.1.2-1.2.3-2.5.6-3.7.2-.6.4-1.1.7-1.6 1.3-2.2 2.8-2.7 5.2-3.3l.6-.1-.4.4c-1.8 1.9-1.1 5.8-2.5 8.4-1.3 2.2-2.6 3.5-5 4.7-.5 4.8-1.5 9.5-3.1 14 .6-.9 1.1-1.9 1.6-3 .5-1.2.9-2.4 1.6-3.5.3-.5.6-1 1.1-1.4 1.8-1.8 3.4-1.9 5.9-1.8h.6l-.5.3c-2.2 1.4-2.5 5.3-4.6 7.4-1.8 1.8-3.5 2.8-6.1 3.2-1.7 4.5-3.9 8.7-6.5 12.7.8-.7 1.6-1.5 2.3-2.5.8-1 1.5-2.1 2.4-2.9.4-.4.9-.8 1.4-1.1 2.2-1.3 3.8-1 6.2-.2l.6.2-.6.2c-2.5.8-3.8 4.5-6.4 6-2.2 1.3-4.1 1.8-6.7 1.6-2.7 3.8-5.9 7.4-9.4 10.5.9-.5 1.8-1.1 2.7-1.7 1-.7 1.9-1.6 3-2.2.5-.3 1.1-.5 1.6-.7 2.5-.7 3.9.1 6 1.4l.5.3h-.6c-2.6.1-4.8 3.3-7.7 4.1-2.5.7-4.4.7-6.8-.2-2.4 2-4.9 3.8-7.6 5.4-1.4.8-2.8 1.6-4.2 2.3 1-.2 2-.6 3-1 1.1-.5 2.3-1 3.4-1.3.6-.1 1.1-.2 1.7-.2 2.6 0 3.8 1.1 5.5 2.9l.4.4-.6-.1c-2.6-.6-5.5 2-8.5 2-2.6 0-4.4-.5-6.5-1.9-4 1.9-8.3 3.4-12.6 4.3.9 0 1.7-.1 2.6-.2 1.1-.2 2.3-.4 3.4-.3.6 0 1.2.1 1.8.2 2.5.6 3.4 2 4.5 4.2l.3.5-.5-.3c-2.3-1.2-5.9.5-8.7-.3-2.4-.6-4-1.5-5.6-3.4-1.6.3-3.1.5-4.7.6-.8.1-1.5.1-2.3.2 1.3.5 2.4 1.1 3.4 2 1.2 1-.4 1.4-.6 2l-.1.3-.2-.3c-1.3-1.8-2.9-3-5.4-3.6z"/><path d="M49 90.6v6.9H101.1v-6.9c8.7-6.9 22.2-18.7 16.1-27.4-3.6-5.1-10.7-4.5-15.7-1.8-.1-.3-.3-.6-.4-1-2.4-4.7-8.4-5.2-13.7-3.8-1.4.4-2.7.8-3.9 1.4-.6-2.7-2.7-4.4-5.2-5.2l.2-.1 3.4-1.4 1.4-3.5 1.4-3.4-1.4-3.4-1.4-3.4-3.4-1.4-3.5-1.5-3.4 1.4-3.4 1.4-1.5 3.5-1.4 3.4 1.4 3.4 1.4 3.5 3.4 1.4.2.1c-2.6.8-4.7 2.5-5.2 5.2-1.2-.6-2.5-1.1-3.9-1.4-5.3-1.4-11.3-.9-13.7 3.8-.2.3-.3.6-.4 1-5-2.7-12.2-3.3-15.7 1.8-6 8.6 7.5 20.5 16.2 27.4zm53.2-26.5c4-.9 8.4-.2 8.6 4.4.2 7.1-6.9 15.3-12.4 20.8H86.3c.3-.3.7-.6 1.1-1 6.6-6.1 15.7-15.6 14.8-24.2zm-18.7-2.8c1.3-.4 2.7-.7 3.9-.7 2.9-.1 5.4.9 6.7 3.4 2.6 5-2.1 13-6.7 19.2-1.8 2.4-3.7 4.6-5 6.1h-2.5l3.6-28zm-12.4-13l-.8-1.9-.8-1.9.8-1.9.8-1.9 2-.8 1.9-.8 1.9.8 1.9.8.8 1.9.8 1.9-.8 1.9-.8 1.9-1.8.8-2 .8-1.9-.8-2-.8zM55.9 64c1.3-2.5 3.9-3.4 6.7-3.4 1.3 0 2.6.3 3.9.7l3.6 28h-2.5c-1.3-1.5-3.1-3.7-5-6.1C58 77 53.3 69 55.9 64zm-8 .1c-.9 8.6 8.2 18.1 14.8 24.3l1 1h-12c-5.5-5.5-12.6-13.7-12.4-20.8.1-4.7 4.6-5.4 8.6-4.5z"/></g></svg>