<svg xmlns:xlink="http://www.w3.org/1999/xlink"  xmlns="http://www.w3.org/2000/svg" viewBox="0 0 1500 1500"><path fill="#006DB6" d="M755 128.6l-1.6 290"/><path fill="#AB5153" d="M736 1037.9L62.5 1332H1438z"/><path fill="#006DB6" d="M736 1038l702 294.1V507L756.5 131.8"/><path fill="#00A8DE" d="M750.3 970.4l4.7-841.8L62.5 507v825.1l683-294.1z"/><g><path fill="#FFFFFE" d="M700.3 694.6c-27.9-19.5-87.7-61.6-87.7-61.6l-35.2 50.1 131 92 232.1-245-44.5-42S730.8 662.5 700.3 694.6z"/><path fill="#FFFFFE" d="M521.6 405.7c-60.5 60.5-93.9 141-93.9 226.6 0 176.7 143.8 320.5 320.5 320.5s320.5-143.8 320.5-320.5-143.8-320.4-320.5-320.4c-85.6 0-166.1 33.3-226.6 93.8zM489 632.3c0-69.3 27-134.4 75.9-183.3 49-49 114.1-76 183.3-76 142.9 0 259.2 116.3 259.2 259.3 0 142.9-116.3 259.3-259.2 259.3-142.9 0-259.2-116.3-259.2-259.3z"/></g><path fill="#AB5153" d="M745.5 1038l-683 294.1"/></svg>