<svg xmlns:xlink="http://www.w3.org/1999/xlink"  xmlns="http://www.w3.org/2000/svg" viewBox="0 0 150 150"><path fill="none" d="M42.7 45.2h-9.3c-.8 0-1.5.3-2 .8-.6.6-.8 1.2-.8 2v17.8c0 .8.3 1.5.8 2s1.2.8 2 .8h9.2c.8 0 1.5-.3 2-.8.6-.6.8-1.2.8-2V48.1c0-.8-.3-1.5-.8-2-.4-.6-1.1-.9-1.9-.9zm-.1 20.5h-9.1V48.2h9.1v17.5zM44.1 86.6c-.4 0-.8.1-1.1.4-.3.3-.4.7-.4 1.1v6.2h-3V73.7h-7.5c-.4 0-.8.2-1 .4-.3.3-.4.6-.4 1.1 0 .4.2.8.4 1.1.3.3.6.4 1 .4h4.5v17.6H32c-.4 0-.8.1-1.1.4-.3.3-.4.6-.4 1s.2.8.4 1.1c.3.3.6.5 1.1.5h12c.4 0 .8-.2 1.1-.4.3-.3.4-.6.4-1.1V88c0-.4-.1-.8-.4-1.1-.3-.2-.6-.3-1-.3zM70.1 104.5h-9.3c-.8 0-1.4.3-2 .8-.6.6-.8 1.2-.8 2v17.8c0 .8.3 1.5.8 2 .6.6 1.2.9 2 .9h9.3c.8 0 1.5-.3 2-.9.6-.6.8-1.2.8-2v-17.8c0-.8-.3-1.4-.8-2-.6-.5-1.2-.8-2-.8zM70 125h-9.1v-17.5H70V125zM126.1 58.1c-.4 0-.8.1-1.1.5-.3.3-.4.6-.4 1v6.2h-3V45.2h-7.5c-.4 0-.8.1-1.1.4-.3.3-.4.6-.4 1s.1.8.4 1.1c.3.3.6.4 1.1.4h4.5v17.5H114c-.4 0-.8.2-1.1.4-.3.3-.4.7-.4 1 0 .4.2.8.4 1.1.3.3.6.5 1.1.5h12c.4 0 .8-.2 1.1-.4.3-.3.4-.6.4-1v-7.7c0-.4-.1-.8-.4-1.1-.2-.2-.6-.3-1-.3z"/><path fill="#EE3F2E" d="M70 18.9c-3.1.3-6.1.8-9.1 1.6v15.9H70V18.9zM33.6 112.2c2.7 3 5.7 5.7 9.1 8v-12.7h-9.1v4.7zM42.6 28.9c-3.1 2.2-5.9 4.7-8.5 7.5h8.5v-7.5zM33.6 48.2h9.1v17.5h-9.1zM115.6 76.7h9.1v17.6h-9.1zM60.9 107.5H70V125h-9.1z"/><path fill="#EE3F2E" d="M130.8 74.5c0-13.4-4.7-25.6-12.5-35.2h-4.2c-.4 0-.8-.2-1.1-.5-.3-.3-.4-.7-.4-1.1 0-.4.2-.7.4-1 .3-.3.6-.4 1.1-.4h1.5c-5.9-6.3-13.1-11.1-21.3-14.2v14.2h3v-6.2c0-.4.1-.7.4-1 .3-.3.6-.4 1.1-.4.4 0 .8.1 1 .4.3.3.4.6.4 1v7.7c0 .4-.2.8-.4 1.1-.3.3-.6.4-1 .4h-12c-.4 0-.8-.2-1-.5-.3-.3-.4-.7-.4-1.1 0-.4.1-.7.4-1 .3-.3.6-.4 1-.4h4.6V21.1c-5.2-1.6-10.7-2.5-16.4-2.5-.7 0-1.3.1-2 .1v17.7c0 .8-.3 1.5-.8 2-.5.6-1.2.9-2 .9h-9.3c-.8 0-1.5-.3-2-.9-.5-.6-.8-1.2-.8-2V21.2c-4.4 1.4-8.5 3.4-12.3 5.7v9.5c0 .8-.3 1.5-.8 2-.6.6-1.2.9-2 .9h-9.2c-.6 0-1.1-.2-1.6-.5-8.1 9.7-13 22.2-13 35.8 0 12.9 4.4 24.7 11.7 34.1v-1.3c0-.8.3-1.4.8-2 .6-.6 1.2-.8 2-.8H43c.8 0 1.4.3 2 .8.6.6.8 1.2.8 2v14.8c8.5 5.2 18.5 8.3 29.3 8.3 5.7 0 11.2-.9 16.3-2.4h-4.5c-.4 0-.8-.2-1-.5-.3-.3-.4-.7-.4-1.1 0-.4.1-.8.4-1 .3-.3.6-.4 1-.4h4.6v-17.5H87c-.4 0-.8-.2-1.1-.4-.3-.3-.4-.6-.4-1.1 0-.4.2-.8.4-1 .3-.3.6-.4 1.1-.4h7.5V125h3v-6.2c0-.4.1-.8.4-1.1.3-.3.6-.4 1.1-.4.4 0 .8.2 1 .4.3.3.4.6.4 1.1v5.5c7.2-3.7 13.4-8.8 18.4-15.1v-1.8h-4.5c-.4 0-.8-.2-1.1-.4-.3-.3-.4-.6-.4-1.1 0-.4.1-.8.4-1 .3-.3.6-.4 1.1-.4h7.5v.7c1.7-2.7 3.3-5.4 4.5-8.4-.4.2-.9.4-1.4.4h-9.2c-.8 0-1.5-.3-2-.8-.6-.6-.8-1.2-.8-2V76.5c0-.8.3-1.5.9-2 .6-.6 1.2-.9 2-.9h9.3c.8 0 1.4.3 2 .9.6.6.8 1.3.8 2V93c1.7-5.8 2.9-12 2.9-18.5zM45.5 95.7c0 .4-.1.8-.4 1.1-.3.3-.6.4-1.1.4H32c-.4 0-.8-.2-1.1-.5-.3-.3-.4-.7-.4-1.1 0-.4.2-.8.4-1 .3-.3.6-.4 1.1-.4h4.6V76.7h-4.5c-.4 0-.8-.1-1-.4-.3-.3-.4-.6-.4-1.1 0-.4.2-.8.4-1.1.3-.3.6-.4 1-.4h7.5v20.5h3V88c0-.4.2-.8.4-1.1.3-.3.6-.4 1.1-.4.4 0 .8.1 1.1.4.3.3.4.7.4 1.1v7.7zm.1-29.8c0 .8-.3 1.5-.8 2-.6.5-1.2.8-2 .8h-9.2c-.8 0-1.5-.3-2-.8-.6-.6-.8-1.2-.8-2V48.1c0-.8.3-1.5.8-2 .6-.6 1.2-.8 2-.8h9.3c.8 0 1.4.3 2 .8.6.6.8 1.2.8 2v17.8zm27.3 59.2c0 .8-.3 1.5-.8 2-.5.6-1.2.9-2 .9h-9.3c-.8 0-1.5-.3-2-.9-.5-.6-.8-1.2-.8-2v-17.8c0-.8.3-1.4.8-2 .6-.6 1.2-.8 2-.8h9.3c.8 0 1.4.3 2 .8.6.6.8 1.2.8 2v17.8zM65.2 96l.6-.8c1.5-8.3 3.8-16.4 5.5-24.7-5.3-3.3-7.5-11-3.9-16.3 3.7-6.3 13.5-7.3 18.4-1.8 5.2 5.1 3.6 14.4-2.5 18.1 1 4.8 2.2 9.5 3.3 14.3.8 3.7 1.7 7.4 2.6 11.2-7.9.1-16 .1-24 0zm62.4-28.8c0 .4-.1.8-.4 1-.3.3-.7.4-1.1.4h-12c-.4 0-.8-.2-1.1-.5-.3-.3-.4-.6-.4-1.1 0-.4.2-.7.4-1 .3-.3.6-.4 1.1-.4h4.6V48.2h-4.5c-.4 0-.8-.1-1.1-.4-.3-.3-.4-.6-.4-1.1 0-.4.1-.8.4-1 .3-.3.6-.4 1.1-.4h7.5v20.5h3v-6.2c0-.4.1-.8.4-1 .3-.3.6-.5 1.1-.5.4 0 .8.1 1.1.4.3.3.4.6.4 1.1v7.6z"/><path fill="#FFF" d="M83.3 70.6c6.1-3.7 7.7-13 2.5-18.1-4.8-5.5-14.7-4.6-18.4 1.8-3.6 5.3-1.5 13 3.9 16.3-1.7 8.2-4.1 16.4-5.5 24.7l-.6.7c8 .1 16 .1 24 .1-.9-3.7-1.8-7.4-2.6-11.2-1.1-4.8-2.2-9.5-3.3-14.3z"/><g><path fill="#891D0D" d="M11.7 75C11.7 40 40 11.7 75 11.7S138.3 40 138.3 75s-28.4 63.3-63.3 63.3c-35 0-63.3-28.3-63.3-63.3zM75 134.3c32.7-.1 59.2-26.6 59.3-59.3-.1-32.8-26.6-59.2-59.3-59.3-32.8.1-59.2 26.5-59.3 59.3.1 32.7 26.5 59.2 59.3 59.3z"/></g></svg>