<svg xmlns:xlink="http://www.w3.org/1999/xlink"  xmlns="http://www.w3.org/2000/svg" viewBox="0 0 1500 1500"><path fill="none" d="M1114.7 569.2c-142.5-142.5-374.3-142.7-516.7-.3-142.4 142.4-142.2 374.1.3 516.7 142.6 142.5 374.4 142.7 516.7.3 142.4-142.3 142.3-374.1-.3-516.7zm-19.6 496.8c-131.4 131.4-345.3 131.2-476.8-.3-131.6-131.6-131.7-345.4-.3-476.8 131.4-131.4 345.3-131.3 476.8.3 131.5 131.5 131.6 345.4.3 476.8z"/><path fill="none" d="M1004.4 679.5c-81.7-81.7-214.5-81.8-296.1-.3-81.5 81.5-81.4 214.4.3 296.1 81.7 81.7 214.5 81.8 296.1.3 81.5-81.5 81.5-214.4-.3-296.1zm-19.9 275.9c-70.5 70.5-185.3 70.5-255.9 0s-70.6-185.3 0-255.9c70.5-70.5 185.3-70.5 255.9 0 70.5 70.5 70.5 185.3 0 255.9z"/><path fill="none" d="M1170.5 513.5c-172.9-173-454.5-172.8-627.6.3-173.1 173.1-173.3 454.7-.3 627.6 172.9 173 454.5 172.8 627.6-.3 173.1-173.1 173.2-454.7.3-627.6zm-20.2 607.7c-161.8 161.8-425.2 161.6-587.1-.3-162-162-162.1-425.3-.3-587.1C724.6 371.9 988 372.1 1150 534c161.9 162 162 425.4.3 587.2z"/><path fill="none" d="M949.3 734.7c-51.1-51.1-134.3-51.1-185.5 0-51.1 51.1-51.1 134.3 0 185.4 51.2 51.1 134.3 51.1 185.4 0 51.2-51.1 51.2-134.3.1-185.4zm-20 165.5L894.1 865c20.7-20.7 20.7-54.4 0-75.1-20.7-20.7-54.4-20.7-75.1 0-20.7 20.7-20.7 54.4 0 75.1l-35.2 35.2c-40.1-40.1-40.1-105.4 0-145.5 40.1-40.1 105.4-40.1 145.6 0 40 40.1 40 105.4-.1 145.5z"/><path fill="none" d="M1059.6 624.4c-112.1-112.1-294.4-112.3-406.4-.3s-111.8 294.3.3 406.4c112.1 112.1 294.4 112.3 406.4.3 111.9-112 111.8-294.3-.3-406.4zm-19.7 386.4c-100.9 101-265.4 100.8-366.5-.3C572.3 909.4 572.2 745 673.1 644s265.4-100.8 366.5.3c101.2 101.2 101.3 265.6.3 366.5z"/><path fill="none" d="M1225.6 458.3c-203.4-203.4-534.4-203.2-738 .3-203.5 203.6-203.7 534.6-.3 738 203.4 203.4 534.4 203.3 738-.3 203.6-203.6 203.7-534.6.3-738zm-20.2 718c-192.5 192.5-505.7 192.7-698 .3-192.4-192.4-192.2-505.5.3-698s505.7-192.7 698.1-.3c192.3 192.3 192.1 505.5-.4 698z"/><path fill="#C46158" d="M1094.8 589.2c-131.5-131.6-345.4-131.7-476.8-.3-131.4 131.4-131.2 345.3.3 476.8s345.4 131.6 476.8.3c131.3-131.4 131.2-345.3-.3-476.8zm-34.9 441.6c-112 112-294.3 111.8-406.4-.3-112.1-112.1-112.3-294.4-.3-406.4s294.3-111.8 406.4.3c112.1 112.1 112.2 294.4.3 406.4z"/><path fill="#C46158" d="M1150 534c-162-162-425.3-162.1-587.2-.3-161.8 161.8-161.6 425.2.3 587.1 162 161.9 425.3 162.1 587.1.3C1312 959.4 1311.9 696 1150 534zm-35 551.9c-142.4 142.4-374.2 142.2-516.7-.3-142.5-142.5-142.6-374.3-.3-516.7 142.4-142.4 374.2-142.3 516.7.3 142.6 142.6 142.7 374.4.3 516.7z"/><path fill="#C46158" d="M1039.6 644.3c-101.1-101.1-265.5-101.2-366.5-.3s-100.8 265.4.3 366.5c101.1 101.1 265.5 101.2 366.5.3s100.9-265.3-.3-366.5zm-34.9 331.3c-81.5 81.5-214.3 81.4-296.1-.3-81.7-81.7-81.8-214.5-.3-296.1 81.5-81.5 214.4-81.4 296.1.3 81.8 81.7 81.8 214.6.3 296.1z"/><path fill="#C46158" d="M1205.7 478.3c-192.4-192.4-505.5-192.2-698.1.3-192.5 192.5-192.7 505.7-.3 698 192.4 192.4 505.5 192.2 698-.3 192.6-192.5 192.8-505.7.4-698zm-35.5 662.8c-173.1 173.1-454.7 173.3-627.6.3-173-172.9-172.8-454.5.3-627.6 173.1-173.1 454.7-173.3 627.6-.3 172.9 172.9 172.8 454.5-.3 627.6z"/><path fill="#C46158" d="M1448 924.7c-19.6 119.7-75.3 234.6-167.5 326.7-92.1 92.2-207 147.9-326.7 167.5 104.2 4.6 202-16.8 283.7-65.5 27.4-19.8 53.6-42 78.2-66.7 24.7-24.7 46.9-50.9 66.7-78.3 48.8-81.7 70.1-179.6 65.6-283.7z"/><path fill="#C46158" d="M1425.8 779.4c-38.1-147.4-123.1-298-251.4-426.3-1.1-1.1-2.2-2.1-3.3-3.2-221.7-146-523.6-121.5-718.6 73.5S233 920.3 378.9 1142c1.1 1.1 2.1 2.2 3.2 3.4 128.3 128.3 278.9 213.3 426.3 251.4 161.9 13.4 328.5-41.6 452.1-165.2 123.7-123.8 178.7-290.4 165.3-452.2zm-938.4 417.2c-203.4-203.4-203.2-534.4.3-738 203.6-203.5 534.6-203.7 738-.3 203.4 203.4 203.3 534.4-.3 738-203.6 203.5-534.6 203.6-738 .3z"/><path fill="#C46158" d="M984.5 699.5c-70.5-70.5-185.3-70.5-255.9 0s-70.6 185.3 0 255.9c70.5 70.6 185.3 70.6 255.9 0 70.5-70.6 70.5-185.4 0-255.9zm-35.3 220.6c-51.1 51.1-134.3 51.1-185.4 0-51.1-51.1-51.1-134.3 0-185.4 51.2-51.1 134.3-51.1 185.5 0 51.1 51.1 51.1 134.3-.1 185.4z"/><path fill="#C46158" d="M929.3 754.7c-40.1-40.1-105.4-40.1-145.6 0-40.1 40.1-40.1 105.4 0 145.5L819 865c-20.7-20.7-20.7-54.4 0-75.1 20.7-20.7 54.4-20.7 75.1 0 20.7 20.7 20.7 54.4 0 75.1l35.2 35.2c40.1-40.1 40.1-105.4 0-145.5zM468 88.9c-88.3 17.2-167.8 56.5-230.6 119.4C174.6 271.2 135.3 350.6 118 439c38.7-73.2 88.5-141.1 148.7-201.3C327 177.4 394.8 127.6 468 88.9z"/><path fill="#C46158" d="M693.1 89.7c-46-8.2-91.3-11.8-135.3-10.5-98.8 39.3-191.3 98.7-271.1 178.5-79.8 79.8-139.2 172.3-178.5 271.1-1.3 43.9 2.3 89.3 10.6 135.3C148.7 528 216.3 398.6 321.9 293 427.5 187.2 557 119.6 693.1 89.7z"/><path fill="#C46158" d="M377.1 348c139.4-139.4 324.8-205.2 507.8-197.6-40.1-18.2-80.5-33.1-120.9-44.4-154.4 19.6-303.8 88.4-422.1 206.8-118.4 118.3-187.2 267.7-206.8 422.1 11.3 40.3 26.2 80.8 44.4 120.9-7.6-183 58.2-368.4 197.6-507.8z"/><path fill="#C46158" d="M432.5 403.4C608.2 227.8 866.4 184 1083.1 271.9c-41.7-32.9-84.9-61.8-129-86.4-197.1-29.6-405.3 31.3-556.8 182.7C245.9 519.7 185 727.9 214.5 925c24.7 44.1 53.5 87.3 86.5 129-87.9-216.7-44.1-474.9 131.5-650.6z"/></svg>