<svg xmlns:xlink="http://www.w3.org/1999/xlink"  xmlns="http://www.w3.org/2000/svg" viewBox="0 0 1500 1500"><path fill="#25B9E4" d="M1264.5 324c52.2 71 83.1 158.6 83.1 253.3 0 141-68.5 266.3-173.9 344.5l44.6 55.2c31.3-17.1 71.2-10 94.4 18.7 26.1 32.3 21.1 79.7-11.2 105.8-32.3 26.1-79.7 21.1-105.8-11.2-23.2-28.7-21.7-69.2 1.6-96.2l-45.9-56.8c-62.4 40.4-135.9 65.1-214.9 68.2l11 196.4c35.4 4.4 63.6 33.4 65.7 70.3 2.3 41.5-29.4 77-70.9 79.3-41.5 2.3-77-29.4-79.3-70.9-2.1-36.9 22.8-68.8 57.5-77.2l-11.1-197.7c-100-2.3-191.8-38.8-263.7-98.6l-139 181.2c23.9 26.4 26.4 66.9 4 96.1-25.3 33-72.5 39.2-105.5 13.9-33-25.3-39.2-72.5-13.9-105.5 22.5-29.3 62.2-37.3 93.9-21.1L625.3 889C573 839.6 533 777.3 510.6 707.2l-190 81.1c7.9 34.8-9.8 71.2-43.7 85.7-38.2 16.3-82.4-1.4-98.7-39.6-16.3-38.2 1.5-82.4 39.7-98.7 34-14.5 72.5-2 92.1 27.7L503.2 681c-8.3-33.2-12.7-67.9-12.7-103.7 0-32.6 3.8-64.3 10.7-94.8l-143.7-30.1c-13.4 33-48.8 52.8-84.9 45.2-40.7-8.5-66.7-48.4-58.2-89 8.5-40.7 48.4-66.7 89-58.2 36.1 7.6 60.6 39.9 59.6 75.5l145 30.4c19.6-66.3 54.8-125.9 101.3-174.7l-42.4-46.9c-22.7 14.1-52.9 10.5-71.5-10.1-20.9-23.1-19.1-58.8 4-79.7 23.1-20.9 58.8-19.1 79.7 4 18.6 20.6 19.1 50.9 2.8 72.1l41.7 46.2c76.9-73.3 180.9-118.4 295.3-118.4 91.1 0 175.7 28.7 245.2 77.4C1046.6 132.7 902 81.8 749.6 81.8c-178.6 0-346.5 69.5-472.8 195.8C150.5 403.9 81 571.8 81 750.4c0 368.7 299.9 668.6 668.6 668.6 178.6 0 346.5-69.5 472.7-195.8 126.3-126.3 195.8-294.2 195.8-472.8 0-157.6-54.2-306.7-153.6-426.4z"/><path fill="#00A9DE" d="M1230.8 269.2C1102.3 140.6 931.4 69.8 749.6 69.8s-352.7 70.8-481.2 199.3S69 568.6 69 750.4c0 375.3 305.3 680.6 680.6 680.6 181.8 0 352.7-70.8 481.2-199.3s199.3-299.5 199.3-481.3-70.7-352.7-199.3-481.2zM749.6 1419C380.9 1419 81 1119.1 81 750.4c0-178.6 69.5-346.5 195.8-472.7C403.1 151.4 571 81.8 749.6 81.8c152.4 0 297 50.8 414.6 144.2-69.5-48.7-154-77.4-245.2-77.4-114.4 0-218.4 45.1-295.3 118.4l16.1 17.8c72.7-69.4 171-112.2 279.2-112.2 223.1 0 404.6 181.5 404.6 404.6 0 133.5-65 252.1-165 325.8l15.1 18.7c105.4-78.2 173.9-203.5 173.9-344.5 0-94.7-30.9-182.3-83.1-253.3 99.5 119.7 153.7 268.9 153.7 426.4 0 178.6-69.5 346.5-195.8 472.8-126.3 126.3-294.2 195.9-472.8 195.9z"/><path fill="#00A9DE" d="M907.9 981.6c-94-2.6-180.2-37.3-247.7-93.6l-14.6 19c71.9 59.7 163.6 96.3 263.7 98.6l-1.4-24zM531.5 461.1c18.4-61.3 51-116.5 93.9-161.8l-16.1-17.8c-46.6 48.7-81.8 108.4-101.3 174.7l23.5 4.9zM1136.1 918.4c-58.6 37.4-127.3 60.2-201.1 63l1.3 24c79-3.2 152.5-27.8 214.9-68.2l-15.1-18.8zM525.6 671.4c-7.2-30.2-11.2-61.7-11.2-94.1 0-30.9 3.6-61 10.2-89.9l-23.5-4.9c-6.9 30.5-10.7 62.2-10.7 94.8 0 35.7 4.5 70.5 12.7 103.7l22.5-9.6zM640 869.8C590.9 823 553.5 764 532.8 697.7l-22.1 9.4C533 777.3 573 839.6 625.3 889l14.7-19.2z"/><path fill="#6B6D75" d="M1020.1 758.4l-5.9-24.5-46.4-191.2c35.1-17.8 59.3-54.2 59.3-96.3 0-59.6-48.4-108-108-108s-108 48.3-108 108c0 42.1 24.1 78.5 59.3 96.3l-52.3 217S803.3 803 847.7 803h142.9c23.6 0 30.4-13.2 31.6-24.3 1.1-9.8-2.1-20.3-2.1-20.3z"/><path fill="#C7C6C9" d="M558.5 494.4c-6.1 26.9-9.4 54.6-9.4 82.8 0 27.6 3.1 54.4 8.9 80.3 2 9 4.3 17.8 6.9 26.5 18.4 60.8 52 114.9 96.3 158.1 6.5 6.3 13.2 12.4 20.1 18.2 61.2 51.5 139.3 83.4 224.6 86.4 4.3.2 8.7.3 13 .3 4.7 0 9.4-.2 14.1-.3 65-2.4 127.1-21.6 181.2-55.4 7.7-4.8 15.2-9.8 22.5-15.2 15.4-11.2 30-23.7 43.7-37.4C1250.5 769 1289 676.1 1289 577.3c0-98.8-38.5-191.7-108.4-261.6-69.9-69.9-162.8-108.3-261.6-108.3-96.3 0-186.9 36.6-256.1 103.1-1.8 1.7-3.7 3.4-5.5 5.2-3 3-5.9 6.2-8.8 9.3-38.7 41.4-67 90.2-83.2 143.2-2.7 8.6-4.9 17.4-6.9 26.2zm113.6-164.1c1.5-1.5 3.1-3 4.7-4.5 65.4-63 151.1-97.8 242.2-97.8 93.3 0 181 36.3 246.9 102.3 66 66 102.3 153.7 102.3 246.9 0 93.3-36.3 181-102.3 246.9-13.2 13.2-27.3 25.1-42.1 35.9-7.4 5.4-14.9 10.4-22.6 15.1-50.7 31.1-108.6 48.7-169.3 50.9-4.3.2-8.6.3-12.9.3-4.8 0-9.5-.2-14.2-.4-80.2-3.2-153.4-33.6-210.9-82.1-6.9-5.9-13.6-12-20.1-18.3-41.6-41-72.9-92.4-89.8-149.8-2.6-8.7-4.9-17.6-6.8-26.6-4.9-23.3-7.5-47.3-7.5-72 0-26.8 3.1-53.1 8.9-78.6 2-8.8 4.4-17.6 7.1-26.2 15.3-48.8 41.2-93.7 76.7-132.1 3.3-3.2 6.4-6.6 9.7-9.9z"/></svg>