<svg xmlns:xlink="http://www.w3.org/1999/xlink"  xmlns="http://www.w3.org/2000/svg" viewBox="0 0 150 150"><path fill="none" d="M51.3 63.2c-.1.8-.1 1.6-.1 2.3 0 .7-.3 1.7-.8 2.9.5 0 1-.4 1.5-1.2.5-.8.8-1.7 1.1-2.6.8-2 1-4.1.6-6.1-.1-.8-.4-1.3-.8-1.5-1.1-.7-2-.6-2.6.1-.4.5-.3 1.1.3 1.8.7.8 1 2.2.8 4.3zM51.6 82.8c0-1.8-.9-2.7-2.7-2.7-1.8 0-2.7.9-2.7 2.7 0 1.8.9 2.7 2.7 2.7 1.8.1 2.7-.9 2.7-2.7zM57 45c-.6.4-.7 1-.4 1.8.5 1.2.2 2.6-.8 4.2-.9 1.4-1.9 2.5-3.2 3.2 1.5-.2 2.9-1 4.4-2.3 1.6-1.4 2.5-2.8 2.7-4.3.1-.8 0-1.4-.4-1.9-.7-.9-1.5-1.2-2.3-.7z"/><path fill="none" d="M53.7 74.2c-1 .4-1.2 1.4-.6 3 .3.6.6 1.3.7 2 .2.6.3 1.3.4 1.9.1.3.1.6.1.8 0 1.5-.5 2.8-1.6 3.9s-2.3 1.6-3.8 1.6c.9.6 1.7.9 2.6.9 1.6 0 2.9-.7 4-2.2 1.1-1.5 1.6-3.3 1.6-5.4 0-1.4-.2-2.7-.7-3.8-.1-.2-.1-.3-.2-.4 0-.1-.1-.2-.2-.4-.6-1.5-1.4-2.2-2.3-1.9zM86.7 133l.8-1.2c-.7-.3-1.3-.6-2-1.1-.5.5-1 .9-1.5 1.3.9.4 1.8.7 2.7 1zM10.1 42.6l.7 1.3c.6-.4 1.3-.8 1.9-1.2-.1-.6-.2-1.3-.3-2-.9.7-1.6 1.3-2.3 1.9zM80.9 35.5c-.6-.1-1.1.2-1.5 1.1-.5 1.2-1.6 2-3.5 2.5-1.2.3-2.3.4-3.4.2 1.2.9 2.4 1.2 3.7 1.1 2.2-.2 3.7-.6 4.5-1.2.6-.4 1-.9 1-1.6.4-1.3.1-2-.8-2.1zM68.4 38.2c-.7 0-1.1.5-1.3 1.4-.3 1.4-1.3 2.5-3 3.4-1.6.8-2.8 1.2-3.4 1.2.9.5 2.2.6 3.9.3 1.9-.3 3.4-1.1 4.4-2.3.5-.6.8-1.2.8-1.9-.1-1.5-.5-2.1-1.4-2.1z"/><path fill="none" d="M40.6 32c-7.2 2.2-13.2 4.2-18 6.1 2.3 13.3 6.6 25.9 12.7 37.8 7 13.5 15.9 25.5 26.9 36.1 5.5 5.2 10.3 9.4 14.3 12.6 10.3-8.7 19.1-18.7 26.3-29.9 8.2-12.7 14.1-26.6 17.8-41.3 1.8-7.3 3-13.6 3.8-18.7-12.6-4.6-25.7-7.2-39.1-7.8-15.1-.9-30.1.9-44.7 5.1zm59.7 33.6c-1.1 0-2.2.1-3.3.1-1.8.3-3.6.6-5.3.8-3 1.1-4.7 1.5-5.1 1.3 1.6 1.3 3.2 2.4 4.9 3.3 1.6.9 3.6 1.9 5.8 2.9.6.5 1.4.8 2.5.8s1.5.6 1.2 1.8c0 3-.1 6.1-.3 9.1-.2 3.1-.2 6.3-.1 9.6-1.6-.2-3.1-.5-4.5-.9-1.5-.4-2.9-1.1-4.4-2.1-2.6-.9-4.9-2.1-7-3.6-2-1.5-4.3-2.9-6.6-4.3-4.7 4.7-9.8 7.1-15.3 7.3.1-1.9.5-3.8 1.3-5.8s1.4-4 1.7-6c-2.9-2.7-4.6-6-5.3-9.9-.7-3.9-.3-7.6 1-11.1 2.2-6.4 7.1-10.5 14.7-12.1 2.9-.3 5.7-.3 8.4 0s5.4 1.3 7.9 3c2.6 2 5 4.2 7.1 6.4 2.1 2.2 3.5 5.3 4.2 9.2-1.3.2-2.4.2-3.5.2zm-9.6-32.9c1.6.3 3 .9 4.3 1.7 1.3-1 2.7-1.5 4.2-1.5 1.9 0 3.5.7 4.9 2 1.3 1.4 2 3 2 4.9 0 1.9-.7 3.5-2 4.9-1.3 1.3-3 2-4.9 2-1.2 0-2.3-.3-3.4-.9-1-.5-1.9-1-2.8-1.3l-2 4.4-2.5-1.2 1.9-4.2c-2.8-.8-5.6-1.2-8.4-1.2-7.2 0-13.4 2.2-18.5 6.7s-7.7 9.8-7.7 16.1c0 3.3.8 6.5 2.3 9.5l2.1-1.1 1.2 2.5-2.2 1.1c.3 1.1.5 2.3.5 3.6 0 2.9-.8 5.3-2.4 7.3-1.6 2-3.6 3-5.9 3-1.9 0-3.6-.7-5.1-2.2-1.5-1.5-2.5-3.3-3-5.6-.1-.4-.2-.9-.2-1.3 0-1.5.5-2.8 1.6-3.9s2.3-1.6 3.9-1.6c.2 0 .5 0 .9.1-2.2-5-2.9-10.2-2.1-15.4-.9-2.1-.8-4.5.1-7.1.9-2.6 2.3-4.3 4.3-5.4.3-2 1.3-4 3.1-5.7 1.9-1.8 3.8-2.8 5.7-3 1.1-2 2.9-3.4 5.5-4.4 2-.7 3.9-.9 5.7-.5 1.5-1.5 3.6-2.4 6.3-2.6 2.2-.2 4.2.2 5.9 1.1 2-.9 4.1-1.2 6.7-.8zM125.3 23.6c0-.7 0-1.4-.1-2.1.1.6.1 1.4.1 2.1.6.3 1.2.5 1.8.8v-.1c-.6-.2-1.2-.4-1.8-.7z"/><path fill="none" d="M85.2 39.3c.3.3.8.5 1.7.7 1.8.3 3.4.1 4.9-.6.7-.3 1.1-.8 1.3-1.4.4-1.1.2-1.8-.6-2.1-.6-.2-1.2 0-1.7.8-.7 1-2 1.6-3.8 1.8-1.2.1-2.1.1-2.7-.2.3.3.6.7.9 1zM96.1 43.2c2.4 1.4 4.3.9 5.7-1.5 1.4-2.4.9-4.3-1.5-5.6.8 1.6.4 3.2-1 4.7-1.1.9-2.7 1.2-4.7 1 .4.5.9 1 1.5 1.4z"/><path fill="#1AA94B" d="M92.3 50c-2.5-1.7-5.1-2.7-7.9-3-2.7-.3-5.5-.3-8.4 0-7.6 1.7-12.5 5.7-14.7 12.1-1.3 3.5-1.7 7.2-1 11.1.7 3.9 2.4 7.2 5.3 9.9-.4 2-1 4-1.7 6-.8 2-1.2 3.9-1.3 5.8 5.6-.2 10.7-2.6 15.3-7.3 2.4 1.4 4.6 2.8 6.6 4.3s4.4 2.7 7 3.6c1.5 1 2.9 1.7 4.4 2.1 1.5.4 3 .7 4.5.9-.1-3.3 0-6.5.1-9.6.2-3.1.3-6.1.3-9.1.3-1.2-.1-1.8-1.2-1.8-1.1 0-2-.2-2.5-.8-2.3-1.1-4.2-2-5.8-2.9-1.6-.9-3.3-2-4.9-3.3.4.2 2.2-.2 5.1-1.3 1.8-.3 3.5-.5 5.3-.8 1.1 0 2.2-.1 3.3-.1 1.1 0 2.2-.1 3.3-.1-.7-3.9-2.1-6.9-4.2-9.2-1.9-2.3-4.3-4.5-6.9-6.5zM94 62.2c-1 0-2.5-.4-4.2-.7-1.7-.4-3.7-.7-5.7-.7-1.6 0-3.3.2-4.9.9-6.7 2.9-10 12.6-12.9 12.6-.8 0-1.4-.7-2.2-2.6-.9-2.1-1.2-4.3-1.2-6.5V65c0-6.4 3.6-12.7 9.9-15.5 2.2-.9 4.2-1.6 6.5-1.6 6.4 0 12.6 3.9 15.3 10.2.5 1.2.7 2.1.7 2.7.2 1-.4 1.4-1.3 1.4z"/><path fill="#1AA94B" d="M78.3 32.5c-2.7.3-4.8 1.1-6.3 2.6-1.7-.4-3.7-.2-5.7.5-2.6 1-4.4 2.5-5.5 4.4-2 .2-3.9 1.2-5.7 3-1.7 1.8-2.7 3.7-3.1 5.7-1.9 1-3.4 2.8-4.3 5.4-.9 2.6-1 5-.1 7.1-.8 5.2-.1 10.3 2.1 15.4-.4-.1-.7-.1-.9-.1-1.5 0-2.8.5-3.9 1.6s-1.6 2.4-1.6 3.9c0 .5.1.9.2 1.3.5 2.3 1.5 4.1 3 5.6s3.2 2.2 5.1 2.2c2.3 0 4.2-1 5.9-3 1.6-2 2.4-4.5 2.4-7.3 0-1.3-.2-2.5-.5-3.6l2.2-1.1-1.2-2.5-2.1 1.1c-1.6-3-2.3-6.2-2.3-9.5 0-6.2 2.6-11.6 7.7-16.1 5.1-4.5 11.3-6.7 18.5-6.7 2.8 0 5.6.4 8.4 1.2l-1.9 4.2 2.5 1.2 2-4.4c.8.3 1.7.8 2.8 1.3 1.1.6 2.2.9 3.4.9 1.9 0 3.5-.7 4.9-2 1.3-1.3 2-3 2-4.9 0-1.9-.7-3.5-2-4.9-1.3-1.4-3-2-4.9-2-1.6 0-3 .5-4.2 1.5-1.2-.8-2.7-1.4-4.3-1.7-2.5-.4-4.7-.1-6.5.9-1.9-1-3.8-1.3-6.1-1.2zM50.2 57.2c.6-.8 1.5-.8 2.6-.1.4.2.7.7.8 1.5.3 2 .1 4-.6 6.1-.3.9-.7 1.7-1.1 2.6-.5.8-1 1.2-1.5 1.2.5-1.2.8-2.2.8-2.9 0-.8.1-1.5.1-2.3.1-2.1-.1-3.5-.8-4.2-.6-.7-.7-1.3-.3-1.9zm-4.1 25.6c0-1.8.9-2.7 2.7-2.7 1.8 0 2.7.9 2.7 2.7 0 1.8-.9 2.7-2.7 2.7-1.8.1-2.7-.9-2.7-2.7zm10-6.7c.1.2.1.3.2.4 0 .1.1.2.2.4.5 1.2.7 2.5.7 3.8 0 2.1-.5 3.9-1.6 5.4-1.1 1.5-2.4 2.2-4 2.2-.9 0-1.8-.3-2.6-.9 1.5 0 2.8-.5 3.8-1.6 1.1-1 1.6-2.3 1.6-3.9 0-.2 0-.5-.1-.8-.1-.6-.2-1.3-.4-1.9-.2-.7-.4-1.4-.7-2-.6-1.6-.4-2.6.6-3 .8-.3 1.6.4 2.3 1.9zm3.6-28.5c-.2 1.5-1.1 2.9-2.7 4.3-1.5 1.3-2.9 2.1-4.4 2.3 1.2-.7 2.3-1.8 3.2-3.2 1-1.6 1.3-3 .8-4.2-.4-.8-.2-1.4.4-1.8.8-.5 1.6-.3 2.3.7.4.5.5 1.1.4 1.9zm9.2-5.6c-1 1.2-2.5 2-4.4 2.3-1.6.3-2.9.2-3.9-.3.6.1 1.8-.3 3.4-1.2 1.7-.8 2.7-1.9 3-3.4.2-.9.6-1.4 1.3-1.4.9 0 1.3.7 1.3 2 .1.8-.1 1.4-.7 2zm12.9-4.6c-.1.6-.4 1.2-1 1.6-.8.6-2.3 1-4.5 1.2-1.3.1-2.6-.2-3.7-1.1 1 .2 2.1.2 3.4-.2 1.8-.5 3-1.3 3.5-2.5.4-.8.9-1.2 1.5-1.1.8.3 1.1 1 .8 2.1zm17.5 3.3c1.4-1.6 1.7-3.1 1-4.7 2.4 1.3 2.9 3.2 1.5 5.6-1.4 2.4-3.3 3-5.7 1.5-.6-.4-1.1-.9-1.5-1.5 2.1.3 3.6 0 4.7-.9zm-12.4-2.3c1.9-.2 3.1-.8 3.8-1.8.5-.7 1-1 1.7-.8.8.3 1.1 1 .6 2.1-.2.6-.6 1-1.3 1.4-1.4.7-3 .9-4.9.6-.9-.2-1.4-.4-1.7-.7-.3-.3-.6-.6-1-1.1.7.4 1.6.5 2.8.3z"/><path fill="#075EAB" d="M127.1 24.3c-.1-1-.3-1.9-.5-2.8l-1.4-.1c.1.7.1 1.4.1 2.1.6.4 1.2.6 1.8.8z"/><path fill="#5AB947" d="M86.7 133c-.9-.3-1.8-.6-2.7-1-5.3 4.3-9.8 7.3-13.8 9.2l.3.7c6.9-1.5 14.7-5.4 23.4-11.8 8.8-6.4 16.6-15.1 23.6-26 13.5-21 18.6-40.7 15.2-59.1h-.7c-2 19.8-8.6 38.5-19.9 56-6.2 9.6-13.4 18.1-21.6 25.4-1.8 1.6-3.5 3.1-5.1 4.4.7.4 1.3.7 2 1.1l-.7 1.1zM142.4 31.1c-4.7-5.3-12.1-10-22-14.4-9.9-4.3-21.3-6.8-34.3-7.4-24.9-1.2-44.5 4.3-58.9 16.4l.5.6c18.1-8.2 37.6-11.8 58.4-10.8 11.4.5 22.3 2.5 32.8 6 2.3.7 4.4 1.5 6.4 2.2 0-.7 0-1.5-.1-2.2l1.4.1c.2.9.4 1.8.5 2.8v.1c6.3 2.4 11.2 4.8 14.8 7.3l.5-.7z"/><path fill="#0A2335" d="M125.1 28.7c-12.1-4.8-25.7-7.5-40.8-8.2-7.3-.3-14.6-.1-21.8.8-7.1.9-14.1 2.4-20.8 4.5-7.5 2.4-14.1 5.2-19.8 8.5-1.8 1-3.6 2.1-5.2 3.2-1.6 1-3 2.1-4.4 3.3.1.6.2 1.3.3 2 1.3-.8 2.8-1.6 4.5-2.4 1.9 12.9 6.4 26 13.3 39.4 3.4 6.6 7.2 12.7 11.6 18.5 4.3 5.8 9 11 14.3 15.8 5.8 5.3 11.6 9.6 17.3 12.9 1.8 1.1 3.6 2.1 5.4 2.9 1.7.8 3.4 1.5 5.1 2.1.5-.4 1-.8 1.5-1.3-1.3-.7-2.8-1.7-4.2-2.7 10.2-8.1 19.3-18.5 27.5-31.2 4-6.2 7.4-12.7 10.2-19.3 2.8-6.7 5-13.4 6.6-20.3 1.7-7.7 2.5-14.8 2.5-21.4 0-2.1 0-4.2-.2-6.2-.1-1.8-.3-3.7-.7-5.4-.6-.2-1.2-.5-1.9-.7-.1 1.6-.2 3.4-.3 5.2zm-4.5 24.6c-3.6 14.8-9.6 28.6-17.8 41.3-7.3 11.3-16 21.2-26.3 29.9-4-3.2-8.8-7.4-14.3-12.6-10.9-10.6-19.9-22.6-26.9-36.1C29.1 63.9 24.9 51.3 22.6 38c4.8-1.8 10.8-3.9 18-6.1 14.6-4.2 29.6-5.9 44.7-5.2 13.4.6 26.4 3.2 39.1 7.8-.8 5.2-2.1 11.4-3.8 18.8z"/><path fill="#5AB947" d="M10.1 42.6c.7-.6 1.4-1.2 2.2-1.8-1.1-6.6-1.4-12.1-1-16.5l-.8-.1C8.3 30.9 7.8 39.6 9 50.4c1.2 10.8 4.8 21.9 10.7 33.4 11.5 22.2 25.9 36.4 43.6 42.8l.4-.7c-16.2-11.6-29-26.6-38.6-45.2-5.2-10.2-9-20.6-11.2-31.4-.5-2.3-.9-4.5-1.3-6.6-.6.4-1.3.7-1.9 1.2l-.6-1.3z"/><path fill="#4B9D42" d="M79.5 48c-2.3 0-4.3.6-6.5 1.6-6.3 2.7-9.9 9-9.9 15.5v.2c0 2.2.3 4.4 1.2 6.5.8 1.8 1.5 2.6 2.3 2.6 2.9 0 6.2-9.7 12.9-12.6 1.6-.7 3.2-.9 4.9-.9 2 0 4 .4 5.7.7 1.7.4 3.2.7 4.2.7.9 0 1.4-.3 1.4-1.2 0-.6-.2-1.6-.7-2.8C92 51.9 85.9 48 79.5 48z"/></svg>