<svg xmlns:xlink="http://www.w3.org/1999/xlink"  xmlns="http://www.w3.org/2000/svg" viewBox="0 0 150 150"><path fill="none" d="M45.8 94.9c2.9 2.6 6.1 4.8 9.3 6.6C47.7 95.3 43 86 43 75.5c0-9.7 4.1-18.5 10.8-24.7.5-.4 1-.9 1.4-1.3-.8.4-1.5.9-2.2 1.3-.6.4-1.1.7-1.7 1.1-8.2 5.5-15.1 13.5-20 23.6C35 83.3 40 89.8 45.8 94.9zM58.1 69.5c1.2 1.3 3 2.1 4.9 2.1 3.8 0 6.8-3.1 6.8-6.8 0-2.5-1.3-4.7-3.4-5.9-1-.6-2.2-1-3.5-1-3.8 0-6.8 3.1-6.8 6.8.1 1.9.9 3.5 2 4.8zM110.6 75.5c0 7.3-2.3 14-6.2 19.5-1.7 2.4-3.7 4.6-6 6.4 4.3-2.3 8.3-5.3 11.9-8.9 4.7-4.7 8.9-10.4 12.1-17-5.7-11.6-14.1-20.6-24-26 7.4 6.3 12.2 15.6 12.2 26z"/><path fill="none" d="M76.8 12.9C58.5 12.9 39 19 26.1 24.2l-1.1.3v50.9l.6-1c.5-1 .8-2 1.3-2.9.4-.7 1-1.5 1-2.2V26.6l1.8-.6c11.8-4.7 29.4-10.3 46.2-10.3 17.1 0 35.1 5.5 47 10l1.9.6v31.4c-11-11.7-24.9-18.5-39.7-18.5h-.2c16 2.7 30.3 13.3 39.6 29.2 1.1 1.9 2.1 3.9 3.1 5.9l.5 1.1-.5 1.1.1.1c-.9 2-1.9 3.9-2.9 5.8v3.8c0 7-9.5 18-25.1 29.5-8 5.9-16.3 10.9-21.8 14l-1.3.7-1.3-.7c-5.5-3-13.8-7.9-22-13.8-12.5-9-21-17.7-23.9-24.4 10.9 13.9 26.2 22.1 42.6 22.1 5.6 0 11.1-1 16.4-2.8-3.4.8-6.9 1.3-10.5 1.4h-1.3c-19.4 0-37.5-11.6-48.3-30.7-.9-1.7-2-3.4-2.8-5.1l-.6-1v15.1c0 7.1 10.6 19 27.4 31.1 8.9 6.4 18.2 11.8 24.3 15.1l.8.4.8-.4c6-3.4 14.9-8.9 23.8-15.4 16.6-12.3 26.9-24.4 26.9-31.6V24.3l-.9-.4c-13-5-32.5-11-51.2-11z"/><path fill="#5ABB92" d="M76.8 103.6c15.5 0 28.1-12.6 28.1-28.1S92.3 47.4 76.8 47.4 48.7 60 48.7 75.5s12.6 28.1 28.1 28.1zM63.1 57.9c1.3 0 2.5.4 3.5 1 3-1.8 6.5-2.9 10.2-2.9 10.8 0 19.6 8.8 19.6 19.6s-8.8 19.6-19.6 19.6-19.6-8.8-19.6-19.6c0-2.1.3-4.2 1-6.1-1.2-1.2-1.9-2.9-1.9-4.7-.1-3.8 3-6.9 6.8-6.9z"/><path fill="#F69220" d="M28.5 81.8c10.8 19.1 28.9 30.7 48.3 30.7h1.3c3.6-.1 7.1-.6 10.5-1.4 14.5-3.6 27.5-13.7 36.1-28.5 1.1-1.9 2.1-3.8 3.1-5.8 0 0 0-.1.1-.1l.5-1.1-.5-1.1c-1-2.1-2-4-3.1-5.9-9.3-15.9-23.7-26.5-39.7-29.2-2.7-.5-5.4-.7-8.2-.7-19.4 0-37.5 11.6-48.3 30.7-.4.7-.8 1.4-1.2 2.2-.5 1-1.2 1.9-1.6 2.9l-.6 1v.3l.6 1c.7 1.6 1.7 3.3 2.7 5zm93.9-6.3c-3.2 6.6-7.3 12.3-12.1 17-3.6 3.6-7.6 6.6-11.9 8.9 2.3-1.9 4.3-4 6-6.4 3.9-5.5 6.2-12.3 6.2-19.5 0-10.4-4.8-19.8-12.2-26 9.8 5.4 18.3 14.4 24 26zM76.8 47.4c15.5 0 28.1 12.6 28.1 28.1s-12.6 28.1-28.1 28.1S48.7 91 48.7 75.5s12.6-28.1 28.1-28.1zM51.2 52c.6-.4 1.1-.7 1.7-1.1.7-.5 1.5-.9 2.2-1.3-.5.4-1 .8-1.4 1.3C47.1 57 43 65.8 43 75.5c0 10.4 4.7 19.8 12.2 26-3.3-1.8-6.4-4-9.3-6.6C40 89.8 35 83.3 31.2 75.5c4.9-10 11.9-18.1 20-23.5z"/><path fill="#2E4548" d="M76.5 38.6c2.8 0 5.6.2 8.3.7h.4c14.9 0 28.8 6.8 39.8 18.5V26.4l-1.8-.6c-11.9-4.6-29.8-10-46.9-10-16.8 0-34.6 5.6-46.4 10.3l-1.9.5v42.7c11-19.1 29.1-30.7 48.5-30.7zM88.7 111.1c-5.3 1.8-10.8 2.8-16.5 2.8-16.3 0-31.7-8.2-42.6-22.1 2.9 6.7 11.4 15.4 23.9 24.4 8.1 5.8 16.4 10.7 21.9 13.8l1.3.7 1.3-.7c5.5-3.1 13.9-8.1 21.9-14 15.6-11.5 25.1-22.5 25.1-29.5v-3.8c-9 14.6-21.7 24.8-36.3 28.4z"/><path fill="#2E4548" d="M69.9 64.7c0 3.8-3.1 6.8-6.8 6.8-1.9 0-3.7-.8-4.9-2.1-.6 1.9-1 3.9-1 6.1 0 10.8 8.8 19.6 19.6 19.6s19.6-8.8 19.6-19.6-8.8-19.6-19.6-19.6c-3.8 0-7.3 1.1-10.2 2.9 1.9 1.2 3.3 3.4 3.3 5.9z"/><path fill="#2E4548" d="M129.2 21.4C115.9 16.2 96 10.1 76.9 10.1c-18.8 0-38.3 6.2-51.4 11.5L23 22.7V90.8c0 8.2 10.1 20.4 28.2 33.3 9 6.5 18.2 11.9 24.4 15.3l2.1 1.2 2.1-1.2c6.1-3.4 15.2-9 24.2-15.6 17.9-13.2 28.2-25.5 28.2-33.8V22.4l-3-1zm-.2 41.9v26.6c0 7.2-10.3 19.3-26.9 31.6-8.9 6.6-17.9 12-23.9 15.4l-.7.4-.8-.4c-6.1-3.4-15.4-8.7-24.3-15.1C35.6 109.7 25 97.8 25 90.7V24.5l1.1-.4C39 19 58.4 12.9 76.8 12.9c18.7 0 38.2 6 51.3 11l.9.4v39z"/></svg>