<svg xmlns:xlink="http://www.w3.org/1999/xlink"  xmlns="http://www.w3.org/2000/svg" viewBox="0 0 1500 1500"><path fill="none" d="M893 492.5c0-39.4-26.7-71.5-66.1-71.5H650.5c-39.4 0-78.5 32.2-78.5 71.5V589h321v-96.5z"/><path fill="#7A92A4" d="M1013.7 416.1c0-24 12-26.1 12-26.1h228.5c138.3 16 198.4-45 198.4-45h-426.9c-102.2 0-60.1 57.7-60.1 93.7 0 12.3-5 20.6-11.4 27.7 1.5 6.8 2.3 12.1 2.6 19.3 36.4-8 56.9-50.7 56.9-69.6z"/><path fill="#7A92A4" d="M1013.7 467h240.5c72.2 0 78.2-61 78.2-61h-294.7l-24 61zM992.7 513H1181c56.5 0 61.2-31 61.2-31h-230.7l-18.8 31zM1112.9 528H993.4l-9.8 15h97.6c29.3 0 31.7-15 31.7-15zM527.3 442.2c0-36.1 42.1-97.2-60.1-97.2H40.3s60.1 61 198.4 61h228.5s12-2.4 12 21.7c0 16 14.8 46.8 41.5 61 .5-13.2 3-26.9 7.1-38.8-.4-2.1-.5-5.4-.5-7.7z"/><path fill="#7A92A4" d="M455.1 421H160.4s6 46 78.2 46h240.5l-24-46zM481.4 482H250.6s4.7 31 61.2 31h188.4l-18.8-31zM411.6 558h97.6l-9.7-30H379.9s2.5 30 31.7 30z"/><path fill="#B3525A" d="M1028.5 589H954v-96.5c0-2.2 1.3-4.2 1.2-6.4-.3-7.1-.4-15.3-1.8-22.1-12.6-58.6-64-104-126.5-104H650.5c-56.8 0-105.1 37.8-122.8 88.6-4.2 11.9-3.8 25.1-4.3 38.3-.1 1.7 2.6 3.9 2.6 5.7V589h-77.1c-55.7 0-105.9 39-105.9 92.2v521.4c0 53.2 50.3 88.4 105.9 88.4h579.6c55.7 0 108.5-35.2 108.5-88.4V681.2c0-53.2-52.8-92.2-108.5-92.2zm-655.1 80.4c-44.8 0 50.4-50.4 50.4-50.4h16.8s-22.4 50.4-67.2 50.4zM619.7 375l-50.4 67.2c-44.7-11.3 50.4-67.2 50.4-67.2zM572 492.5c0-39.4 39.2-71.5 78.5-71.5h176.4c39.4 0 66.1 32.2 66.1 71.5V589H572v-96.5zM739.5 1123c-18.9 0-30.5-11.9-30.5-26.6V953.7c-15-8.6-25.9-21.9-25.9-36.9 0-25.8 24.8-46.7 57.2-46.7s57.3 20.9 57.3 46.7c0 16.2-11.6 30.5-27.6 38.9v140.7c0 14.7-11.6 26.6-30.5 26.6z"/><path fill="#FFFFFE" d="M770 955.6c16-8.4 26.8-22.6 26.8-38.9 0-25.8-26-46.7-58.4-46.7-32.5 0-55.5 20.9-55.5 46.7 0 15 11.1 28.4 26.1 36.9v142.6c0 14.7 11.6 26.6 30.5 26.6s30.5-11.9 30.5-26.6V955.6z"/><path fill="#B3525A" d="M569.3 442.2l50.4-67.2s-95.1 55.9-50.4 67.2z"/><path opacity=".51" fill="#FFFFFE" d="M569.3 442.2l50.4-67.2s-95.1 55.9-50.4 67.2z"/><path fill="#B3525A" d="M373.4 669.4c44.8 0 67.2-50.4 67.2-50.4h-16.8s-95.2 50.4-50.4 50.4z"/><path opacity=".51" fill="#FFFFFE" d="M373.4 669.4c44.8 0 67.2-50.4 67.2-50.4h-16.8s-95.2 50.4-50.4 50.4z"/></svg>