<svg xmlns:xlink="http://www.w3.org/1999/xlink"  xmlns="http://www.w3.org/2000/svg" viewBox="0 0 150 150"><path fill="none" d="M65.2 108.9c-.8-.5-1.6-.9-2.4-1.4-3.7-2.5-11.3-2.5-11.9-8-.9-2.7-4-3.3-5.6-1.8-5.6 2.5 3 14.9 5.1 16.7 5-1.2 10-3.2 14.8-5.5z"/><path fill="#ED2D24" d="M123.2 59.5c-4.2.5-8.4.9-12.7 1.2-.4-10.9 1.5-22.3-2.7-32.6-5.3-12-17.1-21.1-30.4-22-10.4-1-20.7 3.2-28.1 10.4-7.7 7.7-11.3 18.7-10.7 29.6h9.3c.3-4.8.3-9.8 2.3-14.3 3.9-9.7 13.9-16.5 24.4-16.4 9.7-.2 19.2 5.7 23.5 14.4 4.8 9.4 2.5 20.3 3 30.5-10.5-1.5-19.5-7.5-26.5-15.2-4.4 4.2-8.8 8.7-14.4 11.4-5.5 2.8-11.8 3.8-18 4.1-5.4.2-10.8-.5-16.2-1.1-1.4 12.8-.3 25.8 3.4 38l6.7-2.5c23.4-8.7 46.7-17.7 70.2-26.2 1.9 3.9 3.2 8 4.6 12 .1 1.2 2.6 7.1-7.2 12.5-4.6 4.5-16.1 2.5-14.7 11.4.5 4.8 3.4 8.9 7.6 11.3 4.9.3 9.8.3 14.7.3 2.4-4.1 4.6-8.8 6.6-14.1.1 0 .1.1.2.1 5.1-13.6 6.6-28.4 5.1-42.8z"/><path fill="#53413B" d="M33.9 109.2c.2.3.4.7.5 1 .1.2 1.4 3 3.9 7 5.5 8.5 16.9 22.5 34.9 27.7 0 0 7.3-.6 16.4-6 2.2-1.3 4.6-2.9 7-4.9.6-.5 1.3-1.1 2-1.7 3.8-3.4 7.6-7.7 11.1-13.2-4.1 0-8.3.4-12.1.7-3.8 1.8-11 2.4-9.8-3.4.2-1 .3-2.8.2-3.8-.8-4-1.5-6.9-4.6-8.6-4.3-2.8-8.7.9-12.9 2.4-1.8.7-3.3.7-6.1-.3-3.2-1.5-9.7-2.9-11.5-7.7-.9-3.7-4.3-3.7-8-3.3l-14.4 5.4c1 2.9 2.1 5.8 3.4 8.7zm11.3-11.4c1.7-1.5 4.8-.9 5.6 1.8.7 5.5 8.2 5.5 11.9 8 .8.4 1.6.9 2.4 1.4-4.8 2.3-9.8 4.3-14.9 5.6-2-1.9-10.6-14.3-5-16.8z"/><path fill="none" d="M44.7 93.5"/></svg>