<svg xmlns:xlink="http://www.w3.org/1999/xlink"  xmlns="http://www.w3.org/2000/svg" viewBox="0 0 150 150"><path fill="#C4202D" d="M141.2 61l-3-2.4h.3L76 9.2 13 58.6h-.1l-3 2.4L8 62.5V74h25V61l42.5-33.2L118 61v13h25V62.5z"/><path fill="#C4202D" d="M94 76v2.1c4-.9 6.8-4.3 6.8-8.4 0-4.7-3.8-8.6-8.6-8.6s-8.6 3.9-8.6 8.6c0 3 1.5 5.6 3.8 7.1 2.2-.5 4.4-.9 6.7-.9H94zM117.7 75.3c-2 0-4 .2-5.8.4-.3 0-.6.1-.8.1-.2 0-.5 0-.8.1-7 .9-12.3 2.9-16.3 5.6V93h.2C88.5 93 84 97.6 84 103.3v20.2c1 0 3-.1 4.6-.3 7.2-.8 12.4-4.1 12.4-15.7v-4.3c0-7.7 5.5-9.9 10.9-10.4 2.1-.2 4.2.1 5.8.1H132V76h-.5c-5.1-1-9.7-.8-13.8-.7zM56 76c2.5 0 4.9.4 7.2 1 1.7-1.1 3-2.7 3.6-4.7-.3-.8-.4-1.7-.4-2.6 0-.9.1-1.7.4-2.6-1.1-3.5-4.4-6-8.2-6-4.8 0-8.6 3.9-8.6 8.6 0 3.8 2.1 7.1 6.1 8.2L56 76s-.1 0 0 0zM66 123.3v-19.9C66 97.6 61.7 93 56 93c-.1 0 0 0 0 0V81c-4-2.2-7.9-3.9-13.6-4.8-2.7-.5-5.7-.7-9-.8-4.2-.1-8.8-.3-14 .7H19v17h14.2c.1 0 .1-.1.2-.1 2.4-.2 6-.3 9.1.6 4.1 1.1 7.5 3.8 7.5 9.8v4.3c0 11.5 5.1 14.8 12.3 15.7 1.3.1 2.7.2 3.7.2v-.3z"/><path fill="#089AAE" d="M84 123.3v-19.9C84 97.6 88.5 93 94.2 93H94V76h.2c-2.3 0-4.5.3-6.7.9-4.7 1.2-9 3.5-12.4 6.7-3.3-3.1-7.3-5.4-11.9-6.6-2.3-.6-4.7-1-7.2-1-.1 0 0 0 0 0v16.9s-.1 0 0 0c5.7 0 10 4.6 10 10.3V123.3c-1 0-2.4-.5-3.6-.5H34V95H20v43h112V95h-15v28H88.5c-1.5 0-3.5.5-4.5.5v-.2z"/><path fill="#089AAE" d="M66.8 72.3c1.1 3.5 4.3 6.1 8.2 6.1 4.8 0 8.6-3.9 8.6-8.6 0-4.7-3.9-8.6-8.6-8.6-3.9 0-7.1 2.6-8.2 6-.3.8-.4 1.7-.4 2.6 0 .8.1 1.7.4 2.5z"/></svg>