<svg xmlns:xlink="http://www.w3.org/1999/xlink"  xmlns="http://www.w3.org/2000/svg" width="100" height="100" viewBox="0 0 100 100"><radialGradient id="a" cx="51.513" cy="10.813" r="71.654" gradientUnits="userSpaceOnUse"><stop offset="0" stop-color="#919395"/><stop offset=".673" stop-color="#424243"/><stop offset="1" stop-color="#272525"/></radialGradient><path fill="url(#a)" d="M66.283 46.602c4.434-.083 8.4 2.304 11.875 4.811.6.535 1.203 1.069 1.807 1.604 6.009-13.861 6.285-29.888 1.622-44.191-22.939 4.645-46.805 4.682-69.763.156-1.724 5.595-2.903 11.382-3.217 17.244 1.051-.194 2.097-.415 3.143-.627 2.898-.175 5.755.286 8.539 1.051l.18-.046c3.719 1.493 7.244 3.438 10.405 5.917l.185-.009c2.889 2.378 5.778 4.765 8.392 7.447l.17-.093c3.29 3.457 6.686 6.793 10.239 9.973l.111-.028c6.663 5.769 14.418 10.884 23.294 12.22.604.02 1.815.093 2.419.12a118.05 118.05 0 0 0 2.613-5.014 577.38 577.38 0 0 1-1.802-1.548c-3.747-2.903-7.931-5.816-12.802-6.166-2.014-.203-3.815.811-5.405 1.917.286-.396.848-1.17 1.134-1.567 1.857-1.761 4.217-3.18 6.861-3.171z"/><radialGradient id="b" cx="42.809" cy="44.745" r="63.393" gradientUnits="userSpaceOnUse"><stop offset="0" stop-color="#cb2229"/><stop offset=".334" stop-color="#aa181d"/><stop offset=".77" stop-color="#840c0f"/><stop offset="1" stop-color="#76070a"/></radialGradient><path fill="url(#b)" d="M50.685 62.519l-.056.009c-3.101-2.442-6.184-4.912-9.004-7.695-1.82-1.853-3.659-3.705-5.424-5.613-1.682-1.714-3.405-3.382-5.064-5.106h-.106c-1.452-1.585-3.05-3.032-4.672-4.442-4.378-3.843-9.304-7.262-14.963-8.884-.936-.157-1.866-.304-2.792-.442.014 3.004.253 6.009.774 8.977.226 1.733 1.954 2.654 3.009 3.88l.023.285c.374.341.761.673 1.143 1.014h.05c2.383 2.931 5.313 5.354 8.235 7.742 3.728 2.811 8.368 4.82 13.082 3.548-1.894 1.106-3.921 2.157-6.184 2.064-5.019.139-9.263-2.931-13.147-5.714-1.184-1.354-2.659-2.424-3.936-3.677 5.295 16.506 16.636 30.331 29.294 41.842.719.654 1.442 1.3 2.175 1.944.419.369.848.737 1.286 1.125.793.672 1.585 1.354 2.383 2.036.838-.737 1.672-1.493 2.53-2.23l.77-.636c.626-.553 1.257-1.105 1.884-1.668 6.668-6.147 12.939-12.765 18.263-20.129-.94-.102-1.876-.202-2.802-.285-6.111-1.338-11.706-4.323-16.751-7.945z"/></svg>