<svg xmlns:xlink="http://www.w3.org/1999/xlink"  xmlns="http://www.w3.org/2000/svg" viewBox="0 0 150 150"><path fill="#4D622C" d="M76.7 9.3c-16 0-29 13-29 29v7.5c0 2.9 2.4 5.3 5.3 5.3s5.3-2.4 5.3-5.3v-7.5c0-10.2 8.3-18.4 18.4-18.4 10.2 0 18.4 8.3 18.4 18.4v7.5c0 2.9 2.4 5.3 5.3 5.3s5.3-2.4 5.3-5.3v-7.5c0-16-13-29-29-29zm-6.8 8c-6.5 2.1-11.7 7.2-14 13.6-.3.9-1.3 1.3-2.1 1-.9-.3-1.3-1.3-1-2.1 2.6-7.4 8.6-13.2 16.1-15.7.9-.3 1.8.2 2.1 1.1.3.9-.2 1.8-1.1 2.1z"/><path fill="#043F5B" d="M103.8 51.8H48.2c-16.7 0-16.7 16.7-16.7 16.7V124c0 16.7 16.7 16.7 16.7 16.7h55.6c16.7 0 16.7-16.7 16.7-16.7V68.4c0-16.6-16.7-16.6-16.7-16.6z"/><path fill="#4D622C" d="M59.3 84.9L57.1 83c-1.3-1-1.4-2.9-.4-4.2 1-1.3 2.9-1.4 4.2-.4l2.2 1.8c6.5-5.8 16.1-6.6 23.5-2.1l1.8-2.2c1-1.3 2.9-1.4 4.2-.4 1.3 1 1.4 2.9.4 4.2L91.2 82c5.8 6.5 6.6 16.1 2.2 23.5l2.2 1.8c1.3 1 1.4 2.9.4 4.2-1 1.3-2.9 1.4-4.2.4l-2.2-1.8c-6.5 5.8-16.1 6.6-23.5 2.1l-1.8 2.2c-1 1.3-2.9 1.4-4.2.4-1.3-1.1-1.4-2.9-.4-4.2l1.8-2.2c-5.8-6.5-6.7-16.1-2.2-23.5z"/><path fill="#FFF1A3" d="M87 104.1c4.9-5.9 4.1-14.7-1.8-19.6-5.9-4.9-14.7-4.1-19.6 1.8-4.9 5.9-4.1 14.7 1.8 19.6 5.9 4.9 14.7 4.1 19.6-1.8z"/><path fill="#FFF1A3" d="M97.7 129.1H56.5c-4.9 0-14.1-2.9-14.1-14.1V73.9c0-4.9 2.9-14.1 14.1-14.1h41.2c4.9 0 14.1 2.9 14.1 14.1V115c0 4.9-3 14.1-14.1 14.1zm0-65.9H56.5c-10.5 0-10.6 10.2-10.6 10.6V115c0 10.3 9.6 10.6 10.7 10.6h41.2c10.5 0 10.6-10.2 10.6-10.6V73.9c0-10.3-9.6-10.7-10.7-10.7z"/><path fill="#FFF1A3" d="M69.7 112.7c.4.1.7.2 1.1.4l.8-2.5-1.1-.4-.8 2.5zm-9.6-15.9l-2.5.3c0 .4.1.8.1 1.2l2.5-.3-.1-1.2zm1.2 9.9c.2.3.5.6.7.9l2-1.6-.7-.9-2 1.6zm3.8 3.6c.3.2.6.4 1 .6l1.4-2.1-1-.7-1.4 2.2zm-4.8-18l-2.5-.4c-.1.4-.1.8-.2 1.1l2.5.4.2-1.1zm.8 8.8l-2.3 1c.1.4.3.7.5 1.1l2.4-1-.6-1.1zm9-23.3l.7 2.5 1.1-.3-.7-2.5c-.3.1-.7.2-1.1.3zm4.7 36H76l.1-2.6h-1.2l-.1 2.6zM61.7 88.1L59.4 87c-.2.3-.3.7-.5 1l2.3 1.1.5-1zm3.8-8l1.4 2.2 1-.6-1.4-2.2c-.4.2-.7.4-1 .6zm-3.9 3.5l1.9 1.7.8-.9-1.9-1.7c-.2.3-.5.6-.8.9zm25.5 23l1.9 1.8c.3-.3.5-.6.8-.8l-1.9-1.8-.8.8zm3.7-22.1c-.2-.3-.5-.6-.7-.9L88 85.1l.7.9 2.1-1.5zm-7.3 24.8l1.3 2.2c.3-.2.7-.4 1-.6l-1.3-2.2-1 .6zm8.2-14.9l2.6-.2c0-.4-.1-.8-.1-1.2l-2.6.2.1 1.2zm-.3 4.5l2.6.5c.1-.4.2-.8.2-1.1l-2.6-.5-.2 1.1zm-12.1 12l.6 2.5c.4-.1.8-.2 1.1-.3l-.6-2.5-1.1.3zm10.5-7.9l2.3 1.2c.2-.3.4-.7.5-1l-2.3-1.2-.5 1zm1-13l2.4-1c-.1-.4-.3-.7-.4-1.1l-2.4 1 .4 1.1zm-3.6-9.3c-.3-.2-.6-.5-.9-.7l-1.5 2.1.9.7 1.5-2.1zm-6.5-.5l1.1.4.9-2.4c-.4-.1-.7-.3-1.1-.4l-.9 2.4zm-4.4-.7l1.2.1.2-2.6c-.4 0-.8-.1-1.2-.1l-.2 2.6z"/></svg>