<svg xmlns:xlink="http://www.w3.org/1999/xlink"  xmlns="http://www.w3.org/2000/svg" viewBox="0 0 150 150"><path fill="#005179" d="M64 33.7c-1.1-3.5-4.8-5.4-8.3-4.3-3.5 1.1-5.4 4.8-4.3 8.3 1.1 3.5 4.8 5.4 8.3 4.4 3.5-1.2 5.4-4.9 4.3-8.4"/><path fill="#005179" d="M58.3 10.5c18 25.2 4 47.2-6.2 50.6 5.7-11.4-3-26.8-14.7-26.5 1.8 1 3.3 2.5 4.5 4 2.9 3.9 4.2 8.8 3.6 13.6-1 9-8.1 16.7-18.9 16.5 3.3 1.7 6.5 3 9.9 3.5 34.3 5.7 50.6-40 21.8-61.7"/><path fill="#008044" d="M86 33.7c1.1-3.5 4.8-5.4 8.3-4.3 3.5 1.1 5.4 4.8 4.3 8.3-1.1 3.5-4.8 5.4-8.3 4.4-3.5-1.2-5.4-4.9-4.3-8.4"/><path fill="#008044" d="M91.7 10.5c-18 25.2-4 47.2 6.1 50.6-5.7-11.4 3-26.8 14.7-26.5-1.8 1-3.3 2.5-4.5 4-2.9 3.9-4.2 8.8-3.6 13.6 1 9 8.1 16.7 18.9 16.5-3.3 1.7-6.5 3-9.9 3.5-34.3 5.7-50.5-40-21.7-61.7"/><path fill="#8D603D" d="M64 113.9c-1.1 3.5-4.8 5.4-8.3 4.3-3.5-1.1-5.4-4.8-4.3-8.3 1.1-3.5 4.8-5.4 8.3-4.3 3.5 1.1 5.4 4.8 4.3 8.3"/><path fill="#8D603D" d="M58.3 137.2c18-25.2 4-47.2-6.2-50.6 5.7 11.5-3 26.8-14.7 26.5 1.8-1 3.3-2.5 4.5-4 2.9-3.9 4.2-8.9 3.6-13.6-1-9-8.1-16.7-18.9-16.5 3.3-1.7 6.5-3 9.9-3.5 34.3-5.8 50.6 39.9 21.8 61.7"/><path fill="#5A3772" d="M86 113.9c1.1 3.5 4.8 5.4 8.3 4.3 3.5-1.1 5.4-4.8 4.3-8.3-1.1-3.5-4.8-5.4-8.3-4.3-3.5 1.1-5.4 4.8-4.3 8.3"/><path fill="#5A3772" d="M91.7 137.2c-18-25.2-4-47.2 6.1-50.6-5.7 11.5 3 26.8 14.7 26.5-1.8-1-3.3-2.5-4.5-4-2.9-3.9-4.2-8.9-3.6-13.6 1-9 8.1-16.7 18.9-16.5-3.3-1.7-6.5-3-9.9-3.5-34.3-5.8-50.5 39.9-21.7 61.7"/></svg>