<svg xmlns:xlink="http://www.w3.org/1999/xlink"  xmlns="http://www.w3.org/2000/svg" viewBox="0 0 150 150"><path fill="#03A8DD" d="M106.5 48.8L31.9 96.9 43.6 115c11.9 18.5 36.6 23.8 55.1 11.9l7.7-4.9c18.5-11.9 23.8-36.6 11.9-55.1l-11.8-18.1zm9.2 49.6c-.9 2.9-4.9 4.5-9.8 3.9h-.1c-.2-.1-.5-.1-.7-.1-1-.2-1.9-.4-2.8-.7-.5-.1-.9-.3-1.4-.5 0 .1-.1.3-.1.4-.9 2.8-4.9 4.1-9.1 2.9-.1 0-.2 0-.2-.1 0 .6 0 1.1-.2 1.6-.9 2.9-4.9 4.5-9.7 3.9h-.1c-.3-.1-.5-.1-.7-.1-1-.2-1.9-.4-2.7-.7-.5-.1-.9-.3-1.4-.5 0 .1-.1.3-.1.4-.9 2.8-4.9 4.1-9.1 2.9-.2 0-.3-.1-.5-.2-2.2-.7-4.1-2-5.2-3.5-.8.2-1.6.4-2.4.4h-.5c-1.3 0-2.5-.2-3.7-.6-5.1-1.6-8.1-6.3-6.8-10.3 1.1-3.3 4.6-5.3 8.8-4.9-.1-1.3.1-2.5.5-3.7 2-6.1 8.9-9.2 15.6-7.1 2.2.7 4.1 1.9 5.6 3.4.9-.2 1.8-.2 2.8-.1 0-1.3.1-2.5.5-3.7 2-6.1 8.9-9.2 15.6-7.1 3.6 1.2 6.4 3.6 7.9 6.8 1.4-.5 2.8-.5 4.2 0 3.5 1.1 5.4 4.9 4.3 8.4-.2.6-.5 1.2-.9 1.8 2.1 2.4 3.1 5 2.4 7.1z"/><path fill="#00517A" d="M126.6 61.6l-17.1-26.5-77.1 49.6-5.6-8.7c-11.3-17.5-6.2-40.9 11.3-52.2 16.2-10.4 38.8-4.8 50.8 9.7l8.4-5.4c-15-19-43.8-26-64.6-12.6C10.6 29.7 4.2 59.3 18.4 81.4l5.6 8.7-5.9 3.8 17.1 26.5c14.9 23.1 45.7 29.8 68.8 14.9l7.7-4.9c23.1-14.8 29.7-45.7 14.9-68.8zM106.3 122l-7.7 4.9c-18.5 11.9-43.2 6.5-55.1-11.9L31.9 96.9l74.7-48.1L118.2 67c11.9 18.4 6.5 43.2-11.9 55z"/><path fill="#1E76BA" d="M112.9 91.5c.4-.5.7-1.1.9-1.8 1.1-3.5-.8-7.3-4.3-8.4a7.5 7.5 0 0 0-4.2 0c-1.5-3.2-4.3-5.7-7.9-6.8-6.7-2.1-13.6 1-15.6 7.1-.4 1.2-.6 2.4-.5 3.7-1-.1-1.9 0-2.8.1-1.5-1.5-3.4-2.7-5.6-3.4-6.7-2.1-13.6 1-15.6 7.1-.4 1.2-.6 2.4-.5 3.7-4.2-.3-7.7 1.7-8.8 4.9-1.3 4.1 1.7 8.7 6.8 10.3 1.2.4 2.4.6 3.7.6h.5c.9-.1 1.7-.2 2.4-.4 1.1 1.5 3 2.8 5.2 3.5.2.1.3.1.5.2 4.2 1.2 8.2-.1 9.1-2.9 0-.1.1-.3.1-.4.4.2.9.4 1.4.5.9.3 1.7.5 2.7.7.2 0 .5 0 .7.1h.1c4.9.6 8.8-1 9.7-3.9.2-.5.2-1.1.2-1.6.1 0 .2.1.2.1 4.2 1.2 8.2-.1 9.1-2.9 0-.1.1-.3.1-.4.4.2.9.3 1.4.5.9.3 1.7.5 2.8.7.2 0 .4 0 .7.1h.1c4.9.6 8.8-1 9.8-3.9 1.1-2.3.1-4.9-2.4-7.1zm1.8 6.6c-.8 2.5-4.3 3.8-8.7 3.2-.3-.1-.7-.1-.9-.1-.8-.1-1.7-.4-2.5-.6-.6-.2-1.3-.5-1.9-.7l-.7-.3v.8c0 .3 0 .5-.1.8-.8 2.4-4.5 3.4-8.4 2.1-2.1-.7-3.9-1.9-4.9-3.4l-.2-.3H86c-.8.3-1.6.4-2.5.5h-.6c-1.1 0-2.2-.2-3.3-.5-2.2-.7-4.1-2.1-5.2-3.8-1.1-1.7-1.5-3.6-.9-5.3 1-3 4.4-4.7 8.3-4.2l.6.1-.1-.6c-.1-1.3 0-2.7.4-3.9 1.8-5.5 8.2-8.4 14.3-6.4 3.4 1.1 6.2 3.6 7.5 6.7l.2.5.5-.2c1.2-.5 2.5-.6 3.7-.2l.2.1c3 1 4.6 4.2 3.6 7.1-.2.7-.5 1.3-1 1.8l-.3.4.4.3c2.5 2 3.5 4.2 2.9 6.1zm-24.4 7.5c-.8 2.5-4.3 3.8-8.7 3.2-.3-.1-.7-.1-.9-.1-.8-.1-1.7-.3-2.5-.6-.6-.2-1.3-.5-1.9-.7l-.7-.3v.7c0 .3-.1.6-.1.8-.8 2.4-4.5 3.4-8.4 2.1-2.1-.7-3.9-1.9-4.9-3.4l-.2-.3-.4.1c-.8.3-1.6.4-2.4.5h-.6c-1.1 0-2.2-.2-3.3-.5-4.5-1.5-7.3-5.5-6.1-9.1 1-3 4.4-4.7 8.3-4.2l.5.2v-.7c-.1-1.3 0-2.6.4-3.9 1.8-5.5 8.1-8.4 14.3-6.4 1.8.6 3.4 1.5 4.7 2.8-2.3.7-4.1 2.3-4.8 4.5-.6 2-.3 4.2 1 6.1 1.3 1.9 3.3 3.4 5.7 4.2 1.2.4 2.4.6 3.7.6h.5c.9-.1 1.7-.2 2.4-.4 1 1.3 2.6 2.5 4.4 3.2.2.5.2 1.1 0 1.6z"/></svg>