<svg xmlns:xlink="http://www.w3.org/1999/xlink"  xmlns="http://www.w3.org/2000/svg" width="100" height="100" viewBox="0 0 100 100"><radialGradient id="a" cx="46.091" cy="31.573" r="59.576" gradientUnits="userSpaceOnUse"><stop offset="0" stop-color="#919395"/><stop offset=".673" stop-color="#424243"/><stop offset="1" stop-color="#272525"/></radialGradient><path fill="url(#a)" d="M33.426 13.521c5.378-3.947 12.746-4.987 19.014-2.66 7.27 2.542 12.739 9.492 13.463 17.167.452 6.803-.201 13.645.29 20.428 2.611 4.456 4.69 9.393 4.528 14.665.241 10.769-7.292 20.919-17.491 24.176-.03 1.16-.055 2.328-.074 3.496-3.367-1.424-6.743-2.818-10.095-4.279 3.357-2.22 6.709-4.458 10.071-6.676.04.599.104 1.797.147 2.405 4.775-2.238 8.922-6.008 10.983-10.925 3.201-7.186 1.713-16.147-3.649-21.91-3.656-4.113-9.013-6.41-14.461-6.783 1.267-.834 2.538-1.668 3.8-2.513a282.508 282.508 0 0 1-5.085-2.178c5.085-.147 10.071 1.393 14.415 4.015-.271-5.261.574-10.641-.613-15.814-1.747-5.948-7.849-10.219-14.043-9.717-6.468.265-12.264 5.683-12.868 12.151 0 5.418-.03 8.914-.123 13.369a51.541 51.541 0 0 1 6.07-2.866c.015-1.001.024-2.003.045-2.994a1220.74 1220.74 0 0 1 10.061 4.24c-3.362 2.238-6.724 4.457-10.076 6.704-.005-.726-.03-2.159-.044-2.875-5.002 2.218-9.252 6.252-11.239 11.396-3.004 7.225-1.315 16.059 4.103 21.684 3.798 4.132 9.339 6.311 14.896 6.537-1.477.972-2.935 1.962-4.407 2.945 1.276.569 2.547 1.148 3.823 1.747-11.44-.059-22.013-8.874-24.152-20.094-1.615-6.882.324-14.037 4-19.897.485-6.586-.089-13.232.245-19.829.402-5.967 3.616-11.64 8.466-15.115z"/><radialGradient id="b" cx="45.523" cy="47.636" r="34.294" gradientUnits="userSpaceOnUse"><stop offset="0" stop-color="#7cc5f1"/><stop offset=".009" stop-color="#79c4f1"/><stop offset=".261" stop-color="#22b2ed"/><stop offset=".376" stop-color="#00abeb"/><stop offset=".465" stop-color="#00a4e3"/><stop offset=".605" stop-color="#0091cc"/><stop offset=".779" stop-color="#0072a7"/><stop offset=".979" stop-color="#004775"/><stop offset="1" stop-color="#00426f"/></radialGradient><path fill="url(#b)" d="M41.991 46.042c5.26-1.08 10.973.412 14.988 3.995 4.364 3.749 6.641 9.767 5.836 15.47-.794 6.39-5.408 12.083-11.489 14.184-5.708 2.11-12.442.884-17.08-3.043-5.045-4.122-7.421-11.209-5.821-17.531 1.492-6.499 7.013-11.828 13.566-13.075zM41.52 59.98c-.845 2.218.74 3.956 1.948 5.536.299 1.875.117 3.789.142 5.684h3.691c0-1.924.005-3.867.059-5.792 1.914-1.512 3.205-4.357 1.453-6.497-1.792-2.661-6.155-1.925-7.293 1.069z"/></svg>