<svg xmlns:xlink="http://www.w3.org/1999/xlink"  xmlns="http://www.w3.org/2000/svg" width="100" height="100" viewBox="0 0 100 100"><radialGradient id="a" cx="50.948" cy="28.901" r="56.049" gradientUnits="userSpaceOnUse"><stop offset="0" stop-color="#ecba31"/><stop offset=".358" stop-color="#cb2229"/><stop offset=".661" stop-color="#a22430"/><stop offset="1" stop-color="#540000"/></radialGradient><path fill="url(#a)" d="M69.844 40.871c-4.838-5.049-9.916-9.912-14.807-14.937-1.246-1.242-2.525-2.565-4.201-3.231-1.66-.366-3.02.99-4.168 1.989-4.335 4.384-8.674 8.767-13.057 13.102-1.879 1.697-3.543 3.621-5.037 5.667 1.98.244 3.974.446 5.971.56.036 5.885.061 11.778.012 17.664-.02 1.404.142 2.874.869 4.107 1.75 1.388 4.189 1.007 6.25 1.502A142.666 142.666 0 0 0 36.27 77.66c6.843-2.46 12.647-7.07 19.231-10.106 2.402-.894 5.004-.649 7.5-1.022.979-.512 2.029-1.396 1.993-2.614.183-6.656-.228-13.329.211-19.986 1.453 0 2.902-.024 4.359-.024.767-.17 1.546-.341 2.317-.503-.67-.854-1.344-1.706-2.037-2.534zM53.409 59.655c-2.123-.009-4.254-.009-6.373-.009 1.157-2.361 2.013-4.895 2.306-7.533-2.042-.641-3.064-3.36-1.627-5.065 1.335-1.867 4.533-1.477 5.406.641.877 1.778-.309 3.808-2.037 4.481.349 2.606 1.16 5.123 2.325 7.485z"/><path fill="#272525" d="M80.156 26.364c12.514 6.884 16.869 24.824 9.012 36.717-2.151 3.848-5.379 6.924-9.108 9.237 2.707-3.117 5.508-6.274 7.144-10.122 3.746-8.167 3.669-17.948-.049-26.099-1.608-3.709-4.295-6.778-6.999-9.733zM8.811 50.336c-.036-8.824 4.623-17.599 12.193-22.202-2.687 3.401-5.422 6.868-7.05 10.935-2.78 7.549-2.683 16.097.276 23.574 1.542 3.767 4.282 6.835 6.701 10.041-7.712-4.489-12.25-13.532-12.12-22.348z"/><path fill="#272525" d="M19.096 41.179c1.469-2.955 4.063-5.065 6.652-6.998-2.979 3.369-5.698 7.217-6.522 11.73-.69 4.529-.434 9.376 1.705 13.508 1.027 2.216 2.574 4.132 4.112 6.007-2.585-1.932-5.171-4.083-6.429-7.159-2.786-5.292-2.558-11.957.482-17.088zM77.259 33.995c8.601 5.139 10.415 17.98 4.392 25.733-1.234 1.631-2.728 3.052-4.111 4.546-.195-.098-.58-.301-.764-.406 4.632-4.546 7.066-11.178 6.154-17.647-.391-4.628-2.968-8.614-5.671-12.226z"/><path fill="#272525" d="M74.146 40.165c2.168 2.273 4.197 5.065 4.022 8.386.188 3.011-1.688 5.512-3.441 7.76.795-2.362 1.879-4.691 2.135-7.2.202-3.215-1.548-6.073-2.716-8.946zM27.075 57.098c-4.436-3.669-4.424-11.072-.048-14.79-.727 2.46-2.167 4.79-1.985 7.428-.008 2.605 1.222 4.959 2.033 7.362z"/></svg>