<svg xmlns:xlink="http://www.w3.org/1999/xlink"  xmlns="http://www.w3.org/2000/svg" viewBox="0 0 100 100"><g fill="#091117"><path d="M76.1 88c-6.7 4.9-15.1 7.7-23.6 8-8.5.3-17.2-2-24.6-6.5-7.4-4.5-13.4-11.3-17.3-19.1-3.8-7.9-5.2-16.9-4.1-25.6C7.7 36 11.3 27.7 17 21c5.7-6.6 13.2-11.7 21.5-14.1 8.3-2.5 17.3-2.5 25.5-.1S79.6 14 84.8 20.5c-6.1-5.7-13.5-9.7-21.4-11.3-7.9-1.7-16.2-1.2-23.7 1.4-15.1 5.1-26.5 19.1-28.3 34.8-1 7.8.2 15.8 3.4 23 3.2 7.2 8.5 13.4 15.1 17.9 6.6 4.4 14.4 7 22.5 7.3 8.2.3 16.4-1.6 23.7-5.6z"/><path d="M53.4 11.6c7.4-.5 14.9 1.3 21.5 5.1 6.5 3.8 12 9.5 15.4 16.4 3.5 6.8 4.9 14.7 4.1 22.4-.8 7.7-4 15.1-8.8 21.2-4.9 6-11.6 10.6-18.9 12.9-7.4 2.3-15.4 2.6-22.8.6S29.8 84 24.7 78.4c-5-5.7-8.3-12.7-9.3-20 1.9 7.1 5.7 13.6 10.9 18.5 5.1 5 11.6 8.4 18.4 10 13.7 3.2 28.8-2 37.5-13 4.4-5.3 7.3-12 8.1-18.9.9-6.9-.2-14.1-3-20.5-2.9-6.4-7.6-12-13.5-16-5.9-4.1-13-6.5-20.4-6.9z"/></g></svg>