<svg xmlns:xlink="http://www.w3.org/1999/xlink"  xmlns="http://www.w3.org/2000/svg" viewBox="0 0 100 100"><path fill="#091117" d="M96 49.8c-.4-2.5-1.8-5-4-7.5-2.4-2.7-5.8-5.4-10-7.9 4.3 2.9 7.4 5.9 9 8.8.5.9.8 1.7 1 2.6.2 1 .3 2 .1 3-.1.5-.3.9-.5 1.4-4.1 10-32.2 13.5-64.7 7.6-1.4-.2-2.7-.5-4-.8-6.5-1.3-12.7-2.9-18.3-4.7 2.1 1.2 4.4 2.4 6.8 3.5 5.4 2.5 11.6 4.8 18.4 6.6 3.2.8 6.5 1.6 9.9 2.2 1.1.2 2.1.3 3.1.5 8.8 1.4 17.2 1.8 24.6 1.4 5.2-.3 9.9-1 13.9-2.1 7.2-2 12.3-5.1 14.1-9.3.3-.7.5-1.4.7-2.1.1-1.1 0-2.1-.1-3.2z"/></svg>