<svg xmlns:xlink="http://www.w3.org/1999/xlink"  xmlns="http://www.w3.org/2000/svg" viewBox="0 0 1500 1500"><path fill="#DC8844" d="M545 486.8s165.3 60.3 210.3 29c45-31.2 243.1-451.3 243.1-451.3S882.1 216.6 793.3 326.2c-24.3 83.6-52.8 171.3-68.1 182.4-30 21.7-151.5-36.4-151.5-36.4l-63.9-64.6c-36.5-5.8-63.7-10.3-63.7-10.3l98.9 89.5z"/><path fill="#F0B78C" d="M725.2 508.6c15.3-11 43.8-98.8 68.1-182.4 23.5-80.8 43.2-157.8 43.2-157.8s-154.7 262-167.4 259.8c-12.8-2.2-171.4-32.9-171.4-32.9l12.1 12.3 63.9 64.6s121.5 58.1 151.5 36.4z"/><path fill="#A8AA2F" d="M543.1 640c5.4 28.2-84.8 93.9-84.8 93.9l-80.9 25.7c-34.8 42.9-66.1 81.3-66.1 81.3L438.2 800S573 687 568.5 632.4c-4.5-54.6-269.3-436.2-269.3-436.2S375.3 379 425.8 511.3c54.6 52.8 114.4 113.5 117.3 128.7z"/><path fill="#A8AA2F" d="M469.4 638.3c.5 3.1.6 5.3.1 6.1-4.2 6.2-32.6 41.6-64.2 80.6 28.5-30.2 64.8-68.8 68.7-73.8.8-.9-.9-5.6-4.6-12.9z"/><path fill="#C4C26F" d="M543.1 640c-2.9-15.2-62.7-75.9-117.2-128.7-46.7-45.2-89.6-84.6-89.6-84.6s108.9 163.6 133.2 211.7c3.6 7.2 5.4 11.9 4.6 13-3.9 4.9-40.2 43.6-68.7 73.8-19 20.1-34.6 36.6-34.6 36.6l6.7-2.1 80.9-25.7c-.1-.1 90.1-65.9 84.7-94z"/><path fill="#C46158" d="M562.8 925.8c24.9 11.7 40.2 98.7 40.2 98.7l-12.3 57.1c19.7 51.5 37.3 97.7 37.3 97.7l28-130.3s-30.5-173.3-80-196.7c-49.6-23.4-512.4 15.1-512.4 15.1s250.9 32.7 387.4 56.4c52.3-2.4 101.1-3.1 111.8 2z"/><path fill="#DF9B91" d="M543.2 971.9c3.9 8.1 45.7 118.1 45.7 118.1l1.8-8.3 12.3-57.1s-15.3-87-40.2-98.7c-10.7-5-59.6-4.3-111.9-1.9-69.6 3.2-145.4 9.5-145.4 9.5s233.8 30.3 237.7 38.4z"/><path fill="#4BBEE6" d="M649.9 1248.9c-26.4 63.7-46 113.1-46 113.1s217.7-325.8 232.7-325.6h.9c-3.4-.5-5.9-.8-7.2-.8-9.8-.8-100.7 111.9-180.4 213.3z"/><path fill="#00A9DE" d="M980.5 984.9s-165.3-60.2-210.3-29c-45 31.2-243.1 451.4-243.1 451.4s57.7-75.4 122.8-158.3c79.7-101.4 170.5-214.1 180.4-213.4 1.3.1 3.8.4 7.2.8 43.2 5.7 241.9 38 241.9 38l-98.9-89.5z"/><path fill="#55924E" d="M1003.9 823.8c-2.6-32 76.4-98.2 76.4-98.2l74.4-24S1067.9 808 1062 816.7c-.3.4-.2 1.5-.1 2.8 29.5-38.1 152.4-188.6 152.4-188.6l-126.9 40.9s-134.8 113-130.3 167.6c4.5 54.6 269.3 436.2 269.3 436.2s-54-130-101.3-250c-46.1-68.3-119.4-179.9-121.2-201.8z"/><path fill="#81AE79" d="M1062 816.7c5.9-8.7 92.7-115.1 92.7-115.1l-74.4 24s-79 66.2-76.4 98.2c1.8 21.9 75.1 133.5 121.1 201.8 21.3 31.5 36.7 53.8 36.7 53.8s-96.3-231.4-99.9-259.9c-.1-1.4-.1-2.4.2-2.8z"/><path fill="#6D6F71" d="M897.6 292.4l-28 130.4s30.4 173.3 80 196.7c49.6 23.4 512.4-15.1 512.4-15.1s-465.6-60.6-473.4-76.7c-7.8-16.2-91-235.3-91-235.3zm46.6 294.8c-20.4-9.6-33-81.1-33-81.1l11.6-53.8s34.3 90.4 37.5 97c3.2 6.6 195.2 31.6 195.2 31.6s-190.8 16-211.3 6.3z"/><path fill="#7A7C7F" d="M922.8 452.4l-11.6 53.8s12.6 71.5 33 81.1c20.4 9.6 211.4-6.2 211.4-6.2s-192-25-195.2-31.6c-3.3-6.8-37.6-97.1-37.6-97.1z"/></svg>