<svg xmlns:xlink="http://www.w3.org/1999/xlink"  xmlns="http://www.w3.org/2000/svg" viewBox="0 0 1500 1500"><path fill="none" d="M1122 447.2l.9-4.5-4.9 2.2c1.3.7 2.6 1.5 4 2.3z"/><path fill="#DB182F" d="M1435.5 858l-5.8 11.6 11.3-5c-43.4-171-152.7-315.7-299.1-405.7l-91.5 568.4L1435.5 858zM435.8 1229.5s7.7-103.1 134-273.1c5.1-10.3 64.4-134 64.4-283.4 0 0-85 56.7-149.4 154.6 0 2.6 10.3 18 10.3 18L459 904.9l-64.4-43.8s61.8-190.7 270.5-306.6c7.2-3.5 14.5-6.9 21.8-10.4l11.7-77.3s23.2-23.2 56.7-30.9c7.7-5.2-7.7 15.5-7.7 15.5s5.5 36.6-.6 65.1c108.5-48.6 214.4-90.1 278.7-114.3-68.9-25.7-143.2-40.4-220.8-41.9 29-8.2 53.9-21.9 69.6-43.4 92.8-127.1 268-3.4 268-3.4l3.4-82.5s-224.5-95.4-292-10.3c-79 99.6-99.6 113.4-288.6 120.2-19.1 3.5 41.3 22.9 115.2 28.4-317.1 53-558.8 328.5-558.8 660.6 0 115.4 29.5 223.8 80.8 318.5L436.9 1229l-1.1.5zm87.6-810l.2.2h-.2v-.2z"/><path fill="#DB182F" d="M594.5 1148.6l104.1-53.1 89.1 47.2 30.9-13.6c5.6-44.3 26.7-191.6 68-252.6 0 0-103.1-28.3-188.1-2.6 0-4.9-94.3 141.1-115.5 268.6l2.2-5.8 9.3 11.9zM206.4 1355.9l29-14.8-32.7 7.8c1.4 2.3 2.5 4.7 3.7 7z"/><path fill="#DB182F" d="M801.7 585.4l-41.2 190.7s141.7 7.7 203.5 54.1c7.7 2.6-41.2 231.9-41.2 231.9l34 6.4 50.8-22.3 114.4-599c-1.4-.8-2.7-1.6-4.1-2.4L801.7 585.4z"/><path fill="#D81734" d="M523.4 419.5v.2h.2z"/><path fill="#3E4981" d="M1435.5 858l-385.1 169.3 91.5-568.4 4.3-26.5 26.6-11.8 12.9-95.3-23.4 6.6 28.5-177.8h-12.9l-33.1 173.6-3-2.7-36.1 15.6-18 38.7s-23.6 8.4-62 23C961.4 426.5 855.5 468 747 516.5c6-28.5.6-65.1.6-65.1s15.4-20.6 7.7-15.5c-33.5 7.7-56.7 30.9-56.7 30.9l-11.7 77.3c-7.3 3.4-14.6 6.9-21.8 10.4-208.7 115.9-270.5 306.6-270.5 306.6l64.4 43.8 36.1-59.3s-10.3-15.4-10.3-18C549.2 729.7 634.2 673 634.2 673c0 149.4-59.3 273.1-64.4 283.4-126.3 170-134 273.1-134 273.1l1.1-.5-234.3 119.5-1.7.8 1.9-.4 32.7-7.8 380.7-91 85 77.3 363.3-172.6 190.7 64.4 174.6-349.7 5.7-11.5zM737.2 459.2s2.6 15.5 0 38.7l-10.3-33.5 10.3-5.2zm146.9 638.9l56.7-213.9-41.2 185.5 41.2 10.3-56.7 18.1zM1122 447.2l-114.5 598.9-50.8 22.3-34-6.4s49-229.3 41.2-231.9C902.1 783.7 760.4 776 760.4 776l41.2-190.7 316.3-140.6 4.9-2.2-.8 4.7zM935.6 827.6l-201-12.9 18-25.8c123.8 10.4 183 38.7 183 38.7zm208.7-489.5l15.5 12.9-7.7 23.2-5.2-20.6-20.6 7.7-12.9-10.3 30.9-12.9zM760.4 546.8s211.3-97.9 319.5-136.6c2.6 2.6-123.5 54-296 151.8 1.9 19.8-2.3 60.6-23.5 136.7 0 0 10.3-123.7-12.9-146.9 0 0 6.3-2.8 13.5-4.7l-.6-.3zm-244.7 638.9s49-154.6 134-273.1c0 0-100.5 237-97.9 260.2-5.2 2.6-36.1 12.9-36.1 12.9zm61.8-28.3l5.6-14.8c21.2-127.5 115.5-273.5 115.5-268.6 85-25.8 188.1 2.6 188.1 2.6-41.4 60.9-62.5 208.3-68 252.6l-30.9 13.6-89.1-47.2-104.1 53.1 19 24.2-36.1-15.5z"/><path fill="#CA5262" d="M594.5 1148.6l-9.3-11.8-2.2 5.8-5.5 14.8 36.1 15.5zM760.4 698.8c21.2-76.1 25.5-117 23.5-136.7 172.5-97.8 298.5-149.3 296-151.8-108.2 38.6-319.5 136.6-319.5 136.6l.6.4c-7.1 2-13.5 4.7-13.5 4.7 23.2 23.1 12.9 146.8 12.9 146.8zM734.7 814.7l201 12.9s-59.3-28.3-182.9-38.6l-18.1 25.7zM737.2 459.2l-10.3 5.2 10.3 33.5c2.6-23.3 0-38.7 0-38.7zM649.6 912.6c-85 118.5-134 273.1-134 273.1s30.9-10.3 36.1-12.9c-2.5-23.1 97.9-260.2 97.9-260.2zM899.6 1069.8l41.2-185.5-56.7 213.8 56.7-18zM1146.9 353.5l5.2 20.6 7.7-23.2-15.5-12.8-30.9 12.8 12.9 10.3z"/><path fill="#DB182F" d="M489.7 310.1c243.9 13.7 219.9-30.9 295.5-123.7 75.6-92.8 151.1-51.5 364.1 6.9l17.2-51.5S798.9 25 726.8 165.9c-34.4 85.9-89.3 58.4-268 75.6-178.6 17.1-213 75.5-278.3 257.5 3.5-3.4 65.3-202.7 309.2-188.9z"/><path fill="#DB182F" d="M311.1 492.2c75.6-96.2 37.8-113.4 226.7-144.3 0 0-223.3-34.3-281.7 85.9C197.7 554 80.9 554 80.9 554s154.6 34.4 230.2-61.8zM496.6 231.1c144.3 10.3 164.9-61.8 164.9-61.8-37.8 34.4-68.7 13.7-213 3.4-162.9-6.4-207 141.6-215.1 159.7 51.1-74.4 106.8-112.5 263.2-101.3zM233.4 332.3c-.4.6-.9 1.2-1.3 1.8.2.3.6-.4 1.3-1.8z"/></svg>