<svg xmlns:xlink="http://www.w3.org/1999/xlink"  xmlns="http://www.w3.org/2000/svg" viewBox="0 0 1500 1500"><path fill="#395D76" d="M782.7 1370.1c90.4-328.5 315.8-610.5 315.8-610.5-60.4-130.5-87.2-308.5-99-435.2H771.7l30.3 41.2-26.6 15.9L802 580.9l-41.2 46.5-41.2-46.5 26.6-199.3-26.6-15.9 30.3-41.2H522.1c-11.8 126.7-38.6 304.7-99 435.2 0 0 225.6 282.2 315.9 610.9-16.8 8.2-28.5 25.4-28.5 45.3 0 28 22.7 50.7 50.7 50.7 28 0 50.6-22.7 50.6-50.7 0-20.3-11.9-37.7-29.1-45.8zM752 667.3h18.4V1366c-3-.6-6-.9-9.2-.9-3.2 0-6.2.4-9.2.9V667.3z"/><path fill="#AB5153" d="M990.1 167.6H531.5s-.6 50.3-6.6 124.9h471.8c-6-74.6-6.6-124.9-6.6-124.9zm-435-38.9l30.9-22.5 30.9 22.5-11.8-36.4L636 69.9h-38.2L586 33.5l-11.8 36.3H536l30.9 22.4-11.8 36.5zm116.5 0l30.9-22.5 30.9 22.5-11.8-36.4 30.9-22.4h-38.2l-11.8-36.3-11.8 36.3h-38.2l30.9 22.4-11.8 36.4zm116.6 0l30.9-22.5 30.9 22.5-11.8-36.4 30.9-22.4h-38.2l-11.8-36.3-11.8 36.3h-38.2L800 92.3l-11.8 36.4zm116.5 0l30.9-22.5 30.9 22.5-11.8-36.4 30.9-22.4h-38.2l-11.8-36.3-11.8 36.3h-38.2l30.9 22.4-11.8 36.4z"/></svg>