<svg xmlns:xlink="http://www.w3.org/1999/xlink"  xmlns="http://www.w3.org/2000/svg" width="100" height="100" viewBox="0 0 100 100"><path fill="#31408C" d="M46.655 22.805c.547-1.579.931-3.215 1.602-4.744 2.741 8.292 5.335 16.634 8.099 24.919.908-.051 1.822-.124 2.736-.124 7.823-.006 15.646.005 23.464-.011-7.085 5.127-14.157 10.271-21.271 15.364a4939.514 4939.514 0 0 0 8.19 25.032C62.392 78.08 55.342 72.88 48.251 67.736c1.715-5.212 1.72-11.36-1.607-15.951.519-.378 1.032-.75 1.545-1.134 1.185.835 2.335 1.721 3.514 2.561-.479-1.37-.936-2.741-1.37-4.123 1.14-.818 2.307-1.59 3.384-2.487-1.393-.017-2.78-.006-4.174.011-.479-1.365-.896-2.741-1.348-4.112-.468 1.371-.857 2.77-1.371 4.129a104.038 104.038 0 0 0-4.18-.034c1.111.869 2.273 1.675 3.429 2.493a67.82 67.82 0 0 0-.44 1.393c-7.118-7.236-19.33-7.648-19.33-7.648s9.972-.074 13.65.118c.389-.254.412-.772.581-1.162 1.998-6.339 4.085-12.657 6.121-18.985zm.942 4.551c-.615.006-1.235.017-1.85.034.502.338 1.004.671 1.512 1.004-.175.604-.35 1.207-.519 1.811l1.438-1.1c.508.361 1.015.722 1.523 1.078a92.31 92.31 0 0 0-.581-1.754c.491-.35.981-.705 1.467-1.061a109.93 109.93 0 0 0-1.816 0l-.542-1.63c-.214.535-.417 1.077-.632 1.618zm-.468 8.535c-1.105.051-2.216.005-3.316.034.869.643 1.799 1.202 2.623 1.906-.079 1.123-.649 2.172-.954 3.255.908-.666 1.811-1.337 2.708-2.02.88.683 1.782 1.337 2.713 1.952a76.502 76.502 0 0 1-1.043-3.153c.914-.649 1.822-1.303 2.742-1.946-1.14-.022-2.279-.011-3.418-.022-.327-1.06-.648-2.126-.993-3.181-.351 1.059-.583 2.165-1.062 3.175zm12.318 10.936c-1.128.034-2.256.028-3.378.028.886.66 1.776 1.314 2.679 1.946-.338 1.061-.677 2.121-1.015 3.187.896-.654 1.788-1.325 2.69-1.969.88.654 1.76 1.314 2.662 1.94-.316-1.055-.672-2.093-1.016-3.136.896-.643 1.794-1.286 2.651-1.968-1.101 0-2.206.005-3.306-.011-.315-1.01-.626-2.02-.965-3.018a20.322 20.322 0 0 0-1.002 3.001zm10.3.474c-.615-.005-1.229-.011-1.839-.011a149.1 149.1 0 0 0 1.518 1.094c-.209.581-.423 1.167-.632 1.754a87.794 87.794 0 0 0 1.551-1.111c.479.378.959.75 1.45 1.117-.187-.592-.367-1.196-.548-1.788.491-.35.981-.699 1.479-1.043-.627-.023-1.247-.045-1.873-.074-.175-.558-.339-1.111-.514-1.669-.203.575-.401 1.15-.592 1.731zm-15.055 13.83c-1.1 0-2.205-.011-3.305 0 .84.694 1.726 1.326 2.628 1.935-.299 1.078-.665 2.138-1.026 3.204.908-.665 1.811-1.331 2.741-1.957a43.889 43.889 0 0 0 2.606 1.89c-.288-1.038-.644-2.059-.999-3.08.897-.683 1.822-1.331 2.736-1.996a620.49 620.49 0 0 0-3.351.022 56.976 56.976 0 0 1-.999-3.182c-.365 1.049-.726 2.098-1.031 3.164zm6.543 10.26c-.598 0-1.195-.005-1.793.006.468.35.947.694 1.427 1.044-.181.581-.361 1.156-.53 1.737.485-.355.976-.717 1.461-1.066.496.355.987.717 1.483 1.077-.181-.592-.367-1.185-.553-1.782.479-.327.965-.654 1.438-.992-.604-.018-1.202-.028-1.806-.04-.197-.581-.395-1.156-.592-1.731-.185.58-.36 1.161-.535 1.747z"/><g fill="#BA2B2B"><path d="M16.891 42.879c1.562-.062 3.119-.045 4.676-.028 2.087.09 3.948 1.123 5.821 1.94 5.979 2.792 11.473 7.09 14.699 12.939 2.036 3.694 3.08 7.874 3.322 12.07-.699.49-1.393.986-2.081 1.478.271-5.438-1.545-10.853-4.71-15.252-5.054-7.101-13.114-11.901-21.727-13.147zM14.477 43.246c6.503 2.143 13.176 4.89 17.925 10.006 5.375 5.708 6.673 14.05 5.922 21.591-3.649 2.849-7.468 5.522-11.224 8.241 18.309-18.834-2.798-35.839-12.623-39.838z"/><path d="M29.667 43.99c2.764.553 8.59 1.743 12.268 4.066 3.142 1.963 5.579 5.071 6.487 8.687.885 3.745.626 7.767-.818 11.343.395-4.761-.97-9.628-3.92-13.396-4.19-5.55-10.525-9.21-17.175-11.015.76.022 2.012.09 3.158.315z"/></g></svg>