<svg xmlns:xlink="http://www.w3.org/1999/xlink"  xmlns="http://www.w3.org/2000/svg" viewBox="0 0 1500 1500"><path fill="#A85963" d="M62.3 1020.5l-6.1 46.2H373l32.7-46.2H62.3zm386.9-61.6H150.5l-6.1 46.2h272.2l32.6-46.2zm4.7 61.6l-42.1 46.2h325.7l-12.4-46.2H453.9zm45.5-132.3H248.5l-6.1 46.2h224.3l32.7-46.2zm87.1-123.1H474l-6.1 46.2h85.9l32.7-46.2zm-45.7 64.6H331.3l-6.1 46.1h182.9l32.7-46.1zm-72.9 175.4H721l-12.4-46.2H510l-42.1 46.2zm218.4-129.3l-12.4-46.1h-46.2l-42.1 46.1h100.7zm-22.8-85.3l-18.9 20.7H669l-5.5-20.7zM532.4 934.3H702l-12.4-46.2H574.5l-42.1 46.2zm605.9 132.4l-31.3-46.2-10.4-15.4-31.2-46.2-16.7-24.6-31.2-46.2-8.3-12.3-31.3-46.1-12.5-18.5-31.3-46.2-59.3-87.6-47.3-69.9-2.7 1.9-62.1 45.1 12 13.8 97 111.7 27 31.1 16 18.5 40.1 46.1 10.7 12.3 40.1 46.2 21.4 24.6 40.1 46.2 13.4 15.4 40.1 46.2 62.1 71.6 18 20.8-62.4-92.3z"/><path fill="#77694A" d="M1064.5 811.2l-6.1-46.2H934.1l31.3 46.2h99.1zm32.1 193.9H1388l-6.1-46.2h-316.6l31.3 46.2zm373.5 15.4H1107l31.3 46.2h337.9l-6.1-46.2zm-461-144.7h198.1l-6.1-46.1H977.8l31.3 46.1zm39.6 58.5H1290l-6.1-46.2h-266.5l31.3 46.2zm-241.4 86.2l-12.4 46.2h324l-40.1-46.2H807.3zm4.1-15.4h254.1l-40.1-46.2H823.8l-12.4 46.2zm19-70.8h173.7L964 888.1H842.8l-12.4 46.2zm15.7-58.5h107.2l-40.1-46.1h-54.7l-12.4 46.1zm17.3-64.6h33.8l-25.8-29.7-8 29.7zm-38.6-201.7l2.7-1.9 104.7-76.1H802.7L775 446.3l-12.3-37.9-40 123.1H593.3L698 607.6 586.5 765.1l-32.7 46.2-13.1 18.5-32.7 46.1-8.7 12.3-32.7 46.2-17.4 24.6-32.7 46.2-10.9 15.4-32.7 46.2-49.4 69.8 63.6-69.8 42.1-46.2 4.7-5.1 9.4-10.3 42.1-46.2 22.4-24.6 42.1-46.2 11.2-12.3 42.1-46.1 16.8-18.5 37.9-41.6 104-114.1 62.9-46.1zM690.6 504.6c10.5 0 19-8.5 19-19s-8.5-19-19-19-19 8.5-19 19 8.5 19 19 19zm139.5 0c10.5 0 19-8.5 19-19s-8.5-19-19-19c-9.4 0-17.1 6.8-18.7 15.7-.2 1.1-.3 2.2-.3 3.3 0 5.4 2.2 10.2 5.8 13.7 3.4 3.3 8 5.3 13.2 5.3zm-168 107.8c0-10.5-8.5-19-19-19s-19 8.5-19 19 8.5 19 19 19 19-8.5 19-19z"/></svg>