<svg xmlns:xlink="http://www.w3.org/1999/xlink"  xmlns="http://www.w3.org/2000/svg" width="100" height="100" viewBox="0 0 100 100"><path fill="#31408C" d="M21.72 33.668c2.35-1.643 5.284-2.182 8.113-2.182h37.511c3.299 0 6.787.845 9.214 3.201 2.527 2.397 3.499 6.343 2.152 9.591-1.254 3.169-4.629 5.372-8.044 5.086-1.5-.1-2.86-.829-4.032-1.722.42.433.845.855 1.275 1.283-12.851-.01-25.701.016-38.549-.016.729-.75 1.474-1.495 2.226-2.224 11.33.021 22.656.005 33.988.011.267.243.534.486.809.729-1.384-1.632-2.309-3.824-1.765-5.979.568-2.693 3.325-4.738 6.08-4.315 2.611.306 4.695 3.143 3.89 5.72-.555 2.202-3.285 3.591-5.343 2.503-1.727-.803-2.461-3.243-1.262-4.78.699-1.014 1.996-1.231 3.143-1.188-1.912-.618-4.097.713-4.432 2.688-.431 2.429 1.584 4.806 3.969 5.113 2.617.301 5.232-1.484 6.111-3.935 1.106-2.842-.256-6.264-2.802-7.838-2.316-1.542-5.182-1.854-7.896-1.78-12.082.005-24.161.005-36.238.005-2.541.005-5.195.528-7.252 2.102-2.182 1.632-3.335 4.69-2.409 7.305.84 2.625 3.676 4.605 6.452 4.099 2.388-.449 4.321-3.016 3.602-5.44-.541-1.87-2.707-2.958-4.526-2.255 1.329-.185 2.876.147 3.539 1.442 1.183 1.996-.497 4.791-2.776 4.817-2.184.232-4.262-1.743-4.172-3.93-.116-2.541 2.239-4.817 4.764-4.696 2.947-.026 5.559 2.657 5.477 5.594.079 3.333-2.723 6.37-6.021 6.666-3.914.438-7.783-2.493-8.594-6.312-.858-3.506.806-7.393 3.798-9.363zm3.623 7.352c-.887.465-1.067 1.833-.256 2.456.861.909 2.58.153 2.535-1.083.122-1.146-1.325-2.022-2.279-1.373zm44.813-.053c-.916.37-1.215 1.738-.462 2.419.745.898 2.366.465 2.596-.666.394-1.177-1.061-2.381-2.134-1.753z"/><path fill="#31408C" d="M34.056 43.402c9.605-.016 19.21-.005 28.812-.005-.002.872-.002 1.738-.002 2.614-9.6-.005-19.202 0-28.802 0-.001-.871-.006-1.742-.008-2.609zM4.34 79.027c29.443.011 58.886 0 88.33.011-.005.607-.005 1.226-.005 1.838-29.443 0-58.887.006-88.327 0 0-.618 0-1.23.002-1.849z"/><g fill="#BA2B2B"><path d="M30.731 22.344c.404.75.787 1.505 1.165 2.271.834.116 1.661.232 2.496.354-.6.613-1.204 1.22-1.817 1.822.132.829.277 1.664.422 2.499-.758-.396-1.516-.792-2.266-1.199-.755.407-1.521.803-2.271 1.209.146-.85.293-1.701.441-2.551a27.893 27.893 0 0 1-1.825-1.764c.83-.132 1.659-.259 2.496-.359.387-.761.773-1.527 1.159-2.282zM39.609 22.323c.388.771.776 1.542 1.183 2.303.834.101 1.664.227 2.493.365a35.31 35.31 0 0 1-1.838 1.748c.146.851.293 1.706.444 2.562-.755-.401-1.513-.797-2.258-1.209a85.96 85.96 0 0 1-2.271 1.178c.135-.824.277-1.643.412-2.466-.604-.607-1.212-1.22-1.806-1.833.827-.122 1.65-.237 2.482-.343.385-.768.774-1.54 1.159-2.305zM47.357 24.625c.389-.766.771-1.537 1.17-2.297.383.766.769 1.532 1.162 2.297.84.111 1.672.232 2.509.365a52.956 52.956 0 0 0-1.846 1.759c.138.845.274 1.69.406 2.541a92.215 92.215 0 0 0-2.266-1.188c-.747.396-1.497.797-2.25 1.183.146-.834.288-1.664.434-2.499a73.351 73.351 0 0 1-1.793-1.822c.821-.122 1.645-.233 2.474-.339zM57.385 22.312c.392.771.776 1.537 1.168 2.308.826.111 1.658.232 2.49.349-.6.607-1.202 1.209-1.807 1.812.148.835.293 1.669.431 2.509-.758-.391-1.508-.792-2.258-1.188-.753.391-1.503.787-2.264 1.172.138-.84.28-1.669.436-2.498-.612-.602-1.228-1.205-1.838-1.807.832-.116 1.664-.232 2.498-.354.381-.766.767-1.532 1.144-2.303zM66.298 22.317c.389.766.774 1.532 1.159 2.298.832.116 1.667.237 2.499.354a72.096 72.096 0 0 1-1.804 1.78c.116.84.253 1.679.394 2.519a84.707 84.707 0 0 1-2.237-1.172c-.763.396-1.526.792-2.281 1.199.135-.829.34-1.648.398-2.487-.515-.676-1.207-1.199-1.785-1.822.837-.132 1.672-.259 2.512-.375l1.145-2.294zM34.877 35.411c1.247-.734 2.717.333 3.061 1.579.644 1.632-.246 4.136-2.229 4.172-2.688-.29-3.069-4.579-.832-5.751zM41.263 35.39c1.215-.676 2.638.301 3.013 1.5.689 1.643-.148 4.162-2.139 4.278-2.755-.227-3.14-4.595-.874-5.778zM47.474 35.469c.999-.655 2.343-.132 2.902.856.872 1.437.61 3.618-.866 4.563-.972.607-2.345.116-2.852-.877-.847-1.421-.629-3.586.816-4.542zM53.896 35.442c1.447-.866 3.122.523 3.27 2.007.372 1.59-.581 3.813-2.448 3.708-2.585-.401-2.923-4.468-.822-5.715zM60.349 35.4c1.032-.57 2.348.032 2.836 1.046.612 1.22.547 2.852-.335 3.93-.605.739-1.76 1.04-2.597.518-1.857-1.179-1.838-4.4.096-5.494zM31.026 50.363c.373-.438 1.067-.153 1.289.302.37.538.443 1.214.446 1.858-.013 8.197.002 16.395-.008 24.592h-2.456c0-8.197.002-16.389 0-24.586.027-.76.109-1.637.729-2.166zM35.368 52.529c-.034-.993.444-2.255 1.569-2.377 1.045-.021 1.748 1.088 1.727 2.055.016 8.303-.003 16.601.008 24.903-1.101.005-2.205.005-3.304.005.003-8.197 0-16.394 0-24.586zM43.785 50.231c1.4-.417 3.045.792 2.875 2.292-.005 8.197 0 16.395-.002 24.592H42.05c.002-8.191-.008-16.384.005-24.575-.048-1.057.684-2.087 1.73-2.309zM50.807 52.534c-.071-1.083.729-2.107 1.788-2.318 1.381-.375 2.966.834 2.823 2.298-.003 8.202-.003 16.404-.003 24.602-1.537 0-3.076 0-4.613-.005.008-8.193 0-16.384.005-24.577zM58.785 52.825c-.063-1.052.312-2.435 1.5-2.667 1.085-.09 1.824 1.061 1.806 2.049.019 8.303 0 16.605.006 24.908-1.104 0-2.203 0-3.307-.005 0-8.096.014-16.194-.005-24.285zM64.708 52.529c.011-.898.195-1.938 1.07-2.398 1.062 0 1.359 1.257 1.381 2.107.016 8.293.003 16.58.003 24.877h-2.454c.003-8.197 0-16.394 0-24.586z"/></g></svg>