<svg xmlns:xlink="http://www.w3.org/1999/xlink"  xmlns="http://www.w3.org/2000/svg" viewBox="0 0 1500 1500"><path fill="#AB5153" d="M340 755.6c133.9-1.5 219.4-26.3 277.2-82.7 3.9-3.8 7.6-7.7 11.2-11.8 8.8-9.9 17-20.7 24.5-32.3L630.5 581c-7.8 10.9-16.3 21.1-25.4 30.4-3.7 3.8-7.6 7.5-11.6 11.1-61.8 55.8-151.7 81.3-285.2 82.8-122.4 1.4-173.3 71.9-188.2 98.7 7.4 15.7 14.8 31.5 22.2 47.2 24.3-35.5 81.9-94.3 197.7-95.6zm-66.9-144.7c133.3-1.5 218.6-26 276.4-82 3.9-3.7 7.6-7.6 11.3-11.7 8.9-9.8 17-20.6 24.6-32.2l-25-53.2-46.3 21.8 5.2 11C418.1 645.4 147.4 465.9 56.7 669c6 12.8 12.1 25.6 18.1 38.4 23.8-35.2 81.5-95.2 198.3-96.5zm35 73.5c133-1.5 218.3-26 276.1-81.7 3.9-3.7 7.7-7.6 11.3-11.6 8.9-9.8 17.1-20.5 24.6-32.1l-24.3-51.7c-7.8 10.9-16.3 21.2-25.4 30.5-3.7 3.8-7.6 7.5-11.6 11.1-61.8 56-151.8 81.6-285.5 83.1-121.8 1.4-172.7 71.2-188 98.3 8 17.1 16.1 34.1 24.1 51.2 23.8-35.4 81.4-95.8 198.7-97.1zm354.6 494.7c-19.9 2.4-40.2 5.4-60.8 9.3-85.9 15.9-178.4 45.3-275.6 93.9h865.4s-105-69.5-277.4-97.8l-127-270.2-28.3-60L663.4 651c-7.8 11-16.2 21.2-25.3 30.7-3.7 3.9-7.6 7.5-11.6 11.1-61.8 56.6-152 82.4-286.3 83.9-120.1 1.3-171.3 69.3-187.3 97.2 8.7 18.5 17.4 37.1 26.2 55.6 90.7-203.1 361.4-23.7 462.6-204.4l89.1 189.3 28.2 60.1 95.2 202.4c-58.1-5.7-122.3-5.9-191.5 2.2zm51.8-824.6l22.1-16 22.1 16-8.4-25.9 22.1-16H745l-8.4-25.9-8.4 25.9h-27.3l22.1 16-8.5 25.9zm85 121.3l13-9.4 13 9.4-5-15.3 13-9.4h-16.1l-5-15.3-5 15.3h-16.1l13 9.4-4.8 15.3zm50.1-64l12.9-9.3 12.9 9.3-4.9-15.1 12.9-9.4h-15.9l-4.9-15.1-4.9 15.1h-15.9l12.9 9.4-5.1 15.1zM746.3 594.3l-4.5-13.8-4.5 13.8h-14.5l11.7 8.5-4.5 13.8 11.7-8.5 11.7 8.5-4.5-13.8 11.7-8.5h-14.3zm-99.4-46.1l18-13 17.9 13-6.8-21.1 17.9-13h-22.2l-6.8-21.1-6.9 21.1h-22.2l18 13-6.9 21.1z"/><path fill="#27628E" d="M601.8 1188.4c20.7-3.8 41-6.9 60.8-9.3L759 974.4l-28.2-60.1-129 274.1zm614.1-483.1c-136.6-1.5-227.6-28.3-289.5-86.9-3.9-3.7-7.7-7.5-11.4-11.4-9-9.7-17.3-20.1-25-31.3l-22.3 47.5c7.4 12 15.4 23.1 24 33.3 3.6 4.2 7.2 8.3 11 12.3 57.9 59.4 144.3 85.3 281.5 86.8 110.2 1.2 167.7 54.6 193.9 90.4 7.5-15.9 15-31.8 22.5-47.8-18.5-30-70.4-91.6-184.7-92.9zm-31.9 71.3c-137.4-1.5-228.7-28.6-290.6-88-3.9-3.7-7.7-7.6-11.4-11.6-8.9-9.7-17.2-20.2-24.9-31.5L759 854.3l28.2 60.1L876.3 725c101.2 180.8 371.9 1.3 462.6 204.5 9.6-20.5 19.3-41 28.9-61.5-19.3-30.5-71.3-90.2-183.8-91.4zM998.7 464.8l5.2-11-46.3-21.8-22.4 47.6c7.4 12 15.4 23 24.1 33.2 3.6 4.2 7.2 8.3 11.1 12.2 57.9 58.9 144.1 84.6 280.7 86.1 111.2 1.3 168.7 55.6 194.6 91.4 5.2-11 10.4-22.1 15.6-33.1-90.7-203.3-361.4-23.8-462.6-204.6zm252.2 167.1c-136.8-1.5-227.9-28.3-289.8-87.2-3.9-3.7-7.7-7.5-11.4-11.5-9-9.7-17.3-20.1-25-31.4l-24.2 51.5c7.4 11.9 15.5 22.9 24.2 33.1 3.6 4.2 7.2 8.3 11.1 12.1 57.8 58.7 144.1 84.3 280.4 85.8 111.5 1.2 169.1 55.9 194.9 91.7 8.1-17.2 16.2-34.5 24.3-51.7-18.8-30.1-70.7-91.1-184.5-92.4zM604.4 367.7l11.7 8.5-4.5-13.8 11.7-8.5h-14.5l-4.5-13.8-4.5 13.8h-14.5l11.7 8.5-4.5 13.8 11.9-8.5zm100.4 89.4l12.9-9.3 12.9 9.3-4.9-15.1 12.9-9.4h-15.9l-4.9-15.1-4.9 15.1H697l12.9 9.4-5.1 15.1zm211.7-121l13.1-9.5 13.1 9.5-5-15.4 13.1-9.5h-16.2l-5-15.4-5 15.4h-16.2l13.1 9.5-5 15.4zm-81.9 232.1l8.8-6.4 8.8 6.4-3.3-10.3 8.8-6.4h-10.9l-3.4-10.3-3.4 10.3h-10.8l8.8 6.4-3.4 10.3zm-85 158.4l16.7-12.2 16.7 12.2-6.4-19.7 16.7-12.2h-20.7l-6.4-19.7-6.4 19.7h-20.7L756 707l-6.4 19.6z"/></svg>