<svg xmlns:xlink="http://www.w3.org/1999/xlink"  xmlns="http://www.w3.org/2000/svg" viewBox="0 0 1500 1500"><path fill="#AB5153" d="M763 142.5H170v924.2c0 227.9 264.7 116.4 592.2 310.3v.5c.2-.1.3-.2.4-.3.1.1.3.2.4.3v-.5c327.4-193.9 592.2-82.4 592.2-310.3V142.5H763z"/><path fill="#395D76" d="M762.2 142.5h-3v1232.8c1 .6 2 1.1 3 1.7v.5c.2-.1.3-.2.4-.3.1.1.3.2.4.3v-.5c327.4-193.9 592.2-82.4 592.2-310.3V142.5h-593z"/><path fill="#954647" d="M763.2 523.4H238.8s-11.3 131.4 139 131.4h385.4V523.4zM763.2 720.1H295.7s-10 117.2 123.9 117.2h343.6V720.1zM763.2 894.6H356.3s-8.7 102 107.8 102h299v-102z"/><g opacity=".52"><path fill="#FFFFFE" d="M762 523.4h524.4s11.3 131.4-139 131.4H762V523.4zM762 720.1h467.5s10 117.2-123.9 117.2H762V720.1zM762 894.6h406.8s8.7 102-107.8 102H762v-102z"/></g><path fill="#FFFFFE" d="M844.7 395l5.6 17.1h18l-14.6 10.6 5.6 17.1-14.6-10.5-14.6 10.5 5.6-17.1-14.6-10.6h18zM846 226.1l3.9 12.1h12.7l-10.3 7.5 4 12.1-10.3-7.5-10.4 7.5 4-12.1-10.3-7.5H842zM943.1 270l5.9 18.3h19.2l-15.5 11.3 5.9 18.3-15.5-11.3-15.6 11.3 6-18.3-15.6-11.3h19.2zM1063.7 337.2l6 18.3h19.2l-15.6 11.3 5.9 18.3-15.5-11.3-15.6 11.3 6-18.3-15.6-11.3h19.3zM1159.4 248.3l5.7 17.6h18.5l-14.9 10.9 5.7 17.6-15-10.9-15 10.9 5.7-17.6-14.9-10.9h18.5z"/><g><path fill="#FFFFFE" d="M1230.6 388.6l9.6 29.5h31.1l-25.1 18.3 9.6 29.6-25.2-18.3-25.1 18.3 9.6-29.6-25.2-18.3h31.1z"/></g><g><path fill="#FFFFFE" d="M1287.6 196.3l6.8 20.9h22l-17.8 13 6.8 20.9-17.8-12.9-17.8 12.9 6.8-20.9-17.8-13h22z"/></g><g><path fill="#FFFFFE" d="M1065 169.1l6.5 20.1h21.1l-17 12.3 6.5 20.1-17.1-12.4-17 12.4 6.5-20.1-17-12.3h21z"/></g><g><path fill="#FFFFFE" d="M1008.9 419.7l5.9 17.9h18.8l-15.2 11.1 5.8 17.9-15.3-11.1-15.2 11.1 5.8-17.9-15.2-11.1h18.8z"/></g></svg>