<svg xmlns:xlink="http://www.w3.org/1999/xlink"  xmlns="http://www.w3.org/2000/svg" width="100" height="100" viewBox="0 0 100 100"><path fill="none" d="M49.573 37.238h-.694c-.027.94-.014 1.88.066 2.827l.627-.133.001-2.694zM50.452 37.238c-.006.914-.006 1.827 0 2.74.2 0 .587-.007.78-.007.007-.907.007-1.82.007-2.733h-.787zM53.605 37.238c-.006.907-.006 1.82 0 2.727.333 0 .673.006 1.007.013.007-.914.007-1.827.014-2.74h-1.021zM47.252 37.238v2.727c.154 0 .447.013.601.02.006-.92.006-1.833.006-2.747h-.607zM52.025 37.238v2.733h.927v-2.733h-.927zM47.065 41.965c2.613-.007 5.22 0 7.834-.007v-1.333a974.155 974.155 0 0 0-7.834 0v1.34zM55.453 43.598c-.494-.133-.694-.467-.601-1.027-2.587-.014-5.18 0-7.767-.014-.006.213-.027.634-.033.84-4.94 1.46-8.827 5.807-9.707 10.887 9.094.014 18.187.006 27.281 0-.853-4.872-4.474-9.139-9.173-10.686zM52.013 30.558c.146-.787-.94-1.394-1.534-.88-.653.38-.52 1.533.226 1.734.58.213 1.294-.221 1.308-.854zM51.759 33.351l-.02-1.394h-1.467c-.006.46-.006.92-.013 1.387-1.613.387-2.894 1.647-3.26 3.28 2.66.02 5.312.02 7.974 0a4.41 4.41 0 0 0-3.214-3.273zM35.666 56.552c10.213.013 20.42.007 30.633.007v-1.667H35.673c-.001.553-.001 1.106-.007 1.66zM65.139 57.251c-1.053 0-2.1 0-3.153.008 0 .787 0 1.572.008 2.359h3.146c-.007-.787-.001-1.58-.001-2.367zM51.932 57.259v2.359h2.734v-2.359c-.907-.008-1.819-.008-2.734 0zM59.906 57.251h-2.975c0 .787 0 1.574.008 2.367h2.96c0-.787 0-1.572.007-2.367zM35.666 61.932c10.213.007 20.42 0 30.633 0v-1.714H35.673c-.001.567-.007 1.14-.007 1.714zM46.879 57.251v2.367h2.554v-2.367h-2.554zM38.958 57.251h-2.133c0 .787 0 1.58.007 2.367h2.126v-2.367zM41.832 57.259v2.359h2.36c.006-.793 0-1.587-.021-2.38l-2.339.021z"/><path fill="#5E2D7B" d="M47.772 84.292c15.32-4.28 30.653-8.486 45.94-12.867-6.84.48-13.724.813-20.514 1.83.014-12.094-.007-24.177 0-36.264 4.961 10.707 11.513 20.714 19.58 29.34-8.96-18.179-17.979-36.333-27-54.48.693 5.72 2.141 11.334 4.04 16.767-10.44 0-20.867.007-31.301-.006 5.527-2.507 10.667-6.113 14.313-11.027-14.56 6.3-29.113 12.594-43.647 18.947 6.48-1.201 12.947-2.547 19.301-4.301v33.241c-6.553-10.207-14.707-19.414-24.201-26.98a19978.343 19978.343 0 0 0 34.721 49.975c-1.447-5.24-3.52-10.293-6-15.127 1.247 0 2.487-.007 3.727-.007.007-3.587 0-7.167.007-10.754.72 0 1.446.007 2.173.007.007 3.587-.007 7.167.007 10.754.967-.007 1.94-.007 2.913-.007.007-3.587-.007-7.167 0-10.754.773 0 1.547.007 2.32.014 0 3.58-.007 7.16 0 10.747.907-.007 1.813-.007 2.72 0 .02-3.587.006-7.167.006-10.747.854-.014 1.701-.014 2.554-.007v10.747c.846 0 1.692 0 2.546.007.008-3.587 0-7.167 0-10.747.907-.014 1.82-.014 2.734-.014.006 3.587-.008 7.174 0 10.754h2.366c0-3.58-.007-7.167 0-10.747.953-.007 1.914-.007 2.866-.007.014 3.587 0 7.174 0 10.761.747-.007 1.487-.007 2.227 0 .008-3.587-.006-7.174.008-10.761 1.02 0 2.032.007 3.053.014v10.74c2.49.007 4.983 0 7.48.007-1.537.236-3.076.467-4.601.793-7.47 1.579-14.918 4.612-20.338 10.159zm2.707-54.614c.593-.513 1.679.093 1.534.88-.014.633-.728 1.066-1.308.854-.746-.201-.879-1.354-.226-1.734zm-.22 3.666c.006-.466.006-.926.013-1.387h1.467l.02 1.394a4.41 4.41 0 0 1 3.214 3.273c-2.661.02-5.314.02-7.974 0a4.376 4.376 0 0 1 3.26-3.28zm4.64 7.281v1.333c-2.614.007-5.221 0-7.834.007v-1.34c2.613-.007 5.227-.014 7.834 0zm-7.647-.66v-2.727h.607c0 .914 0 1.827-.006 2.747a17.23 17.23 0 0 0-.601-.02zm1.627-2.727h.694v2.694c-.161.033-.467.1-.627.133a24.745 24.745 0 0 1-.067-2.827zm1.573 2.74c-.006-.914-.006-1.827 0-2.74h.787c0 .914 0 1.827-.007 2.733-.193 0-.58.007-.78.007zm1.573-.007v-2.733h.927v2.733h-.927zm1.58-.006c-.006-.907-.006-1.82 0-2.727h1.021c-.007.914-.007 1.827-.014 2.74a48.39 48.39 0 0 0-1.007-.013zm-6.553 3.433c.006-.207.027-.627.033-.84 2.587.014 5.18 0 7.767.014-.094.56.106.894.601 1.027 4.699 1.546 8.32 5.813 9.173 10.687-9.094.006-18.187.014-27.281 0 .881-5.081 4.767-9.428 9.707-10.888zm19.247 18.534c-10.213 0-20.42.007-30.633 0 0-.573.007-1.146.007-1.714h30.626v1.714zm-29.474-4.681h2.133v2.367h-2.126c-.007-.787-.007-1.58-.007-2.367zm5.007 2.367v-2.359l2.34-.021c.021.793.027 1.587.021 2.38h-2.361zm5.047 0v-2.367h2.554v2.367h-2.554zm5.053 0v-2.359c.915-.008 1.827-.008 2.734 0v2.359h-2.734zm5-2.367h2.975c-.007.795-.007 1.58-.007 2.367h-2.96c-.008-.793-.008-1.58-.008-2.367zm5.053.008c1.054-.008 2.101-.008 3.153-.008 0 .787-.006 1.58 0 2.367h-3.146c-.007-.787-.007-1.572-.007-2.359zm4.314-.7c-10.213 0-20.42.006-30.633-.007.007-.554.007-1.106.007-1.66h30.626v1.667z"/></svg>