<svg xmlns:xlink="http://www.w3.org/1999/xlink"  xmlns="http://www.w3.org/2000/svg" viewBox="0 0 1500 1500"><path fill="#CA5262" d="M482.2 292.1S701 737.4 750 856.8V24.3s-33.7 624.4-267.8 267.8z"/><path fill="#CA5262" d="M587.8 337.3l23-22.5 23 10.9-8.8-24.8 23.1-22.5-28.5 7.1-8.8-24.9-8.8 29.3-28.5 7.1 23.1 11z"/><path fill="#0193D7" d="M850.1 472.5s-50.9 293.8-65.4 371.8l291-410.2c-.1.1-234.9 295.9-225.6 38.4z"/><path fill="#0193D7" d="M906.2 529.1l7.6 13.5 4.3-15.3 19.2-3.1-16.5-6.4 4.4-15.3-14.6 11.3-16.5-6.4 7.5 13.4-14.6 11.4z"/><path fill="#27588D" d="M1292 709.4s-362.5 106.4-206.4-98.7c0 0-210.9 210.7-267.9 266.1L1292 709.4z"/><path fill="#27588D" d="M1098.9 689.3l-1.7 15.3 12.4-10 17.5 8.6-9.8-14.8 12.4-10-18.5.9-9.7-14.8-1.7 15.3-18.4.9z"/><path fill="#0193D7" d="M818.7 926.2l484 136.6s-357.5-122-111.7-199.6c-.1 0-293.9 50.6-372.3 63z"/><path fill="#0193D7" d="M1162.2 945.6l9.3 17.1.5-17.7 15.9-1-15.6-10 .6-17.7-10.2 11.6-15.6-9.9 9.3 17.1-10.1 11.6z"/><path fill="#27588D" d="M796.2 959.6l316.7 390.6s-221.8-305.8 23.8-227.5c0 0-269.3-128-340.5-163.1z"/><path fill="#27588D" d="M1076.3 1159.4l-7-17.1-2.2 19.3-15 3.6 13.6 8.3-2.3 19.4 10.7-14.2 13.6 8.3-7.1-17.1 10.7-14.2z"/><path fill="#0193D7" d="M792.2 1475.8s-4.9-377.7 150.6-172.2c0 0-146.2-259.8-184.2-329.6l33.6 501.8z"/><path fill="#0193D7" d="M876.4 1280.7l-12.9 14.5-14.4-5.7 6.3 14.6-13 14.5 16.9-5.4 6.3 14.6 4.2-18 16.8-5.4-14.3-5.7z"/><path fill="#27588D" d="M680.1 1339.5s30.3-296.6 39.4-375.5l-261.8 429.4s213.7-311.4 222.4-53.9z"/><path fill="#27588D" d="M620.1 1286.9l-8.4-12.9-3.3 15.6-19 4.4 16.9 5.3-3.3 15.6 13.8-12.4 16.9 5.3-8.4-12.9 13.7-12.3z"/><path fill="#0193D7" d="M693.4 933.4l-461.5 200s354.2-131.3 212.8 84.1c0 0 195.7-224.9 248.7-284.1z"/><path fill="#0193D7" d="M426.5 1124.5l-11.7 10.9-18-7.4 10.8 14.1-11.7 10.8 18.4-2.1 10.8 14.1.5-15.4 18.4-2.2-18-7.4z"/><path fill="#27588D" d="M322.7 982s289.6-70.9 367-88.8L197.3 790.6S562.4 887.5 322.7 982z"/><path fill="#27588D" d="M336.3 910l.7 17.8 9.3-12.3 16.2 8.8-10.4-16.4 9.3-12.3-15.8 2.2-10.4-16.4.7 17.7-15.8 2.1z"/><path fill="#0193D7" d="M709.7 858.4L366.6 490.7s242.5 289.6-7.9 228.7c0-.1 277.5 109 351 139z"/><path fill="#0193D7" d="M416.4 678.6l8.2 16.6.9-19.5 14.7-4.6-14.1-7.4.8-19.4-9.6 14.9-14.1-7.4 8.2 16.6-9.7 14.9z"/></svg>