<svg xmlns:xlink="http://www.w3.org/1999/xlink"  xmlns="http://www.w3.org/2000/svg" viewBox="0 0 1500 1500"><path fill="#B55366" d="M1364.6 819.6c-366.5-290.5-732.9 473.8-1099.4 183.2 366.5 234.4 732.9-586 1099.4-351.6v168.4z"/><path fill="#B55366" d="M1364.6 1087.1c-366.5-379.7-732.9 295.5-1099.4-84.2 366.5 323.5 732.9-407.7 1099.4-84.2v168.4z"/><path fill="#B55366" d="M1364.6 1354.5c-366.5-468.8-732.9 117.2-1099.4-351.6 366.5 412.7 732.9-229.4 1099.4 183.2v168.4z"/><path fill="#006DB6" d="M185 742.3c366.5 290.5 732.9-473.7 1099.4-183.2-366.5-234.4-732.9 586-1099.4 351.5V742.3z"/><path fill="#006DB6" d="M185 474.9c366.5 379.7 732.9-295.5 1099.4 84.2C917.9 235.5 551.5 966.8 185 643.2V474.9z"/><path fill="#006DB6" d="M185 207.5C551.5 676.3 917.9 90.3 1284.4 559.1 917.9 146.4 551.5 788.5 185 375.8V207.5z"/><g><path fill="#006DB6" d="M1328.6 435.4l12.9 26.1 28.8 4.2-20.8 20.3 4.9 28.7-25.8-13.5-25.7 13.5 4.9-28.7-20.9-20.3 28.8-4.2zM1308.2 283l9.5 19.2 21.2 3.1-15.4 14.9 3.7 21.1-19-10-18.9 10 3.6-21.1-15.3-14.9 21.1-3.1zM1212.6 201.2l7 14.2 15.6 2.3-11.3 11 2.7 15.5-14-7.3-14 7.3 2.7-15.5-11.3-11 15.6-2.3zM1077.7 183.6l5.2 10.6 11.7 1.7-8.4 8.2 2 11.7-10.5-5.5-10.4 5.5 2-11.7-8.5-8.2 11.7-1.7zM947.3 235.2l3.2 6.4 7 1-5.1 4.9 1.2 7.1-6.3-3.3-6.3 3.3 1.2-7.1-5.1-4.9 7.1-1z"/></g><g><path fill="#B55366" d="M210.3 1112.5l-12.8-26.2-28.8-4.1 20.8-20.4-4.9-28.6 25.7 13.5 25.8-13.5-4.9 28.6 20.8 20.4-28.8 4.1zM230.7 1264.9l-9.4-19.2-21.2-3.1 15.3-14.9-3.6-21.1 18.9 10 19-10-3.6 21.1 15.3 14.9-21.2 3.1zM326.4 1346.7l-7-14.2-15.7-2.3 11.3-11-2.6-15.6 14 7.4 13.9-7.4-2.7 15.6 11.4 11-15.7 2.3zM461.2 1364.2l-5.2-10.6-11.6-1.6 8.4-8.3-2-11.6 10.4 5.5 10.5-5.5-2 11.6 8.4 8.3-11.6 1.6zM591.7 1312.7l-3.2-6.4-7-1 5.1-5-1.2-7 6.3 3.3 6.3-3.3-1.2 7 5.1 5-7.1 1z"/></g></svg>