<svg xmlns:xlink="http://www.w3.org/1999/xlink"  xmlns="http://www.w3.org/2000/svg" viewBox="0 0 1500 1500"><path fill="none" d="M1126.9 642.8c2.8.3 5.5.6 8.3 1 2.2.3 4.3.6 6.4.9l-8.7-6.3-6 4.4zM548.9 285.2c-1.5-15.8-8.5-37-33.4-48.6-20.8-9.7-52.9-7.9-83.7 4.9-23.9 9.9-42.8 24.4-53 40.3 3.3.8 6.3 2.5 8.6 4.9 28.1-28.7 56.1-38.4 78.8-38.4 26 0 65.4 18.4 82.7 36.9zM1016.8 856.2c-11.9 0-21.6 9.7-21.6 21.6 0 11.9 9.7 21.6 21.6 21.6 11.9 0 21.6-9.7 21.6-21.6 0-11.9-9.7-21.6-21.6-21.6z"/><path fill="#976F43" d="M1201.5 767c5.2-7.3 22.4-29.9 43.3-40.7 21.1-4.4 34.4-11.6 35.7-21.3 2.4-17.9-37.2-38.6-94.4-52l10.2 31.3-54.5-39.6c-2.1-.3-4.2-.7-6.4-.9-2.8-.4-5.6-.7-8.3-1l-57.1 41.5 14.5-44.8c-59-2-102.8 7.8-105.1 25.7-1.4 10.4 11.4 21.7 33.3 31.9 10.9 13.9 23.9 37.8 22.1 72.2.4.7.8 1.2 1.2 1.9-1.9 24.2-.9 52.1 6.4 79.5-6.7-6.3-15.6-10.2-25.4-10.2-20.6 0-37.3 16.7-37.3 37.3 0 20.6 16.7 37.3 37.3 37.3 19.3 0 35-14.7 36.9-33.5 1.5 3 2.8 6.1 4.5 9 47.2 83.4 148 245.6 148 245.6s0 33.1 22 28.3c6.3 15.7 7.9 74-34.6 78.7-42.5 4.7-61.4-29.9-58.2-59.8 3.1-29.9 28.3-34.6 28.3-34.6L872 740.8l18-11.6c7.4 9.3 17.2 13.7 23 9.9 6.6-4.3 5.8-17.2-1.8-28.8-7.6-11.7-19-17.7-25.6-13.4-5.9 3.8-5.8 14.5-.3 25.1L867 733.9 832.6 686l20.9-13.6c7.4 9.3 17.2 13.7 23 9.9 6.6-4.2 5.8-17.2-1.8-28.8-7.6-11.7-19-17.7-25.6-13.4-5.9 3.8-5.8 14.5-.4 25.1L827.4 679l-32.3-45.2 20.5-13.3c7.4 9.3 17.2 13.7 23 9.9 6.6-4.3 5.8-17.2-1.8-28.8-7.6-11.7-19-17.7-25.6-13.4-5.9 3.8-5.8 14.5-.3 25.1L790 626.8l-33.4-46.6 22.7-14.7c7.4 9.3 17.1 13.8 23 10 6.6-4.3 5.8-17.2-1.8-28.9s-19-17.7-25.6-13.4c-5.9 3.8-5.8 14.5-.4 25.1l-23 14.9L578 330.1l29.9-23.6s0-18.9-12.6-9.4c-12.6 9.4-31.5 15.7-31.5 15.7s3.3-14.6-2.3-14.3c.9-17.5-2-55.2-40.7-73.2-24.3-11.3-59.4-9.6-93.9 4.6-32.3 13.3-56.7 34.9-65.5 57.9-2.4 3-3.9 6.7-3.9 10.8 0 6.1 3.2 11.4 7.9 14.5-5.3 7.5-10.6 15.7-15.8 24.8-37.8 50.4-61.4 70.8-61.4 70.8s-18.9-15.7-20.5 6.3l-63 9.5-113.1 70.9s-15.7 29.9 20.5 40.9C149.9 519 227 475 227 475l45.6-34.6s18.9 6.3 20.5-9.5c23.6-9.4 81.9-66.1 99.2-99.2 17.3-33.1 80.3-63 124.4-6.3l-11 9.5 27.8 47.9-5.7-8.6-17.3 9.4 81.9 144.8 18.9-9.4-7.9-14.2-12.6 4.7-69.3-121.2 12.5-4.7 226.9 391.8c-9.2 3.2-15.9 11.9-15.9 22.2 0 13.1 10.6 23.6 23.6 23.6 5.9 0 11.3-2.3 15.4-5.9l9.3 16c-8.1 3.7-13.7 11.9-13.7 21.4 0 13 10.6 23.6 23.6 23.6 5.1 0 9.8-1.6 13.6-4.4l80.3 138.6c-11.3 1.8-19.9 11.5-19.9 23.2 0 13.1 10.6 23.6 23.6 23.6 7.4 0 14-3.5 18.3-8.8l6.1 10.5c-8.7 3.5-14.9 11.9-14.9 21.9 0 13.1 10.6 23.6 23.6 23.6 5.6 0 10.6-2 14.7-5.2l8.3 14.3c-9.6 3-16.6 11.9-16.6 22.4 0 13 10.6 23.6 23.6 23.6 6.2 0 11.8-2.4 16-6.4l43.8 75.6s8.9 18.1 26.1 40.2l-.9-.8-29.9 22s0 4.7 11 15.7 26.8 48.8 26.8 48.8 7.9 4.7 18.9-3.1c9.3-6.7 24.2-25.6 28.5-31.3 28.8 19 65.1 31.6 108.4 25 122.8-18.9 168.4-137 137-201.5-28.6-58-168.4-262.3-148.1-376.8zm-184.7 132.3c-11.9 0-21.6-9.7-21.6-21.6 0-11.9 9.7-21.6 21.6-21.6 11.9 0 21.6 9.7 21.6 21.6 0 11.9-9.7 21.6-21.6 21.6zM212.7 454.5s-86.4 64.3-97.4 66.1c-11 1.8-11-18.4-11-18.4l110.2-64.3 47.8-7.3 5.5 1.8-55.1 22.1zm928.9 779.2s-33.1 42.5-70.8 44.1c-14.2-3.1-18.9-20.5-18.9-20.5s58.2-25.2 75.6-50.4c7.8 17.4 14.1 26.8 14.1 26.8zm-17.3-40.9l-14.2 9.5-547.8-851.7 7.9-3.2 554.1 845.4zm-658-944.5c-22.8 0-50.8 9.7-78.8 38.4-2.3-2.4-5.3-4.1-8.6-4.9 10.2-15.8 29.1-30.4 53-40.3 30.8-12.7 62.9-14.6 83.7-4.9 24.9 11.6 31.9 32.8 33.4 48.6-17.4-18.5-56.8-36.9-82.7-36.9zm53.5 96l75.6-39.4 3.1 6.3-66.1 47.2-12.6-14.1zm20.5 20.5l7.9-3.1 538.4 870.5-14.2 9.5-532.1-876.9zm586.8 906.7l25.2-22.1s53.6 30 77.3-12.6c.1 22.1-31.5 63.1-102.5 34.7zM987.4 667.9c-4.7-18 34.4-15.1 34.4-15.1s-37.6 40.6 104.9 57.2c72 9 134.6 4.5 140.8-12 0 12-21.7 32.3-142.4 25.2-59.7-5-122-28.2-137.7-55.3zm174.4 158.8c-7.9-39.4-11-69.4-3.1-89.9l31.5 4.7s-34.7 33.1-15.8 83.6c18.9 50.5 116.7 255.6 116.7 255.6s-121.4-214.6-129.3-254zm64.8 333c1.6 4.7-11-6.3-11-20.5 0 0 77.1-28.4 88.2-55.1 9.4 12.6 9.4 20.5 9.4 20.5s-50.4 45.7-86.6 55.1zm67.8 140.2c75.7-74.1 12.6-167.2 12.6-167.2l15.8-12.6c58.3 113.5-17.4 173.5-28.4 179.8z"/><path fill="#FFF" d="M1303.8 1084.2c-11 26.8-88.2 55.1-88.2 55.1 0 14.2 12.6 25.2 11 20.5 36.2-9.5 86.6-55.1 86.6-55.1s0-7.9-9.4-20.5zM1086.5 1232.2L548.1 361.6l-7.8 3.2 532.1 876.8zM562.3 350.6l547.8 851.7 14.2-9.5-554.1-845.4zM595.4 304.9l-75.6 39.4 12.6 14.2 66.1-47.3zM1051.9 1257.3s4.7 17.3 18.9 20.5c37.8-1.6 70.8-44.1 70.8-44.1s-6.3-9.5-14.2-26.8c-17.3 25.3-75.5 50.4-75.5 50.4zM1267.6 698c-6.2 16.5-68.8 21.1-140.8 12-142.4-16.6-104.9-57.2-104.9-57.2s-39.1-3-34.4 15.1c15.7 27.1 78 50.3 137.8 55.3 120.5 7.1 142.3-13.2 142.3-25.2zM214.5 437.9l-110.2 64.3s0 20.2 11 18.4c11-1.8 97.4-66.1 97.4-66.1l55.1-22-5.5-1.8-47.8 7.2z"/><path fill="#D8505C" d="M1059.2 456l-15.7-48.4-15.7 48.4h-50.9l41.1 30.7-15.7 48.7 41.2-29.6 41.1 30-15.7-49.2 41.2-30.6zM1218.4 281.2l24.1-17.5 24.1 17.5-9.2-29 24.1-18.2h-29.8l-9.2-28.3-9.2 28.3h-29.7l24 18.2z"/><path fill="#C251A0" d="M984.5 393.2l33-23.9 32.9 23.9-12.6-40 32.9-25.2H1030l-12.5-38.7-12.6 38.7h-40.7l32.9 25.2zM1212.6 376.6l19.9-14.4 19.8 14.4-7.5-23.2 19.8-14.4h-24.5l-7.6-23.3-7.6 23.3h-24.5l19.8 14.4z"/><path fill="#55924E" d="M1252.7 480l-8.8-27.1-8.8 27.1h-28.5l23 19-8.8 28.3 23.1-16.2 23.1 17-8.8-29.2 23-18.9zM1321.1 192.6l16.9-12.3 17 12.3-6.5-18.1 16.9-10.5h-20.9l-6.5-19.9-6.4 19.9h-20.9l16.9 10.5z"/><path fill="#385072" d="M1082.9 318.8l25.8-18.8 25.9 18.8-9.9-30.7 25.8-19.1h-31.9l-9.9-30.4-9.9 30.4h-31.9l25.8 19.1z"/><path fill="#D77D31" d="M1126.9 642.8l6.1-4.4 8.7 6.3 54.5 39.6L1186 653l-14-44.5 63.2-47.5h-78.1l-24.1-74.3-24.2 74.3h-78.1l63.2 47.5-9.6 30.3-14.5 45.1z"/><path fill="#00A9DE" d="M1096 409l38.6 27.9-14.7 45.4 38.6-28.2 38.7 28.1-14.8-45.3 38.7-27.9h-47.8l-14.8-45.5-14.7 45.5z"/><path fill="#FFF" d="M1174.5 825.1c-18.9-50.5 15.8-83.6 15.8-83.6l-31.5-4.7c-7.9 20.5-4.7 50.5 3.1 89.9 7.9 39.4 129.4 254 129.4 254s-97.9-205.1-116.8-255.6zM1307 1132.7s63.1 93.1-12.6 167.2c11-6.3 86.8-66.3 28.4-179.8l-15.8 12.6zM1152.4 1249.4l-25.2 22.1c71 28.4 102.5-12.6 102.5-34.7-23.7 42.6-77.3 12.6-77.3 12.6z"/></svg>