<svg xmlns:xlink="http://www.w3.org/1999/xlink"  xmlns="http://www.w3.org/2000/svg" viewBox="0 0 1500 1500"><path fill="none" d="M233.3 814.5c-.2-.4-.5-.7-.7-1 .1.3.2.6.2.8l.5.2zM1340.2 752.1c0-3-.2-6-.2-9.1-1.1 4.8-2.2 10.2-3.5 16.6 1.2 1 2.4-2.6 3.7-7.5zM1275 393.7c1 2.2 1.9 4.6 2.8 7 7.8 10.5 16.2 20.8 21 29.7 2.5 5.2 14.4 10.6 14.1 4.3-10.1-13.4-19.6-26.9-30-39.8 4.7-.3 5.7-9.8-5.8-23.8-1.6 10.3-13.5-11.5-26.5-30.2 13.3 21.1 25.5 43.2 37.1 62.9-3.9-3.6-8.3-6.9-12.7-10.1zM863 1239.6l-10 1 17.9 1.8c3.4-.5 6.8-.8 9.9-2.1 6.6-3.4 8.2-5.1 6.5-5.7-3.3-.4-8.6.6-13.3.4-5 .1-10.7.5-16.3.7 2.7.7 4.7 1.8 5.3 3.9zM632.3 151.7c.7 1.5 4.5 2.1 9.2 2.4 1.7-.3 3.1-.6 4.6-.9-5.1-.7-5.3-2.9-13.8-1.5z"/><path fill="none" d="M620.4 154.4c3.4-4.1 8.3-7.7 13.9-11.1-3.7-.3-10.4.4-23.1 3.3-.7.4-1.2.8-1.9 1.2-.3 6-6.7 13.4 24.8 7.6-2-.5-4-1.3-6.6-2.9-2.1.6-4.3 1.2-7.1 1.9zM900.1 1237.9l.3-.1.1-.1zM889.8 1235.4l-2.6 2.2 2.2-1.1c.5-.4.6-.8.4-1.1zM948.6 1230.1c-.6.4-1.1.7-1.7 1.1 1.6-.4 3.6-1.1 6-2-1.4.3-2.8.6-4.3.9zM959.3 1227.3c-.6.3-1.2.5-1.8.7 1.1-.3 1.8-.5 1.8-.7zM1215.6 315.9c7.7 10.9 14.6 22.3 22.6 33.5l7.9 3.4c.1.2.2.3.3.5 1-3.5-.7-10.1-7.9-18.8-1.4 9-11.4-9-22.6-25.4-.4 2.1-1 3.9-.3 6.8zM667.4 146.7c.7-.4 1.2-.8 1.7-1.2-1.6.2-3 .3-4.7.6l3 .6zM1277.6 922.5c.1 4.1.6 6 1.3 6.5l2.6-7.1 2.6.9c1-1.6 2-3.3 3-5.2.7-4 .5-7.2-1.2-8.8-2.8 4-6.1 9.2-9.1 14.6l-.4 1.1-.3.2c-4.3 7.7-7.9 15.4-8.7 19.8 3.1.3 6.4-5 9.6-11.4-2.2 1.2-3.1-.5.6-10.6zM1047.8 239.3c-4.1-1-8.4-1.9-12.7-2.8 2.3 1.4 4.7 3 7.2 5.3 6.9 2.6 6.9.5 5.5-2.5zM301.7 738.5c-.7-2-1.4-3.7-2.1-4.9.7 1.6 1.4 3.2 2.1 4.9zM640.3 174l-2.7 1.7c4.4-1.7 7.7-2.9 9.4-3.8-2.2.7-4.4 1.4-6.7 2.1zM1077.1 271.2c6.7 4.3 14.8 11.6 19.8 11.9.8-1.5.5-3.4-.5-5.4l-6.9-5.7c-.5 2.5-7.9-.1-12.4-.8zM1296.1 900.6c1.7-3.9 2.9-6.8 3.8-9 0-.4.1-.7.1-1.1-3.1 4.9-5.5 10.9-7.5 17.7 1.2-1.8 2.3-3.5 3.5-4.7l.1-2.9zM626.6 179.9c3.6-1.4 6.8-2.6 9.7-3.7l1.1-1.3c-15.4 4.7-31.2 9.9-45.3 14.8-1.7.9-3.6 1.8-5.8 2.8 12.3-4.4 25.3-8.6 38.8-12.2.5-.1 1-.2 1.5-.4zM960.9 1225.9l7.3-6.4c-9.2 4-14 7.2-19.5 10.5 1.6-.3 3-.6 4.3-.9 2.2-.8 4.8-1.9 7.9-3.2zM548.1 208.1l2.1-.9c-.4 0-.7.1-1.1.1-.4.3-.7.6-1 .8zM650.3 744.7c3.7-.9 5.6-3.7 6.6-13.1.9-9.4 33.7-31.9 34.7-34.7.9-2.8 5.6-27.2 15.9-36.6 7.5-6.8 15-15.6 18.5-19.9-13.5 1.3-25.2 2.6-33.5 3.9-33.7 5.6-55.3 2.8-64.7.9-9.4-1.9-23.4 31.9-23.4 31.9s9.4 4.7 9.4 19.7-2.8 27.2-2.8 31.9c0 4.7 0 5.6 3.7 8.4 3.7 2.9 31.8 8.5 35.6 7.6zM1159.6 1092.1c3.3.7 11.1-7.3 17.4-14.5-1.3-.1-9.5 7.6-17.4 14.5zM1304.6 838.3c.6-3.1 1-6.2 1.3-9.2l-1.8 6.6.5 2.6zM578.2 1154.5l12-.9c9.6 7.7 5.9 9.2 24 17.6 12.7 2.7.9-4.4 5.9-4.5 3.5 6.8 37.6 12.7 51.5 23.5-.9 7.6-25-16.9-41.7-14.2-.4.6-.2 1 .4 1.5 1.2.6 2.5 1.1 3.7 1.7.1 0 .1 0 .2.1h-.1c14.2 7.3 29.1 17.8 48.6 25.7-1.4-21-2.8-41-2.8-51.5 0-2.4-.2-4.9-.4-7.4-1.5-.2-3.1-.4-4.7-.6-43.8-17.7-41.3-15.1-72-20.5-1.9-6.3-30.3-14.3-44.3-23.7-8.4-2.7-15.3-4.6-21.7-6.4-.8.5-1.7 1-2.7 1.4-10.3 4.7-30.9 2.8-35.6-.9-4.7-3.7-1.9-12.2-10.3-14.1l-.1-.1c2.8 4.8 4.1 9.4 5.7 13.8 14.7 11.6 29.6 23.5 45.5 35.1 20 9.5 40.2 17 38.9 24.4zm72.5 21.2l9.6 2.7-9.6-2.7-6.3-1.8 6.3 1.8zM631.2 1123.1c15.4 4.1 30.8 8 46.4 11.3-1.6-7.8-3.9-16.4-6.8-25.9-1.8-1.2-4-2.2-6.6-2.6 9.7 10.6-68.2-5.9-33 17.2zM638.7 1084.9c6.4 3.1 17.3 6 27.6 8.9-2.4-7.7-5-15.9-7.6-24.9-7.6-25.8-10.1-80.8-10.9-113.4-6.6 3.3-9 3.9-13.5 8.4-6.6 6.6-9.4 11.3-19.7 13.1-10.3 1.9 1.9 10.3-9.4 20.6-11.2 10.3-11.2 18.7-22.5 21.6-11.3 2.8-1.9 8.4-1.9 19.7 0 11.2-11.2 11.2-15.9 15.9-4.7 4.7 0 14.1-10.3 22.5-.8.7-1.4 1.3-2.1 1.9 1.1.6 2.1 1.2 3.1 1.8 26.1 1.4-6.5-26.4 83.1 3.9zM1248.1 965.3c-.8-.9-2.5.1-4.7 2.1-2.5 5.1-3.1 9.4-4.6 14.2.8-.8 2.4-2.7 5.3-6.8 1.9-3.5 3.5-6.8 4.7-9.7l-4.1 5.3 3.4-5.1zM1124 1124.9c1.6-2.2 2-3.4 1.8-3.9-1.1.6-2.3 1.3-3.5 2l-3 2.9 4.7-1zM1165.4 1083.8c-1 1.1-1.8 2.1-2.8 3.2 8.1-6.7 16.3-14.2 23.1-19.8.3-.4.6-.7.4-.5l-.1.2c2.2-1.8 4.3-3.5 6.2-4.8 8.4-14.2-15 11.9-26.8 21.7zM1296 862.4c.4-.6.7-1.3 1-2l-.6.8-.4 1.2zM1283.7 678.5c4.3.7 8.3 1.7 11.6 3.2 0-9.3-.2-18.6-.8-27.8v4.6c-4.8-4.1-8.1 6.9-10.8 20zM980.4 1197.8c3.7-1.1 7.1-1.9 9.4-1.8l.6-2.2-10 4zM1003.8 1188.5l-9.5 3.7c1.9-.2 4.7-.8 7.9-1.7l1.6-2zM256.6 698.4c.7.2 1.5 1.4 2.4 2.8.2-.3.3-.7.5-1-1-3.4-2-3.1-2.9-1.8zM1215.1 1018.4c-8.7 16.8-22.6 34.1-36.1 49.8 11.8-10.6 24.3-22.6 31.7-28.5 1.8-6.9 3.3-14.1 4.4-21.3zM991.1 1190.9c-2 1.3-3.9 2.6-5.9 3.9 1.8-.7 3.6-1.4 5.4-2.3l.5-1.6zM1177.9 1076.7c1.8-2.1 3.5-4.1 4.8-5.7l-2.5 1.8c-1.2 1.6-1.9 2.8-2.3 3.9zM1031.6 1178.4c-2.3 1.2-5.1 2-8.2 3.3l-1.9 1.6c3.5-1.6 7.2-2.9 10.1-4.9z"/><path fill="#ABDAF1" d="M451.7 224.2c-24.7 15-19 21.1-44.6 35.4l4.1 4.1-14.2 8.2c5-1.7-4.7 9.6 3.5 6.4-11.2.2 47.3-34.5 22.1-25.9 8.6-3.3 17.5-7.5 27.2-12.4.2-.2.4-.5.6-.7-17.7 8.6-15.5-1.2 1.3-15.1zM1305.8 829.1c.2-1.7.3-3.4.4-5.1l-3.3 8c.5.6.7 2 1 3.7l1.9-6.6zM1301.3 831.1l-1.1 3 .8-1.2zM1294.5 860.9c1.3-6.5 2.1-13.1 2.9-19.7-3 8.1-6 16.1-10.1 23.7l1.3 3.3c1.7-4.6 3.7-9.1 5.2-13.7l.7 6.4zM1294.8 863.7l.1.9c.4-.7.7-1.4 1.1-2.2l.4-1.1-1.6 2.4zM1276.8 923.4c-.2.4-.5.9-.7 1.3l.3-.2.4-1.1zM1265 916.3l4.4-3.5c-.4-1.4-1.3-1.5-4.4 3.5zM1314.7 789.5l-1.1-3.5-1.7 12.9c1.3-3.2 2.2-6.4 2.8-9.4zM1305 819.5c.4-.8.8-1.5 1.3-2.3-.1-2.1-.2-4.1-.3-6-.3 2.8-.6 5.6-1 8.3zM1308.8 805.5c1.1-2.1 2.1-4.1 2.9-6 .3-2.9.8-7.3 1.9-13.6-1.3-4.4-2-6.6-6.3 3.8.1 5-.1 9.9-.5 14.7.9-1.6.8-2.1 2 1.1zM1301.3 894.6c1.4-3.5 2.7-6 3.5-4.4-.4-2-.4-4.4-.1-6.9-1.9 4.1-3.2 7.9-3.4 11.3zM1296.1 900.6l-.2 2.8 2.8-1.8c.2-.5.4-1 .5-1.5.3-2.8.5-5.6.6-8.5-.8 2.2-2 5.1-3.7 9zM1298.6 902.1l-2.7 4.2c.4 2.3 1.4-.3 2.7-4.2zM1268.8 956.5l4.2-4.1c.9-5.1 2.9-12.2-4.2 4.1zM1273 952.4c-.1.4-.1.8-.2 1.2.3-.6.6-1.3.9-1.9l-.7.7zM1277.9 932.5c-.5 1.4-.9 2.7-1.5 4.1l8.2-9.9c0-.1.1-.2.1-.4-1.4 1-4.5 4.5-6.8 6.2zM1278.9 929c1.1.7 2.9-2.2 5.2-6.2l-2.6-.9-2.6 7.1zM1298.2 798.7c5.8-21.2 5.9-3.4 10.1-29-2.3 7.9-6.2 7.7-10.1 29zM1282.6 867.9l.4 2.1c4.8-10.4 8.4-21.1 11.4-32-3.3 10.2-7 20.3-11.8 29.9zM1187 1070.2c4.5-3.8 6.2-5.9 6.9-7.4l-3.9 2.8-3 4.6zM1128.8 1116.4l1.7 2.6c-1.5.4-3 1.2-4.6 2 .2.6-.2 1.7-1.8 3.9l.6-.1c6.3-6.3 15.9-13.4 20.2-15.4l-11.7 3.2 2.6-2.7c-.6.4-1.3.9-2 1.4l-5 5.1zM1217.1 1036.1c-.5-.6-2.6.6-5.8 3.1-.5 1-.9 2-1.1 3 2.2-2 4.5-4.1 6.9-6.1zM1179 1068.2c-4.7 5.4-9.3 10.7-13.6 15.6 11.8-9.8 35.2-35.9 26.9-21.7l2.1-1.5c0-1.6-.1-3.4 3.2-7.9 4.4-3.2 8.4-6.8 12.4-10.4.2-.9.4-1.8.6-2.6-7.3 5.9-19.8 17.9-31.6 28.5zM1144.8 1109.4l2.1-.6c-.2-.3-1.1 0-2.1.6zM1156.7 1106.6l7.1-7.2c-2.2 1.4-4.5 3.2-6.9 5.4-1.3 2.6-1.4 3.7-.2 1.8zM1170.4 1088.9c1-1.4 1.6-2.4 2.3-3.5-1.8 1.3-3.3 2.4-4.6 3.3-3.1 3.9-6 7.8-8.1 11l4.9-1.3c7.1-7.4 12.3-15.2 18.3-18.1l-6.6 2.4c-.1 0-.1.1-.2.1-.8 1.2-2.4 3-6 6.1zM1232.9 973.7l.2-.2c4.5-4.2 9.1-8.4 15.7-14.7-2.5 3.2-4.1 5.9-5.4 8.5 2.2-1.9 3.9-2.9 4.7-2.1l-3.5 5 4.1-5.3c3.5-8.5 3.4-13.3-2.5-8.1 5.5-9.7 11.1-20.2 16.6-31.1-13.3 14.6-17 20.2-34 37.1 2.3 3.9-2.5 12.4-7.1 21.7 3.7-3.8 6.9-6.9 10-9.8l1.2-1zM1035.2 1183.1l-2.8 1.6 4.3-.8c2.2-1.1 3.8-1.6 5-1.9 9.3-2.2-3.8 14 21.3-7-13.7 4.5-5.7-5.1-27.8 8.1zM1005.7 1203.2c11.8-6.5 3.9-7.1-6.8-4.5l-6.3 3.3c6.2-1 1.8 4.9 13.1 1.2zM798.8 1260.3c2.3-.1 5.4-.4 8.7-.7l-3.4-.1-5.3.8zM684.8 1242c-1.3.1-2.2.3-2.6.4.9.1 1.8.3 2.6.5v-.9zM739.1 1250.9c-3.7-.6-7.5-1.2-11.1-1.8 0 .2-.1.5-.1.7 2.6.4 6.1.8 11.2 1.1zM880.6 1228.6c-12.9 4.3-15.4 5-13 5.9 5.1-.7 10.4-1.6 15.5-3.3-3 0-4.5-.7-2.5-2.6zM887.3 1234.7c-1.8-.8-6.7.1-13.3.4 4.6.2 10-.8 13.3-.4zM930.2 1224.5c-6.8 3.6-14.3 7.6-29.5 10.7 10.8-1.7 23.6-3.1 33.4-9.1 1.3-1.7-.6-1.8-3.9-1.6z"/><path fill="#ABDAF1" d="M836.7 1251.7c-12.3 1.7-25.4.7-37.7 0l2.7.8-3.7.5-4.4-1.3c-4.9.1-7.9-.1-9.8-.4l-13.6 3.6 11.1.3c2.7 4.7-22 8.4-34.6 2.3-26.6 2.2 35.4 5.1 4.5 5.6 58.4 3.9-6.7-5.1 65.2-8.3 10.3 1.1 7 2.5.4 3.6 11.1.3 22-4.3 19.9-6.7zM874.9 1242.9c2.5-.8 4.2-1.6 5.9-2.5-3.2 1.3-6.5 1.5-9.9 2.1l4 .4z"/><path fill="#ABDAF1" d="M750.4 1251.4h.1c-4.8-.1-8.2-.4-11.4-.6l26.3 3.9c-.5-1.3-9-2.4-15-3.3zM853 1240.6l10-1c-.6-2.1-2.5-3.3-5.3-3.8-5.5.2-10.7.4-15.2.3-9 1-19.5 4.2-29 3.9l-7.9-.1c-5.3-.3-9.8-1.2-12.5-3.2l3.9-.6-16.4-3.3c-8.6 5 7.3 6.4 24.8 7.4l10.8.6c8.2.7 15.2-.3 19.1.4 2.3-.6 4.4-1.2 6-1.7l11.7 1.1zM946.8 1231.2l-3 1.8c4.2-1.2 9-2.9 13.6-4.8-1.1.3-2.7.7-4.6 1.1-2.4.8-4.4 1.5-6 1.9zM952.9 1229.2c2-.4 3.5-.8 4.6-1.1.6-.2 1.2-.5 1.8-.7l1.6-1.4c-3.1 1.2-5.7 2.3-8 3.2zM919.4 1238.8l-9.4 6.8c12.7-3 14.9-4.3 14.5-5.1l-2.3.6c1.5-2.3.1-2.7-2.8-2.3zM783.9 1251.3l1.5-.4 6.8.4-11.9-3.6 3.7-.6 14.5 4.5c2.7-.1 5.6-.2 9.4-.5-7.9-1.7-5.7-3.2.3-4.5l-20.4-4.2c-11.9 3.7-46.8 3.1-42.4 6.8.9-.2 2.2-.5 4.3-.8 32 .7 27.9 1 34.2 2.9zM889.4 1236.6l-2.2 1.1-.1.2 4.8-1.2c4.1-1.9 6.6-3.2 8.1-4.3-4.1.8-7.7 1.6-10.3 3 .3.3.2.7-.3 1.2zM868.7 1248.1c-10.6 1.6-17.6 3-22.6 4.2 8.2.9 22.7-3 28-2.6 1.5-.9.7-1.6-5.4-1.6zM835 1257c2-.7 3.9-1.7 5.8-3.2-4.2 1.3-5.5 2.3-5.8 3.2zM967.5 1223l-2.4 1.1-.5.6zM936.1 1226.1l7.6-2.2c1.6-2.4 2.9-4.5 1.2-4.6.5.7-1.6 2.6-8.8 6.8zM962.3 1212.6c-11.9 1.8-18.7 4.3-24.3 7.3 3.1-.6 5.6-1.1 6.7-.8 3.9-1.6 11-3.3 17.6-6.5zM1021.5 1183.4c-2.4 1.8-5.8 3.7-9.7 5.5 6.6-1.7 12-2.7 20.6-7.7l4.3-4.9-5.1 2.2c-2.9 1.9-6.6 3.2-10.1 4.9zM1042 1170.3c-1.1 1.4-3.3 3.3-6.3 5.4l2.5-1.1 3.8-4.3zM992.1 1192c-.6-.2-.9-.6-.8-1.2 0 0-.1 0-.1.1l-.5 1.7 1.4-.6z"/><path fill="#ABDAF1" d="M991.2 1190.6l-.1.4s.1 0 .1-.1c.1-.2 0-.2 0-.3zM994.4 1192.2l-4 1.6-.6 2.2c4.2-1.7 7.7-2.9 10.9-4l1.6-1.6c-3.2 1-6 1.6-7.9 1.8zM960 1208l-6 1.1c2.2 0 4.2-.5 6-1.1z"/><path fill="#ABDAF1" d="M971.2 1200.1c-17.6 4.7-39 12.6-40.1 8.8-.2.1-.5.2-.8.2.3-.1.5-.2.8-.3-.1-.4-.1-.9.3-1.6-16.3 12.2 17.2.2 36.9-5-1.8 2.3-4.7 4.5-8.3 5.8 11.6-2.2 25-6.5 29.8-12-2.3-.1-5.6.7-9.4 1.8-3.6 1.2-6.8 1.9-9.2 2.3zM892.8 1243.3l-1.9 2.1c-4.2 3.9-8.5 5.4-14.9 5.6l-.8 1.5c16.3-3.1 23.7-7.3 30.6-10.4-4.7 1.1-9.3 1.9-12.4 1.3l-.6-.1zM638 1230.9c1.3 5.1-18-3.7-29.9-5.5 17.7 13.7 38.9 16.2 75.9 25.5v-.4c-25-7.6-29.6-11.7-46-19.6zM577.9 1224.6c0 .5 1 1.6 3.5 3.7l-17.2-7.5 16.3 10.2c-13.4-9.3 36.7 10.3 27 2-7 1.3-28.5-10.2-29.6-8.5l9.6 5-9.6-4.9z"/><path fill="#ABDAF1" d="M580.6 1231c1.3.9 3 2 5.7 3.5l-5.7-3.5zM733.9 1240.6c8.2 3.5 18 .1 27.9.6-26.4-7.4 2 .8-27.9-.6zM501.6 1190.3l13.9 8.7c-4.9-3.6-9.5-6.4-13.9-8.7zM501.6 1190.3c-6.1-3.4-11.4-8.2-17-12.4.9 1.1.9 1.7.7 2.2l5.7 4.9 10.6 5.3zM503 1176.9c-10.5-9.2 23.1 1.1-20.9-21.6-1.3 2.6 8.4 12.5 20.9 21.6zM627.5 152.6c2.7 1.6 4.6 2.4 6.6 2.9 1.9-.3 3.7-.7 5.9-1.1.6-.1 1-.2 1.6-.3-4.7-.3-8.5-.9-9.2-2.4l-4.9.9zM188.7 777.6c-3.5-12.4-6.6 18.3-10.4-5.7-1.9-12.1 3.6-13.3 5.2-12.8l-2.2-11c16.8-7.1 29.9 5.5 45.7 44-1.5-6.2-3.2-12.5-5.5-19l5.1-7.3c-2.7-30.4-.5-50.5-1.8-74.1-21.2-19.6-55.8 56.3-57.8 75.1v1.1c1.5-1.1 3.2-1.4 5.2-.1 5.8 27.5 13.8 55.6 23 84-5.5-26.4-17.8-55.4-6.5-74.2zM232.6 813.5c-.8-.8-1.5-.7-2.2.9.8-.1 1.7-.1 2.5 0l-.3-.9zM317.9 1008.1l-1.9-.8c12.8 19.8 35.8 46 60.3 69.8-7.6-12.5-16.2-24.5-28.8-36.6-31.7-37.8-68.7-91.9-82.4-127.4l1.9 1.2c-6.9-10.2-10.4-20.8-14.4-30.7l-2.5 6c24.3 40.2 32.3 76.5 67.8 118.5zM1049 149.5l7.3 2.9c-2.9-1.4-5.5-2.7-7.3-2.9zM1070.8 155.9c-1.8 1.3-4.1 1.2-6.5.4l13.2 6.9c-1.8-2.2-3.6-4.4-6.7-7.3z"/><path fill="#ABDAF1" d="M524.9 183.6c20.3-6.8 57.4-31.5 83.5-39 .8 1 1 2.1 1 3.4.7-.4 1.1-.7 1.9-1.2 12.7-2.9 19.5-3.6 23.1-3.3l12.3-6.5 8.3-3.9c2.2-1.1 4.4-1.9 6.6-2.7 22.8-14.5 69.2-20.4 117-20.5 21.6-4.2 63.9-5.9 91.1-3.7 7.7 2.3 15.5 4.2 23 7.5 40.6 3.5 93.4 9 148.9 33l-9.4-7.5 4.1 1.6c-7.6-11.7-26.8-17.6-47.7-26.3-92-31.4-175.9-26.2-234.5-16.2l-26.4-2.2c-43 6.4-117.7 31-107.6 39.6-46.7 11.7-51.1 12.6-85.7 27.7-7.7 6.4-16.7 13.2-25.4 20.1 1.2-.6 2.3-1.3 3.5-1.9-12.3 6.8 38.6-14.3 12.4 2zM1236.2 348.6l2 .9c-8-11.3-14.9-22.6-22.6-33.5 1.4 4.8 5.4 13.7 20.6 32.6zM1195 370.3c-.1-.8-.3-1.7-.4-2.5-2.2-.9-5.4-2.4-4.9 2.1-3.2-7.1-7.2-14-11.8-20.8-13.7-14-29-27.5-44.6-40.7 2.1 6.1 4.1 12.1 11.3 21.3 13.9 16.9 25.5 30.9 35.6 43.4-1.1-8.5 10.5.1 14.8-2.8z"/><path fill="#ABDAF1" d="M666.1 147.4c.5-.2 1-.5 1.4-.7l-3.1-.7c1.8-.3 3.1-.4 4.7-.6 1.5-1.3 2.1-2.5 2.3-3.8-6.2.7-13 1.7-21.1 3.4 5.3.6 10.5 1.4 15.8 2.4z"/><path fill="#00ACE0" d="M1294.8 863.7l1.6-2.4.6-.8c3.7-7.3 6.1-14.8 7.5-22.1l-.6-2.5c-.3-1.7-.6-3.2-1-3.7s-1-.3-1.9.9l-.9 1.2c-.6 1-1.4 2.3-2.3 4.1l-.3 3c-.8 6.6-1.6 13.2-2.9 19.7l.2 2.6zM1311.9 799l1.7-12.9.4-3.3-.5 3.1c-1 6.3-1.6 10.7-1.9 13.6.2-.2.2-.4.3-.5zM1292.4 908.2c-2.2 7-4.2 14.9-6.5 23.1.9-1.5 1.7-2.2 2.2-1.2-.8-5.6 2-12.8 7.9-23.7l2.7-4.2.4-.5-.2.1-2.8 1.8c-1.3 1.1-2.5 2.7-3.7 4.6zM1279.2 939c-.1.6-.2 1-.2 1.5.8-1.9 1.7-3.7 2.5-5.6-.7 1.2-1.5 2.5-2.3 4.1zM1287.1 917.6c-1 1.8-2 3.6-3 5.2-2.3 4-4.1 6.8-5.2 6.2-.7-.4-1.2-2.4-1.3-6.5-3.7 10.1-2.8 11.8-.6 10.6.7-1.3 1.3-2.6 1.9-4-.3 1.1-.7 2.3-1.1 3.4 2.4-1.7 5.5-5.2 6.9-6.2 1.1-3.1 2-6.1 2.4-8.7zM1258.7 971.3c3.7-3.8 7.8-7.4 11-11.6l-4-1.7c-1 1.7-2.1 3.5-3.2 5.2-1.3 2.7-2.6 5.4-3.8 8.1zM1269.6 908.2l.2 2c4.9-9.2 8.2-19.1 12.4-28.7-4.2 8.9-7.9 18.1-12.6 26.7zM1130.2 1123.3l1.9-.5c-.2-.3-1 0-1.9.5zM1119.4 1125.9l3-2.9c-4.3 2.7-8.8 6.2-13 9.7 3.3-.9 5.3-.6-2.4 7 5.2-5.9 18.9-13.7 23.3-16.5l-5.6 1.5-.6.1-4.7 1.1zM1149.1 1100.6c-.5.3-1.2.8-1.7 1.2.5-.3 1.1-.8 1.7-1.2zM1158.7 1091.6c.2.3.6.5.9.6 7.9-6.9 16.1-14.6 17.4-14.5.3-.3.6-.7.8-1 .4-1 1.1-2.3 2.4-3.9l2.5-1.8c1.4-1.7 2.5-3.1 3-3.7-6.8 5.6-15 13.1-23.1 19.8-1.3 1.4-2.7 3-3.9 4.5zM1186.1 1066.9l-1 2.3 4.9-3.5 3.9-2.8 5.5-4c-.6-.7-2.4.1-5 1.8l-2.1 1.5c-1.9 1.1-4 2.8-6.2 4.7zM1128 1115.2l.7 1.2 4.9-5.1c-1.7 1.2-3.5 2.4-5.6 3.9zM1176.4 1082.7c-1.3 1-2.5 1.9-3.7 2.7-.7 1.1-1.4 2.1-2.3 3.5 3.6-3.1 5.2-4.9 6-6.2zM1155.5 1100.9c-11.3 9.9-17.6 24.8-14.5 19.9 5.8-5.5 11-11.5 16-16.1 2.4-2.2 4.7-4 6.9-5.4l2.7-1.4-1.8.4-4.9 1.3-4.4 1.3zM1237.4 973.8c6.3-5.4-1.8 10.7 1.5 7.8 1.5-4.8 2.1-9.1 4.6-14.2 1.3-2.6 2.9-5.3 5.4-8.5-6.6 6.3-11.2 10.4-15.7 14.7l-.2.2-1.2 1.1c-3 2.9-6.2 6-10 9.8-2.3 2.3-4.7 4.8-7.6 7.8 3.1 5.8-11.2 20.4-15.4 32.8 2.4-2 5.4-4.8 8.5-8 9.6-16.9 20-38.3 30.1-43.5zM1061.4 1168.3l4.1-.8c16.9-8.7-1 13.9 24-9-12.6 5.4-4.2-5-28.1 9.8zM868.5 1251.7c-4.3.5-9.3 1.4-15.4 3.2 3.9-.7 10.4-2 15.4-3.2zM761.7 1256.8l8.6-1.9 13.6-3.6c-6.3-1.9-2.3-2.2-34-2.9-2.1.3-3.4.5-4.3.8-2.8.8.2 1.5 4.8 2.2 6 .9 14.4 2 15.1 3.3.3.6-.6 1.3-3.8 2.1z"/><path fill="#00ACE0" d="M808.1 1251.1c-3.9.3-6.7.4-9.4.5l-14.5-4.5-3.7.6 11.9 3.6-6.8-.4-1.5.4c1.8.3 4.8.5 9.8.4l4.4 1.3 3.7-.5-2.7-.8c12.2.7 25.4 1.7 37.7 0 2 2.5-8.8 7.1-19.7 6.7-4.2-.1-8.4-.5-11.7-1.5-9.3 1.7-6.5 2.3-1.2 2.6l3.4.1c8.2.3 17.6.2 2.5 2 30.3.3 24.2-2.9 25-4.6.3-.9 1.6-1.9 5.8-3.2 1.4-.4 3.2-.9 5.3-1.4 5-1.2 12-2.6 22.6-4.2 6.1 0 6.9.7 5.4 1.6-1.1.6-2.9 1.3-5.6 2l7.5-.7c6.5-.2 10.7-1.7 14.9-5.6l1.9-2.1.6.1c3 .6 7.6-.2 12.4-1.3 5.2-1.2 10.4-2.8 13.6-3.3 2.9-.4 4.4 0 2.7 2.3l2.3-.6c9-2.2 14.9-4.9 19.4-7.6l3-1.8c.6-.4 1.2-.7 1.7-1.1-3.1.6-6.7 1.3-10.5 2l-2.6 2.5-1.3 1.2c-7.1 2.1-4.9.5-3.6-1 .6-.6.9-1.2.4-1.4-1.9.3-3.9.7-5.8 1-3.1 1.1-5.7 2-8 2.5-5.8 1.2-9.4.8-13.4.8-2 .2-3.2.3-3.2.2h-.3c-3.4.4-7.4 1.5-13.4 4.4l-3.6 1.8 1.3-1.3c9.2-8.9 38-5.9 57.1-15.2l2.8-1.4-3.6 3.5-2.6 2.5c3.8-.7 7.4-1.4 10.5-2 5.5-3.4 10.3-6.6 19.5-10.5l-7.3 6.4-1.6 1.4-5.8 5.1c20.2-6.9 10.4-5.7 11.1-7.8l.5-.6c1-.9 3.5-2.3 9.4-4.6-2.5 3.6 21.6-3.6 30.1-11.7-44.6 24.8-11.5-5.3-22.1-1.1 2.1-1.2 6-2.8 10.2-4.7l6.3-3.3.2-.1c-1.9.5-3.6 1-5.3 1.5-.4.1-.8.3-1.3.4-22.1 7.2-21.4 14.3-48.8 23.4l-7.6 2.2c7.1-4.2 9.3-6.1 8.8-6.8l-.3-.2c-1-.3-3.6.2-6.7.8-6.8 1.7-16.1 2.8-12.7-.8-25.7 9.4-5 5.5 4.9 5.4 3.3-.2 5.2-.1 3.9 1.6-9.8 6-22.6 7.4-33.4 9.1l-8.8 1.5-4.8 1.2.1-.2 2.6-2.2c2.5-1.3 6.2-2.2 10.3-3l9.9-2c-2.1-5.6-13.8-2.9-26.9.8-5 1.6-10.4 2.6-15.5 3.3l-10.7 1.1-5.6-.2c-2.1-.3-4-.7-5.4-1.5l3.6-.9-15.3-1.5c-4.9 3.5 0 4.7 8.5 4.8 4.4.1 9.6-.1 15.2-.3 5.6-.3 11.3-.6 16.3-.7 6.6-.3 11.5-1.2 13.3-.4 1.7.6.1 2.3-6.5 5.7-1.7.9-3.4 1.7-5.9 2.5l-4-.4-17.9-1.8-11.5-1.2c-1.6.5-3.7 1.1-6 1.7-8.4 2.6-20.2 4.3-27.1 5.4-6.5.9-8.7 2.3-.8 4.1z"/><path fill="#00ACE0" d="M927.2 1233.6l-1.4.5c-.1 0-.2.1-.3.1 1.8-.3 3.5-.6 5.3-.9-.6-.1-1.5-.1-3.6.3zM1036.7 1176.2c9.5-3.8 14.5-4.4 24.6-11.2l8.7-9.9c-3.4 4.6-19.7 14-31.8 19.4l-2.5 1.1c-6.7 3-11.9 3.5-11.2 1.2l-1.2 4.9c3.2-1.4 5.9-2.1 8.2-3.3l5.2-2.2z"/><path fill="none" d="M996.7 1194.5l-5.4 1.6"/><path fill="#00ACE0" d="M1011.8 1188.8c3.9-1.8 7.2-3.6 9.7-5.5l1.9-1.6c-6.3-.1-19.6 5.4-31.3 10.3l-1.4.6c-1.9.8-3.7 1.6-5.4 2.3-.3.2-.6.4-1 .6.3-.2.6-.4 1-.6-9.7 3.7-17.1 4.8-14.9.8-5.9 4.4-4.3 5.3.7 4.4 2.4-.5 5.7-1.1 9.2-2.3l10-4 4-1.6 9.5-3.7-1.6 2-1.6 1.6-3.9 2.5c5-1.6 10.4-3.6 15.1-5.8z"/><path fill="#FFF" d="M952.9 1229.2c-1.3.3-2.7.6-4.3.9-3.1.6-6.7 1.3-10.5 2l2.6-2.5 3.6-3.5-2.8 1.4c-19.1 9.3-47.9 6.3-57.1 15.2l-1.3 1.3 3.6-1.8c6-2.9 10-4 13.4-4.4l.4-.2-.1.1c0 .2 1.3.1 3.2-.2 4-.1 7.7.4 13.4-.8 2.3-.5 4.9-1.3 8-2.5 1.9-.3 3.9-.7 5.8-1 .5.3.2.8-.4 1.4-1.3 1.4-3.4 3 3.6 1l1.3-1.2 2.6-2.5c3.8-.7 7.4-1.4 10.5-2 1.5-.3 3-.6 4.2-.9 2-.4 3.5-.8 4.6-1.1 1.2-.3 1.9-.6 1.9-.8 0 .1-.7.4-1.8.7-.9.6-2.4.9-4.4 1.4zm-27.5 5.1c.1 0 .2-.1.3-.1l1.4-.5c2.1-.4 3-.4 3.5-.3-1.7.3-3.4.6-5.2.9z"/><path fill="#00ACE0" d="M750.5 1257.3c-9.3-2.3-16.4-4.4-22.8-6.3-.2 1.1-.3 2.3-.4 3.5 6.9.6 14.4 1.4 23.2 2.8zM684.8 1242.9c-.9-.2-1.8-.3-2.6-.5l-6.2-.7c2.9 1.9 5.9 3.4 9 4.7-.1-1.2-.1-2.4-.2-3.5zM649.8 1250.2c1.3.7 3.3 1.6 6.5 2.8-2.2-.7-4.3-1.8-6.5-2.8zM649.8 1250.2c-10.3-5.5 35.5 4 25.8-1.5-7.7 1.8-38.7-9-24.5-.4l-16.4-5.2c5.1 2.3 10 4.9 15.1 7.1zM587.6 1229.4l-9.6-4.9-4-1.8 3.9 1.9zM548 1217.3c7.1-.1 15.6 1.1 26.1 5.4l-17.3-8.6c4.7 4-6.8 2.9-8.8 3.2zM236.8 815.5l-1.2-.3c1 2.8 2 5.7 3 8.6-.6-2.7-1.2-5.4-1.8-8.3z"/><path fill="#00ACE0" d="M233.3 814.5l-.5-.1c-.8-.1-1.7-.1-2.5 0-.4.9-.9 2.3-1.3 4.4-7 65.3 36.1 160.7 70 228.6 9.3 11.3 18.9 22.2 28.9 32.7-1-1.9-1.8-3.6-2-4.7 5.1 5 7.3 8.5 8.1 11.2 34.4 35.2 72.3 65.1 111.5 85.3 7.4 6.6 15.1 8.3 21.8 16.5-2-4.3 80.3 34.8 36.8 5.8-4.8-2.8-9.3-5.6-13.2-9.1l-5.7-4.9c-28-23.8-41.3-48.6-73-71.2-11-10.1-23.7-20.6-36-31.8-24.5-23.9-47.5-50-60.3-69.8l1.9.8c-35.5-42.1-43.6-78.3-67.9-118.6l2.5-6 .7-1.7c-6.2-20.4-9.7-35.6-13-51.1-1.4 1.3-4.1-11.7-6.8-16.3zM1194.6 367.8c.2.9.3 1.7.4 2.5.4-.3.8-.7 1-1.2-.3-.4-.6-.8-1-1.2-.1 0-.3 0-.4-.1zM869.6 106.1c-27.2-2.2-69.5-.5-91.1 3.7 28-.1 56.4 1.8 80.9 5.2 40 12.6 72.3 34 113.6 54.3 8.9 3 18.8 6.7 25.3 11.7 2.3 1 4.4 2 6.7 3-.9-.1-2.6-.5-4.5-.9.5.4 1.1.9 1.5 1.3-.9-.6-1.9-1.1-2.9-1.6-5.6-1.1-12.5-2.2-11.6 1.2 8.8 8.5 28.3 14.6 39 19.9 1.2.4 2 .6 3 .8-1.9-1.7-3.6-3.6-5-5.8 4.1 2.1 7.9 4.6 11.7 7.2 3.5.3 4.6-.5 4.5-2-11.6-6.2-26.6-13.1-20.2-14.5 5.5-.3 10.2 1 14.4 3.2-.6-1.8-.1-3.1 3.2-2.9 1.5.6 2.9 1.2 4.4 1.7-.6-.5-1.2-1-1.7-1.4-3.2-1-6.4-2.5-9.9-4.2-1.9-.7-4-1.5-6.7-2.9l6.7 2.9c3.5 1.3 5.6 1.6 7.2 1.5-.4-.7-.3-1.1.5-1.1.3.3.7.6 1.1.9 4-1 3.6-4.6 21 7.1-5.3-.8-21.8-8.9-20-6.2 10.8 9.1 23.3 9 41.2 18.2l-1.2-1.2 7.4 4.6-6.2-3.4c3.9 3.3 7.4 7.1 10.9 10.9 3.9 2.7 7.9 5.8 11.8 9.1 2.9 0-2.1-4.3-6.4-9.7 20.1 19.2 53.9 44.3 81.5 74.7 14.1 12.8 28.1 26.8 40.6 41.8.8.2 1.9.7 3.6 2.1.5 1.5 1.2 3 1.8 4.5 5.5 7.1 10.8 14.3 15.3 21.9 14.9 17.9 12.9 11.9 13.9 9-3.7-4.9-7.3-9.8-11.2-14.6 1.3-.1 2.2-1.1 2.7-2.6-.1-.2-.2-.3-.3-.5l-7.9-3.4-2-.9c-15.2-18.9-19.2-27.8-20.6-32.6-.7-2.9-.1-4.7.3-6.7-8.9-13.1-18.6-25.2-25.1-21.5l4.1-3.1c-4.8-3.7-9.5-7.3-14.3-11l.3.9c.4.5.6.9.4 1.1l-.4-1.1c-4.6-6-45.9-31.4-71-51.4 9 2.5 45.1 32.7 37.7 20.6-11.4-8.8-40.5-27.2-59.5-42.3 9.2 2.5 49.6 37.1 29.1 12.3 12.9 6.4 28.5 20.3 45.5 36.7 10.8 8.6 22.7 19.8 35.1 32l-1.5-5.8c6.2 4.7 12.1 10.3 17.8 16.3l-5.2-11.9-17.3-7.3c-25.5-25.1-1.7-10.5-13.2-25.1l7.5 6.8c-18.2-16-14-18.3-21.6-28.6-7 3.1-17.6-13.7-20.7-8.9l-10.9-13 3.5 2.1c-4.8-11.8-20.9-20.4-37.8-32.2l-21.2-11.5-13.2-6.9-8-3.9-7.3-2.9-7.5-3c-55.5-23.9-108.3-29.5-148.9-33-7.2-3.6-15-5.4-22.7-7.7zm147.5 61.9c14.5 5.4 4.6-7.4 26.8 7.5-5.8-.9-26-11.3-14.8-2.8-4-.5-7.8-2.7-12-4.7-1.7-.6-3.6-1.4-6.1-2.6l6.1 2.6zm-76.6-38.1l.5-1.2 5.5 1.4c5.1.6 11.1 1.7 14.5 1.6l-4.8-2.3c7.1 1.7 20.1 3.6 22.7 6.5-13.3-5.4-14.3-3.4-16.1.7l21.4 8.5c-.9 1-1.9 1.6-2.9 2 3.4 1 6.1 2 7.2 3.2-3.6-1.5-6.4-2.5-8.6-3.1-1.3.1-2.6-.1-4.1-.6-3.1.1-4 1.8-5.2 4.4l23.8 9.4c-8.8 9.4-20.3-8.2-41.8-16.7-2.6-.2-4.9-.3-6.7-.2l-1.4 3.3c-3.9-2.5-2.4-3.2 1.4-3.3l.6-1.3 6.1 1.5c5.7.7 12.3 2 16.1 1.7l-5.4-2.5c2.4.6 5.5 1.2 8.7 1.8-6.4-3.7-14.4-10.5-25.3-14.8-2.5 0-4.6-.1-6.2 0l-1.2 3c-3.5-2.2-2.2-2.9 1.2-3zM646.6 136.9l-12.3 6.5c-5.6 3.3-10.5 6.9-13.9 11.1 2.8-.8 5-1.3 7.1-1.8l4.8-1c8.4-1.4 8.7.8 13.8 1.5 10.2-2 16.4-3.9 20-5.8-5.2-1-10.5-1.8-15.7-2.3 8.1-1.7 14.9-2.7 21.1-3.4.9-5-3.7-10.1 27.5-16.7-13.1.7-25.8 3.8-38.7 6 .4-.2.8-.4 1.2-.7-2.2.8-4.4 1.6-6.6 2.7l-8.3 3.9z"/><path fill="#9FAE36" d="M1199.1 1147.9c18.3-10.1 49.2-50.7 71.5-87-5.7 7.3-10.7 15.1-16.9 21.9-2-6.4-18.7 10.6-22.3 7.3 9.1 5.7-19.5 31.3-32.9 46.2l.6 11.6zm26.7-38.3c16.6-17 1.8 4.2-3.8 14.1l3.8-14.1z"/><path fill="#FFFFFE" d="M1225.8 1109.6l-3.8 14.1c5.6-9.9 20.4-31 3.8-14.1z"/><path fill="#9FAE36" d="M1158.9 1198.3c17.1-16.7 33.5-33.9 47.9-52.9l-22.4 19.2-25.5 33.7zM1153.5 1180.8c-2.9 1.6-6.5 4.2-9.2 6.6 3.4-2 6.4-4.3 9.2-6.6z"/><path fill="#9FAE36" d="M1081.3 1229.1c-20.9 22.9 25.4-3.1-4.8 22.5 30.7-21 53.7-36.2 79.1-54.9-8.5 4-10.5 7.5-22.2 13.3 17.1-14.1 37-37 54.1-56-11.9 4.3-20.8 16.4-33.9 26.9 4.4-2.4 7.1-2.5 2.5 4.1-22.3 12.4-29.6 28.1-51.5 37.7l16-15.5c-6.6-4.1-32.6 33.8-39.3 21.9zM1054.6 1261.3c1.3-2.1 1.1-3 .3-3.3-1 1.8-1.6 3.3-.3 3.3z"/><path fill="#9FAE36" d="M998 1287.5c25.4-4.9 26.2-14.1 34.5-22.4 5.8-.9 19.3-8.2 22.4-7.1 2-3.9 6-9.8-1.5-8.2-20.2 12.1-53.7 25.7-55.4 37.7zM996.8 1278.1c-12.7 1.3-14.9 6.8-27.2 9.4l-13.3 13.7 10-5.1 3.3 5.1c1.2-2.3 5.5-14.4 27.2-23.1zM977.2 1328.3c-16.5 1.9-24.6 8.6-42.7 15 13.5-3.7 29.4-9.5 42.7-15zM1001.5 1317.7c.3.7 21.5-14.8 34.8-27.6-21.4 18.3-69.7 27-58.1 37.7 12-5 21.7-9.7 24.7-12.2l-1.4 2.1z"/><path fill="#9FAE36" d="M978.2 1327.8c-.4.2-.7.3-1.1.5.4-.1.8-.1 1.3-.2-.1-.1-.1-.2-.2-.3z"/><path fill="none" d="M1011.2 1316.3c-5.2 4.6-11.1 7.9-16.7 11.8"/><path fill="#9FAE36" d="M927.2 1304.2l-26.3 6.6 35.6-6.3zM940.4 1333.1c-6.9 4.1 39.7-13.9 40.4-18.5-7.4 1.1-25.7 14.5-30.8 8.9-29.2 7.8 17.9 1.8-9.6 9.6z"/><path fill="none" d="M849.6 1326.3l28.3-10.7"/><path fill="#9FAE36" d="M743.7 1328.2c2.2 1.6 3.2 3.4 7.4 4.5 18.7-2.9 47.6-2.8 62.2-7.2-7.2 1.3-9 .4-14.4.1-16.8-.4-37.2.4-55.2-.9.1 1.1.1 2.2 0 3.5z"/><path fill="#9FAE36" d="M849.1 1318.8c-10.6 5.8-30.4.1-44.8 2l-5.5 4.7c30.7-8.6 38.2 7.8 50.3-6.7zM835.6 1350.4c-7.5 7.9-32.3 2.4-36.2 8.4 1.3 2.4 15.3 3.3 19.8 4.6 5.1-10.2 34.3-4.1 20.3-16.3-8.2.8-17.6 1.8-30.4 3.8 8.8 0 17.7.6 26.5-.5zM886.8 1347.4l8.4-9.6c-16.2 4.4-27 6.3-37 7.5 6.4 1.4 4.3 6.3 28.6 2.1zM839.3 1346.8l.2.2c6.6-.6 12.5-1.1 18.7-1.8-3.1-.7-8.1-.6-18.9 1.6zM819.1 1363.4c-.3.6-.6 1.3-.7 2 2.8-.9 2.5-1.5.7-2zM669.6 1342.5c4.2 1.4 8.6 2.6 13.3 3.7 0-.4.1-.8.1-1.2-4.4-.9-8.9-1.7-13.4-2.5zM637.7 1340.7l-16-4c-9.4-3.2 14.8 6.5 16 4zM733.3 1353.5l33.2-8.7c-9.5 2.2-19.3 1.4-28.2.2-1.6 3-3.3 5.9-5.2 8.3l.2.2zM736.7 1355.7l6.8 6.9c30.4 3.8 12-3.4 20.6-6.2-9.1 0-18.3-.4-27.4-.7zM764.1 1356.4c6.1 0 12.2-.2 18.4-.8-10.4-.6-15.7-.1-18.4.8z"/><path fill="#FFFFFE" d="M562 1309.9c14.9-.2 6.1.6-3.5-2.4l3.5 2.4zM558.4 1307.5l-12.8-8.7c2.2 4.5 7.7 7.1 12.8 8.7zM496.7 1281.9l13.1-3.7-18.5-3.2z"/><path fill="#9FAE36" d="M446.3 1240.7c-14.7-3.6-2.2 8.5 12.7 16.2-12.7-8.1-17.2-15.5-12.7-16.2z"/><path fill="#FFFFFE" d="M381.6 1167.2c-.5-.1-1-.1-1.6-.2 3.7 3.2 3.4 2.5 1.6.2z"/><path fill="#9FAE36" d="M328 1080.2c1.5 2.8 3.7 6.1 6.4 10 .3-.9.1-2.1-.3-3.5-.8-2.6-3-6.2-8.1-11.2.2 1.1 1 2.8 2 4.7z"/><path fill="none" d="M623.7 1306.2l10.6 3M616.7 1304.2l7 2"/><path fill="#9FAE36" d="M422.7 1187.5l-1.4-2.1-.1-.1zM1273 1028.6c2.5-4.1 4.2-8.8 6.2-13.2-1.9 3.3-3.3 7.9-6.3 13.3l.1-.1zM1252.3 1067.2c-1.5 2.6-3 5.3-4.5 8.4 1.5-2.7 3.1-5.6 4.5-8.4zM1291.9 1019.3c-23 28.6.7-7.8-18.8 9.3-7.2 13.1-14 26-20.7 38.6 16.7-28.6 33.3-23.3 39.5-47.9zM1047.2 1281.7l1.2-.9c-2.3 1.4-3.4 2.3-1.2.9z"/><path fill="#FFFFFE" d="M678.6 177.4c-5.5.9-10.9 1.8-16.2 2.8 6-.7 11.5-1.6 16.2-2.8z"/><path fill="#9FAE36" d="M945.8 143.6c1.8 0 4.1.1 6.7.2l-6.1-1.5-.6 1.3z"/><path fill="#9FAE36" d="M944.5 146.9l1.4-3.3c-3.9.1-5.3.8-1.4 3.3zM988.4 150.3c-1.1-1.2-3.8-2.3-7.2-3.2-.5.2-1 .1-1.5.2 2.2.5 5 1.5 8.7 3zM963.2 143l5.4 2.5c-3.7.2-10.4-1.1-16.1-1.7 21.5 8.4 33.1 26 41.8 16.7l-23.8-9.4c1.2-2.5 2.1-4.3 5.2-4.4-1.2-.4-2.5-1-3.9-1.8-3.1-.7-6.2-1.3-8.6-1.9zM1060.7 194.3c-17.4-11.7-17.1-8.1-21-7.1.3.3.7.6 1 .9-1.8-2.7 14.7 5.4 20 6.2zM1038.2 187.5c-1.6.1-3.8-.2-7.2-1.5 3.4 1.7 6.7 3.2 9.9 4.2-1.4-1.2-2.3-2.1-2.7-2.7zM1030.9 185.9l-6.7-2.9c2.7 1.4 4.8 2.2 6.7 2.9zM1077.1 271.2c4.5.7 12 3.3 12.4.8l6.9 5.7c-4.3-8.7-23.2-21.3-39.4-33.2-.6 0-1 .1-1.2.4-1.1-1.5-2.6-2.9-4-4.2-.3-.2-.5-.4-.8-.6-1-.3-2.1-.5-3.2-.7 1.4 2.9 1.4 5.1-5.5 2.5-2.5-2.3-4.8-3.9-7.2-5.3-8.7-1.8-17.8-3.5-27.2-5.7 17.4 10.7 48.1 21.2 63.1 37.5.1 0 .1 0 .2-.1 1.7.4 3.7 1.5 5.9 2.9zM626.6 179.9c-.5.1-1 .3-1.5.4-13.5 3.6-26.6 7.8-38.8 12.2-11.5 5.2-28.1 11-33.9 14.3-.6 0-1.5.2-2.2.3l-2.1.9c-.5.6-.7 1.1-.1 1.4-.9 0-1-.4-.8-.9-27 12.4-42.9 23-37.8 23.4 1.4-1.2 24.4-13.3 54.1-24.5 6.5-3.3 13.4-6.7 20.6-9.9 14.9-6.9 30.4-13 42.5-17.6zM1390 749.2c6.8 2.8 7.9-26.9 15.3-4.4-6-29.1 4.1-22.6-4.7-45.6.6 2.8.4 7.1.2 11.4-3.6 7.8-4.5-12-5.9-20 3.9-13.8 5.8-21.7 3.9-43.7-3.7-15.2-7.1-30.3-12.9-44.8.5-2.1 2.5-.3 2.5-.3-12.4-42.5-24.8-88.9-42-116.9-4.6-2.7-13.4-12-2.8 9.2-13.6-13.9-18.2-39.4-26.2-57.5 4.8 3.6 9.8 7.2 14.1 11.2-28.2-48.1-59.6-110-101.4-141.4l1.9 7.5c6.4 8.5 12.4 17.4 18.3 26.7 12.9 18.7 24.8 40.5 26.5 30.2 11.5 13.9 10.5 23.5 5.8 23.8 10.4 12.8 20 26.4 30 39.8.3 6.3-11.6.9-14.1-4.3-4.8-8.9-13.2-19.2-21-29.7 5.7 15.4 10.2 33.9 20.7 44.8-9.5-19.1-1.6-10.7 2.5-8.3 15.4 25.1 26.6 66.9 37.7 105.1 0 0-1.8-1.6-2.2.3 5.2 13.1 8.3 26.7 11.6 40.3 1.7 19.8 0 26.9-3.5 39.3 1.2 7.1 2 25 5.3 18 .1-3.9.3-7.8-.2-10.3 7.8 20.7-1.2 14.8 4.2 41-6.7-20.2-7.7 6.4-13.8 3.9 1 30.3 10.1 3 12.6 6.7-4.7 30.7-7.7 39.2-12.7 61.5.1 3 .2 6 .2 9.1 2.1-7.9 4.3-19.2 6.9-20.9-2.3 10.5-4 22.8-2.9 25l6.2-22.5c-3.8 16-7.4 31.6-11 47.3-4.1 81.9-27.2 165.1-60.3 234.5 11.8-23.4 13.5-.5 22.4-13.9 4.3-16.7-13.6 17.6-6.4-3.8 24.3-22.3 1.2-22.2 22.1-48.3l-.5 18.2c9.1-36.8 23.6-86.4 29.2-132.2l7.1 5.6c-.5-17.3 3.4-40.9 9.7-43.6-8.2 53.1 9 66.3-7.7 97.1-1.8-4.6-.9-2.3-3.7.7 2 14.6 2.2 41.7-11.7 65l-1.2-11.1c-13.5 39.7-34.2 80.4-53 113.7 8.8-7.7 6 4.4-2.3 19.9-15.3 22 1.3-8.7-7.5-1.1-16.2 8.4-33.1 54.2-46.8 68.2 2.4-5.6-37.9 34.5-17.7 6-28.7 29.2-44.3 57.3-71.9 66.9-1.4 4.7-6.4 14.6-15 22.8l-3.7-6.5-8.1 12.7c-23.8 15.4-43.1 9.7-64.1 29 4.8-2.5 13.5-9.1 16.2-6 1.9 8.2-46.4 32.5-33.1 35.7l19.1-15.1c-4.6 9.2 22.5-6.4 18.9.2 17.7-12.8 36.3-24 52.7-38.1l4.5 4.1-14.2 6.4c-8.2 21.8 25-19.2 44.3-24.9l-2.7-4.2c46.1-33 20.5-11.4 58.6-39.7l6.1-14.2c1.2-1.9-25.9 33.8-30.6 27.7 19.6-22.8 47.9-52.7 62.8-81.3-1.4 9.3-3.2 18.5-5.8 27.2 2-12.1 24-20.4 42.4-46.8l-19.7 19.5c5.4-24.2 44.1-63.4 54.1-99.2-4.2 8.9-8.7 17.5-12.9 17.1 1.4-8.5 12.7-28.5 20.6-39.7 11.1 11.1-33.9 78.3-22 75.1 24.2-34.8 24.1-74.2 37.6-95.5 0 7.4-1.2 14.3-1.9 21.6 2.1-6.4 4.6-12.6 6.2-19.2l-2.8 5.2c-2-10.1 9.6-23.8 13.5-39.5l3.3 12.6 10.4-28.1-3.2 3c11.6-47 20.4-87.1 30.5-129.9l-6.9 25c-1.2-2.3.7-16.1 3.3-27.7-4.8 3.1-8.4 34.6-11.9 31.6 8.2-40.5 11.8-45.4 18-86.9-2.1-3.9-12.2 26.4-13.4-7.3zM941.6 195c-49.7-8.5-66.7-19.9-92.6-27.3-53.7-7.3-114.2.3-170.4 9.7-4.7 1.2-10.2 2.1-16.2 2.8-3.1.5-6.3 1.1-9.4 1.6-11.5 8.5-21.2 14.9-41.7 22.5l10.8-1.6c-19.3 11.9-2.3-2.5-19.3 5.8-7.4 5.7-4.5 8.1 3.1 6.2 7.6-4.2 13.7-8.5 20.4-13.4 94.8-16.6 205.7-34.1 286.1 3.3 10.1-.1 20.6-1.4 30.6-.3.3 3.8 1.8 9.2 15.9 12.3-4.8-2.3-13.1-5.4-10.8-6.2 9.9 3.6 20 7.2 29.8 11-6.9-2.8-14-6-21.2-10.2-12.3-7-2.6-9.1-15.1-16.2zM1008.7 235.2l-3.3-5c-7.4-1.8-14.9-4-22.6-6.8 8.8 3.6 17.5 7.4 25.9 11.8z"/><path fill="#9FAE36" d="M509.5 232c-.1 0-.1 0-.1-.1-.2.2-.1.2.1.1zM521 242.9c-4.3-5.6 9.9-8.9 11-15.7-33 16.5-57 32.9-40.2 22.4 2 9.1-17.5 12.8-12.3 19.6-35.1 26.7-58.3 42.8-83.2 60.8 55.4-32.3 117.4-66 188.8-90.2 7.4-4.2 13.7-8.9 1.6-7.3-13.2 7.4-22.8 7.8-20.7 3.2-43.7 18.8-83.4 40.6-119.8 61.9 22.3-16.2 43.2-30.7 74.8-54.7zM588.7 226.4c-2.8 1.1-5.6 2.3-8.4 3.4.5.6 2.1.3 8.4-3.4zM1177.8 349.1c-3.4-5-7.1-10-11.1-14.9-14.1-12.7-29.6-26.2-40.4-31.6 2.3 1.9 4.6 3.9 6.9 5.8 15.7 13.2 30.9 26.7 44.6 40.7zM1110 223.1c25.2 20 66.5 45.4 71 51.4l-.3-.9c4.7 3.7 9.5 7.3 14.3 11l1.3-1c-13.5-13.7-29.4-25-44.4-36.8l.3.8c.4.5.6.8.4 1l-.4-1c-.7-.9-2.2-2.2-4.4-3.9 7.3 12.1-28.8-18.2-37.8-20.6zM1179.8 291.3c9.9 10.9 19 22.4 26.3 34.6 17.1 20.6 9.5 6.1 14.3 7.1-12.6-15-26.5-29-40.6-41.7zM1241 361.5c-4.5-7.5-9.7-14.8-15.3-21.9 7 16 24.6 34 32.3 48.3 2.3 4.7 12.9 9.5 12.7 3.8-5.3-7.1-10.5-14.2-15.8-21.2-1 2.9 1 8.9-13.9-9z"/><path fill="#9FAE36" d="M1181.4 275.6c.2-.2 0-.6-.4-1.1l.4 1.1zM1195.1 368c.3.4.6.8 1 1.2 0-.1.1-.2.1-.2-.2-.3-.3-.4-.5-.7-.3-.2-.5-.2-.6-.3zM1162.9 250.4c11.5 11.1 23.6 23.4 36 35.6l-.9-3.6c-12.5-12.2-24.3-23.4-35.1-32zM402.8 1210.2l-1.6.6c1 .1 1.4-.2 1.6-.6zM600.5 1306.4c18.6-3 45.4 24.2 46.4 15.8-15.4-12-53.3-18.6-57.2-26.1-5.5.1 7.6 8-6.5 5-20.1-9.3-16-11-26.7-19.5l-13.4 1c1.5-8.2-21-16.5-43.3-27.3 23.7 17.1 49.7 33.1 80.9 45.8-42.6-6.4-74.3-33.7-111-54.6-21-6.2 15.8 13.5 16 17.7-10.7 6.4-15-15.8-28-13.2-6.9 5.7 34.6 31.1 50.7 42.6 15.7 6.3 16.4 3.9 22.8 2 2 6 17.7 12.8 20.1 18.5 34.7 7.1 49.5 22.2 84.9 24.3 1.3 1.2 1.7 1.9 1.5 2.4l2.4.6-1.7-1.5c8.8-.4 19.9.8 31.2 2.7-29.4-9.6-49.4-25.6-69.1-34.9-.2-.5-.3-.9 0-1.3zm-103.8-24.5l-5.4-6.9 18.5 3.2-13.1 3.7zm65.3 28l-3.5-2.4c-5.2-1.6-10.6-4.2-12.8-8.7l12.8 8.7c9.6 3 18.4 2.2 3.5 2.4z"/><path fill="#9FAE36" d="M428 1185.7c13.1 13.3-12.6-3.9-2.4 8.2-17.9-6.9-25-34.2-51.6-51.9 9.3 6.7 2.4 7.7-3.1 4.6-11.6-18-37.4-40.6-48.7-58.6-.5 1.5-1.6 2.4-2.8 2.8-8.5-16.9-13-20.6-19.3-41l-1.2-2.4c-33.9-68-77-163.3-70-228.6.4-2.1.8-3.5 1.3-4.4.7-1.5 1.5-1.7 2.2-.9.2.3.5.6.7 1 2.7 4.5 5.3 17.5 6.8 16.3.2-.2.3-.5.5-1.1-.7-2.1-1.3-3.9-2-5.9-1-3-2-5.9-3-8.6-3-8.6-5.9-16.2-8.7-23.1-15.8-38.5-28.9-51.1-45.7-44l2.2 11c-1.6-.5-7.1.7-5.2 12.8 3.8 24 6.9-6.6 10.4 5.7-11.3 18.9 1 47.9 6.5 74.2 2.7 13 3.8 25.3-.5 35.5 27 112.6 107.1 229.4 183.2 298.7l-2.7-4.8c9.3 6.1 28.8 25.4 27.6 28.9l8.2-2.8c32.9 20.9-29.8 7 6.9 32.7-15.9-17.3 6.4-15 18.9-4-2.1-3.9 4.9-13.7-2.5-18.4l-13.9-20c-8.5 9.6-34.5-19.3-41.9-30.8.5 0 1.1.1 1.7.2.5.1 1 .1 1.6.2 8.9 1.3 19.4 6.1 27 19.3 13.9 9.2 27.2 19.4 40.5 29.8-3.3-9.4-4.9-19.2-21-30.6zM463.5 1235.2c1.4-.3 2.7-.6 2.3-1.7 8.2 8.4 21 15.5 34 21.7-17.8-12.8-34.3-26.1-50.7-39 2.3 6.4 5.4 12.6 14.4 19z"/><path fill="#DB8640" d="M1168.3 1033.3c16.5-9.1 44.2-45.6 64.3-78.3-5.1 6.6-9.6 13.5-15.2 19.7-1.8-5.7-16.8 9.6-20.1 6.5 8.2 5.1-17.5 28.2-29.6 41.5l.6 10.6zm24-34.4c14.9-15.2 1.6 3.7-3.4 12.7l3.4-12.7z"/><path fill="#FFFFFE" d="M1192.3 998.9l-3.4 12.7c5.1-8.9 18.4-27.9 3.4-12.7z"/><path fill="#DB8640" d="M1132.2 1078.7c15.3-15.1 30.1-30.5 43.1-47.6l-20.1 17.2-23 30.4zM1127.3 1063c-2.6 1.4-5.8 3.7-8.3 5.9 3.1-1.8 5.8-3.8 8.3-5.9z"/><path fill="#DB8640" d="M1062.4 1106.4c-18.8 20.6 22.9-2.8-4.3 20.3 27.6-18.9 48.3-32.6 71.1-49.4-7.7 3.6-9.4 6.7-20 12 15.4-12.7 33.2-33.2 48.6-50.4-10.7 3.9-18.7 14.7-30.5 24.2 3.9-2.2 6.4-2.2 2.3 3.7-20.1 11.1-26.6 25.2-46.4 33.9l14.4-14c-5.8-3.7-29.2 30.4-35.2 19.7zM1037.2 1125c-18.2 10.9-48.3 23.1-49.8 33.9 22.8-4.4 23.6-12.6 31-20.1 5.2-.8 17.4-7.4 20.2-6.4 1.8-3.6 5.3-8.9-1.4-7.4z"/><path fill="#DB8640" d="M1038.3 1135.3c1.2-1.9 1-2.7.2-2.9-.8 1.6-1.3 2.9-.2 2.9zM986.3 1150.5c-11.4 1.2-13.4 6.1-24.5 8.5l-12 12.4 9-4.6 2.9 4.6c1.2-2.2 5.2-13.1 24.6-20.9zM969.7 1195.2c-.3.1-.6.3-.9.4.4 0 .7-.1 1.1-.2-.1 0-.1-.1-.2-.2zM990.6 1186.1c.3.6 19.3-13.3 31.3-24.8-19.2 16.5-62.7 24.3-52.3 33.9 10.8-4.5 19.5-8.7 22.3-11l-1.3 1.9zM931.1 1208.9c12-3.4 25.9-8.5 37.6-13.3-14.6 1.7-21.9 7.5-37.6 13.3-.3 0-.5.1-.8.2.3 0 .6-.1.8-.2z"/><path fill="none" d="M991.1 1190.9c-2 1.3-3.9 2.6-5.9 3.9M991.1 1190.9s.1 0 .1-.1M985.3 1194.8c-.3.2-.6.4-1 .6M991.3 1190.8c2.8-1.8 5.5-3.7 8.1-6"/><path fill="#DB8640" d="M923.8 1174l-23.7 5.9 32-5.7zM935.7 1200c-6.2 3.7 35.7-12.5 36.3-16.7-6.7 1-23.1 13-27.7 8-26.3 7 16 1.6-8.6 8.7z"/><path fill="none" d="M853.9 1193.8l25.5-9.6"/><path fill="#DB8640" d="M853.5 1187.1c-9.5 5.2-27.3.1-40.3 1.8l-5 4.2c27.7-7.8 34.4 7 45.3-6z"/><path fill="#DB8640" d="M740.6 1198.1c3.7-2.5 11.9-2 10.7-5.2 9.6 1.4 7.5 4.9 14 6.6 16.8-2.6 42.8-2.5 56-6.5-6.5 1.2-8.1.4-13 .1-21.4-.5-49.3 1.2-68.3-3.6 0 2.9-.1 5.7-.3 8.5.3 0 .6.1.9.1zM826.6 1227.2c-.3.5-.5 1.1-.6 1.8 2.4-.8 2.1-1.3.6-1.8zM887.4 1212.8l7.6-8.6c-14.6 4-24.3 5.6-33.3 6.7 5.8 1.3 3.8 5.7 25.7 1.9zM844.6 1212.3l.2.2c5.9-.5 11.3-1 16.8-1.6-2.7-.7-7.2-.6-17 1.4zM841.4 1215.5c-6.7 7.1-29 2.2-32.6 7.6 1.1 2.2 13.8 2.9 17.8 4.1 4.6-9.1 30.8-3.7 18.3-14.7-7.4.7-15.8 1.6-27.3 3.4 7.9 0 15.9.6 23.8-.4zM743.9 1219.8c-2.4-.5-4.6-1.1-6.5-1.8v.3c2.4.6 4.7 1.1 6.5 1.5zM663.3 1206.8l-14.4-3.6c-8.4-2.9 13.2 5.8 14.4 3.6z"/><path fill="#DB8640" d="M634 1179.1h.1c0 .1-.1 0-.1 0-1.3-.6-2.5-1.2-3.7-1.8-.5-.5-.7-.9-.4-1.5 16.7-2.7 40.8 21.8 41.7 14.2-13.9-10.8-47.9-16.7-51.5-23.5-5 .1 6.8 7.2-5.9 4.5-18.1-8.4-14.4-9.9-24-17.6l-12 .9c1.3-7.4-18.9-14.9-39-24.6 21.3 15.4 44.7 29.8 72.8 41.2-38.4-5.8-66.9-30.3-99.8-49.1-18.9-5.6 14.1 12.1 14.4 15.9-9.6 5.7-13.4-14.3-25.2-11.9-6.2 5.1 31.1 27.9 45.6 38.3 14.1 5.7 14.8 3.5 20.5 1.8 1.8 5.4 15.9 11.5 18.1 16.7 31.2 6.4 44.6 20 76.4 21.9 1.2 1.1 1.5 1.8 1.3 2.2l2.2.5-1.6-1.3c5.5-.3 12 .2 18.8 1 0-.7-.1-1.4-.1-2.2-19.5-7.8-34.4-18.2-48.6-25.6zm-97.5-25.2l-4.8-6.2 16.6 2.9-11.8 3.3zm58.7 25.2l-3.2-2.2c-4.7-1.4-9.5-3.8-11.5-7.8l11.5 7.8c8.7 2.7 16.7 2 3.2 2.2zM738.4 1212l10.9 6.6 29.9-7.9c-14.4 3.3-29.7-.7-40.4-1.4-.1.8-.3 2.7-.4 2.7zM777 1220.9c5.5 0 11-.2 16.5-.8-9.3-.4-14.1 0-16.5.8zM777 1220.9c-8.2 0-16.4-.3-24.6-.6l6.1 6.2c27.3 3.3 10.8-3.1 18.5-5.6z"/><path fill="#FFFFFE" d="M595.2 1179.1c13.5-.1 5.5.5-3.2-2.2l3.2 2.2zM592 1176.9l-11.5-7.8c2 4 6.9 6.4 11.5 7.8zM536.5 1153.9l11.8-3.3-16.7-2.9z"/><path fill="#DB8640" d="M491.1 1116.8c-13.2-3.2-2 7.6 11.4 14.6-11.3-7.3-15.4-13.9-11.4-14.6z"/><path fill="#FFFFFE" d="M433 1050.7c-.5-.1-1-.1-1.4-.1 3.2 2.8 3 2.2 1.4.1z"/><path fill="#DB8640" d="M383 968.2c.4 2.6 3.4 7.4 7.5 13.2.7-2.3-.5-6.4-7.5-13.2z"/><path fill="none" d="M660.3 1178.4l-9.6-2.7M650.7 1175.7l-6.2-1.7"/><path fill="#DB8640" d="M468.6 1067l1.3 1.9-1.2-1.8zM1234.9 926c2.2-3.7 3.8-7.9 5.5-11.9-1.7 3-3 7.1-5.7 12l.2-.1zM1216.2 960.7c-1.3 2.3-2.7 4.8-4 7.6 1.3-2.5 2.7-5 4-7.6zM1251.8 917.7c-20.7 25.8.6-7-16.9 8.4-6.5 11.7-12.6 23.4-18.6 34.7 15-25.8 29.9-21 35.5-43.1zM1031.7 1153.7l1.1-.8c-2.1 1.3-3.1 2.1-1.1.8zM941 128.7l-.5 1.2c1.6 0 3.7 0 6 .2l-5.5-1.4zM939.3 132.9l1.2-3c-3.4.1-4.7.8-1.2 3zM975.7 146.7c1.4.5 2.8.7 4.1.6.5-.1 1 0 1.5-.2 1-.4 2-1 2.9-2l-21.4-8.5c1.8-4.1 2.8-6.1 16.1-.7-2.6-2.9-15.6-4.9-22.7-6.5l4.8 2.3c-3.4.2-9.3-.9-14.5-1.6 10.9 4.3 18.9 11.1 25.3 14.8 1.4.7 2.7 1.3 3.9 1.8zM1043.8 175.5c-22.1-14.9-12.3-2.2-26.8-7.5 4.2 2 8 4.2 11.9 4.7-11.1-8.5 9.2 2 14.9 2.8z"/><path fill="#DB8640" d="M1011 165.4c2.5 1.2 4.3 2 6.1 2.6l-6.1-2.6zM1080.7 205.1l1.2 1.2 6.2 3.4zM1189.6 369.9c-.5-4.5 2.7-3 4.9-2.1.2.1.3.1.5.2s.4.1.5.2c.2.3.3.5.5.7.8-1.7.7-4.7-.8-9.9-6.2-4.4-16.9-14.3-28.5-24.8 4 4.9 7.7 9.8 11.1 14.9 4.6 6.8 8.6 13.7 11.8 20.8zM998.2 180.9c-6.5-4.9-16.4-8.7-25.3-11.7 8.1 4 16.5 7.9 25.3 11.7zM1029.4 204.6c2.8.8 5.1 1.3 6.7 1.4-3.8-2.6-7.7-5.1-11.7-7.2 1.5 2.1 3.2 4.1 5 5.8zM1000.5 183l-1.5-.3c1.1.5 2.1 1.1 2.9 1.6-.3-.4-.9-.9-1.4-1.3zM1081.9 206.3c-17.9-9.2-30.4-9.1-41.2-18.2-.3-.3-.7-.6-1-.9-.3-.3-.7-.5-1.1-.9-.8 0-.9.4-.5 1.1.4.6 1.3 1.6 2.6 2.7.5.4 1.1.9 1.7 1.4 16.6 6.6 33.2 13.7 50.4 25.7-3.4-3.8-7-7.5-10.9-10.9zM1040.7 204c-.2-2.9-4.8-8.1-5.8-11.3-4.2-2.2-8.9-3.6-14.4-3.2-6.4 1.3 8.6 8.3 20.2 14.5zM548 209.5c-.5-.3-.4-.8.1-1.4.2-.2.6-.5.9-.8-.4.1-.7.1-1.1.2-.4.4-.7.8-.8 1.1-.1.5 0 .8.9.9zM1057 244.5c-1.8-1.3-3.5-2.6-5.2-3.9 1.4 1.4 2.9 2.8 4 4.2.1-.2.6-.2 1.2-.3zM602.7 208.5c17.1-8.4 0 6.1 19.3-5.8l-10.8 1.6c20.5-7.6 30.2-14 41.7-22.5 3.1-.5 6.3-1.1 9.4-1.6 5.4-.9 10.8-1.8 16.2-2.8 56.2-9.4 116.7-17 170.4-9.7-16.7-4.8-37.1-7.9-72.4-7.5-57-10.9-124.4 10.8-180.5 23 3.6 1.3 1.2 3.7-4.1 6.5 14.1-4.9 30-10.1 45.3-14.8l-1.1 1.3c-2.9 1.1-6.1 2.3-9.7 3.7-12.1 4.6-27.6 10.7-42.5 17.6-7.1 3.2-14.1 6.6-20.6 9.9-27.2 14-45.8 26.7-31.5 17.8.2.7 0 1.3-.1 1.9-1.1 6.8-15.3 10.1-11 15.7-31.5 24-52.5 38.5-74.8 54.7 36.4-21.2 76.1-43.1 119.8-61.9 4.7-2 9.6-4 14.4-5.9 2.8-1.1 5.6-2.3 8.4-3.4 8.9-3.5 18-6.8 27.2-10 6.7-3.8 12.4-8 1.5-6.6-4.5 2.5-8.5 4-11.7 4.9-7.3 2-10.2-.4-2.8-6.1zm37.6-34.5c2.3-.7 4.5-1.4 6.7-2-1.7.8-5 2.1-9.4 3.8l2.7-1.8z"/><path fill="#DB8640" d="M1344.3 756.1c-1.1-2.1.6-14.5 2.9-25-2.6 1.7-4.9 13-6.9 20.9-1.3 5-2.5 8.6-3.8 7.6 1.3-6.4 2.5-11.8 3.5-16.6 5-22.4 8-30.8 12.7-61.5-2.5-3.7-11.6 23.5-12.6-6.7 6.1 2.5 7.1-24.1 13.8-3.9-5.4-26.2 3.6-20.3-4.2-41 .5 2.5.3 6.4.2 10.3-3.3 7-4.1-10.9-5.3-18 3.5-12.4 5.3-19.5 3.5-39.3-3.3-13.6-6.4-27.2-11.6-40.3.5-1.9 2.2-.3 2.2-.3-11.1-38.2-22.3-80-37.7-105.1-4.1-2.4-12-10.8-2.5 8.3-10.6-10.9-15.1-29.4-20.7-44.8-.9-2.4-1.8-4.8-2.8-7 4.3 3.3 8.8 6.5 12.7 10.1-11.5-19.7-23.7-41.9-37.1-62.9-5.8-9.2-11.9-18.2-18.3-26.7-5.8-7.7-11.8-14.8-18-21.3-5.7-6-11.6-11.6-17.8-16.3l1.5 5.8.9 3.6c-12.4-12.1-24.5-24.4-36-35.6-17-16.5-32.6-30.3-45.5-36.7 20.5 24.8-20-9.8-29.1-12.3 18.9 15.1 48 33.5 59.5 42.3 2.2 1.7 3.8 3 4.4 3.9l-.3-.8c15.1 11.8 30.9 23 44.4 36.8l-1.3 1-4.1 3.1c6.5-3.7 16.1 8.3 25.1 21.5 11.1 16.4 21.2 34.3 22.6 25.4 7.1 8.6 8.8 15.3 7.9 18.8-.4 1.6-1.4 2.5-2.7 2.6 3.8 4.7 7.5 9.6 11.2 14.6 5.3 7 10.5 14.1 15.8 21.2.2 5.7-10.4.8-12.7-3.8-7.7-14.2-25.3-32.2-32.3-48.3-.7-1.5-1.4-3-1.8-4.5-1.7-1.3-2.8-1.9-3.6-2.1-4.8-1 2.8 13.4-14.3-7.1-7.3-12.2-16.4-23.8-26.3-34.6-27.5-30.4-61.4-55.5-81.5-74.7 4.3 5.4 9.3 9.7 6.4 9.7 4.9 4.1 9.8 8.4 14.7 13.5 8.7 15.5 17.9 29.6 25 45.2 37.5 10.2 57.4 63 93 118.1-2.4 15.3 37 73.5 29.4 89.9 1.8 6.6 1.4 10.9-.2 13.9 10 33.7 15.4 68.1 18.8 95.2 2.9-7.5 5.3-16.2 6.6-25.4.9 8.2-.3 16.5.8 22.3 4.2-21.1-3.1-96.9 12.6-61.5 9.1 62.1-11.3 64.4-11 116.3.6 9.2.8 18.5.8 27.8 3.4 1.6 6 3.6 7.3 6.3 2.9 5.8-1.4 11.8-8.1 17.8-4 72.9-24.6 146.8-54.1 208.5 10.6-21 12.1-.5 20.2-12.5 3.9-15-12.2 15.8-5.8-3.4 21.9-20.1 1.1-20 19.9-43.5l-.4 16.4c8.2-33.1 21.2-77.8 26.2-118.9l6.4 5c-.4-15.6 3-36.8 8.8-39.2-5.8 37.6 2.5 53-1 71.3-.6 3-1.5 6.1-2.8 9.4-.1.2-.1.3-.2.5-.8 1.9-1.7 3.9-2.9 6-1.2-3.2-1.1-2.7-2.1-1.1-.3.5-.7 1.1-1.3 1.8.2 1.6.4 3.3.6 5.1.2 1.9.3 3.9.3 6 .1 2.2 0 4.4-.1 6.8-.1 1.7-.2 3.4-.4 5.1-.3 3-.7 6-1.3 9.2-1.4 7.3-3.8 14.8-7.5 22.1-.3.7-.7 1.3-1 2-.4.7-.7 1.5-1.1 2.2l-.1-.9-.3-2.8-.7-6.3c-1.5 4.6-1.1 9.1-2.9 13.7-5.7 15.1-17 30-17 44.5-12 4.4-6.7 8.7-8.9 13-5.6 10.8-12.3 21.4-17.8 31.1 5.9-5.2 5.4-.4 2 8.1-1.2 2.9-3 6.2-4.9 9.7-2.9 4.1-4.6 6.1-5.4 6.8-3.2 2.9 4.8-13.3-1.5-7.8-10.1 5.2-20.5 26.6-30.1 43.4-4.2 7.5-8.3 14-12.1 17.9 2.2-5-34.1 31.1-15.9 5.4-25.9 26.3-39.8 51.6-64.7 60.2-1.3 4.3-5.8 13.2-13.5 20.5l-3.4-5.8-7.2 11.4c-21.4 13.9-38.8 8.7-57.6 26 4.3-2.2 12.1-8.2 14.6-5.4 1.7 7.4-41.7 29.2-29.7 32.1l17.2-13.6c-4.1 8.3 20.2-5.7 17 .2 15.9-11.5 32.6-21.6 47.4-34.2l4 3.7-12.7 5.8c-4.7 12.6 5.9 2 18.6-8.7 4.3-3.6 8.8-7.1 13-9.7 1.2-.7 2.4-1.4 3.5-2 1.6-.8 3.2-1.6 4.6-2l-1.7-2.6-.7-1.2c2.1-1.5 3.8-2.7 5.6-4 .7-.5 1.4-1 2-1.4 5.1-3.6 8.8-6.1 11.7-8.1.6-.4 1.2-.8 1.7-1.2 9.7-6.3 8.1-4.2 19-11.9 1.3-.9 2.9-2.1 4.6-3.3 1.1-.8 2.3-1.7 3.7-2.7.1 0 .1-.1.2-.1 1.3-1 2.6-1.9 4.2-3.1l4.4-10.3 1-2.3.1-.2c.1-.2-.1.1-.4.5-.6.7-1.6 2-3 3.7-1.4 1.6-3 3.6-4.8 5.7-.3.3-.6.6-.8 1-6.3 7.2-14.2 15.2-17.4 14.5-.4-.1-.7-.2-.9-.6 1.3-1.5 2.6-3 4-4.6.9-1.1 1.8-2.1 2.8-3.2 4.3-5 8.9-10.2 13.6-15.6 13.5-15.7 27.4-33 36.1-49.8-1.1 7.2-2.6 14.4-4.4 21.3-.2.9-.4 1.8-.6 2.6-.1.2-.1.4-.1.6 0-.2.2-.4.3-.7.2-1 .6-2 1.1-3 5-9.1 22.1-17.4 36.8-38.4l-17.7 17.5c3.2-14.2 19-34.1 32.2-55.1 1.1-1.7 2.1-3.4 3.2-5.2 4.2-7.1 8-14.3 10.7-21.3.5-1.4 1-2.8 1.5-4.1.4-1.1.8-2.3 1.1-3.4-.6 1.3-1.3 2.7-1.9 4-3.2 6.4-6.5 11.8-9.6 11.4.7-4.4 4.4-12.1 8.7-19.8.2-.4.5-.9.7-1.3 3-5.3 6.3-10.6 9.1-14.6 1.7 1.7 1.8 4.8 1.2 8.8-.4 2.6-1.3 5.5-2.4 8.7 0 .1-.1.2-.1.4-.9 2.6-2 5.3-3.2 8.2-.8 1.8-1.6 3.7-2.5 5.6-1.7 3.8-3.5 7.6-5.2 11.2-.3.6-.6 1.3-.9 1.9-6.3 13.3-11.3 24-6.7 22.8 10.3-14.9 15.7-30.6 19.8-45.1 2.3-8.2 4.3-16.1 6.5-23.1 2.1-6.7 4.4-12.8 7.5-17.7 0 .4-.1.7-.1 1.1-.1 2.9-.3 5.7-.6 8.5-.3 3.2-.8 6.5-1 9.8 1.9-5.8 4.2-11.4 5.6-17.3l-2.5 4.7c-.2-.9-.2-1.8-.1-2.8.1-3.4 1.5-7.2 3.4-11.3 2.9-6.5 6.9-13.7 8.8-21.4l2.9 11.3 9.4-25.3-2.9 2.6c6.1-24.7 11.4-47.3 16.5-69.5 3.6-15.8 7.2-31.3 11-47.3l-6.5 22.7z"/><path fill="#DB8640" d="M1152.1 247.6l.4 1c.1-.1-.1-.5-.4-1zM301.7 738.5c1.3 3.2 2.6 6.4 3.8 9.7.2 0 .5-.2.6-1-7.9-23.6-14.7-41.1-21.3-53.2 4.2 14.5 9.6 27.2 14.8 39.6.7 1.1 1.4 2.9 2.1 4.9zM256.6 698.4c.9-1.4 1.9-1.6 2.9 1.8-.2.3-.3.7-.5 1 2.2 3.5 4.3 7.9 4.2-3.1-.1-14.1-2.1-20.1-4.5-26-2 .2-4 .7-6 1.5l2 9.9c-1.4-.5-6.4.6-4.7 11.5 1.8 11.6 3.5 9 5.1 5.8.4-1.9.9-2.5 1.5-2.4zM506.6 1111.9c1.3-.3 2.4-.6 2-1.5 7.4 7.5 18.9 13.9 30.5 19.5-16-11.5-30.8-23.5-45.5-35.1 2.1 5.8 4.9 11.4 13 17.1z"/><path fill="#DB8640" d="M480.3 1071.9c-1.6-1.5-3.4-3-5.6-4.5 11.8 12-11.3-3.5-2.1 7.3-16.1-6.2-22.5-30.8-46.4-46.7 8.4 6 2.1 6.9-2.8 4.2-7.1-11-20-23.8-30.7-36l-1.8 2.3c-3.8-6.4-7.6-12.6-11.3-18.9-.4 1.3-1.5 2.1-2.4 2.4-7.7-15.2-11.7-18.6-17.3-36.9-3.4-6.8-6.9-14-10.5-21.4-24.9-27.3-44.7-58-56.3-102.6-18-45.7-33.1-55.2-37.3-109.1-3.1 26 19.2 63 9.2 86.9 24.3 101.3 96.3 206.4 164.8 268.7l-2.4-4.3c9.5 6.2 30.7 27.6 23.3 26.5l8.8-3c29.6 18.8-26.8 6.3 6.2 29.4-14.3-15.5 5.7-13.5 17-3.6-1.9-3.5 4.4-12.3-2.3-16.6l-12.5-17.9c-7.6 8.6-31.1-17.4-37.7-27.7.5 0 1 .1 1.5.2.5 0 .9.1 1.4.1 8 1.1 17.4 5.5 24.2 17.4 12.5 8.3 24.5 17.4 36.4 26.8-1.6-4.5-2.8-9-5.7-13.8-3.2-.8-5.8-4.5-7.7-9.2z"/><path fill="#DD5E66" d="M499.1 230.9c-1.3 1-2.7 2-3.9 3 1.9-1.2 3-2.1 3.9-3z"/><path fill="#DD5E66" d="M1266.8 493.1c7.6-16.4-31.7-74.6-29.4-89.9-35.6-55.1-55.6-107.9-93-118.1-7.1-15.6-16.3-29.8-25-45.2-5-5.1-9.9-9.5-14.7-13.5-4-3.3-7.9-6.3-11.8-9.1-17.1-12-33.8-19.1-50.4-25.7-1.5-.6-2.9-1.2-4.4-1.7-3.3-.2-3.8 1-3.2 2.9 1.1 3.3 5.6 8.4 5.8 11.3.1 1.5-1 2.4-4.5 2-1.6-.2-3.9-.6-6.7-1.4-1-.3-1.9-.5-3-.8-10.8-5.3-30.3-11.4-39-19.9-.9-3.4 6-2.3 11.6-1.2l1.5.3c1.9.4 3.5.8 4.5.9-2.3-1-4.5-2-6.7-3-8.9-3.8-17.3-7.7-25.3-11.7-41.3-20.3-73.6-41.7-113.6-54.3-24.5-3.4-52.9-5.3-80.9-5.2-47.9.1-94.2 6.1-117 20.5-.4.2-.8.4-1.2.7 12.9-2.2 25.6-5.3 38.7-6-31.2 6.6-26.6 11.7-27.5 16.7-.2 1.2-.8 2.5-2.3 3.8-.5.4-1 .8-1.7 1.2-.4.2-.9.5-1.4.7-3.6 1.8-9.8 3.7-20 5.8-1.5.3-2.9.6-4.6.9-.6.1-1 .2-1.6.3-2.1.4-4 .8-5.9 1.1-31.5 5.8-25.1-1.6-24.8-7.6.1-1.2-.1-2.4-1-3.4-26.1 7.6-63.2 32.3-83.5 39 26.1-16.2-24.7 4.8-12.2-2.3-1.3.7-2.4 1.3-3.5 1.9-36.7 19.9-38.8 32.9-58.6 56.1-.2.2-.4.5-.6.7-2.4 2.7-4.9 5.6-7.8 8.6 7.8 4.1 21.6 5.3 62.3-27.7-5.7 5.8-.5 5.7-5.2 10 15.4-12 37.6-21.2 48.8-23.4.4-.1.7-.1 1.1-.2.4-.1.7-.1 1.1-.1.7-.1 1.6-.3 2.2-.3 5.8-3.4 22.4-9.2 33.9-14.3 2.2-1 4.1-1.9 5.8-2.8 5.2-2.8 7.7-5.2 4.1-6.5 56.1-12.3 123.4-34 180.5-23 35.4-.4 55.7 2.8 72.4 7.5 25.9 7.4 42.9 18.8 92.6 27.3 12.5 7.1 2.7 9.2 14.9 16.1 7.2 4.2 14.2 7.4 21.2 10.2 1.7.7 3.4 1.5 5.1 2.1 7.7 2.8 15.2 5 22.6 6.8.8.2 1.7.4 2.5.6 9.4 2.2 18.4 3.9 27.2 5.7 4.3.9 8.5 1.8 12.7 2.8 1.1.3 2.1.5 3.2.7.3.2.5.4.8.6 1.7 1.3 3.4 2.6 5.2 3.9 16.1 11.8 35 24.5 39.4 33.2 1 2 1.3 3.8.5 5.4-4.9-.3-13.1-7.6-19.8-11.9-2.2-1.4-4.2-2.5-5.9-2.9-.1 0-.1 0-.2.1-42.4 13.2 58.3 30.1 71.2 68.1 3 1.8 1.2-4.8 6.5 1.3l-33.5-36.8c2.3-1.7 6.3-.8 11.2 1.6 10.8 5.4 26.3 18.9 40.4 31.6 11.6 10.5 22.3 20.4 28.5 24.8 1.6 5.2 1.6 8.2.8 9.9 0 .1-.1.2-.1.2-.3.5-.6.9-1 1.2-4.3 2.9-16-5.7-14.8 2.8.5 3.9 3.6 11.3 11.3 25 18.5 9.2 26.8 53.3 39.8 74.4l2.6-4.1c23.3 56.6-18.3 36.4-2.8 76.9-2.7-40.3 11.1 26.2 8.3-14.4 1.4-19.1 21.8-13.6 27.3-24 1.4-2.9 1.8-7.2 0-13.8zM1200.6 836.8c.7-.7 1.2-1.7 1.8-2.4.3-5.5.5-10.4 1.2-14.5l-3 16.9z"/><path fill="#DD5E66" d="M1227.3 750.7c-4.4 26.4-9.6 64.5-24.9 83.7-.8 16.5-2.2 38.6-18.8 63.5-6.8 7.4-4.3-1.3-4.2-4.9-45.2 98.1-155.1 201.7-293.3 226 48.2-12.9 80.3-34.3 96.8-42.6-6.4 2.8-12.9 5.6-19.7 7.5 18.3-11.7-20.8-2.5-12.7-9.3-50.8 18.8-124.3 12.4-138.1 35.3l16-2.4c14.7 3.1 40.8-1 40 5.5-18.9 6.4-38.2 13.2-58.3 16.7 20-.1 39.8-3.3 59.6-6.3-8.9 9.9-39.8 26.7 10.4 23.5 78.5-26.7 138.8-67 211.8-106.7 89.6-65.6 160.8-167.9 180-286.4-11.8 17.4 2.6-25.9-11.9 8.1.2-9.9.4-18.6 1.7-29.3-5.4 3.6-15.8 5.6-28.6 6.8-1.8 3.6-3.8 7.4-5.8 11.3zM1283.7 678.5c2.7-13.1 6-24.1 10.8-20.1v-4.6c-.3-52 20.1-54.2 11-116.3-15.7-35.3-8.4 40.4-12.6 61.5-1.1-5.7.1-14.1-.8-22.3-1.4 9.2-3.8 17.9-6.6 25.4-5.5 14.5-13 24.2-19 22.3.4-7.8 1.5-10.1-.5-13.3-1.2 2.4-3.5 6.9-5.1-3.9-.4 14.7-.2 29.3-2.6 43.7l-6.1-2c.7 10.9.6 20.3 0 28.8 9.7-.7 21.6-.8 31.5.8z"/><path fill="#DD5E66" d="M950.5 1074.4c8.4-3.1 16.2-6.8 23-11.6-13.9 6.1-20.6 9.6-23 11.6zM1200.6 418.6c-6-1.2-26.4-31.4-31.3-26.9 6.1 10.2 13.3 19.9 18.7 30.6 1.8-11.3 25.8 35.6 12.6-3.7zM483.2 1020.7c-15.8-10.5-31-19.4-40.7-27.1 6.9 14.5 23.7 32.2 35.7 46.2 1-2.8 1.8-5.2 1.4-7.4-.2-1.6 1.3-6.2 3.6-11.7zM736.2 1116.3l-2.5-1.8c.1.6.2 1.1.3 1.7.7 0 1.5 0 2.2.1zM602.7 1124.8c30.7 5.5 28.2 2.8 72 20.5 1.6.2 3.1.4 4.7.6-.4-3.7-1-7.5-1.8-11.5-15.6-3.3-31-7.2-46.4-11.3-35.2-23.1 42.7-6.6 33-17.3 2.6.4 4.8 1.4 6.6 2.6-1.4-4.6-2.9-9.5-4.5-14.6-10.3-2.9-21.1-5.8-27.6-8.9-89.7-30.4-57-2.6-83.1-3.9-1-.5-2-1.1-3.1-1.8-7.3 6.6-8.8 11.4-15.8 15.4 6.4 1.9 13.3 3.8 21.7 6.4 14 9.5 42.4 17.5 44.3 23.8zM824.7 1136.6l-4.9-2.3c-23.4 3.5-47 5.5-70.8 5.2 25.4 1.3 50.6-.3 75.7-2.9zM392.6 996.2l5.6-7.1c-12.4-9.5-19.3-21.2-30.4-32.1 3.4 7.8 7.4 15.2 11.7 22.5 3.7 6.3 7.5 12.5 11.3 18.9l1.8-2.2zM1109.4 936.9c-7.5 8-4.5 7.7-4.3 10.1 2.2-3.6 3.8-7 4.3-10.1zM1123.6 932.7L1105 948c.1-.4.1-.6 0-.9-10.7 16.9-37.2 37.8-44.3 53.1 25.5-21.4 49-40.3 62.9-67.5zM349.3 923.7c27.5 30.1 61.3 56 97.5 91.7-23.6-26.2-44.8-57-72-97.4l29.5 28c-6.8-27.6-33.9-31.5-44.2-61.8-.1-2.6 9.8 8.2 6.4 1.1-14-16.5-24.6-35.2-36.6-53.6-6.5.6 10.8 38.1-4.2 18.9-5.9-9.9-2.7-10.3-2.6-12.9-6.2-9.7-10.2-20.5-15.4-30.8l8.4-13.4c-1.1-17.2-5.3-31.6-10.7-45.5-1.2-3.2-2.5-6.5-3.8-9.7-.7-1.6-1.4-3.3-2.1-4.9-5.2-12.4-10.6-25.1-14.8-39.6-4.7-16.4-7.9-35.2-7.4-58.7-13.1-23.4-18.3 21.6-24.7 37.9l3.4-7.7c.9 2.5 1.8 4.6 2.6 6.8 2.4 5.9 4.4 11.9 4.5 26 .1 10.9-2.1 6.6-4.2 3.1-.9-1.4-1.7-2.6-2.4-2.8-.6-.2-1.1.5-1.4 2.5-.1.4-.1.7-.2 1.2.2 3.5.4 6.8.6 10 4.2 53.8 19.2 63.3 37.3 109.1 11.7 44.5 31.5 75.2 56.5 102.5z"/><path fill="#515B69" d="M1302.6 688c-1.3-2.7-3.9-4.7-7.3-6.3-3.2-1.5-7.2-2.5-11.6-3.2-9.9-1.6-21.8-1.4-31.4-.6-5.2.4-9.8 1.1-13 1.7-14.1 2.8-42.2 29.5-99.8 32.3-57.6 2.8-137.8 11.2-153.2 14.1-15.5 2.8-39.4 16.9-94.2 25.3-43.1 6.6-95.7 9.8-127.9 3.3 1.3-3.9 2.7-8.9 9.7-10.8 10.3-2.8 16.9-.9 25.3-4.7 8.4-3.7 18.7 2.8 19.7-9.4.9-12.2 2.8-12.2 9.4-17.8 6.5-5.6 9.4-17.8 12.2-25.3 2.8-7.5 22.5-5.6 17.8-21.5-4.7-15.9-10.3-26.2-17.8-30.9-3-1.9-5-3.3-7.3-4.5 8-1.2 15.3-2.5 21.4-3.9 40.3-9.4 35.6-24.4 72.2-9.4 36.6 15 48.7 15.9 48.7 15.9s-4.7-10.3-7.5-11.2c-2.8-.9-21.6-14-3.7-14 17.8 0 32.8 14 38.4 14 5.6 0 12.2-5.6 7.5-8.4-4.7-2.8-28.1-21.3-38.4-21.3-10.3 0-44 5.8-73.1 5.8H788.1c-17.8 0-46.9 5.4-49.7 5.4-2.8 0-17.8 1.8-44 3.7-26.2 1.9-109.7-2.4-122.8-4.3-13.1-1.9-37.5-5.9-15.9-20s40.3-10.4 40.3-32c0-21.5 0-6.6 11.2-9.4 11.2-2.8 15.9-9.4 11.2-23.5-4.7-14.1-10.3-10.3-10.3-16.9 0-6.6 11.2-5.9 3.8-17.2-7.5-11.3-11.3-21.9-26.3-21.9H565s-32.8.3-41.2 2.2c-8.4 1.9-27.2 7.7-32.8 28.3 0 0-2.8 11.8-11.2 13.7-8.4 1.9-11.2 11.5-8.4 10.6 2.8-.9 5.6 1.1 5.6 1.1l-2.8 14.1 2.8 3.8-6.6 1s-12.2 18.7-3.8 22.5c8.4 3.7 23.4 8.4 23.4 8.4s2.8 0 3.7 4.7c.9 4.7.9 41.2.9 48.7s0 10.3-8.4 4.7c-8.4-5.6-30-29.1-42.2-39.4-12.2-10.3-51.5-62.8-60.9-72.2-9.4-9.4-9.4-14-10.3-20.6-.9-6.6-8.4-53.4-15-78.7-6.6-25.3-15.9-39.4-5.6-52.5 10.3-13.1 16.9-14.1 25.3-24.4 8.4-10.3 15-17.8 2.8-15-12.2 2.8-29.1 14.1-24.4 3.7 4.7-10.3 16.9-15.9 26.3-28.1 9.4-12.2 7.5-14.1 2.3-14.5 0 0-10.1 3.6-21.9 11.4-.4-6.9-2.8-16.1-8.6-14.6-4.5 1.1-3.9 13.5-2.8 23.3-13.7 12-26.1 29.8-24.4 54.5 0 0 4.7 109.2 4.7 123.3 0 14.1 1.9 21.6 4.7 30 2.8 8.4 26.7 47.3 55.8 85.8 29.1 38.4 51.5 62.3 54.4 69.4 2.8 7 6.1 8.4 3.7 23.4 0 0-13.6 31.9 12.7 60 0 0 22.5 32.8 54.3 71.2 31.9 38.4 45.9 43.1 45 51.6-.9 8.4-20.6 27.2-20.6 36.6 0 9.4-.9 17.8-7.5 23.4-6.6 5.6-15 19.7-15.9 29.1-.9 9.4-9.4 30.9-16.9 32.8-5 1.3-13.3 15.8-18 26.7-2.4 5.5-3.9 10.1-3.6 11.7.4 2.2-.4 4.7-1.4 7.4-1.1 3-2.4 6.4-2.4 10.4 0 4.6 1.4 14.3 4.4 21.7 1.9 4.7 4.4 8.4 7.7 9.1l.1.1c8.4 1.9 5.6 10.3 10.3 14.1 4.7 3.7 25.3 5.6 35.6.9 1-.5 1.9-1 2.7-1.4 7-4 8.5-8.8 15.8-15.4.7-.6 1.3-1.2 2.1-1.9 10.3-8.4 5.6-17.8 10.3-22.5 4.7-4.7 15.9-4.7 15.9-15.9 0-11.3-9.4-16.9 1.9-19.7 11.2-2.8 11.2-11.2 22.5-21.6 11.2-10.3-.9-18.8 9.4-20.6 10.3-1.9 13.1-6.5 19.7-13.1 4.5-4.5 6.9-5.1 13.5-8.4.8 32.6 3.2 87.6 10.9 113.4 2.7 9 5.2 17.2 7.6 24.9 1.6 5.1 3.1 10 4.5 14.6 2.9 9.5 5.2 18.1 6.8 25.9.8 4 1.4 7.8 1.8 11.5.2 2.5.4 5 .4 7.4 0 10.5 1.4 30.5 2.8 51.5 0 .7.1 1.4.1 2.2.8 11.9 1.6 24 2.1 34.9v.9c.1 1.2-.5 2.3-.4 3.5.1 1.4-.4 2.9-.4 4.2v.4c0 4.4.8 8.4.8 12 0 29.5 1.7 52 1.7 52s-2 13.5-3.6 30v1.2c-1.7 18.1-2.5 39.4 1.1 50.3 7 21.1 9.9 36.5 16.9 38 7 1.4 14.1-9.9 14.1-32.3 0-22.5 0-35.2 9.8-40.8 2.5-1.4 5.5-4.3 8.3-8 1.9-2.5 3.6-5.3 5.2-8.3 2.9-5.4 5-11.3 5.5-16.9.1-1.2 0-2.4 0-3.5-.2-3.6-1.1-7-3.5-9.6-11.2-12.7-15.5-11.3-14.1-38 .6-10.8.7-17.2 1.2-22.6.1-1.2.2-2.3.4-3.5.1-.4.1-.8.2-1.2 0-.2.1-.5.1-.7 1-5.5 2.7-11.1 6.5-21.3 1.1-2.9 2-6.1 2.7-9.6v-.3c.4-2.1.7-4.3 1-6.6.1-.9.3-1.7.4-2.6.4-3.5.7-7.1.9-10.8.1-2.8.2-5.6.3-8.5.3-19.4-1.6-41-3.9-60.1-.6-4.9-1.3-9.2-2-13.3-.1-.6-.2-1.1-.3-1.7-4-22.1-8.7-31.2-7.5-44.1 1.4-15.5 22.5-154.6 12.7-187v-.1c2.2-4.7 6.4-14.1 7.6-20.1 6.9-1.2 14.5-2.8 23.4-5.1 64.7-16.9 130.8-42.2 161.7-53.4 30.9-11.2 49.2-19.7 71.7-19.7s47.8-8.4 75.9-18.3c28.1-9.9 36.6-21.1 77.3-23.9 24.2-1.7 54.4-1.4 76.9-3.5 12.8-1.2 23.2-3.2 28.6-6.8 1.1-.7 2.1-1.5 2.7-2.4 5.8-7.5 20.3-15.9 29.9-24.4 6.7-6 11-12.1 8.1-17.8zm-688 49.2c-3.7-2.8-3.7-3.7-3.7-8.4s2.8-16.9 2.8-31.9-9.4-19.7-9.4-19.7 14-33.8 23.4-31.9c9.4 1.9 30.9 4.7 64.7-.9 8.3-1.4 20-2.7 33.5-3.9-3.5 4.3-11 13-18.5 19.9-10.3 9.4-15 33.7-15.9 36.6-.9 2.8-33.7 25.3-34.7 34.7-.9 9.4-2.8 12.2-6.6 13.1-3.7.8-31.8-4.8-35.6-7.6z"/><path fill="#97A822" d="M371.6 666.3l-9.7-19.6-9.7 19.6-21.7 3.2 15.7 15.3-3.7 21.6 19.4-10.2 19.4 10.2-3.7-21.6 15.7-15.3z"/><path fill="#D77D31" d="M178.8 658.8l-24.3-3.5-10.8-22-10.9 22-24.2 3.5 17.5 17.1L122 700l21.7-11.4 21.6 11.4-4.1-24.1z"/><path fill="#D8505C" d="M200.8 588.1l12.5-6.6 12.4 6.6-2.3-14 10.1-9.8-14-2-6.2-12.7-6.3 12.7-14 2 10.2 9.8zM248.1 484l9.4-5 9.5 5-1.8-10.6 7.7-7.5-10.6-1.5-4.8-9.6-4.7 9.6-10.6 1.5 7.7 7.5z"/><path fill="#D77D31" d="M279.5 571l-3.8 22 19.8-10.4 19.8 10.4-3.8-22 16-15.6-22.1-3.2-9.9-20-9.9 20-22.1 3.2z"/><path fill="#97A822" d="M126 538.3l14.5-7.6 14.5 7.6-2.8-16.1 11.8-11.5-16.2-2.3-7.3-14.7-7.3 14.7-16.2 2.3 11.8 11.5z"/></svg>