<svg xmlns:xlink="http://www.w3.org/1999/xlink"  xmlns="http://www.w3.org/2000/svg" width="100" height="100" viewBox="0 0 100 100"><g fill-rule="evenodd" clip-rule="evenodd"><path fill="#F6921E" d="M86.723 41.065c-4.452 6.876-5.656 15.112-16.874 15.392l8.103-10.898c-11.221 2.654-17.833.108-16.057-12.135-4.007 2.806-7.144 6.608-10.675 7.024-3.256.379-6.935-2.877-10.433-4.531-2.669 3.668 2.397 7.671-1.071 12.083-3.564 4.531-8.582-.416-11.697 3.523.684 4.33 8.775 3.464 7.151 9.136-1.067 3.71-3.315 7.077-5.412 11.355 3.211-.339 6.378-.673 9.812-1.033-4.46 7.095-6.75 7.742-19.807 5.386 3.327-5.264 6.419-10.151 9.497-15.009-4.141-3.68-8.489-7.549-12.838-11.414.409-.744.817-1.487 1.23-2.227l17.298-3.836v-18.77c4.906 3.107 9.036 5.14 12.433 8.028 3.047 2.594 4.586 1.985 6.683-.885 2.513-3.441 5.438-6.579 8.185-9.853.706.346 1.412.688 2.11 1.037.93 3.382 2.223 6.712 2.714 10.154 1.085 7.567.899 7.341 8.263 6.598 3.432-.343 6.974.493 11.385.875z"/><path fill="#808184" d="M9.443 73.595c13.031-1.007 27.898-1.441 42.54-3.49C66.615 68.061 80.204 62.244 93.696 54 79.342 73.8 32.19 83.683 9.443 73.595z"/><path fill="#808184" d="M90.466 48.02C69.67 71.246 43.995 81.46 12.677 76.274c28.965-1.155 55.261-9.496 77.789-28.254z"/><path fill="#808184" d="M84.006 42.805c-14.759 24.383-37.283 34.366-64.87 34.79 12.31-2.268 24.219-5.799 35.376-11.642 11.293-5.917 21.031-13.766 29.494-23.148z"/></g></svg>