<svg xmlns:xlink="http://www.w3.org/1999/xlink"  xmlns="http://www.w3.org/2000/svg" viewBox="0 0 1500 1500"><path fill="#1F1E58" d="M637 969.7l.8-2.7c-3.5 49.7-45.6 100.2-109.6 123.2-79.8 28.7-161.2 3.9-182.6-55.4-21.3-59.3 24.7-130.6 104.5-159.3C507.6 854.8 565 862 601 889.8V468.6c48 6.7 84 10.7 108 12.7V479L194 218.5v882.8l515 217.1V598.1c-36-2.7-72-8.2-72-8.2v379.8z"/><path fill="#5CBB51" d="M1295 1101.3V218.5L768 479v3.8c192-.8 312-61.7 312-61.7v522.6c12 56.4-34.4 119.8-108.5 146.5-79.8 28.7-161.4 3.9-182.7-55.4-21.3-59.3 26-130.6 105.8-159.3 56.1-20.2 113.4-13.8 149.4 12.3V547.7c-96 39.8-192 50.8-276 51.7v719l527-217.1z"/><path fill="#1F1E58" d="M158 299.3l-60-23.1v899.9l618.4 161.5L158 1130zM1343 299.3V1130l-558.4 207.6 618.4-161.5V276.2z"/></svg>