<svg xmlns:xlink="http://www.w3.org/1999/xlink"  version="1" xmlns="http://www.w3.org/2000/svg" viewBox="0 0 150 150"><g fill-rule="evenodd" clip-rule="evenodd"><path fill="#F05A31" d="M75.3 54.6c.7 7-13.1 9.6-13.8 2.7-.6-5 5.4-7.4 9.8-6.4 3.1.7 3.9 1.7 4 3.7z"/><path fill="#006871" d="M68.3 111.7c2.5-.5 3.4-3.8 4.4-5.7 8.1-16.1 17.4-32.7 23.6-50.7-.7-.4-1.3-.9-2-1.3-.3.1-.3.3-.7.3-5.4 8.6-9.4 18.6-13.5 28.4-4.1 9.7-9 19.1-11.8 29z"/><path fill="#5B68AF" d="M61.2 62.4c1.2 7.9-13.2 9.7-13.8 3.1-.5-5 5.7-7.1 9.5-6.4 2.7.4 3.9 1.2 4.3 3.3z"/><path fill="#BF4C9B" d="M57.1 77.6c1.3 7.9-13.3 9.7-13.8 3-.4-4.6 4.4-6.7 8.4-6.4 3.4.2 5 1.1 5.4 3.4z"/><path fill="#FFED00" d="M64.2 91.7c.3 6.7-12.8 9.1-13.8 2.7-.9-5.5 5-7.4 9.1-6.8 3.5.7 4.6 2 4.7 4.1z"/><path fill="#006871" d="M40.2 7.6c1.8.8 5.1 0 7.1.7-.5-1.2-2.6-.8-3-2C68.7 8 87.7 18.2 102 33.3c13 13.8 23.3 33.4 24.6 54.7 1.5 23.1-4.5 42.6-16.2 55 .6-2.5 1.6-4.7 2-7.4-1.4.6-3.4 2.1-5.4 1-.8-2.8 1.3-8.7-2-9.8-.3.8-.7 1.3-.7 2.4-9 1.1-10.4 9.6-16.9 13.2-5.1-3.2-7-9.4-9.8-14.9-1.1-.8-3 .1-4.1.3v-2.4c-3.5-.3-4.1-3.5-5.4-6-1.9.1-2.1 1.9-3 3-1.9.1-3.5-.1-5.1-.3-1.1-1.2 1.5-1 1.3-2.4-.7-.1-.7-.9-1.3-1-1.6.4-5.3 2.2-6.4 0 .7-1.8 4.1-1 5.4-1.4-1.4-2.8-6.8-1.5-9.5-3 .5-2.9 5.3-1.4 7.8-2.4-4.7-.8-8.9-3.1-9.8-7.4-.6-2.5 0-5.1-1.4-7.1 5.4 6.4 12.9 10.8 21.3 14.2-.6 2.7-2.8 5.5-2.7 7.8 2-1.7 2.9-4.6 4.1-7.1 7.4 2.7 27.3 5.5 29-4 1.3-7.4-6.1-7.3-9.5-9.8-4.6-3.4-2.9-11 2.4-11.5 7.5-.7 13.2 7.6 19.6 5.7 9.2-14.1-4.9-31.3-13.9-37.8.2-1.3.8-2.1 1-3.4-.8 0-1-.6-1.7-.7-.8.7-1.2 1.7-1.7 2.7C72.4 40 38.7 50.1 37.5 75.2c-.1 2.6 1.1 5.2 0 8.1-1.9.3-.7-.5-1.4-1-1.4-.1-1.8.9-3.4.7-.6-1.5-2.6-1.4-3-3 .6-1.2 1.1-2.5 1.7-3.8 2.1-.1 4.9-1.1 4.4-2.7-2-.4-2.3 1-4 1 .8-4.9-2.9-9.2-8.1-7.1-1.8-.9-2.1-3.3-4.4-3.7-.5-2.1 1.3-4.9-.3-6.1-.6 0-1.1.2-1.4.7-1 1.3 1.1 1.6.7 3.4-1.7 1.1-4.8 1.3-5.7-.7.9-3.8 7.6-1.8 7.4-6.8-1-.9-2.5-.6-3.4.4-.2 1 .9.6.7 1.7-1.3.6-3.2 1-4.4 0 4.3-1.8 6.3-5.8 11.1-7.1v-.7c-1.9-.9-5.9.3-7.4-1-.6-3.2 5.7-2.1 7.4-4.1 2 .6 4 1.1 5.1 2.7 4.4.7 5.5-1.9 7.1-4.1-7.7-3.4-16.2-6.3-24.7-9 4.2-.1 8.1.2 10.8 1.7.7-.3.5-1.5 1.7-1.4 3.9.8 7.6 3.5 10.8 3.7-1.8-2.8-1.2-5.8-2.7-8.1-2.8-4.3-9.6-4.2-13.8-7.1 6.3.5 18.1.7 19.3 5.7.3 1.5-1.5 2.6-.3 4.4 1.3.1 1.3-1.2 2.7-1 2.2 1.4 0 5.3 1 7.4 2.3.2 4 .9 5.7 1.7-.6-1.2-2.9-.8-2.7-2.7 2.2-1.1 4.7 1.2 6.8 2.4 2.4 1.3 4.9 2.6 6.8 4.1 1.4-2.3 2.6.7 4 0-.2-6.7-8-8.6-11.5-13.2.5-.3.7-.9 1-1.3.6-1 2.2 2.2 2.7.3-4.3-3.7-10.1-5.8-15.5-8.4.6-.4 2-.1 2.4-.7-5.2-2.1-11.5-3.1-15.2-6.7 5-3.1 11.3 2.2 15.2 2.4-2.5-1.7-6-2.4-8.8-3.7-.2-1.5 2.2-.5 2.3-1.7-1.9-1.2-4.5-1.8-6.1-3.4 5.7.3 11.1 4.4 15.5 3.7-.1-2-3.8-2.1-3.4-3.5zm61.2 29.8c-.8 1.1.1 2.6-.3 4-1 3.1-9 5.6-3.4 9.1 2.6-1.5 8.5-2.5 7.1-9.1-1.1-1.4-1.9-3.1-3.4-4z"/></g></svg>