<svg xmlns:xlink="http://www.w3.org/1999/xlink"  version="1" xmlns="http://www.w3.org/2000/svg" viewBox="0 0 150 150"><path fill="none" d="M14.7 96.5z"/><path fill="#95594A" d="M14.7 96.5z"/><path fill="#E0C58E" d="M14.7 96.5z"/><path fill="none" d="M85.5 55.6z"/><path fill="#FFF" d="M78.7 141.5l-.2-.3 6.8-4V96.5h.5v41l-.2.1zM50.002 116.651l.201.346-14.512 8.465-.201-.345zM50.4 76h-.5V35.3l-13.4-7.8h.8l.1.1 12.7 7.3 35.3-20.4.2.4v.1L50.4 35.3zM121.2 116.9h-.5V76.2L85.4 55.8l.3-.4 35.2 20.4 20.2-11.6v.5h-.1l-19.8 11.5z"/><path fill="#FFF" d="M85.3 14.7h.4v40.9h-.4zM85.7 137.154l4.85 2.8-.2.347-4.85-2.8zM50.068 34.985l.2.346-31.62 18.232-.2-.347zM50.4 135h-.5v-18L17.2 98.2l.2-.4 32.7 18.9 35.3-20.4.2.4h-.1L50.4 117zM120.7 117.3v-.5l12.8-7.4v.6h-.2z"/><path fill="#045EA6" d="M120.9 35.2L85.5 55.6 120.9 76V35.2z"/><path fill="#BD5227" d="M85.5 55.6z"/><path fill="#09C" d="M120.9 35.2V76l19.9-11.5c-1.7-8.7-5.2-16.7-10.1-23.7l-9.8-5.6z"/><path fill="#5EA8DD" d="M120.9 76v40.9l12.3-7.1c3.9-6.7 6.7-14.1 8-22.1L120.9 76z"/><path fill="#77C9B3" d="M141.3 87.8c.6-3.4.9-6.9.9-10.5 0-4.4-.4-8.6-1.3-12.7l-20 11.4 20.4 11.8z"/><path fill="#09C" d="M130.8 40.8c-1.9-2.7-4-5.3-6.3-7.7l-3.5 2 9.8 5.7z"/><path fill="#4A684F" d="M50.1 76z"/><path fill="#E55325" d="M85.5 96.5v40.9l35.4-20.5-35.4-20.4z"/><path fill="#1F8BCB" d="M120.9 76L85.5 96.5l35.4 20.4V76z"/><path fill="#FFCD06" d="M50.1 76L16.5 95.5c.3.9.5 1.7.8 2.5l32.8 18.9V76z"/><path fill="#59766B" d="M50.1 76v.1-.1z"/><path fill="#FAAB19" d="M85.5 137.4L50.1 117v18c8.4 4.1 17.9 6.4 27.9 6.4h.6l6.9-4z"/><path fill="#ED7F23" d="M85.5 137.4V96.5l-35.4 20.4z"/><path fill="#CADB2A" d="M17.3 98c3.6 10.6 10 20 18.3 27.3l14.5-8.4L17.3 98z"/><path fill="#CCCB31" d="M35.6 125.3c4.4 3.9 9.2 7.1 14.5 9.7v-18.1l-14.5 8.4z"/><path fill="#CA992C" d="M120.9 116.7l-.4.1-35.2 20.4.3.4.2-.1 4.3 2.8c11.6-2.3 24.3-8 31.2-15.6l-.4-8z"/><path fill="#F6EC13" d="M126 119.8l-5-2.9v8c1.7-1.6 3.4-3.3 5-5.1z"/><path fill="#71C8F1" d="M126 119.8c2.7-3.1 5.2-6.4 7.3-10l-12.3 7.1 5 2.9z"/><path fill="#CBCB2C" d="M85.5 137.4l-6.9 4c2.3 0 4.7-.2 6.9-.4v-3.6z"/><path fill="#CB9832" d="M85.5 137.4v3.6c1.6-.2 3.3-.4 4.9-.8l-4.9-2.8z"/><path fill="#C3D938" d="M87.2 13.8l-4-.4c-1.7-.1-3.4-.2-5.2-.2-10 0-19.4 2.3-27.9 6.4v15.7l37.1-21.5z"/><path fill="#295B98" d="M120.9 35.2L85.5 14.7v40.9z"/><path fill="#385E54" d="M120.9 35.2L85.5 55.6l35.4-20.4zM85.5 55.6z"/><path fill="#066" d="M120.9 35.2v-5.5c-9.2-8.3-20.9-14-33.8-15.8l-1.6.9 35.4 20.4z"/><path fill="#521010" d="M120.9 35.2z"/><path fill="#7A7953" d="M50.1 76.1V76z"/><path fill="#DEE21D" d="M50.1 35.2l35.4 20.4V14.7z"/><path fill="#4A684F" d="M85.5 55.6z"/><linearGradient id="a" gradientUnits="userSpaceOnUse" x1="81.756" y1="22.068" x2="85.797" y2="57.932"><stop offset="0" stop-color="#8d2326"/><stop offset="1" stop-color="#6c1a1d"/></linearGradient><path fill="url(#a)" d="M85.5 55.6z"/><path fill="#52BA65" d="M50.1 19.5c-4.6 2.2-8.9 5-12.9 8.2l12.9 7.4V19.5z"/><path fill="#6CBE45" d="M37.3 27.7C29 34.5 22.5 43.4 18.5 53.4l31.7-18.3-12.9-7.4z"/><path fill="#21A349" d="M16.5 95.4L50.1 76l-33-19c-1.1 3.2-1.9 6.5-2.4 9.9-1.7 11.3.7 26 1.8 28.5z"/><path fill="#79B542" d="M50.1 35.2L18.5 53.4c-.5 1.2-.9 2.4-1.3 3.6l33 19V35.2h-.1z"/><path fill="#5B2B2E" d="M50.1 76.1V76z"/><path fill="#099" d="M120.9 29.6v5.5l3.5-2c-1-1.2-2.2-2.4-3.5-3.5z"/><path fill="#B54C26" d="M120.9 35.2h.1-.1z"/><path fill="#079948" d="M121 35.2l3.5-2.1-3.6 2.1z"/></svg>