<svg xmlns:xlink="http://www.w3.org/1999/xlink"  xmlns="http://www.w3.org/2000/svg" viewBox="0 0 1500 1500"><path fill="#D14F53" d="M397.5 1303.5c74.5-93.5 139.5-176 187.3-236.9l-85-434.8-237.3 46.4L416 1463.4l237.3-46.4-59.5-304.3-98 127.4c0 .1-58.4 25.1-98.3 63.4z"/><path fill="#FFAD26" d="M807.5 950.1c-38.1 14.1-79.7 21.8-106.8 23.6L594 1112.5l35.4 181.2 237.3-46.4-20.1-103-1.1.2-38-194.4zM779.1 804.5l-3.4-17.4c-42.3 60.2-86.2 118.6-114.8 151-19.9-53.3-62.6-198.9 19.1-289 0 0-35.9 66.3-32.6 133 13.3-56.7 25-121.6 80-161.6 4.7-3.4 9.2-6.8 13.7-10.2l-28.9-148L476 508.4l109 557.9c52.5-67 84.1-107.7 84.1-107.7s52.9-71.2 110-154.1z"/><path fill="#4EBFE7" d="M987.4 697.1c-21.7 43.3-75 121.6-118.3 126.6 35 1.7 58.3-15 88.3-50 13.9-16.2 29.5-40.1 47.1-60.2l-7.4-37.8c-2.9 6.8-6 13.9-9.7 21.4zM942.4 708.7s33.4-26.7 45-55c1.1-2.6 2.5-5.1 3.9-7.6l-3.7-19.1c-11.7 31.1-23.5 58.6-45.2 81.7z"/><path fill="#4EBFE7" d="M1039 873.7l-3.1.6-29-148.1c-10.8 12.4-22.8 28-36.3 47.5-70 101.6-85 135-166.6 141.6 23.3 11.7 58.3-3.3 85-20-15.1 23.8-46.8 41.9-81.5 54.7l38 194.4 1.1-.2 236.2-46.2-43.8-224.3zM902.4 607.1c19.1-38.9 39.3-78.1 59-114.2l-2-10.1c-27.8 47.9-51.6 96.1-77 140.9-22.2 39.1-63.6 102.2-106.7 163.4l3.4 17.4c47.7-69.2 98.3-146.6 123.3-197.4zM822.4 523.8c0 33.3-15 46.7-35 70-20 23.3-28.3 55-26.7 70 6.7-26.6 20-53.3 55-83.3s60-51.6 61.7-85c1.3-26 20.9-70.2 63.5-107.4l-14.6-74.7L692 359.2l20.1 103 28.9 148c47.9-35.9 81.4-68.2 81.4-86.4z"/><path fill="#5DB65F" d="M1037.8 369c6.3-7.4 12.7-14.7 19.5-21.9-5.8 5.4-12.4 12.8-19.5 21.9z"/><path fill="#5DB65F" d="M982.4 358.8c71.6-40 116.6-86.6 118.3-113.3 0 0 6.7 120-26.7 158.3 25-13.3 33.3-60 33.3-60s-1.6 90-41.7 141.6c-40 51.7-51.7 53.3-68.3 93.3 11.7-20 31.7-31.7 58.3-51.7-28.3 26.7-45 38.3-60 78.3-2.8 7.4-5.4 14.6-8.1 21.6l3.7 19.1c13.8-24.2 42.2-41.2 69.4-45.7-41.4 16.6-49.7 42.3-63.6 75.3l7.4 37.8c20.5-23.5 43.6-41.8 69.6-36.4 0 0-21.8-3.2-67.1 49.2l29 148.1 3.1-.6 234.2-45.8-153.4-785.2-237.4 46.4 43.9 224.3 14.6 74.7c12-10.5 25.7-20.5 41.5-29.3z"/><path fill="#5DB65F" d="M1037.8 369c-31 36.4-56 75-78.5 113.8l2 10.1c27.9-51 54.8-95.7 76.5-123.9z"/></svg>