<svg xmlns:xlink="http://www.w3.org/1999/xlink"  xmlns="http://www.w3.org/2000/svg" width="100" height="100" viewBox="0 0 100 100"><path fill="#807E32" d="M17.869 32.263s-2.023 22.95 23.292 39.528c0 0-21.164-.815-31.449-18.128 0 0 4.238 4.647 7.102 4.242 0 0-4.736-15.84 1.055-25.642z"/><path fill="#078143" d="M41.204 15.17S23.37 29.759 29.195 59.45c0 0-14.195-15.71-9.002-35.166 0 0-.366 6.287 1.924 8.045-.001 0 8.028-14.456 19.087-17.159z"/><path fill="#2F3383" d="M70.173 20.148s-22.879-2.61-40.1 22.269c0 0 1.354-21.128 18.921-30.974 0 0-4.76 4.123-4.423 6.995.001 0 15.958-4.337 25.602 1.71z"/><path fill="#118BC7" d="M86.52 43.068S71.755 25.379 42.13 31.505c0 0 15.559-14.354 35.068-9.359 0 0-6.289-.297-8.032 2.012 0 0 14.541 7.877 17.354 18.91z"/><path fill="#D5127C" d="M82.068 71.641S84.4 48.724 59.307 31.809c0 0 21.15 1.095 31.202 18.548 0 0-4.176-4.712-7.046-4.341.001 0 4.533 15.904-1.395 25.625z"/><path fill="#813C66" d="M58.025 88.57s18.057-14.308 12.689-44.082c0 0 13.951 15.922 8.46 35.294 0 0 .461-6.279-1.8-8.075.001 0-8.247 14.336-19.349 16.863z"/><path fill="#B52328" d="M29.835 83.649s22.884 2.66 40.147-22.19c0 0-1.396 21.127-18.983 30.941 0 0 4.774-4.124 4.438-6.988 0 0-15.967 4.299-25.602-1.763z"/><path fill="#D0AE2B" d="M13.256 60.637s14.655 17.778 44.323 11.83c0 0-15.644 14.262-35.125 9.148 0 0 6.294.338 8.033-1.956 0 0-14.48-7.963-17.231-19.022z"/></svg>