<svg xmlns:xlink="http://www.w3.org/1999/xlink"  version="1" xmlns="http://www.w3.org/2000/svg" viewBox="0 0 150 150"><path fill="none" d="M38.5 110.6c14.8 7.6 27.9 9 39.1 7L53.2 99.9l-14.7 10.7zM49.9 47.4c-20.5 5.2-35 19.6-36.5 21.2H43l6.9-21.2zM96.4 68.5L69.7 87.9l9.5 29.4c28.8-6.1 44.6-34.6 44.6-34.6-23.5-33-47.9-39.5-67.7-36.5l7.3 22.4h33z"/><path fill="#D66227" d="M53.2 99.9l24.4 17.7c.6-.1 1.1-.2 1.7-.3l-9.5-29.4 26.7-19.4h-33l-7.3-22.4c-2.1.3-4.2.7-6.2 1.3l-7 21.1H13.3l-.1.1s0-.1.1-.1H10l26.7 19.4-5.9 18.2c2.6 1.7 5.2 3.1 7.7 4.4l14.7-10.6z"/><path fill="#0081C6" d="M116.2 54.9s4.1.4 19.5 5.5c0 0-84.3-61.1-122.4 8.1 0 .1-.1.1-.1.1s0-.1.1-.1c1.5-1.5 16-15.9 36.5-21.2 2-.5 4.1-.9 6.2-1.3 19.8-3 44.2 3.6 67.7 36.5 0 0-15.7 28.5-44.6 34.6-.5.1-1.1.2-1.7.3-11.2 2-24.2.6-39.1-7-2.5-1.3-5.1-2.8-7.7-4.4-.9-.6-1.9-1.2-2.8-1.9 0 0 .9.9 2.7 2.3 1.6 1.3 3.8 3 6.7 4.8 17 11 54.9 26 92.9-24l14.4-3.7c0 .4-9.4-15.7-28.3-28.6z"/></svg>