<svg xmlns:xlink="http://www.w3.org/1999/xlink"  version="1" xmlns="http://www.w3.org/2000/svg" viewBox="0 0 150 150"><path fill="none" d="M76.2 81.1c-6.3 4-8.1 12.4-4.1 18.6 4 6.3 12.4 8.1 18.6 4.1 6.3-4 8.1-12.4 4.1-18.6-4-6.3-12.4-8.1-18.6-4.1zm13.6 21.4c-5.5 3.5-12.9 1.9-16.4-3.6-3.5-5.6-1.9-12.9 3.6-16.5 5.5-3.5 12.9-1.9 16.4 3.6 3.6 5.6 2 12.9-3.6 16.5z"/><path fill="#CE9868" d="M35.4 20.5l3.2 5 7.8-5 .1.1.1-.1-6.7-3.7-4.5 3.7z"/><path fill="#FAB77C" d="M30.8 30.8zM35.4 20.5l-5.1 2.4-.8-11.7 1.3 19.3 7.8-5z"/><path fill="#231F20" d="M35.4 20.5l4.4-3.7-10.3-5.6.8 11.7z"/><path fill="#1E1B1C" d="M77 82.4c-5.5 3.5-7.1 10.9-3.6 16.4 3.5 5.5 10.9 7.1 16.4 3.6 5.5-3.5 7.1-10.9 3.6-16.4-3.5-5.5-10.8-7.1-16.4-3.6z"/><path fill="#1E1B1C" d="M121.3 94.5c-8.5-13.3-18.8-9.8-23.1-16.5-4.3-6.6-2.1-8.1-4.9-12.5-5.1-7.9-14.2-6.6-20.7-4.2l-.4-.5-25.8-40.2-.1-.1-7.8 5-7.8 5-.1.1.1.1v.1l26.4 39.6.5.7c-4.7 5-9.2 12.4-4.3 20 2.8 4.4 5.1 3 9.3 9.7 4.3 6.6-3.2 14.5 5.4 27.8 8.5 13.3 24.5 18.7 42.2 7.3 17.8-11.4 19.6-28.2 11.1-41.4zm-30.6 9.3c-6.3 4-14.6 2.2-18.6-4.1-4-6.3-2.2-14.6 4.1-18.6 6.3-4 14.6-2.2 18.6 4.1 4 6.2 2.2 14.6-4.1 18.6z"/></svg>