<svg xmlns:xlink="http://www.w3.org/1999/xlink"  xmlns="http://www.w3.org/2000/svg" width="100" height="100" viewBox="0 0 100 100"><path fill="#26A9E0" d="M7.005 32.791l6.519-2.92 21.218 20.205-4.234-27.793L57.987 9.996l-.017-.009H7.005z"/><path fill="#D6DE23" d="M61.726 9.987L39.054 20.136a30.606 30.606 0 0 0-.292 4.211c0 19.331 17.069 35.01 38.124 35.01 5.099 0 9.955-.921 14.401-2.594V9.987H61.726z"/><path fill="#006838" d="M78.036 61.754c-6.529 0-12.711-1.376-18.225-3.834L42.782 85.071l5.631 8.041h42.874V59.771a45.003 45.003 0 0 1-13.251 1.983z"/><path fill="#EC1C24" d="M20.104 55.208L7.005 77.021v16.091h38.871z"/><path fill="#A6A8AB" d="M58.115 57.128c-8.859-4.238-15.754-11.454-19.1-20.208h-4.441l2.74 18-18.905-18H7.005v26.311h6.21l6.788-11.309 7.687 11.309h26.585l3.84-6.103z"/></svg>