<svg xmlns:xlink="http://www.w3.org/1999/xlink"  xmlns="http://www.w3.org/2000/svg" viewBox="0 0 1500 1500"><path fill="none" d="M802.6 483.3L773.8 595c7.5 2.8 14.5 5.7 21 8.8 8.7-41 17.8-83.9 27-126.9-6.3 2.4-12.7 4.5-19.2 6.4zM857 295.8l.1-.4c-2 3.5-4 7.1-5.9 10.7-11.4 26.6-17.7 49.8-19.1 69.7 3.7-.3 7.7-1 12.1-2 6.8-31 13.4-61 19.7-89.3-2.4 3.8-4.7 7.5-6.9 11.3zM755.4 909.6c-2.7.8-5.3 1.5-8.1 2.1-8 36-42 233.5-44.5 248.1 6.1 4.2 16.5 15.4 32.9 11.2 12.7-37 48.2-236.8 46.3-250.5-13.9-2.7-21.8-7.5-26.6-10.9z"/><path fill="none" d="M633 1252.4c13.1-21.4 26.2 6.2 23.5 29-2.8 22.8-2.1 55.2 18.6 55.2 20.7 0 17.3-24.8 17.3-49.7 0-24.8 29.6-29.7 31-18.6 1.4 11 19.3 23.5 35.9.7 15.3-21.1-8.3-91.1-12-101.5-.2.2-.3.4-.5.5.1 14.5 7 60.8-3.2 74.7-10.7 14.5-28.2-20.6-34.3-35.1-6.1-14.5-21.4 8.4-20.6 28.2.8 19.9-6.9 39.7-16 38.2-9.2-1.5-5.3-25.9 1.5-48.1 6.8-22.1-19.1 2.3-18.3-18.3.8-20.6 46.1-48.3 46.1-48.3-93.8 39.9-82.1 114.5-69 93.1zM927.8 334.5c18.3-11.9 34.8-25.1 49.5-39.5 14.7-14.4 25.7-29.2 33.1-44.2 3.4-6.8 5.8-13.4 7.4-19.9 3.7-9.8 4.3-18.4 1.8-25.8-2.6-7.4-7.8-13-15.7-16.9-9.5-4.7-20.1-5.6-31.9-2.7-4.8 1.2-9.8 3-15 5.4-.1 0-.2.1-.2.1-.8.4-1.7.8-2.6 1.3-.5.3-1 .5-1.5.8-.6.3-1.2.6-1.8 1-1.2.7-2.4 1.3-3.6 2.1-.9.6-1.7 1.2-2.6 1.7-6.2 37.8-14.3 86.5-23.2 140.5 2.2-1.3 4.2-2.6 6.3-3.9zM725.4 874.3c3.5-8.6 11.2-5.8 13.7-4.6 2.1-9.9 17.8-86.1 39-187.2-9.2-5.4-17.8-8.9-24.5-11.1L693.8 894c12.5.9 24.3-.2 35.4-3.2-3.8-3.7-6.6-9.2-3.8-16.5zM530.8 644.6c-8.8 19.3-13.9 39.7-15.4 61.2-1.4 21.5 1.5 43.2 8.9 65 15.1 44.2 45.7 78.6 91.9 103.1 16.4 6.9 35 12.5 55.7 16.9l60.1-224c-18.1-3.4-37.7-.7-58.4 8.1-20.9 8.8-35.7 22.2-44.7 40.5-5.7 11.6-8.2 26.3-7.5 44.2.8 17.8 7.1 33.6 18.9 47.4 4.2 3.5 5.5 7.1 3.7 10.8-.7 1.5-3.4 1.7-7.8.7-20.9-17.8-34.1-40-39.7-66.4-5.6-26.5-2.6-52.4 9.2-77.7 14.1-26.3 34.5-47.1 61.1-62.6 26.7-15.4 54.7-22 84-19.8l28.1-101.6c-56.8 13.4-106.8 32-150 55.9-43.4 23.5-76 56.4-98.1 98.3z"/><path fill="#7B5453" d="M748.9 906.1c-.2.1-.8 2.1-1.6 5.6 2.7-.6 5.4-1.3 8.1-2.1-3.5-2.4-5.3-4.1-6.5-3.5z"/><path fill="#7B5453" d="M1049.6 115.6c-1.5-7.4-3-13-4.4-16.7-1.4-3.7-3.8-6.3-7.1-7.9-4.6-2.3-14.7-1.9-30.2 1.1-14.2 2.6-28.8 8.6-44 18.1-.1.1-.2.2-.4.2-.9.6-1.8 1.2-2.8 1.8-.7.5-1.4.9-2.1 1.4-1.5 1-3.1 2.1-4.6 3.2-12.6 9-24.9 19.8-36.8 32.5-4.7 5-9.4 10.3-14 15.9-1.1 1.4-2.3 2.8-3.4 4.2-4.7 5.9-9.3 12-13.8 18.4v-.1c-12.1 17.1-23.4 35.9-33.9 56.4-20.3 44.3-34.9 90.5-44.1 138.6-39.8 13.7-71.8 25.3-96.3 34.8-24.4 9.6-49.3 21.3-74.7 35.4-25.4 14-48.7 30.9-69.9 50.6-21.2 19.7-38.8 42.6-52.9 68.6-13.8 28.7-22 58.9-24.4 90.6-2.5 31.7.7 62.7 9.6 92.9 8.9 30.2 23 57.3 42.6 81.5 19.5 24.2 43.5 43.2 71.9 57.2 17 8.4 34.2 14.4 51.7 18-3.1 12-7 29.3-11.9 52-4.8 22.7-9.2 40.9-12.9 54.6-3.7 13.7-8.7 26.7-14.7 39.1-9.2 18.7-18.8 32.2-28.8 40.6-7.3 8.2-17.3 14.4-29.9 18.4-12.7 4-26.4 5.5-40.9 4.4-14.6-1.1-27.7-4.6-39.4-10.4-23.3-11.5-36.1-27.7-38.4-48.7l6.1 3c15.9 7.9 31.7 9 47.4 3.4 15.6-5.6 27.3-16 34.8-31.2 5.7-11.7 8.2-23.6 7.6-35.9-.7-12.3-4.2-23.4-10.4-33.4s-14.4-17.5-24.8-22.7c-12.5-5.3-24.9-6.7-37.4-4.3-12.4 2.4-23.8 7.8-34.3 16.2-10.5 8.4-19.2 18.4-26 30.2-12.4 27.9-11.8 55.2 1.7 81.8 13.6 26.6 34.7 47 63.3 61.1 20.3 10 41.3 14.9 62.8 14.4 21.6-.4 41.4-6.2 59.3-17.3 18-11.1 32-26.9 42.1-47.4 6.5-13.2 12-27.5 16.4-42.7 4.4-15.2 9.9-36.2 16.3-62.7s11.8-46.7 16.1-60.4c14.8 1.6 28.9 1.5 42.3-.2 1.3-10.5 2.2-17.7 2.6-20.1-1.7-.8-3.5-2-5.2-3.6-11.1 3-22.9 4.1-35.4 3.2l59.8-222.5c6.7 2.2 15.2 5.8 24.5 11.1 4.6 2.7 9.4 5.8 14.2 9.5 6.1 4.7 12.2 10.3 18.1 16.9 16.7 18.9 31.2 46.2 36.4 85.5-3.6 22.2-6.8 41.5-9.3 57 6.7-8.9 12.6-18.5 17.7-28.9 3.9-7.9 7.2-16 10-24.1 12.4-32.2 23.4-82.4 1.9-127.5-8.2-17.1-21-33.5-40.2-47.9-5.4-4.1-11.3-8-17.8-11.7-4.5-2.6-9.3-5.1-14.3-7.5-6.5-3.1-13.5-6.1-21-8.8l28.8-111.6c6.5-1.9 12.9-4.1 19.2-6.4 7.5-34.8 15-69.5 22.3-103.1-4.3 1-8.4 1.7-12.1 2 1.4-19.9 7.7-43.1 19.1-69.7 1.9-3.6 3.9-7.2 5.9-10.7l-.1.4c2.2-3.8 4.5-7.5 6.8-11.3 6-9.5 12.5-18.7 19.5-27.7 3.6-4.6 7.3-9.1 11.2-13.5 2-2.3 4-4.5 6-6.7 14.4-15.6 29.1-28.5 44.2-38.9.9-.6 1.7-1.2 2.6-1.7l3.6-2.1c.6-.3 1.2-.6 1.8-1 .5-.3 1-.5 1.5-.8.9-.4 1.7-.9 2.6-1.3.1 0 .2-.1.2-.1 5.2-2.4 10.2-4.2 15-5.4 11.7-2.9 22.4-2 31.9 2.7 7.9 3.9 13.1 9.5 15.7 16.9 2.6 7.4 2 16-1.8 25.8-1.6 6.5-4.1 13.2-7.4 19.9-7.4 15-18.5 29.8-33.1 44.2-14.7 14.4-31.2 27.6-49.5 39.5-2.1 1.3-4.1 2.6-6.2 3.9-4.8 29.5-10 60.5-15.2 92.3 20.5-15.3 39.3-32.6 56.4-52 21.7-24.8 39.8-51.8 54.3-81.1 30.5-61.9 41.4-122.6 32.4-181.7zm-299 476.1c-29.3-2.3-57.4 4.4-84 19.8-26.6 15.5-47 36.3-61.1 62.6-11.7 25.3-14.8 51.2-9.2 77.7 5.6 26.5 18.8 48.6 39.7 66.4 4.5 1 7.1.8 7.8-.7 1.8-3.7.5-7.3-3.7-10.8-11.8-13.8-18.1-29.6-18.9-47.4-.7-17.8 1.8-32.5 7.5-44.2 9-18.2 23.9-31.7 44.7-40.5 20.8-8.8 40.3-11.4 58.4-8.1l-60.1 224c-20.7-4.4-39.3-10-55.7-16.9-46.2-24.5-76.8-58.9-91.9-103.1-7.4-21.8-10.3-43.5-8.9-65 1.5-21.5 6.6-41.9 15.4-61.2 22-41.9 54.7-74.8 97.8-98.6 43.2-23.8 93.2-42.4 150-55.9l-27.8 101.9z"/><path fill="#B6A587" d="M944.8 197.8c-15.1 10.3-29.8 23.3-44.2 38.9-19.7 103.5-48.7 255.2-73.8 386.3 19.2 14.4 32 30.8 40.2 47.9 12.3-74.8 26.2-159.7 39.4-240.2 5.2-31.7 10.3-62.8 15.2-92.3 8.9-54.1 16.9-102.8 23.2-140.6zM739.9 870.2c4.8 3.2 9.4 5.9 13.9 8.4 1.9-9.2 17.5-85.2 38.5-186.5-4.8-3.7-9.6-6.8-14.2-9.5-21.2 101.1-37 177.3-39 187.2.5.2.8.4.8.4zM810.4 709C791.8 805.8 778 878.3 776 888.5c19.6 6.8 36.1 7.2 49.9 5.2 3-.6 4.7-1.1 4.7-1.1s2.5-15.1 6.7-41.2c2.5-15.4 5.7-34.7 9.3-57-5-39.3-19.5-66.6-36.2-85.4zM883.4 256.9c-7 9-13.5 18.2-19.5 27.7-6.3 28.2-12.9 58.3-19.7 89.3-7.3 33.6-14.9 68.3-22.3 103.1-9.2 42.9-18.4 85.9-27 126.9 5 2.4 9.8 4.9 14.3 7.5 24.4-118.3 52.5-253.1 74.2-354.5zM899.8 169.4c1.1-1.4 2.3-2.8 3.4-4.2 8.6-39 14.3-63.3 15.5-64.7 6.8-8.5 8.5-6.8 5.1 13.6-.4 2.4-2.7 15-6.6 35.3 12-12.7 24.3-23.6 36.8-32.5 1.5-1.1 3.1-2.1 4.6-3.2 3.2-38-26.1-66.2-46.7-22.7-4.3 9.1-13.6 45-25.9 96.7v.1c4.5-6.3 9.1-12.5 13.8-18.4z"/><path fill="#FFF" d="M918.7 100.5c-1.2 1.5-6.9 25.7-15.5 64.7 4.6-5.6 9.3-10.9 14-15.9 3.8-20.3 6.2-32.9 6.6-35.3 3.4-20.3 1.7-22-5.1-13.5zM776 888.5c2-10.2 15.8-82.7 34.4-179.5-5.9-6.6-12-12.2-18.1-16.9-20.9 101.3-36.6 177.3-38.5 186.5 7.8 4.2 15.2 7.5 22.2 9.9zM900.6 236.7c-2 2.2-4 4.4-6 6.7-3.9 4.4-7.6 8.9-11.2 13.5-21.7 101.4-49.8 236.2-74.3 354.4 6.5 3.7 12.4 7.6 17.8 11.7 25-131.1 54-282.8 73.7-386.3z"/><path fill="#848688" d="M776 888.5c-7-2.4-14.4-5.7-22.2-9.9-4.5-2.5-9.1-5.2-13.9-8.4 0 0-.3-.2-.8-.4-2.5-1.2-10.2-4.1-13.7 4.6-2.9 7.2 0 12.8 3.8 16.4 1.7 1.6 3.5 2.8 5.2 3.6-.4 2.4-1.3 9.6-2.6 20.1-7.5 60.4-27.4 231.5-29 245.3-.3-.2-.5-.4-.8-.5 0 0-45.4 27.7-46.1 48.3-.8 20.6 25.2-3.8 18.3 18.3-6.9 22.1-10.7 46.6-1.5 48.1s16.8-18.3 16-38.2c-.8-19.8 14.5-42.7 20.6-28.2 6.1 14.5 23.7 49.6 34.3 35.1 10.2-13.9 3.3-60.2 3.2-74.7l.5-.5c-.3-.8-.5-1.3-.5-1.3.2.4.4.7.6 1.1.5-.6 1-1.1 1.4-1.8 4.8-6.9 61.4-204.2 75.2-246.3 10.3-3.4 20.7-24.1 6.2-26.2-1.4.3-2.9.5-4.4.7-13.7 2-30.2 1.6-49.8-5.2zM735.7 1171c-16.4 4.2-26.8-7.1-32.9-11.2 2.5-14.6 36.5-212 44.5-248.1.8-3.5 1.3-5.5 1.6-5.6 1.2-.6 3 1.1 6.5 3.5 4.8 3.3 12.7 8.2 26.6 10.9 2 13.7-33.6 213.6-46.3 250.5z"/><path fill="#8A7448" d="M612.7 1430c.7-.6 1.4-1.2 2-1.8-.7.6-1.3 1.2-2 1.8zM609.6 1432.6c.9-.7 1.7-1.4 2.5-2.1-.8.7-1.6 1.4-2.5 2.1zM617.6 1425.4c.6-.6 1.2-1.2 1.7-1.8-.6.6-1.1 1.2-1.7 1.8zM675.7 1441.1l-.6.3.6-.3zM619.6 1423.3l1.8-2.1-1.8 2.1zM603.3 1437.2c1-.7 1.9-1.4 2.9-2.1-.9.7-1.9 1.4-2.9 2.1zM606.9 1434.6c.8-.6 1.7-1.3 2.5-1.9-.8.7-1.6 1.3-2.5 1.9zM627.7 1412c.4-.7.7-1.4 1-2.1-.3.7-.6 1.4-1 2.1zM621.7 1420.9c.5-.6 1-1.2 1.4-1.8-.4.6-.9 1.2-1.4 1.8zM628.9 1409.6c.7-1.4 1.2-2.9 1.7-4.3-.5 1.4-1.1 2.9-1.7 4.3zM676.3 1440.8c-.1.1-.2.1-.3.2.1-.1.2-.2.3-.2zM617.1 1425.9l-2.1 2.1c.7-.8 1.5-1.4 2.1-2.1zM626.5 1414.2l1.2-2.1c-.4.6-.8 1.4-1.2 2.1zM623.4 1418.7l1.5-2.1-1.5 2.1zM625 1416.4c.4-.6.8-1.3 1.2-1.9-.3.6-.7 1.3-1.2 1.9zM630.6 1405.1c.5-1.5.9-2.9 1.2-4.4-.3 1.4-.7 2.9-1.2 4.4zM685.3 1435.5c-.1.1-.2.1-.3.2.1 0 .2-.1.3-.2zM686.5 1434.8c-.1.1-.2.1-.3.2 0 0 .2-.1.3-.2zM684.2 1436.2l-.1.1s.1 0 .1-.1zM676.9 1440.4c-.1 0-.1.1-.2.1.1 0 .2 0 .2-.1zM689.7 1432.7c-.2.2-.5.3-.7.5.2-.2.4-.3.7-.5zM692.7 1430.6c-.4.3-.8.5-1.2.8.4-.2.8-.5 1.2-.8zM691.1 1431.8l-.9.6c.3-.3.6-.4.9-.6zM688.4 1433.6c-.3.2-.5.3-.7.5.2-.2.4-.4.7-.5zM679.7 1438.9zM680.6 1438.4c-.1 0-.1.1 0 0-.1.1-.1 0 0 0zM677.5 1440.1c0 .1 0 .1 0 0 0 .1 0 .1 0 0zM747.3 1167.4c3.6 10.4 27.3 80.4 12 101.5-16.6 22.8-34.5 10.3-35.9-.7-1.4-11-31-6.2-31 18.6s3.4 49.7-17.3 49.7-21.4-32.4-18.6-55.2c2.8-22.8-10.4-50.4-23.5-29s-24.8-53.1 69-93.1c0 0-79.3 11-94.5 98.6-11.4 65.7 31.9 105.8 24.4 142.6 4.4-21.3-8.2-43.6-17.4-71.3 1.6 1 3.4 1.5 5.8 1.5 7.5-.2 5.8-4.2 9.3-8.4 3.5-4.2 2.4-8 7.3-1.8 3.1 3.8 2.4 11.8 2.7 16.4.5 8.7-.1 23.9 9.2 29.8 16.6 10.5 45.5-4.2 49.6-20.4 2.6-10 .4-17.5 9.4-24.7 11.2-9 15.6-1.5 19.1 9.1 3.4 10.1 9.9 17.5 22.1 14.5 10.5-2.6 15.3-12 23.2-17.8.1-.1.2-.1.3-.2-16.5 51.7-55.5 86.4-79.6 103.3 43.8-30.5 136.8-120 54.6-263.3-.2-.4-.4-.7-.6-1.1-.1.1.1.6.4 1.4z"/><path fill="#D14F53" d="M772.5 1327.3c-.1.1-.2.1-.3.2-7.9 5.8-12.7 15.1-23.2 17.8-12.2 3-18.7-4.4-22.1-14.5-3.6-10.5-7.9-18-19.1-9.1-9 7.2-6.8 14.7-9.4 24.7-4.1 16.2-33 30.8-49.6 20.4-9.3-5.9-8.7-21.1-9.2-29.8-.3-4.6.3-12.5-2.7-16.4-5-6.2-3.9-2.4-7.3 1.8-3.5 4.2-1.7 8.1-9.3 8.4-2.3.1-4.1-.5-5.8-1.5 9.2 27.7 21.8 50 17.4 71.3v.1c-.3 1.5-.7 3-1.2 4.4 0 .1-.1.2-.1.2-.5 1.4-1 2.9-1.7 4.3 0 .1-.1.2-.1.3-.3.7-.7 1.4-1 2.1l-1.2 2.1c-.1.1-.1.2-.2.3-.4.6-.8 1.3-1.2 1.9-.1.1-.1.2-.1.2l-1.5 2.1c-.1.1-.2.2-.3.4-.5.6-.9 1.2-1.4 1.8l-.3.3-1.8 2.1-.3.3c-.6.6-1.1 1.2-1.7 1.8l-.4.4-2.1 2.1-.3.3c-.7.6-1.3 1.2-2 1.8-.2.2-.4.3-.6.5-.8.7-1.6 1.4-2.5 2.1l-.2.2c-.8.6-1.6 1.3-2.5 1.9-.2.2-.5.4-.7.5-.9.7-1.9 1.4-2.9 2.1 0 0 35.2 13.1 62.1.7 13.8-4.8 30.4-24.8 34.5-31.7-6.2 15.2-13.8 29-24.8 35.2l.6-.3c.1-.1.2-.1.3-.2.1-.1.2-.1.3-.2.1-.1.3-.1.4-.2.1 0 .1-.1.2-.1.2-.1.3-.2.5-.3.7-.4 1.4-.8 2.2-1.2.3-.1.5-.3.8-.5h.1c1.1-.6 2.3-1.3 3.5-2.1l.1-.1c.3-.2.6-.3.8-.5.1-.1.2-.1.3-.2.3-.2.5-.3.8-.5.1-.1.2-.1.3-.2.4-.2.8-.5 1.2-.8.2-.2.5-.3.7-.5.2-.1.4-.2.6-.4.2-.2.5-.3.7-.5.2-.1.4-.2.5-.4l.9-.6c.1-.1.3-.2.4-.3.4-.3.8-.5 1.2-.8.1 0 .1-.1.2-.1 24-16.7 63-51.4 79.5-103.1z"/></svg>