<svg xmlns:xlink="http://www.w3.org/1999/xlink"  version="1" xmlns="http://www.w3.org/2000/svg" viewBox="0 0 150 150"><g fill-rule="evenodd" clip-rule="evenodd"><path fill="#0A3040" d="M118.6 92.1c.5 1.7 1.1 3.4 1.7 5.1.6 1.7 1.2 3.5 1.7 5.3.6 1.8 1.1 3.6 1.7 5.5.6 1.8 1.2 3.7 1.8 5.5.2.6-.4 1.5-1.1 1.8-6 2.6-11.4 4.9-16.4 6.7-.6.2-1.3 0-1.5-.5l-1.2-4.8c-.4-1.6-.8-3.2-1.2-4.7-.4-1.6-.8-3.1-1.2-4.6-.4-1.5-.8-3.1-1.2-4.5-.1-.5.2-1.1.8-1.5 4.4-2.7 9.3-5.8 14.3-9.3.7-.6 1.6-.6 1.8 0zm11.3 27.7c-.3-.6-.5-1.3-.7-1.9 0 .3-.2.5-.5.7-.5.2-1 .4-1.4.6-.3.1-.5-.1-.6-.3-.2-.7-.6-1.4-.8-2.1-.1-.2.2-.6.5-.7.4-.2.9-.4 1.3-.6.4-.2.7-.1.8.2.3.6.4 1.4.7 2-.9-3.1-1.8-6.1-2.7-9-.9-2.9-1.8-5.8-2.6-8.7-.8-2.8-1.7-5.6-2.5-8.3-.8-2.7-1.7-5.3-2.5-8-6.3 4.9-12 9.1-17.4 12.6-5.3 3.4-10.2 6.3-14.8 8.7-8.4 4.4-15.6 7.6-21.9 9.7-5 1.7-9.4 2.7-13.4 3.3-3.9.6-7.3.8-10.5.6-5.2-.3-9.6-1.6-13.4-3.9-1.6-1-3.1-2.2-4.5-3.7l-1.1-1.1s.1.1.1.2l.1.1v.2H22c-.1-.1-.1-.1-.1-.2l-.1-.1v-.2c-1.2-.5-2.1-1.2-2.6-1.9l.1 1.1c1.2 2.3 2.6 4.5 4 6.4l-.1-.1v-.3c0 .1.1.1.2.2 0 .1.1.1.1.2v.3c0 .1.1.1.1.1v-.2h.1l.1.1.1.1v.3c1.3 1.7 2.7 3.2 4.2 4.6 1.5 1.4 3.1 2.6 4.9 3.8 4 2.6 8.7 4.7 14.3 6.4 3.3 1 7 1.8 11.1 2.4 4.2.6 9 1 14.3.9 6.6-.2 14.2-1.2 23.2-3.1 4.8-1 9.9-2.5 15.6-4.3 5.7-1.9 11.8-4.3 18.4-7.1zm-108.1-7.2v.2c0-.1-.1-.2-.1-.2l-.1-.1v-.2c0 .1.1.1.1.2.1 0 .1.1.1.1zm.4.6v.2h-.1c-.1-.1-.1-.1-.1-.2s-.1-.1-.1-.2v-.2l.1.1c0 .1.1.1.1.2.1 0 .1 0 .1.1zm.3.5v.2h-.1c-.1-.1-.1-.1-.1-.2s-.1-.1-.1-.2v-.2h.1c.1.1.1.1.1.2.1.1.1.2.1.2zm.4.6v.3h-.1c-.1-.1-.1-.1-.1-.2l-.1-.1v-.2h.1c0 .1.1.1.1.2.1-.1.1-.1.1 0zm.4.6v.3h-.1c-.1-.1-.1-.2-.1-.2 0-.1-.1-.1-.1-.2v-.2h.1c0 .1.1.1.1.2 0 0 .1 0 .1.1zm1.1 1.4v.3h-.1c-.1 0-.1-.1-.1-.2l-.1-.1v-.3l.2.2s.1 0 .1.1zm.4.4v.3c-.1-.1-.1-.1-.1-.2-.1 0-.1-.1-.1-.1v-.3c.1 0 .1.1.2.1-.1.1 0 .1 0 .2zm.3.3v.3H25l-.1-.1-.1-.1v-.3h.1l.1.1c.1 0 .1.1.1.1zm.4.4v.3s0 .1 0 0-.1-.1-.2-.2l-.1-.1v-.3l.2.2.1.1zm.4.4v.3l-.2-.2-.1-.1v-.3h.1l.2.2v.1zm.4.4v.3s0 .1-.1 0l-.1-.1c-.1 0-.1-.1-.1-.1v-.3h.1l.2.2c0-.1 0 0 0 0zm.4.4v.3h-.1l-.2-.2-.1-.1v-.3h.1l.2.2.1.1zm.4.4v.3c0 .1 0 0 0 0l-.2-.2-.1-.1v-.4h.1c.1 0 .1.1.2.2v.2zm.4.5v.3h-.1c-.1-.1-.1-.1-.1-.2 0 0-.1-.1-.1-.2v-.3h.1s.1.1.2.1v.3zm.5.4v.3c0 .1 0 .1-.1 0l-.2-.2s-.1-.1-.1-.2v-.3c0-.1 0 0 .1 0s.1.1.2.1c0 .2.1.2.1.3zm.4.4v.4s0 .1-.1 0l-.2-.2-.1-.1v-.3c0-.1 0-.1.1 0l.2.2c.1-.1.1 0 .1 0zm.4.5v.4s0 .1-.1 0l-.2-.2-.1-.1v-.4s0-.1.1 0c0 .1.1.1.2.2.1 0 .1 0 .1.1zm.5.4v.4c0 .1 0 .1-.1 0l-.2-.2-.1-.1v-.4c0-.1 0 0 .1 0l.2.2c.1 0 .1.1.1.1zm.5.4v.4c0 .1 0 .1-.1 0-.1 0-.1-.1-.2-.1l-.1-.1v-.4c0-.1 0-.1.1 0 .1 0 .1.1.2.1l.1.1zm.4.2v.4s0 .1-.1 0c-.1 0-.1-.1-.2-.1l-.1-.1v-.4c0-.1 0-.1.1 0 0 0 .1.1.2.1s.1.1.1.1zm.5.3v.5c-.1-.1-.1-.1-.2-.1l-.1-.1v-.4c0-.1 0-.1.1 0 .1 0 .1.1.2.1-.1-.1 0 0 0 0zm.4.3v.4c0 .1 0 .1-.1.1s-.1-.1-.2-.1-.1-.1-.1-.1v-.4c0-.1 0-.1.1 0 .1 0 .1.1.2.1.1-.1.1-.1.1 0zm.5.3c0 .1.1.3 0 .4 0 .1 0 .1-.1 0-.1 0-.2-.1-.2-.1l-.1-.1v-.4c0-.1 0-.1.1-.1s.1.1.2.1c.1.1.1.2.1.2zm.5.3v.4s0 .1-.1 0c-.1 0-.1-.1-.2-.1s-.1-.1-.1-.1v-.4c0-.1 0-.1.1-.1 0 0 .1.1.2.1.1.1.1.1.1.2zm.5.3v.4c0 .1 0 .1-.1 0-.1 0-.1-.1-.2-.1s-.1-.1-.1-.2c0-.2 0-.3-.1-.4 0-.1 0-.1.1 0 .1 0 .1.1.2.1.2.1.2.1.2.2zm.5.3v.4c0 .1 0 .1-.1.1s-.1-.1-.2-.1l-.1-.1c0-.2 0-.3-.1-.4 0-.1 0-.1.1-.1s.1.1.2.1c.2 0 .2 0 .2.1zm.6.3c0 .2 0 .3.1.4 0 .1 0 .1-.1.1s-.1-.1-.2-.1c0 0-.1-.1-.1-.2v-.4c0-.1 0-.1.1-.1s.1.1.2.1c-.1.1-.1.2 0 .2zm.5.3v.5c0 .1 0 .1-.1 0-.1 0-.1-.1-.2-.1 0 0-.1-.1-.1-.2 0-.2 0-.3-.1-.5 0-.1 0-.1.1-.1s.1.1.2.1c.1.2.2.3.2.3zm.5.4v.5c0 .1 0 .1-.1.1s-.1-.1-.2-.1-.1-.1-.1-.2v-.4c0-.1 0-.1.1-.1 0 0 .1.1.2.1.1-.1.1 0 .1.1zm.6.3c0 .2 0 .3.1.5 0 .1 0 .1-.1.1-.1-.1-.2-.1-.2-.1s-.1-.1-.1-.2v-.5-.1c.1 0 .1.1.2.1 0 .1.1.1.1.2zm.5.3c0 .2 0 .3.1.5 0 .1 0 .1-.1.1-.1-.1-.2-.1-.2-.1s-.1-.1-.1-.2c0-.2 0-.3-.1-.5 0-.1 0-.1.1-.1s.1.1.2.1c.1.1.1.2.1.2zm.6.4c0 .2 0 .3.1.5 0 .1-.1.1-.1 0-.1-.1-.1-.1-.2-.1s-.1-.1-.1-.2v-.5c0-.1 0-.1.1-.1.1.1.1.1.2.1v.3zm.6.3c0 .2.1.3.1.5 0 .1-.1.1-.1.1-.1 0-.1-.1-.2-.1s-.1-.1-.1-.2c0-.2 0-.4-.1-.5 0-.1 0-.1.1-.1.1.1.2.1.2.1.1.1.1.2.1.2zm.6.3c0 .2 0 .3.1.5 0 .1 0 .1-.1.1s-.2-.1-.2-.1c-.1 0-.1-.1-.1-.1v-.5c0-.1 0-.1.1-.1s.1 0 .2.1v.1zm.6.2c0 .2 0 .3.1.5 0 .1 0 .1-.1.1s-.2-.1-.2-.1-.1-.1-.1-.2c0-.2 0-.3-.1-.5 0-.1 0-.1.1-.1s.1.1.2.1c.1.1.1.1.1.2zm.6.2c0 .2 0 .4.1.5 0 .1 0 .1-.1.1s-.1-.1-.2-.1l-.1-.1c0-.2 0-.4-.1-.5 0-.1.1-.1.1-.1.1 0 .1 0 .2.1.1 0 .1 0 .1.1zm.6.2v.6c0 .1 0 .1-.1.1s-.1-.1-.2-.1c0 0-.1-.1-.1-.2 0-.2 0-.4-.1-.5 0-.1 0-.1.1-.1 0 0 .1 0 .2.1.2 0 .2 0 .2.1zm.7.2c0 .2.1.4.1.6 0 .1 0 .1-.1.1s-.2 0-.2-.1c-.1 0-.1-.1-.1-.2 0-.2 0-.4-.1-.6 0-.1 0-.1.1-.1 0 0 .1 0 .2.1 0 .1.1.2.1.2zm.7.3c0 .2 0 .4.1.6 0 .1-.1.1-.1.1-.1 0-.2-.1-.2-.1-.1 0-.1-.1-.1-.2 0-.2-.1-.4-.1-.6 0-.1 0-.1.1-.1s.2 0 .3.1c-.1 0 0 .1 0 .2zm.6.2c0 .2 0 .4.1.6 0 .1 0 .1-.1.1s-.2-.1-.3-.1c-.1 0-.1-.1-.1-.2 0-.2-.1-.4-.1-.6 0-.1 0-.1.1-.1s.2.1.2.1c.1 0 .2.1.2.2zm.7.2c0 .2.1.4.1.6 0 .1 0 .1-.1.1s-.2-.1-.3-.1c-.1 0-.1-.1-.1-.2 0-.2-.1-.4-.1-.6 0-.1 0-.1.1-.1s.2.1.3.1c0 .1.1.1.1.2zm.7.3c0 .2 0 .4.1.6 0 .1 0 .1-.1.1s-.2-.1-.3-.1c0 0-.1-.1-.1-.2 0-.2 0-.4-.1-.6 0-.1 0-.1.1-.1s.2.1.3.1c0 0 .1.1.1.2zm.7.2c0 .2.1.4.1.6 0 .1 0 .1-.1.1s-.2-.1-.3-.1c-.1 0-.1-.1-.1-.2 0-.2 0-.4-.1-.6 0-.1 0-.1.1-.1s.2.1.3.1c0 0 .1.1.1.2zm.7.2c0 .2 0 .4.1.6 0 .1 0 .1-.1.1s-.2-.1-.3-.1c0 0-.1-.1-.1-.2 0-.2-.1-.4-.1-.6 0-.1 0-.1.1-.1s.2.1.3.1c.1.1.1.1.1.2zm.8.3c0 .2 0 .4.1.7 0 .1 0 .1-.1.1s-.2-.1-.3-.1c-.1 0-.1-.1-.2-.2 0-.2 0-.4-.1-.7 0-.1 0-.1.1-.1s.2 0 .3.1c.2 0 .2.1.2.2zm.8.2c0 .2.1.4.1.7 0 .1-.1.1-.1.1-.1 0-.2-.1-.3-.1-.1 0-.2-.1-.2-.2 0-.2 0-.4-.1-.7 0-.1 0-.1.1-.1s.2.1.3.1c.1 0 .2.1.2.2zm.7.3c0 .2 0 .5.1.7 0 .1 0 .1-.1.1s-.2 0-.3-.1c-.1 0-.1-.1-.1-.2 0-.2-.1-.5-.1-.7 0-.1 0-.2.1-.1.1 0 .2.1.3.1 0 0 .1.1.1.2zm.9.2c0 .2.1.5.1.7 0 .1 0 .1-.1.1s-.2-.1-.3-.1c-.1 0-.2-.1-.2-.2 0-.2 0-.5-.1-.7 0-.1 0-.1.1-.1s.2.1.4.1c0 .1 0 .1.1.2zm.8.3c.1.2.1.5.1.7 0 .1 0 .2-.1.1-.1 0-.2-.1-.3-.1 0 0-.1-.1-.1-.2 0-.2-.1-.5-.1-.7 0-.1.1-.1.1-.1.1 0 .2.1.3.1 0 0 .1.1.1.2zm.8.2c0 .3.1.5.1.7 0 .1 0 .2-.1.2s-.2 0-.3-.1c-.1 0-.2-.1-.2-.2 0-.2 0-.5-.1-.7 0-.1 0-.2.1-.2s.2.1.3.1c.2 0 .2.1.2.2zm.9.1c0 .3.1.5.1.8 0 .1 0 .2-.1.2s-.2 0-.3-.1c-.1 0-.2-.1-.2-.2 0-.2-.1-.5-.1-.7 0-.1 0-.2.1-.1.1 0 .2 0 .3.1.1-.2.2-.1.2 0zm.9.2c0 .2.1.5.1.8 0 .1 0 .2-.1.2s-.3-.1-.3-.1c-.1 0-.2-.1-.2-.2 0-.3 0-.5-.1-.8 0-.1.1-.2.1-.2.1 0 .2.1.3.1.1 0 .2.1.2.2zm.9.1c0 .3.1.5.1.8 0 .1 0 .2-.1.2s-.2 0-.3-.1c-.1 0-.2-.1-.2-.2 0-.2-.1-.5-.1-.8 0-.1 0-.2.1-.2s.2 0 .3.1c.1 0 .1.1.2.2zm.9.1c0 .3.1.5.1.8 0 .1 0 .2-.1.2-.2 0-.3-.1-.4-.1 0 0-.1-.1-.1-.2-.1-.3-.1-.5-.1-.8 0-.1 0-.2.1-.2s.3 0 .4.1c0 0 .1.1.1.2zm.9.2c.1.3.1.6.1.8 0 .1 0 .2-.1.2s-.2 0-.3-.1c-.1 0-.2-.1-.2-.2 0-.3-.1-.5-.1-.8 0-.1 0-.2.1-.2s.2 0 .4.1c.1-.1.1.1.1.2zm1 .1c0 .3.1.5.1.8 0 .1 0 .2-.1.2h-.4c-.1 0-.2-.1-.2-.2 0-.3 0-.5-.1-.8 0-.1.1-.2.1-.2h.4c.1 0 .2.1.2.2zm1 .1c0 .3.1.6.1.8 0 .1-.1.2-.1.2h-.4c-.1 0-.2-.1-.2-.2 0-.3-.1-.5-.1-.8 0-.1 0-.2.1-.2h.4c.1 0 .2.1.2.2zm1.1.2c.1.3.1.6.1.9 0 .1 0 .2-.1.2s-.3-.1-.4-.1c-.1 0-.2-.1-.2-.2 0-.3-.1-.6-.1-.9 0-.1 0-.2.1-.2h.4c.1 0 .1.1.2.3zm1 .1c.1.3.1.6.1.9 0 .1 0 .2-.2.2-.1 0-.3 0-.4-.1-.1 0-.2-.1-.2-.2 0-.3 0-.6-.1-.9 0-.1 0-.2.1-.2s.3.1.4.1c.2-.1.3.1.3.2zm1.1.1c.1.3.1.6.1 1 0 .1 0 .2-.1.2h-.4c-.1 0-.2-.2-.2-.3 0-.3-.1-.6-.2-.9 0-.1.1-.2.2-.2h.4c.1 0 .2.1.2.2zm1.1.1c0 .3.1.6.2 1 0 .1 0 .2-.1.2-.2 0-.4-.1-.5-.1-.1 0-.2-.1-.2-.3-.1-.3-.1-.6-.1-.9 0-.1 0-.2.1-.2h.5c0 .1.1.2.1.3zm1.2.2c.1.3.1.6.2 1 0 .1-.1.2-.2.2-.2 0-.3 0-.5-.1-.1 0-.2-.1-.2-.2-.1-.4-.1-.7-.2-1 0-.1.1-.2.2-.2h.4c.2 0 .3.1.3.3zm1.1.1c.1.4.1.7.2 1 0 .1-.1.2-.2.2-.2 0-.3-.1-.4-.1-.1 0-.2-.1-.2-.3 0-.3-.1-.7-.1-1 0-.1.1-.2.2-.2h.4c0 .2.1.2.1.4zm1.2.1c.1.3.1.7.2 1 0 .1 0 .2-.2.2h-.5c-.1 0-.2-.1-.2-.2 0-.4-.1-.7-.2-1 0-.1.1-.2.2-.2h.5c.1 0 .2 0 .2.2zm1.3.1c.1.3.1.7.2 1.1 0 .1 0 .3-.1.3-.2 0-.4-.1-.5-.1-.1 0-.2-.1-.2-.3-.1-.3-.1-.7-.2-1 0-.1 0-.2.2-.2h.5c0-.1.1.1.1.2zm1.3.1c.1.4.1.7.2 1.1 0 .1-.1.2-.2.2h-.5c-.1 0-.3-.2-.3-.3-.1-.4-.1-.7-.2-1.1 0-.1.1-.2.2-.2h.5c.2 0 .3.1.3.3zm1.3-.1c.1.4.1.7.2 1.1 0 .1 0 .3-.2.3h-.5c-.1 0-.2-.1-.2-.2-.1-.4-.1-.7-.2-1.1 0-.2 0-.3.2-.3h.5s.2.1.2.2zm1.4 0c.1.4.1.7.2 1.1 0 .1 0 .3-.1.3h-.6c-.1 0-.2-.1-.2-.3l-.3-1.2c0-.1.1-.2.2-.2h.6s.1.1.2.3zm1.4-.1c.1.4.1.8.2 1.2 0 .2 0 .3-.2.3h-.5c-.1 0-.2-.1-.3-.2-.1-.4-.1-.8-.2-1.1 0-.2.1-.3.2-.3h.5c.2-.2.3 0 .3.1zm1.4-.1c.1.4.2.8.2 1.2 0 .2-.1.3-.2.3h-.6c-.2 0-.2-.1-.3-.2-.1-.4-.1-.8-.2-1.2 0-.2 0-.3.2-.3h.5c.3 0 .4.1.4.2zm1.5-.1c.1.4.1.8.2 1.2 0 .2 0 .3-.2.3h-.6c-.1 0-.3-.1-.3-.3-.1-.4-.1-.8-.2-1.2 0-.2.1-.3.2-.3h.6c.1.1.3.1.3.3zm1.6-.1c.1.4.2.8.3 1.3 0 .2-.1.3-.3.3h-.6c-.2 0-.3-.1-.4-.3-.1-.4-.1-.8-.2-1.2 0-.2 0-.3.2-.3s.4 0 .6-.1c.2 0 .3.1.4.3zm1.5-.2c.1.4.1.8.2 1.3 0 .2-.1.3-.2.3h-.6c-.1 0-.3-.1-.3-.3-.1-.4-.1-.8-.2-1.2-.1-.2.1-.3.1-.4h.7c.2.1.3.1.3.3zm1.6-.2c.1.5.2.9.3 1.3 0 .2-.1.3-.3.3-.2 0-.4.1-.6.1-.2 0-.4-.1-.4-.3-.1-.4-.1-.9-.2-1.3 0-.2 0-.3.2-.3s.4 0 .7-.1c.2 0 .3.2.3.3zm1.8-.2c.1.5.2.9.3 1.3 0 .2-.1.3-.3.3-.2 0-.5 0-.7.1-.1 0-.2-.1-.3-.3-.1-.4-.2-.9-.3-1.3 0-.2.1-.3.2-.3.2 0 .4-.1.6-.1.3 0 .5.2.5.3zm1.8-.2c.1.5.2.9.3 1.4.1.2 0 .3-.2.4-.3 0-.5 0-.7.1-.2 0-.3-.1-.3-.3-.1-.5-.2-.9-.3-1.3 0-.2 0-.3.2-.4.2 0 .4 0 .7-.1.1-.1.3 0 .3.2zm1.8-.3c.2.5.2 1 .3 1.4 0 .2-.1.4-.2.4-.3.1-.5.1-.6.1-.2 0-.3-.1-.4-.3-.1-.5-.2-.9-.3-1.4 0-.2 0-.4.2-.4s.4-.1.7-.1c.1 0 .2.1.3.3zm1.9-.3c.1.5.2 1 .3 1.4 0 .2-.1.3-.2.4-.2 0-.6.1-.8.1-.1 0-.3-.1-.3-.3-.1-.5-.2-.9-.3-1.4 0-.2 0-.3.2-.4.2 0 .6-.1.8-.1.1 0 .2.1.3.3zm2-.3c.1.5.2 1 .3 1.4 0 .2 0 .4-.2.4-.3 0-.5.1-.7.1-.2 0-.4-.1-.4-.3-.1-.5-.2-1-.4-1.5-.1-.2.1-.4.3-.4.2 0 .5-.1.8-.1.1.1.2.2.3.4zm2-.4l.3 1.5c0 .2-.1.4-.2.4-.3.1-.6.1-.8.2-.1 0-.3-.1-.4-.3l-.3-1.5c-.1-.2.1-.4.2-.4.2 0 .5-.1.8-.2.2 0 .3.1.4.3zm2.1-.5c.1.5.2 1 .4 1.6.1.2-.1.4-.3.4-.3.1-.6.1-.8.1-.2 0-.3-.1-.4-.3-.1-.5-.3-1-.4-1.5 0-.2.1-.4.4-.4.2-.1.5-.1.7-.2.2 0 .3.2.4.3zm2.3-.4c.1.5.2 1.1.3 1.6 0 .2-.1.4-.3.5-.3.1-.6.1-.9.2-.2 0-.4-.1-.4-.3-.1-.5-.2-1-.3-1.6 0-.2 0-.4.2-.4.3-.1.6-.1.9-.2.2-.1.5 0 .5.2zm2.3-.6c.1.5.2 1.1.4 1.6.1.2-.1.4-.3.4l-.9.3c-.2 0-.4-.1-.4-.3-.1-.5-.3-1-.4-1.6 0-.2.1-.4.3-.5.2-.1.5-.1.8-.2.2 0 .4.1.5.3zm2.2-.7c.2.6.3 1.1.3 1.7 0 .2 0 .4-.3.5-.3.1-.6.2-.8.2-.2.1-.4-.1-.5-.3-.1-.5-.2-1.1-.4-1.6-.1-.2.1-.4.3-.5.2-.1.6-.2.9-.3.3 0 .5.1.5.3zm2.6-.7c.1.5.3 1.1.4 1.7.1.2-.1.4-.3.5-.3.1-.7.2-1 .3-.2 0-.5-.1-.5-.3-.1-.6-.2-1.2-.4-1.7-.1-.2 0-.5.2-.5.4-.1.7-.1 1.1-.3.2 0 .4.1.5.3zm2.6-.8c.2.6.3 1.1.4 1.7 0 .2-.1.4-.4.5-.3.1-.7.2-1 .3-.2.1-.4-.1-.5-.3-.2-.6-.3-1.2-.5-1.7-.1-.2.2-.5.4-.5l.9-.3c.4 0 .6.1.7.3zm2.6-.9c.1.6.4 1.2.5 1.8 0 .2 0 .5-.2.5-.4.1-.8.2-1.1.3-.2.1-.4 0-.5-.3-.2-.6-.2-1.2-.4-1.8-.1-.2.1-.5.2-.5.4-.1.7-.2 1.1-.4.2.1.3.2.4.4zm2.9-1l.6 1.8c.1.2-.2.5-.5.6-.4.1-.7.2-1 .3-.3.1-.6 0-.6-.3-.2-.6-.4-1.2-.5-1.8-.1-.2.1-.5.4-.6.3-.1.6-.2 1-.4.2.1.5.2.6.4zm2.9-1c0-.2-.2-.4-.6-.3-.4.1-.8.3-1.1.4-.2.1-.5.4-.4.6.2.6.3 1.2.5 1.8.1.3.4.4.7.3.3-.1.7-.2 1.1-.4.2-.1.4-.3.4-.6-.2-.5-.4-1.2-.6-1.8zm3.1-1.1c-.1-.2-.4-.4-.7-.3-.4.2-.6.3-1.1.5-.3.1-.5.4-.4.6.2.6.4 1.3.5 1.9.1.3.3.3.7.2.4-.1.7-.3 1.1-.4.3-.1.4-.3.4-.6-.2-.7-.2-1.3-.5-1.9zm3.2-1.4c-.1-.2-.4-.4-.7-.2-.4.2-.9.4-1.2.5-.3.1-.5.4-.4.7.2.6.4 1.3.6 1.9.1.2.3.4.6.3.4-.1.8-.3 1.3-.5.4-.1.6-.4.5-.7-.3-.7-.5-1.3-.7-2zm3.5-1.4c-.1-.3-.4-.4-.7-.3l-1.5.6c-.1.1-.4.4-.4.7.2.7.3 1.3.7 2 .1.3.5.3.6.3.5-.2.9-.4 1.5-.6.2-.1.4-.4.3-.7 0-.6-.3-1.3-.5-2zm3.8-1.5c-.1-.3-.4-.3-.8-.2-.6.2-1 .4-1.5.6-.3.1-.5.4-.4.7.2.7.5 1.3.7 2.1.1.2.5.3.7.2.5-.2.9-.4 1.5-.6.3-.1.5-.5.4-.8-.3-.6-.4-1.3-.6-2zm-102.4-6.7v.2c0-.1-.1-.1-.1-.2l-.1-.1v-.2c0 .1.1.1.1.2l.1.1zm.3.5v.3c-.1-.1-.1-.1-.1-.2l-.1-.1v-.2c0 .1.1.1.1.2.1-.1.1 0 .1 0zm.4.5v.3h-.1c-.1-.1-.1-.1-.1-.2v-.1-.3h.1c.1.1.1.1.1.2v.1zm.3.3v.3h-.1l-.1-.1c0-.1-.1-.1-.1-.1v-.3h.1l.2.2zm.4.3v.3h-.1s-.1-.1-.2-.1v-.1-.3s0-.1 0 0c.1 0 .2.1.3.2 0-.1 0 0 0 0zm.4.3v.3c0 .1 0 0 0 0l-.1-.1-.1-.1v-.3s0-.1.1 0l.1.1c-.1 0-.1.1 0 .1zm.3.3v.3h-.1l-.1-.1-.1-.1v-.3-.1c.1.1.1.1.2.1.1.1.1.1.1.2zm.4.2v.3c0 .1 0 .1 0 0-.1 0-.1-.1-.2-.1l-.1-.1v-.3s0-.1 0 0c.1 0 .1.1.2.1l.1.1zm.4.3v.3c-.1 0-.1-.1-.2-.1l-.1-.1v-.3s0-.1 0 0c.1 0 .1.1.2.1l.1.1zm.4.3v.3s0 .1-.1 0c-.1 0-.1-.1-.2-.1 0 0 0-.1-.1-.1v-.3h.1s.1.1.2.1l.1.1zm.4.3v.3h-.1l-.1-.1-.1-.1v-.3s.1.1.2.1c0 0 0 .1.1.1zm.3.3v.3c0 .1 0 .1-.1 0-.1 0-.1-.1-.2-.1l-.1-.1v-.3s0-.1.1 0l.1.1c.2 0 .2.1.2.1zm.5.3v.3H27c-.1 0-.1-.1-.2-.1l-.1-.1v-.3c0-.1 0-.1 0 0 .1 0 .1.1.2.1s.2.1.2.1zm.4.3v.3s0 .1-.1 0c-.1 0-.1-.1-.2-.1s-.1-.1-.1-.1v-.3s0-.1.1 0l.1.1c.1 0 .2.1.2.1zm.4.3v.3s0 .1-.1 0c-.1 0-.1-.1-.2-.1l-.1-.1v-.3s.1.1.2.1c.2 0 .2.1.2.1zm.4.3v.4h-.1c-.1-.1-.1-.1-.2-.1s-.1-.1-.1-.2v-.3c.1.1.1.1.2.1.2 0 .2.1.2.1zm.5.3v.4c0 .1 0 .1-.1 0l-.1-.1-.1-.1v-.4s0-.1.1 0l.1.1c0 .1 0 .1.1.1zm.4.4v.4s0 .1-.1 0c0 0-.1-.1-.2-.1l-.1-.1v-.4s0-.1.1 0c.1 0 .1.1.2.1s.1 0 .1.1zm.5.1v.4c0 .1 0 .1-.1 0h-.2l-.1-.1v-.4-.1c.1 0 .1 0 .2.1.1 0 .2.1.2.1zm.4.2v.4s0 .1-.1.1-.1 0-.2-.1l-.1-.1v-.4s0-.1.1 0h.1c.1 0 .2 0 .2.1zm.5.1v.4c0 .1 0 .1-.1.1s-.1 0-.2-.1l-.1-.1v-.4s0-.1.1-.1.1 0 .2.1c0 0 0 .1.1.1zm.4.2v.4c0 .1 0 .1-.1.1s-.1 0-.2-.1c0 0-.1 0-.1-.1s0-.2-.1-.4c0-.1 0-.1.1-.1s.1 0 .2.1c.2 0 .2 0 .2.1zm.5.2v.4c0 .1 0 .1-.1.1s-.1 0-.2-.1l-.1-.1v-.4c0-.1 0-.1.1-.1s.1 0 .2.1c0 0 .1 0 .1.1zm.5.1v.4c0 .1 0 .1-.1.1s-.1-.1-.2-.1l-.1-.1v-.4c0-.1 0-.1.1-.1s.1 0 .2.1l.1.1zm.5.2v.4c0 .1 0 .1-.1.1s-.1-.1-.2-.1l-.1-.1c0-.1 0-.3-.1-.4 0-.1 0-.1.1-.1s.1.1.2.1.1 0 .2.1zm.5.2v.4c0 .1 0 .1-.1.1s-.1 0-.2-.1l-.1-.1v-.4c0-.1 0-.1.1-.1s.1 0 .2.1c0 0 .1 0 .1.1zm.5.1v.4c0 .1 0 .1-.1.1s-.1 0-.2-.1l-.1-.1v-.4-.1c.1 0 .1.1.2.1s.2.1.2.1zm.5.2v.4c0 .1 0 .1-.1.1s-.1 0-.2-.1c-.1 0-.1-.1-.1-.1v-.4c0-.1 0-.1.1-.1 0 0 .1 0 .2.1l.1.1zm.5.2v.5c0 .1 0 .1-.1.1s-.2-.1-.2-.1c-.1 0-.1-.1-.1-.1v-.5c0-.1 0-.1.1-.1s.1 0 .2.1c.1 0 .1 0 .1.1zm.6.2v.5c0 .1 0 .1-.1.1s-.2 0-.2-.1l-.1-.1c0-.2 0-.3-.1-.5 0-.1 0-.1.1-.1s.1.1.2.1c.1-.1.2 0 .2.1zm.5.1c0 .2.1.3.1.5l-.1.1c-.1 0-.1 0-.2-.1-.1 0-.1-.1-.1-.2 0-.2 0-.3-.1-.5 0-.1 0-.1.1-.1s.1 0 .2.1.1.2.1.2zm.6.3v.5c0 .1 0 .1-.1.1s-.1-.1-.2-.1c0 0-.1-.1-.1-.2s0-.3-.1-.5c0-.1 0-.1.1-.1s.2 0 .2.1c.1 0 .2.1.2.2zm.6.1c0 .2 0 .3.1.5 0 .1 0 .1-.1.1s-.2 0-.2-.1c-.1 0-.1-.1-.1-.1 0-.2 0-.3-.1-.5 0-.1 0-.1.1-.1 0 0 .1 0 .2.1l.1.1zm.5.1c0 .2 0 .3.1.5 0 .1-.1.1-.1.1h-.2l-.1-.1v-.5c0-.1 0-.1.1-.1h.2v.1zm.6 0c0 .2 0 .3.1.5 0 .1 0 .1-.1.1h-.2c-.1 0-.1-.1-.1-.1v-.5c0-.1 0-.1.1-.1h.2v.1zm.6.1c0 .2.1.3.1.5 0 .1 0 .1-.1.1h-.2l-.1-.1c0-.2-.1-.3-.1-.5 0-.1 0-.1.1-.1h.2c.1-.1.1 0 .1.1zm.6 0c0 .2 0 .4.1.5 0 .1 0 .1-.1.1h-.2c-.1 0-.1-.1-.1-.1v-.5c0-.1 0-.1.1-.1h.2v.1zm.7 0v.5c0 .1 0 .1-.1.1h-.2c-.1 0-.1-.1-.1-.1 0-.2-.1-.4-.1-.5 0-.1 0-.1.1-.1h.2c.1 0 .2.1.2.1zm.6.1c0 .2.1.4.1.6 0 .1 0 .1-.1.1h-.2c-.1 0-.1 0-.1-.1-.1-.2 0-.4-.1-.5 0-.1 0-.1.1-.1h.3c-.1-.2 0-.1 0 0zm.6 0c0 .2.1.4.1.6 0 .1 0 .2-.1.2h-.3l-.1-.1c0-.2-.1-.4-.1-.5 0-.1 0-.1.1-.1h.2c.2-.2.2-.2.2-.1zm.7 0c0 .2.1.4.1.6 0 .1 0 .1-.1.1h-.3c-.1 0-.1-.1-.1-.1 0-.2-.1-.4-.1-.6 0-.1.1-.1.1-.1h.2c.1 0 .2.1.2.1zm.7.1c0 .2 0 .4.1.6 0 .1 0 .1-.1.1s-.2 0-.3-.1c-.1 0-.1-.1-.1-.1 0-.2-.1-.4-.1-.6 0-.1 0-.1.1-.1h.3s.1.1.1.2zm.7 0c0 .2.1.4.1.6 0 .1 0 .1-.1.1h-.3l-.1-.1c0-.2 0-.4-.1-.6 0-.1 0-.1.1-.1h.3s.1 0 .1.1zm.7.1c0 .2 0 .4.1.6 0 .1 0 .1-.1.1h-.3c-.1 0-.1-.1-.1-.1 0-.2 0-.4-.1-.6 0-.1 0-.1.1-.1h.3c0-.1.1 0 .1.1zm.7 0c.1.2.1.4.1.6 0 .1 0 .2-.1.2h-.3c-.1 0-.2-.1-.2-.2 0-.2-.1-.4-.1-.6 0-.1 0-.1.1-.1h.3c.2-.1.2 0 .2.1zm.7 0c0 .2.1.4.1.6 0 .1 0 .1-.1.1h-.3c-.1 0-.1-.1-.1-.2 0-.2 0-.4-.1-.6 0-.1 0-.1.1-.1h.3c.1.1.1.1.1.2zm.8.1c0 .2.1.5.1.7 0 .1 0 .2-.1.2h-.3c-.1 0-.1-.1-.1-.2 0-.2-.1-.4-.1-.7 0-.1 0-.2.1-.1h.3c0-.1.1-.1.1.1zm.8 0c0 .2.1.5.1.7 0 .1 0 .2-.1.1h-.3c-.1 0-.1-.1-.1-.2 0-.2 0-.5-.1-.7 0-.1 0-.1.1-.1h.3s.1.1.1.2zm.8 0c.1.2.1.5.1.7 0 .1-.1.2-.1.2h-.3c-.1 0-.1-.1-.1-.2 0-.2-.1-.5-.1-.7 0-.1 0-.2.1-.2h.3s.1.1.1.2zm.8-.1c0 .2.1.5.1.7 0 .1 0 .2-.1.2h-.3c-.1 0-.1-.1-.2-.1 0-.2-.1-.5-.1-.7 0-.1.1-.2.1-.2h.3c.1-.1.2 0 .2.1zm.9-.2c0 .2.1.5.1.7 0 .1 0 .2-.1.2H49c-.1 0-.1-.1-.1-.1 0-.2-.1-.5-.1-.7 0-.1 0-.2.1-.2h.3s0 .1.1.1zm.8-.1c0 .2.1.5.1.7 0 .1 0 .2-.1.2h-.3c-.1 0-.2 0-.2-.1-.1-.2 0-.5-.1-.7 0-.1 0-.2.1-.2s.2 0 .3-.1c.1 0 .2.1.2.2zm.8-.1c0 .3.1.5.1.8 0 .1 0 .2-.1.2h-.4s-.1 0-.1-.1c0-.2-.1-.5-.1-.8 0-.1 0-.2.1-.2s.3 0 .4-.1c0 0 .1.1.1.2zm.9-.1c0 .2.1.5.1.8 0 .1 0 .2-.1.2s-.2 0-.3.1c-.1 0-.2-.1-.2-.2 0-.3-.1-.5-.1-.8 0-.1.1-.2.1-.2.1 0 .2 0 .3-.1.1 0 .2.1.2.2zm.9-.2c.1.3.1.5.1.8 0 .1-.1.2-.1.2h-.3c-.1 0-.1-.1-.2-.2 0-.3-.1-.5-.1-.8 0-.1.1-.2.1-.2h.4c0 .1.1.1.1.2zm1-.1c0 .3.1.5.2.8 0 .1-.1.2-.1.2h-.4c-.1 0-.2-.1-.2-.2 0-.3-.1-.5-.1-.8 0-.1 0-.2.1-.2s.2 0 .4-.1c0 .1 0 .1.1.3zm.9-.2c0 .3.1.6.1.8 0 .1-.1.2-.2.2h-.3c-.1 0-.2 0-.2-.2 0-.3-.1-.5-.1-.8 0-.1 0-.2.1-.2s.2 0 .4-.1c.1.1.2.2.2.3zm1-.2c.1.3.1.6.1.9 0 .1-.1.2-.2.2-.2 0-.3 0-.4.1-.1 0-.1-.1-.2-.2 0-.3-.1-.6-.2-.9 0-.1.1-.2.2-.2s.2-.1.3-.1c.3 0 .4.1.4.2zm1-.2c0 .3.1.6.2.9 0 .1 0 .2-.2.2-.1 0-.2 0-.4.1-.1 0-.2 0-.2-.2-.1-.3-.1-.6-.1-.8 0-.1 0-.2.1-.2s.2 0 .4-.1c.1 0 .2 0 .2.1zm1-.2c.1.3.1.6.1.9 0 .1 0 .2-.1.2-.2 0-.3 0-.5.1-.1 0-.1-.1-.1-.1-.1-.3-.1-.6-.2-.9 0-.1 0-.2.1-.2s.3-.1.4-.1c.2-.1.3 0 .3.1zm1.1-.2c0 .3.1.6.2.9 0 .1-.1.2-.2.2s-.3.1-.4.1c-.1 0-.2-.1-.2-.2 0-.3-.1-.6-.1-.9 0-.1 0-.2.1-.2s.2-.1.4-.1c.1 0 .2.1.2.2zm1.1-.2c.1.3.1.6.2.9 0 .1-.1.2-.1.2-.2 0-.3 0-.5.1-.1 0-.2-.1-.2-.2-.1-.3-.1-.6-.1-.9 0-.1.1-.2.2-.2.1-.1.3-.1.4-.1 0 0 .1.1.1.2zm1.1-.2c.1.3.1.6.2.9 0 .1-.1.2-.2.3-.2 0-.3 0-.4.1-.1 0-.2-.1-.2-.2 0-.3-.1-.6-.2-.9 0-.1.1-.2.2-.2s.3-.1.4-.1c.2-.1.2 0 .2.1zm1.2-.3c0 .3.1.7.1 1 0 .2 0 .3-.1.3-.2 0-.3.1-.5.1-.1 0-.2 0-.2-.2-.1-.3-.1-.6-.1-.9 0-.1.1-.3.1-.3.2 0 .3 0 .5-.1.1-.1.2 0 .2.1zm1.2-.3c.1.3.1.7.2 1 0 .1 0 .3-.1.3-.2 0-.3.1-.5.1-.1 0-.2-.1-.2-.2 0-.3-.1-.7-.2-1 0-.1 0-.3.1-.3.2 0 .3-.1.5-.1 0 0 .2.1.2.2zm1.2-.4c.1.3.1.7.2 1 0 .1-.1.3-.1.3-.2.1-.4.1-.5.1-.1 0-.2-.1-.3-.2-.1-.3-.1-.7-.1-1 0-.1 0-.3.2-.3.1 0 .3-.1.5-.1 0 .1.1.1.1.2zm1.3-.4c0 .3.1.7.2 1 0 .1-.1.3-.2.3-.2.1-.3.1-.5.2-.1 0-.2-.1-.2-.2 0-.3-.1-.7-.1-1 0-.1 0-.3.1-.3.2-.1.4-.1.5-.2l.2.2zm1.2-.5c.1.4.1.7.2 1.1 0 .2 0 .3-.1.3-.2.1-.3.1-.5.2-.1 0-.2 0-.2-.2-.1-.3-.1-.7-.1-1 0-.1 0-.3.1-.3.2-.1.3-.1.5-.2 0-.1.1 0 .1.1zm1.4-.4c.1.4.1.7.2 1.1 0 .1-.1.3-.2.3-.2.1-.4.1-.5.2-.1.1-.2-.1-.3-.2-.1-.3-.2-.7-.2-1.1 0-.1.1-.2.2-.3.1-.1.3-.1.5-.2.1 0 .2.1.3.2zm1.3-.5c.1.4.1.7.2 1.1 0 .2-.1.3-.2.4-.2.1-.3.1-.5.2-.1 0-.2 0-.3-.2-.1-.3-.1-.7-.2-1.1 0-.1 0-.3.2-.3.2-.1.3-.1.5-.2.2-.2.3-.1.3.1zm1.4-.6c.1.4.1.8.2 1.1 0 .2 0 .3-.2.4-.2.1-.4.1-.5.2-.1.1-.3 0-.3-.2-.1-.3-.1-.7-.2-1.1 0-.1.1-.3.2-.3.1-.1.3-.1.5-.2s.3 0 .3.1zm1.5-.5c0 .4.1.8.2 1.2 0 .2-.1.3-.2.4-.2.1-.4.2-.6.2-.1.1-.2 0-.2-.2-.1-.4-.2-.7-.2-1.1 0-.2.1-.3.2-.4.2-.1.4-.1.6-.2 0-.2.1-.1.2.1zm1.5-.7c.1.4.1.8.2 1.2 0 .2-.1.3-.2.4-.2.1-.4.1-.6.2-.1 0-.3 0-.3-.2-.1-.4-.2-.8-.2-1.2 0-.1.1-.3.2-.4.2-.1.4-.1.6-.2.1 0 .3.1.3.2zm1.5-.6l.3 1.2c0 .2-.1.3-.3.4l-.6.3c-.1.1-.3 0-.3-.2-.1-.4-.1-.8-.2-1.2 0-.2.1-.3.2-.4l.6-.3c.2-.1.3.1.3.2zm1.6-.7c.1.4.2.9.3 1.3 0 .2 0 .3-.2.4-.2.1-.5.2-.6.2-.1.1-.3 0-.3-.2-.1-.4-.1-.8-.2-1.2 0-.1 0-.3.2-.4.2-.1.3-.2.5-.3.2 0 .3.1.3.2zm1.7-.7c.1.4.1.8.2 1.3 0 .1-.1.4-.2.4-.3.1-.5.2-.7.3-.2.1-.3 0-.4-.2-.1-.4-.1-.8-.2-1.3 0-.2 0-.3.2-.4l.6-.3c.3 0 .5 0 .5.2zm1.7-.8c.1.4.2.9.3 1.3 0 .2 0 .4-.2.4-.2.1-.5.2-.7.3-.1 0-.2 0-.3-.2-.1-.4-.2-.8-.2-1.3 0-.2 0-.3.2-.4.2-.1.5-.2.7-.3 0 0 .2.1.2.2zm1.7-.8c.1.5.2.9.3 1.3 0 .2 0 .4-.2.4l-.6.3c-.2.1-.3 0-.4-.2 0-.4-.1-.9-.2-1.3 0-.2 0-.3.2-.4l.6-.3c.2 0 .3.1.3.2zm1.9-.8c.1.5.1.9.3 1.3.1.2-.1.4-.2.5-.3.1-.5.2-.8.3-.2.1-.3 0-.4-.2-.1-.5-.1-.9-.3-1.3 0-.2.1-.4.2-.4.3-.1.5-.2.7-.3.3-.2.5-.1.5.1zm1.9-.9c.1.5.2.9.3 1.4 0 .2-.1.4-.2.5-.3.2-.5.3-.7.3-.2.1-.4 0-.4-.2-.1-.5-.2-.9-.3-1.4 0-.2.1-.4.2-.4.2-.1.5-.2.8-.4.1-.1.3 0 .3.2zm2-1c.1.5.3 1 .4 1.4 0 .2-.1.4-.3.5-.3.1-.5.2-.8.4-.1 0-.3 0-.3-.2-.1-.5-.2-.9-.3-1.4 0-.2 0-.4.2-.4.3-.1.5-.2.7-.4.2-.2.3-.1.4.1zm2-1.1c.2.5.3 1 .4 1.4 0 .2-.1.4-.2.5l-.8.4c-.2.1-.3 0-.3-.2-.1-.5-.2-.9-.4-1.4 0-.2.1-.4.2-.5.3-.1.5-.2.8-.4.1 0 .3 0 .3.2zm2.2-1.2c.1.5.2 1 .4 1.5.1.2-.1.4-.3.6-.3.2-.5.3-.8.4-.2.1-.4 0-.4-.2-.2-.5-.3-1-.4-1.5 0-.2.1-.4.3-.5.2-.1.5-.3.8-.5.2 0 .4 0 .4.2zm2.2-1.2c.1.5.2 1.1.4 1.5.1.2-.1.5-.2.6-.3.2-.7.3-.9.5-.1.1-.3 0-.4-.2-.1-.5-.2-1-.4-1.5 0-.2.1-.4.2-.5.3-.2.6-.3.9-.5.1-.2.3-.1.4.1zm2.2-1.4c.1.5.3 1 .4 1.5.1.2-.1.5-.3.6-.3.2-.5.3-.8.5-.2.1-.4.1-.4-.2-.1-.5-.3-1-.4-1.5 0-.2.1-.5.3-.6.3-.2.5-.3.8-.5.2 0 .3 0 .4.2zm2.4-1.4c.2.5.2 1.1.4 1.6.1.2-.1.4-.3.6-.4.2-.7.4-1 .6-.1.1-.4 0-.4-.2-.2-.5-.3-1-.5-1.6-.1-.2.1-.5.3-.6.3-.2.6-.4 1-.6.2-.1.4 0 .5.2zm2.5-1.5c.1.5.3 1.1.4 1.6.1.2-.1.5-.3.6l-.9.6c-.3.1-.5.1-.5-.1-.1-.5-.3-1-.4-1.6-.1-.2.1-.5.4-.6.2-.1.5-.3.9-.6.2-.2.4-.2.4.1zm2.6-1.7c-.1-.2-.3-.2-.5-.1-.4.2-.7.5-1 .7-.2.1-.4.5-.3.7.2.5.3 1.1.5 1.6.1.2.3.2.5.1.3-.2.5-.4 1-.6.2-.1.3-.4.3-.6-.3-.7-.4-1.2-.5-1.8zm2.6-1.7c-.1-.2-.3-.3-.6-.1-.4.2-.7.5-.9.7-.2.2-.3.4-.3.7.1.6.1 1.2.3 1.7.1.2.3.2.6.1.4-.2.6-.4 1.1-.7.2-.1.3-.4.3-.6-.2-.7-.4-1.2-.5-1.8zm2.9-2c-.1-.2-.3-.3-.6-.1-.4.2-.7.5-1 .7-.3.2-.5.5-.4.7.1.6.3 1.1.5 1.7.1.2.3.3.5.1.4-.2.7-.5 1.1-.7.3-.2.5-.5.4-.8-.1-.5-.4-1-.5-1.6zm2.9-2c-.1-.2-.2-.3-.5-.1-.4.3-.9.6-1.2.9-.2.1-.4.5-.3.7.2.6.3 1.2.5 1.7.1.3.4.3.7.1.3-.2.7-.5 1.1-.8.2-.1.3-.4.3-.7-.2-.7-.4-1.3-.6-1.8zm3-2.3c-.1-.2-.3-.3-.5-.1-.5.4-.8.6-1.2.9-.2.2-.4.6-.4.8.2.6.3 1.2.5 1.8.1.2.3.3.5.1.4-.3.8-.5 1.3-.9.2-.1.4-.5.3-.8-.1-.6-.3-1.2-.5-1.8zM119 86c.2.6.3 1.3.6 1.9.1.2-.1.6-.5.9-.5.3-.8.6-1.2.9-.3.2-.5.1-.6-.1-.3-.6-.5-1.1-.7-1.8-.1-.2.1-.6.4-.8.4-.3.9-.6 1.3-.9.2-.3.6-.3.7-.1zm-94.7 27c0 .5.1 1 .1 1.5s.1 1 .1 1.5c0 .1 0 .1-.1 0-.6-.6-1.2-1.5-1.8-2.5-.1-.1-.1-.3-.2-.4 0-.4-.1-.8-.1-1.3 0-.4-.1-.9-.1-1.3 0-.1.1 0 .1.1.6.8 1.2 1.6 1.8 2 .1.3.2.4.2.4zm2.6 2.1c.1.6.1 1.2.2 1.8 0 .6.1 1.2.2 1.8 0 .1-.1.1-.2 0-.7-.7-1.4-1.3-2-2-.1-.1-.1-.2-.2-.3 0-.5-.1-1-.1-1.5-.1-.5-.1-1-.1-1.5 0-.1 0-.1.1-.1.6.5 1.3 1 2 1.5-.1.1 0 .2.1.3zm2.8 2c.1.7.1 1.4.2 2 .1.7.1 1.4.2 2.1 0 .1-.1.2-.2.1-.8-.6-1.5-1.3-2.2-2-.1-.1-.2-.2-.2-.3 0-.6-.1-1.2-.2-1.8-.1-.6-.1-1.2-.2-1.8 0-.1 0-.1.1-.1.7.5 1.4 1.1 2.2 1.5.2.1.3.2.3.3zm3.2 1.3c.1.8.2 1.6.2 2.4.1.8.1 1.6.2 2.4 0 .1 0 .2-.1.1-.9-.5-1.7-1-2.5-1.5-.1 0-.2-.2-.2-.3-.1-.7-.1-1.4-.2-2.1-.1-.7-.1-1.4-.2-2.1 0-.1.1-.2.1-.1l2.4.9c.2 0 .3.2.3.3zm3.6 1.3c.1.9.2 1.8.3 2.8.1.9.2 1.8.3 2.8 0 .2-.1.2-.2.2-1-.6-1.9-1.1-2.8-1.6-.1-.1-.2-.2-.3-.4-.1-.8-.2-1.6-.2-2.4-.1-.8-.2-1.6-.2-2.4 0-.1 0-.2.2-.2.9.3 1.8.6 2.7 1 .1-.1.2.1.2.2zm4.1.6c.1 1 .2 2.1.4 3.1.1 1.1.2 2.1.4 3.2 0 .2-.1.3-.2.3-1.1-.3-2.2-.7-3.2-1-.1 0-.3-.2-.3-.4-.1-1-.2-1.9-.3-2.8-.1-.9-.2-1.8-.3-2.8 0-.2.1-.3.2-.2 1 .1 2 .2 3.1.3 0 0 .1.1.2.3zm4.6.4c.2 1.2.3 2.4.5 3.6.2 1.2.3 2.5.5 3.7 0 .2-.1.3-.2.3-1.3-.4-2.5-.8-3.7-1.2-.1 0-.3-.2-.3-.4-.1-1.1-.3-2.2-.4-3.2-.1-1.1-.2-2.1-.4-3.2 0-.2.1-.3.2-.3 1.1.1 2.3.2 3.6.3 0 .1.2.2.2.4zm5.5 0a14330366263182988 14330366263182988 0 0 1 .9 8.9c-1.4-.2-2.9-.4-4.3-.8-.2 0-.3-.3-.4-.5-.2-1.3-.3-2.5-.5-3.8-.2-1.2-.3-2.5-.5-3.7 0-.2.1-.4.3-.3 1.4.1 2.7 0 4.1-.2.1 0 .3.1.4.4zm6.3-.8c.3 1.6.5 3.2.7 4.9.2 1.7.5 3.3.8 5 0 .3-.1.5-.3.5-1.8-.2-3.5-.4-5.1-.6-.2 0-.4-.2-.4-.5-.2-1.5-.4-2.9-.6-4.4-.2-1.4-.4-2.9-.6-4.3 0-.3.1-.5.3-.5 1.5-.2 3.1-.4 4.8-.6.1.1.3.2.4.5zm7.6-1.3c.3 1.9.7 3.8 1 5.7.3 1.9.6 3.9.9 5.9.1.3-.1.6-.4.6-2.1 0-4.2-.2-6.1-.4-.2 0-.5-.3-.5-.5-.3-1.7-.6-3.4-.8-5.1-.2-1.7-.5-3.3-.7-5 0-.3.1-.5.3-.5 1.9-.3 3.8-.6 5.8-1 .2-.2.4 0 .5.3zm9.2-2.9c.4 2.2.8 4.4 1.2 6.7.4 2.3.8 4.6 1.3 6.9.1.4-.1.8-.4.8-2.6.3-5.1.5-7.5.7-.3 0-.6-.3-.6-.6-.4-2-.8-4.1-1.1-6-.3-1.9-.7-3.9-1-5.8-.1-.3.1-.7.4-.8 2.2-.7 4.5-1.5 6.9-2.3.3-.2.7 0 .8.4zm11.3-4.5c.6 2.5 1.1 5.1 1.6 7.8.6 2.6 1.1 5.3 1.7 8 .1.5-.1.9-.5 1-3.3.6-6.4 1.2-9.3 1.6-.4.1-.8-.2-.9-.7-.5-2.4-1-4.7-1.4-7-.4-2.3-.9-4.6-1.3-6.8-.1-.3.1-.8.5-.9 2.7-1 5.6-2.2 8.6-3.5.5-.1.9.1 1 .5zm14.4-7.1c-.1-.5-.7-.6-1.2-.3-3.8 2.1-7.5 4-10.9 5.7-.4.2-.7.7-.6 1.1.5 2.6 1.2 5.2 1.7 7.9.6 2.7 1.2 5.4 1.8 8.2.1.5.6.7 1 .6 3.8-.9 7.7-2.2 12-3.6.6-.2 1-.8.8-1.3-.4-1.6-.9-3.1-1.3-4.7s-.8-3.1-1.2-4.6c-.5-3.1-1.3-6.1-2.1-9z"/><path fill="#DC4226" d="M33 103.9c-1.7-.6-3.3-1.3-5.1-1.9-1.7-.7-3.4-1.3-5.2-2l-5.4-2.1-5.4-2.1c-.6-.2-.9-1.2-.7-2 1.8-6.3 3.4-11.9 5.1-17 .2-.7.8-1 1.3-.8l4.5 2.1c1.5.7 3 1.4 4.4 2.1 1.5.7 2.9 1.3 4.4 2 1.4.6 2.9 1.3 4.3 1.9.5.2.8.8.7 1.5-.7 5.1-1.3 10.8-1.8 17 0 .9-.5 1.5-1.1 1.3zM4.3 95.3c.7.1 1.3.4 1.9.7-.2-.2-.3-.5-.2-.9.1-.5.3-1 .4-1.5.1-.3.4-.3.6-.2.7.3 1.4.4 2.1.7.2.1.3.5.3.8-.1.4-.2 1-.3 1.4-.1.4-.3.6-.7.5-.7-.2-1.3-.6-2-.8 3 1.2 5.8 2.4 8.7 3.6 2.8 1.2 5.6 2.3 8.4 3.4l8.1 3.3c2.6 1.1 5.2 2.1 7.8 3.1.2-7.9.5-15.1 1.2-21.5.7-6.3 1.5-11.9 2.5-17C45 61.6 47 54 49.3 47.8c1.8-4.9 3.8-9 5.9-12.5 2-3.4 4-6.2 6.1-8.5 3.6-3.9 7.3-6.5 11.4-7.9 1.8-.6 3.7-1 5.7-1.2.5 0 1-.1 1.6-.1h-.4c-.1 0-.1-.1-.2-.1h.5c.1 0 .1.1.2.1 1.1-.6 2.3-.8 3.1-.8l-.9-.6c-2.6-.5-5.1-.8-7.5-.9h.1c.1.1.2.1.2.1h-.3c-.1 0-.1 0-.2-.1l-.2-.2h-.2c.1 0 .1.1.2.1h-.1-.2-.1c-.1-.1-.2-.1-.2-.2-2.1 0-4.2.1-6.2.4-2 .3-4 .8-6 1.4-4.6 1.5-9.1 3.8-14 7.1-2.9 1.9-5.8 4.3-8.9 7.2-3.1 2.9-6.5 6.3-9.7 10.5-4 5.2-8 11.8-12.2 20-2.2 4.3-4.3 9.3-6.5 14.8-2 5.7-3.9 12-6 18.9zM78 15.8s-.1-.1-.2-.1h.4c.1.1.1.1.2.1h-.2c-.1.1-.2 0-.2 0zm-.6 0c-.1 0-.1-.1-.2-.1H77.5c.1 0 .1 0 .2.1.1 0 .1.1.2.1H77.6l-.2-.1zm-.7-.1c-.1-.1-.1-.1-.2-.1h.4c.1 0 .1 0 .2.1.1 0 .1.1.2.1h-.4c-.1-.1-.2-.1-.2-.1zm-.7-.1c-.1 0-.1-.1-.2-.1H76.4c.1 0 .1.1.2.1H76zm-.6-.1c-.1 0-.1-.1-.2-.2h.5c.1 0 .1.1.2.1h-.4c-.1.2-.1.1-.1.1zm-1.8 0c-.1 0-.1-.1-.2-.2H73.7c.1.1.2.1.2.1h-.2c0 .1-.1.1-.1.1zm-.6.1l-.2-.2H73.1c.1.1.2.1.3.2H73zm-.5 0c-.1-.1-.2-.1-.2-.2H72.6c.1.1.2.1.3.2H72.6h-.1zm-.5 0c-.1 0-.1-.1-.2-.2v-.1H72.1c.1.1.2.1.2.2h-.2c0 .2-.1.2-.1.1zm-.6.1c-.1 0-.2-.1-.3-.2h.4c.1.1.2.1.2.2v.1h-.2c0-.1-.1-.1-.1-.1zm-.5.1c-.1-.1-.2-.1-.3-.2v-.1h.4c.1.1.2.1.3.2v.1h-.4zm-.6 0c-.1-.1-.2-.1-.3-.2H70.3c.1.1.2.1.3.2h-.2c0 .1-.1.1-.1 0zm-.6.1c-.1-.1-.2-.1-.3-.2-.1 0 0 0 0 0H69.7c.1.1.2.1.3.2v.1h-.2c0-.1-.1-.1-.1-.1zm-.6.1c-.1-.1-.2-.1-.3-.2v-.1h.4c.1.1.2.1.3.2h-.2c-.1.1-.2.1-.2.1zm-.6 0c-.1-.1-.2-.1-.3-.2v-.1h.4c.1.1.2.1.3.2h-.2c-.1.1-.1.1-.2.1zm-.6.1c-.1-.1-.2-.1-.3-.2v-.1h.5c.1.1.2.1.3.2v.1h-.5zm-.6 0c-.1-.1-.2-.1-.3-.2v-.1h.4c.1.1.2.1.3.2v.1h-.2c-.1.1-.2.1-.2 0zm-.6.1c-.1-.1-.2-.1-.3-.2 0 0-.1 0 0-.1h.4c.1.1.2.1.3.2v.1h-.2c-.1.1-.2 0-.2 0zm-.6.2c-.1-.1-.2-.1-.3-.2 0 0-.1-.1 0-.1s.1 0 .2-.1h.2c.1.1.2.1.3.2v.1c-.1 0-.1 0-.2.1h-.2zm-.5.1c-.1-.1-.2-.1-.3-.2 0 0-.1-.1 0-.1s.2-.1.2-.1h.1c.1.1.2.1.3.2v.1s-.1 0-.2.1c0 .1-.1 0-.1 0zm-.5.2c-.1-.1-.2-.1-.3-.2-.1 0-.1-.1 0-.1s.1 0 .2-.1h.1c.1.1.2.1.3.2v.1c-.1 0-.1 0-.2.1h-.1zm-.5.2c-.1-.1-.2-.1-.3-.2-.1 0-.1-.1 0-.1s.1 0 .2-.1h.2c.1.1.2.2.3.2v.1c-.1 0-.1 0-.2.1h-.2zm-.6.2c-.1-.1-.2-.1-.3-.2-.1 0 0-.1 0-.1.1 0 .2-.1.2-.1h.1c.1.1.2.1.3.2v.1c-.1 0-.2.1-.2.1H64zm-.5.2c-.1-.1-.2-.1-.3-.2V17c.1 0 .2-.1.2-.1h.2c.1.1.2.2.3.2 0 0 .1.1 0 .1 0 0-.1 0-.2.1h-.2zm-.6.2c-.1-.1-.2-.2-.4-.2v-.1c.1 0 .2-.1.2-.1h.2c.1.1.2.1.4.2v.1c-.1 0-.1 0-.2.1h-.2zm-.5.2c-.1-.1-.2-.2-.4-.2-.1 0 0-.1 0-.1.1 0 .1 0 .2-.1h.2c.1.1.2.2.4.2.1 0 .1.1 0 .1s-.2 0-.2.1h-.2zm-.6.2c-.1-.1-.2-.2-.4-.2-.1 0 0-.1 0-.1.1 0 .2 0 .2-.1h.2c.1.1.2.1.4.2.1 0 0 .1 0 .1-.1 0-.2.1-.2.1h-.2zm-.6.2c-.1-.1-.2-.2-.4-.3v-.1c.1 0 .1-.1.2-.1h.2c.1.1.3.2.4.2.1 0 .1.1 0 .1s-.1.1-.2.1c-.1.2-.1.1-.2.1zm-.6.2c-.1-.1-.2-.2-.4-.3-.1 0 0-.1 0-.1.1 0 .1-.1.2-.1h.2c.1.1.2.2.4.3.1 0 .1.1 0 .1s-.1.1-.2.1c-.1.1-.1.1-.2 0zm-.6.2c-.1-.1-.3-.2-.4-.3 0 0-.1-.1 0-.1s.2-.1.3-.1h.2c.1.1.3.2.4.3.1 0 .1.1 0 .1s-.2.1-.2.1c-.2.1-.2.1-.3 0zm-.6.3c-.1-.1-.3-.2-.4-.3-.1 0-.1-.1 0-.1s.2-.1.3-.1h.2c.1.1.3.2.4.3.1 0 .1.1 0 .1s-.1.1-.3.1h-.2zm-.7.2c-.2-.1-.3-.2-.4-.3-.1 0 0-.1 0-.1.1 0 .2-.1.2-.1h.2c.1.1.3.2.4.3.1 0 .1.1 0 .1 0 .1-.1.1-.1.1h-.3zm-.6.2c-.1-.1-.3-.2-.4-.3-.1 0 0-.1 0-.1.1 0 .1 0 .2-.1h.2c.2.1.3.2.4.3.1 0 .1.1 0 .1s-.2.1-.3.1c0 .1 0 .1-.1 0zm-.6.3c-.1-.1-.3-.2-.4-.3-.1 0-.1-.1 0-.1.1-.1.1-.1.2-.1h.2c.2.1.3.2.4.3.1 0 .1.1 0 .1s-.1.1-.2.1c0 .1-.1.1-.2 0zm-.5.4c-.1-.1-.3-.2-.5-.3-.1 0-.1-.1 0-.1s.2-.1.2-.1h.2c.2.1.3.2.4.3.1 0 .1.1 0 .1s-.1.1-.2.1H57zm-.6.3c-.2-.1-.3-.2-.5-.3-.1 0-.1-.1 0-.1s.1-.1.2-.1h.2c.2.1.3.2.5.3.1 0 0 .1 0 .1-.1 0-.1.1-.2.1 0 .1-.1.1-.2 0zm-.5.4c-.2-.1-.3-.2-.5-.3-.1 0-.1-.1 0-.1s.1-.1.2-.1h.2c.2.1.3.2.5.3.1 0 .1.1 0 .1 0 0-.1.1-.2.1h-.2zm-.6.3c-.1-.1-.3-.2-.5-.3-.1 0-.1-.1 0-.1.1-.1.1-.1.2-.1h.2c.2.1.3.2.5.3.1 0 .1.1 0 .1 0 0-.1.1-.2.1-.1.1-.1.1-.2 0zm-.6.4c-.1-.1-.3-.2-.5-.3-.1 0-.1-.1 0-.1.1-.1.1-.1.2-.1h.2c.2.1.3.2.5.3.1 0 .1.1 0 .1-.1.1-.1.1-.2.1h-.2zm-.6.4c-.2-.1-.3-.2-.5-.3-.1 0-.1-.1 0-.1l.2-.2h.2c.2.1.3.2.5.3.1 0 .1.1 0 .2-.1 0-.1.1-.2.1h-.2zm-.6.4c-.2-.1-.3-.2-.5-.3-.1 0-.1-.1 0-.1.1-.1.2-.1.2-.2h.2c.2.1.4.2.5.3.1 0 .1.1.1.1-.1.1-.2.1-.3.2h-.2zm-.6.4c-.2-.1-.3-.2-.5-.3-.1 0-.1-.1 0-.1s.2-.1.3-.2h.2c.2.1.4.2.5.3.1.1.1.1 0 .1s-.1.1-.2.2h-.3zm-.6.4l-.6-.3c-.1 0-.1-.1 0-.1.1-.1.2-.1.3-.2h.2c.2.1.4.2.5.3.1 0 .1.1 0 .1-.1.1-.2.1-.3.2h-.1zm-.7.4c-.2-.1-.4-.2-.5-.4-.1 0-.1-.1 0-.1.1-.1.2-.1.2-.2h.3c.2.1.4.2.5.3.1 0 .1.1 0 .1s-.2.1-.2.1c-.1.2-.2.2-.3.2zm-.7.4c-.2-.1-.4-.2-.6-.4-.1 0-.1-.1 0-.1.1-.1.2-.1.3-.2h.3c.2.1.4.2.5.4.1 0 .1.1 0 .1s-.1.1-.2.2-.2.1-.3 0zm-.7.5c-.2-.2-.4-.2-.6-.4-.1-.1-.1-.1 0-.2s.2-.1.3-.2c.1-.1.2 0 .3 0 .2.1.3.3.6.4.1 0 .1.1 0 .1-.1.1-.2.1-.2.1-.1.2-.3.2-.4.2zm-.6.4c-.2-.1-.4-.3-.6-.4-.1 0-.1-.1 0-.1l.2-.2h.2c.2.1.4.3.6.4.1 0 .1.1 0 .2-.1 0-.2.1-.2.2 0-.1-.1-.1-.2-.1zm-.8.5c-.2-.1-.4-.3-.6-.4-.1-.1-.1-.1 0-.2s.2-.1.3-.2c.1 0 .2-.1.3 0 .2.1.4.3.6.4.1.1.1.1 0 .1-.1.1-.2.1-.3.2-.1.1-.2.1-.3.1zm-.7.5c-.2-.1-.4-.2-.6-.4-.1 0-.1-.1 0-.2s.2-.1.3-.2h.2c.2.1.4.2.6.4.1 0 .1.1.1.1-.1.1-.2.1-.3.2-.1.1-.2.1-.3.1zm-.6.5c-.2-.1-.5-.2-.6-.4-.1-.1-.1-.1-.1-.2.1-.1.2-.1.2-.2.1-.1.2-.1.3 0 .2.1.4.3.6.4.1.1.1.1.1.2-.1.1-.2.1-.3.2h-.2zm-.7.6c-.2-.1-.4-.3-.7-.4-.1 0-.1-.1-.1-.2.1-.1.2-.2.3-.2.1 0 .2-.1.3 0 .2.1.4.3.6.4.1 0 .1.1.1.2-.1.1-.2.1-.3.2h-.2zm-.7.6c-.2-.1-.4-.3-.7-.4-.1 0-.1-.1 0-.2s.2-.2.3-.2c.1-.1.2-.1.3 0 .2.1.4.3.7.4.1 0 .1.1 0 .2s-.2.1-.3.2h-.3zm-.6.6c-.2-.2-.4-.3-.7-.4-.1-.1-.1-.1 0-.2s.2-.1.3-.2c.1-.1.2-.1.3 0 .2.1.4.3.7.4.1 0 .1.1 0 .2s-.2.1-.3.2h-.3zm-.7.6c-.2-.1-.5-.3-.7-.4-.1-.1-.1-.2-.1-.2l.3-.3h.2c.2.1.5.3.7.4.1.1.2.1.1.2l-.3.3c0 .1-.1.1-.2 0zm-.7.7c-.2-.1-.5-.3-.7-.4-.1-.1-.1-.2-.1-.2.1-.1.2-.2.3-.2.1-.1.2-.1.3 0 .2.1.5.3.7.4.1.1.2.1.1.2s-.2.1-.3.3c-.1-.1-.2-.1-.3-.1zm-.7.6c-.2-.1-.5-.3-.7-.4-.1-.1-.1-.2-.1-.2l.3-.3s.2-.1.3 0c.2.1.5.3.7.4.1.1.1.2 0 .2l-.3.3c0 .1-.1.1-.2 0zm-.7.7c-.2-.2-.5-.3-.7-.4-.1-.1-.1-.2-.1-.2.1-.1.2-.2.3-.2.1-.1.2-.1.3 0 .2.1.5.3.7.4.1.1.1.2.1.2l-.3.3c-.1 0-.2 0-.3-.1zm-.8.7c-.3-.1-.5-.3-.8-.5-.1-.1-.1-.2-.1-.2l.3-.3c.1 0 .2-.1.3 0 .2.2.5.3.7.4.1.1.1.1.1.2l-.3.3c0 .2-.1.2-.2.1zm-.8.8c-.3-.1-.5-.3-.8-.5-.1 0-.1-.2 0-.2l.3-.3c.1-.1.2-.1.3 0 .3.2.5.3.8.5.1.1.2.2.1.2l-.3.3c-.1 0-.3.1-.4 0zm-.7.7c-.3-.1-.6-.3-.8-.5-.1-.1-.1-.1 0-.2l.3-.3c.1-.1.2-.1.3 0 .3.2.5.3.8.5.1.1.1.2 0 .2-.1.1-.1.2-.3.3-.1.1-.2.1-.3 0zm-.8.8c-.3-.2-.6-.3-.9-.5-.1-.1-.2-.2-.1-.2.1-.1.3-.2.4-.3.1-.1.2-.1.3 0 .3.2.6.3.8.5.1.1.2.1.1.2s-.2.2-.3.4c-.1 0-.2 0-.3-.1zm-.9.9c-.3-.2-.6-.3-.9-.5-.1-.1-.1-.2 0-.3l.3-.3c.1-.1.2-.1.3 0 .3.2.6.3.9.5.1.1.1.2.1.3l-.3.3h-.4zm-.8.8c-.3-.2-.6-.3-.9-.5-.1-.1-.1-.2-.1-.3l.3-.3s.2-.1.3 0c.3.2.6.4.8.5.1.1.1.2 0 .2l-.3.3c.2.1 0 .1-.1.1zm-.9.9c-.3-.1-.6-.3-.9-.5-.1-.1-.2-.2-.1-.3l.3-.3c.1-.1.2-.1.3 0 .3.2.6.3.9.5.1.1.1.2.1.3l-.3.3H37zm-.9.9c-.3-.2-.6-.4-.9-.5-.1-.1-.2-.2-.1-.3.2-.2.3-.2.4-.4.1-.1.2-.1.3 0 .3.1.6.4.9.5.1.1.1.2.1.3l-.3.3c-.1.1-.2.2-.4.1zm-.8.9c-.3-.2-.7-.3-1-.5-.1-.1-.1-.2-.1-.3.1-.1.2-.3.3-.3.1-.1.3-.1.4 0 .3.2.6.4.9.5.1.1.1.2 0 .3-.1.1-.2.2-.3.4.1 0 0 0-.2-.1zm-.8 1.1c-.3-.1-.7-.4-1-.6-.1-.1-.2-.2-.1-.3.1-.1.2-.2.3-.4.1-.1.2-.1.3 0l.9.6c.1.1.2.2.1.3-.1.1-.2.2-.3.4h-.2zm-.8 1.1c-.3-.2-.7-.4-1-.6-.1-.1-.2-.2-.2-.3.2-.2.3-.3.4-.5.1-.1.2-.1.3 0 .4.2.7.3 1.1.5.1.1.1.2.1.3-.1.1-.2.3-.3.5-.1.1-.3.1-.4.1zm-.9 1.1c-.3-.2-.7-.4-1-.6-.1-.1-.2-.2-.1-.3.1-.2.2-.3.3-.4.1-.1.2-.1.4-.1.4.2.7.4 1 .6.1.1.2.2.1.3-.1.2-.2.3-.3.4-.1.2-.3.2-.4.1zm-.8 1.2c-.4-.2-.7-.4-1.1-.6-.1-.1-.2-.2-.1-.3.1-.2.2-.3.3-.4.1-.1.2-.1.4-.1.4.2.7.4 1.1.6.2.1.2.2.1.3-.1.1-.2.3-.3.4-.1.1-.2.1-.4.1zm-.9 1.2c-.4-.2-.7-.4-1-.6-.1-.1-.2-.2-.1-.3.2-.2.3-.3.4-.5.1-.1.3-.2.4-.1.4.2.7.4 1 .6.1.1.2.2.1.3-.1.2-.2.3-.3.5-.1.1-.3.2-.5.1zm-.8 1.3l-1.2-.6c-.2-.1-.2-.2-.1-.4s.2-.4.3-.5c.1-.1.3-.2.4-.1.4.2.7.4 1.1.6.2.1.2.2.1.3-.1.2-.2.3-.3.5 0 .3-.2.3-.3.2zm-.9 1.3c-.4-.2-.7-.4-1.2-.6-.2-.1-.2-.3-.1-.3.2-.2.3-.4.4-.5.1-.1.3-.2.4-.1.4.2.7.5 1.1.6.2.1.2.3.2.3-.1.2-.2.3-.4.5-.1.2-.2.2-.4.1zm-.8 1.4l-1.2-.6c-.1-.1-.2-.3-.1-.4.1-.2.2-.3.3-.5.1-.1.3-.2.5-.1.4.2.7.4 1.1.6.2.1.2.2.2.3-.1.2-.2.4-.4.6-.1.2-.3.2-.4.1zm-1 1.5l-1.2-.6c-.2-.1-.2-.3-.1-.4.1-.2.2-.4.4-.6.1-.1.2-.1.4 0l1.2.6c.2.1.2.3.1.4-.1.1-.2.4-.3.5-.2.1-.4.2-.5.1zm-.9 1.5c-.4-.2-.8-.4-1.2-.7-.2-.1-.2-.2-.2-.4.1-.2.3-.4.4-.6.1-.2.3-.2.4-.1.5.2.8.4 1.2.6.2.1.2.2.1.4-.1.1-.2.4-.4.6 0 .3-.2.3-.3.2zm-.9 1.6c-.5-.2-.9-.4-1.2-.7-.2-.1-.2-.3-.1-.4l.3-.6c.1-.2.3-.2.5-.1.5.2.8.4 1.3.7.2.1.2.2.1.4s-.2.4-.4.6c-.2.1-.4.2-.5.1zm-1 1.7c-.4-.2-.9-.5-1.3-.7-.2-.1-.2-.2-.1-.4s.3-.5.4-.7c0-.1.2-.1.4-.1.4.2.8.4 1.3.7.2.1.2.2.2.4-.1.2-.3.5-.4.7-.1.1-.3.2-.5.1zm-1 1.7c-.5-.2-.9-.4-1.3-.7-.2-.1-.3-.3-.2-.4.1-.2.3-.4.4-.6.1-.2.3-.2.5-.1.4.2.9.4 1.3.6.2.1.2.3.1.5s-.2.4-.4.7c-.1.1-.2.1-.4 0zm-1 1.8c-.4-.2-.9-.4-1.4-.7-.2-.1-.2-.3-.2-.4.1-.3.3-.5.4-.7.1-.1.3-.2.5-.1.4.2.9.5 1.3.7.2.1.2.3.2.4-.1.2-.2.5-.4.7 0 .2-.2.2-.4.1zm-1 1.9c-.5-.2-.9-.5-1.4-.7-.2-.1-.3-.3-.2-.5.2-.3.3-.5.4-.7.1-.2.3-.2.4-.1l1.5.6c.2.1.2.3.1.5s-.2.4-.3.7c-.1.3-.3.3-.5.2zm-1.1 2.1c-.5-.2-1-.5-1.4-.7-.2-.1-.3-.3-.2-.5.2-.3.3-.5.4-.8.1-.1.3-.2.5-.1.5.2.9.5 1.4.7.2.1.3.3.2.4-.1.3-.3.5-.4.8 0 .2-.3.3-.5.2zm-1 2.1c-.5-.2-1-.5-1.5-.7-.2-.1-.2-.4-.1-.5.1-.3.2-.6.4-.8.1-.2.3-.2.5-.1.5.2 1 .5 1.5.7.2.1.3.3.2.5-.1.2-.2.5-.3.8-.2.1-.5.2-.7.1zm-.8 2.2c-.5-.2-1-.5-1.5-.8-.2-.1-.3-.3-.2-.5.1-.3.2-.6.3-.8.1-.2.3-.3.5-.2.5.3 1 .5 1.5.7.2.1.2.3.2.5-.1.2-.2.5-.3.8-.1.3-.3.4-.5.3zm-1.1 2.4c-.5-.2-1-.5-1.6-.7-.2-.1-.2-.4-.2-.5.1-.3.3-.7.4-1 .1-.2.3-.3.5-.2.5.3 1 .6 1.5.8.2.1.4.3.3.5-.2.3-.3.7-.5 1 0 .1-.2.2-.4.1zm-1 2.6c-.6-.2-1.1-.5-1.6-.8-.2-.1-.3-.3-.2-.6.1-.3.3-.7.4-.9.1-.2.3-.3.5-.2.6.2 1.1.5 1.7.7.2.1.3.4.2.6-.1.2-.2.6-.4.9-.2.3-.4.4-.6.3zm-1 2.5c-.6-.3-1.2-.5-1.7-.8-.2-.1-.4-.3-.3-.5.2-.4.4-.8.5-1.1.1-.2.3-.3.5-.2.6.2 1 .6 1.6.8.2.1.3.4.3.5-.1.4-.3.7-.4 1.1-.1.3-.3.3-.5.2zm-1 2.9c-.6-.2-1.2-.5-1.8-.7-.2-.1-.3-.5-.1-.8.2-.4.2-.7.4-1 .1-.3.4-.4.6-.3.6.3 1.2.5 1.7.7.2.1.3.4.2.7-.1.3-.2.6-.4 1-.1.3-.4.5-.6.4zM13.7 79c.2.1.5.1.6-.3.1-.4.3-.8.4-1.1.1-.2 0-.6-.2-.7-.6-.2-1.2-.5-1.7-.8-.3-.1-.5.1-.6.3-.1.3-.3.7-.4 1.1-.1.2 0 .6.2.7.5.4 1.2.6 1.7.8zm-1 3.2c.2.1.5-.1.6-.3.1-.4.1-.7.3-1.1.1-.3 0-.6-.2-.7-.6-.3-1.2-.5-1.8-.8-.2-.1-.5.1-.6.4-.2.4-.2.8-.4 1.2-.1.3 0 .5.2.7.7 0 1.2.4 1.9.6zm-1 3.3c.2.1.5 0 .6-.4.1-.5.2-.9.3-1.2.1-.3 0-.7-.3-.8-.6-.2-1.2-.5-1.9-.8-.3 0-.5 0-.6.3-.1.4-.3.8-.4 1.3-.1.4 0 .7.2.8.8.3 1.5.5 2.1.8zm-1.1 3.6c.3.1.5-.1.6-.4.1-.5.3-1 .5-1.5 0-.2 0-.6-.3-.7-.7-.3-1.2-.6-1.9-.7-.3-.1-.6.2-.6.3-.2.5-.3.9-.5 1.5-.1.2 0 .6.3.7.6.3 1.2.6 1.9.8zM9.4 93c.3.1.5-.1.6-.5.2-.6.3-1 .4-1.5.1-.3 0-.7-.2-.8-.7-.2-1.3-.5-2.1-.8-.2-.1-.5.1-.6.4-.2.5-.3.9-.5 1.5-.1.3.1.7.4.8.7.3 1.3.6 2 .9zm69.7-75.3c-.1 0-.1-.1-.2-.1H79.2c.1 0 .1.1.2.1h-.2-.1zm-.6-.1c-.1 0-.1-.1-.2-.1h.4c.1.1.1.1.2.1h-.2c-.1.1-.2.1-.2 0zm-.6 0l-.2-.2h.4c.1 0 .2.1.2.1h-.2c-.1.2-.2.2-.2.1zm-.5.1c-.1 0-.1-.1-.2-.2v-.1h.4c.1 0 .2.1.2.1h-.2c-.1.2-.2.2-.2.2zm-.4.1c-.1 0-.2-.1-.2-.1v-.1c.1 0 .1-.1.2-.1h.1c.1.1.2.1.2.2-.1.1-.2.1-.3.1.1 0 0 0 0 0zm-.5.1l-.2-.2c.1 0 .1 0 .2-.1h.1c.1 0 .2.1.2.1v.1h-.2c0 .1-.1.1-.1.1zm-.4.1c-.1-.1-.2-.1-.2-.2v-.1H76.2c.1.1.2.1.2.2v.1h-.2-.1zm-.5.1c-.1-.1-.2-.1-.2-.2H75.7c.1.1.2.1.2.2h-.2-.1zm-.5.1c-.1-.1-.2-.1-.2-.2v-.1c.1 0 .1 0 .2-.1h.1l.2.2s.1 0 0 .1c-.1 0-.1 0-.2.1h-.1zm-.4.1c-.1-.1-.2-.1-.3-.2V18c.1 0 .1 0 .2-.1h.1c.1 0 .2.1.3.2-.1 0-.1 0-.2.1 0 .2-.1.2-.1.1zm-.5.2c-.1-.1-.2-.1-.3-.2v-.1H74.2c.1.1.2.1.2.2v.1c-.1 0-.1 0-.2.1.1-.1.1-.1 0-.1zm-.5.1c-.1-.1-.2-.1-.3-.2v-.1c.1 0 .1 0 .2-.1h.1c.1.1.2.1.3.2v.1h-.2c0 .1 0 .1-.1.1zm-.5.1c-.1-.1-.2-.1-.3-.2v-.1H73.2c.1.1.2.1.3.2v.1c-.1 0-.1 0-.2.1 0-.1-.1-.1-.1-.1zm-.5.1c-.1-.1-.2-.1-.3-.2v-.1c.1 0 .1 0 .2-.1h.1c.1.1.2.1.3.2v.1h-.2c0 .2 0 .2-.1.1zm-.5.2c-.1-.1-.2-.1-.3-.2v-.1c.1 0 .1 0 .2-.1h.1c.1.1.2.1.3.2v.1c-.1 0-.1 0-.2.1h-.1zm-.5.1c-.1-.1-.2-.1-.3-.2v-.1c.1 0 .2-.1.2-.1h.2c.1.1.2.1.3.2v.1c-.1 0-.1 0-.2.1s-.1 0-.2 0zm-.5.1c-.1-.1-.2-.1-.3-.2-.1 0-.1 0 0-.1h.4c.1.1.2.1.3.2v.1h-.2c-.1.1-.1.1-.2 0zm-.5.2c-.1-.1-.2-.1-.3-.2v-.1c.1 0 .1 0 .2-.1h.1c.1.1.2.1.3.2v.1c-.1 0-.1 0-.2.1h-.1zm-.4.2c-.1-.1-.2-.2-.3-.2-.1 0 0-.1 0-.1.1 0 .1-.1.1-.1h.1c.1.1.2.1.3.2v.1c-.1 0-.1.1-.2.1.1.1 0 .1 0 0zm-.4.3c-.1-.1-.2-.2-.3-.2v-.1c.1 0 .1-.1.1-.1h.1c.1.1.2.1.3.2v.1s-.1 0-.1.1h-.1zm-.4.2c-.1-.1-.2-.1-.3-.2 0 0-.1-.1 0-.1s.1-.1.1-.1h.1c.1.1.2.1.3.2v.1l-.1.1s-.1.1-.1 0zm-.4.3c-.1-.1-.2-.1-.3-.2-.1 0-.1-.1 0-.1s.1-.1.2-.1h.1c.1.1.2.1.3.2 0 0 .1.1 0 .1s-.1.1-.2.1h-.1zm-.5.2c-.1-.1-.2-.1-.3-.2-.1 0-.1-.1 0-.1s.1-.1.2-.1h.2c.1.1.2.1.3.2 0 0 .1.1 0 .1 0 0-.1.1-.2.1 0 .1-.1.1-.2 0zm-.4.3c-.1-.1-.2-.2-.3-.2-.1 0-.1-.1 0-.1s.1-.1.2-.1h.1c.1.1.2.1.3.2v.1c-.1 0-.1.1-.2.1 0 0-.1.1-.1 0zm-.4.3c-.1-.1-.2-.2-.4-.2 0 0-.1-.1 0-.1.1-.1.1-.1.2-.1h.1c.1.1.2.1.4.2 0 0 .1.1 0 .1s-.1.1-.2.1h-.1zm-.5.3c-.1-.1-.2-.2-.4-.2-.1 0-.1-.1 0-.1s.1-.1.2-.1h.2c.1.1.2.2.3.2 0 0 .1.1 0 .1s-.1.1-.2.1h-.1zm-.4.3c-.1-.1-.3-.2-.4-.2-.1 0 0-.1 0-.1.1 0 .1-.1.2-.1h.1c.1.1.3.2.4.2 0 0 .1.1 0 .1s-.1.1-.2.1h-.1zm-.5.3c-.1-.1-.2-.2-.4-.2-.1 0-.1-.1 0-.1s.1-.1.2-.1h.2c.1.1.2.2.4.2v.1s-.1.1-.2.1h-.2zm-.5.3c-.1-.1-.3-.2-.4-.3-.1 0-.1-.1 0-.1.1-.1.1-.1.2-.1h.2c.1.1.3.2.4.2.1 0 .1.1 0 .1 0 0-.1.1-.2.1-.1.1-.1.1-.2.1zm-.5.3c-.1-.1-.3-.2-.4-.3-.1 0-.1-.1 0-.1.1-.1.1-.1.2-.1h.2c.1.1.3.2.4.3 0 0 .1.1 0 .1s-.1.1-.2.1h-.2zm-.4.3c-.1-.1-.3-.2-.4-.3v-.1c.1 0 .1-.1.2-.1h.2c.1.1.3.2.4.2.1 0 .1.1 0 .1 0 0-.1.1-.2.1-.1.1-.2.1-.2.1zm-.6.3c-.1-.1-.3-.2-.4-.3v-.1c.1 0 .1-.1.2-.1h.2c.1.1.2.2.4.3 0 0 .1.1 0 .1s-.1.1-.2.1c0 0-.1.1-.2 0zm-.5.4c-.1-.1-.3-.2-.4-.3-.1 0-.1-.1 0-.1s.1-.1.2-.1h.2c.2.1.3.2.4.3.1 0 .1.1 0 .1 0 0-.1.1-.2.1h-.2zm-.4.4c-.2-.1-.3-.2-.5-.3v-.1c.1 0 .1-.1.1-.2h.2c.1.1.3.2.4.3.1 0 .1.1 0 .1l-.2.2c.1 0 .1 0 0 0zm-.4.4c-.2-.1-.3-.2-.4-.3-.1 0 0-.1 0-.1l.2-.2c0-.1.1 0 .2 0 .2.1.3.2.4.3.1 0 .1.1 0 .1-.1.1-.1.1-.1.2h-.3zm-.4.4c-.1-.1-.3-.2-.4-.3-.1 0-.1-.1 0-.1l.2-.2h.1c.2.1.3.2.5.3.1 0 .1.1.1.1-.1.1-.1.2-.2.2-.1.1-.2.1-.3 0zm-.4.5c-.2-.1-.3-.2-.4-.3-.1 0-.1-.1 0-.1.1-.1.1-.1.1-.2h.2c.1.1.3.2.4.3.1 0 .1.1 0 .1 0 0-.1.1-.1.2h-.2zm-.4.4c-.1-.1-.3-.2-.4-.3-.1 0-.1-.1 0-.1.1-.1.1-.1.1-.2.1-.1.1-.1.2 0 .2.1.3.2.5.3.1 0 .1.1 0 .2l-.2.2c-.1 0-.2 0-.2-.1zm-.4.5c-.2-.1-.3-.2-.5-.3-.1 0-.1-.1 0-.1l.2-.2c0-.1.1-.1.2 0 .2.1.3.2.5.3.1 0 .1.1.1.1l-.2.2c-.2.1-.3 0-.3 0zm-.5.5c-.2-.1-.3-.2-.5-.3-.1 0-.1-.1 0-.2l.2-.2h.2c.2.1.3.2.5.3.1 0 .1.1 0 .1l-.2.2c0 .1-.1.1-.2.1zm-.4.5c-.2-.1-.4-.2-.5-.3-.1 0-.1-.1 0-.1l.2-.2h.2c.1.1.3.2.5.3.1 0 .1.1 0 .2l-.2.2c-.1-.1-.2-.1-.2-.1zm-.5.5c-.2-.1-.3-.2-.5-.3-.1 0-.1-.1-.1-.1l.2-.2h.2c.2.1.4.2.5.3.1 0 .1.1.1.2l-.2.2c0-.1-.1-.1-.2-.1zm-.4.5c-.2-.1-.4-.2-.5-.3-.1 0-.1-.1-.1-.2l.2-.2h.2c.2.1.3.2.5.3.1 0 .1.1.1.2l-.2.2h-.2zm-.5.5c-.2-.1-.3-.2-.5-.3-.1-.1-.1-.1-.1-.2l.2-.2s.1-.1.2 0c.2.1.3.2.5.3.1 0 .1.1 0 .2l-.2.2c0 .1-.1.1-.1 0zm-.5.6l-.6-.3c-.1 0-.1-.1-.1-.2l.2-.2c.1-.1.2-.1.2 0 .2.1.4.2.5.3.1 0 .1.1.1.2l-.2.2h-.1zm-.5.5c-.2-.1-.4-.2-.5-.3-.1-.1-.1-.1-.1-.2s.1-.1.2-.2c.1 0 .1-.1.2 0 .2.1.4.2.5.3.1 0 .1.1 0 .2l-.2.2c.1.1 0 .1-.1 0zm-.5.6l-.6-.3c-.1-.1-.1-.2 0-.2l.2-.2c.1-.1.1 0 .2 0l.6.3c.1 0 .1.1 0 .2l-.2.2h-.2zm-.5.6c-.2-.1-.4-.3-.6-.4-.1 0-.1-.1 0-.2l.2-.2s.2-.1.2 0c.2.1.4.3.6.4.1 0 .1.1.1.1-.1.1-.1.2-.2.2-.2.1-.2.2-.3.1zm-.5.6l-.6-.3c-.1 0-.1-.1 0-.2s.1-.2.2-.2h.2c.2.1.4.2.6.4.1.1.1.1 0 .2l-.2.2c-.1 0-.1 0-.2-.1zm-.4.7c-.2-.1-.4-.3-.6-.4-.1-.1-.1-.1-.1-.2.1-.1.1-.2.2-.2 0-.1.1-.1.2 0 .2.1.4.2.6.4.1.1.1.2.1.2 0 .1-.1.2-.2.3-.1 0-.2 0-.2-.1zm-.5.7c-.2-.1-.4-.3-.6-.4-.1-.1-.1-.1-.1-.2.1-.1.1-.2.2-.3 0-.1.1-.1.2 0 .2.1.4.3.6.4.1.1.1.1.1.2s-.1.2-.2.3c0 .1-.1.1-.2 0zm-.4.8c-.2-.1-.4-.3-.6-.4-.1-.1-.1-.1-.1-.2.1-.1.1-.2.2-.3 0-.1.1-.1.2 0 .2.1.4.3.6.4.1 0 .1.1.1.2s-.1.2-.1.3h-.3zm-.4.7c-.2-.1-.4-.3-.7-.4-.1-.1-.1-.1-.1-.2.1-.1.1-.2.2-.3 0 0 .1-.1.2 0 .2.1.4.3.7.4.1 0 .1.1.1.2-.1.1-.2.2-.2.3 0 0-.2.1-.2 0zm-.5.8c-.2-.1-.4-.3-.7-.4-.1 0-.1-.2-.1-.2.1-.1.1-.2.2-.3 0-.1.2-.1.2 0 .2.1.4.3.7.4.1 0 .1.1.1.2s-.1.2-.2.3h-.2zm-.5.8c-.2-.1-.4-.3-.7-.4-.1-.1-.1-.2-.1-.2.1-.1.1-.2.2-.3 0-.1.1-.1.2 0 .2.1.5.3.7.4.1.1.1.2.1.2-.1.1-.1.2-.2.3H54zm-.4.8c-.2-.2-.5-.2-.7-.4-.1-.1-.1-.2-.1-.3.1-.1.1-.2.2-.3.1-.1.2-.1.2 0 .2.1.5.2.7.4.1.1.1.1.1.2s-.1.2-.2.3c0 .1-.1.2-.2.1zm-.5.9c-.2-.2-.5-.3-.7-.4-.1-.1-.1-.2-.1-.2.1-.1.1-.2.2-.3 0-.1.1-.1.2 0 .2.1.5.3.7.4.1.1.1.2.1.2-.1.1-.1.2-.2.3h-.2zm-.5.8c-.2-.1-.5-.3-.7-.4-.1 0-.1-.2-.1-.2.1-.1.2-.2.2-.3 0-.1.1-.1.2 0 .2.1.5.3.8.4.1.1.1.2.1.3 0 .1-.1.2-.1.3-.2 0-.3 0-.4-.1zm-.5.9c-.3-.2-.5-.3-.8-.4-.1-.1-.1-.2-.1-.3.1-.1.1-.2.2-.3.1-.1.1-.1.3-.1.3.1.5.3.7.4.1.1.2.1.1.2s-.1.2-.2.4c0 .1-.1.2-.2.1zm-.5.9c-.3-.2-.5-.3-.8-.5-.1-.1-.1-.1-.1-.2.1-.1.2-.3.2-.4 0-.1.1-.1.2 0 .3.1.5.3.8.4.1.1.1.2.1.2-.1.1-.1.3-.2.4 0 .2-.1.2-.2.1zm-.5 1c-.3-.2-.5-.3-.8-.4-.1-.1-.1-.2-.1-.3.1-.1.1-.2.2-.3.1-.1.2-.1.3 0 .2.2.5.3.8.4.1.1.1.2.1.3 0 .1-.1.2-.2.4-.1 0-.2 0-.3-.1zm-.5 1c-.3-.2-.5-.3-.8-.5-.1-.1-.1-.2-.1-.3.1-.2.2-.3.2-.4 0-.1.2-.1.3 0 .3.1.5.3.8.5.1 0 .1.2.1.3-.1.1-.1.2-.2.4h-.3zm-.5 1c-.3-.1-.6-.3-.8-.4-.1-.1-.1-.2-.1-.3.1-.1.1-.2.2-.4.1-.1.2-.1.3 0 .3.2.5.3.8.4.1.1.1.2.1.3-.1.1-.1.2-.2.4-.1.1-.2.1-.3 0zm-.5 1.1c-.3-.2-.6-.3-.8-.5-.1-.1-.2-.2-.2-.3.1-.2.2-.3.2-.4.1-.1.2-.1.3-.1.3.2.5.3.8.5.1.1.2.2.1.3-.1.1-.1.2-.2.4 0 .1-.1.1-.2.1zm-.6 1.1c-.3-.2-.6-.3-.9-.5-.1-.1-.2-.2-.1-.3.1-.2.1-.3.2-.4.1-.1.2-.1.3 0 .3.2.6.3.9.5.1.1.2.2.1.3-.1.1-.2.3-.3.5 0-.1-.1 0-.2-.1zm-.5 1.2c-.3-.2-.6-.4-.9-.5-.1-.1-.2-.2-.2-.3 0-.2.1-.3.2-.5 0-.1.2-.1.3-.1.3.2.6.4.9.5.1.1.2.2.1.3 0 .1-.1.3-.2.4.1.2 0 .2-.2.2zm-.4 1.2c-.3-.2-.6-.3-.9-.5-.2 0-.2-.2-.2-.3.1-.2.1-.4.2-.5 0-.1.2-.1.3-.1.3.2.6.4.9.5.1.1.2.2.2.3-.1.2-.1.4-.2.5 0 .2-.2.2-.3.1zm-.5 1.3c-.3-.2-.6-.4-.9-.5-.1-.1-.2-.2-.2-.3.1-.2.1-.3.2-.5 0-.1.2-.1.3-.1.3.2.6.4.9.5.1.1.2.2.2.3-.1.2-.1.3-.2.5 0 .1-.1.2-.3.1zm-.4 1.3c-.4-.1-.7-.3-1-.5-.1-.1-.2-.2-.2-.3.1-.2.1-.4.2-.5 0-.2.2-.1.3-.1.3.2.6.3 1 .5.1.1.1.2.1.4-.1.2-.1.3-.1.5 0 0-.2.1-.3 0zm-.5 1.4c-.3-.2-.7-.4-1-.5-.1-.1-.2-.2-.1-.4 0-.2.1-.3.2-.5 0-.1.2-.2.3-.1.3.2.7.4 1 .5.1.1.2.2.2.3 0 .2-.1.3-.2.5-.1.3-.3.3-.4.2zm-.5 1.4c-.3-.2-.7-.4-1-.6-.1-.1-.2-.2-.2-.3.1-.2.1-.4.2-.5 0-.2.2-.2.3-.1.3.2.7.4 1 .6.1.1.2.2.1.4 0 .1-.1.3-.2.5.1.1 0 .1-.2 0zm-.4 1.5c-.3-.2-.7-.4-1-.5-.1-.1-.2-.2-.2-.4s.1-.4.2-.6c0-.1.2-.1.3 0 .4.2.7.3 1 .5.1.1.2.3.2.4 0 .2-.1.4-.2.6 0 .1-.2.1-.3 0zm-.5 1.6c-.4-.2-.7-.4-1.1-.6-.1-.1-.2-.2-.2-.4.1-.2.1-.4.2-.6 0-.1.2-.2.3-.1.4.2.7.4 1 .6.1.1.2.3.2.4-.1.2-.1.4-.2.6.1.1-.1.2-.2.1zm-.5 1.6c-.4-.2-.7-.4-1.1-.5-.1-.1-.2-.3-.1-.4 0-.2.1-.4.1-.6 0-.1.2-.2.3-.1.4.2.7.4 1.1.6.1.1.2.3.2.4-.1.2-.1.4-.2.6 0 0-.2.1-.3 0zm-.4 1.6l-1.2-.6c-.1-.1-.2-.2-.2-.4.1-.2.1-.5.2-.6 0-.2.2-.2.3-.1.4.2.7.4 1.1.6.1.1.2.2.2.4s-.1.3-.1.6c-.1.2-.2.2-.3.1zm-.6 1.8c-.4-.2-.7-.4-1.1-.6-.1-.1-.2-.3-.2-.4.1-.3.2-.5.2-.7.1-.2.2-.2.4-.2.4.2.7.4 1.1.6.1.1.2.2.2.4-.1.2-.1.4-.2.7 0 .2-.2.3-.4.2zm-.4 1.8l-1.2-.6c-.2-.1-.3-.3-.2-.4.1-.2.2-.5.3-.8 0-.1.2-.2.3-.1.4.2.8.4 1.1.6.2.1.2.2.2.4-.1.2-.1.5-.2.8 0 .1-.2.2-.3.1zm-.5 1.9l-1.2-.6c-.2-.1-.3-.3-.2-.5.1-.2.1-.5.2-.7 0-.2.2-.3.4-.2.4.3.8.5 1.2.7.1.1.2.2.2.4s-.1.4-.1.6c-.2.3-.3.3-.5.3zm-.5 2c-.4-.2-.8-.5-1.2-.7-.2-.1-.3-.4-.2-.4.1-.3.2-.6.2-.8.1-.2.2-.2.4-.2.4.2.8.5 1.2.6.2.1.2.3.2.4-.1.3-.2.6-.2.8-.1.2-.3.4-.4.3zm-.5 2c-.4-.2-.8-.4-1.3-.6-.2-.1-.3-.3-.2-.5.1-.3.1-.6.2-.8.1-.2.2-.3.4-.2.4.2.8.5 1.3.7.1.1.3.3.2.4-.1.3-.1.5-.2.8-.1.2-.3.3-.4.2zm-.5 2.1c-.5-.2-.9-.4-1.4-.6-.2-.1-.2-.3-.2-.5.1-.3.1-.5.2-.8 0-.1.2-.2.3-.1.4.2.8.4 1.3.7.1.1.3.3.2.4-.1.3-.1.5-.2.8.1.2 0 .2-.2.1zm-.4 2.3c-.5-.2-.9-.4-1.3-.6-.2-.1-.3-.3-.2-.5.1-.4.2-.7.2-.9 0-.2.2-.2.4-.2.4.2.9.4 1.3.6.2.1.3.3.2.5-.1.3-.1.5-.2.9-.1.2-.3.3-.4.2zm-.5 2.5c-.5-.2-.9-.4-1.4-.6-.2-.1-.3-.4-.2-.6 0-.3.1-.6.2-.9 0-.2.2-.3.4-.2.5.2.9.4 1.4.6.2.1.2.3.2.5 0 .3-.1.5-.2.9-.1.3-.2.3-.4.3zm-.4 2.5c-.5-.2-1-.5-1.4-.7-.2-.1-.3-.3-.3-.5.1-.3.2-.8.2-1 0-.2.2-.2.4-.2.5.2.9.4 1.4.7.2.1.3.3.3.5-.1.3-.1.6-.2 1 0 .1-.2.2-.4.2zm-.3 2.5c-.5-.2-1-.4-1.4-.7-.2-.1-.3-.4-.3-.6.1-.3.1-.6.1-.9 0-.3.2-.3.4-.2.4.3 1 .4 1.4.6.2.1.3.3.3.6s0 .6-.1 1c-.1.2-.2.3-.4.2zm-.4 2.8c-.5-.2-1-.5-1.5-.7-.2-.1-.3-.3-.2-.6.1-.4.1-.8.2-1.1 0-.1.2-.3.4-.2l1.5.6c.2.1.3.4.3.6-.1.3-.1.7-.1 1.1-.2.3-.4.4-.6.3zm-.4 2.9c-.5-.2-1-.4-1.5-.7-.2-.1-.3-.4-.3-.7.1-.3.1-.7.2-1.1.1-.3.2-.4.4-.3.5.2 1 .4 1.5.7.2.1.3.4.3.7 0 .3-.1.6-.1 1-.1.4-.3.5-.5.4zm-.3 3c.2.1.4-.1.4-.3.1-.5.1-.8.1-1.2 0-.2-.1-.6-.3-.7l-1.5-.6c-.2-.1-.4.1-.4.3 0 .3 0 .7-.1 1.1 0 .2.1.5.3.6.4.3.9.6 1.5.8zm-.4 3.1c.2.1.4-.1.5-.4.1-.4 0-.8.1-1.1 0-.3-.1-.5-.3-.6-.5-.3-1-.6-1.6-.8-.2-.1-.3.1-.4.4-.1.4-.1.7-.2 1.3 0 .2.1.5.3.6.6.1 1.1.4 1.6.6zm-.3 3.5c.2.1.4 0 .4-.4.1-.4.1-.9.1-1.2 0-.4-.1-.7-.3-.8-.5-.3-1.1-.5-1.6-.6-.2 0-.4 0-.4.4-.1.4-.1.9-.1 1.3-.1.4.1.7.3.8.5.1 1.1.3 1.6.5zm-.2 3.6c.2.1.4 0 .4-.3 0-.5.1-1.1.1-1.5 0-.2-.1-.6-.3-.7-.6-.2-1.1-.5-1.7-.7-.2-.1-.5.2-.5.5 0 .4-.1.9-.1 1.4 0 .2.1.5.4.7.6.2 1.1.4 1.7.6zm-.1 3.8c.2.1.4 0 .4-.4 0-.6.1-1 .1-1.4 0-.3-.2-.7-.4-.8-.6-.3-1.1-.5-1.7-.7-.2-.1-.4 0-.4.4 0 .5-.1.9-.1 1.6 0 .2.2.6.4.7.5.2 1 .3 1.7.6zm-.2 4.1c-.6-.2-1.2-.6-1.8-.7-.2-.1-.4-.4-.4-.9.1-.6 0-1 .1-1.5 0-.4.2-.5.4-.4.6.2 1.2.3 1.8.6.2.1.4.4.4.8 0 .5-.1 1.1-.1 1.6 0 .3-.2.6-.4.5zm38.6-90.5c-.4-.3-.8-.6-1.3-.9-.4-.3-.8-.5-1.3-.8-.1 0-.1-.1.1-.1.8-.1 2 0 3.1.1.1 0 .3.1.4.1.3.2.7.5 1.1.7.4.2.7.5 1.1.7.1 0 0 .1-.1.1-1 0-2-.1-2.7.1h-.4zm-3.2.7c-.5-.3-1-.6-1.5-1-.5-.3-1-.7-1.5-1-.1-.1 0-.1.1-.1 1-.1 1.9-.2 2.8-.3.1 0 .2 0 .3.1.4.3.9.6 1.3.9.4.3.9.6 1.3.9.1 0 0 .1 0 .1l-2.4.6c-.1-.2-.3-.2-.4-.2zm-3.4.9c-.6-.4-1.1-.8-1.7-1.1-.6-.4-1.2-.8-1.7-1.1-.1-.1-.1-.2 0-.2.9-.2 1.9-.4 3-.5.1 0 .3 0 .4.1.5.3 1 .7 1.5 1 .5.4 1 .7 1.5 1 .1.1.1.1 0 .1-.9.2-1.8.4-2.6.7-.2.1-.3.1-.4 0zm-2.9 1.7c-.7-.4-1.3-.9-2-1.3s-1.3-.9-2-1.3c-.1-.1-.1-.2 0-.2 1-.4 1.8-.7 2.7-1h.3l1.8 1.2c.6.4 1.2.8 1.7 1.2.1.1.1.2 0 .2-.7.4-1.5.9-2.2 1.3-.1 0-.2 0-.3-.1zm-3.4 1.9c-.8-.5-1.6-1-2.3-1.5-.8-.5-1.6-1-2.3-1.5-.1-.1-.1-.2 0-.2 1.1-.4 2.1-.8 3.1-1.2.1-.1.3 0 .5 0 .7.5 1.4.9 2.1 1.3.7.5 1.4.9 2 1.3.1.1.1.2 0 .2-.8.5-1.6 1-2.5 1.5-.3.2-.4.2-.6.1zm-2.9 2.9c-.9-.6-1.8-1.1-2.7-1.7-.9-.6-1.8-1.1-2.7-1.7-.2-.1-.2-.2-.1-.3 1-.7 1.9-1.3 2.8-1.8.1-.1.3-.1.5 0l2.4 1.5c.8.5 1.5 1 2.3 1.5.1.1.1.2.1.3l-2.2 2.2h-.4zM57 28.9c-1.1-.6-2.1-1.3-3.1-1.9-1-.7-2.1-1.3-3.2-2-.2-.1-.2-.3-.1-.4 1.1-.8 2.2-1.5 3.2-2.2.1-.1.3-.1.5 0 .9.6 1.9 1.1 2.8 1.7.9.6 1.8 1.2 2.7 1.7.2.1.2.2.1.3-.8.8-1.6 1.7-2.5 2.6 0 .3-.3.3-.4.2zm-3.4 4.2c-1.2-.7-2.4-1.4-3.6-2.2-1.2-.7-2.4-1.5-3.7-2.2-.2-.1-.3-.3-.1-.5 1.1-1 2.1-2 3.3-2.8.1-.1.4-.1.6 0 1.1.7 2.2 1.3 3.2 2 1.1.7 2.1 1.3 3.2 2 .2.1.2.3.1.4-.9 1-1.7 2.1-2.4 3.3-.1.1-.4.2-.6 0zm-3.4 5.4c-1.4-.8-2.8-1.7-4.2-2.5-1.4-.9-2.9-1.7-4.4-2.6-.3-.2-.3-.4-.2-.5 1.3-1.3 2.5-2.5 3.7-3.6.1-.1.4-.2.7 0 1.3.8 2.5 1.5 3.8 2.3 1.2.8 2.5 1.5 3.7 2.2.2.1.3.3.2.5-.8 1.3-1.7 2.7-2.5 4.1-.3.2-.6.3-.8.1zm-3.8 6.8c-1.6-.9-3.3-1.9-5-2.8-1.7-1-3.4-2-5.2-3-.3-.2-.4-.5-.3-.7 1.4-1.6 2.8-3.1 4.2-4.5.2-.1.5-.2.7-.1 1.5.9 3 1.7 4.5 2.6 1.4.9 2.9 1.7 4.3 2.6.2.1.3.4.2.6-.9 1.6-1.9 3.3-2.8 5.1 0 .2-.3.3-.6.2zm-3.5 8.9c-2-1-4-2.1-6-3.2s-4.1-2.2-6.1-3.3c-.3-.2-.5-.6-.4-.8 1.4-2.2 2.8-4.3 4.2-6.3.2-.2.6-.3.8-.1l5.4 3c1.7 1 3.4 1.9 5.1 2.9.3.2.5.5.4.8-.8 2.2-1.7 4.4-2.6 6.9-.1.2-.5.3-.8.1zm-3.7 11.7c-2.3-1.1-4.6-2.4-7.1-3.6-2.4-1.2-4.8-2.5-7.3-3.7-.4-.2-.6-.7-.4-1 1.6-2.9 3.1-5.7 4.6-8.3.2-.4.7-.5 1-.2 2.2 1.1 4.2 2.2 6.3 3.3 2.1 1.1 4.1 2.2 6.1 3.3.3.2.5.6.4 1-.9 2.7-1.8 5.8-2.7 8.9-.1.2-.5.4-.9.3zm-3.5 15.7c.5.2.9-.1 1-.7.7-4.3 1.6-8.4 2.5-12 .1-.4-.1-.9-.5-1.1-2.3-1.2-4.8-2.4-7.2-3.6-2.4-1.2-4.9-2.5-7.5-3.7-.4-.2-1 0-1.1.4-1.6 3.5-3.2 7.4-4.8 11.6-.2.6 0 1.3.5 1.5 1.5.7 3 1.3 4.4 2 1.5.7 2.9 1.3 4.3 2 2.8 1.1 5.7 2.3 8.4 3.6z"/><path fill="#1C75B9" d="M74.1 37.3c1.2-1.3 2.5-2.6 3.8-3.9 1.3-1.3 2.6-2.6 3.9-4l4.1-4.1 4.1-4.1c.5-.5 1.5-.4 2.1.1 5 4.2 9.5 7.9 13.5 11.5.5.5.6 1.2.2 1.5-1.2 1.1-2.5 2.2-3.7 3.3-1.3 1.1-2.5 2.1-3.7 3.2-1.2 1.1-2.4 2.1-3.6 3.2-1.2 1.1-2.3 2.1-3.5 3.2-.4.3-1.1.4-1.6 0-4.4-2.7-9.4-5.6-14.8-8.5-.8-.2-1.2-.9-.8-1.4zm19.5-22.8c-.4.6-.9 1-1.4 1.5.2-.1.5-.1.8.2l1.2.9c.2.2.2.5 0 .6-.6.5-.9 1.2-1.5 1.7-.2.2-.6.1-.9-.1-.4-.3-.8-.6-1.1-.9-.4-.3-.4-.5-.2-.8.4-.5 1-1 1.5-1.5-2.3 2.2-4.6 4.4-6.8 6.5-2.2 2.1-4.4 4.2-6.5 6.3l-6.3 6c-2 1.9-4 3.9-6 5.9 7.2 3.4 13.6 6.5 19.2 9.7 5.5 3.1 10.3 6.2 14.5 9.1 7.8 5.5 13.9 10.4 18.6 15 3.8 3.6 6.7 7.2 9.1 10.4 2.3 3.2 4 6.2 5.3 9 2.1 4.8 3 9.3 2.7 13.6-.1 1.9-.5 3.8-1.2 5.7-.2.5-.3 1-.5 1.5 0-.1.1-.1.1-.2s0-.1.1-.1c.1-.1.1-.1.2-.1v.1c0 .1-.1.1-.1.2s-.1.1-.1.1c-.1 0-.1.1-.2.1.1 1.3-.1 2.4-.5 3.2l1-.6c1.5-2.2 2.8-4.3 3.8-6.5l-.1.1-.2.2c0-.1.1-.1.1-.2s.1-.1.1-.1c.1 0 .1-.1.2-.1 0-.1.1-.1.1-.2-.1.1-.1.1-.2.1v-.1s0-.1.1-.2l.1-.1c.1-.1.2-.1.2-.2.9-1.9 1.6-3.9 2.1-5.9.5-2 .9-4 1.1-6.1.5-4.8.2-9.9-.9-15.6-.6-3.4-1.6-7.1-3-11-1.4-4-3.2-8.5-5.7-13.1-3.2-5.8-7.6-12.1-13.4-19.2-3.1-3.8-6.7-7.7-10.9-11.9-4.1-3.9-9-8.2-14.5-12.9zm43.1 99.4c.1 0 .1-.1.2-.1v.1c0 .1-.1.1-.1.2l-.1.1c-.1 0-.1.1-.2.1v-.1c0-.1.1-.1.1-.2l.1-.1zm.3-.5c.1 0 .1-.1.2-.1v.1c0 .1-.1.1-.1.2s-.1.1-.1.1c-.1 0-.1.1-.2.1v-.1c0-.1.1-.1.1-.2l.1-.1zm.3-.6c.1 0 .1-.1.2-.1v.1c0 .1-.1.2-.1.2 0 .1-.1.1-.1.1-.1.1-.1.1-.2.1v-.1c0-.1.1-.1.1-.2.1 0 .1-.1.1-.1zm.4-.6c.1 0 .1-.1.2-.1v.1c0 .1-.1.1-.1.2s-.1.1-.1.1c-.1 0-.1.1-.2.1v-.1c.1-.1.1-.1.1-.2l.1-.1zm.3-.6c.1 0 .1-.1.2-.1v.1c-.1.1-.1.2-.1.2 0 .1-.1.1-.1.2-.1.1-.2.1-.2.1v-.1c0-.1.1-.1.1-.2s.1-.1.1-.2zm.7-1.6c.1 0 .1-.1.2-.1 0 .1-.1.2-.1.2l-.1.1c-.1 0-.2.1-.2.1 0-.1 0-.1.1-.2.1 0 .1 0 .1-.1zm.2-.5c.1 0 .2-.1.2-.1s.1 0 0 0c0 .1-.1.1-.1.2s-.1.1-.1.1c-.1.1-.2.1-.2.2 0-.1 0-.1.1-.2 0-.1.1-.2.1-.2zm.2-.5c.1 0 .2-.1.2-.1 0 .1 0 .1-.1.2l-.1.1c-.1 0-.2.1-.2.2v-.1c0-.1 0-.1.1-.2 0 0 0-.1.1-.1zm.2-.5c.1-.1.2-.1.2-.1s.1 0 0 0c0 .1-.1.1-.1.2s-.1.1-.1.1c-.1.1-.2.1-.3.2 0-.1 0-.1.1-.2s.1-.2.2-.2zm.1-.5c.1-.1.2-.1.3-.2 0 .1-.1.2-.1.2l-.1.1c-.1.1-.2.1-.3.2 0 0-.1 0 0-.1 0-.1 0-.1.1-.2h.1zm.2-.6c.1-.1.2-.1.3-.2 0 0 .1 0 0 0 0 .1-.1.1-.1.2s-.1.1-.1.1c-.1.1-.2.1-.3.2 0-.1 0-.1.1-.2l.1-.1zm.2-.5c.1-.1.2-.1.3-.2 0 0 .1 0 0 0 0 .1 0 .1-.1.2l-.1.1c-.1.1-.2.1-.3.2v-.1c0-.1 0-.1.1-.2 0 .1 0 0 .1 0zm.1-.6c.1-.1.2-.1.3-.2 0 .1 0 .2-.1.2l-.1.1c-.1.1-.2.1-.3.2v-.1c0-.1.1-.1.1-.2.1.1.1 0 .1 0zm.2-.6c.1-.1.2-.1.3-.2 0 0 .1 0 0 .1 0 .1-.1.1-.1.2l-.1.1c-.1 0-.2.1-.3.2v-.1c0-.1 0-.1.1-.2 0 0 .1 0 .1-.1zm.2-.5c.1-.1.2-.1.3-.2 0 0 .1 0 0 .1 0 .1-.1.1-.1.2s-.1.1-.1.1c-.1.1-.2.1-.3.2v-.1c0-.1 0-.1.1-.2l.1-.1zm.2-.6c.1-.1.2-.1.3-.2 0 0 .1 0 0 0 0 .1-.1.2-.1.3 0 .1-.1.1-.1.1-.1.1-.2.1-.3.2-.1 0-.1 0 0 0 0-.1 0-.2.1-.2 0-.1.1-.2.1-.2zm.2-.6c.1-.1.2-.1.3-.2 0 0 .1 0 0 0 0 .1-.1.2-.1.3l-.1.1c-.1.1-.2.1-.3.2 0 0-.1 0-.1-.1s.1-.1.1-.2c.1 0 .2-.1.2-.1zm.2-.6c.1-.1.2-.1.3-.2 0 0 .1 0 0 .1 0 .1-.1.2-.1.2s0 .1-.1.1c-.1.1-.2.1-.3.2 0 0-.1 0 0 0 0-.1 0-.1.1-.2 0-.1 0-.2.1-.2zm.1-.6c.1-.1.2-.1.3-.2h.1v.2c0 .1-.1.1-.1.1-.1.1-.2.1-.3.2 0 0-.1 0-.1-.1v-.2c0 .1 0 0 .1 0zm0-.5c.1-.1.2-.1.3-.2h.1v.2c0 .1 0 .1-.1.1-.1.1-.2.1-.3.2h-.1v-.2l.1-.1zm.1-.5c.1-.1.2-.1.3-.2h.1v.2s0 .1-.1.1c-.1.1-.2.1-.3.2h-.1v-.2s0-.1.1-.1zm0-.6c.1-.1.2-.1.3-.2h.1v.2c0 .1 0 .1-.1.1-.1.1-.2.1-.3.2-.1 0-.1 0-.1-.1v-.2c0 .1.1 0 .1 0zm0-.6c.1-.1.2-.2.3-.2h.1v.2s0 .1-.1.1c-.1.1-.2.2-.3.2h-.1v-.2c.1 0 .1-.1.1-.1zm.1-.5c.1-.1.2-.1.4-.2h.1v.3c0 .1 0 .1-.1.1-.1.1-.2.1-.3.2 0 0-.1 0-.1-.1v-.2c-.1 0-.1-.1 0-.1zm0-.6c.1-.1.2-.1.4-.2h.1v.2c0 .1 0 .1-.1.2s-.2.1-.4.2c0 0-.1 0-.1-.1v-.2l.1-.1zm.1-.6c.1-.1.2-.1.4-.2 0 0 .1 0 .1.1v.2s0 .1-.1.1c-.1.1-.2.2-.4.2h-.1v-.2c0-.1 0-.2.1-.2zm0-.6c.1-.1.2-.2.4-.3h.1v.2c0 .1 0 .1-.1.2s-.2.2-.4.2h-.1v-.2s0-.1.1-.1zm0-.7c.1-.1.2-.2.4-.2 0 0 .1 0 .1.1v.2c0 .1-.1.1-.1.1-.1.1-.3.2-.4.3h-.1v-.2c0-.2.1-.2.1-.3zm.1-.6c.1-.1.3-.2.4-.3.1 0 .1 0 .1.1v.2c0 .1-.1.2-.1.2-.1.1-.3.2-.4.2-.1.1-.1 0-.1-.1v-.2l.1-.1zm0-.6c.1-.1.3-.2.4-.3h.1v.3l-.1.1c-.1.1-.3.2-.4.3h-.1v-.3l.1-.1zm.1-.7c.1-.1.3-.2.4-.3h.1v.3s0 .1-.1.1c-.1.1-.3.2-.4.3h-.1v-.3s0-.1.1-.1zm0-.7c.1-.1.3-.2.4-.3.1 0 .1 0 .1.1v.3c0 .1-.1.2-.1.2-.1.1-.3.2-.4.3-.1 0-.1 0-.1-.1v-.2c0-.1.1-.2.1-.3zm0-.7c.1-.1.3-.2.4-.3.1 0 .1 0 .1.1v.2c0 .1-.1.2-.1.2-.2.1-.3.2-.4.3h-.1v-.3s.1-.1.1-.2zm0-.6c.1-.1.3-.2.4-.3h.1v.2c0 .1 0 .1-.1.2-.2.1-.3.2-.4.3-.1 0-.1.1-.1 0v-.2c0-.1.1-.1.1-.2zm-.1-.6c.2-.1.3-.2.5-.3h.1v.2c0 .1 0 .1-.1.2s-.3.2-.4.3h-.1v-.2c-.1-.1 0-.2 0-.2zm-.1-.7c.2-.1.3-.2.4-.3.1 0 .1 0 .1.1v.2s0 .1-.1.2c-.2.1-.3.2-.4.3h-.1v-.2c0-.2.1-.2.1-.3zm-.1-.6c.2-.1.3-.2.5-.3h.1v.2c0 .1 0 .1-.1.2-.2.1-.3.2-.5.3h-.1V92c0-.1 0-.2.1-.2zm-.1-.7c.2-.1.3-.2.5-.3.1 0 .1 0 .1.1s0 .2.1.2c0 .1 0 .2-.1.2-.2.1-.3.2-.5.3-.1 0-.1 0-.1-.1v-.3c-.1 0 0-.1 0-.1zm-.1-.7c.2-.1.3-.2.5-.3.1-.1.1 0 .1 0v.2c0 .1 0 .1-.1.2-.2.1-.3.2-.5.3h-.1v-.3l.1-.1zm-.1-.7c.2-.1.3-.2.5-.3h.1v.3c0 .1 0 .2-.1.2-.2.1-.3.2-.5.3-.1 0-.1 0-.1-.1v-.2s.1-.1.1-.2zm-.1-.7c.2-.1.3-.2.5-.4h.1v.3c0 .1 0 .2-.1.2-.2.1-.3.2-.5.3h-.1v-.3l.1-.1zm-.1-.7c.2-.1.4-.2.5-.3.1-.1.1 0 .1 0v.3s0 .1-.1.2c-.2.1-.3.2-.5.3-.1.1-.1 0-.1 0v-.3c0-.1 0-.2.1-.2zm-.1-.8c.2-.1.4-.2.5-.4.1-.1.1 0 .1 0v.3c0 .1 0 .2-.1.2-.2.1-.4.2-.5.3-.1.1-.1 0-.1 0v-.3c0 .1 0 0 .1-.1zm-.2-.7c.2-.1.4-.2.5-.4h.1c0 .1 0 .2.1.3l-.1.2c-.2.1-.3.2-.5.4-.1.1-.1 0-.1 0V87c-.1-.1 0-.2 0-.2zm-.1-.8c.2-.1.4-.2.6-.4.1-.1.1 0 .1 0v.3c0 .1 0 .2-.1.2-.2.1-.4.2-.5.4-.1.1-.1 0-.1-.1s-.1-.2-.1-.3c0 0 0-.1.1-.1zm-.1-.8c.2-.1.3-.3.6-.4.1-.1.1 0 .2.1v.3c0 .1 0 .2-.1.3-.2.1-.4.2-.6.4-.1.1-.1 0-.1 0v-.3c-.1-.2-.1-.4 0-.4zm-.1-.8c.2-.1.4-.2.6-.4.1-.1.1 0 .1 0 0 .1 0 .2.1.3 0 .1 0 .1-.1.2-.2.1-.4.3-.6.4-.1.1-.2 0-.2 0v-.3c-.1 0 0-.1.1-.2zm-.2-.9c.2-.1.4-.3.6-.4.1-.1.1 0 .2 0 0 .1 0 .2.1.3 0 .1 0 .2-.1.3-.2.1-.4.2-.6.4-.1.1-.1.1-.2 0 0-.1 0-.2-.1-.4 0 0 .1-.1.1-.2zm-.1-.8c.2-.2.4-.3.6-.4.1 0 .2 0 .2.1v.3s0 .2-.1.2c-.2.1-.4.3-.6.4-.1.1-.1 0-.2 0 0-.1 0-.2-.1-.3.1-.2.1-.3.2-.3zm-.2-.8c.2-.1.4-.3.6-.4.1-.1.2-.1.2 0s.1.2.1.3c0 .1 0 .2-.1.2-.2.1-.4.2-.6.4-.1.1-.2 0-.2 0 0-.1-.1-.2-.1-.3-.1-.1 0-.2.1-.2zm-.3-.8c.2-.2.4-.3.6-.4.1-.1.2-.1.2 0s.1.2.1.3c0 .1 0 .2-.1.2-.2.1-.4.3-.6.4-.1.1-.2.1-.2 0s-.1-.2-.1-.3c0-.1 0-.2.1-.2zm-.3-.9c.2-.1.4-.3.6-.5.1-.1.2 0 .2 0 0 .1.1.3.1.3 0 .1 0 .2-.1.2-.2.2-.4.3-.6.5-.1.1-.2 0-.2 0 0-.1 0-.2-.1-.3 0-.1 0-.2.1-.2zm-.3-.9c.2-.1.4-.3.7-.5.1-.1.2-.1.2 0s.1.2.1.3c0 .1 0 .2-.1.3-.2.1-.4.3-.6.4-.1.1-.2 0-.2-.1s-.1-.2-.1-.3c-.1.1-.1 0 0-.1zm-.3-.8c.2-.2.4-.3.7-.5.1-.1.2-.1.2 0s.1.3.1.4c0 0 0 .2-.1.2-.2.2-.4.3-.6.4-.1.1-.2.1-.2 0s-.1-.2-.1-.4c-.1 0-.1-.1 0-.1zm-.3-1c.2-.2.5-.3.7-.5.1-.1.2-.1.2 0s.1.2.1.3c0 .1 0 .2-.1.3-.2.2-.5.3-.7.5-.1.1-.2.1-.2 0s-.1-.2-.1-.4c-.1 0 0-.1.1-.2zm-.3-.9c.2-.2.5-.3.7-.5.1-.1.2 0 .2.1s.1.2.1.3c0 .1 0 .2-.1.3-.2.2-.5.3-.7.5-.1.1-.2 0-.2 0-.1-.1-.1-.2-.1-.4-.1-.1 0-.2.1-.3zm-.4-.9c.3-.2.5-.4.7-.5.1-.1.2-.1.2 0s.1.2.1.3c0 .1 0 .2-.1.3-.2.2-.5.3-.7.5-.1.1-.2.1-.2 0s-.1-.3-.1-.4c0 0 0-.1.1-.2zm-.3-1c.2-.2.5-.3.7-.5.1-.1.2 0 .2 0 .1.1.1.3.1.4 0 .1 0 .2-.1.3-.2.2-.5.3-.7.5-.1.1-.2.1-.2 0s-.1-.3-.2-.4c0-.1.1-.2.2-.3zm-.4-1c.3-.2.5-.3.8-.6.1-.1.2 0 .2.1s.1.2.1.4c0 .1 0 .2-.1.3-.3.2-.5.3-.7.5-.1.1-.2.1-.2 0-.1-.1-.1-.3-.1-.4-.1-.1-.1-.3 0-.3zm-.4-1c.2-.2.5-.4.8-.6.1-.1.2-.1.2 0s.1.3.1.4c0 .1 0 .2-.1.3-.2.2-.5.4-.8.6-.1.1-.2 0-.2-.1-.1-.1-.1-.2-.2-.4.1 0 .1-.1.2-.2zm-.4-1c.3-.2.5-.4.8-.6.1-.1.2-.1.2 0 .1.2.1.3.2.4 0 .1 0 .2-.1.3-.3.2-.5.4-.8.5-.1.1-.2.1-.2 0-.1-.1-.1-.3-.2-.4 0-.1 0-.2.1-.2zm-.4-1.2c.3-.2.5-.4.8-.6.1-.1.2 0 .2.1.1.2.1.3.2.4 0 .1 0 .2-.1.3-.3.2-.5.4-.8.6-.1.1-.2.1-.3-.1-.1-.1-.1-.2-.2-.4 0-.1.1-.2.2-.3zm-.4-1c.3-.2.5-.4.8-.7.1-.1.2 0 .3.1 0 .1.1.3.1.4 0 0 0 .3-.1.3-.3.2-.6.4-.8.6-.1.1-.2 0-.2-.1s-.1-.2-.1-.4c-.2 0-.1-.2 0-.2zm-.5-1.2c.3-.2.6-.4.8-.6.1-.1.2-.1.3 0 .1.2.1.3.2.4 0 .1 0 .2-.1.3-.3.2-.6.4-.8.6-.1.1-.2 0-.3-.1-.1-.1-.1-.2-.2-.4 0 0 0-.1.1-.2zm-.5-1.2l.9-.6c.1-.1.2-.1.3 0 .1.2.1.4.2.5 0 .1 0 .2-.1.3-.3.2-.6.4-.8.6-.1.1-.2.1-.3 0-.1-.2-.1-.3-.2-.4-.1-.1-.1-.3 0-.4zm-.5-1.1c.3-.2.6-.5.9-.7.1-.1.2 0 .3 0 .1.2.1.3.2.4 0 .1 0 .3-.1.4l-.9.6c-.1.1-.2 0-.3-.1 0-.1-.2-.3-.2-.4-.1 0 0-.1.1-.2zm-.6-1.2c.3-.3.6-.4.9-.7.1-.1.2-.1.3 0 .1.1.1.3.2.4 0 .1 0 .2-.1.3l-.9.6c-.1.1-.3.1-.3 0-.1-.1-.1-.3-.2-.4-.1.1-.1-.1.1-.2zm-.7-1.2c.3-.2.6-.4.9-.7.1-.1.3-.1.3 0 .1.2.2.4.3.5 0 .1 0 .2-.1.3-.3.2-.6.5-.9.7-.1.1-.2 0-.3 0-.1-.1-.2-.3-.3-.5-.1 0 0-.2.1-.3zm-.7-1.3c.3-.2.6-.5 1-.7.1-.1.3-.1.3 0 .1.2.2.3.3.5.1.1 0 .2-.1.3-.3.3-.6.5-.9.7-.1.1-.3.1-.3 0-.1-.2-.2-.3-.3-.5-.2 0-.1-.2 0-.3zm-.7-1.1c.3-.3.6-.5 1-.7.1-.1.3-.1.4 0 .1.2.2.3.3.5.1.1 0 .3-.1.4-.3.2-.6.5-1 .7-.1.1-.3.1-.3 0-.1-.1-.2-.3-.3-.5-.2-.2-.1-.3 0-.4zm-.8-1.4c.3-.3.7-.5 1-.7.1-.1.3-.1.4 0 .1.2.2.4.3.5.1.1 0 .3-.1.4-.3.3-.7.5-1 .7-.1.1-.3.1-.4 0-.1-.2-.2-.3-.3-.5-.1 0-.1-.2.1-.4zm-.9-1.2c.3-.3.7-.6 1-.8.2-.1.3-.1.4.1.1.2.2.4.3.5.1.1.1.3-.1.4-.3.2-.7.5-1 .7-.1.1-.3.1-.4 0-.1-.2-.2-.3-.3-.5 0-.2 0-.3.1-.4zm-.8-1.4c.3-.3.7-.5 1-.8.1-.1.3-.1.4 0 .1.2.2.4.3.5.1.1 0 .3-.1.4-.3.2-.7.5-1 .8-.1.1-.3.1-.4 0l-.3-.6c-.1 0-.1-.1.1-.3zm-.9-1.3c.4-.3.7-.6 1.1-.9.1-.1.3 0 .4.1.1.2.2.3.4.5.1.1 0 .4-.1.5-.4.3-.7.5-1 .8-.1.1-.3.1-.4 0-.1-.2-.2-.4-.4-.5-.2-.3-.1-.4 0-.5zm-1-1.5c.4-.3.7-.6 1.1-.8.2-.1.3-.1.4.1.1.2.3.4.4.6.1.1 0 .3-.1.4-.3.3-.7.6-1.1.9-.1.1-.3 0-.4-.1-.1-.1-.2-.3-.4-.5-.1-.3 0-.5.1-.6zm-1-1.5c.4-.3.7-.6 1.1-.9.1-.1.3-.1.4 0 .2.2.3.4.4.6.1.2 0 .3-.1.4-.3.3-.7.6-1.1.9-.1.1-.3.1-.4 0-.1-.1-.2-.4-.4-.6-.1-.1-.1-.3.1-.4zm-1.1-1.4c.4-.4.8-.6 1.1-.9.2-.1.4-.1.4 0 .2.2.3.4.4.5.1.2.1.4-.1.5-.4.3-.7.6-1.1.9-.1.1-.3.1-.4 0-.1-.2-.2-.4-.4-.6-.1-.1 0-.3.1-.4zm-1.2-1.6c.4-.3.8-.6 1.1-.9.1-.1.3-.1.4 0 .1.2.3.5.5.7.1.1 0 .3-.1.4-.4.3-.7.6-1.1.9-.1.1-.3.1-.4 0-.1-.2-.3-.5-.5-.7 0-.1 0-.2.1-.4zm-1.2-1.6c.4-.4.8-.7 1.2-.9.2-.1.4-.2.5 0 .2.2.3.4.4.6.1.2 0 .4-.1.5-.4.3-.8.7-1.1 1-.1.1-.4.1-.5-.1-.1-.2-.3-.4-.5-.7 0-.1 0-.2.1-.4zm-1.2-1.6c.4-.3.7-.6 1.2-1 .2-.1.4-.1.4 0 .2.2.4.5.5.6.1.1.1.4-.1.5l-1.2.9c-.1.1-.4.1-.5 0-.1-.2-.3-.4-.5-.6 0-.1 0-.3.2-.4zm-1.4-1.7c.4-.3.8-.6 1.2-1 .2-.2.4-.1.5.1.2.3.4.5.5.7.1.2.1.4-.1.4-.4.4-.8.8-1.2 1.1-.2.1-.4.1-.5-.1-.1-.2-.3-.4-.5-.6-.1-.3 0-.4.1-.6zm-1.4-1.8c.4-.3.8-.7 1.3-1 .2-.1.4-.1.5 0 .2.3.4.5.5.7.1.1.1.4-.1.5-.4.3-.8.6-1.2 1-.2.1-.4.2-.5.1-.2-.2-.4-.5-.6-.7-.1-.2-.1-.5.1-.6zm-1.6-1.8c.4-.3.9-.7 1.3-1.1.1-.1.4 0 .5.1.2.2.4.4.6.7.1.1.1.4-.1.5-.4.4-.8.7-1.2 1.1-.1.1-.4.1-.6-.1-.2-.1-.4-.4-.6-.6 0-.2 0-.5.1-.6zm-1.6-1.7c.4-.4.9-.7 1.3-1.1.2-.1.4-.2.5 0l.6.6c.2.2.1.4 0 .6-.4.3-.9.7-1.3 1.1-.1.1-.4.1-.5-.1l-.6-.6c-.2-.1-.2-.3 0-.5zm-1.8-1.9c.4-.4.8-.7 1.3-1.2.2-.2.4-.1.6 0 .2.3.5.5.7.8.1.1.2.4 0 .6-.4.4-.9.7-1.3 1.1-.2.1-.4.2-.5.1-.2-.3-.5-.6-.7-.9-.3-.1-.3-.3-.1-.5zm-1.9-2c.4-.4.9-.8 1.3-1.2.2-.1.4-.1.6.1.2.3.5.5.7.7.2.2.2.4 0 .6-.4.5-.9.8-1.3 1.2-.2.1-.5.1-.7-.1l-.7-.7c-.1-.1-.1-.4.1-.6zm-2-1.9c.5-.4.9-.9 1.4-1.2.2-.1.5-.2.6-.1.3.3.6.6.8.9.1.1.2.4 0 .6-.4.4-.9.7-1.4 1.1-.2.2-.5.1-.6 0l-.8-.8c-.2-.1-.2-.3 0-.5zm-2.2-2.1c.4-.5.9-.9 1.4-1.4.2-.2.5-.1.8.2l.8.8c.2.2.2.5 0 .6-.5.4-.9.9-1.3 1.3-.2.2-.5.1-.7-.1-.2-.2-.5-.4-.8-.8-.3-.1-.4-.4-.2-.6zm-2.2-2.1c-.2.1-.3.4 0 .7.3.3.6.6.9.8.2.2.5.3.7.1.4-.5 1-.8 1.4-1.3.2-.2.1-.5-.1-.7-.2-.2-.5-.6-.8-.8-.2-.2-.5-.2-.7-.1-.5.3-1 .9-1.4 1.3zm-2.5-2.3c-.2.2-.2.5.1.7.3.3.6.4.9.7.2.2.6.3.8.1.5-.4 1-.9 1.4-1.3.2-.2.1-.5-.1-.7-.3-.3-.6-.5-.9-.8-.2-.2-.5-.3-.7 0-.5.5-1.1.8-1.5 1.3zm-2.6-2.2c-.2.2-.2.5.1.7.4.3.7.6 1 .8.3.2.6.3.8.1.4-.5 1-.9 1.5-1.4.1-.2.2-.4 0-.6-.3-.2-.6-.6-1-.9-.3-.3-.7-.3-.8-.1-.7.5-1.1.9-1.6 1.4zm-2.9-2.5c-.2.2-.1.5.1.7.4.3.8.7 1.2 1 .1.1.5.2.8 0 .5-.5 1-.9 1.5-1.5.2-.2.1-.6 0-.7-.4-.4-.7-.7-1.2-1-.2-.2-.5-.2-.7 0-.7.5-1.2 1-1.7 1.5zm-3.1-2.6c-.2.2-.1.5.2.8.5.4.8.7 1.2 1 .2.2.6.3.8.1.5-.5 1-1 1.5-1.6.2-.2.1-.6-.1-.7-.4-.4-.7-.6-1.2-1-.2-.2-.7-.2-.8 0-.5.4-1.1.9-1.6 1.4zm40.9 94.1c.1-.1.1-.1.2-.1 0 .1-.1.1-.1.2 0 0 0 .1-.1.1s-.1.1-.2.1c.1-.1.1-.1.2-.3 0 .1 0 0 0 0zm.3-.5c.1-.1.1-.1.2-.1v.1c0 .1-.1.1-.1.2s-.1.1-.1.1c-.1 0-.1.1-.2.1 0-.2.1-.2.2-.4-.1 0 0 0 0 0zm.2-.6c.1-.1.1-.1.2-.1v.1c0 .1-.1.2-.1.2l-.1.1-.2.2v-.1c0-.1.1-.1.1-.2.1-.1.1-.2.1-.2zm.2-.5c.1 0 .2-.1.2-.1 0 .1 0 .1-.1.1 0 .1-.1.1-.1.1-.1 0-.1.1-.2.1v-.1c0-.1 0-.1.1-.2.1.2.1.2.1.1zm.1-.4c.1-.1.2-.1.2-.2v.2s0 .1-.1.1c-.1.1-.2.1-.2.1l.1-.2c-.1.1 0 0 0 0zm.1-.4c.1 0 .2-.1.2-.1v.2c0 .1 0 .1-.1.1l-.2.2h-.1v-.2c.1-.2.2-.2.2-.2zm.1-.5c.1-.1.2-.1.2-.1h.1v.2s0 .1-.1.1c-.1.1-.2.1-.2.1s-.1 0 0 0v-.2c-.1 0-.1-.1 0-.1zm0-.4c.1 0 .2-.1.2-.1h.1c0 .1 0 .1-.1.2 0 0 0 .1-.1.1s-.2.1-.2.2h-.1c.1-.2.2-.3.2-.4zm.1-.5c.1-.1.2-.1.2-.1s.1 0 0 0v.2s0 .1-.1.1-.2.1-.2.1-.1 0 0 0v-.2l.1-.1zm.1-.5c.1-.1.2-.1.3-.2 0 0 .1 0 0 0v.2s0 .1-.1.1c-.1.1-.2.1-.3.2 0-.1 0-.1.1-.3-.1.1-.1 0 0 0zm.1-.5c.1 0 .2-.1.3-.2V109.5s0 .1-.1.1c-.1.1-.2.1-.3.2v-.2c0-.1 0-.1.1-.2zm.1-.5c.1-.1.2-.1.3-.2.1 0 .1 0 0 0v.2s0 .1-.1.1c-.1.1-.2.1-.3.2 0 0-.1 0 0-.1v-.2c0 .1 0 .1.1 0zm0-.5c.1 0 .2-.1.3-.2 0 0 .1 0 .1.1v.2c0 .1 0 .1-.1.1-.1.1-.2.1-.3.2h-.1v-.2c.1-.1.1-.2.1-.2zm.1-.5c.1-.1.2-.1.3-.2h.1v.2c0 .1 0 .1-.1.1-.1.1-.2.1-.3.2 0 0-.1 0-.1-.1v-.2c0 .1.1 0 .1 0zm.1-.5c.1-.1.2-.1.3-.2h.1v.2s0 .1-.1.1c-.1.1-.2.1-.3.2 0 0-.1 0 0 0v-.2c-.1 0 0 0 0-.1zm.1-.5c.1-.1.2-.1.3-.2 0 0 .1 0 0 0v.2c0 .1-.1.1-.1.1-.1.1-.2.1-.3.2v-.2c0-.1 0-.1.1-.1zm.1-.5c.1-.1.2-.1.3-.2.1 0 .1 0 0 .1v.2s0 .1-.1.1c-.1.1-.2.1-.3.2h-.1v-.2c.1-.2.1-.2.2-.2zm0-.6c.1-.1.2-.1.3-.2 0 0 .1 0 .1.1v.2c0 .1 0 .1-.1.1-.1.1-.2.2-.3.2h-.1v-.2c.1-.1.1-.2.1-.2zm0-.5c.1-.1.2-.1.3-.2h.1v.2s0 .1-.1.1c-.1.1-.2.1-.3.2h-.1v-.2l.1-.1zm-.1-.4c.1-.1.2-.1.3-.2h.1v.2s0 .1-.1.1c-.1.1-.2.1-.3.2h-.1v-.1c0-.1.1-.2.1-.2zm0-.5c.1-.1.2-.1.3-.2h.1v.2c0 .1 0 .1-.1.1-.1.1-.2.1-.3.2h-.1v-.2s0-.1.1-.1zm-.1-.5c.1-.1.2-.1.3-.2h.1v.2s0 .1-.1.1c-.1.1-.2.2-.3.2h-.1v-.2s0-.1.1-.1zm-.1-.5c.1-.1.2-.2.3-.2h.1v.2s0 .1-.1.1c-.1.1-.2.1-.3.2h-.1v-.2l.1-.1zm-.1-.5c.1-.1.2-.1.3-.2h.1v.2s0 .1-.1.1c-.1.1-.2.1-.3.2h-.1v-.2c.1 0 .1-.1.1-.1zm0-.5c.1-.1.2-.2.4-.2h.1v.2s0 .1-.1.1c-.1.1-.2.2-.3.2h-.1v-.2c-.1 0-.1-.1 0-.1zm-.1-.5c.1-.1.2-.2.4-.2h.1v.2c0 .1 0 .1-.1.2s-.3.1-.4.2h-.1v-.2c0-.1 0-.2.1-.2zm-.1-.5c.1-.1.2-.2.4-.2h.1v.2s0 .1-.1.1c-.1.1-.2.2-.4.2h-.1v-.2c0-.1 0-.1.1-.1zm-.1-.6c.1-.1.3-.2.4-.2h.1v.2c0 .1 0 .1-.1.2s-.3.1-.4.2c0 0-.1 0-.1-.1v-.2l.1-.1zm-.1-.6c.1-.1.3-.2.4-.2h.1v.2c0 .1 0 .1-.1.1-.1.1-.3.2-.4.3-.1.1-.1 0-.1 0v-.2c0-.1.1-.1.1-.2zm-.1-.5c.1-.1.3-.2.4-.2h.1v.2c0 .1 0 .1-.1.1-.1.1-.3.2-.4.3h-.1v-.2c.1-.1.1-.2.1-.2zm0-.6c.1-.1.3-.2.4-.3 0 0 .1 0 .1.1v.2c0 .1 0 .1-.1.2s-.2.2-.4.3c-.1 0-.1 0-.1-.1v-.2c0-.1 0-.1.1-.2zm-.1-.6c.1-.1.3-.2.4-.3h.1v.2s0 .1-.1.2-.3.2-.4.3h-.1v-.2c0-.1 0-.2.1-.2zm-.1-.6c.2-.1.3-.2.4-.3.1-.1.1 0 .1 0v.2c0 .1 0 .1-.1.1-.1.1-.3.2-.4.3h-.1V98l.1-.1zm-.3-.5c.1-.1.3-.2.4-.3 0 0 .1 0 .1.1s.1.1.1.2c0 0 0 .1-.1.2s-.3.2-.4.3h-.1c0-.1-.1-.1-.1-.2.1-.2.1-.3.1-.3zm-.2-.6c.1-.1.3-.2.4-.3h.1c0 .1.1.2.1.2 0 .1 0 .1-.1.2s-.3.2-.4.3h-.1c0-.1-.1-.1-.1-.2 0 0 .1-.1.1-.2zm-.2-.5c.1-.1.3-.2.4-.3.1-.1.1-.1.1 0l.1.2s0 .1-.1.1c-.2.1-.3.2-.4.3h-.1c0-.1-.1-.2-.1-.2l.1-.1zm-.3-.6c.2-.1.3-.2.4-.3h.1c0 .1.1.1.1.2s0 .1-.1.2-.3.2-.4.3h-.1s-.1-.1-.1-.2c.1-.1.1-.1.1-.2zm-.2-.6c.2-.1.3-.2.5-.3h.1c0 .1.1.1.1.2s0 .1-.1.2-.3.2-.5.3c-.1 0-.1.1-.1 0s-.1-.1-.1-.2c0 0 0-.1.1-.2zm-.3-.5c.2-.1.3-.2.5-.3.1-.1.1 0 .1 0 0 .1.1.1.1.2 0 0 0 .1-.1.2s-.3.2-.5.3h-.2c0-.1-.1-.2-.1-.2l.2-.2zm-.2-.6c.1-.1.3-.2.5-.3.1-.1.2 0 .2 0 0 .1.1.2.1.2 0 .1 0 .1-.1.1-.1.1-.3.2-.5.3-.1.1-.1 0-.2 0 0-.1-.1-.1-.1-.2 0 0 0-.1.1-.1zm-.3-.6c.2-.1.3-.2.5-.3h.1c0 .1.1.2.1.2 0 .1 0 .1-.1.2-.2.1-.3.2-.5.3h-.2c0-.1-.1-.1-.1-.2.1-.1.1-.2.2-.2zm-.3-.6c.2-.1.3-.2.5-.3h.2c0 .1.1.2.1.3 0 .1 0 .1-.1.2-.2.1-.3.3-.5.4h-.2c0-.1-.1-.2-.1-.3 0-.2 0-.3.1-.3zm-.3-.7c.2-.1.3-.2.5-.4h.2c0 .1.1.2.1.3 0 0 0 .1-.1.2-.2.1-.4.2-.5.3h-.2c0-.1-.1-.1-.1-.2 0 0 .1-.1.1-.2zm-.3-.6c.2-.1.4-.2.5-.3.1-.1.1-.1.2 0 0 .1.1.2.1.2s0 .1-.1.2c-.2.1-.3.2-.5.4h-.2c0-.1-.1-.1-.1-.2 0-.2.1-.3.1-.3zm-.3-.7c.2-.2.4-.3.5-.4h.2c.1.1.1.2.1.2 0 .1 0 .2-.1.2-.2.1-.4.2-.5.4-.1 0-.1.1-.2 0 0-.1-.1-.2-.1-.3l.1-.1zm-.3-.7c.2-.1.3-.2.5-.4.1-.1.1 0 .2 0 0 .1.1.2.1.3 0 .1 0 .1-.1.2-.2.1-.4.2-.5.4-.1.1-.1 0-.2 0 0-.1-.1-.1-.1-.3 0 0 .1-.1.1-.2zm-.3-.6c.2-.1.4-.3.5-.4.1-.1.1 0 .2 0 .1.1.1.2.1.3 0 .1 0 .2-.1.2-.2.1-.4.3-.5.4-.1.1-.2 0-.2 0 0-.1-.1-.2-.1-.3 0-.1 0-.2.1-.2zm-.4-.8c.2-.2.4-.3.6-.4.1-.1.2 0 .2.1s.1.2.1.3c0 .1 0 .2-.1.2-.2.1-.4.2-.6.4-.1.1-.1 0-.2 0 0-.1-.1-.2-.1-.3 0-.1.1-.2.1-.3zm-.3-.7c.2-.2.4-.3.6-.4h.2c0 .1.1.2.1.3 0 .1 0 .1-.1.2-.2.1-.4.3-.6.4-.1.1-.2 0-.2 0 0-.1-.1-.2-.1-.3 0 0 0-.1.1-.2zm-.5-.6c.2-.2.4-.3.6-.4.1-.1.2 0 .2 0 .1.1.1.2.1.2.1.1 0 .2-.1.2-.2.1-.4.3-.6.4-.1.1-.2 0-.2 0-.1-.1-.1-.2-.2-.3.1 0 .2-.1.2-.1zm-.5-.7c.2-.1.4-.3.6-.4h.2c.1.1.1.2.2.3 0 .1 0 .1-.1.2-.2.1-.4.3-.6.4-.1.1-.2.1-.2 0-.1-.1-.1-.1-.2-.3 0-.1.1-.2.1-.2zm-.4-.7c.2-.1.4-.3.6-.4.1-.1.2-.1.2 0 .1.1.1.2.2.3 0 .1 0 .2-.1.2-.2.2-.4.3-.6.4-.1.1-.2.1-.2 0s-.1-.1-.2-.2c-.1-.2 0-.2.1-.3zm-.6-.7c.2-.1.4-.3.6-.4.1-.1.2-.1.2 0 .1.1.1.2.2.3 0 0 0 .1-.1.2-.2.1-.4.3-.6.4-.1.1-.2 0-.2 0-.1-.1-.2-.2-.2-.3l.1-.2zm-.5-.7c.2-.1.4-.3.6-.4.1-.1.2-.1.2 0 .1.1.1.2.2.3.1.1 0 .2-.1.2-.2.1-.4.3-.6.5-.1.1-.2 0-.2 0-.1-.1-.1-.1-.2-.3 0-.2 0-.3.1-.3zm-.5-.8c.2-.2.4-.3.7-.5.1-.1.2 0 .2 0 0 .1.1.2.2.3 0 .1 0 .2-.1.2-.2.1-.4.3-.6.5-.1.1-.2 0-.2 0-.1-.1-.1-.2-.2-.3-.1 0-.1-.1 0-.2zm-.6-.7c.2-.2.4-.4.6-.5.1-.1.2-.1.3 0 .1.1.1.2.2.3.1.1 0 .2-.1.2-.2.2-.4.3-.6.5-.1.1-.2.1-.2 0-.1-.1-.1-.2-.2-.3-.1-.1-.1-.2 0-.2zm-.6-.8c.2-.1.5-.3.7-.5.1-.1.2 0 .3 0 .1.1.1.2.2.3.1.1 0 .2-.1.2-.2.2-.4.3-.7.5-.1.1-.2.1-.2 0-.1-.1-.1-.2-.2-.3-.1-.1-.1-.2 0-.2zm-.6-.8c.2-.2.5-.3.7-.5.1-.1.2 0 .2 0 .1.1.2.2.2.3.1.1 0 .2-.1.2-.2.2-.4.4-.7.5-.1 0-.2 0-.3-.1l-.2-.2c.1 0 .1-.2.2-.2zm-.6-.8c.3-.2.5-.4.7-.5.1-.1.2-.1.3 0 .1.1.1.2.2.3.1.1 0 .2-.1.3-.2.2-.5.3-.7.5-.1.1-.2.1-.3 0-.1-.1-.1-.2-.2-.3 0-.1 0-.2.1-.3zm-.7-.8c.3-.2.5-.4.8-.5.1-.1.2-.1.2 0 .1.1.2.3.3.4 0 .1 0 .1-.1.2-.2.2-.5.4-.7.5-.1.1-.2.1-.3 0l-.3-.3c0-.2.1-.3.1-.3zm-.6-.9c.3-.2.5-.4.7-.6.1-.1.2 0 .3.1.1.1.2.2.2.3.1.1 0 .2-.1.3-.2.2-.5.4-.7.5-.1.1-.2.1-.3 0l-.3-.3c0-.1.1-.2.2-.3zm-.7-.9c.3-.2.5-.4.8-.6.1-.1.2 0 .3 0 .1.1.2.3.3.4 0 0 0 .2-.1.3-.2.2-.5.3-.7.5-.1.1-.2 0-.3 0l-.3-.3c-.1-.1-.1-.2 0-.3zm-.7-.9c.2-.2.5-.4.7-.6.1-.1.2 0 .3 0 .1.1.2.2.3.4.1.1 0 .2-.1.2-.3.2-.5.4-.7.6-.1.1-.2.1-.3-.1l-.3-.3c-.1 0 0-.1.1-.2zm-.8-.9c.3-.2.5-.4.8-.6.1-.1.3-.1.3 0 .1.2.2.3.3.4.1.1.1.2-.1.3-.3.2-.5.4-.8.6-.1.1-.3.1-.3 0-.1-.1-.2-.2-.3-.4 0-.1 0-.2.1-.3zm-.8-.9c.3-.2.5-.4.8-.6.1-.1.3-.1.3 0 .1.2.2.3.3.4 0 .1 0 .2-.1.3-.3.2-.5.4-.8.6-.1.1-.2.1-.3 0-.1-.1-.2-.3-.3-.4 0-.1 0-.2.1-.3zm-.9-.9c.3-.2.6-.4.8-.6.1-.1.3-.1.3 0l.4.4c.1.1.1.2 0 .3-.3.2-.6.4-.8.6-.1.1-.2.1-.3 0-.1-.1-.2-.2-.3-.4-.2-.1-.2-.2-.1-.3zm-1-.9c.3-.2.6-.4.8-.6.1-.1.3 0 .3 0 .1.1.3.2.4.3.1.1 0 .2-.1.3-.3.2-.6.4-.8.6-.1.1-.3.1-.3.1l-.4-.4c0-.1 0-.3.1-.3zm-1-1l.9-.6c.1-.1.3-.1.4 0 .2.1.2.2.4.4.1.1.1.2-.1.3l-.9.6c-.1.1-.3.1-.3 0l-.4-.4c-.1 0-.1-.2 0-.3zm-1-.9c.3-.3.6-.5.9-.7.1-.1.3-.1.4 0l.4.4c.1.1.1.2-.1.3-.3.2-.5.5-.8.7-.1.1-.3 0-.4-.1-.1-.1-.2-.2-.4-.3-.1-.1-.1-.2 0-.3zm-1.1-1c.3-.2.6-.5.9-.7.1-.1.3-.1.4 0l.4.4c.1.1.1.2 0 .3-.3.2-.6.5-.9.7-.1.1-.3.1-.4 0-.1-.1-.3-.2-.4-.4-.1-.1-.1-.2 0-.3zm-1.1-1c.3-.2.6-.5.9-.7.1-.1.3-.1.4 0 .2.1.3.3.4.4.1.1.1.3 0 .4-.3.2-.6.4-.9.7-.1.1-.3.1-.4 0-.1-.1-.3-.2-.4-.4-.1-.2-.1-.3 0-.4zm-1.1-1c.3-.2.6-.5.9-.7.1-.1.3-.1.4 0 .2.1.3.3.5.4.1.1 0 .2-.1.3-.3.3-.5.5-.9.7-.1.1-.3.1-.4 0-.1-.1-.3-.3-.5-.4-.1-.1-.1-.2.1-.3zm-1.3-1.1c.3-.2.7-.5 1-.7.1-.1.3-.1.4 0 .2.2.3.3.5.4.1.1.1.3 0 .4-.3.3-.6.5-.9.7-.1.1-.3.1-.4 0-.2-.1-.3-.3-.4-.4-.3-.2-.4-.3-.2-.4zm-1.3-1.1c.3-.3.6-.5 1-.8.1-.1.3-.1.4.1.1.1.4.3.5.4.1.1.1.3 0 .4-.3.3-.6.5-1 .7-.1.1-.3.1-.4 0-.1-.1-.3-.2-.5-.4-.1-.1-.1-.3 0-.4zm-1.3-1c.4-.3.7-.6 1-.8.1-.1.3-.1.4 0 .2.2.4.3.5.5.1.1.1.2 0 .3-.3.3-.7.5-1 .8-.1.1-.3.1-.4 0-.1-.1-.3-.2-.5-.4-.1-.2-.1-.4 0-.4zm-1.4-1.3c.3-.3.7-.5 1-.8.1-.1.4-.1.5 0 .2.2.4.3.5.5.1.1.1.3 0 .4-.3.3-.7.5-1 .8-.1.1-.3.1-.5 0l-.5-.5c-.1-.1-.2-.3 0-.4zm-1.5-1.1c.3-.3.7-.6 1-.9.1-.1.3-.1.5 0 .2.2.4.4.6.5.1.1.1.2-.1.3-.3.3-.7.5-1 .8-.1.1-.3.1-.4 0-.2-.1-.4-.3-.6-.5-.1.1-.1-.1 0-.2zm-1.5-1.2c.4-.3.7-.6 1-.9.2-.1.4-.1.5 0 .2.2.4.3.5.4.2.1.1.3 0 .4-.4.2-.7.5-1.1.8-.1.1-.3.1-.5 0s-.4-.2-.5-.4c0 0 0-.2.1-.3zm-1.6-1.3c.4-.3.8-.5 1.1-.8.2-.1.4-.1.5 0 .2.2.5.4.6.5.1.1.1.3 0 .4-.4.3-.7.5-1.1.8-.1.1-.4.1-.5 0-.2-.2-.4-.4-.6-.5-.1 0-.1-.3 0-.4zm-1.7-1.2c.4-.3.7-.6 1.1-.9.1-.1.4-.1.5 0 .3.2.5.4.6.5.2.2.2.3 0 .4-.3.3-.7.6-1.1.9-.1.1-.4.1-.5 0-.2-.2-.4-.3-.7-.5 0-.2 0-.3.1-.4zm-1.7-1.3c.4-.3.7-.7 1.1-1 .1-.1.4-.1.5 0 .3.2.4.3.7.5.1.1.1.2 0 .4-.3.3-.7.6-1.1.9-.2.1-.4.1-.5.1-.2-.2-.4-.3-.7-.5-.2-.1-.2-.3 0-.4zm-1.9-1.4c.4-.4.7-.7 1.1-1 .2-.1.4-.1.6 0 .3.2.5.4.8.6.2.1.2.3 0 .4-.4.3-.7.6-1.1 1-.1.1-.4.1-.5 0-.2-.2-.4-.3-.8-.5-.2-.1-.3-.3-.1-.5zm-2.1-1.4c.4-.3.7-.7 1.1-1 .1-.1.4-.1.6 0 .3.2.5.3.8.5.2.1.2.3.1.5-.3.4-.7.7-1.1 1-.2.1-.4.1-.6 0-.2-.2-.5-.3-.8-.5-.2-.2-.2-.3-.1-.5zM94.4 54c.4-.3.9-.7 1.2-1 .1-.2.4-.2.6 0 .3.2.6.5.8.6.2.1.1.3 0 .4-.4.4-.8.7-1.2 1-.2.1-.4.1-.6 0-.3-.2-.5-.4-.8-.5-.1-.2-.1-.4 0-.5zm-2.2-1.4c.4-.3.8-.7 1.2-1 .2-.2.5-.2.7 0 .3.2.5.3.8.5.2.1.2.3.1.4-.4.3-.8.7-1.2 1.1-.1.1-.4.2-.7 0-.3-.2-.5-.3-.8-.5-.2-.2-.3-.3-.1-.5zm-2.4-1.5c.4-.4.9-.7 1.2-1.1.1-.1.4-.1.6 0 .4.2.7.4 1 .6.1.1.2.3 0 .4-.3.4-.8.7-1.2 1.1-.1.1-.5.1-.6 0-.3-.2-.6-.4-1-.6-.1 0-.1-.2 0-.4zm-2.5-1.5c.4-.3.8-.8 1.2-1.1.2-.1.5-.2.7 0l.9.6c.3.2.3.4.1.5-.4.4-.8.7-1.2 1.1-.1.1-.4.2-.7 0-.2-.1-.5-.3-.9-.5-.2-.2-.3-.4-.1-.6zm-2.6-1.5c-.2.1-.1.4.1.5.4.2.7.4 1 .6.2.1.6.2.8 0 .4-.4.8-.8 1.2-1.1.1-.2.1-.4-.1-.5-.3-.2-.6-.3-1-.6-.2-.1-.5-.1-.7.1-.5.3-.9.6-1.3 1zm-2.8-1.5c-.2.2-.1.4.1.6.4.2.7.4 1 .5.2.1.5.1.7 0 .5-.3 1-.7 1.4-1.1.1-.1.1-.3-.2-.5-.4-.2-.7-.4-1.1-.7-.2-.1-.5-.1-.7 0-.3.4-.7.8-1.2 1.2zm-3-1.7c-.2.2-.1.4.2.5.4.2.8.4 1.1.6.3.2.7.2.9 0 .4-.4.9-.8 1.3-1.3.1-.2.1-.4-.2-.5-.4-.2-.7-.4-1.2-.7-.3-.2-.7-.2-.9 0-.4.5-.8 1-1.2 1.4zm-3.2-1.7c-.2.2-.2.3.1.5.4.2 1 .5 1.3.7.2.1.6.1.7 0 .4-.4.9-.8 1.3-1.2.2-.2 0-.5-.2-.7-.3-.2-.8-.4-1.2-.6-.2-.1-.6-.1-.8.1l-1.2 1.2zm-3.4-1.6c-.2.2-.1.4.2.5.6.3.9.5 1.3.6.3.1.7.1.9 0 .5-.4 1-.8 1.3-1.3.2-.2.1-.4-.2-.5-.4-.2-.8-.5-1.4-.7-.2-.1-.7-.1-.8.1l-1.3 1.3zm-3.7-1.9c.4-.5 1-.8 1.4-1.4.1-.2.6-.2 1 0 .5.3.9.5 1.3.7.3.2.4.4.2.6-.4.5-.8 1-1.3 1.4-.2.2-.6.2-.9 0-.4-.2-.9-.5-1.4-.7-.3-.1-.5-.4-.3-.6zm67.3 71.9c.4-.3.9-.5 1.3-.8.4-.3.8-.6 1.3-.8.1 0 .1 0 .1.1-.3.8-.8 1.8-1.4 2.8-.1.1-.2.2-.2.3-.4.2-.7.4-1.1.7-.4.2-.7.5-1.1.7-.1 0-.1 0 0-.1.4-.9.8-1.8 1-2.5 0-.3.1-.4.1-.4zm.7-3.3c.5-.3 1-.7 1.5-1 .5-.3 1-.7 1.5-1 .1-.1.1 0 .1.1-.3.9-.6 1.8-.8 2.7 0 .1-.1.2-.2.3-.4.3-.9.5-1.3.8-.4.3-.9.5-1.3.8-.1.1-.1 0-.1-.1.1-.8.3-1.6.5-2.4-.1.1 0-.1.1-.2zm.5-3.5c.6-.4 1.2-.7 1.7-1.1.6-.4 1.2-.7 1.7-1.1.1-.1.2 0 .2.1-.1.9-.4 1.9-.7 2.9 0 .1-.1.2-.2.3-.5.3-1 .7-1.5 1-.5.3-1 .7-1.5 1-.1.1-.1 0-.1-.1.2-.9.3-1.8.4-2.6-.2-.2-.1-.3 0-.4zm-.4-3.3c.7-.4 1.3-.9 2-1.3s1.3-.9 2-1.3c.1-.1.2-.1.2.1-.1 1-.1 2-.2 2.9 0 .1-.1.2-.2.3l-1.8 1.2c-.6.4-1.2.8-1.8 1.1-.1.1-.2 0-.2-.1-.1-.8-.2-1.7-.3-2.6.1-.1.2-.3.3-.3zm-.4-3.9c.7-.5 1.5-1 2.3-1.5.8-.5 1.6-1 2.3-1.5.1-.1.2 0 .2.1-.1 1.2-.1 2.2-.2 3.3 0 .2-.1.3-.2.4-.7.4-1.4.9-2.1 1.3-.7.4-1.4.9-2 1.3-.1.1-.2.1-.2-.1-.1-.9-.2-1.9-.4-2.9.1-.1.1-.3.3-.4zm-1.4-3.8c.9-.6 1.7-1.2 2.6-1.7l2.7-1.8c.1-.1.3-.1.3.1.2 1.1.4 2.3.6 3.3 0 .1-.1.3-.2.4-.8.5-1.6 1-2.4 1.6-.8.5-1.5 1-2.3 1.5-.1.1-.3 0-.3-.1-.4-.9-.7-1.9-1.1-2.9-.1-.1 0-.3.1-.4zm-1.7-4.4l3-2.1c1-.7 2-1.4 3.1-2.1.2-.1.3-.1.4.1.2 1.3.5 2.6.7 3.8 0 .1-.1.4-.2.5-.9.6-1.8 1.3-2.7 1.8l-2.7 1.8c-.2.1-.3.1-.4 0-.4-1.1-.9-2.2-1.4-3.3-.1-.1 0-.4.2-.5zm-2.6-4.8c1.1-.8 2.3-1.6 3.5-2.4 1.2-.8 2.3-1.6 3.5-2.5.2-.2.4-.1.5.1.5 1.4 1 2.7 1.3 4.2 0 .2-.1.4-.3.6-1 .7-2.1 1.5-3.1 2.1-1 .7-2 1.4-3.1 2.1-.2.1-.4.1-.4-.1-.5-1.2-1.2-2.4-2-3.5-.1-.2-.1-.4.1-.6zm-3.5-5.3c1.3-1 2.7-1.9 4-2.9 1.4-1 2.7-2 4.1-3 .2-.2.5-.2.6 0 .6 1.7 1.3 3.3 1.8 4.8.1.2 0 .5-.2.6-1.2.9-2.4 1.7-3.6 2.5-1.2.8-2.4 1.6-3.5 2.5-.2.1-.4.1-.5 0-.8-1.3-1.8-2.6-2.8-4-.2 0-.2-.3.1-.5zm-4.7-6.1c1.5-1.1 3.1-2.3 4.6-3.5 1.6-1.2 3.2-2.3 4.8-3.5.3-.2.6-.2.7 0 1 1.9 1.7 3.8 2.5 5.6.1.2 0 .5-.2.7-1.4 1-2.8 2.1-4.2 3.1-1.4 1-2.7 1.9-4.1 2.9-.2.2-.5.1-.6 0-1.1-1.5-2.3-3.1-3.6-4.7-.2-.1-.1-.4.1-.6zm-6.8-6.8c1.7-1.4 3.6-2.8 5.4-4.2 1.8-1.4 3.7-2.8 5.5-4.3.3-.2.7-.3.9 0 1.5 2.2 2.8 4.3 4 6.4.1.2 0 .6-.2.8-1.6 1.2-3.3 2.5-4.9 3.7-1.6 1.2-3.2 2.4-4.7 3.5-.3.2-.6.2-.8 0-1.6-1.6-3.4-3.4-5.2-5.1-.3-.2-.3-.6 0-.8zm-9.1-8.1c2-1.7 4.1-3.3 6.1-5 2.1-1.7 4.2-3.4 6.3-5.2.4-.3.8-.3 1.1 0 2.1 2.6 4 5.2 5.7 7.5.3.4.1.8-.2 1.1-1.9 1.5-3.7 3-5.6 4.4-1.9 1.4-3.6 2.9-5.5 4.3-.3.2-.8.2-1 0-2.2-1.9-4.5-4-7-6-.2-.4-.2-.8.1-1.1zm-13-9.5c-.4.3-.2.9.3 1.2 3.6 2.4 7 4.8 10 7.1.3.3.9.3 1.2 0 2.1-1.6 4.1-3.4 6.2-5.2 2.1-1.7 4.3-3.5 6.4-5.3.4-.3.4-.9.1-1.2-2.5-2.9-5.5-5.9-8.6-9-.4-.4-1.1-.5-1.6-.1l-3.6 3.3c-1.2 1.1-2.4 2.1-3.6 3.1-2.3 1.9-4.5 4.1-6.8 6.1z"/></g></svg>