<svg xmlns:xlink="http://www.w3.org/1999/xlink"  xmlns="http://www.w3.org/2000/svg" viewBox="0 0 1500 1500"><path fill="#74C8EA" d="M403.8 520.5c-6.7 9.2-13.7 17.4-20.8 25.2l-.9-2.5s-65.3 79.2-193.4 82.8C60.5 629.6 20.5 658.5 64.1 770.4c43.6 111.9 270.9 392.2 501.3 319l6-4.2.1.1c.5-.4 1.1-.8 1.6-1.3 189-148.7 87.4-484.7 20.3-583.9-67.3-99.5-113.8-83-189.6 20.4zM225.6 884.2C201.8 663 361.7 761.5 402.8 779.7c2.8.9 5.6 1.7 8.4 2.7-1.5.2-4.4-.9-8.4-2.7-154-48-177.2 104.5-177.2 104.5zm130.8 41.5s126 38 206.1-97.8c-.5-6.1 31.4 218.1-206.1 97.8zm84.2-189.5C416.8 515 576.7 613.5 617.8 631.7c2.8.9 5.6 1.7 8.4 2.7-1.5.2-4.4-.9-8.4-2.7-154-48-177.2 104.5-177.2 104.5z"/><path fill="#00A8DE" d="M402.8 779.7c4 1.8 7 2.8 8.4 2.7-2.8-1.1-5.6-1.9-8.4-2.7zM402.8 779.7c-41.1-18.1-201-116.6-177.2 104.6 0-.1 23.2-152.6 177.2-104.6zM617.8 631.7c4 1.8 7 2.8 8.4 2.7-2.8-1.1-5.6-1.9-8.4-2.7zM440.6 736.2s23.2-152.5 177.2-104.6c-41.1-18.1-201-116.6-177.2 104.6zM562.5 827.9c-80.1 135.8-206.1 97.8-206.1 97.8C593.9 1046 562 821.8 562.5 827.9z"/><path fill="#C2BDBA" d="M1292.1 644c-13.2-.8-25.6-2.4-37.6-4.4l1.9-2.4s-118.4-13.6-202.7-136.3C969.3 378.3 916 357.5 834.4 470.6c-81.5 113.1-211.2 511.3 5.4 689.7l7.9 3.2v.1c.7.2 1.5.5 2.2.8 264.1 90.4 527.4-220.6 581.8-348.6 54.5-128.3 9-163.2-139.6-171.8zM1077 697.6c-200.6 162.8-205.4-55.3-213.7-106.7-.9-3.3-1.9-6.4-2.7-9.9 1.1 1.3 1.9 4.8 2.7 9.9C913.8 771.2 1077 697.6 1077 697.6zM813.4 970.5c-5.6 4.4 219.5-185.1 252.1 122.1 0 .1-37.6-159.3-252.1-122.1zm338.1-236.2c-.9-3.3-1.9-6.5-2.7-9.9 1.1 1.3 1.9 4.8 2.7 9.9C1202 914.6 1365.2 841 1365.2 841c-200.5 162.8-205.4-55.2-213.7-106.7z"/><path fill="#7E6D49" d="M1077 697.6s-163.2 73.6-213.7-106.7c8.2 51.4 13.1 269.5 213.7 106.7zM863.3 590.9c-.8-5.1-1.7-8.6-2.7-9.9.8 3.5 1.8 6.6 2.7 9.9zM1151.5 734.3c8.3 51.5 13.2 269.5 213.7 106.7 0 0-163.2 73.6-213.7-106.7zM1151.5 734.3c-.8-5.1-1.7-8.6-2.7-9.9.9 3.5 1.8 6.6 2.7 9.9zM813.4 970.5c214.5-37.3 252.1 122.1 252.1 122.1-32.6-307.1-257.7-117.7-252.1-122.1z"/></svg>