<svg xmlns:xlink="http://www.w3.org/1999/xlink"  xmlns="http://www.w3.org/2000/svg" width="100" height="100" viewBox="0 0 100 100"><radialGradient id="a" cx="46.264" cy="20.343" r="15.194" gradientUnits="userSpaceOnUse"><stop offset="0" stop-color="#5ba59b"/><stop offset="1" stop-color="#1c433f"/></radialGradient><path fill="url(#a)" d="M52.023 28.982a4.723 4.723 0 1 1-9.446 0 4.722 4.722 0 1 1 9.446 0z"/><radialGradient id="b" cx="82.977" cy="41.102" r="10.053" gradientUnits="userSpaceOnUse"><stop offset="0" stop-color="#5ba59b"/><stop offset="1" stop-color="#1c433f"/></radialGradient><path fill="url(#b)" d="M81.675 46.614a4.722 4.722 0 0 1-9.444 0 4.722 4.722 0 1 1 9.444 0z"/><radialGradient id="c" cx="12.334" cy="40.09" r="9.852" gradientUnits="userSpaceOnUse"><stop offset="0" stop-color="#5ba59b"/><stop offset="1" stop-color="#1c433f"/></radialGradient><path fill="url(#c)" d="M22.363 46.614a4.724 4.724 0 0 1-4.73 4.727 4.728 4.728 0 0 1-4.723-4.727 4.728 4.728 0 0 1 4.723-4.722 4.724 4.724 0 0 1 4.73 4.722z"/><radialGradient id="d" cx="24.953" cy="501.584" r="75.265" gradientTransform="rotate(-46.021 -1047.884 -271.997)" gradientUnits="userSpaceOnUse"><stop offset="0" stop-color="#5ba59b"/><stop offset="1" stop-color="#1c433f"/></radialGradient><path fill="url(#d)" d="M26.989 36.463s2.016 18.677 18.737 38.262c0 0-16.914-14.007-39.121-16.982l18.063-3.478 2.321-17.802z"/><radialGradient id="e" cx="-617.074" cy="-163.785" r="75.269" gradientTransform="scale(-1 1) rotate(-46.021 -71.554 -2570.908)" gradientUnits="userSpaceOnUse"><stop offset="0" stop-color="#5ba59b"/><stop offset="1" stop-color="#1c433f"/></radialGradient><path fill="url(#e)" d="M67.644 36.463S65.629 55.14 48.908 74.725c0 0 16.913-14.007 39.12-16.982l-18.062-3.478-2.322-17.802z"/><radialGradient id="f" cx="49.053" cy="88.953" r="75.267" gradientUnits="userSpaceOnUse"><stop offset="0" stop-color="#5ba59b"/><stop offset="1" stop-color="#1c433f"/></radialGradient><path fill="url(#f)" d="M47.301 39.451L28.796 26.432c16.336 22.211 18.376 49.14 18.376 49.14C50.241 44.049 65.05 26.299 65.05 26.299L47.301 39.451zm1.075 9.501v3.562h-2.393v-3.562h-3.581v-2.458h3.581v-3.562h2.393v3.562h3.599v2.458h-3.599z"/></svg>