<svg xmlns:xlink="http://www.w3.org/1999/xlink"  xmlns="http://www.w3.org/2000/svg" width="150" height="150" viewBox="0 0 150 150"><path fill="none" d="M54.542 58.019c-.122.034-.262-.062-.368.034-.043.053-.069.175-.122.242-.053.125-.125.161-.184.246-.071.035-.105.106-.166.21a.233.233 0 0 0-.115.174c.297-.085.34-.278.571-.455.104-.129.25-.175.384-.32.088-.081.164-.193.313-.193 0 .079.14.044.177 0-.072.044-.125-.043-.21-.043-.088.043-.192.043-.28.105zM57.407 61.444c-.095-.071-.054-.071-.079-.108-.009-.05-.104-.032-.035.037a2.177 2.177 0 0 0-.255.105c.096.113.314.113.333.304 0 .081-.088.35.084.309.175-.019.108-.421.072-.543-.016-.069-.051-.104-.12-.104zM56.533 58.613c-.071-.037-.113.035-.138.096-.062.078-.096.216-.106.332-.018.062-.071.446.025.427-.016.019-.025.069-.025.069.173-.035.173-.226.219-.347.042-.087 0-.193.025-.306.016-.079.087-.133.106-.237-.019.062-.09-.019-.106-.034zM54.016 56.413c.105-.105.175-.174.265-.317.043-.032.175-.069.147-.156a2.534 2.534 0 0 0-.025-.106c.053.021.094.021.14.021.017-.141-.246-.021-.306 0-.105.053-.149.172-.237.241-.072.037-.156.143-.202.177-.123.209-.366.25-.584.232-.175-.023-.035-.267-.035-.41-.025 0-.053.037-.113.037.016-.037-.133-.193-.177-.105-.042.069.011.212.027.246.017.076.017.175.054.232.018.037.076.062.076.115 0 .14-.145.14-.198.14-.175.072-.246.368-.456.368-.062 0-.278-.062-.216.053.025.101.163.076.234.138.095.096.095.175.262.175.113-.037.244-.079.35-.175.069-.062.104-.212.197-.299.081-.033.212 0 .297-.033.099-.034.117-.193.202-.315.08-.105.195-.167.298-.259zM52.988 69.026c-.072.035-.099.149-.193.105-.087-.039-.053-.177-.053-.177-.2.044.262.842.304.318.021-.038-.023-.038-.058-.097-.026-.043-.018-.082 0-.149zM56.052 59.818c.062 0 .097-.087.131-.122-.019.035-.085 0-.122-.078.019.112-.025.158-.009.2zM56.271 58.387c-.042-.092-.131.033-.156.069-.088.06 0 .138.025.191.089-.034.193-.147.131-.26zM43.227 57.826c.028-.042.028-.042.009-.087l-.034.087c.016.018 0-.023.025 0zM47.002 58.884c-.025.078-.043.156-.071.218.071.035.133.087.09.191.112 0 .043-.191.062-.253.023-.078-.038-.115-.081-.156zM52.254 56.116c-.094.007-.216-.177-.281-.177-.124 0-.296.087-.331.193h.05c.028.106.115.106.157.106.055-.037.089.034.143 0a.385.385 0 0 0 .262-.122zM49.082 66.337c.078-.062.113-.142.191-.142-.01-.034-.017-.113-.017-.113-.096.079-.168.149-.174.255zM48.759 67.263a43.52 43.52 0 0 0-.046.855c.028-.456.079-.953.149-1.399.044-.25.087-.487.087-.717v-.119a1.216 1.216 0 0 0-.053.278c-.079.351-.104.734-.137 1.102zM75.755 86.602c.207.465.417 1.005.61 1.503-.21-.541-.419-1.038-.61-1.556v.053zM87.983 82.393c.132-.086.237-.219.366-.261.122-.071.23-.134.35-.211-.174.077-.846.14-.716.472zM86.71 105.263c.083-.034.172-.066.188-.191 0 .041-.225.087-.188.191zM85.083 92.466c-.034-.046-.105-.062-.175-.027a.348.348 0 0 0 .278.123c-.016 0-.016-.052-.041-.036a.238.238 0 0 0-.062-.06zM86.376 105.385c.053-.032.104-.032.158-.122-.046.044-.046-.034-.09-.034-.033.034-.058.124-.068.156zM57.841 62.176c.03-.104-.193-.154-.26-.085-.053.085.122.175.175.234.166.115.209.306.288.479.071.143.2 0 .262-.033-.016-.244-.34-.368-.377-.639-.016.044-.058.044-.088.044zM43.639 50.025c.011-.019.027-.028.039-.044h-.014c-.009.014-.021.019-.025.044zM43.664 49.981zM69.185 81.764c.042.123.242.088.35.06-.072-.175-.193-.113-.35-.06zM59.006 61.985l.007-.087c-.312.105-.419-.228-.547-.419-.184-.271-.421-.542-.394-.892-.037 0-.062 0-.09.018-.016-.034-.016-.14-.016-.14-.095.071-.044.159-.037.265-.267.014-.487.607-.087.511 0 .064-.094.096-.085.133.019.105.106.105.166.143.06 0 .113.058.166.101.071.021.122-.025.174-.069.019.044.054.069.09.069-.021.087-.108.246.016.246.066.035.112.035.156.14.035.069.035.051.125.019.016.154.051.303.087.506.017.035.182.147.182.035.007-.106.131-.123.104-.212-.068-.105-.043-.261-.017-.367zM58.412 49.484c.023-.046.06-.097.078-.097 0-.036-.121-.036-.078.097zM83.16 91.747s.037.046.056.134c.197-.134.418-.07.627-.07-.062-.193-.314-.123-.43-.193-.059-.045-.232-.086-.253.129zM69.744 82.132c.069 0 .156 0 .209.042.154.115.338.046.506 0-.122-.287-.506-.287-.777-.322.009.069-.018.209.062.28zM103.76 55.677c-.033-.044-.086 0-.069 0-.033 0-.061-.087-.083-.087 0 .043.171.262.215.202.088-.159-.006-.202-.088-.271-.045.037.043.069.025.156zM69.723 61.051c-.06 0-.06.112-.085.188.085-.032.157-.188.191-.269-.016.001-.131.001-.106.081zM69.254 56.239c-.009 0-.037-.106-.037-.106-.009-.037-.066 0-.097 0 .038.069.088.14.134.106zM69.272 62.631c-.027.043.069.278.087.315.176-.096-.087-.315-.087-.315zM68.861 57.182c0-.053-.113-.161-.159-.193.046.079-.078.14-.042.193.042.076.194.101.201 0zM68.833 62.457c0 .071-.05.141-.085.175.122-.069.294-.104.244-.281 0 0-.071.053-.087.053-.044-.115-.203.037-.281.053.036.105.143 0 .209 0zM68.861 57.957c.027-.131-.159-.393-.219-.131 0 .035-.062.244.053.228a.261.261 0 0 0 .166-.097zM63.593 73.51c.025.06.104.079.175.092-.019-.033-.071-.05-.087-.14-.047.048-.063.048-.088.048zM44.826 48.969c-.016 0-.053.032-.053.032.021-.032.037-.032.062-.032h-.009zM70.372 56.795c.087.037.113-.122.087-.156-.071-.071-.193-.037-.255 0 .037.034.097.156.168.156zM49.641 71.996c-.149-.035-.306.032-.456.032h.281c.041 0 .129-.032.175-.032zM71.141 61.092c-.019-.041-.053.115.035.071l-.035-.071zM68.292 58.997c.025.044-.087.106-.122.106a.3.3 0 0 1 .035.131c.072-.044.138-.131.087-.237zM66.282 56.795c-.035-.122-.157-.122-.281-.122.021.159.168.159.281.122zM66.089 61.516s.021 0 .021.032c.138.35.276.741.409 1.127-.133-.386-.263-.777-.394-1.127-.015-.032-.036-.032-.036-.032zM62.187 62.132c0 .043.009.099.026.133.078-.035.243 0 .28-.09.017-.104-.087-.154-.133-.278-.131-.069-.34-.035-.287.175-.062.042-.019.104.018.175.053 0 .025-.115.096-.115zM66.666 56.874c.03-.042-.042-.113-.087-.079-.017.037.052.193.087.079zM66.089 62.962c.081-.016.255.021.211-.112-.037-.079-.156-.019-.218 0 .043.097-.166.06-.166.112-.007.109.147.021.173 0zM66.825 63.784c-.071 0-.113.281 0 .247.087-.035.018-.194 0-.247zM61.922 64.108c.087-.112.274-.251.368-.368.087-.094.34-.524.5-.288-.087.037-.281.244-.281.368.016-.037.025 0 .025 0 .105-.037.219-.175.342-.125.122.044.173.141.297.161.312.076.593-.29.803-.449.025.098.087.159.112.237.159-.078.394-.078.481.094-.071 0-.138.021-.209-.025-.071 0-.018.069-.071.105-.104.037-.209-.018-.331 0-.069.037-.104.176-.166.21-.078.035-.175 0-.2.035-.018.043-.122.192-.122.192-.125-.149-.21.157-.221.235-.051.156-.163.349-.131.584.193-.042.131-.313.281-.429a.723.723 0 0 1-.035.463c-.018.174 0 .347 0 .464 0 .251.122.7.34.893.322.215.359-.308.394-.502.034-.157.034-.314-.053-.425-.087-.115-.175-.255-.175-.396 0-.111.034-.226.018-.382 0-.158.088-.23.157-.35.035-.088.115-.174.14-.262.033-.087.062-.156.157-.219.106-.076.209.063.315.097a.28.28 0 0 1 .244.122c.088.105.184.262.175.4a2.535 2.535 0 0 0-.035.4c.156.046.193-.226.281-.304.182-.156.347.387.462.446.007-.096.131-.142.147-.253.034-.078-.017-.236-.051-.309-.053-.119-.09-.349.051-.468.131-.069.63.087.63-.176-.156.107 0-.193.053-.105.087-.088-.079-.172-.141-.203-.089-.057-.112-.129-.14-.25-.007-.035-.209-.035-.271-.035a.515.515 0 0 0-.338 0c-.272.112-.545.156-.824.192-.228.036-.506.036-.662-.158-.062-.072-.106-.193-.166-.291a1.101 1.101 0 0 1-.239-.236c-.067-.049-.172-.014-.26 0-.088 0-.191-.014-.247-.067-.12-.106-.191-.334-.348-.334-.053 0-.384.037-.333.159h-.225s.041.069-.016.069c.057 0 .05.14.041.173-.025-.014-.041-.014-.06-.014.019-.035-.009-.053-.028-.115-.025.081-.009.157-.089.235-.042 0-.057 0-.057.053-.046.021-.104.021-.141.021.043.275-.175.469-.35.584-.255.172-.437.429-.575.69.157-.037.313-.105.479-.149.029.137.255.137.298.005zM67.986 59.362c.01-.034.147-.437.01-.322a.8.8 0 0 0-.159.234c-.016.019-.225.308-.087.262.087.001.192-.111.236-.174zM67.474 65.112c-.03-.017-.055-.035-.064-.077.186.506.377 1.003.568 1.509-.084-.207-.175-.462-.262-.699-.088-.225-.157-.478-.242-.733zM65.698 65.652c-.028-.157.087-.286.06-.419-.128.053-.145.226-.156.309-.019.111-.125.269-.035.341.046.046.343.046.226.119-.051.037.011.081.055.037.085 0 .154-.037.235-.087.333-.203.614-.492.865-.805.175-.147.352-.419.159-.628.016-.025.051-.025.087-.062 0 .037.032.062.042.096.018-.312.515-.312.736-.4.348-.156.394-.612.307-.936-.152.043-.134.29-.281.396-.131.084-.368.067-.522.128.058.193.363.044.469 0 .035.081-.062.149-.122.193-.071.063-.158 0-.226 0-.193 0-.423.097-.49.251-.046-.032-.062-.119-.071-.119v.043c-.016.113-.122.172-.15.251-.041.115.028.115.106.134.218.041-.237.271-.237.271-.217.189-.426.348-.601.557-.029.104-.397.505-.456.33zM66.972 57.338h-.06c0 .017-.016.037-.016.078.016 0 .032-.096.076-.078zM105.253 60.665c.15-.46.255-.934.328-1.371a12.44 12.44 0 0 1-.368 1.467c0-.034.034-.06.04-.096zM62.422 38.379c.025 0 .069-.036.069-.036-.122.036-.288.097-.418.132.159-.036.391-.096.418-.114-.028.018-.035.018-.069.018zM68.642 37.227h-.244c-.081 0-.143.036-.193.036h.025c-.007.036-.025.094-.042.094.155-.059.333-.059.454-.13zM67.402 37.298c.244-.036.491-.071.732-.116-.104 0-.207.045-.297.045.039 0 .069-.036.113-.042-.104.013-.207.028-.308.042h.161c-.14.035-.27.035-.401.071zM69.873 37.008h.04c.03-.004.058-.007.085-.013l-.046.002c-.028.006-.06 0-.085.01h.006zM72.171 46.951c-.053-.062-.104.042-.131.042.027.052.062.132.131.132.087 0 .018-.174 0-.174zM82.271 39.759c.103.132.384.087.559.106-.054-.09-.457-.09-.559-.106zM73.063 50.262c-.035-.087 0-.087-.027-.087-.044-.074-.044.119.027.087zM79.456 38.649c-.034 0-.069-.045-.122-.061.21.016.368.138.567.139.135-.002.292-.034.438-.034-.114-.122-.323-.105-.462-.105-.229.016-.403 0-.621-.016.001.077.116.077.2.077zM78.567 38.604h.312c-.059-.051-.312-.086-.312 0zM81.274 38.728c-.035 0-.129-.034-.159-.034.046.068.159.068.221.068-.027 0-.046 0-.062-.034zM81.599 38.826h-.029c.051.113.194 0 .281 0h-.016.05a1.616 1.616 0 0 0-.374-.132c-.028 0-.132-.044-.1 0-.032 0-.058 0-.088.034.08 0 .188.034.281.034-.015 0-.015.064-.005.064zM80.618 38.649c-.017 0-.218-.061-.218-.061.018.106.158.061.218.061zM80.103 39.06c.175.211.516.158.769.158.106-.043.229 0 .35 0-.034-.2-.469-.14-.594-.158-.104 0-.243-.042-.35 0-.035 0-.124.034-.175 0zM62.144 42.188c.016 0 .087-.036.05-.068-.071 0-.105.033-.156.068.035 0 .106.106.149.106 0-.045-.018-.106-.043-.106zM68.964 48.051c-.017 0-.043 0-.06.041.016.035.043.035.069 0-.025 0-.025 0-.009-.041zM62.169 42.365c-.025 0-.062 0-.081-.036.009 0 .018-.036.034-.036-.016 0-.122-.106-.122 0 .009.036.037.036.053.036-.069 0-.175-.142-.244-.036.069.036.14.071.2.071h.16zM68.867 48.426h.125c-.071-.105-.115-.174-.211-.262-.035.087.086.156.086.262zM69.358 48.636c.104-.044.104-.157.016-.253.053.043-.051.209-.016.253zM68.336 42.871c.06.016.2.113.244.069-.05-.001-.173-.105-.244-.069zM70.747 44.46a.206.206 0 0 0 .166.069c.002 0 .002-.004.007-.004-.065-.032-.118-.065-.173-.065zM71.315 44.567c-.035-.038.037-.071.053-.071-.016 0-.046-.036-.062-.036-.078-.086-.044.175.009.107zM62.088 42.399c-.016 0-.079-.034-.079-.034.044 0 .062.104.113.061-.016 0-.024 0-.034-.027zM62.21 42.696c-.06-.024-.12-.022-.179-.024.057.033.119.071.179.024zM64.081 42.468h.14c-.044 0-.088-.069-.14 0zM63.915 42.293h.043c0-.044-.043 0-.043 0zM64.046 42.329h-.032c-.018.036.048.07.085.036-.018 0-.053-.036-.053-.036zM68.449 48.164c-.026.06-.088.087-.159.122.159.14.29-.159.414-.193-.149-.122-.149-.104-.255.071zM82.794 41.358c-.027-.016-.053-.016-.068-.016.131.113.331.113.506.207.009-.207-.335-.164-.438-.191zM74.4 39.462c.087.036.156 0 .25 0-.049-.113-.162 0-.25 0zM80.312 41.839c.053 0 .105.018.174.018.018-.037-.102-.037-.174-.018zM89.417 46.058c.541-1.354.717-2.899-.105-4.201.795 1.301.627 2.847.105 4.201zM82.373 40.861c-.031 0-.087-.088-.129 0-.012 0 .012.012.028.023.042-.001.09 0 .101-.023zM77.823 40.388c.027-.033-.044-.033-.044-.033-.05 0 .037.033.044.033z"/><path fill="none" d="M82.252 41.385c0 .164.211.132.315.164.043 0 .055.045.071.081h.103c.071.036.138.142.22.142.016-.254-.448-.586-.611-.371-.027-.001-.064-.001-.098-.016z"/><path fill="#0090D3" d="M74.248 114.034c-10.708.35-21.348-3.774-29.3-10.938-3.476 2.325-7.232 4.23-10.552 6.778-1.974 2.57-3.388 5.53-5.111 8.3 2.107 1.817 4.237 3.617 6.423 5.331a565.16 565.16 0 0 1 7.023-6.048c1.73 1.085 3.458 2.15 5.206 3.165-.725 3.101-1.468 6.193-2.121 9.312a211.613 211.613 0 0 0 8.098 3.234c1.677-2.755 3.337-5.522 4.997-8.283 1.589.368 3.169.734 4.755 1.083.235 3.073.506 6.134.75 9.209 2.777.261 5.574.48 8.35.609a480.233 480.233 0 0 0 2.114-9.008c1.923-.13 3.834-.304 5.74-.479 1.189 2.839 2.387 5.678 3.609 8.525 2.727-.619 5.452-1.274 8.125-2.025-.262-3.073-.536-6.113-.804-9.174 1.746-.75 3.502-1.511 5.241-2.305 9.067 8.247 18.041 16.581 27.05 24.845-8.356-13.631-16.863-27.145-25.304-40.729-6.996 5.21-15.532 8.424-24.289 8.598zM74.601 31.112c9.837.261 19.377 4.351 26.695 10.886 3.451-2.264 7.148-4.145 10.434-6.64 2.078-2.551 3.478-5.61 5.24-8.352a144.885 144.885 0 0 0-6.413-5.399 1119.386 1119.386 0 0 0-6.949 6.064c-1.646-1.016-3.298-1.993-4.965-2.989a1272.89 1272.89 0 0 0 2.123-8.971c-2.558-1.146-5.165-2.185-7.785-3.172a766.874 766.874 0 0 0-4.752 7.915c-1.868-.452-3.748-.874-5.626-1.319-.245-3.057-.489-6.134-.786-9.183-2.743-.278-5.505-.472-8.265-.665-.787 2.997-1.486 6.038-2.183 9.051l-5.714.473c-1.205-2.831-2.395-5.676-3.6-8.517a136.105 136.105 0 0 0-8.141 2.054c.262 3.055.543 6.112.787 9.17a306.63 306.63 0 0 0-5.234 2.255C41.603 17.534 33.871 11.139 26.052 4.84c7.173 11.646 14.461 23.215 21.659 34.85 7.676-5.759 17.262-9.033 26.89-8.578z"/><path fill="#34A58F" d="M126.867 65.077c2.841-1.206 5.67-2.399 8.501-3.58a154.661 154.661 0 0 0-1.957-8.109c-3.102.193-6.184.472-9.249.734a619.235 619.235 0 0 0-2.246-5.309c6.907-8.145 13.812-16.25 20.661-24.41-12.198 7.557-24.375 15.155-36.571 22.739 5.234 7.042 8.465 15.612 8.607 24.436.313 10.676-3.818 21.229-10.925 29.16 2.311 3.47 4.143 7.261 6.764 10.51 2.551 2.038 5.495 3.418 8.23 5.164 1.853-2.087 3.662-4.207 5.397-6.421-2.008-2.323-4.034-4.638-6.046-6.979a393.44 393.44 0 0 0 2.976-4.919c3.001.7 5.989 1.386 8.978 2.105 1.128-2.567 2.165-5.155 3.177-7.775-2.547-1.562-5.215-2.97-7.639-4.718-.106-1.912.652-3.791.986-5.66 3.074-.238 6.167-.506 9.225-.802.26-2.666.619-5.377.531-8.087-2.823-1.253-5.931-1.578-8.919-2.355-.139-1.896-.305-3.81-.481-5.724zM42.118 97.821c-5.234-7.044-8.466-15.602-8.597-24.426-.324-10.676 3.812-21.247 10.922-29.172-2.317-3.468-4.143-7.258-6.763-10.509-2.551-2.025-5.505-3.422-8.247-5.154a154.129 154.129 0 0 0-5.399 6.413 1523.34 1523.34 0 0 1 6.045 6.989 324.165 324.165 0 0 0-2.958 4.909c-3-.697-5.985-1.396-8.992-2.106a204.02 204.02 0 0 0-3.172 7.776c2.544 1.564 5.217 2.981 7.646 4.715.104 1.917-.649 3.793-.987 5.673-3.078.226-6.16.507-9.239.787-.25 2.673-.609 5.38-.522 8.091 2.822 1.258 5.942 1.589 8.912 2.36.147 1.9.312 3.807.49 5.728a2623.267 2623.267 0 0 1-8.502 3.582 151.965 151.965 0 0 0 1.967 8.098c3.092-.19 6.177-.461 9.241-.731.743 1.773 1.488 3.554 2.236 5.318-6.901 8.144-13.8 16.251-20.651 24.407 12.197-7.565 24.375-15.166 36.57-22.748z"/><path fill="none" d="M66.694 42.365h.009"/><path fill="#0090D3" d="M73.816 50.068c.085-.122-.255-.043-.262-.122.069.035.053-.097.104-.097-.104-.016-.097-.097-.122-.193-.046-.026-.046-.095-.087-.131-.046-.042-.105-.042-.149-.042.149-.097-.076-.218-.147-.29-.088-.034-.046-.156-.123-.228-.037-.071-.14-.071-.193-.138.069-.035.156 0 .2-.035-.078 0-.095-.125-.175-.159-.06-.044-.15-.044-.201-.079.072 0 .141 0 .228-.043-.062-.035-.141-.228-.228-.193-.08-.156-.246 0-.35-.053.069-.016.125-.104.182-.141a1.346 1.346 0 0 0-.113-.138c-.122-.07-.278-.07-.4-.105.06-.105.191-.139.06-.245-.115-.036-.009-.209.062-.146-.053-.063.053-.097.069-.097.087-.035.06-.157.06-.193.081 0 .159.036.221.036.175 0-.016-.194-.062-.229.062-.059.149.035.237-.017-.246-.218-.331-.584-.437-.908-.019-.085-.051-.281-.168-.314h-.216c-.089 0-.156-.036-.244-.096.087-.077.172 0 .244.061.12.036.278-.061.366-.138h-.032c.016-.081-.055-.123-.099-.123.043-.036.115-.036.149 0 .016-.036.007-.132-.051-.148.12-.097.188-.061.209-.271 0 0 .016-.255-.118-.271.088-.019-.025-.254.081-.254-.053-.069.037-.155.016-.227-.016-.045-.156-.141-.097-.158-.06-.035-.147-.052-.181-.097-.035-.042-.069-.157-.141-.13-.081.017-.087.088-.166.13-.087.045-.218.045-.306.113.104.035-.027.176-.084.212-.056.086-.108-.088-.194-.071-.105.032-.117.182-.223.209-.021-.203.343-.18.265-.351-.078-.243-.375.176-.479.255-.034-.042-.06-.079-.122-.114a.466.466 0 0 0 .281-.141c-.09-.033.016-.095.05-.113-.209-.078-.444.045-.596.148.081.045-.035 0 .037.045-.037.016-.14.016-.071-.045-.078-.035-.182-.035-.253-.052.046-.035.112-.016.175-.035.044-.017.097-.043.149-.062.156-.078.315-.113.453-.13.313 0 .612.088.918.052-.009-.052-.027-.052-.053-.052.081-.044.138-.044.219-.086-.05-.036-.122-.036-.175-.036-.078 0-.14-.081-.225-.139-.156-.035-.332-.15-.474-.035h.053c-.088.139-.207 0-.307-.035h-.06c.06-.02.104-.036.191-.081-.131-.043-.225-.043-.332-.077-.124-.036-.209.077-.333.034.062-.034.209-.087.062-.131-.087-.026-.113.044-.216.097-.046 0-.106-.053-.149-.081a.614.614 0 0 0-.368.081c-.203.122.062.122.115.138-.053.055-.115.02-.175.055.06.035.016.139.087.174.081 0 .157 0 .253-.036.088 0-.105-.173-.133-.193.141-.044.281-.016.403-.016s.246.016.368.036c-.037 0-.053 0-.078.035-.062 0-.149.139-.209.139-.071 0-.081-.045-.097-.104-.053-.07-.14 0-.209-.035.016.094.104.139.087.21-.043.059-.228.042-.288 0-.037 0-.184 0-.221-.036-.018-.036 0-.139-.076-.036.076-.193-.03-.367-.175-.384.079-.086.191 0 .288 0 .087 0 .235-.044.297-.122.043-.052-.09-.193-.122-.227-.079-.088-.2 0-.318 0 0 0 .072.069.134.069-.191.193-.465-.069-.64-.114.168-.044.343-.129.506-.129-.016-.105-.163-.105-.25-.064.06 0-.028.081-.062.081-.087.016-.156-.036-.228-.036.044.036-.016.104-.069.104.088 0-.018-.104-.06-.13-.104-.061-.22 0-.368.025.078-.086.218-.045.288-.139-.297-.079-.631-.158-.935-.141.044.044.079.062.113.08-.069 0-.14.027-.202.027.009-.027-.041-.088-.041-.088-.072-.054-.194-.019-.297-.036.122-.07.263-.07.347-.173-.19-.036-.418-.071-.618-.036.043 0 0 .07.043.07-.122.069-.209-.034-.34-.034-.028-.006-.046-.033-.078 0-.099 0-.172 0-.253.034.069 0-.021.069-.044.069-.053-.042-.105-.104-.156-.104.087-.036.163-.036.25-.036-.322-.142-.653-.177-.968-.297-.122-.07-.263-.132-.403-.07-.104.035-.081.113-.016.131-.115 0-.237 0-.332-.019.088-.078.216-.078.297-.148-.159-.042-.333-.139-.49-.071.105.045-.016.142-.072.142-.062-.035.056-.176-.069-.226-.228-.142-.595-.106-.771.084.108.029.205.071.281.107h-.156c.034 0 .087.035.122.035-.071.062-.174-.035-.246 0 .09 0 .159.017.246.036.053.042.087.155.141.155-.035 0-.122 0-.149-.036-.016 0-.016 0-.007-.016-.055-.017-.105-.017-.14-.042-.14-.061-.322-.131-.472-.019.06.061.166.044.253.044-.122.174-.324.033-.455.174.071.036-.044.036.027.036-.159.036 0 .191.069.209-.14 0-.209-.173-.349-.209.149-.036.28-.21.384-.315-.14-.017-.278-.017-.41-.017-.078 0-.2-.035-.237.017-.035 0-.069.019-.087 0 .019.019.104 0 .104.061 0-.061-.4-.042-.453-.042.044.026.09.061.14.061-.105.094-.269-.097-.402-.019-.035.019-.104.061-.138.061-.027.016-.159 0-.159.016 0 0 .019.036.046.036-.062 0-.133.061-.175.142h-.046c.046 0 .088.036.134.036-.03 0 0 .034.007.034.034.069.081.069.138.069.071.035.177.035.265.052a.106.106 0 0 1-.122-.017h-.022c-.032 0-.058-.035-.085 0 .028 0 .079.017.115.017a.117.117 0 0 0 .025.035c-.113 0-.234-.052-.352-.035.03.018.09.035.037.035.122.08.26.106.402.106-.071 0-.106 0-.143.034.071.053.186.053.281.094a1.123 1.123 0 0 0-.281-.041c.055.041 0 .061-.032.061.157.045.322.13.481.13.182.044.338 0 .513.088-.032 0-.216-.044-.191 0 .016.13-.156.069-.218.069-.255-.069-.481-.288-.743-.158.221.088.421.2.63.315-.071 0-.142-.052-.209-.052-.071 0-.105.052-.175.033.062.019.104.096.15.14-.191.087-.327-.173-.502-.279 0 0 .037.139.09.158-.035-.019-.09-.052-.105-.052.046.068-.088.146-.106.191-.069.129.177.193.228.228-.122.035-.228-.071-.315-.158.064.158.174.252.28.368-.129.059-.175-.116-.209.138-.053.123-.112.333.081.404 0-.036.007-.036.007-.036a.084.084 0 0 1 .122 0c0-.141.175-.08.239 0a.364.364 0 0 1 .104.191c0 .106-.046.177.025.236-.175-.059-.299.133-.384.254-.09.07-.297.177-.246.322.087.175.646.255.524.026.106.016.228.07.325 0 .062-.061.174 0 .253.07-.191-.054-.325.078-.428.175a.165.165 0 0 0 0 .122c-.027.114-.149.069-.165.036-.106.158.104.229.209.229.156 0 .067.104.193.139.191.14.347-.054.242-.254.071.044.105.08.168.08-.046-.115.087-.115.166-.16.122-.034.156-.13.209-.207.051 0 .087.034.14.077a.139.139 0 0 0 0-.113c.297-.045.665-.045.946.07a.884.884 0 0 0 .488.139c.069.034.122.034.175.079.069.079.025.193.087.236a.529.529 0 0 0 .069-.121c.235.209.562.271.793.445.115.078.03.148.134.251.035.036.025.14.05.158.019.036.106.036.072 0 .018 0 .156.191.2.21.184.097.097-.229.06-.296.143.086.336 0 .474-.072.016.194.182-.077.253-.077-.044 0-.071.113-.044.148.087.042.191-.106.297-.036-.053 0-.087.036-.122.078.053.025.141-.042.191.025-.035.019-.051.019-.088.054.053.052.159.017.23.097h-.055c.087-.045.193.059.227.094a1.53 1.53 0 0 1-.49.02c-.154 0-.322.061-.48.138.046.036.046.158.149.158.087.035.184-.042.228.035-.035.033-.14.097-.131.191.01.097.15.175.166.297.025.133.386-.087.462 0a.982.982 0 0 1-.172.105c.234.138.584-.193.444-.418-.166-.252-.541-.036-.769-.21.104-.042.209-.042.297-.042.069 0 .175.077.244 0 .062 0 .106-.08.168-.116.097-.035.147.036.2.116-.087.042.138.191.172.216.037-.139.263.068.297.104-.057.045-.138-.036-.209 0 .106.123.246.203.369.281-.069.052-.129.208-.216.132-.03.041-.046.113 0 .2-.046-.087-.062.016-.03.034.03.016.046.016.071 0-.034.071.219.053.256.053-.081.087-.256.019-.256.175-.018.078.062.156.122.237.088-.081.104-.483.271-.394.025 0 .106.069.166.104-.129 0-.244-.035-.312.097-.071.079-.113.237.016.306a.701.701 0 0 1 .296.175c.044.035 0 .035.034.079.081.112.054 0 .125 0-.037 0-.044.149-.071.149a.234.234 0 0 0 .237 0c.071-.037.053.084.06.122.034.097.299-.122.244-.193.055.072-.035.115 0 .156.03.056.087.056.135.09.042 0 .016.085.042.122.025.037.131 0 .218 0 .104 0 .104.175.182.207.035-.069 0-.207.055-.285.104-.097.173 0 .242.078h-.113c.087.069.018.191-.044.271.044.042.131-.081.193 0-.053 0-.071.078-.131.113.053 0 .095 0 .131.035.053 0 .069.105.156.044.044 0 .072-.044.106 0 .053 0 .069.062.035.076.035.037.112 0 .138.021-.033.053.018.053.055.141.069-.087.051-.161.123-.175.016.088.104.175.193.207.023-.032.058-.119.085-.119.028 0 .125.197.175.119.019-.032.019-.119.104-.119.072 0 .125.087.159.119.035 0-.009-.119.044-.119.043.087.027.156.078.197.028-.078.131 0 .159.062.042.035.175.035.104-.062.087 0 .055.062.071.097 0 .055.141.078.164.078h.168c.035.037.071.115.14.081-.087-.081.034-.141.085-.193.115-.104-.016-.172-.016-.333.072.037.079.161.149.161.085 0 .131.069.044.11.104.097.14-.197.226-.078.087.141.159 0 .053-.032.055-.087.106-.044.131 0 .018-.044.044-.087.007-.125.126-.069.126.234.177.297.016-.062.037-.141-.028-.216.081-.043.106.113.184.154.053.019-.032-.197-.069-.197.088-.074.123.087.166.119.044.078.166 0 .253.037.018-.037.009-.156-.053-.156.053-.037.071-.053.097-.074-.066-.027-.155-.008-.222-.027zm-1.645-3.117c.019 0 .087.174 0 .174-.069 0-.104-.081-.131-.132.027 0 .078-.104.131-.042zm-9.977-4.832c.037.033-.035.068-.05.068.025 0 .043.061.043.106-.043 0-.115-.106-.149-.106.05-.035.085-.068.156-.068zm-.384.174c.069-.106.175.036.244.036-.016 0-.044 0-.053-.036 0-.106.105 0 .122 0-.016 0-.025.036-.034.036.018.036.055.036.081.036h-.16s.062.034.079.034c.009.027.018.027.034.027-.05.042-.069-.061-.113-.061a.492.492 0 0 1-.2-.072zm.221.378c.06.002.12 0 .179.024-.06.048-.122.01-.179-.024zm1.911-.378h-.027s.043-.045.043 0h-.016zm.104.036s.035.036.053.036c-.037.034-.104 0-.085-.036h.032zm.035.139c.053-.069.096 0 .14 0h-.14zm4.255.403c.071-.036.193.069.244.069-.043.043-.184-.053-.244-.069zm-.046 5.415c.071-.034.133-.062.159-.122.105-.175.105-.193.255-.072-.124.035-.255.334-.414.194zm.674-.235c-.017.041-.017.041.009.041-.026.035-.053.035-.069 0 .017-.041.044-.041.06-.041zm-.097.375c0-.105-.122-.174-.087-.262.097.087.141.156.211.262h-.124zm.491.21c-.035-.044.069-.21.016-.253.087.096.087.209-.016.253zm1.389-4.176c.055 0 .108.033.172.064-.004 0-.004.004-.007.004a.202.202 0 0 1-.165-.068zm.568.107c-.053.068-.087-.193-.009-.106.016 0 .046.036.062.036-.015-.001-.087.032-.053.07zm1.721 5.608c.027 0-.007 0 .027.087-.071.032-.071-.161-.027-.087z"/><path fill="none" d="M67.471 37.227h.069M81.518 40.021h-.006M81.852 38.826h-.016M74.488 39.498h.025M71.306 37.227h-.076"/><path fill="#0090D3" d="M94.284 44.98c.025.015.061.002.077.04-.016-.059-.049-.047-.077-.04zM73.848 39.271c-.005-.002-.005-.01-.009-.014-.025-.004-.048.006-.071-.003.029.002.05.017.08.017zM74.057 39.271c-.037.012-.074-.009-.112-.007-.009.001-.019.006-.028.007h.14zM73.735 39.252c.009.004.021-.003.032.002-.004-.001-.004-.002-.009-.002h-.023zM95.566 44.977c-.197-.158-.416-.278-.617-.43.098.073.199.139.295.218.104.061.217.115.322.212zM93.661 43.623c.042.042.084.074.128.112.388.269.782.525 1.16.812-.429-.324-.859-.612-1.288-.924zM70.213 36.965c-.089 0-.176.014-.262.032l.046-.002c.074-.011.143-.017.216-.03zM67.959 37.182h-.017c-.122 0-.264.045-.402.045h.102c.101-.014.205-.029.308-.042.002 0 .004-.003.009-.003zM90.307 41.517c-.02-.015-.042-.006-.063-.015.01.006.021.009.03.015h.033zM89.556 41.358c.049.029.092.065.141.097-.061 0-.089-.055-.141-.097zM84.069 41.455c.031 0 .073.016.112.027a.286.286 0 0 0-.112-.027zM73.727 39.13c-.003-.002-.003 0-.005-.002-.03.002-.062.013-.085.002h.09zM71.978 36.914c-.435 0-.89.052-1.309.052-.025.005-.048.006-.074.011.449-.02.895-.042 1.341-.045l.042-.018z"/><path fill="#0090D3" d="M71.769 36.965h-.531c-.359.042-.69.059-1.059.104-.761.113-1.511.229-2.22.438a.758.758 0 0 0 .203.016s.078 0 .027.026c.425-.08.881-.157 1.327-.193.207 0 .426-.094.617-.13h.257c.138-.045.226-.106.332-.106h-.087c.147 0 .306-.033.454-.033h-.104c.191-.019.384-.08.584-.037-.112.018-.184.037-.281.037.065 0 .152.033.203.053-.088 0-.184.042-.29.042a.124.124 0 0 0 .106.045h.009c-.009 0-.115.036-.115.036.115-.036.221 0 .327 0h.451c.281-.081.56-.036.849-.036-.113.036-.237.036-.343.036.403.094.805.036 1.18.175-.166 0-.348.032-.516.032.168.054.35-.032.506.038h-.104c.097.016.191.016.288.016h-.147c.365.026.75.106 1.118.139.297 0 .628-.068.89.105-.49 0-.996-.07-1.493.017.025.019.041.071.025.086.152 0 .296-.035.439-.035.191 0 .401.019.573.019h.586c.156 0 .341-.036.48.061-.087 0-.175.043-.243.043.025 0-.071.036-.081.036.185.07.499.07.708.115.132.042.264 0 .395 0 .08 0 .131-.045.221 0 .041 0 .066.042.129.042-.025 0-.078.052-.088 0 0 0 .062.052.016.052.047 0 .088 0 .132.061-.085-.025-.21-.061-.313 0 .191.078.428.078.665.042.156-.023.368-.068.488.036-.053 0-.033.097-.017.097-.087 0-.175.036-.28.036-.104.042-.21 0-.322 0h-.761c.086.077-.121.077-.157.077-.21 0-.428.052-.63.052.053-.068.28-.129.377-.104-.044-.061-.113.017-.166-.025.053-.036.262-.036.182-.132.244-.139-.533-.278-.618-.278-.297-.035-.568-.035-.831.045-.097 0-.146.042-.237.094-.147.061-.262.191-.421.236.055.061-.067.078-.092.078.007.035.058.019.076.054-.018 0-.087 0-.034.016-.122 0-.247-.036-.332.016.044 0 .085.045.141.045-.035 0-.026.078-.056.044.03.034.072.034.118.034-.03 0-.062.034-.088.034h.164c-.138.064-.234-.034-.348-.068-.184-.044-.352.068-.515.068h.041c-.05.064-.104.064-.159.064.143.043.299.043.465.043h-.322c.131 0-.055.052-.087.052h-.018c.071.018.14.061.193.061.154-.043.394-.113.488.036h-.437c.159 0 .315.061.465.042.097 0 .265-.042.322.07-.26-.016-.506-.052-.75-.052.043.016-.044.016-.056.016.012.034.051.007.085.034.094-.006.202-.042.249.047-.053 0-.175.097-.194 0a.2.2 0 0 0 .062.083.411.411 0 0 0 .106.007c.149-.029.308-.125.393.023-.122 0-.218.018-.315.104.159.071.331 0 .506 0-.035 0-.071.071-.128.071.087 0 .2-.114.25 0-.094 0-.163.036-.25 0 .041.036.078.036.112.036h.069c.062.044.106.086.149.104.166-.06.375-.06.394.052-.074 0-.131.019-.228.019.044.104.184 0 .228 0-.026.044-.074.044-.113.044l.007.059h-.209c.097 0 .191.036.281.054.112.017.2.017.312.017a.23.23 0 0 0-.122-.036c.051-.016.071-.016.087-.016.138-.02.26.016.387.035.119.017.207.121.338.121-.01 0-.02-.059-.042-.059.085-.026.4-.081.4.059h-.159c.037.134.185.07.299.07.148 0 .279.064.453.106.125.036.194.193.332.229.143.033.297.016.439.033.138.063.287.158.435.193.055.017.113.043.185.061.062.042.08.113.114.174.146.078.313.114.472.22.052 0 .104.033.139.068.036.036.114 0 .166.036-.052-.087-.176-.087-.245-.209.044.106.132.045.203.106.088.016.172.068.26.087-.034.122-.185.104-.28.061-.007.061.054.061.07.061-.008.036-.017.036-.034.072.087.025.175.025.244.041a.196.196 0 0 1 .078.097c.01 0 .032.002.044 0 .036.062.087.062.158.094-.071 0-.104.045-.104.045.077.036.148.036.209.036.07.036.121.097.226.142-.138.049.071.085.117.068h.041c.071-.019.191-.019.174.018-.068 0-.121-.018-.174-.018a.14.14 0 0 1 .053.061c-.025 0-.068-.019-.088.026.044.036.088.036.123.036 0 .035-.035.052-.079.035.025.036.025.078 0 .094.097.028.201-.016.28-.059.008.087-.008.155.062.261.067.036.131 0 .227.036-.008-.08.068-.142.121-.142-.025-.035-.053-.068-.105-.068.018-.083.109-.013.146-.083.031.028.052.062.031.1-.025.052-.055.158-.055.158.02.036.029.036 0 .071.055 0 .308-.071.262.035.034.023.106 0 .09.068.044 0 .024-.104.086-.104s.089.104.148.104c.007-.068.044-.068.097-.068-.068-.071-.263-.106-.228-.264.159.052.324.193.465.333.059.035.077.105.146.148.088.045.176 0 .263.045.034-.123-.225-.088-.2-.193.113.052.216.052.322.087.103.062.175.142.287.194a.35.35 0 0 0 .29 0c.053 0-.009-.052.009-.116.044.029.095.064.15.064.088-.229-.215-.333-.326-.51-.061-.113-.077-.367-.268-.367.104 0 .19.08.268.106.096.036.184-.045.288 0 .21.036.422.087.646.087.245-.017.395.077.613.174.174.106.367.106.577.177-.017-.036 0-.036.017-.036.024-.238-.209-.297-.36-.333-.068-.035-.146-.07-.199-.14-.034-.018-.018-.053-.034-.085-.027-.045-.088-.142-.104-.177.016.036.016.036.053.036-.025-.078-.115-.122-.205-.147.025.013.053.029.053.066-.287-.094-.601-.207-.916-.304a.988.988 0 0 0-.399-.105c-.04 0-.062.045-.106 0-.071-.036-.087-.104-.087-.209 0 0 .087.045.087 0-.22-.069-.411-.193-.655-.245a.838.838 0 0 0-.321-.087c-.134.027-.247.087-.394.087-.203.052-.456-.087-.69-.123-.214-.052-.455-.067-.689-.174a8.323 8.323 0 0 0-.606-.262c-.243-.141-.452-.28-.699-.315-.233-.036-.471-.052-.681-.095a4.234 4.234 0 0 0-.356-.115c-.046 0-.271-.139-.115-.104-.016-.036-.085-.036-.069-.107.017-.086.078-.086.139-.086.177-.034.307.043.48.086.369 0 .693.151 1.034.281.34.139.68.278 1.021.278.191.036.385.036.543.07.188.064.394.064.584.106 0-.106-.134-.042-.205-.088.09-.018.159-.018.23-.018-.053 0 .051-.017.081-.017.023.017.041.017.075.017.102.016.211 0 .29 0-.115-.129-.29-.191-.453-.245-.064-.059-.115-.059-.187-.104-.022-.036-.053-.07-.094-.07h.009c-.025-.06-.055-.104-.097-.104.097 0 .244-.071.304-.071-.031-.036-.051-.078-.069-.078.019 0 .141 0 .124-.043.052.043.348.157.313.296.068 0 .134 0 .193.019a.95.95 0 0 0 .087.052c0 .044-.021.044-.021.044.056.043.071.149.056.13.016.045.121.157.159.139-.107.035.103.141.153.141.177.071.402.071.604.132.184.061.359.112.541.146.139.047.333.047.394.194-.133 0-.278 0-.409-.036.261.333.698.474 1.109.49.174.017.699-.016.672.265-.053-.036-.141-.036-.217-.072.104.072.21.21.366.21.175-.055.281.094.384.174-.033 0-.06-.036-.103-.036a.418.418 0 0 1 .103.132c-.044.045-.253-.097-.209.061.017.113.158.209.231.288.049.044.24.499.082.464.027.035-.067.123-.104.078.022.081.104.174.191.19-.06.045.071.132.105.132-.05.042-.138.042-.226 0 .061.158-.15.09-.22.09-.061-.048-.164 0-.218-.048-.046-.042-.087-.145-.167-.128.044.018.08.087.098.128-.314-.145-.577-.319-.856-.426.128-.016-.122-.087-.157-.132-.119-.056-.341-.116-.438-.027-.079-.007-.107-.104-.192-.146a1.422 1.422 0 0 0-.332-.13c.069.034.079.174.156.21.088 0 .247.036.21.174-.051.158.194.246.341.226-.088-.032-.146-.155-.216-.174.069-.087.25 0 .337.019-.007.043-.121.059-.146 0 .044.088.09.088.14.088.053.087.035.191.141.209.088.069.191.069.285.069.105.042.213.09.327.122.087.036.163-.032.26 0 .071.036.149.097.237.142.219.068.444.087.664.146-.115.135.26.115.22.238-.082-.036-.082.07-.038.173.019.037.064.046.115.05-.027-.003-.057-.007-.077.021-.038.043-.038.14-.123.104-.021.191.163.322.297.438.21.155.401.33.645.427-.147.097-.147.29-.078.463.088.236.271.252.462.333.081.077.054.139.081.207.041.158.146.238.192.333.058.228-.289.142-.345.272.193.078.352.112.506.217.056 0 .143 0 .159.068.027.036-.058.106-.104.081.046.077.138.254.016.29-.057 0-.259.061-.145.138-.07.036-.114.158-.046.193 0 0 .306.139.148.114.061.025.13.077.185.113.017-.052-.009-.194.097-.13.11 0 .2.017.288.042.149.017 0-.174-.027-.216.044 0 .077.042.113.077.046.033.063 0 .133 0 .025-.035.04-.035.057-.077 0 .042-.022.077-.031.077.061.033.087-.035.148 0 .059 0 .095.033.163.097.134.079.3.06.483.06.366 0 .638.209.926.419.13.124.428.297.375.508-.019.113-.174.191-.278.315-.068.035-.106.069-.176.172-.068.071-.158.131-.209.228-.036.074-.052.115-.124.193-.032.097-.104.053-.163.097-.115.078-.071.219-.046.303.036.125-.087.194-.041.315.033.159.25.159.384.193.147.035.253.173.393.228.175.06.332.216.453.332.278.269.498.646.784.874.062-.037-.05-.078 0-.124.09.046.079.193.216.193.083.072.144.087.233.175.113.122.304.315.481.122.103-.076.138-.402.338-.366.133.035.393.207.506.069.062-.105.018-.225.018-.296a.539.539 0 0 1 .069-.299c.125-.288.081-.463-.025-.769a4.026 4.026 0 0 0-.384-.731c-.051-.104-.131-.177-.219-.263-.087-.09-.246-.131-.349-.246-.373-.365-.339-.943-.69-1.353-.115-.159-.925-.568-.55-.813.115-.078.341-.157.218-.334-.053-.139-.121-.243-.174-.382-.082-.077-.245-.193-.235-.315.025-.148.307-.148.395-.148.25.077.489.209.715.27.209.036.438.097.646.018.209-.036.384-.139.627-.079.193.043.368.177.525.288.088.063.175.141.262.209.017 0 .21.107.191.029-.017-.097-.129-.175-.191-.254-.156-.158-.35-.245-.524-.333-.175-.071-.4-.148-.488-.323-.071-.113.176-.077.244-.061.007-.174-.244-.174-.365-.174-.124 0-.221.077-.316.077-.052 0-.096-.042-.121-.077-.071 0-.105.035-.167 0a.144.144 0 0 1 0 .122c-.098-.045-.251 0-.357-.045-.097-.016-.229-.077-.343-.077-.034-.035-.297-.054-.297-.054-.007.019-.078 0-.112 0-.281-.078-.541-.233-.787-.365.106-.043-.031-.254-.104-.315.104.061.157.097.227.14.105.053.253.088.368.175.034-.175-.175-.219-.28-.281.263.026.533.087.752.193 0-.052.14 0 .176-.052.059-.097.173-.055.261-.08.132 0 .324 0 .429-.097.027 0 .654.386.742.447.104.042.234.042.366.113.034 0 .088.061.132.078.061 0 .148-.017.19 0 .062.097.192.097.29.158 0 0 .019-.115-.019-.175.037.017.071.017.087-.019-.05.254.265.497.525.463-.088 0-.088-.173-.105-.193-.018-.138-.227-.192-.322-.271-.062-.042-.104-.155-.185-.252-.035 0-.079.036-.112.036-.063 0-.113-.036-.151-.071.038.035.264.071.17-.043.009.014.022.006.035.003-.103-.07-.255-.022-.36-.1.062.096.131.139.166.174-.019 0-.035 0-.011.036-.05-.036-.065-.114-.155-.114-.043-.044-.131-.044-.156-.115.025 0 .044.019.069.019-.069-.29-.568-.036-.663-.351h.209c-.026 0-.068 0-.105-.033.054-.035-.025-.122-.051-.122-.124-.071-.28-.088-.343-.229.046.017.01-.018.046 0-.036-.077-.124-.139-.141-.225.008.052.113.016.157.052.088 0 .112.077.193.122-.016-.025-.037-.045-.046-.045.201.148.439.29.674.413-.035-.087-.106-.124-.194-.124.21 0 .335.252.544.297.069.016.157 0 .219.069.062 0 .087.08.129.097.053.043.106-.017.14 0-.006-.017-.077-.036-.087-.097.081 0 .177 0 .227.097-.086-.21-.279-.305-.408-.463.044 0-.028-.035-.028-.035.054.035.106 0 .157.035-.205-.205-.449-.392-.676-.603-.498-.344-.977-.728-1.489-1.038-.402-.229-.821-.51-1.215-.735.184.129.324.226.464.403-.07 0-.123-.036-.192-.036.157.071.229.226.331.333.138.129.304.226.437.368.15.174.279.261.454.4a.522.522 0 0 1 .193.158c.018.036.025.129 0 .036.018.034.025.138.041.138a1.054 1.054 0 0 0-.469-.367c-.165-.062-.341-.104-.498-.191-.173-.106-.307-.222-.489-.333-.343-.209-.709-.367-1.05-.577-.312-.261-.583-.506-.914-.664.111 0 .172.097.243.158-.009-.061.088-.016.104-.016 0 0-.131-.142-.147-.142.209 0 .307.227.516.271-.046-.043-.046-.08-.097-.08l.051.019c.134.042.265.087.412.158-.251-.177-.514-.369-.777-.542-.106.209-.456-.138-.544-.21-.297-.209-.681-.351-.978-.647.156.087.312.157.455.263a.49.49 0 0 1 .245.175s.085.016.026-.029c.297.062.542.274.776.393-.042-.042-.069-.042-.113-.083.159.041.368.025.533.138h-.052c.077 0 .136.019.197.047a5.932 5.932 0 0 0-.95-.495c-.157-.077-.333-.146-.479-.271-.079-.052-.184-.094-.255-.139-.033 0-.182-.069-.094-.036-.177-.033-.29-.174-.43-.207-.175-.096-.376-.158-.55-.229-.185-.088-.376-.141-.568-.235.333.129.64.306.943.513-.697-.454-1.484-.751-2.269-1.056-.857-.289-1.726-.587-2.606-.831.168.035.324.07.471.086-3.71-1.184-7.616-1.707-11.52-1.673-.023.007-.046.01-.081.034-.036-.004-.064-.001-.093-.001zm11.025 4.393c.104.027.447-.016.438.191-.175-.094-.375-.094-.506-.207.015 0 .041 0 .068.016zm.167.413c-.082 0-.148-.106-.22-.142h-.103c-.017-.036-.028-.081-.071-.081-.104-.032-.315 0-.315-.164a.226.226 0 0 0 .098.016c.163-.215.627.117.611.371zm-.588-.91c-.011.023-.059.022-.101.023-.017-.011-.04-.023-.028-.023.042-.089.098 0 .129 0zm-4.55-.473c-.007 0-.095-.033-.044-.033 0 0 .072 0 .044.033zm11.594 5.67c.522-1.354.69-2.899-.105-4.201.822 1.301.646 2.847.105 4.201zm-6.588-6.193c-.175-.019-.456.026-.559-.106.103.016.506.016.559.106zm-4.262-1.261c0-.086.253-.052.312 0h-.312zm2.845.09c-.032-.044.071 0 .1 0 .131.034.253.068.374.132h-.034c-.087 0-.23.113-.281 0h.028c-.01 0-.01-.064.007-.064-.094 0-.201-.034-.281-.034.029-.034.055-.034.087-.034zm-.138.034c.016.034.034.034.062.034-.062 0-.175 0-.221-.068.031 0 .124.034.159.034zm-.053.49c-.121 0-.243-.043-.35 0-.253 0-.594.054-.769-.158.052.034.141 0 .175 0 .106-.042.245 0 .35 0 .125.018.56-.042.594.158zm-.603-.569c-.061 0-.2.044-.218-.061 0 0 .202.061.218.061zm-.278.045c-.146 0-.304.031-.438.034-.199-.001-.357-.123-.567-.139.053.016.088.061.122.061-.084 0-.199 0-.199-.077.218.016.392.032.621.016.138-.001.347-.017.461.105z"/><path fill="#0090D3" d="M60.448 39.018c.312.042.577-.148.874-.256-.055.064-.134.064-.175.107.087 0 .175 0 .242-.043-.025 0-.032 0-.066.043.042 0 .06-.043.087-.043-.037.043-.087.043-.131.078.044 0 .044.017.016.035.237-.07.497-.177.715-.29.106-.061.237-.077.366-.131.05-.024.104-.049.156-.079.214-.001.382-.131.589-.131-.087.036-.159.036-.246.072.177-.018.352-.036.508-.072h.035c.28-.068.541-.155.828-.198.237-.08.446-.115.655-.238.072-.016.168-.016.246-.052.106-.016.194-.122.306-.122-.037 0-.096.045-.133.07 0 0 .071-.025.021 0 .312-.07.593-.07.906-.138.115-.019.262-.036.384-.081.123-.042.244-.112.359-.112h-.122c.06-.045.149-.045.237-.081h.156c-.053.036 0 0 .017 0-.017 0-.042.036-.042.036h-.028c.016.077.035.077.053.077-.037 0-.071 0-.105.038.142 0 .262-.07.384-.115-.023 0-.069 0-.104.045.06-.045.123-.081.166-.045-.043-.036.147-.036.106-.036.06 0 .128.036.2.036h.088c-.088.045-.2.077-.318.115.187 0 .352-.115.527-.151.175-.059.35-.059.541-.094.375-.081.743-.175 1.127-.193-.218 0-.427.019-.646.019.2-.031.398-.058.6-.067-.115.016-.239.039-.345.048.2-.018.391 0 .593-.018.17-.023.341-.043.52-.075-.198.008-.398.008-.598.019-.027.006-.055.008-.085.013h-.046c.025-.01.057-.004.085-.01-.265.016-.532.006-.796.026-.404.04-.802.11-1.205.161-.044.006-.074.042-.113.042.09 0 .193-.045.297-.045-.241.045-.488.081-.732.116.131-.036.261-.036.4-.071h-.161a50.696 50.696 0 0 0-4.714.838c-.025.045-.053.045-.069.045-.14.042-.297.042-.437.094.087 0 .177-.052.281-.052-.693.209-1.38.366-2.036.674-.034 0-.367.156-.218.192zm7.757-1.756c.051 0 .113-.036.193-.036h.244c-.122.071-.299.071-.453.13.016 0 .034-.059.042-.094h-.026zm-5.714 1.081s-.044.036-.069.036c.034 0 .041 0 .069-.018a3.53 3.53 0 0 1-.418.114c.13-.035.296-.096.418-.132z"/><path fill="none" d="M109.736 71.578c.017 0 .017.069.017.069"/><path fill="#0090D3" d="M101.961 65.794c.018 0 .036-.088-.017-.088-.019 0-.054.026-.054.042.019.001.047.027.071.046z"/><path fill="#0090D3" d="M108.302 63.609c-.322-1.082-.663-2.167-1.081-3.216a295.633 295.633 0 0 0-1.763-3.72 52.292 52.292 0 0 0-2.081-3.379c-.742-1.102-1.543-2.231-2.428-3.207-.42-.524-.874-.989-1.346-1.451-.418-.472-.82-.953-1.302-1.317-.359-.308-.759-.544-1.056-.91.121.078.209.253.365.285-.085 0-.14-.068-.184-.173.132.105.259.209.396.331-.09-.077-.177-.158-.264-.226-.104-.105-.192-.175-.281-.261.018.043.024.043.043.043-.146-.097-.268-.237-.409-.324-.131-.123-.278-.236-.421-.349.01 0 .019.035.019.035h-.069c.157.159.299.333.429.508.061.068.167.131.19.243.027.063.027.142.044.173-.017-.032-.044-.032-.035.081-.015.061-.025.113-.069.176-.018 0-.033 0-.069-.063.036.063.042.141.069.193-.053-.036-.13-.036-.176-.07.046.192.055.385.176.542.123.131.304.245.456.367.129.098.278.208.339.349.064.158-.077.246-.077.402-.053-.034-.124.053-.124.125-.182-.072-.506-.203-.663.035-.052.034-.052.209-.19.209-.062 0-.248-.071-.28.037-.114-.073-.237-.179-.35-.246-.089-.106-.149-.237-.246-.315-.034-.035-.244-.262-.278-.157-.209-.105-.343-.386-.562-.56 0 .045-.041.086 0 .122-.058 0-.145 0-.191-.036-.06.168 0 .281 0 .437-.034.105.054.271-.034.315-.112.159-.112.228-.138.402a3.156 3.156 0 0 1-.158.562.96.96 0 0 0-.079.522c.022.25.044.426.061.665 0 .129.134.244.115.435 0 .078-.088.296-.219.159 0 0-.019.193.043.175-.174.051-.08.285-.192.35-.139.115-.394-.141-.465.037-.086.188.202.4.317.557.207.235.347.506.34.837-.027.29-.043.524.079.787.115.218.278.474.506.681.192.174.427.271.559.524.147.262.203.578.263.911.043.244.104.556.018.782-.053.158-.053.28.017.395a.664.664 0 0 1 .141.446c-.018.244.189.557.255.787.13.276.154.644.27.888.033.193.121.315.165.456.046.106.046.262.088.4.077.308.322.402.54.575.187.24.325.474.502.649.231.244.435.456.584.708.129.304.279.584.409.847.088.156.21.438.051.612.159 0 .265.147.384.244.057.038.15.038.178.125.017.069 0 .104.079.147.111.062.13.237.306.253.088.019.262 0 .312-.06.038.044.055.115.124.156.046.081.103 0 .192 0 .14 0 .244.115.33.235.123-.12.326.149.403.211.051.019.088.019.157.054.046 0 .061.086.123.14.036.034.067.078.121.138.036.069.036.113.069.177.055-.029.106-.107.157-.063.054.063.07.149.142.167.053-.052.124 0 .172-.052.064-.035.099-.081.143-.159.114-.069.244-.261.376-.401.251-.293.498-.602.742-.906.439-.579.83-1.226 1.178-1.898-.636 1.275-1.493 2.438-2.403 3.523.134.016.229-.125.387-.065.051 0 .105.065.174.065.088.016.159-.019.245-.019.22.035.524.244.707.035.052.096.158-.035.202-.081.103-.146.132-.322.146-.495.011-.333.082-.646.397-.798.312-.201.24-.653.337-.953.046-.21.115-.368.159-.522.017-.072.024-.15-.007-.21-.037-.037-.106-.143-.064-.174.064 0 .081.032.112.078.046-.078-.048-.147-.017-.271.036.125.036.194.106.271.038-.384-.09-.777.053-1.081.009.042.035.074.035.126.044-.126.174-.384.368-.225.103.08.139.209.19.331.044.071.176.071.229.193.033-.159.033-.235.033-.384.019-.122-.027-.234 0-.35.035.019.054.05.068.087.02-.053-.033-.087-.033-.129-.017-.083.033-.117.053-.193.019.11.044.193.088.253.044-.06.044-.143.052-.253.313.542.577 1.125.77 1.736.084.281.172.54.278.822.019.086.027.174.071.211 0 .035.033 0 .05.035 0 0 .053.172.082.076.033.065 0 .134.024.175.009.046.071.083.097.134 0-.051.306.253.339.28.2.244.27.513.418.769.368.792.577 1.675.77 2.549.17.84.28 1.661.401 2.554.109.874.306 1.762.352 2.655a33.503 33.503 0 0 0-.715-6.327c-.196-1.068-.512-2.114-.811-3.113zm-4.48-7.817c-.044.06-.215-.159-.215-.202.022 0 .05.087.083.087-.017 0 .036-.044.069 0 .019-.087-.069-.12-.025-.156.082.069.176.112.088.271zm1.431 4.873c-.006.037-.04.062-.04.096.157-.506.28-.984.368-1.467a9.567 9.567 0 0 1-.328 1.371zM97.593 82.393c.071-.086.071-.219.078-.297.03-.244.046-.49.098-.7.09-.418.368-.769.445-1.171.097-.452.147-.995-.113-1.361-.018.044-.046.044-.052.044-.01-.253-.19-.331-.368-.506-.088-.038-.165-.134-.26-.149-.143-.044-.228.111-.334.209-.033-.157-.157-.06-.218 0-.088.036-.159.036-.271 0-.245-.138-.542-.098-.804-.098-.331 0-.594.098-.874.257-.05.065-.646.209-.54.287-.105.077-.213 0-.297 0-.115 0-.159.146-.288.115-.08 0-.098.119-.106.207-.029.08-.115.28-.244.296 0-.087-.044-.25-.176-.153.026-.097-.017-.175-.104-.175-.106-.056-.069-.056-.131-.159-.088-.131-.237.191-.28.237 0-.078-.052-.291-.176-.203-.05.027-.138.069-.157-.019-.035-.031-.103.046-.121.088-.106.056-.193 0-.278 0-.117 0-.229.056-.334.088-.209.143-.312.35-.384.543.141 0 0 .193-.027.28-.042.128-.06.226-.2.26-.138.062-.263.105-.367.209-.086.105-.165.175-.314.105-.114-.105-.297-.331-.418-.121a.56.56 0 0 0 .006.43c.028.076.082.217.013.269.069-.111-.178-.544-.403-.37-.143.125-.306.23-.456.37a1.898 1.898 0 0 0-.201.272.972.972 0 0 0-.041.129s-.017-.067-.017-.129c.05-.081.144-.191.216-.255.167-.175.453-.263.534-.562.036-.139.053-.242.069-.364.018-.115-.017-.243.071-.368.033-.05.209-.33.163-.349.08.019.029.174.115.193.088.018.146-.037.19-.069.09-.062.037-.105-.016-.159-.028-.019-.044-.138-.106-.105-.017-.066.106-.129.122-.163.07-.046-.016-.176-.016-.222-.052.046-.156.088-.175.176 0 .08 0 .177-.069.209.053-.032 0-.209 0-.209-.017-.157-.062-.13-.159-.088-.078-.157.185-.234.165-.364-.022-.201-.269.052-.332.086.089-.053-.017-.132-.042-.178-.104-.109-.191-.225-.297-.362-.071-.071-.176-.134-.247-.191-.13-.071-.233-.159-.408-.193-.131-.035-.235-.097-.384-.141-.132-.034-.261-.131-.396-.175-.138 0-.305 0-.45.105-.025 0-.071.035-.143.069-.059 0-.138-.034-.182 0 .008.044.026.105.036.141-.063 0-.046-.175-.063-.175-.157.034-.313.034-.436.175-.104.095-.194.226-.367.27-.123.044-.254.06-.333.193-.077.131-.14.131-.253.06-.167-.098-.471-.193-.654-.098-.227.098.114.414-.107.481-.077-.113-.226.122-.209-.113 0-.234.176-.464-.128-.567-.265-.067-.562-.104-.832-.067-.165.035-.299.171-.437.227-.158.138-.313.174-.427.297-.038.065-.253.287-.237.172a.437.437 0 0 1 .281-.331c.087-.06.174-.098.216-.193.029-.104.046-.504-.146-.426-.124.062-.351.29-.438.097-.066.034-.104.158-.194.158-.129-.036-.225-.124-.312-.158.088-.097.269-.175.21-.315-.203.105-.403.141-.578.28-.016 0-.163.069-.097.111.027.019.097.019.027.082-.14.093-.262.093-.349.207a1.591 1.591 0 0 1-.481.382c-.078.046-.235.106-.356.046-.14-.111-.193-.111-.359 0-.209.176-.542.466-.864.322.156-.069-.14-.19-.194-.209-.215-.034-.451.097-.68.062-.088-.044-.385-.176-.348.077.032.115.26-.018.329.038.159.077-.541.445-.601.503-.306.247.391.44.472.677.042.11-.117.319-.256.365-.087.06-.138-.08-.216-.114-.115-.035-.255-.125-.255-.251.02-.149.209-.324.07-.467-.07-.032-.418-.032-.33-.21.034-.058.105-.216.156-.296.053-.032.174-.088.123-.176-.045-.087-.316-.031-.395 0-.193.144-.148.414-.27.544-.229.219-.455.411-.699.644-.069.055-.134.133-.124.246-.173-.069-.384.062-.384.255 0 .129.143.217.124.322-.009.044-.087.088-.124.122 0 .053.018.173.071.209-.281 0-.35.41-.209.56-.141.062.094.265-.035.334-.159.104-.327-.115-.471-.157-.09-.036-.194-.071-.297-.115-.099-.019-.211 0-.315-.062-.081-.017-.106-.104-.175-.176-.09-.034-.193.044-.315.072.018 0 .018.035.018.035-.089-.063-.209-.035-.299 0-.053.052-.025.13-.069.174-.105.071-.228.159-.352.21-.017.122-.129.122-.173.193-.069.034-.087.155-.19.155-.125 0-.265-.033-.387-.033.035.149-.209.103-.262.087-.087 0-.113-.087-.156-.131-.054-.078-.175-.098-.253-.115-.175-.034-.394-.102-.515-.207-.106-.124-.175-.368-.35-.299.069-.21-.131-.444-.122-.699.016-.157-.019-.229-.071-.351a.535.535 0 0 1-.007-.418c.044-.229-.097-.487-.377-.487-.226 0-.313-.23-.578-.193-.644.06-1.203.469-1.815.681-.115.034-.228.034-.349.068-.069.046-.212.105-.141-.05.055-.098.122-.23.097-.334-.01-.053-.042-.21.025-.21-.138-.155-.016-.368-.096-.521-.042-.097-.164-.131-.209-.209-.042-.125.064-.175.027-.256.104-.034.104.081.122.112.035.088.147.088.218.088-.128-.234-.149-.521-.184-.818-.035-.227.087-.481.071-.7-.016-.226-.191-.365-.421-.365-.269 0-.506.191-.662.365-.078.105-.124.175-.237.219-.106.097-.237.097-.297.191-.097.202.037.428 0 .652-.025.092-.08.144-.087.222-.028.115.007.234-.044.322-.053.08-.071.253-.175.296-.041 0-.175.034-.138.115a.5.5 0 0 0-.508.062c-.053.032-.088.113-.125.175-.074.088-.191.088-.297.175-.145.085-.28.243-.497.188-.168-.039-.271-.156-.444-.156-.159 0-.368.053-.491-.032-.156-.175-.244-.317-.428-.412-.09-.043-.177-.097-.262-.115-.094-.058-.191-.058-.262-.119-.062-.131-.078-.209-.166-.265-.071-.069-.156-.088-.193-.157-.016.02-.043.054-.096.069a2.757 2.757 0 0 0-.06-.434c-.037-.123 0-.257-.062-.412a.504.504 0 0 0-.158-.27c-.085-.175-.076-.315-.146-.449-.087-.193-.174-.425-.018-.601.069-.07.157-.114.175-.225 0-.081-.018-.193-.115-.158.009-.035.046-.1.018-.176-.06-.069-.182-.115-.234-.175-.053-.069-.133-.159-.133-.243 0 0 0-.157-.095-.125.007-.113.122-.113.157-.189.037-.098.025-.176.053-.248.062-.155.235-.279.384-.331-.087-.192.175-.28.288-.314.184-.094.296-.366.237-.577.175 0 .63 0 .542-.27.104.061.226-.062.332-.096.12 0 .27 0 .4-.034.122-.042.219.034.313.034.097.035.23-.034.317-.14.016.064-.159.236-.037.236.071.061.14.017.228 0 .087 0 .173-.096.262-.096-.122-.14-.053-.331.133-.331.104 0 .18.032.267.08.081.042.168-.048.23 0 .025.042.104.175.138.06.018-.06-.016-.107-.087-.14-.209-.035-.122-.113-.051-.246-.071-.042-.265.052-.281-.101-.053.06-.087.101-.159.101-.05.018-.087-.042-.145-.042.095-.096.233-.06.32-.134.09-.12.15-.234.265-.234.122 0 .242.06.331 0 .032-.044.069-.175.138-.115.118.037.193.115.29 0 .087-.138.218-.157.324-.253.104-.044.172-.079.26 0 .081.096.168.096.28.096.125 0 .237.053.35.053.131.044.251-.034.35-.071.228-.157.472-.123.7 0 .209.086.331.29.331.562 0 .037 0 .19.106.19a.093.093 0 0 0 .104-.034c.025-.119.087-.156.14-.156.053.156-.062.349.018.464.088.175.304.175.435.251.131.035.212.228.368.272.147.018.35.018.419.163.167-.032.018-.244.078-.4.097-.207-.025-.525-.2-.713a3.077 3.077 0 0 0-.534-.562c-.097-.079-.131-.194-.2-.272a1.132 1.132 0 0 1-.253-.349c-.044-.096-.149-.113-.217-.209-.071-.113-.03-.218-.03-.352 0-.075 0-.217-.006-.317a.394.394 0 0 1 .06-.281c.027-.087 0-.175.034-.246.081-.159.184-.191.274-.281.182-.19.278-.497.191-.748.042.077.122.189.193.077.087-.094.262-.191.313-.307.071-.142.078-.33.138-.445.072-.097.021-.157-.06-.235.043-.018.105-.034.184-.069-.035-.046 0-.087.053-.087-.087-.072-.237 0-.281-.15.072 0 .104-.062.193-.096.069-.035.104.071.175.035.087 0 .191-.035.216-.115.009-.06-.129-.092-.164-.092-.087-.037-.211.032-.317 0-.12-.083.177-.211.221-.238-.078-.112-.184-.236-.306-.236s-.308 0-.366-.147c.087-.065.175-.096.262-.134-.046-.06-.117-.06-.193-.06.018 0 .034-.046.06-.046-.147-.034-.042-.014-.113-.11-.062-.078-.209-.078-.297-.149.035 0 .079-.026.104-.026-.032-.081-.12-.15-.062-.255.081-.052-.023-.11-.023-.209 0-.094-.053-.175 0-.288.053-.115.156-.154.262-.154 0-.046-.018-.102-.027-.102.131-.078.062.175.027.255-.018.035-.046.113-.018.149.06.088 0 .138-.009.237-.01.058.097.426.218.319.053 0 .071-.104.147-.069.053 0 .071.069.087.141.071-.106.202-.141.202-.237 0 0 .044-.253-.034-.286-.115-.018 0-.176-.106-.255-.053 0-.104 0-.149-.044-.025-.037-.035-.11-.06-.156.113-.038.262.046.366-.038.124-.035.124-.156.133-.269.007-.117.067-.255.067-.368 0-.173-.157-.113-.216-.237-.034-.129.104-.207.122-.322.053-.115.094-.156.218-.29.097-.102.166-.251.322-.294.053-.035.115 0 .159 0 .06 0 .051-.069.087-.069-.087-.107-.018-.318.122-.212.113.105.209-.138.306-.172-.134-.044-.412.067-.456-.087-.009-.072.079-.193.062-.266-.019-.156.051-.275.069-.409-.087.097-.104-.06-.104-.095.016-.158.189-.158.244-.299.016.071.05.106.104.071-.016 0-.035-.071-.042-.088.061-.037.123-.037.194-.037-.064-.115-.014-.228-.071-.331.087-.035.112.104.128.104.053 0 .053-.104.028-.154.087.032.219.069.299-.019.05-.105.023-.174.085-.255.112-.11-.131-.232-.209-.27.087-.034.175-.034.271-.034.088-.071.138-.14.226-.159-.035-.046-.157 0-.175-.122 0 0 .087-.131.141-.193 0 .062 0 .122.009.193.025 0 .062 0 .087.044a.684.684 0 0 0 .129-.479c0-.106.143-.193.193-.106-.016 0-.05.044-.071.044.071.094 0 .234.056.304.13-.175.312-.435.575-.348-.12-.037-.12.313-.191.348-.071.062-.159-.035-.234 0-.134.081-.134.315-.191.402-.096.156-.326.456-.081.612a.71.71 0 0 0 .348.018c.053-.018.203-.174.265-.105.053-.069.12-.175.156-.281.051-.101-.037-.172-.087-.294.051 0 .051-.037.069-.055 0-.06.104 0 .133 0 .164.019.041-.175.11-.257.141-.108.246-.214.352-.387.078-.087.035-.303.138-.368-.053-.032-.138 0-.191 0-.053-.032-.053-.129-.087-.129-.112-.046-.122.27-.2.304-.062.034-.131-.035-.186-.035a.292.292 0 0 0-.242 0c-.237.14-.087.035-.193-.141-.104.106-.262.141-.384.065a.565.565 0 0 1-.158-.161c-.035-.079.016-.149-.016-.235-.071.085-.159.12-.247.156 0 0 .019-.115.087-.156-.069-.053-.172-.193-.069-.228-.209-.174-.368.122-.515.228-.009-.053-.044-.106 0-.147 0 0-.193-.081-.166-.159.081-.081.297.159.384-.062.043-.088-.053-.366.131-.366a.54.54 0 0 1-.062-.193c-.025-.035-.09-.035-.122-.071.104 0 .027-.104-.019-.104-.104-.071-.216-.053-.34-.016-.288.12-.5.235-.653.522-.106.14-.209.255-.28.402-.054.14-.069.299-.15.428-.042.131-.147.237-.172.377-.044.166-.044.281-.097.435-.035-.069-.018-.175.009-.21.026-.094 0-.19.016-.331 0 0 .028-.141-.016-.175-.043-.032-.133 0-.165-.032.165-.064.191-.23.244-.405a.289.289 0 0 1 .105-.122c.051-.113.067-.193.088-.271.084-.15.163-.322.163-.5-.025-.104.168-.174.097-.312.209-.019.368-.113.543-.193.157-.125.384-.191.522-.313.072-.037.138-.087.21-.129.08-.021.176-.021.264-.064.087-.053.113-.11.209-.087.069.019.159-.087.225-.042-.035-.159.133-.115.193-.159.104-.097.219-.251.209-.343a.162.162 0 0 0-.053-.101c.053 0 .09-.037.115-.074.062-.087.035-.12.007-.154-.051-.194.106-.352.011-.472.095 0 .147-.087.198-.133.081-.076.177-.076.23-.217.032-.069.104-.149.112-.225.01-.053 0-.143.061-.179-.087-.051-.173-.138-.251-.207.234-.156-.333-.271-.203-.122-.104.122-.218-.071-.297-.071-.174-.035-.304-.035-.421.071-.191.237-.244.508-.402.733-.051.106-.173.175-.226 0-.106-.105.122-.193.203-.278.11-.09.182-.265.278-.396.072-.094.251-.232.147-.368-.122.135-.209-.113-.322-.058.087.101-.081.26-.184.193-.053-.055-.076-.092-.122-.092-.055 0-.138 0-.175-.043-.019.043 0 .08-.019.135-.016.067-.138 0-.191 0-.174 0-.209-.092-.331-.152-.15-.078-.271.017-.403.017-.156-.044-.237-.175-.4-.079-.037-.097.007-.172-.053-.209-.035 0-.105.037-.131 0 .025 0 .347-.138.29-.207-.03-.09-.211-.046-.281-.09-.271 0-.124-.032-.23-.209-.041-.087-.207-.051-.331-.087-.12 0-.016-.087-.069-.138-.069-.037-.157 0-.228-.019-.032-.018-.016-.124-.016-.158-.016-.035-.104-.035-.14-.095-.062-.046-.085-.133-.191-.133-.053 0-.064.087-.106.106-.149-.244-.453-.366-.568-.646-.131.105-.097.281-.078.435.034.105.087.177.128.299.028.069 0 .262-.071.386-.023.092-.023.304-.145.35-.14.032-.28-.258-.349 0-.054-.09-.141-.221-.279-.194-.133.037-.281.072-.405.037a1.028 1.028 0 0 1-.297-.368c-.016-.062.072-.299-.051-.256-.009-.097.088-.322-.112-.237-.046.019-.221.087-.221 0-.016-.051.088-.085-.069-.085-.216 0-.384.085-.612-.043-.182-.097-.35-.219-.575-.157-.23.078-.352.285-.584.348-.186.062-.526.025-.623.253-.051.115.209.14.228.228.019.124.087.384-.069.428.051.046.113.046.175.046-.037.069 0 .207.069.285.043.097.221.152.175.253 0 .037-.06.072-.06.072 0 .122.025.159.007.193-.016.159-.156.191-.175.329-.007.126.105.126.193.143a.89.89 0 0 1 .384.193c.122.069.244.209.332.332.071.087.158.172.262.128-.016.097-.071.584.141.498-.034-.033-.122-.147-.053-.189.1.156.053.253-.007.35-.046.138-.046.313-.097.444-.037.131-.078.25-.174.375-.079.035-.193.106-.184.228-.009-.079-.053 0-.062.035-.025.032-.018.156.01.193.025.06.025.138.115.172.016.019.122.065.104-.016.053.156.193.253.219.428.009.062 0 .149.071.211.019 0 .106.042.06.076.027.034.085.034.085.14 0 0-.016.15 0 .263 0 .087.028.193.049.235-.087-.076-.134 0-.175.064-.048.097-.081.129-.186.173-.263.021-.55-.173-.731-.352-.23-.232-.387-.425-.511-.713-.067-.212-.017-.49-.191-.596-.156-.154-.46-.041-.637 0-.27.072-.543.021-.84.021-.172 0-.418-.092-.593-.021-.06-.122-.146-.347-.322-.347-.234 0-.472-.087-.681-.125-.262-.034-.384.037-.621.159-.149 0-.218-.175-.253-.272-.087-.2-.202-.637-.506-.499-.106.037-.271.105-.332 0-.037-.104-.055-.35-.209-.313.122-.156.051-.384.085-.577a.377.377 0 0 1 .133-.172c.094-.087.058-.122.087-.263.076-.193.241-.368.288-.575.016-.159.06-.193.164-.193.168-.037-.023-.072-.023-.115.048-.044.119-.023.174-.079.033-.037-.055-.037-.071-.037-.01-.06.071-.087.122-.087.087 0 .156-.035.209-.131.028-.076.069-.145 0-.25-.053-.037-.138-.115-.069-.159.156-.131.156-.342.27-.471.078-.106.278-.175.343-.025.025-.193.479-.734.05-.715-.244.025-.479.157-.74.234.06-.078.184-.078.216-.156.025-.018.055-.141 0-.078.018-.062.037-.134.025-.168.133.105.296 0 .43-.044.131 0 .228.149.332.149.253-.071-.113-.499.019-.628.087-.062.262.033.35.069.166.06.297-.115.147-.247-.06 0-.263-.104-.184-.154.055-.078.142 0 .202.032.069.078.157.078.221.122-.089-.329.364-.455.488-.699.106-.228-.167-.35-.312-.426-.09-.083-.143-.237-.09-.309.025-.078.034-.193-.085-.174.016-.156.023-.27 0-.382-.055.035-.142.113-.211.069-.088-.034.018-.131-.037-.174-.104-.037-.207 0-.278 0-.157.043-.279.043-.412.105.081.069.071.189.159.307.043.041.13.076.13.172 0 .078-.069.149-.105.253a1.622 1.622 0 0 0-.087.349c-.009.175.055.387-.044.543-.149.262-.324.069-.446-.09-.104-.173-.12-.366-.104-.559.007-.156.037-.382-.081-.419-.147-.122-.216.133-.232.226-.009.083.032.159.032.239-.016.113-.104.193-.067.304-.105.037-.143-.11-.151-.19-.033-.194-.184-.315-.2-.463-.104.044-.288.044-.35-.078-.069-.115.069-.23.125-.368-.037 0-.072.034-.106.081 0-.081-.019-.159.019-.194.05-.044.131 0 .191-.062.087-.051-.104-.156-.166-.193-.044 0-.081-.032-.131-.078-.037-.044-.122-.044-.175-.078-.113-.035-.262-.11-.262-.228-.044.069-.069-.035-.06-.076.016-.043.078-.096.094-.175.034-.133-.069-.309.069-.396.159-.101.352-.147.465-.294.105-.14.122-.333.128-.506-.05.019-.122.051-.172.051-.069-.051-.087.042-.124.042-.035-.074-.138-.129-.225-.092-.072 0-.106.092-.147.129-.087.044-.2.078-.247.203-.044.069-.044.175-.044.244.028.193.131.4.123.621-.016.097-.053.175-.088.286-.053.124.035.158.035.317-.209-.09-.209.174-.173.306 0 .095-.115.175-.124.251 0 .097.069.211.184.174a.873.873 0 0 0-.043.263s.018-.087.053-.051c-.019.051.062.051.078 0 .01-.053-.009-.14-.009-.175.115 0 .168.226.29.188.042 0 .129-.05.217-.092a.23.23 0 0 1-.035.042c-.033.087.035.175-.033.209-.062.081-.149.081-.166.159-.028.069-.011.156-.018.262.025 0 .06-.037.097-.037.016-.034.025-.069.066-.11a.274.274 0 0 1-.087.288 1.04 1.04 0 0 0-.193.255c-.05.128-.173.128-.207.267-.025.143-.035.175.034.272.028.078.069.133.09.193 0 .078-.194 0-.249 0-.182-.115-.104-.465-.095-.64-.027.037-.043.097-.087.14a.705.705 0 0 0 .037-.232c-.081 0-.037.188-.124.145-.087-.034-.097-.145-.187-.145-.138 0-.12.347-.154.425-.071.191-.471.053-.612.159-.094.066-.159.101-.288.087-.094 0-.237-.056-.237-.193-.105.06-.193.138-.297.138 0 0 .088-.191 0-.174-.035 0-.071.097-.106.097-.122-.097-.032-.394-.182-.447-.112-.014-.262.053-.356.14-.187.115-.297.307-.377.5.08 0 .112-.081.19-.115-.06.035-.007-.032-.007-.032.035-.046.106-.046.163-.046.118-.06.24-.147.24-.307.035.035.069.035.104.072-.087.138-.219.235-.306.312-.079.156-.217.175-.288.271-.072.149-.054.272-.054.446 0 .051.037.113.017.191-.051.053-.104.081-.104.175-.122-.175-.087-.4-.069-.619-.018.079-.046.131-.062.219-.071-.087.016-.175-.042-.263-.055-.071-.177-.105-.158-.193-.123 0-.168.122-.256.193-.128.088-.244.123-.373.175-.108 0-.368.087-.414-.035-.06-.212.271-.29.327-.386.087-.175-.177-.35-.327-.313.03.06.03.106.03.138-.071-.032-.177-.078-.265-.138-.043-.037-.087-.037-.104-.037 0-.033-.046-.033-.087-.033.042-.143-.131-.105-.174-.177-.106-.104-.09-.191-.228-.232-.105-.064-.193 0-.253.078-.037.014-.15.05-.166.066-.288.628-.526 1.24-.777 1.871.235-.087.453-.138.654-.244.087-.037.193-.105.28-.071.069 0 .122.071.193.071-.046.157-.221.157-.35.198.129.083.304.175.454.083.053.156-.15.635-.35.594-.062-.037-.244-.037-.244.041 0 .131.209.131.182.253-.146-.294-.522.265-.69.265.071-.173.334-.173.428-.352.062-.131-.094-.131-.19-.069-.115.056-.131.156-.203.249-.138.173-.381.102-.296-.135.037-.095.159-.175.212-.251.043-.115-.019-.244.027-.334.095.044.235.09.288-.032-.071 0-.071-.118-.053-.159-.122.023-.34-.106-.393.06.007-.037 0-.078-.044-.06.306-.787.665-1.583 1.012-2.376-.242-.097-.184.559-.4.559.069-.175-.026-.4-.035-.612 0-.193-.141-.368-.037-.542a1.15 1.15 0 0 0-.253.35.948.948 0 0 1-.191.246c-.053.081-.159.122-.218.159-.069.032-.375.188-.421.329-.26.035-.281.384-.532.5.023-.653.899-.653 1.125-1.164-.172.081-.4.143-.568.258-.147.078-.188.267-.356.303 0-.071-.053-.193.009-.225-.131 0-.149.138-.175.188-.027.053-.096.053-.13.097-.037.043-.037.159-.104.159.016-.043 0-.115.041-.115-.278-.043-.016.5-.269.454.104-.207-.037-.382-.037-.594-.016-.156-.079-.347-.244-.267 0 0-.007-.048-.053-.081.016 0 .016-.034 0-.053-.019-.087-.071-.158-.129-.253-.03.019-.175.129-.168.06-.007.035-.035.069-.05.069.032-.11-.062-.156-.108-.156.021-.034 0-.106-.051-.069 0-.079-.087-.079-.141-.079-.105-.046-.043-.156-.053-.218-.149.016-.278.016-.322-.175-.007-.035-.043-.149-.15-.072-.016-.078.062-.156.106-.193-.051-.016-.088 0-.123.019.016-.035.016-.193.072-.235-.081-.035-.159.042-.209.079-.055.081-.108.122-.175.122-.037 0-.105 0-.143.035.087-.156-.138-.035-.2-.019a1.923 1.923 0 0 0-.474.265c-.232.191-.435.628-.794.586-.375-.046-.506.32-.575.621-.046.154-.087.285-.19.4-.125.138-.03.138.057.106 0 0 .046.087.081.101-.051.087-.203.143-.168.246.009.105.064.228-.076.193-.037-.025-.133-.088-.133.016 0 0 .019.071-.023.115 0 .043-.064.078-.055.043.009.034-.087.104-.138.085.062-.051-.027-.128-.035-.225-.037-.079.051-.194.123-.228.05-.067.138-.2 0-.159a1.017 1.017 0 0 0-.333.193c-.085-.156-.341.115-.382.194.154.053-.028.225-.087.269a.591.591 0 0 0-.149.541c.043-.092.149 0 .2-.076.009.076.071.035.078-.016a.523.523 0 0 1-.069.244c.054-.019.095-.069.147-.069.035.035.097.051.122 0 .055.092-.025.193-.104.26-.097.09-.138.247-.226.334-.106.138-.237.138-.325.172-.062.035-.184.214-.253.122-.053-.087.009-.253-.112-.087 0 0-.03.027-.064.074 0 0 0-.03-.007-.074-.016.044-.13.087-.062.124a1.073 1.073 0 0 1-.088.122c-.2.035-.349.297-.48.435a.407.407 0 0 0-.122.255c0 .113.078.29.018.366-.106.174-.348.29-.34.524 0 .115.087.115.168.081.085-.122.126-.194.191-.334.041.212-.15.401-.24.562-.032.032-.225.313-.119.313a4.56 4.56 0 0 1-.141.131c-.037.043-.043.131-.069.2.138-.042.241-.2.377-.262-.012.138-.03.262-.03.393-.019.193.087-.043.105 0h-.009c.06 0 .06-.112.131-.096-.112.175.087.159.175.053-.019.193-.193.315-.332.428-.14.2-.193.41-.386.543-.069.041-.095.156-.175.218-.087.087-.19.131-.278.191-.113.035-.175.131-.244.209-.025.035-.042.081-.105.081-.017-.027-.053-.046-.017-.046a.24.24 0 0 0-.315.081c-.069.159-.253.2-.324.375.046 0 .09-.027.113-.069 0 .105.133-.035.142-.053.035-.094.113-.333.226-.253-.026.078-.072.113-.088.159.016.042.412-.081.327 0 .11.074.2-.159.233-.239 0 .019 0 .046.018.081.035 0 .112-.15.156-.193.156-.097.263-.191.403-.288.159-.097.244-.212.359-.332.147-.097.288-.23.446-.306.097-.081.2-.159.278-.271.096-.122.009-.228.071-.368.051-.235.419-.235.506-.506.017 0 .017.02.017.062.089-.062.131-.133.209-.202.071-.069.177-.106.246-.193.087-.102.172-.348.35-.304-.018.043-.034.078-.044.115.081 0 .131-.072.219-.072-.027.072-.087.072-.131.159-.044.069-.044.102-.062.209-.053-.021-.087-.107-.138-.107-.071 0-.167.107-.211.161-.147.156-.228.382-.348.603-.062.076-.394.322-.15.322.219 0 .341-.23.498-.322-.044 0-.044.042-.019.042.071-.042.071-.2.168-.2a.428.428 0 0 1-.044.113c.044 0 .051 0 .069-.069.016.069.088.069.123.033.096-.033.158-.138.2-.207.019-.079 0-.079 0-.14 0-.097.046-.173.081-.247.034.021.088.021.125.021-.021.016-.012.053.034.085 0-.032.023-.069.033-.085.037.085.105-.021.158-.021-.016.037-.122.106-.046.175.046.018-.094.055-.104.072.028 0 .078 0 .104.02-.016 0-.025.083.011.083-.027.071-.087.105-.115.211.078 0 .115-.105.175-.043-.087.2.219.288.15.444.041-.034.331-.069.278.037.094 0 .108.122.175.188.088.046.175-.066.288-.066-.042.112-.112.191-.112.312.025.168.158.035.264.035-.106.211-.106.465-.018.718.041.131.06.244.018.402 0 .035 0 .081.042.122.062 0 .046.106.046.106.035 0 .058-.053.085-.106.018.032.018.106.062.147.069.078.112-.147.112-.147 0-.122.016-.262-.069-.296-.071-.054-.191-.054-.156-.159.051.105.174-.069.241-.069.056-.104.159-.297.175-.297.046 0-.138.384.105.366 0 .019-.043.175.053.14-.009.035.034.193-.053.193.131.035-.234.506.044.506-.016.053-.078.118-.044.193.021.069.087.14.087.228v.044s-.112.032-.007.085c-.004.108-.057.239-.081.377.087-.037.131-.299.247-.193-.037-.035-.141.386-.141.386.025.014.069 0 .095.035.02-.071.02-.193.046-.265.041.071.087.212.016.281-.062.105-.138.105-.104.219.05.237.209-.076.331-.076 0 .122-.115.188-.193.267-.097.081-.097.24-.088.332.011.133-.05.193-.104.29-.053.159.141.228.104.368.053-.016.037-.097.053-.14.025-.069.122-.104.209-.104 0 0-.078.104-.097.209-.007.053.064.067.064.172-.089-.105-.152.053-.142.115.027.113.142-.027.193-.027-.028.106-.051.334.104.334-.025.077-.051.121-.066.158h.084c0 .036-.053.051-.069.123 0 0 .069.084.069.172h-.104c.035.037-.018.073-.046.105-.069.107-.023.176-.023.263a.568.568 0 0 1 .279-.087c.085.043.069.215.172.215.087 0 .237-.172.317-.06.104.105.104.272.329.235-.032.037-.016.062.028.037-.009.079-.044.156-.06.234.069-.035.104-.122.147-.156-.009.034.044.034.095.034-.079.158.034.236.08.365.106.175.062.35.062.571.025 0 .06 0 .084-.046 0 .046 0 .046.037.046-.037.078-.184.207-.167.341-.026-.107.062-.23.046-.307-.021-.08-.23.025-.281.044-.035.033-.053.085-.072.156 0 0 0-.071-.016-.123-.043-.111-.28-.111-.384-.111-.009.285.209.541.138.927.158-.049.009.25-.035.285-.025.106.019.106 0 .178a1.36 1.36 0 0 0-.032.332c0 .33-.037.634-.125.961-.105.297-.193.601-.105.87.062.18.087.318.087.493l.019.147c0 .063-.078.096-.078.174-.027.24-.131.658.115.875.087.115.035.271.087.383.032.132.179.173.154.366-.017.115.133.237.202.079.009-.033-.06-.033-.028-.079.037-.042.106.046.159 0-.044.115.016.255.016.368-.104-.06-.138.128.043.128.149 0 .306-.067.456-.032-.046 0-.134.032-.175.032h-.385a.263.263 0 0 0 .237.159c0 .107-.108.14-.134.218-.043.131.097.29.184.368.226.234.384.542.384.847.106 0 .209-.019.297 0 .071.064.14.106.228.106.124.034.278.069.297.226.221-.157.455.211.542.352.104.172.131.347.263.522.105.244.188.455.34.674.2.287.655.322.828.619.131.174.149.423.211.64.035.077-.034.13-.018.233a.6.6 0 0 0-.315.037c.037.078.115.122.193.193.078.035.14.123.209.175.193.12.324.12.497.138.349.054.472.438.568.732.034.134.078.309.271.353.184.065.359.243.506.384.087.05.342.435.499.402a.485.485 0 0 0 .104-.307c-.016-.115-.129-.192-.241-.255-.177-.067-.353-.159-.456-.348-.122-.229-.253-.437-.386-.699a.868.868 0 0 0-.191-.28c-.072-.068-.156-.088-.209-.156-.071-.065-.053-.175-.115-.297-.042-.072-.128-.176-.182-.246-.122-.154-.193-.348-.368-.488-.193-.037-.193-.244-.325-.368-.2-.14-.26-.331-.366-.506-.044-.069-.147-.149-.218-.228-.072-.112-.042-.21-.051-.331.105 0 .209.044.297.044.105.041.216-.044.322-.115.096-.087.177.156.218.209.042.113.062.246.087.352.051.069.128.139.193.211.147.157.209.383.368.488.175.111.26.244.435.42.078.036.104.158.193.158.069.076.158.053.244.095.09.043.035.175.106.233.076.072.173.072.25.159.072.071.133.071.239.106.051 0 .122.088.18.088-.025.104-.154.243-.069.383.069.113.35.175.465.244.156.124.294.295.469.391.175.098.368.213.543.322.156.144.281.318.453.456.159.134.315.265.421.402.104.159.209.272.166.465-.01.076-.079.287.043.27-.113.349.313.637.621.715.06.019.147.019.2.035.071.019.141.08.228.142.191.034.299.138.454.226.158.143.368.081.542.081.228-.034.437.044.637.094.219.035.41.125.631.125.26.016.48-.046.731-.046.184 0 .361.096.57.114.216.016.435-.053.671-.053.46 0 .778-.426 1.212-.507.194-.018.368-.034.559 0 .193.018.386 0 .501.104.088.088.126.169.216.213.087.018.191.018.263.05.172.079.35.193.557.141-.023.141.23.095.301.068.225-.034.46.026.697.072.244.035.453-.156.69-.141.097 0 .203.017.29-.016.122-.125.193-.219.331-.253-.096.096-.035.253.035.321.053.06.141.016.216.042.081 0 .175.046.239.081.145.13.297.245.479.367.06.017.149.035.209.139.028 0 .072.087.131.071-.034.034.019.078.037.122.035.033 0 .087-.018.131-.035.147.085.253.202.289.304.074.147-.055.304-.211.087-.122.219 0 .297.037.156.032.29.078.454.138.115.016.14.069.193.209.037.078.115.175.221.122-.03-.068-.046-.122-.081-.175.087 0 .156.069.218.087.129.088.235-.034.338-.087.126-.046.239 0 .352-.087.138-.033.19.087.296.122.106.052.209-.035.306-.035.131.035.216.146.368.053.06-.053.174-.14.112-.228-.053-.119-.193-.119-.288-.087-.062-.147.147-.245.235-.322.035-.062 0-.149.069-.217.026-.019.133-.036.106-.151.087.046.2.046.296.115 0 0 .016.036.053.062.157.147.368.042.525-.062.053.104-.065.175-.088.253-.043.131.104.29.216.322.149.046.299-.069.447 0 .158.046.112.262.158.349a.318.318 0 0 0 .106.175c.017.106-.037.142-.037.176 0 .192.166.33.159.474 0 .129-.105.304 0 .438.078.084.209 0 .312 0-.104.216-.131.45-.34.602-.094.042-.2.155-.2.286-.046.036-.046.105-.053.158 0 0 .087.079.071 0 .026.079.123.035.154.079-.032.043-.066.096-.12.096.016.034.037.076.053.113-.037-.037-.062-.079-.125-.079-.069 0-.085.139-.027.079.027.253-.209.331-.319.506-.106.193.19.234.145.428 0 .088-.113.134-.145.246-.065.141.145.175.156.297.034.134-.133.175-.184.244-.044.141.138.175.184.28-.053 0-.053.129-.125.129.028.036.072.115.113.132.046 0 .117 0 .133.034.042.123-.087.143-.14.246.159-.044.333 0 .49 0-.053-.104.175-.123.14-.246.097-.034.079.246-.096.246.009.07.087.07.131.07-.175.21-.402.382-.499.639a.386.386 0 0 0 .087.391c.115.073.271.105.324.28.016.122.044.28.21.297.14 0 .278-.017.421 0 .163.037.306.156.453.193.191.077.4.077.584.138.166.055.322.133.472.212.131.034.287.096.368.193.025.075.06.172.129.207.071.018.132.044.175.124.09.156.228.288.402.402a.682.682 0 0 1 .167.12c.017.09.059.149.124.176a.794.794 0 0 1 .408.176c.071.069.48.338.271.436.041.077.148.062.209.105a.945.945 0 0 1 .271.165c.209.098.366.098.61.115.097 0 .209 0 .315.06.087 0 .174.08.28.08.253-.08.506-.14.774-.157.188-.017.412-.072.632-.035.096.019.173.069.277.112.097.044.203.08.29.08.209.079.281.314.34.507.094.258.184.522.324.75-.296.141.113.487.088.714-.016.054-.103.1-.062.157.078.159.104.247.097.402-.019.227.174.449.182.683.018.132.027.229.044.349a.216.216 0 0 1 .036.193c-.009.056-.053.088-.036.131.027.113.036.176.027.287 0 .125-.027.235-.027.388.027.216.306.277.281.49-.018.094-.062.521.155.443-.025.132.131.253.105.428 0 .112-.105.193-.105.262-.016.175-.054.351-.044.474.019.173 0 .305-.129.349.244.149.033.418-.019.593-.019.062 0 .141-.019.193 0 0-.077.104-.103.173-.054.078.14.193.182.295.062.107.212.179.221.328.016.154-.115.27-.115.408.01.114-.019.326.131.349.141.056.245-.175.418-.175-.033.09.018.23.038.309.016.129-.062.19-.088.288-.021.08.155.034.13.14-.011.067-.062.088-.113.173.033 0 .071 0 .087.034-.036.054-.087.054-.14.054.155.043.016.28.053.351.033-.018.071-.018.087-.036-.016.124.069.312-.087.35-.053-.124-.209.034-.271.078.019-.044.062-.044.027-.078-.053.034-.141.034-.212.034-.088.044-.138.122-.207.176h.104c-.034.062-.07.14-.104.236.086-.044.104-.131.207-.175l.01.113c.037-.035.097-.035.149-.069.025-.025.053-.071.105-.088.104-.018.217.088.175.175.042 0 .067 0 .104-.018-.016.018-.209.105-.165.124.041.034.041.262.149.207-.062 0-.088.141-.021.177.105.069.134-.122.193-.122-.06.122-.157.26-.193.409.062-.019.158-.062.236-.044 0 0-.062.061.019.061.025 0 .112-.078.13-.017-.059.017-.123.081-.174.131.069 0 .193-.034.209.088-.053.037-.14.069-.209.104-.141 0-.333.175-.412.219.062.046.134.046.201.062.062 0 .088.072.158.072.097 0 .262.041.359-.037-.098.037-.271-.078-.351-.035-.016-.043.069-.043.095-.043.081-.019.123-.078.123-.115h-.018c-.019-.032-.05-.122-.105-.122.081-.034.152-.066.244-.066.088 0 .124-.037.211-.125a.352.352 0 0 1 .157-.068c.096-.046.019.068-.007.156-.028 0-.524.193-.332.263.059.041.146 0 .218 0h.14c.105 0 .123-.069.209-.069.027.085.221.032.278 0 .124-.124.036-.315.143-.396.097-.112.263-.078.365-.166.069-.068.107-.102.165-.174.098-.086.22-.086.325-.141-.044-.032-.281.055-.281-.032.02-.159.028-.368.195-.439-.195-.034-.063-.166.065-.166.177 0 .248-.078.23-.217-.037-.368.365-.525.637-.735-.044-.017-.104-.051-.163-.051.163-.156-.124-.14-.221-.124-.112.019-.524.124-.499-.113.016-.149.209-.269.299-.365.103-.078.2-.222.331-.256.068-.034.209-.052.166-.175-.018 0-.044.02-.076.02.182-.278.145-.633.44-.85-.086 0-.173 0-.249.046-.028-.156.364-.297.381-.124.115-.069.265-.173.23-.304-.081.06-.175.06-.247.097-.071.066-.155.096-.242.138-.159 0-.15-.199-.335-.138.038-.097.038-.211.098-.299.097-.106.271-.035.393-.035.263-.034.578-.269.647-.506.043-.104.043-.307 0-.384-.017-.115-.132-.115-.15-.226-.025-.065.134-.065.176-.065.151-.06.255-.174.393-.209.515-.303 1.103-.584 1.469-1.083.104-.175.305-.428.245-.653-.036-.125-.437-.156-.289-.299-.22-.113-.496-.016-.638-.244-.097-.156-.175-.453.037-.584.018.131-.019.349.145.391.105.037.203 0 .299 0h.322c.229-.042.377-.217.577-.312.159-.124.385-.226.533-.4.132-.143.194-.353.308-.562.043-.124.121-.175.146-.28.044-.111.009-.226.044-.305.044-.238.192-.445.297-.639.05-.122.079-.209.14-.299.062-.069.19-.146.262-.224.017.034.017.034.017 0a.473.473 0 0 1-.017.313c-.053.087-.158.175-.121.28-.037-.071.078-.105.121-.105a.758.758 0 0 0 .081-.265c.042-.224.069-.492.183-.729.062-.115.105-.209.155-.29.081-.113.175-.209.21-.368.103-.19.021-.384-.019-.6-.022 0-.05.016-.094.04 0 0-.044-.13 0-.174-.061.099-.044-.041-.044-.041 0-.149-.054-.281-.054-.438.016-.256.256-.429.402-.604.123-.133.21-.233.307-.351.087-.113.125-.235.211-.366.077-.098.181-.147.286-.219.134-.105.236-.226.368-.322-.175-.174.052-.352.189-.431.065-.05.159-.087.247-.172.121-.071.121-.246.253-.28.157-.104.272-.123.36-.28.094-.176.173-.366.165-.541-.025-.366-.044-.653.148-1.021.061-.113.148-.271.207-.41.09-.193.019-.326.01-.577 0-.08.062-.209.087-.333.03-.157-.06-.157-.06-.263-.011-.175.06-.331.06-.487a.858.858 0 0 0-.199-.506c-.044-.134-.313-.481-.132-.631-.044.053-.088.053-.121.087.008-.087.077-.155.077-.227.007-.098-.018-.191.007-.297a.603.603 0 0 0 .064-.245c-.018-.06-.064-.155.022-.155.082-.03.187-.01.22-.081zM71.141 61.092l.035.071c-.088.045-.054-.112-.035-.071zm-.682-4.453c.025.035 0 .193-.087.156-.071 0-.131-.122-.168-.156.063-.037.184-.072.255 0zm-.736 4.412c-.025-.081.09-.081.106-.081-.035.081-.106.237-.191.269.026-.075.026-.188.085-.188zm-.363 1.896c-.018-.037-.115-.272-.087-.315-.001-.001.262.218.087.315zm-.143-6.815s.028.106.037.106c-.046.034-.097-.037-.134-.106.031 0 .088-.036.097 0zm-.515.856c.046.033.159.14.159.193-.007.101-.159.076-.201 0-.036-.053.088-.114.042-.193zm-.06.838c.06-.262.246 0 .219.131-.028.044-.113.097-.166.097-.115.015-.053-.194-.053-.228zm.263 4.577a.413.413 0 0 0 .087-.053c.051.177-.122.212-.244.281.035-.034.085-.104.085-.175-.066 0-.173.106-.209 0 .078-.016.237-.167.281-.053zM63.593 73.51c.025 0 .042 0 .087-.048.016.09.069.107.087.14-.071-.014-.149-.033-.174-.092zm3.816-8.475c.009.042.035.06.064.077.085.255.154.508.242.733.087.237.177.492.262.699-.191-.506-.382-1.002-.568-1.509zm.883-6.038c.051.106-.016.193-.087.237a.296.296 0 0 0-.035-.131c.035 0 .148-.062.122-.106zm-.455.278a.8.8 0 0 1 .159-.234c.138-.115 0 .288-.01.322-.044.062-.149.175-.237.175-.137.045.072-.245.088-.263zm-.925-1.937h.06c-.044-.018-.06.078-.076.078 0-.041.016-.062.016-.078zm-.087 6.446c.019.053.087.212 0 .247-.113.034-.071-.247 0-.247zm.166.709c-.079-.019-.147-.019-.106-.134.028-.079.134-.138.15-.251v-.043c.009 0 .025.087.071.119.066-.154.296-.251.49-.251.067 0 .154.063.226 0 .06-.044.156-.113.122-.193-.105.044-.411.193-.469 0 .154-.062.391-.044.522-.128.146-.105.128-.353.281-.396.087.324.041.78-.307.936-.221.088-.718.088-.736.4-.009-.035-.042-.06-.042-.096-.037.037-.071.037-.087.062.193.209.016.481-.159.628-.25.313-.531.603-.865.805-.081.05-.149.087-.235.087-.044.044-.106 0-.055-.037.117-.073-.18-.073-.226-.119-.09-.072.016-.23.035-.341.011-.083.028-.255.156-.309.028.134-.087.263-.06.419.06.174.428-.226.455-.332.175-.209.384-.368.601-.557.001.002.456-.229.238-.269zm-.325-7.619c-.035.115-.104-.042-.087-.079.046-.035.117.037.087.079zm-.147 5.801a28.208 28.208 0 0 0-.409-1.127c0-.032-.021-.032-.021-.032s.021 0 .037.032c.13.349.26.741.393 1.127zm-.237-5.88c-.113.037-.26.037-.281-.122.124 0 .247 0 .281.122zm-.2 6.055c.062-.019.181-.079.218 0 .043.133-.131.097-.211.112-.025.021-.18.108-.173 0 0-.052.209-.015.166-.112zm-4.01-.778c-.053-.209.156-.244.287-.175.046.125.15.175.133.278-.037.09-.202.055-.28.09a.34.34 0 0 1-.026-.133c-.071 0-.043.115-.097.115-.035-.071-.079-.133-.017-.175zm-.35 1.495c.175-.115.394-.309.35-.584.037 0 .094 0 .141-.021 0-.053.016-.053.057-.053.081-.078.064-.154.089-.235.019.062.046.081.028.115.019 0 .035 0 .06.014.009-.033.016-.173-.041-.173.057 0 .016-.069.016-.069h.225c-.051-.123.281-.159.333-.159.157 0 .228.228.348.334.055.053.159.067.247.067.087-.014.193-.049.26 0 .081.105.158.179.239.236.06.097.104.218.166.291.156.193.435.193.662.158.279-.037.552-.081.824-.192a.515.515 0 0 1 .338 0c.062 0 .265 0 .271.035.028.121.051.193.14.25.062.03.228.115.141.203-.053-.088-.209.212-.053.105 0 .263-.499.107-.63.176-.141.119-.104.349-.051.468.034.072.085.23.051.309-.017.111-.141.157-.147.253-.115-.06-.281-.602-.462-.446-.088.079-.125.35-.281.304 0-.155.019-.304.035-.4.009-.138-.087-.295-.175-.4a.28.28 0 0 0-.244-.122c-.105-.034-.209-.173-.315-.097-.094.063-.124.132-.157.219-.025.088-.105.174-.14.262-.069.119-.157.191-.157.35.016.157-.018.271-.018.382 0 .14.087.28.175.396.087.111.087.269.053.425-.035.194-.072.717-.394.502-.218-.193-.34-.642-.34-.893 0-.117-.018-.29 0-.464a.723.723 0 0 0 .035-.463c-.149.115-.087.387-.281.429-.032-.235.081-.429.131-.584.011-.079.097-.385.221-.235 0 0 .104-.149.122-.192.025-.035.122 0 .2-.035.062-.034.096-.173.166-.21.122-.018.228.037.331 0 .053-.037 0-.105.071-.105.072.046.138.025.209.025-.087-.172-.322-.172-.481-.094-.025-.078-.087-.14-.112-.237-.209.159-.49.525-.803.449-.125-.02-.175-.117-.297-.161-.124-.05-.237.088-.342.125 0 0-.009-.037-.025 0 0-.125.193-.332.281-.368-.159-.236-.412.193-.5.288-.094.117-.281.256-.368.368-.043.132-.269.132-.296 0-.166.044-.322.113-.479.149.136-.266.318-.522.573-.695zM58.49 49.388c-.018 0-.055.051-.078.097-.043-.134.078-.134.078-.097zm-15.263 8.438c-.025-.023-.009.019-.025 0l.034-.087c.019.045.019.045-.009.087zm3.794 1.467c.043-.104-.019-.156-.09-.191.028-.062.046-.141.071-.218.043.041.104.078.08.156-.018.063.051.253-.061.253zm1.929 6.708c0 .23-.043.467-.087.717-.071.446-.122.943-.149 1.399.012-.28.028-.568.046-.855.033-.368.058-.751.138-1.102.009-.123.028-.194.053-.278v.119zm.132.336c.007-.105.078-.176.175-.255 0 0 .007.079.017.113-.08 0-.114.08-.192.142zm2.91-10.098c-.053.034-.088-.037-.143 0-.042 0-.129 0-.157-.106h-.05c.035-.105.207-.193.331-.193.065 0 .187.184.281.177a.393.393 0 0 1-.262.122zm.75 12.716s-.035.138.053.177c.095.044.122-.071.193-.105-.018.067-.025.105 0 .149.035.06.078.06.058.097-.042.524-.504-.274-.304-.318zm.478-11.934c-.094.087-.128.237-.197.299-.106.096-.237.138-.35.175-.167 0-.167-.079-.262-.175-.071-.062-.209-.037-.234-.138-.062-.115.154-.053.216-.053.21 0 .281-.296.456-.368.053 0 .198 0 .198-.14 0-.053-.058-.078-.076-.115-.037-.058-.037-.156-.054-.232-.016-.034-.069-.177-.027-.246.043-.087.193.069.177.105.06 0 .087-.037.113-.037 0 .143-.14.387.035.41.218.018.462-.023.584-.232.046-.034.13-.141.202-.177.087-.069.131-.188.237-.241.06-.021.322-.141.306 0-.046 0-.087 0-.14-.021.007.021.019.074.025.106.028.087-.104.124-.147.156-.09.143-.159.212-.265.317-.104.092-.218.154-.297.26-.085.122-.104.281-.202.315-.086.032-.218-.001-.298.032zm1.636.936c-.15 0-.226.113-.313.193-.133.145-.28.191-.384.32-.23.177-.274.37-.571.455a.234.234 0 0 1 .115-.174c.06-.104.095-.175.166-.21.06-.085.131-.122.184-.246.053-.066.079-.188.122-.242.106-.097.246 0 .368-.034.088-.062.191-.062.281-.106.085 0 .138.087.21.043-.038.044-.178.079-.178.001zm1.258.499c.025-.037.115-.161.156-.069.062.113-.042.226-.131.261-.025-.054-.113-.132-.025-.192zm-.062 1.362c-.016-.042.028-.087.009-.2.037.078.104.113.122.078-.034.034-.069.122-.131.122zm.481-.934c-.025.112.016.218-.025.306-.046.122-.046.312-.219.347 0 0 .01-.05.025-.069-.096.019-.043-.365-.025-.427a.68.68 0 0 1 .106-.332c.025-.062.067-.133.138-.096.016.016.087.096.106.035-.019.103-.09.158-.106.236zm.924 3.207c-.172.042-.084-.228-.084-.309-.019-.19-.237-.19-.333-.304.071-.034.168-.078.255-.105-.069-.069.025-.087.035-.037.025.037-.016.037.079.108.069 0 .104.034.122.104.034.121.101.524-.074.543zm.587.713c-.078-.173-.122-.364-.288-.479-.053-.06-.228-.149-.175-.234.067-.069.29-.019.26.085.03 0 .072 0 .087-.043.037.271.361.396.377.639-.061.032-.19.175-.261.032zm.874-.242c0 .112-.166 0-.182-.035-.036-.203-.071-.352-.087-.506-.09.032-.09.05-.125-.019-.044-.105-.09-.105-.156-.14-.125 0-.037-.159-.016-.246-.037 0-.071-.025-.09-.069-.053.044-.104.09-.174.069-.053-.043-.106-.101-.166-.101-.06-.037-.147-.037-.166-.143-.009-.037.085-.069.085-.133-.4.096-.179-.497.087-.511-.007-.106-.058-.193.037-.265 0 0 0 .106.016.14.027-.018.053-.018.09-.018-.028.35.209.621.394.892.128.191.235.524.547.419l-.007.087c-.026.106-.051.262.016.366.028.091-.096.108-.103.213zm10.267 19.202c.157-.053.278-.114.35.06-.108.028-.308.063-.35-.06zm.768.41c-.053-.042-.14-.042-.209-.042-.081-.071-.053-.211-.062-.28.271.035.655.035.777.322-.167.046-.352.115-.506 0zm5.802 4.428v-.053c.191.518.4 1.015.61 1.556a33.558 33.558 0 0 0-.61-1.503zm7.461 5.279c-.019-.088-.056-.134-.056-.134.021-.215.193-.174.253-.13.115.07.368 0 .43.193-.209.001-.43-.063-.627.071zm1.692.557c.069-.034.141-.019.175.027a.255.255 0 0 1 .062.06c.025-.016.025.036.041.036a.346.346 0 0 1-.278-.123zm1.468 12.947c.01-.032.035-.122.068-.156.044 0 .044.078.09.034-.054.09-.105.09-.158.122zm.334-.122c-.037-.104.188-.149.188-.191-.016.124-.105.157-.188.191zm1.64-23.131c-.129.042-.234.175-.366.261-.131-.332.542-.395.716-.472-.12.077-.228.14-.35.211z"/><path fill="none" d="M43.078 50.566c.028-.019.046-.019.064-.061"/><path fill="#0090D3" d="M43.954 49.659a2.018 2.018 0 0 0-.269.312c.066-.013.237-.27.269-.312z"/><path fill="#0090D3" d="M41.934 52.13c-.06.488-.306.909-.391 1.398.104-.078.26-.174.347-.253.035.079-.071.175-.087.253a2.53 2.53 0 0 0-.209.4c.122 0 .138-.113.209-.156.08-.053.19-.106.262-.193 0 0 0 .046-.023.046h.058c.027-.027.06-.069.087-.105-.018.025-.027.058-.016.105-.034-.097.087-.174.154-.22-.032.22.317.087.386 0-.016.046-.069.124 0 .156 0 0-.069.143-.069.193.228-.175.386-.4.541-.63.143-.198.23-.454.421-.626-.115-.037.035-.212.069-.228a.1.1 0 0 0 0 .072c-.025-.019.037-.056.054-.056-.044.143-.054.271-.15.35.271 0 .43-.253.64-.382.094-.062.347-.193.278-.352.079.193-.19.291-.306.384a.417.417 0 0 0-.097.143c-.069.128.133 0 .159 0-.026.174-.15.347-.263.497a.769.769 0 0 0-.087.306.549.549 0 0 1-.159.297c.055 0 .097-.037.141-.078-.026.078-.067.128-.085.174.294-.097.382-.394.541-.621.035.019.042.035.087.078 0 .042-.053.042 0 .078.035-.036.042-.104.087-.156.016.035.042.053.051.078.055-.078.143-.115.209-.202.071-.069.053-.209.126-.276.048-.105.104-.174.154-.281.019-.069 0-.193.062-.262-.043 0-.062-.042-.089-.087-.087.122-.19.156-.278.28.062-.159.191-.234.29-.352.147-.138.225-.347.296-.522.088-.209.209-.384.341-.543.043-.034.069-.097.115-.138.023-.037.034-.071.039-.071v-.081c.048-.175.193-.285.329-.426.138-.14.129-.246.173-.418.016-.177.207-.219.262-.396.053-.078 0-.19.016-.269 0-.069.087-.175.113-.244-.288.226-.541.435-.828.69 0-.078-.046-.044-.065-.044-.039-.133.099-.172.193-.246.152-.12.265-.225.396-.365-.028 0-.072 0-.087.034.122-.35.497-.506.69-.812.182-.273-.131-.558.027-.848-.071.036-.046-.079-.027-.079-.193.148-.428.271-.63.411 0-.14.115-.22.174-.297-.4.341-.846.672-1.162 1.099h.017c0 .014 0 .051-.017.087-.016 0-.053.035-.087.088-.053.043-.12.078-.175.122.043 0-.087.087-.069.087-.053.072-.087.141-.15.173a.7.7 0 0 1 .131-.18 2.436 2.436 0 0 1-.138.147c.023-.034.05-.069.069-.141.105-.166.314-.297.437-.471-.051.05 0 0 0-.087a.65.65 0 0 1-.123.158s.007-.096.035-.096c-.087-.062-.156.076-.193.131-.069.125-.156.2-.242.279-.193.193-.336.418-.527.632.053-.039.071-.074.087-.074-.081.113-.166.156-.244.246.035 0 .051-.053.078-.053 0 0-.043.097.01.053-.071 0-.071.085-.115.122a1.37 1.37 0 0 1-.2.228c-.087.085-.228.158-.299.235-.017 0 .037-.044.037-.044h-.049c-.012.016-.028.025-.039.044.004-.026.016-.031.025-.044.007-.012.014-.033.019-.033-.044.033-.106.077-.147.12a3.183 3.183 0 0 1-.458.516v-.018l-.016.018c.016-.037-.033.044-.033.044-.037.035-.071.112-.126.112.049 0 .065-.041.09-.078 0 0-.018.037-.018.078-.175.175-.332.322-.456.516.071-.053.124-.129.211-.226-.156.211-.315.384-.472.575-.129.161-.285.334-.322.527zm2.892-3.161h.01c-.026 0-.042 0-.062.032-.001 0 .036-.032.052-.032z"/><path fill="#0090D3" d="M45.247 48.514a4.286 4.286 0 0 0-.133.14c.051-.048.102-.094.149-.14h-.016zM45.054 48.716a.885.885 0 0 0 .06-.062c-.022.021-.04.044-.06.062zM45.387 48.357c.004-.007.012-.012.016-.019h-.009l-.007.019zM43.678 49.981c.002-.005.005-.007.007-.01-.007 0-.016.012-.021.01h.014z"/></svg>