<svg xmlns:xlink="http://www.w3.org/1999/xlink"  xmlns="http://www.w3.org/2000/svg" viewBox="0 0 150 150"><ellipse fill="none" cx="75.1" cy="44.1" rx="7.9" ry="7.6"/><path fill="#2F3236" d="M82 28.6v-7.1c0-1.3 0-2.4-2-3V9.8c0-2-2-3.5-4-3.5s-4 1.6-4 3.5v8.6c-3 .6-4 1.8-4 3.1v6.9c2-.9 4.2-1.4 6.7-1.4 2.7-.1 6.3.5 7.3 1.6z"/><path fill="#A05B49" d="M91.4 56.6s0-1.9-1.7-2.8c2-2.8 3.1-6.1 3.1-9.7 0-6.8-4.2-12.7-10.1-15.5-2.3-1.1-4.9-1.7-7.6-1.7-2.5 0-4.9.5-7 1.4C61.8 31 57.3 37 57.3 44.1c0 3.1.8 6 2.3 8.4h-.1s-2.8 1.1-3.7 3l-13.2 46.6 9.3 17.4 17.5-55.3s6.8-6.5 10.4 1.6c.3 1.1 17.2 53.4 17.2 53.4l9-15.5-14.6-47.1zM75.1 36.5c4.4 0 7.9 3.4 7.9 7.6 0 4.2-3.5 7.6-7.9 7.6s-7.9-3.4-7.9-7.6c0-4.2 3.5-7.6 7.9-7.6z"/><path fill="#2F3236" d="M40.2 127.2l2.2 4.6 1.4 9.8 1.7-8.4 3.1-11.2-4.8-10.9zM104.2 114.5l-5.7 8.7 3.1 11.2 1.7 8.5 1.4-9.8 4.2-7.1zM66 85h6v8h-6zM76 85h7v8h-7zM66 96h6v6h-6zM76 96h7v6h-7z"/></svg>