<svg xmlns:xlink="http://www.w3.org/1999/xlink"  xmlns="http://www.w3.org/2000/svg" viewBox="0 0 150 150"><path fill="#5C5C5C" d="M27.9 45.6h29.5v.7H27.9zM27.9 39.3H45v.7H27.9zM27.9 33.1h29.5v.7H27.9zM30.4 62.4h16v.7h-16zM22.8 56.2h23.6v.7H22.8zM30.4 50h16v.7h-16zM106.2 62.8h16v.7h-16zM106.2 56.6h24v.7h-24zM106.2 50.4h16v.7h-16zM93.2 45.1h29.5v.7H93.2zM103.9 38.9h18.7v.7h-18.7zM93.2 32.7h29.5v.7H93.2zM60.3 28.3h29.5v.7H60.3zM50.2 22.1h49.7v.7H50.2zM60.3 15.8h29.5v.7H60.3zM29.6 129h88.5v.7H29.6zM26.6 122.7h37.1v.7H26.6zM98.2 123.6H123v.7H98.2zM70.9 124h15.6v.7H70.9zM29.6 116.5h88.5v.7H29.6z"/><path fill="#5C5C5C" d="M33.1 27.9h.7v104.8h-.7zM39.3 27.9h.7v104.8h-.7zM47.4 19.1h.7v119.8h-.7zM53.6 19.1h.7v113.5h-.7zM59.8 19.1h.7v113.5h-.7zM65.8 6.2h.7V144h-.7zM74.8 6.2h.7v126.5h-.7zM83.5 6.2h.7v126.5h-.7zM90 19.1h.7v113.5H90zM96.2 19.1h.7v119h-.7zM102.4 19.1h.7v113.5h-.7zM110.5 27.9h.7v114.7h-.7zM116.7 27.9h.7v104.8h-.7z"/><g><path fill="#39499B" d="M74.1 29.3L62.4 40.2v57.2h-2.1V45.5l-12.9 13v45.2h-1.7V65.1L33.2 77.5v37.4H75V28.6l-.9.7z"/><path fill="#5C5C5C" d="M75.8 114.4V29.7l11.6 10.7v57.5h3.1V46.8l11.9 12v45.5h2.7V66.4l11.6 11.3v36.7z"/><path fill="#00A9DE" d="M75.4 29.7v85.2h41.8V77.5l-12.6-12.4v38.6h-1.7V58.5L90 45.6v51.9h-2.1V40.3L75.4 28.6v1.1z"/></g></svg>