<svg xmlns:xlink="http://www.w3.org/1999/xlink"  xmlns="http://www.w3.org/2000/svg" width="150" height="150" viewBox="0 0 150 150"><path fill="#00AEDB" d="M72.112 145.22c-.565-.43-14.105-10.82-27.787-28.254-8.073-10.267-14.508-20.884-19.141-31.517-5.829-13.405-8.776-26.895-8.776-40.094V42.23l3.047-.662c.411-.09 40.497-9.012 51.521-31.47L74.462 3l3.477 7.099c11.015 22.458 51.102 31.38 51.512 31.47l3.057.662v3.125c0 13.199-2.965 26.688-8.785 40.094-4.641 10.633-11.06 21.25-19.132 31.517-13.687 17.434-27.225 27.824-27.796 28.254l-2.332 1.786-2.351-1.787z"/><path fill="#00708B" d="M130.568 43.79l-1.53-.326c-.408-.087-41.392-9.17-52.853-32.522l-1.724-3.535-1.748 3.535C61.26 34.294 20.286 43.377 19.867 43.464l-1.53.326v1.565c0 12.942 2.906 26.17 8.636 39.336 4.552 10.47 10.896 20.938 18.873 31.074 13.535 17.256 26.869 27.494 27.429 27.916l1.188.891 1.169-.891c.555-.422 13.906-10.66 27.447-27.916 7.96-10.137 14.304-20.604 18.865-31.074 5.729-13.166 8.625-26.394 8.625-39.336V43.79z"/><path fill="#77787B" d="M74.462 11.791c-12.016 24.49-54.185 33.563-54.185 33.563 0 55.547 54.185 96.782 54.185 96.782s54.176-41.235 54.176-96.782c0 0-42.168-9.073-54.176-33.563"/><path fill="#626366" d="M74.034 11.791v130.346s54.185-41.235 54.185-96.782c0-.001-42.16-9.074-54.185-33.564"/><path fill="#00AEDB" d="M74.282 63.141c-.604 1.468-1.266 2.872-2.076 4.103a14.177 14.177 0 0 0 2.06-3.042 22.457 22.457 0 0 0 1.905 2.685 20.466 20.466 0 0 1-1.889-3.746"/><path fill="#00AEDB" d="M109.568 67.355c-.306.461-.887.842-1.425 1.008-1.572.474-1.95.977-1.836 2.671.016.37-.069.94-.314 1.12-1.615 1.213-3.185 2.537-4.955 3.435-2.427 1.22-4.535.343-5.228-2.249-.579-2.15-.632-4.459-.819-6.702-.032-.291.392-.726.709-.905.904-.53 1.186-1.384.65-2.125-.333-.445-1.37-.779-1.949-.623-.957.245-1.033 1.14-.741 2.061.118.404.229.976.041 1.259-1.544 2.228-3.475 4.035-6.019 5.077-3.741 1.536-6.774.794-9.141-2.454-1.149-1.574-1.977-3.389-2.842-5.14-.207-.386-.094-1.075.143-1.477 1.123-1.908 2.744-2.131 4.409-.655.309.283.623.565.981.889.771-3.117-.411-4.37-4.268-4.833-.78-2.826-1.515-5.584-2.272-8.351-.215 0-.452-.014-.676-.014-.733 2.761-1.47 5.531-2.219 8.365-4.092.495-5.271 1.706-4.417 4.69.736-.517 1.437-1.304 2.266-1.493.714-.169 1.729.135 2.347.596.496.366 1.015 1.501.802 1.916-1.247 2.319-2.503 4.684-4.144 6.725-1.458 1.85-3.67 2.322-6.052 1.803-3.669-.783-6.14-3.146-8.343-6.139.102-.201.162-.325.229-.452.648-.94.626-1.905-.427-2.329-.538-.215-1.641.065-1.988.524-.703.891-.213 1.718.777 2.262.248.15.579.488.565.697-.292 2.434-.389 4.923-1.034 7.256-.609 2.127-2.495 2.937-4.5 1.997-1.975-.944-3.72-2.345-5.501-3.635-.273-.199-.344-.882-.292-1.324.129-1.301-.383-2.166-1.666-2.33-.965-.138-1.409-.684-1.88-1.415-1.476-2.298-3.927-3.495-6.436-3.241.091.125.16.249.273.336 3.979 3.222 7.028 7.167 9.325 11.706.171.347.383.731.692.915.246.175.529.276.786.421.469 2.698.965 5.1 1.417 7.78 10.546-1.186 19.786-1.616 29.617-1.606 9.852 0 19.307.518 30.007 1.987.471-2.872.933-5.34 1.381-8.207-.16.046-.375.115-.551.167.717-.381 1.296-1.165 1.809-1.86 2.101-2.858 4.066-5.819 6.217-8.609.899-1.154 2.159-2.052 3.417-3.207-3.097.105-5.319 1.312-6.925 3.712"/><path fill="#00AEDB" d="M104.378 86.167c.024.109.024.214.032.303.033.528.053 1.07.077 1.597.045.647.069 1.301.11 1.949.028.66.068 1.312.096 1.984.009.133.018.26.018.381-.052.07-.113.036-.154.036-.674-.084-1.349-.146-2.017-.216-.63-.057-1.246-.11-1.879-.167a73.367 73.367 0 0 0-1.989-.169c-.529-.047-1.041-.091-1.571-.132a40.495 40.495 0 0 0-1.673-.116 9.787 9.787 0 0 0-.899-.073c-.676-.04-1.337-.084-2.013-.131-.78-.038-1.546-.085-2.316-.129-.689-.034-1.381-.066-2.081-.106-.802-.03-1.63-.065-2.451-.098-.725-.023-1.45-.056-2.17-.068-.648-.026-1.271-.03-1.922-.042-.888-.024-1.775-.045-2.674-.059-2.107-.057-4.208-.036-6.317-.036h-1.596c-1.078.024-2.137.036-3.204.05-.844.021-1.679.045-2.528.061-.99.039-2.007.089-3.014.105-.786.036-1.555.078-2.33.099-.94.061-1.905.095-2.846.163-.968.042-1.93.107-2.886.18-.839.044-1.683.099-2.51.165-.75.055-1.486.121-2.23.18-.46.042-.921.076-1.393.123-.606.055-1.227.11-1.836.18-.591.044-1.169.121-1.748.179-.044.011-.086 0-.157 0 .019-.693.071-1.377.085-2.064.036-.671.072-1.368.113-2.059.033-.675.058-1.358.11-2.042a.29.29 0 0 1 .138-.032c.538-.061 1.092-.127 1.638-.171.431-.045.855-.089 1.299-.132a35.1 35.1 0 0 1 1.332-.116c.505-.057 1.009-.089 1.52-.132a25.761 25.761 0 0 1 1.547-.112 59.186 59.186 0 0 1 1.877-.136c.292-.034.59-.046.882-.064.7-.048 1.409-.091 2.109-.118.847-.039 1.696-.095 2.562-.13.665-.032 1.332-.058 2.007-.092.701-.019 1.39-.055 2.109-.065.331-.021.681-.021 1.031-.05.626 0 1.266-.022 1.908-.042h1.036c1.249-.022 2.506-.022 3.761-.031 1.034-.01 2.06-.036 3.107-.025 1.263.016 2.545.025 3.81.034.889.022 1.76.022 2.631.042.811.022 1.597.051 2.391.072.998.047 1.999.065 2.997.1.802.032 1.615.076 2.418.099 1.033.05 2.064.104 3.116.159.826.048 1.646.089 2.476.133.667.051 1.317.095 1.963.137.599.035 1.188.075 1.795.123.582.043 1.169.091 1.751.132.493.034 1.009.068 1.511.116.463.028.932.077 1.392.127.505.041.998.083 1.495.127.043-.003.085.013.154.019"/></svg>