<svg xmlns:xlink="http://www.w3.org/1999/xlink"  xmlns="http://www.w3.org/2000/svg" width="150" height="150" viewBox="0 0 150 150"><path fill="#302B2F" d="M23.937 104.488a9.224 9.224 0 0 0-1.282-1.043 3.744 3.744 0 0 1-1.614.372H10.033a9.594 9.594 0 0 0-.953.837l-.455.563c-3.542 4.161-3.353 10.412.633 14.309a10.25 10.25 0 0 0 3.961 2.38l-.118-9.859c-.021-.523.118-1.01.296-1.459.548-1.209 1.739-2.073 3.154-2.082a3.49 3.49 0 0 1 2.488.998c.294.289.528.637.699 1.02.2.432.354.914.349 1.433l.128 9.881c1.419-.528 2.763-1.34 3.896-2.507 3.883-3.979 3.932-10.212.279-14.303l-.453-.54zM7.757 95.499a3.733 3.733 0 0 1 2.239-.752h11.046c.586 0 1.142.141 1.636.385.103.051.203.104.302.165a2.118 2.118 0 0 0 1.146-1.872V91.9c0-.164-.024-.324-.061-.482a2.118 2.118 0 0 0-1.157-1.425 4.224 4.224 0 0 1-2.194.896c-.141.01-.283.022-.427.022H6.454c-.046 0-.093-.011-.138-.011a2.1 2.1 0 0 0-.26 1v1.524a2.118 2.118 0 0 0 1.701 2.075M7.527 88.79H20.287c.134 0 .268-.015.398-.04.039-.005.068-.018.102-.025a2.13 2.13 0 0 0 1.615-2.053V85.15a2.113 2.113 0 0 0-1.785-2.085 1.92 1.92 0 0 0-.33-.03h-.818a3.553 3.553 0 0 1-2.131.726H6.291a3.39 3.39 0 0 1-1.202-.221 2.1 2.1 0 0 0-.755 1.61v1.521c0 .847.496 1.568 1.213 1.91.276.13.578.208.906.208h1.074zM6.291 81.641h11.045c.505 0 .958-.287 1.268-.725.26-.374.425-.856.425-1.391V78c0-1.168-.761-2.117-1.692-2.117H6.291c-.938 0-1.696.949-1.696 2.117v1.525c0 .635.229 1.196.583 1.584.299.33.681.532 1.113.532M21.042 96.863H9.996a1.67 1.67 0 0 0-1.407.794 1.816 1.816 0 0 0-.283.984v1.279c0 .981.758 1.775 1.689 1.775h11.047c.934 0 1.691-.794 1.691-1.775v-1.279c0-.37-.108-.719-.297-1.004a1.66 1.66 0 0 0-1.394-.774M139.989 104.654c-.3-.31-.624-.58-.952-.839h-11.011a3.725 3.725 0 0 1-1.61-.37 9.35 9.35 0 0 0-1.281 1.045l-.456.539c-3.65 4.089-3.605 10.322.276 14.299 1.134 1.166 2.479 1.978 3.9 2.507l.127-9.879c-.004-.519.148-1.001.348-1.433.176-.385.405-.733.7-1.021a3.49 3.49 0 0 1 2.488-.996c1.42.009 2.607.876 3.157 2.08.175.451.312.935.294 1.461l-.117 9.859c1.442-.48 2.809-1.259 3.957-2.383 3.987-3.894 4.176-10.142.635-14.307l-.455-.562z"/><path fill="#302B2F" d="M123.716 104.122c-.17-1.044.155-2.119.634-3.205a3.846 3.846 0 0 1-.131-.998v-1.277c0-.634.151-1.227.409-1.754a4.253 4.253 0 0 1-1.802-3.463V91.9c0-1.53.818-2.871 2.045-3.616a4.2 4.2 0 0 1-.322-1.615V85.15a4.234 4.234 0 0 1 3.61-4.183 4.721 4.721 0 0 1-.234-1.447V78c0-.848.229-1.64.618-2.304.683-1.161 1.859-1.931 3.192-1.931H139.82c-.591-.688-1.182-1.377-1.778-2.062a10.107 10.107 0 0 0 2.369-1.696l.468-.547c3.641-4.08 3.608-10.333-.285-14.324a10.258 10.258 0 0 0-3.901-2.477l-.116 9.864c0 .523-.149 1.001-.357 1.449a3.188 3.188 0 0 1-.703 1.016 3.434 3.434 0 0 1-2.477.988h-.02c-.447-.4-.933-.489-1.47-.353a3.57 3.57 0 0 1-1.656-1.742 3.142 3.142 0 0 1-.306-1.441l.106-9.879c-1.431.492-2.795 1.27-3.959 2.407-3.885 3.792-4.149 9.83-.849 14.003-1.528.784-3.054 1.57-4.566 2.385-1.414.764-2.309 2.114-3.156 3.483a126.886 126.886 0 0 1-3.877 5.908c-1.883 2.7-4.039 5.13-6.83 6.239 6.7-14.269 9.518-30.03 10.319-48.288-13.102 3.811-27.646 5.929-42.966 5.929-15.311 0-29.858-2.118-42.96-5.929.782 17.829 3.488 33.276 9.855 47.284-1.904-1.284-3.491-3.183-4.92-5.235a130.244 130.244 0 0 1-3.879-5.908c-.848-1.369-1.743-2.717-3.154-3.483a244.287 244.287 0 0 0-4.571-2.385c3.307-4.173 3.041-10.208-.843-14.003-1.167-1.135-2.53-1.914-3.963-2.407l.112 9.879a3.14 3.14 0 0 1-.31 1.441 3.553 3.553 0 0 1-1.656 1.742c-.536-.137-1.023-.048-1.466.353l-.021.004a3.465 3.465 0 0 1-2.477-.988 3.177 3.177 0 0 1-.704-1.019c-.212-.448-.359-.926-.356-1.449l-.119-9.864a10.26 10.26 0 0 0-3.901 2.477C4.581 59.129 4.551 65.38 8.193 69.46l.465.547a9.93 9.93 0 0 0 2.374 1.696c-.598.686-1.19 1.374-1.781 2.062h8.085c1.334 0 2.507.77 3.195 1.931.386.666.613 1.457.613 2.304v1.524c0 .507-.083.988-.235 1.444.616.091 1.184.31 1.681.631a4.233 4.233 0 0 1 1.927 3.552v1.521c0 .572-.109 1.115-.316 1.612a4.234 4.234 0 0 1 2.04 3.616v1.524a4.24 4.24 0 0 1-1.8 3.463c.258.53.412 1.12.412 1.754v1.277c0 .349-.049.679-.134.998.482 1.086.807 2.161.635 3.205-.285 1.712.108 2.577 1.992 3.176 7.586 2.411 15.364 1.436 23.08 1.596.367.008 2.78-.014 5.143-.103 5.062 5.755 11.085 11.325 18.241 16.789 7.184-5.486 13.224-11.074 18.301-16.855 2.712.146 6.094.177 6.534.167 7.718-.158 15.491.814 23.083-1.594 1.876-.598 2.271-1.465 1.988-3.175m-35.614-3.171c-4.019 4.902-8.747 9.618-14.292 14.253-4.991-4.174-9.319-8.421-13.065-12.805-4.063-4.761-7.444-9.685-10.228-14.865-6.04-11.234-9.301-23.681-10.789-38.268A162.203 162.203 0 0 0 61.563 52.3c2.704 4.962 6.209 9.282 12.247 14.139 6.044-4.857 9.549-9.177 12.254-14.139a162.18 162.18 0 0 0 21.835-3.034c-1.489 14.62-4.762 27.088-10.825 38.342-2.496 4.633-5.466 9.058-8.972 13.343"/><path fill="#302B2F" d="M142.618 90.909H128.786c-.146 0-.287-.012-.432-.021a4.222 4.222 0 0 1-2.192-.896 2.124 2.124 0 0 0-1.156 1.423 2.111 2.111 0 0 0-.062.484v1.524c0 .815.471 1.514 1.146 1.871.101-.061.198-.114.301-.164a3.698 3.698 0 0 1 1.637-.387h11.049c.836 0 1.606.282 2.239.754a2.114 2.114 0 0 0 1.699-2.074V91.9c0-.36-.099-.701-.26-1-.046 0-.09.009-.137.009M143.982 83.54c-.378.14-.783.221-1.199.221h-11.049c-.788 0-1.525-.27-2.13-.729h-.818c-.114 0-.226.016-.334.034a2.113 2.113 0 0 0-1.788 2.085v1.519c0 .367.105.702.266 1.002.28.521.766.911 1.355 1.054.033.008.061.019.1.025.127.025.261.04.401.04H142.618c.327 0 .634-.078.902-.208a2.113 2.113 0 0 0 1.219-1.913v-1.52c0-.65-.299-1.22-.757-1.61M141.595 75.881h-9.859c-.934 0-1.694.951-1.694 2.12v1.521c0 .537.165 1.02.427 1.391.307.442.759.728 1.268.728h11.047c.428 0 .81-.204 1.106-.531.356-.39.586-.949.586-1.587v-1.521c0-1.169-.756-2.12-1.692-2.12h-1.189zM128.026 101.696H139.076c.935 0 1.689-.792 1.689-1.777v-1.277c0-.363-.106-.701-.283-.982-.306-.477-.819-.796-1.406-.796H128.026a1.66 1.66 0 0 0-1.389.775 1.79 1.79 0 0 0-.303 1.003v1.277c.001.985.76 1.777 1.692 1.777"/><path fill="#F15B26" d="M62.532 95.066c3.214 4.194 6.941 8.233 11.281 12.187 4.88-4.442 8.996-8.99 12.466-13.754-.161-1.243-.268-2.785-.276-4.84.654-.152 2.084-.327 3.825-.498 5.659-9.311 9.139-19.545 11.065-31.518a170.232 170.232 0 0 1-11.256 1.385c-4.415 6.92-9.494 11.765-15.824 16.095-6.333-4.331-11.415-9.175-15.828-16.095a170.9 170.9 0 0 1-11.259-1.385c1.923 11.91 5.374 22.105 10.983 31.375 2.409.213 4.52.448 5.357.641-.016 3.012-.232 4.93-.534 6.407"/><path fill="#F15B26" d="M63.067 88.659c-.837-.192-2.948-.429-5.357-.639a77.484 77.484 0 0 0 4.822 7.046c.302-1.48.518-3.395.535-6.407M86.278 93.499a76.827 76.827 0 0 0 3.55-5.338c-1.741.171-3.169.348-3.825.498.009 2.052.115 3.597.275 4.84M37.893 38.582l4.687-2.462 4.682 2.462-.892-5.217 3.79-3.694-5.239-.762-2.341-4.746-2.344 4.746-5.235.762 3.789 3.694zM70.55 36.312l2.201 4.817 2.479-4.676 5.258-.61-3.681-3.803 1.045-5.187-4.753 2.327-4.612-2.602.743 5.244-3.898 3.581zM103.784 37.396l4.684-2.462 4.688 2.462-.898-5.22 3.793-3.693-5.238-.761-2.345-4.746-2.34 4.746-5.238.761 3.789 3.693z"/></svg>