<svg xmlns:xlink="http://www.w3.org/1999/xlink"  xmlns="http://www.w3.org/2000/svg" width="100" height="100" viewBox="0 0 100 100"><path fill="#262261" d="M53.931 24.638v58.121h-5.867V70.115h-8.489v12.644H16.679V56.53H6.158z"/><path fill="#262261" d="M88.197 45.285h4.684l-39.128-25.79-39.061 25.79h4.437l34.447-22.951z"/><g fill="#262261"><path d="M54.93 31.431h6.384v6.38H54.93zM54.93 39.087h6.384v6.379H54.93z"/></g><path fill="#262261" d="M28.399 38.205l-3.519 1.614v-8.79h3.519z"/><g><path fill-rule="evenodd" clip-rule="evenodd" fill="#262261" d="M57.737 68.169c1.604 2.215 4.908 4.079 6.995 5.814 3.443 2.869 6.893 5.733 10.335 8.6H86.65a37096.352 37096.352 0 0 1-23.679-20.102c-1.131-.961-2.89-.07-4.05-1.051-2.638-2.225-5.276-4.446-7.914-6.67-3.896-3.284-8.065-5.734-8.519-11.119-.514-6.148 7.861-4.29 10.746-6.997-4.704-.109-9.088.106-13.696 1.056-1.886.39-3.772 1.002-5.327 2.159-.821.609-1.558 1.391-2.225 2.157-.885 1.019-.67 1.521-1.054 2.348-.832 1.793-1.83 3.875-3.637 4.935-1.963 1.154-4.362 1.814-1.931 4.165.834.805 3.837 3.911 5.011 2.711 1.704-1.734 1.563-3.998 4.063-5.108 1.462-.691 2.844-.226 4.262.342.694.28 1.293.769 1.987 1.038.463.183.429-.492.848-.148l10.701 8.794 4.036 3.321c.994.815.721 2.722 1.465 3.755z"/></g><g><path fill-rule="evenodd" clip-rule="evenodd" fill="#FFF" d="M53.931 57.219v5.266c-.572-.466-1.131-.932-1.689-1.395-3.576-2.928-7.136-5.857-10.711-8.797-.414-.339-.379.339-.845.158-.687-.274-1.29-.763-1.987-1.046-1.417-.559-2.802-1.025-4.261-.339-2.495 1.11-2.355 3.372-4.058 5.106-1.173 1.205-4.174-1.904-5.012-2.706-2.432-2.355-.032-3.013 1.923-4.167 1.809-1.056 2.813-3.139 3.639-4.936.389-.824.169-1.332 1.057-2.347.665-.771 1.406-1.553 2.23-2.155 1.555-1.163 3.435-1.776 5.315-2.158 4.609-.951 8.995-1.173 13.702-1.057-2.887 2.706-11.26.846-10.74 6.999.442 5.381 4.616 7.833 8.508 11.109a511.8 511.8 0 0 0 2.929 2.465z"/></g></svg>