<svg xmlns:xlink="http://www.w3.org/1999/xlink"  xmlns="http://www.w3.org/2000/svg" viewBox="0 0 150 150"><path fill="none" d="M40 73h9v1h-9zM104 96v-9l3-3.7V90h8v-6h-1.5 1.5V73H98v23zM30 73h10v9H30z"/><path opacity=".25" fill="#B3525A" d="M85 67.4h-.5l-.3-.5-2.8.1-.1-3.4C79.6 57 72 57.5 72 57.5l-2.1.1-1.8 2.6-7.3.1-.2-15.1 6-.1 3.7 2.5 1.8-.1 4.4-4h19.4l2 .5v-4h-3V26H84v12h-5v-2h-2V22H65v20h-3v-5H49v35h36v-4.6zM93.2 65.4v1.8H91V72h7V56.6c-3 1.5-4.8 4.1-4.8 8.8zM52 74v17h7v-8h7v9h7V79h12v-6H49v1zM96 96h2V73h-7v6h5z"/><path fill="#B3525A" d="M30 82v-9H15v4.2l25 24.2V82zM115 84v6h-8v-6.7l-3 3.7v9h-8V79h-5v39.9L121 89v-5zM122 84v4.5l3.6-4.5z"/><path fill="#B3525A" d="M115 73h6v11h-6zM122 84h4.1l8.2-8H122v-3.4zM115 70h6v2h-6zM85 79H73v13h-7v-9h-7v8h-7V74H40v28l34.3 33.8L85 125.6z"/><path fill="#376179" d="M125.6 84H139h-17V73h-.2H137v-1h-5V50h-1v22h-9.2.2v-9h-1v9H91v-4.7h2.2v-1.8c0-4.7 2.1-7.3 4.9-8.8.4-.2.9-.4 1.3-.6 4.8-.6 13.8-.5 18.4 6.5l3.6-1.7h1.2v-.5l.6-.3s-.1-.5-.6-1.4v-.9C118.3 47.1 103.3 45 103.3 45l-5.1-1.1-2.1-.5H76.6l-4.4 4-1.8.1-3.7-2.5-6 .1.2 15.1 7.3-.1 1.8-2.6 2.1-.1s7.6-.4 9.2 6.1l.1 3.4 2.7-.1.5.5h.5V72H40v-2.7V72H15v-8h17v-1H15V51.2 63H6v1h9v8h-4v1h4v16.9V73h25v35-35h45v52h-.5l6.7-6H91V73h30v11h-7.5 7.5v18h1V84h3.6z"/><path opacity=".25" fill="#B3525A" d="M55 24h2v11h-2zM74 15h-3v5.4l3-.4z"/></svg>