<svg xmlns:xlink="http://www.w3.org/1999/xlink"  xmlns="http://www.w3.org/2000/svg" viewBox="0 0 150 150"><path fill="none" d="M95.1 80.5c-1.5.2-3 .5-4.6.5h4.2l.4-.5zM77 88.7v-6.9h-3v7.5l3-.6z"/><path fill="#725020" d="M42.6 77c-3.2 0-3.6-3.4-3.6-4.9v-.2c0-1.7.2-3.8 2-4.5 0-.4.3-.4.3-1.4H27v12h22.3c-1.6 0-2.9 0-4-1h-2.7zM117.5 68.9c.4.8.4 1.9.4 3.2 0 1.6 0 4.9-3.2 4.9h-3c-1.1 1-2.5 1-4 1H129V66h-13.5c0 1 .1.8.1 1.2 1.1.3 1.7 1.1 1.9 1.7zM7 81h32v13H7zM62.5 92.6l.4-.2L74 89.3v-7.5c-2-.1-4.9.2-7.4-.8H43v13h19.3l.1-.6.1-.8zM95.6 83.5l-.3 1.7-1.9 8.8H108V81H97.2l-1.8 2.4zM92.5 84.2l2.3-3.2h-4.2c-3.8 1-7.6.7-11.7.7-.6 0-.7.2-1.7.2v6.9l15.3-4.6zM112 81h32v13h-32zM22 96h33v13H22zM57 96v13h3.1l1.8-13zM92 100.4v8.6h33V96H92.7z"/><path fill="#376179" d="M74 61.1V66h1v-5h7v4.5V61h.5H74zM73 34h2v14h-2zM78 34h1v6h-1z"/><path fill="#376179" d="M93.4 93.7l1.9-8.7.3-1.5-.2.1 1.8-2.2.7-.8c3.8-.5 7.2-1.2 9.9-2.1 1.6-.5 2.9-.5 4-1.5h3c3.2 0 3.2-3.3 3.2-4.9 0-1.3-.1-2.3-.4-3.2-.3-.6-.8-1.4-2-1.6 0-.4-.1-.8-.1-1.2-2.2-19.6-18.1-34.7-37.1-34.7S43.5 46.5 41.3 66.1c0 .4-.3.9-.3 1.3-1.8.7-2 2.7-2 4.4v.2c0 1.6.4 4.9 3.6 4.9h2.7c1.1 1 2.5 1 4 1.5 4.4 1.3 10.4 2.3 17.3 2.9 2.5.2 5.1.3 7.8.4h4.1c4.1 0 8.2-.2 11.9-.5 1.6-.1 3.1-.3 4.6-.5l-.4.5-2.5 3-15.6 4.3-2.2.6-11.4 3.1-.6.2-.1.6-.1.5-.4 2.9-1.6 12.6-1.5 10.5-.2 1.6 1.5-.5 29.4-10.7.5-.2.1-.5 1.9-8.7.8-3.8.8-3zM45.9 75.1l-.2-.1h-3.1c-.8 0-.6-.2-.6-2.9v-.2c0-2.2-.2-2.6.6-2.7l.6-.1v-.8c1.2-19.6 16.7-35 35.3-35 18.6 0 34.1 15.8 35.3 35.3v1.3h.9c.7 0 1-.2 1.1.1.2.6.3 1.2.3 2.2 0 2.8-.5 2.7-1.3 2.7H111.4l-.2.1c-2.6 1.3-6.6 2.5-11.6 3.3l.6-.7.3-.4h-.2L97.4 69H111v-2H97.1v-.1l2.2-2.5c.7.2 1.6.1 2.2-.4l7.8-6.7c.9-.8 1-2.2.2-3.2-.8-.9-2.3-1-3.2-.2l-7.8 6.7c-.8.7-1 1.7-.6 2.6l-2.6 3-.4.4.2.4H46v2h49.4l3 8.3-1.6 1.7c-5.4.7-11.7 1-18.3 1-14.1.1-26.9-1.9-32.6-4.9zm18.3 19l28.9-8-4.9 22-27.5 10 3.5-24z"/><path fill="#376179" d="M63.9 113.7L90.4 89l-24.3 7.6z"/><path fill="#DB9130" d="M70.1 38.1S49.2 43 46.9 66h17.8c-.1 0-1.9-22.3 5.4-27.9zM64.8 78.2l-.3-8.2h-18s4 7.6 18.3 8.2z"/></svg>