<svg xmlns:xlink="http://www.w3.org/1999/xlink"  xmlns="http://www.w3.org/2000/svg" viewBox="0 0 150 150"><path fill="#DB9130" d="M66.9 30c-8.2 5.1-24.8 20.2-31.4 60.6l-.8-.5c4.6 4 12.3 8.8 24.9 13.6-1.2-.8-2.1-2.1-2.3-4.3-.8-7.5 4.6-31 18.8-51.5 10.7-15.4 21.9-17.3 28-17-3.5-1.3-7.5-1.9-11.6-1.7h-.4l-.5-.2s-.2-.1-.5-.2c-5.1.8-9 3.4-17.9 9.5-9.2 6.3-12.3 4.4-9.4-1.5 2-4.2 10.1-7.7 14.8-9.5-2.2.1-4.5.5-7 1.1-1.7.4-3.2.9-4.7 1.6zM42.2 94.4s-3.9-2.3-5.8-4.5C43.2 56.2 55.2 44 55.2 44c-13.8 23.4-13 50.4-13 50.4z"/><path fill="#DB9130" d="M71.6 37.5c5.5-3.5 12.5-8.1 15.2-9.8-.8-.1-1.7-.3-2.7-.4C62.6 35 64.9 41.8 71.6 37.5zM133.6 98.3l.3-8.7-.1-.1.1-.9c0-.6.1-1.2.1-1.8l.1-3.4c-3.8.5-13.7 2.1-14.6 5.2-1.1 3.8-1.7 15.5-2.3 17.4-.6 1.9-13.2 2.3-18.8.4l.1-.2c-1.7-1.1-1.7-3.8-1.8-7.1-.2-4.2.6-6.3-1.3-7.9-1.9-1.5-5.4-1-8.6-1.1-3.3-.2-5.4.8-5.9 3.4-.6 2.7.2 6.7-2.1 9.4-1.8 2.1-9.5 1.8-12.5 1.6-1.4.1-3.1.2-4.5 0 2.3.8 4.7 1.6 7.2 2.4 0 0-31.8-5.6-43.1-22.9-6.6 4.3-13.2 10.1-14 14.6-.8 5.1 12.8 16 24.2 19.5 9.7 2.9 24.3 7.4 39.8 8 2.7.1 6.3-1.2 9.6-2.4l3.4-1.2c4.1-1.3 36.7-12.6 44.1-18.3 2.5-1.9 3.9-4.1 4.1-6.3.3-2.3-.6-4.4-1.7-6.2l-1.8 6.6zM14.5 101c-2.3-7.8 10.7-15.7 10.7-15.7s1 1.2 4.3 5.2c-15.1 8.3-6.8 17.8 19 30.3-8.2-1.4-31.7-12-34-19.8z"/><path fill="#DB9130" d="M33.9 82.7c-1.1 2.8-1.5 4.4-1.2 5.6.5.5 1 1 1.6 1.5.2-1.8 5.6-43.3 29.8-58.5-11.7 5.9-21.9 18-30.1 35.5 3.1 1.7 1.6 11.4-.1 15.9zM116.3 42c-4.4-.7-17-.5-29.5 18.9 0 0 9.8-22.1 28-20.8-.6-1.5-1.5-2.9-2.6-4.1-3.6-2.6-8.8-3.6-17.9.1-13.8 5.6-24.1 29.5-28.9 45.4-4.6 15.2-4.3 20.2 2.8 22.5 2.8-.4 6.2-.9 8-1.6 2.5-1 3.1-4.6 3.3-9 .2-4.4 4.6-5.2 5.4-5.2h7.7c4.8.8 5.7 2.3 5.6 10.3-.4 4.4.5 6.4 1.3 7.3 2.4.1 11.4.2 13.2-1 2.1-1.3 2.3-4.2 2.3-8.2v-6.5c0-2.3.6-4 3.6-5.2 2.7-1 13.1-4.6 15.4-5.4-.3-1.3-.8-2.4-1.6-2.8l-.9-.4-.1-1c-1.3-9.9-4-24.2-15.1-33.3zm10.1 27.6c-2.1 15.1-2.9-18.6-12-26 0 0 14.1 11 12 26zM28.6 83.2c.4.6.9 1.4 1.6 2.3.1-1 .8-2.3 2.3-8.2 1.2-4.6.8-6.8 0-7.8l-.1.1-1.2-.2c-.6 0-2.8 2.1-2.8 11.7l.2 2.1z"/><path d="M137.4 88.4c.1-1.6.2-3.3.2-4.9 0-3.7-.6-7.4-3.1-9.2-1.2-10.7-4.4-25.6-16.5-35.3-3.2-8.2-13.7-13.8-25.4-13.3-1.9-.7-10.5-3.6-21.8-.7-11.3 2.9-27.4 12.5-40.4 41.2-.5.1-1 .4-1.6.8-2.4 1.9-3.6 6.3-3.7 13.3C19.9 83.5 9.6 90.9 8.4 98c-.1.3-.1.7-.1 1 0 8.5 16.9 19.4 26.8 22.4 9.9 3 24.8 7.5 40.7 8.1 3.3.2 7.4-1.3 10.9-2.6l3.3-1.1c.4-.1 36.6-12.2 45.2-18.9 3.3-2.5 5.1-5.5 5.5-8.7 0-.4.1-.8.1-1.2-.1-3.5-1.8-6.5-3.4-8.6zm-.3 9.4c-.3 2.3-1.7 4.4-4.1 6.3-7.3 5.7-40 17-44.1 18.3l-3.4 1.2c-3.2 1.2-6.9 2.5-9.6 2.4-15.4-.6-30.1-5-39.8-8-11.5-3.5-25.1-14.4-24.2-19.5.8-4.5 7.4-10.3 14-14.6C37.2 101.2 69 106.8 69 106.8c-2.6-.8-5-1.6-7.2-2.4 1.5.3 3.1.2 4.5 0 3 .2 10.6.5 12.5-1.6 2.3-2.7 1.5-6.7 2.1-9.4.6-2.7 2.7-3.6 5.9-3.4 3.3.2 6.7-.4 8.6 1.1 1.9 1.5 1.1 3.6 1.3 7.9.1 3.3.1 6 1.8 7.1l-.1.2c5.6 1.9 18.2 1.5 18.8-.4.6-1.9 1.1-13.6 2.3-17.4.9-3.1 10.8-4.7 14.6-5.2l-.1 3.4c0 .6-.1 1.3-.1 1.8l-.1.9.1.1-.3 8.7 1.8-6.6c1.1 1.8 2 4 1.7 6.2zm-53-70.5c1 .1 1.9.2 2.7.4-2.7 1.7-9.7 6.3-15.2 9.8-6.7 4.3-9-2.5 12.5-10.2zm-20.3 9.5c-2.9 5.9.2 7.9 9.4 1.5 8.9-6.1 12.8-8.7 17.9-9.5.3.1.5.2.5.2l.4.2h.4c4.1-.2 8.1.4 11.6 1.7-6-.3-17.3 1.6-28 17-14.2 20.5-19.5 44-18.8 51.5.2 2.2 1.1 3.5 2.3 4.3-12.6-4.8-20.2-9.7-24.8-13.6l.8.5C42.1 50.1 58.6 35.1 66.9 30c1.5-.6 3.1-1.2 4.7-1.6 2.5-.7 4.9-1 7-1.1-4.7 1.7-12.8 5.3-14.8 9.5zm67.5 39.6l.9.4c.9.4 1.4 1.4 1.6 2.8-2.3.8-12.7 4.4-15.4 5.4-3.1 1.1-3.6 2.9-3.6 5.2v6.5c0 4-.2 6.9-2.3 8.2-1.8 1.2-10.9 1-13.2 1-.9-.9-1.8-2.9-1.3-7.3.2-8-.8-9.6-5.6-10.3h-7.7c-.8 0-5.2.8-5.4 5.2-.2 4.4-.8 8-3.3 9-1.7.7-5.2 1.2-8 1.6-7-2.3-7.3-7.3-2.8-22.5C70 65.7 80.3 41.8 94.1 36.2c9.2-3.7 14.4-2.7 17.9-.1 1.2 1.3 2.1 2.6 2.6 4.1-18.2-1.3-28 20.8-28 20.8 12.5-19.5 25.1-19.6 29.5-18.9 11.1 9.1 13.8 23.4 14.9 33.4l.3.9zM64.1 31.2C39.9 46.5 34.5 88 34.3 89.8c-.6-.5-1.1-1-1.6-1.5-.3-1.1.1-2.7 1.2-5.6 1.7-4.5 3.2-14.2.1-16 8.1-17.5 18.4-29.6 30.1-35.5zM31.4 69.5l1.2.2.1-.1c.7 1 1.2 3.1 0 7.8-1.6 5.9-2.2 7.2-2.3 8.2-.7-.9-1.2-1.7-1.6-2.3v-2c-.2-9.7 2-11.7 2.6-11.8z"/><path fill="#FFF" d="M114.4 43.6c9.1 7.4 9.9 41.1 12 26 2.1-15-12-26-12-26zM36.4 89.9c1.9 2.3 5.8 4.5 5.8 4.5s-.8-27 13-50.4c0 0-12 12.2-18.8 45.9zM29.6 90.5c-3.3-3.9-4.3-5.2-4.3-5.2s-13 7.8-10.7 15.7c2.3 7.8 25.8 18.4 34.1 19.8-25.9-12.6-34.2-22.1-19.1-30.3z"/></svg>