<svg xmlns:xlink="http://www.w3.org/1999/xlink"  xmlns="http://www.w3.org/2000/svg" viewBox="0 0 150 150"><path fill="none" d="M37.3 84.2l.5-2L73 58.9v25.3-35.8l.1 5.3-5.2 3.3-35.7 27.3z"/><path fill="#00A9DE" d="M39.3 36C30.2 36 23 42 23 49.8V124c0 3.6 2 6.8 4 9.3V122h.2v-5H27V82.2l45.4-28.5L68 57l5.2-3.3-.2-5.3v-13l-4-.2v.8H39.3z"/><path fill="#9FA5AC" d="M115 78h-10.2c-.2 0-.3-.2-.3-.5s.1-.5.3-.5H115v-7h-10.2c-.2 0-.3-.2-.3-.5s.1-.5.3-.5H115v-5h-10.2c-.2 0-.3-.2-.3-.5s.1-.5.3-.5H115v-6h-10.2c-.2 0-.3-.7-.3-1 0-.3.1-1 .3-1H115v-.8l-14-11.5V26h-1v15.9l-6-4.3V6h-1v77.5l22-.3V78z"/><path fill="#D4D5D7" d="M37.8 82.2l-.8 2.9 36-.4V58.9z"/><path fill="#6A7E91" d="M27 117h94v-14H27z"/><path fill="#7A828D" d="M73 84h.4l-36.1.3h-5.1L68 57l4.4-3.3L27 82.2V97h94V83.2l-6 .1-21.6.2-3.4.1V17h-2v66.6l-12 .2V17h-3v31.4z"/><path fill="#7A828D" d="M107 31.5v4.2c9 0 16 6.3 16 14.1V124c0 2.4-1 4.8-2 6.8V122H27v11.3c-2-2.5-4-5.7-4-9.3V49.8C23 42 30.2 36 39.3 36H69v-5H39.3C27.9 31 19 39.7 19 49.8V124c0 10.1 8.9 18 20.3 18h67.1c11.4 0 20.6-7.9 20.6-18V49.8c0-10.1-9-18.3-20-18.3z"/><path fill="#FFFFFE" d="M104.5 56c0 .3.1 1 .3 1h10.5c.2 0 .3-.7.3-1 0-.3-.1-1-.3-1h-10.5c-.2 0-.3.7-.3 1zM104.5 63.5c0 .3.1.5.3.5h10.5c.2 0 .3-.2.3-.5s-.1-.5-.3-.5h-10.5c-.2 0-.3.2-.3.5zM104.5 69.5c0 .3.1.5.3.5h10.5c.2 0 .3-.2.3-.5s-.1-.5-.3-.5h-10.5c-.2 0-.3.2-.3.5zM104.5 77.5c0 .3.1.5.3.5h10.5c.2 0 .3-.2.3-.5s-.1-.5-.3-.5h-10.5c-.2 0-.3.2-.3.5z"/></svg>