<svg xmlns:xlink="http://www.w3.org/1999/xlink"  xmlns="http://www.w3.org/2000/svg" viewBox="0 0 150 150"><path fill="#888A8C" d="M127.1 80.7c0 13.7-5.3 26.6-15 36.3-9.7 9.7-22.6 15-36.3 15-13.7 0-26.6-5.3-36.3-15-9.7-9.7-15-22.6-15-36.3h-1.1c0 14 5.4 27.2 15.3 37.1 9.9 9.9 23.1 15.3 37.1 15.3s27.2-5.4 37.1-15.3c9.9-9.9 15.3-23.1 15.3-37.1h-1.1z"/><path fill="#888A8C" d="M31.9 80.7c0 24.1 19.6 43.7 43.8 43.7 24.1 0 43.8-19.6 43.8-43.7h-1.1c0 23.5-19.2 42.7-42.7 42.7-23.6 0-42.7-19.2-42.7-42.7h-1.1z"/><path fill="#888A8C" d="M109.8 80.7c0 18.8-15.3 34.1-34.1 34.1S41.6 99.5 41.6 80.7h-1.1c0 19.4 15.7 35.1 35.1 35.1 19.4 0 35.1-15.8 35.1-35.1h-.9z"/><path fill="#888A8C" d="M49.2 80.7c0 14.6 11.9 26.5 26.5 26.5s26.5-11.9 26.5-26.5h-1.1c0 14-11.4 25.4-25.4 25.4-14 0-25.4-11.4-25.4-25.4h-1.1z"/><path fill="#888A8C" d="M92.5 80.7c0 9.2-7.5 16.8-16.8 16.8S58.9 90 58.9 80.7h-1.1c0 9.8 8 17.8 17.8 17.8s17.8-8 17.8-17.8h-.9z"/><g><path fill="#979A9C" d="M27.7 124.5h101.4v.5H27.7zM27.7 115h101.4v.5H27.7zM27.7 105.4h101.4v.5H27.7zM27.7 95.9h101.4v.5H27.7zM27.7 86.3h101.4v.5H27.7z"/><path fill="#979A9C" d="M111.9 77.1h.5v57.3h-.5zM95 77.1h.5v57.3H95zM78.1 77.1h.5v57.3h-.5zM61.2 77.1h.5v57.3h-.5zM44.3 77.1h.5v57.3h-.5z"/></g><g><path fill="#DB9130" d="M79 38.4l-2.3-2.6 1.7-2.4.6-14.1c.1-2.4-1.8-4.5-4.2-4.6-2.4-.1-4.5 1.8-4.6 4.2L69.7 33l1.9 2.6-2.5 2.4 9.9.4zm-3.1-18.3c0-.2.2-.4.4-.4s.4.2.4.4l-.5 11.3c0 .2-.2.4-.4.4s-.4-.2-.4-.4l.5-11.3zm-3.4-.2c0-.2.2-.4.4-.4s.4.2.4.4l-.5 11.3c0 .2-.2.4-.4.4s-.4-.2-.4-.4l.5-11.3z"/><path fill="#FFFFFE" d="M75.8 31.8c.2 0 .4-.2.4-.4l.5-11.3c0-.2-.2-.4-.4-.4s-.4.2-.4.4l-.5 11.3c0 .2.2.4.4.4zM72.4 31.6c.2 0 .4-.2.4-.4l.5-11.2c0-.2-.2-.4-.4-.4s-.4.2-.4.4L72 31.2c0 .3.1.4.4.4z"/><path fill="#DB9130" d="M72.7 39.4l-.4 10.1c-1.5 1.1-1.2 2.8-1.2 2.8L72 56l3 .1s.6-2.2 1-3.8c.3-1.2-.7-2.2-1.1-2.6l.4-10.1-2.6-.2zM92.1 42.5L91 39.2l2.5-1.6 6-12.8c1-2.2.1-4.8-2.1-5.9-2.2-1-4.8-.1-5.9 2.1l-6 12.8.8 3.1-3.3 1.4 9.1 4.2zm4.1-18.1c.1-.2.3-.3.5-.2.2.1.3.3.2.5L92.1 35c-.1.2-.3.3-.5.2-.2-.1-.3-.3-.2-.5l4.8-10.3zm-7.9 8.8l4.8-10.3c.1-.2.3-.3.5-.2.2.1.3.3.2.5L89 33.5c-.1.2-.3.3-.5.2-.2-.1-.3-.3-.2-.5z"/><path fill="#FFFFFE" d="M91.6 35.1c.2.1.4 0 .5-.2l4.8-10.3c.1-.2 0-.4-.2-.5-.2-.1-.4 0-.5.2l-4.8 10.3c-.1.2 0 .4.2.5zM88.5 33.7c.2.1.4 0 .5-.2l4.8-10.3c.1-.2 0-.4-.2-.5-.2-.1-.4 0-.5.2l-4.8 10.3c-.1.2 0 .4.2.5z"/><path fill="#DB9130" d="M81.5 57.1s1.4-1.8 2.4-3.2c.8-1 .2-2.3-.1-2.8L88 42l-2.2-1-4.3 9.2c-1.8.5-2.2 2.1-2.2 2.1l-.5 3.7 2.7 1.1zM99.2 44l-3.4-.1 6.7 7.4.2-3.4 2.9-.5 10.4-9.5c1.8-1.6 1.9-4.4.3-6.2-1.6-1.8-4.4-1.9-6.2-.3l-10.4 9.5-.5 3.1zm14.1-7.9c.2-.1.4-.1.6 0 .1.2.1.4 0 .6l-8.4 7.6c-.2.1-.4.1-.6 0-.1-.2-.1-.4 0-.6l8.4-7.6zm-10.7 5.1l8.4-7.6c.2-.1.4-.1.6 0 .1.2.1.4 0 .6l-8.4 7.6c-.2.1-.4.1-.6 0-.2-.2-.1-.4 0-.6z"/><path fill="#FFFFFE" d="M104.9 44.3c.1.2.4.2.6 0l8.4-7.6c.2-.1.2-.4 0-.6-.1-.2-.4-.2-.6 0l-8.4 7.6c-.1.2-.1.4 0 .6zM103.2 41.8l8.4-7.6c.2-.1.2-.4 0-.6-.1-.2-.4-.2-.6 0l-8.4 7.6c-.2.1-.2.4 0 .6.1.1.4.2.6 0z"/><path fill="#DB9130" d="M91.5 56.1l7.5-6.8-1.6-1.8-7.5 6.8C88 54 87 55.4 87 55.4l-2 3.2 2 2.1s2-1.2 3.4-2c1.2-.7 1.2-2 1.1-2.6zM108.5 55.4l-3.1-1.4 3.4 9.4 1.5-3.1 2.9.7 13.3-4.8c2.3-.8 3.5-3.3 2.7-5.6-.8-2.3-3.4-3.5-5.6-2.7l-13.3 4.8-1.8 2.7zm16.6-1.6c.1.2 0 .4-.2.5l-10.7 3.8c-.2.1-.4 0-.5-.2-.1-.2 0-.4.2-.5l10.7-3.8c.2-.1.4 0 .5.2zm-12.4.4l10.7-3.8c.2-.1.4 0 .5.2.1.2 0 .4-.2.5L113 54.9c-.2.1-.4 0-.5-.2-.1-.2 0-.5.2-.5z"/><path fill="#FFFFFE" d="M113.7 57.9c.1.2.3.3.5.2l10.7-3.8c.2-.1.3-.3.2-.5-.1-.2-.3-.3-.5-.2l-10.7 3.8c-.2.1-.3.3-.2.5zM113 54.9l10.7-3.8c.2-.1.3-.3.2-.5-.1-.2-.3-.3-.5-.2l-10.7 3.8c-.2.1-.3.3-.2.5.1.2.3.3.5.2z"/><path fill="#DB9130" d="M96.8 63.6l9.5-3.4-.8-2.3-9.5 3.4c-1.6-1-3.1-.1-3.1-.1l-3.1 2.2 1.1 2.8s2.3-.3 3.9-.6c1.3-.2 1.8-1.4 2-2zM129.4 68.4l-14.1-.7-2.6 1.9-2.4-2.5-.5 10 2.6-2.3 2.4 1.7 14.1.7c2.4.1 4.5-1.8 4.6-4.2.2-2.4-1.7-4.5-4.1-4.6zm-1.2 6.4l-1.9-.1-9.4-.5c-.2 0-.4-.2-.4-.4s.2-.4.4-.4l11.3.6c.2 0 .4.2.4.4s-.2.4-.4.4zm.2-3.4l-11.3-.6c-.2 0-.4-.2-.4-.4s.2-.4.4-.4l11.3.6c.2 0 .4.2.4.4s-.2.4-.4.4z"/><path fill="#FFFFFE" d="M128.2 74l-11.3-.6c-.2 0-.4.2-.4.4s.2.4.4.4l9.4.5 1.9.1c.2 0 .4-.2.4-.4s-.1-.4-.4-.4zM128.4 70.6l-11.3-.6c-.2 0-.4.2-.4.4s.2.4.4.4l11.3.6c.2 0 .4-.2.4-.4s-.2-.4-.4-.4z"/><path fill="#DB9130" d="M96.1 68.9l-3.7.9-.1 3s2.2.6 3.8 1c1.2.3 2.2-.6 2.6-1.1l10.1.5.1-2.4-10.1-.5c-1-1.7-2.7-1.4-2.7-1.4zM35.9 68.8l-14.1-.9c-2.4-.2-4.5 1.7-4.7 4.1-.2 2.4 1.7 4.5 4.1 4.7l14.1.9 2.6-1.8 2.3 2.5.7-9.9-2.6 2.2-2.4-1.8zm-2.4 6.5l-11.3-.8c-.2 0-.4-.2-.4-.4s.2-.4.4-.4l11.3.8c.2 0 .4.2.4.4s-.2.4-.4.4zm.2-3.5L22.4 71c-.2 0-.4-.2-.4-.4s.2-.4.4-.4l11.3.8c.2 0 .4.2.4.4 0 .3-.1.5-.4.4z"/><path fill="#FFFFFE" d="M33.8 71.1l-11.3-.8c-.2 0-.4.1-.4.4 0 .2.2.4.4.4l11.3.8c.2 0 .4-.1.4-.4 0-.2-.2-.4-.4-.4zM33.6 74.5l-11.3-.8c-.2 0-.4.2-.4.4s.2.4.4.4l11.3.8c.2 0 .4-.1.4-.4-.1-.2-.2-.4-.4-.4z"/><path fill="#DB9130" d="M51.9 73l-10.1-.7-.2 2.4 10.1.7c1.1 1.6 2.8 1.3 2.8 1.3l3.7-.8.1-3s-2.2-.6-3.8-1c-1.2-.3-2.2.6-2.6 1.1zM23.9 55.6l12.6 6.3 3.1-.7 1.2 3.2 4.4-8.9-3.3 1-1.4-2.5-12.6-6.3c-2.2-1.1-4.8-.2-5.9 2-1.1 2.1-.2 4.8 1.9 5.9zm3.2-5.2c.1-.2.3-.3.5-.2l10.1 5c.2.1.3.3.2.5-.1.2-.3.3-.5.2l-10.1-5c-.3-.1-.3-.3-.2-.5zm-1.6 3c.1-.2.3-.3.5-.2l10.1 5c.2.1.3.3.2.5 0 .3-.3.4-.5.3l-10.1-5c-.2-.1-.3-.4-.2-.6z"/><path fill="#FFFFFE" d="M27.2 50.9l10.1 5c.2.1.4 0 .5-.2.1-.2 0-.4-.2-.5l-10.1-5c-.2-.1-.4 0-.5.2 0 .2 0 .4.2.5zM25.7 54l10.1 5c.2.1.4 0 .5-.2.1-.2 0-.4-.2-.5l-10.1-5c-.2-.1-.4 0-.5.2-.1.1 0 .4.2.5z"/><path fill="#DB9130" d="M53.7 64l-9.1-4.5-1.1 2.2 9.1 4.5c.4 1.8 2.1 2.3 2.1 2.3l3.7.7 1.3-2.7s-1.8-1.4-3.1-2.4c-1.1-.9-2.3-.4-2.9-.1zM43.8 47.8l3.1.6-.2 3.4 7.5-6.5-3.3-.3-.4-3-9.2-10.6c-1.6-1.8-4.4-2-6.2-.4-1.8 1.6-2 4.4-.4 6.2l9.1 10.6zm-4.3-14.3c.2-.1.4-.1.6 0l7.4 8.6c.1.2.1.4 0 .6-.2.1-.4.1-.6 0l-7.4-8.6c-.2-.2-.2-.4 0-.6zm-2.6 2.3c.2-.1.4-.1.6 0l7.4 8.6c.1.2.1.4 0 .6-.2.1-.4.1-.6 0l-7.4-8.6c-.2-.2-.2-.5 0-.6z"/><path fill="#FFFFFE" d="M46.9 42.6c.1.2.4.2.6 0 .2-.1.2-.4 0-.6L40 33.6c-.1-.2-.4-.2-.6 0-.2.1-.2.4 0 .6l7.5 8.4zM44.3 44.9c.1.2.4.2.6 0 .2-.1.2-.4 0-.6l-7.4-8.6c-.1-.2-.4-.2-.6 0-.2.1-.2.4 0 .6l7.4 8.6z"/><path fill="#DB9130" d="M58.8 56.4l-6.6-7.6-1.8 1.6L57 58c-.3 1.9 1 2.9 1 2.9l3.2 2 2.2-2s-1.1-2-1.9-3.5c-.7-1.1-2.1-1.1-2.7-1zM55.9 37.6l2.7 1.7-1.5 3.1 9.5-3.1-3-1.6.8-2.9L60 21.4c-.8-2.3-3.3-3.6-5.6-2.8-2.3.8-3.6 3.3-2.8 5.6l4.3 13.4zm1.5-14.8c.2-.1.4 0 .5.3l3.6 10.8c.1.2 0 .4-.3.5-.2.1-.4 0-.5-.3l-3.6-10.8c0-.2.1-.5.3-.5zm-3.2 1.1c.2-.1.4 0 .5.3L58.3 35c.1.2 0 .4-.3.5-.2.1-.4 0-.5-.3l-3.6-10.8c-.1-.3 0-.5.3-.5z"/><path fill="#FFFFFE" d="M60.7 34c.1.2.3.3.5.3.2-.1.3-.3.3-.5L57.9 23c-.1-.2-.3-.3-.5-.3-.2.1-.3.3-.3.5L60.7 34zM57.5 35.1c.1.2.3.3.5.3.2-.1.3-.3.3-.5l-3.6-10.8c-.1-.2-.3-.3-.5-.3-.2.1-.3.3-.2.5l3.5 10.8z"/><path fill="#DB9130" d="M68.5 53.3c-.2-1.3-1.4-1.8-2-2l-3.2-9.6-2.3.8 3.2 9.6c-1 1.6-.2 3.1-.2 3.1l2.1 3.1 2.8-1c0-.1-.2-2.3-.4-4z"/><path fill="#9F9592" d="M75.5 67.1c-4.9 0-8.9 4-8.9 8.9s4 8.9 8.9 8.9 8.9-4 8.9-8.9-4-8.9-8.9-8.9zm0 12.1c-1.7 0-3.2-1.4-3.2-3.2 0-1.7 1.4-3.2 3.2-3.2 1.7 0 3.2 1.4 3.2 3.2-.1 1.7-1.5 3.2-3.2 3.2z"/><circle fill="#FFFFFE" cx="75.5" cy="76" r="3.2"/></g></svg>