<svg xmlns:xlink="http://www.w3.org/1999/xlink"  xmlns="http://www.w3.org/2000/svg" width="100" height="100" viewBox="0 0 100 100"><path fill="#3BB44A" d="M49.072 44.738L27.133 59.883c3.138 7.839 10.355 13.604 19.025 14.673v-7.603h5.486v7.642c8.966-.974 16.426-6.952 19.517-15.084L49.072 44.738zm-.69 19.244h-5.67v-5.669h5.67v5.669zm0-6.951h-5.67v-5.67h5.67v5.67zm7.201 6.951h-5.67v-5.669h5.67v5.669zm0-6.951h-5.67v-5.67h5.67v5.67z"/><path fill="#58595B" d="M22.399 63.194c4.603 10.146 14.81 17.202 26.673 17.202 16.173 0 29.281-13.108 29.281-29.281a29.148 29.148 0 0 0-4.448-15.517l-10.26 5.088 5.424-23.136 22.448 9.307L83.77 30.7a40.043 40.043 0 0 1 5.566 20.414c0 22.238-18.026 40.26-40.265 40.26-15.605 0-29.134-8.876-35.823-21.855l9.151-6.325z"/><path fill="#3BB44A" d="M49.204 10.91c-22.261 0-40.311 18.047-40.311 40.3a40.085 40.085 0 0 0 2.983 15.23l9.541-6.117a29.203 29.203 0 0 1-1.445-9.113c0-16.141 13.082-29.223 29.232-29.223a29.011 29.011 0 0 1 15.408 4.396l1.972-11.543a40.11 40.11 0 0 0-17.38-3.93z"/><path fill="#3BB44A" d="M69.543 39.314L62 43.024l1.787-10.384a23.485 23.485 0 0 0-14.715-5.146c-13.04 0-23.618 10.575-23.618 23.622 0 .404.01.811.036 1.215l7.612-5.229v-6.866l3.407-1.561v6.086l12.636-8.676L72.68 52.028a23.505 23.505 0 0 0-3.137-12.714z"/></svg>