<svg xmlns:xlink="http://www.w3.org/1999/xlink"  xmlns="http://www.w3.org/2000/svg" viewBox="0 0 150 150"><path fill="#376179" d="M131.9 92l-7-8.7-4.9-4.6-.6-.6-7-2.1-3.2-3-.7-3.7-3.7-3.5L96 75l4.5 4.2 2.6-.5 3.4 3.1s6.9 6.1 4.1 11l-1.9 2.1.5.4c-5.8 7.5-13.9 14.7-23.7 20.7-26.3 16.2-54.5 17.4-63.5 2.8-6.4-10.3-2-25.9 12-39.7V111h-4v11h2v-10h4V79h1v46h2V78h-4.3c2-2 3.3-4.3 6.3-6.2v54.5c1 0 3-.1 4-.2V32.4l7-3.4v96.3c1-.2 2-.5 3-.8V23h1v101.2c2-.4 4-.9 5-1.3v-91l14 8.9v75.6c4-2.2 7-3.9 7-3.9V39.1l-14-9.8V21l-10-6.9V5h-1v7.8l-.4-.6L52 16v7.8l-11 5.6v42.3c-3 2-4.6 4.3-6.7 6.3H34v.6c-16 16.1-23.1 34.6-15.7 46.8 10 16.3 41.7 14.9 71-3 10.2-6.3 18.6-13.7 25-21.4l1.3 1.3 1-1.1c6.8-6.9 13.6.5 17.5 5 3.9 4.5 1.5 8 1.5 8l1.4 1.4 1.8-1.9c3.7-9-6.9-21.7-6.9-21.7zM65 22.3v5L59 23v-4.9l6 4.2z"/><path fill="#FFFFFE" d="M71 78V46h1v32h-1zm1.4-34.8S70 42.1 69 41v74h-1V40h-.7c-.7 0-1.3-1-1.3-1.3V117h-2V35.6l9.5 6.1-1.1 1.5zM56 23h-1v104h1v-2.8z"/><path fill="#376179" d="M84 81h3v24h5v-6h3v6h2v-8h-7v6h-1V79h-5v2zM85 79h1V54h-3v2h2v23zM39.8 141.4l-.1 1.7c.4 0 40.2 2.3 73.8-33.5l-1.3-1.2c-33 35.3-72.1 33.1-72.4 33zM64 37.2V117h2V38.7c0 .3.6 1.3 1.3 1.3h.7v75h1V41c1 1.1 3.4 2.2 3.4 2.2l1.1-1.5-9.5-6.1v1.6z"/><path fill="#376179" d="M71 46h1v32h-1zM48 34h1v89h-1z"/></svg>