<svg xmlns:xlink="http://www.w3.org/1999/xlink"  xmlns="http://www.w3.org/2000/svg" width="150" height="150" viewBox="0 0 150 150"><path fill="#006092" d="M113.949 67.362c0-13.354-4.828-25.578-12.787-35.037-.627.97-1.306 1.913-2.097 2.779a21.019 21.019 0 0 1-6.219 4.727c6.188 7.464 9.933 17.059 9.933 27.531 0 23.722-19.123 43.008-42.63 43.008-23.505 0-42.628-19.286-42.628-43.008 0-3.924.532-7.721 1.514-11.338a1.724 1.724 0 0 1-.793-.949l-.867-2.598c-.161-.452-.252-.932-.345-1.401-.042-.204-.079-.416-.128-.648l-.233-1.138a7.636 7.636 0 0 1-.114-.995c-.011-.127-.013-.242-.025-.362a93.053 93.053 0 0 0-.067-.746c-.055-.665-.117-1.436-.055-2.247l.025-.51c.024-.781.06-1.658.228-2.565l.226-1.431c.084-.444.182-.819.273-1.187l.123-.455c.231-1.049.6-2.04.947-2.995l.049-.128c.303-.826.65-1.577 1-2.309l.286-.594a.311.311 0 0 1 .057-.122l.383-.707a24.89 24.89 0 0 1 1.004-1.731C11.935 39.928 6.353 52.99 6.353 67.362c0 29.934 24.132 54.273 53.796 54.273 29.665 0 53.8-24.339 53.8-54.273"/><path fill="#006092" d="M135.024 132.328l-26.88-29.692a55.24 55.24 0 0 1-7.402 8.286 55.181 55.181 0 0 1-6.919 5.414l26.632 29.421c2.419 2.687 7.656 1.846 11.684-1.858 4.032-3.711 5.311-8.889 2.885-11.571"/><path fill="#EE4737" d="M97.878 72.366L71.105 47.695l-1.755-1.62a7.02 7.02 0 0 0-.671-.532c-.06-.041-.112-.095-.172-.139l.112-.134 4.49-5.213c.233-.262.457-.542.664-.819a17.947 17.947 0 0 0 16.184-2.555 17.766 17.766 0 0 0 2.736-2.453 18.148 18.148 0 0 0 3.868-6.747c.636-2.014.907-4.141.812-6.292a19.318 19.318 0 0 0-.124-1.606 1.547 1.547 0 1 0-2.688-.845l-7.351 8.118-.994 1.099-8.962-1.847-2.921-9.104 8.348-9.221c.409-.454.52-1.098.291-1.666a1.56 1.56 0 0 0-1.375-.959c-5.329-.225-10.447 1.927-14.042 5.892a17.69 17.69 0 0 0-1.333 1.683c-3.744 5.257-4.35 12.043-1.908 17.773-.252.238-.504.486-.75.746l-6.805 7.226-12.22-11.266-1.437-1.326a5.69 5.69 0 0 0-.538-.424c.144-.277.282-.56.402-.858.045.008.097 0 .144 0 2.807.21 7.508-5.312 11.538-9.749L41.601 2.829l-.019.023c-5.317 5.868-9.218 9.831-8.562 12.587-.752.411-1.441.878-2.045 1.363a9.39 9.39 0 0 0-1.076.994l-.31.337-1.372 1.514a7.553 7.553 0 0 0-1.888 4.177 13.56 13.56 0 0 0-.495.649l-.617.867c-.013.021-.07.1-.081.123l-.557.863c-.183.265-.324.545-.481.827-.151.261-.317.522-.464.788-.106.203-.215.408-.327.6-.018.035-.034.066-.046.104l-.244.51c-.296.62-.595 1.267-.846 1.96l-.046.118c-.293.809-.605 1.653-.804 2.542l-.106.384c-.079.319-.164.636-.234 1.015l-.192 1.219c-.142.768-.171 1.516-.196 2.178l-.013.439c-.057.693-.005 1.334.044 1.907.016.19.031.384.054.64.011.101.013.2.021.307.02.249.039.543.098.842l.2.976c.041.194.074.372.104.551.084.396.158.808.293 1.191l.743 2.209c.019.055.057.099.083.151a1.51 1.51 0 0 0 1.496.858c.373-.047.699-.22.933-.486.212-.233.353-.531.389-.866l.226-2.29c.013-.178.081-.447.148-.729.049-.197.098-.397.129-.57l.083-.358.117-.502c.022-.118.071-.227.116-.345.041-.107.083-.219.12-.33.072-.178.137-.372.202-.555l.122-.333a5.81 5.81 0 0 1 .324-.729c.078-.165.166-.314.236-.479.204-.403.396-.784.625-1.105 0 0 .031-.038.046-.06l.519-.798c.109-.147.229-.295.353-.433.08-.112.166-.208.272-.345.308-.41.677-.773 1.038-1.135l.186-.192c.265-.265.57-.521.894-.798.133-.108.263-.215.396-.319.158-.121.323-.241.479-.359.086-.064.168-.11.25-.174.193-.137.38-.281.588-.399l.643-.41.653-.367c.225-.128.451-.23.662-.326.12-.063.245-.113.354-.173.111-.049.225-.09.325-.139.147-.058.27-.115.43-.167l.176-.047c.212.307.457.609.742.869L50 45.645l-3.124 3.311L23.61 73.632a.239.239 0 0 0-.025.023c-3.287 3.63-3.621 8.723-.032 12.035 3.588 3.308 8.255 2.203 11.531-1.414 0 0 .028-.026.044-.045l23.185-26.96c.146.159.293.326.467.476L87.298 84.04a7.797 7.797 0 0 0 11.079-.5c2.917-3.226 2.695-8.227-.499-11.174m-66.483 9.221a3.222 3.222 0 0 1-4.575.206 3.29 3.29 0 0 1-.208-4.619 3.224 3.224 0 0 1 4.577-.21 3.299 3.299 0 0 1 .206 4.623"/></svg>