<svg xmlns:xlink="http://www.w3.org/1999/xlink"  xmlns="http://www.w3.org/2000/svg" width="150" height="150" viewBox="0 0 150 150"><path fill="#60A0C4" d="M59.609 11.636c.968.257 1.957.538 2.942.903 14.002 4.999 26.912 19.363 34.977 38.567.704-9.035 5.724-17.573 14.218-22.342 9.919-5.562 21.738-4.467 30.34 1.818-21.44-21.405-53.513-29.049-82.477-18.946zM34.392 28.341c.214-1.035.482-2.019.774-2.984C11.445 44.819 1.271 76.186 8.375 105.641c-.887-10.619 4.344-21.29 14.237-26.842 8.494-4.769 18.402-4.614 26.482-.5C36.901 61.416 31.375 42.9 34.392 28.341zM76.951 62.321a4.345 4.345 0 0 0-5.905-1.664c-2.087 1.177-2.837 3.824-1.666 5.906l28.705 51.15c1.483 2.648.543 6.013-2.105 7.498-2.649 1.488-6.98.332-8.469-2.31 0 0-.033-.021-.052-.029l-2.877-3.826a9.306 9.306 0 0 0 .971-3.152l.008-.623c.209-4.87-3.328-9.135-8.237-9.691-1.437-.162-2.817.037-4.093.474l5.469 6.871c.292.349.479.768.568 1.179.285 1.149-.072 2.407-1.061 3.184a3.092 3.092 0 0 1-2.276.664 2.97 2.97 0 0 1-1.05-.332c-.389-.199-.761-.455-1.039-.824l-5.467-6.854a9.144 9.144 0 0 0-1.383 3.864c-.556 4.925 2.837 9.33 7.615 10.204l.625.133c1.132.124 2.236.002 3.269-.245l2.707 3.396a.33.33 0 0 0-.044.037c3.922 6.552 12.368 9.212 19.068 5.447 6.818-3.824 9.249-12.491 5.424-19.311L76.951 62.321z"/><path fill="#194F7C" d="M93.611 53.252c-7.589-18.271-19.623-31.886-32.563-36.51-3.769-1.354-7.269-1.713-10.341-1.277l-2.75-4.897a4.38 4.38 0 0 0-5.965-1.68 4.376 4.376 0 0 0-1.671 5.964l2.751 4.9c-1.976 2.398-3.493 5.571-4.296 9.488-2.796 13.459 2.54 30.821 14.199 46.807.726-9.01 5.744-17.507 14.213-22.266 8.485-4.762 18.351-4.61 26.423-.529z"/></svg>