<svg xmlns:xlink="http://www.w3.org/1999/xlink"  version="1" xmlns="http://www.w3.org/2000/svg" viewBox="0 0 150 150"><path fill="#66A9DC" d="M131.7 102.7c-2.4-3.6 9.4-18.9 2.3-31.3-2.6-4.6 9-14.3 7.1-28.7-2.9-22-20.4-22.1-20.4-22.1-3.1.1-7.1 1-2.1 5.7 3.5 3.3 18 21.3 3.5 33.7-.1.1-.4.1-.4.1-6.1-5.3-24.4-2.1-25.3-1.9-3.4.5-6.7.3-10.1.3-2.4 0-4.2.7-6.6 1-2.6.3-8.1-.4-8.9-.5-.1 0-.2-.1-.2-.2.3-.5.7-.9.8-1.5.8-4.4.5-9.3-1.1-13.2 0-.1.1-.2.2-.2.6.2 1.5.4 2.4.5 7 .5 7.9-5.1 8.1-7.4.3-5.6 0-6.8-.4-9.1-.6-4.3-5.2-10.8-5.2-10.9-4.4-5-9.9-8.4-14.6-7.2-7 1.8-9.8 7.7-6.9 13.2 0 .1 0 .3-.1.3-3.3.4-12.3 1.8-15.5 2.7-.1 0-.1-.1-.1-.2 1.3-5.9-2.4-10.7-8.9-11.9-17.3-3.1-38 36-9.5 36.1.1 0 .2.1.2.2-.2 2-1.1 20.2 16.3 23.7.1 0 .1.1.1.2-3.6 5.4-5.4 18.4 4.1 24.7 2.1 6.2-1.7 14.2-4.9 16.6-7.6 2.1-11.8 4.6-12.3 12.3 0 0-.8 7 6.8 6.7 1.3 0 2.9-.4 4.8-1.1.7 1.4 1.8 2.3 3 2.9.1.1 5.2 1.5 7.3-.5.7-.7 1.6-1.2 2.3-2 0-.1.2-.1.3 0 .8.4 1.6.9 2.6 1.3.1 0 2.6.8 3.4.9.3 0 2.1-.3 2.3-.5l.1-.1c.8-.7 1.5-1.5 2.1-2.3.2-.2.4-.5.6-.7.1-.1.2-.2.3-.4.3-.3-1.6-7.7-1.1-10.6.6-3.3 6.4-8.2 6.5-11.5 0-.1.1-.2.2-.1 3 1.2 6.8 1.8 10.7 2l16.9-.7c3.2-.6 11.9-2.5 12.4-2.7 12.1 6 .2 13.7 1.2 19.6v.1s.4 1.9 1 3c.1.2 4.2 3.1 10.4-1.5.1 0 .3 0 .3.1 0 0 .5 1.2 1.4 2.3.4 0 7.1 2.1 8-2.3l.1-.1c1.9 1.6 8.5 3.9 13.1-2.9 4.6-6.6-5.2-18.6-8.6-23.9z"/><path fill="#DDF2F6" d="M26.6 46.1c3.4-3.8 5.2-9.6 5.7-14.4.2-1.8-1.2-3.8-3-3.6-2.3.4-.1 2.8-.3 4.6-.6 4.3-2 7.7-7.7 11.7-.1.1-.2.1-.2-.1.2-1.2 1.2-6.8-5.3-7.3-2.7-.2-5 2-5.4 4.6 0 .2-.2.3-.2.1-.9-3.8-.1-9.1 2.1-13.7 0-.1.2-.1.2 0 .7 2.1 2.7 3.6 5.1 3.6 3 0 5.4-2.4 5.4-5.4 0-2.8-2.1-5-4.8-5.4-.1 0-.1-.2 0-.3 3.9-3 9.7-6.8 15.4-.8 2.8 4.2.9 5.7 2.3 9 7.7-3 17.9-2.1 19.9-3.5 2.9-2.8-1.8-5.5 1.2-8.7.1-.1.3-.2.3-.1.3 2.8 2.6 4.9 5.4 4.9 3 0 5.4-2.4 5.4-5.4 0-.4-.1-.9-.2-1.3 0-.1.1-.2.2-.1 2.8 1.8 5.4 4.9 7.4 8.4v5.6c-2.4.5-4.2 2.7-4.2 5.3 0 2.6 1.8 4.7 4.2 5.3v3c-1.3.1-3.1-.3-5.2-1.3-4.3-2-6.5-6.3-7.1-10.7-.2-1.8 1.4-4.9-.3-5.4S59.8 26.2 60 28c.6 5.9 2.2 10.7 6.5 17.2 1.2 2.7 8.8 23.5-17.6 26.9-9 1.3-33.5-2.6-22.3-26z"/><path fill="#DDF2F6" d="M135.1 129.9c-8.2 3.6-5.4-3.8-8.8-3.6-2 .2.1 4.8-4.5 4.6-1.5 0-4.5-3.6-4.5-3.6-2-.1-2.4 4.1-7 .9-2.6-1.8 1.3-5.8 2.5-10.3 0-.1.2-.1.2-.1 1 1.4 2.6 2.4 4.4 2.4 3 0 5.4-2.4 5.4-5.4 0-3-2.4-5.4-5.4-5.4-2.1 0-3.9 1.2-4.8 2.9-.1.1-.2.1-.3 0-.8-1.7-2.4-3.4-5.2-5-5.5 1.3-11 2.4-16.6 2.8-2.9.2-14.9-.4-14.9-.4-2.3-.2-4.6-.5-6.8-.9-.1 0-.1-.1 0-.2 1.2-.9 2-2.4 2.1-4-.8-1.1-1.1-2.3-1.1-3.5-1-1.3-2.6-2.2-4.3-2.2-3 0-5.4 2.4-5.4 5.4 0 1.9.9 3.5 2.4 4.5-1.5 2.2-3.5 5.2-5.2 8.9l-.7.9c-2.4.5-4.3 2.7-4.3 5.3 0 2.6 1.8 4.8 4.3 5.3 0 0 2.6 4.6-3.1 6.1-1.6.4-4.9-3.1-6.2-3.8-1.8-.3-2.1 5-5.3 5-4 0-4-3-4.1-3.9 0 0 .3-5.8-3.2-1.4-5.7 7.4-12.7-.9-7.3-7.1 0-.1.3-.1.3 0 1.7 1.1 3.9 1.3 5.8.2 1.7-1 2.6-2.7 2.7-4.5 2-.4 3.8-1 4.6-2.7.3-.7.6-1.3.9-2.1 0-.1.2-.2.3-.1 1 1.1 2.4 1.9 4 1.9 3 0 5.4-2.4 5.4-5.4 0-3-2.4-5.4-5.4-5.4-.5 0-1 .1-1.4.2-.1 0-.2-.1-.2-.2.3-1.5.6-3.2.8-5.1.4-3.2-14.7-9.4-5.2-25 0-.1.2-.2.3-.1 5.2 1.1 10.9.1 17.2-2.7.1 0 .2 0 .1.1-.3 1.3-1.2 7.6 5.1 7.1 1.5-.1 2.8-.7 3.8-1.6.3-.7.7-1.4 1.3-2 .2-.6.3-1.2.3-1.8 0-2.5-1.7-4.6-3.9-5.2-.1 0-.1-.2 0-.2 2.5-1.6 4.4-3.2 5.1-4.5 1.7.2 3.5.3 5.5.4.3-.1.7-.2 1-.3 28.6-4.7 47-.2 47-.2 2.4-1.2 4.4-3.8 4.4-3.8 5.7 1.2 8.6-7.1 3.8-9.9 1-6.9-2.9-16.6-9.7-23.4-3.1-3.2-.9-4.7 2.2-3.2.6.3 2.7 1.7 3 1.9-3 5.3 2.8 10.9 8 7 1.9 2.5 3 5.1 3.7 7.7-3.3 1.8-6 7 .4 9.8-1.4 10.7-8.3 19.9-8.3 19.9 3.4 6.6 2.4 17.8 1.6 20.3-.4 1.2-.9 2.3-1.4 3.4 0 .1-.2.1-.3 0-.9-1.8-2.7-3-4.8-3-3 0-5.8 2.5-5.4 5.4.4 3.2 3.2 5.9 7 5.2.1 0 .2.1.2.1 0 1 .3 2.1 1.2 3.2 1.4 1.8 3 3.7 4.6 5.8-6.4 4.4-2.1 12.7 5.3 9.4 0 0 .2 0 .2.1.8 3.6.9 7.2-3.4 9.1z"/><path fill="#333" d="M39.3 44.1c1.8 0 3.3-1.5 3.3-3.3 0-1.8-1.5-3.3-3.3-3.3-1.8 0-3.3 1.5-3.3 3.3.1 1.8 1.5 3.3 3.3 3.3zM49.4 41.6c1.8 0 3.3-1.5 3.3-3.3 0-1.8-1.5-3.3-3.3-3.3-1.8 0-3.3 1.5-3.3 3.3 0 1.9 1.5 3.3 3.3 3.3zM42.3 47.3c.8 1.3 2.5 3.7 5.2 3.4 3.5-.3 4.3-4.1 3.5-6.1-.8-2.1-6.2-1.7-8.6 1.1-.4.4-.4 1.1-.1 1.6zM48.4 56.5c0-.1.1-.1.2-.1 3 3.2 9 2.8 11.4-2.5.3-.5.5-1.3 0-1.5-.5-.3-1 .7-1.3 1.3-2.8 5-7.8 3.9-10.1-.3-.9-1.6-1.4-.3-1.3.2.8 5-6.8 8.4-9.8 4.5-.4-.5-.8-1.6-1.4-1.3-1.1.6-.3 1.3 0 1.8 3.1 4.7 10.9 3.1 12.3-2.1z"/><path fill="#66A9DC" d="M127.2 72.5c0-3-2.4-5.4-5.4-5.4-3 0-5.4 2.4-5.4 5.4 0 3 2.4 5.4 5.4 5.4 3 0 5.4-2.4 5.4-5.4zM111.1 83.6c-3 0-5.4 2.4-5.4 5.4 0 3 2.4 5.4 5.4 5.4 3 0 5.4-2.4 5.4-5.4 0-2.9-2.5-5.4-5.4-5.4zM48.5 82c-3 0-5.4 2.4-5.4 5.4 0 3 2.4 5.4 5.4 5.4 3 0 5.4-2.4 5.4-5.4.1-3-2.4-5.4-5.4-5.4zM84.8 96.4c-3 0-5.4 2.4-5.4 5.4 0 3 2.4 5.4 5.4 5.4 3 0 5.4-2.4 5.4-5.4 0-3-2.4-5.4-5.4-5.4zM102.8 97.5c-3 0-5.4 2.4-5.4 5.4 0 3 2.4 5.4 5.4 5.4 3 0 5.4-2.4 5.4-5.4 0-3-2.4-5.4-5.4-5.4zM95.3 60.8c-3 0-5.4 2.4-5.4 5.4 0 3 2.4 5.4 5.4 5.4 3 0 5.4-2.4 5.4-5.4 0-3-2.5-5.4-5.4-5.4zM78.4 65.4c-3 0-5.4 2.4-5.4 5.4 0 3 2.4 5.4 5.4 5.4 3 0 5.4-2.4 5.4-5.4 0-3-2.4-5.4-5.4-5.4zM67 83.1c-3 0-5.4 2.4-5.4 5.4 0 3 2.4 5.4 5.4 5.4 3 0 5.4-2.4 5.4-5.4 0-2.9-2.4-5.4-5.4-5.4zM93.4 78.6c-3 0-5.4 2.4-5.4 5.4 0 3 2.4 5.4 5.4 5.4 3 0 5.4-2.4 5.4-5.4.1-3-2.4-5.4-5.4-5.4z"/></svg>