<svg xmlns:xlink="http://www.w3.org/1999/xlink"  version="1" xmlns="http://www.w3.org/2000/svg" viewBox="0 0 150 150"><path fill="#9DD6C9" d="M96 16.4s0-.1.1-.1l-.5.5c.2-.1.3-.2.4-.4z"/><path fill="#FAB019" d="M36.4 36.9c-.4.9-1 1.6-1.8 2.2-.3.2-.6.4-.9.5 5 4.5 9.7 9.5 14 14.7.9-.8 1.9-1.5 2.9-2-5.1-4.7-9.9-9.9-14.2-15.4z"/><path fill="#333" d="M36.4 36.9c.8-1.7.7-3.8-.5-5.4-1.7-2.5-5.2-3-7.6-1.3-2.5 1.7-3 5.2-1.3 7.6 1.5 2.2 4.3 2.9 6.7 1.8.3-.1.6-.3.9-.5.8-.5 1.4-1.3 1.8-2.2z"/><path fill="#FAB019" d="M87.4 41.5c-.3-8.3.2-16.7 1.5-24.9-.9.3-1.9.4-2.9.2-.4-.1-.7-.2-1-.3.2 8.4-.5 16.8-1.9 25.1v.1c1.5-.3 2.9-.4 4.3-.2z"/><path fill="#333" d="M88.9 16.6c1.8-.6 3.2-2.1 3.6-4.1.6-3-1.3-5.8-4.3-6.4-3-.6-5.8 1.3-6.4 4.3-.5 2.6.9 5.1 3.2 6.1.3.1.7.2 1 .3 1 .2 2 .1 2.9-.2zM92.4 126.7c-2.6.7-5.2 1-7.8.9 4.9 4.9 18.3 18.4 18.3 18.4l1.5-25.7-1.8 1.5c-3.1 2.3-6.5 3.9-10.2 4.9z"/><path fill="#FAB019" d="M56.5 104.9c.1.3.1.5.2.8.7 2.7 1.8 5.1 3.1 7.4 21.5 2.8 41.7-4.7 54.3-18.3-.2-1.3-.4-2.7-.7-3.9-.4-1.7-1-3.2-1.7-4.7-13.5 13.2-33.6 20.7-55.2 18.7z"/><path fill="#FAB019" d="M65.9 120.4c1.3 1.1 2.6 2.1 4 3 3.3 2 6.9 3.3 10.9 3.9 1.3.2 2.5.3 3.7.3 2.6.1 5.3-.2 7.8-.9 3.7-1 7.1-2.6 10.2-4.9l1.8-1.5c2.2-2 4.2-4.2 5.8-6.8 1.7-2.7 2.8-5.7 3.5-8.9-12.4 10.5-29.4 16.5-47.7 15.8z"/><path fill="#333" d="M59.9 113.1c.5.9 1.1 1.8 1.8 2.7 1.3 1.7 2.7 3.2 4.3 4.6 18.3.7 35.3-5.3 47.8-15.9.1-.7.3-1.3.4-2 .4-2.6.4-5.2.1-7.7-12.7 13.7-33 21.1-54.4 18.3zM55.8 98.1c0 2.3.2 4.6.7 6.8 21.5 1.9 41.7-5.5 55.2-18.8l-.6-1.2c-1.6-.9-3.2-1.9-4.7-3C94 93.8 75.5 100.2 55.8 98.1zM100.4 76.8c-1.4-1.3-2.5-2.5-3.2-3.3-.5-.1-.9-.1-.9-.1s.1-.3.2-.7c-.1-.2-.2-.2-.2-.2h.3c.1-.3.2-.5.3-.9-.1-.1-.3-.1-.4-.2l-.1.1c.4-2.3.4-4.8.1-7.2-1.5 1.7-3.3 3.1-5.6 4-7.1 2.8-15.2-.8-18-7.9-2.1-5.4-.5-11.4 3.5-15.1-3.4-.3-7 .1-10.4 1.4-2.8 1.1-5.2 2.6-7.2 4.5 4.8.7 9.2 3.9 11 8.7 2.8 7.1-.8 15.2-7.9 18-2.5 1-5.1 1.1-7.6.7 1 1.8 2.2 3.5 3.7 5h-.3l-1 6.7c16.4.2 31.8-4.7 43.7-13.5zm-37.7 5.1c-.3.1-.7.1-1-.1-.6-.4-.8-1.1-.4-1.7.4-.6 1.1-.8 1.7-.4.3.2.5.5.6.8 4.7 2.6 10.2 3.3 15.4 1.4C84.2 80 88 76 90 71c-.2-.3-.2-.6-.1-1 .2-.6.9-1 1.6-.8.6.2 1 .9.8 1.6-.1.4-.4.6-.7.7-2.1 5.4-6.3 9.9-12 11.9-5.7 2.1-11.8 1.4-16.9-1.5z"/><path fill="#FAB019" d="M55.7 90.3c-.2.2-9.4 11.8-18.6 13.4-2.7.5-4.9.5-6.8.2-4.9 7.4-3.6 13.3.8 16.9 4.9 4 11.7 3.7 18.5-4.8 6.8-8.4 6.1-25.8 6.1-25.7 0-.1 0 0 0 0z"/><path fill="#FAB019" d="M55.7 90.3s0-.1 0 0c0 0-12.9-7.8-22.1-6.1-9.2 1.7-12.3 6.7-11.3 12.1.7 3.8 3.3 6.7 8 7.5.5-.7 1-1.4 1.5-2.2 6.8-8.3 23.6-11.3 23.9-11.3z"/><path fill="#D65B51" d="M37.1 103.7c9.1-1.7 18.4-13.2 18.6-13.4-.2 0-17.1 3-23.8 11.4-.6.7-1.1 1.5-1.5 2.2 1.8.2 4.1.2 6.7-.2z"/><path fill="#FAB019" d="M124.8 65.5c2.4-3.5 2.2-7.1.3-10.2-2.9-4.7-8.6-6.3-16.5-1.4-6.2 3.9-10.2 13.5-11.7 17.5l-.3.9h-.3l.2.2c-.1.4-.2.7-.2.7.2-.1 14.7-9.2 25.3-7.6.9.2 1.8.4 2.6.6-1.2 1.5-2.9 3-5.2 4.5-6.8 4.2-18.5 3.1-21.8 2.7.7.8 1.8 1.9 3.2 3.3C88.5 85.5 73.1 90.5 56.7 90l-.6 4c-.2 1.4-.3 2.7-.3 4 19.7 2.2 38.2-4.3 50.6-16.2 1.5 1.1 3.1 2.1 4.7 3 2.3 1.2 4.6 2.1 6.9 2.5 10.7 1.7 15.9-2.7 16.9-8.9 1-5.5-1.9-10.6-10.1-12.9z"/><path fill="#D65B51" d="M119.1 70.8c2.3-1.4 3.9-2.9 5.2-4.5-.8-.2-1.7-.4-2.6-.6-10.6-1.7-25.1 7.5-25.3 7.6 0 0 .4.1.9.1 3.3.5 15 1.6 21.8-2.6z"/><linearGradient id="a" gradientUnits="userSpaceOnUse" x1="-66.714" y1="118.447" x2="-38.946" y2="118.447" gradientTransform="scale(-1 1) rotate(21.125 100.212 -1.578)"><stop offset="0" stop-color="#272c34"/><stop offset="1" stop-color="#292933"/></linearGradient><path fill="url(#a)" d="M87.2 42.4c4.7.5 8.9 3.5 10.7 8.2 1.7 4.3.9 9-1.7 12.4.1.4.2.8.2 1.2 3.2-3.8 4.3-9.1 2.4-14-1.9-5-6.4-8.2-11.4-8.8v.4c0 .3-.1.4-.2.6z"/><linearGradient id="b" gradientUnits="userSpaceOnUse" x1="-66.714" y1="105.408" x2="-38.947" y2="105.408" gradientTransform="scale(-1 1) rotate(21.125 100.212 -1.578)"><stop offset="0" stop-color="#272c34"/><stop offset="1" stop-color="#292933"/></linearGradient><path fill="url(#b)" d="M81.2 43.2c.7-.3 1.4-.5 2.2-.6-.1-.3-.1-.6-.2-.9-.8.2-1.6.4-2.3.7-1.7.7-3.2 1.6-4.5 2.8.4 0 .8.1 1.2.2 1-1 2.2-1.7 3.6-2.2z"/><path fill="#FAB019" d="M87.2 42.4c.1-.2.1-.3.2-.5v-.4c-1.4-.2-2.8-.1-4.2.2.1.3.1.6.2.9 1.2-.3 2.6-.4 3.8-.2z"/><linearGradient id="c" gradientUnits="userSpaceOnUse" x1="-66.714" y1="105.915" x2="-38.947" y2="105.915" gradientTransform="scale(-1 1) rotate(21.125 100.212 -1.578)"><stop offset="0" stop-color="#272c34"/><stop offset="1" stop-color="#292933"/></linearGradient><path fill="url(#c)" d="M87.2 42.4c.1-.2.1-.3.2-.5v-.4c-1.4-.2-2.8-.1-4.2.2.1.3.1.6.2.9 1.2-.3 2.6-.4 3.8-.2z"/><path fill="#333" d="M72.9 60.3c2.8 7.1 10.8 10.7 18 7.9 2.2-.9 4.1-2.3 5.6-4-.1-.4-.1-.8-.2-1.2-1.4 1.9-3.3 3.4-5.7 4.3-6.7 2.6-14.2-.7-16.8-7.4-2.1-5.3-.3-11.2 3.8-14.7-.4-.1-.8-.1-1.2-.2-4.1 3.9-5.6 9.8-3.5 15.3z"/><linearGradient id="d" gradientUnits="userSpaceOnUse" x1="-66.714" y1="119.001" x2="-38.947" y2="119.001" gradientTransform="scale(-1 1) rotate(21.125 100.212 -1.578)"><stop offset="0" stop-color="#272c34"/><stop offset="1" stop-color="#292933"/></linearGradient><path fill="url(#d)" d="M72.9 60.3c2.8 7.1 10.8 10.7 18 7.9 2.2-.9 4.1-2.3 5.6-4-.1-.4-.1-.8-.2-1.2-1.4 1.9-3.3 3.4-5.7 4.3-6.7 2.6-14.2-.7-16.8-7.4-2.1-5.3-.3-11.2 3.8-14.7-.4-.1-.8-.1-1.2-.2-4.1 3.9-5.6 9.8-3.5 15.3z"/><path fill="#FFF" d="M83.4 42.8c-.7.1-1.4.3-2.1.6-1.3.5-2.4 1.2-3.4 2-4.2 3.4-6 9.2-3.9 14.5 2.5 6.6 9.9 9.8 16.5 7.3 2.4-.9 4.3-2.5 5.7-4.4 2.4-3.4 3.2-7.9 1.6-12.1-1.8-4.6-5.9-7.6-10.5-8.1-1.4-.1-2.7-.1-3.9.2zM95 51.7c2 5.1-.6 10.8-5.6 12.7-5.1 2-10.8-.6-12.7-5.6-2-5.1.6-10.8 5.6-12.7 5-2 10.7.6 12.7 5.6z"/><radialGradient id="e" cx="-52.831" cy="118.493" r="12.963" gradientTransform="scale(-1 1) rotate(21.125 100.212 -1.578)" gradientUnits="userSpaceOnUse"><stop offset="0" stop-color="#fff"/><stop offset="1" stop-color="#e3e4e3"/></radialGradient><path fill="url(#e)" d="M83.4 42.8c-.7.1-1.4.3-2.1.6-1.3.5-2.4 1.2-3.4 2-4.2 3.4-6 9.2-3.9 14.5 2.5 6.6 9.9 9.8 16.5 7.3 2.4-.9 4.3-2.5 5.7-4.4 2.4-3.4 3.2-7.9 1.6-12.1-1.8-4.6-5.9-7.6-10.5-8.1-1.4-.1-2.7-.1-3.9.2zM95 51.7c2 5.1-.6 10.8-5.6 12.7-5.1 2-10.8-.6-12.7-5.6-2-5.1.6-10.8 5.6-12.7 5-2 10.7.6 12.7 5.6z"/><linearGradient id="f" gradientUnits="userSpaceOnUse" x1="-66.714" y1="118.235" x2="-38.947" y2="118.235" gradientTransform="scale(-1 1) rotate(21.125 100.212 -1.578)"><stop offset="0" stop-color="#272c34"/><stop offset="1" stop-color="#292933"/></linearGradient><path fill="url(#f)" d="M97.9 50.6c-1.8-4.7-6-7.7-10.7-8.2 0 .1 0 .1-.1.2 4.6.5 8.8 3.5 10.5 8.1 1.6 4.2.9 8.7-1.6 12.1 0 .1 0 .2.1.3 2.7-3.5 3.5-8.2 1.8-12.5z"/><radialGradient id="g" cx="-52.83" cy="118.493" r="12.963" gradientTransform="scale(-1 1) rotate(21.125 100.212 -1.578)" gradientUnits="userSpaceOnUse"><stop offset="0" stop-color="#fff"/><stop offset="1" stop-color="#e3e4e3"/></radialGradient><path fill="url(#g)" d="M97.9 50.6c-1.8-4.7-6-7.7-10.7-8.2 0 .1 0 .1-.1.2 4.6.5 8.8 3.5 10.5 8.1 1.6 4.2.9 8.7-1.6 12.1 0 .1 0 .2.1.3 2.7-3.5 3.5-8.2 1.8-12.5z"/><linearGradient id="h" gradientUnits="userSpaceOnUse" x1="-66.714" y1="105.939" x2="-38.947" y2="105.939" gradientTransform="scale(-1 1) rotate(21.125 100.212 -1.578)"><stop offset="0" stop-color="#272c34"/><stop offset="1" stop-color="#292933"/></linearGradient><path fill="url(#h)" d="M81.2 43.4c.7-.3 1.4-.5 2.1-.6v-.2c-.7.1-1.5.3-2.2.6-1.3.5-2.5 1.2-3.6 2.1h.3c1-.8 2.2-1.4 3.4-1.9z"/><radialGradient id="i" cx="-52.83" cy="118.493" r="12.963" gradientTransform="scale(-1 1) rotate(21.125 100.212 -1.578)" gradientUnits="userSpaceOnUse"><stop offset="0" stop-color="#fff"/><stop offset="1" stop-color="#e3e4e3"/></radialGradient><path fill="url(#i)" d="M81.2 43.4c.7-.3 1.4-.5 2.1-.6v-.2c-.7.1-1.5.3-2.2.6-1.3.5-2.5 1.2-3.6 2.1h.3c1-.8 2.2-1.4 3.4-1.9z"/><path fill="#FAB019" d="M87.2 42.6c0-.1 0-.1.1-.2-1.3-.1-2.6-.1-3.9.2v.2c1.2-.3 2.5-.3 3.8-.2z"/><linearGradient id="j" gradientUnits="userSpaceOnUse" x1="-66.714" y1="106.454" x2="-38.947" y2="106.454" gradientTransform="scale(-1 1) rotate(21.125 100.212 -1.578)"><stop offset="0" stop-color="#272c34"/><stop offset="1" stop-color="#292933"/></linearGradient><path fill="url(#j)" d="M87.2 42.6c0-.1 0-.1.1-.2-1.3-.1-2.6-.1-3.9.2v.2c1.2-.3 2.5-.3 3.8-.2z"/><radialGradient id="k" cx="-52.83" cy="118.493" r="12.963" gradientTransform="scale(-1 1) rotate(21.125 100.212 -1.578)" gradientUnits="userSpaceOnUse"><stop offset="0" stop-color="#fff"/><stop offset="1" stop-color="#e3e4e3"/></radialGradient><path fill="url(#k)" d="M87.2 42.6c0-.1 0-.1.1-.2-1.3-.1-2.6-.1-3.9.2v.2c1.2-.3 2.5-.3 3.8-.2z"/><path fill="#333" d="M90.4 67.2c-6.6 2.5-14-.7-16.5-7.3-2-5.3-.3-11.1 3.9-14.5h-.3c-4.2 3.5-5.9 9.3-3.8 14.7 2.6 6.7 10.1 10 16.8 7.4 2.4-.9 4.3-2.4 5.7-4.3 0-.1 0-.2-.1-.3-1.4 1.8-3.3 3.3-5.7 4.3z"/><linearGradient id="l" gradientUnits="userSpaceOnUse" x1="-66.714" y1="118.831" x2="-38.947" y2="118.831" gradientTransform="scale(-1 1) rotate(21.125 100.212 -1.578)"><stop offset="0" stop-color="#272c34"/><stop offset="1" stop-color="#292933"/></linearGradient><path fill="url(#l)" d="M90.4 67.2c-6.6 2.5-14-.7-16.5-7.3-2-5.3-.3-11.1 3.9-14.5h-.3c-4.2 3.5-5.9 9.3-3.8 14.7 2.6 6.7 10.1 10 16.8 7.4 2.4-.9 4.3-2.4 5.7-4.3 0-.1 0-.2-.1-.3-1.4 1.8-3.3 3.3-5.7 4.3z"/><radialGradient id="m" cx="-52.83" cy="118.493" r="12.963" gradientTransform="scale(-1 1) rotate(21.125 100.212 -1.578)" gradientUnits="userSpaceOnUse"><stop offset="0" stop-color="#fff"/><stop offset="1" stop-color="#e3e4e3"/></radialGradient><path fill="url(#m)" d="M90.4 67.2c-6.6 2.5-14-.7-16.5-7.3-2-5.3-.3-11.1 3.9-14.5h-.3c-4.2 3.5-5.9 9.3-3.8 14.7 2.6 6.7 10.1 10 16.8 7.4 2.4-.9 4.3-2.4 5.7-4.3 0-.1 0-.2-.1-.3-1.4 1.8-3.3 3.3-5.7 4.3z"/><path fill="#FAB019" d="M82.3 46.1c-5.1 2-7.6 7.7-5.6 12.7 2 5.1 7.7 7.6 12.7 5.6 5.1-2 7.6-7.7 5.6-12.7-2-5-7.7-7.6-12.7-5.6zm10.1 6.6c.5 1.3.6 2.8.3 4.1.2.1.3.2.5.3.9.6 1.2 1.7.8 2.4-.5.7-1.6.8-2.5.2h-.1c-.2.3-.5.6-.8.9.1.3.1.7-.1 1-.3.5-1 .5-1.7.2-.2.1-.3.2-.5.2-3.6 1.4-7.7-.4-9.2-4.1-.3-.7-.4-1.4-.5-2.2-.4-.8-.6-1.8-.4-2.9.4-1.9 1.8-3.3 3.3-3.2.5-.4 1.1-.7 1.7-.9 3.7-1.4 7.8.4 9.2 4z"/><path fill="#FAB019" d="M83.3 48.7c-.6.2-1.2.5-1.7.9h.3c1.6.3 2.6 2.2 2.2 4.2-.4 2-2 3.5-3.6 3.2-.8-.1-1.4-.7-1.8-1.4 0 .7.2 1.5.5 2.2 1.4 3.6 5.5 5.5 9.2 4.1.2-.1.3-.1.5-.2-.1 0-.1 0-.2-.1-.7-.5-.9-1.3-.6-1.8.4-.5 1.2-.6 1.9-.1.3.2.5.5.6.8.3-.3.6-.6.8-.9-.9-.6-1.2-1.7-.7-2.4.4-.6 1.2-.7 2-.4.3-1.3.2-2.7-.3-4.1-1.4-3.6-5.5-5.4-9.1-4z"/><radialGradient id="n" cx="-52.829" cy="118.493" r="7.079" gradientTransform="scale(-1 1) rotate(21.125 100.212 -1.578)" gradientUnits="userSpaceOnUse"><stop offset="0" stop-color="#231c11"/><stop offset="1"/></radialGradient><path fill="url(#n)" d="M83.3 48.7c-.6.2-1.2.5-1.7.9h.3c1.6.3 2.6 2.2 2.2 4.2-.4 2-2 3.5-3.6 3.2-.8-.1-1.4-.7-1.8-1.4 0 .7.2 1.5.5 2.2 1.4 3.6 5.5 5.5 9.2 4.1.2-.1.3-.1.5-.2-.1 0-.1 0-.2-.1-.7-.5-.9-1.3-.6-1.8.4-.5 1.2-.6 1.9-.1.3.2.5.5.6.8.3-.3.6-.6.8-.9-.9-.6-1.2-1.7-.7-2.4.4-.6 1.2-.7 2-.4.3-1.3.2-2.7-.3-4.1-1.4-3.6-5.5-5.4-9.1-4z"/><path fill="#FAB019" d="M81.6 49.6c-1.5-.1-2.9 1.3-3.3 3.2-.2 1.1 0 2.1.4 2.9-.1-2.4 1-4.7 2.9-6.1z"/><path fill="#FAB019" d="M80.5 57c1.6.3 3.2-1.1 3.6-3.2.4-2.1-.6-3.9-2.2-4.2h-.3c-1.9 1.4-3 3.7-2.9 6.1.5.7 1.1 1.2 1.8 1.3z"/><radialGradient id="o" cx="-52.829" cy="118.493" r="7.079" gradientTransform="scale(-1 1) rotate(21.125 100.212 -1.578)" gradientUnits="userSpaceOnUse"><stop offset="0" stop-color="#231c11"/><stop offset="1"/></radialGradient><path fill="url(#o)" d="M80.5 57c1.6.3 3.2-1.1 3.6-3.2.4-2.1-.6-3.9-2.2-4.2h-.3c-1.9 1.4-3 3.7-2.9 6.1.5.7 1.1 1.2 1.8 1.3z"/><radialGradient id="p" cx="81.216" cy="53.313" r="3.376" gradientUnits="userSpaceOnUse"><stop offset="0" stop-color="#fff"/><stop offset="1" stop-color="#e3e4e3"/></radialGradient><path fill="url(#p)" d="M81.9 49.6h-.3c-1.5-.1-2.9 1.3-3.3 3.2-.2 1.1 0 2.1.4 2.9.4.7 1 1.2 1.8 1.4 1.6.3 3.2-1.1 3.6-3.2.4-2.1-.6-4-2.2-4.3z"/><path fill="#FAB019" d="M91.5 59.6c.9.6 2 .6 2.5-.2.5-.7.1-1.8-.8-2.4-.2-.1-.3-.2-.5-.3-.2 1.1-.6 2-1.2 2.9z"/><path fill="#FAB019" d="M90.7 57.2c-.5.7-.2 1.7.7 2.4.6-.8 1.1-1.8 1.3-2.8-.7-.3-1.6-.2-2 .4z"/><radialGradient id="q" cx="-52.829" cy="118.493" r="7.079" gradientTransform="scale(-1 1) rotate(21.125 100.212 -1.578)" gradientUnits="userSpaceOnUse"><stop offset="0" stop-color="#231c11"/><stop offset="1"/></radialGradient><path fill="url(#q)" d="M90.7 57.2c-.5.7-.2 1.7.7 2.4.6-.8 1.1-1.8 1.3-2.8-.7-.3-1.6-.2-2 .4z"/><path fill="#FAB019" d="M90.6 61.4c.2-.3.2-.6.1-1-.5.5-1.1.9-1.7 1.2.5.4 1.2.3 1.6-.2z"/><path fill="#FAB019" d="M90 59.7c-.7-.5-1.5-.4-1.9.1-.4.5-.1 1.3.6 1.8.1 0 .1.1.2.1.7-.3 1.2-.7 1.7-1.2-.1-.3-.3-.6-.6-.8z"/><radialGradient id="r" cx="-52.829" cy="118.493" r="7.079" gradientTransform="scale(-1 1) rotate(21.125 100.212 -1.578)" gradientUnits="userSpaceOnUse"><stop offset="0" stop-color="#231c11"/><stop offset="1"/></radialGradient><path fill="url(#r)" d="M90 59.7c-.7-.5-1.5-.4-1.9.1-.4.5-.1 1.3.6 1.8.1 0 .1.1.2.1.7-.3 1.2-.7 1.7-1.2-.1-.3-.3-.6-.6-.8z"/><linearGradient id="s" gradientUnits="userSpaceOnUse" x1="-36.233" y1="104.142" x2="-8.465" y2="104.142" gradientTransform="scale(-1 1) rotate(21.125 100.212 -1.578)"><stop offset="0" stop-color="#272c34"/><stop offset="1" stop-color="#292933"/></linearGradient><path fill="url(#s)" d="M52.1 52.7c1.9-.7 3.8-1 5.7-.8.3-.3.6-.6.9-.8-2.3-.3-4.6-.1-6.9.8-.4.2-.8.3-1.2.5l.7.7c.3-.2.6-.3.8-.4z"/><linearGradient id="t" gradientUnits="userSpaceOnUse" x1="-36.233" y1="116.301" x2="-8.465" y2="116.301" gradientTransform="scale(-1 1) rotate(21.125 100.212 -1.578)"><stop offset="0" stop-color="#272c34"/><stop offset="1" stop-color="#292933"/></linearGradient><path fill="url(#t)" d="M44.7 69.5c-2-5.2-.4-10.9 3.5-14.4-.2-.2-.4-.5-.6-.7-4.2 3.7-6 9.9-3.8 15.4 1.8 4.6 5.8 7.8 10.4 8.6-.2-.3-.4-.7-.5-1-3.9-1-7.4-3.8-9-7.9z"/><path fill="#FAB019" d="M51.3 53.1l-.7-.7c-1.1.5-2.1 1.2-2.9 2 .2.2.4.5.6.7.9-.8 1.9-1.5 3-2z"/><linearGradient id="u" gradientUnits="userSpaceOnUse" x1="-36.233" y1="103.934" x2="-8.465" y2="103.934" gradientTransform="scale(-1 1) rotate(21.125 100.212 -1.578)"><stop offset="0" stop-color="#272c34"/><stop offset="1" stop-color="#292933"/></linearGradient><path fill="url(#u)" d="M51.3 53.1l-.7-.7c-1.1.5-2.1 1.2-2.9 2 .2.2.4.5.6.7.9-.8 1.9-1.5 3-2z"/><path fill="#333" d="M61.8 77.7c7.1-2.8 10.7-10.8 7.9-18-1.9-4.9-6.2-8.1-11-8.7-.3.3-.6.6-.9.8 4.8.4 9.2 3.4 11 8.2 2.6 6.7-.7 14.2-7.4 16.8-2.6 1-5.3 1.1-7.8.5.2.4.3.7.5 1 2.6.6 5.2.4 7.7-.6z"/><linearGradient id="v" gradientUnits="userSpaceOnUse" x1="-36.233" y1="117.79" x2="-8.465" y2="117.79" gradientTransform="scale(-1 1) rotate(21.125 100.212 -1.578)"><stop offset="0" stop-color="#272c34"/><stop offset="1" stop-color="#292933"/></linearGradient><path fill="url(#v)" d="M61.8 77.7c7.1-2.8 10.7-10.8 7.9-18-1.9-4.9-6.2-8.1-11-8.7-.3.3-.6.6-.9.8 4.8.4 9.2 3.4 11 8.2 2.6 6.7-.7 14.2-7.4 16.8-2.6 1-5.3 1.1-7.8.5.2.4.3.7.5 1 2.6.6 5.2.4 7.7-.6z"/><path fill="#FFF" d="M44.9 69.4c1.5 4 4.8 6.7 8.7 7.7 2.5.7 5.2.6 7.8-.4 6.6-2.5 9.8-9.9 7.3-16.5-1.8-4.8-6.3-7.8-11-8.1-1.8-.1-3.7.1-5.4.8-.2.1-.5.2-.7.3-1.2.5-2.2 1.2-3.1 2-4 3.5-5.5 9.1-3.6 14.2zM66 61.2c2 5.1-.6 10.8-5.6 12.7-5.1 2-10.8-.6-12.7-5.6-2-5.1.6-10.8 5.6-12.7 5-2 10.7.6 12.7 5.6z"/><radialGradient id="w" cx="-22.349" cy="116.914" r="12.962" gradientTransform="scale(-1 1) rotate(21.125 100.212 -1.578)" gradientUnits="userSpaceOnUse"><stop offset="0" stop-color="#fff"/><stop offset="1" stop-color="#e3e4e3"/></radialGradient><path fill="url(#w)" d="M44.9 69.4c1.5 4 4.8 6.7 8.7 7.7 2.5.7 5.2.6 7.8-.4 6.6-2.5 9.8-9.9 7.3-16.5-1.8-4.8-6.3-7.8-11-8.1-1.8-.1-3.7.1-5.4.8-.2.1-.5.2-.7.3-1.2.5-2.2 1.2-3.1 2-4 3.5-5.5 9.1-3.6 14.2zM66 61.2c2 5.1-.6 10.8-5.6 12.7-5.1 2-10.8-.6-12.7-5.6-2-5.1.6-10.8 5.6-12.7 5-2 10.7.6 12.7 5.6z"/><linearGradient id="x" gradientUnits="userSpaceOnUse" x1="-36.233" y1="104.661" x2="-8.465" y2="104.661" gradientTransform="scale(-1 1) rotate(21.125 100.212 -1.578)"><stop offset="0" stop-color="#272c34"/><stop offset="1" stop-color="#292933"/></linearGradient><path fill="url(#x)" d="M52.1 52.7c-.3.1-.5.2-.8.4l.2.2c.2-.1.5-.2.7-.3 1.8-.7 3.6-.9 5.4-.8l.2-.2c-1.8-.3-3.8 0-5.7.7z"/><radialGradient id="y" cx="-22.351" cy="116.914" r="12.963" gradientTransform="scale(-1 1) rotate(21.125 100.212 -1.578)" gradientUnits="userSpaceOnUse"><stop offset="0" stop-color="#fff"/><stop offset="1" stop-color="#e3e4e3"/></radialGradient><path fill="url(#y)" d="M52.1 52.7c-.3.1-.5.2-.8.4l.2.2c.2-.1.5-.2.7-.3 1.8-.7 3.6-.9 5.4-.8l.2-.2c-1.8-.3-3.8 0-5.7.7z"/><linearGradient id="z" gradientUnits="userSpaceOnUse" x1="-36.233" y1="116.153" x2="-8.465" y2="116.153" gradientTransform="scale(-1 1) rotate(21.125 100.212 -1.578)"><stop offset="0" stop-color="#272c34"/><stop offset="1" stop-color="#292933"/></linearGradient><path fill="url(#z)" d="M44.9 69.4c-2-5.1-.4-10.7 3.5-14.1 0-.1-.1-.1-.1-.2-4 3.5-5.5 9.2-3.5 14.4 1.6 4.1 5 6.9 9 7.9 0-.1-.1-.2-.1-.3-3.9-1-7.2-3.8-8.8-7.7z"/><radialGradient id="A" cx="-22.351" cy="116.914" r="12.963" gradientTransform="scale(-1 1) rotate(21.125 100.212 -1.578)" gradientUnits="userSpaceOnUse"><stop offset="0" stop-color="#fff"/><stop offset="1" stop-color="#e3e4e3"/></radialGradient><path fill="url(#A)" d="M44.9 69.4c-2-5.1-.4-10.7 3.5-14.1 0-.1-.1-.1-.1-.2-4 3.5-5.5 9.2-3.5 14.4 1.6 4.1 5 6.9 9 7.9 0-.1-.1-.2-.1-.3-3.9-1-7.2-3.8-8.8-7.7z"/><path fill="#FAB019" d="M51.5 53.2l-.2-.2c-1.1.5-2.2 1.2-3.1 2 0 .1.1.1.1.2 1-.8 2-1.5 3.2-2z"/><linearGradient id="B" gradientUnits="userSpaceOnUse" x1="-36.233" y1="104.486" x2="-8.465" y2="104.486" gradientTransform="scale(-1 1) rotate(21.125 100.212 -1.578)"><stop offset="0" stop-color="#272c34"/><stop offset="1" stop-color="#292933"/></linearGradient><path fill="url(#B)" d="M51.5 53.2l-.2-.2c-1.1.5-2.2 1.2-3.1 2 0 .1.1.1.1.2 1-.8 2-1.5 3.2-2z"/><radialGradient id="C" cx="-22.351" cy="116.914" r="12.963" gradientTransform="scale(-1 1) rotate(21.125 100.212 -1.578)" gradientUnits="userSpaceOnUse"><stop offset="0" stop-color="#fff"/><stop offset="1" stop-color="#e3e4e3"/></radialGradient><path fill="url(#C)" d="M51.5 53.2l-.2-.2c-1.1.5-2.2 1.2-3.1 2 0 .1.1.1.1.2 1-.8 2-1.5 3.2-2z"/><path fill="#333" d="M68.7 60.2c2.5 6.6-.7 14-7.3 16.5-2.6 1-5.3 1.1-7.8.4 0 .1.1.2.1.3 2.5.6 5.2.5 7.8-.5 6.7-2.6 10-10.1 7.4-16.8-1.9-4.8-6.2-7.8-11-8.2l-.2.2c4.8.3 9.2 3.3 11 8.1z"/><linearGradient id="D" gradientUnits="userSpaceOnUse" x1="-36.233" y1="117.564" x2="-8.465" y2="117.564" gradientTransform="scale(-1 1) rotate(21.125 100.212 -1.578)"><stop offset="0" stop-color="#272c34"/><stop offset="1" stop-color="#292933"/></linearGradient><path fill="url(#D)" d="M68.7 60.2c2.5 6.6-.7 14-7.3 16.5-2.6 1-5.3 1.1-7.8.4 0 .1.1.2.1.3 2.5.6 5.2.5 7.8-.5 6.7-2.6 10-10.1 7.4-16.8-1.9-4.8-6.2-7.8-11-8.2l-.2.2c4.8.3 9.2 3.3 11 8.1z"/><radialGradient id="E" cx="-22.351" cy="116.914" r="12.963" gradientTransform="scale(-1 1) rotate(21.125 100.212 -1.578)" gradientUnits="userSpaceOnUse"><stop offset="0" stop-color="#fff"/><stop offset="1" stop-color="#e3e4e3"/></radialGradient><path fill="url(#E)" d="M68.7 60.2c2.5 6.6-.7 14-7.3 16.5-2.6 1-5.3 1.1-7.8.4 0 .1.1.2.1.3 2.5.6 5.2.5 7.8-.5 6.7-2.6 10-10.1 7.4-16.8-1.9-4.8-6.2-7.8-11-8.2l-.2.2c4.8.3 9.2 3.3 11 8.1z"/><path fill="#FAB019" d="M53.3 55.6c-5.1 2-7.6 7.7-5.6 12.7 2 5.1 7.7 7.6 12.7 5.6 5.1-2 7.6-7.6 5.6-12.7-2-5-7.7-7.6-12.7-5.6zm10.1 6.6c.5 1.3.6 2.8.3 4.1.2.1.3.2.5.3.9.6 1.2 1.7.8 2.4-.5.7-1.6.8-2.5.2h-.1c-.2.3-.5.6-.8.9.1.3.1.7-.1 1-.3.5-1 .5-1.7.2-.2.1-.3.2-.5.2-3.6 1.4-7.7-.4-9.2-4.1-.3-.7-.4-1.4-.5-2.2-.4-.8-.6-1.8-.4-2.9.4-1.9 1.8-3.3 3.3-3.2.5-.4 1.1-.7 1.7-.9 3.7-1.4 7.8.4 9.2 4z"/><path fill="#FAB019" d="M54.3 58.2c-.6.2-1.2.6-1.7.9h.3c1.6.3 2.6 2.2 2.2 4.2-.4 2-2 3.5-3.6 3.2-.8-.1-1.4-.7-1.8-1.4 0 .7.2 1.5.5 2.2 1.4 3.6 5.5 5.5 9.2 4.1.2-.1.3-.1.5-.2-.1 0-.1 0-.2-.1-.7-.5-.9-1.3-.6-1.8.4-.5 1.2-.6 1.9-.1.3.2.5.5.6.8.3-.3.6-.6.8-.9-.9-.6-1.2-1.7-.7-2.4.4-.6 1.2-.7 2-.4.3-1.3.2-2.7-.3-4.1-1.4-3.6-5.5-5.4-9.1-4z"/><radialGradient id="F" cx="-22.348" cy="116.914" r="7.079" gradientTransform="scale(-1 1) rotate(21.125 100.212 -1.578)" gradientUnits="userSpaceOnUse"><stop offset="0" stop-color="#231c11"/><stop offset="1"/></radialGradient><path fill="url(#F)" d="M54.3 58.2c-.6.2-1.2.6-1.7.9h.3c1.6.3 2.6 2.2 2.2 4.2-.4 2-2 3.5-3.6 3.2-.8-.1-1.4-.7-1.8-1.4 0 .7.2 1.5.5 2.2 1.4 3.6 5.5 5.5 9.2 4.1.2-.1.3-.1.5-.2-.1 0-.1 0-.2-.1-.7-.5-.9-1.3-.6-1.8.4-.5 1.2-.6 1.9-.1.3.2.5.5.6.8.3-.3.6-.6.8-.9-.9-.6-1.2-1.7-.7-2.4.4-.6 1.2-.7 2-.4.3-1.3.2-2.7-.3-4.1-1.4-3.6-5.5-5.4-9.1-4z"/><path fill="#FAB019" d="M52.6 59.1c-1.5-.1-2.9 1.3-3.3 3.2-.2 1.1 0 2.1.4 2.9-.1-2.4 1-4.7 2.9-6.1z"/><path fill="#FAB019" d="M51.5 66.5c1.6.3 3.2-1.1 3.6-3.2.4-2.1-.6-3.9-2.2-4.2h-.3c-1.9 1.4-3 3.7-2.9 6.1.5.7 1.1 1.2 1.8 1.3z"/><radialGradient id="G" cx="-22.348" cy="116.914" r="7.079" gradientTransform="scale(-1 1) rotate(21.125 100.212 -1.578)" gradientUnits="userSpaceOnUse"><stop offset="0" stop-color="#231c11"/><stop offset="1"/></radialGradient><path fill="url(#G)" d="M51.5 66.5c1.6.3 3.2-1.1 3.6-3.2.4-2.1-.6-3.9-2.2-4.2h-.3c-1.9 1.4-3 3.7-2.9 6.1.5.7 1.1 1.2 1.8 1.3z"/><radialGradient id="H" cx="52.214" cy="62.827" r="3.375" gradientUnits="userSpaceOnUse"><stop offset="0" stop-color="#fff"/><stop offset="1" stop-color="#e3e4e3"/></radialGradient><path fill="url(#H)" d="M52.9 59.1h-.3c-1.5-.1-2.9 1.3-3.3 3.2-.2 1.1 0 2.1.4 2.9.4.7 1 1.2 1.8 1.4 1.6.3 3.2-1.1 3.6-3.2.4-2.1-.6-4-2.2-4.3z"/><path fill="#FAB019" d="M62.5 69.1c.9.6 2 .6 2.5-.2.5-.7.1-1.8-.8-2.4-.2-.1-.3-.2-.5-.3-.2 1.1-.6 2.1-1.2 2.9z"/><path fill="#FAB019" d="M61.7 66.7c-.5.7-.2 1.7.7 2.4.6-.8 1.1-1.8 1.3-2.8-.8-.3-1.6-.2-2 .4z"/><radialGradient id="I" cx="-22.348" cy="116.914" r="7.079" gradientTransform="scale(-1 1) rotate(21.125 100.212 -1.578)" gradientUnits="userSpaceOnUse"><stop offset="0" stop-color="#231c11"/><stop offset="1"/></radialGradient><path fill="url(#I)" d="M61.7 66.7c-.5.7-.2 1.7.7 2.4.6-.8 1.1-1.8 1.3-2.8-.8-.3-1.6-.2-2 .4z"/><path fill="#FAB019" d="M61.6 71c.2-.3.2-.6.1-1-.5.5-1.1.9-1.8 1.2.6.3 1.3.2 1.7-.2z"/><path fill="#FAB019" d="M61 69.2c-.7-.5-1.5-.4-1.9.1-.4.5-.1 1.3.6 1.8.1 0 .1.1.2.1.7-.3 1.2-.7 1.8-1.2-.2-.3-.4-.6-.7-.8z"/><radialGradient id="J" cx="-22.348" cy="116.914" r="7.079" gradientTransform="scale(-1 1) rotate(21.125 100.212 -1.578)" gradientUnits="userSpaceOnUse"><stop offset="0" stop-color="#231c11"/><stop offset="1"/></radialGradient><path fill="url(#J)" d="M61 69.2c-.7-.5-1.5-.4-1.9.1-.4.5-.1 1.3.6 1.8.1 0 .1.1.2.1.7-.3 1.2-.7 1.8-1.2-.2-.3-.4-.6-.7-.8z"/><radialGradient id="K" cx="92.366" cy="58.329" r="1.774" gradientUnits="userSpaceOnUse"><stop offset="0" stop-color="#fff"/><stop offset="1" stop-color="#e3e4e3"/></radialGradient><path fill="url(#K)" d="M93.2 57.1c-.2-.1-.3-.2-.5-.3-.8-.3-1.6-.2-2 .4-.5.7-.2 1.7.7 2.4h.1c.9.6 2 .6 2.5-.2.5-.7.1-1.7-.8-2.3z"/><radialGradient id="L" cx="89.357" cy="60.598" r="1.313" gradientUnits="userSpaceOnUse"><stop offset="0" stop-color="#fff"/><stop offset="1" stop-color="#e3e4e3"/></radialGradient><path fill="url(#L)" d="M90.6 60.5c-.1-.3-.3-.6-.6-.8-.7-.5-1.5-.4-1.9.1-.4.5-.1 1.3.6 1.8.1 0 .1.1.2.1.6.3 1.3.3 1.7-.2.2-.3.2-.7 0-1z"/><radialGradient id="M" cx="63.364" cy="67.842" r="1.775" gradientUnits="userSpaceOnUse"><stop offset="0" stop-color="#fff"/><stop offset="1" stop-color="#e3e4e3"/></radialGradient><path fill="url(#M)" d="M64.2 66.6c-.2-.1-.3-.2-.5-.3-.8-.3-1.6-.2-2 .4-.5.7-.2 1.7.7 2.4h.1c.9.6 2 .6 2.5-.2.5-.6.1-1.7-.8-2.3z"/><radialGradient id="N" cx="60.358" cy="70.112" r="1.314" gradientUnits="userSpaceOnUse"><stop offset="0" stop-color="#fff"/><stop offset="1" stop-color="#e3e4e3"/></radialGradient><path fill="url(#N)" d="M61.6 70c-.1-.3-.3-.6-.6-.8-.7-.5-1.5-.4-1.9.1-.4.5-.1 1.3.6 1.8.1 0 .1.1.2.1.6.3 1.3.3 1.7-.2.2-.3.2-.7 0-1z"/><path fill="#D08C4C" d="M79.5 83.4c5.7-2.1 9.9-6.5 12-11.9.3-.1.6-.4.7-.7.2-.6-.1-1.4-.8-1.6-.7-.2-1.4.1-1.6.8-.1.3-.1.7.1 1-1.9 5-5.8 9.1-11 10.9-5.2 1.9-10.7 1.2-15.4-1.4-.1-.3-.3-.6-.6-.8-.6-.4-1.3-.2-1.7.4-.4.6-.2 1.4.4 1.7.3.2.7.2 1 .1 5.2 2.9 11.3 3.6 16.9 1.5z"/></svg>