<svg xmlns:xlink="http://www.w3.org/1999/xlink"  xmlns="http://www.w3.org/2000/svg" viewBox="0 0 150 150"><path fill="none" d="M75.7 38.4l.3-.1-17.1 1.5-11.9 12 .1-.3-9.4 14.3 2.1 16.9-.1-.2L45 98.8l14.4 8.8 14.9 5.9 16.1-5.5-.2.2 14.8-8.6 5.7-16v.3l2.5-17-9-14.4.2.2-11.8-12.5-16.9-1.8zM43.5 71.3c-2.2-.5-3.6-2.6-3.2-4.9.5-2.2 2.6-3.6 4.9-3.2 2.2.5 3.6 2.6 3.2 4.9-.5 2.2-2.6 3.6-4.9 3.2zm9.3 26.2c-1.7 1.4-4.3 1.2-5.8-.5s-1.2-4.3.5-5.8 4.3-1.2 5.8.5c1.5 1.8 1.3 4.4-.5 5.8zm11-48c-2 1-4.5.2-5.5-1.8s-.2-4.5 1.8-5.5 4.5-.2 5.5 1.8c1.1 2.1.3 4.5-1.8 5.5zm10.5 61.2c-2.3 0-4.1-1.8-4.1-4.1s1.8-4.1 4.1-4.1 4.1 1.8 4.1 4.1-1.9 4.1-4.1 4.1zm31.3-46.2c2.2-.5 4.4.8 4.9 3.1.5 2.2-.8 4.4-3 4.9s-4.4-.8-4.9-3.1c-.6-2.2.8-4.4 3-4.9zm-9.2 28.3c1.4-1.8 4-2.1 5.8-.7 1.8 1.4 2.1 4 .7 5.8-1.4 1.8-4 2.1-5.8.7-1.8-1.5-2.1-4-.7-5.8zm-3-44.7c-1 2.1-3.4 2.9-5.5 2-2.1-1-2.9-3.4-2-5.5 1-2.1 3.4-2.9 5.5-2 2.1 1.1 3 3.5 2 5.5z"/><path fill="#006DB6" d="M74.3 102.5c-2.3 0-4.1 1.8-4.1 4.1s1.8 4.1 4.1 4.1 4.1-1.8 4.1-4.1-1.9-4.1-4.1-4.1z"/><path fill="#006DB6" d="M90.1 108.2l.3-.2-16.1 5.4-14.9-5.9.1.1-1-.1 11.7 10.1L63 133h6.5l2.7 9.6 2.3-9.6h.3l3.2 9.9 1.9-9.9h6.3l-7.1-14.7 10.8-9.9h-.2z"/><path fill="#E6673E" d="M97.1 98.6c1.8 1.4 4.4 1.1 5.8-.7 1.4-1.8 1.1-4.4-.7-5.8-1.8-1.4-4.4-1.1-5.8.7-1.4 1.8-1.1 4.3.7 5.8z"/><path fill="#E6673E" d="M110.7 83.9v-.3l-5.7 16-14.9 8.6-.4.2h.2l15.7-3.1 7.7 15.2 4-5.1 9.2 3.8-6.1-7.7.2-.3 9.8 3.7-6.6-7.6 3.9-5-16-3.5-1-14.6-.1.2z"/><path fill="#00A251" d="M107.4 72.5c2.2-.5 3.6-2.7 3-4.9-.5-2.2-2.7-3.6-4.9-3.1s-3.6 2.7-3.1 4.9c.6 2.2 2.8 3.6 5 3.1z"/><path fill="#00A251" d="M134.7 73.4l-1.5-6.3 8.7-4.9-9.8.1-.1-.4 8.9-5.4-10.1.5-1.4-6.2-12.7 10.3-12-8.2v.2l-.3-.4-.3-.2 9.1 14.4-2.5 17-.1.5.1-.2 7.4-14.2z"/><path fill="#39499B" d="M86 44.7c-1 2.1-.1 4.5 2 5.5s4.5.1 5.5-2 .1-4.5-2-5.5-4.5-.1-5.5 2z"/><path fill="#39499B" d="M76 38.3l-.3.1 16.9 1.8 11.8 12.5.3.4v-.2l-6.6-14.7 13-10.9-5.9-2.7 1.6-9.9-6.1 7.8-.3-.2 1.3-10.3-5.9 8.2-5.8-2.7.3 16.3-14 4.4h.2z"/><path fill="#BF7F31" d="M60.2 42.2c-2 1-2.8 3.5-1.8 5.5 1 2 3.5 2.9 5.5 1.8 2-1 2.9-3.5 1.8-5.5-1-2-3.5-2.8-5.5-1.8z"/><path fill="#BF7F31" d="M47.1 51.6l-.1.2 11.9-12.1L76 38.3l.5-.1h-.2l-15.5-4-.5-16.9-5.8 2.9-6.7-7.4 2.3 9.6-.4.2-7.3-7.5 2.8 9.7-5.7 2.9 13 9.9-5.3 13.7.2-.2z"/><path fill="#E56FC0" d="M48.4 68.1c.5-2.2-1-4.4-3.2-4.9s-4.4 1-4.9 3.2 1 4.4 3.2 4.9c2.3.4 4.4-1 4.9-3.2z"/><path fill="#E56FC0" d="M39.6 82.5l.1.2-2-16.8 9.4-14.3.3-.5-.2.2L34.5 61 21.1 50.8 20 57.2l-10.1.7 8.8 4.2-.2.3-10.4 1.1 9.4 3.9-1.4 6.2 15.9-4 7.4 12.6V82z"/><path fill="#925D9E" d="M47.6 91.2c-1.7 1.5-2 4-.5 5.8 1.5 1.7 4 2 5.8.5 1.7-1.5 2-4 .5-5.8-1.5-1.7-4.1-1.9-5.8-.5z"/><path fill="#925D9E" d="M59.4 107.5L45 98.8l-5.4-16.3-.2-.5v.2l-.2 16-16.4 4.4 4.1 5-5.6 8.2 8.8-4.4.2.3-5.5 8.8 8.8-4.9 4.1 4.8 6.6-14.9 14.2 2 1 .1z"/></svg>