<svg xmlns:xlink="http://www.w3.org/1999/xlink"  xmlns="http://www.w3.org/2000/svg" viewBox="0 0 150 150"><path fill="#0076BF" d="M63.6 140c-1-.5-2-1.1-3.1-1.7 1.1.7 2.1 1.2 3.1 1.7zM93.1 141.5c2.4-1.7 3.9-3.9 4.6-6.1-.6 1.4-2 3.9-4.6 6.1zM35.8 26.7c4.2 10.6-3.2 17-10.8 19.6l-.1.1s15.3.7 25.9-6c5.9-2.7 10.1-8.7 10.1-15.7 0-3.8-1.3-7.4-3.4-10.2 1.1 1.8 2.1 4 2.9 6.7 0 0 2.4 13.2-9 18.7 0 0 7.7-32.2-11-31.8 0 0 1.1-.4 2.9-.6-2.3.1-4.6.6-6.6 1.5-.5.6-5 7.6-.9 17.7z"/><path fill="#3A5675" d="M81.7 69.2c2.6-3.8 8.5-7.6 8.5-7.6.8-2.1-15.3-14-15.3-14-23.4-12.9-38.2 1-40.5 3.4l-.3.3c29.3-11 47.6 17.9 47.6 17.9zM25 46.3c7.6-2.6 15.1-9 10.8-19.6-4-10.1.4-17.1.8-17.8v-.1c-9.8 4.2-12.2 14.6-9.7 20.5 2.6 5.9-2.1 17-2.1 17h.2z"/><path fill="#019CDB" d="M72.3 138.9c-33.6-10.2-48.9-58.2-48.9-58.2.3 3.6 1 7 1.9 10.3 6.7 25.2 26.6 41.5 26.6 41.5 3.1 2.3 5.9 4.2 8.6 5.8 1.1.6 2.1 1.2 3.1 1.7 15.6 8.3 24.6 5.5 29.5 1.4 2.6-2.2 4-4.7 4.6-6.1.3-.7.5-1.2.5-1.2l-.2.2c-6.5 7.5-25.7 4.6-25.7 4.6z"/><path fill="#0076BF" d="M120.8 57.7c-22.9-2.4-37.5 12.5-42.4 18.4-.7.7-1.2 1.3-1.6 1.8.8-2 4-9.2 13.4-16.4 0 0-5.9 3.8-8.5 7.6 0 0-18.3-28.9-47.6-17.8l.3-.3c-12.2 10.4-13.5 25.2-9.1 40-.9-3.3-1.5-6.7-1.9-10.3 0 0 15.3 48 48.9 58.2 0 0 19.2 2.9 25.7-4.5.3-1.4.4-2.8.2-4-1.3-7.7-10.6-9.8-14.4-6.4-3.8 3.4-15.7-5.1-24.2-22.9 0 0 9.3 14.9 14 14.9 0 0-1.7-14.4 14.4-25.9 9-6.4 17.8-10.2 24.5-10.3-.5-1.1-.8-2.4-.8-3.7 0-4.7 3.8-8.5 8.5-8.5s8.5 3.8 8.5 8.5c0 4.1-2.9 7.5-6.8 8.3.6 1 1.1 2.1 1.5 3.5 3.4 12.7-15.3 25.1-12.7 28.5 2.5 3.4 17.9-9.1 22.8-22.1 5.6-11.8 10.1-34.2-12.7-36.6zM44 69.7c-3 6-8.6 9.3-12.5 7.4-3.9-1.9-4.7-8.4-1.7-14.4s8.6-9.3 12.5-7.4c3.9 1.9 4.6 8.4 1.7 14.4z"/><path fill="#019CDB" d="M51.3 39.9c11.5-5.5 9-18.7 9-18.7-.8-2.7-1.8-4.9-2.9-6.7-4.3-6.8-10.6-7.4-14.2-7-1.8.1-2.9.5-2.9.5 18.7-.4 11 31.9 11 31.9z"/><ellipse transform="rotate(-63.628 36.862 66.16)" fill="#019CDB" cx="36.9" cy="66.2" rx="12.2" ry="7.9"/></svg>