<svg xmlns:xlink="http://www.w3.org/1999/xlink"  xmlns="http://www.w3.org/2000/svg" viewBox="0 0 150 150"><path fill="#FEC2D7" d="M66.4 55.2c-1.7 0-3.4-.5-4.8-1.3-.2 0-.6.1-.6.2v8.5c0 .2.1.5 0 .7 3.7-2.2 7-4.5 11-6.9v-3.1c-2 1.2-3.5 1.9-5.6 1.9zM75 47.6v6.5c9-5.9 14.9-11.1 14.2-12.6-1.5-2.9-8.2 1.2-14.2 4.8v1.3zM58 62.6v-6.8c-8 4.6-15 10.9-17.7 13.3l-1.1 1.1c-6 7.7 6.3 2.2 20.3-6.1-.9 0-1.5-.7-1.5-1.5zM102.8 94.8l-.3.6c-.1.1-.1.2-.2.4s-.2.4-.3.5c-1.1 1.8-2.7 3.9-4.5 5.8 2.9.8 6.1 1.1 9 .4 2.7-.6 6.7-2.3 7.8-7.3-3.4.1-7.2-.3-11.1-1.2-.1.1-.1.3-.2.5-.1.1-.1.2-.2.3z"/><path fill="#FEC2D7" d="M75.3 8.7C38.5 8.7 8.6 38.6 8.6 75.4c0 36.8 29.9 66.7 66.7 66.7 36.8 0 66.7-29.9 66.7-66.7 0-36.8-29.9-66.7-66.7-66.7zm-20.1 8.4c1.9-1.6 6.3-.3 3 1.9-3.3 2.3-3-1.9-3-1.9zm-37 46c-2.2.7-1.7-1-1.7-1 4.9-28.5 33.6-42.5 33.6-42.5 3.8-.2 1.5 2.4 1.5 2.4-30.4 17.4-31.2 40.5-33.4 41.1zm100.5 31.6c-.9 6.2-4.9 10.5-11.3 11.9-4.1.9-9.1.4-13.2-1.2-.2.2-.5.4-.7.6l-.1.1c-.6.5-1.2 1.2-1.7 1.7v.2c-1 0-2 1.3-2.9 1.8-5.3 3.1-15 3.9-12.8.3 2.2-3.5-16.8-15.1-26.5-16.4-9.7-1.3-15 1.7-10.2 1.7 4.9 0 46 13.3 25.6 14.6-20.3 1.3-30.5-12.4-30.5-12.4-3.5-4-11.5-19.5-11.1-23.4.4-3.2 23.4-19.4 34.1-26-.2-.6-.4-1.2-.4-1.9v-6.8c0-4.9 4.2-8.8 9.2-8.8 4.6 0 8.4 3.3 9 7.5 6-2.9 13.4-5.7 15.6-5.5 3.4.4 10.8 10.7 14.2 16.6 2-1.2 4.3-2 6.8-2 7 0 12.7 5.7 12.7 12.7 0 5.4-3.4 10-8.1 11.8 8.9 4.2 14.4 10.4 13 15.8-.9 3.7-5 6.2-10.7 7.1z"/><path fill="#FFF" d="M93.3 106.1c-.6.5-1.2 1-1.7 1.5.6-.5 1.1-1 1.7-1.5zM101.7 96.6c-.5-.1-1.1-.2-1.6-.4-4.3-1.1-8.1-2.7-11.4-4.6 0 1.3.2 2.7.7 4.2.8 2.7 4.1 5 8 6.1 1.8-2 3.4-4 4.5-5.8 0 .2-.1.4-.2.5zM93.4 106c.2-.2.5-.4.7-.6-.2.2-.5.4-.7.6z"/><path fill="#FFF" d="M83.7 99.7c-1.5-4.7-1-8.6.2-11.4-4-3.4-6-7.3-5.1-10.8.3-1.2 1-2.3 1.9-3.3 1.8-4.7 8.9-7.3 17.8-6.9-.6-1.5-1-3.1-1-4.8 0-3.1 1.2-6 3.1-8.2 1-2.1 2.6-3.8 4.5-5-3.4-5.9-10.8-16.2-14.2-16.6-2.3-.3-9.9 2.6-15.8 5.5.1.4-.1.9-.1 1.3v6.8c6-3.6 12.8-7.7 14.2-4.8.7 1.4-5.2 6.7-14.2 12.6v23c0 .1.2.3.2.7 0 1.7-.4 5.5-4.7 7.7-.8.4-1.8.1-2.3-.7-.4-.8-.1-1.9.7-2.3 3.3-1.7 3-4.7 3-5.1v-21c-4 2.3-7.3 4.7-10.9 6.9-.2.6-.8 1-1.5 1h-.1c-14 8.3-26.3 13.8-20.3 6.1l1.1-1.1C43 66.7 50 60.4 58 55.8v-6c0-.5-.4-1-.5-1.5-10.7 6.6-33.8 22.8-34.2 26-.4 4 7.5 19.5 11 23.4 0 0 10.2 13.7 30.5 12.4 20.3-1.3-20.8-14.6-25.6-14.6-4.9 0 .4-3.1 10.2-1.8 9.7 1.3 28.7 12.8 26.5 16.4-2.2 3.5 7.5 2.7 12.8-.4.9-.5 1.9-1.2 2.9-2-3.8-1.8-6.8-4.5-7.9-8zM102.3 95.7c.1-.1.1-.2.2-.4-.1.1-.1.2-.2.4zM102.8 94.8c.1-.1.1-.2.2-.3-.1.1-.1.2-.2.3z"/><path fill="#FFF" d="M61.6 53.9c-.1-.1-.3-.2-.4-.3v.5c.1-.1.3-.2.4-.2z"/><path fill="#7D7E81" d="M72 53.3v24c0 .3.3 3.4-3 5.1-.8.4-1.2 1.5-.7 2.3.4.8 1.5 1.2 2.3.7 4.3-2.2 4.6-6.1 4.6-7.7 0-.3-.2-.5-.2-.7V54v-6.5c0 2.4-1 4.4-3 5.8zM61 54.1v-.5c-1-.9-2-2.3-3-3.8v12.8c0 .8.6 1.5 1.5 1.6h.1c.7 0 1.1-.4 1.4-1v-9.1z"/><path fill="#D49394" d="M61.2 53.6c.1.1.3.2.4.3 1.4.8 3 1.3 4.7 1.3 2.1 0 4.1-.7 5.6-1.9 1.8-1.4 2.9-3.4 3.2-5.7.1-.4-.1-.8-.1-1.3v-6.8c0-.5.2-.9.1-1.3-.7-4.2-4.4-7.5-9-7.5-5 0-9.1 4-9.1 8.8v6.8c0 .7.2 1.3.3 1.9.1.5.3 1 .6 1.5.7 1.6 1.9 3 3.3 3.9zm11.7-5c-.5 0-.8-.4-.8-1s.4-1 .8-1c.5 0 .8.4.8 1 .1.5-.3 1-.8 1zm-4.5-15.7c.4-1.2 3.5 1.1 4.5 3.9v7.8s-.6 1.3-1.1.6c-.5-.6.1-3.6.1-3.8v-1.8s.3-1.8-1.3-3.5c-1.6-1.6-2.6-2-2.2-3.2z"/><path fill="#FFFFFE" d="M70.7 36.1c1.6 1.6 1.3 3.5 1.3 3.5v1.8c0 .2-.6 3.2-.1 3.8.5.6 1.1-.6 1.1-.6v-6-1.8c-1-2.8-4.3-5.1-4.7-3.9-.5 1.2.7 1.6 2.4 3.2z"/><ellipse fill="#FFFFFE" cx="72.9" cy="47.6" rx=".8" ry="1"/><path fill="#FEC2D7" d="M93.4 106c0 .1-.1.1 0 0-.1.1 0 .1 0 0z"/><path opacity=".12" d="M93.4 106c0 .1-.1.1 0 0-.1.1 0 .1 0 0z"/><path fill="#FEC2D7" d="M91.6 107.6z"/><path opacity=".12" d="M91.6 107.6z"/><path fill="#FEC2D7" d="M102.5 95.3l.3-.6-.3.6z"/><path opacity=".12" d="M102.5 95.3l.3-.6-.3.6z"/><path fill="#FEC2D7" d="M103.2 94c-.1.1-.1.3-.2.5 0-.2.1-.3.2-.5z"/><path opacity=".12" d="M103.2 94c-.1.1-.1.3-.2.5 0-.2.1-.3.2-.5z"/><path fill="#FEC2D7" d="M102 96.2c.1-.2.2-.4.3-.5-.1.1-.2.3-.3.5z"/><path opacity=".12" d="M102 96.2c.1-.2.2-.4.3-.5-.1.1-.2.3-.3.5z"/><path fill="#FFF" d="M100.6 54.2c-1.9 2.2-3.1 5.1-3.1 8.2 0 1.7.4 3.3 1 4.8 1.1 0 2.2.1 3.3.3-1.6-2.1-2.6-4.8-2.6-7.7 0-1.9.5-3.8 1.4-5.6z"/><path opacity=".12" d="M100.6 54.2c-1.9 2.2-3.1 5.1-3.1 8.2 0 1.7.4 3.3 1 4.8 1.1 0 2.2.1 3.3.3-1.6-2.1-2.6-4.8-2.6-7.7 0-1.9.5-3.8 1.4-5.6z"/><path fill="#FFF" d="M88.7 91.7c3.2 1.9 7.1 3.5 11.4 4.6.5.1 1.1.3 1.6.4.1-.1.2-.3.3-.4.1-.2.2-.4.3-.5.1-.1.1-.2.2-.4l.3-.6c.1-.1.1-.2.2-.3.1-.2.1-.3.2-.5-.4-.1-.9-.2-1.3-.3-4.8-1.2-9.1-3.1-12.6-5.3-.4.9-.6 2-.6 3.3z"/><path opacity=".12" d="M88.7 91.7c3.2 1.9 7.1 3.5 11.4 4.6.5.1 1.1.3 1.6.4.1-.1.2-.3.3-.4.1-.2.2-.4.3-.5.1-.1.1-.2.2-.4l.3-.6c.1-.1.1-.2.2-.3.1-.2.1-.3.2-.5-.4-.1-.9-.2-1.3-.3-4.8-1.2-9.1-3.1-12.6-5.3-.4.9-.6 2-.6 3.3z"/><path fill="#FFF" d="M85.4 97.2c-1.5-4.7-1-8.6.2-11.4-4-3.4-6-7.3-5.1-10.8.1-.2.1-.5.2-.7-.9 1-1.6 2-1.9 3.3-.9 3.5 1.1 7.4 5.1 10.8-1.2 2.9-1.7 6.7-.2 11.4 1.1 3.5 4.1 6.2 7.9 7.9.6-.5 1.1-.9 1.7-1.5l.1-.1c.2-.2.5-.4.7-.7-4.2-1.7-7.6-4.5-8.7-8.2z"/><path opacity=".12" d="M85.4 97.2c-1.5-4.7-1-8.6.2-11.4-4-3.4-6-7.3-5.1-10.8.1-.2.1-.5.2-.7-.9 1-1.6 2-1.9 3.3-.9 3.5 1.1 7.4 5.1 10.8-1.2 2.9-1.7 6.7-.2 11.4 1.1 3.5 4.1 6.2 7.9 7.9.6-.5 1.1-.9 1.7-1.5l.1-.1c.2-.2.5-.4.7-.7-4.2-1.7-7.6-4.5-8.7-8.2z"/><path fill="#B6DFF2" d="M106.4 102.5c-2.9.6-6.2.4-9-.4-3.9-1.1-7.1-3.4-8-6.1-.5-1.6-.7-3-.7-4.2 0-1.3.2-2.4.4-3.3-1.3-.8-2.5-1.7-3.6-2.6-1.2 2.9-1.7 6.7-.2 11.4 1.2 3.8 4.6 6.6 8.7 8.2 4.2 1.6 9.1 2.1 13.2 1.2 6.4-1.4 10.4-5.7 11.3-11.9-1.4.2-2.9.4-4.4.4-1 4.9-5 6.7-7.7 7.3z"/><path fill="#7ECBEB" d="M116.5 71.7c-.3.1-.6.2-1 .3h.1c-6.2 3.4 0 9.9-5.2 10.2-5.2.3-12.1-3.3-12.2-4.9-.1-1.6 2.9-3 4-5.6 1.1-2.6-.1-3.7-.1-3.7l.2.1c-.1-.1-.2-.3-.3-.4l-3.3-.3c-8.9-.4-16 2.2-17.8 6.9-.1.2-.2.5-.2.7-.9 3.5 1.1 7.4 5.1 10.8 1.1.9 2.3 1.8 3.6 2.6 3.5 2.2 7.8 4.1 12.6 5.3.4.1.9.3 1.3.3 3.9 1 7.7 1.3 11.1 1.2 1.5 0 3-.2 4.4-.4 5.7-1 9.9-3.5 10.8-7.2 1.3-5.4-4.2-11.7-13.1-15.9zM90.9 87.6c-10.4-5.4-9.2-12-8.4-11.8.8.1 1.1 2.1 1.1 2.1 2.1 5.8 7 8 7.8 8.9.8 1-.5.8-.5.8zm33.1 3.3c-2.1 1.4-7.4 2.1-7.4 2.1-2.3 0-.7-1.1-.7-1.1 7-.5 8.1-2.7 8.1-2.7s2 .3 0 1.7z"/><path fill="#C9E7F5" d="M100.6 54.2c-.9 1.7-1.4 3.6-1.4 5.7 0 2.9 1 5.5 2.6 7.7.1.1.2.3.3.4h-.1s1.2 1.1.1 3.7c-1.1 2.6-4.1 4-4 5.6.1 1.7 7 5.2 12.2 4.9 5.2-.3-1-6.7 5.2-10.2h-.1c.3-.1.7-.2 1-.3 4.7-1.8 8.1-6.4 8.1-11.8 0-7-5.7-12.7-12.7-12.7-2.5 0-4.8.7-6.8 2-1.8 1.3-3.4 3-4.4 5zm20.6 9.4c0-.7 1.5-2.6 1.8.1.3 2.7-6.2 6.2-8.7 7.1-2.5 1-2.7 2.9-2.7 2.9-1.7.5.3-3.3 4-4.8s5.6-4.6 5.6-5.3zM109.7 49c4.1.4 5.2 3.4 1.6 6.9-3.6 3.4-9.2 0-7.6-3.3 1.7-3.3 6-3.6 6-3.6zM83.6 77.9s-.3-1.9-1.1-2.1c-.8-.1-2.1 6.5 8.4 11.8 0 0 1.4.1.5-.8-.8-1-5.8-3.2-7.8-8.9z"/><path fill="#FFF" d="M103.8 52.6c-1.7 3.3 4 6.7 7.6 3.3 3.6-3.4 2.5-6.5-1.6-6.9-.1 0-4.4.3-6 3.6zM111.6 73.7s.3-1.9 2.7-2.9c2.5-1 8.9-4.4 8.7-7.1-.3-2.7-1.8-.8-1.8-.1s-1.9 3.9-5.6 5.4c-3.7 1.4-5.6 5.3-4 4.7zM124 89.1s-1.1 2.2-8.1 2.7c0 0-1.6 1.1.7 1.1 0 0 5.4-.7 7.4-2.1 2-1.3 0-1.7 0-1.7zM58.2 19.1c3.3-2.2-1.1-3.6-3-1.9 0-.1-.3 4.1 3 1.9zM51.6 22s2.3-2.6-1.5-2.4c0 0-28.6 14-33.6 42.5 0 0-.5 1.7 1.7 1 2.2-.6 3-23.7 33.4-41.1z"/></svg>