<svg xmlns:xlink="http://www.w3.org/1999/xlink"  version="1" xmlns="http://www.w3.org/2000/svg" viewBox="0 0 150 150"><path fill="#D85A50" d="M19.3 80.8c8.3-8.3 26.8-9.6 26.8-9.6S44.7 89.7 36.4 98c-8.3 8.3-17.6 9.9-22.4 5.2-4.7-4.8-3-14.1 5.3-22.4z"/><path fill="#F68B40" d="M25.9 50.6c11.6 3.9 21.5 20.7 21.5 20.7s-18 7.4-29.6 3.4C6.1 70.8.2 62.8 2.4 56.1c2.3-6.7 11.9-9.5 23.5-5.5z"/><path fill="#D85A50" d="M133.6 72.7c-10.9 4.2-28.3-2-28.3-2s8.7-16.4 19.6-20.6c10.9-4.2 20.1-2 22.6 4.3 2.3 6.2-3 14.1-13.9 18.3z"/><path fill="#F68B40" d="M115.3 97.7c-9.1-8.3-11.3-27.6-11.3-27.6s19.5.5 28.5 8.8 11.2 18 6.5 23.2c-4.7 5.2-14.6 3.9-23.7-4.4z"/><path fill-rule="evenodd" clip-rule="evenodd" fill="#FEDEC0" d="M68.7 86.5c-5.7 7.2-2.5 35.4-7 42.6-4.5 7.2-13.6-7.4-16.6-21.3-3-13.8-1.6-19.7.7-32.2-4.9-11.8-9.5-17.6-11.2-29.3-1.6-10.6 1.5-26.3 11-28.8 12.8-3.3 31.7 9.5 43.9 15.3-.9-2.9-4.5-6.4-9.1-9.7 5.5-3.3 14.1-8.1 24.2-5.5 9.5 2.5 12.6 18.2 11 28.8-1.8 11.7-6.3 17.4-11.2 29.2 2.3 12.6 3.7 18.4.7 32.2S93 136.3 88.5 129.1c-4.5-7.2-1.3-35.4-7-42.6-1.6-2-3.5-3.6-6.5-3.6-2.9.1-4.8 1.6-6.3 3.6z"/><path fill-rule="evenodd" clip-rule="evenodd" fill="#FEDEC0" d="M68.4 32.6C47 18.4 40.5 38.5 46.9 52.4c1-8 2.1-22.8 21.5-19.8z"/><path fill="#FFF" d="M68.4 37.6c-2 .3-3.5 2.1-3.2 4.2.3 2.1 2.1 3.5 4.2 3.2 2-.3 3.5-2.1 3.2-4.2-.3-2-2.1-3.5-4.2-3.2z"/><path d="M68.6 39.3c-1.4.2-2.4 1.5-2.2 2.9.2 1.4 1.5 2.4 2.9 2.2 1.4-.2 2.4-1.5 2.3-2.9-.3-1.4-1.6-2.4-3-2.2z"/><path fill="#FFF" d="M67.9 40.4c-.4 0-.7.4-.6.8 0 .4.4.7.8.6.4-.1.7-.4.6-.8 0-.4-.4-.6-.8-.6z"/><g><path fill="#FFF" d="M82.9 37.6c-2.1.3-3.5 2.1-3.2 4.2.3 2.1 2.1 3.5 4.2 3.2 2-.3 3.5-2.1 3.2-4.2-.2-2-2.1-3.5-4.2-3.2z"/><path d="M83.1 39.3c-1.4.2-2.4 1.5-2.3 2.9.2 1.4 1.5 2.4 2.9 2.2 1.4-.2 2.4-1.5 2.2-2.9-.1-1.4-1.4-2.4-2.8-2.2z"/><path fill="#FFF" d="M82.4 40.4c-.4 0-.7.4-.6.8.1.4.4.7.8.6.4-.1.7-.4.6-.8 0-.4-.4-.6-.8-.6z"/></g><path fill="#FCBD85" d="M76.1 47.5c-6.9-.1-10.6 3.2-10 7.2.7 4.4 5.9 7.2 10 7.2 4.1.1 9.3-2.8 10-7.2.6-4-3.1-7.4-10-7.2z"/><g><path fill="#F38972" d="M58.4 57.4c0 2.9-2.3 5.2-5.2 5.2-2.9 0-5.2-2.3-5.2-5.2 0-2.9 2.3-5.2 5.2-5.2 2.9 0 5.2 2.3 5.2 5.2zM104.2 55.9c0 2.9-2.3 5.2-5.2 5.2-2.9 0-5.2-2.3-5.2-5.2 0-2.9 2.3-5.2 5.2-5.2 2.9 0 5.2 2.3 5.2 5.2z"/><path fill="#8B5E49" d="M98.3 55.6c-4.4 13.6-15.2 18.1-23.8 17.7-10.1-.5-18.3-7-20.5-16.4-.1-.4-.6-.7-1-.6-.4.1-.7.5-.6 1 2.3 10.1 11.1 17.2 22 17.7 9.2.4 20.7-4.3 25.4-18.8.1-.4-.1-.9-.5-1-.4-.2-.9 0-1 .4z"/></g></svg>