<svg xmlns:xlink="http://www.w3.org/1999/xlink"  xmlns="http://www.w3.org/2000/svg" width="100" height="100" viewBox="0 0 100 100"><radialGradient id="a" cx="41.417" cy="15.44" r="9.932" gradientTransform="translate(-6.884 5.335)" gradientUnits="userSpaceOnUse"><stop offset="0" stop-color="#f9ec31"/><stop offset=".167" stop-color="#f8e931"/><stop offset=".308" stop-color="#f5de31"/><stop offset=".441" stop-color="#f0cd30"/><stop offset=".568" stop-color="#e9b430"/><stop offset=".691" stop-color="#e0942f"/><stop offset=".811" stop-color="#d56d2f"/><stop offset=".927" stop-color="#c73f2e"/><stop offset="1" stop-color="#be1e2d"/></radialGradient><path fill="url(#a)" d="M44.571 20.419c.037 5.485-4.379 9.964-9.865 10.002-5.482.037-9.96-4.382-9.998-9.865-.04-5.485 4.379-9.964 9.862-10.001 5.489-.037 9.967 4.379 10.001 9.864z"/><radialGradient id="b" cx="74.731" cy="21.446" r="8.476" gradientTransform="translate(-6.884 5.335)" gradientUnits="userSpaceOnUse"><stop offset="0" stop-color="#f9ec31"/><stop offset=".167" stop-color="#f8e931"/><stop offset=".308" stop-color="#f5de31"/><stop offset=".441" stop-color="#f0cd30"/><stop offset=".568" stop-color="#e9b430"/><stop offset=".691" stop-color="#e0942f"/><stop offset=".811" stop-color="#d56d2f"/><stop offset=".927" stop-color="#c73f2e"/><stop offset="1" stop-color="#be1e2d"/></radialGradient><path fill="url(#b)" d="M76.471 26.207a8.473 8.473 0 0 1-8.416 8.534 8.475 8.475 0 1 1-.118-16.951c4.68-.031 8.503 3.736 8.534 8.417z"/><radialGradient id="c" cx="55.73" cy="51.904" r="36.885" gradientTransform="translate(-6.884 5.335)" gradientUnits="userSpaceOnUse"><stop offset="0" stop-color="#f9ec31"/><stop offset=".167" stop-color="#f8e931"/><stop offset=".308" stop-color="#f5de31"/><stop offset=".441" stop-color="#f0cd30"/><stop offset=".568" stop-color="#e9b430"/><stop offset=".691" stop-color="#e0942f"/><stop offset=".811" stop-color="#d56d2f"/><stop offset=".927" stop-color="#c73f2e"/><stop offset="1" stop-color="#be1e2d"/></radialGradient><path fill="url(#c)" d="M82.433 28.892a41.064 41.064 0 0 0-2.828-3.779c.564 5.09 1 13.569-1.657 18.159 0 0-.189.494-1.044.576-1.134.112-3.459-.501-8.071-3.984.246.422 13.893 23.713-5.905 37.9.094 0 11.627-.108 16.733-16.823-1.89 15.043-14.669 26.729-30.237 26.837-16.954.115-30.785-13.529-30.906-30.483-.002-.289.003-.577.007-.867.078.242.115.369.115.369 7.406 18.07 16.618 21.066 16.911 21.15-17.61-16.777-1.464-39.924-1.135-40.397-8.833 4.923-8.963 4.165-8.963 4.165a21.242 21.242 0 0 1-1.38-2.234c-3.015-5.604-3.658-12.423-3.767-16.14a39.634 39.634 0 0 0-3.462 4.183 39.598 39.598 0 0 0-7.487 23.508c.152 21.986 18.098 39.682 40.081 39.533 21.984-.149 39.681-18.091 39.532-40.08a39.68 39.68 0 0 0-6.537-21.593z"/><radialGradient id="d" cx="55.874" cy="60.216" r="18.572" gradientTransform="translate(-6.884 5.335)" gradientUnits="userSpaceOnUse"><stop offset="0" stop-color="#f9ec31"/><stop offset=".283" stop-color="#f9e932"/><stop offset=".524" stop-color="#f9de34"/><stop offset=".749" stop-color="#facd39"/><stop offset=".963" stop-color="#fab43f"/><stop offset="1" stop-color="#faaf40"/></radialGradient><path fill="url(#d)" d="M62.927 77.764S78.373 60.73 58.181 47.16l-9.016 4.144-8.541-4.022S20.755 57.8 35.912 77.951c0 0-6.259-14.271 4.314-21.814 0 0 3.581 5.83 1.324 24.323 0 0 8.665 6.023 15.859-.106 0 0-3.611-19.449.445-24.876.001-.001 10.965 6.072 5.073 22.286z"/><radialGradient id="e" cx="55.961" cy="34.687" r="6.505" gradientTransform="translate(-6.884 5.335)" gradientUnits="userSpaceOnUse"><stop offset="0" stop-color="#f9ec31"/><stop offset=".283" stop-color="#f9e932"/><stop offset=".524" stop-color="#f9de34"/><stop offset=".749" stop-color="#facd39"/><stop offset=".963" stop-color="#fab43f"/><stop offset="1" stop-color="#faaf40"/></radialGradient><path fill="url(#e)" d="M55.822 39.589a6.508 6.508 0 0 1-6.464 6.551 6.5 6.5 0 0 1-6.548-6.458 6.5 6.5 0 0 1 6.458-6.552 6.507 6.507 0 0 1 6.554 6.459z"/></svg>