<svg xmlns:xlink="http://www.w3.org/1999/xlink"  xmlns="http://www.w3.org/2000/svg" viewBox="0 0 150 150"><path fill="#A29577" d="M122.4 10.8l-6.9 12.8c-4.6 1-17.7 3.2-27.2-1.3.2 3.4 1.3 8.6 5.3 11.9 5 4.1 13.3 4.5 24.5 1 1.3-2.7 2.3-5.8 3.1-9.5 5.2-3.4 10.8-7.3 12.5-9.9 3.5-5-11.3-5-11.3-5zM92.5 35.4c-5-4.1-5.9-10.5-6-14.1-1.2-.7-2.4-1.6-3.4-2.6-15.7-15.1-19.2-5.1-22.7 1.5 0 0 7.4-2.4 12.2 11.7 0 0 3.3 9.2 10.8 14.8 3.5 2.6 8 4.4 13.4 4.1 1.4-.1 3-.3 4.6-.7 0 0 9.5-2.1 15.6-12.9-11 3.1-19.2 2.5-24.5-1.8zM71.3 18.6c-.7 0-1.3-.5-1.3-1.2s.6-1.2 1.3-1.2c.7 0 1.3.5 1.3 1.2s-.6 1.2-1.3 1.2z"/><path fill="#718F40" d="M79.3 119.7c.4.4.8.8 1.1 1.2l.3.3c12.1 11.5 24.9-.9 24.9-.9-10-14.4-26.3-.6-26.3-.6z"/><path fill="#B2C195" d="M76.5 121.7h-.1v.1C70.3 139.4 88.6 145 88.6 145c7.4-15.1-10.6-22.7-12.1-23.3z"/><path fill="#956843" d="M44.3 89.8c.8 0 1.5-.7 1.5-1.5s-.7-1.5-1.5-1.5-1.5.7-1.5 1.5.6 1.5 1.5 1.5zm-28.1 1s5.1 16 22.9 25.2l-6.4 5.1 5.5.9s2.1-2.5 4.9-4.2c1.7.7 3.5 1.3 5.5 1.9l-3.1 2.5 2.7.5s1.3-1.5 2.8-2.3c7 1.7 15.4 2.4 25.3 1.3v-.1h.1c1.4-.1 2.8-.3 4.3-.5l-.3-.3c-10 .1-48.3-1.8-64.2-30zm44.9 19.7c-10.8-1.1-18.2-3.9-18.2-3.9l5 5.8c25 6.9 42.3 1 52.7-5.6l8.5 5.1-5.6-7.1c6.3-4.6 9.3-9 9.3-9-13.6 11.7-29.2 15-42.2 15.2-3.3 0-6.5-.1-9.5-.5zm4.8-16.6c-.1-.8-.8-1.5-1.6-1.4-.8.1-1.5.8-1.4 1.6.1.8.8 1.5 1.6 1.4.8-.1 1.4-.8 1.4-1.6zm56.9-34.6l-3.6-.9-3.5 7c-3.6-5.9-10.2-11-18.8-14.6-5.5.3-9.9-1.5-13.4-4.1-5.4-1.1-11.2-1.7-17.3-1.7-10.7 0-20.7 1.9-29 5.1l-4.8-3 .5 2.7s1.1.4 2.2 1.2c-2.8 1.2-5.5 2.6-7.8 4.2l-2.2-1.3.5 2.5c-7.4 5.3-11.8 12.1-11.8 19.5 0 9.7 7.6 18.3 19.5 24 1-.4 3.6-1.8 3.9-5.5-.6-1.2-1-2.5-1-4 0-4.8 4.1-8.7 9.2-8.7.7 0 1.5.1 2.1.2l2.3-5.4 1.4 5.6h7.5l-4.8 5.2c.4 1 .6 2 .6 3.1 0 1.7-.5 3.3-1.4 4.7-.1 2.8-.7 7.8-3 10.2 1.5.3 3 .5 4.6.7 1.1-.7 3-2.3 3-5.5-.7-1.1-1.2-2.5-1.3-3.9-.3-4.8 3.5-8.9 8.6-9.3.7 0 1.5 0 2.2.1l2-5.6 1.8 5.5 7.5-.5-4.5 5.5c.4.9.7 1.9.8 3 .1 1.7-.3 3.3-1.1 4.8 0 1.7 0 4.1-.5 6.3 15.9-1.2 29.6-6.6 37.7-14.2 2.6-7.9 4.5-30.2-52-36.3 0 0 64.4.8 56.2 31.6 2.5-3.6 3.8-7.5 3.8-11.6 0-2.6-.5-5.1-1.5-7.4l5.4-9.2z"/></svg>