<svg xmlns:xlink="http://www.w3.org/1999/xlink"  xmlns="http://www.w3.org/2000/svg" viewBox="0 0 150 150"><path fill="#97A822" d="M97 131.7c-3-5.1-5.2-9.5-7-13.3-2.8 1.8-4.9 4.2-6.2 6.2.8 5.2 2.4 9.8 2.4 9.8s-27.4 1.2-30.3 1.8c-1.4.3-3.6.5-5.4.7 6.9 3.4 14.7 5.3 22.9 5.3 9.5 0 18.4-2.6 26.1-7.1-.9-1-1.7-2.1-2.5-3.4zM88.7 66.3s12.5 7.1 14.3 28.5c.8 9.7-1.4 25 6.5 32.9 10.2-9.8 16.7-23.6 16.7-39 0-29.5-23.5-53.5-52.6-53.5-2.1 0-4.2.1-6.2.4.5 1.8 1.1 3.6 1.8 5.1 7 14.3 19.5 25.6 19.5 25.6z"/><path fill="#97A822" d="M51.2 132.3l24.4-2.4s-.5-.4-1.9-2.3c-8.3.1-20 .4-21.9.8-3 .6-8.9.9-8.9.9-1.2-7.1 4.2-4.8 4.2-4.8l22.9-2.2c-.2-.4-.5-.7-.7-1.1-1.9-.2-3.8-.6-5.5-1.4-16.7-7.6-7.4-26-4.9-45.5-7.8 2.4-15.9 7.1-15.9 7.1L39.3 86h0-1.8c-3.6 0-2.4-4.1-2.4-4.1 0-6.2 15.2-12.5 23.9-15.7-8 .1-20.6 7.6-20.6 7.6L35.3 78h0-1.6c-3.2 0-2.1-3.7-2.1-3.7 0-7.7 26.5-15.8 26.5-15.8s.2-.6.5-1.4c-2.1-11.6-6.1-15.3-6.1-15.3-1.4 0-2.7-.1-3.9-.3C32.2 50.5 21 68.2 21 88.6c0 19.7 10.4 36.8 26 46.1.1-4.3 4.2-2.4 4.2-2.4z"/><path fill="none" d="M35 78h1"/><path fill="#AA6D4B" d="M136.8 132.3l-12.5.6c-7.1 0-11.8-2-15-5.2-7.8-7.9-5.6-23.2-6.5-32.9-1.8-21.4-14.3-28.5-14.3-28.5S76.2 55 69 40.7c-.7-1.5-1.3-3.3-1.8-5.1-.9-3.4-1.3-7.1-1.5-9.7 7.5-.8 7.5-16.7 7.5-16.7-8.1 5-10.2 9.7-10.7 12.5-.3 0-.7-.1-1-.1.3-7.3-6.7-13-6.7-13s-.6 4.2-1.2 8.9c-.4 3.4 1.3 5 2.3 5.6-.4.3-.8.4-1.1.7L39.9 29h-6.5s-.5 10.4 15.2 12.4c1.2.1 2.5.3 3.9.4 0 0 4 3.8 6.1 15.4-.4.8-.6 1.4-.6 1.4s-26.5 8-26.5 15.7c0 0-1.1 3.7 2.1 3.7h1.6l3.2-4.1S51 66.4 59 66.3c-8.7 3.2-23.9 9.4-23.9 15.6 0 0-1.2 4.1 2.4 4.1h1.8l3.6-4.6s8.1-4.8 15.9-7.2c-2.5 19.5-11.8 37.9 4.9 45.6 1.8.8 3.6 1.3 5.5 1.5.2.4.5.8.7 1.1L47 124.5s-5.4-2.4-4.2 4.8c0 0 5.9-.3 8.9-.9 1.9-.4 13.6-.6 21.9-.8 1.4 1.9 1.9 2.3 1.9 2.3l-24.4 2.4s-4.1-1.8-4.3 2.5c0 .6 0 1.4.2 2.2 0 0 1.6-.1 3.5-.2 1.8-.1 4-.4 5.4-.7 3-.6 30.3-1.8 30.3-1.8s-1.7-4.7-2.4-9.8c1.3-1.9 3.4-4.4 6.2-6.2 1.7 3.8 4 8.2 7 13.3.8 1.3 1.6 2.4 2.6 3.4 12.1 12.6 37.2-2.7 37.2-2.7zM57.7 29.4c0 .5-.3.8-.7.8-.4 0-.7-.4-.7-.8 0-.5.3-.8.7-.8.4-.1.7.3.7.8zm13.5-14.7l-4.4 7.1-1.4.4c.1 0 2.2-9.9 5.8-7.5zm3.6 62.7l-2.3 3.4s2.3-7 2.3-3.4zm-5.5 4.5c.2 0 .3.2.3.4s-.1.4-.3.4-.3-.2-.3-.4.1-.4.3-.4zm8 7.5l-3.5-4.3c-.4-1.5-.6-3.2-.7-4.3 3.1-.3 3.2-6.5 3.3-7.1 2.8 4.2 4.7 8.8 5.8 13.4-1.8.8-3.4 1.6-4.9 2.3zM53 41.9l5.4-1.2s4.4 8.9 9.2 17.8c-1.8 2.4-2.7 5.9-2.7 5.9s-1.8.6-4.6 1.6c-.4-9.6-2.7-18.6-7.3-24.1zM66.1 73c2.1 0 4.8-2.2 7-4.6 1.1 1.9 2.2 3.7 3.1 5 0 .1.1.1.1.2-3.5 2.2-4.4 4.2-4.6 5.4h-.5c.1-3.2-2.9-5.6-2.9-5.6s-.3 1.8-.5 3.9c-.2 1.5.6 2.2 1 2.4-.2.1-.3.1-.5.2L61.9 82h-2.7c.5-2 .8-5.4 1-8.3 2.1-.5 4.1-.7 5.9-.7zm-7 9.8c.2 1.3 1.3 4.7 8.2 4.9 0 0 .4.4.9 1.3-2 1.6-2.9 3.1-3.4 4-4.2.4-6.6-.3-7.8-.9.2-1 .5-2.1.8-3.2.5-2 .9-4 1.3-6.1zm7.6 9.9c-.5.1-1 .2-1.5.2.4-.1 1-.2 1.5-.2zm-10.3 1.5c5.4 3.2 20.7-3.5 26-6 .5 2 .8 4 1 6-9 .3-28.9 2.7-19.1 19 1.3 2.2 2.5 4 3.5 5.7-9.9-3.6-15-8-11.4-24.7z"/><path fill="#FFDCAC" d="M64.7 93c.5-1 1.5-2.4 3.4-4-.5-.9-.9-1.3-.9-1.3-6.9-.2-8-3.6-8.2-4.9-.4 2.1-.8 4.1-1.4 6-.2 1.2-.4 2.2-.7 3.2 1.2.7 3.7 1.4 7.8 1z"/><path fill="#FFDCAC" d="M83.4 94.2c-.2-2-.5-4-1-6-5.3 2.5-20.7 9.2-26 6-3.6 16.7 1.5 21.2 11.3 24.8-1-1.6-2.2-3.5-3.5-5.7-9.7-16.4 10.2-18.8 19.2-19.1zM61.9 82l6.4-2.2c.2-.2.3-.2.5-.3-.4-.3-1.2-.9-1-2.4.3-2.1.5-3.8.5-3.8s3 2.5 2.9 5.6h.5c.2-1.2 1.1-3.2 4.6-5.4 0-.1-.1-.1-.1-.2-.9-1.4-2-3.1-3.1-5-2.2 2.4-4.9 4.6-7 4.6-1.8 0-3.8.2-5.9.8-.2 2.8-.5 6.3-1 8.3h2.7zM64.9 64.3s.9-3.4 2.7-5.9c-4.8-8.9-9.2-17.8-9.2-17.8L53 41.9c4.6 5.6 6.9 14.5 7.3 24 2.7-1 4.6-1.6 4.6-1.6z"/><path fill="#FFDCAC" d="M65.2 92.9c.5-.1 1-.1 1.5-.2-.5 0-1.1.1-1.5.2zM76.3 73.6c0 .7-.2 6.8-3.3 7.1.1 1.2.3 2.8.7 4.3l3.5 4.3c1.5-.7 3.1-1.4 4.9-2.3-1.1-4.6-3-9.2-5.8-13.4z"/><path fill="none" d="M39 86h1"/><ellipse fill="#FFF" cx="57" cy="29.4" rx=".7" ry=".8"/><ellipse fill="#FFF" cx="69.3" cy="82.3" rx=".3" ry=".4"/><path fill="#F99FCD" d="M71.2 14.7c-3.6-2.4-5.7 7.5-5.7 7.5l1.4-.4 4.3-7.1zM74.8 77.4c0-3.6-2.3 3.4-2.3 3.4l2.3-3.4z"/></svg>