<svg xmlns:xlink="http://www.w3.org/1999/xlink"  version="1" xmlns="http://www.w3.org/2000/svg" viewBox="0 0 150 150"><path fill="#9DD6C9" d="M96 16.4s0-.1.1-.1l-.5.5c.2-.1.3-.2.4-.4z"/><path fill="#E883B5" d="M124.4 76.6c-1.9 0-3.6-.9-4.8-2.2-3.5 19.8-20.7 34.8-41.5 34.8s-38-15-41.5-34.8c-1.2 1.4-2.8 2.2-4.8 2.2-3.5 0-6.3-2.8-6.3-6.3s2.8-6.3 6.3-6.3c1.6 0 3 .6 4.1 1.6.4-11.5 5.3-21.7 13-29.1 2-2.1 4.1-3.9 6.2-5.5 7.8-7.3 16-11.2 18.6-12.9 2-1.2 2.9-2.9 3.4-4.6-13.3.1-26.6 5.3-36.7 15.6C20 50 20 83.8 40.4 104.7l37 42.6 37-42.6c8.3-8.5 13.3-19.2 14.8-30.3-1.2 1.3-2.9 2.2-4.8 2.2z"/><path fill="#E883B5" d="M124.4 64c2.2 0 4.2 1.2 5.3 2.9 0-13.7-5.1-27.4-15.3-37.8-7.3-7.4-16.1-12.2-25.4-14.3.2 1.1.4 2.2.6 3.4.7 4.4 4.7 8.8 9.5 11.6 3.9 2.3 7.4 5.3 10.4 8.7-.1-.1-.2-.1-.4-.2 6.7 7.2 10.9 16.7 11.2 27.3 1-1 2.5-1.6 4.1-1.6z"/><path fill="#FBDFC8" d="M35.9 65.6c-1.1-1-2.5-1.6-4.1-1.6-3.5 0-6.3 2.8-6.3 6.3s2.8 6.3 6.3 6.3c1.9 0 3.6-.9 4.8-2.2 3.5 19.8 20.7 34.8 41.5 34.8s38-15 41.5-34.8c1.2 1.4 2.9 2.2 4.8 2.2s3.6-.9 4.8-2.2c.9-1.1 1.5-2.5 1.5-4.1 0-1.3-.4-2.4-1-3.4-1.1-1.7-3.1-2.9-5.3-2.9-1.6 0-3 .6-4.1 1.6-.3-10.5-4.5-20-11.2-27.3-3.3-3.6-7.2-6.6-11.6-8.9-5-2.5-9.2-6.7-10.2-11.1C84.1 3.5 79.8 1.9 76.1 1.5c-4-.4-7 2-7.5 5.6-.2 1.7.3 3.6 1.9 4.5.5.3 1.5.3 1.6-.4 0-.8-1.1.3-1.5-.2-.9-1-.9-2.4-.4-3.5.9-2 2.6-3 4.9-2.8 3.3.3 5.2 3 5.2 5.9-.4.1-1.3-3.6-5-3.2-3.4.4-3.2 5.4-.6 4.9.5-.1.6-1.3 0-.9-.5.4-.9.4-.9-.1-.2-3.4 4.2-2.7 4.3 1 .1 2.3-.7 5.8-4.2 7.7-2.6 1.4-10.7 4.5-18.8 10.9-2.1 1.6-4.2 3.5-6.2 5.5-7.7 7.4-12.6 17.7-13 29.2zm26.7 8.9c-3.6 0-6.5-2.9-6.5-6.5s2.9-6.5 6.5-6.5 6.5 2.9 6.5 6.5-2.9 6.5-6.5 6.5zM73.9 91c1.5-2 3.4-3.3 5.6-3.3 2.1 0 4.1 1.3 5.6 3.3H73.9zm19.6-16.5c-3.6 0-6.5-2.9-6.5-6.5s2.9-6.5 6.5-6.5 6.5 2.9 6.5 6.5-2.9 6.5-6.5 6.5z"/><path d="M62.8 63.7c-2.7 0-4.8 2.2-4.8 4.8 0 2.7 2.2 4.8 4.8 4.8 2.7 0 4.8-2.2 4.8-4.8 0-2.6-2.2-4.8-4.8-4.8zm-3 4.1c-.5 0-.9-.4-.9-.9s.4-.9.9-.9.9.4.9.9-.4.9-.9.9zM93.7 63.7c-2.7 0-4.8 2.2-4.8 4.8 0 2.7 2.2 4.8 4.8 4.8 2.7 0 4.8-2.2 4.8-4.8 0-2.6-2.1-4.8-4.8-4.8zm-3 4.1c-.5 0-.9-.4-.9-.9s.4-.9.9-.9.9.4.9.9c.1.5-.3.9-.9.9z"/><path fill="#F39648" d="M79.5 87.7c-2.2 0-4.1 1.3-5.6 3.3h11.2c-1.5-2-3.5-3.3-5.6-3.3z"/></svg>