<svg xmlns:xlink="http://www.w3.org/1999/xlink"  xmlns="http://www.w3.org/2000/svg" width="100" height="100" viewBox="0 0 100 100"><path fill="#F6921E" d="M43.124 70.27a36.632 36.632 0 0 1-.304 15.916c5.678-12.149 19.727-18.412 32.756-14.072l3.014-9.038c-12.68-4.222-26.072-1.035-35.466 7.194z"/><path fill="#00ADEE" d="M34.646 53.148a36.692 36.692 0 0 0 16.236-8.205 36.56 36.56 0 0 1 .307-15.92c-5.069 10.85-16.804 16.99-28.531 15.107a36.523 36.523 0 0 1 11.988 9.018z"/><path fill="#8BC53F" d="M42.512 70.064C39.929 57.847 31.128 47.262 18.45 43.041l-3.012 9.035c13.03 4.339 20.512 17.775 17.771 30.907a36.57 36.57 0 0 1 9.303-12.919z"/><path fill="#00ADEE" d="M59.565 61.448a36.605 36.605 0 0 1 14.999-.023C64.05 55.896 58.349 43.945 60.801 32.23a36.678 36.678 0 0 1-9.307 12.919 36.667 36.667 0 0 0 8.071 16.299zM67.797 23.065c-1.595 4.786-6.767 7.372-11.549 5.777-4.785-1.595-7.371-6.768-5.776-11.545 1.595-4.785 6.768-7.372 11.549-5.781 4.786 1.596 7.372 6.768 5.776 11.549z"/><path fill="#F6921E" d="M69.171 82.982a6.895 6.895 0 0 1-8.718 4.359 6.897 6.897 0 0 1-4.359-8.718 6.9 6.9 0 0 1 8.719-4.359c3.608 1.205 5.563 5.111 4.358 8.718z"/><path fill="#8BC53F" d="M25.782 68.524a6.897 6.897 0 0 1-8.718 4.359 6.89 6.89 0 0 1-4.355-8.719 6.886 6.886 0 0 1 8.71-4.358 6.887 6.887 0 0 1 4.363 8.718z"/></svg>