<svg xmlns:xlink="http://www.w3.org/1999/xlink"  version="1" xmlns="http://www.w3.org/2000/svg" viewBox="0 0 150 150"><path fill="#9DD6C9" d="M96 16.4s0-.1.1-.1l-.5.5c.2-.1.3-.2.4-.4z"/><path fill-rule="evenodd" clip-rule="evenodd" fill="#91BE48" d="M62.5 34.8c0 6.6-4.2 11.9-9.4 11.9s-9.4-5.3-9.4-11.9c0-6.5 4.2-11.9 9.4-11.9 5.1 0 9.4 5.4 9.4 11.9z"/><path fill="#FF6C2C" d="M42.7 104.5c-.9-13.3-3.2-37.4-14.3-46.6 3.6 23.1-1.3 41.9-8.3 59.6 16.7 9 36.3 17.3 53.3 25.8v-21.4c-11.7-6.4-20.9-10.6-30.7-17.4z"/><path fill="#91BE48" d="M72.6 28.3C71.3 36 60.3 56 55.8 62.1 43.9 40.3 30.2 22.3 15.1 7 33.8 33.5 50 70.1 48.9 101.9l23.4 12.5c-27.4-32.1 6.6-62.3.3-86.1z"/><path fill-rule="evenodd" clip-rule="evenodd" fill="#602F8F" d="M85.2 34.8c0 6.6 4.2 11.9 9.5 11.9 5.2 0 9.4-5.3 9.4-11.9 0-6.5-4.2-11.9-9.4-11.9-5.3 0-9.5 5.4-9.5 11.9z"/><path fill="#E4457D" d="M104.9 104.5c.9-13.3 3.2-37.4 14.3-46.6-3.6 23.1 1.3 41.9 8.3 59.6-16.7 9-36.3 17.3-53.3 25.8v-21.4c11.8-6.4 21-10.6 30.7-17.4z"/><path fill="#602F8F" d="M75 28.3C76.4 36 87.4 56 91.9 62.1c11.9-21.7 25.6-39.8 40.7-55.1-18.7 26.5-34.9 63.2-33.8 94.9l-23.4 12.5c27.4-32.1-6.6-62.3-.4-86.1z"/></svg>