<svg xmlns:xlink="http://www.w3.org/1999/xlink"  xmlns="http://www.w3.org/2000/svg" width="100" height="100" viewBox="0 0 100 100"><path fill="#00569D" d="M22.108 78.541C19.46 67.694 30.42 57.067 35.252 53l1.248-1.046a9.432 9.432 0 0 1-1.23-4.653c0-3.706 2.183-6.966 5.46-8.812-3.885-1.138-7.247-3.306-9.662-6.15-10.105 8.494-36.733 34.87-4.31 54.056-2.399-2.398-3.959-5.017-4.65-7.854zM62.793 32.331c-2.416 2.85-5.784 5.021-9.669 6.159a11.184 11.184 0 0 1 3.244 2.722c.891-.117 1.968-.088 3.017.385 1.599.72 2.598 2.203 2.966 4.403.062.366.329.704.766.976 1.122.697 3.146.836 5.545.383.795-.15 1.588.235 1.882.91.296.675-.005 1.44-.702 1.809-.437.232-3.686 1.877-7.094 1.877a8.674 8.674 0 0 1-2.58-.368 6.582 6.582 0 0 1-2.138-1.129 9.368 9.368 0 0 1-.669 1.479l1.248 1.066c10.728 9.132 15.117 17.691 13.048 25.442-.875 3.261-2.802 6.039-5.205 8.376 15.086-9.289 28.871-26.794-3.659-54.49zM63.133 21.586c0 7.998-7.258 14.479-16.206 14.479-8.953 0-16.211-6.481-16.211-14.479 0-7.995 7.258-14.479 16.211-14.479 8.948 0 16.206 6.484 16.206 14.479z"/><ellipse fill="#01785C" cx="46.924" cy="47.301" rx="9.671" ry="8.642"/><path fill="#01785C" d="M57.241 54.287c-2.364 2.78-6.106 4.579-10.314 4.579-4.207 0-7.95-1.795-10.314-4.573C28.98 60.712 6.82 82.846 47.358 95.077c0 0 43.906-11.823 9.883-40.79z"/><path fill="#FFF" d="M38.223 61.979c-4.996 4.712-19.489 20.96 7.025 29.94 0 0-18.996-13.524-.941-24.709.001 0-13.795 6.211-6.084-5.231z"/><path fill="#01785C" d="M55.126 43.088s4.689-2.22 5.592 3.133c.312 1.885 2.994 3.583 8.284 2.583 0 0-8.761 4.613-11.409-1.5-.301-.691-1.055-1.987-2.636-1.795"/><path fill="#FFF" d="M51.123 64.445s-1.724.507-.465 1.974c.448.521.277 1.514-1.259 2.438 0 0 3.04-.876 1.985-2.912-.125-.23.023-.655.448-.958"/><path fill="#01785C" d="M57.065 44.298c.459 1.327.317 2.543-.312 2.719-.63.173-1.52-.76-1.979-2.087-.459-1.327-.317-2.543.313-2.718.635-.176 1.519.76 1.978 2.086z"/><path fill="#FFF" d="M42.516 66.407c-1.639 1.177-3.624 1.406-4.417.517-.799-.888-.113-2.563 1.537-3.737 1.645-1.174 3.623-1.406 4.417-.516.799.891.113 2.562-1.537 3.736zM52.711 66.583c1.644 1.174 3.623 1.406 4.417.517.799-.891.107-2.563-1.531-3.74-1.645-1.177-3.629-1.405-4.423-.516-.799.889-.108 2.562 1.537 3.739z"/><path fill="#FFF" d="M56.481 61.979c5.812 8.625-.596 7.218-4.104 6.006a1.926 1.926 0 0 1-.262.385c15.038 10.938-2.66 23.55-2.66 23.55 26.516-8.982 12.022-25.23 7.026-29.941z"/></svg>