<svg xmlns:xlink="http://www.w3.org/1999/xlink"  xmlns="http://www.w3.org/2000/svg" width="100" height="100" viewBox="0 0 100 100"><g fill-rule="evenodd" clip-rule="evenodd"><path fill="#D6DE23" d="M26.216 59.335c-1.471 1.601-2.701 3.021-4.024 4.354-3.143 3.16-6.427 6.194-11.147 6.601-1.61.141-3.267-.327-4.904-.513.017-.185.03-.367.043-.551.126-.109.247-.31.37-.317 4.678-.162 8.258-2.479 11.332-5.772a254.755 254.755 0 0 0 6.164-6.842c.323-.37.576-1.193.39-1.561-1.71-3.303-3.154-6.847-5.434-9.727-1.601-2.033-4.364-3.146-6.744-4.763 1.107 0 2.327-.193 3.463.036 3.214.65 5.761 2.494 7.588 5.147 1.486 2.16 2.74 4.497 3.933 6.841.568 1.117 1.087 1.586 2.454 1.526 5.587-.246 10.412 3.721 11.415 9.194.034.207-.053.439-.131 1.024-3.214-3.494-5.817-7.632-11.567-6.752 2.998 7.711 5.733 15.229 15.999 15.063-3.507 1.677-6.848 1.637-10.062-.137-3.561-1.964-5.55-5.295-7.254-8.814-.6-1.249-1.171-2.51-1.884-4.037z"/><path fill="#EC297B" d="M60.456 72.193c4.473-1.536 9.222-2.317 10.727-7.91-4.139-.126-8-.311-11.841.689-4.214 1.101-6.3 4.371-8.093 7.98-.161-.049-.327-.096-.487-.146 0-.535-.084-1.084.014-1.603.989-5.587 4.96-9.288 10.939-10.062 2.182-.28 4.396-.3 6.596-.434.646-.04 1.292-.073 2.239-.119-.771-1.762-1.427-3.255-2.073-4.755-1.57-3.634-2.761-7.351-2.377-11.387.23-2.437 1.067-4.587 3.44-6.554-.097.903-.056 1.35-.2 1.74-1.173 3.273-.971 6.54.284 9.701 1.427 3.584 3.032 7.098 4.638 10.607.169.38.805.794 1.219.78 3.11-.07 6.24-.054 9.322-.44 2.803-.347 5.146-1.894 7.129-3.909.425-.431.787-.918 1.174-1.378.17.087.336.177.507.271-.199.688-.283 1.44-.619 2.05-2.233 4.064-5.965 5.854-10.334 6.494-1.988.294-4.028.384-6.041.406-1.271.014-1.922.313-2.345 1.667-1.569 5.033-7.817 8.261-12.903 6.814-.208-.058-.395-.211-.915-.502z"/><path fill="#F6921E" d="M58.775 26.88c2.194 2.04 2.707 4.59 2.494 7.313-.34 4.197-2.394 7.701-4.794 10.988-1.007 1.374-1.144 2.38-.166 3.907 2.839 4.438 1.34 11.02-3.261 14.264.666-2.396 1.393-4.53 1.826-6.733.468-2.384-.153-4.558-2.023-6.564-5.097 6.388-10.437 12.441-4.783 21.27-.244.053-.487.109-.728.166-.827-.914-1.779-1.734-2.453-2.746-2.454-3.685-2.541-7.635-.75-11.562 1.009-2.218 2.416-4.254 3.685-6.354.466-.77 1.04-1.479 1.776-2.527-1.745-.404-3.238-.62-4.625-1.107-3.105-1.09-6.319-2.023-9.203-3.567-2.872-1.533-4.698-4.16-5.018-7.748.354.101.6.094.667.197 2.931 4.643 7.526 6.424 12.604 7.417 2.345.46 4.665 1.041 7.008 1.474.498.093 1.297-.026 1.566-.36 2.607-3.26 5.345-6.504 6.172-10.734.346-1.767.133-3.641.146-5.461.007-.514-.089-1.023-.14-1.533z"/><path fill="#EC297B" d="M78.19 49.688c2.505-.013 4.287 1.748 4.287 4.24 0 2.448-1.914 4.401-4.257 4.345-2.264-.056-4.287-2.03-4.32-4.217-.039-2.334 1.948-4.354 4.29-4.368z"/><path fill="#F6921E" d="M44.674 38.233c-.003-2.44 1.7-4.267 4.04-4.343 2.361-.08 4.268 1.87 4.248 4.34-.023 2.424-1.767 4.177-4.147 4.184-2.374.003-4.134-1.777-4.141-4.181z"/><path fill="#D6DE23" d="M21.292 54.849c.003 2.54-1.744 4.311-4.247 4.29-2.44-.017-4.133-1.709-4.16-4.17-.03-2.558 1.704-4.307 4.234-4.28 2.466.022 4.166 1.719 4.173 4.16z"/></g></svg>