<svg xmlns:xlink="http://www.w3.org/1999/xlink"  xmlns="http://www.w3.org/2000/svg" width="100" height="100" viewBox="0 0 100 100"><path fill="#F48026" d="M17.66 56.055l24.222 13.448-16.968-17.028 19.318 16.231-10.991-18.78L46.81 68.234l-4.539-19.71 7.23 19.583 2.112-19.776.571 20.006 8.675-18.984L54.751 68.9l14.854-17.349-12.526 18.235 20.389-14.968-18.395 16.133 25.032-11.928-23.459 13.318 28.575-8.364-27.494 9.925 30.877-4.444-30.336 6.101-25.71-.476-31.384-3.815 31.966 2.177-29.571-7.78 30.688 6.261-26.463-11.408 28.068 10.077z"/><linearGradient id="a" gradientUnits="userSpaceOnUse" x1="23.595" y1="64.34" x2="33.926" y2="64.34" gradientTransform="matrix(1 0 0 -1 0 101)"><stop offset="0" stop-color="#008245"/><stop offset="1" stop-color="#00af4c"/></linearGradient><path fill="url(#a)" d="M24.997 34.453c-.13-.408-.734-.539-.864-.946.248.143 1.384.42 1.632.567 0 0-1.265-1.64-.478-1.567.809.013 1.518.544 1.377.048-.137-.5-.253-1.663.022-1.383.279.283.929 1.726.929 1.726-.008-.659-.355-2.933.649-3-.124 1.3-.011 2.669.28 2.296.293-.373.879-1.676.879-1.676s.083.666.076 1.068c-.006.404.187.427.486-.042.301-.468.164-.252.491-.755.325-.503.651-.14.016 1.083-.64 1.22.015.366.848-.372.834-.736 1.106-.048.625.458-.479.503-.336.751.532.599.865-.156 1.696.535.736.675-.962.147-1.408.675-.405 1.019 1.005.344 1.481 1.112.688.752-.788-.357-1.499-.051-1.499-.051s.935.452 1.567.656c.634.208-1.486.01-1.737-.156-.253-.159 1.101.51 1.91 1.392.812.879-.57-.934-2.033-.806-1.46.128 1.146 1.15 1.808 1.628.661.477.707 1.274.707 1.274s-.706-.965-1.937-1.503c-1.234-.545-.325.503-.043.583.408.363 1.936 2.291 1.77 2.087-.162-.204-1.095-.908-1.994-1.59-.898-.678.366 1.427.6 1.443.309.201 1.126 1.657.944 1.784-.18.127-.751.634-1.166-.465-.413-1.092-.63-1.283-.815-1.599-.186-.316-.565-.561-.565-.561s1.015 1.825 1.181 2.321c.166.5.433 1.064.506 1.405.073.338-.077 1.02-.373.048-.299-.972-.366-1.017-.53-1.367-.164-.347-.293-.528-.293-.528s-.491 2.118-.841 2.28c-.348.166-1.154.281-1.046-.188.105-.465.292-.978.292-.978s-1.915 1.15-1.607.373c.306-.777-1.038-1.112-1.008-1.382.022-.208.299-.551.013-1.239-.091-.223-1.922.847-1.841.446.09-.453-.716-.924-.785-1.115-.182-.5 1.627-.886.937-1.227-.96-.478-2.114-1.564-.752-1.707.752.048-1.54-1.386-1.408-1.593.132-.206 1.519-.215 1.519-.215z"/><linearGradient id="b" gradientUnits="userSpaceOnUse" x1="29.591" y1="65.509" x2="40.109" y2="65.509" gradientTransform="matrix(1 0 0 -1 0 101)"><stop offset="0" stop-color="#008245"/><stop offset="1" stop-color="#00af4c"/></linearGradient><path fill="url(#b)" d="M32.789 30.353c.166-.398-.21-.886-.045-1.284.098.271.779 1.224.877 1.495 0 0 .103-2.07.652-1.503.605.538.798 1.401 1.018.933.219-.468.887-1.426.914-1.035.029.395-.417 1.917-.417 1.917.425-.509 1.639-2.462 2.445-1.859-.937.904-1.744 2.022-1.281 1.93.465-.096 1.76-.705 1.76-.705s-.372.558-.639.86c-.27.306-.136.443.396.283.537-.156.29-.083.866-.254.576-.172.583.318-.693.832-1.277.516-.228.29.886.273 1.113-.019.875.679.178.752-.693.073-.744.357.014.8.76.445.943 1.51.118.996-.823-.519-1.505-.404-.967.51.539.911.403 1.802.037 1.016-.37-.784-1.108-1.01-1.108-1.01s.414.945.763 1.516c.348.567-1.134-.962-1.222-1.249-.084-.286.508 1.102.55 2.297.041 1.195.17-1.08-1.02-1.934-1.194-.851.122 1.618.313 2.412.188.796-.292 1.43-.292 1.43s.092-1.192-.492-2.405c-.582-1.213-.573.172-.412.417.075.542-.02 3-.012 2.739.009-.264-.244-1.404-.484-2.506-.238-1.099-.649 1.322-.481 1.487.105.354-.223 1.988-.439 1.966-.221-.019-.986-.006-.584-1.104.397-1.102.355-1.389.417-1.749.063-.36-.065-.793-.065-.793s-.416 2.045-.611 2.532c-.199.484-.36 1.09-.525 1.395-.169.306-.727.726-.319-.204.406-.933.382-1.013.487-1.382.102-.376.123-.595.123-.595s-1.751 1.29-2.124 1.188c-.373-.102-1.059-.538-.674-.825.386-.283.862-.554.862-.554s-2.202-.37-1.465-.761c.739-.392-.068-1.52.135-1.708.15-.14.586-.223.814-.93.075-.229-2.011-.608-1.69-.857.361-.286.056-1.172.128-1.359.188-.498 1.814.388 1.51-.325-.424-.984-.592-2.558.537-1.781.54.519-.27-2.058-.035-2.127.233-.073 1.296.822 1.296.822z"/><linearGradient id="c" gradientUnits="userSpaceOnUse" x1="31.526" y1="71.357" x2="46.477" y2="71.357" gradientTransform="matrix(1 0 0 -1 0 101)"><stop offset="0" stop-color="#008245"/><stop offset="1" stop-color="#00af4c"/></linearGradient><path fill="url(#c)" d="M40.791 33.643c.396.157.489.768.887.924-.129-.258-.334-1.408-.46-1.666 0 0 1.557 1.367 1.531.577.041-.81-.445-1.549.041-1.379.487.168 1.644.357 1.379.063-.261-.292-1.663-1.035-1.663-1.035.657.051 2.905.544 3.036-.456-1.303.042-2.666-.16-2.274-.427.391-.267 1.729-.771 1.729-.771s-.659-.124-1.063-.143c-.401-.019-.414-.21.076-.484l.784-.439c.522-.293.178-.64-1.08-.083-1.26.558-.366-.038.424-.828.786-.783.12-1.099-.414-.649-.535.446-.777.284-.567-.57.21-.854-.425-1.727-.631-.777-.204.953-.76 1.36-1.038.338-.281-1.022-1.015-1.545-.708-.733.306.809-.046 1.497-.046 1.497s-.391-.959-.554-1.602c-.166-.646-.104 1.481.044 1.743.147.261-.437-1.131-1.264-1.994-.828-.863.892.631.673 2.08-.22 1.449-1.076-1.217-1.51-1.908-.437-.688-1.228-.787-1.228-.787s.917.765 1.379 2.03c.462 1.264-.524.292-.583.006-.339-.43-2.167-2.077-1.972-1.902.194.179.837 1.153 1.459 2.093.621.943-1.403-.456-1.403-.688-.18-.322-1.58-1.229-1.717-1.055-.14.169-.682.708.385 1.188 1.069.481 1.243.713 1.546.92.303.204.523.596.523.596S34.755 26.197 34.269 26s-1.033-.503-1.366-.599c-.335-.092-1.024.013-.075.373.953.356.992.429 1.333.614.337.185.506.325.506.325s-2.144.357-2.33.694c-.188.337-.351 1.134.123 1.057.473-.076.997-.229.997-.229s-1.269 1.838-.476 1.58c.795-.258 1.042 1.108 1.317 1.092.208-.009.57-.261 1.238.067.215.105-.967 1.867-.564 1.813.457-.063.878.774 1.062.851.49.214.986-1.57 1.286-.854.414.987 1.425 2.204 1.654.857.002-.751 1.286 1.628 1.502 1.506.212-.121.315-1.504.315-1.504z"/><linearGradient id="d" gradientUnits="userSpaceOnUse" x1="38.395" y1="74.394" x2="54.794" y2="74.394" gradientTransform="matrix(1 0 0 -1 0 101)"><stop offset="0" stop-color="#008245"/><stop offset="1" stop-color="#00af4c"/></linearGradient><path fill="url(#d)" d="M43.092 30.156c-.428.013-.723.554-1.153.563.207-.197.8-1.208 1.007-1.405 0 0-1.934.746-1.636.013.241-.773.951-1.3.438-1.309-.518-.01-1.669-.229-1.316-.418.347-.181 1.919-.397 1.919-.397-.641-.179-2.917-.491-2.695-1.476 1.21.491 2.558.771 2.284.386-.274-.386-1.357-1.322-1.357-1.322s.659.112 1.045.233c.385.124.462-.054.099-.478s-.198-.226-.585-.685c-.39-.456.051-.666 1.041.296.987.958.356.086-.109-.924-.471-1.007.263-1.074.611-.468.348.605.628.535.727-.338.099-.876.997-1.472.859-.513-.133.964.246 1.538.86.675.615-.863 1.485-1.099.918-.446-.567.656-.479 1.424-.479 1.424s.698-.768 1.077-1.315c.376-.548-.414 1.426-.644 1.624-.229.194.803-.914 1.876-1.437 1.073-.525-1.054.283-1.351 1.72-.293 1.437 1.43-.774 2.077-1.271.646-.498 1.424-.315 1.424-.315s-1.128.398-2.001 1.427c-.869 1.029.392.459.548.208.465-.287 2.752-1.201 2.507-1.103-.246.103-1.183.793-2.094 1.462-.904.666 1.472.054 1.555-.166.28-.239 1.908-.605 1.978-.398.071.21.398.901-.772.987-1.165.083-1.411.239-1.764.325-.357.089-.701.382-.701.382s2.039-.453 2.562-.468c.527-.019 1.143-.115 1.489-.09.345.025.959.367-.058.373-1.02.009-1.079.063-1.465.121-.379.058-.586.128-.586.128s1.893 1.077 1.948 1.459c.056.378-.063 1.185-.483.949-.418-.236-.854-.561-.854-.561s.559 2.163-.102 1.646c-.652-.516-1.36.681-1.612.573-.191-.083-.443-.446-1.181-.367-.239.026.264 2.087-.096 1.896-.408-.216-1.092.424-1.293.433-.531.032-.385-1.815-.91-1.245-.73.783-2.1 1.58-1.848.232.258-.707-1.768 1.086-1.929.898-.16-.184.225-1.518.225-1.518z"/><linearGradient id="e" gradientUnits="userSpaceOnUse" x1="47.365" y1="73.375" x2="63.762" y2="73.375" gradientTransform="matrix(1 0 0 -1 0 101)"><stop offset="0" stop-color="#008245"/><stop offset="1" stop-color="#00af4c"/></linearGradient><path fill="url(#e)" d="M52.057 31.175c-.428.009-.721.551-1.146.561.211-.197.797-1.207 1.007-1.405 0 0-1.934.746-1.638.013.243-.773.954-1.296.437-1.309-.516-.01-1.666-.23-1.319-.414.354-.185 1.921-.398 1.921-.398-.639-.178-2.918-.494-2.692-1.475 1.207.487 2.554.771 2.276.382-.266-.386-1.353-1.319-1.353-1.319s.659.111 1.048.232c.383.121.459-.057.096-.481-.363-.423-.197-.226-.586-.681-.389-.459.054-.666 1.045.292.986.959.355.09-.115-.92-.464-1.01.268-1.073.617-.471.345.605.625.538.728-.338.097-.873.993-1.472.86-.513-.139.965.24 1.542.859.678.61-.863 1.483-1.102.914-.446-.567.653-.476 1.421-.476 1.421s.701-.764 1.073-1.316c.38-.548-.414 1.428-.641 1.625-.229.194.799-.911 1.873-1.437 1.073-.525-1.058.283-1.352 1.72-.292 1.437 1.431-.771 2.076-1.271.646-.494 1.422-.313 1.422-.313s-1.121.398-1.994 1.427c-.872 1.025.389.452.548.207.466-.286 2.749-1.201 2.504-1.105-.241.102-1.182.796-2.09 1.462-.91.666 1.472.054 1.556-.166.279-.239 1.904-.605 1.975-.398.072.21.396.904-.771.987-1.169.083-1.414.239-1.771.325-.354.089-.698.386-.698.386s2.042-.456 2.564-.471c.524-.016 1.14-.115 1.49-.089.344.029.955.366-.062.372-1.017.01-1.08.064-1.462.121-.383.057-.59.128-.59.128s1.89 1.077 1.945 1.459c.059.382-.063 1.188-.477.949-.422-.232-.857-.558-.857-.558s.559 2.163-.099 1.646-1.36.678-1.612.57c-.193-.083-.445-.443-1.185-.367-.239.025.265 2.087-.095 1.898-.408-.216-1.095.42-1.295.434-.527.028-.381-1.816-.91-1.249-.728.787-2.096 1.58-1.849.235.259-.707-1.767 1.083-1.93.895-.149-.181.231-1.515.231-1.515z"/><linearGradient id="f" gradientUnits="userSpaceOnUse" x1="56.932" y1="68.939" x2="68.248" y2="68.939" gradientTransform="matrix(1 0 0 -1 0 101)"><stop offset="0" stop-color="#008245"/><stop offset="1" stop-color="#00af4c"/></linearGradient><path fill="url(#f)" d="M58.283 30.923c-.227-.363-.844-.34-1.074-.704.281.076 1.445.07 1.725.146 0 0-1.629-1.28-.845-1.402.787-.185 1.604.16 1.351-.29-.258-.449-.655-1.551-.317-1.344.337.204 1.321 1.446 1.321 1.446-.17-.64-1.062-2.759-.104-3.067.197 1.287.644 2.589.834 2.16.19-.434.446-1.841.446-1.841s.238.624.331 1.017c.096.395.282.369.462-.16l.29-.851c.194-.57.599-.296.28 1.044-.321 1.338.102.351.731-.563.627-.92 1.058-.321.72.287-.344.608-.14.812.664.449.801-.36 1.771.105.871.481-.895.375-1.197.997-.14 1.083 1.058.09 1.704.714.854.561-.854-.153-1.47.315-1.47.315s1.017.21 1.679.254c.67.045-1.437.373-1.72.277-.286-.095 1.19.224 2.188.879 1 .656-.779-.765-2.17-.28-1.381.478 1.396.831 2.154 1.133.754.303.993 1.064.993 1.064s-.914-.765-2.241-.991c-1.328-.223-.191.57.098.58.488.251 2.438 1.749 2.228 1.589-.211-.159-1.286-.611-2.319-1.051-1.037-.44.705 1.293.932 1.252.352.118 1.497 1.328 1.352 1.497-.142.166-.57.799-1.236-.166-.67-.959-.93-1.09-1.187-1.351-.257-.262-.685-.405-.685-.405s1.428 1.522 1.711 1.965c.279.439.682.92.834 1.233.156.312.176 1.013-.35.14-.525-.87-.605-.896-.849-1.195-.245-.299-.414-.443-.414-.443s.041 2.176-.258 2.421c-.304.242-1.056.551-1.062.07-.013-.478.045-1.023.045-1.023s-1.574 1.583-1.473.758c.109-.832-1.273-.825-1.313-1.095-.027-.205.156-.608-.286-1.208-.146-.191-1.663 1.293-1.679.889-.022-.465-.922-.726-1.035-.895-.293-.44 1.363-1.251.607-1.417-1.048-.226-2.431-.997-1.144-1.469.739-.14-1.835-.968-1.759-1.2.087-.229 1.429-.579 1.429-.579z"/><linearGradient id="g" gradientUnits="userSpaceOnUse" x1="57.582" y1="62.837" x2="68.896" y2="62.837" gradientTransform="matrix(1 0 0 -1 0 101)"><stop offset="0" stop-color="#008245"/><stop offset="1" stop-color="#00af4c"/></linearGradient><path fill="url(#g)" d="M58.93 37.023c-.227-.363-.844-.341-1.07-.701.273.076 1.445.07 1.721.146 0 0-1.624-1.281-.844-1.402.787-.185 1.603.157 1.348-.29-.255-.449-.652-1.551-.313-1.344.338.204 1.317 1.446 1.317 1.446-.169-.641-1.063-2.762-.103-3.071.195 1.29.639 2.593.832 2.16.193-.433.443-1.841.443-1.841s.24.627.334 1.02c.092.392.282.37.461-.159.18-.529.1-.287.287-.854.197-.57.6-.293.283 1.048-.322 1.338.105.351.734-.567.632-.917 1.06-.318.715.29-.344.606-.137.813.662.449.803-.359 1.777.105.88.481-.897.373-1.197.995-.142 1.083 1.056.086 1.701.716.852.561-.855-.156-1.469.319-1.469.319s1.017.207 1.683.251c.662.045-1.44.37-1.728.277-.279-.099 1.194.22 2.191.876 1 .659-.779-.762-2.166-.281-1.386.481 1.393.834 2.15 1.134.758.306.996 1.064.996 1.064s-.918-.765-2.242-.988c-1.328-.223-.194.567.096.577.487.254 2.439 1.751 2.229 1.592-.209-.16-1.286-.611-2.321-1.051-1.038-.44.701 1.293.935 1.248.351.122 1.493 1.329 1.351 1.498-.144.169-.574.799-1.242-.163-.669-.959-.924-1.092-1.183-1.35-.258-.262-.686-.408-.686-.408s1.428 1.525 1.715 1.968c.28.439.678.92.831 1.232.152.313.175 1.01-.348.141-.528-.87-.604-.898-.851-1.195-.246-.3-.412-.446-.412-.446s.039 2.179-.26 2.424c-.301.242-1.052.551-1.062.067-.011-.479.041-1.02.041-1.02s-1.573 1.583-1.466.755c.109-.829-1.276-.822-1.313-1.092-.031-.211.153-.612-.293-1.208-.145-.191-1.656 1.293-1.675.885-.026-.462-.924-.723-1.035-.889-.297-.443 1.365-1.258.606-1.42-1.047-.226-2.43-.997-1.146-1.469.739-.14-1.831-.968-1.752-1.204.088-.229 1.429-.579 1.429-.579z"/><linearGradient id="h" gradientUnits="userSpaceOnUse" x1="58.116" y1="52.533" x2="68.52" y2="52.533" gradientTransform="matrix(1 0 0 -1 0 101)"><stop offset="0" stop-color="#008245"/><stop offset="1" stop-color="#00af4c"/></linearGradient><path fill="url(#h)" d="M61.777 43.278c.223-.362-.079-.904.14-1.267.058.277.593 1.319.649 1.599 0 0 .401-2.032.867-1.389.521.618.586 1.5.873 1.071.279-.431 1.082-1.284 1.051-.89-.025.392-.691 1.832-.691 1.832.494-.442 1.979-2.197 2.691-1.484-1.062.761-2.021 1.746-1.549 1.72.473-.021 1.842-.437 1.842-.437s-.445.497-.758.758c-.307.264-.197.42.354.34s.297-.044.893-.127c.596-.086.531.401-.806.719-1.338.325-.269.255.837.401 1.102.144.762.803.066.771-.7-.028-.789.243-.103.793.687.551.712 1.628-.03 1-.74-.63-1.429-.618-1.026.367.396.981.134 1.841-.114 1.01-.252-.829-.949-1.163-.949-1.163s.273 1 .535 1.612c.262.611-.984-1.115-1.025-1.408-.045-.299.338 1.16.207 2.351-.131 1.189.324-1.045-.729-2.063-1.058-1.016-.114 1.622-.038 2.434.074.813-.496 1.369-.496 1.369s.264-1.162-.138-2.445c-.401-1.288-.593.083-.472.348-.004.547-.455 2.969-.41 2.711.051-.262-.032-1.426-.111-2.55-.08-1.124-.832 1.21-.691 1.399.051.361-.51 1.932-.723 1.881-.214-.051-.972-.148-.418-1.182.555-1.028.555-1.318.669-1.666.115-.348.052-.795.052-.795s-.707 1.965-.975 2.416c-.27.451-.518 1.025-.725 1.305s-.821.613-.283-.25c.539-.863.525-.942.683-1.299.159-.35.21-.567.21-.567s-1.924 1.022-2.273.866c-.356-.159-.969-.691-.549-.914.424-.227.931-.423.931-.423s-2.121-.688-1.337-.966c.789-.279.154-1.514.382-1.672.172-.118.61-.134.942-.8.108-.216-1.904-.895-1.551-1.096.4-.229.227-1.146.327-1.325.255-.465 1.735.65 1.538-.102-.271-1.035-.206-2.618.79-1.686.462.596.035-2.073.276-2.108.243-.033 1.165 1.001 1.165 1.001z"/><linearGradient id="i" gradientUnits="userSpaceOnUse" x1="44.416" y1="51.769" x2="58.462" y2="51.769" gradientTransform="matrix(1 0 0 -1 0 101)"><stop offset="0" stop-color="#008245"/><stop offset="1" stop-color="#00af4c"/></linearGradient><path fill="url(#i)" d="M52.395 44.805c.355-.239.313-.854.672-1.09-.069.274-.028 1.446-.1 1.724 0 0 1.236-1.666 1.376-.886.21.783-.108 1.605.331 1.338s1.529-.698 1.338-.354c-.197.344-1.406 1.36-1.406 1.36.629-.188 2.724-1.141 3.061-.191-1.277.233-2.57.717-2.134.896.437.181 1.856.391 1.856.391s-.619.258-1.014.363c-.389.102-.355.293.175.456.532.162.291.086.86.264.576.179.314.59-1.038.309-1.349-.277-.349.118.589.72.938.601.352 1.047-.268.725-.617-.327-.815-.116-.43.673.385.793-.056 1.776-.457.892-.4-.885-1.031-1.164-1.089-.107-.054 1.058-.661 1.724-.532.87.129-.86-.358-1.458-.358-1.458s-.179 1.021-.204 1.684c-.025.666-.414-1.426-.325-1.714.086-.286-.188 1.197-.815 2.218s.74-.806.218-2.175c-.519-1.371-.793 1.417-1.076 2.183-.276.768-1.024 1.027-1.024 1.027s.734-.939.916-2.273c.186-1.332-.572-.176-.572.117-.236.493-1.676 2.487-1.522 2.274.152-.214.57-1.306.981-2.354.409-1.053-1.271.741-1.224.967-.108.357-1.284 1.537-1.456 1.399-.172-.141-.819-.552.124-1.25.943-.692 1.067-.957 1.319-1.223.255-.265.386-.693.386-.693s-1.482 1.472-1.915 1.767c-.433.298-.901.712-1.21.871-.306.162-1.003.207-.149-.345.857-.554.879-.63 1.168-.883.293-.254.433-.426.433-.426s-2.172.104-2.427-.188c-.255-.289-.583-1.035-.105-1.062.481-.021 1.022.019 1.022.019s-1.624-1.531-.796-1.448c.832.086.784-1.3 1.058-1.344.204-.035.611.137 1.194-.329.188-.146-1.341-1.614-.934-1.646.459-.035.695-.943.86-1.061.433-.309 1.293 1.329 1.437.564.194-1.054.924-2.456 1.433-1.185.159.732.915-1.86 1.149-1.787.234.069.624 1.401.624 1.401z"/><linearGradient id="j" gradientUnits="userSpaceOnUse" x1="46.913" y1="63.789" x2="60.961" y2="63.789" gradientTransform="matrix(1 0 0 -1 0 101)"><stop offset="0" stop-color="#008245"/><stop offset="1" stop-color="#00af4c"/></linearGradient><path fill="url(#j)" d="M54.891 32.786c.356-.238.313-.857.67-1.092-.07.277-.025 1.446-.097 1.727 0 0 1.231-1.666 1.377-.885.21.78-.108 1.605.33 1.338.44-.268 1.529-.698 1.332-.354-.19.344-1.407 1.363-1.407 1.363.637-.188 2.732-1.147 3.063-.198-1.28.236-2.57.72-2.128.898.434.179 1.851.389 1.851.389s-.614.261-1.01.367c-.39.102-.356.292.179.452.528.166.287.092.856.267.577.179.313.59-1.035.309-1.351-.28-.351.118.586.72.937.599.351 1.048-.269.723-.616-.325-.813-.114-.43.675.383.79-.055 1.777-.455.892-.4-.886-1.031-1.169-1.09-.111-.054 1.061-.662 1.729-.535.87.131-.857-.355-1.456-.355-1.456s-.18 1.022-.207 1.685c-.021.666-.411-1.427-.322-1.711.083-.29-.189 1.192-.818 2.215-.627 1.019.739-.804.221-2.176-.52-1.373-.797 1.414-1.073 2.182-.276.767-1.035 1.028-1.035 1.028s.739-.942.925-2.273c.188-1.335-.574-.176-.574.118-.241.49-1.678 2.487-1.525 2.274.152-.217.577-1.306.984-2.354.408-1.048-1.273.739-1.224.971-.108.35-1.287 1.532-1.459 1.392-.172-.137-.816-.551.127-1.246s1.064-.958 1.318-1.223c.252-.265.387-.695.387-.695s-1.481 1.472-1.915 1.768c-.433.292-.904.708-1.21.87-.306.162-1.006.207-.149-.347.854-.551.876-.627 1.168-.883.293-.249.43-.423.43-.423s-2.172.105-2.424-.188c-.254-.293-.586-1.035-.105-1.061.478-.025 1.022.016 1.022.016s-1.627-1.529-.797-1.446c.829.086.784-1.3 1.055-1.347.207-.035.614.14 1.194-.322.191-.149-1.338-1.621-.933-1.649.462-.039.698-.946.863-1.061.43-.309 1.293 1.328 1.433.563.197-1.055.924-2.456 1.438-1.185.162.733.915-1.863 1.15-1.79.23.073.622 1.404.622 1.404z"/><linearGradient id="k" gradientUnits="userSpaceOnUse" x1="35.394" y1="60.736" x2="53.995" y2="60.412" gradientTransform="matrix(1 0 0 -1 0 101)"><stop offset="0" stop-color="#008245"/><stop offset="1" stop-color="#00af4c"/></linearGradient><path fill="url(#k)" d="M45.921 32.076c.472-.443.417-1.603.892-2.048-.092.525-.038 2.72-.127 3.242 0 0 1.637-3.128 1.835-1.666.273 1.468-.149 3.016.437 2.513.589-.503 2.038-1.313 1.778-.666-.262.646-1.875 2.561-1.875 2.561.844-.354 3.628-2.146 4.082-.363-1.707.439-3.427 1.344-2.841 1.682.583.338 2.468.733 2.468.733s-.824.483-1.348.681c-.517.194-.475.548.235.857.707.306.382.166 1.144.497.766.332.418 1.108-1.379.58-1.796-.522-.465.219.783 1.347 1.242 1.134.467 1.976-.355 1.364-.825-.609-1.09-.217-.576 1.267.512 1.487-.071 3.338-.605 1.676-.533-1.663-1.373-2.195-1.446-.208-.076 1.991-.886 3.24-.714 1.631.169-1.612-.481-2.733-.481-2.733s-.239 1.914-.271 3.166c-.032 1.246-.551-2.682-.433-3.22.118-.539-.252 2.249-1.086 4.16-.835 1.915.987-1.51.292-4.084-.694-2.573-1.057 2.656-1.43 4.097-.373 1.439-1.376 1.93-1.376 1.93s.981-1.765 1.23-4.27c.245-2.503-.765-.328-.765.22-.318.927-2.234 4.674-2.033 4.269.204-.401.766-2.446 1.311-4.415.545-1.971-1.696 1.389-1.631 1.822-.144.662-1.71 2.879-1.94 2.617-.226-.26-1.084-1.034.171-2.34 1.253-1.306 1.417-1.797 1.751-2.297.338-.497.516-1.306.516-1.306s-1.972 2.765-2.551 3.32c-.575.554-1.202 1.331-1.612 1.637-.407.302-1.337.383-.197-.653 1.135-1.033 1.169-1.179 1.557-1.657.39-.475.576-.796.576-.796s-2.896.194-3.233-.354c-.336-.548-.776-1.943-.135-1.991.633-.045 1.363.029 1.363.029s-2.173-2.873-1.064-2.714c1.104.16 1.043-2.443 1.405-2.529.272-.064.817.261 1.595-.608.248-.281-1.789-3.042-1.246-3.103.611-.067.925-1.768 1.143-1.988.575-.58 1.727 2.494 1.913 1.061.26-1.978 1.235-4.612 1.913-2.227.21 1.379 1.217-3.497 1.529-3.36.312.14.831 2.637.831 2.637z"/><linearGradient id="l" gradientUnits="userSpaceOnUse" x1="26.504" y1="56.287" x2="36.702" y2="56.287" gradientTransform="matrix(1 0 0 -1 0 101)"><stop offset="0" stop-color="#008245"/><stop offset="1" stop-color="#00af4c"/></linearGradient><path fill="url(#l)" d="M32.295 40.899c.258-.204.23-.732.487-.939-.049.242-.019 1.249-.071 1.487 0 0 .894-1.433.999-.764.152.675-.081 1.386.239 1.153.322-.229 1.111-.602.972-.305-.142.296-1.024 1.175-1.024 1.175.458-.162 1.981-.984 2.224-.168-.931.204-1.866.618-1.549.771.32.156 1.348.338 1.348.338s-.449.223-.732.313c-.284.089-.263.254.125.391.386.144.207.077.626.229.417.15.223.506-.755.265-.978-.239-.251.103.429.621.677.516.253.901-.196.624-.448-.277-.592-.102-.313.58s-.039 1.533-.329.768c-.292-.762-.75-1.007-.79-.096-.042.915-.484 1.488-.391.749.096-.739-.261-1.252-.261-1.252s-.128.878-.148 1.452c-.018.57-.297-1.229-.235-1.479.063-.245-.135 1.033-.592 1.909-.453.875.538-.691.161-1.87-.379-1.182-.575 1.216-.781 1.876-.202.659-.748.886-.748.886s.535-.81.667-1.959c.136-1.146-.415-.149-.415.102-.172.424-1.219 2.141-1.107 1.959.111-.188.417-1.125.711-2.029.3-.901-.921.641-.886.834-.078.306-.934 1.322-1.057 1.205-.124-.118-.592-.475.091-1.073.683-.599.772-.825.957-1.055.183-.226.279-.596.279-.596s-1.076 1.268-1.39 1.519c-.316.255-.656.612-.877.752-.223.137-.731.175-.109-.299.619-.475.636-.542.848-.762.213-.216.312-.363.312-.363s-1.576.089-1.76-.163c-.186-.251-.424-.892-.075-.914.347-.019.741.013.741.013s-1.182-1.316-.579-1.243c.604.07.571-1.121.766-1.159.15-.028.444.118.868-.28.137-.127-.971-1.396-.675-1.421.333-.032.501-.809.62-.914.317-.265.942 1.144 1.044.491.14-.908.672-2.118 1.043-1.022.115.63.662-1.605.833-1.542.173.058.455 1.205.455 1.205z"/><linearGradient id="m" gradientUnits="userSpaceOnUse" x1="31.904" y1="53.7" x2="40.209" y2="53.7" gradientTransform="matrix(1 0 0 -1 0 101)"><stop offset="0" stop-color="#008245"/><stop offset="1" stop-color="#00af4c"/></linearGradient><path fill="url(#m)" d="M36.619 44.193c.211-.163.188-.596.4-.764-.042.194-.018 1.016-.061 1.21 0 0 .729-1.166.815-.621.123.548-.063 1.127.195.937.261-.185.905-.487.791-.249-.118.242-.833.958-.833.958.373-.133 1.609-.803 1.811-.133-.758.162-1.521.5-1.262.627.26.125 1.096.271 1.096.271s-.365.182-.596.255c-.23.074-.211.207.103.322l.51.185c.339.122.183.414-.612.217-.799-.198-.207.083.347.503.553.424.208.735-.16.509-.367-.226-.484-.08-.255.472.227.554-.03 1.248-.267.627-.239-.621-.611-.818-.643-.077-.034.743-.392 1.208-.316.608.075-.602-.213-1.022-.213-1.022s-.109.717-.122 1.182c-.016.468-.243-1-.191-1.205.053-.197-.114.844-.482 1.558-.374.712.435-.563.128-1.525-.309-.961-.468.994-.635 1.528-.166.535-.61.725-.61.725s.434-.663.543-1.596c.111-.937-.336-.122-.336.083-.143.343-.994 1.742-.901 1.592.089-.149.338-.914.58-1.65.241-.733-.751.52-.724.681-.063.25-.758 1.078-.86.979-.104-.099-.482-.387.073-.873.559-.487.63-.672.781-.856.151-.185.227-.491.227-.491s-.874 1.033-1.132 1.242c-.257.208-.534.499-.715.609-.183.114-.594.146-.089-.243.503-.385.521-.441.691-.617.176-.179.255-.3.255-.3s-1.283.073-1.432-.13c-.151-.204-.348-.727-.064-.746.283-.013.607.013.607.013s-.964-1.073-.475-1.013c.494.057.465-.914.627-.946.12-.022.362.099.706-.226.111-.104-.793-1.138-.554-1.16.276-.022.413-.659.511-.743.254-.216.765.934.847.398.118-.739.549-1.723.85-.834.095.516.542-1.303.679-1.252.139.051.367.981.367.981z"/><linearGradient id="n" gradientUnits="userSpaceOnUse" x1="53.554" y1="58.018" x2="61.856" y2="58.018" gradientTransform="matrix(1 0 0 -1 0 101)"><stop offset="0" stop-color="#008245"/><stop offset="1" stop-color="#00af4c"/></linearGradient><path fill="url(#n)" d="M58.268 39.88c.211-.166.188-.599.396-.764-.038.197-.013 1.016-.058 1.21 0 0 .732-1.168.814-.621.124.548-.063 1.127.193.939.263-.188.904-.49.794-.249-.117.239-.834.956-.834.956.376-.134 1.61-.802 1.809-.137-.758.162-1.516.503-1.261.627.261.128 1.096.274 1.096.274s-.363.181-.596.254c-.232.074-.214.208.102.319.315.118.17.063.51.188.342.125.186.415-.614.214-.796-.191-.203.086.351.506.555.42.204.735-.158.51-.363-.229-.483-.083-.256.471.229.558-.031 1.249-.267.627-.236-.621-.612-.821-.646-.076-.031.742-.395 1.208-.316.605.076-.599-.211-1.02-.211-1.02s-.108.717-.121 1.182c-.014.468-.241-1-.189-1.201.051-.2-.113.841-.486 1.551-.368.717.44-.561.132-1.522-.31-.962-.472.994-.634 1.529-.166.535-.611.72-.611.72s.434-.657.545-1.593-.341-.124-.341.08c-.14.348-.99 1.746-.897 1.596.088-.149.338-.911.579-1.649.241-.736-.752.521-.728.681-.063.246-.758 1.073-.855.978-.105-.099-.484-.386.073-.875.554-.487.627-.669.776-.854.152-.188.229-.49.229-.49s-.876 1.032-1.134 1.242c-.255.204-.531.497-.714.608-.182.114-.592.147-.09-.242.508-.386.522-.44.695-.619.172-.178.254-.299.254-.299s-1.287.073-1.437-.13c-.149-.208-.341-.727-.062-.746.28-.016.605.013.605.013s-.965-1.073-.473-1.016c.49.061.466-.911.625-.943.121-.025.359.096.707-.229.107-.103-.793-1.134-.555-1.157.273-.022.408-.659.51-.742.256-.217.766.933.848.395.117-.736.549-1.724.848-.832.096.516.541-1.303.682-1.255.141.053.371.986.371.986z"/><path fill="#7F391A" d="M33.654 35.417s1.512 4.147 5.808 6.103c4.299 1.949 5.223 2.539 6.102 4.586.879 2.051 2.001 3.37 1.073 4.931-.926 1.563-.538 2.883-.388 5.125.146 2.245.146 3.904.146 4.542 0 .635.443.045.487 1.829.042 1.783.911 2.951.475 3.479-.433.521-.475 1.868-.042 2.693.434.824.478 1.956.306 2.523-.114.361-.249 1.365-.344 2.261h2.198c-.01-.255-.019-.52-.032-.783-.086-1.829-.564-3.217 0-5.217.567-2.005.395-2.349.044-4.263-.351-1.914-.65-2.435-.695-3.738-.044-1.305-.044-1.916-.044-3.043 0-1.131-.347-2.915-.347-2.915s1.411-1.818 1.411-3.375c0-1.562.306-3.424.644-3.979.334-.558 1.024-2.542 2.032-3.992 1-1.449 3.121-2.946 3.566-3.5.446-.557 3.014-4.329 3.014-4.329-1.318 1.787-3.217 4.093-4.99 4.297-.577-1.427-.953-4.482.047-6.811-1.115 1.873-1.484 4.418-1.248 6.664-1.693-1.344-2.803-3.392-3.064-6.462-.229 3.01.471 6.616 2.841 7.521-.299 1.003-2.175 3.567-3.01 5.574-.838 2.007-1.449 2.896-1.449 2.896s-2.672-4.179-2.619-6.071c.058-1.895.166-4.29.561-5.905.389-1.618.443-5.743.443-5.743-.197 1.035-1.099 6.269-2.258 6.308-1.096.032-2.607-3.469-3.203-4.409.306.937 2.429 6.53 2.451 7.132.057 1.449-.443 2.227-.443 2.227-.54-.242-1.077-.481-1.618-.726l-2.843-6.686c.375 1.619.744 3.233 1.116 4.851.001-.002-5.962-3.458-6.128-3.595z"/><path fill="#7F391A" d="M49.451 73.49v-.06c-.096-1.203-.65-2.593-.606-4.354.045-1.762-.276-3.332-.184-4.77.095-1.437-.045-4.951-.045-5.418 0-.463 1.897-4.258 1.897-5.74 0-1.483.6-4.908.881-5.324.272-.417.924-1.157 1.433-1.762.51-.602 1.394-2.453 1.394-2.453s-.049 2.873-1.346 4.491c-1.296 1.622-1.714 2.408-1.714 3.889 0 1.479.141 3.058-.231 3.981-.369.926-.834 2.362-.924 2.777-.092.416 0 2.314 0 2.314s.786 4.215.786 4.446c0 .232-.324 1.804-.37 2.593-.047.787-.372 1.897-.372 2.408 0 .51-.044 1.389.044 1.803.044.188.194.67.347 1.176h-.99v.003z"/><linearGradient id="o" gradientUnits="userSpaceOnUse" x1="44.629" y1="69.285" x2="52.932" y2="69.285" gradientTransform="matrix(1 0 0 -1 0 101)"><stop offset="0" stop-color="#008245"/><stop offset="1" stop-color="#00af4c"/></linearGradient><path fill="url(#o)" d="M49.345 28.611c.207-.166.185-.596.398-.765-.044.198-.019 1.016-.061 1.21 0 0 .73-1.168.813-.621.124.547-.063 1.127.196.939.263-.188.906-.491.791-.248-.119.238-.834.956-.834.956.375-.134 1.61-.803 1.814-.138-.758.163-1.521.501-1.265.631.258.124 1.099.271 1.099.271s-.369.182-.599.255c-.23.073-.212.207.102.321.313.115.173.064.511.185s.186.414-.615.216c-.799-.197-.207.083.352.503.551.42.206.739-.163.51-.362-.23-.481-.083-.255.471.229.558-.031 1.246-.268.628-.236-.622-.608-.822-.645-.076-.031.742-.392 1.207-.312.605.073-.599-.217-1.02-.217-1.02s-.105.713-.121 1.182c-.013.465-.246-1-.191-1.201.051-.201-.111.837-.484 1.551-.366.716.44-.561.134-1.522-.309-.962-.471.991-.637 1.529-.166.535-.611.723-.611.723s.439-.659.547-1.596c.108-.933-.341-.124-.341.083-.143.344-.991 1.742-.901 1.593.089-.15.338-.914.58-1.65.242-.735-.752.521-.72.682-.07.245-.764 1.077-.863.978-.099-.096-.48-.386.074-.876.557-.488.63-.669.783-.857.147-.185.223-.487.223-.487s-.873 1.032-1.131 1.242c-.258.204-.531.494-.716.608-.178.114-.593.143-.086-.243.506-.385.519-.442.691-.618.172-.178.255-.299.255-.299s-1.287.073-1.433-.134c-.15-.204-.344-.723-.064-.742.287-.016.608.013.608.013s-.965-1.073-.475-1.014c.491.058.465-.914.624-.945.121-.023.363.099.708-.227.108-.105-.793-1.134-.554-1.159.274-.023.414-.66.51-.742.254-.216.764.933.847.395.118-.736.548-1.724.851-.832.096.516.542-1.303.678-1.251.141.05.373.983.373.983z"/><linearGradient id="p" gradientUnits="userSpaceOnUse" x1="34.802" y1="65.336" x2="40.324" y2="65.336" gradientTransform="matrix(1 0 0 -1 0 101)"><stop offset="0" stop-color="#008245"/><stop offset="1" stop-color="#00af4c"/></linearGradient><path fill="url(#p)" d="M37.937 33.602c.142-.111.125-.398.263-.51-.024.127-.006.675-.035.803 0 0 .482-.774.54-.411.083.362-.045.748.127.624.176-.127.605-.328.529-.166-.08.159-.556.634-.556.634.249-.086 1.072-.532 1.204-.089-.501.108-1.01.335-.836.421.17.079.728.178.728.178s-.244.121-.395.172c-.157.048-.144.138.065.21l.339.125c.226.083.121.274-.404.144-.534-.131-.143.054.226.337.37.28.139.487-.104.337-.242-.152-.323-.057-.171.313.152.369-.018.828-.177.417-.158-.411-.406-.545-.426-.052-.023.495-.262.803-.212.405.053-.401-.138-.678-.138-.678s-.073.475-.081.787c-.011.312-.165-.666-.129-.8.035-.137-.077.557-.32 1.032-.246.475.29-.376.087-1.016-.206-.638-.314.662-.424 1.019-.111.357-.408.481-.408.481s.29-.439.365-1.061c.075-.622-.228-.083-.228.054-.092.229-.659 1.159-.599 1.061.062-.099.227-.608.386-1.099.161-.487-.499.348-.479.453-.043.166-.506.716-.573.653-.067-.064-.32-.258.048-.583.372-.325.422-.446.519-.57.1-.124.153-.325.153-.325s-.583.688-.751.825c-.172.137-.357.332-.477.408-.121.073-.396.092-.059-.163.336-.258.346-.293.458-.411.117-.118.169-.201.169-.201s-.854.051-.954-.086c-.099-.137-.227-.484-.04-.494.188-.013.403.006.403.006s-.642-.713-.315-.675c.327.042.309-.605.417-.624.08-.02.239.06.467-.153.075-.071-.524-.755-.365-.771.181-.016.273-.44.338-.494.17-.144.508.618.563.264.077-.49.367-1.146.568-.553.059.343.357-.867.449-.835.092.032.245.657.245.657z"/><path fill="#541210" d="M52.043 63.243c0-.741.462-5.972.645-6.481.188-.513.838-1.714 1.069-2.593.229-.882 2.269-4.908 5.274-4.956 3.014-.048 8.38-.506 6.715-.787-1.669-.276-8.378.602-4.859-.923 3.516-1.532 4.12-4.447 4.12-4.447s-.513.831-.745 1.064c-.229.233-.599.694-1.061 1.063-.463.373-2.131.975-3.335 1.533-1.204.554-.694.277-1.898.875-1.204.603-.372.185-1.345.834-.971.65-.648.462-1.666 1.16-1.02.694-.973 1.019-1.665 2.079-.694 1.068-.604 1.113-.976 2.271-.369 1.155-.782 4.584-1.205 5.461-.412.884-.092 4.168-.229 5.051-.141.876-.369 3.611-.369 4.488 0 .123-.007.371-.014.709h-3.71a4.953 4.953 0 0 1-.054-.709c0-1.44.742-4.229.93-5.482.185-1.256-.236-2.973-.513-4.553-.28-1.58-.65-3.856-1.208-6.319-.561-2.462-1.299-3.204-2.79-4.459-1.484-1.251-2.599-3.669-5.2-5.016-2.602-1.344-7.572-.602-7.572-.602s2.835.602 5.295.975c2.463.372 4.043 2.694 4.878 3.345.838.649 2.462 2.229 3.205 2.834.745.603 1.162 2.182 1.439 3.294.28 1.118.328 1.487.465 2.373.14.882.14 1.856.325 3.11.188 1.254.328 2.832.28 3.67-.044.836-.141 2.604-.28 3.998-.656 6.565-5.409 12.596-12.481 14.016h28.815c-6.576-2.08-10.28-10.551-10.28-16.876z"/></svg>