<svg xmlns:xlink="http://www.w3.org/1999/xlink"  xmlns="http://www.w3.org/2000/svg" viewBox="0 0 150 150"><path fill="#006DB6" d="M117 75.3c-4.2 8.5-7 18.3-16.4 22.3-9.3 3.6-20.3 6.8-29.4 1.6-.6-.4.4-1.6 1.6-2 3.4-1.4 6.7-1.6 10.2-1.7 6 .2 12.1.3 17.1-3.5 4.6-3.9 7.9-8.7 9.3-14.4-8.9 7.2-20.5 7-31.2 7.2-15.5.4-31.4 2.4-44.2 12.4-12.2 9.2-18.6 23.3-22.9 37.4 7.5-11.2 20.2-18.3 34.6-17.7 17.4.5 33.5.5 49.9-4.7 7.4-2.1 14.5-5.4 19.1-11.7 5.7-8.4 8.1-18.2 13.2-27 4.1-6.4 8.3-12.8 14.3-17.8-12.2-1-20 9.7-25.2 19.6z"/><path fill="#FD4F57" d="M61 70.3c.2-.2.3-.4.5-.6-6.4.1-32.3 1.4-30.7 12.8 14.9 1 25.4-7.3 30.2-12.2zM62.5 69.9S51.9 85 42.6 89.3c9.5-4.1 20.3-19.5 20.3-19.5h-.5s0 .1-.1.1h.2z"/><path fill="#FFC03B" d="M52.1 66c-11 1.1-26.8.7-23.5-11 .4-1.3.9-2.4 1.5-3.2C40.4 63 54 64.1 60.8 63.8c.2 0 .4-.1.5-.1-4.7-4.2-28.5-24.4-32.9-8.6-3.2 11.7 12.7 12 23.7 10.9z"/><path fill="#00A9DE" d="M47.1 30.5c1.2-.7 2.3-1.1 3.3-1.3-.4 15.2 8.6 25.5 13.7 30 .2.2.5.3.7.5v.1c.2.2.3.2.3.2s-3-39.3-18.5-29.6c-5.4 3.4-4.8 8.1-1.6 12.7-2.9-4.7-3.4-9.4 2.1-12.6z"/><path fill="#6CAB36" d="M71.6 57.1c4.4-5.9 17.9-25.7 8.6-31.4-9.8 11.3-9.5 24.7-8.6 31.4z"/><path fill="#6CAB36" d="M70.9 58.1c-1.3-4.4-8.4-29.4 1.2-33.4-10.9 3.9-1.8 34.1-1.8 34.1s.2-.2.6-.7z"/><path fill="#FD4F57" d="M76.3 60.1c-.1.2-.3.5-.4.7-.3 0-.5.1-.7.1-.2.3-.3.5-.3.5s33.5-5.3 29.6-17.8c-14.9 1.2-24.1 11-28.2 16.5z"/><path fill="#6CAB36" d="M111.2 71.4c0 .2-.1.4-.1.6 0-.2 0-.4.1-.6zM76.6 66.6s.1 0 .2.1c-.1-.1-.2-.1-.2-.1zM111 72.3c-.1.2-.1.4-.2.6 0-.2.1-.4.2-.6zM110.7 73c-.1.2-.2.5-.3.7.1-.2.2-.5.3-.7zM111.2 71.2c.1-.3.1-.6.1-.9 0-.2 0-.5.1-.7 0 .2 0 .5-.1.7 0 .3 0 .6-.1.9z"/><path fill="#6CAB36" d="M78.2 67c-.2.1-.4.1-.5.2 5 3.1 27.7 16.8 32.8 6.5-12.1-9.3-25.7-8.1-32.3-6.7z"/><path fill="#A3C97F" d="M76 66.6s.7.4.8.4c-.1 0-.2-.1-.2-.1s.9.4 1 .3c.2-.1.4-.2.5-.2 6.7-1.4 20.3-2.6 32.3 6.7.1-.2.2-.4.3-.7 0 0 0-.1.1-.1.1-.2.1-.4.2-.6 0-.1 0-.1.1-.2.1-.2.1-.4.1-.6v-.2c.1-.3.1-.6.1-.9 0-.2-.3-.5-.3-.7 1-17.2-35-3.1-35-3.1z"/><path fill="#FF827E" d="M75 61.5c-.1.1.1-.5.1-.5s-.2.5-.1.5c.2 0 .6-.6.9-.7.1-.2.3-.4.4-.7 4-5.5 13.3-15.3 28.3-16.5h.3c-.3-1-.8-2.1-1.6-3.2-10.7-14.8-28.4 20.4-28.4 20.4s-.1.7.1.7z"/><path fill="#A3C97F" d="M70.9 58.1s.7-1 .8-.8v-.2c-1-6.8-1.2-20.2 8.6-31.4l.2-.2c-.9-.5-2-.9-3.4-1.2-2-.3-3.6-.2-4.9.3-9.7 4.1-2.7 29.1-1.3 33.5z"/><path fill="#3FBCE5" d="M64.1 59.2C59 54.7 50 44.4 50.4 29.3c-1 .2-2.1.6-3.3 1.3-5.5 3.2-5 7.8-2.1 12.5 5.5 8.7 19.6 17.6 19.6 17.6s.5-.2.5-.7l-.3-.3c-.2-.1-.5-.3-.7-.5z"/><path fill="#FFD581" d="M30.1 51.8c-.6.8-1.1 1.9-1.5 3.2-3.3 11.6 12.5 12 23.5 11 5.7-.5 10.1-1.5 10.1-1.5l-.2-.2c.1 0-.6-.6-.7-.6-.2 0-.3 0-.5.1-6.9.3-20.4-.8-30.7-12z"/><path fill="#FF827E" d="M31.5 85.9c2.7 5.1 6.7 5.4 11.1 3.4 9.4-4.4 19.9-19.4 19.9-19.4h-.2s-.2-.2-.8-.2c0 0-.4.4-.5.6-4.8 4.8-15.3 13.2-30.2 12.2h-.4c.1 1.1.5 2.2 1.1 3.4z"/></svg>