<svg xmlns:xlink="http://www.w3.org/1999/xlink"  xmlns="http://www.w3.org/2000/svg" viewBox="0 0 150 150"><path fill="none" d="M43.6 36.3c.6-.4 1-.6 1-.6s-.2 0-1 .6z"/><path fill="#FFC03B" d="M90 28l6.7 5c-2.2-3.8-6.7-5-6.7-5zM38.8 32.7l15.8-8.8c-10 1.4-15.8 8.8-15.8 8.8zM38.8 59.8c2.2-2.5 5.4-4.3 9.1-4.9 8-1.4 15.5 3.3 16.7 10.4.5 3.1-.2 6.2-2 8.7 2.8-.9 5.5-2.2 8-4 .9-.6 2-.8 3-.4.1 0 .1 0 .2.1-.9-5.1 1.3-10.8 6.1-14.4 6.5-4.9 15.3-4.1 19.6 1.6 1 1.3 1.7 2.9 2 4.5 5.2-6.8 5.4-10 5.4-10v.3c-.1-.8.1-1.6.5-2.3-1.7-3.6-3.9-7-6.6-10l4.2 2.8c-2.4-4.7-7.3-7.8-7.6-8.2-.2-.3.8 1.9 1.4 3.3-7.5-7.7-18-12.3-29.7-12.3-12.7 0-24.1 5.6-31.8 14.4 1 0 4.5-2 6.3-3.1.9-.6 1-.6 1-.6s-.4.3-1 .6c-.6.4-1.6 1.1-3.2 2.2-3.8 2.7-5.7 6.3-5.7 6.3s.8-2.2 1.3-3.2c.2-.4.1-.5-.2-.6-3.3 4.2-5.9 9-7.5 14.3 4.2-.3 8 2.1 10.5 4.5z"/><path fill="#00A9DE" d="M81.9 57.8c-5.1 3.8-6.6 10.4-3.4 14.7.1.2.2.3.4.4 1.7 2 4.2 3 6.9 3.1h.8c2.4-.1 4.9-.9 7.1-2.6 1.3-1 2.4-2.2 3.3-3.5.9-1.4 1.4-2.8 1.7-4.3 0-.2.1-.5.1-.7.2-2.2-.3-4.4-1.7-6.2-3.4-4.2-10.1-4.7-15.2-.9z"/><path fill="#00A9DE" d="M132.5 120.1c-1-.2-2.1-.3-3.5-.1-.4-1-.8-2.1-1.2-3.1-1.3-3.2-2.7-6.2-4.1-9.2l-.6-1.2c-.3-.6-.6-1.2-.8-1.7l1.8-1c-1.1-3.3-3.3-7.6-5.5-11.3-2.3-4.2-4.8-7.9-6.9-10.8-.7-.9-1.3-1.7-1.9-2.5-.4-.5-.7-.9-1-1.3l-.3-.3c-.8-.9-1.3-1.6-1.7-2.1.4-.4.8-.8 1.1-1.2.4-.4.7-.8 1.1-1.2.8-.9 1.6-1.7 2.3-2.6 4.8-5.6 8-10.7 10-15.3l.3-.6c4.8-11.6 1.7-19.8-3.7-24-8.3-6.5-19.1 1.1-19.1 1.1l1.4.7s7.2-4.7 10.8 3.2c1.6 3.4 1.7 6.8 1.4 9.5 0 .8-.1 1.7-.3 2.5 0 .1 0 .3-.1.4-.2.9-.5 1.8-.8 2.7 0 .1-.1.3-.1.4-.1.1-.1.3-.2.4-.1.1-.1.3-.2.4-.1.2-.1.3-.2.5-.2.4-.4.9-.6 1.3-.2.3-.3.6-.5.9-.5 1-1.1 2-1.7 2.9-1.3 2.3-3.2 5.1-6.2 8.6-1.1 1.3-2.4 2.8-3.9 4.3-.1.1-.1.1-.1.2-3.5 3.6-7.3 6.4-11 8.5-3 1.7-5.9 3.1-8.6 4-6.3 2.4-11 2.9-11.1 2.9v.4l-.2 1.5.2 1.1v.9c9.1.6 16.9-1 23.4-3.6.6-.2 1.2-.5 1.8-.8.5-.2 1-.4 1.4-.7.6.6 1.2 1.4 1.7 2.3.1.1.1.2.2.4.5.9.9 1.8 1.2 2.7.5 1.3.9 2.5 1 3.1.1 1.4 0 2.6-.2 3.6-1.1 4.5-5.3 5.4-5.3 5.4l1.7 2.5c-.9.6-1.9 1.1-2.9 1.5-3.2 1.4-6.8 1.9-9.6 2-1.1 0-2.1 0-2.9-.2v.2l-.3-.4-2.3 6.1-1 2.7-.6 1.6s1.4-.1 3.2-1.1c.7-.4 1.5-.9 2.2-1.6.8-.7 1.6-1.7 2.3-2.9 1 .2 2.1.3 3.3.4 2.8.2 6.2 0 9.5-1.2 1-.4 2-.8 3-1.3l1.7 2.6c5.8-3.9 7.9-8.4 8.7-11.8.6-2.8.3-4.7.3-4.7l1.2 2.6 4.6 9.6 1.8-.9c.6 1 1.1 1.9 1.6 2.8 2.9 5 5 9.1 6.4 11.9 1.3 2.5 1.9 4 1.9 4l8.4-1.8 3-.6c0 .1-.9-3.3-4.7-4.2z"/><path fill="#AB5153" d="M26.5 68.3c.1 0 .2-.1.3-.1 5-1.5 7.4-4 9.6-4.5.3-.1.6-.1 1-.1.3 0 .6.1.9.2 0 0-.1-.2-.4-.5-.2-.2-.5-.6-.8-.9-1.8-1.8-5.4-4.7-9.3-3.8-1.1.4-1.9.7-2.8 1.4-6.4 4.8-9.1 1.1-9.1 1.1s4 9.2 10.6 7.2zM71.5 120.6l-2.7.3c-.4-.8-.9-1.8-1.4-3-1.6-3.2-4-7.3-7.1-11.9-.8-1.2-1.6-2.4-2.5-3.6-.2-1.4-.5-3.7-1-6.6-.3-1.8-.6-3.9-1.1-6.1-.2-1-.4-2.1-.6-3.2l.1.2s1.2-.1 3.2-.3c1.4-.2 3.3-.5 5.4-.9h.2c1.6-.3 3.3-.8 5.1-1.3.1 0 .3-.1.4-.1 2.2-.7 4.1-1.5 5.7-2.3.7-.4 1.4-.7 2-1.1.6-.4 1.2-.7 1.6-1 .1-.1.2-.1.3-.2.3-.2.5-.4.7-.6.3-.2.6-.5.9-.7.2-.2.5-.4.7-.6 0 0-.7-.2-1.7-.8-.9-.6-2-1.5-3.1-2.8-.6-.8-1.2-1.7-1.8-2.8 0 0-.2.2-.5.4-.3.3-.9.7-1.5 1.1l-.9.6c-.1 0-.1.1-.2.1-1.6 1.1-3.3 1.9-4.9 2.6-3.3 1.4-6.4 2.1-8.7 2.4h-.2c-.4.1-.8.1-1.2.2-1.4.2-2.8.3-4.2.4h-5.9c-.3 0-.6 0-1-.1-1.5-.1-2.9-.3-4.4-.5-.7-.1-1.3-.2-2-.3-8-1.3-13.7-3.6-13.7-3.6l-.7 2.5c4.2 3.3 8.5 5.6 12.8 7.1 1 .4 2.1.7 3.1.9-.4 1-.8 2-1.4 3 0 .1-.1.2-.1.3-1 1.8-2.2 3.6-3.8 5.3-1.7 1.8-3.9 3.3-6.5 4.2 0 0 .8.8 2.3 1.8.8.6 1.7 1.2 2.8 1.8-.8.8-1.8 1.6-2.8 2.1-.8.4-1.6.7-2.5.9-7.4 1.2-12.6-1.6-12.6-1.6l-4.1 9.5 7.2-4.5s11.2 5.7 19.6-.5c.9-.7 1.8-1.5 2.7-2.5 1.1.3 2.3.6 3.5.8h.4c1.7.2 3.1.2 4.5.2.9.9 1.8 1.9 2.9 3 4.5 4.7 10.1 10.8 13.2 15 .9 1.2 1.6 2.2 1.9 3 0 0 .2-.4.6-.9l4.5-3.8.6-.5 2-1.6-3.1.4-1 .2z"/><path fill="#AB5153" d="M48.5 58.1c-3 .5-5.6 2-7.3 3.9-.1.1-.2.2-.2.3-1.2 1.4-1.9 3-2.2 4.8-.1.9-.1 1.7 0 2.6.4 2.4 1.8 4.3 3.7 5.7.2.2.5.3.7.5.4.3.9.5 1.4.7 1.8.8 3.9 1.1 6.1.9.4 0 .7-.1 1.1-.1 1.2-.2 2.4-.6 3.5-1.1.6-.3 1.1-.6 1.6-.9l.9-.6c2.8-2.2 4.4-5.6 3.8-9-1-5.3-6.8-8.8-13.1-7.7z"/></svg>