<svg xmlns:xlink="http://www.w3.org/1999/xlink"  version="1" xmlns="http://www.w3.org/2000/svg" viewBox="0 0 150 150"><path fill="#9DD6C9" d="M96 16.4s0-.1.1-.1l-.5.5c.2-.1.3-.2.4-.4z"/><path fill="none" d="M110 83.8c-18 6.7-39.8 15.5-55.2 32.3 6.1 2.6 12.8 4 19.9 4 24.9 0 45.7-17.8 50.2-41.4-4.3 1.2-9.8 2.9-14.8 4.9-.1.1-.1.2-.1.2zM25.2 56.4c-1 4.1-1.6 8.3-1.6 12.7 0 17.5 8.8 33 22.3 42.2-1.5-16.6-6.2-42.1-20.7-54.9z"/><path fill="#735897" d="M45.9 111.3c2.8 1.9 5.8 3.5 8.9 4.8C70.2 99.4 92 90.5 110 83.8v-.1c5-2 10.5-3.6 14.8-4.9 3.8-1.1 7-1.9 9.4-2.5 3.1-.7 4.8-1 4.8-1-1.6-.8-3.3-1.4-4.9-2-2.9-1.1-6-2-8.7-2.6-5.6-1.3-10.4-1.8-16.4-1.7-30 .8-51 22.6-51 22.6C56.5 55.9 41 47.8 28.5 47c-1.4 3-2.5 6.1-3.4 9.4 14.6 12.8 19.3 38.3 20.8 54.9zM12.4 49.7c2.6.6 4.9 1.6 7.1 2.8.7-1.8 1.6-3.5 2.5-5.2-5.6.7-9.6 2.4-9.6 2.4z"/><path fill="#735897" d="M66.6 37.3c-6.8 2.8-9.8 11.4-6.6 19.2 3.2 7.8 11.4 11.8 18.2 9 6.9-2.8 9.8-11.4 6.6-19.2-3.2-7.8-11.3-11.8-18.2-9z"/><path fill="#60BE87" d="M99.3 41.8c-4.5-3.5-6.4-9.7-4.9-15.3-3.7 6.2.6 16.2 7.1 18.8 6.8 2.8 14.1.2 17.7-6.2 3.9-7.1-.6-17.1-8.8-19.2-6.2-1.6-13.1 2.4-14.8 8.6-1 3.6.4 10.1 3.7 13.3z"/><path fill="#0D2240" d="M124.7 78.8c-4.5 23.6-25.2 41.4-50.1 41.4-7.1 0-13.8-1.4-19.9-4-3.1-1.3-6.1-3-8.9-4.8-13.5-9.2-22.3-24.7-22.3-42.2 0-4.4.6-8.6 1.6-12.7.8-3.3 2-6.4 3.4-9.4 8.2-17.1 25.8-29 46-29 7.3 0 14.3 1.6 20.6 4.4.6-.8 1.3-1.6 2.1-2.3-7-2.9-14.7-4.5-22.7-4.5-22.8 0-42.6 12.8-52.6 31.6-.9 1.7-1.7 3.4-2.5 5.2-2.9 7-4.5 14.7-4.5 22.7 0 32.9 26.7 59.6 59.6 59.6 32.5 0 59-26.1 59.5-58.5-2.3.6-5.5 1.4-9.3 2.5z"/><path fill="#0D2240" d="M122.6 40l-.3.6c-.8 1.5-1.8 2.8-2.9 3.9 4 7.3 6.3 15.7 6.3 24.6v1.5c2.8.7 5.6 1.5 8.5 2.6-.5-12.4-4.7-23.8-11.6-33.2z"/></svg>