<svg xmlns:xlink="http://www.w3.org/1999/xlink"  xmlns="http://www.w3.org/2000/svg" viewBox="0 0 150 150"><path fill="#7FCBEB" d="M20 19v111h112V19H20zm86.4 10.6s4-2 4.5-3.7c.5-1.7 3 4.4-4.5 7.7 0 0 1-2.3 0-4zM84 39.3c3.7-4.7 18.4-6.5 19.6-8.7 1.2-2.2 2.8.3 1.2 2.7-1.3 1.8-3.6 3-4.5 3.4.6-.2 1.6-.3.9 1.7-.8 2.7-3.8 5-3.8 5s.8 2.7-2.5 5.5c0 0-6.2 9.9-6.9 22.3l-3.5 1.5c0-.1-4.2-28.7-.5-33.4zm29.7 2.9s.7-2.4-2.4-3.7c-.7-.3-1.4-.4-2-.4 7.3 1.8-1.8 17.3-1.8 17.3s6-5.7 8.7-3.9c2.7 1.8-2.1 5.4-2.1 5.4s9.7-3 9.1 2.1c-.5 4.1-7 9.3-15.3 13.6 2.9 1.3 5.3 3 7 4.7 3.1 3.2 4.4 6.9 3.8 10.2 1.6 1.8 3.3 2.5 7.5 2.5 5.5 0-18 12.5-39 6.1-5.6-1.3-10.7-3.5-14.7-6.7-4.8-3.8-7.3-8.4-7.3-13.3 0-6.9 2.6-12.4 5.4-16.2-2.9-.3-5.3-1.4-6.7-3.1-.5.1-1 .2-1.6.3-.2 0-.4.1-.5.1-.4.1-.8.1-1.1.2-.2 0-.4.1-.6.1-.4.1-.7.1-1.1.1-.2 0-.4.1-.7.1-.3 0-.7.1-1 .1-.2 0-.5.1-.7.1-.3 0-.7.1-1 .1-.2 0-.5 0-.7.1-.3 0-.7.1-1 .1-.2 0-.4 0-.7.1-.3 0-.7.1-1 .1h-.6c-.4 0-.7 0-1.1.1h-1.1c5.6 7.6 17.4 26.7 16 35.3-1.8 10.8-37 12.6-38.3.8-.1-.4-.1-1-.1-1.6-1-.8-1.9-1.7-2.5-2.8-1.1.5-2.9-.7-2.3-2 .4-.7.9-.9 1.3-.9-.1-.4-.1-.8-.1-1.2 0-3.9 2.7-7.2 6.6-8.4.2-.8.5-1.5.7-2.3-.1 0-.2 0-.3.1-.3.2-.5.6-.5.7.2.1.3.3.3.6 0 .1 0 .2-.1.3-.1.3-.5.5-.8.4-.5-.2-.8-.6-.8-1.1 0-.8.6-1.6 1.4-2 .4-.2.9-.2 1.3-.1 2.9-8.1 6.2-14.9 6.2-14.9l4.4-.3c-.3 10.3-.3 17.7-.2 22.8.8 1.3 1.2 2.7 1.2 4.3 0 1.3-.3 2.5-.8 3.6.1.8.1 1.2.1 1.2 3.3-3.9 2.3-24.3 1.4-32h-9.4c-6-.2-10-.6-10-.6 12.9-8 34.7-8.3 40.7-8.3 1.5-1.4 3.8-2.3 6.4-2.4-.1-.9 0-1.7.2-2.4.2-.5.8-.8 1.3-.6.5.2.8.8.6 1.3-.1.4-.1 1-.1 1.7 4.5.4 8.1 3 8.1 6.3 0 2-1.4 3.8-3.5 5-2.8 2.7-7.9 8.8-7.9 17.5 0 .7.1 1.4.2 2.1.7 2.3 2 4.2 4.9 3.4.1 0 .1 0 .2-.1.1-.2.1-.3.2-.5 1.7-3.6 6.3-6.5 13.7-8.8 1.9-7.4 7.1-25.1 13.6-31.8h-.2s3.4-4.4 11.6-5.5c8.2-1.2 12.1-4.5 12.6-5.7.5-1.2 2.9 4.4-.5 7.9-3.6 3.2-12.5 4.7-12.5 4.7zm12.1-2.9s-1.2 8.1-13.6 10.8l1.7-5.9s9.4-1.7 11.9-4.9z"/><path fill="#D2B8A5" d="M38.9 58.9h-.7.7zM40.4 59h-.7.7zM55.6 58.2c-.2 0-.5 0-.7.1.3-.1.5-.1.7-.1zM52.2 58.5h-.6.6zM53.9 58.3c-.2 0-.4 0-.7.1.3 0 .5-.1.7-.1zM37.5 58.9h-.7.7zM50.5 58.6h-.6.6zM68.6 53c.7.1 1.2.2 1.6.3v.2c.1-1.7-2.7-1-2.7-1s.8-2.3-1.4-2.5h-1.5c-5.9-.1-27.8.3-40.7 8.3 0 0 4 .4 10 .6-4.7-.1-8.2-.4-9.5-.5C32 55.7 68.6 53 68.6 53zM42.8 58.9h.6-.6z"/><path fill="#D2B8A5" d="M34.9 58.9h-.8c.3-.1.5-.1.8 0zM36.2 58.9h-.8.8zM41.9 58.9h-.7.7zM60.7 57.5c-.2 0-.4.1-.6.1.2 0 .4-.1.6-.1zM62.4 57.2c-.2 0-.4.1-.5.1.1 0 .3 0 .5-.1zM59 57.8c-.2 0-.4.1-.7.1.3-.1.5-.1.7-.1zM57.3 58c-.2 0-.5.1-.7.1.3-.1.5-.1.7-.1z"/><path fill="#7B6648" d="M73.3 52.4c.5-.2.8-.8.6-1.3-.4-1-.7-2.4-.9-3.6-.1-.7-.1-1.3.1-1.7.2-.5-.1-1.1-.6-1.3-.5-.2-1.1.1-1.3.6-.2.7-.3 1.5-.2 2.4.2 1.9.8 3.8 1 4.3.2.6.8.8 1.3.6z"/><path fill="#00AEE0" d="M126.5 29.2c-.5 1.2-4.4 4.5-12.6 5.7-8.2 1.2-11.6 5.5-11.6 5.5h.2c-6.6 6.7-11.7 24.4-13.6 31.8-7.4 2.3-12 5.2-13.7 8.8-.1.2-.1.3-.2.5-.1 0-.1 0-.2.1-2.8.8-4.2-1.1-4.9-3.4-.1-.7-.2-1.3-.2-2.1 0-8.7 5.1-14.8 7.9-17.5 2.1-1.2 3.5-2.9 3.5-5 0-3.2-3.5-5.9-8.1-6.3.1 1.2.5 2.6.9 3.6.2.5-.1 1.1-.6 1.3-.5.2-1.1-.1-1.3-.6-.2-.5-.9-2.5-1-4.3-2.6.2-4.9 1.1-6.4 2.4h1.5c2.2.1 1.4 2.5 1.4 2.5s2.8-.6 2.7 1c-.1 1.7-3.5 1.2-3.5 1.2-.9.8-2.7 2.3-2.7 2.3h-.1c1.4 1.6 3.9 2.8 6.7 3.1-2.7 3.8-5.4 9.3-5.4 16.2 0 4.9 2.5 9.6 7.3 13.3 4 3.1 9.1 5.4 14.7 6.7 21 6.4 44.5-6.1 39-6.1-4.1 0-5.9-.7-7.5-2.5.6-3.3-.7-7-3.8-10.2-1.7-1.8-4.1-3.5-7-4.7 8.2-4.4 14.8-9.6 15.3-13.6.6-5.1-9.1-2.1-9.1-2.1s4.8-3.6 2.1-5.4c-2.7-1.8-8.7 3.9-8.7 3.9s9-15.5 1.8-17.3c.6 0 1.3.1 2 .4 3 1.3 2.4 3.7 2.4 3.7s8.9-1.5 12.3-5c3.3-3.5 1-9 .5-7.9z"/><path fill="#00AEE0" d="M112.2 50.1c12.4-2.7 13.6-10.8 13.6-10.8-2.5 3.2-11.9 4.9-11.9 4.9l-1.7 5.9zM88 71.1c.7-12.4 6.9-22.3 6.9-22.3 3.3-2.8 2.5-5.5 2.5-5.5s3-2.3 3.8-5c.6-1.9-.4-1.9-.9-1.7.9-.4 3.1-1.5 4.5-3.4 1.7-2.3 0-4.9-1.2-2.7s-15.9 4-19.6 8.7c-3.7 4.7.5 33.3.5 33.3l3.5-1.4zM110.9 25.9c-.5 1.7-4.5 3.7-4.5 3.7 1 1.7 0 4 0 4 7.5-3.4 5-9.4 4.5-7.7z"/><path fill="#B79377" d="M66.8 54.6s3.4.5 3.5-1.2v-.2c-.4-.1-1-.2-1.6-.3 0 0-36.6 2.7-44.2 5.3 1.3.1 4.7.4 9.5.5h9.4c-.2-1.9-.4-3-.6-3-.8 0 2.3-1 3.9-.5.3.1 1.4 1.3 2.8 3.3h1.1c.4 0 .7 0 1.1-.1h.6c.3 0 .7-.1 1-.1.2 0 .4 0 .7-.1.3 0 .7-.1 1-.1.2 0 .5 0 .7-.1.3 0 .7-.1 1-.1.2 0 .5-.1.7-.1.3 0 .7-.1 1-.1.2 0 .4-.1.7-.1.4 0 .7-.1 1.1-.1.2 0 .4-.1.6-.1.4-.1.8-.1 1.1-.2.2 0 .4-.1.5-.1.5-.1 1-.2 1.6-.3h.1c-.1.1 1.8-1.4 2.7-2.2z"/><path fill="#00AEE0" d="M32.5 77.2h.6c3.7 0 6.8 1.9 8.5 4.6-.1-5.1-.1-12.5.2-22.8l-4.4.3s-3.3 6.8-6.2 14.9c.3.1.5.2.7.4.8.7.8 1.7.6 2.6zM31 75.6c-.1-.1-.2-.1-.3-.2-.3.7-.5 1.5-.7 2.3.3-.1.7-.2 1.1-.3.2-.7.3-1.4-.1-1.8z"/><path fill="#00AEE0" d="M46.6 55.4c-1.5-.5-4.6.5-3.9.5.1 0 .4 1.1.6 3 .9 7.7 2 28-1.4 32 0 0 0-.4-.1-1.2-.9 1.8-2.3 3.2-4.1 4.2h.1c.4 1.1-.2 2.5-2.7 2.7-1.7.2-3.5-1.1-4.4-1.8-1.4-.3-2.6-.9-3.7-1.7 0 .6 0 1.2.1 1.8 1.3 11.8 36.5 10 38.3-.8 1.4-8.6-10.4-27.7-16-35.3-1.4-2.1-2.5-3.3-2.8-3.4z"/><path fill="#E1CFC2" d="M35.1 96.5c2.5-.2 3.1-1.6 2.7-2.7h-.1c1.8-.9 3.3-2.4 4.1-4.2.5-1.1.8-2.3.8-3.6 0-1.5-.4-3-1.2-4.3-1.6-2.7-4.8-4.6-8.5-4.6h-.6c-.2.8-.6 1.5-.9 2-.2.3-.6.4-.9.2-.3-.2-.4-.6-.2-.9.2-.2.4-.6.6-1.1-.4.1-.7.2-1.1.3-3.8 1.2-6.6 4.5-6.6 8.4 0 .4 0 .8.1 1.2-.4 0-1 .2-1.3.9-.6 1.2 1.2 2.5 2.3 2 .6 1.1 1.5 2 2.5 2.8 1.1.8 2.3 1.4 3.7 1.7 1.2.8 2.9 2.1 4.6 1.9zm-12-7.5c0 .3-1 .6-.7-.3.3-.9 1.1-.9 1.1-.9-.1.1-.4.8-.4 1.2zm15.3-.3c0 .2-.1.3-.3.3-.2 0-1.6 0-2.1-.8-.1-.2-.1-.4.1-.5.2-.1.4-.1.5.1.3.4 1.2.5 1.5.5.1.1.3.2.3.4zM36.1 81c.5-.2 1.1 0 1.3.5.1.1.6 1.5.7 2.6.1.5-.3 1-.9 1.1-.6.1-1-.3-1.1-.9-.1-.7-.5-1.7-.6-2.1-.2-.4.1-1 .6-1.2zm-1.7 1.5s-.3 1.2.5 2c.4.4.4 1 .1 1.4-.4.4-1 .4-1.4.1-1.8-1.6-1.1-4-1.1-4.1.2-.5.7-.8 1.2-.7.6.2.9.8.7 1.3zm-.8-3c.2-.1.4.1.4.2.1.2-.1.4-.2.4 0 0-1.3.4-1.3 1.4 0 .2-.1.3-.3.3s-.3-.1-.3-.3c-.1-1.5 1.6-2 1.7-2z"/><path fill="#7B6648" d="M31 77.4c-.2.5-.4.9-.6 1.1-.2.3-.1.7.2.9.3.2.7.1.9-.2.4-.5.7-1.3.9-2 .2-.9.2-1.9-.6-2.6-.2-.2-.5-.3-.7-.4-.4-.1-.9-.1-1.3.1-.8.4-1.4 1.2-1.4 2 0 .5.3 1 .8 1.1.3.1.7 0 .8-.4 0-.1.1-.2.1-.3 0-.2-.1-.4-.3-.6 0-.1.2-.5.5-.7.1-.1.2-.1.3-.1.1 0 .2.1.3.2.5.5.4 1.2.1 1.9zM36.5 87.9c-.1-.2-.3-.2-.5-.1s-.2.3-.1.5c.6.8 2 .8 2.1.8.2 0 .3-.2.3-.3 0-.2-.2-.3-.3-.3-.3-.1-1.2-.2-1.5-.6zM32.1 81.8c.2 0 .3-.1.3-.3 0-1 1.3-1.3 1.3-1.4.2-.1.3-.2.2-.4-.1-.2-.2-.3-.4-.2-.1 0-1.8.5-1.8 2 .1.1.2.3.4.3zM32.5 81.9c0 .1-.7 2.4 1.1 4.1.4.4 1 .3 1.4-.1.4-.4.3-1-.1-1.4-.8-.8-.5-1.9-.5-2 .2-.5-.1-1.1-.7-1.2-.5-.2-1 .1-1.2.6zM36.1 84.3c.1.6.6.9 1.1.9.5-.1.9-.6.9-1.1-.1-1.1-.7-2.5-.7-2.6-.2-.5-.8-.8-1.3-.5-.5.2-.8.8-.5 1.3.1.3.5 1.3.5 2z"/><path fill="#F1E7E0" d="M22.4 88.6c-.3.9.7.6.7.3s.2-1.1.5-1.2c0 .1-.8.1-1.2.9z"/></svg>