<svg xmlns:xlink="http://www.w3.org/1999/xlink"  xmlns="http://www.w3.org/2000/svg" width="100" height="100" viewBox="0 0 100 100"><path fill="#3F2F8F" d="M30.775 21.26c0 4.187-2.123 7.577-4.743 7.577-2.626 0-4.75-3.39-4.75-7.577 0-4.187 2.124-7.583 4.75-7.583 2.621 0 4.743 3.396 4.743 7.583zM77.493 14.398c0 5.382-2.729 9.744-6.104 9.744-3.373 0-6.108-4.362-6.108-9.744s2.735-9.755 6.108-9.755c3.375 0 6.104 4.373 6.104 9.755zM18.095 39.814a51.782 51.782 0 0 0 1.921 3.897 52.012 52.012 0 0 0 2.205 3.69c1.562 2.363 3.325 4.58 5.372 6.3 2.031 1.725 4.372 2.844 6.687 2.937a9.583 9.583 0 0 0 3.444-.48c1.142-.36 2.25-.928 3.33-1.595.53-.338 1.071-.71 1.572-1.091l.83-.645.818-.649a67.22 67.22 0 0 0 3.166-2.697 81.98 81.98 0 0 0 5.862-5.927c1.857-2.086 3.653-4.253 5.459-6.513a117.333 117.333 0 0 1 2.877-3.428 34.508 34.508 0 0 1 1.676-1.757c.612-.59 1.283-1.19 2.162-1.769a8.957 8.957 0 0 1 1.518-.792 7.172 7.172 0 0 1 1.981-.491 6.473 6.473 0 0 1 2.201.169c.703.18 1.326.459 1.855.764a9.52 9.52 0 0 1 1.369.982c.203.169.383.338.563.513l.163.164.099.109c.126.136.272.306.365.42a9.095 9.095 0 0 1 1.556 2.964c.601 1.922.688 3.647.699 5.295a35.058 35.058 0 0 1-.377 4.738c-.453 3.057-1.124 5.987-1.943 8.854-.408 1.43-.835 2.849-1.294 4.258a146.926 146.926 0 0 1-1.452 4.176c-2.024 5.524-4.356 10.9-6.911 16.147a167.939 167.939 0 0 1-4.039 7.768 133.619 133.619 0 0 1-4.443 7.538c3.657-11.064 7.392-22.003 10.399-33.041a170.22 170.22 0 0 0 1.075-4.139c.338-1.376.667-2.751.967-4.132.573-2.757 1.103-5.508 1.369-8.199.121-1.349.219-2.67.187-3.925-.033-1.239-.187-2.44-.48-3.275-.142-.42-.317-.721-.448-.874-.021-.021.012.016.012.016l-.088-.093-.043-.054c.021.021-.083-.077.038.044l-.018-.017a7.741 7.741 0 0 0-.244-.224 2.934 2.934 0 0 0-.388-.273c-.104-.06-.153-.065-.153-.065a.313.313 0 0 0 .043.005c.033-.005-.174.038-.513.262-.338.214-.764.563-1.201.978-.431.409-.884.885-1.332 1.375-.9 1-1.807 2.102-2.745 3.199-1.883 2.205-3.816 4.487-5.912 6.627-2.097 2.145-4.313 4.208-6.683 6.086a61.816 61.816 0 0 1-3.635 2.707l-.938.634-.938.615c-.688.436-1.376.835-2.102 1.216a18.681 18.681 0 0 1-4.688 1.709c-1.666.36-3.45.442-5.165.148a13.215 13.215 0 0 1-4.771-1.813 17.325 17.325 0 0 1-3.674-3.134c-2.09-2.358-3.569-5.022-4.732-7.757a38.85 38.85 0 0 1-2.49-8.455z"/><path fill="#3F2F8F" d="M58.855 30.103c-.239 1.774-.72 3.526-1.392 5.23-.665 1.697-1.538 3.356-2.708 4.896-1.168 1.528-2.668 2.97-4.623 3.93-1.938.977-4.322 1.326-6.501.983a17.263 17.263 0 0 1-1.604-.339c-.508-.142-1.071-.344-1.447-.459-.9-.316-1.752-.644-2.62-1.004-.862-.349-1.698-.759-2.539-1.173-.83-.41-1.648-.857-2.439-1.321l-2.288-1.365c-.694-.437-1.397-.846-1.785-.988-.191-.076-.236-.049-.06-.043.179.017.48-.087.501-.131.038-.027-.086.055-.25.229l-.034.033c.027-.028-.054.065.05-.055l-.011.011-.027.033c-.027.033-.098.12-.065.077a.691.691 0 0 0 .033-.044c-.005.011-.011.016-.017.021-.016.027-.038.071-.071.126-.108.229-.251.748-.284 1.359-.043.623-.016 1.337.065 2.075.143 1.496.46 3.095.874 4.694.382 1.61.863 3.232 1.366 4.854.491 1.632 1.058 3.259 1.604 4.896l3.456 9.87c1.152 3.318 7.069 17.113 7.998 20.559-2.091-2.883-8.811-16.262-10.684-19.27-1.873-3.003-3.652-6.07-5.268-9.248-1.621-3.183-3.096-6.457-4.291-9.962-.568-1.769-1.092-3.581-1.398-5.563a18.922 18.922 0 0 1-.224-3.166c.039-1.125.164-2.38.753-3.761a8.52 8.52 0 0 1 .551-1.031l.169-.251c.055-.088.147-.208.224-.306l.142-.175.196-.229c.425-.47.951-.994 1.736-1.474.398-.24.868-.459 1.392-.611a5.485 5.485 0 0 1 1.611-.219c1.059.022 1.86.306 2.489.557 1.228.535 2.008 1.075 2.789 1.567l2.151 1.458c.703.458 1.392.906 2.084 1.343.694.448 1.409.852 2.118 1.261.705.415 1.447.814 2.167 1.174.426.229.678.36 1 .497.31.136.621.25.934.344.621.18 1.249.306 1.883.316.639.028 1.276-.065 1.938-.229 1.305-.344 2.643-1.103 3.876-2.107 1.244-.999 2.391-2.238 3.472-3.57a41.435 41.435 0 0 0 3.008-4.299z"/><g fill="#8BC53F"><path d="M43.375 46.747a17.635 17.635 0 0 1-1.774-.382c-.36-.099-.753-.229-1.091-.339a6.117 6.117 0 0 0-.41-.131c-.017-.011-.038-.017-.06-.027a45.906 45.906 0 0 1-2.696-1.026c-.896-.365-1.759-.792-2.643-1.222a39.19 39.19 0 0 1-2.544-1.381l-1.878-1.114c.01.278.033.579.065.89.131 1.31.415 2.812.83 4.46.393 1.648.884 3.269 1.354 4.782.371 1.233.796 2.489 1.201 3.707.207.033.415.054.622.061.939.043 1.916-.099 2.882-.405.906-.289 1.873-.758 2.965-1.43.476-.294.977-.649 1.446-1.004l1.621-1.267a70.758 70.758 0 0 0 3.084-2.632 127.48 127.48 0 0 0 1.813-1.714c-.927.208-1.889.317-2.86.317a14.257 14.257 0 0 1-1.927-.143zM32.048 30.851c1.201.524 1.998 1.032 2.708 1.485l.333.208 2.675 1.796c.524.344 1.043.677 1.566 1.01.496.316 1.004.612 1.513.906l.562.327c.623.366 1.331.743 2.08 1.125l.131.065c.311.164.519.273.77.388.263.108.513.202.765.278.535.152 1.016.24 1.462.25l.143.006c.409 0 .852-.065 1.343-.191 1.016-.268 2.146-.885 3.254-1.791 1.042-.841 2.096-1.922 3.236-3.33a40.093 40.093 0 0 0 2.883-4.122 1.61 1.61 0 0 1 1.927-.682 1.608 1.608 0 0 1 1.064 1.742 22.097 22.097 0 0 1-.578 2.844c.181-.208.354-.416.546-.623a29.52 29.52 0 0 1 1.764-1.85c.622-.601 1.386-1.293 2.401-1.954a10.34 10.34 0 0 1 1.795-.945 8.561 8.561 0 0 1 2.135-.563 29.635 29.635 0 0 0-17.425-5.639c-8.21 0-15.639 3.319-21.026 8.69.794.133 1.46.357 1.973.57zM66.226 60.198a144.69 144.69 0 0 0 1.059-4.095c.41-1.659.705-2.915.956-4.088.54-2.577 1.08-5.339 1.343-8.02.109-1.13.208-2.462.181-3.724-.027-1.135-.169-2.14-.388-2.767-.104.093-.224.202-.355.327-.365.35-.78.77-1.25 1.289-.639.709-1.276 1.468-1.954 2.265-.251.295-.502.601-.759.896l-.169.197c-1.84 2.162-3.745 4.394-5.819 6.512-2.375 2.43-4.607 4.471-6.828 6.229a68.208 68.208 0 0 1-3.725 2.773l-1.921 1.266a26.16 26.16 0 0 1-2.237 1.294c-1.66.861-3.375 1.49-5.094 1.855-.939.208-1.883.322-2.817.354l1.12 3.199c.441 1.272 1.664 4.269 2.953 7.446.9 2.216 1.85 4.552 2.69 6.681a29.796 29.796 0 0 0 7.888 1.064c3.211 0 6.3-.513 9.193-1.457 2.111-6.466 4.17-13.011 5.933-19.496z"/></g></svg>