<svg xmlns:xlink="http://www.w3.org/1999/xlink"  version="1" xmlns="http://www.w3.org/2000/svg" viewBox="0 0 150 150"><path fill="#9DD6C9" d="M96 16.4s0-.1.1-.1l-.5.5c.2-.1.3-.2.4-.4z"/><path fill="#8E9093" d="M62.1 142.4l-13.4-4.7 13.4-4.7H89l13.4 4.7-13.4 4.7z"/><path fill="#00A650" d="M98.4 56.3L80.8 71.9v28.9c13.3-3.5 18-12.6 19.1-14.8.2-.4.2-.5.2-.5l.5-1.3 1.3-.5c19.7-7 21.2-21.4 21.3-27.2 0-1.4-.1-2.1-.1-2.2-1.4-14-13.1-21.2-19.1-23.9-1.9-.9-3.1-1.2-3.1-1.2l-1-.3-.7-.9c-7-10.6-16.2-13.3-20.3-14.1-1.4-.2-2-.2-2.1-.3h-1.5c-12.1 0-18.8 8.4-21.6 12.8-.9 1.4-1.2 2.3-1.2 2.3l-.5 1.2-1.3.4c-22 7.2-21.7 21.6-21.9 22.2v.2c-.1 1.1-.1 2.1-.1 3.1.1 21.9 15 26.8 18.7 28 .5.1.7.2.7.2l1.3.2.7 1.1c7.2 11.2 17.4 14.8 22.5 16v-12l-11.7-9.1 3.7-4.6 1.2.9 1-1.2 5.7 4.4V54.4h8.2v7.9L92.1 52l1 1.1 1.2-1.1 4.1 4.3z"/><path d="M72.6 137.8h6V72.2l17.6-15.9-3-3.2-1-1.1-11.4 10.2-2.2 2v-9.9h-5.9V81.7l-6.8-5.3-1.2-.9-3.7 4.6 11.7 9.1v12.1c-5.2-1.2-15.4-4.9-22.5-16l-.7-1.1-1.4-.2s-.2 0-.7-.2c-3.7-1.2-18.6-6.1-18.7-28 0-1 0-2 .1-3.1v-.2c.2-.6-.2-14.9 21.9-22.2l1.3-.4.5-1.2s.4-.8 1.2-2.3c2.7-4.4 9.5-12.9 21.6-12.8h1.5c.1 0 .8 0 2.1.3 4.1.8 13.3 3.5 20.3 14.1l.6.9 1 .3s1.2.3 3.1 1.2c6 2.7 17.7 9.9 19.1 23.9 0 .1.1.8.1 2.2-.1 5.7-1.6 20.1-21.3 27.2l-1.3.5-.5 1.3s0 .1-.2.5c-1.1 2.2-5.7 11.3-19.1 14.8v6.2c15.9-3.6 22.5-14.2 24.3-18 21.5-8.1 24.2-25.7 24.1-32.4 0-1.8-.1-2.8-.2-3-2.4-20.3-20.7-28-25.3-29.7C92.8 8.2 77.6 7.7 77.1 7.7c-.6 0-1.2-.1-1.8-.1-17.2.2-25.4 13.3-27.6 17.4-23.7 8.1-25 25.8-24.8 27.4-.1 1.2-.1 2.3-.1 3.4-.1 14.3 5.9 23.1 12 28 4.5 3.6 8.8 5.1 10.9 5.7 9 13.1 21.4 16.9 26.9 17.9V137.8z"/></svg>