<svg xmlns:xlink="http://www.w3.org/1999/xlink"  xmlns="http://www.w3.org/2000/svg" width="100" height="100" viewBox="0 0 100 100"><path fill="#8BC53F" d="M80.891 30.089c-.863-3.792-2.167-7.47-3.925-10.912-.874-1.718-1.852-3.392-2.992-4.947-1.14-1.55-2.404-3.031-3.92-4.206 1.388 1.323 2.513 2.874 3.496 4.488a39.457 39.457 0 0 1 2.557 5.065 49.981 49.981 0 0 1 3.105 10.838c.613 3.703.791 7.465.449 11.153-.34 3.683-1.249 7.297-2.804 10.582a26.671 26.671 0 0 1-6.394 8.658c-2.735 2.475-5.767 4.582-9.017 6.104-3.253 1.51-6.773 2.359-10.283 2.33a21.327 21.327 0 0 1-8.853-1.981c-.064-.033-.124-.064-.187-.094-.396-5.139-.766-10.248-.712-15.289.029-2.697.197-5.369.593-7.965.395-2.597 1.036-5.115 2.044-7.465a22.868 22.868 0 0 1 4.077-6.379c.436-.474.879-.928 1.345-1.368.483-.449.898-.814 1.461-1.278 1.096-.889 2.221-1.896 3.228-2.982 2.015-2.177 3.797-4.779 4.671-7.855.237-.844.396-1.723.469-2.611.149.321.293.642.41.973.584 1.545.929 3.194 1.087 4.873.316 3.357-.118 6.813-.938 10.156-.83 3.347-2.063 6.606-3.525 9.761-1.456 3.16-3.149 6.216-4.977 9.184 1.976-2.874 3.826-5.841 5.461-8.947 1.624-3.101 3.041-6.334 4.067-9.716 1.022-3.382 1.659-6.932 1.512-10.546-.079-1.798-.361-3.619-.918-5.377a18.112 18.112 0 0 0-.549-1.476c.342.311.676.622.992.953 1.797 1.852 3.229 4.083 4.325 6.493 1.105 2.415 1.866 4.986 2.399 7.658.267 1.338.494 2.686.656 4.029.174 1.343.277 2.69.282 4.024.011 2.671-.376 5.322-1.422 7.707-1.047 2.395-2.755 4.479-4.8 6.266-4.092 3.613-9.084 6.281-14.061 8.851a78.078 78.078 0 0 0 7.86-3.094c2.577-1.166 5.086-2.588 7.347-4.371 1.136-.887 2.235-1.861 3.214-2.977a17.556 17.556 0 0 0 2.493-3.708c1.343-2.701 1.916-5.698 2.044-8.615.124-2.938-.158-5.836-.642-8.661-.479-2.844-1.234-5.708-2.39-8.423-1.156-2.715-2.716-5.317-4.765-7.559a20.708 20.708 0 0 0-3.431-3.032 18.672 18.672 0 0 0-1.981-1.211 12.661 12.661 0 0 0-1.077-.509 8.312 8.312 0 0 0-.572-.231l-.297-.108c-.118-.04-.188-.064-.37-.109a1.804 1.804 0 0 0-1.279.119 1.805 1.805 0 0 0-.808 2.423l.103.212.135.267c.054.113.103.237.152.365.103.257.188.524.261.791.144.543.237 1.105.268 1.679a9.489 9.489 0 0 1-.426 3.416c-.69 2.256-2.137 4.345-3.909 6.162-.889.934-1.827 1.768-2.884 2.618a28.884 28.884 0 0 0-3.238 3.021 26.883 26.883 0 0 0-4.874 7.495c-1.195 2.735-1.939 5.609-2.389 8.473-.449 2.868-.587 5.737-.607 8.57-.02 5.668.464 11.229.928 16.742v.041c.059.598.375 1.16.924 1.506.183.109.276.168.409.242l.365.191c.242.129.483.246.726.355.48.227.964.43 1.452.623a25.236 25.236 0 0 0 9.143 1.558c4.132-.043 8.195-1.135 11.825-2.922 3.648-1.771 6.848-4.246 9.687-6.98a29.753 29.753 0 0 0 6.799-9.885c1.546-3.703 2.325-7.658 2.503-11.583.186-3.936-.238-7.851-1.108-11.643z"/><path fill="#231F20" d="M14.095 65.795s6.068-3.475 20.237 5.352c14.17 8.818 28.988 18.783 47.769-12.223-6.882 16.914-14.175 35.701-25.421 34.885-11.253-.803-20.16-13.922-28.257-20.399-8.097-6.474-14.328-7.615-14.328-7.615z"/><path fill="#F6921E" d="M32.97 52.672a9.44 9.44 0 0 1-9.44 9.441c-5.214 0-9.435-4.227-9.435-9.441 0-5.208 4.221-9.439 9.435-9.439 5.214-.001 9.44 4.231 9.44 9.439z"/></svg>