<svg xmlns:xlink="http://www.w3.org/1999/xlink"  xmlns="http://www.w3.org/2000/svg" width="100" height="100" viewBox="0 0 100 100"><path fill="#64BD6C" d="M31.347 5.342c4.788.852 9.938 2.729 12.396 7.245 2.221 3.572 1.921 7.893 1.883 11.923-5.17.856-10.392-2.649-12.466-7.314-1.813-3.671-1.864-7.849-1.813-11.854M47.337 23.355c.989-6.15 3.248-12.01 5.789-17.678 3.422 1.925 6.811 3.9 10.22 5.851-4.296 4.727-7.621 10.241-10.36 15.97-1.506.782-3 1.6-4.506 2.346l-1.047-.625c-1.143-1.699-.135-3.974-.096-5.864M47.828 53.946c2.783-.37 3.243 4.098 4.877 5.803-1.303 8.521-2.381 17.177-.779 25.743-.051 2.381.007 4.749-.063 7.122-1.117 1.048-2.24 2.082-3.357 3.115-1.104-1.021-2.215-2.041-3.294-3.089a167.77 167.77 0 0 0-.389-7.391l.479.151c1.149-8.552.44-17.145-.996-25.634 1.129-1.952 2.156-4 3.522-5.82"/><path fill="#DF3A40" d="M12.05 29.097c10.182-7.749 24.914-6.307 35.382.121l1.047.625c1.506-.747 3-1.567 4.5-2.346 8.694-4.372 19.558-5.129 28.38-.699 3.408 1.66 6.472 4.405 7.703 8.075 1.635 4.934.493 10.216-.842 15.08-3.441 11.321-7.967 22.312-11.036 33.744-.805 2.152.382 5.548-2.324 6.595-3.045.625-5.368-2.203-8.304-2.298-5.247 0-10.169 2.184-14.694 4.62.07-2.373.013-4.741.058-7.122 5.828-2.592 12.16-4.456 18.588-3.345.944-2.54 1.863-5.082 2.841-7.609-6.723-.587-13.443-1.033-20.151-1.762 6.995-.396 13.997-.37 21-.587.951-2.592 1.928-5.17 2.84-7.788-7.193-.645-14.419-1.123-21.601-1.946 7.532-.275 15.077-.146 22.616-.633.721-2.47 1.417-4.965 2.163-7.416-7.748-.792-15.536-1.226-23.285-2.082 8.017-.357 16.054-.395 24.064-.612.555-2.495 1.111-4.973 1.653-7.452-8.33-.734-16.666-1.312-24.972-2.237 8.554-.313 17.126-.195 25.668-.673-.314-6.789-7.328-9.728-13.093-10.736-7.487-1.035-16.066 2.467-19.462 9.494-1.36 2.71-.658 6.199-2.681 8.595-.708-4.238-1.059-8.929-4.263-12.166-7.073-7.739-20.133-7.992-27.844-1.073-1.589 1.551-1.724 3.888-2.336 5.886 8.534.479 17.087.347 25.635.708-8.317.881-16.647 1.468-24.958 2.202.51 2.527 1.187 5.02 1.8 7.528 7.117.186 14.285-.216 21.339.881-6.894.581-13.807 1.01-20.688 1.75.747 2.451 1.43 4.934 2.17 7.403 7.52.486 15.051.357 22.583.633-7.181.823-14.393 1.315-21.587 1.946.926 2.605 1.902 5.196 2.854 7.775 7.04.229 14.087.218 21.121.594-6.74.721-13.507 1.168-20.26 1.768.893 2.464 1.71 4.973 2.847 7.34 6.326-.49 12.485.92 18.3 3.372.179 2.463.313 4.928.383 7.391-4.519-2.433-9.434-4.621-14.681-4.646-2.994.038-5.368 3.013-8.445 2.259-2.611-1.059-1.443-4.379-2.228-6.484-3.247-12.29-8.361-24.002-11.693-36.261-1.723-6.211-1.736-14.129 3.893-18.412"/></svg>