<svg xmlns:xlink="http://www.w3.org/1999/xlink"  xmlns="http://www.w3.org/2000/svg" viewBox="0 0 150 150"><path fill="none" d="M88.5 137.9c-12 2.1-25.1.6-36.2-4.4-3.9-1.6-7.6-3.6-11-6.1 13.2 10 30.8 14 47.2 10.5zM90.6 84.4c-1.2 1.1-2.5 2.2-3.8 3.3-.8.7-1.5 1.3-2.3 1.9-2.9 4.6-2.6 10.7 1.1 15.1 4.6 5.4 12.8 6.1 18.3 1.4 5.5-4.6 6.2-12.8 1.6-18.3-3.8-4.2-9.8-5.5-14.9-3.4z"/><path fill="#FD9A2B" d="M80.2 70.7c-1-.7-2.2-2.2-3.2-5.3 3.8-7.8 2.7-17.6-3.6-24.9-8.2-9.6-22.3-11-31.4-3.2-9.1 7.8-9.8 22-1.6 31.6 6.9 8 17.7 10.3 26.5 6.3 1.8.7 3.4 1.6 4.6 2.8 1.3-1.2 2.6-2.4 4-3.5 1.6-1.4 3.1-2.6 4.7-3.8zm-37.8-4.8c-7.8-10.4-3.9-23.4 0-25.7 0 0-5.5 7.9 3.6 16.9 9 9 14.1 12.5 11.5 14.1-2.6 1.5-7.2 5.1-15.1-5.3z"/><path fill="#FD9A2B" d="M46 57.1c-9-9-3.6-16.9-3.6-16.9-3.9 2.3-7.8 15.3 0 25.7 7.8 10.4 12.5 6.8 15 5.2 2.7-1.5-2.4-5-11.4-14z"/><path opacity=".29" fill="#FFDEBC" d="M46 57.1c-9-9-3.6-16.9-3.6-16.9-3.9 2.3-7.8 15.3 0 25.7 7.8 10.4 12.5 6.8 15 5.2 2.7-1.5-2.4-5-11.4-14z"/><path fill="#86CEEC" d="M54.5 103.7c2.2 2.6 10.1-.2 19.7-6.4.1 4.6 1.7 9.2 4.9 13 7.6 8.9 21.1 10 30.1 2.3 9.1-7.7 10.3-21.1 2.7-30.1-3.3-3.9-7.7-6.3-12.3-7.1 6.9-7.8 10.3-14.4 8.3-16.8-2.8-3.3-14.6 2-27.6 12.1-1.6 1.2-3.1 2.5-4.7 3.8-1.4 1.2-2.7 2.4-4 3.5-12.5 11.3-20 22.4-17.1 25.7zm3.3-1.1C53.4 98.5 74 80.6 80 78.2c-.3.1-3.6 2-6.6 17.7 0 0-11.1 10.9-15.6 6.7zm47.6-14.7c4.6 5.4 3.9 13.6-1.6 18.3-5.5 4.7-13.7 4-18.3-1.4-3.7-4.3-3.9-10.4-1.1-15.1.8-.6 1.5-1.3 2.3-1.9 1.3-1.1 2.6-2.2 3.8-3.3 5.2-2.2 11.2-.9 14.9 3.4zM80 78.2z"/><path opacity=".56" fill="#32BBE5" d="M80 78.2z"/><path fill="#86CEEC" d="M80 78.2c-6 2.4-26.6 20.3-22.2 24.4 4.4 4.1 15.6-6.7 15.6-6.7 3-15.7 6.3-17.5 6.6-17.7z"/><path opacity=".56" fill="#32BBE5" d="M80 78.2c-6 2.4-26.6 20.3-22.2 24.4 4.4 4.1 15.6-6.7 15.6-6.7 3-15.7 6.3-17.5 6.6-17.7z"/><path fill="#80CCEB" d="M141.6 73.3c-3-27.1-19.1-47.2-45.2-56.5-27.6-9-57.8 2.9-71.8 27.8-5.9 10.3-8.7 22.1-8.1 33.6 0 7.5 1.3 15.1 4 22.2-3.6-9-5.2-18.9-4.6-28.7 1.1-22.4 14.5-43.8 35-53.4 3-1.6 5.6-2.7 5.5-3.2 0-.4-2.9 0-6 1.6C29 26.6 14.7 49 13.9 72.5c-2 29.6 18.3 59.3 47 66.4 28.5 8.3 59.8-8.5 70.3-34.2.5-1.2.9-2.2.6-2.2-.2 0-.8 1-1.3 2.2l.4-.5c-6.7 12.9-17.7 24.4-31.7 30.3-4.9 1.6-10.5 2.6-16.3 3.2 5.6-.8 11.2-2.1 16.4-4.5 15.2-6.8 25-19.2 30-33.1.1-.2-.1-.1-.2-.1.2-.5.1-.6-.2-.2-.2.3-.6 1.1-.8 1.6-7.8 18.4-25.8 32.1-45.8 34.3-19.9 2.3-40.8-7-52.6-23.8l-.3-.5c-4.7-6.8-7.9-14.5-9.6-22.6-.3-1.4-.6-2.6-.8-2.6 0 0-.1.1-.1.2-.7-3.2-.9-6.5-1.1-9.8 0-1.4 0-2.5-.1-3.3.6-7 2.1-13.7 4.9-19.8-.7 2.2-1.6 4.3-2.1 6.6-4.8 18.4-.3 38.5 10.9 52.1 10.8 14 27.6 21 42.4 20.4.5 0 .6-.1.2-.2-.3-.1-.9-.1-1.5-.1-14.2-.2-29-7-39-19.1-10.1-11.9-15.1-28.6-13.1-45 2.3-12.6 9.6-27.7 20.7-36.8 1.3-1 2.3-2 2.3-2.3 0-.3-1.1.3-2.4 1.3-4.1 3.4-7.8 7.3-10.9 11.8 3.8-5.6 8.6-10.5 14.2-14.4 3.1-2 6.3-3.7 9.7-5 1.1-.6 2.5-1.1 3-1.5.1-.1.1-.1.1-.2 15.3-5.7 32.7-4.2 46.5 3.5 13.9 7.7 24.2 21 28.8 36.1.6 2.2 1.3 3.6 1.5 3.2.2-.5-.1-2.7-.7-4.9-5.2-17.7-18.6-32.2-35.7-38.8-22-8.9-48.4-2.6-63.9 15.5-4.2 4.3-7.9 9.4-10.7 15.1.9-1.7 1.5-3.5 2.6-5.1 14-25.4 44.9-37 71.8-27.7 25.4 8.7 41.8 31 43.8 57.1.1 1.2.3 1.7.4 1.2.2-.5.2-1.8.1-3zm-89.3 60.1c11.1 5.1 24.2 6.5 36.2 4.4-16.4 3.5-34-.5-47.2-10.6 3.4 2.6 7.1 4.6 11 6.2z"/><path fill="#80CCEB" d="M70.9 142.5c-9.9-1.1-19.6-4.8-27.7-9.3-.4-.2-.7-.3-.5-.1.2.2.6.5 1 .7 7.8 4.3 17.4 7.8 26.9 9h1.1c.1-.2-.3-.3-.8-.3zM37.5 129.7c-12.6-8.9-22.1-23.2-25.5-39.4-3.3-16.1-.8-33.8 7.8-48.5 13.7-24 41.7-37.3 68.8-32.3 8.9 1.5 17.3 5 24.4 9.2.6.4 1 .5.8.3-.2-.2-.8-.7-1.5-1.1-15-9-33.7-12.3-51.1-8-17.4 4.2-32.9 16-41.7 31.6-8.5 14.7-11.2 32.6-7.7 49 3.5 16.4 13.3 31 26.2 39.8.3.2.6.3.5.2-.2-.2-.7-.6-1-.8z"/><path fill="#80CCEB" d="M61.5 10.8c.6-.2.9-.3.9-.4-.1-.1-.6 0-1.1.2-18.8 4.9-34.5 18.3-43.2 35.8-4.7 9.4-7.3 19.8-6.8 30.7.8 14.6 5.2 26.9 13.3 38.7.3.4.6.8.7.8.1 0-.1-.3-.4-.7-8.7-12.7-13.4-27.2-13-42.7.6-29.2 21.8-55.1 49.6-62.4z"/><path fill="#80CCEB" d="M21.8 69.4c-.1-.1-.4.5-.4 1.4-.9 9.3.4 19.3 4.1 28 3.7 8.7 9.7 16 16.2 20.8.3.3.4.2.3 0-.2-.2-.6-.7-.9-.9C28 109.2 19.8 89 21.9 71c-.1-.7 0-1.5-.1-1.6z"/><path fill="#80CCEB" d="M138.2 76.3c-.1.3-.1.9-.1 1.2.7 7.3-.4 15.4-2.5 22.7-5.3 13.8-14.9 25.8-27.4 33.5-10.1 5.5-20.9 7.7-32.4 7.6-20.1-.1-39-11.2-50.2-27-5.2-7.7-8.9-16.5-10.6-25.6-.2-1.3-.5-2.4-.7-2.3-.2 0-.1 1.1.1 2.5.9 4.6 2.2 9.2 3.9 13.6-.1-.1-.2-.1-.2-.1-6.5-15.3-7-33.1-1.6-48.9.3-.9.5-1.6.4-1.6-.1 0-.4.6-.8 1.5-5.8 16.5-4.9 35.1 2.4 50.8.2.6.5 1.3.9 2 6.5 13 17 23.6 30.3 29.8 18.7 9.1 41.3 8.4 59-2.3 7-4.2 12.9-9.9 17.8-16.3 4.3-5.4 7.6-11.7 9.5-17.7 2.5-8.3 3-16 2.4-23.2-.1-.5-.2-.5-.2-.2z"/></svg>