<svg xmlns:xlink="http://www.w3.org/1999/xlink"  xmlns="http://www.w3.org/2000/svg" width="100" height="100" viewBox="0 0 100 100"><path fill="#206496" d="M23.235 38.274v36.938l25.838 13.21v-36.75z"/><path fill="#18517C" d="M77.4 38.274v36.938l-25.837 13.21v-36.75z"/><path fill="#FFCA0B" d="M14.383 27.94l11.978 7.134a27.925 27.925 0 0 0-.65 1.899l24.606 12.759L74.92 36.973a28.19 28.19 0 0 0-.559-1.678l12.944-8.504-14.29 5.558a26.436 26.436 0 0 0-1.86-2.964l10.552-8.621-11.687 7.17a25.915 25.915 0 0 0-3.834-3.702l8.774-10.218-10.37 9.058a25.567 25.567 0 0 0-5.616-2.823l5.073-10.683-6.764 10.148a25.812 25.812 0 0 0-6.719-.955l-1.3-12.351-.408 12.39c-2.008.11-3.955.458-5.815 1.006L36.488 8.273l4.454 12.249a25.792 25.792 0 0 0-5.846 3.216l-8.799-9.435 7.602 10.367a25.936 25.936 0 0 0-3.192 3.157l-10.724-6.492 9.64 7.852a25.774 25.774 0 0 0-2.19 3.523l-13.05-4.77zM22.085 77.319l27.946 14.547L78.55 77.701 50.031 94.928z"/></svg>