<svg xmlns:xlink="http://www.w3.org/1999/xlink"  xmlns="http://www.w3.org/2000/svg" viewBox="0 0 150 150"><path fill="#FFC265" d="M72.4 24.8c2.6-1.2 4.4-3.3 5.6-5.6-1-.1-2.1-.1-3.1-.1-9 0-17.5 2.1-25.1 5.9 3 .9 14.4 3.6 22.6-.2zM90.6 21.4c-.3-.1-.6-.2-.9-.2-.7 1.2-1.9 2-3.1 1.7-1.2-.2-2.1-1.4-2.2-2.9-.5-.1-1.1-.2-1.6-.2l-.9 5.1c-1.2 6.1 4.9 3.5 8.7-3.5zM74.9 105c-2-6.7-4.8 13.7-6.3 26.6 2.1.2 4.1.4 6.2.4h1.1c.6-8.3.9-20.8-1-27z"/><path fill="#FFC265" d="M131.3 75.6c0-24.2-15.2-44.8-36.6-52.8C88.5 35.6 75.3 52.7 51.2 41l2.8-5.4s8.8 4.1 13.6.9c4.7-3.2-17.7-3.5-20.2-7.6l1.3-3.3c-18 9.4-30.3 28.3-30.3 50 0 26.1 17.8 48.1 41.9 54.5 3.5-19.3 5.4-52.3-13.1-81.9 0 0 8.4-4.6 10.2-1.8 1.8 2.8 9.5 25.4 16.3 26.3 6.3.8 14.4-18.2 19.4-38.1l.6-3.9c0-.2 0-.4.1-.6v1.8c.2-1 .5-2 .7-3l6.9 1.2S90.6 62.8 86.6 71.2c-3.3 6.7-5.9 45.5-6.9 60.6 28.9-2.4 51.6-26.7 51.6-56.2zM74.5 67c-2.6 0-4.8-2.1-4.8-4.8 0-2.6 2.1-4.8 4.8-4.8 2.6 0 4.8 2.1 4.8 4.8 0 2.7-2.2 4.8-4.8 4.8z"/><path fill="#019CDB" d="M101.4 30.2L94.5 29c-.2 1-.4 2-.7 3-.3 6.6-2.3 30-17.3 42.7 0 0 12.4-15.2 16.7-40.1-5 19.9-13.2 38.9-19.4 38.1-6.9-.9-14.6-23.5-16.3-26.3-1.8-2.8-10.2 1.8-10.2 1.8 18.5 29.5 16.6 62.5 13.1 81.9-1.9 10.3-4.2 16.7-4.2 16.7l11.4-5.2s.4-4.3 1.1-9.9c1.5-13 4.3-33.3 6.3-26.6 1.8 6.1 1.5 18.7 1.1 27-.3 4.6-.6 7.9-.6 7.9l3.9-2s.1-2.3.4-6c.9-15.1 3.6-53.9 6.9-60.6 3.9-8.5 14.7-41.2 14.7-41.2zM60 142.6s0-.1.1-.4c.3-1.3 1-6.8 3.2-29.6 2.7-28.5-8-56.5-9.6-60.4-.1-.2-.2-.2-.2-.2v-.3s.1.2.2.5c1.3 1.6 9 12.2 11.3 37.3 2.3 25.6-3.9 49.3-4.9 52.6 0 .6-.1.5-.1.5z"/><circle fill="#019CDB" cx="74.5" cy="62.2" r="4.8"/><path fill="#925D9E" d="M67.7 36.5c-4.7 3.2-13.6-.9-13.6-.9L51.3 41c24.1 11.7 37.3-5.3 43.5-18.1 3.1-6.4 4.4-11.8 4.4-11.8h-5.7c-.2 4-1.4 7.6-2.9 10.4-3.8 7-9.9 9.6-8.7 3.4l.9-5.1C84.2 11.3 85.3 4 85.3 4s-6.6.3-5.7 1c.7.5 1.5 8.3-1.6 14.3-1.2 2.3-3 4.4-5.6 5.6-8.2 3.8-19.6 1-22.6.2-.5-.1-.7-.2-.7-.2l-.3.7-1.3 3.3c2.5 4.1 24.9 4.4 20.2 7.6z"/><path fill="#925D9E" d="M86.6 22.9c1.2.2 2.4-.5 3.1-1.7.3-.5.5-1 .6-1.6.4-2.1-.6-4.1-2.2-4.4-1.6-.3-3.3 1.2-3.7 3.3-.1.5-.1 1.1-.1 1.5.2 1.4 1.1 2.6 2.3 2.9z"/><path fill="#71B0E2" d="M60.2 142.2c-.1.3-.1.4-.1.4s0 .1.1-.4zM53.5 52l.2.2c-.1-.3-.2-.5-.2-.5v.3zM65 89.6c-2.3-25.2-10-35.7-11.3-37.3 1.6 3.9 12.3 31.9 9.6 60.4-2.2 22.8-2.9 28.3-3.2 29.6 1-3.4 7.2-27.2 4.9-52.7zM93.8 32v-1.8c0 .2 0 .4-.1.6l-.6 3.9c-4.3 24.8-16.7 40.1-16.7 40.1C91.5 62 93.5 38.6 93.8 32z"/></svg>