<svg xmlns:xlink="http://www.w3.org/1999/xlink"  xmlns="http://www.w3.org/2000/svg" viewBox="0 0 150 150"><path fill="#ACDBF1" d="M100.9 96c1.6-1.7 2.7-2.7 3.7-3.9.5-.7 1.1-1.5 1.6-2.3 1.5-2.3 3.4-5.9 7-13.1-7.5 13.9-17.3 23-22 26.9.2.3.4.5.4.5s-2.8 3.7-8.5 7c-1.9 1.1-4.2 2.2-6.8 3h-.1-.1c-.6.2-1.2.4-1.8.5l.4.9.5 1.1 1.7 3.8s1.2-.8 3.1-2.4c.4-.3.8-.7 1.3-1.1 4.6-3.8 12.3-10.8 20.3-20.9-.5.1-.7 0-.7 0zm5.3-34.4c-2.4 1.1-4.7 2.5-6.9 4.3-1.2 1.1-2.4 2.3-3.6 3.6-2.7 3.5-4.7 6.8-6.1 9.9-.5 1.1-.9 2.2-1.2 3.3-.4 1.2-.6 2.3-.8 3.4-.2 1.3-.3 2.5-.4 3.7-.1 4.9 1.2 8.8 2.5 11.3 5.6-2.3 8.4-5.9 8.4-5.9s-1.2-1.4-2-3.8c-1-2.8-1.5-6.9.6-12 .6-1.5 1.5-3.1 2.6-4.7.5-.7 1-1.4 1.6-2.1 2-2.4 4.3-4 6.7-5.1 11-5 25 1.1 25 1.1s-4.7 1.3-9.8 16.5C119 96.3 109 97 104 96.6c-2.4 3.6-4.2 5.2-7.9 9 0 0 25.5 6.5 33.4-16.8 7.9-23.4 15-25.3 15-25.3s-21.4-9.5-38.3-1.9zm24.1 18.5c-1.2 0-2.2-1-2.2-2.2 0-1.2 1-2.2 2.2-2.2 1.2 0 2.2 1 2.2 2.2 0 1.2-1 2.2-2.2 2.2z"/><path fill="#00A9DE" d="M70.5 116.9c.3-2.5.4-4.9.3-7-4.3-3.4-11.1-8.2-20-13 .2 1.2.2 2 .2 2-5.4-3-4.7-3.1-19.7-6.1 11.5 2.7 20.4 7.4 25.7 10.8.1-.2.2-.3.2-.3s8.5 4 13.9 14.9l1.8-1.3h-2.4zm-39.9-12.4c-14-6.3-11-26.5-11-26.5s2.2 3.8 16.7 4.6c.9 0 1.7.2 2.5.3-.6-1-1.2-2-1.9-3.2-1.9-3.5-2.9-7-3.2-10.5C10 66.1 6.8 59.6 6.8 59.6s-7.4 34.1 15.7 46.3c18.3 9.7 29.5 2.3 33.3-1.2-2.6-2.4-4.8-3.3-4.8-3.3s-6.3 9.4-20.4 3.1zm-1.9-31.6c1.2 0 2.2 1 2.2 2.2 0 1.2-1 2.2-2.2 2.2-1.2 0-2.2-1-2.2-2.2 0-1.2 1-2.2 2.2-2.2zm-1.9-9.2c2.8 0 5-2.2 5-5s-2.3-5-5-5c-2.8 0-5 2.2-5 5s2.2 5 5 5z"/><path fill="#64C4E8" d="M80.7 118.6l.6-1.5c-.5.4-.9.7-1.3 1.1l.7.4zm-17-32.5c-2.6-5.5-2-5.1-12.3-16.2 9.5 10.7 14.1 21.9 15.8 26.9h.1s3 5 3.5 13.1c.1 2.1.1 4.5-.3 7l2.4-.1 2.1-.1-.5-1.1-.4-.9c.6-.2 1.2-.3 1.8-.5h.1c-1.3-4.7-4.8-15.8-12-28.8-.1.5-.3.7-.3.7zm4.1-37.5c2.8 0 5-2.3 5-5s-2.3-5-5-5c-2.8 0-5 2.3-5 5s2.2 5 5 5zm19.6 15.2c1.6 16.7-2.2 30.1-3.7 34.5-.5 2.9-2.1 9.3-7.4 15.9 2.6-.8 4.8-1.9 6.8-3 1.4-5 3.1-12.4 4.1-21.4 0-1.2.2-2.4.4-3.7.5-5.1.7-10.7.5-16.6-.2-1.6-.5-3.5-.7-5.7zM105 33.5s-27.8 4.9-35.2 24.9c-.8-.8-1.6-1.6-2.5-2.4-18.6-16.2-17.7-23.5-17.7-23.5s-18.1 17.4-16 36.7c.4 3.5 1.4 7 3.2 10.5.6 1.1 1.2 2.2 1.9 3.2 3 4.7 6.3 8 9.5 10.2.7.5 1.4.9 2.1 1.3 1.1.6 2.1 1.1 3.1 1.5 1.5.6 2.9 1 4.3 1.2 2.7.5 5.1.4 6.8.2-.1-5.6-2.4-9.1-2.4-9.1s-2.3.9-5.6.4c-3.6-.5-8.4-2.8-12.4-9.6-1.5-2.6-2.2-5.3-2.3-7.9-.4-10.4 8.6-19.8 8.6-19.8s-.4 4.3 10.8 13.3c7.8 6.2 5.9 14.3 4.1 18.5 2.1 3.2 2.9 5.5 4.9 10.1 0 0 1.3-1.8 2.8-4.8 2.8 4 6.2 6.2 8.5 7.3 3.4-4.9 3.6-9.4 3.6-9.4s-6.2-1.8-8.8-9.1c-.9-2.5-1.4-5.8-1-9.8V67c1.6-16.2 22.9-20 22.9-20s-3 3.5 1 18.3c.1.2.1.4.1.6 2.1-1.8 4.5-3.3 6.9-4.3-5.9-22.7-1.2-28.1-1.2-28.1zM57.7 57.1c-1.2 0-2.2-1-2.2-2.2 0-1.2 1-2.2 2.2-2.2 1.2 0 2.2 1 2.2 2.2 0 1.3-1 2.2-2.2 2.2zm45.7-1.2c0 1.2-1 2.2-2.2 2.2-1.2 0-2.2-1-2.2-2.2 0-1.2 1-2.2 2.2-2.2 1.3 0 2.2 1 2.2 2.2zm9.7-10.9c-2.8 0-5 2.3-5 5s2.2 5 5 5 5-2.3 5-5-2.3-5-5-5z"/></svg>