<svg xmlns:xlink="http://www.w3.org/1999/xlink"  xmlns="http://www.w3.org/2000/svg" viewBox="0 0 150 150"><path fill="none" d="M75.7 15.5c-33.1 0-60 26.9-60 60s26.9 60 60 60 60-26.9 60-60c.1-33-26.9-60-60-60zm30 106.2c-8.6 5.3-19.2 8-30.8 8-19.4-.3-32-9-39.1-16.3-6-6.1-9.3-12.2-10.5-14.7.2-.1.5-.1.9-.2 0-.1-.1-.1-.1-.2-3.2-6.9-5-14.6-5-22.7 0-29.8 24.2-54 54-54s54 24.2 54 54c0 7.2-1.4 14.1-4 20.3.2.1.4.2.5.3-3.7 11.1-10.4 19.7-19.9 25.5z"/><path fill="#CACF82" d="M84.9 125c2.4-.4 4.7-.9 6.9-1.5-9.3-8.6-20.9-15.3-33.8-19.4-1.3-.4-2.6-.8-3.9-1.1 11.9 5.3 22.4 12.8 30.8 22zM65.1 124.8c-8.2-8.8-18.5-15.9-30.2-20.8 7.9 5 14.9 11.1 20.7 18.1 3 1.2 6.2 2.1 9.5 2.7zM101.3 119.7c-8.1-6.2-17.6-11.3-28.2-14.7-2-.7-4.1-1.2-6.2-1.7 11 4.6 20.9 11 29.1 18.9 1.8-.8 3.6-1.6 5.3-2.5zM79.9 125.6c-9.6-9.9-22.3-18-37.2-22.7-.8-.2-1.5-.5-2.3-.7 12 5.7 22.5 13.7 30.6 23.4 1.3.1 2.6.2 3.9.2 1.8 0 3.4-.1 5-.2zM91.5 101.4c-.6.3-1.1.6-1.6.9-.9.5-1.7 1-2.6 1.6-.3.2-.7.5-1 .7-.4.3-.8.6-1.2.8 1.1.5 2.1 1 3.2 1.5l.3-.3c.1 0 .1-.1.2-.1l.1-.1c.9-.8 1.9-1.6 2.8-2.4.1-.1.2-.1.3-.2.5-.4 1-.7 1.5-1.1 0 0 .1 0 .1-.1.5-.3 1-.7 1.5-1 0 0 .1 0 .1-.1l.1-.1c.5-.3 1-.7 1.6-1 .1 0 .1-.1.2-.1.2-.1.5-.3.7-.4.3-.2.6-.3.9-.5 0 0 .1 0 .1-.1.6-.3 1.1-.6 1.7-.9.1 0 .2-.1.2-.1 1.1-.6 2.3-1.2 3.5-1.7.1 0 .2-.1.2-.1.5-.2 1.1-.5 1.6-.7.1 0 .1-.1.2-.1-.2 0-.3.1-.5.1-4.6 1.2-9 2.9-13 5-.5.2-.9.4-1.2.6zM95.1 95.2h-.2c-.9.2-1.8.5-2.7.8-.1 0-.3.1-.4.1l-2.7.9c-.6.2-1.1.4-1.6.6-.9.4-1.7.7-2.6 1.1-.6.3-1.1.5-1.7.8-.5.2-1 .5-1.5.8-1.3.7-2.6 1.4-3.8 2.2l3 1.2c.1-.1.2-.2.3-.2.1-.1.2-.1.3-.2.5-.4 1-.7 1.5-1.1 0 0 .1 0 .1-.1.5-.3 1-.7 1.5-1 .1-.1.2-.1.2-.2.5-.3 1-.7 1.6-1 .1 0 .1-.1.2-.1.3-.2.6-.3.8-.5.2-.1.5-.3.7-.4l.1-.1c.5-.3 1.1-.6 1.7-.9.1 0 .2-.1.3-.1.5-.3 1-.5 1.5-.8.1-.1.3-.1.4-.2.5-.3 1-.5 1.6-.7.1 0 .2-.1.3-.1.6-.3 1.2-.5 1.8-.8-.3-.1-.5-.1-.7 0 .1-.1.1 0 0 0zM95.7 110.5c.1-.2.3-.3.4-.5l.4-.4.5-.5.4-.4.5-.5c.1-.1.2-.2.4-.3.3-.2.5-.5.8-.7.1-.1.2-.2.4-.3.2-.2.4-.3.6-.5.1-.1.3-.2.4-.3.2-.1.3-.3.5-.4.1-.1.3-.2.4-.4.2-.1.3-.3.5-.4.2-.1.3-.2.5-.4.2-.1.3-.3.5-.4.2-.1.3-.2.5-.4.2-.1.4-.3.5-.4.2-.1.3-.2.5-.3.2-.1.4-.3.6-.4.1-.1.3-.2.4-.3.3-.2.6-.4 1-.6.2-.1.3-.2.5-.3.2-.1.4-.3.6-.4.2-.1.3-.2.5-.3l.6-.3c.2-.1.3-.2.5-.3l.6-.3c.2-.1.4-.2.5-.3l.6-.3c.2-.1.4-.2.5-.3l.6-.3c.2-.1.4-.2.5-.3l.6-.3c.2-.1.3-.2.5-.2.4-.2.7-.3 1.1-.5-.1-.1-.2-.2-.4-.2-5.5 2-10.7 4-15.3 7-.6 0-1.3.7-1.9 1.2h-.1c-.6.4-1.2.8-1.8 1.3l-.1.1c-.6.4-1.1.9-1.7 1.3l-.2.1c-.4.3-.8.7-1.2 1 1.1.6 2.2 1.3 3.3 2l.1-.1c.1-.3.2-.4.4-.5zM102.6 113.9l.1-.1c.2-.2.4-.5.6-.7l.1-.1c.2-.2.4-.5.6-.7.9-1 1.8-2 2.7-2.9l.1-.1c1.2-1.2 2.5-2.3 3.8-3.4v.1c1.3-1.1 2.7-2 4.2-3s3-2.1 4.5-3c0 0 0-.1-.1-.1s-.1-.4-.2-.5l-.1-.4c-.3 0-.6.5-.8.7-.1 0-.2.2-.3.3-.3.1-.5.3-.8.4-.1 0-.2.1-.3.2-.2.1-.5.2-.7.3-.1.1-.2.1-.4.2s-.5.2-.7.3c-.1.1-.2.1-.4.2s-.5.2-.7.3c-.1.1-.2.1-.4.2s-.5.2-.7.4c-.1.1-.2.1-.3.2-.2.1-.5.3-.7.4-.1.1-.2.1-.3.2-.2.1-.5.3-.7.4-.1 0-.1.1-.2.1-.9.5-1.8 1.1-2.6 1.6 0 0-.1 0-.1.1-.2.2-.5.3-.7.5-.1.1-.2.1-.3.2-.2.1-.4.3-.6.4-.1.1-.2.1-.3.2-.2.1-.4.3-.6.4-.1.1-.2.2-.3.2-.2.1-.4.3-.6.4l-.3.3c-.2.1-.4.3-.6.4l-.3.3c-.2.2-.4.3-.5.5l-.3.3c-.2.2-.4.3-.5.5-.1.1-.2.2-.3.2-.2.2-.4.3-.6.5l-.2.2c-.7.6-1.3 1.2-1.9 1.9l-.2.2-.1.1 3 2.1c.3-.5.6-1 1-1.4z"/><path fill="#7E8837" d="M125.1 96.2c-4.4-3-10-5.6-16.4-7.6-.2.1-.3.2-.5.3l-.3-.6c-.1 0-.2-.1-.3-.1-.4.2-.8.4-1.2.5l.3.8c-.5.2-1 .3-1.6.4l-.4-.9c-.5.1-1.7.1-1.7.1v.9s-.9-.1-1.4-.1l.3-.9c-.5-.1-.9-.2-1.4-.4l-.3.8c-.5-.2-1-.4-1.5-.7l.4-.8c-.4-.3-.8-.5-1.2-.9l-.6.7c-.4-.4-.8-.7-1.2-1.2l.7-.6c-.2-.2-.3-.4-.4-.6-1.5-.3-2.9-.2-4.4-.4.1.5.3 1.8.5 1.8H71c-.1 0-.2-.2-.4-.2.7-.8 1.2-1.8 1.8-2.6h-1.7c-.4.6-.9 1.2-1.4 1.8l-1.4-1.2c-.7.8-1.4 1.5-2.2 2.2l1.2 1.4c-.9.7-1.8 1.4-2.8 2l-.9-1.6c-.9.5-1.8 1-2.8 1.3l.6 1.7c-1.1.4-2.2.7-3.3.9l-.5-1.4c-1 .2-1.2.3-3.2.3v1.8s-2.2-.1-3.3-.3L51 91c-1-.2-2-.5-3-.8l-.6 1.7c-1.1-.4-2.1-.9-3.1-1.5l.9-1.6c-.1-.1-.2-.1-.3-.2-7.7 2.5-14.1 5.8-18.9 9.7 0 .1.1.1.1.2-.3.1-.6.1-.9.2 1.2 2.5 4.5 8.6 10.5 14.7 7.2 7.3 19.8 16 39.1 16.3 11.6 0 22.2-2.8 30.8-8 9.5-5.8 16.2-14.4 19.9-25.4-.1-.1-.3-.2-.5-.3.1.1.1.1.1.2zM34.9 104c11.7 5 22 12.1 30.2 20.8-3.3-.6-6.5-1.5-9.5-2.7-5.8-7-12.8-13.1-20.7-18.1zm5.6-1.8c.8.2 1.5.5 2.3.7 14.9 4.8 27.5 12.8 37.2 22.7-1.6.1-3.3.2-5 .2-1.3 0-2.6-.1-3.9-.2-8.2-9.7-18.6-17.7-30.6-23.4zm13.6.8c1.3.4 2.6.7 3.9 1.1 12.9 4.1 24.5 10.8 33.8 19.4-2.2.6-4.5 1.1-6.9 1.5-8.4-9.2-18.9-16.7-30.8-22zm12.8.2c2.1.5 4.1 1.1 6.2 1.7 10.6 3.4 20.1 8.5 28.2 14.7-1.7.9-3.5 1.7-5.3 2.4-8.2-7.8-18-14.2-29.1-18.8zm25 5.8c.4-.3.8-.7 1.2-1l.2-.1c.6-.4 1.1-.9 1.7-1.3l.1-.1c.6-.4 1.2-.9 1.8-1.3 0 0 .1 0 .1-.1.6-.4 1.3-.8 1.9-1.2 4.6-2.9 9.8-4.8 15.3-6.8.1 0 .3.1.4.2-.4.2-.7.3-1.1.5-.2.1-.3.2-.5.2l-.6.3c-.2.1-.4.2-.5.3l-.6.3c-.2.1-.4.2-.5.3l-.6.3c-.2.1-.4.2-.5.3l-.6.3c-.2.1-.3.2-.5.3l-.6.3c-.2.1-.3.2-.5.3-.2.1-.4.3-.6.4-.2.1-.3.2-.5.3-.3.2-.6.4-1 .6-.1.1-.3.2-.4.3-.2.1-.4.3-.6.4-.2.1-.3.2-.5.3-.2.1-.4.3-.5.4-.2.1-.3.2-.5.4-.2.1-.3.3-.5.4-.2.1-.3.2-.5.4-.2.1-.3.3-.5.4-.1.1-.3.2-.4.4-.2.1-.3.3-.5.4-.1.1-.3.2-.4.3-.2.2-.4.3-.6.5-.1.1-.2.2-.4.3-.3.2-.5.5-.8.7-.1.1-.2.2-.4.3l-.5.5-.4.4-.5.5-.4.4c-.1.2-.3.3-.4.5l-.4.4-.1.1c-1.1-.7-2.2-1.4-3.3-2zm6.7 4.1l.3-.3 1.9-1.9.2-.2c.2-.2.4-.3.6-.5.1-.1.2-.2.3-.2.2-.2.4-.3.5-.5l.3-.3c.2-.2.4-.3.5-.5l.3-.3c.2-.1.4-.3.6-.4l.3-.3c.2-.1.4-.3.6-.4.1-.1.2-.2.3-.2.2-.1.4-.3.6-.4.1-.1.2-.1.3-.2.2-.1.4-.3.6-.4.1-.1.2-.1.3-.2.2-.2.5-.3.7-.5 0 0 .1 0 .1-.1.9-.6 1.7-1.1 2.6-1.6.1 0 .1-.1.2-.1.2-.1.5-.3.7-.4.1-.1.2-.1.3-.2.2-.1.5-.3.7-.4.1-.1.2-.1.3-.2.2-.1.5-.2.7-.4.1-.1.2-.1.4-.2s.5-.2.7-.3c.1-.1.2-.1.4-.2s.5-.2.7-.3c.1-.1.2-.1.4-.2s.5-.2.7-.3c.1-.1.2-.1.3-.2.3-.1.5-.2.8-.3.1 0 .2-.4.3-.4.3-.1.6-.7.8-.7l.1.4c.1 0 .1.2.2.3l.7.3c-1.6.9-3.9 1.9-3.9 3.1-3 1.1-3.5 1.9-4.8 3l-.4-.1c-1.3 1.1-2.7 2.2-3.9 3.4 0 0-.1 0-.2.1-.9.9-1.9 1.9-2.8 2.9-.2.2-.4.5-.6.7l-.1.1c-.2.2-.4.4-.6.7l-.1.1c-.4.4-.7.9-1 1.3-.9-.7-1.9-1.4-2.9-2.1zm7.5-17.4c-.1 0-.1.1-.2.1-.5.2-1.1.5-1.6.7-.1 0-.2.1-.2.1-1.2.5-2.4 1.1-3.5 1.7-.1 0-.2.1-.2.1-.6.3-1.1.6-1.7.9 0 0-.1 0-.1.1-.3.2-.6.3-.9.5-.2.1-.5.3-.7.4-.1 0-.1.1-.2.1-.5.3-1.1.7-1.6 1l-.1.1s-.1 0-.1.1c-.5.3-1 .7-1.5 1 0 0-.1 0-.1.1-.5.4-1 .7-1.5 1.1-.1.1-.2.1-.3.2-1 .8-1.9 1.5-2.8 2.4l-.1.1c-.1.1-.1.1-.2.1l-.3.3c-1-.5-2.1-1-3.2-1.5.4-.3.8-.6 1.2-.8.3-.2.7-.5 1-.7.8-.6 1.7-1.1 2.6-1.6.5-.3 1.1-.6 1.6-.9.4-.2.7-.4 1.1-.6 4-2.1 8.4-3.8 13-5 .2 0 .4-.1.6-.1zm-12.2.1c-.1 0-.2.1-.3.1-.5.2-1 .5-1.6.7-.1.1-.3.1-.4.2-.5.3-1 .5-1.5.8-.1 0-.2.1-.3.1-.6.3-1.1.6-1.7.9l-.1.1c-.2.1-.5.3-.7.4-.3.2-.6.3-.8.5-.1 0-.1.1-.2.1-.5.3-1.1.7-1.6 1-.1.1-.2.1-.2.2-.5.3-1 .7-1.5 1 0 0-.1 0-.1.1-.5.4-1 .7-1.5 1.1-.1.1-.2.1-.3.2-.1.1-.2.2-.3.2l-3-1.2c1.2-.8 2.5-1.5 3.8-2.2.5-.3 1-.5 1.5-.8.6-.3 1.1-.5 1.7-.8.8-.4 1.7-.8 2.6-1.1.5-.2 1.1-.4 1.6-.6l2.7-.9c.1 0 .3-.1.4-.1.9-.3 1.8-.5 2.7-.8H95.1c.2 0 .3-.1.5-.1-.6.4-1.2.6-1.7.9z"/><path fill="#4D311C" d="M107.6 88.2c.1 0 .2.1.3.1l-.1-.2c-.1 0-.1.1-.2.1z"/><path fill="#4D311C" d="M42.7 87.1l-1.2 1.4c-.9-.7-1.7-1.6-2.4-2.4l1.4-1.2c-.7-.8-1.3-1.7-1.8-2.6l-1.6.9c-.6-1-1.1-2-1.5-3.1l1.7-.6c-.4-1-.6-2-.8-3l-1.8-.3c-.2-1.2-.3-2.2-.3-4.2h1.8s.1-1.4.3-2.4h-1.8c.2-1.1.5-2.1.9-3.2l1.7.7c.4-1 .8-1.9 1.3-2.8l-1.6-.9c.6-1 1.2-1.9 2-2.8l1.4 1.2c.7-.8 1.4-1.5 2.2-2.2l-1.2-1.4c.9-.7 1.8-1.4 2.8-2l.9 1.6c.9-.5 1.8-1 2.8-1.3v-1.7c1.1-.4.9-.7 3.9-.9v1.8c0-.2 2-.3 2-.3v-1.8c2 0 2.4.1 3.5.3l-.3 1.8c1 .2 2.1.5 3 .8l.6-1.7c1.1.4 2.1.9 3.1 1.5l-.9 1.6c.9.5 1.8 1.1 2.6 1.8l1.2-1.4c.9.7 1.7 1.6 2.4 2.4l-1.4 1.2c.7.8 1.3 1.7 1.8 2.6l1.6-.9c.6 1 1.1 2 1.5 3.1l-1.7.6c.4 1 .6 2 .8 3l1.8-1c.2 1.1.3 2.8.3 2.8h-1.8c0 2-.1 2.8-.3 3.8l1.8.6c-.2 1.1-.5 2.4-.9 3.5l-1.7-.5c-.4 1-.8 2-1.3 2.9l1.6.9c-.2.3-.4.6-.6 1 .6 0 1.1-.1 1.7-.1 2.1-3.3 3.3-7.2 3.3-11.3 0-11.9-10.1-21.6-22-21.6-2.2 0-4.6.3-6.6.9v-3.7c2-.5 5-.8 7-.8V31h28.9l8.6 25H95V43h4v-4.8c0-.8.2-1.5 1-1.5s1 .7 1 1.5V43h2v13h6v14.6c0-1.1-3.2-1.4-5.5-1.4-6.6 0-11.2 4.9-11.9 11.9H78.1c-.3 0-.6 2-1 2h14.5c.1 2 .2 1.3.4 2 1.5.2 3 .4 4.4.6-.2-.2-.3-.4-.5-.7l-.8.4c-.3-.5-.5-1-.7-1.5l.8-.3c-.2-.5-.3-1-.4-1.5l-.9.3c.1-.5.1-1.4.1-1.4h.9s0-1.2.1-1.7l-.9-.2c.1-.6.2-1.1.4-1.6l.8.3c.2-.5.4-.9.6-1.4l-.8-.4c.3-.5.6-.9.9-1.4l.7.6c.3-.4.7-.7 1.1-1.1l-.6-.7c.4-.4.9-.7 1.4-1l.4.8c.4-.2.9-.5 1.4-.6l-.3-.8c.5-.2 1-.3 1.6-.4l-.1.9c.6-.3 1.4-.3 1.4-.3v-.9s1.4 0 1.9.1v.9c.5.1 1 .2 1.5.4l.3-.8c.5.2 1 .4 1.5.7l-.4.8c.4.3.9.5 1.2.9l.6-.7c.4.4.8.7 1.2 1.2l-.7.6.9 1.2.8-.4c.3.5.5 1 .7 1.5l-.8.3c.2.5.3 1 .4 1.5h.9c.1.5.1 1.8.1 1.8h-.9s0 .8-.1 1.3l.9.1c-.1.5-.2 1-.4 1.6l-.8-.3c-.2.5-.4.9-.6 1.4l.8.4c-.3.5-.6.9-1 1.4l-.7-.6c-.3.4-.7.7-1.1 1.1l.6.7-.9.6c6.3 2 11.9 4.6 16.4 7.6 0-.1 0-.1.1-.2 2.6-6.3 4-13.1 4-20.3 0-29.8-24.2-54-54-54s-54 24.2-54 54c0 8.1 1.8 15.8 5 22.7 4.7-3.9 11.2-7.2 18.9-9.7-1.2-.7-1.9-1.2-2.6-1.8zM39.8 52h7.6c-3.8 2-7.2 4-9.8 6h-1.3l3.5-6z"/><path fill="#4D311C" d="M54.2 86c7 0 12.7-5.7 12.7-12.7 0-7-5.7-12.7-12.7-12.7-7 0-12.7 5.7-12.7 12.7 0 7 5.7 12.7 12.7 12.7z"/><circle fill="#4D311C" cx="103.5" cy="80.6" r="6.1"/><path fill="#FFF" d="M77.1 83c.4 0 .7-2 1-2h13.5c.6-7 5.2-11.9 11.9-11.9 2.3 0 5.5.3 5.5 1.4V56h-6V43h-2v-4.8c0-.8-.2-1.5-1-1.5s-1 .7-1 1.5V43h-4v13h-3.4L83 31H54v16.5c-2 0-5 .3-7 .8V52c2-.6 4.5-.9 6.6-.9 11.9 0 21.8 9.7 21.8 21.6 0 4.2-1.1 8-3.2 11.3-.5.9-1.1 2-1.7 2.8.1 0 .3.2.4.2h21.6c-.2 0-.4-1.2-.5-1.7-.2-.7-.3-.3-.4-2.3H77.1zm-2.6-25c-3.4-4-8.5-8.3-14.5-9.7V37h18.7l7.4 21H74.5z"/><path fill="#67CFE3" d="M78.7 37H60v11.3c6 1.5 11.1 5.7 14.5 9.7H86l-7.3-21z"/><path fill="#FFF" d="M47.4 52h-7.6l-3.5 6h1.3c2.6-2 6-4 9.8-6zM69.7 82.3c.5-.9 1-1.8 1.3-2.8l1.7.6c.4-1.1.7-2.2.9-3.3l-1.8-1c.2-1 .3-1.8.3-3.8h1.8s-.1-1.7-.3-2.8l-1.8.6c-.2-1-.5-1.9-.8-2.9l1.7-.5c-.4-1.1-.9-2.1-1.5-3.1l-1.6.9c-.5-.9-1.1-1.8-1.8-2.6l1.4-1.2c-.7-.9-1.6-1.7-2.4-2.4l-1.2 1.4c-.8-.7-1.7-1.3-2.6-1.8l.9-1.6c-1-.6-2-1.1-3.1-1.5l-.3 1.7c-1-.4-2.7-.6-2.7-.8v-1.8c-2-.2-2-.3-4-.3v1.8s-2 .1-3 .3l-.3-1.8c-1.1.2-2.2.5-3.3.9l.6 1.7c-1 .4-1.9.8-2.8 1.3l-.9-1.6c-1 .6-1.9 1.2-2.8 2l1.2 1.4c-.8.7-1.5 1.4-2.2 2.2l-1.4-1.2c-.7.9-1.4 1.8-2 2.8l1.6.9c-.5.9-1 1.8-1.3 2.8l-1.7-.6c-.4 1.1-.7 2.2-.9 3.3l1.8-.3c-.2 1-.3 2.4-.3 2.4h-1.8c0 2 .1 3 .3 4.1h1.8c.2 1 .5 2.2.8 3.2L35.6 80c.4 1.1.9 2.2 1.5 3.2l1.6-.9c.5.9 1.1 1.8 1.8 2.6L39.1 86c.7.9 1.6 1.7 2.4 2.4l1.2-1.4c.7.6 1.5 1.1 2.3 1.6.1.1.2.1.3.2l-.9 1.6c1 .6 2 1.1 3.1 1.5l.6-1.7c1 .4 2 .6 3 .8l-.4 1.8c1.1.2 3.3.3 3.3.3v-1.8c2 0 2.2-.1 3.2-.3l.4 1.8c1.1-.2 2.3-.5 3.4-.9l-.6-1.7c1-.4 1.9-.8 2.8-1.3l.9 1.6c1-.6 1.9-1.2 2.8-2l-1.2-1.4c.8-.7 1.5-1.4 2.2-2.2l1.4 1.2c.5-.6.9-1.2 1.4-1.9l.6-.9-1.6-1zm-28.2-9c0-7 5.7-12.7 12.7-12.7 7 0 12.7 5.7 12.7 12.7 0 7-5.7 12.7-12.7 12.7-7 0-12.7-5.7-12.7-12.7zM109 87.2c.4-.3.7-.7 1.1-1.1l.7.6c.4-.4.7-.9 1-1.4l-.8-.4c.3-.4.5-.9.6-1.4l.8.3c.2-.5.3-1.1.4-1.6h-.9c.1-.5.1-1.3.1-1.3h.9s0-1.3-.1-1.8l-.9.1c-.1-.5-.2-1-.4-1.5l.8-.3c-.2-.5-.4-1-.7-1.5l-.8.4c-.3-.4-.5-.9-.9-1.2l.7-.6c-.4-.4-.7-.8-1.2-1.2l-.4.7-1.2-.9.4-.8c-.5-.3-1-.5-1.5-.7l-.3.8c-.5-.2-1-.3-1.5-.4l-.1-.9c-.5-.1-1.9-.1-1.9-.1v1s-.8 0-1.3.1v-.9c-.6.1-1 .2-1.5.4l.3.8c-.5.2-.9.4-1.4.6l-.4-.8c-.5.3-.9.6-1.4 1l.6.7c-.4.3-.7.7-1.1 1.1l-.7-.6c-.4.4-.7.9-.9 1.4l.8.4c-.3.4-.5.9-.6 1.4l-.8-.3c-.2.5-.3 1-.4 1.6l.9.3c-.1.5-.1 1.7-.1 1.7H94s0 .9.1 1.5l.9-.2c.1.5.2.9.4 1.4l-.8.3c.2.5.4 1 .7 1.5l.7-.4c.1.2.3.4.5.7.1.2.3.4.4.6l-.7.6c.4.4.7.8 1.2 1.2l.6-.7 1.2.9-.4.8c.5.3 1 .5 1.5.7l.3-.8c.5.2 1 .3 1.5.4l-.4.9c.5.1 1.4.1 1.4.1v-.9s1.2 0 1.7-.1l.2.6c.6-.1 1.1-.2 1.7-.4l-.3-.8c.4-.2.8-.3 1.2-.5.1 0 .1-.1.2-.1l.1.2.3.6c.2-.1.3-.2.5-.3l.9-.6-.6-.9zm-5.5-.5c-3.4 0-6.1-2.7-6.1-6.1 0-3.4 2.7-6.1 6.1-6.1 3.4 0 6.1 2.7 6.1 6.1 0 3.4-2.8 6.1-6.1 6.1z"/><path fill="#7E8837" d="M75.7 11.7c-35.3 0-63.9 28.7-63.9 63.9s28.7 63.9 63.9 63.9 63.9-28.7 63.9-63.9S111 11.7 75.7 11.7zm0 123.9c-33.1 0-60-26.9-60-60s26.9-60 60-60 60 26.9 60 60c.1 33.1-26.9 60-60 60z"/></svg>