<svg xmlns:xlink="http://www.w3.org/1999/xlink"  xmlns="http://www.w3.org/2000/svg" viewBox="0 0 150 150"><linearGradient id="a" gradientUnits="userSpaceOnUse" x1="67.223" y1="75.752" x2="109.411" y2="41.629"><stop offset="0" stop-color="#6cab36"/><stop offset="1" stop-color="#00a251"/></linearGradient><path fill="url(#a)" d="M74.8 9.9c-21 0-39.6 10-51.4 25.5C35 27.3 48 19.8 57.1 19.2c0 0 26.7-5.9 45.9 11.5 0 0-25.2-10.3-45.7-6.6-.4 10.3.9 34.2 21.5 46.6 26.7 16.1 49.6-7.4 55.2 27.9.1.4.1.8.2 1.2 3.3-7.8 5.2-16.4 5.2-25.4 0-35.6-28.9-64.5-64.6-64.5z"/><linearGradient id="b" gradientUnits="userSpaceOnUse" x1="37.979" y1="110.345" x2="101.26" y2="61.954"><stop offset="0" stop-color="#6cab36"/><stop offset="1" stop-color="#6ec829"/></linearGradient><path fill="url(#b)" d="M93.7 131.9l-.1.2s-26.7 5.9-45.9-11.5c0 0 24.5 10 44.8 6.7.5-10.2-.8-34.2-21.5-46.8C44.4 64.4 21.4 88 15.8 52.6c-.1-.4-.1-.8-.2-1.2-3.3 7.8-5.2 16.4-5.2 25.4 0 35.6 28.9 64.5 64.5 64.5 21 0 39.6-10 51.4-25.5-11.1 7.8-23.6 15.1-32.6 16.1z"/><linearGradient id="c" gradientUnits="userSpaceOnUse" x1="104.491" y1="84.896" x2="27.56" y2="102.888"><stop offset="0" stop-color="#fffffe"/><stop offset="1" stop-color="#6ec829"/></linearGradient><path fill="url(#c)" d="M91.2 123s-1.7-29-20.3-39.7C52.3 72.5 30 81.6 18.4 70c0 0 4.5 17 27.7 17.8 23.2.9 37.2 11.2 45.1 35.2z"/><linearGradient id="d" gradientUnits="userSpaceOnUse" x1="51.413" y1="59.38" x2="149.438" y2="49.454"><stop offset="0" stop-color="#fffffe"/><stop offset="1" stop-color="#00a251"/></linearGradient><path fill="url(#d)" d="M58.7 28.5S60.4 57.4 79 68.2c18.6 10.8 40.9 1.7 52.5 13.2 0 0-4.5-17-27.7-17.8-23.2-.8-37.2-11.1-45.1-35.1z"/></svg>