<svg xmlns:xlink="http://www.w3.org/1999/xlink"  version="1" xmlns="http://www.w3.org/2000/svg" viewBox="0 0 150 150"><path fill="#255623" d="M74.3 49s-12.2-1.9-12.2-15.7c0 0 13.8 5.1 12.2 15.7"/><path fill="#255623" d="M74.3 60.7S62.1 58.8 62.1 45c0 0 13.8 5.1 12.2 15.7"/><path fill="#255623" d="M74.3 72.4s-12.2-1.9-12.2-15.7c0 0 13.8 5.1 12.2 15.7"/><path fill="#255623" d="M74.3 84.1s-12.2-1.9-12.2-15.7c0 0 13.8 5.1 12.2 15.7"/><path fill="#255623" d="M74.3 95.8s-12.2-1.9-12.2-15.7c0 0 13.8 5.2 12.2 15.7"/><path fill="#255623" d="M74.3 107.5s-12.2-1.9-12.2-15.7c0 0 13.8 5.2 12.2 15.7"/><path fill="#255623" d="M74.3 119.2s-12.2-1.9-12.2-15.7c0 0 13.8 5.2 12.2 15.7M74.3 49s-12.2-1.9-12.2-15.7c0 0 13.8 5.1 12.2 15.7"/><path fill="#255623" d="M74.3 60.7S62.1 58.8 62.1 45c0 0 13.8 5.1 12.2 15.7"/><path fill="#255623" d="M74.3 72.4s-12.2-1.9-12.2-15.7c0 0 13.8 5.1 12.2 15.7"/><path fill="#255623" d="M74.3 84.1s-12.2-1.9-12.2-15.7c0 0 13.8 5.1 12.2 15.7"/><path fill="#255623" d="M74.3 95.8s-12.2-1.9-12.2-15.7c0 0 13.8 5.2 12.2 15.7"/><path fill="#255623" d="M74.3 107.5s-12.2-1.9-12.2-15.7c0 0 13.8 5.2 12.2 15.7"/><path fill="#255623" d="M74.3 119.2s-12.2-1.9-12.2-15.7c0 0 13.8 5.2 12.2 15.7M77 49s12.2-1.9 12.2-15.7c0 0-13.9 5.1-12.2 15.7"/><path fill="#255623" d="M77 60.7S89.2 58.8 89.2 45c0 0-13.9 5.1-12.2 15.7"/><path fill="#255623" d="M77 72.4s12.2-1.9 12.2-15.7c0 0-13.9 5.1-12.2 15.7"/><path fill="#255623" d="M77 84.1s12.2-1.9 12.2-15.7c0 0-13.9 5.1-12.2 15.7"/><path fill="#255623" d="M77 95.8s12.2-1.9 12.2-15.7c0 0-13.9 5.2-12.2 15.7"/><path fill="#255623" d="M77 107.5s12.2-1.9 12.2-15.7c0 0-13.9 5.2-12.2 15.7"/><path fill="#255623" d="M77 119.2s12.2-1.9 12.2-15.7c0 0-13.9 5.2-12.2 15.7M75.5 39.3s8.5-9 0-19.9c.1 0-7.8 12.6 0 19.9"/><path fill="#46803C" d="M41.7 37.2s-12.2-1.9-12.2-15.7c0 0 13.9 5.2 12.2 15.7"/><path fill="#46803C" d="M41.7 48.9S29.5 47 29.5 33.2c0 0 13.9 5.2 12.2 15.7"/><path fill="#46803C" d="M41.7 60.6s-12.2-1.9-12.2-15.7c0 0 13.9 5.2 12.2 15.7"/><path fill="#46803C" d="M41.7 72.3s-12.2-1.9-12.2-15.7c0 .1 13.9 5.2 12.2 15.7"/><path fill="#46803C" d="M41.7 84.1s-12.2-1.9-12.2-15.7c0 0 13.9 5.1 12.2 15.7"/><path fill="#46803C" d="M41.7 95.8s-12.2-1.9-12.2-15.7c0 0 13.9 5.1 12.2 15.7"/><path fill="#46803C" d="M41.7 107.5s-12.2-1.9-12.2-15.7c0 0 13.9 5.1 12.2 15.7M41.7 37.2s-12.2-1.9-12.2-15.7c0 0 13.9 5.2 12.2 15.7"/><path fill="#46803C" d="M41.7 48.9S29.5 47 29.5 33.2c0 0 13.9 5.2 12.2 15.7"/><path fill="#46803C" d="M41.7 60.6s-12.2-1.9-12.2-15.7c0 0 13.9 5.2 12.2 15.7"/><path fill="#46803C" d="M41.7 72.3s-12.2-1.9-12.2-15.7c0 .1 13.9 5.2 12.2 15.7"/><path fill="#46803C" d="M41.7 84.1s-12.2-1.9-12.2-15.7c0 0 13.9 5.1 12.2 15.7"/><path fill="#46803C" d="M41.7 95.8s-12.2-1.9-12.2-15.7c0 0 13.9 5.1 12.2 15.7"/><path fill="#46803C" d="M41.7 107.5s-12.2-1.9-12.2-15.7c0 0 13.9 5.1 12.2 15.7M44.4 37.2s12.2-1.9 12.2-15.7c0 0-13.9 5.2-12.2 15.7"/><path fill="#46803C" d="M44.4 48.9S56.6 47 56.6 33.2c0 0-13.9 5.2-12.2 15.7"/><path fill="#46803C" d="M44.4 60.6s12.2-1.9 12.2-15.7c0 0-13.9 5.2-12.2 15.7"/><path fill="#46803C" d="M44.4 72.3s12.2-1.9 12.2-15.7c0 .1-13.9 5.2-12.2 15.7"/><path fill="#46803C" d="M44.4 84.1s12.2-1.9 12.2-15.7c0 0-13.9 5.1-12.2 15.7"/><path fill="#46803C" d="M44.4 95.8s12.2-1.9 12.2-15.7c0 0-13.9 5.1-12.2 15.7"/><path fill="#46803C" d="M44.4 107.5s12.2-1.9 12.2-15.7c0 0-13.9 5.1-12.2 15.7M43 27.5s8.5-9 0-19.9c0 .1-7.8 12.6 0 19.9M109.1 37.2s-12.2-1.9-12.2-15.7c0 0 13.8 5.2 12.2 15.7"/><path fill="#46803C" d="M109.1 48.9S96.9 47 96.9 33.2c0 0 13.8 5.2 12.2 15.7"/><path fill="#46803C" d="M109.1 60.6s-12.2-1.9-12.2-15.7c0 0 13.8 5.2 12.2 15.7"/><path fill="#46803C" d="M109.1 72.3s-12.2-1.9-12.2-15.7c0 .1 13.8 5.2 12.2 15.7"/><path fill="#46803C" d="M109.1 84.1s-12.2-1.9-12.2-15.7c0 0 13.8 5.1 12.2 15.7"/><path fill="#46803C" d="M109.1 95.8s-12.2-1.9-12.2-15.7c0 0 13.8 5.1 12.2 15.7"/><path fill="#46803C" d="M109.1 107.5s-12.2-1.9-12.2-15.7c0 0 13.8 5.1 12.2 15.7M109.1 37.2s-12.2-1.9-12.2-15.7c0 0 13.8 5.2 12.2 15.7"/><path fill="#46803C" d="M109.1 48.9S96.9 47 96.9 33.2c0 0 13.8 5.2 12.2 15.7"/><path fill="#46803C" d="M109.1 60.6s-12.2-1.9-12.2-15.7c0 0 13.8 5.2 12.2 15.7"/><path fill="#46803C" d="M109.1 72.3s-12.2-1.9-12.2-15.7c0 .1 13.8 5.2 12.2 15.7"/><path fill="#46803C" d="M109.1 84.1s-12.2-1.9-12.2-15.7c0 0 13.8 5.1 12.2 15.7"/><path fill="#46803C" d="M109.1 95.8s-12.2-1.9-12.2-15.7c0 0 13.8 5.1 12.2 15.7"/><path fill="#46803C" d="M109.1 107.5s-12.2-1.9-12.2-15.7c0 0 13.8 5.1 12.2 15.7M111.8 37.2S124 35.3 124 21.5c0 0-13.9 5.2-12.2 15.7"/><path fill="#46803C" d="M111.8 48.9S124 47 124 33.2c0 0-13.9 5.2-12.2 15.7"/><path fill="#46803C" d="M111.8 60.6S124 58.7 124 44.9c0 0-13.9 5.2-12.2 15.7"/><path fill="#46803C" d="M111.8 72.3S124 70.4 124 56.6c0 .1-13.9 5.2-12.2 15.7"/><path fill="#46803C" d="M111.8 84.1S124 82.2 124 68.4c0 0-13.9 5.1-12.2 15.7"/><path fill="#46803C" d="M111.8 95.8S124 93.9 124 80.1c0 0-13.9 5.1-12.2 15.7"/><path fill="#46803C" d="M111.8 107.5s12.2-1.9 12.2-15.7c0 0-13.9 5.1-12.2 15.7M110.3 27.5s8.5-9 0-19.9c.1.1-7.7 12.6 0 19.9"/><path fill="#A76751" d="M129.1 42.4V55c2.5 6.4 3.9 13.3 3.9 20.6 0 7.3-1.4 14.2-3.9 20.6v.4h-.1c-8.4 21.3-29.1 36.4-53.4 36.4-31.7 0-57.4-25.7-57.4-57.4 0-8.5 1.9-16.5 5.2-23.7V40.3c-6.8 10.1-10.8 22.2-10.8 35.4 0 34.8 28.2 63.1 63.1 63.1 34.8 0 63.1-28.2 63.1-63.1-.2-12.3-3.7-23.7-9.7-33.3z"/></svg>