<svg xmlns:xlink="http://www.w3.org/1999/xlink"  xmlns="http://www.w3.org/2000/svg" viewBox="0 0 150 150"><circle fill="#D9DBDC" cx="75.7" cy="76.3" r="59.6"/><path fill="#D14F53" d="M113 76.8c.2 23.1-16.6 34.6-37.1 34.6S38.6 98.9 38.8 76.8c.2-16.3 16.7-24.4 37.1-24.4 20.5 0 37 8.1 37.1 24.4z"/><path fill="#55924E" d="M74.5 52s-10.2-1.7-18.2 3.2c0 0 6.8 4.2 16.7 0 0 0 1.1 7.2 13.1 8.1 0 0 .8-5.1-6.6-9.1 0 0 2.3 4.2 15.1 2.1 0-.1-4.2-7.3-20.1-4.3z"/><path fill="#55924E" d="M74 53.1s-4-10.9 2.6-15.6l2.5 1.8S71 46 78.4 55.8"/><ellipse transform="rotate(-20.772 53.964 66.587)" fill="#FFFFFE" cx="54" cy="66.6" rx="3.3" ry="2.8"/><ellipse transform="rotate(-8.069 59.927 63.645)" fill="#FFFFFE" cx="59.9" cy="63.6" rx="1.6" ry="1.3"/></svg>