<svg xmlns:xlink="http://www.w3.org/1999/xlink"  xmlns="http://www.w3.org/2000/svg" width="100" height="100" viewBox="0 0 100 100"><path fill="#FFF" d="M30.218 32.339c7.829-6.444 19.683-7.428 28.469-2.359 4.874 2.826 8.91 7.173 11.084 12.393.209.474.633 1.433.839 1.908-.649.008-1.936.017-2.573.027-2.188-5.265-5.789-9.979-10.801-12.824-6.169-3.599-13.996-3.852-20.596-1.331-7.838 3.153-13.523 10.809-14.455 19.191-.588.457-1.168.933-1.738 1.416.625-7.15 4.114-13.95 9.771-18.421z"/><g fill="#F89F2E"><path d="M18.521 52.498C17.616 36.996 31.87 22.899 47.216 22.75c14.056-1.199 27.776 9.083 31.111 22.671-2.799-.976-7.068.102-8.556-3.049-2.174-5.22-6.21-9.566-11.084-12.393-8.786-5.069-20.64-4.085-28.469 2.359-5.658 4.47-9.146 11.271-9.771 18.421-.48.433-1.44 1.307-1.926 1.739z"/><path d="M36.64 30.154c6.6-2.521 14.427-2.268 20.596 1.331 5.012 2.845 8.612 7.56 10.801 12.824-4.338.206-8.632 1.113-12.709 2.59-4.995-3.079-10.766-5.581-16.761-4.75-5.971.879-11.551 3.645-16.381 7.196.931-8.382 6.616-16.038 14.454-19.191z"/></g><path fill="#2E6D3C" d="M22.186 49.345c4.83-3.552 10.411-6.317 16.381-7.196 5.996-.831 11.766 1.671 16.761 4.75-9.608 3.629-18.43 8.968-27.873 12.951-5.503 2.351-11.18 4.676-17.236 4.979 2.048-4.547 4.923-8.688 8.302-12.33.486-.432 1.446-1.306 1.927-1.737.569-.485 1.149-.96 1.738-1.417z"/><path fill="#96BA44" d="M69.771 42.373c1.487 3.15 5.757 2.073 8.556 3.049 6.452 1.614 11.938 5.798 16.346 10.664-2.593-.6-5.229-1.015-7.818-1.6-8.789-6.802-21.203-7.027-31.155-2.766-12.495 5.278-24.121 13.254-37.82 15.17 5.237 4.459 11.345 7.604 17.594 10.369-10.015-.274-18.993-5.883-26.275-12.338.25-.027.761-.079 1.02-.093 6.056-.303 11.733-2.628 17.236-4.979 9.443-3.983 18.265-9.322 27.873-12.951 4.077-1.477 8.371-2.384 12.709-2.59.638-.011 1.924-.02 2.573-.027-.206-.475-.63-1.434-.839-1.908z"/><path fill="#7F9C3D" d="M55.699 51.721c9.952-4.262 22.366-4.036 31.155 2.766 1.657 1.286 3.057 2.858 4.569 4.299-1.345-.539-3.341-1.188-4.597-1.154-4.311.006-8.726-.303-12.863 1.138-5.575 1.928-9.809 6.246-13.877 10.317-6.529 6.21-15.741 8.778-24.613 8.173-6.249-2.766-12.357-5.91-17.594-10.369 13.7-1.917 25.326-9.893 37.82-15.17z"/></svg>