<svg xmlns:xlink="http://www.w3.org/1999/xlink"  version="1" xmlns="http://www.w3.org/2000/svg" viewBox="0 0 150 150"><path fill-rule="evenodd" clip-rule="evenodd" fill="#519036" d="M120.1 30.5v-8c.9-.2 1.7-.4 2.6-.6l-2.6 8.6zm7 21.5c-.4-3.9 1.1-8.4 4.6-11.8 3.4-3.4 7.9-5 11.8-4.6l-6.3 10.1-10.1 6.3zm-7-29.5v8l-4.3 14-14.6 15.6V39c.4-.7.7-1.5 1.2-2.2 4.3-7.4 10.9-12.4 17.7-14.3zM101.2 39v21.1l-1.5 1.7c-.2-.5-.4-1-.5-1.5V44.5c.5-1.8 1.2-3.7 2-5.5zm-2.1-15V11.3c.4-.2.7-.4 1.1-.6l-.4 11.9-.7 1.4zm0-12.7V24l-4.9 9.1c-2.3-3.2-3.2-7.8-1.9-12.5 1.2-4.2 3.7-7.5 6.8-9.3zm0 33.2v15.8c-1.4-4.7-1.5-10.3 0-15.8zM51.5 29.3V12.8l4.5 8.4.4 11.9c-1.8-.8-3.5-2.1-4.9-3.8zm23.8 26c-6.1-4.9-10.1-13.4-10.1-23s4-18.1 10.1-23l5.4 23-5.4 23zM51.5 12.8v16.5c-.8-1-1.5-2.1-2.1-3.3V12.2c.3-.5.6-1.1.9-1.5l1.2 2.1zm-2 48.7v-4.8l1.5 5.1c-.5 0-1-.2-1.5-.3zm0-49.3V26c-.4-.9-.7-1.8-1-2.7-1.1-4.1-.6-8 1-11.1zm0 44.5l-5.3-17.5-13.6-14.4v22l.1.2c4.5 7.8 11.5 13 18.7 14.6v-4.9h.1zM30.6 24.8v22C25.9 38.5 25.2 29.2 28 22l2.6 2.8zm-7 27.2c-3.9.4-8.4-1.1-11.8-4.6-3.4-3.4-5-7.9-4.6-11.8l10.1 6.3L23.6 52z"/><path fill-rule="evenodd" clip-rule="evenodd" fill="#84C346" d="M127.1 52c3.9.4 8.4-1.1 11.8-4.6 3.4-3.4 5-7.9 4.6-11.8L127.1 52zm-7-5.2V26.5l2.6-4.5c2.8 7.2 2.1 16.5-2.6 24.8zm0-20.3v20.3l-.1.2c-4.5 7.8-11.5 13-18.7 14.6v-2.4l18.8-32.7zm-18.9-.5V12.2c1.6 3.1 2.1 7 1 11-.2 1-.6 1.9-1 2.8zm0-13.8V26c-.6 1.2-1.3 2.4-2.1 3.3V14.9l1.1-4.2c.4.5.7 1 1 1.5zm0 46.9v2.4l-1.5.3 1.5-2.7zm-2.1-44.2v14.4c-1.4 1.7-3.1 3-4.9 3.8l4.9-18.2zM51.5 60.3V44.5c1.6 5.5 1.5 11 0 15.8zm0-45.4v-3.7c3.1 1.8 5.7 5.1 6.8 9.3 1.3 4.7.4 9.3-1.9 12.5l-4.9-18.1zm23.8 40.4c6.1-4.9 10.1-13.4 10.1-23s-4-18.1-10.1-23v46zm-23.8-44V15l-1.1-4.2c.4.1.8.3 1.1.5zm0 33.2v15.8c-.2.5-.3 1-.5 1.5l-1.5-2.7V39c.8 1.8 1.5 3.7 2 5.5zm-2-5.5v20.1L30.6 26.5v-4c6.8 1.9 13.4 6.9 17.7 14.3.4.8.8 1.5 1.2 2.2zM30.6 22.5v4L28 22c.9.1 1.8.3 2.6.5zm-7 29.5c.4-3.9-1.1-8.4-4.6-11.8-3.4-3.4-7.9-5-11.8-4.6L23.6 52z"/><path fill="#519036" d="M38.9 88.1c2.4 1 4.4-1.5 4.4-5.4 0-3.9-2-7.7-4.4-8.6-2.4-.9-4.4 1.4-4.4 5.2 0 3.8 2 7.8 4.4 8.8z"/><path fill="#519036" d="M120.8 106.8c-2.6-4.5-4.7-7.7-4.1-9 2.2-3.8 5.2-9.1 7.2-15.9 2.1-6.8 3.2-14.9 1.8-24.3-1.3 5.8-3.7 12.5-6.3 18.9-2.7 6.4-5.7 12.3-8.5 16.3-5.6-5.2-11.8-6.9-18-5.8-6.2 1.1-12.4 5.1-18 12.6C69.4 92.1 63.1 88.2 57 87c-6.2-1.1-12.4.5-18 5.7-2.8-4-5.8-9.9-8.5-16.3s-5-13.1-6.3-18.9c-1.5 9.5-.3 17.6 1.8 24.4 2 6.8 5 12.1 7.2 15.9.7 1.3-1.5 4.5-4 9-2.5 4.3-5.4 9.5-5.9 16.5 4.2 3.8 8.4 6.8 12.6 9.1.4-2.6.9-7.2 1.4-11.4.5-4.2 1.1-8.2 1.7-9.5.5 1.7 1.1 6.1 1.6 10.8.5 4.7 1.1 9.8 1.5 12.9 4.2 1.5 8.4 2.8 12.6 3.8-.6-8.2-3.4-16.8-5.9-23.7-2.5-6.9-4.7-12-4-12.7 6.6-7 18-4.9 24.6 4.6.7 1-1.5 5.3-4 11.3-2.5 5.9-5.4 13.6-5.9 21.6 4.2.5 8.4 1 12.6 1.1.4-2.9.9-7.8 1.5-12.3.5-4.5 1.1-8.7 1.6-10.2.5 1.5 1.1 5.7 1.6 10.2.6 4.6 1.1 9.4 1.5 12.3 4.2-.2 8.4-.6 12.6-1.1-.6-8-3.4-15.6-5.9-21.6-2.5-6-4.7-10.3-4-11.3 6.6-9.5 18-11.6 24.6-4.6.7.7-1.5 5.8-4 12.7-2.5 6.9-5.4 15.6-5.9 23.7 4.2-1 8.4-2.3 12.6-3.8.4-3 .9-8.1 1.5-12.9.5-4.7 1.1-9.2 1.6-10.9.5 1.3 1.1 5.2 1.7 9.5.6 4.2 1.1 8.8 1.5 11.4 4.2-2.3 8.4-5.4 12.6-9.1-1-6.9-3.9-12.1-6.4-16.4z"/><path fill="#519036" d="M75 94.5c2.2 0 4.4-2.3 4.4-6.8 0-4.6-2.2-6.8-4.4-6.8s-4.4 2.3-4.4 6.8 2.2 6.8 4.4 6.8z"/><path fill="#84C346" d="M111 88c2.5-1 4.5-5 4.5-8.8 0-3.8-2-6.1-4.5-5.2-2.4.9-4.4 4.7-4.4 8.6 0 3.9 2 6.4 4.4 5.4z"/><g fill="#84C346"><path d="M121.1 106.8c-2.5-4.5-4.7-7.7-4-9 2.2-3.8 5.2-9.1 7.2-15.9 2.1-6.8 3.2-14.9 1.8-24.3-1.4 5.8-3.7 12.5-6.3 18.9-2.7 6.4-5.7 12.3-8.4 16.3-5.6-5.2-11.8-6.9-18-5.8-6.2 1.1-12.4 5.1-18 12.6-.1-.2-.2-.3-.4-.4v20.9c.1-.6.3-1.2.4-1.5.5 1.5 1.1 5.7 1.6 10.2.5 4.6 1.1 9.4 1.5 12.3 4.2-.2 8.4-.6 12.6-1.1-.6-8-3.4-15.6-5.9-21.6-2.5-6-4.7-10.3-4-11.3 6.6-9.5 18-11.6 24.6-4.6.7.7-1.5 5.8-4.1 12.7-2.5 6.9-5.4 15.6-5.9 23.7 4.2-1 8.4-2.3 12.6-3.8.4-3 .9-8.1 1.5-12.9.5-4.7 1.1-9.2 1.6-10.9.5 1.3 1.1 5.2 1.6 9.5.5 4.2 1.1 8.8 1.5 11.4 4.2-2.3 8.4-5.4 12.6-9.1-.7-6.8-3.6-12-6.1-16.3zM75.3 94.5c2.2 0 4.4-2.3 4.4-6.8 0-4.6-2.2-6.8-4.4-6.8-.1 0-.2.1-.4.1v13.5c.1-.1.3 0 .4 0z"/><path d="M111.3 88c2.5-1 4.4-5 4.4-8.8 0-3.8-2-6.1-4.4-5.2-2.4.9-4.4 4.7-4.4 8.6 0 3.9 2 6.4 4.4 5.4z"/></g></svg>