<svg xmlns:xlink="http://www.w3.org/1999/xlink"  xmlns="http://www.w3.org/2000/svg" viewBox="0 0 150 150"><path fill="none" d="M70.8 33c9.2-3.2 15.6-8.7 14.4-12.2-1.2-3.6-9.7-3.9-18.9-.7s-15.6 8.7-14.4 12.2c1.3 3.6 9.7 3.9 18.9.7z"/><path fill="#B3B2B3" d="M60.7 134.5c-.5.2-.8.4-.8.6 0 1.3 10.3 2.4 23 2.4s23-1.1 23-2.4-10.3-2.4-23-2.4h-1.1c-5.3 4.6-14.7 5.2-21.1 1.8z"/><path fill="#FBAD18" d="M47.7 85.1c-.4-1-.6-1.9-.4-2.9-1.3-.8-2.7-1.3-4-1.4l-23.2-1.1c-.1.3-.1.6-.1.9 0 2.9 2.4 5.2 5.3 5.2h13.2l-13.8 1.6v.8c.4 2.3 2.5 3.8 4.8 3.5l7.5-1.2-5.3 2.4c.1.2.1.4.2.6.9 1.7 2.9 2.3 4.6 1.5l4.2-2.2-2.5 3.1c.1.2.3.3.5.4 1.5 1.1 3.6.7 4.7-.8l3-4.2c.5.4 1.1.8 1.6 1.1-.1-1.4-.2-2.8-.3-4.4.2-.8.1-1.8 0-2.9zM119.7 80.8c0-.3 0-.7-.1-1l-23.2 1.1c-1.3 0-2.6.5-4 1.4.1.8 0 1.6-.3 2.5 0 1.2-.1 2.3-.1 3.4-.1 1.5-.2 3-.3 4.3.5-.3 1-.6 1.5-1l3 4.2c1.1 1.5 3.2 1.9 4.7.8.2-.1.3-.3.5-.4L99 93l4.2 2.2c1.7.8 3.7.2 4.6-1.5.1-.2.2-.4.2-.6l-5.3-2.4 7.5 1.2c2.3.4 4.4-1.2 4.8-3.4 0-.3.1-.6 0-.9L101.2 86h13.2c2.9 0 5.3-2.3 5.3-5.2zM72.7 38.7c12.2-4.2 20.4-12.4 18.4-18.3s-13.6-7.2-25.7-3C53.2 21.7 45 29.9 47 35.7c2 5.9 13.6 7.2 25.7 3zm-6.4-18.6c9.2-3.2 17.6-2.9 18.9.7 1.2 3.6-5.2 9.1-14.4 12.2-9.2 3.2-17.6 2.9-18.9-.7-1.2-3.5 5.2-9 14.4-12.2zM64.8 48.2c-1.4.8-2.8 1.9-4.1 3.2.9.3 2 .6 3.1.9.3-1.5.7-2.9 1-4.1zM63.3 55.5c-1.8-.4-3.4-.9-4.9-1.5-1.2 1.5-2.3 3.3-3.3 5.3 1.2 1.2 3.7 2.4 7.4 3.2.2-2.3.4-4.7.8-7zM69.9 105h.1c.8-6 1.8-10.4 3-15-1 .1-2 0-3 .1-1 0-2 .1-3 0 1.1 4.5 2.1 8.9 2.9 14.9zM62 73.4c0-2 .1-4.6.2-7.6-2.4-.5-4.6-1.2-6.4-2.1 1.6 2.7 3.2 5.8 4.7 9.2.5.2 1 .4 1.5.5zM76 52.2c1.2-.3 2.2-.5 3.1-.9-1.3-1.3-2.7-2.4-4.2-3.2.5 1.3.9 2.7 1.1 4.1zM74.3 66.4a32.53 32.53 0 0 1-8.8 0c-.1 2.4-.2 4.9-.2 7.8 2.6.7 7.6.6 9.1 0 .1-2.9 0-5.5-.1-7.8zM81.5 54c-1.4.6-3.1 1.1-4.9 1.5.3 2.3.6 4.7.8 7 3.6-.8 6.2-2 7.4-3.2-1-2-2.1-3.7-3.3-5.3zM74.1 87.1c.2-2.9.4-6.1.4-9.6-1.5.2-3 .3-4.5.3s-3.1-.1-4.5-.3c.1 3.5.2 6.7.4 9.6 0 .1.1.3.1.4 1.8.5 6.1.4 8 0 0-.1 0-.2.1-.4zM65.8 63.1c1.6.5 7 .5 8.3 0-.2-2.7-.5-5-.8-7.1-1.3.4-5.2.4-6.7 0-.3 2.1-.6 4.4-.8 7.1zM70.9 46.8h-2c-.6 1.4-1.2 3.3-1.8 6 1.4.3 4.5.3 5.6 0-.5-2.7-1.2-4.7-1.8-6zM79.3 72.9c1.5-3.4 3.1-6.4 4.7-9.2-1.8.9-4 1.6-6.4 2.1.2 3 .2 5.6.2 7.6.6-.1 1.1-.3 1.5-.5z"/><path fill="#5EA62F" d="M92.2 84.8c1-12.5 2.9-28.7 6.7-37.3-2.6 2.4-6.4 6.3-10.4 12.1-.4.6-.9 1.3-1.3 1.9-.3.4-.5.8-.8 1.2-.5.8-1 1.6-1.5 2.5-1.1 2-2.3 4.2-3.4 6.7-.7 1.4-1.3 2.9-2 4.5-.6 1.5-1.2 3-1.8 4.6-.7 2-1.4 4-2 6.2-.3 1.2-.7 2.3-1 3.6-1.7 6.2-3 13.3-3.9 21.2-.3 2.6-.7 5.4-.9 8.2-.2-2.8-.6-5.6-.9-8.2-.9-7.9-2.2-15-3.9-21.2-.3-1.2-.7-2.4-1-3.6-.6-2.2-1.3-4.2-2-6.2-.6-1.6-1.2-3.2-1.8-4.6-.6-1.6-1.3-3.1-2-4.5-1.1-2.4-2.3-4.7-3.4-6.7-.5-.9-1-1.7-1.5-2.5-.3-.4-.5-.8-.8-1.2-.4-.7-.9-1.3-1.3-1.9-4-5.8-7.7-9.7-10.4-12.1 3.8 8.6 5.8 25.1 6.7 37.6.1 1.1.2 2.1.2 3.1.1 1.6.2 3 .3 4.4.3 5 .4 8.4.4 8.9.7 10.3 2.4 17.9 4.7 23.5.6 1.5 2.1 4.5 2.1 4.5 1.2 2.1 3.1 3.8 5.3 5 6.4 3.4 15.8 2.8 21.1-1.8 1.1-.9 2-2 2.7-3.2 0 0 1.5-3 2.1-4.5 2.3-5.6 4-13.2 4.7-23.5 0-.5.1-4 .4-9 .1-1.3.2-2.8.3-4.3.1-1.1.2-2.2.3-3.4z"/></svg>