<svg xmlns:xlink="http://www.w3.org/1999/xlink"  version="1" xmlns="http://www.w3.org/2000/svg" viewBox="0 0 150 150"><g fill-rule="evenodd" clip-rule="evenodd"><path fill="#035946" d="M142.2 64.6c.5 3.3.8 6.7.8 10.2 0 37.4-30.5 67.8-67.8 67.8-37.4 0-67.8-30.5-67.8-67.8 0-2.7.2-5.4.5-8 4.6-3.8 9.6-6.7 15.1-8.5.9-.3 1.7-.5 2.6-.6-1.9 5.4-2.9 11.1-2.9 17.1 0 28.9 23.6 52.5 52.5 52.5s52.5-23.6 52.5-52.5c0-5.6-.9-11-2.5-16.1h1.5c5.5.4 10.7 2.5 15.5 5.9z"/><path fill="#538F74" d="M75.2 6.9c33.9 0 62.1 25.1 67.1 57.6-4.8-3.4-10.1-5.4-15.6-5.8h-1.5c-6.8-21.1-26.7-36.5-50-36.5-22.9 0-42.5 14.9-49.7 35.4-.8.1-1.7.3-2.6.6C17.5 60 12.4 63 7.8 66.8c4-33.6 32.7-59.9 67.4-59.9zM77.1 91.2c-.7 0-1.4.1-2.1 0h-.1c-.9 0-1.7-.1-2.6-.3C63.2 89.4 55.8 83.5 49 77v30.5h52.4V77.9c-7.7 6.8-15.6 12.8-24.3 13.3z"/><path fill="#4F3616" d="M75.7 25l-37 38.2H49v12.2c6.5 6.2 13.6 11.9 22.1 13.7-5.9-8.3-6.4-15.5-4.7-21.3h-.1s-2.5-9.9-14.6-6.7c0 0 9.4-6.7 15.4 4.4 3.3-8.1 10.5-12.9 10.5-12.9-8.2 10.8-9.1 19.6-7.5 25.9 6-10.3 15.1-3.8 15.1-3.8-10.2-2.9-13.5 4-14.2 6 1.6 4.4 4.3 7.3 5.7 8.7 8.9-.4 16.8-6.5 24.7-13.3V63.2h10.3L75.7 25z"/></g></svg>