<svg xmlns:xlink="http://www.w3.org/1999/xlink"  xmlns="http://www.w3.org/2000/svg" viewBox="0 0 150 150"><path fill="none" d="M106.8 53.6c-2.5 3.1-11.5 6.6-19.5 4.3 8.4 2.9 18 .2 21-2.9-13.5-18-29.4-9.5-31.8-7.7 1.2-.2 2.6-.2 4-.1 5.3-2.8 15.7-5.2 26.3 6.4zM69.3 48.7c-.1 0-.1-.1-.2-.1v.1h.2z"/><path fill="none" d="M76.5 48c.2.4.4.9.7 1.3.3-.3 1-.9 2-1.5-1.3 0-2.2.1-2.7.2zM40.1 55.6c-.3-.2 8.1-15.5 26.3-8.6-5.7-2.5-17.9-5-28.6 9.3 4.5 4.6 24.2 8.6 31.6-6.8-.2 0-.4-.1-.6-.1-3.2 6-16.9 15.7-28.7 6.2zM79.6 13c7.2 15.3.4 24.6-4.4 28.8-.5 1.4-1.1 2.7-1.8 3.9 2.8-1.6 17.8-13.9 5.5-34.8-4.3 1.7-11.1 10.1-11.6 19.7 1-8.9 8.1-16.4 12.3-17.6zM70.7 48.5c.1 0 .1 0 0 0z"/><path fill="none" d="M73.9 42.8c-1 .8-1.9 1.2-2.3 1.4.3.4.6.8 1 1.2.3-.5.8-1.3 1.3-2.6z"/><path fill="#ABC337" d="M40.1 55.6c11.8 9.5 25.6-.3 28.7-6.3-2.6-.4-9.5-.1-26.3 6.6 0 0 16.4-8.6 26.6-7.3v-.1c-.5-.4-1.5-.9-2.8-1.5-18.1-6.9-26.5 8.4-26.2 8.6zM77.2 15.8s1.4 15.7-2.1 26C80 37.7 86.8 28.3 79.6 13c-4.2 1.2-11.3 8.7-12.3 17.6-.3 4.5.9 9.2 4.3 13.6.4-.2 1.3-.6 2.3-1.4 1.4-3.6 3.1-11.2 3.3-27zM77.1 49.3c2.5 4.5 6.2 7.2 10.1 8.5 8 2.3 17-1.1 19.5-4.3-10.5-11.6-21-9.1-26.3-6.5 10.1.7 23 7.5 23 7.5-13.6-5.4-20.7-6.7-24.4-6.7-.9.7-1.6 1.2-1.9 1.5z"/><path fill="#06643A" d="M73.9 48.6l1.6-.2v.1c3.8 7.9 10.4 10.5 15.2 11.3 7.6 1.2 15.4-1.2 18.2-4.2l.6-.6-.5-.7c-5.1-6.8-11-10.6-17.7-11.5-7.6-1-13.8 2.3-15.5 3.6L73.7 48c-.1-.4-.4-.7-.7-.9l.9-.5c2.1-1.2 7.9-5.9 10-14 1.9-7 .5-14.5-4.1-22.3l-.5-.8-.9.3c-4.1 1.6-9.8 8.4-11.7 16.4-1.2 5.1-1.4 12.8 4.9 19.8l.1.1-.6 1c-.2.2-.3.4-.4.6l-.3.5-.6-.5c-1.7-1.3-7.9-4.6-15.4-3.6-6.5 1-12.4 4.9-17.5 11.6l-.5.7.6.6c2.9 3 10.6 5.4 18.1 4.2 4.8-.8 11.4-3.4 15.1-11.2v-.1l.7.1c.9 6.5 2.1 13.3.6 19.4 1-.1 2.1-.2 3.1-.2 1.4-6.6.2-13.6-.7-20.6zm6.6-1.5c-1.4-.1-2.7-.1-4 .1 2.3-1.8 18.2-10.3 31.8 7.7-3 3.1-12.7 5.9-21 2.9-3.9-1.4-7.6-4-10.1-8.5-.2-.4-.5-.8-.7-1.3.5-.1 1.4-.2 2.7-.2 3.6.1 10.8 1.3 24.4 6.7-.1.1-13-6.7-23.1-7.4zm-42.8 9.2C48.5 42 60.7 44.5 66.4 47c1.3.6 2.2 1.1 2.8 1.5.1 0 .1.1.2.1h-.2C58.9 47.3 42.5 56 42.5 56c16.8-6.7 23.6-7 26.3-6.6.2 0 .4.1.6.1-7.5 15.4-27.2 11.5-31.7 6.8zm33.9-12.1c-3.4-4.4-4.6-9.1-4.3-13.6.5-9.5 7.3-18 11.6-19.7 12.3 20.9-2.7 33.2-5.5 34.8.7-1.2 1.3-2.5 1.8-3.9 3.5-10.3 2.1-26 2.1-26-.2 15.7-1.9 23.3-3.4 27-.5 1.3-1 2.1-1.3 2.6-.4-.4-.7-.8-1-1.2zm-.9 4.3c.1 0 .1 0 0 0z"/><path fill="#2DB7AC" d="M116.3 91.4l3.8-3.9c-.5-.5-.9-1-1.4-1.4-12.1-12-28.1-17.6-43.9-16.9-1 0-2.1.1-3.1.2-13.4 1.3-26.5 7-36.7 17.4-2.5 2.6-4.8 5.3-6.8 8.2l17.7 17.4c2.2-3.8 4.9-7.3 8.1-10.6 16.7-17 42-20.5 62.3-10.4z"/><path fill="#309191" d="M55.1 107.1c-3.2 3.2-5.9 6.8-8.1 10.6l25.3 24.9 45.1-45.8c-20.3-10.2-45.6-6.7-62.3 10.3z"/></svg>