<svg xmlns:xlink="http://www.w3.org/1999/xlink"  xmlns="http://www.w3.org/2000/svg" viewBox="0 0 150 150"><path fill="#6D6863" d="M145.5 124.8L127.9 95H28.3l-17.2 29.4 7.8.1L31.4 103h9l-12.2 21.6 13.4.1L54.2 103h9l-12.3 21.7 13.2.2L76.4 104h9l-12 21 14.1.1L99.8 104h8.9l-11.9 21z"/><linearGradient id="a" gradientUnits="userSpaceOnUse" x1="78.182" y1="40.526" x2="78.786" y2="74.379"><stop offset="0" stop-color="#d77d31"/><stop offset="1" stop-color="#c17a53"/></linearGradient><path fill="url(#a)" d="M40 58.3S74.4 56.1 73 81h22.7s4.4-11 17.6-9.5l4.4-16.1-78.4 1.5"/><path fill="#7B7672" d="M52.1 63.4c-10.3 0-18.7 8.4-18.7 18.7 0 10.3 8.4 18.7 18.7 18.7 10.3 0 18.7-8.4 18.7-18.7 0-10.3-8.4-18.7-18.7-18.7zm0 28.6c-5.5 0-9.9-4.4-9.9-9.9s4.4-9.9 9.9-9.9 9.9 4.4 9.9 9.9-4.4 9.9-9.9 9.9zM111.1 73.7c-7.3 0-13.2 5.9-13.2 13.2 0 7.3 5.9 13.2 13.2 13.2 7.3 0 13.2-5.9 13.2-13.2-.1-7.3-6-13.2-13.2-13.2zm0 20.1c-3.9 0-7-3.1-7-7s3.1-7 7-7 7 3.1 7 7c-.1 3.9-3.2 7-7 7z"/><path fill="#6D6863" d="M43 55.4l2.9 1.4-.7-23.4 28.5.7-.7 21.3 2.2 1.6.6-24H79v-5H41v5h2zM103.4 30.8l-5.4.4V33l2.9-.3-.7 8-2.2 2.6v12.4l6.2.8z"/></svg>