<svg xmlns:xlink="http://www.w3.org/1999/xlink"  version="1" xmlns="http://www.w3.org/2000/svg" viewBox="0 0 150 150"><path fill="#F5EA57" d="M39.5 98.3l-14.4 4.9h20.5c-1.2-3.4-1.9-7-1.9-10.8 0-17.2 13.9-31.1 31-31.1 17.2 0 31.1 13.9 31.1 31.1 0 3.8-.7 7.4-1.9 10.8h20.5L110 98.3h36l-35.5-5.9 35.5-5.9h-36l34.1-11.7-35.5 6 31.7-17.1-34.1 11.7 28.4-22.1L103 70.4l24.4-26.5L99 66.1l19.7-30.2-24.4 26.5 14.5-33-19.7 30.2L98 24.7l-14.5 33 3-35.9-8.8 34.9-3-35.9-3 35.9L63 21.8l3 35.9-14.4-33 8.9 34.9-19.8-30.2 14.5 33-24.4-26.5 19.7 30.2-28.4-22.2 24.4 26.5-31.6-17.2 28.4 22.1L9.2 63.6l31.7 17.1-35.5-6 34.1 11.7h-36l35.5 6-35.6 5.9h36.1z"/><path fill="#70BE44" d="M74.6 65.4c14.8 0 26.8 12 26.8 26.8S89.4 119 74.6 119s-26.8-12-26.8-26.8 12-26.8 26.8-26.8zm.5 2.1v14c3.8-.1 7.4-.9 10.5-2.4-.6-1.9-1.2-3.6-2-5.2-1.4-2.8-3.1-4.9-5-6.1-1.2-.1-2.3-.2-3.5-.3zm0 14.9v9.4h12.3c0-4.3-.6-8.3-1.5-11.8-3.3 1.5-6.9 2.3-10.8 2.4zm0 10.2v9.4c3.9.1 7.6.9 10.8 2.4 1-3.5 1.5-7.6 1.5-11.8H75.1zm0 10.3v14c1.2 0 2.4-.1 3.6-.3 1.9-1.3 3.5-3.4 4.9-6.1.8-1.6 1.5-3.3 2-5.2-3.1-1.5-6.7-2.4-10.5-2.4zm-.9 14v-14c-3.8.1-7.4.9-10.5 2.4.6 1.9 1.2 3.7 2 5.2 1.4 2.7 3.1 4.9 4.9 6.1 1.2.2 2.4.3 3.6.3zm0-14.9v-9.4H61.9c0 4.3.6 8.3 1.5 11.8 3.3-1.5 6.9-2.3 10.8-2.4zm0-10.2v-9.4c-3.9-.1-7.5-.9-10.8-2.4-1 3.5-1.5 7.5-1.6 11.8h12.4zm0-10.2v-14c-1.2 0-2.4.1-3.5.3-1.9 1.2-3.6 3.4-5 6.2-.8 1.5-1.5 3.3-2 5.2 3.1 1.3 6.7 2.2 10.5 2.3zM49.9 91.8H61c0-4.4.6-8.5 1.6-12.1-1.7-.9-3.3-1.9-4.7-3.1-.5-.4-.9-.8-1.3-1.2-4 4.2-6.6 10-6.7 16.4zm7.4-17.1c.4.4.8.8 1.3 1.2 1.3 1.1 2.8 2.1 4.4 2.9.6-1.9 1.3-3.6 2-5.2 1.1-2.2 2.5-4.1 3.9-5.4-4.5 1.1-8.5 3.3-11.6 6.5zm23.1-6.5c1.5 1.3 2.8 3.2 3.9 5.4.8 1.5 1.5 3.3 2 5.2 1.6-.8 3.1-1.8 4.4-2.9.4-.4.9-.8 1.3-1.2-3.2-3.1-7.1-5.4-11.6-6.5zm12.2 7.1c-.4.4-.8.8-1.3 1.2-1.4 1.2-3 2.2-4.7 3.1 1 3.6 1.6 7.8 1.6 12.1h11.1c-.1-6.3-2.6-12.1-6.7-16.4zm6.7 17.3H88.2c0 4.4-.6 8.6-1.6 12.2 1.7.9 3.3 1.9 4.7 3.1.5.4.9.8 1.3 1.2 4.1-4.3 6.6-10.1 6.7-16.5zM92 109.7c-.4-.4-.8-.8-1.3-1.2-1.3-1.1-2.8-2.1-4.4-2.9-.6 1.9-1.3 3.7-2 5.2-1.1 2.2-2.4 4-3.9 5.3 4.5-1 8.5-3.2 11.6-6.4zm-23.2 6.5c-1.5-1.3-2.8-3.2-3.9-5.4-.8-1.6-1.5-3.3-2-5.2-1.6.8-3.1 1.8-4.4 2.9-.4.4-.9.8-1.3 1.2 3.2 3.2 7.2 5.4 11.6 6.5zm-12.1-7c.4-.4.9-.8 1.3-1.2 1.4-1.2 3-2.2 4.7-3.1-1-3.6-1.6-7.8-1.6-12.2H49.9c.1 6.3 2.7 12.1 6.8 16.5z"/></svg>