<svg xmlns:xlink="http://www.w3.org/1999/xlink"  version="1" xmlns="http://www.w3.org/2000/svg" viewBox="0 0 150 150"><g fill="#B25726"><path d="M90.8 104.1c23.9 0 43.4-19.5 43.4-43.4h-.9c0 23.5-19.1 42.5-42.5 42.5v.9z"/><path d="M139.9 81.2s-4.5 8.8-12.6 5.8c-.1 0 2.9-7.9 12.6-5.8M123.1 69.2s7.1 6.9 1.8 13.8c0 0-6.7-5.2-1.8-13.8M132.5 91.6s-5.5 8.2-13.2 4.3c0 0 3.9-7.5 13.2-4.3M118.2 77.4s6.2 7.7.1 13.9c0 0-6-5.9-.1-13.9M144.1 69.4s-3.1 9.4-11.6 7.6c0 0 1.8-8.2 11.6-7.6M126.2 59s8 5.8 3.8 13.4c0 0-7.4-4.2-3.8-13.4M131.9 43.3s8 8 1.8 15.8c.1 0-7.5-6-1.8-15.8M146.3 57.2s-2.2 9.7-10.8 8.7c-.1 0 .9-8.4 10.8-8.7M122.5 101.6s-7.6 6.3-13.9.3c0 .1 5.9-6 13.9-.3M112.8 83.9s3.7 9.2-3.9 13.4c.1 0-4-7.4 3.9-13.4M110.1 107.9s-8.7 4.7-13.7-2.4c0 0 6.9-4.8 13.7 2.4M104.1 88.7s1.9 9.7-6.4 12.4c0-.1-2.5-8.1 6.4-12.4M60.2 104.1c-23.9 0-43.4-19.5-43.4-43.4h.9c0 23.5 19.1 42.5 42.5 42.5v.9z"/><path d="M11.2 81.2S15.7 90 23.8 87c0 0-3-7.9-12.6-5.8M27.9 69.2s-7.1 6.9-1.8 13.8c0 0 6.7-5.2 1.8-13.8M18.5 91.6s5.5 8.2 13.2 4.3c.1 0-3.8-7.5-13.2-4.3M32.8 77.4s-6.2 7.7-.1 13.9c0 0 6-5.9.1-13.9M6.9 69.4S10 78.8 18.5 77c0 0-1.7-8.2-11.6-7.6M24.9 59s-8 5.8-3.8 13.4c0 0 7.3-4.2 3.8-13.4M19.1 43.3s-8 8-1.8 15.8c0 0 7.5-6 1.8-15.8M4.8 57.2s2.2 9.7 10.8 8.7c0 0-1-8.4-10.8-8.7M28.6 101.6s7.6 6.3 13.9.3c0 .1-5.9-6-13.9-.3M38.2 83.9s-3.8 9.2 3.9 13.4c0 0 4-7.4-3.9-13.4M41 107.9s8.7 4.7 13.7-2.4c0 0-7-4.8-13.7 2.4M46.9 88.7s-1.9 9.7 6.4 12.4c.1-.1 2.6-8.1-6.4-12.4"/></g><path fill-rule="evenodd" clip-rule="evenodd" fill="#FAAE57" d="M88.6 41.8c.1.4.6.4.6.8-.2.6-1.2.6-1.9.5 1.8 2 3.1 5.1 4.6 7.7 1 1.1 3 1.7 4.9 1.9 2.3.2 4.9-.1 5.9-1.6.3-.4.4-.9.7-1.4.5-.8 1.1-1.7 1.7-2.5.3-.4.7-.8.9-1.2.4-.5.5-1.2.9-1.6 1.4-1.4 4-3 6.4-3 1.5 0 3 .4 4.2 1.2 1.6 1 1.8 2.3 2.2 4-.9 0-1.4-1.2-1.9-1.8-1.2-1.6-3.6-1.9-5.5-1.6-.3.1-1.2.6-1.4.5 2.5.4 4.9 1.3 7 2.6 1 .7 2 1.5 2.8 2.4.2.3 1.9 3.2 1.7 3.2-.7.1-1-.7-1.4-1.2-.7-.8-1.8-2.2-2.9-2.1.3.9 1.2 1.7 1.2 2.6 0 .3-.4.2-.7.4.7 1.3 1.9 4 .7 5.3-.7-1.3-.8-4.8-3-4.2.4 1 1.1 1.7 1.3 2.8-.9-.3-1.2-1.3-2-1.7.8.4 1 2.8 1.1 3.6.1.3.5 4.1-.9 3.3-.1-.1-.1-.7-.2-.8-.1-.5-.1-1.1-.2-1.6-.1-.2-.4-.7-.3-.9-.1 2.3.2 5.3-1.3 7.3-1.1-1.1-.2-3-.1-4.3 0-.1-1 .8-1.1.7-.5-.1-.4-1.1-.6-1.4-.3 1.1.8 3.1-.3 3.9-.3-.8-.3-2.6-1-3.3.1.2-.2 1.2-.3 1.4-.2 0-2.4-1.5-2.4-1.5-.2.6-.2 1.3-.4 1.9-.1.2-.2.7-.4.8-.2.1-.5 0-.7.1-.9.4-.4 1.8-1.2 2.3-.4.1-.1-.7-.3-.7-2.1 1.2-3.5 3.2-6.5 2.8-.4.1-.5.4-.8.6.7 1.5-1.9 4-2.5 5.4-.2.5-.6 1.5-.6 2 .1.8.8 1.2 1.4 1.7-.2.1-.4.2-.7.2.5.4 1.1.6 1.2 1.3-.9-.2-2.1.3-2.7-.6-.9 1.3-3.7 1.4-5.1 1.4.1-.2.1-.5.2-.7-.7 0-1.5.1-2.2-.1.6-.8 1.9-.7 2.8-.9-.8-.4-1.7-.7-2.5-1.1.5-1.1 2.3-.2 3.2-.4-.2-.1-.2-.3-.5-.4.9-.1 2.5.3 3.2-.4.6-.6.9-1.7 1.1-2.5.8-2.7-2.3-4.9-3.9-6.7-1.1-1.2-2.8-1.3-4.3-2-2.5-1.2-5.3-4-5.8-7.4-.2-1.4 0-2.7.4-4 .1-.4 1.5-3.8 1.3-3.9-.3-.3-.8-.4-1.1-.6-1.2-2 1-2.6 1.2-4.2-.7-.3-1.5-.5-2.5-.4.3-1 2-.9 2.5-1.7-.8-.3-1.2-1-1.4-1.9.2-.2.4.1.5.3.1-.3-.1-.9-.2-1.2.3-.5 1 .6.7.6.6 0 .5-.9.8-1.5.3.1.2.8.3 1.1.7-.4.7-1.4 1.5-1.7 0 .5-.2.7-.1 1.3.7 0 .9-1 1.7-1.1 0 .5-.3.8-.2 1.4.6 0 .9-1.1 1.8-1.1-.1.5-.4.9-.4 1.5.4.1 1.3-.4 1.9-.1.2.3-.6.5-.6 1 .4.4 1.3.3 1.6.7-.2 0-.9.2-1.1.5zm2 35.9c.5-.2 1.1-.3 1.5-.6-.7 0-1.4 0-1.5.6zM63.3 41.3c.3-.5 1.2-.3 1.6-.7 0-.5-.8-.6-.6-1 .6-.2 1.5.2 1.9.1 0-.6-.3-1-.4-1.5.9.1 1.2 1.1 1.8 1.1.1-.6-.2-.9-.3-1.4.9.1 1 1.2 1.7 1.1.1-.6-.1-.8-.1-1.3.8.3.8 1.3 1.5 1.7.1-.3 0-.9.3-1.1.2.6.2 1.5.8 1.5-.3 0 .4-1.1.7-.6-.1.3-.4.9-.2 1.2.1-.2.3-.5.5-.3-.2 1-.6 1.7-1.4 1.9.6.8 2.2.7 2.5 1.7-1-.1-1.8.1-2.5.4.2 1.5 2.4 2.2 1.2 4.2-.4.2-.8.3-1.2.6-.2.1 1.2 3.5 1.3 3.9.3 1.3.6 2.7.4 4-.5 3.4-3.3 6.2-5.8 7.4-1.5.7-3.2.8-4.3 2-1.6 1.8-4.7 4-3.9 6.7.2.8.5 1.9 1.1 2.5.7.7 2.3.3 3.2.4-.3.1-.3.2-.5.4.9.2 2.7-.7 3.2.4-.8.4-1.7.7-2.4 1.1.9.2 2.2.1 2.8.9-.7.2-1.4.1-2.2.1.1.2.1.5.2.7-1.4 0-4.2 0-5.1-1.4-.6.8-1.9.4-2.8.6.1-.7.7-1 1.2-1.3-.3 0-.5-.2-.7-.2.5-.5 1.3-.9 1.4-1.7 0-.5-.4-1.5-.6-2-.6-1.4-3.1-3.9-2.5-5.4-.3-.2-.4-.5-.8-.6-3 .4-4.4-1.7-6.5-2.8-.2.1.1.8-.3.7-.8-.5-.3-1.9-1.2-2.3-.2-.1-.5 0-.7-.1-.2-.1-.3-.6-.4-.8-.2-.6-.3-1.3-.4-1.9 0-.1-2.3 1.4-2.4 1.5-.1-.2-.4-1.2-.3-1.4-.7.6-.7 2.5-1 3.3-1.1-.8-.1-2.9-.3-3.9-.1.3-.1 1.3-.6 1.4-.1 0-1.1-.8-1.1-.7 0 1.3.9 3.2-.1 4.3-1.5-2-1.2-5-1.3-7.3 0 .2-.3.7-.3.9-.1.5-.1 1.1-.2 1.6 0 .1-.1.7-.2.8-1.3.8-.9-3-.9-3.3.1-.8.3-3.1 1.1-3.6-.8.4-1.1 1.4-2 1.7.3-1 1-1.8 1.3-2.8-2.3-.6-2.4 2.9-3.1 4.2-1.2-1.4 0-4 .7-5.3-.2-.1-.7-.1-.7-.4 0-.8.9-1.7 1.2-2.6-1.2-.1-2.2 1.3-2.9 2.1-.4.4-.6 1.3-1.4 1.2-.1 0 1.5-3 1.7-3.2.8-1 1.8-1.7 2.8-2.4 2.1-1.4 4.5-2.3 7-2.6-.2 0-1-.5-1.3-.5-1.9-.3-4.3-.1-5.5 1.6-.5.6-1 1.8-1.9 1.8.4-1.7.6-3 2.2-4 1.3-.8 2.8-1.2 4.2-1.2 2.4 0 5 1.6 6.4 3 .4.4.6 1.1.9 1.6.3.4.7.8 1 1.2.6.9 1.2 1.7 1.7 2.5.3.5.4 1 .7 1.4.9 1.5 3.5 1.8 5.9 1.6 1.9-.2 3.9-.8 4.9-1.9 1.5-2.6 2.8-5.7 4.6-7.7-.7.2-1.7.1-1.9-.5.1-.4.6-.4.6-.8 0-.3-.8-.5-1-.5zM61 77.1c.4.3 1 .4 1.5.6-.1-.6-.9-.6-1.5-.6z"/><path fill="#FAAE57" d="M75.2 89.7l2.6 7.6 8.1.2-6.4 4.8 2.3 7.8-6.6-4.7-6.6 4.7 2.3-7.8-6.4-4.8 8.1-.2z"/></svg>