<svg xmlns:xlink="http://www.w3.org/1999/xlink"  version="1" xmlns="http://www.w3.org/2000/svg" viewBox="0 0 150 150"><path fill="#0D72B9" d="M118.5 55.9c-7.7-7.7-17.1-11.6-28-11.6-10.9 0-20.3 3.9-28.1 11.6-3.8 3.8-6.7 8-8.6 12.6l-.9 2.4c.8.5 1.5 1.1 2.3 1.6.3-1.2.7-2.3 1.2-3.4 1.7-4.2 4.4-8 7.8-11.5 7-7 15.5-10.5 25.4-10.5 9.9 0 18.4 3.5 25.4 10.5 3.5 3.5 6.1 7.3 7.9 11.5 1.8 4.1 2.6 8.7 2.7 13.5 1.6.2 3.1.3 4.6.5-.1-5.3-1-10.2-2.9-14.7-2.1-4.5-5-8.7-8.8-12.5z"/><path fill="#29A9E1" d="M50.2 69c.2-.6.4-1.2.7-1.8 2.3-5.5 5.7-10.5 10.2-15 9.2-9.2 20.2-13.7 33.2-13.7 13 0 24 4.5 33.2 13.7 4.6 4.5 8 9.6 10.3 15l.9 2.4V19.9c0-5-4.1-9.1-9.1-9.1H22.4c-5 0-9.1 4.1-9.1 9.1v28c1.3.5 2.5 1.1 3.8 1.8C28.5 55.1 39.6 61.5 50.2 69z"/><path fill="#756428" d="M134.5 83.7c.3 1.8.7 4.1 1.1 6.7.7 4.2 1.7 9.4 2.9 15.7V84.5c-1.2-.3-2.5-.5-4-.8z"/><path fill="#88752D" d="M135.7 90.5c-.5-2.7-.9-4.9-1.1-6.7-1.4-.2-2.9-.4-4.4-.6-1.5-.2-3-.3-4.6-.5-1.7-.2-3.4-.3-5.2-.5-.6 2.3-1.2 5.2-1.7 8.6 0 .3-.1.5-.1.8-.8 5.3-1.4 13.1-1.7 23.5-.2 7.4-.2 14.1.2 20.2-.5.3-1 .5-1.5.8h13.9c5 0 9.1-4.1 9.1-9.1v-20.8c-1.2-6.3-2.2-11.6-2.9-15.7z"/><path fill="#9D8630" d="M109.5 81.7c-1.4 0-2.8-.1-4.2 0-3 2.5-5.8 5.6-8.2 9.1-.1.2-.3.4-.4.5-.4.6-.9 1.3-1.3 2-2.1 3.3-4.1 6.8-6 10.6 1.7 2 3.4 4.1 5 6.2 1.9 2.4 3.6 4.8 5.3 7.2 1.7 2.5 3.4 5.1 4.9 7.6 1.1 1.8 2.1 3.7 3.2 5.6 1 1.8 2 3.6 2.9 5.5h4.8c.5-.3 1-.5 1.5-.8-.4-6.1-.5-12.7-.2-20.2.3-10.5.9-18.3 1.7-23.5 0-.3.1-.5.1-.8.5-3.4 1.1-6.3 1.7-8.6-3.4-.1-7-.3-10.8-.4z"/><path fill="#B89B30" d="M85.3 81.8c-3.6 1.9-7.2 4.2-10.9 6.7.4.4.8.7 1.2 1.1.4.4.8.8 1.3 1.2 1.1 1 2.1 2 3.2 3.1 1.2 1.2 2.3 2.2 3.3 3.4 1.3 1.4 2.6 2.8 3.8 4.2.8.8 1.5 1.7 2.3 2.6.8-1.5 1.6-3 2.4-4.4 1.2-2.2 2.4-4.3 3.6-6.2.4-.7.8-1.3 1.3-2 .1-.2.2-.4.4-.5 2.4-3.6 5.2-6.7 8.2-9.1-6.9-.3-13.6-.4-20.1-.1z"/><path fill="#C7A82E" d="M85.3 81.8c-5.7.3-11.4.7-17 1.3 2.1 1.8 4.1 3.6 6.1 5.5 3.7-2.6 7.3-4.9 10.9-6.8z"/><path fill="#4C5927" d="M107.9 130.6c-1-1.9-2.1-3.8-3.2-5.6-1.5-2.5-3.2-5.1-4.9-7.6-1.7-2.5-3.5-4.8-5.3-7.2-1.6-2.1-3.3-4.2-5-6.2-.7-.9-1.5-1.7-2.3-2.6-1.3-1.4-2.5-2.8-3.8-4.2-1-1.2-2.2-2.2-3.3-3.4-1.1-1.1-2.1-2.1-3.2-3.1-.4-.4-.8-.8-1.3-1.2-.4-.4-.8-.7-1.2-1.1-2-1.8-4-3.7-6.1-5.5-1.9-1.6-3.9-3.3-5.9-4.9-.8-.6-1.5-1.2-2.2-1.8-1.7-1.3-3.4-2.6-5-3.8-.8-.6-1.5-1.1-2.3-1.6-.9-.6-1.8-1.3-2.7-1.9-10.6-7.4-21.6-13.9-33-19.3-1.3-.6-2.5-1.3-3.8-1.8v18.1c10.1 3.9 20.1 8.7 29.8 14.2.8.4 1.6.9 2.4 1.4.6.4 1.2.7 1.8 1.1 1.2.7 2.3 1.4 3.4 2.1 1 .6 1.9 1.2 2.9 1.8 2.3 1.4 4.5 2.9 6.6 4.4 4.5 3.1 8.7 6.3 12.7 9.6 4.5 3.7 8.6 7.6 12.5 11.6 2.9 3 5.6 6 8.1 9.1 1.3 1.7 2.6 3.4 3.9 5 1.4 1.8 2.7 3.8 4 5.8l2.7 4.2h6.5c-.8-2-1.8-3.8-2.8-5.6z"/><path fill="#687B35" d="M101.6 131.9c-1.3-2-2.6-3.9-4-5.8-1.3-1.6-2.6-3.3-3.9-5-2.5-3.1-5.2-6.2-8.1-9.1-3.9-4-8-7.8-12.5-11.6-4-3.3-8.2-6.5-12.7-9.6-2.2-1.5-4.4-2.9-6.6-4.4-1-.6-1.9-1.2-2.9-1.8-1.1-.7-2.3-1.4-3.4-2.1-.6-.4-1.2-.7-1.8-1.1-.8-.5-1.7-1-2.4-1.4-9.8-5.5-19.7-10.2-29.8-14.2v21.5c9.4 2.7 18.6 6 27.8 10 .8.3 1.5.6 2.4 1 21.5 9.7 38.9 21.7 52.1 36.1.4.4.8.8 1.1 1.2l.4.4h7.2c-1.1-1.3-1.9-2.7-2.9-4.1z"/><path fill="#849B3C" d="M96.7 135.7c-.4-.4-.8-.8-1.1-1.2C82.3 120.1 65 108 43.5 98.4c-.8-.4-1.6-.7-2.4-1-9.2-4-18.4-7.3-27.8-10v21c6.1 1.8 12.2 3.9 18.2 6.3.8.3 1.5.6 2.2.9 14 5.7 26.1 12.5 36.4 20.5H97.2c-.2-.1-.3-.3-.5-.4z"/><path fill="#ADCB36" d="M31.5 114.7c-6-2.4-12-4.5-18.2-6.3V127c0 5 4.1 9.1 9.1 9.1H70c-10.3-7.9-22.4-14.8-36.4-20.5l-2.1-.9z"/><path fill="#333" d="M95.4 67.3c3.1-.6 5.3.7 6.6 4 .5 2.7-.6 4.7-3.3 6.1-3.9.3-6.2-1-6.8-3.8-.2-3.4.9-5.5 3.5-6.3m-4.3 4.5c0 2 .3 3.4 1 4.2l3.3 2.1c1.6.5 3.5 0 5.7-1.4.2 0 .7-1.3 1.6-3.8 0-3.3-1.6-5.4-4.7-6.4-3.5-.4-5.8 1.3-6.9 5.3m5-9.3c1.9 0 3.8.4 5.7 1.2l3.1 2.6c1.9 2.5 2.6 4.8 2.1 6.8l3.8.2V75h-4c-2.2 4.6-5 6.9-8.5 7.1-6.3.2-10.1-2.6-11.3-8.3-.3-3.1.6-5.9 2.8-8.3l2.4-1.9 3.9-1.1zM70.4 74.6v.2l1-.2v-.3l-1 .3zM69.2 76c-.2 1.1 0 2 .5 2.6l1.2.7c1.4.5 2.6-.3 3.5-2.4l-.2-1.4-1.2-1.2h-.7c2.2 1.7 2.3 3.2.2 4.5-2-.2-3.1-.7-3.1-1.7v-.9l.9-1.4-.7.2-.4 1zm-3.1-6.8h1.2c.1.9.6 1.3 1.4 1.2V64l1.6-1.6h2.4l.5-.3.3-2.6h2.1v2.3c.2.5 1.6.6 4.5.5l11.3-.3 1.4-1.4 2.6-4h.5v-.9l-.7-.2-.9-1.7v-.9h.5l1.2-1.2c.9 0 1.5.3 1.7.9v2.1c1.1 1.1 1.9 2.9 2.3 5.4l1.9.2v2.8l-2.8-.9c-2.4-.5-5 0-8 1.4L88 66.4c-.6 1.1-1.1 2.5-1.4 4.2l.2 4.7-.2.2h-9V75c.2 1.7-.4 3.5-1.7 5.4-.8 1.1-2.4 1.6-4.9 1.4-.2-.5-.9-.7-2.1-.7-1.1-.9-1.9-2-2.4-3.1l.3-3.8c.6-1.6 1.6-2.5 2.8-2.8l-.9-.4H68l-1 1.6h-.9v-3.4z"/></svg>