<svg xmlns:xlink="http://www.w3.org/1999/xlink"  xmlns="http://www.w3.org/2000/svg" viewBox="0 0 150 150"><path fill="none" d="M95.7 115.5zM72.6 50zM102.5 96.7c.1-.1.1-.1.2-.1.1-.4.1-.7.2-1-.1.2-.1.4-.2.6-.1.2-.2.4-.2.5zM56.6 115.5h.7-.7zM31.1 78.9V78.9zM39.9 54.4c.4-3 1.1-5.6 3.1-7.7.3-.4.6-.7.9-1.1 0 0 0-.1.1-.1-.1-.2-.1-.4-.2-.6.1.2.1.5.2.6l-.1.1c-.3.4-.5.7-.8 1.1-2 2.1-2.7 4.5-3.1 7.5-.5 4 0 9.6 1 15.2-1-5.7-1.5-11.1-1.1-15zM102.8 111.1s-.1 0 0 0zM57.1 48.3c.1 0 .1 0 0 0 .1 0 .1 0 0 0zM47.8 95.7c.1.2.1.5.2 1 .1 0 .1 0 .2.1-.1-.2-.1-.3-.2-.5-.1-.3-.1-.5-.2-.6zM45.5 47.9zM44.8 86.3c0-.1 0-.2-.1-.2 0 .1 0 .3.1.4.3 1.5.6 1.5.9 2.9v-.2c-.3-.9-.6-1.9-.9-2.9zM42.1 75.5c.1.9.1.9.2.9.1.7.2 1.1.4 1.5-.1-.5-.2-1-.4-1.5-.1-.4-.2-.7-.2-.9zM34.8 93.5c.1.2.2.5.3.7.2.4.4.9.6 1.3-.2-.5-.4-.9-.6-1.8-.1 0-.2-.1-.3-.2zM47 93.4c-.1-.3-.2-.7-.3-1 .1.4.2.7.3 1zM33.2 89.4l.6 1.8c.1.3.3.6.4.9-.1-.4-.3-.9-.4-1.3-.2 0-.4-1.2-.6-1.4zM31.6 83.1c.1.4.1.8.2 1.2.1.6.3 1.2.4 1.7-.1-1-.3-1.2-.4-2.4-.1 0-.1-.2-.2-.5zM43.3 80.6c-.1-.4-.2-.8-.3-1.3.1.9.2 1.2.3 1.3zM93.9 106.8l-1.8.6c.6-.2 1.3-.4 1.8-.6zM104 92.4c-.1.3-.2.7-.3 1 .1-.3.2-.6.3-1zM58.6 48.7c-.3 0-.6-.1-.9-.2.3.1.6.2.9.2zM38.9 100.9c.1 0 .1 0 0 0l.2.1s-.1-.1-.2-.1zM31.2 80.6c0 .2 0 .4.1.6.1.4.1.8.2 1.2-.1-.5-.1-1.1-.3-1.8.1.1.1.1 0 0zM41.3 103.8c0 .1 0 .1 0 0h.1c0 .1 0 0-.1 0zM107.7 79.3c-.1.4-.2.8-.3 1.3.1-.1.2-.4.3-1.3zM30.9 75.3zM48.9 98.7c.1.3.2.6.2.9.1 0 .1.1.2.2-.1-.2-.1-.3-.2-.5 0-.3-.1-.5-.2-.6zM107.3 45.4h-.4.2c.1.1.1 0 .2 0zM109 45c1.2-.8 1.3-2.5 2.6-3.6 1.4-1.2 4.5-1.8 4.5-1.8s-3.1.6-4.5 1.8c-1.3 1.1-1.4 2.8-2.6 3.6zM91.9 49c.2 0 .4 0 .6-.1 3-.8 4.5-4.4 7.4-5 .4-.1.7-.1 1.1-.1.2 0 .5 0 .7.1 1 .1 1.9.5 2.9.8.1 0 .1 0 .2.1-1.2-.4-2.5-.9-3.7-1-.4 0-.7 0-1.1.1-2.9.6-4.4 4.2-7.4 5-.3.1-.5.1-.7.1-2.8 0-7.1-4-10.1-3.8h-.6c.2-.1.4.1.6.1 3-.2 7.2 3.8 10.1 3.7zM101.3 99.7c.1-.1.1-.2.2-.2.1-.3.1-.6.2-.9-.1.2-.2.4-.2.6 0 .2-.1.4-.2.5zM105 89.3v.2c.3-1.5.6-1.5.9-2.9 0-.2 0-.3.1-.4 0 .1 0 .2-.1.2-.3.9-.6 1.9-.9 2.9zM120.6 75.3zM110.9 58.7c0-1.6 0-3.2-.2-4.5-.3-2.5-1.1-4.5-2.3-6.3 1.1 1.9 2 4.1 2.3 6.5.2 1.3.3 2.7.2 4.3zM108.1 77.8c.1-.4.2-.7.4-1.5.1 0 .1 0 .2-.9-.1.3-.1.6-.2.8-.2.6-.3 1.1-.4 1.6zM119.7 83.6c-.1 1.3-.3 1.4-.4 2.4.1-.6.3-1.1.4-1.7.1-.4.1-.8.2-1.2 0 .3-.1.5-.2.5zM120.2 80.7c-.1.6-.1 1.3-.2 1.8.1-.4.1-.8.2-1.2.1-.2.1-.5 0-.6.1 0 0 0 0 0zM120.4 79.3v-.4.4zM73.8 50.2h-.5c-.2 0-.4-.1-.6-.1.4.1.8.1 1.3.1h-.2z"/><path fill="#537134" d="M75.8 13.8c-34 0-61.5 27.5-61.5 61.5s27.5 61.5 61.5 61.5 61.5-27.5 61.5-61.5-27.6-61.5-61.5-61.5zm-27.6 20c0-.1.1-.2.2-.2-1.6-1.9-2-5.9.1-8.3 0 0 .1 0 .1-.1.2-.3.5-.5.8-.7 2.6-1.8 13.7-2.7 26-2.7 7.7 0 14.9.3 19.9 1 3 .4 5.1 1 6.1 1.6.3.2.5.4.7.6l.2.2c.2.2.4.5.6.7 1.4 2.4.9 5.7-.5 7.5.1 0 .2.1.2.2s0 .5-.1.6c3.5.7 9.4.7 13.5 5.7 0 0 1-.2 1-.1v-.1s-3.5.5-4.9 1.8c-1.3 1.1-1.4 2.7-2.6 3.5 7.2 8 11.6 18.3 11.6 29.9v.4c0 1-.2 1-.2 1 0 1.3-.2 1.5-.2 2.6 0 .1-.1.3-.1.4 0 .9-.1 1.2-.2 1.3 0 .2 0 .4-.1.6-.1.4-.1.8-.2 1.2 0 .3-.1.5-.1.7-.1.4-.1.8-.2 1.2-.1.6-.3 1.2-.4 1.7 0 .1 0 .3-.1.5-.1.8-.3 1.2-.5 1.6-.1.1-.3.6-.6 1.3-.2.4-.4.9-.6 1.5-.4.8-.8 1.8-1.3 2.9-.4.9-.9 1.9-1.5 2.9-.5.9-1.1 1.9-1.7 2.9l-.9 1.5c-.6 1-1.3 1.9-2.1 2.9-.7 1-1.5 1.9-2.4 2.9-.2.2-.3.4-.5.5-.3.2-.6.5-.8.9l-1.5 1.5-.2.2c-.6.4-1.2 1.1-1.7 1.1h.4c-1.2 1-2.5 2.1-3.9 3-.7.5-1.9 1-2.7 1.4-.4 0-.6.2-1.6.2v.4h1.9c-.4 0-.9.2-1.3.4-2.8 1.1-6.7 2-9.4 3.1-.8.2-1.6.2-2.4.3-1.9.3-3.9.4-6 .4h-1.9c-1.4-.1-2.7-.2-4.1-.4-5.8-.7-10.9-2.3-15.1-4.4-1-.5-1.9-.9-2.8-1.4-1.6-.9-3.2-1.9-4.5-2.9-.7-.5-1.3-1-1.9-1.5-1.2-1-2.3-1.9-3.3-2.9s-1.9-2-2.8-2.9c-.9-1-1.6-2-2.3-2.9 0 0 0-.1-.1-.1l-.6-.9c-.1-.1-.1-.2-.2-.3l-.2-.2a50 50 0 0 1-1.8-2.9c-.1-.1-.2-.3-.2-.4-.1-.3-.2-.5-.2-.7-.2-.4-.4-.9-.6-1.3-.1-.2-.2-.5-.3-.7-.2-.3-.4-.8-.6-1.4-.1-.3-.3-.6-.4-.9l-.6-1.8h-.1c-.3-1.5-.6-1.5-.9-2.9 0-.2 0-.3-.1-.5-.1-.6-.3-1.1-.4-1.7-.1-.4-.1-.8-.2-1.2 0-.2-.1-.4-.1-.7-.1-.4-.1-.8-.2-1.2 0-.2 0-.4-.1-.6-.1-.1-.1-.4-.1-1.3v-.4c-.3-1.1-.3-1.3-.3-2.6v-1-.4C31 63.3 35.7 52 43.5 44c-.3-.9-.7-1.8-1.3-2.5-.2-.2-.4-.4-.7-.6-1.6-1.1-3.4-1.4-4.8-1.4-1.1 0-1.7.1-1.7.1h-.2c4.1-3.3 10-4.8 13.5-5.5-.1-.1-.2-.2-.1-.3zm-13.5 74.9C27 99.3 22.8 87.5 22.8 75.3s4.2-24.1 12-33.5l1.3 1.1C28.6 52 24.5 63.6 24.5 75.4s4.1 23.3 11.5 32.4l-1.3.9zm9.2 9.8l-2.6-1.4-2.6 1.4.5-2.9-2.1-2.1 2.9-.4 1.3-2.7 1.3 2.7 2.9.4-2.1 2.1.5 2.9zM60 129.1l-2.6-1.4-2.6 1.4.5-2.9-2.1-2.1 2.9-.4 1.3-2.7 1.3 2.7 2.9.4-2.1 2.1.5 2.9zm22.5 3.5l-2.6-1.4-2.6 1.4.5-2.9-2.1-2.1 2.9-.4 1.3-2.7 1.3 2.7 2.9.4-2.1 2.1.5 2.9zm21.7-5.8l-2.6-1.4-2.6 1.4.5-2.9-2.1-2.1 2.9-.4 1.3-2.7 1.3 2.7 2.9.4-2.1 2.1.5 2.9zm11.9-10.1l-2.6-1.4-2.6 1.4.5-2.9-2.1-2.1 2.9-.4 1.3-2.7 1.3 2.7 2.9.4-2.1 2.1.5 2.9zm2.7-10.6l-1.4-1c6.3-8.7 9.6-19.1 9.6-29.9 0-11.8-4.1-23.4-11.6-32.5l1.3-1.1c7.7 9.4 12 21.3 12 33.6 0 11.2-3.4 21.9-9.9 30.9z"/><path fill="#FFF" d="M36 42.8l-1.3-1.1c-7.7 9.4-12 21.3-12 33.5s4.2 24 11.9 33.5l1.3-1.1C28.5 98.5 24.4 87 24.4 75.2c.1-11.7 4.2-23.3 11.6-32.4zM116.8 41.7l-1.3 1.1c7.5 9.1 11.6 20.7 11.6 32.5 0 10.8-3.3 21.1-9.6 29.9l1.4 1c6.5-9 9.9-19.7 9.9-30.8-.1-12.3-4.3-24.2-12-33.7z"/><path fill="#CCE5D6" d="M108.9 45.1c-.3.2-.5.3-.9.4h-.7c.4.7.8 1.5 1.2 2.4 1.1 1.9 2 3.8 2.3 6.3.2 1.3.2 2.9.2 4.6-.1 4.7-1 11.3-2.2 16.3h11.9c-.1-12.1-3.7-22.1-11.8-30 .1-.1.1-.1 0 0 .1-.1 0-.1 0 0zM41.9 75c-.4-2-.8-3.8-1.1-5.6-1-5.6-1.4-11.2-.9-15.2.4-3 1.1-5.4 3.1-7.6.3-.4.6-.7.9-1.1 0 0 0-.1.1-.1-.1-.2-.1-.4-.2-.6-.1-.2-.2-.4-.2-.6 0-.1 0 0-.1-.1-7.8 8.1-12.5 19-12.5 31h10.9z"/><path fill="#EB8C1C" d="M101.6 111H49.3c1.4 1 2.9 2 4.5 2H99.2c1.4 0 2.7-1 3.9-2h-1.5zM101.4 107h-7.5c-.5 0-1.2.3-1.8.5-2.7.8-5.8 1.4-8.9 1.8-.8.1-1.7-.2-2.5-.1.8.1 1.7-.2 2.5-.2H104.8c.5 0 1-.6 1.5-1.1.3-.3.6-.4.8-.6.2-.2.3-.2.5-.2h-6.2zM104.4 91.3c-.1.4-.2.7-.4 1.1-.1.4-.2.9-.3 1.1 0 .1-.1-.5-.1.5h12.6c.5-2 1-2 1.3-3h-13s-.1.2-.1.3zM91.6 116h-35c4.3 2 9.3 3 15.1 4h12c.8 0 1.6-.3 2.4-.5 2.7-1.1 6.7-2 9.4-3 .4-.2.9-.5 1.3-.5h-5.2zM105.9 87c-.3 1-.6 1-.9 2h13.2c.3 0 .5-1 .6-1.1v.4c.2-.4.3-.3.5-1.3h-13.4zM41.6 79h1.3c-.1 0-.2-1-.3-1.5-.1-.4-.2-.5-.4-1.5H30.9c0 1 .1 1.5.1 2.6v.4h10.6zM101.4 101h-.6s-.1.2-.1.3c-.6 1.3-1.1 2.7-1.5 2.7h10.9l2.1-3h-10.8zM102.5 96.4c-.3.7-.5 1.7-.7 2.3-.1.3-.2 1.3-.2 1.3H113c.6-1 1.2-3 1.7-4h-12c-.1 0-.2.4-.2.4zM31.8 84H44c-.2-2-.4-2.1-.6-2.8 0-.2-.1-.2-.1-1.2h-12c.1 1 .1 1.6.2 2.1 0 .3.1.9.1 1.1.1.2.1.8.2.8zM38.6 89h7.1c-.3-1-.6-1-.9-2H32.3c.3 1 .5 1 .9 2h5.4zM35.1 94h12c0-1-.1-.4-.1-.5-.1-.2-.2-.7-.3-1.1-.1-.4-.2-.7-.4-1.1 0-.1-.1-.4-.1-.4H33.8c.1 0 .2.8.4 1.2.2.6.4 1.2.6 1.5.1.2.2.4.3.4zM108.4 76c-.1 1-.2 1.2-.4 1.5-.1.5-.2 1.5-.3 1.5h12.7v-.4c.1-1.1.1-1.6.1-2.6h-12.1zM70 109.1c-.8-.1-1.7.1-2.5 0-3.7-.5-7.6-1.1-10.7-2.1H44.1c1 1 2.1 2 3.3 2h20.1c.8 0 1.6.2 2.5.1zM41.6 104H51.5c-.4 0-.9-1.4-1.5-2.7 0-.1-.1-.3-.1-.3H39c.7 1 1.4 1.9 2.3 2.9l.1.1h.2zM107.4 80c-.1 1-.1 1-.2 1.2-.2.8-.4.8-.6 2.8h13.1c.1 0 .1-.4.2-.7 0-.2.1-.9.1-1.1.1-.5.1-1.2.2-2.2h-12.8zM41.6 100h7.5c-.1 0-.1-.8-.2-1.1-.2-.6-.5-1.7-.7-2.3-.1-.1-.1-.6-.2-.6H36.2c.4 1 1 3 1.8 4h3.6z"/><path fill="#FFD559" d="M107.7 79V79.3c-.1.9-.2.9-.3 1V80h12.8s0 .3.1.3c.1-.1.1-.3.1-1.2V79h-12.7zM108.7 75s-.1.2-.1.4c0 .1 0-.1 0 0-.1.9-.1.7-.2.7h12.2s.4.3.4-.7v-.1-.3h-12.3zM101.6 109H83.2c-.8 0-1.7.2-2.5.1-1.9.2-3.7.4-5.4.4-1.6 0-3.5-.3-5.4-.5-.8.1-1.7 0-2.5 0h-20c.6 1 1.2 1 1.9 2h53.5c.6-.1 1.2-1.1 1.7-1.5.1-.1.2-.5.2-.5h-3.1zM101.5 100c-.1 0-.1-.1-.2 0-.2.4-.4 1-.5 1H112c.3 0 .6-1 .9-1h-11.4zM104.9 89.3c-.1.5-.3.7-.4 1.7h13c.2-1 .5-1 .6-2H105s0 .3-.1.3zM101.4 104h-2.3s-.1 0-.1.1c-.1.1-.2.1-.3.2-.9.7-2.1 1.4-3.4 2-.5.2-.9.5-1.4.7v.1h13.7c.9-1 1.7-2 2.4-3h-8.6zM103.4 94.4c-.2.5-.3.6-.5 1-.1.2-.1.6-.2.6h12c.6-1 1.1-2 1.5-2h-12.6c-.1 0-.2.2-.2.4zM106.6 84c-.1 0-.1.3-.2.5-.2.6-.3 1.3-.5 1.9 0 .1 0 .6-.1.6h13.4s0-.4.1-.5c.1-1 .3-1.5.4-2.5h-13.1zM71.8 120c1.3 0 2.7.2 4.1.3h.7c.4 0 .8.1 1.2.1 2.1 0 4.1-.4 6-.4h-12zM91.6 113H53.8c.9 2 1.8 1.8 2.8 2.2.2 0 .4.8.7.8h38.4c.4 0 .9-.8 1.3-.8.8-.4 1.6-.2 2.3-2.2h-7.7zM55.3 106.3c-1.4-.6-2.6-1.3-3.4-2-.1-.1-.2-.1-.3-.2l-.1-.1H41.4c.8 1 1.7 2 2.8 3h12.7c-.6 0-1.1-.5-1.6-.7zM31.3 80h12v.3c-.1-.1-.2-.2-.3-1.1v-.1-.1H31.1v.2c0 .9.1.9.1 1 .1.1.1-.2.1-.2zM41.6 76H42.2c-.1 0-.1.1-.2-.7 0-.1 0 0 0 0 0-.1-.1-.3-.1-.3H31v.4c0 1-.1.7-.1.7h10.7zM41.6 101H49.9c-.2 0-.3-.6-.5-1-.1-.1-.1 0-.2 0H38c.1 0 .1-.1.2 0s.1 0 .2.1c.2.3.4.5.6.8.1.1.1.1.2.1h2.4zM33.8 91h12.4c-.1-1-.3-1.2-.4-1.7V89H33.2s0 .3.1.3c.1.2.3 1.7.5 1.7zM41.6 96H48c-.1 0-.1-.4-.2-.6-.2-.5-.3-.6-.5-1.1-.1-.2-.1-.2-.2-.2h-12c.2 0 .4 1.1.6 1.7.1.2.2 0 .2.3.1.1.1 0 .2 0h5.5zM38.6 87h6.2s0-.6-.1-.7c-.2-.6-.3-1.1-.5-1.7 0-.2-.1-.6-.2-.6H31.8c.1 1 .3 1.5.4 2.5 0 .1 0 .5.1.5h6.3z"/><path fill="#FCB813" d="M97.8 101.5c-4.2 3.8-16 5.7-23.7 5.7-6.3 0-15.4-1.3-20.8-3.9 5 1.3 11 2 15.5 2 7.7 0 19.5-1.9 23.7-5.7 2.8-2.5 13.4-35 11.7-49.6-.2-1.3-.5-2.5-.9-3.6-1-.3-2-.6-3.1-.3-2.9.6-3.5 4.1-7.9 5-3 .6-7-4.4-10.2-3.5-1.8.5-2.4 1.9-3.5 3.2-.9 1-2.2 1.8-4.7 2-4.2.2-5.5-4.2-7.9-4.6-2.4-.4-4.8 2.8-7.2 2.6-3-.2-3.9-2.9-7.1-2.9-3.3 0-4.6 2.6-6.3 2.1-.9-.3-1.6-1.8-2.5-3.4-1.5 2.1-2.7 4.7-3.1 7.7-.5 4 0 9.3.9 15 .3 1.8.7 3.7 1.1 5.6 0 .1.1.3.1.4v.2c.1.3.1.6.2.8.1.5.2 1 .4 1.5.1.5.2.9.3 1.4v.2c.1.4.2.8.3 1.3v.1c.1.2.1.4.2.6.2.8.4 1.5.6 2.3.1.2.1.5.2.7.2.6.3 1.2.5 1.8 0 .1 0 .2.1.2l.9 3v.2c.1.5.3.9.4 1.4 0 .1.1.3.1.4.1.4.2.7.4 1.1.1.3.2.7.3 1 0 .1.1.2.1.3.1.2.1.4.2.5.2.5.3 1 .5 1.4.1.2.1.4.2.6.1.2.1.3.2.5.3.7.5 1.3.7 1.9.1.2.2.4.2.6.1.2.1.3.2.5.2.4.4.9.5 1.2 0 .1.1.2.1.2.6 1.3 1.1 2.2 1.5 2.7l.1.1c.1.1.2.1.3.2.9.7 2.1 1.4 3.4 2l1.5.6c3.1 1.1 6.9 1.9 10.7 2.4.8.1 1.7.2 2.5.3 1.9.2 3.7.3 5.4.3 1.6 0 3.5-.1 5.4-.3.8-.1 1.7-.2 2.5-.3 3-.4 6.1-1 8.9-1.8l1.8-.6c.5-.2 1-.4 1.4-.6 1.4-.6 2.6-1.3 3.4-2 .1-.1.2-.1.3-.2l.1-.1c.4-.4.9-1.3 1.5-2.7 0-.1.1-.2.1-.2.2-.4.3-.8.5-1.2.1-.2.1-.3.2-.5s.1-.4.2-.6c.2-.6.5-1.2.7-1.9.1-.2.1-.3.2-.5s.1-.4.2-.6c.2-.5.3-.9.5-1.4.1-.2.1-.4.2-.5 0-.1.1-.2.1-.3.1-.3.2-.7.3-1 .1-.4.2-.7.4-1.1 0-.1.1-.3.1-.4.1-.5.3-.9.4-1.4v-.2l.9-3c0-.1 0-.2.1-.2.2-.6.3-1.2.5-1.8.1-.2.1-.5.2-.7.2-.8.4-1.5.6-2.3.1-.2.1-.4.2-.6v-.1c.1-.4.2-.8.3-1.3v-.1-.1c.1-.5.2-.9.3-1.4.1-.5.2-1 .4-1.5.1-.3.1-.6.2-.8v-.2c0-.1.1-.3.1-.4 1.2-5.8 2.1-11.5 2.2-16.2 0-1.5 0-3-.2-4.3-.3-2.5-1.1-4.7-2.3-6.5.5 1.3.9 2.6 1 4.1 2.2 14.5-8.4 47-11.2 49.5z"/><path fill="#FBAE17" d="M106.7 45.4c.6.7 1.1 1.3 1.6 2.1-.1 0-.2.1-.3.1-1.4.3-2.9-.6-4.6-1.2.4 1.1.7 2.3.9 3.6 1.7 14.6-8.9 47.1-11.7 49.6-4.2 3.8-16 5.7-23.7 5.7-4.5 0-10.5-.7-15.5-2 5.4 2.6 14.5 3.9 20.8 3.9 7.7 0 19.5-1.9 23.7-5.7 2.8-2.5 13.4-35 11.7-49.6-.2-1.5-.5-2.8-1-4.1-.3-.8-.7-1.6-1.2-2.4h-.7z"/><path fill="#CCE5D6" d="M43.9 45.4s0 .1 0 0c0 .1 0 0 0 0z"/><path opacity=".15" fill="#F6921E" d="M43.9 45.4s0 .1 0 0c0 .1 0 0 0 0z"/><path fill="#CCE5D6" d="M43 46.6z"/><path opacity=".15" fill="#F6921E" d="M43 46.6z"/><path fill="#FCB813" d="M57.2 48.3c-.1 0-.1 0 0 0 0 0 .1 0 .1.1 0 0-.1 0-.1-.1z"/><path opacity=".15" fill="#F6921E" d="M57.2 48.3c-.1 0-.1 0 0 0 0 0 .1 0 .1.1 0 0-.1 0-.1-.1z"/><path fill="#FCB813" d="M52.4 45.9c1.2 0 2 .4 2.7.9-.7-.5-1.5-.9-2.7-.9z"/><path opacity=".15" fill="#F6921E" d="M52.4 45.9c1.2 0 2 .4 2.7.9-.7-.5-1.5-.9-2.7-.9z"/><path fill="#FCB813" d="M43.9 45.5c-.3.4-.6.7-.9 1.1.8 1.6 1.6 3.1 2.5 3.4 1.7.5 3-2.1 6.3-2.1s4.2 2.7 7.1 2.9c2.4.2 4.8-3 7.2-2.6 2.4.4 3.6 4.8 7.9 4.6 2.5-.1 3.8-1 4.7-2 1.1-1.2 1.8-2.6 3.5-3.2 3.2-1 7.2 4.1 10.2 3.5 4.4-.9 5-4.4 7.9-5 1.1-.2 2.1 0 3.1.3-.3-.8-.7-1.6-1.1-2.4-.2-.1-.4-.1-.6-.1-.2 0-.5-.1-.7-.1-.4 0-.7 0-1.1.1-2.9.6-4.4 4.2-7.4 5-.2 0-.4.1-.6.1-2.8.1-7.1-3.9-10.1-3.7-.2 0-.4-.3-.6-.2-3.2 1-2.9 4.8-7.1 4.8-.5 0-.9.1-1.3 0h-.1v.1c-3-.8-3.9-4.1-6-4.1-.2 0-.2.1-.4.1-2.3 0-5.3 2.7-7.3 2.6-1 0-.8-.1-1.1-.2l-.1.1c.4.1.7.3 1.2.3-.5 0-.9-.2-1.3-.3-.1 0-.2-.1-.3-.2-.1 0-.2-.1-.3-.2-.8-.4-1.3-1-2-1.5s-1.5-.9-2.7-.9c-2.9 0-4.7 2-6.2 2.1-.2 0-.4 0-.6-.1-.1 0-.3-.1-.4-.2l-.1-.1c-.1-.1-.2-.3-.3-.4 0-.1-.1-.1-.1-.2-.1-.1-.1-.3-.2-.4-.3-.3-.4-.6-.6-.9 0-.1 0 0 0 0z"/><path opacity=".15" fill="#F6921E" d="M43.9 45.5c-.3.4-.6.7-.9 1.1.8 1.6 1.6 3.1 2.5 3.4 1.7.5 3-2.1 6.3-2.1s4.2 2.7 7.1 2.9c2.4.2 4.8-3 7.2-2.6 2.4.4 3.6 4.8 7.9 4.6 2.5-.1 3.8-1 4.7-2 1.1-1.2 1.8-2.6 3.5-3.2 3.2-1 7.2 4.1 10.2 3.5 4.4-.9 5-4.4 7.9-5 1.1-.2 2.1 0 3.1.3-.3-.8-.7-1.6-1.1-2.4-.2-.1-.4-.1-.6-.1-.2 0-.5-.1-.7-.1-.4 0-.7 0-1.1.1-2.9.6-4.4 4.2-7.4 5-.2 0-.4.1-.6.1-2.8.1-7.1-3.9-10.1-3.7-.2 0-.4-.3-.6-.2-3.2 1-2.9 4.8-7.1 4.8-.5 0-.9.1-1.3 0h-.1v.1c-3-.8-3.9-4.1-6-4.1-.2 0-.2.1-.4.1-2.3 0-5.3 2.7-7.3 2.6-1 0-.8-.1-1.1-.2l-.1.1c.4.1.7.3 1.2.3-.5 0-.9-.2-1.3-.3-.1 0-.2-.1-.3-.2-.1 0-.2-.1-.3-.2-.8-.4-1.3-1-2-1.5s-1.5-.9-2.7-.9c-2.9 0-4.7 2-6.2 2.1-.2 0-.4 0-.6-.1-.1 0-.3-.1-.4-.2l-.1-.1c-.1-.1-.2-.3-.3-.4 0-.1-.1-.1-.1-.2-.1-.1-.1-.3-.2-.4-.3-.3-.4-.6-.6-.9 0-.1 0 0 0 0z"/><path fill="#FBAE17" d="M107.9 47.6c.1 0 .2 0 .3-.1-.5-.7-1-1.4-1.6-2.1-.7-.1-1.4-.4-2.2-.6-.7-.3-1.5-.5-2.2-.7.4.7.8 1.5 1.1 2.4 1.7.5 3.2 1.3 4.6 1.1z"/><path opacity=".15" fill="#F6921E" d="M107.9 47.6c.1 0 .2 0 .3-.1-.5-.7-1-1.4-1.6-2.1-.7-.1-1.4-.4-2.2-.6-.7-.3-1.5-.5-2.2-.7.4.7.8 1.5 1.1 2.4 1.7.5 3.2 1.3 4.6 1.1z"/><path fill="#402211" d="M74.8 37.8c9.5 0 21-1.8 27.4-4.2h.2c1.4-1.7 1.9-5.1.5-7.5-6.1 2.9-14 4.7-24 5.2-14.7.7-25.7-2.1-30.4-6-2.1 2.4-1.7 6.3-.1 8.3h.2c8.5 3 15.9 4.2 26.2 4.2z"/><path fill="#402211" d="M34.7 39.6c7.6-5.2 14.6-5.1 16.4-3.8 1.9 1.4-1.8 3.6.7 4 2.5.3 5.5-2.3 8.1-1.6 2.6.7 1.5 3.7 6 3.9 4.5.2 3.8-3.2 6.9-3.2 2.7 0 4.9 4.9 8 4.2 3.1-.7 3.1-4.1 5.8-4.7 2.7-.6 5.6 3.5 8.1 2.6 2.5-.9 2.2-3.5 4.1-4.7.5-.3 1.3-.7 2.3-.9.5-.1 1.1-.2 1.7-.2h2c2.9.2 6.7 1.4 11.2 4.4-4.1-3.3-10-4.7-13.5-5.4 0 0 0 .1-.1.1-3 1.2-7.4 2.2-12.2 3-5.2.7-10.5 1.2-15.4 1.2-10.4 0-17.9-1.2-26.5-4.3l-.1-.1c-3.4.7-9.4 2.2-13.5 5.5z"/><path fill="none" d="M75.4 21.8"/><path fill="#402211" d="M44.5 46.9c0 .1.1.2.1.2 0-.1 0-.2-.1-.2zM45.1 47.6l-.1-.1s0 .1.1.1zM41.5 40.9c-1.6-1.1-3.6-1.4-5-1.4 1.5 0 3.4.2 5 1.4l.6.6c-.1-.2-.3-.5-.6-.6zM45.5 47.9zM43.7 44.8c.1.2.1.4.2.6.1.4.3.7.4 1.1-.6-1.5-1.1-3.6-2.2-5 .5.7.9 1.6 1.3 2.5 0 .1 0 .1.1.2.1.2.1.4.2.6zM74.1 50.2h-.3.3zM73.3 50zM66.6 45.9zM57.3 48.4c-.1 0-.2-.1-.2-.1.1 0 .2.1.2.1.1 0 .1 0 0 0zM55.1 46.8c-.7-.5-1.5-.8-2.7-.8 1.2 0 2 .4 2.7.8 0 .1 0 0 0 0zM59 48.8a3.73 3.73 0 0 0 0 0zM91.9 49c-2.8.1-7.1-3.9-10.1-3.7 3-.2 7.2 3.8 10.1 3.7zM101.7 43.9c.2 0 .4.1.6.1.8.2 1.5.5 2.2.7-.9-.3-1.9-.6-2.8-.8zM101.7 43.9c-.2 0-.5-.1-.7-.1.2 0 .4.1.7.1zM106.7 45.4c.1 0 .3.1.4.1h-.2c-.7-.1-1.5-.3-2.2-.6-.1 0-.1 0-.2-.1.8.2 1.5.5 2.2.6z"/><path fill="#603916" d="M102.8 35.1c-.6 0-1.2.1-1.7.2-1 .2-1.8.6-2.3.9-1.9 1.2-1.6 3.8-4.1 4.7-2.5.9-5.4-3.2-8.1-2.6-2.7.6-2.7 4-5.8 4.7-3.1.7-5.3-4.1-8-4.2-3.1 0-2.4 3.4-6.9 3.2-4.5-.2-3.5-3.1-6-3.9-2.6-.7-5.6 1.9-8.1 1.6-2.5-.3 1.2-2.5-.7-4-1.7-1.3-8.8-1.4-16.4 3.8 0 0 .8-.1 1.9-.1 1.4 0 3.4.3 5 1.4l.6.6c1.1 1.3 1.5 3.5 2.2 5 .1.1.1.3.2.4 0 .1.1.2.1.2.1.2.2.3.3.4l.1.1c.1.1.2-.2.4-.2v-.4.4c.2.1.4.4.6.4 1.5-.2 3.3-1.8 6.2-1.8 1.3 0 2 .3 2.7.8.7.5 1.2 1.1 2 1.5h.1s.1 0 .1.1h.1c.1 0 .2.1.3.1h.2c.3.1.1.1 1.1.2 2 .1 5-2.5 7.3-2.6.2 0 .2-.1.4-.1 2.1 0 3 3.3 6 4.1l.1-.1H74.1c4.2 0 3.9-3.9 7.1-4.8.2-.1.4.1.6 0 3-.2 7.2 3.8 10.1 3.7h.6c3-.8 4.5-4.4 7.4-5 .4-.1.7-.1 1.1-.1 1.3 0 2.5.5 3.7 1 .8.3 1.5.5 2.2.6.1 0 .1.3.2.3s.1.3.2.3c.2 0 .5-.3.7-.3.4-.1.7-.3.9-.5 0 0 .1-.1.1-.2 1.2-.8 1.3-2.5 2.6-3.6 1.4-1.2 4.5-1.6 4.5-1.6l-.1.2c-4.4-2-8.2-4.4-11.2-4.7-.7.1-1.4-.2-2-.1zM78.9 31.3c10.1-.5 17.9-2.3 24-5.2-.2-.3-.4-.5-.6-.7l-.2-.2c-.2-.2-.5-.5-.7-.6-1-.7-3.1-1.2-6.1-1.6-5-.7-12.2-1-19.9-1-12.3 0-23.5.9-26 2.7-.3.2-.6.4-.8.7 0 0-.1 0-.1.1 4.7 3.7 15.7 6.5 30.4 5.8z"/><path fill="#FFF" d="M74.8 38.5c4.9 0 10.2-.4 15.3-1.3 4.9-.8 9.2-1.9 12.2-3l.1-.1c.1-.1.1-.2.1-.3 0-.1-.1-.2-.2-.2h-.2c-6.4 2.5-17.9 4.2-27.4 4.2-10.4 0-17.7-1.2-26.3-4.2h-.2c-.1 0-.2.1-.2.2s0 .2.1.3l.1.1c8.8 3.1 16.2 4.3 26.6 4.3z"/><path fill="#FCB813" d="M42.6 113.1l-1.4-2.7-1.3 2.7-2.9.4 2.1 2.1-.5 2.9 2.6-1.4 2.7 1.4-.5-2.9 2.1-2.1zM58.7 123.6l-1.3-2.6-1.4 2.6-2.9.5 2.1 2-.5 3 2.7-1.4 2.6 1.4-.5-3 2.1-2zM81.2 127.1l-1.3-2.6-1.4 2.6-2.9.5 2.1 2-.5 3 2.7-1.4 2.6 1.4-.5-3 2.1-2zM102.9 121.4l-1.4-2.7-1.3 2.7-2.9.4 2.1 2.1-.5 2.9 2.6-1.4 2.7 1.4-.5-2.9 2.1-2.1zM114.8 111.2l-1.3-2.6-1.3 2.6-2.9.5 2.1 2-.5 3 2.6-1.4 2.6 1.4-.5-3 2.2-2z"/></svg>