<svg xmlns:xlink="http://www.w3.org/1999/xlink"  xmlns="http://www.w3.org/2000/svg" viewBox="0 0 150 150"><path fill="#00A251" d="M89.1 127.7c4.1-.1 7.9-1.6 10.8-4.4 2.9-2.9 4.3-6.7 4.4-10.8-4.1.1-7.9 1.6-10.8 4.4-2.9 2.8-4.3 6.7-4.4 10.8zM89.1 112.3c4.1-.1 7.9-1.6 10.8-4.4 2.9-2.9 4.3-6.7 4.4-10.8-4.1.1-7.9 1.6-10.8 4.5-2.9 2.7-4.3 6.6-4.4 10.7zM89.1 96.9c4.1-.1 7.9-1.6 10.8-4.4 2.9-2.9 4.3-6.7 4.4-10.8-4.1.1-7.9 1.6-10.8 4.4-2.9 2.9-4.3 6.7-4.4 10.8zM89.1 81.5c4.1-.1 7.9-1.6 10.8-4.5 2.9-2.9 4.3-6.7 4.4-10.8-4.1.1-7.9 1.6-10.8 4.4-2.9 3-4.3 6.8-4.4 10.9zM91.8 55.6c0-4.1-1.7-7.8-4.5-10.8-2.8 3-4.5 6.7-4.5 10.8 0 4.1 1.7 7.8 4.5 10.8 2.8-2.9 4.5-6.7 4.5-10.8zM87 77.2c-1-2.4-2.2-4.7-4-6.5-2.9-2.9-6.8-4.3-10.9-4.4.1 4.1 1.7 7.9 4.6 10.8 2.7 2.7 6.3 4.2 10.3 4.4v11.1c-1-2.4-2.2-4.7-4-6.5-2.9-2.9-6.8-4.3-10.9-4.4.1 4.1 1.7 7.9 4.6 10.8 2.7 2.7 6.3 4.2 10.3 4.4V108c-1-2.4-2.2-4.7-4-6.5-2.9-2.9-6.8-4.3-10.9-4.5.1 4.1 1.7 7.9 4.6 10.8 2.7 2.7 6.3 4.2 10.3 4.4v11.1c-1-2.4-2.2-4.7-4-6.5-2.9-2.9-6.8-4.3-10.9-4.4.1 4.1 1.7 7.9 4.6 10.8 2.7 2.7 6.3 4.2 10.3 4.4V144h1V68h-1v9.2zM103 41h1v23h-1zM97 26h1v40h-1zM87 5h1v38h-1zM72 41h1v23h-1zM78 26h2v40h-2z"/><path fill="#6CAB36" d="M55.1 131.3c3.2-.1 6.2-1.2 8.4-3.5s3.4-5.3 3.5-8.4c-3.2.1-6.2 1.2-8.4 3.5-2.3 2.2-3.4 5.2-3.5 8.4zM55.1 119.3c3.2-.1 6.2-1.2 8.4-3.5 2.3-2.3 3.4-5.3 3.5-8.4-3.2.1-6.2 1.2-8.4 3.5-2.3 2.2-3.4 5.2-3.5 8.4zM55.1 107.3c3.2-.1 6.2-1.2 8.4-3.5 2.3-2.2 3.4-5.2 3.5-8.4-3.2.1-6.2 1.2-8.4 3.5-2.3 2.2-3.4 5.2-3.5 8.4zM55.1 95.3c3.2-.1 6.2-1.2 8.4-3.5 2.3-2.2 3.4-5.2 3.5-8.4-3.2.1-6.2 1.2-8.4 3.5-2.3 2.2-3.4 5.2-3.5 8.4zM57.2 75.1c0-3.2-1.3-6.1-3.5-8.4-2.2 2.3-3.5 5.2-3.5 8.4s1.3 6.1 3.5 8.4c2.2-2.3 3.5-5.2 3.5-8.4zM53 91.9c0-1.9-1.5-3.6-2.9-5.1-2.2-2.3-5.2-3.4-8.4-3.5.1 3.2 1.2 6.2 3.4 8.4 2.1 2.1 4.9 3.3 7.9 3.4v8.7c0-1.9-1.5-3.6-2.9-5.1-2.2-2.3-5.2-3.4-8.4-3.5.1 3.2 1.2 6.2 3.4 8.4 2.1 2.1 4.9 3.3 7.9 3.4v8.7c0-1.9-1.5-3.6-2.9-5.1-2.2-2.2-5.2-3.4-8.4-3.5.1 3.2 1.2 6.2 3.4 8.4 2.1 2.1 4.9 3.2 7.9 3.4v8.7c0-1.9-1.5-3.6-2.9-5.1-2.2-2.2-5.2-3.4-8.4-3.5.1 3.2 1.2 6.2 3.4 8.4 2.1 2.1 4.9 3.3 7.9 3.4V144h1V85h-1v6.9zM66 63h1v19h-1zM61 52h1v31h-1zM53 36h1v29h-1zM42 63h1v19h-1zM47 52h1v31h-1z"/></svg>