<svg xmlns:xlink="http://www.w3.org/1999/xlink"  xmlns="http://www.w3.org/2000/svg" width="100" height="100" viewBox="0 0 100 100"><path fill="#035BA9" d="M70.561 7.644s6.443 32.594-31.459 50.032c0 0 20.28-12.886 25.208-35.06 0 0-16.488-9.475-36.577 3.982-7.933 5.313-17.434 19.14-15.158 35.058 0 0 22.185 9.396 45.291-9.475 8.964-7.327 21.603-27.67 12.695-44.537z"/><path fill="#37B34A" d="M84.396 16.552s5.305 33.733-22.934 48.835C50.975 71 35.884 74.352 14.09 69.805l-1.139-4.418s24.645 6.418 45.104-6.574c10.508-6.674 19.396-20.6 26.341-42.261z"/><path fill="#37B34A" d="M93.492 31.902s.197 36.543-30.891 47.756c-13.287 4.797-32.593 4.059-56.094-6.822v-2.463s28.237 11.502 56.094.758c11.649-4.492 23.692-14.244 30.891-39.229z"/></svg>