<svg xmlns:xlink="http://www.w3.org/1999/xlink"  xmlns="http://www.w3.org/2000/svg" viewBox="0 0 150 150"><path fill="#7DAAC8" d="M67.7 67.2c.5-.2 1-.4 1.5-.5h.1c-.4.2-.9.3-1.4.5h.6c.4-.2.7-.3 1.1-.5h.1c-.3.1-.7.3-1 .4h.6c.2-.1.5-.3.7-.4h.1c-.2.1-.4.3-.7.4 2.1-.1 4.2-.2 6.4-.3v-.7c-7.4.2-14.6.9-21.2 1.9 0 .2 0 .4.1.6 4.1-.6 8.5-1.1 13-1.4zM47.8 69.7c-.2.1-.4.2-.5.3 1.2-.3 2.5-.5 3.7-.7v-.5-.1c-.9.2-1.9.4-2.8.5 0 .2-.1.4-.4.5zM42.3 71.1s0-.1.1-.1c.1-.2.3-.4.4-.5-5.2 1.3-10 2.9-14.2 4.7.5-.1 1.1-.1 1.6-.1 3.6-1.6 7.7-2.9 12.1-4zM119.5 71.4c5.9 1.6 11.3 3.5 15.8 5.6 0-.1.1-.3.1-.4-4.5-2.2-9.8-4.1-15.7-5.7.1.2-.1.4-.2.5zM17.9 81.1c-.1.1-.2.2-.4.2 0 .1.1.2.1.3.8-.6 1.6-1.1 2.5-1.6-.8.3-1.5.7-2.2 1.1z"/><path fill="#5E6E3E" d="M30 85.1c8.9-3.5 16.3-2.5 21.6-2.5 2.8 0 5.8.2 9.2.1-.9-1.1-1.8-2.4-2.3-3.9-3.6-.3-6.9-.7-10.3-1-6.3-.5-13.2-2-23.1.5-1.8.5-3.4 1-4.9 1.6-.9.5-1.7 1.1-2.5 1.6.4.9.8 1.7 1.1 2.5 1 2.1 2 4 3.1 5.9 2-1.8 4.5-3.5 7.9-4.9.1.1.1.1.2.1z"/><path fill="#5E6E3E" d="M57.3 88.7c1.6-.2 3.3-.5 5.3-.8.6-.1 1.3-.2 2-.4-.9-1.3-1.9-2.4-2.7-3.3l-.3-.3c-2.8.2-5.4.1-7.7.2-4.3.2-10.3-.3-17.1 1.5-1.4.4-2.8.9-4.3 1.5-3.9 1.7-6.7 3.7-8.7 5.9.4.5.7 1.1 1.1 1.6 2 2.8 4 4.7 5.9 6 1.7-2.6 4.4-5.3 8.8-7.5 6.6-3.4 13.2-3.7 17.7-4.4z"/><path fill="#5E6E3E" d="M65 88.9c-2.4.6-4.6 1-6.5 1.4-4.3.9-10.9 1.6-16.8 5-1.7 1-3.1 2-4.2 3 10.2-3.4 19.9-5.2 28.8-5.9v-.3c.1-1.2-.4-2.4-1-3.5l-.3.3zM48.2 76.4c3.2.4 6.4.8 9.8 1.2-.1-.5-.1-1.1-.1-1.6.4-4.7 5.6-7.2 9.8-8.8-4.5.3-8.9.8-13.1 1.5v.5c0 .4-.1.2-.3.4-.3.2-.1.9-.5 1.1-.1.4-.1.8-.5.9-1 .4-4.6.8-3.9-.5.3-.6.8-1.2 1.4-1.5.2-.1.2-.3.3-.4-1.3.2-2.5.5-3.7.7-.3.2-.5.4-.5.8 0 .3-.2.6-.7.8-1.3.2-4 .1-3.8-.5-4.4 1.1-8.5 2.4-12.2 3.9 7.1-.4 12.7.9 18 1.5z"/><path fill="#7A7F35" d="M95.2 90.1c-1.5-.3-2.9-.5-4.2-.8-.8-.2-1.8-.4-2.7-.6.9.5 1.7 1 2.6 1.6 1.5 1 2.8 2.1 4 3.4 7.7 1.4 14 3.3 18.6 5-1.4-1.5-3.3-2.9-5.6-4.3-4.3-2.5-8.9-3.6-12.7-4.3z"/><path fill="#7A7F35" d="M117 86.2c-.1 0-.2-.1-.2-.1-.7.1-1.8.1-2.5 0-.2-.1-.4-.2-.4-.3-.1-.1-.1-.2-.1-.4 0-.3 0-.4-.2-.5-1.1-.3-2.1-.6-3.1-.8 0 .2.1.3.2.4.4.3.8.7 1.1 1.2.5 1-2.3.7-3.1.4-.3-.1-.3-.5-.4-.7-.3-.2-.2-.7-.4-.9-.2-.2-.3 0-.3-.3v-.5c-4.7-.6-8.8-.4-12-.5-3.3-.2-7 0-11.2-.5 0 .1.1.3.1.4.1.1.4 0 .4.3.7.1.7.8.9 1.3.1.5-.7.4-1.1.4-.6 0-1.7-.2-2-.4-.2-.1-.2-.5-.3-.7 0-.2-.2-.2-.2-.4s-.1-.2-.3-.3c-.3-.1-.5-.4-.3-.7.1-.1.1-.3.1-.4-.8-.2-1.7-.4-2.6-.6 0 .8.2 1.6.4 2.3.8.5 1.7.9 2.5 1.4.6.3 1.2.7 1.8 1 3.2.7 6.1 1.1 8.4 1.5 2.2.4 5 .6 8.1 1.2 3.1.6 6.4 1.5 9.6 3.2 5.2 2.7 8 5.9 9.6 9h.1c2.1-1.3 4.3-3.3 6.6-6.4.2-.3.5-.7.7-1-1.9-2.8-5-5.5-9.9-7.6zM73.8 74.2c0-.5.2-.9.4-1 .3-.2.4-.5.5-.9-.1-.4 0-.6.1-.9.2-.3.3 0 .5-.5.4-1 .3-2.6.4-3.3.1-.3.1-.6.1-.9-2.2 0-4.3.1-6.4.2-.1 0-.1.1-.2.1-1.8 1.1-3.3 2.5-3.6 4.2 2 1.8 4.6 3.3 7.9 4.3.2-.5.3-1.2.3-1.3zM107.5 74.6c0-.2-.1-.3-.1-.3-.1-.6-.8-.4-1-.7 0-.2-.2-.4-.5-.5-.3-.1-1.4-.2-1.9-.2-2.8.7-5.7.9-6.3 1-.7.2-.8.1-1.1.6-.2.5-.1 1.1-.5 1.4v.1c1.7-.2 3.5-.5 5.2-.6 2-.2 4.1-.5 6.2-.8zM84.1 79.8c.1.5.1 1 .1 1.6 5.3.6 9.7.1 13.8.2 2.7 0 6-.2 9.8 0 .1-1 .3-1.9.3-1.8.1-.2 0-.5 0-.7-.6-.6-.3-1.5-.4-2.2v-.6c-2.2.2-4.2.4-6.2.6-2 .2-4 .4-6.1.6v.2c0 .5-.3.5-.4 0v-.1c-3.4.3-6.9.6-10.9.4 0 .5.2 1.2 0 1.8zM81.4 77.7c-.5 0-1.1-.1-1.6-.2-.2 1-.3 2-.6 2.9.8.2 1.6.4 2.4.5 0-.9-.1-2.1-.2-3.2zM119.6 71.5c-.3.4-.6.9-1.1 1.2-.4.3-.6.8-.9 1.3 2.9.1 6.1.5 9.7 1.4 3 .7 5.5 1.8 7.7 3 .1-.4.3-.7.4-1.1-4.6-2.3-9.9-4.2-15.8-5.8zM124.6 77.4c-3-.8-5.8-1.2-8.3-1.3-.2.1-.4.3-.4.8-.1 1.3-1 2.4-.5 3.7.1.3 0 1.4.1 2.2 1.4.4 2.8.8 4.3 1.4.2.1.3.1.5.2 4.1 1.7 6.9 3.9 8.9 6.1 1.7-2.8 3.3-5.9 4.7-9.1h-.1c-2.5-1.6-5.5-3-9.2-4z"/><path fill="#7A7F35" d="M73.5 76.2c-1.5-.5-2.8-1.1-4-1.7-.1 0-.2.1-.3.1.1 0 .2-.1.3-.1-1.5-.8-2.8-1.8-3.9-2.8 0 .8.1 1.6.6 2.4 1.8 1.7 4.1 3.3 7.1 4.5.1-.8.1-1.7.2-2.4zM112.8 79.6c-.1-.4-.2-.7-.4-1-.2-.1-.5-1.1-.5-.3.2.8-.7.8-1.1 1.3-.2.7-.3 1.4-.4 2.2.8.1 1.7.2 2.5.4.1-.9.1-1.7-.1-2.6zM74.7 79.2c0-.2 0-.2 0 0-.1-.1 0 0 0 0zM76.4 80.7c-.1 0-.1 0 0 0-.1.2-.1.5-.2.7-.1.3-.3.7-.4-.1v-.9c-.1 0-.2-.1-.2-.1-.1.2-.2.4-.2.6-.1.5-.4.4-.3-.1 0-.2.1-.4.1-.6-.1 0-.2-.1-.3-.1 0 .1 0 .1-.1.2-.1.2-.3.5-.3-.1V80c-.3-.1-.6-.3-.9-.4-.1.1-.1 0-.2-.1-2.2-1-4-2.1-5.5-3.3l.1.1c2.5 2.4 5.3 4.2 8.3 5.8 0-.1.1-.2.1-.3.1-.4.1-.7.1-1.1 0 .1-.1 0-.1 0zM81 76c-.3.2-.6.4-.8.7.4 0 .8.1 1.1.1-.1-.5-.2-.8-.3-.8zM94 75.2c-.1-.6-.7-1-1.2-1.3-2.1-1-2.8-.7-5-3.3-.1-.2-.6-.7-1-.4-1.2.7-1.3 2.3-1.4 3.5 0 1.1-.5 2.1-1.1 3 0 0 0 .1-.1.1 3.7.1 7.1-.2 10.3-.6-.2-.3-.3-.6-.5-1zM74.2 79c0-.1 0-.2-.1-.2 0 .1 0 .1-.1.2.1-.1.1-.1.2 0z"/><g><path fill="#4D6143" d="M87.8 90.1c-2.4-1.7-5.1-3.1-7.3-4.4-.1-.1-.2-.1-.4-.2-.1.1-.2.2-.4.2h-.2c-.3.3-2.1-.1-2.4-.3-.5-.3-.3-1-.4-1.5 0-.1-.1-.2-.2-.3-.4-.1-.4-.2-.4-.5-3.2-1.8-6.3-3.7-9-6.4-1-1.1-1.7-2.1-2-3l-.1-.1v-.3c-.7-2.8 1.6-4.8 4.2-6.3h-.6c-3.6 1.7-7.7 4.5-5.3 9.1 2.2 4.2 7.1 6.7 10.4 9.1 1.5 1.1 3.7 2.4 5.6 4 1 .9 2 1.8 2.7 2.8 3.3.2 6.4.5 9.3.9-1-.9-2.2-1.9-3.5-2.8z"/><path fill="#4D6143" d="M76.5 89.1c-1.9-1.8-4.1-3.2-5.7-4.4-2.7-2.2-6.7-4.5-8.4-8.2-2.2-4.9 2.3-7.7 6.1-9.4h-.6c-4 1.5-9 4.1-8.9 8.8.1 3.5 3.3 6.4 5.2 8.4 1 1.1 2.5 2.4 3.7 4 .9 1.1 1.5 2.4 1.7 3.8 3.2-.2 6.3-.2 9.3-.1-.6-1-1.5-2-2.4-2.9z"/></g><g><path fill="#00834F" d="M69.2 74.8c.1 0 .2-.1.3-.1-.1 0-.2 0-.3.1z"/></g><g><path fill="#00834F" d="M70.1 74.3l-.6.3.6-.3z"/></g><g><path fill="#7DAAC8" d="M28.6 75.1c4.2-1.8 9-3.4 14.2-4.7.3-.4.5-.9 1.1-1 0-.3.8-1 .9-2 .1-1 0-2.4.1-2.8.6-1.7-.4-3-.6-4.7-.1-1-.6-.9-1-1.4-1.1-1.2-1.3-3.1-2.4-3.9-1.4-1.1-2.2-2.9-2.8-4.4-.5-1.3-1.1-2.7-1.6-4.1-.5-1.3-1.8-2-2.6-2.9-5.1 2.5-9 3.6-11.3 3.6-.8 0-1.3-.1-1.6-.3-.5-.2-1-.4-1.6-.4-.7 0-1.4.3-2 .7-3.8 2.7-6.7 8.7-4.6 18.9.9 4.5 2.1 8.7 3.6 12.6 1.8-.8 3.7-1.5 6-2.1 2.1-.5 4.2-.8 6.2-1.1z"/></g><g><path fill="#7DAAC8" d="M17.5 81.2c0 .1 0 .1 0 0 .1 0 .3-.1.4-.2-.2.1-.3.2-.4.2z"/></g><g><path fill="#7DAAC8" d="M76 61.3c.1-.8.2-1.6.2-2.4-.1-.7.2-2.1.3-2.5.8-2.3 1.3-2.3 3.2-2.6.8-.1 1.8-.2 2.7-.1-.2-.8-.7-1.6-1.5-2-.6-.3-1.1.3-1.3.5-2.8 3.4-3.7 2.9-6.4 4.2-.7.3-1.4.8-1.5 1.6-.4 1-.9 1.9-1.2 2.9-.2.6-.5.6-.5 0 0-.5 0-1-.5-1.3-.2-.2-.5-.5-.5-.9-.5-.5-.4-1.2-.6-1.8-.3-.7-.4-.6-1.3-.8-.7-.2-4.4-.3-7.9-1.3-.6 0-2 .1-2.4.2-.3.1-.5.3-.6.6-.4.5-1.2.2-1.3.9-.2.4-.4 2.6-.4 3.3-.2.9.2 2-.5 2.8 0 .3-.1.6 0 .8 0-.2.4 2.6.6 4.5 6.7-1.1 13.8-1.7 21.3-1.9 0-1.5-.2-3.1.1-4.7z"/></g><g><path fill="#7DAAC8" d="M94.3 37.3c0 1 .1 2 .2 3.1.4 2.6-.2 5.4.4 8 .2.9.1 2.8.5 4.1.2.7.4.3.6.7.1.3.2.6.2.9h.3c1.9-.1 2.4 0 4.2-.2 1.1-.1 3.7-.8 4-.9 1.1-.3 6.1-1.4 6.7-1.5 1.1-.1 5.4-.4 6.9-.8 1.1-.3 2.2-.5 3.3-.9.5-.2 1-.4 1.5-.8s.9-.9 2.1-1.3c1.1-.3 2.1.2 2.9.8.6 0 1.4.1 1.9-.2.3-.2.5 0 .2.3-.4.3-.6.8-1.1 1 .2.3.4.5.7.7.9.8 1.3 2.4 1.4 3.1.3 1.2.5 2.4 1.4 3.3.7.6 1.1 1.6 1.5 2.5.4.1.7.3.9.5.7.7.4 1.6-.8 1.5-.2 0-.5-.1-.7-.2-.4.8-.6.6-1.4.8 0 .1-.1.1-.1.2-.3.4-1.1.4-1.6.2-.4-.1-.7-.3-1.1-.5-.2 0-.4.1-.6.1-1.4.5-2.3 1-3.9 0-.4.2-.5.5-.6.9-.4 1.2-2 1.8-2.5 3.1-.4 1.1-.8 2.3-1.3 3.3-.2.6-.5 1.2-.8 1.8 5.9 1.6 11.2 3.5 15.7 5.7 1.2-3.4 2.2-7.1 3-11 2-10.2-.9-16.2-4.6-18.9-.6-.4-1.3-.7-2-.7-.6 0-1.1.1-1.6.4-.3.1-.8.3-1.6.3-2.6 0-7.1-1.3-13.1-4.5-6.6-3.5-13.9-6-21.4-7.6.2.9.4 2 .3 2.7z"/></g><g><path fill="#7DAAC8" d="M50.6 63.4c-.5-.6-1.6-.6-1.4-1.6-.1-1-.4.3-.7.4-.3.4-.4.8-.5 1.2-.4 1.6-.3 3.1.1 5 .1.3.1.5 0 .7.9-.2 1.9-.4 2.8-.5.2-1.7.3-3.6-.3-5.2z"/></g><g><path fill="#63838E" d="M111.8 119.7l-1.5 2.6 20.3 12.7-.9-10.8 9.8-3.5-17.6-11 .4 14.1c-3.6-1.6-7.1-3-10.5-4.1z"/></g><g><path fill="#63838E" d="M28.8 110.9l-15.6 10 10.2 3.8-1.1 10.3 20.6-13.2-1.5-2.2c-8 2.6-12.6 5.2-12.6 5.2v-13.9z"/></g><g><path fill="#3D515A" d="M136.3 43.4c-1.2-.9-2.7-1.5-4.5-1.5-1 0-1.9.2-2.7.5-.3.1-.6.1-.8.1-1.7-.1-5.4-1.1-10.8-4-12.6-6.7-27.3-9.9-41.8-9.9-5.5 0-11 .5-16.5 1.4-.5-.1-.9-.2-1-.3-1.4-.3-7.7-1.8-8.4-1.8-1.4-.2-6.9-.5-8.7-1-1.4-.4-2.8-.6-4.2-1.2-.6-.2-1.3-.5-1.8-1-.6-.5-1.2-1.1-2.6-1.6-1.4-.3-2.6.2-3.7 1-.7 0-1.7.1-2.4-.3-.4-.2-.6 0-.2.3.5.4.8 1 1.3 1.3-.2.4-.5.6-.9.9-1.1 1.1-1.6 3-1.8 3.9-.4 1.5-.6 3-1.8 4.1-.8.8-1.5 2.1-2 3.2-.5.2-.9.4-1.2.7-.9.9-.5 2 1 1.9.3 0 .6-.1.9-.2.5 1 .8.8 1.8 1 0 .1.1.2.1.2.4.5 1.3.5 2 .3.5-.2.9-.4 1.4-.6.2 0 .5.1.7.2.1 0 .2.1.2.1-2.3.9-3.9 1.3-4.9 1.4-.3 0-.6 0-.8-.1-.8-.3-1.7-.5-2.7-.5-1.8 0-3.3.6-4.5 1.5-5.5 3.9-8.6 11.9-6.3 23.2 1 4.9 2.3 9.5 4 13.8.2.6.5 1.1.7 1.7l.9 2.1c2.1 4.8 4.6 9.1 7.4 12.9 2.4 3.4 4.9 5.7 7.4 7.3v20.5s4.6-2.6 12.6-5.2c14.7-4.9 40.7-10 70.4 0 3.4 1.2 6.9 2.5 10.4 4.1l-.4-14.1-.1-4.8c2.6-1.6 5.3-4 8-7.7 3.8-5.2 7-11.4 9.5-18.4 1.4-3.8 2.5-7.9 3.4-12.2 2-11.4-1.1-19.3-6.6-23.2zm-.8 33.3c0 .1-.1.3-.1.4-.1.4-.3.7-.4 1.1-.4 1-.8 2.1-1.2 3.1v.1c-1.4 3.3-3 6.3-4.7 9.2-.7 1.1-1.3 2.1-2 3.1-.2.3-.5.7-.7 1-2.3 3.2-4.5 5.2-6.6 6.5h-.1c-1.4-.6-3.4-1.5-6.1-2.5-4.6-1.7-10.9-3.5-18.6-4.9-1.2-.2-2.3-.4-3.6-.6-2.9-.4-6-.7-9.3-.9-1-.1-2.1-.1-3.2-.1-3-.1-6.1-.1-9.3.1-1.1.1-2.3.1-3.4.2-8.9.7-18.6 2.5-28.8 5.9-2.2.7-4.3 1.5-6.5 2.4 0 0-.1 0-.1-.1-1.9-1.3-3.8-3.2-5.9-6-.4-.5-.7-1.1-1.1-1.6-.7-1-1.3-2-1.9-3-1.1-1.9-2.2-3.8-3.1-5.9-.4-.8-.8-1.7-1.1-2.5 0-.1-.1-.2-.1-.3v-.1l-1.2-3c-1.5-3.9-2.7-8.1-3.6-12.6-2-10.2.9-16.2 4.6-18.9.6-.4 1.3-.7 2-.7.6 0 1.1.1 1.6.4.3.1.8.3 1.6.3 2.3 0 6.2-1 11.3-3.6.8.9 2.1 1.6 2.6 2.9.5 1.4 1.1 2.8 1.6 4.1.6 1.5 1.4 3.3 2.8 4.4 1.1.8 1.3 2.7 2.4 3.9.4.6.8.4 1 1.4.2 1.6 1.2 3 .6 4.7-.1.4-.1 1.8-.1 2.8-.1 1-.9 1.7-.9 2-.6.1-.8.6-1.1 1-.1.2-.2.4-.4.5l-.1.1c-.2.6 2.6.7 3.8.5.6-.2.7-.5.7-.8-.1-.5.2-.7.5-.8.2-.1.4-.2.5-.3.2-.1.4-.3.4-.5v-.7c-.5-1.9-.5-3.4-.1-5 .1-.4.3-.9.5-1.2.3-.1.6-1.4.7-.4-.2 1 .8 1 1.4 1.6.6 1.6.5 3.5.4 5.2v.6c0 .2-.1.3-.3.4-.6.3-1.1.9-1.4 1.5-.7 1.3 2.9.9 3.9.5.4-.2.4-.6.5-.9.4-.3.2-.9.5-1.1.2-.2.3 0 .3-.4v-.5c0-.2 0-.4-.1-.6-.2-1.8-.6-4.7-.6-4.5-.1-.3 0-.6 0-.8.8-.8.3-1.9.5-2.8 0-.7.2-2.9.4-3.3.1-.7 1-.5 1.3-.9.1-.3.3-.5.6-.6.4-.1 1.8-.2 2.4-.2 3.5 1 7.2 1.1 7.9 1.3.9.2 1 .1 1.3.8.3.6.2 1.3.6 1.8 0 .4.3.6.5.9.4.3.4.8.5 1.3 0 .6.4.6.5 0 .3-1 .8-1.9 1.2-2.9.2-.8.8-1.2 1.5-1.6 2.7-1.3 3.6-.8 6.4-4.2.2-.2.7-.9 1.3-.5.8.5 1.2 1.2 1.5 2-.9 0-1.9 0-2.7.1-1.9.3-2.4.3-3.2 2.6-.1.4-.5 1.8-.3 2.5 0 .8-.1 1.6-.2 2.4-.2 1.6 0 3.2-.1 4.8v.7c0 .3-.1.6-.1.9-.2.7-.1 2.2-.4 3.3-.2.6-.3.2-.5.5-.1.3-.2.5-.1.9-.1.4-.2.7-.5.9-.2.1-.3.6-.4 1 0 .1-.1.8-.2 1.3 0 .2-.1.5-.1.6v.2c-.1.7-.1 1.6-.1 2.4v.4c0 .2 0 .4.1.5 0 .1.1.1.2.1.1-.1.2-.4.3-.5 0-.1.1-.2.1-.3 0-.1 0-.1.1-.2.1 0 .1.2.1.2.1.1 0 .3 0 .4-.1.3.1.5.3.1 0-.1.1-.1.1-.2s.1-.1.1-.1c.1-.1.1-.1.1 0v.2c-.1.2-.1.5-.1.7v.2c0 .5.2.3.3.1 0-.1 0-.1.1-.2s.1-.3.1-.4c.1-.3.1-.3.1 0v.5c0 .2 0 .4-.1.6-.1.5.1.6.3.1.1-.2.1-.4.2-.6 0-.1.1-.2.1-.4.1.1.1.3.1.5v.9c.1.8.3.4.4.1.1-.2.1-.5.1-.8 0-.2 0-.4.1-.6 0 .2.1.4.1.6 0 .4 0 .7-.1 1.1 0 .1-.1.2-.1.3-.1.3-.2.6-.2.9 0 .3.1.4.4.5.1 0 .2.1.2.3.1.5-.2 1.1.4 1.5.3.2 2.1.6 2.4.3.1-.1.1-.1.2 0 .2-.1.4-.1.4-.2s.1-.2.1-.2c0-.3-.5-1.1-.7-1.2v-.1c-.2-.7-.4-1.5-.4-2.3 0-.3 0-.6.1-.8v-.2c.3-.9.4-2 .6-2.9 0-.2.1-.4.1-.6.1-.1.1-.3.2-.4.2-.3.6-.5.8-.7.1 0 .2.3.3.8 0 .3.1.6.1 1 .1 1 .1 2.3.2 3.3 0 .2 0 .4.1.5 0 .2 0 .4-.1.6 0 .1 0 .3-.1.4-.2.4 0 .6.3.7.1 0 .2.1.3.3 0 .2.2.2.2.4.1.2.1.6.3.7.3.2 1.4.4 2 .4.4 0 1.2.1 1.1-.4-.1-.5-.2-1.2-.9-1.3.1-.3-.2-.2-.4-.3-.1-.1-.1-.3-.1-.4-.1-.4-.2-.8-.2-1.2 0-.5 0-1.1-.1-1.6.2-.6 0-1.3-.1-1.9 0-.4 0-.7.1-1.1 0 0 0-.1.1-.1.6-.9 1.1-1.9 1.1-3 .1-1.2.2-2.8 1.4-3.5.5-.3.9.2 1 .4 2.2 2.7 2.9 2.3 5 3.3.6.3 1.1.6 1.2 1.3.1.3.3.7.4 1 .2.4.3.8.5 1.3v.1c.1.5.4.5.4 0v-.2c0-.3.1-.7.4-.9.2-.2.3-.3.4-.6v-.1c.4-.4.3-1 .5-1.4.2-.5.3-.5 1.1-.6.6-.1 3.5-.3 6.3-1 .4 0 1.6 0 1.9.2.2 0 .4.2.5.5.3.4 1 .2 1 .7 0 .1.1.2.1.3.1.4.2 1.1.2 1.7v.6c.2.7-.2 1.6.4 2.2 0 .2.1.5 0 .7 0-.1-.1.8-.3 1.8-.1.7-.2 1.5-.2 2.1v.5c0 .3.1.2.3.3.2.2.1.7.4.9 0 .3.1.6.4.7.8.3 3.6.6 3.1-.4-.3-.5-.6-.9-1.1-1.2-.1-.1-.2-.3-.2-.4V84c0-.7-.1-1.3 0-2 0-.8.1-1.5.4-2.2.4-.4 1.2-.5 1.1-1.3.1-.8.3.2.5.3.2.3.3.6.4 1 .2.9.2 1.7.1 2.6 0 .4-.1.9-.2 1.4-.1.5-.1.8.3 1l.6.3c.1.1.2.3.2.5 0 .1 0 .2.1.4.1.1.2.2.4.3.7.1 1.8.1 2.5 0 .4-.1.7-.3.5-.5-.1-.2-.2-.3-.3-.5-.2-.3-.4-.6-.8-.7 0-.3-.6-.8-.7-1.6 0-.8 0-1.9-.1-2.2-.5-1.3.4-2.4.5-3.7.1-.5.2-.6.4-.8l.3-.3c.5-.5.7-1.2 1-1.8.2-.5.5-1 .9-1.3.4-.3.8-.8 1.1-1.2.1-.2.2-.3.3-.5.3-.6.6-1.2.8-1.8.4-1 .9-2.2 1.3-3.3.5-1.3 2.1-1.9 2.5-3.1.1-.4.2-.7.6-.9 1.7 1 2.5.5 3.9 0 .1-.1.4-.1.6-.1.4.1.7.3 1.1.5.5.2 1.2.2 1.6-.2 0-.1.1-.1.1-.2.8-.1 1.1 0 1.4-.8.3.1.5.2.7.2 1.1.1 1.5-.8.8-1.5-.2-.2-.5-.4-.9-.5-.4-.9-.9-1.9-1.5-2.5-1-.9-1.1-2.1-1.4-3.3-.2-.7-.6-2.3-1.4-3.1-.3-.2-.5-.4-.7-.7.5-.2.7-.7 1.1-1 .3-.3.2-.5-.2-.3-.5.3-1.3.2-1.9.2-.9-.6-1.8-1.1-2.9-.8-1.2.4-1.6.9-2.1 1.3-.4.3-.9.6-1.5.8-1.1.4-2.2.6-3.3.9-1.4.4-5.8.7-6.9.8-.6.1-5.6 1.2-6.7 1.5-.3.1-2.9.8-4 .9-1.9.3-2.4.1-4.2.2h-.3c0-.3-.1-.6-.2-.9-.3-.4-.4 0-.6-.7-.4-1.3-.3-3.3-.5-4.1-.5-2.6.1-5.4-.4-8-.1-1-.2-2-.2-3.1.1-.7-.1-1.8-.3-2.5 7.5 1.5 14.8 4.1 21.4 7.6 6.1 3.2 10.6 4.5 13.1 4.5.8 0 1.3-.1 1.6-.3.5-.2 1-.4 1.6-.4.7 0 1.4.3 2 .7 3.8 2.7 6.7 8.7 4.6 18.9-.9 3.5-1.9 7.1-3.1 10.6zM45.1 58.8c.4 0 .8.1 1.2.2.1.3-.2.3-.2.9-1 .2-1.3-.9-2-1.3-1-.6-1.8-2.7-1.8-2.8-.1-.1-.1-.2.1-.1.2.2.4.4.7.6.6.4 1.3.6 1.8 1 .6.4 1.3.9.1.9-.1 0-.2 0-.3.1-.1.4.2.4.4.5zm2.6 10.5c-.3.4-.9.6-1.4.5-.2 0-.4 0-.7-.1-.5-.1-1-.2-1.4-.5.7-1.4.9-2.1.9-3.6 0-.5 0-.8.1-1.3.2.4.6.2.7 0 .1-.1.3-.2.4-.1.2.5-.5 1.2 0 1.5.2.2 1-.4 1 .1-.1 1.2.4 1.7.4 2.9.2.3.1.5 0 .6zm-4.4 1.8c.2-.1.3-.2.5-.3l.3-.3c.4-.3-.1-.3-.1-.3-.3.1-.5.4-.8.6-.4.2-.2.1-.1-.1.1-.1.2-.2.2-.3.2-.3.5-.5.8-.6.1 0 .3.1.7.2.2.1.5.2.7.2 0 .1 0 .2-.1.2-.1.4-.4.7-.6 1-.3.1-1.2.1-1.7-.1 0-.1.1-.2.2-.2zm3-10.1c.2.6.8.1 1.1.5.1.5-1.2 0-1.1.7.3.4.9.3.9.9 0 .7-.3.2-.5 0-.3-.3-.9-.1-1.2.1-.1-1.2-.7-2.2-.8-3.3 1 .8 1.9.4 3.1.4.3 0 .4.3 0 .4-.4 0-1.4 0-1.5.3zm5.2 4.4c.1-.5.2-.9.7-.9.5-.1.7.6 1.2.2.2-.1.4 0 .5.3.2.9.2 2 .3 2.9v.2c0 .2.1.4.1.6 0 .2.1.4 0 .6-.2.1-.8-.1-.8.3-.1.1.3.2.2.3-.7.6-2.3.2-2.5.1.1-.3.3-.5.2-.8v-.1-.5c.1-1.1.1-2.2.1-3.2zm.4 6.2c-.5 0-1 .2-1.5.1l.5-.5c.2-.4-.1-.4-.3-.2-.3.2-.4.5-.8.6.2-.5.5-1 .9-1.2.3 0 .7.5 1.5.5-.1.1-.4.3-.3.7zM69 55.3c.2 0 .3-.1.5-.2 1.1.3 2.7-.8 3.3-1-1.5 1.9-1.9 1.3-3.8 1.2zm22.9-3.2c.1-.7.9-2.4 1.1-3.5 0-.2.1-.2.1 0 .1 2.4-.1 3.7-.3 5.5h-.9c-.1-.6-.1-1.3 0-2zm-1.7 2.3h7.2c.1 0 3.1 0 5.9-.6.6-.2 1.3-.4 2-.6.4-.1 2.8-.6 3.3-.7 1.1-.3 2.8-.7 3.2-.7.8 0 1.6-.1 2.4-.2.6-.1 1.8-.2 2.5-.2-1.1.5-1.3 1.2-1.5 1.7-.4 1.4-.2 4.1 1 5.2.3.3.8.5.7 1-.2.9.1 1.8.2 2.7 0 .3.1.6.3.8.2.3.5.5.7.7.3.1-.1.5-.1.6-.3.5.1 1-.3 1.6-.6.8 0 .9 0 1.4-.5.5-1 1.1-1.2 1.8-.2 1.1 1 1.8 1.5.8.2-.6.4-1.1.8-1.6.1-.1.2-.2.3-.2.4-.2.7.3.2.6-.2.1-.6.2-.8.4-.2.2-.4.5-.2.8.2.2.5 0 .7.1 0 .2 0 .3.1.5.1.4.6.1.9-.1-.1.3-.2.6-.3.8-.1.2-.2.3-.3.5-.4.5-.9 1-1.3 1.5-.1 0-.2 0-.1-.3.3-.7-.2-.6-.5-.6s-.8.1-1-.1c-.1-.1.1-.3 0-.4-.1-.4-.6-.1-.9-.3-.3-.3-.3-.6-.1-.9.1-.1.2-.2.2-.3 0-.1.1-.1.1-.2.2-.3.1-.6-.3-.6-.1 0-.3.1-.4 0-.1-.3-.5.1-.6-.3-.1-.3.1-.6.2-.8.4-.6 0-.9-.4-.9-.8-.1-1.9.7-1.5 1.9.1.2.2.4.3.7.6.9.2 1.4-.1 2.3-.2.5-.4 1.1-.7 1.8-.2.7-.5 1.3-.6 1.9 0 .2-.1.4-.1.5 0 .3 0 1.4.1 1.7 0 .7-.7.8-1 1.1-.5-.4-1 .5-1.4 0-.2-.3-.3-.7-.8-.6-.1-.3-.5-.7-.2-1 0 .2.3.4.4.5.3.1.3-.1.3-.2.1-.2.1-.4.3-.2.7.5.8-.3.7-.5 0-.1-.1-.6-.2-.7-.3-.4-.1-.6.3-.5.1 0 .2.1.4 0 .1 0 .1-.1.1-.1.2-.2.1-.5.3-.7l.6-.3c.6-.3.6-1-.2-.7-.6.2-.6.1-.3-.1.2-.1.5-.3 1-.4.6-.2.4-.8-.3-.6-.2.1-.4.1-.5.2-.3.1-.3 0 0-.2.5-.3.1-.7-.5-.4-.9.5-1.3.1-2.2-.2-.4-.1-.6-.3-.4-.6.2-.3.4-.6 0-.7-.5-.1-1.4-1-.2-2.3l.1-.1c.1-.1.1-.1.1-.2 0-.2-.3 0-.3-.1s.1-.2.1-.3c.3-.3 1-.5.8-.2 0 .1-.1.2-.1.3-.1.2-.2.4-.3.5v.1c-.7 1.1-.2 2 1 1.3.3-.2.5-.5.8-.8.1-.1.2-.2.3-.2h.5c.5 0 .9-.1.9-.3 0-.1-.1-.2-.2-.3-.5-.4.1-.4.5-.5 1.1-.2.4-1.1-.8-1-1.1.1-1.4-.2-1.9-.7-.6-.5-1.1-.6-1.2.3-.1 1.2-.8.6-1.1 0-.3-.7-.8-.2-1.1.7-.1.2-.1.4-.2.5-.1.1-.2.1-.3 0 0 0 0-.1-.1-.1-.3-.6-.7-.5-.6 0 0 .1 0 .2.1.3.1.1.1.3.1.4.2.4.2.8.2 1.3 0 .8-1.1.6-2.5-.1-.7-.4-1.7 0-2.4.2-1.3.4-2-.2-3.5-.7-1.1-.3-1.2.4-2.2 0-.2-.1-.4-.2-.7-.4-.1-.1-.2-.1-.3-.2-.5-.3-1-.8-1.7-1.4l-.5-.5-.2-.2-.3-.3c-.7-.5-1-.5-1.4.2-.3.5-.5.4-.9 0-.1-.1-.2-.3-.3-.4-.2-.4-.4-.7-.6-1l-.3-.3c-.1-.2-.2-.3-.4-.4-1.1-1.2-1 .3-1 .6 0 .4-.2.6-.5.5-.3-.4-.4-.4-.5-.5-.2 0-.4 0-.5.2-.1.1-.2.1-.3.2 0 0-.1 0-.1.1-.5.2-.6-.2-.8-.4-.5-.6-1.6.2-1.2.8.1.1.1.2.2.3.1.2.2.4.1.6l-.1.1c-.7.5-.1 1.3.6 1.5H83.2c.3.1.4.3.4.6s-.2.5-.5.6c-.1 0-.2 0-.3.1h-.2c0 .2.1.4.2.6.1.4-.3.9-.8.8-.4-.1-.2.3-.1.5.2.6.1 1-.3 1.1-.3.1-.5.2-.5.4s0 .3-.1.4c-.1-.1-.1-.3-.1-.4-.2-.1-.4 0-.6.1-.2 0-.3-.1-.4-.2-.4-.4-.7.4-.4.7.1.1.3.3.3.4.2.7-.5.4-.7.6-.2.3.3.8 0 1.2-.2.1-.4.3-.4.5v.2c.1.2.2.2.3.3.1.2.1.3.1.5v.1c-.1.2-.2.8.2 1l-.3 1.8c0 .2-.1.4-.1.6 0 .2 0 .3-.1.5v1.1c0 .4.1.7.2 1.1-.5.2-1.1.1-1.6.2-.1 0-.2 0-.3.1-.1-.2-.2-.3-.4-.5l-.1-.1c-.4-.2-.3-.6-.1-1.1.1-.2.2-.4.2-.6.1-.2.1-.5.2-.8.1-.3.1-.7.1-1 0-.4.1-.7.1-.9.1.3.1.7.2 1v.1c.2.9.4.9.5.1v-.1c.1-.9.1-1.8.1-2.7 0-.3 0-.6-.1-.9-.1-.6-.1-1.2-.2-1.7 0-.2-.1-.7-.1-.8 0-.1 0-.2.2-.2s.2-.6.3-.8c.2-.1.2.2.4.2.1 0 .1-.2.2-.3.1-.2.1-.4.3 0 .2.4.5.2.5-.3.1-2.3 1.3-2.5 2.3-2.1.3.1.4 0 .5-.1.1-.1 0-.3-.1-.5-.1-.1-.2-.3-.3-.3-.7-.6-2.3-1.7-2.5-1.8-.3-.2-.5-.3-.8-.8-.1-.2-.2-.4-.4-.7-.1-.1-.1-.2-.2-.4-.6-1.2-.4-1.7-.5-2.9v-2c0-.6-.1-1.2-.1-1.9 0-.6 0-.8.2-1.1.4-.7.9-1.4 1.4-2 .4-.5.1-.5-.3-.1-.7.6-1 1.5-1.6 2.3-.5.7-.5 1.6-.5 2.5.1.6 0 1.2 0 1.8V64c.1.7.1 1.3.1 2v1.2c-.1 2.4.2 4.9.6 7.3.1.4.2 1.1.2 1.9 0 .3 0 .6.1.9 0 .7 0 1.5-.1 2.3-.1-.4-.2-.9-.3-1.4 0-.3-.1-.5-.3-.3-.2.3-.2.2-.1-.1 0-.2.1-.4.1-.6 0-.2.1-.3.1-.4.1-.5-.1-.5-.3 0 0 .1-.1.3-.1.4-.1.6 0 1.3.1 1.9 0 .3 0 .6-.1.8 0 .1 0 .3-.1.4 0-.1 0-.3-.1-.4 0-.2-.1-.4-.1-.5-.1-.4-.3-.4-.3 0 0 .1 0 .3-.1.4 0 .2-.1.4-.1.6 0 .3-.1.3-.1 0v-.5-.2c0-.1 0-.3-.1-.3.1-.8.2-1.5.4-2.3 0-.2.1-.3.1-.5 0-.1.1-.2.1-.3 0-.2-.1-.2-.2 0 0 .1-.1.2-.1.3 0 .1-.1.3-.1.5-.1.6-.3 1.3-.4 1.7-.1.3-.1.6-.2.8 0 .1 0 .1-.1.2v-.2c0-.2 0-.4-.1-.5.3-.6.3-1.1.3-1.8v-.2c0-.3.1-.6.1-.8 0-.2.1-.3.1-.3.1-.2-.1-.3-.2-.1-.1.1-.1.3-.2.4 0 .2 0 .3-.1.5v.3c0 .9-.2 1.9-.5 2.5 0 0 0 .1-.1.1v-.1c.1-.9.3-1.6.4-2.5v-.4c0-.5-.3-.5-.3 0v.3c0 .6-.2 1.6-.4 2-.1.1-.2 0-.1-.1-.1-.2-.3-.1-.3-.3.2-.6.3-1.2.4-1.7v-.1c0-.2.1-.6-.1-.7-.1-.1-.1 0-.2 0 0 .2 0 .4-.1.7 0 .6-.1 1.2-.3 1.8 0 .2-.2.2-.2 0 0-.7.1-1.4.1-1.9 0-.3.1-.5.1-.7.1-.5.2-.9.3-1.4.2-.8.3-.9.5-1.1.2-.3.2-1 .3-1.2 0-.3.5-.4.6-.7.3-1.2.2-2.9.5-3.9 0-.2.1-.4.1-.7v-.7c.1-1.8-.1-3.8.1-5 .4-2-.1-4.4 1.2-6 .8-1 2.1-1.1 3.5-1.2.4-.1 1-.1 1.5 0 1.6 0 3.6.3 4.3.3h.2c1.1-.1 2.6 0 3.8 0zm33 .7c.5 0 .9-.3 1.2-.6 0 0 .1 0 .1.1-.3.5-.8.7-1.3.7-.7.1-2.1-.8-1.8-2 .1-.3.3-.8.7-1 .1-.1.2 0 .1.1-.2.2-.4.4-.5.7-.4.8.8 2 1.5 2zm1.1-4.2c-.1.5-2 .7-3.2.6-.9-.1-.4-.1 0-.3.9-.3 1.8-.8 2.7-1.4.1-.1.2-.2.4-.2.4.2.2.5 0 .7-.2.3.1.3.1.6zm-3.1 1h1c-.9.7-1.6 2.2-.2 3.1.1.1.4.2.1.3-.5.3.3 1.5.7 1.4.6 0 .5.3.6.6.3 1.3.4 1.4 1.2 1.3.2 0 .1.4.4.5.2.1.4.1.6.1.1 0 .1 0 .1.1.2 1.3 2.4 1.9 2.5.5v-.4c.1-.2.2.1.4 0 .1-.1.2-.1.3-.1 1 .1 1.5-1 .8-2.3-.2-.4-.4-.7-.7-1-.3-.2-.1-.5 0-.8 0-1-.7-1.7-1.2-2.4-.4-.6-1.3-.6-1.5-.6-.2 0-.7-.2-.6-.4 0-.1.1-.2.1-.3-.2-.4-.6 0-1-.1-.1-.1-.1-.3 0-.4-.1-.1-.2-.2-.2-.4 0-.1.1-.3.2-.4.1-.4-.3-.6-.4-.9-.2-.3.2-.9.6-1.1.4-.5 1.3-.4 1.9-.2.9.3 1.6 1 2.2 1.8.9.6 1.5 1.7 1.8 2.8.4 1 .5 2.2 1 3.2.4.7 1.2 1.3 1.1 1.6-.5.6-1.1.4-1.7.6-.5.2-.7.8-.7 1.3 0 .2-.5.4-.1.5.5-.1.4-.7.5-1 .4-.9 1.6-.3 2.1-1.1.4.7 1.3 1.5.9 2.5 0 .1-.2.1-.2 0-.1-.1-.1-.3-.2-.4-.1-.1-.4-.1-.4.1 0 .4-.2.3-.4-.1-.1-.2-.6-.3-.7.2 0 .6.7 1 1 1.1.7.1.4.5-.1.6-.1 0-.4.1-.8-.1-1.1.4-1.9 0-2.6-.3-.3-.2-.6-.4-1-.3-.1.1 0 .2.1.3.4 0 .7.2 1 .4-.7 0-3.3 1.4-4.3 0-.2-.2-.4-1-.5-1.5 0-.2-.3-.1-.3.1 0 .1.1 1 .2 1.3.1.3-.1.2-.1.1-.2-.4-.2-.7-.3-1.1 0-.2-.3-.2-.3 0 0 .3.1.6.1.9.1.2.3.4.3.6 0 .4-.5 1.2-.9 1.5-.6.7-1.5 1.1-1.8 2.1-.3.7-.4 1.5-.8 2 0-.1-.1-.3-.2-.4 0-.8.5-1.5.9-2.1.3-.4.6-.8.8-1.3.1-.3 0-.5-.1-.8 0-.4.2-.5.4-.7.3-.3.4-1 0-1.3v-.7c.2-1.6.5-2.3-.8-3.2h-.5c-.1.1-.1-.1-.2-.2-.3-1.2-1.4-.6-2.3.7-.1.2-.4 0-.4-.1v-1c.1-.4.3-.7.4-1.1 0-.1.3-.2.4-.1.3.4.6.1.8-.2.5-.8 1.1-2.9 1-3.3zm7.1 4.2c.1 0 .1 0 0 0 0 .1 0 .1.1.2s-.3.3-.6.2c-.4-.1-.8-.4-.9-.6.7.5 1.2.3 1.4.2zm-.9-.9c0-.1.1-.1.2-.1v.2c0 .1-.1.1-.2.1v-.2zm.8.3c.2.1.2.2.2.3.1.2 0 .2-.1.2s-.2.1-.3.1c.2-.3.2-.4.2-.6zM127 55c-.3 0-.3.1-.4.1-.1 0-.1 0 0-.1.2-.1 1.1-.2 1.3-.1.3.1.5.3.6.6.1.1 0 .1-.1.1-.2-.4-.3-.8-1.4-.6zm-.2.6c-.2-.1-.2-.2-.3-.4h.3v.4zm7.5 5.3c.7.1 1-.3.7-.7-.1-.2-.4-.4-.7-.5l.1-.1c.2.1.5.2.7.5.6.6.1 1.2-.7 1.2-.4 0-1-.2-1.3-.5-.3-.2-.1-.3.1-.2.3 0 .7.2 1.1.3zm-.3-.4c.1-.1.3-.7.3-.8 0 0 .8.3.6.8-.2.4-1 .1-.9 0zm-2.2 1.5c-.3.2-1 .1-1.5 0-.3-.1-.2-.2.1-.1.6 0 .9 0 1.4.1 0-.1.1-.1 0 0zm-16 14c-.4.4-.7.9-1.4.8 0-.5-.2-.5-.2-.7.2 0 .3-.1.5-.1.1 0 .3 0 .4-.1.1-.1.3-.1.4-.3 0-.1-.1-.1-.2-.1-1 0-.4-.4.1-.7.5-.3 1-.5 1.5-.8l.1-.1c.2-.1.3-.2.4-.4.2-.2.2-.1.1 0l-.2.4c-.2.5-.7 1.5-1.3 1.9-.1 0-.2.1-.2.2zm1 9.3c.1.2.2.3-.1.1-.1-.1-.2-.1-.3-.2-.1-.1-.2-.2-.4-.3-.1 0-.4 0-.1.2l.1.1c.2.2.3.3.5.4.1 0 .1 0 .1.1-.1 0-.2.1-.4.1-.4.1-.8 0-1 0-.1-.1-.2-.2-.3-.4l-.1-.1c-.1-.1-.2-.3-.2-.5.4 0 1-.3 1.1-.3.3.1.5.3.7.5.3.2.3.3.4.3zm-2.7-.7c-.4 0-1.2-.3-1.2-.7 0-.7.2-1.1.3-1.7v-.5c0-.4.7 0 .8-.1.4-.3-.2-.8 0-1.2.1-.1.2 0 .3 0 .1.1.4.3.6 0 .1.3.1.6.1 1 0 .5 0 .9.1 1.3.1.5.3.9.6 1.5-.4.3-1 .4-1.6.4zm.8-5.2c-.2-.1-.7-.3-.9-.1-.2.2-.4.6-.4 0 0-.5.5-.4.7-.7.1-.5-.9-.1-.9-.5.2-.3.7 0 .8-.4-.1-.2-.9-.2-1.1-.3-.3-.1-.3-.3 0-.3.9 0 1.7.3 2.4-.3-.1.8-.5 1.7-.6 2.6zm-4.8 4.7c-.1.3 0 .5.1.7-.1.1-1.4.4-2-.1 0-.1.2-.1.2-.3 0-.3-.5-.1-.6-.2-.1-.2 0-.4 0-.6 0-.2.1-.3.1-.5.1-.5.1-1.1.1-1.6 0-.2.1-.5.1-.7.1-.2.3-.3.4-.2.4.3.6-.3 1-.2.4 0 .5.3.5.7v.6c.1.8 0 1.6.1 2.4zm.5 1.5c.1.2.2.3.4.4-.5.1-.8 0-1.2 0 .1-.3-.2-.4-.2-.6.7 0 1-.4 1.2-.4.4.2.6.5.7.9-.3-.1-.4-.3-.7-.5-.2 0-.4-.1-.2.2zM85.9 70.1c-.8.3-1.6.8-2.3 1.9-.1.1-.1 0-.1 0 .4-.7 1-1.5 1.7-1.8.2-.1.4-.2.6-.2.1 0 .1 0 .1.1.1-.1.1-.1 0 0zm-2.1 4.4c-.4.1-1.8 1-.8 1.3.6.2.4.8-.3.7-.1 0-.2.1-.2.2 0 0 0 .1-.1.1-.1.1-.2.1-.3 0-.2 0-.3-.2-.5 0-.1.3 0 .6.2.8.1.1.2.1.3.2l.9.6c.1.2.1.6.1.8.1.2.3.4.6.3.1.4.2 1.1.2 1.8 0 .4.1.8.1 1.2 0 .3.1.5.1.7-.5.4-1.3.3-1.9.1-.1-.3-.4-.3-.7-.5.1-.2.2-.4.2-.7.1-.4 0-.8 0-1.1 0-.2-.1-.5-.1-.7-.1-.4-.1-1.9-.2-2.2v-.4c0-.3-.1-.7-.2-1-.1-.4-.1-.8-.2-1 .9-.9 1.4-1.6 1.8-3 .1.4.3.8.6 1.1.3.2 1.2.6.4.7zm.9 9.8c.1.1.3.2.2.4-.3.1-.7.1-1.1 0-.2-.2-.3-.5-.4-.8.4-.1 1-.3 1.3-.5.3 0 .8.9.7 1.3-.2-.2-.3-.7-.6-.7-.2 0-.3.1-.1.3zM95.8 73c.1.1.3.1.4.2-1.5.1-1.8.5-3-1 .4.2 1.7 1 2.6.8zm-16 12.3c-.1.1-.2.2-.3.1l-.2-.4c-.1-.1-.1-.3-.2-.3-.1-.1-.3-.1-.3 0v.1c.1.2.3.4.4.7-.2.2-.6 0-.8-.1 0-.3-.2-.6-.3-1h.2c.4 0 .9-.2 1-.1.4.2.5.6.5 1 .1-.1.1 0 0 0zm-2.7-17.4c0-.1.1-.1.1 0 .2.9.8 2.2.9 2.8.2 1.2 0 2.2-.6 2.9-.3-2.4-.5-3.3-.4-5.7zm7.8-14.1c-.8-1.4-1.8-2-2.9-2.4-.2-.1-.1-.2 0-.1 1.3.2 2.3 1.4 2.9 2.5.1 0 0 0 0 0zM46.6 27.9c1 .1 2.1.2 3 .3.5 0 2.6.6 4 .9.6.1 3.7.8 4.1.9.2.1.5.1.7.2.6.2 1.3.4 1.9.6 3.5.8 7.3.7 7.4.7h1.7c1.7 0 4.1.1 6 .1h2.1c1.5 0 3.2-.1 3.4-.1 1.1-.1 5.3-.6 7.4-.4 1.5.2 2.9.3 4 1.1l.4.4c.5.6.8 1.3 1 2.1.4 1.7.3 3.7.6 5.5.3 1.8-.1 5.4.3 7.9.3 1.2.2 3.3.6 4.9.2.4.7.4.8.8v.3h-2.7c.3-2.1.4-4.2.3-6.3 0-1.3 0-2.6.1-4 0-.2.1-1.9.1-2.2 0-.8-.1-1.5 0-2.3 0-1.1 0-2.3-.7-3.2-.5-.6-.9-1.3-1.3-1.9-.2-.3-.5-.7-.8-.9-.5-.4-1-.5-.4.1.2.2.4.5.5.7.5.6.9 1.2 1.3 1.9.2.4.3.6.3 1.3-.1.8-.1 1.6-.2 2.3v2.5c0 1.5.2 2.1-.6 3.7-.8 1.7-1.2 1.9-1.8 2.3-.3.2-2.3 1.6-3.2 2.3-.5.4-.8 1.5.2 1.2 1.3-.4 2.7-.2 2.9 2.5-.9 0-2.1-.1-3.2-.2 0-.2.1-.3.1-.5.1-.3.4-.8-.1-.6-.6.2-1.1-.5-1-1 .1-.3.2-.5.2-.8-.2-.1-.4-.1-.6-.1-.8-.2-.8-1.5.1-1.5.9-.1 1.9-1.3 1-2-.5-.5.1-.9.3-1.4.4-.8-.9-1.8-1.5-1.1-.3.3-.5.8-1.1.6-.4-.2-.6-.6-1.1-.5-.2 0-.3.1-.4.2-.4.2-.6-.1-.6-.6 0-.4.2-2.3-1.2-.8-.6.7-1.2 1.4-1.6 2.3-.6.9-1.1 1.5-1.5.6-.6-1.2-1.1-.9-2.5.4-1.8 1.7-3.1 2.8-4 3.1-1.3.5-1.4-.4-2.8 0-1.9.6-2.8 1.4-4.4.9-.9-.3-2.2-.7-3-.3-1.8 1-3.2 1.2-3.1.2 0-.8.1-1.3.4-2.1.4-.9-.3-1.2-.7-.4-.3.6-.5.3-.7-.5-.3-1.1-.9-1.7-1.3-.9-.3.8-1.2 1.5-1.4 0-.1-1.2-.8-1.1-1.5-.4-.7.7-1 .9-2.4.9-1.5-.1-2.4 1.1-1 1.3.5.1 1.3.1.7.6-.7.5-.1.9.8.8.4 0 .8 0 1.1.3.3.4.6.8 1 1 1.4.9 2.1-.2 1.2-1.6-.2-.4-.5-.7-.6-1.2-.4-.6 1.2.1 1.1.6 0 .2-.3-.1-.4.2 0 .1.1.2.2.4 1.5 1.7.4 2.8-.3 2.9-.5.1-.2.5 0 .8.3.4 0 .6-.5.7-1.1.4-1.6.9-2.7.3-.8-.5-1.3.1-.7.5.3.2.3.3-.1.2-.2-.1-.5-.2-.7-.2-.8-.2-1.2.6-.4.8 1.4.4 2 1 .8.6-1-.3-1 .5-.2.9.2.1.5.3.8.4.3.3 0 .9.4 1 .1.1.3 0 .5 0 .5-.1.8.1.4.6-.1.2-.2.8-.2.9-.1.2 0 1.2.9.6.2-.2.3 0 .4.3.1.2.1.4.4.3.2-.1.5-.4.5-.6.3.4-.1.9-.3 1.3-.7-.1-.8.3-1.1.7-.5.6-1.2-.5-1.8 0-.4-.4-1.3-.5-1.3-1.4.1-.4.1-1.8.1-2.2-.2-1.5-1.3-4.1-1.8-5.4-.4-1.2-.9-1.8-.1-2.9 1.4-1.9-.4-3.4-1.6-3.2-.4 0-.9.5-.5 1.2.2.3.4.6.3 1-.1.5-.6-.1-.8.4-.1.1-.3 0-.5 0-.6-.1-.7.4-.3.9.3.4.8.9.2 1.5-.3.2-1-.2-1.1.3 0 .2.2.3.1.5-.3.2-.9.2-1.3.1-.3 0-1-.1-.6.7.1.3 0 .3-.1.3-.9-1-2.1-2.1-2.4-3.5.3.3 1 .6 1.1.1 0-.3.1-.4.1-.7.3-.1.7.1.9-.1.3-.4 0-.8-.3-1-.2-.2-.7-.3-.9-.5-.6-.3-.2-1 .3-.7.1.1.3.2.4.3.5.5.8 1.3 1 2 .7 1.3 2.1.5 1.9-1-.3-.9-.9-1.6-1.6-2.3 0-.6.8-.7 0-1.7-.5-.8 0-1.5-.4-2.1 0-.1-.4-.6-.1-.7l.9-.9c.2-.2.3-.6.4-1 .1-.7.2-1.5.3-2.2v-.7c0-.2 0-.4-.1-.6-.1-.6.5-.9.9-1.3.7-.7 1.1-1.7 1.3-2.8.2-1.3.2-2.8 0-3.7-.2-.6-.5-1.4-1.8-2.1 1.2.1 2.7.2 3.4.3zm-12.8-2.3c.2 0 .3.2.4.3 1 .7 2.2 1.3 3.4 1.7.5.2 1.2.2 0 .3-1.5.1-3.9-.1-4-.7 0-.3.3-.4.3-.7-.4-.2-.6-.7-.1-.9zm2.9 4.2l-.6-.9c-.1-.1 0-.2.1-.1.6.3.8 1 .9 1.3.4 1.5-1.4 2.7-2.3 2.6-.6-.1-1.2-.3-1.6-.9 0-.1.1-.1.1-.1.4.4 1 .7 1.5.7 1 .1 2.5-1.5 1.9-2.6zm-15.4 9.5c.1.1-.9.5-1.1 0-.2-.6.7-1 .7-1 .1.2.3.9.4 1zm-.6.8c-1 .1-1.6-.7-.8-1.5.3-.3.7-.5.9-.6l.1.2c-.4.2-.7.4-.9.7-.4.6-.1 1 .8.9.5-.1 1.1-.3 1.4-.5.3-.2.5-.1.1.2-.3.3-1 .5-1.6.6zm5.2 1c-.6.2-1.5.3-1.9 0-.1 0 0-.1.1-.1.6.1 1 .1 1.7-.1.4 0 .5.1.1.2zm1.1-.4c.3-.2.8-.5 1.3-.5.1 0 .2-.2.1-.3-.5-.2-.9.1-1.3.4-.8.4-1.8.9-3.2.4-.5.2-.9.1-1 .1-.6-.1-1.1-.6-.1-.7.4-.1 1.3-.6 1.3-1.4-.2-.5-.8-.4-.9-.2-.3.6-.5.6-.5.2 0-.2-.4-.2-.5-.1-.1.1-.2.3-.2.5-.1.1-.2.1-.3 0-.6-1.2.6-2.2 1.1-3.1.7 1 2.1.2 2.7 1.4.1.5 0 1.2.6 1.3.5-.1-.1-.4-.1-.6-.1-.6-.3-1.3-.9-1.6-.7-.2-1.5 0-2.1-.8-.2-.5.9-1.2 1.4-2.1.7-1.2.8-2.7 1.3-4 .4-1.3 1.2-2.7 2.3-3.5.7-1.1 1.7-1.9 2.8-2.3.7-.3 1.8-.4 2.3.3.5.3 1 1.1.8 1.4-.2.3-.7.6-.6 1.1.2.1.3.3.2.5 0 .2-.2.3-.3.5 0 .2.1.4-.1.6-.7-.2-1.1-.7-1.4-.2 0 .1 0 .2.1.3.1.3-.4.5-.7.6-.2 0-1.3.1-1.8.8-.7 1-1.6 1.8-1.6 3.1.1.3.3.7 0 1-.4.4-.6.8-.9 1.3-.8 1.7-.2 3.1 1.1 3 .1 0 .3 0 .4.1.2.1.4-.3.5 0v.6c.1 1.8 2.9.9 3.1-.6 0-.1 0-.2.2-.1.3.1.6.1.8-.1.4-.1.2-.7.5-.7 1 .1 1 0 1.5-1.6.1-.4 0-.8.8-.8.4 0 1.5-1.5.8-1.8-.4-.2.1-.4.2-.4 1.8-1.2.9-3.1-.2-4h1.2c-.1.5.6 3.1 1.3 4.4.2.4.5.7 1 .2.1-.1.4.1.4.2.2.4.4.9.5 1.4v1.2c0 .2-.4.3-.5.1-.1-.1-.2-.2-.2-.3-1.1-1.4-2.3-2.1-2.6-.6 0 .1-.1.3-.2.2-.2-.1-.4-.1-.6 0-.9.6-1.2 1.2-1.2 2v.6c0 .4.1.9.2 1.4 0 .3.1.5.1.8-.3.2-.3.6-.3.9 0 .3.1.5.3.7.2.2.3.3.4.5 0 .1.1.2.1.4-.1.3-.2.6-.1 1 .3.6.7 1.1 1 1.7.6.7 1.2 1.6 1.1 2.6-.2.1-.2.3-.3.5-.5-.7-.6-1.7-1-2.6-.4-1.2-1.5-1.8-2.3-2.6l-.1-.1c-.3-.3-.7-.9-.9-1.4-.1-.2-.1-.3-.1-.4 0-.2.3-.5.4-.7.1-.4.2-.7.2-1.1 0-.3-.3-.4-.4 0-.1.4-.1.9-.4 1.3-.1.2-.3.2-.2-.1.1-.4.3-1.5.3-1.7 0-.1 0-.1-.1-.2s-.3-.1-.3 0v.1c-.1.7-.3 1.5-.5 1.8-.8 1.2-2.7.7-4 .3-1-.4-1.5-.5-1.7-.5zm3.3-8s0-.1 0 0c.2-.1.3-.1.4-.1-.1.3-.2.4-.3.5h-.1c.1-.1.1-.3 0-.4zm.4-.3c-.1 0-.2-.1-.6-.1-1.4-.2-1.6.3-1.8.6-.1.1-.1.1-.1-.1.1-.3.4-.6.7-.7.4-.1 1.5.2 1.8.3.1 0 .1.1 0 0zm-1.8 1.3c-.2.1-.3-.1-.4-.1-.1 0-.2.1-.1-.2.1-.1.1-.3.3-.4-.1.2-.1.4.2.7zm-.5.1c.4.1 1 .4 1.7-.3h.1c-.1.3-.6.6-1.1.7-.3.1-.9-.2-.7-.3v-.1zm1-1.2c.1 0 .1 0 .2.1s0 .2 0 .2c-.1 0-.1 0-.2-.1s-.1-.2 0-.2z"/></g></svg>