<svg xmlns:xlink="http://www.w3.org/1999/xlink"  xmlns="http://www.w3.org/2000/svg" viewBox="0 0 150 150"><linearGradient id="a" gradientUnits="userSpaceOnUse" x1="120.96" y1="69.806" x2="-45.298" y2="218.983"><stop offset=".006" stop-color="#ffb602"/><stop offset="1" stop-color="#e3a06f"/></linearGradient><circle fill="url(#a)" cx="90.4" cy="97.2" r="41"/><linearGradient id="b" gradientUnits="userSpaceOnUse" x1="67.805" y1="51.658" x2="33.248" y2="187.226"><stop offset=".006" stop-color="#909a34"/><stop offset="1" stop-color="#69714c"/></linearGradient><path fill="url(#b)" d="M71.4 20.6s1.5-2.9 5.4-2.6c3.9.4 4.2-1.3 4.2-1.3s-.1 3.7-3 5.7-6.9-1.4-6.9-1.4"/><linearGradient id="c" gradientUnits="userSpaceOnUse" x1="43.789" y1="45.539" x2="9.234" y2="181.1"><stop offset=".006" stop-color="#909a34"/><stop offset="1" stop-color="#69714c"/></linearGradient><path fill="url(#c)" d="M30.3 70.4s.8-4.1 7.4-4.1c6.6.1 5.1 2.2 8 .1 0 0-6.6 14-15.4 4z"/><linearGradient id="d" gradientUnits="userSpaceOnUse" x1="29.721" y1="41.953" x2="-4.833" y2="177.511"><stop offset=".006" stop-color="#909a34"/><stop offset="1" stop-color="#69714c"/></linearGradient><path fill="url(#d)" d="M28.3 68.7s2.6-3.4-1.8-8.2c-4.4-4.9-5-2.3-5.4-6 0 0-6.1 14.2 7.2 14.2z"/><linearGradient id="e" gradientUnits="userSpaceOnUse" x1="30.112" y1="42.05" x2="-4.444" y2="177.615"><stop offset=".006" stop-color="#909a34"/><stop offset="1" stop-color="#69714c"/></linearGradient><path fill="url(#e)" d="M31.3 58.3s2.6-3.4-1.8-8.3-5-2.3-5.3-6c0 .1-6.2 14.3 7.1 14.3z"/><linearGradient id="f" gradientUnits="userSpaceOnUse" x1="33.234" y1="42.847" x2="-1.321" y2="178.408"><stop offset=".006" stop-color="#909a34"/><stop offset="1" stop-color="#69714c"/></linearGradient><path fill="url(#f)" d="M35.6 49.5s3-2.6-.1-8c-3.1-5.3-4.2-3.1-3.8-6.5 0 0-8.4 12 3.9 14.5z"/><linearGradient id="g" gradientUnits="userSpaceOnUse" x1="37.907" y1="44.039" x2="3.347" y2="179.618"><stop offset=".006" stop-color="#909a34"/><stop offset="1" stop-color="#69714c"/></linearGradient><path fill="url(#g)" d="M41.8 40.8s3.4-2 1.4-7.9c-2.1-5.8-3.5-3.9-2.5-7.1 0 0-10.5 10.2 1.1 15z"/><linearGradient id="h" gradientUnits="userSpaceOnUse" x1="44.085" y1="45.611" x2="9.531" y2="181.17"><stop offset=".006" stop-color="#909a34"/><stop offset="1" stop-color="#69714c"/></linearGradient><path fill="url(#h)" d="M49.2 33.1s3.8-1.2 3-7.4c-.8-6.1-2.6-4.5-.9-7.5 0 0-12.4 7.7-2.1 14.9z"/><linearGradient id="i" gradientUnits="userSpaceOnUse" x1="44.274" y1="45.661" x2="9.718" y2="181.227"><stop offset=".006" stop-color="#909a34"/><stop offset="1" stop-color="#69714c"/></linearGradient><path fill="url(#i)" d="M33.1 61.5s.8-4.1 7.4-4.1c6.6 0 5.1 2.2 8 0-.1 0-6.6 14-15.4 4.1z"/><linearGradient id="j" gradientUnits="userSpaceOnUse" x1="46.628" y1="46.259" x2="12.066" y2="181.85"><stop offset=".006" stop-color="#909a34"/><stop offset="1" stop-color="#69714c"/></linearGradient><path fill="url(#j)" d="M37.7 51.3s1.4-4 7.9-3.1c6.5.9 4.7 2.9 7.9 1.1 0 .1-8.4 13.1-15.8 2z"/><linearGradient id="k" gradientUnits="userSpaceOnUse" x1="50.345" y1="47.207" x2="15.797" y2="182.74"><stop offset=".006" stop-color="#909a34"/><stop offset="1" stop-color="#69714c"/></linearGradient><path fill="url(#k)" d="M44.3 42.6s1.8-3.4 7.5-1.6c5.7 1.7 3.8 3.2 6.9 2.1-.1 0-9.4 10.4-14.4-.5z"/><linearGradient id="l" gradientUnits="userSpaceOnUse" x1="54.531" y1="48.273" x2="19.979" y2="183.824"><stop offset=".006" stop-color="#909a34"/><stop offset="1" stop-color="#69714c"/></linearGradient><path fill="url(#l)" d="M50.9 35.3s1.7-3.3 7.2-1.7c5.5 1.6 3.7 3.1 6.7 1.9-.1 0-8.9 10.3-13.9-.2z"/><linearGradient id="m" gradientUnits="userSpaceOnUse" x1="60.714" y1="49.85" x2="26.161" y2="185.404"><stop offset=".006" stop-color="#909a34"/><stop offset="1" stop-color="#69714c"/></linearGradient><path fill="url(#m)" d="M60.3 28.5s1.9-2.3 6-.2c4.1 2.2 2.5 3.1 5 2.7 0 0-8.7 6.7-11-2.5z"/><linearGradient id="n" gradientUnits="userSpaceOnUse" x1="52.215" y1="47.682" x2="17.66" y2="183.245"><stop offset=".006" stop-color="#909a34"/><stop offset="1" stop-color="#69714c"/></linearGradient><path fill="url(#n)" d="M58.6 25.9s3.4-.5 3.6-5.8c.2-5.3-1.6-4.2.3-6.5 0 0-11.6 4.8-3.9 12.3z"/><linearGradient id="o" gradientUnits="userSpaceOnUse" x1="66.475" y1="51.328" x2="31.907" y2="186.939"><stop offset=".006" stop-color="#909a34"/><stop offset="1" stop-color="#69714c"/></linearGradient><path fill="url(#o)" d="M67.5 24.4s1.9-2.3 5.9-.2c4.1 2.2 2.5 3 5 2.6.1.1-8.6 6.7-10.9-2.4z"/><linearGradient id="p" gradientUnits="userSpaceOnUse" x1="59.483" y1="49.536" x2="24.928" y2="185.097"><stop offset=".006" stop-color="#909a34"/><stop offset="1" stop-color="#69714c"/></linearGradient><path fill="url(#p)" d="M67.3 21.7s2.9-.4 3.1-5.1c.2-4.6-1.4-3.7.2-5.6.1 0-10 4.2-3.3 10.7z"/><linearGradient id="q" gradientUnits="userSpaceOnUse" x1="71.959" y1="52.723" x2="37.402" y2="188.292"><stop offset=".006" stop-color="#909a34"/><stop offset="1" stop-color="#69714c"/></linearGradient><path fill="url(#q)" d="M29.8 68.8c10.2-37.7 49-60 86.8-49.9 1.1.3 2.1.6 3.1.9-1.6-.5-3.1-1-4.7-1.5-37.4-10.1-75.9 12-86 49.5-5.7 21.2-1.1 42.8 10.9 59.4-11.5-16.5-15.8-37.6-10.1-58.4z"/><g><linearGradient id="r" gradientUnits="userSpaceOnUse" x1="82.613" y1="55.428" x2="48.057" y2="190.994"><stop offset=".006" stop-color="#909a34"/><stop offset="1" stop-color="#69714c"/></linearGradient><path fill="url(#r)" d="M37.4 92.9c5-29.5 32.9-49.3 62.3-44.4 7.9 1.3 15.1 4.3 21.3 8.5-6.8-5.3-15-9.1-24.2-10.6-29.2-4.9-56.9 14.8-61.8 44-2.9 17.1 2.7 33.7 13.6 45.5-9.3-11.7-13.8-27.1-11.2-43z"/></g><linearGradient id="s" gradientUnits="userSpaceOnUse" x1="78.382" y1="54.353" x2="43.825" y2="189.922"><stop offset=".006" stop-color="#909a34"/><stop offset="1" stop-color="#69714c"/></linearGradient><path fill="url(#s)" d="M48.3 133s-14.5-23.2-5-44.2c0 0-2.5 28.5 19.6 42.5 0 0-10.6-11.5-12.3-23.2 0 0 7.5 23.8 33.3 30.8 0 0-24 2.8-36.6-17.9-.2 0-1.6 2.8 1 12z"/><linearGradient id="t" gradientUnits="userSpaceOnUse" x1="101.023" y1="60.128" x2="66.463" y2="195.712"><stop offset=".006" stop-color="#909a34"/><stop offset="1" stop-color="#69714c"/></linearGradient><circle fill="url(#t)" cx="103.9" cy="48.8" r="5"/><linearGradient id="u" gradientUnits="userSpaceOnUse" x1="37.373" y1="43.899" x2="2.815" y2="179.474"><stop offset=".006" stop-color="#909a34"/><stop offset="1" stop-color="#69714c"/></linearGradient><circle fill="url(#u)" cx="27.6" cy="82.4" r="4.5"/><path fill="#FFFFFE" d="M107.9 79.7s-4-1.8-6.6.5c-2.6 2.2-3.7 6.1-5.3 6.7 0 0-.2-5.3-6.4-5.3-6.3 0-11.1 1.1-12-2.2 0 0-1.1 4.8 1.6 6.9 2.7 2.1 4.3 1.9 4.3 1.9s-4.5-.5-3.2 1.6c1.3 2.1 4.5 1.8 4.5 1.8s-1.8 1.4 0 2.1c1.8.6 5 .6 5 .6s-.8 4.8-3.5 7.2c0 0 11.8 2 16.5-3.8 8.1-10.2-.5-17.6 5.1-18z"/><path fill="#FFFFFE" d="M97.1 83.3s1-5.5-3.8-5.9c-4.8-.5-7.9.5-7.9-1.6 0 0-1.4 3.5 1.6 3.8 3.1.4 10.5-.1 10.1 3.7z"/></svg>