<svg xmlns:xlink="http://www.w3.org/1999/xlink"  xmlns="http://www.w3.org/2000/svg" viewBox="0 0 150 150"><circle fill="#5B784D" cx="75" cy="76.7" r="60.7"/><g fill="#92C83E"><path d="M119.2 63.5c.2 0 .4.1.6.2-.1 0-.3-.2-.6-.2zM114.7 66.6L110 81.8c-23.2 10.2-14.5 34-14.5 34 21.5-11.2 16.5-30.3 15.3-33.7 1.6-5.5 4-13.7 5-16 1.1-2.4 2.5-2.6 3.3-2.5-3.4-.9-4.4 3-4.4 3zM58.9 106.4L44 100.6s-3.6-1.7-5.2 1.5c.4-.7 1.5-1.7 4-1 2.4.6 10.4 3.9 15.7 6.1 2 3 13.7 18.9 35.9 9.1 0 0-13.1-21.7-35.5-9.9zM38.8 102.1c-.2.3-.2.5-.2.5 0-.1.1-.3.2-.5z"/><path d="M86.6 97.4c20-10.4 15.3-28.1 14.2-31.3 1.5-5.1 3.7-12.7 4.7-14.9 1-2.3 2.3-2.5 3.1-2.4-3.2-.7-4.1 2.9-4.1 2.9L100 65.9c-21.5 9.4-13.4 31.5-13.4 31.5z"/><path d="M108.5 48.9c.2 0 .3.1.5.1.1.1-.1-.1-.5-.1zM85.6 97.9s-12.2-20.1-33-9.2l-13.8-5.4s-3.4-1.6-4.8 1.4c.4-.6 1.4-1.5 3.7-.9 2.3.6 9.7 3.6 14.5 5.6 1.9 2.8 12.8 17.6 33.4 8.5zM34 84.7c-.2.3-.2.5-.2.5.1-.2.2-.3.2-.5zM78.3 79.8C95.2 71 91.2 56 90.3 53.3c1.2-4.3 3.1-10.8 4-12.6.9-1.9 2-2.1 2.6-2-2.7-.6-3.5 2.4-3.5 2.4l-3.7 12c-18.3 8-11.4 26.7-11.4 26.7zM96.9 38.7c.1 0 .3.1.4.1 0 0-.2-.1-.4-.1zM36.9 68.3c1.9.5 8.2 3.1 12.3 4.8C50.8 75.5 60 88 77.4 80.2c0 0-10.3-17-28-7.8l-11.7-4.6s-2.8-1.3-4.1 1.2c.4-.5 1.2-1.3 3.3-.7zM33.7 69.1l-.2.4c.1-.2.1-.3.2-.4zM78.3 43.2c.9-3.2 2.3-7.9 2.9-9.3.6-1.4 1.5-1.5 1.9-1.5-2-.5-2.6 1.8-2.6 1.8L77.8 43c-13.4 5.9-8.4 19.6-8.4 19.6 12.5-6.4 9.5-17.4 8.9-19.4zM83.1 32.5c.1 0 .2.1.3.1 0-.1-.1-.1-.3-.1zM55 31.7c.1-.1.2-.1.3-.2 0 0-.2.1-.3.2zM57.8 39.1c-3.3 9.3 5.7 13.1 5.7 13.1 2.5-9-4.2-12.7-5.5-13.3-1.1-1.9-2.8-4.8-3.2-5.7-.4-.8-.1-1.3.1-1.5-1 .8-.2 2-.2 2l3.1 5.4zM39 54.2c1.4.4 6 2.2 9.1 3.5 1.1 1.7 7.9 10.9 20.7 5.2 0 0-7.6-12.5-20.5-5.7l-8.6-3.4s-2.1-1-3 .9c.2-.3.8-.9 2.3-.5zM36.7 54.8c-.1.2-.1.3-.1.3 0-.1.1-.2.1-.3z"/></g></svg>