<svg xmlns:xlink="http://www.w3.org/1999/xlink"  xmlns="http://www.w3.org/2000/svg" viewBox="0 0 150 150"><path fill="none" d="M110.3 70.4s.6-1.9 2.7-3.3c-2.5 1.4-2.9 3.3-2.9 3.3-6.3 20.9-28.6 26-28.6 26s22.4-5.1 28.8-26z"/><path fill="none" d="M81.5 96.5s.4 1.3.6 1.7l1.4 2.7S111.8 97 117.8 66h-.2c-6.3 30-34.2 34.5-34.2 34.5L82 97.9c-.2-.4-.6-1.6-.6-1.6l-.1-1.3.2 1.5zM108.8 70.6s-.1 0-.2-.1h-.1c-.1 0-.2 0-.3-.1h-.2c-.1 0-.2 0-.3-.1H107.1 107.7c.1 0 .2 0 .3.1h.2c.1 0 .2 0 .3.1h.1c.1.1.2.1.2.1s0 .1 0 0c.1 0 .1.1.1.1l-.1-.1zM117.8 66.3c.2-.5.3-.7.5-.8-.1.1-.3.3-.5.8z"/><path fill="none" d="M84.3 104.1c32.7-6.3 38-38.1 38-38.1-.4 2-6.4 31.9-38 38.1zM118.8 65.5c-.2-.1-.3-.1-.5 0 .2-.1.4-.1.5 0zM91.6 78.7c5.3-6.3 10.4-8 13.5-8.4.3 0 .6-.1.9-.1h1.7c.1 0 .2 0 .3.1h.2c.1 0 .2 0 .3.1h.1c.1 0 .1 0 .2.1h0s-.1 0-.2-.1h-.1c-.1 0-.2 0-.3-.1h-.2c-.1 0-.2 0-.3-.1h-.2c-.1 0-.3 0-.4-.1-.1 0-.2-.1-.3-.1-.2 0-.4-.1-.5-.1h-.3c-.3 0-.6-.1-.9-.1h-.1c-3.1 1-8 2.3-13.4 8.6-9.4 11.1-31.3 9.1-31.3 9.1s21.9 2.4 31.3-8.8zM119.7 65.9c-.3 0-.6-.3-.9-.4.3.1.6.4.9.4zM130.1 72.5s0-.1 0 0c-.5-.1-1-.2-1.4-.2h-.1.1c.4 0 .9.1 1.4.2zM39.8 110.4L38.5 139h16.6-16.6zM92.9 113.3l2.5 2.8s16.4-3.2 30.1-21.2c.4 0 .7-.3 1.1-.2.1 0 .2-.4.3-.3-.1 0-.2.4-.3.3-.4-.1-.7.2-1.1.2-13.7 18-30.1 21.2-30.1 21.2l-2.5-2.8-.8-1.1H92l.9 1.1zM81.6 70.2c-.7.3-3.4 1.5-8.9 2.5 5.2-1 7.9-2.1 8.9-2.5z"/><path fill="#FFC655" d="M75.9 20.9s-.2 3.3-2.8 3.5l.2 7.4c1.2-3.1 3.1-5.1 4.6-6.2.1-1.1.8-3.8 3.7-4.9-2.8-.5-5.7-.8-8.7-.9l.1 2.4c.4-.7 1.3-1.2 2.9-1.3zM72.5 19.8h-.2c.1.1.1.3.2.5v-.5z"/><path fill="#FFC655" d="M78.1 26c-3.4 2.9-4.4 7.6-4.7 9.6l.4 11.6c.4 0 .8.1 1.3.1 1.4-2.3 3-3.9 4.4-5 .2-1.7 1.3-6.2 7.1-6.5 7.1-.3 8-2.2 8-2.2S91.4 50 79.7 43c-1.5 1.3-2.7 2.9-3.5 4.6 11.5 2 20.4 11.8 20.7 23.8 5.6-3.7 10.1-3.3 11.9-2.9 1.5-2.6 5.1-5.7 12.1-5-2-18.9-14.8-34.6-32.1-40.8-1.7 3.2-4.9 6.8-10.7 3.3zM47.1 73.7c0-.5-.1-1-.1-1.6 0-8.9 4.7-16.7 11.7-21.1-6.2-1.3-8-10.8-8-10.8s.9 1.8 8 2.2c5 .2 6.5 3.6 6.9 5.6 1.8-.5 3.7-.8 5.7-.8l.2-4c-.3-2.3-1.5-6.9-4.9-9.8-10 5.9-12.6-7.8-12.6-7.8s.8 1.6 6.8 1.8c4.9.2 5.8 4 6 5.5 1.6 1.2 3.6 3.3 4.8 6.5l.2-4.8.1-10v5.8l.4-8.9c-.7.2-2.8.4-4.2-1.5-25 2-44.8 23-44.8 48.7 0 6.6 1.3 12.8 3.7 18.5 3.1-5.1 9.1-11.1 20.1-13.5z"/><path fill="#FFF5E2" d="M71 55.4l.3-8.2c-2 0-3.9.3-5.7.8.1.3.1.6.1.8 1.7 1.3 3.8 3.4 5.3 6.6zM73.9 49.8c.4-.9.8-1.7 1.2-2.4-.4-.1-.8-.1-1.3-.1l.1 2.5zM65.5 49.4c-2.7 1.6-5 2-6.8 1.6-7 4.4-11.7 12.2-11.7 21.1 0 .5 0 1.1.1 1.6.1 0 .3-.1.4-.1 5.6-5.8 13.9-9.5 23.1-9.6l.2-5.2c-.6-2.8-2.1-6.7-5.3-9.4zM76.2 47.5c-1.3 2.4-1.9 4.9-2.1 6.6l.3 10.1c7.9.8 14.9 4.2 19.9 9.2.9-.8 1.8-1.5 2.7-2-.5-12.1-9.3-21.9-20.8-23.9z"/><path fill="#9F7E73" d="M117.8 66.3c.2-.5.3-.7.5-.8h-.5c-.1.3-.1.5-.2.8h.2zM120 65.5h-1.2c.3.1.6.4.9.4.1 0 .2-.4.3-.4z"/><path fill="#9F7E73" d="M132.2 72.4c0-.4-.1-.8-.3-1.1-.3-.5-.8-.9-1.4-1-3.2-.7-5.7-.1-7.5.8 1-3 1.3-5 1.3-5v-.4c0-1-.7-1.9-1.8-2.1-.6-.1-1.1-.2-1.7-.2-6.9-.7-10.6 2.4-12.1 5-1.8-.4-6.3-.8-11.9 2.9-.9.6-1.8 1.3-2.7 2-5-5-12-8.4-19.9-9.2-1 0-2.1-.1-3.2-.1h-.3c-9.3.1-17.5 3.8-23.1 9.6-.1 0-.3.1-.4.1-11 2.4-16.9 8.4-20.1 13.6-3 4.8-3.6 9-3.6 9.1v.2L21.6 139c0 .6.2 1.1.6 1.6.4.4 1 .7 1.5.7l31.4.2c.7 0 1.3-.3 1.7-.8.4-.5.5-1.2.4-1.8 0-.1-1.6-6.3 1.5-10.2 2.3-3 18.4-4.8 31.9-4.7 27.5-.7 39.1-26.9 39.6-28 .5-1.1 0-2.3-1.1-2.8-2.1-1-4.2-1-6-.7 6.3-9.5 8.9-18.5 9-19.2.1-.5.1-.7.1-.9zm-3.6-.2c.5 0 .9.1 1.4.2 0 0-9 33.7-38 39.7l.8 1s14.2-1.9 25.9-16.5c0 0 3.1-2.7 6.8-2.5.4 0 .7.1 1.1.2.1 0 .2 0 .3.1.4.1.8.2 1.2.4 0 0-11.2 26.1-37.6 26.7 0 0-29.2-.2-33.6 5.5-3.8 4.9-1.9 12-1.9 12h.1l-31.5-.1 1.9-42.3s2.6-20.3 29.4-21.8c7.8-.4 13.6-1.2 17.8-2.1 5.5-1.1 8.2-2.2 8.9-2.5v-.1H81.7c.5.9 8.3 14.2-21.7 15.7v1.8s22 2.1 31.5-9c5.3-6.3 15.1-8.3 15.3-8.3H107.7c.1 0 .2 0 .3.1h.2c.1 0 .2 0 .3.1h.1c.1 0 .1 0 .2.1h.2S100.7 92.3 81.4 95l.2 1.3s22.2-5.1 28.6-26c0 0 .4-2 3-3.3 1.1-.8 2.9-1 4.9-1.2v.1h-.2c.2 0 .3-.3.5-.3.2-.1.3-.2.5-.1.3 0 .6-.1.9-.1h.3c.7 0 1.4.2 2.2.3v.2s-5.3 31.7-38 38.1l.4.9s23.4-2.5 35.9-29.1c0 0 2-3 6.7-3.2v.4h.1c.4 0 .8-.4 1.2-.4l.1-.2c.5 0 .9 0 1.4.1l-1.5-.3h-.1c.1.1.1 0 .1 0z"/><path fill="#FFAD57" d="M125.6 94.2c-3.7-.2-6.8 2.5-6.8 2.5-11.7 14.6-25.9 16.5-25.9 16.5l2.5 2.6c0-.1 16.4-2.6 30.2-21.6zM128.5 72.2h-1.2 1.2z"/><path fill="#FFAD57" d="M87.2 108l.5.6s25.9-.4 39.6-36.4c-4.7.2-6.7 3.6-6.7 3.6-12.5 26.6-35.9 29.1-35.9 29.1s1.4 2.3 2.5 3.1z"/><path fill="none" d="M128.6 72.2c.5 0 .9.1 1.4.2"/><path fill="#FFAD57" d="M39.8 110.4s1.3-15.6 20.1-16.8c16.9-1.1 36.6-2.3 45.2-23.2-3.1.3-8.3 2.1-13.6 8.4C82 89.9 60 87.6 60 87.6v-6.1s20.1-1.9 21.4-11.3c-.9.4-3.6 1.5-8.9 2.5-4.2.8-10 1.6-17.7 2.1C28 76.3 25.4 96.6 25.4 96.6l-1.9 42.3 31.5.1H38.5l1.3-28.6zM81.9 70.1h-.1.1z"/><path fill="none" d="M125.6 94.2c.4 0 .7.1 1.1.2"/><path fill="#FFAD57" d="M120 65.5c.7 0 1.4.1 2.2.2-.8-.1-1.5-.2-2.2-.2z"/><path fill="none" d="M108.5 70.5h.1M108.1 70.5h.2M119.7 65.5h-.9M118.3 65.5h-.5M107.5 70.4h.2"/><path fill="#FFAD57" d="M83.5 100.7s27.8-4.6 34.2-34.4c.1-.3.1-.5.2-.8-2.2.2-3.7.8-4.9 1.6-2.1 1.4-2.7 3.3-2.7 3.3-6.3 20.9-28.7 26-28.7 26s.4 1.2.6 1.6l1.3 2.7z"/><path fill="none" d="M128.5 72.2h.1"/><path opacity=".59" fill="none" d="M128.5 72.2h.1"/><path fill="none" d="M127 94.4c-.1 0-.2 0-.3-.1"/><path opacity=".59" fill="none" d="M127 94.4c-.1 0-.2 0-.3-.1"/><path fill="#9F7E73" d="M125.6 94.2z"/><path opacity=".59" fill="#CF8D72" d="M125.6 94.2z"/><path fill="none" d="M120 65.5h-.3"/><path opacity=".59" fill="none" d="M120 65.5h-.3"/><path fill="#9F7E73" d="M105.1 70.4c.3 0 .6-.1.9-.1-.3 0-.6 0-.9.1z"/><path opacity=".59" fill="#CF8D72" d="M105.1 70.4c.3 0 .6-.1.9-.1-.3 0-.6 0-.9.1z"/><path fill="none" d="M107.7 70.4c.1 0 .2 0 .3.1"/><path opacity=".59" fill="none" d="M107.7 70.4c.1 0 .2 0 .3.1"/><path fill="none" d="M107.5 70.4h-.4"/><path opacity=".59" fill="none" d="M107.5 70.4h-.4"/><path fill="none" d="M108.9 70.7"/><path opacity=".59" fill="none" d="M108.9 70.7"/><path fill="none" d="M108.9 70.7"/><path opacity=".59" fill="none" d="M108.9 70.7"/><path fill="#9F7E73" d="M117.8 65.5z"/><path opacity=".59" fill="#CF8D72" d="M117.8 65.5z"/><path fill="none" d="M108.6 70.6c.1 0 .1 0 .2.1"/><path opacity=".59" fill="none" d="M108.6 70.6c.1 0 .1 0 .2.1"/><path fill="none" d="M108.2 70.5c.1 0 .2 0 .3.1"/><path opacity=".59" fill="none" d="M108.2 70.5c.1 0 .2 0 .3.1"/><path fill="#FFAD57" d="M127.4 73c-.1 0-.1 0 0 0-.1 0-.1-.4-.1-.4-13.6 36-39.6 36.2-39.6 36.2l-.5-.7c-1.1-.8-2.6-3.1-2.6-3.1l-.4-.9v-.1c31.6-6.2 37.6-36.2 38-38.2v-.1c-.8-.1-1.5-.2-2.2-.2-.1 0-.2.4-.3.4-.3 0-.6-.3-.9-.4-.2-.1-.3-.2-.5-.1s-.3.7-.5.7c-6 31-34.3 34.9-34.3 34.9l-1.4-2.8c-.2-.4-.6-1.7-.6-1.7l-.2-1.5c19.3-2 27.6-24.3 27.6-24.3h-.1-.1s-.1 0-.2-.1h-.1c-.1 0-.2 0-.3-.1h-.2c-.1 0-.2 0-.3-.1H105.9c-.3 0-.6 0-.9.1-8.6 20.9-28.3 22.1-45.2 23.2-18.8 1.2-20.1 16.8-20.1 16.8l-1.3 28.6 16.6.1s-1.9-7.2 1.9-12c4.4-5.7 33.6-5.6 33.6-5.6 26.4-.6 37.6-26.7 37.6-26.7-.4-.2-.8-.3-1.2-.4-.1 0-.2.4-.3.3-.4-.1-.7.2-1.1.2-13.7 18-30.1 21.2-30.1 21.2l-2.5-2.8-.9-1.2h.1c29-6 38-39.7 38-39.7-.5-.1-1-.2-1.4-.2h-.1v.4c-.5-.1-.9.3-1.2.3z"/><path fill="#CF8D72" d="M127.3 72.6c-13.6 36-39.6 36.2-39.6 36.2l-.5-.7c-1.1-.8-2.6-3.1-2.6-3.1l-.4-.9v-.1c31.6-6.2 37.6-36.2 38-38.2v-.1c-.8-.1-1.5-.2-2.2-.2-.1 0-2-.1-2.2 0-.2.1.2.5 0 .5-6 31-34.3 34.9-34.3 34.9l-1.4-2.8c-.2-.4-.6-1.7-.6-1.7l-.2-1.4c19.3-2 27.6-24.3 27.6-24.3h-.1-.1s-.1 0-.2-.1h-.1c-.1 0-.2 0-.3-.1h-.2c-.1 0-.2 0-.3-.1H105.9c-.3 0-.6 0-.9.1-8.6 20.9-28.3 22.1-45.2 23.2-18.8 1.2-20.1 16.8-20.1 16.8l-1.3 28.6 16.6.1s-1.9-7.2 1.9-12c4.4-5.7 33.6-5.6 33.6-5.6 26.4-.6 37.6-26.7 37.6-26.7-.4-.2-.8-.3-1.2-.4-.1 0-.8-.1-.8-.2-.1-.1-.3.3-.6.8-13.7 18-30.1 21.2-30.1 21.2l-2.5-2.8-.9-1.2h.1c29-6 38-39.7 38-39.7-.5-.1-1-.2-1.4-.2h-1.3c-.1-.2-.1.2-.1.2z"/><path fill="#FFAD57" d="M60 81.5v4.3C90 84.3 82.2 71 81.7 70.1c0 0 .1 0 0 0h-.2v.1s-.1 0-.1.1C80.1 79.6 60 81.5 60 81.5z"/><path opacity=".59" fill="#CF8D72" d="M60 81.5v4.3C90 84.3 82.2 71 81.7 70.1c0 0 .1 0 0 0h-.2v.1s-.1 0-.1.1C80.1 79.6 60 81.5 60 81.5z"/><path fill="#8ABB5E" d="M93.4 35.3c.2-.2.2-.3.2-.3s0 .2-.2.3zM93.4 35.3c-.5.4-1.9 1-6.2 1.1-6.3.2-6.8 5.7-6.8 5.7 6.5.3 11.9-5.4 13-6.8zM89.3 19.8c.2-.1.2-.2.2-.2l-.2.2z"/><path fill="#8ABB5E" d="M89.3 19.8c-.4.3-1.6.8-5.1.9-5.1.1-5.6 4.6-5.6 4.6 5.4.2 9.8-4.4 10.7-5.5zM51.8 41.8c-.2-.2-.2-.3-.2-.3s0 .1.2.3zM58 42.9c-4.3-.1-5.8-.7-6.2-1.1 1.2 1.3 6.6 7.1 13.1 6.7 0 0-.6-5.5-6.9-5.6zM55 26.9c-.1-.2-.2-.2-.2-.2l.2.2zM60.3 27.8c-3.7-.1-4.9-.6-5.3-.9 1 1.1 5.6 6 11.1 5.7 0 0-.5-4.6-5.8-4.8z"/><path fill="#5E8A81" d="M72.4 21.4l-.4 9V63h-.6l.5-28.4-.2 4.8c-1.3-3.2-3.3-5.3-4.8-6.5-.2-1.4-1.1-5.3-6-5.5-6-.3-6.8-1.9-6.8-1.9s2.6 13.8 12.6 7.8c3.4 2.9 4.5 7.5 4.9 9.8l-.2 4-.4 8.3c-1.5-3.2-3.6-5.3-5.2-6.5 0-.2-.1-.5-.1-.8-.4-2-1.9-5.4-6.9-5.6-7.1-.3-8-2.2-8-2.2s1.8 9.5 8 10.8c1.9.4 4.1 0 6.8-1.6 3.1 2.7 4.6 6.6 5.3 9.4l-.3 5.1h.3c1.1 0 2.3.1 3.4.2L74 54.1c.3-1.7.9-4.1 2.1-6.6.8-1.6 2-3.2 3.5-4.6 11.7 7 14.8-9.2 14.8-9.2s-.9 1.8-8 2.2c-5.8.3-6.9 4.8-7.1 6.5-1.4 1.1-3 2.6-4.4 5-.4.7-.8 1.5-1.2 2.4l-.1-2.5-.4-11.6c.3-2.1 1.3-6.7 4.7-9.6 5.8 3.5 9-.1 10.6-3.4 1-2.1 1.4-4.1 1.4-4.1s-.7 1.5-6.5 1.8c-.8 0-1.5.2-2.1.4-2.9 1-3.5 3.7-3.7 4.9-1.5 1.2-3.4 3.1-4.6 6.2v-7.6c2.6-.1 2.8-3.5 2.8-3.5-1.6.1-2.4.7-2.9 1.3l-.1-2.4V19c5.2-3.5.6-9.6.6-9.6-4.9 4.7-1.9 8.6-1 9.5v1.3c-.1-.2-.1-.3-.2-.5-1.3-2.6-5.1-2.1-5.1-2.1.3 1 .6 1.7 1 2.3 1.5 2 3.6 1.7 4.3 1.5zM55 26.9c-.2-.1-.2-.2-.2-.2l.2.2c.4.3 1.6.8 5.3.9 5.3.2 5.8 4.8 5.8 4.8-5.6.3-10.1-4.6-11.1-5.7zm-3.2 14.9c-.2-.2-.2-.3-.2-.3s0 .1.2.3c.5.4 1.9 1 6.2 1.1 6.3.2 6.8 5.7 6.8 5.7-6.5.2-11.8-5.5-13-6.8zm35.4-5.4c4.3-.1 5.8-.7 6.2-1.1.2-.2.2-.3.2-.3s0 .1-.2.3c-1.2 1.3-6.6 7.1-13.1 6.7.1.1.6-5.4 6.9-5.6zm-3-15.7c3.5-.1 4.7-.6 5.1-.9l.2-.2s0 .1-.2.2c-1 1.1-5.3 5.7-10.6 5.5 0 0 .4-4.5 5.5-4.6zm-8.8.5L72.8 24c0-2.7 2.6-2.8 2.6-2.8zM73.5 10l-.9 8.5c-3.5-4.6.9-8.5.9-8.5zm-5.9 7.8s4.3 0 4.8 3.3l-4.8-3.3z"/><path fill="#8ABB5E" d="M73.5 10s-4.3 3.8-.9 8.5l.9-8.5zM67.6 17.8l4.8 3.3c-.4-3.3-4.8-3.3-4.8-3.3zM75.4 21.2s-2.6.1-2.6 2.8l2.6-2.8zM72 63V24.6l-.1 10-.5 28.4z"/></svg>