<svg xmlns:xlink="http://www.w3.org/1999/xlink"  version="1" xmlns="http://www.w3.org/2000/svg" viewBox="0 0 150 150"><path fill="#BEDA7E" d="M79.5 71.1c0 1.6 1.3 2.9 2.9 2.9 1.6 0 2.9-1.3 2.9-2.9 0-1.6-1.3-2.9-2.9-2.9-1.6.1-2.9 1.3-2.9 2.9M70.5 64.4c2.6 0 4.6-2.1 4.6-4.6 0-2.5-2.1-4.6-4.6-4.6-2.5 0-4.6 2.1-4.6 4.6 0 2.5 2 4.6 4.6 4.6M70.8 19.2c0 4.4 3.6 8 8 8s8-3.6 8-8-3.6-8-8-8-8 3.6-8 8M63.9 3.5c-2.5 0-4.6 2.1-4.6 4.6 0 2.5 2.1 4.6 4.6 4.6 2.5 0 4.6-2.1 4.6-4.6 0-2.5-2.1-4.6-4.6-4.6M78.9 51.8c1.6 0 2.9-1.3 2.9-2.9 0-1.6-1.3-2.9-2.9-2.9-1.6 0-2.9 1.3-2.9 2.9 0 1.6 1.3 2.9 2.9 2.9"/><g fill-rule="evenodd" clip-rule="evenodd" fill="#8BC540"><path d="M76.8 74.1c.5.8 1.1 1.6 1.6 2.5.3.4.5.8.8 1.2 1.6 2.3 1.1 5.7-1.1 7.5l-.3.3c-.3.3-.7.6-1 .8l-2.7 2.3-.1.1-.1-.1-2.7-2.3c-.3-.3-.7-.6-1-.8l-.3-.3c-2.1-1.8-2.6-5.2-1.1-7.5.3-.4.5-.8.8-1.2.5-.8 1.1-1.6 1.6-2.5l2.6-3.9.1-.1.1.1 2.8 3.9zM63.4 89.1l2.7.7 1.4.4c2.6.7 4.6 3.4 4.6 5.9V102.3l-4.6-1.3-3.3-.9-.8-.2c-2.6-.7-4.7-3.4-4.7-5.9V87.8l4.7 1.3zM58.8 102.4c1.4.4 2.8.8 4.1 1.1l2.1.6c3.9 1.1 7.1 5.2 7.1 9.1v9.5c-2.4-.7-4.7-1.3-7.1-2-1.7-.5-3.3-.9-5-1.4l-1.2-.3c-3.9-1.1-7.1-5.2-7.1-9.1v-1.2-1.2-7.1c2.4.7 4.8 1.4 7.1 2zM55.3 141h16.8v-5c0-5.3-4.3-10.8-9.6-12.2l-2.8-.8-5.6-1.5-9.6-2.6v12.8c0 4.6 3.3 9.4 7.7 11.5.5-1.3 1.5-2.2 3.1-2.2z"/><g><path d="M84.8 89.1l-2.7.7-1.4.4c-2.6.7-4.6 3.4-4.6 5.9V102.3l4.6-1.3 3.3-.9.8-.2c2.6-.7 4.6-3.4 4.6-5.9V87.8l-4.6 1.3zM89.4 102.4c-1.4.4-2.8.8-4.1 1.1l-2.1.6c-3.9 1.1-7.1 5.2-7.1 9.1v9.5c2.4-.7 4.7-1.3 7.1-2 1.7-.5 3.4-.9 5-1.4l1.2-.3c3.9-1.1 7.1-5.2 7.1-9.1v-1.2-1.2-7.1c-2.3.7-4.7 1.4-7.1 2zM99.1 141c2.7-2.4 4.5-5.9 4.5-9.3v-12.8l-9.6 2.6-5.6 1.5-2.8.8c-5.3 1.4-9.6 6.9-9.6 12.2v4.9h23.1z"/></g></g><path fill="#019598" d="M91.8 66.2V44.6c3.8-.4 6.8-3.6 6.8-7.6 0-4.2-3.4-7.6-7.6-7.6H61.1c-4.2 0-7.6 3.4-7.6 7.6 0 3.8 2.8 7 6.5 7.5v21.6c-1.9 4.2-18.8 42.2-25.3 57.1-1.5 3.4-2.1 6.3-2.1 8.8.1 10.1 10 11.6 10.1 11.6H109.2c.1 0 10-1.5 10.1-11.6 0-2.5-.7-5.4-2.1-8.8-6.5-14.9-23.5-52.9-25.4-57m16.9 73.7H43.1c-.8-.2-6.8-1.5-6.7-7.8 0-1.8.5-4.2 1.8-7.3 6.9-15.8 25.5-57.4 25.5-57.4l.2-.4V40.7h-2.7c-2.1 0-3.7-1.7-3.7-3.7 0-2.1 1.7-3.7 3.7-3.7h29.9c2.1 0 3.7 1.7 3.7 3.7s-1.7 3.7-3.7 3.7H88V67l.2.4c0 .1 18.6 41.7 25.5 57.4 1.3 3.1 1.8 5.5 1.8 7.3.1 6.3-6 7.6-6.8 7.8"/></svg>