<svg xmlns:xlink="http://www.w3.org/1999/xlink"  version="1" xmlns="http://www.w3.org/2000/svg" viewBox="0 0 150 150"><path fill="#333" d="M115.3 108.8c0-11.1-11.6-20.1-25.9-20.1-1.6 0-3.1.1-4.6.3-3.3-1.2-7-1.9-10.9-1.9-4.5 0-8.7.9-12.4 2.4-4.6-3.4-10.9-5.5-17.8-5.5-10.2 0-18.9 4.5-23.2 11.1-4.8 3.2-8 7.8-8.8 12.9-1.9 2.4-2.9 5-2.9 7.7 0 12.8 22.8 23.2 50.9 23.2 10.4 0 20.1-1.4 28.2-3.9.9.1 1.9.1 2.9.1 12.9 0 23.4-8.1 23.4-18.1 0-.7-.1-1.4-.2-2 .9-1.9 1.3-4 1.3-6.2z"/><path fill="#4EB751" d="M76.1 30S66 39.1 67.2 53.8c-.2-.3-.5-.5-.8-.7 2.2-10.4-4.9-17.7-4.9-17.7-13-14.2-50.9-14.3-50.9-14.3 3.1 2 23.4 22 23.4 22 17.8 14.4 26.3 14 29.8 12.6-.5 1.1-1.1 2.6-1.4 4.5 0 0-10 13.1-6.3 44.1 0 0-1.1 3.5-2.5 6.2 0 0 .2 4.2 4.2 4.8 0 0 9.1-.1 5.3-6.5 0 0-2.1-3.3-2.1-4.8 0 0-2.2-28.4 6.9-45.2 0 0 .4-1 .4-2.2 1.9 2.3 11.3 9.7 41.8-12 0 0 28.9-25.1 33.1-27.5 0-.2-48.4-5.2-67.1 12.9zM59.8 44.5c-6.9.1-16.5-4.2-16.5-4.2 7.4 2.7 13.3 3.4 15.4 3.2-2.3-1.9-5.2-3.9-9-6.1-3.1 0-7.5-1-10.7-1.9-1.5-.3-2.8-.7-3.9-1.2 0 0 1.6.5 3.9 1.2 3.8.8 8.1 1.2 9.4 1.2-5.1-2.8-11.7-5.7-20.1-8.6 0 0 11.3 3 21.8 8.3.8-2.3-7.5-8-7.5-8 8.3 4.7 8.9 8.5 8.9 8.5H51c3.2 1.7 6.4 3.6 9 5.7-.7-3.1-7.1-10.1-7.1-10.1 6.4 5.8 8.2 10.3 8.6 11.3 2.6 2.4 4.5 4.9 5.2 7.7l-.2 1.6-.1-.1c-.5-1.1-1.8-4.3-6.6-8.5zm47.1-12.2c3.1-.6 5.3-1.1 5.3-1.1-1.5.5-3.3.8-5.3 1.1-4.4.8-10.5 1.7-14.6 1.3-5.4 2.6-9.7 5.2-13 7.6 2.7.6 10.7.5 21-2.5 0 0-13.5 5-22.8 3.8-7.4 5.8-9.5 10.4-10 11.8 0-.1-.1-.1-.1-.2l-.1-2.2c1.4-3.9 4.3-7.4 8.2-10.5.7-1.5 3.7-7.9 13.2-15.4 0 0-9.6 9.2-11 13.7 3.8-2.7 8.3-5 12.9-7.1h-.7s1.5-5.5 13.3-11.2c0 0-12 7.3-11.2 10.7 14.7-6.2 30.4-9.1 30.4-9.1-11.8 3.1-21 6.4-28.4 9.8 1.8 0 7.7.1 12.9-.5z"/></svg>