<svg xmlns="http://www.w3.org/2000/svg" viewBox="0 0 100 100"><path fill="#091117" d="M49.9 6C24.9 6 4.5 26.4 4.5 51.5S24.9 97 50 97s45.5-20.4 45.5-45.5C95.4 26.4 75 6 49.9 6zm8.3 85.5c-.2 0-.4.1-.5.1 2.5-2.8 4.6-7 6.3-12.2 2.6-.6 5.1-1.3 7.5-2.2-3.4 6.7-8 11.7-13.3 14.3zM28.4 77.3c2.4.9 4.9 1.6 7.5 2.2 1.7 5.2 3.8 9.3 6.3 12.2-.2 0-.4-.1-.5-.1-5.3-2.7-9.9-7.7-13.3-14.3zm13.3-65.9c.2 0 .4-.1.5-.1-2.5 2.8-4.6 7-6.3 12.2-2.6.6-5.1 1.3-7.5 2.2 3.4-6.7 8-11.7 13.3-14.3zm29.7 14.3c-2.4-.9-4.9-1.6-7.5-2.2-1.7-5.2-3.8-9.3-6.3-12.2.2 0 .4.1.5.1 5.4 2.6 10 7.6 13.3 14.3zM53.7 92.2c-.9.1-1.8.1-2.7.2V81c3.5-.1 7-.4 10.2-1-1.9 5.8-4.5 10.1-7.5 12.2zM38.5 80c3.3.6 6.7.9 10.2 1v11.4c-.9 0-1.8-.1-2.7-.2-2.8-2.1-5.4-6.4-7.5-12.2zm7.6-69.3c.9-.1 1.8-.1 2.7-.1V22c-3.5.1-7 .4-10.2 1 2-5.9 4.6-10.2 7.5-12.3zm15.2 12.2c-3.3-.6-6.7-.9-10.2-1V10.6c.9 0 1.8.1 2.7.1 2.9 2.1 5.5 6.4 7.5 12.2zm29.5 27.4H79.4c-.1-3.5-.4-7-1-10.2 5.8 2 10.1 4.6 12.2 7.6.1.8.2 1.7.2 2.6zm-13.7 0h-9.3c0-4.6-.4-9-.9-13.1 3.2.6 6.3 1.3 9 2.1.8 3.5 1.2 7.2 1.2 11zm-11.5 0H51.1V35.8c4.7.1 9.3.4 13.5 1 .6 4.3.9 8.8 1 13.5zM51.1 33.5v-9.3c3.8 0 7.5.5 11 1.1.8 2.8 1.5 5.8 2.1 9.1-4.1-.5-8.5-.8-13.1-.9zm-2.3-9.2v9.3c-4.6 0-9 .4-13.1.9.5-3.3 1.3-6.3 2.1-9.1 3.5-.7 7.2-1.1 11-1.1zm0 11.5v14.5H34.3c0-4.7.4-9.3 1-13.5 4.2-.6 8.8-.9 13.5-1zM32 50.3h-9.3c.1-3.8.4-7.5 1.1-11 2.8-.8 5.8-1.5 9.1-2.1-.6 4.1-.9 8.5-.9 13.1zm-11.6 0H9c0-.9.1-1.8.2-2.7 2.1-2.9 6.4-5.6 12.2-7.6-.6 3.4-.9 6.8-1 10.3zM9 52.6h11.4c.1 3.5.4 7 1 10.3-5.8-2-10.1-4.6-12.2-7.6-.1-.9-.1-1.8-.2-2.7zm13.7 0H32c0 4.6.4 9 .9 13.1-3.2-.5-6.3-1.2-9.1-2.1-.6-3.5-1-7.2-1.1-11zm11.6 0h14.5v14.5c-4.7-.1-9.3-.4-13.5-1-.6-4.2-1-8.8-1-13.5zm14.5 16.8v9.3c-3.8-.1-7.5-.5-11-1.1-.8-2.8-1.5-5.8-2.1-9 4.1.4 8.5.8 13.1.8zm2.3 9.3v-9.3c4.6 0 9-.4 13.1-.9-.6 3.3-1.3 6.3-2.1 9-3.5.7-7.2 1.1-11 1.2zm0-11.6V52.6h14.5c0 4.7-.4 9.3-1 13.5-4.3.6-8.8 1-13.5 1zm16.8-14.5h9.3c-.1 3.8-.5 7.5-1.2 11.1-2.8.8-5.8 1.5-9 2.1.5-4.2.8-8.6.9-13.2zm11.5 0h11.4c0 .9-.1 1.8-.2 2.7-2 2.9-6.4 5.5-12.2 7.6.6-3.3 1-6.8 1-10.3zm10.7-8.8c-2.8-2.5-7-4.6-12.2-6.3-.6-2.6-1.3-5.1-2.2-7.5 6.6 3.4 11.7 7.9 14.3 13.2 0 .2.1.4.1.6zm-14.7-7.1c-2.7-.8-5.7-1.4-8.8-1.9-.5-3.1-1.1-6.1-1.9-8.8 2.8.7 5.6 1.6 8.1 2.6 1 2.5 1.9 5.2 2.6 8.1zM35.2 26c-.8 2.7-1.4 5.7-1.9 8.8-3.2.5-6.1 1.1-8.8 1.9.7-2.9 1.6-5.6 2.7-8.1 2.4-1 5.1-1.9 8-2.6zM21.9 37.4c-5.2 1.7-9.3 3.8-12.2 6.3 0-.2.1-.4.1-.5 2.6-5.3 7.6-9.9 14.3-13.2-.9 2.3-1.6 4.8-2.2 7.4zM9.8 59.2c2.8 2.5 7 4.6 12.2 6.3.6 2.6 1.3 5.1 2.2 7.5-6.7-3.4-11.7-8-14.3-13.3-.1-.2-.1-.4-.1-.5zm14.6 7c2.7.8 5.7 1.4 8.8 1.9.5 3.2 1.1 6.1 1.9 8.8-2.9-.7-5.6-1.6-8.1-2.6-1-2.5-1.9-5.2-2.6-8.1zM64.7 77c.8-2.7 1.4-5.7 1.9-8.8 3.1-.5 6.1-1.1 8.8-1.9-.7 2.9-1.6 5.6-2.7 8.1-2.4 1-5.2 1.9-8 2.6zm13.2-11.5c5.2-1.7 9.3-3.8 12.2-6.3 0 .2-.1.4-.1.5-2.6 5.3-7.6 9.9-14.3 13.2.9-2.3 1.6-4.8 2.2-7.4zm10-29.3c-3.4-3.7-8-6.9-13.4-9.3-2.4-5.4-5.6-10-9.3-13.4 10.3 4.2 18.5 12.4 22.7 22.7zM34.7 13.5c-3.7 3.4-6.9 7.9-9.3 13.4-5.4 2.4-10 5.6-13.4 9.3 4.1-10.3 12.4-18.5 22.7-22.7zM12 66.7c3.4 3.7 8 6.9 13.4 9.3 2.4 5.4 5.6 10 9.3 13.4C24.4 85.3 16.1 77 12 66.7zm53.2 22.7c3.7-3.4 6.9-8 9.3-13.4 5.4-2.4 10-5.6 13.4-9.3C83.7 77 75.5 85.3 65.2 89.4z"/></svg>