<svg xmlns="http://www.w3.org/2000/svg" viewBox="0 0 100 100"><g fill="#091117"><path d="M28.8 19.1c3.3 1.8 6.6 4.6 7.2 8.5-.1 4-2 7.8-1.7 11.8 0 1.1.7 2 1.3 2.9-2.6-1.1-4.9-3.2-5.8-5.9-1.2-4.3 2-8.4 1.2-12.7-.3-1.7-1.3-3.1-2.2-4.6zM64.8 27.9c1.3-1.3 1.8-3.2 2.4-5 .3 3.8.5 8.3-2.3 11.2-3.9 3-10.3 3.6-12.1 8.8-.2-2.9-.4-6.2 1.5-8.6 2.8-3.2 7.7-3.3 10.5-6.4zM2.1 37.3c3.8-.4 8.5 0 11.1 3.2 1.9 3.3 2.6 7.3 5 10.3.7.9 1.8 1.3 2.8 1.7-3 .6-6.4.1-8.7-2C9.4 47.6 9.5 43 6.8 40c-1.2-1.4-3.1-2-4.7-2.7zM86.7 45.1c1.7-.6 2.9-1.9 4-3.3-1.1 3.8-3.4 7.8-7.4 9-4.7.6-10.3-1.5-14.4 1.8.9-2.8 2.6-5.6 5.4-6.8 4-1.3 8.4.9 12.4-.7zM26.9 49.9c6.7-5.6 16.2-7.7 24.7-5.3 7.2 1.9 13.6 7 17 13.6 3.7 6.9 4.3 15.5 1.3 22.8 1-7.3-.8-15-5.4-20.9-6.1-8.2-17.2-12.3-27.2-10.1-8.7 1.7-16.3 8-19.7 16.3.6-6.5 4.4-12.3 9.3-16.4zM74.2 68.9c2-2.4 4.6-4.8 7.9-4.7 3.9.2 7 3.1 10.8 3.4 2 .1 3.9-.7 5.6-1.7-2.3 3-5.6 5.9-9.6 6-4.9-.7-9.5-5.1-14.7-3z"/></g></svg>