<svg xmlns="http://www.w3.org/2000/svg" viewBox="0 0 100 100"><path fill="#091117" d="M84.7 25.7c-1.6-.8-3.3-.7-5.2-.7H21c-1.9 0-3.6-.1-5.2.7-3.9 1.9-6.5 5.6-6.6 10.2 0 4.7 2.6 8.6 6.6 10.6 1.6.8 3.3 1.1 5.2 1.2.4 0 .8-.1 1.2-.1 2.4-.2 5.2-1.2 7-2.7 1.4-1.2.8-2.7 3.8-4.4v39.2l-.1 1.5H38v-42h6v42h11V39h6v42h5.3s-.3-1.6-.3-1.5V40.3c3 1.7 3.2 3.2 4.6 4.4 1.8 1.5 5.3 2.5 7.7 2.7.4 0 .8.1 1.3.1 1.9 0 3.7-.4 5.2-1.1 3.9-2 6.6-5.9 6.6-10.6-.2-4.5-2.8-8.2-6.7-10.1zm-5.5 15c-.3 0-1.1-.1-1.4-.1-1.4-.3-3.8-1.2-3.8-2.7V33H25v4.8c0 1.4-1.7 2.4-3.1 2.7-.3.1-.5.1-.9.1-2.8.1-5.1-2.5-5.1-5.3 0-2.7 2.3-5.4 5-5.4H79.4c2.7 0 4.9 2.6 4.9 5.4.1 2.9-2.3 5.4-5.1 5.4z"/></svg>