<svg xmlns="http://www.w3.org/2000/svg" viewBox="0 0 100 100"><path fill="#091117" d="M92.3 35.4c-2 0-3.6 1.7-3.6 3.7 0 1 .4 2 1.1 2.7-4 4-11.5 11.1-14.5 9.7-2.7-1.2-3.3-6.5-3.4-10.3h.1c2 0 3.6-1.7 3.6-3.7 0-2.1-1.6-3.7-3.6-3.7s-3.6 1.7-3.6 3.7c0 1.6 1 3 2.4 3.5-1.6 3.7-5 8.7-11.2 5.9-4.8-2.1-6.9-11.2-7.9-17.7 1.7-.3 2.9-1.9 2.9-3.7 0-2.1-1.6-3.7-3.6-3.7s-3.6 1.7-3.6 3.7c0 1.8 1.3 3.4 2.9 3.7-.9 6.5-3.1 15.5-7.8 17.7-6.2 2.8-9.6-2.2-11.2-5.9 1.4-.5 2.4-1.9 2.4-3.5 0-2.1-1.6-3.7-3.6-3.7s-3.6 1.7-3.6 3.7c0 2.1 1.6 3.7 3.6 3.7-.1 3.7-.7 9.1-3.4 10.3-3 1.3-10.5-5.7-14.5-9.7.7-.7 1.1-1.6 1.1-2.7 0-2.1-1.6-3.7-3.6-3.7s-3.6 1.7-3.6 3.7c0 2.1 1.6 3.7 3.6 3.7.6 0 1.1-.1 1.6-.4C14.5 49.6 21.7 66.3 21 73c0 0-1.8 2.1 0 3.5s30 1 30 1 28.2.3 30-1c1.8-1.4 0-3.5 0-3.5-.7-6.8 6.5-23.5 9.7-30.6.5.2 1 .4 1.6.4 2 0 3.6-1.7 3.6-3.7s-1.6-3.7-3.6-3.7z"/></svg>