<svg xmlns="http://www.w3.org/2000/svg" viewBox="0 0 100 100"><g fill="#091117"><path d="M42.4 95H78v-3.6c-4-4.2-10.3-6.3-16.8-6.2-7.7.1-14.4 1.8-18.8 9.8z"/><path d="M90.2 41.6c0-18.3-4.1-26-18.4-33.9-.4-.2-7.3-3.2-14.8-3.2-1.3 0-2.6.1-3.9.2-8.7.6-17.4 4.3-23.7 10-4.8 4.3-9.9 11.6-10.1 18.9 0 1 .2 2 .5 2.9.5 1.6 1 3.4.4 5.9-.5 2.1-2.2 3.7-3.8 5.1-.5.4-.9.8-1.2 1.2l-.9.9c-1.3 1.2-3 2.7-2.9 4.2 0 1 .6 1.3 2.1 2 1.2.5 2.7 1.1 3.4 2.7.8 1.9.2 3.3-.3 4.4-.4.8-.7 1.7-.7 2.9.9.7 2.6.9 4.3 1.1.7.1 1.5.2 2.2.3h.2l-.1 2.3h-.2c-1 .5-2.2.5-3.3.4h-.1c-.5 0-.9-.1-1.4 0-.6 0-1.4.1-1.7.4-.3.6-.2.9 1.1 2.2.9.8 1.7 1.6 1.9 2.8.2 1.1.1 2.1 0 3.2-.2 2.2-.2 3.4 1.1 4.1 1 .6 2.5.9 4.7.8 1.3 0 2.7-.1 4.1-.2 1.4-.1 2.9-.2 4.2-.2 1.9 0 3.4.2 4.5.6 1.6.6 3.3 2.5 4.7 5.2 4.9-4.7 11.5-7.6 18.8-7.7 6.4-.1 11.9 2 16.9 5.5v-15c7.2-5.2 12.4-16.7 12.4-30z"/></g></svg>