<svg xmlns:xlink="http://www.w3.org/1999/xlink"  xmlns="http://www.w3.org/2000/svg" viewBox="0 0 150 150"><path fill="none" d="M116.1 30.5L101 19.4 119.6 51 95.1 23.4l5.9 18.1-10.9-15.3L98 62 83.2 28.2l.1 19-5.8-17.9L74 65.8l-3.6-36.7-5.8 18.1.1-18.8-14.6 33.7L58 26 46.9 41.5l5.9-17.9-24.3 27.5 18.6-31.9-15.3 11.3 9.8-13.4H26v112.5h28.1v-28.3H43.6L54.1 92V80.7h12.7l23.1-20.5 33.9 30V17.1h-17.4z"/><path fill="#5B61AA" d="M13.3 6.4v136.1H77L137.5 82V6.4H13.3zm89.8 96h-6v-8.8h6v8.8zm-6.7 0h-5.8v-8.8h5.8v8.8zm-9.1 0h-5.9v-8.8h5.9v8.8zm-6.6 0h-5.9v-8.8h5.9v8.8zm-5.9 8.9v-8.2h5.9v8.2h-5.9zm6.6 0v-8.2h5.9v8.2h-5.9zm9.1-8.2h5.8v8.2h-5.8v-8.2zm6.6 8.2v-8.2h6v8.2h-6zm26.7-21.1l-33.9-30-23.1 20.5H54.1V92l-10.5 9.3h10.5V129.7H26V17.1h15.5l-9.8 13.4 15.4-11.2-18.6 31.8 24.3-27.5-5.9 17.9L58 26l-7.9 36.1 14.6-33.6-.1 18.8 5.8-18.1L74 65.8l3.5-36.5 5.8 17.9-.1-19L98 62l-8-35.8 11 15.3-5.9-18.1L119.6 51 101 19.4l15.2 11.1-9.8-13.4h17.4v73.1z"/><path fill="#C9D7C7" d="M137.5 142.6V90l-52.6 52.6z"/></svg>