<svg xmlns:xlink="http://www.w3.org/1999/xlink"  xmlns="http://www.w3.org/2000/svg" viewBox="0 0 150 150"><g fill="#231F20"><path d="M135.7 111.7V97l-8.7-6.4h-5.6V69.8h-7.1v-7.3h-12v7.3h-7.1v20.8h-5.9V50.8h-7.1v-7.2h-12v7.2h-7.1v39.8h-6.9V69.8h-7.1v-7.3h-12v7.3h-7.2v20.8h-5.5L15.7 97v14.7h-5.5V38.4h129.4v73.3z"/><path d="M143 36.8V35H6.8v80.1H19V98.3l6.6-4.8h7.6V72.7h7.1v-7.3h5.4v7.3h7.1v20.8h13.4V53.7h7.1v-7.3h5.4v7.3H86v39.8H98.4V72.7h7.1v-7.3h5.4v7.3h7.1v20.8h7.6l6.6 4.8V115.2H142.9v-1.8l.1-76.6zm-1.8 76.5h-7.1V97.8l-7.6-5.6h-6.6V71.4h-7.1v-7.3H104v7.3h-7.1v20.8h-9V52.4h-7.1v-7.3H72v7.3h-7.1v39.8H54.6V71.4h-7.1v-7.3h-8.8v7.3h-7.1v20.8H25l-7.6 5.6v15.6H8.6V36.8h132.6v76.5z"/><path d="M143 36.8V35H6.8v80.1H19V98.3l6.6-4.8h7.6V72.7h7.1v-7.3h5.4v7.3h7.1v20.8h13.4V53.7h7.1v-7.3h5.4v7.3H86v39.8H98.4V72.7h7.1v-7.3h5.4v7.3h7.1v20.8h7.6l6.6 4.8V115.2H142.9v-1.8l.1-76.6zm-1.8 76.5h-7.1V97.8l-7.6-5.6h-6.6V71.4h-7.1v-7.3H104v7.3h-7.1v20.8h-9V52.4h-7.1v-7.3H72v7.3h-7.1v39.8H54.6V71.4h-7.1v-7.3h-8.8v7.3h-7.1v20.8H25l-7.6 5.6v15.6H8.6V36.8h132.6v76.5z"/></g></svg>