<svg xmlns:xlink="http://www.w3.org/1999/xlink"  xmlns="http://www.w3.org/2000/svg" viewBox="0 0 150 150"><path fill="none" d="M45.1 110.2l30.3 30.3 32.2-32.2c-18.5-6-44.6-5-62.5 1.9z"/><path fill="#2FAC90" d="M94.7 74.9l14.2 14.6h.1V104c0 .3 1.2.6 1.9 1 .1-.1.1-.2.1-.3V87l-3-3.1v-8.3l.4-1-5 .2.6.8V80l-9.4-9.9-8.6 9.1V84l8.7-9.1z"/><path fill="#2FAC90" d="M94 82h2v3h-2z"/><path fill="#E77225" d="M44 106h.7c.7-1 1.3-1 2.3-1.5v-41l4.2-1.5.3 40.4c.9-.4 1.9-.7 3-1.1l-.3-43.6-7.2 2.6v-9.2l14-10.6v59.3c1-.2 2-.3 3-.4V23.9L83 9.3v54l-8 4.8V99c1 0 2-.1 3-.1v-29l5-2.8V99c1 0 2 .1 3 .1v-96L61 22.3v14.3L44 49.5V106z"/><path fill="#2E307B" d="M93 99.7c2 .3 3 .6 5 1V92h-5v7.7zM111.1 105c1.5.8 3 1.6 4.3 2.5 8.5-9.7 13.1-21.9 13.1-34.9 0-14.2-5.5-27.5-15.6-37.5-.4-.4-.9-.8-1.3-1.2-.2-.2-.4-.4-.6-.5-4.2-3.8-8.8-6.9-13.9-9.2-2.4-1.1-5.1-1.9-7.1-2.6V27c1 .6 3.3 1.2 5 2 4.6 2.1 8.8 4.9 12.6 8.3l.6.6c.4.3.7.6 1 1 9.1 9.1 14 21.1 14 33.9 0 11.9-4.3 23.2-12.3 32l-.3.3c.3-.1.4-.1.5-.1zM38.1 110.5c1.3-1.1 2.8-2 4.4-3l-1-1c-9.1-9.1-14-21.1-14-33.9 0-12.8 5-24.8 14-33.9.5-.5 1.1-1.1 1.8-1.6l.5-.5c3.8-3.4 8.1-6.1 12.6-8C57.9 28 59 27.5 61 27v-5.4c-2 .6-4.5 1.4-6.7 2.4-5.1 2.2-9.8 5.2-14 8.9l-.5.4c-.7.6-1.4 1.2-2 1.9-10 10-15.6 23.4-15.6 37.5 0 14.2 5.5 27.5 15.6 37.6l.3.2zM114.1 109l.2-.2c-.6-.3-1.2-.5-1.8-.8-1-.6-2-1.1-3.1-1.6-6.7-3.1-15-4.9-23.7-5.4-.8-.1-1.7-.1-2.5-.1-14.2-.5-29.1 2.2-39.6 7.7-1.6.8-3.1 1.8-4.4 2.7 0 0-.1 0-.1.1-2.1 1.5-4 3.2-5.5 5 1.9-1.5 4.1-2.8 6.5-4l35.4 35.4 37.5-37.5c3 1.3 5.7 2.9 8 4.6-1.9-2.2-4.2-4.2-6.9-5.9zm-38.7 31.4l-30.3-30.3c17.9-6.9 44-7.8 62.4-1.9l-32.1 32.2z"/></svg>