<svg xmlns:xlink="http://www.w3.org/1999/xlink"  xmlns="http://www.w3.org/2000/svg" viewBox="0 0 150 150"><path fill="none" d="M125.1 87.1c.3.1.5.1.8.2v-.1c-.3 0-.5 0-.8-.1zM77.3 39.4H87v9.8h-9.7v-9.8zm0 12.6H87v9.7h-9.7V52zM64.6 39.4h9.7v9.8h-9.7v-9.8zm0 12.6h9.7v9.7h-9.7V52zM56.6 105.4c-.1 6.9 1.9 13.3 5.5 18.1 3.4 4.5 7.7 6.9 12.3 7l.1 2v-2c9.8 0 18.2-11.4 18.3-24.8 0-.8 0-1.5-.1-2.3l-35.9-1.7c-.1 1.1-.2 2.4-.2 3.7zM77.6 92.6c.1.8-.2 1.2-.4 1.5-.3.4-.9.6-1.4.6-.8 0-1.7-.5-2-1.4-.4-.3-.6-.8-.7-1.4-.2-1.7-.3-3.6-.2-5.5 0-1.9.1-3.8.5-5.8-7.1 1-13.3 7.9-15.6 17.1l34.7 1.7c-1.7-9.2-7.2-16.5-14-18.4-1.3 3.9-1.3 8-.9 11.6z"/><path fill-rule="evenodd" clip-rule="evenodd" fill="#BE202C" d="M64.6 39.4h9.7v9.8h-9.7zM77.3 52H87v9.7h-9.7zM64.6 52h9.7v9.7h-9.7zM77.3 39.4H87v9.8h-9.7z"/><path fill="#00517B" d="M97.9 100.5c-1.5-11.7-8.6-20.9-18.1-23.3-.6 1.2-1.1 2.5-1.5 3.8 6.8 1.9 12.3 9.2 14 18.4l-34.7-1.7c2.3-9.1 8.5-16.1 15.6-17.1.2-1.3.6-2.7 1-4-10.8.5-19.6 9.4-22.2 21.7-.3.3-.5.7-.6 1.1 0 .3.1.6.2.9-.3 1.7-.4 3.4-.4 5.1-.1 7.5 2.1 14.6 6.2 20 4.4 5.7 10.4 8.9 16.9 9h.1c13.1 0 23.5-12.6 23.7-28.7 0-1.2 0-2.3-.1-3.4.1-.2.2-.4.2-.6.1-.5-.1-.9-.3-1.2zm-23.4 29.9v2-2c-4.6 0-9-2.5-12.4-7-3.6-4.8-5.6-11.2-5.5-18.1 0-1.3.1-2.5.3-3.8l35.9 1.7c0 .8.1 1.5.1 2.3-.3 13.5-8.6 24.9-18.4 24.9z"/><path fill="#00517B" d="M135.3 59L88 11.6c-3.5-3.5-8.2-5.4-13.1-5.4s-9.6 1.9-13.1 5.4L58 15.5c-2.7-2.3-6.2-3.5-9.9-3.5h-7.5C32.2 12 25 18.7 25 27.2v20.9L14.3 59c-3.5 3.5-5.4 8.2-5.4 13.1 0 5 2 9.6 5.5 13.1l.4.5 1.2.5V124c0 10.3 8.6 19 19 19h79.7c10.3 0 18.3-8.7 18.3-19V91.4c-1 .6-2.9.9-4.7.9-.8 0-1.3-.1-2.3-.2V124c0 6.2-5.1 11-11.3 11H35c-6.2 0-11-4.8-11-11V81.2l-4.6-1.9c-1.8-2-2.8-4.6-2.8-7.3 0-2.9 1.2-5.7 3.3-7.8l13.1-13v-24c0-4.3 3.3-8.2 7.7-8.2h7.5c2.7 0 5.1 1.5 6.6 3.7l2.5 3.9 9.8-9.7c2.1-2.1 4.8-3.2 7.8-3.2 2.9 0 5.7 1.2 7.8 3.2L130 64.3c2.1 2.1 3.2 4.8 3.2 7.8 0 2.7-.9 5.3-2.7 7.3l-4.5 1.9v.1s-.4.1-.6.1c-4.3 0-9.5-4.6-14.5-9.1-4.6-4.1-8.9-8-12.6-8.5-8.2-1.1-14.8.7-19.6 5.4-2.1 2.1-3.5 4.6-4.5 7.4-.4 1.3-.8 2.6-1 4-.3 1.9-.5 3.9-.5 5.8s.1 3.8.2 5.5c.1.6.3 1.2.7 1.5.4.9 1.2 1.5 2 1.5.6 0 1.1-.3 1.4-.7.2-.3.5-.8.4-1.6-.4-3.6-.4-7.8.7-11.7.4-1.3.9-2.6 1.5-3.8 1.3-2.5 3.2-4.7 6-6.2 2.4-1.4 5-2 7.7-2 4.4 0 8.8 1.8 12.6 5.1.8.7 1.8 1.6 2.8 2.6 2.7 2.5 5.9 5.5 9.3 7.7 2.3 1.5 4.8 2.6 7.1 2.9h.9v.1c1 .1 1.4.2 2 .2 2.8 0 5.1-1.1 7.1-3.2.5-.5 1-.8 1.7-.8 2.5-3.2 3.9-7.2 3.9-11.4.1-5.1-1.9-9.7-5.4-13.2z"/></svg>