<svg xmlns:xlink="http://www.w3.org/1999/xlink"  xmlns="http://www.w3.org/2000/svg" viewBox="0 0 150 150"><path fill="#007EBF" d="M18.4 31.1v51.7l6.6-7 9.9 11.6V66.8l6.6-4.5V51.4h10.9v3.5L63 47.7l30.6 19V93l10-15.1 11.1 16L125.5 80l7.1 7.7V31.1z"/><path d="M140.6 23.1H10.4v80.2l14.3-15.5L43 109.2V71.1l20.2-13.8 22.4 13.9v48.6l18.2-27.5 10.6 15.3 11.7-15.1 14.6 15.7-.1-85.1zM125.5 80l-10.8 13.9-11.1-16.1-10 15.2V66.7L63 47.7l-10.6 7.2v-3.4H41.5v10.8l-6.6 4.5v20.6L25 75.8l-6.6 7.1V31.1h114.1l.1 56.5-7.1-7.6z"/><path d="M54.6 76.2h7.6v7.7h-7.6zM65.7 76.2h7.6v7.7h-7.6zM54.6 87.4h7.6V95h-7.6zM65.7 87.4h7.6V95h-7.6z"/></svg>