<svg xmlns:xlink="http://www.w3.org/1999/xlink"  xmlns="http://www.w3.org/2000/svg" viewBox="0 0 150 150"><path fill="#0099DB" d="M128.6 89.1c-6.3 23.7-27.6 41.2-53.3 41.2-24.8 0-45.4-16.4-52.4-38.8l12 7.9L27 85.8l-7.9-13.6-7.9 13.6-7.7 13.6 11.7-7.7c7.3 26.4 31.3 45.9 60.1 45.9 29.7 0 54.5-20.7 60.9-48.5h-7.6zm-109.3 0zM22.1 61.5c6.3-23.7 27.6-41.2 53.3-41.2 24.8 0 45.4 16.4 52.4 38.8l-12-7.9 7.9 13.6 7.9 13.6 7.9-13.6 7.9-13.6-11.7 7.7C128.2 32.5 104.2 13 75.4 13c-29.7 0-54.5 20.7-60.9 48.5h7.6zm109.4 0z"/><path fill="#0073BA" d="M46.4 46.7v25.1c8.4 0 16.8 0 25.2-.1v-25c-8.4-.1-16.9-.1-25.2 0z"/><path fill="#99C1E2" d="M103.3 46.7c-8.4-.1-16.7 0-25.1 0 0 8.4 0 16.8.1 25.1h25c.1-8.4.1-16.8 0-25.1z"/><path fill="#0073BA" d="M78.3 78.3c-.1 8.4-.1 16.7-.1 25.1 8.4.2 16.9.3 25.3-.1-.1-8.3-.1-16.6-.2-25-8.3.1-16.6.1-25 0z"/><path fill="#99C1E2" d="M46.4 103.6c8.4 0 16.8.1 25.2-.2v-25c-8.4-.1-16.8 0-25.1 0-.2 8.4-.2 16.7-.1 25.2z"/></svg>