<svg xmlns:xlink="http://www.w3.org/1999/xlink"  xmlns="http://www.w3.org/2000/svg" viewBox="0 0 150 150"><path fill="#9F5479" d="M122.2 87.5c-2-2-4.1-4-6.2-6-2.1-2-4.2-3.9-6.3-5.9l-3.2-2.9-3.2-2.9c-2.1-1.9-4.3-3.8-6.4-5.7-2.1-1.9-4.3-3.7-6.5-5.6-2.2-1.9-4.4-3.7-6.5-5.5l-6.6-5.5-2-1.7-2 1.7-6.6 5.5c-2.2 1.8-4.4 3.7-6.5 5.5-2.2 1.9-4.3 3.7-6.5 5.6-2.2 1.9-4.3 3.8-6.4 5.7-2.1 1.9-4.2 3.8-6.4 5.8-2.1 1.9-4.2 3.9-6.3 5.8-2.1 2-4.1 4-6.2 6l-3.1 3c-1 1-2 2-3 3.1 1.2-.8 2.4-1.6 3.6-2.3l3.6-2.4c2.4-1.6 4.7-3.3 7.1-4.9 2.3-1.7 4.7-3.3 7-5l6.9-5.1c2.3-1.7 4.6-3.5 6.8-5.2 2.3-1.7 4.5-3.5 6.8-5.3 2.2-1.8 4.5-3.6 6.7-5.3l4.6-3.8L80 58c2.2 1.8 4.5 3.6 6.7 5.3 2.2 1.8 4.5 3.5 6.8 5.3 2.3 1.8 4.5 3.5 6.8 5.2l3.4 2.6 3.5 2.5c2.3 1.7 4.6 3.4 7 5 2.3 1.6 4.7 3.3 7.1 4.9l3.6 2.4 3.6 2.4c-1-1-2-2.1-3-3.1l-3.3-3z"/><path fill="#0080C5" d="M107.3 82.6v21.9c0 5.4-3.3 8.5-5.5 8.5h-54c-2.2 0-5.5-3.1-5.5-8.5V83.4c-1.9 1.4-3.8 2.7-5.7 4.1-.5.3-1 .7-1.5 1v16c0 7.9 4.8 15.4 12.6 15.6h54c7.8-.2 12.6-7.7 12.7-15.6V87.8c-.1-.1-.3-.2-.4-.3-2.2-1.6-4.4-3.2-6.7-4.9z"/><path fill="#0080C5" d="M139.9 89.7l-4-3.8c-1.3-1.3-2.7-2.5-4.1-3.8l-4.1-3.8c-2.7-2.5-5.5-5-8.2-7.4l-4.1-3.7-4.2-3.7c-2.8-2.4-5.6-4.9-8.4-7.3L94.4 49l-8.5-7.1-8.5-7.1-2-1.7-2 1.7-8.5 7.1-8.6 7.1-8.4 7.2c-2.8 2.4-5.6 4.8-8.4 7.3-2.8 2.4-5.5 4.9-8.3 7.3-2.8 2.5-5.5 5-8.2 7.4L18.9 82c-1.4 1.3-2.7 2.5-4.1 3.8l-4 3.8c-1.3 1.3-2.7 2.6-4 3.9 1.6-1 3.1-2.1 4.6-3.2l4.5-3.2 4.5-3.3 4.5-3.3c3-2.2 5.9-4.4 8.9-6.6 3-2.2 5.9-4.5 8.8-6.7 2.9-2.3 5.8-4.5 8.8-6.8l8.7-6.9 8.6-6.9 6.6-5.4 6.6 5.3 8.6 6.9 8.7 6.9c2.9 2.3 5.8 4.5 8.8 6.8l4.4 3.4 4.4 3.3c2.9 2.2 5.9 4.4 8.9 6.6l4.5 3.3c1.5 1.1 3 2.2 4.5 3.2l4.5 3.2c1.5 1 3 2.1 4.6 3.2-1.2-1-2.6-2.3-3.9-3.6z"/><g fill="#0080C5"><path d="M63.8 71.6h8.4V80h-8.4zM78.5 71.6h8.4V80h-8.4zM63.8 86.4h8.4v8.4h-8.4zM78.5 86.4h8.4v8.4h-8.4z"/></g></svg>