<svg xmlns:xlink="http://www.w3.org/1999/xlink"  xmlns="http://www.w3.org/2000/svg" width="100" height="100" viewBox="0 0 100 100"><path fill="#808184" d="M52.613 61.533l-9.884-11.7V11.087H62.23v38.746z"/><path fill="#1B75BB" d="M32.894 58.672l-7.13-8.446V22.267h14.072v27.959zM72.252 58.672l-7.125-8.446V22.267h14.072v27.959z"/><path fill="#58595B" d="M52.5 91.686l5.285-5.047h-10.61z"/><path fill="#1B75BB" d="M53.256 65.117l-27.492-.172L46.74 84.838h11.619l20.84-19.893z"/><g fill="#808184"><path d="M38.623 53.508h2.297v2.295h-2.297zM41.237 53.508h2.292v2.295h-2.292zM38.623 56.377h2.297v2.295h-2.297zM41.237 56.377h2.292v2.295h-2.292z"/><g><path d="M61.435 53.508h2.292v2.295h-2.292zM64.045 53.508h2.297v2.295h-2.297zM61.435 56.377h2.292v2.295h-2.292zM64.045 56.377h2.297v2.295h-2.297z"/></g></g></svg>