<svg xmlns:xlink="http://www.w3.org/1999/xlink"  xmlns="http://www.w3.org/2000/svg" viewBox="0 0 150 150"><path fill="#C5424B" d="M46.2 101.4c0-8.2.2-21.6 0-32.1-3.5 0-6.9.1-10.4-.1 3.5-3.1 7.4-5.7 11.1-8.6 9.4-7.2 18.9-14.3 28.3-21.5 9.4 7.2 18.9 14.3 28.3 21.5 3.7 2.9 7.6 5.5 11.1 8.6-3.4.1-6.9.1-10.4.1-.1 10.5 0 23.9 0 32.1 3.6.6 7.1 1.4 10.6 2.2V69.2c4.5-.1 9 0 13.5-.1-3.6-3.1-7.4-5.9-11.1-8.8-14-10.9-27.9-21.9-42-32.8l-.1.1-.1-.1C61 38.4 47 49.4 33 60.3c-3.7 3-7.5 5.8-11.1 8.8 4.5.1 9 0 13.5.1v34.4c3.8-.8 7.3-1.5 10.8-2.2z"/><path fill="#7CC261" d="M5.4 118c1 2.2 138.8 2.2 139.7 0-44.3-20-95.2-20-139.7 0z"/><g><path fill="#FFD800" d="M100.7 69H81.3l-6-18.4-6 18.4H50l15.7 11.4-6 18.4 15.7-11.4L91 98.8l-6-18.4L100.7 69zM74.9 84.8h-5.7v-5.7h5.7v5.7zm0-6.8h-5.7v-5.7h5.7V78zm7.1 6.8h-5.7v-5.7H82v5.7zm0-6.8h-5.7v-5.7H82V78z"/></g></svg>