<svg xmlns:xlink="http://www.w3.org/1999/xlink"  xmlns="http://www.w3.org/2000/svg" viewBox="0 0 150 150"><path d="M128.8 15.9L22.7 16c-9.2 0-17.2 6.4-17.3 15.2v90.2c.1 8.8 8.2 15.2 17.3 15.2h5.7v-6.9h-5.7c-6.2 0-10.4-4.2-10.4-8.3V31.2c0-4.1 4.3-8.3 10.4-8.3h106.2c6.1 0 10.4 4.2 10.4 8.3v90.2c0 4.1-4.3 8.3-10.4 8.3h-5.7v6.9h5.7c9.1 0 17.2-6.4 17.3-15.2V31.2c-.2-8.9-8.2-15.2-17.4-15.3z"/><path fill="#231F20" d="M112.5 136.8H77.1V79.9l28.3-28.3 30.2 37.3-23.2 23.4v24.5zM86.9 127h15.7v-18.7l19.9-20-17.9-22-17.7 17.6V127z"/><path fill="#1B75BB" d="M39.5 112.5L16.3 89.1l30.3-37.3L74.9 80v56.9H39.5v-24.4zm25.6-28.4L47.4 66.4l-17.9 22 19.9 20v18.7h15.7v-43z"/><path fill="#231F20" d="M97.2 79.1h5.1v5.2h-5.1zM97.2 87.4h5.1v5.4h-5.1zM105.4 79.1h5.5v5.2h-5.5zM105.4 87.4h5.5v5.4h-5.5z"/><path fill="#1B75BB" d="M43.1 79.1h5.1v5.2h-5.1zM43.1 87.4h5.1v5.4h-5.1zM51.4 79.1h5.5v5.2h-5.5zM51.4 87.4h5.5v5.4h-5.5z"/><path fill="#231F20" d="M68.9 49.3H74v5.2h-5.1zM68.9 57.6H74V63h-5.1zM77.2 49.3h5.5v5.2h-5.5zM77.2 57.6h5.5V63h-5.5z"/><path fill="#1B75BB" d="M75.2 37L55.5 57.3l-5.2-5 24.9-25.6 26 26.3-5.1 5.1L75.2 37z"/></svg>