<svg xmlns:xlink="http://www.w3.org/1999/xlink"  xmlns="http://www.w3.org/2000/svg" viewBox="0 0 1500 1500"><path fill="#00937F" d="M755.8 88.4L560.9 227H614v157h286V227h50.5L755.8 88.4zM700 227h57v43h-57v-43zm0 100v-43h57v43h-57zm114 0h-43v-43h43v43zm0-57h-43v-43h43v43z"/><path fill="#FFF" d="M700 227h57v43h-57zM771 227h43v43h-43zM700 284h57v43h-57zM771 284h43v43h-43z"/><path fill="#00937F" d="M755.7 1425.6L950.5 1287H900v-157H614v157h-53.1l194.8 138.6zM814 1287h-57v-43h57v43zm0-100v43h-57v-43h57zm-114 0h43v43h-43v-43zm0 57h43v43h-43v-43z"/><path fill="#FFF" d="M757 1244h57v43h-57zM700 1244h43v43h-43zM757 1187h57v43h-57zM700 1187h43v43h-43z"/><g><path fill="#00937F" d="M277.6 286l-39.7 235.8 37.3-37.3L386.6 596l202.7-202.7-111.4-111.5 35.5-35.5L277.6 286zM336 423.7l40.5-40.5 30.4 30.4-40.5 40.5-30.4-30.4zm70.9 71l-30.4-30.4 40.5-40.5 30.4 30.4-40.5 40.5zm81.1-81.1L457.6 444l-30.4-30.4 30.4-30.4 30.4 30.4zM447.5 373l-30.4 30.4-30.5-30.4 30.4-30.4 30.5 30.4z"/><path fill="#FFF" d="M376.46 383.15l30.405 30.405-40.517 40.517-30.405-30.405zM417.011 403.42l-30.405-30.406 30.405-30.406 30.405 30.406zM376.506 464.278l40.517-40.517 30.405 30.406-40.517 40.517zM457.628 443.961l-30.405-30.405 30.405-30.406 30.406 30.406z"/></g><g><path fill="#00937F" d="M511.3 1267.7l-37.3-37.3 111.5-111.5-202.7-202.7-111.5 111.5-35.5-35.5 39.7 235.8 235.8 39.7zm-148.8-209.6l40.5 40.5-30.4 30.4-40.5-40.5 30.4-30.4zm81.1 0l-30.4 30.4-40.5-40.5 30.4-30.4 40.5 40.5zm10.1 71l-30.4-30.4 30.4-30.4 30.4 30.4-30.4 30.4zm-40.5 40.5l-30.4-30.4 30.4-30.4 30.4 30.4-30.4 30.4z"/><path fill="#FFF" d="M332.095 1088.487l30.405-30.405 40.517 40.517-30.405 30.405zM443.611 1139.216l-30.405 30.406-30.405-30.406 30.405-30.405zM403.123 1017.558l40.517 40.517-30.406 30.405-40.516-40.517zM484.158 1098.604l-30.405 30.405-30.406-30.405 30.406-30.406z"/></g><g><path fill="#00937F" d="M88.4 764.2L227 959v-59h157V614H227v-44.6L88.4 764.2zM227 814v-57h43v57h-43zm100 0h-43v-57h43v57zm0-114v43h-43v-43h43zm-57 0v43h-43v-43h43z"/><path fill="#FFF" d="M227 757h43v57h-43zM227 700h43v43h-43zM284 757h43v57h-43zM284 700h43v43h-43z"/></g><g><path fill="#00937F" d="M995.4 246.3l35.5 35.5-111.5 111.5L1122.2 596l111.5-111.5 37.3 37.3-39.8-235.8-235.8-39.7zm147 207.8l-40.5-40.5 30.4-30.4 40.5 40.5-30.4 30.4zm-81.1 0l30.4-30.4 40.5 40.5-30.4 30.4-40.5-40.5zm-10.1-70.9l30.4 30.4-30.4 30.4-30.4-30.4 30.4-30.4zm40.6-40.6l30.4 30.4-30.4 30.4-30.4-30.4 30.4-30.4z"/><path fill="#FFF" d="M1172.817 423.698l-30.405 30.405-40.517-40.516 30.405-30.406zM1061.357 372.982l30.405-30.405 30.405 30.405-30.405 30.406zM1101.882 494.628l-40.516-40.517 30.405-30.406 40.517 40.517zM1020.81 413.604l30.406-30.405 30.405 30.405-30.405 30.405z"/></g><g><path fill="#00937F" d="M1233.3 1228l39.7-235.8-35.5 35.5L1126 916.2l-202.7 202.7 111.5 111.5-37.3 37.3 235.8-39.7zm-56.6-139.5l-40.5 40.5-30.4-30.4 40.5-40.5 30.4 30.4zm-70.9-70.9l30.4 30.4-40.5 40.5-30.4-30.4 40.5-40.5zm-81.1 81.1l30.4-30.4 30.4 30.4-30.4 30.4-30.4-30.4zm40.5 40.5l30.4-30.4 30.4 30.4-30.4 30.4-30.4-30.4z"/><path fill="#FFF" d="M1136.176 1129.12l-30.405-30.406 40.517-40.517 30.405 30.406zM1095.61 1108.766l30.405 30.406-30.405 30.405-30.406-30.405zM1136.223 1047.991l-40.517 40.517-30.406-30.405 40.517-40.517zM1055.063 1068.286l30.406 30.405-30.406 30.406-30.405-30.406z"/></g><g><path fill="#00937F" d="M1287 569.4V614h-157v286h157v59l138.6-194.8L1287 569.4zM1244 814v-57h43v57h-43zm-57-57h43v57h-43v-57zm43-57v43h-43v-43h43zm57 0v43h-43v-43h43z"/><path fill="#FFF" d="M1244 757h43v57h-43zM1244 700h43v43h-43zM1187 757h43v57h-43zM1187 700h43v43h-43z"/></g></svg>