<svg xmlns:xlink="http://www.w3.org/1999/xlink"  xmlns="http://www.w3.org/2000/svg" viewBox="0 0 150 150"><path fill="#92C84E" d="M124.3 68.8c0-.8.1-1.6.1-2.4 0-19.4-11.2-37.8-34.8-37.8-19.6 0-26.6 11.3-32 23.6-3-2.6-7-4.2-11.3-4.2-9.7 0-17.5 7.9-17.5 17.6 0 1 .1 2 .2 3C16 70.7 5.9 82.2 5.9 96c0 15.3 12.3 27.8 27.6 27.8h9.3V79.5l31.7-30.9 1.7-1.8 1.7 1.8 31.8 30.9v44.3h9c15.2 0 27.6-12.4 27.6-27.8 0-13.4-9.5-24.6-22-27.2z"/><path fill="#92C84E" d="M66.7 85.1h9.5v9.5h-9.5zM78.1 85.1h9.5v9.5h-9.5zM66.7 96.4h9.5v9.5h-9.5zM78.1 96.4h9.5v9.5h-9.5z"/></svg>