<svg xmlns:xlink="http://www.w3.org/1999/xlink"  xmlns="http://www.w3.org/2000/svg" viewBox="0 0 1500 1500"><path fill="#6CAB36" d="M1219.5 368.6L1138 319V172L964 67v147L761.7 86.2 303 361v530.5l418 218.1V1380H494v53h488v-53H790v-263.4l-70.3-14.2 2.8-161.3-282.9-229 282.2 156.5 3.7-171.8L508 467.9l221.3 156.4-7.7-221.7-187-152.3 217.5 106.9 225.2-114.5L785 400.6l1.5 211.9 282.4-156.1-274.8 213.7-3.8 194.6 351.1-167.9-362.5 255.7 7.5 163.3 430.5-228.1z"/><path fill="#FFF" d="M1141.4 696.8L790.3 864.7l3.8-194.6 274.8-213.7-282.4 156.1-1.5-211.9 192.3-157.9-225.2 114.5-217.5-106.9 187 152.3 7.6 221.7-221.3-156.4 217.5 228.9-3.8 171.8-282.4-156.5 282.4 229-3.7 161.3 68.6 14.2-.1-.8-7.5-163.3z"/></svg>