<svg xmlns:xlink="http://www.w3.org/1999/xlink"  xmlns="http://www.w3.org/2000/svg" width="100" height="100" viewBox="0 0 100 100"><path fill="#F6921E" d="M21.324 65.254s62.075-6.447 67.309-2.31c0 0 3.406 2.31.606 4.986 0 0-1.823 3.772-10.586 3.165 0 0-47.105-2.434-57.94-1.703 0 0-2.069 3.772-2.431 5.11 0 0-.427 1.802 1.518 1.923 0 0 2.237 3.355-.413 4.431 0 0-9.271 2.025-9.892-.914 0 0-.831-3.101.83-3.349 0 0 .826-.248.95-3.517 0 0 .044-2.153-.994-4.227 0 0-1.115-3.392 1.784-6.078 0 0 .702-.252 1.031-2.445 0 0 1.864-7.486 5.709-10.385 0 0-.826 5.713-.702 7.491 0 0 0 2.484 1.865 4.43-.001 0 1.016.578 1.356 3.392z"/><g fill="#603813"><path d="M66.469 58.901V36.178L48.642 19.377 30.813 35.901v26.532l6.679-.772-.132-25.176 11.366-11.05 11.883 10.743v23.443z"/><path d="M43.758 40.572h4.459v4.46h-4.459zM49.062 40.572h4.463v4.46h-4.463zM43.758 45.566h4.459v4.467h-4.459zM49.062 45.566h4.463v4.467h-4.463z"/></g></svg>