<svg xmlns:xlink="http://www.w3.org/1999/xlink"  xmlns="http://www.w3.org/2000/svg" width="100" height="100" viewBox="0 0 100 100"><radialGradient id="a" cx="20.54" cy="34.33" r="75.363" gradientUnits="userSpaceOnUse"><stop offset=".012" stop-color="#64a7de"/><stop offset=".087" stop-color="#5c9ad4"/><stop offset=".227" stop-color="#4877b9"/><stop offset=".236" stop-color="#4674b7"/><stop offset="1" stop-color="#171043"/></radialGradient><path fill="url(#a)" d="M45.492 25.859c-17.743 0-32.125 14.383-32.125 32.125 0 17.746 14.383 32.129 32.125 32.129S77.621 75.73 77.621 57.984c0-17.742-14.387-32.125-32.129-32.125zm0 53.659c-11.891 0-21.53-9.643-21.53-21.533 0-11.891 9.639-21.53 21.53-21.53 11.891 0 21.529 9.639 21.529 21.53 0 11.89-9.638 21.533-21.529 21.533z"/><radialGradient id="b" cx="90.238" cy="30.953" r="79.675" gradientUnits="userSpaceOnUse"><stop offset=".121" stop-color="#d7dd3f"/><stop offset=".455" stop-color="#9dc44d"/><stop offset=".746" stop-color="#51924b"/><stop offset="1" stop-color="#1e4324"/></radialGradient><path fill="url(#b)" d="M53.398 30.904l7.232 1.008-24.429 45.5s2.324 1.281 5.855 1.832c4.895.762 8.179-.253 8.179-.253L72.238 36.96l4.539 5.212 3.195-30.276-26.574 19.008z"/><radialGradient id="c" cx="37.542" cy="42.91" r="31.865" gradientUnits="userSpaceOnUse"><stop offset=".121" stop-color="#d7dd3f"/><stop offset=".455" stop-color="#9dc44d"/><stop offset=".746" stop-color="#51924b"/><stop offset="1" stop-color="#1e4324"/></radialGradient><path fill="url(#c)" d="M31.031 44.839h6.029v6.029h-6.029z"/><radialGradient id="d" cx="37.541" cy="42.91" r="31.872" gradientUnits="userSpaceOnUse"><stop offset=".121" stop-color="#d7dd3f"/><stop offset=".455" stop-color="#9dc44d"/><stop offset=".746" stop-color="#51924b"/><stop offset="1" stop-color="#1e4324"/></radialGradient><path fill="url(#d)" d="M38.144 44.839h6.033v6.029h-6.033z"/><radialGradient id="e" cx="37.542" cy="42.911" r="31.867" gradientUnits="userSpaceOnUse"><stop offset=".121" stop-color="#d7dd3f"/><stop offset=".455" stop-color="#9dc44d"/><stop offset=".746" stop-color="#51924b"/><stop offset="1" stop-color="#1e4324"/></radialGradient><path fill="url(#e)" d="M31.031 51.955h6.029v6.029h-6.029z"/><radialGradient id="f" cx="37.541" cy="42.911" r="31.869" gradientUnits="userSpaceOnUse"><stop offset=".121" stop-color="#d7dd3f"/><stop offset=".455" stop-color="#9dc44d"/><stop offset=".746" stop-color="#51924b"/><stop offset="1" stop-color="#1e4324"/></radialGradient><path fill="url(#f)" d="M38.144 51.955h6.033v6.029h-6.033z"/></svg>