<svg xmlns:xlink="http://www.w3.org/1999/xlink"  xmlns="http://www.w3.org/2000/svg" width="100" height="100" viewBox="0 0 100 100"><radialGradient id="a" cx="41.816" cy="-1.56" r="131.566" gradientUnits="userSpaceOnUse"><stop offset="0" stop-color="#00abeb"/><stop offset=".029" stop-color="#22aae7"/><stop offset=".06" stop-color="#3fa8e3"/><stop offset=".091" stop-color="#53a8e0"/><stop offset=".122" stop-color="#60a7df"/><stop offset=".151" stop-color="#64a7de"/><stop offset=".327" stop-color="#4674b7"/><stop offset=".521" stop-color="#333b8b"/><stop offset=".758" stop-color="#211c51"/><stop offset="1" stop-color="#171043"/></radialGradient><path fill="url(#a)" d="M9.5 12.017c25.971-.017 51.936-.017 77.906 0v77.219c-2.537.01-5.065.015-7.594-.003-.019-19.287-.014-38.586-.009-57.872a17708.26 17708.26 0 0 0-47.236 0c.009 5.773.018 11.547 0 17.321-4.528.013-9.054.009-13.587.004-.017 4.753-.013 9.511-.004 14.268-3.157.014-6.319.005-9.476.009V12.017z"/><radialGradient id="b" cx="41.817" cy="-1.563" r="131.626" gradientUnits="userSpaceOnUse"><stop offset="0" stop-color="#00abeb"/><stop offset=".029" stop-color="#22aae7"/><stop offset=".06" stop-color="#3fa8e3"/><stop offset=".091" stop-color="#53a8e0"/><stop offset=".122" stop-color="#60a7df"/><stop offset=".151" stop-color="#64a7de"/><stop offset=".327" stop-color="#4674b7"/><stop offset=".521" stop-color="#333b8b"/><stop offset=".758" stop-color="#211c51"/><stop offset="1" stop-color="#171043"/></radialGradient><path fill="url(#b)" d="M9.5 66.581c3.962-.025 7.92-.021 11.877-.004.018 7.551.018 15.104 0 22.655-2.216.013-4.432.013-6.644 0a2750.86 2750.86 0 0 1 .004-20.109 154.995 154.995 0 0 0-5.193 0c-.017-.849-.03-1.697-.044-2.542z"/><g><radialGradient id="c" cx="42.531" cy="31.002" r="79.785" gradientUnits="userSpaceOnUse"><stop offset="0" stop-color="#919395"/><stop offset=".673" stop-color="#424243"/><stop offset="1" stop-color="#272525"/></radialGradient><path fill="url(#c)" d="M36.456 35.217h29.202c0 18.006.018 36.018-.013 54.028-1.069-.013-2.132-.013-3.193-.018.014-2.443.018-4.89-.018-7.334h-3.311V48.43c-7.549-.009-15.101-.022-22.646.009-.057-4.406-.03-8.812-.021-13.222z"/><g><radialGradient id="d" cx="42.535" cy="31" r="79.789" gradientUnits="userSpaceOnUse"><stop offset="0" stop-color="#919395"/><stop offset=".673" stop-color="#424243"/><stop offset="1" stop-color="#272525"/></radialGradient><path fill="url(#d)" d="M23.119 52.568c6.266-.01 12.544-.049 18.815.021-.022 12.211-.022 24.423 0 36.63-.893.008-1.785.013-2.669.025a514.167 514.167 0 0 1-.018-6.801c-.849-.01-1.693-.015-2.533-.022V62.962H23.118c-.021-3.468-.021-6.929.001-10.394z"/></g></g></svg>