<svg xmlns:xlink="http://www.w3.org/1999/xlink"  xmlns="http://www.w3.org/2000/svg" width="100" height="100" viewBox="0 0 100 100"><path fill="#272525" d="M21.305 31.073c6.652-6.035 13.415-11.942 20.183-17.855 2.713 2.22 5.412 4.493 8.302 6.499.099-.806.284-2.394.377-3.188h3.041c.006 1.954-.078 3.913.119 5.878 1.324 2.186 3.47 3.768 5.174 5.67-.922.719-1.841 1.443-2.773 2.174-4.578-3.994-9.184-7.954-13.751-11.96a756.907 756.907 0 0 0-14.899 13.328c-1.924-.175-3.851-.348-5.773-.546z"/><path fill="#272525" d="M55.874 24.574c1.415-1.304 2.89-2.568 4.354-3.837a209.135 209.135 0 0 0 5.884 4.638l.287-2.099c.531.018 1.598.064 2.14.087-.029 1.362-.05 2.708-.063 4.064 2.119 1.89 4.252 3.78 6.356 5.693-1.305.214-2.626.417-3.934.62-3.386-3.055-6.858-6-10.253-9.055-.826.626-1.648 1.247-2.473 1.878a168.848 168.848 0 0 1-2.298-1.989zM23.38 36.372c15.444-5.212 32.444-4.725 48.001-.197 1.252 14.18-2.38 29.212-11.612 40.279-3.402 4.169-7.739 7.444-12.258 10.302-10.223-5.015-17.073-15.05-20.467-25.664-2.704-7.954-3.359-16.384-3.664-24.72zm2.635 2.597c.267 7.16.756 14.388 2.997 21.252 2.954 9.733 9.177 18.923 18.45 23.577 4.386-2.666 8.548-5.85 11.688-9.941 7.702-9.786 10.58-22.703 9.661-34.964-13.85-4.191-29.004-4.486-42.796.076z"/><g><radialGradient id="a" cx="47.676" cy="52.399" r="30.092" gradientUnits="userSpaceOnUse"><stop offset="0" stop-color="#fff24f"/><stop offset=".035" stop-color="#fbe748"/><stop offset=".114" stop-color="#f4d43b"/><stop offset=".195" stop-color="#f0c933"/><stop offset=".281" stop-color="#efc531"/><stop offset=".668" stop-color="#db8e46"/><stop offset=".888" stop-color="#d16841"/><stop offset="1" stop-color="#c9403c"/></radialGradient><path fill="url(#a)" d="M37.447 23.316h3.177v3.16c-1.066 0-2.122.011-3.177.017v-3.177z"/><radialGradient id="b" cx="47.688" cy="52.43" r="30.125" gradientUnits="userSpaceOnUse"><stop offset="0" stop-color="#fff24f"/><stop offset=".035" stop-color="#fbe748"/><stop offset=".114" stop-color="#f4d43b"/><stop offset=".195" stop-color="#f0c933"/><stop offset=".281" stop-color="#efc531"/><stop offset=".668" stop-color="#db8e46"/><stop offset=".888" stop-color="#d16841"/><stop offset="1" stop-color="#c9403c"/></radialGradient><path fill="url(#b)" d="M42.555 23.316c.786-.012 2.348-.029 3.13-.041.029 1.078.052 2.151.052 3.229-1.066-.012-2.145-.018-3.211-.058.011-.776.02-2.341.029-3.13z"/><radialGradient id="c" cx="47.706" cy="52.434" r="30.116" gradientUnits="userSpaceOnUse"><stop offset="0" stop-color="#fff24f"/><stop offset=".035" stop-color="#fbe748"/><stop offset=".114" stop-color="#f4d43b"/><stop offset=".195" stop-color="#f0c933"/><stop offset=".281" stop-color="#efc531"/><stop offset=".668" stop-color="#db8e46"/><stop offset=".888" stop-color="#d16841"/><stop offset="1" stop-color="#c9403c"/></radialGradient><path fill="url(#c)" d="M61.1 27.514c1.088-1.026 2.479.365 1.473 1.31-1.091 1.026-2.464-.377-1.473-1.31z"/><radialGradient id="d" cx="47.689" cy="52.44" r="30.137" gradientUnits="userSpaceOnUse"><stop offset="0" stop-color="#fff24f"/><stop offset=".035" stop-color="#fbe748"/><stop offset=".114" stop-color="#f4d43b"/><stop offset=".195" stop-color="#f0c933"/><stop offset=".281" stop-color="#efc531"/><stop offset=".668" stop-color="#db8e46"/><stop offset=".888" stop-color="#d16841"/><stop offset="1" stop-color="#c9403c"/></radialGradient><path fill="url(#d)" d="M37.436 31.566c.012-1.142.018-2.29.046-3.42.786 0 2.374.018 3.174.018a449.913 449.913 0 0 1-.079 3.484c-1.049-.03-2.098-.053-3.141-.082z"/><radialGradient id="e" cx="47.688" cy="52.438" r="30.138" gradientUnits="userSpaceOnUse"><stop offset="0" stop-color="#fff24f"/><stop offset=".035" stop-color="#fbe748"/><stop offset=".114" stop-color="#f4d43b"/><stop offset=".195" stop-color="#f0c933"/><stop offset=".281" stop-color="#efc531"/><stop offset=".668" stop-color="#db8e46"/><stop offset=".888" stop-color="#d16841"/><stop offset="1" stop-color="#c9403c"/></radialGradient><path fill="url(#e)" d="M42.526 28.163c.794 0 2.385 0 3.188-.012.014 1.136.014 2.267.023 3.397-1.049.029-2.096.069-3.145.104-.026-1.158-.055-2.324-.066-3.489z"/><radialGradient id="f" cx="47.687" cy="52.448" r="30.143" gradientUnits="userSpaceOnUse"><stop offset="0" stop-color="#fff24f"/><stop offset=".035" stop-color="#fbe748"/><stop offset=".114" stop-color="#f4d43b"/><stop offset=".195" stop-color="#f0c933"/><stop offset=".281" stop-color="#efc531"/><stop offset=".668" stop-color="#db8e46"/><stop offset=".888" stop-color="#d16841"/><stop offset="1" stop-color="#c9403c"/></radialGradient><path fill="url(#f)" d="M58.578 29.908c1.162-1.166 2.789.458 1.621 1.629-1.163 1.171-2.792-.452-1.621-1.629z"/><radialGradient id="g" cx="47.687" cy="52.438" r="30.131" gradientUnits="userSpaceOnUse"><stop offset="0" stop-color="#fff24f"/><stop offset=".035" stop-color="#fbe748"/><stop offset=".114" stop-color="#f4d43b"/><stop offset=".195" stop-color="#f0c933"/><stop offset=".281" stop-color="#efc531"/><stop offset=".668" stop-color="#db8e46"/><stop offset=".888" stop-color="#d16841"/><stop offset="1" stop-color="#c9403c"/></radialGradient><path fill="url(#g)" d="M27.911 40.407c12.667-3.959 26.479-3.658 39.167.006.29 10.394-1.698 21.166-7.685 29.856-3.075 4.673-7.391 8.377-12.038 11.415-7.74-4.557-13.363-12.191-16.012-20.708-2.473-6.569-3.044-13.618-3.432-20.569zm16.934 8.429c-2.009 2.023-1.038 5.078.501 7.05-.151 2.893-.646 5.751-1.133 8.603 2.426.011 4.864.011 7.287.011-.479-2.719-.953-5.438-1.362-8.162 1.136-1.467 3.009-2.841 2.42-4.951-.214-3.617-5.366-5.287-7.713-2.551z"/></g></svg>