<svg xmlns:xlink="http://www.w3.org/1999/xlink"  xmlns="http://www.w3.org/2000/svg" viewBox="0 0 1500 1500"><path fill="none" d="M1078.1 747.6h17.9v-85.2l-16.6-38.2-1.3-1.9z"/><path fill="#D39F65" d="M1078.1 622.3l1.3 1.9-1.3-3.1z"/><path fill="#D39F65" d="M600.1 614.1v-8.7h66.8l2 5.9 23 69.6.4 1.3v65.2H724V721.3H784.6v23.2h66.1V585.2H1078.2l34.6 71.9.7 1.7v65.6h68.4V750.5h115.9c-24.5-214.6-206.6-381.4-427.7-381.4-181 0-335.8 111.8-399.5 270l129.8 122.5V614.1z"/><path fill="#D39F65" d="M653.7 622.8l2.1 4.3-1.4-4.3z"/><path fill="#A6555F" d="M605.8 959H1408V859H624.4L417.8 667.4l-31.9-30.2-32.4 28.5L92.7 899.3l63.9 71.1 34.4-30.9V1159h417v-150h484v84h133v-67h50v83H1375V993h-33v83h-34v-83h-116v66h-67v-83H575v150H224V909.9l161.1-144.6L587.2 959z"/><path fill="#376179" d="M623.2 831.2h771.1v-34.8H637l-36.9-34.8-129.8-122.5-39.2-37-23.9 25.3 211 199z"/><path fill="#A6555F" d="M324 909v117h134V876h-84v33h50v84h-66v-84z"/><path fill="#376179" d="M1181.7 733v-8.7H1113.3v-65.6l-.7-1.7-34.6-71.9H850.6v159.5h-66.1v-23.2H724V747.5h-31.6v-65.2l-.4-1.3-23-69.6-2-5.9h-66.8v121.8h17.3V622.9H654.4l1.4 4.3.5 1.5V762h8.7V654.9l10 30.3V765h66.3V738.9h25.8v23.2H868V602.5h192.8V764.9h63.5v-23.2h40.2V767.8H1392v-17.3H1181.9V733zm-102.3-108.8l16.6 38.1v85.2h-17.9V621.1l1.3 3.1z"/></svg>