<svg xmlns:xlink="http://www.w3.org/1999/xlink"  xmlns="http://www.w3.org/2000/svg" viewBox="0 0 1500 1500"><path fill="#71D0F6" d="M345 844.5V1181l33 19.8V870.9zM942 837.9v468.5s117-33 150-66v-211.1L942 837.9z"/><path fill="#71D0F6" d="M1184 334.7c-110.9-110.9-258.1-172-415-172-156.9 0-303.8 61.1-414.7 172-110.9 110.9-171.2 258.4-171.2 415.2 0 105.5 29.9 204.5 78.9 290.1V897.3l91-89.1 25 32.5V557.5l83-82.5v-56.1l139.4-138.6L743 471.7v76.9l67 74.8v258.3l124.5-109.8 190.5 240.8v202.7c133-107.5 230.4-276.1 230.4-465.5 0-156.8-60.5-304.3-171.4-415.2z"/><path fill="#71D0F6" d="M611 349.6v46.2l99 125.4v-39.6zM594 1319.6s100 39.6 166 39.6V640L594 428.8v890.8z"/><path fill="#385072" d="M1230.4 288C1107 164.6 943 96.7 768.5 96.7S430 164.6 306.6 288C183.2 411.4 115.3 575.4 115.3 749.9c0 360.2 293 653.2 653.2 653.2s653.2-293 653.2-653.2c.1-174.5-67.9-338.5-191.3-461.9zM942 1306.4V837.9l150 191.4v211.1c-33 33-150 66-150 66zm183-91v-202.7L934.5 771.9 810 881.8V623.5l-67-74.8v-76.9L600.4 280.3 461 418.9V475l-83 82.5v283.3l-25-32.5-91 89.1v142.8c-49-85.7-78.9-184.6-78.9-290.1 0-156.9 60.2-304.3 171.1-415.3 110.9-110.9 257.9-172 414.8-172 156.9 0 304.1 61.1 415 172 110.9 110.9 171.4 258.4 171.4 415.3 0 189.2-97.4 357.9-230.4 465.3zM345 1181V844.5l33 26.4v329.9l-33-19.8zm199-663.1c0-.4.6.1.1 1.2l-.1.1v41.6-9.1c0-4.7 0-10.5-.3-16.1l-112.9 51.6 113.3-68v-1.3zM505.7 409s75.9-56.1 62.7-39.6L505.7 409zm-59.4 389.3s102.3-39.6 89.1-26.4l-89.1 26.4zm72.6 92.4l-52.8 13.2s62.7-33 52.8-13.2zm16.1-238l.4-2.8s.1 1.3.3 3.3c.7.8.5 1.8.2 2.5.6 9.8 1.2 27.9-3.7 20.6l2.4-19.5-104.7 36c81.2-39.6 100.9-42.5 105.1-40.1zm225 706.5c-66 0-166-39.6-166-39.6V428.8L760 640v719.2zM611 395.8v-46.2l99 132v39.6l-99-125.4z"/><path fill="#00B3E6" d="M543.7 535.6c.3 5.6.3 11.4.3 16.1v-32.5l-113.3 68 113-51.6zM544.4 517.9v1.3l.1-.1c.4-1.1-.1-1.7-.1-1.2zM544 551.7v0zM534.5 656.7l-2.4 19.5c4.9 7.4 4.3-10.8 3.7-20.6.3-.7.5-1.7-.2-2.5-.1-2-.3-3.3-.3-3.3l-.4 2.8c-4.2-2.4-23.9.5-105.2 40.1l104.8-36zM446.3 798.3l89.1-26.4c13.2-13.2-89.1 26.4-89.1 26.4zM466.1 903.9l52.8-13.2c9.9-19.8-52.8 13.2-52.8 13.2zM505.7 409l62.7-39.6c13.2-16.5-62.7 39.6-62.7 39.6z"/></svg>