<svg xmlns:xlink="http://www.w3.org/1999/xlink"  xmlns="http://www.w3.org/2000/svg" width="100" height="100" viewBox="0 0 100 100"><g fill="#808082"><path d="M68.852 50.568c1.42 1.958 2.552 4.121 3.535 6.33.812 1.928 1.446 3.939 1.732 6.014.32 2.505.279 5.321-1.292 7.371-1.386 1.811-4.287 3.564-6.921 3.762-2.006.287-4.046.045-6.026-.332-3.546-.708-6.931-2.068-10.131-3.731-4.992-2.618-9.549-6.02-13.614-9.914-3.985-3.851-7.528-8.224-10.09-13.152-1.078-2.137-2.034-4.372-2.489-6.733l-.038-.044c-.635-2.939-.691-6.312 1.094-8.877.905-1.505 2.455-2.555 4.089-3.143 2.804-.99 5.872-.839 8.748-.271 3.294.629 6.416 1.915 9.437 3.338a9.648 9.648 0 0 1-.692-.258c-3.023-1.364-6.246-2.354-9.559-2.644-2.361-.17-4.856.069-6.934 1.286-1.144.66-2.046 1.663-2.722 2.782-.921 1.874-1.147 4.017-.868 6.073.167 1.6.682 3.134 1.154 4.658 1.757 4.347 4.372 8.308 7.465 11.822A57.085 57.085 0 0 0 47.863 65.95c4.523 2.726 9.527 4.866 14.833 5.359 2.118.047 6.337-.311 8.22-2.266.824-.858 1.39-1.962 1.732-3.119.908-2.859.361-5.943-.569-8.725-.795-2.334-1.933-4.535-3.227-6.631z"/><path d="M19.083 34.145c.327-1.823 1.226-3.533 2.455-4.917 1.628-1.829 3.923-2.955 6.296-3.454 3.445-.739 7.016-.327 10.417.446 2.766.676 5.435 1.707 8.021 2.898-.839-.261-1.625-.654-2.458-.934-2.125-.786-4.338-1.308-6.566-1.707-3.2-.375-6.604-.362-9.568 1.072-2.201 1.037-3.986 2.933-4.844 5.218-.751 1.908-.867 3.995-.745 6.02l.016-.047a23.403 23.403 0 0 0 1.059 4.979c1.581 4.791 4.297 9.131 7.475 13.017a59.14 59.14 0 0 0 13.293 11.828c4.897 3.146 10.326 5.651 16.119 6.538 3.367.484 6.932.305 10.024-1.213.361-.271.761-.49 1.125-.752 1.813-1.275 3.087-3.228 3.655-5.355.85-3.115.377-6.416-.537-9.462-.896-2.845-2.2-5.544-3.74-8.094a38.73 38.73 0 0 1 4.067 7.638c1.392 3.571 2.247 7.463 1.679 11.297-.434 2.713-1.814 5.376-4.103 6.963-.813.714-1.826 1.166-2.825 1.568-3.138 1.157-6.596 1.176-9.864.623-1.968-.277-3.892-.817-5.777-1.443-5.25-1.795-10.131-4.555-14.576-7.849-4.555-3.397-8.688-7.368-12.177-11.856-3.187-4.133-5.887-8.729-7.361-13.765-.84-2.987-1.286-6.199-.56-9.257z"/><path d="M63.841 54.409c-1.632 0-3.26.003-4.885 0 0-1.575-.003-3.153 0-4.728 1.625-.003 3.253 0 4.882-.003.003 1.578 0 3.156.003 4.731zM57.925 60.168h-4.882c.004-1.575 0-3.152 0-4.728 1.625-.003 3.254 0 4.882-.003.003 1.579 0 3.156 0 4.731z"/></g><g fill="#4674B7"><path d="M72.906 42.147c-2.138-1.987-4.244-4.008-6.375-5.995-.013-3.574-.006-7.145 0-10.715.101-.032 6.296-2.357 6.381-2.357.026 3.41-.018 17.411-.006 19.067zM34.91 53.668c-1.889-2.301-3.627-4.737-5.033-7.365.538-.519 11.759-11.436 12.052-11.498 1.229-.33 16.883-4.847 17.64-5.014-1.072 1.116-23.515 22.896-24.659 23.877zM58.227 34.254c.572-.512 1.027-1.157 1.646-1.603 2.783 2.6 5.492 5.284 8.248 7.918 5.508 5.318 11.04 10.621 16.531 15.956-1.115.021-2.238.006-3.354.012-5.745-5.525-11.479-11.064-17.218-16.597-1.946-1.901-3.945-3.75-5.853-5.686zM53.043 49.682c1.625-.003 3.254 0 4.882-.003.003 1.577 0 3.155 0 4.73-1.628 0-3.257.007-4.882 0 .004-1.577 0-3.153 0-4.727zM63.838 55.438c.003 1.578 0 3.155 0 4.73-1.629 0-3.257.003-4.885-.004.003-1.574 0-3.148.003-4.727 1.628.003 3.253.003 4.882.001zM21.639 49.952c.088.201.173.405.258.61 3.596 6.751 8.754 12.585 14.657 17.41 4.354 3.546 9.169 6.557 14.364 8.694.506.217 1.047.353 1.51.657-7.771.066-15.544.003-23.317.031a6.63 6.63 0 0 1-1.176-.085c-2.685-.239-5.08-2.226-5.947-4.763-.56-1.533-.371-3.193-.412-4.789.028-5.924-.057-11.846.063-17.765z"/></g></svg>