<svg xmlns:xlink="http://www.w3.org/1999/xlink"  xmlns="http://www.w3.org/2000/svg" width="100" height="100" viewBox="0 0 100 100"><path fill="#ACBB72" d="M72.128 84.993c-6.4 4.2-14.084 6.643-22.353 6.643a40.913 40.913 0 0 1-22.362-6.643h16.074V62.452h9.722v22.541h18.919z"/><path fill="#F48120" d="M70.856 15.116C82.91 22.329 91 35.492 91 50.456c0 12.877-5.994 24.408-15.316 31.978V48.128h10.252l-19.458-11.12V23.091h-.628c.057-.175.113-.347.113-.526 0-.816-.529-1.456-1.288-1.631a3.14 3.14 0 0 0 .759-2.039c0-.644-.172-1.224-.465-1.741a4.43 4.43 0 0 0 1.744.343c1.755 0 3.271-.93 4.143-2.381z"/><path fill="#FFCA05" d="M49.775 9.289c4.191 0 8.212.579 11.996 1.75-.065.347-.065.64-.065.93 0 1.452.53 2.793 1.347 3.78a3.594 3.594 0 0 0-.816-.114 3.261 3.261 0 0 0-3.262 3.262c0 1.75 1.46 3.201 3.262 3.201.229 0 .522 0 .758-.057-.064.118-.122.29-.122.526 0 .179.058.351.122.526H60.37V33.52l-12.813-7.35-35.288 21.958h10.244v33.139C13.958 73.698 8.591 62.689 8.591 50.456c0-22.712 18.529-41.167 41.184-41.167z"/></svg>