<svg xmlns:xlink="http://www.w3.org/1999/xlink"  xmlns="http://www.w3.org/2000/svg" viewBox="0 0 150 150"><g fill="#055B36"><path d="M75.1 45.6v-6h-6v5.9c2 .1 4 .1 6 .1zM79.8 48.6v5.9h5.9v-6c-1.9 0-3.9 0-5.9.1zM79.8 39.6v6h6.1v-6h-6.1zM69.2 48.5v6h6v-6h-6z"/></g><path fill="#055B36" d="M6.9 48.6C29.6 35 52.4 21.4 75.2 7.8c22.8 13.6 45.5 27.3 68.3 40.9h-19.2c-.9 0-1.6-.6-2.3-1-2.7-1.7-5.4-3.2-8.1-4.9.1 5.2 0 10.5.7 15.7.2 1.9.9 20.3 2.9 21.1 2.6.8 5.4.6 8.1 1 1.3-.1 1.1 1.7 0 1.8-4.3.4-8.6-.1-13-.1-6.9-.3-13.8.2-20.7.2-.9.2-2.8-.8-1.6-1.7 2.3-.8 5.2.1 7.2-1.7 1.6-2.3 1.6-21.4 1.9-24 .3-6.9.4-13.7.4-20.6L74.3 19.2 56.3 30c-.5.4-1.4.7-1.3 1.5.1 8.7-.2 17.4.6 26 .2 2.2.5 21 2.7 22.1 2.4 1 5.2.7 7.7 1 .7.1 1.7.1 1.6 1.1-.6 1.3-2.3.9-3.4 1-10.2-.3-20.5-.4-30.7 0-1 .2-3.2-.4-2.2-1.7 2.1-.7 4.6-.1 6.7-1.2 1.6-1.2 1.8-19.5 2.2-21.4.7-6.3.6-12.7.7-19-4.9 3-9.9 5.9-14.8 8.9-.6.3-1.2.8-1.9.7-6-.3-11.7-.4-17.3-.4z"/><path fill="#00B05D" d="M16 85.1v4.3h.3l5.9 18.3 17.3 9.7H51l13.2 16 3.7.5 6 10 16.8-4.7 5.5-10 6.2-13 14.5-4.5 18.7-11.9 1-10.4h.2v-4.3z"/></svg>