<svg xmlns:xlink="http://www.w3.org/1999/xlink"  xmlns="http://www.w3.org/2000/svg" viewBox="0 0 1500 1500"><path fill="#A6555F" d="M1425.1 835.5c4.3-25.8-55.8-120.2-81.6-171.7-5.2-10.4-32.8-32-73.1-59.7l4.4-.4 47.2-115.9-30.1-55.8-73 94.5 30.1 38.6-7.8 19.5C1071.3 472.4 751 290.4 751 290.4c150.4 236 360.7 317.6 360.7 317.6l-107.3 416.4-68.7 73-30.1 201.8 48.9-84.8c125.6 12.9 258.3 40.7 391.9 91.3 0 0-138.9-96.5-364-139.8l150.7-261.7 60.1 85.9-154.5 163.1 261.9-137.4-68.7-141.7 73-124.5s60.1 55.8 68.7 77.3c8.6 21.4-38.6 120.2-38.6 120.2s85.8-85.9 90.1-111.6z"/><path fill="#385072" d="M563.3 1093.7l-68.7-72.9-107.3-416.5s210.4-81.5 360.6-317.7c0 0-320.3 182-490.2 294.2l-7.8-19.5 30.1-38.6-73-94.4-30.1 55.8L224.2 600l4.4.4c-40.3 27.6-67.9 49.2-73.1 59.7-25.8 51.5-85.9 146-81.6 171.7 4.3 25.8 90.2 111.6 90.2 111.6s-47.2-98.8-38.6-120.2c8.6-21.5 68.7-77.3 68.7-77.3l73 124.5-68.7 141.7 261.9 137.4-154.7-163.1 60.1-85.9 156.3 271.4C411 1196 292.7 1238 169.2 1305.6c0 0 151.9-59.1 380-86.6l44.1 76.5-30-201.8zM775 708h103v103H775z"/><path fill="#385072" d="M655 708h103v103H655zM775 605h103v86H775zM655 605h103v86H655zM603.1 1157.1l.8 56c89.3-8.2 188.3-11.1 293.3-3.8l.8-56.6c-88.6-10.3-187.7-11.2-294.9 4.4z"/></svg>