<svg xmlns:xlink="http://www.w3.org/1999/xlink"  xmlns="http://www.w3.org/2000/svg" viewBox="0 0 150 150"><path fill="#FFDE00" d="M123.9 58.4c.2-1.3.3-2.5.5-3.8.1-1.2.3-2.4.4-3.7.1-1 .2-2 .4-2.9.1-1 .2-2 .4-2.9.1-1 .2-2 .4-3 .1-.8.2-1.5.3-2.3 0-.1 0-.3.1-.4.2-.1.3 0 .4 0 1.2.1 2.3-.2 3.2-1.1.4-.4.7-1 .9-1.6 0 0 0-.1.1-.1v-1.8l-.1-.1c-.4-1.6-1.8-2.7-3.3-2.8-.9-.1-1.8.2-2.5.8-1.6 1.2-1.9 3.4-.8 5 .1.1.2.2.3.4-.3.3-13.3 10.6-13.6 10.8l-.1-.1c-.8-6.8-1.6-13.5-2.4-20.3h.3c1.9.1 4-1.3 4.4-3.7.4-2-.5-3.8-2.2-4.8-2.3-1.4-5.5-.4-6.5 2.3-.7 1.9 0 3.9 1.4 5.1.1.1.2.2.4.3 0 .1-.1.1-.1.2l-14 14h-.1v-.1c-4.7-9.5-9.5-19-14.2-28.6V13c.1 0 .2-.1.3-.1 1.7-.6 2.9-1.7 3.4-3.4.9-2.8-.9-5.9-3.8-6.5-.2-.1-.4 0-.5-.1H76l-.1.1c-1.5.2-3.3 1.3-4.1 3.4-1 2.8.6 5.9 3.6 6.7.1 0 .2.1.3.1-.1.4-14.8 28.4-15.1 28.8-.1 0-.1-.1-.2-.1l-1.2-1.2c-1-1-2-2-3.1-3-1.2-1.2-2.5-2.4-3.7-3.7-1.3-1.3-2.5-2.5-3.8-3.7-.7-.7-1.5-1.4-2.2-2.2-.3-.1-.4-.1-.4-.2 0-.2.2-.2.3-.3.8-.7 1.4-1.5 1.6-2.6.5-2.6-1.2-4.9-3.5-5.3-2.6-.5-4.8 1.2-5.3 3.4-.4 1.6 0 3 1.1 4.2.8.8 1.8 1.3 3 1.4h.3v.2c-.2 1-.3 1.9-.5 2.9-.2 1.1-.4 2.1-.5 3.2-.2 1.1-.4 2.1-.5 3.2-.2 1-.3 2.1-.5 3.2-.2 1-.4 2.1-.5 3.2-.2 1.1-.4 2.2-.5 3.2 0 .4-.1.7-.2 1.2 0 .1-.1.2-.1.2h-.1c-3.8-3.4-7.7-6.9-11.5-10.4l.2-.2c.7-.6 1.2-1.3 1.3-2.2.4-2.1-1-4-2.9-4.4-2.1-.4-4 .9-4.5 2.9 0 .1 0 .3-.2.4v.9c.1.1.1.3.2.4.2.9.7 1.7 1.5 2.2.6.4 1.3.7 2 .7H26.5l.3 3.9.3 3.9c.1 1.3.2 2.6.3 4l.3 3.9c.1 1.1.2 2.3.3 3.5l95.9-.3z"/><g fill="#8E9093"><path d="M67.3 94.8c-13.2 8.9-26.2 18.2-39.4 27.1v6c0 10.5 8.5 19 19 19H105c8.5 0 15.7-5.7 18.1-13.4-9.7-6.8-19.5-13.6-29.3-20.3C85 107 76.1 101 67.3 94.8zm-1.4 40.1c-3.4.1-6.9.1-10.4.1v-10.4h10.4v10.3zm-10.4-13v-10.3h10.4v10.3H55.5zM79 111.6v10.3H68.7v-10.4c3.4.1 6.9 0 10.3.1zm-10.4 23.3v-10.3h10.3c0 3.4 0 6.8.1 10.3-3.4.2-6.9.1-10.4 0z"/><path d="M67.1 82.5C59.7 87.8 52.2 92.8 44.8 98h-.1c-5.5 4-11.2 7.8-16.8 11.6v5.5c12.3-8.6 24.7-17.1 37-25.6 1-.6 2.3-2.1 3.5-.9 9.9 6.8 19.8 13.7 29.6 20.5l26.1 18v-5.4c-8.8-6.1-17.6-12.1-26.3-18.3-10.3-6.7-20.4-14-30.7-20.9z"/><path d="M98.5 91.9c-10.4-7.3-20.9-14.4-31.2-21.7-13.2 9-26.3 18.1-39.4 27.2v5.5c3.2-2.2 6.4-4.5 9.7-6.5l.1-.2c9.9-6.9 19.7-13.7 29.6-20.5 12.7 8.9 25.5 17.7 38.3 26.6 6.2 4.2 12.3 8.5 18.5 12.8v-5.5c-8.6-6-17.1-11.9-25.6-17.7z"/></g><path fill="#315EAA" d="M27.9 90.5c13.1-9 26.2-18.2 39.5-27.1C77.8 70.9 88.8 77.8 99 85.6c8.5 5.5 16.8 11.3 25 17.1V60.2H27.9v30.3z"/></svg>