<svg xmlns:xlink="http://www.w3.org/1999/xlink"  xmlns="http://www.w3.org/2000/svg" viewBox="0 0 150 150"><path fill="#00A551" d="M118 30.9c-8.1-14.8-25.5-25-45.6-25S35 16.1 26.8 30.9H15.2v92.3L71.3 147l56.1-23.8V30.9H118zm5.7 88.3l-52.4 22.2-47.6-20.1-4.8-2.1V34.8h10.8C37.4 21 53.6 11.5 72.4 11.5c18.7 0 34.9 9.5 42.5 23.4h8.8v84.3z"/><path fill="#EAEADD" d="M71.3 138.2l50.3-21.3V37.1h-8.4c-7.3-13.3-22.8-22.4-40.8-22.4-18 0-33.5 9.2-40.8 22.4H21.1v79.8l4.6 2 45.6 19.3z"/><path fill="#00A551" d="M23.8 121.2l47.5 20.1-47.5-20.1z"/><path fill="#00A551" d="M23.8 121.2l47.5 20.1-47.5-20.1z"/><g fill-rule="evenodd" clip-rule="evenodd" fill="#4F6057"><path d="M57.1 83.5h6.2V92h-6.2zM64.7 83.5h6.2V92h-6.2zM72.3 83.5h6.2V92h-6.2zM79.9 83.5h6.2V92h-6.2zM57.1 73.6h6.2v8.5h-6.2zM64.7 73.6h6.2v8.5h-6.2zM72.3 73.6h6.2v8.5h-6.2zM79.9 73.6h6.2v8.5h-6.2zM57.1 63.6h6.2v8.6h-6.2zM64.7 63.6h6.2v8.6h-6.2zM72.3 63.6h6.2v8.6h-6.2zM79.9 63.6h6.2v8.6h-6.2zM57.1 103.6h6.2v11.2h-6.2zM64.7 103.6h6.2v11.2h-6.2zM72.3 103.6h6.2v11.2h-6.2zM79.9 103.6h6.2v11.2h-6.2zM57.1 93.6h6.2v8.5h-6.2zM64.7 93.6h6.2v8.5h-6.2zM72.3 93.6h6.2v8.5h-6.2zM79.9 93.6h6.2v8.5h-6.2zM57.1 53.6h6.2v8.6h-6.2zM64.7 53.6h6.2v8.6h-6.2zM72.3 53.6h6.2v8.6h-6.2zM79.9 53.6h6.2v8.6h-6.2zM57.1 43.6h6.2v8.6h-6.2zM64.7 43.6h6.2v8.6h-6.2zM72.3 43.6h6.2v8.6h-6.2zM79.9 43.6h6.2v8.6h-6.2zM57.1 33.7h6.2v8.5h-6.2zM64.7 33.7h6.2v8.5h-6.2zM72.3 33.7h6.2v8.5h-6.2zM79.9 33.7h6.2v8.5h-6.2z"/></g><g fill-rule="evenodd" clip-rule="evenodd" fill="#00A551"><path d="M25 106.6h6.2v8.5H25zM32.6 106.6h6.2v8.5h-6.2zM40.2 106.6h6.2v8.5h-6.2zM47.8 106.6h6.1v8.5h-6.1zM25 96.6h6.2v8.6H25zM32.6 96.6h6.2v8.6h-6.2zM40.2 96.6h6.2v8.6h-6.2zM47.8 96.6h6.1v8.6h-6.1zM25 86.6h6.2v8.6H25zM32.6 86.6h6.2v8.6h-6.2zM40.2 86.6h6.2v8.6h-6.2zM47.8 86.6h6.1v8.6h-6.1zM25 76.6h6.2v8.6H25zM32.6 76.6h6.2v8.6h-6.2zM40.2 76.6h6.2v8.6h-6.2zM47.8 76.6h6.1v8.6h-6.1zM25 66.6h6.2v8.6H25zM32.6 66.6h6.2v8.6h-6.2zM40.2 66.6h6.2v8.6h-6.2zM47.8 66.6h6.1v8.6h-6.1zM25 56.7h6.2v8.6H25zM32.6 56.7h6.2v8.6h-6.2zM40.2 56.7h6.2v8.6h-6.2zM47.8 56.7h6.1v8.6h-6.1z"/></g><g fill-rule="evenodd" clip-rule="evenodd" fill="#00A551"><path d="M88.8 106.6H95v8.5h-6.2zM96.4 106.6h6.2v8.5h-6.2zM104 106.6h6.2v8.5H104zM111.6 106.6h6.2v8.5h-6.2zM88.8 96.6H95v8.6h-6.2zM96.4 96.6h6.2v8.6h-6.2zM104 96.6h6.2v8.6H104zM111.6 96.6h6.2v8.6h-6.2zM88.8 86.6H95v8.6h-6.2zM96.4 86.6h6.2v8.6h-6.2zM104 86.6h6.2v8.6H104zM111.6 86.6h6.2v8.6h-6.2zM88.8 76.6H95v8.6h-6.2zM96.4 76.6h6.2v8.6h-6.2zM104 76.6h6.2v8.6H104zM111.6 76.6h6.2v8.6h-6.2zM88.8 66.6H95v8.6h-6.2zM96.4 66.6h6.2v8.6h-6.2zM104 66.6h6.2v8.6H104zM111.6 66.6h6.2v8.6h-6.2z"/></g></svg>