<svg xmlns:xlink="http://www.w3.org/1999/xlink"  xmlns="http://www.w3.org/2000/svg" viewBox="0 0 150 150"><path fill="#00A5C9" d="M76.6 48.6l14.8 6.1 21.1-8.9 1.6-.7-1.7-.7v-6.1l6.3 2.5V43l1.8-.8v-.7l.9.4 17.3-7.4V34L76.8 7.7v40.8l-.2.1zm16.9-17.4l6.3 2.5v6.1l-6.3-2.5v-6.1zm0 7.4l6.3 2.5v6.1l-6.3-2.5v-6.1zm-8.1-10.7l6.3 2.5v6.1L85.4 34v-6.1zm0 7.5l6.3 2.5V44l-6.3-2.5v-6.1z"/><path fill="#3B3B3B" d="M138.8 34.5l-17.3 7.4-.9.4-1.8.8-4.7 2-1.6.7-21.1 8.9L76.6 61l.2.1v40l62-25.6v-41zm-9 20.6v6.1l-6.3 2.5v-.2l-.1.1v-6.1l1.7-.7 1.8-.7 2.9-1.1v.1zm-41.6 16l6.3-2.5v6.1l-6.3 2.5v-6.1zm.1 13.5v-6.1l6.3-2.5v6.1l-6.3 2.5zm8-16.7l6.3-2.5v6.1L96.4 74l-.1-6.1zm.1 13.5v-6.1l6.3-2.5v6.1l-6.3 2.5zm18.9-16.9v-3.7l6.3-2.5v.2h.1v6.1l-6.3 2.5v-.2h-.1v-2.4zm.1 9.9v-.2h-.1v-6.1l4.5-1.8 1.8-.7v.2h.1v6.1l-6.3 2.5zm8-3.4v-6l6.3-2.5v.2h.1v6.1l-6.3 2.5V71h-.1z"/><path fill="#00BFEA" d="M32.5 41.5v.7l1.8.8v-2.2l6.3-2.5v6.1L39 45l1.6.7 21 8.9 14.8-6.1.3-.1V7.5l-.3.1-.2.1L14.4 34v.5l17.3 7.4.8-.4zm35.3-.1L61.5 44v-6.1l6.3-2.5v6zm-.1-13.5V34l-6.3 2.5v-6.1l6.3-2.5zm-8.1 16.8l-6.3 2.5v-6.1l6.3-2.5v6.1zm0-13.5v6.1l-6.3 2.5v-6.1l6.3-2.5z"/><path fill="#666" d="M76.6 61l-14.8-6.3-21-8.9L39 45l-4.7-2-1.8-.8-.9-.4-17.3-7.4v41l62 25.6.2.1.2.1V61h-.1zm-53.1-6l2.8 1.1 1.8.7 1.7.7v.1h.1v6.1l-6.3-2.5v-.1h-.1V55zm0 13.6l-.1-.1v-6.1l6.3 2.5v.1h.1v6.1l-6.3-2.5zm14.4 5.8l-6.3-2.5v-.1h-.1v-6.1l1.8.7 4.5 1.8v.1h.1v6.1zm-6.2-9.9l-.1-.1v-6.1l6.3 2.5v.1h.1V67l-6.3-2.5zm25.1 16.9l-6.3-2.5v-6.1l6.3 2.5v6.1zm0-7.4l-6.3-2.5v-6.1l6.3 2.5V74zm8.1 10.6l-6.3-2.5V76l6.3 2.5v6.1zm0-7.4l-6.3-2.5v-6.1l6.3 2.5v6.1z"/><path fill="#3B3B3B" d="M138.8 78.1l-17.3 7.4-.9.4-1.8.8-4.7 2-1.6.7-21.1 9-14.8 6.3.2.1v40l62-25.5V78.1zm-9 20.6v6.1l-6.3 2.5v-.2h-.1V101l1.7-.7 1.8-.7 2.9-1.1v.2zm-41.6 16l6.3-2.5v6.1l-6.3 2.5v-6.1zm.1 13.5v-6.1l6.3-2.5v6.1l-6.3 2.5zm8-16.7l6.3-2.5v6.1l-6.3 2.5v-6.1zm.1 13.5v-6.1l6.3-2.5v6.1l-6.3 2.5zm18.9-16.9v-3.7l6.3-2.5v.2h.1v6.1l-6.3 2.5v-.2h-.1v-2.4zm.1 9.9v-.2h-.1v-6.1l4.5-1.8 1.8-.7v.2h.1v6.1l-6.3 2.5zm8-3.4v-6l6.3-2.5v.2h.1v6.1l-6.3 2.5v-.2l-.1-.1z"/><path fill="#666" d="M76.6 104.6l-14.8-6.3-21-9-1.8-.7-4.7-2-1.8-.8-.9-.4L14.3 78v41l62 25.5.2.1.2.1v-40.2l-.1.1zm-53.1-6l2.8 1.1 1.8.7 1.7.7v.1h.1v6.1l-6.3-2.5v-.1h-.1v-6.1zm0 13.6l-.1-.1V106l6.3 2.5v.1h.1v6.1l-6.3-2.5zm14.4 5.8l-6.3-2.5v-.1h-.1v-6l1.8.7 4.5 1.8v.1h.1v6zm-6.2-9.9l-.1-.1v-6.1l6.3 2.5v.1h.1v6.1l-6.3-2.5zM56.8 125l-6.3-2.5v-6.1l6.3 2.5v6.1zm0-7.5l-6.3-2.5v-6.1l6.3 2.5v6.1zm8.1 10.7l-6.3-2.5v-6.1l6.3 2.5v6.1zm0-7.4l-6.3-2.5v-6.1l6.3 2.5v6.1z"/></svg>