<svg xmlns:xlink="http://www.w3.org/1999/xlink"  xmlns="http://www.w3.org/2000/svg" viewBox="0 0 1500 1500"><path fill="#AB5153" d="M1423.5 525.8l-1-1v.8zM926.4 440.2l492.1 84.7-309.7-279.6z"/><path fill="#D59E9C" d="M1425 525.6v-45l-319.5-303.3L657 668.7V716l5.9 4.2 262.8-280 182.7-194.9 311.2 279.6 5.4 3.6z"/><path fill="#CC8D8A" d="M651.7 674.9L76 488.1v29.5l581 204.8V668.7z"/><path fill="#BC6E6D" d="M654.4 674.9l5.7-6.2 445.7-491.4L495 75.3 78.3 488.1z"/><path fill="#007B9A" d="M620.1 945.1l-135.8-82.4c-112.3-52-135.2 52-135.2 52l171.9 91.1c48.5 29.4 3.6 43.4 3.6 43.4L313 936.4C279.5 922 281 885 281 885V723.4C281 623.7 178 589 178 589v338.8c0 86.7 89 121.4 89 121.4l198.8 121.4c118.7 62.3 105.2 195.1 105.2 195.1v26.3h171v-199.8c0-195-121.9-247.1-121.9-247.1z"/><path fill="#007B9A" d="M385.8 1188.5l-190.2-125.8S127 1012.4 127 947.4V595.2s-17-21-17-12.6v381.5s3.3 96.4 78.8 130l201.7 130s26.5 25.2 44.5 60.8V1392h34v-105s-7.8-60.8-83.2-98.5zM1033.4 1170.6l200.9-121.4s88.7-34.7 88.7-121.4V589s-103 34.7-103 134.4V885s1.2 37-32.2 51.5l-210.7 112.7s-45.4-13.9 3.1-43.4l171.8-91.1s-22.6-104.1-134.8-52l-136.6 82.4S759 997.1 759 1192.2V1392h171v-26.3s-15.2-132.9 103.4-195.1z"/><path fill="#007B9A" d="M1357 595.2v352.2c0 65-61.1 115.3-61.1 115.3l-183 125.8c-75.5 37.7-80.9 98.5-80.9 98.5v105h34v-107.1c0-35.6 45.6-60.8 45.6-60.8l198.4-130c75.5-33.5 81-130 81-130V582.6c0-8.3-34 12.6-34 12.6z"/></svg>