<svg xmlns:xlink="http://www.w3.org/1999/xlink"  xmlns="http://www.w3.org/2000/svg" viewBox="0 0 150 150"><path fill="#8BC53F" d="M15.7 138.5c8.7-5.7 19.1-8.8 29.6-10 5.2-.6 10.6-.6 15.9-.1 5.3.6 10.3 1.6 15.5 2.3 5.1.9 10.2 1.7 15.3 2.4 5.1.7 10.2 1.2 15.3 1.5 5.1.2 10.2.1 15.2-.8 5-.8 10-2.3 14.7-4.4-4.3 2.9-9.2 5.1-14.3 6.5-5.1 1.4-10.4 2-15.7 2-10.6.2-20.9-1.4-31.2-3-5.1-.8-10.3-1.8-15.3-2.5s-10.1-.8-15.2-.6c-10.1.6-20.3 2.6-29.8 6.7zM75.2 72.3l47.6 38.3L75.2 41l-47.6 69.6z"/><g fill="#447759"><path d="M64.9 95.6H74v6.8h-9.1zM64.9 104.9H74v7.4h-9.1zM75.8 95.6h9.7v6.8h-9.7zM75.8 104.9h9.7v7.4h-9.7z"/></g><path fill="#447759" d="M4.7 81.7c.1 1.9.3 3.6.5 5.4.5 3.6 1.3 7.1 2.4 10.4 4.3 13.5 13 24.6 23.5 31.5-4.4-4.7-8.1-9.9-11.1-15.5-2.9-5.6-5.1-11.7-6.3-17.8-.6-3.1-1-6.2-1-9.3v-4.7c.1-1.6.2-3.1.4-4.7.4-3 1-6 1.8-8.9.8-2.9 1.9-5.8 3.1-8.5 1.3-2.7 2.7-5.3 4.3-7.7 1.6-2.5 3.4-4.8 5.3-7 3.9-4.3 8.3-8 13.1-11 .7-.4 1.4-.7 2.1-1.2 2.2-1.2 4.5-2.4 6.8-3.4l1.5-.6c.6-.2 1.2-.4 1.8-.7 1-.3 2-.8 3-1.1 1.2-.4 2.3-.5 3.5-.8 3.9-.9 7.9-1.5 11.8-1.7.3 0 .7-.1 1-.1h1.2c3.5 0 7 .3 10.5.8 1.6.3 3.2.4 4.8.8 1.4.3 2.8.9 4.2 1.3.5.1.9.3 1.4.4.5.2 1 .3 1.5.5 1.9.7 3.6 1.6 5.4 2.4 1 .5 2 .9 3 1.4 5 2.7 9.6 6.2 13.7 10.2 2 2 4 4.2 5.7 6.6 1.8 2.3 3.4 4.8 4.8 7.4 1.4 2.6 2.6 5.3 3.7 8.2 1 2.9 1.8 5.8 2.4 8.8 1.1 6 1.4 12.3.6 18.6-.7 6.3-2.5 12.4-5.2 18.3-2.6 5.8-6.1 11.3-10.2 16.3 5-3.8 9.6-8.6 13.2-14.2 3.7-5.6 6.6-12 8.2-18.9 1.7-6.9 2.3-14.2 1.6-21.4-.7-7.2-2.6-14.4-5.5-20.9-2.9-6.6-6.9-12.5-11.6-17.7-4.7-5.2-10.1-9.5-15.9-13-5.8-3.5-12-6-18.4-7.7-6.4-1.6-13-2.3-19.6-2.2-6.6.2-13.1 1.3-19.5 3.3-6.3 2.1-12.4 5-18 8.8-5.6 3.8-10.8 8.5-15.2 14.1-2.2 2.7-4.2 5.7-5.9 8.8-1.8 3.1-3.3 6.4-4.6 9.7-2.5 6.8-4 14.1-4.1 21.3.1 1.8.2 3.7.3 5.4z"/><path fill="#B7B9BB" d="M116.1 70.5c-8.6-11.7-8.6-11.7-9.1-4.9.5-6.8.5-6.8-9.2 4.7 9.7-11.5 9.7-11.5 1.8-10.2 7.9-1.3 7.9-1.3-7.3-7.3 15.2 5.9 15.2 5.9 10.2-1.4 5 7.4 5 7.4 4.7-9.3.3 16.6.3 16.6 4.5 9.3-4.2 7.3-4.2 7.3 10.2 1.6-14.4 5.7-14.4 5.7-7.5 7.2-6.9-1.4-6.9-1.4 1.7 10.3M38.5 81.3c-6.8-9.2-6.8-9.2-7.2-3.9.4-5.3.4-5.3-7.2 3.7 7.6-9.1 7.6-9.1 1.4-8 6.2-1 6.2-1-5.8-5.7 12 4.7 12 4.7 8.1-1.1 3.9 5.8 3.9 5.8 3.7-7.3.3 13.1.3 13.1 3.5 7.3-3.3 5.7-3.3 5.7 8.1 1.2-11.3 4.5-11.3 4.5-5.9 5.6-5.5-1-5.5-1 1.3 8.2M58.4 53.4C53 46 53 46 52.6 50.3c.3-4.3.3-4.3-5.8 3C53 46 53 46 48 46.9c5-.8 5-.8-4.7-4.6C53 46 53 46 49.8 41.4 53 46 53 46 52.7 35.5 53 46 53 46 55.6 41.4 53 46 53 46 62.1 42.4 53 46 53 46 57.4 46.9c-4.4-.9-4.4-.9 1 6.5"/></svg>