<svg xmlns:xlink="http://www.w3.org/1999/xlink"  xmlns="http://www.w3.org/2000/svg" viewBox="0 0 1500 1500"><path fill="none" d="M601.4 637l3.6-2.3V759h-7.2z"/><path fill="none" d="M182 634.7V1149h322V580.7l161.7-119.6L544 375.2 182 634.7zM317 878h-34v-34h34v34zm0-51h-34v-34h34v34zm68 51h-51v-34h51v34zm0-51h-51v-34h51v34zM833.7 461.2L995 580.7V1149h322V634.7L955.3 375.2l-121.6 86zM1165 793h34v34h-34v-34zm0 51h34v34h-34v-34zm-68-51h34v34h-34v-34zm0 51h34v34h-34v-34z"/><path fill="#C26437" d="M957.7 248L750.3 397.6 541.9 248 80 580.7V1251h525V632.5l-1.7.8 152.9-108.6 154.8 110V1251h508V580.7L957.7 248zM504 580.7V1149H182V634.7l360-259.5 123.2 85.9L504 580.7zm813 568.3H995V580.7L833.7 461.2l121.5-85.9L1317 634.7V1149z"/><path fill="#B1B2B5" d="M596.8 1246.7L792 1139.5V716.2l-190.1-82.8 3.1-.8v2.2l-4.2 119.6-4 492.3zm161.9-308.3c-8.1 0-14.7-6.6-14.7-14.7s6.6-14.7 14.7-14.7 14.7 6.6 14.7 14.7-6.6 14.7-14.7 14.7z"/><path fill="#FFFFFE" d="M758.7 909c-8.1 0-14.7 6.6-14.7 14.7s6.6 14.7 14.7 14.7 14.7-6.6 14.7-14.7-6.6-14.7-14.7-14.7z"/><path fill="#B1B2B5" d="M1097 793h34v34h-34zM1165 793h34v34h-34zM1097 844h34v34h-34zM1165 844h34v34h-34zM283 793h34v34h-34zM334 793h51v34h-51zM283 844h34v34h-34zM334 844h51v34h-51z"/></svg>