<svg xmlns:xlink="http://www.w3.org/1999/xlink"  xmlns="http://www.w3.org/2000/svg" viewBox="0 0 150 150"><path fill="none" d="M31 30.2v-3.7l-3.8-.2c-.1 1.2-.1 2.5 0 3.8 1.3-.1 2.5 0 3.8.1zM18.3 47.3c-.4-1.1-.9-2.3-1.2-3.5-1.3.3-2.4.7-3.6 1.1l1.3 3.6 3.5-1.2zM35.4 23l-3.8-.5c-.2 1.2-.2 2.5-.3 3.8 1.3.1 2.4.2 3.7.4l.4-3.7zM24 38.2l-.7-3.7-3.7.5.6 3.7zM21 42.6L20 39l-3.6.8.9 3.6zM27.3 34l-.3-3.7-3.8.2c.1 1.2.1 2.4.3 3.7 1.3-.1 2.6-.1 3.8-.2zM55.1 12.8l-3.3-1.7-1.5 3.4 3.3 1.7c.5-1.1 1-2.2 1.5-3.4zM49.9 14.7c-1.2-.6-2.3-1-3.5-1.4l-1.2 3.6 3.5 1.3c.3-1.1.7-2.4 1.2-3.5zM44.8 17.1c-1.2-.4-2.4-.9-3.6-1.2l-.9 3.7 3.5 1c.3-1.2.7-2.3 1-3.5zM40 19.8l-3.7-.9-.6 3.8 3.6.7zM12.1 83.7c-1-.7-2.1-1.4-3-2.2-.9.9-1.6 1.9-2.4 2.9l3.1 2.2 2.3-2.9zM16.1 52.1c-.6-1.1-1.1-2.2-1.5-3.4-1.2.4-2.4.8-3.5 1.4l1.6 3.4 3.4-1.4zM13 89c-1.1-.6-2-1.3-3.1-2-.7 1-1.6 2.1-2.2 3.1l3.3 2 2-3.1zM14.3 94.1l-3.2-1.7-1.9 3.3c1.1.6 2.3 1.1 3.4 1.7.6-1.2 1.1-2.2 1.7-3.3zM11.7 78.3l-2.8-2.5-2.6 2.8L9.1 81zM60.5 11.4l-3.1-1.9-1.9 3.2 3.2 2zM14.3 57.2c-.6-1.1-1.2-2.1-1.7-3.2-1.1.5-2.3 1-3.4 1.7l1.9 3.3 3.2-1.8zM13 62.4l-2-3.1-3.3 1.9c.6 1.1 1.5 2.1 2.2 3.1 1-.7 1.9-1.3 3.1-1.9zM11.7 73l-2.6-2.7-2.8 2.4 2.6 2.8zM12.1 67.6l-2.3-2.9-3 2.3c.8 1 1.5 1.9 2.4 2.9.8-.8 1.9-1.6 2.9-2.3zM88.3 11.3c-.7-1.1-1.4-2-2.1-3.1l-3 2.3 2.1 3c.9-.7 1.9-1.5 3-2.2zM117.8 26.2c-.1-1.2-.1-2.6-.2-3.8l-3.8.5.4 3.6 3.6-.3zM130.8 47.3l3.5 1.1 1.3-3.6c-1.2-.4-2.3-.8-3.6-1.1-.2 1.2-.7 2.5-1.2 3.6zM133.1 52.1l3.4 1.4 1.6-3.4c-1.1-.5-2.3-1-3.5-1.4-.5 1.2-.9 2.3-1.5 3.4zM121.9 30c.1-1.3.1-2.5 0-3.8l-3.8.2v3.7c1.3 0 2.6-.1 3.8-.1zM125.6 34.2c.2-1.3.2-2.5.3-3.7l-3.8-.2-.3 3.7c1.3.1 2.6.1 3.8.2zM128.2 42.6l3.7.8.9-3.6-3.6-.8zM137.1 67.6c1 .7 2.1 1.4 3 2.2.9-.9 1.6-1.9 2.4-2.9l-3.1-2.2-2.3 2.9zM66.1 10.5l-3-2.3c-.7 1-1.4 2-2.1 3.1 1 .7 2 1.5 3 2.2l2.1-3zM136.2 62.4c1.1.6 2 1.3 3.1 2 .7-1 1.6-2.1 2.2-3.1l-3.3-1.9-2 3zM134.9 57.2l3.2 1.7 1.9-3.3c-1.1-.6-2.3-1.2-3.4-1.7-.6 1.2-1.1 2.2-1.7 3.3zM82.7 10.5c-.7-1-1.5-2.1-2.3-3l-2.8 2.6 2.4 2.8c.9-.9 1.8-1.7 2.7-2.4zM16.1 99.2l-3.4-1.4-1.6 3.4c1.1.5 2.3 1 3.5 1.4.4-1.2.9-2.3 1.5-3.4zM77.2 10l-2.6-2.8L72 10l2.6 2.6zM71.6 10.1l-2.8-2.6c-.8.9-1.6 1.9-2.3 3 1 .7 1.9 1.5 2.8 2.4l2.3-2.8zM108.8 19.6l-.9-3.7c-1.2.3-2.4.8-3.6 1.2.4 1.2.7 2.3 1 3.5l3.5-1zM104 16.9l-1.2-3.6c-1.2.4-2.3.8-3.5 1.4.5 1.1.9 2.3 1.3 3.5l3.4-1.3zM113.5 22.7l-.6-3.8-3.7.9.7 3.6zM93.7 12.7l-1.9-3.2-3.2 1.9 1.9 3.3zM98.9 14.6l-1.5-3.4-3.3 1.7c.6 1.2 1.1 2.3 1.5 3.4l3.3-1.7zM125.2 38.2l3.7.5.7-3.7-3.7-.5zM104.4 134.2c1.2.4 2.4.9 3.6 1.2l.9-3.7-3.5-1c-.3 1.2-.7 2.3-1 3.5zM109.2 131.5l3.7.9.6-3.8-3.6-.7zM113.8 128.3l3.8.6c.2-1.2.2-2.6.2-3.8-1.2-.1-2.4-.2-3.6-.4l-.4 3.6zM121.9 117.3l.3 3.7 3.8-.1c-.1-1.2-.1-2.4-.3-3.7-1.3 0-2.6 0-3.8.1zM118.2 121.1v3.7l3.8.2c.1-1.2.1-2.5 0-3.8-1.3.1-2.6 0-3.8-.1zM77.6 141.3l2.8 2.5c.8-.9 1.6-1.9 2.3-3-1-.7-1.9-1.5-2.8-2.4l-2.3 2.9zM99.3 136.6c1.2.6 2.3 1 3.5 1.4l1.2-3.6-3.4-1.4c-.4 1.2-.8 2.5-1.3 3.6zM83.2 140.8l3 2.3c.7-1 1.4-2 2.1-3.1-1-.7-2-1.5-3-2.2l-2.1 3zM125.2 113.1l.7 3.7 3.7-.5-.7-3.7zM94.1 138.5l3.3 1.7 1.5-3.4-3.3-1.7c-.5 1.1-1 2.2-1.5 3.4zM88.6 139.9l3.2 1.9 1.9-3.2-3.2-2zM137.5 78.3l2.6 2.7 2.8-2.4-2.6-2.8zM137.1 83.7l2.3 2.9 3.1-2.2c-.8-1-1.5-2-2.4-2.9-.9.7-2 1.5-3 2.2zM18.3 104l-3.5-1.1-1.3 3.6c1.2.4 2.3.8 3.6 1.1.3-1.2.8-2.4 1.2-3.6zM137.5 73l2.8 2.5 2.6-2.8-2.8-2.4zM133.1 99.2c.6 1.1 1.1 2.2 1.5 3.4 1.2-.4 2.4-.8 3.5-1.4l-1.6-3.4-3.4 1.4zM130.8 104c.4 1.1.9 2.4 1.2 3.5 1.3-.3 2.4-.7 3.6-1.1l-1.3-3.6-3.5 1.2zM136.2 89l2 3.1 3.3-2c-.6-1-1.5-2.1-2.2-3.1-1 .6-2 1.3-3.1 2zM134.9 94.1c.6 1.1 1.1 2.1 1.7 3.2 1.1-.5 2.3-1.1 3.4-1.7l-1.9-3.3-3.2 1.8zM128.2 108.7l1 3.6 3.6-.8-.9-3.6zM31.4 125.1c.1 1.2.1 2.6.3 3.8l3.8-.6-.4-3.6c-1.4.2-2.5.3-3.7.4zM35.7 128.6l.6 3.8 3.7-.9-.7-3.6zM40.3 131.7l.9 3.7c1.2-.3 2.4-.8 3.6-1.2-.4-1.2-.7-2.3-1-3.5l-3.5 1zM45.2 134.4l1.2 3.6c1.2-.4 2.3-.9 3.5-1.4-.5-1.1-.9-2.3-1.2-3.5l-3.5 1.3zM87.8 137l5.2-1.3c1.7-.6 3.3-1.2 5-1.8 1.7-.6 3.2-1.5 4.9-2.2 1.6-.7 3.1-1.7 4.6-2.6 1.6-.9 3-1.9 4.4-3 1.4-1.1 2.9-2.1 4.1-3.3 1.3-1.3 2.7-2.3 3.9-3.7 1.2-1.4 2.4-2.6 3.5-4l3.2-4.3 2.8-4.6c.9-1.5 1.6-3.2 2.4-4.8.9-1.6 1.3-3.3 2-4.9.7-1.7 1.2-3.4 1.6-5.1.4-1.7.9-3.4 1.1-5.2.2-1.8.7-3.5.7-5.3l.3-5.3-.3-5.3c0-1.8-.5-3.5-.7-5.3-.2-1.8-.7-3.5-1.1-5.2-.4-1.7-.9-3.4-1.6-5.1-.6-1.6-1.1-3.4-2-4.9-.8-1.6-1.5-3.2-2.4-4.8l-2.8-4.6-3.2-4.3c-1.1-1.4-2.4-2.7-3.5-4-1.1-1.4-2.6-2.4-3.9-3.7-1.3-1.3-2.7-2.3-4.1-3.3-1.4-1.1-2.9-2.1-4.4-3-1.5-.9-3-1.9-4.6-2.6-1.6-.7-3.2-1.7-4.9-2.2-1.7-.6-3.3-1.2-5-1.8l-5.2-1.3c-1.7-.4-3.5-.6-5.2-.9-1.8-.3-3.6-.2-5.3-.3-1.8-.1-3.6-.1-5.3 0-1.8.1-3.6.1-5.3.4-1.8.3-3.5.5-5.3.9l-5.2 1.3c-1.7.6-3.3 1.2-5 1.8-1.7.6-3.2 1.5-4.8 2.2-1.6.7-3.1 1.7-4.6 2.6-1.6.9-3 1.9-4.4 3-1.4 1.1-2.9 2.1-4.2 3.3-1.3 1.2-2.7 2.3-3.9 3.7-1.2 1.3-2.4 2.6-3.6 4l-3.2 4.3-2.7 4.5c-.9 1.5-1.6 3.2-2.4 4.8-.8 1.6-1.3 3.3-2 4.9-.7 1.7-1.2 3.4-1.6 5.1-.4 1.7-.9 3.4-1.1 5.2-.2 1.8-.7 3.5-.7 5.3l-.3 5.3.3 5.4c0 1.8.5 3.5.7 5.3.2 1.8.7 3.5 1.1 5.2.4 1.7.9 3.4 1.6 5.1.6 1.7 1.1 3.4 2 4.9.8 1.6 1.5 3.2 2.4 4.8l2.8 4.6 3.2 4.3c1.1 1.4 2.4 2.6 3.6 4 1.1 1.4 2.6 2.4 3.9 3.7 1.3 1.2 2.7 2.3 4.2 3.3 1.4 1.1 2.8 2.1 4.4 3 1.5.9 3 1.9 4.6 2.6 1.6.7 3.2 1.7 4.8 2.2 1.7.6 3.3 1.2 5 1.8l5.2 1.3c1.7.4 3.5.6 5.3.9 1.7.4 3.5.3 5.3.4 1.8.2 3.6.2 5.3 0 1.8-.2 3.6 0 5.3-.4 1.6-.4 3.4-.5 5.1-1zM86 89h-9V79h9v10zm-13 12h-9v-9h9v9zm0-12h-9V79h9v10zM55 76.1V111H37V49h17l21-20.1v-.6.3-.3.6L96.3 49H113v62H96V76.1L75.5 54.9 55 76.1zM77 101v-9h9v9h-9zM27.3 121.3c-.1 1.3-.1 2.5 0 3.8l3.8-.2v-3.7c-1.4 0-2.6.1-3.8.1zM24 113.1l-3.8-.5-.6 3.7 3.7.5zM50.3 136.7l1.5 3.4 3.3-1.7c-.6-1.1-1.1-2.3-1.5-3.4l-3.3 1.7zM23.6 117.1c-.2 1.3-.2 2.5-.3 3.7l3.7.2.3-3.7c-1.2-.1-2.5-.1-3.7-.2zM21 108.7l-3.7-.8-.9 3.6 3.6.8zM55.5 138.6l1.9 3.2 3.1-1.9-1.8-3.3zM66.5 140.8c.7 1 1.5 2.1 2.3 3l2.8-2.5-2.3-2.8c-1 .8-1.9 1.6-2.8 2.3zM72 141.3l2.6 2.8 2.6-2.8-2.6-2.6zM60.9 140c.6 1.1 1.4 2 2.1 3.1l3-2.3-2.1-3c-.9.7-1.9 1.5-3 2.2z"/><path fill="#8BC53F" d="M64 79h9v10h-9zM77 79h9v10h-9zM64 92h9v9h-9zM77 92h9v9h-9z"/><path fill="#8BC53F" d="M96 76.1V111h17V49H96.3L75 28.9v-.6.3-.3.6L54 49H37v62h18V76.1l20.5-21.2z"/><path fill="#8BC53F" d="M143 69.8c0-1.9-.5-3.9-.8-5.8-.2-1.9-.7-3.8-1.2-5.7-.5-1.9-1-3.8-1.7-5.6-.7-1.8-1.2-3.7-2.2-5.4-.9-1.7-1.6-3.6-2.6-5.2l-3-5-3.5-4.7c-1.2-1.5-2.6-2.9-3.9-4.3-1.3-1.5-2.8-2.7-4.2-4-1.4-1.4-3-2.5-4.5-3.7-1.5-1.2-3.1-2.3-4.8-3.3-1.7-1-3.3-2.1-5.1-2.8-1.8-.8-3.5-1.8-5.3-2.4-1.8-.6-3.6-1.3-5.5-2l-5.6-1.5c-1.9-.4-3.8-.6-5.7-.9-1.9-.4-3.9-.3-5.8-.5s-3.9-.2-5.8 0-3.9.1-5.8.5c-2 .4-4 .6-5.9 1L54.5 10c-1.9.6-3.7 1.3-5.5 2-1.9.6-3.5 1.6-5.3 2.4-1.8.8-3.4 1.9-5.1 2.8-1.7 1-3.3 2.1-4.8 3.3-1.6 1.2-3.1 2.3-4.5 3.7-1.4 1.4-3 2.5-4.2 4-1.3 1.5-2.7 2.8-3.9 4.3l-3.5 4.7-3 5c-1 1.6-1.7 3.5-2.6 5.2-.9 1.7-1.5 3.6-2.2 5.4-.7 1.8-1.3 3.7-1.7 5.6-.5 1.9-1 3.8-1.2 5.7-.2 1.9-.7 3.9-.8 5.8l-.3 5.8.3 5.8c0 1.9.5 3.8.8 5.8.2 1.9.7 3.8 1.2 5.7.4 1.9 1 3.8 1.7 5.6.7 1.8 1.2 3.7 2.2 5.4.9 1.7 1.6 3.5 2.6 5.2l3 5 3.5 4.7c1.2 1.5 2.6 2.9 3.9 4.4 1.3 1.5 2.8 2.7 4.2 4 1.4 1.4 3 2.5 4.5 3.7 1.5 1.2 3.1 2.3 4.8 3.3 1.7 1 3.3 2.1 5.1 2.8 1.8.8 3.5 1.8 5.3 2.4 1.8.6 3.6 1.4 5.5 2l5.6 1.5c1.9.4 3.8.6 5.8.9 1.9.4 3.9.3 5.8.5s3.9.2 5.8 0 3.9-.1 5.8-.5c1.9-.3 3.9-.5 5.7-.9l5.6-1.5c1.9-.6 3.7-1.3 5.5-2 1.8-.6 3.5-1.6 5.3-2.4 1.8-.8 3.4-1.8 5.1-2.8 1.7-1 3.3-2.1 4.8-3.3 1.6-1.2 3.1-2.3 4.5-3.7 1.4-1.3 3-2.5 4.2-4 1.3-1.5 2.7-2.8 3.9-4.4l3.5-4.7 3-5c1-1.7 1.7-3.5 2.6-5.2.9-1.7 1.5-3.6 2.2-5.4.7-1.8 1.2-3.7 1.7-5.6.5-1.9 1-3.8 1.2-5.7.3-1.9.7-3.8.8-5.8l.3-5.8-.2-5.9zm-.6-2.8c-.8 1-1.5 1.9-2.4 2.9-.9-.8-1.9-1.5-3-2.2l2.3-2.9 3.1 2.2zm-.9-5.8c-.6 1.1-1.5 2.1-2.2 3.1-1-.7-2-1.4-3.1-2l2-3.1 3.3 2zm-1.5-5.6l-1.9 3.3-3.2-1.7c.6-1.1 1.1-2.1 1.7-3.2 1.1.4 2.3 1 3.4 1.6zm-1.9-5.5l-1.6 3.4-3.4-1.4c.6-1.1 1.1-2.2 1.5-3.4 1.2.5 2.4.9 3.5 1.4zm-2.4-5.3l-1.3 3.6-3.5-1.1c.4-1.1.9-2.3 1.2-3.5 1.3.3 2.4.7 3.6 1zm-2.9-5l-1 3.6-3.6-.8 1-3.6 3.6.8zm-3.2-4.8l-.6 3.7-3.7-.4.6-3.7 3.7.4zm-3.7-4.5c-.1 1.2-.1 2.4-.3 3.7-1.2-.1-2.5-.1-3.7-.2l.3-3.7 3.7.2zm-4-4.2c.1 1.2.1 2.5 0 3.8-1.2 0-2.5 0-3.7.1v-3.7l3.7-.2zm-4.3-3.9c.2 1.2.2 2.5.2 3.8-1.2.1-2.4.2-3.6.4l-.4-3.6 3.8-.6zm-4.7-3.5l.6 3.8-3.6.7-.7-3.6 3.7-.9zm-4.9-3l.9 3.7-3.5 1c-.2-1.2-.6-2.4-1-3.5 1.1-.4 2.4-.9 3.6-1.2zm-5.2-2.6l1.2 3.6-3.4 1.3c-.4-1.2-.8-2.4-1.3-3.5 1.2-.5 2.3-1 3.5-1.4zm-5.4-2.1l1.5 3.4-3.3 1.7c-.5-1.1-1-2.3-1.5-3.4l3.3-1.7zm-5.6-1.7l1.8 3.3-3.2 2-1.8-3.3 3.2-2zm-5.6-1.2c.7 1 1.4 2 2.1 3.1-1 .7-2 1.5-3 2.2l-2.1-3 3-2.3zm-5.8-.8c.8.9 1.6 1.9 2.3 3-1 .7-1.9 1.5-2.8 2.4l-2.4-2.8 2.9-2.6zm-5.8-.3l2.6 2.8-2.6 2.6L72 10l2.6-2.8zm-5.8.3l2.8 2.6-2.3 2.8c-.9-.9-1.8-1.7-2.8-2.4.7-1.1 1.5-2.1 2.3-3zm-5.8.8l3 2.3-2.1 3c-.9-.7-2-1.6-3-2.2.7-1.2 1.4-2.1 2.1-3.1zm-5.6 1.2l3.2 2-1.8 3.3-3.2-2 1.8-3.3zm-5.6 1.7l3.3 1.7c-.6 1.2-1.1 2.3-1.5 3.4l-3.3-1.7 1.5-3.4zm-5.4 2.1c1.2.4 2.3.8 3.5 1.4-.5 1.1-.9 2.3-1.2 3.5l-3.5-1.3 1.2-3.6zm-5.2 2.6c1.2.3 2.4.8 3.6 1.2-.4 1.2-.7 2.3-1 3.5l-3.5-1 .9-3.7zm-4.9 3l3.7.9-.7 3.6-3.6-.7.6-3.8zm-4.7 3.5l3.8.5-.4 3.7c-1.3-.2-2.4-.3-3.7-.4.1-1.2.1-2.6.3-3.8zm-4.3 3.9l3.8.2v3.7c-1.3-.1-2.5-.2-3.7-.1-.2-1.4-.2-2.6-.1-3.8zm-.3 4l.3 3.7c-1.2 0-2.5 0-3.7.2-.2-1.3-.2-2.5-.3-3.7l3.7-.2zm-3.7 4.2l.6 3.7-3.7.4-.6-3.6 3.7-.5zM20 39l1 3.6-3.6.8-1-3.6L20 39zm-2.9 4.8c.3 1.2.8 2.4 1.2 3.5l-3.5 1.1-1.3-3.6c1.2-.3 2.3-.7 3.6-1zm-2.5 5c.4 1.1.9 2.3 1.5 3.4l-3.4 1.4-1.6-3.4c1.1-.6 2.3-1 3.5-1.4zm-2 5.2c.6 1.1 1.1 2.2 1.7 3.2l-3.2 1.7-1.9-3.3c1-.6 2.3-1.2 3.4-1.6zM11 59.3l2 3.1c-1.1.6-2 1.3-3.1 2-.7-1-1.6-2.1-2.2-3.1l3.3-2zm-1.2 5.5l2.3 2.9c-1 .7-2.1 1.4-3 2.2-.9-1-1.6-1.9-2.3-2.9l3-2.2zm-.7 5.5l2.6 2.7-2.8 2.5-2.6-2.7 2.8-2.5zm-.2 5.5l2.8 2.5L9.1 81l-2.8-2.5 2.6-2.7zm-2.1 8.5c.8-1 1.5-2 2.4-2.9.9.8 1.9 1.5 3 2.2l-2.3 2.9-3.1-2.2zm.9 5.8C8.3 89 9.2 88 9.9 87c1.1.7 2 1.4 3.1 2l-2 3-3.3-1.9zm1.4 5.6l1.9-3.3 3.2 1.7c-.6 1.1-1.2 2.1-1.7 3.2-1-.5-2.3-1-3.4-1.6zm2 5.5l1.6-3.4 3.4 1.4c-.6 1.1-1.1 2.2-1.5 3.4-1.2-.5-2.4-.9-3.5-1.4zm2.4 5.2l1.3-3.6 3.5 1.1c-.4 1.1-.9 2.4-1.2 3.5-1.3-.2-2.4-.6-3.6-1zm2.9 5.1l1-3.6 3.6.8-1 3.6-3.6-.8zm3.2 4.8l.6-3.7 3.7.5-.6 3.7-3.7-.5zm3.7 4.5c.1-1.2.1-2.4.3-3.7 1.2.1 2.5.1 3.7.2L27 121l-3.7-.2zm4 4.2c-.1-1.2-.1-2.5 0-3.8 1.2 0 2.4 0 3.7-.1v3.7l-3.7.2zm4.3 3.9c-.2-1.2-.2-2.6-.3-3.8 1.3-.1 2.4-.2 3.7-.4l.4 3.6-3.8.6zm4.7 3.5l-.6-3.8 3.6-.7.7 3.6-3.7.9zm4.9 3l-.9-3.7 3.5-1c.2 1.2.6 2.4 1 3.5-1.1.4-2.4.9-3.6 1.2zm5.2 2.6l-1.2-3.6 3.5-1.4c.4 1.2.8 2.4 1.2 3.5-1.2.6-2.3 1.1-3.5 1.5zm5.4 2.1l-1.5-3.4 3.3-1.7c.5 1.1 1 2.3 1.5 3.4l-3.3 1.7zm5.6 1.7l-1.8-3.2 3.2-2 1.8 3.3-3.2 1.9zm5.6 1.3c-.7-1-1.4-2-2.1-3.1 1-.7 2-1.5 3-2.2l2.1 3-3 2.3zm5.8.7c-.8-.9-1.6-1.9-2.3-3 1-.7 1.9-1.5 2.8-2.4l2.3 2.8-2.8 2.6zm5.8.3l-2.6-2.8 2.6-2.6 2.6 2.6-2.6 2.8zm2.7-5.7c-1.8.2-3.6.2-5.3 0-1.8-.2-3.6 0-5.3-.4-1.8-.3-3.5-.5-5.3-.9l-5.2-1.3c-1.7-.6-3.3-1.2-5-1.8-1.7-.6-3.2-1.5-4.8-2.2-1.6-.7-3.1-1.7-4.6-2.6-1.6-.9-3-1.9-4.4-3-1.4-1.1-2.9-2.1-4.2-3.3-1.3-1.3-2.7-2.3-3.9-3.7-1.2-1.4-2.4-2.6-3.6-4l-3.2-4.3-2.8-4.6c-.9-1.5-1.6-3.2-2.4-4.8-.8-1.6-1.3-3.3-2-4.9-.7-1.7-1.2-3.4-1.6-5.1-.4-1.7-.9-3.4-1.1-5.2-.2-1.8-.7-3.5-.7-5.3l-.3-5.3.3-5.3c0-1.8.5-3.5.7-5.3.2-1.8.7-3.5 1.1-5.2.4-1.7.9-3.4 1.6-5.1.6-1.6 1.1-3.4 2-4.9.8-1.6 1.5-3.2 2.4-4.8l2.8-4.6 3.2-4.3c1.1-1.4 2.4-2.7 3.6-4 1.1-1.4 2.6-2.4 3.9-3.7 1.3-1.3 2.7-2.3 4.2-3.3 1.4-1.1 2.8-2.1 4.4-3 1.5-.9 3-1.9 4.6-2.6 1.6-.7 3.2-1.7 4.8-2.2 1.7-.6 3.3-1.2 5-1.8l5.2-1.3c1.7-.4 3.5-.6 5.3-.9 1.7-.4 3.5-.3 5.3-.4 1.8-.1 3.6-.1 5.3 0 1.8.1 3.6.1 5.3.4 1.7.3 3.5.5 5.2.9l5.2 1.3c1.7.6 3.3 1.2 5 1.8 1.7.6 3.2 1.5 4.9 2.2 1.6.7 3.1 1.7 4.6 2.6 1.6.9 3 1.9 4.4 3 1.4 1.1 2.9 2.1 4.1 3.3 1.3 1.2 2.7 2.3 3.9 3.7 1.2 1.3 2.4 2.6 3.5 4l3.2 4.3 2.8 4.6c.9 1.5 1.6 3.2 2.4 4.8.9 1.6 1.3 3.3 2 4.9.7 1.7 1.2 3.4 1.6 5.1.4 1.7.9 3.4 1.1 5.2.2 1.8.7 3.5.7 5.3l.3 5.3-.3 5.3c0 1.8-.5 3.5-.7 5.3-.2 1.8-.7 3.5-1.1 5.2-.4 1.7-.9 3.4-1.6 5.1-.6 1.7-1.1 3.4-2 4.9-.8 1.6-1.5 3.2-2.4 4.8l-2.8 4.6-3.2 4.3c-1.1 1.4-2.4 2.6-3.5 4s-2.6 2.4-3.9 3.7c-1.3 1.2-2.7 2.3-4.1 3.3-1.4 1.1-2.9 2.1-4.4 3-1.5.9-3 1.9-4.6 2.6-1.6.7-3.2 1.7-4.9 2.2-1.7.6-3.3 1.2-5 1.8l-5.2 1.3c-1.7.4-3.5.6-5.2.9-1.8.3-3.6.2-5.3.4zm3.1 5.4l-2.8-2.5 2.4-2.8c.9.9 1.8 1.7 2.8 2.4-.8 1-1.6 2-2.4 2.9zm5.8-.7l-3-2.3 2.1-3c1 .7 2 1.6 3 2.2-.7 1.1-1.4 2-2.1 3.1zm5.6-1.3l-3.2-2 1.8-3.3 3.2 2-1.8 3.3zm5.6-1.7l-3.3-1.7c.6-1.1 1.1-2.3 1.5-3.4l3.3 1.7-1.5 3.4zm5.4-2.1c-1.2-.4-2.3-.9-3.5-1.4.5-1.1.9-2.3 1.3-3.5l3.4 1.4-1.2 3.5zm5.2-2.6c-1.2-.3-2.4-.8-3.6-1.2.4-1.2.7-2.3 1-3.5l3.5 1-.9 3.7zm4.9-3l-3.7-.9.7-3.6 3.6.7-.6 3.8zm4.7-3.5l-3.8-.6.4-3.6c1.3.2 2.4.3 3.6.4 0 1.2 0 2.6-.2 3.8zm4.3-3.9l-3.8-.2v-3.7c1.2.1 2.5.2 3.7.1.2 1.3.2 2.6.1 3.8zm.3-4l-.3-3.7c1.2 0 2.5 0 3.7-.2.2 1.3.2 2.5.3 3.7l-3.7.2zm3.7-4.2l-.6-3.7 3.7-.5.6 3.7-3.7.5zm3.3-4.5l-1-3.6 3.6-.8 1 3.6-3.6.8zm2.9-4.8c-.3-1.2-.8-2.4-1.2-3.5l3.5-1.1 1.3 3.6c-1.2.3-2.3.7-3.6 1zm2.5-5c-.4-1.1-.9-2.3-1.5-3.4l3.4-1.4 1.6 3.4c-1.1.6-2.3 1-3.5 1.4zm2-5.1c-.6-1.1-1.1-2.2-1.7-3.2l3.2-1.7 1.9 3.3c-1.1.5-2.3 1-3.4 1.6zm1.6-5.4l-2-3.1c1.1-.6 2-1.3 3.1-2 .7 1 1.6 2.1 2.2 3.1l-3.3 2zm1.2-5.5l-2.3-2.9c1-.7 2.1-1.4 3-2.2.9.9 1.6 1.9 2.4 2.9l-3.1 2.2zm.7-5.5l-2.6-2.7 2.8-2.5 2.6 2.7-2.8 2.5zm.2-5.5l-2.8-2.5 2.6-2.7 2.8 2.5-2.6 2.7z"/></svg>