<svg xmlns:xlink="http://www.w3.org/1999/xlink"  xmlns="http://www.w3.org/2000/svg" viewBox="0 0 1500 1500"><path fill="none" d="M590 1135.9l38 9.5v85.2c74 31.7 167 74.1 223 101.8v-281.8L702 906.8v-82.5l-42.9-43.6c-25 20.5-69.1 52.6-106.1 85.4v326.1c0 4.1 19 11.4 37 20.5v-76.8zM702 620.9V180.7c-56 57.6-130 164.1-149 185v358c19-19.4 88.6-65.8 88.6-65.8H702v-37z"/><path fill="#FFC041" d="M851 1050.6v-60.7L702 824.4v82.4z"/><path fill="#FFC041" d="M901.5 1357.9c37.9-22.4 209.5-124 246.5-148.1V882l-225.2 69.4L738 751h-29l198 223.7v322.4l-56-28.4v63.7c18 12 41.3 21.2 50.5 25.5zM1093 965.2l37-9.5v94.8l-37 9.5v-94.8zm-112 38l19-9.5V1098l-19 9.5v-104.3zM869 343.1c0-5-18-13.6-18-24.3V602h-37V300.9c0-8.4 0-17.4-19-26.8V602h-19V256.3l-37-35.2V621h-37v37h205v-37h-38V343.1z"/><path fill="#C46158" d="M1021.9 658H641.6S572 704.4 553 723.8v-358c19-20.9 93-127.4 149-185V621h-5.9H739V221.1l37 35.2V602h19V274.1l19 22V602h37V323.8l18 19.3V621h112V295.6L684.1 17.7l-37.5 47.7L442 328v486.2C367 869.9 305.5 918 268.8 956H442v306.4l467.1 219.7 350.9-209.6V812.7L1021.9 658zM553 866.2c37-32.8 78.2-64.9 103.1-85.4l40.3 43.6L851 989.9v278.8l56 28.4V974.7L709 751h29l184.8 200.4L1148 882v327.8c-37 24.1-208.4 125.7-246.4 148.1-9.2-4.3-29.4-13.5-55.1-25.5-59.2-27.6-144.5-70.1-218.5-101.8v-85.2l-38-9.5v77c-18-9.2-37-16.4-37-20.5V866.2z"/><path fill="#C46158" d="M1000 993.7l-19 9.5v104.3l19-9.5zM1130 955.8l-37 9.4v94.9l37-9.5z"/></svg>