<svg xmlns:xlink="http://www.w3.org/1999/xlink"  xmlns="http://www.w3.org/2000/svg" viewBox="0 0 1500 1500"><path fill="#A5AB5A" d="M1442.8 696.6L794.9 153c-22.5-18.9-59.3-18.9-81.8 0l-126 105.8c54.8 46 482.8 405.1 482.8 405.1 35.9 30.1 30.1 60.1 25.9 71.6-4.2 11.5-19 38.2-65.8 38.2H915.7c-5.8 0-10.7 4.9-10.7 10.7V1287c0 19.7-6 38.1-16.2 53.4h320.5c29.4 0 53.4-24 53.4-53.4V784.3c0-29.4 24-53.4 53.4-53.4h114.3c29.2 0 34.8-15.4 12.4-34.3z"/><path fill="#C57578" d="M1042.5 696.6l-488.6-410-145.6 122.2c41.8 35.1 304 255.1 304 255.1 35.9 30.1 30.1 60.1 25.9 71.6-4.2 11.5-19 38.2-65.8 38.2H558.1c-3.8 0-6.3 2-7.5 3.2-1.2 1.2-3.2 3.7-3.2 7.5V1287c0 19.7-6 38.1-16.3 53.4H809c29.3 0 53.4-24 53.4-53.4V784.3c0-29.3 24-53.4 53.4-53.4H1030c29.3 0 34.9-15.4 12.5-34.3z"/><path fill="#E4995E" d="M504.7 1287V784.3c0-29.3 24-53.4 53.4-53.4h114.3c29.3 0 35-15.4 12.5-34.3L375 436.7l-309.8 260C42.7 715.6 48.3 731 77.7 731H192c29.3 0 53.4 24 53.4 53.4V1287c0 29.4 24 53.4 53.4 53.4h152.7c29.2 0 53.2-24 53.2-53.4z"/></svg>