<svg xmlns:xlink="http://www.w3.org/1999/xlink"  xmlns="http://www.w3.org/2000/svg" width="100" height="100" viewBox="0 0 100 100"><radialGradient id="a" cx="-.664" cy="8.106" r="121.142" gradientUnits="userSpaceOnUse"><stop offset="0" stop-color="#b6986d"/><stop offset=".291" stop-color="#6b4e2e"/><stop offset=".533" stop-color="#573b1c"/><stop offset=".733" stop-color="#39281c"/><stop offset="1" stop-color="#231300"/></radialGradient><path fill="url(#a)" d="M76.943 45.823c-.014-11.955 0-23.905 0-35.86-2.671 0-5.336-.004-7.997.004-9.6.004-19.195-.029-28.794.016-5.898-.038-11.795-.012-17.693-.021.008 9.888-.017 19.781.008 29.665-.029 6.699.012 13.393-.021 20.092.024 7.269.008 14.546.008 21.823 1.546-2.429 3.403-4.653 5.625-6.489.067-9.214.113-18.44-.025-27.654 2.708-2.313 5.789-4.136 8.56-6.367.072.105.209.318.281.428.025 1.287.016 2.578.025 3.873-.009 4.284-.021 8.572.004 12.86-.029 4.016-.004 8.036-.013 12.052a235.83 235.83 0 0 1 2.78-.717c-.067-5.727.142-11.469-.109-17.195a9.3 9.3 0 0 0 .122-1.441c-.017-11.154-.021-22.308-.013-33.455 1.769 1.274 3.562 2.511 5.306 3.823 1.208.843 2.407 1.711 3.601 2.583-.025 4.883-.004 9.763-.012 14.646.003 3.995-.005 7.99 0 11.989v10.936c-.005 2.67.003 5.331 0 7.998.926.201 1.852.411 2.779.624v-8.677c0-3.651-.005-7.298 0-10.945.004-3.831-.008-7.663 0-11.489 0-2.942-.005-5.89.004-8.836l6.095 4.401c.947.667 1.891 1.35 2.817 2.045-.056 4.477-.005 8.95-.025 13.422.004 5.097.008 10.195.004 15.288a80.686 80.686 0 0 1 2.667-1.836c-.006-4.858.003-9.725 0-14.583 0-2.045-.006-4.091 0-6.128 1.327.939 2.645 1.894 3.964 2.841 1.644 1.174 3.279 2.364 4.926 3.525 0 .788.008 1.577.025 2.369-.042 2.892-.004 5.78-.025 8.673a30.78 30.78 0 0 1 5.119-.353c.007-4.642-.01-9.285.007-13.93z"/><path fill="#A5A7A9" d="M67.834 64.803c-2.641 1.161-5.131 2.691-7.177 4.729-1.878 1.748-3.244 3.937-4.715 6.02-2.112-.897-4.225-1.849-6.477-2.352a22.834 22.834 0 0 0-14.872 1.66c-6.498 3.249-11.222 9.717-12.199 16.931h54.541c0-9.516.008-19.031 0-28.546-3.106-.089-6.184.515-9.101 1.558z"/></svg>