<svg xmlns:xlink="http://www.w3.org/1999/xlink"  xmlns="http://www.w3.org/2000/svg" viewBox="0 0 150 150"><path fill="#0099C1" d="M37.3 88.9h38.1v13.3c2 .9 3.9 1.8 5.8 2.7v-16h38.1v27.4c1.8-.2 3.8-.5 5.8-1V51.7s.4-46.1-47-46.1-47 46.1-47 46.1v49.7c2.1-1 4.1-1.8 6.1-2.5v-10zm43.9-37.2h38.1V84H81.2V51.7zm-43.9 0h38.1V84H37.3V51.7z"/><path fill="#C4C9C6" d="M37.3 88.9V99c4.9-1.6 9.7-2.4 14.4-2.4 9 0 16.7 2.6 23.7 5.6V88.9H37.3zM81.2 88.9v16c1.9.9 3.8 1.8 5.6 2.7 10 5 19 9 28.8 9 1.2 0 2.5-.1 3.8-.3V88.9H81.2zM37.3 51.7h38.1V84H37.3zM81.2 51.7h38.1V84H81.2zM131.4 125.7c-59.2 34-78.3-49.2-127.2 8.1 49.3-42.2 80.1 40.6 127.2-8.1z"/><path fill="#0099C1" d="M17.4 118.2c47.3-34.6 80.1 40.4 126.1-3.9.7-.7 1.4-1.3 2.1-2-.9.5-1.7.9-2.5 1.3-57.2 30.4-74.6-44.1-125.7 4.6z"/></svg>