<svg xmlns:xlink="http://www.w3.org/1999/xlink"  xmlns="http://www.w3.org/2000/svg" viewBox="0 0 150 150"><path fill="#3BB88B" d="M31.6 56.9l42.2-24.4L116 56.9V91c5.7 5.5 11.6 11.1 17.4 16.7V46.9L73.9 12.5 14.3 46.9v54.9l17.4-17V56.9z"/><path fill="#3D4449" d="M50.2 119.7c30.7-7.8 63.5-12.8 90.2-.2-31.2-29.8-70.1-67.4-70.1-67.4L7.4 113.8s12.1 13.7 42.8 5.9zm20.5-38.1v7.2h-8.1v-7.7h8.1v.5zm0-9.3v7.3h-8.1v-7.8h8.1v.5zm10.1 9.3v7.2h-8.1v-7.7h8.1v.5zm0-9.3v7.3h-8.1v-7.8h8.1v.5z"/><path fill="#0092C1" d="M77.1 128.3c30.6-11.4 55.3.2 70.7 7.6-40.4-37.4-76.3-12-103-8.7-26.3 3.2-41.4-8.8-41.8-9.1 0 0 0 .1.1.1 30.6 31 59.3 16.1 74 10.1z"/></svg>