<svg xmlns:xlink="http://www.w3.org/1999/xlink"  xmlns="http://www.w3.org/2000/svg" viewBox="0 0 1500 1500"><path fill="#B86645" d="M415.2 866.3v318.8l68.4 36.5V1053l118.4 54.7 4.6 164 127.5 68.2 9.1-204.9 31.8 59.2 41 9.1 350.7-209.5 4.6 186.7-409.9 259.7-428.1-227.7V902.7z"/><path fill="#B86645" d="M515.4 925.5v68.3l91.1 41v-68.3z"/><path fill="#A38378" d="M219.4 811.6l72.9 54.7 264.1-132.1 236.9 409.9 487.3-273.3-305.2-464.5-245.9 154.8v-86.5l-59.2-27.3L556.4 511v95.7z"/><path fill="#6CAB36" d="M585.4 427.8s-88.6-96.7 56.4-163.8c0 0 85.9 128.9-43 171.9l29.5-112.8-42.9 104.7zM984.6 140.3s-7.5-105.2 117.4-75c0 0-10.3 124.1-112.9 86.8l75-56.3-79.5 44.5zM806.5 282s-122.8-45.9-24.1-171.6c0 0 135.1 75.8 39.7 172.6l-24.9-113.9 9.3 112.9z"/></svg>