<svg xmlns:xlink="http://www.w3.org/1999/xlink"  xmlns="http://www.w3.org/2000/svg" viewBox="0 0 150 150"><path fill="#2A4A59" d="M44.3 53.1l29.6-23.6 32 23.4v34c13.4 3.1 24.9 8.2 33.6 14.6 3.2-8 4.9-16.6 4.9-25.7 0-38.3-31-69.3-69.3-69.3S5.8 37.5 5.8 75.8c0 9.1 1.7 17.8 4.9 25.7 8.7-6.4 20.2-11.5 33.6-14.6V53.1z"/><path fill="#2A4A59" d="M74.5 41.4L53.4 57.9l.1 27.3c6.9-1.1 14.1-1.7 21.6-1.7 7.5 0 14.8.6 21.8 1.7V57.7L74.5 41.4z"/><path fill="#8FC640" d="M75.4 89.7L57.6 143c2.4.6 4.8 1.1 7.2 1.5l10.6-54.8zM75.5 89.7l-3.4 55.4c1 0 2 .1 3 .1 1.5 0 2.9-.1 4.3-.1l-3.9-55.4zM75.6 89.7l11.1 54.5c2.4-.4 4.8-1 7.2-1.6L75.6 89.7zM75.1 89.7l-44.5 39.4c2 1.7 4.1 3.2 6.3 4.7l38.3-44.1h-.1zM75.3 89.7l-31.7 47.9c2.2 1.1 4.5 2.2 6.9 3.1l24.8-51zM74.8 89.7l-55.3 27.6c1.6 2.2 3.4 4.3 5.3 6.3L75 89.7h-.2zM75.9 89.7l38.4 43.4c2.1-1.5 4.2-3.1 6.2-4.8L76 89.7h-.1zM135.7 109.5c.5-1 1.1-2 1.6-3-14.5-10-36.2-16.4-60.6-16.8l59 19.8zM14.8 110.2l59.6-20.5c-24.8 0-47 6.4-61.8 16.3.7 1.4 1.4 2.8 2.2 4.2zM76.1 89.7l50 33.1c1.8-2 3.6-4.1 5.2-6.3l-55-26.8h-.2zM75.7 89.7l25.2 50.5c2.3-.9 4.6-2 6.8-3.2l-32-47.3z"/></svg>