<svg xmlns:xlink="http://www.w3.org/1999/xlink"  xmlns="http://www.w3.org/2000/svg" viewBox="0 0 150 150"><path fill="#3D58A6" d="M61.8 41.8h6v5.9h-6zM71.2 41.8h5.9v5.9h-5.9zM61.8 51h6v5.9h-6zM71.2 51h5.9v5.9h-5.9z"/><path fill="#4D4D4D" d="M35.7 80.7h15.5V16.1L35.7 39.5z"/><path fill="#3D58A6" d="M42.8 93.5v-9.2H31.6V36l11.2-17V9.7L14 58.9v17.4c8.4 7.8 17.4 13.7 27 17.3h1.8z"/><path fill="#4D4D4D" d="M102.6 39.5L87 16.1v64.6h15.6z"/><path fill="#3D58A6" d="M124.3 63.9v-5L95.4 9.8v9.3l11.2 17v47.8c7.2-5.4 13-12.1 17.7-20zM95.4 84.4v6.2c3.8-1.8 7.3-3.9 10.5-6.2H95.4z"/><path fill="#4D4D4D" d="M137.3 48.9c-.5-1.7-1.3-3.3-2.4-6-8.4 29.5-24.6 50.1-54.1 57-29.2 6.8-53-3.9-73.4-26l-.2-.2c0 2-.1 3 .1 3.9 3 15.4 5.9 30.8 9.1 46.2.4 1.9 2.2 4 4 5.2 18.3 12.2 38.3 16.6 60 12.5 36.1-6.8 60.6-38.5 60-72.8-.1-6.5-1-13.2-3.1-19.8z"/></svg>