<svg xmlns:xlink="http://www.w3.org/1999/xlink"  xmlns="http://www.w3.org/2000/svg" viewBox="0 0 150 150"><path fill="#60C09B" d="M37.6 101.1c14.5 15.3 16.7 18.6 31.2 33.9 6.4-17.1 16.4-32.7 27.9-46.8 14.2-17.4 30.7-32.8 47.7-47.5-4.9 2.6-9.4 5.9-14 9.1-26.4 19.1-49.9 40.9-66.8 68.8-14-15.2-12.2-13.8-26.3-29l.3 11.5z"/><path fill="#490000" d="M67 59.9h10.1V70H67zM54.4 59.9h10.1V70H54.4zM67 72h10.1v10.1H67zM54.4 72h10.1v10.1H54.4z"/><path fill="#ED3324" d="M103.5 48.8c3 2.6-1.2-.9-12.7-10-12.3-9.6-11.2-9.1-17.3-14-2.5-2.3-5-4.5-7.4-6.9-15.9 12.4-31.8 24.9-47.7 37.3-4.2 3.4-8.6 6.6-12.7 10 5.1.1 10.2 0 15.3.1v22.2l12.1.2c-.1-14.1.2-8.3 0-22.3-3.9 0-7.8.1-11.8-.1 4-3.5 8.5-6.5 12.6-9.8C44.5 47.7 55 39.7 65.4 31.8c1.9 1.4 1.2.9 9.7 7.4 4.2 3.3 23.6 18.6 27.7 22l8.1-6.8-7.4-5.6z"/></svg>