<svg xmlns:xlink="http://www.w3.org/1999/xlink"  xmlns="http://www.w3.org/2000/svg" width="100" height="100" viewBox="0 0 100 100"><radialGradient id="a" cx="46.877" cy="8.959" r="55.916" gradientUnits="userSpaceOnUse"><stop offset="0" stop-color="#fff24f"/><stop offset=".035" stop-color="#fbe748"/><stop offset=".114" stop-color="#f4d43b"/><stop offset=".195" stop-color="#f0c933"/><stop offset=".281" stop-color="#efc531"/><stop offset=".668" stop-color="#db8e46"/><stop offset=".888" stop-color="#d16841"/><stop offset="1" stop-color="#c9403c"/></radialGradient><path fill="url(#a)" d="M59.363 25.798c-2.191-.82-3.709-2.806-4.431-4.965-.883-2.861-1.071-5.864-1.383-8.812-2.372 2.554-6.475 8.56-6.475 8.56-2.365 3.807-4.134 7.976-5.518 12.232-.536 1.742-1.048 3.468-1.403 5.249h-.033a78.623 78.623 0 0 0-1.447 8.772c2.53.221 5.06.457 7.59.686 2.203-3.31 4.69-6.447 7.535-9.237a71.819 71.819 0 0 1 6.014-5.194c3.464-2.601 7.134-4.95 10.92-7.062-3.733.583-7.732 1.151-11.369-.229z"/><radialGradient id="b" cx="46.877" cy="8.955" r="55.921" gradientUnits="userSpaceOnUse"><stop offset="0" stop-color="#fff24f"/><stop offset=".035" stop-color="#fbe748"/><stop offset=".114" stop-color="#f4d43b"/><stop offset=".195" stop-color="#f0c933"/><stop offset=".281" stop-color="#efc531"/><stop offset=".668" stop-color="#db8e46"/><stop offset=".888" stop-color="#d16841"/><stop offset="1" stop-color="#c9403c"/></radialGradient><path fill="url(#b)" d="M44.253 16.868c-2.321 1.923-5.08 3.579-8.166 3.752-2.31.166-4.571-.694-6.419-2.049-1.809-1.427-3.263-3.271-4.418-5.265-.347 1.482-.701 2.979-.796 4.508l-.036-.118a53.704 53.704 0 0 0-.457 5.564c-.02 1.332.008 2.664.067 4.004.169 2.522.485 5.037.981 7.511a71.634 71.634 0 0 0 1.505 5.88h.027a54.117 54.117 0 0 0 1.876 5.249c2.881.26 5.762.528 8.65.789.177-2.097.445-4.186.823-6.258a74.266 74.266 0 0 1 1.305-5.651c.689-2.49 1.521-4.941 2.408-7.361h.032c.497-1.34 1.072-2.64 1.6-3.972l.039.008c.891-2.097 1.903-4.146 2.948-6.164 1.107-2.167 2.361-4.256 3.515-6.392-1.669 2.127-3.419 4.192-5.484 5.965z"/><radialGradient id="c" cx="19.846" cy="70.965" r="87.479" gradientUnits="userSpaceOnUse"><stop offset="0" stop-color="#919395"/><stop offset=".673" stop-color="#424243"/><stop offset="1" stop-color="#272525"/></radialGradient><path fill="url(#c)" d="M19.304 41.341a12.791 12.791 0 0 0-.713-.575c-2.037-1.324-4.551-1.773-6.952-1.868-1.328.032-2.876.008-3.901.978-.567.638.103 1.348.536 1.813.859.583 1.793 1.04 2.786 1.348 2.341.686 4.902 1.095 7.287.441.378-.197.757-.402 1.127-.615a1.672 1.672 0 0 0-.17-1.522z"/><radialGradient id="d" cx="46.879" cy="8.957" r="55.916" gradientUnits="userSpaceOnUse"><stop offset="0" stop-color="#fff24f"/><stop offset=".035" stop-color="#fbe748"/><stop offset=".114" stop-color="#f4d43b"/><stop offset=".195" stop-color="#f0c933"/><stop offset=".281" stop-color="#efc531"/><stop offset=".668" stop-color="#db8e46"/><stop offset=".888" stop-color="#d16841"/><stop offset="1" stop-color="#c9403c"/></radialGradient><path fill="url(#d)" d="M81.49 45.408c-2.183-.898-4.248-2.151-5.844-3.925a10.197 10.197 0 0 1-2.159-4.974 17.427 17.427 0 0 1 .133-3.247c.41-2.057 1.234-4.004 2.263-5.833-7.169 2.191-13.833 6.021-19.299 11.137l-.047-.008c-1.829 1.671-3.578 3.444-5.163 5.352l-.035.008a67.027 67.027 0 0 0-3.034 3.791c2.806.244 5.611.52 8.422.749 3.555.323 7.098.678 10.647.962 2.451-.292 4.875-.844 7.327-1.151 5.221-.575 10.474-.851 15.723-.733-3.03-.489-6.072-1.001-8.934-2.128z"/><radialGradient id="e" cx="19.85" cy="70.952" r="87.433" gradientUnits="userSpaceOnUse"><stop offset="0" stop-color="#5ba59b"/><stop offset="1" stop-color="#1c433f"/></radialGradient><path fill="url(#e)" d="M71.603 49.861c-1.395-.237-2.822-.276-4.229-.441-3.55-.284-7.093-.639-10.647-.962-2.811-.229-5.616-.504-8.422-.749l-2.042-.189c-2.53-.229-5.06-.465-7.59-.686l-1.604-.142c-2.889-.26-5.77-.528-8.65-.789-1.501-.149-3.015-.229-4.504-.457a72.469 72.469 0 0 0 1.068 3.066c.43 1.19.852 2.388 1.289 3.586.035.11.122.347.165.465.422 1.19.848 2.389 1.281 3.578.134.379.268.765.414 1.151.312.874.634 1.766.946 2.648.169.464.339.93.508 1.403.327.921.662 1.844.997 2.765.134.388.272.766.414 1.16.422 1.173.836 2.364 1.269 3.538.043.104.118.308.158.402.382.993.717 2.018.654 3.081 11.133.031 22.254-.007 33.387.024.535-.031 1.103.063 1.612-.173.314-.971.405-1.986.594-2.988.233-1.331.47-2.664.672-4.011h.038c.114-1.214.529-2.412.517-3.635l-.126-.148.224-.12c.344-1.299.457-2.654.726-3.972.315-1.766.604-3.522.914-5.28.013-.698.565-1.565-.033-2.125z"/><radialGradient id="f" cx="19.845" cy="70.953" r="87.442" gradientUnits="userSpaceOnUse"><stop offset="0" stop-color="#919395"/><stop offset=".673" stop-color="#424243"/><stop offset="1" stop-color="#272525"/></radialGradient><path fill="url(#f)" d="M32.265 68.809c-.433-1.174-.847-2.365-1.269-3.538-.142-.395-.28-.772-.414-1.16-.335-.921-.67-1.844-.997-2.765-.169-.474-.339-.939-.508-1.403-.312-.883-.634-1.774-.946-2.648-.146-.387-.28-.772-.414-1.151-.434-1.189-.859-2.388-1.281-3.578-.043-.118-.13-.354-.165-.465-.438-1.198-.859-2.396-1.289-3.586a72.469 72.469 0 0 1-1.068-3.066c-.453-1.167-.843-2.451-1.856-3.247-1.005-.788-2.243-1.174-3.468-1.435.245.181.485.378.713.575.304.473.359.993.169 1.521-.37.212-.749.417-1.127.615.902.48 1.817 1.001 2.432 1.852.532 1.545 1.08 3.074 1.616 4.611.489 1.246.902 2.506 1.363 3.759.552 1.49 1.076 2.987 1.588 4.5a77.766 77.766 0 0 1 1.308 3.635c.339.835.643 1.702.93 2.569l.04-.009c.52 1.554 1.087 3.09 1.624 4.634h.04c.272.813.567 1.633.867 2.443-1.209.82-2.569 1.593-3.192 2.988-.378 1.64-.103 3.358.603 4.871.808 1.419 2.443 2.065 3.964 2.412-.154-.962-.095-1.938.122-2.885-.646-.388-1.624-.576-1.726-1.459-.347-.969-.158-2.034.591-2.75h.166c.926-.624 2.014-1.229 2.396-2.357.063-1.063-.272-2.088-.654-3.081-.04-.095-.114-.299-.158-.402z"/><radialGradient id="g" cx="19.841" cy="70.936" r="87.467" gradientUnits="userSpaceOnUse"><stop offset="0" stop-color="#919395"/><stop offset=".673" stop-color="#424243"/><stop offset="1" stop-color="#272525"/></radialGradient><path fill="url(#g)" d="M54.409 78.991c-4.765.024-9.529.024-14.298-.007l.043.228c.28.892.201 1.822.043 2.721 4.725-.025 9.446-.016 14.163 0-.02-.324-.066-.955-.095-1.271.009-.117.009-.347.013-.473.036-.291.095-.889.131-1.198z"/><radialGradient id="h" cx="19.805" cy="70.939" r="87.527" gradientUnits="userSpaceOnUse"><stop offset="0" stop-color="#919395"/><stop offset=".673" stop-color="#424243"/><stop offset="1" stop-color="#272525"/></radialGradient><path fill="url(#h)" d="M66.074 79.133c-.982-.259-2.019-.085-3.02-.126.02.205.044.64.061.852.034.481.031.971-.005 1.45l-.036.614c.993-.038 2.03.12 3.011-.133 1.135-.425 1.128-2.238-.011-2.657z"/><radialGradient id="i" cx="19.831" cy="70.95" r="87.472" gradientUnits="userSpaceOnUse"><stop offset="0" stop-color="#919395"/><stop offset=".673" stop-color="#424243"/><stop offset="1" stop-color="#272525"/></radialGradient><path fill="url(#i)" d="M63.115 79.858c-.044-.228-.139-.685-.183-.914-.634-1.269-1.683-2.381-3.105-2.712-2.155-.614-4.44.703-5.308 2.695-.095.419-.178.836-.24 1.262-.004.126-.004.355-.013.473.052.561.197 1.097.308 1.64l.044-.007c.579 1.15 1.549 2.144 2.822 2.49 2.103.694 4.472-.481 5.375-2.475l.027.016c.094-.34.188-.678.268-1.018.036-.479.039-.968.005-1.45zm-1.901 2.168c-.646.795-1.592 1.451-2.664 1.347-.961-.016-1.737-.661-2.324-1.347a3.966 3.966 0 0 1-.157-2.68c.603-.954 1.604-1.759 2.797-1.654 1.093.016 1.939.788 2.507 1.639.267.898.192 1.836-.159 2.695z"/><radialGradient id="j" cx="19.848" cy="70.948" r="87.436" gradientUnits="userSpaceOnUse"><stop offset="0" stop-color="#919395"/><stop offset=".673" stop-color="#424243"/><stop offset="1" stop-color="#272525"/></radialGradient><path fill="url(#j)" d="M40.155 79.212l-.043-.228c-.76-1.545-2.219-2.837-4.023-2.885-1.907-.157-3.594 1.119-4.438 2.759a7.554 7.554 0 0 0-.122 2.885l.02.205.075-.016c.524 1.394 1.679 2.569 3.161 2.907 2.061.576 4.331-.615 5.166-2.561l.071.016c.239-1.008.365-2.058.133-3.082zm-4.418 4.161c-1.111 0-1.99-.788-2.546-1.677-.268-.971-.181-1.996.323-2.869.682-.678 1.58-1.262 2.597-1.119 1.044.038 1.836.804 2.392 1.63a4.133 4.133 0 0 1-.122 2.642c-.638.81-1.564 1.488-2.644 1.393z"/></svg>