<svg xmlns:xlink="http://www.w3.org/1999/xlink"  xmlns="http://www.w3.org/2000/svg" viewBox="0 0 150 150"><path fill="none" d="M36.4 30.6c-4.3-8.5-9.2-18.2-14.6-19.4-1.6-.4-3.2 0-4.8 1.2-.9.7-1.5 1.4-1.8 2.1-.2.4-.3.9-.3 1.4 0 5.1 9.5 12.1 17.9 18.4 3.2 2.3 6.3 4.6 8.8 6.8l.3-.3c-1.7-2.7-3.6-6.4-5.5-10.2zM42.6 41.6l-.1.1c.1.1.2.1.2.2l.1-.1c-.1 0-.2-.1-.2-.2zM46.7 46.3c.1.1.1.2.2.3l.1-.1c-.1-.1-.1-.2-.3-.2zM53 52.2c.5 1 1.1 2.1 1.7 3.4.3-.3.5-.5.8-.7-.7-1-1.6-1.8-2.5-2.7zM108.1 82.2c3.7 3.9 6.4 6.8 8.9 11.2 1.2 2.1 1.7 5.3 1.6 6.8.3-.8 1.7-3.1.9-5.1 2.6 3.4 3.5 7.8 3 12.3l6.4-6.6c-.3-1.6-1.1-3.1-2.3-4.4l-21.3-21.7c-.1 2.6.9 5.5 2.8 7.5zM104.2 73.5l-6.1-6.2c0 4.1 2 8.1 4.5 11.9-.1-1.4.3-3.6 1.6-5.7z"/><path fill="#EC2227" d="M54.7 55.6c-.3.3-.5.6-.8.9-.9 1.2-1.6 2.7-1.8 4.3 1.1-1.8 2.8-3.2 4.9-3.9-.4-.7-.9-1.4-1.5-2.1-.3.3-.6.5-.8.8z"/><path fill="#EC2227" d="M132.6 94.5l-33-33c.7-1.3 1.7-2.6 3.1-3.9-1.7.9-3.1 1.8-4.2 2.8l-1.2-1.1C93.9 55.8 86.9 53 82 53H61c-1.7 0-3.3.4-4.6 1.2.7.8 1.3 1.8 1.8 2.6.4-.1.8.1 1.2.1h19.7c4.6 0 11.1 2.5 14.4 5.9l1.8 1.8c-.4.7-.8 1.5-1.1 2.3-1.8 4.7-1.1 8.8-.6 12.8C95 77.8 97 76 99 74.6c-1.7 2.9-1.7 5.3-1.7 7.3.2 4.9 3.7 8.2 6.9 11.7 5.9 6.8 11.9 14.5 7.4 24.4-.1.3-.3.6-.4.9l-5.7 5.8c-3.1 3.2-8.7 3.8-12.4 1.3l-1.3-.9c-4.7-4.2-6.5-11.4-3.2-16.8 1.8-2.9 3.8-4.7 6.7-5.6-1.6 1.5-1.6 4.9-.4 6.3 3 3.5 7.1-.2 5.3-4.5-2.9-6.8-7.2-9.7-8.6-14.1-1.2.7-2.8.6-4.4-.6-1.5-1.1-2.5-2.4-3.4-3.9.8 1.8 1.6 3.9 1.4 6.5-.3 3.1-2.4 7.5-3.3 11.2-1.3 5.3-1.8 10.5.4 14.8L68.1 109l24.7 24.7c2.1 2.1 5 2.9 7.8 2.5 2.1-.1 4.2-1 5.9-2.6l26.3-26.3c3.3-3.5 3.3-9.3-.2-12.8zM98.1 67.3l6.1 6.2c.5-.8 1.1-1.7 1.9-2.4-.5 1-.8 2.2-.8 3.5l21.3 21.7c1.2 1.2 2 2.8 2.3 4.4l-6.4 6.6-6.2 6.4c3.1-11.2-3.9-20.9-10.3-29.7-1.1-1.6-2.3-3.2-3.4-4.8-2.5-3.8-4.6-7.8-4.5-11.9z"/><path fill="#F9EC23" d="M102.6 79.2c1.1 1.7 2.3 3.3 3.4 4.8 6.4 8.8 13.4 18.5 10.3 29.7l6.2-6.4c.5-4.5-.4-8.9-3-12.3.8 2-.6 4.4-.9 5.1.1-1.5-.4-4.7-1.6-6.8-2.5-4.4-5.2-7.3-8.9-11.2-1.9-2-2.8-4.9-2.8-7.5 0-1.3.3-2.5.8-3.5-.8.7-1.4 1.5-1.9 2.4-1.3 2.1-1.7 4.3-1.6 5.7z"/><path fill="#F69127" d="M94.9 109.1c-1.2-1.4-1.2-4.8.4-6.3-2.9.9-4.9 2.7-6.7 5.6-3.3 5.4-1.5 12.6 3.2 16.8l1.3.9c3.7 2.5 9.3 2 12.4-1.3l5.7-5.8c.2-.3.3-.6.4-.9 4.5-9.8-1.5-17.6-7.4-24.4-3.1-3.5-6.7-6.8-6.9-11.7 0-1.9 0-4.4 1.7-7.3-2.1 1.4-4 3.1-5.4 5.1-1 1.4-1.8 2.8-2.1 4.3-.7 2.7-.5 4.7.1 6.5 1.4 4.4 5.8 7.3 8.6 14.1 1.8 4.2-2.3 7.9-5.3 4.4z"/><path fill="#EC2227" d="M59.2 61.2c-.2 0-.3 0-.4-.1-.6.4-1.1 1-1.4 1.7-.8 2 .1 4.2 2 5.1 2 .8 4.2-.1 5.1-2 .8-2-.1-4.2-2-5.1-.9-.4-1.9-.4-2.8-.1v.2c-.1.2-.3.3-.5.3z"/><path fill="#1A1A1A" d="M51.1 48.9c-.2-.1-.3-.3-.5-.5-.6-.7-.9-1.1-1-1.1-.1-.1-.2-.1-.4-.1-.2-.2-.4-.4-.7-.6l.6-.5.2-.2c.1-.2 0-.4-.1-.6-.2-.3-.5-.3-.7-.1l-.7.6-.2-.2 1-.9c.1-.1.1-.1.1-.2.1-.2 0-.4-.1-.6-.2-.2-.5-.3-.8-.1l-1.1.9.7-.6c.1-.1.1-.1.1-.2.1-.2 0-.4-.1-.6-.2-.2-.5-.3-.8-.1l-.5.8-.2-.2.7-.6c.1-.1.1-.1.1-.2.1-.2 0-.4-.1-.6-.2-.2-.5-.3-.8-.1l-.6.7-.1-.1.9-.8.2-.2c.1-.2 0-.4-.1-.6-.2-.2-.5-.3-.8-.1l-.9.8s-.1-.1-.1-.2l.9-.7.2-.2c.1-.2 0-.4-.1-.6-.2-.2-.5-.3-.8-.1l-.8.7c-.1-.1-.1-.2-.2-.2l.5-.5.2-.2c.1-.2 0-.4-.1-.6-.2-.2-.5-.3-.8-.1l-.5.7c-1.7-2.6-3.5-6.2-5.4-9.9-4.4-8.7-9.5-18.6-15.3-20-1.9-.5-3.8 0-5.7 1.4-1.7 1.2-2.5 2.7-2.5 4.4 0 5.6 9.3 12.5 18.4 19.2 3.1 2.3 6.1 4.5 8.6 6.6l-.4.3c-.2.2-.3.5-.1.8.2.2.5.3.8.1l.5-.4.2.2-.9.8c-.2.2-.3.5-.1.8.2.2.5.3.8.1l1-.9.1.1-1 .9c-.2.2-.3.5-.1.8.2.2.5.3.8.1l1.1-.9.1.1-.7.2c-.2.2-.3.5-.1.8.2.2.5.3.8.1l.7-.6c0 .1.1.1.2.2l-.5.4c-.2.2-.3.5-.1.8.2.2.5.3.8.1l.5-.4-.8.7c-.2.2-.3.5-.1.8.2.2.5.3.8.1l.8-.7c0 .1.1.2.1.2l-.7.6c-.2.2-.3.5-.1.8.2.2.5.3.8.1l1.7-1.5c.7.7 1.4 1.3 2 1.9.9 1.2 2.4 3.5 4.1 7.3.2-.3.5-.6.8-.9-.6-1.3-1.1-2.4-1.7-3.4.9.9 1.8 1.8 2.5 2.7.6.7 1.1 1.4 1.5 2.1.8 1.2 1.3 2.5 1.6 3.9 0 .1.1.2.2.3.1.1.3.1.4.1.2 0 .3-.2.4-.3v-.2-.1c-.3-1.4-.8-2.7-1.5-4-.5-.8-1.1-1.6-1.8-2.4-1.4-1.8-3.2-3.5-5.2-5.4zM32.9 34.3c-8.5-6.3-18-13.3-18-18.4 0-.5.1-.9.3-1.4.3-.8.9-1.5 1.8-2.1 1.6-1.2 3.2-1.6 4.8-1.2 5.4 1.3 10.3 10.9 14.6 19.4 1.9 3.8 3.8 7.4 5.6 10.1l-.4.3c-2.5-2.1-5.6-4.4-8.7-6.7zm9.6 7.4l.1-.1c.1.1.1.2.2.2l-.1.1c-.1 0-.2-.1-.2-.2zm4.4 4.8c-.1-.1-.1-.2-.2-.3.2.1.2.2.2.3z"/></svg>