<svg xmlns:xlink="http://www.w3.org/1999/xlink"  xmlns="http://www.w3.org/2000/svg" viewBox="0 0 150 150"><path fill="none" d="M61.3 117.3c-1.4 0-2.6 1.2-2.6 2.6 0 1.4 1.2 2.6 2.6 2.6 1.4 0 2.6-1.2 2.6-2.6 0-1.4-1.2-2.6-2.6-2.6zM101.1 117.3c-1.4 0-2.6 1.2-2.6 2.6 0 1.4 1.2 2.6 2.6 2.6 1.4 0 2.6-1.2 2.6-2.6 0-1.4-1.1-2.6-2.6-2.6zM59.2 55.4c-.3-1.5-.5-3.4-.5-4.4H46.1l15.2 32.9c.4.7 1.4 1.6 2.6 2.3 1.2.7 2.5 1 3.3 1h21.1C63.3 75 59.5 57 59.2 55.4z"/><path fill="none" d="M100.3 55.7c1.6-7 7.9-12 15.2-12 1.1 0 2.3.1 3.5.4 3.2.7 6.1 2.5 8.3 4.9.6-.3 1.2-.5 1.8-.7.4-5-.4-8-.4-8.1v-.1c-1.6-7.3-8.2-12.7-15.7-12.7-1.2 0-2.4.1-3.5.4-5.6 1.2-10.2 5.4-11.9 10.9l-1.5 4.8-3.4-3.7c-3.1-3.4-7.4-5.3-11.9-5.3-1.2 0-2.3.1-3.5.4-8.7 1.9-14.2 10.6-12.3 19.3v.2c.2.9 4.5 23.1 40.8 33.1 1.5-1.2 2.9-2.5 4.2-3.8-12.9-14.1-10.1-26.6-9.7-28z"/><path fill="#2AB271" d="M112.7 100H58c-.8 0-2.2-.2-3.4-.9-1.2-.6-2.3-1.5-2.7-2.2L25.5 41.7c-1.3-1.9-3.2-3.6-5.2-4.7s-4.3-2-6.6-2h-5c-1.9 0-3.4 1.6-3.4 3.5S6.8 42 8.7 42h4.9c.8 0 2.2.5 3.4 1.2 1.2.6 2.3 1.6 2.7 2.3l26.5 55.3c1.3 1.9 3.2 3.4 5.2 4.5s4.3 1.8 6.6 1.8h54.7c1.9 0 3.4-1.7 3.4-3.6.1-1.8-1.5-3.5-3.4-3.5z"/><path fill="#E31E30" d="M61.3 110.4c-5.3 0-9.5 4.3-9.5 9.5 0 5.3 4.3 9.5 9.5 9.5 5.3 0 9.5-4.3 9.5-9.5s-4.3-9.5-9.5-9.5zm0 12.2c-1.4 0-2.6-1.2-2.6-2.6 0-1.4 1.2-2.6 2.6-2.6 1.4 0 2.6 1.2 2.6 2.6 0 1.4-1.2 2.6-2.6 2.6zM101.1 110.4c-5.3 0-9.5 4.3-9.5 9.5 0 5.3 4.3 9.5 9.5 9.5 5.3 0 9.5-4.3 9.5-9.5s-4.2-9.5-9.5-9.5zm0 12.2c-1.4 0-2.6-1.2-2.6-2.6 0-1.4 1.2-2.6 2.6-2.6 1.4 0 2.6 1.2 2.6 2.6 0 1.4-1.1 2.6-2.6 2.6z"/><path fill="#2AB271" d="M113.3 81.2c-12.2-14.7-7.8-26.1-7.8-26.1 1.6-4.8 6.2-7.7 11-7.2.8.1 1.5.2 2.3.5 3.7 1.2 6.3 4.3 7 7.9 1.4-1.2 3-2.1 4.8-2.5.4-.1.9-.2 1.3-.3l2.2-.3.3-2.2c.9-6.9-.1-11.5-.3-12.3-2.2-9.9-11.2-17.1-21.4-17.1-1.6 0-3.2.2-4.8.5-6.2 1.4-11.5 5.4-14.5 10.9-3.7-2.8-8.3-4.3-13-4.3-1.6 0-3.2.1-4.8.4C67.9 31 62 37 59.7 44H45.5c-1.6 0-3.3.5-4.6 1.5-1.4 1-2.3 2.9-2.2 4.6 0 1.5.5 2.9 1.3 4.1l15.5 33.3c1.3 2 3.1 3.5 5.1 4.6 2 1.1 4.3 1.8 6.6 1.9h36.1c1.1 0 2.1-.2 3.1-.4l.7.2 1.1-.9c2.8-2.3 5.4-4.7 7.8-7.1l1-1.1c-.1 0-.3.1-.4.1-1.2-1.3-2.3-2.4-3.3-3.6zm-49.4 4.9c-1.2-.6-2.2-1.6-2.6-2.3L46.1 51h12.6c0 1 .2 2.9.5 4.4.3 1.6 4.1 19.6 29.1 31.7H67.2c-.8 0-2.2-.3-3.3-1zm41.7 1.4C69.3 77.4 65 55.3 64.9 54.4v-.2c-1.9-8.7 3.6-17.3 12.3-19.3 1.2-.3 2.3-.4 3.5-.4 4.5 0 8.9 1.9 11.9 5.3l3.4 3.7 1.5-4.8c1.7-5.5 6.3-9.7 11.9-10.9 1.2-.3 2.3-.4 3.5-.4 7.5 0 14.1 5.3 15.7 12.7v.1s.8 3.1.4 8.1c-.6.2-1.2.4-1.8.7-2.2-2.5-5.1-4.2-8.3-4.9-1.1-.3-2.3-.4-3.5-.4-7.3 0-13.6 5-15.2 12-.4 1.4-3.2 13.9 9.6 28-1.3 1.2-2.7 2.5-4.2 3.8z"/><path fill="#E31E30" d="M136.3 54.1c-.8-.3-1.5-.4-2.3-.5-.7-.1-1.4-.1-2 0-.4 0-.8.1-1.2.2-1.8.4-3.5 1.2-4.8 2.5-.7-3.6-3.3-6.7-7-7.9-.8-.3-1.5-.4-2.3-.5-4.8-.5-9.5 2.4-11 7.2 0 0-4.4 11.4 7.8 26.1 1 1.2 2 2.4 3.2 3.6.1 0 .3-.1.4-.1 22.4-3.7 26-17.2 26-17.2 1.7-5.6-1.3-11.6-6.8-13.4z"/></svg>