<svg xmlns:xlink="http://www.w3.org/1999/xlink"  xmlns="http://www.w3.org/2000/svg" viewBox="0 0 300 300"><path fill="none" d="M124.3 62.8c2.6-.7 5.2-1.3 7.8-1.8 3.9-17.1 11.2-27.4 18.4-31.6-.5-.5-1-1-1.6-1.5-2.9.1-6.2 1.4-9.8 4.3-7.9 6.5-12.3 18.7-14.8 30.6z"/><path fill="#4CA950" d="M179.6 62.3c.8 4.1.4 19.3-7.5 32.3l-1.4.6s4.4-20.7 4.1-34c-7.1-1.5-14.4-2.3-21.9-2.3-2.5 0-5 .1-7.4.3-3.7 16.4-2.7 36.6-2.7 36.6l-5.2.3c-.5-4.5-.6-8.7-.5-12.7.8-14.8 3.9-39.4 16.2-49.8l.1-.1c4.6 9 5.1 23.1 5.1 23.1l7.8-.3c.7-7.1-2.5-19.6-9.2-25.3 2.1-1.2 4.1-1.8 5.9-1.9-1.2-.9-2.6-1.5-4.1-1.7-2-.2-4.1.1-6.2 1-1.1-.4-2.4-.5-3.6-.4.6.4 1.1.9 1.6 1.5-7.2 4.1-14.5 14.4-18.4 31.6-2.6.5-5.2 1.1-7.8 1.8 2.4-11.9 6.8-24.1 14.8-30.5 3.6-2.9 6.9-4.2 9.8-4.3-1.2-.9-2.6-1.5-4.1-1.7-9.8-1.3-23.5 10.9-28.8 39.2C75 80.3 45.6 119.7 45.6 166c0 34.5 16.3 65.1 41.6 84.7l1.7-152.1-2.4 150.9c-16.7-13.8-19.6-24.2-19.6-24.2l14.4-123.6 7.5-3.8h118L248 214.7c7.6-14.7 11.9-31.2 11.9-48.8 0-49.9-34.2-91.7-80.3-103.6z"/><path fill="#C34E5C" d="M152.8 273.1c39.3 0 73.6-21.1 92.2-52.6L99.2 258.8c15.7 9.1 34 14.3 53.6 14.3z"/><path fill="#4CA950" d="M66.9 225.3s2.9 10.4 19.6 24.2l2.4-150.9-7.5 3.5-14.5 123.2z"/><path opacity=".32" fill="#3F5588" d="M66.9 225.3s2.9 10.4 19.6 24.2l2.4-150.9-7.5 3.5-14.5 123.2z"/><ellipse fill="#4CA950" cx="136" cy="117.1" rx="4.6" ry="6.3"/><path fill="#4CA950" d="M171 114.5c0-3-1.8-5.5-3.9-5.5s-3.9 2.5-3.9 5.5 1.8 5.5 3.9 5.5 3.9-2.5 3.9-5.5zM173 57.5l7.8-.5c.7-9.6-5.9-28.7-17.9-27.9 8.8 6.3 10.1 28.4 10.1 28.4z"/><path fill="#FFDD8E" d="M102.7 243.2c-8.1 1.2-8.1 6.9-8.1 6.9l144-36.9-40.3-106c-11.6 62.3-92 135.5-95.6 136z"/></svg>