<svg xmlns:xlink="http://www.w3.org/1999/xlink"  xmlns="http://www.w3.org/2000/svg" width="100" height="100" viewBox="0 0 100 100"><radialGradient id="a" cx="50.038" cy="36.895" r="40.51" gradientUnits="userSpaceOnUse"><stop offset="0" stop-color="#7cc5f1"/><stop offset=".009" stop-color="#79c4f1"/><stop offset=".261" stop-color="#22b2ed"/><stop offset=".376" stop-color="#00abeb"/><stop offset=".465" stop-color="#00a4e3"/><stop offset=".605" stop-color="#0091cc"/><stop offset=".779" stop-color="#0072a7"/><stop offset=".979" stop-color="#004775"/><stop offset="1" stop-color="#00426f"/></radialGradient><path fill="url(#a)" d="M58.404 40.943c-6.154-.083-33.654-.023-39.803-.03.625 2.208 1.334 4.396 1.953 6.61 1.22.042 2.446.03 3.667.023-.323-1.112-.661-2.219-.996-3.325 4.606.012 30.559 0 35.162.012.006-1.1.006-2.195.017-3.29z"/><radialGradient id="b" cx="50.041" cy="36.898" r="40.504" gradientUnits="userSpaceOnUse"><stop offset="0" stop-color="#7cc5f1"/><stop offset=".009" stop-color="#79c4f1"/><stop offset=".261" stop-color="#22b2ed"/><stop offset=".376" stop-color="#00abeb"/><stop offset=".465" stop-color="#00a4e3"/><stop offset=".605" stop-color="#0091cc"/><stop offset=".779" stop-color="#0072a7"/><stop offset=".979" stop-color="#004775"/><stop offset="1" stop-color="#00426f"/></radialGradient><path fill="url(#b)" d="M69.021 41.565c.057-.215.17-.64.228-.849l.045-.006c.574-2.333 1.357-4.6 1.94-6.927.467-1.687.957-3.361 1.457-5.03 4.01-.018 8.023-.06 12.031.024.004.867.004 1.734-.006 2.602-2.351.072-4.701.024-7.049.03-.183.502-.303 1.017-.523 1.495-.732 2.423-1.451 4.839-2.201 7.244l-.027.018a89.83 89.83 0 0 1-1.211 4.062c-2.9-.018-5.803-.006-8.703-.012v-2.638c1.343 0 2.683.012 4.019-.013z"/><g><radialGradient id="c" cx="53.96" cy="60.433" r="37.161" gradientUnits="userSpaceOnUse"><stop offset="0" stop-color="#cb2229"/><stop offset=".334" stop-color="#aa181d"/><stop offset=".77" stop-color="#840c0f"/><stop offset="1" stop-color="#76070a"/></radialGradient><path fill="url(#c)" d="M26.816 63.254h15.271v-.029c7.435 0 14.873 0 22.313-.006.273-.922.548-1.849.832-2.752.622-2.242 3.445-11.502 4.086-13.942 1.246-.114 2.494-.054 3.734-.06-.672 2.56-5.512 18.112-5.967 19.888-13.418.042-26.838.013-40.26.019.018-1.042-.006-2.083-.009-3.118z"/><radialGradient id="d" cx="53.962" cy="60.432" r="37.165" gradientUnits="userSpaceOnUse"><stop offset="0" stop-color="#cb2229"/><stop offset=".334" stop-color="#aa181d"/><stop offset=".77" stop-color="#840c0f"/><stop offset="1" stop-color="#76070a"/></radialGradient><path fill="url(#d)" d="M61.5 68.5c2.213.574 3.721 2.967 3.266 5.21-.338 2.381-2.82 4.127-5.18 3.708-2.498-.287-4.357-2.931-3.795-5.383.406-2.542 3.242-4.301 5.709-3.535z"/><radialGradient id="e" cx="53.959" cy="60.435" r="37.163" gradientUnits="userSpaceOnUse"><stop offset="0" stop-color="#cb2229"/><stop offset=".334" stop-color="#aa181d"/><stop offset=".77" stop-color="#840c0f"/><stop offset="1" stop-color="#76070a"/></radialGradient><path fill="url(#e)" d="M32.906 68.44c2.356.431 4.041 2.931 3.535 5.281-.344 2.351-2.785 4.109-5.129 3.702-2.279-.238-4.091-2.451-3.903-4.73-.027-2.74 2.88-4.886 5.497-4.253z"/></g></svg>