<svg xmlns:xlink="http://www.w3.org/1999/xlink"  xmlns="http://www.w3.org/2000/svg" width="100" height="100" viewBox="0 0 100 100"><path fill="#FFF" d="M29.819 70.968c2.93-2.28 8.038 2.045 4.801 4.847-3.111 3.622-9.384-2.127-4.801-4.847zM58.771 73.088c2.402-1.467 6.418.967 5.268 3.867-1.145 2.872-5.807 2.956-7.01.119-.873-1.475.219-3.457 1.742-3.986z"/><radialGradient id="a" cx="56.145" cy="31.694" r="60.959" gradientUnits="userSpaceOnUse"><stop offset="0" stop-color="#cb2229"/><stop offset=".334" stop-color="#aa181d"/><stop offset=".77" stop-color="#840c0f"/><stop offset="1" stop-color="#76070a"/></radialGradient><path fill="url(#a)" d="M17.184 12.528c4.207-2.343 9.502-1.356 13.33 1.272 3.508 2.49 5.149 6.794 5.765 10.904 1.22 8.873-.376 17.802-2.556 26.39 7.207-1.008 14.373-2.392 21.669-2.622 5.193-.382 10.384.222 15.593.208a233.622 233.622 0 0 0 1.637-4.402c-11.716-.813-23.197-4.144-35.011-3.449 3-3.269 7.722-3.143 11.78-3.776 8.483-.716 17.309-1.3 25.559 1.287.438-1.078.883-2.155 1.321-3.233-9.571-4.262-20.173-2.684-30.259-4.026 5.215-4.611 12.596-5.181 19.249-5.265 6.658.174 13.744.856 19.571 4.368 1.658 2.037-.07 4.401-.904 6.383-2.758 5.382-4.406 11.237-6.073 17.038-.729 2.677-3.84 4.478-6.51 3.623-13.769-3.311-28.059-1.648-41.855.507-1.269.452-3.803-.201-3.102-2.009 2.466-10.403 6.492-20.89 5.379-31.759-.428-6.126-7.535-10.952-13.236-8.185-4.385 1.759-6.144 4.917-8.78 9.625.684-4.993 2.701-10.431 7.433-12.879z"/><path fill="#386290" d="M35.612 61.907c12.781-1.76 25.948-2.615 38.663.118 4.749 1.043 10.733 3.136 11.985 8.463 1.064 5.696-6.499 9.756-10.862 6.21 2.386-.264 5.09-1.063 3.755-4.188-1.244-2.906-6.112-3.67-9.491-4.568-15.038-3.066-30.521-3.212-45.767-2.155a10.802 10.802 0 0 1-2.006-.41c4.282-2.114 9.06-2.754 13.723-3.47z"/><path fill="#386290" d="M29.989 68.333c5.066-2.428 12.875 2.225 10.911 8.197-2.079 6.371-12.218 6.83-15.086.855-1.92-3.552.546-7.912 4.175-9.052zm-.17 2.635c-4.409 2.997 1.429 8.232 4.801 4.847 3.023-3.032-1.738-6.947-4.801-4.847zM57.687 71.003c4.77-2.74 12.604.466 12.016 6.55-.754 7.106-11.728 8.525-15.065 2.615-2.128-3.198-.292-7.664 3.049-9.165zm1.084 2.085c-1.523.529-2.615 2.511-1.742 3.986 1.203 2.837 5.865 2.753 7.01-.119 1.15-2.9-2.865-5.334-5.268-3.867z"/></svg>