<svg xmlns:xlink="http://www.w3.org/1999/xlink"  xmlns="http://www.w3.org/2000/svg" viewBox="0 0 300 300"><path fill="none" d="M166.4 261.2c16.4-5.4 31.1-14.5 43.2-26.4-12 11.9-26.8 21-43.2 26.4zM200 206.8v-7.7c0-5.1-4.1-9.2-9.2-9.2-2.5 0-4.8 1-6.5 2.7-1.7 1.7-3.3 4.1-3.3 6.5v7.9c5 0 14-.1 19-.2zM163 191.6v-10.4c0-6.8-5.7-12.4-12.5-12.4s-12.5 5.6-12.5 12.4v10.6c7 0 18-.1 25-.2z"/><path fill="#0193D7" d="M209.6 234.8c2.3-15.2 1.7-28.2 1.7-28.2s-4.2.1-6.2.1V199c0-6.7-6.2-12.1-12.9-12.1-3.2 0-6.8 1.3-9.1 3.5-2.3 2.3-4.1 5.3-4.1 8.6v7.9h-2c-.2 13.8-2.1 36.5-10.6 54.3 16.4-5.4 31.2-14.5 43.2-26.4zM181 199.1c0-2.5 1.5-4.8 3.3-6.5 1.7-1.7 4-2.7 6.5-2.7 5.1 0 9.2 4.1 9.2 9.2v7.7c-5 .1-14 .2-19 .2v-7.9zM131.8 45.3c20.4 0 39.5 5.5 55.9 15.1-45.5 18.4-125 15.3-125 15.3 70.4 16.3 125 1.1 140.7-4.2 9.7 8.2 17.9 18 24.3 29-72.6 27.6-179.5 13.9-180 14.3 86.3 29.5 167.7 7.7 187.5 1.5.6 1.6 1.2 3.1 1.7 4.7H229l20.7 28.3 20.4-28.4h-7.9C247.1 70.4 200.4 33.5 145 33.5 96.4 33.7 54.4 62 34.7 103c18.7-34.4 55.2-57.7 97.1-57.7z"/><path fill="#006DB6" d="M229 190.1h8.2c-5.5 17.1-15.1 32.4-27.6 44.7-12 11.9-26.8 21-43.2 26.4 8.5-17.8 10.6-40.5 10.6-54.3 0-9.3-.1-15.5-.1-15.5s-1.9.1-8.9.2v-10.3c0-9-8.5-16.3-17.5-16.3s-17.5 7.3-17.5 16.3v10.6c-5 0-7.1-.2-7.2-.4-11.3 39.2-33.3 58.4-41.8 64.6-21-10.1-38.3-26.5-49.4-46.8 19.8 41 61.7 69.3 110.3 69.3 55.7 0 102.7-37.3 117.5-88.2h7.7L249.7 162 229 190.1zm-91-8.9c0-6.8 5.7-12.4 12.5-12.4s12.5 5.6 12.5 12.4v10.4c-7 .1-18 .2-25 .2v-10.6z"/></svg>