<svg xmlns:xlink="http://www.w3.org/1999/xlink"  xmlns="http://www.w3.org/2000/svg" viewBox="0 0 300 300"><linearGradient id="a" gradientUnits="userSpaceOnUse" x1="152.122" y1="172.219" x2="-406.862" y2="863.647"><stop offset="0" stop-color="#ca5262"/><stop offset="1" stop-color="#45505f"/></linearGradient><path fill="url(#a)" d="M183.2 177.4c-36.3-32.3-111.8-51.1-111.8-51.1 22.4 40.3 30.7 107.5 30.7 107.5l81.1 45.7-1.2-.7c-2-36.2 1.2-97.9 1.2-101.4zm-69.9-3.3c7-16.8 4.2-24.2 4.2-24.2 8.4 2 5.6 10.8 1.4 21.5-4.2 10.8-3.5 14.1 4.9 14.1 11.2 0 18.2-26.9 18.2-26.9l4.2 1.3c-9.1 44.4-39.9 31-32.9 14.2z"/><linearGradient id="b" gradientUnits="userSpaceOnUse" x1="199.904" y1="210.848" x2="-359.081" y2="902.276"><stop offset="0" stop-color="#ca5262"/><stop offset="1" stop-color="#45505f"/></linearGradient><path fill="url(#b)" d="M205.5 150.5l-22.4 26.9c0 3.5-3.2 65.2-1.2 101.5l1.2.7 14-21.5s11.2 2.7 8.4-2.7c5.6-72.6 28-107.5 28-107.5l-28 2.6z"/><path opacity=".25" fill="#45505F" d="M205.5 150.5l-22.4 26.9c0 3.5-3.2 65.2-1.2 101.5l1.2.7 14-21.5s11.2 2.7 8.4-2.7c5.6-72.6 28-107.5 28-107.5l-28 2.6z"/><path fill="#FFC246" d="M52.5 74.2l7 11.2L68.9 75l18.5-.9-12.3-9 4.4-11.7-17 4.8-15.8-6.4 1.9 12.1-14.2 7.8z"/><path fill="#FFAF3A" d="M226 109.4l6.2 10.8 8.3-8.6 16.5 1-11-9.4 3.9-10.2-15.1 2.8-14-7.3 1.7 11.1-12.6 5.8zM127.8 59.1l8.6-6.3 9.9 2.8-3.1-9.4 6.5-8.3-10.5.6-5.8-8-3.4 9.8-10.1 3.4 8.4 5.4z"/><path fill="#FFC246" d="M193.1 82.9l5.5-5.3 8.1 1.3-4.1-6.6 3.5-6.6-8 1.3-6-5.4-.8 7.4-7.2 3.2 7.5 3.3zM72.1 80c-3.5-.7-9.8 8.1-9.8 8.1 23.1 12.8 25.2 40.3 25.2 40.3-.1-31-11.9-47.8-15.4-48.4z"/><path fill="#FFAF3A" d="M85.3 77.3l-7.7 1.3s9.8 8.1 12.6 26.9c2.1 11.4 4.9-14.8-4.9-28.2zM135.7 57.8l-7 4.7s13.3 28.9-14 66.5c-2.8 3.4 32.8-27.5 21-71.2z"/><path fill="#FFC246" d="M145.4 58.4l-5.6-.7s6.3 21.5-6.3 49.7c.1 2.1 13.3-21.4 11.9-49zM189.5 82.6c-.7 0 .7-5.4.7-5.4l-7-2.7s-30.8 9.4-43.3 57.1c-.7 2.8 14.6-36.2 49.6-49z"/><path fill="#FFAF3A" d="M228.6 121l-5.6-11.4c-37.7 24.9-39.8 61.8-39.8 62.5 15.4-43.1 45.4-51.1 45.4-51.1z"/><path fill="#FFC246" d="M217.4 110.9l-8.4-3.4s-14.7 12.1-22.4 38.3c10.6-20.1 17.5-28.9 30.8-34.9z"/><path fill="#FFAF3A" d="M100 90c11.2 19.5 8.4 37 8.4 37 8.4-49.1-19.6-56.5-8.4-37zM79.7 123.6c-25.9-32.3-47.5-16.1-29.4-14.1 18.3 2 29.4 14.1 29.4 14.1z"/><path fill="#FFC246" d="M115.4 110.2c14-56.5-25.9-68.6-11.2-45.7 14.7 22.8 11.2 45.7 11.2 45.7zM100 47s-1.4-8.7-7.7-6.7c-6.3 2-2.8 11.4 7.7 6.7zM158 71.9c-13.3 8.7-25.9 49.7-25.9 49.7 11.2-28.2 39.2-58.4 25.9-49.7z"/><path fill="#FFAF3A" d="M176.2 107.5c-18.2 11.4-22.4 33.6-22.4 33.6 6.3-14.8 21-24.9 29.4-28.2 8.4-3.4 4.2-12.1-7-5.4z"/><path fill="#FFC246" d="M211.1 141.8s16.1-11.4 34.9-10.8c19 .7-6.9-18.8-34.9 10.8z"/><path fill="#FFAF3A" d="M167.8 61.8c-3.5-.7-3.5 2.7-3.5 2.7 4.9 4.7 7-2 3.5-2.7zM185.3 94.8c-.9.6-1.6 1.3-2.1 2 0 0 .8-.8 2.1-2zM201.4 86.7c-4.7-1.5-12.4 4.8-16.1 8.1 6.5-4.6 21.6-6.3 16.1-8.1zM267.7 118.9c-2.8-4.7-11.2 0-11.2 0 5.7 0 14 4.7 11.2 0zM94.4 113.6c2.8 4 4.2 12.8 4.2 12.8 2.1-18.9-7-16.9-4.2-12.8z"/><path fill="#FFC246" d="M179.7 125.7c-14 1.3-16.1 21.5-16.1 21.5 3.5-11.5 26.6-22.9 16.1-21.5z"/><path fill="#FFAF3A" d="M125.9 136.4s6.3-7.4 1.4-7.4-1.4 7.4-1.4 7.4zM158 117.6c-8.4 4.7-9.8 22.9-9.8 22.9.7-8.8 17.5-26.9 9.8-22.9z"/><path fill="#FFFFFE" d="M123.8 185.5c-8.4 0-9.1-3.4-4.9-14.1 4.2-10.8 7-19.5-1.4-21.5 0 0 2.8 7.4-4.2 24.2-7 16.8 23.8 30.2 32.8-14.1l-4.2-1.3c.1-.1-6.9 26.8-18.1 26.8z"/></svg>