<svg xmlns:xlink="http://www.w3.org/1999/xlink"  xmlns="http://www.w3.org/2000/svg" viewBox="0 0 150 150"><path fill="none" d="M94.1 43.9c.9-5.9.2-12.1-2.7-17.4-2.6-4.8-7.2-8.6-12.6-9.8-5.4-1.3-11.4.3-15.3 4.3-5.9 5.9-7.1 14.8-6.9 22.8 12.5.1 25 0 37.5.1z"/><path fill="#00AB57" d="M37.7 120.5l-.2.2c-3.9-4.3-7.8-8.5-11.7-12.8v10c4.7 2.4 9.6 4.2 14.6 5.5l-2.7-2.9zM99.7 65c.7-3.2-3.1-6-6-4.4-2.7 1.1-3.2 5-1.1 6.9 2.3 2.2 6.8.8 7.1-2.5z"/><path fill="#00AB57" d="M34.9 86.7c10.6-9.4 21-19.1 31.4-28.6 1-1 2.3-1.4 3.7-1.7 7.5-1.6 15-3.3 22.5-4.9 5.4 6 10.9 11.9 16.3 17.9.9.7.6 1.9.4 2.9-2.3 7.8-5.2 15.4-7.2 23.3-1.1 1-2.3 2.1-3.4 3.1l-.1-.1-13.2 12.2-3.9 3.6v-.1L68 126.8c7.4 0 14.8-.7 22-2 7.9-1.6 15.8-4 22.8-8.1 4.8-2.8 9.3-6.5 11.9-11.5.8-1.4.5-3.1.6-4.6V44c-8.4-.1-16.8 0-25.2 0-.3-8-1.9-16.4-6.9-22.9-4-5.4-10.4-9.1-17.2-9.3-6.4-.2-12.7 2.9-16.8 7.7-5.8 6.7-7.7 15.8-8.1 24.4H26v51.4c3-2.8 6-5.6 9.1-8.3l-.2-.3zM63.5 21c3.9-4 9.9-5.7 15.3-4.3 5.4 1.2 10 5 12.6 9.8 2.9 5.2 3.6 11.5 2.7 17.4H56.6c-.2-8 1-16.9 6.9-22.9z"/><radialGradient id="a" cx="-837.834" cy="144.273" r="177.505" gradientTransform="matrix(-1 0 0 1 -744.672 0)" gradientUnits="userSpaceOnUse"><stop offset="0" stop-color="#00adee"/><stop offset=".394" stop-color="#26a9e0"/><stop offset=".648" stop-color="#1b75bb"/><stop offset=".836" stop-color="#2b388f"/><stop offset="1" stop-color="#130843"/></radialGradient><path fill="url(#a)" d="M139.2 110.3c-1.9-7.2-7.6-12.4-13.2-16.8 2.2 4 3.6 8.8 2.5 13.4-1.2 5.5-5.4 9.8-10 12.9-7.5 5.1-16.2 8.2-25.1 9.6-27.1 4.4-48.1-.6-48.1-.6-14-2.7-30.8-7.8-35.8-19.6-2.2 4.8 8.6 17.5 15.2 21.5 9.1 5.7 19.6 8.9 30.1 10.7 11 1.8 22.2 1.9 33.3.9 9.8-.9 19.5-2.7 28.8-6 6.8-2.6 13.6-5.9 18.5-11.4 3.4-4 5.3-9.5 3.8-14.6z"/></svg>