<svg xmlns:xlink="http://www.w3.org/1999/xlink"  xmlns="http://www.w3.org/2000/svg" viewBox="0 0 150 150"><path fill="none" d="M42.3 32.3l-.6-.6c-8-7.8-18.2-10.9-22.4-6.6-1.6 1.7-2.1 4.3-1.6 7.3l.4.2c.9 4.3 3.7 9.2 8 13.5 4.1 4 8.7 6.7 12.8 7.7L37.7 37c-.2-2.4 1.8-4.3 4.6-4.7zM49.6 44c-.5-1.7-1.3-3.4-2.3-5.2l-1.1-.1c-1.1-.1-2 .6-1.9 1.5l1.2 13.5c.4-.2.9-.4 1.2-.7-.4-1-.7-2-.7-3.2 0-2.6 1.4-4.8 3.6-5.8z"/><path fill="#6EC9C3" d="M49.6 44c.9-.4 1.9-.7 2.9-.7.9 0 1.8.2 2.6.5-.4-1.4-.9-2.9-1.5-4.4l-6.3-.7c1 1.8 1.8 3.6 2.3 5.3z"/><path d="M132.4 104.3l-.2-.2-45.8-45.4c-5.4-5.3-12.6-2.8-18.7 3s-8.9 12.7-3.5 18.1l36.8 36.9c1.3 1.3 7-3.8 5.6-5.3L69.7 74.5c-2.6-2.7-.5-5.4 2.5-8.3 3-2.9 5.9-4.9 8.6-2.3l45.5 45.1.3.3.2.2c4.5 4.7.5 9-4.9 14-5.3 5-10.1 8.9-14.8 4.2L47.9 69.1l-.1-.1c-.4-.5-1-.9-1-1.4l-.8-8.8c-2 .5-4.3.6-6.7.2l.8 11.4c.1 1.4.9 2.8 2.1 3.9l31.3 31 28.1 27.8c7.5 7.4 16.6 3.1 25-4.9 8.3-7.9 13-16.5 5.8-23.9z"/><path d="M42.3 32.3c-2.8.4-4.8 2.3-4.6 4.7l1.2 16.7c2.5.6 4.8.6 6.6-.1l-1.2-13.5c-.1-.9.8-1.6 1.9-1.5l1.1.1 6.3.7 20.7 2.1c.2 0 .8.5 1.4 1.1l.1.1 50.3 50c1.4 1.4 6.9-3.7 5.6-5.3l-50.5-50c-1.4-1.2-3.4-2.1-5.5-2.3l-26-2.3-5.2-.5c-.8-.1-1.5-.1-2.2 0z"/><path d="M49.6 44c-2.2 1-3.6 3.2-3.6 5.8 0 1.1.3 2.2.8 3.2.3-.2.5-.4.8-.6 1.2-1.3 1.7-3.1 1.7-5.2l4.9 2.3c-.3 2.5-1.3 4.8-3 6.5-.1.1-.2.1-.3.2.5.1 1 .2 1.6.2 3.6 0 6.5-2.9 6.5-6.5 0-2.7-1.6-5-3.9-6-.8-.3-1.7-.5-2.6-.5-1-.1-2 .1-2.9.6z"/><path fill="#6EC9C3" d="M46 58.8c1.9-.5 3.5-1.4 4.9-2.7.1-.1.2-.1.3-.2 1.7-1.7 2.6-4 3-6.5l-4.9-2.3c0 2.1-.4 4-1.7 5.2-.2.2-.5.4-.8.6-.4.3-.8.5-1.2.7-1.8.7-4.1.7-6.6.1-4.1-1-8.8-3.7-12.8-7.7-4.3-4.3-7.1-9.2-8-13.5l-.4-.2c-.5-3 0-5.6 1.6-7.3 4.2-4.2 14.4-1.2 22.4 6.6l.6.6c.7-.1 1.4-.1 2.1-.1l5.2.5c-1.2-1.7-2.6-3.3-4.2-4.8C35.1 17.6 22 14.7 15.6 21.2c-2.3 2.4-3.4 5.6-3.3 9.3l.5.2c.4 5.9 3.8 12.9 9.8 18.8 5.3 5.2 11.4 8.4 16.8 9.3 2.3.6 4.6.5 6.6 0z"/></svg>