<svg xmlns:xlink="http://www.w3.org/1999/xlink"  xmlns="http://www.w3.org/2000/svg" viewBox="0 0 300 300"><path fill="#6CAB36" d="M106.8 159.1c69.1-12.1 136.7-70.6 136.7-70.6s-17.5-19.4-22.2-26c-39.4 50.6-129.5 90.2-146.4 82.3-12.6-5.9-6.2-23.8-4.6-27.8l-.1-.3c-17.1 19.3-10.8 50.7 36.6 42.4z"/><path fill="#27628E" d="M251.8 125.5l-17.6-20.1c-131.7 93.9-159.3 52-159.3 52 19.3 71.3 176.9-31.9 176.9-31.9z"/><circle fill="#C9CBCC" cx="210.3" cy="234" r="17.8"/><path fill="#C9CBCC" d="M269 119c-33.8 24-121.3 80.3-174.2 65.9l3 8.7s7.5 17.3 33.8 17.3h87c26.3 0 33.8-17.3 33.8-17.3l26.8-74.7H269zM79.1 141.3c8.5-.5 32.4-4.3 60.4-22.3H95.9L79 76H28.3c-6.4 0-11.6 3.3-11.6 8s5.2 8 11.6 8h32.9l9 24.8.1.2 8.8 24.3z"/><circle fill="#C9CBCC" cx="136.1" cy="234" r="17.8"/></svg>