<svg xmlns:xlink="http://www.w3.org/1999/xlink"  xmlns="http://www.w3.org/2000/svg" viewBox="0 0 300 300"><path fill="none" d="M178 95.8c4.5 16.5-1.1 34.7-15.5 45.6-18.9 14.2-45.8 10.4-60-8.5-11.9-15.8-11.2-37.1.4-52-10.7 8.2-17.6 20-19.4 33.3-1.9 13.5 1.6 26.9 9.8 37.8 8.2 10.9 20.1 17.9 33.6 19.8 13.5 1.9 26.9-1.6 37.8-9.8 20.6-15.5 26-44.2 13.3-66.2zM181.6 163.6l2.4 3.2v-6c0 .9-1.5 1.9-2.4 2.8z"/><path fill="#006DB6" d="M142 34.6c-3-.2-5-.4-7-.4v23.3c2 0 4 .2 7 .4V34.6zM151 36.3c-1-.3-1-.6-3-.8v23.4c2 .3 2 .6 3 1V36.3zM195 135.1v43.3c4-3.1 6-6.4 9-9.8V72.4c-3-3.5-5-6.7-9-9.8v45c2 9.1 2 18.5 0 27.5zM188 88V54.9c0-1.2-2-2.3-4-3.4V82c2 .3.4.6.6.9 1.3 1.7 3.4 3.4 3.4 5.1zM129 34.1c-1 .1-5 .3-7 .5v23.8c2-.5 6-.8 7-.9V34.1zM113 35.9c0 .3-2 .6-4 1v24.9c2-.5 4-1 4-1.5V35.9zM93 72V43.5c-2 1.3-6 2.8-7 4.4v31.6c1-2.7 5-5.2 7-7.5zM179 47.3c-2-1.4-6-2.6-7-3.8v26.1c1 1.7 5 3.6 7 5.6V47.3zM135 185.4v21.5c2-.1 4-.2 7-.4V185c-3 .3-5 .4-7 .4zM166 41.4c-2-1.1-4-2.1-7-3v24.3c3 1.1 5 2.5 7 4V41.4zM159 180.1v22.5c3-.9 5-1.9 7-3v-12.5l-5.6-7.8c-.5.3-1.4.6-1.4.8zM122 184.4v22c2 .3 6 .5 7 .5v-21.6c-1-.1-3.1-.3-4.8-.5-.9-.1-2.2-.3-2.2-.4zM76 53.6c0 1.2-1 2.4-3 3.6v43c2-3.2 2-6.4 3-9.4V53.6zM148 205.6c2-.2 2-.5 3-.8V183c-1 .4-1 .8-3 1.1v21.5zM109 204.1c2 .4 4 .7 4 1v-22.7c0-.4-2-.9-4-1.5v23.2zM62 168.7c2 3.1 3 6 5 8.7V63.6c-2 2.8-3 5.7-5 8.7v96.4zM98 199.6c2 1 4 1.8 8 2.6v-24.1c-4-1.2-6-2.6-8-4.1v25.6zM215 95.8c-1-5.7-3-11.1-7-16.2v82c4-5.1 6-10.6 7-16.2V95.8zM172 197.6c0-.4 1.7-.9 2.5-1.4l-2.5-3.3v4.7zM106 38.8c-4 .8-6 1.7-8 2.6v27.4c2-1.5 4-2.9 8-4.1V38.8zM86 163.2v29.9c1 1.6 5 3.1 7 4.4v-26.8c-2-2.2-6-4.7-7-7.5zM184 166.8l4 5.5v-17.6c0 2.1-2 4.1-4 6v6.1zM73 183.8c2 1.3 3 2.5 3 3.6V152c-1-3-1-6.2-3-9.4v41.2zM49 141.8c1.8 6.9 4 13.6 7 19.7v-82c-3 6.2-5.2 12.8-7 19.7v42.6z"/><path fill="#B9DCF5" d="M102.4 133c14.2 18.9 41.1 22.7 60 8.5 14.5-10.9 20.1-29.2 15.5-45.6-1-1.7-2.1-3.5-3.4-5.1-16.9-22.5-48.9-27-71.4-10.1-.1.1-.3.2-.4.3-11.5 14.9-12.1 36.2-.3 52zm22.1-15.3c4.2-3.2 10.1-2.3 13.3 1.9 3.2 4.2 2.3 10.1-1.9 13.3-4.2 3.2-10.1 2.3-13.3-1.9-3.1-4.2-2.2-10.1 1.9-13.3z"/><circle fill="#FFFFFE" cx="130.3" cy="125.3" r="9.5"/><path fill="#0193D7" d="M260.5 259.9L202 182.2c-.5-.6-1.4-.7-2.1-.1l-2.6 2-8.8-11.7-4.2-5.5-2.4-3.2c.8-.9 1.6-1.9 2.4-2.9 1.5-1.9 2.9-4 4.2-6 3.7-6.1 6.3-12.7 7.8-19.6 2-9 2-18.5 0-27.6-1.5-6.8-4.1-13.3-7.8-19.5-1.1-1.7-2.2-3.5-3.5-5.1-.2-.3-.5-.6-.7-.9-1.9-2.5-4-4.8-6.2-6.9-2.1-2-4.4-3.9-6.7-5.6-1.4-1-2.8-2-4.3-2.8-2.5-1.5-5-2.8-7.7-4-2.6-1.1-5.2-2.1-7.8-2.8-1.4-.4-2.8-.7-4.2-1-2.1-.4-4.1-.8-6.2-1-2.2-.3-4.5-.4-6.7-.4-1.4 0-2.9 0-4.3.1-2.6.1-5.1.5-7.7.9-2.6.5-5.3 1.1-7.8 1.9-1.4.4-2.8.9-4.2 1.5-2.1.8-4.2 1.8-6.2 2.8-2.3 1.2-4.5 2.6-6.7 4.1l-2.1 1.5c-.8.6-1.5 1.2-2.2 1.8-2.8 2.3-5.3 4.8-7.7 7.5-3 3.5-5.7 7.3-7.8 11.3-1.6 3-3 6.1-4.2 9.4-1.4 3.9-2.4 8-3 12.3-1.5 10.3-.4 20.6 3 30.1 1.1 3.2 2.5 6.3 4.2 9.4 1.5 2.7 3.2 5.4 5.1 7.9.9 1.2 1.8 2.3 2.7 3.4 2.4 2.7 4.9 5.3 7.7 7.5 1.4 1.2 2.8 2.2 4.3 3.3 2.2 1.5 4.4 2.9 6.7 4.1 2 1.1 4.1 2 6.2 2.8l4.2 1.5c2.6.8 5.2 1.5 7.8 1.9.8.2 1.7.3 2.5.4 1.7.2 3.4.4 5.2.5 1.4.1 2.9.1 4.3.1 2.3 0 4.5-.2 6.7-.4 2.1-.2 4.2-.6 6.2-1 1.4-.3 2.8-.7 4.2-1.1 2.7-.8 5.3-1.7 7.8-2.8.6-.3 1.2-.5 1.8-.8l5.9 7.8 4.3 5.7 2.5 3.3 2.6 3.4-2.6 2c-.7.5-.9 1.5-.5 2.1l58.5 77.7c.5.6 1.4.7 2.1.1l26-19.6c.8-.5 1-1.5.5-2.1zm-133.8-88c-13.5-1.9-25.4-8.9-33.6-19.8-8.2-10.9-11.7-24.3-9.8-37.8 1.9-13.3 8.8-25.1 19.4-33.3.1-.1.3-.2.4-.3 22.5-16.9 54.5-12.4 71.4 10.1 1.2 1.7 2.4 3.4 3.4 5.1 12.8 22 7.4 50.6-13.5 66.3-10.7 8.1-24.2 11.6-37.7 9.7zm112.6 97.6l-4.5 3.4c-.8.6-1.9.5-2.5-.2l-49.9-66.3c-.5-.7-.3-1.8.5-2.4l4.5-3.4c.8-.6 1.9-.5 2.5.2l49.9 66.3c.6.7.3 1.8-.5 2.4z"/><path fill="#ADCEED" d="M189.9 200.7c-.5-.7-1.6-.8-2.5-.2l-4.5 3.4c-.8.6-1.1 1.7-.5 2.4l49.9 66.3c.5.7 1.6.8 2.5.2l4.5-3.4c.8-.6 1.1-1.7.5-2.4l-49.9-66.3z"/></svg>