<svg xmlns:xlink="http://www.w3.org/1999/xlink"  xmlns="http://www.w3.org/2000/svg" width="100" height="100" viewBox="0 0 100 100"><path fill="#5A8F4B" d="M89.758 10.225l-13.871 26.92-.043 25.319s-.124 12.989-9.172 13.506l-21.542-.503 44.628-65.242z"/><path fill="#CB2229" d="M40.672 72.678l49.086-62.453L40.251 60.25 20.084 38.711l-6.126 5.643z"/><path fill="#E7AB30" d="M10.229 47.045l28.432 29.003s-8.559 1.555-15.769-9.286L10.229 47.045z"/><path fill="#2F4F9A" d="M62.236 24.154l-25.492-.169s-6.831-.646-10.541 4.121c0 0-4.179 5.806.121 10.547l14.155 16.118 31.08-28.454c.001-.001.63-2.019-9.323-2.163zm-20.3 21.885l-10.09-11.808c-1.861-2.573 4.607-2.194 4.607-2.194l28.086.712-22.603 13.29z"/><path fill="#CB2229" d="M63.416 75.943c1.754 2.566 1.678 5.676-.174 6.936-1.845 1.268-4.768.203-6.523-2.371-1.754-2.572-1.676-5.682.173-6.941 1.848-1.261 4.767-.197 6.524 2.376z"/><path fill="#2F4F9A" d="M37.515 75.943c1.753 2.566 1.675 5.676-.17 6.936-1.851 1.268-4.774.203-6.527-2.371-1.753-2.572-1.679-5.682.17-6.941 1.851-1.261 4.77-.197 6.527 2.376z"/></svg>