<svg xmlns:xlink="http://www.w3.org/1999/xlink"  xmlns="http://www.w3.org/2000/svg" viewBox="0 0 300 300"><path fill="#E57B3D" d="M162.1 103c13 1.3 24.6 7 33.4 15.7l20.2-11.9.9-.5.5.9 26.4 45L270.7 82l-30.5-11.8c-.6 2.9-1.5 5.8-2.6 8.7.8.5 1.5 1.2 1.9 2.1.5 1.1.5 2.4.1 3.5s-1.3 2-2.4 2.5c-1.1.5-2.4.5-3.5.1-2.3-.9-3.5-3.6-2.6-5.9.7-1.9 2.6-3 4.6-2.9 1.1-2.9 2-5.9 2.6-8.8L187 49.6c-1.5 2.6-2.8 5.3-4 8.1 2 1.1 2.9 3.5 2.1 5.6-.9 2.3-3.6 3.5-5.9 2.6-1.1-.4-2-1.3-2.5-2.4-.5-1.1-.5-2.4-.1-3.5s1.3-2 2.4-2.5c.7-.3 1.3-.4 2-.4 1.1-2.9 2.5-5.7 4-8.3l-26.2-10.1-9.3 24.1 12.6 40.2z"/><path fill="#A489D7" d="M254.2 223.7c1.4 2.4 2.6 4.9 3.6 7.4l21.9-12.8-63.9-109.1-18.9 11.1c9.2 9.8 14.8 23 14.8 37.4 0 29.3-23.1 53.4-52 54.9l-4.9 8.2 30.8 52.6 25.6-15c-1.7-2.1-3.2-4.3-4.6-6.6-1.9.7-4.1 0-5.1-1.8-.6-1-.7-2.1-.4-3.2.3-1.1 1-2 2-2.6 1-.6 2.1-.7 3.2-.4 1.1.3 2 1 2.6 2 1 1.6.7 3.6-.5 4.9 1.4 2.4 3 4.7 4.7 6.7l43.1-25.2c-1-2.4-2.1-4.9-3.5-7.3-.8.3-1.7.4-2.6.2-1.1-.3-2-1-2.6-2-.6-1-.7-2.1-.5-3.2.3-1.1 1-2 2-2.6 1-.6 2.1-.7 3.2-.4 1.1.3 2 1 2.6 2 .6 1 .7 2.1.4 3.2-.2.6-.6 1.1-1 1.6z"/><path fill="#130000" d="M282.6 219l-.5-.9-37.3-63.6L273 81.8l.4-1-1-.4-31.8-12.3c1.7-9.5 1-18.9-2.4-26.4-2.9-6.6-7.6-11.3-13.4-13.6-5.9-2.3-12.5-1.9-19.1 1-7.5 3.3-14.4 9.7-19.6 18l-27.5-10.7-1-.4-.4 1-8.8 22.7-9.7-30.9-.3-1-1 .3L105 38.2c-4.6-8.5-11-15.4-18.3-19.2-6.4-3.4-13-4.1-19-2.3-6 1.9-11 6.3-14.3 12.7-3.8 7.3-5.2 16.6-4.1 26.2l-28.2 8.8-1 .3.3 1 34.9 111.8-32 53.8-.5.9.9.5 25.3 15c-5.4 15.1-2.6 30.3 7.8 36.5 4.7 2.8 10.4 3.5 16.5 1.9 6.9-1.7 13.7-6.2 19.3-12.5l21.8 13 .9.5.5-.9 37.8-63.5 30.8 52.5.5.9.9-.5 26.8-15.7c5.8 6.6 13 11.4 20.2 13.3 6.4 1.7 12.4 1 17.4-1.9 11-6.4 14-22.4 8.4-38.4l23.1-13.6.9-.3zm-30.5 3.9c-.5.3-1.1.4-1.7.2-.6-.1-1-.5-1.3-1-.3-.5-.4-1.1-.2-1.7.1-.6.5-1 1-1.3.5-.3 1.1-.4 1.7-.2.6.1 1 .5 1.3 1 .3.5.4 1.1.2 1.7-.1.5-.5 1-1 1.3zm2.6-4.1c-.6-1-1.5-1.7-2.6-2-1.1-.3-2.2-.1-3.2.4-1 .6-1.7 1.5-2 2.6-.3 1.1-.1 2.2.5 3.2s1.5 1.7 2.6 2c.9.2 1.8.2 2.6-.2 1.4 2.4 2.5 4.8 3.5 7.3L213 257.4c-1.7-2.1-3.3-4.3-4.7-6.7 1.2-1.3 1.4-3.3.5-4.9-.6-1-1.5-1.7-2.6-2-1.1-.3-2.2-.1-3.2.4-1 .6-1.7 1.5-2 2.6-.3 1.1-.1 2.2.4 3.2 1.1 1.8 3.2 2.5 5.1 1.8 1.4 2.3 2.9 4.6 4.6 6.6l-25.6 15-30.8-52.6 4.9-8.2c29-1.5 52-25.6 52-54.9 0-14.5-5.6-27.6-14.8-37.4l18.9-11.1 63.9 109.1-21.9 12.8c-1-2.5-2.2-5-3.6-7.4.4-.5.7-1 .9-1.7.4-1 .2-2.2-.3-3.2zm-48.5 31c-1 .6-2.4.3-3-.8-.3-.5-.4-1.1-.2-1.6.1-.6.5-1 1-1.3.5-.3 1.1-.4 1.6-.2.6.1 1 .5 1.3 1 .7.9.3 2.3-.7 2.9zm-91.6 34.6L94 272.1c1.6-2 3.1-4.1 4.5-6.3.6.1 1.2.1 1.8 0 1.1-.3 1.9-.9 2.5-1.9.6-.9.7-2 .4-3.1-.3-1.1-.9-2-1.9-2.5-1.9-1.1-4.5-.5-5.6 1.4-.6.9-.7 2-.5 3.1.2.8.7 1.6 1.3 2.1-1.3 2.2-2.8 4.2-4.4 6.1l-40.6-24.2c.9-2.3 2-4.7 3.4-6.9.6.1 1.2.1 1.9 0 1.1-.3 2-.9 2.5-1.9 1.1-1.9.5-4.5-1.4-5.6-1.9-1.1-4.5-.5-5.6 1.4-1 1.7-.6 3.9.8 5.1-1.3 2.2-2.4 4.5-3.3 6.8l-24.1-14.3 61.3-103 18.1 10.8c-2.1 5.8-3.2 12-3.2 18.5 0 30.3 24.7 55 55 55h.5l-42.8 71.7zm-17.2-23.6c.6-1 1.8-1.3 2.8-.7.5.3.8.7.9 1.2.1.5.1 1.1-.2 1.5-.3.5-.7.8-1.2.9-.5.1-1.1.1-1.5-.2-.5-.3-.8-.7-.9-1.2-.2-.5-.2-1.1.1-1.5zM54 235c.6-1 1.8-1.3 2.8-.7 1 .6 1.3 1.8.7 2.8-.3.5-.7.8-1.2.9-.5.1-1.1.1-1.5-.2-1.1-.6-1.4-1.9-.8-2.8zm-.5-167c.6-.2 1.3-.1 1.9.2.6.3 1 .8 1.2 1.5.2.6.1 1.3-.2 1.9-.3.6-.8 1-1.5 1.2-.6.2-1.3.1-1.9-.2-.6-.3-1-.8-1.2-1.5-.2-.6-.1-1.3.2-1.9.3-.6.9-1 1.5-1.2zm-3.3.3c-.6 1.1-.7 2.3-.3 3.5.4 1.2 1.2 2.1 2.2 2.7 1.1.6 2.3.7 3.5.3 1.2-.4 2.1-1.2 2.7-2.2.6-1.1.7-2.3.3-3.5-.4-1.2-1.2-2.1-2.2-2.7-.9-.5-1.9-.6-2.9-.4-.9-2.9-1.5-5.9-2-8.8L104 40.7c1.3 2.7 2.5 5.6 3.5 8.5-.6.4-1.1 1-1.5 1.6-.6 1.1-.7 2.3-.3 3.5.7 2.4 3.3 3.7 5.7 3 1.2-.4 2.1-1.2 2.7-2.2.6-1.1.7-2.3.3-3.5-.7-2.2-2.8-3.5-5-3.1-.9-2.9-2.1-5.7-3.4-8.4l31.2-9.8 22.7 72.5c-1-.1-2.1-.1-3.1-.1-23.1 0-42.9 14.3-51 34.5l-18.7-11.1-.9-.5-.5.9-28.9 48.6-34.1-109 26.8-8.4c.4 3 1.1 6 2 9-.5.4-1 .9-1.3 1.6zm59-17.7c1.3-.4 2.7.3 3.1 1.6.2.6.1 1.3-.2 1.9-.3.6-.8 1-1.5 1.2-1.3.4-2.7-.3-3.1-1.6-.2-.6-.1-1.3.2-1.9.4-.6.9-1 1.5-1.2zm49.6-12L185 48.7c-1.5 2.6-2.9 5.4-4 8.3-.7 0-1.4.1-2 .4-1.1.5-2 1.4-2.4 2.5-.4 1.1-.4 2.4.1 3.5s1.4 2 2.5 2.4c2.4.9 5-.3 5.9-2.6.8-2.2-.1-4.5-2.1-5.6 1.1-2.9 2.5-5.6 4-8.1l51.2 19.8c-.6 3-1.5 5.9-2.6 8.8-1.9-.1-3.8 1-4.6 2.9-.9 2.3.3 5 2.6 5.9 1.1.4 2.4.4 3.5-.1s2-1.4 2.4-2.5c.4-1.1.4-2.4-.1-3.5-.4-.9-1.1-1.6-1.9-2.1 1.1-2.9 1.9-5.8 2.6-8.7l30.6 12-27.2 70.3-26.4-45-.5-.9-.9.5-20.2 11.9c-8.8-8.7-20.4-14.5-33.4-15.7l-12.6-40.3 9.3-24.2zm23 20.7c1.3.5 1.9 1.9 1.4 3.2-.5 1.3-1.9 1.9-3.2 1.4-.6-.2-1.1-.7-1.4-1.3-.3-.6-.3-1.3 0-1.9.2-.6.7-1.1 1.3-1.4.6-.2 1.2-.2 1.9 0zm54.4 21.1c.6.2 1.1.7 1.4 1.3.3.6.3 1.3 0 1.9-.2.6-.7 1.1-1.3 1.4-.6.3-1.3.3-1.9 0-1.3-.5-1.9-1.9-1.4-3.2.5-1.2 1.9-1.9 3.2-1.4zm-26.6 77.3c0 29.2-23.7 52.9-52.9 52.9s-52.9-23.7-52.9-52.9 23.7-52.9 52.9-52.9 52.9 23.8 52.9 52.9zm-3.1-126.8c6.1-2.7 12.2-3 17.5-1 5.4 2.1 9.6 6.4 12.3 12.5 3.1 7 3.9 15.8 2.3 24.9l-50.5-19.6c4.9-7.6 11.4-13.7 18.4-16.8zm-151.3-.6c3.1-5.9 7.6-9.9 13.1-11.7 5.5-1.7 11.5-1 17.4 2.1 6.8 3.6 12.9 10 17.3 18L51.3 55c-1-9.1.3-17.8 3.9-24.7zm17.6 253.9c-5.6 1.4-10.7.8-15-1.7-9.4-5.6-12-19.6-7.1-33.6l40 23.8c-5.2 5.7-11.5 9.9-17.9 11.5zm176.3-14.5c-4.5 2.6-10 3.2-15.8 1.7-6.7-1.8-13.4-6.2-18.9-12.3l42.4-24.9c5.1 14.9 2.3 29.6-7.7 35.5z"/><path fill="#FFAF3A" d="M22.7 66.1l34.1 109 28.9-48.6.5-.9.9.5 18.7 11.1c8.1-20.2 27.9-34.5 51-34.5 1 0 2.1 0 3.1.1l-22.7-72.5-31.2 9.8c1.3 2.7 2.5 5.5 3.4 8.4 2.2-.3 4.3 1 5 3.1.4 1.2.3 2.4-.3 3.5s-1.5 1.9-2.7 2.2c-2.4.7-5-.6-5.7-3-.4-1.2-.3-2.4.3-3.5.4-.7.9-1.2 1.5-1.6-.9-3-2.1-5.8-3.5-8.5L51.5 57.1c.4 2.9 1.1 5.9 2 8.8 1-.2 2 0 2.9.4 1.1.6 1.9 1.5 2.2 2.7.4 1.2.3 2.4-.3 3.5s-1.5 1.9-2.7 2.2c-1.2.4-2.4.3-3.5-.3s-1.9-1.5-2.2-2.7c-.4-1.2-.3-2.4.3-3.5.3-.6.8-1.1 1.4-1.6-.9-3-1.6-6-2-9l-26.9 8.5z"/><path fill="#5DB65F" d="M157.2 212.7h-.5c-30.3 0-55-24.7-55-55 0-6.5 1.1-12.7 3.2-18.5l-18.1-10.8-61.3 103 24.1 14.3c.9-2.3 2-4.6 3.3-6.8-1.4-1.3-1.8-3.4-.8-5.1 1.1-1.9 3.7-2.6 5.6-1.4 1.9 1.2 2.6 3.7 1.4 5.6-.6.9-1.4 1.6-2.5 1.9-.6.2-1.2.1-1.9 0-1.3 2.3-2.5 4.6-3.4 6.9L91.9 271c1.6-1.9 3.1-4 4.4-6.1-.6-.5-1.1-1.3-1.3-2.1-.3-1.1-.1-2.2.5-3.1 1.1-1.9 3.7-2.6 5.6-1.4.9.6 1.6 1.4 1.9 2.5.3 1.1.1 2.2-.4 3.1-.6.9-1.4 1.6-2.5 1.9-.6.2-1.2.2-1.8 0-1.3 2.2-2.9 4.4-4.5 6.3l20.6 12.3 42.8-71.7z"/><path fill="#130000" d="M171.3 140h-55l1.1 3 12.3 32.4.5 1.7H177v6h-44v4h.1c-.3 2-.5 1.6-.5 2.5 0 3.7 3 6.6 6.7 6.6s6.7-3 6.7-6.6c0-.9-.2-.6-.5-2.6H163c-.3 2-.5 1.6-.5 2.5 0 3.7 3 6.6 6.7 6.6s6.7-3 6.7-6.6c0-.9-.2-.6-.5-2.6h5.8V173H133.5l-10.7-29h51.4l.6-1 8.6-17.4c.2-.4 1.2-1.7 2.3-2 .3-.1.9-.1 1.6.3.3.2 1.4 1.5-.3 4.8l-10.1 20-.2.4v.5l-.6 14.6 4.3.2.6-14.1 9.8-19.5c3-5.8.5-9.3-1.2-10.4-1.7-1-3.5-1.2-5.2-.7-3 .9-4.7 3.9-4.9 4.2-.1-.1-6.3 12.1-8.2 16.1zm-32.1 51.9c-1.3 0-2.4-1.1-2.4-2.4 0-1.3 1.1-2.4 2.4-2.4 1.3 0 2.4 1.1 2.4 2.4 0 1.3-1 2.4-2.4 2.4zm27.5-2.4c0-1.3 1.1-2.4 2.4-2.4 1.3 0 2.4 1.1 2.4 2.4 0 1.3-1.1 2.4-2.4 2.4-1.4 0-2.4-1.1-2.4-2.4z"/></svg>