<svg xmlns:xlink="http://www.w3.org/1999/xlink"  xmlns="http://www.w3.org/2000/svg" viewBox="0 0 300 300"><path fill="none" d="M88 74.4v-2.6c-2 .6-4 1.2-4 1.5v167.8c0 .4 2 1.7 4 3.5V74.4zM174 266.9V83.1c-12-3-25-6.3-37-9.1v198.3c31 3.2 72 7.7 76 8.2v-9.3l-39-4.3z"/><path fill="#FFB602" d="M88 244.6c2 4.2 10 11 14 15.7v-195c-4 1.2-12 4.5-14 6.6v172.7zM111 66.4v203.5c0-.2-1.2-.9-1.2-.9s13.2 1.4 27.2 3.1V73.9c-12-3.8-24-6.8-26-7.5z"/><path fill="#48B2E8" d="M225 85.4l-51-12.8v2.9L221 88v183.9l4 .5z"/><path fill="#48B2E8" d="M213 271.1V93.6c-2-.6-20-5.2-39-10.6v183.9l39 4.2z"/><path fill="#7D7F82" d="M173 75.5l-71-18.6v.4c0 .1-26 11-26 11v175.9s34.5 32.4 34.5 32.2c1.4.2 110.5 12.2 110.5 12.2V88l-48-12.5zm-89-2.3c0-.3 1.1-.8 2.6-1.5 5.1-2.1 11.4-5.3 15.4-6.6v195c-4-4.7-11-11.5-15.4-15.7-1.8-1.7-2.6-3-2.6-3.5V73.2zm54.5 199c-16.1-1.8-27.9-3.1-27.9-3.1s.4.7.4.9v-1.2V66.5c2 .7 13.7 3.7 28.1 7.5 10.7 2.8 22.7 6.1 34.2 9.1 20.2 5.3 37.7 10 39.7 10.6v186.8c-4-.6-45.7-5.1-74.5-8.3zM127 41.7c0-14.6 11-26.6 25.5-27.1-10 4.9-17.5 15.2-17.5 27.1V61l2 .8v-20c0-12.8 9.5-23.6 21.5-26.4 12 2.8 21.5 13.6 21.5 26.4v30.7l2 .8V41.7c0-11.9-6-22.1-16-27.1 14.5.5 27 12.4 27 27.1v33.8l2 .8V41.7c0-16.7-13.3-30.2-30-30.2-2.1 0-4.1.2-6.1.6-2-.4-3.8-.6-5.9-.6-16.7 0-30 13.6-30 30.2v16.1l4 .8V41.7z"/></svg>