<svg xmlns:xlink="http://www.w3.org/1999/xlink"  xmlns="http://www.w3.org/2000/svg" viewBox="0 0 150 150"><path fill="none" d="M127.9 59.8L121 54h-.3l-6.7-5.1V29h-9v12.2L89.7 28.6c-.7-.6-1.7-.9-2.6-.9-.9 0-1.8.2-2.5.7L51 55H38.5l3.9 15.9L45 81.1l2.9 11.8 1.3 5.4.2.8h24.3l37.1 1H121V62h6.3c1.6 0 2-1 .6-2.2zM84 84.5c0 1.6-1.1 2.5-2.7 2.5h-8.9c-1.6 0-3.4-.9-3.4-2.5v-8.8c0-1.6 1.8-2.7 3.4-2.7h8.9c1.6 0 2.7 1 2.7 2.7v8.8zm0-19.4c0 1.6-1.1 2.9-2.7 2.9h-8.9c-1.6 0-3.4-1.2-3.4-2.9v-8.8c0-.4.3-.9.4-1.3.4-1.1 1.7-2 3-2h8.9c1.2 0 2.2.9 2.6 2 .1.3.1.9.1 1.3v8.8zm20 19.4c0 1.6-1.7 2.5-3.4 2.5h-8.8c-1.6 0-2.8-.9-2.8-2.5v-8.8c0-1.6 1.1-2.7 2.8-2.7h8.8c1.6 0 3.4 1 3.4 2.7v8.8zm0-19.4c0 1.6-1.7 2.9-3.4 2.9h-8.8c-1.6 0-2.8-1.2-2.8-2.9v-8.8c0-.4 0-.9.1-1.3.4-1.1 1.4-2 2.6-2h8.9c1.6 0 3.4 1.7 3.4 3.3v8.8z"/><path fill="#383738" d="M132.9 52.1l-7-5.7-.6-.5L123 44V19H96v3.1l-1.3-1.2c-2.2-1.8-4.9-2.8-7.7-2.8s-5.4.9-7.5 2.6L40.1 52c-.7.6-1.4 1.2-1.9 1.9l-3-11.9c-.6-2.4-2.6-4-4.9-4H11.5c-2.8 0-5.1 2.6-5.1 5.5S8.7 49 11.5 49h14.9l1.6 6.3 10.7 43 1.8 7.6c.6 2.4 2.6 4.1 5 4.1H129V71.3c5-.8 6.8-4 7.7-7 1-3.5.7-8.5-3.8-12.2zm-5.6 9.9H121v38h-10.2l-37.1-1H49.4l-.2-.8-1.3-5.3L45 81.2 42.5 71l-4-16H51l33.6-26.5c.7-.6 1.6-.8 2.5-.8.9 0 1.9.3 2.6.9L105 41.2V29h9v19.9l6.7 5.1h.3l6.9 5.8c1.4 1.2 1 2.2-.6 2.2z"/><circle fill="#003C50" cx="55.3" cy="123.8" r="9.4"/><path fill="#003C50" d="M113.5 114.4c-5.2 0-9.4 4.2-9.4 9.4s4.2 9.4 9.4 9.4 9.4-4.2 9.4-9.4-4.3-9.4-9.4-9.4zM81.3 53h-8.9c-1.2 0-2.5.9-3 2-.1.3-.4.9-.4 1.3v8.8c0 1.6 1.8 2.9 3.4 2.9h8.9c1.6 0 2.7-1.2 2.7-2.9v-8.8c0-.4 0-.9-.1-1.3-.5-1.1-1.4-2-2.6-2zM100.6 73h-8.8c-1.6 0-2.8 1-2.8 2.7v8.8c0 1.6 1.1 2.5 2.8 2.5h8.8c1.6 0 3.4-.9 3.4-2.5v-8.8c0-1.7-1.7-2.7-3.4-2.7zM81.3 73h-8.9c-1.6 0-3.4 1-3.4 2.7v8.8c0 1.6 1.8 2.5 3.4 2.5h8.9c1.6 0 2.7-.9 2.7-2.5v-8.8c0-1.7-1.1-2.7-2.7-2.7zM100.6 53h-8.9c-1.2 0-2.2.9-2.6 2-.1.4-.1.9-.1 1.3v8.8c0 1.6 1.1 2.9 2.8 2.9h8.8c1.6 0 3.4-1.2 3.4-2.9v-8.8c0-1.6-1.7-3.3-3.4-3.3z"/></svg>