<svg xmlns:xlink="http://www.w3.org/1999/xlink"  xmlns="http://www.w3.org/2000/svg" width="100" height="100" viewBox="0 0 100 100"><radialGradient id="a" cx="50.402" cy="44.649" r="58.705" gradientUnits="userSpaceOnUse"><stop offset="0" stop-color="#ecba31"/><stop offset=".358" stop-color="#cb2229"/><stop offset=".661" stop-color="#a22430"/><stop offset="1" stop-color="#540000"/></radialGradient><path fill="url(#a)" d="M87.644 19.25c-2.43-.007-4.736.933-6.971 1.788-6.063 2.553-54.386 23.426-57.548 24.521-1.503-3.641-3.091-7.236-4.616-10.864-3.91 1.341-7.635 3.148-11.447 4.71-1.179.59-2.686.998-3.229 2.345-1.027 1.587.483 3.952 2.394 3.486 3.369-.635 6.271-2.644 9.565-3.576 5.568 13.176 11.25 26.316 16.876 39.473.904 1.853 1.61 4.004 3.314 5.312 1.671.622 3.492-.039 5.118-.518 4.46-1.568 41.183-17.122 43.416-18.924 1.892-2.312-1.546-5.015-3.757-3.621C66.622 69.283 52.6 75.457 38.493 81.425a97.817 97.817 0 0 1-1.568-4.075c16.74-7.114 33.442-14.324 50.156-21.49 1.82-.608 3.038-2.299 3.1-4.224.736-8.901.616-17.848.732-26.775.028-2.242-.581-5.287-3.269-5.611zm-9.365 18.665a243.69 243.69 0 0 1-5.514 2.475c-.084-1.374-.158-2.753-.236-4.114 1.805-.693 3.608-1.386 5.419-2.06.107 1.224.214 2.468.331 3.699zm-5.258 3.246c1.801-.57 3.605-1.147 5.423-1.71.14 1.562.289 3.116.44 4.684-1.979.965-3.984 1.943-6.187 2.274a35.334 35.334 0 0 1 .324-5.248zm4.503-12.504c.078 1.295.155 2.598.239 3.893a233.795 233.795 0 0 1-5.373 2.339 407.43 407.43 0 0 0-.314-4.612c1.797-.609 3.579-1.27 5.448-1.62zm-2.063 26.419c-13.617 5.746-27.125 11.771-40.792 17.382-3.016-7.372-6.495-14.557-9.232-22.033 4.651-1.827 9.177-3.971 13.838-5.785.981-.447 1.963-.888 2.944-1.334 4.416-1.853 8.736-3.933 13.262-5.481 2.005-1.348 4.37-2.015 6.557-2.993 2.902-1.315 5.85-2.5 8.787-3.706.071 1.432.214 2.87.354 4.308-2.562 1.127-5.128 2.268-7.702 3.362-3.926 1.646-7.791 3.421-11.739 5.034a91.208 91.208 0 0 0-3.576 1.562c.424-.104 1.266-.292 1.681-.389 4.612-1.646 9.141-3.544 13.731-5.241 2.588-1.076 5.212-2.041 7.904-2.792.184 1.186.362 2.365.547 3.551-1.944.9-3.885 1.801-5.756 2.831 1.946-.499 3.864-1.108 5.785-1.742.168 1.826.443 3.673.291 5.519-1.149.467-2.293.927-3.44 1.413 1.367-.401 2.734-.823 4.101-1.244.085 1.205.176 2.41.292 3.614.056.422.156 1.277.208 1.698a24.393 24.393 0 0 1-.017-.9c-.035-1.568-.085-3.13-.123-4.698 1.85-.583 3.684-1.186 5.52-1.82.269 2.676.573 5.326 1.018 7.975a115.736 115.736 0 0 1-4.443 1.909zm10.174-4.256c-.165.006-.495.032-.666.038-1.626.85-3.314 1.594-4.995 2.339-.091-1.651-.186-3.304-.236-4.943-.033-1.127-.033-2.254-.039-3.381a206.635 206.635 0 0 0 5.863-2.067l.175-.071c-.03 2.695.109 5.39-.102 8.085zm.126-9.523c-.34.136-1.013.408-1.354.55-1.615.635-3.21 1.334-4.816 2.008.191-1.606-.404-3.492.428-4.924 1.665-.887 3.501-1.354 5.29-1.943l.544-.169-.092 4.478zm-6.163-3.894c-.068-1.205-.14-2.41-.207-3.616 2.102-.965 4.23-1.859 6.374-2.721.059 1.212.098 2.436.144 3.648a632.34 632.34 0 0 1-6.311 2.689zm6.163-8.247c-1.658.693-3.316 1.418-4.987 2.08l-1.367.512c.01-1.535.075-3.071.185-4.606 2.147-.849 4.292-1.723 6.495-2.417a16.054 16.054 0 0 1-.326 4.431z"/><g fill="#23201D"><path d="M77.547 71.505c1.999-1.716 5.682-1.173 6.311 1.62 1.001 2.831-2.31 5.507-4.934 4.295a59.33 59.33 0 0 0-1.114-.323c-.989-1.75-1.26-3.778-.263-5.592zM44.73 85.492c2.264-1.516 5.666.317 5.526 3.071.178 2.772-3.414 4.6-5.61 2.974-2.096-1.328-2.073-4.781.084-6.045z"/></g></svg>