<svg xmlns:xlink="http://www.w3.org/1999/xlink"  xmlns="http://www.w3.org/2000/svg" width="100" height="100" viewBox="0 0 100 100"><radialGradient id="a" cx="50.218" cy="22.303" r="57.785" gradientUnits="userSpaceOnUse"><stop offset="0" stop-color="#ecba31"/><stop offset=".358" stop-color="#cb2229"/><stop offset=".661" stop-color="#a22430"/><stop offset="1" stop-color="#540000"/></radialGradient><path fill="url(#a)" d="M79.444 47.979c-.216-2.133-.842-4.253-1.701-6.214-.897-2.719-2.426-5.209-4.103-7.521-3.098-4.062-7.12-7.613-11.824-9.635-8.565-4.389-19.159-4.18-27.805-.062-4.078-.813-8.149-1.708-12.225-2.558-.835-.142-1.791-.536-2.518.105-1.076.82-.589 2.762.755 2.916 12.748 2.768 25.493 5.523 38.238 8.279 2.534.58 5.114.999 7.558 1.898 1.138.703 1.853 1.819 2.226 3.095.768 5.098 1.368 10.221 1.714 15.369.234 2.404-.123 5.029-1.81 6.879-1.294 1.301-2.999 2.09-4.743 2.59-6.99 2.064-14.031 3.926-21.07 5.781l-.127.137c-2.762.314-5.492 2.033-8.312 1.158-2.734-1.084-3.945-4.074-4.907-6.639-3.175-10.146-6.31-20.306-9.5-30.447-.416-1.627-3.159-1.363-3.206.345.404 2.675 1.671 5.196 2.226 7.847-.136.401-.404 1.202-.54 1.597-.172.549-.598 1.079-.468 1.683-2.484 7.742-1.437 16.521 2.336 23.709 5.265 10.178 16.333 17.094 27.833 17.069 8.365.24 16.716-3.095 22.714-8.907 7.558-7.164 11.256-18.248 9.259-28.474zM45.906 72.248c1.214-.77 2.866-.475 3.88.494 1.616 1.547 2.028 4.062 1.323 6.139-.096.223-.29.666-.386.883-.829 1.467-2.663 2.588-4.343 1.83-3.488-1.633-3.692-7.323-.474-9.346zm14.733-4.247c.783-.986 2.344-1.387 3.376-.524 1.812 1.356 2.13 3.982 1.485 6.023l-.086.283c-.592 1.523-2.393 2.959-4.014 1.93-2.413-1.69-2.558-5.518-.761-7.712z"/></svg>