<svg xmlns:xlink="http://www.w3.org/1999/xlink"  xmlns="http://www.w3.org/2000/svg" viewBox="0 0 300 300"><path fill="none" d="M265.7 128.2c-7.7-5.6-19.4-7-30.4-6l2.2 21.2c7.4-2.3 15.3.9 23.9 4.5l4.4 1.8c3.5 1.4 7.9 2.5 9.4-.1 2.4-4.4-3.9-17.3-9.5-21.4z"/><path fill="#FFFFFE" d="M67 237V42h106v47.5c6-.5 10-.8 15-1V48.6c0-9.8-7.8-17.6-17.6-17.6H70.3C60.5 31 54 38.8 54 48.6v205.6c0 9.8 6.5 18.8 16.3 18.8h100.1c9.8 0 17.6-9 17.6-18.8v-59c-5 1.6-9 3.5-15 5.5V237H67zm52.8 24.4c-5.6 0-10.2-4.6-10.2-10.2s4.6-10.2 10.2-10.2 10.2 4.6 10.2 10.2-4.6 10.2-10.2 10.2z"/><path fill="#00A9DE" d="M74 228.8v-94.1l-2-3.9-2.2-2.2c.3-.3.3-1.7 4.3-3.8V48h34.5l58.3 1.3-23 44.5c8.9-1.9 18.1-3.4 29.1-4.4V42H67v195h106v-36.3c-17 6.2-32.7 14.4-49.3 25.2l-1.7-2.6-1.7-2.6c.1 0 .1-.1.2-.1L99 180.7l-25 48.1z"/><path fill="#3FBCE5" d="M108.5 48H74v76.9c9-7.1 31.4-22.5 69.8-30.9l23-44.7-58.3-1.3zM98.9 180.7l-24.9-46v94.1z"/><path fill="#A1A3A5" d="M119.8 241c-5.6 0-10.2 4.6-10.2 10.2s4.6 10.2 10.2 10.2 10.2-4.6 10.2-10.2-4.6-10.2-10.2-10.2z"/><path fill="#F10F83" d="M231.5 146.6l-2.4-23.6c-2.3.4-4.5.9-6.7 1.5l-.3-1-.3-1c2.2-.6 4.6-1.2 7-1.6l-2.6-25.4C122 87 74.8 132.5 74.3 133l-2.2-2.2 2.1 3.9 24.9 46 21.5 39.8c48.4-31.4 101.1-41.5 114.1-43.6l-2.9-27.8c-1.5 1.4-3.1 3.1-4.6 5.3l-.8-.6-.9-.6c1.9-2.8 4-5 6-6.6zm-126.6-23.5c44.3-25.5 111-21.9 111-21.9l.5 1.6c-33.9-.6-111.5 20.3-111.5 20.3z"/><path fill="#363436" d="M74.3 133.1zM266.9 126.5c-8.1-6-20.4-7.5-31.9-6.4l-2.9-27.8c-.2-1.5-1.5-2.7-3-2.8-12.5-1.1-24.1-1.5-35.1-1.2V48.6c0-13.2-10.4-22.6-23.6-22.6H70.3C57.1 26 46 35.4 46 48.6v205.6c0 13.2 11.1 21.8 24.3 21.8h100.1c13.2 0 23.6-8.6 23.6-21.8v-61c26-8.1 44-10.5 44.3-10.5 1.7-.2 3-1.7 2.8-3.4l-3.5-33.6c6.8-2.3 14 .7 22.9 4.3l4.5 1.8c7.7 3 10.8 1.1 12-1.1 3.2-6-4.1-19.8-10.1-24.2zm-40.6 27.3l.8.6c1.5-2.2 3.1-3.9 4.6-5.3l2.9 27.8c-13 2.1-65.6 12.2-114.1 43.6-.1 0-.1.1-.2.1l1.7 2.6 1.7 2.6c16.5-10.8 33.5-19 49.3-25.2 5.2-2 10-3.9 15-5.5v59c0 9.8-7.8 18.8-17.6 18.8H70.3c-9.8 0-16.3-9-16.3-18.8V48.6C54 38.8 60.5 31 70.3 31h100.1c9.8 0 17.6 7.8 17.6 17.6v39.9c-5 .2-10.1.5-15 1-10.6 1-20.3 2.6-29.2 4.5-38.4 8.4-60.9 23.8-69.7 30.9-2.6 2.1-4 3.5-4.3 3.8l2.2 2.2 2.2 2.2c.5-.5 47.7-46 151.9-37.5l2.6 25.4c-2.4.4-4.8 1-7 1.6l.3 1 .3 1c2.1-.6 4.4-1.1 6.7-1.5l2.4 23.6c-2 1.6-4.1 3.7-6.1 6.6l1 .5zm48.8-4.2c-1.4 2.6-5.9 1.5-9.4.1l-4.4-1.8c-8.6-3.5-16.4-6.7-23.9-4.5l-2.2-21.2c11.1-1.1 22.7.3 30.4 6 5.7 4.1 12 17 9.5 21.4z"/><path fill="#FFF" d="M104.9 123.1s77.6-20.8 111.5-20.3l-.5-1.6c-.1 0-66.7-3.7-111 21.9z"/></svg>