<svg xmlns:xlink="http://www.w3.org/1999/xlink"  xmlns="http://www.w3.org/2000/svg" viewBox="0 0 150 150"><path fill="none" d="M99.9 14.6c-8.8 0-16.3 11.8-17.5 26.7h34.9c-1.2-14.8-8.7-26.7-17.4-26.7zM18.9 37.9c-6.7 3-8.4 14.7-4.2 26.4l26.7-12c-6-10.9-15.8-17.4-22.5-14.4z"/><path fill="#003C50" d="M49.3 48.8l-4.6 2.1c.4.8.8 1.5 1.2 2.3.9.1 1.6.5 2 1.2.5 1.2-.3 2.7-1.8 3.4-1.5.7-3.2.3-3.7-.9-.3-.7-.1-1.6.4-2.3-.4-.8-.8-1.6-1.2-2.3l-26.7 12 .9 2.4c.9.1 1.6.5 1.9 1.2.5 1.2-.3 2.7-1.8 3.4-1.5.7-3.2.3-3.7-.9-.3-.7-.1-1.6.4-2.3l-.9-2.4-7.9 3.5 17.4 65.9 30.6-13.8L61 65.6 49.3 48.8z"/><path fill="#EF5099" d="M121.6 44.4v-1.2c0-.6-.1-1.3-.1-1.9-1.2-17-10.2-29.9-21.6-29.9-11.3 0-20.4 12.8-21.7 29.9 0 .6-.1 1.3-.1 1.9v1.1c-.9.5-1.5 1.3-1.5 2.3 0 1.5 1.6 2.8 3.6 2.8s3.6-1.2 3.6-2.8c0-.9-.6-1.8-1.5-2.3v-1.1c0-.6.1-1.3.1-1.9 1.2-14.8 8.7-26.7 17.5-26.7 8.7 0 16.2 11.9 17.4 26.7 0 .6.1 1.3.1 1.9v1.2c-.9.5-1.5 1.3-1.5 2.3 0 1.5 1.6 2.8 3.6 2.8s3.6-1.2 3.6-2.8c0-1-.6-1.8-1.5-2.3z"/><path fill="#0D71BA" d="M47.8 54.4c-.3-.7-1.1-1.2-2-1.2-.4-.8-.8-1.6-1.2-2.3-6.8-12.6-18.2-19.3-26.8-15.4-8.7 3.9-11.2 16.9-6.3 30.4l.9 2.4c-.5.7-.7 1.6-.4 2.3.5 1.2 2.2 1.6 3.7.9 1.5-.7 2.3-2.2 1.8-3.4-.3-.7-1.1-1.1-1.9-1.2l-.9-2.4c-4.2-11.8-2.5-23.4 4.2-26.4s16.5 3.5 22.5 14.4c.4.8.8 1.5 1.2 2.3-.5.7-.7 1.5-.4 2.3.5 1.2 2.2 1.6 3.7.9 1.6-.9 2.4-2.4 1.9-3.6z"/><path fill="#86246F" d="M129.4 41.3h-8c0 .6.1 1.3.1 1.9v1.2c.9.5 1.5 1.3 1.5 2.3 0 1.5-1.6 2.8-3.6 2.8s-3.6-1.3-3.6-2.8c0-.9.6-1.8 1.5-2.3v-1.2c0-.6-.1-1.3-.1-1.9H82.4c0 .6-.1 1.3-.1 1.9v1.1c.9.5 1.5 1.3 1.5 2.3 0 1.5-1.6 2.8-3.6 2.8s-3.6-1.3-3.6-2.8c0-.9.6-1.8 1.5-2.3v-1.1c0-.6.1-1.3.1-1.9h-8.3l-.3 1.9-4.7 28-8 47.9-.4 2.3h31.7c-.2.7-.4 1.3-.6 1.9-1.6 4.6-3.3 7.8-3.6 8.4 1.7-1.8 4.3-4.7 6.8-8.4.4-.6.8-1.3 1.2-1.9 6.5-10.7 10.9-26.4-8-38.2-.4-.3-.8-.5-1.3-.8 0 0 .6.3 1.7.7 2.9 1.1 9.4 3.3 16.4 3.4 11.4.3 24.2-4.7 25.8-28 0 0 .4 8.8-1.5 20.2-.3 5.3-1.2 28.9 4.4 42.6h14.7l-14.8-80zm-23.7 40.8c-4.7 0-8.5-3.8-8.5-8.5s3.8-8.5 8.5-8.5 8.5 3.8 8.5 8.5-3.8 8.5-8.5 8.5z"/><path fill="#86246F" d="M113.8 109.7c-2.2 3.4-5.6 7.7-9.7 11.7h24.1c-3-1.4-9.4-5-14.4-11.7z"/></svg>