<svg xmlns:xlink="http://www.w3.org/1999/xlink"  xmlns="http://www.w3.org/2000/svg" width="100" height="100" viewBox="0 0 100 100"><radialGradient id="a" cx="53.407" cy="48.319" r="36.134" gradientUnits="userSpaceOnUse"><stop offset=".016" stop-color="#8bc53f"/><stop offset="1" stop-color="#4b7520"/></radialGradient><path fill="url(#a)" d="M91.119 15.577c-8.058-.214-16.01 1.266-23.907 2.639a79.314 79.314 0 0 0-1.332-.85c-9.258-4.462-20.496-4.8-29.837-.417-8.475 3.774-15.25 11.147-18.328 19.891-3.036 8.31-2.656 17.837 1.192 25.825 2.627 5.575 6.681 10.723 11.997 13.918.219.187.652.549.871.729.251.084.767.248 1.019.331.42-.231 1.06.192.763.751 7.118 4.032 15.679 5.344 23.692 3.743.521.074.978-.024 1.374-.288 4.544-1.097 8.899-3.06 12.586-5.947 6.033-4.537 10.121-11.218 12.363-18.356.198-.936.418-1.868.661-2.791 2.412-9.692-1.263-20.126-7.943-27.293 3.826-5.129 9.006-9.254 14.829-11.885zM79.015 33.215c3.35 6.521 4.599 14.216 2.801 21.375-.049.214-.166.647-.22.856-1.768 7.506-6.157 14.465-12.508 18.901-2.713 1.885-5.753 3.229-8.866 4.285-.561.141-1.126.271-1.687.409-4.169.823-8.467 1.05-12.69.51-8.995-1.225-17.305-6.602-22.188-14.243-4.141-6.431-6.091-14.435-4.614-22.006 1.043-6.899 4.614-13.28 9.663-18.056 1.625-1.559 3.48-2.841 5.361-4.07 8-4.71 18.06-5.766 26.835-2.693 1.071.309 2.128 1.167 3.291.799-1.109.404-2.261.681-3.369 1.077-9.873 3.361-19.326 9.007-25.553 17.536-2.895 3.959-4.981 8.541-5.773 13.395-1.485 7.988 1.493 16.291 6.912 22.188.255-7.209 1.059-14.633 4.264-21.198 4.5-11.127 13.218-20.15 23.417-26.283 6.7-3.975 13.814-7.658 21.561-9.035a176.396 176.396 0 0 0-14.415 8.693C61.5 32.197 52.732 40.821 48.093 51.761c-3.612 7.469-4.508 15.932-4.368 24.139 4.306-.094 8.85-.726 12.422-3.336 4.647-3.143 6.742-8.669 8.281-13.841C67.546 48.248 69.093 36.795 76 27.937c1.056 1.728 2.099 3.468 3.015 5.278z"/><path fill="#FFF" d="M34.067 21.178c8-4.71 18.06-5.766 26.835-2.693 1.071.309 2.128 1.167 3.291.799-1.109.404-2.261.681-3.369 1.077-9.873 3.361-19.326 9.007-25.553 17.536-2.895 3.959-4.981 8.541-5.773 13.395-1.485 7.988 1.493 16.291 6.912 22.188.255-7.209 1.059-14.633 4.264-21.198 4.5-11.127 13.218-20.15 23.417-26.283 6.7-3.975 13.814-7.658 21.561-9.035a176.396 176.396 0 0 0-14.415 8.693c-9.737 6.54-18.505 15.164-23.144 26.104-3.612 7.469-4.508 15.932-4.368 24.139 4.306-.094 8.85-.726 12.422-3.336 4.647-3.143 6.742-8.669 8.281-13.841C67.546 48.248 69.093 36.795 76 27.937c1.056 1.728 2.099 3.468 3.015 5.278 3.35 6.521 4.599 14.216 2.801 21.375-.049.214-.166.647-.22.856-1.768 7.506-6.157 14.465-12.508 18.901-2.713 1.885-5.753 3.229-8.866 4.285-.561.141-1.126.271-1.687.409-4.169.823-8.467 1.05-12.69.51-8.995-1.225-17.305-6.602-22.188-14.243-4.141-6.431-6.091-14.435-4.614-22.006 1.043-6.899 4.614-13.28 9.663-18.056 1.625-1.558 3.481-2.84 5.361-4.068z"/><path fill="#F6921E" d="M87.127 41.154a21.757 21.757 0 0 0 .124 3.019c1.01 7.918-1.006 16.113-5.155 22.89-4.78 8.198-12.967 14.202-22.006 16.908-8.805 2.298-18.554 1.711-26.691-2.541l-.127.065c-1.411-.965-2.817-1.999-4.451-2.557l.008-.33c-6.528-4.577-11.312-11.44-13.993-18.904-4.565-12.982-.68-28.291 9.164-37.801 4.441-4.594 10.219-7.667 16.252-9.609-10.541 2.648-19.94 9.753-24.988 19.424-4.845 8.747-5.897 19.409-3.101 28.98l.127.013c2.4 8.727 8.248 16.331 15.721 21.354 9.543 6.342 21.998 8.43 32.927 4.701 9.7-3.098 17.927-10.236 22.649-19.223 2.527-4.68 3.975-9.893 4.585-15.164.336-3.776-.344-7.529-1.045-11.225z"/></svg>