<svg xmlns:xlink="http://www.w3.org/1999/xlink"  xmlns="http://www.w3.org/2000/svg" width="100" height="100" viewBox="0 0 100 100"><path fill="#258A6D" d="M64.709 13.017c2.134 2.992 4.238 6.504 5.31 9.207 2.371 5.931 3.366 11.535 2.504 17.523-1.167 8.301-5.357 13.8-11.92 18.75-7.225 5.439-19.313 10.422-17.228 21.876-2.74-8.388-.057-14.698 4.248-22.605 4.21-7.728 9.586-12.203 10.458-22.05-2.162 9.965-14.697 14.777-18.821 27.506-3.091 9.516.342 19.642 6.4 26.45 1.527.193 3.072.304 4.656.304 21.998 0 39.833-17.827 39.833-39.838-.001-16.927-10.553-31.344-25.44-37.123z"/><path fill="#3F92D9" d="M43.821 89.393c-7.719-6.087-13.967-17.1-14.754-25.264-.683-6.932-.408-14.1 4.106-20.894 6.675-10.06 18.631-12.558 26.131-21.595 2.011-2.427 3.319-6.158 3.082-9.477a39.934 39.934 0 0 0-12.07-1.863c-22.007 0-39.842 17.826-39.842 39.838-.001 19.785 14.44 36.159 33.347 39.255z"/></svg>