<svg xmlns:xlink="http://www.w3.org/1999/xlink"  xmlns="http://www.w3.org/2000/svg" width="100" height="100" viewBox="0 0 100 100"><path fill="#7BC798" d="M42.926 32.537s-36.425 26.354.297 59.816l-5.039-.294s-31.978-29.91 1.483-59.816l3.259.294zM52.674 32.388s36.937 26.352-.298 59.815l5.108-.298S89.912 61.999 55.98 32.09l-3.306.298z"/><path fill="#39B44A" d="M80.726 62.183c-.32 17.861-16.993 29.142-33.673 29.367-16.564.224-33.561-11.574-33.878-29.157-.317-17.859 17.479-29.146 33.667-29.368 16.563-.225 33.57 11.572 33.884 29.158.023 1.434 2.264 1.657 2.237.21-.273-15.49-12.536-27.629-27.316-30.679-15.754-3.248-33.366 2.707-41.349 17.271-7.457 13.609-1.688 29.526 10.411 38.091 13.326 9.433 32.249 8.649 45.36-.629 7.805-5.523 12.726-14.491 12.894-24.055.026-1.439-2.21-1.657-2.237-.209z"/><path fill="#39B44A" d="M45.919 31.909h2.198v60.444h-2.198z"/><path fill="#39B44A" d="M13.016 54.747s32.279-26.06 67.809 1.48l.599 3.254s-31.982-30.203-68.996-.888l.588-3.846zM80.791 70.845S48.43 96.794 12.989 69.13l-.581-3.258s31.873 30.317 68.991 1.124l-.608 3.849zM12.428 60.374h69.417v1.914H12.428z"/><path fill="#7BC798" d="M46.392 22.002S43.758 9.268 24.432 9.707c0 0 3.952 22.835 22.835 16.69l-.875-4.395zM52.225 29.622s12.548 3.403 20.891-14.033c0 0-22.16-6.791-25.207 12.83l4.316 1.203z"/><path fill="#39B44A" d="M45.651 34.714S42.41 13.267 54.956 3.958l4.451 4.858S47.812 18.837 47.948 36.082c0 0-1.893 3.889-2.297-1.368z"/></svg>