<svg xmlns:xlink="http://www.w3.org/1999/xlink"  xmlns="http://www.w3.org/2000/svg" viewBox="0 0 1000 1000"><path fill="#FFC03B" d="M353.7 360c-39.2 17.2-66.2 105.4-66.2 105.4 134.8-133.2 244.6-161.2 308.1-163.5-46.8-74.2-129.4-123.6-223.6-123.6-145.9 0-264.2 118.3-264.2 264.2 0 36.3 7.3 70.8 20.6 102.3C218.2 390.3 353.7 360 353.7 360zM542.5 384.5c28.1-12.4 54.4-21.8 79-29-3.5-10.1-7.6-19.9-12.2-29.3-37.5 22.6-66.8 58.3-66.8 58.3z"/><path fill="#00B3E6" d="M508.5 588.4c-180.9 0-342.1 58.8-445.9 150.4 0 0 5.7-3.4 16-8.6 40.4-18.4 158.9-53.5 368.2 31.8 261.1 106.4 248-4.2 174.7-66.1-1-.9-2-1.7-3.1-2.5-76-61.3 80.9-39.2 164.2 41.7 83.3 80.9 193.9 44.3 171.7 3.8-103.7-91.7-264.8-150.5-445.8-150.5z"/><path fill="#4CA950" d="M949.4 656.6S893 526.7 760.6 497.3c0 0 19.6-31.9 78.4-29.4 0 0-90.7-46.6-181.4-19.6 0 0 71.1-90.7 203.5-90.7 0 0-84.1-47.4-239.6-2-24.6 7.2-50.9 16.6-79 29 0 0 29.3-35.7 66.8-58.3 14.5-8.8 30.2-15.6 46-17.7 0 0-21.4-7.9-59.5-6.6-63.5 2.2-173.4 30.2-308.1 163.5 0 0 27-88.2 66.2-105.4 0 0-135.5 30.3-225.2 184.8-27.3 47-50.3 105.4-64 178-.2-.1 301.3-348.2 884.7-66.3z"/></svg>