<svg xmlns:xlink="http://www.w3.org/1999/xlink"  xmlns="http://www.w3.org/2000/svg" width="100" height="100" viewBox="0 0 100 100"><radialGradient id="a" cx="50.183" cy="4.119" r="120.896" gradientUnits="userSpaceOnUse"><stop offset="0" stop-color="#00abeb"/><stop offset=".029" stop-color="#22aae7"/><stop offset=".06" stop-color="#3fa8e3"/><stop offset=".091" stop-color="#53a8e0"/><stop offset=".122" stop-color="#60a7df"/><stop offset=".151" stop-color="#64a7de"/><stop offset=".327" stop-color="#4674b7"/><stop offset=".521" stop-color="#333b8b"/><stop offset=".758" stop-color="#211c51"/><stop offset="1" stop-color="#171043"/></radialGradient><path fill="url(#a)" d="M50.123 13.418s12.271 5.798 12.271 24.805c0 0 8.414-3.853 20.26-3.581 0 0-33.075 4.965-30.875 42.182h-3.301S54.679 43.193 17.46 34.92c0 0 10.615-1.242 20.26 3.858.001.001-1.83-17.317 12.403-25.36z"/><path fill="#FFF" d="M57.164 41.52a6.952 6.952 0 0 1-6.953 6.958c-3.836 0-6.954-3.117-6.954-6.958s3.117-6.948 6.954-6.948a6.943 6.943 0 0 1 6.953 6.948z"/><radialGradient id="b" cx="50.219" cy="28.544" r="86.13" gradientUnits="userSpaceOnUse"><stop offset=".121" stop-color="#d7dd3f"/><stop offset=".455" stop-color="#9dc44d"/><stop offset=".746" stop-color="#51924b"/><stop offset="1" stop-color="#1e4324"/></radialGradient><path fill="url(#b)" d="M57.043 73.73s-3.139-33.011 36.271-39.034c0 0 2.955 32.163-34.318 41.579 0 0 17.828-16.113 25.031-31.535 0 .001-15.931 20.403-26.984 28.99z"/><radialGradient id="c" cx="50.229" cy="28.544" r="86.13" gradientUnits="userSpaceOnUse"><stop offset=".121" stop-color="#d7dd3f"/><stop offset=".455" stop-color="#9dc44d"/><stop offset=".746" stop-color="#51924b"/><stop offset="1" stop-color="#1e4324"/></radialGradient><path fill="url(#c)" d="M43.607 73.73s3.139-33.011-36.271-39.034c0 0-2.953 32.163 34.319 41.579 0 0-17.831-16.113-25.034-31.535.001.001 15.934 20.403 26.986 28.99z"/><radialGradient id="d" cx="50.223" cy="28.569" r="86.096" gradientUnits="userSpaceOnUse"><stop offset=".121" stop-color="#d7dd3f"/><stop offset=".455" stop-color="#9dc44d"/><stop offset=".746" stop-color="#51924b"/><stop offset="1" stop-color="#1e4324"/></radialGradient><path fill="url(#d)" d="M70.842 73.502c1.395.604 2.169 1.275 2.169 1.994 0 2.584-10.233 4.682-22.866 4.682-12.643 0-22.876-2.098-22.876-4.682 0-.758.872-1.467 2.42-2.092-4.491.941-7.237 2.201-7.237 3.586 0 2.932 12.349 5.312 27.584 5.312 15.226 0 27.574-2.381 27.574-5.312-.001-1.336-2.551-2.556-6.768-3.488z"/></svg>