<svg xmlns:xlink="http://www.w3.org/1999/xlink"  xmlns="http://www.w3.org/2000/svg" viewBox="0 0 1000 1000"><path fill="none" d="M518.1 465.9l29.7-42.9 44.6-65.2 128.9-32.9-2.6-12.2-111.4 23.2 37.2-54.1-10.3-6.4L516.7 447h-114l80.2 79.7z"/><path fill="#ACDBF1" d="M861.6 866.7c9.8-3.2 25.3-16.4 37.3-19.6-7.4-8.3-17.3-14.5-28.8-19.3l-156.3-10.1 117.8 43.4s-721.2 6.1-474-77.7c-55.8 3.7-103.8 7.6-130 8.3l-130 12.9c-53.7 39 172.6 73.3 199.6 73.6-12.8 55.1 220.2 22.8 274.6 27.6 106.6 9.3 219 8.3 327.9.8 1.3-4.3-.1-7.9 1.2-12.3 18.6-3.8 34.1-14.5 48.6-19.7-31.8-1.2-65 6.9-87.9-7.9z"/><path fill="#20AD8A" d="M499 709.3v-158L558.4 447h353C898.3 225 710.7 50.1 481.2 50.1S64.2 225 51 447h298c-95.6-75-211.3-90.7-212.8-90.9l1.5-12.6c1.5.2 127.3 16 227.5 99.6l-1.4.4S465.9 543.2 470.9 550v159.4c9.1-.1 19.1-.2 28.1-.1zM233.8 400s-9 51.5-76.9 17.9c0 .1 31.3-53.3 76.9-17.9zm430.1-43.9s47.5-21.6 58.3 53.3c0 0-61.7 4.4-58.3-53.3zm105.4 0s47.5-21.6 58.3 53.3c0 0-61.7 4.4-58.3-53.3zm62.3-103.4s-22.4 92.8-105.6 60.8c0 0-9.6-80 105.6-60.8zm-93-39.4s-14.5 60.2-68.5 39.4c0 0-6.2-51.9 68.5-39.4zm-134.1-68.9s44.4 43.1-.9 79c0 0-47.8-21 .9-79zm-95.3 117.8s60.4 13.6 40.4 67.9c.1 0-51.7 7-40.4-67.9zm-268.8 68.7s-46.5 62-103.4-31l25.8-15.5 20.7 31 31-36.2 45.3 5c.8 0 1.2.1 1.2.1l-1.2-.1c-4.4-.1-19.4 2.7-19.4 46.7zm25.3-135.8s61 10.6 43.8 65.8c0 0-51.4 9.6-43.8-65.8zm34.7 173c0-44.1-15-46.8-19.4-46.7l-1.2.1s.5-.1 1.2-.1l45.3-5 31 36.2 20.7-31 25.8 15.5c-56.9 93-103.4 31-103.4 31zM402.7 447h114.1l117.5-171.6 10.2 6.7-37.2 53.9 111.4-23.3 2.5 12.1-128.9 33-44.5 65.2-29.7 42.9-35.2 60.8-80.2-79.7z"/><path fill="#87CDB4" d="M726 313.5c83.2 32 105.6-60.8 105.6-60.8C716.4 233.5 726 313.5 726 313.5zM738.6 213.3c-74.7-12.5-68.5 39.4-68.5 39.4 54 20.8 68.5-39.4 68.5-39.4zM549.7 330.1c19.9-54.2-40.4-67.9-40.4-67.9-11.4 74.9 40.4 67.9 40.4 67.9zM233.8 400c-45.6-35.5-76.9 17.9-76.9 17.9 67.9 33.6 76.9-17.9 76.9-17.9zM309.5 260.9c17.2-55.2-43.8-65.8-43.8-65.8-7.6 75.4 43.8 65.8 43.8 65.8zM769.3 356.1c-3.4 57.7 58.3 53.3 58.3 53.3-10.7-75-58.3-53.3-58.3-53.3zM663.9 356.1c-3.4 57.7 58.3 53.3 58.3 53.3-10.7-75-58.3-53.3-58.3-53.3zM603.6 223.4c45.3-35.9.9-79 .9-79-48.7 58-.9 79-.9 79z"/><path fill="#FFAD26" d="M403.7 337.1l-25.8-15.5-20.7 31-31-36.2-45.3 5c4.4-.1 19.4 2.6 19.4 46.7.1 0 46.6 62 103.4-31zM280.9 321.5c-.8 0-1.2.1-1.2.1l1.2-.1z"/><path fill="#86CEEC" d="M183.6 315.4l-20.7-31-25.8 15.5c56.8 93 103.4 31 103.4 31 0-44.1 15-46.8 19.4-46.6l-45.3-5-31 36.1zM259.9 284.3l1.2.1s-.5-.1-1.2-.1z"/><path fill="#B6C065" d="M831.6 861.2l-117.8-43.4 156.3 10.1 35.9 2.3c-144.2-92-288.3-120.1-409.3-120.9-8.4-.1-16.7 0-24.8.2-167.8 4-285.3 58.7-285.3 58.7l179.8 12.4c-3.1 1-6.1 2-8.9 2.9-247 83.7 474.1 77.7 474.1 77.7z"/></svg>