<svg xmlns:xlink="http://www.w3.org/1999/xlink"  xmlns="http://www.w3.org/2000/svg" viewBox="0 0 1000 1000"><radialGradient id="a" cx="1861.694" cy="503.329" r="492.477" gradientTransform="scale(-1) rotate(6.99 7672.904 -16812.86)" gradientUnits="userSpaceOnUse"><stop offset="0" stop-color="#d9dcab"/><stop offset=".27" stop-color="#97a822"/><stop offset=".848" stop-color="#387167"/></radialGradient><path fill="url(#a)" d="M502.8 474.4c-96.7-3.6-197.2-78.1-197.2-78.1 78.1 39 190.6 66.6 190.6 66.6-70.3-226.2-303.7-117.4-303.7-117.4 99.4 258 310.3 128.9 310.3 128.9z"/><radialGradient id="b" cx="863.896" cy="725.136" r="580.87" gradientTransform="scale(1 -1) rotate(20.929 3551.08 93.472)" gradientUnits="userSpaceOnUse"><stop offset="0" stop-color="#d9dcab"/><stop offset=".27" stop-color="#97a822"/><stop offset=".848" stop-color="#387167"/></radialGradient><path fill="url(#b)" d="M516.2 509s121-63.6 199.2-130.4c0 0-93.9 113.9-203.5 145.5 0 0 278.2 87.9 318.5-235.7.1-.1-298-58.2-314.2 220.6z"/><radialGradient id="c" cx="1138.017" cy="1069.462" r="480.032" gradientTransform="scale(1 -1) rotate(55.236 1933.576 32.584)" gradientUnits="userSpaceOnUse"><stop offset="0" stop-color="#d9dcab"/><stop offset=".27" stop-color="#97a822"/><stop offset=".848" stop-color="#387167"/></radialGradient><path fill="url(#c)" d="M607.5 146.1s-11.1 121.5-71.2 194.1c0 0 230.9-69.5 107.7-309.3 0 0-230.6 99.1-111.8 297 0 0 52.9-99.7 75.3-181.8z"/><radialGradient id="d" cx="65.032" cy="1602.217" r="2159.078" gradientUnits="userSpaceOnUse"><stop offset="0" stop-color="#d9dcab"/><stop offset=".27" stop-color="#97a822"/><stop offset=".848" stop-color="#387167"/></radialGradient><path fill="url(#d)" d="M396.3 616c0-37.8-30.6-68.4-68.4-68.4-37.8 0-68.4 30.6-68.4 68.4 0 37.8 30.6 68.4 68.4 68.4 37.8 0 68.4-30.6 68.4-68.4zM319 662.6c-19.7 0-35.7-11.5-35.7-25.8 0-14.2 16-25.8 35.7-25.8 19.7 0 35.7 11.5 35.7 25.8 0 14.2-16 25.8-35.7 25.8z"/><radialGradient id="e" cx="65.04" cy="1602.217" r="2159.12" gradientUnits="userSpaceOnUse"><stop offset="0" stop-color="#d9dcab"/><stop offset=".27" stop-color="#97a822"/><stop offset=".848" stop-color="#387167"/></radialGradient><path fill="url(#e)" d="M430 616c0 37.8 30.6 68.4 68.4 68.4 37.8 0 68.4-30.6 68.4-68.4 0-37.8-30.6-68.4-68.4-68.4-37.8 0-68.4 30.6-68.4 68.4zm107.1 20.8c0 14.2-16 25.8-35.7 25.8-19.7 0-35.7-11.5-35.7-25.8 0-14.2 16-25.8 35.7-25.8 19.7 0 35.7 11.6 35.7 25.8z"/><radialGradient id="f" cx="65.004" cy="1602.217" r="2159.167" gradientUnits="userSpaceOnUse"><stop offset="0" stop-color="#d9dcab"/><stop offset=".27" stop-color="#97a822"/><stop offset=".848" stop-color="#387167"/></radialGradient><path fill="url(#f)" d="M668.8 547.6c-37.8 0-68.4 30.6-68.4 68.4 0 37.8 30.6 68.4 68.4 68.4 37.7 0 68.4-30.6 68.4-68.4 0-37.8-30.6-68.4-68.4-68.4zm3 118.9c-19.7 0-35.7-11.5-35.7-25.8 0-14.2 16-25.8 35.7-25.8 19.7 0 35.7 11.6 35.7 25.8 0 14.3-16 25.8-35.7 25.8z"/><radialGradient id="g" cx="65.043" cy="1602.16" r="2158.965" gradientUnits="userSpaceOnUse"><stop offset="0" stop-color="#d9dcab"/><stop offset=".27" stop-color="#97a822"/><stop offset=".848" stop-color="#387167"/></radialGradient><path fill="url(#g)" d="M481.6 758.7c0-37.8-30.6-68.4-68.4-68.4-37.8 0-68.4 30.6-68.4 68.4 0 37.8 30.6 68.4 68.4 68.4 37.7 0 68.4-30.6 68.4-68.4zm-67.4 50.5c-19.7 0-35.7-11.5-35.7-25.8 0-14.2 16-25.8 35.7-25.8 19.7 0 35.7 11.6 35.7 25.8 0 14.3-16 25.8-35.7 25.8z"/><radialGradient id="h" cx="65.045" cy="1602.16" r="2159.001" gradientUnits="userSpaceOnUse"><stop offset="0" stop-color="#d9dcab"/><stop offset=".27" stop-color="#97a822"/><stop offset=".848" stop-color="#387167"/></radialGradient><path fill="url(#h)" d="M583.6 690.3c-37.8 0-68.4 30.6-68.4 68.4 0 37.8 30.6 68.4 68.4 68.4 37.8 0 68.4-30.6 68.4-68.4 0-37.8-30.6-68.4-68.4-68.4zm5 118.9c-19.7 0-35.7-11.5-35.7-25.8 0-14.2 16-25.8 35.7-25.8 19.7 0 35.7 11.6 35.7 25.8-.1 14.3-16 25.8-35.7 25.8z"/><radialGradient id="i" cx="65.04" cy="1602.224" r="2159.083" gradientUnits="userSpaceOnUse"><stop offset="0" stop-color="#d9dcab"/><stop offset=".27" stop-color="#97a822"/><stop offset=".848" stop-color="#387167"/></radialGradient><path fill="url(#i)" d="M498.4 833c-37.8 0-68.4 30.6-68.4 68.4 0 37.8 30.6 68.4 68.4 68.4 37.8 0 68.4-30.6 68.4-68.4 0-37.8-30.6-68.4-68.4-68.4zm6.9 118.9c-19.7 0-35.7-11.6-35.7-25.8 0-14.2 16-25.8 35.7-25.8 19.7 0 35.7 11.6 35.7 25.8 0 14.3-15.9 25.8-35.7 25.8z"/><radialGradient id="j" cx="65.004" cy="1602.217" r="2159.167" gradientUnits="userSpaceOnUse"><stop offset="0" stop-color="#d9dcab"/><stop offset=".27" stop-color="#97a822"/><stop offset=".848" stop-color="#387167"/></radialGradient><path fill="url(#j)" d="M671.8 615c-19.7 0-35.7 11.6-35.7 25.8 0 14.2 16 25.8 35.7 25.8 19.7 0 35.7-11.5 35.7-25.8 0-14.2-16-25.8-35.7-25.8z"/><radialGradient id="k" cx="683.727" cy="714.092" r="214.07" gradientUnits="userSpaceOnUse"><stop offset="0" stop-color="#d9dcab"/><stop offset="1" stop-color="#97a822"/></radialGradient><path fill="url(#k)" d="M671.8 615c-19.7 0-35.7 11.6-35.7 25.8 0 14.2 16 25.8 35.7 25.8 19.7 0 35.7-11.5 35.7-25.8 0-14.2-16-25.8-35.7-25.8z"/><radialGradient id="l" cx="65.04" cy="1602.217" r="2159.12" gradientUnits="userSpaceOnUse"><stop offset="0" stop-color="#d9dcab"/><stop offset=".27" stop-color="#97a822"/><stop offset=".848" stop-color="#387167"/></radialGradient><path fill="url(#l)" d="M465.7 636.8c0 14.2 16 25.8 35.7 25.8 19.7 0 35.7-11.5 35.7-25.8 0-14.2-16-25.8-35.7-25.8-19.7 0-35.7 11.6-35.7 25.8z"/><radialGradient id="m" cx="513.277" cy="710.14" r="214.082" gradientUnits="userSpaceOnUse"><stop offset="0" stop-color="#d9dcab"/><stop offset="1" stop-color="#97a822"/></radialGradient><path fill="url(#m)" d="M465.7 636.8c0 14.2 16 25.8 35.7 25.8 19.7 0 35.7-11.5 35.7-25.8 0-14.2-16-25.8-35.7-25.8-19.7 0-35.7 11.6-35.7 25.8z"/><radialGradient id="n" cx="65.032" cy="1602.217" r="2159.078" gradientUnits="userSpaceOnUse"><stop offset="0" stop-color="#d9dcab"/><stop offset=".27" stop-color="#97a822"/><stop offset=".848" stop-color="#387167"/></radialGradient><path fill="url(#n)" d="M319 611c-19.7 0-35.7 11.5-35.7 25.8 0 14.2 16 25.8 35.7 25.8 19.7 0 35.7-11.5 35.7-25.8 0-14.2-16-25.8-35.7-25.8z"/><radialGradient id="o" cx="330.942" cy="710.14" r="214.07" gradientUnits="userSpaceOnUse"><stop offset="0" stop-color="#d9dcab"/><stop offset="1" stop-color="#97a822"/></radialGradient><path fill="url(#o)" d="M319 611c-19.7 0-35.7 11.5-35.7 25.8 0 14.2 16 25.8 35.7 25.8 19.7 0 35.7-11.5 35.7-25.8 0-14.2-16-25.8-35.7-25.8z"/><radialGradient id="p" cx="65.043" cy="1602.16" r="2158.965" gradientUnits="userSpaceOnUse"><stop offset="0" stop-color="#d9dcab"/><stop offset=".27" stop-color="#97a822"/><stop offset=".848" stop-color="#387167"/></radialGradient><path fill="url(#p)" d="M414.2 757.7c-19.7 0-35.7 11.6-35.7 25.8 0 14.2 16 25.8 35.7 25.8 19.7 0 35.7-11.5 35.7-25.8s-16-25.8-35.7-25.8z"/><radialGradient id="q" cx="426.081" cy="856.815" r="214.139" gradientUnits="userSpaceOnUse"><stop offset="0" stop-color="#d9dcab"/><stop offset="1" stop-color="#97a822"/></radialGradient><path fill="url(#q)" d="M414.2 757.7c-19.7 0-35.7 11.6-35.7 25.8 0 14.2 16 25.8 35.7 25.8 19.7 0 35.7-11.5 35.7-25.8s-16-25.8-35.7-25.8z"/><radialGradient id="r" cx="65.045" cy="1602.16" r="2159.001" gradientUnits="userSpaceOnUse"><stop offset="0" stop-color="#d9dcab"/><stop offset=".27" stop-color="#97a822"/><stop offset=".848" stop-color="#387167"/></radialGradient><path fill="url(#r)" d="M588.6 757.7c-19.7 0-35.7 11.6-35.7 25.8 0 14.2 16 25.8 35.7 25.8 19.7 0 35.7-11.5 35.7-25.8-.1-14.3-16-25.8-35.7-25.8z"/><radialGradient id="s" cx="600.467" cy="856.815" r="214.139" gradientUnits="userSpaceOnUse"><stop offset="0" stop-color="#d9dcab"/><stop offset="1" stop-color="#97a822"/></radialGradient><path fill="url(#s)" d="M588.6 757.7c-19.7 0-35.7 11.6-35.7 25.8 0 14.2 16 25.8 35.7 25.8 19.7 0 35.7-11.5 35.7-25.8-.1-14.3-16-25.8-35.7-25.8z"/><radialGradient id="t" cx="65.04" cy="1602.224" r="2159.083" gradientUnits="userSpaceOnUse"><stop offset="0" stop-color="#d9dcab"/><stop offset=".27" stop-color="#97a822"/><stop offset=".848" stop-color="#387167"/></radialGradient><path fill="url(#t)" d="M505.3 900.4c-19.7 0-35.7 11.6-35.7 25.8 0 14.2 16 25.8 35.7 25.8 19.7 0 35.7-11.6 35.7-25.8 0-14.3-15.9-25.8-35.7-25.8z"/><radialGradient id="u" cx="517.233" cy="999.518" r="214.145" gradientUnits="userSpaceOnUse"><stop offset="0" stop-color="#d9dcab"/><stop offset="1" stop-color="#97a822"/></radialGradient><path fill="url(#u)" d="M505.3 900.4c-19.7 0-35.7 11.6-35.7 25.8 0 14.2 16 25.8 35.7 25.8 19.7 0 35.7-11.6 35.7-25.8 0-14.3-15.9-25.8-35.7-25.8z"/><path fill="#7C5F47" d="M503.9 466.6l14.5-14.5s43.4-260.4-245.9-419.5l-38.6 19.3s265.2 120.6 270 414.7z"/></svg>