<svg xmlns:xlink="http://www.w3.org/1999/xlink"  xmlns="http://www.w3.org/2000/svg" width="100" height="100" viewBox="0 0 100 100"><path fill="#1DB9EC" d="M25.529 21.359l-.455-.236c-.059.241-.171.726-.224.967-.685.236-.75-.513-.915-.961-.354.501-.926.977-.772 1.67-.006.551.566.838.861 1.233l-.041.073c.737-.044 1.664-.085 1.971-.893.359-.661-.06-1.322-.425-1.853z"/><path fill="#0C9FD3" d="M22.216 29.435c.033-1.206-.947-2.046-1.932-2.542.059.673.129 1.346.221 2.018l-.233.39.047-.761a76.32 76.32 0 0 0-1.239.2c-.449-.51-.484-1.144-.348-1.785-.744.546-1.59 1.148-1.682 2.15-.239 1.109.478 2.065 1.259 2.752.493.115.988.221 1.484.336 1.305-.259 2.508-1.342 2.423-2.758z"/><path fill="#0AA2D6" d="M59.892 34.687c.517.106 1.035.183 1.565.212-.188.478-.318 1.189-.996 1.068-.637-.121-.466-.818-.569-1.28z"/><path fill="#0DADE0" d="M12.82 29.4c-.095.271-.283.82-.378 1.091-.145.006-.436.019-.584.027-.112-.245-.342-.734-.454-.977-.29.466-.782.897-.72 1.496.065.493.413.876.644 1.301l.129-.404-.121.463c.75.021 1.734.068 2.109-.749.514-.808-.141-1.628-.625-2.248z"/><path fill="#21BFF0" d="M30.151 28.577c.318.696.791 1.602.121 2.263-.625.761-1.614.372-2.318-.026a3.872 3.872 0 0 1 .174-2.151c-.74.478-1.569.903-2.054 1.673-1.047 1.501-.85 3.735.531 4.976l-.044.183c1.322.938 2.986 1.25 4.525.661 1.316-.79 2.188-2.147 2.271-3.699-.153-1.842-1.451-3.358-3.206-3.88zm.392 2.54c.554-.018.537.9-.018.862-.557.017-.536-.897.018-.862z"/><path fill="#0F99CD" d="M53.773 38.338l-.322-.584c-.259.502-.495 1.425.319 1.528.764.168.813-.69.915-1.21-.307.08-.614.172-.912.266z"/><path fill="#0888BC" d="M58.372 37.035l-.377 1.056c-.449-.218-.683-.641-.862-1.08-.283.434-.79.805-.755 1.372-.021.582.543.894.873 1.29l-.035.07c.596-.138 1.374-.159 1.652-.82.412-.685-.147-1.334-.496-1.888z"/><path fill="#27C3F3" d="M63.134 38.519c-.039.646-.06 1.295-.077 1.943-.054-.188-.162-.572-.219-.761-.224.053-.672.168-.894.224a23.529 23.529 0 0 1-.191-1.534c-.602.53-1.404 1.077-1.398 1.982-.086.785.496 1.375 1.012 1.876l-.009.048c.448.065.896.132 1.352.215.819-.342 1.392-1.009 1.734-1.817-.172-.864-.614-1.628-1.31-2.176z"/><path fill="#19BAED" d="M28.705 41.105c-1.138-2.222-3.253-3.812-5.693-4.331 1.062.979 1.731 2.619.835 3.935-.788 1.365-2.567 1.54-3.897.915a6.96 6.96 0 0 1-1.266-1.953c.112-1.003.419-1.962 1.124-2.708-2.239.693-4.221 2.307-5.094 4.52-.974 2.266-.64 4.917.59 7.021.584.785 1.257 1.499 2.047 2.083l-.012.081a10.765 10.765 0 0 0 3.871 1.381 11.23 11.23 0 0 0 3.616-.623c2.793-1.282 4.644-4.19 4.626-7.271-.148-1.038-.378-2.065-.747-3.05zm-4.58.532c.324.194.631.424.92.678-.274.312-.46.849-.926.92-.389-.136-.749-.354-1.115-.537.33-.389.537-.997 1.121-1.061z"/><path fill="#25BDEE" d="M61.641 45.33l-.067.129c-.027-1.521-1.236-2.631-2.481-3.298.21.731.472 1.578-.203 2.177.197.242.404.487.619.726l-.334.436c-.147-.115-.451-.348-.603-.472a14.297 14.297 0 0 1-.067-.469c-.676.292-1.229-.207-1.802-.455-.024-.74.064-1.472.445-2.124-.988.428-2.063.894-2.6 1.891-.946 1.452-.613 3.393.48 4.673l-.021.077c.549.313 1.074.719 1.723.796l.189-.077.051.219c.613.271 1.359 0 2.022-.003 1.71-.658 2.82-2.395 2.649-4.226z"/><radialGradient id="a" cx="103" cy="95.403" r="97.905" gradientUnits="userSpaceOnUse"><stop offset=".121" stop-color="#d6de23"/><stop offset=".455" stop-color="#8bc53f"/><stop offset=".746" stop-color="#009345"/><stop offset="1" stop-color="#00411d"/></radialGradient><path fill="url(#a)" d="M40.809 44.651c-2.458-1.109-5.044-2.018-7.197-3.682-.16.437-.319.876-.476 1.316.563.224 1.13.448 1.702.661a13.371 13.371 0 0 0-1.077-.195c-.737-.239-.746.762-1.047 1.189.599.315 1.204.628 1.805.94l-1.38-.177c-.163.325-.325.655-.484.979.838.307 1.682.62 2.502.974-1.003-.25-1.959-.658-2.974-.855-.171.142-.516.433-.688.578.168.136.504.401.67.538a23.395 23.395 0 0 0-.979 2.403c-.207-.042-.614-.126-.827-.168a2.1 2.1 0 0 0 .333 1.349c-.138.372-.274.746-.41 1.124.407.211.814.43 1.222.648-.702-.136-1.404-.28-2.106-.43-.142.395-.262.79-.366 1.19.251.561 1.006.596 1.481.908-.681-.215-1.369-.424-2.05-.625-.144.41-.28.827-.422 1.245 2.614.229 4.974 1.463 7.434 2.283 1.9-4.001 3.511-8.146 5.334-12.193z"/><radialGradient id="b" cx="103.011" cy="95.401" r="97.913" gradientUnits="userSpaceOnUse"><stop offset=".121" stop-color="#d6de23"/><stop offset=".455" stop-color="#8bc53f"/><stop offset=".746" stop-color="#009345"/><stop offset="1" stop-color="#00411d"/></radialGradient><path fill="url(#b)" d="M84.118 68.438c-4.955 1.286-10.315.384-14.908-1.753-4.685-2.177-7.263-6.908-11.018-10.218-4.463-3.968-9.445-7.436-14.941-9.816.101-.266.307-.803.407-1.074-.395-.23-.92-.797-1.386-.396-.419.62-.667 1.333-.962 2.019-1.466 3.516-3.05 6.985-4.46 10.524.41.165.905.729 1.359.348.219-.3.428-.607.623-.923 2.915 1.319 5.758 2.812 8.445 4.546 3.519 2.279 6.569 5.174 9.829 7.793 3.466 2.746 7.366 5.381 11.871 5.883 2.206.307 4.227-.75 6.174-1.619a168.16 168.16 0 0 0 9.215-4.439c1.97-1.063 3.958-2.344 5.109-4.324-1.483 1.556-3.22 2.943-5.357 3.449z"/><radialGradient id="c" cx="103.007" cy="95.406" r="97.915" gradientUnits="userSpaceOnUse"><stop offset=".121" stop-color="#d6de23"/><stop offset=".455" stop-color="#8bc53f"/><stop offset=".746" stop-color="#009345"/><stop offset="1" stop-color="#00411d"/></radialGradient><path fill="url(#c)" d="M64.614 60.483c3.635-3.797 8.773-5.937 13.967-6.376 3.284-.303 6.622.449 9.425 2.195-3.557-3.18-8.276-4.519-12.695-6.059-2.395-.711-4.735-2.071-7.316-1.747-2.088.307-4.005 1.28-5.799 2.354-1.369.879-2.776 1.74-3.93 2.908 2.331 2.032 4.366 4.362 6.348 6.725z"/><radialGradient id="d" cx="103.011" cy="95.404" r="97.914" gradientUnits="userSpaceOnUse"><stop offset=".121" stop-color="#d6de23"/><stop offset=".455" stop-color="#8bc53f"/><stop offset=".746" stop-color="#009345"/><stop offset="1" stop-color="#00411d"/></radialGradient><path fill="url(#d)" d="M88.187 63.913c1.054-2.194.688-5.348-1.489-6.736-1.813-1.133-3.998-1.34-6.033-1.813.457 2.169 1.048 4.337 1.064 6.57.084 1.902-.342 3.774-.542 5.66 2.683-.135 5.651-1.199 7-3.681z"/><radialGradient id="e" cx="103.013" cy="95.408" r="97.92" gradientUnits="userSpaceOnUse"><stop offset=".121" stop-color="#d6de23"/><stop offset=".455" stop-color="#8bc53f"/><stop offset=".746" stop-color="#009345"/><stop offset="1" stop-color="#00411d"/></radialGradient><path fill="url(#e)" d="M42.113 67.613c-2.95 1.875-6.245 3.221-9.688 3.863-3.521.685-7.091 1.321-10.365 2.851 3.416.896 6.531 2.565 9.545 4.356 2.271 1.384 5.115 1.944 7.658.987 5.9-2.152 12.271-4.084 16.715-8.783-2.938-2.207-5.493-4.921-8.59-6.892-1.866 1.039-3.411 2.568-5.275 3.618z"/><radialGradient id="f" cx="103.01" cy="95.394" r="97.908" gradientUnits="userSpaceOnUse"><stop offset=".121" stop-color="#d6de23"/><stop offset=".455" stop-color="#8bc53f"/><stop offset=".746" stop-color="#009345"/><stop offset="1" stop-color="#00411d"/></radialGradient><path fill="url(#f)" d="M36.502 57.412c1.814-3.718 3.283-7.599 4.994-11.375.227-.566.764-1.705-.357-1.411-1.888 4.213-3.764 8.449-5.448 12.75.203.014.607.03.811.036z"/></svg>