<svg xmlns:xlink="http://www.w3.org/1999/xlink"  xmlns="http://www.w3.org/2000/svg" viewBox="0 0 1000 1000"><path fill="#A6B890" d="M666 602.8c0 47.1-75.4 85.3-169.6 85.3-88 0-158.9-33.4-168-76.2h.6V850h14v-77h5v48h15v-93.6c19 13.3 48 26 91 31.2V941h58v-91h14v62h19V757.5c39-6.2 68-19.5 87-33.1V801h14v-38h5v58h15V634.7v.4-32.3zM668 599.7h-.2c.1 1 .2 2 .2 3v-3z"/><path fill="#9A6241" d="M497.3 688c94.2 0 170.5-38.2 170.5-85.3 0-1-.5-2-.5-3-.5-6.7-1.3-13.3-6.3-19.5V442.7l183-182.6-18.9-8L661 416V75H329v264.7L199.5 97.3 184 108l145 274v229.9h-.1c9.1 42.8 80.4 76.1 168.4 76.1zm-4.2-11.2c-16.5 0-29.8-13.3-29.8-29.8s13.3-29.8 29.8-29.8 29.8 13.3 29.8 29.8-13.3 29.8-29.8 29.8zm137.7-66.5c-13.3 0-24.1-10.8-24.1-24.1s10.8-24.1 24.1-24.1 24.1 10.8 24.1 24.1-10.8 24.1-24.1 24.1zm-72.4-400.4s31.2 48.2-5.7 106.4c0 .1-29.8-69.5 5.7-106.4zM573.5 351s26.5-18.9 57.5 14.3c0 0-35.5 16.7-57.5-14.3zm67.4-208s-10.7 23.1-34.6 16.9c0-.1 5.3-20.5 34.6-16.9zm-32-53.5s14.8 44.6-12.1 66.3c.1-.1-30.5-29.9 12.1-66.3zm37.3 181.1s-26.6 67.3-79.8 66.3c0 0-6.6-65.5 79.8-66.3zm-64.7-119.4s-43.8-22.2-41.6-55.3c0 0 35.7 11 41.6 55.3zm-118.3 3s11.2 20-5.9 34.2c.1 0-12.1-14.7 5.9-34.2zm-13.8 38.9s-37.9 6.7-42.2-43.7c.1 0 40.5 12.6 42.2 43.7zm-11.3 8.9s-39.3 20.4-62.3 1.3c-.1 0 26.7-20.3 62.3-1.3zM331.5 593.2c0-12.4 7.5-22.4 21.5-23.8V80.8l14 1.4v489.9c5 4.1 12.7 12 12.7 21.2 0 13.3-10.8 24.1-24.1 24.1s-24.1-10.8-24.1-24.2z"/><path fill="#A6B890" d="M219.7 244.1s-29.4-42.7-80.1-34.7c.1 0 29.4 40.1 80.1 34.7zM197.2 338.2s47.7 13.8 84.6-21.4c0 0-49.4-15.9-84.6 21.4zM259.8 156c40-40 2.7-96.1 2.7-96.1-20.9 31.4-10.7 72.6-5.3 89 1.5 4.5 2.6 7.1 2.6 7.1zM758.5 177.3c-35.5 36.9-5.7 106.4-5.7 106.4 36.9-58.2 5.7-106.4 5.7-106.4zM795.4 341.9c38.3 36.9 103.6 5.7 103.6 5.7-63.9-58.2-103.6-5.7-103.6-5.7zM850.8 255c50.3 16.8 76.6-31.1 76.6-31.1-62.3-12-76.6 31.1-76.6 31.1zM558.4 209.9c-35.5 36.9-5.7 106.4-5.7 106.4 36.9-58.1 5.7-106.4 5.7-106.4zM566.4 336.9c53.2 1 79.8-66.3 79.8-66.3-86.4.8-79.8 66.3-79.8 66.3zM631 365.3c-31-33.2-57.5-14.3-57.5-14.3 22 31 57.5 14.3 57.5 14.3zM701.1 439c-28.3 29.4-4.5 84.9-4.5 84.9 29.4-46.4 4.5-84.9 4.5-84.9zM707.5 540.3c42.4.8 63.6-52.9 63.6-52.9-68.9.6-63.6 52.9-63.6 52.9zM713.1 551.5c17.6 24.7 45.9 11.4 45.9 11.4-24.8-26.5-45.9-11.4-45.9-11.4zM246.5 504.2c40.6-4 58.6-61.6 58.6-61.6-52.6 16.1-58.6 61.6-58.6 61.6zM224.6 421.9c52.8 44.3 82.8 1.1 82.8 1.1-31.8-28.1-82.8-1.1-82.8-1.1zM283 372.3c1.6 36.2 27.5 38.5 27.5 38.5 2.6-30.2-27.5-38.5-27.5-38.5zM581.5 151.2c-5.9-44.3-41.6-55.3-41.6-55.3-2.2 33.2 41.6 55.3 41.6 55.3zM608.9 89.5c-42.7 36.4-12.1 66.3-12.1 66.3 26.9-21.8 12.1-66.3 12.1-66.3zM606.3 159.8c23.9 6.2 34.6-16.9 34.6-16.9-29.3-3.5-34.6 16.9-34.6 16.9zM438.1 202c-35.5-19-62.3 1.3-62.3 1.3 23 19.1 62.3-1.3 62.3-1.3zM449.4 193.1c-1.7-31.1-42.2-43.7-42.2-43.7 4.3 50.4 42.2 43.7 42.2 43.7zM463.2 154.2c-18 19.5-5.9 34.2-5.9 34.2 17.2-14.2 5.9-34.2 5.9-34.2z"/><path fill="#B48569" d="M367 572.1V82.2l-14-1.4v488.6c0-.1 1.8-.3 2.7-.3 4.2 0 7.3 1.1 11.3 3z"/><circle fill="#A6B890" cx="493.1" cy="647" r="29.8"/><path fill="#A6B890" d="M355.5 617.4c13.3 0 24.1-10.8 24.1-24.1 0-9.2-5.2-17.1-12.8-21.2-3.4-1.8-7.2-3-11.4-3-1 0-1.9.2-2.8.3-12 1.4-21.3 11.5-21.3 23.8.1 13.4 10.9 24.2 24.2 24.2z"/><circle fill="#A6B890" cx="630.8" cy="586.1" r="24.1"/></svg>