<svg xmlns:xlink="http://www.w3.org/1999/xlink"  xmlns="http://www.w3.org/2000/svg" viewBox="0 0 1000 1000"><path fill="#909A34" d="M414.8 452.2c-10.3-2.5-18.5-5.1-24.4-7.3-2.8 16.9-28.2 183.3 57.8 253.1 8.8 7.1 18.7 12.5 29.2 16.4-1.6-2.5-3.2-4.9-4.9-7.4-77.7-119-59.8-242.5-57.7-254.8zM583.8 645.5c-16.9-1.8-33.7-10.8-47.4-25.5 1.7 2.6 3.4 5.2 5.2 7.6 21.3 28.9 43.5 55.2 57.4 90.6 33.1-5.2 59.9-11.8 69.2-8.7.1 0-24.2-57.6-84.4-64z"/><path fill="#CDCE9E" d="M536.4 620c-26.9-42.1-36.3-105.4-3.1-166.1-50.1 9.7-91.4 4.7-118.6-1.8-2 12.4-19.9 135.8 57.8 254.8 1.7 2.5 3.2 5 4.9 7.4 77.9 119.1 98.2 149.5 71.9 190.9 0 0 61.4-9 64-98.5 1-36.3-4.7-64.5-14.2-88.5-14-35.4-36.1-61.6-57.4-90.6-1.9-2.4-3.6-5-5.3-7.6z"/><path fill="#FFAF3A" d="M446 329.7c0 25.9 21 46.9 46.9 46.9s46.9-21 46.9-46.9-21-46.9-46.9-46.9c-25.8 0-46.9 21-46.9 46.9z"/><path fill="#909A34" d="M643.1 201.2c49.5 20.5 64.8-30.7 13.6-58 0 0 49.5 13.6 40.9 51.2 0 0 11.9 17.1-6.8 68.2 0 0 20.5-15.4 20.5-73.3 0-15.9 8.5-8.5 6.8-34.1-4.4-66.4-110.9-32.4-127.9-56.3 0-.1 3.4 81.8 52.9 102.3zM464 156.2c8.8 5.6 1.7 7.7 16.4 15.8 38.1 21 57-49.6 76.2-50.5 0 0-46.3-27.1-75-7.1-28.7 20-6 46.5 27.1 28 0 0-25 22.4-42.6 4.4 0 0-13.6.5-35.1-27.9-.1.1 1.1 16.8 33 37.3zM404.9 82c24.4 1.9 23.8-22.5-2.3-27.1 0 0 23.4-1.1 25 16.4 0 0 7.6 5.7 6.7 30.6 0 0 6.7-9.5-1.5-34.7-2.3-6.9 2.5-4.9-1.9-15.8-11.3-28.2-52.7 1.6-63.5-6.3.1 0 13.1 35 37.5 36.9z"/><path fill="#D8D9DB" d="M582.2 919.2c-36 0-65.1 9.6-65.1 21.3 0 11.8 29.2 21.3 65.1 21.3 36 0 65.1-9.6 65.1-21.3.1-11.8-29.1-21.3-65.1-21.3z"/><path fill="#909A34" d="M486.2 414.1c-19.9-24.6-57.4-54.9-126.6-73-120.9-31.6-148.1-107.6-148.1-107.6 40.9 133.2 115.2 188.3 179.1 210.1v.2c16 3.1 49.3 3.1 95.6-29.7z"/><path fill="#C0C287" d="M379.9 440.6c-.2-.1-.3-.1-.3-.1s.2 0 .3.1zM533.3 453.9c21.9-4.2 45.5-11.2 70.3-22.2 128.3-56.5 121.7-219.6 121.7-219.6s-8.7 54.4-50 78.3-99.5 43.9-159.3 99.2c-10.5 9.7-20.4 17.7-29.8 24.4-46.2 32.8-79.5 32.8-95.6 29.7-6.1-1.2-9.7-2.8-10.6-3.2.9.4 4.5 2.1 10.4 4.3 5.9 2.2 14.1 4.8 24.4 7.3 27.1 6.6 68.4 11.5 118.5 1.8z"/></svg>