<svg xmlns:xlink="http://www.w3.org/1999/xlink"  xmlns="http://www.w3.org/2000/svg" width="100" height="100" viewBox="0 0 100 100"><path fill="#603813" d="M50.779 19.06l-4.352 76.394h8.465z"/><path fill="#603813" d="M51.985 65.727c1.939-1.689 18.137-13.539 18.137-13.539l-18.376 18.14.239-4.601zM50.295 57.507l-.239 3.629-22.249-12.573zM51.019 45.9v2.902l15.484-10.883zM50.295 34.05L40.14 28.731l10.4 8.465z"/><circle fill="#BFD74E" cx="73.51" cy="46.868" r="4.594"/><path fill="#E29F37" d="M69.404 32.599a4.598 4.598 0 0 1-9.194 0 4.59 4.59 0 0 1 4.597-4.591 4.593 4.593 0 0 1 4.597 4.591zM76.536 55.333a3.263 3.263 0 0 1-3.263 3.263 3.264 3.264 0 1 1 0-6.531 3.264 3.264 0 0 1 3.263 3.268z"/><path fill="#8A8A47" d="M32.159 42.755a5.08 5.08 0 0 1-5.075 5.08 5.077 5.077 0 1 1 0-10.155 5.076 5.076 0 0 1 5.075 5.075z"/><circle fill="#BFD74E" cx="55.859" cy="13.496" r="5.442"/><path fill="#487F3F" d="M49.935 16.036a2.66 2.66 0 1 1-5.321-.007 2.66 2.66 0 0 1 5.321.007z"/><path fill="#8A8A47" d="M72.185 39.248a2.661 2.661 0 1 1-5.32 0 2.656 2.656 0 0 1 2.657-2.657 2.66 2.66 0 0 1 2.663 2.657z"/><path fill="#BFD74E" d="M73.238 26.975a2.659 2.659 0 1 1-5.32 0 2.66 2.66 0 0 1 5.32 0zM76.938 21.609a2.66 2.66 0 0 1-5.319 0 2.66 2.66 0 1 1 5.319 0z"/><path fill="#8A8A47" d="M77.381 33.083a3.384 3.384 0 0 1-3.385 3.385 3.38 3.38 0 0 1-3.385-3.385 3.384 3.384 0 0 1 3.385-3.385 3.387 3.387 0 0 1 3.385 3.385z"/><path fill="#487F3F" d="M81.933 26.843a3.389 3.389 0 0 1-6.776 0 3.388 3.388 0 0 1 6.776 0z"/><path fill="#8A8A47" d="M59.728 31.149a3.385 3.385 0 1 1-3.385-3.385 3.386 3.386 0 0 1 3.385 3.385z"/><path fill="#487F3F" d="M58.517 22.928a3.383 3.383 0 0 1-3.381 3.385c-1.872 0-3.39-1.517-3.39-3.385s1.518-3.386 3.39-3.386a3.384 3.384 0 0 1 3.381 3.386z"/><path fill="#BFD74E" d="M66.259 21.716a3.383 3.383 0 0 1-3.385 3.385 3.383 3.383 0 0 1-3.385-3.385 3.386 3.386 0 0 1 3.385-3.385 3.388 3.388 0 0 1 3.385 3.385z"/><path fill="#E29F37" d="M28.535 51.942a3.389 3.389 0 0 1-3.385 3.391 3.39 3.39 0 0 1-3.39-3.391 3.383 3.383 0 0 1 3.39-3.379 3.382 3.382 0 0 1 3.385 3.379z"/><path fill="#487F3F" d="M35.061 56.057a3.388 3.388 0 0 1-3.385 3.389 3.388 3.388 0 0 1 0-6.776 3.385 3.385 0 0 1 3.385 3.387zM38.934 39.614a3.387 3.387 0 1 1-6.776 0 3.388 3.388 0 0 1 6.776 0z"/><path fill="#BFD74E" d="M23.693 35.741a3.38 3.38 0 0 1-3.38 3.385 3.383 3.383 0 1 1 3.38-3.385z"/><path fill="#8A8A47" d="M20.792 42.755a2.413 2.413 0 0 1-2.414 2.417 2.417 2.417 0 1 1 0-4.835 2.415 2.415 0 0 1 2.414 2.418zM33.854 27.764a2.42 2.42 0 0 1-2.418 2.417 2.416 2.416 0 0 1-2.417-2.417 2.416 2.416 0 1 1 4.835 0zM61.602 26.552a1.632 1.632 0 1 1-3.264 0 1.632 1.632 0 0 1 3.264 0z"/><path fill="#487F3F" d="M28.911 29.622a1.632 1.632 0 1 1 0 0zM49.435 30.151c0 .901-.733 1.634-1.634 1.634a1.63 1.63 0 1 1 1.634-1.634z"/><path fill="#8A8A47" d="M47.002 20.632c0 .901-.733 1.634-1.628 1.634a1.633 1.633 0 1 1 0-3.268c.895 0 1.628.733 1.628 1.634z"/><path fill="#487F3F" d="M50.281 22.322a1.632 1.632 0 1 1-3.263.005 1.632 1.632 0 0 1 3.263-.005z"/><path fill="#BFD74E" d="M45.124 12.615a1.632 1.632 0 1 1 0 0z"/><circle fill="#8A8A47" cx="40.24" cy="14.463" r="1.632"/><path fill="#487F3F" d="M41.52 10.609a1.63 1.63 0 0 1-1.628 1.629 1.63 1.63 0 0 1-1.629-1.629 1.628 1.628 0 1 1 3.257 0z"/><circle fill="#487F3F" cx="15.534" cy="38.509" r="1.634"/><path fill="#E29F37" d="M27.853 57.344a1.631 1.631 0 1 1-3.262-.004 1.631 1.631 0 0 1 3.262.004z"/><path fill="#BFD74E" d="M42.559 38.194a1.635 1.635 0 0 1-3.268 0 1.64 1.64 0 0 1 1.634-1.634c.901 0 1.634.733 1.634 1.634zM38.853 34.387a1.63 1.63 0 1 1-1.628-1.634 1.63 1.63 0 0 1 1.628 1.634z"/><path fill="#487F3F" d="M38.114 30.787c0 .901-.733 1.634-1.634 1.634a1.635 1.635 0 0 1 0-3.268c.901 0 1.634.733 1.634 1.634z"/><path fill="#BFD74E" d="M42.559 34.387a1.635 1.635 0 0 1-3.268 0 1.64 1.64 0 0 1 1.634-1.634 1.635 1.635 0 0 1 1.634 1.634z"/><circle fill="#487F3F" cx="45.686" cy="44.75" r="1.632"/><circle fill="#487F3F" cx="53.836" cy="36.183" r="1.632"/><path fill="#487F3F" d="M62.98 51.204a1.633 1.633 0 1 1-3.268 0c0-.9.732-1.628 1.634-1.628.901 0 1.634.728 1.634 1.628z"/><path fill="#BFD74E" d="M70.382 13.755c0 .896-.733 1.629-1.629 1.629-.9 0-1.634-.733-1.634-1.629 0-.901.733-1.634 1.634-1.634.895 0 1.629.733 1.629 1.634z"/><path fill="#487F3F" d="M70.493 22.857a1.634 1.634 0 1 1-1.639-1.64 1.64 1.64 0 0 1 1.639 1.64z"/><ellipse fill="#487F3F" cx="74.464" cy="38.723" rx="1.628" ry="1.634"/><circle fill="#487F3F" cx="68.433" cy="57.13" r="1.634"/><path fill="#487F3F" d="M66.89 60.729a1.632 1.632 0 1 1-1.629-1.634c.896 0 1.629.733 1.629 1.634z"/><circle fill="#BFD74E" cx="63.037" cy="54.273" r="1.634"/><circle fill="#8A8A47" cx="44.946" cy="38.932" r="1.634"/><path fill="#BFD74E" d="M81.173 32.162a1.631 1.631 0 1 1-3.263.005 1.631 1.631 0 0 1 3.263-.005z"/><circle fill="#E29F37" cx="30.665" cy="14.285" r="1.631"/><path fill="#E29F37" d="M27.562 25.346a2.416 2.416 0 0 1-2.413 2.418c-1.338 0-2.422-1.085-2.422-2.418s1.084-2.417 2.422-2.417a2.414 2.414 0 0 1 2.413 2.417z"/><path fill="#BFD74E" d="M37.962 14.224a2.416 2.416 0 0 1-4.831 0 2.416 2.416 0 1 1 4.831 0z"/><circle fill="#8A8A47" cx="47.638" cy="10.111" r="2.418"/><path fill="#BFD74E" d="M64.563 6.965c0 1.339-1.084 2.423-2.418 2.423a2.42 2.42 0 0 1 0-4.841 2.42 2.42 0 0 1 2.418 2.418z"/><path fill="#E29F37" d="M66.742 15.19a2.42 2.42 0 1 1-4.84-.004 2.42 2.42 0 0 1 4.84.004z"/><path fill="#8A8A47" d="M72.063 18.332a2.418 2.418 0 1 1-4.836 0 2.418 2.418 0 0 1 4.836 0z"/><circle fill="#BFD74E" cx="65.048" cy="42.516" r="2.418"/><path fill="#487F3F" d="M63.597 46.628a2.417 2.417 0 0 1-2.418 2.413 2.418 2.418 0 1 1 2.418-2.413zM81.978 52.427a2.419 2.419 0 1 1 0 0z"/><path fill="#8A8A47" d="M82.187 37.563a2.576 2.576 0 0 1-2.575 2.581 2.576 2.576 0 0 1 0-5.151 2.57 2.57 0 0 1 2.575 2.57z"/><path fill="#BFD74E" d="M83.036 43.172a2.58 2.58 0 0 1-5.157 0 2.58 2.58 0 0 1 5.157 0z"/><path fill="#487F3F" d="M86.101 48.145a2.58 2.58 0 0 1-2.576 2.577 2.575 2.575 0 1 1 2.576-2.577z"/><path fill="#8A8A47" d="M44.101 42.851a2.58 2.58 0 0 1-2.581 2.581 2.58 2.58 0 0 1 0-5.157 2.58 2.58 0 0 1 2.581 2.576z"/><path fill="#E29F37" d="M29.395 34.493a2.58 2.58 0 0 1-2.576 2.581 2.577 2.577 0 0 1-2.576-2.581 2.576 2.576 0 0 1 5.152 0z"/><path fill="#8A8A47" d="M24.208 29.418a2.575 2.575 0 1 1-5.15 0 2.575 2.575 0 0 1 5.15 0z"/><path fill="#BFD74E" d="M35.004 33.119a2.585 2.585 0 0 1-2.581 2.581 2.58 2.58 0 0 1 0-5.157 2.584 2.584 0 0 1 2.581 2.576z"/><path fill="#487F3F" d="M44.899 48.481a2.575 2.575 0 1 1-5.151 0 2.575 2.575 0 0 1 5.151 0z"/><path fill="#BFD74E" d="M60.695 37.435a2.426 2.426 0 0 1-2.419 2.423c-1.338 0-2.417-1.09-2.417-2.423s1.079-2.417 2.417-2.417a2.42 2.42 0 0 1 2.419 2.417zM47.639 25.83a3.389 3.389 0 0 1-6.776 0 3.384 3.384 0 0 1 3.385-3.385 3.385 3.385 0 0 1 3.391 3.385z"/><path fill="#487F3F" d="M43.042 19.782a3.388 3.388 0 0 1-6.776 0 3.388 3.388 0 0 1 6.776 0z"/><circle fill="#BFD74E" cx="31.191" cy="20.75" r="4.113"/><path fill="#BFD74E" d="M39.412 46.868a3.382 3.382 0 0 1-3.38 3.385c-1.873 0-3.39-1.517-3.39-3.385s1.517-3.385 3.39-3.385a3.381 3.381 0 0 1 3.38 3.385z"/><path fill="#E29F37" d="M39.657 26.313a2.66 2.66 0 0 1-5.32 0 2.664 2.664 0 0 1 2.657-2.663 2.666 2.666 0 0 1 2.663 2.663z"/><path fill="#8A8A47" d="M68.672 50.252a2.656 2.656 0 0 1-2.657 2.657 2.652 2.652 0 0 1-2.657-2.657 2.656 2.656 0 0 1 2.657-2.657 2.66 2.66 0 0 1 2.657 2.657z"/></svg>