<svg xmlns:xlink="http://www.w3.org/1999/xlink"  xmlns="http://www.w3.org/2000/svg" viewBox="0 0 1000 1000"><path fill="#FFB602" d="M480 831.3V660.7c-70 20.8-122.2 86.2-122.2 163.8 0 4.9.1 9.8.5 14.7 34.8-9.9 76.7-14.3 121.7-7.9zM540.8 844.4c4.8 1.8 9.2 3.6 14.2 5.3V655.6c-10-1.1-15.9-1.7-24.2-1.7-5.4 0-10.8.3-15.8.8v182.7c5 1.9 17 4.3 25.8 7zM690.1 881.3c6.3-17.8 9.9-36.8 9.9-56.7 0-76.3-49-140.9-119-162.8v197.5c40 13.3 76 21.2 109.1 22z"/><path fill="#357D57" d="M681.3 581.4l-9.8-10.1-79.2 77 9.7 10z"/><path fill="#55924E" d="M504.9 187.4c74.8-39.7 0-149.6 0-151.2-80.9 120.6 0 151.2 0 151.2zM588.2 208.3c82.1-20.7 35.6-145.3 36-146.8-107.3 97.9-36 146.8-36 146.8zM750.8 143.5c-139.6 40.2-97.3 115.7-97.3 115.7 82.8 17.7 96.3-114.6 97.3-115.7zM710.9 324.7c73 42.9 127.5-78.4 128.8-79.2-145.2-5.7-128.8 79.2-128.8 79.2zM746 403.5c58.3 61.5 144.2-40.1 145.6-40.5C753.8 317.3 746 403.5 746 403.5zM764.8 482.3c40.8 74.2 149.6-2.2 151.2-2.2-121.8-79.1-151.2 2.2-151.2 2.2zM416.7 208.3s71.3-48.9-36-146.8c.3 1.5-46.2 126.1 36 146.8zM351.4 259.1s42.3-75.5-97.3-115.7c.9 1.2 14.5 133.5 97.3 115.7zM294 324.7s16.4-84.9-128.8-79.2c1.3.9 55.8 122.2 128.8 79.2zM258.9 403.5s-7.8-86.1-145.6-40.5c1.4.4 87.3 101.9 145.6 40.5zM240 482.3s-29.4-81.4-151.1-2.2c1.5 0 110.3 76.4 151.1 2.2zM504 293.1c45.2-24 0-90.5 0-91.4-49 72.9 0 91.4 0 91.4zM554.3 305.8c49.6-12.5 21.6-87.9 21.8-88.8-64.9 59.2-21.8 88.8-21.8 88.8zM593.8 336.5c50.1 10.7 58.3-69.2 58.9-69.9-84.5 24.3-58.9 69.9-58.9 69.9zM628.5 376.2c44.2 26 77.1-47.4 77.9-47.9-87.8-3.5-77.9 47.9-77.9 47.9zM649.7 423.8c35.3 37.2 87.2-24.2 88.1-24.5-83.4-27.6-88.1 24.5-88.1 24.5zM752.5 470.1c-73.7-47.9-91.4 1.3-91.4 1.3 24.7 45 90.5-1.3 91.4-1.3zM428.8 217c.2.9-27.9 76.2 21.8 88.8 0 0 43.1-29.6-21.8-88.8zM411.1 336.5s25.6-45.6-58.8-69.9c.5.7 8.7 80.7 58.8 69.9zM376.4 376.2s9.9-51.4-77.9-47.9c.8.5 33.7 73.8 77.9 47.9zM267.1 399.3c.9.2 52.8 61.6 88.1 24.5-.1 0-4.7-52.1-88.1-24.5zM252.3 470.1c.9 0 66.7 46.2 91.4 1.3.1.1-17.7-49.1-91.4-1.3z"/><path fill="#357D57" d="M468.7 471.2l-68.4-60.7-9.3 10.4 68.4 60.8z"/><path fill="#357D57" d="M690.1 881.3c-33.1-.7-69.1-8.6-109.1-22V511h-26V849.8c-5-1.7-9.4-3.5-14.2-5.3-8.8-2.8-20.8-5.1-25.8-7.1V350h-35v481.2c-45-6.4-86.7-1.9-121.5 7.9-90.9 25.8-140.8 88.2-140.8 88.2C307 905.1 380 899 480 924.9v3.1h4.9c17.1 5 35.1 9 54 15.5 245.2 60.3 301.8-117.4 298.1-121.2-47.5 43.3-93.7 60.2-146.9 59z"/></svg>