<svg xmlns:xlink="http://www.w3.org/1999/xlink"  xmlns="http://www.w3.org/2000/svg" width="100" height="100" viewBox="0 0 100 100"><path fill-rule="evenodd" clip-rule="evenodd" fill="#379B49" d="M69.614 15.883c-6.762 4.673-14.354 13.513-7.901 23.257.832-3.788 1.067-7.972 3.173-10.937-.948 3.354-1.211 7.158-.388 11.651 8.343-3.598 8.532-13.468 5.116-23.971zM27.069 46.84c4.058 3.995 8.614 7.222 14.444 8.478-.823-16.667-14.543-18.98-25.733-21.837 1.988 14.154 8.623 26.836 22.452 24.91.325-.596-1.392-1.636-2.359-2.386-2.792-2.151-6.436-4.989-8.451-8.713 0-.226-.145-.216-.307-.189-.011-.091-.038-.172-.046-.263z"/><path fill="#EC1C24" d="M52.368 88.762c-.218-.786-.452-1.572-.679-2.35-.226-.796-.461-1.572-.66-2.359-.406-1.563-.759-3.128-.957-4.7a23.105 23.105 0 0 1-.208-2.358c-.018-.38-.027-.778-.027-1.167l.009-.297.009-.272c.018-.199.018-.38.036-.577a15.232 15.232 0 0 1 1.048-4.375c1.121-2.793 3.02-5.261 5.206-7.512a56.066 56.066 0 0 1 3.435-3.263 209.585 209.585 0 0 1 3.67-3.137 229.424 229.424 0 0 0 3.742-3.228 77.69 77.69 0 0 0 1.826-1.717c.578-.578 1.176-1.166 1.744-1.763a79.123 79.123 0 0 0 6.409-7.592 76.894 76.894 0 0 0 5.332-8.342 76.221 76.221 0 0 0 2.241-4.384c.345-.741.688-1.482 1.03-2.223.326-.759.651-1.51.959-2.278l-2.784 4.041c-.939 1.329-1.871 2.658-2.838 3.968-1.916 2.611-3.896 5.152-6.002 7.574a107.96 107.96 0 0 1-6.598 7.005 142.51 142.51 0 0 1-1.736 1.654c-.578.542-1.175 1.058-1.771 1.582-1.211 1.058-2.458 2.088-3.706 3.145a140.441 140.441 0 0 0-3.724 3.245c-1.22 1.13-2.423 2.297-3.561 3.562-1.121 1.266-2.197 2.603-3.109 4.068a20.074 20.074 0 0 0-2.233 4.718 16.418 16.418 0 0 0-.768 5.188l.027.66.027.325.027.325c.045.416.081.841.154 1.267.144.831.307 1.662.524 2.476.434 1.628 1.021 3.182 1.7 4.691.343.751.687 1.501 1.066 2.224.38.73.743 1.462 1.14 2.176z"/><path fill="#EC1C24" d="M42.009 4.964c.126.244.28.479.452.687.171.217.361.406.542.615.181.189.343.397.488.615.145.216.271.442.389.668l.009.027c1.03 1.537 1.754 3.254 2.323 4.998.28.868.516 1.754.723 2.649.199.894.371 1.798.515 2.711a46.047 46.047 0 0 1 .515 8.198c-.009.461-.027.913-.063 1.365l-.045.687-.063.688c-.597 7.357-2.079 14.67-3.507 22.036-.705 3.679-1.41 7.384-1.971 11.136-.578 3.732-.994 7.528-1.147 11.343-.027.949-.045 1.908-.045 2.857-.009.966.054 1.97.163 2.946a26.712 26.712 0 0 0 1.329 5.667 35.366 35.366 0 0 0 2.341 5.233c.452.831.922 1.653 1.41 2.459.235.406.479.804.714 1.22.117.198.226.406.325.605.1.217.208.435.262.66-.036-.471-.208-.932-.361-1.374-.163-.442-.343-.886-.506-1.329a81.03 81.03 0 0 1-1.04-2.612 72.98 72.98 0 0 1-.903-2.63 35.666 35.666 0 0 1-.724-2.676 27.995 27.995 0 0 1-.714-5.387 16.807 16.807 0 0 1 0-1.347c0-.226.019-.452.028-.668l.009-.326.036-.353c.063-.931.145-1.853.244-2.767.768-7.365 2.377-14.65 3.823-22.026.723-3.679 1.428-7.394 1.97-11.154.28-1.88.507-3.76.688-5.658s.307-3.797.352-5.722l.01-.714v-.714c.01-.488 0-.967-.018-1.455a38.51 38.51 0 0 0-.208-2.901 41.728 41.728 0 0 0-1.021-5.676 32.742 32.742 0 0 0-.823-2.775 27.347 27.347 0 0 0-1.084-2.675c-.787-1.754-1.808-3.426-3.091-4.854l.018.027c-.317-.47-.723-.868-1.148-1.22-.436-.333-.87-.641-1.196-1.084z"/><path fill="#231F20" d="M49.602 57.308c.343-4.329.876-8.578 1.283-12.827.435-4.247.751-8.477.796-12.708.046-4.221-.198-8.442-.976-12.6-.742-4.149-2.088-8.216-4.086-12.04.669.85 1.266 1.754 1.844 2.676a38.25 38.25 0 0 1 1.546 2.865c.949 1.961 1.699 4.013 2.323 6.119 1.211 4.203 1.789 8.578 1.996 12.934.209 4.366.029 8.714-.278 13.025a463.868 463.868 0 0 1-.814 9.011c2.169-1.689 4.339-3.371 6.509-5.07 3.154-2.477 6.29-4.981 9.291-7.611 3.019-2.622 5.911-5.369 8.587-8.334a65.307 65.307 0 0 0 7.222-9.617c-1.491 3.769-3.597 7.303-6.001 10.611-2.413 3.291-5.162 6.346-8.072 9.22-2.911 2.856-5.966 5.55-9.093 8.145-3.109 2.594-6.273 5.098-9.409 7.619l-2.983 2.396.315-3.814z"/></svg>