<svg xmlns:xlink="http://www.w3.org/1999/xlink"  xmlns="http://www.w3.org/2000/svg" width="100" height="100" viewBox="0 0 100 100"><path fill="#008ED3" d="M51.914 93.484H17.373v-7.359h27.178V56.549l7.363-16.006z"/><path fill="#008ED3" d="M33.019 61.744h7.359v22.449h-7.359zM21.311 67.354h7.36v16.84h-7.36z"/><path fill="#009345" d="M52.299 40.03s-13.708.539-12.257-13.374c1.452-13.92-.423-18.323-2.353-20.14 6.561 2.026 24.276 9.054 14.61 33.514z"/><path fill="#009345" d="M52.285 39.931s8.072-5.198 12.146 3.713c4.071 8.911 6.764 10.901 8.575 11.309-4.676 1.111-17.858 3.17-20.721-15.022z"/><path fill="#8BC53F" d="M52.285 39.939s1.344-13.651 14.938-10.299c13.586 3.345 18.2 2.099 20.268.437-2.912 6.219-12.307 22.8-35.206 9.862z"/></svg>