<svg xmlns:xlink="http://www.w3.org/1999/xlink"  xmlns="http://www.w3.org/2000/svg" width="100" height="100" viewBox="0 0 100 100"><path d="M10.2 62.861v-.082c-.094.012-.188.019-.281.03.093.013.187.029.281.052z"/><path fill="#FFF" d="M82.063 41.958c6.535-.979-7.208-25.419-11.474-20.407 4.266-5.012-21.572-14.666-21.572-8.061 0-6.605-25.833 3.049-21.564 8.061-4.269-5.012-18.012 19.428-11.478 20.407-6.534-.979-1.761 26.816 3.988 23.205-5.749 3.611 15.312 21.753 17.581 15.144-2.269 6.609 25.224 6.609 22.955 0 2.27 6.609 23.33-11.532 17.578-15.144 5.752 3.61 10.522-24.184 3.986-23.205zM26.134 53.807l-2.665-1.401-2.665 1.401.509-2.971-2.152-2.101 2.978-.431 1.33-2.7 1.334 2.7 2.978.431-2.155 2.101.508 2.971zm51.625-2.971l.51 2.971-2.664-1.401-2.666 1.401.51-2.971-2.157-2.101 2.979-.431 1.335-2.7 1.333 2.7 2.979.431-2.159 2.101z"/><path fill="#F9A52E" d="M87.786 38.545c-.372-5.267-4.063-11.418-5.187-13.175-2.833-4.434-5.63-7.185-8.351-8.218-3.352-5.916-15.737-10.009-21.556-10.009-1.443 0-2.661.215-3.67.586-1.009-.371-2.227-.586-3.674-.586-5.815 0-18.196 4.093-21.554 10.009-2.724 1.033-5.521 3.784-8.351 8.218-1.123 1.757-4.813 7.909-5.184 13.175a10.08 10.08 0 0 0 .109 2.478c-1.996 3.561-1.73 9.085-1.1 13.312.532 3.546 2.035 10.684 5.768 13.842.051.309.117.621.203.935C17.015 75.581 28.376 85.88 35.47 85.88h.133c3.423 3.009 9.7 3.498 13.417 3.498s9.995-.489 13.417-3.498h.138c7.09 0 18.45-10.299 20.226-16.768.088-.316.153-.626.205-.935 3.731-3.158 5.231-10.296 5.767-13.842.631-4.226.893-9.751-1.104-13.308a9.817 9.817 0 0 0 .117-2.482zm-9.709 26.617c5.752 3.611-15.309 21.753-17.578 15.144 2.27 6.609-25.224 6.609-22.955 0-2.269 6.609-23.33-11.532-17.581-15.144-5.749 3.611-10.522-24.184-3.988-23.205-6.534-.979 7.208-25.419 11.478-20.407-4.269-5.012 21.564-14.666 21.564-8.061 0-6.605 25.838 3.049 21.572 8.061 4.266-5.012 18.009 19.428 11.474 20.407 6.536-.978 1.766 26.816-3.986 23.205z"/><path fill="#E49C36" d="M24.804 48.304l-1.335-2.7-1.33 2.7-2.978.431 2.152 2.101-.509 2.971 2.665-1.402 2.665 1.402-.508-2.971 2.155-2.101zM75.604 45.604l-1.334 2.7-2.979.431 2.157 2.101-.51 2.971 2.666-1.402 2.665 1.402-.51-2.971 2.157-2.101-2.978-.431z"/><g fill="#44B549"><path d="M46.248 48.246s3.612-6.199 3.009-12.303c0 0 1.291 9.806 3.787 12.389l-6.796-.086zM48.662 34.049s-10.495-.517.603-15.918c0 0 12.819 13.25 1.119 16.004l-.861-8.088-.861 8.002z"/><path d="M53.71 40.576s-6.793-8.022 12.04-10.429c0 0-.923 18.415-10.929 11.744l5.322-6.152-6.433 4.837zM43.603 42.388s-8.147 6.641-10.206-12.232c0 0 18.4 1.268 11.543 11.145l-6.054-5.435 4.717 6.522z"/></g><g fill="#44B549"><path d="M46.248 50.574s3.612 6.198 3.009 12.303c0 0 1.291-9.807 3.787-12.389l-6.796.086zM48.662 64.774s-10.495.517.603 15.915c0 0 12.819-13.249 1.119-16.001l-.861 8.085-.861-7.999z"/><path d="M53.71 58.243s-6.793 8.022 12.04 10.434c0 0-.923-18.416-10.929-11.748l5.322 6.151-6.433-4.837zM43.603 56.432s-8.147-6.641-10.206 12.236c0 0 18.4-1.272 11.543-11.148l-6.054 5.436 4.717-6.524z"/></g></svg>