<svg xmlns:xlink="http://www.w3.org/1999/xlink"  xmlns="http://www.w3.org/2000/svg" width="100" height="100" viewBox="0 0 100 100"><path fill="#B0DABA" d="M85.81 65.021c-.639.012-9.73.497-16.749 1.136.011-.628.042-.923-.011-1.533 6.996-.795 15.98-1.824 16.605-1.943 1.032-.199 1.712-1.171 1.521-2.176-.192-1.006-1.185-1.656-2.218-1.461-.62.119-9.276 2.46-16.058 4.302a18.27 18.27 0 0 0-.381-1.824c6.733-1.991 15.291-4.533 15.882-4.757.982-.373 1.482-1.453 1.121-2.405-.365-.955-1.455-1.429-2.438-1.053-.589.224-8.598 3.982-14.938 6.964a18.236 18.236 0 0 0-.692-1.733c6.265-3.12 14.146-7.058 14.687-7.38.902-.54 1.209-1.688.685-2.565-.522-.875-1.68-1.151-2.583-.613-.535.32-7.681 5.349-13.387 9.371a18.267 18.267 0 0 0-.983-1.588c5.607-4.146 12.595-9.327 13.068-9.735.794-.688.897-1.869.229-2.642-.668-.776-1.853-.845-2.648-.157-.472.406-6.555 6.516-11.457 11.456a19.326 19.326 0 0 0-1.251-1.396c4.787-5.041 10.692-11.278 11.086-11.756.661-.814.557-1.999-.236-2.645-.791-.643-1.971-.508-2.636.307-.39.477-5.257 7.463-9.217 13.156a17.935 17.935 0 0 0-1.477-1.152c3.826-5.778 8.501-12.854 8.803-13.394.511-.916.2-2.065-.69-2.562-.892-.498-2.03-.158-2.541.759-.301.536-3.838 8.167-6.739 14.44a18.742 18.742 0 0 0-1.662-.875c2.756-6.331 6.094-14.026 6.295-14.604.346-.994-.16-2.067-1.124-2.404-.966-.337-2.026.196-2.371 1.19-.202.574-2.339 8.62-4.101 15.276a18.267 18.267 0 0 0-1.791-.561c1.609-6.692 3.539-14.774 3.636-15.373.169-1.039-.514-2.01-1.521-2.173-1.011-.164-1.963.546-2.132 1.584-.096.596-.798 8.816-1.374 15.663a18.962 18.962 0 0 0-1.867-.229c.423-6.855.917-15.086.909-15.694-.015-1.049-.856-1.888-1.878-1.875-1.024.017-1.836.878-1.822 1.93.008.604.739 8.766 1.358 15.594-.632.005-1.259.042-1.877.108-.776-6.812-1.709-14.957-1.825-15.547-.196-1.036-1.171-1.715-2.176-1.521-1.002.19-1.657 1.185-1.458 2.214.113.594 2.239 8.465 4.031 15.07-.621.119-1.228.268-1.828.447-1.943-6.566-4.268-14.396-4.483-14.959-.375-.98-1.453-1.482-2.406-1.121-.956.364-1.427 1.458-1.052 2.438.214.563 3.665 7.926 6.578 14.116-.588.227-1.163.486-1.717.773-3.054-6.129-6.703-13.427-7.012-13.946-.538-.9-1.686-1.207-2.564-.685-.876.524-1.153 1.682-.612 2.582.308.519 4.987 7.173 8.929 12.762-.536.331-1.049.69-1.546 1.073-4.074-5.508-8.942-12.074-9.335-12.529-.687-.795-1.871-.897-2.645-.229-.772.668-.843 1.853-.156 2.648.395.456 6.174 6.212 11.03 11.038-.465.42-.907.864-1.327 1.331-4.972-4.721-10.929-10.362-11.399-10.746-.813-.663-1.998-.558-2.643.235-.645.79-.508 1.971.306 2.633.47.384 7.191 5.07 12.82 8.985a18.49 18.49 0 0 0-1.063 1.546c-5.729-3.794-12.615-8.341-13.145-8.636-.918-.514-2.065-.205-2.562.687-.5.895-.159 2.032.759 2.543.53.295 8.012 3.767 14.25 6.65a18.307 18.307 0 0 0-.766 1.715c-6.316-2.749-13.947-6.057-14.523-6.258-.993-.346-2.069.157-2.405 1.124-.334.964.198 2.026 1.19 2.37.576.199 8.621 2.337 15.281 4.101a17.89 17.89 0 0 0-.443 1.82c-6.719-1.616-14.89-3.57-15.495-3.667-1.039-.169-2.01.517-2.173 1.523-.163 1.008.545 1.963 1.583 2.13.604.099 8.99.813 15.877 1.394a18.382 18.382 0 0 0-.112 1.637v.232c-6.92-.425-15.405-.938-16.022-.93-1.05.016-1.89.857-1.875 1.88.015 1.021.878 1.836 1.93 1.821.616-.008 68.583-.014 69.225-.024 1.052-.014 1.888-.855 1.874-1.877-.018-1.02-.882-1.834-1.93-1.821z"/><path fill="#FFF" d="M47.851 58.142c1.281.005 2.361.91 3.526 1.094 1.159.127 1.659-.432 1.662-.378.014-.034-.682.173-1.494-.211-.756-.309-1.767-1.728-3.625-1.725-2.077 0-2.416.947-3.169 1.461-.884-.219-1.381-1.086-3.481-.266-1.729.674-2.194 2.327-2.796 2.88-.624.643-1.35.692-1.325.72-.019-.049.648.296 1.687-.227 1.032-.577 1.728-1.803 2.926-2.252 1.01-.525 2.358-.009 3.164.112a.776.776 0 0 1-.022-.115.46.46 0 0 1 .022.115c.714-.394 1.796-1.347 2.925-1.208zM57.918 65c-.48-.325-.975-1.466-2.271-1.739-1.446-.304-1.824.304-2.424.549-.582-.282-.8-.961-2.386-.7-1.306.215-1.872 1.297-2.374 1.592-.534.356-1.044.282-1.03.304-.005-.035.406.304 1.207.095.804-.249 1.469-1 2.372-1.138.784-.216 1.646.345 2.189.547 0-.028 0-.056.003-.084 0 .028 0 .059-.003.084.555-.169 1.449-.671 2.217-.406.892.191 1.511.982 2.294 1.281.79.263 1.221-.052 1.215-.014.014-.023-.501.018-1.009-.371zM59.082 56.444c-.355-.46-.475-1.695-1.617-2.355-1.284-.74-1.83-.276-2.477-.229-.467-.45-.467-1.16-2.055-1.405-1.306-.199-2.184.657-2.75.782-.616.173-1.08-.056-1.074-.028.005-.038.293.414 1.121.46.841.014 1.707-.496 2.607-.347.812.038 1.457.837 1.91 1.198.583.011 1.591-.191 2.236.298.789.461 1.129 1.406 1.786 1.931.669.49 1.174.328 1.157.357.023-.014-.482-.131-.844-.662z"/><path fill="#250F0E" d="M89.782 67.638c-.03.005.011-1.732-.413-4.818a41.31 41.31 0 0 0-3.874-12.5c-2.436-4.942-6.4-10.415-12.257-14.758-5.787-4.354-13.557-7.43-21.938-7.41-8.385-.02-16.153 3.057-21.941 7.408-5.856 4.346-9.821 9.815-12.257 14.76a41.264 41.264 0 0 0-3.874 12.5c-.424 3.086-.384 4.823-.414 4.818.03.002-.101-1.729.189-4.846a40.416 40.416 0 0 1 3.444-12.785c2.315-5.104 6.215-10.828 12.173-15.422 5.876-4.597 13.943-7.905 22.679-7.883 8.735-.022 16.8 3.286 22.678 7.885 5.956 4.592 9.857 10.315 12.174 15.423a40.364 40.364 0 0 1 3.441 12.781c.292 3.117.16 4.849.19 4.847z"/><g><path fill="#231F20" d="M93.73 71.43s-19.271.967-43.047.967c-23.777 0-43.051-.967-43.051-.967s19.273-.966 43.051-.966c23.776 0 43.047.966 43.047.966z"/></g><g><path fill="#231F20" d="M85.837 73.898s-15.738.724-35.153.724c-19.417 0-35.157-.724-35.157-.724s15.739-.726 35.157-.726c19.415.001 35.153.726 35.153.726z"/></g></svg>