<svg xmlns:xlink="http://www.w3.org/1999/xlink"  xmlns="http://www.w3.org/2000/svg" width="100" height="100" viewBox="0 0 100 100"><path fill="#8BC53F" d="M57.589 63.501C45.552 48.667 43.164 36.486 43.164 36.486S40.778 48.667 28.74 63.501C23.869 69.512 17.745 86.044 35.8 92.9c1.016.385 3.915 1.185 6.895 1.214 3.238.03 6.577-.74 7.648-1.147 18.284-6.813 12.134-23.439 7.246-29.466z"/><path fill="#009345" d="M56.107 31.551c-13.84 8.808-1.228 21.996 2.561 27.423 20.828 29.817-7.945 36.72-7.945 36.72s49.643-.145 37.683-41.613c0 0-6.976-18.94-23.325-22.529 0 0 26.597 28.51 5.024 48.25 0 0 20.408-18.957-13.531-48.25M41.175 4.306s19.038 19.241 2.455 28.857c0 .001-16.985-5.523-2.455-28.857z"/><path fill="#009345" d="M26.213 23.505s19.017 11.19 7.961 22.233c.001 0-14.542-.808-7.961-22.233zM16.462 43.829s17.116 2.303 12.494 13.624c0 0-10.737 3.83-12.494-13.624zM14.435 59.177s11.479 1.544 8.38 9.133c-.001 0-7.204 2.573-8.38-9.133zM13.224 72.978s8.647-2.022 8.494 4.262c0-.001-4.46 3.805-8.494-4.262zM16.949 83.737s4.524-3.649 6.218.101c0 0-1.55 3.509-6.218-.101zM21.528 90.284s2.942-3.141 4.567-.567c0 0-.775 2.735-4.567.567z"/></svg>