<svg xmlns:xlink="http://www.w3.org/1999/xlink"  xmlns="http://www.w3.org/2000/svg" width="100" height="100" viewBox="0 0 100 100"><path fill="#74AD43" d="M49.223 14.855c.278.78.378 1.608.472 2.435.474-.375.955-.741 1.449-1.095-.818 1.029-1.717 2.104-1.724 3.494.62-.227.975-.746 1.174-1.344.62-.04 1.238-.097 1.85-.239-.222.3-.443.598-.658.902.236.104.713.31.953.415l-2.113.047c.55.433 1.096.866 1.648 1.307-.87.031-1.762-.085-2.605.165-.031 1.053.186 2.096.354 3.137 1.057-.813 1.83-1.901 2.466-3.062.242.132.49.264.746.398.367-.344.741-.688 1.12-1.025-.219.477-.436.955-.653 1.434.285.009.861.036 1.15.051-.38.416-.765.829-1.137 1.251.289.128.865.378 1.155.503l-1.111.756c-.528-.056-1.047.004-1.225.627.403.018 1.206.055 1.609.069-.527.583-1.052 1.16-1.563 1.753.547-.18 1.114-.35 1.671-.529.089.229.269.688.356.917l.97-.003c.351.407.709.816 1.061 1.231a25.78 25.78 0 0 1-2.081.225c-.123.168-.373.504-.495.672-.334-.437-.67-.869-.999-1.302-.254.367-.51.734-.756 1.108-.23-.254-.454-.507-.671-.754-.199.104-.593.311-.788.415a43.632 43.632 0 0 0-.722-1.73c.036.808.218 1.605.546 2.347a119.93 119.93 0 0 1 1.505-.102 69.56 69.56 0 0 1-.155 1.045c.32-.008.947-.02 1.267-.026.385-.242.771-.504 1.191-.697.675.052 1.125.638 1.628 1.029 1.031-.486 2.127-.192 3.169.081-.788.408-1.542.891-2.129 1.56-.433-.214-.858-.424-1.28-.635.18.304.543.907.726 1.209-.531-.275-1.062-.552-1.581-.828-.019.28-.061.839-.083 1.117-.327-.184-.649-.37-.968-.56-.623-.072-1.244-.15-1.866-.196 1.078 1.509 3.323 2.51 4.922 1.169.339.693.923.374 1.453.14.41.202.826.406 1.245.617-.41.26-.811.527-1.207.803-.337-.079-.67-.153-1-.229-.003.196-.013.583-.016.774-.446.412-.883.83-1.315 1.248-.736-.23-1.479-.429-2.222-.63-.011.135-.033.403-.04.535-.663-.172-1.353-.356-2.007-.496 1.029.693 2.076 1.399 3.248 1.833.715.044 1.39-.318 2.074-.498-.043.232-.122.697-.159.928a61.706 61.706 0 0 1 2.157-.474c.621.339 1.255.655 1.896.965-.469.258-.932.521-1.393.784-.153.424-.305.844-.449 1.271-.694.081-1.381.181-2.064.303a20.051 20.051 0 0 1-3.1-.067c.593.517 1.141 1.106 1.834 1.501.987.329 1.967-.157 2.92-.377.253.199.504.409.749.634.945-.006 1.82.359 2.667.749a31.943 31.943 0 0 0-2.074 1.583c-.546-.015-1.087-.03-1.617-.041l.899 1.15c-.785.183-1.595.267-2.35-.072-.041.237-.128.705-.169.935 1.672.158 3.355.125 5.038.025-.467.307-.936.619-1.398.925.165.196.499.584.663.777-.406-.045-1.22-.142-1.627-.19 1.016 1.647 2.988.731 4.397.222-.248.669-.411 1.37-.736 2.005-.918 1.117-2.513.226-3.604 1.008 1.008.306 2.033.73 3.115.679.642-.032 1.298-.03 1.909.231.532-.107 1.066-.218 1.604-.318-.499.592-1.127 1.048-1.79 1.439.023.135.073.406.095.542a290.81 290.81 0 0 0-1.551-.232c.264.252.795.756 1.059 1.005-.924-.294-1.969-.488-2.694.344 1.121.424 2.313.582 3.509.561 0 .152-.005.459-.008.617.982-.024 1.964-.049 2.947-.082-.336.176-.668.349-.992.528.207.378.425.762.644 1.149-1.374.455-2.94.609-4.001 1.686a31.084 31.084 0 0 0-5.934-.299c2.022.989 4.156 2.188 6.493 1.707.715.621 1.682.418 2.55.437.241.313.487.63.737.947-.581.007-1.147.019-1.724.036.379.188 1.133.566 1.511.756-1.289-.08-2.567.085-3.812.382.239.446.482.896.728 1.345-.392-.252-.77-.502-1.149-.753-.414.063-.824.122-1.23.184-.077.161-.24.477-.321.638-.468-.269-.939-.537-1.399-.804.003.199.003.583.003.775a10.393 10.393 0 0 0-2.223-.882c2.042 1.777 4.923 3.212 7.654 2.288.969.103 1.941.059 2.913-.025-.859.304-1.717.656-2.421 1.249.396.04 1.187.117 1.579.157-.231.097-.699.291-.935.387.199.135.599.406.799.545l-1.128-.028c-.496 1.203-1.585 1.943-2.734 2.456 1.418.612 2.96.783 4.458 1.091-.354.039-1.058.121-1.408.161.073.181.216.55.292.73-.579-.313-1.15-.625-1.721-.938.046.181.139.546.186.724-.095.206-.278.621-.371.826l-.953-.322c-.18.09-.538.264-.716.353-.458-.319-.907-.643-1.357-.959.07.309.219.937.289 1.243-.437.018-.854.05-1.279.079-.402-.065-.802-.13-1.193-.196-.082-.182-.247-.552-.331-.736-.181.117-.541.349-.722.463-.336-.078-.67-.156-.999-.235.07.222.214.663.284.886-1.103-.055-2.204.012-3.304-.075-1.146-.113-1.952-1.033-2.841-1.662-.122 3.331.125 6.648.331 9.97a123.822 123.822 0 0 0-3.447-.006c.647-3.522.793-7.119.793-10.695-.362-.161-.717-.323-1.067-.482-.243.554-.579 1.053-.918 1.55-.283-.054-.56-.103-.831-.149-.193.303-.379.614-.563.924-.258-.024-.769-.069-1.025-.096-.26.126-.514.257-.764.394-.635-1.02-1.742-.119-2.573.085-.059-.253-.186-.753-.246-1.007-1.178.303-2.37.541-3.583.59.314-.565.632-1.125.953-1.678-.561.053-1.111.113-1.667.168-1.252-1.015-2.805-1.221-4.361-1.042.539-.331 1.085-.654 1.63-.977-.221-.152-.659-.459-.881-.609.553-.219 1.103-.452 1.684-.604 1.007-.182 2.022.418 3.012.191.583-.504.825-1.278 1.16-1.949-.709.313-1.295.82-1.824 1.38-.581-.831-1.571-1.126-2.484-1.412.04-.206.113-.617.15-.823a31.91 31.91 0 0 1-2.551.353c.606-.325 1.257-.55 1.916-.737l-.227-.658c1.404.038 2.814.032 4.227.011l.008-.498c-1.147-.189-2.253-.541-3.325-.959.396-.218.799-.435 1.207-.646a52.806 52.806 0 0 1-2.126-.118 8.482 8.482 0 0 1 2.611-.657c.008-.235.015-.711.018-.947-.778-.052-1.881.324-2.315-.543-.339-.422-.128-.957-.095-1.428-.659-.098-1.314-.207-1.885-.547.746.018 1.491.084 2.233.175-.048-.237-.143-.716-.194-.955.341.124.68.251 1.026.375 1.114-.744 2.372.249 3.554-.124.989-.269 2.23-.528 2.517-1.695-.415.186-.821.373-1.225.57a52.6 52.6 0 0 0-1.145-1.203c-.837.153-1.631-.038-2.209-.672l-.726-.143c.078-.182.226-.546.302-.728-.499-.229-.996-.452-1.492-.681 1.014.182 2.023.374 3.045.542l.539-.532c1.782.777 3.792.193 5.391-.756-.976-.247-1.952-.508-2.859-.941-.136.14-.419.416-.56.556-.002-.293-.002-.882-.007-1.177-.367.225-.724.459-1.084.688a39.657 39.657 0 0 0-.435-.578c-.168.07-.504.214-.677.285l.03-.524c-.871 0-1.73-.13-2.581-.279.373-.305.738-.614 1.118-.914-.346-.08-1.032-.243-1.376-.323 2.04-.679 4.212-.514 6.326-.675.43.015.8-.224 1.147-.45a94.13 94.13 0 0 0-1.618-.614c1.381-.288 2.945-.467 3.914-1.627-.551.076-1.082.171-1.62.261l-1.177-.032c-.097.137-.298.406-.394.542a79.99 79.99 0 0 0-1.559-.176c-.107-.061-.324-.186-.433-.247a73.29 73.29 0 0 1-1.799-.197c.076-.176.233-.534.313-.713a76.75 76.75 0 0 1-1.695-.599c.339-.036 1.009-.104 1.345-.14 1.37-1.228 3.433-.764 4.943-1.784a54.573 54.573 0 0 1-.386-.935c.254-.053.759-.157 1.012-.211-.824-.882-1.692.411-2.601.318-.435-.178-.746-.548-1.096-.833-.208.017-.407.042-.604.065l-.37-.685-1.006-.439a88.76 88.76 0 0 1 1.264 0c.104-.066.303-.203.407-.27.887.398 1.897.443 2.744-.105-.439-.231-.877-.456-1.313-.68-.189.023-.376.053-.553.081-.611-.66-1.217-1.313-1.809-1.98.503.073 1.01.146 1.519.227.079-.145.229-.444.305-.594 1.48.807 3.075.081 4.528-.405-1.15-.246-2.059-.938-2.67-1.923-1.457.064-2.573-.943-3.602-1.827l1.638.24c-.028-.219-.085-.653-.108-.871.517.358 1.028.711 1.563 1.07-.145-.562-.272-1.115-.412-1.669.678.077 1.345.149 2.035.219-.668-1.18-2.181-1.429-2.978-2.509.703-.12 1.408-.256 2.099-.452.479.14.944.28 1.436.429-.061-.244-.186-.729-.247-.971.584.314 1.174.622 1.768.941 1.162-.837 2.665-1.427 3.279-2.823-.482.304-.943.636-1.393.978-.685.216-1.363.433-2.041.66-.339.028-.678.06-1.011.101.15-.294.304-.589.463-.877-.577.038-1.251.478-1.756.056.11-.281.335-.844.446-1.125-.6.388-1.2.772-1.814 1.133.281-.397.579-.789.879-1.172-.875-.01-1.74-.117-2.559-.42.754-.285 1.499-.612 2.278-.839.798.222 1.465.928 2.346.821 1.3-.006 2.589.235 3.891.256a78.55 78.55 0 0 1-.059-1.071c-.772.03-1.535.026-2.303.005.148-.296.303-.589.461-.882-1.016.391-2.067.085-3.052-.218.527-.171 1.042-.342 1.58-.5-.453-.55-.978-1.032-1.638-1.309.25-.081.749-.232.999-.311-.403-.428-.788-.853-1.178-1.28 1.093.418 2.156 1.198 3.388.917-.296-.432-.589-.861-.884-1.284l1.18.371.036-1.085c-.431.084-.849.171-1.278.254l.689-.795c-.363-.608-.724-1.215-1.075-1.829l1.297.668c.127-.194.392-.584.52-.778.21.869.454 1.738.966 2.487.409-1.562-.642-2.811-1.344-4.076.532.4 1.06.815 1.588 1.231-.002-.945.021-1.888.111-2.822z"/><path fill="#A4CD39" d="M29.924 42.741c.142.435.285.872.423 1.316l.765-.298a49.9 49.9 0 0 0-1.139 1.863c.589-.403 1.174-1.057 1.959-.66-.186.296-.38.586-.571.882.101.142.3.431.4.574-.478.019-.948.042-1.416.075a79.1 79.1 0 0 0 .193 1.756c.655-.809 1.323-1.645 2.329-2.046.097.329.199.653.311.986-.012.425-.012.854-.008 1.28-.258.037-.774.104-1.034.137.236.125.7.367.931.488-.209.124-.639.373-.851.496a7.273 7.273 0 0 1 2.354 1.25c-.56.219-1.128.436-1.688.653-.158-.149-.467-.444-.625-.59-.142.171-.423.517-.563.688l-.172-.466c-.569.032-.955-.266-1.152-.882.313.902 1.09 1.44 1.874 1.911.219-.144.651-.438.869-.584.359.222.722.441 1.094.668.232-.084.472-.165.711-.241.22.169.663.508.885.681-.836.392-1.7.729-2.578 1.017a35.154 35.154 0 0 0-1.488-.222c.903.728 2.069 1.234 3.139.484.073.438.152.883.232 1.328-.319.26-.639.529-.945.798-.853-.118-1.702-.23-2.546-.349 1.308.864 2.882 1.174 4.438 1.033.331.18.668.365 1.002.555l-1.228 1.191c-1.141-.067-2.442.1-3.286.942-.605.782.65.968 1.106 1.324.029.223.082.669.112.894.545.421 1.098.837 1.672 1.229-.521.04-1.216-.049-1.442.566.418.716.99 1.323 1.496 1.978-.867.026-1.736.05-2.597.069.199.214.599.634.798.85-.482.106-.961.214-1.436.319.18.466.361.93.546 1.397.432-.087.866-.168 1.305-.251.359.554 1.016.664 1.589.892-1.04.643-2.212 1.019-3.393 1.293.37.267.742.54 1.119.813-.66.321-1.32.647-1.977.976 1.96.711 4.132.999 5.842 2.27-.02.195-.07.592-.097.789 1.23-.037 2.468-.111 3.688.081-.502.821-1.305 1.392-1.876 2.158.757.172 1.518.284 2.288.428-.543.205-1.09.397-1.671.376-.02.183-.056.552-.079.737-.653-.087-1.306-.195-1.901-.477l.185.74a93.515 93.515 0 0 1-1.911-.396c-1.468.525-3.132.555-4.372-.501.092.536.185 1.073.281 1.616-.711.003-1.414.011-2.112.023.249-.823.426-1.674.277-2.528-.845.695-1.747 1.367-2.836 1.613a30.322 30.322 0 0 1-.568-.368c-.281.112-.556.227-.826.34-.658-.814-1.725-.201-2.568-.223.165-.299.338-.594.512-.887-1.161-.131-2.267-.524-3.427-.622.21-.389.43-.776.646-1.161a3.53 3.53 0 0 1 2.178-.126c-.05-.146-.14-.442-.188-.593-.831-.327-1.613-.769-2.387-1.203.197-.11.589-.338.785-.452.85-.049 1.708-.101 2.561-.153-1.012-.202-1.947-.626-2.714-1.314.55-.16 1.106-.317 1.666-.475-.889-.105-1.583-.584-1.91-1.416-.286-.146-.571-.289-.849-.43 1.815-.699 3.825-.056 5.606-.905-1.447-.343-2.817-.968-3.805-2.102 1.735.171 3.546.255 5.194-.44-1.49-.407-2.995-.743-4.496-1.101-.096-.36-.188-.713-.277-1.066a40.753 40.753 0 0 1 4.208-.29c-.236-.141-.715-.418-.95-.558a27.807 27.807 0 0 0 2.306-.735 9.212 9.212 0 0 0-2.078.231c-.574-.08-1.142-.17-1.705-.259-.373-.336-.74-.665-1.106-.992 1.121-.343 2.258-.633 3.397-.928.148-.364.307-.729.468-1.091-.428.219-.858.437-1.279.662-.573-.41-1.152-.816-1.723-1.229.195-.068.594-.203.793-.269.525.073 1.052.147 1.586.217a32.617 32.617 0 0 1-2.262-1.735c1.243-.25 2.523-.168 3.768-.429-1.18-.87-2.494-1.523-3.731-2.297.556-.09 1.12-.172 1.684-.256.278-.283.568-.56.864-.827a49.86 49.86 0 0 1-1.503-1.111c1.088-.258 2.227-.469 3.333-.178.646-.444 1.28-.902 1.911-1.364-.721.334-1.455.638-2.201.91-.397-.13-.784-.259-1.177-.383-.301-.238-.6-.481-.894-.718-.276-.06-.837-.177-1.121-.236.451-.27.903-.539 1.356-.808.375.235.762.474 1.147.718.114-.054.339-.16.453-.212.79.226 1.603.212 2.395-.013-.253-.066-.764-.189-1.017-.255a16.199 16.199 0 0 0-1.949-.53c.222-.431.496-.895-.092-1.164-.036-.348-.079-.692-.104-1.035.565.213 1.13.424 1.708.628l-.428-.95c.208.024.625.067.833.094a47.881 47.881 0 0 1-.571-.494c-.146-.428-.293-.856-.433-1.281.421.025.853.053 1.286.082a62.827 62.827 0 0 1-.476-1.238c.199.145.607.432.81.578.038-.383.108-1.162.138-1.55zm-6.638 32.277c-.005.398.186.566.567.5l.081-.757c-.163.066-.486.193-.648.257zM71.379 44.135c.052-.417.109-.835.17-1.253.199.468.403.935.613 1.402-.143.486-.285.963-.407 1.457.161-.21.479-.635.639-.844.262-.054.778-.163 1.038-.216a32.743 32.743 0 0 0-.347 1.864c-.417-.033-.822-.061-1.229-.091.071.601.144 1.203.229 1.806.466-.515.911-1.052 1.354-1.59.413-.137.835-.268 1.259-.4-.083.156-.246.474-.329.632l.549.209c-.122.126-.364.375-.482.5.104.199.319.596.422.792-.336.083-1.01.246-1.346.33.269.061.798.184 1.066.25-.209.209-.63.631-.842.841.197-.033.589-.095.785-.128.52.393 1.05.773 1.576 1.166-.58.198-1.158.389-1.733.585-.095-.092-.285-.27-.378-.364-.605.048-1.222.037-1.823.022.837.521 1.722 1.249 2.679.506.294.213.589.426.895.643.175-.063.523-.199.697-.269.298.095.893.284 1.188.381-.409.277-.808.563-1.206.853-.981.328-2.009.479-3.035.31.858.689 1.953 1.151 2.957.438.39.117.788.227 1.166.394-.037.21-.109.628-.15.839-.152-.046-.462-.141-.619-.185-.311.364-.621.723-.931 1.084a71.262 71.262 0 0 0-2.535-.338c1.019.679 2.207.964 3.412 1.094.252-.05.511-.097.773-.143.389.18.785.361 1.186.54-.415.476-.805.956-1.19 1.446-.953.086-1.905.158-2.85.235.594.317 1.187.805 1.906.569.984-.266 1.92.235 2.787.65-.439.806-1.441 1.095-2.021 1.796-.23.018-.694.063-.927.084l-.024.314c.935 0 1.879 0 2.819.006-.332.517-.671 1.029-1.011 1.541a99.149 99.149 0 0 0 2.327-.488c-.089.365-.173.729-.246 1.093-.208.146-.616.435-.821.583a53.432 53.432 0 0 0-1.479-.045c1.245.632 2.662.57 4.023.579a9.654 9.654 0 0 1-2.872 1.739c1.092.325 2.205.605 3.354.683.012.351.026.701.047 1.058-1.013.365-1.999.918-3.102.947-.609.013-1.194.147-1.698.491 1.527.349 3.091.501 4.646.663-.003.356.006.719.006 1.076-.709.032-1.423.069-2.132.104.078.261.16.525.244.794-1.104-.157-2.219-.022-3.321.05 1.402.654 2.959 1.405 4.5.685.425.163.849.335 1.284.511-.329.035-.978.106-1.302.143.235.145.706.438.941.589-.714.622-1.416 1.256-2.137 1.873.813.18 1.628.355 2.443.554-.527.159-1.06.313-1.612.349a11.25 11.25 0 0 0-.11.653 55.449 55.449 0 0 0-1.515-.036c-.762.331-1.565.164-2.331-.027-1.368.572-2.914.498-4.112-.415.067 1.652.125 3.309.188 4.959-.721 0-1.437 0-2.15.009.384-1.948.476-3.941.403-5.92-.679.466-1.349.937-2.001 1.44a42.38 42.38 0 0 1-1.647-.118c-.188.083-.567.243-.756.323a38.028 38.028 0 0 1-.396-.591c-.688.115-1.381.218-2.065.314.12-.215.362-.642.484-.855-1.187-.253-2.363-.567-3.559-.786.219-.089.646-.27.86-.362l-.285-.668a12.648 12.648 0 0 1 2.813-.419c.323-.133.652-.268.983-.395-.046-.217-.139-.635-.185-.847.369.065.755.136 1.137.208.68-.979 1.758-1.501 2.817-1.955a73.123 73.123 0 0 1-4.271-.457c.155-.304.316-.601.477-.902.536-.048 1.066-.102 1.61-.148a75.158 75.158 0 0 1-.897-.88c.863-.068 1.721-.047 2.576.149-.23-.539-.88-.722-1.297-1.064.675-.32 2.099.153 2.34-.742-.935.125-1.833-.062-2.693-.39.34-.121 1.013-.373 1.349-.497a60.853 60.853 0 0 1-.932-1.469c-1.326-.296-2.661-.577-3.933-1.063 1.092-.55 2.32-.488 3.478-.193 0-.249 0-.739-.004-.986.762-.018 1.532-.033 2.305-.063-.515-.285-1.018-.563-1.524-.836.254-.139.762-.406 1.014-.541-.392.043-1.179.133-1.57.179.094-.212.28-.624.37-.831-1.055.006-2.111 0-3.165-.012.137-.163.403-.492.537-.651 1.108-.126 2.338-.275 2.861-1.442-.683.185-1.352.415-2.061.26.748-.459 1.554-.803 2.367-1.131-.39-.293-.779-.585-1.154-.879a61.67 61.67 0 0 1 3.367-1.517c-1.125-.046-2.48.264-3.156-.887l-.505.053a51.66 51.66 0 0 1-1.688-1.173 49.53 49.53 0 0 0 1.709-.215c-.065-.821.606-.617 1.152-.533a17.843 17.843 0 0 1-1.854-1.483c1.101-.236 2.233-.24 3.356-.25.692-.21 1.192-.813 1.767-1.234-.753.371-1.527.702-2.316.975-.292-.299-.681-.37-1.06-.465-.054-.131-.16-.395-.214-.531-.097.095-.285.282-.378.378-.275-.521-.817-.704-1.329-.868.494-.23.988-.466 1.481-.709.226.173.675.519.898.688.091-.084.269-.255.357-.341.821.326 1.729.509 2.563.107-1.049-.3-2.099-.589-3.162-.81.292-.191.585-.38.882-.564a29.95 29.95 0 0 1-.632-.418c-.061-.389-.126-.782-.178-1.17a79.76 79.76 0 0 0 1.659.632c-.044-.932-.266-1.84-.569-2.716.519.116 1.053.242 1.581.365-.29-.418-.573-.836-.858-1.249.234.052.698.165.928.223zm5.746 25.659l-.076.332c.558.568.776-.858.076-.332z"/><path fill="#6D5421" d="M8.213 81.145c5.259-.417 10.556-.695 15.821-.228 10.825.721 21.334 3.815 32.164 4.461 12.435 1.029 24.868-1.171 36.912-4.11-.016.503-.022 1.014-.029 1.52-11.892 3.047-24.206 5.059-36.508 4.176-11.109-.617-21.882-3.836-32.984-4.523-5.146-.501-10.31-.067-15.455.205.02-.504.05-1.004.079-1.501z"/></svg>