<svg xmlns:xlink="http://www.w3.org/1999/xlink"  xmlns="http://www.w3.org/2000/svg" viewBox="0 0 1000 1000"><path fill="#619F42" d="M538.2 740.1c-37.7 104 63.8 227.2 63.8 227.2-11.3-23.2-67.4-138.9-50.6-204.6 8.3-32.2 30.7-40.7 56.4-56.4 31-18.8 53.2-41.1 70.7-72.9 6.5-11.8 7.7-24.3 12.8-36.1C657 676 567.5 659.1 538.2 740.1zM624.1 590.6c-13.4-2-25.9 7.3-27.8 20.7-2 13.4 7.3 25.8 20.7 27.8 13.4 2 25.8-7.3 27.8-20.7 2-13.4-7.3-25.8-20.7-27.8z"/><path fill="#619F42" d="M545.1 664.2c5.3 16.8 10.3 37.6 10.3 37.6 9.2-25.9 6.9-55.5.1-91.4-6.8-35.9 7.5-64.8 7.5-64.8-38.7 48.7-23.2 101.8-17.9 118.6z"/><path fill="#6CAB36" d="M326.1 610.9c6.3 11.2 8.8 23.5 16.5 34.6 20.7 29.7 45.2 49.6 77.9 65.1 27.2 12.8 50.4 19 62 50.1 23.7 63.5-20 184.6-28.8 208.8 0 0 88-133.2 39.6-232.7-37.7-77.5-124.9-51.3-167.2-125.9zM392.2 597.1c-13.1 3.4-21 16.7-17.7 29.8 3.4 13.1 16.7 21 29.8 17.7 13.1-3.4 21-16.7 17.7-29.8-3.3-13.1-16.7-21-29.8-17.7z"/><path fill="#6CAB36" d="M472.2 700.5s2.7-21.2 6.3-38.5c3.5-17.3 13.3-71.7-30.1-116.1 0 0 17.2 27.3 14.2 63.7-3 36.4-2.2 66.1 9.6 90.9z"/><path fill="#619F42" d="M513.1 509.2c-12.7 0-23 11.8-23 26.3s10.3 26.3 23 26.3 23-11.8 23-26.3-10.3-26.3-23-26.3zM595.3 509.2c0 14.5 10.3 26.3 23 26.3s23-11.8 23-26.3-10.3-26.3-23-26.3-23 11.8-23 26.3z"/><path fill="#8DB874" d="M390.8 496.1c0 17.4 12.4 31.6 27.6 31.6 15.2 0 27.6-14.1 27.6-31.6 0-17.4-12.4-31.6-27.6-31.6-15.3 0-27.6 14.1-27.6 31.6z"/><path fill="#619F42" d="M502.5 443.5c12.7 0 23-11.8 23-26.3s-10.3-26.3-23-26.3-23 11.8-23 26.3 10.3 26.3 23 26.3zM359.9 546c0-14.5-10.3-26.3-23-26.3s-23 11.8-23 26.3 10.3 26.3 23 26.3 23-11.7 23-26.3z"/><path fill="#8DB874" d="M686.7 527.6c-12.7 0-23 11.8-23 26.3s10.3 26.3 23 26.3 23-11.8 23-26.3-10.3-26.3-23-26.3z"/><path fill="#619F42" d="M603.2 419.8c0 14.5 10.3 26.3 23 26.3s23-11.8 23-26.3-10.3-26.3-23-26.3-23 11.8-23 26.3z"/><path fill="#A2C58C" d="M405.9 401.4c0 14.5 10.3 26.3 23 26.3s23-11.8 23-26.3-10.3-26.3-23-26.3-23 11.7-23 26.3zM331.6 409.3c-12.7 0-23 11.8-23 26.3s10.3 26.3 23 26.3 23-11.8 23-26.3c0-14.6-10.3-26.3-23-26.3z"/><path fill="#8DB874" d="M260.6 563.7c-15.6 0-28.3 14.5-28.3 32.3 0 17.9 12.7 32.3 28.3 32.3 15.6 0 28.3-14.5 28.3-32.3-.1-17.8-12.7-32.3-28.3-32.3z"/><path fill="#A2C58C" d="M262.5 498.7c0-14.5-10.3-26.3-23-26.3s-23 11.8-23 26.3 10.3 26.3 23 26.3 23-11.8 23-26.3z"/><path fill="#619F42" d="M697.2 440.8c-10.2 0-18.4 9.4-18.4 21s8.2 21 18.4 21 18.4-9.4 18.4-21-8.3-21-18.4-21zM741.9 577.6c-7.6 0-13.8 7.1-13.8 15.8 0 8.7 6.2 15.8 13.8 15.8 7.6 0 13.8-7.1 13.8-15.8 0-8.7-6.2-15.8-13.8-15.8z"/><path fill="#8DB874" d="M770.8 472.4c-19.1 0-34.5 17.7-34.5 39.4 0 21.8 15.5 39.4 34.5 39.4 19.1 0 34.5-17.7 34.5-39.4 0-21.8-15.4-39.4-34.5-39.4z"/><path fill="#619F42" d="M591.3 351.4c0-14.5-10.3-26.3-23-26.3s-23 11.8-23 26.3 10.3 26.3 23 26.3 23-11.8 23-26.3z"/><ellipse fill="#8DB874" cx="481.5" cy="325.1" rx="39.1" ry="44.7"/><path fill="#A2C58C" d="M373.7 288.3c-12.7 0-23 11.8-23 26.3s10.3 26.3 23 26.3 23-11.8 23-26.3c0-14.6-10.3-26.3-23-26.3z"/><path fill="#8DB874" d="M268.5 343.5c-20.3 0-36.8 18.8-36.8 42.1 0 23.2 16.5 42.1 36.8 42.1 20.3 0 36.8-18.8 36.8-42.1s-16.5-42.1-36.8-42.1z"/><path fill="#A2C58C" d="M474.6 235.7c0-7.3-5.2-13.2-11.5-13.2s-11.5 5.9-11.5 13.2c0 7.3 5.2 13.1 11.5 13.1s11.5-5.9 11.5-13.1z"/><path fill="#619F42" d="M557.8 212c-12.7 0-23 11.8-23 26.3s10.3 26.3 23 26.3 23-11.8 23-26.3-10.3-26.3-23-26.3z"/><path fill="#A2C58C" d="M675.5 325.1c0-14.5-10.3-26.3-23-26.3s-23 11.8-23 26.3 10.3 26.3 23 26.3 23-11.8 23-26.3z"/><path fill="#8DB874" d="M710.3 417.1c19.1 0 34.5-17.7 34.5-39.4 0-21.8-15.5-39.5-34.5-39.5-19.1 0-34.5 17.7-34.5 39.5s15.5 39.4 34.5 39.4z"/><path fill="#619F42" d="M804.4 398.7c0-14.5-10.3-26.3-23-26.3s-23 11.8-23 26.3 10.3 26.3 23 26.3 23-11.7 23-26.3z"/><path fill="#FFCA5D" d="M504.4 52.3c-200.9 0-363.8 162.9-363.8 363.8 0 81.7 26.9 157.1 72.4 217.8-30.1-50.6-47.5-109.8-47.5-173 0-187.2 151.7-338.9 338.9-338.9s338.9 151.8 338.9 339c0 63.2-17.4 122.3-47.5 173 45.5-60.7 72.4-136.1 72.4-217.8 0-201-162.9-363.9-363.8-363.9z"/></svg>