<svg xmlns:xlink="http://www.w3.org/1999/xlink"  xmlns="http://www.w3.org/2000/svg" viewBox="0 0 1000 1000"><path fill="none" d="M396.1 695.2l5.5-3.5c11.3 17 30.5 30.3 44.5 37.6v-78.4c-29-2.7-54.2-9-80.9-19.7-9.8-3.9-19.3-8.1-28.1-12.4-.7 1.4-1.6 2.3-2.4 3.6 0 0 0-.4-.1-.4-6.2 10-13.7 21.4-22.3 30.4-.1.1-.2.4-.3.5-2.1 2.3-4.3 4.5-6.6 6.7v.1c-4.6 4.3-9.5 8.3-14.6 12.1-.2.1-.4.3-.5.4-2.3 1.6-4.6 3.2-6.9 4.7-.4.3-.8.5-1.2.8-2.3 1.5-4.7 2.9-7.2 4.3-.2.1-.4.3-.7.4-2.7 1.5-5.5 3-8.4 4.3h-.1c-2.6 1.3-5.3 2.4-8 3.5-.7.3-1.4.5-2 .8-2.1.8-4.3 1.6-6.5 2.4-.8.3-1.5.5-2.3.8-2.5.8-5 1.6-7.5 2.2-.4.1-.8.2-1.1.3-2.9.8-5.9 1.4-8.9 2-.7.1-1.5.3-2.2.4-2.3.4-4.5.8-6.8 1.1l-4 .4c-2.1.2-2.3.4-7.3.6v118.1c58-13.6 141-22.9 237-25.4v-57.4c-14.2-7-37-21.6-50.1-41.3zm-33.9 32.2c6.5-21.8 25.3-19.3 25.3-19.3-1.9 20.4-25.3 19.3-25.3 19.3zm33.1-31.6c-45.3 20.8-64-7.1-69.2-17.4-1.4-1.9-1.6-3.6-1.6-3.6s.5 1.4 1.6 3.6c2.9 4.1 11.3 9.5 35.1 3.2 35.1-9.2 34.1 14.2 34.1 14.2zM500 651.2v105.5c14-6.7 35.8-19.4 48-39.8l5.5 3.2c-14 23.3-39.6 36.9-53.6 43.5v29.6c97 .3 189 8.2 252 20.9v-113c0-.2-3.7-.4-5.7-.6-1-.1-1.7-.2-2.7-.4-2.3-.3-4.4-.7-6.7-1.1-.7-.1-1.4-.2-2.1-.4-3-.6-5.9-1.3-8.9-2-.4-.1-.7-.2-1.1-.3-2.5-.7-5-1.4-7.5-2.2-.8-.2-1.5-.5-2.3-.8-2.2-.7-4.4-1.5-6.5-2.4-.7-.3-1.4-.5-2-.8-2.7-1.1-5.4-2.3-8-3.5h-.1c-2.8-1.4-5.6-2.8-8.4-4.3-.2-.1-.4-.2-.6-.4-2.4-1.4-4.8-2.8-7.2-4.3-.4-.3-.8-.5-1.2-.8-2.3-1.5-4.7-3.1-6.9-4.7-.2-.1-.4-.3-.5-.4-5.1-3.7-10-7.7-14.6-12-2.3-2.1-4.5-4.3-6.6-6.6-.1-.1 0-.2-.1-.3-8.6-9-16.1-19.1-22.1-30-2-3.4-3.7-6.8-5.4-10.4-37.2 21.2-81.7 35-124.7 38.8zm49.5 61.9s-19.3-13.3 9.2-35.7c19.4-15.2 20.1-25.1 18.7-29.9-1.1-2.2-1.9-3.4-1.9-3.4s1.2 1.1 1.9 3.4c5.1 10.2 16 42-27.9 65.6zm14.4 1.2s9.5-16.5 30.7-8.5c.1 0-13.2 19.3-30.7 8.5z"/><path fill="#C0C287" d="M89.5 657.4c-1.3-1.3-2.6-2.5-3.8-3.8 1.3 1.3 2.5 2.6 3.8 3.8zM94.7 662.2l-3.9-3.6c1.2 1.2 2.5 2.4 3.9 3.6zM84.6 652.4c-1.3-1.4-2.5-2.7-3.7-4.1 1.2 1.4 2.4 2.8 3.7 4.1zM100.1 666.8c-1.4-1.1-2.7-2.3-4.1-3.4 1.3 1.1 2.7 2.3 4.1 3.4zM105.7 671.2c-1.5-1.1-2.9-2.2-4.4-3.4 1.5 1.1 2.9 2.3 4.4 3.4zM331.2 552.9c-4.2-2.7-8.4-5.5-12.5-8.4.5.8 1 1.7 1.4 2.6 3.7 2.1 7.4 4 11.1 5.8zM44.7 517.3c1.4-8 3.5-15.7 6.1-23.2-2.6 7.5-4.7 15.2-6.1 23.2zM226.6 464c24.2 35.1 54.4 60.1 84.1 77.8.1-.9.2-1.9.1-2.9-48.2-36.8-83.8-89.1-99.5-149.5-4.2-.3-8.5-.6-12.8-.6-2.5 0-5 .1-7.5.2 5.7 19.1 13 36.3 21.5 51.9 5.6 4.5 12.5 12.2 14.1 23.1zM42.2 542.3c.2-8.3 1-16.5 2.4-24.4-1.4 8-2.2 16.1-2.4 24.4zM75.6 642c-1.3-1.6-2.5-3.3-3.7-4.9 1.2 1.7 2.5 3.3 3.7 4.9zM80 647.3c-1.3-1.5-2.5-3-3.7-4.5 1.2 1.5 2.4 3 3.7 4.5zM121.4 681.4c-5.2-3-10.2-6.2-15-9.7 4.8 3.5 9.8 6.7 15 9.7zM168.2 698.8c-1.1-.2-2.2-.5-3.3-.7 1.1.2 2.2.5 3.3.7zM175.7 700.1c-1.1-.2-2.1-.3-3.2-.5 1 .1 2.1.3 3.2.5zM127.1 684.4c-1.2-.6-2.4-1.2-3.6-1.9 1.1.7 2.4 1.3 3.6 1.9zM70.7 582.6c4.4 6.2 7.2 11.1 9.3 15.1-.5-5.5.3-12.8 4.4-21.9 0 0-4.7-11-3.1-23-9.4 2.6-17.6 2.3-19.2 1.4l-19.7-11.3s0-.1-.1-.4c0 1-.1 1.9-.1 2.9 0 34.1 11 65.7 29.5 91.4-14.8-20.5-24.7-44.7-28.2-71 8.6 1.8 19.7 6.2 27.2 16.8zM160.9 697.2l-3.3-.9 3.3.9zM150.8 619.6c-1.5 6.4-4.2 13.1-8.4 19.9 0 0 6.8-10.4 25.6-17.8-7 .2-13-.8-17.2-2.1zM153.8 695.2c-1.1-.3-2.2-.7-3.4-1 1.2.3 2.3.7 3.4 1zM133.4 687.5c-1.2-.5-2.3-1.1-3.5-1.6 1.2.6 2.3 1.1 3.5 1.6zM140 690.4c-1.1-.5-2.3-.9-3.4-1.4 1.1.5 2.3.9 3.4 1.4zM146.8 693c-1.1-.4-2.3-.8-3.4-1.2 1.2.4 2.3.8 3.4 1.2zM71 466.4s12.5 15.5 9 34.6c-1.2 6.6-3 11.1-4.7 14.1 4.5-3.4 10.7-6.9 17.3-6.3 12.5 1.2 16.7-6.6 16.7-6.6s9.6 18.5-4.2 35.8c-2.1 2.6-4.5 4.8-7 6.8 8.2 9.3 18.9 25.3 18.2 45.8 0 0 3.8-10.8 13.8-16.7 1.6-7.5 7.1-18.2 24.6-23.3 0 0 5.5 15.4-2.4 27.9 6.1-4.4 16.3-8.8 32.2-8.2 30.4 1.2 45.4-9.6 45.4-9.6s4.2 23.9-20.9 44.8c-5.1 4.3-10.4 7.5-15.6 9.9 3.3-.4 6.8-.8 10.5-.9 24.4-1.2 40.9-5.8 51.2-9.9-6.8-5.5-22.6-22-15-53.4 0 0 6 23.3 31 30.4 3.7 1 6.8 2.1 9.4 3.2-36.1-26.7-59.6-55.2-74.3-78.1-1.3 7.3-5.2 16.8-15.7 24.2-19.7 13.7-52.5 5.4-52.5 5.4s5.4-23.3 35.2-25.7c16.7-1.3 25.2-5.9 29.4-9.6-14.3-23.5-19-39.9-19-39.9 33.1 52 83.5 85 83.5 85-53.2-44-89.4-116.9-98.6-154.3-55.1 10.8-99.7 50.3-117.7 102.2.7-.7 1.5-1.4 2.3-2C76.4 473.5 71 466.4 71 466.4zm80.4-35.1s-1.1 13.6-8 18.2c.1 0-6.8-7.9 8-18.2zm-27.9 61.3s14.3 14.3 10.2 31c0 .1-15.6-7.7-10.2-31zM274.9 681.9c2.4-1.4 4.8-2.8 7.2-4.3-2.4 1.5-4.8 2.9-7.2 4.3zM257.7 690.2zM265.8 686.6c2.8-1.4 5.6-2.8 8.4-4.3-2.8 1.5-5.6 2.9-8.4 4.3zM249.1 693.4c2.2-.7 4.4-1.5 6.5-2.4-2.1.8-4.3 1.6-6.5 2.4zM229.3 698.7c3-.6 6-1.3 8.9-2-3 .8-5.9 1.4-8.9 2zM239.3 696.4c2.5-.7 5.1-1.4 7.5-2.2-2.4.7-5 1.5-7.5 2.2zM336.7 618.7c-.7 1.4-1.4 2.7-2.2 4.1.7-1.4 1.5-2.7 2.2-4.1zM211 701.2c2-.2 4.2-.4 6.3-.6-2.1.3-4.3.5-6.3.6zM311.9 653.1c-2.1 2.3-4.3 4.4-6.6 6.6 2.3-2.1 4.5-4.3 6.6-6.6zM264.2 608c-3.6 7.6-9.1 17.3-16.1 22.4-9.1 6.6-18.1 8.4-22.4 8.9 6.6-.4 25.7-1.2 52 2.5 31.7 4.4 50.7-10.1 52.2-11.3-5.2 8-11.1 15.5-17.6 22.4 8.6-9 16.1-19.1 22.3-30L264.2 608zM290.7 671.7c5.1-3.7 10-7.7 14.6-12-4.6 4.3-9.5 8.3-14.6 12zM283.3 676.8c2.3-1.5 4.6-3.1 6.9-4.7-2.3 1.7-4.6 3.2-6.9 4.7zM220.3 700.2c2.3-.3 4.6-.7 6.8-1.1-2.3.4-4.6.8-6.8 1.1z"/><path fill="#909A34" d="M133.7 523.7c4.2-16.7-10.2-31-10.2-31-5.4 23.2 10.2 31 10.2 31zM310.7 541.8c3.1 1.9 6.3 3.7 9.4 5.4-.5-.9-.9-1.7-1.4-2.6l-7.8-5.7c0 1-.1 2-.2 2.9zM173.1 510.5c-29.9 2.4-35.2 25.7-35.2 25.7s32.8 8.4 52.5-5.4c10.5-7.3 14.4-16.9 15.7-24.2-1.3-1.9-2.4-3.9-3.6-5.7-4.2 3.8-12.7 8.3-29.4 9.6z"/><path fill="#C3B3A3" d="M209 701.2c0 .3-7.2.5-11.4.5-6.3 0-12.6-.4-17.6-1.1V828c10-3 19-5.9 29-8.7V701.2z"/><path fill="#909A34" d="M198.6 701.8c4.2 0 8.3-.2 12.4-.5l6.3-.6c1-.1 2-.2 3-.4 2.3-.3 4.6-.7 6.8-1.1.7-.1 1.5-.2 2.2-.4 3-.6 6-1.3 8.9-2 .4-.1.8-.2 1.1-.3 2.5-.7 5.1-1.4 7.5-2.2.8-.2 1.5-.5 2.3-.8 2.2-.7 4.4-1.5 6.5-2.4.7-.3 1.4-.5 2-.8 2.7-1.1 5.4-2.3 8-3.5h.1c2.8-1.4 5.6-2.8 8.4-4.3.2-.1.4-.3.7-.4 2.4-1.4 4.8-2.8 7.2-4.3.4-.3.8-.5 1.2-.8 2.3-1.5 4.6-3.1 6.9-4.7.2-.1.4-.3.5-.4 5.1-3.7 10-7.7 14.6-12 2.3-2.1 4.5-4.3 6.6-6.6l.3-.3c6.5-6.9 12.4-14.4 17.6-22.4-1.4 1.1-20.5 15.6-52.2 11.3-26.3-3.6-45.4-2.9-52-2.5 4.3-.5 13.3-2.3 22.4-8.9 7-5.1 12.6-14.7 16.1-22.3l70.3 14.9v-.1c.8-1.3 1.5-2.8 2.2-4.1-21.5-10.5-40.1-22.1-56.3-34-2.7-1-5.8-2.1-9.4-3.2-25.1-7.2-31-30.5-31-30.5-7.6 31.4 8.2 47.9 15 53.4-10.3 4.1-26.8 8.7-51.2 9.9-3.7.2-7.2.5-10.5.9 5.2-2.4 10.5-5.6 15.6-9.9 25.1-20.9 20.9-44.8 20.9-44.8s-14.9 10.7-45.4 9.6c-15.9-.6-26.1 3.8-32.2 8.2 7.9-12.5 2.4-27.9 2.4-27.9-17.5 5.1-22.9 15.7-24.6 23.3-10 5.9-13.8 16.7-13.8 16.7.7-20.5-10-36.5-18.2-45.8 2.5-1.9 4.9-4.1 7-6.8 13.7-17.3 4.2-35.8 4.2-35.8s-4.2 7.8-16.7 6.6c-6.6-.6-12.8 2.9-17.3 6.3 1.8-3 3.5-7.4 4.7-14.1 3.6-19.1-9-34.6-9-34.6s5.4 8.1-17.9 26.7c-.8.7-1.6-2-2.3 3l-1.8-1.9c0 7.5-3.8 15.3-5.2 23.2 0 0 .4 0 .4.1s.2.3.1.4l1 .1c-1.4 8-1.4 16.1-1.4 24.4v1.7h-.7c.1 0-.4-.4-.4-.4l19.4 10.9c1.6 1 9.7 1 19.1-1.6-1.6 12 3 22.9 3 22.9-4.1 9.2-4.9 16.4-4.4 21.9-2-4-4.9-8.9-9.3-15.1-7.4-10.5-18.6-15-27.2-16.9 3.4 26.3 13.4 50.5 28.2 71 .1.1.2.2.2.3 1.2 1.7 2.5 3.3 3.7 4.9.2.3.4.5.6.8 1.2 1.5 2.4 3 3.7 4.5.3.3.6.7.9 1 1.2 1.4 2.5 2.8 3.7 4.1.4.4.7.8 1.1 1.1 1.2 1.3 2.5 2.6 3.8 3.8l1.2 1.2 3.9 3.6c.4.4.9.8 1.3 1.1 1.3 1.2 2.7 2.3 4.1 3.4.4.3.8.7 1.3 1 1.4 1.1 2.9 2.3 4.4 3.4.2.2.5.3.7.5 4.8 3.5 9.8 6.7 15 9.7l2.1 1.2c1.2.7 2.4 1.3 3.6 1.9 1 .5 1.9 1 2.9 1.5 1.1.6 2.3 1.1 3.5 1.6 1.1.5 2.1 1 3.2 1.4 1.1.5 2.3.9 3.4 1.4 1.1.5 2.3.9 3.4 1.4 1.1.4 2.2.8 3.4 1.2l3.6 1.2c1.1.4 2.2.7 3.4 1 1.3.4 2.5.7 3.8 1.1l3.3.9c1.3.3 2.7.6 4 .9 1.1.2 2.2.5 3.3.7 1.4.3 2.8.5 4.2.8 1.1.2 2.1.4 3.2.5 1.4.2 2.9.4 4.4.6 6.5.8 12.7 1.3 19 1.3zm-56.3-62.4c4.3-6.8 6.9-13.5 8.4-19.9 4.3 1.4 10.2 2.3 17.2 2-18.8 7.5-25.6 17.9-25.6 17.9zM151.4 431.3c-14.8 10.2-8 18.2-8 18.2 6.9-4.5 8-18.2 8-18.2zM212.5 440.9c4.4 8.1 9.1 15.8 14.1 23.1-1.6-10.9-8.5-18.6-14.1-23.1z"/><path fill="#C0C287" d="M820.7 691.7c-1.2.4-2.3.9-3.5 1.3 1.1-.4 2.3-.8 3.5-1.3zM813.7 694.2c-1.1.4-2.3.7-3.5 1.1 1.2-.4 2.3-.8 3.5-1.1zM806.5 696.3c-1.1.3-2.3.6-3.4.9 1.1-.3 2.2-.6 3.4-.9zM913.3 494.2c2.6 7.4 4.6 15.1 6 23-1.4-7.9-3.4-15.6-6-23zM799.1 698.1c-1.1.2-2.2.5-3.3.7 1.1-.2 2.2-.5 3.3-.7zM827.5 689l-3.6 1.5c1.2-.6 2.4-1 3.6-1.5zM840.7 682.5l-3.9 2.1 3.9-2.1zM873.4 658.5c-1.3 1.3-2.7 2.5-4.1 3.8 1.4-1.3 2.8-2.5 4.1-3.8zM878.4 653.5c-1.3 1.4-2.6 2.7-4 4 1.4-1.3 2.7-2.7 4-4zM868.2 663.2c-1.4 1.2-2.8 2.4-4.3 3.6 1.5-1.1 2.9-2.3 4.3-3.6zM920.5 565.8c-.3 2.3-.7 4.6-1.1 6.9.5-2.2.8-4.5 1.1-6.9zM834.2 685.9c-1.2.6-2.4 1.1-3.7 1.7 1.2-.6 2.5-1.1 3.7-1.7zM863 667.6c-1.5 1.2-3.1 2.4-4.7 3.6 1.6-1.2 3.2-2.4 4.7-3.6zM858.2 671.3c-5.1 3.8-10.5 7.2-16 10.4 5.6-3.2 10.9-6.6 16-10.4zM921.7 542.8L902 554.1c-1.6 1-9.8 1.2-19.2-1.4 1.6 12-3.1 23-3.1 23 4.1 9.2 4.9 16.4 4.4 21.9 2-4 4.9-8.9 9.3-15.1 7.4-10.5 18.6-15 27.2-16.9.9-6.7 1.4-13.5 1.4-20.4 0-9.4-.9-18.6-2.5-27.5 1.4 8 2.2 16.2 2.4 24.6-.1.3-.2.5-.2.5zM717.2 694.1c2.5.8 5 1.6 7.5 2.2-2.5-.6-5-1.4-7.5-2.2zM737 699.1c2.3.4 4.5.8 6.8 1.1-2.3-.3-4.6-.7-6.8-1.1zM725.9 696.7c2.9.8 5.9 1.4 8.9 2-3-.6-6-1.2-8.9-2zM919.4 573c-4.2 23.5-13.7 45.2-27.1 63.9 13.5-18.7 22.9-40.4 27.1-63.9zM813.3 619.6c-4.3 1.4-10.2 2.3-17.2 2 18.8 7.4 25.6 17.8 25.6 17.8-4.2-6.8-6.9-13.4-8.4-19.8zM629.6 622.8c-1.9-3.4-3.7-6.9-5.4-10.4h-.1c1.7 3.6 3.6 7 5.5 10.4zM698.3 686.6c2.6 1.3 5.3 2.4 8 3.5-2.7-1-5.3-2.2-8-3.5zM753 701.2c-2-.2-4.2-.4-6.3-.6 2.1.3 4.3.5 6.3.6zM658.8 659.7zM708.4 691c2.2.8 4.3 1.6 6.5 2.4-2.2-.8-4.4-1.6-6.5-2.4zM887.8 642.7c-1.2 1.6-2.5 3.1-3.8 4.6 1.3-1.5 2.6-3 3.8-4.6zM634.2 630.4c1.4 1.1 20.5 15.6 52.2 11.3 26.3-3.6 45.4-2.9 52-2.5-4.3-.5-13.3-2.3-22.4-8.9-7-5.1-12.6-14.8-16.1-22.4l-70.3 14.9c6.2 10.9 13.7 21 22.3 30-6.5-6.9-12.5-14.4-17.7-22.4zM883.2 648.2c-1.3 1.4-2.5 2.9-3.9 4.3 1.4-1.4 2.7-2.8 3.9-4.3zM892.2 637c-1.2 1.7-2.5 3.4-3.8 5 1.2-1.6 2.5-3.2 3.8-5zM673.9 672.1c2.3 1.6 4.6 3.2 6.9 4.7-2.3-1.5-4.6-3-6.9-4.7zM658.8 659.7c4.6 4.3 9.5 8.3 14.6 12-5.1-3.7-10-7.7-14.6-12zM682 677.6c2.4 1.5 4.8 2.9 7.2 4.3-2.4-1.4-4.8-2.8-7.2-4.3zM689.9 682.3c2.8 1.5 5.5 3 8.4 4.3-2.9-1.3-5.7-2.8-8.4-4.3zM791.6 699.5c-1.1.2-2.2.4-3.3.5 1.2-.1 2.3-.3 3.3-.5z"/><path fill="#909A34" d="M840.5 492.6s-14.3 14.3-10.1 31c0 .1 15.5-7.7 10.1-31zM773.7 530.8c19.7 13.7 52.5 5.4 52.5 5.4s-5.4-23.3-35.2-25.7c-29.8-2.4-33.4-14.9-33.4-14.9s-3.6 21.5 16.1 35.2z"/><path fill="#C3B3A3" d="M765.9 701.8c-4.2 0-9.9-.2-13.9-.5v113c14 2.2 24 4.5 34 6.9V700.6c-10 .7-13.8 1.2-20.1 1.2z"/><path fill="#909A34" d="M883.2 648.2c.3-.3.5-.6.8-.9 1.3-1.5 2.6-3 3.8-4.6.2-.2.3-.4.5-.7 1.3-1.7 2.6-3.3 3.8-5 .1-.1.1-.1.1-.2 13.5-18.6 22.9-40.3 27.1-63.9v-.2c.4-2.3.8-4.5 1.1-6.8-8.6 2-19.8 6.2-27.2 16.7-4.4 6.2-7.2 11-9.3 15 .5-5.5-.3-12.8-4.4-21.9 0 0 4.7-11 3.1-23 9.4 2.6 17.6 2.3 19.2 1.4l19.7-11.3s.8-.1.9-.4c-.1-8.4-1.6-16.6-1.6-24.6 0-.1-.8-.3-.8-.4 0-.1-.4-.1-.4-.2-1.4-7.9-3.6-15.6-6.2-23l-.1-.1h-.1c-.7-.7-1.5-1.4-2.3-2-23.3-18.5-17.9-25.7-17.9-25.7s-12.5 15.5-9 34.6c1.3 6.6 3 11.1 4.7 14.1-4.5-3.4-10.7-6.9-17.3-6.3-12.5 1.2-16.7-6.6-16.7-6.6s-9.6 18.5 4.2 35.8c2.1 2.6 4.5 4.8 7 6.8-8.2 9.3-18.9 25.3-18.2 45.8 0 0-3.8-10.8-13.8-16.7-1.6-7.5-7.1-18.2-24.6-23.3 0 0-5.5 15.4 2.4 27.9-6.1-4.4-16.3-8.8-32.2-8.2-30.4 1.2-45.4-9.6-45.4-9.6s-4.2 23.9 20.9 44.8c5.1 4.3 10.4 7.5 15.6 9.9-3.3-.4-6.8-.8-10.5-.9-24.3-1.2-40.9-5.8-51.2-9.9 6.8-5.5 22.6-22 15-53.4 0 0-6 23.3-31 30.4-15.6 4.5-21.5 9.1-23.7 12 1.2-3.1 2.8-8.4 2.3-14.9-14.4 12.6-30.2 23.9-47.3 33.7 1.7 3.5 3.6 7 5.6 10.4l70.1-14.9c3.6 7.6 9 17.3 16 22.4 9.1 6.6 18.1 8.4 22.4 8.9-6.6-.4-25.7-1.2-52 2.5-31.7 4.4-50.7-10.1-52.2-11.3 5.2 8 11.1 15.5 17.6 22.4l.3.3c2.1 2.2 4.3 4.4 6.6 6.6 4.6 4.3 9.5 8.3 14.6 12 .2.1.4.3.5.4 2.3 1.6 4.6 3.2 6.9 4.7.4.3.8.5 1.2.8 2.4 1.5 4.8 2.9 7.2 4.3.2.1.4.2.6.4 2.7 1.5 5.5 3 8.4 4.3h.1c2.6 1.3 5.3 2.4 8 3.5.7.3 1.4.5 2 .8 2.2.8 4.3 1.6 6.5 2.4.8.3 1.5.5 2.3.8 2.5.8 5 1.6 7.5 2.2.4.1.8.2 1.1.3 2.9.8 5.9 1.4 8.9 2 .7.1 1.5.3 2.2.4 2.3.4 4.5.8 6.8 1.1 1 .1 2 .3 3 .4l6.3.6c4.1.3 8.2.5 12.4.5 6.3 0 12.5-.4 18.6-1.1 1.5-.2 2.9-.3 4.4-.6 1.1-.2 2.2-.4 3.3-.5 1.4-.2 2.8-.5 4.2-.7 1.1-.2 2.2-.5 3.3-.7l3.9-.9c1.1-.3 2.3-.6 3.4-.9 1.2-.3 2.5-.7 3.7-1.1 1.2-.3 2.3-.7 3.5-1.1 1.2-.4 2.3-.8 3.5-1.2 1.2-.4 2.3-.8 3.5-1.3 1.1-.4 2.2-.9 3.3-1.3l3.6-1.5c1-.4 2-.9 3-1.4 1.2-.6 2.5-1.1 3.7-1.7.9-.4 1.7-.9 2.6-1.3 1.3-.7 2.6-1.3 3.9-2.1l1.5-.9c5.6-3.1 10.9-6.6 16-10.4 0 0 .1 0 .1-.1 1.6-1.2 3.1-2.4 4.7-3.6.3-.3.6-.5 1-.8 1.5-1.2 2.9-2.4 4.3-3.6.4-.3.7-.6 1.1-1 1.4-1.2 2.7-2.5 4.1-3.8.4-.3.7-.7 1.1-1 1.3-1.3 2.7-2.6 4-4 .3-.3.6-.7 1-1 1.3-.9 2.6-2.3 3.8-3.8zm-87.1-26.6c7 .3 12.9-.7 17.2-2 1.5 6.4 4.2 13.1 8.4 19.9 0-.1-6.8-10.5-25.6-17.9zM820.6 449.5s6.8-8-8-18.2c0 0 1.2 13.7 8 18.2zM737.6 474.6s21.6-5.7 21.6-38.7c0 0-26.2 12.5-21.6 38.7z"/><path fill="#C0C287" d="M410.5 454c21.6 20.5 47.7 35.7 79.2 39.6 119.6 15 134.6-29.9 134.6-29.9s-78.6 55.2-161.2-18c-19.5 7.9-38.1 9.6-52.6 8.3z"/><path fill="#C0C287" d="M253.3 181.3s22 27.3 15.7 60.9c-2.2 11.7-5.3 19.5-8.3 24.8 7.8-6.1 18.8-12.2 30.4-11.1 22 2.1 29.4-11.5 29.4-11.5s13.2 25.6-.7 52.6c7.5 17.5 18.9 48.9 36.2 81.7.5-12.1 6.2-38.2 44.3-49.3 0 0 9.7 27.1-4.2 49.1 10.8-7.7 28.6-15.5 56.6-14.4 53.5 2.1 79.8-16.8 79.8-16.8s4 23.1-11.9 50.1c12.7 5 27.5 10 43.2 13.7-11.6-15.3-22.9-41.3-13.4-80.5 0 0 10.5 40.9 54.6 53.5 27.5 7.8 37.8 16.1 41.7 21.2-3.1-7.7-7.5-23.6-.8-42.2 9.5-26.3 34.6-27.3 28.4-65.1 0 0 28.3 33.6 25.2 55.6-1 7.1-2.9 12.9-5 17.6 6.6-7.6 16.5-15.5 30.2-16.6 17.1-1.3 24.3-8.4 27.3-13.5-1.9 25.8-7 50.6-16 73.9 7 28.5-4.5 87-4.5 87-14.1 28.6-34.6 54.6-59.8 76.7.4 6.5-1.1 11.8-2.3 14.9 2.2-2.9 8.1-7.6 23.7-12 25.1-7.2 31-30.4 31-30.4 7.6 31.4-8.2 47.9-15 53.4 10.3 4.1 26.8 8.7 51.2 9.9 3.7.2 7.2.5 10.5.9-5.2-2.4-10.5-5.6-15.6-9.9-25.1-20.9-20.9-44.8-20.9-44.8s14.9 10.7 45.4 9.6c15.9-.6 26.1 3.8 32.2 8.2-7.9-12.5-2.4-27.9-2.4-27.9 17.5 5.1 22.9 15.7 24.6 23.3 10 5.9 13.8 16.7 13.8 16.7-.7-20.5 10-36.5 18.2-45.8-2.5-1.9-4.9-4.1-7-6.8-13.7-17.3-4.2-35.8-4.2-35.8s4.2 7.8 16.7 6.6c6.6-.6 12.8 2.9 17.3 6.3-1.8-3-3.5-7.4-4.7-14.1-3.6-19.1 9-34.6 9-34.6s-5.4 7.2 17.9 25.7c.8.7 1.6 1.3 2.3 2-21.2-61.2-79.4-105.2-147.8-105.2-7.4 0-14.6.5-21.7 1.5 5.9-22.4 9.1-46 9.1-70.3C753 168.1 629.8 45 477.8 45c-120.4 0-222.6 77.3-259.9 185 1.3-1.2 2.6-2.4 4.1-3.5 40.8-32.6 31.3-45.2 31.3-45.2zm587.2 311.3c5.4 23.3-10.1 31-10.1 31-4.2-16.7 10.1-31 10.1-31zm-19.9-43.1c-6.8-4.5-8-18.2-8-18.2 14.8 10.3 8 18.2 8 18.2zm-29.6 61c29.9 2.4 35.2 25.7 35.2 25.7s-32.8 8.4-52.5-5.4c-19.7-13.7-16.1-35.2-16.1-35.2s3.5 12.5 33.4 14.9zm-31.8-74.6c0 33-21.6 38.7-21.6 38.7-4.6-26.2 21.6-38.7 21.6-38.7zM432.8 259c52.5-4.2 58.8-26.3 58.8-26.3s6.3 37.8-28.4 61.9c-34.6 24.2-92.4 9.4-92.4 9.4s9.5-40.8 62-45zm-87.1-31.5s25.2 25.2 17.8 54.6c.1 0-27.2-13.7-17.8-54.6zM217.8 230c-.1 0-.1 0 0 0zM346.1 490.6s-54.8-86.8-70.6-158.6c-10.2 3.3-19.8 4.6-26.9 4.8 9.7 48.4 31.6 119.1 97.5 153.8zM206.9 271.7c0-.1 0-.2.1-.3-2.1 12-3.5 24.3-4.1 36.8l.1-.1c.5-12.4 1.8-24.5 3.9-36.4z"/><path fill="#909A34" d="M532.6 347.2s-26.2 18.9-79.8 16.8c-28-1.1-45.9 6.7-56.6 14.4 13.9-22 4.2-49.1 4.2-49.1-38.1 11.1-43.8 37.3-44.3 49.3 14 26.5 31.8 53.8 54.5 75.3 14.5 1.3 33.2-.3 52.6-8.3-1.1-1-2.2-1.9-3.3-2.9 0 0-9-38.9 0-50.8 9-12 17.9-14.9 17.9-14.9s17.4 10.2 43 20.3c15.8-27 11.8-50.1 11.8-50.1zM363.6 282.1c7.3-29.4-17.8-54.6-17.8-54.6-9.5 40.9 17.8 54.6 17.8 54.6zM752 341c-3 5.1-10.2 12.2-27.3 13.5-13.7 1.1-23.7 9-30.2 16.6 2.1-4.7 4-10.5 5-17.6 3.1-22-25.2-55.6-25.2-55.6 6.3 37.8-18.9 38.8-28.4 65.1-6.7 18.6-2.3 34.5.8 42.2-3.9-5.1-14.3-13.4-41.7-21.2-44.1-12.6-54.6-53.5-54.6-53.5-9.5 39.2 1.8 65.2 13.4 80.5 29.3 6.9 61.7 9.3 90.3-1 74.8-26.9 80.8-9 80.8-9s.6 5.2 1.1 14.1c8.5-23.5 14.1-48.3 16-74.1zM203 308l5.6-8.8s20.9-23.9 29.9-12c3.1 4.2 4.9 23.7 10.1 49.5 7.1-.2 16.8-1.5 26.9-4.8-2.3-10.3-3.8-20.4-4.1-29.8 0 0 26.9-35.9 41.9-17.9 1.8 2.1 4 6.6 6.6 12.7 13.9-27 .7-52.6.7-52.6s-7.3 13.6-29.4 11.5c-11.6-1.1-22.5 5-30.4 11.1 3.1-5.3 6.1-13.1 8.3-24.8 6.3-33.6-15.7-60.9-15.7-60.9s9.4 12.6-31.5 45.1c-1.4 1.1-2.8 2.3-4.1 3.5-4.6 13.2-8.2 26.9-10.7 40.9v.1c0 .1-.1.3-.1.4 0 .1 0 .2-.1.3A278.9 278.9 0 0 0 203 308zM463.3 294.7c34.6-24.1 28.4-61.9 28.4-61.9s-6.3 22.1-58.8 26.3c-52.5 4.2-61.9 45.1-61.9 45.1s57.6 14.6 92.3-9.5z"/><path fill="#C0C287" d="M499.5 793.3h-5.8c-16.5 0-32.7.2-48.7.6-94.4 2.4-177.3 11.8-234.1 25.4-11.4 2.7-21.8 5.6-31 8.7-30.8 10.2-48.5 22-48.5 34.6 0 38.3 162.2 69.3 362.2 69.3s362.2-31 362.2-69.3c0-15.5-26.7-29.9-71.9-41.4-9.5-2.4-19.9-4.7-30.9-6.9-64.4-12.7-154.1-20.7-253.5-21z"/><path fill="#A69079" d="M267 546.1s-50.4-33.1-83.5-85c0 0 4.7 16.4 19 39.9 1.1 1.9 2.3 3.8 3.6 5.7 14.8 22.9 38.2 51.4 74.3 78.1 16.1 11.9 34.7 23.5 56.3 34h.1c8.8 4.3 18.5 8.5 28.3 12.4 26.7 10.7 51.9 17 80.9 19.7v78.4c-14-7.3-33.4-20.6-44.7-37.6l-5 3.5c13.2 19.8 35.7 34.3 49.7 41.3v57.4c15-.4 31.9-.6 48.5-.6h5.5v-29.6c14-6.6 39.5-20.2 53.4-43.5l-5.3-3.2c-12.2 20.3-34.1 33-48.1 39.8V651.2c43-3.8 87.3-17.6 124.4-38.8h-.1c17.1-9.8 33-21.1 47.4-33.7 25.2-22.1 45.7-48.1 59.8-76.7 0 0 11.7-58.5 4.4-87-.5-8.8-1.1-14.1-1.1-14.1s-6-17.9-80.8 9c-28.6 10.3-61.1 7.9-90.3 1-15.7-3.7-30.5-8.6-43.2-13.7-25.6-10.1-43-20.3-43-20.3s-9 3-17.9 14.9c-9 12 0 50.8 0 50.8 1.1 1 2.2 2 3.3 2.9 82.5 73.2 161.2 18 161.2 18s-15 44.9-134.6 29.9c-31.5-3.9-57.6-19.1-79.2-39.6-22.7-21.5-40.5-48.8-54.5-75.3-17.3-32.8-28.6-64.3-36.2-81.7-2.6-6.1-4.8-10.5-6.6-12.7-15-17.9-41.9 17.9-41.9 17.9.4 9.4 1.8 19.5 4.1 29.8 15.8 71.8 70.6 158.6 70.6 158.6-66-34.6-87.8-105.4-97.6-153.8-5.2-25.9-7-45.4-10.1-49.5-9-12-29.9 12-29.9 12l-5 8.8.5.1c0 4-.9 7.9-.9 11.9 0 23.9 2.8 47.2 8.5 69.3 15.7 60.4 51.2 112.7 99.4 149.5 2.6 2 5.1 3.8 7.7 5.7 4.1 2.9 8.2 5.7 12.4 8.4-3.7-1.8-7.3-3.7-11.1-5.8-3.1-1.7-6.3-3.5-9.4-5.4-29.7-17.7-60-42.7-84.1-77.8-5-7.2-9.7-14.9-14.1-23.1-8.5-15.6-15.7-32.8-21.5-51.9-1.6-5.3-3-10.6-4.4-16.2 0 0-1.6-9.5-17.3-4.7-4.2 1.3-4.3 10.2-1 23.7 9.6 37.6 45.8 110.5 99.1 154.5z"/><path fill="#A9AE60" d="M577.4 647.4c-.7-2.3-1.9-3.4-1.9-3.4s.8 1.2 1.9 3.4zM577.4 647.4c1.5 4.8.7 14.7-18.7 29.9-28.5 22.4-9.2 35.7-9.2 35.7 43.9-23.5 33-55.3 27.9-65.6zM563.9 714.3c17.4 10.7 30.7-8.5 30.7-8.5-21.2-8-30.7 8.5-30.7 8.5zM326.1 678.4c-1.1-2.2-1.6-3.6-1.6-3.6s.2 1.6 1.6 3.6z"/><path fill="#A9AE60" d="M361.2 681.6c-23.8 6.2-32.2.9-35.1-3.2 5.1 10.3 23.8 38.2 69.2 17.4 0 0 1-23.4-34.1-14.2zM362.2 727.4s23.4 1 25.3-19.3c0 0-18.8-2.4-25.3 19.3z"/></svg>