<svg xmlns:xlink="http://www.w3.org/1999/xlink"  xmlns="http://www.w3.org/2000/svg" width="100" height="100" viewBox="0 0 100 100"><radialGradient id="a" cx="37.411" cy="29.164" r="66.673" gradientUnits="userSpaceOnUse"><stop offset=".121" stop-color="#d6de23"/><stop offset=".455" stop-color="#8bc53f"/><stop offset=".746" stop-color="#009345"/><stop offset="1" stop-color="#00411d"/></radialGradient><path fill="url(#a)" d="M87.105 40.753a63.146 63.146 0 0 0-.197-2.348c-.09-.797-.18-1.538-.331-2.403a2.118 2.118 0 0 0-1.918-1.742 2.112 2.112 0 0 0-2.273 1.94l-.003.04c-.118 1.455-.334 2.857-.748 4.121-.417 1.26-1.028 2.356-1.894 3.252-1.698 1.819-4.46 2.923-7.339 3.75-2.895.847-5.962 1.439-9.026 2.061-3.076.6-6.178 1.183-9.27 1.826l-2.339.484c-.803.176-1.605.377-2.396.615-1.588.477-3.154 1.051-4.634 1.822-2.972 1.508-5.659 3.664-7.642 6.332-1.968 2.682-3.247 5.783-3.855 8.945-.602 3.17-.67 6.414-.099 9.523a26.897 26.897 0 0 1 .26-4.691c.204-1.545.534-3.07.994-4.541.915-2.934 2.345-5.688 4.343-7.91 1.961-2.252 4.455-3.967 7.191-5.113a28.056 28.056 0 0 1 4.241-1.383 28.575 28.575 0 0 1 2.202-.439l2.313-.352c3.111-.457 6.225-.906 9.351-1.408 3.132-.498 6.268-1.045 9.452-1.867 1.588-.426 3.188-.938 4.775-1.667 1.582-.723 3.182-1.702 4.51-3.079.081-.081.151-.164.229-.251a51.382 51.382 0 0 1-.766 7.748c-1.025 5.672-3.166 11.135-6.712 15.627-3.543 4.482-8.461 7.867-13.969 9.938-5.498 2.143-11.484 3.094-17.505 3.543 6.023.467 12.195.09 18.157-1.604a36.212 36.212 0 0 0 8.565-3.707c2.702-1.615 5.152-3.691 7.256-6.072 4.25-4.77 6.866-10.814 8.127-16.959.651-3.08.961-6.211 1.041-9.337a53.27 53.27 0 0 0-.091-4.694z"/><radialGradient id="b" cx="37.41" cy="29.163" r="66.673" gradientUnits="userSpaceOnUse"><stop offset=".121" stop-color="#d6de23"/><stop offset=".455" stop-color="#8bc53f"/><stop offset=".746" stop-color="#009345"/><stop offset="1" stop-color="#00411d"/></radialGradient><path fill="url(#b)" d="M46.121 73.316a23.078 23.078 0 0 0 3.676 1.891c.921.391 1.875.699 2.836.961.961.25 1.934.455 2.925.553-.886-.457-1.764-.879-2.622-1.334a59.664 59.664 0 0 1-2.533-1.398 53.387 53.387 0 0 1-2.359-1.475 29.576 29.576 0 0 1 3.787-1.123 38.27 38.27 0 0 1 1.961-.428 44.87 44.87 0 0 0 2.122-.463 57.343 57.343 0 0 0 3.077-.861 22.72 22.72 0 0 0 2.521 1.508c.88.473 1.801.861 2.73 1.213.938.338 1.891.631 2.866.813-.843-.527-1.68-1.035-2.492-1.566a64.763 64.763 0 0 1-2.397-1.617c-.448-.322-.874-.662-1.31-.998 2.468-.896 4.871-1.996 7.12-3.371 2.492-1.52 4.813-3.348 6.777-5.494.976-1.076 1.878-2.219 2.641-3.445.763-1.219 1.437-2.504 1.832-3.877-1.649 2.297-3.701 4.156-5.872 5.787a39.461 39.461 0 0 1-6.95 4.102 51.077 51.077 0 0 1-7.553 2.762c-.062.018-.127.037-.191.049.16-.438.327-.877.481-1.318a81.876 81.876 0 0 0 1.051-3.223l.481-1.625.445-1.643c.271-1.1.55-2.199.741-3.33-.597.979-1.105 1.996-1.622 3.01l-.731 1.531-.698 1.541a77.253 77.253 0 0 0-1.313 3.123c-.324.822-.636 1.65-.941 2.48-.538.131-1.081.26-1.622.371-.661.139-1.322.281-1.986.398-.673.127-1.437.271-2.144.438a32.11 32.11 0 0 0-3.991 1.227v-.005c.272-1.094.528-2.193.754-3.303l.334-1.662.29-1.67c.173-1.125.35-2.246.438-3.389-.506 1.031-.92 2.084-1.34 3.141l-.594 1.592-.556 1.602a84.708 84.708 0 0 0-1.022 3.232c-.133.453-.269.914-.398 1.371-.772.383-1.532.803-2.268 1.279-2.592 1.674-4.855 4.113-6.11 6.98-1.291 2.859-1.625 5.938-1.47 8.828.154 2.91.778 5.672 1.421 8.42.148-1.408.198-2.826.284-4.219.093-1.396.191-2.773.383-4.121.365-2.684 1.069-5.252 2.354-7.383 1.267-2.143 3.09-3.836 5.264-5.08.48-.28.98-.539 1.493-.782z"/><g><radialGradient id="c" cx="37.41" cy="29.162" r="66.673" gradientUnits="userSpaceOnUse"><stop offset=".121" stop-color="#d6de23"/><stop offset=".455" stop-color="#8bc53f"/><stop offset=".746" stop-color="#009345"/><stop offset="1" stop-color="#00411d"/></radialGradient><path fill="url(#c)" d="M57.735 36.482a58.198 58.198 0 0 0-4.611 7.753 62.144 62.144 0 0 0-1.875 4.143 57.356 57.356 0 0 0-.825 2.138c-.262.73-.506 1.426-.744 2.254l4.797.994c.191-.012.38-.023.572-.037.07-.564.185-1.217.303-1.832.133-.682.28-1.365.441-2.047a61.078 61.078 0 0 1 1.121-4.071 55.219 55.219 0 0 1 3.163-7.889c2.523-5.091 5.962-9.845 10.539-13.502-5.096 2.894-9.424 7.206-12.881 12.096z"/><radialGradient id="d" cx="37.412" cy="29.162" r="66.667" gradientUnits="userSpaceOnUse"><stop offset=".121" stop-color="#d6de23"/><stop offset=".455" stop-color="#8bc53f"/><stop offset=".746" stop-color="#009345"/><stop offset="1" stop-color="#00411d"/></radialGradient><path fill="url(#d)" d="M38.887 57.322c.129.664.253 1.385.327 1.977l1.483-.305c1.038-.896 2.138-1.801 3.286-2.586l-.166-.469a61.53 61.53 0 0 0-2.7-6.277 58.399 58.399 0 0 0-4.615-7.757c-3.454-4.884-7.784-9.202-12.881-12.096 4.581 3.657 8.019 8.412 10.54 13.501a55.184 55.184 0 0 1 3.163 7.89c.423 1.346.8 2.709 1.124 4.07.161.685.306 1.367.439 2.052z"/><radialGradient id="e" cx="37.413" cy="29.164" r="66.669" gradientUnits="userSpaceOnUse"><stop offset=".121" stop-color="#d6de23"/><stop offset=".455" stop-color="#8bc53f"/><stop offset=".746" stop-color="#009345"/><stop offset="1" stop-color="#00411d"/></radialGradient><path fill="url(#e)" d="M47.616 54.523a11.277 11.277 0 0 1 1.798-.432 68.064 68.064 0 0 1-.303-3.293 73.103 73.103 0 0 1-.139-5.112c.027-3.423.303-6.854.861-10.246 1.118-6.78 3.404-13.486 7.389-19.309-2.344 2.623-4.352 5.582-6.017 8.738-1.662 3.154-2.99 6.505-4.028 9.947s-1.792 6.98-2.289 10.564a74.613 74.613 0 0 0-.553 5.406 65.1 65.1 0 0 0-.123 2.736 42.12 42.12 0 0 0 .009 2.725c1.094-.731 2.228-1.343 3.395-1.724z"/><radialGradient id="f" cx="37.408" cy="29.163" r="66.679" gradientUnits="userSpaceOnUse"><stop offset=".121" stop-color="#d6de23"/><stop offset=".455" stop-color="#8bc53f"/><stop offset=".746" stop-color="#009345"/><stop offset="1" stop-color="#00411d"/></radialGradient><path fill="url(#f)" d="M41.312 52.271a79.09 79.09 0 0 0 .708 5.617c1.504-1.225 3.113-2.357 4.794-3.063a82.547 82.547 0 0 1-.778-3.277 101.21 101.21 0 0 1-1.025-5.402 93.725 93.725 0 0 1-1.125-10.979c-.151-3.682-.062-7.385.364-11.064.433-3.679 1.205-7.339 2.478-10.867-1.689 3.349-2.925 6.944-3.82 10.626-.89 3.682-1.443 7.457-1.752 11.25a97.486 97.486 0 0 0-.22 11.432c.07 1.914.2 3.816.376 5.727z"/></g><path fill="#58595B" d="M28.413 75.631c-5.156-2.654-9.625-6.783-12.946-11.748-3.317-4.975-5.387-10.859-5.968-16.923a38.21 38.21 0 0 1 2.619-18.03c1.152-2.86 2.675-5.566 4.473-8.078a39.637 39.637 0 0 1 6.264-6.799 39.776 39.776 0 0 1 7.701-5.127c2.765-1.378 5.681-2.453 8.689-3.139 6.011-1.38 12.312-1.291 18.218.248 5.906 1.532 11.374 4.516 15.77 8.572 4.377 4.062 7.762 9.122 9.563 14.638-2.906-5.004-6.718-9.329-11.265-12.566-4.51-3.255-9.669-5.473-15.006-6.458-5.34-.981-10.867-.789-16.045.595a35.069 35.069 0 0 0-7.459 2.903 34.965 34.965 0 0 0-6.62 4.485 35.924 35.924 0 0 0-9.529 12.742c-2.187 4.896-3.247 10.301-3.104 15.745.124 5.436 1.489 10.879 4 15.846 2.481 4.994 6.163 9.44 10.645 13.094z"/></svg>