<svg xmlns:xlink="http://www.w3.org/1999/xlink"  xmlns="http://www.w3.org/2000/svg" width="100" height="100" viewBox="0 0 100 100"><radialGradient id="a" cx="53.331" cy="52.106" r="39.05" gradientUnits="userSpaceOnUse"><stop offset="0" stop-color="#00adee"/><stop offset=".392" stop-color="#0094d9"/><stop offset="1" stop-color="#005ba9"/></radialGradient><path fill="url(#a)" d="M86.893 47.605L63.075 24.376c.96 2.747 2.751 6.598 6.117 11.313 3.982 5.582 8.109 17.599 2.439 27.313-2.479 4.25-10.975 12.229-16.228 14.043.39 3.045.823 5.84 1.139 7.864l30.424-31.194a4.325 4.325 0 0 0-.073-6.11z"/><g><radialGradient id="b" cx="72.303" cy="51.781" r="73.106" gradientUnits="userSpaceOnUse"><stop offset="0" stop-color="#fff"/><stop offset=".08" stop-color="#e4f2d6"/><stop offset=".213" stop-color="#bbde96"/><stop offset=".326" stop-color="#9ccf68"/><stop offset=".413" stop-color="#8ac64c"/><stop offset=".462" stop-color="#83c341"/><stop offset="1" stop-color="#006937"/></radialGradient><path fill="url(#b)" d="M49.209 36.994c2.383-4.092 7.602-13.267 10.208-16.185l-1.262-1.231c-2.067 2.821-8.377 11.895-13.336 23.795-2.581 6.203-2.975 15.062 3.68 26.629-.368-.28-13.95-11.248-8.763-27.155 2.322-7.124 8.417-14.966 18.239-23.44l-5.178-5.056a4.315 4.315 0 0 0-6.104.079L13.431 48.525a4.314 4.314 0 0 0 .083 6.107l34.091 33.246a4.3 4.3 0 0 0 5.52.42c-1.734-4.72-2.645-11.54-3.127-16.825-2.235-3.574-10.173-18.317-.789-34.479z"/><radialGradient id="c" cx="72.295" cy="51.78" r="73.102" gradientUnits="userSpaceOnUse"><stop offset="0" stop-color="#fff"/><stop offset=".08" stop-color="#e4f2d6"/><stop offset=".213" stop-color="#bbde96"/><stop offset=".326" stop-color="#9ccf68"/><stop offset=".413" stop-color="#8ac64c"/><stop offset=".462" stop-color="#83c341"/><stop offset="1" stop-color="#006937"/></radialGradient><path fill="url(#c)" d="M53.94 68.284c.141 4.803 1.42 12.882 2.138 17.097l-2.365 2.428c-.048.047-.097.096-.141.131-3.063-8.534-3.531-24.123-3.54-24.316h-.026c-.123-18.909 6.458-33.367 6.66-33.814-2.927 11.58-3.229 24.649-2.932 33.824h-.004c.013 1.423.166 2.995.21 4.65z"/></g></svg>