<svg xmlns:xlink="http://www.w3.org/1999/xlink"  xmlns="http://www.w3.org/2000/svg" width="100" height="100" viewBox="0 0 100 100"><radialGradient id="a" cx="49.986" cy="30.178" r="31.499" gradientUnits="userSpaceOnUse"><stop offset="0" stop-color="#fbed1f"/><stop offset=".346" stop-color="#faea1f"/><stop offset=".62" stop-color="#f9e01d"/><stop offset=".868" stop-color="#f5cf1b"/><stop offset="1" stop-color="#f3c31a"/></radialGradient><path fill="url(#a)" d="M14.704 48.968c-1.742-5.005-.38-10.618 3.815-13.856 3.631-2.804 8.44-3.11 12.52-1.227-.558-4.638 1.141-9.318 4.944-12.25 4.459-3.447 10.532-3.484 15.323-.583a12.966 12.966 0 0 1 3.313-3.788c5.943-4.588 14.108-2.81 18.924 3.432 1.582 2.049 2.606 4.325 3.061 6.616.908.218 1.804.58 2.659 1.089 2.42 1.435 3.978 3.723 4.389 6.22a10.605 10.605 0 0 1 3.027-.438c.898 0 1.77.113 2.598.322-6.101-14.858-20.71-25.32-37.768-25.32-22.549 0-40.813 18.271-40.813 40.813 0 .393.006.782.015 1.172l.301-.242a12.447 12.447 0 0 1 3.692-1.96z"/><linearGradient id="b" gradientUnits="userSpaceOnUse" x1="51.518" y1="69.787" x2="51.518" y2="14.687"><stop offset="0" stop-color="#ceecfb"/><stop offset=".158" stop-color="#b1dbf3"/><stop offset=".42" stop-color="#87c1e7"/><stop offset=".657" stop-color="#68afdf"/><stop offset=".858" stop-color="#56a4da"/><stop offset="1" stop-color="#4fa0d8"/></linearGradient><path fill="url(#b)" d="M91.288 40.822a40.787 40.787 0 0 0-2.012-6.319 10.656 10.656 0 0 0-5.625.116c-.411-2.497-1.969-4.785-4.389-6.22a9.562 9.562 0 0 0-2.659-1.089c-.454-2.291-1.479-4.567-3.061-6.616-4.815-6.242-12.98-8.021-18.924-3.432a12.98 12.98 0 0 0-3.313 3.788c-4.791-2.902-10.864-2.865-15.323.583-3.803 2.932-5.502 7.612-4.944 12.25-4.079-1.883-8.888-1.577-12.52 1.227-4.196 3.238-5.558 8.852-3.815 13.856a12.487 12.487 0 0 0-3.693 1.96l-.301.242a40.616 40.616 0 0 0 3.085 14.458 38.375 38.375 0 0 1 2.761-2.396c.147-.116.297-.235.454-.353.062-.049.129-.098.193-.147l.371-.275c.261-.19.528-.384.804-.577a31.88 31.88 0 0 1 1.815-1.184c2.932-1.764 6.594-3.288 10.673-3.87a24.366 24.366 0 0 1 7.527.085c6.447 1.11 11.501 4.739 14.961 8.552a30.688 30.688 0 0 1 2.257 2.797c.368.521.715 1.03 1.037 1.527a35.325 35.325 0 0 1 2.331-1.822 32.142 32.142 0 0 1 4.312-2.601c.123-.064.246-.122.368-.181a32.024 32.024 0 0 1 2.448-1.067c6.324-2.457 12.439-2.573 16.749-1.874 3.235.503 5.561 1.318 6.959 1.868a40.402 40.402 0 0 0 1.472-4.936 40.881 40.881 0 0 0 1.037-9.177 40.743 40.743 0 0 0-1.035-9.173z"/><path fill="none" d="M18.378 61.88zM17.204 62.732c-.064.05-.132.099-.193.147.061-.048.128-.097.193-.147z"/><path fill="#FFF" d="M13.723 47.257l.577.208-.028-.141-.549-.067zM31.088 25.852l.589 1.721c.055-.16.11-.319.171-.479l-.76-1.242zM25.034 29.584l1.902 3.08c.441.043.88.11 1.313.202l-3.215-3.282z"/><path fill="#83D4F6" d="M58.575 54.584c0-7.702-6.244-13.946-13.942-13.946-7.705 0-13.946 6.244-13.946 13.946 0 .764.061 1.512.181 2.242a24.366 24.366 0 0 1 7.527.085c6.447 1.11 11.501 4.739 14.961 8.552 3.18-2.559 5.219-6.482 5.219-10.879zm-13.942-1.77c-4.178 0-7.564-3.484-7.564-6.086 0-2.606 3.386-4.717 7.564-4.717 4.171 0 7.563 2.11 7.563 4.717-.001 2.602-3.392 6.086-7.563 6.086z"/><radialGradient id="c" cx="44.632" cy="46.303" r="27.932" gradientUnits="userSpaceOnUse"><stop offset="0" stop-color="#fbed1f"/><stop offset=".346" stop-color="#faea1f"/><stop offset=".62" stop-color="#f9e01d"/><stop offset=".868" stop-color="#f5cf1b"/><stop offset="1" stop-color="#f3c31a"/></radialGradient><path fill="url(#c)" d="M60.397 56.491l15.997-1.646-15.967-1.908 15.228-5.165-15.991 1.688 13.697-8.423-15.216 5.208 11.483-11.262-13.678 8.461 8.691-13.532-11.446 11.29 5.453-15.124L50 39.632l1.953-15.958-5.413 15.142-1.646-15.998-1.911 15.967-5.163-15.228 1.69 15.995-7.662-12.458-.76-1.242.589 1.721 4.616 13.495-8.045-8.202-3.214-3.282 1.902 3.08 6.557 10.596-13.532-8.688 11.293 11.452-15.127-5.459 13.557 8.648-15.412-1.889-.549-.067.577.208 14.562 5.208L12.87 54.32l15.964 1.91-15.228 5.162 6.588-.696c2.932-1.764 6.594-3.288 10.673-3.87-.12-.73-.181-1.479-.181-2.242 0-7.702 6.241-13.946 13.946-13.946 7.698 0 13.942 6.244 13.942 13.946 0 4.397-2.039 8.32-5.22 10.879a30.688 30.688 0 0 1 2.257 2.797c.368.521.715 1.03 1.037 1.527.328-.279.662-.559 1.009-.828l-1.89-3.055 3.212 2.061a32.673 32.673 0 0 1 2.3-1.502l-3.27-3.319 5.649 2.04a32.024 32.024 0 0 1 2.448-1.067l-6.533-4.165 15.964 1.954-15.14-5.415z"/><radialGradient id="d" cx="44.631" cy="53.051" r="13.2" gradientUnits="userSpaceOnUse"><stop offset="0" stop-color="#fbed1f"/><stop offset=".346" stop-color="#faea1f"/><stop offset=".62" stop-color="#f9e01d"/><stop offset=".868" stop-color="#f5cf1b"/><stop offset="1" stop-color="#f3c31a"/></radialGradient><path fill="url(#d)" d="M58.575 54.584c0-7.702-6.244-13.946-13.942-13.946-7.705 0-13.946 6.244-13.946 13.946 0 .764.061 1.512.181 2.242a24.366 24.366 0 0 1 7.527.085c6.447 1.11 11.501 4.739 14.961 8.552 3.18-2.559 5.219-6.482 5.219-10.879zm-13.942-1.77c-4.178 0-7.564-3.484-7.564-6.086 0-2.606 3.386-4.717 7.564-4.717 4.171 0 7.563 2.11 7.563 4.717-.001 2.602-3.392 6.086-7.563 6.086z"/><path fill="#83D4F6" d="M44.633 42.012c-4.178 0-7.564 2.11-7.564 4.717 0 2.602 3.386 6.086 7.564 6.086 4.171 0 7.563-3.484 7.563-6.086-.001-2.607-3.392-4.717-7.563-4.717z"/><radialGradient id="e" cx="44.632" cy="53.048" r="13.203" gradientUnits="userSpaceOnUse"><stop offset="0" stop-color="#fbed1f"/><stop offset=".346" stop-color="#faea1f"/><stop offset=".62" stop-color="#f9e01d"/><stop offset=".868" stop-color="#f5cf1b"/><stop offset="1" stop-color="#f3c31a"/></radialGradient><path fill="url(#e)" d="M44.633 42.012c-4.178 0-7.564 2.11-7.564 4.717 0 2.602 3.386 6.086 7.564 6.086 4.171 0 7.563-3.484 7.563-6.086-.001-2.607-3.392-4.717-7.563-4.717z"/><linearGradient id="f" gradientUnits="userSpaceOnUse" x1="44.632" y1="52.815" x2="44.632" y2="42.012"><stop offset="0" stop-color="#fbed1f"/><stop offset=".133" stop-color="#faee40"/><stop offset=".294" stop-color="#faf062"/><stop offset=".46" stop-color="#faf17c"/><stop offset=".63" stop-color="#f9f18e"/><stop offset=".807" stop-color="#f9f299"/><stop offset="1" stop-color="#f9f29d"/></linearGradient><path fill="url(#f)" d="M44.633 42.012c-4.178 0-7.564 2.11-7.564 4.717 0 2.602 3.386 6.086 7.564 6.086 4.171 0 7.563-3.484 7.563-6.086-.001-2.607-3.392-4.717-7.563-4.717z"/><path fill="#006937" d="M53.754 76.12zM61.756 69.747zM63.525 68.735zM59.191 71.44z"/><linearGradient id="g" gradientUnits="userSpaceOnUse" x1="16.253" y1="65.258" x2="16.342" y2="65.169"><stop offset="0" stop-color="#a8ce38"/><stop offset=".582" stop-color="#c0d12e"/><stop offset="1" stop-color="#d4d426"/></linearGradient><path fill="url(#g)" d="M16.241 65.245c.034-.021.077-.04.113-.064-.037.024-.08.043-.113.064z"/><linearGradient id="h" gradientUnits="userSpaceOnUse" x1="17.049" y1="64.832" x2="17.179" y2="64.702"><stop offset="0" stop-color="#a8ce38"/><stop offset=".582" stop-color="#c0d12e"/><stop offset="1" stop-color="#d4d426"/></linearGradient><path fill="url(#h)" d="M17.029 64.813c.058-.031.11-.062.168-.092-.058.03-.11.06-.168.092z"/><linearGradient id="i" gradientUnits="userSpaceOnUse" x1="15.521" y1="65.693" x2="15.694" y2="65.52"><stop offset="0" stop-color="#a8ce38"/><stop offset=".582" stop-color="#c0d12e"/><stop offset="1" stop-color="#d4d426"/></linearGradient><path fill="url(#i)" d="M15.499 65.671c.07-.043.147-.086.218-.129-.071.043-.148.086-.218.129z"/><linearGradient id="j" gradientUnits="userSpaceOnUse" x1="14.741" y1="66.171" x2="14.954" y2="65.958"><stop offset="0" stop-color="#a8ce38"/><stop offset=".582" stop-color="#c0d12e"/><stop offset="1" stop-color="#d4d426"/></linearGradient><path fill="url(#j)" d="M14.713 66.144c.089-.056.175-.11.267-.159-.092.048-.178.103-.267.159z"/><path fill="#006937" d="M14.456 66.303c.083-.055.168-.104.258-.159-.09.054-.175.104-.258.159zM14.98 65.984c.166-.104.344-.209.519-.313-.175.104-.353.209-.519.313zM15.716 65.542c.171-.098.343-.196.524-.297l-.524.297zM16.354 65.181zM17.197 64.721z"/><linearGradient id="k" gradientUnits="userSpaceOnUse" x1="14.164" y1="70.322" x2="55.208" y2="70.322"><stop offset="0" stop-color="#a8ce38"/><stop offset=".582" stop-color="#c0d12e"/><stop offset="1" stop-color="#d4d426"/></linearGradient><path fill="url(#k)" d="M24.236 74.885c4.232 5.478 11.839 6.704 16.989 2.724a11.204 11.204 0 0 0 3.417-4.393 15.033 15.033 0 0 0 6.012 3.331 32.505 32.505 0 0 1 3.652-4.539c.295-.31.596-.61.902-.914a53.468 53.468 0 0 0-.418-.448 28.944 28.944 0 0 0-1.444-1.447 32.91 32.91 0 0 0-2.512-2.125c-3.585-2.739-8.174-5.095-13.378-5.96a28.08 28.08 0 0 0-5.355-.411 31.244 31.244 0 0 0-4.935.497c-3.487.626-6.659 1.791-9.226 3.132-.255.132-.5.261-.743.39-.058.03-.11.061-.168.092-.233.122-.46.245-.675.368-.037.024-.08.043-.113.064-.181.101-.353.199-.524.297l-.218.129c-.175.104-.353.209-.519.313-.092.049-.178.104-.267.159-.089.055-.175.104-.258.159l-.292.182a40.582 40.582 0 0 0 5.45 8.977c1.562.085 3.13-.099 4.623-.577z"/><path fill="#006937" d="M63.525 68.735c.319-.169.642-.335.973-.5a37.927 37.927 0 0 1-.003 0c-.328.165-.65.331-.97.5z"/><path fill="none" d="M89.69 64.447c.003 0 .01.003.016.003-.006 0-.013-.003-.016-.003z"/><path fill="#006937" d="M85.06 64.092c2.168.092 3.652.229 4.631.355-.979-.126-2.463-.263-4.631-.355z"/><path fill="#82993B" d="M82.857 62.242c-4.31-.699-10.425-.583-16.749 1.874-.816.315-1.632.672-2.448 1.067-.122.059-.245.116-.368.181-.692.347-1.364.715-2.012 1.099a32.906 32.906 0 0 0-3.622 2.496c-.347.27-.681.549-1.009.828a46.21 46.21 0 0 0-1.037-1.527 30.688 30.688 0 0 0-2.257-2.797c-3.46-3.813-8.515-7.441-14.961-8.552a24.366 24.366 0 0 0-7.527-.085c-4.079.582-7.741 2.106-10.673 3.87-.641.387-1.248.785-1.815 1.184-.276.193-.543.387-.804.577l-.371.275c-.064.05-.132.099-.193.147a38.127 38.127 0 0 0-3.215 2.749l.028.07c.107.265.224.525.34.786 1.04-.66 2.3-1.396 3.776-2.153 2.567-1.341 5.738-2.506 9.226-3.132a31.244 31.244 0 0 1 4.935-.497 28.08 28.08 0 0 1 5.355.411c5.205.865 9.793 3.221 13.378 5.96a33.105 33.105 0 0 1 2.512 2.125c.513.481.997.963 1.444 1.447.142.15.282.301.418.448-.307.304-.607.604-.902.914a32.193 32.193 0 0 0-3.652 4.539c-.046.073-.096.147-.145.221a28.658 28.658 0 0 0-1.313 2.218l-.104.193c-2.374 4.49-2.84 7.692-3.089 8.22-.043.318.96-2.398 3.831-6.533.019-.024.031-.046.049-.067.282-.417.589-.84.917-1.267a37.994 37.994 0 0 1 2.126-2.536c.27-.289.54-.583.828-.875a40.997 40.997 0 0 1 3.748-3.401c.202-.16.404-.322.613-.482a40.042 40.042 0 0 1 5.41-3.502c.319-.169.642-.335.97-.5a38.69 38.69 0 0 1 2.561-1.178c.285-.117.57-.228.855-.344.481-.184.963-.362 1.441-.524 4.622-1.586 9.146-2.144 12.814-2.168.387-.004.767 0 1.135.012.215.003.43.013.635.019.396.009.764.024 1.123.04 2.168.092 3.652.229 4.631.355.034-.083.064-.169.096-.251.012-.031.018-.059.03-.086-1.398-.549-3.723-1.365-6.959-1.868z"/><path fill="#006937" d="M85.06 64.092a50.825 50.825 0 0 0-1.123-.04c-.205-.006-.42-.016-.635-.019a26.509 26.509 0 0 0-1.135-.012c-3.668.024-8.192.582-12.814 2.168-.479.162-.96.341-1.441.524-.285.116-.57.227-.855.344-.855.355-1.708.748-2.558 1.178-.331.165-.653.331-.973.5a39.763 39.763 0 0 0-5.41 3.502c-.209.16-.411.322-.613.482-.163.132-.325.264-.484.396a40.637 40.637 0 0 0-3.264 3.005c-.288.292-.559.586-.828.875 3.398.389 6.87-.451 9.707-2.641.107-.083.209-.166.313-.249 3.836 1.807 9.253-.681 10.222-3.975 1.273.828 3.052 1.585 5.472 1.232 2.619-.38 4.77-1.892 5.638-3.177a10.593 10.593 0 0 0 2.57 2.251 40.876 40.876 0 0 0 2.843-5.99c-.98-.125-2.464-.262-4.632-.354z"/><linearGradient id="l" gradientUnits="userSpaceOnUse" x1="59.755" y1="83.824" x2="85.083" y2="58.496"><stop offset="0" stop-color="#d4d426"/><stop offset=".387" stop-color="#c6d22c"/><stop offset="1" stop-color="#a8ce38"/></linearGradient><path fill="url(#l)" d="M85.06 64.092a50.825 50.825 0 0 0-1.123-.04c-.205-.006-.42-.016-.635-.019a26.509 26.509 0 0 0-1.135-.012c-3.668.024-8.192.582-12.814 2.168-.479.162-.96.341-1.441.524-.285.116-.57.227-.855.344-.855.355-1.708.748-2.558 1.178-.331.165-.653.331-.973.5a39.763 39.763 0 0 0-5.41 3.502c-.209.16-.411.322-.613.482-.163.132-.325.264-.484.396a40.637 40.637 0 0 0-3.264 3.005c-.288.292-.559.586-.828.875 3.398.389 6.87-.451 9.707-2.641.107-.083.209-.166.313-.249 3.836 1.807 9.253-.681 10.222-3.975 1.273.828 3.052 1.585 5.472 1.232 2.619-.38 4.77-1.892 5.638-3.177a10.593 10.593 0 0 0 2.57 2.251 40.876 40.876 0 0 0 2.843-5.99c-.98-.125-2.464-.262-4.632-.354z"/><path fill="#678038" d="M83.302 64.033z"/><linearGradient id="m" gradientUnits="userSpaceOnUse" x1="61.324" y1="85.439" x2="86.678" y2="60.085"><stop offset="0" stop-color="#d4d426"/><stop offset=".387" stop-color="#c6d22c"/><stop offset="1" stop-color="#a8ce38"/></linearGradient><path fill="url(#m)" d="M83.302 64.033z"/><path fill="#CBDC5A" d="M84.277 68.187c-.868 1.285-3.019 2.797-5.638 3.177-2.42.353-4.198-.404-5.472-1.232-.969 3.294-6.386 5.781-10.222 3.975-.104.083-.206.166-.313.249-2.837 2.189-6.309 3.029-9.707 2.641a37.994 37.994 0 0 0-2.126 2.536c-.328.427-.635.85-.917 1.267-.018.021-.03.043-.049.067-2.871 4.135-3.874 6.852-3.831 6.533.249-.527.715-3.729 3.089-8.22l.104-.193c.38-.715.815-1.457 1.313-2.218.049-.073.099-.147.145-.221a15.04 15.04 0 0 1-6.012-3.331 11.194 11.194 0 0 1-3.417 4.393c-5.15 3.98-12.756 2.754-16.989-2.724a12.817 12.817 0 0 1-4.622.576c7.475 9.361 18.982 15.354 31.895 15.354 15.096 0 28.278-8.194 35.339-20.377a10.68 10.68 0 0 1-2.57-2.252z"/></svg>