<svg xmlns:xlink="http://www.w3.org/1999/xlink"  xmlns="http://www.w3.org/2000/svg" width="100" height="100" viewBox="0 0 100 100"><linearGradient id="a" gradientUnits="userSpaceOnUse" x1="-485.15" y1="586.223" x2="-474.271" y2="586.223" gradientTransform="matrix(0 -12.5077 -12.5077 0 7383.95 -5918.11)"><stop offset="0" stop-color="#3a6791"/><stop offset=".5" stop-color="#4478b6"/><stop offset="1" stop-color="#84bbd8"/></linearGradient><path fill="url(#a)" d="M71.402 52.466c-3.813 6.125-6.682 12.479-10.816 19.856-2.241 4.027-4.047 6.896-7.074 9.644-3.092-15.227-13.208-27.19-19.307-32.284-7.66-6.449-15.745-11.804-25.615-12.904-.977 3.65-1.562 7.469-1.572 11.416v.255c.053 24.611 20.049 44.545 44.645 44.545 24.649 0 44.634-19.986 44.634-44.651 0-4.632-.7-9.126-2.019-13.35-10.668.744-18.169 9.881-22.876 17.473z"/><path fill="#4B245E" d="M42.186 43.43c4.76 5.869 9.242 16.175 11.899 30.753-.276-15.448-3.464-24.565-7.661-31.843-6.099-10.662-17.318-16.463-30.609-17.408 12.24-5.658 30.292-4.494 39.109 10.486 4.962 8.441 5.557 22.567 1.583 38.854 3.537-9.216 5.547-21.849 10.179-29.482 5.449-9.042 16.903-10.87 27.538-9.923C88.508 16.804 71.626 3.704 51.662 3.704c-18.688 0-34.657 11.511-41.298 27.82 11.21-2.262 22.748.76 31.822 11.906z"/></svg>