<svg xmlns:xlink="http://www.w3.org/1999/xlink"  xmlns="http://www.w3.org/2000/svg" viewBox="0 0 1000 1000"><path fill="#B9E0F3" d="M698.7 465.7c-44.5 0-83.8 22.9-108.1 58.1-20.5-13.5-44.7-21.4-70.7-21.4-10.9 0-21.4 1.5-31.5 4.1-22-45.8-67.1-77.3-119.3-77.3-56.9 0-105.4 37.4-124.6 90.1 4.9 36 16.9 69.7 34.4 99.8 37.5 3.8 95.8 14.7 139.2 45.8V602s128.6 18.1 207.7 94l34.6-59.4s21.1 16.9 43.1 43.4c48-45.5 79.4-108.2 84.5-178.2-23.7-22.4-54.9-36.1-89.3-36.1z"/><path fill="#97A822" d="M188.9 481.7c0 180 146.4 326.5 326.4 326.5 180 0 326.5-146.4 326.5-326.5 0-180-146.4-326.4-326.5-326.4-179.9-.1-326.4 146.4-326.4 326.4zm19.8 0c0-169.1 137.6-306.7 306.7-306.7S822 312.6 822 481.7 684.4 788.4 515.3 788.4c-169-.1-306.6-137.6-306.6-306.7z"/><path fill="#97A822" d="M149.4 481.7c0 201.8 164.2 366 366 366s366-164.2 366-366-164.2-366-366-366c-201.9-.1-366 164.1-366 366zm19.7 0c0-190.9 155.3-346.2 346.2-346.2s346.2 155.3 346.2 346.2c0 190.9-155.3 346.2-346.2 346.2S169.1 672.6 169.1 481.7z"/><path fill="#97A822" d="M109.8 481.7c0 223.6 181.9 405.6 405.6 405.6 223.6 0 405.6-182 405.6-405.6C921 258 739 76.1 515.4 76.1c-223.7 0-405.6 181.9-405.6 405.6zm19.8 0c0-212.7 173.1-385.8 385.8-385.8 212.7 0 385.8 173.1 385.8 385.8S728.1 867.5 515.4 867.5c-212.8 0-385.8-173.1-385.8-385.8z"/><g fill="#698948"><path d="M232.8 397.8s-94.1-58.1-196.7 82.7c0 0 91.5 69.9 210.2-69.8l-132.7 48.8 119.2-61.7zM255.7 357.4s.5-92.4-143.7-110.1c0 0-10.1 95.2 140.4 125.3l-92-77.2 95.3 62zM290.8 356.7s86.6-32.1 52.3-173.3c0 0-92.6 24.2-67.7 175.6l39.7-113.3-24.3 111z"/></g><g fill="#698948"><path d="M708.5 333S737.3 226.2 573 168.1c0 0-40.9 107.6 127 181.6l-84.7-113.3 93.2 96.6zM753.8 343.4s88.7-25.9 64.5-169.2c0 0-94.1 17.5-80 170.3L786 234.3l-32.2 109.1zM764.4 376.9s55.5 73.8 181.1.7c0 0-49.6-81.9-187.6-14.7l120 5.7-113.5 8.3z"/></g><g fill="#698948"><path d="M485.9 341.3s-48.2-32.7-105.3 39.1c0 0 46.5 38.8 112.2-32l-70.9 22.7 64-29.8zM498.8 320.5s2.3-48.6-73.1-61.2c0 0-7.4 49.9 71.1 69.1l-46.7-42.7 48.7 34.8zM517.3 320.9s46.3-14.9 31.4-90c0 0-49.3 10.7-39.6 90.8l23.5-58.7-15.3 57.9z"/></g><path fill="#698948" d="M207.6 657.5s321-30.8 386.9 316.6M458.2 635.5s255 105.5 158.3 321M686.8 705.9s70.3 171.5-44 246.2"/><path fill="#698948" d="M265 407.5c2.4 4.1 60.5 100.2 206.9 162.4 137.6 58.4 151.8 167.6 152.3 172.3l19.7-2.2c-.6-5.1-15.5-125.2-164.2-188.3-140-59.4-197-153.3-197.6-154.2l-17.1 10z"/><path fill="#698948" d="M371.7 514.7l14.6-13.3c-38.5-42.3.8-110.8 1.2-111.5l-17.1-10c-1.8 3.3-47 81.6 1.3 134.8zM533.4 548.5l24.8 38.4c42.5 65 79.2 121.2 79.2 184.9h19.8c0-69.6-38.2-128-82.4-195.7l-24.7-38.2C500.2 459 520.4 366 520.6 365.1l-19.3-4.4c-.9 4.1-22.3 101.8 32.1 187.8z"/><path fill="#698948" d="M600.3 475.1c-80.2 89.7 4.1 171.3 5 172.1l13.6-14.4c-2.9-2.8-71.1-69.3-3.8-144.5 75.3-84.1 89.4-124.9 89.9-126.6l-18.7-6.3c-.2.3-14.2 39.4-86 119.7z"/><path fill="#698948" d="M634 371.7c.1.3 12.2 24.6 12.2 43.9H666c0-24-13.7-51.6-14.2-52.8l-17.8 8.9z"/></svg>