<svg xmlns:xlink="http://www.w3.org/1999/xlink"  xmlns="http://www.w3.org/2000/svg" width="100" height="100" viewBox="0 0 100 100"><radialGradient id="a" cx="2702.899" cy="-180.185" r="172.001" gradientTransform="matrix(-1 0 0 1.0324 2742.316 153.355)" gradientUnits="userSpaceOnUse"><stop offset=".121" stop-color="#d7dd3f"/><stop offset=".455" stop-color="#9dc44d"/><stop offset=".746" stop-color="#51924b"/><stop offset="1" stop-color="#1e4324"/></radialGradient><path fill="url(#a)" d="M92.673 30.351c.167-.464-4.117 5.358-21.204 6.933 0 0-15.565.631-23.192 5.353 0 0 1.22-7.718 8.387-11.021 0 0-31.885-.948-29.903 25.834 0 0 5.032-11.031 13.123-15.125 0 0-6.104 8.662-8.546 16.226 0 0 13.123.942 29.755-5.357 0 0-8.723 11.499-34.423 13.233 0 0 21.3 14.961 44.645-4.568-.001-.001 14.191-11.189 21.358-31.508z"/><radialGradient id="b" cx="2712.51" cy="-162.291" r="162.183" gradientTransform="matrix(-1 0 0 1.0331 2742.316 156.784)" gradientUnits="userSpaceOnUse"><stop offset="0" stop-color="#00abeb"/><stop offset=".029" stop-color="#22aae7"/><stop offset=".06" stop-color="#3fa8e3"/><stop offset=".091" stop-color="#53a8e0"/><stop offset=".122" stop-color="#60a7df"/><stop offset=".151" stop-color="#64a7de"/><stop offset=".327" stop-color="#4674b7"/><stop offset=".521" stop-color="#333b8b"/><stop offset=".758" stop-color="#211c51"/><stop offset="1" stop-color="#171043"/></radialGradient><path fill="url(#b)" d="M7.587 29.418c.837-2.059 2.202-3.844 4.347-4.913 1.872-.991 3.883-1.809 6.028-2.135 2.164-.34 4.467-.167 6.501.709 2.049.847 3.773 2.298 5.104 3.993a17.4 17.4 0 0 1 2.293 3.887 3.515 3.515 0 0 0-.239.182 19.764 19.764 0 0 0-2.705-3.452c-1.436-1.432-3.126-2.566-4.959-3.146a10.841 10.841 0 0 0-5.655-.191c-1.867.431-3.682 1.206-5.391 2.221l.058-.033-.153.081c-.564.302-1.278.919-1.776 1.547a7.688 7.688 0 0 0-1.25 2.168c-.618 1.594-.738 3.404-.58 5.209.326 3.648 1.762 7.234 3.414 10.657 1.7 3.409 3.706 6.703 5.846 9.91 2.15 3.208 4.429 6.344 6.727 9.48a88.613 88.613 0 0 1-7.876-8.58c-2.442-3.035-4.726-6.253-6.617-9.753-1.896-3.485-3.471-7.282-3.921-11.48-.192-2.086-.011-4.302.804-6.361z"/><radialGradient id="c" cx="2712.508" cy="-162.303" r="162.235" gradientTransform="matrix(-1 0 0 1.0331 2742.316 156.784)" gradientUnits="userSpaceOnUse"><stop offset="0" stop-color="#00abeb"/><stop offset=".029" stop-color="#22aae7"/><stop offset=".06" stop-color="#3fa8e3"/><stop offset=".091" stop-color="#53a8e0"/><stop offset=".122" stop-color="#60a7df"/><stop offset=".151" stop-color="#64a7de"/><stop offset=".327" stop-color="#4674b7"/><stop offset=".521" stop-color="#333b8b"/><stop offset=".758" stop-color="#211c51"/><stop offset="1" stop-color="#171043"/></radialGradient><path fill="url(#c)" d="M54.602 27.081c-2.184-1.388-4.793-2-7.383-2.145a20.216 20.216 0 0 0-7.713 1.135c-2.485.862-4.783 2.207-6.808 3.849-2.029 1.647-3.796 3.595-5.161 5.822 2.097-1.499 4.122-2.935 6.229-4.194 2.106-1.245 4.275-2.293 6.53-3.088 2.245-.785 4.572-1.331 6.966-1.561 2.394-.22 4.836-.211 7.34.182z"/><radialGradient id="d" cx="2702.891" cy="-29.508" r="172.035" gradientTransform="matrix(-1 0 0 1 2742.316 0)" gradientUnits="userSpaceOnUse"><stop offset=".121" stop-color="#d7dd3f"/><stop offset=".455" stop-color="#9dc44d"/><stop offset=".746" stop-color="#51924b"/><stop offset="1" stop-color="#1e4324"/></radialGradient><path fill="url(#d)" d="M26.086 28.049c-1.441-1.322-3.476-2.045-5.53-1.982-1.024.038-2.049.278-3.011.655-.479.188-.938.422-1.388.681a8.343 8.343 0 0 0-1.279.957c-1.584 1.398-2.619 3.399-2.997 5.472-.397 2.145.034 4.242.575 6.157 1.202 3.844 3.068 7.32 5.103 10.642a83.666 83.666 0 0 0 6.804 9.495c-1.805-3.447-3.702-6.827-5.478-10.246-.866-1.714-1.752-3.419-2.518-5.166-.79-1.733-1.513-3.495-2.035-5.281-.536-1.776-.895-3.595-.622-5.3.221-1.748 1.02-3.385 2.227-4.683.296-.32.641-.623.977-.862a12.43 12.43 0 0 1 1.163-.704 8.172 8.172 0 0 1 2.571-.862c1.8-.305 3.748.064 5.438 1.027z"/></svg>