<svg xmlns:xlink="http://www.w3.org/1999/xlink"  xmlns="http://www.w3.org/2000/svg" viewBox="0 0 150 150"><g fill="#E6E6E6"><path d="M35.5 49.8zM133.2 90.1c-1.2-.8-1.9-1.8-2.6-2.8-.1-.2-.3-.4-.4-.4-1 .2-1.1-.7-1.4-1.2-.3-.4-.4-1-1-1.1-.3 1.7.2 3.3.3 4.9.1 1.6-.2 1.5-1.7 1.7-1.8.2-2.2-.1-1.5-1.8.1-.3.2-.9-.4-1.1-.5-.2-.9-.1-1.1.4-.3.5-.8.7-1.2.7-.9 0-.9 1.4-2 1l-.1.2c.4 1.2-.6 2.1-.4 3.2.1.9-.4 1.2-1.2 1.1-.5-.1-.8.1-1.2.4-1.2 1.2-1 3.1-2.3 4.2-.1.1 0 .4 0 .6.1 1.3-.4 2.3-1.3 3.1-1.6 1.3-2.8 3-4.2 4.5-.3.4-.4.8 0 1.2.3.4.8 1 .8 1.3-.2.9.4 1.1.9 1.6.8.8 2.2 1.3 1.9 2.9-.1.3.2.4.5.4.9.2 1.6 0 2.1-.8s1.1-1.5 2-1.9c.4-.2.9-.5 1.2-.9 1.3-1.8 3.1-3 4.7-4.5 1-1 2.2-1.4 3.3-.3.7-1.6.9-1.7 2-.3.5.6 1 .4 1.4.2 1.5-1 3.2-2.1 3.6-4 .4-2.3 1.4-4.4 1.9-6.7.3-2.4-.5-4.5-2.6-5.8zM84.4 89.6c.9.2 1.9.5 2.5 1.4 1.1 1.7 2.8 2 4.7 2 .3 0 .7-.1.8-.5.1-.4-.2-.6-.5-.7-.4-.3-1-.3-1.2-.9-.5-1.5-1.7-1.7-3-1.8-.6 0-1.2 0-1.8-.3-1.9-.9-2.4-2.6-2.6-4.5-.1-.5.1-.7.6-.5.2.1.4.2.6.1 1.7-.7 3 1.1 4.6.7.1 0 .3.2.4.4.2.3.2.7.6.6.4-.1.4-.5.5-.8.2-.8.4-1.6 1-2.2 1.4-1.8.3-4.8-2-5.2-1.5-.3-2.7-.9-3.7-2v-.6c.2-1.6 1.3-2.4 2.8-2.2.3.1.6 0 .6-.4 0-.7.5-.9.9-1.4 1.4-1.8 3.4-3.1 4-5.6.5-1.8-.2-3.5 0-5.3.1-.9-.5-1.1-1.3-.8.2-.6.5-1.1-.3-1.5-.8-.4-1.5-.9-2.4-1.3-1.6-.7-1.7-.8-.9-2.5.1-.2.5-.4.3-.8-.7 0-1.4 0-1.7.9-.2.6-.6.8-1.1.2-.2-.3-.4-.1-.7 0-.4-.1-1.1-.4-.8-.6 1-.6.8-1.6 1.3-2.4.1-.2.3-.4.6-.3.2.1.3.3.3.5 0 .3-.1.6.3.7.3 0 .5-.3.6-.5.2-.2.3-.5.4-.7.7-.8 1.2-.7 1.6.2.1.3.2.6.6.5 1.4-.4 1.9.6 2.4 1.6.3.5.5.5 1 .2 1.6-1.2 1.3-3.1-.9-3.8-1.3-.5-2.4-.6-1.5-2.3.1-.2-.1-.5-.2-.8-.2-.8-.1-1.5.8-1.8.7-.3.8-.9.9-1.5 0-1.1.1-2.1-.3-3.1-.3-1.3-.7-2.5-2.1-3.1-.4-.2-.5-.7-.7-1.1.9.8 2.2 1.2 2.9 2.4.3.5 1 .7 1.6.9.3.1.6.2.7-.2.1-.4-.3-.3-.5-.4-.6-.1-1.2-.7-1.1-1 .5-1.3-.6-1-1.1-1.2-.5-.2-1-.3-1.4-.7-.5-.4-1-.6-1.7-.6-.4.1-.9.1-1.3.2-.7.3-1.4.8-2.3.8-.6 0-.5-.3-.4-.6.1-.9 0-1.8-.3-2.7-.2-.6-.1-1.1.2-1.5.6-.8 1.6-1.3 2.3-1.8 1.2-.8 1.3-.6.3-1.7-.3-.3-.9-.9-.3-1.2.6-.3 1.2-1 2-.3.4.3.7.7.9 1.2.9 2.7 3.4 2.8 5.4 3.7.4.2.8-.1.5-.6-1.1-1.6-2.1-3.2-4.2-3.6-.9-.2-1.8-1.3-1.3-1.9.5-.7.2-.9-.3-1.4.2 0 0-.3 0-.6-.1-.8-.6-1-1.3-.9-1.6.1-2.9-1-4.5-.8-1.1.2-2.3 0-2.1 1.7 0 .2-.3.5-.4.7-1.6 1.2-3.4 2-5.1 3-1.1.7-2.7.7-2.9 2.5 0 .4-.5.8-1 1-.2.1-.5.1-.5.4-.2.8-.7.6-1.3.4-1.2-.5-2.4-.2-3.1.9-.3.4-.7.7-1.1.7-.8 0-1.4.4-2 .8-.4.3-.9.6-1.4.6-.2-.5 1-1.5-.3-1.4-1.1.1-2.1.4-3.2.4-.5 0-.8.4-.9.9-.2.5-.5 1-1 1.2-2.2.8-3.6 3-5.7 4-.1 0-.1.1-.2.2-.6 1.3-1.8 1.6-3 1.8-1.5.2-2.7 1.8-2.3 3.3-.4-.1-.7-.3-1.1-.3-.7.1-1.8-.3-1.9.2-.1.8-.7.8-1.1 1.1-.7.3-1.5.1-2.1.5-.6.4-1.2 1.2-2.1.4-.2-.2-.4.2-.6.5-.2.3-.2.8-.7 1.1.4-1.3-.7-2.1-.9-3.1-.2-.9-.7-1.1-1.5-.8-.9.3-1.6.8-2.3 1.4-1.2 1-2.1 2.3-3.2 3.3-1.5.9-2.4 3-1.9 4.7-.2.3-.3.6-.5 1-.5-.6-.6.1-.7.3-.3.5-.5 1.1-.7 1.7-1.2 1.3-2 2.7-2.3 4.4-.4 1.2-.8 2.5-1.2 3.7-.1.5-.2 1-.1 1.4 0 1.3.2 2.6.2 3.9 0 1.2.3 2.3-1 3.1-.4.3-.4.9-.1 1.5 1.7-1.4 1.9-3.1 1.7-4.9-.1-1-.2-1.9.1-2.8 0-.1.1-.3.3-.2.3 2.8-.2 5.7.3 8.7.6-.8.6-1.4.4-2.1-.1-.4-.1-.9.4-1 .6 0 .4.6.5.9.1 1-.3 2.1.3 3.1.6.6 1.4.6 2 .5.8-.1.7.3.7.7-.3.2-1.1.1-1 .7.1.6.6 0 1 .1-.3.8-.5 1.6-.6 2.4 0 .5-.2 1.1-.7 1-.9-.2-2.1.1-2.7-1-.2-.4-.6-.7-.9-1.1-.2-.2-.3-.4-.6-.3-.2.1-.3.3-.3.5 0 .3.1.8-.3.7-.4 0-.4-.5-.4-.8-.1-.8-.1-1.7-.6-2.7.2 2.4-.1 4.6.3 6.7.4 5.2 1.4 10.2 3.4 15 .5 1.9 1.2 3.8 2.1 5.6 2.1 3.9 4.2 7.8 7.2 11.1 1.9 2.7 4.1 5.2 6.5 7.5 3.9 3.7 8.5 6.4 13 9.1.4.3.9.5 1.6.5-.5-.8-1.2-1.1-1.8-1.5-1.7-1.3-2.7-3.3-4.7-4.1-.7-.3-.9-1-.7-1.7.3-1.2-.2-2-1-2.7-.8-.8-1.8-1.5-2.7-2.4-1.3-1.4-2.8-2.8-3.6-4.6-.2-2 .1-3.9.8-5.7 1.1-2.9.2-5.8.3-8.8 0-.3-.2-.6-.4-.9-.2-.3-.5-.4-.7-.1-.7.9-1.9.9-2.8 1.4-.5.3-.9.1-1.3-.2-.9-.7-1.1-1.9-2.1-2.5-1.7-1.5-2.9-3.4-3.6-5.5-.8-2.4-1.8-4.7-2.7-7.1-.1-.3-.5-.7 0-1 .4-.2.6.3.8.6.6.8.4 1.9 1 2.6 1.4 1.8 1.6 4.2 3.2 6 1 1.1 1.4 2.6 1.9 4 .7 1.7 1.3 1.9 2.5.7.2-.2.4-.4.6-.5 1.9-.9 2.6-3 4.1-4.4 1.2-1.1 1.3-2.7 1.7-4.2.3-1 0-1.6-.8-1.9-1.1-.4-2.1-.7-2.4-2.2-.6.6-.7 1.1-.9 1.5-.2.6-.8.7-1.3.8-.4 0-.3-.6-.4-.9-.1-.3-.2-.9-.5-.6-1.1.7-1-.1-1.1-.4-.2-.5-.4-1.1-.9-1.4-.2-.4-.4-.7-.6-1.1-.4-.5-.3-.9.1-1.1.5-.4.8 0 1 .5.6 1.3 2.4 2.5 3.4 2.1.7-.3 1.3-.4 1.8.3.2.3.5.3.8.3 1.1 0 2.2.1 3.2-.4.8-.4 1.9-.8 2.7-.5 1.1.5 2 .6 3.1.2-.8.9.2 1.4.5 2 .3.6 1.1.7 1.6.3 1.1-.7 1.4 0 1.7.8.4 1.2 1 2.2 1.8 3.1.7.8 1.4 1.6 2 2.5 1 1.4 2.3 2.5 3.7 3.5.6.5 1.2.7 1.5-.5.4-1.4.7-2.8.1-4.3-.3-.7-.4-1.4-.8-2.1-.2-.3-.3-.6 0-1 1.6-2.1 2.1-4.8 3.8-6.9-.2-.4-.1-.8.3-1.1.9-.6 1.9-1.1 2.6-1.9.2-.2.5-.3.7-.1.8 1.3 2.3 1.3 3.3 2.1.5.5 1.3.7 1.5 1.6.1.4-.1.9.5 1 .6.1.9-.3 1.2-.7.8-1.2 1.6-1.3 2.6-.1 1.3 1.6 2.4 3.3 2.9 5.3.2.7.5 1 1.3 1.2zM35.5 49.8zM100.2 93.6h.5c.7-.3 1.5-.2 2-1 .3-.5.9-.5 1.5-.4.4.1.8.6 1.1-.1.1-.5.8-.6.6-1.3-.1-.3-.2-.7-.2-1.2 0-1.1-.2-2.2 0-3.3.1-.5.2-.6-.3-1-.8-.6-2-1.2-1-2.6.3-.4.1-1-.7-1.1-.4 0-.8-.1-1.2-.3-.4-.1-.8-.1-.9.3-.4 1.3-1.3 2.5-1.5 3.9-.1.8-.4 1.4-1 1.9-.3.2-.6.5-.7.8-.1.7-.3 1.3-1.1 1.3-.4 0-.4.3-.3.7.1 1 2.3 3.2 3.2 3.4zM117.8 81.5c.4 0 1.3-.7.9.6-.1.2.6.9 1.3.4 1-.7 2.2-.2 3.3-.5.4-.1.9.4.8.8-.2 1.8.3 1.4 1.6.9 1.4-.4 2-1.1 2.3-2.3.2-.9.7-1.2 1.5-.8.8.4 1.5.3 2.2-.2.2-.1.4-.1.5-.4 0-.3-.3-.3-.5-.5-.8-.4-1.8-.7-1.8-1.9 0-.2-.2-.4-.4-.4-2-.3-3.9-.3-6 .3-1.6.4-2.3 1.3-2.8 2.6-.3.8-.8.8-1.3.3-.3-.3-.6-.7-1.2-.6-.4-.1-.8.1-1 .4-.3.3-.9.5-.7 1 .3.7.9.2 1.3.3z"/><path d="M94.7 95.4c-.8-.2-1.9 0-2.2-1.3 0-.3-.4-.4-.7-.4-2.6-.3-5.3-.3-7.8-1.2-.7.2-1.4.3-2.1.4-.2 0-.4.2-.4.4 0 .3.1.5.3.6l.9.3c2.7.3 4.8 1.8 7.1 3 1.5.7 3 1.3 4.6 1.6.9.2 2-.5 2-1.1.2-1.1-.7-2.1-1.7-2.3zM96.9 39.4c-.2 0-1.2-.1-.7.7.7 1.2.9 2.8 2.4 3.6.4.2.8.8 1 1.2.3.7.7 1.5-.4 1.9-.4.2-.5.7-.2.9.7.8.1 1.2-.4 1.6-.4.3-.7.7-.9 1.2-.3.8-.6 1.7-.6 2.6 0 .5.8.2 1.2.5.3.2.8.7 1.2.2.3-.4 0-.9 0-1.3-.1-.4-.3-.6-.7-.8-.2-.1-.2-.4-.1-.5.1-.2.3-.1.4 0 .6.8.7.1.9-.3.2-.3-.1-1 .6-1 .9 0 .8-.7.9-1.2 0-.4-.1-.8.3-1.1 1.2-.8 1.1-1.6.1-2.5-.2-.2-.3-.4-.3-.6-.4-1.3-1.3-2.1-2.6-2.5-.4-.1-.7-.4-.2-.6.7-.4.6-1.1.8-1.7.3-.6-.2-.9-.8-.7-.7.2-1.1.4-1.9.4zM56.8 126.1c-1-.9-1.9-1.9-2.4-3.2-.4-.9-1.2-1.6-2-2.3-.1-.1-.3-.3-.5-.2-.2.1-.1.4-.1.5.2.7.2 1.4-.2 2-.6.8-.3 1.4.3 1.9.7.6 1.2 1.4 1.7 2.2.9 1.6 2.5 2.2 4 2.5 1 0 1.3-.5.9-1.3-.4-.7-1-1.5-1.7-2.1zM107.1 85.4c.2 1.5-.7 3.3 1.3 4.3.3.1.2.5.3.8 0 .3 0 .7.4.7.3 0 .5-.2.7-.4.3-.3 0-.6-.1-.9-.3-.5-.9-1-.6-2 .7.9 1.4 1.3 2.3 1.5.8.2.7-.1.6-.7-.2-.8-.9-1-1.5-1.3-.8-.5-.9-.9 0-1.4.3-.1.6-.2.4-.6-.2-.3-.5-.3-.8-.2-.4.2-.8.5-1.2.9-.3.3-.6.3-.8 0-.3-.3-.2-.7.1-.9.6-.4 1.3-.9 2-1.2.6-.3.8-.8.9-1.5 0-.2 0-.5-.2-.5-.3-.1-.5.1-.5.4-.3 1.1-1 1.5-2 1.5-.9.2-1.4.9-1.3 1.5zM87.5 19.3h.1c1.2-.7 2.5 0 3.7.1.6 0 1.4.3 1.5-.3.1-.6-.8-.6-1.4-.7-3.5-.5-6.9-.6-10.4-.5-.2 0-.4 0-.5.3.2.1.3.2.5.2 2.1.9 4.5-.2 6.5.9zM101.1 70.6c0-.5-.2-.9-.4-1.3s-.3-.9-1-.5c-.5.3-.9.5-.5 1.2.2.4.4.8.2 1.3-.2.8.3 1.1.9 1.4l1.5.6c.9-.7 1.9-.4 2.9-.5-.1-.8.1-1.8-1.4-.9-1 .7-2.1 0-2.2-1.3zM105.9 78.9l.3-.3c.4-.6.7-2.1 1.6-.4.2.3.6.3.9.2.3-.2.5-.4.4-.8-.1-.3-.3-.6 0-.9.5-.6.2-1.1-.2-1.5-.4-.5-.8-.9-1.4-1.5-.1 1.2-.1 2.1-1.2 2.7-.7.4-1.1 1.5-.4 2.5zM66.6 95.8c-.6-.3-.9-.1-.9.6.2.9.5 1.8 1.2 2.5.3.4.7.7 1.3.3.5-.3.7-.8.5-1.4-.5-.8-1.2-1.5-2.1-2zM43.4 44.4c.4-.1.5-.5.7-.8.8-1.8 2.1-3.2 3.9-4 .3-.2.8-.2.9-.8-2.9.6-4.8 2.5-6.2 4.9-.1.2-.1.4.1.6.1.1.4.1.6.1zM114.8 91c-.3.9-.8 1.7-.6 2.8.8-1.3 1.6-2.6 2.6-4.1-1 .3-1 .3-1.8.8-1.1.1-1.9.8-2.6 1.4-1.6 1.4-3.8 2-5.5 3.5-.5-.5-1.1.1-1.6-.1-.9-.3-3.3.2-3.7.9-.5.8-1.2 1-2 1.1-1.1.2-2.3.3-2.7 1.8 2.5.2 4.6-1.2 6.8-1.9 1.1-.4 2.3-.9 3.3-1.6.7.3 1.3 0 1.9-.4 2.1-1.1 3.7-3.1 5.9-4.2zM42.1 37c-2.7-.3-2.3-.3-3.3 2.1 1.5-.3 1.5-.3 3.3-2.1zM97.1 64.2c-.1-.3-.2-.6-.6-.5-.3 0-.4.3-.5.6-.3 1 .4 1.8 1.6 2.2.2-.8-.3-1.5-.5-2.3zM113.4 82.6c.1.2.4.2.6.2.2-.1.3-.2.2-.4-.5-.5-.2-1-.2-1.5-.1-.2 0-.5-.2-.7-.2-.3-.3-.8-.7-.7-.4.1-.5.6-.4.9.2.8.5 1.5.7 2.2zM104.7 72.8v-.1.1z"/><path d="M106 75c0 .1.2.2.3.3.1 0 .3-.1.3-.2.2-.8.1-1.7-.3-2.4-.4-.6-1.1-.3-1.6.1-.1.2-.1.4-.2.5 1.2 0 1.4.8 1.5 1.7zM131 108c0 .3-.2.7.2.8.4.1.7-.1.8-.4.3-.7.7-1.4.6-2.3-.7.6-1.5.9-1.6 1.9z"/><path d="M104.6 74.2c-.4-.3-.8-.2-.9.2-.2.4.1.7.4.9.2.1.6 0 .7.3.1.3.1.8.5.6.5-.2.1-.6.2-1.2.7-.8-.4-.5-.9-.8zM131.5 75.9c.3-.6.4-1.3 0-2-.1-.1-.3-.2-.4-.2-.2 0-.3.2-.3.3.4 1-.4 1.6-.9 2.4.9.5 1.4.1 1.6-.5zM115.6 85.1c.5-.2.6-.9 1.2-1 .3 0 .7 0 .8-.4 0-.1-.1-.3-.2-.4-.3-.2-.7-.2-1 .1-.3.3-.6.5-.9.8-.2.2-.2.4-.1.7l.2.2zM71.4 28.4c1 .1 1.6-.4 2.1-1.3-1.1-.2-1.7.5-2.4.8-.3.2 0 .5.3.5zM94.7 94.8c0 .3.3.3.5.3.5.1 1 .4 1.7 0-.5-.5-1.1-.6-1.6-.8-.3 0-.6.2-.6.5zM121 83.5c-.4.6 0 1 .3 1.5.2-.5.7-1 .1-1.5-.1 0-.4-.1-.4 0zM102.2 75.9c0-.2-.1-.5-.4-.5-.3 0-.3.3-.2.6.1.5.1.9.2 1.6.4-.6.5-1.1.4-1.7zM102.2 74.4c.2.1.4.1.5-.1.2-.5-.2-.8-.6-1-.1 0-.1 0-.2-.1-.6.6-.1.9.3 1.2zM110.8 95.2c.6.2 1 .2 1.3-.1v-.3c-.5-.3-.8-.1-1.3.4zM113.6 85.7c0 .3.2.3.5.3.2-.1.5-.2.5-.5 0-.2-.2-.4-.4-.3-.3 0-.6.1-.6.5zM134.6 74.2c-.4-.3-.7-.6-1.2-.4 0 0 0 .2.1.3.3.6.7.5 1.1.1z"/></g><linearGradient id="a" gradientUnits="userSpaceOnUse" x1="59.104" y1="115.286" x2="44.104" y2="35.786"><stop offset="0" stop-color="#8bc53f"/><stop offset="1" stop-color="#527d24"/></linearGradient><path fill="url(#a)" d="M52.4 8S19.9 35.5 37.9 66.7c0 0 34.1 46.4 29.2 77.9 0 0 11.4-12.7 3-46.6 0 0-5.6-14.1-16.8-36.1 0 0-13.8-25-.9-53.9z"/><linearGradient id="b" gradientUnits="userSpaceOnUse" x1="67.65" y1="57.179" x2="73.15" y2="109.679"><stop offset="0" stop-color="#8bc53f"/><stop offset="1" stop-color="#527d24"/></linearGradient><path fill="url(#b)" d="M52.8 12.8s-13.6 25.4 7.7 58.6c0 0 26.6 41.2 8.7 73.2 0 0 21.5-24.3 19.3-50.4 0 0-3-16.6-19.9-40.4 0 0-20.2-24.8-15.8-41z"/><linearGradient id="c" gradientUnits="userSpaceOnUse" x1="104.682" y1="91.611" x2="98.182" y2="28.111"><stop offset="0" stop-color="#00adee"/><stop offset="1" stop-color="#2e3191"/></linearGradient><path fill="url(#c)" d="M117.2 18.2S81.5 27 92.1 68.3c0 0 7.7 33.4-4.6 51.1 0 0 19.7-18.6 15.8-38.8 0 0-7-49.5 13.9-62.4z"/><linearGradient id="d" gradientUnits="userSpaceOnUse" x1="90.906" y1="71.553" x2="119.28" y2="71.553"><stop offset="0" stop-color="#00adee"/><stop offset="1" stop-color="#2e3191"/></linearGradient><path fill="url(#d)" d="M114.8 23.7s-13.9 15.3-9.5 47.9c0 0 6.7 27.3-14.4 47.8 0 0 33.1-15.7 27.8-47.8 0 0-7.4-32.3-3.9-47.9z"/><linearGradient id="e" gradientUnits="userSpaceOnUse" x1="97.655" y1="43.478" x2="62.655" y2="19.978"><stop offset="0" stop-color="#8bc53f"/><stop offset="1" stop-color="#527d24"/></linearGradient><circle fill="url(#e)" cx="76.1" cy="29" r="11.6"/></svg>