<svg xmlns:xlink="http://www.w3.org/1999/xlink"  xmlns="http://www.w3.org/2000/svg" viewBox="0 0 1000 1000"><path fill="none" d="M470.3 304.1c2.5-3.8 7.6-13.3 7.6-26.1 0-9.7-3.5-21.2-13.4-33-4.6 4.2-9.6 10.2-11.2 18-.3 1.6-.5 3.3-.5 5.1 0 10.1 5.6 21.8 16.6 34.6.4.4.6 1 .9 1.4zM559.2 225c4.4-3.7 16.8-15.8 16.8-35.9 0-6.7-1.5-14.2-5.1-22.4-5.7 2.6-12.3 7-16 14.1-2.1 4.1-3.2 8.8-3.2 14.2 0 8.1 2.4 17.6 7.3 28.5.1.4 0 1 .2 1.5zM379.7 248.7c2.4-3.8 7.3-13.1 7.3-25.6 0-9.9-3.6-21.5-13.9-33.4-4.6 4.2-9.5 10.4-10.9 18.1-.3 1.5-.4 3.1-.4 4.7 0 10.2 5.7 21.9 17.1 34.8.4.4.5.9.8 1.4z"/><path fill="none" d="M510.9 81.7c-199.2 0-361.3 162.1-361.3 361.3 0 80.6 27.3 159.3 76.8 222.6 18.3-5.6 38.4-9.2 60.7-10.2 28.5-1.3 55 0 80.9 2.5 2.1-3.6 5.5-6.5 9.9-7.6 34.5-8.6 95.6-15.1 129.3-18.2-.3-1.1-.7-2.1-1.1-3.2-28.7-77-162.8-112.2-164.1-112.5-8.5-2.2-13.6-10.8-11.4-19.2 2.2-8.5 10.8-13.6 19.2-11.4 6.2 1.6 151.4 39.5 185.9 132.1 1.8 4.8 3.2 9.6 4.3 14.4 4.3 2.5 7.4 7.1 7.8 12.4.4 4.9-1.5 9.3-4.8 12.5.2 16.8-3.4 34.1-10.5 51.8-3.7 11.5-10.9 29.3-22.5 40.9-.1.2-.2.3-.3.5-1.9 2.7-4.5 4.7-7.4 5.8-2 1.2-4 2.4-6.1 3.2 41.5 1.3 87.2-1.6 131.9-13.2-13-26.4-33.6-80.6-20.2-139.7 11.3-49.9 44.2-91.8 97.7-124.6 7.4-4.6 17.2-2.2 21.8 5.3 4.6 7.5 2.2 17.2-5.2 21.8-45.9 28-73.9 63.1-83.3 104.3-.7 2.9-1.2 5.8-1.7 8.7 24.1-.3 100.9 2.9 152.6 50.4C842.9 607.9 872 527 872 443c.2-199.3-161.9-361.3-361.1-361.3zm229.8 237.9c-10.7 79.5-72.7 97.2-104 95.5-8.7-.5-15.3-7.9-14.9-16.6.4-8.7 7.8-15.4 16.5-15 5.9.3 54.6 0 68.3-56.6-8.9-3-22.2-5.6-34.8-.4-15.3 6.2-26.8 22.7-34.3 49.1-2.4 8.4-11.1 13.3-19.5 10.9-8.4-2.4-13.3-11.1-10.9-19.5 10.3-36.3 28.2-59.8 53.1-69.9 35.8-14.4 71.3 5.9 72.7 6.8 5.6 3.1 8.7 9.3 7.8 15.7zm-110.6-113c26-17.6 57.7-7.6 59-7.1 6.1 2 10.4 7.4 10.9 13.8 5 64.2-40.9 88.6-65.9 92.6-8.6 1.3-16.6-4.5-18-13.1-.2-.9-.2-1.7-.2-2.6 0-1 .3-2 .5-3-.6 0-1.2.1-1.7.1-8.7-.6-15.3-8.1-14.8-16.8 1.9-30.1 12.1-51.6 30.2-63.9zm-103.1-41c14.9-27.7 47.6-33.5 49-33.7 6.3-1.1 12.6 1.8 16 7.2 34.2 54.5 4.9 97.5-15.4 112.6-7 5.2-16.8 3.7-22-3.2-1.3-1.7-1.4-3.8-1.9-5.8-.7.5-1.1 1.3-1.9 1.6-8 3.6-17.3-.1-20.9-8-12.3-27.7-13.2-51.5-2.9-70.7zm-104.6 90.9c6.3-30.8 36-45.7 37.2-46.3 5.7-2.8 12.6-1.9 17.4 2.3 48.5 42.4 32.7 91.9 17.6 112.2-5.2 7-15 8.4-22 3.3-1.6-1.2-2.7-2.8-3.7-4.4-.4.5-.6 1.1-1.1 1.5-6.6 5.7-16.6 4.9-22.3-1.7-19.7-23-27.5-45.5-23.1-66.9zm-91.2-54.8c5.9-30.9 35.3-46.2 36.6-46.8 5.7-2.9 12.6-2.1 17.4 2 49 41.7 33.9 91.5 19.1 112-5.1 7-14.9 8.6-22 3.6-1.6-1.2-2.7-2.8-3.8-4.4-.4.5-.6 1.1-1.1 1.5-6.6 5.8-16.6 5.2-22.3-1.4-19.9-22.7-28-45-23.9-66.5zM291 253.4c3.5-5.4 9.8-8.1 16.1-7 63.4 11.3 75.4 61.9 72.9 87.1-.9 8.6-8.5 14.9-17.2 14.1-1.9-.2-3.7-.8-5.4-1.5-.1.5-.1 1-.2 1.5-2.8 8.3-11.7 12.8-20 10-28.7-9.5-46.9-24.8-54.2-45.4-10.5-29.6 7.3-57.7 8-58.8zm24 240c-5.4 6.8-15.3 8-22.2 2.6-4.7-3.6-44.5-31.8-88.6 6.4 5.6 7.6 14.9 17.5 28.2 20.6 16.1 3.8 35-3 56.4-20.1 6.8-5.5 16.8-4.4 22.2 2.5 5.5 6.8 4.4 16.8-2.5 22.3-29.5 23.6-57.7 32.4-83.8 26.1-37.5-9-54.6-46.2-55.3-47.8-2.6-5.8-1.5-12.7 2.9-17.3 54.9-58.5 115.7-37 140.1-17.4 6.9 5.4 8 15.3 2.6 22.1zm55.5-38.1c-32.2 9.7-100 10.2-126.1-56.9-3-7.7.5-16.5 7.9-20 35.5-16.9 102.6-32.1 130.7 17.2-4.2-19-3.4-42.3 8-68.6 2.8-6.3 9.3-10.1 16.1-9.4 1.7.2 41.8 4.5 61.4 35.2 12.4 19.4 13.6 43.9 3.4 72.8-2.9 8.2-11.9 12.6-20.2 9.7-6.5-2.3-10.6-8.4-10.6-14.9 0-1.7.3-3.5.9-5.2 3.3-9.5 5-18 5-25.5 0-7.6-1.7-14.2-5.2-19.7-6.3-9.9-17.3-15.2-25.8-18-2.3 8-3.8 15.5-3.8 22.2 0 29.1 18.2 45.1 19.3 46 3.7 3.1 5.6 7.6 5.6 12.2 0 3.6-1.2 7.1-3.6 10.1-5.6 6.7-15.4 7.7-22.1 2.2-8.7-7.1-19.4-20.7-25.7-39.2-.3 5.4-3.2 10.5-8.3 13.2-7.7 4.1-17.3 1.3-21.4-6.4-14.3-26.6-53-18.3-74.7-11 25.4 38.3 74.1 25.7 80.2 23.9 8.4-2.5 17.2 2.3 19.6 10.7 2.4 8.1-2.3 16.9-10.6 19.4zM536.3 559c-6.1 4-14.1 3.4-19.5-1.5-43.6-39.9-109-68.3-109.6-68.6-8-3.5-11.7-12.8-8.3-20.8 3.4-8 12.8-11.7 20.8-8.3 2.1.9 38.2 16.7 76 41.8-7.5-23.9-13.8-47.1-13.8-58.8 0-1.1.1-2.1.2-3 1.2-8.5 9-14.5 17.5-13.5 8.6 1 14.7 8.8 13.9 17.3-.3 9.6 14.8 57.7 28.9 96.8 2.5 6.9 0 14.5-6.1 18.6zm159.1-102.1c-1.2 8.7-9.2 14.7-17.8 13.5-20.8-2.8-67 38.9-91.6 68-3.7 4.4-9.6 6.4-15.3 5.3-5.7-1.2-10.3-5.4-11.9-10.9l-30.3-100c-2.5-8.1 1.9-16.6 9.8-19.4-3.1-1.4-5.8-3.8-7.5-7.1-1.2-2.3-1.7-4.7-1.7-7.1 0-5.8 3.1-11.3 8.6-14.1 4.4-2.3 35.5-19.7 35.5-58.6 0-7.3-1.6-15.6-4.2-24.5-9.2 1.9-22.1 6.2-30.5 17-6.2 7.9-9.3 18.4-9.3 31.4 0 8.4 1.3 17.8 3.9 28.2.3 1.3.5 2.6.5 3.8 0 7.1-4.8 13.6-12 15.3-8.5 2.1-17.1-3.1-19.2-11.6-9.1-36.7-5.2-65.9 11.4-87 23.9-30.3 64.8-30.2 66.5-30.2 6.4.1 12.1 4 14.5 9.9 30.2 74.3-14.9 120.5-42.9 134.5-.5.3-1.1.4-1.7.6 4 1.8 7.2 5.2 8.5 9.7 0 0 13.6 44.8 22.3 73.4 25-25.6 67.4-62.5 100.9-58 8.6 1.2 14.7 9.2 13.5 17.9zm15.7 8.2c-8-3.4-11.6-12.7-8.2-20.7 3.4-8 12.7-11.7 20.7-8.4 5.5 2.3 51.5 19.5 84-29.3-7.3-5.9-19.1-13.1-32.8-12.6-16.5.6-33 12.1-49.1 34.2-5.2 7.1-15.1 8.6-22.1 3.5-7.1-5.2-8.6-15-3.5-22.1 22.2-30.5 47.1-46.4 74-47.2 38.5-1.1 64.8 30.2 65.9 31.5 4.1 4.9 4.8 11.8 1.8 17.5-37.6 70.9-101.9 66.1-130.7 53.6z"/><path fill="none" d="M452.9 669.8c.2 0 .5.1.7.1l55.5 8.3c1.1-5 1.7-9.8 2-14.6-15.2 1.4-36.5 3.5-58.2 6.2zM668.1 228c-6.2-.3-14 .5-20.4 5-9.5 6.5-14.9 19.8-16.2 39.6 0 .6-.3 1-.4 1.6 7.9-1.9 34.4-11 37-46.2zM635.7 653.6c1.8 36.8 15.7 68.2 23.4 83 32.9-11.9 64.5-29.1 92.5-53.8-44.1-28.3-101.1-29.4-115.9-29.2zM347.2 327.6c.6.2.9.8 1.4 1v-1.1c0-9.4-3.2-35.9-35.3-46.8-1.1 3.5-2 7.4-2 11.7 0 3.1.4 6.3 1.6 9.5 3.9 10.8 15.5 19.4 34.3 25.7z"/><path fill="#7C5F47" d="M513.5 443.6c.8-8.6-5.3-16.3-13.9-17.3-8.6-1-16.3 5-17.5 13.5-.1.9-.2 1.9-.2 3 0 11.6 6.3 34.9 13.8 58.8-37.8-25.1-73.9-40.9-76-41.8-8-3.5-17.3.2-20.8 8.3-3.5 8 .2 17.3 8.3 20.8.7.3 66.1 28.7 109.6 68.6 5.4 4.9 13.4 5.5 19.5 1.5s8.6-11.7 6.1-18.5c-14.1-39.1-29.2-87.3-28.9-96.9zM681.8 439.1c-33.5-4.6-75.8 32.4-100.9 58-8.7-28.6-22.3-73.4-22.3-73.4-1.4-4.5-4.6-7.9-8.5-9.7-4 1.5-8.3 1.2-12-.5-7.9 2.8-12.2 11.3-9.8 19.4l30.3 100c1.7 5.5 6.3 9.7 11.9 10.9 5.7 1.2 11.5-.8 15.3-5.3 24.7-29.1 70.8-70.8 91.6-68 8.7 1.2 16.6-4.9 17.8-13.5 1.4-8.8-4.7-16.8-13.4-17.9z"/><path fill="#698948" d="M312.5 471.3c-24.5-19.6-85.3-41.2-140.1 17.4-4.4 4.7-5.5 11.5-2.9 17.3.7 1.6 17.8 38.7 55.3 47.8 26.1 6.3 54.3-2.5 83.8-26.1 6.8-5.5 7.9-15.4 2.5-22.3-5.5-6.8-15.4-7.9-22.2-2.5-21.4 17.1-40.3 23.8-56.4 20.1-13.2-3.1-22.6-13-28.2-20.6 44.1-38.2 83.9-10 88.6-6.4 6.9 5.4 16.8 4.2 22.2-2.6 5.3-6.8 4.2-16.7-2.6-22.1zM337.2 357.6c8.3 2.8 17.2-1.7 20-10 .2-.5.1-1 .2-1.5 1.7.8 3.4 1.4 5.4 1.5 8.7.8 16.3-5.5 17.2-14.1 2.5-25.2-9.5-75.8-72.9-87.1-6.3-1.1-12.6 1.6-16.1 7-.8 1.2-18.5 29.2-8 58.9 7.3 20.5 25.5 35.8 54.2 45.3zm-23.8-76.9c32.1 11 35.3 37.5 35.3 46.8v1.1c-.6-.3-.8-.9-1.4-1-18.8-6.3-30.4-14.9-34.3-25.7-1.1-3.1-1.6-6.4-1.6-9.5-.1-4.3.9-8.2 2-11.7z"/><path fill="#97A822" d="M149.6 443c0-199.2 162.1-361.3 361.3-361.3 199.2 0 361.3 162.1 361.3 361.3 0 84-29.1 164.9-82.2 229.4 7.6 7 14.7 15.1 21 24.2 59.9-70.9 92.9-160.5 92.9-253.6 0-216.7-176.3-392.9-393-392.9-216.7-.1-393 176.2-393 392.9 0 84.5 27.5 167.1 77.7 234.6 9.6-4.6 19.8-8.7 30.8-12-49.5-63.3-76.8-142-76.8-222.6z"/><path fill="#698948" d="M467.8 325c.5-.4.7-1 1.1-1.5 1 1.6 2.1 3.2 3.7 4.4 7 5.1 16.8 3.7 22-3.3 15.1-20.3 30.9-69.8-17.6-112.2-4.8-4.2-11.7-5.1-17.4-2.3-1.3.6-30.9 15.5-37.2 46.3-4.4 21.4 3.4 43.9 23.1 66.8 5.6 6.8 15.6 7.5 22.3 1.8zm-14.5-62c1.5-7.7 6.5-13.8 11.2-18 9.9 11.8 13.4 23.2 13.4 33 0 12.8-5.2 22.2-7.6 26.1-.3-.5-.4-1-.8-1.4-11-12.9-16.6-24.5-16.6-34.6 0-1.7.1-3.4.4-5.1zM614.6 287.4c.6 0 1.2-.1 1.7-.1-.2 1-.5 1.9-.5 3 0 .9.1 1.7.2 2.6 1.4 8.6 9.4 14.4 18 13.1 25-4 70.9-28.4 65.9-92.6-.5-6.4-4.8-11.8-10.9-13.8-1.3-.4-33-10.5-59 7.1-18.1 12.2-28.3 33.7-30.2 63.9-.5 8.7 6.1 16.2 14.8 16.8zm16.9-14.8c1.3-19.8 6.7-33.1 16.2-39.6 6.5-4.5 14.2-5.3 20.4-5-2.7 35.2-29.1 44.4-37.1 46.2.1-.5.4-1 .5-1.6zM550.8 244.3c.8-.3 1.2-1.1 1.9-1.6.5 2 .6 4 1.9 5.8 5.2 6.9 15 8.4 22 3.2 20.3-15.1 49.6-58 15.4-112.6-3.4-5.4-9.7-8.3-16-7.2-1.4.2-34.1 6-49 33.7-10.3 19.2-9.4 43 2.9 70.7 3.5 7.9 12.9 11.6 20.9 8zm4-63.5c3.7-7 10.3-11.4 16-14.1 3.6 8.2 5.1 15.8 5.1 22.4 0 20.1-12.4 32.2-16.8 35.9-.2-.5-.1-1-.3-1.6-4.8-10.9-7.3-20.4-7.3-28.5.1-5.3 1.1-10.1 3.3-14.1zM377.5 269.6c.5-.4.7-1 1.1-1.5 1 1.6 2.1 3.2 3.8 4.4 7.1 5 16.9 3.5 22-3.6 14.8-20.5 29.9-70.3-19.1-112-4.9-4.1-11.7-5-17.4-2-1.3.6-30.7 15.9-36.6 46.8-4.1 21.5 4 43.8 24 66.5 5.6 6.6 15.6 7.2 22.2 1.4zm-15.3-61.8c1.4-7.7 6.3-13.9 10.9-18.1 10.3 11.9 13.9 23.5 13.9 33.4 0 12.5-4.9 21.8-7.3 25.6-.3-.4-.5-.9-.8-1.4-11.4-12.9-17.1-24.5-17.1-34.8 0-1.6.2-3.2.4-4.7zM550.2 413.9c.6-.2 1.1-.4 1.7-.6 28-14 73.1-60.2 42.9-134.5-2.4-5.9-8.1-9.8-14.5-9.9-1.7 0-42.6 0-66.5 30.2-16.7 21.1-20.5 50.3-11.4 87 2.1 8.5 10.7 13.7 19.2 11.6 7.2-1.8 12-8.2 12-15.3 0-1.3-.1-2.5-.5-3.8-2.6-10.4-3.9-19.8-3.9-28.2 0-13 3.1-23.5 9.3-31.4 8.4-10.7 21.3-15.1 30.5-17 2.6 8.8 4.2 17.2 4.2 24.5 0 38.9-31.1 56.4-35.5 58.6-5.5 2.8-8.6 8.4-8.6 14.1 0 2.4.5 4.8 1.7 7.1 1.7 3.3 4.4 5.7 7.5 7.1 3.6 1.7 7.8 1.9 11.9.5z"/><path fill="#698948" d="M660.3 297c-24.9 10-42.8 33.5-53.1 69.9-2.4 8.4 2.5 17.2 10.9 19.5 8.4 2.4 17.2-2.5 19.5-10.9 7.5-26.3 19-42.8 34.3-49.1 12.6-5.2 25.8-2.6 34.8.4-13.8 56.6-62.4 56.9-68.3 56.6-8.7-.4-16.1 6.3-16.5 15-.4 8.7 6.2 16.1 14.9 16.6 31.3 1.7 93.3-16 104-95.5.9-6.3-2.2-12.6-7.7-15.8-1.6-.8-37.1-21.1-72.8-6.7zM840 394c-1.1-1.3-27.4-32.7-65.9-31.5-26.8.8-51.7 16.7-74 47.2-5.2 7.1-3.6 17 3.5 22.1 7.1 5.2 17 3.6 22.1-3.5 16.1-22.1 32.6-33.6 49.1-34.2 13.8-.5 25.5 6.7 32.8 12.6-32.5 48.7-78.6 31.5-84 29.3-8-3.4-17.3.4-20.7 8.4-3.4 8 .2 17.3 8.2 20.7 28.8 12.5 93.1 17.3 130.6-53.6 3-5.6 2.3-12.5-1.7-17.5zM361.4 424.9c-6 1.8-54.8 14.4-80.2-23.9 21.7-7.3 60.4-15.6 74.7 11 4.1 7.7 13.7 10.6 21.4 6.4 5.1-2.7 8-7.8 8.3-13.2 6.2 18.6 17 32.1 25.7 39.2 6.7 5.5 16.6 4.5 22.1-2.2 2.5-2.9 3.6-6.5 3.6-10.1 0-4.5-1.9-9-5.6-12.2-1-.9-19.3-16.8-19.3-46 0-6.6 1.5-14.2 3.8-22.2 8.6 2.8 19.6 8 25.8 18 3.4 5.5 5.2 12.1 5.2 19.7 0 7.5-1.7 16-5 25.5-.6 1.7-.9 3.5-.9 5.2 0 6.5 4.1 12.7 10.6 14.9 8.3 2.9 17.3-1.5 20.2-9.7 10.1-28.9 9-53.4-3.4-72.8-19.6-30.7-59.7-35-61.4-35.2-6.8-.7-13.3 3.1-16.1 9.4-11.5 26.3-12.3 49.5-8 68.6-28-49.2-95.1-34.1-130.7-17.2-7.5 3.6-11 12.3-7.9 20 26.1 67.1 93.9 66.6 126.1 56.9 8.3-2.5 13.1-11.3 10.6-19.7-2.4-8-11.2-12.8-19.6-10.4z"/><path fill="#7C5F47" d="M948.8 820.9c-.9-.3-86-31-129.8-111.3-2.5-4.6-5.2-8.8-8.1-13-6.3-9.1-13.3-17.2-21-24.2-51.7-47.6-128.5-50.7-152.6-50.4.5-2.9 1-5.8 1.7-8.7 9.4-41.2 37.5-76.3 83.3-104.3 7.5-4.6 9.8-14.3 5.2-21.8-4.6-7.5-14.3-9.8-21.8-5.3-53.5 32.7-86.4 74.6-97.7 124.6-13.4 59.1 7.2 113.3 20.2 139.7-44.7 11.6-90.4 14.5-131.9 13.2 2.2-.8 4.2-2 6.1-3.2 2.9-1.1 5.5-3 7.4-5.8.1-.2.2-.3.3-.5 11.6-11.7 18.8-29.5 22.5-40.9 7.1-17.7 10.6-35 10.5-51.8 3.2-3.2 5.1-7.6 4.8-12.5-.4-5.4-3.5-9.9-7.8-12.4-1.1-4.8-2.5-9.7-4.3-14.4-34.5-92.6-179.8-130.6-186-132.1-8.5-2.2-17.1 2.9-19.2 11.4-2.2 8.5 3 17.1 11.4 19.2 1.3.3 135.4 35.5 164.1 112.5.4 1.1.7 2.1 1.1 3.2-33.7 3.1-94.8 9.6-129.3 18.2-4.4 1.1-7.8 3.9-9.9 7.6-25.9-2.6-52.4-3.8-80.9-2.5-22.3 1-42.4 4.7-60.7 10.2-10.9 3.3-21.2 7.4-30.8 12C90 728 62.3 846.3 62 847.8c-1.9 8.5 3.5 17 12 18.9 8.5 1.9 17-3.5 18.9-12 1.5-6.5 38-160.5 195.7-167.7 56.9-2.6 107 5.6 159.9 14.2 0 0 29.5 4.4 49.6 7.4-3.4 6.9-7.5 13.8-12.3 20.9-.3.1-.6.3-.8.4-23-.6-143.7 4.5-148.9 4.8-7.7.3-14 6.1-15 13.7s3.5 14.8 10.8 17.2c10.9 3.5 257.6 80.4 423.2-45.1-.8 18-5.7 42.4-23.3 67.2-36.8 51.9-116 84.8-229.1 95-88.4 8-162.3 2-221.8-2.8-74.3-6-123.4-10-144.3 21.4-4.8 7.3-2.9 17.1 4.4 21.9 7.3 4.8 17.1 2.9 21.9-4.4 10.5-15.9 56.8-12.1 115.3-7.4 60.6 4.9 136.1 11 227.2 2.7 76.5-6.9 137.9-23.4 183.9-49.2.8 1 1.6 2 2.7 2.9l63.3 51.4c6.8 5.5 16.7 4.5 22.3-2.3 5.5-6.8 4.5-16.7-2.3-22.3L717 847.2c16.4-12.4 30.2-26.4 41.1-42 22.6-32.3 28.4-64.6 28.9-87.6 1.5 2.3 2.9 4.6 4.2 7.1 49.8 91.4 143.2 124.7 147.2 126.1 8.2 2.9 17.2-1.5 20.1-9.7 2.9-8.3-1.4-17.3-9.7-20.2zm-495.2-151c-.2 0-.5-.1-.7-.1 21.7-2.7 43-4.8 58.2-6.2-.3 4.8-1 9.7-2 14.6l-55.5-8.3zm182.1-16.3c14.8-.2 71.8.9 115.9 29.3-28.1 24.6-59.6 41.9-92.5 53.8-7.8-14.8-21.6-46.2-23.4-83.1z"/></svg>