<svg xmlns:xlink="http://www.w3.org/1999/xlink"  xmlns="http://www.w3.org/2000/svg" viewBox="0 0 1000 1000"><path fill="none" d="M283.1 342.2c-1 .9-1.8 2.1-2.3 3.5.8-1.1 1.5-2.3 2.3-3.5zM321.7 293.3c-1.9-.9-4.2 5.6-8.1 7.4.1.3.2.7.2 1.2 2.6-3 5.2-5.8 7.9-8.6zM410.5 222.9c-3.4 2.7-6.2 6.5-9.1 9.3 2.9-1.6 5.8-3 8.7-4.5 0-1.5-.2-3.1.4-4.8zM231.1 518.1c0-1.8.1-3.7.1-5.5-.6 1.5-1 3.2-.7 5.1.2.2.4.3.6.4zM231.6 501.1l-.1.1c0 .1.1.1.1.1-.1-.1-.1-.2 0-.2zM230.5 520.5c.2.1.4.3.6.4v-.6c-.2 0-.4.1-.6.2zM579.1 193.1c-.3-1.1-.3-2.1.1-2.9-6.9-1.1-11 1.1-16 2.2 5.4.2 10.7.4 15.9.7zM519.8 194.6c-.6-5.2-14.4-3.4-2.6-11.7-13.9-1.3-9.4 10.3-15.8 14.4 6.1-1.1 12.3-2 18.4-2.7zM447.6 211.4l-.7-7.3c-9.2 3.8-6.8 6.6-6.4 10 2.3-.9 4.7-1.8 7.1-2.7zM499.7 197.6c2-1.8-.6-2.8-1.9-3.9-2 2.1-4.5 3.9-7 5.5 2.9-.6 5.9-1.1 8.9-1.6zM271.6 349.9l1.6 6.5c-17.8 6.6-8.3 23.9-17.9 36.8h.9c5.8-14 12.6-27.4 20.3-40.3-2.2-.7-4.4-1.2-4.9-3z"/><path fill="#FFB602" d="M883.1 480.6c2.4.6 4.7 1.3 6.5 1-2.4-.8-5.9-5.2-6.5-1zM877.2 449.6l1.2 3.2c.6-1.7-.2-2.5-1.2-3.2zM880 393.5l-2.1-1.6c.7.9 1.3 1.6 2.1 1.6zM877.8 391.8c-3.2-5-.5-17.5-6.8-28.2-6.5-11.3-16.4-2.6-24-7.5 6.4 4.7 11.4 10.4 17.2 15.8-3.3-.7-5.2 1.1-8.2-3 3.2 9.2 8.5 8.1 11.2 15.7-5.9 5.2-6.6-12.5-10.8-5.6 2.6 5 6.7 12.1 13.9 14.2l-1.7 10.2 6.7-5.8c.9-4.4-8.6-4.5-4-8.8 2.9-2.4 4.8.9 6.5 3zM853.2 351l1.2-.2 2.1-2.8zM834.2 330.5c-7-15 3.8-1.7 5.7-10.9 2.5 4 1.5 4.8 4.4 10.7 1.5-13.3-13.1-19-18.4-22.9.5 2-1 3.7 1.6 6.2l-5.9-3.8c-.6 9.2 1.7 14.5 11.1 26.2l10.3 6.9c0 1.4-1.1 2.9-2 4.4 1.4-1.4 5.7-.4 6.9-1.6 3.6-8.4-9.2-11-13.7-15.2zM843.3 353.2c-2.7-3.3-3-4.9-2.3-5.8-1.1 2-1.7 3.9 2.3 5.8z"/><path fill="#FFB602" d="M823.7 304.8c.1.9.9 1.7 2.3 2.7-.3-.9-.9-1.8-2.3-2.7zM815.6 313.3c1 .6 3.7 3.4 5 2.2l-4.2-6.8-.8 4.6zM591 171.1c-.3.8-.1 1.5.4 2.1 1.6-.9 2.9-1.6 3.7-2.2-1.2.2-2.4.5-4.1.1zM557.4 174.8l-.2-.7c-1.3.4-.8.6.2.7zM623.3 197.7l-1.4-.7-1.9-.4zM636.3 179.1c2 2.2 4.7 4.6 7.8 7.2-.4-2.3-.8-4.1-7.8-7.2zM704.7 208.5c2.4.3 1.8-1.6 3.9-2.2-4.2-2.3-6.2-1.6-3.9 2.2zM578 171.3l-9.3 1-3.5 1zM506.5 179.8l-3.2 3c1.4-.6 2.6-1.5 3.2-3zM388.9 228.8l-2.7-.8-.9 5.4zM310.8 290.9l5.1-3.2c-1.4-1.2-.5-3.3-.1-4.4l-5 7.6zM241.1 613.7c.3 1.2.6 2.7 1.6 4.5 1.8 1-.1-1-1.6-4.5zM283.1 326l-2.9 3.6 2.5.8zM254.5 659.8c-1 0-1.9.2-2.6 1.2l2.6-1.2z"/><path fill="#FFB602" d="M331.1 636.3c-18.2-35.1-28.6-75-28.6-117.3 0-140.9 114.2-255.2 255.2-255.2 140.9 0 255.2 114.2 255.2 255.2 0 81.7-38.4 154.4-98.2 201.1 30.5 10.3 58.1 17 84.6 18.8 52.8-58 85.1-135.2 85.1-219.9 0-3.5-.2-6.9-.3-10.3 1.7 1.8 3.4 2.9 5.2 2.3-.7-3.9-6-9.3-4.7-15.1 3.9 2.2 3.7 8.4 8.7 11.1 3.5-9.6-3.5-5.8-2.2-16.2l5.9.1c-.8-3.3-1.4-6.6-2.7-9.9-7.8 4.5-9.3 2.9-11.6 5.4-.5-4.6-1.1-9.1-1.7-13.7.9-2.4 4.6 1.4 5.2.8l-5.5-3.4c-.3-2.2-.7-4.4-1.1-6.5l.9 1.5 2.4-1.2-3.5-1.5c-.8-4.4-1.6-8.8-2.6-13.2.1.1.2.1.3.2l-.5-.9c-.2-.8-.4-1.5-.5-2.3 1.5-3.9 8.1-2 8 4 2.5 5.7-3.5 6.3 1.1 10.7l3.6-8c-2.4-8.3-10.6-11.8-14.6-14.5-1.8-7.1-3.9-14.1-6.1-21 6.8.5 2.5 14.6 8.6 14.5-2.3-8 1.5-16.3 6.2-15.8l-5.7-8.2c-3.6-1.7-7.4 2.8-9.6 7.8-40.3-121.4-150-211.2-282-222.4 11.6-1.5 27.3-.7 36.2 3.4 10.2 3.8 18.3 4.2 30.4 5.3 36.7 13.2 76 28.2 107.2 57.4l9.7-2.6c-.7 4.1 7.8 6.6 3.6 9.7-1.1-2.2-3.1-3.3-5.5-4.8 2.4 11.1 18.3 15.5 24.5 24.8.2-1.9 3.8-8.1 6.9-6.5-6.9 5.5 9 9.6 3.7 18.8 5.4 9.7 6-4.8 12.7 4.6 4.8-2.4-5.5-9.8-4-14 5.6-.1 5.8 9 9.5 5-10.8-16.1-42.6-34.2-67.6-47l5.2-2.1c-13.3-6.5-33.5-17.5-40-30.4.4 5.3-18.5-11.7-21-1.2-2.3-3.8-3.5-3.9-7.8-7l-2.6 2.6c-6.9-2.6-3.9-7-12-9.6 3.7 6.2-2.7 5.3-6.2 8-7.1-8.4-16.8-15.7-24.4-21.7.3 1.6.7 3.4 3 6-5.3-3-5.4 1.4-7.3 2.5-5.5-1.2-3.6-6.7-2.7-9.5-10-4.7-16.7 5.8-23.7 1l1.9 5c-10.6-.2-18.7-7.6-30.7-6.4-5.2-6.6 10.2-5.2 15.5-6.7-2.3-1.6-7.4-3-8.8-5-5.6 2.9-14.5 6.9-20.8 9.7 6.4-7.1-8.9-7.5-13.1-8.1.8 3.1 3.7 4.7 10 4.4-.9 4.2-8.9 2.5-12.6 5.3 7.7 2.2.8 4.4 1.7 7.9-7.6 0-15.1.4-22.6.9 4.3-1 8.2-1.7 11-1.7.2-2.9-5.5-7.2 2.9-8-3.4-.4-2.2-3.8-2-6.8-8.8 3.7-13.7 2-18.8 6.1-5.3-3.6 3.2-1.4-2.1-5l-6.7 4.4c-5.3-.1 4.9-4.7-3.3-4.2-.7 2.4-6.9 5.7-13.3 6.2l1.6-1.6c-4.6 2.2-11.8 1.4-8.2 7.3l-6.9-5.3 1.8 4c-13 1.6-20.9-7.3-36.3 2.6 4.3-.2 1.4 3.4-.4 4.9 7.6.4 7.5-5.6 14.1-8 1.8 3.4-5.3 9.9-1.4 11.7-8.7-1.2-13.9 5.3-20.4-2.9-10.5 3.3-12.7 9.1-23.8 11.4l-.3-1.6c1.1 7.4-9.6 1-13.8 11.2l5.9-1.1c1 2.8-1.4 4.1-4.7 6.2-.1-1.2-.1-1.2-1.9-1.9 1.1 4.5-7.2 10-9.2 12.8-6.6 3.7-13 7.6-19.3 11.7l-9.1-3.6c3.1-1.5 5.4-4.1 6.7-1.5 1.7-5.1-1.1-5.9-4.8-6.9 7-6 9.9-4 13.2-12.2-16.4 2.5-8.4 10.8-25.7 16.1l2.7 11.9c-6.2 3.2-1.1-4.7-7.7-2.6-3.5 7.1 10.9 1.1 8.6 9.5-3.3 0-5.3 3.3-6.9 6.1l-2.7 2.1c-.9-3.5-5.3-6.8-6.9-7-1 2.9-7.5 4.5-11.1 7.4 11.1-4.3-5.2 8.2 5.3 5 .8 1.4.4 3.7-.6 5.9-2.6 2.3-5 4.7-7.5 7.1-.2 0-.3.1-.5.1-1.8-2.3 1.1-4.2 3.1-6.1-2.1-5.6-7.2 2.5-12 0-1.7 8.6-12.2 22.5-14.2 31-1.5 1.8-3 3.5-4.4 5.3-1.9-.4-3.6-1-4.4-2.9-3 2.8-1.5 5.7-.4 9-3.9 5-7.6 10.1-11.2 15.3-3.5-1.2-11.8 6.1-15.6 6.2 0 19.9-18.1 9.7-21.6 27.1-1.6 10.8 5.1 1.2 7.4 3.2-2.5 5.1-1.7 11.7-5.6 14.8-2.4-1.7-1.9-5.2.3-8-6.9-.7-1.9 6-8.4 9.9.8-.3 2.8-1.8 3.4.3-6.7 13.8 2.1 10-8.2 27.2.7 3.2-.2 5.9 4.2 6.7-8.1 9.1-6.6 3.7-14.7 15.6 2.3.1 7.7-2.1 12.6-1.6-.5 1.8-.9 3.6-1.3 5.4-7.1 11.8-1.1 14.7-7.6 24.2-.1-1.4-1.2-3.2 0-6.3-7.8.2-.2 10.2-2.6 16.5l-6.4-1.5c-.3 6.4 3.2 17.4-1.8 24.9l-3.2-2c3.5 16.4 2 34.9 5.4 48.4l-3.7 7.7c7 18.1.7-18.7 11.8-6-9.8 2.6-.7 6.9 1.5 14.1.2 1.2.3 2.4.4 3.5 0 .7-.1 1.4-.4 2.2-4 5.6-4.1-10.2-8.7-4 6.5 1.5 2.6 5.4 5.2 10.7-5.9-.2 1 11.9-6 9.6 4.5 6 10.2 11.6 15.1 17-2.4 3.9-.4 9.3 1.4 13.2-1.1-4.4.4-5 2.5-5.1 1.4 4.9 2.9 9.8 4.6 14.7-3.5.8-7.1 11.4-9.1 12.7 6.7 10.5 14.5 14.6 21.2 21.3l-5.7 2.5c3.5.1 8 4.5 10.4 4.4 16.6-9.1 38.9-19.7 66.4-27.6zm248.1-446c-.4.8-.4 1.8-.1 2.9-5.2-.3-10.5-.5-15.8-.6 5-1.2 9.1-3.4 15.9-2.3zm-62-7.4c-11.8 8.3 2 6.5 2.6 11.7-6.2.7-12.3 1.6-18.4 2.7 6.5-4.1 1.9-15.7 15.8-14.4zm-19.4 10.8c1.3 1 3.9 2.1 1.9 3.9-3 .5-6 1-9 1.7 2.6-1.7 5.1-3.4 7.1-5.6zm-50.9 10.5l.7 7.3-7.2 2.7c-.3-3.5-2.8-6.2 6.5-10zm-36.4 18.7c-.6 1.7-.4 3.4-.4 4.8-2.9 1.5-5.8 2.9-8.7 4.5 2.9-2.8 5.7-6.7 9.1-9.3zm-96.9 77.7c3.9-1.8 6.3-8.2 8.1-7.4-2.7 2.8-5.3 5.6-7.9 8.5 0-.4-.1-.8-.2-1.1zm-30.5 41.6c-.8 1.2-1.5 2.3-2.3 3.5.5-1.4 1.3-2.6 2.3-3.5zm-27.8 51c9.5-12.9.1-30.2 17.9-36.8l-1.6-6.5c.5 1.8 2.7 2.3 4.9 3-7.6 12.9-14.4 26.3-20.3 40.3h-.9zm-23.7 107.9v.2l-.1-.1.1-.1zm-.4 11.5c0 1.8-.1 3.6-.1 5.5-.2 0-.4-.2-.6-.4-.3-1.9.1-3.6.7-5.1zm-.7 7.9c.2 0 .4-.1.6-.2v.6c-.2-.2-.4-.3-.6-.4z"/><path fill="#FFCF73" d="M553.7 760.2c-.1 0-2.1.1-5.5.2l.3.9c1.8-.3 3.5-.6 5.2-1.1zM812.9 519c0-140.9-114.2-255.2-255.2-255.2-140.9 0-255.2 114.2-255.2 255.2 0 42.3 10.4 82.2 28.6 117.3 52.9-15.1 124.8-20 209.5 14.1 69.5 27.9 125.3 53.3 174.1 69.7 59.7-46.7 98.2-119.4 98.2-201.1z"/><path fill="#FFFFFE" d="M237.7 667l3.9 12.2c3.8-2.8 8.9-6.3 15.3-10.3-11.6-1.1-19.2-1.9-19.2-1.9zM548.6 761.4l-.3-.9c-30.7.9-184.8 2.2-302.3-67.3l7.4 23.3c1.5.6 3 1.2 4.6 1.9 51.7 21.2 187.2 66 290.6 43z"/><path fill="#619F42" d="M926 700.8c-1.4 1-2.8 1.8-4.1 2.8.8-1.6 1.7-3.1 2.5-4.7-.9 1.7-1.9 3.3-2.8 4.9-41.9 28.1-80.6 37.9-122.2 35.1-26.5-1.8-54.1-8.5-84.6-18.8-48.7-16.4-104.5-41.8-174.1-69.7-84.8-34.1-156.7-29.2-209.5-14.1-27.5 7.9-49.8 18.5-66.2 27.8-2.9 1.7-5.6 3.3-8.1 4.8-6.4 4-11.5 7.5-15.3 10.3-5.2 3.8-7.9 6.2-7.9 6.2 4.1 2.6 8.2 5.2 12.3 7.6 117.4 69.5 271.6 68.2 302.3 67.3 3.4-.1 5.3-.2 5.5-.2-1.7.4-3.4.8-5.1 1.1-103.4 23-238.8-21.8-290.6-43-1.5-.6-3-1.2-4.6-1.9-22.9-9.4-44-17.9-60.3-24.4-29.8-57.2-46.8-122.2-46.8-191.2 0-228.7 185.4-414.2 414.2-414.2 157 0 293.7 87.4 363.9 216.2-72.9-145-223-244.8-396.5-244.8-244.7 0-443 198.3-443 443 0 244.6 198.3 443 443 443 160.9 0 301.7-85.9 379.3-214.3 11.5-16.5 18.1-27.7 18.7-28.8zm-444.6 6.4c-135.8-11.5-231.9-9.4-194.3-31.3 0 0 120.1-84.6 292.5 2.1 28.2 12.5 37.7 40.7-98.2 29.2z"/><path fill="#8DB874" d="M579.6 678c-172.4-86.7-292.5-2.1-292.5-2.1-37.6 21.9 58.5 19.9 194.3 31.3 135.9 11.5 126.4-16.7 98.2-29.2z"/></svg>