<svg xmlns="http://www.w3.org/2000/svg" viewBox="0 0 1500 1500"><path fill="#00A8DE" d="M355.1 1391.7c-1.3-4.2-2.5-8.6-3.5-13.4-1.9-8.7-2.6-16.6-2.7-23.9l864.4-15.7-861.4-7.8c10.1-36 41.9-47.7 41.9-47.7l782.4-15.8-37-724.3s-169.8-1.2-340.1-1.7l3.4 153.7H1031v89H804.8l8.1 371H688.6l8.1-371H526v-89h172.8l3.4-153.9c-102.6 0-192.6.3-228.9 2.1-105.8 5.2-126.9 52.7-126.9 52.7s-31.4 565.6-43.5 714.9c-29.5 144.5 73 165.2 73 165.2l788.1-5.3V1451H417.7s-31.6.9-52.5-35.4l848.2-15.8-858.3-8.1z"/><path fill="#619F42" d="M1054.7 345.9c-219.1-32.9-230 142.4-230 142.4 175.2 32.8 240.9-131.5 230-142.4zM976.9 128.8c-172 40.4-128.3 173.5-128.3 173.5 139.6-27.4 139.7-168.6 128.3-173.5zM784.2 197.1c73.9-87.7 2.7-176.5-6.9-173.8-87.7 112.3 6.9 173.8 6.9 173.8zM715.4 303.5C727 161.7 591.1 123.2 583.3 132.9c-7.8 176.5 132.1 170.6 132.1 170.6zM698.4 484.7C676.6 307.8 500.1 295 493 308.8c35.1 218.7 205.4 175.9 205.4 175.9z"/></svg>