<svg xmlns="http://www.w3.org/2000/svg" width="100" height="100" viewBox="0 0 100 100"><g fill="#6178B7"><path d="M14.853 50.067l34.195-.35-11.284-11.815-11.807-.17zM50.811 48.655l-.354-34.188-11.808 11.277-.181 11.811zM28.603 21.689a5.99 5.99 0 0 1 5.994 5.994 5.993 5.993 0 0 1-5.994 5.994 5.991 5.991 0 0 1-5.994-5.994 5.989 5.989 0 0 1 5.994-5.994z"/></g><g fill="#DE98A2"><path d="M87.726 50.067l-34.2-.35 11.288-11.815 11.807-.17zM51.768 48.655l.35-34.188L63.93 25.744l.179 11.811z"/><circle cx="73.975" cy="27.683" r="5.994"/></g><g fill="#DE98A2"><path d="M14.853 50.899l34.195.351-11.284 11.814-11.807.17zM50.811 52.312L50.457 86.5 38.649 75.223l-.181-11.811zM28.603 79.277a5.99 5.99 0 0 0 5.994-5.994 5.993 5.993 0 0 0-5.994-5.994 5.992 5.992 0 0 0-5.994 5.994 5.988 5.988 0 0 0 5.994 5.994z"/></g><g fill="#6178B7"><path d="M87.726 50.899l-34.2.351 11.288 11.814 11.807.17zM51.768 52.312l.35 34.188L63.93 75.223l.179-11.811zM73.975 79.277a5.994 5.994 0 1 1 5.994-5.994 5.99 5.99 0 0 1-5.994 5.994z"/></g></svg>