<svg xmlns="http://www.w3.org/2000/svg" viewBox="0 0 1500 1500"><path fill="#F997CA" d="M991 352c.7-5.2 1.3-10.5 1.4-15.9.2-16.4-2.6-32-8-46.5-26.2-86.4-129.8-123.1-213.9-204.2l-1.2 1.2v-1.2C682.6 163.8 577.9 197 548.9 282.5c-5.8 14.3-9.2 29.8-9.5 46.2-.1 5.9.4 11.7 1 17.4 65.2-36.4 140.3-57.3 220.2-57.3 84.2.1 162.9 23.1 230.4 63.2zM524.4 355.5c-4.2-3.3-8.5-6.4-13.1-9.2-14-8.4-29-13.8-44.3-16.3-88-20.5-171.5 50.9-283.8 83.2 0 0 .1.6.5 1.6l-1.1-.6c24.5 114.2 1 221.6 60.5 289.5 9.5 12.2 21.2 22.9 35.3 31.3 9.7 5.8 19.9 10 30.4 13 0-2.4-.2-4.7-.2-7.1 0-163.1 86.4-305.9 215.8-385.4zM309 756.3c-10 2.7-19.9 6.4-29.4 11.7-14.3 7.9-26.4 18.3-36.3 30.2-61.7 65.9-41.7 174-69.8 287.3 0 0 .6.2 1.6.4l-1.1.6c111.2 35.9 192.4 109.9 281 92.3 15.3-2.1 30.5-6.9 44.8-14.9 14.5-8.1 26.7-18.6 36.6-30.7-131.9-75.5-221.9-215.4-227.4-376.9zM538.1 1134.3c-5.6 14-9 29.2-9.2 45.2-.2 16.3 2.6 32 8 46.5 26.2 86.4 129.8 123 213.9 204.2 0 0 1.2-.4 1.2-1.2v1.2c82-78.4 191.4-111.6 220.4-197.1 5.9-14.3 9.3-29.9 9.5-46.2.3-16.6-2.8-32.5-8.4-47.2-63.5 34-135.9 53.3-212.9 53.3-80.9-.1-156.8-21.5-222.5-58.7zM1278.1 812c-9.5-12.2-21.3-22.9-35.3-31.3-9.9-5.9-20.4-10.2-31-13.2-9.3 160.6-102.5 298.8-236.4 371.2 9.3 11.9 20.9 22.4 34.6 30.6 14 8.4 29 13.8 44.3 16.3 87.9 20.5 171.5-50.9 283.8-83.2 0 0-.1-.6-.5-1.6l1.1.6c-24.6-114.2-1.1-221.5-60.6-289.4zM1212.7 740.8c0 6.2-.2 12.4-.5 18.5 10.1-2.7 20-6.4 29.5-11.7 14.3-7.9 26.4-18.3 36.3-30.2 61.7-65.9 41.7-173.9 69.8-287.3 0 0-.6-.2-1.6-.4l1.1-.6c-111.2-35.9-192.4-109.9-280.9-92.3-15.3 2.1-30.5 6.9-44.8 14.9-5.3 3-10.3 6.4-15 10 123.9 80.5 206.1 220.2 206.1 379.1z"/><path fill="#FFE4B1" d="M1211.8 767.4c.2-2.7.3-5.4.4-8.1.2-6.1.5-12.3.5-18.5 0-158.9-82.1-298.6-206.2-379.2-5.1-3.3-10.2-6.5-15.5-9.7-67.5-40.1-146.2-63.1-230.4-63.1-80 0-155.1 20.9-220.2 57.3-5.4 3-10.7 6.1-15.9 9.3C395 435 308.6 577.8 308.6 740.8c0 2.4.1 4.7.2 7.1 0 2.8.1 5.5.2 8.3 5.4 161.5 95.5 301.4 227.3 376.9.6.3 1.2.7 1.8 1 65.7 37.2 141.6 58.6 222.5 58.6 77 0 149.5-19.3 212.9-53.3l1.8-.9c134-72.3 227.2-210.4 236.5-371.1zm-451.2 361.4c-217.4 0-393.6-176.2-393.6-393.6 0-217.4 176.2-393.6 393.6-393.6s393.6 176.2 393.6 393.6c.1 217.4-176.2 393.6-393.6 393.6z"/><path fill="#FFF0D3" d="M1154.3 735.2c0-217.4-176.2-393.6-393.6-393.6S367 517.8 367 735.2c0 217.4 176.2 393.6 393.6 393.6s393.7-176.2 393.7-393.6zM760.6 409.5c178.5 0 323.1 144.7 323.1 323.1 0 178.5-144.7 323.1-323.1 323.1-178.4 0-323.1-144.7-323.1-323.1 0-178.4 144.7-323.1 323.1-323.1z"/><path fill="#FFC75A" d="M760.6 1055.8c178.5 0 323.1-144.7 323.1-323.1 0-178.5-144.7-323.1-323.1-323.1-178.4 0-323.1 144.7-323.1 323.1 0 178.4 144.7 323.1 323.1 323.1zm232.5-237.2c-9.4 49.4-37.7 103.6-89.5 110.7-35.3 4.7-70.6-7.1-87.1-40-14.1-30.6-18.8-63.6-9.4-94.2 2.3 28.3 25.9 51.8 54.1 58.9 21.2 2.4 40-4.7 56.5-14.1 28.3-18.8 47.1-44.7 49.4-77.7 0-30.6 2.3-75.3-28.2-87.1-56.5-23.5-77.7 44.7-105.9 82.4-18.8 25.9-51.8 18.8-77.7 18.8 0 21.2 16.5 40 16.5 63.6 0 18.8 0 35.3-4.7 54.2-9.4 30.6-30.6 54.2-56.5 68.3-58.9 28.2-127.2 2.4-167.2-47.1-40-49.4-51.8-108.3-47.1-169.5 18.9 47.1 23.6 101.3 68.3 131.8 37.7 25.9 82.4 30.6 122.4 16.5 30.6-11.8 49.5-47.1 37.7-80-11.8-35.3-49.5-37.7-82.4-35.3-16.5-21.2-28.2-47.1-33-75.3 37.7 9.4 96.5 4.7 108.3-40-25.9-58.9-96.5-25.9-136.6-2.4-4.7 4.7-4.7-2.4-7.1-2.4-9.4-18.8-21.2-35.3-30.6-51.8 42.4-35.3 98.9-54.2 153.1-40 16.5 4.7 30.6 16.5 40 33 28.3 49.5 2.3 110.7-42.4 136.6 23.6 21.2 63.6 23.5 82.4-7.1 18.9-30.6 28.3-63.6 56.5-87.1 23.6-18.8 56.5-23.5 84.7-11.8 70.7 25.6 87.2 115.1 75.5 188.1zm-68.3-235.5c-39.2 29.4-89.5 37.7-134.2 23.6-47.1-14.1-80-61.2-77.7-110.7 11.8 21.2 30.6 40.1 51.8 54.2 21.2 11.8 47.1 14.1 73 9.4 30.6-9.4 49.4-30.6 75.3-44.7 11.8 14.1 28.2 25.9 33 44.7 4.7 11.8-11.8 16.5-21.2 23.5zm-68.3-82.4l-14.1 14.1c-10.7 10.7-21.2 30.6-33 28.2-16.5 0-33-18.8-44.7-35.3 11.7-18.8 28.2-33 42.4-49.4 18.8 11.8 30.6 30.7 49.4 42.4z"/><path fill="#797B7D" d="M833 642c-28.3 23.6-37.7 56.5-56.5 87.1-18.8 30.6-58.8 28.3-82.4 7.1 44.8-25.9 70.7-87.1 42.4-136.6-9.4-16.5-23.6-28.2-40-33-54.2-14.1-110.7 4.7-153.1 40 9.4 16.5 21.2 33 30.6 51.8 2.3 0 2.3 7.1 7.1 2.4 40-23.5 110.7-56.5 136.6 2.4-11.8 44.7-70.6 49.4-108.3 40 4.7 28.3 16.5 54.2 33 75.3 32.9-2.4 70.6 0 82.4 35.3 11.8 33-7.1 68.3-37.7 80-40 14.1-84.8 9.4-122.4-16.5-44.7-30.6-49.4-84.7-68.3-131.8-4.7 61.2 7.1 120.1 47.1 169.5 40 49.5 108.3 75.4 167.2 47.1 25.9-14.1 47.1-37.7 56.5-68.3 4.7-18.8 4.7-35.3 4.7-54.2 0-23.5-16.5-42.4-16.5-63.6 25.9 0 58.9 7.1 77.7-18.8 28.2-37.7 49.4-106 105.9-82.4 30.6 11.8 28.2 56.5 28.2 87.1-2.4 33-21.2 58.9-49.4 77.7-16.5 9.4-35.3 16.5-56.5 14.1-28.2-7.1-51.8-30.6-54.1-58.9-9.4 30.6-4.7 63.6 9.4 94.2 16.5 33 51.8 44.7 87.1 40 51.8-7.1 80-61.2 89.5-110.7 11.8-73-4.7-162.5-75.4-188.4-28.3-11.4-61.3-6.7-84.8 12.1z"/><path fill="#797B7D" d="M837.7 559.6c-25.9 4.7-51.8 2.3-73-9.4-21.2-14.1-40-33-51.8-54.2-2.3 49.4 30.6 96.6 77.7 110.7 44.7 14.1 95 5.8 134.2-23.6 9.4-7.1 25.9-11.8 21.2-23.5-4.7-18.8-21.2-30.6-33-44.7-25.9 14.1-44.7 35.3-75.3 44.7z"/><path fill="#797B7D" d="M809.4 543.1c11.8 2.3 22.3-17.6 33-28.2l14.1-14.1c-18.9-11.8-30.6-30.6-49.4-42.4-14.1 16.5-30.6 30.6-42.4 49.4 11.7 16.5 28.2 35.3 44.7 35.3z"/></svg>