<svg xmlns="http://www.w3.org/2000/svg" width="100" height="100" viewBox="0 0 100 100"><path fill="none" d="M81.839 65.227c.672.69 1.223 1.485 1.514 2.425.475 1.485.01 3.131-.949 4.324-1.594 2.012-3.926 3.229-6.233 4.259-5.387 2.257-11.196 3.276-16.992 3.841-7.521.682-15.146.483-22.601-.743-4.64-.822-9.307-1.975-13.486-4.221-2.007-1.166-4.142-2.646-4.875-4.969-.64-2.035.531-4.112 2.04-5.419-1.373-1.438-2.247-2.942-2.797-4.396-1.772.832-3.479 1.801-5.001 3.051-1.711 1.429-3.253 3.469-3.06 5.81.277 2.468 2.115 4.376 4.047 5.744 4.019 2.834 8.781 4.348 13.51 5.532 8.188 1.988 16.664 2.68 25.063 2.637 8.875-.154 17.796-1.066 26.305-3.643 3.765-1.189 7.534-2.68 10.665-5.171 1.659-1.339 3.131-3.205 3.216-5.434-.005-2.345-1.599-4.305-3.352-5.701-1.199-.94-2.506-1.697-3.854-2.388-.631 1.491-1.637 3.013-3.16 4.462z"/><path fill="none" d="M20.163 69.235c.837 2.271 3.022 3.629 5.058 4.729 5.255 2.59 11.117 3.657 16.908 4.297 8.508.817 17.19.508 25.557-1.335 4.132-.992 8.386-2.238 11.751-4.969 1.565-1.27 2.816-3.483 1.848-5.48-.08-.174-.216-.287-.306-.446a18.67 18.67 0 0 1-1.937 1.381c-2.256 1.392-4.7 2.299-7.276 2.835a8.045 8.045 0 0 1-1.227 1.011c-2.698 1.771-5.895 2.595-9.025 3.243-6.778 1.26-13.782 1.288-20.584.164-3.079-.555-6.167-1.335-8.95-2.82-.86-.498-1.721-1.1-2.388-1.852a22.468 22.468 0 0 1-5.979-2.562 17.34 17.34 0 0 1-2.646-2.045c-.823 1.124-1.307 2.491-.804 3.849z"/><radialGradient id="a" cx="53.905" cy="82.099" r="68.326" gradientUnits="userSpaceOnUse"><stop offset="0" stop-color="#7cc5f1"/><stop offset=".009" stop-color="#79c4f1"/><stop offset=".261" stop-color="#22b2ed"/><stop offset=".376" stop-color="#00abeb"/><stop offset=".465" stop-color="#00a4e3"/><stop offset=".605" stop-color="#0091cc"/><stop offset=".779" stop-color="#0072a7"/><stop offset=".979" stop-color="#004775"/><stop offset="1" stop-color="#00426f"/></radialGradient><path fill="url(#a)" d="M92.363 64.902c-2.059-2.003-4.568-3.418-7.187-4.56-.052.141-.118.281-.179.423 1.349.69 2.655 1.447 3.854 2.388 1.753 1.396 3.347 3.356 3.352 5.701-.085 2.229-1.557 4.095-3.216 5.434-3.131 2.491-6.9 3.981-10.665 5.171-8.509 2.576-17.43 3.488-26.305 3.643-8.4.043-16.875-.648-25.063-2.637-4.729-1.185-9.491-2.698-13.51-5.532-1.932-1.368-3.77-3.276-4.047-5.744-.193-2.341 1.349-4.381 3.06-5.81 1.523-1.25 3.229-2.219 5.001-3.051-.042-.122-.108-.244-.146-.361-2.976 1.222-5.88 2.735-8.174 5.02-1.654 1.669-2.787 4.117-2.101 6.468.855 2.976 3.483 4.954 6.017 6.478 5.504 3.154 11.747 4.729 17.938 5.871 11.709 2.012 23.724 2.144 35.499.639 7.084-.996 14.215-2.524 20.65-5.739 2.938-1.574 6.068-3.562 7.276-6.835.927-2.497-.248-5.204-2.054-6.967z"/><radialGradient id="b" cx="53.905" cy="82.087" r="68.332" gradientUnits="userSpaceOnUse"><stop offset="0" stop-color="#7cc5f1"/><stop offset=".009" stop-color="#79c4f1"/><stop offset=".261" stop-color="#22b2ed"/><stop offset=".376" stop-color="#00abeb"/><stop offset=".465" stop-color="#00a4e3"/><stop offset=".605" stop-color="#0091cc"/><stop offset=".779" stop-color="#0072a7"/><stop offset=".979" stop-color="#004775"/><stop offset="1" stop-color="#00426f"/></radialGradient><path fill="url(#b)" d="M18.217 70.143c.733 2.322 2.867 3.803 4.875 4.969 4.179 2.246 8.846 3.398 13.486 4.221 7.455 1.227 15.079 1.425 22.601.743 5.796-.564 11.605-1.584 16.992-3.841 2.308-1.029 4.64-2.247 6.233-4.259.959-1.193 1.424-2.839.949-4.324-.291-.939-.842-1.734-1.514-2.425-.282.268-.54.54-.86.804.09.159.226.272.306.446.969 1.997-.282 4.211-1.848 5.48-3.365 2.73-7.619 3.977-11.751 4.969-8.367 1.843-17.049 2.152-25.557 1.335-5.791-.64-11.653-1.707-16.908-4.297-2.035-1.1-4.221-2.458-5.058-4.729-.503-1.358-.019-2.726.804-3.85-.24-.221-.494-.437-.709-.662-1.51 1.307-2.681 3.384-2.041 5.42z"/><radialGradient id="c" cx="53.903" cy="82.093" r="68.323" gradientUnits="userSpaceOnUse"><stop offset="0" stop-color="#7cc5f1"/><stop offset=".009" stop-color="#79c4f1"/><stop offset=".261" stop-color="#22b2ed"/><stop offset=".376" stop-color="#00abeb"/><stop offset=".465" stop-color="#00a4e3"/><stop offset=".605" stop-color="#0091cc"/><stop offset=".779" stop-color="#0072a7"/><stop offset=".979" stop-color="#004775"/><stop offset="1" stop-color="#00426f"/></radialGradient><path fill="url(#c)" d="M31.98 71.844c2.783 1.485 5.871 2.266 8.95 2.82 6.802 1.124 13.806 1.096 20.584-.164 3.131-.648 6.327-1.472 9.025-3.243a8.045 8.045 0 0 0 1.227-1.011c-.987.202-1.998.343-3.027.423-1.415.827-3.022 1.382-4.545 1.866-6.83 1.885-14.051 2.092-21.045 1.194-3.337-.476-6.689-1.204-9.735-2.718-.24-.127-.479-.272-.719-.418a23.403 23.403 0 0 1-3.103-.602c.667.753 1.528 1.355 2.388 1.853z"/><path fill="#669E9B" d="M50.66 62.298a.686.686 0 0 0-.038.014c0 .01.01.02.01.024l.028-.038zM25.427 64.475c3.074 1.898 6.529 2.853 10.346 2.853 2.388 0 4.893-.413 7.507-1.156a63.37 63.37 0 0 1-1.077-1.626 34.518 34.518 0 0 1-3.305.179c-2.839 0-5.373-.479-7.605-1.415-3.003-1.213-4.479-3.027-4.479-5.443 0-2.379 1.626-4.268 4.898-5.641 1.453-.625 2.971-1.02 4.527-1.288a39.406 39.406 0 0 1-.696-3.271c-1.927-1.011-3.549-2.162-4.794-3.488-2.985.663-5.472 2.012-7.451 4.019-2.139 2.176-3.196 4.714-3.196 7.61 0 3.581 1.767 6.457 5.325 8.667zM70.92 52.225c3.262 1.373 4.897 3.262 4.897 5.641 0 2.416-1.49 4.23-4.479 5.443-2.247.936-4.78 1.415-7.62 1.415-1.071 0-2.171-.07-3.28-.179-.349.545-.71 1.091-1.081 1.631 2.608.743 5.114 1.151 7.487 1.151 3.817 0 7.272-.954 10.36-2.853 3.544-2.21 5.34-5.086 5.34-8.668 0-2.896-1.086-5.434-3.225-7.61-1.979-2.007-4.466-3.356-7.45-4.019-1.227 1.326-2.854 2.477-4.776 3.488a41.353 41.353 0 0 1-.695 3.271c1.546.269 3.06.664 4.522 1.289zM53.024 68.281l.306.099c7.389-8.719 11.009-18.083 10.872-28.085-.075-5.143-1.189-9.514-3.356-13.176-1.264 2.698-3.83 5.128-7.685 7.31 3.445 4.174 5.217 9.021 5.283 14.576.08 5.838-1.73 12.272-5.42 19.276zM45.339 31.533c-1.607-1.387-2.83-2.849-3.554-4.414-2.181 3.662-3.295 8.033-3.356 13.176-.136 10.003 3.497 19.367 10.872 28.085l.292-.099c-3.676-7.004-5.495-13.438-5.419-19.277.08-5.556 1.852-10.402 5.297-14.576-.602-.338-1.114-.696-1.655-1.048-.968-.437-1.815-1.048-2.477-1.847zM51.572 32.233c2.406 0 4.334-2.43 4.334-5.415s-1.928-5.415-4.334-5.415c-2.402 0-4.349 2.43-4.349 5.415s1.947 5.415 4.349 5.415z"/></svg>