<svg xmlns="http://www.w3.org/2000/svg" width="100" height="100" viewBox="0 0 100 100"><g fill="#53605C"><path d="M21.486 75.275a8.94 8.94 0 0 0 4.634-1.292 8.919 8.919 0 0 0 .94 10.541h6.466l.053-.059-2.835-2.835a4.247 4.247 0 0 1-1.249-3.014 4.239 4.239 0 0 1 1.249-3.019l18.458-18.453-6.244-6.244L24.5 69.354a4.26 4.26 0 0 1-3.014 1.249 4.262 4.262 0 0 1-3.019-1.249l-2.763-2.763v6.562a8.896 8.896 0 0 0 5.782 2.122z"/><path d="M23.039 77.094a3.117 3.117 0 0 0-4.397 0l-1.856 1.861a3.103 3.103 0 0 0 0 4.393 3.099 3.099 0 0 0 4.397 0l1.856-1.856a3.11 3.11 0 0 0 0-4.398z"/></g><g fill="#42AA84"><path d="M26.876 15.934a8.93 8.93 0 0 0-2.117 5.781c0 1.601.434 3.216 1.292 4.634a8.916 8.916 0 0 0-4.634-1.297 8.956 8.956 0 0 0-5.907 2.232v6.471l.058.058 2.835-2.835a4.226 4.226 0 0 1 3.014-1.249c1.104 0 2.179.41 3.014 1.249L42.89 49.431l6.244-6.244-18.453-18.458a4.218 4.218 0 0 1-1.249-3.014c0-1.099.41-2.179 1.249-3.013l2.763-2.768h-6.568z"/><path d="M16.684 21.412l1.856 1.856a3.099 3.099 0 0 0 4.397 0 3.103 3.103 0 0 0 0-4.393l-1.856-1.861a3.117 3.117 0 0 0-4.397 0 3.107 3.107 0 0 0 0 4.398z"/></g><g fill="#42AA84"><path d="M68.961 75.912a4.258 4.258 0 0 1 1.249 3.019 4.238 4.238 0 0 1-1.249 3.014l-2.835 2.84.053.054h6.471a8.926 8.926 0 0 0 2.233-5.907 8.963 8.963 0 0 0-1.298-4.639A8.92 8.92 0 0 0 84 73.474v-6.567l-2.763 2.768a4.29 4.29 0 0 1-3.014 1.249 4.292 4.292 0 0 1-3.019-1.249l-18.452-18.46-6.249 6.244 18.458 18.453z"/><path d="M82.92 79.269l-1.856-1.856a3.108 3.108 0 0 0-4.397 0 3.108 3.108 0 0 0 0 4.397l1.856 1.856a3.108 3.108 0 0 0 4.397 0 3.106 3.106 0 0 0 0-4.397z"/></g><g fill="#53605C"><path d="M78.286 25.371a8.95 8.95 0 0 0-4.638 1.292 8.88 8.88 0 0 0 1.302-4.629 8.94 8.94 0 0 0-2.122-5.781h-6.567l2.768 2.763a4.234 4.234 0 0 1 1.244 3.019 4.218 4.218 0 0 1-1.244 3.009L50.571 43.505l6.244 6.239 18.457-18.453a4.213 4.213 0 0 1 3.014-1.249c1.1 0 2.175.41 3.014 1.249l2.841 2.835.053-.053v-6.471a8.912 8.912 0 0 0-5.908-2.231z"/><path d="M83.021 17.333a3.108 3.108 0 0 0-4.397 0l-1.856 1.856a3.108 3.108 0 0 0 0 4.397 3.108 3.108 0 0 0 4.397 0l1.856-1.856a3.099 3.099 0 0 0 0-4.397z"/></g></svg>