<svg xmlns="http://www.w3.org/2000/svg" viewBox="0 0 1500 1500"><path fill="#00A9DE" d="M666.6 618.5l-4.5-54.3c-20.1.4-40.1 1.6-60.1 3.5l5.2 58.8c19.3-4.1 39.1-6.9 59.4-8zM505.3 666.9l-30.2-76.2c-20.6 5.5-40.6 11.5-59.7 18.2l48.4 87.1c12.9-10.7 26.9-20.4 41.5-29.1zM588.3 631.4l-16.1-60.1c-20.5 2.8-41 6.3-61.3 10.8l14.7 73.8c19.6-10.1 40.6-18.3 62.7-24.5zM756.9 624.8l5-56.2c-22.2-2.4-44.3-3.7-66.4-4.3l-5.4 53.6c22.9.4 45.3 2.7 66.8 6.9zM996 811.7l207.7-70.7c-26.9-18.1-53.8-34.8-80.9-50.2l-153.2 71.8c10.4 15.5 19.2 32 26.4 49.1zM954.3 741.9l120.4-77.1c-29.9-15.2-59.8-28.7-89.7-40.5l-66.1 80.2c12.9 11.6 24.7 24.1 35.4 37.4zM1232.6 760.8c-3.2-2.2-6.3-4.3-9.5-6.5l4.2 11.4c1.7-1.6 3.5-3.2 5.3-4.9zM902.9 691.2l44.8-80.5c-18.8-6.5-37.6-12.5-56.3-17.6-1-.3-2-.5-3-.8l-28 70.4c15 8.5 29.2 18.1 42.5 28.5zM839.4 652l13.6-68.2c-20.4-4.5-40.9-8.4-61.3-11.3l-15.3 56.9c22 5.5 43.1 13.2 63 22.6zM371.6 825.1L126.1 783c18.9 15.5 51.7 40.7 95.7 68.6l140.3 5.9c2.5-11.1 5.7-21.9 9.5-32.4zM1000.6 823.7c4.6 12.4 8.3 25.2 11 38.4l96.9.8c31.6-22 62.7-46.5 93.2-73.7l-201.1 34.5zM1017.6 918.1c17.6-9.2 35-19.1 52.3-29.8l-55.3-9.6c1.9 12.9 3 26.1 3 39.4zM448.9 709.2l-71-86.2c-32.2 12.9-61.9 27.1-88.9 41.7l126.6 81c10.1-13 21.2-25.2 33.3-36.5zM359.1 872.6l-84.3 10.5c24.6 13.7 51.6 27.5 80.5 40.5 0-1.6-.1-3.2-.1-4.8 0-15.7 1.3-31.1 3.9-46.2zM401.2 765.8l-158.7-74.4c-29.8 18.4-55.1 36.3-75.4 51.9l208.7 71c6.8-16.9 15.4-33.1 25.4-48.5z"/><path fill="#DB9130" d="M1000.6 823.7l201.2-34.5c8.5-7.6 17-15.4 25.4-23.4l-4.2-11.4c-6.5-4.5-12.9-8.9-19.4-13.3L996 811.7c-7.2-17.1-16-33.6-26.4-49l153.2-71.8c-16-9.1-32.1-17.8-48.1-26L954.3 742c-10.7-13.3-22.5-25.8-35.3-37.3l66.1-80.2c-12.4-4.9-24.9-9.4-37.3-13.7L903 691.3a324.2 324.2 0 0 0-42.5-28.4l28-70.4c-11.8-3.2-23.6-6-35.4-8.6L839.4 652c-19.9-9.4-41-17.1-63-22.7l15.3-56.9c-9.9-1.4-19.9-2.7-29.8-3.8l-5 56.2c-21.5-4.2-43.9-6.6-66.7-6.8l5.4-53.6c-11.1-.3-22.2-.3-33.3-.1l4.5 54.3c-20.3 1.1-40.1 3.8-59.3 8.1l-5.2-58.8c-10 1-20 2.2-30 3.5l16.1 60.1c-22 6.2-43 14.5-62.8 24.5l-14.8-74c-9.6 2.1-19.1 4.3-28.6 6.7-2.4.6-4.7 1.3-7 2l30.2 76.2c-14.7 8.7-28.6 18.4-41.5 29.1l-48.4-87.1c-12.9 4.5-25.3 9.2-37.5 14.1l71 86.2c-12.1 11.3-23.3 23.5-33.3 36.5l-126.6-81c-16.5 8.9-32.1 17.9-46.5 26.8l158.7 74.4c-10 15.3-18.6 31.5-25.5 48.5l-208.7-71c-19.5 15-34.5 27.9-44.5 36.8 1.1.9 2.3 1.9 3.5 2.8l245.6 42.1c-3.8 10.6-7.1 21.4-9.6 32.4l-140.3-5.9c16.2 10.3 33.9 20.9 53 31.5l84.3-10.5c-2.6 15.1-3.9 30.5-3.9 46.2 0 1.6.1 3.2.1 4.8 20.5 9.2 42 18 64.4 26.2l1-.7c-.1-2.9-.5-5.7-.5-8.6 0-133.5 119.2-241.8 266.2-241.8s266.2 108.2 266.2 241.8c0 2.7-.2 5.3-.3 8 22-9 43.8-19.1 65.4-30.4 0-13.4-1.1-26.5-3-39.4l55.3 9.6c13-8 25.9-16.6 38.7-25.5l-96.9-.8c-2.9-13.1-6.6-25.9-11.2-38.3z"/><path fill="#FFC03B" d="M686.4 698.8c-147 0-266.2 108.2-266.2 241.8 0 2.9.4 5.7.5 8.6l57.7-39.7c23.4-84.7 107.5-147.5 208-147.5 104.9 0 192.1 68.4 210.8 158.8l47.7 30.8c2.5-1 4.9-2.1 7.4-3.1.1-2.7.3-5.3.3-8 0-133.5-119.2-241.7-266.2-241.7z"/><path fill="#FFFFFE" d="M686.4 762c-100.5 0-184.6 61.5-208 146.2l23.2-17.2h50.1L677 794.8l68.9 54.2h31.3l120 74.6C878.5 833.2 791.3 762 686.4 762z"/><path fill="#236A95" d="M1428.9 873.6c-45.8-43.1-92.1-82.1-138.6-117.3 44-45.4 86.9-96 128.3-152.3 2.5-3.4 3.7-7.3 3.7-11.1 0-5.8-2.7-11.5-7.7-15.1-8.3-6.2-20.1-4.4-26.3 4-41.7 56.5-84.7 107.1-128.8 152.2C1141 649 1020.7 589.1 900 556.6c-143.7-38.8-288-40.1-428.9-3.8C231.5 614.4 87.1 761.5 81 767.7c-3.5 3.6-5.4 8.5-5.3 13.6.1 5.1 2.3 9.8 6 13.3 12.1 11.3 301.5 275.4 677.3 240 181.2-17.1 350.2-101.5 504.5-251.3 46.8 35.2 93.4 74.1 139.6 117.6 7.5 7.1 19.4 6.8 26.6-.8 3.4-3.6 5.1-8.2 5.1-12.9 0-4.9-1.9-9.9-5.9-13.6zm-833.3 57.5L564.3 906l119-93.9-87.7 119zm-106.5 25.1l-37.6 6.3 50.1-50.1 43.8-6.3-56.3 50.1zm619.5-93.4c-12.8 8.9-25.7 17.4-38.7 25.5-17.3 10.7-34.7 20.6-52.3 29.8a769.49 769.49 0 0 1-65.4 30.4c-2.5 1-4.9 2.1-7.4 3.1l-47.7-28-120-74.6h-31.3L677 794.8 551.7 891h-50.1l-23.2 17.2-57.7 40.3-1 1c-22.4-8.2-43.9-16.8-64.4-26.1-28.9-13-55.9-26.6-80.5-40.4-19.1-10.6-36.8-21.2-53-31.5-44-28-76.8-53.1-95.7-68.6-1.2-1-2.4-2-3.5-2.8 9.9-9 25-21.8 44.5-36.8 20.3-15.6 45.6-33.5 75.4-51.9 14.5-8.9 30-17.9 46.5-26.8 27-14.5 56.7-28.7 88.9-41.7 12.2-4.9 24.6-9.6 37.5-14.1 19.1-6.7 39.1-12.7 59.7-18.2 2.4-.6 4.6-1.4 7-2 9.5-2.4 19.1-4.6 28.6-6.7 20.4-4.4 40.8-8 61.3-10.8 10-1.4 20-2.5 30-3.5 20-1.9 40-3.1 60.1-3.5 11.1-.2 22.2-.1 33.3.1 22.1.5 44.2 1.9 66.4 4.3 9.9 1.1 19.8 2.4 29.8 3.8 20.4 3 40.9 6.8 61.3 11.3 11.8 2.6 23.6 5.5 35.4 8.6 1 .3 2 .5 3 .8 18.8 5.1 37.6 11.1 56.3 17.6 12.4 4.3 24.9 8.8 37.3 13.7 29.9 11.8 59.8 25.3 89.7 40.5 16.1 8.2 32.1 16.8 48.1 26 27 15.4 54 32.1 80.9 50.2 6.5 4.4 12.9 8.7 19.4 13.3 3.2 2.2 6.3 4.2 9.5 6.5-1.8 1.7-3.6 3.3-5.3 4.9-8.4 8-16.9 15.8-25.4 23.4-30.5 27.3-61.6 51.8-93.2 73.7z"/><path fill="#00A9DE" d="M595.6 931.1l87.7-119-119 93.9zM451.5 962.4l37.6-6.2 56.4-50.2-43.9 6.3z"/></svg>