<svg xmlns="http://www.w3.org/2000/svg" width="100" height="100" viewBox="0 0 100 100"><path fill-rule="evenodd" clip-rule="evenodd" fill="#B5B353" d="M78.756 67.059c-.36.223-.741.424-1.078.666-1.856 1.33-3.695 2.676-5.554 4.006-1.163.826-2.397.879-3.264.186-.937-.756-.887-1.643.226-2.57 3.489-2.906 7.006-5.783 10.487-8.686 2.417-2.012 5.452-2.509 8.768-2.258.432.033.999.365 1.212.682 1.334 1.986 2.578 4.015 3.879 6.018.415.641.227 1.076-.652 1.219-3.31.547-5.587 2.295-7.877 4.088-2.024 1.582-4.126 3.113-6.343 4.521-.903.57-2.196 1.037-3.325 1.059-4.063.074-8.205.287-12.174-.227-3.317-.426-6.467-1.748-9.626-2.791-.556-.182-1.216-1.014-1.101-1.42.139-.502 1.046-1.248 1.604-1.236 2.278.029 4.561.264 6.823.518 2.069.234 4.12.562 6.164.902.367.059.724.309.998.533 1.256 1.035 2.895 1.258 4.216.367 2.282-1.541 4.462-3.166 6.671-4.771.173-.123.196-.377.296-.57-.12-.076-.234-.158-.35-.236zM18.936 67.059c.361.223.739.424 1.076.666 1.859 1.33 3.698 2.676 5.558 4.006 1.162.826 2.397.879 3.264.186.936-.756.886-1.643-.226-2.57-3.489-2.906-7.007-5.783-10.492-8.686-2.414-2.012-5.447-2.509-8.764-2.258-.431.033-.997.365-1.211.682-1.334 1.986-2.582 4.015-3.878 6.018-.419.641-.226 1.076.648 1.219 3.312.547 5.591 2.295 7.881 4.088 2.02 1.582 4.122 3.113 6.342 4.521.903.57 2.196 1.037 3.325 1.059 4.064.074 8.202.287 12.175-.227 3.317-.426 6.465-1.748 9.626-2.791.554-.182 1.215-1.014 1.1-1.42-.14-.502-1.046-1.248-1.609-1.236-2.274.029-4.556.264-6.818.518-2.069.234-4.122.562-6.166.902-.366.059-.727.309-1.002.533-1.251 1.035-2.89 1.258-4.216.367-2.282-1.541-4.462-3.166-6.666-4.771-.173-.123-.197-.377-.295-.57.115-.076.233-.158.348-.236z"/><g fill="#3C569E"><path d="M47.153 28.437c2.669-1.15 6.022.829 6.247 3.731.362 2.315-1.338 4.659-3.64 5.069-2.48.579-5.21-1.301-5.46-3.85-.344-2.057.908-4.216 2.853-4.95z"/><path d="M31.145 32.623c4.465 2.102 8.529 5.033 12.093 8.444 2.303 2.25 4.372 4.77 5.952 7.578 2.824-4.962 7.015-9.006 11.634-12.302 2.01-1.346 4.03-2.763 6.31-3.616-3.724 3.994-7.418 8.029-10.658 12.426 3.646 2.372 7.103 5.233 9.384 8.998.091.226.419.665.592.193 2.85-4.59 7.2-8.198 12.061-10.497-3.514 3.92-7.323 7.73-9.671 12.515-1.01 1.959-1.19 4.191-1.614 6.326-.328 1.725-.6 3.465-.964 5.189-.674-2.578-.997-5.23-1.52-7.842-.324-2.311-1.407-4.416-2.663-6.346-1.799-2.762-4.019-5.201-6.187-7.668-1.945 2.895-3.761 6.01-4.393 9.479-.742 4.138-1.481 20.004-2.237 24.133-.931-3.785-1.444-19.396-2.204-23.217-.546-3.88-2.475-7.39-4.725-10.542-3.296 3.703-6.855 7.447-8.62 12.171-.957 3.321-1.166 6.818-2.048 10.16-.554-3.025-1.071-6.062-1.675-9.076-.993-3.875-3.628-7.041-6.129-10.057-1.433-1.72-3.025-3.288-4.462-5 4.958 2.389 9.499 6.047 12.257 10.866 2.455-4.092 6.104-7.352 10.18-9.79-3.194-4.487-7.061-8.419-10.693-12.525z"/><path d="M64.809 40.993c2.179-.981 4.807 1.166 4.277 3.498-.3 2.291-3.382 3.419-5.103 1.88-1.851-1.383-1.346-4.602.826-5.378zM30.102 41.293c2.085-1.1 4.819.792 4.502 3.141-.098 2.376-3.189 3.727-5.024 2.236-1.88-1.272-1.588-4.503.522-5.377z"/></g></svg>