<svg xmlns="http://www.w3.org/2000/svg" width="100" height="100" viewBox="0 0 100 100"><path fill="none" d="M53.631 66.343V48.182h9.237V68.11c.462.074.923.154 1.395.209.102-.139.313-.402.415-.535a25.324 25.324 0 0 0 3.023-6.11c.468-1.692.908-3.401 1.068-5.155a26.179 26.179 0 0 0-.426-8.025c-.175-.791-.391-1.582-.603-2.367-.718-2.004-1.562-3.977-2.743-5.759-.236-.367-.529-.757-1.01-.776-1.234-.246-2.502-.259-3.742-.425 1.246.059 2.492.037 3.736-.102-2.604-3.309-6.464-5.806-10.733-6.12-1.878-.274-3.78-.188-5.658-.003l-.576.083c-1.825.219-3.558.896-5.162 1.77a14.601 14.601 0 0 0-3.629 3.087 44.385 44.385 0 0 0-1.872 2.487 26.527 26.527 0 0 0-1.847 3.694c-.339.92-.653 1.847-.908 2.798-.194.875-.416 1.746-.606 2.625-.871 5.021-.265 10.284 1.85 14.926 6.327-.199 12.588.779 18.791 1.931z"/><path fill="#74A663" d="M80.444 73.361c-5.155.529-10.3-.502-15.311-1.61-.083-.019-.259-.062-.348-.08-.988-.243-1.989-.446-2.983-.696-1.332-.341-2.681-.621-4.008-.987-.391-.096-.778-.2-1.163-.305-3.151-.776-6.322-1.453-9.508-2.087-2.706-.604-5.47-.887-8.225-1.21-3.238-.425-6.51-.29-9.764-.167-.566.044-1.13.108-1.69.182-3.992.385-7.853 1.479-11.648 2.737-2.222 1.013-4.306 2.309-6.492 3.392 1.293.013 2.413-.686 3.62-1.024 4.891-1.45 9.976-2.118 15.055-2.481 2.866-.016 5.731-.006 8.6.12 2.798.283 5.593.622 8.357 1.17 3.398.72 6.732 1.696 10.039 2.765 6.208 1.732 12.589 3.287 19.081 3.124 3.659-.062 7.455-.739 10.54-2.819.756-.493 1.345-1.197 1.865-1.924-1.877.982-3.902 1.669-6.017 1.9z"/><path fill="#3553A0" d="M27.5 37.248c.231-1.955.468-3.919.819-5.858 1.887-.526 3.903-.326 5.79-.791-1.902-.342-3.857-.299-5.729-.782-.468-2.09-.437-4.224-.705-6.332.015 2.118-.345 4.214-.764 6.286-1.397.511-2.872.662-4.346.702 1.45.277 2.961.262 4.337.88.287 1.958.416 3.928.598 5.895zM29.135 66.219c3.253-.123 6.526-.258 9.764.167 2.755.323 5.52.606 8.225 1.21 3.186.634 6.357 1.311 9.508 2.087.385.104.772.209 1.163.305 1.327.366 2.676.646 4.008.987.994.25 1.995.453 2.983.696.089.019.265.062.348.08 3.078.203 6.175.265 9.259.083.927.01 1.841-.228 2.765-.308 1.237-.233 2.432-.634 3.629-1.022 1.438-.437 2.722-1.277 3.835-2.277 0-.176-.009-.526-.009-.699-1.487.594-3.084.859-4.534 1.512-.994.046-1.973.213-2.951.357-1.266.082-2.54.03-3.803.086-.68-.086-1.366-.086-2.049-.123.107-.326.199-.665.375-.957 1.077-1.779 2.025-3.673 2.576-5.683l.234-.742c1.191-3.456 1.154-7.175.88-10.776a24.204 24.204 0 0 0-1.696-6.369 8.999 8.999 0 0 1-.643-2.192c.126-.683.283-1.363.412-2.05 3.562-.687 7.228-.917 10.851-.822-3.396-.416-6.846-.561-10.198-1.299a6.024 6.024 0 0 1-.699-.286c-.341-2.921-.763-5.839-.855-8.782-.219 2.974-.677 5.935-1.286 8.859-.21.049-.649.147-.865.2-2.567-3.192-5.698-5.965-9.397-7.775-3.709-1.832-7.904-2.484-12.014-2.382-.853.052-1.77-.104-2.542.314-2.148.126-4.306.649-6.249 1.573-1.099.335-2.124.905-3.063 1.57-1.391.807-2.764 1.773-3.805 3.026l-.123-.003c-1.077 1.148-2.124 2.336-2.97 3.669-.856 1.309-1.625 2.681-2.195 4.134a29.21 29.21 0 0 0-1.25 3.857c-.314 1.231-.496 2.493-.656 3.752a8.365 8.365 0 0 0-.003.853c-.32 2.836.031 5.707.604 8.49.443 1.871 1.065 3.696 1.794 5.476-.791.153-1.585.312-2.373.472-3.562.8-7.095 1.904-10.321 3.653 3.795-1.259 7.656-2.353 11.648-2.737.558-.076 1.121-.14 1.688-.184zm30.929-6.948a.9.9 0 1 1 1.802 0 .9.9 0 1 1-1.802 0zm-27.072-9.785c.191-.88.413-1.751.606-2.625.255-.951.569-1.877.908-2.798a26.527 26.527 0 0 1 1.847-3.694 43.903 43.903 0 0 1 1.872-2.487 14.601 14.601 0 0 1 3.629-3.087c1.604-.874 3.337-1.551 5.162-1.77l.576-.083c1.878-.185 3.78-.271 5.658.003 4.27.314 8.13 2.811 10.733 6.12-1.244.139-2.49.16-3.736.102 1.24.166 2.508.179 3.742.425.48.019.773.409 1.01.776 1.182 1.782 2.025 3.755 2.743 5.759.212.785.428 1.576.603 2.367.558 2.635.693 5.347.426 8.025-.16 1.754-.601 3.463-1.068 5.155a25.305 25.305 0 0 1-3.023 6.11c-.102.133-.313.396-.415.535-.472-.055-.933-.135-1.395-.209V48.182h-9.237v18.161c-6.203-1.151-12.463-2.13-18.789-1.931-2.117-4.641-2.723-9.905-1.852-14.926z"/><circle fill="#FFF" cx="60.966" cy="59.271" r=".901"/></svg>