<svg xmlns="http://www.w3.org/2000/svg" viewBox="0 0 1500 1500"><path fill="#293792" d="M159 880.7V740.9l539.6 312.2L1422 635.5v-65.1L805.5 214.2 76 639.4v291.1l137 81.4v-92.7l-54-38.5zm485.8-371.6l74.7-42.1 120.9 70.2 101.3-58.7 72.8 42.1L914 579.9l125.4 72.8-76.6 44.1-123.5-72.9-240.5 141.9-76.6-44 243.5-141.2-120.9-71.5z"/><path fill="#293792" d="M695.7 1192.9L433 1042.3v92.9l260.8 149.6L1422 863.5v-88.1z"/><path fill="#FFAF3A" d="M213 919.2v227.7l81.8-9.6 97.2 109.2V965l-179-99.6z"/><path fill="#FFF" d="M598.8 765.8l240.4-141.9 123.5 72.9 76.6-44-125.4-72.9 100.5-59.3-72.8-42.1-101.2 58.7L719.5 467l-74.7 42.1 120.9 71.4-243.5 141.2z"/></svg>