<svg xmlns="http://www.w3.org/2000/svg" width="100" height="100" viewBox="0 0 100 100"><path fill="#A43F36" d="M41.157 13.583c-1.017-.574-1.042 4.556-.689 7.202.559 4.189 1.601 7.642 4.537 10.66 1.629 1.673 3.076 2.458 4.31 4.589.834 1.441 1.278 3.134 1.446 4.686.078.694 2.715-5.356 3.076-7.313.844-4.522 1.557-8.596-2.705-11.455-2.969-1.986-11.787-1.557-9.984-8.297.004-.014.028-.12.009-.072z"/><path fill="#A43F36" d="M39.248 28.272c-.626-.352-.641 2.82-.424 4.45.347 2.584.984 4.72 2.801 6.581 1.002 1.032 1.895 1.519 2.661 2.835.511.892.786 1.933.892 2.893.048.429 1.673-3.302 1.899-4.513.516-2.791.959-5.312-1.673-7.072-1.832-1.229-7.275-.964-6.162-5.125.001-.01.015-.073.006-.049zM60.287 17.387c-.285-.661-2.219 1.851-3.033 3.283-1.287 2.271-2.068 4.358-1.745 6.937.174 1.432.589 2.358.4 3.867-.13 1.022-.54 2.015-1.042 2.844-.217.371 3.336-1.62 4.248-2.444 2.102-1.914 3.973-3.649 2.945-6.643-.719-2.087-5.211-5.168-1.808-7.81.006-.005.059-.049.035-.034z"/><path fill="#394596" d="M57.201 85.83H45.539V47.817l11.662-10.008z"/><path fill="#4E4D5F" d="M43.905 85.777h-5.12V57.092l5.12-4.392zM59.047 85.777h5.115V57.092L59.047 52.7z"/></svg>