<svg xmlns:xlink="http://www.w3.org/1999/xlink"  xmlns="http://www.w3.org/2000/svg" viewBox="0 0 1500 1500"><path fill="#718F40" d="M624.1 1267.5c28.5 19.5 148.1 95.9 276 93.9l5.3-.1v3.3c75.1-17.9 145.2-49.1 209.2-92.2-178.1 4.3-372.9-136.1-437.7-187.2-36.1 84.4-48.6 149.2-52.8 182.3z"/><path fill="#0081C3" d="M584.9 1262.5c10.2-88.3 71.8-379.3 440.3-671-8.9-46.1-39-157.8-132.6-268.2-384.1 349.8-533.6 825-554 895 38.8 22.6 133.3 67 246.3 44.2z"/><path fill="#D77D31" d="M1066.2 598.3c40.2 21 136.6 68.7 224.4 92.8-2.3-73.2-34.8-370.1-398.3-582.5-45.1-9.7-91.1-14.7-136.8-14.7-33.7 0-67.8 3.3-101.8 8.7 339.5 147.7 402.7 432.9 412.5 495.7z"/><path fill="#B86645" d="M1330 700.3c27.9 5.1 50.9 5.9 68.8 2.6-12.8-236.7-155.5-446.8-368.4-547.3C1315 380.2 1329.8 651.9 1330 700.3z"/><path fill="#6CAB36" d="M796.7 879.5c-40.8 55-75.4 111.7-102.9 168.8 52.3 41.9 284.2 216.8 464.5 180.5 1.4-.3 2.8 0 4 .8 1.2.8 2 2 2.3 3.4 0 0 .3 1.5.4 2.1 78.6-64.9 141-147.7 181.4-240.7-169.3 26.4-479.3-87.7-549.7-114.9z"/><path fill="#255AA8" d="M437.8 1298.5c96.8 55 205.8 84.2 317.7 84.2 0 0 9.9-.4 18-.8-85.7-25.3-151.9-68.3-172-82.2-54 12.3-108.9 11.1-163.7-1.2z"/><path fill="#8FCF69" d="M1040.8 629.5C956.7 697.1 883.2 770.2 822 846.9c99.5 37.5 400 143 540.4 104.8 0 0 .7-.2 1-.3 23.6-67.1 35.9-137.4 36.3-209.1-110.8 14.8-311.8-87.7-358.9-112.8z"/><path fill="#00A9DE" d="M866.4 294.2c-37.3-38.8-80.2-73.5-127.8-103.3-504.9 240.4-571.9 778.2-574.5 801 0 0-.1 1.1-.2 2.1 33 76.3 80.2 144.6 140 203.4 32.4-107.2 186.4-560.8 562.5-903.2z"/><path fill="#00A9DE" d="M698 167.6c-35.4-19.1-73.4-36.2-113.6-50.6C305.6 193.6 111 448.8 111 738.3c0 61.4 9.2 122.1 26.4 180.9C169.5 771.6 292 373.9 698 167.6z"/></svg>