<svg xmlns:xlink="http://www.w3.org/1999/xlink"  xmlns="http://www.w3.org/2000/svg" viewBox="0 0 1500 1500"><linearGradient id="a" gradientUnits="userSpaceOnUse" x1="198.954" y1="971.717" x2="544.82" y2="959.095"><stop offset="0" stop-color="#ffc03b"/><stop offset="1" stop-color="#fd4f57"/></linearGradient><path fill="url(#a)" d="M319 970.4c-2-2-4-3.9-5.9-5.9 1.9 2 3.9 3.9 5.9 5.9z"/><linearGradient id="b" gradientUnits="userSpaceOnUse" x1="198.365" y1="955.591" x2="544.227" y2="942.969"><stop offset="0" stop-color="#ffc03b"/><stop offset="1" stop-color="#fd4f57"/></linearGradient><path fill="url(#b)" d="M303.4 954.4l-4.8-5.1 4.8 5.1z"/><linearGradient id="c" gradientUnits="userSpaceOnUse" x1="206.559" y1="1180.128" x2="552.421" y2="1167.506"><stop offset="0" stop-color="#ffc03b"/><stop offset="1" stop-color="#fd4f57"/></linearGradient><path fill="url(#c)" d="M595.3 1169.7c-4.2-2.4-8.4-4.8-12.5-7.1 4.1 2.4 8.3 4.8 12.5 7.1z"/><linearGradient id="d" gradientUnits="userSpaceOnUse" x1="172.752" y1="253.75" x2="518.614" y2="241.129"><stop offset="0" stop-color="#ffc03b"/><stop offset="1" stop-color="#fd4f57"/></linearGradient><path fill="url(#d)" d="M746.8 233.9c2-.8 4-1.6 5.9-2.4-1.9.8-3.9 1.6-5.9 2.4z"/><linearGradient id="e" gradientUnits="userSpaceOnUse" x1="214.298" y1="1392.171" x2="560.159" y2="1379.549"><stop offset="0" stop-color="#ffc03b"/><stop offset="1" stop-color="#fd4f57"/></linearGradient><path fill="url(#e)" d="M1015.7 1367c-6.2-2.5-12.3-4.9-18.4-7.4 6.2 2.4 12.2 4.9 18.4 7.4z"/><linearGradient id="f" gradientUnits="userSpaceOnUse" x1="189.051" y1="700.373" x2="534.913" y2="687.751"><stop offset="0" stop-color="#ffc03b"/><stop offset="1" stop-color="#fd4f57"/></linearGradient><path fill="url(#f)" d="M193.2 702.7c.1-1.6.3-3.3.4-4.9-.1 1.6-.3 3.2-.4 4.9z"/><linearGradient id="g" gradientUnits="userSpaceOnUse" x1="181.849" y1="503.018" x2="527.711" y2="490.397"><stop offset="0" stop-color="#ffc03b"/><stop offset="1" stop-color="#fd4f57"/></linearGradient><path fill="url(#g)" d="M298.6 500.6c1.2-1.3 2.5-2.5 3.8-3.8l-3.8 3.8z"/><linearGradient id="h" gradientUnits="userSpaceOnUse" x1="178.833" y1="420.364" x2="524.694" y2="407.742"><stop offset="0" stop-color="#ffc03b"/><stop offset="1" stop-color="#fd4f57"/></linearGradient><path fill="url(#h)" d="M402.8 413.4c1.2-.9 2.5-1.8 3.8-2.6-1.3.9-2.6 1.8-3.8 2.6z"/><linearGradient id="i" gradientUnits="userSpaceOnUse" x1="189.533" y1="713.559" x2="535.394" y2="700.937"><stop offset="0" stop-color="#ffc03b"/><stop offset="1" stop-color="#fd4f57"/></linearGradient><path fill="url(#i)" d="M192.5 716c0-1.7.1-3.4.2-5.1-.1 1.7-.1 3.4-.2 5.1z"/><linearGradient id="j" gradientUnits="userSpaceOnUse" x1="179.199" y1="430.386" x2="525.06" y2="417.764"><stop offset="0" stop-color="#ffc03b"/><stop offset="1" stop-color="#fd4f57"/></linearGradient><path fill="url(#j)" d="M389.1 423.3c.5-.4 1.1-.8 1.7-1.2-.6.4-1.2.8-1.7 1.2z"/><linearGradient id="k" gradientUnits="userSpaceOnUse" x1="200.129" y1="1003.914" x2="545.99" y2="991.292"><stop offset="0" stop-color="#ffc03b"/><stop offset="1" stop-color="#fd4f57"/></linearGradient><path fill="url(#k)" d="M352.3 1001.7c-2.4-2.1-4.8-4.3-7.1-6.4 2.3 2.1 4.7 4.3 7.1 6.4z"/><linearGradient id="l" gradientUnits="userSpaceOnUse" x1="172.535" y1="247.779" x2="518.396" y2="235.157"><stop offset="0" stop-color="#ffc03b"/><stop offset="1" stop-color="#fd4f57"/></linearGradient><path fill="url(#l)" d="M763.1 227.4c2.1-.8 4.2-1.7 6.3-2.5-2.1.8-4.2 1.6-6.3 2.5z"/><linearGradient id="m" gradientUnits="userSpaceOnUse" x1="215.016" y1="1411.867" x2="560.878" y2="1399.245"><stop offset="0" stop-color="#ffc03b"/><stop offset="1" stop-color="#fd4f57"/></linearGradient><path fill="url(#m)" d="M1061 1384.9c-6-2.4-12-4.7-17.9-7.1 5.9 2.3 11.8 4.7 17.9 7.1z"/><linearGradient id="n" gradientUnits="userSpaceOnUse" x1="188.091" y1="674.059" x2="533.952" y2="661.437"><stop offset="0" stop-color="#ffc03b"/><stop offset="1" stop-color="#fd4f57"/></linearGradient><path fill="url(#n)" d="M196.9 675.5c.2-1.2.4-2.4.7-3.6-.3 1.2-.4 2.4-.7 3.6z"/><linearGradient id="o" gradientUnits="userSpaceOnUse" x1="213.588" y1="1372.729" x2="559.449" y2="1360.107"><stop offset="0" stop-color="#ffc03b"/><stop offset="1" stop-color="#fd4f57"/></linearGradient><path fill="url(#o)" d="M971.8 1349.1c-6.1-2.5-12.1-5-18.1-7.5 6 2.5 12 5 18.1 7.5z"/><linearGradient id="p" gradientUnits="userSpaceOnUse" x1="188.572" y1="687.249" x2="534.434" y2="674.627"><stop offset="0" stop-color="#ffc03b"/><stop offset="1" stop-color="#fd4f57"/></linearGradient><path fill="url(#p)" d="M194.7 689.2l.6-4.5c-.3 1.6-.4 3.1-.6 4.5z"/><linearGradient id="q" gradientUnits="userSpaceOnUse" x1="190.019" y1="726.878" x2="535.88" y2="714.256"><stop offset="0" stop-color="#ffc03b"/><stop offset="1" stop-color="#fd4f57"/></linearGradient><path fill="url(#q)" d="M192.6 729.4c-.1-1.7-.1-3.4-.1-5.2 0 1.7 0 3.4.1 5.2z"/><linearGradient id="r" gradientUnits="userSpaceOnUse" x1="201.323" y1="1036.636" x2="547.184" y2="1024.014"><stop offset="0" stop-color="#ffc03b"/><stop offset="1" stop-color="#fd4f57"/></linearGradient><path fill="url(#r)" d="M389.5 1033.1c-2.7-2.1-5.2-4.3-7.8-6.4 2.5 2.1 5.1 4.3 7.8 6.4z"/><linearGradient id="s" gradientUnits="userSpaceOnUse" x1="190.511" y1="740.366" x2="536.372" y2="727.745"><stop offset="0" stop-color="#ffc03b"/><stop offset="1" stop-color="#fd4f57"/></linearGradient><path fill="url(#s)" d="M193.4 742.8c-.2-1.7-.3-3.4-.4-5.1.1 1.7.2 3.4.4 5.1z"/><linearGradient id="t" gradientUnits="userSpaceOnUse" x1="191.012" y1="754.102" x2="536.874" y2="741.48"><stop offset="0" stop-color="#ffc03b"/><stop offset="1" stop-color="#fd4f57"/></linearGradient><path fill="url(#t)" d="M195 756.3c-.2-1.6-.4-3.2-.6-4.7.2 1.6.3 3.2.6 4.7z"/><linearGradient id="u" gradientUnits="userSpaceOnUse" x1="178.154" y1="401.801" x2="524.015" y2="389.18"><stop offset="0" stop-color="#ffc03b"/><stop offset="1" stop-color="#fd4f57"/></linearGradient><path fill="url(#u)" d="M431.1 394.1z"/><linearGradient id="v" gradientUnits="userSpaceOnUse" x1="211.494" y1="1315.335" x2="557.355" y2="1302.714"><stop offset="0" stop-color="#ffc03b"/><stop offset="1" stop-color="#fd4f57"/></linearGradient><path fill="url(#v)" d="M847.8 1296z"/><linearGradient id="w" gradientUnits="userSpaceOnUse" x1="171.285" y1="213.543" x2="517.147" y2="200.921"><stop offset="0" stop-color="#ffc03b"/><stop offset="1" stop-color="#fd4f57"/></linearGradient><path fill="url(#w)" d="M865.2 189l5.1-1.8-5.1 1.8z"/><linearGradient id="x" gradientUnits="userSpaceOnUse" x1="173.209" y1="266.262" x2="519.071" y2="253.641"><stop offset="0" stop-color="#ffc03b"/><stop offset="1" stop-color="#fd4f57"/></linearGradient><path fill="url(#x)" d="M713.7 247.5l5.1-2.1c-1.6.7-3.3 1.4-5.1 2.1z"/><linearGradient id="y" gradientUnits="userSpaceOnUse" x1="172.977" y1="259.916" x2="518.839" y2="247.294"><stop offset="0" stop-color="#ffc03b"/><stop offset="1" stop-color="#fd4f57"/></linearGradient><path fill="url(#y)" d="M730.4 240.6c1.8-.8 3.7-1.5 5.5-2.2-1.9.7-3.7 1.4-5.5 2.2z"/><linearGradient id="z" gradientUnits="userSpaceOnUse" x1="215.756" y1="1432.129" x2="561.617" y2="1419.507"><stop offset="0" stop-color="#ffc03b"/><stop offset="1" stop-color="#fd4f57"/></linearGradient><path fill="url(#z)" d="M1107.5 1402.8c-5.1-1.9-10.1-3.9-15.2-5.8 5.1 1.9 10 3.8 15.2 5.8z"/><linearGradient id="A" gradientUnits="userSpaceOnUse" x1="178.489" y1="410.942" x2="524.351" y2="398.32"><stop offset="0" stop-color="#ffc03b"/><stop offset="1" stop-color="#fd4f57"/></linearGradient><path fill="url(#A)" d="M416.7 403.7c1.5-1.1 3.1-2.1 4.7-3.2-1.6 1.1-3.1 2.2-4.7 3.2z"/><linearGradient id="B" gradientUnits="userSpaceOnUse" x1="212.885" y1="1353.448" x2="558.746" y2="1340.827"><stop offset="0" stop-color="#ffc03b"/><stop offset="1" stop-color="#fd4f57"/></linearGradient><path fill="url(#B)" d="M929.2 1331.4l-17.7-7.5 17.7 7.5z"/><linearGradient id="C" gradientUnits="userSpaceOnUse" x1="170.303" y1="186.637" x2="516.165" y2="174.015"><stop offset="0" stop-color="#ffc03b"/><stop offset="1" stop-color="#fd4f57"/></linearGradient><path fill="url(#C)" d="M953.7 159c2.1-.7 4.3-1.4 6.4-2.1-2.1.7-4.3 1.4-6.4 2.1z"/><linearGradient id="D" gradientUnits="userSpaceOnUse" x1="212.187" y1="1334.348" x2="558.049" y2="1321.726"><stop offset="0" stop-color="#ffc03b"/><stop offset="1" stop-color="#fd4f57"/></linearGradient><path fill="url(#D)" d="M888.1 1313.7c-5.7-2.5-11.5-5-17.1-7.5 5.6 2.5 11.3 5 17.1 7.5z"/><linearGradient id="E" gradientUnits="userSpaceOnUse" x1="185.692" y1="608.32" x2="531.553" y2="595.699"><stop offset="0" stop-color="#ffc03b"/><stop offset="1" stop-color="#fd4f57"/></linearGradient><path fill="url(#E)" d="M219.3 609.3c.7-1.5 1.5-3 2.2-4.5-.7 1.5-1.5 3-2.2 4.5z"/><linearGradient id="F" gradientUnits="userSpaceOnUse" x1="191.98" y1="780.608" x2="537.841" y2="767.986"><stop offset="0" stop-color="#ffc03b"/><stop offset="1" stop-color="#fd4f57"/></linearGradient><path fill="url(#F)" d="M1114.8 1396.4C898.8 1261.5-57.9 597 1175.5 95.3c0 0-37.3 8.8-97.4 25.8 16-4.5 30.4-8.5 42.8-11.8-500 172.4-1477.9 636.6-6.1 1287.1z"/><linearGradient id="G" gradientUnits="userSpaceOnUse" x1="169.474" y1="163.903" x2="515.335" y2="151.281"><stop offset="0" stop-color="#ffc03b"/><stop offset="1" stop-color="#fd4f57"/></linearGradient><path fill="url(#G)" d="M1036.6 133.2c2.4-.7 4.8-1.4 7.1-2.1-2.3.7-4.7 1.4-7.1 2.1z"/><linearGradient id="H" gradientUnits="userSpaceOnUse" x1="180.713" y1="471.882" x2="526.574" y2="459.261"><stop offset="0" stop-color="#ffc03b"/><stop offset="1" stop-color="#fd4f57"/></linearGradient><path fill="url(#H)" d="M333.2 468c1.3-1.2 2.7-2.4 4-3.5-1.3 1.2-2.7 2.3-4 3.5z"/><linearGradient id="I" gradientUnits="userSpaceOnUse" x1="171.913" y1="230.736" x2="517.774" y2="218.114"><stop offset="0" stop-color="#ffc03b"/><stop offset="1" stop-color="#fd4f57"/></linearGradient><path fill="url(#I)" d="M812.5 208.3c1.8-.7 3.6-1.4 5.4-2-1.8.6-3.6 1.3-5.4 2z"/><linearGradient id="J" gradientUnits="userSpaceOnUse" x1="169.988" y1="178.006" x2="515.85" y2="165.384"><stop offset="0" stop-color="#ffc03b"/><stop offset="1" stop-color="#fd4f57"/></linearGradient><path fill="url(#J)" d="M981.5 150.1c4.1-1.3 8.2-2.6 12.2-3.8-4 1.2-8.1 2.5-12.2 3.8z"/><linearGradient id="K" gradientUnits="userSpaceOnUse" x1="186.134" y1="620.436" x2="531.996" y2="607.814"><stop offset="0" stop-color="#ffc03b"/><stop offset="1" stop-color="#fd4f57"/></linearGradient><path fill="url(#K)" d="M213.7 621.5c.6-1.4 1.3-2.9 1.9-4.3-.6 1.5-1.3 2.9-1.9 4.3z"/><linearGradient id="L" gradientUnits="userSpaceOnUse" x1="169.703" y1="170.198" x2="515.565" y2="157.576"><stop offset="0" stop-color="#ffc03b"/><stop offset="1" stop-color="#fd4f57"/></linearGradient><path fill="url(#L)" d="M1012.4 140.5c2.6-.8 5.2-1.6 7.7-2.3-2.5.7-5.1 1.5-7.7 2.3z"/><linearGradient id="M" gradientUnits="userSpaceOnUse" x1="185.257" y1="596.4" x2="531.119" y2="583.778"><stop offset="0" stop-color="#ffc03b"/><stop offset="1" stop-color="#fd4f57"/></linearGradient><path fill="url(#M)" d="M225.5 597.1c.8-1.5 1.6-3 2.4-4.4-.8 1.4-1.6 2.9-2.4 4.4z"/><linearGradient id="N" gradientUnits="userSpaceOnUse" x1="171.709" y1="225.155" x2="517.57" y2="212.533"><stop offset="0" stop-color="#ffc03b"/><stop offset="1" stop-color="#fd4f57"/></linearGradient><path fill="url(#N)" d="M830 201.8c1.3-.5 2.6-1 3.9-1.4-1.4.4-2.7.9-3.9 1.4z"/><linearGradient id="O" gradientUnits="userSpaceOnUse" x1="181.087" y1="482.123" x2="526.948" y2="469.502"><stop offset="0" stop-color="#ffc03b"/><stop offset="1" stop-color="#fd4f57"/></linearGradient><path fill="url(#O)" d="M321.2 478.8c1.4-1.3 2.7-2.5 4.1-3.7-1.4 1.2-2.8 2.5-4.1 3.7z"/><linearGradient id="P" gradientUnits="userSpaceOnUse" x1="169.587" y1="167.02" x2="515.449" y2="154.398"><stop offset="0" stop-color="#ffc03b"/><stop offset="1" stop-color="#fd4f57"/></linearGradient><path fill="url(#P)" d="M1024.5 136.8c2.5-.8 5-1.5 7.5-2.3-2.5.8-4.9 1.5-7.5 2.3z"/><linearGradient id="Q" gradientUnits="userSpaceOnUse" x1="181.465" y1="492.492" x2="527.327" y2="479.87"><stop offset="0" stop-color="#ffc03b"/><stop offset="1" stop-color="#fd4f57"/></linearGradient><path fill="url(#Q)" d="M309.6 489.7c1.3-1.3 2.7-2.6 4-3.8-1.3 1.2-2.6 2.5-4 3.8z"/><linearGradient id="R" gradientUnits="userSpaceOnUse" x1="169.17" y1="155.583" x2="515.032" y2="142.962"><stop offset="0" stop-color="#ffc03b"/><stop offset="1" stop-color="#fd4f57"/></linearGradient><path fill="url(#R)" d="M1069 123.7c2.7-.8 5.4-1.5 8-2.3-2.7.8-5.3 1.6-8 2.3z"/><linearGradient id="S" gradientUnits="userSpaceOnUse" x1="187.066" y1="645.974" x2="532.928" y2="633.353"><stop offset="0" stop-color="#ffc03b"/><stop offset="1" stop-color="#fd4f57"/></linearGradient><path fill="url(#S)" d="M204.4 646.4c.2-.7.5-1.4.7-2.1-.3.7-.5 1.4-.7 2.1z"/><linearGradient id="T" gradientUnits="userSpaceOnUse" x1="172.322" y1="241.966" x2="518.184" y2="229.344"><stop offset="0" stop-color="#ffc03b"/><stop offset="1" stop-color="#fd4f57"/></linearGradient><path fill="url(#T)" d="M779.5 220.9l6.3-2.4-6.3 2.4z"/><linearGradient id="U" gradientUnits="userSpaceOnUse" x1="170.159" y1="182.689" x2="516.021" y2="170.067"><stop offset="0" stop-color="#ffc03b"/><stop offset="1" stop-color="#fd4f57"/></linearGradient><path fill="url(#U)" d="M967.6 154.5z"/><linearGradient id="V" gradientUnits="userSpaceOnUse" x1="171.481" y1="218.917" x2="517.343" y2="206.296"><stop offset="0" stop-color="#ffc03b"/><stop offset="1" stop-color="#fd4f57"/></linearGradient><path fill="url(#V)" d="M849.6 194.6c.9-.3 1.8-.6 2.7-1-.9.4-1.8.7-2.7 1z"/><linearGradient id="W" gradientUnits="userSpaceOnUse" x1="179.97" y1="451.534" x2="525.832" y2="438.913"><stop offset="0" stop-color="#ffc03b"/><stop offset="1" stop-color="#fd4f57"/></linearGradient><path fill="url(#W)" d="M359.3 446.1c1-.8 1.9-1.6 2.9-2.4-.9.8-1.9 1.6-2.9 2.4z"/><linearGradient id="X" gradientUnits="userSpaceOnUse" x1="187.572" y1="659.842" x2="533.434" y2="647.221"><stop offset="0" stop-color="#ffc03b"/><stop offset="1" stop-color="#fd4f57"/></linearGradient><path fill="url(#X)" d="M200.5 659.5c0-.1 0-.1.1-.2 0 0 0 .1-.1.2z"/><linearGradient id="Y" gradientUnits="userSpaceOnUse" x1="180.343" y1="461.733" x2="526.204" y2="449.112"><stop offset="0" stop-color="#ffc03b"/><stop offset="1" stop-color="#fd4f57"/></linearGradient><path fill="url(#Y)" d="M345.8 457.2c1.3-1.1 2.5-2.1 3.8-3.2-1.3 1.1-2.6 2.2-3.8 3.2z"/><linearGradient id="Z" gradientUnits="userSpaceOnUse" x1="199.54" y1="987.769" x2="545.401" y2="975.147"><stop offset="0" stop-color="#ffc03b"/><stop offset="1" stop-color="#fd4f57"/></linearGradient><path fill="url(#Z)" d="M335.2 986.1l-6.6-6.3c2.1 2.1 4.3 4.2 6.6 6.3z"/><linearGradient id="aa" gradientUnits="userSpaceOnUse" x1="172.117" y1="236.321" x2="517.978" y2="223.699"><stop offset="0" stop-color="#ffc03b"/><stop offset="1" stop-color="#fd4f57"/></linearGradient><path fill="url(#aa)" d="M795.7 214.6l6.3-2.4-6.3 2.4z"/><linearGradient id="ab" gradientUnits="userSpaceOnUse" x1="169.265" y1="158.193" x2="515.127" y2="145.571"><stop offset="0" stop-color="#ffc03b"/><stop offset="1" stop-color="#fd4f57"/></linearGradient><path fill="url(#ab)" d="M1058.7 126.7c2.6-.8 5.2-1.5 7.7-2.2-2.5.7-5.1 1.5-7.7 2.2z"/><linearGradient id="ac" gradientUnits="userSpaceOnUse" x1="169.366" y1="160.942" x2="515.227" y2="148.32"><stop offset="0" stop-color="#ffc03b"/><stop offset="1" stop-color="#fd4f57"/></linearGradient><path fill="url(#ac)" d="M1048 129.8c2.5-.7 5-1.5 7.5-2.2-2.5.8-5 1.5-7.5 2.2z"/><linearGradient id="ad" gradientUnits="userSpaceOnUse" x1="186.587" y1="632.856" x2="532.449" y2="620.234"><stop offset="0" stop-color="#ffc03b"/><stop offset="1" stop-color="#fd4f57"/></linearGradient><path fill="url(#ad)" d="M208.7 633.9c.5-1.3 1-2.5 1.5-3.7-.5 1.2-1 2.4-1.5 3.7z"/><linearGradient id="ae" gradientUnits="userSpaceOnUse" x1="203.985" y1="1109.576" x2="549.846" y2="1096.955"><stop offset="0" stop-color="#ffc03b"/><stop offset="1" stop-color="#fd4f57"/></linearGradient><path fill="url(#ae)" d="M484.4 1102c-2.5-1.7-5.1-3.3-7.5-5 2.4 1.6 5 3.3 7.5 5z"/><linearGradient id="af" gradientUnits="userSpaceOnUse" x1="183.977" y1="561.313" x2="529.838" y2="548.691"><stop offset="0" stop-color="#ffc03b"/><stop offset="1" stop-color="#fd4f57"/></linearGradient><path fill="url(#af)" d="M248.1 560.6c.8-1.1 1.6-2.3 2.4-3.4-.8 1.2-1.6 2.3-2.4 3.4z"/><linearGradient id="ag" gradientUnits="userSpaceOnUse" x1="174.781" y1="309.337" x2="520.643" y2="296.716"><stop offset="0" stop-color="#ffc03b"/><stop offset="1" stop-color="#fd4f57"/></linearGradient><path fill="url(#ag)" d="M608.6 294.8c1.9-.9 3.8-1.9 5.8-2.8-1.9.9-3.9 1.9-5.8 2.8z"/><linearGradient id="ah" gradientUnits="userSpaceOnUse" x1="197.075" y1="920.223" x2="542.936" y2="907.601"><stop offset="0" stop-color="#ffc03b"/><stop offset="1" stop-color="#fd4f57"/></linearGradient><path fill="url(#ah)" d="M272.6 919.2c-.9-1.1-1.7-2.2-2.6-3.3.9 1.1 1.7 2.2 2.6 3.3z"/><linearGradient id="ai" gradientUnits="userSpaceOnUse" x1="204.633" y1="1127.332" x2="550.494" y2="1114.71"><stop offset="0" stop-color="#ffc03b"/><stop offset="1" stop-color="#fd4f57"/></linearGradient><path fill="url(#ai)" d="M511.3 1119.4c-3.3-2.1-6.6-4.2-9.8-6.2 3.2 2.1 6.5 4.2 9.8 6.2z"/><linearGradient id="aj" gradientUnits="userSpaceOnUse" x1="176.549" y1="357.778" x2="522.41" y2="345.157"><stop offset="0" stop-color="#ffc03b"/><stop offset="1" stop-color="#fd4f57"/></linearGradient><path fill="url(#aj)" d="M510 346.1c.6-.3 1.1-.6 1.7-1-.6.3-1.1.6-1.7 1z"/><linearGradient id="ak" gradientUnits="userSpaceOnUse" x1="170.765" y1="199.298" x2="516.627" y2="186.677"><stop offset="0" stop-color="#ffc03b"/><stop offset="1" stop-color="#fd4f57"/></linearGradient><path fill="url(#ak)" d="M910.4 173.3c2.3-.8 4.5-1.5 6.8-2.3-2.3.8-4.5 1.6-6.8 2.3z"/><linearGradient id="al" gradientUnits="userSpaceOnUse" x1="195.924" y1="888.691" x2="541.785" y2="876.069"><stop offset="0" stop-color="#ffc03b"/><stop offset="1" stop-color="#fd4f57"/></linearGradient><path fill="url(#al)" d="M250.6 889.6c-1.3-1.9-2.5-3.7-3.7-5.6 1.2 1.8 2.4 3.7 3.7 5.6z"/><linearGradient id="am" gradientUnits="userSpaceOnUse" x1="171.104" y1="208.586" x2="516.966" y2="195.964"><stop offset="0" stop-color="#ffc03b"/><stop offset="1" stop-color="#fd4f57"/></linearGradient><path fill="url(#am)" d="M880.5 183.6l6-2.1-6 2.1z"/><linearGradient id="an" gradientUnits="userSpaceOnUse" x1="174.517" y1="302.098" x2="520.378" y2="289.477"><stop offset="0" stop-color="#ffc03b"/><stop offset="1" stop-color="#fd4f57"/></linearGradient><path fill="url(#an)" d="M625.2 286.9l5.7-2.7-5.7 2.7z"/><linearGradient id="ao" gradientUnits="userSpaceOnUse" x1="205.915" y1="1162.459" x2="551.776" y2="1149.837"><stop offset="0" stop-color="#ffc03b"/><stop offset="1" stop-color="#fd4f57"/></linearGradient><path fill="url(#ao)" d="M566.3 1153c-4-2.3-8-4.7-11.9-7 4 2.3 7.9 4.7 11.9 7z"/><linearGradient id="ap" gradientUnits="userSpaceOnUse" x1="205.273" y1="1144.872" x2="551.134" y2="1132.25"><stop offset="0" stop-color="#ffc03b"/><stop offset="1" stop-color="#fd4f57"/></linearGradient><path fill="url(#ap)" d="M538.3 1136.3c-3.7-2.2-7.4-4.5-11-6.7 3.7 2.2 7.4 4.4 11 6.7z"/><linearGradient id="aq" gradientUnits="userSpaceOnUse" x1="176.873" y1="366.668" x2="522.735" y2="354.046"><stop offset="0" stop-color="#ffc03b"/><stop offset="1" stop-color="#fd4f57"/></linearGradient><path fill="url(#aq)" d="M492.3 356.2c1.3-.8 2.6-1.5 3.9-2.3-1.3.8-2.6 1.6-3.9 2.3z"/><linearGradient id="ar" gradientUnits="userSpaceOnUse" x1="196.485" y1="904.078" x2="542.347" y2="891.457"><stop offset="0" stop-color="#ffc03b"/><stop offset="1" stop-color="#fd4f57"/></linearGradient><path fill="url(#ar)" d="M261.1 904.3c-1.3-1.7-2.4-3.4-3.7-5.1 1.3 1.7 2.5 3.4 3.7 5.1z"/><linearGradient id="as" gradientUnits="userSpaceOnUse" x1="169.829" y1="173.645" x2="515.691" y2="161.023"><stop offset="0" stop-color="#ffc03b"/><stop offset="1" stop-color="#fd4f57"/></linearGradient><path fill="url(#as)" d="M999.7 144.4c2.5-.8 5-1.5 7.5-2.3-2.5.7-4.9 1.5-7.5 2.3z"/><linearGradient id="at" gradientUnits="userSpaceOnUse" x1="201.933" y1="1053.343" x2="547.794" y2="1040.721"><stop offset="0" stop-color="#ffc03b"/><stop offset="1" stop-color="#fd4f57"/></linearGradient><path fill="url(#at)" d="M409.6 1048.9c-2.6-2-5.2-4-7.7-6 2.6 2 5.1 4 7.7 6z"/><linearGradient id="au" gradientUnits="userSpaceOnUse" x1="170.932" y1="203.871" x2="516.794" y2="191.25"><stop offset="0" stop-color="#ffc03b"/><stop offset="1" stop-color="#fd4f57"/></linearGradient><path fill="url(#au)" d="M895.6 178.4c2.1-.7 4.2-1.4 6.3-2.2-2.1.7-4.2 1.5-6.3 2.2z"/><linearGradient id="av" gradientUnits="userSpaceOnUse" x1="175.326" y1="324.27" x2="521.187" y2="311.648"><stop offset="0" stop-color="#ffc03b"/><stop offset="1" stop-color="#fd4f57"/></linearGradient><path fill="url(#av)" d="M575.9 310.9l5.4-2.7c-1.7.9-3.6 1.8-5.4 2.7z"/><linearGradient id="aw" gradientUnits="userSpaceOnUse" x1="183.541" y1="549.365" x2="529.402" y2="536.743"><stop offset="0" stop-color="#ffc03b"/><stop offset="1" stop-color="#fd4f57"/></linearGradient><path fill="url(#aw)" d="M257.7 547.6c.5-.6.9-1.3 1.4-1.9-.5.6-.9 1.2-1.4 1.9z"/><linearGradient id="ax" gradientUnits="userSpaceOnUse" x1="200.723" y1="1020.192" x2="546.584" y2="1007.57"><stop offset="0" stop-color="#ffc03b"/><stop offset="1" stop-color="#fd4f57"/></linearGradient><path fill="url(#ax)" d="M370.4 1017.4c-2.6-2.2-5.1-4.3-7.6-6.5 2.5 2.2 5 4.3 7.6 6.5z"/><linearGradient id="ay" gradientUnits="userSpaceOnUse" x1="175.611" y1="332.065" x2="521.472" y2="319.443"><stop offset="0" stop-color="#ffc03b"/><stop offset="1" stop-color="#fd4f57"/></linearGradient><path fill="url(#ay)" d="M559.8 319.2c1.6-.8 3.2-1.6 4.8-2.5-1.6.8-3.2 1.7-4.8 2.5z"/><linearGradient id="az" gradientUnits="userSpaceOnUse" x1="197.749" y1="938.711" x2="543.611" y2="926.089"><stop offset="0" stop-color="#ffc03b"/><stop offset="1" stop-color="#fd4f57"/></linearGradient><path fill="url(#az)" d="M287.3 936.7c-.7-.8-1.5-1.6-2.2-2.5.8.9 1.5 1.7 2.2 2.5z"/><linearGradient id="aA" gradientUnits="userSpaceOnUse" x1="203.261" y1="1089.755" x2="549.123" y2="1077.133"><stop offset="0" stop-color="#ffc03b"/><stop offset="1" stop-color="#fd4f57"/></linearGradient><path fill="url(#aA)" d="M453.2 1080.8c-.2-.1-.3-.2-.5-.4.2.2.3.3.5.4z"/><linearGradient id="aB" gradientUnits="userSpaceOnUse" x1="202.559" y1="1070.498" x2="548.42" y2="1057.877"><stop offset="0" stop-color="#ffc03b"/><stop offset="1" stop-color="#fd4f57"/></linearGradient><path fill="url(#aB)" d="M430.9 1064.8c-2.3-1.7-4.5-3.4-6.8-5.1 2.2 1.7 4.4 3.4 6.8 5.1z"/><linearGradient id="aC" gradientUnits="userSpaceOnUse" x1="175.051" y1="316.732" x2="520.912" y2="304.11"><stop offset="0" stop-color="#ffc03b"/><stop offset="1" stop-color="#fd4f57"/></linearGradient><path fill="url(#aC)" d="M592.1 302.9c2-1 3.9-1.9 5.9-2.9-2 .9-4 1.9-5.9 2.9z"/><linearGradient id="aD" gradientUnits="userSpaceOnUse" x1="175.905" y1="340.132" x2="521.766" y2="327.51"><stop offset="0" stop-color="#ffc03b"/><stop offset="1" stop-color="#fd4f57"/></linearGradient><path fill="url(#aD)" d="M543.8 327.6c1.2-.6 2.4-1.3 3.6-1.9-1.2.6-2.4 1.3-3.6 1.9z"/><linearGradient id="aE" gradientUnits="userSpaceOnUse" x1="182.649" y1="524.938" x2="528.511" y2="512.316"><stop offset="0" stop-color="#ffc03b"/><stop offset="1" stop-color="#fd4f57"/></linearGradient><path fill="url(#aE)" d="M278 522.7c.8-.9 1.6-1.7 2.3-2.6-.7.9-1.5 1.7-2.3 2.6z"/><linearGradient id="aF" gradientUnits="userSpaceOnUse" x1="184.401" y1="572.956" x2="530.263" y2="560.334"><stop offset="0" stop-color="#ffc03b"/><stop offset="1" stop-color="#fd4f57"/></linearGradient><path fill="url(#aF)" d="M239.9 572.9c.9-1.4 1.7-2.7 2.6-4-.9 1.3-1.8 2.7-2.6 4z"/><linearGradient id="aG" gradientUnits="userSpaceOnUse" x1="173.995" y1="287.787" x2="519.856" y2="275.166"><stop offset="0" stop-color="#ffc03b"/><stop offset="1" stop-color="#fd4f57"/></linearGradient><path fill="url(#aG)" d="M660.1 270.8c1.2-.6 2.5-1.1 3.7-1.7-1.2.6-2.4 1.2-3.7 1.7z"/><linearGradient id="aH" gradientUnits="userSpaceOnUse" x1="209.239" y1="1253.546" x2="555.1" y2="1240.924"><stop offset="0" stop-color="#ffc03b"/><stop offset="1" stop-color="#fd4f57"/></linearGradient><path fill="url(#aH)" d="M722.9 1237.3c-3.1-1.5-6-3-9.1-4.6 3 1.5 6 3 9.1 4.6z"/><linearGradient id="aI" gradientUnits="userSpaceOnUse" x1="210.797" y1="1296.236" x2="556.658" y2="1283.614"><stop offset="0" stop-color="#ffc03b"/><stop offset="1" stop-color="#fd4f57"/></linearGradient><path fill="url(#aI)" d="M807.9 1277.8c-4.5-2.1-9.2-4.2-13.7-6.3 4.5 2.1 9.1 4.2 13.7 6.3z"/><linearGradient id="aJ" gradientUnits="userSpaceOnUse" x1="193.76" y1="829.387" x2="539.621" y2="816.765"><stop offset="0" stop-color="#ffc03b"/><stop offset="1" stop-color="#fd4f57"/></linearGradient><path fill="url(#aJ)" d="M217.5 831.3l-2.4-5.4c.7 1.8 1.6 3.6 2.4 5.4z"/><linearGradient id="aK" gradientUnits="userSpaceOnUse" x1="182.242" y1="513.782" x2="528.103" y2="501.16"><stop offset="0" stop-color="#ffc03b"/><stop offset="1" stop-color="#fd4f57"/></linearGradient><path fill="url(#aK)" d="M288.1 511.6c1.1-1.2 2.2-2.3 3.3-3.5-1.1 1.2-2.2 2.3-3.3 3.5z"/><linearGradient id="aL" gradientUnits="userSpaceOnUse" x1="177.507" y1="384.023" x2="523.368" y2="371.401"><stop offset="0" stop-color="#ffc03b"/><stop offset="1" stop-color="#fd4f57"/></linearGradient><path fill="url(#aL)" d="M460.7 375.2c1.7-1 3.4-2.1 5.1-3.1-1.7 1-3.4 2-5.1 3.1z"/><linearGradient id="aM" gradientUnits="userSpaceOnUse" x1="208.539" y1="1234.371" x2="554.4" y2="1221.749"><stop offset="0" stop-color="#ffc03b"/><stop offset="1" stop-color="#fd4f57"/></linearGradient><path fill="url(#aM)" d="M689.1 1220.2z"/><linearGradient id="aN" gradientUnits="userSpaceOnUse" x1="170.453" y1="190.726" x2="516.314" y2="178.104"><stop offset="0" stop-color="#ffc03b"/><stop offset="1" stop-color="#fd4f57"/></linearGradient><path fill="url(#aN)" d="M939.3 163.7c2.3-.7 4.5-1.5 6.8-2.2-2.2.7-4.5 1.4-6.8 2.2z"/><linearGradient id="aO" gradientUnits="userSpaceOnUse" x1="173.453" y1="272.954" x2="519.315" y2="260.332"><stop offset="0" stop-color="#ffc03b"/><stop offset="1" stop-color="#fd4f57"/></linearGradient><path fill="url(#aO)" d="M697.3 254.5c1.2-.5 2.3-1 3.5-1.5-1.2.5-2.4 1-3.5 1.5z"/><linearGradient id="aP" gradientUnits="userSpaceOnUse" x1="193.227" y1="814.8" x2="539.089" y2="802.178"><stop offset="0" stop-color="#ffc03b"/><stop offset="1" stop-color="#fd4f57"/></linearGradient><path fill="url(#aP)" d="M211.3 816.6c-.6-1.6-1.3-3.2-1.9-4.8.6 1.6 1.2 3.2 1.9 4.8z"/><linearGradient id="aQ" gradientUnits="userSpaceOnUse" x1="192.685" y1="799.943" x2="538.546" y2="787.322"><stop offset="0" stop-color="#ffc03b"/><stop offset="1" stop-color="#fd4f57"/></linearGradient><path fill="url(#aQ)" d="M205.7 801.2c-.4-1.1-.8-2.3-1.2-3.4.4 1.1.8 2.3 1.2 3.4z"/><linearGradient id="aR" gradientUnits="userSpaceOnUse" x1="177.828" y1="392.839" x2="523.69" y2="380.217"><stop offset="0" stop-color="#ffc03b"/><stop offset="1" stop-color="#fd4f57"/></linearGradient><path fill="url(#aR)" d="M445.7 384.6c1.7-1.1 3.4-2.2 5.1-3.2-1.7 1-3.4 2.1-5.1 3.2z"/><linearGradient id="aS" gradientUnits="userSpaceOnUse" x1="210.076" y1="1276.498" x2="555.938" y2="1263.877"><stop offset="0" stop-color="#ffc03b"/><stop offset="1" stop-color="#fd4f57"/></linearGradient><path fill="url(#aS)" d="M766.4 1258.4c-2.8-1.3-5.7-2.7-8.5-4 2.7 1.3 5.6 2.6 8.5 4z"/><linearGradient id="aT" gradientUnits="userSpaceOnUse" x1="207.21" y1="1197.971" x2="553.072" y2="1185.349"><stop offset="0" stop-color="#ffc03b"/><stop offset="1" stop-color="#fd4f57"/></linearGradient><path fill="url(#aT)" d="M625.3 1186.5c-4.3-2.4-8.5-4.7-12.8-7.1 4.3 2.4 8.5 4.7 12.8 7.1z"/><linearGradient id="aU" gradientUnits="userSpaceOnUse" x1="194.831" y1="858.731" x2="540.692" y2="846.11"><stop offset="0" stop-color="#ffc03b"/><stop offset="1" stop-color="#fd4f57"/></linearGradient><path fill="url(#aU)" d="M232.3 860.3c-1.1-1.9-2.2-3.9-3.2-5.8 1 2 2.1 3.9 3.2 5.8z"/><linearGradient id="aV" gradientUnits="userSpaceOnUse" x1="170.607" y1="194.951" x2="516.468" y2="182.33"><stop offset="0" stop-color="#ffc03b"/><stop offset="1" stop-color="#fd4f57"/></linearGradient><path fill="url(#aV)" d="M924.8 168.5c2.3-.8 4.7-1.6 7-2.3-2.3.7-4.6 1.5-7 2.3z"/><linearGradient id="aW" gradientUnits="userSpaceOnUse" x1="177.19" y1="375.338" x2="523.051" y2="362.716"><stop offset="0" stop-color="#ffc03b"/><stop offset="1" stop-color="#fd4f57"/></linearGradient><path fill="url(#aW)" d="M476.1 365.8c1.6-1 3.2-1.9 4.9-2.9-1.7 1-3.3 1.9-4.9 2.9z"/><linearGradient id="aX" gradientUnits="userSpaceOnUse" x1="195.374" y1="873.615" x2="541.235" y2="860.994"><stop offset="0" stop-color="#ffc03b"/><stop offset="1" stop-color="#fd4f57"/></linearGradient><path fill="url(#aX)" d="M241 874.9c-1.2-1.9-2.4-3.9-3.5-5.8 1.1 2 2.3 3.9 3.5 5.8z"/><linearGradient id="aY" gradientUnits="userSpaceOnUse" x1="184.827" y1="584.617" x2="530.688" y2="571.995"><stop offset="0" stop-color="#ffc03b"/><stop offset="1" stop-color="#fd4f57"/></linearGradient><path fill="url(#aY)" d="M232.4 585c.9-1.4 1.7-2.9 2.6-4.3-.9 1.4-1.8 2.9-2.6 4.3z"/><linearGradient id="aZ" gradientUnits="userSpaceOnUse" x1="191.529" y1="768.252" x2="537.39" y2="755.63"><stop offset="0" stop-color="#ffc03b"/><stop offset="1" stop-color="#fd4f57"/></linearGradient><path fill="url(#aZ)" d="M197.3 770c-.3-1.3-.4-2.6-.7-3.8.3 1.2.5 2.5.7 3.8z"/><linearGradient id="ba" gradientUnits="userSpaceOnUse" x1="207.869" y1="1216.027" x2="553.731" y2="1203.405"><stop offset="0" stop-color="#ffc03b"/><stop offset="1" stop-color="#fd4f57"/></linearGradient><path fill="url(#ba)" d="M656.6 1203.3l-12.9-6.9 12.9 6.9z"/><linearGradient id="bb" gradientUnits="userSpaceOnUse" x1="174.255" y1="294.933" x2="520.117" y2="282.311"><stop offset="0" stop-color="#ffc03b"/><stop offset="1" stop-color="#fd4f57"/></linearGradient><path fill="url(#bb)" d="M642.4 278.9c1.6-.7 3.2-1.5 4.9-2.2-1.6.7-3.3 1.4-4.9 2.2z"/><linearGradient id="bc" gradientUnits="userSpaceOnUse" x1="194.293" y1="844.009" x2="540.155" y2="831.388"><stop offset="0" stop-color="#ffc03b"/><stop offset="1" stop-color="#fd4f57"/></linearGradient><path fill="url(#bc)" d="M224.5 845.8c-1-1.9-1.9-3.8-2.9-5.7.9 1.9 1.9 3.8 2.9 5.7z"/><linearGradient id="bd" gradientUnits="userSpaceOnUse" x1="248.557" y1="162.869" x2="206.91" y2="816.209"><stop offset="0" stop-color="#ffc03b"/><stop offset="1" stop-color="#fd4f57"/></linearGradient><path fill="url(#bd)" d="M209.4 811.8c-1.3-3.5-2.5-7-3.7-10.6 1.2 3.5 2.3 7 3.7 10.6z"/><linearGradient id="be" gradientUnits="userSpaceOnUse" x1="255.104" y1="163.286" x2="213.457" y2="816.627"><stop offset="0" stop-color="#ffc03b"/><stop offset="1" stop-color="#fd4f57"/></linearGradient><path fill="url(#be)" d="M215.1 825.9c-1.3-3.1-2.6-6.2-3.8-9.3 1.2 3.1 2.4 6.2 3.8 9.3z"/><linearGradient id="bf" gradientUnits="userSpaceOnUse" x1="659.106" y1="189.04" x2="617.459" y2="842.38"><stop offset="0" stop-color="#ffc03b"/><stop offset="1" stop-color="#fd4f57"/></linearGradient><path fill="url(#bf)" d="M647.3 276.6c4.3-2 8.6-3.9 12.8-5.8-4.3 1.9-8.5 3.9-12.8 5.8z"/><linearGradient id="bg" gradientUnits="userSpaceOnUse" x1="483.113" y1="177.821" x2="441.466" y2="831.161"><stop offset="0" stop-color="#ffc03b"/><stop offset="1" stop-color="#fd4f57"/></linearGradient><path fill="url(#bg)" d="M465.8 372c3.4-2.1 6.8-4.2 10.3-6.2-3.5 2.1-6.9 4.1-10.3 6.2z"/><linearGradient id="bh" gradientUnits="userSpaceOnUse" x1="807.105" y1="198.474" x2="765.458" y2="851.814"><stop offset="0" stop-color="#ffc03b"/><stop offset="1" stop-color="#fd4f57"/></linearGradient><path fill="url(#bh)" d="M757.8 1254.3c-11.9-5.7-23.5-11.4-35-17.1 11.5 5.7 23.2 11.4 35 17.1z"/><linearGradient id="bi" gradientUnits="userSpaceOnUse" x1="231.206" y1="161.763" x2="189.559" y2="815.103"><stop offset="0" stop-color="#ffc03b"/><stop offset="1" stop-color="#fd4f57"/></linearGradient><path fill="url(#bi)" d="M194.4 751.6c-.4-2.9-.7-5.9-1-8.8.3 2.9.6 5.9 1 8.8z"/><linearGradient id="bj" gradientUnits="userSpaceOnUse" x1="454.367" y1="175.988" x2="412.72" y2="829.329"><stop offset="0" stop-color="#ffc03b"/><stop offset="1" stop-color="#fd4f57"/></linearGradient><path fill="url(#bj)" d="M436 390.9c3.2-2.1 6.5-4.2 9.7-6.3-3.2 2.1-6.5 4.2-9.7 6.3z"/><linearGradient id="bk" gradientUnits="userSpaceOnUse" x1="970.58" y1="208.895" x2="928.933" y2="862.235"><stop offset="0" stop-color="#ffc03b"/><stop offset="1" stop-color="#fd4f57"/></linearGradient><path fill="url(#bk)" d="M911.6 1323.9c-7.9-3.4-15.7-6.8-23.5-10.1 7.7 3.3 15.6 6.7 23.5 10.1z"/><linearGradient id="bl" gradientUnits="userSpaceOnUse" x1="229.259" y1="161.639" x2="187.612" y2="814.979"><stop offset="0" stop-color="#ffc03b"/><stop offset="1" stop-color="#fd4f57"/></linearGradient><path fill="url(#bl)" d="M193 737.7c-.2-2.8-.3-5.6-.4-8.4.1 2.8.2 5.6.4 8.4z"/><linearGradient id="bm" gradientUnits="userSpaceOnUse" x1="710.927" y1="192.343" x2="669.28" y2="845.683"><stop offset="0" stop-color="#ffc03b"/><stop offset="1" stop-color="#fd4f57"/></linearGradient><path fill="url(#bm)" d="M700.7 253c4.3-1.9 8.7-3.7 13-5.5-4.3 1.8-8.6 3.7-13 5.5z"/><linearGradient id="bn" gradientUnits="userSpaceOnUse" x1="929.161" y1="206.254" x2="887.514" y2="859.595"><stop offset="0" stop-color="#ffc03b"/><stop offset="1" stop-color="#fd4f57"/></linearGradient><path fill="url(#bn)" d="M870.9 1306.3c-7.8-3.4-15.5-6.9-23.1-10.3 7.7 3.4 15.3 6.8 23.1 10.3z"/><linearGradient id="bo" gradientUnits="userSpaceOnUse" x1="468.591" y1="176.895" x2="426.943" y2="830.235"><stop offset="0" stop-color="#ffc03b"/><stop offset="1" stop-color="#fd4f57"/></linearGradient><path fill="url(#bo)" d="M450.8 381.4c3.3-2.1 6.6-4.1 9.9-6.2-3.3 2-6.6 4.1-9.9 6.2z"/><linearGradient id="bp" gradientUnits="userSpaceOnUse" x1="848.122" y1="201.089" x2="806.474" y2="854.429"><stop offset="0" stop-color="#ffc03b"/><stop offset="1" stop-color="#fd4f57"/></linearGradient><path fill="url(#bp)" d="M794.2 1271.5c-9.4-4.4-18.7-8.8-27.9-13.2 9.3 4.5 18.5 8.8 27.9 13.2z"/><linearGradient id="bq" gradientUnits="userSpaceOnUse" x1="234.009" y1="161.942" x2="192.362" y2="815.282"><stop offset="0" stop-color="#ffc03b"/><stop offset="1" stop-color="#fd4f57"/></linearGradient><path fill="url(#bq)" d="M196.6 766.1c-.6-3.3-1.2-6.5-1.7-9.8.5 3.3 1.1 6.6 1.7 9.8z"/><linearGradient id="br" gradientUnits="userSpaceOnUse" x1="240.549" y1="162.359" x2="198.901" y2="815.699"><stop offset="0" stop-color="#ffc03b"/><stop offset="1" stop-color="#fd4f57"/></linearGradient><path fill="url(#br)" d="M204.5 797.8c-3-9.4-5.3-18.6-7.2-27.8 1.9 9.2 4.3 18.4 7.2 27.8z"/><linearGradient id="bs" gradientUnits="userSpaceOnUse" x1="685.099" y1="190.697" x2="643.452" y2="844.037"><stop offset="0" stop-color="#ffc03b"/><stop offset="1" stop-color="#fd4f57"/></linearGradient><path fill="url(#bs)" d="M663.9 269.1c11.1-5 22.3-9.9 33.4-14.6-11.2 4.8-22.3 9.7-33.4 14.6z"/><linearGradient id="bt" gradientUnits="userSpaceOnUse" x1="888.717" y1="203.676" x2="847.07" y2="857.016"><stop offset="0" stop-color="#ffc03b"/><stop offset="1" stop-color="#fd4f57"/></linearGradient><path fill="url(#bt)" d="M831.9 1288.8c-8.1-3.7-16.1-7.3-24-11 7.9 3.7 15.9 7.4 24 11z"/><linearGradient id="bu" gradientUnits="userSpaceOnUse" x1="551.91" y1="182.206" x2="510.262" y2="835.547"><stop offset="0" stop-color="#ffc03b"/><stop offset="1" stop-color="#fd4f57"/></linearGradient><path fill="url(#bu)" d="M501.5 1113.2c-5.8-3.8-11.5-7.5-17.1-11.2 5.6 3.7 11.3 7.4 17.1 11.2z"/><linearGradient id="bv" gradientUnits="userSpaceOnUse" x1="1013.175" y1="211.61" x2="971.528" y2="864.95"><stop offset="0" stop-color="#ffc03b"/><stop offset="1" stop-color="#fd4f57"/></linearGradient><path fill="url(#bv)" d="M953.7 1341.6c-8.2-3.4-16.4-6.8-24.5-10.3 8.1 3.5 16.3 6.9 24.5 10.3z"/><linearGradient id="bw" gradientUnits="userSpaceOnUse" x1="522.935" y1="180.359" x2="481.287" y2="833.7"><stop offset="0" stop-color="#ffc03b"/><stop offset="1" stop-color="#fd4f57"/></linearGradient><path fill="url(#bw)" d="M476.8 1097c-8.1-5.4-15.9-10.8-23.6-16.2 7.7 5.4 15.6 10.8 23.6 16.2z"/><linearGradient id="bx" gradientUnits="userSpaceOnUse" x1="537.614" y1="181.295" x2="495.967" y2="834.635"><stop offset="0" stop-color="#ffc03b"/><stop offset="1" stop-color="#fd4f57"/></linearGradient><path fill="url(#bx)" d="M511.7 345.1c10.6-5.9 21.3-11.8 32-17.5-10.7 5.7-21.4 11.6-32 17.5z"/><linearGradient id="by" gradientUnits="userSpaceOnUse" x1="579.29" y1="183.952" x2="537.643" y2="837.292"><stop offset="0" stop-color="#ffc03b"/><stop offset="1" stop-color="#fd4f57"/></linearGradient><path fill="url(#by)" d="M527.4 1129.6c-5.5-3.4-10.8-6.8-16.1-10.1 5.3 3.3 10.6 6.7 16.1 10.1z"/><linearGradient id="bz" gradientUnits="userSpaceOnUse" x1="610.403" y1="185.935" x2="568.756" y2="839.275"><stop offset="0" stop-color="#ffc03b"/><stop offset="1" stop-color="#fd4f57"/></linearGradient><path fill="url(#bz)" d="M598 300c3.5-1.7 7.1-3.5 10.6-5.2-3.5 1.7-7.1 3.4-10.6 5.2z"/><linearGradient id="bA" gradientUnits="userSpaceOnUse" x1="300.474" y1="166.179" x2="258.827" y2="819.519"><stop offset="0" stop-color="#ffc03b"/><stop offset="1" stop-color="#fd4f57"/></linearGradient><path fill="url(#bA)" d="M257.5 899.3c-2.3-3.2-4.7-6.5-6.9-9.7 2.2 3.2 4.5 6.4 6.9 9.7z"/><linearGradient id="bB" gradientUnits="userSpaceOnUse" x1="312.96" y1="166.974" x2="271.313" y2="820.315"><stop offset="0" stop-color="#ffc03b"/><stop offset="1" stop-color="#fd4f57"/></linearGradient><path fill="url(#bB)" d="M270 915.9c-3-3.9-6-7.7-8.9-11.5 2.9 3.8 5.9 7.6 8.9 11.5z"/><linearGradient id="bC" gradientUnits="userSpaceOnUse" x1="594.411" y1="184.916" x2="552.764" y2="838.256"><stop offset="0" stop-color="#ffc03b"/><stop offset="1" stop-color="#fd4f57"/></linearGradient><path fill="url(#bC)" d="M581.4 308.2c3.6-1.8 7.1-3.6 10.7-5.3-3.6 1.7-7.2 3.5-10.7 5.3z"/><linearGradient id="bD" gradientUnits="userSpaceOnUse" x1="450.636" y1="175.751" x2="408.988" y2="829.091"><stop offset="0" stop-color="#ffc03b"/><stop offset="1" stop-color="#fd4f57"/></linearGradient><path fill="url(#bD)" d="M401.9 1042.9c-4.2-3.3-8.4-6.5-12.4-9.8 4 3.3 8.2 6.5 12.4 9.8z"/><linearGradient id="bE" gradientUnits="userSpaceOnUse" x1="358.556" y1="169.881" x2="316.908" y2="823.221"><stop offset="0" stop-color="#ffc03b"/><stop offset="1" stop-color="#fd4f57"/></linearGradient><path fill="url(#bE)" d="M313.1 964.5c-3.3-3.4-6.5-6.8-9.7-10.1 3.2 3.3 6.3 6.7 9.7 10.1z"/><linearGradient id="bF" gradientUnits="userSpaceOnUse" x1="327.254" y1="167.886" x2="285.607" y2="821.226"><stop offset="0" stop-color="#ffc03b"/><stop offset="1" stop-color="#fd4f57"/></linearGradient><path fill="url(#bF)" d="M285.2 934.3c-4.4-5-8.5-10.1-12.6-15.1 4 5 8.2 10 12.6 15.1z"/><linearGradient id="bG" gradientUnits="userSpaceOnUse" x1="498.752" y1="178.818" x2="457.105" y2="832.158"><stop offset="0" stop-color="#ffc03b"/><stop offset="1" stop-color="#fd4f57"/></linearGradient><path fill="url(#bG)" d="M452.7 1080.5c-7.5-5.2-14.7-10.4-21.8-15.6 7.1 5.1 14.3 10.3 21.8 15.6z"/><linearGradient id="bH" gradientUnits="userSpaceOnUse" x1="562.456" y1="182.879" x2="520.809" y2="836.219"><stop offset="0" stop-color="#ffc03b"/><stop offset="1" stop-color="#fd4f57"/></linearGradient><path fill="url(#bH)" d="M547.4 325.7c4.1-2.2 8.3-4.4 12.4-6.5-4.2 2.1-8.3 4.3-12.4 6.5z"/><linearGradient id="bI" gradientUnits="userSpaceOnUse" x1="342.327" y1="168.846" x2="300.68" y2="822.187"><stop offset="0" stop-color="#ffc03b"/><stop offset="1" stop-color="#fd4f57"/></linearGradient><path fill="url(#bI)" d="M298.6 949.3c-3.9-4.2-7.6-8.4-11.3-12.6 3.7 4.2 7.4 8.4 11.3 12.6z"/><linearGradient id="bJ" gradientUnits="userSpaceOnUse" x1="472.756" y1="177.161" x2="431.108" y2="830.501"><stop offset="0" stop-color="#ffc03b"/><stop offset="1" stop-color="#fd4f57"/></linearGradient><path fill="url(#bJ)" d="M424.1 1059.8c-4.9-3.6-9.7-7.2-14.4-10.8 4.6 3.5 9.5 7.1 14.4 10.8z"/><linearGradient id="bK" gradientUnits="userSpaceOnUse" x1="513.955" y1="179.787" x2="472.307" y2="833.127"><stop offset="0" stop-color="#ffc03b"/><stop offset="1" stop-color="#fd4f57"/></linearGradient><path fill="url(#bK)" d="M496.2 353.9c4.6-2.6 9.2-5.3 13.8-7.9-4.6 2.7-9.2 5.3-13.8 7.9z"/><linearGradient id="bL" gradientUnits="userSpaceOnUse" x1="270.488" y1="164.267" x2="228.84" y2="817.607"><stop offset="0" stop-color="#ffc03b"/><stop offset="1" stop-color="#fd4f57"/></linearGradient><path fill="url(#bL)" d="M229.1 854.5c-1.6-2.9-3.1-5.8-4.6-8.7 1.4 2.9 3 5.8 4.6 8.7z"/><linearGradient id="bM" gradientUnits="userSpaceOnUse" x1="698.268" y1="191.536" x2="656.62" y2="844.876"><stop offset="0" stop-color="#ffc03b"/><stop offset="1" stop-color="#fd4f57"/></linearGradient><path fill="url(#bM)" d="M643.7 1196.4c-6.2-3.3-12.4-6.7-18.4-10 6.1 3.4 12.2 6.7 18.4 10z"/><linearGradient id="bN" gradientUnits="userSpaceOnUse" x1="607.297" y1="185.737" x2="565.65" y2="839.077"><stop offset="0" stop-color="#ffc03b"/><stop offset="1" stop-color="#fd4f57"/></linearGradient><path fill="url(#bN)" d="M554.4 1146c-5.4-3.3-10.8-6.5-16.1-9.7 5.4 3.2 10.7 6.5 16.1 9.7z"/><linearGradient id="bO" gradientUnits="userSpaceOnUse" x1="578.527" y1="183.903" x2="536.88" y2="837.243"><stop offset="0" stop-color="#ffc03b"/><stop offset="1" stop-color="#fd4f57"/></linearGradient><path fill="url(#bO)" d="M564.6 316.7c3.8-1.9 7.6-3.9 11.4-5.8-3.9 1.9-7.7 3.9-11.4 5.8z"/><linearGradient id="bP" gradientUnits="userSpaceOnUse" x1="731.418" y1="193.649" x2="689.771" y2="846.989"><stop offset="0" stop-color="#ffc03b"/><stop offset="1" stop-color="#fd4f57"/></linearGradient><path fill="url(#bP)" d="M676.8 1213.9c-6.8-3.5-13.6-7-20.2-10.5 6.6 3.4 13.4 7 20.2 10.5z"/><linearGradient id="bQ" gradientUnits="userSpaceOnUse" x1="262.367" y1="163.749" x2="220.72" y2="817.09"><stop offset="0" stop-color="#ffc03b"/><stop offset="1" stop-color="#fd4f57"/></linearGradient><path fill="url(#bQ)" d="M221.6 840.1c-1.4-3-2.8-5.9-4.1-8.9 1.3 3 2.7 6 4.1 8.9z"/><linearGradient id="bR" gradientUnits="userSpaceOnUse" x1="498.118" y1="178.777" x2="456.47" y2="832.118"><stop offset="0" stop-color="#ffc03b"/><stop offset="1" stop-color="#fd4f57"/></linearGradient><path fill="url(#bR)" d="M480.9 362.9c3.8-2.2 7.5-4.4 11.3-6.6-3.7 2.1-7.5 4.4-11.3 6.6z"/><linearGradient id="bS" gradientUnits="userSpaceOnUse" x1="642.628" y1="187.989" x2="600.981" y2="841.33"><stop offset="0" stop-color="#ffc03b"/><stop offset="1" stop-color="#fd4f57"/></linearGradient><path fill="url(#bS)" d="M630.9 284.2z"/><linearGradient id="bT" gradientUnits="userSpaceOnUse" x1="289.45" y1="165.476" x2="247.803" y2="818.816"><stop offset="0" stop-color="#ffc03b"/><stop offset="1" stop-color="#fd4f57"/></linearGradient><path fill="url(#bT)" d="M246.9 884c-2-3-4-6-5.9-9.1 1.9 3 3.9 6 5.9 9.1z"/><linearGradient id="bU" gradientUnits="userSpaceOnUse" x1="636.399" y1="187.592" x2="594.751" y2="840.932"><stop offset="0" stop-color="#ffc03b"/><stop offset="1" stop-color="#fd4f57"/></linearGradient><path fill="url(#bU)" d="M582.8 1162.6c-5.6-3.2-11-6.4-16.4-9.6 5.3 3.2 10.8 6.4 16.4 9.6z"/><linearGradient id="bV" gradientUnits="userSpaceOnUse" x1="279.495" y1="164.841" x2="237.847" y2="818.182"><stop offset="0" stop-color="#ffc03b"/><stop offset="1" stop-color="#fd4f57"/></linearGradient><path fill="url(#bV)" d="M237.5 869.1c-1.8-2.9-3.5-5.9-5.2-8.8 1.7 2.9 3.4 5.9 5.2 8.8z"/><linearGradient id="bW" gradientUnits="userSpaceOnUse" x1="767.129" y1="195.926" x2="725.481" y2="849.266"><stop offset="0" stop-color="#ffc03b"/><stop offset="1" stop-color="#fd4f57"/></linearGradient><path fill="url(#bW)" d="M713.8 1232.7c-8.3-4.2-16.6-8.3-24.7-12.4 8.1 4.1 16.4 8.2 24.7 12.4z"/><linearGradient id="bX" gradientUnits="userSpaceOnUse" x1="626.337" y1="186.951" x2="584.69" y2="840.291"><stop offset="0" stop-color="#ffc03b"/><stop offset="1" stop-color="#fd4f57"/></linearGradient><path fill="url(#bX)" d="M614.4 292l10.8-5.1-10.8 5.1z"/><linearGradient id="bY" gradientUnits="userSpaceOnUse" x1="666.694" y1="189.523" x2="625.046" y2="842.864"><stop offset="0" stop-color="#ffc03b"/><stop offset="1" stop-color="#fd4f57"/></linearGradient><path fill="url(#bY)" d="M612.5 1179.4c-5.8-3.2-11.6-6.5-17.3-9.7 5.7 3.3 11.5 6.5 17.3 9.7z"/><linearGradient id="bZ" gradientUnits="userSpaceOnUse" x1="237.302" y1="162.152" x2="195.654" y2="815.492"><stop offset="0" stop-color="#ffc03b"/><stop offset="1" stop-color="#fd4f57"/></linearGradient><path fill="url(#bZ)" d="M205.1 644.3z"/><linearGradient id="ca" gradientUnits="userSpaceOnUse" x1="348.499" y1="169.24" x2="306.852" y2="822.58"><stop offset="0" stop-color="#ffc03b"/><stop offset="1" stop-color="#fd4f57"/></linearGradient><path fill="url(#ca)" d="M325.3 475.1c2.6-2.4 5.3-4.7 7.9-7.1-2.7 2.4-5.3 4.7-7.9 7.1z"/><linearGradient id="cb" gradientUnits="userSpaceOnUse" x1="807.993" y1="198.53" x2="766.345" y2="851.871"><stop offset="0" stop-color="#ffc03b"/><stop offset="1" stop-color="#fd4f57"/></linearGradient><path fill="url(#cb)" d="M802 212.3c3.5-1.3 7-2.7 10.5-4-3.5 1.3-7 2.6-10.5 4z"/><linearGradient id="cc" gradientUnits="userSpaceOnUse" x1="375.013" y1="170.93" x2="333.366" y2="824.27"><stop offset="0" stop-color="#ffc03b"/><stop offset="1" stop-color="#fd4f57"/></linearGradient><path fill="url(#cc)" d="M319 970.4c3.1 3.1 6.3 6.3 9.6 9.4-3.3-3.1-6.5-6.3-9.6-9.4z"/><linearGradient id="cd" gradientUnits="userSpaceOnUse" x1="992.555" y1="210.295" x2="950.907" y2="863.636"><stop offset="0" stop-color="#ffc03b"/><stop offset="1" stop-color="#fd4f57"/></linearGradient><path fill="url(#cd)" d="M993.7 146.3c2-.6 4.1-1.3 6.1-1.9-2.1.6-4.1 1.2-6.1 1.9z"/><linearGradient id="ce" gradientUnits="userSpaceOnUse" x1="974.038" y1="209.115" x2="932.39" y2="862.455"><stop offset="0" stop-color="#ffc03b"/><stop offset="1" stop-color="#fd4f57"/></linearGradient><path fill="url(#ce)" d="M974 152.5l7.5-2.4c-2.5.8-5 1.5-7.5 2.4z"/><linearGradient id="cf" gradientUnits="userSpaceOnUse" x1="392.323" y1="172.033" x2="350.675" y2="825.374"><stop offset="0" stop-color="#ffc03b"/><stop offset="1" stop-color="#fd4f57"/></linearGradient><path fill="url(#cf)" d="M345.1 995.3c-3.4-3.1-6.7-6.2-10-9.2 3.3 3 6.6 6.1 10 9.2z"/><linearGradient id="cg" gradientUnits="userSpaceOnUse" x1="960.483" y1="208.251" x2="918.835" y2="861.591"><stop offset="0" stop-color="#ffc03b"/><stop offset="1" stop-color="#fd4f57"/></linearGradient><path fill="url(#cg)" d="M960.1 156.9l7.5-2.4-7.5 2.4z"/><linearGradient id="ch" gradientUnits="userSpaceOnUse" x1="824.226" y1="199.565" x2="782.579" y2="852.905"><stop offset="0" stop-color="#ffc03b"/><stop offset="1" stop-color="#fd4f57"/></linearGradient><path fill="url(#ch)" d="M817.9 206.2l12-4.5c-3.9 1.6-7.9 3-12 4.5z"/><linearGradient id="ci" gradientUnits="userSpaceOnUse" x1="410.617" y1="173.2" x2="368.97" y2="826.54"><stop offset="0" stop-color="#ffc03b"/><stop offset="1" stop-color="#fd4f57"/></linearGradient><path fill="url(#ci)" d="M362.8 1010.9c-3.6-3.1-7.1-6.1-10.5-9.2 3.4 3.1 6.9 6.1 10.5 9.2z"/><linearGradient id="cj" gradientUnits="userSpaceOnUse" x1="246.179" y1="162.718" x2="204.532" y2="816.058"><stop offset="0" stop-color="#ffc03b"/><stop offset="1" stop-color="#fd4f57"/></linearGradient><path fill="url(#cj)" d="M215.6 617.3c1.2-2.7 2.4-5.3 3.7-8-1.3 2.6-2.5 5.3-3.7 8z"/><linearGradient id="ck" gradientUnits="userSpaceOnUse" x1="1029.32" y1="212.639" x2="987.673" y2="865.979"><stop offset="0" stop-color="#ffc03b"/><stop offset="1" stop-color="#fd4f57"/></linearGradient><path fill="url(#ck)" d="M1032 134.6c1.5-.5 3.1-.9 4.6-1.4-1.5.4-3 .9-4.6 1.4z"/><linearGradient id="cl" gradientUnits="userSpaceOnUse" x1="791.958" y1="197.508" x2="750.311" y2="850.849"><stop offset="0" stop-color="#ffc03b"/><stop offset="1" stop-color="#fd4f57"/></linearGradient><path fill="url(#cl)" d="M785.8 218.5c3.3-1.3 6.6-2.6 10-3.8-3.4 1.2-6.7 2.5-10 3.8z"/><linearGradient id="cm" gradientUnits="userSpaceOnUse" x1="1040.579" y1="213.357" x2="998.932" y2="866.697"><stop offset="0" stop-color="#ffc03b"/><stop offset="1" stop-color="#fd4f57"/></linearGradient><path fill="url(#cm)" d="M1043.8 131.1l4.2-1.2c-1.4.3-2.8.8-4.2 1.2z"/><linearGradient id="cn" gradientUnits="userSpaceOnUse" x1="360.037" y1="169.975" x2="318.389" y2="823.316"><stop offset="0" stop-color="#ffc03b"/><stop offset="1" stop-color="#fd4f57"/></linearGradient><path fill="url(#cn)" d="M337.2 464.5c2.8-2.4 5.7-4.8 8.5-7.2-2.8 2.3-5.7 4.7-8.5 7.2z"/><linearGradient id="co" gradientUnits="userSpaceOnUse" x1="1005.379" y1="211.113" x2="963.731" y2="864.453"><stop offset="0" stop-color="#ffc03b"/><stop offset="1" stop-color="#fd4f57"/></linearGradient><path fill="url(#co)" d="M1007.2 142.1c1.7-.5 3.5-1.1 5.2-1.6-1.7.5-3.4 1-5.2 1.6z"/><linearGradient id="cp" gradientUnits="userSpaceOnUse" x1="251.441" y1="163.053" x2="209.794" y2="816.393"><stop offset="0" stop-color="#ffc03b"/><stop offset="1" stop-color="#fd4f57"/></linearGradient><path fill="url(#cp)" d="M221.5 604.8c1.3-2.6 2.6-5.2 4-7.7-1.3 2.6-2.7 5.1-4 7.7z"/><linearGradient id="cq" gradientUnits="userSpaceOnUse" x1="372.248" y1="170.754" x2="330.601" y2="824.094"><stop offset="0" stop-color="#ffc03b"/><stop offset="1" stop-color="#fd4f57"/></linearGradient><path fill="url(#cq)" d="M349.6 454c3.2-2.7 6.5-5.3 9.7-7.9-3.3 2.6-6.5 5.3-9.7 7.9z"/><linearGradient id="cr" gradientUnits="userSpaceOnUse" x1="1017.596" y1="211.892" x2="975.949" y2="865.232"><stop offset="0" stop-color="#ffc03b"/><stop offset="1" stop-color="#fd4f57"/></linearGradient><path fill="url(#cr)" d="M1020.2 138.1c1.5-.4 2.9-.9 4.4-1.3-1.5.4-3 .9-4.4 1.3z"/><linearGradient id="cs" gradientUnits="userSpaceOnUse" x1="858.06" y1="201.722" x2="816.413" y2="855.062"><stop offset="0" stop-color="#ffc03b"/><stop offset="1" stop-color="#fd4f57"/></linearGradient><path fill="url(#cs)" d="M852.3 193.6c4.3-1.6 8.6-3.1 12.9-4.6-4.3 1.5-8.6 3.1-12.9 4.6z"/><linearGradient id="ct" gradientUnits="userSpaceOnUse" x1="904.22" y1="204.665" x2="862.573" y2="858.005"><stop offset="0" stop-color="#ffc03b"/><stop offset="1" stop-color="#fd4f57"/></linearGradient><path fill="url(#ct)" d="M901.9 176.2c2.8-1 5.7-1.9 8.5-2.9-2.8 1-5.7 2-8.5 2.9z"/><linearGradient id="cu" gradientUnits="userSpaceOnUse" x1="292.052" y1="165.642" x2="250.405" y2="818.982"><stop offset="0" stop-color="#ffc03b"/><stop offset="1" stop-color="#fd4f57"/></linearGradient><path fill="url(#cu)" d="M259.1 545.7c6-7.7 12.3-15.4 18.9-23-6.6 7.6-12.9 15.2-18.9 23z"/><linearGradient id="cv" gradientUnits="userSpaceOnUse" x1="257.288" y1="163.426" x2="215.64" y2="816.766"><stop offset="0" stop-color="#ffc03b"/><stop offset="1" stop-color="#fd4f57"/></linearGradient><path fill="url(#cv)" d="M228 592.7c1.4-2.6 2.9-5.1 4.4-7.7-1.5 2.5-3 5.1-4.4 7.7z"/><linearGradient id="cw" gradientUnits="userSpaceOnUse" x1="306.499" y1="166.563" x2="264.852" y2="819.903"><stop offset="0" stop-color="#ffc03b"/><stop offset="1" stop-color="#fd4f57"/></linearGradient><path fill="url(#cw)" d="M280.4 520.1c2.5-2.8 5.1-5.7 7.7-8.5-2.6 2.8-5.2 5.7-7.7 8.5z"/><linearGradient id="cx" gradientUnits="userSpaceOnUse" x1="326.767" y1="167.855" x2="285.119" y2="821.195"><stop offset="0" stop-color="#ffc03b"/><stop offset="1" stop-color="#fd4f57"/></linearGradient><path fill="url(#cx)" d="M302.4 496.8c2.4-2.4 4.8-4.8 7.2-7.1-2.4 2.3-4.8 4.7-7.2 7.1z"/><linearGradient id="cy" gradientUnits="userSpaceOnUse" x1="889.514" y1="203.727" x2="847.867" y2="857.067"><stop offset="0" stop-color="#ffc03b"/><stop offset="1" stop-color="#fd4f57"/></linearGradient><path fill="url(#cy)" d="M886.5 181.5c3-1.1 6.1-2.1 9.1-3.1-3 1-6.1 2.1-9.1 3.1z"/><linearGradient id="cz" gradientUnits="userSpaceOnUse" x1="316.503" y1="167.2" x2="274.856" y2="820.54"><stop offset="0" stop-color="#ffc03b"/><stop offset="1" stop-color="#fd4f57"/></linearGradient><path fill="url(#cz)" d="M291.4 508.1c2.4-2.5 4.8-5 7.3-7.5-2.5 2.5-4.9 5-7.3 7.5z"/><linearGradient id="cA" gradientUnits="userSpaceOnUse" x1="278.815" y1="164.798" x2="237.167" y2="818.138"><stop offset="0" stop-color="#ffc03b"/><stop offset="1" stop-color="#fd4f57"/></linearGradient><path fill="url(#cA)" d="M250.5 557.2c2.3-3.2 4.7-6.4 7.2-9.6-2.5 3.2-4.8 6.4-7.2 9.6z"/><linearGradient id="cB" gradientUnits="userSpaceOnUse" x1="337.42" y1="168.534" x2="295.772" y2="821.874"><stop offset="0" stop-color="#ffc03b"/><stop offset="1" stop-color="#fd4f57"/></linearGradient><path fill="url(#cB)" d="M313.7 485.8c2.5-2.3 5-4.7 7.5-7-2.6 2.3-5.1 4.7-7.5 7z"/><linearGradient id="cC" gradientUnits="userSpaceOnUse" x1="946.909" y1="207.386" x2="905.262" y2="860.726"><stop offset="0" stop-color="#ffc03b"/><stop offset="1" stop-color="#fd4f57"/></linearGradient><path fill="url(#cC)" d="M946.1 161.4c2.5-.8 5.1-1.6 7.6-2.5-2.5.9-5 1.7-7.6 2.5z"/><linearGradient id="cD" gradientUnits="userSpaceOnUse" x1="263.735" y1="163.837" x2="222.087" y2="817.177"><stop offset="0" stop-color="#ffc03b"/><stop offset="1" stop-color="#fd4f57"/></linearGradient><path fill="url(#cD)" d="M235 580.7c1.6-2.6 3.2-5.2 4.9-7.8-1.7 2.6-3.4 5.2-4.9 7.8z"/><linearGradient id="cE" gradientUnits="userSpaceOnUse" x1="270.837" y1="164.289" x2="229.19" y2="817.63"><stop offset="0" stop-color="#ffc03b"/><stop offset="1" stop-color="#fd4f57"/></linearGradient><path fill="url(#cE)" d="M242.5 568.9c1.8-2.8 3.7-5.5 5.6-8.2-1.9 2.7-3.8 5.4-5.6 8.2z"/><linearGradient id="cF" gradientUnits="userSpaceOnUse" x1="918.728" y1="205.589" x2="877.08" y2="858.929"><stop offset="0" stop-color="#ffc03b"/><stop offset="1" stop-color="#fd4f57"/></linearGradient><path fill="url(#cF)" d="M917.2 171c2.6-.9 5.1-1.7 7.7-2.6-2.6.9-5.2 1.8-7.7 2.6z"/><linearGradient id="cG" gradientUnits="userSpaceOnUse" x1="932.932" y1="206.495" x2="891.284" y2="859.835"><stop offset="0" stop-color="#ffc03b"/><stop offset="1" stop-color="#fd4f57"/></linearGradient><path fill="url(#cG)" d="M931.8 166.1c2.5-.8 5-1.7 7.5-2.5-2.5.9-5 1.7-7.5 2.5z"/><linearGradient id="cH" gradientUnits="userSpaceOnUse" x1="841.506" y1="200.667" x2="799.858" y2="854.007"><stop offset="0" stop-color="#ffc03b"/><stop offset="1" stop-color="#fd4f57"/></linearGradient><path fill="url(#cH)" d="M833.8 200.3c5.3-1.9 10.5-3.9 15.7-5.7-5.1 1.9-10.4 3.8-15.7 5.7z"/><linearGradient id="cI" gradientUnits="userSpaceOnUse" x1="233.771" y1="161.927" x2="192.124" y2="815.267"><stop offset="0" stop-color="#ffc03b"/><stop offset="1" stop-color="#fd4f57"/></linearGradient><path fill="url(#cI)" d="M200.6 659.3c1.1-4.3 2.4-8.6 3.8-12.9-1.4 4.2-2.7 8.5-3.8 12.9z"/><linearGradient id="cJ" gradientUnits="userSpaceOnUse" x1="392.316" y1="172.033" x2="350.668" y2="825.373"><stop offset="0" stop-color="#ffc03b"/><stop offset="1" stop-color="#fd4f57"/></linearGradient><path fill="url(#cJ)" d="M362.2 443.8c8.7-6.9 17.6-13.7 26.8-20.5-9.1 6.7-18.1 13.5-26.8 20.5z"/><linearGradient id="cK" gradientUnits="userSpaceOnUse" x1="227.684" y1="161.538" x2="186.036" y2="814.879"><stop offset="0" stop-color="#ffc03b"/><stop offset="1" stop-color="#fd4f57"/></linearGradient><path fill="url(#cK)" d="M192.7 710.9c.1-2.8.3-5.5.5-8.2-.2 2.7-.4 5.4-.5 8.2z"/><linearGradient id="cL" gradientUnits="userSpaceOnUse" x1="1061.898" y1="214.716" x2="1020.251" y2="868.056"><stop offset="0" stop-color="#ffc03b"/><stop offset="1" stop-color="#fd4f57"/></linearGradient><path fill="url(#cL)" d="M1066.4 124.5c.9-.2 1.7-.5 2.6-.7-.9.2-1.7.4-2.6.7z"/><linearGradient id="cM" gradientUnits="userSpaceOnUse" x1="426.465" y1="174.21" x2="384.817" y2="827.55"><stop offset="0" stop-color="#ffc03b"/><stop offset="1" stop-color="#fd4f57"/></linearGradient><path fill="url(#cM)" d="M406.5 410.8c3.4-2.4 6.8-4.7 10.2-7.1-3.4 2.4-6.8 4.7-10.2 7.1z"/><linearGradient id="cN" gradientUnits="userSpaceOnUse" x1="1057.266" y1="214.42" x2="1015.618" y2="867.761"><stop offset="0" stop-color="#ffc03b"/><stop offset="1" stop-color="#fd4f57"/></linearGradient><path fill="url(#cN)" d="M997.4 1359.6c-8.6-3.5-17.1-6.9-25.5-10.4 8.4 3.4 16.9 6.9 25.5 10.4z"/><linearGradient id="cO" gradientUnits="userSpaceOnUse" x1="231.188" y1="161.762" x2="189.54" y2="815.102"><stop offset="0" stop-color="#ffc03b"/><stop offset="1" stop-color="#fd4f57"/></linearGradient><path fill="url(#cO)" d="M197.6 671.9c.9-4.2 1.9-8.3 2.9-12.5-1.1 4.2-2 8.4-2.9 12.5z"/><linearGradient id="cP" gradientUnits="userSpaceOnUse" x1="1071.561" y1="215.332" x2="1029.914" y2="868.672"><stop offset="0" stop-color="#ffc03b"/><stop offset="1" stop-color="#fd4f57"/></linearGradient><path fill="url(#cP)" d="M1077 121.5l1.2-.3c-.4 0-.8.1-1.2.3z"/><linearGradient id="cQ" gradientUnits="userSpaceOnUse" x1="1207.218" y1="223.979" x2="1165.571" y2="877.319"><stop offset="0" stop-color="#ffc03b"/><stop offset="1" stop-color="#fd4f57"/></linearGradient><path fill="url(#cQ)" d="M1155.5 1420.9c-16.3-6-32.3-12.1-48.1-18.1 15.9 6 31.9 12 48.1 18.1z"/><linearGradient id="cR" gradientUnits="userSpaceOnUse" x1="1210.664" y1="224.235" x2="1169.018" y2="877.556"><stop offset="0" stop-color="#ffc03b"/><stop offset="1" stop-color="#fd4f57"/></linearGradient><path fill="url(#cR)" d="M1114.8 1396.4c25.5 15.9 40.7 24.5 40.7 24.5s-15.2-8.6-40.7-24.5z"/><linearGradient id="cS" gradientUnits="userSpaceOnUse" x1="1151.242" y1="220.411" x2="1109.594" y2="873.751"><stop offset="0" stop-color="#ffc03b"/><stop offset="1" stop-color="#fd4f57"/></linearGradient><path fill="url(#cS)" d="M1092.3 1396.9c-10.5-4-21-8.1-31.3-12.1 10.3 4.1 20.8 8.1 31.3 12.1z"/><linearGradient id="cT" gradientUnits="userSpaceOnUse" x1="440.39" y1="175.097" x2="398.743" y2="828.438"><stop offset="0" stop-color="#ffc03b"/><stop offset="1" stop-color="#fd4f57"/></linearGradient><path fill="url(#cT)" d="M421.4 400.6c3.2-2.2 6.4-4.3 9.7-6.5-3.3 2.2-6.5 4.3-9.7 6.5z"/><linearGradient id="cU" gradientUnits="userSpaceOnUse" x1="760.098" y1="195.477" x2="718.451" y2="848.818"><stop offset="0" stop-color="#ffc03b"/><stop offset="1" stop-color="#fd4f57"/></linearGradient><path fill="url(#cU)" d="M752.7 231.5c3.5-1.4 6.9-2.8 10.4-4.1-3.4 1.3-6.9 2.7-10.4 4.1z"/><linearGradient id="cV" gradientUnits="userSpaceOnUse" x1="412.315" y1="173.308" x2="370.668" y2="826.648"><stop offset="0" stop-color="#ffc03b"/><stop offset="1" stop-color="#fd4f57"/></linearGradient><path fill="url(#cV)" d="M390.7 422.1l12-8.7-12 8.7z"/><linearGradient id="cW" gradientUnits="userSpaceOnUse" x1="874.254" y1="202.754" x2="832.607" y2="856.095"><stop offset="0" stop-color="#ffc03b"/><stop offset="1" stop-color="#fd4f57"/></linearGradient><path fill="url(#cW)" d="M870.3 187.2l10.2-3.6-10.2 3.6z"/><linearGradient id="cX" gradientUnits="userSpaceOnUse" x1="228.102" y1="161.565" x2="186.454" y2="814.905"><stop offset="0" stop-color="#ffc03b"/><stop offset="1" stop-color="#fd4f57"/></linearGradient><path fill="url(#cX)" d="M192.5 724.2V716c0 2.7-.1 5.5 0 8.2z"/><linearGradient id="cY" gradientUnits="userSpaceOnUse" x1="430.023" y1="174.437" x2="388.375" y2="827.777"><stop offset="0" stop-color="#ffc03b"/><stop offset="1" stop-color="#fd4f57"/></linearGradient><path fill="url(#cY)" d="M381.6 1026.7c-3.8-3.1-7.6-6.2-11.3-9.3 3.7 3.1 7.5 6.2 11.3 9.3z"/><linearGradient id="cZ" gradientUnits="userSpaceOnUse" x1="228.044" y1="161.561" x2="186.397" y2="814.902"><stop offset="0" stop-color="#ffc03b"/><stop offset="1" stop-color="#fd4f57"/></linearGradient><path fill="url(#cZ)" d="M193.6 697.8c.3-2.9.6-5.7 1-8.5-.3 2.8-.7 5.6-1 8.5z"/><linearGradient id="da" gradientUnits="userSpaceOnUse" x1="776.126" y1="196.499" x2="734.479" y2="849.839"><stop offset="0" stop-color="#ffc03b"/><stop offset="1" stop-color="#fd4f57"/></linearGradient><path fill="url(#da)" d="M769.4 224.9c3.4-1.3 6.7-2.7 10.1-4-3.4 1.3-6.7 2.6-10.1 4z"/><linearGradient id="db" gradientUnits="userSpaceOnUse" x1="1051.526" y1="214.054" x2="1009.879" y2="867.395"><stop offset="0" stop-color="#ffc03b"/><stop offset="1" stop-color="#fd4f57"/></linearGradient><path fill="url(#db)" d="M1055.5 127.6c1.1-.3 2.2-.6 3.2-.9-1.1.3-2.2.6-3.2.9z"/><linearGradient id="dc" gradientUnits="userSpaceOnUse" x1="727.781" y1="193.417" x2="686.134" y2="846.758"><stop offset="0" stop-color="#ffc03b"/><stop offset="1" stop-color="#fd4f57"/></linearGradient><path fill="url(#dc)" d="M718.9 245.4c3.8-1.6 7.7-3.2 11.5-4.8-3.9 1.6-7.7 3.2-11.5 4.8z"/><linearGradient id="dd" gradientUnits="userSpaceOnUse" x1="241.493" y1="162.419" x2="199.845" y2="815.759"><stop offset="0" stop-color="#ffc03b"/><stop offset="1" stop-color="#fd4f57"/></linearGradient><path fill="url(#dd)" d="M210.2 630.1c1.1-2.9 2.3-5.8 3.5-8.6-1.2 2.9-2.4 5.8-3.5 8.6z"/><linearGradient id="de" gradientUnits="userSpaceOnUse" x1="229.143" y1="161.631" x2="187.496" y2="814.972"><stop offset="0" stop-color="#ffc03b"/><stop offset="1" stop-color="#fd4f57"/></linearGradient><path fill="url(#de)" d="M195.3 684.8c.5-3.1 1.1-6.2 1.7-9.3-.7 3.1-1.3 6.2-1.7 9.3z"/><linearGradient id="df" gradientUnits="userSpaceOnUse" x1="1103.003" y1="217.336" x2="1061.356" y2="870.676"><stop offset="0" stop-color="#ffc03b"/><stop offset="1" stop-color="#fd4f57"/></linearGradient><path fill="url(#df)" d="M1043 1377.8c-9.2-3.6-18.3-7.2-27.3-10.8 9 3.6 18.2 7.2 27.3 10.8z"/><linearGradient id="dg" gradientUnits="userSpaceOnUse" x1="743.978" y1="194.45" x2="702.331" y2="847.79"><stop offset="0" stop-color="#ffc03b"/><stop offset="1" stop-color="#fd4f57"/></linearGradient><path fill="url(#dg)" d="M735.8 238.4c3.7-1.5 7.3-3 11-4.5-3.6 1.5-7.3 3-11 4.5z"/><linearGradient id="dh" gradientUnits="userSpaceOnUse" x1="192.672" y1="799.576" x2="538.533" y2="786.954"><stop offset="0" stop-color="#ffc03b"/><stop offset="1" stop-color="#fd4f57"/></linearGradient><path fill="url(#dh)" d="M335.2 986.1c3.3 3.1 6.6 6.1 10 9.2 2.3 2.1 4.7 4.3 7.1 6.4 3.4 3.1 6.9 6.1 10.5 9.2 2.5 2.2 5 4.3 7.6 6.5 3.7 3.1 7.4 6.2 11.3 9.3 2.6 2.1 5.2 4.3 7.8 6.4 4.1 3.3 8.2 6.5 12.4 9.8 2.6 2 5.1 4 7.7 6 4.7 3.6 9.6 7.2 14.4 10.8 2.3 1.7 4.5 3.4 6.8 5.1 7.1 5.2 14.4 10.4 21.8 15.6.2.1.3.2.5.4 7.7 5.4 15.6 10.8 23.6 16.2 2.5 1.7 5 3.3 7.5 5 5.6 3.7 11.3 7.5 17.1 11.2 3.2 2.1 6.5 4.1 9.8 6.2 5.3 3.4 10.6 6.7 16.1 10.1 3.6 2.2 7.3 4.5 11 6.7 5.3 3.2 10.7 6.5 16.1 9.7 3.9 2.3 7.9 4.7 11.9 7 5.4 3.2 10.9 6.4 16.4 9.6 4.1 2.4 8.3 4.8 12.5 7.1 5.7 3.2 11.5 6.4 17.3 9.7 4.2 2.4 8.5 4.7 12.8 7.1 6.1 3.3 12.2 6.6 18.4 10 4.3 2.3 8.5 4.6 12.9 6.9 6.6 3.5 13.4 7 20.2 10.5 4.1 2.1 8.1 4.2 12.3 6.4 8.1 4.1 16.4 8.3 24.7 12.4 3 1.5 6 3 9.1 4.6 11.4 5.7 23.1 11.4 35 17.1 2.8 1.3 5.7 2.7 8.5 4 9.2 4.4 18.4 8.8 27.9 13.2 4.5 2.1 9.1 4.2 13.7 6.3 7.9 3.7 15.9 7.3 24 11 5.2 2.4 10.6 4.8 15.9 7.1 7.7 3.4 15.3 6.8 23.1 10.3l17.1 7.5c7.8 3.4 15.6 6.8 23.5 10.1 5.8 2.5 11.7 5 17.7 7.5 8.1 3.4 16.2 6.8 24.5 10.3 6 2.5 12 5 18.1 7.5 8.4 3.5 17 6.9 25.5 10.4 6.1 2.5 12.2 4.9 18.4 7.4 9 3.6 18.1 7.2 27.3 10.8 6 2.4 11.9 4.7 17.9 7.1 10.3 4 20.8 8.1 31.3 12.1 5.1 1.9 10 3.9 15.2 5.8 15.8 6 31.8 12 48.1 18.1 0 0-15.2-8.6-40.7-24.5C-357 745.9 620.9 281.7 1121 109.3c-12.5 3.4-26.9 7.3-42.8 11.8l-1.2.3c-2.6.7-5.3 1.5-8 2.3-.9.2-1.7.5-2.6.7-2.5.7-5.1 1.5-7.7 2.2-1.1.3-2.1.6-3.2.9-2.5.7-5 1.4-7.5 2.2l-4.2 1.2c-2.3.7-4.7 1.4-7.1 2.1-1.5.5-3.1.9-4.6 1.4-2.5.7-5 1.5-7.5 2.3-1.4.4-2.9.9-4.4 1.3-2.6.8-5.1 1.6-7.7 2.3-1.7.5-3.5 1.1-5.2 1.6-2.5.8-5 1.5-7.5 2.3-2 .6-4 1.3-6.1 1.9-4 1.2-8.1 2.5-12.2 3.8l-7.5 2.4c-2.1.7-4.2 1.4-6.3 2l-7.5 2.4c-2.1.7-4.2 1.4-6.4 2.1-2.5.8-5 1.6-7.6 2.5-2.3.7-4.5 1.5-6.8 2.2-2.5.8-5 1.6-7.5 2.5-2.3.8-4.7 1.5-7 2.3-2.5.8-5.1 1.7-7.7 2.6-2.3.8-4.5 1.5-6.8 2.3-2.8 1-5.7 1.9-8.5 2.9-2.1.7-4.2 1.4-6.3 2.2-3 1-6 2.1-9.1 3.1l-6 2.1-10.2 3.6-5.1 1.8c-4.3 1.5-8.6 3.1-12.9 4.6-.9.3-1.8.6-2.7 1-5.2 1.9-10.5 3.8-15.7 5.7-1.3.5-2.6 1-3.9 1.4l-12 4.5c-1.8.7-3.6 1.4-5.4 2-3.5 1.3-7 2.6-10.5 4l-6.3 2.4c-3.3 1.3-6.6 2.5-10 3.8l-6.3 2.4c-3.4 1.3-6.7 2.6-10.1 4-2.1.8-4.2 1.6-6.3 2.5-3.5 1.4-6.9 2.8-10.4 4.1-2 .8-4 1.6-5.9 2.4-3.6 1.5-7.3 3-11 4.5-1.8.7-3.6 1.5-5.5 2.2-3.8 1.6-7.7 3.2-11.5 4.8l-5.1 2.1c-4.3 1.8-8.7 3.7-13 5.5-1.2.5-2.3 1-3.5 1.5-11.1 4.8-22.3 9.6-33.4 14.6-1.2.6-2.5 1.1-3.7 1.7-4.3 1.9-8.6 3.9-12.8 5.8-1.6.7-3.2 1.5-4.9 2.2-3.8 1.8-7.7 3.5-11.5 5.3l-5.7 2.7-10.8 5.1c-1.9.9-3.9 1.8-5.8 2.8-3.6 1.7-7.1 3.4-10.6 5.2-2 1-3.9 1.9-5.9 2.9-3.6 1.8-7.1 3.5-10.7 5.3l-5.4 2.7c-3.8 1.9-7.6 3.9-11.4 5.8-1.6.8-3.2 1.6-4.8 2.5-4.1 2.2-8.3 4.3-12.4 6.5-1.2.6-2.4 1.3-3.6 1.9-10.8 5.7-21.5 11.6-32 17.5-.6.3-1.1.6-1.7 1-4.6 2.6-9.2 5.2-13.8 7.9-1.3.8-2.6 1.5-3.9 2.3-3.8 2.2-7.6 4.4-11.3 6.6-1.6 1-3.2 1.9-4.9 2.9-3.4 2.1-6.9 4.1-10.3 6.2-1.7 1-3.4 2.1-5.1 3.1-3.3 2.1-6.6 4.1-9.9 6.2-1.7 1.1-3.4 2.1-5.1 3.2-3.3 2.1-6.5 4.2-9.7 6.3-1.7 1.1-3.3 2.2-4.9 3.2-3.3 2.1-6.5 4.3-9.7 6.5-1.6 1.1-3.1 2.1-4.7 3.2-3.4 2.3-6.8 4.7-10.2 7.1-1.3.9-2.5 1.7-3.8 2.6-4.1 2.9-8.1 5.8-12 8.7-.6.4-1.1.8-1.7 1.2-9.2 6.7-18.1 13.5-26.8 20.5-1 .8-1.9 1.6-2.9 2.4-3.3 2.6-6.5 5.3-9.7 7.9-1.3 1.1-2.5 2.1-3.8 3.2-2.9 2.4-5.7 4.8-8.5 7.2-1.4 1.2-2.7 2.4-4 3.5-2.7 2.3-5.3 4.7-7.9 7.1-1.4 1.2-2.7 2.5-4.1 3.7-2.5 2.3-5 4.7-7.5 7-1.3 1.3-2.7 2.6-4 3.8-2.4 2.4-4.9 4.7-7.2 7.1l-3.8 3.8c-2.5 2.5-4.9 5-7.3 7.5-1.1 1.2-2.2 2.3-3.3 3.5-2.6 2.8-5.2 5.7-7.7 8.5-.8.9-1.6 1.7-2.3 2.6-6.6 7.6-13 15.2-18.9 23-.5.6-.9 1.3-1.4 1.9l-7.2 9.6c-.8 1.1-1.6 2.3-2.4 3.4-1.9 2.7-3.8 5.5-5.6 8.2-.9 1.3-1.8 2.7-2.6 4-1.7 2.6-3.3 5.2-4.9 7.8-.9 1.4-1.7 2.9-2.6 4.3-1.5 2.5-3 5.1-4.4 7.7-.8 1.5-1.6 3-2.4 4.4-1.4 2.6-2.7 5.1-4 7.7-.7 1.5-1.5 3-2.2 4.5-1.3 2.6-2.5 5.3-3.7 8-.6 1.4-1.3 2.8-1.9 4.3-1.2 2.9-2.4 5.7-3.5 8.6-.5 1.2-1 2.5-1.5 3.7-1.3 3.5-2.5 6.9-3.6 10.4-.2.7-.5 1.4-.7 2.1-1.4 4.3-2.6 8.6-3.8 12.9 0 .1 0 .1-.1.2-1.1 4.1-2.1 8.3-2.9 12.5-.2 1.2-.4 2.4-.7 3.6-.6 3.1-1.2 6.2-1.7 9.3l-.6 4.5c-.4 2.8-.7 5.7-1 8.5-.2 1.6-.3 3.3-.4 4.9-.2 2.7-.4 5.5-.5 8.2-.1 1.7-.1 3.4-.2 5.1-.1 2.7-.1 5.5 0 8.2 0 1.7 0 3.4.1 5.2.1 2.8.3 5.6.4 8.4.1 1.7.2 3.4.4 5.1.3 2.9.6 5.9 1 8.8.2 1.6.4 3.1.6 4.7.5 3.3 1.1 6.5 1.7 9.8.2 1.3.4 2.6.7 3.8 1.9 9.2 4.2 18.5 7.2 27.8.4 1.1.8 2.3 1.2 3.4 1.2 3.5 2.4 7 3.7 10.6.6 1.6 1.3 3.2 1.9 4.8 1.2 3.1 2.4 6.2 3.8 9.3l2.4 5.4c1.3 2.9 2.7 5.9 4.1 8.9.9 1.9 1.9 3.8 2.9 5.7 1.5 2.9 3 5.8 4.6 8.7 1.1 1.9 2.1 3.9 3.2 5.8 1.7 2.9 3.4 5.9 5.2 8.8 1.2 1.9 2.3 3.8 3.5 5.8 1.9 3 3.9 6 5.9 9.1 1.2 1.9 2.5 3.7 3.7 5.6 2.2 3.2 4.5 6.5 6.9 9.7 1.2 1.7 2.4 3.4 3.7 5.1 2.9 3.8 5.9 7.7 8.9 11.5.9 1.1 1.7 2.2 2.6 3.3 4 5 8.2 10 12.6 15.1.7.8 1.5 1.6 2.2 2.5 3.7 4.2 7.4 8.4 11.3 12.6 1.5 1.7 3.2 3.4 4.8 5.1 3.2 3.4 6.4 6.7 9.7 10.1 1.9 2 3.9 3.9 5.9 5.9 3.1 3.1 6.3 6.3 9.6 9.4 1.4 2.3 3.6 4.4 5.9 6.5z"/><linearGradient id="di" gradientUnits="userSpaceOnUse" x1="729.698" y1="193.54" x2="688.051" y2="846.88"><stop offset="0" stop-color="#ffc03b"/><stop offset="1" stop-color="#fd4f57"/></linearGradient><path fill="url(#di)" d="M335.2 986.1c3.3 3.1 6.6 6.1 10 9.2 2.3 2.1 4.7 4.3 7.1 6.4 3.4 3.1 6.9 6.1 10.5 9.2 2.5 2.2 5 4.3 7.6 6.5 3.7 3.1 7.4 6.2 11.3 9.3 2.6 2.1 5.2 4.3 7.8 6.4 4.1 3.3 8.2 6.5 12.4 9.8 2.6 2 5.1 4 7.7 6 4.7 3.6 9.6 7.2 14.4 10.8 2.3 1.7 4.5 3.4 6.8 5.1 7.1 5.2 14.4 10.4 21.8 15.6.2.1.3.2.5.4 7.7 5.4 15.6 10.8 23.6 16.2 2.5 1.7 5 3.3 7.5 5 5.6 3.7 11.3 7.5 17.1 11.2 3.2 2.1 6.5 4.1 9.8 6.2 5.3 3.4 10.6 6.7 16.1 10.1 3.6 2.2 7.3 4.5 11 6.7 5.3 3.2 10.7 6.5 16.1 9.7 3.9 2.3 7.9 4.7 11.9 7 5.4 3.2 10.9 6.4 16.4 9.6 4.1 2.4 8.3 4.8 12.5 7.1 5.7 3.2 11.5 6.4 17.3 9.7 4.2 2.4 8.5 4.7 12.8 7.1 6.1 3.3 12.2 6.6 18.4 10 4.3 2.3 8.5 4.6 12.9 6.9 6.6 3.5 13.4 7 20.2 10.5 4.1 2.1 8.1 4.2 12.3 6.4 8.1 4.1 16.4 8.3 24.7 12.4 3 1.5 6 3 9.1 4.6 11.4 5.7 23.1 11.4 35 17.1 2.8 1.3 5.7 2.7 8.5 4 9.2 4.4 18.4 8.8 27.9 13.2 4.5 2.1 9.1 4.2 13.7 6.3 7.9 3.7 15.9 7.3 24 11 5.2 2.4 10.6 4.8 15.9 7.1 7.7 3.4 15.3 6.8 23.1 10.3l17.1 7.5c7.8 3.4 15.6 6.8 23.5 10.1 5.8 2.5 11.7 5 17.7 7.5 8.1 3.4 16.2 6.8 24.5 10.3 6 2.5 12 5 18.1 7.5 8.4 3.5 17 6.9 25.5 10.4 6.1 2.5 12.2 4.9 18.4 7.4 9 3.6 18.1 7.2 27.3 10.8 6 2.4 11.9 4.7 17.9 7.1 10.3 4 20.8 8.1 31.3 12.1 5.1 1.9 10 3.9 15.2 5.8 15.8 6 31.8 12 48.1 18.1 0 0-15.2-8.6-40.7-24.5C-357 745.9 620.9 281.7 1121 109.3c-12.5 3.4-26.9 7.3-42.8 11.8l-1.2.3c-2.6.7-5.3 1.5-8 2.3-.9.2-1.7.5-2.6.7-2.5.7-5.1 1.5-7.7 2.2-1.1.3-2.1.6-3.2.9-2.5.7-5 1.4-7.5 2.2l-4.2 1.2c-2.3.7-4.7 1.4-7.1 2.1-1.5.5-3.1.9-4.6 1.4-2.5.7-5 1.5-7.5 2.3-1.4.4-2.9.9-4.4 1.3-2.6.8-5.1 1.6-7.7 2.3-1.7.5-3.5 1.1-5.2 1.6-2.5.8-5 1.5-7.5 2.3-2 .6-4 1.3-6.1 1.9-4 1.2-8.1 2.5-12.2 3.8l-7.5 2.4c-2.1.7-4.2 1.4-6.3 2l-7.5 2.4c-2.1.7-4.2 1.4-6.4 2.1-2.5.8-5 1.6-7.6 2.5-2.3.7-4.5 1.5-6.8 2.2-2.5.8-5 1.6-7.5 2.5-2.3.8-4.7 1.5-7 2.3-2.5.8-5.1 1.7-7.7 2.6-2.3.8-4.5 1.5-6.8 2.3-2.8 1-5.7 1.9-8.5 2.9-2.1.7-4.2 1.4-6.3 2.2-3 1-6 2.1-9.1 3.1l-6 2.1-10.2 3.6-5.1 1.8c-4.3 1.5-8.6 3.1-12.9 4.6-.9.3-1.8.6-2.7 1-5.2 1.9-10.5 3.8-15.7 5.7-1.3.5-2.6 1-3.9 1.4l-12 4.5c-1.8.7-3.6 1.4-5.4 2-3.5 1.3-7 2.6-10.5 4l-6.3 2.4c-3.3 1.3-6.6 2.5-10 3.8l-6.3 2.4c-3.4 1.3-6.7 2.6-10.1 4-2.1.8-4.2 1.6-6.3 2.5-3.5 1.4-6.9 2.8-10.4 4.1-2 .8-4 1.6-5.9 2.4-3.6 1.5-7.3 3-11 4.5-1.8.7-3.6 1.5-5.5 2.2-3.8 1.6-7.7 3.2-11.5 4.8l-5.1 2.1c-4.3 1.8-8.7 3.7-13 5.5-1.2.5-2.3 1-3.5 1.5-11.1 4.8-22.3 9.6-33.4 14.6-1.2.6-2.5 1.1-3.7 1.7-4.3 1.9-8.6 3.9-12.8 5.8-1.6.7-3.2 1.5-4.9 2.2-3.8 1.8-7.7 3.5-11.5 5.3l-5.7 2.7-10.8 5.1c-1.9.9-3.9 1.8-5.8 2.8-3.6 1.7-7.1 3.4-10.6 5.2-2 1-3.9 1.9-5.9 2.9-3.6 1.8-7.1 3.5-10.7 5.3l-5.4 2.7c-3.8 1.9-7.6 3.9-11.4 5.8-1.6.8-3.2 1.6-4.8 2.5-4.1 2.2-8.3 4.3-12.4 6.5-1.2.6-2.4 1.3-3.6 1.9-10.8 5.7-21.5 11.6-32 17.5-.6.3-1.1.6-1.7 1-4.6 2.6-9.2 5.2-13.8 7.9-1.3.8-2.6 1.5-3.9 2.3-3.8 2.2-7.6 4.4-11.3 6.6-1.6 1-3.2 1.9-4.9 2.9-3.4 2.1-6.9 4.1-10.3 6.2-1.7 1-3.4 2.1-5.1 3.1-3.3 2.1-6.6 4.1-9.9 6.2-1.7 1.1-3.4 2.1-5.1 3.2-3.3 2.1-6.5 4.2-9.7 6.3-1.7 1.1-3.3 2.2-4.9 3.2-3.3 2.1-6.5 4.3-9.7 6.5-1.6 1.1-3.1 2.1-4.7 3.2-3.4 2.3-6.8 4.7-10.2 7.1-1.3.9-2.5 1.7-3.8 2.6-4.1 2.9-8.1 5.8-12 8.7-.6.4-1.1.8-1.7 1.2-9.2 6.7-18.1 13.5-26.8 20.5-1 .8-1.9 1.6-2.9 2.4-3.3 2.6-6.5 5.3-9.7 7.9-1.3 1.1-2.5 2.1-3.8 3.2-2.9 2.4-5.7 4.8-8.5 7.2-1.4 1.2-2.7 2.4-4 3.5-2.7 2.3-5.3 4.7-7.9 7.1-1.4 1.2-2.7 2.5-4.1 3.7-2.5 2.3-5 4.7-7.5 7-1.3 1.3-2.7 2.6-4 3.8-2.4 2.4-4.9 4.7-7.2 7.1l-3.8 3.8c-2.5 2.5-4.9 5-7.3 7.5-1.1 1.2-2.2 2.3-3.3 3.5-2.6 2.8-5.2 5.7-7.7 8.5-.8.9-1.6 1.7-2.3 2.6-6.6 7.6-13 15.2-18.9 23-.5.6-.9 1.3-1.4 1.9l-7.2 9.6c-.8 1.1-1.6 2.3-2.4 3.4-1.9 2.7-3.8 5.5-5.6 8.2-.9 1.3-1.8 2.7-2.6 4-1.7 2.6-3.3 5.2-4.9 7.8-.9 1.4-1.7 2.9-2.6 4.3-1.5 2.5-3 5.1-4.4 7.7-.8 1.5-1.6 3-2.4 4.4-1.4 2.6-2.7 5.1-4 7.7-.7 1.5-1.5 3-2.2 4.5-1.3 2.6-2.5 5.3-3.7 8-.6 1.4-1.3 2.8-1.9 4.3-1.2 2.9-2.4 5.7-3.5 8.6-.5 1.2-1 2.5-1.5 3.7-1.3 3.5-2.5 6.9-3.6 10.4-.2.7-.5 1.4-.7 2.1-1.4 4.3-2.6 8.6-3.8 12.9 0 .1 0 .1-.1.2-1.1 4.1-2.1 8.3-2.9 12.5-.2 1.2-.4 2.4-.7 3.6-.6 3.1-1.2 6.2-1.7 9.3l-.6 4.5c-.4 2.8-.7 5.7-1 8.5-.2 1.6-.3 3.3-.4 4.9-.2 2.7-.4 5.5-.5 8.2-.1 1.7-.1 3.4-.2 5.1-.1 2.7-.1 5.5 0 8.2 0 1.7 0 3.4.1 5.2.1 2.8.3 5.6.4 8.4.1 1.7.2 3.4.4 5.1.3 2.9.6 5.9 1 8.8.2 1.6.4 3.1.6 4.7.5 3.3 1.1 6.5 1.7 9.8.2 1.3.4 2.6.7 3.8 1.9 9.2 4.2 18.5 7.2 27.8.4 1.1.8 2.3 1.2 3.4 1.2 3.5 2.4 7 3.7 10.6.6 1.6 1.3 3.2 1.9 4.8 1.2 3.1 2.4 6.2 3.8 9.3l2.4 5.4c1.3 2.9 2.7 5.9 4.1 8.9.9 1.9 1.9 3.8 2.9 5.7 1.5 2.9 3 5.8 4.6 8.7 1.1 1.9 2.1 3.9 3.2 5.8 1.7 2.9 3.4 5.9 5.2 8.8 1.2 1.9 2.3 3.8 3.5 5.8 1.9 3 3.9 6 5.9 9.1 1.2 1.9 2.5 3.7 3.7 5.6 2.2 3.2 4.5 6.5 6.9 9.7 1.2 1.7 2.4 3.4 3.7 5.1 2.9 3.8 5.9 7.7 8.9 11.5.9 1.1 1.7 2.2 2.6 3.3 4 5 8.2 10 12.6 15.1.7.8 1.5 1.6 2.2 2.5 3.7 4.2 7.4 8.4 11.3 12.6 1.5 1.7 3.2 3.4 4.8 5.1 3.2 3.4 6.4 6.7 9.7 10.1 1.9 2 3.9 3.9 5.9 5.9 3.1 3.1 6.3 6.3 9.6 9.4 1.4 2.3 3.6 4.4 5.9 6.5z"/><linearGradient id="dj" gradientUnits="userSpaceOnUse" x1="669.972" y1="571.859" x2="899.725" y2="559.236"><stop offset="0" stop-color="#ffc03b"/><stop offset="1" stop-color="#00a9de"/></linearGradient><path fill="url(#dj)" d="M678.1 573.9c-.2-1.6-.4-3.3-.5-4.9.2 1.6.3 3.2.5 4.9z"/><linearGradient id="dk" gradientUnits="userSpaceOnUse" x1="670.732" y1="585.686" x2="900.485" y2="573.063"><stop offset="0" stop-color="#ffc03b"/><stop offset="1" stop-color="#00a9de"/></linearGradient><path fill="url(#dk)" d="M1234.9 144.3C964.4 251.7 257.3 599 1312.6 962.9c1.8.9 3.3 1.6 4.6 2.3 1.6.5 3.2 1 4.8 1.4 0 0-895.9-422.2-67.3-829.7 0 0-597.8 184-577.1 430.1-17.2-218.7 454-388.2 557.3-422.7z"/><linearGradient id="dl" gradientUnits="userSpaceOnUse" x1="670.5" y1="581.471" x2="832.526" y2="572.569"><stop offset="0" stop-color="#ffc03b"/><stop offset="1" stop-color="#00a9de"/></linearGradient><path fill="url(#dl)" d="M679.2 581.1v-.2.2z"/><linearGradient id="dm" gradientUnits="userSpaceOnUse" x1="1020.66" y1="253.74" x2="998.823" y2="821.492"><stop offset="0" stop-color="#ffc03b"/><stop offset="1" stop-color="#00a9de"/></linearGradient><path fill="url(#dm)" d="M679.2 581.1C699.9 700.6 868.9 834 1322 967.6c0 0-1.8-.8-4.9-2.4-448.3-132.8-616.5-265.3-637.9-384.1z"/><linearGradient id="dn" gradientUnits="userSpaceOnUse" x1="691.601" y1="241.084" x2="669.765" y2="808.836"><stop offset="0" stop-color="#ffc03b"/><stop offset="1" stop-color="#00a9de"/></linearGradient><path fill="url(#dn)" d="M679.2 580.9c-.4-2.3-.7-4.7-1.1-7 .3 2.3.7 4.7 1.1 7z"/><linearGradient id="do" gradientUnits="userSpaceOnUse" x1="690.091" y1="241.026" x2="668.254" y2="808.778"><stop offset="0" stop-color="#ffc03b"/><stop offset="1" stop-color="#00a9de"/></linearGradient><path fill="url(#do)" d="M677.6 569c-.1-.7-.1-1.3-.2-2 .1.7.1 1.3.2 2z"/><linearGradient id="dp" gradientUnits="userSpaceOnUse" x1="670.859" y1="587.986" x2="900.611" y2="575.364"><stop offset="0" stop-color="#ffc03b"/><stop offset="1" stop-color="#00a9de"/></linearGradient><path fill="url(#dp)" d="M1317.1 965.2c-1.3-.6-2.8-1.4-4.6-2.3-1055.3-363.8-348.2-711.1-77.7-818.6-103.2 34.5-574.4 204-557.4 422.7.1.7.1 1.3.2 2 .1 1.6.3 3.3.5 4.9.3 2.3.6 4.7 1.1 7v.2c21.4 118.8 189.6 251.3 637.9 384.1z"/><linearGradient id="dq" gradientUnits="userSpaceOnUse" x1="1016.478" y1="253.579" x2="994.641" y2="821.331"><stop offset="0" stop-color="#ffc03b"/><stop offset="1" stop-color="#00a9de"/></linearGradient><path fill="url(#dq)" d="M1317.1 965.2c-1.3-.6-2.8-1.4-4.6-2.3-1055.3-363.8-348.2-711.1-77.7-818.6-103.2 34.5-574.4 204-557.4 422.7.1.7.1 1.3.2 2 .1 1.6.3 3.3.5 4.9.3 2.3.6 4.7 1.1 7v.2c21.4 118.8 189.6 251.3 637.9 384.1z"/><linearGradient id="dr" gradientUnits="userSpaceOnUse" x1="1053.656" y1="415.855" x2="1192.49" y2="405.761"><stop offset="0" stop-color="#ffc03b"/><stop offset="1" stop-color="#55924e"/></linearGradient><path fill="url(#dr)" d="M1066.7 417.7c-.9-1.8-1.8-3.6-2.6-5.4.8 1.8 1.6 3.6 2.6 5.4z"/><linearGradient id="ds" gradientUnits="userSpaceOnUse" x1="1054.977" y1="434.026" x2="1193.811" y2="423.933"><stop offset="0" stop-color="#ffc03b"/><stop offset="1" stop-color="#55924e"/></linearGradient><path fill="url(#ds)" d="M1076.1 432.7c-.1-.1-.2-.3-.3-.4.1.1.2.3.3.4z"/><linearGradient id="dt" gradientUnits="userSpaceOnUse" x1="1052.625" y1="401.676" x2="1191.459" y2="391.583"><stop offset="0" stop-color="#ffc03b"/><stop offset="1" stop-color="#55924e"/></linearGradient><path fill="url(#dt)" d="M1334 181.3s-324.8 100-270.5 229.4c-47.4-115.5 206.9-207.5 260.9-225.6-121.6 47.8-473.5 215.4 35.3 391.6 2.2.7 4.3 1.3 6.6 2-.1.1-429.3-202.2-32.3-397.4z"/><linearGradient id="du" gradientUnits="userSpaceOnUse" x1="1054.295" y1="424.646" x2="1193.129" y2="414.552"><stop offset="0" stop-color="#ffc03b"/><stop offset="1" stop-color="#55924e"/></linearGradient><path fill="url(#du)" d="M1070.9 425c-.6-1-1.2-2-1.8-3.1.5 1.1 1.1 2.1 1.8 3.1z"/><linearGradient id="dv" gradientUnits="userSpaceOnUse" x1="1072.741" y1="183.573" x2="1066.574" y2="481.492"><stop offset="0" stop-color="#ffc03b"/><stop offset="1" stop-color="#55924e"/></linearGradient><path fill="url(#dv)" d="M1069 422c-.8-1.4-1.6-2.9-2.4-4.3.8 1.4 1.6 2.8 2.4 4.3z"/><linearGradient id="dw" gradientUnits="userSpaceOnUse" x1="1227.946" y1="186.786" x2="1221.778" y2="484.705"><stop offset="0" stop-color="#ffc03b"/><stop offset="1" stop-color="#55924e"/></linearGradient><path fill="url(#dw)" d="M1076.1 432.7c34.5 46.7 120.9 96.7 290.5 146.7 0 0-.4-.2-1.3-.6-2-.7-3.8-1.3-5.7-2-164.4-49.1-249.2-98.1-283.5-144.1z"/><linearGradient id="dx" gradientUnits="userSpaceOnUse" x1="1068.48" y1="183.485" x2="1062.313" y2="481.404"><stop offset="0" stop-color="#ffc03b"/><stop offset="1" stop-color="#55924e"/></linearGradient><path fill="url(#dx)" d="M1064.1 412.3c-.2-.5-.5-1.1-.7-1.6.2.6.5 1.1.7 1.6z"/><linearGradient id="dy" gradientUnits="userSpaceOnUse" x1="1078.399" y1="183.69" x2="1072.232" y2="481.609"><stop offset="0" stop-color="#ffc03b"/><stop offset="1" stop-color="#55924e"/></linearGradient><path fill="url(#dy)" d="M1075.8 432.3c-1.8-2.4-3.4-4.8-4.9-7.2 1.5 2.3 3.1 4.8 4.9 7.2z"/><linearGradient id="dz" gradientUnits="userSpaceOnUse" x1="1052.649" y1="402.005" x2="1191.483" y2="391.912"><stop offset="0" stop-color="#ffc03b"/><stop offset="1" stop-color="#55924e"/></linearGradient><path fill="url(#dz)" d="M1324.3 185.2c-54 18.1-308.4 110-260.9 225.6.2.5.4 1.1.7 1.6.8 1.8 1.7 3.6 2.6 5.4.7 1.4 1.5 2.9 2.4 4.3.6 1 1.2 2 1.8 3.1 1.5 2.4 3.1 4.8 4.9 7.2.1.1.2.3.3.4 34.3 45.9 119.1 94.9 283.5 144.1-508.8-176.4-156.8-344-35.3-391.7z"/><linearGradient id="dA" gradientUnits="userSpaceOnUse" x1="1214.642" y1="186.511" x2="1208.475" y2="484.43"><stop offset="0" stop-color="#ffc03b"/><stop offset="1" stop-color="#55924e"/></linearGradient><path fill="url(#dA)" d="M1324.3 185.2c-54 18.1-308.4 110-260.9 225.6.2.5.4 1.1.7 1.6.8 1.8 1.7 3.6 2.6 5.4.7 1.4 1.5 2.9 2.4 4.3.6 1 1.2 2 1.8 3.1 1.5 2.4 3.1 4.8 4.9 7.2.1.1.2.3.3.4 34.3 45.9 119.1 94.9 283.5 144.1-508.8-176.4-156.8-344-35.3-391.7z"/><path fill="#FD4F57" d="M489.9 295.4c3.7 0 7.3-.2 10.9-.5-22 22.5-52.9 36.6-87.2 36.9.4 0 .8.1 1.2.1 67.3 0 121.9-53.1 121.9-118.6S482.1 94.7 414.8 94.7c-4.5 0-9 .3-13.4.7-20.7 21.2-33.5 49.9-33.5 81.4.1 65.5 54.7 118.6 122 118.6z"/><linearGradient id="dB" gradientUnits="userSpaceOnUse" x1="339.158" y1="-4.598" x2="357.366" y2="386.9"><stop offset="0" stop-color="#ffc03b"/><stop offset="1" stop-color="#fd4f57"/></linearGradient><path fill="url(#dB)" d="M412.6 331.8c.4 0 .7-.1 1-.1-66.8-.6-120.7-53.4-120.7-118.5 0-61.1 47.5-111.4 108.5-117.8l.2-.2c-62.2 5.4-111 56.1-111 118.1 0 65.4 54.6 118.5 122 118.5z"/><path fill="#FD4F57" d="M292.9 213.2c0 65.1 53.9 117.9 120.7 118.5 34.4-.3 65.3-14.4 87.2-36.9-3.6.3-7.2.5-10.9.5-67.3 0-121.9-53.1-121.9-118.6 0-31.6 12.8-60.2 33.5-81.4-61.1 6.5-108.6 56.8-108.6 117.9z"/><linearGradient id="dC" gradientUnits="userSpaceOnUse" x1="384.687" y1="-6.715" x2="402.894" y2="384.783"><stop offset="0" stop-color="#ffc03b"/><stop offset="1" stop-color="#fd4f57"/></linearGradient><path fill="url(#dC)" d="M292.9 213.2c0 65.1 53.9 117.9 120.7 118.5 34.4-.3 65.3-14.4 87.2-36.9-3.6.3-7.2.5-10.9.5-67.3 0-121.9-53.1-121.9-118.6 0-31.6 12.8-60.2 33.5-81.4-61.1 6.5-108.6 56.8-108.6 117.9z"/></svg>