<svg xmlns:xlink="http://www.w3.org/1999/xlink"  xmlns="http://www.w3.org/2000/svg" width="100" height="100" viewBox="0 0 100 100"><g fill="#EA2429"><path d="M34.175 51.066c3.02-.99 5.675-2.858 7.928-5.064 2.067 7.89 5.828 15.373 11.172 21.557 2.693 3.146 5.789 5.934 9.139 8.355 2.871 2.038 5.947 3.766 9.014 5.481a63.102 63.102 0 0 0 8.454 3.917 126.342 126.342 0 0 1-12.592-4.27c-5.722-2.295-11.278-5.162-16.022-9.13-6.942-5.776-12.973-12.773-17.093-20.846zM20.152 47.336c3.126 2.778 7.39 4.078 11.524 4.117 3.956 6.636 8.691 12.832 14.417 18.033-9.385-6.451-18.042-13.943-25.941-22.15z"/></g><radialGradient id="a" cx="24.56" cy="28.002" r="40.991" gradientUnits="userSpaceOnUse"><stop offset=".121" stop-color="#d6de23"/><stop offset=".455" stop-color="#8bc53f"/><stop offset=".746" stop-color="#009345"/><stop offset="1" stop-color="#00411d"/></radialGradient><path fill="url(#a)" d="M35.259 19.261c3.337 1.237 6.124 3.727 7.869 6.806 1.771 3.249 2.228 7.208 1.135 10.757-1.076 3.621-3.702 6.738-7.09 8.42-1.135.529-2.287 1.24-3.587 1.177-1.33-3.071-2.833-6.146-3.27-9.504-.5-3.879.458-7.78 1.872-11.375.839-2.177 1.801-4.32 3.071-6.281zm4.387 6.984c-.957-.339-2.054-.013-2.77.686-1.711 1.622-2.058 4.43-.949 6.48.525 1.008 1.597 1.795 2.761 1.686 1.177-.072 2.105-.974 2.66-1.948.804-1.469.932-3.312.296-4.866-.371-.899-1.048-1.729-1.998-2.038z"/><radialGradient id="b" cx="24.561" cy="28.003" r="40.982" gradientUnits="userSpaceOnUse"><stop offset=".121" stop-color="#d6de23"/><stop offset=".455" stop-color="#8bc53f"/><stop offset=".746" stop-color="#009345"/><stop offset="1" stop-color="#00411d"/></radialGradient><path fill="url(#b)" d="M29.816 18.329c.937.013 1.868.089 2.791.22-1.439 2.617-2.778 5.307-3.752 8.131-1.567 4.778-1.876 10.105-.136 14.882a18.185 18.185 0 0 0 2.956 5.269l-1.334.038c-1.313-1.563-2.57-3.21-3.308-5.133-1.584-4.108-2.033-8.64-1.33-12.98.415-2.634 1.38-5.142 2.481-7.556a19.293 19.293 0 0 1 1.632-2.871z"/><g><radialGradient id="c" cx="24.561" cy="28.002" r="40.992" gradientUnits="userSpaceOnUse"><stop offset=".121" stop-color="#d6de23"/><stop offset=".455" stop-color="#8bc53f"/><stop offset=".746" stop-color="#009345"/><stop offset="1" stop-color="#00411d"/></radialGradient><path fill="url(#c)" d="M22.198 17.914c-3.274 5.548-4.798 12.299-3.329 18.651.745 3.27 2.21 6.396 4.341 9-3.452-.843-6.62-2.868-8.725-5.752-2.55-3.439-3.435-8.076-2.219-12.202 1.292-4.695 5.256-8.439 9.932-9.697z"/></g></svg>