<svg xmlns:xlink="http://www.w3.org/1999/xlink"  xmlns="http://www.w3.org/2000/svg" viewBox="0 0 150 150"><path fill="#EC2024" d="M57.1 105.9c.1.5.5 3.5.5 4s-.2 1.8 0 2.2c.2.4.5 1.2.8 1.2.3 0 .9.1 1 0 .1-.1.5-.1.6-.1.1.1.8.2 1 .1.2-.1.6-.1.8-.1h.4c.1-.1.4.1.6-.1.2-.1.5.2.6 0 .1-.2.6 0 .6-.4s-.1-.7-.4-.7c0 0-.9-.1-1.1-.1-.2 0-.8-.2-.8-.2s-.4-.4-.6-.4c-.2 0-.6-.2-.5-.6.1-.4.5-1.2.7-1.7.2-.5 1.5-3.4 1.6-3.8.1-.4 1.7-3.1 2.5-4.2s3.6-3.9 4.6-4.7c1-.8 3.3-2.7 3.5-3.1.2-.4-.2 1.8-.2 2.6s-.2 2.8-.2 3.1c-.1.3-.9 4.4-1.3 5.8-.5 1.4-1.3 4-1.6 4.6-.3.6-.9 2.3-.3 2.7.7.4 3.6.6 4.1.4.6-.3 3-.5 4-.3s1.7.4 2.4.5c.8.1 1 0 1.1 0 .1-.1.8.1.9.1.1 0 1.8.2 2.1 0 .3-.2.3-.7-.1-.9-.5-.2-.7-.3-.7-.3s.1-.6-.3-.7c-.4 0-1.1-.1-1.1-.1l-.6-.4c-.3-.2-1.4-.9-2-1.2-.6-.3-1.9-1.1-2.3-1.3-.3-.2-1.2-.8-1.1-1.5.1-.7 1.1-4.3 1.9-5.7.8-1.4 2.8-4.8 3.4-6.3.6-1.5 1.3-4.1 1.6-4.9.3-.8.5-1.4.7-1.8.2-.3 2-3.4 2.3-4.3.2-.8.1-2.3 0-3.1-.2-.8-.3-1.9-.1-3 .2-1.1.4-5.6-.1-7.8-.6-2.1-2.4-7.4-2.6-8-.2-.7-1.9-4.2-2-4.5-.2-.4-.9-2-.9-2.2v-.9s0-.2-.2-.4l-.4-.4-.1-.1s-.2-.2-.3-.9c0-.7 0-1.9-.1-2.5 0-.7-.1-2.7-.2-2.9-.1-.3-.3-1.2-.3-1.5 0-.3.2-1.1.2-1.4 0-.3 2.5-.2 2.8-.3.4-.2 3.4-.2 3.6-.3.2 0 2.3-.4 2.4-.4.1 0 .6-.1.9.1.3.2.9.2.9.2s.9.1 1.1.1c.2 0 .6.2 1-.1.4-.3.7-.4.7-.2 0 .1.7.6.8.6s.6.4.6.4.6.3.7 0c.2-.3.3-.4.1-.6-.2-.3-.9-.9-.9-.9s-.3-.2-.1-.2c.2 0 .6.1.8.1.2.1 1 .6 1.2.6.3 0 .9.5 1.1.5.1 0 .8.7.9.3.2-.4.3-.7 0-.9.3 0-.6-.6-.7-.7-.1-.1-.9-.5-1.2-.6-.3 0-.7-.4-.7-.6.1-.1.5-.1.8 0 .4.1 1.3.5 1.4.5.1 0 1.2.3 1.6.5.5.2.8-.3.4-.7-.4-.4-1.7-1.1-2-1.1-.3-.1-2-.7-2.2-.9-.2-.2-1-.6-1.2-.6-.2 0-.2-.3.1-.5.3-.2 1.5-.6 1.9-1.1.4-.5.5-1.1 0-1.2-.5 0-1.4.2-1.7.6-.4.3-.9.6-1.2.5-.3 0-2 .5-2.5 1-.5.4-.7 1-1 1-.4 0-3.3-.2-4-.2-.7-.1-1.8-.3-2.1-.3-.4 0-1.3-.8-1.8-.9-.5-.1-2.2-.7-2.5-.8-.3-.1.2-.4.2-.5 0-.1.2-.6.2-.6s.2-.7.5-1c.3-.3.5-.1 1.1 0 .5.1 3.4 1.2 4.5 1 1.1-.2 4.1-.6 5.4-1.5 1.3-.8 2.9-1 3.4-1.6.4-.6 1.3-1.4 1.4-1.7.1-.2.1-.6 0-1.1-.1-.4 0-1.9-1-4.1-1.1-2.3-2.6-3.5-3-4.1-.5-.6-1.5-1.7-1.9-2.4-.4-.6-1.1-1.8-1.2-1.9-.1-.2-.4-.6-.9-1-.6-.4-1.7-.7-2.1-.7s-1.1-.2-1.1-.2-.6-.2-1 0l-.4.2s-1.1 0-1.2.3l-.4 1.2s-.4.9-.1 1.4c.3.5.8 1.1.8 1.1s.5.6.7.6c.1 0 .3-.2.4-.3.1-.1.7.3.9.1.3-.1 1-.2 1.1-.2.1-.1.8.2.8.2s.5.4.8 1.2c.3.7 1 2.5 1 2.9 0 .3-.1 1.3-.1 1.6 0 .3.2 1.6.1 1.7-.1.1-1-.7-1.6-.7-.7 0-1.9-.1-2.2.1-.4.2-.5.6-1 .4-.5-.2-1.1-1.1-2.3-1.2-1.2-.1-2.5-.2-3.2.1-.7.3-1.7.9-1.9 1-.2.1-.7.1-.8-.1-.1-.1-.5-.4-.2-1.5.3-1 .7-2.5.7-2.6 0-.2.7-.9.9-1 .2-.1.8-1.1 1-1.6.2-.6.5-1.6.5-2.1s.2-.4.3-.5c.1-.1.8-1.1.7-1.6-.1-.5.2-.6.2-.9 0-.2.2-.8 0-1.1-.1-.3-.6-2-.9-2.4-.3-.4-2.8-3-3.5-3.3-.7-.3-1.8 0-2 .1-.2.2-1.2-.3-1.9.1s-2 1.4-2.8 2.6c-.8 1.2-1.3 2.2-1.4 2.6s0 1.1 0 1.6-.2 1.8 0 2.4c.3.6-.6 3-.6 3.3 0 .3.6.9.8.9.1 0 .6.3.6.3s-.7.6-.9.7c-.2.1-4.3 1.9-5.3 2.8-1 .9-2.9 3.6-3.1 6-.2 2.5 1 4.8 1.5 5.5.5.8 2.8 5.8 3.2 6.5.4.8 2.2 3.6 2.8 4.6.6 1 .8 2.1.8 2.2 0 .1.1.9.1.9l-.2.1S65 55 64.8 55.9c-.2.9-.3 3.6-.3 4.1 0 .5.7 3.1 1 3.5.3.4 1.1 2.2 1.7 2.9.6.7 1.2 2.6 1.4 2.8.2.3.4 1.9.4 1.9s.9 4.8 2.4 6.3 2.2 3.4 2.4 3.6c.1.2.1 1.2-.3 1.5-.4.3-3.2 2-4 2.9-.8.9-1.6 1.7-1.9 2.4-.3.8-1 2.3-1.4 2.8-.4.5-3.3 5-3.7 5.7-.5.7-2.2 2.6-3 3-.8.4-1.4.6-1.8.7-.4.2-1.2.3-1.4.7-.3.4-.5 1-.2 1.6 0 .6.9 3 1 3.6z"/><path fill="#0071BA" d="M106.7 99c7.3 2.4 11.8 5.6 11.8 9.1 0 5.4-8.2 9.1-19.6 11.2l.8.3-.1.1c2.7 1.2 5.3 2.7 7.7 4.2l2 1.4c8.3-3 14.5-7.5 17-13.7 3.1-7.8-9.4-10.8-19.6-12.6zM47.1 119.7l-.1-.1 1.5-.5c-10.7-2.1-18.3-5.8-18.3-10.9 0-3.5 4.5-6.7 11.8-9.1-8 1.5-18.3 5.5-19.7 11.2-1.5 6.1 5.1 11.2 15.7 14.7l1.5-1c2.3-1.7 4.9-3.1 7.6-4.3zM97.4 121.9l-.8.8-9 9.5-7.5 9.6 25.4-15.5c-2.5-1.7-5.2-3.2-8.1-4.4zM94.6 120.7c-2.4-.9-4.9-1.6-7.4-2.2l-.4.8-2.8 5.2-5.8 13.5 16.4-17.3zM75.9 133.3l8.3-15.3c-3-.5-6.2-.8-9.4-.9l1.1 16.2zM65.2 123.3l5.4 10 1.1-16.2c-3 .1-6 .3-8.8.8l2.3 5.4zM60.1 118.4c-2.4.5-4.6 1.1-6.9 1.9l7.8 10 7.2 7.7-8.1-19.6zM50.4 121.3c-3.4 1.4-6.6 3-9.4 4.9l25.4 15.5-16-20.4z"/></svg>