<svg xmlns:xlink="http://www.w3.org/1999/xlink"  xmlns="http://www.w3.org/2000/svg" width="100" height="100" viewBox="0 0 100 100"><path d="M30.126 15.194c5.198 1.32 9.855 4.334 13.756 7.951 2.38 2.277 4.517 4.853 6.001 7.802a14.238 14.238 0 0 1 1.447 4.475c.373.149.736.284 1.124.392 5.842 2.124 11.474 4.909 16.476 8.619 6.338 4.676 11.723 10.933 14.461 18.39 2.24 6.01 2.576 12.785.537 18.897-1.563 4.779-4.521 9.054-8.33 12.319 7.481-13.909 6.468-17.484 5.619-23.778-.854-6.832-4.531-13.061-9.403-17.815-5.958-5.856-13.532-9.771-21.371-12.464-4.489 2.967-10.098 3.738-15.357 3.196-5.734-.62-11.399-2.673-15.921-6.304-2.403-1.941-4.502-4.255-6.266-6.794-1.634-2.366-3.015-4.937-3.854-7.7-.5-1.74-.803-3.634-.28-5.403.919-1.428 2.454-2.333 4.101-2.646 3.057-.611 6.211-.028 9.146.877a27.591 27.591 0 0 1 6.594 3.117c-2.968-1.105-6.094-1.806-9.262-1.908-1.75-.042-3.542.065-5.203.658-.831.308-1.726.775-2.067 1.652-.368 1.078-.167 2.24.099 3.318.527 2.002 1.423 3.887 2.454 5.679 1.699 2.902 3.826 5.567 6.393 7.751 1.372 1.18 2.949 2.076 4.568 2.86 3.57 1.708 7.49 2.65 11.447 2.692 2.333.005 4.713-.242 6.896-1.096.663-.299 1.428-.616 1.745-1.311-.271-.467-.942-.35-1.404-.514-5.017-1.157-9.739-3.341-14.279-5.721-.122.406-.229.812-.322 1.218-.238-.056-.579 0-.653-.303-.023-.453.112-.891.201-1.325-.313-.182-.63-.364-.938-.537-.094.397-.196.793-.29 1.194-.214-.07-.429-.14-.644-.214.038-.472.103-.947.177-1.418a29.49 29.49 0 0 0-.83-.471l-.224 1.143c-.224-.028-.443-.065-.663-.098 0-.499.056-.994.168-1.484a34.854 34.854 0 0 0-.761-.48c-.088.387-.187.77-.285 1.162-.191-.126-.615-.145-.55-.471.009-.378.098-.747.168-1.115-.224-.14-.443-.28-.663-.425a31.39 31.39 0 0 0-.257 1.06c-.2-.033-.424-.019-.546-.206-.009-.429.112-.839.196-1.25-.224-.159-.448-.308-.667-.462a55.11 55.11 0 0 0-.257 1.045l-.504-.219c.093-.383.177-.761.261-1.144-1.572-1.167-3.149-2.352-4.479-3.803a.981.981 0 0 1 .494.243 61.643 61.643 0 0 0 4.396 2.893c.303-.284.662-.756 1.054-.275a61.32 61.32 0 0 1-.569.574c.233.14.466.28.7.425.308-.382.905-1.073 1.279-.374-.243.224-.481.453-.719.686.252.141.495.285.742.425.341-.313.593-.9 1.125-.863.084.103.238.303.317.406-.289.247-.569.518-.831.793.275.154.56.308.835.462.304-.369.588-.789 1.013-1.027.308-.122.513.182.648.406-.345.308-.677.63-.975.98.308.163.616.327.924.485.392-.471.998-1.433 1.638-.69-.257.387-.621.695-.938 1.031.349.177.699.354 1.054.532.252-.271.495-.56.789-.774.303-.206.555.13.751.327-.271.261-.541.518-.802.784a59.44 59.44 0 0 0 6.29 2.562c1.895.616 3.854 1.167 5.857 1.26 1.152.047 2.417-.111 3.299-.928.737-.616 1.017-1.624.9-2.557-.163-1.493-.938-2.837-1.735-4.083-1.96-2.865-4.484-5.296-7.163-7.479-2.419-1.914-4.985-3.715-7.878-4.812z"/><g fill="#176533"><path d="M51.003 28.726c4.67 2.043 9.365 4.349 13.037 7.96-2.398-1.339-4.773-2.748-7.279-3.896-1.559-.741-3.155-1.395-4.75-2.053-.271-.7-.613-1.376-1.008-2.011z"/><path d="M32.59 15.105c5.921 1.731 11.241 5.319 15.235 9.99 1.628 1.946 3.065 4.102 3.971 6.486 5.454 2.109 10.677 4.848 15.427 8.273 3.947 2.828 7.588 6.113 10.615 9.925 1.652 2.104 3.149 4.368 4.12 6.873-2.552-3.952-5.539-7.639-9.057-10.77-5.833-5.259-12.944-8.936-20.368-11.376-.01.425.252.947-.079 1.307a10.6 10.6 0 0 1-1.124-.392 14.263 14.263 0 0 0-1.447-4.475c-1.484-2.95-3.621-5.525-6.001-7.802a35.205 35.205 0 0 0-11.292-8.039zM19.002 13.589a20.76 20.76 0 0 1 7.615 3.033c-1.521-.518-3.033-1.073-4.606-1.414-2.935-.905-6.089-1.489-9.146-.877-1.647.313-3.182 1.218-4.101 2.646.461-1.553 1.913-2.562 3.378-3.065 2.203-.743 4.592-.72 6.86-.323zM44.27 38.105c.462.164 1.134.046 1.404.514-.317.695-1.083 1.012-1.745 1.311-2.184.854-4.563 1.101-6.896 1.096-3.957-.042-7.877-.984-11.447-2.692-1.619-.784-3.196-1.68-4.568-2.86-2.566-2.184-4.694-4.849-6.393-7.751-1.031-1.792-1.927-3.677-2.454-5.679-.266-1.078-.467-2.24-.099-3.318 1.218 1.563 5.166 4.695 5.558 5.054 1.33 1.451 2.907 2.636 4.479 3.803-.084.383-.168.761-.261 1.144l.504.219c.084-.354.168-.7.257-1.045.219.154.443.303.667.462-.084.411-.206.821-.196 1.25.122.187.346.173.546.206.08-.354.164-.705.257-1.06.219.145.439.285.663.425-.07.368-.159.737-.168 1.115-.065.326.359.345.55.471.099-.392.197-.774.285-1.162.256.159.508.317.761.48-.112.49-.168.985-.168 1.484.219.033.438.07.663.098l.224-1.143c.28.154.555.308.83.471-.075.471-.14.947-.177 1.418.215.074.43.145.644.214.094-.401.196-.797.29-1.194.308.173.625.355.938.537-.088.434-.224.873-.201 1.325.075.303.416.248.653.303.093-.406.201-.812.322-1.218 4.539 2.381 9.261 4.565 14.278 5.722z"/></g></svg>