<svg xmlns:xlink="http://www.w3.org/1999/xlink"  xmlns="http://www.w3.org/2000/svg" viewBox="0 0 1500 1500"><path d="M898.3 1290c-57.8 0-104.6 13.1-104.6 29.2s46.8 29.2 104.6 29.2 104.6-13.1 104.6-29.2-46.8-29.2-104.6-29.2z"/><path fill="#1C180D" d="M493.4 423.6l47.9 43 61.3 8.3-51.3-16.5z"/><path fill="#1C180D" d="M1214.5 600.5l-95.1-34.6-11 8.5-47.9-50.4s-16.1-1.8-29.5-3.4l-23.6-26.3-10.4-35.2s-18.3-2.8-41.4-6.2c-1.9-4.2-4.4-9.5-6.8-14.8 3.5-2.2 32.9-20.6 32.9-20.6L853 293.9l-3 38.8-17.5 10.8-1.8-2.5.4 3.4-71.5 44.2 59.6-3.1-12.5 6.3 18.8 3.2 13.5 23.7.3 2.8c-15.1-11.3-31.5-23.6-31.5-23.6s-57.9 18.4-71.4 22.7l-51.6-25.8s-57.1 25.7-66.8 30c-1.7-.2-2.2-.3-4.4-.5-3.7-11.1-12.4-37.3-12.4-37.3l-13.9-2c-43.4-6.4-86.4-16-109.7-24.1 2.4-2.9 13.8-16.5 13.8-16.5l-32.1-24.7C568.6 252.5 699.4 188.5 842.7 151l-3.3 1.3c12-3.3 23.4-6.2 34-8.9 39-9 78.8-16 119.3-20.5 48.7-2.5 55.2 9.5 55.2 9.5l-12.4 12.4 124.1-39.7c-60-7.1-122.5-4.4-164.7-.8l-.2-1.6c-210 22.2-401.7 110.4-552.3 203.9l-23.7-18.2-13.6 8.9-96.1 62.6 20.5 20c.2.2.8.8 1.6 1.5C197.5 478.3 116.3 563 114.6 564.9l14.4 13.6c1.7-1.8 83.2-86.9 217.1-183.5 36.6 32.5 129 108.7 233.1 146.8l2.5.9s138.1 16.2 153.8 18.1c8.6 9.9 35 40.3 35 40.3s49.8 59.7 57.8 69.3c.5 7.1 1.2 15.5 1.9 24.1-21 24.9-43.3 56.1-43.3 76.7 0 14.3 4.6 58.2 7.4 84.1-1.5 28.3.3 50.8.3 50.8L731 1027.4l-87.9 24.2s-48.5 63.6-48.5 72.7c0 9.1-72 84.9-72 84.9l-38.6 12.1v36.4l-9.9 72.7 17 69.7 16.9-6.1v-42.4l31.2-54.5 155-175.8 109.3-63.6c3.5-3.5 7-7.1 10.4-10.7l17-3.4 87.8-127.7c3.9.4 7.5.7 10.4.7 10.5 0 28.8-4.5 62.8-13.2 19.8-5.1 55.2-14 84.3-19.4-1.3 1.2-12.8 11.9-12.8 11.9l-.4 9.4c-2.8 70.1-8.8 153.9-13.6 167.1l-37.5 78.1-10.3 21.5 21.9 9.4 124.1 53.7 115.5-38.5s-84.1-44.5-94.1-49.8c-4-8-12.6-25.2-17.6-35.1 5.7-17 110.8-329.2 110.8-329.2l-21.3-7.5c-7.4-2.6-180.8-63.2-252.4-70.1 5-23.8 12.1-57.6 16.6-79.2 37 17 82.4 22.3 82.4 22.3l138.7 2.9 29.2 43.3 23.7 5.8v-20.2l25.2-31.7-89.8-47.6zM845.1 362l.5-.3 2.2-1.1 23.8-11.2 4.1-1.9 2.4-1.1 21.8 24.4 37 41.3-8.6 3.9h-16.6s-16.7 5.5-20.9 6.1c-.2 0-.6.2-.7.2-.2 0-.7-.2-1.2-.6-.3-.2-.7-.5-1.1-.8-3.9-3.1-11.9-10.9-20.4-19.3-8-7.9-16.1-16.2-21.3-21.5-3.2-3.3-5.3-5.4-5.3-5.4l4.3-12.7zm48.4 550.1L817.3 1023l-16 3.2 40-48 29.3-70.8 5-12.2c1.3.3 2.6.5 3.9.8 3.7.8 7.3 1.5 11 2.2 3.8.7 7.5 1.4 11 2.1l-8 11.8zm160.6-322l-24.4-19.8-17.8-14.4-3.1-2.5-12.8-20.2-2-3.1-10.7-16.9-2.7.9-1.5.5 1.2 4.2c1.7 5.7 3.5 11.8 5.2 17.8 3.8 12.8 7.5 25.3 10 34.1.2.7.4 1.4.6 2 .8 2.8 1.5 5.2 2 6.9-6.1 1.8-18.1 5.2-18.1 5.2l-1.2 5.9-2-.4-10.7-2.1-87.3-17.5-60.4-48.3-2.3-1.8-51.3-30.5-30.1-.7-44.4-1-46.3-15.2 43 24.8 50.9 2.6 13.7.7 11.2 3.3c2.7 9.8 6.1 18.6 10 26.8.8 1.6 1.5 3.4 2.2 4.9 13.6 27 32.4 45.6 49.6 58.2 23.9 17.4 44.7 23 44.7 23L888 696v-84.7l18.9-15.7 56.6 4.7 12.8 1.1h.3l-.3 1.6-4.4 21-15.2 72.6-1.7 8.1c-4.3 4.7-10.6 10.9-16.8 16.8-9.9 9.5-19.5 18.2-19.5 18.2l-34.8 1.7 29.8 6.6 20.2-4.2 27-5.7V734h24.4c57.4 12 198.1 54.1 235.3 66.9-3.4 10.2-38.3 114.6-66.9 199.6-1.2 3.6-2.4 7.5-3.6 11-19 56.4-34.3 102.2-34.3 102.2l28.4 56.8s20.1 10.7 35.6 18.9c-14.7 4.9-27.2 9.1-30.9 10.3-6-2.6-87.6-37.9-103.1-44.6 4.7-9.8 18.5-38.5 26.7-55.6.8-1.6 1.5-3.1 2.2-4.5l-.5 5.5 23.7-42.4 37.5-66.9-21.5 24.8s-6.5-1.3-11.3-3.9c-2.9-1.5-5.3-3.6-5.3-6.1 0-3.7-2.1-30.2-4-52.5.7-12.4 1.2-23.5 1.6-32.3.2-4.2.3-7.8.5-10.8 3.2-2.9 21.4-19.9 35.2-32.9.6-.6 1.3-1.2 1.9-1.8 8.2-7.6 14.5-13.5 14.5-13.5l-3.4-4.9-.2-1.6h.3s-.3 1.3-.7 1l-3.2-2.5c-3.2-3.2-7.8-5-13.7-6.3-10.3-5.5-22.8-11-30.4-11-2.7 0-8.8-.1-17.1-.3-37.8-1.2-120.3-4.5-120.3-4.5L944.1 844l-12.2 9.9s4-1.9 9.5-4.1c8.1-3.3 19.3-7.5 25.2-7.5 6.8 0 37 1.6 55.3 6.3 8.3 2.1 14.2 5 14.2 8.6l5.7.1c-1.6.3-3.2.7-4.8 1.1-7.2 1.6-14.8 3.4-22.6 5.3-5.2 1.3-10.4 2.6-15.8 3.9-4.9 1.2-10 2.5-15.1 3.8-23.5 6-47.8 12.2-54.7 12.2-1.2 0-2.6-.1-4.2-.2-5.9-.4-14-1.7-23.2-3.4-2-.3-4-.7-6.1-1.1l-32.9-20.3-18.5-11.4L838 836l-16.1-30.3c-.6-6.5-1.2-12.7-1.6-18.2-.5-7.1-.9-12.9-.9-16.4 0-3.1 2.6-8.7 6.7-15.6 7.9-13.4 21.6-31.7 34.8-46.8l2.8-3.1-1.5-18.8-2.2-29.3-6.7-8.1-17.7-21.2-40.4-48.5-43.2-50s-1.9-.2-5.2-.6c-27.4-3.2-155-18.2-157.3-18.5-16.3-6-32.3-13.1-47.9-20.8-7-3.5-13.9-7-20.7-10.7-64.4-35-118.9-78.9-147.2-103.5-4.7-4.1-8.9-7.8-12.1-10.7 14-9.1 47.2-30.8 55.6-36.3 3.1 2.4 7.6 5.9 12.4 9.5 4.9 3.8 10.2 7.9 14.6 11.3-4.4 5.3-13.5 16.2-13.5 16.2l3.4 6c12.9 22.6 99.6 38.3 142.3 44.7 1.8 5.4 6.6 19.8 9.7 29.2 1.7 5 2.9 8.6 2.9 8.6l19.8 2.5 14.3 1.8s53.5-24.1 61-27.4c7.1 3.5 49.6 24.8 49.6 24.8l68-21.6c5.3 4 30.9 23.2 42.4 31.8 2.3 1.7 4.1 3 5 3.7.5.3.8.6.8.6s3.5.5 9.4 1.4c1.3.2 2.7.4 4.3.6l4.3-.3-2.8-9.3-1.9-1.5v-.2l.9-8.5-.2-10.3.1-3-1.3-14.4 3 4c2.1 2.9 5.1 7 8.7 11.9 3.3 4.5 7 9.6 10.8 14.7.4.6.9 1.2 1.3 1.8 1.8 2.4 3.6 4.8 5.3 7.1l1.8 2.4c3.2 4.2 6.1 8.1 8.7 11.4 4.2.6 8.5 1.3 12.7 1.9 7.7 1.1 15.2 2.3 22.2 3.3 14.4 2.2 26.4 4 31.9 4.8.5.1 1 .1 1.4.2l-.3-.9 1.2 1.6v-.3l9.8 10.8 5.6 6.2 3.5 3.9.9 1-.7.2.3.8 7.9 20.6.6 1.4 6.5 7 1.7.2 14 1.6 28 3.2 39.7 41.7-35.1 2.8zm181.8 38.1l-114-18.1-1.4-1.9-17.1-22.2 11-5.3 4.5-2.2 94.9 27.6 79.4 43.7-18.1 14.6-39.2-36.2z"/></svg>