<svg xmlns:xlink="http://www.w3.org/1999/xlink"  xmlns="http://www.w3.org/2000/svg" width="100" height="100" viewBox="0 0 100 100"><radialGradient id="a" cx="30.837" cy="34.855" r="101.013" gradientUnits="userSpaceOnUse"><stop offset="0" stop-color="#00adee"/><stop offset=".002" stop-color="#01adee"/><stop offset=".053" stop-color="#15abe6"/><stop offset=".103" stop-color="#22a9e2"/><stop offset=".151" stop-color="#26a9e0"/><stop offset=".327" stop-color="#1b75bb"/><stop offset=".521" stop-color="#2b388f"/><stop offset=".758" stop-color="#1c1651"/><stop offset="1" stop-color="#120742"/></radialGradient><path fill-rule="evenodd" clip-rule="evenodd" fill="url(#a)" d="M64.624 5.507l1.603-.165c-6.434 17.327-12.484 34.965-19.04 52.195 4.356 1.822 11.85-5.105 15.408.062 3.918 6.549-10.089 12.239-12.087 24.735 8.664 6.599 23.273 3.991 33.473 2.291 1.949.7-1.243 3.333-1.999 4.253-6.372-3.619-13.592 1.065-20.946 1.31-3.887.128-9.004-3.144-14.938-3.357-4.167-.146-8.956 1.542-12.837 1.298-5.514-.329-9.474-3.552-14.049-2.632-4.283.865-7.378 4.539-9.706 8.28-.707-5.259 9.681-13.971 17.65-9.889 2.047-.402-1.243-1.268-.323-3.211 3.686-.914 5.276.743 8.188.792 7.317-11.082 10.942-24.602 15.683-37.262 4.829-12.892 10.222-25.467 13.92-38.7zM38.31 81.944c2.291.201 4.289.755 6.58.956-.311-10.314 5.605-15.548 9.931-22.085-14.695-.451-11.917 13.349-16.511 21.129zm9.066 1.517c2.693-2.485 2.9-10.869 3.601-12.526-2.407 2.857-4.856 9.078-3.601 12.526z"/><radialGradient id="b" cx="30.837" cy="34.858" r="101.008" gradientUnits="userSpaceOnUse"><stop offset="0" stop-color="#00adee"/><stop offset=".002" stop-color="#01adee"/><stop offset=".053" stop-color="#15abe6"/><stop offset=".103" stop-color="#22a9e2"/><stop offset=".151" stop-color="#26a9e0"/><stop offset=".327" stop-color="#1b75bb"/><stop offset=".521" stop-color="#2b388f"/><stop offset=".758" stop-color="#1c1651"/><stop offset="1" stop-color="#120742"/></radialGradient><path fill-rule="evenodd" clip-rule="evenodd" fill="url(#b)" d="M61.571 7.438C54.797 29.396 43.203 53.79 35.41 77.375c-4.076-7.086-10.333-16.17-9.017-25.035 1.03-6.915 11.29-16.218 17.151-22.81 7.146-8.043 13.69-16.006 18.027-22.092z"/><radialGradient id="c" cx="30.869" cy="34.851" r="100.948" gradientUnits="userSpaceOnUse"><stop offset="0" stop-color="#00adee"/><stop offset=".002" stop-color="#01adee"/><stop offset=".053" stop-color="#15abe6"/><stop offset=".103" stop-color="#22a9e2"/><stop offset=".151" stop-color="#26a9e0"/><stop offset=".327" stop-color="#1b75bb"/><stop offset=".521" stop-color="#2b388f"/><stop offset=".758" stop-color="#1c1651"/><stop offset="1" stop-color="#120742"/></radialGradient><path fill-rule="evenodd" clip-rule="evenodd" fill="url(#c)" d="M67.055 51.03a3.614 3.614 0 0 1-3.619 3.613c-1.998 0-3.606-1.615-3.606-3.613s1.608-3.619 3.606-3.619a3.62 3.62 0 0 1 3.619 3.619z"/></svg>