<svg xmlns:xlink="http://www.w3.org/1999/xlink"  xmlns="http://www.w3.org/2000/svg" width="100" height="100" viewBox="0 0 100 100"><radialGradient id="a" cx="50.013" cy="29.288" r="82.352" gradientUnits="userSpaceOnUse"><stop offset="0" stop-color="#00a69c"/><stop offset="1" stop-color="#00423d"/></radialGradient><path fill="url(#a)" d="M50.656 8.851c8.02.453 16.219 1.124 23.732 4.156 4.187 1.72 8.343 4.7 9.633 9.264 1.29 4.911-.581 9.95-2.965 14.204-4.051 7.046-9.754 12.96-15.721 18.406 2.935 8.252 6.171 16.399 9.219 24.606 1.41 3.893 3.07 7.694 4.27 11.662-1.992-1.131-3.734-2.64-5.567-3.998-1.705-1.313-3.515-2.489-5.069-3.99 1.614-.249 3.206-.679 4.504-1.689-1.501-1.479-3.372-2.596-4.624-4.3-2.821-5.085-4.753-10.757-8.653-15.186-1.108-1.343-2.526-2.36-3.793-3.553-.4-1.531-.34-3.16-.815-4.685-.505-1.946-1.63-3.621-2.776-5.235 2.09-1.546 1.924-4.805 4.27-6.087 2.784.098 5.62.98 8.389.203.747-.241 1.689-.799 1.584-1.712-.15-1.916.136-4.126-1.207-5.703-1.297-1.32-2.655-2.587-3.711-4.104-1.403-1.772-1.607-4.27-3.364-5.801-2.007-2.233-5.069-2.867-7.407-4.617.844-2.761 2.398-5.326 2.745-8.215.238-1.77-1.353-2.834-2.674-3.626z"/><radialGradient id="b" cx="50.003" cy="29.284" r="82.403" gradientUnits="userSpaceOnUse"><stop offset="0" stop-color="#00a69c"/><stop offset="1" stop-color="#00423d"/></radialGradient><path fill="url(#b)" d="M52.271 34.981c.513-.324.867-1.041 1.523-1.048 1.742.98 3.455 2.157 4.646 3.794-.709 1.336-2.715.573-3.982.739-.965-.981-1.433-2.346-2.187-3.485z"/><g><radialGradient id="c" cx="36.409" cy="33.084" r="69.265" gradientUnits="userSpaceOnUse"><stop offset="0" stop-color="#929497"/><stop offset=".673" stop-color="#404041"/><stop offset="1" stop-color="#231f20"/></radialGradient><path fill="url(#c)" d="M28.275 22.225c3.81-3.093 7.755-6.05 11.986-8.532.015 1.931.996 3.644 1.298 5.522-3.516.219-6.759 1.614-10.093 2.587-1.75.483-2.882 2.014-3.877 3.425-1.946 2.957-3.41 6.193-4.707 9.475-1.162 2.912 1.599 5.529 4.27 6.058-.362.935-.724 1.87-1.094 2.813.596.49 1.192.973 1.78 1.479-.89 5.175-2.12 10.749-.158 15.834 1.056-.076 2.104-.174 3.153-.265.966 3.878 2.007 7.8 3.938 11.315.814 1.426 1.901 2.972 3.666 3.198 1.901.513 3.568-.913 4.617-2.323 1.38-1.855 3.236-3.38 4.134-5.545a32.538 32.538 0 0 1 2.549-4.594c2.195 2.467 5.092 4.451 6.487 7.528 1.667 2.678 3.9 5.009 6.427 6.88.988.634 1.041 1.924 1.306 2.949-4.247-3.018-8.306-6.291-12.515-9.369-.905 5.65-1.909 11.285-2.625 16.958-8.117-3.296-15.939-7.46-23-12.681-5.824-4.397-11.285-9.866-13.782-16.882-2.067-5.771-1.418-12.304 1.237-17.772 3.379-7.18 8.991-13.012 15.003-18.058z"/><radialGradient id="d" cx="36.41" cy="33.083" r="69.269" gradientUnits="userSpaceOnUse"><stop offset="0" stop-color="#929497"/><stop offset=".673" stop-color="#404041"/><stop offset="1" stop-color="#231f20"/></radialGradient><path fill="url(#d)" d="M44.434 33.797c1.878-1.071 4.141-.038 5.514 1.38 2.527 2.67 3.659 6.782 2.458 10.296-.604 1.863-2.496 3.41-4.525 2.973-2.987-.687-4.858-3.583-5.643-6.367-.777-2.813-.543-6.6 2.196-8.282z"/><radialGradient id="e" cx="36.415" cy="33.083" r="69.258" gradientUnits="userSpaceOnUse"><stop offset="0" stop-color="#929497"/><stop offset=".673" stop-color="#404041"/><stop offset="1" stop-color="#231f20"/></radialGradient><path fill="url(#e)" d="M42.027 55.975c1.357.966 2.67 1.977 3.998 2.987a110.698 110.698 0 0 1-3.983 2.821c-.03-1.938-.015-3.87-.015-5.808z"/></g></svg>