<svg xmlns:xlink="http://www.w3.org/1999/xlink"  xmlns="http://www.w3.org/2000/svg" viewBox="0 0 150 150"><path fill="#0080A7" d="M60 84.1l-6.1-1.8 4.9-3.9c.1-.1 9.3-7.5 20.7-17.2-.4-1.3-.5-3-.6-4.6 0-2.8 2.8-10.6 2.8-11 .1-.4.9-1.2 1.9-1.3 1-.1 2.7-5.8 3-8 .3-2.2 0-3.1-.9-4.3-.9-1.2-.6-10.3-.7-12.6-.1-2.3-1.8-8.2-6.5-8.5-4.7-.3-5.5-2.2-9.2-3.5-3.7-1.4-9.2-.3-13 .9-3.9 1.2-2.9-2.4-2.9-2.4-2.3 1.2-.9 3.4-.9 3.4-3.6-1.8-6.1-.6-6.1-.6 5.3.6 3.1 4.1 3.1 4.1-7.4 6.7-6.2 14.9-6.1 15.8.1.9-.9 2.2-.9 2.2-1.5 2.8-.5 9.3-.1 10.8.5 1.6 2.6 2.4 2.6 2.4 5.5 6.5 5.9 17.7 5.9 17.7-1.5.7-4 2.2-5.6 3.6-1.5 1.4 1.9 2.4-9.1 4-11.1 1.6-14.6 3.3-17.1 13.1-4.2 16.5 12.1 42.5 16.4 48.9l41.2-42.4L60 84.1z"/><path fill-rule="evenodd" clip-rule="evenodd" fill="#00B9F1" d="M111.2 89.1l-24.3 17.6-1.5 5.7c-3.6 1.6-7.3 2.7-11 3.4l-2.8 2c4.3-.3 8.9-1.4 13.9-3.7 2.4 1.6 4.8 3 7.3 4.1 2.9 1.3 5.8 2.1 8.9 2.2.1 3.1-.7 6.5-2.6 10.1-3.6 2.8-9.7 4-17.5 4.3-8.6-1.1-13.3-3.8-16.1-7.2-.1-.7 0-1.5 0-2.3.1-1.1.2-2.2.4-3.4l-7 5.1-.7.5c1.2.8 2.3 1.7 3.6 2.3 23.9 12.4 53.2 3.1 65.5-20.8 8.5-16.6 6.4-35.7-3.6-50.1l-.5.5c5.1 6.8 8.1 14.1 8.7 22.1-.7-3.5-.5-6.2-8.2-15.8-.3-2-.8-3.7-1.4-5.3l-8.6 8.3c.3.6.5 1.3.6 1.9-.1 2.7-.4 5.5-1 8.4l.5.2c.5-2.9.8-5.9 1-8.9 3.4-1 7-1.5 10.7-1.6 5 6.5 6.9 12.9 6.5 18.9-.3 5.5-2.1 10.1-4.4 14.3-3.1 1.4-6.3 2.1-9.7 1.9h-.1c-1.4-6-3.8-10.6-6.6-14.7zm16.1 14c.5 1.8.4 3.7-.2 5.7-6.8 12.3-14.4 17.6-22.1 21h-5c2.1-3.8 2.8-6.9 3.3-9.9 3.1-1.8 6-4 8.7-6.7 2.2-2.2 4.2-4.8 5.9-8h.1c2.7.1 5.4.2 9.3-2.1z"/><path fill="#F9A11B" d="M112.4 83L98 77.8l31.7-30.7s1.8-5.9-9.6-15.1l-2.4-2s-3.6 3.5-10.5 10.3C88.2 59 60.9 80.9 60.9 80.9l21.9 6.3L27 144.7l-.2.2-.1.1.1-.1.2-.2L112.4 83z"/></svg>