<svg xmlns:xlink="http://www.w3.org/1999/xlink"  xmlns="http://www.w3.org/2000/svg" viewBox="0 0 150 150"><path fill="none" d="M94.6 38.7l4.9-3.6 4.9 3.6-1.9-6 4.9-3.8h-6.1l-1.9-5.8-1.8 5.9h-6.1l4.9 3.8-1.8 5.9zM93.1 30H98l1 2v-6.7l1.8 4.6-1.4 2.1 6.4-2.1-3.9 2.9-2.4-.8 3.7 5.4-4.2-2.9V32l-3.7 5.4 1.6-4.6 2.5-.7-6.3-2.1zM38.2 71.1c-6 20.9 6.1 42.6 26.9 48.6 20.9 6 42.6-6.1 48.6-26.9 6-20.9-6.1-42.6-26.9-48.6-20.8-6.1-42.6 6-48.6 26.9zM96 50.7c-4.8-1.7-14.2-.8-20 1.2-5.7 2-11 5.3-15.9 9 1.7 1.6 3.3 2.9 4.9 3.8 5.7 3.4 11.2 3 18.2 3.9 16.4 2.2 28.2 10.3 29.3 12.4-1.4-.7-11.8-8.6-31.9-10.2-5.2-.4-11.7-.4-18.1-4.2-1.6-1-3.2-2.2-4.8-3.7-1.7 1.4-3.3 3.2-5.2 5.4 9.9 12.1 23 22.8 35.5 30.3 1.7 1 3.3 2 5 2.8.6.3 7.7 4.1 9.4 4.9-.8.2-8.8-1.8-20.6-9-6.2-3.7-13.2-8.7-20-15.2-4-3.8-7.8-7.8-11-11.6-.9 1.2-2.6 3.3-3.6 5.1-.2.3-.4.6-.5.9 3.6 5.5 5.6 11.5 7.6 17.2 2 5.8 4.1 11.3 8 15.7 2 2.4 5.9 6.4 8.4 8.2-2.2-.4-8.2-4.9-10.4-7.4-4.5-5.1-6.7-10.8-8.6-16.3-1.8-5.3-3.5-10.4-6.7-14.8-3.1 4.8-3.7 11.8-3.1 16.6-3.4-9.9-.6-15.4 1.3-19-.2-.3-.6-.6-.9-.9-.5-.4-1.1-1-1.6-1.3-.4-.3-.9-.7-1-.7.2 0 .4-1.3.5-2.1.1 0 .1.1.2.1.8.2 1.9.7 2.8 1.3.6.3 1.1.7 1.5 1.1 1.4-2.2 3.3-4.6 4.3-5.9-1.4-1.9-3.2-4.3-4.3-6.6.6-.9 1.2-1.8 1.8-2.6.8 2 2.7 4.7 4.4 7 1.6-1.9 3.4-3.7 5.2-5.2-1.2-1.6-1.7-3.3-1.8-5 0-1.8.5-3.6 1.5-5.2.1-.1.2-.3.3-.4 1.6-1 3.2-1.9 4.9-2.6 0 .1-.1.1-.1.1-.9.9-1.7 1.9-2.3 2.9-.9 1.5-1.4 3-1.4 4.4 0 1.3.4 2.6 1.3 3.8 6.3-5.2 13.4-8.3 19.9-9.7 6.4-1.3 13.7-.9 17.6 1.5zM113.8 47.4l3.6-2.6 3.6 2.6-1.4-4 3.6-2.4h-4.4l-1.4-4.2L116 41h-4.4l3.6 2.4-1.4 4zm-1.1-6.4h3.6l.7 1.5v-4.9l1.3 3.4-1 1.5L122 41l-2.8 2.1-1.8-.6 2.7 4-3.1-2.1v-1.9l-2.7 4 1.2-3.4 1.8-.6-4.6-1.5zM38.6 41h-4.4l-1.4-4.2-1.3 4.2H27l3.6 2.6-1.4 4.2 3.6-2.6 3.6 2.6-1.4-4.2 3.6-2.6zm-2.8 5.9L33 44.8v-1.9l-3 4 1-3.4 1.8-.8-4.6-1.7h3.6l1.3 1.9V38l1 3.4-1.1 1.5 4.6-1.5-2.9 2.1-1.7-.6 2.8 4zM44.7 39.3l4.9-3.5 4.9 3.5-1.9-5.8 4.9-3.6h-6.1l-1.9-5.7-1.8 5.8h-6l4.9 3.6-1.9 5.7zM43.2 31h4.9l1.5 2h.4v-7.1l1.3 4.6-1.6 2.1 6.3-2.1-4 2.9-2.4-.8 4.1 5.4-3.7-2.8v-2.6L45.9 38l1.4-4.6 2.4-.6-6.5-1.8zM72.7 24h-8.1l6.5 4.8-2.5 7.7 6.5-4.7 6.5 4.8-2.5-7.8 6.5-4.8h-8.1L75 16.3 72.7 24zm11 .8l-5.3 3.8-3.2-1 5.2 7.2L75 31v-3.4l-5.2 7.2 2-6.2 3.3-1-8.4-2.6h6.5l1.8 2.6v-8.9l2.1 6.2-2 2.8 8.6-2.9z"/><path fill="#31303A" d="M23 25.9v87l52.5 30.7 52.5-30.7v-87L75.5 8.2 23 25.9zM47.7 30l1.9-5.7 1.9 5.7h6.1l-4.9 3.6 1.9 5.8-4.9-3.5-4.9 3.5 1.9-5.8-5-3.6h6zM32.8 45.2l-3.6 2.6 1.4-4.2L27 41h4.4l1.4-4.2 1.4 4.2h4.4L35 43.6l1.4 4.2-3.6-2.6zM116 41l1.4-4.2 1.4 4.2h4.4l-3.6 2.4 1.4 4.1-3.6-2.7-3.6 2.6 1.4-4-3.6-2.4h4.4zM97.6 29l1.9-5.8 1.9 5.8h6.1l-4.9 3.8 1.9 5.9-4.9-3.5-4.9 3.6 1.9-5.9-5-3.9h6zm16.2 63.8c-6 20.9-27.8 32.9-48.6 26.9-20.9-6-32.9-27.7-26.9-48.6 6-20.9 27.8-32.9 48.6-26.9 20.8 5.9 32.9 27.7 26.9 48.6zM85.7 24l-6.5 4.8 2.5 7.7-6.5-4.7-6.5 4.8 2.5-7.8-6.6-4.8h8.1l2.5-7.7 2.5 7.7h8z"/><path fill="#31303A" d="M56 30.5l-6.4 2.1 2.4.8zM33 44.8l2.9 2.1-2.9-4zM66.7 25l8.5 2.8-2-2.8z"/><path fill="#31303A" d="M80.2 34.8L75 27.6V31zM50 25.9v6.7l1.5-2.1z"/><path fill="#31303A" d="M69.9 34.8l5.3-7.2-3.3 1zM28.2 41l4.6 1.5-1.1-1.5zM37.5 41.4l-4.7 1.5 1.8.6z"/><path fill="#31303A" d="M33 38v4.9l1.1-1.5zM75 18.7v8.9l2-2.8zM53.9 38L50 32.6v2.6zM48.1 31h-4.9l6.4 2.1z"/><path fill="#31303A" d="M45.7 38.2l3.9-5.2-2.4.7zM83.7 24.8l-8.5 2.8 3.2 1zM116.3 41h-3.6l4.7 1.5zM119.9 46.4l-2.9-3.9v1.8z"/><path fill="#31303A" d="M114.5 46.4l2.9-3.9-1.8.6zM117 37.6v4.9l1.1-1.6zM122 40.9l-4.6 1.6 1.8.6zM98 30h-4.9l6.4 2.1z"/><path fill="#31303A" d="M95.6 37.4l3.9-5.4-2.4.8z"/><path fill="#31303A" d="M102.9 37.4L99 32v2.5zM105.9 29.9L99.5 32l2.4.8zM30 46.9l2.8-4-1.8.6zM99 25.3V32l1.5-2.1z"/><path fill="#00B0CF" d="M76 5.9L21 24.3v89.8L76 146l55-31.9V24.3L76 5.9zm52 107l-52.5 30.7L23 112.9v-87L75.5 8.2 128 25.9v87z"/><path fill="#31303A" d="M57 55.3c0-1.4.6-3 1.4-4.4.6-1 1.4-2 2.3-2.9l.1-.1c-1.7.7-3.3 1.6-4.9 2.6-.1.1-.2.3-.3.4-1 1.6-1.5 3.4-1.5 5.2 0 1.7.6 3.4 1.8 5-1.8 1.5-3.6 3.3-5.2 5.2-1.7-2.3-3.6-5-4.4-7-.6.8-1.2 1.7-1.8 2.6 1.1 2.3 2.9 4.8 4.3 6.7-1.1 1.3-3 3.8-4.3 5.9-.4-.4-1-.8-1.5-1.1-1-.6-2-1.1-2.8-1.2-.1 0-.1-.2-.2-.2-.2.8-.4 2.1-.5 2.1.2 0 .6.4 1 .7.5.3 1.1.8 1.6 1.2.4.3.7.7.9.9-1.9 3.5-4.6 9.1-1.3 19-.6-4.9 0-11.8 3.1-16.6 3.2 4.5 4.8 9.6 6.7 14.8 1.9 5.5 4.1 11.2 8.6 16.3 2.3 2.6 8.2 7 10.4 7.4-2.5-1.9-6.4-5.9-8.4-8.2-3.8-4.4-5.9-9.9-8-15.7-2-5.7-4-11.7-7.6-17.2.1-.3.3-.6.5-.9 1-1.7 2.7-3.9 3.6-5.1 3.2 3.8 6.9 7.8 11 11.6 6.8 6.5 13.9 11.4 20 15.2 11.8 7.2 19.8 9.2 20.6 9-1.8-.8-8.8-4.6-9.4-4.9-1.6-.9-3.3-1.8-5-2.8-12.5-7.5-25.6-18.2-35.5-30.3 1.9-2.2 3.6-4 5.2-5.4 1.5 1.5 3.2 2.7 4.8 3.7 6.3 3.8 12.9 3.8 18.1 4.2 20.1 1.7 30.5 9.5 31.9 10.2-1.1-2-12.9-10.1-29.3-12.4-7-1-12.5-.5-18.2-3.9-1.6-.9-3.2-2.2-4.9-3.8 4.9-3.8 10.2-7 15.9-9 5.8-2.1 15.2-2.9 20-1.2-3.9-2.4-11.2-2.8-17.8-1.3-6.5 1.4-13.5 4.5-19.9 9.7-.7-1.4-1.1-2.7-1.1-4z"/></svg>