<svg xmlns:xlink="http://www.w3.org/1999/xlink"  xmlns="http://www.w3.org/2000/svg" viewBox="0 0 150 150"><path fill="none" d="M74.8 17.4c-31.4 0-57 25.6-57 57 0 7.4 1.4 14.4 4 20.9.2-.1.4-.2.7-.4-2.5-6.4-3.9-13.3-3.9-20.6 0-31 25.2-56.2 56.2-56.2 31 0 56.2 25.2 56.2 56.2 0 6.7-1.2 13.2-3.4 19.2.2.1.5.2.7.3 2.2-6.1 3.4-12.7 3.4-19.5.1-31.3-25.5-56.9-56.9-56.9zM104 123.3c-.4-.1-.8-.1-1.2-.2-8.2 4.7-17.8 7.4-27.9 7.4-9.9 0-19.2-2.6-27.3-7.1-.4.1-.8.1-1.2.2 8.4 4.9 18.2 7.7 28.6 7.7 10.4.1 20.4-2.9 29-8z"/><path fill="#004258" d="M74.8 18.2c-31 0-56.2 25.2-56.2 56.2 0 7.3 1.4 14.2 3.9 20.6.6-.3 1.1-.6 1.7-.9 0 0 .1 0 .1-.1-.1-.3-.3-.6-.3-.9 1-.2 1.8-.3 2.7-.2 1.4-.6 2.8-1.2 4.3-1.7.4-.8 1.1-1.5 2-2.2.1.2.2.4.3.5.1.2.2.5.3.7 3.2-1.1 6.6-2 10.2-2.8-7.2-4.7-11.7-10.1-13.4-13.8-.4 2.1-2.2 3.8-4.5 4-2.8.2-5.2-1.8-5.4-4.6v-1.1c3 .4 4.7 2.2 5.3 5.4.1-2.9 1.3-4.7 3.8-5.5-.1-.4-.1-.7-.1-1 0-.3.1-.8.4-1.4-1 1.1-2.5 1.8-4.1 1.7-2.8-.2-4.8-2.6-4.6-5.4 0-.4.1-.7.2-1.1 2.9.9 4.3 2.9 4.4 6.2.6-3.1 2.3-4.7 5.3-5v.6c0 .3-.1.6-.2.9 1.7-2.7 4.9-6.6 9.7-10.2C47.1 44.8 60 36.3 74.8 36.3c14.2 0 26.6 7.8 33.1 19.4 5.3 3.6 8.9 7.5 10.9 10.6 1.9.7 3.1 2.1 3.6 4.6.1-3.3 1.5-5.3 4.4-6.2.1.3.2.7.2 1.1.2 2.8-1.9 5.1-4.6 5.4-.6 0-1.1 0-1.6-.2 0 .4-.2 1-.6 1.7 1.4 1 2.1 2.5 2.2 4.7.6-3.3 2.3-5 5.3-5.4.1.4.1.7 0 1.1-.2 2.8-2.6 4.8-5.4 4.6-1.6-.1-2.9-1-3.8-2.2-2.3 3.3-6.3 7.6-12 11.5 3 .6 6 1.3 8.8 2.1l.1.1c4.4 1.3 8.5 2.7 12.2 4.4 2.2-6 3.4-12.5 3.4-19.2 0-31-25.2-56.2-56.2-56.2zM31.7 84.1c.9 2.6-.5 5.5-3.1 6.3-2.6.9-5.5-.5-6.3-3.1-.1-.4-.2-.7-.2-1.1 3-.3 5.1 1 6.5 4-.7-3.1.3-5.2 3-6.7-.1.2 0 .4.1.6zm-5-.2c-.2-3.2 1.1-5.1 3.9-6.1.1.2.1.4.1.6.5 2.7-1.3 5.3-4 5.8s-5.3-1.3-5.8-4c-.1-.4-.1-.7-.1-1.1 3.1 0 5 1.6 5.9 4.8zm6-22.9c-.6 2.7-3.3 4.4-6 3.8-2.7-.6-4.4-3.3-3.8-6 .1-.4.2-.7.4-1 2.7 1.3 3.8 3.5 3.5 6.8 1.1-3 3-4.3 6-4.1 0 .1 0 .3-.1.5zm2.1-5.6c-.9 2.6-3.7 4-6.3 3.2-2.6-.9-4-3.7-3.2-6.3.1-.4.3-.7.5-1 2.6 1.6 3.5 3.8 2.8 7.1 1.4-2.9 3.4-4 6.4-3.5-.1.1-.1.3-.2.5zm3-5.1c-1.2 2.5-4.3 3.5-6.7 2.2-2.5-1.2-3.4-4.3-2.2-6.7l.6-.9c2.3 1.9 2.9 4.3 1.7 7.4 1.8-2.7 3.9-3.5 6.8-2.5-.1.2-.2.4-.2.5zm3.5-4.5c-1.6 2.3-4.7 2.8-7 1.2-2.3-1.6-2.8-4.7-1.2-7 .2-.3.5-.6.7-.8 2 2.2 2.2 4.7.6 7.6 2.1-2.4 4.4-2.9 7.1-1.5 0 .1-.1.3-.2.5zm4.1-4.1c-1.9 2-5.1 2.1-7.1.2s-2.1-5.1-.2-7.1c.3-.3.5-.5.8-.7 1.7 2.5 1.5 4.9-.4 7.6 2.4-2.1 4.7-2.2 7.3-.5-.1.1-.2.3-.4.5zm4.7-3.9c-2.1 1.8-5.2 1.6-7-.5-1.8-2.1-1.6-5.2.5-7.1.3-.2.6-.5.9-.6 1.5 2.7 1.1 5.1-1.2 7.5 2.6-1.8 4.9-1.8 7.3.2-.2.2-.3.4-.5.5zm5.1-2.8c-2.3 1.5-5.4.9-6.9-1.5-1.5-2.3-.9-5.4 1.5-6.9.3-.2.6-.4 1-.5 1.1 2.8.3 5.2-2.2 7.3 2.9-1.4 5.1-1 7.2 1.2-.2.2-.4.3-.6.4zm5.4-2.1c-2.5 1.1-5.4.1-6.6-2.4-1.2-2.5-.1-5.5 2.4-6.6.3-.2.7-.3 1-.4.6 3-.4 5.1-3.2 6.9 3-1 5.2-.3 6.9 2.3-.1 0-.3.1-.5.2zm5.7-1.4c-2.6.8-5.4-.7-6.2-3.4-.8-2.6.7-5.4 3.4-6.2.4-.1.7-.2 1.1-.2.2 3-1.1 5-4.2 6.3 3.1-.5 5.2.5 6.5 3.2-.2.2-.4.3-.6.3zm-1.8-4.7c1.9-2.5 4-3 6.8-1.5-1.9 2.6-4 3-6.8 1.5zM77 25.4c2.8-1.5 4.9-1.1 6.8 1.5-2.8 1.4-4.9 1-6.8-1.5zm5 6.1c-.2-.1-.4-.1-.6-.2 1.3-2.8 3.4-3.8 6.5-3.2-3.1-1.3-4.4-3.3-4.2-6.3.4 0 .7.1 1.1.2 2.6.8 4.2 3.6 3.4 6.2-.7 2.6-3.5 4.1-6.2 3.3zm5.7 1.4l-.6-.3c1.7-2.5 3.9-3.2 6.9-2.3-2.8-1.7-3.9-3.9-3.2-6.9.4.1.7.2 1 .4 2.5 1.2 3.6 4.1 2.4 6.6-1 2.6-4 3.6-6.5 2.5zm5.4 2.1c-.2-.1-.3-.2-.5-.4 2.1-2.3 4.3-2.6 7.2-1.2-2.6-2.1-3.3-4.4-2.2-7.3.3.1.7.3 1 .5 2.3 1.5 3 4.6 1.5 6.9-1.6 2.4-4.7 3-7 1.5zm5.1 2.8c-.2-.1-.3-.3-.4-.4 2.4-1.9 4.7-2 7.3-.2-2.2-2.5-2.6-4.9-1.2-7.5l.9.6c2.1 1.8 2.3 5 .5 7.1-1.9 2.1-5 2.3-7.1.4zm4.7 3.9c-.1-.2-.3-.3-.4-.5 2.5-1.7 4.8-1.6 7.3.5-2-2.7-2.1-5.1-.4-7.6.3.2.6.4.8.7 1.9 2 1.8 5.2-.2 7.1-2.1 1.9-5.2 1.8-7.1-.2zm4.1 4.1c-.1-.2-.2-.4-.3-.5 2.8-1.3 5-.9 7.1 1.5-1.6-2.9-1.4-5.3.6-7.6.3.2.5.5.7.8 1.6 2.3 1 5.4-1.2 7-2.2 1.6-5.3 1-6.9-1.2zm3.6 4.5l-.3-.6c2.9-.9 5.1-.1 6.8 2.5-1.2-3.1-.6-5.5 1.7-7.4l.6.9c1.2 2.5.3 5.5-2.2 6.7-2.4 1.4-5.4.4-6.6-2.1zm2.9 5.1c-.1-.2-.1-.4-.2-.6 3-.5 5.1.6 6.4 3.5-.7-3.2.2-5.5 2.8-7.1.2.3.3.6.5 1 .9 2.6-.5 5.5-3.2 6.3-2.6.9-5.4-.5-6.3-3.1zm8.1 9.4c-2.7.6-5.4-1.1-6-3.8 0-.2-.1-.4-.1-.6 3.1-.2 5 1.1 6 4.1-.4-3.3.7-5.5 3.5-6.8.2.3.3.7.4 1 .5 2.8-1.1 5.5-3.8 6.1zm4.5 22.4c-.9 2.6-3.7 4-6.3 3.1-2.6-.9-4-3.7-3.1-6.3.1-.2.2-.4.2-.6 2.7 1.4 3.7 3.5 3 6.7 1.4-3 3.5-4.3 6.5-4-.1.4-.1.8-.3 1.1zm1.2-7.1c-.5 2.7-3.1 4.5-5.8 4-2.7-.5-4.5-3.1-4-5.8 0-.2.1-.4.1-.6 2.9 1 4.1 3 3.9 6.1.9-3.2 2.8-4.7 5.8-4.9.1.5.1.8 0 1.2z"/><path fill="#004258" d="M74.8 37.1c-14 0-26.2 7.7-32.6 19.1 7.4-5.1 18.1-9.6 33-9.6 13.8 0 24 3.7 31.3 8.2-6.6-10.6-18.3-17.7-31.7-17.7zM102.7 123.2c-2.7-.3-5.4-.6-8.2-.8.3.4.6.8.9 1.3-.3.2-.7.3-1 .4-2.2.6-4.4-.3-5.6-2.1-1.9-.1-3.9-.2-5.9-.2-.3.1-.5.2-.8.3 3.3-.2 5.4.9 6.6 3.7-.3.1-.7.3-1.1.3-2.7.5-5.3-1.3-5.8-4v-.4h-3.3c-.8.5-1.7.8-2.9 1 3.3.3 5.2 1.7 6 4.7-.3.1-.7.1-1.1.2-2.8.1-5.1-2.1-5.2-4.8 0-.3 0-.7.1-1h-2.5c.1.3.1.7.1 1-.1 2.8-2.4 4.9-5.2 4.8-.4 0-.7-.1-1.1-.2.8-2.9 2.7-4.4 6-4.7-1.1-.2-2-.5-2.7-.9-1.2 0-2.3.1-3.4.1v.2c-.5 2.7-3.1 4.5-5.8 4-.4-.1-.7-.2-1.1-.3 1.2-2.8 3.3-4 6.6-3.7-.2-.1-.3-.1-.5-.2-2.2.1-4.3.2-6.4.4-1.2 1.6-3.3 2.4-5.4 1.8-.4-.1-.7-.3-1-.4.2-.3.4-.6.5-.8-2 .2-4.1.4-6 .7 8.1 4.5 17.4 7.1 27.3 7.1 10.1-.1 19.7-2.8 27.9-7.5z"/><path fill="#135D71" d="M25.9 77.4c-.6-3.3-2.3-5-5.3-5.4-.1.4-.1.7 0 1.1.2 2.8 2.6 4.8 5.4 4.6 2.3-.2 4-1.8 4.5-4-.3-.7-.5-1.3-.7-1.8-2.5.8-3.8 2.6-3.9 5.5zM31.3 66.6V66c-3 .3-4.7 1.8-5.3 5-.1-3.3-1.5-5.3-4.4-6.2-.1.3-.2.7-.2 1.1-.2 2.8 1.9 5.1 4.6 5.4 1.6.1 3.1-.6 4.1-1.7.2-.6.6-1.3 1.1-2.1 0-.3.1-.6.1-.9zM32.9 89.1c-.9.7-1.6 1.4-2 2.2.8-.3 1.7-.6 2.6-.9-.1-.2-.2-.5-.3-.7 0-.3-.1-.4-.3-.6zM24 93.1l.3.9c.8-.4 1.5-.7 2.3-1.1-.8-.1-1.7 0-2.6.2zM122.4 77.7c2.8.2 5.2-1.8 5.4-4.6V72c-3 .4-4.7 2.2-5.3 5.4-.1-2.2-.8-3.7-2.2-4.7-.4.8-.9 1.7-1.6 2.7.8 1.3 2.1 2.2 3.7 2.3zM120.8 71c.5.1 1 .2 1.6.2 2.8-.2 4.8-2.6 4.6-5.4 0-.4-.1-.7-.2-1.1-2.9.9-4.3 2.9-4.4 6.2-.5-2.5-1.6-3.9-3.6-4.6 1.3 2.1 2 3.7 2 4.6v.1zM77 25.4c1.9 2.5 4 3 6.8 1.5-1.9-2.6-4-3-6.8-1.5zM117.3 52.5c2.5-1.2 3.4-4.3 2.2-6.7l-.6-.9c-2.3 1.9-2.9 4.3-1.7 7.4-1.8-2.7-3.9-3.5-6.8-2.5l.3.6c1.1 2.4 4.1 3.4 6.6 2.1zM119.8 58.5c2.6-.9 4-3.7 3.2-6.3-.1-.4-.3-.7-.5-1-2.6 1.6-3.5 3.8-2.8 7.1-1.3-2.9-3.4-4-6.4-3.5 0 .2.1.4.2.6.9 2.6 3.7 4 6.3 3.1zM125 57.7c-2.7 1.3-3.8 3.5-3.5 6.8-1.1-3-3-4.3-6-4.1 0 .2.1.4.1.6.6 2.7 3.3 4.4 6 3.8 2.7-.6 4.4-3.3 3.8-6-.2-.4-.3-.7-.4-1.1zM110.2 34.8c-.3-.3-.5-.5-.8-.7-1.7 2.5-1.5 4.9.4 7.6-2.4-2.1-4.7-2.2-7.3-.5.1.2.3.3.4.5 1.9 2 5.1 2.1 7.1.2 2-1.9 2.1-5.1.2-7.1zM104.8 30.3c-.3-.2-.6-.5-.9-.6-1.5 2.7-1.1 5.1 1.2 7.5-2.6-1.8-4.9-1.8-7.3.2.1.2.3.3.4.4 2.1 1.8 5.2 1.6 7.1-.5 1.8-2 1.6-5.1-.5-7zM119.9 90.1c.7-3.1-.3-5.2-3-6.7-.1.2-.2.4-.2.6-.9 2.6.5 5.5 3.1 6.3 2.6.9 5.5-.5 6.3-3.1.1-.4.2-.7.2-1.1-2.9-.2-5 1-6.4 4zM114 47c2.3-1.6 2.8-4.7 1.2-7-.2-.3-.5-.6-.7-.8-2 2.2-2.2 4.7-.6 7.6-2.1-2.4-4.4-2.9-7.1-1.5.1.2.2.4.3.5 1.5 2.2 4.6 2.8 6.9 1.2zM59.6 125.8c.3.1.7.3 1.1.3 2.7.5 5.3-1.3 5.8-4v-.2h-.7c.2.1.3.1.5.2-3.4-.2-5.5.9-6.7 3.7zM54 124.1c2 .6 4.2-.2 5.4-1.8-2 .1-3.9.3-5.8.5-.2.3-.4.5-.5.8.2.2.5.4.9.5zM80.5 127.6c.4 0 .7-.1 1.1-.2-.8-2.9-2.7-4.4-6-4.7 1.2-.2 2.1-.5 2.9-1h-3c-.1.3-.1.7-.1 1 .1 2.8 2.4 4.9 5.1 4.9zM115.4 89.1zM100 33.5c1.5-2.3.9-5.4-1.5-6.9-.3-.2-.6-.4-1-.5-1.1 2.8-.3 5.2 2.2 7.3-2.9-1.4-5.1-1-7.2 1.2.2.1.3.3.5.4 2.4 1.5 5.5.9 7-1.5zM121.6 83.9c.2-3.2-1.1-5.1-3.9-6.1-.1.2-.1.4-.1.6-.5 2.7 1.3 5.3 4 5.8s5.3-1.3 5.8-4c.1-.4.1-.7.1-1.1-3.1 0-5 1.6-5.9 4.8zM94.4 124.1c.4-.1.7-.3 1-.4-.3-.5-.6-.9-.9-1.3-1.9-.1-3.8-.3-5.7-.4 1.2 1.8 3.4 2.7 5.6 2.1zM87.7 126.1c.4-.1.7-.2 1.1-.3-1.2-2.8-3.3-4-6.6-3.7.3-.1.6-.2.8-.3h-1.1v.4c.4 2.7 3 4.5 5.8 3.9zM66.7 127.4c.4.1.7.1 1.1.2 2.8.1 5.1-2.1 5.2-4.8 0-.3 0-.7-.1-1-1 0-2 0-2.9.1.7.4 1.6.8 2.7.9-3.3.2-5.2 1.7-6 4.6zM31.2 52.3c1.2-3.1.6-5.5-1.7-7.4l-.6.9c-1.2 2.5-.3 5.5 2.2 6.7 2.5 1.2 5.5.3 6.7-2.2.1-.2.2-.4.2-.6-2.9-.9-5.1-.1-6.8 2.6zM28.6 58.3c.7-3.2-.2-5.5-2.8-7.1-.2.3-.3.6-.5 1-.9 2.6.5 5.5 3.2 6.3 2.6.9 5.4-.5 6.3-3.2.1-.2.1-.4.2-.6-3-.4-5.1.7-6.4 3.6zM48.5 33.4c2.6-2.1 3.3-4.4 2.2-7.3-.3.1-.7.3-1 .5-2.3 1.5-3 4.6-1.5 6.9 1.5 2.3 4.6 3 6.9 1.5.2-.1.3-.2.5-.4-1.9-2.2-4.2-2.6-7.1-1.2zM43.3 37.2c2.2-2.5 2.6-4.9 1.2-7.5l-.9.6c-2.1 1.8-2.3 5-.5 7.1 1.8 2.1 5 2.3 7 .5.2-.1.3-.3.4-.4-2.3-2.1-4.6-2.1-7.2-.3zM38.6 41.7c2-2.7 2.1-5.1.4-7.6-.3.2-.6.4-.8.7-1.9 2-1.8 5.2.2 7.1s5.2 1.8 7.1-.2c.1-.2.3-.3.4-.5-2.6-1.7-4.9-1.6-7.3.5zM28.4 90.1c-1.4-3-3.5-4.3-6.5-4 0 .4.1.7.2 1.1.9 2.6 3.7 4 6.3 3.1 2.6-.9 4-3.7 3.1-6.3-.1-.2-.1-.4-.2-.6-2.6 1.5-3.5 3.6-2.9 6.7zM26.8 64.5c.4-3.3-.7-5.5-3.5-6.8-.2.3-.3.7-.4 1-.6 2.7 1.1 5.4 3.8 6 2.7.6 5.4-1.1 6-3.8 0-.2.1-.4.1-.6-3-.1-4.9 1.2-6 4.2zM26.8 84.1c2.7-.5 4.5-3.1 4-5.8 0-.2-.1-.4-.1-.6-2.9 1-4.1 3-3.9 6.1-.9-3.2-2.8-4.7-5.8-4.9 0 .4 0 .7.1 1.1.4 2.8 3 4.6 5.7 4.1zM34.5 46.7c1.6-2.9 1.4-5.3-.6-7.6-.3.2-.5.5-.7.8-1.6 2.3-1 5.4 1.2 7 2.3 1.6 5.4 1 7-1.2.1-.2.2-.4.3-.5-2.8-1.3-5.1-.8-7.2 1.5zM54.3 30.3c2.8-1.7 3.9-3.9 3.2-6.9-.4.1-.7.2-1 .4-2.5 1.2-3.6 4.1-2.4 6.6 1.2 2.5 4.1 3.6 6.6 2.4l.6-.3c-1.8-2.5-4-3.2-7-2.2zM60.3 28.1c3.1-1.3 4.4-3.3 4.2-6.3-.4 0-.7.1-1.1.2-2.6.8-4.2 3.6-3.4 6.2.8 2.6 3.6 4.2 6.2 3.4.2-.1.4-.1.6-.2-1.3-2.9-3.3-3.9-6.5-3.3z"/><path fill="#135D71" d="M84.9 21.9c-.4-.1-.7-.2-1.1-.2-.2 3 1.2 5 4.2 6.3-3.1-.5-5.2.5-6.5 3.2.2.1.4.2.6.2 2.6.8 5.4-.7 6.2-3.4.7-2.5-.8-5.3-3.4-6.1zM64.5 26.8c2.8 1.5 4.9 1.1 6.8-1.5-2.7-1.4-4.9-1-6.8 1.5zM94.3 30.5c1.2-2.5.1-5.5-2.4-6.6-.3-.2-.7-.3-1-.4-.6 3 .4 5.1 3.2 6.9-3-1-5.2-.3-6.9 2.3l.6.3c2.4 1 5.4 0 6.5-2.5z"/><path fill="#9FCB3A" d="M74.8 131.4c-10.4 0-20.2-2.8-28.6-7.7-2.5.3-5 .7-7.3 1.2l1.2 3.5 5.5-.5 2.5 4.9 5.4-1.3 3.2 4.5 5.1-2.1 3.8 4 4.8-2.8 4.3 3.4 4.3-3.4 4.8 2.8 3.8-4 5.1 2.1 3.2-4.5 5.4 1.3 2.5-4.9 5.5.5 1.4-4.1c-2.2-.4-4.6-.7-6.9-1-8.4 5.1-18.4 8.1-29 8.1zM18.2 97.5l.5-.3c1-.6 2-1.3 3.2-1.9-2.6-6.5-4-13.5-4-20.9 0-31.4 25.6-57 57-57s57 25.6 57 57c0 6.9-1.2 13.4-3.4 19.5.1.1.3.1.4.2 1.1.5 2.1 1.1 3.1 1.6l4.5-3.2-2.1-5.1 4-3.8-2.8-4.8 3.4-4.3-3.4-4.3 2.8-4.8-4-3.8 2.1-5.1-4.5-3.2 1.3-5.4-4.9-2.5.5-5.5-5.2-1.8-.3-5.5-5.4-1-1-5.4-5.5-.3-1.8-5.2-5.7.3-2.5-4.9-5.4 1.3-3.2-4.5-5.1 2.1-3.8-4-4.8 2.8-4.3-3.4-4.3 3.4-4.8-2.8-3.8 4-5.1-2.1-3.2 4.5-5.4-1.3-2.7 4.9-5.5-.5-1.8 5.2-5.5.3-1 5.4-5.4 1-.3 5.5-5.2 1.8.5 5.5-4.9 2.5 1.3 5.4-4.5 3.2 2.1 5.1-4 3.8 2.8 4.8-3.4 4.3 3.4 4.3-2.8 4.8 4 3.8-2.1 5.1 4.5 3.2-1.3 5.4 4 2.1c-.7-1.7-1.5-3.3-2.1-5.1l-.2-.4z"/><path fill="#004258" d="M133.3 104.1c-.4-.1-.8-.3-1.1-.4.8-1.8 1.6-3.7 2.4-5.6l.2-.5-.5-.3-2.4-1.5c-1-.6-2-1.1-3.1-1.6-.1-.1-.3-.1-.4-.2-.2-.1-.5-.2-.7-.3-3.7-1.7-7.7-3.2-12.2-4.4h-.1c-2.8-.8-5.7-1.5-8.8-2.1-.9-.2-1.8-.3-2.6-.5-2.8-.5-5.8-1-8.8-1.3-6-.7-12.3-1.1-18.7-1.1-7.4 0-14.6.5-21.4 1.4-3 .4-5.9.9-8.7 1.5-.9.2-1.7.4-2.6.5-3.6.8-7 1.7-10.2 2.8-.9.3-1.7.6-2.6.9-1.5.5-3 1.1-4.3 1.7-.8.3-1.6.7-2.3 1.1 0 0-.1 0-.1.1-.6.3-1.1.6-1.7.9-.2.1-.4.2-.7.4-1.1.6-2.2 1.2-3.2 1.9l-.5.3.2.5c.6 1.7 1.4 3.4 2.1 5.1l.3.6c-.4.1-.8.3-1.2.4-2.2.8-4.2 1.6-6 2.5 3.9 7.7 9.3 14.6 16.1 20.2 2.5-.6 5.1-1.2 7.9-1.7.4-.1.9-.2 1.3-.2 2.4-.4 4.8-.8 7.3-1.2.4-.1.8-.1 1.2-.2 2-.3 4-.5 6-.7 1.9-.2 3.9-.4 5.8-.5 2.1-.2 4.3-.3 6.4-.4h.7c1.1 0 2.3-.1 3.4-.1 1 0 1.9 0 2.9-.1h9.9c2 .1 3.9.1 5.9.2 1.9.1 3.8.2 5.7.4 2.8.2 5.6.5 8.2.8.4 0 .8.1 1.2.2 2.4.3 4.7.6 6.9 1 1.5.2 3 .5 4.5.8 2.8.5 5.4 1.1 7.9 1.7 6.7-5.7 12.2-12.5 16.1-20.2-1.4-1.2-3.4-2-5.6-2.8zM24.8 95.4c12.9-6.2 31.7-9.8 51.7-9.8 19.9 0 38.8 3.6 51.7 9.8a72 72 0 0 1 4.9 2.7c-3.4 8.9-8.1 16.8-14 23.5-2.2-.7-4.5-1.4-6.8-2-10.7-2.7-23.1-4.1-35.7-4.1-12.6 0-25 1.4-35.7 4.1-2.3.6-4.6 1.2-6.8 2-5.9-6.7-10.6-14.6-14-23.5 1.3-1 2.9-1.9 4.7-2.7z"/><ellipse fill="#83391C" cx="68.6" cy="61.3" rx="1.5" ry="3.2"/><path fill="#83391C" d="M84 61.3c0 .6-.1 1.2-.2 1.8.9.1 1.7.2 2.4.3-.1-.4-.1-.8-.1-1.2 0-.9.1-1.7.4-2.4-.8-.2-1.8-.3-2.8-.4.2.5.3 1.2.3 1.9z"/><ellipse fill="#83391C" cx="75.2" cy="60.9" rx="1.4" ry="3.2"/><path fill="#83391C" d="M77.4 60.9c0 .6-.1 1.2-.2 1.8.9 0 1.7.1 2.5.1-.1-.4-.1-.9-.1-1.4 0-.8.1-1.6.4-2.3-.9 0-1.8-.1-2.7-.1 0 .5.1 1.2.1 1.9z"/><ellipse fill="#83391C" cx="88.3" cy="62.1" rx="1.4" ry="3"/><path fill="#83391C" d="M70.5 59c.2.7.4 1.4.4 2.3 0 .5 0 1-.1 1.4.8 0 1.6-.1 2.5-.1-.3-.5-.3-1.1-.3-1.7 0-.7.1-1.4.2-1.9-.9-.1-1.9 0-2.7 0zM108.9 67.5c-.3 4.2-2.2 9.9-3.7 13.6 5.9-4.7 9.4-9.2 9.4-10.2-.1-.6-2-2-5.7-3.4z"/><path fill="#83391C" d="M118.6 75.5c.7-1 1.2-2 1.6-2.7.3-.7.5-1.3.6-1.7V71c0-.9-.6-2.5-2-4.6-2-3.1-5.6-7-10.9-10.6-.5-.3-.9-.6-1.4-.9-7.3-4.5-17.6-8.2-31.3-8.2-14.8 0-25.6 4.5-33 9.6-.5.3-.9.7-1.4 1-4.9 3.7-8 7.5-9.7 10.2-.5.8-.9 1.5-1.1 2.1-.3.6-.4 1.1-.4 1.4 0 .3.1.6.1 1 .1.5.3 1.1.7 1.8 1.7 3.7 6.2 9.2 13.4 13.8.9-.2 1.7-.4 2.6-.5-9-5.7-13.5-12.8-13.5-15.7 0-2.7 12.2-22.5 42.3-22.5 30.1 0 42.3 18.9 42.3 22.5 0 1.9-4.5 9.2-13.5 15.2.9.2 1.8.3 2.6.5 5.8-4 9.8-8.3 12-11.6z"/><path fill="#83391C" d="M108.8 62.5c0 .1-.1 2.2-.1 2.2s-5-2.1-9.3-3.1c0 0-.2-4.5-.4-5.3-6.1-3-14.1-5.3-23.8-5.3-8.8 0-16 1.9-21.7 4.5-.3.1-2.3 3.5-2.3 7.1-1.1.3-5 1.4-10.3 4.3.1-1.1.3-2.2.5-3.2-4.2 4-6.1 7.4-6.1 7.4s5.2-3.9 16-6.6c1-.3 3.2-1.9 3.3-2.6.8-3.7 4.5-8.9 20.5-8.9 16.7 0 20 5.7 20.6 9.4 0 .2 8.1 1.2 18.9 5.8 0 0-1.9-2.6-5.8-5.7z"/><path fill="#83391C" d="M75.2 53.8C57.3 53.8 55.5 61 55.5 64c0 8.6 9 5.3 19.7 5.3s19.7 3.3 19.7-5.3c0-3.1-1.9-10.2-19.7-10.2zm15 10.6c-.4 1.2-1.1 2-1.9 2-.9 0-1.6-1-2-2.3-.4 0-.7-.1-1.1-.1-.9-.1-1.7.3-2.2.9-.3.4-.8.7-1.2.7-.8 0-1.5-.8-1.9-2.1-.4 0-.9 0-1.3-.1-.8 0-1.6.3-2.1 1-.4.5-.8.7-1.2.7-.7 0-1.4-.7-1.8-1.7h-1.3c-.8 0-1.6.5-2 1.2-.4.6-.9 1-1.4 1-.7 0-1.4-.7-1.8-1.8-.4 0-.9.1-1.3.1-.8.1-1.6.6-2 1.3-.4.7-.9 1.2-1.5 1.2-.8 0-1.5-.8-1.9-2-1.8 0-2.7-.3-2.7-1.4 0-1 .9-1.9 2.6-2.7.4-1.4 1.1-2.4 2-2.4.3 0 .7.1.9.4.6.5 1.3.7 2.1.6.6-.1 1.2-.2 1.8-.2.4-1 1-1.6 1.7-1.6.4 0 .7.2 1 .5.5.5 1.2.8 1.9.8.6 0 1.2 0 1.9-.1.4-1 1-1.6 1.7-1.6.5 0 .9.3 1.2.7.5.6 1.2.9 1.9 1 .6 0 1.2 0 1.8.1.4-.8 1-1.3 1.6-1.3.5 0 .9.3 1.3.8s1 .9 1.7 1c.7.1 1.4.2 2.1.4.4-.8 1-1.3 1.6-1.3.9 0 1.6 1 2 2.4 1.7.8 2.6 1.7 2.6 2.7-.1.9-1 1.2-2.8 1.2z"/><path fill="#83391C" d="M90.5 61c.1.4.1.8.1 1.2 0 .6-.1 1.2-.2 1.7 1.2 0 1.8-.2 1.8-1 0-.7-.6-1.4-1.7-1.9z"/><ellipse fill="#83391C" cx="81.8" cy="61.3" rx="1.6" ry="3.3"/><path fill="#83391C" d="M35.1 73.3c0 .2 3.1 4.9 9.5 9.5-1.6-3.5-3.6-8.9-3.7-13.3-3.9 1.9-5.8 3.5-5.8 3.8zM63.9 59.8c.2.7.4 1.5.4 2.4 0 .4 0 .9-.1 1.2.7-.1 1.6-.2 2.4-.3-.1-.5-.2-1.1-.2-1.8s.1-1.4.3-2c-1.1.2-2 .3-2.8.5zM95.9 64.8c-.4 8.7-9.2 6.2-20.7 6.2-11 0-19.3 2.3-20.3-5.1 0-.3-.8-.9-2.8-.3v.1c0 9.5 1.5 15.9 3.3 19.9 6.8-.9 13.9-1.4 21.3-1.4 6.4 0 12.6.4 18.7 1.1 1.6-4.4 3.2-11.2 4-20.3-2.7-.6-3.5-.4-3.5-.2zM59.9 61c-1.1.6-1.7 1.2-1.7 1.9 0 .8.6 1 1.8 1-.1-.5-.2-1.1-.2-1.7 0-.5 0-.9.1-1.2z"/><ellipse fill="#83391C" cx="62" cy="62.1" rx="1.4" ry="3.1"/><path fill="#FFF" d="M90.3 60.2c-.4-1.4-1.1-2.4-2-2.4-.6 0-1.2.5-1.6 1.3-.6-.1-1.3-.3-2.1-.4-.7-.1-1.3-.5-1.7-1-.4-.5-.8-.8-1.3-.8-.6 0-1.2.5-1.6 1.3-.6 0-1.2-.1-1.8-.1-.7 0-1.4-.4-1.9-1-.3-.4-.8-.7-1.2-.7-.7 0-1.3.6-1.7 1.6-.6 0-1.3 0-1.9.1-.7 0-1.4-.2-1.9-.8-.3-.3-.7-.5-1-.5-.7 0-1.3.6-1.7 1.6-.6.1-1.2.2-1.8.2-.8.1-1.5-.1-2.1-.6-.3-.3-.6-.4-.9-.4-.9 0-1.6 1-2 2.4-1.7.8-2.6 1.7-2.6 2.7 0 1.2.9 1.5 2.7 1.4.4 1.2 1.1 2 1.9 2 .6 0 1.1-.4 1.5-1.2.4-.7 1.1-1.2 2-1.3.4 0 .8-.1 1.3-.1.4 1.1 1.1 1.8 1.8 1.8.5 0 1-.4 1.4-1 .4-.7 1.2-1.2 2-1.2h1.3c.4 1.1 1.1 1.7 1.8 1.7.5 0 .9-.3 1.2-.7.5-.6 1.3-1 2.1-1 .4 0 .9 0 1.3.1.4 1.2 1.1 2.1 1.9 2.1.4 0 .9-.3 1.2-.7.5-.7 1.4-1 2.2-.9.4 0 .8.1 1.1.1.4 1.4 1.1 2.3 2 2.3.8 0 1.5-.8 1.9-2 1.8 0 2.7-.3 2.7-1.4.1-.8-.8-1.7-2.5-2.5zm-32.1 2.6c0-.7.6-1.3 1.7-1.9-.1.4-.1.8-.1 1.2 0 .6.1 1.2.2 1.7-1.2 0-1.8-.2-1.8-1zm3.8 2.4c-.8 0-1.4-1.4-1.4-3.1 0-1.7.6-3.1 1.4-3.1.8 0 1.4 1.4 1.4 3.1 0 1.7-.6 3.1-1.4 3.1zm4.6-2.1c-.9.1-1.7.2-2.4.3.1-.4.1-.8.1-1.2 0-.9-.1-1.7-.4-2.4.8-.2 1.8-.3 2.8-.4-.2.6-.3 1.3-.3 2 0 .5.1 1.1.2 1.7zm2 1.4c-.8 0-1.5-1.4-1.5-3.2s.7-3.2 1.5-3.2 1.5 1.4 1.5 3.2-.7 3.2-1.5 3.2zm4.6-1.9c-.9 0-1.7.1-2.5.1.1-.4.1-.9.1-1.4 0-.8-.1-1.6-.4-2.3.9 0 1.8-.1 2.7-.1-.2.6-.2 1.2-.2 1.9.1.7.1 1.3.3 1.8zm2 1.4c-.8 0-1.4-1.4-1.4-3.2s.6-3.2 1.4-3.2c.8 0 1.4 1.4 1.4 3.2S76 64 75.2 64zm4.3-2.7c0 .5 0 1 .1 1.4-.8 0-1.6-.1-2.5-.1.1-.5.2-1.1.2-1.8s-.1-1.4-.3-1.9c1 0 1.9.1 2.7.1 0 .7-.2 1.5-.2 2.3zm2.3 3.3c-.9 0-1.6-1.5-1.6-3.3 0-1.8.7-3.3 1.6-3.3.9 0 1.6 1.5 1.6 3.3-.1 1.8-.8 3.3-1.6 3.3zm4.3-2.5c0 .4 0 .9.1 1.2-.7-.1-1.6-.2-2.4-.3.1-.5.2-1.1.2-1.8s-.1-1.4-.3-2c1 .1 1.9.3 2.8.4-.2.8-.4 1.6-.4 2.5zm2.2 3c-.8 0-1.4-1.4-1.4-3 0-1.7.6-3 1.4-3 .8 0 1.4 1.3 1.4 3s-.6 3-1.4 3zm2.1-1.3c.1-.5.2-1.1.2-1.7 0-.4 0-.8-.1-1.2 1.1.6 1.7 1.2 1.7 1.9 0 .8-.6 1-1.8 1z"/><path fill="#9FCB3A" d="M19.9 98.1c3.4 8.9 8.1 16.8 14 23.5 2.2-.7 4.5-1.4 6.8-2 10.7-2.7 23.1-4.1 35.7-4.1 12.6 0 25 1.4 35.7 4.1 2.3.6 4.6 1.2 6.8 2 5.9-6.7 10.6-14.6 14-23.5a72 72 0 0 0-4.9-2.7c-12.9-6.2-31.7-9.8-51.7-9.8-19.9 0-38.8 3.6-51.7 9.8-1.6.8-3.2 1.7-4.7 2.7zm66 .3l4.7.2 2.8-3.8 1.3 4.6 4.5 1.5-3.9 2.6-.1 4.7-3.7-2.9-4.5 1.4 1.6-4.4-2.7-3.9zm34.6 10.9l-3.4-.7-2.5 2.5-.4-3.5-3.2-1.6 3.2-1.5.6-3.4 2.4 2.6 3.5-.5-1.7 3.1 1.5 3zM63.2 94l1.3 4.6 4.5 1.5-3.9 2.6-.1 4.7-3.7-2.9-4.5 1.4 1.6-4.4-2.7-3.9 4.7.2 2.8-3.8zm-24.8 8.2l4.5 1.5-3.9 2.6-.1 4.7-3.7-2.9-4.5 1.4 1.6-4.4-2.7-3.9 4.7.2 2.8-3.8 1.3 4.6z"/></svg>