<svg xmlns:xlink="http://www.w3.org/1999/xlink"  xmlns="http://www.w3.org/2000/svg" viewBox="0 0 150 150"><path fill="#CC4A34" d="M17.7 34.1l11.5 80.1 46.7 24 48.2-24 9.8-80.1c-4.1-2.9-27.7-18.6-59.4-18.5-20 0-39 6.2-56.8 18.5zm54.9-16.5v.7c-.6 0-1.3 0-2 .1v-.7c.7 0 1.4-.1 2-.1zm-3.9.2v.7c-.6 0-1.3.1-2 .1l-.1-.7c.7 0 1.4-.1 2.1-.1zm-4 .3l.1.7c-.7.1-1.3.1-2 .2l-.1-.6c.7-.1 1.3-.2 2-.3zm.7 14.7c2.7-2.7 6-4.1 9.5-4.5.1.4.1.8.2 1.2l-3.4.8.5 2 3.4-.8c.3.8.6 1.5.9 2.3L74.1 35l.9 1.9 2.7-1.2c.5.9 1.2 1.8 1.9 2.6l-2 2 1.5 1.5 2-2c.8.8 1.7 1.5 2.6 2.1l-1.4 2.5 1.8 1 1.4-2.4c.8.4 1.7.8 2.5 1.2l-1 2.9 2 .7 1-3c.7.2 1.3.3 2 .4-.3 3.5-1.8 6.8-4.5 9.5-2.6 2.7-6 4.1-9.5 4.5-.1-.6-.2-1.1-.3-1.7l3.3-.8-.5-2-3.4.8c-.3-.8-.6-1.5-1-2.3l2.6-1.2-.9-1.9-2.8 1.3c-.6-.9-1.2-1.7-1.9-2.5l2.1-2.1-1.5-1.5-2.2 2.1c-.8-.8-1.7-1.4-2.6-2l1.6-2.8-1.8-1-1.5 2.7c-.8-.4-1.6-.8-2.4-1.1l1.1-3.2-2-.7-1.2 3.3c-.6-.1-1.1-.2-1.7-.3.3-3.4 1.8-6.8 4.4-9.5zM62 44.4l-.6 1.8 2 .7.6-1.9c.7.3 1.4.6 2.2 1L65 48l1.8 1 1.1-1.9c.7.5 1.5 1.1 2.2 1.7l-1.7 1.7 1.5 1.5 1.7-1.7c.6.6 1.1 1.3 1.6 2l-2.1 1 .9 1.9 2.4-1.1c.3.6.6 1.3.8 1.9l-1.8.4.5 2 2-.5c.1.4.2.9.2 1.3-3.8-.1-7.6-1.6-10.5-4.5a15.4 15.4 0 0 1-4.5-10.5c.2.1.6.2.9.2zm-1.3-25.8l.1.7c-.6.1-1.3.2-2 .3l-.1-.7c.7-.1 1.4-.2 2-.3zm-3.9.7l.1.6c-.6.1-1.3.3-1.9.4l-.1-.6c.6-.2 1.3-.3 1.9-.4zm-3.9.8l.2.6c-.6.2-1.3.3-1.9.5l-.2-.6c.7-.2 1.3-.3 1.9-.5zm-3.8 1l.2.6c-.6.2-1.3.4-1.9.6l-.2-.6c.6-.2 1.3-.4 1.9-.6zm-3.8 1.2l.2.6c-.6.2-1.3.4-1.9.6l-.2-.6c.7-.2 1.3-.4 1.9-.6zm-14.6 6.2l.3.6c-.6.3-1.2.6-1.7.9l-.3-.6c.5-.3 1.1-.6 1.7-.9zm-3.5 1.9l.3.6c-.6.3-1.1.6-1.7 1l-.3-.6c.6-.4 1.1-.7 1.7-1zm-3.4 2l.4.6c-.6.4-1.1.7-1.7 1l-.4-.6c.6-.3 1.1-.6 1.7-1zm-4.4 2.9l.2-.1c.3-.2.5-.4.8-.6l.4.6c-.2.1-.4.3-.6.4l.1.8-.7.1-.2-1.2zm.5 3.1l.7-.1.3 1.9-.6.1-.4-1.9zm.5 3.9l.6-.1.3 1.9-.7.1-.2-1.9zm.6 3.9l.6-.1.3 1.9-.7.1-.2-1.9zm.6 3.9l.7-.1.3 1.9-.8.1-.2-1.9zm.5 3.8l.7-.1.3 1.9-.7.1-.3-1.9zm.6 3.9l.6-.1.3 1.9-.7.1-.2-1.9zm.5 3.9l.6-.1.3 1.9-.7.1-.2-1.9zm.6 3.9l.7-.1.3 1.9-.7.1-.3-1.9zm.5 3.9l.7-.1.3 1.9-.7.1-.3-1.9zm.6 3.9l.6-.1.3 1.9-.7.1-.2-1.9zm.6 3.9l.6-.1.3 2-.7.1-.2-2zm.5 3.9l.7-.1.3 1.9-.7.1-.3-1.9zm.6 3.9l.7-.1.3 1.9-.8.1-.2-1.9zm.5 3.9l.7-.1.3 1.9-.7.1-.3-1.9zm.6 3.8l.7-.1.3 2-.7.1-.3-2zm.5 3.9l.7-.1.3 1.9-.7.1-.3-1.9zm.9 5.9l-.3-1.9.6-.1.3 1.9-.6.1zm.2 1.9l.7-.1.3 1.9-.7.1-.3-1.9zm.6 3.9l.7-.1.3 2-.7.1-.3-2zm1.8 5.6l-1-.5-.2-1.2.7-.1.1.8.7.4-.3.6zm.8-86.4l1.8-.9.3.6-1.8.9-.3-.6zm2.6 88.2l-1.7-.9.3-.6 1.7.9-.3.6zm1-89.9c.6-.3 1.2-.5 1.8-.8l.3.6c-.6.3-1.2.5-1.8.8l-.3-.6zm2.4 91.6l-1.7-.9.3-.6 1.7.9-.3.6zm1.2-93.2c.6-.2 1.2-.5 1.9-.7l.2.6c-.6.2-1.2.5-1.8.7l-.3-.6zm2.3 95l-1.7-.9.3-.6 1.7.9-.3.6zm3.5 1.8l-1.7-.9.3-.6 1.7.9-.3.6zm3.4 1.7l-1.7-.9.3-.6 1.7.9-.3.6zm3.5 1.8l-1.7-.9.3-.6 1.7.9-.3.6zm3.4 1.8l-1.7-.9.3-.6 1.7.9-.3.6zm3.5 1.7l-1.7-.9.3-.6 1.7.9-.3.6zm3.4 1.8L61 129l.3-.6 1.7.9-.3.6zm3.5 1.8l-1.7-.9.3-.6 1.7.9-.3.6zm3.4 1.8l-1.7-.9.3-.6 1.7.9-.3.6zm3.4 1.7l-1.7-.9.3-.6 1.7.9-.3.6zm2.8 1.4l-1-.5.3-.6.7.4.7-.4.3.6-1 .5zm2.8-1.4l-.3-.6 1.8-.9.3.6-1.8.9zm3.6-1.7l-.3-.6 1.8-.9.3.6-1.8.9zm3.6-1.8l-.3-.6 1.8-.9.3.6-1.8.9zm3.5-1.8l-.3-.6 1.8-.9.3.6-1.8.9zm3.6-1.7l-.3-.6 1.8-.9.3.6-1.8.9zm3.5-1.8l-.3-.6 1.8-.9.3.6-1.8.9zm3.6-1.8l-.3-.6 1.8-.9.3.6-1.8.9zm3.6-1.8l-.3-.6 1.8-.9.3.6-1.8.9zm3.5-1.7l-.3-.6 1.8-.9.3.6-1.8.9zm15.3-7.7l-1 .5-.3-.6.7-.4.1-.8.7.1-.2 1.2zm2.3-18.6l-.7-.1.2-1.9.7.1-.2 1.9zm.5-3.9l-.7-.1.2-1.9.7.1-.2 1.9zm.5-3.9l-.7-.1.2-1.9.7.1-.2 1.9zm.4-3.9l-.7-.1.2-1.9.7.1-.2 1.9zm1.9-15.5l-.7-.1.2-1.9.7.1-.2 1.9zm.5-3.9l-.6-.1.2-1.9.7.1-.3 1.9zm.5-3.9l-.7-.1.2-1.9.7.1-.2 1.9zm.5-3.9l-.7-.1.2-1.9.7.1-.2 1.9zm1.9-15.5l-.6-.1.2-1.9.7.1-.3 1.9zm-.4-5.8c.3.2.6.4.8.6l.2.1-.1 1.2-.7-.1.1-.8c-.2-.1-.4-.3-.7-.4l.4-.6zm-.5 7.6l.7.1-.2 1.9-.7-.1.2-1.9zm-.5 3.9l.7.1-.2 1.9-.7-.1.2-1.9zm.2 4L130 52l-.7-.1.3-1.9.6.1zm-2.6-17.6c.6.4 1.2.7 1.7 1l-.3.6c-.5-.3-1.1-.7-1.7-1l.3-.6zm-.5 36.9l.6.1-.2 2-.7-.1.3-2zm-.4 3.9l.7.1-.2 1.9-.7-.1.2-1.9zm-.5 3.9l.7.1-.2 1.9-.7-.1.2-1.9zm-2.1-46.6c.6.3 1.2.6 1.7 1l-.3.6c-.5-.3-1.1-.6-1.7-.9l.3-.7zm-.3 66l.7.1-.2 1.9-.7-.1.2-1.9zm-.5 3.9l.7.1-.2 1.9-.7-.1.2-1.9zm-.4 3.9l.7.1-.2 1.9-.7-.1.2-1.9zm.2 4l-.2 1.9-.7-.1.2-1.9.7.1zm-2.5-79.6l1.8.9-.3.6-1.8-.9.3-.6zm-1 86l-1.8.9-.3-.6 1.8-.9.3.6zM117 27.1c.6.3 1.2.5 1.8.8l-.3.6c-.6-.3-1.2-.5-1.8-.8l.3-.6zm-1 89.5l-1.8.9-.3-.6 1.8-.9.3.6zm-2.7-91.1c.6.3 1.2.5 1.8.8l-.3.6c-.6-.3-1.2-.5-1.8-.8l.3-.6zm-.8 92.9l-1.8.9-.3-.6 1.8-.9.3.6zm-2.9-94.3c.6.2 1.3.5 1.9.7l-.2.6c-.6-.2-1.2-.5-1.8-.7l.1-.6zm-3.7-1.3c.6.2 1.3.4 1.9.6l-.2.6c-.6-.2-1.2-.4-1.9-.6l.2-.6zm2.6 25.9c1.9 1.9 3 3.9 1.1 5.9L79.5 81.1l2.4 2.7 18.8 18.8.6-.6c.6-.6 1.6-.6 2.2 0 .6.6.6 1.6 0 2.2l-3.6 3.6c-.6.6-1.6.6-2.2 0-.6-.6-.6-1.6 0-2.2l.3-.3-18.8-18.7-2.9-2.6-2.9 2.6-18.7 18.8.3.3c.6.6.6 1.6 0 2.2-.6.6-1.6.6-2.2 0l-3.7-3.6c-.6-.6-.6-1.6 0-2.2.6-.6 1.6-.6 2.2 0l.6.6 18.8-18.8 2.4-2.7L43 54.5c-1.9-1.9-.9-4 1.1-5.9 1.9-1.9 3.9-3 5.9-1.1l26.4 29.8 26.4-29.8c1.7-1.8 3.8-.7 5.7 1.2zm-6.4-27.1c.6.2 1.3.4 1.9.6l-.2.6c-.6-.2-1.3-.4-1.9-.6l.2-.6zm-3.9-1c.6.2 1.3.3 1.9.5l-.2.6c-.6-.2-1.3-.3-1.9-.5l.2-.6zm-3.8-.9c.6.1 1.3.3 1.9.4l-.2.6c-.6-.1-1.3-.3-1.9-.4l.2-.6zm-4-.7c.7.1 1.3.2 2 .4l-.1.6c-.6-.1-1.3-.2-1.9-.4V19zm-3.9-.6c.7.1 1.3.2 2 .3l-.1.6c-.7-.1-1.3-.2-2-.3l.1-.6zm-3.9-.4c.7.1 1.3.1 2 .2l-.1.7c-.7-.1-1.3-.1-2-.2l.1-.7zm-4-.3c.7 0 1.3.1 2 .1v.7c-.6 0-1.3-.1-2-.1v-.7zm8.7 15.1c2.9 2.9 4.4 6.7 4.5 10.5-.5-.1-.9-.1-1.4-.3l.8-2.2-2-.7-.8 2.2c-.7-.3-1.4-.6-2.2-1l1.3-2.3-1.8-1-1.2 2.2c-.8-.6-1.5-1.2-2.2-1.8l1.8-1.8-1.5-1.5-1.7 1.9-1.5-2.1 2.3-1-.9-1.9-2.4 1.1c-.3-.6-.6-1.3-.8-1.9l1.9-.4-.5-2-2 .3c0-.3-.1-.5-.1-.8 3.8.1 7.5 1.6 10.4 4.5zM74.6 17.6h2v.7h-2v-.7z"/><path fill="#0080A1" d="M138.4 29.3c-1.3-1-27.3-20.2-64-20.3-21.6 0-42.2 6.8-61.2 20.2l-1.3.9-1.3.9 12.5 87.5 51.2 26.3.3.1 1.2.6 1.2-.5 51.6-25.6.3-.2 1.3-.6 10.7-87.4-2.5-1.9zM124 114.2l-48.2 24-46.7-24-11.4-80.1c17.8-12.3 36.8-18.5 56.8-18.5 31.7 0 55.3 15.6 59.4 18.5l-9.9 80.1z"/></svg>