<svg xmlns:xlink="http://www.w3.org/1999/xlink"  xmlns="http://www.w3.org/2000/svg" viewBox="0 0 150 150"><path fill="none" d="M66.1 62.3v-.2H66v.8h.1v-.6zM84.1 62.1c0 .1 0 .2-.1.3v.6h1v-1h-.2v.1h-.7zm.7.7h-.5v-.5h.5v.5z"/><path d="M28.7 74.5c1.1 0 2.2.1 3.3.2.1 0 .2.1.3.1 1.7.7 3.4.9 5.2.6 2.3-.4 4.6 0 6.7.7 1.3.4 2.4.5 3.7.3 2.3-.3 4.6-.2 6.9-.2 2.6-.1 5.2 0 7.8-.2 1.6-.1 3-.7 4.1-1.8.4-.4.6-.9.9-1.4-2 .6-3.7 1.4-5.5 1.6-2.6.4-5.2.3-7.8.4-2.5.1-5.1-.1-7.6.7-.4.1-.9.1-1.3-.1-2.8-1-5.7-1.2-8.6-.7-1.1.2-2.2.1-3.3-.2H33c-1.9-.4-3.9-.6-5.9-.7-2.8-.1-5.5 0-8.3 0-1.2 0-2.4-.2-3.5-.1-4.6.5-8.2 2.4-11.2 5.1 2.5.3 3.3.2 4.7-.6-.8.1-1.7.1-3.2 0 3-2 6.7-3.4 11.3-3.8 1.2-.1 2.4.1 3.5.1 2.7 0 5.5-.1 8.3 0zM134.1 73.6c-1.2-.1-2.4.1-3.5.1-2.8 0-5.5-.1-8.3 0-2 .1-4 .3-5.9.7h-.5c-1.1.3-2.2.4-3.3.2-2.9-.6-5.8-.4-8.6.7-.4.2-.9.2-1.3.1-2.5-.8-5.1-.6-7.6-.7-2.6-.1-5.2-.1-7.8-.4-1.8-.2-3.6-1-5.5-1.6.3.5.5 1 .9 1.4 1.1 1.2 2.6 1.7 4.1 1.8 2.6.1 5.2.1 7.8.2 2.3.1 4.6-.1 6.9.2 1.3.2 2.4.2 3.7-.3 2.2-.7 4.4-1.1 6.7-.7 1.8.3 3.5.1 5.2-.6.1 0 .2-.1.3-.1 1.1-.1 2.2-.2 3.3-.2 2.8-.1 5.5 0 8.3 0 1.2 0 2.4-.2 3.5-.1 4.6.4 8.2 1.8 11.2 3.8-1.5.1-2.4.2-3.2 0 1.4.8 2.2.9 4.7.6-2.8-2.8-6.5-4.7-11.1-5.1z"/><path d="M130.3 76c-2.1.3-4.2.5-6.4.8-2.2.2-4.3.8-6.5 1h-.2c-.5 0-1 .1-1.5.1-1 0-2 0-3-.1 0 0-.1 0-.2.1.5.1 1 .2 1.6.4-2.3.5-4.5 1.6-6.5 3.1-2.4 1.8-5.2 2.4-8.2 2.4h-1.3v.4c.5.1 1 .3 1.5.3 3.1.3 6-.4 8.6-2.2 1.3-.9 2.6-1.8 4-2.5.6-.4 1.4-.5 2.1-.6 1.9-.3 3.8-.5 5.7-.9.8-.2 1.5-.3 2.3-.6h-.1c1.1-.3 2.1-.5 3.2-.7 2-.3 3.9-.7 5.8-1-.2-.1-.6-.1-.9 0zM37.2 79.8c1.4.8 2.7 1.6 4 2.5 2.2 1.5 4.6 2.2 7.1 2.3.8-.3 1.5-.5 2.3-.8H50c-3 0-5.8-.6-8.2-2.4-2-1.5-4.1-2.5-6.5-3.1.7-.1 1.1-.3 1.6-.4-.1 0-.1-.1-.2-.1-1 .2-2 .2-3 .1-.5-.1-1-.1-1.5-.1H32c-2.2-.3-4.3-.8-6.5-1-2.1-.2-4.2-.5-6.4-.8-.4 0-.7-.1-1 0 2 .3 3.9.7 5.8 1 1.1.2 2.1.4 3.2.7H27c.7.2 1.5.4 2.3.6 1.9.4 3.8.6 5.7.9.8.1 1.5.3 2.2.6zM46.5 78.6c-1.5-.2-2.9-.4-4.4-.6-1.1-.1-2.1-.3-3.2-.4v.4c.2 0 .5.1.7.1 2 .5 4 .9 5.9 1.4.8.2 1.5.6 2.3 1 .6.3 1.6 0 1.7-.4.1-.8-.6-.7-1-.9-.6-.4-1.3-.5-2-.6zM65.7 65.8c0-.9.1-1.8.2-2.8H65h1v-1h-1H66.2c1.3-4.7 4.8-8.1 8.9-8.1 4.1 0 7.6 3.4 8.9 8v.2h.9s0-.1 0 0v1c0 .1 0 0 0 0h-.6c.1 1 .2 1.9.2 2.8 0 .8-.1 1.8-.2 2.6.6-1.5.9-3.1.9-4.9 0-6.7-4.6-12.1-10.3-12.1s-10.3 5.4-10.3 12.1c0 2.4.6 4.5 1.6 6.3-.3-1.3-.5-2.8-.5-4.1zm-.3-3.5h.5v.5h-.5v-.5z"/><path d="M84.1 62.1l-.1.3c.1-.1.1-.2.1-.3zM101.6 80.3c.8-.3 1.5-.8 2.3-1 2-.5 3.9-.9 5.9-1.4.2-.1.5-.1.7-.1v-.4c-1.1.1-2.1.3-3.2.4-1.5.2-2.9.4-4.4.6-.7.1-1.4.3-2 .5-.4.2-1.2.1-1 .9 0 .5 1 .8 1.7.5z"/><path fill="#29AAE2" d="M33 91.4s14.4-6.3 23.9-6c7.7.2 10.5 1.8 14.6 3.7 10.1 4.9 35.6-4 35.6-3.9.1-.2-11.1 1.9-21.5 1.9-6.5 0-12.7-1.6-15.8-2.7-8.1-3.1-9.3-3-16.9-1.2-.7.2-1.5.4-2.4.7-.7.2-1.5.5-2.3.8-7.1 2.5-15.2 6.7-15.2 6.7z"/><path fill="#53C5CF" d="M52.3 87.7c-8.1 1-22.5 5.8-22.5 5.8s16.3-4.8 25.6-3.5c3.4.5 8.6 3.2 13.4 4.3 5.6 1.2 10.9.6 14.2.3-6.4-.6-12.1-2.6-14.9-4-5-2.6-7.8-4-15.8-2.9z"/><path fill="#36BEC5" d="M107.4 87.1c-3.4.1-6.9 1.4-9.5 2.4-8.7 3.4-14.1 4.2-14.1 4.2-.1 0 .9 1.3 4.9 1.4 4 .2 10-.1 13.5-3.1 5.9-5.1 14.4-3.8 14.3-3.7.1.1-3.8-1.3-9.1-1.2z"/><path d="M67.8 62.9v-.8h-1.1c.1.1.1.2.1.4s0 .3-.1.4h1.1zM66.1 61.9h-.8v.2H66.1V63H65.3v.2h.7c.1 0 .5-.1.5-.7 0-.4-.2-.5-.4-.6.1 0 0 0 0 0z"/><path d="M65.9 62.3h-.5v.5h.5v-.5zM82.4 62.1v.8h1c-.1-.1-.1-.2-.1-.4s0-.3.1-.4h-1zM84.8 63H84v-.8H84.8v-.1-.1H84c-.1 0-.5.1-.5.6 0 .6.5.6.5.7h.8V63z"/><path d="M84.3 62.8h.5v-.5h-.5v.5zM74.3 62.1c0 .1.1.3.1.4 0 .1 0 .3-.1.4.8-.3 1.4-.1 1.7 0 0-.1-.1-.3-.1-.4 0-.1 0-.3.1-.4-.3.1-.9.3-1.7 0zM78.4 60.8c-2.1.1-2.2 1.5-2.2 1.8 0 .3.1 1.7 2.2 1.8 1.7.1 3-.6 3.6-1.1-.7.2-2.1.7-3.4.6-1.7-.1-1.8-1.2-1.8-1.3 0-.1.1-1.2 1.8-1.3 1.3-.1 2.7.4 3.4.6-.6-.5-1.9-1.2-3.6-1.1z"/><path d="M78.6 61.4c-1.5.1-1.6 1-1.6 1.1 0 .2.1 1.1 1.6 1.1h.6c.5-.1 1.4-.4 1.4-1.2 0-.9-1.3-1.1-1.4-1.1-.2.1-.4.1-.6.1z"/><path d="M82 62.1c0-.1-1-.4-2-.6.4.2.7.5.7 1s-.4.8-.8 1c1-.2 2-.5 2-.6.1 0 .1-.7.1-.8zM74.1 62.5c0-.3-.1-1.7-2.2-1.8-1.7-.1-3 .6-3.6 1.1.7-.2 2.1-.7 3.4-.6 1.7.1 1.8 1.2 1.8 1.3 0 .1 0 1.2-1.8 1.3-1.3.1-2.7-.4-3.4-.6.6.4 1.9 1.1 3.6 1.1 2.1-.1 2.2-1.5 2.2-1.8z"/><path d="M69.7 62.5c0 .8.9 1.1 1.4 1.2h.6c1.5-.1 1.6-1 1.6-1.1 0-.2-.1-1.1-1.6-1.1h-.6c-.1-.1-1.4.1-1.4 1z"/><path d="M68 63c0 .1 1.1.4 2.1.6-.4-.2-.7-.6-.7-1 0-.5.3-.8.7-1-1 .2-2.1.5-2.1.6v.8z"/></svg>