<svg xmlns:xlink="http://www.w3.org/1999/xlink"  xmlns="http://www.w3.org/2000/svg" viewBox="0 0 150 150"><path fill="none" d="M105 71.1c1.2.1 2.4.3 3.5.6V43c-1.1.3-2.3.6-3.5.9v27.2zM37.5 60.7c-.4.2-.8.3-1.2.5l-1.2.6v.2c1-.5 2-.9 3.1-1.3V41.9c0-.7.6-1.4 1.3-1.4 26.2 0 30.8-10.3 30.8-10.4.2-.5.7-.8 1.2-.8s1 .3 1.2.9c0 .1 4.5 10.4 30.8 10.4.7 0 1.3.6 1.3 1.4 1.2-.3 2.4-.5 3.5-.7v-3.7c0-.8-.6-1.5-1.4-1.5C78 36.1 73.1 24.8 73 24.7c-.2-.6-.7-.9-1.3-.9-.6 0-1.1.4-1.3.9 0 .1-5 11.4-33.9 11.4-.8 0-1.4.7-1.4 1.5v22.3c.7-.3 1.4-.6 2.2-.9.1.5.2 1.1.2 1.7zM105 43.2c1.2-.3 2.4-.6 3.5-.9v-.4c-1.1.3-2.3.5-3.5.8v.5zM38.2 63.6v-1.1c-.6.3-1.2.5-1.8.8l-1.2.6v2c.2-.2.4-.3.6-.5.7-.6 1.5-1.2 2.4-1.8zM36.9 90.2c.5.4 1.1.7 1.6 1.1h.1c-.2-1.1-.3-2.1-.3-3.2v-5.6c-.7-.5-1.4-1.1-2.1-1.6-.3-.3-.7-.6-1-.9V89.1l.1.1c.5.3 1 .6 1.6 1zM20.5 74.1l-.5.8-.3.4c-.1.1-.1.3-.2.4l-.5.9c-.1.3-.2.6-.2.9l-.1.5v1.3l.1.8.1.4.1.5c.8 2.3 2.7 4.5 4.8 6.5.4.4.8.7 1.2 1.1V69.8c-1.8 1.3-3.4 2.7-4.5 4.3zM24.4 65.5c.2-.1.4-.3.6-.4V65c-.2.2-.4.4-.6.5zM35.2 70.7v3.6c.1.4.4.7.5 1 .6 1 1.5 2 2.5 2.9V66.9c-1.4 1.2-2.5 2.5-3 3.8z"/><path fill="#132118" d="M24.4 65.5l.6-.6v-2.4c-2 1.3-3.8 2.8-5.2 4.6l-.6.9-.3.4c-.1.1-.2.3-.2.4l-.4.9-.3.9-.1.5v.1l.1-.2c1.7-2 3.9-3.8 6.4-5.5zM31.1 63.8c1.3-.6 2.6-1.3 3.9-1.8h.1v-.2c-1.3.6-2.7 1.3-4 2zM34.7 89.5c-.5-.4-.8-.8-1.2-1.1-.8-.7-1.5-1.4-2.1-1.9-.6-.6-1.1-1.1-1.5-1.6-.8-.9-1.3-1.4-1.3-1.4s.4.5 1.4 1.3c.5.4 1 .9 1.7 1.5.7.5 1.5 1.1 2.3 1.8l1.2.9V79.9c-1.1-1.1-2.2-2.3-2.9-3.7-.5-.9-.9-1.8-1-2.8-.1-.4 0-1 0-1.5.1-.5.2-1 .4-1.5.7-1.7 2-3.2 3.5-4.6v-2c-2.7 1.3-5.4 2.7-7.8 4.2-.8.5-1.6 1.1-2.4 1.7v18.8c1.8 1.6 3.7 3.2 5.7 4.7 2.3 1.7 4.7 3.3 7 4.9-1.3-2.6-2.2-5.4-2.5-8.2-.1-.1-.3-.3-.5-.4z"/><path fill="#132118" d="M35 71.1c-.2.4-.2.7-.3 1.1 0 .3-.1.6.1 1.1l.1.3v.1l.2.5v-3.6c0 .2 0 .3-.1.5zM73.6 124.9c-.6.3-1.1.5-1.2.6-.2.1-.4.1-.6.1-.2 0-.4 0-.6-.1-1-.5-19-8.7-29.2-21-4.6-2.9-9.3-6.1-13.9-9.6-1-.8-2.1-1.7-3.1-2.5.4 26.3 44.2 46.4 46.1 47.2.2.1.5.2.8.2.2 0 .5 0 .7-.2.6-.3 4.9-2.3 10.8-5.6-3.9-2.4-7.2-5.5-9.8-9.1zM29.4 59.9c.9.2 1.8.4 2.8.4-1.4.7-2.8 1.5-4.1 2.3-1.1.8-2.2 1.6-3.1 2.4v.1c.2-.1.4-.3.7-.4 2.9-1.8 6.1-3.4 9.4-4.8h.1V37.5c0-.8.6-1.5 1.4-1.5 28.8 0 33.8-11.3 33.9-11.4.2-.6.8-.9 1.3-.9.6 0 1.1.4 1.3.9C73.1 24.7 78 36 107 36c.8 0 1.4.7 1.4 1.5v3.7c.7-.1 1.4-.3 2.1-.4.3-.1.6-.1.9-.2l1.5-.3c0 .1 0 .1.1.2 0 .1.1.2.1.3-.5.1-.9.2-1.4.3-1 .2-2.1.5-3.2.7v.4c.5-.1.9-.2 1.4-.3 1.1-.3 2.2-.5 3.3-.8.1.2.1.3.2.5-1 .3-2.1.6-3.2.8-.5.1-1.1.3-1.7.4v28.7c3.6.8 7.1 2.2 10.2 4V27.2c0-1-.8-1.9-1.8-1.9-37 0-43.2-14.4-43.3-14.6-.3-.7-.9-1.2-1.7-1.2-.7 0-1.4.5-1.7 1.2-.1.2-6.4 14.6-43.3 14.6-1 0-1.8.9-1.8 1.9v35.4c.5-.4 1-.7 1.6-1 .8-.6 1.7-1.1 2.7-1.7z"/><path fill="#132118" d="M28.1 62.7c1.3-.8 2.6-1.6 4.1-2.3-1-.1-1.9-.2-2.8-.4-1 .5-1.9 1.1-2.8 1.6-.5.3-1.1.7-1.6 1V65c.9-.8 2-1.6 3.1-2.3z"/><g fill="#104222"><path d="M67 104.6c-.9-.3-2-.7-3.1-1.1-1.1-.4-2.4-.9-3.6-1.3-1.3-.5-2.6-1-4-1.6-1.3-.6-2.8-1.2-4.1-1.8-1.4-.7-2.8-1.3-4.2-2-.7-.4-1.4-.7-2.1-1.1-.7-.4-1.3-.7-2-1.1-.6-.4-1.3-.7-1.9-1.1-.6-.4-1.2-.8-1.8-1.1-.6-.4-1.2-.7-1.7-1.1h-.1c-.5-.4-1.1-.7-1.6-1.1-.5-.4-1-.7-1.5-1l-.1-.1-1.2-.9c-.9-.7-1.6-1.3-2.3-1.8-.6-.6-1.2-1.1-1.7-1.5-.9-.8-1.5-1.3-1.5-1.3s.5.5 1.3 1.4c.4.4.9 1 1.5 1.6.6.6 1.4 1.2 2.1 1.9.4.4.8.7 1.2 1.1.2.1.4.3.5.4.3.2.6.5.9.7l1.5 1.2c.4.3.8.6 1.3.9.1.1.3.2.4.3.6.4 1.1.8 1.7 1.2l1.8 1.2c.6.4 1.2.8 1.9 1.2.7.4 1.3.8 2 1.2 1.3.8 2.7 1.5 4 2.3 1.3.7 2.7 1.4 4 2.1 1.3.6 2.6 1.3 3.9 1.9 1.2.6 2.4 1.1 3.6 1.6 1.1.5 2.2.9 3.1 1.3.8.3 1.4.6 2.1.8 0 0 0-.6 0 0 0 .2.1.2 0 0 0-.3 0-.6-.1-.9 0-.7-.1-1.3-.1-2v-.3c0-.1 0-.1-.1-.1zM69 82.4c-1.1-.3-2.2-.7-3.3-1.1-1.1-.4-2.2-.7-3.3-1.1-1.1-.4-2.1-.8-3.1-1.2-1-.4-1.9-.8-2.8-1.1-.9-.4-1.7-.8-2.5-1.1-.7-.4-1.4-.7-2-1-.6-.3-1.1-.6-1.5-.8-.8-.5-1.3-.7-1.3-.7s.4.3 1.2.8c.4.3.8.6 1.4.9.6.3 1.2.7 1.9 1.2.7.4 1.5.8 2.3 1.3.9.4 1.7.9 2.7 1.4 1 .5 1.9.9 2.9 1.4 1 .5 2 .9 3.1 1.4 1.1.4 2.1.9 3.2 1.3 1 .4 2.1.8 3.1 1.2.7.3 1.4.5 2 .8.5-.7 1-1.4 1.5-2-.7-.2-1.4-.4-2.2-.6-1.2-.3-2.2-.7-3.3-1z"/><path d="M59.9 111.4c-4.5-2.5-9.3-5.2-14.3-8.2-.7-.4-1.3-.8-2-1.2-2-1.2-4-2.5-5.9-3.8-2.4-1.6-4.7-3.2-7-4.9-2-1.5-3.9-3-5.7-4.7-.4-.4-.8-.7-1.2-1.1-2.1-2-4-4.2-4.8-6.5l-.2-.5-.1-.4-.1-.8v-.9-.4l.1-.4c.1-.3.1-.6.2-.9l.4-.9c.1-.1.1-.3.2-.4l.3-.4.5-.8c1.2-1.5 2.7-3 4.5-4.3.8-.6 1.6-1.1 2.4-1.7 2.4-1.6 5-2.9 7.8-4.2l1.2-.6c.6-.3 1.2-.6 1.8-.8 1-.4 2-.9 3-1.3 1.6-.7 3.3-1.3 4.9-1.9.4-.1.7-.3 1.1-.4-1.9.8-3.7 1.7-5.5 2.7-1.2.7-2.4 1.4-3.5 2.1-.9.6-1.7 1.2-2.5 1.8-.2.2-.4.3-.6.5-1.5 1.3-2.9 2.8-3.5 4.6-.2.5-.3 1-.4 1.5 0 .5-.1 1.1 0 1.5.1 1.1.5 1.9 1 2.8.8 1.4 1.8 2.6 2.9 3.7.3.3.7.6 1 .9.7.6 1.4 1.1 2.1 1.6.9.7 1.8 1.3 2.8 1.9 1.7 1.1 3.3 2 5 2.9 3.3 1.8 6.5 3.2 9.3 4.4 2.9 1.2 5.4 2.2 7.5 3 2.1.8 3.8 1.4 5 1.8.1 0 .2.1.3.1.3-1.2.7-2.4 1.1-3.5-1.1-.3-2.5-.8-4.1-1.4-1.9-.9-4.4-1.8-7.2-2.9-2.8-1.1-5.9-2.5-9.1-4.1-1.6-.8-3.2-1.7-4.8-2.6-1.6-1-3.1-2-4.6-3.2-.3-.3-.7-.6-1-.9-1-.9-1.9-1.9-2.5-2.9-.2-.3-.4-.7-.5-1l-.2-.5v-.1l-.1-.3c-.1-.5 0-.7-.1-1.1.1-.4.1-.7.3-1.1 0-.1.1-.2.1-.3.5-1.3 1.7-2.6 3.1-3.8h.1c1.5-1.3 3.4-2.5 5.4-3.7 4-2.3 8.5-4.3 13.2-6.1 4.7-1.8 9.5-3.5 14.3-5 4.8-1.5 9.7-2.9 14.4-4.2 6.8-1.9 13.4-3.5 19.4-5 1.2-.3 2.4-.6 3.5-.8 1.1-.3 2.1-.5 3.2-.7.5-.1.9-.2 1.4-.3 0-.1-.1-.2-.1-.3 0-.1-.1-.1-.1-.2l-1.5.3c-.3.1-.6.1-.9.2-.7.1-1.4.3-2.1.4-1.1.2-2.3.5-3.5.7-.7.1-1.3.3-2 .4-5.5 1.2-11.5 2.5-17.8 4.1-6.3 1.5-12.9 3.2-19.6 5.1-6.7 1.9-13.6 4-20.4 6.4-1.7.6-3.4 1.3-5.1 1.9-.6.3-1.2.5-1.8.8-1 .4-2.1.8-3.1 1.3-1.4.6-2.7 1.2-4 1.8-1.9.9-3.7 1.9-5.5 3-.2.1-.4.3-.7.4-2.7 1.7-5.2 3.6-7 5.9l-.7 1-.3.1c-.1.2-.2.3-.3.5l-.3.6-.2.4c-.1.3-.2.7-.3 1.1l-.1.5c0 .2 0 .4-.1.5l-.1 1.1c0 .4.1.8.1 1.1l.1.6.2.5.3 1c.1.2 0 .1.1.1v.1l.1.1.1.2.3.5c.3.7.8 1.3 1.2 1.9.9 1.2 1.9 2.3 3 3.4 1.2 1.2 2.6 2.4 3.9 3.5 1 .9 2.1 1.7 3.1 2.5 4.6 3.5 9.3 6.7 13.9 9.6.3.2.7.4 1 .6 3.8 2.4 7.6 4.7 11.2 6.8l3 1.8c5.3 3 10.1 5.7 14.2 7.9-.9-1.7-1.7-3.5-2.4-5.3-2.8-1.4-5.8-3.1-9.1-4.8z"/><path d="M113.2 41.2c-1.1.3-2.2.5-3.3.8-.5.1-.9.2-1.4.3-1.1.3-2.3.6-3.5.9-2.3.6-4.7 1.2-7.2 1.8-4.3 1.1-8.8 2.3-13.4 3.6-4.6 1.3-9.4 2.7-14.2 4.3l-3.6 1.2c-1.2.4-2.4.8-3.5 1.3-2.4.9-4.7 1.9-6.9 3-.6.3-1.1.6-1.6.9-.5.3-1 .6-1.6 1-1 .7-2 1.4-2.7 2.4-.2.2-.3.5-.5.8-.1.1-.1.3-.2.4l-.1.4c0 .1-.1.3-.1.4v.3c0 .3.1.6.2.9.4 1.2 1.5 2.1 2.6 2.7 1.1.7 2.3 1.2 3.5 1.7 1.2.5 2.4.9 3.6 1.2 2.4.7 4.9 1.3 7.3 1.9 4.8 1.1 9.5 2 13.9 2.8l1.8.3c1.2-.8 2.5-1.6 3.8-2.2-1.5-.3-3.1-.5-4.7-.8-4.4-.7-9.1-1.5-13.8-2.5-2.4-.5-4.7-1-7-1.7-1.1-.3-2.3-.7-3.4-1.1-1.1-.4-2.1-.8-3-1.4-.9-.5-1.5-1.1-1.8-1.7-.3-.6-.1-1.3.4-1.9.5-.7 1.3-1.3 2.1-2 .4-.3.9-.6 1.4-.9.5-.3 1-.6 1.5-.8 2-1.1 4.2-2.1 6.5-3 1.1-.5 2.3-.9 3.4-1.4 1.2-.4 2.3-.9 3.5-1.3 4.6-1.6 9.3-3.1 13.9-4.5s9-2.7 13.2-3.8c2.3-.7 4.6-1.3 6.8-1.9 1.2-.3 2.4-.6 3.5-.9.6-.1 1.1-.3 1.7-.4 1.1-.3 2.2-.6 3.2-.8-.2 0-.3-.1-.3-.3z"/></g><path fill="#132118" d="M73.6 124.9c2.6 3.6 5.9 6.7 9.7 9.1l.1-.1c-3.8-2.3-7.1-5.4-9.8-9zM71.4 121.6c.1.2.2.3.3.5 0-.2-.1-.3-.3-.5.1 0 .1 0 0 0zM71.4 121.6c.1 0 .1 0 0 0-.9-1.7-1.7-3.4-2.4-5.3.7 1.8 1.5 3.6 2.4 5.3zM68.8 101.1v-.1.1zM68.4 102.6s-.1 0 0 0c-.1 0 0 0 0 0z"/><g fill="#F1CE86"><path d="M105 71.1V43.9c-2.2.6-4.5 1.2-6.8 1.9C94 47 89.5 48.3 85 49.6c-4.6 1.4-9.2 2.9-13.9 4.5-1.2.4-2.3.8-3.5 1.3-1.1.4-2.3.9-3.4 1.4-2.3.9-4.4 1.9-6.5 3-.5.3-1 .6-1.5.8-.5.3-.9.6-1.4.9-.8.6-1.6 1.3-2.1 2s-.6 1.3-.4 1.9c.2.6.9 1.2 1.8 1.7s1.9 1 3 1.4c1.1.4 2.2.7 3.4 1.1 2.3.6 4.7 1.2 7 1.7 4.7 1 9.4 1.7 13.8 2.5 1.6.3 3.1.5 4.7.8 4.6-2.3 9.7-3.6 15.2-3.6 1.3-.1 2.5-.1 3.8.1z"/><path d="M43.8 82.3c1.6 1 3.2 1.8 4.8 2.6 3.2 1.6 6.3 2.9 9.1 4.1 2.8 1.1 5.3 2 7.4 2.8 1.7.6 3.1 1 4.1 1.4.9-2.5 2.2-4.9 3.7-7.1-.7-.2-1.3-.5-2-.8-1-.4-2.1-.8-3.1-1.2-1.1-.4-2.1-.9-3.2-1.3-1-.4-2.1-.9-3.1-1.4-1-.5-2-.9-2.9-1.4-.9-.5-1.8-.9-2.7-1.4-.8-.5-1.6-.9-2.3-1.3-.7-.4-1.3-.8-1.9-1.2-.6-.3-1-.7-1.4-.9-.7-.5-1.2-.8-1.2-.8s.5.3 1.3.7c.4.2.9.5 1.5.8.6.3 1.3.6 2 1 .8.3 1.6.7 2.5 1.1.9.4 1.9.8 2.8 1.1 1 .4 2 .8 3.1 1.2 1.1.4 2.2.8 3.3 1.1 1.1.4 2.2.7 3.3 1.1 1.1.3 2.2.7 3.2 1 .7.2 1.5.4 2.2.6 2.2-2.8 4.9-5.3 7.9-7.3l-1.8-.3c-4.4-.8-9.1-1.7-13.9-2.8-2.4-.5-4.8-1.2-7.3-1.9l-3.6-1.2c-1.2-.5-2.4-1-3.5-1.7s-2.1-1.6-2.6-2.7c-.1-.3-.2-.6-.2-.9v-.4c0-.1.1-.3.1-.4l.1-.4c0-.1.1-.3.2-.4.1-.3.3-.5.5-.8.7-1 1.7-1.7 2.7-2.4.5-.3 1-.7 1.6-1 .5-.3 1.1-.6 1.6-.9 2.2-1.1 4.5-2.1 6.9-3 1.2-.5 2.4-.9 3.5-1.3l3.6-1.2c4.8-1.6 9.5-3 14.2-4.3 4.6-1.3 9.2-2.5 13.4-3.6 2.5-.6 4.9-1.2 7.2-1.8V43c-6 1.5-12.6 3.1-19.4 5-4.7 1.3-9.5 2.7-14.4 4.2-4.8 1.5-9.7 3.2-14.3 5-4.7 1.8-9.2 3.8-13.2 6.1-2 1.1-3.9 2.4-5.4 3.7h-.1v11.4c.3.3.7.6 1 .9 1.5 1 3.1 2 4.7 3zM45.1 58c6.8-2.4 13.7-4.5 20.4-6.4 6.7-1.9 13.3-3.6 19.6-5.1 6.3-1.5 12.3-2.8 17.8-4.1.7-.1 1.3-.3 2-.4v-.1c0-.7-.6-1.4-1.3-1.4-26.3 0-30.8-10.3-30.8-10.4-.2-.5-.7-.8-1.2-.9-.5 0-1 .3-1.2.8 0 .1-4.6 10.4-30.8 10.4-.7 0-1.3.6-1.3 1.4v18.7c.6-.2 1.2-.5 1.8-.8 1.6-.5 3.3-1.1 5-1.7zM42 93.5c.6.4 1.3.7 1.9 1.1.7.4 1.3.7 2 1.1.7.3 1.4.7 2.1 1.1 1.4.7 2.8 1.4 4.2 2 1.4.7 2.8 1.2 4.1 1.8 1.4.6 2.7 1.1 4 1.6 1.3.5 2.5.9 3.6 1.3s2.2.7 3.1 1.1h.1c0-2.7.4-5.4 1-8-.1 0-.2-.1-.3-.1-1.2-.4-2.9-1-5-1.8s-4.7-1.8-7.5-3c-2.9-1.2-6-2.7-9.3-4.4-1.7-.9-3.3-1.8-5-2.9-.9-.6-1.9-1.2-2.8-1.9v5.6c0 1.1.1 2.2.3 3.2.5.4 1.1.7 1.7 1.1.6.3 1.2.7 1.8 1.1z"/></g><g fill="#104222"><path d="M129 100l-8.8-7.4-.8-.6c-1.7 1.7-6.5 4.1-8.6 4.5l-.7 12.6c.7.4 1.9 1.3 3.1 2.3.5.5 1.1.9 1.6 1.4 1.6 1.4 3 2.9 3.7 3.8l9.6-3.8c-.2-2.2.2-8.8.7-11.7 0-.5.1-.9.2-1.1zM80 123.2l-.7-3.3-1.6-7.3c-1.3-1.4-4.7-6.5-5.2-8.7l-2.4.4v1.5c0 6 1.7 11.7 4.6 16.6.6.9 1.2 1.9 1.8 2.7.1.1.2.3.3.5l.9-.2 2.6-.6-.1-.7-.2-.9zM116.5 81.2c1.3 2 3.5 8.4 3.5 9.7v.1l.2.1 9.4 7.9c.7-.7 1.8-1.6 2.7-2.4l.1-.1c.5-.4 1-.8 1.4-1-2.4-7.3-7.3-13.4-13.6-17.4-.4-.3-.9-.6-1.3-.9l.4.3-2.8 3.7zM99 89.3c0-.1-.1-.2-.1-.2-.4-1.5 1.6-6.7 2.5-8.9 0-.1.1-.2.1-.3l-8.6-3.2-3.3 1.9-7.1 4.1-1.1 3.6L81 88l-.2.6-1.1 3.7c1.7.1 6.2 1.9 7.7 3.1L99 89.3zM102.8 73.1c-3.3 0-6.5.5-9.5 1.4v1.1l2.4.9 6.5 2.4c.8-.2 2.5-.1 4.3 0 .7.1 1.5.2 2.3.3.4.1.8.1 1.2.2 2.5.4 4.8.8 5.7 1.1l2.6-3.5c-2.6-1.4-5.4-2.5-8.3-3.1-1.1-.3-2.3-.5-3.5-.6-1.2-.1-2.5-.2-3.7-.2zM92.5 111.1l2.8 1.9 2.9 1.9c1.5-1.6 8.6-5.8 10.9-6.1l.7-12.4c-.3-.1-.7-.2-1.1-.4-.9-.4-2-.9-3.1-1.6-2.3-1.3-4.7-3.1-5.9-4.4L88 96.3c.5 2.1 0 9.4-.6 11.4l5.1 3.4zM80.2 82.2c-1 .9-1.8 1.9-2.7 2.9-.6.7-1.1 1.4-1.6 2.1-1.5 2.2-2.7 4.5-3.7 7-.4 1.2-.8 2.4-1.1 3.6 0 .2-.1.4-.1.5-.1.5-.2 1-.3 1.4l-.3 1.8c-.1.5-.1.9-.1 1.4l2.3-.4c.7-2 3.8-8 5.9-9.9l.9-3.2.2-.8.1-.3.8-2.7 1-3.3-1.3-.1zM128.4 113.8l-9.7 3.8c-.2 2.1-3.9 9.7-5.6 11.4l1.8 4 1.1 2.6c7.6-3.4 13.7-9.7 16.9-17.5-.4-.4-1.1-.9-1.8-1.6l-2.7-2.7zM112.1 129.3c-2.2 0-9.2-.6-11.3-1.6l-10 6.3v2c3.7 1.5 7.8 2.3 12 2.3 4.4 0 8.5-.9 12.3-2.4l-1.2-2.6-1.8-4zM99.4 124.9c-.4-1.3-.8-3-1.1-4.7-.4-1.7-.6-3.4-.5-4.4l-3.3-2.2-2.8-1.9-4.8-3.2c-1.5 1.3-6.1 3.8-8 4.3l1.4 6.5.7 3.3.3 1.2.3 1.2 7.8 6.9 1.1 1 9.7-6.1c-.3-.3-.5-1-.8-1.9z"/></g></svg>