<svg xmlns:xlink="http://www.w3.org/1999/xlink"  xmlns="http://www.w3.org/2000/svg" viewBox="0 0 150 150"><path fill="#283C27" d="M105.9 25.2c-2.3-.7-4.7-1.3-7.2-1.7-11.7-1.9-23.1.1-33 5l-28.9 4 21.1.8c-4 2.9-7.6 6.4-10.8 10.4L23 45l22.9.5c-1.5 1.9-2.9 3.9-4.1 6l-7 .3 6.6.3c-.8 1.4-1.5 3-2.1 4.5l-13.1 1.8 12.1-.4c-1 2.5-1.7 5-2.4 7.6L4.3 70.1l30.6-.4c-.1.7-.4 1.3-.5 2-.5 3-.6 6-.6 8.9l-19 2.6 19-.2c.1 3.6.5 7.2 1.3 10.6l-25 2.9 25.7-.3c.9 3.4 2.1 6.7 3.6 9.9L18.6 109l22.7.8c3 5.3 6.6 10.1 11 14.2 1.3-3 3-6.6 5.4-10.7C48.1 103 43 88.5 45.5 73.5c5.4-32.8 37.2-50.4 60.4-48.3z"/><path fill="#00A551" d="M98.5 31.6c-26.5 0-48 21.5-48 48s21.5 48 48 48 48-21.5 48-48-21.5-48-48-48zm38.3 21.3c-1.5-.4-3-.6-4.8-.7-5.4-4.6-11.4-8.4-17.7-11.4-1.8-2.7-4.2-5.3-7.5-7.1 12.3 2.2 23.1 9.3 30 19.2zm-22.9-11.2c6.2 2.9 12 6.6 17.3 11.1 1 3 3.1 12.6 3 19.2-5 3.2-9.8 6.6-14.9 9.7-6.1-3.9-11.1-7.4-18-10.9-.9-7.3-2.3-14.7-3.7-22 5.5-3.3 12.2-5.9 16.3-7.1zm-13.5 29.1c-6.8 5-12.6 9.9-17.9 15.2-6.5-2.6-13.1-5.2-19.5-8.2-1.1-6.3-.3-15.6.3-18.9 4.2-5.3 9.5-10.3 16.4-14.8 6.4 1.3 10.2 2.5 17 4.6 1.5 7.4 2.9 14.8 3.7 22.1zm-15-36c-2 2.3-4.5 5.6-5.8 8.3-7 4.6-12.5 9.6-16.9 15.2-2.6.5-4.7 1.2-6.8 2.3 5.5-12.4 16.3-21.9 29.5-25.8zM53.1 90.4c.6.3 1.1.7 1.7 1 .9 3.7 1.9 7.4 3.1 11-2.2-3.7-3.8-7.7-4.8-12zm11.5 21.2c-5.7-6-7.9-15.3-8.9-20.4 2-4.7 3.2-7 7.2-12.5 6.4 3.2 13 5.6 19.5 8.3 2.2 7.3 5.6 13.7 8.7 20.1-3 4.2-6.4 8.1-9.9 11.5-5-1.1-12.2-4.4-16.6-7zm53.7 10.2c-6 2.8-12.7 4.4-19.8 4.4-2.1 0-4.1-.1-6.1-.4-3.6-2-7.3-4.4-10.4-6.9 3.1-3 6.6-7 9.8-11.3 7.5-.1 16.7-2.5 22.5-3.6 3.1 3.6 6.9 6.7 10.9 9.7-2 2.7-4.4 5.5-6.9 8.1zm7.6-8.6c-3.8-2.9-7.6-6.1-10.9-9.7 1.5-5.8 3.7-13.4 4.6-20.8 5-2.9 10-6.4 15-9.7 3.9 3.5 5.9 5.6 8.4 9.5.3 5.2-.9 11.3-2.2 16.7-2.8 6-9.5 11.9-14.9 14zm18-30.7c.4-2.2.9-3.9 1-6.4.1 1.1.1 2.4.1 3.5 0 5.5-1 10.8-2.7 15.7 1-4.1 1.6-8.4 1.6-12.8z"/></svg>