<svg xmlns:xlink="http://www.w3.org/1999/xlink"  xmlns="http://www.w3.org/2000/svg" viewBox="0 0 150 150"><path fill="#29A9E1" d="M144.3 95.9V42.5c0-13.7-6.1-24.9-13.6-24.9H21.8c-4.3 0-8.1 3.6-10.5 9.3C1.7 56.3 37.8 102 81 123.4c13 6.3 51 23.2 60.5.7 4.5-17.5-16.3-43.9-35.9-62.5-7.8 7.7-20.3 7.8-28.3.2-8.1-7.9-8.3-20.7-.6-28.8 4-4.2 9.3-6.2 14.7-6.2h.5c9 0 16.5 6 18.9 14.2.3.8.5 1.6.6 2.5h-.1c.1.9.2 1.8.2 2.8.1 0 .1-.1.2-.1.2 4.3-1 8.7-3.6 12.4 13.4 10.7 26.6 23.7 36.2 37.3z"/><path fill="#95C83D" d="M7.9 80.7v13.5c5.9 9.9 22.8 32.4 35.3 41.7h16c-20.9-12.2-41.4-35.4-51.3-55.2zM8.2 111.1c0 13.7 6.1 24.9 13.6 24.9h10.8c-9.1-10.2-17.4-20.3-24.5-30.5v5.6zM111.7 46.2c-.1 0-.1.1-.2.1-1.8 1.1-3.5 2.3-5 3.8-.9.9-1.6 1.8-2.4 2.8-.4.5-.8 1-1.3 1.6-.4.5-.8.9-1.2 1.4l-1 1c-2.4 2-5.3 3.1-8.5 3.2h-.3c-1.8 0-3.6-.4-5.2-1-.3-.1-.7-.3-1-.5-1.1-.6-2.2-1.4-3.2-2.3-2.6-2.5-4.1-5.9-4.2-9.5-.1-2.8.8-5.6 2.3-7.9.1-.1.1-.2.2-.3l1.2-1.5c.9-1 1.9-1.8 2.9-2.6s1.9-1.6 2.7-2.5c1.5-1.5 2.7-3.3 3.7-5.2v-.1c-5.4 0-10.7 2.1-14.7 6.2-7.8 8.1-7.5 20.9.6 28.7 7.9 7.6 20.5 7.5 28.3-.2l.4-.4c.8-.8 1.4-1.7 2.1-2.6 2.7-3.5 4-7.9 3.8-12.2z"/><path fill="#95C83D" d="M86.6 36.5c-1 .8-1.9 1.6-2.7 2.5-.3.3-.6.7-.9 1.1-.2.3-.4.5-.5.8-1.1 1.8-1.7 3.8-1.6 5.9.1 2.9 1.3 5.7 3.4 7.7.7.7 1.5 1.3 2.4 1.7.6.3 1.2.6 1.8.8 1.2.4 2.4.6 3.7.6 2.4 0 4.7-.9 6.6-2.4.4-.3.8-.6 1.1-1 .4-.4.7-.8 1-1.2.4-.5.9-1.1 1.3-1.6.8-1 1.6-2.1 2.6-3 1.9-2 4.1-3.6 6.6-4.8-.1-.8-.3-1.7-.6-2.5-1-3.2-2.7-6.1-5.3-8.6-3.2-3.1-7.2-4.9-11.3-5.5-1.2 2.5-2.7 4.8-4.6 6.8l-3 2.7z"/></svg>