<svg xmlns:xlink="http://www.w3.org/1999/xlink"  xmlns="http://www.w3.org/2000/svg" viewBox="0 0 150 150"><g fill="#B21F24"><path d="M56.1 69.2c-1.1-1.4-2.4-2.9-3.5-4.4-1.1-1.5-2.3-3.1-3.4-4.7-.6-.8-1.1-1.6-1.7-2.4-.5-.8-1-1.6-1.6-2.4l-1.5-2.4c-.5-.8-.9-1.6-1.4-2.4-.4-.8-.9-1.6-1.3-2.3-.4-.8-.8-1.6-1.1-2.3-.4-.8-.7-1.5-1.1-2.2-.4-.7-.6-1.4-.9-2.1-.6-1.4-1.1-2.6-1.6-3.7-.4-1.1-.7-2.1-1-2.9-.6-1.6-.9-2.5-.9-2.5s.3.9.7 2.6c.2.8.5 1.8.8 3 .4 1.1.8 2.4 1.3 3.8.2.7.5 1.4.8 2.2.3.7.6 1.5.9 2.3.3.8.6 1.6 1 2.4.4.8.8 1.6 1.1 2.5.4.8.8 1.7 1.2 2.6.4.8.9 1.7 1.3 2.6.5.9.9 1.7 1.4 2.6.5.9 1 1.7 1.5 2.6 1 1.7 2.1 3.4 3.1 5s2.2 3.2 3.2 4.8c1.1 1.5 2.1 3 3.2 4.3 1 1.4 2 2.6 3 3.8l.3.3c.7-1.3 1.4-2.6 2.2-3.9-.8-.8-1.6-1.7-2.5-2.7-1.2-1.4-2.3-2.8-3.5-4.1zM71.8 40.8c.9 1.1 1.7 2.2 2.6 3.3.9 1.1 1.8 2.2 2.7 3.2.9 1 1.8 2.1 2.7 3.1 1.8 2 3.5 3.7 4.9 5.3l.2.2c1.3-.8 2.7-1.5 4.1-2.2-.4-.4-.9-.7-1.4-1.1-1.6-1.3-3.4-2.9-5.4-4.6l-3-2.7c-1-.9-2-1.9-3-2.8l-2.9-2.9c-.9-1-1.8-2-2.7-2.9-.9-1-1.7-1.9-2.5-2.8-.7-.9-1.4-1.8-2.1-2.6-.6-.8-1.2-1.6-1.7-2.3-.5-.7-.9-1.3-1.2-1.8-.6-1-1-1.6-1-1.6s.3.6.8 1.7c.3.5.6 1.2 1 2 .4.7.9 1.6 1.4 2.5.6.9 1.2 1.9 1.8 2.9.7 1 1.4 2 2.1 3.1 1 .8 1.8 1.9 2.6 3zM100.1 72.4l-7.2 14.1 13.3-9.3 11 12.8-3.5-15.7 12.1-.2-12.6-5.2-3.4-9-6.9 7.1-14.7.7zM136.9 99.9s-8 8.2-10.2 7.6l-7.5-13.6.7 16s-9.3 6.1-17.3 2.8c0 0 9.6 5.6 14.8 5.3 0 0-.1 6.1-5 10.5 0 0 7.9-4.3 10.5-7.8l9-.1-2.5-8.1c.2-.1 6.7-7.4 7.5-12.6zM84 105.1s3.4-12.5 6.1-15.6c0 0-10.8 9-11.6 10.4 0 0-6.7-5.2-6.9-10.7 0 0 .1 11 2.1 14.5l-5.6 6.1 6.8 1.6s5.9 8.1 8.7 9.9c0 0-1.4-8.4-.2-9.5 0 0 11.8 1.4 15.9.5.1.2-13.4-3.6-15.3-7.2z"/></g><g fill="#1F2E5E"><path d="M69.3 66.6c1.2-1.2 2.6-2.4 3.9-3.5l-.8-.8c-1.2-1.3-2.6-2.7-3.9-4.2-1.4-1.5-2.8-3.2-4.2-4.8-1.4-1.7-2.9-3.5-4.3-5.4-1.4-1.9-2.9-3.8-4.2-5.7-.7-1-1.4-2-2-2.9-.7-1-1.3-2-1.9-3-.6-1-1.2-2-1.9-3-.6-1-1.1-2-1.7-3-.5-1-1.1-1.9-1.6-2.9s-1-1.9-1.4-2.8c-.5-.9-.9-1.8-1.3-2.7-.4-.9-.8-1.7-1.1-2.6-.7-1.7-1.4-3.2-1.9-4.5-.5-1.4-.9-2.6-1.3-3.6-.7-2-1.1-3.1-1.1-3.1s.3 1.2.9 3.2c.3 1 .6 2.3 1 3.7.5 1.4 1 3 1.6 4.7l.9 2.7c.4.9.7 1.8 1.1 2.8l1.2 3c.4 1 .9 2 1.4 3 .5 1 1 2.1 1.5 3.1s1.1 2.1 1.6 3.1c.6 1.1 1.1 2.1 1.7 3.2.6 1 1.2 2.1 1.8 3.1 1.2 2.1 2.5 4.1 3.8 6.2 1.3 2 2.7 3.9 3.9 5.8 1.4 1.8 2.6 3.6 3.9 5.3 1.3 1.7 2.5 3.2 3.7 4.6.2.4.5.7.7 1zM54.6 95.5c-1.7-1.7-3.4-3.6-5.3-5.6-1.9-2-3.7-4.2-5.7-6.5-1.9-2.3-3.9-4.7-5.7-7.2-1.9-2.5-3.9-5-5.6-7.7l-2.7-3.9c-.9-1.3-1.7-2.7-2.5-4-.8-1.3-1.7-2.7-2.5-4-.8-1.3-1.5-2.7-2.3-4-.7-1.3-1.5-2.6-2.2-3.8-.6-1.3-1.3-2.6-1.9-3.8l-1.8-3.6c-.6-1.2-1-2.3-1.5-3.4-.9-2.2-1.8-4.2-2.6-6-.7-1.8-1.2-3.5-1.7-4.8-.9-2.7-1.5-4.2-1.5-4.2s.4 1.6 1.1 4.3c.4 1.4.8 3 1.3 4.9.6 1.9 1.3 4 2.1 6.3.4 1.1.8 2.4 1.3 3.6.5 1.2 1 2.5 1.5 3.8.5 1.3 1.1 2.6 1.6 4 .6 1.3 1.2 2.7 1.9 4.1.6 1.4 1.3 2.8 2 4.2.7 1.4 1.5 2.8 2.2 4.2.7 1.4 1.5 2.9 2.3 4.3l2.4 4.2c1.6 2.8 3.4 5.6 5.1 8.3 1.7 2.7 3.6 5.3 5.3 7.8 1.8 2.5 3.5 4.9 5.3 7.1 1.7 2.2 3.4 4.3 4.9 6.2 1.5 1.9 3 3.6 4.3 5.1.2.2.3.3.4.5.1-.2.1-.4.2-.6 0-.9-.1-1.8-.1-2.7 0-2.3.2-4.6.5-6.8.1-.1 0-.2-.1-.3zM137.8 75.8l-6.4-.1 7.6 6 .3 13.1 3.9-3.9c0-.2-1.7-10.1-5.4-15.1zM94.7 134.3c-4.7-1.3-8.9-8-8.9-8l2.1 7.8c3.1 2.6 15.4 3.1 15.4 3.1l3-3.8c-5 3-11.6.9-11.6.9zM79 66.9l2.7-4.1s-10.9 5.9-16 19.5l3.5-2.6 2.3 6.7 1.6-12.3s4-4.8 9.2-6.6l-3.3-.6zM88.8 64.8c1 0 2.1-.1 3.2-.1s2.2-.1 3.2-.1c1-.1 2-.1 2.8-.1.8-.1 1.5-.1 2-.1s.8-.1.8-.1-.3 0-.8-.1c-.5 0-1.2-.1-2-.1-.8-.1-1.8-.1-2.8-.1h-3.3c-1.1 0-2.2.1-3.2.2s-2 .2-2.8.3c-.4.1-.8.2-1.1.2-.3.1-.6.1-.9.2-.5.1-.7.2-.7.2h.8c.5 0 1.2-.1 2-.1.8-.1 1.7-.1 2.8-.2zM117.6 67.4c.3.1.7.2 1.1.3.4.1.8.2 1.2.4.4.1.9.3 1.4.4.9.3 2 .7 3 1.1 1 .4 2 .8 2.9 1.2.9.4 1.8.8 2.5 1.1 1.5.6 2.5 1.1 2.5 1.1s-.2-.2-.6-.4c-.4-.3-1-.6-1.7-1s-1.5-.8-2.5-1.3c-.9-.5-1.9-.9-2.9-1.3l-1.5-.6c-.5-.2-1-.3-1.5-.5-.5-.1-1-.3-1.4-.4-.5-.1-.9-.2-1.3-.2-.8-.1-1.5-.2-2-.2h-.7s.3.1.7.1c.2.1.4.1.8.2zM131.6 101.3c-.3.3-.6.5-.9.8-.3.2-.6.5-.9.7-.3.2-.6.4-1 .6l-.5.2h-.2c-.3-1-.6-1.9-1-2.8-.4-1-.9-2-1.4-3-.5-1-1.1-1.9-1.8-2.8-.2-.2-.3-.4-.5-.7-.2-.2-.4-.4-.5-.6l-.6-.6-.6-.6.5.6c.2.2.3.4.5.7s.3.4.5.7l.4.7c.6.9 1.1 1.9 1.5 2.9.5 1 .9 2 1.3 3s.8 2 1.1 3.1l.1.3.3-.1c.2 0 .4-.1.7-.1l.6-.2c.4-.2.7-.4 1.1-.7.3-.2.6-.5.9-.8.3-.3.6-.6.9-.8.5-.6 1.1-1.2 1.5-1.8.5-.6.9-1.3 1.3-2-.5.6-1 1.2-1.6 1.8-.6.4-1.1 1-1.7 1.5zM113.2 109.2c1.2-.2 2.4-.6 3.6-1l.2-.1v-.2l-.5-6.1c-.2-2-.3-4.1-.5-6.1.1 2.1.1 4.1.2 6.1l.3 5.9c-.5.2-1 .3-1.6.4-.6.2-1.2.3-1.8.4l-1.8.3c-.6.1-1.2.1-1.8.2-.6 0-1.2.1-1.8.1h-1.8l-1.8-.2c-.6 0-1.2-.2-1.8-.3l-.9-.1-.9-.2c-.6-.2-1.2-.3-1.8-.5l-1.7-.6c-.6-.2-1.1-.5-1.7-.7-.5-.3-1.1-.5-1.6-.8l-1.6-.9c-.5-.3-1-.7-1.5-1l-1.4-.9 1.6-5.9c.5-2 1.1-4 1.6-6.1-.7 2-1.3 4-1.9 6l-1.9 6-.1.2.1.1 1.5 1.1c.5.4 1 .8 1.5 1.1l1.6.9c.5.3 1.1.5 1.7.8.6.2 1.1.6 1.7.7l1.8.6c.6.2 1.2.3 1.8.5l.9.2.9.2 1.8.3 1.9.1h1.9c.6 0 1.2-.1 1.9-.1.6 0 1.2-.1 1.8-.2.7 0 1.3-.1 1.9-.2zM126.1 126.1c-.8.6-1.7 1.2-2.7 1.9-.5.3-1 .7-1.6 1-.5.3-1.1.6-1.7 1-.6.3-1.1.6-1.7.9-.6.3-1.1.5-1.7.8-.5.3-1.1.5-1.6.7-.5.2-1 .4-1.4.6-.5.2-.9.3-1.2.5-.4.1-.7.2-1 .3-.5.2-.8.3-.8.3s.3-.1.9-.2c.3-.1.6-.1 1-.2s.8-.2 1.3-.3c.5-.1 1-.3 1.5-.5s1.1-.4 1.7-.6c.6-.3 1.2-.5 1.7-.8.6-.3 1.2-.6 1.7-.9s1.1-.6 1.7-1c.5-.3 1.1-.7 1.6-1.1.5-.3 1-.7 1.4-1.1.4-.4.8-.7 1.2-1 .7-.6 1.3-1.3 1.7-1.7.4-.4.6-.7.6-.7s-.2.2-.7.6c-.5.4-1.1 1-1.9 1.5zM86.1 121.7c.2.3.3.6.5.8.1.2.2.3.2.3s0-.1-.1-.3c-.1-.2-.1-.5-.2-.9 0-.2-.1-.4-.1-.6 0-.2 0-.4-.1-.6 0-.2 0-.5-.1-.7v-.7c-.1-1 0-1.9 0-2.7v-1.2s-.2.5-.4 1.2c-.1.4-.2.8-.2 1.3-.1.5-.1 1-.1 1.5s.1 1 .2 1.5c.1.2.1.5.2.7.1.1.2.3.2.4zM81.2 93.5c-.6.6-1.2 1.2-1.9 1.8l-1.5-1.2c-.3-.2-.5-.5-.8-.8l-.8-.8c-.2-.3-.5-.6-.7-.9l-.6-.9c-.1-.2-.2-.3-.2-.5-.1-.2-.2-.3-.2-.5s-.1-.4-.1-.5l-.1-.6-.1.6v.6c0 .2.1.4.1.6 0 .2.1.4.2.6.1.4.3.7.5 1 .1.2.2.3.3.5.1.2.2.3.3.5.5.6 1 1.2 1.6 1.7.6.5 1.2 1 1.8 1.4l.2.2.2-.2c.7-.7 1.3-1.4 1.9-2.1.3-.4.6-.7.9-1.1.3-.4.6-.7.9-1.1-.4.3-.7.6-1.1.9-.1.2-.5.5-.8.8zM69.1 105.5c-.5.5-.9 1-1.2 1.4-.3.4-.4.7-.4.7s.3-.2.7-.4c.4-.3.9-.7 1.4-1.2.5-.5.9-1 1.2-1.4.3-.4.4-.7.4-.7s-.3.2-.7.4c-.4.3-.9.8-1.4 1.2z"/></g></svg>