<svg xmlns:xlink="http://www.w3.org/1999/xlink"  xmlns="http://www.w3.org/2000/svg" viewBox="0 0 150 150"><path fill="#434742" d="M74.6 10.5C38.9 10.5 10 39.4 9.9 75.1c0 35.7 28.9 64.6 64.7 64.6 35.7 0 64.6-28.9 64.6-64.6 0-35.6-29-64.6-64.6-64.6zm61.5 65.9l-2-1.5-2 1.5.8-2.4-2-1.5h2.5l.8-2.4.8 2.4h2.5l-2 1.5.6 2.4zm.5-13.3l-2 1.5.8 2.4-2-1.5-2 1.5.8-2.4-2-1.5h2.5l.8-2.4.8 2.4h2.3zm-5.1-9.5h2.5l-2 1.5.8 2.4-2-1.5-2 1.5.8-2.4-2-1.5h2.5l.8-2.4.6 2.4zM129 75.2c0 30.1-24.4 54.4-54.5 54.5-30.1-.1-54.5-24.4-54.5-54.5s24.4-54.4 54.5-54.5c30.1 0 54.5 24.4 54.5 54.5zm-1.7-32.1l.8 2.4h2.5l-2 1.5.8 2.4-2-1.5-2 1.5.6-2.4-2-1.5h2.5l.8-2.4zm-5.6-5.1l.8-2.4.8 2.4h2.5l-2 1.5.8 2.4-2-1.5-2 1.5.8-2.4-2-1.5h2.3zm-6.3-6.6l.8-2.4.8 2.4h2.5l-2 1.5.8 2.4-2-1.5-2 1.5.8-2.4-2-1.5h2.3zm-6.9-5.9l.8-2.4.8 2.4h2.5l-2 1.5.8 2.4-2-1.5-2 1.5.8-2.4-2-1.5h2.3zm-7.4-4.7l.8-2.4.8 2.4h2.5l-2 1.5.8 2.4-2-1.5-2 1.5.8-2.4-2-1.5h2.3zm-8.5-3.3l.8-2.4.8 2.4h2.5l-2 1.5.8 2.4-2-1.5-2 1.5.8-2.4-2.3-1.5h2.6zm-9.4-1.9l.8-2.4.8 2.4h2.5l-2 1.5.8 2.4L84 18l-2 1.5.8-2.4-2-1.5h2.4zm-9.1-1.1l.8-2.4.8 2.4h2.5l-2 1.5.8 2.4-2-1.5-2 1.5.8-2.4-2-1.5h2.3zm-9.7 1.1l.8-2.4.8 2.4h2.5l-2 1.5.8 2.4-2-1.5-2 1.5.8-2.4-2-1.5h2.3zM55 17.5l.8-2.4.8 2.4h2.5l-2 1.5.8 2.4-2-1.5-2 1.5.8-2.4-2-1.5H55zm-8.5 3.3l.8-2.4.8 2.4h2.5l-2.1 1.5.8 2.4-2-1.5-2 1.5.8-2.4-2-1.5h2.4zm-7.4 4.7l.8-2.4.8 2.4h2.5l-2 1.5.8 2.4-2-1.5-2 1.5.8-2.4-2-1.5h2.3zm-6.9 5.9L33 29l.8 2.4h2.5l-2 1.5.8 2.4-2-1.5-2 1.5.8-2.4-2-1.5h2.3zM25.9 38l.8-2.4.8 2.4H30l-2 1.5.8 2.4-2-1.5-2 1.5.8-2.4-2-1.5h2.3zm-4.8 7.5l.8-2.4.8 2.4h2.5l-2 1.5.8 2.4-2-1.5-2 1.5.8-2.4-2-1.5h2.3zm-3.4 8.1l.8-2.4.8 2.4h2.5l-2 1.5.8 2.4-2-1.5-2 1.5.8-2.4-2-1.5h2.3zm-2.6 9.5l.8-2.4.8 2.4h2.5l-2 1.5.8 2.4-2-1.5-2 1.5.8-2.4-2-1.5h2.3zm-.8 9.4l.8-2.4.8 2.4h2.5l-2 1.5.8 2.4-2-1.5-2 1.5.8-2.4-2-1.5h2.3zm-1.7 11h2.5l.8-2.4.8 2.4h2.5l-2 1.5.8 2.4-2-1.5-2 1.5.8-2.4-2.2-1.5zM15.8 97l.8-2.4-2-1.5h2.5l.8-2.4.8 2.4h2.5l-2 1.5.8 2.4-2-1.5-2.2 1.5zm4 8.5l.8-2.4-2-1.5h2.5l.8-2.4.8 2.4h2.5l-2 1.5.8 2.4-2-1.5-2.2 1.5zm8.9 7.9l-2-1.5-2 1.5.8-2.4-2-1.5H26l.8-2.4.8 2.4H30l-2 1.5.7 2.4zm6.3 7.1l-2-1.5-2 1.5.8-2.4-2-1.5h2.5l.8-2.4.8 2.4h2.5l-2 1.5.6 2.4zm6.9 5.8l-2-1.5-2 1.5.8-2.4-2-1.5h2.5l.8-2.4.8 2.4h2.5l-2 1.5.6 2.4zm7.4 4.7l-2-1.5-2 1.5.8-2.4-2-1.5h2.5l.8-2.4.8 2.4h2.5l-2.1 1.5.7 2.4zm8.6 3.5l-2-1.5-2 1.5.8-2.4-2-1.5H55l.8-2.4.8 2.4h2.5l-2 1.5.8 2.4zm9.3 2.4l-2-1.5-2 1.5.8-2.4-2-1.5h2.5l.8-2.4.8 2.4h2.5l-2 1.5.6 2.4zm9.3.6l-2-1.5-2 1.5.8-2.4-2-1.5h2.5l.8-2.4.8 2.4h2.5l-2 1.5.6 2.4zm9.4-.6l-2-1.5-2 1.5.8-2.4-2-1.5H83l.8-2.4.8 2.4h2.5l-2 1.5.8 2.4zm9.3-2.4l-2-1.5-2 1.5.8-2.4-2-1.5h2.5l.8-2.4.8 2.4h2.5l-2 1.5.6 2.4zm8.5-3.5l-2-1.5-2 1.5.8-2.4-2-1.5h2.5l.8-2.4.8 2.4h2.5l-2 1.5.6 2.4zm7.5-4.7l-2-1.5-2.1 1.5.8-2.4-2-1.5h2.5l.8-2.4.8 2.4h2.5l-2 1.5.7 2.4zm6.8-5.8l-2-1.5-2 1.5.8-2.4-2-1.5h2.5l.8-2.4.8 2.4h2.5l-2 1.5.6 2.4zm6.3-7.1l-2.1-1.5-2 1.5.8-2.4-2-1.5h2.5l.8-2.4.8 2.4h2.5l-2 1.5.7 2.4zm4.8-7.9l-2-1.5-2 1.5.8-2.4-2-1.5h2.5l.8-2.4.8 2.4h2.5l-2 1.5.6 2.4zm4-8.5l-2-1.5-2 1.5.8-2.4-2-1.5h2.5l.8-2.4.8 2.4h2.5l-2 1.5.6 2.4zm2-9.6l-2-1.5-2 1.5.8-2.4-2-1.5h2.5l.8-2.4.8 2.4h2.5l-2 1.5.6 2.4z"/><path fill="#EE4523" d="M74.6 28.3c-11.3 0-21.6 4-29.7 10.6 3.3.3 6.9.1 10.3.9 1.6.4 3.1 1.8 4.9 2.1 4 .5 7.7-.3 11.1-1.6-3.4-4.4-1.9-11.2 4.5-11.1h1.6c3.7.9 5 7 3.7 10.3 2.4 2.3 4.4 4.9 8.2 5.8 6.9 8.4 12.9 17.6 16.1 29.7 1.9 2.2 6.6 4 4.9 7.4-3.7 2.1-7.4-.5-8.2-4.5 1.2 5.4 5.6 12.1 3.3 20.2-6.5 3.5-9-4.5-13.2-7-4.5 0-5.5-3.5-8.7-4.9-.2 4.6-5.8 7.8-6.2 12.8-.2 3 2.1 6.1 2.1 9.5 0 5-1.7 9.7 1.1 13.4 3-.4 6-1.1 8.8-2-5.5-2.6-4.9-12.1 2.5-13 2.2-.3 3.8.3 5 1.4 2.2 1.8 2.9 5 1.8 7.4 13.6-8.2 22.8-23.1 22.8-40.2.1-26.3-20.8-47.2-46.7-47.2z"/><path fill="#434742" d="M66.3 116.9h5.8c-.5-1.3-2.4-2.2.4-1.7-1.9-7.7-2.4-17.2-3.7-24.3-1.2-1.2-3-2-2.9-4.5 2.6-.4 1.3-1.9 2.1-4.1.1-.3 1-1.3 1.2-1.7 1.3-2.4.7-2.9-.4-5.8-.6-1.5-1.6-2.5-1.6-4.1-.1-1.7 1.2-3.3 1.2-5 .2-5-1.5-9.8-1.7-14.8-3.4-1.7-6-5.7-11.1-4.5-4.8-1.3-9.1-3.7-13.8-4.8-8.7 8.5-14.1 20.4-14.1 33.5 0 23.2 16.9 42.4 39.1 46.2-.7-1.2-1.5-3-.5-4.4z"/><path fill="#EE4523" d="M96 73.6c.6-.9-1.1-1.6 0-1.6 1.2-.3 1.1.6 2.1.4-.7-1.2.1-2.1 1.2-1.2-1.7-5.4-4.9-9.4-9.1-12.4-.3 1.4-.3 3-1.2 3.7 2.7 3.2 2.7 6.6 4.1 10.7 1.1 0 2.3-.2 2.9.4z"/><path fill="#7F857D" d="M74.6 23.2c-13.8 0-26.3 5.4-35.6 14.1-.9.8-1.7 1.7-2.5 2.5-8.6 9.3-13.8 21.7-13.8 35.3 0 28.7 23.2 51.9 51.9 51.9s51.9-23.3 51.9-51.9c0-28.7-23.2-51.9-51.9-51.9zm24.1 92.1c-2.9 1.7-6 3.2-9.3 4.3-2.8.9-5.8 1.6-8.8 2-.8.1-1.6.2-2.4.2-1.2.1-2.4.2-3.5.2-1.2 0-2.4-.1-3.6-.2-1.4-.1-2.8-.3-4.2-.5-22.2-3.7-39-23-39.1-46.2 0-13.1 5.4-25 14.1-33.5 1-1 2-1.9 3-2.8 8.1-6.6 18.4-10.6 29.7-10.6 25.9 0 46.8 21 46.9 46.9-.1 17.1-9.2 32-22.8 40.2z"/></svg>