<svg xmlns:xlink="http://www.w3.org/1999/xlink"  xmlns="http://www.w3.org/2000/svg" viewBox="0 0 150 150"><path fill="#EEA91F" d="M65.5 29.3c4.1-.6 8.3-.8 12.3-.7 2-1.9 4-4 6-6.1-6-.8-12.2-.8-18.4.2-36.2 5.6-61 39.4-55.5 75.7.9 5.9 2.6 11.6 4.9 16.8l.9-.3c.2-.2.4-.4.7-.6-1.6-4.2-2.8-8.5-3.5-13.1-5.4-34.4 18.2-66.6 52.6-71.9zM141 78.2c-3.1-19.9-14.7-36.3-30.6-46.2l-2.6 5.7c15.4 9.3 26.8 25.2 29.7 44.4 2.1 13.8-.6 27.2-6.6 38.7v3.8c8.6-13.3 12.6-29.5 10.1-46.4z"/><path fill="#FFF" d="M81.8 102.2l-6.8 7.5-3.8 10.3h2.9c1-1 1.9-3.6 1.9-5.5s0-3.7 1-4.7l4.8-7.6z"/><path fill="#FFF" d="M76 103.1c1.9-3.9 4.8-5.8 7.7-7.7 0 0 1.9-3.9 2.9-4.8-1 1-10.7 0-10.7 0-1 0-1.9 1-1.9 1l-13.6 26.1 8.7 1.9L72 108c.1 0 2.1-2 4-4.9z"/><path fill="#0094D4" d="M93.4 78c-1.9 3.9-1 6 1 6.8 1.5.6 2 .3 2.9 0 2.9-1 4.6-4.5 3.9-6.8-.3-.9-1-1.9-1.9-2.9-2-1-3.9 0-5.9 2.9z"/><path fill="#0094D4" d="M115.7 130.2c-1.9-1-4.8-1.9-6.8-2.9-1.9-1-4.8-1-8.7 0-5.8 1.9-13.7-2.5-14.5-2.9-1.5-.8-8.7-2.9-8.7-2.9 0-1.9 1-2.9 1.9-4.8 0-1.9 1-3.9 1-4.8 2.9-3.9 4.8-5.8 6.8-7.7 1-1 6.8-10.6 7.7-11.6 2.9-2.9 2.7-3.6.8-6-1.6-2-2.7-1.8-2.7-1.8-1 0-14.5 2.9-15.5 2.9 0-.6-.4-.8-.6-.7l32.2-69 .4-1h-1l-.3.6-49.1 100-5.8-1.9c-2.9-1-6.8-1.9-7.7-1-1 1-1 1.9 1 3.9 1 1 1.9 1.9 2.9 1.9-1 0-2.9-1-4.9-1.9-2.9-1.9-3.9-1.9-5.8-1.9-5.8 0-11.6 2.9-17.4 8.7-1 1-.9 1-1.9 2.9v1.9c3-2.9 6.7-5.8 9.6-7.7 2.9-1.9 5.8-2.9 9.7-2.9 1.9 0 3.9 1 6.8 2.9s4.8 3.9 7.7 3.9c2.9 0 5.8-.1 8.7-1 2.5-.7 17.4 1.9 21.3 3.9 2.9 1.9 5.7 2.5 7.7 2.9 3.8.9 7.7-1 10.7-1.9 2.9-1 7.7-1 12.6 1.9 1.9 1 3.9 1 6.8 0 1.9-1 2.9-2.9 2.9-5.8-2 2.8-4.9 4.8-7.8 3.8zm-55.2-12.6l13.6-26.1s1-1 1.9-1c0 0 9.7 1 10.7 0-1 1-2.9 4.8-2.9 4.8-2.9 1.9-5.8 3.9-7.7 7.7-1.9 2.9-3.9 4.8-3.9 4.8l-2.9 11.6-8.8-1.8zm13.6 2.4h-2.9l3.9-10.4 6.8-7.6-4.8 7.8c-1 1-1 2.7-1 4.6-.1 2-1.1 4.6-2 5.6z"/><path fill="#007CB1" d="M49.9 73.1c-1.9 5.8-1.9 12.6 0 19.3 1.9 6.8 3.9 12.6 6.8 19.4L104.1 17C94.4 28.6 85.7 37.3 78 44.1c-8.8 7.7-17.5 17.4-28.1 29z"/></svg>