<svg xmlns:xlink="http://www.w3.org/1999/xlink"  xmlns="http://www.w3.org/2000/svg" viewBox="0 0 150 150"><path fill="none" d="M41.1 56.8l2.7-.8h.4l1.3-.4 1.1-.2.8-.1.8-1.9 1.5-3 .5-.8.8-1.3H49.4l-.5-.1h-4.5c-.6.7-1.1 1.3-1.6 1.9l-.9 1.2c-1.7 2.1-3.1 4.4-4.3 6.8l.8-.4 2.7-.9zM108.8 78.3l2.9 3.1.8.9c.7-4.2.7-8.4.1-12.7h-.1c-2.2 1.2-4.4 2.4-6.8 3.6-.2.1-.3.2-.5.2-.3.2-.6.3-.9.5l1.5 1.4 3 3zM34.3 72.6l.5-.9.6-.8.6-.9.6-.8.6-.7.6-.7.8-.6.8-.6.6-.3.2-.2.8-.5 1-.4.9-.3 1-.2.4-.1.3-1.5 1-3.3.1-.4.6-1.5-1.2.2-.8.2-2.6.7-2.4.9-1.9.8-.4.3-.8.4c-1.6 4.1-2.5 8.4-2.7 12.7l.3-.6.5-.9zM55.5 45.8l.5-.1 1.5-.2.6-.1 1-.2 1.4-.3 1.4-.4 1.4-.4 1.3-.4 1.3-.5 1.4-.5 1.3-.5 1.4-.5 1.5-.4 1.4-.4 1.5-.4 1.6-.3 1.5-.3 1.7-.1 1.7-.1h1.9l1.9.1 2 .2 2.2.3 2.2.5 1.9.5c-6.7-3.9-14.5-5.7-22.3-5.3-2.5.2-5.1.6-7.5 1.2l-1.8 1.7-2.1 2.2-2 2.4-1.8 2.3zM47.9 45.9l.6-.1H52.5l.9-1.3.1-.2 1.9-2.4.8-.9 1.4-1.6.5-.6c-.5.2-.9.4-1.4.6-.3.2-.7.3-1 .5-1.1.5-2.2 1.2-3.3 1.9-1.4.9-2.9 2-4.3 3.1-.3.3-.6 0-1 1h.8zM55.4 104.4l2.7 3.3 2.2 2.4.9.8 3.4 3.3.6.5c2.1.4 4.3.7 6.4.8H73c2.4 0 4.9-.1 7.2-.6 1.7-.3 3.5-.7 5.1-1.2 1.3-.4 2.4-.9 3.6-1.4.4-.1.7-.2 1-.4 1.9-.9 3.6-1.9 5.3-3l-2.8-1.2-2.8-1.4-2.5-1.7-2.5-1.7-.2-.1-2.1-1.7-2.2-1.9-2-2-.8-.8-1.1-1.2-1.7-2.2-1.8-2.1-.9-1.1-2.1.9c-.1 0-.2.1-.2.1-5.6 2.5-11.1 4.8-16.3 6.8-.6.2-1.2.5-1.8.7L53 101l2.4 3.4zM60 113.2l-.6-.5-3.2-3.3-2.8-3.5-2.5-3.5-1.8-3.1c-.2.1-.5.2-.7.3-.2.1-.4.2-.6.2-.9.4-1.9.7-2.8 1.1-.7.3-1.3.5-2 .7 4.7 5.3 10.5 9.3 17 11.6zM76.3 91.5l1.8 2.1 1.9 2 2 1.9.3.3 1.8 1.5 2.2 1.7 2.3 1.7 2.5 1.5 2.6 1.3 2.7 1.3 1.3.5c1.5-1.2 2.9-2.5 4.2-3.8 4.9-5.1 8.3-11.4 9.9-18.1l-1.9-2.3-2.8-3-2.9-2.8-2.1-1.9c-.1 0-.2.1-.3.1-6.2 3.1-12.8 6.4-19.8 9.7-2.4 1.1-4.8 2.2-7.1 3.2-.3.1-.6.3-.9.4l.5.6 1.8 2.1z"/><path fill="#1587C1" d="M33.8 90.7c.4.9.7 1.9 1.1 2.8.9 1.8 1.9 3.5 2.9 5.2.8-.3 1.5-.6 2.3-.9-1.1-1.7-2.2-3.4-3-5.3-1.9-4-3-8.2-3.5-12.4l.4-.8.4-1 .4-1 .4-.9.4-.9.5-.9.4-.9.4-.8.5-.8.5-.7.6-.7.5-.6.6-.6.6-.5.7-.5.2-.1.4-.3.7-.4.7-.3.8-.2.1-.1-.4 2.7-.2 3v4.1l.2 3.6.5 3.6.8 3.6 1.1 3.6 1.4 3.6c.8-.3 1.5-.6 2.3-.9l-1.4-3.4-1-3.5-.8-3.4-.5-3.4-.2-2.3v-4.5l.3-3.3.6-3.3v-.1h.7l1.7.1.7.2.9.2.8.3.8.3 1.5.8 1.4 1 1.5 1.1 1.4 1.4 1.4 1.5 1.5 1.6 1.4 1.7 1.5 1.8.9 1.2.6.7 1.5 2 1.5 2 1 1.3c.7-.3 1.5-.7 2.3-1l-1.4-1.7-1.5-2-1.5-2-1.5-2-1.5-1.8-1.5-1.8-1.5-1.7-.5-.5-1-1.1-1.9-1.4-1.6-1.3-1.6-1.1-1.8-.9-1.8-.7-1.3-.3-.6-.1-.9-.1-1-.1h-.2l.1-.7.3-1 .6-1.8.1-.4 1.2-3.1.6-.1 2.8-.3 1.1-.1 1.8-.1h2.9l.9.1h2l2.3.3.7.1 3 .4 3.1.7 3 .9 3.1 1 3.2 1.1 3.2 1.4.3.1 2.8 1.4 3.1 1.7 3.1 1.9 3 2 2.7 2 2.4-1.2-.6-.5-3-2.2-3.2-2.1-3.1-1.9-3.2-1.8-3.2-1.6-2.2-.9-1.1-.4-3.3-1.3-3.2-1-3.2-.8-3.2-.7-3.1-.5-2.2-.2-.9-.1-3.2-.2h-.2l-2.8-.1-2.8.2h-.2l-2.2.3.2-.4 1-2.1.4-.8 1.6-2.8.3-.4h.7l.7-.1 1.1-.1 1.7-.2 1.2-.2.4-.1 1.6-.3 1.5-.4 1.5-.5 1.4-.4 1.3-.5 1.3-.5 1.4-.5 1.4-.5 1.3-.5 1.4-.4.4-.1 1-.2 1.5-.3 1.5-.2 1.5-.1 1.6-.2h1.7l1.7.1 1.9.2 2 .3 2.1.4 2.2.6 2.3.7 2.5.9 2.1.8c4 3.6 7.3 7.9 9.7 13 .9 1.9 1.6 3.8 2.1 5.7l2.1-1.2c-.6-1.9-1.2-3.7-2.1-5.6-7.4-16.5-24.5-25.7-41.7-24.4-4.8.4-9.5 1.6-14 3.7-.3.2-.7.3-1 .5-1.1.6-2.2 1.2-3.3 1.9-1.5.8-2.9 1.9-4.3 2.9-1.9 1.5-3.6 3.2-5.2 5-.3.4-.6.7-1 1.1-2 2.5-3.8 5.1-5.2 8-4.8 9.6-6 21-2.6 31.8h.1c.1.7.4 1.5.6 2.2zm27.6-51.8l1.8-1.7c2.5-.6 5-1 7.5-1.2 7.8-.4 15.5 1.4 22.3 5.3l-1.9-.5-2.1-.6-2.2-.3-2-.2-1.8-.1h-1.9l-1.7.1-1.7.3-1.5.3-1.6.3-1.5.4-1.4.4-1.5.4-1.4.5-1.3.5-1.5.4-1.3.5-1.3.4-1.4.5-1.5.4-1.4.3-1 .2-.6.1-1.5.2-.5.1 1.8-2.3 2-2.4 2.1-2.3zM48 45c1.4-1.1 2.8-2.2 4.3-3.1 1.1-.7 2.2-1.4 3.3-1.9.3-.2.7-.3 1-.5.5-.2.9-.4 1.4-.7l-.5.6-1.4 1.6-.7 1-1.9 2.4-.1.2-.9 1.4h-4l-.6.1-.5-.1h-.3c.3-1 .6-.7.9-1zm-6 6.2l.9-1.2c.5-.6 1.1-1.2 1.6-1.9H49l.5.1H51.1l-.8 1.3-.5.8-1.5 3-.8 1.9-.8.1-1.1.2-1.3.4h-.4l-2.7.8-2.6.9-.8.4c1-2.3 2.5-4.6 4.2-6.8zm-5.8 10.2l.8-.4.5-.2 1.9-.8 2.4-.9 2.6-.7.8-.2 1.2-.2-.6 1.5-.1.4-1 3.3-.3 1.5H44l-1 .2-.9.3-1 .4-.8.5-.3.2-.6.3-.8.6-.8.6-.6.7-.6.7-.6.8-.6.8-.6.8-.5.9-.5.9-.3.6c.2-4.2 1.1-8.5 2.7-12.6z"/><path fill="#F48120" d="M112.6 69.7c.7 4.3.6 8.5-.1 12.7l-.8-.9-2.9-3.1-2.9-2.8-1.5-1.4c-.1.1-.2.1-.3.2-.6.3-1.3.7-2 1l2.1 1.9 2.9 2.8 2.8 3 1.9 2.3c-1.7 6.7-5.1 13-9.9 18.1-1.3 1.3-2.7 2.6-4.2 3.8l-1.3-.5-2.7-1.3-2.6-1.3-2.5-1.5-2.3-1.7-2.2-1.7-1.8-1.5-.3-.4-2-1.9-1.9-2-1.8-2.1-1.7-2.1-.6-.5c-.4.2-.9.4-1.3.6-.3.1-.6.3-.9.4l.9 1.1 1.8 2.1 1.9 2.1 1.1 1.2.8.8 2 2 2.2 1.9 2.1 1.7.2.1 2.5 1.7 2.5 1.7 2.8 1.4 2.8 1.2c-1.7 1.1-3.4 2.2-5.3 3-.3.1-.7.3-1 .4-1.1.5-2.3 1-3.6 1.4-1.6.5-3.4.9-5.1 1.2-2.4.5-4.9.6-7.2.6-.5.1-1 0-1.4 0-2.2-.1-4.3-.4-6.4-.8l-.6-.5-3.4-3.3-.9-.8-2.2-2.4-2.7-3.3L53 101l-1.5-2.6c-.1.1-.3.1-.4.2-.6.3-1.3.5-1.9.7l1.8 3.1 2.5 3.5 2.8 3.5 3.2 3.3.6.5c-6.5-2.3-12.3-6.3-16.9-11.6-.1 0-.3.1-.4.1-.7.3-1.4.5-2.1.8 5.9 7.2 14 12.1 22.7 14.3 3.1.7 6.3 1.2 9.4 1.1h1.4c2.4-.1 4.8-.3 7.2-.7 1.7-.3 3.5-.8 5.1-1.3 1.3-.4 2.4-.9 3.6-1.4.3-.2.7-.3 1-.5 4.5-2.1 8.5-4.9 12-8.3 9.7-9.7 14.2-23.6 11.9-37.3-.1 0-.1.1-.2.1-.8.4-1.5.8-2.2 1.2z"/><path fill="#87898B" d="M145.2 45.1c-1.3-1.5-6.4-1.1-14.5 1-5.8 1.5-13.2 3.9-21.6 7 .5.7.9 1.4 1.3 2.1 6.7-2.5 12.4-4.3 16.5-5.3 4-1 6.6-1.1 7.1-.3 1 1.2-3.2 4.8-10.9 9.6-2.5 1.6-5.4 3.3-8.6 5.1-.2.1-.5.3-.8.4l-2.1 1.2c-2.8 1.6-5.8 3.2-9 4.8-.2.1-.3.2-.5.2-.4.2-.9.5-1.3.7-.8.4-1.5.8-2.3 1.2-5.9 3-12.3 6.1-19 9.3-2.4 1.1-4.8 2.2-7.1 3.3-.7.3-1.5.7-2.2 1-1 .5-2 .9-3 1.3-.1 0-.2.1-.2.1-5.4 2.4-10.6 4.6-15.5 6.6-.7.3-1.5.6-2.2.9-.9.3-1.7.7-2.6 1l-.6.3c-1.2.5-2.4.9-3.5 1.3-.8.3-1.5.6-2.3.8-.8.3-1.7.6-2.5.9-5.1 1.8-9.5 3.2-12.9 4.1-4.4 1.1-7.2 1.4-7.8.5-.8-.8 1-2.7 4.6-5.4 2.9-2.1 7-4.7 12.1-7.7 0-.1-.1-.2-.1-.3-.2-.7-.5-1.4-.7-2.2h-.1c-6.6 3.8-12.3 7.3-16.6 10.4-7.3 5.1-11 9-9.6 10.8 1.5 1.9 8.9.8 20.1-2.6 4-1.2 8.6-2.8 13.4-4.5.1-.1.3-.1.4-.2.7-.2 1.4-.5 2.1-.8.1-.1.3-.1.4-.1.6-.2 1.3-.5 2-.7.9-.3 1.9-.7 2.8-1.1.2-.1.4-.2.6-.2.2-.1.5-.2.7-.3.6-.2 1.2-.5 1.9-.7.1-.1.3-.1.4-.2.6-.2 1.2-.5 1.8-.7 5.2-2.1 10.6-4.4 16.3-6.8.1 0 .2-.1.2-.1l2.1-.9c.3-.1.6-.3.9-.4.4-.2.9-.4 1.3-.6.3-.1.6-.3.9-.4 2.3-1.1 4.7-2.1 7.1-3.2 7-3.3 13.7-6.6 19.9-9.8.1 0 .2-.1.3-.1.7-.3 1.3-.7 2-1 .1-.1.2-.1.3-.2.3-.2.6-.3.9-.5.2-.1.3-.2.5-.2 2.3-1.2 4.6-2.4 6.8-3.6h.1c.7-.4 1.4-.8 2.1-1.1.1 0 .1-.1.2-.1l.6-.3c3.3-1.9 6.4-3.7 9.3-5.4 13.8-8.8 22-15.5 20.1-17.9z"/></svg>