<svg xmlns:xlink="http://www.w3.org/1999/xlink"  xmlns="http://www.w3.org/2000/svg" viewBox="0 0 1500 1500"><path fill="#45D4FF" d="M43.2 1074.2l751.2-431 62.3 14.7-738.1 421.8z"/><path fill="#E72C00" d="M210.8 1070.3l751.2-431 62.4 14.6-738.1 421.9z"/><path fill="#45D4FF" d="M498.5 998.5l378.4-216.1 62.4 14.7L574 1004z"/><path fill="#E72C00" d="M373.9 1152.8l378.5-216.1 62.4 14.7-365.4 206.9zM174.7 897.1L383.8 780l70.1 6.4-203.7 116.2z"/><path fill="#140000" d="M1456.8 589.7l-403.1-58.5-180.3-365.4-180.3 365.4-403.2 58.5 202.2 197.2 91-57.1-98.9-96.4 268.9-39.1 120.3-243.7 120.2 243.7 268.9 39.1L1067.9 823l46 267.9-240.5-126.5-211.3 111.1v.3l-126.7 67.6-22.7 132.3 360.7-189.6 360.6 189.6-68.9-401.6z"/></svg>