<svg xmlns:xlink="http://www.w3.org/1999/xlink"  xmlns="http://www.w3.org/2000/svg" viewBox="0 0 1500 1500"><path fill="#F6516A" d="M1055.5 383.1c-14.5 11.3-31.7 18.3-49 18.7-20.9.5-39.1-5-54.5-12.5 7.9 11 19.7 29.6 38.4 61.1 39.5 18.4 62.9 53.9 53.6 85.5-10.6 36.2-60.2 53.6-110.6 38.7-36.2-10.6-63-35-71.3-61.2-10.3-12.2-20.5-22.8-27.2-26.6-16.6-9.4-62.6-16.1-100-20.1 33.9 23 80.5 54.7 88.3 61.4 10.4 8.9 21.8 58.7 29.1 96.2 2.3 4.7 4.3 9.5 5.7 14.7 2.4 9.3 3 18.7 2 27.9 0 .3.1.4.1.5.1.8.1 1.6.1 2.4 0 5.4-2.1 12-5.8 18.8-11.6 28.8-38.9 53.1-74.9 62.6-55.8 14.7-111.1-11.7-123.6-59-5.4-20.4-1.8-41.3 8.3-59.6-13.3-15.6-32.2-35.8-51.6-55.6 7.5 73.7 42.1 283.8 45.3 297.9.7 3 1.2 7.9 1.2 14 0 27.9-11.2 81.5-71.1 102.9-30.1 10.7-57.1 10.5-80.3-.9-26.5-12.9-46.5-39.2-59.6-78.8-1.4-4.2-1.9-17.2-1.9-55 0-19.6.1-45.8.4-80.9.2-30.7.5-68.6.5-105.7 0-40-.3-78.7-1.3-106.5l-6.6 207.1s0-17.6-1.3-87.8c-1.3-70.3-31.1-94.6-31.1-94.6-3.9-16.8 35.3-28.6 38.8-29.6-.1-2.2-.2-4.2-.3-6.3-41.1 28-90.4 28-112.2-1-10.8-14.4-12.8-33.3-7.5-52.5-3.9-10.2-6.9-19.8-9-27.6-66.6 87.4-106.4 196.4-106.4 314.5 0 286.2 232.8 519 519 519s519-232.8 519-519c0-162.6-75.3-307.9-192.7-403.1zm83.3 237.1c46.5-6.9 1.7 87.9-36.2 113.7-37.9 25.8-65.5 1.7-39.6-46.5s75.8-67.2 75.8-67.2zm-34.4 179.2c-19-17.2 37.9-56.8 37.9-56.8 29.2 22.3-19 74-37.9 56.8zm-24.1-258.1c.2-1.1.3-2.1.4-3.2 4.3-43.6-31.7-70.4-31.7-70.4 60.5 23.8 24.8 119 31.3 73.6zM700.7 778.1s18.4 20.5 79 7.6c40-8.6 55.4-22.8 61.3-31.4 2.5-4.5 3.6-7.5 3.6-7.5s-.6 3-3.6 7.5c-6.9 12.2-25 35.6-64.5 41.2-54.1 7.6-77.9-15.2-77.9-15.2l2.1-2.2zm-140.6 261.5c12.8-2.6 21.8-6.3 21.8-6.3-7.2 3.8-14.5 5.6-21.8 6.3-25 5.1-64.9 5.9-83.1-33.7 0 0 41.5 37.7 83.1 33.7zM388.7 607.1s-67.2 27.4-72.7-32.9c0 0 39.7 45.2 72.7 32.9zm447.1 674.3C509.7 1350 198.9 1077.3 237 709.3c0 0 7.6 360.4 371.8 463.4s574-194.5 627.4-308.9c0-.1-74.4 348.9-400.4 417.6zM862.9 347.8c20.3 6.5 39.5 12.9 54 18.1-7.2-6.4-12.3-12.1-15.4-15.7-2.6-.2-21.7-1.4-38.6-2.4z"/><path d="M1071.4 367.7c5.9-7.2 10.9-15.2 14.5-23.9l3.4-8.1-157.5-111.5s-215.8 8.1-221.1 8.3c-4.6-2.2-106.8-50.9-106.8-50.9l-1.8-.2c-.3 0-1.1-.1-2.2-.2-34.6-23.6-100.1-52.4-197.6-29.9-143.8 33.1-144.8 328.3-142 365.7-45.8 79.4-72.1 171.3-72.1 269.3 0 298.3 242.6 540.9 540.9 540.9 298.2 0 540.9-242.7 540.9-540.9.1-168.6-77.4-319.4-198.6-418.6zm-342.2 937.5c-286.2 0-519-232.8-519-519 0-118.1 39.8-227.1 106.5-314.4 2.1 7.7 5.1 17.4 9 27.6-5.3 19.2-3.3 38.1 7.5 52.5 21.8 29 71 29 112.2 1 .1 2 .2 4.1.3 6.3.2 0 .3-.1.3-.1l-.2 5c1 27.8 1.3 66.5 1.3 106.5 0 37.1-.3 75-.5 105.7-.2 35.1-.4 61.3-.4 80.9 0 37.7.5 50.7 1.9 55 13.1 39.6 33.1 65.8 59.6 78.8 23.2 11.3 50.2 11.6 80.3.9 59.9-21.4 71.1-75 71.1-102.9 0-6.1-.5-11-1.2-14-3.2-14.2-37.8-224.2-45.3-297.9 19.4 19.8 38.3 40 51.5 55.6-10.2 18.4-13.7 39.3-8.3 59.6 12.4 47.3 67.8 73.7 123.6 59 36-9.5 63.4-33.8 74.9-62.6 3.7-6.9 5.8-13.4 5.8-18.8 0-.8-.1-1.6-.1-2.4 0 0 0-.2-.1-.5 1-9.2.5-18.6-2-27.9-1.4-5.2-3.3-10.1-5.7-14.7-7.3-37.5-18.7-87.3-29.1-96.2-7.8-6.7-54.3-38.4-88.3-61.4 37.4 4 83.4 10.7 100 20.1 6.7 3.8 16.9 14.4 27.2 26.6 8.3 26.3 35.1 50.6 71.3 61.2 50.5 14.8 100-2.5 110.6-38.7 9.3-31.6-14-67.1-53.6-85.5-18.7-31.6-30.5-50.2-38.4-61.1 15.5 7.5 33.6 13 54.5 12.5 17.3-.4 34.4-7.4 49-18.7 117.4 95.2 192.7 240.5 192.7 403.2.1 286-232.7 518.8-518.9 518.8zM706.1 254.6s211.9-8 219.1-8.2c5.5 3.9 121.6 86.1 136 96.3-13.3 23.5-36.6 36.8-55.2 37.2-51.6 1.2-86.6-42.2-89.9-46.4-2.3-1.8-4.3-3.3-6-4.7l-2.5-.2-134-7-.2 2.5h-54.7s53.4 22 58 22l.1-1.5c68.4 20.8 142.7 44.4 150.8 49.3 6.7 5.6 32.8 47.7 77.1 125.3 0 0 4.1 6.9 6.6 11.2-2.9 5.3-16 18.9-43.3 23.5-31 5.2-56.9-14.7-61.3-18.2-6.1-8.6-40-55.9-61.2-67.9-32.7-18.5-139.3-25.8-151.4-26.6l-40.5-2.6 33.7 22.6c44.4 29.8 113.3 76.6 121.4 83.6 8.3 10.7 26.9 106.2 29.4 125.4.1 7.7-21.5 39.4-54.1 51.2-23.5 8.6-60.7-7-78.1-16.3-.3-9.8-1.5-47.9-1.5-47.9 0-14-32.3-52.9-95.9-115.4l-11.3-11.1-5.7 12.8 2.2 61.4c11.2 96.2 42.3 272.4 42.8 274.6.1.7 9.5 68.2-55.9 91.6-24.3 8.7-45.6 8.7-63.3.1-21-10.2-37.2-32.1-48.1-65.1-1.6-7.9-1.1-69.9-.7-129.8 1.3-193.8-.4-245.2-5.7-260.8-1.8-19-7.9-62.5-26-68.8-23.2-8.1-24.4 1.2-24.4 1.2s30.2 4.1 36.7 57l-.1.1-6.3 5.3C414.5 537 394.9 537 374.2 537c-10-1.2-34.7-53-38.8-81.6-1.4-10 19.4-45.2 30.5-64 15.5-26.1 20.9-36 20.9-43.6l.6-14.1c.8-13.9 1.8-31.3-.8-44.3-.1-10 37.8-57.8 84.4-77.1 42.3-17.5 117.8-10.3 126.8-9.3 3.4 1.6 108.3 51.6 108.3 51.6zm210.8 111.3c-14.5-5.2-33.7-11.6-54-18.1 16.9 1.1 35.9 2.2 38.6 2.4 3.1 3.6 8.2 9.2 15.4 15.7z"/><path fill="#FFB294" d="M597.9 203c-9-.9-84.6-8.2-126.8 9.3-46.7 19.3-84.5 67.1-84.4 77.1 2.6 13 1.6 30.4.8 44.3l-.6 14.1c0 7.7-5.4 17.5-20.9 43.6-11.2 18.9-32 54.1-30.5 64 4.1 28.6 28.8 80.4 38.8 81.6 20.7 0 40.3 0 68.6-26.8l6.3-5.3.2.1c-6.6-52.9-36.7-57-36.7-57s1.1-9.3 24.4-1.2c18.1 6.3 24.2 49.8 26 68.8 5.4 15.6 7.1 66.9 5.7 260.8-.4 59.9-.8 121.9.7 129.8 10.9 32.9 27.1 54.8 48.1 65.1 17.7 8.6 39 8.6 63.3-.1 65.4-23.3 56-90.9 55.9-91.6-.5-2.2-31.6-178.4-42.8-274.6l6.1 174.8s-24.8-194.3-25.8-224c-1-29.7 13.9-28.8 13.9-28.8l3-1 .6 17.5 5.7-12.8 11.3 11.1c63.7 62.5 95.9 101.3 95.9 115.4 0 0 1.2 38.1 1.5 47.9 17.5 9.3 54.7 24.8 78.1 16.3 32.6-11.9 54.3-43.5 54.1-51.2-2.4-19.2-21-114.7-29.4-125.4-8.1-7-77.1-53.8-121.4-83.6l-33.7-22.6 40.5 2.6c12 .8 118.6 8.1 151.4 26.6 21.2 12 55.1 59.2 61.2 67.9 4.4 3.6 30.2 23.4 61.3 18.2 27.3-4.5 40.4-18.2 43.3-23.5-2.5-4.4-6.6-11.3-6.6-11.3-44.4-77.6-70.5-119.8-77.1-125.4-8.2-4.9-82.4-28.8-150.8-49.6l-.1 2.1c-4.6 0-58-22-58-22h54.7l.2-2.5 134 7.7 2.5-.1c-3.7-2.9-8.4-4.9-8.4-4.9L718 318v-4s6.3-17.8 31.1-18.9c24.8-1 158.8-6.9 158.8-6.9l116.6 72.3s-18.5 25.8-47.3 12.9c-19.5-8.7-46-28.3-61.2-40.1 3.2 4.2 38.3 47.7 89.9 46.4 18.5-.4 41.9-13.7 55.2-37.2-14.4-10.2-130.5-92.4-136-96.3-7.2.3-219.1 8.2-219.1 8.2S601.2 204.6 597.9 203zm332 78l-8.1-29c-.1 0 22 12.7 8.1 29zM548.2 658l-34.8 8.1s11.6-20.9 34.8-8.1zm-51.1-152s23.2-20.9 46.4-4.6l-46.4 4.6zm-50.9-7.6c2 6.9-43.6 29.8-43.6 29.8s-22.8-19.8-16.9-47.6c6-27.8 22.8-25.8 22.8-25.8l2-1c9 3 33.8 37.7 35.7 44.6zm125.9 470.8c-66.4 21.8-86.2-31.7-88.2-50.6 0 0 29.7 7.9 75.3 4.9 45.6-3 71.4-29.7 71.4-29.7s7.9 53.6-58.5 75.4zm6.2-169.7c23.4 10.8 26.1 84.9 26.3 99.6l.1 5.9h-45.3c-27.2 0-53.3 4.5-53.6 4.5l-5.9.9-.5-6.1c-.7-7.7-6.2-75.9 14.7-98.6 23.2-25.1 44.1-15.5 64.2-6.2zm1.2-358.5s7-29 29-10.4l-29 10.4zM750 586.1l47.6-27.9c-16.2 27.9-47.6 27.9-47.6 27.9zm-14.3-2.5c5.9 7.9 26.8 127.9 26.8 127.9s-50.6-1-51.5-11.9c-1-10.9-3-53.5-9.9-65.4-6.9-11.9-98.1-109-98.1-109s1-9.9 9.9-7.9c8.8 1.9 116.8 58.4 122.8 66.3zm194.2-182s-4.6 23.2-32.5 25.5l32.5-25.5zM777.3 433s98.1-5 106.1 0c7.9 5 85.2 109.5 85.2 109.5s-43.6-.3-53.5-11.2c-9.9-10.9-58.5-72.9-67.4-76.9-8.9-4-84.2-21.4-84.2-21.4h13.8zM721 342.4l-33.6 31.3c0 .1 13.9-35.9 33.6-31.3zm-2.3-48.7l3.5-29s9.3 16.3-3.5 29z"/><path fill="#FFCFBA" d="M573.8 809.3c-21.6-10-34.6-14.6-51.6 3.8-10.3 11.2-12.9 40.7-12.9 64.3 0 7.8.3 14.2.7 19.8 9.5-1.5 28.8-4.2 49.5-4.2h34c-1.2-37-7.7-78.2-19.7-83.7z"/><path d="M514.1 805.7c-20.9 22.7-15.4 90.8-14.7 98.5l.5 6 5.9-.7c.3-.1 26.3-4.5 53.6-4.5h45.3l-.1-5.9c-.3-14.7-2.9-88.5-26.3-99.4-20.1-9.3-41-19.1-64.2 6zm45.4 87.3c-20.7 0-40.1 2.7-49.5 4.2-.4-5.6-.7-12.1-.7-19.9 0-23.6 2.6-53 12.9-64.2 17-18.4 30-13.8 51.6-3.8 12 5.5 18.5 46.7 19.7 83.7h-34zM497.1 506l46.4-4.6c-23.2-16.3-46.4 4.6-46.4 4.6zM687.4 373.8l33.6-31.3c-19.7-4.7-33.6 31.3-33.6 31.3zM722.2 264.7l-3.5 29c12.8-12.7 3.5-29 3.5-29zM579.5 441l29-10.4c-22-18.5-29 10.4-29 10.4zM750 586.1s31.3 0 47.6-27.9L750 586.1zM929.9 401.6l-32.5 25.5c27.8-2.3 32.5-25.5 32.5-25.5zM921.7 252l8.1 29c14-16.3-8.1-29-8.1-29zM513.4 666.1l34.8-8.1c-23.2-12.8-34.8 8.1-34.8 8.1z"/><path fill="#FFF" d="M1102.6 733.9c37.9-25.8 82.7-120.6 36.2-113.7 0 0-50 19-75.8 67.2-25.8 48.2 1.7 72.3 39.6 46.5zM1104.4 799.4c18.9 17.2 67.2-34.5 37.9-56.8 0-.1-56.9 39.6-37.9 56.8z"/><path d="M840.9 754.2c3-4.5 3.6-7.5 3.6-7.5s-1 3.1-3.6 7.5zM776.4 795.4c39.6-5.5 57.7-29 64.5-41.2-5.9 8.7-21.3 22.9-61.3 31.4-60.6 13-79-7.6-79-7.6l-2.2 2.2c.1.1 23.9 22.8 78 15.2zM1080.7 538.1c-.1 1.1-.2 2.1-.4 3.2-6.5 45.4 29.2-49.8-31.4-73.6.1 0 36.2 26.8 31.8 70.4zM388.7 607.1c-32.9 12.3-72.7-32.9-72.7-32.9 5.4 60.3 72.7 32.9 72.7 32.9z"/><path fill="#FF865E" d="M483.9 918.6c2 18.8 21.8 72.4 88.2 50.6 66.4-21.8 58.5-75.4 58.5-75.4s-25.8 26.8-71.4 29.7c-45.5 3-75.3-4.9-75.3-4.9zM602.8 525.1s91.2 97.1 98.1 109c6.9 11.9 8.9 54.5 9.9 65.4 1 10.9 51.5 11.9 51.5 11.9s-20.8-119.9-26.8-127.9c-6-7.9-114-64.4-122.9-66.4-8.8-1.9-9.8 8-9.8 8zM915.1 532.1C925 543 968.6 544 968.6 544s-77.3-106-85.2-111c-7.9-5-106.1 0-106.1 0h-13.9s75.3 17.8 84.2 21.8c9 4 57.5 66.4 67.5 77.3zM1025.1 360.6l-116-72.3s-135.2 5.9-160 6.9c-24.8 1-31.1 18.9-31.1 18.9v4l183.8 5.9s3.5 1.9 7.2 4.8c1.7 1.4 4.3 2.9 6.6 4.7 15.2 11.8 42.2 31.4 61.7 40.1 28.7 12.8 47.8-13 47.8-13zM408.6 454.8s-16.8-2-22.8 25.8c-6 27.7 16.9 47.6 16.9 47.6s45.6-22.8 43.6-29.8c-2-6.9-26.8-41.6-35.7-44.6l-2 1zM588 527.1s-14.9-1-13.9 28.8c1 29.7 25.8 224 25.8 224l-6.1-174.8-2.2-61.4-.6-17.5-3 .9z"/><path fill="#AB5153" d="M608.8 1172.7C244.6 1069.7 237 709.3 237 709.3c-38.1 368 272.7 640.7 598.8 572.1 326.1-68.6 400.4-417.6 400.4-417.6-53.4 114.4-263.2 411.8-627.4 308.9z"/><path fill="#AB5153" d="M406.8 588.8s29.7 24.3 31.1 94.6c1.3 70.3 1.3 87.8 1.3 87.8l6.6-207.1.2-5s-.2.1-.3.1c-3.6 1-42.8 12.8-38.9 29.6z"/><path d="M264.7 1163.2c127.3 217.2 347.1 207.2 347.1 207.2-194.8-19.9-347.1-207.2-347.1-207.2zM1196.1 404.1s137.3 169.8 149.8 339.6c0 0-2.5-212.2-149.8-339.6zM639.3 137s-54.9-74.9-179.8-42.5c0 0 104.8-12.5 179.8 42.5zM1173.6 1195.7s127.3-69.9 124.8-172.3c0 0-39.9 114.8-124.8 172.3zM560.1 1039.6c-41.6 4-83.1-33.7-83.1-33.7 18.1 39.6 58.1 38.8 83.1 33.7zM560.1 1039.6c7.3-.7 14.6-2.5 21.8-6.3-.1 0-9 3.7-21.8 6.3z"/></svg>