<svg xmlns:xlink="http://www.w3.org/1999/xlink"  xmlns="http://www.w3.org/2000/svg" viewBox="0 0 150 150"><path fill="#7F1D04" d="M87.6 44.7c.4-.8.7-1.6 1-2.5 1.6-5.3.3-10.8-2.9-14.8-8.4 2.1-17.1 2.6-25.5.6-1 1.4-1.9 3-2.4 4.8-2.2 7.4 1.1 15.2 7.6 18.8 6.7-3.8 14.3-6 22.2-6.9z"/><path fill="#DA3E26" d="M68.1 52.8c.1 0 .3.1.4.1 6.6 2 13.5-.4 17.5-5.6-6.3.9-12.4 2.6-17.9 5.5zM83.9 25.4c-1.7-1.5-3.7-2.6-6-3.3-5.8-1.8-11.9-.1-16 3.9 7.3 1.5 14.7 1 22-.6zM52.7 48.1c-14-14.1-32-16.6-41.5-7.1-9.5 9.5-7 27.5 7.1 41.5 7.5 7.5 16.4 12 24.6 13.2l-.1.3c.1 0 13.5 2.6 19 5 4.3 1.8 8.9 4.9 10.8 6.2l-.6.6.6.6 24.8 24.8.2 2.3.2.2 2 2 8.3-8.3-2.3-2.3h-2.6L78 101.8l-.5.5c-1.3-1.8-4.4-6.5-6.2-10.8-2.4-5.5-4.9-18.9-5-19l-.3.1c-1.2-8.1-5.8-17-13.3-24.5zM20.6 80.2c-.5-.5-.9-.9-1.3-1.4l1.6-1.6 4.1 4.1-1.5 1.5c-1-.8-2-1.7-2.9-2.6zm5.3.1l-4-4.1 4-4.1 4.1 4.1-4.1 4.1zm5-3.1l4.1 4.1-4.1 4-4-4 4-4.1zm-10-1.9l-4.1-4.1 4.1-4.1 4 4.1-4 4.1zm-5-5l-4-4.1 4-4 4.1 4-4.1 4.1zm-5-5l-.3-.3c-.8-2.1-1.3-4.2-1.5-6.2l1.7-1.7 4.1 4.1-4 4.1zm5 6.9l4.1 4.1-1.5 1.6c-1.3-1.5-2.5-3-3.5-4.6l.9-1.1zm-1.8-.1c-.8-1.2-1.5-2.5-2.1-3.7l2.9 2.9-.8.8zm11.8 10.1l4.1 4.1-.8.7c-1.6-1-3.2-2.1-4.7-3.4l1.4-1.4zm5 5.1l1.8 1.8c-.8-.4-1.6-.8-2.3-1.3l.5-.5zm1-1l4.1-4.1 4.1 4.1-4 4.1-4.2-4.1zm-1-29.1l4.1 4.1-4.1 4.1-4-4.1 4-4.1zm-5 3.1l-4-4.1 4.1-4.1 4 4.1-4.1 4.1zm10 1.9l4.1 4-4.1 4.1-4.1-4.1 4.1-4zm5 5l4.1 4.1-4.1 4.1-4.1-4.1 4.1-4.1zm5 5l4.1 4.1-4.1 4.1-4.1-4.1 4.1-4.1zm5.1 5l4 4-4.1 4.1-4-4 4.1-4.1zm-26.1-26l-4.1 4.1-4.1-4.1 4.1-4 4.1 4zm-4 6l4 4.1-4 4.1-4.1-4.1 4.1-4.1zm-5 3.1l-4.1-4.1 4.1-4.1 4.1 4.1-4.1 4.1zm10 1.9l4.1 4-4.1 4.1-4-4.1 4-4zm5 5l4.1 4.1-4.1 4.1-4-4.1 4-4.1zm5 5l4.1 4.1-4.1 4.1-4.1-4.1 4.1-4.1zm5 5l4.1 4.1-4.1 4.1-4.1-4.1 4.1-4.1zm5 5l4 4-4 4.1-4-4 4-4.1zm-35.1-27L9 53.4c.2-2.2.9-4.3 1.9-6.2l4 4-4.1 4zm40.1 32l3.9 3.9c-1.9.9-4.1 1.5-6.5 1.6l-1.5-1.5 4.1-4zm.9-1l4.1-4 4.3 4.3c-.5.7-1 1.4-1.6 2-.8.8-1.6 1.4-2.6 2l-4.2-4.3zM51 75.3l-4-4.1 4-4.1 4.1 4.1-4.1 4.1zm5-3.1l4 4-4.1 4.1-4-4 4.1-4.1zm-10.1-1.9l-4.1-4.1 4.1-4 4 4-4 4.1zm-5-5l-4.1-4.1 4.1-4.1 4.1 4.1-4.1 4.1zm-5-5l-4.1-4 4.1-4.1 4 4.1-4 4zm-5-5l-4-4.1 4-4.1 4.1 4.1-4.1 4.1zm-5-5l-4.1-4.1 4.1-4.1 4.1 4.1-4.1 4.1zm35 26.9l1.9 1.9c-.3 2.3-.9 4.4-1.9 6.2l-4.1-4.1 4.1-4zm-40.1-32L16.6 41c1.8-1.1 3.8-1.8 6-2.1l2.2 2.2-4 4.1zm12.9-5.3l1.3 1.3-4.1 4-4.1-4.1 2.2-2.2c1.5.2 3.1.5 4.7 1zm8.5 4l-1.3 1.3-4.1-4.1.1-.1c1.8.9 3.6 1.8 5.3 2.9zm8.2 6.5c.9.9 1.8 1.8 2.6 2.8l-2 2-4-4.1 2.1-2.1c.3.6.8 1 1.3 1.4zm-9.5-3.2l4.1 4-4.1 4.1-4.1-4.1 4.1-4zm-5 3.1l-4.1-4.1 4.1-4.1 4.1 4.1-4.1 4.1zm10 1.9l4 4.1-4 4-4.1-4 4.1-4.1zm5.1 5l4.1 4.1-4.1 4-4-4.1 4-4zm5 5l4.1 4-4 4.1-4.1-4.1 4-4zm0-1.9l-4.1-4.1 1.9-1.9c1.2 1.5 2.4 3.1 3.4 4.7L56 60.3zm2-.1c.8 1.4 1.5 2.8 2.1 4.2l-3.2-3.2 1.1-1zm-12.1-9.9l-4.1-4.1 1.5-1.5c1.5 1 3.1 2.2 4.6 3.5l-2 2.1zm11 21l4.1-4.1.4.4c.7 2 1.2 3.9 1.4 5.8L61 75.2l-4.1-3.9zM27.3 38.7l-1.5 1.4-1.4-1.4h2.9zm-11.8 3.1l4.4 4.4-4.1 4.1-4.3-4.3c.6-.9 1.2-1.8 2-2.5.6-.7 1.3-1.2 2-1.7zM8.8 55.2l1 1-.9.9c-.1-.7-.1-1.3-.1-1.9zM37.2 91l3.7-3.7 4 4-1.3 1.3c-2.1-.3-4.2-.8-6.4-1.6zm8.1 1.7l.5-.5.6.6c-.3 0-.7 0-1.1-.1zm22.9.2c2.2 5.1 5.8 10.4 6.9 11.9l-.1.1c-1.5-1.1-6.8-4.7-11.8-6.9-2.4-1-5.9-2-9.3-2.9 2.7-.9 5.2-2.3 7.2-4.3s3.5-4.5 4.3-7.3c.8 3.5 1.8 7 2.8 9.4zM63 77.3l-1.1-1.1 1-1c.1.7.1 1.4.1 2.1z"/><g><path fill="#DA3E26" d="M82.9 72.6l-.3-.1c0 .1-2.6 13.5-5 19-1.9 4.3-4.9 8.9-6.2 10.8l-.5-.5L45.7 127h-2.5l-2.3 2.3 8.3 8.3 2-2 .2-.2.2-2.3 24.8-24.8.6-.6-.6-.6c1.8-1.3 6.5-4.4 10.8-6.2 5.5-2.4 18.9-4.9 19-5l-.1-.3c8.2-1.2 17.1-5.7 24.6-13.2 14.1-14.1 16.6-32 7.1-41.5-9.5-9.5-27.5-7-41.5 7.1-7.7 7.6-12.3 16.5-13.4 24.6zm42.5 10.2l-1.5-1.5 4.1-4.1 1.6 1.6c-.4.5-.9.9-1.3 1.4-1 .9-2 1.8-2.9 2.6zm-6.5-6.5l4.1-4.1 4.1 4.1-4.1 4.1-4.1-4.1zm3.1 5l-4.1 4-4-4 4-4.1 4.1 4.1zm1.9-10l4.1-4.1 4 4.1-4 4.1-4.1-4.1zm9-1l-4.1-4.1 4.1-4 4.1 4-4.1 4.1zm1-9.1l4.1-4.1 1.7 1.7c-.3 2-.8 4.1-1.5 6.2l-.3.3-4-4.1zm.1 12c-1 1.5-2.2 3.1-3.5 4.6l-1.6-1.6 4.1-4.1 1 1.1zm-.1-1.9l2.9-2.9c-.6 1.2-1.3 2.5-2.1 3.7l-.8-.8zm-9.6 12.4c-1.6 1.3-3.1 2.4-4.7 3.4l-.8-.8 4.1-4.1 1.4 1.5zm-5.9 4.1c-.8.5-1.5.9-2.3 1.3l1.8-1.8.5.5zm-5.5 2.5l-4.1-4.1 4.1-4.1 4.1 4.1-4.1 4.1zm9.1-29.1l-4.1 4.1-4-4.1 4-4.1 4.1 4.1zm.9-.9l-4.1-4.1 4.1-4.1 4.1 4.1-4.1 4.1zm-6 5.9l-4.1 4.1-4.1-4.1 4.1-4 4.1 4zm-5 5.1l-4.1 4.1-4.1-4.1 4.1-4.1 4.1 4.1zm-5 5l-4.1 4.1-4.1-4.1 4.1-4.1 4.1 4.1zm-5 5l-4 4-4.1-4.1 4-4 4.1 4.1zM128 47.1l4.1 4-4.1 4.1-4.1-4.1 4.1-4zm4 14.1l-4 4.1-4.1-4.1 4.1-4.1 4 4.1zm-3.1-5l4.1-4.1 4 4.1-4.1 4.1-4-4.1zm-1.9 10l-4.1 4.1-4.1-4.1 4.1-4 4.1 4zm-5 5.1l-4.1 4.1-4-4.1 4-4.1 4.1 4.1zm-5.1 5l-4.1 4.1-4.1-4.1 4.1-4.1 4.1 4.1zm-5 5l-4 4.1-4-4.1 4.1-4.1 3.9 4.1zm-5 5l-4 4-4.1-4.1 4-4 4.1 4.1zM134 51.1l4-4c1 1.9 1.6 4 1.9 6.2l-1.8 1.8-4.1-4zm-32 40.1l-1.5 1.5c-2.3-.2-4.5-.7-6.5-1.6l3.9-3.9 4.1 4zm-5-5l-4.2 4.2c-.9-.6-1.8-1.2-2.6-2-.6-.6-1.1-1.3-1.6-2l4.3-4.3 4.1 4.1zm-3.2-14.9l4.1-4.1 4.1 4.1-4.1 4.1-4.1-4.1zm3.1 5l-4 4-4.1-4.1 4-4 4.1 4.1zm1.9-10.1l4.1-4 4.1 4-4.1 4.1-4.1-4.1zm5-5l4-4.1 4 4.1-4 4.1-4-4.1zm5-5l4.1-4.1 4.1 4.1-4.1 4-4.1-4zm9.1-.9l-4-4.1 4-4.1 4.1 4.1-4.1 4.1zm1-9.1l4.1-4.1 4 4.1-4.1 4.1-4-4.1zm-31 31l4 4.1-4.1 4.1c-1-1.8-1.6-3.9-1.9-6.2l2-2zm40.1-32l-4.1-4 2.2-2.2c2.2.3 4.2 1 6 2.1l-4.1 4.1zm-8.2-6.3l2.2 2.2-4.1 4.1-4-4 1.3-1.3c1.5-.5 3.1-.8 4.6-1zm-7.9 2.2l-4 4.1-1.3-1.3c1.7-1.1 3.5-2 5.3-2.8zm-12.1 8l2.1 2.1-4 4.1-2-2c.8-.9 1.7-1.9 2.6-2.8.4-.5.9-.9 1.3-1.4zm12.1 2.1l-4 4.1-4-4.1 4-4 4 4zm1-.9l-4.1-4.1 4.1-4.1 4.1 4.1-4.1 4.1zm-6 5.9l-4.1 4-4-4 4-4.1 4.1 4.1zm-5 5l-4.1 4.1-4-4.1 4.1-4.1 4 4.1zm-5 5l-4 4.1-4.1-4.1 4.1-4 4 4zM91.6 59c1-1.6 2.1-3.2 3.4-4.7l1.9 1.9-4 4.1-1.3-1.3zm.3 2.2l-3.2 3.2c.6-1.4 1.3-2.8 2.1-4.2l1.1 1zm8.9-13c1.5-1.3 3-2.5 4.6-3.5l1.5 1.5-4.1 4.1-2-2.1zm-12.9 27l-1.8-1.8c.3-1.9.7-3.9 1.4-5.8l.4-.4 4.1 4.1-4.1 3.9zm36.5-36.5l-1.4 1.4-1.4-1.4h2.8zm10.9 4.7c.8.8 1.4 1.6 2 2.5l-4.3 4.3-4-4.1 4.4-4.4c.6.6 1.3 1.1 1.9 1.7zm4.6 13.7l-.9-.9 1-1c0 .6 0 1.2-.1 1.9zm-34.7 35.5l-1.3-1.3 4-4 3.7 3.7c-2.2.8-4.3 1.3-6.4 1.6zm-2.9.2l.6-.6.5.5c-.3.1-.7.1-1.1.1zm-18.8-9.3c.9 2.8 2.3 5.3 4.3 7.3s4.5 3.4 7.2 4.3c-3.4.9-7 1.9-9.3 2.9-5.1 2.2-10.4 5.8-11.9 6.9l-.1-.1c1-1.5 4.7-6.8 6.9-11.9 1-2.4 2.1-5.9 2.9-9.4zm2.4-8.3l1 1-1.1 1.1c0-.7 0-1.4.1-2.1z"/></g><path fill="#7F1D04" d="M84 12.6c-.5 0-1 .5-1 1 0 .3.1.5.3.7-1.1 1.1-3.1 3-3.9 2.6-.7-.3-.9-1.8-.9-2.8.5 0 1-.4 1-1s-.4-1-1-1c-.5 0-1 .4-1 1 0 .4.3.8.7.9-.4 1-1.4 2.3-3 1.6-1.3-.6-1.8-3-2.1-4.7.4-.1.8-.5.8-1 0-.6-.4-1-1-1s-1 .4-1 1c0 .5.3.9.8 1-.2 1.7-.8 4.1-2.1 4.7-1.6.7-2.6-.6-3-1.6.4-.1.6-.5.6-.9 0-.6-.4-1-1-1-.5 0-1 .4-1 1 0 .5.4 1 1 1 0 1-.2 2.4-.9 2.8-.8.3-2.8-1.5-3.9-2.6.2-.2.3-.4.3-.7 0-.5-.4-1-1-1s-1 .5-1 1c0 .6.4 1 1 1 .1 0 .3 0 .4-.1.9 1.9 2.8 6.4 2.6 8.2 0 0-.5.6 0 .9.5.4 8 .3 8 .3s7.5.1 8-.3 0-.9 0-.9c-.2-1.8 1.7-6.3 2.6-8.2.1.1.3.1.4.1.5 0 1-.4 1-1 .3-.6-.1-1-.7-1z"/></svg>