<svg xmlns:xlink="http://www.w3.org/1999/xlink"  xmlns="http://www.w3.org/2000/svg" viewBox="0 0 150 150"><path fill="#F05A22" d="M114.4 47.7c-.8.1-19.4 3.7-27.9 24.3-1.9 4.5-2.7 11.7-3.6 19.4-1.5 12.8-3.3 27.7-10.4 38.5.8 0 1.7.1 2.5.1 34.3 0 62.1-27.8 62.1-62.1 0-7.8-1.5-15.2-4.1-22l-18.6 1.8z"/><path fill="#F4824E" d="M64.3 74.8c11.6-30.2 38.8-32.6 46.9-32.6 1.9 0 3 .1 3 .1l18.2 1.8C123.1 21.6 101 5.8 75.1 5.8 40.8 5.8 13 33.6 13 67.9c0 24.9 14.7 46.4 35.9 56.3 5.8-6.4 7.5-15.7 9.5-26.2 1.4-7.6 2.8-15.3 5.9-23.2z"/><path fill="#F05A22" d="M113.9 45S80 41.4 66.8 75.8c-8.1 21-4.9 42.6-19.5 53.5-13.3 10-31.6-1.2-31.6-1.2s18.8 20.4 41.5 11.2C83.2 128.8 77.4 87 84 71c9.2-22.4 29.9-26 29.9-26z"/><path fill="#325B67" d="M60.4 46.8v-.1c-.1-6-4.9-10.7-10.6-10.6-5.7.1-10.3 5.1-10.1 11 .1 5.9 4.9 10.7 10.6 10.5.3 0 .7 0 1-.1 2.8-3.8 5.9-7.4 9.1-10.7zM117.9 100.7c-9.5-20.7-42.3-12-48.3-16.4C47.2 67.9 104 23.6 104 23.6s-23.1 6.3-42.3 24.9c-3.3 3.2-6.4 6.7-9.3 10.6l-.6.9c-17.6 24.2-13.6 56.7 10 51.1 23.6-5.6 37.9-11.9 44.3 2 5.2 11.2-10.4 31.9-10.4 31.9s35-16.3 22.2-44.3z"/></svg>