<svg xmlns:xlink="http://www.w3.org/1999/xlink"  xmlns="http://www.w3.org/2000/svg" viewBox="0 0 1500 1500"><path fill="#616264" d="M1383.3 288c-22.8-47.9-27.2-40.2-27.2-40.2s-45.1-49-101.1 1.5l-185.5 176.8c11.1 29.1 35.6 77.7 48.8 142.1l226.4-188.8c0-.1 61.4-43.5 38.6-91.4zM492.2 976.3l-244.9 233.5s-1.1-17.2-32.9-12.7c-31.8 4.5-44.8 32.5-28.2 61 16.6 28.6 34.9 44.7 34.9 44.7s8.3 14.3 35.5 15c27.2.7 46.7-42.5 33.3-58.9l261-217.6c-21.9-22-41.4-43.7-58.7-65zM940.5 1040.7l270.6 225.4c-13.4 16.4 6.1 59.6 33.3 58.9 27.2-.7 35.5-15 35.5-15s18.3-16.1 34.9-44.7c16.6-28.6 3.6-56.6-28.2-61-31.8-4.5-32.9 12.7-32.9 12.7L999.4 974.8c-17.4 21.5-36.9 43.5-58.9 65.9zM245.5 256.9c-56.1-50.4-101.1-1.5-101.1-1.5s-4.4-7.7-27.2 40.3c-22.8 47.9 38.7 91.3 38.7 91.3L373 567.8c13.8-64.3 38.9-113 50.1-142L245.5 256.9z"/><path fill="#DF926F" d="M1064.7 411.5c-170 170-318.5 0-318.5 0s-148.6 170-318.5 0c-1 4.1-2.6 8.9-4.7 14.4-11.2 29-36.2 77.6-50.1 142-21.9 102-15.4 243.4 119.3 408.5 17.4 21.3 36.8 42.9 58.7 65 51.3 51.7 115.4 105.4 195.3 160.6 79.5-55.5 143.3-109.4 194.3-161.3 22-22.4 41.5-44.3 58.9-65.9 132.6-164.2 139.8-305 118.9-406.6-13.3-64.3-37.7-113-48.8-142.1-2.2-5.6-3.9-10.5-4.8-14.6zM540.5 753.9c0-62.8 29.7-118.6 75.6-154.5.1.5.1 1 .4 1.5 1.3 2.7 4 4.1 6.8 3.7.4 1 .9 2.1 1.3 3.2l-20 9.3c-3.4 1.6-4.8 5.6-3.2 8.9 1.6 3.4 5.5 4.8 8.9 3.2l19.2-8.9c.8 2 1.5 4.2 2.3 6.4 0 .9.2 1.8.6 2.7.2.4.5.6.7.9 1.7 5 3.4 10.4 5.1 15.9l-20.2 9.4c-3.4 1.6-4.8 5.6-3.2 8.9 1.6 3.4 5.5 4.8 8.9 3.2l18.2-8.5 1.5 5.7c-1.6 1.9-2.1 4.7-1 7.1.7 1.6 2 2.7 3.5 3.3.7 3 1.4 6 2 9l-20.7 7.5c-3.5 1.3-5.3 5.1-4 8.6 1.3 3.5 5.1 5.3 8.6 4l18.7-6.8c1.5 8 2.8 16.4 3.8 25.1l-19.1 3.3c-3.6.6-6.1 4.1-5.4 7.8.6 3.6 4.1 6.1 7.8 5.4l18.3-3.2c.4 4.4.8 8.9 1.1 13.5-.3 1-.4 2.1-.2 3.2.1.5.4.9.5 1.3.2 3.4.3 6.9.4 10.4l-19.9 3.5c-3.6.6-6.1 4.1-5.5 7.8.6 3.6 4.1 6.1 7.8 5.5l17.9-3.1c0 2.7.1 5.4 0 8.1-1 1.1-1.7 2.6-1.7 4.2s.6 2.9 1.5 4.1c-.1 3.7-.3 7.4-.5 11.1l-19.6.4c-3.7.1-6.6 3.1-6.5 6.8.1 3.7 3.1 6.6 6.8 6.5l18.4-.4c-.2 2.1-.4 4.3-.6 6.4-.7 1-1.1 2.2-1.2 3.5 0 1 .2 1.9.5 2.7-.5 4.5-1.1 9.1-1.8 13.6l-18.7-.5c-3.7-.1-6.8 2.8-6.9 6.5-.1 3.7 2.8 6.8 6.5 6.9l17 .4c-.7 4.3-1.5 8.6-2.3 12.9-1.6 1.2-2.7 3-2.7 5.2 0 1.2.4 2.3.9 3.2-.6 2.7-1.1 5.4-1.8 8.1l-20.7-2.9c-3.7-.5-7 2.1-7.5 5.7-.5 3.7 2.1 7 5.7 7.5l19.1 2.7c-.5 2-1 4-1.6 6-1.9.9-3.5 2.6-3.9 4.8-.3 1.7.1 3.3 1 4.7-.5 1.8-1 3.5-1.6 5.3-56.9-33.9-95.3-96.2-95.3-167.7zm196 196c-31.9 0-61.9-7.8-88.5-21.3.8-2.5 1.5-4.9 2.3-7.4l19.1 3.3c3.6.6 7.1-1.8 7.8-5.5.6-3.6-1.8-7.1-5.5-7.8l-17.6-3.1c.8-2.7 1.4-5.4 2.1-8.1.9-1 1.6-2.1 1.8-3.5.1-.9.1-1.8-.2-2.7.8-3.5 1.6-6.9 2.4-10.3l20.5.3c3.7.1 6.7-2.9 6.8-6.6 0-3.7-2.9-6.7-6.6-6.8l-17.9-.2c.8-4 1.5-8 2.1-12 2.3-1 3.9-3.2 4-5.9.1-2-.9-3.8-2.3-5.1.5-3.8 1.1-7.7 1.6-11.4l20.8.3c3.7 0 6.7-2.9 6.8-6.6.1-3.7-2.9-6.7-6.6-6.8l-19.6-.3c.2-1.8.3-3.6.5-5.3 1.4-1.3 2.3-3 2.3-5.1 0-1.6-.7-3.1-1.7-4.2.2-3.5.4-7 .5-10.5l19.6.3c3.7 0 6.7-2.9 6.8-6.6 0-3.7-2.9-6.7-6.6-6.8l-19.4-.3c0-3.3-.1-6.5-.1-9.8 1.2-1.5 1.9-3.4 1.5-5.4-.2-1.3-.9-2.4-1.7-3.3-.1-2.9-.2-5.7-.4-8.6l21-4.2c3.6-.7 6-4.2 5.2-7.9-.7-3.6-4.3-6-7.9-5.2l-19.3 3.9c-.3-3.8-.6-7.5-1-11.2 1.2-1.5 1.8-3.4 1.5-5.4-.3-1.7-1.2-3.1-2.5-4.1-.4-3.5-.9-6.9-1.4-10.3l21.2-4.2c3.6-.7 6-4.3 5.3-7.9-.7-3.6-4.3-6-7.9-5.3l-20.7 4.1c-1.7-9.6-3.5-18.8-5.6-27.5l17.6-8.2c3.4-1.6 4.8-5.5 3.3-8.9-1.6-3.4-5.6-4.8-8.9-3.2l-15.2 7.1c-2.7-10.4-5.6-19.9-8.5-28.6l19.4-9.1c3.4-1.6 4.8-5.6 3.3-8.9-1.6-3.4-5.6-4.8-8.9-3.2l-18.2 8.5c-2.4-6.6-4.8-12.5-7-17.9l14.9-7c3.3-1.6 4.8-5.6 3.2-8.9-1.3-2.8-4.4-4.2-7.3-3.6 27-14 57.6-22 90.1-22 32.6 0 63.4 8.1 90.4 22.2-3.2-1-6.7.3-8.1 3.4-1.6 3.4-.1 7.3 3.2 8.9l14.9 7c-2.2 5.3-4.6 11.3-7 17.9l-18.2-8.5c-3.4-1.6-7.3-.1-8.9 3.2-1.6 3.3-.1 7.3 3.2 8.9l19.4 9.1c-2.9 8.7-5.8 18.3-8.5 28.6l-15.2-7.1c-3.4-1.6-7.3-.1-8.9 3.2-1.6 3.4-.1 7.3 3.2 8.9l17.6 8.2c-2 8.7-3.9 17.9-5.6 27.4l-20.7-4.1c-3.6-.7-7.2 1.6-7.9 5.3-.7 3.6 1.6 7.2 5.3 7.9l21.2 4.2c-.5 3.4-1 6.8-1.4 10.3-1.3 1-2.2 2.4-2.5 4.1-.4 2 .3 3.9 1.5 5.4-.4 3.7-.7 7.4-1 11.2l-19.3-3.9c-3.6-.7-7.1 1.6-7.9 5.2-.7 3.6 1.6 7.2 5.2 7.9l21 4.2c-.1 2.8-.3 5.7-.4 8.6-.8.9-1.5 2-1.7 3.3-.4 2 .3 4 1.5 5.4 0 3.2-.1 6.5-.1 9.8l-19.4.3c-3.7.1-6.7 3.1-6.6 6.8.1 3.7 3.1 6.7 6.8 6.6l19.6-.3c.1 3.5.3 7 .5 10.5-1 1.1-1.7 2.6-1.7 4.2 0 2 .9 3.8 2.3 5.1.1 1.8.3 3.6.5 5.3l-19.6.3c-3.7.1-6.7 3.1-6.6 6.8.1 3.7 3.1 6.7 6.8 6.6l20.8-.3c.4 3.8 1 7.6 1.6 11.4-1.4 1.3-2.3 3.1-2.3 5.1.1 2.7 1.7 4.9 4 5.9.7 4 1.3 7.9 2.1 12l-17.9.2c-3.7.1-6.7 3.1-6.6 6.8.1 3.7 3.1 6.7 6.8 6.6l20.5-.3c.8 3.4 1.5 6.9 2.4 10.3-.2.8-.3 1.7-.2 2.7.2 1.4.9 2.5 1.8 3.5l2.1 8.1-17.6 3.1c-3.6.6-6.1 4.1-5.5 7.8.6 3.7 4.1 6.1 7.8 5.5l19.1-3.3c.8 2.5 1.5 5 2.3 7.6-26.8 13.4-56.6 21.2-88.4 21.2zm196-196c0 71.6-38.5 134.1-95.9 168.3-.6-1.8-1.1-3.6-1.7-5.5.9-1.4 1.3-3 1-4.7-.4-2.3-1.9-4-3.9-4.8-.6-2-1-4-1.6-6l19.1-2.7c3.7-.5 6.2-3.9 5.7-7.5-.5-3.7-3.9-6.2-7.6-5.7l-20.7 2.9c-.7-2.7-1.2-5.4-1.8-8.1.5-1 .9-2.1.9-3.2 0-2.2-1.1-4-2.7-5.2-.9-4.3-1.6-8.6-2.3-12.9l17-.4c3.7-.1 6.6-3.2 6.5-6.9-.1-3.7-3.2-6.6-6.9-6.5l-18.7.5c-.6-4.6-1.3-9.1-1.8-13.6.4-.8.6-1.7.5-2.7 0-1.3-.5-2.4-1.2-3.5-.2-2.1-.5-4.3-.6-6.4l18.4.4c3.7.1 6.8-2.8 6.9-6.5.1-3.7-2.8-6.8-6.5-6.8L815 806c-.2-3.7-.3-7.5-.5-11.1.9-1.2 1.5-2.5 1.5-4.1 0-1.6-.7-3.1-1.7-4.2v-8.1l17.9 3.1c3.6.6 7.1-1.8 7.8-5.5.6-3.6-1.8-7.1-5.5-7.8l-19.9-3.5c.1-3.5.2-7 .4-10.4.2-.4.5-.8.5-1.3.2-1.1.1-2.2-.2-3.2.3-4.6.7-9.1 1.1-13.5l18.3 3.2c3.6.6 7.1-1.8 7.8-5.4.6-3.6-1.8-7.1-5.4-7.8l-19.1-3.3c1.1-8.7 2.4-17 3.8-25.1l18.7 6.8c3.5 1.3 7.3-.5 8.6-4 1.3-3.5-.5-7.3-4-8.6l-20.7-7.5c.7-3.1 1.3-6.1 2-9.1 1.5-.6 2.8-1.7 3.5-3.3 1.1-2.4.6-5.2-1-7.1l1.5-5.7 18.2 8.5c3.3 1.6 7.3.1 8.9-3.2 1.6-3.3.1-7.3-3.2-8.9l-20.2-9.4c1.7-5.6 3.4-11 5.1-15.9.2-.3.5-.6.7-.9.4-.9.6-1.8.6-2.7.8-2.2 1.5-4.3 2.3-6.4l19.2 8.9c3.3 1.6 7.3.1 8.9-3.2 1.6-3.4.1-7.3-3.2-8.9l-20-9.3c.4-1.1.9-2.1 1.3-3.2 2.8.3 5.6-1.1 6.8-3.7.3-.6.3-1.2.4-1.8 46.5 35.6 76.3 91.5 76.3 154.5z"/><path fill="#DFF3FD" d="M856.6 599.1c-.1.6-.2 1.2-.4 1.8-1.2 2.7-4 4.1-6.8 3.7-.4 1-.9 2.1-1.3 3.2l20 9.3c3.4 1.6 4.8 5.6 3.2 8.9-1.6 3.4-5.6 4.8-8.9 3.2l-19.2-8.9c-.8 2-1.5 4.2-2.3 6.4 0 .9-.2 1.8-.6 2.7-.2.4-.5.6-.7.9-1.7 5-3.4 10.3-5.1 15.9l20.2 9.4c3.3 1.5 4.8 5.6 3.2 8.9-1.5 3.4-5.6 4.8-8.9 3.2l-18.2-8.5-1.5 5.7c1.6 1.9 2.1 4.7 1 7.1-.7 1.6-2 2.7-3.5 3.3-.7 3-1.4 6-2 9.1l20.7 7.5c3.5 1.3 5.3 5.1 4 8.6-1.3 3.5-5.1 5.3-8.6 4l-18.7-6.8c-1.5 8-2.8 16.4-3.8 25.1l19.1 3.3c3.6.6 6.1 4.1 5.4 7.8-.6 3.6-4.1 6.1-7.8 5.4l-18.3-3.2c-.4 4.4-.8 8.9-1.1 13.5.3 1 .4 2.1.2 3.2-.1.5-.4.9-.5 1.3-.2 3.4-.3 6.9-.4 10.4l19.9 3.5c3.6.6 6.1 4.1 5.5 7.8-.6 3.6-4.1 6.1-7.8 5.5l-17.9-3.1v8.1c1 1.1 1.7 2.6 1.7 4.2s-.6 2.9-1.5 4.1c.1 3.7.3 7.4.5 11.1l19.6.4c3.7.1 6.6 3.1 6.5 6.8-.1 3.7-3.2 6.6-6.9 6.5l-18.4-.4c.2 2.1.4 4.3.6 6.4.7 1 1.1 2.2 1.2 3.5 0 1-.2 1.9-.5 2.7.5 4.5 1.1 9.1 1.8 13.6l18.7-.5c3.7-.1 6.8 2.8 6.9 6.5.1 3.7-2.8 6.8-6.5 6.9l-17 .4c.7 4.3 1.5 8.6 2.3 12.9 1.6 1.2 2.7 3 2.7 5.2 0 1.2-.4 2.3-.9 3.2.6 2.7 1.1 5.4 1.8 8.1L848 885c3.7-.5 7 2.1 7.6 5.7.5 3.7-2.1 7-5.7 7.5l-19.1 2.7c.5 2 1 4 1.6 6 1.9.9 3.5 2.6 3.9 4.8.3 1.7-.1 3.3-1 4.7.6 1.8 1.1 3.6 1.7 5.5 57.3-34.2 95.9-96.7 95.9-168.3-.4-62.7-30.2-118.6-76.3-154.5zM636.1 921.9c.6-1.8 1.1-3.5 1.6-5.3-.9-1.4-1.3-3-1-4.7.4-2.3 1.9-4 3.9-4.8.6-2 1-4 1.6-6l-19.1-2.7c-3.7-.5-6.2-3.9-5.7-7.5.5-3.7 3.9-6.2 7.5-5.7l20.7 2.9c.7-2.7 1.2-5.4 1.8-8.1-.5-1-.9-2-.9-3.2 0-2.2 1.1-4 2.7-5.2.9-4.3 1.6-8.6 2.3-12.9l-17-.4c-3.7-.1-6.6-3.2-6.5-6.9.1-3.7 3.2-6.6 6.9-6.5l18.7.5c.6-4.6 1.3-9.1 1.8-13.6-.4-.8-.6-1.7-.5-2.7 0-1.3.5-2.4 1.2-3.5.2-2.1.5-4.3.6-6.4l-18.4.4c-3.7.1-6.8-2.8-6.8-6.5-.1-3.7 2.8-6.8 6.5-6.8l19.6-.4c.2-3.8.3-7.5.5-11.1-.9-1.2-1.5-2.5-1.5-4.1 0-1.6.7-3.1 1.7-4.2v-8.1l-17.9 3.1c-3.6.6-7.1-1.8-7.8-5.5-.6-3.6 1.8-7.1 5.5-7.8l19.9-3.5c-.1-3.5-.2-7-.4-10.4-.2-.4-.5-.8-.5-1.3-.2-1.1-.1-2.2.2-3.2-.3-4.6-.7-9.1-1.1-13.5l-18.3 3.2c-3.6.6-7.1-1.8-7.8-5.4-.6-3.6 1.8-7.1 5.4-7.8l19.1-3.3c-1.1-8.7-2.4-17-3.8-25.1l-18.7 6.8c-3.5 1.3-7.3-.5-8.6-4-1.3-3.5.5-7.3 4-8.6l20.7-7.5c-.7-3.1-1.3-6.1-2-9-1.5-.6-2.8-1.7-3.5-3.3-1.1-2.4-.6-5.2 1-7.1l-1.5-5.7L624 668c-3.4 1.6-7.3.1-8.9-3.2-1.6-3.3-.1-7.3 3.2-8.9l20.2-9.4c-1.7-5.6-3.4-11-5.1-15.9-.2-.3-.5-.6-.7-.9-.4-.9-.6-1.8-.6-2.7-.8-2.2-1.5-4.3-2.3-6.4l-19.2 8.9c-3.4 1.6-7.3.1-8.9-3.2-1.6-3.4-.1-7.3 3.2-8.9l20-9.3c-.4-1.1-.9-2.1-1.3-3.2-2.8.3-5.6-1.1-6.8-3.7-.2-.5-.3-1-.4-1.5-46 35.9-75.6 91.7-75.6 154.5-.3 71.2 38.1 133.5 95.3 167.7z"/><path fill="#DFF3FD" d="M824.7 928.8c-.8-2.5-1.5-5.1-2.3-7.6l-19.1 3.3c-3.6.6-7.1-1.8-7.8-5.5-.6-3.6 1.8-7.1 5.5-7.8l17.6-3.1c-.8-2.7-1.4-5.4-2.1-8.1-.9-1-1.6-2.1-1.8-3.5-.1-.9-.1-1.8.2-2.7-.8-3.5-1.6-6.9-2.4-10.3l-20.5.3c-3.7.1-6.7-2.9-6.8-6.6 0-3.7 2.9-6.7 6.6-6.8l17.9-.2c-.8-4-1.5-8-2.1-12-2.3-1-3.9-3.2-4-5.9-.1-2 .9-3.8 2.3-5.1-.5-3.8-1.1-7.7-1.6-11.4l-20.8.3c-3.7 0-6.7-2.9-6.8-6.6-.1-3.7 2.9-6.7 6.6-6.8l19.6-.3c-.2-1.8-.3-3.6-.5-5.3-1.4-1.3-2.3-3-2.3-5.1 0-1.6.7-3.1 1.7-4.2-.2-3.5-.4-7-.5-10.5l-19.6.3c-3.7 0-6.7-2.9-6.8-6.6-.1-3.7 2.9-6.7 6.6-6.8l19.4-.3c0-3.3.1-6.5.1-9.8-1.2-1.5-1.9-3.4-1.5-5.4.2-1.3.9-2.4 1.7-3.3.1-2.9.2-5.7.4-8.6l-21-4.2c-3.6-.7-6-4.2-5.2-7.9.7-3.6 4.3-6 7.9-5.2l19.3 3.9c.3-3.8.6-7.5 1-11.2-1.2-1.5-1.8-3.4-1.5-5.4.3-1.7 1.3-3.1 2.5-4.1.4-3.5.9-6.9 1.4-10.3l-21.2-4.2c-3.6-.7-6-4.3-5.3-7.9.7-3.6 4.3-6 7.9-5.3l20.7 4.1c1.7-9.6 3.5-18.8 5.6-27.4l-17.6-8.2c-3.4-1.6-4.8-5.5-3.2-8.9 1.6-3.4 5.6-4.8 8.9-3.2l15.2 7.1c2.7-10.4 5.6-19.9 8.5-28.6l-19.4-9.1c-3.4-1.6-4.8-5.6-3.2-8.9 1.6-3.4 5.5-4.8 8.9-3.2l18.2 8.5c2.4-6.6 4.8-12.5 7-17.9l-14.9-7c-3.3-1.6-4.8-5.6-3.2-8.9 1.4-3.1 4.9-4.4 8.1-3.4-27.1-14.1-57.8-22.2-90.4-22.2-32.5 0-63.1 8-90.1 22 3-.6 6 .8 7.3 3.6 1.6 3.4.1 7.3-3.2 8.9l-14.9 7c2.2 5.3 4.6 11.3 7 17.9l18.2-8.5c3.4-1.6 7.3-.1 8.9 3.2 1.5 3.3.1 7.3-3.3 8.9l-19.4 9.1c2.9 8.7 5.8 18.3 8.5 28.6l15.2-7.1c3.4-1.6 7.3-.1 8.9 3.2 1.6 3.4.1 7.3-3.3 8.9l-17.6 8.2c2 8.7 3.9 17.9 5.6 27.5l20.7-4.1c3.6-.7 7.2 1.6 7.9 5.3.7 3.6-1.6 7.2-5.3 7.9l-21.2 4.2c.5 3.4 1 6.8 1.4 10.3 1.3 1 2.2 2.4 2.5 4.1.4 2-.3 3.9-1.5 5.4.4 3.7.7 7.4 1 11.2l19.3-3.9c3.6-.7 7.1 1.6 7.9 5.2.7 3.6-1.6 7.2-5.2 7.9l-21 4.2c.1 2.8.3 5.7.4 8.6.8.9 1.5 2 1.7 3.3.4 2-.3 4-1.5 5.4 0 3.2.1 6.5.1 9.8l19.4.3c3.7.1 6.7 3.1 6.6 6.8-.1 3.7-3.1 6.7-6.8 6.6l-19.6-.3c-.1 3.5-.3 7-.5 10.5 1 1.1 1.7 2.6 1.7 4.2 0 2-.9 3.8-2.3 5.1-.1 1.8-.3 3.6-.5 5.3l19.6.3c3.7.1 6.7 3.1 6.6 6.8-.1 3.7-3.1 6.7-6.8 6.6l-20.8-.3c-.4 3.8-1 7.6-1.6 11.4 1.4 1.3 2.3 3.1 2.3 5.1-.1 2.7-1.7 4.9-4 5.9-.7 4-1.3 7.9-2.1 12l17.9.2c3.7.1 6.7 3.1 6.6 6.8-.1 3.7-3.1 6.7-6.8 6.6l-20.5-.3c-.8 3.4-1.5 6.9-2.4 10.3.2.8.3 1.7.2 2.7-.2 1.4-.9 2.5-1.8 3.5l-2.1 8.1 17.6 3.1c3.6.6 6.1 4.1 5.5 7.8-.6 3.7-4.1 6.1-7.8 5.5l-19.1-3.3c-.8 2.5-1.4 4.9-2.3 7.4 26.6 13.5 56.6 21.3 88.5 21.3 32-.1 61.8-7.9 88.4-21.2z"/></svg>