<svg xmlns:xlink="http://www.w3.org/1999/xlink"  xmlns="http://www.w3.org/2000/svg" viewBox="0 0 150 150"><path fill="#231F20" d="M19.8 15.6v32c0 26.6-1.1 42.8 13.1 63.7 16.3 23.9 42 33.3 42 33.3s25.9-9.3 42.1-33.3c.3-.4.6-.8.8-1.2l-16-15.4c-.4.8-.9 1.5-1.4 2.3-9.7 15.7-25.4 21.9-25.4 21.9S59.5 112.7 49.6 97c-8.6-13.8-7.9-24.4-7.9-41.9V36.6l-21.9-21z"/><path fill="#EE3E23" d="M49 29.7h59.5v25.5c0 12 .3 20.8-2.3 29.6l16.9 16.3c8-16.5 7.2-31.4 7.2-53.5V8.8h-103L49 29.7z"/><radialGradient id="a" cx="372.573" cy="28.348" r="27.858" gradientTransform="rotate(180 220.041 43.308)" gradientUnits="userSpaceOnUse"><stop offset=".286" stop-color="#fff"/><stop offset=".556" stop-color="#fff"/><stop offset=".637" stop-color="#f9f9f9"/><stop offset=".744" stop-color="#e8e9e9"/><stop offset=".867" stop-color="#cccdcf"/><stop offset="1" stop-color="#a6a8ab"/></radialGradient><path fill-rule="evenodd" clip-rule="evenodd" fill="url(#a)" d="M57.7 54.6l.2 6.4 6.1 2.3 9.5-7.3.1-6.4-6.2-2.2-9.7 7.1z"/><path fill-rule="evenodd" clip-rule="evenodd" fill="#EE3E23" d="M49.1 70.5c.2 1.3.5 2.6 1 3.9.9 2.6 2.1 5 3.6 7 .6.9 1.4 1.8 2.3 2.6.9.9 2 1.7 3.2 2.5 2.4 1.7 4.8 2.9 7 3.4 1.1.5 2.4.9 3.6 1.1 1.3.2 2.6.3 4 .3s2.7-.2 4-.4c1.3-.2 3.3-.9 3.7-1 .4-.1 4.5-1.6 7.1-3.5 2.6-1.8 4.4-3.7 5.4-5.4 1.6-2 2.9-4.4 3.7-7 .4-1.3.7-2.7.9-3.9.2-1.3.3-2.5.2-3.7.1-2.1-.3-4.7-1.3-7.8-.5-1.5-1-2.8-1.6-3.9-.6-1.1-1.3-2.1-2-2.8-.7-1.1-1.5-2.2-2.4-3.1-.9-.9-1.9-1.8-3-2.6s-2.3-1.5-3.5-2c-1.2-.6-2.4-1-3.6-1.3-1-.4-2.2-.7-3.4-.9-1.3-.2-2.7-.3-4.2-.4-1.5 0-2.9.1-4.2.3-1.2.2-2.4.5-3.3.9-1.2.3-2.4.7-3.6 1.2-1.2.5-2.3 1.3-3.4 2.1-1.3.9-2.3 1.8-3.3 2.7-.9.9-1.7 1.9-2.5 3-.7.8-1.3 1.9-1.9 3-.6 1.2-1.1 2.5-1.6 4s-.8 2.9-1 4.2c-.2 1.3-.3 2.5-.2 3.6 0 1.3.1 2.6.3 3.9zm49.4-3.9zm-7.2 16.8c-.9.9-1.9 1.7-3.1 2.6-2.4 1.7-4.6 2.9-6.6 3.5l-1.4-3.9 3.7-5.3h-.1l.1-.1v.1l6.2-2 3.2 2.5c-.5.9-1.2 1.7-2 2.6zM67.4 47.6l6.1 2.2-.1 6.2-9.4 7.1-6-2.2-.2-6.3v-.1l9.6-6.9zm22.5 7.1l-.2 6.3-6 2-9.6-7 .1-6.2 5.8-2.2 9.9 7.1zm3.5-2.4c1.3 1.5 2.4 3.7 3.4 6.5.4 1.4.8 2.8 1 4.1.2 1.2.3 2.3.2 3.3l-3.6.1-3.9-5.1v.1-.1.1l.2-6.7 2.7-2.3zM67.7 85.4l-3.5-5 3.7-5.4h11.8l3.5 5-3.7 5.4H67.7zm-.3-10.6zm22.4-13.2zm-16.2-5.8zM90 77.7l-6.2 1.8-3.6-4.9 3.6-10.8 6.2-2 3.7 4.7L90 77.7zm-.3-16.5zm-32 .5l6.1 1.9 3.6 11.1-3.8 5.3-6.1-1.7L54 66.9l3.7-5.2zm22.1-14.2zm.1-.6L74 49.1l-6.3-2.2-1.1-3.6c1.8-.8 4.2-1.2 7.1-1.2 1.5 0 2.9.1 4.2.3 1.1.2 2.2.5 3.2.8l-1.2 3.7zm18.3 19.3zM57 54.6l.2 6.5-4 5.4-3.5-.1c-.1-1 0-2.2.2-3.3.2-1.2.6-2.6 1-4.1.9-2.7 2-5 3.3-6.6l2.8 2.2zm-7.6 11.9zm7 17.1c-.9-.8-1.5-1.6-2.1-2.5l2.8-2.3 6.4 1.9v-.1l.1.1h-.1l3.7 5.3-1.2 3.5c-1-.3-2-.7-3-1.2-1.1-.6-2.3-1.3-3.5-2.1-1.1-.9-2.2-1.8-3.1-2.6zm-2.7-2.5zM66 89.7zm.4-46.8z"/></svg>