<svg xmlns:xlink="http://www.w3.org/1999/xlink"  xmlns="http://www.w3.org/2000/svg" viewBox="0 0 1500 1500"><path fill="#AB5153" d="M1112.6 930.5s6.4-31.7 37.9-76.4c-52.2 32.9-112.7 62.4-179.2 85.8-15 5.3-30 10.1-44.9 14.5-5.6 5-10.7 10-15.3 15-71.5 78-168.9 103.9-168.9 103.9 51.1-55.4 55.3-80.6 36.6-88.3-20.8 2.4-41.2 3.9-60.9 4.5-53.5 14.4-120.5 46.7-138.2 64.3-32.3 32.3-113.7 73.5-140.5 86.7-5.2 3.5-8.9 4.3-8.9 4.3s3.4-1.6 8.9-4.3c10.1-6.8 25.8-24.2 30.1-67.2 6.5-65-91 6.5-91 6.5-110.5 142.9-201.4 116.9-201.4 116.9 117-45.5 143-104 149.4-168.9 5.7-56.7-87.5-9.6-111.4 3.4l-5.5 3.1s2-1.2 5.5-3.1l52.9-29.4c227.4-91 84.5-162.4 84.5-162.4 0-48.4 39.9-70 53.7-76.1L393.5 732c-17.4 12.4-83.6 65.6-106.1 172.5 0 0 110.5-65 65-6.5S183.5 982.4 177 1092.9c0 0 117-84.4 84.5-6.5-32.5 78-188.4 162.4-188.4 162.4s181.9-6.5 279.4-91c0 0 91-84.5 65-19.5s-71.5 78-71.5 78 142.9-26 207.9-84.4c65-58.5 201.4-149.5 155.9-78s-130 97.5-130 97.5 188.4-6.5 285.9-84.5c97.5-78 214.4-194.9 194.9-142.9s-58.5 91-58.5 91 311.9-149.5 344.4-396.3l-.7.4c-4.5 35.4-22.2 72.6-50.7 109.4-1.2 56.9-182.5 202-182.5 202z"/><path fill="#FD9A2B" d="M742.2 1073.4s97.5-26 168.9-103.9c4.6-5 9.7-10 15.3-15-50.7 15.1-100.4 25.2-147.6 30.7 18.7 7.6 14.5 32.8-36.6 88.2zM214.9 1031.4c-3.5 1.9-5.5 3.1-5.5 3.1l5.5-3.1zM439.3 1140.6c-5.5 2.7-8.9 4.3-8.9 4.3s3.7-.8 8.9-4.3zM352.4 839.5s143 71.5-84.5 162.4l-52.9 29.4c23.9-13 117.1-60.1 111.4-3.4-6.5 64.9-32.5 123.4-149.4 168.9 0 0 91 26 201.4-116.9 0 0 97.5-71.5 91-6.5-4.3 43-19.9 60.3-30.1 67.2 26.9-13.1 108.2-54.3 140.5-86.7 17.7-17.7 84.7-50 138.2-64.3-44.6 1.3-85.9-1.9-122.3-9.7l-119 54.1c-.6.3-.9.4-.9.4l.9-.4c5.3-2.5 33.4-17.6 51-64.5 16.9-45.1-102.9 46.6-135.1 71.7-2.5 2.1-5.1 4.1-7.9 6.2 0 0 2.9-2.3 7.9-6.2 86.3-70.5 59-151.9 54.1-164.4-.2-.6-.5-1.1-.7-1.7-3.1-8.7-5-17.7-6-26.8l-34-84.9c-13.7 6.1-53.6 27.8-53.6 76.1zM1295.1 728.5c-34.1 43.9-83.6 87.2-144.6 125.6-31.5 44.6-37.9 76.4-37.9 76.4s181.3-145.1 182.5-202z"/><path fill="#696B73" d="M362.9 638.6c42 119.5 271.1 147.7 511.5 63.1 240.5-84.6 401.3-250.1 359.3-369.5-8.4-24-24.5-44.2-46.6-60.6 8.7 4.7 16.8 9.8 24.2 15.3-90.3-67.3-280-71.9-477.4-2.5-226.3 79.7-383.8 229-375.3 347.8-.2-3.5-.3-7.1-.3-10.6 1.3 5.7 2.7 11.4 4.6 17zm384.2-317.2c173.6-61.1 339-40.7 369.3 45.5 30.4 86.2-85.8 205.7-259.4 266.8-173.6 61.1-339 40.7-369.3-45.5-30.3-86.2 85.8-205.7 259.4-266.8z"/><path fill="#696B73" d="M570.8 552.1c21 59.7 140.6 72 267.2 27.4s212.2-129.1 191.1-188.7c-21-59.7-140.6-71.9-267.2-27.4-126.6 44.5-212.2 129.1-191.1 188.7zM362.3 654c-1.8-6.9-2.9-14-3.4-21.2.2 2.9.5 5.8.9 8.7-.6.7-1.1 1.3-1.7 2"/><path fill="#696B73" d="M1345.8 583.7l1.5-3.1-4.3-10.6c-.8-3.2-1.7-6.4-2.8-9.6-2.2-6.3-5.1-12.3-8.3-18.1l-66.5-165.7c12.5 119.4-146 271.3-374.9 351.9-234.5 82.5-458.2 60.4-517.1-47l20.2 50.5 12.6 31.4 34 84.9c1 9.1 2.9 18.1 6 26.8.2.6.5 1.1.7 1.7 4.9 12.5 32.3 93.8-54.1 164.4 32.2-25.2 152-116.8 135.1-71.7-17.6 47-45.8 62.1-51 64.5l119-54.1c36.4 7.7 77.7 11 122.3 9.7 19.7-.6 40-2.1 60.9-4.5 47.2-5.5 96.9-15.6 147.6-30.7 14.9-4.4 29.8-9.3 44.9-14.5 66.5-23.4 127-52.9 179.2-85.8 61-38.5 110.5-81.7 144.6-125.6 28.5-36.8 46.2-74.1 50.7-109.4 1.2-12.1 1.3-23.9-.3-35.4z"/><path fill="#00A8DE" d="M487.7 588.2c30.4 86.3 195.7 106.6 369.3 45.5 173.6-61.1 289.8-180.6 259.4-266.8-30.4-86.2-195.7-106.6-369.3-45.5C573.5 382.5 457.4 502 487.7 588.2zm274.2-224.8c126.6-44.5 246.2-32.3 267.2 27.4 21 59.7-64.6 144.2-191.1 188.7-126.6 44.5-246.2 32.3-267.2-27.4-21.1-59.6 64.5-144.2 191.1-188.7z"/><path fill="#696B73" d="M392.7 1041.2c-4.9 3.9-7.9 6.2-7.9 6.2 2.8-2 5.4-4.1 7.9-6.2zM476.7 1034l-.9.4s.4-.1.9-.4z"/></svg>