<svg xmlns:xlink="http://www.w3.org/1999/xlink"  xmlns="http://www.w3.org/2000/svg" viewBox="0 0 1500 1500"><path fill="#B93640" d="M901.5 554.5l1.5.2c6.1-2.2 10.4-4.8 14.7-8.8 28.1-25.6 64.6-39.1 105.3-39.1 13 0 24.1.6 34.7 2 5.4.7 10.6 1.6 15.6 2.7 9.4-8.9 18.9-16 28.4-21.9-55.1-31.4-117.3-55.5-184.4-70.7-.2 2.1-.2 4-.5 6.2 4 8.9 6.1 18.6 6 28.6 0 22.1-4.4 43.8-13 63.8-2.6 6.2-6.3 12-10.9 17.2 0 5 0 10 .1 15 1 1.7 1.8 3.3 2.5 4.8z"/><path fill="#3B5FAB" d="M437.6 511.9c14.5-3.8 29.6-5.7 45-5.7 37.4 0 73.9 11.8 102.6 33.2 3.6 2.7 8.7 6.3 13.8 11.6.8.2 1.6.5 2.4.7l1.2-2.2c-.2-4.9-.3-9.8-.3-14.8-4.1-4.8-7.5-10.2-10-16-9.1-21.4-13.6-44-13.6-67.4 0-9.1 2-18 5.9-26.3-.2-1.8-.2-3.8-.3-5.7-64.8 14.9-125.1 38.1-178.8 68.2 10.7 6.2 21.5 14.2 32.1 24.4zM1328.6 758.1c-18.6 14.6-54.8 28.6-87.9 34-24.5 4-49.5 5.1-67.5 5.2-4.2 14.1-8.1 29.6-12 47.6-13.2 60.8-36.1 111.4-70.3 154.6-18.6 23.6-42 44.7-71.1 63.9-.9 29.9-9.6 58.8-25.8 86.5.6 9.8 1.1 23.4 1.7 40.7l.6 17-8.8 14.5c-20.2 33.2-57.1 74.5-101.2 106.8 265.4-48.1 463.4-234.9 463.4-458.2 0-39.8-6.3-78.4-18.1-115.2-1 .8-1.9 1.8-3 2.6z"/><path fill="#B93640" d="M528.7 1229.3l-14.2-16.8s1.7-46.4 2.5-63.3c-.4-.8-.8-1.5-1.2-2.3-10.4-19.7-15.6-30-18.4-39.7-1.6-5.6-3.8-15.1-6.9-32.9-.8-4.9-1.6-8.9-2.3-12.3-59.9-39.5-102.6-97.6-126.8-172.7-4.2-13.2-7.5-26.8-10.8-40.4-2-8.3-3.9-16.6-6.3-24.8-2.4-8.5-5-16.9-7.7-25.4-8.3.4-16.5.6-24.3.6-31.2 0-45.5-3.5-53.6-6.1-8.7-2.8-49.9-17.3-85-43.4-13 38.6-20.1 79.1-20.1 120.9 0 226.9 204.4 416.3 476.3 460.5-37.2-29.1-71.6-66.8-101.2-101.9z"/><path fill="#A8A8A8" d="M1410 549.3c-9.2-15.6-18-31.4-25.9-47.6-13.7-28.1-25.9-56.9-39.9-84.9-14.1-28.1-29.2-55.7-49-80.5-22.1-27.7-47-52.5-75.3-73.9-8.3-6.3-17.2-10.6-27.9-11-16-.7-32-2.4-48-2.8-27.9-.6-55.8-1-83.7-.4-14.4.3-25.3 8.1-27.1 22.3-.6 4.6-.8 9.3-.6 14 .1 1.5 0 3.1.2 4.5 1.3 10.2 2.2 20.4 2 30.6-.1 6.9-.5 13.7-1.9 20.6-.2 1.2.2 2.4.5 3.7.2.8 0 1.6.3 2.3 5 13.1 21.5 17.3 34.9 8.7 2.5-1.6 4.2-1.4 7-.8 6.1 1.4 13.5 3.6 18.5 1.4 8-3.5 15.7-3.8 23.8-3.9 3.3-.1 6.6.2 9.7.9 7.6 1.8 14.5 1.1 20.9-3.8 1.8-1.4 4.2-2.3 6.4-2.6 13.4-1.8 17.9-5.7 21.1-18.9.1-.4.6-.8 1.8-2.2 7.6 15.6 19.7 41.5 29.5 72.4 1.8 6.6 9.1 39.3 8.9 44.1-.6 17.5 2.6 34.1 8.1 50.5 4.1 12.2 8.3 24.4 12.6 37.2-.9-.4-1.8-.6-2.7-1-60.4-24.5-108.5-9.1-144.5 45.7-11.7-9.8-25-13.8-38.9-15.6-9.1-1.1-18.4-1.6-27.6-1.5-25.2 0-48.3 7.3-67 24.3-10 9-20.5 15.3-33 20-9.7 3.6-18.6 4.2-28.5 3.1-20.7-2.2-35.9-11.6-44.1-31.2-1.6-3.8-4-7.4-5.2-11.3-1.5-4.9-2.9-10.1-3.1-15.2-.3-11.2-.1-22.4 0-33.7v-7.1c0-7.2 2.7-10.3 9.2-12.5 2.4-.8 5.2-3.1 6.2-5.4 5.1-11.8 7.4-24.3 7.9-37.1.1-1.6.5-3.1.5-4.8 0-2.6-1.2-6.1-3-7.7-2.5-2.1-3.3-4.4-3.7-6.9-.2-1.4-.4-2.9-.2-4.5.5-4.6.8-9.3 1.1-13.9.9-6.1 1.2-11.7 1.2-17.1.3-25.2-7.1-41.5-10.1-47-3.8-8.2-8.8-15.7-14.6-22.7-5.2-12.9-1.9-46.2-1.9-46.2-2.2 10-4.3 18.7-6.1 25.8-.3-13.1.9-26.4.9-26.4-.5 2.4-1 4.6-1.5 6.8.3-7.4.8-13 .8-13-2.6 11.9-5.1 22-7.2 29.8 0-11.7 1-22.6 1-22.6-1.5 7.2-3.1 13.7-4.5 19.4-.7-14 .8-29.8.8-29.8-1 4.5-1.9 8.7-2.9 12.7.3-5.3.6-9 .6-9-1.6 7.6-3.2 14.4-4.7 20.4.3-4.1.5-6.7.5-6.7-.5 2.2-1 4.3-1.4 6.4-.5-13.5.9-28 .9-28-2.1 9.9-4.2 18.4-6.1 25.6.3-6.2.7-10.7.7-10.7-.2.8-.3 1.5-.5 2.3.3-7.1.8-12.4.8-12.4-1 4.7-2 9-3 13.2.1-1.9.3-3.3.3-3.3-.5 2.4-1 4.6-1.5 6.8.3-7.4.8-13 .8-13-1.5 7.2-3.1 13.7-4.5 19.4-.4-13.4.9-27.4.9-27.4-1.2 5.4-2.3 10.3-3.4 14.9.2-2.1.3-3.7.3-3.7-.6 2.7-1.1 5.1-1.7 7.6.1-1.7.2-3 .2-3-.9 4.1-1.8 7.9-2.6 11.6-.1-11.7 1-22.6 1-22.6-1.7 7.8-3.3 14.7-4.9 20.9.2-10.1 1-18.7 1-18.7-.9 4-1.7 7.8-2.6 11.3.1-10.6 1-19.9 1-19.9-.7 3.3-1.4 6.4-2.1 9.4.3-4.3.5-7.2.5-7.2-1.8 8.6-3.7 16.1-5.3 22.7-1.2-.3-2.5-.5-3.7-.8.3-7.9.9-14 .9-14-1 4.8-2.1 9.3-3.1 13.5-.1 0-.2 0-.3-.1-.1-11.9 1-23 1-23-1.8 8.3-3.5 15.6-5.2 22.1-.4-13.4.9-27.6.9-27.6-2.2 10.3-4.4 19.2-6.3 26.6 0 0-.3-.1-.4-.1.3-7.9.9-14 .9-14-.5 2.2-.9 4.2-1.4 6.3 0-11.8 1-22.7 1-22.7-1 4.7-2 9-3 13.1.1-1.8.3-3.2.3-3.2-1.4 6.5-2.8 12.4-4.1 17.8-.1-12 1-23.4 1-23.4-.7 3-1.3 5.9-1.9 8.7.2-2.8.4-4.9.4-4.9-1.4 6.5-2.8 12.4-4.1 17.7.3-4.8.6-8.1.6-8.1-.7 3.3-1.4 6.3-2.1 9.3-.4-13.2.9-26.7.9-26.7-1.5 7.2-3.1 13.7-4.5 19.4v-.3c.3-4.9.6-8.4.6-8.4-.2.7-.3 1.4-.5 2.1.3-7.6.9-13.4.9-13.4-1.5 7-3 13.3-4.4 18.9.3-8 .9-14.1.9-14.1-1.4 6.4-2.7 12.1-4 17.4.3-8.3.9-14.9.9-14.9-1.4 6.5-2.8 12.4-4.1 17.7-.1-12.3 1-24.2 1-24.2-1.1 5.1-2.2 9.7-3.2 14.1.3-8.2.9-14.6.9-14.6-1.5 7.1-3 13.6-4.5 19.3.2-10.1 1-18.6 1-18.6-.9 4.2-1.8 8.1-2.7 11.8.2-2.3.3-4.1.3-4.1-1.8 8.5-3.6 15.9-5.3 22.4-.1-12.2 1-23.9 1-23.9-1.2 5.7-2.4 10.8-3.6 15.6.2-3.5.5-5.9.5-5.9-.3 1.6-.7 3-1 4.5.1-10.9 1-20.6 1-20.6-1.1 5-2.1 9.6-3.2 14 .3-7.6.9-13.3.9-13.3-.9 4.3-1.8 8.3-2.7 12.1.3-7 .8-12.2.8-12.2-1.6 7.5-3.2 14.3-4.7 20.3.3-7.4.8-13 .8-13-1.5 7.1-3 13.5-4.5 19.3.3-8.4.9-15 .9-15-.5 2.3-1 4.4-1.5 6.5.3-6.4.7-11.1.7-11.1-1.4 6.5-2.8 12.4-4.1 17.7-.1-12.3 1-24.2 1-24.2-.4 1.9-.8 3.6-1.2 5.4.2-3.2.4-5.5.4-5.5-3 14.1-6 25.8-8.3 34 0-1.2-.1-2.5-.1-3.7.2-10.1 1-18.8 1-18.8l-.3 1.5c.2-3 .4-5.1.4-5.1-1.2 5.8-2.5 11.1-3.7 16 .2-9.3.9-17 .9-17-1.4 6.5-2.8 12.4-4.1 17.7-.1-12.3 1-24.2 1-24.2-1.5 7.1-3 13.5-4.4 19.2 0-.5.1-1.2.1-1.2-.5 2.3-1 4.3-1.4 6.4-1 3.7-1.9 7.2-2.7 10.1-.1-11.9 1-22.9 1-22.9-.5 2.2-.9 4.2-1.4 6.3.3-5.7.7-9.9.7-9.9-3.1 14.4-6.2 26.2-8.5 34.5-.1-11.9 1-22.9 1-22.9-4.7 22.1-9.4 38-11.4 44.4-13.8 15.3-23.5 34.2-26.7 55.2-1 6.4-1.1 12.7-1 19 .2 10.8 1.3 21.5 2.4 32.2.1 1.4-.1 2.5-.4 3.7-.4 1.9-1.2 3.6-3 5.2-1.9 1.8-3.9 4.5-3.9 6.9 0 1.9.4 3.7.5 5.6.6 13.4 3 26.5 8.3 39 .8 1.7 2.8 3.6 4.6 4.1 8.3 2.6 10.1 4.8 10.2 13.9v18.9c0 5.6 0 11.2.3 16.7 0 .5-.1.9-.1 1.4.2 8.1-1.6 15.4-5.2 22.5-2.2 4.2-4.4 8.3-6.5 12.5-5.7 11.1-13.9 19.1-26.5 22.1-11.7 2.7-23.3 6.8-34.8-.9-1.5-1-3.5-1.5-5.3-1.9-8.6-1.8-16.2-5.3-21.6-12.8-2.1-3-5.5-5.1-8.5-7.4-36.6-27.3-90.6-29.3-130.6-4.7-35.8-54.1-83.7-69.8-144.3-45.3-1 .4-1.8.6-2.8 1 3.6-10.3 7-19.9 10.2-29.5 4.7-14.2 9.2-28.4 10.4-43.2.3-3.8.1-7.6-.1-11.5-.1-1.7.1-3.3-.1-4.9-.2-2-.2-4.2.3-6.2 8.1-31.3 14.6-63.2 28.4-92.8 2.6-5.5 6.3-10.4 9.6-15.9 1.4 1.2 1.7 1.4 1.9 1.7.2.3.4.7.5 1 2.3 12.4 10.4 17.6 22.3 18.3 1.5.1 3.3.8 4.5 1.8 7.3 6.1 15 5.8 23.9 3.9 7.2-1.6 15.1-.4 22.6-.4.3 0 .6.5.9.7 8.1 6.1 16.8 6 25.7 2.3 3.1-1.3 5.1-.3 8 .6 6.5 2 13.5 3.9 20.1 3.3 9.3-.7 14.6-9.1 14.7-18.3 0-.9.2-1.7.2-2.6-.9-9.5-1-19.1-1-28.7 0-1.7-.2-3.4-.2-5.1.1-7.1 1.3-14.2 1.7-21.3.1-1.7.4-3.4.4-5.1-.4-17.9-11.4-28.9-28.6-29.2-43.2-.7-86.4-.4-129.4 3.2-10.6.9-20.1 3.9-28.7 10.5-19.1 14.6-37 30.5-53.3 48-.2 0-31.7 36.5-39.4 46.3-12.2 15.6-24.4 43.8-30 56.5-7.4 14.8-14.7 29.7-21.7 44.8-14.1 30.4-26.6 61.7-45.1 89.8-6.1 9.2-8.2 18.2-7.3 27.2.7 6.6 2.7 13.1 7 19.8 11 17.3 24.8 31.6 43.1 41.5 4.5 2.4 8.4 6.2 11.9 10 3 3.2 19.4 25.2 44.1 46.1 24.7 20.9 59.6 35.1 75.7 40.3 16 5.2 62.4 3.8 93.5-.4 5.8-.8 7.7 1.1 9.2 5.8 6.7 21.4 14 42.6 20.1 64.1 6 21 9.8 42.6 16.5 63.4 19.6 60.9 53.8 111.3 109 145.8 2.4 1.5 5.5 2.2 8.3 2.8.2.1.5.1.7.1 1.7.8 6.4 6.5 13 44 2 11.2 5 26 5.5 27.1 2 7.2 15.5 31.1 20.4 41 .9 1.9 2.1 4.1 1.9 6.1-.1 1.2-.2 3.2-.3 5.5-.7 14.8-2 48.3-2 48.3l.3.3c42.1 50 116.7 131.9 178.8 131.9 62.4 0 150.4-71.7 187.2-131.8.1-.1.2-.2.2-.4 0 0-1.3-40.1-2.4-49.4 0-.3-.1-.8-.1-1-.6-4.2-.3-7.5 2.2-11.1 13.8-20 22.2-41.5 23.9-64.6.5-6.6.1-13.3-.5-20.1-.2-1.9 0-3.6-.2-5.5-.9-6.6 1.4-9.6 6.8-12.7 29.5-16.9 56.5-37 77.7-63.9 30.7-38.8 48.9-83.3 59.3-131.3 6.7-31 14.8-61.5 26.8-90.9 1.3-3.2 2.7-4.1 6.2-3.7 5.3.6 10.5 1.1 15.8 1.6.1.1.1.2.1.2s40.2 1.8 77.1-4.3c28-4.6 53.6-16.1 61.8-22.6 20.1-15.9 38.1-33.7 54.3-53.5 6.5-7.9 13-15.3 22.4-20.2 18.5-9.9 31.4-25.5 41.5-43.6 2.9-5.1 4.1-10.1 4.5-15.1.7-7.8-1.3-15.8-6.1-24zM847.4 873l53.2 163.7-139.2-101.2-139.2 101.2L675.3 873 536.1 771.8h172.1l53.2-163.7 53.2 163.7h172.1L847.4 873z"/><path fill="#3B5FAB" d="M760.8 666.9l39.4 121.4h127.7l-103.3 75 39.5 121.4-103.3-75-103.3 75L697 863.3l-103.3-75h127.7z"/></svg>