<svg xmlns:xlink="http://www.w3.org/1999/xlink"  xmlns="http://www.w3.org/2000/svg" viewBox="0 0 150 150"><path fill="#93111D" d="M118.6 25L82.9 71l25.3 17.4s-43 17.3-73.5 54.6c0 0 2.2-17.8 29.9-47.5 0 0-3.9-6.5-21.4-16.7 0-.1 50.7-50.1 75.4-53.8zM101.6 20.8c-1.2 7.1-7.8 11.9-14.9 10.8-7.1-1.1-11.9-7.8-10.8-14.9C77 9.6 83.6 4.8 90.7 5.9c7.1 1.1 12 7.8 10.9 14.9z"/><path fill="#242424" d="M42.2 57.5c-.7 4.5-4.9 7.6-9.4 6.8-4.5-.7-7.6-4.9-6.9-9.4.7-4.5 5-7.6 9.5-6.9 4.4.8 7.5 5 6.8 9.5zM121.6 57.5c-.7 4.5-5 7.6-9.4 6.8-4.5-.7-7.6-4.9-6.9-9.4.7-4.5 4.9-7.6 9.4-6.9 4.5.8 7.6 5 6.9 9.5zM51.7 60.6L35.5 81.5 47 89.4s-19.6 7.9-33.5 24.9c0 0 1-8.1 13.6-21.7 0 0-1.8-3-9.7-7.6 0 0 23.1-22.7 34.3-24.4zM137.2 54.6L121 75.5l11.5 7.9s-19.6 7.9-33.5 24.9c0 0 1-8.1 13.6-21.6 0 0-1.8-3-9.7-7.6-.1-.1 23-22.9 34.3-24.5z"/></svg>