<svg xmlns:xlink="http://www.w3.org/1999/xlink"  xmlns="http://www.w3.org/2000/svg" viewBox="0 0 2000 2000"><path fill="#619F42" d="M1132.8 1408.7c-64.6 28.3-60.6 16.2-202-24.2s-193.9 113.1-193.9 113.1c105 48.5 529.2 64.6 476.7 101-52.5 36.4-476.7-56.6-492.8-52.5-16.2 4-28.3-76.8-28.3-76.8s-149.5-101-307-137.4c-157.5-36.3-210.1 56.6-210.1 56.6 185.8-16.2 529.2 432.3 1009.9 440.3 480.7 8.1 492.8-270.6 391.8-387.8-100.9-117.1-379.7-60.5-444.3-32.3z"/><path fill="#619F42" d="M749 1433l60.6-84.8C438 1162.3 341 1295.7 341 1295.7c137.3-36.4 408 137.3 408 137.3zM991.4 1366H1149c-20.5 0-58.2-13.9-103.5-32.7-19.7 10.5-40.1 20.2-61.5 30 4.7 2.1 7.4 2.7 7.4 2.7zM724.8 1214.8c-92.9-4-165.6 12.1-165.6 12.1 80.6 0 265.6 71.7 365.4 113-73.2-38-135.3-79.9-186.9-123.8-4.6-.6-9-1.1-12.9-1.3z"/><path fill="#09743B" d="M888.6 172.1C407.9 164 395.8 442.8 496.8 559.9c101 117.1 379.7 60.6 444.4 32.3 64.6-28.3 60.6-16.2 202 24.2s193.9-113.1 193.9-113.1c-105-48.5-529.2-64.6-476.7-101 52.5-36.4 476.7 56.6 492.8 52.5 16.2-4 28.3 76.8 28.3 76.8s149.5 101 307 137.4c157.6 36.3 210.1-56.6 210.1-56.6-185.9 16.2-529.2-432.2-1010-440.3z"/><path fill="#09743B" d="M1324.9 568l-60.6 84.8c371.6 185.9 468.6 52.5 468.6 52.5-137.3 36.4-408-137.3-408-137.3zM1514.8 774c-29.2 0-72.1-9.5-119.7-23.4 7.4 10.8 13.5 22.6 18.3 35.4 60-2.8 101.4-12 101.4-12zM1082.5 635H925c32.5 0 108.5 34.3 189.4 69.6 25.6-10.4 53.4-18.3 82.1-22.7-65.6-26.1-114-46.9-114-46.9z"/><path fill="#B82325" d="M612.4 705.8c-128.1 74.9-108.5 311.6 125.3 510.4 51.6 43.8 113.4 85.8 186.6 123.8 17.8 9.2 31.7 18.3 54.7 27v.1-.1.1-.1c0-.6 3.1-1.3 4.5-1.9 21.4-9.9 42-20.1 61.7-30.6 316.3-168.4 419-411.5 368-548.5-4.8-12.8-10.8-24.6-18.2-35.4-12.4-18.2-28.3-33.4-47.8-44.8-48.9-28.6-101.2-33.2-150.7-25.7-28.7 4.4-56.5 12.9-82.1 23.3-67.6 27.4-120 67.9-134.6 79.7-29.6-24-215.5-166.3-367.4-77.3zM621 817c-5.3-42.6 35.8-82.9 91.8-89.8 55.9-6.9 105.6 22 110.9 64.6 5.3 42.6-35.8 82.9-91.8 89.8-55.9 6.9-105.6-22-110.9-64.6z"/><path fill="#FFF" d="M823.7 791.8c-5.3-42.6-54.9-71.6-110.9-64.6-56 6.9-97.1 47.2-91.8 89.8 5.3 42.6 55 71.5 110.9 64.6 56-7 97.1-47.2 91.8-89.8z"/></svg>