<svg xmlns:xlink="http://www.w3.org/1999/xlink"  xmlns="http://www.w3.org/2000/svg" width="100" height="100" viewBox="0 0 100 100"><g fill-rule="evenodd" clip-rule="evenodd"><path fill="#C195C4" d="M46.841 52c-1.629.354-2.371 1.501-2.273 2.959.65-.851 1.906-1.18 3.01-.831.825.26 1.527.139 2.035-.127.521.947 1.392.97 1.901 0 .521.266 1.217.387 2.043.127 1.103-.349 2.364-.02 3.015.831.091-1.465-.656-2.619-2.297-2.965-1.068.51-2.138.748-3.207.558 4.803-.445 2.84-4.166 6.833-4.446-1.414-.526-2.749-.478-4.027.238-2.28 1.275-1.861 2.073-3.304 3.821-1.391-1.778-1.142-2.611-3.309-3.821-1.273-.716-2.609-.764-4.023-.238 3.536.232 3.032 3.942 6.806 4.446-1.07.19-2.133-.042-3.203-.552zm3.061 1.821c.424-.313.667-.727.667-1.031 0 .305.237.719.668 1.031-.38.324-1.001.329-1.335 0zm.667-8.612c-2.5 1.938-1.114 4.378 0 6.644 1.216-2.191 2.382-4.796 0-6.644zm1.319 12.494c1.244.322 2.127 1.211 2.133 2.946.005 1.8 1.522 2.446 3.083 2.859-3.129.339-5.064-1.599-5.216-5.805zm-1.319-.053c1.93 3.73 1.866 6.239 0 7.658-1.867-1.418-1.94-3.927 0-7.658zm2.524-2.157c-.188.493-.198 1.057-.068 1.671-1.171-.299-3.745-.299-4.91 0 .125-.614.119-1.178-.074-1.671.888-.242 4.164-.242 5.052 0zm-3.842 2.21c-1.25.322-2.127 1.211-2.133 2.946-.005 1.8-1.521 2.446-3.083 2.859 3.123.339 5.058-1.599 5.216-5.805z"/><g fill="#2C586B"><path d="M49.251 81.893c-1.385-1.884-3.654-.688-2.302 1.171.758 1.032 2.619 1.545 1.89 3.361-1.522 3.764-5.86 3.826-9.006 1.153-2.998-2.535-1.595-7.114-.023-10.988 3.299-8.104-7.589-13.461-11.544-17.396-6.871-6.849-10.745-14.118-6.42-21.529 2.107-3.609 6.548-3.589 10.12-.894 1.922 1.459 3.234 3.45 2.075 5.583-.226-1.348-1.097-1.914-2.123-.936-1.004.953-.523 3.304-2.354 3.414 1.841.831 4.119.922 5.46-1.652 1.459-2.8-.289-5.303-2.83-7.198 3.322 1.562 6.954 1.106 8.26-1.974 1.324-3.114-.786-4.925-2.234-9.025-1.589-4.484 2.02-8.433 5.645-8.565 4.187-.159 6.455 3.376 5.324 6.171-.028-.682-.26-1.457-.968-1.514-.961-.079-1.256.766-1.635 1.604-.26.56-.973.428-1.47.354 1.414 1.42 3.586 2.119 4.752-.158 1.754-3.426-.877-7.369-5.962-7.083-6.421.359-7.722 5.547-5.686 11.116-4.446-2.328-7.381-.323-7.398 4.033-.006 1.124 1.301 2.272 2.397 1.604.77-.463.69-1.264.029-1.83-.47-.398-.934.094-1.266.523-1.392-3.218 2.703-6.39 5.723-3.759 4.283 3.733 1.154 9.34-4.882 7.618-6.193-1.763-8.999-1.058-11.513 2.18-1.932 2.495-3.23 5.666-1.683 11.981-2.617-1.991-5.807-3.34-9.245-.812-4.836 3.558-5.606 8.429-1.142 12.646 4.222 3.997 9.967.054 15.229.436 1.875.136 3.722 1.758 2.959 4.489-.3 1.054-1.562 1.281-2.354.518-.52-.497-.63-1.396-1.256-1.757-.777-.45-1.737.45-1.026 1.642.984 1.657 3.229 3.068 5.334.175 1.864-2.557-.227-5.386-3.482-5.647-4.008-.315-11.905 3.012-14.985-.353-3.686-4.032-3.292-8.399 1.423-11.542 2.744-1.827 6.121-1.445 8.338 1.052 3.081 3.468 5.626 6.738 8.499 9.53 5.023 4.875 11.432 9.781 10.578 16.038-.402 2.986-3.061 4.427-6.442 3.517-3.044-.822-4.429-3.146-4.473-6.47.349.844 1.477 1.233 2.097.085.571-1.068-1.251-2.084-1.197-3.675-3.072 4.367-1.567 8.809 2.721 11.018 1.879.968 3.967.773 6.088-.07-1.466 3.139-1.188 6.141 1.889 8.386 3.429 2.515 8.685 2.487 10.54-1.805.606-1.402.617-3.299-.469-4.766z"/><path d="M38.685 86.15c1.13.765 2.744.724 3.745-.384 1.754-1.937-.775-6.067.832-7.971.52-.604 2.019-.825 2.318.598.577-.699 1.709-.973 2.931-.396-1.443-1.779-4.39-2.072-5.606-.636-2.353 2.762.583 5.701-1.25 7.639-1.075 1.138-2.727-.106-3.581-1.413-1.081 1.111-.317 1.646.611 2.563zM35.663 79.432c-1.295-.042-2.387-1.222-2.212-2.309.696-4.294.487-4.97-1.651-6.092 1.221.19 2.019-.583 2.658-.224.922.509.436 1.305-.271 1.377.978 1.842-.408 3.293.158 4.786.719 1.878 2.693 2.271 4.006-.583.396 1.932-.641 3.501-2.688 3.045zM20.795 68.109c-3.541.096-1.64-4.601-5.365-5.619 6.524 1.301 3.128 3.663 5.365 5.619zM10.785 61.847c3.218-.466 1.875-2.994 6.528-3.724-1.276-.432-2.32-2.114-4.563-.776-2.129 1.275-1.298 3.415-1.965 4.5zM17.526 48.612c-3.754-.238-5.389 1.444-4.399 4.269.428 1.196 2.297 2.067 3.896.56-.682-.588-.594-1.195.09-1.536.826-.412 1.969.838 2.953 1.262-.996-.096-1.969.02-2.685.736-1.385 1.38-3.287 1.408-4.625-.431-.892-.202-1.44.746-1.146 1.519-1.582-.989-.577-2.492.654-2.582-.532-2.303.432-3.668 2.265-4.494 1.243-.695 2.038-.001 2.997.697zM27.227 58.537c-1.873-4.685.414-9.373 4.981-8.955 2.578.238 4.778 4.288 1.757 5.573.272.928.051 1.753-1.233 2.355 2.37.656 6.132-2.868 2.263-6.949-3.099-3.267-7.958-1.403-8.975 2.758-.416 1.719-.063 3.722 1.207 5.218z"/><path d="M36.122 45.167c1.527 2.619-2.382 2.45-1.522 5.504-2.321-3.572 1.143-3.317 1.522-5.504zM24.808 49.249c-.401-.869-.243-1.562.535-2.06-.644-.673-.826-1.227-.729-1.705.286-1.403 3.705-2.715 4.508-4.817.365-.958.371-1.974-.747-3.19-1.581-1.723-4.028-1.929-5.923-1.092-.54.699-1.081 1.403-1.624 2.103 1.884-1.409 3.798-2.113 6.384-.354 1.445.984 1.609 2.8.274 3.62-1.677 1.016-1.27-1.19-2.545-2.175-1.001-.769-2.345-.175-2.843.961.735-.141 1.677-.249 2.351.572.882 1.075 1.572 1.627 2.534 1.256-3.905 3.068-4.27 5.249-2.175 6.881zM42.842 23.956c-1.85 2.09-2.999-1.396-5.137.227-.045-.11-.226-.868-.152-.936 2.172-2.199 3.309 1.025 5.289.709z"/><g><path d="M50.949 81.893c1.38-1.884 3.659-.688 2.296 1.171-.758 1.032-2.607 1.545-1.878 3.361 1.511 3.764 5.86 3.826 9.006 1.153 2.987-2.535 1.59-7.114.012-10.988-3.292-8.104 7.598-13.461 11.552-17.396 6.867-6.849 10.749-14.118 6.414-21.529-2.098-3.609-6.538-3.589-10.114-.894-1.923 1.459-3.236 3.45-2.076 5.583.227-1.348 1.103-1.914 2.127-.936 1.002.953.521 3.304 2.354 3.414-1.851.831-4.12.922-5.466-1.652-1.454-2.8.294-5.303 2.829-7.198-3.321 1.562-6.953 1.106-8.26-1.974-1.324-3.114.792-4.925 2.234-9.025 1.59-4.484-2.014-8.433-5.641-8.565-4.196-.159-6.454 3.376-5.328 6.171.034-.682.255-1.457.967-1.514.962-.079 1.256.766 1.641 1.604.255.56.973.428 1.471.354-1.42 1.42-3.598 2.119-4.757-.158-1.754-3.426.882-7.369 5.962-7.083 6.422.359 7.716 5.547 5.68 11.116 4.453-2.328 7.383-.323 7.405 4.033.007 1.124-1.295 2.272-2.398 1.604-.764-.463-.685-1.264-.023-1.83.471-.398.928.094 1.263.523 1.385-3.218-2.703-6.39-5.72-3.759-4.288 3.733-1.154 9.34 4.883 7.618 6.188-1.763 8.994-1.058 11.505 2.18 1.936 2.495 3.237 5.666 1.687 11.981 2.613-1.991 5.811-3.34 9.243-.812 4.838 3.558 5.605 8.429 1.144 12.646-4.222 3.997-9.968.054-15.229.436-1.872.136-3.728 1.758-2.953 4.489.295 1.054 1.556 1.281 2.348.518.521-.497.629-1.396 1.251-1.757.78-.45 1.736.45 1.035 1.642-.984 1.657-3.23 3.068-5.34.175-1.861-2.557.231-5.386 3.484-5.647 4.01-.315 11.908 3.012 14.984-.353 3.689-4.032 3.294-8.399-1.424-11.542-2.738-1.827-6.116-1.445-8.334 1.052-3.083 3.468-5.634 6.738-8.496 9.53-5.024 4.875-11.439 9.781-10.584 16.038.406 2.986 3.061 4.427 6.443 3.517 3.037-.822 4.429-3.146 4.475-6.47-.351.844-1.477 1.233-2.099.085-.577-1.068 1.244-2.084 1.198-3.675 3.072 4.367 1.562 8.809-2.721 11.018-1.878.968-3.972.773-6.086-.07 1.464 3.139 1.175 6.141-1.891 8.386-3.439 2.515-8.688 2.487-10.544-1.805-.612-1.402-.623-3.299.469-4.766z"/><path d="M61.521 86.15c-1.137.765-2.744.724-3.75-.384-1.754-1.937.78-6.067-.832-7.971-.516-.604-2.02-.825-2.319.598-.582-.699-1.709-.973-2.931-.396 1.442-1.779 4.39-2.072 5.611-.636 2.342 2.762-.583 5.701 1.245 7.639 1.075 1.138 2.731-.106 3.581-1.413 1.076 1.111.317 1.646-.605 2.563zM64.542 79.432c1.29-.042 2.376-1.222 2.207-2.309-.691-4.294-.492-4.97 1.65-6.092-1.215.19-2.019-.583-2.657-.224-.917.509-.431 1.305.265 1.377-.979 1.842.413 3.293-.146 4.786-.718 1.878-2.698 2.271-4.011-.583-.402 1.932.644 3.501 2.692 3.045zM79.403 68.109c3.547.096 1.646-4.601 5.368-5.619-6.522 1.301-3.132 3.663-5.368 5.619zM89.422 61.847c-3.225-.466-1.884-2.994-6.534-3.724 1.272-.432 2.319-2.114 4.561-.776 2.137 1.275 1.293 3.415 1.973 4.5zM82.674 48.612c3.756-.238 5.39 1.444 4.396 4.269-.42 1.196-2.298 2.067-3.887.56.678-.588.593-1.195-.097-1.536-.82-.412-1.968.838-2.954 1.262 1.003-.096 1.976.02 2.689.736 1.385 1.38 3.279 1.408 4.627-.431.888-.202 1.437.746 1.137 1.519 1.59-.989.588-2.492-.656-2.582.537-2.303-.425-3.668-2.259-4.494-1.238-.695-2.04-.001-2.996.697zM72.977 58.537c1.873-4.685-.418-9.373-4.982-8.955-2.581.238-4.786 4.288-1.761 5.573-.266.928-.044 1.753 1.233 2.355-2.37.656-6.126-2.868-2.263-6.949 3.101-3.267 7.954-1.403 8.978 2.758.419 1.719.062 3.722-1.205 5.218z"/><path d="M64.084 45.167c-1.533 2.619 2.377 2.45 1.518 5.504 2.317-3.572-1.138-3.317-1.518-5.504zM75.394 49.249c.395-.869.242-1.562-.532-2.06.645-.673.825-1.227.729-1.705-.288-1.403-3.704-2.715-4.508-4.817-.362-.958-.374-1.974.747-3.19 1.577-1.723 4.021-1.929 5.917-1.092.537.699 1.086 1.403 1.628 2.103-1.883-1.409-3.806-2.113-6.386-.354-1.443.984-1.618 2.8-.272 3.62 1.669 1.016 1.268-1.19 2.546-2.175 1.001-.769 2.342-.175 2.84.961-.734-.141-1.674-.249-2.347.572-.883 1.075-1.573 1.627-2.535 1.256 3.896 3.068 4.27 5.249 2.173 6.881zM57.352 23.956c1.861 2.09 3.01-1.396 5.143.227.039-.11.222-.868.158-.936-2.184-2.199-3.315 1.025-5.301.709z"/></g></g><path fill="#2C586B" d="M40.868 31.987c-.367 3.742 1.245 5.441 4.107 4.556 1.211-.376 2.149-2.218.707-3.869-.616.662-1.216.552-1.533-.153-.385-.836.911-1.932 1.375-2.901-.136.995-.057 1.974.628 2.715 1.324 1.431 1.29 3.333-.605 4.602-.232.883.69 1.465 1.482 1.203-1.058 1.544-2.506.48-2.563-.752-2.319.45-3.648-.572-4.401-2.43-.646-1.272.073-2.035.803-2.971zM59.332 31.987c.374 3.742-1.244 5.441-4.106 4.556-1.205-.376-2.149-2.218-.702-3.869.611.662 1.217.552 1.533-.153.38-.836-.916-1.932-1.374-2.901.13.995.056 1.974-.634 2.715-1.324 1.431-1.284 3.333.61 4.602.226.883-.696 1.465-1.477 1.203 1.047 1.544 2.501.48 2.558-.752 2.319.45 3.648-.572 4.396-2.43.65-1.272-.074-2.035-.804-2.971z"/><g fill="#2C586B"><path d="M48.68 83.367c1.046 2.004.237 4.196-1.816 4.221-1.16.012-2.325-1.692-1.041-2.401-.159-.403-.096-.78.447-1.107-1.086-.19-2.602 1.556-.696 3.199 1.533 1.318 3.609.269 3.875-1.633a2.668 2.668 0 0 0-.769-2.279zM51.525 83.367c-1.046 2.004-.243 4.196 1.815 4.221 1.16.012 2.325-1.692 1.036-2.401.157-.403.096-.78-.447-1.107 1.086-.19 2.603 1.556.696 3.199-1.528 1.318-3.615.269-3.876-1.633-.105-.79.143-1.666.776-2.279z"/></g><g fill="#2C586B"><path d="M59.462 77.355c-1.527.637-.067 1.657-1.51 2.653 2.154-.802.831-1.657 1.51-2.653zM57.9 75.161c-1.159 1.173.571 1.556-.378 3.031 1.686-1.565.129-1.852.378-3.031zM60.062 80.392c-1.651-.023-.729 1.486-2.455 1.829 2.297.128 1.431-1.191 2.455-1.829z"/></g><g fill="#2C586B"><path d="M40.874 77.355c1.527.637.074 1.657 1.521 2.653-2.155-.802-.832-1.657-1.521-2.653zM42.44 75.161c1.16 1.173-.577 1.556.379 3.031-1.686-1.565-.13-1.852-.379-3.031zM40.279 80.392c1.651-.023.729 1.486 2.455 1.829-2.302.128-1.425-1.191-2.455-1.829z"/></g></g></svg>