<svg xmlns:xlink="http://www.w3.org/1999/xlink"  xmlns="http://www.w3.org/2000/svg" viewBox="0 0 2000 2000"><path fill="#1FB9E4" d="M627.6 261.5c8.7-6.2 14.4-16.3 14.4-27.8 0-18.9-15.3-34.2-34.2-34.2-18.9 0-34.2 15.3-34.2 34.2 0 18.9 15.3 34.2 34.2 34.2 3.4 0 6.5-.6 9.6-1.5-92 209.9 14.3 327.2 102.6 384.5-7.8-36.6-4.7-80.8 17.5-134.1-1.1.2-2.1.3-3.3.3-16.5 0-30-13.4-30-30s13.4-30 30-30c16.5 0 30 13.5 30 30 0 9.5-4.5 17.9-11.4 23.3 19.6 9.5 62.8 33.2 97.2 71.8 24.7-198.9-182-302.5-222.4-320.7zm311.7 297.3c11.1-33.9 34.2-69.3 75.4-104.6-12.6-3.6-22-15-22-28.8 0-16.5 13.4-30 30-30 16.5 0 30 13.5 30 30 0 16.6-13.5 30-30 30-.1 0-.2-.1-.4-.1 12.3 14.8 50.6 64.6 63.9 126.4 137.9-190.4-57.5-404.4-57.5-404.4C857 320.4 888.3 466.4 939.3 558.8zm94.1-382.1c18.9 0 34.2-15.3 34.2-34.2 0-18.9-15.3-34.3-34.2-34.3-18.9 0-34.2 15.3-34.2 34.3 0 18.9 15.3 34.2 34.2 34.2zM659.9 714.3c-86-208.7-363.4-167.6-363.4-167.6 23.6 230.7 171.9 281.7 278 288.1-25.3-28.8-44.6-70.5-51.4-130.3-5.5 5.8-13.2 9.4-21.7 9.4-16.5 0-30-13.4-30-30s13.5-30 30-30 30 13.5 30 30c0 6.1-1.8 11.7-5 16.5 15.2-1.7 75.1-6.6 133.5 13.9zm695.8 19.2c36.6-9.5 81.7-8.2 137.1 12-.4-1.9-.6-3.9-.6-6 0-16.5 13.5-30 30-30s30 13.5 30 30c0 16.6-13.4 30-30 30-11.2 0-20.9-6.2-26-15.4-7 18-29.7 69.9-71.9 110.2C1649.5 882 1738 615.7 1738 615.7c-216.3-82.9-328.7 25.9-382.3 117.8zM264.2 558.3c18.9 0 34.2-15.3 34.2-34.3 0-18.9-15.3-34.2-34.2-34.2-18.9 0-34.2 15.3-34.2 34.2 0 19 15.3 34.3 34.2 34.3zm1506.5 82.1c18.9 0 34.2-15.3 34.2-34.2 0-18.9-15.3-34.2-34.2-34.2-18.9 0-34.2 15.3-34.2 34.2 0 18.9 15.3 34.2 34.2 34.2zm-311.6-326.9c18.9 0 34.2-15.3 34.2-34.2 0-18.9-15.3-34.2-34.2-34.2-18.9 0-34.2 15.3-34.2 34.2 0 18.9 15.3 34.2 34.2 34.2zM1281 518c0-16.5 13.5-30 30-30s30 13.4 30 30-13.4 30-30 30c-7.7 0-14.6-3-20-7.7 3.2 20.7 9 75-6.4 129.3 202.9-98.9 144.5-373.1 144.5-373.1-228.6 37.9-270.4 188.9-270.1 295.2 27-26.9 67-48.7 125.8-59.3-2.3-4.3-3.8-9.1-3.8-14.4zm109.7 1253.3h-.2c84.9-212.1-20.7-325.9-110.9-381.2 8.3 35.8 6.4 79.3-13.4 132.1 15.8.8 28.5 13.8 28.5 29.8 0 16.6-13.5 30-30 30s-30-13.4-30-30c0-10.8 5.8-20.2 14.3-25.5-21.9-9.7-66.6-32.8-101.7-71.2-20.7 204.9 196.5 301.3 235.7 316.9-15.2 3.5-26.5 17-26.5 33.2 0 18.9 15.3 34.2 34.2 34.2 18.9 0 34.2-15.3 34.2-34.2 0-18.7-15.3-34.1-34.2-34.1zm-408-185.4c11.4 4.2 19.5 15.2 19.5 28 0 16.5-13.4 30-30 30-16.5 0-30-13.5-30-30 0-12.5 7.6-23.2 18.5-27.7-13.8-19.2-41.2-62-52.2-113.6-119.7 163.9 13.1 353.7 41.9 391.2-14.7 3.8-25.5 17.1-25.5 33 0 18.9 15.3 34.2 34.2 34.2 18.9 0 34.2-15.3 34.2-34.2 0-16.9-12.2-30.8-28.3-33.6 173.3-138.6 139.9-287.7 90.7-379.9-10.6 33.5-32.7 68.4-73 102.6zm750-126.2c-7.1 0-13.7 2.2-19.1 5.8-35.2-222.7-182.8-267-287.9-269.1 25.1 26.4 45.3 64.3 55.1 119.1 4.6-2.8 9.9-4.6 15.6-4.6 16.5 0 30 13.5 30 30 0 16.6-13.5 30-30 30s-30-13.5-30-30c0-4 .8-7.8 2.2-11.2-23.8 2.7-74.2 5.5-124.1-10 83.8 182.4 310.3 161.5 360.3 154.5-4 5.6-6.4 12.4-6.4 19.7 0 18.9 15.3 34.2 34.2 34.2 18.9 0 34.2-15.3 34.2-34.2.1-18.9-15.2-34.2-34.1-34.2zm-1024 66.6c0 16.6-13.5 30-30 30s-30-13.5-30-30 13.4-30 30-30c1.1 0 2.1.2 3.2.3-2.3-19.9-6.3-75.4 11.7-130C486 1456.7 533 1733.7 533 1733.7c229.9-28.4 278-177.5 282.2-283.7-26.6 24.3-64.6 43.6-118.7 52.4 7.3 5.4 12.2 14.1 12.2 23.9zm-172.3-452.1c-32.3-10.7-65.7-32.6-98.1-71.3-4.7 10.5-15.2 17.9-27.4 17.9-16.5 0-30-13.5-30-30 0-16.6 13.4-30 30-30 11.1 0 20.7 6.1 25.9 15 20-13.7 62.4-38.9 112.6-48.7-158.6-120.5-347.3 2-389.5 32.6-6-10.1-16.8-16.9-29.3-16.9-18.9 0-34.2 15.3-34.2 34.2 0 18.9 15.3 34.2 34.2 34.2 16.7 0 30.6-12 33.6-27.9 133.4 167.9 280.4 137.6 372.2 90.9zm1333.1-55.4c-14.6 0-27 9.3-31.9 22.2-142.9-173.6-292.5-137-384.2-85.6 35.1 10 71.8 32.6 108.1 75 4.6-10.6 15.2-18.1 27.5-18.1 16.5 0 30 13.5 30 30 0 16.6-13.4 30-30 30-14.7 0-26.9-10.7-29.5-24.7-18.5 14-61.3 43-113.4 55.3 165 115.1 350.3-18.6 389.1-49.5.2 18.7 15.4 33.9 34.2 33.9 18.9 0 34.2-15.3 34.2-34.2.1-18.9-15.2-34.3-34.1-34.3zM221.7 1398.9c-18.9 0-34.2 15.3-34.2 34.2 0 18.9 15.3 34.3 34.2 34.3 18.9 0 34.2-15.3 34.2-34.3 0-18.9-15.3-34.2-34.2-34.2zm403.1-99c-34.4 7.3-75.8 5-125.4-13.6 2.1 4.1 3.3 8.6 3.3 13.4 0 16.5-13.5 30-30 30-16.6 0-30-13.5-30-30 0-16.6 13.5-30 30-30 4.7 0 9.2 1.2 13.2 3.2 7.9-18 32.5-68.2 75.9-106.4-224.4-27.1-324 235.4-324 235.4 212.7 92 329.6-12.4 387-102zm-99.1 433.4c-18.9 0-34.2 15.3-34.2 34.2 0 18.9 15.3 34.2 34.2 34.2 18.9 0 34.2-15.3 34.2-34.2 0-18.8-15.3-34.2-34.2-34.2z"/><path fill="#E5A475" d="M824.3 1018.3c-74.6-111.4-184.3-47.7-214.5-27-3.3-8.6-11.6-14.8-21.4-14.8-12.7 0-23 10.3-23 23s10.3 23 23 23c9.9 0 18.3-6.3 21.6-15.2 99.5 121.9 214.3 11 214.3 11zm20.6 87.9c-127.3-61.4-189.8 64.7-200.8 89.9-3.6-2.4-8-3.8-12.6-3.8-12.7 0-23 10.3-23 23s10.3 23.1 23 23.1 23-10.4 23-23.1c0-4.1-1.2-7.9-3.1-11.2 150.1 57.9 193.5-97.9 193.5-97.9zm299.6-170.4C1288.3 998 1343 833.3 1343 833.3c-160.2-61.5-198.5 102.5-198.5 102.5zm-364.8 415.3c-1.4-.2-2.8-.4-4.2-.4-12.7 0-23 10.3-23 23s10.3 23 23 23 23-10.3 23-23c0-8.2-4.3-15.3-10.8-19.4 161.4-24.8 119.6-182.6 119.6-182.6-141.4 11.4-130.9 152.8-127.6 179.4zM850.9 932c-9.4-156.4-181.1-130.9-181.1-130.9C687.2 971.8 850.9 932 850.9 932zm347.9-247.8c-169.3 28-119.3 188.9-119.3 188.9 155.5-19.1 119.3-188.9 119.3-188.9zm-194.4 167.7c124.5-95.2 7.3-223.4 7.3-223.4-131.8 109.9-7.3 223.4-7.3 223.4zm-10.2 344.6c-112.1 78.5-41.1 189.8-21.3 216.7-8.9 3.2-15.4 11.6-15.4 21.6 0 12.7 10.3 23 23 23s23-10.3 23-23c0-10.9-7.6-19.9-17.7-22.3 122.7-102.5 8.4-216 8.4-216zM824.7 668c7.5-3.8 12.6-11.5 12.6-20.4 0-12.7-10.3-23-23-23s-23 10.3-23 23 10.3 23.1 23 23.1c1.9 0 3.7-.3 5.5-.7-67.4 153.1 91.4 201 91.4 201 64.8-127.4-63.4-192.5-86.5-203zm392.6 24.2c12.7 0 23-10.3 23-23s-10.3-23.1-23-23.1-23 10.4-23 23.1c0 12.7 10.4 23 23 23zm129.6 528.9c-6.1 0-11.6 2.4-15.8 6.3-27.5-162.5-185.3-117.2-185.3-117.2 14.1 138.4 149.9 128.2 180.3 124.2-1.4 3-2.3 6.3-2.3 9.8 0 12.7 10.3 23.1 23 23.1s23-10.4 23-23.1c.1-12.8-10.2-23.1-22.9-23.1zm18-374.2c12.7 0 23-10.3 23-23s-10.3-23.1-23-23.1-23 10.4-23 23.1c-.1 12.7 10.3 23 23 23zm46.8 165.5c-11.3 0-20.7 8.2-22.6 19-106.2-128.3-220.2-8.5-220.2-8.5 84.2 115 199.7 30.7 220 14.5 1 11.8 10.8 21.1 22.8 21.1 12.7 0 23-10.3 23-23 0-12.8-10.3-23.1-23-23.1zM1185 1368.6c-.9 0-1.8.2-2.8.3 58.6-154.2-100.5-195-100.5-195-57.2 125 61.7 185 91.7 197.9-6.8 4-11.5 11.4-11.5 19.8 0 12.7 10.3 23 23 23s23-10.3 23-23-10.2-23-22.9-23zm-169.2-741.2c12.7 0 23-10.3 23-23s-10.3-23-23-23-23 10.3-23 23 10.3 23 23 23zM651.7 808.1c12.7 0 23-10.3 23-23s-10.3-23-23-23-23 10.3-23 23c-.1 12.6 10.3 23 23 23z"/></svg>