<svg xmlns:xlink="http://www.w3.org/1999/xlink"  xmlns="http://www.w3.org/2000/svg" viewBox="0 0 2000 2000"><path fill="#65B287" d="M662.9 926.4c-174.4-18.6-330.9 107.7-349.6 282.2-18.6 174.4 107.7 330.9 282.2 349.6 174.4 18.6 331-107.7 349.6-282.1.4-4 .7-8.1 1-12 .1 3.4 0 6.8 0 10.2.9-14 1.2-27.8.4-41.5-17 144.8-147.5 249.3-292.8 233.8-146.3-15.6-252.2-146.9-236.6-293.2 14.2-133.2 124.3-232.6 254.3-237.6-1.5-2.9-2.9-5.8-4.3-8.7-1.5-.3-2.8-.5-4.2-.7zM1053.7 1276c18.6 174.5 175.2 300.8 349.6 282.1 174.5-18.6 300.7-175.1 282.2-349.6-18.7-174.5-175.2-300.8-349.6-282.2l-2.4.3c-1.5 3-2.9 6.1-4.5 9.1 129.3 5.8 238.5 104.9 252.7 237.5 15.6 146.3-90.3 277.5-236.6 293.2-145.3 15.5-275.8-89-292.8-233.8-.8 13.7-.5 27.5.4 41.5 0-3.4-.1-6.8 0-10.2.3 4 .6 8.1 1 12.1z"/><path fill="#0E955E" d="M1790.8 1238.1c-21.7-203.3-204.1-350.5-407.4-328.8-15.6 1.7-30.7 4.6-45.5 8.1 64.2-142.6 32.9-316.1-89.4-426.6-151.7-137.1-385.8-125.3-522.9 26.4-101.8 112.6-121.4 270.6-62.7 400.6-15.5-3.7-31.2-6.8-47.4-8.5-203.3-21.7-385.7 125.5-407.4 328.8-21.7 203.3 125.5 385.7 328.8 407.5 203.4 21.7 385.8-125.5 407.5-328.8 1.5-14.3 2-28.5 1.8-42.6 0-3.4.1-6.8 0-10.2-.3 4-.6 8-1 12-18.6 174.5-175.2 300.8-349.6 282.1-174.5-18.6-300.7-175.1-282.2-349.6C332.1 1034 488.6 907.7 663 926.3l4.2.6c1.4 2.9 2.8 5.8 4.3 8.7 19.8 38.3 46.7 73.8 80.6 104.4 10.7 9.7 22 18.4 33.5 26.6 2.7 2 5.4 4.1 8.2 5.9-3.1-2.6-6.2-5.2-9.2-7.9C654.4 947 644.3 746.1 761.9 615.9c117.6-130.2 318.5-140.3 448.6-22.7 130.2 117.6 140.3 318.5 22.7 448.7-13.3 14.7-27.8 27.8-43 39.4-3.5 2.7-7 5.3-10.5 7.8 2.5-1.4 4.8-3 7.2-4.4 10.2-5.9 20.1-12.4 29.7-19.4 20.8-15 40.5-32.1 58.4-51.9 21.8-24.1 39.8-50.3 54.1-77.9 1.6-3 3-6 4.5-9.1l2.4-.3c174.5-18.6 331 107.7 349.6 282.2 18.6 174.4-107.7 330.9-282.2 349.6-174.4 18.6-331-107.7-349.6-282.1-.4-4-.7-8.1-1-12-.1 3.4 0 6.8 0 10.2-.1 14.1.3 28.3 1.8 42.6 21.7 203.3 204.1 350.5 407.5 328.8 203.2-21.5 350.4-203.9 328.7-407.3z"/><path fill="#65B287" d="M1176.4 1094.7c13.9-8.6 27.3-18.4 40.2-29.2-9.7 7-19.6 13.5-29.7 19.4-3.5 3.4-7 6.7-10.5 9.8zM1233.1 1042.1c117.6-130.2 107.5-331-22.7-448.7-130.2-117.6-331-107.5-448.6 22.7-117.7 130.2-107.5 331 22.7 448.7 3 2.7 6.1 5.3 9.2 7.9-2.8-1.9-5.5-4-8.2-5.9 10.8 9 22 17.5 33.6 24.9-44.9-41.3-72.2-94.6-81.8-150.6.5.1.9.2 1.4.3-.5-.2-1-.3-1.4-.5-13.3-77.7 7.6-160.6 64.6-223.7 98.6-109.1 267.1-117.7 376.2-19 70.2 63.5 98.5 155.8 83.7 242.7-.5.2-1 .3-1.5.5.5-.1 1-.2 1.4-.3-8.3 48.1-29.5 94.4-64.6 133.3-2.2 2.5-4.6 4.8-6.9 7.2 15.1-11.7 29.6-24.8 42.9-39.5z"/><path fill="#0E955E" d="M955.4 124c3.4-1.6 7-3 10.6-4.2-3.6 1.2-7.2 2.6-10.6 4.2zM966.5 119.5c3.7-1.3 7.5-2.4 11.3-3.4-3.8 1-7.6 2.1-11.3 3.4zM886.6 200.1c.6-1.9 1.4-3.8 2.1-5.7-.7 1.9-1.5 3.8-2.1 5.7zM890.8 189c.9-2.1 1.9-4 2.9-6-1 1.9-2.1 3.9-2.9 6zM944.9 129.3c3.1-1.8 6.4-3.4 9.7-5-3.4 1.6-6.6 3.3-9.7 5zM914.9 152.7c-2 2.1-3.9 4.2-5.7 6.4 1.8-2.2 3.7-4.3 5.7-6.4zM1063.9 350.1c-1.9.8-3.9 1.6-5.9 2.3 2-.7 4-1.5 5.9-2.3zM896 178.4c1.2-2.1 2.5-4.2 3.8-6.2-1.4 2-2.7 4.1-3.8 6.2zM883.5 211.8c.4-1.8.9-3.5 1.4-5.3-.5 1.8-1 3.5-1.4 5.3zM978.1 116.1zM1074.6 345c-2.1 1.1-4.3 2.1-6.4 3.1 2.1-1 4.3-2 6.4-3.1zM1027.8 359.7c-1.4.2-2.9.4-4.3.5 1.4-.1 2.9-.3 4.3-.5zM934.9 135.6c2.8-2 5.8-3.8 8.8-5.5-3 1.7-6 3.5-8.8 5.5zM917 150.5c2.2-2.2 4.4-4.2 6.7-6.2-2.3 2-4.5 4-6.7 6.2zM954 209.3c0 68.8 58.3 124.5 130.2 124.5 2.8 0 5.6-.2 8.4-.4-5.2 4-10.7 7.5-16.5 10.8 38.9-21.5 65.2-61.7 65.2-107.8 0-68.7-58.2-124.5-130.1-124.5-7.1 0-14.1.7-20.9 1.8 4.1-.6 8.3-1.1 12.5-1.3-29.8 22.7-48.8 57.7-48.8 96.9zM881.6 223.9c.2-1.5.5-2.9.7-4.4-.3 1.5-.6 2.9-.7 4.4zM902.1 168.4c1.5-2.2 3.1-4.3 4.7-6.3-1.6 2-3.2 4.1-4.7 6.3zM1052.6 354.3c-1.8.6-3.7 1.2-5.6 1.7 1.9-.6 3.8-1.1 5.6-1.7zM925.6 142.6c2.5-2.1 5.1-4.1 7.8-6-2.7 2-5.3 4-7.8 6zM1040.7 357.5c-1.7.4-3.4.8-5.2 1.1 1.7-.3 3.5-.7 5.2-1.1z"/><path fill="#6EB68D" d="M906.8 162.1c-1.6 2.1-3.2 4.2-4.7 6.3-.8 1.2-1.6 2.5-2.4 3.7-1.3 2.1-2.6 4.1-3.8 6.2-.8 1.5-1.5 3-2.3 4.5-1 2-2 4-2.9 6-.8 1.8-1.4 3.6-2.1 5.4-.7 1.9-1.5 3.8-2.1 5.7-.7 2.1-1.2 4.2-1.7 6.4-.5 1.8-1 3.5-1.4 5.3-.5 2.5-.9 5.2-1.2 7.7-.2 1.5-.5 2.9-.7 4.4-.4 4.1-.7 8.3-.7 12.5 0 68.8 58.3 124.5 130.1 124.5 4.2 0 8.3-.2 12.4-.6 1.5-.1 2.9-.4 4.3-.5 2.6-.3 5.2-.7 7.7-1.1 1.7-.3 3.5-.7 5.2-1.1 2.1-.5 4.3-1 6.4-1.6 1.9-.5 3.7-1.1 5.6-1.7 1.8-.6 3.6-1.2 5.4-1.9 2-.7 4-1.5 5.9-2.3 1.4-.6 2.8-1.3 4.2-1.9 2.2-1 4.3-2 6.4-3.1l1.5-.9c5.8-3.2 11.3-6.8 16.5-10.8-2.7.2-5.5.4-8.4.4-71.9 0-130.2-55.7-130.2-124.5 0-39.2 19-76 48.7-98.8-4.2.3-8.4-.5-12.5-.5h-.1c-4.1 0-8.1 3.3-12 4.3-.1 0-.2 1-.2 1-3.9 1-7.6 2.6-11.3 3.9-.2.1-.4.4-.5.4-3.6 1.3-7.1 2.8-10.6 4.4-.3.1-.6.3-.9.5-3.3 1.5-6.5 3.2-9.7 5-.4.2-.8.5-1.2.7-3 1.7-5.9 3.6-8.8 5.6-.5.4-1 .7-1.5 1.1-2.7 1.9-5.3 3.9-7.8 6-.6.5-1.2 1.1-1.9 1.6-2.3 2-4.6 4.1-6.7 6.2-.7.7-1.4 1.5-2.1 2.2-2 2.1-3.9 4.2-5.7 6.4-.6 1-1.4 2-2.2 3z"/><path fill="#0E955E" d="M242.8 753.4c.6-2 1.4-3.9 2.1-5.8-.7 1.9-1.5 3.8-2.1 5.8zM239.7 765c.4-1.8.9-3.6 1.4-5.3-.5 1.8-1 3.5-1.4 5.3zM237.8 777.1c.2-1.5.5-2.9.7-4.4-.2 1.5-.5 3-.7 4.4zM271.2 705.9c-2 2.1-4 4.3-5.9 6.5 1.9-2.3 3.9-4.4 5.9-6.5zM310.2 762.6c0 68.7 58.3 124.5 130.2 124.5 2.8 0 5.6-.2 8.4-.4-5.3 4.1-11 7.8-17 11.1 39.2-21.4 65.7-61.8 65.7-108.1 0-68.7-58.2-124.5-130.1-124.5-15.8 0-30.8 2.8-44.8 7.7 11.5-4 23.7-6.5 36.4-7.3-29.8 22.8-48.8 57.7-48.8 97zM384 913c-1.4.2-2.8.4-4.3.5 1.5-.1 2.9-.3 4.3-.5zM258.3 721.7c1.5-2.2 3.2-4.4 4.8-6.5-1.6 2.1-3.3 4.3-4.8 6.5zM252.2 731.7c1.2-2.2 2.5-4.3 3.9-6.4-1.4 2.1-2.7 4.2-3.9 6.4zM247 742.2c.9-2.1 2-4.1 3-6.2-1.1 2.1-2.1 4.1-3 6.2zM291 688.9c2.9-2 5.9-3.9 9-5.7-3 1.8-6.1 3.7-9 5.7zM311.4 677.3c3.6-1.6 7.2-3.1 10.9-4.4-3.7 1.3-7.3 2.8-10.9 4.4zM300.9 682.7c3.3-1.8 6.6-3.6 10-5.1-3.4 1.5-6.7 3.2-10 5.1zM273.2 703.8c2.2-2.2 4.5-4.4 6.9-6.4-2.4 2.1-4.7 4.2-6.9 6.4zM408.9 907.5c-1.9.6-3.7 1.2-5.6 1.7 1.8-.5 3.7-1.1 5.6-1.7zM430.8 898.2c-2.2 1.2-4.4 2.2-6.6 3.2 2.2-1 4.5-2 6.6-3.2zM396.9 910.8c-1.7.4-3.4.8-5.1 1.1 1.7-.4 3.4-.8 5.1-1.1zM420.2 903.3c-2 .8-4 1.6-6 2.3 2-.7 4-1.4 6-2.3zM281.7 696c2.6-2.2 5.3-4.2 8-6.2-2.7 2-5.4 4-8 6.2z"/><path fill="#6EB68D" d="M263.1 715.2c-1.7 2.1-3.3 4.3-4.8 6.5-.8 1.2-1.5 2.4-2.3 3.6-1.3 2.1-2.7 4.2-3.9 6.4-.8 1.4-1.5 2.9-2.2 4.4-1 2-2.1 4.1-3 6.2-.7 1.7-1.4 3.5-2 5.3-.7 1.9-1.5 3.9-2.1 5.8-.7 2.1-1.1 4.2-1.7 6.3-.5 1.8-1 3.5-1.4 5.3-.5 2.5-.9 5.1-1.2 7.7-.2 1.5-.5 2.9-.7 4.4-.4 4.1-.7 8.3-.7 12.5 0 68.8 58.3 124.5 130.2 124.5 4.2 0 8.3-.2 12.4-.6 1.4-.1 2.9-.4 4.3-.5 2.6-.3 5.2-.7 7.7-1.1 1.7-.3 3.4-.7 5.1-1.1 2.1-.5 4.3-1 6.4-1.6 1.9-.5 3.8-1.1 5.6-1.7 1.8-.6 3.5-1.2 5.3-1.9 2-.7 4-1.5 6-2.3 1.4-.6 2.7-1.2 4-1.9 2.2-1 4.5-2.1 6.6-3.2.3-.2.6-.4.9-.5 6-3.3 11.7-7 17-11.1-2.8.2-5.5.4-8.4.4-71.9 0-130.2-55.7-130.2-124.5 0-39.3 19-74.2 48.7-97-12.7.8-24.9 3.3-36.4 7.3h-.1c-3.7 1.3-7.4 2.8-10.9 4.4-.2.1-.3.1-.5.2-3.4 1.6-6.8 3.3-10 5.1-.3.2-.6.3-.9.5-3.1 1.8-6.1 3.7-9 5.7-.4.3-.8.6-1.3.9-2.8 2-5.4 4-8 6.2-.6.5-1.1 1-1.6 1.4-2.4 2.1-4.7 4.2-6.9 6.4-.7.7-1.3 1.4-2 2.1-2 2.1-4 4.3-5.9 6.5-.6 1.1-1.3 2.1-2.1 3z"/><path fill="#0E955E" d="M1529.3 693c2.1-1.7 4.3-3.3 6.5-4.8-2.2 1.5-4.4 3.1-6.5 4.8zM1596.9 913.1c-1.7-.3-3.5-.6-5.2-.9 1.8.3 3.5.6 5.2.9zM1621.2 914.8c-2.1 0-4.1 0-6.2-.1 2.1.1 4.1.2 6.2.1zM1520.6 700.9c1.8-1.8 3.7-3.4 5.6-5.1-2 1.7-3.8 3.3-5.6 5.1zM1538.7 686c2.4-1.6 4.9-3.1 7.4-4.5-2.5 1.5-5 2.9-7.4 4.5zM1652.3 910.4c-5.3 1.4-10.7 2.5-16.2 3.2 5.5-.7 10.9-1.7 16.2-3.2zM1632.9 914.1c-2.2.2-4.5.3-6.7.5 2.2-.1 4.5-.3 6.7-.5zM1570.1 670.9c3.3-1.1 6.6-2 10-2.8-3.4.8-6.7 1.7-10 2.8zM1548.7 680c2.7-1.5 5.5-2.8 8.3-4.1-2.8 1.3-5.6 2.6-8.3 4.1zM1581.3 667.8c3.5-.8 7.1-1.5 10.7-2-3.6.5-7.1 1.1-10.7 2zM1571.8 743.2c-25.7 63.8 7.6 137.3 74.3 164 2.6 1.1 5.3 1.9 7.9 2.8 36-10.1 66.7-35.4 81.4-71.9 25.6-63.8-7.6-137.2-74.3-164-14.6-5.9-29.6-8.9-44.4-9.5 12.1.6 24.4 2.8 36.5 6.8-36.1 10.1-66.8 35.4-81.4 71.8zM1512.6 709.7c1.5-1.8 3.1-3.5 4.7-5.2-1.7 1.7-3.3 3.4-4.7 5.2zM1559.2 674.9c3-1.3 6.1-2.4 9.1-3.5-3.1 1.1-6.1 2.3-9.1 3.5zM1584.2 910.3c-1.4-.4-2.8-.7-4.2-1.1 1.4.4 2.8.7 4.2 1.1zM1609.2 914.5c-1.9-.1-3.8-.3-5.7-.5 1.9.2 3.8.4 5.7.5zM1505.4 719.3c1.2-1.8 2.5-3.4 3.8-5.1-1.3 1.7-2.6 3.3-3.8 5.1zM1499.1 729.8c.8-1.6 1.8-3 2.7-4.6-.9 1.5-1.8 3-2.7 4.6zM1604.7 664.6zM1592.9 665.7c3.7-.5 7.5-.9 11.3-1-3.8.1-7.6.4-11.3 1z"/><path fill="#6EB68D" d="M1568.2 905.1c3.9 1.6 7.8 2.9 11.7 4.1 1.4.4 2.8.7 4.2 1.1 2.5.7 5 1.3 7.6 1.8 1.7.4 3.5.6 5.2.9 2.2.4 4.3.7 6.5.9 1.9.2 3.8.4 5.7.5 1.9.1 3.9.2 5.8.3 2.1.1 4.1.1 6.2.1 1.7 0 3.3-.2 5-.2 2.2-.1 4.5-.2 6.7-.5 1.1-.1 2.1-.3 3.2-.5 5.5-.7 10.9-3.8 16.2-5.2.6-.2 1.2-2.4 1.8-2.4-2.6 0-5.3.3-7.9-.7-66.7-26.8-100-99.2-74.3-163 14.6-36.4 45.3-60.5 81.3-70.6-12.1-4-24.4-5.6-36.5-5.6h-.1c-4 0-7.9-.9-11.8-.7-.1 0-.3-.3-.4-.3-3.8.2-7.6.4-11.3.9h-.8c-3.6.5-7.2 1.1-10.7 1.9-.4.1-.9.2-1.3.3-3.4.8-6.7 1.7-10 2.8-.6.2-1.2.4-1.7.6-3.1 1.1-6.2 2.2-9.1 3.5-.7.3-1.5.7-2.2 1-2.8 1.3-5.6 2.6-8.3 4.1-.9.5-1.7 1-2.6 1.5-2.5 1.4-5 2.9-7.4 4.5l-3 2.1c-2.2 1.6-4.4 3.1-6.5 4.8-1.1.9-2.1 1.9-3.2 2.8-1.9 1.7-3.8 3.3-5.6 5.1-1.2 1.2-2.2 2.4-3.4 3.6-1.6 1.7-3.2 3.4-4.7 5.2-1.2 1.5-2.3 3-3.4 4.6-1.3 1.7-2.6 3.3-3.8 5.1-1.3 1.9-2.4 3.9-3.5 5.9-.9 1.5-1.9 3-2.7 4.6-1.9 3.6-3.7 7.4-5.2 11.3-25.7 63.6 7.6 137 74.3 163.8zM995 1062s-.4 10.5-1.9 29.4c.5 6.6 1.9 14.2 1.9 22.7V1062z"/><path fill="#6EB68D" d="M751.5 1891H995v-776.9c-13 136.8-61.4 511.9-243.5 776.9z"/><path fill="#0E955E" d="M996.9 1091.4c-1.4-18.9-1.9-29.4-1.9-29.4v829h247.5c-182.1-265-231.4-641.5-243.6-778.4-.8-8.5-1.5-14.6-2-21.2z"/></svg>