<svg xmlns:xlink="http://www.w3.org/1999/xlink"  xmlns="http://www.w3.org/2000/svg" width="100" height="100" viewBox="0 0 100 100"><path fill="none" d="M76.735 70.61c3.521.167 6.614-.29 9.255-1.011v-.845c-2.172.564-4.715.915-7.636.845-10.137-.242-21.437-5.521-21.437-5.521s14.48-25.812 21.923-24.585c2.733.45 5.106 1.892 7.15 3.808V14.329H11.417V61.51c2.585-2.045 7.117-4.283 14.817-4.651 16.548-.79 34.972 13.009 50.501 13.751zM56.223 45.588c4.483.262 7.866 5.688 7.866 5.688l-7.953 12.449c-9.773-4.092-15.364-5.428-15.364-5.428s10.97-12.973 15.451-12.709zm-15.932 4.201c2.444.025 4.958 2.813 4.958 2.813l-5.209 5.441c-6.618-2.014-9.236-1.83-9.236-1.83s7.041-6.45 9.487-6.424zM30.488 71.03c-7.31-5.629-14.868-5.918-19.071-5.499v.804c1.239-.19 2.719-.288 4.262-.078 3.652.497 9.815.819 17.837 9.632 2.697 2.961 6.154 8.097 10.076 13.012h3.619C40.856 82.604 35.62 74.982 30.488 71.03z"/><path fill="none" d="M71.518 85.501c-8.213-2.568-14.833-9.989-28.726-18.547-11.832-7.284-21.994-5.906-25.533-5.305-2.136.362-4.215 1.133-5.841 1.854v.821c4.095-1.771 11.71-3.795 21.471-.55 14.96 4.97 20.327 17.047 32.865 23.3a37.862 37.862 0 0 0 4.292 1.826H85.99v-3.064c-3.147 1.08-7.953 1.702-14.472-.335z"/><path fill="#4DA3DA" d="M32.888 63.774c-9.761-3.245-17.375-1.222-21.471.55v1.207c4.203-.419 11.761-.13 19.071 5.499 5.132 3.952 10.368 11.574 16.723 17.87h22.834a37.862 37.862 0 0 1-4.292-1.826c-12.538-6.253-17.905-18.33-32.865-23.3z"/><path fill="#81A33E" d="M76.735 70.61c-15.529-.742-33.953-14.541-50.501-13.752-7.7.368-12.231 2.606-14.817 4.651v1.993c1.626-.721 3.705-1.491 5.841-1.854 3.539-.602 13.702-1.979 25.533 5.305C56.684 75.511 63.304 82.932 71.517 85.5c6.52 2.037 11.325 1.415 14.473.335V69.6a29.626 29.626 0 0 1-9.255 1.01z"/><path fill="#53672E" d="M56.136 63.725l7.953-12.449s-3.383-5.426-7.866-5.688c-4.48-.264-15.451 12.709-15.451 12.709s5.591 1.336 15.364 5.428zM40.04 58.044l5.209-5.441s-2.514-2.788-4.958-2.813c-2.446-.026-9.487 6.425-9.487 6.425s2.618-.185 9.236 1.829z"/><path fill="#53672E" d="M91.97 8.35H5.437v86.532H91.97V8.35zM85.99 88.9H43.592c-3.922-4.915-7.379-10.051-10.076-13.012-8.022-8.813-14.185-9.135-17.837-9.632-1.543-.21-3.023-.112-4.262.078V14.329H85.99v28.972c-2.044-1.916-4.417-3.357-7.15-3.808-7.442-1.228-21.922 24.586-21.922 24.586s11.3 5.278 21.437 5.521c2.921.07 5.464-.28 7.636-.845V88.9z"/></svg>