<svg xmlns:xlink="http://www.w3.org/1999/xlink"  xmlns="http://www.w3.org/2000/svg" width="100" height="100" viewBox="0 0 100 100"><radialGradient id="a" cx="-1859.051" cy="1550.732" r="30.447" gradientTransform="matrix(1.1468 -.3534 .3693 1.1678 1616.519 -2398.325)" gradientUnits="userSpaceOnUse"><stop offset="0" stop-color="#fbcf10"/><stop offset="1" stop-color="#f79724"/></radialGradient><path fill="url(#a)" d="M87.624 49.661l-17.156 7.568c-1.809.798-2.758-.09-2.124-1.98l6.026-17.97c.634-1.89.212-2.118-.946-.507l-10.98 15.307c-1.156 1.61-2.409 1.314-2.799-.661l-3.694-18.773c-.389-1.976-.863-1.961-1.055.034L53.055 51.64c-.194 1.995-1.411 2.371-2.72.839l-12.439-14.56c-1.309-1.532-1.706-1.278-.888.565l7.778 17.512c.82 1.846-.041 2.792-1.919 2.116L25.014 51.69c-1.877-.677-2.095-.249-.482.946L39.84 64.03c1.61 1.2 1.34 2.465-.603 2.824l-18.472 3.411c-1.945.36-1.921.837.053 1.069l11.54 1.354c.972-.051 1.944-.116 2.917-.192a96.92 96.92 0 0 1 8.479-3.49c4.452-1.58 9.052-2.959 13.731-3.679 4.634-.714 9.303-1.224 13.941-1.927l1.401-.216c.807-.429 1.61-.866 2.405-1.314l2.093-1.822c.202-.185.401-.371.607-.553.231-.204.47-.404.713-.602l9.553-8.324c1.489-1.299 1.232-1.707-.574-.908z"/><radialGradient id="b" cx="-1859.052" cy="1550.729" r="25.089" gradientTransform="matrix(1.1468 -.3534 .3693 1.1678 1616.52 -2398.325)" gradientUnits="userSpaceOnUse"><stop offset="0" stop-color="#f79724"/><stop offset="1" stop-color="#fbcf10"/></radialGradient><path fill="url(#b)" d="M27.491 71.116l8.588 1.006a96.55 96.55 0 0 1 7.674-3.116c4.452-1.58 9.052-2.959 13.731-3.679 4.634-.714 9.303-1.224 13.941-1.927l.646-.102 10.51-9.161c1.49-1.298 1.232-1.706-.572-.908l-13.206 5.825c-1.804.794-2.755-.091-2.118-1.983l4.633-13.826c.634-1.892.213-2.118-.943-.507l-8.451 11.776c-1.153 1.612-2.406 1.316-2.796-.66L56.285 39.41c-.389-1.976-.863-1.961-1.057.034l-1.417 14.589c-.191 1.995-1.409 2.372-2.72.84L41.52 43.67c-1.309-1.533-1.706-1.281-.887.564l5.983 13.477c.82 1.843-.04 2.788-1.919 2.112l-13.735-4.94c-1.881-.674-2.097-.249-.486.949L42.258 64.6c1.611 1.199 1.34 2.463-.603 2.822L27.44 70.047c-1.944.359-1.92.84.051 1.069z"/><radialGradient id="c" cx="-1349.88" cy="2030.854" r="39.935" gradientTransform="matrix(1.2033 -.0392 .0599 1.2194 1559.861 -2459.73)" gradientUnits="userSpaceOnUse"><stop offset="0" stop-color="#fbcf10"/><stop offset="1" stop-color="#f79724"/></radialGradient><path fill="url(#c)" d="M89.311 33.507L68.772 50.193c-1.534 1.245-2.673.632-2.546-1.369l1.707-26.805c.127-2.002-.336-2.11-1.033-.243l-9.348 25.012c-.697 1.867-1.977 1.909-2.854.091L42.926 22.554c-.88-1.813-1.328-1.674-1.007.311l4.332 26.61c.323 1.987-.752 2.671-2.403 1.528L21.739 35.706c-1.651-1.141-1.97-.79-.712.784l16.838 21.098c1.26 1.575.674 2.717-1.306 2.556l-26.502-2.206c-1.977-.162-2.076.305-.22 1.044l24.866 9.911c1.856.739 1.919 2.035.144 2.892l-1.792.866c.74-.047 1.475-.098 2.213-.154a97.311 97.311 0 0 1 8.486-3.49c4.452-1.58 9.052-2.959 13.731-3.679 4.634-.714 9.303-1.224 13.941-1.927.466-.071.932-.144 1.396-.216a96.946 96.946 0 0 0 2.833-1.556c.112-.109.225-.215.335-.325a51.78 51.78 0 0 1 1.943-1.809c.39-.343.804-.686 1.236-.999l-2.237.332c-1.953.294-2.651-.81-1.552-2.463l14.717-22.123c1.099-1.652.748-1.98-.786-.735z"/><linearGradient id="d" gradientUnits="userSpaceOnUse" x1="-1353.909" y1="2061.303" x2="-1353.909" y2="2000.404" gradientTransform="matrix(1.2033 -.0392 .0599 1.2194 1559.861 -2459.73)"><stop offset="0" stop-color="#fdd204"/><stop offset=".537" stop-color="#fce66a"/><stop offset="1" stop-color="#fbf7c6"/></linearGradient><path fill="url(#d)" d="M75.99 61.304c.222-.216.448-.43.672-.643l-3.42.511c-1.958.294-2.655-.807-1.555-2.46L82.129 43.02c1.097-1.653.743-1.982-.79-.738l-14.57 11.836c-1.532 1.247-2.671.634-2.544-1.367l1.214-19.015c.124-2.004-.336-2.113-1.037-.245l-6.628 17.745c-.7 1.867-1.979 1.909-2.856.091L46.567 34.07c-.88-1.815-1.328-1.674-1.006.312l3.074 18.876c.321 1.987-.753 2.672-2.406 1.529L30.545 43.933c-1.651-1.142-1.97-.791-.712.786l11.945 14.966c1.257 1.576.674 2.72-1.307 2.556l-18.799-1.563c-1.979-.165-2.078.301-.222 1.041l17.641 7.029c.971.389 1.45.929 1.434 1.477a87.67 87.67 0 0 1 3.229-1.219c4.452-1.58 9.052-2.959 13.731-3.679 4.634-.714 9.303-1.224 13.941-1.927.466-.071.932-.144 1.396-.216a96.946 96.946 0 0 0 2.833-1.556c.113-.108.225-.214.335-.324z"/><radialGradient id="e" cx="-1349.843" cy="2030.854" r="25.088" gradientTransform="matrix(1.2033 -.0392 .0599 1.2194 1559.862 -2459.73)" gradientUnits="userSpaceOnUse"><stop offset="0" stop-color="#f79724"/><stop offset="1" stop-color="#fbcf10"/></radialGradient><path fill="url(#e)" d="M72.822 63.185c.8-.423 1.593-.854 2.377-1.295l-4.038.602c-1.957.294-2.652-.807-1.551-2.461l8.032-12.078c1.099-1.651.749-1.979-.786-.733l-11.212 9.108c-1.534 1.246-2.674.63-2.545-1.37l.93-14.63c.127-2.002-.334-2.112-1.031-.243l-5.103 13.653c-.697 1.868-1.979 1.911-2.855.093l-6.426-13.278c-.88-1.818-1.33-1.679-1.006.309l2.365 14.525c.322 1.987-.755 2.672-2.405 1.528L35.5 48.564c-1.651-1.141-1.97-.793-.712.784l9.19 11.515c1.26 1.578.674 2.719-1.306 2.556l-14.467-1.202c-1.979-.165-2.076.302-.22 1.041l13.575 5.409c.516.208.892.458 1.131.729.353-.132.706-.263 1.063-.39 4.452-1.58 9.052-2.959 13.731-3.679 4.634-.714 9.303-1.224 13.941-1.927l1.396-.215z"/><radialGradient id="f" cx="-33.648" cy="152.276" r="66.661" gradientTransform="rotate(-1.461 -4582.35 -3219.445)" gradientUnits="userSpaceOnUse"><stop offset=".154" stop-color="#fe0"/><stop offset=".356" stop-color="#fbb216"/><stop offset=".491" stop-color="#f6921e"/><stop offset=".654" stop-color="#c1481e"/><stop offset=".776" stop-color="#802b02"/><stop offset=".885" stop-color="#470500"/><stop offset=".952" stop-color="#300000"/></radialGradient><path fill="url(#f)" d="M77.771 58.434c-1.123-7.301-6.286-14.37-13.539-17.625-7.348-3.284-16.678-2.502-23.505 2.165-6.926 4.741-11.088 13.339-10.683 21.582.205 4.063 1.942 9.135 3.986 12.556.068-.005 11.579 1.822 21.389-1.564 13.784-4.76 21.772-7.767 22.07-7.808.649-2.716.722-6.432.282-9.306z"/><radialGradient id="g" cx="54.798" cy="71.95" r="34.466" gradientUnits="userSpaceOnUse"><stop offset="0" stop-color="#8bc53f"/><stop offset=".501" stop-color="#37b34a"/><stop offset=".572" stop-color="#2ca547"/><stop offset=".705" stop-color="#117f3d"/><stop offset=".776" stop-color="#006838"/><stop offset="1" stop-color="#000600"/></radialGradient><path fill="url(#g)" d="M18.125 74.507c11.75 2.754 24.123 2.475 35.827-1.29 12.912-4.156 24.012-8.326 37.749-7.425-12.366-.134-23.344 9.637-35.226 12.677-13.074 3.35-25.388-.569-38.35-3.962z"/><defs><filter id="h" filterUnits="userSpaceOnUse" x="18.125" y="65.668" width="73.576" height="14.078"><feFlood result="back" flood-color="#fff" flood-opacity="1"/><feBlend in="SourceGraphic" in2="back"/></filter></defs><mask maskUnits="userSpaceOnUse" x="18.125" y="65.668" width="73.576" height="14.078" id="j"><g filter="url(#h)"><defs><filter id="i" filterUnits="userSpaceOnUse" x="18.125" y="65.668" width="73.576" height="14.078"><feFlood result="back" flood-color="#fff" flood-opacity="1"/><feBlend in="SourceGraphic" in2="back"/></filter></defs><linearGradient id="k" gradientUnits="userSpaceOnUse" x1="55.629" y1="72.726" x2="56.438" y2="75.637"><stop offset="0" stop-color="#fff"/><stop offset=".052" stop-color="#e8e8e8"/><stop offset=".203" stop-color="#ababab"/><stop offset=".353" stop-color="#777"/><stop offset=".498" stop-color="#4c4c4c"/><stop offset=".638" stop-color="#2b2b2b"/><stop offset=".772" stop-color="#131313"/><stop offset=".895" stop-color="#050505"/><stop offset="1"/></linearGradient><path mask="url(#j)" fill="url(#k)" d="M18.125 74.507c11.75 2.754 24.123 2.475 35.827-1.29 12.912-4.156 24.012-8.326 37.749-7.425-12.366-.134-23.344 9.637-35.226 12.677-13.074 3.35-25.388-.569-38.35-3.962z"/></g></mask><linearGradient id="l" gradientUnits="userSpaceOnUse" x1="55.629" y1="72.726" x2="56.438" y2="75.637"><stop offset="0" stop-color="#8bc53f"/><stop offset="1" stop-color="#8bc53f"/></linearGradient><path fill="url(#l)" d="M18.125 74.507c11.75 2.754 24.123 2.475 35.827-1.29 12.912-4.156 24.012-8.326 37.749-7.425-12.366-.134-23.344 9.637-35.226 12.677-13.074 3.35-25.388-.569-38.35-3.962z"/></svg>