<svg xmlns:xlink="http://www.w3.org/1999/xlink"  xmlns="http://www.w3.org/2000/svg" width="100" height="100" viewBox="0 0 100 100"><path fill="#D0D2D3" d="M83.6 57.441c5.643 1.469 9.123 3.459 9.123 5.664 0 4.49-14.479 8.135-32.329 8.135s-32.321-3.645-32.321-8.135c0-2.205 3.479-4.195 9.122-5.664-7.94 1.676-12.996 4.182-12.996 6.988 0 5.041 16.211 9.115 36.195 9.115 19.991 0 36.195-4.074 36.195-9.115 0-2.806-5.055-5.312-12.989-6.988z"/><radialGradient id="a" cx="36.865" cy="39.909" r="27.992" gradientUnits="userSpaceOnUse"><stop offset="0" stop-color="#00adee"/><stop offset=".727" stop-color="#2e3191"/><stop offset="1" stop-color="#140958"/></radialGradient><path fill="url(#a)" d="M5.052 44.289c1.002-1.689 2.27-3.179 3.724-4.518a24.12 24.12 0 0 1 4.926-3.487 26.899 26.899 0 0 1 2.871-1.282 23.584 23.584 0 0 1 3.115-.88c1.075-.229 2.177-.344 3.301-.408 1.124-.051 2.27-.029 3.401.107s2.263.344 3.373.637c1.11.309 2.184.702 3.229 1.146 2.105.882 4.003 2.113 5.757 3.431 1.732 1.339 3.265 2.85 4.668 4.41 1.346 1.555 2.642 3.38 3.551 4.647.931 1.347 1.955 2.67 2.95 3.93.974 1.289 2.033 2.471 3.05 3.617a37.356 37.356 0 0 0 3.15 3.064c1.089.887 2.148 1.66 3.229 2.213a9.689 9.689 0 0 0 3.373 1.08c1.21.15 2.577.057 4.024-.336 1.46-.365 2.985-1.031 4.524-1.826 1.533-.809 3.101-1.754 4.711-2.756l.546.428c-2.207 2.857-4.74 5.58-7.964 7.441-1.617.914-3.407 1.566-5.27 1.797-1.861.234-3.78.035-5.563-.502-3.603-1.088-6.652-3.344-9.302-5.828-2.664-2.506-4.984-5.313-7.131-8.242-1.06-1.482-2.034-2.942-3.165-4.296-1.131-1.36-2.349-2.642-3.688-3.779-2.657-2.292-5.8-4.04-9.215-4.77-3.422-.752-7.017-.465-10.375.587a28.265 28.265 0 0 0-9.344 4.905l-.456-.53z"/><radialGradient id="b" cx="80.512" cy="53.873" r="31.549" gradientUnits="userSpaceOnUse"><stop offset="0" stop-color="#ffdd15"/><stop offset="1" stop-color="#8bc53f"/></radialGradient><path fill="url(#b)" d="M86.021 53.512c-1.218-1.604-2.879-2.809-4.683-3.667a20.326 20.326 0 0 0-5.786-1.661 29.964 29.964 0 0 0-6.086-.237c-2.048.095-4.096.38-6.115.76-2.048.415-4.21.788-6.38.788-2.155.015-4.39-.272-6.395-1.231-.3-.15-.593-.33-.873-.502 2.263 4.174 11.342 18.295 25.197 6.586 4.41-3.637 8.807-2.863 12.022.539a9.713 9.713 0 0 0-.901-1.375z"/><radialGradient id="c" cx="83.735" cy="45.66" r="37.993" gradientUnits="userSpaceOnUse"><stop offset="0" stop-color="#ffdd15"/><stop offset="1" stop-color="#f6921e"/></radialGradient><path fill="url(#c)" d="M51.1 47.403c1.891.681 3.96.752 5.979.609 2.033-.164 4.024-.544 6.064-1.06a39.778 39.778 0 0 1 6.381-.902c2.154-.106 4.331-.014 6.479.351 2.135.395 4.262 1.031 6.188 2.119 1.925 1.061 3.63 2.58 4.776 4.468.071.123.143.258.214.395-2.348-6.001-10.898-19.726-37.734-6.794a7.154 7.154 0 0 0 1.653.814z"/><radialGradient id="d" cx="24.36" cy="24.257" r="12.265" gradientUnits="userSpaceOnUse"><stop offset="0" stop-color="#00adee"/><stop offset=".727" stop-color="#2e3191"/><stop offset="1" stop-color="#140958"/></radialGradient><path fill="url(#d)" d="M25.28 27.162a4.333 4.333 0 0 1-4.332 4.332 4.336 4.336 0 1 1 4.332-4.332z"/></svg>