<svg xmlns:xlink="http://www.w3.org/1999/xlink"  xmlns="http://www.w3.org/2000/svg" viewBox="0 0 2000 2000"><path fill="#B55366" d="M920.4 1624.6L358 1227v-27.6l214.5 165.7c143.6-143.5-99.8-276.1-99.8-276.1L456 906.8 202.1 626.7C145.4 688.2 98.8 759.3 65.4 837.4l147.4 119.1 115.9 458.3 646.4 364.4c93.9-82.8-54.7-154.6-54.7-154.6z"/><path fill="#DF5857" d="M527.5 855.7l12.4 231.9S701.4 1224.2 631 1365l360.3 252.6s16.6-111.8-45.5-182.2c-62.1-70.4-252.6-215.3-252.6-215.3L631 988.2l16.6-12.4 74.5 231.9s78.7-41.4 78.7-99.4-78.7-430.7-78.7-430.7L479.7 437.5c-59.1 22.9-114.6 53.1-165.3 89.6l271.1 208.5-58 120.1z"/><path fill="#B55366" d="M1813.3 626.7l-253.8 280.1L1543 1089s-244.9 132.5-101.4 276.1l213.4-165.7v27.6l-561.2 397.6s-148.1 71.8-54.2 154.6l646.5-364.4 116.2-458.3 147.6-119.1c-33.5-78.1-79.8-149.2-136.6-210.7z"/><path fill="#DF5857" d="M1214.5 1108.3c0 58 78.7 99.4 78.7 99.4l74.5-231.9 16.6 12.4-62.1 231.9s-190.5 144.9-252.6 215.3c-62.1 70.4-45.6 182.2-45.6 182.2l360.3-252.6c-70.4-140.8 91.1-277.4 91.1-277.4l12.4-231.9-58-120.1 271.1-208.5c-50.7-36.5-106.2-66.7-165.3-89.6l-242.4 240.2s-78.7 372.7-78.7 430.6z"/><path fill="none" d="M1000.3 625.1"/><path fill="#B55366" d="M917 659.7v408.9c-24 111.3-119.4 135.1-119.4 135.1l37.9 31.8C927 1219.6 953 1116.3 953 1116.3v214.6l47 39.7V625h-73.3c-54.7 0-128.7-27.5-180.9-87.5L727.4 561S810 649.7 917 659.7zM940.5 577.8c0 12.1 9.8 21.9 21.9 21.9 12.1 0 21.9-9.8 21.9-21.9 0-12.1-9.8-21.8-21.9-21.8-12.1-.1-21.9 9.7-21.9 21.8zM1095.5 577.8c0-12.1-9.8-21.8-21.9-21.8-12.1 0-21.9 9.8-21.9 21.8 0 12.1 9.8 21.9 21.9 21.9 12.2-.1 21.9-9.9 21.9-21.9zM1036 625v745.7l48-39.7v-214.6s23.7 103.4 115.1 119.3l37.5-31.8s-105.5-23.8-117.5-135.1v-409c107-8.8 190.3-98.2 190.3-98.2l-19.4-24.1c-52.2 60-127 87.5-181.8 87.5H1036z"/><path fill="#98C21F" d="M1015.6 384.7c98.4 0 184.1 54.8 228.1 135.6-24.4-103.4-117.1-180.5-228.1-180.5-110.9 0-203.6 77-228 180.5 43.9-80.8 129.5-135.6 228-135.6z"/></svg>