<svg xmlns:xlink="http://www.w3.org/1999/xlink"  xmlns="http://www.w3.org/2000/svg" width="100" height="100" viewBox="0 0 100 100"><path fill="#003837" d="M53.403 88.702c0 4.12-1.954 6.489-4.357 6.489-2.412 0-4.367-2.369-4.367-6.489 0-6.532 4.367-9.423 4.367-17.099 0 7.676 4.357 10.567 4.357 17.099zM64.019 85.64c1.28 3.925.155 6.772-2.132 7.516-2.287.744-4.879-.901-6.146-4.826-2.02-6.215 1.227-10.301-1.141-17.601 2.367 7.299 7.397 8.699 9.419 14.911zM73.18 79.438c2.427 3.343 2.241 6.4.297 7.815-1.945 1.409-4.915.646-7.344-2.691-3.834-5.287-2.009-10.18-6.522-16.391 4.513 6.211 9.74 5.985 13.569 11.267zM79.979 70.719c3.338 2.418 4.106 5.39 2.689 7.338-1.412 1.946-4.473 2.13-7.806-.289-5.291-3.842-5.065-9.059-11.271-13.572 6.206 4.513 11.105 2.678 16.388 6.523zM83.748 60.326c3.926 1.271 5.573 3.854 4.824 6.138-.742 2.293-3.598 3.414-7.522 2.142-6.207-2.019-7.604-7.054-14.911-9.428 7.307 2.374 11.398-.87 17.609 1.148zM84.12 49.27c4.126 0 6.488 1.948 6.488 4.354s-2.362 4.354-6.488 4.354c-6.533 0-9.424-4.354-17.097-4.354 7.673 0 10.564-4.354 17.097-4.354zM81.05 38.643c3.925-1.271 6.78-.15 7.522 2.141.749 2.284-.898 4.867-4.824 6.144-6.216 2.023-10.302-1.236-17.609 1.138 7.307-2.375 8.704-7.405 14.911-9.423zM74.862 29.48c3.333-2.419 6.394-2.236 7.806-.288 1.417 1.947.648 4.909-2.689 7.337-5.282 3.845-10.182 2.011-16.388 6.523 6.206-4.512 5.98-9.729 11.271-13.572zM66.133 22.686c2.429-3.336 5.398-4.106 7.344-2.696 1.944 1.419 2.13 4.478-.297 7.819-3.829 5.282-9.056 5.051-13.569 11.268 4.513-6.216 2.683-11.104 6.522-16.391zM55.74 18.919c1.268-3.925 3.859-5.571 6.146-4.827 2.287.744 3.407 3.591 2.132 7.516-2.021 6.216-7.052 7.617-9.419 14.911 2.368-7.294-.878-11.385 1.141-17.6zM44.679 18.545c0-4.118 1.955-6.488 4.367-6.488 2.403 0 4.352 2.37 4.352 6.488 0 6.539-4.352 9.423-4.352 17.095 0-7.672-4.367-10.557-4.367-17.095zM34.06 21.608c-1.271-3.925-.15-6.772 2.136-7.516 2.297-.744 4.875.908 6.146 4.833 2.021 6.209-1.227 10.3 1.141 17.594-2.367-7.294-7.407-8.699-9.423-14.911zM24.903 27.81c-2.432-3.341-2.242-6.4-.286-7.819 1.935-1.41 4.904-.641 7.332 2.696 3.835 5.287 2.01 10.175 6.523 16.391-4.513-6.217-9.739-5.986-13.569-11.268zM18.104 36.529c-3.336-2.422-4.106-5.39-2.688-7.337 1.412-1.948 4.473-2.131 7.804.288 5.292 3.843 5.066 9.06 11.272 13.572-6.206-4.512-11.106-2.678-16.388-6.523zM14.334 46.927c-3.925-1.277-5.568-3.859-4.825-6.144.744-2.292 3.594-3.413 7.519-2.141 6.211 2.018 7.609 7.048 14.911 9.423-7.302-2.374-11.393.885-17.605-1.138zM13.962 57.979c-4.125 0-6.488-1.948-6.488-4.354s2.362-4.354 6.488-4.354c6.543 0 9.423 4.354 17.098 4.354-7.674-.001-10.564 4.354-17.098 4.354zM17.028 68.605c-3.925 1.272-6.774.151-7.519-2.142-.744-2.283.9-4.867 4.825-6.138 6.211-2.019 10.303 1.226 17.604-1.148-7.301 2.375-8.698 7.41-14.91 9.428zM23.22 77.768c-3.332 2.419-6.393 2.235-7.804.289-1.418-1.948-.648-4.915 2.688-7.338 5.287-3.845 10.182-2.01 16.389-6.523-6.207 4.513-5.981 9.73-11.273 13.572zM31.949 84.562c-2.428 3.343-5.397 4.101-7.332 2.691-1.956-1.415-2.136-4.473.286-7.815 3.835-5.281 9.056-5.056 13.569-11.262-4.513 6.206-2.688 11.098-6.523 16.386zM42.342 88.329c-1.267 3.925-3.849 5.57-6.146 4.826-2.287-.743-3.408-3.591-2.136-7.516 2.021-6.212 7.056-7.611 9.423-14.911-2.367 7.3.88 11.391-1.141 17.601z"/><path fill="#8B9798" d="M55.615 53.624a6.568 6.568 0 0 1-6.569 6.569 6.573 6.573 0 0 1-6.578-6.569c0-3.628 2.945-6.568 6.578-6.568a6.567 6.567 0 0 1 6.569 6.568z"/></svg>