<svg xmlns:xlink="http://www.w3.org/1999/xlink"  xmlns="http://www.w3.org/2000/svg" width="100" height="100" viewBox="0 0 100 100"><path fill="none" d="M50.806 65.203c.012.033.022.066.037.099v-.19l-.037.091z"/><path fill="#5E4065" d="M49.031 8.363l-41.799 20.9 5.018 9.198 36.781-20.066 39.296 19.23 4.182-6.689zM24.867 77.754h-7.604v10.868h9.496c.29-3.612-.67-7.533-1.892-10.868zM71.605 88.622h10.868V77.754h-8.369c-3.819 5.954-2.754 10.091-2.499 10.868z"/><path fill="#C1A5BF" d="M46.181 29.493c-17.117 3.852-14.003 24.374-14.003 24.374l14.333.209-.33-24.583z"/><path fill="#9A7EA0" d="M51.004 29.486l-.278 24.578 13.787-.214c0 .001 2.966-20.523-13.509-24.364z"/><path fill="#B88CBF" d="M37.737 67.936c.568-3.062 1.563-6.953 3.088-8.715l2.197 1.097c1.342-1.391 2.392-2.076 2.997-2.402v-1.878H32.368v5.076c1.541 2.187 3.165 5.205 4.148 9.232.397-.837.803-1.64 1.221-2.41z"/><path fill="#39B44A" d="M42.642 68.118c-.107.186-.213.368-.316.559-.011.048-.019.099-.029.146l.202.022.143-.727z"/><path fill="#5E4065" d="M50.843 65.111v.19a73 73 0 0 1 .723 2.044c.543-.994 1.093-1.86 1.588-2.396l2.802 1.907a51.704 51.704 0 0 1 1.236-2.509l1.761.763 1.886.59c-.29-1.785-.551-3.348-.749-4.481l-.318-1.849 1.859-.19.326-.033 1.415-.146.177.571.279-.616.663-.07v-2.838H50.843v8.163l.289.144a8.652 8.652 0 0 0-.289.756z"/><path fill="#FFF" d="M61.417 76.908c.813-.376 1.519-2.892 2.01-5.962-.103-.674-.201-1.353-.308-2.024-1.486 4.482-2.575 8.389-1.702 7.986zM44.42 80.398c.107.448.247.771.396 1.027.18-.177.264-.771.209-1.937-.199-4.404 1.911-10.054 3.371-13.394a147.181 147.181 0 0 0-1.27-4.78c-1.176 5.007-3.509 15.751-2.706 19.084zM37.671 78.656c.701-2.542 1.287-6.399 1.287-6.906 0-.085.008-.219.026-.381-.568 1.24-1.049 2.45-1.394 3.568-.513 1.677-.362 2.887.081 3.719zM46.548 77.972c0 1.118.304 2.211.745 3.077.909-1.045 1.694-2.611 1.833-3.379.092-.518.477-1.636 1.005-2.989-.375-2.655-.998-5.541-1.6-8.028-.975 3.497-1.983 8.599-1.983 11.319zM50.34 80.854c.003.007.003.014.003.019.073-.435.132-.921.147-1.534a23.795 23.795 0 0 0-.081-2.215c-.326 1.544-.414 2.894-.069 3.73zM63.955 66.453c-.081.239-.165.481-.249.724.043.209.084.418.128.624.044-.451.088-.9.121-1.348z"/><path fill="#464948" d="M30.071 78.759c-2.039-2.725-5.398-8.289-7.5-9.892 0 0 7.152 11.454 5.85 20.826l41.619-.275s-3.858-9.097 9.921-20.672c0 0-6.881 5.319-10.347 9.794.04-2.447 4.248-8.004 4.248-8.004-3.492 1.519-4.552 6.68-6.221 6.98-1.674.304 5.31-13.659 5.31-13.659s-5.31 8.043-6.374 10.472c-.41.935-.773 1.752-1.041 2.203-.11-.526-.22-1.078-.334-1.653a8.83 8.83 0 0 0 .011-.095c.245-1.978-.18-6.467-.62-10.153.532-1.504 1.05-2.927 1.493-4.148l-1.075.11a43.42 43.42 0 0 0-.707 1.709c-.081-.612-.15-1.144-.217-1.613h-.015c.04.62.063 1.315.056 2.079-.29.777-.577 1.581-.852 2.402-.356-1.559-.733-3.011-1.137-4.279l-.33.032c.241 1.394.59 3.456.96 5.776-1.565 4.879-2.838 9.798-3.477 10.517-1.214 1.364.455-11.536.455-11.536-2.763 5.3-2.791 11.229-2.597 14.073-.961-2.823-.88-7.46 1.592-14.59 0 0-5.241 9.922-5.241 15.713 0 4.948-.76-1.903-2.024-7.508 1.265-3.704 2.959-7.237 2.959-7.237-.858.939-2.148 3.507-3.249 6.016a47.235 47.235 0 0 0-.393-1.461 77.314 77.314 0 0 0-1.845-5.449c.213-.66.415-1.217.598-1.618-.15.305-.382.774-.675 1.409-.701-1.845-1.309-3.217-1.684-3.991.341-1.438.572-2.335.572-2.335-.206.333-.506.971-.851 1.778-.019-.033-.048-.092-.062-.114 0 0 .018.056.043.154-1.203 2.842-2.927 7.941-2.927 11.23 0 1.691-.631 3.661-1.408 5.193-.796-2.622-1.471-5.835-1.471-8.076 0 0-1.064 6.829 0 9.559.073.194.103.371.11.532-.778.77-1.46.762-1.632-.683-.224-1.867.399-6.234 1.089-10.189 2.318-4.191 5.128-7.999 6.5-8.781 0 0-2.575.933-6.056 6.328.554-2.976 1.049-5.268 1.049-5.268-1.273 1.467-2.226 5.314-2.744 8.157-1.118 2.069-2.292 4.563-3.48 7.629-.088.235-.172.433-.257.653-.015-.216-.033-.423-.048-.653-.755-12.444-8.193-17.91-8.193-17.91 1.063.761 4.401 7.288 5.161 11.69.759 4.397-1.064 6.977-1.519 5.307-.455-1.665-4.673-7.094-4.699-7.127l-.007-.003c0 .003.003.003.003.003 2.636 3.362 3.472 8.59 3.71 10.648zm33.884-12.306c-.033.448-.077.896-.121 1.348-.044-.206-.085-.415-.128-.624.084-.242.168-.485.249-.724zm-.836 2.469c.106.672.205 1.351.308 2.024-.491 3.07-1.196 5.586-2.01 5.962-.873.403.216-3.504 1.702-7.986zM50.491 79.339a10.52 10.52 0 0 1-.147 1.534c0-.005 0-.012-.003-.019-.345-.837-.257-2.187.069-3.73.058.789.095 1.541.081 2.215zm-.36-4.658c-.528 1.354-.914 2.472-1.005 2.989-.14.768-.924 2.334-1.833 3.379a6.945 6.945 0 0 1-.745-3.077c0-2.72 1.008-7.821 1.984-11.319.601 2.487 1.225 5.372 1.599 8.028zm-3.004-13.366c.282 1.001.759 2.711 1.27 4.78-1.46 3.34-3.569 8.989-3.371 13.394.054 1.166-.03 1.76-.209 1.937a3.655 3.655 0 0 1-.396-1.027c-.804-3.334 1.529-14.078 2.706-19.084zM37.59 74.938c.345-1.118.826-2.328 1.394-3.568a3.736 3.736 0 0 0-.026.381c0 .507-.586 4.364-1.287 6.906-.443-.833-.594-2.043-.081-3.719z"/></svg>