<svg xmlns:xlink="http://www.w3.org/1999/xlink"  xmlns="http://www.w3.org/2000/svg" viewBox="0 0 2000 2000"><path fill="#8DBD62" d="M1645.6 518c3.2 7.3 6.1 14.7 8.8 22.2-2.7-7.5-5.7-14.9-8.8-22.2zM1672.9 621.9c.8 8.2 1.5 16.5 1.7 24.9-.3-8.4-.9-16.7-1.7-24.9zM1669.3 596.8c1 5.8 1.9 11.7 2.6 17.6-.7-5.9-1.6-11.7-2.6-17.6zM1605 446.7c10.1 14 19.1 28.6 27.2 43.6-8.1-15-17.1-29.6-27.2-43.6zM1674.6 667.3c-.2 5.7-.5 11.4-1 17 .4-5.7.8-11.3 1-17zM1654.7 541.2c2.8 7.9 5.3 16 7.5 24.1-2.2-8.2-4.7-16.2-7.5-24.1zM1663.5 570.3c1.6 6.2 3.1 12.5 4.3 18.8-1.2-6.3-2.7-12.5-4.3-18.8zM1634.4 494.7z"/><path fill="#63B0E3" d="M1075.1 1133.8c-290.6-22.4-582-158.8-749.6-379.2 0 0 17.6 194 449.8 423.3 158.8 88.2 70.6 379.2-88.2 608.5-97 114.6 132.3 26.5 335.1-255.8 70.5-97-12.9 231-12.9 231s109.9-81.1 242.2-530.9c0-26.5 229.3-70.5 326.3-273.4-18 19.5-158.7 202.9-502.7 176.5zm168.5 72.5s-73.8 286-179.9 429.1c-32.3 60 46.1-115.4 0-156.9s-78.4 138.4-341.4 299.9c0 0 129.9-104.5 210.4-277.2 47.6-110.6 92.3-264.6 11-331.8-2.6-2.8-4.6-5.3-6.3-7.5-30.8-20.6-58.1-24.4-35.3-29.4 41.5-9.2 216.9 64.6 415.3-4.6 147.6-55.4-73.8 78.4-73.8 78.4z"/><path fill="#FFFFFE" d="M1113.4 1015.4c68.3-17.8 115.4-64.3 105.1-103.9-10.3-39.6-74.1-57.3-142.4-39.6-68.3 17.8-115.4 64.3-105.1 103.9 10.3 39.7 74.1 57.4 142.4 39.6z"/><path fill="#8DBD62" d="M1668.5 722.4c2.2-11.6 3.9-23.4 4.9-35.3-1.2 13.2-3.1 26.2-5.6 39.1-112.6-45.2-187-77.4-478-51-714 64.9-958.4-173.8-1026.5-263.7 6.8 6.4 15.6 12.9 26.9 18.6-34.7-29-49.8-54.7-49.8-54.7 317.5 705.5 987.7 705.5 987.7 705.5l.1-.1c15.9.7 31.9.9 48.1.4 237.4-7.3 432.9-146 484.9-327.4 63.1 36.6 119.4 94.4 146 186 17.6 52.9 52.9 8.8 52.9-35.3-.1-27.3-54.2-122.1-191.6-182.1zm-592.4 149.5c68.3-17.8 132.1-.1 142.4 39.6 10.3 39.6-36.7 86.2-105.1 103.9-68.3 17.8-132.1.1-142.4-39.6-10.3-39.6 36.8-86.1 105.1-103.9z"/><path fill="#B7D499" d="M1189.8 675.2c291-26.5 365.4 5.8 478 51 2.6-12.9 4.5-25.9 5.6-39.1.1-.9.1-1.9.2-2.8.4-5.6.8-11.3 1-17 .2-6.8.2-13.6 0-20.5-.3-8.4-.9-16.7-1.7-24.9-.3-2.5-.6-4.9-.9-7.4-.7-5.9-1.6-11.8-2.6-17.6-.5-2.6-.9-5.1-1.4-7.7-1.3-6.3-2.7-12.6-4.3-18.8-.4-1.7-.8-3.4-1.3-5.1-2.2-8.1-4.7-16.2-7.5-24.1-.1-.3-.2-.6-.4-1-2.7-7.5-5.6-14.9-8.8-22.2l-2.1-4.8c-2.8-6.3-5.8-12.5-9-18.6-.8-1.5-1.5-2.9-2.3-4.4-8-15-17.1-29.6-27.2-43.6-.1-.2-.2-.3-.3-.5C1410.1 150.5 1000 189 616.6 357.7 366.2 467.9 246.8 458.6 190.2 430c-11.3-5.7-20.1-12.1-26.9-18.6 68.1 90 312.5 328.7 1026.5 263.8z"/><path fill="#8CC1E9" d="M1317.4 1127.8c-198.4 69.2-373.7-4.6-415.3 4.6-22.8 5.1 4.5 8.8 35.3 29.4-41.1-56.8 225.4 69.2-67.6 464.3 0 0 32-53.4 62.8-125-80.5 172.7-210.4 277.2-210.4 277.2 263-161.5 295.3-341.4 341.4-299.9 46.1 41.5-32.3 216.9 0 156.9 106.1-143.1 179.9-429.1 179.9-429.1s221.5-133.7 73.9-78.4z"/><path fill="#63B0E3" d="M937.4 1161.9c1.6 2.2 3.6 4.7 6.3 7.5 81.3 67.3 36.6 221.2-11 331.8 33-70.8 57.8-152.9 61.8-244.1-4.2-50-31.8-78.3-57.1-95.2z"/><path opacity=".32" fill="#FFFFFE" d="M937.4 1161.9c1.6 2.2 3.6 4.7 6.3 7.5 81.3 67.3 36.6 221.2-11 331.8 33-70.8 57.8-152.9 61.8-244.1-4.2-50-31.8-78.3-57.1-95.2z"/><path fill="#8CC1E9" d="M937.4 1161.9c25.3 16.9 52.8 45.2 57 95.2-4 91.2-28.8 173.4-61.8 244.1-30.8 71.5-62.8 125-62.8 125 293.1-395.2 26.5-521.1 67.6-464.3z"/><path opacity=".32" fill="#FFFFFE" d="M937.4 1161.9c25.3 16.9 52.8 45.2 57 95.2-4 91.2-28.8 173.4-61.8 244.1-30.8 71.5-62.8 125-62.8 125 293.1-395.2 26.5-521.1 67.6-464.3z"/></svg>