<svg xmlns:xlink="http://www.w3.org/1999/xlink"  xmlns="http://www.w3.org/2000/svg" width="100" height="100" viewBox="0 0 100 100"><linearGradient id="a" gradientUnits="userSpaceOnUse" x1="6611.815" y1="37.769" x2="6611.815" y2="53.302" gradientTransform="matrix(.7402 0 0 1 -4838.725 0)"><stop offset="0" stop-color="#a8def2"/><stop offset=".792" stop-color="#cceaf1"/><stop offset=".989" stop-color="#e3f3f7"/></linearGradient><path fill="url(#a)" d="M32.529 44.574s9.666-5.124 11.242-4.229c1.574-.62 2.626-3.01 2.626-3.01s.816-1.045 2.382-1.045c1.312.674 1.911 1.682 1.911 1.682s1.397.443 2.243 1.285c2.423 2.408 8.451 2.894 11.214 4.366 2.763 1.473 6.09-4.037 8.019-4.377.726.776 1.146 1.744 1.596 2.587.753 1.404 4.029.198 5.285-.975 1.139-1.067 2.507-1.043 3.215-1.612.701.119.473 1.532 1.225 1.995.693.426 1.3.959 1.778 1.446.722.733.753 1.363.753 1.363s1.043-.993 1.611-1.389c.557.814.557.051.71.051.175 0 .429.212.674.476.406.432.798 1.003.798 1.003s2.379 2.033 1.608 2.95c-.844 1.002-.817 1.967-1.591 2.746-.775.786.449 2.512-.018 2.512-.893 0-.616 3.585-2.806 3.585-2.188 0-1.242 1.467-1.242 1.467l-66.654-1.765 13.421-11.112z"/><linearGradient id="b" gradientUnits="userSpaceOnUse" x1="-738.741" y1="42.339" x2="-738.741" y2="51.102" gradientTransform="matrix(-1.0312 0 0 1 -705.554 0)"><stop offset=".006" stop-color="#8ec9da"/><stop offset="1" stop-color="#b6e2eb"/></linearGradient><path fill="url(#b)" d="M88.717 47.096c-.996.13-2.182.518-2.781.518-3.146 0-1.148-2.216-3.731-.792-2.582 1.425-3.445 1.425-3.445 1.425s-.286-1.504-1.362-1.504-.42-.724-1.615.595c-1.194 1.317-2.905.751-2.905.751s-3.621-2.355-5.461-3.83c-.372-.3-.673-.563-.853-.763-.337-.371-.726-.932-.726-.783s-.483-.338-.998-.404c-.099-.13-.215-.293-.355-.44-.139-.146-.378-.453-.497-.34-.116.114-.717-.025-1.226.463-.502.185-1.109.214-1.23.328-.117.115-1.116.216-1.808.979-.214.159-.948.408-.806.547-.289.278-2.639 1.658-3.403 2.501-.984 1.083-1.204.225-2.584-.159-1.435 0-1.768.041-2.894.18-.938-.461.22-.126-2.249-1.289-2.471-1.16-2.73-1.002-3.854-1.609-.192-.213-.507-.254-.688-.378-.146-.099-.159-.297-.296-.352-.207-.08-.404-.017-.593-.031-.446-.033-.845-.031-1.193-.031-.717 0-.924-.607-2.201-.607-1.279-.932-6.756 2.763-9.002 4.22-2.243 1.457-8.315 5.406-8.315 5.406S73.879 53.44 77.18 53.44c3.303 0 11.815-1.337 11.815-1.337s.983-.501.702-1.893c-.048-.229-.509-.537-.314-.699 1.749-1.496 1.418-1.995 1.418-1.995s-1.173-.541-2.084-.42z"/><linearGradient id="c" gradientUnits="userSpaceOnUse" x1="-743.887" y1="43.843" x2="-743.887" y2="55.14" gradientTransform="matrix(-1.0312 0 0 1 -705.554 0)"><stop offset=".006" stop-color="#80adb1"/><stop offset=".605" stop-color="#72bfd6"/><stop offset=".995" stop-color="#a3d6dd"/></linearGradient><path fill="url(#c)" d="M90.06 51.243s.477-1.109 1.621-2.68c-.592-.801-1.72-.141-1.72-.141s-1.149-.639-1.585-.639c-.123.005-.502.346-.658.459-.187.133-.442.192-.671.558-1.068 0-2.144.65-2.144.65s-1.389.713-2.031.459c-.462-.183-1.443-.853-2.65 1.063-1.204.563-1.183.308-1.183.308-1.808-2.623-1.826-1.559-2.782-2.365-1.166-1.852-.288-1.092-1.166-1.092h-1.362c-.562 0-.885.511-1.646 1.724-.765 1.215-1.971-.829-3.016.194-1.043 1.021-1.446 1.077-3.214 2.427-1.767 1.347-2.175-.853-2.92-.538-.743.314-2.617-2.114-3.379-2.248-.765-.134-1.837-.635-2.683-1.976-.844-.589-1.548-.718-1.939-.718-.394.624-2.936-2.194-3.382-1.581-.446-.71-1.334.349-2.071-.661-1.827-.844-1.995-2.337-3.491-1.362-.396.064-.454.159-1.68.404-.432.246-2.214-.394-2.168-.086-.657.39-2.454.493-3.248.785-.608.545-3.402.157-3.642.353-1.01 0-3.846 12.406-3.846 12.406s45.104 1.207 49.668 1.207 10.437-4.608 8.988-6.91z"/><linearGradient id="d" gradientUnits="userSpaceOnUse" x1="49.443" y1="45.935" x2="45.959" y2="42.32"><stop offset="0" stop-color="#8cbfbf"/><stop offset=".995" stop-color="#9cc4d8"/></linearGradient><path fill="url(#d)" d="M47.401 42.938s1.072.936 1.455 1.162c.378.226.23.024.519.209.22.28.571.531.571.531s-.053.216-.829.616c-.216.403-.518 1.047-.687 1.047.372-.503.121-.553.379-.904.258-.352.287-.501.287-.501s.037-.251-.296-.251c-.333 0 .147-.702-.516-.251-.667.453-.333-.3-.333-.3s-.037-.452-.591-.101c-.119.352-.111.651.295.651s.591.251.591.251-.108-.002-.774-.002-.022-.288-.887-.549c.349-.478.223-.453.223-.804s-.386-.885-.386-.885.747-.084.525-.084c-.221.001.211.003.454.165z"/><linearGradient id="e" gradientUnits="userSpaceOnUse" x1="56.898" y1="50.43" x2="51.071" y2="44.383"><stop offset=".006" stop-color="#8ec9da"/><stop offset="1" stop-color="#9ccbed"/></linearGradient><path fill="url(#e)" d="M52.036 45.098s.349.735.985 1.025c-.314.157.069.172-.579.172-1.806 0-.084-.205.487.571.571.777 1.168.691 1.107 1.504.137.187.828.739.979 1.33.15 0 1.208.767 1.208.767s-.517-.452-1.07-1.205c-.555-.753-.925-1.857-.925-1.857s.892.869.998 1.305c.316 0 1.033.904 1.033.904s-.633-1.077-1.146-1.556c-.103-.359-1.198-1.267-.937-1.126.205-.108.396-.188.396-.188s-.787-.944-1.12-.944c-.33 0-1.416-.702-1.416-.702z"/><linearGradient id="f" gradientUnits="userSpaceOnUse" x1="60.844" y1="51.515" x2="57.623" y2="48.172"><stop offset=".006" stop-color="#8ec9da"/><stop offset="1" stop-color="#9ccbed"/></linearGradient><path fill="url(#f)" d="M59.7 49.431c-.069 0-.57-.227-.775-.227s-.399-.179-.534-.263c-.136-.085-.3.072-.509-.022-.211-.095.183.057.419.38.239.322.17.495.057.34-.113-.151-.322-.322-.672-.151-.35.172.364-.189.672.418s.518.839.518.913c0 .075.021-.333-.084-.475-.104-.143.119-.2.238-.039.118.163-.154-.589-.043-.437.114.151 0-.342.058-.266.057.075.334-.076.474.114.143.19.197.589.547.761.35.171.525.504.687.721.161.221-.344-.578-.461-.739-.121-.162-.295-.362-.295-.362l.56.362c.238.15.372.369.435.454.062.089-.228-.677-.228-.677l.485.436s-.525-.842-.789-.842c-.267 0-.394-.456-.49-.456-.101 0-.27.057-.27.057z"/><linearGradient id="g" gradientUnits="userSpaceOnUse" x1="70.586" y1="55.011" x2="70.586" y2="56.88"><stop offset=".006" stop-color="#80adb1"/><stop offset="1" stop-color="#8ecfd6"/></linearGradient><path fill="url(#g)" d="M66.953 56.754s.159-1.646.159-.904c0 .744.176.08.176.564 0 .488.49-.984.363-.37-.126.615.127-2.23.127-.808s.183.7.224 1.196c.04.493.254-.955.254-.227s.254-.793.254-.034c0 .762.318-.564.318.1 0 .662.411-.049.411.322s.398-.81.398-.405.224-1.246.224-.225.394-.099.394.469c0 .563.32-1.405.32-.583 0 .824.45-.273.45.362 0 .64.215-.588.215.027 0 .612.542-1.067.542-.228s.381-1.713.507-.582c.128 1.131.317.238.317.937 0 .699.351-1.583.351-.807 0 .774.271-.291.271.501 0 .791.121-.745.225.191.105.935.329.48.329.707 0 .228.351-.111.351.022 0 .132.413.193.413.193s.824-.001.89.064c.062.064-2.035 0-2.574 0-.54 0-3.206.19-3.747.126-.541-.062-2.256-.149-2.558-.149-.303 0-.82-.722-.82-.364s.035-1.11.171-.71c.138.4-.127-1.615 0-.873.126.743.221.598.221 1.098 0 .498.416-.641.318-.322-.099.318.098-.954.098-.318 0 .637.207.739.22 1.028.014.293.188.002.188.002z"/><g><linearGradient id="h" gradientUnits="userSpaceOnUse" x1="4138.086" y1="1661.466" x2="4139.864" y2="1628.283" gradientTransform="matrix(.8842 -.5307 .5146 .8574 -4458.086 847.99)"><stop offset="0" stop-color="#fff"/><stop offset=".061" stop-color="#f0f7de"/><stop offset=".164" stop-color="#d8eaac"/><stop offset=".265" stop-color="#c5e083"/><stop offset=".363" stop-color="#b6d763"/><stop offset=".458" stop-color="#acd24c"/><stop offset=".547" stop-color="#a5ce3e"/><stop offset=".625" stop-color="#a3cd39"/><stop offset="1" stop-color="#a5cd39"/></linearGradient><path fill="url(#h)" d="M84.31 55.458s-1.325 4.697-6.734 6.296c-5.409 1.6 8.224 1.737 1.513 3.023-6.709 1.284-47.349 6.587-42.534 2.075 4.814-4.514-3.679-.919-3.237-2.557.386-1.429-15.592 3.801-12.935.719 1.073-1.246.564-4.205-.465-3.097-.58.624-7.74 2.913-6.375.396.501-.927-3.149.374-1.742-1.906 1.104-1.788-5.418-1.391-4.864-1.65.557-.258 8.348-3.088 8.255-4.015-.196-1.929 62.55-1.203 64.991-.521 2.503.703 2.157-.245 4.127 1.237z"/><linearGradient id="i" gradientUnits="userSpaceOnUse" x1="69.067" y1="6.314" x2="36.682" y2="70.028"><stop offset=".005" stop-color="#065742"/><stop offset=".432" stop-color="#299947"/><stop offset="1" stop-color="#91c73e"/></linearGradient><path fill="url(#i)" d="M16.506 52.923s-5.735-1.798-2.671-1.594c3.065.203 12.458-.57 15.686.057 3.395.658 12.17-.008 13.926-.827 1.759-.818 10.676-.15 14.526 1.199 3.851 1.351 2.657.154 5.436 1.504 2.779 1.351 17.459-.098 16.795 1.197-.666 1.299-15.452 4.122-19.822 4.816-4.373.696-6.234 1.754-10.617 2.327-14.649 1.914 4.445-.15 3.085 1.648-6.987 1.721-12.55 1.398-15.083 2.28.623-.941.101-3.046-5.155-2.606-.914.077-1.753.136-2.523.179-1.349.074-3.789.747-5.878 1.297-1.61.425-3.72 1.806-4.087 1.328-.608-.783 1.987-3.31 1.746-3.839-.575-1.267 1.76-.941 2.119-1.717-1.021.013-9.065 2.52-10.018 2.703-2.994.578-3.579-.906-1.698-2.598.93-.836.813-1.756-.763-1.73-2.236.037-5.651.538-4.401-.044 2.127-.992 12.345-1.382 11.145-2.932-.932-1.204-4.427-2.456-1.748-2.648z"/><path fill-rule="evenodd" clip-rule="evenodd" fill="#6EBD44" d="M50.478 50.392s-5.306-.52-5.362.313c-.057.833-.718.267-.417 1.456-.86-.311-.681-.849-2.196-.143s-1.859-.272-3.738.604c-1.878.874-2.513-.157-5.259 1.407-2.747 1.565-7.514 4.355-7.815 4.496-.304.142 1.339-2.427 3.736-3.163 2.397-.737 3.113-1.876 1.087-1.554-.697.326.292-.607 2.932-1.032 2.639-.423 5.752-1.002 6.97-1.112-1.301-.342-4.035-.096-4.035-.096s6.52-1.063 7.188-1.375c.665-.308 3.21-.27 6.909.199z"/></g><g><linearGradient id="j" gradientUnits="userSpaceOnUse" x1="913.207" y1="181.428" x2="920.193" y2="181.428" gradientTransform="matrix(-1.3448 .2603 .19 .9818 1262.944 -380.867)"><stop offset="0" stop-color="#697a77"/><stop offset="1" stop-color="#3a4c81"/></linearGradient><path fill="url(#j)" d="M69.634 35.999s-1.225-.392-2.222-.099c-.996.295-1.116.493-1.116.493s-.23-.471-.721-.866c-.494-.396-2.156-.507-2.156-.507s2.446.101 2.635.399c.187.297.447.438.447.438s1.176-.249 1.574-.236c.398.012 1.559.378 1.559.378z"/><linearGradient id="k" gradientUnits="userSpaceOnUse" x1="908.185" y1="177.958" x2="915.171" y2="177.958" gradientTransform="matrix(-1.3448 .2603 .19 .9818 1262.944 -380.867)"><stop offset="0" stop-color="#697a77"/><stop offset="1" stop-color="#3a4c81"/></linearGradient><path fill="url(#k)" d="M75.729 31.287s-1.224-.393-2.223-.098c-.996.292-1.113.492-1.113.492s-.229-.472-.724-.867c-.494-.395-2.154-.507-2.154-.507s2.447.103 2.633.401c.187.296.447.437.447.437s1.179-.25 1.575-.236c.397.01 1.559.378 1.559.378z"/><linearGradient id="l" gradientUnits="userSpaceOnUse" x1="950.275" y1="43.902" x2="953.178" y2="43.902" gradientTransform="matrix(-1.2732 .4641 .4729 .9035 1250.415 -443.736)"><stop offset="0" stop-color="#697a77"/><stop offset="1" stop-color="#3a4c81"/></linearGradient><path fill="url(#l)" d="M61.549 37.372s-.567-.088-.944.09c-.377.177-.398.265-.398.265s-.161-.177-.423-.31c-.262-.131-.972-.078-.972-.078s1.039-.103 1.156.007c.12.11.249.15.249.15s.459-.168.628-.189c.166-.018.704.065.704.065z"/><linearGradient id="m" gradientUnits="userSpaceOnUse" x1="953.401" y1="43.551" x2="956.305" y2="43.551" gradientTransform="matrix(-1.2732 .4641 .4729 .9035 1250.415 -443.736)"><stop offset="0" stop-color="#697a77"/><stop offset="1" stop-color="#3a4c81"/></linearGradient><path fill="url(#m)" d="M57.402 38.504s-.567-.087-.944.092c-.377.178-.398.265-.398.265s-.161-.177-.422-.31c-.263-.131-.973-.078-.973-.078s1.039-.102 1.158.006c.118.109.247.151.247.151s.459-.17.628-.188c.166-.018.704.062.704.062z"/></g><g><linearGradient id="n" gradientUnits="userSpaceOnUse" x1="-735.74" y1="57.315" x2="-735.883" y2="53.512" gradientTransform="matrix(-1.0312 0 0 1 -705.554 0)"><stop offset=".006" stop-color="#6ccad4"/><stop offset=".67" stop-color="#b5e3f4"/><stop offset="1" stop-color="#def1f7"/></linearGradient><path fill="url(#n)" d="M71.144 54.404s15.474-.118 17.185-.118c1.381 0-8.033 1.231-13.362 2.223-5.328.994-21.906.066-16.577 1.325 5.328 1.257-3.087 1.289-10.319 2.517-7.231 1.228-12.941-.62-17.34.304-4.399.924-14.166-.107-12.774-.507 1.391-.4-.091-.886.548-.886s.531-.916 1.261-.989c.728-.069 27.362-4.025 29.883-4.025 2.518-.001 21.495.156 21.495.156z"/><linearGradient id="o" gradientUnits="userSpaceOnUse" x1="-727.137" y1="66.821" x2="-739.885" y2="50.547" gradientTransform="matrix(-1.0312 0 0 1 -705.554 0)"><stop offset=".006" stop-color="#6ccad4"/><stop offset=".681" stop-color="#b5e3f4"/><stop offset="1" stop-color="#def1f7"/></linearGradient><path fill="url(#o)" d="M84.422 54.769c.898.207-15.753-.144-17.65.015-1.259 0-.277.367-3.828.507-4.071.159-10.826.779-13.595.869 1.363.257 2.578.869 2.446.869-.304 0-.45.203-2.408.063-1.125.771-6.646 1.779-7.552 1.779-.906 0-7.077 1.057-8.426 1.182-3.91.356-14.725.84-14.725.84s-2.218 1.408 2.711 1.824c2.597.217 3.434.12 1.018.698-4.121.989-2.723 1.428-.139 1.614 1.413.103.94.131 2.351.131 2.396 0-4.285 1.774 4.848.648 1.418-.175-3.477 1.529-2.327 1.715 2.68.432 10.413 1.781 12.895 1.717 30.136-.773 1.556-2.696 5.574-3.925 11.538-3.531 32.846-5.816 26.015-5.816-2.212 0 13.347-4.816 12.792-4.73z"/><linearGradient id="p" gradientUnits="userSpaceOnUse" x1="52.701" y1="61.626" x2="44.287" y2="58.11"><stop offset="0" stop-color="#acdff1"/><stop offset="1" stop-color="#3cb2c6"/></linearGradient><path fill-rule="evenodd" clip-rule="evenodd" fill="url(#p)" d="M66.131 54.646s.852.153-.038.153c-.265 0-4.14.124-2.919.335 1.219.211-3.521.132-2.998.181.893.08 5.93.114 3.858.343-.409.046-3.421-.283-1.713.031 1.705.311-3.903-.344-2.379-.062 1.522.282-1.541-.013-2.291.021-.571.024-3.781-.118-1.637.143 2.146.264-1.804.071-3.05.084-.454.004 1.129.144-2.104.144-6.509 0 .854.697 1.394.91.576.231-2.07.534-1.534.534 2.843 0 .186.374-.314.374-2.099 0 2.174.336.662.512-5.089.59-2.792.425-2.494.395 2.946-.302-6.019.949-4.776 1.244 1.243.294-15.935.297-14.596.388 5.818.393 4.988.963-3.963 1.88-2.613.267-8.07.417-5.149-.261 1.299-.302-3.521-1.273-1.228-1.926.704-.2-.359-.77-.359-.77s14.66-1.16 17.441-1.16c1.854 0 4.568-.54 7.46-.54 1.364 0 2.443-.352 1.748-.523-.688-.168-2.527-1.076-2.831-1.263-.306-.188 1.451-.837 2.586-1.054 1.124-.216 13.055-.355 13.055-.355l7.129-.084 5.457.069c0 .001-3.858.28-4.417.257z"/><linearGradient id="q" gradientUnits="userSpaceOnUse" x1="-720.739" y1="60.645" x2="-720.739" y2="58.031" gradientTransform="matrix(-1.0312 0 0 1 -705.554 0)"><stop offset=".005" stop-color="#7eb6c9"/><stop offset="1" stop-color="#9ca1ac"/></linearGradient><path fill-rule="evenodd" clip-rule="evenodd" fill="url(#q)" d="M41.002 59.243s-1.096.153 0 .505c1.098.354 1.087.199.394.354-.694.151-1.642.316-.694.515s-4.666.75-2.631.398c.924-.161-2.125-.389-.601-.529 1.523-.141-4.735-.304-2.888-.411 1.733-.103-1.247-.434 0-.434 1.248 0-2.049-.443-.851-.529 1.197-.087 9.952-.703 7.271.131z"/><linearGradient id="r" gradientUnits="userSpaceOnUse" x1="-720.695" y1="61.102" x2="-720.695" y2="59.384" gradientTransform="matrix(-1.0312 0 0 1 -705.554 0)"><stop offset=".006" stop-color="#6ccad4"/><stop offset=".466" stop-color="#b5e3f4"/><stop offset="1" stop-color="#def1f7"/></linearGradient><path fill="url(#r)" d="M41.597 58.768c.115 0 1.801.417-.683.624-2.481.209-5.449.037-4.399.461 1.05.425-.809.425-1.731.425H32.52s3.787.189 4.643-.135c.853-.326-1.317-.452 1.661-.452 2.979 0 4.18-.435 3.858-.688-.324-.254-1.085-.235-1.085-.235z"/><linearGradient id="s" gradientUnits="userSpaceOnUse" x1="-724.837" y1="60.707" x2="-724.837" y2="59.168" gradientTransform="matrix(-1.0312 0 0 1 -705.554 0)"><stop offset=".006" stop-color="#6ccad4"/><stop offset=".466" stop-color="#b5e3f4"/><stop offset="1" stop-color="#def1f7"/></linearGradient><path fill="url(#s)" d="M41.928 58.615s2.478.187.628.883c-.576.217-2.578.52-2.578.52s3.301-.152 3.786-.778c.429-.553-1.836-.625-1.836-.625z"/><linearGradient id="t" gradientUnits="userSpaceOnUse" x1="-717.267" y1="68.53" x2="-728.905" y2="56.713" gradientTransform="matrix(-1.0312 0 0 1 -705.554 0)"><stop offset=".005" stop-color="#7dced2"/><stop offset="1" stop-color="#c7e9f6"/></linearGradient><path fill="url(#t)" d="M51.552 60.626s4.357.451-2.071.9c-6.429.451-7.772.488-4.453.901 3.32.413 4.93 1.166-.128 1.877-5.058.714-7.878 1.386-5.46 1.688 25.231 3.141-7.272 1.153-9.494 1.57-3.32.62-1.168-.82.624-1.234 1.791-.413-9.917-.278-6.903-.965 3.014-.688 7.607-1.063 10.085-1.321 2.478-.265-3.373 1.236-.633.973 2.741-.262 14.332-1.837 9.958-1.837-4.372 0-4.582-.578-.472-1.329 4.11-.75 9.787-1.379 6.796-1.299-2.99.079-3.052-.1-.241-.375 2.46-.242 3.916-.634 6.604-.634s-3.347.289-4.212 1.085z"/><linearGradient id="u" gradientUnits="userSpaceOnUse" x1="-734.37" y1="58.47" x2="-736.311" y2="56.499" gradientTransform="matrix(-1.0312 0 0 1 -705.554 0)"><stop offset=".005" stop-color="#ceebf6"/><stop offset="1" stop-color="#eff8f9"/></linearGradient><path fill="url(#u)" d="M52.555 56.425c-.222-.017 3.929.288 1.152.903-2.775.613-3.722.726-3.722.726s10.215-1.095 2.57-1.629z"/><linearGradient id="v" gradientUnits="userSpaceOnUse" x1="-733.554" y1="58.039" x2="-735.095" y2="56.474" gradientTransform="matrix(-1.0312 0 0 1 -705.554 0)"><stop offset=".005" stop-color="#ceebf6"/><stop offset="1" stop-color="#eff8f9"/></linearGradient><path fill="url(#v)" d="M52.216 56.53s3.089.31-2.664 1.227c0 0 7.291-1.044 2.664-1.227z"/></g><g fill-rule="evenodd" clip-rule="evenodd"><path fill="#4E9179" d="M88.645 43.723s.072.148-.07.242c-.141.094.188.08.01.133-.175.053-.032.073-.069.11-.034.061 0 .099-.224.165-.222.065-.186.194-.069.121.117-.073.282-.125.259-.037-.023.09-.013.106 0 .145.013.037.047-.033.061.041.011.073.033.254-.026.196-.058-.059 0-.216-.094-.159-.093.057-.13-.118-.116.002.011.117.163.073.071.129-.095.057.045.039-.095.046-.139.009-.117-.168-.245-.033-.13.133.094.139-.106.125-.199-.013-.154-.046-.199.015-.046.059.327.014.293.057-.035.042.177-.079.151-.016-.022.062.13.018.141.054.013.037.118-.036.105.026-.012.063.106.099.106.099s-.023.015-.223.009.011-.079-.235-.042c-.245.035-.188-.123-.315-.042-.128.08-.059.06-.199.075-.142.018.034.065 0 .099-.035.035.188-.029.188-.004 0 .028.187-.041.221.007.035.047.105-.055.224-.029.117.026.176-.033.188.04.012.073.139.011.139.011l-.011.125s-.165-.075-.282-.029c-.116.046-.069-.033-.245-.007-.176.021-.143-.039-.271.007-.127.044-.058-.059-.212.002-.15.061.154.045.013.126-.142.081-.106.128-.024.143.082.014.154-.098.166-.088.01.011.105-.099.176-.041.069.059.082-.065.14-.018.06.049 0 0 .166.031.161.03.022-.025.151-.035.128-.009.106-.109.14-.062.036.047.094.033.094.033l-.034.152s-.093-.053-.234-.017c-.141.035-.059-.015-.177.015-.118.025-.188-.086-.245-.046-.06.042.01-.017-.06.042-.069.057-.047.068-.059.075-.011.009.095-.064.082-.02-.013.043.024.02.07.067.048.049.105-.045.188.013.084.061.036.004.154.012.115.009.163-.024.176-.004.012.018.012-.09.069-.041.059.047.035.165.035.165s-.328-.07-.444-.042c-.119.028.033.011-.178-.004-.21-.015-.104.002-.245-.009-.142-.009-.024-.045-.188-.031-.163.016-.188-.041-.2.012-.011.053.094.07.013.101-.082.03.128-.045.118.008-.012.053.116 0 .187.005.071.003.409.002.305.099-.104.047.247-.047.269 0 .027.047.176-.069.176.004s.166-.035.097.033c-.072.069.14-.035.14-.035l-.023.163s-.023-.085-.116-.019c-.097.068.164-.079-.166-.03-.328.052-.223-.033-.351.022-.128.055-.024-.157-.153-.059-.129.103.058.134-.246.077-.314-.031-.047.051-.162.106-.116.057.125-.007.093.044-.037.053.209-.013.289.011.082.026.292-.015.245.046-.047.06.186-.042.255-.01.07.033.279-.043.242.037-.032.079-.01.071-.102.092-.094.022-.059-.086-.197-.022-.139.063-.013-.057-.198-.014-.186.04-.034.014-.176.014-.139 0-.149-.047-.242-.037-.094.012-.058-.04-.209-.033-.152.008-.255-.064-.372-.043-.116.018-.106-.008-.209.013-.105.02.175.02.081.104s.128.154.128.128c0-.028.325-.204.232-.103-.093.103 0 .183.046.187.047.004.278-.163.209-.086s0 .045.023.075c.023.029.43-.152.313-.042-.115.112.117.027.072.068-.046.044.323-.094.302-.022-.024.07.057.096.057.096s.104-.13.128-.064c.023.064.129.027.093.078-.036.053-.232-.035-.29.017-.057.05.14.028.116.044-.022.016.094.007.094.007l.129.019.01.073s-.197.013-.373 0c-.172-.013-.406-.119-.476-.097-.069.022-.429-.022-.429-.022s-.221.013-.082.022c.139.011.604.161.407.139-.196-.024-.256-.064-.325-.069-.069-.006-.256-.046-.349-.063-.094-.015-.116-.035-.35-.015-.231.018-.033.033.058.095.094.062-.556.18-.058.15.501-.027-.033.244.336.125.374-.12.096.151.305.047.208-.103.383-.055.174.015-.211.065-.431.349-.104.201.326-.15.428-.299.428-.207 0 .09.025.066.095.079.069.014.14-.081.22-.029.081.051-.114-.154.105-.057.221.097.371.063.302.058s-.455-.159-.313-.166c.139-.01.302-.116.254-.037-.045.076-.01.153.048.093.059-.061.14-.108.14-.063 0 .044.048.338-.012.353-.059.015.035.075-.162.106-.198.033-.396-.009-.268.028.126.037.15-.026.094.015-.059.042.057.031-.151.08-.21.05.058.006.013.075-.049.07.102.015.114.026.012.009.151-.108.163-.016.012.091.035-.024.059.076.022.103 0 .092-.165.108-.161.015-.37-.018-.497 0-.128.019-.164-.111-.291-.04-.129.073-.209.095-.431.106-.22.013-.058-.013-.104.109-.047.126.128-.043.034.132-.094.176.337-.121.291-.062-.046.06.476-.122.406-.044-.07.077.197-.167.185-.031-.01.135.268.1.268.082 0-.019 0-.081.106-.075.104.009.174-.095.229-.055.06.041.084-.123.084-.021 0 .101.013.155-.094.24-.104.083-.244.136-.326.24-.081.104-.022.078.024.057.045-.024.232-.167.173-.069-.059.095.139 0 .139.036 0 .037.142-.172.129-.109-.011.064-.011.374-.011.374s-.174-.041-.385-.046c-.208-.005-.126-.119-.254-.009-.129.11-.011.108-.256.117-.244.012.013-.153-.209-.033s-.014.08-.195.159c-.188.079.172.075.01.155-.164.081.567-.04.487-.029-.08.013.256-.163.152-.063-.105.103.521.066.185.168-.337.103-.278.08-.406.108-.129.027-.22.039-.232.055-.014.018.521.1.243.126-.278.025.198-.013.129-.008-.07.004.325-.095.255 0-.069.093-.034.251.035.183.069-.067.221-.22.268-.135.046.086.125.009.125.009s.129-.382.097-.065c-.037.316.021 1.038-.037 1.079-.06.042.257.102.233-.063-.023-.167-.046-1.195-.023-1.131.023.066.116.055.126.12.015.063.024.029.176.067.15.037.187-.006.22.069.035.077.139.055.129.037-.012-.018-.198-.168-.022-.128.174.041.383.037.406.065.021.028-.093-.153-.093-.163s-.14-.119-.197-.132c-.06-.013-.014-.128-.084-.069-.069.058 0-.055-.16-.039-.164.015-.176-.031-.176-.04s.024-.135-.032-.139c-.06-.004-.048-.112-.082-.15-.036-.04-.105-.245-.175-.196-.069.05-.069.141-.069.141s.229.071.185.15c-.046.077-.163.188-.163.188l-.059-.704s-.08-.171.071-.104c.15.066.452.006.442.131-.012.126-.048.16.021.174.069.015.175.077.175.077l-.117-.091s-.116-.063-.058-.122c.058-.06.117-.21-.033-.175-.151.035-.348-.025-.348-.025l-.105-.081-.012-.183s-.048-.42 0-.325c.046.093.175.093.197.15.022.055.268-.062.161.093-.102.155-.15.163-.045.179.104.017.173-.115.277-.007.104.106.128-.137.21.032.081.171.231.29.231.29s-.057-.306.036-.197c.091.106.046-.106.254 0 .211.106.361-.039.396.038.035.074-.045-.149-.126-.128-.082.022.081-.104-.106-.099-.187.004-.058-.132-.232-.081-.173.052-.034.026-.242.011-.21-.017-.069-.008-.279-.047-.209-.044-.037-.03-.233-.063-.198-.033-.198-.079-.301-.123-.106-.042-.234-.125-.151-.12.082.006.35.008.419.048s.126.018.197.051c.069.031-.082-.152.032-.063.118.092.129-.098.199.034.069.131.139-.044.187.049.046.093-.035-.167.104-.039s.151.13.151.13l.093-.084s.117-.056-.069-.078c-.185-.022 0-.028-.221-.063-.221-.033 0-.172-.244-.081-.244.094-.199.006-.326.006-.128 0-.033-.02-.162-.013-.127.009-.092-.079-.161-.029s-.036-.057-.163-.011c-.129.044-.139-.101-.139-.101s-.023-.194.046-.188c.069.004.637.045.603.151-.035.108-.44.006-.139.071.302.068.291-.042.349.017.06.059.06-.095.231.026.176.123.142-.035.245.027.104.063.127.037.187.084.057.051.057-.077.057-.077s-.069-.095 0-.073c.071.024.013-.145.197-.13.186.013.302-.042.302-.023 0 .018-.047-.077-.267-.048s.15-.088-.22-.051c-.374.037-.058.132-.221.121-.163-.013-.873-.398-.548-.194.325.205-.325-.005-.149.081.173.084.475.241.382.208-.092-.033-.43-.221-.532-.265-.106-.044-.139-.028-.198-.033-.059-.004-.278-.057-.278-.057l.012-.17s.15.119.257.064c.102-.057.172-.125.334-.041.163.085.034.048.245.136.209.088.034-.033.278.056.244.09.244-.038.324-.005.082.033-.533-.3-.37-.198.161.103-.082-.007-.151-.011-.069-.005-.208-.143-.174-.103.035.037.045-.08-.024-.047-.069.029-.034-.022-.094-.035-.058-.013-.312-.031.037-.042.349-.013.37-.029.497-.047.129-.019.163-.088.015-.081-.153.008-.024-.039-.244-.025-.221.011-.142-.057-.268-.057-.128 0-.082-.015-.164.016-.081.029-.128-.009-.22-.026l-.244-.035-.022-.074s.148.001.267.02c.117.017.117-.02.325-.013.209.004.417.011.417.011s-.045-.059-.232-.063c-.185-.004-.151-.075-.266.008-.117.082-.058.014-.209.012-.153-.001-.094-.053-.21-.079-.115-.025-.349-.069-.128-.08.222-.013.313-.015.441.031.129.046.15.002.302-.005s.151-.136.292-.053c.139.083.148.101.229.071.082-.031.048-.143.176-.125.129.018.257-.036.257-.036s-.012-.064-.209-.033c-.198.033-.198.05-.35.022-.151-.029.126-.092-.232-.019-.359.075-.302-.003-.396.046-.091.047-.034-.05-.128-.028-.092.02-.184-.033-.268-.02-.079.012-.115.001-.115.001l.024-.135s.3.131.429.113c.127-.018-.093-.069.162-.062.257.009-.114-.089.222-.048.337.042.406.075.406.075s.011-.137-.069-.115c-.081.022.034-.033-.174-.03-.211.003-.115.009-.257-.037-.139-.047-.139-.146-.221-.062-.081.086-.012.027-.15.053-.14.027-.209.022-.209.022l-.139.027-.037-.149s.294-.079.351-.011c.057.069.045.095.115.018.069-.076.036-.153.151-.117.114.037.082.042.208.033.129-.009.223-.047.142-.044-.082.003.067-.013-.069-.023-.142-.01-.106-.063-.224-.042-.114.019-.046-.141-.15-.057-.104.083-.047.042-.16.061-.118.02-.106.011-.198.033-.094.019-.152-.011-.152-.011l.013-.273s.012.128.14.119c.129-.009.022.11.139.064s.289-.042.279-.071c-.012-.028.148-.063-.081-.051-.235.011-.257-.008-.257-.008s-.127.008-.117-.092c.013-.098.129-.018.223-.002.092.017.082.006.209-.003.127-.009.395-.043.29-.033-.104.009-.176-.049-.278-.066-.105-.017-.048-.086-.151-.075-.104.011-.292-.011-.292-.011s-.128-.037-.01-.048c.116-.007.094-.047.232-.018.139.027.209.015.209.015s-.07-.059-.152-.073c-.081-.016-.092-.007-.15-.041-.06-.031-.313-.113-.139-.091.176.022-.047.015.176.031.22.017.277.012.277.012s-.012-.039-.095-.072c-.081-.033-.14-.037-.183-.048-.049-.015-.049-.015-.118-.045s-.127-.045-.048-.067c.084-.022.037.059.139-.035.106-.093.07-.104.129-.101.059.006-.069-.086-.161-.084-.094.004-.08-.014-.14-.027-.058-.013-.058-.068-.058-.068s.012-.043.081-.031c.069.014.127.018.139-.025.01-.046-.092-.097-.116-.101-.022 0-.104.039-.069-.013.035-.053-.059-.067.012-.082.071-.011.104-.055.104-.055s-.047-.084-.081-.079c-.035.005-.023-.101-.023-.101l-.084-.13z"/><path fill="#667A80" d="M83.629 52.906s.26-3.773.26-4.539c0-.765-.032-5.045-.109-5.29-.078-.246-.046-1.139-.085-1.444-.039-.306-.079-.856-.079-.856s-.097.997-.045 1.416c.052.419.052 1.129.052 1.373 0 .245-.084 4.557-.084 4.833 0 .274-.417 4.476-.417 4.476l.507.031z"/><path fill="#448881" d="M84.577 47.165s-.022.07.667.104c.691.035 1.046-.069 1.247 0s-.376.053-.18.209c.201.155-.021.174.046.364.068.192-.489-.469-.4-.225.09.243 0 .139-.044.347-.045.207-.245-.54-.312-.208-.065.33-.157.051-.268.294-.109.244-.177-.398-.288-.139-.112.26.043.104-.378.104-.424 0-.979-.276-.779-.051.201.226.445.346.89.399.446.051.758-.313.578-.035-.178.278-.802.227-.6.348.199.121.354-.329.645-.225.288.104.4-.243.646-.071.243.176-.245.071-.09.208.158.139-.513-.121-.421.053.087.174-.779.035-.534.156.242.123.534-.103.911-.035.377.069.268-.156.557-.035.288.123-.513.14-.354.262.152.121.175.016-.113.155-.29.139-.29.035-.579.173-.29.14.603 0 .758.035.155.035.512-.399.6-.243.087.155-.354.123-.088.331.265.209-.223-.069-.313.138-.09.208.067-.138-.333-.016-.4.121-.778.121-1.023.016-.245-.104-.579-.295-.332-.051.242.243.533 0 .441.294-.087.296.624-.19.579 0-.044.19.578-.051.18.139-.401.193-.558.226-.401.262.156.035.8-.366.821-.226.024.138.603-.245.534-.055-.065.193-.376.176-.153.385.222.207-.469-.297-.446-.069.021.225 0 .121.021.311.022.192-.421-.225-.421-.086s-.267 0-.445.104c-.177.105-.11-.363-.244-.227-.134.139-.178-.348-.423-.19-.245.157-.556.035-.201.26.354.227.624.227.4.366-.221.139-.356-.139-.311.121.045.262-.111.104-.379.104-.267 0-.065-.398-.2-.312-.134.087.046-.66-.11-.729-.156-.069-.269-.834-.312-.504-.044.331-.355.208-.312.538.044.332-.087.487-.224.557-.132.069-.332-.294-.355.069-.021.365-.108.019-.466.227-.356.208.155-.348-.045-.296-.199.053.311-.415.379-.33.066.088.066-.26.221-.242.158.015.556-.871.356-.593-.198.279-.335.209-.646.453-.311.244-.266.278-.442.417-.18.139-.047-.121-.447-.051-.399.067-.221-.158-.645-.069-.423.085.135-.348.312-.211.179.139.066-.102.423-.067.357.035.444-.296.489-.192.045.104 1.379-.956.913-.503-.468.452-.847.244-1.092.348-.242.104 0-.503-.332-.156-.335.346-.313.226-.602.279-.288.051.402-.158-.356-.106-.755.053-.777-.242-.532-.14.243.107-.046-.19.312-.086.356.105.065-.276.422-.069.355.209 1.179-.278.667-.155-.512.121-.8-.019-.912-.069-.111-.053-.534-.192-.311-.07.224.121.044-.348.311-.173.268.173.378.035.558 0 .177-.035-.202-.226-.334-.193-.134.037.197-.086-.357-.069-.553.018-.956-.503-.711-.329s.021-.364.245-.174c.224.192-.065-.572.289-.208s.044.332.333.364c.29.037-.022-.172.29-.138.311.036.177-.347.4-.173.221.173.289.069.578.173.288.105 1.088-.053.556-.141-.533-.086-.624-.067-.733-.223-.111-.157-.579-.314-.534-.123.044.192-.179-.123-.267-.053-.089.069-.623-.624-.378-.365.245.262.044 0 .354.07.312.069-.065-.262.312-.035s.089-.069.423 0c.335.07.221-.104.466-.069.246.035.579-.241.224-.157-.354.088-.422.123-.689.053-.266-.07-.134-.208-.4-.19-.268.017-1.111-.244-.778-.069.335.174.311-.262.601-.123.289.14.488-.086.578 0 .09.088-.065.088.155.053.224-.035-.177-.382.089-.262.267.123 1.111-.364.667-.19-.445.173-.111-.244-.511-.051-.4.19-.422-.088-.556-.019-.134.07.155-.434-.134-.364s-.69-.435-.467-.192c.223.243.245-.139.445.037.199.172.289.069.422.102.133.035-.201-.45.044-.19s.668.139.823.174c.156.035.245-.174.245-.174s-.021-.088-.534-.088c-.512 0-.889-.346-.823-.14.068.209-.421-.294-.2-.102.223.191.244-.139.578.016.334.156.29-.139.534-.035.245.104.179-.366.379-.19.198.172.066-.123.288.051.222.173.112-.19-.534-.227-.644-.033-1.155-.381-.843-.207.311.174.199-.123.534-.053.332.07.465-.085.354-.085-.112 0-.646-.192-.779-.192-.132 0-.667-.501-.333-.276.333.226.021-.034.49.017.465.053.199-.14.354-.14s.134.123.445.192c.311.068.289-.123.423-.158.131-.035-.601-.294-.579-.225.021.07-.91-.208-.711-.208.198 0-.178-.608.133-.399.312.208.065.208.378.19.311-.018.066-.173.49-.139.42.035-.158-.329.044-.278.201.051-1.092-.243-.847-.174.246.069-.131-.416 0-.313.137.106-.222-.538.224-.329.445.208.355.139.601.104s-.622-.243-.398-.279c.219-.035-.534-.313-.202-.294.334.016-.134-.19.268-.157.398.035-.065-.434.066-.33.134.104.111-.347.245-.173.134.173-.134.173.087.187.224.035-.288-.749-.065-.628.224.123-.155-.244.065-.191.224.052.224-.4.268-.331.044.07.18-.661.18-.417 0 .244 0 .226.199.434.2.208-.357.053-.111.157.245.104.155-.051.378.193.223.243-.267-.019-.066.208.2.225-.245.156-.089.313.155.157.11-.088.443.121.335.211-.511.053-.333.211.179.155.045.086.2.192.157.103.399-.053.489.086s-.532.123-.379.261c.157.14-.465.035-.087.156.376.123.534.157.979.243.444.088-.58-.017-.534.123.045.139-.134-.035-.111.086.021.123-.422.157-.11.211.312.053.132-.35.601 0 .466.347-.245.208-.135.313.112.104-.399-.208-.355-.035.043.174-.491-.069-.289.123.2.19-.779-.069-.289.069.489.139.668.035.689.174.021.14-.046.14.045.209.089.069.22-.123.312.053.088.172.178-.193.377-.037.201.157 0 .069.088.245.092.173-.153-.037-.266.051-.111.088-.291.035-.487.035-.202 0-.714-.104-.357.035s.444-.035.578.104c.134.141.821-.313.734-.035-.089.278-.202.157.021.297.224.139-.154-.088.089.121.245.21-.578-.139-.444.088.132.227 0 .174-.134.227-.133.051-.312-.314-.444-.173-.133.139-.379-.243-.535-.019-.155.227-.376.157-.087.28.289.121 1.045.172 1.045.172s.221-.156.532 0c.313.157.646.157.646.157s-.892.157-.603.296c.292.139-.442.191-.289.297.157.104-.312-.228-.355-.14-.043.086-.376-.245-.466-.157s-.689-.104-.555.051c.131.157.266-.07.421.192.155.262-.334.4 0 .366.333-.035.088-.383.444-.227.357.157.134-.017.468.208.332.227.355.227.601.261.244.035-.558-.069-.444.104.11.174-.333.174-.333.227 0 .051-.49-.088-.113.07.379.155.223-.297.622-.07.402.225.447-.313.646-.053.2.261-.265.296-.068.453.201.156-.486-.123-.578.017-.087.14-.465.192-.465.192s.268-.332-.067-.158c-.334.174-.357.174-.557.174-.2 0-.532-.174-.489-.017.039.155.417.094.417.094z"/><g><path fill="#026338" d="M77.277 37.134s-.248-.312.027-.268c.275.044.223.296.223.296s.169-.164.681-.073c.286.035.003.232-.152.282-.158.051.078 0-.11.117-.19.13.422 0 .381.178-.045.177.285-.178.404.017.121.194.437.146.328.244-.114.097-.399-.146-.487-.017-.088.128.382 0 .202.208-.183.212-.426 0-.426 0s.406.227.26.388c-.144.163.209-.355.431-.161.222.194.159.194.159.194s.063.016-.231.13c-.289.114-.461.017-.286.145.173.129.551.066.286.26-.263.194-.256.275-.256.275s.333-.324.582-.047c.249.274.679.338.679.338s-.438-.163-.543.017c-.104.177-.188-.034-.236.063-.051.097.365.227.271.292-.096.065-.347-.016-.347-.016s-.37-.292-.204-.049c.164.244.612.291.277.373-.329.157.038.396-.117.46-.154.062-.274-.522-.52-.348-.244.172-.597.284-.232.3.364.015.471-.157.507.015.037.174-.183.412.343.412s.873.031.819-.095c-.053-.126-.676.111-.616-.111.058-.22.01-.3.01-.3s-.047-.077.293-.093c.343-.017.608-.207.523-.017-.08.19.06.174-.137.238-.195.062.091.109.102.221.01.11-.003.174-.1.204-.099.033-.234-.125-.312.143-.073.269.115.143-.224.19-.338.047-.354-.537-.482-.205-.131.331.479.378.436.552-.044.174.505.412.655.301.151-.11-.761-.363-.304-.443.455-.079.71.033.641-.048-.068-.079-.754-.267-.273-.314s.604-.047.604-.047.25.095.043.252c-.206.158-.278.269-.113.285.162.015-.071-.111.373-.111h.505s-.842-.332-.212-.317c.625.017.658-.062.625.017-.032.079.275.126-.113.284-.388.159-.548-.032-.551.142-.003.174.342.205.28.396s-.201.222-.201.222-.216-.364-.388-.269c-.173.095-.876-.079-.325.19.552.267.856.096.673.286-.184.189-.216.252-.216.252s.938.079.396.141c-.539.064-.887 0-.886-.174.003-.174-.121-.41-.207-.252-.083.157.231.285-.241.222-.469-.064.5.143.379.347-.122.207.114.332.114.332s.34-.222.342 0c.001.221.412.08.201.207-.209.126.008.284-.436.079-.445-.206-.462-.379-.469-.253-.009.126.183.443-.136.268-.319-.173-.229-.284-.344-.41-.113-.126.114.126-.227.143-.344.015-.71-.238-.481-.364.23-.126.301.379.404.222.105-.157.316-.491-.039-.412-.355.078-.429-.045-.537.078-.107.128.417.348.188.491-.226.143-.526.19-.229.316.294.126.396-.284.498-.063.103.221.22.395.22.395s-.02-.82.2-.426c.221.395.413.507.413.507s-.266-.459.15-.333c.416.128.49.286.49.286s-.047-.286.191-.11c.241.172.19.282.347.236.158-.048-.38-.395.085-.379.466.015.729.015.729.015s-1.01-.221-.527-.236c.483-.017.787-.221.726 0-.058.222.204.222-.123.379s-.64-.128-.559.063c.077.19.469.064.244.238-.226.173-.348.157-.348.157s-.175.081.144.238.318-.252.506 0c.187.253.544.206.17.3-.375.095-.275-.126-.521.048s-.156.047-.445-.015c-.288-.064-.072-.333-.288-.271-.216.064-.512-.063-.452.143.061.207-.17.111.116.364.289.252.2.396.409.252.208-.143-.343-.6.049-.316.392.286.438.333.438.333s.599-.269.607.031c.01.3.214.507.214.507s-.104-.633.186-.571c.289.063.727 0 .645.19-.084.191-.095.064-.348.174-.253.112.19.3.19.3s.607-.205.368.033c-.24.236-.295.3-.295.3s.658-.3.683-.049c.025.254.261.207.109.302-.151.093-.125.173-.537.093-.409-.077-.339-.396-.53-.267-.189.126.103.015-.103.19-.204.172-.183-.016-.338-.159-.155-.143-.134-.536-.335-.332-.203.205-.976-.064-.604.222.37.284.331.505.453.316.123-.19.139-.649.194-.3.054.348-.069.33.087.505.159.173.223.188.382.157.157-.031-.19-.491.282-.206.472.284.591.253.581.379-.007.126-.421-.188-.402 0 .018.19.906.19.386.443-.521.253-.736.095-.711-.031.028-.128.375-.316.036-.269-.341.047-.221-.188-.417.063-.198.253-.088.142-.41-.033-.318-.174-.619-.569-.399-.174.22.396.823.569.249.475-.575-.096-.787-.191-.698-.332.087-.143-.029-.3-.029-.3s-.266-.238-.352-.063c-.084.175-.247-.063-.362 0-.113.063.217-.048.246.252.029.301.108.269.035.348-.073.081.959.112.34.19-.486.063-.918.046-1.02-.041-.026-.023-.028-.053-.001-.086.124-.159.412-.331.412-.331s.187-.364-.149-.285c-.336.078-.265.19-.589.19-.117 0-.223-.076-.293-.163-.123-.151-.143-.331.081-.17.348.253.457.159.457.159s-.105-.203-.062-.261c.013-.017.037-.022.077-.008.188.063.107.063.31.063s-.102-.41.045-.362.45.49.527.22c.074-.267.048-.758-.194-.536-.241.221-.249-.064-.523.031-.271.096-.183-.031-.121.19.063.222.173.333.173.333s-.848-.414-1.005-.159c-.157.252.368.459.291.711-.077.252.471.048.507.22.038.176-.624.033-.321.224.301.188.722.143.514.3-.208.157-.114.078-.226.171-.11.096-.086-.252-.241-.205-.157.047-.289-.063-.289-.063s.367.048-.129.143c-.495.094.028-.347-.576-.128-.604.222 1.023.143.486.46-.531.316.02.583.02.583s.204-.394.433-.315c.229.079-.235-.554.028-.347.262.205.31.284.31.284s-.362-.188.151-.094c.514.094.849 0 .685-.033-.165-.031-.771-.031-.628-.221.143-.189.287-.364.327-.158.041.205.022.222.31.269.287.048.146-.364.28-.221.136.141.216.141.216.141s-.28.016-.007-.3c.271-.315.721-.474.546-.205-.178.269-.403.238-.196.285.206.046.442-.223.422-.016-.021.205-.014.252-.014.252s.267-.143.404.017c.136.157.776.095.408.252-.367.157-.686.017-.514.126.172.111.563-.032.597.111.035.141.551-.159.537.11-.016.269.43.269-.032.3-.461.033-.226-.252-.701-.143-.474.111-.338.047-.285.176.053.125.582-.033.401.172-.183.205-.819-.11-.561.063.261.174-.58-.157-.453.094.125.254.443.207.297.35-.15.141-.816.348-.692.174.125-.174.963-.286.471-.364s-.508-.236-.558-.126.353.095.156.174c-.193.078-.52-.379-.611-.284-.091.093-.593-.08-.288.158.307.238.684.378.292.3-.392-.079-.605-.41-.633-.268-.025.141.583.172.362.394-.22.222-.384.207-.384.207s.189-.112.001-.19c-.188-.081.039-.033-.246-.048-.284-.017-.908-.205-.61-.252.298-.048.518-.064.429-.159-.09-.094-.064-.253-.287-.064-.225.19.206-.141-.309-.029-.514.11-.285.172-.768.188-.484.016-.033-.143.241-.205.277-.064.534-.332.465-.206s-.257.063-.432.11c-.18.047-.34.047-.209-.047.132-.095.218-.252.218-.252s-.067-.3-.193-.126c-.123.174-.127.143-.252.126-.12-.017.265-.632-.102-.426-.363.205-.013.062-.172.283-.161.222.067.284-.07.316-.139.031-.135-.552-.314-.316-.179.236.041.207-.175.27-.217.063-.494-.096-.563-.174-.069-.079-.246-.253-.373-.096-.126.159.715.096.511.27-.205.173-.282.014-.313.11-.032.095.766.19.261.19-.506 0-.232-.11-.779-.126s-.637-.057-.546.017c.429.238.688.205.396.3-.295.096.611.063.672.267.061.207.489.048.298.175-.188.126-.177.032-.362.206s-.143-.426-.237-.174c-.099.253.073.348-.168.364-.24.015-.541-.159-.411-.285.129-.127.608-.174.125-.158-.483.014-2.507-.047-1.709-.128.801-.076 1.295.017.834-.141-.457-.159-.922-.364-.444-.221.478.143.551.062.562.174.012.112.278-.047.278-.047s-.718-.536-.276-.348c.443.188.57.254.57.254s-.807-.397-.491-.476c.316-.079.702-.063.702-.063s-.031-.095.136-.047c.167.047.273-.081.092-.112-.187-.031-.422-.157-.267-.222.157-.062.109-.143.292-.143.18 0 .137-.235.356-.045.223.188.583.188.414.093-.17-.093-.178-.379-.474-.3-.296.081-.288-.252-.443 0-.158.252.062.238-.217.252-.283.017.23.128-.129.143-.36.016-.058-.173-.421-.173-.364 0-.521-.174-.4.031.12.207-.27.143-.077.253.193.111.986.175.604.19-.38.017-.569.157-.669-.031-.101-.19-.041-.427-.154-.331-.11.095-.56-.176-.424 0 .139.172.462.172.272.283-.192.112-.563-.364-.383.031.181.396.453.302.195.348-.258.047-.488-.046-.46-.158.03-.11.052-.3-.114-.143-.167.157-.902.254-.756.111s.403-.221.403-.221-.559-.126-.259-.158c.3-.033.259-.033.403 0 .144.031.067.063.217-.047.152-.112-.149-.112-.025-.271.126-.157.099-.236.251-.125.151.11.372.079.243.015-.128-.062-.8-.126-.486-.221.314-.094.51-.157.486 0-.025.159.337.143.337.143s-.019-.395.283-.19c.304.207.45.269.45.269s.744-.031.592-.143c-.153-.109-.28-.188-.28-.188s.66.159.526.016c-.135-.143.05-.316-.225-.223-.273.095-.556.08-.604 0-.05-.077.095-.063.289-.125.197-.064.398-.064.15-.112-.247-.047.083-.174-.286-.047-.374.126-.578.079-.483.031l.465-.222s-.11-.283.205-.157c.316.126.272.3.493.284.22-.015.495-.093.383-.205-.111-.11-.15-.3-.363-.205s-.304-.017-.304-.017-.23.112-.387-.031c-.155-.143-.398-.157-.432-.079-.031.079.171.095-.151.316-.321.22-.611.553-.886.427-.275-.126-.249-.269-.158-.159.091.111.338.127.43.063.096-.063.108-.141.24-.222.135-.078.352-.157.231-.143-.122.016-.188-.047-.399.064-.211.111-.291.111-.318.031-.029-.079.103-.172-.072-.095-.173.081-.087-.077-.139.016-.051.096.452.096.126.269-.325.174-.51-.062-.494.096s.523.205.348.267c-.176.064-.181 0-.482.017-.301.016-.119-.396-.245-.236-.125.158.1-.017-.18.22-.28.238-.424-.015-.424-.015s.289-.126.314-.269c.027-.141-.498-.141-.309-.269.191-.126.42-.047.42-.047s.463.205.521-.032c.058-.235-.018-.616-.264-.442-.247.174-.055.285-.308.174-.252-.11-.607-.238-.325-.238.281 0 .312-.125.418-.063.105.063.127-.143.255-.078.126.063.31-.126.31-.126s.121-.222-.171-.095c-.29.126-.592.333-.478.079.118-.252.286-.19.232-.3-.05-.11-.236-.365-.298-.174s.013.143-.221.222c-.234.079-.293.11-.306-.031-.013-.143-.338-.348.052-.3.389.047.629-.176.344-.207-.286-.031-.148-.079-.45-.062-.303.017-.594-.284-.346-.238.245.047.248.079.295-.062.048-.143-.336-.333-.047-.269.29.062.24.171.507.014.268-.157.086-.348.211-.332.123.017.435-.095.549.048.114.141.798-.111.41.047-.388.158-.706-.19-.643.047.064.236.276.158.268.253-.012.093.1-.017.199-.031.099-.016.197-.252.388-.159.189.095.267.047.008-.126-.26-.174-.33-.284-.345-.41-.01-.128.154-.081-.173.062-.33.143-.418.081-.425 0-.008-.078-.087-.062.145-.174.229-.11.367-.159.244-.173-.122-.015-.227.143-.248-.063-.021-.205.143-.395.239-.238.098.157.012.314.262.19.249-.128.297-.255.37-.128.073.128-.487-.235-.194-.331.294-.095.55-.174.483-.016-.064.159-.146.347.106.254.254-.095.182-.207.361-.222.18-.017.301-.238 0-.222-.302.016-.516.095-.435-.111.08-.205.451-.332.156-.236-.293.094-.011-.126-.398-.159-.386-.029-.097-.377-.183-.236-.088.143.142.236-.16.236s-.63-.252-.271-.283c.36-.031.513.078.494-.112-.018-.188.208-.553.251-.331.042.221-.08.221.071.316s.225-.174.284.015c.058.19.063.238.063.238s.484-.41.492-.143c.004.271-.281.033-.26.252.022.222.634.491.514.301-.118-.189-.43-.267-.25-.301.18-.031.391-.141.391-.141s.258-.238-.023-.221c-.278.015-.109-.3-.338-.143-.226.157-.611.143-.384-.015.227-.159.398-.253.398-.253s-.036.015-.264-.033c-.227-.048-.396-.332-.167-.252.229.078.431.078.431.078s.226-.188.099-.235c-.125-.048.136-.271-.208-.064-.343.205-.743.236-.656.093.086-.141-.248-.457-.014-.346.232.11.339.365.421.174s-.362-.19-.154-.333c.209-.141.517-.283.439-.062-.081.221-.027.347.36.395.391.047.488.031.46.157-.028.126.647.205.241-.014-.407-.224-.445-.208-.637-.317-.194-.111-.352-.095-.203-.221.147-.128.334-.286.099-.222-.236.063-.389.159-.507-.031-.121-.19-.172-.507-.172-.507s.237-.062.212.096c-.025.159-.011.316.123.222.134-.096.061-.426.276-.286.216.143.384.238.384.238s.22-.048.098.158c-.121.205-.054.286.13.3.182.017.552.271.49.064-.06-.207-.56-.379-.345-.426.219-.047.415-.095.415-.095s-.173.095-.396-.126c-.224-.221-.453-.521-.115-.364.339.159.381.175.496.128.117-.05.252-.112.289-.159.036-.048-.282-.395-.467-.222-.186.174-.108.331-.313.112-.204-.222-.443-.397-.193-.333.247.063.206-.174.357-.064.152.112.322-.015.322-.015s.269-.553-.116-.364c-.387.19-.415.317-.44.064-.023-.253-.088-.286.158-.27.241.017.252-.283.435-.095.18.19.016.159.282.222.271.064.544-.238.243-.205-.299.031-.478.079-.272-.11.203-.19.271-.333.077-.254-.193.078.101.221-.356.078-.46-.143-.713-.267-.388-.252.323.017.152-.079.417-.062.265.015.159.172.327.031.168-.143.249-.347.011-.302-.238.049-.624.033-.615-.093.008-.126.021-.395.192-.3.171.094.114-.078.328.048s.657.109.361-.017c-.295-.125-.175.063-.38-.157-.201-.221-.362-.395-.091-.316.271.079.397-.047.397-.047s.154-.095-.133-.141c-.287-.048-.375-.318-.375-.318l.438.142zm2.269 7.722s-.323-.063-.34-.222.715.286.976.269c.26-.014-.37-.063-.616-.316-.248-.252-.326-.031-.451-.063-.123-.031.13.284-.111.299-.241.017.139.19-.018.237-.158.048.344.206.428.048.155-.183.149.062.318-.042.167-.104-.186-.21-.186-.21zm-3.468 1.25s.131.093-.403 0c-.535-.097-.068-.081-.229.126-.162.205.156.362-.082.205.104.031.386.015.532.063.146.047-.257-.348.086-.142.342.206.797.285.624.189-.169-.095-.043-.441-.216-.348-.172.095-.312-.093-.312-.093zm-.681-2.041s-.179.063-.217.157c-.037.095.086.048.104.224.017.172.268 0 .531 0 0 0 .483-.017.119-.238-.366-.221-.338.869-.537-.143z"/><path fill="#364335" d="M77.612 53.051c-.008 0 .032-.388.017-.609-.008-.101-.013-.17-.092-.211-.318-.095-.767-.138-.767-.208.157-.037.731.18.86-.008.063-.228.02-.666.02-.666-.178.095-.839.133-1.409.123-.746-.008-.733-.057-.917-.057-.193 0 1.662 0 1.995-.089.331-.086.349-.185.349-.185.018-.057.018-.146.036-.204-.03-.094-.008-.339-.048-.374-.374-.086-2.431-.199-1.815-.21l.938-.011.906.066s.037-.21-.424-.249c-.464-.041-1.369-.286-1.51-.435.058 0 .36.087.36.087s.252.139.696.203c.442.066.748.057.748.057l.139.086s.101-.912.101-1.085c-.001-.172-.102-1.259.012-1.085.112.174.298.438.298.438l.063 1.106s.32-.611.513-.653c.193-.044.165.042.165.042s-.49.759-.544.889c.02.083-.14.317.113.326.332-.044 1.054.043 1.054.043s-1.05-.065-1.188.108c-.068.174-.021.39-.077.39 0 0 .741-.13.745-.02-.066.015-.472-.006-.509.108.18.074 1.26.279 1.26.279-.463-.042-1.003-.115-1.465-.159.011.122-.019.276-.007.398 0 0 .256.064.783.261.529.195.917.24.917.24s-.777-.073-1.203-.219c-.194-.107-.517-.13-.517-.13.03.166 0 .333.03.5 0 0 1.075-.007 1.075.042-.077.044-.47.019-.587.035-.227.03-.459.074-.459.074l.037.779s.285.998-.02 1.105c-.303.11-.721-.021-.721-.021s.158-1.027.049-.897zM78.249 45.354c-.103-.055-.15-1.592-.115-1.852-.142-.291.009-.854.009-.854.003.126.228.164.395.198.466.095 1.271-.069 1.575-.114.404-.051-.055-.049-.302-.02-.245.029-.68.095-.998.037-.099-.019-.243.039-.353.002-.236-.079-.42-.262-.42-.262-.105-.368-.073-.787-.179-1.155-.128 0-.002-.017-.132-.017.091.016.095.965.065 1.358.07.406.098 2.214.098 2.214-.046.23-.016.465-.061.699-.49-.022-.898-.03-1.387-.183 0 0-.314-.161-.245-.015.069.145 1.489.371 1.489.371.025.204.068.635.091.84.117-.068.139-.318.414-.256.001.001-.214-.186.056-.991z"/></g></g><g><linearGradient id="w" gradientUnits="userSpaceOnUse" x1="-750.906" y1="68.147" x2="-750.19" y2="54.772" gradientTransform="matrix(-1.0312 0 0 1 -705.554 0)"><stop offset="0" stop-color="#fff"/><stop offset=".061" stop-color="#f0f7de"/><stop offset=".164" stop-color="#d8eaac"/><stop offset=".265" stop-color="#c5e083"/><stop offset=".363" stop-color="#b6d763"/><stop offset=".458" stop-color="#acd24c"/><stop offset=".547" stop-color="#a5ce3e"/><stop offset=".625" stop-color="#a3cd39"/><stop offset="1" stop-color="#a5cd39"/></linearGradient><path fill="url(#w)" d="M43.557 66.527s3.057 1.697 7.155 1.315c4.103-.386-4.244 2.318.509 1.55 4.754-.766 32.354-6.442 27.23-7.386-5.123-.946 1.833-1.097.779-1.692-.921-.521 11.43-1.443 8.322-2.211-1.258-.31-2.354-1.643-1.189-1.381.654.149 6.163-.287 4.121-1.071-.752-.288 2.121-.455.164-1.132-1.533-.528 2.68-1.631 2.215-1.631-.466 0 .427-1.106.04-1.511-.799-.842-46.21 13.077-47.389 13.835-1.211.777-1.45.315-1.957 1.315z"/><linearGradient id="x" gradientUnits="userSpaceOnUse" x1="-750.7" y1="52.454" x2="-752.412" y2="60.343" gradientTransform="matrix(-1.0312 0 0 1 -705.554 0)"><stop offset=".005" stop-color="#065742"/><stop offset=".432" stop-color="#299947"/><stop offset="1" stop-color="#91c73e"/></linearGradient><path fill="url(#x)" d="M92.973 49.48s-6.111.977-7.909 1.657c-1.794.679-7.957 2.179-9.646 3.067-1.782.931-7.512 2.356-8.988 2.356-1.474 0-6.659 2.008-8.39 3.317-1.729 1.309-1.566.579-2.636 1.681-1.072 1.099-10.816 3.346-9.788 3.757 1.029.411 11.496-1.281 14.524-1.841 3.029-.559 4.682-.48 7.658-1.092 9.949-2.045-2.814.8-1.116 1.285 5.13-.641 8.406-1.852 10.393-1.976-.833-.271-1.515-1.248 1.937-2.085a83.96 83.96 0 0 0 1.644-.415c.866-.232 2.691-.425 4.241-.601 1.196-.138 3.158.029 3.158-.242 0-.442-2.806-.991-2.909-1.258-.249-.64-1.533-.052-2.127-.305.638-.192 6.797-.71 7.471-.817 2.122-.341 1.774-1.071-.191-1.411-.973-.169-1.338-.573-.354-.867 1.398-.42 3.743-.875 2.694-.875-1.786 0 .522-1.018.522-1.896-.002-.679 1.558-1.88-.188-1.439z"/><path fill-rule="evenodd" clip-rule="evenodd" fill="#6EBD44" d="M62.014 57.854s3.024-1.244 3.455-.909c.434.336.571-.028.954.524.381-.295.014-.484 1.286-.484 1.27 0 1.017-.475 2.593-.475 1.575 0 1.473-.553 3.916-.434 2.44.117 6.712.355 6.967.355.254 0-1.983-.751-3.813-.593-1.831.156-2.814-.176-1.411-.436.583 0-.47-.196-2.302.139-1.83.337-4.027.698-4.832.89.641-.396 2.444-.824 2.444-.824s-4.528.824-5.088.824c-.561.002-2.113.511-4.169 1.423z"/></g><g><path fill-rule="evenodd" clip-rule="evenodd" fill="#53A746" d="M61.574 63.328s-.095-.33-.459-.371c0 0 .339-.072.547.367l-.088.004z"/><path fill="#66BB46" d="M58.15 63.756s-.065-.362-.438-.517c0 0 .316.172.373.519l.065-.002z"/><path fill="#66BB46" d="M58.207 63.93s-.065-.363-.438-.516c0 0 .314.173.373.518l.065-.002z"/><path fill="#66BB46" d="M58.05 63.908s-.023-.249.276-.301c0 0-.314-.034-.355.302l.079-.001z"/><path fill="#45B249" d="M58.962 63.536s-.081-.293-.378-.329c0 0 .274-.063.451.325l-.073.004zM58.385 63.88s-.081-.293-.377-.329c0 0 .274-.063.45.325l-.073.004zM57.508 63.93s-.073-.257-.332-.29c0 0 .241-.054.395.288l-.063.002zM57.882 63.979s-.081-.292-.378-.328c0 0 .275-.063.451.324l-.073.004z"/><path fill="#5AAD47" d="M69.389 62.419s-.392-2.169-1.708-3.597c0 0 2.056 1.843 2.004 3.585l-.296.012z"/><path fill="#66BB46" d="M68.993 62.431s-.802-2.331-.062-3.948c-.235.29-.484 1.059-.513 1.701-.073 1.564.26 2.259.26 2.259l.315-.012zM70.033 61.994s-.773-2.151.351-3.559c0 0-.86 1.643.004 3.545l-.355.014z"/><path fill="#5AAD47" d="M68.111 62.782s-.002-1.753-1.622-2.819c0 0 1.612.645 2.07 2.805l-.448.014zM72.016 61.827s.443-1.259.696-2.458c.095.511-.443 2.536-.443 2.536l-.253-.078z"/><path fill="#66BB46" d="M70.849 61.914s-.327-1.566.801-2.32c0 0-.887.826-.556 2.312l-.245.008zM71.723 61.645s-.205-.981.678-1.461c0 0-.701.523-.488 1.453l-.19.008zM67.782 62.472s-.305-1.068-1.489-1.205c0 0 1.102-.233 1.778 1.195l-.289.01zM66.235 62.93s-.269-1.5-1.181-2.484c0 0 1.424 1.272 1.387 2.479l-.206.005z"/><path fill="#7CC142" d="M66.062 62.529s-.293-1.068-.262-1.912c-.038-.201.111-.864.111-.864s-.326.426-.253 1.386c.073.963.231 1.396.231 1.396l.173-.006z"/><path fill="#66BB46" d="M66.854 62.502s-.532-1.487.244-2.46c0 0-.597 1.136.003 2.453l-.247.007z"/><path fill-rule="evenodd" clip-rule="evenodd" fill="#53A746" d="M65.417 62.551s-.004-1.214-1.123-1.95c0 0 1.115.444 1.432 1.94l-.309.01z"/><path fill="#66BB46" d="M67.345 62.485s-.226-1.081.555-1.603c0 0-.614.57-.386 1.598l-.169.005zM65.188 62.559s-.211-.739-1.028-.834c0 0 .76-.161 1.229.826l-.201.008z"/><path fill="#45B249" d="M71.277 61.98s-.773-2.492-1.464-3.648c0 0 1.498 2.251 1.598 3.646l-.134.002z"/><path fill="#168642" d="M70.834 61.914s-.567-1.808-.352-3.097c.218-1.291.298-1.509.298-1.509s-.608 1.342-.493 2.607c.114 1.264.346 2.006.346 2.006l.201-.007zM71.458 61.758s-.498-1.731-.09-2.846c0 0-.274 1.305.249 2.84l-.159.006z"/><path fill="#45B249" d="M70.504 61.809s-1.338-2.828-2.14-3.701c0 0 1.881 1.962 2.342 3.694l-.202.007zM71.921 61.727s-.256-1.257.201-1.849c0 0-.342.649-.091 1.845l-.11.004zM70.345 62.056s-.216-.86-.759-.982c0 0 .479-.175.889.979l-.13.003z"/><path fill="#44A247" d="M69.194 62.383s-.575-1.464.134-3.234c0 0-.972 1.722-.366 3.242l.232-.008zM72.749 62.021s-.508-1.465-.047-3.229c0 0-.665 1.713-.13 3.233l.177-.004z"/><path fill="#52B148" d="M69.297 62.215s.061-1.628-.989-3.181c-.975-1.441-1.22-1.584-1.22-1.584s1.48 1.291 2.033 2.66c.542 1.339.524 2.092.524 2.092l-.348.013z"/><path fill-rule="evenodd" clip-rule="evenodd" fill="#53A746" d="M68.667 62.694s-.109-1.923-1.427-3.089c0 0 1.193 1.386 1.153 3.096l.274-.007z"/><path fill="#44A247" d="M70.059 62.116s-.567-1.533.321-2.555c0 0-1.021.651-.669 2.565l.348-.01z"/><path fill-rule="evenodd" clip-rule="evenodd" fill="#53A746" d="M68.072 62.462s-.26-1.385-1.368-1.981c0 0 .947.671 1.179 1.987l.189-.006zM72.905 61.89s.601-1.321-.023-2.251c0 0 .438.938-.148 2.187l.171.064zM70.401 61.966s.631-1.379 1.492-1.563c0 0-1.391.274-1.717 1.57l.225-.007z"/><path fill="#66BB46" d="M62.749 63.203s-.12-.67-.526-1.109c0 0 .635.567.618 1.105l-.092.004z"/><path fill-rule="evenodd" clip-rule="evenodd" fill="#53A746" d="M63.084 63.438s-.281-.691-.057-1.193c.228-.499.295-.584.295-.584s-.498.523-.494 1.013c.003.486.117.771.117.771l.139-.007z"/><path fill="#66BB46" d="M63.161 63.191s-.24-.663.108-1.098c0 0-.266.508.001 1.096l-.109.002zM62.614 63.346s0-.542-.498-.869c0 0 .496.197.637.865l-.139.004z"/><path fill-rule="evenodd" clip-rule="evenodd" fill="#53A746" d="M63.333 63.189s-.101-.484.247-.717c0 0-.272.254-.172.713l-.075.004z"/><path fill="#45B249" d="M65.523 62.549s-.461-1.406-.897-2.056c0 0 .946 1.265.985 2.052l-.088.004z"/><path fill="#168642" d="M65.628 63.061s-.339-1.018-.171-1.746c.169-.73.224-.853.224-.853s-.428.759-.375 1.472c.054.714.188 1.131.188 1.131l.134-.004z"/><path fill="#45B249" d="M65.747 63.019s-.297-.976-.004-1.605c0 0-.207.737.109 1.602l-.105.003z"/><path fill="#7CC142" d="M64.875 63.016s-.828-1.591-1.343-2.081c0 0 1.204 1.102 1.477 2.077l-.134.004z"/><path fill="#45B249" d="M66.04 62.938s-.146-.708.168-1.043c0 0-.24.368-.095 1.042l-.073.001zM65.048 62.563s-.125-.482-.48-.551c0 0 .319-.101.564.55l-.084.001z"/><path fill="#66BB46" d="M64.499 62.998s-.222-1.22-.963-2.023c0 0 1.158 1.037 1.131 2.02l-.168.003z"/><path fill="#66BB46" d="M64.188 63.174s-.451-1.313-.033-2.226c-.134.165-.275.599-.292.96-.04.883.146 1.273.146 1.273l.179-.007zM64.991 62.958s-.428-1.213.206-2.006c0 0-.486.925-.006 1.998l-.2.008zM63.639 63.086s0-.988-.911-1.588c0 0 .907.362 1.165 1.581l-.254.007zM65.34 63.02s-.183-.882.452-1.306c0 0-.499.465-.313 1.301l-.139.005z"/><path fill="#66BB46" d="M65.583 62.545s-.118-.554.38-.822c0 0-.396.294-.274.819l-.106.003zM63.516 63.174s-.172-.604-.838-.679c0 0 .62-.132 1.001.674l-.163.005zM61.876 63.781s-.151-.705.142-1.191c0 0-.513.639-.253 1.195l.111-.004z"/><path fill="#66BB46" d="M61.974 63.777s.033-.738-.465-1.242c-.494-.502-.615-.584-.615-.584s.834.505 1.047 1.012c.213.505.205.81.205.81l-.172.004zM61.57 63.793s-.007-.707-.618-1.132c0 0 .545.513.483 1.136l.135-.004zM62.357 63.767s-.241-.563.216-.942c0 0-.512.243-.384.946l.168-.004z"/><path fill-rule="evenodd" clip-rule="evenodd" fill="#53A746" d="M61.306 63.799s-.094-.508-.617-.723c0 0 .443.244.523.727l.094-.004zM62.482 63.762s-.035-.351.388-.421c0 0-.443-.05-.498.424l.11-.003z"/><path fill="#5AAD47" d="M64.63 63.195s-.393-1.029-.801-1.506c0 0 .9.922.894 1.502l-.093.004z"/><path fill="#45B249" d="M64.551 63.198s-.289-.747-.073-1.287c.213-.538.277-.63.277-.63s-.483.563-.471 1.088c.011.527.13.833.13.833l.137-.004z"/><path fill="#168642" d="M64.875 63.187s-.246-.715.089-1.18c0 0-.253.543.02 1.176l-.109.004z"/><path fill-rule="evenodd" clip-rule="evenodd" fill="#53A746" d="M64.242 63.209s-.761-1.166-1.263-1.521c0 0 1.176.797 1.398 1.515l-.135.006z"/><path fill="#45B249" d="M65.091 63.179s-.107-.521.235-.771c0 0-.268.275-.158.77l-.077.001zM64.14 63.211s-.099-.355-.461-.403c0 0 .338-.074.55.401l-.089.002z"/><path fill="#66BB46" d="M60.905 63.767s-.159-.886-.697-1.466c0 0 .84.752.817 1.462l-.12.004z"/><path fill="#66BB46" d="M60.498 63.888s-.329-.947-.029-1.61c-.097.121-.197.433-.208.695-.026.639.11.92.11.92l.127-.005zM60.889 63.654s-.299-.877.159-1.452c0 0-.354.67 0 1.448l-.159.004zM60.026 63.913s0-.718-.662-1.152c0 0 .658.263.846 1.145l-.184.007zM61.362 63.309s-.132-.636.329-.945c0 0-.362.337-.229.942l-.1.003z"/><path fill="#66BB46" d="M60.864 62.704s-.084-.401.276-.595c0 0-.287.212-.199.591l-.077.004z"/><path fill-rule="evenodd" clip-rule="evenodd" fill="#53A746" d="M60.221 63.639s-.127-.436-.608-.49c0 0 .449-.096.725.488l-.117.002z"/><path fill="#64BB46" d="M59.205 63.961s-.108-.502.1-.848c0 0-.365.453-.179.852l.079-.004zM58.928 63.922s-.109-.5.1-.847c0 0-.362.454-.18.851l.08-.004z"/><path fill="#66BB46" d="M58.709 63.896s.021-.527-.332-.886c-.353-.358-.437-.418-.437-.418s.593.362.744.721c.152.36.145.576.145.576l-.12.007z"/><path fill="#66BB46" d="M58.5 63.776s-.005-.504-.441-.806c0 0 .39.361.347.81l.094-.004zM59.47 63.866s-.172-.399.154-.671c0 0-.366.175-.274.674l.12-.003z"/><path fill="#45B249" d="M60.026 64.048s-.322-.841-.657-1.23c0 0 .737.756.732 1.229l-.075.001z"/><path fill="#168642" d="M59.748 63.811s-.237-.608-.063-1.05c.176-.439.229-.514.229-.514s-.397.458-.387.889c.011.43.106.679.106.679l.115-.004z"/><path fill="#45B249" d="M60.734 63.773s-.203-.584.071-.966c0 0-.208.444.017.963l-.088.003z"/><path fill="#7CC142" d="M59.396 64.059s-.155-1.063-.41-1.444c0 0 .608.87.517 1.471l-.107-.027z"/><path fill="#45B249" d="M57.7 64.022s-.09-.426.19-.629c0 0-.218.224-.13.628l-.06.001z"/><path fill="#5AAD47" d="M61.404 63.65s-.283-.74-.576-1.084c0 0 .647.664.643 1.081l-.067.003z"/><path fill="#168642" d="M60.762 63.807s-.209-.535-.055-.923c.155-.389.203-.455.203-.455s-.348.406-.339.785c.008.377.092.597.092.597l.099-.004z"/><path fill="#45B249" d="M61.644 63.5s-.164-.515.077-.852c0 0-.183.395.002.849l-.079.003z"/><path fill="#77BA43" d="M60.678 63.664s-.545-.838-.906-1.094c0 0 .848.574 1.005 1.09l-.099.004z"/><path fill="#168642" d="M61.097 63.407s-.079-.372.167-.552c0 0-.19.196-.113.551l-.054.001z"/><path fill="#45B249" d="M62.522 63.452s-.322-.842-.657-1.232c0 0 .737.755.73 1.229l-.073.003z"/><path fill="#168642" d="M62.64 63.055s.289-.52.4-.971c.112-.451.127-.533.127-.533s-.063.518-.22.918c-.161.402-.278.614-.278.614l-.029-.028z"/><path fill="#45B249" d="M62.633 63.108s-.204-.586.071-.967c0 0-.208.443.016.963l-.087.004zM62.431 63.126s-.622-.951-1.032-1.242c0 0 .963.653 1.145 1.241l-.113.001zM63.132 63.536s-.09-.424.19-.63c0 0-.218.224-.13.628l-.06.002z"/><path fill="#44A247" d="M66.909 62.734s-.325-.823.074-1.823c0 0-.547.971-.204 1.827l.13-.004z"/><path fill-rule="evenodd" clip-rule="evenodd" fill="#53A746" d="M66.958 62.673s-.018-1.134-.629-1.909l-.615-.778s.836.729 1.147 1.501c.304.754.294 1.179.294 1.179l-.197.007z"/><path fill="#44A247" d="M66.583 62.734s-.062-1.083-.804-1.738c0 0 .67.779.648 1.744l.156-.006z"/><path fill="#168642" d="M67.465 62.481s-.057-1.489.444-2.065c0 0-.837.993-.641 2.073l.197-.008z"/><path fill="#44A247" d="M66.269 62.881s-.146-.779-.773-1.115c0 0 .537.378.665 1.119l.108-.004zM67.61 62.477s.543-1.184 1.053-1.566c0 0-1.149.848-1.18 1.571l.127-.005z"/><g><path fill="#FFF" d="M69.147 60.988s-.228-.229-.024-.481c0 0 .25.232.226.398 0 0 .018-.266.217-.272 0 0 .047.229-.046.343 0 0 .14-.245.42-.123 0 0-.182.184-.27.186 0 0 .373-.155.613.104 0 0-.347.04-.584.05 0 0 .327-.017.527.247 0 0-.355.037-.542-.113 0 0 .202.123.284.27 0 0-.229-.007-.424-.159 0 0 .131.277.06.365 0 0-.215-.092-.294-.303 0 0-.007.226-.108.354 0 0-.165-.233-.148-.399 0 0-.065.253-.312.261 0 0-.038-.229.143-.311 0 0-.198.091-.481.014 0 0 .199-.185.407-.192 0 0-.27-.038-.403-.144 0 0 .301-.125.505-.037 0 0-.143-.13-.122-.322-.001-.002.275.104.356.264z"/><path fill="#EDB71D" d="M69.553 61.087c.029.076-.077.163-.236.198-.159.037-.312.005-.34-.068-.028-.074.077-.162.236-.196.159-.038.31-.006.34.066z"/></g><g><path fill="#FFF" d="M66.711 61.498s-.186-.094-.026-.251c0 0 .205.093.186.183 0 0 .011-.143.173-.17 0 0 .039.116-.031.187 0 0 .107-.146.334-.115 0 0-.143.118-.212.133 0 0 .297-.129.494-.02 0 0-.279.064-.469.095 0 0 .264-.047.427.068 0 0-.288.063-.439.008 0 0 .165.04.232.109 0 0-.185.021-.343-.035 0 0 .109.13.054.188 0 0-.176-.024-.241-.127 0 0-.004.121-.085.201 0 0-.135-.104-.124-.193 0 0-.052.143-.247.176 0 0-.034-.117.112-.184 0 0-.162.073-.388.066 0 0 .156-.123.323-.15 0 0-.216.011-.326-.029 0 0 .24-.103.407-.081 0 0-.118-.051-.103-.156 0-.002.225.022.292.097z"/><path fill="#EDB71D" d="M67.035 61.505c.033.051-.045.12-.176.157-.133.032-.261.019-.295-.033-.033-.051.047-.12.177-.155.129-.035.261-.021.294.031z"/></g><g><path fill="#FFF" d="M64.813 61.289s-.132-.077-.025-.204c0 0 .146.074.135.147 0 0 .002-.115.114-.138 0 0 .029.096-.02.154 0 0 .073-.121.231-.095 0 0-.095.096-.146.105 0 0 .204-.102.343-.011 0 0-.192.049-.322.074 0 0 .18-.038.297.057 0 0-.196.05-.303.004 0 0 .112.035.164.09 0 0-.128.019-.24-.029 0 0 .079.106.043.151 0 0-.121-.02-.173-.102 0 0 .002.099-.051.163 0 0-.098-.086-.092-.159 0 0-.031.114-.168.143 0 0-.025-.095.073-.148 0 0-.107.059-.266.054 0 0 .104-.102.22-.123 0 0-.15.009-.225-.023 0 0 .163-.085.277-.064 0 0-.08-.042-.075-.128.002 0 .16.021.209.082z"/><path fill="#EDB71D" d="M65.037 61.297c.025.04-.028.096-.118.124-.091.027-.183.016-.204-.025-.025-.044.029-.099.117-.129.09-.026.181-.014.205.03z"/></g><g><path fill="#FFF" d="M61.717 62.645s-.132-.078-.025-.206c0 0 .146.076.136.151 0 0 .004-.117.115-.139 0 0 .031.095-.019.153 0 0 .071-.119.232-.093 0 0-.099.095-.146.106 0 0 .205-.104.342-.014 0 0-.191.05-.323.075 0 0 .183-.036.3.059 0 0-.197.049-.306.004 0 0 .115.032.163.088 0 0-.128.018-.238-.03 0 0 .079.108.043.154 0 0-.123-.021-.173-.103 0 0 .002.098-.053.16 0 0-.095-.083-.09-.156 0 0-.031.114-.166.141 0 0-.028-.095.071-.148 0 0-.108.059-.266.054 0 0 .106-.102.22-.123 0 0-.149.009-.227-.023 0 0 .164-.082.279-.063 0 0-.082-.043-.074-.129.001 0 .158.02.205.082z"/><path fill="#EDB71D" d="M61.944 62.652c.021.042-.029.097-.121.126-.088.025-.18.016-.204-.027-.024-.042.028-.099.118-.127.09-.026.182-.014.207.028z"/></g><g><path fill="#FFF" d="M72.961 60.689s-.026-.159.254-.195c0 0 .042.171-.069.226 0 0 .159-.097.299-.038 0 0-.098.104-.225.121 0 0 .235-.055.355.082 0 0-.227.014-.287-.011 0 0 .343.054.356.232 0 0-.258-.094-.421-.165 0 0 .231.097.216.262 0 0-.26-.097-.303-.215 0 0 .065.112.04.194 0 0-.154-.075-.198-.194 0 0-.065.149-.164.162 0 0-.096-.105-.03-.211 0 0-.132.086-.274.104 0 0 .021-.146.125-.203 0 0-.187.078-.358.004 0 0 .103-.102.272-.076 0 0-.187-.026-.334-.146 0 0 .241-.01.384.054 0 0-.162-.1-.192-.184 0 0 .275.046.364.145 0 0-.025-.095.099-.164-.001.001.128.128.091.216z"/><path fill="#EDB71D" d="M73.177 60.855c-.034.054-.163.063-.289.023-.125-.038-.202-.112-.169-.168.032-.054.163-.064.289-.025.125.041.202.118.169.17z"/></g><g><path fill="#FFF" d="M63.507 62.351s-.168-.099-.032-.261c0 0 .187.097.172.191 0 0 .003-.148.146-.176 0 0 .036.121-.023.194 0 0 .093-.153.292-.12 0 0-.122.123-.186.137 0 0 .261-.133.436-.017 0 0-.242.063-.409.096 0 0 .23-.047.377.072 0 0-.249.064-.385.004 0 0 .145.043.209.115 0 0-.164.023-.304-.038 0 0 .099.136.051.193 0 0-.154-.025-.216-.131 0 0 0 .126-.067.208 0 0-.122-.109-.116-.201 0 0-.04.146-.211.18 0 0-.035-.122.092-.188 0 0-.14.073-.34.065 0 0 .136-.126.28-.153 0 0-.19.011-.287-.033 0 0 .209-.104.356-.081 0 0-.105-.053-.095-.16 0 .001.198.024.26.104z"/><path fill="#EDB71D" d="M63.793 62.359c.028.053-.037.126-.15.159-.114.036-.231.022-.261-.033-.032-.055.037-.126.15-.16.114-.035.229-.019.261.034z"/></g><g><path fill="#FFF" d="M70.999 60.021s-.109-.175.136-.194c0 0 .123.186.05.239 0 0 .101-.097.261-.021 0 0-.037.106-.146.113 0 0 .19-.04.375.113 0 0-.205.002-.276-.031 0 0 .349.083.454.277 0 0-.289-.12-.479-.206 0 0 .268.117.341.297 0 0-.297-.125-.397-.253 0 0 .118.125.139.213 0 0-.181-.092-.285-.224 0 0 .015.156-.071.162 0 0-.142-.118-.138-.229 0 0-.078.082-.201.093 0 0-.057-.153.012-.209 0 0-.134.071-.332-.02 0 0 .044-.104.216-.064 0 0-.189-.041-.388-.18 0 0 .219.005.384.082 0 0-.2-.117-.273-.211 0 0 .281.068.416.182 0 0-.073-.104.007-.17-.004.001.181.148.195.241z"/><path fill="#EDB71D" d="M71.285 60.213c-.004.057-.118.061-.257.009-.139-.053-.248-.139-.245-.195.004-.055.119-.059.255-.006.141.05.25.137.247.192z"/></g></g></svg>