<svg xmlns:xlink="http://www.w3.org/1999/xlink"  xmlns="http://www.w3.org/2000/svg" width="100" height="100" viewBox="0 0 100 100"><radialGradient id="a" cx="48.724" cy="50.072" r="66.815" gradientUnits="userSpaceOnUse"><stop offset=".018" stop-color="#ffca05"/><stop offset=".667" stop-color="#f6921e"/><stop offset="1" stop-color="#ba461d"/></radialGradient><path fill="url(#a)" d="M53.557 19.234c0 3.559-4.494 16.922-4.494 16.922S44.57 22.793 44.57 19.234c0-3.555 2.009-6.444 4.492-6.444 2.485.001 4.495 2.889 4.495 6.444z"/><radialGradient id="b" cx="48.722" cy="50.074" r="66.822" gradientUnits="userSpaceOnUse"><stop offset=".018" stop-color="#ffca05"/><stop offset=".667" stop-color="#f6921e"/><stop offset="1" stop-color="#ba461d"/></radialGradient><path fill="url(#b)" d="M50.652 35.651c1.895-4.162 6.548-13.565 12.207-13.524 5.658.045 6.198 6.336.595 7.203-5.595.872-7.977 2.282-10.273 3.906-2.047 1.443-2.529 2.415-2.529 2.415z"/><radialGradient id="c" cx="48.723" cy="50.074" r="66.82" gradientUnits="userSpaceOnUse"><stop offset=".018" stop-color="#ffca05"/><stop offset=".667" stop-color="#f6921e"/><stop offset="1" stop-color="#ba461d"/></radialGradient><path fill="url(#c)" d="M47.47 35.651c-1.902-4.162-6.547-13.565-12.207-13.524-5.662.045-6.198 6.336-.6 7.203 5.596.872 7.981 2.282 10.276 3.906 2.051 1.443 2.531 2.415 2.531 2.415z"/><g><radialGradient id="d" cx="48.724" cy="50.074" r="66.816" gradientUnits="userSpaceOnUse"><stop offset=".018" stop-color="#ffca05"/><stop offset=".667" stop-color="#f6921e"/><stop offset="1" stop-color="#ba461d"/></radialGradient><path fill="url(#d)" d="M91.178 39.597c-1.051-1.016-2.604-1.467-3.957-1.434-1.297.038-2.525.626-3.459 1.668-.647.722-.949 2.349-.61 3.276.544 1.489 1.611 1.865 2.195 1.954.897.138 1.82-.186 2.302-.812.335-.432.402-.96.186-1.444a1.238 1.238 0 0 0-2.367.507c0 .383.175.718.445.945a1.961 1.961 0 0 1-.438-.011c-.7-.108-1.25-.614-1.548-1.421-.234-.644.003-1.944.454-2.442.789-.882 1.783-1.362 2.861-1.393 1.129-.029 2.224.436 3.091 1.311 1.322 1.325 1.18 3.682.282 5.189-.964 1.631-3.074 2.364-4.738 2.364-3.104 0-6.213-1.98-11.473-7.307-1.463-1.49-2.711-2.666-3.895-3.604 3.962 1.57 7.136 2.833 10.55 1.552 2.755-1.031 4.37-3.488 4.476-6.053.052-1.344-.376-4.169-3.512-5.644-3.217-1.516-6.675-.28-8.301 1.869-.763 1.009-1.184 2.245-1.038 3.477.125 1.076.644 2.006 1.456 2.621 1.239.938 2.66 1.161 3.893.621 1.035-.458 1.791-1.418 1.884-2.397.082-.875-.231-2.063-1.471-1.995-.682.037-1.236.555-1.236 1.239a1.234 1.234 0 0 0 1.776 1.11c-.209.532-.681 1.02-1.287 1.288-.555.245-1.698.502-3.064-.525-.629-.477-1.031-1.209-1.132-2.055a3.817 3.817 0 0 1 .859-2.858c1.297-1.575 3.979-2.662 6.798-1.333 2.007.942 3.064 2.546 2.981 4.512-.092 2.211-1.655 4.441-3.64 5.186-3.183 1.195-5.8-.003-9.857-1.616l-.785-.309c-1.396-.547-2.47-.968-3.522-1.266-1.835-.517-3.555-.912-5.506-.897-3.961.038-8.274 1.958-10.479 5.309-1.247 1.901-1.656 4.001-1.188 6.064.548 2.419 3.02 4.139 5.402 3.763 1.983-.316 2.666-1.441 2.892-2.084.362-1.024.105-2.23-.655-3.075a2.495 2.495 0 0 0-2.687-.7c-.785.283-1.3.938-1.326 1.716-.003.03-.007.06-.007.086 0 .685.555 1.24 1.236 1.24a1.233 1.233 0 1 0 .591-2.32 1.668 1.668 0 0 1 1.582.533c.555.622.753 1.504.487 2.245-.286.812-1.083 1.359-2.243 1.545-1.969.312-4.018-1.121-4.468-3.127-.416-1.846-.049-3.723 1.076-5.431 1.447-2.2 4.013-3.887 6.697-4.393a16.943 16.943 0 0 1 2.673-.283v.015c2.926.034 6.042.543 8.261 2.614 1.562 1.459 2.248 3.396 2.002 5.595-.212 1.839-1.843 3.726-4.408 4.452-2.505.715-4.888-.205-5.988-1.511-1.154-1.374-1.483-3.383-.589-4.988.953-1.716 3.473-2.967 5.404-1.824 1.192.7 1.438 1.947 1.226 3.007-.138.674-.592 1.236-1.259 1.545a2.399 2.399 0 0 1-.539.178 1.29 1.29 0 0 0 .094-.465 1.24 1.24 0 0 0-2.476 0c0 1.586 1.857 1.858 3.272 1.035.864-.499 1.53-1.199 1.716-2.129.271-1.348-.146-3.116-1.682-4.024-1.542-.913-3.693-.79-5.167.302-.642.472-1.586 1.239-2.123 2.788-.736 2.107-.071 4.032 1.009 5.402 1.485 1.872 4.527 2.576 7.379 1.857 3.168-.804 4.865-3.093 5.159-5.573.216-1.869-.388-3.521-1.348-4.951 1.05.867 2.166 1.932 3.462 3.242 5.502 5.581 8.655 7.468 12.058 7.554 2.685.071 4.851-.935 5.852-2.614 1.045-1.759 1.376-4.61-.551-6.468z"/><radialGradient id="e" cx="48.723" cy="50.074" r="66.839" gradientUnits="userSpaceOnUse"><stop offset=".018" stop-color="#ffca05"/><stop offset=".667" stop-color="#f6921e"/><stop offset="1" stop-color="#ba461d"/></radialGradient><path fill="url(#e)" d="M6.946 39.597c1.049-1.016 2.598-1.467 3.957-1.434 1.295.038 2.523.626 3.454 1.668.648.722.953 2.349.61 3.276-.543 1.489-1.604 1.865-2.196 1.954-.893.138-1.816-.186-2.3-.812-.335-.432-.402-.96-.183-1.444a1.237 1.237 0 0 1 2.367.507c0 .383-.178.718-.451.945.142.011.287.011.439-.011.704-.108 1.255-.614 1.549-1.421.238-.644-.003-1.944-.454-2.442-.79-.882-1.776-1.362-2.863-1.393-1.119-.03-2.221.436-3.087 1.31-1.318 1.325-1.18 3.682-.283 5.189.968 1.631 3.078 2.364 4.739 2.364 3.108 0 6.217-1.98 11.473-7.307 1.463-1.49 2.71-2.666 3.894-3.604-3.96 1.57-7.136 2.833-10.549 1.552-2.751-1.031-4.367-3.488-4.471-6.053-.06-1.344.372-4.169 3.51-5.644 3.217-1.516 6.667-.28 8.298 1.869.763 1.009 1.184 2.245 1.039 3.477-.127 1.076-.641 2.006-1.456 2.621-1.243.938-2.658 1.161-3.89.621-1.035-.458-1.794-1.418-1.883-2.397-.082-.875.227-2.063 1.466-1.995.685.037 1.24.555 1.24 1.239a1.236 1.236 0 0 1-1.776 1.11c.205.532.678 1.02 1.284 1.288.559.245 1.701.502 3.064-.525.632-.477 1.035-1.209 1.131-2.055a3.831 3.831 0 0 0-.856-2.858c-1.299-1.575-3.983-2.662-6.797-1.333-2.006.942-3.063 2.546-2.985 4.512.093 2.211 1.656 4.441 3.641 5.186 3.187 1.195 5.8-.003 9.861-1.616l.782-.309c1.396-.547 2.468-.968 3.521-1.266 1.835-.517 3.556-.912 5.506-.897 3.957.038 8.279 1.958 10.479 5.309 1.248 1.901 1.661 4.001 1.191 6.064-.543 2.419-3.02 4.139-5.406 3.763-1.987-.316-2.661-1.441-2.893-2.084-.36-1.024-.103-2.23.66-3.075a2.485 2.485 0 0 1 2.68-.7c.789.283 1.303.938 1.333 1.716 0 .03.007.06.007.086a1.24 1.24 0 0 1-1.239 1.24 1.236 1.236 0 0 1-.591-2.32 1.664 1.664 0 0 0-1.579.533c-.562.622-.756 1.504-.492 2.245.287.812 1.087 1.359 2.246 1.545 1.969.312 4.013-1.121 4.467-3.127.421-1.846.045-3.723-1.073-5.431-1.448-2.2-4.013-3.887-6.7-4.393a16.93 16.93 0 0 0-2.673-.283v.015c-2.921.034-6.038.543-8.256 2.614-1.568 1.459-2.252 3.396-2.003 5.595.208 1.839 1.843 3.726 4.408 4.452 2.505.715 4.883-.205 5.986-1.511 1.154-1.374 1.485-3.383.592-4.988-.957-1.716-3.478-2.967-5.41-1.824-1.19.7-1.437 1.947-1.224 3.007.138.674.593 1.236 1.258 1.545.176.082.357.141.541.178a1.239 1.239 0 1 1 2.382-.465c0 1.586-1.854 1.858-3.272 1.035-.863-.499-1.53-1.199-1.712-2.129-.272-1.348.141-3.116 1.683-4.024 1.537-.913 3.689-.79 5.163.302.64.472 1.582 1.239 2.123 2.788.736 2.107.07 4.032-1.009 5.402-1.483 1.872-4.527 2.576-7.375 1.857-3.172-.804-4.873-3.093-5.16-5.573-.223-1.869.384-3.521 1.348-4.951-1.049.867-2.17 1.932-3.461 3.242-5.502 5.581-8.663 7.468-12.062 7.554-2.684.071-4.851-.935-5.852-2.614-1.047-1.758-1.378-4.609.55-6.467z"/></g><g><radialGradient id="f" cx="48.724" cy="50.071" r="66.819" gradientUnits="userSpaceOnUse"><stop offset=".018" stop-color="#ffca05"/><stop offset=".667" stop-color="#f6921e"/><stop offset="1" stop-color="#ba461d"/></radialGradient><path fill="url(#f)" d="M53.557 79.961c0-3.559-4.494-16.927-4.494-16.927S44.57 76.402 44.57 79.961c0 3.555 2.009 6.44 4.492 6.44 2.485 0 4.495-2.885 4.495-6.44z"/><radialGradient id="g" cx="48.722" cy="50.08" r="66.804" gradientUnits="userSpaceOnUse"><stop offset=".018" stop-color="#ffca05"/><stop offset=".667" stop-color="#f6921e"/><stop offset="1" stop-color="#ba461d"/></radialGradient><path fill="url(#g)" d="M50.652 63.545c1.895 4.161 6.548 13.564 12.207 13.52 5.658-.041 6.198-6.332.595-7.203-5.595-.867-7.977-2.281-10.273-3.901-2.047-1.449-2.529-2.416-2.529-2.416z"/><radialGradient id="h" cx="48.723" cy="50.08" r="66.795" gradientUnits="userSpaceOnUse"><stop offset=".018" stop-color="#ffca05"/><stop offset=".667" stop-color="#f6921e"/><stop offset="1" stop-color="#ba461d"/></radialGradient><path fill="url(#h)" d="M47.47 63.545c-1.902 4.161-6.547 13.564-12.207 13.52-5.662-.041-6.198-6.332-.6-7.203 5.596-.867 7.981-2.281 10.276-3.901 2.051-1.449 2.531-2.416 2.531-2.416z"/><g><radialGradient id="i" cx="48.724" cy="50.074" r="66.815" gradientUnits="userSpaceOnUse"><stop offset=".018" stop-color="#ffca05"/><stop offset=".667" stop-color="#f6921e"/><stop offset="1" stop-color="#ba461d"/></radialGradient><path fill="url(#i)" d="M91.178 59.599c-1.051 1.016-2.604 1.466-3.957 1.43-1.297-.034-2.525-.626-3.459-1.664-.647-.727-.949-2.349-.61-3.279.544-1.49 1.611-1.861 2.195-1.955.897-.139 1.82.19 2.302.814.335.432.402.957.186 1.444a1.248 1.248 0 0 1-1.132.734 1.238 1.238 0 0 1-.79-2.189 1.665 1.665 0 0 0-.438.015c-.7.108-1.25.611-1.548 1.419-.234.644.003 1.947.454 2.446.789.882 1.783 1.362 2.861 1.388 1.129.03 2.224-.432 3.091-1.307 1.322-1.329 1.18-3.682.282-5.192-.964-1.631-3.074-2.361-4.738-2.361-3.104 0-6.213 1.981-11.473 7.308-1.463 1.485-2.711 2.662-3.895 3.601 3.962-1.567 7.136-2.833 10.55-1.55 2.755 1.031 4.37 3.489 4.476 6.054.052 1.344-.376 4.165-3.512 5.644-3.217 1.515-6.675.275-8.301-1.868-.763-1.014-1.184-2.246-1.038-3.48.125-1.076.644-2.007 1.456-2.617 1.239-.939 2.66-1.166 3.893-.622 1.035.458 1.791 1.418 1.884 2.397.082.875-.231 2.063-1.471 1.995-.682-.041-1.236-.555-1.236-1.24 0-.685.552-1.239 1.236-1.239.194 0 .372.049.54.127-.209-.532-.681-1.016-1.287-1.284-.555-.246-1.698-.507-3.064.524-.629.477-1.031 1.207-1.132 2.055a3.804 3.804 0 0 0 .859 2.854c1.297 1.575 3.979 2.666 6.798 1.338 2.007-.946 3.064-2.546 2.981-4.512-.092-2.215-1.655-4.445-3.64-5.186-3.183-1.199-5.8.003-9.857 1.611l-.785.309c-1.396.552-2.47.973-3.522 1.27-1.835.518-3.555.913-5.506.894-3.961-.034-8.274-1.953-10.479-5.304-1.247-1.903-1.656-4.002-1.188-6.068.548-2.416 3.02-4.14 5.402-3.76 1.983.316 2.666 1.439 2.892 2.084.362 1.02.105 2.23-.655 3.071a2.482 2.482 0 0 1-2.687.7c-.785-.279-1.3-.938-1.326-1.712-.003-.03-.007-.06-.007-.09 0-.682.555-1.24 1.236-1.24.685 0 1.239.559 1.239 1.24 0 .469-.264.871-.648 1.083.47.093 1.099.005 1.582-.532.555-.622.753-1.508.487-2.245-.286-.811-1.083-1.358-2.243-1.544-1.969-.313-4.018 1.12-4.468 3.127-.416 1.842-.049 3.718 1.076 5.431 1.447 2.2 4.013 3.884 6.697 4.394.899.163 1.801.26 2.673.282v-.022c2.926-.033 6.042-.543 8.261-2.614 1.562-1.458 2.248-3.394 2.002-5.595-.212-1.839-1.843-3.722-4.408-4.451-2.505-.711-4.888.208-5.988 1.515-1.154 1.369-1.483 3.384-.589 4.988.953 1.716 3.473 2.964 5.404 1.824 1.192-.704 1.438-1.947 1.226-3.012-.138-.674-.592-1.235-1.259-1.542a2.305 2.305 0 0 0-.539-.179c.056.143.094.302.094.466a1.24 1.24 0 0 1-1.241 1.24 1.236 1.236 0 0 1-1.235-1.24c0-1.586 1.857-1.857 3.272-1.038.864.498 1.53 1.198 1.716 2.129.271 1.352-.146 3.116-1.682 4.024-1.542.912-3.693.792-5.167-.302-.642-.473-1.586-1.235-2.123-2.788-.736-2.106-.071-4.032 1.009-5.397 1.485-1.876 4.527-2.576 7.379-1.858 3.168.805 4.865 3.094 5.159 5.572.216 1.87-.388 3.519-1.348 4.948 1.05-.863 2.166-1.929 3.462-3.239 5.502-5.579 8.655-7.467 12.058-7.553 2.685-.07 4.851.932 5.852 2.609 1.045 1.759 1.376 4.613-.551 6.472z"/><radialGradient id="j" cx="48.723" cy="50.074" r="66.81" gradientUnits="userSpaceOnUse"><stop offset=".018" stop-color="#ffca05"/><stop offset=".667" stop-color="#f6921e"/><stop offset="1" stop-color="#ba461d"/></radialGradient><path fill="url(#j)" d="M6.946 59.599c1.049 1.016 2.598 1.466 3.957 1.43 1.295-.034 2.523-.626 3.454-1.664.648-.727.953-2.349.61-3.279-.543-1.49-1.604-1.861-2.196-1.955-.893-.139-1.816.19-2.3.814-.335.432-.402.957-.183 1.444.198.428.622.734 1.128.734.685 0 1.239-.555 1.239-1.239 0-.385-.178-.723-.451-.95.142-.012.287-.012.439.015.704.108 1.255.611 1.549 1.419.238.644-.003 1.947-.454 2.446-.79.882-1.776 1.362-2.863 1.388-1.121.03-2.223-.432-3.089-1.307-1.318-1.329-1.18-3.682-.283-5.192.968-1.631 3.078-2.361 4.739-2.361 3.108 0 6.217 1.981 11.473 7.308 1.463 1.485 2.71 2.662 3.894 3.601-3.96-1.567-7.136-2.833-10.549-1.55-2.751 1.031-4.367 3.489-4.471 6.054-.06 1.344.372 4.165 3.51 5.644 3.217 1.515 6.667.275 8.298-1.868.763-1.014 1.184-2.246 1.039-3.48-.127-1.076-.641-2.007-1.456-2.617-1.243-.939-2.658-1.166-3.89-.622-1.035.458-1.794 1.418-1.883 2.397-.082.875.227 2.063 1.466 1.995.685-.041 1.24-.555 1.24-1.24 0-.685-.555-1.239-1.24-1.239-.193 0-.376.049-.536.127.205-.532.678-1.016 1.284-1.284.559-.246 1.701-.507 3.064.524.632.477 1.035 1.207 1.131 2.055a3.818 3.818 0 0 1-.856 2.854c-1.299 1.575-3.983 2.666-6.797 1.338-2.006-.946-3.063-2.546-2.985-4.512.093-2.215 1.656-4.445 3.641-5.186 3.187-1.199 5.8.003 9.861 1.611l.782.309c1.396.552 2.468.973 3.521 1.27 1.835.518 3.556.913 5.506.894 3.957-.034 8.279-1.953 10.479-5.304 1.248-1.903 1.661-4.002 1.191-6.068-.543-2.416-3.02-4.14-5.406-3.76-1.987.316-2.661 1.439-2.893 2.084-.36 1.02-.103 2.23.66 3.071.685.763 1.738 1.039 2.68.7.789-.279 1.303-.938 1.333-1.712 0-.03.007-.06.007-.09 0-.682-.555-1.24-1.239-1.24a1.238 1.238 0 0 0-.591 2.323 1.66 1.66 0 0 1-1.579-.532c-.562-.622-.756-1.508-.492-2.245.287-.811 1.087-1.358 2.246-1.544 1.969-.313 4.013 1.12 4.467 3.127.421 1.842.045 3.718-1.073 5.431-1.448 2.2-4.013 3.884-6.7 4.394-.901.163-1.798.26-2.673.282v-.022c-2.921-.033-6.038-.543-8.256-2.614-1.568-1.458-2.252-3.394-2.003-5.595.208-1.839 1.843-3.722 4.408-4.451 2.505-.711 4.883.208 5.986 1.515 1.154 1.369 1.485 3.384.592 4.988-.957 1.716-3.478 2.964-5.41 1.824-1.19-.704-1.437-1.947-1.224-3.012.138-.674.593-1.235 1.258-1.542.176-.085.357-.141.541-.179a1.239 1.239 0 0 0 1.146 1.706c.686 0 1.236-.555 1.236-1.24 0-1.586-1.854-1.857-3.272-1.038-.863.498-1.53 1.198-1.712 2.129-.272 1.352.141 3.116 1.683 4.024 1.537.912 3.689.792 5.163-.302.64-.473 1.582-1.235 2.123-2.788.736-2.106.07-4.032-1.009-5.397-1.483-1.876-4.527-2.576-7.375-1.858-3.172.805-4.873 3.094-5.16 5.572-.223 1.87.384 3.519 1.348 4.948-1.049-.863-2.17-1.929-3.461-3.239-5.502-5.579-8.663-7.467-12.062-7.553-2.684-.07-4.851.932-5.852 2.609-1.045 1.759-1.376 4.613.552 6.472z"/></g></g></svg>