<svg xmlns:xlink="http://www.w3.org/1999/xlink"  xmlns="http://www.w3.org/2000/svg" viewBox="0 0 2000 2000"><path fill="#A0D971" d="M390 1121.4c-2.8-11.2-41.9-30.8-47.5-75.6-5.6-44.8-28-92.3-92.4-106.3s-92.4 2.8-92.4 44.8 39.2 75.6 78.4 106.3c39.2 30.8 78.3 78.4 78.3 78.4 25.3 11.2 78.4-36.4 75.6-47.6zM773.2 1404c.2-7.2-2.5-15.3-6.9-23.7-4.9 8.3-12.7 17.1-19.5 16.5 0 0-23-13.9-43.6-20.8-20.6-7-41.6-15.1-47.7-32.3-6.1-17.3 3-28.3 31.5-31.8 12.9-1.6 23.2 1 31.5 5.8-4.6-5.4-8.4-10.1-10.7-13.7-12.2-19.4 21.5-61.4 51.1-73.9 16.8-7.1 41.6 7 59.8 20.5 2.1-8.4 4.2-17.3 5.9-27.2 2.9-16.8 5.8-38.7 8.8-62l-6.3 5.2s-42-64.1-51.1-75.1c-9.1-11-15.5-21.7-26.4-30.8-11-9.1-29.9-33.4-32.6-51.9-2.7-18.5 28.3-55.3 48.4-31.3 20.1 23.9 41.8 52.5 46.7 66.3 3.7 10.6 19.8 32.6 30.6 48.7 7.1-46.1 15.6-84.4 27.4-86.4-12.5-36.2-25.6-79.5-29.8-91.4-7.3-20.7 1.4-54.8 26-58.3 1.7-.2 3-.1 4.5-.2 4-32.4 10.4-64.4 33.8-78.9 25.1-15.4 45.4-4.9 60.7 38.7 15.3 43.6-4.8 74.5-29.5 94.3-14.3 11.5-19.3 26.5-22.2 38.4 3.9 17.9 8.3 37.1 12.6 53.8 5.5 1.1 8.9 3.4 8.8 7.5-.5 14.1 29.4 122.5 29.4 122.5s84.7-36.2 136.5-60.4c1.3-2.5 3.1-4.5 3.1-4.5s27.4-43.3 24.4-63c-3-19.6-1.8-60.2 17.9-59.4 19.7.8 18.1.1 27.3 15 9.1 14.9 5.8 23.8 0 44-2.3 7.9-4 20.3-5.9 33 21.9-9.3 49.7-16.8 67.6-11.7 8.4 2.4 14.6 7.3 19.4 13.4 10.9-4.9 21.9-10.5 31.6-16.9l-44.8-34.9s41.4-42.1 71.6-74c-9.8-34-28.4-62.9-50.2-62.9-36.3 0-148.3 30.8-190.3 2.8s-86.7-117.5-148.3-103.5c-61.6 14-81.1 33.6-111.9 22.4-30.8-11.2-75.6-30.8-106.4-2.8-30.8 28-42 109.1-39.2 137.1 2.8 28-33.6 271.5-33.6 271.5s-153.9-44.8-170.7-56c-16.8-11.2-39.2 44.8-53.2 75.6-4.2 9.3 8.5 27.1 30.2 49.1 1.6-1.6 3.5-3.4 5.7-5.5 18-17.6 31.6-15.8 61.8-14.1 30.2 1.7 99.3-10.7 117.1 1 17.8 11.7 28.8 19.3 51.6 25.7 22.8 6.4 35 25.7 21.6 34.2-13.4 8.5-57 15.2-63 18.9-5.9 3.7-16-2.4-16-2.4s-69.7-24.7-96.3-14.2c-7 2.8-16.1 5.6-25.8 7.7 34.3 29.1 73 59.7 105.3 86.2 5 0 10.2.5 16.2 1.7 37.9 7.3 46.6 8 42.8 25-1.3 5.7-5.1 11.2-9.4 16.1 54.2 51.5 74.3 93.8 130.5 103.9-4.3-3.7-8.9-7.8-14-12.9-27.7-28.2 4.8-82 5.6-113.7zm222.1-542.8c8.3-13.3 18.5-20.8 36.2-3.7 17.7 17.1 17.5 49.5 15.9 70.8-1.6 21.3-13.3 13.8-4.9 52.2 8.4 38.4 17.5 49.5 6.7 74-10.7 24.5-12.6 30.3-23.5 25.1-10.9-5.2-17.8-24.8-17.8-24.8l1.1-4.2s-6.8-81.7-10.3-106.4c-3.5-24.7-11.7-69.7-3.4-83z"/><path fill="#A0D971" d="M743.5 1346.9c.7 1 1.5 1.9 2.2 2.8-.7-1-1.4-1.9-2.2-2.8zM611.2 530.9c11.2 30.8 53.2 201.5 53.2 201.5l97.9-36.4s5.6-42 0-78.3c-5.6-36.4-36.4-128.7-36.4-162.3 0-33.6-25.2-112-50.4-179.1C650.3 209 555.2 265 546.8 307c-8.4 42 14 109.2 30.8 137.1 16.8 28 22.3 56 33.6 86.8zM891.4 557.3c8.6 17.7 33 63.6 55.6 65.9 28 2.8 50.4-8.4 53.2-106.3 2.8-98 33.6-302.3 36.4-335.9 2.8-33.6 5.6-78.3-50.4-89.6-56-11.2-100.8 56-100.8 106.4s-14 324.7 2.8 352.6c0 0 1.2 2.7 3.2 6.9zM1229.6 659.6c42-44.8 30.8-75.6 42-165.1 11.2-89.6 30.8-64.4 50.4-109.1 19.6-44.8 44.8-114.7 19.6-165.1-25.2-50.4-53.2-42-81.2-19.6s-44.8 126-56 181.9c-11.2 56-58.8 237.9-58.8 237.9l-5.6 8.4s0 47.6 19.6 67.2c19.7 19.5 28.1 8.3 70-36.5zM1452.5 760.1c5.7-2.1 13.1-2.2 20.9-.9 22.7-37.4 46.3-88.6 64.1-113.6 28-39.2 42-56 33.6-95.2-8.4-39.2-5.6-36.4-47.6-53.1-42-16.8-75.5 70-84 114.7-8.4 44.8-100.8 117.5-100.8 117.5s-16.8 8.4-16.8 19.6c0 11.2-28 75.6-28 100.8 0 25.2 36.4 25.2 64.4 0 7.6-6.8 14.5-12.3 21.2-17.1.8-1.3 1.6-2.5 2.3-3.8 10.7-20.4 42.5-58.5 70.7-68.9z"/><path fill="#E5A475" d="M900.4 885.7c1.9 7.2 7.2 33.4 13.6 62.8 2.9-11.8 7.9-26.8 22.2-38.4 24.7-19.8 44.8-50.7 29.5-94.3-15.4-43.6-35.7-54.1-60.7-38.7-23.4 14.4-29.8 46.4-33.8 78.9 20.6-.6 25.7 16.4 29.2 29.7zM1029.8 1557c19.1-1.5 42.7-6.7 67.4-13.9-2.4-8.7-4.1-14.4-4.1-14.4s-29.7 13.1-63.3 28.3zM1334.1 1469.5c33.2-13.5 71.4-60.1 57.9-81.8-13.3-21.7-73-77.2-71.7-112.6 1.2-35.4 38.2-95.1 7.2-126.7-31-31.6-50-36.1-54.6-58.6-3.3-15.8-6.8-37-18.1-51.1-4.9-6.1-11-11-19.4-13.4-17.9-5.2-45.7 2.4-67.6 11.7-2.9 19.5-6.3 39.9-12.8 46.1-10.6 10.2-17.4 16.5-25.3 30.9-7.9 14.4-22.8 19.7-26.5 9.4-3.6-10.3-1.5-40.9-3.1-45.5-.7-2 .1-4.1 1-6-51.8 24.2-136.5 60.4-136.5 60.4s-29.9-108.4-29.4-122.5c.1-4.1-3.3-6.4-8.8-7.5 2.6 10 5.1 19.2 7.6 26.8 13.1 40.7 5.5 48.6-6.4 51.4-9.6 2.4-26.4-13-32.4-19-1.5-1.4-2.3-2.3-2.3-2.3-4.6-3.8-13.4-26.7-22.5-53.2-11.8 2-20.4 40.3-27.4 86.4 3.3 5 6.2 9.4 7.9 12.7 7.6 14.2 11.4 32.2 11.4 32.2l-28.7 24c-3 23.3-5.9 45.2-8.8 62-1.7 9.9-3.8 18.8-5.9 27.2 13.9 10.3 24 20.2 24 20.2s-20.4-22.5-15.1-40.4c1.1-3.8 8.3-9.5 19.6-16.2-2.2-13.7-2.6-29.4 2.4-38.7 8.6-16 29.9-14.4 44.2-14.3 14.3.1 19.5-10.8 42.8-25.4 20.1-12.7 46.3 8.2 66.8 17.6 13.7-3 26.3-4.8 36.7-4.9 2.7 0 5.3.4 8 .8 17-7.6 34-18.2 42.5-21.2 14.9-5.3 38.2 24 42.1 46 1.5 8.4-4.2 17.8-11.7 26.2 24.8 30.3 41.2 62.5 41.2 62.5s32.5 8.6 60.6 53.3c28.2 44.6 4.6 69.9-5.2 130.1-2.4 14.6-4.6 33.4-7 53.5 26.3-12.8 44.7-24.5 46.7-31 6.2-19.9-16.4-45.3-16.4-45.3s59.9 59.8 93 46.2zM1286.5 1021.8l13 10.2s27.1-12.1 46.8-28.8c19.6-16.7 63.5-69.1 83.5-81.5 20.1-12.4 57.6-56.3 88.4-96 24.6-31.7-14-61.1-44.9-66.4-7.8-1.3-15.2-1.2-20.9.9-28.1 10.4-60 48.5-70.5 68.9-.7 1.4-1.6 2.5-2.3 3.8-10.3 18.2-23.8 31.4-37.1 48.1-4.4 5.5-15.7 17.7-29.1 32-30.2 31.9-71.6 74-71.6 74l44.7 34.8zM1432.8 1053.5s-1.2 1.7-2.9 4.4c-7.4 11.6-25.8 43.1-18.9 57.4 8.6 17.7 23.5 27 83.1-7.4 59.5-34.4 192.8-91.2 213.9-101.9 21.1-10.7 48.9-25.5 34.9-63-13.9-37.5-70.5-39.5-100.6-21-30.1 18.6-199 111.2-209.5 131.5zM1778.7 1147c-23.7-8.5-91.7 19.6-129.2 33.6-37.6 13.9-163.6 52.5-163.6 52.5l-7.1-.2s-28.4 17.5-32.9 36.4 5.3 19.8 47.5 28.4c42.2 8.6 56.4-9.5 114-35.8 57.6-26.3 49.8-5.3 83.7-10.1 33.9-4.8 85-15.5 105.8-49.1 20.8-33.7 5.5-47.2-18.2-55.7zM1599 1405.4c-29.8 11.5-107.3-16.9-107.3-16.9s-11.2-6.9-17.8-2.8c-6.7 4.2-55.4 11.1-70.5 20.4-15.1 9.3-1.6 31 23.7 38.4 25.3 7.5 37.6 16.1 57.3 29.3 19.7 13.2 96.9.2 130.7 2.4 33.6 2.3 48.8 4.5 69.1-14.9 20.3-19.5 19.7-16.7 14.2-48-5.4-31.3-69.5-19.4-99.4-7.9z"/><path fill="#3FBCE5" d="M1145.1 1676.9c-5 5.2-2.3 32.6-24.2 50.6-22 18-39.7 45.9-25.6 84.8 14.1 38.9 32.4 48.2 54.8 34.1 22.3-14.1 27-46.1 30.3-77.3 3.2-31.2 15.4-67.9 15.4-67.9-2.6-17.2-45.7-29.5-50.7-24.3zM1222.9 1315.8c-28.1-44.6-60.6-53.3-60.6-53.3s-16.4-32.3-41.2-62.5c-12 13.4-28.7 24.3-28.7 24.3s18.3-10.4 29.6-4 32.1 112.9 22.8 156.3c-9.3 43.4-96.1 65-96.1 65s-10.8 20.7-45.3 32.8c-34.5 12.2-48.1-7.6-87.3-23.5-39.3-15.9-127.4-41.8-126-56.5 1.3-14.7 2.3-41 10.9-38.8 8.5 2.2 78.3-1.7 78.3-1.7s-20.4-105.4-25.6-116.5c-2.2-4.7-4.6-13.6-6.2-23.4-11.2 6.7-18.4 12.5-19.6 16.2-5.3 17.9 15.1 40.4 15.1 40.4s-10.2-9.9-24-20.2c-18.3-13.5-43-27.6-59.8-20.5-29.6 12.4-63.4 54.5-51.1 73.9 2.3 3.6 6.1 8.3 10.7 13.7 10 5.8 17.1 14.9 21.9 24.5.9 1.8 2 3.3 3 4.8.7.9 1.5 1.8 2.2 2.8 9.5 10.7 23 13.1 25.3 16.6 1.2 1.8-1 7.8-4.6 14 4.3 8.4 7 16.5 6.9 23.7-.8 31.7-33.4 85.5-5.3 113.6 5.1 5.1 9.6 9.1 14 12.9 19.7 16.9 31.8 22.7 35.4 39.1 4.4 20.1 9 50.5 34.2 57.5 25.2 6.9 72.1-14.3 86-25.2 7.5-5.9 52.5-26.9 92.2-44.9 33.6-15.2 63.4-28.3 63.4-28.3s1.6 5.7 4.1 14.4c7.7 27.4 23.7 85.5 23.4 95.1-.3 12.7 37 5.8 58 2.9 16-2.2 24.6-78.6 32-141.7 2.4-20.1 4.7-38.9 7-53.5 9.6-60.1 33.2-85.4 5-130zM1048.2 1149c-2.6-.4-5.3-.8-8-.8-10.4.1-23 2-36.7 4.9 3.2 1.5 6.3 2.7 9.2 3.5 9.4 2.4 22.5-1.8 35.5-7.6zM752.4 1648c-17.4 15.2-56.2 62.5-74.1 73.8-17.9 11.3-51.1 50.9-78.3 86.8-27.2 35.9 34.4 67.7 59.6 58.1 25.1-9.6 53.3-44 62.5-62.3 9.3-18.3 22.2-30.7 34.9-47 12.6-16.3 89.3-95.8 89.3-95.8l-52.2-39.9s-24.2 11.1-41.7 26.3zM674.5 1603.6s1-1.5 2.6-4c6.5-10.5 22.8-38.9 16.4-51.6-7.9-15.8-21.4-24-74.4 7.4-53 31.3-171.9 83.5-190.7 93.3-18.8 9.8-43.5 23.3-30.7 56.8s63.5 34.8 90.3 17.9c26.8-17 177.3-101.5 186.5-119.8zM618.1 1385.5c-6-1.1-11.2-1.6-16.2-1.7-26.6-.2-42.4 14.4-85.7 34.7-51.4 24.1-44.5 5.2-74.9 9.8-30.3 4.6-76 14.7-94.4 45-18.3 30.3-4.5 42.3 16.8 49.7 21.3 7.4 81.9-18.4 115.5-31.2 33.5-12.8 146.2-48.6 146.2-48.6l6.3.2s11.1-7.1 19.7-16.8c4.4-4.9 8.1-10.4 9.4-16.1 3.9-17-4.9-17.7-42.7-25zM618.6 1304s10.1 6.1 16 2.4c6-3.7 49.6-10.5 63-18.9 13.4-8.5 1.2-27.8-21.6-34.2-22.7-6.4-33.8-14-51.6-25.7-17.7-11.7-86.9.7-117.1-1-30.2-1.7-43.8-3.5-61.8 14.1-2.2 2.1-4 3.9-5.7 5.5-12.1 11.9-11.2 13-6.7 37.6 3.8 20.6 36.1 19.9 63.4 13.8 9.7-2.1 18.8-4.9 25.8-7.7 26.7-10.6 96.3 14.1 96.3 14.1z"/><path fill="#EEF7E1" d="M687 1311.7c-28.5 3.6-37.6 14.6-31.5 31.8 6.1 17.2 27.1 25.4 47.7 32.3 20.6 7 43.6 20.8 43.6 20.8 6.9.6 14.6-8.1 19.5-16.5 3.7-6.2 5.8-12.2 4.6-14-2.3-3.5-15.7-5.9-25.3-16.6-.8-.9-1.5-1.8-2.2-2.8-1.1-1.5-2.1-3-3-4.8-4.8-9.6-11.9-18.7-21.9-24.5-8.2-4.7-18.5-7.3-31.5-5.7zM879.3 1353.9s-69.8 3.9-78.3 1.7-9.6 24.1-10.9 38.8c-1.3 14.7 86.8 40.5 126 56.5 39.2 15.9 52.7 35.7 87.3 23.5 34.5-12.2 45.3-32.8 45.3-32.8s86.9-21.6 96.1-65c9.3-43.4-11.5-149.9-22.8-156.3-11.3-6.4-29.6 4-29.6 4s16.7-10.8 28.7-24.3c7.5-8.4 13.1-17.8 11.7-26.2-3.9-22-27.2-51.2-42.1-46-8.5 3-25.5 13.5-42.5 21.2-13.1 5.9-26.2 10-35.5 7.6-2.9-.7-6-2-9.2-3.5-20.5-9.4-46.6-30.3-66.8-17.6-23.3 14.7-28.5 25.6-42.8 25.4-14.3-.1-35.6-1.7-44.2 14.3-5 9.3-4.6 24.9-2.4 38.7 1.6 9.9 4 18.8 6.2 23.4 5.4 11.2 25.8 116.6 25.8 116.6zM765.7 977.2c-20.1-24-51.1 12.8-48.4 31.3 2.6 18.5 21.6 42.8 32.6 51.9 11 9.1 17.3 19.8 26.4 30.8 9.1 11 51.1 75.1 51.1 75.1l6.3-5.2 28.7-24s-3.8-18.1-11.4-32.2c-1.8-3.3-4.6-7.8-7.9-12.7-10.8-16.1-26.8-38.2-30.6-48.7-5-13.8-26.7-42.3-46.8-66.3zM900.4 885.7c-3.5-13.3-8.6-30.3-29.2-29.7-1.5 0-2.8-.1-4.5.2-24.6 3.5-33.3 37.6-26 58.3 4.2 11.9 17.3 55.2 29.8 91.4 9.1 26.6 17.9 49.4 22.5 53.2l2.3 2.3c6 6.1 22.8 21.4 32.4 19 11.9-2.9 19.5-10.8 6.4-51.4-2.4-7.5-5-16.7-7.6-26.8-4.3-16.7-8.7-35.9-12.6-53.8-6.4-29.3-11.7-55.5-13.5-62.7zM1009 1050.5l-1.1 4.2s6.9 19.6 17.8 24.8c10.9 5.2 12.7-.6 23.5-25.1s1.7-35.6-6.7-74c-8.4-38.5 3.3-30.9 4.9-52.2 1.6-21.3 1.8-53.7-15.9-70.8-17.7-17-28-9.5-36.2 3.7-8.2 13.3-.1 58.3 3.4 82.9 3.5 24.8 10.3 106.5 10.3 106.5zM1173.8 960c-9.2-14.9-7.6-14.2-27.3-15-19.7-.8-20.9 39.8-17.9 59.4s-24.4 63-24.4 63-1.8 2-3.1 4.5c-1 1.9-1.7 4-1 6 1.6 4.6-.5 35.1 3.1 45.5 3.7 10.4 18.6 5.1 26.5-9.4 7.8-14.4 14.7-20.7 25.3-30.9 6.4-6.2 9.8-26.5 12.8-46.1 1.9-12.7 3.7-25.1 5.9-33 5.9-20.2 9.3-29.1.1-44z"/><path fill="#6EC829" d="M1446.1 1538c11 3.6 24.4 3.7 34.7-9.6 10.3-13.3 9.6-21.6-.1-26.3-9.7-4.6-21.8.7-33.2 6.4-11.4 5.6-26.7 9.4-26.7 9.4-5.3 4.6-.3 22.1 2.6 22.7 2.9.6 11.8-6.3 22.7-2.6zM1389.7 1772.2c4.1-8.4 9.3-37.6 20.4-44.2 11-6.6 36.7-7 40.2-22.8 3.6-15.8 1.2-22.4 7.2-28.3 6-5.9 15.4-14.1 12.4-24.2-3.1-10.2-20.6-21.8-27.4-24.2-6.8-2.4-58.9-37.7-58.9-37.7s27.3-30.6 31.7-33.2c4.5-2.7-6-14-11.6-20.6-5.5-6.6-52.9 19.2-75.7 28.9-22.9 9.7-36.7 7-46 26.4-9.3 19.4-5.2 32.4-5.2 32.4s-27.1 45-12.9 66.9c14.2 21.8 67 57.4 74.3 55.4 7.3-2.1 10.7-14 10.7-14s-6.5 30.2 4.2 37.7c10.8 7.4 32.6 9.9 36.6 1.5zM1559.1 1658.6c-8.3.8-15.4-1-23.8-1.8-8.3-.8-52.4-10-52.4-10l-2.4 26.6s9.1 5.9 18.1 8.7c9 2.7 33.7 5.8 41.5 9.5 7.8 3.7 28.6 6.5 46.9 8.1 18.3 1.6 15.9-26.5 7.1-33.1-8.7-6.5-26.7-8.7-35-8zM1582 1756.9c-11.7-5.5-73.4-39.1-81.7-38.3h-1.9c-5.1 0-18.3.6-21.4 5.5-3.7 6.1-3.7 12.6 18.7 24 22.2 11.5 66 41.1 73.5 45.5 7.5 4.4 17.5 10 26.3-1.7 8.7-11.7-1.9-29.4-13.5-35zM1504.1 1810.2c-11.7-8.8-48.4-39.8-48.4-39.8l-1.3-2.2s-11-5.2-17.6-2.9c-6.7 2.4-5 5.5.7 20.2 5.7 14.6 14.1 15.5 33.5 27.9 19.4 12.5 11.5 14.2 19.6 23.7 8.2 9.4 21.5 23 36 22.8 14.4-.3 15.5-7.7 13.5-16.6-2.3-9-24.3-24.4-36-33.1zM1425.2 1839.1c-9.4-6.9-16-36.2-16-36.2s-.1-4.8-2.7-6c-2.6-1.2-14.3-14.8-20.2-17.6-5.8-2.8-9.8 5.6-7.1 14.9 2.7 9.2 2.5 14.7 2.3 23.3-.2 8.6 19.1 29.7 25.1 40.5s8.3 15.9 18.3 18.3c10 2.4 9 2.7 17.5-5.1 8.5-7.9-7.8-25.2-17.2-32.1z"/></svg>