<svg xmlns:xlink="http://www.w3.org/1999/xlink"  xmlns="http://www.w3.org/2000/svg" viewBox="0 0 2000 2000"><path fill="#0073A2" d="M1613.1 396.4C1271.4 242 1006.8 628.7 985.7 660.7c-17.1-33.8-246-466.8-627.7-264.3-11 5.9-21.6 12.3-31.9 19.2 154.1-40.6 349.3 60.9 436.7 171.6C848.5 695.8 947.3 806.6 990.2 854c76.4-91.3 260.4-266.5 484.1-167.2 297 131.9 307 723.9-376.8 1177.2 849.7-558.1 876.4-1304.4 515.6-1467.6zm151.5-245.8c-63.8 0-115.5 51.7-115.5 115.5s51.7 115.5 115.5 115.5 115.5-51.7 115.5-115.5-51.7-115.5-115.5-115.5z"/><path fill="#64C4E8" d="M235.4 150.6c-63.8 0-115.5 51.7-115.5 115.5s51.7 115.5 115.5 115.5 115.5-51.7 115.5-115.5-51.7-115.5-115.5-115.5zm1238.8 536.3c-223.7-99.4-407.7 75.8-484.1 167.2 13.8 15.3 21.9 24 21.9 24-19.9 10.7-39 17.8-57.4 22.2-.6.9-1.1 1.6-1.5 2.2-.3-.5-.5-1-.9-1.7-154.9 34.9-255.9-134.4-303-151.2-52.9-18.9-18.9 34-18.9 34 56.7 185.1 385.4 419.3 476 472.2 90.7 52.9 94.5 68 102 90.7 7.5 22.6-34 49.1-34 49.1-317.4-90.7-415.6-253.1-445.8-272-30.2-18.9-22.6 18.9-22.6 18.9 158.7 211.6 442 290.9 472.2 294.7 30.2 3.8 83.1 22.7 83.1 60.4 0 37.8-41.6 41.6-41.6 41.6-464.7-71.8-578-302.2-619.6-336.2-41.6-34-30.2 7.6-30.2 7.6 102 222.9 434.4 324.9 502.5 343.8 24.4 6.8 75.5 18.9 60.4 45.4-15.1 26.4-83.1 26.4-83.1 26.4-498.7-86.9-653.6-434.4-638.5-343.8 15.2 90.7 241.8 234.2 321.2 279.6 60.3 34.5 151.1 68 143.5 90.7-13.6 40.9-117.1-3.8-117.1-3.8-151-59.9-270.1-132.4-363-211.9 117.2 158.7 306 328.3 587.9 495.7h3.1c794.9-459.9 799.7-1107.1 487.5-1245.8z"/></svg>