<svg xmlns:xlink="http://www.w3.org/1999/xlink"  xmlns="http://www.w3.org/2000/svg" width="100" height="100" viewBox="0 0 100 100"><path fill="#5D5F68" d="M28.911 69.542c-16.011-16.016-17.387-41.119-4.132-58.7a45.621 45.621 0 0 0-2.659 2.454c-17.522 17.526-17.522 45.935 0 63.456 17.518 17.518 45.93 17.518 63.449 0a45.078 45.078 0 0 0 4.135-4.758c-17.626 15.022-44.129 14.207-60.793-2.452z"/><path fill="#A07D69" d="M49.667 71.926s-21.368-22.519 33.76-32.771c0 0 .353 54.459-30.259 36.462L67.83 56.588 49.667 71.926z"/><path fill="#5B331D" d="M38.97 65.584s-17.781 10.399-16.061-26.77c0 0 35.24 8.015 18.979 25.07L31.813 51.532l7.157 14.052z"/></svg>