<svg xmlns:xlink="http://www.w3.org/1999/xlink"  version="1" xmlns="http://www.w3.org/2000/svg" viewBox="0 0 150 150"><path fill="none" d="M62.1 136.1c1.3.3 2.5.6 3.8.8v-.3l-3.8-.5zM32.8 26.4V88c0 32.9 37.2 48 42.9 50.1 5.7-2.1 42.9-17.2 42.9-50.1V26.4c-21.6-.8-38-12.1-42.9-16-4.9 3.9-21.3 15.2-42.9 16zm83.4 60.8c0 31-35.1 45.3-40.5 47.3-5.4-2-40.5-16.3-40.5-47.3v-58c20.4-.9 35.9-11.5 40.5-15.2 4.6 3.6 20.1 14.3 40.5 15.1v58.1z"/><path fill="#00649D" d="M87 56.7c1.2-1.9 5.9-1.9 5.9-1.9V54s-5.6-.9-7-2.4c0 0-.3.3-.9.8 2.1.8 2.3 2.6 2 4.3z"/><path fill="#00649D" d="M35.3 29.1v58c0 31 35.1 45.3 40.5 47.3 5.4-2 40.5-16.3 40.5-47.3v-58C95.8 28.3 80.4 17.7 75.7 14c-4.6 3.7-20.1 14.3-40.4 15.1zm44.3 3.7c-1 2.7 4.8 3.7 8.9 6 4.1 2.3 4.4 5.9 1.7 9.4l6.2 3.3-.9 1.9 13.2 5.3s-1.2 2.7-2.3 3.2c1.1 1.9-1.2 7.2-3.2 8.2.1-1.2.2-3.4-1.8-5.2-.3.3-.5.7-.7 1.1-1.8-1.1-3.4-2.1-5.3-2.2-1 .6-1.7 1.4-2.2 2.3 2.1 2.3 6.5 3.3 9 2.9-1.5 1.9-5.7 1.8-9.1 1.4.2.6.4 1.1.7 1.6 1.5.8 3.3 1.2 3.7.6.5.5.8 1 .9 1.4 2.3-.1 3-1.2 3.2-1.6.3.8-2.3 6.5-.9 7.4-2 2.1-3.6.8-3.6.8s-3.6-7.2-13.3-7c-9.7.3-12.2-13.3-3.4-17.3l-1.3-1.4s-7.6 4.4-5.5 12.8c1.7 6.9 7.3 7.7 11.4 7.3 6.7 4.3 14.1 13.8 13.2 22.3-3.1-9.1-13.2-12.7-18.1-11.5 5.8 2.8 15.1 11.7 14.2 26-2.4-3.7-6.8-15.7-19.7-22.1.2 2 .5 4.2 1.1 6.2.4 1.3 6 5.1 9.8 6.1-1.4.1-6.3-.5-7.7-.7 2.1 4.2 5.4 7.6 10 9-6.8-.6-11.5-4.9-14.7-9.9-3-.9-5.7-2.2-8-3.5 1.6 6.1 5.1 11.7 10.9 13.5-9.1.3-14.3-9.2-17.1-17.7-.5-.4-.8-.6-.8-.6s-1.9 5.2 2.5 13.8c-4.6-2.5-9-12.9-10.2-17.7-1.4 5.9-1.1 12 2.9 16.3-10.6-5.8-6.7-22.7-3.9-31.3.1-1 .2-1.6.2-1.6s-3.5 1.5-6.1 7.4C40.8 60.1 54 52.7 54 52.7s-4.1-1.2-7.2.5c.7-9.5 20.7-14.4 20.7-14.4s-1.2-2.3-4.1-2.6c3.4-3.1 13.6.8 13.6.8s-.2-2.9 2.6-4.2z"/><path fill="#575756" d="M123.5 21.8h-2.4c-24.8 0-43.6-16.1-43.7-16.3l-.4-.2-1.3-1.1-1.3 1.1-.3.3c-.1.1-18.9 16.2-43.7 16.2H28V88c0 39 47.3 55.2 47.7 55.3.5-.2 47.7-16.4 47.7-55.3V21.8h.1zM118.6 88c0 32.9-37.2 48-42.9 50.1C70 136 32.8 120.9 32.8 88V26.4c21.6-.8 38-12.1 42.9-16 4.9 3.8 21.3 15.2 42.9 16V88z"/><g fill="#00649D"><path d="M63.7 71.8c0-.1 0 0 0 0zM58.9 75.5zM75.7 87.1h-.8v-.8H59.6v.8H59v1.2h16.7z"/><path d="M65.5 86c.5.7 2.5.1 4.4-1.4 1.9-1.4 3-3.2 2.4-3.9-.3-.4-1.3-.3-2.4.2v-.1c-.5-.3-1-.6-1.5-1.1l.8-.6-1.1-1.4.6-.5-.6-.8.2-.1.3.4.9-.7-.5-.5 6.6-5.1c1.7-.5-.7-2.9-1.5-1.4l-6.4 4.9-.5-.6-.9.7.5.6-.2.1-.6-.9-.6.5-1.2-1.5-.9.7c-.3-.6-.5-1.1-.7-1.6.8-.9 1.1-1.8.7-2.3-.5-.7-2.5-.1-4.4 1.4-1.9 1.4-3 3.2-2.4 3.9.4.4 1.3.3 2.4-.2.4.3.9.7 1.4 1.1L58.7 77l4.9 6.4 1.6-1.2c.3.6.6 1.2.8 1.8-.6.7-.9 1.6-.5 2z"/></g></svg>