<svg xmlns:xlink="http://www.w3.org/1999/xlink"  version="1" xmlns="http://www.w3.org/2000/svg" viewBox="0 0 150 150"><path fill="none" d="M62.1 136.1c1.3.3 2.5.6 3.8.8v-.3l-3.8-.5z"/><path fill="#00B3F0" d="M50.2 61h-.1c.1.1.1.2.1.2V61zM50.2 120v-.1h-.3c.1 0 .2.1.3.1zM10.1 80.1c5.7 15.1 16.8 27.7 31.2 35.7V86.9c-3.6 2.7-8 4.3-12.7 4.3-7.9 0-14.9-4.3-18.5-11.1zM5.8 57.2c0 5 .6 9.8 1.7 14.5h4.4c-.4-3 0-6 1.2-8.9 1.3-3.3 3.7-6.2 6.8-8.4 2.2-1.5 4.6-2.5 7.1-3.1v-7.6h12.3V37.5h34V14.8C35.7 16.9 5.8 20.9 5.8 57.2zM74.5 14.7h-.6c.2.1.4.1.6 0z"/><path d="M118.9 91.2c-4.9 0-9.5-1.7-13.2-4.7v29.7c15.8-8.5 27.8-22.6 33.1-39.4-2.9 8.6-10.8 14.4-19.9 14.4zM138.9 76.8v.1c-.1-.1 0-.1 0-.1zM96.8 61.3c.1-.1.1-.2.1-.3h-.1v.3zM74.5 14.8c-.2 0-.4 0-.6-.1h-.6V37.6h34.4v6.2H120V51.4c2.5.6 4.9 1.6 7.1 3.1 3.1 2.1 5.5 5.1 6.8 8.4 1.2 2.9 1.5 5.9 1.2 8.9h5.1c1.1-4.7 1.7-9.5 1.7-14.5 0-36.4-29.9-40.4-67.4-42.5zM54.7 128.2h18.7v2.8H54.7zM43.8 55.1h29.7v2H43.8zM43.8 41.5h29.7v2H43.8zM31.4 47.6h42v3.5h-42zM54.7 59.4h6.1v66.4h-6.1zM65.6 59.4h6.1v66.4h-6.1zM45.4 60.3c-3.5-4.3-9.4-6.5-15-5.8-2.8.3-5.5 1.4-7.8 3s-4.3 3.9-5.4 6.6c-2.2 5.4-.7 12.1 3.8 16 2.3 2 5.3 3 8.3 2.8 3-.1 5.8-1.5 7.8-3.7 2.1-2.3 2.9-5.4 2.3-8.3-.7-2.9-2.6-5.4-5.5-6.3-2.8-.9-6 .1-7.6 2.3-.9 1.1-1.3 2.5-1.1 3.8.1 1.3.8 2.4 1.6 3.3 0 0 0 .1.1.1V74c-1.5-2-1.2-4.8.4-6.3 1.6-1.6 4.1-2 6-1.1 1.8.8 3.1 2.8 3.4 4.8.3 2-.5 4.1-1.9 5.4-1.5 1.4-3.5 2.2-5.5 2.2s-4-.7-5.4-2c-1.5-1.4-2.6-3.2-3-5.2-.5-2-.3-4.1.5-6 1.4-3.8 5.5-6.5 9.6-7.1 4.2-.7 8.8.8 11.8 4 2.6 2.6 4.3 6 4.9 9.7 0 .2.1 3.1.1 3.1h-4.1l-.5 1.2c-2.5 5.4-8 9-14.1 9-6.5 0-12.4-4.1-14.6-10.2h-1.7c2.3 7 8.9 11.8 16.3 11.8 6.4 0 12.1-3.6 15-9h1.5V116h4.5V72.7c0-4.5-1.7-8.9-4.7-12.4zM111.6 71.5c-.3 2 .5 4.1 1.9 5.4 1.5 1.4 3.5 2.2 5.5 2.2-2 0-3.9-.8-5.5-2.2-1.4-1.3-2.1-3.4-1.9-5.4.2-2 1.6-4 3.4-4.8.5-.2 1-.4 1.5-.4-.5.1-1 .2-1.5.4-1.8.8-3.2 2.9-3.4 4.8z"/><path d="M130.9 64.2c2.2 5.4.7 12.1-3.8 16a11.513 11.513 0 0 0 0 0c4.5-3.9 6-10.6 3.8-16-1-2.7-3.1-5.1-5.4-6.6-2.3-1.6-5-2.7-7.8-3 2.8.3 5.5 1.4 7.8 3 2.3 1.5 4.3 3.9 5.4 6.6zM119.5 87.3c7.4 0 14-4.8 16.3-11.8-2.3 7-8.9 11.8-16.3 11.8zM119.5 85.8c-6.5 0-12.3-4.2-14.6-10.2 2.2 6 8.1 10.2 14.6 10.2zM100.4 72c-.1.3-.2 3.5-.2 3.5.1 0 .2-3.1.2-3.5.7-3.5 2.4-6.8 4.9-9.3 2.3-2.4 5.4-3.8 8.6-4.1-3.2.3-6.3 1.7-8.7 4.1-2.4 2.5-4.1 5.8-4.8 9.3z"/><path d="M123 70.8c-.1 1.3-.7 2.4-1.6 3.2 0 0 0 .1-.1.1.9-.8 1.6-2 1.7-3.3.1-1.3-.2-2.7-1.1-3.8-1.2-1.6-3.3-2.6-5.5-2.6 2.1 0 4.2 1 5.5 2.6.8 1.1 1.2 2.5 1.1 3.8z"/><path fill="#00B3F0" d="M73.5 128.2h20v2.8h-20zM73.5 55.1h31v2h-31zM73.5 41.5h31v2h-31zM73.5 47.6h43.3v3.5H73.5zM87.4 59.4v66.4h6.1V59.4h-6.1zM76.5 59.4v66.4h6.1V59.4h-6.1zM119.5 87.3c7.4 0 14-4.8 16.3-11.8h-1.6c-2.2 6.1-8 10.2-14.6 10.2-6.5 0-12.4-4.1-14.6-10.2h-4.6s.1-3.2.2-3.5c.7-3.5 2.4-6.8 4.9-9.3 2.3-2.4 5.5-3.8 8.7-4.1 1.1-.1 2.1-.1 3.2.1 4.2.6 8.2 3.4 9.6 7.1.8 1.9 1 4 .5 6-.4 2-1.5 3.8-3 5.2-1.4 1.3-3.4 2.1-5.3 2-2 0-4-.8-5.5-2.2-1.4-1.3-2.1-3.4-1.9-5.4.2-2 1.5-4 3.4-4.8.5-.2 1-.4 1.5-.4 1.5-.2 3.2.3 4.5 1.5 1.6 1.4 1.9 4.4.3 6.3l.1-.1c.9-.8 1.5-2 1.6-3.2.1-1.3-.3-2.7-1.1-3.8-1.2-1.6-3.3-2.6-5.5-2.6-.7 0-1.4.1-2.1.3-2.9.9-4.8 3.4-5.5 6.3-.7 2.9.2 6 2.3 8.3 1.9 2.1 4.8 3.5 7.8 3.7 3 .2 6-.8 8.3-2.8 4.5-3.8 6-10.5 3.8-16-1.1-2.7-3.1-5.1-5.4-6.6-2.3-1.6-5-2.7-7.8-3-5.6-.7-11.4 1.5-14.9 5.8-3 3.4-4.7 7.9-4.9 12.3v43.3h4.5V78.3h2c2.7 5.5 8.4 9 14.8 9z"/></svg>