<svg xmlns:xlink="http://www.w3.org/1999/xlink"  version="1" xmlns="http://www.w3.org/2000/svg" viewBox="0 0 150 150"><path fill="none" d="M118.2 24.6c6.6 62.4-27.4 101.5-27.4 101.5 44.4-31.2 36.7-104 36.7-104l-9.3 2.5zM31 24.6l-9.4-2.4S14 95 58.3 126.2c.1 0-33.8-39.2-27.3-101.6z"/><path fill="#0086A0" d="M73.5 124.9l.1-17.2-9.5 16.8c3.2.3 5.7.4 9.4.4zM74.1 124.9c3.5 0 7.9-.1 11-.4l-10.9-16.4-.1 16.8z"/><path fill="#0086A0" d="M134 12.2c-2.4 1.2-4.8 2.3-7.2 3.3l-2.1.9c-1.8.7-3.6 1.4-5.3 2.1-.7.2-1.3.5-2 .7-2.3.8-4.7 1.6-7 2.2-.2.1-.4.1-.6.2-2.1.6-4.2 1.1-6.3 1.6-.6.1-1.3.3-1.9.4-1.8.4-3.6.7-5.4 1l-1.5.3c-2.3.4-4.5.7-6.7.9h-.6c-2 .2-4 .4-6 .5-.5 0-1 0-1.5.1-1.9.1-3.7.1-5.5.1C38.7 26.7 13.3 13 13.3 13c-17.2 101.3 54 123.8 60.5 125.7.3.1.5.1.5.1C155.1 112.7 134 12.2 134 12.2zm-112.3 10l9.4 2.4C24.5 87 58.4 126.2 58.4 126.2 14.1 95 21.7 22.2 21.7 22.2zM85.8 125c-.7 3.3-5.4 5.9-11.1 5.9-5.7 0-10.4-2.6-11.1-5.9h-.1l.1-.3c0-.1 0-.2-.1-.4h.2l9.7-17.3c-.8 0-1.6-.3-2.1-.8-.9-.9-.7-2.1.4-2.8-.4.5-.4 1.2.1 1.7.7.7 2.1.8 3 .3.8-.5 1.1-1.3.6-1.9.1.1.2.1.3.2.9.9.7 2.1-.5 2.8l-.9.3 11.5 17.5h.2v.3l.1.2-.3.2zm6.6-46.6c1.1-.4 1.4-1.5 1.2-2.5-.9-4.6-8.5-5.3-11.7-4.5-3 .8-6.4 2.6-9.9 5.7-.9.8-5.8 8-11.7 6 2.7.4 4-2.7 2-3.5-1.7-.7-4.2-.1-5.9.9-4.1 2.2-7 6.2-3.6 10.9h-8.2c-.8-4 5-5.3 5.8-12 .4-3.3 1.1-6.1 4-8.2-1.4-.2-2.8.6-4 1.3-1.8 1.2-6.8 3-9.3-.2 5.4 2.2 9.9-4.8 11.9-6.5 2.9-2.5 8.7-3.7 12.1-1-3.9-1.2-4.5 2.1-1.4 3.5 1.8.8 5 .5 9.3-1.1-8.6-5-12.3-11.7-13.2-21.4 3.7 9.7 12.5 15 22.4 16.7 3.7.6 7.4.9 11.4 2.1 3.7 1.1 5.9 3.1 7.2 5.5 3.2 6.1-3.2 13.2-9.7 11.4-1.4-.4-2.2-1.7-2.4-3-.1-1.1.2-2.2 1.2-2.7-.9.7 0 3.6 2.5 2.6zm1.9 5.7c3.9-2.4 9.1-5 9.1-11.1.1-6.6-6.2-9.7-11.7-11-4-.9-8.7-.8-12.6-2.3-1.7-.6-2.8-1.4-3.5-2.6-.7-1.4-.7-3.3 1.4-4.3 1.3-.7 3.6-.5 4.4.8-1.7-1.1-2.8-.5-3.2.4-.5 1.3.9 2.3 2.1 2.5 2.9.5 4.4-3.2 1.7-4.9-1.3-.8-3.1-.7-4.4-.5-5.2.5-12-1-12.5-5.7 4.4 5 13.6 1 20.1-.5 2.4-.6 6.4-.8 9.1.9.4.3.6.7.8 1 .3.5 1.9.4 2.5.3 1-.2 1.3-.3 1.8-.6.7-.4 1.7-.3 2.3-.2 1.4.3 2.1 1.5 1.9 2.5-.1.8-.5 1.4.8 2-.1.4-1.2.9-2.4 1.1-1.7.2-3.7.1-4.1.1-1.4 0-2.3.6-2.1 1.2.4.9 3.6 1.5 4.6 1.6.9.1 1.5-.2 1.6-1.4 1.3 2.6-.5 5.4-4.1 5 1-1.8-1.9-2.8-4.3-3.1-1.5-.2-3.6 1.1-1.5 2.5 1 .7 4 1.4 5.4 1.9 7.8 2.9 9.7 8.8 9.4 12.7-.4 4.8-4.6 7.9-8.4 11.6-.7.7-1.1 1.5-1.1 2.3-.1 1.5.8 3.2 2.4 5.1H89c.1-1.5-.1-4 5.3-7.3zm-3.5 42.1s34-39.1 27.4-101.5l9.3-2.4c.1-.1 7.7 72.7-36.7 103.9z"/></svg>