<svg xmlns:xlink="http://www.w3.org/1999/xlink"  version="1" xmlns="http://www.w3.org/2000/svg" viewBox="0 0 150 150"><path fill="#016B79" d="M122.5 58.4c-.1-1.5-.4-3.9-.7-6.6-.7-5.6-1.5-12.6-1.5-19.4 0-1.6.1-3.1.2-4.5-16.8-2.1-34.7-7.9-45.9-13.3-11.3 5.5-29.2 11.2-46 13.4.1 1.4.1 2.9.1 4.5 0 6.8-.8 13.8-1.5 19.4-.3 2.6-.6 5.1-.7 6.6l-.1 3.8c0 10 2.1 19.7 6.2 28.7 8.7 19.2 26.9 34.1 41.9 43.9 15-9.8 33.1-24.7 41.9-43.9 4.1-9.1 6.2-18.7 6.2-28.7l-.1-3.9z"/><path fill="#00B2C9" d="M132.2 58c-.3-5.2-2.2-15.9-2.2-25.6 0-2.6.1-5.1.5-7.4v-.2c.3-2.1.9-4.1 1.6-5.7-21.7-.3-48.3-9.8-57.6-15.5-9.3 5.6-35.9 15.1-57.6 15.5.7 1.6 1.3 3.6 1.6 5.7v.2c.4 2.3.5 4.8.5 7.4 0 9.7-1.9 20.4-2.2 25.6-.1 1.4-.1 2.8-.1 4.2 0 11.3 2.4 22.5 7.1 32.8 9.9 21.7 30.7 39.2 50.7 51.4 20-12.2 40.9-29.7 50.7-51.4 4.7-10.4 7.1-21.5 7.1-32.8 0-1.4 0-2.8-.1-4.2zm-57.7 81.4c-9.5-6-17.9-12.5-25.1-19.4-9.2-8.9-16-18.1-20.3-27.4-2.4-5.3-4.2-11-5.3-16.7-1.1-5.7-1.5-11.6-1.2-17.5.1-1.6.4-4.1.7-6.9 1-8 2.2-18.2 1-26.8 10.4-1 20.4-3.4 27.6-5.6 8.5-2.5 16.8-5.7 22.5-8.6 5.7 2.9 13.9 6.1 22.5 8.6 7.1 2.1 17.2 4.6 27.6 5.6-1.2 8.6 0 18.8 1 26.8.3 2.8.6 5.3.7 6.9.3 5.9-.1 11.7-1.2 17.5-1.1 5.8-2.9 11.4-5.3 16.7-4.2 9.4-11.1 18.6-20.3 27.4-7 6.8-15.4 13.4-24.9 19.4z"/><path fill="#00B2C9" d="M98.8 58.7c-7.3-.2-16.1 7.4-19.2 30.2h-1.2c.4-6.3 1.3-11.6 3.3-16.9 9-17.3 3.6-30.6-6.7-43-10.3 12.6-15.6 25.7-6.7 43 2 5.2 3 10.2 3.3 16.9h-1.3c-3.1-22.8-12-30.4-19.2-30.2-11.3.3-18.9 19.4 4.9 28.7-10.7-13.5 8.5-14.2 8.7 1.5h-1c-1.8 0-3.2 1.2-3.2 2.6 0 1.4 1.5 2.6 3.2 2.6H68c-2.9 6.8-5.7 9.4-9.9 12.3 3.9 0 7.8-.1 11.8-3.4.1 10.4 1.6 13.9 5.2 17.4 3.6-3.4 5.2-7 5.2-17.4 4 3.4 7.9 3.5 11.8 3.4-4.3-3.1-7-5.5-9.9-12.3h4.4c1.8 0 3.2-1.2 3.2-2.6 0-1.4-1.4-2.6-3.2-2.6h-1.3c.1-15.7 19.3-15 8.7-1.5 23.7-9.3 16.2-28.4 4.8-28.7z"/></svg>