<svg xmlns:xlink="http://www.w3.org/1999/xlink"  xmlns="http://www.w3.org/2000/svg" width="100" height="100" viewBox="0 0 100 100"><path fill="#FFF" d="M7.771 22.057c.019 18.716-.019 37.427-.007 56.145 15.569-.012 31.139-.007 46.708 0-.018-18.71-.033-37.417-.023-56.128-15.559.061-31.116.04-46.678-.017zm48.916-.25c.046 7.735-.099 15.463-.099 23.199-.009.278-.023.837-.027 1.116.004 1.591.114 3.174.107 4.758-.185 9.104-.061 18.206-.08 27.315 11.889-.012 23.778 0 35.67 0-.018-10.708.023-21.411-.023-32.123.01-.255.021-.771.029-1.026-.035-7.752.023-15.499-.029-23.248-11.851.001-23.698.044-35.548.009z"/><path fill="#1F373F" d="M7.771 22.057c15.562.058 31.119.078 46.677.018-.01 18.71.006 37.418.023 56.128-15.569-.007-31.139-.012-46.708 0-.011-18.719.027-37.43.008-56.146zm1.186.916l.021.058a27.106 27.106 0 0 0-.146 2.586c-.013 17.095.087 34.193.005 51.292 1.381.121 2.777.168 4.167.149 13.427-.063 26.862.105 40.291-.086.057-11.614.008-23.233.063-34.852.229-6.349.087-12.701.119-19.05-2.773-.18-5.558-.018-8.332-.142-3.656-.336-7.341-.16-11.008-.212-3.986.041-7.973-.119-11.947.232-4.413.051-8.824.071-13.233.025z"/><path fill="#535234" d="M56.687 21.807c11.851.035 23.697-.008 35.548-.008.053 7.749-.006 15.495.029 23.248-11.892-.081-23.787-.006-35.676-.041 0-7.735.144-15.464.099-23.199zm.676.864c0 7.016.047 14.029.042 21.048 11.225.072 22.445-.087 33.67.063h-.006c.299-7.01.055-14.031.125-21.047-11.277.012-22.552-.076-33.831-.064z"/><path fill="#535234" d="M61.857 41.028a76.196 76.196 0 0 0-.669-1.864c.505.51 1.101.82 1.788.931-.08.18-.236.544-.316.722-.199.055-.604.159-.803.211z"/><path fill="#B4BEC6" d="M8.957 22.973c4.409.046 8.82.026 13.233-.023 3.974-.351 7.961-.192 11.947-.232 3.667.052 7.352-.125 11.008.212 2.773.125 5.558-.038 8.332.142l-.861.667c-4.279.113-8.566.073-12.85.104-4.829-.099-9.663-.081-14.49-.018-3.641.018-7.281-.133-10.917.023-1.667.012-3.334-.023-5 .006-.097-.203-.284-.614-.381-.823l-.021-.058z"/><path fill="#E0DFC1" d="M57.363 22.671c11.278-.012 22.554.076 33.831.064-.07 7.016.174 14.038-.125 21.047a38.162 38.162 0 0 0-.377-.621c-.348-6.581-.055-13.197-.143-19.789-10.822-.035-21.642.128-32.46.053.008 6.609.037 13.225-.082 19.829-.154.116-.453.348-.603.464.006-7.018-.041-14.031-.041-21.047z"/><path fill="#CFE7EF" d="M8.979 23.031c.097.209.284.62.381.823.139 1.2.129 2.4.125 3.606-.053 16.299-.009 32.595-.07 48.898a24.96 24.96 0 0 0-.578.551c.082-17.1-.018-34.197-.005-51.292.005-.87.061-1.728.147-2.586z"/><path fill="#B3BEC4" d="M53.477 23.071c-.032 6.349.11 12.701-.119 19.05-.055 11.618-.006 23.237-.063 34.852-13.429.191-26.864.022-40.291.086a41.353 41.353 0 0 1-4.167-.149c.142-.14.432-.418.578-.551 14.391-.094 28.785.005 43.175-.047a4905.2 4905.2 0 0 0 .002-24.563c.007-3.559-.012-7.119-.012-10.682.042-5.778-.074-11.553.035-17.328l.862-.668z"/><path fill="#595826" d="M58.09 23.425c10.818.075 21.638-.088 32.46-.053.088 6.592-.205 13.208.143 19.789-10.893.18-21.792-.04-32.685.093.119-6.604.09-13.219.082-19.829zm.723 1.084c.042 5.81 0 11.614.079 17.43 10.225-.006 20.452-.018 30.687-.012-.047-5.856.121-11.718-.092-17.568-2.894 1.806-5.301 4.476-8.557 5.624-1.965-.997-3.614-3.444-1.925-5.45-6.728.005-13.457-.041-20.192-.024z"/><path fill="#143843" d="M9.36 23.854c1.666-.029 3.333.006 5-.006-1.275.417-2.544.87-3.805 1.322.007 16.287.028 32.571.036 48.852 13.435.023 26.871-.007 40.31.012.005-2.97-.003-5.937.016-8.906-1.419-.974-2.815-1.977-4.265-2.895-1.321-.962-3.126-.638-4.48-1.529-.961-.634-1.421-1.724-1.915-2.704.027-.242.087-.73.114-.967.748.372 1.5.747 2.255 1.119 1.958-1.207 4.006-2.286 5.754-3.799.308.703.588 1.422.868 2.141.537.439 1.082.869 1.63 1.31.037-1.681.037-3.368.032-5.052.56-.336 1.118-.672 1.681-1.004.016 8.189.023 16.377-.002 24.563-14.39.052-28.784-.047-43.175.047.062-16.303.018-32.599.07-48.898.005-1.206.015-2.406-.124-3.606z"/><path fill="#35535D" d="M14.359 23.848c3.635-.157 7.275-.006 10.917-.023-1.347.629-2.756 1.131-4.221 1.392-3.5 0-7.006.052-10.5-.046a142.35 142.35 0 0 1 3.804-1.323z"/><path fill="#4A6672" d="M25.276 23.825c4.827-.063 9.661-.081 14.49.018 1.839.615 3.744.986 5.648 1.345-8.118.072-16.237.018-24.359.029 1.465-.261 2.874-.763 4.221-1.392z"/><path fill="#32505C" d="M39.766 23.842c4.283-.032 8.571.009 12.85-.104-.109 5.775.007 11.55-.035 17.328-.559.681-1.115 1.354-1.669 2.032-.006-5.958.005-11.916 0-17.879-1.833 0-3.665.015-5.498-.032-1.904-.359-3.809-.73-5.648-1.345z"/><path fill="#FFF" d="M58.813 24.509c6.734-.017 13.464.029 20.192.023-1.689 2.006-.04 4.453 1.925 5.45 3.256-1.148 5.663-3.818 8.557-5.624.213 5.85.045 11.712.092 17.568-10.234-.006-20.462.006-30.687.012-.079-5.815-.037-11.619-.079-17.429zm9.724 5.543c.168 3.003-1.885 5.366-3.866 7.346l-.238.087c-.545.417-1.085.844-1.618 1.27-.545.127-1.09.267-1.626.409.232.617.452 1.238.669 1.864.198-.052.604-.156.803-.211.08-.178.236-.542.316-.722 1.094-.696 2.222-1.351 3.239-2.168 2.559-.661 5.259-1.125 7.832-.221.23-3.375 2.491-6.128 5.071-8.118-.47-.8-.925-1.618-1.363-2.44-2.618 2.017-5.896 3.139-9.219 2.904zM10.59 74.021c-.008-16.28-.029-32.564-.036-48.852 3.495.099 7 .046 10.5.046 8.122-.011 16.241.043 24.359-.029 1.833.046 3.665.032 5.498.032.005 5.963-.006 11.921 0 17.879.007 3.218-.014 6.436 0 9.654a202.49 202.49 0 0 1-.032 5.052c-.548-.44-1.093-.87-1.63-1.31-.28-.719-.56-1.438-.868-2.141-1.124-1.456-2.974-1.659-4.604-2.159-1.396-.364-1.4-2.492-2.823-2.666-1.735 1.601-3.098 3.628-4.279 5.661-.503 1.338 1.295 1.286 2.158 1.427.491.438.973.892 1.423 1.384.494.98.954 2.07 1.914 2.703 1.354.892 3.159.567 4.48 1.529 1.45.918 2.846 1.921 4.265 2.895-.019 2.97-.011 5.937-.016 8.906-13.438-.017-26.874.013-40.309-.011zm15.325-42.983c2.107 1.629 4.332 3.12 6.474 4.702 2.044 1.461 4.062 2.952 6.082 4.442.632.412 1.291.989 2.108.884 1.522-.067 2.638-2.108 1.577-3.325-1.21-1.276-2.79-2.122-4.176-3.177-2.897-2.14-5.834-4.212-8.726-6.361-.827-.58-1.863-1.363-2.907-.789-1.422.568-1.763 2.763-.432 3.624zm-2.128.388c-1.593.481-2.01 2.835-.563 3.74 3.864 2.876 7.82 5.63 11.676 8.512.775.539 1.519 1.183 2.447 1.45 1.22.212 2.489-.846 2.447-2.093.083-1.033-.8-1.699-1.53-2.238-3.923-2.813-7.844-5.616-11.721-8.48-.802-.531-1.737-1.337-2.756-.891zm-7.625 10.617c4.343 3.247 8.78 6.36 13.148 9.584a26.296 26.296 0 0 0 2.964 1.944c1.64-2.32 3.424-4.536 4.943-6.934-.003-.832-.986-1.11-1.492-1.609-4.855-3.345-9.461-7.054-14.42-10.24-1.731 2.407-3.628 4.703-5.143 7.255zm-1.133 1.264c-1.538.499-1.881 2.841-.464 3.699 4.026 3.021 8.157 5.896 12.2 8.896.826.551 1.698 1.375 2.789 1.063.797-.325 1.545-1.044 1.564-1.954.151-1.086-.817-1.828-1.579-2.397a1529.391 1529.391 0 0 1-11.912-8.618c-.73-.562-1.661-1.083-2.598-.689zm22.881 3.977c-1.727 1.815-3.112 3.967-4.525 6.035-.761 1.434 1.061 2.733 2.277 1.852 1.258-1.392 2.216-3.021 3.369-4.494.488-.754 1.332-1.595.923-2.569-.138-.965-1.318-.962-2.044-.824zm-26.145.47c-1.261.701-1.257 2.73-.045 3.488 4.063 2.99 8.183 5.906 12.246 8.91.721.47 1.447 1.16 2.381 1.025 1.36-.045 2.434-1.768 1.734-2.979-.341-.667-1.006-1.066-1.576-1.513-4.03-2.859-8.004-5.794-12.018-8.676-.748-.638-1.892-.907-2.722-.255z"/><path fill="#496977" d="M25.915 31.038c-1.331-.861-.99-3.056.432-3.624 1.044-.574 2.08.208 2.907.789 2.892 2.148 5.829 4.221 8.726 6.361-1.854.435-3.718.82-5.591 1.176-2.142-1.583-4.367-3.073-6.474-4.702z"/><path fill="#626232" d="M68.537 30.052c3.323.235 6.601-.887 9.219-2.905a67.17 67.17 0 0 0 1.363 2.44c-2.58 1.989-4.841 4.743-5.071 8.118-2.573-.904-5.273-.44-7.832.221l-.555.032c1.659-1.412 3.615-2.386 5.373-3.65.156-.313.472-.936.635-1.247-2.514 1.166-4.288 3.549-6.998 4.337 1.981-1.98 4.034-4.342 3.866-7.346z"/><path fill="#3E606E" d="M23.787 31.426c1.019-.446 1.954.36 2.754.89 3.877 2.864 7.798 5.667 11.721 8.48.73.539 1.613 1.206 1.53 2.238.042 1.247-1.227 2.305-2.447 2.093-.928-.267-1.671-.911-2.447-1.45-3.855-2.881-7.812-5.635-11.676-8.512-1.445-.903-1.028-3.258.565-3.739z"/><path fill="#ADAD91" d="M64.671 37.398c2.71-.788 4.484-3.172 6.998-4.337-.163.311-.479.934-.635 1.247-1.758 1.264-3.714 2.238-5.373 3.65l.555-.032c-1.018.817-2.146 1.472-3.239 2.168a3.166 3.166 0 0 1-1.788-.931 59.413 59.413 0 0 1 1.626-.409 97.338 97.338 0 0 1 1.618-1.27l.238-.086z"/><path fill="#40616E" d="M32.389 35.74c1.873-.356 3.737-.742 5.591-1.176 1.386 1.055 2.966 1.901 4.176 3.177 1.061 1.217-.055 3.258-1.577 3.325-.818.104-1.476-.473-2.108-.884-2.021-1.491-4.038-2.981-6.082-4.442z"/><path fill="#315461" d="M16.162 42.043c1.515-2.552 3.412-4.848 5.144-7.254 4.959 3.186 9.564 6.895 14.42 10.24.506.499 1.489.777 1.492 1.609-1.519 2.397-3.304 4.613-4.943 6.934a26.296 26.296 0 0 1-2.964-1.944c-4.369-3.225-8.806-6.338-13.149-9.585z"/><path fill="#24444F" d="M50.911 43.098c.554-.679 1.11-1.351 1.669-2.032 0 3.563.019 7.123.012 10.682-.563.332-1.121.668-1.681 1.004-.014-3.218.007-6.436 0-9.654z"/><path fill="#244654" d="M15.029 43.307c.937-.395 1.869.127 2.598.687 3.958 2.884 7.923 5.769 11.912 8.618.761.569 1.729 1.312 1.579 2.397-.019.91-.767 1.629-1.564 1.954-1.09.313-1.962-.512-2.789-1.063-4.043-3-8.174-5.875-12.2-8.896-1.418-.856-1.074-3.198.464-3.697z"/><g fill="#FFF6EC"><path d="M58.008 43.254c10.892-.132 21.792.087 32.684-.092.099.157.284.464.377.621h.006c-11.225-.151-22.445.009-33.67-.063.15-.117.449-.349.603-.466zM56.588 45.006c11.889.035 23.784-.041 35.676.041-.008.255-.02.771-.029 1.026-11.886.084-23.784.023-35.674.049.003-.279.018-.838.027-1.116z"/></g><path fill="#5D1D1F" d="M56.561 46.122c11.89-.026 23.788.035 35.674-.049.047 10.711.006 21.415.023 32.123-11.892 0-23.781-.012-35.67 0 .02-9.109-.104-18.211.08-27.315.007-1.585-.104-3.168-.107-4.759zm.837.855c.053 10.002 0 20.006.088 30.006 11.234.211 22.474.035 33.708.07.112-10.02 0-20.039.061-30.065-11.283.059-22.567-.057-33.857-.011z"/><path fill="#274B58" d="M37.91 47.284c.726-.139 1.906-.142 2.044.824.409.974-.435 1.814-.923 2.569-1.153 1.474-2.11 3.103-3.369 4.494-1.216.882-3.039-.418-2.277-1.852 1.413-2.068 2.799-4.219 4.525-6.035z"/><path fill="#E8A3A4" d="M57.398 46.977c11.29-.046 22.573.07 33.856.011-.061 10.026.052 20.046-.061 30.065-11.234-.035-22.474.141-33.708-.07-.087-10-.034-20.004-.087-30.006zm.76.8c.088 9.516-.15 19.039.059 28.546 10.616-.035 21.233.005 31.853 0l.484-.023c-.004-9.52.028-19.042-.016-28.563-10.738-.047-21.473 0-32.21.052l-.17-.012z"/><path fill="#1C3E4B" d="M11.765 47.754c.831-.653 1.975-.383 2.722.255 4.014 2.882 7.988 5.817 12.018 8.676.57.446 1.235.846 1.576 1.513.7 1.212-.375 2.935-1.734 2.979-.935.135-1.661-.556-2.381-1.025-4.063-3.004-8.182-5.92-12.246-8.91-1.212-.757-1.217-2.786.045-3.488z"/><path fill="#882624" d="M58.158 47.777l.17.012c3.426.406 6.884.191 10.313.563-2.969.302-5.966.163-8.93.554-.654 4.874.203 9.837-.806 14.674-.608 4.221-.174 8.512-.689 12.744-.208-9.509.03-19.031-.058-28.547z"/><g fill="#6A1C1F"><path d="M58.328 47.789c10.737-.052 21.472-.099 32.21-.052.044 9.521.012 19.043.016 28.563l-.484.023c-.041-1.31-.084-2.622-.102-3.927-.105 1.004-.191 2.013-.354 3.012l-.34.021c.047-8.504 0-17.016 0-25.529.252-.931-.826-.985-1.429-.951-9.376.018-18.752.021-28.134-.043 2.964-.392 5.961-.252 8.93-.554-3.429-.372-6.887-.157-10.313-.563z"/><path d="M63.766 64.541c1.878-.319 3.793-.168 5.688-.196 5.084.028 10.176-.076 15.26.033-.152 1.234-1.536.737-2.382.854-5.834-.065-11.673.056-17.493-.059a319.61 319.61 0 0 0-1.073-.632z"/></g><path fill="#741A1B" d="M58.906 63.579c1.009-4.837.151-9.8.806-14.674.084 8.848.033 17.688.047 26.531 1.63.016 3.259.022 4.891.022.059-3.23.113-6.454.121-9.676 6.072-.03 12.143.063 18.21.091.134 3.189.023 6.378.125 9.566 2.056-.004 4.113.054 6.169-.012l.34-.021c.162-.999.248-2.008.354-3.012.018 1.305.061 2.617.102 3.927-10.619.005-21.236-.035-31.853 0 .514-4.23.08-8.521.688-12.742zm14.414 3.154c-.129 2.923-.063 5.838-.052 8.761l1.016-.046c0-2.884.049-5.769-.033-8.652-.233-.016-.698-.046-.931-.063zm3.387-.266c-.377 3.089-.318 6.25-.008 9.341l.547-.609c.303-2.643.029-5.334.145-7.988-.17-.189-.516-.56-.684-.744zm2.853 2.306c.066 2.372-.131 4.76.139 7.12.17-.185.506-.556.674-.747.215-1.659.057-3.345.109-5.017-.047-1.212.162-2.505-.406-3.63-.72.54-.468 1.504-.516 2.274zm-12.124-2.372c-.367 3.126-.283 6.311-.046 9.441.853-1.103.395-2.592.507-3.873-.147-1.851.416-3.852-.461-5.568zm2.475.437c-.145 2.928-.039 5.862-.035 8.79.244-.087.738-.262.979-.349.131-2.817.133-5.642.008-8.464-.237.004-.712.016-.952.023z"/><path fill="#741A1B" d="M61.829 59.867c8.529-.104 17.064-.034 25.597-.058-.018.261-.064.796-.084 1.055-8.358-.027-16.716-.035-25.072-.133-.11-.219-.331-.649-.441-.864z"/><path fill="#FFF" d="M59.712 48.905c9.382.063 18.758.061 28.134.043.603-.034 1.681.021 1.429.951 0 8.514.047 17.025 0 25.529-2.056.065-4.113.008-6.169.012-.102-3.188.009-6.377-.125-9.566-6.067-.028-12.138-.121-18.21-.091a625.73 625.73 0 0 1-.121 9.676c-1.632 0-3.261-.007-4.891-.022-.014-8.844.037-17.684-.047-26.532zm1.462 8.024c-.005.777-.009 1.553-.009 2.33 8.986.022 17.98-.005 26.968.022.018-.77.037-1.54.049-2.317-8.999-.042-18.007.081-27.008-.035zm.655 2.938c.11.215.331.645.44.864 8.356.098 16.714.105 25.072.133.02-.259.066-.794.084-1.055-8.531.024-17.067-.046-25.596.058zm1.403 1.607c.71.738 1.319 1.566 2.069 2.273 1.687-.064 3.381-.156 5.074.028 4.482.105 8.963.007 13.445.047a23.915 23.915 0 0 1 1.813-2.517c-5.391.007-10.783.023-16.166.203-2.084.001-4.161.059-6.235-.034zm.534 3.067c.268.156.8.47 1.073.633 5.82.114 11.659-.007 17.493.059.846-.117 2.229.38 2.382-.854-5.084-.109-10.176-.005-15.26-.033-1.895.027-3.81-.124-5.688.195z"/><path fill="#1F4250" d="M36.675 55.189c1.181-2.033 2.544-4.061 4.279-5.661 1.423.174 1.427 2.302 2.823 2.666 1.629.5 3.479.703 4.604 2.159-1.749 1.513-3.796 2.592-5.754 3.799-.755-.372-1.507-.747-2.255-1.119-.027.236-.087.725-.114.967a19.949 19.949 0 0 0-1.423-1.384c-.864-.14-2.663-.089-2.16-1.427z"/><path fill="#7C1F1E" d="M61.174 56.929c9.001.116 18.009-.007 27.008.035-.012.777-.031 1.548-.049 2.317-8.987-.027-17.981 0-26.968-.022 0-.778.004-1.553.009-2.33z"/><path fill="#791D1B" d="M63.232 61.474c2.073.094 4.15.035 6.235.035 5.383-.18 10.775-.196 16.166-.203a24.06 24.06 0 0 0-1.813 2.517c-4.482-.04-8.963.059-13.445-.047-1.693-.185-3.388-.093-5.074-.028-.749-.708-1.359-1.536-2.069-2.274z"/><g fill="#FDEAEA"><path d="M73.32 66.733c.232.017.697.047.931.063.082 2.884.033 5.769.033 8.652l-1.016.046c-.011-2.923-.077-5.838.052-8.761zM76.707 66.467c.168.185.514.556.684.743-.115 2.654.158 5.346-.145 7.988l-.547.609c-.31-3.09-.369-6.251.008-9.34zM67.436 66.401c.877 1.716.314 3.717.461 5.568-.112 1.281.346 2.771-.507 3.873-.238-3.13-.322-6.315.046-9.441z"/></g><g><path fill="#E8A3A5" d="M79.56 68.773c.049-.771-.203-1.734.516-2.273.568 1.125.359 2.418.406 3.63-.053 1.672.105 3.357-.109 5.017-.168.191-.504.563-.674.747-.27-2.361-.073-4.748-.139-7.121z"/></g><g><path fill="#F9C7C9" d="M69.911 66.838c.24-.007.715-.019.951-.022a93.327 93.327 0 0 1-.008 8.464c-.24.087-.734.262-.979.349-.003-2.929-.108-5.863.036-8.791z"/></g></svg>