<svg xmlns:xlink="http://www.w3.org/1999/xlink"  version="1" xmlns="http://www.w3.org/2000/svg" viewBox="0 0 150 150"><path fill="none" d="M62.1 136.1c1.3.3 2.5.6 3.8.8v-.3l-3.8-.5z"/><path fill="#01667D" d="M99.1 8l-47.7-.1C45.7 7.9 41 12.5 41 18.3l-.2 114.1c0 5.8 4.7 10.5 10.4 10.5l47.7.1c5.8 0 10.5-4.7 10.5-10.4v-16.5c-1.4-.1-2.8-.7-3.8-1.8l-3.3-3.8v2.4l-54.3-.1.1-80.5 54.3.1-.1 54.9-6.2-7.1-2 1.7-12.4-14.1 5.3-4.6-14-15.9-16.9 14.8 14 15.9 5.3-4.6 12.4 14.1-1.9 1.7 16.5 18.8 4.1 4.7c.8.9 1.9 1.5 3 1.7v-19l.1-76.9c0-5.8-4.7-10.5-10.5-10.5zm-24 115.1c3.4 0 6.1 2.7 6.1 6.1 0 3.3-2.7 6.1-6.1 6.1-3.3 0-6-2.7-6-6.1-.1-3.4 2.7-6.1 6-6.1zm9.1-104.8h-18c-.5 0-.9-.6-.9-1.4 0-.8.4-1.4.9-1.4h18c.5 0 .9.6.9 1.4.1.8-.4 1.4-.9 1.4z"/><g fill-rule="evenodd" clip-rule="evenodd" fill="#3FBEBA"><path d="M92 65.2c-1.5 1.3-3.8 1.2-5.1-.3l-16-18.2c-1.3-1.5-1.2-3.8.3-5.1l1.4-1.2c1.5-1.3 3.8-1.2 5.1.3l16 18.2c1.3 1.5 1.2 3.8-.3 5.1L92 65.2zM70.1 84.4c-1.5 1.3-3.8 1.2-5.1-.3L49 65.9c-1.3-1.5-1.2-3.8.3-5.1l1.4-1.2c1.5-1.3 3.8-1.2 5.1.3l16 18.2c1.3 1.5 1.2 3.8-.3 5.1l-1.4 1.2z"/></g></svg>