<svg xmlns:xlink="http://www.w3.org/1999/xlink"  version="1" xmlns="http://www.w3.org/2000/svg" viewBox="0 0 150 150"><path fill-rule="evenodd" clip-rule="evenodd" fill="#B42325" d="M77.6 2.5l2 4.1 4.5.6-3.3 3.1.9 4.5-4.1-2.2-4 2.2.9-4.5-3.3-3.1 4.5-.6 1.9-4.1z"/><path fill-rule="evenodd" clip-rule="evenodd" fill="#9E9C62" d="M100.2 9.8c-.9.8-1.7 1.6-2.6 2.4-1.1-.3-2.3-.6-3.4-.9.5 1.1 1 2.1 1.5 3.2-.6 1-1.3 1.9-1.9 2.9 1.2-.1 2.3-.3 3.5-.4.7.9 1.5 1.8 2.2 2.7.2-1.1.5-2.3.7-3.4l3.3-1.2c-1-.6-2-1.1-3-1.7-.2-1.3-.3-2.4-.3-3.6z"/><path fill-rule="evenodd" clip-rule="evenodd" fill="#B42325" d="M116.6 19.1l-2.4.9-2.1-1.5c0 .9.1 1.7.1 2.6l-2.1 1.5c.8.2 1.7.4 2.5.7.3.8.5 1.6.8 2.5.5-.7.9-1.4 1.4-2.2h2.6c-.5-.7-1.1-1.3-1.6-2 .2-.9.5-1.7.8-2.5z"/><path fill-rule="evenodd" clip-rule="evenodd" fill="#9E9C62" d="M54.7 10.1c.9.8 1.7 1.6 2.6 2.4 1.1-.3 2.2-.6 3.4-.9-.5 1.1-1 2.1-1.5 3.2.6 1 1.3 1.9 1.9 2.9-1.2-.1-2.3-.3-3.5-.4-.7.9-1.5 1.8-2.2 2.7-.2-1.1-.5-2.3-.7-3.4l-3.3-1.2c1-.6 2-1.1 3-1.7l.3-3.6z"/><path fill-rule="evenodd" clip-rule="evenodd" fill="#B42325" d="M38.5 18.9l2.4.9 2.1-1.5c0 .9-.1 1.7-.1 2.6l2.1 1.5c-.8.2-1.7.4-2.5.7-.2.8-.5 1.6-.8 2.5-.5-.7-.9-1.4-1.4-2.2h-2.6c.5-.7 1.1-1.3 1.6-2-.3-.9-.5-1.7-.8-2.5zM77.6 147c-16.7-9.2-46-28.4-51.9-49.4-1.4-5.2-.4-10.7.9-17.5l9.7-51.2v61.3c0 16.1 27.7 35.4 41.3 43.4 13.5-8 41.3-27.3 41.3-43.4V28.9l9.7 51.2c1.3 6.8 2.3 12.3.9 17.5-5.8 21-35.1 40.2-51.9 49.4z"/><path fill="none" d="M42.2 86.9v-6.5l-3.1 6.5zM117 75.7l-2.9-6.1v6.1z"/><path fill="#9E9C62" d="M74.8 59.4c-.3-.4-.5-.9-.6-1.4-.1-.5-.2-1-.2-1.6v-1.5h-.1c-.2 0-.5.1-1 .2-.4.1-.7.3-.9.3-2 .8-3.9 1.7-5.8 2.8-1.8 1.1-3.7 2.1-5.6 3-1.3.6-2.7.9-4 1.1-1.3.2-2.7.3-4.1.3v.1l11 23.4c.1 0 .1.1.2.2v.2c0 .2-.1.3-.2.3H65v.1c0 .1 0 .2-.1.3-.1.2-.3.4-.5.7-.3.2-.5.4-.7.4-1.9 1.1-3.9 1.8-6 2.3-2.1.5-4.2.8-6.4.8-1 0-2.1-.1-3.4-.2-1.3-.1-2.7-.4-4-.7-.5-.1-1-.3-1.5-.5.1 11.8 21.8 28 33.4 35.5V60.1c-.5-.2-.8-.4-1-.7z"/><path fill="#9E9C62" d="M50.2 86.9V63.7l-8 16.7v6.5zM51.7 64.1v22.8h10.8z"/><path fill="#9E9C62" d="M49.5 62c0-.1-.1-.3-.3-.5-.2-.2-.4-.4-.7-.6-.2-.2-.4-.5-.7-.8-.2-.3-.3-.7-.3-1.2 0-1.2.4-2.3 1.3-3.1.9-.8 1.9-1.2 3.1-1.2.4 0 .8.1 1.2.2.4.1.7.5.7 1 0 .2.1.6.1 1.3v1.3c0 .1.1.2.2.2s.2.1.3.2h1.4c1.2 0 2.4-.2 3.4-.7 1-.5 2-1.1 3-1.8s2-1.4 2.9-2.1c1-.7 2-1.3 3.1-1.8.1 0 .5-.2 1-.3.5-.2 1.1-.4 1.7-.6.6-.2 1.2-.4 1.7-.7.5-.2.9-.4 1-.4.3-.1.5-.2.6-.3.2-1.2.5-2.2 1-3.1.1-.2.2-.5.4-.8V17.8l-33.4 10v49.7L49.5 62z"/><path fill="#B42325" d="M106 52.6v23.1h8v-6l-8-16.8v-.3z"/><path fill="#B42325" d="M81.2 47c.2.6.4 1.1.5 1.7h.9c.8 0 1.7 0 2.5-.1.9 0 1.7-.1 2.5-.1.9 0 1.7.1 2.5.2.8.2 1.6.3 2.4.5.8.2 1.6.3 2.4.5.8.2 1.7.2 2.5.2.9 0 1.8-.1 2.6-.3.8-.2 1.6-.6 2.3-1.1v-.3c0-.5-.2-1-.4-1.4-.3-.4-.4-.9-.4-1.4 0-.3.1-.6.3-.9.2-.2.5-.5.9-.6.3-.2.7-.3 1-.3.3-.1.7-.1.9-.1 1.1 0 2 .3 2.9 1 .9.6 1.4 1.5 1.4 2.5 0 .8-.3 1.5-.8 2.1-.5.6-1 1.2-1.5 1.6v.1l7.4 15.7V27.8l-33.4-10V46c.3.3.5.7.6 1z"/><path fill="#B42325" d="M105.7 80.4c-1.9 0-3.8-.2-5.6-.6-1.8-.4-3.7-1-5.5-1.7-.2 0-.4-.1-.7-.3-.3-.2-.6-.3-.9-.5-.3-.2-.5-.4-.7-.6-.2-.3-.3-.5-.3-.7 0-.3.2-.4.5-.3-.1 0-.1-.1-.1-.2v-.3c0-.1.1-.2.1-.2l10.6-22.1v-.3c-.9 0-1.8.1-2.7.3-.9.2-1.9.3-2.9.3-1.7 0-3.4-.1-5.1-.3-1.7-.2-3.4-.3-5.1-.3h-2.4c-1 0-1.8.1-2.4.4 0 .2 0 .5-.1.9 0 .4-.1.9-.1 1.4 0 .5-.1 1-.1 1.4 0 .4-.1.7-.1.9 0 .4-.2.8-.3 1.1-.2.3-.4.6-.6.8l-.4.4v65.8c11.6-7.5 33.4-23.8 33.4-35.6V79c-.7.2-1.3.5-2 .6-2.1.5-4.2.8-6.5.8z"/><path fill="#B42325" d="M104.6 75.7V52.9L93.7 75.7z"/><path fill="#153037" d="M104.7 52.5c-.1 0-.1 0-.1.1s0 .2.1.2c.2 0 .3-.1.3-.2 0 0-.1-.1-.3-.1z"/></svg>