<svg xmlns:xlink="http://www.w3.org/1999/xlink"  version="1" xmlns="http://www.w3.org/2000/svg" viewBox="0 0 150 150"><path fill="#F3772F" d="M47.3 94.8v-.2-.4h-.1l-5.6-24.7c.3 0 .7-.1 1-.4.9-.6 1.1-1.8.5-2.8.1.6-.1 1.2-.6 1.6-.7.5-1.7.3-2.1-.4-.4-.6-.3-1.4.2-2-.1 0-.2.1-.3.2-.9.6-1.2 1.9-.5 2.8.3.5.9.8 1.4.9v.1L32 94.2h-.1v.3l-.1.2.1.1c.5 3.4 3.7 6 7.7 6 3.8 0 7.1-2.6 7.7-6zm-15-.5L41 71l-1.8 23.8c-2.5 0-4.8-.2-6.9-.5m7.2.5l1.9-24.3 5.4 23.7c-2.3.4-4.7.6-7.3.6M124.1 94.2l-.1-.2v-.3h-.1l-9.4-24.4.6-.3c.9-.7 1.1-2 .4-2.9-.1-.1-.2-.2-.2-.3.3.7.2 1.5-.4 1.9-.7.5-1.6.4-2.2-.3-.4-.5-.4-1.2-.1-1.7-.8.7-1 1.9-.3 2.8.4.5 1 .8 1.5.8L108 93.7h-.1v.3l-.1.3h.1c.5 3.3 3.9 5.9 8 5.9s7.5-2.6 8-6h.2zm-15.7-.4L114 70l2 24.3c-2.7 0-5.3-.2-7.6-.5m7.9.5l-1.9-23.8 9 23.3c-2.1.3-4.5.5-7.1.5"/><path fill="#F3772F" d="M116.3 66.2V58H96.4V19.1l-6.3-3.6-5.1 2.4v-6.6l-7.9-4.5-7.5 4.2v9.9l-4.5-3-6.9 3.6V58H39.8v8.2h12.7v43h-12v8.3h73.8v-8.3h-13.5v-43h15.5zm-26.5-49V58h-4.5V19.7l4.5-2.5zM77.1 8.8V58h-6V11.8l6-3zM59.9 22.1l4.5-2.4V58h-4.5V22.1zm5.6 87.1h-4v-43h4v43zm13.1 0h-4v-43h4v43zm13.2 0h-4.1v-43h4.1v43z"/><path fill="#553C2C" d="M104.3 30.2v9.2c15.3 9.2 25.6 26 25.6 45.2 0 29.2-23.6 52.8-52.8 52.8-29.2-.1-52.8-23.6-52.8-52.8 0-19.2 10.3-36 25.7-45.2v-9.2c-20 10-33.8 30.6-33.8 54.4 0 33.6 27.3 60.9 60.9 60.9 33.6 0 60.9-27.2 60.9-60.9-.1-23.8-13.8-44.4-33.7-54.4z"/></svg>