<svg xmlns:xlink="http://www.w3.org/1999/xlink"  version="1" xmlns="http://www.w3.org/2000/svg" viewBox="0 0 150 150"><path fill-rule="evenodd" clip-rule="evenodd" fill="#989897" d="M47.9 100.5C31 97.1 18.3 99.8 7.6 105c0 3.1.2 6.2.7 9.3 10.1-8.6 21.5-15.5 39.6-13.8zM139.9 118.9c.8-3.1 1.5-6.3 1.9-9.5-10.6-6.4-22.3-9.7-39.4-9.1 17.9.7 28.5 8.9 37.5 18.6z"/><path fill="#37BCB3" d="M131.5 61.2l-17.3-33.8c2.3-.7 4-2.8 4-5.3 0-3.1-2.5-5.6-5.6-5.6-3.1 0-5.6 2.5-5.6 5.6 0 .3.1.7.1 1-1.4.3-2.7.4-4.1.4-5.5 0-11.4-1.7-17.5-1.7-2.2 0-4.4.3-6.7 1V16h-.9c.2-.5.3-1.1.3-1.8-.1-2.2-1.7-3.3-2.8-3.7v-1l-1.3.4-1.3-.3v.8c-1.1.5-2.7 1.5-2.8 3.7 0 .7.1 1.3.3 1.8h-.9v8.5C58.1 26 51 36.1 41 36.4c-.1-3-2.6-5.4-5.6-5.4-3.1 0-5.6 2.5-5.6 5.6 0 2.4 1.5 4.4 3.7 5.2L16.1 75.7h-3l1.6 1.9c.2.2 5.9 6.8 20.9 6.8h.1c14.9 0 19.3-6.7 19.5-7l1.1-1.8h-2.2L37 42c1.6-.5 2.9-1.6 3.6-3.2 11.7-.4 18.8-10.6 28.9-12.1v12.1H71v31.6h-1.8l.2 38.9h9.4l.2-38.9h-1.8V38.8h1.6V25.2c2.2-.8 4.4-1.1 6.7-1.1 5.6 0 11.5 1.7 17.5 1.7 1.7 0 3.3-.2 5-.5.6.9 1.6 1.6 2.7 2L93.4 61.2h-3l1.6 1.9c.2.2 5.9 6.8 21 6.8h.1c14.9 0 19.4-6.7 19.5-7l1.1-1.8h-2.2zM34 75.7H18.8L34 45.9v29.8zm17.6 0H36.4V45.9l15.2 29.8zm59.7-14.5H96.1l15.2-29.8v29.8zm2.3 0V31.4l15.2 29.8h-15.2z"/><path fill-rule="evenodd" clip-rule="evenodd" fill="#01667D" d="M84.6 101.2c15.4-6.5 30.5-10.4 48-9.4 3.2.2 6.2.7 9.2 1.3-.4-3.1-1-6.2-1.7-9.2-2.1-.3-4.2-.6-6.3-.7C110.7 82 97.4 86.4 81.2 94c-6 2.9-9.8 1.9-13.2.2-16.1-7.1-31.7-11-53.6-9-1.9.2-3.8.5-5.6.8-.7 3.1-1.2 6.2-1.5 9.4 3.2-.8 6.5-1.4 9.9-1.7 17.5-1.5 33.2 1.4 47.7 8.4-18.6 4-32 8-44.6 17.9-2.8 2.2-5.3 4.7-7.8 7.4 1.5 3.6 3.3 7 5.4 10.2 2.5-2.8 5.1-5.5 7.8-7.8 11.9-10.1 29.3-17.7 49.2-18 23.6-.4 43.3 9.2 56.5 22.2l1.5 1.5c2-3.4 3.7-6.9 5.1-10.6-14.2-12.1-31-19.6-53.4-23.7z"/></svg>