<svg xmlns:xlink="http://www.w3.org/1999/xlink"  version="1" xmlns="http://www.w3.org/2000/svg" viewBox="0 0 150 150"><g fill="#153037"><path d="M50.7 90.5l-.2-.5c-.3.2-.5.5-.5.9 0 .2.1.4.2.5h.9c-.1.1-.2.3-.3.4h.3c.6 0 1-.5 1-1 0-.6-.4-1-1-1h-.3l.2.5c0 .1 0 .2-.1.2-.1.1-.2.1-.2 0zM29.9 40.5c0 .4 0 .7-.1.7s-.2-.3-.4-.7c-.4.1-.7.5-.7.9 0 .3.2.6.4.8l.1-.2c0-.1.1-.1.2-.1s.1.1.1.2l-.1.2c.1 0 .2.1.3.1v-.3c0-.1.1-.1.1-.1l.1.1v.3c.1 0 .1 0 .2-.1l-.1-.2c0-.1 0-.2.1-.2s.1 0 .2.1l.1.2c.2-.2.4-.5.4-.8 0-.4-.4-.9-.9-.9zM29.7 42.9v-.2c-.1 0-.3 0-.4-.1l-.1.3c.1.1.2.3.1.5l-.2.6c-.1.2-.3.3-.5.3l-.2.4c.1.1.2.3.1.5l-.2.6c-.1.2-.3.3-.5.3l-.2.4c.1.1.2.3.1.5l-.2.6c-.1.2-.3.3-.5.3l-.2.4c.2.1.2.3.1.5l-.2.6c-.1.2-.3.3-.5.3l-.2.4c.1.1.2.3.1.5v.4c-.1.2-.3.3-.5.3l-.2.4c.2.1.2.3.1.5l-.2.6c-.1.2-.3.3-.5.3l-.2.4c.1.1.2.3.1.5l-.2.5c-.1.2-.3.3-.5.3v.4c.1.1.2.3.1.5l-.2.6c-.1.2-.3.3-.5.3l-.2.4c.1.1.2.3.1.5l-.2.5c-.1.2-.3.3-.5.3l-.2.4c.2.1.2.3.1.5l-.2.6c-.1.2-.3.3-.5.3l-.2.4c.1.1.2.3.1.5l-.2.6c-.1.2-.3.3-.5.3v.3c.1.1.2.3.1.5l-.2.5c-.1.2-.3.3-.5.3l-.2.4c.2.1.2.3.1.5l-.2.6c-.1.2-.3.3-.5.3l-.2.4c.1.1.2.3.1.5l-.2.6c-.1.2-.3.3-.5.3l-.2.4c.2.1.2.3.1.5l-.2.5c-.1.2-.3.3-.5.3v.4c.1.1.2.3.1.5l-.2.6c-.1.2-.3.3-.5.3l-.2.4c.1.1.2.3.1.5l-.2.5c-.1.2-.3.3-.5.3l-.2.4c.1.1.2.3.1.5l-.2.6c-.1.2-.3.3-.5.3l-.2.4c.1.1.2.3.1.5l-.2.6c-.1.2-.3.3-.5.3v.3c.1.1.2.3.1.5l-.2.6c-.1.2-.3.3-.5.3l-.2.4c.1.1.2.3.1.5l-.2.5c-.1.2-.3.3-.5.3l-.2.4c.1.1.2.3.1.5l-.2.5c-.1.2-.3.3-.5.3l-.2.4c.1.1.2.3.1.5l-.2.6c-.1.2-.3.3-.5.3v.3c.2.1.2.3.1.5l-.2.6c-.1.2-.3.3-.5.3l-.2.4c.1.1.2.3.1.5l-.1.6c-.1.2-.3.3-.5.3l-.2.4c.1.1.2.3.1.5l-.2.5c-.1.2-.3.3-.5.3l-.2.4c.1.1.2.3.1.5l-.2.6c-.1.2-.3.3-.5.3v.1c.4.2.6.6.6 1.1 0 .2 0 .4-.1.5h19.9v-1.4c-.2-.1-.3-.2-.3-.4v-.6c0-.2.1-.4.3-.4v-.4c-.2-.1-.3-.2-.3-.4v-.6c0-.2.1-.4.3-.4v-.4c-.2-.1-.3-.2-.3-.4v-.6c0-.2.1-.4.3-.4v-.4c-.2-.1-.3-.2-.3-.4v-.6c0-.2.1-.4.3-.4V83c-.2-.1-.3-.2-.3-.4V82c0-.2.1-.4.3-.4v-.4c-.2-.1-.3-.2-.3-.4v-.6c0-.2.1-.4.3-.4v-.4c-.2-.1-.3-.2-.3-.4v-.6c0-.2.1-.4.3-.4v-.4c-.2-.1-.3-.2-.3-.4v-.6c0-.2.1-.4.3-.4V76c-.2-.1-.3-.2-.3-.4V75c0-.2.1-.4.3-.4v-.4c-.2-.1-.3-.2-.3-.4v-.6c0-.2.1-.4.3-.4v-.4c-.2-.1-.3-.2-.3-.4v-.6c0-.2.1-.4.3-.4v-.4c-.2-.1-.3-.2-.3-.4v-.6c0-.2.1-.4.3-.4v-.4c-.2-.1-.3-.2-.3-.4v-.6c0-.2.1-.4.3-.4V67c-.2-.1-.3-.2-.3-.4V66c0-.2.1-.4.3-.4v-.4c-.2-.1-.3-.2-.3-.4v-.6c0-.2.1-.4.3-.4v-.4c-.2-.1-.3-.2-.3-.4v-.6c0-.2.1-.4.3-.4v-.4c-.2-.1-.3-.2-.3-.4v-.6c0-.2.1-.4.3-.4v-.4c-.2-.1-.3-.2-.3-.4v-.6c0-.2.1-.4.3-.4V58c-.2-.1-.3-.2-.3-.4V57c0-.2.1-.4.3-.4v-.4c-.2-.1-.3-.2-.3-.4v-.6c0-.2.1-.4.3-.4v-.4c-.2-.1-.3-.2-.3-.4v-.6c0-.2.1-.4.3-.4v-.4c-.2 0-.3-.2-.3-.4v-.6c0-.2.1-.4.3-.4v-.4c-.2-.1-.3-.2-.3-.4v-.6c0-.2.1-.4.3-.4V49c-.2-.1-.3-.2-.3-.4V48c0-.2.1-.4.3-.4v-.4c-.2-.1-.3-.2-.3-.4v-.6c0-.2.1-.4.3-.4v-.4c-.2-.1-.3-.2-.3-.4v-.6c0-.2.1-.4.3-.4v-.4c-.2-.1-.3-.2-.3-.4v-.6c.1.6.3.4.5.3z"/><path d="M9.5 90.9c0-.4-.2-.7-.5-.8l-.2.5c0 .1-.1.1-.2.1s-.1-.1-.1-.2l.3-.5h-.3c-.6 0-1 .5-1 1 0 .6.5 1 1 1h.3c-.1-.1-.2-.3-.3-.4h.9c.1-.3.1-.5.1-.7zM31 44.3c-.2 0-.4-.1-.5-.3l-.2-.5v.4c0 .2-.1.4-.3.4v.4c.2.1.3.2.3.4v.6c0 .2-.1.4-.3.4v.4c.2.1.3.2.3.4v.6c0 .2-.1.4-.3.4v.4c.2.1.3.2.3.4v.6c0 .2-.1.4-.3.4v.4c.2.1.3.2.3.4v.6c0 .2-.1.4-.3.4v.4c.2.1.3.2.3.4v.6c0 .2-.1.3-.3.4v.4c.2.1.3.2.3.4v.6c0 .2-.1.4-.3.4v.4c.2.1.3.2.3.4v.6c0 .2-.1.4-.3.4v.1c.2.1.3.2.3.4v.6c0 .2-.1.4-.3.4v.4c.2.1.3.2.3.4v.6c0 .2-.1.4-.3.4v.4c.2.1.3.2.3.4v.6c0 .2-.1.3-.3.4v.4c.2.1.3.2.3.4v.6c0 .2-.1.4-.3.4v.2c.2.1.3.2.3.4v.6c0 .2-.1.3-.3.4v.4c.2.1.3.2.3.4v.6c0 .2-.1.4-.3.4v.4c.2.1.3.2.3.4v.6c0 .2-.1.4-.3.4v.4c.2.1.3.2.3.4v.6c0 .2-.1.4-.3.4v.4c.2.1.3.2.3.4v.6c0 .2-.1.3-.3.4v.4c.2.1.3.2.3.4v.6c0 .2-.1.4-.3.4v.4c.2.1.3.2.3.4v.6c0 .2-.1.4-.3.4v.4c.2.1.3.2.3.4v.6c0 .2-.1.4-.3.4v.4c.2.1.3.2.3.4v.6c0 .2-.1.4-.3.4v.4c.2.1.3.2.3.4v.6c0 .2-.1.4-.3.4v.4c.2.1.3.2.3.4v.6c0 .2-.1.3-.3.4v.4c.2.1.3.2.3.4v.6c0 .2-.1.4-.3.4v.4c.2.1.3.2.3.4v.6c0 .2-.1.4-.3.4v.4c.2.1.3.2.3.4v.6c0 .2-.1.4-.3.4v.4c.2.1.3.2.3.4v.6c0 .2-.1.3-.3.4V92h19.9c-.1-.2-.1-.3-.1-.5 0-.5.3-.9.7-1.1v-.1c-.2 0-.4-.1-.5-.3l-.2-.6c-.1-.2 0-.4.1-.5l-.3-.9c-.2 0-.4-.1-.5-.3l-.2-.5c-.1-.2 0-.4.1-.5l-.2-.4c-.2 0-.4-.1-.5-.3l-.2-.5c-.1-.2 0-.4.1-.5l-.2-.4c-.2 0-.4-.1-.5-.3l-.2-.6c-.1-.2 0-.4.1-.5l-.2-.4c-.2 0-.4-.1-.5-.3l-.2-.6c-.1-.2 0-.4.1-.5V81c-.2 0-.4-.1-.5-.3l-.2-.5c-.1-.2 0-.4.1-.5l-.2-.4c-.2 0-.4-.1-.5-.3l-.2-.5c-.1-.2 0-.4.1-.5l-.2-.4c-.2 0-.4-.1-.5-.3l-.2-.6c-.1-.2 0-.4.1-.5l-.2-.4c-.2 0-.4-.1-.5-.3l-.2-.6c-.1-.2 0-.4.1-.5l.1-.4c-.2 0-.4-.1-.5-.3l-.2-.6c-.1-.2 0-.4.1-.5l-.2-.4c-.2 0-.4-.1-.5-.3l-.2-.6c-.1-.2 0-.4.1-.5l-.2-.4c-.2 0-.4-.1-.5-.3l-.2-.6c-.1-.2 0-.4.1-.5l-.2-.4c-.2 0-.4-.1-.5-.3l-.1-.3c-.1-.2 0-.4.1-.5l-.1-.5c-.2 0-.4-.1-.5-.3l-.2-.5c-.1-.2 0-.4.1-.5l-.2-.4c-.2 0-.4-.1-.5-.3l-.2-.6c-.1-.2 0-.4.1-.5l-.2-.4c-.2 0-.4-.1-.5-.3l-.2-.5c-.1-.2 0-.4.1-.5l-.2-.4c-.2 0-.4-.1-.5-.3l-.1-.5c-.1-.2 0-.4.1-.5l-.1-.5c-.2 0-.4-.1-.5-.3l-.2-.5c-.1-.2 0-.4.1-.5l-.2-.4c-.2 0-.4-.1-.5-.3l-.2-.5c-.1-.2 0-.4.1-.5l-.2-.4c-.2 0-.4-.1-.5-.3l-.2-.6c-.1-.2 0-.4.1-.5l-.2-.4c-.2 0-.4-.1-.5-.3l-.1-.5c-.1-.2 0-.4.1-.5l-.1-.5c-.2 0-.4-.1-.5-.3l-.2-.5c-.1-.2 0-.4.1-.5l-.1-.4c-.2 0-.4-.1-.5-.3l-.2-.6c-.1-.2 0-.4.1-.5l-.2-.4c-.2 0-.4-.1-.5-.3l-.2-.6c-.1-.2 0-.4.1-.5l-.2-.4c-.2 0-.4-.1-.5-.3l-.1-.4c-.1-.2 0-.4.1-.5l-.2-.4c-.2 0-.4-.1-.5-.3l-.2-.6c-.1-.2 0-.4.1-.5l-.1-.4z"/><path d="M70.1 40.4c-1.6-.6-32.1-.7-33.2-.7s-1-3.2-4.3-2.7c-2.1.3-2.5 2-2.7 3.2.6.1 1.1.6 1.1 1.3 0 .4-.2.8-.6 1.1l.1.3c.2 0 .4.1.5.3l.2.6c.1.2 0 .4-.1.5l.2.4c.2 0 .4.1.5.3l.2.6c.1.2 0 .4-.1.5l.2.4c.2 0 .4.1.5.3l.2.6c.1.2 0 .4-.1.5l.2.4c.2 0 .4.1.5.3l.2.5c.1.2 0 .4-.1.5l.2.4c.2 0 .4.1.5.3l.2.6c.1.2 0 .4-.1.5l.2.4c.2 0 .4.1.5.3l.2.6c.1.2 0 .4-.1.5l.2.4c.2 0 .4.1.5.3l.2.6c.1.2 0 .4-.1.5l.2.4c.2 0 .4.1.5.3l.2.5c.1.2 0 .4-.1.5l.2.4c.2 0 .4.1.5.3l.2.6c.1.2 0 .4-.1.5l.2.4c.2 0 .4.1.5.3l.2.6c.1.2 0 .4-.1.5l.2.4c.2 0 .4.1.5.3l.2.6c.1.2 0 .4-.1.5l.2.4c.2 0 .4.1.5.3l.2.6c.1.2 0 .4-.1.5l.2.4c.2 0 .4.1.5.3l.2.6c.1.2 0 .4-.1.5l.2.4c.2 0 .4.1.5.3l.2.5c.1.2 0 .4-.1.5l.2.4c.2 0 .4.1.5.3l.2.5c.1.2 0 .4-.1.5l.2.4c.2 0 .4.1.5.3l.2.6c.1.2 0 .4-.1.5l.2.4c.2 0 .4.1.5.3l.2.6c.1.2 0 .4-.1.5l.2.4c.2 0 .4.1.5.3l.2.5c.1.2 0 .4-.1.5l.2.4c.2 0 .4.1.5.3l.2.5c.1.2 0 .4-.1.5l.2.4c.2 0 .4.1.5.3l.2.6c.1.2 0 .4-.1.5l.2.4c.2 0 .4.1.5.3l.2.6c.1.2 0 .4-.1.5l.2.4c.2 0 .4.1.5.3l.2.6c.1.2 0 .4-.1.5l.2.4c.2 0 .4.1.5.3l.2.6c.1.2 0 .4-.1.5l.2.4c.2 0 .4.1.5.3l.2.6c.1.2 0 .4-.1.5l.2.4c.2 0 .4.1.5.3l.2.6c.1.2 0 .4-.1.5l.2.4c.2 0 .4.1.5.3l.2.6c.1.2 0 .4-.1.5l.2.4c.2 0 .4.1.5.3l.2.6c.1.2 0 .4-.1.5.1 0 .3-.1.4-.1.7 0 1.3.6 1.3 1.3 0 .7-.6 1.3-1.3 1.3-.2 0-.3 0-.4-.1-6.7 6-14.1 10.1-22.1 10.1S14.4 98.9 9 92.1c-.1.1-.3.1-.4.1-.7 0-1.3-.6-1.3-1.3 0-.7.6-1.3 1.3-1.3.1 0 .3 0 .4.1-.2-.1-.2-.3-.1-.5l.1-.7c.1-.2.3-.3.5-.3l.2-.4c-.2-.1-.2-.3-.1-.5l.2-.6c.1-.2.3-.3.5-.3l.2-.4c-.2-.1-.2-.3-.1-.5l.2-.6c.1-.2.3-.3.5-.3l.2-.4c-.3.1-.3-.1-.3-.3l.2-.6c.1-.2.3-.3.5-.3l.2-.4c-.2-.1-.2-.3-.1-.5l.2-.6c.1-.2.3-.3.5-.3l.2-.4c-.2-.1-.2-.4-.1-.5l.2-.6c.1-.2.3-.3.5-.3l.2-.4c-.2-.1-.2-.3-.1-.5l.2-.6c.1-.2.3-.3.5-.3l.2-.4c-.2-.1-.2-.4-.1-.5l.2-.6c.1-.2.3-.3.5-.3l.2-.4c-.2-.1-.2-.3-.1-.5l.2-.5c.1-.2.3-.3.5-.3l.2-.4c-.2-.1-.2-.3-.1-.5l.2-.5c.1-.2.3-.3.5-.3l.2-.4c-.2-.1-.2-.3-.1-.5l.2-.6c.1-.2.3-.3.5-.3l.2-.4c-.2-.1-.2-.3-.1-.5l.2-.6c.1-.2.3-.3.5-.3l.2-.4c-.2-.1-.2-.3-.1-.5l.2-.5c.1-.2.3-.3.5-.3l.2-.4c-.2-.1-.2-.3-.1-.5l.2-.5c.1-.2.3-.3.5-.3l.2-.4c-.2-.1-.2-.3-.1-.5l.2-.6c.1-.2.3-.3.5-.3l.2-.4c-.2-.1-.2-.3-.1-.5l.2-.6c.1-.2.3-.3.5-.3l.2-.4c-.2-.1-.2-.4-.1-.5l.2-.6c.1-.2.3-.3.5-.3l.2-.4c-.2-.1-.2-.3-.1-.5l.2-.6c.1-.2.3-.3.5-.3l.2-.4c-.2-.1-.2-.3-.1-.5l.2-.6c.1-.2.3-.3.5-.3l.2-.4c-.2-.1-.2-.3-.1-.5l.2-.5c.1-.2.3-.3.5-.3l.2-.4c-.2-.1-.2-.3-.1-.5l.2-.6c.1-.2.3-.3.5-.3l.2-.4c-.2-.1-.2-.3-.1-.5l.2-.6c.1-.2.3-.3.5-.3l.2-.4c-.2-.1-.2-.3-.1-.5l.2-.6c.1-.2.3-.3.5-.3l.2-.4c-.2-.1-.2-.3-.1-.5l.2-.5c.1-.2.3-.3.5-.3l.2-.4c-.2-.1-.2-.4-.1-.5l.2-.6c.1-.2.3-.3.5-.3l.2-.4c-.2-.1-.2-.3-.1-.5l.2-.6c.1-.2.3-.3.5-.3l.2-.4c-.2-.1-.2-.3-.1-.5l.2-.6c.1-.2.3-.3.5-.3l.1-.3c-.3-.2-.6-.6-.6-1.1 0-.6.4-1 .9-1.2-.2-.8-.2-2 .1-3.2.3-1.1 1.5-2.8 4.3-2.8 2.9 0 3.4 2.2 4.1 2.3.6.1 27.4-.7 33.1-.8V32H3.3v82.2H74V42.6c-1.7-.3-3.3-1.9-3.9-2.2z"/></g><g fill="#EA2227"><path d="M119.6 42.9v-.2c-.1 0-.3 0-.4-.1l-.1.3c.1.1.2.3.1.5l-.2.6c-.1.2-.3.3-.5.3l-.2.4c.2.1.2.3.1.5l-.2.6c-.1.2-.3.3-.5.3l-.2.4c.1.1.2.3.1.5l-.2.6c-.1.2-.3.3-.5.3l-.2.4c.1.1.2.3.1.5l-.2.6c-.1.2-.3.3-.5.3l-.2.4c.2.1.2.3.1.5v.4c-.1.2-.3.3-.5.3l-.2.4c.1.1.2.3.1.5l-.2.6c-.1.2-.3.3-.5.3l-.2.4c.1.1.2.3.1.5l-.2.5c-.1.2-.3.3-.5.3l-.2.4c.1.1.2.3.1.5l-.2.6c-.1.2-.3.3-.5.3l-.2.4c.1.1.2.3.1.5v.5c-.1.2-.3.3-.5.3l-.2.4c.1.1.2.3.1.5l-.2.6c-.1.2-.3.3-.5.3l-.2.4c.1.1.2.3.1.5l-.2.6c-.1.2-.3.3-.5.3l-.2.4c.1.1.2.3.1.5l-.2.5c-.1.2-.3.3-.5.3l-.2.4c.2.1.2.3.1.5v.5c-.1.2-.3.3-.5.3l-.2.4c.1.1.2.3.1.5l-.2.6c-.1.2-.3.3-.5.3l-.2.4c.1.1.2.3.1.5l-.2.5c-.1.2-.3.3-.5.3l-.2.4c.2.1.2.3.1.5l-.2.6c-.1.2-.3.3-.5.3l-.2.4c.1.1.2.3.1.5v.5c-.1.2-.3.3-.5.3l-.2.4c.1.1.2.3.1.5l-.2.6c-.1.2-.3.3-.5.3l-.2.4c.1.1.2.3.1.5l-.2.6c-.1.2-.3.3-.5.3l-.2.4c.1.1.2.3.1.5l-.2.6c-.1.2-.3.3-.5.3l-.2.4c.1.1.2.3.1.5l-.2.5c-.1.2-.3.3-.5.3l-.2.4c.1.1.2.3.1.5l-.2.5c-.1.2-.3.3-.5.3l-.2.4c.1.1.2.3.1.5l-.2.6c-.1.2-.3.3-.5.3l-.2.4c.1.1.2.3.1.5l-.2.6c-.1.2-.3.3-.5.3l-.2.4c.1.1.2.3.1.5l-.2.5c-.1.2-.3.3-.5.3l-.2.4c.1.1.2.3.1.5l-.2.5c-.1.2-.3.3-.5.3l-.2.4c.2.1.2.3.1.5l-.2.6c-.1.2-.3.3-.5.3v.1c.4.2.6.6.6 1.1 0 .2 0 .4-.1.5h19.9v-1.4c-.2-.1-.3-.2-.3-.4v-.6c0-.2.1-.4.3-.4v-.4c-.2-.1-.3-.2-.3-.4v-.6c0-.2.1-.4.3-.4v-.4c-.2-.1-.3-.2-.3-.4v-.6c0-.2.1-.4.3-.4v-.4c-.2-.1-.3-.2-.3-.4v-.6c0-.2.1-.4.3-.4V83c-.2-.1-.3-.2-.3-.4V82c0-.2.1-.4.3-.4v-.4c-.2-.1-.3-.2-.3-.4v-.6c0-.2.1-.4.3-.4v-.4c-.2-.1-.3-.2-.3-.4v-.6c0-.2.1-.4.3-.4v-.4c-.2-.1-.3-.2-.3-.4v-.6c0-.2.1-.4.3-.4V76c-.2-.1-.3-.2-.3-.4V75c0-.2.1-.4.3-.4v-.4c-.2-.1-.3-.2-.3-.4v-.6c0-.2.1-.4.3-.4v-.4c-.2 0-.3-.2-.3-.4v-.6c0-.2.2-.4.3-.4v-.4c-.2-.1-.3-.2-.3-.4v-.6c0-.2.1-.4.3-.4v-.4c-.2-.1-.3-.2-.3-.4V68c0-.2.1-.4.3-.4v-.4c-.2-.1-.3-.2-.3-.4v-.6c0-.2.1-.4.3-.4v-.4c-.2-.1-.3-.2-.3-.4v-.6c0-.2.1-.4.3-.4v-.4c-.2-.1-.3-.2-.3-.4v-.6c0-.2.1-.4.3-.4v-.4c-.2-.1-.3-.2-.3-.4v-.6c0-.2.1-.4.3-.4V60c-.2-.1-.3-.2-.3-.4V59c0-.2.2-.4.3-.4v-.4c-.2-.1-.3-.2-.3-.4v-.6c0-.2.1-.4.3-.4v-.4c-.2-.1-.3-.2-.3-.4v-.6c0-.2.1-.4.3-.4v-.4c-.2-.1-.3-.2-.3-.4v-.6c0-.2.1-.4.3-.4v-.4c-.2 0-.3-.2-.3-.4v-.6c0-.2.1-.4.3-.4V51c-.2-.1-.3-.2-.3-.4V50c0-.2.1-.4.3-.4v-.4c-.2-.1-.3-.2-.3-.4v-.6c0-.2.1-.4.3-.4v-.4c-.2-.1-.3-.2-.3-.4v-.6c0-.2.1-.4.3-.4v-.4c-.2-.1-.3-.2-.3-.4v-.6c0-.2.1-.4.3-.4v-.4c-.2-.1-.3-.2-.3-.4v-.6c.6.4.8.2 1 .1zM120.9 44.3c-.2 0-.4-.1-.5-.3l-.2-.5v.4c0 .2-.1.4-.3.4v.4c.2.1.3.2.3.4v.6c0 .2-.1.4-.3.4v.4c.2.1.3.2.3.4v.6c0 .2-.1.4-.3.4v.4c.2.1.3.2.3.4v.6c0 .2-.1.4-.3.4v.3c.2.1.3.2.3.4v.6c0 .2-.1.4-.3.4v.4c.2.1.3.2.3.4v.6c0 .2-.1.3-.3.4v.4c.2.1.3.2.3.4v.6c0 .2-.1.4-.3.4v.4c.2.1.3.2.3.4v.6c0 .2-.1.4-.3.4v.2c.2.1.3.2.3.4v.6c0 .2-.1.4-.3.4v.4c.2.1.3.2.3.4v.6c0 .2-.1.4-.3.4v.4c.2.1.3.2.3.4v.6c0 .2-.1.3-.3.4v.4c.2.1.3.2.3.4v.6c0 .2-.1.4-.3.4v.2c.2.1.3.2.3.4v.6c0 .2-.1.3-.3.4v.4c.2.1.3.2.3.4v.6c0 .2-.1.4-.3.4v.4c.2.1.3.2.3.4v.6c0 .2-.1.4-.3.4v.4c.2.1.3.2.3.4v.6c0 .2-.1.4-.3.4v.4c.2.1.3.2.3.4v.6c0 .2-.1.3-.3.4v.4c.2.1.3.2.3.4v.6c0 .2-.1.4-.3.4v.4c.2.1.3.2.3.4v.6c0 .2-.1.4-.3.4v.4c.2.1.3.2.3.4v.6c0 .2-.1.4-.3.4v.4c.2.1.3.2.3.4v.6c0 .2-.1.4-.3.4v.4c.2.1.3.2.3.4v.6c0 .2-.1.4-.3.4v.4c.2.1.3.2.3.4v.6c0 .2-.1.3-.3.4v.4c.2.1.3.2.3.4v.6c0 .2-.1.4-.3.4v.4c.2.1.3.2.3.4v.6c0 .2-.1.4-.3.4v.4c.2.1.3.2.3.4v.6c0 .2-.1.4-.3.4v.4c.2.1.3.2.3.4v.6c0 .2-.1.3-.3.4V92h19.9c-.1-.2-.1-.3-.1-.5 0-.5.3-.9.7-1.1v-.1c-.2 0-.4-.1-.5-.3l-.2-.6c-.1-.2 0-.4.1-.5l-.2-.4c-.2 0-.4-.1-.5-.3l-.2-.5c-.1-.2 0-.4.1-.5l-.2-.4c-.2 0-.4-.1-.5-.3l-.2-.5c-.1-.2 0-.4.1-.5l-.2-.4c-.2 0-.4-.1-.5-.3l-.2-.6c-.1-.2 0-.4.1-.5l-.2-.4c-.2 0-.4-.1-.5-.3l-.2-.6c-.1-.2 0-.4.1-.5l-.2-.4c-.2 0-.4-.1-.5-.3l-.2-.5c-.1-.2 0-.4.1-.5l-.2-.4c-.2 0-.4-.1-.5-.3l-.2-.5c-.1-.2 0-.4.1-.5l-.2-.4c-.2 0-.4-.1-.5-.3l-.2-.6c-.1-.2 0-.4.1-.5l-.2-.4c-.2 0-.4-.1-.5-.3l-.2-.6c-.1-.2 0-.4.1-.5l-.2-.4c-.2 0-.4-.1-.5-.3l-.2-.6c-.1-.2 0-.4.1-.5l-.2-.4c-.2 0-.4-.1-.5-.3l-.2-.6c-.1-.2 0-.4.1-.5l-.2-.4c-.2 0-.4-.1-.5-.3l-.2-.6c-.1-.2 0-.4.1-.5l-.2-.4c-.2 0-.4-.1-.5-.3l-.2-.5c-.1-.2 0-.4.1-.5l-.2-.4c-.2 0-.4-.1-.5-.3l-.2-.6c-.1-.2 0-.4.1-.5l-.2-.4c-.2 0-.4-.1-.5-.3l-.2-.6c-.1-.2 0-.4.1-.5l-.2-.4c-.2 0-.4-.1-.5-.3l-.2-.5c-.1-.2 0-.4.1-.5l-.2-.4c-.2 0-.4-.1-.5-.3l-.2-.6c-.1-.2 0-.4.1-.5l-.2-.4c-.2 0-.4-.1-.5-.3l-.2-.6c-.1-.2 0-.4.1-.5l-.2-.4c-.2 0-.4-.1-.5-.3l-.2-.5c-.1-.2 0-.4.1-.5l-.2-.4c-.2 0-.4-.1-.5-.3l-.2-.6c-.1-.2 0-.4.1-.5l-.2-.4c-.2 0-.4-.1-.5-.3l-.2-.5c-.1-.2 0-.4.1-.5l-.2-.4c-.2 0-.4-.1-.5-.3l-.2-.6c-.1-.2 0-.4.1-.5l-.2-.4c-.2 0-.4-.1-.5-.3l-.2-.6c-.1-.2 0-.4.1-.5l-.2-.4c-.2 0-.4-.1-.5-.3l-.2-.6c-.1-.2 0-.4.1-.5l-.2-.4c-.2 0-.4-.1-.5-.3l-.2-.6c-.1-.2 0-.4.1-.5l-.2-.4c-.2 0-.4-.1-.5-.3l-.2-.6c-.1-.2 0-.4.1-.5l1.1-.4zM120 40.5c-.1.4-.3.7-.4.7-.1 0-.1-.3-.1-.7-.5.1-.9.5-.9 1 0 .3.2.6.4.8l.1-.2c0-.1.1-.1.2-.1s.1.1.1.2l-.1.2c.1 0 .2.1.3.1v-.3c0-.1.1-.1.1-.1.1 0 .1.1.1.1v.3c.1 0 .1 0 .2-.1l-.1-.2c0-.1 0-.2.1-.2s.1 0 .2.1l.1.2c.2-.2.4-.5.4-.8 0-.5-.3-.8-.7-1z"/><path d="M140.6 90.5l-.2-.5c-.3.2-.5.5-.5.9 0 .2.1.4.2.5h.9c-.1.1-.2.3-.3.4h.3c.6 0 1-.5 1-1 0-.6-.4-1-1-1h-.3l.2.5c0 .1 0 .2-.1.2-.1.1-.2.1-.2 0zM99.4 90.9c0-.4-.2-.7-.5-.8l-.2.5c0 .1-.1.1-.2.1s-.1-.1-.1-.2l.2-.5h-.3c-.6 0-1 .5-1 1 0 .6.5 1 1 1h.3c-.1-.1-.2-.3-.3-.4h.9c.2-.3.2-.5.2-.7z"/><path d="M78.4 32.6v3.2c5.7.2 32.5 1 33.1.8.7-.2 1.2-2.3 4.1-2.3 2.9 0 4 1.7 4.3 2.8.4 1.2.3 2.4.1 3.2.5.2.9.7.9 1.2 0 .4-.2.8-.6 1.1l.1.3c.2 0 .4.1.5.3l.2.6c.1.2 0 .4-.1.5l.2.4c.2 0 .4.1.5.3l.2.6c.1.2 0 .4-.1.5l.2.4c.2 0 .4.1.5.3l.2.6c.1.2 0 .4-.1.5l.2.4c.2 0 .4.1.5.3l.2.5c.1.2 0 .4-.1.5l.2.4c.2 0 .4.1.5.3l.2.6c.1.2 0 .4-.1.5l.2.4c.2 0 .4.1.5.3l.2.6c.1.2 0 .4-.1.5l.2.4c.2 0 .4.1.5.3l.2.6c.1.2 0 .4-.1.5l.2.4c.2 0 .4.1.5.3l.2.5c.1.2 0 .4-.1.5l.2.4c.2 0 .4.1.5.3l.2.6c.1.2 0 .4-.1.5l.2.4c.2 0 .4.1.5.3l.2.6c.1.2 0 .4-.1.5l.2.4c.2 0 .4.1.5.3l.2.6c.1.2 0 .4-.1.5l.2.4c.2 0 .4.1.5.3l.2.6c.1.2 0 .4-.1.5l.2.4c.2 0 .4.1.5.3l.2.6c.1.2 0 .4-.1.5l.2.4c.2 0 .4.1.5.3l.2.5c.1.2 0 .4-.1.5l.2.4c.2 0 .4.1.5.3l.2.5c.1.2 0 .4-.1.5l.2.4c.2 0 .4.1.5.3l.2.6c.1.2 0 .4-.1.5l.2.4c.2 0 .4.1.5.3l.2.6c.1.2 0 .4-.1.5l.2.4c.2 0 .4.1.5.3l.2.5c.1.2 0 .4-.1.5l.2.4c.2 0 .4.1.5.3l.2.5c.1.2 0 .4-.1.5l.2.4c.2 0 .4.1.5.3l.2.6c.1.2 0 .4-.1.5l.2.4c.2 0 .4.1.5.3l.2.6c.1.2 0 .4-.1.5l.2.4c.2 0 .4.1.5.3l.2.6c.1.2 0 .4-.1.5l.2.4c.2 0 .4.1.5.3l.2.6c.1.2 0 .4-.1.5l.2.4c.2 0 .4.1.5.3l.2.6c.1.2 0 .4-.1.5l.2.4c.2 0 .4.1.5.3l.2.6c.1.2 0 .4-.1.5l.2.4c.2 0 .4.1.5.3l.2.6c.1.2 0 .4-.1.5l.2.4c.2 0 .4.1.5.3l.2.6c.1.2 0 .4-.1.5.1 0 .2-.1.4-.1.7 0 1.3.6 1.3 1.3 0 .7-.6 1.3-1.3 1.3-.2 0-.3 0-.5-.1-5.4 6.8-12.7 10.9-20.8 10.9-8.1 0-15.4-4.1-20.8-10.9-.1.1-.3.1-.4.1-.7 0-1.3-.6-1.3-1.3 0-.7.6-1.3 1.3-1.3.1 0 .3 0 .4.1-.2-.1-.2-.3-.1-.5l.2-.6c.1-.2.3-.3.5-.3l.2-.4c-.2-.1-.2-.3-.1-.5l.2-.6c.1-.2.3-.3.5-.3l.2-.4c-.2-.1-.2-.3-.1-.5l.2-.6c.1-.2.3-.3.5-.3l.2-.4c-.2-.1-.2-.3-.1-.5l.2-.6c.1-.2.3-.3.5-.3l.2-.4c-.2-.1-.2-.3-.1-.5l.2-.6c.1-.2.3-.3.5-.3l.2-.4c-.2-.1-.2-.4-.1-.5l.2-.6c.1-.2.3-.3.5-.3l.2-.4c-.2-.1-.2-.3-.1-.5l.2-.6c.1-.2.3-.3.5-.3l.2-.4c-.2-.1-.2-.4-.1-.5l.2-.6c.1-.2.3-.3.5-.3l.2-.4c-.2-.1-.2-.3-.1-.5l.2-.5c.1-.2.3-.3.5-.3l.2-.4c-.2-.1-.2-.3-.1-.5l.2-.5c.1-.2.3-.3.5-.3l.2-.4c-.2-.1-.2-.3-.1-.5l.2-.6c.1-.2.3-.3.5-.3l.2-.4c-.2-.1-.2-.3-.1-.5l.2-.6c.1-.2.3-.3.5-.3l.2-.4c-.2-.1-.2-.3-.1-.5l.2-.5c.1-.2.3-.3.5-.3l.2-.4c-.2-.1-.2-.3-.1-.5l.2-.5c.1-.2.3-.3.5-.3l.2-.4c-.2-.1-.2-.3-.1-.5l.2-.6c.1-.2.3-.3.5-.3l.2-.4c-.2-.1-.2-.3-.1-.5l.2-.6c.1-.2.3-.3.5-.3l.2-.4c-.2-.1-.2-.4-.1-.5l.2-.6c.1-.2.3-.3.5-.3l.2-.4c-.2-.1-.2-.3-.1-.5l.2-.6c.1-.2.3-.3.5-.3l.2-.4c-.2-.1-.2-.3-.1-.5l.2-.6c.1-.2.3-.3.5-.3l.2-.4c-.2-.1-.2-.3-.1-.5l.2-.5c.1-.2.3-.3.5-.3l.2-.4c-.2-.1-.2-.3-.1-.5l.2-.6c.1-.2.3-.3.5-.3l.2-.4c-.2-.1-.2-.3-.1-.5l.2-.6c.1-.2.3-.3.5-.3l.2-.4c-.2-.1-.2-.3-.1-.5l.2-.6c.1-.2.3-.3.5-.3l.2-.4c-.2-.1-.2-.3-.1-.5l.2-.5c.1-.2.3-.3.5-.3l.2-.4c-.2-.1-.2-.4-.1-.5l.2-.6c.1-.2.3-.3.5-.3l.2-.4c-.2-.1-.2-.3-.1-.5l.2-.6c.1-.2.3-.3.5-.3l.2-.4c-.2-.1-.2-.3-.1-.5l.2-.6c.1-.2.3-.3.5-.3l.1-.3c-.3-.2-.6-.6-.6-1.1 0-.7.5-1.2 1.1-1.3-.1-1.1-.5-2.9-2.6-3.2-3.3-.5-3.2 2.7-4.3 2.7-1.1 0-31.6.1-33.2.7-.7.3-2.7 2.3-4.6 2.3h-.7v71.6H145V32.6H78.4z"/></g></svg>