<svg xmlns:xlink="http://www.w3.org/1999/xlink"  version="1" xmlns="http://www.w3.org/2000/svg" viewBox="0 0 150 150"><path fill="#00632C" d="M101.6 50.7c-.6-2.1-1.2-4.1-2-6.1-1.5-3.7-3.3-7.3-5.4-10.5H77.1L90.3 43l11.3 7.7z"/><path fill="#00A650" d="M133.8 28L85.5 12.2 74.1 8.4l-11.5 3.8L14.3 28c0 13.8 2.3 28.2 6.5 42.1 0-.8-.1-1.7-.1-2.5 0-25.4 18-46.8 41.8-52 3.7-.8 7.5-1.3 11.5-1.3 3.9 0 7.8.4 11.5 1.3 23.9 5.3 41.8 26.6 41.8 52 0 .8 0 1.7-.1 2.5 4.3-13.9 6.6-28.3 6.6-42.1zM74.1 120.9c-3.9 0-7.8-.4-11.5-1.2-10.1-2.2-19.2-7.3-26.2-14.4 7.4 12.1 16.2 22.5 26.2 30 3.7 2.8 7.5 5.1 11.5 7 4-1.9 7.8-4.3 11.5-7 10-7.5 18.9-17.9 26.2-30-7.1 7.1-16.1 12.2-26.2 14.4-3.8.8-7.6 1.2-11.5 1.2z"/><path fill="#00632C" d="M41.7 67.6c0-4.4.4-8.7 1.2-12.8H25c-1.1 4.1-1.6 8.4-1.6 12.8 0 4.3.5 8.4 1.5 12.4h18c-.8-4-1.2-8.1-1.2-12.4zM25.9 51.8h17.7c1.2-4.8 2.8-9.3 4.9-13.5.7-1.4 1.5-2.9 2.3-4.2H36c-4.5 5.1-8 11.1-10.1 17.7zM40.5 94.7h2.2v-2h4.1c-1.3-3.2-2.5-6.4-3.3-9.8H25.7c2.2 6.9 5.8 13.2 10.6 18.4H51c-.8-1.3-1.5-2.6-2.2-3.9h-8.3v-2.7zM62.6 18.2c-1 .2-2 .5-3 .8-3.9 1.2-7.6 2.8-11.1 4.8-3.5 2.1-6.8 4.6-9.7 7.4H52.7c2-3 4.3-5.7 6.8-8.2 1-1 2-1.9 3-2.8.6-.5 1.1-.9 1.7-1.4.5-.4 1.1-.9 1.7-1.3-.6.1-1.1.2-1.7.3-.5.2-1.1.3-1.6.4zM70.7 34.1H53.9c-2.1 3.3-3.9 6.8-5.4 10.5-.7 1.8-1.3 3.8-1.8 5.7L57.5 43l13.2-8.9zM64.3 22.3c-.6.5-1.1 1-1.7 1.5-1 1-2.1 2-3 3-1.3 1.4-2.5 2.8-3.6 4.4h16.6V16.9H72c-2.7 1.6-5.3 3.4-7.7 5.4zM48.5 104.3h-9.4c2.8 2.7 6 5.1 9.4 7.1 3.4 2 7.2 3.6 11.1 4.8 1 .3 2 .6 3 .8.6.1 1.1.2 1.7.4.6.1 1.1.2 1.7.3-.6-.4-1.1-.8-1.7-1.3-.6-.4-1.1-.9-1.7-1.4-1-.9-2-1.8-3-2.8-2.4-2.4-4.6-5-6.6-7.9h-4.5zM62.6 111.4c.5.5 1.1 1 1.7 1.5 2.4 2.1 5 3.9 7.8 5.4h.6v-14H56.3c1.1 1.4 2.2 2.8 3.4 4.1.8 1 1.8 2 2.9 3zM105.2 54.8c.8 4.1 1.2 8.4 1.2 12.8 0 4.3-.4 8.4-1.1 12.4h17.9c1-4 1.5-8.1 1.5-12.4 0-4.4-.6-8.7-1.7-12.8h-17.8zM85.5 115c-.6.5-1.1.9-1.7 1.4-.6.4-1.1.9-1.7 1.3.6-.1 1.1-.2 1.7-.3.6-.1 1.1-.2 1.7-.4 1-.2 2-.5 3-.8 3.9-1.2 7.6-2.8 11.1-4.8 3.4-2 6.5-4.4 9.4-7.1H95.2c-2 2.9-4.2 5.5-6.6 7.9-1 1-2 1.9-3.1 2.8zM101.4 92.8h4.1v2h3.4v2.7h-9.6c-.7 1.3-1.4 2.7-2.2 3.9h14.7c4.7-5.3 8.4-11.5 10.6-18.4h-17.7c-.8 3.4-2 6.6-3.3 9.8zM97.3 34.1c.8 1.4 1.6 2.8 2.3 4.2 2.1 4.2 3.8 8.7 4.9 13.5h17.7c-2.2-6.6-5.7-12.6-10.2-17.7H97.3z"/><path fill="#00A650" d="M51.8 97.4c.7 1.3 1.5 2.7 2.3 3.9H94c.8-1.3 1.6-2.6 2.3-3.9H51.8zM98.6 92.8c.2-.4.4-.8.6-1.3H91v-1.2h.6V60.4h-.7v-1.2h8.7v1.2h-.7v29.9h.9c1-2.5 2.3-7.7 3-10.3.8-4 1.2-8.1 1.2-12.4 0-3.5-.4-6.9-.9-10.3h-58c-.5 3.3-.9 6.8-.9 10.3 0 4.3.4 8.4 1.2 12.4.7 2.6 2.1 8.1 3.1 10.5.1.2.1.3.2.4v-.8h.6V60.4h-.7v-1.2h8.7v1.2h-.7v29.9h1v1.2H49c.2.5.4.9.6 1.3h49zM80.2 59.1H89v1.2h-.7v29.9h1v1.2h-8.9v-1.2h.6V60.3h-.7v-1.2zM68 91.5h-8.9v-1.2h.6V60.4H59v-1.2h8.7v1.2H67v29.9h1v1.2zm1.8-1.2h.6V60.4h-.7v-1.2h8.7v1.2h-.7v29.9h1v1.2h-8.9v-1.2z"/><path fill="#00632C" d="M85.5 104.3h-10v14h.6c2.7-1.5 5.3-3.3 7.8-5.4.6-.5 1.1-1 1.7-1.5 1.1-1 2.1-2 3-3.1 1.2-1.3 2.3-2.6 3.4-4h-6.5zM75.5 16.9v14.3h16.6c-1.1-1.5-2.3-3-3.6-4.4-1-1.1-2-2.1-3-3.1-.6-.5-1.1-1-1.7-1.5-2.4-2-5-3.9-7.8-5.4l-.5.1zM88.6 19c-1-.3-2-.6-3-.8-.6-.1-1.1-.2-1.7-.4-.6-.1-1.1-.2-1.7-.3.6.4 1.1.8 1.7 1.3.6.4 1.1.9 1.7 1.4 1 .9 2.1 1.8 3 2.8 2.5 2.5 4.8 5.2 6.8 8.2H109.3c-2.9-2.8-6.2-5.3-9.7-7.4-3.4-2-7.1-3.6-11-4.8z"/><path fill="#00A650" d="M61.3 43.1l-12.6 8.4H99l-12.6-8.4-12.5-8.5z"/></svg>