<svg xmlns:xlink="http://www.w3.org/1999/xlink"  xmlns="http://www.w3.org/2000/svg" width="100" height="100" viewBox="0 0 100 100"><radialGradient id="a" cx="44.712" cy="-43.48" r="78.098" gradientUnits="userSpaceOnUse"><stop offset="0" stop-color="#c3996b"/><stop offset=".291" stop-color="#754c28"/><stop offset=".533" stop-color="#603813"/><stop offset=".733" stop-color="#3b2314"/><stop offset="1" stop-color="#230b00"/></radialGradient><path fill="url(#a)" d="M49.119 10.149c-22.515 0-40.764 18.249-40.764 40.76 0 22.512 18.249 40.76 40.764 40.76 22.507 0 40.755-18.248 40.755-40.76 0-22.511-18.248-40.76-40.755-40.76zm.525 77.671c-20.097 0-36.391-16.294-36.391-36.392 0-20.091 16.294-36.381 36.391-36.381 20.098 0 36.381 16.29 36.381 36.381 0 20.098-16.283 36.392-36.381 36.392z"/><radialGradient id="b" cx="72.465" cy="-2.872" r="115.617" gradientUnits="userSpaceOnUse"><stop offset="0" stop-color="#26c2f2"/><stop offset=".156" stop-color="#1db7e9"/><stop offset=".43" stop-color="#069ad1"/><stop offset=".485" stop-color="#0193cb"/><stop offset="1" stop-color="#0d497a"/></radialGradient><path fill="url(#b)" d="M91.724 15.585s-37.413 24.482-38.8 66.058c0 0-22.169 5.542-34.177-21.712 0 0 24.941-38.341 72.977-44.346z"/><radialGradient id="c" cx="72.469" cy="-2.873" r="115.623" gradientUnits="userSpaceOnUse"><stop offset="0" stop-color="#26c2f2"/><stop offset=".156" stop-color="#1db7e9"/><stop offset=".43" stop-color="#069ad1"/><stop offset=".485" stop-color="#0193cb"/><stop offset="1" stop-color="#0d497a"/></radialGradient><path fill="url(#c)" d="M57.857 22.599a30.123 30.123 0 0 0-8.56-1.254c-16.622 0-30.088 13.471-30.088 30.084 0 .818.053 1.609.115 2.409 5.61-7.12 18.489-21.288 38.533-31.239z"/><radialGradient id="d" cx="72.466" cy="-2.869" r="115.612" gradientUnits="userSpaceOnUse"><stop offset="0" stop-color="#26c2f2"/><stop offset=".156" stop-color="#1db7e9"/><stop offset=".43" stop-color="#069ad1"/><stop offset=".485" stop-color="#0193cb"/><stop offset="1" stop-color="#0d497a"/></radialGradient><path fill="url(#d)" d="M56.124 80.713c13.315-3.097 23.254-15.018 23.254-29.284 0-5.809-1.671-11.217-4.525-15.817-8.898 10.722-17.805 26.07-18.729 45.101z"/><g fill="#FFF"><path d="M27.787 73.794l1.866-3.729 3.591 1.626-1.653 3.832zM32.88 64.376l4.595-7.058 2.649 1.618-4.186 7.306zM41.297 52.092l5.37-6.483 1.786 1.398-4.987 6.778zM51.066 40.9l6.142-5.764 1.005 1.018-5.805 6.1zM62.178 31.096l6.915-4.804.355.482-6.64 5.184zM74.622 23.092l3.741-1.866-3.626 2.075z"/></g></svg>