<svg xmlns:xlink="http://www.w3.org/1999/xlink"  version="1" xmlns="http://www.w3.org/2000/svg" viewBox="0 0 150 150"><path d="M84.6 135.8c-1-3.8-3.4-5.7-7.7-6 4-.6 6.2-2.7 6.7-6.6h-.8c-3.5.1-6.3 3.1-6.2 6.6.1 3.5 3.1 6.3 6.6 6.2.5 0 1-.1 1.4-.2zm26.5-119.1c.4 2.2 1.5 3.1 3.7 3.1-.4-2.2-1.6-3.2-3.7-3.1zm-72.1 0c-.4 2.2-1.5 3.1-3.7 3.1.3-2.2 1.5-3.2 3.7-3.1zm-6.1.6c1.1 1.8.9 3.6-.6 5.4 1.8-1.4 3.5-1.4 5.2-.1l-.3.3c-1.4 1.4-3.7 1.3-5-.1-1.4-1.4-1.3-3.7.1-5 .1-.2.4-.4.6-.5zm24 116.4c1.5-3.5 4.2-5 8.3-4.7-3.8-1.2-5.6-3.5-5.5-7.4.3 0 .5 0 .8.1 3.4.6 5.7 3.9 5 7.3-.6 3.4-3.9 5.7-7.3 5-.4.1-.8-.1-1.3-.3zm-7.8-2.6c1.8-3.3 4.5-4.4 8.6-3.7-3.6-1.5-5.1-4-4.6-7.7.3 0 .5.1.8.2 3.3 1 5.1 4.4 4.2 7.6-1 3.3-4.4 5.1-7.6 4.2-.6-.2-1-.4-1.4-.6zm-7.5-3.9c2.2-2.9 5-3.6 8.8-2.4-3.3-2-4.3-4.6-3.3-8.1.2.1.5.2.7.3 3 1.4 4.3 5 2.9 8s-5 4.3-8 2.9c-.3-.2-.7-.5-1.1-.7zm-6.7-4.4c2.4-2.6 5.2-3.1 8.8-1.5-3-2.2-3.8-4.9-2.5-8.2.2.1.4.2.7.3 2.8 1.6 3.7 5.2 2.1 8s-5.2 3.8-8 2.1c-.4-.1-.8-.4-1.1-.7zm-6.1-5.4c2.7-2.2 5.5-2.2 8.7-.2-2.6-2.6-3-5.2-1.3-8.3.2.1.4.3.6.4 2.5 2 2.9 5.6.9 8.1s-5.6 2.9-8.1.9c-.3-.3-.6-.6-.8-.9zm-5.4-5.6c2.8-1.9 5.5-1.7 8.5.6-2.3-2.8-2.4-5.3-.5-8.2.2.1.4.3.5.5 2.2 2.1 2.3 5.7.1 7.9-2.1 2.2-5.7 2.3-7.9.1-.2-.2-.5-.6-.7-.9zm-4.6-6.5c3-1.4 5.6-.8 8.1 1.8-1.8-3-1.6-5.5.7-8l.5.5c1.9 2.4 1.4 5.8-1 7.7-2.4 1.9-5.8 1.4-7.7-1-.2-.3-.4-.6-.6-1zM15 98.8c3-1.1 5.5-.3 7.7 2.5-1.5-3.1-1-5.5 1.4-7.7.1.2.3.4.4.5 1.6 2.5.8 5.8-1.6 7.4-2.5 1.6-5.8.8-7.4-1.6-.2-.4-.3-.7-.5-1.1zM12 92c3-.8 5.4.2 7.3 3.1-1.1-3.1-.5-5.4 2.1-7.3l.3.6c1.3 2.6.3 5.7-2.3 7-2.6 1.3-5.7.3-7-2.3-.2-.4-.3-.8-.4-1.1zm-2-7.4c3-.3 5.1 1 6.6 4-.7-3.2.3-5.3 3-6.7.1.2.2.4.2.6.9 2.7-.5 5.5-3.2 6.4-2.7.9-5.5-.5-6.4-3.2-.1-.4-.2-.7-.2-1.1zm-1.4-7.1c3 0 4.9 1.4 6 4.5-.3-3.1.8-5.1 3.6-6.2.1.2.1.4.2.6.6 2.7-1.1 5.3-3.7 5.9-2.7.6-5.3-1.1-5.9-3.7-.1-.4-.2-.8-.2-1.1zm-.5-7.2c2.9.3 4.6 1.9 5.3 5 0-3.1 1.3-4.9 4.1-5.7 0 .2.1.4.1.6.3 2.6-1.5 5-4.2 5.4-2.6.3-5-1.5-5.3-4.1-.1-.5-.1-.8 0-1.2zm.2-7.1c2.8.5 4.2 2.2 4.7 5.3.3-3 1.7-4.6 4.5-5.1 0 .2 0 .4.1.6.1 2.6-2 4.7-4.5 4.8-2.6.1-4.7-2-4.8-4.5-.1-.4-.1-.7 0-1.1zm.9-6.9c2.6.8 3.9 2.6 4 5.6.5-2.8 2.1-4.3 4.8-4.5v.6c-.2 2.5-2.4 4.3-4.8 4.2-2.5-.2-4.4-2.4-4.2-4.8 0-.5.1-.8.2-1.1zm1.6-6.7c2.4 1 3.5 2.9 3.3 5.8.8-2.7 2.4-3.9 5.1-3.9 0 .2 0 .4-.1.5-.4 2.4-2.7 4-5.1 3.6-2.4-.4-4-2.7-3.6-5.1.2-.3.3-.6.4-.9zm2.6-6.6c2.2 1.3 2.9 3.3 2.4 6 1.1-2.4 2.9-3.4 5.4-3 0 .2-.1.3-.1.5-.7 2.2-3.1 3.4-5.4 2.7-2.2-.7-3.4-3.2-2.7-5.4.1-.2.3-.5.4-.8zm2.9-6c2 1.5 2.5 3.4 1.7 6 1.3-2.3 3.1-3 5.5-2.4 0 .2-.1.3-.2.5-.9 2.1-3.4 3-5.4 2.1-2.1-.9-3-3.4-2.1-5.4.2-.3.4-.5.5-.8zm3.5-5.6c1.8 1.6 2.1 3.5 1.1 5.9 1.5-2 3.2-2.6 5.5-1.8-.1.1-.1.3-.2.5-1.1 1.9-3.5 2.6-5.4 1.5-1.9-1.1-2.6-3.5-1.5-5.4.1-.3.3-.5.5-.7zm3.9-5.2c1.6 1.7 1.7 3.6.5 5.8 1.6-1.8 3.4-2.2 5.5-1.2-.1.1-.2.3-.3.4-1.2 1.7-3.6 2.2-5.3.9-1.7-1.2-2.2-3.6-.9-5.3.1-.2.3-.4.5-.6zm4.4-4.7c1.3 1.8 1.3 3.6 0 5.6 1.7-1.6 3.4-1.8 5.4-.6-.1.1-.2.3-.3.4-1.3 1.6-3.7 1.7-5.2.4-1.6-1.3-1.7-3.7-.4-5.2.1-.3.3-.5.5-.6zm37.3 114.3c1-3.8 3.4-5.7 7.7-6-4-.6-6.2-2.7-6.7-6.6h.8c3.5.1 6.3 3.1 6.2 6.6-.1 3.5-3.1 6.3-6.6 6.2-.4 0-.9-.1-1.4-.2zm51.8-118.5c-1.1 1.8-.9 3.6.6 5.4-1.8-1.4-3.5-1.4-5.2-.1l.3.3c1.4 1.4 3.7 1.3 5-.1 1.4-1.4 1.3-3.7-.1-5-.2-.2-.4-.4-.6-.5zM93.1 133.7c-1.5-3.5-4.2-5-8.3-4.7 3.8-1.2 5.6-3.5 5.5-7.4-.3 0-.5 0-.8.1-3.4.6-5.7 3.9-5 7.3.6 3.4 3.9 5.7 7.3 5 .4.1.9-.1 1.3-.3zm7.8-2.6c-1.8-3.3-4.5-4.4-8.6-3.7 3.6-1.5 5.1-4 4.6-7.7-.3 0-.5.1-.8.2-3.3 1-5.1 4.4-4.2 7.6 1 3.3 4.4 5.1 7.6 4.2.6-.2 1-.4 1.4-.6zm7.5-3.9c-2.2-2.9-5-3.6-8.8-2.4 3.3-2 4.3-4.6 3.3-8.1-.2.1-.5.2-.7.3-3 1.4-4.3 5-2.9 8s5 4.3 8 2.9c.4-.2.8-.5 1.1-.7zm6.7-4.4c-2.4-2.6-5.2-3.1-8.8-1.5 3-2.2 3.8-4.9 2.5-8.2-.2.1-.4.2-.7.3-2.8 1.6-3.7 5.2-2.1 8s5.2 3.8 8 2.1c.5-.1.8-.4 1.1-.7zm6.2-5.4c-2.7-2.2-5.5-2.2-8.7-.2 2.6-2.6 3-5.2 1.3-8.3-.2.1-.4.3-.6.4-2.5 2-2.9 5.6-.9 8.1s5.6 2.9 8.1.9c.2-.3.5-.6.8-.9zm5.3-5.6c-2.8-1.9-5.5-1.7-8.5.6 2.3-2.8 2.4-5.3.5-8.2-.2.1-.4.3-.5.5-2.2 2.1-2.3 5.7-.1 7.9 2.1 2.2 5.7 2.3 7.9.1.2-.2.5-.6.7-.9zm4.6-6.5c-3-1.4-5.6-.8-8.1 1.8 1.8-3 1.6-5.5-.7-8l-.5.5c-1.9 2.4-1.4 5.8 1 7.7 2.4 1.9 5.8 1.4 7.7-1 .2-.3.4-.6.6-1zm3.8-6.5c-3-1.1-5.5-.3-7.7 2.5 1.5-3.1 1-5.5-1.4-7.7-.1.2-.3.4-.4.5-1.6 2.5-.8 5.8 1.6 7.4 2.5 1.6 5.8.8 7.4-1.6.2-.4.4-.7.5-1.1zm3-6.8c-3-.8-5.4.2-7.3 3.1 1.1-3.1.5-5.4-2.1-7.3l-.3.6c-1.3 2.6-.3 5.7 2.3 7 2.6 1.3 5.7.3 7-2.3.2-.4.4-.8.4-1.1zm2.1-7.4c-3-.3-5.1 1-6.6 4 .7-3.2-.3-5.3-3-6.7-.1.2-.2.4-.2.6-.9 2.7.5 5.5 3.2 6.4 2.6.9 5.5-.5 6.4-3.2.1-.4.1-.7.2-1.1zm1.3-7.1c-3 0-4.9 1.4-6 4.5.3-3.1-.8-5.1-3.6-6.2-.1.2-.1.4-.2.6-.6 2.7 1.1 5.3 3.7 5.9 2.7.6 5.3-1.1 5.9-3.7.2-.4.2-.8.2-1.1zm.6-7.2c-2.9.3-4.6 1.9-5.3 5 0-3.1-1.3-4.9-4.1-5.7 0 .2-.1.4-.1.6-.3 2.6 1.5 5 4.2 5.4 2.6.3 5-1.5 5.4-4.1-.1-.5-.1-.8-.1-1.2zm-.2-7.1c-2.8.5-4.3 2.2-4.7 5.3-.3-3-1.7-4.6-4.5-5.1v.6c-.1 2.6 2 4.7 4.5 4.8 2.6.1 4.7-2 4.8-4.5 0-.4 0-.7-.1-1.1zm-1-6.9c-2.6.8-3.9 2.6-4 5.6-.5-2.8-2.1-4.3-4.8-4.5v.6c.2 2.5 2.4 4.3 4.8 4.2 2.5-.2 4.4-2.4 4.2-4.8 0-.5-.1-.8-.2-1.1zm-1.6-6.7c-2.4 1-3.5 2.9-3.3 5.8-.8-2.7-2.4-3.9-5.1-3.9 0 .2 0 .4.1.5.4 2.4 2.7 4 5.1 3.6 2.4-.4 4-2.7 3.6-5.1-.2-.3-.3-.6-.4-.9zm-2.6-6.6c-2.2 1.3-2.9 3.3-2.4 6-1.2-2.4-2.9-3.4-5.4-3 0 .2.1.3.1.5.7 2.2 3.2 3.4 5.4 2.7 2.2-.7 3.4-3.2 2.7-5.4-.1-.2-.2-.5-.4-.8zm-2.9-6c-2 1.5-2.5 3.4-1.7 6-1.3-2.3-3.1-3-5.5-2.4 0 .2.1.3.2.5.9 2.1 3.4 3 5.4 2.1 2.1-.9 3-3.4 2.1-5.4-.2-.3-.3-.5-.5-.8zm-3.4-5.6c-1.8 1.6-2.1 3.5-1.1 5.9-1.5-2-3.2-2.6-5.5-1.8.1.1.1.3.2.5 1.1 1.9 3.5 2.6 5.4 1.5 1.9-1.1 2.6-3.5 1.5-5.4-.2-.3-.3-.5-.5-.7zm-4-5.2c-1.6 1.7-1.7 3.6-.5 5.8-1.6-1.8-3.4-2.2-5.5-1.2.1.1.2.3.3.4 1.2 1.7 3.6 2.2 5.3.9 1.7-1.2 2.2-3.6.9-5.3-.1-.2-.3-.4-.5-.6zm-4.4-4.7c-1.3 1.8-1.3 3.6 0 5.6-1.7-1.6-3.4-1.8-5.4-.6.1.1.2.3.3.4 1.3 1.6 3.7 1.7 5.2.4 1.6-1.3 1.7-3.7.4-5.2-.1-.3-.3-.5-.5-.6z"/><path fill="none" d="M119.4 67.8l-10.6-5.5c-2.4-15.1-14.3-27.1-29.4-29.4l-5.5-10.6-5.5 10.6C53.3 35.3 41.3 47.2 39 62.3l-10.6 5.5L39 73.3c2.4 15.1 14.3 27.1 29.4 29.4l5.5 10.6 5.5-10.6c5-.8 9.7-2.7 13.8-5.4l-2.7-2.7c-4.8 3-10.6 4.8-16.7 4.8-17.5 0-31.7-14.2-31.7-31.7s14.2-31.6 31.7-31.6 31.6 14.2 31.6 31.6c0 6.8-2.1 13.1-5.8 18.2l2.7 2.7c3.3-4.5 5.5-9.7 6.4-15.4l10.7-5.4z"/><path fill="#153037" d="M99.4 103.8l-6.2-6.4c-4.1 2.7-8.8 4.6-13.8 5.4l-5.5 10.6-5.5-10.6C53.3 100.4 41.3 88.5 39 73.4l-10.6-5.5L39 62.4C41.4 47.3 53.3 35.3 68.4 33l5.5-10.6L79.4 33c15.1 2.4 27.1 14.3 29.4 29.4l10.6 5.5-10.6 5.5c-.9 5.7-3.2 11-6.4 15.4l6.1 6.2c1.6 1.7 1.8 4.3.7 6.5 8.4-8.8 13.5-20.6 13.5-33.7 0-27-21.8-48.8-48.8-48.8C46.8 19 25 40.9 25 67.8c0 27 21.9 48.8 48.8 48.8 12.2 0 23.3-4.5 31.9-11.9-2.3 1-4.7.7-6.3-.9z"/><path fill="#EA2227" d="M81.3 82L69.4 69.8l-3.8 3.7.8.8c1.3 1.3 1.2 3.4-.1 4.7l-1.2 1.2a3.32 3.32 0 0 1-4.7 0L45.1 64.5c-1.3-1.3-1.2-3.4.1-4.7l1.2-1.2c1.3-1.3 3.4-1.3 4.7 0l1.1 1.2L65.4 47l-1.1-1.2c-1.3-1.3-1.2-3.4.1-4.7l1.2-1.2c1.3-1.3 3.4-1.3 4.7 0l15.3 15.6c1.3 1.3 1.2 3.4-.1 4.7l-1.2 1.2a3.32 3.32 0 0 1-4.7 0l-.8-.8-3.8 3.8 11.9 12.1 1.7-1.7 11 11.2c3.6-5.2 5.8-11.4 5.8-18.2 0-17.5-14.2-31.6-31.6-31.6S42.1 50.4 42.1 67.8c0 17.5 14.2 31.7 31.7 31.7 6.1 0 11.8-1.7 16.7-4.8L79.6 83.6l1.7-1.6z"/><g><path fill="#EA2227" d="M73.8 121.1c-29.4 0-53.3-23.9-53.3-53.3s23.9-53.3 53.3-53.3 53.3 23.9 53.3 53.3c-.1 29.4-24 53.3-53.3 53.3zm0-105.4c-28.7 0-52.1 23.4-52.1 52.1C21.6 96.6 45 120 73.8 120c28.7 0 52.1-23.4 52.1-52.1 0-28.8-23.4-52.2-52.1-52.2z"/></g></svg>