<svg xmlns="http://www.w3.org/2000/svg" viewBox="0 0 1500 1500"><path fill="#AB5153" d="M858.7 1150.8c-91.3-64.7-150.9-171.1-150.9-291.4 5.6-92.1 70.8-60.9 68-63.8-2.8-2.8-121.8-25.5-124.7 104.9 2.8-2.8-92.5-33.8-152.1-137.4-.6-.7-.9-1.2-.9-1.5l.9 1.5c9.6 10.8 95.8 61.9 155-4.3 70.8-79.3-68-246.5-252.2-263.6 0 0 61.6-30.2 195.5 31.2 136 62.3 195.5 51 218.2 0 22.7-51-31.2-90.7-85-96.4 0-2.8 189.9-22.7 294.7 113.4 2.8 2.8-5.7-28.3 28.3-36.8 33.2-8.3 98.8 7.7 157.2 26.9 1.4.5 2.9.9 4.3 1.4.5-.6-5.4-3.5-15.7-7.8l-189.8-92.8s-136-80.3-276.3-68c-242.3 21.3-246.6-42.5-246.6-42.5s0 123.3 199.8 153c161.5 29.7 59.5 123.3-102 21.2-161.5-102-204-106.3-340.1-102C108.5 400.2 83 353.5 83 353.5s63.8 216.8 369.8 233.8c331.6 17 153 267.8-34 63.8-4.3 4.3 46.8 238.1 267.8 391.1 11.3 10.7 145.9 93.3 181.1 114.8-3-2-6-4.1-9-6.2.1 0 .1 0 0 0z"/><path fill="#AB5153" d="M798.6 619.9c-7.1 8.5-13.3 16.7-18.7 24.5 14-18.6 29.8-35.7 47.1-51.2-9.6 7.8-19.1 16.6-28.4 26.7z"/><path fill="#5C5C60" d="M1210.8 533.4c-58.5-19.2-124-35.2-157.2-26.9-34 8.5-25.5 39.7-28.3 36.8 6.3 4.2-62.1-19.5-141.7 15.1-2.4 1.1-4.8 2.1-7 3.2-.9.4-1.8.9-2.7 1.3-11.7 5.9-21.8 12-30.2 17.7-5.6 3.8-11.1 8-16.7 12.5-17.3 15.5-33.1 32.6-47.1 51.2-56.7 81.5-28 125.9-7.1 147.9 1.1 1.1 2.1 2.2 3.2 3.3 2.8 2.8-62.4-28.3-68 63.8 0 120.4 59.6 226.8 150.9 291.4l36.2-52s-10.6-10.6-22.6-26.3c19.9 16.4 92 69.6 192.6 74.5 0 2.8-45.3 8.5-45.3 8.5l-19.1 55c-52-9.5-100.1-30.3-141.7-59.7 2.9 2.1 5.9 4.2 8.9 6.2 56.5 37.5 124.3 59.5 197.3 59.5 197.2 0 357.1-159.9 357.1-357.1-.3-145.2-87-270.1-211.5-325.9zm-145.9 587.3c-144.3 0-261.4-117-261.4-261.3s117-261.3 261.4-261.3c144.3 0 261.3 117 261.3 261.3.1 144.3-116.9 261.3-261.3 261.3z"/><path fill="#FFFFFE" d="M1064.9 598c-144.3 0-261.4 117-261.4 261.3s117 261.3 261.4 261.3c144.3 0 261.3-117 261.3-261.3.1-144.3-116.9-261.3-261.3-261.3zm0 502.2c-30.8 0-60.1-4-87.2-14.6l22-39.6h34c-87.9-24-133.2-89.8-133.2-89.8l14.2 30.2-29.3 33.6c-38.1-42.6-61.4-98.9-61.4-160.5 0-133 107.8-241 240.9-241 133 0 240.8 107.8 240.8 240.8.1 133.1-107.7 240.9-240.8 240.9z"/><path fill="#5C5C60" d="M1064.9 618.5c-133 0-240.9 107.8-240.9 240.8 0 61.6 23.3 117.6 61.4 160.2l29.3-34.1-14.2-29.2s45.3 65.8 133.2 89.8h0-34l-22 39.6c27.1 10.5 56.4 15.5 87.2 15.5 133 0 240.8-108.3 240.8-241.3.1-133-107.7-241.3-240.8-241.3zm0 409.9c-93.4 0-169.1-75.7-169.1-169.1 0-93.4 75.7-169.1 169.1-169.1S1234 765.9 1234 859.3c0 93.4-75.7 169.1-169.1 169.1z"/><path fill="#FFBA59" d="M1064.9 690.2c-93.4 0-169.1 75.7-169.1 169.1 0 93.4 75.7 169.1 169.1 169.1S1234 952.7 1234 859.3c0-93.4-75.7-169.1-169.1-169.1zm-37.1 38.5c6.4 0 11.5 5.2 11.5 11.5 0 6.4-5.2 11.5-11.5 11.5-6.4 0-11.5-5.2-11.5-11.5 0-6.4 5.1-11.5 11.5-11.5zm37.1 243.4c-23.3 0-45-7.1-63-19.3-4.4 7.6-12.6 12.8-22 12.8-14.1 0-25.5-11.4-25.5-25.5 0-9.9 5.7-18.5 14-22.7-10.2-17-16.3-36.8-16.3-58.1 0-62.3 50.5-112.7 112.7-112.7 62.3 0 112.7 50.5 112.7 112.7.2 62.3-50.3 112.8-112.6 112.8z"/><path fill="#FFBA59" d="M1064.9 746.6c-62.3 0-112.7 50.5-112.7 112.7 0 21.3 6 41.1 16.3 58.1 3.5-1.8 7.3-2.8 11.5-2.8 14.1 0 25.5 11.4 25.5 25.5 0 4.7-1.3 9-3.5 12.7 18 12.2 39.7 19.3 63 19.3 62.3 0 112.7-50.5 112.7-112.7 0-62.3-50.5-112.8-112.8-112.8zm0 194.7c-46.7 0-84.6-37.9-84.6-84.6 0-28.7 14.3-54 36.1-69.3 4.5-6.2 12.7-10.4 22.4-11.2 8.2-2.6 16.9-4.1 26-4.1 46.7 0 84.5 37.9 84.5 84.6.2 46.8-37.7 84.6-84.4 84.6z"/><path opacity=".49" fill="#AB5153" d="M1064.9 746.6c-62.3 0-112.7 50.5-112.7 112.7 0 21.3 6 41.1 16.3 58.1 3.5-1.8 7.3-2.8 11.5-2.8 14.1 0 25.5 11.4 25.5 25.5 0 4.7-1.3 9-3.5 12.7 18 12.2 39.7 19.3 63 19.3 62.3 0 112.7-50.5 112.7-112.7 0-62.3-50.5-112.8-112.8-112.8zm0 194.7c-46.7 0-84.6-37.9-84.6-84.6 0-28.7 14.3-54 36.1-69.3 4.5-6.2 12.7-10.4 22.4-11.2 8.2-2.6 16.9-4.1 26-4.1 46.7 0 84.5 37.9 84.5 84.6.2 46.8-37.7 84.6-84.4 84.6z"/><path fill="#FFBA59" d="M1064.9 772.2c-9.1 0-17.8 1.5-26 4.1 1-.1 1.9-.2 2.9-.2 16 0 29 9.7 29 21.7s-13 21.7-29 21.7-29-9.7-29-21.7c0-3.8 1.4-7.3 3.6-10.3-21.8 15.3-36.1 40.6-36.1 69.3 0 46.7 37.9 84.6 84.6 84.6 46.7 0 84.5-37.9 84.5-84.6.1-46.7-37.8-84.6-84.5-84.6zm-55.2 133.9c-7 0-12.7-5.7-12.7-12.8 0-7 5.7-12.7 12.7-12.7 7 0 12.7 5.7 12.7 12.7 0 7.1-5.7 12.8-12.7 12.8z"/><path opacity=".48" fill="#785E73" d="M1064.9 772.2c-9.1 0-17.8 1.5-26 4.1 1-.1 1.9-.2 2.9-.2 16 0 29 9.7 29 21.7s-13 21.7-29 21.7-29-9.7-29-21.7c0-3.8 1.4-7.3 3.6-10.3-21.8 15.3-36.1 40.6-36.1 69.3 0 46.7 37.9 84.6 84.6 84.6 46.7 0 84.5-37.9 84.5-84.6.1-46.7-37.8-84.6-84.5-84.6zm-55.2 133.9c-7 0-12.7-5.7-12.7-12.8 0-7 5.7-12.7 12.7-12.7 7 0 12.7 5.7 12.7 12.7 0 7.1-5.7 12.8-12.7 12.8z"/><path opacity=".49" fill="#AB5153" d="M1064.9 772.2c-9.1 0-17.8 1.5-26 4.1 1-.1 1.9-.2 2.9-.2 16 0 29 9.7 29 21.7s-13 21.7-29 21.7-29-9.7-29-21.7c0-3.8 1.4-7.3 3.6-10.3-21.8 15.3-36.1 40.6-36.1 69.3 0 46.7 37.9 84.6 84.6 84.6 46.7 0 84.5-37.9 84.5-84.6.1-46.7-37.8-84.6-84.5-84.6zm-55.2 133.9c-7 0-12.7-5.7-12.7-12.8 0-7 5.7-12.7 12.7-12.7 7 0 12.7 5.7 12.7 12.7 0 7.1-5.7 12.8-12.7 12.8z"/><path fill="#FFFFFE" d="M1041.9 819.6c16 0 29-9.7 29-21.7s-13-21.7-29-21.7c-1 0-1.9.1-2.9.2-9.7.7-18 5-22.4 11.2-2.2 3.1-3.6 6.6-3.6 10.3-.1 11.9 12.9 21.7 28.9 21.7zM1027.8 751.7c6.4 0 11.5-5.2 11.5-11.5 0-6.4-5.2-11.5-11.5-11.5-6.4 0-11.5 5.2-11.5 11.5s5.1 11.5 11.5 11.5z"/><path fill="#AB5153" d="M883.6 558.4c-2.3 1-4.7 2.1-7 3.2 2.2-1.1 4.6-2.1 7-3.2zM873.8 563c-10 4.9-20.1 10.8-30.2 17.7 8.4-5.7 18.5-11.9 30.2-17.7zM772.7 792.3c1.1 1.1 2.2 2.3 3.2 3.3-1.2-1.1-2.2-2.2-3.2-3.3z"/><path fill="#FFBA59" d="M499.1 763.1l-.9-1.5c0 .3.3.8.9 1.5z"/><path fill="#FFBA59" d="M730.5 430c53.8 5.7 107.7 45.4 85 96.4-22.7 51-82.2 62.3-218.2 0-134-61.4-195.5-31.2-195.5-31.2C586 512.2 724.9 679.4 654 758.7c-59.2 66.3-145.3 15.1-155 4.3 59.7 103.7 155 134.6 152.2 137.4C654 770.1 773 792.7 775.9 795.6c-1-1-2.1-2.1-3.2-3.3-20.8-22-49.6-66.3 7.1-147.9 5.5-7.8 11.6-16 18.7-24.5 9.4-10.1 18.9-18.9 28.4-26.7 5.5-4.5 11.1-8.7 16.7-12.5 10.1-7 20.2-12.8 30.2-17.7.9-.4 1.8-.9 2.7-1.3 2.4-1.1 4.7-2.2 7-3.2 79.6-34.6 148-10.9 141.7-15.1C920.4 407.3 730.5 427.2 730.5 430zM608.7 568.9c187 48.2 79.3 187 79.3 187 39.7-138.9-79.3-187-79.3-187zM923.2 515c-5.7-5.7-51 5.7-82.2 34 0 0 45.3-39.7 2.8-76.5.1-2.8 56.8 5.7 79.4 42.5z"/><path fill="#FFFFFE" d="M841.1 549c31.2-28.3 76.5-39.7 82.2-34-22.7-36.8-79.4-45.4-79.4-42.5 42.5 36.9-2.8 76.5-2.8 76.5zM608.7 568.9s119 48.2 79.3 187c0 0 107.7-138.9-79.3-187z"/><path fill="#AB5153" d="M356.5 676.5c-19.8-68-110.5-73.7-110.5-73.7 42.5 19.8 45.3 51 73.7 107.7 28.3 56.7 104.9 70.8 104.9 70.8s-48.3-36.7-68.1-104.8z"/><path fill="#FFFFFE" d="M858.8 1150.8c41.6 29.4 89.6 50.2 141.7 59.7l19.1-55s45.3-5.7 45.3-8.5c-100.7-4.8-172.7-58.1-192.6-74.5 12 15.7 22.6 26.3 22.6 26.3l-36.1 52z"/><path fill="none" d="M1035.4 1046.1"/><path fill="#FFFFFE" d="M979.9 914.6c-4.1 0-8 1.1-11.5 2.8-8.3 4.2-14 12.7-14 22.7 0 14.1 11.4 25.5 25.5 25.5 9.4 0 17.6-5.2 22-12.8 2.2-3.8 3.5-8.1 3.5-12.7 0-14.1-11.4-25.5-25.5-25.5zM1009.7 880.6c-7 0-12.7 5.7-12.7 12.7 0 7 5.7 12.8 12.7 12.8 7 0 12.7-5.7 12.7-12.8 0-7-5.7-12.7-12.7-12.7z"/></svg>