<svg xmlns="http://www.w3.org/2000/svg" viewBox="0 0 150 150"><path fill="#B0B0B0" d="M61.6 103.9c23.4 3.3 47.4-2.1 68.3-13-3.9 19.2-18.8 34.5-37 41.1-11.9-7.5-22.7-16.8-31.3-28.1zM59.1 21.1c15.8-4.1 33.3-1 46.9 7.9 2.1 1.7 5.5 3.2 5.3 6.4-.2 13.3-3.5 26.4-8.2 38.8-8.9-18.7-21.3-36.1-38.7-47.7-1.8-1.6-5.1-2.6-5.3-5.4z"/><path fill="#044C7B" d="M17.9 62.2c4.6-18.3 18.7-34.6 37-39.8 12.3 6.5 22.5 16.4 30.9 27.3-11.8-.8-23.8-1.2-35.4 1.6-11.3 2.2-21.9 6.7-32.5 10.9zM113.9 36.1c14.6 12.8 19.7 33.5 16.8 52.3-12.3 6.6-25.7 11.1-39.5 13.2 13.5-19.3 21.4-42.1 22.7-65.5z"/><path fill="#B0B0B0" d="M19.5 64.3c11.6-6.1 24.4-9.8 37.3-12.1-5.3 8.5-10.9 17-14.4 26.5-5.1 12.4-7.2 25.8-8.3 39.2-12.3-11.3-18.8-28.4-17.5-45 .4-3-.4-7.3 2.9-8.6z"/><path fill="#044C7B" d="M35.8 119.6c1.7-13.5 3.5-27.2 8.9-39.8 9.7 21.5 26.1 39.2 45.2 52.8-18.6 4.5-40.2 1-54.1-13z"/><g><path fill="#707070" d="M73.9 13.3c34.3.1 62.1 27.3 63.2 61.4h5.6c-1-37.1-31.3-67-68.7-67-37.4 0-67.7 29.8-68.7 67h5.6c.9-34.1 28.7-61.3 63-61.4z"/></g><g><path fill="#707070" d="M73.9 140.1c34.3-.1 62.1-27.3 63.2-61.4h5.6c-1 37.1-31.3 67-68.7 67-37.4 0-67.7-29.8-68.7-67h5.6c.9 34.1 28.7 61.4 63 61.4z"/></g></svg>