<svg xmlns="http://www.w3.org/2000/svg" viewBox="0 0 1500 1500"><path fill="#5F7BA6" d="M629.6 754.9c1.2-26.9 18.1-43.9 37.9-54.7-19.1-118.5-32.9-351.7 83.9-601.7-214.3 5.3-402.8 116-517.6 283.2 124.4 207.8 295.6 320.9 395.8 373.2zm-204-475.7c29.4-14.6 75 17.3 101.7 71.2 24.5 49.4 24.7 100.2 1.9 119.5l68.2 172.2s-56.2-97.2-86.9-164.3c-28.7 2.7-66.3-27.6-89.6-74.6-26.9-53.9-24.8-109.4 4.7-124zM1418.1 757.5c-1-166.1-61.9-317.7-161.8-433.6-241.6 99.7-384.9 268.2-459.6 383.7 43.4 21.3 79.7 49.1 109.8 81.6 120-38.3 301.1-72.1 511.6-31.7zm-325.4-129.4l-172.4 67.6s97.4-55.9 164.6-86.4c-2.6-28.8 27.8-66.2 74.9-89.4 54-26.6 109.6-24.2 124.1 5.3s-17.6 74.9-71.6 101.5c-49.6 24.3-100.3 24.3-119.6 1.4z"/><path fill="#5F7BA6" d="M699.3 687.9c5-1.3 9.7-2.4 14-3.2-5.3-27.6-16.5-63.3-15.4-104.9l26.9 31.8 37.9-21 10.5 31.5 35.5-8c-24.3 27.5-35.1 54-49.4 77.4 2.2.8 4.5 1.6 6.7 2.4 75.6-118.1 221.1-291.6 466.6-396.3C1119 179.4 962.3 104.3 788.3 98.7c-118.3 242.9-107.2 471.1-89 589.2zm132.4-306.4c-20.4-20.4-21.1-68.7.2-116.6 24.5-55 68.6-88.8 98.6-75.5 30 13.3 34.5 68.7 10.1 123.8-22.4 50.4-61.3 82.9-90.8 77.7l-89.1 162.4c.1 0 39-105.4 71-171.8zM672.1 860.8c-36.7-40.8-141.2-11.1-141.2-11.1l84.9-64.6c-101.8-52.9-274.1-166-402.2-372.3-61.5 101.3-97.1 220.7-97.1 348.6 0 43.2 4.2 85.4 11.9 126.3 241.5 49.4 451.8 6.1 543.7-26.9zm-428.7-77.9c-56.4-20.9-93-62.8-81.6-93.6 11.4-30.8 66.4-38.8 122.9-17.9 51.7 19.2 86.6 56 83.3 85.7l167.7 78.6s-107.6-32.2-175.9-60c-19.1 21.7-67.2 25.5-116.4 7.2zM929.9 816.7c37.9 49.2 63.9 106.5 80.5 166.2 71.7 48.6 159.5 121.3 239.3 224 98.6-110.9 160.9-255.9 167.8-415.6-198.9-39.3-370.9-10.1-487.6 25.4zm430 140.9c-6.3 32.2-59.4 48.9-118.4 37.3-54.1-10.6-94.5-41.4-95.9-71.3l-178.1-50.8s111.4 14.6 183.3 31c15.4-24.4 62.3-35.8 113.8-25.7 58.9 11.7 101.6 47.3 95.3 79.5zM1021.8 1031.7c25.6 132.4 9.3 268.8-23.2 349.9 86.2-33.4 163.8-84.9 228-150.1-67.4-87.6-140.9-153-204.8-199.8z"/><path fill="#5F7BA6" d="M748.4 962.6c-2.8-44.9-20.6-73.7-45-91.7-75.4 30.5-295.3 103.9-567.3 52.4 38.4 156 131 290 256.2 380.2 246.2-155.7 317.6-277.4 356.1-340.9zm-316.3 180.5c-55.6 23.2-110.9 17.5-123.5-12.8-12.7-30.3 22.1-73.7 77.7-96.9 50.9-21.3 101.5-18.2 119.4 5.8l176.2-56.9s-100.7 49.9-169.6 76.2c.8 28.8-31.8 64.4-80.2 84.6zM423 1324.3c45.1 28.7 93.9 51.9 145.4 68.8 142.8-159.4 185.8-301.4 184.1-371.2-55.9 78.3-169.1 208-329.5 302.4z"/><path fill="#FFFFFE" d="M773.2 622.2l-10.5-31.5-37.9 21-26.9-31.8c-1.1 41.5 10.1 77.3 15.4 104.9.5 2.5 1 5.1 1.4 7.5 11.2-3 20.1-3.6 20.1-3.6 7.6 2.2 14.8 4.7 21.9 7.4.9-1.5 1.8-3 2.8-4.5 14.2-23.4 25.1-50 49.4-77.4l-35.7 8z"/><path fill="#9AD4EE" d="M726.7 831.4c176.1 243.8-94.6 567.4-94.6 567.4l153 2.8c124.3-485-58.4-570.2-58.4-570.2z"/><path fill="#6EC829" d="M940.6 313.1c24.5-55 19.9-110.4-10.1-123.8-30-13.3-74.2 20.5-98.6 75.5-21.3 48-20.6 96.2-.2 116.6-32 66.4-71 171.8-71 171.8l89.1-162.4c29.5 5.3 68.4-27.2 90.8-77.7zm-74.8-47.9c13.2-29.1 36-47.2 50.9-40.4 15 6.8 16.4 35.8 3.3 64.9-13.2 29.1-36 47.2-50.9 40.4-15-6.8-16.4-35.8-3.3-64.9z"/><path fill="#FFDD30" d="M869.1 330.1c15 6.8 37.8-11.3 50.9-40.4 13.2-29.1 11.7-58.2-3.3-64.9-14.9-6.8-37.7 11.3-50.9 40.4-13.1 29.1-11.7 58.1 3.3 64.9z"/><path fill="#6EC829" d="M535.8 835.7l-167.7-78.6c3.3-29.7-31.6-66.5-83.3-85.7-56.4-20.9-111.5-12.9-122.9 17.9-11.4 30.8 25.1 72.7 81.6 93.6 49.2 18.2 97.3 14.5 116.4-7.2 68.2 27.8 175.9 60 175.9 60zm-294.2-86.6c-29.9-11.3-49.4-32.9-43.6-48.2 5.8-15.4 34.7-18.7 64.6-7.4 29.9 11.3 49.4 32.9 43.6 48.2-5.8 15.4-34.7 18.7-64.6 7.4z"/><path fill="#FFDD30" d="M306.2 741.8c5.8-15.4-13.7-37-43.6-48.2-29.9-11.3-58.8-8-64.6 7.4-5.8 15.4 13.7 37 43.6 48.2 29.9 11.2 58.8 7.9 64.6-7.4z"/><path fill="#6EC829" d="M681.9 982.3l-176.2 56.9c-17.8-24-68.4-27.1-119.4-5.8-55.5 23.2-90.3 66.6-77.7 96.9 12.7 30.3 68 36.1 123.5 12.8 48.4-20.2 81-55.8 80.2-84.6 68.9-26.4 169.6-76.2 169.6-76.2zm-274.2 137.3c-29.5 12.1-58.5 9.6-64.8-5.6-6.2-15.2 12.7-37.3 42.2-49.4 29.5-12.1 58.5-9.6 64.8 5.6 6.3 15.1-12.7 37.3-42.2 49.4z"/><path fill="#FFDD30" d="M449.9 1070.2c-6.2-15.2-35.2-17.7-64.8-5.6-29.5 12.1-48.4 34.3-42.2 49.4 6.2 15.2 35.2 17.7 64.8 5.6 29.5-12.1 48.5-34.3 42.2-49.4z"/><path fill="#6EC829" d="M1283.9 525.2c-14.5-29.5-70-31.8-124.1-5.3-47.1 23.1-77.5 60.6-74.9 89.4-67.2 30.5-164.6 86.4-164.6 86.4l172.4-67.6c19.3 22.9 70 22.9 119.5-1.5 54.1-26.5 86.1-71.9 71.7-101.4zm-72.4 70.2c-28.7 13.9-57.8 13.2-65-1.6-7.1-14.8 10.4-38 39.1-51.9 28.7-13.9 57.8-13.2 65 1.6 7.1 14.8-10.4 38-39.1 51.9z"/><path fill="#FFDD30" d="M1185.6 541.9c-28.7 13.9-46.2 37.2-39.1 51.9 7.1 14.8 36.2 15.5 65 1.6 28.7-13.9 46.3-37.1 39.1-51.9-7.2-14.8-36.3-15.5-65-1.6z"/><path fill="#6EC829" d="M510.3 477.9c30.7 67 86.9 164.3 86.9 164.3L529.1 470c22.8-19.4 22.7-70.1-1.9-119.5-26.7-53.9-72.3-85.8-101.7-71.2-29.4 14.6-31.6 70.1-4.8 124.1 23.3 46.9 60.9 77.1 89.6 74.5zM444 312.4c14.8-7.2 38.1 10.2 52.1 38.9s13.4 57.8-1.4 65c-14.8 7.2-38.1-10.2-52.1-38.9s-13.4-57.8 1.4-65z"/><path fill="#FFDD30" d="M494.6 416.3c14.7-7.2 15.4-36.3 1.4-65-14-28.7-37.3-46.1-52.1-38.9-14.7 7.2-15.4 36.3-1.4 65 14.1 28.7 37.4 46.1 52.1 38.9z"/><path fill="#6EC829" d="M1150.7 903.9c-71.9-16.5-183.3-31-183.3-31l178.1 50.8c1.5 29.9 41.8 60.6 95.9 71.3 59.1 11.6 112.1-5.1 118.4-37.3 6.3-32.2-36.4-67.8-95.5-79.4-51.4-10.2-98.2 1.2-113.6 25.6zm120.9 7.4c31.3 6.4 54 24.6 50.7 40.6-3.3 16.1-31.3 24-62.6 17.6-31.3-6.4-54-24.6-50.7-40.6 3.3-16.1 31.3-24 62.6-17.6z"/><path fill="#FFDD30" d="M1209 928.9c-3.3 16.1 19.4 34.3 50.7 40.6 31.3 6.4 59.3-1.5 62.6-17.6 3.3-16.1-19.4-34.3-50.7-40.6-31.3-6.4-59.3 1.5-62.6 17.6z"/></svg>