<svg xmlns="http://www.w3.org/2000/svg" viewBox="0 0 1500 1500"><path fill="#F10F83" d="M662.2 897.4s-471.6-602.2-16.8-783.2c0 0 151.6-50.5 290.5 12.6 139 63.2 282.1 349.5-151.6 779 0 0-67.4 50.5-122.1-8.4z"/><path fill="#4CA950" d="M602.6 673.9s602.2-471.6 783.2-16.8c0 0 50.5 151.6-12.6 290.6-63.2 139-349.5 282.1-779-151.6 0 0-50.5-67.4 8.4-122.2z"/><path fill="#00A9DE" d="M837.8 602.6s471.6 602.2 16.8 783.2c0 0-151.6 50.5-290.6-12.6-139-63.2-282.1-349.5 151.6-779 .1 0 67.5-50.5 122.2 8.4z"/><path fill="#C652B4" d="M897.4 849.6s-602.2 471.6-783.2 16.8c0 0-50.5-151.6 12.6-290.6 63.2-139 349.5-282.1 779 151.6 0 .1 50.5 67.5-8.4 122.2z"/><path opacity=".2" fill="#70537C" d="M1003.2 764.6c0 141.4-114.6 256-256 256s-256-114.6-256-256 114.6-256 256-256 256 114.6 256 256z"/><path fill="#FFFFFE" d="M864 767.3c0 64.5-52.3 116.7-116.7 116.7-64.5 0-116.7-52.3-116.7-116.7 0-64.5 52.3-116.7 116.7-116.7 64.4-.1 116.7 52.2 116.7 116.7z"/><g fill="#FFF"><path d="M747.3 530.3h7v93.8h-7zM747.3 921.8h7v93.8h-7z"/></g><g fill="#FFF"><path d="M505.8 758.9h93.8v7h-93.8zM897.3 758.9h93.8v7h-93.8z"/></g></svg>