<svg xmlns="http://www.w3.org/2000/svg" viewBox="0 0 150 150"><g fill-rule="evenodd" clip-rule="evenodd"><path fill="#319775" d="M71.4 38.3c19.4-2.2 37.4 10.6 41.7 29.6l-10.2 1.7c-3.3-13.4-16-22.5-29.8-21.2l-1.7-10.1zM80.1 114.4c-19.4 2.2-37.4-10.6-41.7-29.6L48.6 83c3.3 13.4 16 22.5 29.8 21.2l1.7 10.2z"/><path fill="#2E415C" d="M37.7 80.7C35.5 61.3 48.3 43.3 67.3 39L69 49.2c-13.4 3.3-22.5 16-21.2 29.8l-10.1 1.7zM113.8 72c2.2 19.4-10.6 37.4-29.6 41.7l-1.7-10.2c13.4-3.3 22.5-16 21.2-29.8l10.1-1.7zM73.6 57.3c9.7-1.1 18.7 5.3 20.8 14.8l-5.1.9c-1.6-6.7-8-11.2-14.9-10.6l-.8-5.1zM77.9 95.3c-9.7 1.1-18.7-5.3-20.8-14.8l5.1-.9c1.7 6.7 8 11.2 14.9 10.6l.8 5.1z"/><path fill="#319775" d="M56.7 78.5c-1.1-9.7 5.3-18.7 14.8-20.8l.9 5.1c-6.7 1.6-11.2 8-10.6 14.9l-5.1.8zM94.8 74.1C95.9 83.8 89.5 92.9 80 95l-.9-5.1c6.7-1.7 11.2-8 10.6-14.9l5.1-.9z"/><path fill="#2E415C" d="M65.3 94.2c.3 1.6-.8 3.1-2.4 3.4-1.6.3-3.1-.8-3.4-2.4-.3-1.6.8-3.1 2.4-3.4 1.6-.3 3.1.8 3.4 2.4z"/><path fill="#319775" d="M59.4 64c.3 1.6-.8 3.1-2.4 3.4-1.6.3-3.1-.8-3.4-2.4-.3-1.6.8-3.1 2.4-3.4 1.6-.3 3.1.8 3.4 2.4z"/><path fill="#2E415C" d="M90.5 56.4c.3 1.6-.8 3.1-2.4 3.4-1.6.3-3.1-.8-3.4-2.4-.3-1.6.8-3.1 2.4-3.4 1.7-.2 3.2.9 3.4 2.4z"/><path fill="#319775" d="M97.1 88.7c.3 1.6-.8 3.1-2.4 3.4-1.6.3-3.1-.8-3.4-2.4-.3-1.6.8-3.1 2.4-3.4 1.6-.3 3.1.8 3.4 2.4z"/></g><path fill="#2E415C" d="M13.2 49l12.4-2.1-1-6-19.7 3.4 3.5 21 7.4-1.2zM19.4 130.4l19.8-3.4-1-5.9-12.4 2.1-2.6-15.1-7.3 1.2zM132.2 22.7L112.5 26l1 6 12.4-2.1 2.6 15.1 7.3-1.2zM138.5 104.1l-12.5 2.1 1 6 19.8-3.4-3.5-21-7.4 1.2z"/></svg>