<svg xmlns="http://www.w3.org/2000/svg" viewBox="0 0 150 150"><path fill="none" d="M102.4 31H44.7c-1.3 0-2.7.8-2.7 2.1V41h63v-7.9c0-1.3-1.3-2.1-2.6-2.1z"/><path fill="#D96327" d="M15 126h10v8H15z"/><path fill="#E1AB25" d="M61.3 64.5c3.7-2.3 8.1-3.7 12.8-3.7.3 0 .9 0 .9.1V41H13.4C9.5 41 6 44.5 6 48.4V82h44c1-7 5.3-13.7 11.3-17.5z"/><path fill="#F7BB17" d="M133.6 41H75v19.9C87 61.3 96.8 70 98.3 82H141V48.4c0-3.9-3.5-7.4-7.4-7.4zM128 58h-19V47h19v11z"/><path fill="#D96327" d="M42 33.1c0-1.3 1.4-2.1 2.7-2.1H75V21H44.7C38.2 21 33 26.6 33 33.1V41h9v-7.9z"/><path fill="#694E32" d="M74.1 109.6c-4.7 0-9.1-1.4-12.8-3.7-6.9-4.3-11.5-12-11.5-20.7 0-.9.1-1.8.2-2.7 0-.2 0-.6.1-.6H6v36.6c0 3.9 3.5 7.5 7.4 7.5H75v-16.4h-.9z"/><path fill="#75573A" d="M98.4 82.6c.1.9.1 1.8.1 2.6C98.5 98.3 88 109 75 109.6V126h58.6c3.9 0 7.4-3.6 7.4-7.5V82H98.3c.1 0 .1.4.1.6z"/><path fill="#694E32" d="M61 76.6c-1 1.8-1.8 3.8-2.2 5.9-.2.9-.3 1.7-.3 2.6 0 3.2 1.5 6.1 2.5 8.6V76.6z"/><path fill="#75573A" d="M61 76.6v17.1c2 2.7 4.5 4.7 7.6 5.9 1.7.6 3.6 1 5.5 1h1c1.6-.1 3.1-.4 4.5-1 5.9-2.2 10-7.8 10-14.5 0-.9-.1-1.8-.2-2.6-1.2-7-7.1-12.3-14.2-12.8h-1.1c-5.4.1-10.1 2.8-13.1 6.9z"/><path fill="#F16B24" d="M123 126h11v8h-11zM102.4 31c1.3 0 2.6.8 2.6 2.1V41h9v-7.9c0-6.5-5.1-12.1-11.6-12.1H75v10h27.4zM61.3 64.5C55.3 68.3 51 74.6 50 82c0 .2 0 .4-.1.6-.1.9-.2 1.7-.2 2.6 0 8.7 4.6 16.4 11.6 20.7 3.7 2.3 8.1 3.7 12.8 3.7h1c13-.5 23.4-11.2 23.4-24.4 0-.9-.1-1.8-.1-2.6 0-.2-.1-.4-.1-.6C96.8 70.4 87 61.3 75.1 60.9h-1c-4.6-.1-9 1.3-12.8 3.6zm28.1 18.1c.1.9.2 1.7.2 2.6 0 6.6-4.2 12.3-10 14.5-1.4.5-2.9.9-4.4 1h-1c-1.9 0-3.7-.4-5.4-1-3-1.1-5.6-3.2-7.4-5.9-1.7-2.5-2.6-5.4-2.6-8.6 0-.9.1-1.8.2-2.6.4-2.2 1.2-4.2 2.4-5.9 2.8-4.1 7.5-6.9 12.8-6.9h1c7.1.5 13 5.8 14.2 12.8zM109 47h19v11h-19z"/></svg>