<svg xmlns="http://www.w3.org/2000/svg" viewBox="0 0 1500 1500"><path fill="#EE6F94" d="M751.6 241C462.4 241 228 475.5 228 764.6s234.4 523.6 523.6 523.6c289.1 0 523.6-234.5 523.6-523.6S1040.7 241 751.6 241zm0 99.6c54.5 0 106.6 10.4 154.5 29.2L868 537.9c-34.9-18-74.5-28.2-116.4-28.2-48.5 0-93.9 13.6-132.5 37.1L506.1 419c69.3-49.3 153.9-78.4 245.5-78.4zM521 873.4H345.8l-3.2 3.6c-9.8-35.8-15.2-73.4-15.2-112.4 0-96.5 32.3-185.5 86.7-256.8l129 110.1c-29.3 41.5-46.5 92.1-46.5 146.7 0 38.9 8.8 75.8 24.4 108.8zM751.5 920c-85.8 0-155.4-69.6-155.4-155.4 0-85.8 69.6-155.4 155.4-155.4 85.8 0 155.4 69.6 155.4 155.4 0 85.8-69.6 155.4-155.4 155.4zm137.6 213.6l-25.5-35.6c105.4-35.2 188.3-119.8 220.8-226.4l34.9 28.1c-38.2 108.1-122.9 194.1-230.2 233.9zM751.6 97.2c-368.1 0-667.5 299.4-667.5 667.5s299.4 667.5 667.5 667.5c368 0 667.5-299.4 667.5-667.5S1119.6 97.2 751.6 97.2zm0 1286c-341.1 0-618.6-277.5-618.6-618.6S410.5 146 751.6 146s618.6 277.5 618.6 618.6-277.6 618.6-618.6 618.6zm-109-618.6c0 60.1 48.8 108.9 108.9 108.9.8 0 1.6-.1 2.3-.1V655.8c-.8 0-1.6-.1-2.3-.1-60.1 0-108.9 48.8-108.9 108.9z"/></svg>