<svg xmlns="http://www.w3.org/2000/svg" width="100" height="100" viewBox="0 0 100 100"><radialGradient id="a" cx="45.426" cy="44.079" r="27.084" gradientUnits="userSpaceOnUse"><stop offset="0" stop-color="#919395"/><stop offset=".673" stop-color="#424243"/><stop offset="1" stop-color="#272525"/></radialGradient><path fill="url(#a)" d="M70.811 36.326c-3.996-4.049-15.466-2.123-25.623 4.303-10.157 6.425-15.148 14.914-11.156 18.963 3.996 4.049 15.466 2.123 25.623-4.299 10.153-6.426 15.148-14.918 11.156-18.967zM44.113 56.973c-2.664 1.688-5.673 2.191-6.721 1.131-1.048-1.062.265-3.291 2.925-4.976 2.664-1.685 5.673-2.19 6.721-1.128 1.048 1.061-.261 3.289-2.925 4.973zm-.295-9.793c-1.048-1.064.261-3.289 2.925-4.977 2.664-1.68 5.672-2.188 6.721-1.124 1.048 1.06-.266 3.289-2.925 4.973-2.664 1.683-5.673 2.186-6.721 1.128zm8.56.734c.734-.467 1.562-.603 1.854-.311.288.295-.075.908-.81 1.373-.733.466-1.562.602-1.854.311-.288-.291.076-.908.81-1.373zm6.49 6.58c-2.661 1.688-5.67 2.191-6.718 1.131-1.048-1.062.261-3.291 2.925-4.976s5.673-2.188 6.721-1.128c1.045 1.064-.264 3.29-2.928 4.973zm6.429-10.921c-2.668 1.684-5.673 2.191-6.721 1.128-1.048-1.06.261-3.289 2.925-4.973 2.664-1.684 5.673-2.191 6.717-1.127 1.049 1.059-.261 3.288-2.921 4.972z"/><radialGradient id="b" cx="27.485" cy="48.795" r="43.981" gradientUnits="userSpaceOnUse"><stop offset="0" stop-color="#7cc5f1"/><stop offset=".009" stop-color="#79c4f1"/><stop offset=".261" stop-color="#22b2ed"/><stop offset=".376" stop-color="#00abeb"/><stop offset=".465" stop-color="#00a4e3"/><stop offset=".605" stop-color="#0091cc"/><stop offset=".779" stop-color="#0072a7"/><stop offset=".979" stop-color="#004775"/><stop offset="1" stop-color="#00426f"/></radialGradient><path fill="url(#b)" d="M80.653 29.579S57.69 27.581 40.355 41.147c0 0-16.59 12.995-9.185 20.56 0 0 8.147 9.426 38.962-7.996 0 0-27.257 23.561-41.925 13.71 0 0-13.332-6.569 3.557-24.847.001 0 21.658-22.482 48.889-12.995z"/><radialGradient id="c" cx="40.302" cy="77.093" r="41.036" gradientUnits="userSpaceOnUse"><stop offset="0" stop-color="#ecba31"/><stop offset=".358" stop-color="#cb2229"/><stop offset=".661" stop-color="#a22430"/><stop offset="1" stop-color="#540000"/></radialGradient><path fill="url(#c)" d="M58.209 65.049l8.151 4.057s-12.359 10.008-31.817 7.602c0 0-17.487-2.281-13.014-18.883 0 0-2.763 16.602 19.848 14.194 0 0 9.336-1.015 16.832-6.97z"/></svg>