<svg xmlns="http://www.w3.org/2000/svg" viewBox="0 0 150 150"><path fill="#F9BA1F" d="M91.3 80.4c-.3-.4-.8-.6-1.3-.6s-1 .3-1.3.7l-5 7c-.3.4-.4.8-.3 1.2.1.4.4.8.8 1l2.3 1.2c.2.1.5.2.7.2.3 0 .6-.1.9-.3l2.1-1.4 2 1.4c.5.3 1.1.4 1.6.1l2-1.1c.4-.2.6-.6.7-1 .1-.4 0-.9-.2-1.2l-5-7.2z"/><path fill="#F9BA1F" d="M28.1 120.1h90.5V29.6H28.1v90.5zm.8-1.8l25.2-34.4c.4-.5 1-.9 1.7-.9s1.3.3 1.7.9l11.3 15.4 19.7-26.8c.8-1 2.5-1 3.3 0l23.6 32.2v5.5c0 4.6-3.7 8.3-8.3 8.3H28.9v-.2z"/><path fill="#F9BA1F" d="M57.1 91.8c-.3-.4-.8-.7-1.3-.7s-1 .3-1.3.7l-5 7c-.2.3-.3.8-.2 1.2.1.4.4.8.8 1l2.2 1.2c.2.1.5.2.7.2.3 0 .6-.1.8-.3l2.1-1.4 2 1.4c.5.3 1.1.4 1.6.1l2-1.1c.4-.2.6-.6.7-1 .1-.4 0-.9-.2-1.2l-4.9-7.1z"/><path fill="#2F2F23" d="M138.4 51.7c.4 0 .8.1 1.2.1v-7.2c-.4.1-.8.1-1.2.1-4.5 0-8.1-3.6-8.1-8.1v-2.3c0-4.5 3.6-8.1 8.1-8.1.4 0 .8.1 1.2.1v-6.7c-.5.1-1 .1-1.4.1-2.5 0-4.9-1.2-6.4-3-1.6-1.3-2.7-3.4-3-5.6h-9c-.6 3.9-3.9 7-8 7h-2.3c-4.1 0-7.4-3-8-7h-7.2c-.6 3.9-3.9 7-8 7H84c-4.1 0-7.4-3-8-7h-3.4v18.6h46.2v90.5H72.4v20.9h5.7c-.1-.4-.1-.8-.1-1.2 0-4.5 3.6-8.1 8.1-8.1h2.3c4.5 0 8.1 3.6 8.1 8.1 0 .4-.1.8-.1 1.2h7.2c-.1-.4-.1-.8-.1-1.2 0-4.5 3.6-8.1 8.1-8.1h2.3c4.5 0 8.1 3.6 8.1 8.1 0 .4-.1.8-.1 1.2h6.7c-.1-.5-.1-1-.1-1.4 0-2.5 1.2-4.9 3-6.4 1.5-1.8 4-3.1 6.6-3.1.5 0 1 .1 1.4.1v-9.1c-.4.1-.8.1-1.2.1-4.5 0-8.1-3.6-8.1-8.1v-2.3c0-4.5 3.6-8.1 8.1-8.1.4 0 .8.1 1.2.1v-7.2c-.4.1-.8.1-1.2.1-4.5 0-8.1-3.6-8.1-8.1v-2.3c0-4.5 3.6-8.1 8.1-8.1.4 0 .8.1 1.2.1v-7.2c-.4.1-.8.1-1.2.1-4.5 0-8.1-3.6-8.1-8.1v-2.3c0-4.6 3.7-8.2 8.2-8.2z"/><path fill="#53523E" d="M72.4 120.1H28.1V29.6h44.3V11h-3.8c-.6 3.9-3.9 7-8 7h-2.3c-4.1 0-7.4-3-8-7h-7.2c-.6 3.9-3.9 7-8 7h-2.3c-4.1 0-7.4-3-8-7H18c-.3 2.2-1.4 4.2-3 5.5-1.3 1.6-3.3 2.7-5.5 3v9c3.9.6 7 3.9 7 8v2.3c0 4.1-3 7.4-7 8V54c3.9.6 7 3.9 7 8v2.3c0 4.1-3 7.4-7 8v7.2c3.9.6 7 3.9 7 8V90c0 4.1-3 7.4-7 8v7.2c3.9.6 7 3.9 7 8v2.3c0 4.1-3 7.4-7 8v6.6c2.2.2 4.2 1.3 5.5 2.9 1.8 1.5 3 4 3 6.6 0 .5-.1 1-.1 1.4H27c-.1-.4-.1-.8-.1-1.2 0-4.5 3.6-8.1 8.1-8.1h2.3c4.5 0 8.1 3.6 8.1 8.1 0 .4-.1.8-.1 1.2h7.2c-.1-.4-.1-.8-.1-1.2 0-4.5 3.6-8.1 8.1-8.1h2.3c4.5 0 8.1 3.6 8.1 8.1 0 .4-.1.8-.1 1.2h1.5v-20.9z"/><path fill="#2C2E23" d="M115.3 110.2v-5.5L91.7 72.5c-.8-1-2.5-1-3.3 0L68.7 99.3 57.5 83.9c-.4-.5-1-.9-1.7-.9s-1.3.3-1.7.9l-25.2 34.4v.1h78.2c4.5 0 8.2-3.7 8.2-8.2zm-53.5-9l-2 1.1c-.5.3-1.1.2-1.6-.1l-2-1.4-2.1 1.4c-.3.2-.5.3-.8.3-.2 0-.5-.1-.7-.2l-2.2-1.2c-.4-.2-.7-.6-.8-1-.1-.4 0-.9.2-1.2l5-7c.3-.4.7-.7 1.3-.7.5 0 1 .2 1.3.7l5.1 7.2c.2.4.3.8.2 1.2-.3.3-.5.7-.9.9zm34.1-11.4l-2 1.1c-.5.3-1.1.3-1.6-.1l-2-1.4-2.1 1.4c-.3.2-.6.3-.9.3-.3 0-.5-.1-.7-.2l-2.3-1.2c-.4-.2-.7-.6-.8-1-.1-.4 0-.9.3-1.2l5-7c.3-.4.7-.6 1.3-.7.5 0 1 .2 1.3.6l5.1 7.1c.2.4.3.8.2 1.2-.1.5-.4.9-.8 1.1z"/></svg>