<svg xmlns="http://www.w3.org/2000/svg" viewBox="0 0 1500 1500"><path fill="#FFE800" d="M1331.6 725.9c41.9 34.6 41.9 34.6 0 0L652 165.5c-41.9-34.5-95-22.5-117.9 26.7l-388.5 835c-22.9 49.2 1.4 78.7 54.1 65.4L1312 812.9c52.7-13.3 61.5-52.4 19.6-87L652 165.5c-41.9-34.6-41.9-34.6 0 0l679.6 560.4z"/><path fill="#FBB1C2" d="M198.3 787.1c-50.7-19.4-50.7-19.4 0 0l822.9 314.2c50.8 19.4 97.2-8.9 103.2-62.9l101.7-915.3c6-54-26.5-74.1-72.2-44.8L189.1 698.5c-45.7 29.4-41.5 69.2 9.2 88.6l822.9 314.2c50.8 19.4 50.8 19.4 0 0L198.3 787.1z"/><path fill="#718F40" d="M388.5 617.4c-45.8 31.5-52 90.4-14 130.9l617.1 656.5c38 40.5 38 40.5 0 0L374.5 748.3c-38-40.5-38-40.5 0 0l617.1 656.5c38 40.5 61.4 28.8 52-25.9l-170-984.2C864.2 340 819 321 773.3 352.5L388.5 617.4z"/><path fill="#FFFFFE" d="M716.5 482.5c-106.6 0-193 86.4-193 193s86.4 193 193 193 193-86.4 193-193-86.4-193-193-193zm0 349.8c-86.6 0-156.8-70.2-156.8-156.8 0-86.6 70.2-156.8 156.8-156.8s156.8 70.2 156.8 156.8c0 86.6-70.2 156.8-156.8 156.8zm0-263c-58.6 0-106.2 47.5-106.2 106.1 0 58.6 47.5 106.1 106.2 106.1 58.6 0 106.1-47.5 106.1-106.1 0-58.6-47.5-106.1-106.1-106.1z"/></svg>