<svg xmlns="http://www.w3.org/2000/svg" width="100" height="100" viewBox="0 0 100 100"><radialGradient id="a" cx="43.251" cy="27.367" r="98.374" gradientUnits="userSpaceOnUse"><stop offset="0" stop-color="#5ba59b"/><stop offset="1" stop-color="#1c433f"/></radialGradient><path fill="url(#a)" d="M21.781 12.752c23.972 2.305 47.939 4.635 71.911 6.945-1.728 17.994-3.476 35.988-5.208 53.972-2.928-.273-5.856-.558-8.779-.836-.364 3.719-.714 7.437-1.084 11.16-3.369-4.073-6.713-8.161-10.076-12.229-5.334-.548-10.679-1.044-16.008-1.565.318-3.542.704-7.072.998-10.608 5.131.299 10.43-1.839 13.495-6.044 3.738-4.848 3.941-12.006.577-17.112-2.548-4.083-7.198-6.758-12.016-6.88-4.909-.208-9.844 2.168-12.721 6.155-3.283 4.347-3.647 10.37-1.52 15.305-1.682-.233-3.369-.386-5.056-.548.567-6.003 1.165-12.001 1.727-18.004-5.993-.578-11.985-1.135-17.979-1.743.595-5.987 1.172-11.975 1.739-17.968zm54.287 11.044c-1.271.557-1.08 2.188-1.217 3.323-.167.917.264 2.016 1.292 2.138 2.538.345 5.097.562 7.649.77.933.193 1.945-.415 2.012-1.408.137-1.287.78-3.136-.572-3.977-1.743-.542-3.607-.426-5.396-.679-1.25-.076-2.527-.425-3.768-.167z"/><g><radialGradient id="b" cx="43.251" cy="27.367" r="98.37" gradientUnits="userSpaceOnUse"><stop offset="0" stop-color="#5ba59b"/><stop offset="1" stop-color="#1c433f"/></radialGradient><path fill="url(#b)" d="M47.253 36.197c3.045-2.913 7.781-3.855 11.712-2.335 3.623 1.322 6.465 4.6 7.204 8.389.896 4.108-.75 8.612-4.048 11.216-2.27 1.945-5.304 2.528-8.217 2.584-.081.593-.146 1.186-.213 1.773.132-1.875.416-3.739.583-5.613-2.842-.273-5.669-.567-8.506-.811-.755-1.358-1.54-2.726-1.874-4.261-.937-3.9.395-8.231 3.359-10.942zm7.406-1.307c-.005.36-.01 1.089-.015 1.449 2.244.177 4.564.841 6.135 2.548 1.971 1.885 2.558 4.737 2.254 7.376.354.066 1.049.203 1.403.269.38-2.746-.116-5.689-1.915-7.873-1.833-2.451-4.873-3.632-7.862-3.769z"/></g><g><radialGradient id="c" cx="22.653" cy="23.01" r="106.657" gradientUnits="userSpaceOnUse"><stop offset="0" stop-color="#fff"/><stop offset="1"/></radialGradient><path fill="url(#c)" d="M42.871 35.711c2.877-3.987 7.812-6.363 12.721-6.155 4.817.122 9.468 2.797 12.016 6.88 3.364 5.106 3.161 12.265-.577 17.112-3.065 4.205-8.364 6.343-13.495 6.044.04-.593.091-1.181.156-1.768.066-.588.132-1.181.213-1.773 2.913-.056 5.947-.639 8.217-2.584 3.298-2.604 4.944-7.107 4.048-11.216-.739-3.789-3.581-7.067-7.204-8.389-3.931-1.52-8.667-.578-11.712 2.335-2.964 2.71-4.296 7.042-3.358 10.942.334 1.535 1.119 2.903 1.874 4.261-1.484-.086-2.953-.188-4.417-.385-2.129-4.934-1.765-10.957 1.518-15.304z"/><radialGradient id="d" cx="22.651" cy="23.011" r="106.662" gradientUnits="userSpaceOnUse"><stop offset="0" stop-color="#fff"/><stop offset="1"/></radialGradient><path fill="url(#d)" d="M11.204 71.197c1.16-11.996 2.305-23.992 3.48-35.983 5.988.588 11.986 1.15 17.969 1.758-.593 5.988-1.16 11.98-1.738 17.979 5.993.583 11.986 1.15 17.974 1.748-.573 5.982-1.165 11.966-1.727 17.953-6.419-.562-12.832-1.216-19.246-1.844-3.992 3.182-7.867 6.489-11.829 9.696.33-3.582.699-7.158 1.023-10.734-1.975-.187-3.941-.379-5.906-.573z"/></g></svg>