<svg xmlns="http://www.w3.org/2000/svg" viewBox="0 0 1500 1500"><path fill="#AFB2D6" d="M431.4 1124.9c9-.7 16.7 3.9 6.1-1.2-13.2-2.9-2.1 1.2-6.1 1.2zm98.5-552.7l12.6 1.1c-6.8-.8-13.5-2.4-20.4-2.5l7.8 1.4zm-279.2 409l12.3 18.6-1.5-2.9c-3.5-4.2-7.3-11.1-10.8-15.7zM295.2 657c-11.9 11.8-20.6 26-29.3 40.2l2-2.5c7.9-13.4 16.3-26.5 27.3-37.7zm467.6 125.5c6.5 29.5 5 10.3 7.5 14.8-1.7-7.6-4.6-15-7.4-22.2l5.1 16c1.2 18.7-2.4-2.2-5.2-8.6zm-5.9-29.2c-5-14.1-5.1-9.5-3.4-3.5 1 .7 5.1 9.6 3.4 3.5zM531.7 565.6c-8.2-.9-16.5-.3-24.8-.5 9.9 2.2 15.2.1 28.8 2.8l-4-2.3zM260.3 989.5l1.8 2.5-1.6-2.4-.2-.1zm37.9 21.5c-1.4-1.4-2.9-3.1-4.4-4.7 1.7 1.9 3.3 3.9 4.4 4.7zm468.1-121.3c-3.1 16.2-7.9 21.3-12.6 34.4l3.7-6.3c-5 21.6-5.8 14-9.9 31.2l-2.6-1.9c-1.2 6.1-8.9 19.5-12.6 24.6l-1.1 5.9c-8 11.4-13.4 18.6-17.7 20.7l2.4.1c-3.1 4.2-33.9 40.7-25.6 26.1-2.3 3.2-3.9 6.8-10.7 12.3l-2.3-.6c-8.5 9.1-19.7 17.7-23.2 18.9 5.1-4.4 6.4-6.5 7.6-8.5-42.8 29.9-4.6 12.9-45.4 36.5l-.1-1.4-10.2 6.4c-3.9 1.5-8.2 2.1-12.3 3.1-14 11.9-64 18.6-92.4 19.6-11.3-.1-26.1-2.2-47-5.8l1 2.1c-17.5-2.3-77.4-25.7-87.5-39.7-14.3-6.9 1.2 1.2.1 2.4-27.8-14.2-27-19.5-38.8-30.3-14.7-12.1 10.3 10.3 1.7 4.6-20.4-20.9-20-13.7-41.9-42.8-.3-.8-.1-.8.3-.5-16.7-20.8-35.4-55.6-43.3-86.9-11.5-41.8-11.8-107.9 7.9-154.7l-.4-1.1c10.3-18.2 16.1-40.5 31.8-59.5l-7.5 9.3c8.4-13.5 12.2-21.9 22.5-33l7.3-4.8c10.6-12.4 3.6-6.5 11-15.9 11.7-9.2 36-29.5 42.4-32.6 4.9-1.3-5 3.6-6.2 6.1 15.9-10.5 14.1-10.9 35.1-22.6l.6.3c50.5-28 128-33.8 189.7-14.9-4.1-1.7-3-1.5-4.5-2.4C643.1 606 705.2 661.4 734.8 708c-17.5-33.4-61.4-82.8-97.9-97.8-11.3-9-32.3-16-37-19.9-51.6-18.9-75.7-18.3-127.5-15.1-7.5.1-4-1.1-6.3-2 13.9-.7 27.8-3.4 41.8-2.6-8.5-1.1-17-.4-25.6-.3 11-2.6 38.1-.2 41.4-1.9-37.1-2.6-96.5 5.4-125 21.5 14.5-3.9 31.6-12.5 49.5-14.4 7.8-.7 19.7-2.6 19.1-1.1-49.5 9-89.5 25-130.4 55.9-10.3 7.8-23.9 18.8-25.4 20.3 5.6-6.4.6-2.4 5.1-7.8-12 13.9 1.2 3.9-17.1 22.9l-.2-4.8c-5.4 9.4-21.6 24.3-29.8 41.7-4.9 5 1.3-5.9 9.4-18.2-9.7 13.5-8.9 15.8-16.2 26.7l4.5-11.9C261 712 254.5 721 250.1 728c.3 1.2 5.3-4.7-2.1 11.4-3.5 6.8-2.6 3-3.7 4.5.4 1.2-1.9 7.2-4.2 18.7-1.5 1.8.6-8-.2-9-2.2 8.6-3.8 15.7-6.2 21.7-3.2 15.4 1.6-.7.2 8.9-6.8 23.1-3.9 1.6-8.2 9.9 3.8-17.9 7.8-41.7 11.8-50.8-5 10.8-6.1 22.9-9.4 34.3-.6-2.4-8 23-4.3 4.4-8.9 34.6-9.6 79-1.5 112.3-.3-4.9-1-11-.2-10.2 3.3 17.3 1.6 15.6 1.7 19.3 4 12.5 5.6 10.6 9 17.9 6.7 25.9 9.1 29 17 50.5l1.1-2.2c5.9 15.2 10.3 15.4 18.4 30.8.1 1.1-3.9-4.2-7.1-8.6 8.4 13 6.7 12.7 16.1 24.5l-9-8.3c7 10 19 23.1 13.7 19.4 15 15.2 42.3 40.6 65.6 53.4l-2.4.5c12.3 6 44 24.8 56.5 25.3l1.7 1.4c8.6 2.7 17.6 4.2 26.5 5.6 11.8 3.2 7.2 4.7 8.3 4.2 26.5 4.9 47.6 5.9 64.9 6.6 4.4-2.2 32.4-4.2 54.2-9.4 108.2-19 196.9-119.9 210.3-218.4 2.8-14.6 2.4-35.1 1.5-53.3-2 22.4-.1 24.7-3.8 46.4zm6.3-66.8l1.2 20.6c.3 8.4 1.8-2.6 1.7-12.2l-2.9-8.4zM263.9 997.4c-1.9-3.9-4.4-8.3-3.6-7.9-2.9-3.8-3.8-4.5 3.6 7.9zm25.5 3.7c1.5 1.9 3 3.6 4.4 5.2-1.8-2.3-3.6-4.5-4.4-5.2zM466 1127.5c10 2.6 10.6.5 16.3.4-7.7-.6-12 0-16.3-.4zM498.9 599c-135.1 0-244.6 109.5-244.6 244.6s109.5 244.6 244.6 244.6 244.6-109.5 244.6-244.6c0-135.2-109.6-244.6-244.6-244.6z"/><path fill="#FFFFFE" d="M489.5 1011.9v37.3c48.1 0 93.7-15.6 131.7-45l-22.9-29.5c-31.4 24.3-69 37.2-108.8 37.2zM667.2 834.2c0 33.3-9.3 65.8-26.8 94l31.7 19.8c21.3-34.1 32.5-73.4 32.5-113.7h-37.4z" opacity=".67"/><path opacity=".73" fill="#FFFFFE" d="M534.9 754.5c0 53.3-43.2 96.5-96.5 96.5s-96.5-43.2-96.5-96.5 43.2-96.5 96.5-96.5c53.3.1 96.5 43.2 96.5 96.5z"/><path fill="#FFFFFE" d="M488.2 686.1c0 23.2-18.8 42-42 42s-42-18.8-42-42 18.8-42 42-42c23.2-.1 42 18.8 42 42z"/><path fill="#8089BF" d="M956.4 459.6s-116.9 59.8-133.1 68.1c-16.8-10.9-347.5-225.6-347.5-225.6l-383.4 238v575.3c0 45.5 37 82.5 82.5 82.5H1360c45.5 0 82.5-37 82.5-82.5V939.5L956.4 459.6zm449.6 655.8c0 25.4-20.6 46-46 46H174.8c-25.4 0-46-20.6-46-46v-555c.8-.5 2.4-1.5 4.5-2.8 31.6-1.7 72.4 89 130.9 9.6 67.9-92.2 34.5 12.2 62.8-24.3 28.4-36.5 35.5-56.8 26.4-12.7-9.1 44.1 24.3 16.7 62.3-45.6s17.6 67.5 39.5 9.1c16.7-44.3 19.3-127.4 19.7-148.2.1-.1.3-.2.4-.2 18.4 11.9 345.8 224.5 345.8 224.5s94.6-48.4 123.2-63c-12.8 42.9-56.6 190.5-75.5 257.6-22.3 79.1 19.8.5 35-23.8s18.2 45.6 42.6-7.6c24.3-53.2 21.3-50.2 50.2-22.8 28.9 27.4-10.6-36.5 30.4-18.2 41.1 18.2 53.2 69.9 71.5 133.8 18.3 63.9-6.1-115.6 47.1-47.1 53.2 68.4-3.3 1.9 88.2 56.3 69.3 41.2 133.9 85.9 164.8 112.4 4.2 4.1 6.9 6.8 7.5 7.5-.1 13.7-.1 160.5-.1 160.5z"/></svg>