<svg xmlns="http://www.w3.org/2000/svg" viewBox="0 0 150 150"><path fill="#65A4AC" d="M129.9 34.4H16.4c-5.2 0-9.4 4.2-9.4 9.4v73.9c.6-1.4 1.5-2.7 2.9-3.7l23.2-16.6c2.2 5.1 5.5 9.7 9.6 13.4l-23.2 16.6c-1 .7-2.1 1.2-3.2 1.4H130c5.2 0 9.4-4.2 9.4-9.4V43.8c-.1-5.2-4.3-9.4-9.5-9.4zm-29 53.4c-3 18-20 30.1-38 27.1s-30.1-20-27.1-38 20-30.1 38-27.1 30.2 20 27.1 38zM125 54.4h-11.5c-3.4 0-6.2-2.8-6.2-6.2 0-3.4 2.8-6.2 6.2-6.2H125c3.4 0 6.2 2.8 6.2 6.2-.1 3.5-2.8 6.2-6.2 6.2z"/><g fill="#1C2939"><path d="M72.5 57.9C59.1 55.7 46.3 64.8 44 78.2c-2.3 13.5 6.9 26.2 20.3 28.5 13.5 2.3 26.2-6.9 28.5-20.3C95.1 73 86 60.2 72.5 57.9zm14.9 27.6l-5.4-.9c1.2-7.5-3.8-14.6-11.3-15.8l.9-5.4c10.5 1.7 17.6 11.7 15.8 22.1zM70.5 28.1c0-5.8-4.1-10.9-9.1-10.9H28.7c-5 0-9.1 5-9.1 10.9 0 .7.1 1.2.2 2.4h50.5c.2-1.1.2-1.6.2-2.4z"/></g></svg>