<svg xmlns="http://www.w3.org/2000/svg" viewBox="0 0 150 150"><path fill="#856BAE" d="M101.1 48c-24.3 0-44 19.7-44 44s19.7 44 44 44 44-19.7 44-44c0-24.2-19.7-44-44-44zm8 82.8c-.2 0-.3.1-.5.1 2.4-2.7 4.5-6.8 6.1-11.8 2.5-.6 4.9-1.3 7.2-2.1-3.2 6.4-7.7 11.3-12.8 13.8zM80.3 117c2.3.9 4.7 1.6 7.2 2.1 1.6 5 3.7 9 6.1 11.8-.2 0-.3-.1-.5-.1-5.1-2.5-9.5-7.4-12.8-13.8zm12.8-63.8c.2 0 .4-.1.5-.1-2.4 2.8-4.5 6.8-6.1 11.8-2.5.6-4.9 1.3-7.2 2.1 3.3-6.4 7.7-11.2 12.8-13.8zM121.9 67c-2.3-.9-4.7-1.6-7.2-2.1-1.6-5-3.7-9-6.1-11.8.2 0 .4.1.5.1 5.1 2.6 9.6 7.4 12.8 13.8zm-17.1 64.5c-.9.1-1.7.1-2.6.2v-11c3.4 0 6.7-.4 9.9-.9-1.9 5.5-4.5 9.7-7.3 11.7zm-14.7-11.9c3.2.6 6.5.9 9.9.9v11c-.9 0-1.7-.1-2.6-.2-2.8-1.8-5.3-6-7.3-11.7zm7.3-67c.9-.1 1.7-.1 2.6-.2v11c-3.4.1-6.7.4-9.9 1 2-5.6 4.5-9.8 7.3-11.8zm14.7 11.8c-3.2-.6-6.5-.9-9.9-1v-11c.9 0 1.7.1 2.6.2 2.8 2 5.4 6.2 7.3 11.8zm28.6 26.5h-11c-.1-3.4-.4-6.7-.9-9.9 5.6 2 9.8 4.5 11.8 7.3 0 .9.1 1.8.1 2.6zm-13.2 0h-9c0-4.5-.3-8.7-.9-12.7 3.1.5 6.1 1.2 8.8 2 .6 3.4 1 7 1.1 10.7zm-11.2 0h-14.1v-14c4.6.1 9 .4 13.1 1 .6 4.1.9 8.5 1 13zm-14.1-16.2v-9c3.7.1 7.3.5 10.7 1.1.8 2.7 1.5 5.6 2 8.8-4-.6-8.2-.9-12.7-.9zm-2.2-9v9c-4.5 0-8.7.3-12.7.9.5-3.1 1.2-6.1 2-8.8 3.4-.7 7-1 10.7-1.1zm0 11.2V91H86c.1-4.6.4-9 1-13.1 4-.6 8.4-1 13-1zm-16.2 14h-9c.1-3.7.4-7.3 1.1-10.7 2.7-.8 5.6-1.5 8.8-2-.6 4-.9 8.3-.9 12.7zm-11.2 0h-11c0-.9.1-1.7.2-2.6 2-2.8 6.2-5.3 11.8-7.3-.7 3.2-1 6.5-1 9.9zm-11.1 2.2h11c.1 3.4.4 6.7.9 9.9-5.6-2-9.8-4.5-11.8-7.3 0-.8 0-1.7-.1-2.6zm13.3 0h9c0 4.5.3 8.7.9 12.7-3.1-.5-6.1-1.2-8.8-2-.7-3.4-1.1-7-1.1-10.7zm11.2 0h14v14.1c-4.6-.1-9-.4-13.1-1-.6-4.1-.9-8.5-.9-13.1zm14 16.3v9c-3.7-.1-7.3-.4-10.7-1.1-.8-2.7-1.5-5.6-2-8.8 4 .5 8.3.9 12.7.9zm2.2 9v-9c4.5 0 8.7-.3 12.7-.9-.5 3.1-1.2 6.1-2 8.8-3.4.6-7 1-10.7 1.1zm0-11.2V93.1h14.1c0 4.6-.4 9-1 13.1-4.1.6-8.5.9-13.1 1zm16.3-14.1h9c-.1 3.7-.4 7.3-1.1 10.7-2.7.8-5.6 1.5-8.8 2 .5-3.9.8-8.2.9-12.7zm11.2 0h11c0 .9-.1 1.7-.2 2.6-2 2.8-6.2 5.4-11.8 7.3.6-3.1.9-6.5 1-9.9zm10.3-8.5c-2.7-2.4-6.8-4.5-11.8-6.1-.6-2.5-1.3-5-2.1-7.2 6.4 3.2 11.3 7.7 13.8 12.8 0 .1.1.3.1.5zm-14.2-6.9c-2.6-.7-5.5-1.4-8.6-1.8-.5-3-1.1-5.9-1.8-8.6 2.8.7 5.4 1.5 7.8 2.6 1.1 2.5 1.9 5.1 2.6 7.8zm-39-10.4c-.7 2.6-1.4 5.5-1.8 8.6-3 .5-5.9 1.1-8.6 1.8.7-2.8 1.5-5.4 2.6-7.8 2.4-1 5.1-1.9 7.8-2.6zM74 78.5c-5 1.6-9 3.7-11.8 6.1 0-.2.1-.4.1-.5 2.5-5.1 7.4-9.6 13.8-12.8-.8 2.2-1.5 4.6-2.1 7.2zm-11.8 21c2.8 2.4 6.8 4.5 11.8 6.1.6 2.5 1.3 4.9 2.1 7.2-6.4-3.2-11.3-7.7-13.8-12.8 0-.2 0-.3-.1-.5zm14.2 6.8c2.6.7 5.5 1.4 8.6 1.8.5 3 1.1 5.9 1.8 8.6-2.8-.7-5.4-1.5-7.8-2.6-1-2.4-1.9-5-2.6-7.8zm39 10.4c.7-2.6 1.4-5.5 1.8-8.6 3.1-.5 5.9-1.1 8.6-1.8-.7 2.8-1.5 5.4-2.6 7.8-2.4 1.1-5 1.9-7.8 2.6zm12.8-11.1c5-1.6 9-3.7 11.8-6.1 0 .2-.1.4-.1.5-2.5 5.1-7.4 9.6-13.8 12.8.8-2.3 1.6-4.7 2.1-7.2zm9.7-28.3c-3.3-3.6-7.7-6.7-13-9-2.3-5.3-5.4-9.7-9-13 9.9 4 17.9 12 22 22zm-51.5-22c-3.6 3.3-6.7 7.7-9 13-5.3 2.3-9.7 5.4-13 9 4-10 12-18 22-22zm-22 51.5c3.3 3.6 7.7 6.7 13 9 2.3 5.2 5.4 9.7 9 13-10-4.1-18-12-22-22zm51.5 22c3.6-3.3 6.7-7.7 9-13 5.3-2.3 9.7-5.4 13-9-4.1 10-12.1 17.9-22 22z"/><path fill="#00A87B" d="M100.9 34.9c9 .6 18.1-.1 27.1.3 4.4-.1 8.6 3.6 8.9 8.1.3 3.9.1 7.9.1 11.9-9.6-8.2-22-13.2-34.7-12.7-4.5.1-9.1 1.3-13.3-.8-16.3-6.3-36.1-.4-46.5 13.7-1.6-3.8-4.9-7.7-9.5-6.6-5.8.9-8.1 7.8-5.3 12.6-8-.1-16 0-24-.1.1-5.9-.2-11.7.1-17.6.1-4.4 3.8-8.3 8.2-8.5 11-.4 22 .3 33-.3 3.8 0 8-2.3 7.8-6.6.6-3.1-.2-8.6 4.5-8.6 9.9-.2 19.8-.2 29.8 0 4.3.2 3.2 5.5 4.2 8.4.4 4.8 5.6 6.5 9.6 6.8zm-33.1-9c-4.2.3-4.3 7.7-.2 8.2 4 .4 8.2.4 12.2 0 3.9-.4 4.3-6.7.8-8.1-4.1-.7-8.5-.5-12.8-.1z"/><path fill="#00A87B" d="M79.6 47.3c-9.6-1-19.7 1.7-26.7 8.5-9.5 8.3-13.3 22.3-9.4 34.3 1.2 3.5 3.1 6.6 4.4 10l2.7 1.5c-.3-1.2-.7-2.4-1.2-3.6-1.5-21 11.3-41.5 30.2-50.7zM37 59.3c.5-2.5.3-6.5-3.2-5.9-3.2.3-2.4 3.8-2.1 6 1.8 0 3.6-.1 5.3-.1z"/></svg>