<svg xmlns="http://www.w3.org/2000/svg" viewBox="0 0 1500 1500"><path fill="none" d="M548 594h14.2c-5.3-3-10.2-7.2-14.2-11.6V594zM1028.7 651c-6.4 0-11.5 4.8-11.5 10.6 0 5.9 5.1 10.6 11.5 10.6s11.5-4.7 11.5-10.6c.1-5.8-5.1-10.6-11.5-10.6zM1127.5 599.7c-4 2.1-8.8 3.9-14.8 5.2 10.3 5.8 19 13.6 25.5 22.8 31.6-5.1 100.8-19.1 121.4-46.5 0 0-91.2 30.2-132.1 18.5zM96.5 419.1s44.7 23.7 61.1 34.6c41 14.3 85 23.2 103.3 26.6-3.8-10.2-.3-18.8-.3-18.8-48.4-2.6-84.4-12-110.9-23.8-23.6-6.3-53.2-18.6-53.2-18.6zM340.5 570.6c-13.2-8.4-14.9-20.1-14.9-25.6-17.4-2.9-26.7-9.5-31.7-16.4-54.7 6.5-161.4-46.6-161.4-46.6 21.5 40.2 111.6 70.8 148.4 81.8 25.1 3.9 47.4 5.9 59.6 6.8zM1204.2 521.6c-5 6.8-14.4 13.3-31.9 16.2 0 5.4-1.7 17-15 25.3 12.2-.9 34.7-2.9 60-6.7 37.1-10.9 127.8-41.1 149.4-80.8 0 0-107.4 52.4-162.5 46z"/><path fill="none" d="M337.8 464.8c6.3 13.3 21.3 17.1 21.3 17.1-18.5-3.6-23.2-11.5-24-17.2-23.5-.9-48.4-1.8-74.5-3.1 1.6 7.9 4.6 14.6 8.4 20.2.4.1.6.1.6.1-.2.1-.3.1-.5.1 14 20.7 38.4 27.1 38.4 27.1-28.5-5.6-40.6-16.2-45.4-26-55.1 5.6-160.2-46.9-160.2-46.9 19.3 36.3 94.5 64.8 136.1 78.2 23.5 6 43.8 9.9 54.4 11.9-5.2-9-3.8-17.6-3.8-17.6 8.2 19.5 24.4 29.1 37.2 33.7v-.3c.1.1.1.3.2.4 10.3 3.7 18.3 4.2 18.3 4.2-6.4 0-11.9-.6-16.9-1.3 15.9 32 54.2 34.7 54.2 34.7-17-.1-28.8-3.1-37.1-7.1-49.7 11.5-154.7-27-154.7-27 19.3 27.6 77.3 45.4 118.3 54.9 25.9 3.7 49.5 5.1 59.8 5.6-18.2-11.3-15-28.9-15-28.9 11 26.3 36.6 34.6 48.9 37 10.6-9.3 24.1-16 39.1-19.1-19.1-5.3-24.4-14.6-25.4-21.6-28.7-9.8-20.9-29.3-20.9-29.3 2.8 14.4 12.7 22.8 20.7 27.4-.2-4.1 1-7.1 1-7.1.7 3.3 1.7 6.4 3 9.1 4.2 1.9 7.1 2.7 7.1 2.7-2.3-.4-4.5-1-6.5-1.5 5.9 11.1 16.1 17.2 22.5 20 5.3-.9 10.8-1.3 16.4-1.3H488v-23h54.8c-10.9-12-17.2-29.5-17.2-51.3.1-50-76.7-50.7-187.8-54.8zm17.2 17.1c4.9 25.3 31.8 32.2 31.8 32.2-41.6-8.1-31.8-32.2-31.8-32.2zm16.2 28.8c4.9 25.3 31.8 32.2 31.8 32.2-41.6-8-31.8-32.2-31.8-32.2zM1138.7 475.5s15.1-3.8 21.4-16.9c-111.8 4-189.1 7.7-189.1 57.2 0 38.4-25.6 66.2-61 78.2h38c2.3 0 35.1-35 69.2 0h52.1c14.3 0 27.7 3.2 39.3 8.9 12.7-4.8 28.2-14.2 36.2-32.9 0 0 3.2 17.4-15.1 28.5 10.4-.5 34.1-1.8 60.2-5.6 41.3-9.3 99.7-26.9 119.1-54.1 0 0-105.7 38-155.8 26.4-8.3 4.1-20.2 6.9-37.3 7.1 0 0 38.5-2.6 54.5-34.3-5.1.7-10.6 1.2-17 1.3 0 0 8.1-.6 18.5-4.2.1-.2.1-.3.2-.4v.3c12.9-4.6 29.2-14 37.5-33.3 0 0 1.5 8.5-3.8 17.4 10.7-1.9 31-5.8 54.7-11.7 41.8-13.2 117.6-41.4 137-77.2 0 0-105.9 51.9-161.2 46.4-4.9 9.7-17 20.2-45.7 25.7 0 0 24.5-6.3 38.6-26.7-.2 0-.3-.1-.5-.1 0 0 .2-.1.6-.1 3.8-5.6 6.9-12.2 8.4-20-26.2 1.4-51.3 2.2-74.9 3.1-.7 5.6-5.4 13.4-24.1 17zm-56.9 90.9c-1.2 7.6-7.6 18.2-32.8 23 0 0 19.4-4.9 28.3-21.6-2 .6-4.2 1.1-6.5 1.5 0 0 3-.8 7.2-2.7 1.3-2.7 2.4-5.7 3.1-9 0 0 1.1 2.9.9 7 8.1-4.6 18-12.9 20.8-27.1.1-.1 7.9 19.2-21 28.9zm12.6-30.6s27.1-6.8 32-31.8c.1-.1 9.9 23.8-32 31.8zm16.4-28.5s27.1-6.8 32-31.8c0 0 9.8 23.8-32 31.8z"/><path fill="none" d="M1341.5 447.6c16.4-10.8 61.5-34.1 61.5-34.1s-29.8 12.1-53.5 18.4c-26.8 11.7-62.9 20.9-111.6 23.5 0 0 3.5 8.5-.3 18.6 18.3-3.4 62.6-12.2 103.9-26.4z"/><path fill="#7AA9D1" d="M672.4 953l-.1 1.2 39.1-61.2H605.9c-8.8 12-13.7 39-13.7 61.2 0 31.1 9.7 59.5 26.4 84.1l53.8-85.3zM784 1115.2c58.5-5.7 108.4-38.2 134.8-84.2H730.5l53.5 84.2zM718.9 882h79l-52.2-84.5C687.5 803.6 638.1 835 612 882h106.9zM626.5 1048.4c31.6 39.1 82.1 64.5 139.1 64.5 1.4 0 2.8-.1 4.2-.1L677.7 968l-51.2 80.4zM924.9 1016c9-19.4 14.1-40.7 14.1-63.2 0-30.4-9.2-58.8-25.1-83L823 1016h101.9zM853.3 943.7l52.7-84.8c-31.5-40.1-82.6-66.1-140.4-66.1-2 0-3.9.1-5.8.1L843 927.3l10.3 16.4zM959 651h35v23h-35z"/><path fill="#7AA9D1" d="M458.9 1077h65.3l.1 2.7c6.8 8.9 14.2 18.6 22.3 26.6 36.4 36.2 85.2 63.6 142 74.7 113.5 22.3 225-23.9 281.9-108.1-.5.7-1.1 1.4-1.6 2.1-56.1 70.6-155.2 108.2-255.8 88.4-114.7-22.5-194.8-112.1-200.1-213.2-1-18.8.6-37.9 5-57.1 28.2-122.6 161.4-200.4 297.4-173.7 20.2 4 39.3 10 57.1 17.9-23-11.8-48.4-20.7-75.5-26-103-20.2-204.3 16.2-264.8 86-6.6 7.6-12.6 15.8-18.2 24.2-9.9 15-18.2 25.5-24.4 48.5H407v165.2c0 25.9 22.3 41.8 51.9 41.8z"/><path fill="#5D6E7F" d="M764.3 686c156.3 0 283 116.4 283 259.9 0 143.6-126.7 259.9-283 259.9-23.2 0-45.8-2.6-67.3-7.5 28.3 8.1 58.4 12.5 89.6 12.5 165.5 0 299.7-123.2 299.7-275.2S952.1 660.3 786.6 660.3c-121.1 0-225.3 66-272.6 161 5.6-8.4 11.6-16.4 18.2-24C583.3 730 668.2 686 764.3 686zM1082 564.5c.2-4.1-.9-7-.9-7-.7 3.3-1.7 6.3-3.1 9-4.2 1.9-7.2 2.7-7.2 2.7 2.3-.4 4.5-1 6.5-1.5-8.9 16.7-28.3 21.6-28.3 21.6 25.2-4.8 31.6-15.3 32.8-23 28.9-9.7 21-28.9 21-28.9-2.7 14.2-12.7 22.5-20.8 27.1z"/><path fill="#5D6E7F" d="M713 1163.6c100.7 19.7 199.7-17.8 255.8-88.4 24.7-35.4 39.2-77.5 39.2-122.7 0-125.6-110.9-227.4-247.6-227.4-135.9 0-246.2 100.6-247.5 225.2 5.4 101.2 85.4 190.8 200.1 213.3zm52.6-50.8c-57 0-107.5-25.4-139.1-64.5l51.2-80.5 92.1 144.8c-1.4.2-2.8.2-4.2.2zm18.4 2.4l-53.5-84.2h188.3c-26.4 46-76.2 78.4-134.8 84.2zm155-162.4c0 22.5-5 43.8-14.1 63.2h-102l90.9-146.2c16 24.3 25.2 52.6 25.2 83zm-173.4-160c57.7 0 108.9 26.1 140.4 66.1l-52.7 84.8-10.3-16.4L759.8 793c1.9-.1 3.9-.2 5.8-.2zm-19.9 4.7l52.2 84.5H612c26.1-47 75.5-78.4 133.7-84.5zM605.9 893h105.4l-39.1 61.2.1-.5-53.8 84.3c-16.7-24.6-26.4-52.5-26.4-83.6.1-22.3 5-49.4 13.8-61.4zM465 640h34v23h-34zM727.3 617l-.7 2-13.1 21h69l-4.4-21.3-.2-1.7zM355 481.9s-9.8 24.2 31.8 32.2c0 0-26.9-6.9-31.8-32.2z"/><path fill="#5D6E7F" d="M371.2 510.7s-9.8 24.2 31.8 32.2c0 0-26.9-6.9-31.8-32.2zM1110.8 507.3c41.9-8 32-31.8 32-31.8-4.9 24.9-32 31.8-32 31.8z"/><path fill="#5D6E7F" d="M1094.4 535.8c41.9-7.9 32-31.8 32-31.8-4.9 24.9-32 31.8-32 31.8z"/><path fill="#5D6E7F" d="M1422.9 390c-4.3 7.9-31.3 20.1-42.4 24.8 35-24.1 42.4-49.9 42.4-49.9-54.4 80.4-277.7 80.4-386.5 75.4-108.9-5-141.6 40.2-119.8 100.5 18.5 51.1-47.5 55.3-68.1 54.7L807.1 559H694.3l-40.7 35h-59.4c-14-12-23.7-19.6-14.4-45.8 21.6-61.1-10.8-106.9-119-101.9-108.2 5.1-330 5.1-384.1-76.4 0 0 7.4 26.1 42.1 50.5-11-4.8-37.8-17.1-42.1-25.1 0 0-3.4 10.6 11.6 25.7 2 7.2 8.6 24.1 29.8 42.7.8 5 12.8 62.3 130.6 94.1-28.7-6.2-56.9-15-74.5-27.6 0 0 7.1 28.4 53.8 51.4 7.9 14.5 38.9 53.1 147.3 56.7 0 0-109.6-13.1-136.5-49.4 0 0 90.6 30.6 131.2 18.7 7.1 3.8 14.7 6.7 28.6 7.5-14.5 13.1-25.8 31-25.8 50.8v369.2c0 39.9 41 76.8 85.9 76.8h87.7c-8-12-15.5-21.2-22.3-30.1-.1-.1-.1-4.9-.1-4.9h-65.3c-29.6 0-51.9-15.9-51.9-41.8V666c0-25.8 22.3-49 51.9-49H676l25.8-23.5.9 2.3 5.1-1.7h86.7l5.3 2.3 2-.5 26.1 21.3h241.5c26.9 0 49.3 16.6 53.1 39.1-3.2-9.9-14.4-28.1-54.1-28.1H867v25.9s242 53.3 253 223.1v158.2c0 25.8-21 41.8-50.6 41.8h-5.7c-5.5 12-11.5 23-17.9 35h23.6c44.8 0 85.6-36.9 85.6-76.8V666c0-13.5-6.4-26.1-13.7-36.9 95.4-6.7 122.8-41.5 130.3-55.1 47.1-22.7 53.6-50.7 53.6-50.7-17.7 12.4-46.4 21.1-75.2 27.3 118.6-31.5 130.5-88 131.4-92.9 21.3-18.4 28-35.1 30-42.1 15-15 11.5-25.6 11.5-25.6zM132.5 482s106.8 53.2 161.4 46.6c5 6.9 14.3 13.5 31.7 16.4 0 5.5 1.6 17.2 14.9 25.6-12.2-.9-34.5-2.9-59.6-6.9-36.8-11-127-41.5-148.4-81.7zM488 571v23h-29.1c-5.6 0-11.1.4-16.4 1.3-6.4-2.7-16.7-8.8-22.5-19.9 2 .5 4.2 1 6.5 1.5 0 0-3-.8-7.1-2.7-1.3-2.7-2.4-5.8-3-9.2 0 0-1.2 2.9-1 7.1-8-4.6-17.9-13.1-20.7-27.4 0 0-7.8 19.5 20.9 29.3 1 6.9 6.2 16.2 25.4 21.6-15 3.1-28.5 9.8-39.1 19.1-12.3-2.5-37.9-10.7-48.9-37 0 0-3.2 17.7 15 28.9-10.3-.5-33.9-1.9-59.8-5.6-41-9.5-99.1-27.2-118.3-54.9 0 0 105.1 38.5 154.8 26.8 8.3 4.1 20 7 37.1 7.1 0 0-38.3-2.7-54.2-34.7 5 .7 10.5 1.3 16.9 1.3 0 0-8.1-.6-18.3-4.2-.1-.1-.1-.3-.2-.4v.3c-12.9-4.7-29-14.2-37.2-33.7 0 0-1.5 8.6 3.8 17.6-10.6-1.9-30.9-5.9-54.4-11.9-41.6-13.4-116.8-41.9-136.1-78.2 0 0 105.1 52.5 160.2 46.9 4.8 9.8 16.9 20.5 45.4 26 0 0-24.4-6.3-38.4-27.1.2-.1.3-.1.5-.1 0 0-.3 0-.6-.1-3.8-5.6-6.8-12.3-8.4-20.2 0 0-3.5 8.6.3 18.8-18.3-3.4-62.3-12.4-103.3-26.6-16.4-10.9-61.1-34.6-61.1-34.6s29.6 12.3 53.2 18.7c26.6 11.8 62.5 21.2 110.9 23.8 26.1 1.4 51 2.3 74.5 3.1.8 5.7 5.5 13.6 24 17.2 0 0-15-3.9-21.3-17.1 111.1 4.1 187.9 4.9 187.9 55 0 21.8 6.3 39.3 17.2 51.3H488zm60 23v-11.6c4 4.4 8.9 8.6 14.2 11.6H548zm446 80h-35v-23h35v23zm34.7-1.8c-6.4 0-11.5-4.7-11.5-10.6 0-5.9 5.1-10.6 11.5-10.6s11.5 4.8 11.5 10.6c.1 5.9-5.1 10.6-11.5 10.6zm109.5-44.5c-6.5-9.2-15.2-16.9-25.5-22.8 5.9-1.3 10.8-3.1 14.8-5.2 40.9 11.7 132.1-18.5 132.1-18.5-20.6 27.4-89.8 41.4-121.4 46.5zm79.2-71.4c-25.3 3.9-47.7 5.8-60 6.7 13.3-8.3 15-19.8 15-25.3 17.5-2.9 26.9-9.4 31.9-16.2 55.1 6.4 162.5-46.1 162.5-46.1-21.7 39.8-112.4 70-149.4 80.9zm20.4-100.9c-1.5 7.8-4.6 14.4-8.4 20-.4.1-.6.1-.6.1.1 0 .3.1.5.1-14.1 20.5-38.6 26.7-38.6 26.7 28.7-5.5 40.8-16 45.7-25.7 55.4 5.5 161.2-46.4 161.2-46.4-19.4 35.8-95.2 64-137 77.2-23.7 5.9-44 9.8-54.7 11.7 5.3-8.9 3.8-17.4 3.8-17.4-8.2 19.3-24.5 28.7-37.5 33.3v-.3c-.1.1-.1.2-.2.4-10.3 3.6-18.5 4.2-18.5 4.2 6.4 0 12-.6 17-1.3-16 31.6-54.5 34.3-54.5 34.3 17.1-.1 29-3 37.3-7.1 50.1 11.5 155.8-26.4 155.8-26.4-19.4 27.3-77.8 44.8-119.1 54.1-26.1 3.7-49.8 5.1-60.2 5.5 18.3-11.1 15.1-28.5 15.1-28.5-8 18.7-23.5 28.2-36.2 33-11.7-5.7-25.1-8.9-39.3-8.9h-52.1c-34.1-35-66.9 0-69.2 0h-38c35.4-12 61-39.8 61-78.2 0-49.5 77.2-53.1 189.1-57.2-6.3 13.1-21.4 16.9-21.4 16.9 18.7-3.6 23.4-11.4 24.2-17 23.5-.9 48.6-1.8 74.8-3.1 48.8-2.5 84.9-11.8 111.6-23.4 23.7-6.3 53.5-18.4 53.5-18.4s-45 23.4-61.5 34.1c-41.3 14.1-85.6 23-104 26.3 3.9-10.1.4-18.6.4-18.6z"/></svg>