<svg xmlns="http://www.w3.org/2000/svg" viewBox="0 0 1500 1500"><path fill="#F10F83" d="M209.3 1162h133.9c-47.6-46-43.2-102.2-43.2-102.2V262.3C300 188 352.4 156 394.1 133H209.3c-43.2 0-82.3 37.1-82.3 80.3v870.9c0 43.3 39.1 77.8 82.3 77.8z"/><path fill="#EA6847" d="M1304.8 167h-871c-43.2 0-75.8 37.9-75.8 81.2v133.9c47-47.6 100.3-41.1 100.3-41.1h797.6c74.3 0 109.2 50.2 132.2 91.9V248.2c-.1-43.3-40.1-81.2-83.3-81.2z"/><path fill="#6CAB36" d="M1265 387h-133.9c47.6 58 36.9 105.2 36.9 105.2v797.5c0 74.3-46 115.2-87.7 126.2H1265c43.2 0 76-34.1 76-77.3V467.8c0-43.3-32.8-80.8-76-80.8z"/><path fill="#A773B4" d="M1122 1294v-133.9c-47 47.6-101.1 36.8-101.1 36.8H223.4c-74.3 0-108.4-46-131.4-87.7V1294c0 43.3 39.2 76 82.5 76h870.9c43.3 0 76.6-32.7 76.6-76z"/><path fill="#655B58" d="M816.1 756.4c0-120.2-97.5-217.7-217.7-217.7-120.3 0-217.7 97.5-217.7 217.7 0 120.3 97.5 217.7 217.7 217.7 120.2.1 217.7-97.4 217.7-217.7z"/></svg>