<svg xmlns="http://www.w3.org/2000/svg" viewBox="0 0 150 150"><path fill="#7B7849" d="M85.1 91.2L115 61.3l11.3 11.3L104 95l-3.9-3.9 18.6-18.6-3.6-3.6-22.4 22.4 11.1 11.1 29.9-29.9-29.9-29.9 3.7-3.7 33.7 33.7-37.4 37.4-18.7-18.8z"/><path fill="#B0AE92" d="M56.3 83l29.9 29.9-11.3 11.3-22.4-22.4 3.9-3.9L75 116.5l3.6-3.6-22.5-22.3L45 101.7l29.9 29.9 29.9-29.9 3.7 3.7-33.7 33.7-37.4-37.4L56.3 83z"/><path fill="#E7D79C" d="M64.4 54.1L34.6 84 23.2 72.6l22.4-22.4 3.9 3.9-18.7 18.6 3.6 3.6L56.8 54 45.7 42.9 15.8 72.8l29.9 29.9-3.7 3.7L8.3 72.8l37.4-37.4 18.7 18.7z"/><path fill="#7A90AA" d="M93.3 62.3L63.5 32.4l11.3-11.3 22.4 22.4-3.9 3.9-18.6-18.7-3.6 3.6 22.4 22.4 11.1-11.1-30-29.9-29.9 29.9-3.7-3.8L74.6 6.2 112 43.6 93.3 62.3z"/></svg>