<svg xmlns="http://www.w3.org/2000/svg" viewBox="0 0 150 150"><path fill="#49C6F3" d="M28.3 84c-10.3 20 .7 38.8 14.9 52.3-16.2-8.1-28.9-23-33.8-41.9-9-34.8 12-70.2 46.8-79.2 2.5-.6 5-1.1 7.5-1.5C71.5 22.8 37 66.9 28.3 84z"/><path fill="#4B4644" d="M66.5 34.2c-20-10.2-38.8.7-52.3 14.9 8.1-16.2 23-29 41.9-33.8 34.8-9 70.2 12 79.2 46.8.7 2.5 1.1 5 1.5 7.5-9 7.8-53.2-26.7-70.3-35.4z"/><path fill="#49C6F3" d="M116.4 72.4c10.2-20-.7-38.8-14.9-52.3 16.2 8.1 28.9 23 33.8 41.9 9 34.8-12 70.2-46.8 79.2-2.5.6-5 1.1-7.5 1.5-7.9-9 26.6-53.2 35.4-70.3z"/><g fill-rule="evenodd" clip-rule="evenodd"><path fill="#49C6F3" d="M47.9 82.8c8.7 5.6 17.8 5.1 27.5 3.3-1.8 4.5-4.6 7.9-8 10.8-5.2 4.4-6.9 4.3-11.9-.3-4.2-3.7-6.8-8.4-7.6-13.8M63.7 77.3c-4.3-5.6-6.3-11.5-6.4-18.1 0-.5.6-1.3 1.2-1.6 6.1-3.8 12.7-4.9 20.4-3-8.6 5.5-12.2 13.7-15.2 22.7"/><path fill="#4B4644" d="M55.5 59.9c-.1 10.2 4.8 17.8 11.3 25-6.8.7-12.8-.6-18.4-3.9-.5-.3-1-1.1-1.1-1.7-.1-7.4 2.2-13.9 8.2-19.4"/><path fill="#49C6F3" d="M88.7 96.3c.1-5.3-1-9.7-3.5-13.7-2.4-3.7-5.1-7.2-7.9-11.1 6.5-.7 12.4.4 18 3.6.5.3 1 1.1 1 1.7.4 7.4-1.9 13.7-7.6 19.5"/><path fill="#4B4644" d="M95.2 72.5c-9-5.1-17.8-3.7-27.1-1.3 2.7-6.7 6.7-11.4 12.3-14.8.4-.2 1.1-.2 1.5 0 6.6 3.2 10.8 8.4 13.3 16.1M64.6 101.7c8.9-4.8 12.6-12.8 15.8-21.8 4.1 5.7 5.7 11.5 5.7 17.7 0 .4-.4 1-.8 1.3-6.2 3.9-12.9 5.1-20.7 2.8"/></g><g><path fill="#4B4644" d="M78.2 121.7c20 10.2 38.8-.7 52.3-14.9-8.1 16.2-23 29-41.9 33.8-34.8 9-70.2-12-79.2-46.8-.7-2.5-1.1-5-1.5-7.5 9-7.8 53.2 26.7 70.3 35.4z"/></g></svg>