<svg xmlns="http://www.w3.org/2000/svg" viewBox="0 0 1500 1500"><path fill="#FFAF3A" d="M739.8 473.9c30.5 0 59.9 4.6 87.6 13 62.1-226.7-88.5-404.8-88.5-404.8C617 238.5 617.1 383 647.6 488.3c29.1-9.3 60.1-14.4 92.2-14.4z"/><path fill="#718F40" d="M482.8 616.9c32.1-51.4 79.1-92.5 134.9-117.2-98-214.2-328.3-254-328.3-254 7.3 199.8 101.6 310.5 193.4 371.2z"/><path fill="#27628E" d="M440.2 819.7c-2-14.1-3.1-28.4-3.1-43 0-47.3 10.9-92.2 30.4-132.1-213.7-103.2-417.2 15.3-417.2 15.3C185.5 809.8 330.5 833 440.2 819.7z"/><path fill="#B85856" d="M536.5 1000.7c-43.6-39.6-75.6-91.7-90.3-150.5C213.8 907.3 133.4 1131 133.4 1131c201.5 28.1 327.8-48.8 403.1-130.3z"/><path fill="#97A822" d="M499.8 1438.4c172.7-108.2 220-248.5 225.2-359.4-61.4-3-118.1-24.4-164.6-58.7-143.4 193.6-60.6 418.1-60.6 418.1z"/><path fill="#00A9DE" d="M755.8 1079c14.5 240.6 222.3 359.5 222.3 359.5 62.5-193.1 9.2-330.6-57.7-419-46.4 34.6-103.1 56.3-164.6 59.5z"/><path fill="#E65F54" d="M1034.1 847.8c-14.4 59.4-46.2 112-89.8 152 165.7 173.6 400.3 131.2 400.3 131.2-75.6-186.3-203.1-257.9-310.5-283.2z"/><path fill="#C652B4" d="M1010.5 641.2c20.5 40.8 32.1 86.8 32.1 135.5 0 13.7-1 27.1-2.8 40.4 236.7 24.5 387.8-157.1 387.8-157.1-176-93.4-318.7-67.6-417.1-18.8z"/><path fill="#F10F83" d="M994.7 613.5c194.5-133.7 193.7-367.8 193.7-367.8-193.7 41.4-286.5 151.9-330.8 252 56.5 24 104.2 64.7 137.1 115.8z"/><path fill="#515254" d="M922.7 975.2c38.4-35.3 66.4-81.6 79.3-133.8 2.4-9.5 4.2-19.2 5.5-29 1.6-11.7 2.4-23.6 2.4-35.8 0-43.1-10.2-83.8-28.2-120-4.4-8.8-9.3-17.4-14.6-25.6-29.2-45.4-71.5-81.6-121.7-103-9-3.9-18.3-7.2-27.8-10.1-24.7-7.4-50.8-11.5-77.9-11.5-28.3 0-55.8 4.4-82 12.7-9.4 3-18.6 6.5-27.6 10.5-30 13.3-57.5 32.1-81.4 56-14.8 14.8-27.5 30.9-38.3 48.2-5.2 8.4-10 17-14.3 25.8-17.3 36-26.5 75.8-26.5 116.9 0 12.9 1 25.6 2.7 38 1.4 9.9 3.3 19.6 5.7 29.1 13.2 51.7 41.4 97.4 79.7 132.4 7.3 6.7 15 12.9 23 18.7 41 30 90.7 48.7 144.5 51.6 4.8.3 9.6.4 14.5.4 5.1 0 10.2-.2 15.2-.5 54-3 103.8-21.9 144.8-52.2 8.1-5.8 15.7-12.1 23-18.8zM872 965c-32.9 23.2-72.2 37.8-114.7 41.1-5.8.4-11.6.9-17.5.9-5.8 0-11.5-.5-17.1-.9-42.3-3.1-81.5-17.6-114.4-40.5-9.5-6.6-18.4-13.9-26.7-21.9-29.7-28.2-51.9-64.2-63.3-104.8-3-10.9-5.3-22.1-6.8-33.6-1.2-9.4-2-18.9-2-28.7 0-34 7.5-66.1 20.7-95.1 4.6-10.2 10-20 16-29.3 23.4-36.3 56.7-65.5 96.1-84 10-4.7 20.2-8.8 30.9-12 21.1-6.3 43.4-9.8 66.5-9.8 21.8 0 42.7 3.2 62.7 8.9 10.6 3 21 6.7 30.9 11.1 40.1 17.9 74.2 46.8 98.3 83.1 6.1 9.2 11.4 19 16.2 29.1 14.1 29.8 22.2 63 22.2 98.1 0 9.1-.7 18.1-1.7 27-1.3 11.3-3.6 22.3-6.5 33-11.1 41.2-33.3 77.8-63.2 106.4-8.2 7.9-17.1 15.2-26.6 21.9z"/><path fill="#6D6F71" d="M968.4 803.6c1-8.9 1.7-17.8 1.7-27 0-35.1-8.1-68.3-22.2-98.1-4.8-10.1-10.1-19.8-16.2-29.1-24.1-36.2-58.1-65.2-98.3-83.1-10-4.4-20.3-8.1-30.9-11.1-19.9-5.6-40.9-8.9-62.7-8.9-23.1 0-45.5 3.5-66.5 9.8-10.7 3.2-20.9 7.3-30.9 12-39.4 18.5-72.7 47.6-96.1 84-6 9.3-11.3 19.1-16 29.3-13.2 29-20.7 61.2-20.7 95.1 0 9.7.8 19.3 2 28.7 1.4 11.5 3.7 22.7 6.8 33.6 11.4 40.6 33.6 76.6 63.3 104.8 8.4 7.9 17.3 15.3 26.7 21.9 32.9 22.9 72 37.4 114.4 40.5 5.7.4 11.3.9 17.1.9 5.9 0 11.7-.5 17.5-.9 42.5-3.2 81.8-17.9 114.7-41.1 9.4-6.6 18.3-13.9 26.6-21.9 30-28.6 52.1-65.2 63.2-106.4 2.9-10.7 5.1-21.7 6.5-33zm-30.7-9.3c-1.2 14.1-3.9 27.9-7.9 41-9.5 30.8-26.3 58.4-48.4 80.8-10.1 10.2-21.3 19.3-33.4 27.2-25.4 16.5-54.8 27.5-86.4 30.9-7.2.8-14.4 1.2-21.8 1.2-7.3 0-14.5-.5-21.6-1.2-31.4-3.4-60.6-14.2-85.9-30.5-12.2-7.9-23.5-16.9-33.7-27.2-21.7-22-38.4-49-48.1-79.1-4.3-13.4-7.2-27.3-8.6-41.7-.6-6.3-1-12.6-1-19 0-26.8 5.4-52.4 15-75.8 5.3-12.8 11.9-25 19.6-36.3 18.8-27.4 44.3-49.8 74.1-65 12-6.1 24.7-11 38-14.6 16.6-4.5 33.9-7.1 51.9-7.1 16.7 0 32.8 2.3 48.3 6.2 13.2 3.3 25.9 7.9 38 13.8 30.5 14.7 56.6 36.9 76 64.4 7.9 11.1 14.7 23 20.1 35.7 10.4 24.1 16.3 50.7 16.3 78.7.4 5.9 0 11.8-.5 17.6z"/><path fill="#464648" d="M902.2 662.2a200.17 200.17 0 0 0-76-64.4c-12-5.8-24.7-10.5-38-13.8-15.5-3.9-31.6-6.2-48.3-6.2-18 0-35.4 2.6-51.9 7.1-13.3 3.6-26 8.5-38 14.6-29.8 15.2-55.4 37.5-74.1 65-7.8 11.3-14.3 23.5-19.6 36.3-9.6 23.4-15 48.9-15 75.8 0 6.4.4 12.7 1 19 1.4 14.4 4.3 28.4 8.6 41.7 9.7 30.1 26.3 57.1 48.1 79.1 10.2 10.2 21.5 19.3 33.7 27.2 25.3 16.3 54.5 27.1 85.9 30.5 7.1.8 14.3 1.2 21.6 1.2 7.4 0 14.6-.5 21.8-1.2 31.7-3.4 61-14.4 86.4-30.9 12.1-7.9 23.3-16.9 33.4-27.2 22.1-22.4 38.9-50 48.4-80.8 4-13.1 6.7-26.9 7.9-41 .5-5.8.9-11.7.9-17.6 0-28-5.8-54.6-16.3-78.7-5.9-12.6-12.7-24.5-20.5-35.7zM739.8 912.7c-75.2 0-136.1-60.9-136.1-136.1 0-75.2 60.9-136.1 136.1-136.1 75.1 0 136.1 60.9 136.1 136.1 0 75.2-60.9 136.1-136.1 136.1z"/><path fill="#B85856" d="M739.8 640.6c-75.2 0-136.1 60.9-136.1 136.1 0 75.1 60.9 136.1 136.1 136.1 75.1 0 136.1-60.9 136.1-136.1 0-75.2-60.9-136.1-136.1-136.1zm-53.2 102.7c-17.7 12.5-39.2 12.5-48.1-.1-8.9-12.6-1.8-32.9 15.8-45.4 17.7-12.5 39.2-12.5 48.1.1 8.9 12.6 1.8 32.9-15.8 45.4zm37.6-44.4c-8.5 4-18.1 1.6-21.5-5.5-3.4-7.1.7-16.2 9.2-20.3 8.5-4.1 18.1-1.6 21.5 5.5 3.4 7.2-.7 16.3-9.2 20.3z"/><path fill="#FFF" d="M654.3 697.8c-17.6 12.5-24.7 32.8-15.8 45.4 8.9 12.6 30.4 12.6 48.1.1 17.6-12.5 24.7-32.8 15.8-45.4-8.9-12.5-30.4-12.6-48.1-.1zM711.9 673.2c-8.5 4.1-12.6 13.1-9.2 20.3 3.4 7.1 13 9.6 21.5 5.5s12.6-13.1 9.2-20.3c-3.4-7.1-13.1-9.6-21.5-5.5z"/></svg>