<svg xmlns="http://www.w3.org/2000/svg" width="100" height="100" viewBox="0 0 100 100"><path fill-rule="evenodd" clip-rule="evenodd" fill="#272525" d="M22.744 63.115c2.403 3.684 6.069 7.194 11.597 9.98 0 0 15.011 8.125 26.485-3.353 0 0-7.766 11.505-23.498 7.234 0 0-9.916-2.369-16.18-12.011a14.132 14.132 0 0 0 1.596-1.85z"/><path fill="#FFF" d="M37.314 77.04c-.007 0-9.937-2.374-16.223-12.042l-.029-.042.043-.037a13.977 13.977 0 0 0 1.587-1.84l.051-.075.05.075c2.396 3.678 6.055 7.181 11.576 9.962.015-.003 5.146 2.786 11.706 2.786 4.633-.004 9.967-1.39 14.707-6.126l.094.077s-5.543 8.21-16.75 8.21c-2.078 0-4.351-.281-6.812-.948zm.036-.122c2.454.666 4.712.948 6.776.948 9.202 0 14.555-5.561 16.143-7.501-4.61 4.301-9.734 5.584-14.194 5.584-6.596 0-11.763-2.795-11.763-2.795-5.499-2.776-9.165-6.265-11.576-9.931a13.94 13.94 0 0 1-1.508 1.75c6.25 9.588 16.101 11.94 16.122 11.945z"/><path fill-rule="evenodd" clip-rule="evenodd" fill="#272525" d="M87.008 55.609s-4.828-12.117-18.489.455l-.548 2.276s8.198-7.379 15.212 2.458c0 .001 1.364-3.461 3.825-5.189z"/><path fill="#FFF" d="M83.132 60.839c-2.8-3.926-5.773-5.092-8.335-5.092-3.847-.004-6.775 2.634-6.783 2.638l-.152.136.614-2.502c4.669-4.302 8.321-5.724 11.105-5.724 5.385.004 7.484 5.287 7.484 5.291l-.058.024.058-.024.015.047-.035.029c-2.44 1.709-3.804 5.155-3.804 5.162l-.044.104-.065-.089zm.037-.167c.245-.593 1.559-3.508 3.76-5.085-.217-.501-2.346-5.173-7.348-5.169-2.742 0-6.363 1.404-11.005 5.661l-.497 2.09c.642-.526 3.319-2.544 6.718-2.547 2.584-.001 5.579 1.176 8.372 5.05z"/><radialGradient id="a" cx="43.335" cy="48.56" r="27.63" gradientUnits="userSpaceOnUse"><stop offset="0" stop-color="#5ba59b"/><stop offset="1" stop-color="#1c433f"/></radialGradient><path fill-rule="evenodd" clip-rule="evenodd" fill="url(#a)" d="M24.107 60.041a27.688 27.688 0 0 0 5.615 6.596c10.558 9.093 25.706 8.815 33.832-.617 8.126-9.436 6.148-24.458-4.41-33.55C50.716 25.209 39.125 23.517 31 28.5c-12.81 7.852-11.98 23.165-6.893 31.541zm20.828-23.924c-1.191 1.382-3.515 1.339-5.189-.104-1.674-1.44-2.064-3.732-.873-5.117 1.198-1.386 3.521-1.338 5.188.105 1.675 1.439 2.072 3.731.874 5.116zm11.921 14.557c1.19-1.386 3.516-1.339 5.189.104 1.675 1.439 2.063 3.729.873 5.115-1.198 1.384-3.516 1.337-5.189-.104-1.674-1.443-2.07-3.73-.873-5.115zm-28.945-7.347c1.191-1.385 3.515-1.338 5.189.101 1.674 1.443 2.064 3.734.873 5.117-1.19 1.386-3.515 1.339-5.188-.101-1.675-1.444-2.065-3.736-.874-5.117zm25.402-.938c-1.675-1.443-2.064-3.734-.873-5.12 1.19-1.382 3.515-1.335 5.189.104 1.674 1.443 2.062 3.735.872 5.117-1.189 1.385-3.514 1.338-5.188-.101zm-4.958 17.93c1.191-1.386 3.515-1.339 5.188.1 1.674 1.443 2.064 3.73.874 5.116-1.191 1.386-3.515 1.339-5.189-.1-1.673-1.443-2.063-3.735-.873-5.116zm-7.317-13.694c1.443-1.674 4.244-1.628 6.264.108 2.014 1.736 2.476 4.503 1.032 6.181-1.443 1.674-4.25 1.628-6.264-.108-2.014-1.736-2.483-4.504-1.032-6.181zm-7.556 10.587c1.191-1.386 3.515-1.338 5.189.101 1.674 1.443 2.064 3.735.873 5.121-1.191 1.381-3.515 1.334-5.189-.104-1.674-1.444-2.064-3.736-.873-5.118z"/><path fill-rule="evenodd" clip-rule="evenodd" fill="#FFF" d="M85.205 55.773l-.359-.494.817-.595.36.495zM82.764 59.137l-.39-.473.78-.643.39.473zM81.098 57.467l-.476-.386.636-.787.477.386zM83.061 53.265l.433.435.722-.707-.434-.436zM81.188 52.239l-.563-.242.398-.926.563.242zM79.321 56.162l-.561-.241.4-.932.561.241zM78.958 51.825l-.614.011-.015-.87.614-.01zM76.19 52.381l.591-.178-.23-.758-.584.174zM76.781 55.379l.593-.174-.23-.762-.585.174zM73.939 53.34l.562-.252-.331-.722-.556.252zM74.147 55.632l.556-.258-.324-.722-.564.253zM72.456 54.205l-.505.35-.381-.548.505-.35z"/></svg>