<svg xmlns="http://www.w3.org/2000/svg" viewBox="0 0 150 150"><path fill-rule="evenodd" clip-rule="evenodd" fill="#37936C" d="M75.3 37.2c19.2 1 34.6 16.4 35.6 35.6h-10.2c-1-13.6-11.8-24.4-25.4-25.4V37.2z"/><path fill-rule="evenodd" clip-rule="evenodd" fill="#E06128" d="M71.2 112.5c-19.2-1-34.6-16.4-35.6-35.6h10.2c1 13.6 11.8 24.4 25.4 25.4v10.2z"/><path fill-rule="evenodd" clip-rule="evenodd" fill="#CF2833" d="M35.6 72.8c1-19.2 16.4-34.6 35.6-35.6v10.2c-13.6 1-24.4 11.8-25.4 25.4H35.6z"/><path fill-rule="evenodd" clip-rule="evenodd" fill="#DDC427" d="M110.9 76.9c-1 19.2-16.4 34.6-35.6 35.6v-10.2c13.6-1 24.4-11.8 25.4-25.4h10.2z"/><path fill-rule="evenodd" clip-rule="evenodd" fill="#37936C" d="M74.3 56c9.6.5 17.3 8.2 17.8 17.8H87c-.5-6.8-6-12.2-12.7-12.7V56z"/><path fill-rule="evenodd" clip-rule="evenodd" fill="#E06128" d="M72.2 93.7c-9.6-.5-17.3-8.2-17.8-17.8h5.1c.5 6.8 5.9 12.2 12.7 12.7v5.1z"/><path fill-rule="evenodd" clip-rule="evenodd" fill="#CF2833" d="M54.4 73.8c.5-9.6 8.2-17.3 17.8-17.8v5.1c-6.8.5-12.2 5.9-12.7 12.7h-5.1z"/><path fill-rule="evenodd" clip-rule="evenodd" fill="#DDC427" d="M92.1 75.9c-.5 9.6-8.2 17.3-17.8 17.8v-5.1c6.8-.5 12.2-5.9 12.7-12.7h5.1z"/><path fill="#293036" d="M5.5 120.7V29h21v6.3H13.3v79h13.2v6.3h-21zM120 120.7v-6.3h13.2v-79H120V29h21v91.6h-21z"/></svg>