<svg xmlns:xlink="http://www.w3.org/1999/xlink"  version="1" xmlns="http://www.w3.org/2000/svg" viewBox="0 0 150 150"><path fill="#A28E56" d="M145.2 115.9L115 80.5l-20.7 35.4h50.9z"/><path fill="#FFCA07" d="M82.2 115.9c9.1-15.7 16.4-27.9 25.6-43.7v-.3L93.3 55c-11.9 20.3-23.6 40.6-35.5 60.9h24.4z"/><path fill="#4A4741" d="M85.9 46.4c-.1-.2-13.5-16-13.5-16-15.7 26.8-37.5 64.2-50 85.5h22.1c9.2-16 32.3-53.8 41.4-69.5z"/><g fill="#FFCA07"><path d="M22.3 54.8l7.5 2.3-8.1-6.8C20 52.4 18.4 54.7 17 57l11.9 2.4-6.6-4.6zM26.8 48.3l6.4 4.5-5.6-8.9c-1.9 1.7-3.6 3.7-5.3 5.6l9.2 5.2-4.7-6.4zM67.6 27.6c-1.7 0-3.4.1-5.1.3-10 1.1-19.2 4.7-27 9.9L40.6 49l-.2-8 2.5 7.4 1.2-15.3L46 48.5l2.2-7.6.1 7.8 5.9-14.2-3 15.1 4.5-6.5-2.3 7.5.2-.2 11-17.9 3-4.9zM12.4 66.4zM24.6 97.5l1.1-1.7 4.3-7.1 1.8-2.9-5.4 6.4L34 78.7l-6.3 4.9 4.5-6.5L19 85.2l11.4-10.5-7.5 2.7 6.3-4.8-14.9 3.7 14-6.5-7.9.2 7.4-2.6-15.3-1.1c-3.6 9-5.1 18.9-3.9 29.3.7 6.8 2.6 13.2 5.4 19.1l2.1-3.5 8.5-13.7z"/><path d="M20.1 62.2l7.8-.1-11.2-4.6c-1.7 2.8-3.1 5.8-4.3 8.9l15.3-1.9-7.6-2.3zM33.1 43.6l4.7 6.3-2.9-11.8c-2.2 1.6-4.4 3.3-6.5 5.2l7.3 7.9-2.6-7.6z"/></g></svg>