<svg xmlns:xlink="http://www.w3.org/1999/xlink"  xmlns="http://www.w3.org/2000/svg" viewBox="0 0 150 150"><path fill="#EB9893" d="M132.9 69.4c.1.9.2 1.8.2 2.7 0-.9-.1-1.8-.2-2.7zM131.9 63.2c.4 2 .8 4 1 6-.2-2-.5-4-1-6zM49.5 113.5l-11.7-10.6 47.3-52 6.9 6.3-6.9-6.3 7.5-3.4 10.4-4.7 28.9 20.5c-5.7-26.3-29.1-46-57.1-46-32.3 0-58.5 26.2-58.5 58.5 0 31.5 24.9 57.2 56.1 58.4l-22.9-20.7zm-.7-68.3c8.2 0 14.8 6.6 14.8 14.8 0 8.2-6.6 14.8-14.8 14.8C40.6 74.8 34 68.2 34 60c.1-8.2 6.7-14.8 14.8-14.8zM133.2 72.6c.1 1 .1 2.1.1 3.1 0-1 0-2.1-.1-3.1z"/><circle fill="#F7C4C0" cx="48.8" cy="59.9" r="14.8"/><path fill="#DD6D6C" d="M88.9 107.9c-4.6-2.5-7.8-7.4-7.8-13 0-8.2 6.6-14.8 14.8-14.8 4.4 0 8.4 2 11.1 5l.1-.1 19.9 17.1c-1.7 3.4-3.7 6.5-6.1 9.5 7.8-9.9 12.4-22.4 12.4-36 0-1.1 0-2.1-.1-3.1v-.4c-.1-.9-.1-1.8-.2-2.7v-.2c-.2-2-.9-4-.9-6V63l-29-20.4-6.2 18.8-47.2 51.9 22.9 20.8c.8 0 1.5.1 2.3.1 14.6 0 27.9-5.3 38.1-14.2-1.9 1.6-3.8 3.1-5.9 4.4l-18.2-16.5zM92 57.1l4.8 4.4-4.8-4.4zM113.2 119.8c2.8-2.4 5.3-5.1 7.6-8-2.3 2.9-4.8 5.6-7.6 8z"/><path fill="#EB9893" d="M120.8 111.8s.1-.1 0 0c2.4-3 4.4-6.2 6.1-9.6L107 85.1l-.1.1c2.3 2.6 3.7 6 3.7 9.7 0 8.2-6.6 14.8-14.8 14.8-2.5 0-4.9-.6-7-1.8l18.2 16.6c2-1.4 4-2.8 5.9-4.4.1-.1.2-.2.3-.2 2.8-2.5 5.3-5.2 7.6-8.1z"/><path fill="#F7C4C0" d="M95.8 80.1c-8.2 0-14.8 6.6-14.8 14.8 0 5.6 3.2 10.5 7.8 13 2.1 1.1 4.5 1.8 7 1.8 8.2 0 14.8-6.6 14.8-14.8 0-3.7-1.4-7.1-3.7-9.7-2.7-3.1-6.6-5.1-11.1-5.1z"/><path fill="#58595B" d="M85.1 50.9l-47.3 52 11.7 10.6.1-.1 47.2-51.9-4.8-4.4-6.9-6.2zm-38.7 59.8l-5-4.6 47.3-52 5 4.6-47.3 52z"/><path fill="#6F7073" d="M41.38 106.109L88.678 54.1l5.03 4.575-47.298 52.008z"/><path fill="#F7C4C0" d="M92.6 47.5l-7.5 3.4 6.9 6.3 4.8 4.4 6.2-18.7-3.4 10.4c-3.1-1-5.5-3.1-7-5.8z"/><path fill="#58595B" d="M92.6 47.5c1.5 2.7 3.9 4.8 6.9 5.7l3.4-10.4-10.3 4.7z"/></svg>