<svg xmlns:xlink="http://www.w3.org/1999/xlink"  xmlns="http://www.w3.org/2000/svg" viewBox="0 0 150 150"><linearGradient id="a" gradientUnits="userSpaceOnUse" x1="67.683" y1="106.885" x2="54.391" y2="73.902"><stop offset="0" stop-color="#f99562"/><stop offset="1" stop-color="#ff674c"/></linearGradient><path fill="url(#a)" d="M67.7 102.4l5.5-.2-22.8-33.1-5.3.2z"/><path fill="#68BD45" d="M79.4 101.4l13.8.3-22-32.8-13.2-.3z"/><linearGradient id="b" gradientUnits="userSpaceOnUse" x1="66.567" y1="92.945" x2="58.688" y2="85.558"><stop offset="0" stop-color="#f99562"/><stop offset="1" stop-color="#ff674c"/></linearGradient><path fill="url(#b)" d="M57.5 87.2l1.9 2.5 2.5-3.7-2-2.7"/><linearGradient id="c" gradientUnits="userSpaceOnUse" x1="84.465" y1="96.26" x2="80.157" y2="92.937"><stop offset="0" stop-color="#5db65f"/><stop offset="1" stop-color="#57844d"/></linearGradient><path fill="url(#c)" d="M76.8 97.2l1.3 2.2 7.2-9.5-1.5-2.2"/><linearGradient id="d" gradientUnits="userSpaceOnUse" x1="23.119" y1="68.968" x2="39.045" y2="119.161" gradientTransform="matrix(.9844 .0239 .0239 .9634 -.553 .822)"><stop offset="0" stop-color="#f99562"/><stop offset="1" stop-color="#ff674c"/></linearGradient><path fill="url(#d)" d="M19.3 111.8l-6.4-.2 31.4-42.2 6.1-.3z"/><g fill="#5DA83E"><path d="M26 111.9l13.8-.3 31.3-42.7-13.1-.3zM122.6 41.3l-11 5.2 5.7 4-37.9 50.9 13.8.3L126 56.4l5.6 3.9 1-12.1 1-12.1z"/></g><linearGradient id="e" gradientUnits="userSpaceOnUse" x1="67.687" y1="76.187" x2="109.442" y2="76.187"><stop offset="0" stop-color="#f99562"/><stop offset="1" stop-color="#ff674c"/></linearGradient><path fill="url(#e)" d="M104.3 52.4l-5.2 2.5 2.7 1.9-34.1 45.6 5.5-.2 32.2-42.9 3.1 2.1.5-5.7.4-5.7z"/></svg>