<svg xmlns:xlink="http://www.w3.org/1999/xlink"  xmlns="http://www.w3.org/2000/svg" viewBox="0 0 150 150"><path fill="none" d="M88.7 109l-9-15.6zM76.9 127.8c-.8-.7-1.8-1.1-2.9-1.1h-.4c-1 .1-1.9.4-2.6 1-1.1.9-1.8 2.2-1.8 3.7 0 2.6 2.1 4.7 4.7 4.7s4.7-2.1 4.7-4.7c.1-1.4-.6-2.7-1.7-3.6zM73.6 94.1v1.6z"/><path fill="#85B040" d="M38 109h5v13h-5z"/><path fill="#4082C4" d="M43 109h16v13H43z"/><path fill="#FDD500" d="M73.5 109H59v13h15v-13z"/><path fill="#F37621" d="M88.7 109H74v13h15v-13z"/><path fill="#BF272D" d="M89 109h14v13H89z"/><path fill="#A157A1" d="M103 109h7v13h-7z"/><path fill="#85B040" d="M61 67.2V58h-6v36h6z"/><path fill="#4082C4" d="M68 94V67h-7v27z"/><path fill="#FDD500" d="M68 76h6v18h-6z"/><path fill="#F37621" d="M73.6 94H80V51h-6v43z"/><path fill="#BF272D" d="M85 94V33h-5v61z"/><path fill="#A157A1" d="M85 39h7v55h-7z"/><path fill="#72963E" d="M61.4 94h-6.1L38 103.7v5.3h5.4z"/><path fill="#327BBE" d="M61.4 94l-18 15h15.1l9-15z"/><path fill="#E4C020" d="M74 94h-6.5l-9 15h15l.5-13.3z"/><path fill="#E56D25" d="M73.6 94v1.3l-.1 13.7h15.2l-9-15z"/><path fill="#A52227" d="M88.7 109h15.1l-18-15h-6.1z"/><path fill="#88498A" d="M91.9 94h-6.1l18 15h6.2v-4.8l-7.6-4.2c-1.2-.6-2.4-1.2-3.2-1.8L91.9 94z"/><path fill="#BF272D" d="M110.1 74.5c0-.1-.1-.2-.1-.2-.2-.3-.4-.6-.6-.8-3.1-3.8-8.6-4.8-12.8-2-4.5 2.9-5.8 8.9-2.9 13.4 1.5 2.4 4 3.8 6.6 4.3.5-.1.9-.1 1.4-.1l-.8-1.2c-2.3-.3-4.5-1.5-5.9-3.6-2.4-3.8-1.3-8.9 2.4-11.3 3.8-2.4 8.9-1.3 11.4 2.4.2.3.4.7.6 1.1.3.8.5 1.6.6 2.4 0 0 .1 0 .1-.1l.1-.1.6-.3c.2-.1.4-.1.6-.2-.1-.7-.3-1.4-.6-2.1-.2-.7-.4-1.2-.7-1.6z"/><path fill="#F37621" d="M99 75.1c2.4-1.5 5.7-.8 7.2 1.5l.4.7s0-.1.1-.1l1.8 2.7c.1-1.3-.2-2.8-1-4.1-2-3.1-6.2-4-9.3-2-3.1 2-4 6.1-2 9.3.9 1.4 2.2 2.3 3.5 2.7l-2.3-3.5c-1.5-2.3-.8-5.6 1.6-7.2z"/><path fill="#15272D" d="M134.7 91.8c-.3-1.4-.9-2.8-1.7-4.1l-4.9-7.5c-.3-.5-.7-.9-1.2-1.2-.2-.1-.5-.3-.7-.3-.2-.1-.5-.1-.7-.2-.8-.1-1.7.1-2.5.6s-1.2 1.1-1.5 1.8c-1.1-1.8-3.4-2.2-5.2-1.1-.8.5-1.3 1.2-1.6 2.1-1.2-.8-2.7-.9-3.9-.3-.1.1-.2.1-.3.2-.1.1-.3.2-.4.3-.3.3-.5.5-.7.8-.1.2-.3.4-.3.7l-3.3-5.1-.7-1.1c-1.1-1.8-3.4-2.2-5.2-1.1-1.7 1.1-2.2 3.4-1.1 5.2l4.8 7.5 2.4 3.7c-3.4-.5-6.8-.6-8.1 1.3-.2.3-.3.6-.4 1-.3 1.3.3 2.3 1.5 3.2.8.6 1.8 1.2 3.1 1.8 2 1 4.6 2 7.3 3.2.2.1.6.2.8.3.2.1.8.2.8.3V125H37V27h74v48.9c0 .7.4 1.4.5 2.1 1-.2 2 0 2.9.6.3-.9.9-1.6 1.6-2.1 1.7-1.1 4-.7 5.1 1.1.3-.7.5-1.4 1.2-1.8.9-.6 2.6-.7 2.6-.5V23c0-6.2-4.6-12-10.9-12H33.8C27.5 11 23 16.7 23 23v104.5c0 6.2 4.5 11.6 10.8 11.6h80.4c6.2 0 10.9-5.3 10.9-11.6V107c1-.1.7-.1 1-.2.2-.1.6-.2.8-.3.8-.3 1.7-.8 2.4-1.2 4.5-3 6.6-8.4 5.4-13.5zm-60.8 44.4c-2.6 0-4.7-2.1-4.7-4.7 0-1.5.7-2.8 1.8-3.7.7-.6 1.6-.9 2.6-1h.4c1.1 0 2.1.4 2.9 1.1 1.1.9 1.8 2.2 1.8 3.7 0 2.5-2.1 4.6-4.8 4.6z"/></svg>