<svg xmlns:xlink="http://www.w3.org/1999/xlink"  version="1" xmlns="http://www.w3.org/2000/svg" viewBox="0 0 150 150"><path fill="#D03334" d="M11.1 92.1V46.6c0-3.2 2.6-5.8 5.9-5.8h39.4C35.8 55.3 20.5 72.3 11.1 92.1zM113.1 32.8l2.6 2.9 2.9-2.6-2.5-2.8 4.3-3.8-5.5-6.3-6.2 5.5 5.4 6.2zM132.9 15.6l-3.1-3.5-3.6 3.1 3.1 3.6zM95.2 26.5l-2.8-3.1-3.2 2.7 2.8 3.1z"/><path fill="#01528F" d="M125.2 27.3l4.2 4.8 4.7-4.2-4.2-4.8z"/><path fill="#D03334" d="M141.2 18.2l-1.5-1.7L138 18l-1.7-1.9-3 2.7 2.7 3.1.8-.8 2.7 3 3-2.6-2.2-2.5zM130.3 37.3l-1.5-1.6.1.4-2.1-2.4-4.4 3.9 3.9 4.5 4.4-3.9-.6-.7z"/><path fill="#01528F" d="M134.6 33.4l2.7 3 3-2.6-2.7-3z"/><g fill="#01528F"><path d="M104.2 40.6l3.7 4.1 4.1-3.6-.9-1V40l-3.3-3.8-3.9 3.3.7.8zM113.8 63l-4.7 4.2-3.8-4.4v-3.6l.7.8 6.3-5.4-4.6-5.2 1.8-1.5-3.1-3.4-1.2 1c-.6-2.7-2.9-4.6-5.7-4.6h-5.1l2.2-1.9-2.8-3.1-3.1 2.7 2 2.3H88l2.5-2.2-4.1-4.7-4.7 4 2.4 2.7h-3.9l-3.9-4.3-4.6 4 .3.3H58.7C25.8 69 17.2 100.6 27.6 134.8h8.8c-5.6-20.2-3-41.1 13.7-65.6-12.1 22.4-9.3 45.1 2.8 65.6h10.5c-7.9-12.1-11.6-26.8-9.2-45.9-.4 20.3 9.8 35.4 25.8 45.9h19.3c3.2 0 5.9-2.6 5.9-5.9V70.6l3.8-3.4 4.1 4.8 4.7-4.2-4-4.8z"/></g><path fill="#01528F" d="M123.9 18.1l.4-.3-3.4-3.9-3.9 3.5 3.4 3.9 1.4-1.3 1.4 1.7 2.2-1.9zM114.7 45.3l2.2 2.5 2.6-2.2-2.2-2.5z"/></svg>