<svg xmlns:xlink="http://www.w3.org/1999/xlink"  version="1" xmlns="http://www.w3.org/2000/svg" viewBox="0 0 150 150"><path fill="#002146" d="M78.1 40c5.5 0 10.8 1.8 15.2 5.1.7-.2 1.4-.2 2.1-.3L79.7 17.5 64.1 44.4c3.8-2.6 8.3-4.1 13.1-4.3h.9z"/><path fill="#0E4F82" d="M79.8 87.4c32-13.3 54.6-34.8 55.9-51.7-2.6 8-9 16.5-18.2 24.6l-.6-17.4-16.8.6 1.1 28.9c-1.8 1.1-3.6 2.2-5.5 3.3l-.4-11.5-16.8.6.7 19c-.2.1-.5.2-.7.3-1.6.7-3.2 1.3-4.8 1.9l-.4-9.8-16.8.6.5 14.5c-12.3 3.2-23.9 4.4-33.9 3.8 1.3-3.9 4.3-7.1 8.4-8.4l1.8-.6-.2-2.4c-.3-9.5 7.1-17.5 16.6-17.8 2.7-.1 5.3.4 7.8 1.6L61 69v-3.7C61 56 68.2 48.4 77.6 48c4.8-.2 9.4 1.6 12.8 5l1.1 1.1 1.4-.5c1.7-.7 3.5-1 5.3-1.1l-.2-4.7c-1.8.1-3.6.4-5.4.9-4.2-3.6-9.7-5.6-15.2-5.4-10.8.4-19.4 8.3-20.9 18.7-2.2-.6-4.5-.9-6.9-.8-11.7.4-21 10-21.2 21.6-5.1 2.2-8.7 6.7-10.1 11.9-5.6-.7-10.5-2.1-14.6-4.1 13 10.9 44.1 10.1 76.1-3.2z"/><g><path fill="#231F20" d="M119.5 124.2h21.8l-10.9-18.9-12.1 11.8z"/><path fill="#0E4F82" d="M74.6 102.9l20.1-2.9 9-18.2 9 18.2 15.9 2.3-16.8-29.1c-8.8 6.5-19.2 12.4-30.7 17.2-17.1 7.1-34.7 11-49.7 11h-.1L18 124.2h69.9l1.2-7.2-14.5-14.1z"/></g></svg>