<svg xmlns:xlink="http://www.w3.org/1999/xlink"  version="1" xmlns="http://www.w3.org/2000/svg" viewBox="0 0 150 150"><path fill="#919395" d="M90.1 123.5c-7.9-10.9-20.9-10.9-28.7.1l-9.4 13c15.1 5.8 32.2 6 47.8.1l-9.7-13.2z"/><path fill="#7C1315" d="M131 36.9C110.2 6.5 68.8-1.3 38.4 19.5 8 40.3.3 81.8 21.1 112.1c4.8 7.1 10.8 12.8 17.5 17.4l37.1-51.6 37.7 51.8c.1-.1.2-.1.3-.2 30.3-20.8 38.1-62.3 17.3-92.6zm-29.8 47.5l-11-15.2c-7.9-10.9-20.9-10.9-28.7.1L50.4 84.6l-18.6.1 43.8-61 44.2 60.7h-18.6z"/><g fill="#FFF"><path opacity=".24" d="M97.8 79.8l-7.7-10.5c-7.9-10.9-20.9-10.9-28.7.1l-7 9.6c5.9 1.3 12.2 2.1 18.6 2.3l2.5-3.5 2.7 3.7c6.8 0 13.3-.6 19.6-1.7z"/><path opacity=".24" d="M131 36.9C110.2 6.5 68.8-1.3 38.4 19.5 25 28.7 16 41.9 11.9 56.4c6.8 7.4 16.1 13.6 27.3 18l36.4-50.7 37.9 52.1c10.9-3.8 20.3-9.3 27.5-16-1.8-8-5.1-15.8-10-22.9z"/></g></svg>