<svg xmlns:xlink="http://www.w3.org/1999/xlink"  version="1" xmlns="http://www.w3.org/2000/svg" viewBox="0 0 150 150"><path fill="#00ABBA" d="M93.9 95.8l15.1 14.6h19.4c-8.2-8-15.9-15.6-24.2-23.6l-10.3 9z"/><path fill="#3F838B" d="M20.3 110.4h73.9C81.9 98.3 69.3 86.9 57 74.8l-36.7 35.6z"/><path fill="#231F20" d="M142.9 110.4h-12.7c-8.7-8.9-17.4-17.8-26.1-26.6L93.9 94.2l15.9 16.2H97.1c-12.8-13-25.6-26.1-38.4-39.2l-38.4 39.2H7.6l51.1-52.1 28.9 29.4 16.6-16.9 38.7 39.6z"/><path fill="#231F20" d="M39.4 54.3C48.8 44.8 61.6 39 75.8 39s27 5.8 36.4 15.3c9.3 9.4 17.4 22.4 17.5 36.7-.3-29.7-24-57.4-53.9-57.5-29.9.1-53.7 27.8-54 57.5.2-14.3 8.3-27.3 17.6-36.7z"/></svg>