<svg xmlns:xlink="http://www.w3.org/1999/xlink"  xmlns="http://www.w3.org/2000/svg" viewBox="0 0 150 150"><path fill="#A52227" d="M30.3 81.5C30.3 48.2 53 21.2 81 21.2c19.3 0 36.1 12.8 44.6 31.7-7.7-22.8-27-39-49.5-39C46.8 14 23 41.4 23 75.2c0 21.5 9.6 40.5 24.2 51.4-10.4-11.1-16.9-27.1-16.9-45.1z"/><path fill="#051837" d="M86.3 93zM100 99.5l.2-.3c-.1 0-.2.1-.3.1l-2.3.5.9 2.3 1.5-2.6zM98.9 42.3l-37.9-3c-5.5-.4-10.2 4.1-10.2 10.3v56.7l7.1-5.1c0-2 1.5-3.9 3.4-4.2l3.2-.6 13.4-9.8c-.8-.5-1.3-1.5-1.3-2.6v-3.4c0-1.9 1.2-3.5 2.8-3.7l5.4-.5c1.4-.1 2.6 1.2 2.7 3v.2l.3-.2c.5-.3 1-.4 1.5-.3.5.2.9.6 1.1 1.2 0 0 .3.9.9 2.4.8 2.2 2 5.4 3.1 8.5.2-.1.4-.2.7-.3l4.7-.8c1.3-.2 2.3 1 2.3 2.6l.1 3v.1l4-6.8.3-.4-.7-37.3c-.3-4.7-3.2-8.7-6.9-9zM70.7 84.7c0 1.9-1.3 3.7-3.1 3.9l-6.4.9c-1.8.3-3.4-1.2-3.4-3.2v-3.7c0-2 1.5-3.8 3.3-4l6.4-.6c1.7-.2 3.1 1.3 3.1 3.2l.1 3.5zm31.1-3.9c0 1.6-1 3.1-2.2 3.3l-4.7.7c-1.3.2-2.4-1.1-2.5-2.8v-3.1c0-1.7 1.1-3.2 2.4-3.4l4.7-.4c1.2-.1 2.3 1.1 2.3 2.8v2.9zm-.2-14.9c0 1.6-.9 3-2.2 3.1l-38.2 2.4c-1.8.1-3.3-1.4-3.4-3.5V49.7c0-2 1.5-3.5 3.3-3.4l38 1.8c1.2.1 2.3 1.4 2.3 3l.2 14.8z"/><path fill="#051837" d="M96.8 51.1l-4.7-.2c-1.4 0-2.4 1.3-2.4 3l.1 9.4c0 1.7 1.2 3.1 2.5 3l4.8-.2c1.3-.1 2.3-1.4 2.2-3.1l-.1-8.9c-.1-1.6-1.1-3-2.4-3zm.2 12l-4.7.1-.2-9.2 4.7.1.2 9zM102.3 108l-4.1 7.2-.2.4c-.4.7-1 1.2-1.6 1.2-.5 0-1-.2-1.2-.7 0-.1-.1-.2-.1-.3l-.3-.9-1.7-4.6-.2-.5-5.1-13.3v2.2c0 1.8-1.1 3.5-2.6 3.9l-5.5 1.2c-1.6.4-2.9-.9-2.9-2.8v-.5l-13.3 10.6-10.7 8.5c-.6.5-1.3.7-1.9.7v5.4c0 6.5 4.9 10.1 10.5 8.2l38.8-13.3c3.7-1.3 6.6-6.3 6.5-11.2l-.2-9.2-3.8 6.7-.4 1.1zm-31.4 12c0 2-1.4 4-3.1 4.5l-6.5 2c-1.9.6-3.4-.7-3.4-2.8v-3.8c0-2.1 1.5-4.2 3.4-4.7l6.5-1.7c1.7-.4 3.1.8 3.1 2.8v3.7zm17-4.9c0 1.8-1.1 3.7-2.6 4.1l-5.5 1.7c-1.6.5-2.9-.7-2.9-2.6v-3.4c0-1.9 1.3-3.8 2.8-4.2l5.5-1.4c1.5-.4 2.7.8 2.7 2.6v3.2z"/><path fill="#A52227" d="M121 82.6l-.5-11.1c0-.5-.2-1-.5-1.4-.3-.4-.7-.5-1-.5l-8.6 1.3c-.2 0-.4.1-.6.3-.5.4-.9 1.2-.8 2.1 0 .6.2 1.1.5 1.4.3.3.7.5 1.1.4l2-.4 1.7-.3 1.5-.3-2.1 3.6-.2.4-7.2 12.9-.9 1.5-6.1 10.5-1.6 2.7-1-2.7s-.4-1.1-1-2.8c-.7-2-1.7-4.7-2.7-7.3-.9-2.4-1.8-4.8-2.4-6.5-.5-1.5-.9-2.4-.9-2.4-.2-.6-.6-1-1.1-1.2-.4-.1-.8-.1-1.1.1-.1.1-.3.1-.4.2l-4.6 3.5-12.8 9.7-11.8 8.7-6.5 4.9c-.2.2-.4.3-.6.5-.3.4-.6.8-.7 1.2 0 .1-.1.2-.1.3-.2.8-.2 1.6.1 2.2.1.3.3.5.6.7l.1.1c.3.2.6.3.9.3.7.1 1.4-.2 2.1-.7l8.8-6.9 1.7-1.4 6.4-5 6.1-4.7 3.9-3.1 4.5-3.5 1.6-1.3.7 2 6.3 16.8.7 1.9.5 1.4.3.9c.3.7.8 1.1 1.4 1 .6 0 1.2-.5 1.6-1.2l2.1-3.8 1-1.7 4.8-8.4 9.6-16.8 2-3.6.2 4.5.1 2.8c0 .6.2 1 .5 1.4.3.3.6.5 1 .4.3-.1.6-.3.8-.5.1-.1.1-.2.2-.3.2-.4.4-1 .3-1.5l.1-1.3z"/></svg>