<svg xmlns:xlink="http://www.w3.org/1999/xlink"  xmlns="http://www.w3.org/2000/svg" viewBox="0 0 150 150"><linearGradient id="a" gradientUnits="userSpaceOnUse" x1="51.156" y1="21.8" x2="70.836" y2="67.066"><stop offset="0" stop-color="#ffda48"/><stop offset="1" stop-color="#bf7f31"/></linearGradient><path fill="url(#a)" d="M35.5 65.6L60 84.7l31.8-38.3 16.8 12.3 7.5-8.3c-8.6-14.7-24.5-24.6-42.7-24.6C46.1 25.8 24 47.9 24 75.2c0 2 .1 4 .4 5.9l11.1-15.5z"/><path fill="#75B043" d="M111.8 78.5L133 54.7l-8.5-6.6-14.7 16.4-16.9-12.3-31.7 38.3-24.5-19.2-33 46 .5-.5-.2.1 32-36.3-8.5 15.5c6.4 19.9 25 34.2 47 34.2 27.3 0 49.4-22.1 49.4-49.4 0-4-.5-7.9-1.4-11.6l-10.7 9.2zm-57.6 34.1l-16.9-35 19.5 16.7-4.9 5.5 2.3 12.8zm44.5-13.2l-6.3 10.3-7.8 2.6L97 88.5 94.4 79l3.2-8.3-3.7-13.2L110.2 73l-1.7 5.2 9.8 11.5-19.6 9.7z"/><linearGradient id="b" gradientUnits="userSpaceOnUse" x1="121.152" y1="69.687" x2="115.063" y2="42.961" gradientTransform="rotate(2.431 -255.453 437.713)"><stop offset="0" stop-color="#fff"/><stop offset="1" stop-color="#6cab36"/></linearGradient><path fill="url(#b)" d="M133 54.7l6.7 5.2-1.2-19.5-20.3 2.7 6.3 4.9z"/><linearGradient id="c" gradientUnits="userSpaceOnUse" x1="73.332" y1="166.078" x2="58.494" y2="120.896"><stop offset="0" stop-color="#fff"/><stop offset="1" stop-color="#6cab36"/></linearGradient><path fill="url(#c)" d="M37.2 77.6l17 35-2.3-12.9 4.9-5.5z"/><path fill="#8BBB5F" d="M37.2 77.6l17 35-2.3-12.9 4.9-5.5z"/><linearGradient id="d" gradientUnits="userSpaceOnUse" x1="117.986" y1="151.414" x2="103.147" y2="106.231"><stop offset="0" stop-color="#fff"/><stop offset="1" stop-color="#6cab36"/></linearGradient><path fill="url(#d)" d="M110.2 73L93.8 57.5l3.7 13.2-3.1 8.3 2.6 9.5-12.4 23.8 7.8-2.6 6.3-10.3 19.5-9.8-9.7-11.5z"/><path fill="#8BBB5F" d="M110.2 73L93.8 57.5l3.7 13.2-3.1 8.3 2.6 9.5-12.4 23.8 7.8-2.6 6.3-10.3 19.5-9.8-9.7-11.5z"/></svg>