<svg xmlns:xlink="http://www.w3.org/1999/xlink"  version="1" xmlns="http://www.w3.org/2000/svg" viewBox="0 0 150 150"><path fill="#11355C" d="M72.7 21.5c-1.3-5.1-5.9-8.8-11.4-8.8H13.6v47.7c0 4.8 2.9 9 7.1 10.8 1.7-27.4 24.2-49.2 52-49.7z"/><g fill="#5656A4"><path d="M136.7 60.4V12.7H89c-5.5 0-10.1 3.8-11.4 8.9 26.6 2 47.7 23.6 49 50.4 5.7-.8 10.1-5.7 10.1-11.6zM20.7 78.5c-4.2 1.8-7.1 6-7.1 10.8V137h47.6c5.7 0 10.4-4 11.5-9.4-27.5-.5-50-21.9-52-49.1z"/></g><path fill="#11355C" d="M77.5 127.4c1 5.4 5.8 9.5 11.5 9.5h47.7V89.3c0-5.9-4.4-10.9-10.1-11.7-1.6 26.6-22.7 47.9-49.1 49.8z"/><g fill="#11355C"><path d="M121 54s-19.4 6.3-31.9 28.5c0 0-7.2 15-9.7 38.7 0 0-4.3-16 1.5-37.8 0 0 6.2-22.6 20.7-40.6 0 0-4.8 9.9-9.2 22.4 0-.2 13.8-8.4 28.6-11.2z"/><path d="M107 53.1c0 2.4-1.9 4.3-4.3 4.3-2.3 0-4.3-1.9-4.3-4.3s1.9-4.3 4.3-4.3 4.3 1.9 4.3 4.3z"/></g><g fill="#11355C"><path d="M26.3 54s19.4 6.3 31.9 28.5c0 0 7.3 15 9.7 38.7 0 0 4.3-16-1.5-37.8 0 0-6.3-22.6-20.7-40.6 0 0 4.8 9.9 9.2 22.4 0-.2-13.8-8.4-28.6-11.2z"/><path d="M40.3 53.1c0 2.4 1.9 4.3 4.3 4.3s4.3-1.9 4.3-4.3-1.9-4.3-4.3-4.3-4.3 1.9-4.3 4.3z"/></g><g fill="#5656A4"><path d="M86.8 39.6S74.4 91.1 73 121c0 0-3.3-67.6-10.6-80.6 0 0 4.3 7.7 12.2 25.3 0 .1 5.6-13.5 12.2-26.1z"/><path d="M79.1 48.8c0 2.5-2 4.5-4.5 4.5s-4.5-2-4.5-4.5 2-4.5 4.5-4.5 4.5 2 4.5 4.5z"/></g></svg>