<svg xmlns:xlink="http://www.w3.org/1999/xlink"  version="1" xmlns="http://www.w3.org/2000/svg" viewBox="0 0 150 150"><path d="M82.4 114.3l-32.8.7c-1.4 0-2.6 1.3-2.6 2.8 0 1.4 1 2.5 2.4 2.7h.3l32.8-.6c1.4 0 2.6-1.3 2.6-2.8-.1-1.6-1.3-2.8-2.7-2.8zM82.4 123.5l-32.8.6c-1.4 0-2.6 1.3-2.6 2.8 0 1.4 1 2.5 2.4 2.7h.3l32.8-.6c1.5 0 2.6-1.3 2.6-2.8-.1-1.5-1.3-2.7-2.7-2.7zM75.9 132.9l-19.9.5c-1.4 0-2.6 1.3-2.6 2.8 0 1.4 1.1 2.5 2.4 2.7h.3l19.9-.5c1.4 0 2.6-1.3 2.6-2.8 0-1.5-1.2-2.7-2.7-2.7z"/><path fill="#E67A25" d="M96.1 73.9l-9.4-9.4-12.9 29.3-15.4-16.4-13 18.8c.6 2 1 4 1 5.7v1.2c0 4.5 3.7 8.3 8.3 8.3h22.7c4.5 0 8.2-3.7 8.2-8.3v-1.2c0-4.5 2.6-10.9 5.8-14.1 0 0 4.3-4.3 7.9-10.7l-1-1-2.2-2.2z"/><path fill="#F5C115" d="M127.9 26.4c0-.2 0-.3-.1-.5l-3-15.1c-.4-1.7-1.9-2.4-3.4-2.2-1.1-.2-2.4.1-3.9 1.5L104.6 20c-2.1 1.6-2.2 3.7-.2 4.5 1.3.5 3.2 1.3 5.1 2.1L108 26l-7.7 18.6C94.2 31.9 81.1 23.1 66 23.1c-21.1 0-38.2 17-38.2 38 0 11.4 8.7 22.2 11.7 25.6l17.6-25.5 13.6 14.4 12.7-28.8 11.3 11.3 3.9 3.9 4.3-10.4 9.8-23.6 1-2.3c-1.7-.7-3.6-1.5-4.8-2-1.6-.6-1.5-2.2.2-3.5l10.2-7.7c.3-.2.6-.4.9-.5 1.3-.5 2.4.3 2.6 1.9l.4 3 1.2 8.6.1.9c.1.9 0 1.7-.4 2.2-.3.4-.7.6-1.1.6-.3 0-.5 0-.8-.2-1.2-.5-3-1.2-4.7-1.9-.1 0-.1-.1-.2-.1h.1s.1.1.2.1c1.7.9 3.8 2.2 5.5 3.1.5.3 1 .6 1.4.8 1.7 1 4-.8 3.9-3.1l-.5-1.5z"/></svg>