<svg xmlns:xlink="http://www.w3.org/1999/xlink"  version="1" xmlns="http://www.w3.org/2000/svg" viewBox="0 0 150 150"><path fill="none" d="M57.4 47.2V47l-.4-.1-.3.1-.1.2-.3.1-.1.1-.2.2v.3l-.3.1-.1.2-.2.1v.7l-.3.3-.2.2-.1.2v.1l.1.1.4.2-.3-.1-.1.3v.3s0 .3-.1.3c-.1.1-.2.3-.2.3l-.3.1-.3-.1h-.3l-.1.2-.1.4-.1.3h-.7c-.2 0 0 .2 0 .2l.2.2.2.1v.3l-.1-.1-.2-.1-.3.1-.5.1-.3.2.2.2h.1l.3.1.3.1h.1l.1-.2h.2l.2.2.3.1h.3l.3.3s.1.1.3.2c.1.1.4 0 .4 0l.3-.3-.1-.3.3-.2h.6l.3-.3s.2-.4.2-.6c0-.2-.2 0-.3 0-.1 0-.4-.1-.4-.1l.3-.3s0-.2.1-.4c.1-.1.1-.2.1-.2l.1-.3-.3-.2v-.3l.2-.4.1-.2v-.6l-.3-.1.3-.3.3-.2.4-.3.5-.3s-.1-.2-.2-.3c-.1-.1-.1 0-.3-.1-.1 0-.3-.1-.3-.1l.1-.2.3-.1.4-.1v-.2l-.1.1z"/><path fill="none" d="M52 51.1l.3.2s.3 0 .3-.1.3-.3.3-.3l.2-.2c.1-.1.2-.3.2-.3v-.2l.3-.1.4-.1.2-.1v-.2s-.1-.1 0-.2l.2-.1.1-.3h-.7l-.1-.2-.2-.1-.2.1v.1s0 .1-.2.2h-.4V49h-.3v.2l-.2.1-.3.1v.1l.1.3s.2.2 0 .2h-.4v.4h-.4s0-.1-.1 0l-.3.3v.5l.4-.2h.7l.1.1zM59.1 39.7l-.1-.2-.1-.1H58.3l.1-.2V39l-.2-.1-.2-.1-.1.4-.2.2h-.4l-.3.4s.2.2 0 .3c-.2.1-.3.1-.3.2v.5s.1 0 .2.2c0 .2-.1.3.1.3h.6l.1.1.5-.1h.8l.2-.1.2-.2.1-.2v-.2l.1-.2.1-.3v-.2l-.2-.2h-.4zM71.5 26.4c0-.2-.1-.3-.1-.3s.4-.1.6-.1-.3-.4-.4-.4h-.5l-.2.2.1.5c-.1.1.5.3.5.1zM73.3 26.7l.6-.1.3-.3-.4-.2s-.4.1-.6.1c-.2 0-.3.1-.3.1l-.2.2.1.2h.5zM71.9 30.1l-.3-.1H71l-.3-.4s.1-.3.5-.3 0-.2 0-.2l-.6-.1-.4-.2-.4-.2-.4.2s-.4-.1-.6-.1c-.2-.1-.1-.4-.1-.4l-.1-.3h-.5c-.2 0-.3.1-.3.1l-.3.4-.1-.3-.3.1-.4.1h-.5l-.2.1-.2.6-.4.2-.4.3-.5.1-1.2.4-.3.3-.4.1h-1.1c-.3 0-.3.2-.3.2s-.2.3-.4.3-.1.2-.3.3c-.2.1-.4-.2-.4-.2s-.4.1-.6.2c-.2.1 0 .4 0 .4s-.4.1-.6.1c-.2 0-.3.1-.4.1-.2 0-.2.1-.6.1-.3 0-.2-.1-.2-.1h-.6l-.5.1s-.5.2-.7.3c-.2 0-.2.2-.2.2l-.6.1-.5.3v.3h-.8l-.3.3-.6.3-.3.3-.4.3-.4.3-.4.3-.1.4-.4.4-.4.4.2.2.3.1.5-.3s.8-.3 1.1-.3c.2 0 .2-.3.2-.3l.4-.1h.4l.4-.3h.3l.3-.4.3.3.7.1.3.2v.2h.9l.4-.1h.7l.4-.3.1.4.4.4.3.2.8.1h.6c.2 0 .5-.1.5-.1v-.5l-.4-.3.2-.3.4.1h.3s-.1.3-.1.5-.1.4-.1.4.6-.2.7-.3c.1-.2.3 0 .3 0l.3-.9s.3.1.5.1.3-.3.3-.3l.1-.2.2.2.3.3s.2-.1.4-.3c.2-.2 0 0 .3 0s.1-.3.1-.3l.8-.3h.2l.2-.1.2-.4.5-.2h.3l.2.1.2.1.3-.2V33l.3-.1.5-.2.9-.1.5-.2H71.1l.5-.1V32h-1.1l-.1-.5.6-.1-.1-.2.2-.2.4.3.3.2.2-.2.1-.4.3.2.3-.2-.4-.2-.4-.6zM68.5 27.5l.5-.2.2-.4h.5l.1-.4h-.5l-.5.3h-.5l-.2.3-.4.3.3.2zM73.6 28.8s.2-.4.3-.8c.1-.3-.4-.1-.4-.1l-.8.1s-.4-.1-.4-.3c.1-.2.3 0 .3 0l1 .1.3-.4-.5-.2h-1.2l-.3-.2-.4.1-.1.4-.4.1h-.2l-.4.1s-.2-.1-.1-.5c.1-.6-.3-.2-.3-.2l-.4.3-.2.3-.6.2.2.2h.4c.2 0 .5.2.5.2l.5.2.4-.2.1.3.5.5.6.1.2.4s.3.2.4.2c.2 0 .6-.3.8-.3.1-.1.2-.6.2-.6zM80.3 35.3H80l-.1.2.1.4.3-.2.3-.2-.1-.1zM75.8 23.8c-.2-.1-.3 0-.3 0l-.5.2-.1.4-.2.2h1c.2 0 .4 0 .6-.1.2-.1.2-.3.2-.3v-.3h-.2c.1 0-.3 0-.5-.1zM75.2 36c0-.1-.1-.3-.1-.3l-.2-.1v-.3h-.6l-.3.2-.1-.5-.2.5.1.3-.1.2.2.2h-.3l.2.2-.4.2-.3.3.1.3.1.2.2-.1.2-.3.3-.2.2-.3.3-.3.2-.1.1.2.1.1-.1.4s.1.1.3.1c.1 0 .2-.2.2-.2v-.5c0-.1 0-.1-.1-.2zM76 35.5l-.3-.1-.4-.1s-.3.2-.1.3l.1.3.1.3.3-.1h.4l.2-.2s.1-.3 0-.3c-.1-.1-.3-.1-.3-.1zM51.3 64.3v-.2L51 64l-.1.2.1.2zM56 68.5v.3c0 .1.2.3.2.3h.1l.1.3.1.2.2.2.3-.1v-.5l.1-.3.2-.3.1-.1v-.2h-1.2l-.1-.2-.2-.2.1-.1h-.3l-.2.1v.3l.2.1.3.2zM54.9 64l.2-.3.2-.2v-.8h-.2l-.2.2h-.2v.2l-.1.3.1.6zM63 72.8h.4l.1.1.3.2h.8c.1 0 0-.2 0-.2l-.1-.2H64l-.2-.1h-.3l-.1-.3-.4-.1-.5.1h-.1v.2s.1.2.2.2c.2.1.4.1.4.1zM61.6 51.8l-.2.2s.2.3.2.4c0 .1.4.1.4.1.1 0 .1-.2.1-.2l.1-.3v-.2l-.3-.1h-.3zM69.6 74.4H70.5l.4-.3.2-.3.2-.2.1-.2h-.3l-.4.2h-.9l-.3.2v.2l.1.2v.2zM53.6 66.4l.4-.1.1-.1h.2s.1-.2.1-.3c0-.2.3-.2.3-.2v-.4l.1-.3.1-.3v-.2l-.1-.2-.3.1-.3.1-.3.1v.5l-.2.3-.2.2v.5c0 .1.1.3.1.3zM43.6 37.2c-.2.1-.6.2-.6.2l-.6.2-.1.4-.2.3-.3.5-.1.3.2.2.6-.2.6-.6.3-.4.2-.5.4-.3.6-.3.1-.3-.4.1c0 .1-.5.3-.7.4zM81.1 43.2h-.4l-.1.4.3.4h.3l.2-.3v-.2l-.1-.2zM60.9 52v.2l.3.2.2-.1v-.2l-.1-.1zM41.9 37.8v-.6l-.4.2-.2.4.3.5.3-.1zM50.5 64.4l.1-.2v-.1l-.2-.1-.2-.1-.1.1v.2l.2.2zM73.5 25.6l.7-.1.7-.1V25h-1.7l-.5.5h.6z"/><path fill="none" d="M126.8 54.4h.3c-.3 1.4-.7 2.7-1.1 4.1l-.2-.2-.2-.2-.2-.2-.2-.2-.2-.1h-.2-.2c-.2 0-.4-.1-.4-.1l-.1-.5v-.3l-.1-.2-.2-.3V55l.1-.2v-.1l-.1-.2-.1.1-.1.1h-.2c-.1 0-.2.1-.2.1l.1.4v.7h-.2l-.3-.2-.2-.1H122.3l-.1-.1-.1-.1-.2-.2v-.4-.3-.3l-.1-.2-.1-.1v-.5-.2l-.1-.1-.1-.2v-.7h.4l.1.3s.1 0 .1.1c0 .2.1.3.1.3s.1 0 .1.2v.3l.3.1v-.2c0-.1.1-.4.1-.4l-.1-.3v-.3l.1-.2.1-.2s0-.2.1-.2.2.1.2.1l.1.3s.2.1.2.2v.3l.1.3.2.2h.4l.1-.1.4.1s.1.3.1.4c0 .1.3.3.3.3s.1.2.2.3c.1 0 .3.1.3.2s.1.3.1.3l.2.4s.2.1.2 0v-.3-.8l-.1-.2-.2-.2-.1-.1-.2-.3-.1-.2-.2-.2-.2-.1-.1-.2-.2-.2-.1-.1-.3-.1-.3-.1-.2-.2h-.4l-.1-.4-.1-.2-.2-.3v-.3l-.1-.4-.3-.2v-.3l-.2-.2-.2-.2-.1-.3-.2-.3-.2-.2-.1-.1-.1-.2v-.2l-.1-.2-.2-.2-.2-.2.3-.1h.2V47c0-.1-.2-.4-.2-.4l-.2-.3-.4-.6-.2-.2-.2-.3-.2-.3-.2-.3-.4-.5-.1-.3-.7-.6-.2-.3-.1-.2-.1-.1-.2-.3-.4-.3-.2-.2-.2-.2-.1-.1-.4-.4-.5-.3-.4-.4-.4-.2-.2-.3-.4-.4-.4-.2h-.3l-.3-.1-.2-.2-.2-.1-.2.1v.1l.1.1.1.1v.3l-.2.1h-.1c-.1 0-.4.1-.4.1l-.6-.3-.3-.3-.2-.2-.5-.5-.4-.4-.5-.5-.4-.4-.3-.3-.3-.2-.4-.4-.2-.3-.1-.3-.1-.3-.1-.2-.2-.3-.1-.3-.2-.2-.2-.2-.2-.2v-.6l-.1-.1-.2-.1-.2-.1-.2-.1-.4-.2-.2-.2-.2-.1-.4-.2-.2-.2c-.2-.1-.5-.3-.5-.3l-.3-.4-.1-.1-.2-.2h.1l-.1-.1-.1-.2-.2-.2-.4-.2-.2-.2.6.1.4.3.4.2.5.3.3.1.2.2.3.1s.3.3.4.3c.1 0 .7.4.7.4l.7.4.4.2s.3.1.4.2l.3.3.3.1.2.2.4.2.8.2.5.3s.2.1.3.2c.1.1.3.1.3.1l.4.1-.1-.7-.2-.3-.5-.2-.3-.2-.3-.1-.3-.3-.4-.2-.4-.2-.2-.3s-.2-.1-.2-.2c-.1 0-.3-.1-.3-.1l-.2-.2-.4-.2s-.2-.1-.3-.1c-.1 0-.3-.2-.3-.2l-.3-.1-.4-.3-.4-.1-.4-.2-.3-.2-.6-.3-.4-.1-.6-.3-.5-.3-.4-.3-.4-.3-.6-.3-.3-.2-.3-.2-.6-.3-.5-.2-.5-.2-.4-.2-.4-.2H99l-.3-.2-.3-.1h-.7c-.1.1-.2.1-.2.1l-.4-.1-.1-.2-.4-.1-.6-.1h-.3l-.3-.2-.3-.3-.3-.3-.3-.2h-.4l-.4-.1-.3-.1h-.2v.2h.5s.3 0 .3.1v.8c0 .1.1.3.1.3l.3.1c0 .1.2.3.2.3l.1.1.2.1.1.1.3.2h.8l.3.1.1.4s.2.1.2.3c0 .1.2.2.2.2l.3.2.2.2s.1.2-.1.2H96.7v.4l.2.2c.1.1.4.1.4.1v.4l-.4.1v.2l-.3-.1h-.1l-.1.3-.1.2c0 .1.1.5.1.5h.2l.4.1.4.3.3.1.3.3-.4.3-.1.7.1.2.4.1.1.2-.1.2h-.8l-.4-.1-.4-.2-.4-.1-.4-.1v.3h-.3v.2c0 .1.1.2.1.2l.2.1v.2l-.1.5h-.7l-.2.3.1.2h-.2l-.1.1-.2.3v.4s.1.2 0 .3c-.1.1-.2.1-.2.1l-.2-.2-.1-.4-.2-.3-.2-.2-.1-.2-.1-.2-.1-.2-.2-.1h-.4l-.2-.2h-.1l-.1-.3h-.4l-.2.2v.3h-.1l-.1-.1H91l-.3.1-.2-.1-.1-.1-.2.1-.2.2.2.2s.2 0 .3.1c.1.1.1.4.1.4l-.2.2v.4h-.2l-.2.2v.2l-.2.2-.1.4-.2.5.2.2.2.2-.1.4-.3.1-.2.1-.3.1v.2s.2 0 .2.1.1.2.1.2l.2.1.2.1s.1.1.2.1c.2 0 .3.1.3.1l.2.1h.3l.1.1c0 .1.1.3.1.3l.3.1.1.2.1.2v.2H91.1c-.1 0-.2-.1-.2-.1l-.2-.3-.1-.2-.2-.3h-1.2v.3l.2.1-.1.1.3.1.2.1.1.1H88.8l-.2-.2-.1-.2-.2-.2-.1.2-.1.3s.1.2.1.3c0 .1.4.3.4.3l.1.1v.3l.1.1.1.3.2.2.2.1h.3l.3-.1h.3l.3.1h.3l.1.2.1.2.1.1v.2h.7l-.2.1h-.5l-.2-.1-.1-.2-.1-.2-.1-.2h-.1l-.3-.1-.2.1-.1.2.1.2.1.3v.2l.1.5-.1.4-.1.3-.3.1h-.3l-.4.1v-.2l.2-.2.1-.1.2-.4v-.5l-.1-.3-.1-.2h-.2l-.1-.2-.2-.2-.1-.2-.2-.3-.2-.3-.2-.3-.1-.2-.2-.2v-.2l-.1-.2-.3-.4-.2-.1h-.5l-.1.2v.3l.1.2v.3l-.1.2v.3h.3l.1.2v.5c0 .1.1.2.1.2l.3.1.2.1.2.1.1.3.1.1-.1.3-.4-.2-.3-.1-.3-.1-.4-.1h-.9l-.3-.1h-.2v.2l.1.1.1.3-.3.3-.3.2v-.2l-.1-.2-.2-.1-.2.3h-.6l-.1.2-.2.2H83l-.1-.2v-.2l-.4-.1v.2l-.1.1h-.5l-.3.3-.4.3-.3.2-.1.4-.2.1-.3.1H80l-.2-.1-.1-.1-.1-.2.1-.1h.1l.3-.1.1-.2-.1-.2-.3-.2h-.4v.3l-.2.3v.2s-.1.2 0 .3c.1.1.3.2.3.2l-.1.3v.5h-.3l-.2-.2-.2-.2h-.3l-.1.3H78l-.3.1-.2.3.2.2.1.3-.1.2h-.3l-.3-.1-.3-.1-.2-.2-.2-.2-.1.1v.2l.1.1h.2v.2c0 .1.1.3 0 .3h-.4l-.2-.1-.3-.1-.3-.2v-.3l-.1-.3v-.2l.1-.1v-.2l-.1-.3-.3-.1-.2-.2-.1-.2v-.4l.2.1.3.1.1.1h.2l.3.3h.2l.2.1h.1l.3.1h1l.1-.1.1-.1.2-.2v-.6l-.3-.1-.4-.2-.2-.2-.3-.3-.2-.2-.2-.2h-.8l-.4-.3-.2-.2H74.4l-.1-.2-.1-.2.1-.1h.4V42l-.2-.1-.2.1-.3.1-.2-.2v.1l-.3-.1-.3.3H73l.1-.2.1-.2h-.3l-.2.2-.2.2-.2-.1-.1-.1-.2.3-.4-.2-.2.1-.3.1h-.2s-.4-.1-.4.1c-.1.1 0 .2-.1.3-.1.1-.4.1-.4.1l-.3.2h-.2l-.4.3h-.2s-.1.2-.2.2h-.3l-.4.2-.2.3-.4.2s-.2 0-.2.1-.3.3-.3.3l-.3.2s-.3-.1-.3.1c0 .1-.2.2-.2.2h-.3l-.4.1-.1.4h.4l-.1.2-.3.1-.3-.2H63.9l-.1.2h-.2l-.3.1-.3.2-.2.2h-.4l-.3.3.3.2h.4v.1h-.7s-.1-.1-.1 0v.4l.2.1-.2.1-.4.4-.1.4-.5.2-.1.2.1.2.1.2v.3l.2.1h.7c.1 0 .3-.2.3-.2l.2-.2h.4l.2-.3.1-.3.1-.2.1.1-.1.4-.1.3v.4l-.1.5-.1.2v.4l.1.3-.1.3v.3l-.1.2-.3.2-.1.3v.2l.1.1.3.1h.3l.1-.2.1-.1.1-.2h.1l.3.1h.3l.3-.1.1-.2s.2-.1.3-.2c.1-.1.2-.2.2-.4 0-.1.1-.3.1-.3l.2-.2v-.3s-.1-.1 0-.2.3-.1.3-.1h.4l.1-.1V50l-.2-.2-.1-.1h.3s.1 0 .2.1h.5l.1-.3-.1-.2-.1-.3h-.4l.1-.1c0-.1.2-.1.2-.2v-.3l.1-.2.2-.1s0-.2.1-.2.2-.1.2-.1v-.3l.1-.3h.3v-.1l.4-.1.3-.1s.2 0 .3-.1.2-.1.2-.1h.4l.1-.1.3-.1.1-.1.1-.2.2-.4.2-.3.2-.1.2-.2h.5l.3.1.3.1.1.3v.4l-.2.2h-.2l-.2.1-.3.1-.2.2-.3.1-.3.2h-.3l-.2.1-.3.1-.2.3-.3.4v.4l-.2.3v.3l.1.3.3.2v.3l.1.1H69.8c.1 0 .3-.1.3-.1l.3-.1h1.2l.1.1.2.1.1.1h.2l.2.2-.1.2H71.4l-.1.2h-.4l-.1-.1-.3-.2-.1-.1h-.8-.2c0 .1-.3.2-.3.2v.2l-.2.3s0 .2.1.2h.4l-.2.3-.2.7-.2.3-.1.3H68.4l-.1-.2-.1-.1-.1-.2-.1-.3-.2-.1-.1.1-.2.1-.1.3-.3.1-.2.4-.1.3.1.2-.1.3-.1.2-.2.2h-.2l-.1-.1h-.1l-.3.2-.3.1H65l-.1-.1-.1-.2-.2-.1-.3.1h-.5l-.5.1-.4.1-.4.1-.1.1-.3-.2v-.4l-.1-.1h-.2l-.2-.1-.3.1H61l-.3-.1V53.1l-.1-.2v-.4l.1-.3.2-.2.2-.2.3-.1h.3c.1 0 .2-.1.2-.1l-.2-.1-.1-.1v-.2l.2-.1.2-.2v-.1l.1-.2v-.1h-.3l-.4.2H61l-.3.2v.4l-.1.3-.2.2v.3l-.1.3-.1.3-.1.2-.1.3-.1.2h-.2l-.1.2h-.1l-.2-.2-.1-.1H59v.2h-.2l-.3-.2-.1-.1h-.2l-.1.1s-.1.3-.2.4l-.3.3-.1-.1v-.2s0-.2-.1-.1c-.1 0-.3.2-.3.2l-.2.3-.1-.1-.1.3h-.5l-.1-.1h-1l-.2.3-.2.3h-.8l-.1.2h-.2l-.3-.1-.1.1-.2-.2v-.2h-.1v.2l-.2.2-.1.3h-.3l-.2-.1h-.2l-.1-.2-.3-.3h-.4l-.1.2-.1.3.1.3.1.2.2.3.1.3.1.3-.2.2s-.1.2-.1.3c0 .1.2.3.2.3l-.2.4v.5l-.3.1-.2.3-.2.2-.2.4-.3.3-.4.2-.5-.2-.2-.2-.3-.2-.2-.2h-.2l-.3-.2-.2-.2-.2-.1-.3-.3-.1-.2-.1-.2-.2-.1-.2.1h-.5l-.1.3v.3l-.1.2-.1.2-.2.3-.1.3-.4.3-.1.4-.3.3-.3.3-.4.4-.2.2v.4l.1.1.1.2-.2.2c0 .1-.2.3-.2.3l-.4.4v.3h.1l.2.2h.4l.3.1.1.4V64.5l.1.3.2.1h1l.2.1.2.1.2.1.2.1h.2l.2-.1.2-.1.4-.3h.3l.3-.2.1-.1c.1 0 .1-.1.2-.1h.3l.1-.3v-.3s-.1-.2 0-.2.1-.1.2-.1l.2-.2.3-.2.1-.2.2-.1.1-.2.1-.1H51l.2-.1s.1-.1.2-.1.2-.1.2-.1l.1-.2v-.4l.1-.2.1-.1.1-.2h.4l.4-.1.1.1.1.3h.2l.2.2.1.1.1.1h.2l.2-.1.1-.1h1l.1-.2.1-.1.2-.1.2.1.2.1.2.2.1.3-.1.3v.4l.1.3v.4l.2.2.1.2.1.3.1.4.1.3.1.3.2.1s.3-.1.3 0 .2.2.2.2l.1.3.2.3.1.1v.3l.1.2h.2v.3l.1.5v.3l-.1.2h-.1l-.2.4-.2.3v.1h.3s.1-.1.2-.1c.1-.1.2-.1.2-.1l.1-.2.1-.2.2-.1.2-.1v-.4l-.1-.2V67l.1-.2.1-.2.2-.1h.2l.2.2.1.2.1.2v.2h.2l.1-.3v-.3l-.2-.2-.1-.3-.3-.1-.2-.2-.1-.2-.2-.1-.1-.1-.2-.1.2-.2V65l-.1-.1h-.2l-.2-.1s-.1-.1-.1-.2-.2-.3-.2-.3l-.1-.3V62.9l-.3-.2-.2-.3v-.5l.1-.2.1-.2v-.2l.2-.2h.2l.3-.1h.4v.2l-.1.1v.4l.1.1.3-.1.2-.2.1.2V63l.1.3.1.4h.4l.3.4.1.3.2.1.1.2v.2l.2.1.2.3.1.2.2.2v.3l-.1.3v.4s-.1 0-.2.1c0 .1-.2.4-.2.4v.4l.1.1.1.3.3.3.1.2.2.1-.1.2-.1.1v.2l.3.1H62.6l.1.1h.2v.3l-.1.1-.2-.1-.1-.1h-.7l-.2.2.1.2h.2v.3l.1.2-.2.3v.2h.2l.1-.2.1.3.1.1h.3l.1.3.2-.1-.1-.4v-.5l.1-.1.1.1.1.1s.1 0 .1-.1-.1-.3-.1-.3l.1-.1h.2l.1.1h.2l.1-.1-.1-.2-.1-.2v-.1l-.1-.2-.4-.3H63l.1-.3.1-.1v-.5l-.1-.2v-.6h.2l.1.3v.2h.4l.2-.2.1-.2.2-.1h1l.1.2.4.2h.3l.3-.2h1.2v-.2l-.2-.3v-.2l-.1-.2-.1-.2-.1-.2v-.4l.1-.1.1-.3.1-.3.1-.1h.2l.2-.3v-.2l.1-.1.2-.3.2-.3h.1l.2.1.3.1v-.2l.1-.2V63.3h.3l.1-.2.1-.2h.1l.2-.1.3-.1.2-.1h.3l.1.3.2.1.2.1H71.9l.2.2-.1.1h-.2l-.2.1-.1.2.1.1.3.2v.2l-.1.3v.2l.1.1h.1l.2-.1h.2s0-.1.1-.1.3-.1.3-.1h.2v-.2h.4l.2-.1.2-.1s0-.2-.2-.2h-.5l-.2-.1-.1-.1-.1-.1-.2-.1-.1-.1-.1-.2h.6c.1 0 .2-.1.2-.1l.2-.1.2-.1.3-.1.1-.1h.4l.3-.1.1-.1h.3l.1-.1h.7l.1.2-.2.1-.2.1-.1.2H75l.3.2s.1.1 0 .2c-.1 0-.3.1-.3.1l-.2.1v.2l-.2.2h-.2l-.4.1.1.4.4.3.2.2.3.1.2.1.3.2.1.1.2.2.2.2.1.2.2.1.3.1.2.1s.1-.1.1 0 .1.2.1.2v.4l.2.2-.1.3-.1.3-.2.1-.3.3-.2.2H76l-.2-.2h-1.1l-.3-.1H74s-.1 0-.2-.1h-.4l-.2-.2v-.1l-.1-.1-.2-.1h-.3l-.1-.2-.1-.2H71l-.3.1-.3.2-.2.1H70l-.2.1-.3.1h-.2l-.1-.1-.3-.1h-.4l-.2-.1h-.1v.2H68.5l.1.2H68s-.1-.1-.2 0v.1l-.4.1h-.8l-.1-.1h-.1l-.3.1-.2.1-.1.2-.2.3-.1.3h.2s.1-.1.1 0v.7l-.2.2-.2.2.2.1.2.1s.2 0 .1.1c0 .1-.1.3-.1.3s.2 0 .1.1-.2.4-.2.4.2-.1.2 0v.3h.5v.2l.1.1h.2v.2s.2-.1.2 0v.2l.1.1h.1l.2.1h.6l.1-.3.1-.2.2-.1.4.1.2.1.2.1.1.2.2.3.3.2h1l.2-.2.1-.2.1-.1.3.1.2.1.2.1.1-.1.2-.2h.3l-.2.3-.2.2v1.5l-.1.2s-.2.1-.2.2-.2.5-.2.5l-.3.3s0 .1-.1.3c0 .2-.3.5-.3.5l-.1.4-.1.3-.3.4-.4.3-.3.1h-.2l-.5-.1-.3-.2-.2-.2-.2-.2H67l-.6.1-.2.2h-.3l-.4-.1-.4-.2-.1-.1-.4-.1-.3-.2h-.4l-.4-.1h-.3l-.1-.3v-.1l-.5-.3h-.5l-.2-.2-.3-.2-.1-.3v-.2l-.3-.2-.2-.1-.5-.1h-.7l-.3.1-.2.2c-.1.1-.1.3-.1.3v.4l-.1.4-.3.4-.4.2H58c-.1 0-.3-.3-.3-.3l-.2-.3-.2-.3-.4-.2-.2-.2-.4-.1-.4-.1-.1-.2v-.7l-.1-.1-.2-.3-.3-.2-.3-.2-.2-.3-.5-.1h-.3l-.2-.2-.1-.2-.1-.1-.2-.1-.2-.2-.1-.3-.2-.2-.2-.3v-.1s0-.3.1-.3.3-.1.3-.1l.3-.2.2-.2.2-.1.1-.1V69l.2-.1.2-.1.1-.1V68.4H54l-.1-.1-.1-.2-.2-.1-.3-.1h-.1c-.1 0-.2.1-.2.1h-.7l-.3-.3-.3-.1-.3-.1h-.7l-.2-.1s0-.1-.2-.1-.5-.1-.5-.1l-.3-.2h-.4l-.3-.1h-.2l-.4-.1h-.8s-.2.1-.3.1H46l-.3-.1-.3-.2-.2-.2s-.2-.2-.3-.2c-.1 0-.4-.1-.4-.1l-.1-.3v-.2l-.1-.3-.1-.2-.3.1-.2.2c-.1.1-.2.3-.2.3l-.3.3s-.2.2-.4.3c-.1.1-.3.1-.4.1h-.9s-.2 0-.3.1c-.1 0-.2.4-.2.4l-.3.1-.2.3-.2.2-.4.3-.1.2-.2.5v.5l-.2.2-.3.1-.4.2h-.5s-.2.2-.3.2h-.5l-.2-.1s-.2 0-.2.1-.3.5-.3.5-.1.1-.2.1c-.1.1-.5.1-.5.1s-.2.1-.3.2c0 .1-.2.2-.3.4-2.2-6.3-4.1-12.7-5.6-19.3C33 46 37.1 40.9 42 36.6v.2l.4-.1.3-.5.6-.3.2-.3.2-.2h.4l.6-.4c.3-.2.2-.4.2-.4l.2-.3.3.3-.1.2-.1.3-.3.3-.2.4v.4l.2.3h.1l.5-.4.5-.1.2-.5.4-.3v-.3l.2-.3.3.3.1.3.3-.4.4-.4.3-.4.4-.2.3-.4.7-.3h.2l.7-.3s.2-.3.3-.5c.1-.1.5-.1.5-.1h.4l.4-.4.6-.2h-1s0-.5.1-.7c.1-.2.3 0 .3 0h.4l.3-.4.2.1.3-.3.4-.2.4.2.3-.2.5-.3.3-.2.3-.3h.4l.4-.2.2-.3.7-.5h-.3l-.7.2-.4.2-.4.1-.3.1-.2-.1-.4.1-.2.2-.4-.1-.2.2-.4.1-.5.2-.4.1-.3-.1H52c3.1-1.7 6.3-3.1 9.7-4.2v.3l-.1.2s-.2.1-.4.1-.5.2-.5.2l-.4.2-.2.3.3.1.6-.2H61.9v.2H63.8l-.1.5h-.8c-.5 0-.2.1-.3.3-.1.2-.4.1-.4.1h-.5c-.2 0-.2.2-.2.2l-.4.4-.3.1H59.6l.7-.7s-.4-.2-.4-.4-.5-.7-.5-.7l-.7.5-1.1.4v1.5l-.6.1-.3.2-.5.2-.2.3-.6.3-.3.2h.4l.7-.3-.5.7h.3l.6-.3.7-.5.4-.4.6-.1-.2.5-.7.4v.3h.4s.4-.1.6-.1l.4-.2.4-.5.8-.7.6-.2.4-.1s.6-.1.7-.1c.2 0 .5-.3.5-.3l.6-.3.4-.1 1.2-.3.4-.1.6-.4h.4s.4-.2.7-.2c.2 0 .1-.3.1-.3s.1-.3.2-.5c0-.2.2.1.2.1l.8-.1-.3-.3c-.1-.2-.2-.1-.4-.1-.3 0-.4.2-.4.2l-.8.1h-.3l-.8.2s-.3-.2-.7-.2c-.4 0-.1-.2-.1-.2l1.1-.1v-.3h.4l.6-.2H67l.3-.1.2-.4-.2-.2-.7-.1.2-.1.2-.1.2-.2.5-.2h.7l.4-.2.7-.2.4-.3.6-.1.9-.2h.6l-.1.2-.8.2-.7.1-.8.3-.3.4h.7l.4.1.7.1h.4l.5-.2s.3-.1.5-.2.4 0 .4 0h.7l.4-.1v-.4l-.6-.2-.4-.1.6-.2h.9c.2 0 .7-.1.7-.1h.8c.3 0 .4-.1.4-.1h.8l.5-.1h3l.7.2h1l.8.3h1.5l.8.2.2.1.5.1.6.2H89l.4-.1.4-.2.6.2.1-.1c-.1 0-.3-.1-.4-.1l.5.1c15.9 3.2 29.4 13 37.5 26.5-.3 1.3-.6 2.7-.9 4-.1-.2-.3-.4-.3-.4h-.1v.9z"/><path fill="none" d="M127.1 53.4v-.2l-.1-.4-.1-.5v-.7l-.1-.2-.2-.4-.2-.3v-.5l-.2-.5-.2-.3-.1-.5-.3-.5-.5-.6-.4-.6s-.5-.5-.7-.5c-.2 0-.2-.4-.2-.4l-.2-.3-.4-.4v-.3s-.2-.3-.3-.4c-.1-.1-.3 0-.3 0l-.1.3.1.2.1.2.3.2.3.4s.2.3.3.5c.1.2.3.3.3.3l.1.2.3.5.4.4.3.3s.1.2.3.4c.1.2 0 .4 0 .4l.2.4.3.3.1.4.1.3v.4l.1.4v.4s.1.3.2.3c.1.1.1.5.1.5s.1.3.1.4c0 .1.1.3.1.3l.4.1h.1zM76.2 90.7l.1.2.2.1.1.2.1.1.1.1.2.3.1.2.1.2.1.3.1.3v1.1l.1.2v.4l.1.2v.3l.1.1v.3l.1.1v.3l.1.1v.3h.1l.1.1h1.2l.2-.1.2-.1.1-.2.2-.1.2-.2h1l.3-.1.2-.1.2-.1.1-.2.2-.2h.8l.2-.1.1-.1.1-.2.2-.1.4-.1.5-.2.2-.1.3-.1.1-.2h.3l.3-.2.2-.2.2-.1.2-.1.1-.3v-.2l.1-.1.1-.2.2-.1h.2l.2-.1.3-.1.1-.1.2-.1.2-.1.1-.1h.6l.2-.1.3-.2V91l.1-.2c-4.3-.1-8.7-.3-13.2-.7v.1l.1.5zM121.1 43.2l-.3-.3-.2-.3-.2-.3-.1-.3-.2-.2s-.1-.1-.1 0-.2.2-.2.2h-.5v.1l.4.3.2.4.4.2.2.4s.1.1.1.2.3.4.3.4l.3.2v-.8l-.1-.2zM82.6 35.1v-.5l-.4.1v.2l.2.2z"/><path fill="none" d="M38.1 83.8c1.5 3.3 3 6.6 4.6 9.8 8.5 16.4 20.1 32 36.1 41.6 15.3-9.2 26.5-23.9 34.9-39.5.2-.3.3-.6.5-.9l.6-1.2c.8-1.6 1.6-3.3 2.3-4.9l-2.7.6c-.6 1.2-1.2 2.5-1.9 3.8l-.4.8-.2-.1-.1.4v.3l-.1.1c-9.5 17.5-20.3 30-32.9 37.9-3.3-2.1-6.5-4.4-9.5-7.1l.3-.1h.3l.3-.2.4-.1.1-.3.1-.3v-.8l-.3-.3-.2-.3-.2-.2-.1-.4.3-.2.3-.2.4-.2.4-.1.3-.5h.3l.4-.3.6-.2h.8l.3-.3.2-.3h.3l.2-.2.2-.3.2-.4-.2-.3v-1.3l-.1-.3.1-.2.1-.3.1-.2v-.3l-.3-.3-.3-.2-.1-.4-.2-.2-.2-.4V113.3l-.3-.2-.2-.2-.1-.2.1-.3v-.4l.1-.4.2-.2.3-.3.2-.4.2-.3v-.3l.3-.3.3-.2.2-.2.3-.3.3-.2.3-.2.2-.3.1-.2.3-.2.2-.1.4-.3.4-.3.4-.4.4-.4.3-.2.5-.2.4-.2.3-.3.4-.3.1-.3.3-.2.3-.2.2-.2.3-.2.2-.1.2-.4.2-.3.2-.2.4-.2.2-.2.2-.2.1-.3.1-.3.2-.3.2-.3.3-.5.1-.2.1-.4.3-.2.1-.3.3-.3.1-.3v-.4l.1-.4.1-.2.1-.4v-.9l-.3.1-.1-.1-.2.1h-.3l-.2.1h-.3l-.3.1-.2.1h-.8l-.2.2H82l-.3.1-.2.1-.3.2H80l-.2.2-.3.1h-.7l-.2-.1-.1-.2.1.1-.3-.2-.1-.1-.1-.1-.2-.1h-.6l-.1-.1.2-.1.2-.1h.2l.2-.2v-.2l-.1-.2-.1-.2-.2-.2-.2-.1-.2-.2-.2-.4-.2-.2-.2-.2-.2-.1-.2-.2-.1-.2-.1-.2-.3-.2-.2-.1-.3-.1-.2-.2h-.2l-.2-.2-.2-.2-.1-.3-.1-.3-.2-.1v-1l-.1-.2-.2-.2-.2-.3v-.1l-.2-.2-.1-.2-.2-.2-.2-.1-.1-.1V90c-4.6-.5-9.3-1.1-14.1-2-7.3-1.3-14.2-3-20.7-4.9 0 .1.1.2.1.3-.1.2 0 .3.1.4z"/><path fill="none" d="M88.1 96.2h.5V96l-.2-.1H88l-.2-.1-.3.1v.3h.4zM84.4 118.5l-.1-.3-.1-.3-.1-.3-.2-.2-.2-.1h-.3l-.1.2v.3l-.3.2-.3.1-.2.1v.2l.1.2-.3.1-.1.2-.3.1s-.1-.1-.1 0-.1.5-.1.5H81.1l-.3.1s0 .2-.1.3c-.1.1-.3 0-.3 0s-.1-.2-.4-.1c-.3 0-.4.1-.4.1h-.4l-.2.1-.3.4-.1.6.2.3v.3l.2.3s.1.1 0 .3c-.1.2.1.1-.1.3-.1.1-.4.3-.4.4 0 .1-.2.5-.2.5l-.4.3v.3c0 .1.2.5.2.5l.2.4-.1.5.2.1s.2-.1.3.1c.2.1.3.1.3.2s.2.2.2.2h.4l.2-.2h1.1l.3-.2v-.2l.1-.3.2-.3.1-.3.1-.4.2-.3s.1-.3.2-.4c.1-.1.2-.4.2-.4l.1-.2.1-.2.1-.2.2-.4.1-.3.2-.3v-.6l.3-.1.1-.2v-.9h.3l.2.2h.2v-.3-.4c0-.1-.1-.3-.1-.3v-.3zM106.3 90.8l.2.2.2.2.1.2.1.2.2.2v.3l.1.2v.2l.2.3.3.2.1.3.3.2v.3l.1.2.2.2.1.2.1.2v.3l.1.3.2.2.1.3.2.1v.1l.1.1.1.2.2.1h.2l.1-.3.2-.2v-.4l.2-.1.2-.2.2-.2.1-.2v-.2l.1-.2.1-.3.3-.1s.3 0 .2-.1c0-.1-.1-.3-.1-.3v-.2l-.1-.3-.1-.2v-1.1l.1-.2.1-.2v-1l-.1-.4v-.1c-1.7.3-3.3.5-5.1.7v.1l.1.2zM84.6 37.4l-.3.2s0 .2-.2.3c-.1 0-.2.1-.2.1h-.4l-.3.3h-.1c-.1 0-.1.2-.1.2s-.1.1-.2.1-.2.2-.2.2l-.2.2v.6l-.2.2v.2l-.2.2v.3l-.1.1v.5l-.1.1v.2l.1.1h.1l.4.1.1.1.1.3.2.1h.6l.2-.1-.3-.2-.3-.3-.2-.3v-1.1l.1-.1.1-.5.3-.4s.1-.4.3-.5c.1-.1.2-.1.2-.1l.4-.2.3-.1.3-.2.3-.3-.1-.3h-.4zM88.9 33.9h-.3s-.4-.3-.2 0l.2.3.2.3h.4l.3-.3v-.3h-.6zM88.2 34l-.2-.2-.3.1-.1.1-.3-.1s-.2.2-.1.3c.1 0 .4 0 .4.2v.3l.5-.1h.5l-.2-.2-.2-.4zM117.7 40.4c-.2 0-.4-.1-.5-.2-.1-.1-.2-.4-.3-.4-.1 0-.5-.3-.5-.3l-.2-.3-.3-.3s-.3-.2-.4-.3c-.1 0-.4-.2-.4-.2l-.4-.2-.4-.2-.3-.2-.4-.1h-.2v.3l.3.3.5.1.4.4.4.1s.2.1.3.2c.1.1.2.4.2.4l.5.2.3.1.2.2c.1.1.3.2.3.2l.2.2.2.2.3.2.3.2.3.1.1-.1-.3-.3s0-.2-.2-.3zM94 30.2v-.3l-.1-.1h-.3v.2l.1.3zM93.5 31.4h1v-.2c0-.1-.1-.3-.1-.3l-.1-.2-.2-.1s-.2-.1-.3-.1h-.3v.3c-.1.2-.1.3-.1.3v.2l.1.1zM86.8 33.5l-.3.1v.3l.3.3s.2-.4.2-.5v-.1l-.2-.1zM82.3 35.2l-.2-.1h-.2v.3h.2zM95.7 31.5l.1-.2-.1-.3s0-.1-.1-.1h-.4v.4l.2.2h.3z"/><path fill="#007BA8" d="M134.6 50.8l-.3 1.5c3.3 4.1 4.8 8.1 4.1 11.9-.6 3.4-3 6.4-6.8 8.9-.1.1-.3.1-.4.2-15.1 9.6-51.3 11.8-92.2 4.4-8.9-1.6-17.2-3.7-25.2-5.9-3-.8-6.1-1.6-8.9-2.5 7.6 4.6 17 8.7 27.6 12.2 1.7.6 3.4 1.1 5.2 1.6 6.6 1.9 13.5 3.6 20.7 4.9 4.8.9 9.5 1.5 14.1 2 1.2.1 2.3.2 3.5.3 4.5.4 8.9.6 13.2.7 5.9.1 11.6-.1 16.8-.6 1.8-.2 3.4-.5 5.1-.7 1.1-.2 2.2-.3 3.3-.4 1-.2 1.8-.4 2.7-.6 1.8-.4 3.6-.8 5.3-1.3 5.8-1.6 10.7-3.7 14.4-6.3 0 0 0 .1.1.1 4.1-3 6.8-6.5 7.5-10.6 1.2-6.4-2.5-13.2-9.8-19.8z"/><path fill="#004D6E" d="M126.9 53.6s.2.2.3.4c.3-1.3.6-2.7.9-4-8.1-13.5-21.6-23.3-37.5-26.5l-.1.1-.6-.2-.4.2-.5.2h-2.4l-.6-.2-.5-.1-.2-.1-.8-.2H83l-.8-.3h-1l-.7-.2h-3l-.5.1h-.8s0 .1-.4.1H75s-.5.1-.7.1H73l.6.1.6.2v.4l-.4.1h-.7s-.2-.1-.4 0c-.4.1-.7.2-.7.2l-.3.4h-.4l-.7-.1-.4-.1h-.7l.3-.4.8-.3.7-.1.8-.2.1-.2h-.6l-.9.2-.6.1-.4.3-.7.2-.4.2h-.7l-.5.2-.2.2-.2.1-.2.1.7.1.2.2-.2.4-.3.1H66.3l-.6.2h-.4v.3H64s-.3.2.1.2.7.2.7.2l.8-.2h.3l.7-.1s.1-.2.4-.2c.3 0 .4-.1.4.1.1.2.3.3.3.3H67s-.2-.3-.2-.1c-.1.2-.2.5-.2.5s.2.3-.1.3c-.2 0-.7.2-.7.2h-.4l-.6.4-.4.1-1.1.4-.4.1-.6.3s-.3.3-.5.3-.7.1-.7.1l-.4.1-.7.1-.6.6-.4.5s-.3.1-.4.2c-.2 0-.6.1-.6.1h-.4v-.3l.7-.4.2-.5-.6.1-.4.4-.7.5-.6.3h-.3l.5-.7-.7.3h-.4l.3-.2.6-.2.3-.4.5-.2V29l.6-.2v-1.5l1.1-.4.7-.5s.5.6.5.7c0 .2.4.4.4.4l-.7.7h1.1l.3-.1.4-.4s0-.2.2-.2h.5s.3.1.4-.1c.1-.2-.2-.3.3-.3h.8l.1-.5h-1.9v-.2H60.9l-.6.2-.3-.1.2-.3.4-.2s.3-.2.5-.2.4-.1.4-.1l.1-.2v-.3c-3.4 1.1-6.6 2.5-9.7 4.2h.1l.3.1.4-.1.5-.2.4-.1.2-.2.3-.1.2-.2.4-.1.2.1.3-.1.4-.1.4-.2.7-.2h.3l-.7.5-.2.3-.4.2h-.4l-.3.3-.3.2-.5.3-.3.2-.4-.2-.4.2-.1.4-.2-.1-.3.4H52s-.2-.1-.3 0c-.1.2-.1.7-.1.7h1l-.6.2-.4.4h-.4s-.4 0-.5.1c-.1.2-.3.5-.3.5l-.6.4h-.2l-.7.3-.3.4-.4.3-.3.4-.4.4-.3.4-.1-.3-.3-.3-.2.3v.3l-.4.3-.2.5-.4.2-.6.4h-.3l-.2-.3v-.4l.2-.4.3-.3.1-.3.1-.2-.2-.4-.2.3s.1.2-.2.4l-.6.4h-.4l-.2.2-.2.3-.6.3-.3.5-.3.2v-.2c-4.9 4.3-9 9.4-12.2 15.1 1.5 6.6 3.4 13 5.6 19.3.1-.1.2-.3.3-.4.1-.1.3-.2.3-.2s.4 0 .5-.1c.1-.1.2-.1.2-.1s.3-.4.3-.5c0-.1.2-.1.2-.1l.2.1h.5c.1 0 .3-.2.3-.2h.5l.4-.2.3-.1.2-.2.1-.4.2-.5.1-.2.4-.3.2-.2.2-.3.4-.1s.1-.4.2-.4.3-.1.3-.1h.9c.1 0 .2 0 .4-.1.1-.1.4-.3.4-.3l.1-.1s.1-.2.2-.3l.2-.2.3-.1.1.2.1.3v.2l.1.3s.3.1.4.1c.1 0 .3.2.3.2l.2.2.3.2.3.1.4-.2h.6c.1 0 .3-.1.3-.1h.8l.4.1h.2l.3.1h.4l.3.2s.4.1.5.1c.2 0 .2.1.2.1l.2.1h.7l.3.1.3.1.3.3h.7l.2-.1h.1l.3.1.1.2.1.2.1.1H54.1V69h-.3l-.2.1v1.2l-.1.1-.2.1-.2.2-.3.2s-.2.1-.3.1c-.1 0-.1.3-.1.3v.1l.2.3.2.2.1.2.2.2.2.1.1.1.1.2.2.2h.3l.5.1.2.2.3.2.3.2.2.3.1.1v.7l.1.2.2.1.4.1.2.2.4.2.2.3.2.3s.2.3.3.3h.4l.4-.2.3-.4.1-.4V75s.1-.2.1-.3l.2-.2.3-.1h.7l.5.1.2.1.3.2v.2l.1.3.3.2.2.2h.5l.5.3v.1l.1.3h.3l.4.1h.4l.3.2.4.1.4.3.4.2.4.1h.3l.2-.2.6-.1H68.1l.2.2.2.2.3.2.5.1h.2l.3-.1.4-.3.3-.4.1-.3.1-.4s.2-.3.3-.5c.1-.2.1-.3.1-.3l.3-.3s.2-.4.2-.5c0-.1.2-.2.2-.2l.1-.2v-.4-1.1l.2-.2.2-.3H72l-.2.2-.1.1.3-.1-.2-.1-.3-.1-.1.1-.1.2s-.2.1-.2.2h-.2-.8l-.3-.2-.2-.3-.1-.2-.2-.1-.3-.1-.4-.1-.2.1-.1.2-.1.3h-.6l-.2-.1h-.1l-.1-.1s-.1-.1 0-.2c0-.1-.2 0-.2 0v-.2h-.2l-.1-.1v-.2h-.5s-.1-.2 0-.3c.1-.1-.2 0-.2 0s.1-.3.2-.4c.1-.1-.1-.1-.1-.1s.1-.2.1-.3c0-.1-.1-.1-.1-.1l-.2-.1-.5-.2.3-.1.2-.2v-.3-.4c0-.1-.1 0-.1 0h-.2l.1-.3.2-.3.1-.2.2-.1.3-.1h.1l.1.1h.2l.1.1h.5l.4-.1V68c.1-.1.2 0 .2 0h.3l-.1-.2H68v-.2h.1l.2.1h.4l.3.1.1.1h.2l.3-.1.2-.1.2-.1.2-.1.3-.2.3-.1h1.4l.1.2.1.2h.3l.2.1.1.1v.1l.2.2h.2l.1.1c.1.1.2.1.2.1h.4l.3.1h1.1l.2.2h.3l.2-.2.3-.3.2-.1.2-.3.1-.3V67l-.2-.3s-.1-.1-.1-.2-.1 0-.1 0l-.2-.1-.3-.1-.1-.1-.1-.2-.2-.2-.2-.2-.1-.1-.3-.2-.2-.1-.1-.2-.2-.2-.4-.3-.2-.4.2-.1h.2l.2-.2v-.2l.2-.1s.2-.1.3-.1c.1 0 0-.2 0-.2l-.2-.2v-.2h.4l.1-.2.2-.1.2-.1-.1-.2H75l-.1.1h-.3l-.1.1-.3.1h-.4l-.1.1-.3.1-.2.3H73l-.2.1h-.6l.1.2.1.1.2.1.1.1.1.1.2.1h.5c.2 0 .2.2.2.2l-.2.1-.2.1h-.4v.2h-.2s-.2.1-.3.1c-.1 0-.1.1-.1.1h-.2l-.2.1h-.1l-.1-.1v-.2l.1-.3v-.2l-.3-.2-.1-.1.1-.2.2-.1h.2l.1-.1-.2-.2H71l-.1-.2-.1-.3h-.3l-.2.1H70l-.2.1h-.1l-.1.3-.1.2h-.3V63.5l-.2.2v.2l-.2.1-.2-.1h-.1l-.2.3-.2.3-.1.1v.2l-.2.3h-.2l-.1.1-.1.3-.1.3-.1.2v.4l.1.2.1.2.1.2v.2l.2.1v.2H66.5l-.3.2H66l-.4-.2-.1-.2h-1l-.2.1-.1.2-.2.2h-.4v-.2l-.1-.3h-.2V67.9l.1.2v.5l-.1.1-.3.3h.1l.2.2.1.2v.1l.1.2.1.2-.1.1h-.2l-.1-.1H63l-.1.1s.1.2.1.3c0 .1-.1.1-.1.1l-.1-.1-.1-.1-.1.1v.5l.1.4-.2.1-.1-.3h-.3l-.1-.1v-.3l-.1.2h-.2v-.2l.2-.3-.1-.2v-.3h-.2l-.1-.2.2-.2h.7l.1.1.2.1.1-.1v-.3h-.2l-.1-.1H61.9l-.3-.1v-.2l.1-.1.1-.2-.2-.1-.1-.2-.3-.3-.2-.4-.1-.1V67s.2-.3.2-.4c0-.1.2-.1.2-.1v-.4l.1-.3v-.3l-.2-.2-.1-.2-.1-.3-.2-.1v-.2l-.1-.2-.2-.1-.1-.2-.3-.4h-.4l-.1-.4-.1-.3v-.3-.5-.5l-.1-.2-.2.2-.3.1-.1-.1v-.4l.1-.1.1-.1-.1-.1h-.3l-.3.1h-.2l-.2.2v.2l-.1.2-.1.2v.5l.2.3.3.2V64l.1.3s.1.2.2.3c.1.1.1.2.1.2l.2.1h.2c.1 0 .1.1.1.1v.2l-.2.2.2.1.1.1.2.1.1.2.2.2.3.1.1.2.2.2v.3l-.1.3H60V67l-.1-.2-.1-.2-.2-.2h-.2l-.2.1-.1.2-.1.3v.2l.1.2v.4l-.2.1-.2.1-.1.2-.1.2s-.1.1-.2.1-.2.1-.2.1h-.3v-.1l.2-.3.1-.3h.1l.1-.2v-.3l-.1-.5v-.3H58V66l-.1-.2-.2-.3-.1-.3s-.2-.1-.2-.2-.3 0-.3 0l-.2-.1-.1-.3-.1-.3-.1-.4-.1-.3-.1-.2-.2-.2v-.4l-.1-.3v-.4l.1-.3-.1-.3-.1-.1-.2-.1-.2-.1-.2.1-.1.1-.1.2h-1l-.2.2-.2.1h-.2l-.1-.1-.1-.1-.2-.2H53v-.4l-.1-.1-.4.1H52l-.1.2-.1.1-.1.2v.4l-.1.2s-.1.1-.2.1-.2.1-.2.1l-.2.1h-1.2l-.1.1-.1.2-.3.2-.1.2-.3.2-.2.2c-.1.1-.1.1-.2.1s0 .2 0 .2v.3l-.1.3h-.3c-.1 0-.1.1-.2.1s-.1.1-.1.1l-.3.2h-.3l-.4.3-.2.1-.2.1h-.2l-.2-.1-.2-.1-.2-.1-.2-.1h-1l-.2-.1-.1-.3v-.4-.2l-.1-.4-.3-.1h-.4l-.2-.2H43V63l.4-.4.2-.3c0-.1.2-.2.2-.2l-.1-.2-.1-.1v-.4l.2-.2.4-.4.3-.3.3-.3.1-.3.4-.3.1-.3.2-.3.1-.2.1-.2.1-.3.1-.3h.5l.2-.1.2.1.1.2.1.1.3.3.2.1.2.2.3.2h.2l.2.2.3.2.2.2.5.2.4-.2.2-.3.2-.4.2-.2.2-.3.3-.1v-.5l.2-.4s-.2-.2-.2-.3c0-.1.1-.3.1-.3l.2-.2-.1-.3-.1-.3-.2-.3.1-.4-.1-.3.1-.3.2-.2h.4l.3.3.1.3h.2l.2.1h.3l.1-.3.1-.2v-.2h.1l.1.2.1.2.2.1.3.1h.2l.1-.2h.8l.2-.3.2-.3h1l.1.1h.5l.1-.3.1-.2.2-.3s.2-.1.3-.2c.1 0 .1.1.1.1v.2l.1.1.3-.3c.1-.1.2-.4.2-.4l.1-.1h.2l.1.1.3.2h.2v-.2h.2l.1.1.2.2h.1l.1-.2h.2l.1-.2.1-.3.1-.2.1-.3.1-.3v-.3l.2-.2.1-.3v-.4l.3-.2h.4l.4-.2h.3v.1l-.1.2v.1l-.2.2h-.2v.2l.1.1.2.1s0 .1-.2.1h-.3l-.3.1-.2.2-.2.2-.1.3v.4l.1.2V53.2l.3.1h.3l.3-.1.2.1h.2l.1.1v.4l.3.2.1-.1.4-.1.5-.1.5-.1h.5l.3-.1.2.1.1.2.1.2h.5l.3-.1.2-.2h.1l.1.1h.2l.2-.2.1-.2.1-.3-.2-.1.1-.3.2-.4.3-.1.1-.3.2-.1.1-.1.2.1.1.1.1.2.1.1.1.2H68.7l.1-.3.2-.1.1-.3.2-.3h-.4c-.1 0-.1-.2-.1-.2l.2-.3v-.2s.3-.1.3-.2.2 0 .2 0h.8l.1.1.3.2.1.1h.4l.1-.2H72.2l.1-.2-.2-.2h-.2l-.1-.3-.2-.1-.1-.1H70.3l-.3.1s-.2.1-.3.1H69.1l-.1-.2v-.3l-.3-.2-.1-.3v-.3l.2-.3V48l.3-.4.2-.3.3-.1.2-.1.3-.1.3-.2.3-.1.2-.2.2-.2.2-.1h.2l.2-.2v-.4l-.1-.3-.3-.1-.3-.1h-.5l-.2.2-.2.1-.2.3-.2.4-.1.2-.1.1-.3.1-.1.1h-.4s-.1.1-.2.1-.3.1-.3.1l-.1.2-.4.1v.1h-.3l-.1.3v.3s-.1.1-.2.1-.1.2-.1.2l-.2.1-.1.2v.3c0 .1-.1.1-.2.2l-.1.1h.4l.1.2.1.2-.1.3h-.3-.2c-.1 0-.2-.1-.2-.1h-.3l.1.1.2.2v.2l-.2.2h-.4s-.2 0-.3.1c-.1.1 0 .2 0 .2v.3l-.1.1s-.1.2-.1.3c0 .1-.1.3-.2.4-.1.1-.3.2-.3.2l-.1.1-.3.1H64l-.3-.1h-.1l-.1.2-.1.1-.1.2H63l-.3-.1-.1-.1v-.2l.1-.3.2-.3.1-.2V51l.1-.3H63l.1-.4.1-.2.1-.5v-.4l.1-.3.1-.4-.1-.1-.1.2-.1.3-.2.3h-.4l-.2.2s-.2.2-.3.2h-.7l-.2-.1v-.3l-.2-.3-.1-.2.1-.2.4-.2.1-.4.4-.4.2-.2-.2-.1v-.4c0-.1.1 0 .1 0l.3.1h.2l.3-.1v-.1h-.4l-.3-.2.3-.3h.4l.2-.2.2-.1.3-.1h.2l.1-.2H65l.2.1.3-.1.1-.2h-.4l.1-.4.4-.1h.3l.2-.2c0-.1.3-.1.3-.1l.3-.2s.3-.2.3-.3c0-.1.2-.1.2-.1l.4-.2.2-.3.4-.2h.3c.1 0 .2-.2.2-.2h.2l.4-.3h.2l.3-.2s.3-.1.4-.1c.1-.1 0-.1.1-.3.1-.1.4-.1.4-.1h.2l.3-.1.2-.1.4.2.2-.3.1.1.2.1.2-.2.2-.2h.3l-.1.3v.2h.2l.3-.3.3.1.1-.1.2.2.3-.1.2-.1.2.1.1.2v.2h-.4l-.1.1.1.2.1.2H75.2l.2.2.4.3h.7l.2.2.2.2.3.3.2.3.4.2.3.1.1.3v.3l-.2.2-.1.1-.1.1h-1l-.3-.1h-.1l-.2-.1H76l-.3-.3h-.2l-.2-.1-.3-.2-.2-.1v.4l.1.2.2.2.2.1.1.3v.2l-.1.1v.2l.1.3v.3l.3.2.3.1.2.1h.4c.1 0 0-.2 0-.3v-.2h-.2l-.1-.1v-.2l.1-.1.2.2.2.2.3.1.3.1h.3l.1-.2-.1-.3-.2-.2.2-.3.3-.1.3-.1.1-.3h.3l.2.2.2.2h.3v-.5l.1-.3s-.2-.1-.3-.2c-.1-.1 0-.3 0-.3v-.2l.2-.3V44h.4l.2.1.1.2-.1.2-.3.1h-.1l-.1.1.1.2.2.2.2.1h.2l.3-.1.2-.1.1-.4.3-.2.4-.3.3-.3h.5l.1-.1v-.2l.4.1v.2l.1.2h.3l.2-.2.1-.2h.6l.2-.3.2.1.1.2v.2l.3-.2.2-.3.1-.3-.2-.1v-.2h.2l.3.1h.9l.4.1.3.1.3.2.4.2.2-.4-.1-.2-.1-.3-.2-.1-.2-.1-.3-.1s-.1 0-.1-.2v-.5l-.1-.2h-.3V41l.1-.2v-.3l-.1-.2V40l.1-.2h.5l.2.1.2.2.1.2v.2l.2.2.1.2.2.3.2.3.2.3.1.2.2.2.2.2h.2l.1.2.1.3v.5l-.1.6-.1.1-.2.2v.2l.4-.1h.3l.3-.1.1-.3.1-.4-.1-.5v-.2l-.2-.2-.1-.2.1-.2.2-.1.3.1h.1l.1.2.1.2.1.2.2.1h.5l.2-.2h-.7v-.2l-.1-.1v-.3l-.1-.2H90l-.3.1h-.3l-.2-.1-.2-.2-.1-.3-.1-.1V41l-.1-.1s-.3-.2-.4-.3c0-.1-.1-.3-.1-.3l.1-.3.1-.2.2.2.1.2.2.2h.7l-.1-.1-.2-.1-.3-.1.1-.1-.2-.1v-.3H90.1l.2.3.1.2.2.3s.1.1.2.1H91.1v-.2l-.1-.2.3-.1-.3-.1s-.1-.2-.1-.3c0-.1-.1-.1-.1-.1h-.3l-.2-.1s-.2-.1-.3-.1c-.1 0-.2-.1-.2-.1l-.2-.1-.2-.1s-.1-.1-.1-.2-.2-.1-.2-.1v-.2l.3-.1.2-.1.3-.1.1-.4-.2-.2-.2-.2.2-.5.1-.5.2-.2V36l.2-.2h.2l.1-.3.2-.2s-.1-.3-.1-.4c-.1-.1-.3-.1-.3-.1l-.4-.1.1-.2.2-.1.1.1.2.1.3-.1.2.1.1.1h.1v-.3l.2-.2h.5l.2.1h.1l.2.2h.4l.2.1.1.2.1.2.1.2.2.2.2.3.1.4.2.2s.1 0 .2-.1 0-.3 0-.3v-.4c0-.1.2-.3.2-.3l.1-.1h.2l-.1-.2.2-.3h.7l.1-.5v-.2l-.2-.1s-.1-.1-.1-.2v-.2h.3v-.3l.4.1.4.1.4.2.4.1h.8l.1-.2-.2-.2-.4-.1-.1-.1.1-.4.4-.3-.3-.3-.3-.1-.4-.2-.4-.1h-.2s-.1-.4-.1-.5c0-.1.1-.2.1-.2l.1-.3h.1l.3.1v-.2l.4-.1V30s-.3-.1-.4-.1l-.2-.2V29H97.3c.2 0 .1-.2.1-.2l-.2-.2-.3-.2s-.2-.1-.2-.2-.2-.3-.2-.3l-.1-.4-.3-.1h-.8l-.3-.2-.1-.1-.2-.1-.1-.1s-.2-.2-.2-.3c0-.1-.3-.1-.3-.1s-.1-.3-.1-.4c0-.1-.1-.3-.1-.3v-.4c0-.1-.3-.1-.3-.1h-.5v-.2h.2l.3.1.4.1h.4l.3.2.3.3.3.3.4.2h.3l.5.1.4.1.2.2.4.1s.1-.1.2-.1h.7l.3.1.3.2.5.2.4.2.4.2.5.2.5.2.6.3.3.2.3.2.6.3.4.3.4.3.5.3.6.3.4.1.6.3.3.2.4.2.4.1.4.3.3.1s.2.1.3.2c.1.1.3.1.3.1l.4.2.2.2s.2.1.3.1c.1 0 .2.2.2.2l.2.3.4.2.4.2.3.3.3.1.3.2.5.2h.1l-.3-.1-.4-.1s-.2-.1-.3-.1c-.1 0-.3-.2-.3-.2l-.5-.3-.8-.2-.4-.2-.2-.2-.3-.1s-.2-.1-.3-.3c-.1-.1-.4-.2-.4-.2l-.4-.2-.7-.4s-.6-.4-.7-.4c-.1 0-.4-.3-.4-.3l-.3-.1-.2-.2-.3-.1-.5-.3-.4-.2-.4-.3-.6-.1.2.2.4.2.2.2.1.2.1.1h-.1l.2.2.1.1.3.4s.3.2.5.3c.2.1.2.2.2.2l.4.2.2.1.2.2.4.2.2.1.2.1.2.1.1.1v.6l.2.2.2.2.2.2.1.3.2.3.1.2.1.3.1.3.2.3.4.4.3.2.3.3.4.4.5.5.4.4.5.5.2.2.3.3.6.3s.2-.1.4-.1h.1l.2-.1v-.3l-.1-.1-.1-.1v-.1l.2-.1.2.1.2.2.3.1h.3l.4.2.4.4.2.3.4.2.4.4.5.3.4.4.1.1.2.2.2.2.4.3.2.3.1.1.1.2.2.3.7.6.1.3.4.5.2.3.2.3.2.3.2.2.4.6.2.3s.1.3.2.4v.2h-.2l-.3.1.2.2.2.2.1.2v.2l.1.2.1.1.2.2.2.3.1.3.2.2.2.2v.3l.3.2.1.4v.3l.2.3.1.2.1.4h.4l.2.2.3.1.3.1.1.1.2.2.1.2.2.1.2.2.1.2.2.3.1.1.2.2.1.2v1.1c0 .1-.2 0-.2 0l-.2-.4s-.1-.2-.1-.3c0-.1-.2-.2-.3-.2-.1 0-.2-.3-.2-.3s-.3-.2-.3-.3c0-.1-.1-.4-.1-.4l-.4-.1-.1.1h-.4l-.2-.2-.1-.3v-.3c0-.1-.2-.2-.2-.2l-.1-.3s-.1-.1-.2-.1-.1.2-.1.2l-.1.2-.1.2v.3l.1.3s-.1.2-.1.4v.2l-.3-.1v-.3c0-.1-.1-.2-.1-.2s-.1-.2-.1-.3c0-.2-.1-.1-.1-.1l-.1-.3h-.4v.7l.1.2.1.1v.7c0 .1.1.1.1.1l.1.2v1l.2.2.1.1.1.1H122.2l.2.1.3.2h.2v-.3-.4l-.1-.4s.1-.1.2-.1h.2l.1-.1.1-.1.1.2v.1l-.1.2V55.4l.2.3.1.2V57l.1.5s.3.1.4.1h.4l.2.1.2.2.2.2.2.2.2.2c.4-1.4.8-2.7 1.1-4.1h-.3l-.1-.4v-.4h.6zM69.4 73.8l.3-.2h.9l.4-.2h.3l-.1.2-.2.2-.2.2-.4.3H69.5l-.1-.2V73.8zm-6.9-1.4h.1l.5-.1.3.1.1.3h.3l.2.1.2.2h.3l.1.2s.1.2 0 .2h-.8l-.2-.4-.1-.1h-.4-.3c-.1 0-.2-.2-.2-.2v-.3zm-7-4.5l.2-.1h.3l.3.1.2.2.1.2h1.2v.2l-.1.1-.2.3-.1.3v.5l-.3.1-.2-.2-.1-.2-.1-.3h-.1s-.2-.2-.2-.3v-.3l-.3-.1-.2-.1v-.4zm-.8-4.8v-.2h.2l.2-.1h.2V63.5l-.2.3-.2.2h-.3v-.5l.1-.4zm-1.3 2.6v-.2l.2-.2.2-.3v-.5l.3-.1.3-.1.3-.1.1.2v.2l-.1.3-.1.3v.4s-.2 0-.3.2c0 .1-.1.3-.1.3H54v.2l-.4.1-.1-.1s-.2-.2-.1-.3v-.3zM51 64l.3.1v.2l-.3.1-.1-.2.1-.2zm-.9 0l.1-.1h.2l.2.1-.1.1-.1.2h-.1l-.3-.1V64zm-8.8-26.2l.2-.4.4-.2V38.1l-.3.2-.3-.5zm3.3-.7l-.6.3-.4.3-.2.5-.3.4-.6.6-.5.1-.2-.2.1-.3.3-.5.2-.3.2-.4.6-.2s.3-.2.6-.2c.2-.1.7-.3.7-.3l.4-.1-.3.3zm17.6 15l-.1.3s0 .1-.1.2c0 0-.4 0-.4-.1s-.2-.4-.2-.4v.2l-.2.1-.3-.2V52h.3l.1.1.2-.2h.4l.3.1v.1zm11-27.1H74.9v.4l-.7.1-.6.1H72.7l.5-.6zm-.4 1.2s.2-.1.3-.1c.2 0 .6-.1.6-.1l.4.2-.3.3-.6.1-.6-.1-.1-.2.3-.1zm-1.7-.5h.5c.2 0 .6.4.4.4s-.6.1-.6.1.2.1.1.3c-.1.2-.6-.1-.6-.1l-.1-.5.3-.2zm-3 1.4l.2-.3.4-.1.5-.2.6-.1-.2.5h-.4l-.2.4-.5.2-.5.1-.3-.2.4-.3zm-16.9 24l-.4.2v-.5l.3-.3c.1-.1.1 0 .1 0h.4v-.4h.4c.2 0 0-.2 0-.2l-.1-.3v-.1l.3-.1.2-.1v-.2h.3v.2h.4c.1 0 .2-.2.2-.2l.1-.2.2-.1.2.1.1.2h.7l-.1.3-.2.1c-.1.1 0 .2 0 .2v.2l-.3.1-.3.1-.3.1v.2s-.1.2-.2.3l-.2.2s-.3.2-.3.3c0 .1-.3.1-.3.1l-.4-.2h-.8zm5.9-3.6l-.3.1-.1.2s.2.1.3.1c.1 0 .1 0 .3.1.1.1.2.3.2.3l-.5.3-.4.3-.3.1-.3.3.4.1v.6l-.1.2-.3.4v.3l.2.4-.2.2s-.1.1-.1.2c-.1.2-.1.4-.1.4l-.3.3s.3.1.4.1c.1 0 .3-.2.3 0s-.2.6-.2.6l-.3.3h-.6l-.3.2.1.3-.3.3s-.2.1-.4 0c0-.2-.2-.3-.2-.3l-.3-.3h-.3l-.3-.1-.1-.2h-.3l-.1.2h-.1l-.3-.1-.2-.1h-.1l-.2-.2.3-.2.5-.1.3-.1.2.1.2-.2v-.3l-.2-.1-.2-.2s-.2-.2 0-.2h.7l.1-.3.1-.4.1-.2h.3l.3.1.3-.1s.1-.2.2-.3c.1-.1.1-.3.1-.3V50h.2l-.4-.2-.1-.1v-.1l.1-.2.2-.2.3-.3v-.7l.2-.1.1-.2.3-.1.1-.3.2-.2.1-.1.3-.1.1-.2.3-.1.3.1v.2l.1.1v.2l-.3.1zm2.6-7.4l-.1.3-.1.2v.2l-.1.2-.2.2-.2.1h-.8l-.5.1-.1-.1h-.3-.3c-.2 0-.1-.1-.1-.3 0-.2-.2-.2-.2-.2v-.5c0-.1.1-.1.3-.2.2-.1 0-.3 0-.3l.3-.4h.4l.2-.2.1-.4.2.1.2.1v.2l-.1.2H58.9l.1.1.1.2h.4l.2.2v.2zm12.7-9.2l-.3-.2-.1.4-.2.2-.3-.2-.4-.1-.2.2.1.2-.6.1.1.5h.8l.3.1v.3l-.5.1h-1.2l-.5.2-.9.1-.4.2h-.4v.4l-.3.2-.2-.1-.2-.1h-.2l-.5.2-.2.4-.2.1h-.2l-.8.3s.3.3-.1.3c-.3 0-.1-.2-.3 0-.3.1-.5.3-.5.3l-.3-.4-.2-.2-.1.2s-.1.3-.3.3c-.2 0-.5-.1-.5-.1l-.3.9s-.2-.1-.3 0c0 .1-.6.3-.6.3s.1-.2.1-.4.1-.5.1-.5h-.3l-.5-.1-.2.3.4.3v.5s-.3.1-.5.1h-.6l-.8-.1-.3-.1-.4-.4-.1-.4-.4.3h-.7l-.4.1h-.9v-.2l-.3-.2-.7-.1-.3-.3-.3.4H54l-.4.3h-.4l-.4.1s0 .3-.2.3-1.1.3-1.1.3l-.5.3-.3-.1-.2-.2.4-.4.4-.4.1-.4.4-.3.4-.3.4-.3.3-.3.6-.3.3-.3h.8v-.3l.5-.3.6-.1s.1-.2.2-.2c.2-.1.7-.3.7-.3l.6-.2h.6s-.2.1.2.1c.3 0 .4-.1.6-.1.2 0 .2-.1.4-.1s.6-.1.6-.1-.2-.3 0-.4c.2-.1.6-.2.6-.2s.2.2.4.2.2-.3.3-.3c.2 0 .3-.3.3-.3s0-.2.3-.2h1.1l.4-.1.4-.2 1.2-.4.5-.1.4-.4.4-.2.2-.6.3-.3h.5l.4-.1.3-.1.1.3.3-.4s0-.1.3-.1h.5l.2.3s-.1.3.1.4c.2.1.6.1.6.1l.4-.2.4.2.4.2.5.1s.4.2 0 .2-.5.3-.5.3l.1.7h.6l.4.1.3.3.4.2-.3.3zm.1-1.3c-.2 0-.4-.2-.4-.2l-.3-.4-.6-.1-.5-.5-.1-.3-.4.2-.5-.2s-.3-.2-.5-.2h-.4l-.2-.2.6-.2.2-.3.6-.2s.4-.3.3.1c-.1.4.1.5.1.5l.4-.1h.2l.4-.1.1-.4.4-.1.2.1H73.3l.5.2-.3.4-1-.1s-.2-.2-.3 0c0 .2.4.3.4.3l.8-.1s.5-.2.4.1c0 .3-.3.8-.3.8s-.1.6-.3.6c-.2.1-.5.4-.7.4zm2.7 7.4c-.1 0-.3-.1-.3-.1l.1-.4-.1-.1-.1-.2-.2.1-.3.3-.2.3-.3.1-.2.3-.2.1-.1-.2-.1-.3.3-.3.4-.2-.2-.2h.3l-.3-.2.1-.2-.1-.3.2-.5.1.5.3-.1h.6v.3l.2.1s.1.2.1.3c0 .2.1.2.1.3v.5s0 .1-.1.1zm1.2-1.2l-.2.2h-.4l-.3.1-.1-.3-.1-.3c-.2-.1.1-.3.1-.3l.4.1.3.1h.4c.1.1-.1.4-.1.4zm.2-11.6s-.1.3-.2.3c-.2.1-.4.1-.6.1h-1l.2-.2V24l.4-.2s.2-.1.3 0c.2.1.5.1.5.1h.2v.3zm3.7 11.5l-.3.2-.2-.3.2-.2h.5l.1.1-.3.2zm1.1 8l-.2.3h-.3l-.3-.4.1-.4h.4l.2.1.1.2v.2zm.8-9l.3-.1.1.1v.3h-.2l-.3-.2.1-.1zm-.3.4h.2l.2.1-.1.2-.3-.1v-.2zm2.9 2.9l-.3.2-.3.1-.4.2s-.1 0-.2.1c-.2.2-.3.5-.3.5l-.3.4.1.5-.1.1v1.1l.2.3.3.5.3.2-.2.1H83l-.2-.1-.1-.3-.1-.1-.4-.1h-.1l-.1-.1v-.2l.1-.1v-.5l.1-.1.2-.1.2-.2v-.2l.2-.2v-.6l.2-.2s0-.2.2-.2c.1 0 .2-.1.2-.1s0-.2.1-.2h.1l.3-.3h.4l.2-.2c.1-.1.2-.3.2-.3l.3-.2.4.1.1.3-.7-.1zm2-3.8l-.3-.3v-.3l.3-.1.1.1v.1c.1.1-.1.5-.1.5zm1.3.3l-.5.1v-.3c0-.1-.3-.1-.4-.2-.1 0 .1-.3.1-.3l.3.1.1-.1.3-.1.2.2.2.3.2.2-.5.1zm1.4-.3l-.3.3h-.4l-.2-.3-.2-.3c-.2-.3.2 0 .2 0H89.5v.3zm5.7-3.3h.4c.1 0 .1.1.1.1l.1.3-.1.2h-.3l-.2-.2v-.4zm-1.6-1.1h.3l.1.1v.3h-.3l-.1-.2v-.2zm-.3 1v-.3h.3c.1 0 .3.1.3.1l.2.1.1.2s0 .2.1.3v.2h-1l-.2-.2V31c.1.1.1-.1.2-.2zm24.8 10.3l-.3-.1-.3-.2-.3-.2-.2-.2-.2-.2s-.3-.1-.3-.2l-.2-.2-.3-.1-.5-.2-.2-.4c-.1-.1-.3-.2-.3-.2l-.4-.1-.4-.4-.5-.1-.3-.3v-.3h.2l.4.1.3.2.4.2.4.2s.3.2.4.2c.1 0 .4.3.4.3l.3.3.2.3s.3.3.5.3.2.3.3.4c.1.1.3.2.5.2s.3.2.3.2l.3.3-.2.2zm3.1 2.8v.2l-.3-.2s-.3-.3-.3-.4c0-.1-.1-.2-.1-.2l-.2-.4-.4-.2-.2-.4-.4-.3v-.1h.5s.2 0 .2-.2c0-.1.1 0 .1 0l.2.2.1.3.2.3.2.3.3.3.1.2v.6zm5.3 9.3s-.1-.1-.1-.3c0-.2-.1-.4-.1-.4s0-.4-.1-.5c-.1-.1-.2-.3-.2-.3v-.4l-.1-.4v-.4l-.1-.3-.1-.4-.3-.3-.2-.4s.1-.3 0-.4c-.1-.2-.3-.4-.3-.4l-.3-.3c-.1-.2-.4-.4-.4-.4l-.3-.5-.1-.2-.3-.3c-.1-.1-.3-.5-.3-.5l-.3-.4-.3-.2-.1-.2-.1-.2.1-.3s.3-.1.3 0c.1.1.3.4.3.4v.3l.4.4.2.3s0 .3.2.4c.2 0 .7.5.7.5l.4.6.5.6.3.5.1.5.2.3.2.5v.5l.2.3.2.4.1.2v.7l.1.5.1.4v.2l-.2-.1h-.3z"/><path d="M90.2 23.3c.1 0 .3.1.4.1l-.4-.1z"/><path fill="#004D6E" d="M72.7 90.2l.2.1.2.2.1.2.2.2v.1l.1.2.2.2.1.2v1l.1.2.1.3.1.3.2.2.2.2h.2l.2.2.2.2.2.1.3.2.2.2.1.2.2.2.2.1.2.2.2.2.2.2.2.2.2.1.2.2.1.2.1.2v.2l.1.1h-.2l-.2.1-.2.1.1.1h.6l.2.1.1.1.1.1.3.2.1.1.1.2.2.1h.7l.3-.1.2-.2h1.2l.3-.2.2-.1.3-.1h.7l.2-.2h.8l.2-.1.3-.1h.3l.2-.1h.3l.2-.1.1.1.1.1V98l-.1.4-.1.2-.1.4v.4l-.3.2-.3.3-.1.3-.3.2-.1.4-.1.2-.3.5-.2.3-.2.3-.1.3-.1.3-.2.2v.1l-.2.3-.2.2-.2.3-.2.4-.2.1-.3.2-.2.2-.3.2-.3.2-.1.3-.4.3-.3.3-.4.2-.5.2-.3.2-.4.4-.4.4-.4.3-.4.3-.2.1-.3.2-.1.2-.2.3-.3.2-.3.2-.3.3-.2.2-.3.2-.3.3v.3l-.2.3-.2.4-.3.3-.2.2-.1.4v.4l-.1.3.1.2.2.2.3.2v1.3l.2.4.2.2.1.4.3.2.3.3v.3l-.1.2-.1.3-.1.2.1.3V118.8l.2.3-.2.4-.2.3-.2.2h-.3l-.2.3-.3.3h-.8l-.6.2-.4.3h-.3l-.3.5-.4.1-.4.2-.3.2-.3.2.1.4.2.2.2.3.3.3v.8l-.1.3-.1.3-.4.1-.3.2h-.3l-.3.1c3.1 2.7 6.2 5.1 9.5 7.1 12.7-7.9 23.4-20.4 32.9-37.9l.1-.1v-.3l.1-.4.2.1.4-.8c.7-1.3 1.3-2.6 1.9-3.8-1 .2-2.2.3-3.3.4v.1l.1.4v1l-.1.2-.1.2v.6l.1.2.1.3v.2s0 .3.1.3c0 .1-.2.1-.2.1l-.3.1-.1.3-.1.2v.2l-.1.2-.2.2-.2.2-.2.1v.4l-.2.2-.1.3h-.2l-.2-.1-.1-.2-.1-.1v-.1l-.2-.1-.1-.3-.2-.2-.1-.3v-.3l-.1-.2-.1-.2-.2-.2-.1-.2v-.3l-.3-.2-.1-.3-.3-.2-.2-.3v-.2l-.1-.2v-.3l-.2-.2-.1-.2-.1-.2-.2-.2-.2-.2-.2-.2v-.1c-5.2.5-10.9.7-16.8.6l-.1.2v.2l-.3.2-.2.1h-.6l-.1.1-.2.1-.1.7-.1.1-.3.1-.2.1H87l-.2.1-.1.2-.1.1v.2l-.1.3-.2.1-.2.1-.2.2-.3.2h-.3l-.3.1-.3.1-.2.1-.5.2-.4.1-.2.1-.1.2-.1.1-.2.2h-.8l-.2.1-.1.2-.2.1-.2.1-.3.1h-1l-.2.1-.2.1v.2l-.2.1-.2.1h-1.1l-.1-.1h-.1v-.3l-.1-.1v-.3l-.1-.1V95l-.1-.1v-.3l-.1-.2V94l-.1-.2v-1.1l-.1-.3-.1-.3-.1-.2-.1-.2-.2-.3-.1-.1-.1-.1-.3-.2h-.2l-.1-.2-.1-.2v-.1c-1.2-.1-2.3-.2-3.5-.3v.1l.1-.1zm11.8 29.4v.3h-.2l-.2-.2h-.3V120.6l-.1.2-.3.1v.6l-.2.3-.1.3-.2.4-.1.2-.1.2-.1.2s-.1.3-.2.4c-.1.1-.2.4-.2.4l-.2.3-.1.4-.1.3-.2.3-.1.3v.2l-.3.2h-1.1l-.2.2h-.4s-.2-.1-.2-.2-.2 0-.3-.2c-.1-.1-.3-.1-.3-.1l-.2-.1.1-.5-.2-.4s-.2-.3-.2-.5v-.3l.4-.3s.2-.4.2-.5c0-.1.3-.2.4-.4.1-.2 0-.1.1-.3.1-.2 0-.3 0-.3l-.2-.3v-.3l-.2-.3.1-.6.3-.4.2-.1h.4s.1 0 .4-.1c.3 0 .4.1.4.1h.3c.1-.1.1-.3.1-.3l.3-.1H82s0-.4.1-.5c0-.1.1 0 .1 0l.3-.1.1-.2.3-.1-.1-.2v-.2l.2-.1.3-.1.3-.2v-.3l.1-.2h.3l.2.1.2.2.1.3.1.3.1.3v.4s0 .2.1.3c-.2 0-.3.3-.3.3zm3-23.7l.3-.1.2.1h.6v.2l-.3.1h-.8v-.3zM26.3 45.8c-1.1-6.7-2.3-13.4-2-20.1 17.6-1.4 34.4-7.6 50.7-13.8 1.2-.5 2.5-.8 3.8-1 1.3.2 2.6.6 3.8 1 16.4 6.3 33.1 12.4 50.7 13.8.3 6.8-.9 13.5-2 20.1-.1.6-.3 1.3-.4 1.9 0 .2-.1.5-.2.7-1.8 8.9-4.3 17.6-7.5 26.1 1.9-.7 3.7-1.4 5.3-2.2 1.6-4.4 3-8.9 4.2-13.4.6-2.2 1.1-4.4 1.6-6.6l.3-1.5c1.3-5.9 2.3-11.9 2.6-17.9.5-3.6.6-7.3-.2-10.9-2.7-.6-5.5-.9-8.4-1-16.6-2.1-32.4-8.7-48.1-14.4-.6-.3-1.1-.4-1.7-.4-.6 0-1.1.1-1.7.4-15.8 5.7-31.5 12.3-48.2 14.3-2.8.2-5.6.4-8.4 1-.8 3.6-.6 7.3-.2 10.9.5 8.8 2.3 17.5 4.5 26 1.3 4.9 2.8 9.7 4.5 14.4 1.6.3 3.2.7 4.8 1-3.3-9.1-6-18.7-7.8-28.4z"/><path fill="#004D6E" d="M114.9 93.7l-.6 1.2c-.2.3-.3.6-.5.9-8.4 15.6-19.6 30.3-34.9 39.5-16-9.6-27.6-25.2-36.1-41.6-1.7-3.2-3.2-6.5-4.6-9.8-.1-.1-.1-.3-.2-.4 0-.1-.1-.2-.1-.3-1.8-.5-3.5-1.1-5.2-1.6.3.8.6 1.5.9 2.3 2.8 6.6 6 12.9 9.6 19.1.3.5.6 1.1.9 1.6 4.2 6.9 9 13.5 14.5 19.5 6 6.5 12.7 12.2 20.4 16.5 6.5-3.7 12.3-8.3 17.6-13.6 3.4-3.4 6.5-7 9.5-10.8 2.8-3.7 5.4-7.5 7.8-11.5l.1-.1c1.7-2.9 3.3-5.9 4.9-8.9 1.4-2.7 2.6-5.3 3.8-8.1-1.7.5-3.5.9-5.3 1.3-1 1.5-1.7 3.2-2.5 4.8z"/></svg>