<svg xmlns:xlink="http://www.w3.org/1999/xlink"  xmlns="http://www.w3.org/2000/svg" width="100" height="100" viewBox="0 0 100 100"><path fill="#C3996B" d="M61.346 78.058L50.002 89.403 38.658 78.059l11.344-11.345z"/><path fill="#3B2314" d="M34.616 78.058l4.03-4.033-21.983-8.237 33.341-46.012 33.338 46.012-22.081 8.139 4.128 4.131-1.375 1.377 28.301-10.44-42.311-58.398L7.685 68.995l28.578 10.709z"/><path fill="#5A4A42" d="M42.022 33.401h6.419v2.004h-7.874l-1.001 1.384h8.875v2.007h-9.897v-.599L19.107 65.023l20.761 7.781 2.842-2.844V43.087h2.009v24.865l1.715-1.711V43.087h2.006v21.146l.489-.491V23.866l-6.907 9.535zm6.419 8.785h-7.959v-2.004h7.959v2.004z"/><path fill="#CA7C29" d="M61.458 38.197v.599h-9.896v-2.007h8.874l-1.002-1.384h-7.872v-2.004h6.423l-6.913-9.535v39.875l.49.491V43.087h2.007v23.154l1.713 1.711V43.087h2.009v26.874l2.754 2.754 20.85-7.691-19.437-26.827zm-1.938 3.989h-7.957v-2.004h7.957v2.004z"/></svg>