<svg xmlns:xlink="http://www.w3.org/1999/xlink"  version="1" xmlns="http://www.w3.org/2000/svg" viewBox="0 0 150 150"><path d="M107.5 57.1l-21.3 9.7.7 1.6-1.9-.5h-.2l-1.1-.3c-.3-.1-.6-.1-.9-.1-3-.5-8.6-1-12.2 1.4-.4.3-.7.5-1.1.7-.9-.7-2.1-1-3.2-.7l-4.7 1.2-.3-.2 1.3-3-21.3-9.4.3 25.5 11.6 5.2 1.3-2.9c.6.9 1.3 1.7 2 2.4-.5.7-.7 1.5-.6 2.4.2 1.6 1.6 2.9 3.3 2.9.2 0 .3 0 .4-.1.3 0 .6-.1.8-.2v.7c.2 1.6 1.7 2.8 3.3 2.8h.5c.3 0 .6-.2.8-.3v.7c.2 1.6 1.7 2.9 3.3 2.9h.4c1-.2 1.8-.8 2.3-1.5l4.7 2.8c1.1.7 2.6.3 3.3-.8.7-1.1.3-2.6-.8-3.3.3 0 .5-.2.7-.3l2.4 1.5c.4.2.8.3 1.3.3.8 0 1.6-.5 2.1-1.1.3-.6.4-1.2.2-1.8-.2-.6-.6-1.2-1.1-1.5l-.5-.3c.2-.2.4-.3.5-.4l2.1 1.3c.4.2.8.3 1.3.3.8 0 1.6-.4 2.1-1.1.6-1.1.3-2.5-.8-3.3l.6-.4 1 .6c.3.2.8.3 1.2.3.8 0 1.6-.4 2.1-1.2.5-.8.4-1.9-.2-2.7.1-.1.2-.2.3-.2l.2-.2c.3-.3.6-.8.9-1.1l1.3 2.9 11.5-5.2.1-26zM92.1 84.9l-.2.2c-.2.2-.3.4-.5.5l-14.1-8.5c-.3-.2-.5-.4-.8-.5-.3-.1-.6-.2-.9-.2h-.5c-.3-.1-.6-.1-.8-.1h-1-.2c-.6 0-1 .1-1.5.3h-.1c-.2.1-.4.2-.6.2 0 0-.1.1-.2.1-.2.1-.3.2-.5.2-.2.1-.5.2-.7.4-2.3 1.1-4.1 1.1-5.2.6-.2-.1-.5-.2-.6-.4 0 0-.1 0-.2-.1 0-.1-.1-.1-.1-.2-.1-.2-.2-.3-.2-.4-.1-.2-.8-2.6.3-2.8.7-.1 4.4-1 7.6-3.1.4-.3.8-.5 1.3-.7.2-.1.4-.2.7-.3.3-.1.5-.2.8-.2.2 0 .5-.1.7-.2.3-.1.6-.1.9-.2.2 0 .4 0 .6-.1.5 0 1-.1 1.4-.1h.2c1.8 0 3.6.2 4.9.4 1 .1 1.6.3 1.8.3l3.5.9.1-.1 5.5 12.3c-.3.6-.8 1.2-1.4 1.8"/><path fill="#566494" d="M74.5 3.1L47.7 18.6l61.8 35.6V91.8l-32.7 18.8 26.9 15.6 25.9-15 6.8-3.9V38.8l-6.8-3.8z"/><path d="M39.7 56.1v-1.8l32.7-18.8L45.5 20l-26 15-6.7 3.8v68.5l6.7 3.9L74.8 143l26.7-15.5-61.8-35.6z"/></svg>