<svg xmlns:xlink="http://www.w3.org/1999/xlink"  version="1" xmlns="http://www.w3.org/2000/svg" viewBox="0 0 150 150"><g fill-rule="evenodd" clip-rule="evenodd"><path fill="#4B9644" d="M95.6 15.6L78.9 34.8v69.4h16.7z"/><path fill="#3174A6" d="M30.6 33.3l16.7 23.8v47.5H30.6zM54.5 22l16.7 23.8v58.4H54.5z"/><path fill="#4B9644" d="M116.5 32.9L99.7 56.7v47.5h16.8z"/><path fill="#3174A6" d="M121.7 39.3v12.5c1.6.9 2.3 2.7 2.3 5.1v41.5c0 4.1-1.8 5.9-5.9 5.9H52.6h-22c-3.8 0-7.3-2.1-7.3-5.9V56.9c0-3.4 1.6-5.4 4.5-5.8v-12c-10.9.5-16.4 6.4-16.4 17.7v41.5c0 9.5 3.9 15.4 11.6 17.2 0 .7 5.5 1.1 7.7 1.1 1 0 27.7-.5 28.5-.5h42.4l-6.2 16.4 21.4-16.4h1.3c11.8 0 17.8-5.9 17.8-17.8V56.9c-.1-10.6-4.8-16.4-14.2-17.6z"/></g></svg>