<svg xmlns:xlink="http://www.w3.org/1999/xlink"  xmlns="http://www.w3.org/2000/svg" viewBox="0 0 150 150"><path fill="none" d="M35.1 75.7C26 75.8 19 77.1 15.3 78c3.7-.8 10.7-2.1 19.8-2.3z"/><path fill="#CD926A" d="M94.7 38.3c0-.3.1-.7.1-1 0-9.9-8-17.9-17.9-17.9-9.9 0-17.9 8-17.9 17.9 0 .6 0 1.2.1 1.7 7.9-2.1 21.5-4.3 35.6-.7zM76.8 22.5c7.8 0 14.2 6.4 14.2 14.2v.8c-1.4-.4-2.7-.6-4.1-.9-.1-5.5-4.6-9.8-10.1-9.8-5.6 0-10.1 4.5-10.1 10.1v.3c-1.5.3-2.8.6-4 .9 0-.5-.1-.9-.1-1.4.1-7.9 6.4-14.2 14.2-14.2z"/><path fill="#006DB6" d="M15.2 78c.1 0 .1 0 0 0 .1 0 .1 0 0 0 .1 0 .1 0 0 0zM37.4 79.3c-1.4 0-2.6-1.1-2.6-2.6 0-.4.1-.7.2-1-9 .2-16 1.5-19.7 2.3-.2.6-.3 1.1-.3 1.8v13.8c0 2.8 2.2 5.1 5.1 5.1l11.3 3.6c3.7 5.5 8.7 10.3 14.9 14-.1.4-.3.9-.3 1.3v8.2c0 2.8 2.4 5.1 5.2 5.1H63c2.8 0 5-2.3 5-5.1V102h-7.8l8.5-14.7 3.2-5.6c-11.6-4.2-22.7-5.7-32.1-5.9.1.3.2.7.2 1 0 1.3-1.2 2.5-2.6 2.5zM86.1 88.1l8 13.9h-8v23.9c0 2.8 2.4 5.1 5.2 5.1H103c2.8 0 5-2.3 5-5.1v-8.2c0-.8-.2-1.6-.6-2.3 2.3-1.5 4.4-3.1 6.4-4.9-8.9-10-18.3-17.2-27.7-22.4z"/><linearGradient id="a" gradientUnits="userSpaceOnUse" x1="80.715" y1="168.11" x2="128.838" y2="85.175"><stop offset="0" stop-color="#fff"/><stop offset=".071" stop-color="#e0edf6"/><stop offset=".215" stop-color="#a5cce5"/><stop offset=".359" stop-color="#73afd7"/><stop offset=".5" stop-color="#4997cb"/><stop offset=".636" stop-color="#2985c2"/><stop offset=".768" stop-color="#1378bb"/><stop offset=".891" stop-color="#0570b7"/><stop offset="1" stop-color="#006db6"/></linearGradient><path fill="url(#a)" d="M113.9 110.4l1.5-1.5-1.5 1.5z"/><path fill="#006DB6" d="M133.7 64.4c5.4 9.8-8 5-9.1 4.6-6.6-16.9-25.8-29.2-48.5-29.2-8.8 0-17 1.8-24.3 5.1-4.6-3.6-14.7-10.2-23.1-7.1-9.5 3.4 3.7 2.3 7.8 17.6-4.8 4.9-8.3 10.8-10.1 17.2L20 74.7c-.3 0-.6 0-.9.1-.1 0-.2 0-.3.1-.2 0-.4.1-.6.2-.1 0-.2.1-.3.1-.2.1-.3.2-.5.2-.1.1-.2.1-.3.2-.1.1-.2.1-.3.2-.3.2-.5.5-.7.7 0 .1-.1.1-.1.2-.1.2-.2.3-.3.5 0 .1-.1.1-.1.2l-.3.6h.1c3.7-.9 10.7-2.2 19.8-2.3.4-.9 1.3-1.5 2.3-1.5 1 0 1.9.6 2.3 1.5 9.4.2 20.5 1.7 32.1 5.9l5.2-9.1 8.5 14.7.5.9c9.4 5.2 18.8 12.4 27.8 22.3l1.5-1.5c.3-.3.5-.6.8-.8.3-.3.5-.6.8-.9.3-.3.5-.6.8-.9.3-.3.5-.6.7-.9.2-.3.5-.6.7-.9.3-.3.5-.7.7-1 .2-.3.4-.5.6-.8.4-.6.8-1.2 1.1-1.8.1-.2.3-.5.4-.7.2-.4.5-.8.7-1.2.1-.3.3-.6.4-.8l.6-1.2c.1-.3.3-.6.4-.8.2-.4.4-.9.5-1.3.1-.2.2-.5.3-.7.2-.7.5-1.4.7-2.1 0-.1.1-.3.1-.4.2-.6.3-1.2.4-1.8.1-.3.1-.5.2-.8l.3-1.5c0-.3.1-.5.1-.8.1-.5.1-1 .2-1.6 0-.2 0-.5.1-.7 0-.8.1-1.5.1-2.3 0-1.3-.1-2.6-.2-3.8 6.3 1.1 10.7-.1 12-5.2 1.4-6.2-5.2-8.8-5.2-8.8zM94.8 50.6c-11.6-3.2-23.8-3.2-35.3 0-.4-1.3-.7-2.6-1.1-3.9 12.3-3.4 25.2-3.4 37.5 0-.4 1.3-.8 2.6-1.1 3.9z"/><linearGradient id="b" gradientUnits="userSpaceOnUse" x1="33.407" y1="140.66" x2="81.53" y2="57.725"><stop offset="0" stop-color="#fff"/><stop offset=".071" stop-color="#e0edf6"/><stop offset=".215" stop-color="#a5cce5"/><stop offset=".359" stop-color="#73afd7"/><stop offset=".5" stop-color="#4997cb"/><stop offset=".636" stop-color="#2985c2"/><stop offset=".768" stop-color="#1378bb"/><stop offset=".891" stop-color="#0570b7"/><stop offset="1" stop-color="#006db6"/></linearGradient><path fill="url(#b)" d="M133.7 64.4c5.4 9.8-8 5-9.1 4.6-6.6-16.9-25.8-29.2-48.5-29.2-8.8 0-17 1.8-24.3 5.1-4.6-3.6-14.7-10.2-23.1-7.1-9.5 3.4 3.7 2.3 7.8 17.6-4.8 4.9-8.3 10.8-10.1 17.2L20 74.7c-.3 0-.6 0-.9.1-.1 0-.2 0-.3.1-.2 0-.4.1-.6.2-.1 0-.2.1-.3.1-.2.1-.3.2-.5.2-.1.1-.2.1-.3.2-.1.1-.2.1-.3.2-.3.2-.5.5-.7.7 0 .1-.1.1-.1.2-.1.2-.2.3-.3.5 0 .1-.1.1-.1.2l-.3.6h.1c3.7-.9 10.7-2.2 19.8-2.3.4-.9 1.3-1.5 2.3-1.5 1 0 1.9.6 2.3 1.5 9.4.2 20.5 1.7 32.1 5.9l5.2-9.1 8.5 14.7.5.9c9.4 5.2 18.8 12.4 27.8 22.3l1.5-1.5c.3-.3.5-.6.8-.8.3-.3.5-.6.8-.9.3-.3.5-.6.8-.9.3-.3.5-.6.7-.9.2-.3.5-.6.7-.9.3-.3.5-.7.7-1 .2-.3.4-.5.6-.8.4-.6.8-1.2 1.1-1.8.1-.2.3-.5.4-.7.2-.4.5-.8.7-1.2.1-.3.3-.6.4-.8l.6-1.2c.1-.3.3-.6.4-.8.2-.4.4-.9.5-1.3.1-.2.2-.5.3-.7.2-.7.5-1.4.7-2.1 0-.1.1-.3.1-.4.2-.6.3-1.2.4-1.8.1-.3.1-.5.2-.8l.3-1.5c0-.3.1-.5.1-.8.1-.5.1-1 .2-1.6 0-.2 0-.5.1-.7 0-.8.1-1.5.1-2.3 0-1.3-.1-2.6-.2-3.8 6.3 1.1 10.7-.1 12-5.2 1.4-6.2-5.2-8.8-5.2-8.8zM94.8 50.6c-11.6-3.2-23.8-3.2-35.3 0-.4-1.3-.7-2.6-1.1-3.9 12.3-3.4 25.2-3.4 37.5 0-.4 1.3-.8 2.6-1.1 3.9z"/><path fill="#FFFFFE" d="M37.4 74.2c-1 0-1.9.6-2.3 1.5-.1.3-.2.7-.2 1 0 1.4 1.1 2.6 2.6 2.6s2.6-1.1 2.6-2.6c0-.4-.1-.7-.2-1-.5-.9-1.4-1.5-2.5-1.5z"/></svg>