<svg xmlns:xlink="http://www.w3.org/1999/xlink"  version="1" xmlns="http://www.w3.org/2000/svg" viewBox="0 0 150 150"><linearGradient id="a" gradientUnits="userSpaceOnUse" x1="6.785" y1="62.636" x2="74.379" y2="62.636"><stop offset="0" stop-color="#29a5de"/><stop offset="1" stop-color="#2078b8"/></linearGradient><path fill="url(#a)" d="M19.9 58.6l29.6-31.2-3-2c-5-3.4-13.2-1.5-16.2 3.6L8.8 65.4c-3.7 6.3-2.1 13.2 3.9 17.3l27.8 18.8-22-24.9c-4.5-5.2-3.9-12.4 1.4-18z"/><path fill="#87AA56" d="M70.1 27.2c-.9-1-2.1-1.8-3.4-2.3-4.1-1.6-9.8-.5-13.1 3l-1.4 1.4-29.5 31.1c-5.3 5.6-5.8 12.8-1.3 18l22.2 25.2 4.1 4.7c.2.2.4.3.6.5.4.4.9.8 1.4 1.1-.4-.3-.7-.6-1-1-.4-.5-.7-1-1-1.5l-.7-1.5-15.7-33c-2.8-6-.2-13.1 6.4-17.8L63.6 37l8.6-6 .8-.6-2.9-3.2z"/><path fill="#80A7A4" d="M100.3 33.4c-1.2-3.1-4.6-4.9-8.4-5.1h-1c-2.1.1-4.3.6-6.2 1.8l-7.9 4.7-.8.4-8 4.8-23.9 14.2c-7 4.2-10.1 11.1-7.7 17.2l13.8 35.7c.1.2.1.3.2.5.3.7.7 1.3 1.2 1.8s1.1 1 1.7 1.3c-.2-.4-.4-.8-.5-1.3v-.1l-.3-1.3-9-35.8c-1.6-6.4 2.3-12.9 9.8-16.2l23.4-10.3 6.2-2.7.9-.4 11.9-5.2.7-.3c.1-.1.2-.1.4-.1 1.5-.6 3-.9 4.5-.9l-1-2.7z"/><path fill="#26A7DF" d="M101.9 97.1l13-33.7-3.7-12.9c-1.7-5.6-8.9-9-14.3-6.6L76.8 53l1.6-.1 23.5 44.2zM58.8 61.1c-6.5 2.9-9.6 9.6-7.6 16.4l7.2 24.9 10.7-45.9-10.3 4.6zM119.1 77.7L106.5 111l8.7-3.9c6.5-2.9 9.6-9.6 7.6-16.4l-3.7-13zM77.7 74.4l-16 38.8 1.3 4.4c1.6 5.7 8.9 9 14.3 6.6l23.6-10.6-2.4.2-20.8-39.4zM48.6 144.7l13-31.5-3.1-10.8z"/><path fill="#26A7DF" d="M142.9 35.1c-.1-2.1-.3-5.6-.5-7.8l-.5-9.1c-.1-2.1-1.7-2.9-3.5-1.7l-7.6 5c-1.8 1.2-4.7 3.1-6.5 4.3l-7.6 5c-1.8 1.2-1.7 2.9.2 3.9l7.6 3.8-9.7 24.9 4.1 14.3 2.5-6.5 11.3-28.6 7.3 3.7c1.9 1 3.4 0 3.3-2.1l-.4-9.1z"/></svg>