<svg xmlns:xlink="http://www.w3.org/1999/xlink"  xmlns="http://www.w3.org/2000/svg" viewBox="0 0 150 150"><path fill="#475154" d="M73.9 38.7c-21 0-38 17-38 38 0 11.9 5.5 22.6 14.1 29.6 3 2.4 7 4.4 10 5.8V73l-10 7.1v16c-4-5.3-6.9-12-6.9-19.4C43.1 59.8 56.9 46 73.9 46c16.9 0 30.9 13.8 30.9 30.7 0 7.3-2.8 14.1-6.8 19.4v-16L88 73v39.1c3-1.4 6.9-3.4 9.9-5.8 8.6-7 14.1-17.6 14.1-29.6 0-20.9-17.1-38-38.1-38z"/><g fill="#2FC2E0"><path d="M75 53.7v61c3-.1 7-.6 10-1.6V62.4l-10-8.7zM63 105.3v7.7c3 1 6 1.5 10 1.6V53.7l-10 8.7v42.9z"/></g><g fill="#4D4D62"><path d="M74.1 123c-17.2-.1-32.2-9.5-40-23.5l-.1 22.7c0 10.4 8.5 19 18.9 19l42.3.2c10.4 0 19-8.5 19-18.9l.1-22.7c-8 13.9-23 23.2-40.2 23.2zm.5 12.5c-2.6 0-4.7-.9-4.7-2s2.1-2 4.7-2 4.7.9 4.7 2-2.1 2-4.7 2zM95.6 12.5l-42.3-.2c-10.4 0-19 8.5-19 18.9L34.2 54c8-13.9 23-23.3 40.2-23.2 17.2.1 32.2 9.5 40.1 23.5l.1-22.7c0-10.5-8.5-19.1-19-19.1z"/></g></svg>