<svg xmlns:xlink="http://www.w3.org/1999/xlink"  version="1" xmlns="http://www.w3.org/2000/svg" viewBox="0 0 150 150"><path fill-rule="evenodd" clip-rule="evenodd" fill="#9E9C62" d="M88.5 108.1c5.9.3 11.8.8 17.6 1.4-1.6 3-3.6 5.8-6 8.2-4.9-.4-9.8-.7-14.7-.9 1.3-2.7 2.3-5.6 3.1-8.7M72 128c-7-.7-13.5-3.5-18.6-7.8 4.4-.3 8.9-.6 13.3-.7 1.5 3 3.3 5.8 5.3 8.5m-2.3-8.6c1.9-.1 3.8-.1 5.8-.1s3.9 0 5.8.1c-1.6 3-3.6 6-5.8 8.7-2.2-2.7-4.2-5.6-5.8-8.7m14.5.1c4.5.1 9 .4 13.4.7-5.2 4.3-11.6 7.1-18.6 7.8 1.9-2.7 3.7-5.5 5.2-8.5m-33.5-1.8c-2.3-2.4-4.3-5.2-5.9-8.2 5.8-.6 11.7-1.1 17.6-1.4.8 3 1.8 5.9 3.1 8.8-5 .1-9.9.4-14.8.8m14.4-9.7c3.4-.1 6.9-.2 10.3-.2 3.5 0 6.9.1 10.4.2-.9 3-1.9 5.9-3.2 8.7-2.3-.1-4.7-.1-7.1-.1-2.4 0-4.7 0-7.1.1-1.4-2.7-2.5-5.6-3.3-8.7"/><path fill="#153037" d="M75.3 48.8c8.3 0 15.1-8.4 15.1-18.7 0-10.3-6.8-18.6-15.1-18.6s-15.1 8.3-15.1 18.6c-.1 10.3 6.7 18.7 15.1 18.7"/><path fill="none" d="M66.5 104.5l-1.6-.2c-9.4.4-18.6 1.1-27.5 2.4 5.7 15.2 20.4 26.1 37.7 26.1 17.2 0 31.9-10.8 37.7-26.1-10.5-1.5-21.3-2.3-32.3-2.5l-14 .3z"/><path fill="#153037" d="M121 93.5c-2.8-.5-5.7-.9-8.6-1.2-1.8-.2-3.5-.4-5.3-.6l-2.8-29.9c-.5-4.7-4.2-8.2-8.6-8.2-.2-.1-.4-.1-.6-.2-2.5-.3-4.9-.5-7.3-.7l-.1.2 6.5 5.5-7.7 3.9 3.6 6.1L80.3 90h-.1l-1.6-30.5 1.4-1.3-1.9-6H72l-2 6 1.5 1.3L69.9 90h-.1L60 68.4l3.6-6.1-7.7-3.9 6.5-5.5-.1-.2c-2.5.2-4.9.3-7.4.7-.1 0-.3.1-.5.2-4.4-.1-8.3 3.4-8.8 8.2l-2.8 30c-1.5.2-3.1.3-4.6.5-3.1.4-6.2.8-9.3 1.3h-.2-.1c.5 24.2 20.2 45.2 46.1 45.2 25.1 0 44.4-19.7 46-43 .1-.7.1-1.4.1-2.2.3-.1.3-.1.2-.1zm-45.9 39.3c-17.3 0-31.9-10.8-37.7-26.1 9-1.2 18.2-2 27.5-2.4l1.6.2 13.9-.3c11 .2 21.8 1 32.3 2.5-5.7 15.3-20.4 26.1-37.6 26.1z"/><g><path fill="#9E9C62" d="M22.5 93.6l-.1-5.4 1.8-.3 3.8-.6c3-.5 6-.9 9.2-1.3l2.3-25c.8-7.7 7-13.7 14.4-13.7 1.9-.3 3.6-.5 5.4-.6-3.4-4.4-5.5-10.2-5.5-16.6C53.8 16.7 63 5.3 75 5.3c12 .1 21.2 11.4 21.3 24.8 0 6.4-2.1 12.2-5.5 16.6 1.6.2 3.3.3 4.8.5 7.7.2 13.9 6.1 14.7 13.9l2.3 25c.1 0 .3 0 .4.1 3 .4 5.9.8 8.8 1.3l-.4 2-.3 2.1c-2.9-.5-5.7-.9-8.7-1.3-.6-.1-1.2-.1-1.9-.2l-1.7-.1-2.6-28.4c-.6-5.8-5.2-10-10.9-10.2-2.5-.3-5-.5-7.5-.7l-6.7-.4 3.8-3.3c4.3-3.7 7.2-9.8 7.2-16.8 0-11.7-8-20.7-17.1-20.7-9.2.1-17.1 9.1-17.2 20.7 0 6.9 2.9 13 7.2 16.8l3.7 3.2-4.9.4-1.7.1-.9.1c-2.2.2-4.4.3-7.1.8-5.4 0-10 4.2-10.6 10L40.8 90h-1.6c-.4 0-.9.1-1.3.2-3.2.4-6.2.8-9.3 1.3l-2 .3v1.8c.5 26 22.1 47.3 48.2 47.3 25.2 0 46.3-19.7 48.1-44.8.1-.7.1-1.5.1-2.3v-1.9l-1.9-.3.3-2.1.4-2 5.3.8v5.4c0 .8-.1 1.7-.1 2.6-1.9 27.3-24.8 48.6-52.2 48.6-28.3 0-51.7-23-52.3-51.3z"/></g></svg>