<svg xmlns:xlink="http://www.w3.org/1999/xlink"  xmlns="http://www.w3.org/2000/svg" viewBox="0 0 1500 1500"><path fill="#EC5A4F" d="M712 924l-4-3 134 126 170-163 358 315V880l-308-286z"/><linearGradient id="a" gradientUnits="userSpaceOnUse" x1="69.85" y1="1465.845" x2="69.85" y2="1337.725" gradientTransform="matrix(10 0 0 -10 0 15000)"><stop offset="0" stop-color="#00a9de"/><stop offset="1" stop-color="#444867"/></linearGradient><path fill="url(#a)" d="M689 903l19 18-19-18.5z"/><linearGradient id="b" gradientUnits="userSpaceOnUse" x1="67.9" y1="1465.845" x2="67.9" y2="1337.725" gradientTransform="matrix(10 0 0 -10 0 15000)"><stop offset="0" stop-color="#00a9de"/><stop offset="1" stop-color="#444867"/></linearGradient><path fill="url(#b)" d="M670 884h-1l20 19v-.5z"/><path fill="none" d="M689 903v-.5"/><path fill="#444867" d="M661 876l8 8h1z"/><path fill="none" d="M540 768v-5.5"/><path fill="#00A9DE" d="M180 370v700.3l-2 1.7 2-1.7v1.7l309-271h-1l48-42 4 3.5 4 3.5 20 19 96 90 1 1 9 8 19 18.5 19 18.5 4 3 350-330 308 286V370z"/></svg>