<svg xmlns:xlink="http://www.w3.org/1999/xlink"  version="1" xmlns="http://www.w3.org/2000/svg" viewBox="0 0 150 150"><path fill="#3D98AC" d="M81.1 61.7c-3.4 0-4.9 1.6-4.9 4.5v53.4h19.6V66c-.2-2.7-1.7-4.3-4.9-4.3h-9.8z"/><path fill="#01528F" d="M32 75h9.8c6.4 0 9.8 2.9 9.8 9v7c1.2-.7 2.9-.9 4.9-.9h9.8c1.7 0 3.4.2 4.9.9V66.2c0-5.9 3.2-9 9.8-9h9.8c1.7 0 3.4.2 4.9.9v-2.3-.2l-18.9-14L27 75.8c1.4-.5 3.1-.8 5-.8z"/><path fill="#7FBAC8" d="M56.6 94.7c-3.2 0-4.9 1.4-4.9 4.3v20.6h19.6V99c-.2-2.7-1.7-4.3-4.9-4.3h-9.8z"/><path fill="#A7D0DA" d="M32 79.5c-3.4 0-4.9 1.4-4.9 4.5v35.5h19.6V84.1c0-3.2-1.7-4.5-4.9-4.5H32z"/><path fill="#01528F" d="M8.4 70.3l69.5-48.8L144 70.3s2.5 9.5-7.9 8L77.9 36.2 16.4 78.3s-9.1.9-8-8z"/><path fill="#298CA4" d="M120.2 70.8l-18.3-13.3c-.5.4-.9 1-1.1 1.6v.2c-.1.5-.2 1.1-.2 1.8v35.5l.2 22.9h19.6l-.2-46v-2.7z"/></svg>