<svg xmlns:xlink="http://www.w3.org/1999/xlink"  xmlns="http://www.w3.org/2000/svg" viewBox="0 0 150 150"><path fill="none" d="M129.6 85c-1-2.7-4.6-4.2-10-4.6l-1.1 20.2c8.3-5.9 12.6-11.6 11.1-15.6zM50.4 120.1l.9-17.3c-2.9 2-5.3 3.9-7.3 5.8v1.3c-.2-.2-.3-.5-.5-.8-4 4-5.8 7.6-4.8 10.4 1.2 3 5.6 4.6 12.2 4.7-.4-1.4-.6-2.7-.5-4.1z"/><path fill="#C12127" d="M22 63.9c-2.2-6.7 1.1-13.3 8.3-16.5l40.3-17.9-2-3.1c-3.4-5.1-11.9-6.6-16.8-2.9l-34.6 26c-6 4.5-7.2 11.6-3.1 17.9l21.4 28.7L22 63.9z"/><path fill="#ED5123" d="M24 66.8l13.6 32.6 2.1 6c.1.2.2.5.3.7.2.6.5 1.1.9 1.6-.2-.4-.4-.9-.6-1.3-.2-.6-.3-1.2-.3-1.8l-.1-1.7-4.4-37.5c-.3-6.8 4.9-12.5 13-14.3l31.6-7 10.5-2.3 1-.2-1.4-4.1c-.4-1.3-1.3-2.5-2.3-3.5-3.3-3.1-9-4.3-13.5-2.3l-1.8.8-40.2 17.8c-7.3 3.2-10.6 9.8-8.4 16.5z"/><path fill="#585657" d="M57.5 131.2c1.2.5 2.5.8 3.9.7l22.2-.7 19.8-.6h.7c7.3-.2 12.8-5.3 13.6-12.5l.4-8.3c-7.3 4.7-16.2 9.1-26.2 12.9-12.5 4.7-24.5 7.6-34.4 8.5zM51 102.6l.1.1-.8 17.3c-.2 1.4.1 2.8.5 4.1 9.5.1 23.6-2.8 38.4-8.4 11.8-4.5 22.1-9.9 29.3-15.1l1.1-20.2h-.3c.1-.8.1-1.7.1-2.5h.3l.1-2.3c.6-6-4.9-12-10.9-11.8L66.2 65c-7.3.2-12.8 5.3-13.6 12.5L51.2 100H51v2.6zm51 1.2V78.2c0-1.8 1.1-3.2 2.9-3.2h5.7c1.8 0 3.4 1.4 3.4 3.2v23c-2 1.2-3.7 1.8-5.7 3.8h.2c-2 1-4.5 2.3-6.5 3.5v-4.7zm-16 7.4V90.8c0-1.8.9-2.8 2.7-2.8h5.7c1.8 0 3.6 1 3.6 2.8v19.7c-3 1.2-5.1 2.5-7.9 3.6-1.4.6-3.1 1.2-4.1 1.7v-4.6zm-16 5.3V99c0-1.8.8-3 2.5-3h5.7c1.8 0 3.8 1.3 3.8 3V117.3c-3 .7-5 1.3-6 1.9h-.2c-1.1.3-2.2.6-3.2.9h.2c-1.1.3-1.8.6-2.8.9v-4.5zm-17-9.1h.2c-.1-.2-.1-.5-.1-.8 0-1.4 1.5-2.6 3.2-2.6H62c1.8 0 3.2.8 3.2 1.7 0 .1-.2.3-.2.4v16c-2 .6-4.8 1-7 1.3-.6.1-1.2.2-1.8.2-.3 0-.5.1-.8.1-.8.1-1.4.1-2.4.2v-16.5z"/><path fill="#C12127" d="M58.2 123.4c2.3-.3 4.8-.7 6.8-1.3v-16c.1-.1.2-.3.2-.5 0-.9-1.4-1.7-3.1-1.7h-2v19.2c-1.1.2-1.4.3-1.9.3zM56.2 123.7c-.3 0-.5 0-.8.1.3-.1.5-.1.8-.1zM75.7 119.3c-1.1.3-2.1.6-3.1.9 1-.2 2-.5 3.1-.9zM69.3 121.2c1-.3 2.1-.6 3.2-.9-1.1.3-2.2.6-3.2.9zM82 117.4V99c0-1.8-2-3-3.8-3H76v23.3c1-.6 3-1.2 6-1.9zM89.9 114.1c2.7-1.2 5.1-2.4 8.1-3.6V90.8c0-1.8-1.8-2.8-3.6-2.8H92v25.2c-1 .3-1.3.6-2.1.9zM114 101.2v-23c0-1.8-1.6-3.2-3.4-3.2H108v30.4c2-1.2 4-2.9 6-4.2z"/><path fill="#FBB33A" d="M56.2 123.7c.6-.1 1.5-.2 2.1-.2.5-.1.7-.1 1.7-.2V104h-3.7c-1.8 0-3.2 1.2-3.2 2.6 0 .3 0 .5.1.7l-.2.1V124c1 0 1.6-.1 2.4-.2.2-.1.5-.1.8-.1zM72.5 120.3c1-.3 2.2-.6 3.3-.9h.2V96h-3.5c-1.8 0-2.5 1.3-2.5 3v22.1c1-.3 1.7-.6 2.8-.9 0 .1-.3.1-.3.1zM92 113.2V88h-3.3c-1.8 0-2.7 1-2.7 2.8v25.1c1-.5 2.6-1.1 4-1.7.8-.4 1-.7 2-1zM108 104.9V75h-3.1c-1.8 0-2.9 1.4-2.9 3.2V108.4c2-1.2 4-1.9 6-3.1v-.4z"/><path fill="#FBB33A" d="M137.5 84.8c-1.7-4.6-8.3-6.9-17.7-6.9h-.3c0 .8 0 1.7-.1 2.5h.3c5.4.4 9 1.9 10 4.6 1.5 4-2.9 9.7-11.1 15.6-7.3 5.3-17.5 10.7-29.3 15.1-14.9 5.6-28.9 8.5-38.4 8.4-6.6-.1-11-1.6-12.2-4.7-1-2.8.8-6.4 4.8-10.4.2.3.3.5.5.8v-1.3c2-1.9 4.2-3.9 7.1-5.8.1 0-.1-.1-.1-.1v-2.7h.2c-2.6 1.7-4.8 3.4-7 5.1l3-35.5c1-6.7 7.3-11.3 15.6-11.5l26.2-.5 7-.2h1l13.3-.3H111.5c1.6 0 3.2.3 4.7.9l.1-2.8c.1-3.4-2.4-6.5-6-8.1-.3-.1-.6-.3-.9-.4-2-.8-4.3-1.1-6.6-.7l-9.3 1.3-1 .1-9.4 1.3L55 52.7c-8.2 1.2-13.9 6.5-14.1 13.3l1.5 39.2v.6c0 .3.1.6.1.9-7.8 6.7-11.7 13.2-9.9 18 2.1 5.7 11.7 7.8 24.8 6.6 9.9-.9 22-3.8 34.4-8.5 9.9-3.8 18.9-8.2 26.2-12.9 14-9 22-18.6 19.5-25.1z"/></svg>