<svg xmlns:xlink="http://www.w3.org/1999/xlink"  version="1" xmlns="http://www.w3.org/2000/svg" viewBox="0 0 150 150"><path fill="none" d="M131.8 75.1v0z"/><path fill="#027696" d="M132 75.4c0-.5 0-.9-.1-1.4V18.1l-3.4-1.4c-14.9-6.1-30.8-9.5-47-10.2l.1-.1h-.1c-2.3-.1-4.6-.1-6.9-.1-1.8 0-3.7 0-5.6.1v.1c-16 .8-32.1 4.1-47 10.2l-3.3 1.4V74c-.1.4-.1.9-.1 1.4 0 8.1 5 22.1 26.8 43.9 3.3 3.3 6.1 6.1 8.7 8.6l4.9-10c-1.9-1.8-3.9-3.8-6.1-6.1C31.6 90.4 29.4 79 29.4 75.4v-.7l-.2-2.2.3 1.5V25.4c13.7-5.2 28.3-8.1 43-8.4h4.9c15 .2 29.9 3.1 43.8 8.5V74l.3-1.5-.2 2.3c0 .2.1.3.1.6 0 3.8-2.3 15-23.6 36.6-2.1 1.9-3.8 3.7-5.5 5.3l4.9 10c2.5-2.3 5.1-4.9 8.1-7.8 21.8-22 26.7-36 26.7-44.1zm-.2-.3v.3-.3zM79.7 129.4c-1.8 1.9-3.3 3.1-4.4 4.2-1-.9-2.1-2.1-3.7-3.6l-4 8.1-1 2c2.9 2.7 4.9 4.3 6.4 5.3h-.7c1 .6 1.8 1 2.9.8 1.1.2 1.8-.3 2.9-.8h-.6c1.6-1 3.8-2.9 7-5.9L84 138l-4.3-8.6z"/><path fill="#002D3C" d="M77 102.9l12.8-26 1-.2h.1v-.1c0-.2.1-.4.1-.6l-.1-.1c.8-2.1 2.1-4.5 3.4-6.9.4.8 1 1.8 2.1 2.3.8.4 1.6.5 2.9.4 2.7-.3 4.2-1.6 5.1-3.5.1-.1.1-.2.2-.3 0 0 .1-.1.1-.2s.1-.1.1-.3c0 0 0-.1.1-.2s.1-.2.1-.3c0-.1.1-.1.1-.3v-.3l.1-.1c.3-1 .5-2.2.7-3.4.2-.5.3-1.1.3-1.7 0-.1.1-.1.1-.2.1-.1.1-.3.1-.4s0-.2.1-.4l.1-.2c0-.2.1-.4.1-.6V59c0-.2.1-.3.1-.4v-.2c0-.2.1-.3.1-.5v-.2c.1-.3.1-.5.2-.7 1.7-5.5 4.5-6.3 4.5-6.3h-.3l-.1.1c-.1 0-.2 0-.3.1-.1 0-.1.1-.1.1-.1 0-.1 0-.3.1 0 0-.1.1-.2.1-.1.1-.1.1-.2.1l-.1.1-.2.2c-.1 0-.1 0-.1.1-.1.1-.1.2-.3.2l-.1.1-.3.3c-.1.1-.3.2-.3.3 0 .1-.1.1-.1.1-.1.1-.1.2-.3.3 0 .1 0 .1-.1.1-.1.1-.1.2-.2.3 0 0-.1.1-.1.2 0 0-.1.1-.1.3-.1 0-.1.1-.1.1-.1.1-.1.3-.1.4l-.1.1c-.1.1-.1.3-.2.3l-.1.1c-.1.2-.2.4-.3.5-.1.1-.2.4-.3.5v.1c-.1.2-.1.3-.3.5v.1c-.1.2-.1.3-.2.4l-.1.1c-.1.1-.1.3-.1.4l-.1.1c0 .2-.1.3-.1.4 0 .1 0 .1-.1.1-.1.2-.1.4-.1.5l-.5.4c-.1.3-.3.8-.4 1.1v.1c0 .1-.1.3-.1.4v.2c-.1.2-.1.2-.1.4 0 0 0 .1-.1.1-.1.1-.1.2-.1.3 0 .1-.1.1-.1.1-.1.1-.1.3-.1.4-.1.1-.1.1-.1.2-.1.1-.1.2-.1.3s0 .1-.1.1c-.1.1-.1.3-.1.4v.2c-.1.6-.3 1.1-.4 1.4-.5 3.2-3 4.7-5.5 3.7-.1-.1-.2-.1-.3-.2h-.2c-.1-.1-.2-.1-.3-.2 0-.1-.1-.1-.1-.1 0-.1-.2-.1-.2-.2l-.1-.1c0-.1 0-.1-.1-.1-.1-.1-.1-.2-.1-.2-.1-.1-.1-.1-.1-.2V67c-.1-.1-.1-.1-.1-.3-.1 0-.1-.1-.1-.1v-.2-.2V65.9v-.2V65.4c2.9-4.9 6.2-9.8 7.6-13.1 1.5-3.4 4-11.6 5.9-18.1 0 .1-.1.2-.2.3-4 5.3-8.8 12.1-10.6 15.3-1.4 2.6-2.9 6.6-4.4 10.8-.3 1-.7 1.9-1 2.8l-.1.1c-.1.1-.1.1-.2.3l-.1.1s-.1 0-.1.1-.1.1-.1.1c0 .1-.1.1-.1.1 0 .1-.1.1-.1.1l-.1.1c-.1 0-.2.1-.3.1-.1.1-.3.2-.3.2h-.1c-.1.1-.2.1-.3.1-.1 0-.1 0-.1.1H91l-.1.1h-.3c-.1 0-.3-.1-.4-.1H90s-.1 0-.3-.1c-.1 0-.1 0-.2-.1-2.3-1.4-2.6-4.2-.4-6.6l.3-.3c.1-.1.1-.2.1-.2.1-.1.2-.1.2-.3.1 0 .1 0 .1-.1l.3-.3s.1 0 .1-.1c.1-.1.2-.3.3-.4v-.1c1.1-1.3 2.3-3.1 3.4-5l.1-.1c.1-.1.1-.2.2-.3 0-.1.1-.1.1-.3 0-.1.1-.2.1-.3 0-.1.1-.1.2-.3 0-.2.1-.2.1-.3 0-.1.1-.2.1-.3 0-.1.1-.3.1-.3 0-.1.1-.1.2-.2 0-.2 0-.3.1-.3.1-.1.1-.2.1-.3.1-.1.1-.2.1-.3 0-.1.1-.2.1-.3v-.2l.2-.2c0-.2 0-.3.1-.4 0-.1.1-.1.1-.2v-.3c.1-.1.1-.1.1-.3v-.3-.2-.3-.2-.3-.2-.2-.2c0-.1-.1-.2-.1-.3v-.1c0-.1-.1-.2-.1-.3v-.1c-.1-.1-.2-.2-.3-.4 0 0 1.1 2.7-2.3 7.4-.1.1-.1.2-.2.3-.3.4-.8 1-1.2 1.4-3.6 4.1-8.7 7.9-5.5 13.2.6 1 1.4 1.6 2.1 2.1 1.1.5 2.3.4 3.3.1-1.2 2.7-2.4 5-3.7 7l-.1-.1-.5.5.4.9-12.1 24.6L63.6 76l.5-.9h.1-.1l-.5-.5-.1.1c-1.2-2-2.5-4.4-3.5-7 .9.3 2 .4 3.2-.1.8-.4 1.4-1 2.1-2.1 3.1-5.2-1.9-9.1-5.5-13.2-.5-.5-.9-1-1.2-1.4-.1-.1-.1-.2-.2-.3-3.4-4.7-2.4-7.5-2.4-7.5 0 .1-.1.2-.1.4l-.1.1c0 .1 0 .2-.1.3 0 .1-.1.1-.1.1v.3c0 .1-.1.1-.1.2v.2c-.1.1-.1.1-.1.2v.3c0 .1 0 .1.1.2v.5c.1.2.1.2.1.3v.3c0 .1.1.1.1.3v.2c0 .1.1.2.1.3v.2c.1.1.1.2.1.3 0 .1 0 .2.1.3.1.1.1.2.1.3.1.1.1.2.1.3 0 0 .1.2.1.3 0 .1.1.1.1.2s.1.2.2.3c0 .1 0 .1.1.3.1.1.1.1.2.3 0 .1 0 .1.1.3.1.1.1.2.2.3 0 .1 0 .2.1.3.1.1.1.2.2.3v.1h.1c1 1.9 2.3 3.7 3.4 5v.1c.1.1.2.3.3.4 0 .1 0 .1.1.1.1.2.2.3.3.3 0 .1.1.1.1.1.1.1.1.2.3.3v.2c.1.1.2.1.3.3 2.2 2.5 1.9 5.3-.4 6.6-.1.1-.1.1-.3.1 0 .1-.2.1-.2.1h-.2c-.1.1-.2.1-.3.1h-.4s0-.1-.2-.1h-.2l-.1-.1c-.1 0-.2 0-.3-.1l-.1-.1c-.1 0-.2-.1-.3-.2h-.1c-.1-.1-.2-.1-.3-.1-.1 0-.1-.1-.1-.1-.1 0-.1 0-.3-.1v-.1c-.1 0-.1-.1-.3-.1v-.1c-.1 0-.1 0-.1-.1s-.2-.2-.2-.3v-.1c-.4-.9-.8-1.9-1.1-2.9-1.6-4.2-3.1-8.2-4.5-10.8-1.7-3.2-6.5-10-10.5-15.3-.1-.1-.1-.3-.3-.3 1.9 6.5 4.4 14.7 6 18.1 1.4 3.3 4.6 8.2 7.6 13.1V66.4c-.1.1-.1.2-.1.2l-.1.1v.3h.2v.2c-.1.1-.1.1-.1.2 0 0 0 .1-.1.1 0 .1 0 .1-.1.1-.1.2-.1.2-.2.2-.1.2-.1.2-.2.2 0 .1-.1.1-.2.2l-.1.1c-.1.1-.2.1-.3.2-2.5 1-4.9-.5-5.5-3.7 0-.3-.1-.8-.3-1.4v-.1l-.1-.1c-.1-.1-.1-.2-.1-.4v-.1c-.1-.1-.1-.2-.1-.3v-.2c-.1-.1-.1-.2-.1-.4v-.1c-.1-.1-.1-.3-.1-.3v-.1c-.1-.2-.1-.3-.1-.4 0-.1-.1-.1-.1-.2-.1-.1-.1-.3-.2-.4v-.1c-.1-.3-.3-.8-.3-1.1l-.1-.1c0-.1-.1-.3-.1-.5 0 0-.1 0-.1-.1-.1-.1-.1-.3-.2-.4v-.1c-.1-.1-.2-.3-.2-.4l-.1-.1c0-.1-.1-.3-.1-.4l-.1-.1c-.1-.2-.2-.3-.2-.5 0 0 0-.1-.1-.1-.1-.1-.2-.4-.2-.5h-.1c-.1-.1-.2-.3-.3-.5l-.1-.1c0-.1-.1-.2-.2-.3 0-.1-.1-.1-.1-.1-.1-.1-.2-.2-.2-.4-.1 0-.1-.1-.1-.1-.1-.1-.1-.2-.3-.3 0-.2 0-.2-.1-.2-.1-.1-.1-.2-.2-.3 0-.1-.1-.1-.1-.1 0-.1-.1-.2-.2-.3 0-.1-.1-.1-.1-.1l-.3-.3h-.1c0-.1-.1-.3-.3-.3 0-.1-.1-.1-.1-.1 0-.1-.1-.1-.2-.2l-.1-.1c-.1-.1-.2-.1-.3-.2l-.1-.1c-.1-.1-.1-.1-.2-.1s-.1 0-.2-.1c0-.1-.1-.1-.1-.1-.2 0-.2-.1-.2-.1-.1-.1-.2-.1-.3-.1h-.1c-.2-.1-.3-.1-.4-.1 0 0 2.9.9 4.5 6.3.1.2.1.4.1.7.1 0 .1.2.2.2 0 .2 0 .3.1.5 0 .1.1.1.1.2s0 .3.1.4c0 .1.1.1.1.3 0 .2 0 .4.1.6v.2c0 .2.1.3.1.4s.1.3.1.4v.2c.1.5.2 1.2.3 1.7.3 1.2.5 2.4.8 3.4v.1c0 .1.1.3.1.3 0 .1 0 .2.1.3.1.1.1.1.1.3 0 .1.1.2.1.2.1.1.1.2.1.3.1.1.1.2.1.2.1.1.1.3.1.3 1 1.9 2.5 3.2 5.1 3.5 1.1.2 2.1 0 2.9-.4 1-.5 1.7-1.5 2-2.3 1.4 2.5 2.7 4.9 3.4 6.9l-.2-.3c.1.2.1.4.1.6v.1l1 .2 13 26L59.5 134l1.8.8L76 105.2l14.7 29.6 1.8-.8L77 102.9z"/><path fill="#027696" d="M76.3 31.1l1.8 7.8 7.9-.7-6.9 4 3.2 7.3-6-5.3-5.9 5.3 3.2-7.3-6.9-4 7.9.7z"/></svg>