<svg xmlns:xlink="http://www.w3.org/1999/xlink"  xmlns="http://www.w3.org/2000/svg" viewBox="0 0 150 150"><path fill="#385072" d="M24.9 115.6l.2-2.1-2.7 2.8 2.5-.7z" opacity=".1"/><path fill="#6CAB36" d="M24.9 114.8l.2-2.1-2.7 2.8 2.5-.7z"/><path fill="#0081C3" d="M85.6 33.2l-9.1-2.5-9.3 2 9.7-15.6z"/><path fill="none" d="M101.8 99.7l.4.4 1.5.4L84 80.2l-.3-1.2-.3-.1-7.1-25.8-7.7 27.1-18.9 19.7-.4.2-.4.4L74.6 94l.7-.9z"/><path fill="#0081C3" d="M91.5 75.5L76.3 22 61.1 75.5l-38.7 39.9 54-13.6 54 13.6-38.9-39.9zM74.4 94.2l.2-.3-25.7 6.5.4-.4-12.3 4.7 31-25.8.6 1.3 7.7-27-.1-.5 2.4-13.4 6.3 39.9-1.2-.2.3 1.2 19.7 20.3-1.5-.4 10 8.4-37.8-14.3z"/><path opacity=".24" fill="#FFF" d="M68.6 80.2l-19.3 19.9.4-.2z"/><path fill="#2896CD" d="M69.3 77.7l-32.3 27 11.9-4.2 19.7-20.3z"/><path opacity=".24" fill="#FFF" d="M102.2 100.1l-.4-.4-26.5-6.6-.7.9 1.7-.4z"/><path fill="#2896CD" d="M103.7 100.5l-27.4-6.9-1.7.4-.2.2 37.8 14.2z"/><path opacity=".24" fill="#FFF" d="M83.7 79l-7.4-26v.1l7.1 25.8z"/><path fill="#2896CD" d="M84 80.2l1.6 1.5-7.1-42.5-2.4 13.4.2.5V53zM81.4 30.5l-4.2-10.8 1.1 10z"/><path fill="#6CAB36" d="M119.1 118.7l7.4-5.9 3.7-8.7 7.1 16.9z"/><path fill="#50C9ED" d="M24.1 105.3l1.7 9.3 5.9 7.4-18.2-1.8z"/><path fill="#A6CB83" d="M124 118.4l11.5 1.2-9.5-3.5z"/><path fill="#8CD8F2" d="M23 109.9l-7.6 8.8 8.3-5.7z"/></svg>