<svg xmlns:xlink="http://www.w3.org/1999/xlink"  xmlns="http://www.w3.org/2000/svg" viewBox="0 0 150 150"><linearGradient id="a" gradientUnits="userSpaceOnUse" x1="80.019" y1="24.22" x2="86.462" y2="24.038"><stop offset=".022" stop-color="#6cab36"/><stop offset=".781" stop-color="#357d57"/></linearGradient><path fill="url(#a)" d="M84.3 31.4l-2.8 6V11c4.5-.3 4.1 3.2 3.7 4.6-.1.4-.2 4.9-.2 4.9l-.7 10.9z"/><linearGradient id="b" gradientUnits="userSpaceOnUse" x1="93.647" y1="44.47" x2="49.498" y2="50.879"><stop offset=".376" stop-color="#6cab36"/><stop offset="1" stop-color="#357d57"/></linearGradient><path fill="url(#b)" d="M55.5 43.7s28.1-13.2 29.9-29.3V76s-16.2 9.1-29.9-11.1V43.7z"/><linearGradient id="c" gradientUnits="userSpaceOnUse" x1="85.944" y1="38.828" x2="96.546" y2="38.529"><stop offset="0" stop-color="#00a8de"/><stop offset=".758" stop-color="#415863"/></linearGradient><path fill="url(#c)" d="M93.1 49.1l-4.8 8.6v-38c8.4-.5 6.4 5.3 6.4 6.9 0 .2-.1 1.6-.1 1.6l-1.5 20.9z"/><linearGradient id="d" gradientUnits="userSpaceOnUse" x1="107.594" y1="67.865" x2="34.886" y2="78.419"><stop offset=".242" stop-color="#00a8de"/><stop offset="1" stop-color="#415863"/></linearGradient><path fill="url(#d)" d="M44.2 67s46.3-18.5 50.5-41.4c.1-.3.1-.7.2-1v88.9s-27.5 13.1-50.7-16.1V67z"/><linearGradient id="e" gradientUnits="userSpaceOnUse" x1="94.813" y1="57.489" x2="109.814" y2="57.066"><stop offset="0" stop-color="#ffad26"/><stop offset="1" stop-color="#d77145"/></linearGradient><path fill="url(#e)" d="M106.6 43.7l-1.7 25.9L98 79.9v-45c14-.7 8.6 8.8 8.6 8.8"/><linearGradient id="f" gradientUnits="userSpaceOnUse" x1="122.693" y1="86.287" x2="23.157" y2="100.736"><stop offset="0" stop-color="#ffad26"/><stop offset="1" stop-color="#d77145"/></linearGradient><path fill="url(#f)" d="M34.4 90.8s68.6-22.6 72.9-50.1v94.5s-39.6 15.5-72.9-19V90.8z"/><path fill="#E8E8E8" d="M70.1 101.4c-16.5 8.3-29.6 10.2-35.7 10.6v4c5.9-.3 18.9-1.9 35.7-10v4.1l8.8-11.4-8.8-.2v2.9zm22.3-25.7L81.6 77v3.5c-24.1 15.6-42.4 19.2-47.2 20v4.8c4.1-.5 22.4-3.6 47.2-19.1v5.1l10.8-15.6zm-33.2 43.2c-6.4 2.3-12.3 3.6-17.2 4.2 1.3 1.1 2.6 2 3.9 3 4-.7 8.4-1.7 13.2-3.3v3.4l7.3-8.5-7.3-1.2v2.4z"/></svg>