<svg xmlns:xlink="http://www.w3.org/1999/xlink"  xmlns="http://www.w3.org/2000/svg" viewBox="0 0 150 150"><g opacity=".65"><path fill="#C2C4C6" d="M36.1 133.2h17.7L27.7 61.4H9.8zM88.1 93.9l14.3 39.3H84.7L70.2 93.9zM58 77.9l20.1 55.3H60.4L40.1 77.9z"/></g><linearGradient id="a" gradientUnits="userSpaceOnUse" x1="101.238" y1="33.304" x2="73.335" y2="148.8"><stop offset="0" stop-color="#5db65f"/><stop offset="1" stop-color="#5b784d"/></linearGradient><path fill="url(#a)" d="M56.6 76.8l-20.5 56.4H54l20.5-56.4H56.6zm30.1-16.1l-26.3 72.5h17.9l26.3-72.5H86.7zm49-39.7l-23.1 23.5h4.3l-32.2 88.7h17.8l32.2-88.7h4.8L135.7 21z"/><path opacity=".3" fill="#FFF" d="M57.3 77.9l-20 54.8h2l20.5-54.6zM87.6 61.8L62 132.3h2.6l25.5-70.5zM86.1 132.6l32.5-89.2h-3.3L135 23.3l-15.7 18.2h2.4l-33.6 90.8"/></svg>