<svg xmlns:xlink="http://www.w3.org/1999/xlink"  xmlns="http://www.w3.org/2000/svg" viewBox="0 0 2000 2000"><path fill="none" d="M1192.7 173.6c-3.1 1.9-6 4-9.1 5.9 3.2-.3 6.3-.1 9.4.6.6-1.4 1-2.8 1.6-4.1.9-1.7-.4-3.3-1.9-2.4zM783.2 313.3c3.2.9 6.5 2.1 9.6 3.7.2.1.4.3.6.4-2.4-3.7-5.1-7.2-8.2-10.6-.7 2.2-1.3 4.4-2 6.5zM777.7 602.9c11.9 20.6 22.2 42.3 30.7 65 1.4 2.6 2.8 5.1 4.2 7.7 1 1.8 2.1 3.5 3.1 5.2 3.2 3.2 6.2 6.5 9.3 9.8-14.7-28.5-27.1-58.1-35.5-89.2-3.9 1-7.9 1.5-11.8 1.5zM974.2 271.1c1.4 4.4 2.8 8.8 4.1 13.3 2.2 1.3 4.2 2.8 6.1 4.7 3.3 3.2 6.1 6.7 9.1 10-6.4-9.8-12.8-19.3-18.8-28.7-.2.2-.3.4-.5.7zM1408 655.2v14.1c1-8.8 2.6-17.6 3.5-26.5-1.6.3-3.3.8-4.9 1.1.9 3.4 1.4 7.2 1.4 11.3zM1314.4 881.1c-34.2 46.2-75.3 84.6-113.6 127-16.3 18.1-34 38.7-53 58.7 102.8-82.9 210-210 249.6-350.2-2.9 2.8-6.2 5.2-9.8 6.9-15.5 56.2-38.4 110.6-73.2 157.6zM723.9 189.4c.5-.2 1-.5 1.5-.7 0-.4-.1-.8-.1-1.1-.5.6-.9 1.2-1.4 1.8zM1196.9 491.5c.5-3 1.4-5.9 2.1-8.8-10.8 8.8-21.3 18.1-31.3 28 3.2-2.1 6.2-4.3 9.5-6.3 6.8-4.1 13.3-8.4 19.7-12.9zM632.3 572.1c-1.6-1.1-3.2-2.3-4.8-3.4-2.6-1.7-5.3-3.4-7.9-5 2.3 3.4 4.6 6.7 6.9 10.2 1.9-.8 3.8-1.4 5.8-1.8zM1500 368.5c-2.7 0-5.6.3-8.4.4.5 1.8.7 3.5 1 5.2 2.4-1.9 4.7-3.7 7.4-5.6zM1061.7 631.2c.9-2.1 1.9-4.1 2.8-6.2-7.4 2.9-16 2.9-23.6-.1-1.9 5.9-4 11.8-6.4 17.6-5.4 13.1-11.3 26-17.4 38.7 11.8-18 26.3-34.8 44.6-50zM739.4 1018.7c-3.2 1.6-6.7 2.8-10.1 3.6 2.6 2.5 5.3 4.9 7.9 7.4 3-2.2 6.4-3.8 10.1-4.8-2.6-2.1-5.3-4.1-7.9-6.2zM930.8 167.3c-3.1 5.8-6.4 12.3-9.7 19.2 1.9-1.3 3.8-2.5 5.7-3.6 3.3-1.7 6.9-3.1 10.5-4.2-.6-5.3-.9-10.7-.9-16.4-2.5-2.4-3.2 2.9-5.6 5zM955.8 451.4l-3.3-13.8c-1.4 6.3-2.7 12.6-3.3 18.9.5.5 1 1 1.4 1.5 1.7-2.2 3.5-4.4 5.2-6.6z"/><path fill="#D8E023" d="M537.5 776.4c3.6 54.9 22.4 96.7 57.5 138.6 29 34.5 65.4 62.1 96.3 94.7 5.5 5.8 11.5 9.6 17.6 11.7-73.3-74.1-137-161.9-171.4-245zM536.3 399.6c-1.6-1.7-3.2-3.3-4.8-5.1-18.8-21.5-43.7-16.6-59.4-1 32.1 3.1 63.9 11.3 94.7 23.6-8.2-11.4-19.2-16.9-30.5-17.5z"/><path fill="#D8E023" d="M999.3 1156.8c41.1-14.4 94.2-46 148.6-89.9 19-20.1 36.6-40.6 53-58.7 38.3-42.4 79.5-80.9 113.6-127 34.8-47 57.7-101.4 73.1-157.5 3.6-1.7 8.9-4.1 11.8-6.9 4.4-15.6 12.6-31.4 12.6-47.4v-14.1c0-4.1-2.5-7.9-3.4-11.3 1.6-.3 2.3-.8 3.9-1.1 1.1-11 1.3-21.9 1.4-33 .9-110.3-.7-175.9 78.9-235.7-.3-1.7-.6-3.4-1.1-5.2-88.3 2.9-202.9 40.6-292.7 113.7-.7 2.9-1.6 5.8-2.1 8.8-6.4 4.5-12.9 8.8-19.7 12.9-3.3 2-6.4 4.2-9.5 6.3-30.6 30.1-57.1 64.9-76.6 104.7-.8 1.7 1.2 3.1 3 2 53.2-29.8 139.6-55.4 208.9-60.4 18-.6 20.6 8.9 3.7 11.4-294.5 66-294.8 140.2-332.8 320.6-.6 10.1-1.1 20.1-1.2 30.3-.2 23.5-25.1 35.2-43.3 29.1 1.2 29.8-7.9 30.3-12.5-4.1-.3-2-.7-3.8-1-5.8-2.1-3-3.7-6.6-4.6-10.9-10.8-51-38.1-98.7-41.8-149-42.3-83.5-112.9-131.9-239-169-15.2-3.3-12.3-11.7 4.1-10.1 62.5 8.7 108.2 34.5 154.7 64.7 1.6 1 3.5-.1 2.8-1.7-9.3-22.6-20.5-43.5-32.9-63-8.8-3.6-17.1-10.1-23.8-20.1-10.5-15.8-21.2-32-31.2-48.6-69.5-69.6-158.3-108.1-237.1-113.9 75.6 60.8 70.1 120.8 64.2 224-7.9 139.3 90.9 279.6 198 381.4 3.5-.8 6.9-1.9 10.1-3.6 2.6 2.1 5.3 4.1 7.9 6.2-3.7 1-7.1 2.6-10.1 4.8 70.3 65.3 143 113.8 190.6 134.1 2.7 1.2 5.1 2.3 7.3 3.4-.9-4.5-1.7-8.3-2.3-11.2-11.2-47.2 26.9-42.7 26.9-42.7 9.1 10 15.7 28.2 20.5 51.9l5.1-1.5-4.2 1.2c4.5-2.6 10.4-5.4 18.2-8.1zm140-262.1c77.6-14.8 89.2-39 85.5-128.1-1.4-34.6 7.8-52.9 36.5-54.6 49.9-3.2 86.8-65.3 104.7-114.1 2.5-6.9 6.4-5.6 5.6 1.7-5.9 49.3-43.2 111.4-96.4 125.1-33.3 7.6-35 10.4-32.6 43.7 6.5 89.4-13.7 134.4-102 147.9-58 8.9-64.9 45.7-69.2 96.3-1.8 21.7-9.3 21.6-10.1-1.3-.7-60.4 18.7-105.3 78-116.6zm-511.8-326c1.7 1.1 3.2 2.3 4.8 3.4-2 .4-3.9 1-5.8 1.7l-6.9-10.2c2.6 1.7 5.3 3.3 7.9 5.1zm49.4 226.2c4.2-30.1 2.8-32.7-27-41.6-47.5-15.6-77.6-74.2-80-119.2-.4-6.6 3.2-7.6 5.1-1.2 13.4 45.3 43.1 103.8 88.2 109.7 25.9 3.3 33.2 20.4 29.8 51.7-8.6 80.6.5 103.2 70 121.3 53.1 13.8 68 55.7 63.8 110.4-2.1 20.7-8.8 20.4-9.2.6-.9-46.1-5-80-57-91.4-79.3-17.6-94.9-59.6-83.7-140.3z"/><path fill="#D8E023" d="M457.6 429.1c.3 9.5 3.6 19.2 11.3 28.1 11.2 12.8 23.3 23.9 36 34-8.9-25.4-24.2-43.8-47.3-62.1zM1458.4 436.5c21.2-2.9 31.7-20.8 31.6-38.8-13.2 11.5-23.6 23.9-31.6 38.8zM1041.6 1149.3c-8.1 1.7-16.3 3.7-24.5 5.7 8.2-2.1 16.3-4 24.5-5.7zM1437.1 337.9c-11.3 4.4-22.4 9.5-33.1 15.2 23.2-5 46.1-8.3 68.2-9.9-10.4-6.9-23.2-9.9-35.1-5.3zM1011.4 1156.5c-7.1 1.9-14.2 3.8-21.3 5.8 7.1-2 14.2-3.9 21.3-5.8zM808.3 667.9c1.1 3 2.4 5.9 3.5 8.9 1.3 1.3 2.5 2.7 3.8 4-1-1.8-2.1-3.5-3.1-5.2-1.4-2.6-2.8-5.1-4.2-7.7zM1290 378.8c-30.8 12.1-54.4 31.3-70.6 55.5 47.9-34.1 100.1-58 151.8-72.9-27.9 2.4-55.4 7.2-81.2 17.4z"/><path fill="#F8B5B6" d="M787.7 285.8c.8.6 1.5 1.4 2.3 2.1 4.2-21.6 4.3-43.4 1.2-66.3-2.9-21.4-28-36.4-47.7-36.4-1.2 0-2.3.2-3.4.3 1.3 34.7 17.9 77.9 47.6 100.3z"/><path fill="#F8B5B6" d="M777.7 602.9c4-.1 7.9-.5 11.8-1.5 8.4 31.1 20.8 60.7 35.5 89.2 62.2 65.9 96.3 155.5 104.1 250.5.2 2.6.3 5 .4 7.3 18.3 6 43.2-5.6 43.3-29.1.1-10.2.5-20.3 1.2-30.3-1.8 8.5-3.7 17.3-5.7 26.3-8 40.2-19 35.9-13-4.4 12.8-86.3 20.3-166.2 61.8-229.6 6.1-12.7 12-25.6 17.4-38.7 2.4-5.8 4.5-11.7 6.4-17.6 7.6 3 16.2 3 23.6.1 24.3-55.3 56.9-101.5 94.5-139.5 7.3-14.6 14-29.5 19.9-44.9 20.7-34.6 39.2-70.4 49.9-110.7 4.6-17.2-6.2-32.3-20.4-37.5.2-16.1-.6-32.1-2.6-47.8 3.2-6.1 6.3-12.2 9.4-18.3 7.7-15.3 2.8-29.6-7-38.3-6.9 27.6-6.8 61.6-3.5 84.7 9.1 63.4 9.4 70.6-12.6 115.5-12.1 24.7-19 18.7-12.8-7.9 11.1-48.2 15.9-55.1 8.6-107.7-4.3-31.1-6.4-64.4 5.2-92.4-3.1-.7-6.3-.9-9.4-.6-44 28.9-83.5 70.6-111.1 117-.1 1.3-.3 2.6-.4 3.8-1.6 9.6-4.4 18.9-7.9 28-7.2 7.1-14.1 14.4-21.1 21.7 47.1 98.3 25.4 158.1-12.6 251.8-8.4 20.7-17.1 17.1-8-4.5 37.6-90.2 33.8-197.8-17.1-279.8-3.9-6.3-7.9-12.5-11.8-18.5-3-3.4-5.8-6.8-9.1-10-1.9-1.9-4-3.4-6.1-4.7-1.3-4.5-2.7-8.9-4.1-13.3.2-.2.3-.5.5-.7-18.6-29-33.7-57.1-37.3-91.7-3.7 1.2-7.2 2.5-10.5 4.2-2 1-3.9 2.3-5.7 3.6-38 77.9-87.7 218.1-60.3 315.2 2.5 11.3-3.6 15.2-7.2 4.6-15.8-43-19.1-96.1-12.4-150.6-6.6-8-14.2-15.1-22.3-21.5 5.2 22.1 3.5 48.2-4.7 77.3-7.7 26.9-15.4 25.1-10.4-1.6 4.8-25.6 8.4-63.5-10.2-92.6-.2-.1-.4-.3-.6-.4-3.1-1.6-6.3-2.8-9.6-3.7.8-2.2 1.4-4.3 2-6.5-3.4-3.7-7.2-7.2-11.6-10.4-29.7-21.3-46.5-61.9-48.2-107.8-.5.2-1 .5-1.5.7-12.3 15.9-23.5 30.7-33.5 44.9-13.8 33.1-29.2 65.6-39.4 100-12.3 41.2-11.7 83.4-5.1 125.3 52.1 36.3 97.8 85.4 131.3 143.4zm350.8-329.4c4.8-6 9.8-3.4 9 3.9-6.3 45.5-27.9 97-35.8 140.6-1.1 6.4-7 6.4-6.2-.7 5-41.6 12.2-116.2 33-143.8zm-176 164.1l3.3 13.8c-1.7 2.2-3.5 4.4-5.2 6.6-.5-.5-.9-1-1.4-1.5.6-6.3 1.9-12.6 3.3-18.9zm-29-83.8c2.7-9.6 8-7.4 6.4.4-13.7 60.3-12.8 209.7-8.5 269.2.5 6.6 2.6 5.7 3.4-.3 3.9-28.9 12.3-67.6 23-100.6 16.3-50.2 41-132.3 37.6-164.4-.7-6.8 4.1-8.6 5.5-2.1 8.1 38-2.3 101.7-26.4 172-22.6 66.2-36.7 175.9-39 221.7-1.1 22.1-12.2 22.8-12.9-.5-4.3-145.9-29-252.7 10.9-395.4zm-213.9 22.7c21.4 17 43 31.9 60.3 56.5 1.1 1.5 2.6 1 2.3-.9-6-33.4-21.2-68.4-43-95.1-8.3-10.2-.5-13.9 6.5-4.6 43 56.8 67.9 126.7 56.8 200.2-3.6 23.7-14.5 23.5-12.2-1.6 5.6-62.8-21.4-96.4-77-147.8-9.8-9.2-3.6-14.7 6.3-6.7z"/><path fill="#F8B5B6" d="M985.9 193.6c-6.9-12.7-18.9-17.5-31.4-17.6 6.8 26.8 18.7 52 32.3 76.3 8.8-17.6 10.6-37.5-.9-58.7zM759.2 599.5c-16.2-25.5-34.8-48.4-55-68.7 10 16.6 20.7 32.8 31.2 48.6 6.7 10 15 16.5 23.8 20.1zM916 938.5c-10.3-64.9-24.7-117-46.4-160 3.7 50.3 31 98.1 41.8 149 .9 4.4 2.5 8 4.6 11z"/><path d="M817.7 1026.5c.4 19.8 7.2 20.1 9.2-.6 4.2-54.7-10.7-96.6-63.8-110.4-69.5-18-78.6-40.6-70-121.3 3.3-31.3-3.9-48.4-29.8-51.7-45.1-5.9-74.8-64.4-88.2-109.7-1.9-6.4-5.5-5.4-5.1 1.2 2.4 45.1 32.5 103.6 80 119.2 29.7 8.9 31.1 11.5 27 41.6-11.2 80.7 4.4 122.7 83.7 140.2 52 11.6 56.1 45.4 57 91.5zM725.3 187.6c0 .4.1.8.1 1.1 1.7 45.8 18.5 86.4 48.2 107.8 4.4 3.2 8.2 6.7 11.6 10.4 3.1 3.4 5.8 6.9 8.2 10.6 18.6 29.1 15 66.9 10.2 92.6-5 26.7 2.8 28.5 10.4 1.6 8.2-29.1 10-55.1 4.7-77.3-4.4-18.6-13.8-34.3-28.8-46.4-.8-.7-1.4-1.4-2.3-2.1-29.7-22.4-46.3-65.6-47.7-100.3-.4-11.2.7-21.6 3.5-30 2.9-8.6 1.2-10.8-8.3-6.7-51.2 21.6-151.9 156.9-101.1 277 6.1 14.5 9.7 12.5 7.4-3.4-12-82.6 8.7-131.2 48.8-188 10-14.2 21.2-29 33.5-44.9.7-.8 1.1-1.4 1.6-2z"/><path d="M780.3 530.9c-2.3 25.1 8.6 25.2 12.2 1.6 11.1-73.5-13.7-143.4-56.8-200.2-7.1-9.2-14.8-5.6-6.5 4.6 21.7 26.7 37 61.7 43 95.1.3 1.9-1.2 2.4-2.3.9-17.3-24.6-39-39.4-60.3-56.5-9.9-8-16.1-2.5-6.3 6.6 55.6 51.5 82.7 85.1 77 147.9zM853.6 506.4c3.6 10.5 9.7 6.7 7.2-4.6-27.4-97.2 22.3-237.3 60.3-315.2 3.3-6.8 6.6-13.4 9.7-19.2 2.4-2.1 3.1-7.4 5.7-5 0 5.7.3 11.1.9 16.4 3.6 34.5 18.7 62.6 37.3 91.7 6 9.4 12.4 18.9 18.8 28.7 3.9 6 7.9 12.1 11.8 18.5 50.9 82 54.7 189.6 17.1 279.8-9.1 21.6-.4 25.2 8 4.5 38.1-93.7 59.8-153.5 12.6-251.8-6.5-13.5-14.1-27.6-23.3-42.7-11-18-22.5-36.3-33-55-13.6-24.3-25.6-49.4-32.3-76.3-3.7-14.9-5.9-30.3-5.9-46.3 0-11.4-4.5-13.6-12.4-4.5-50.3 58.3-84.7 146.1-95 230.6-6.6 54.3-3.3 107.4 12.5 150.4z"/><path d="M925.5 749.6c2.3-45.8 16.3-155.5 39-221.7 24.1-70.4 34.5-134.1 26.4-172-1.4-6.5-6.2-4.7-5.5 2.1 3.4 32.1-21.3 114.3-37.6 164.4-10.8 33.1-19.1 71.7-23 100.6-.8 5.9-2.9 6.9-3.4.3-4.3-59.4-5.2-208.9 8.5-269.2 1.6-7.9-3.7-10-6.4-.4-39.9 142.7-15.2 249.6-10.9 395.4.7 23.3 11.9 22.6 12.9.5zM1183.6 179.6c3-2 6-4.1 9.1-5.9 1.5-.9 2.8.7 2 2.4-.6 1.3-1.1 2.7-1.6 4.1-11.6 28-9.6 61.4-5.2 92.4 7.3 52.5 2.6 59.4-8.6 107.7-6.1 26.6.7 32.6 12.8 7.9 22.1-44.9 21.7-52.2 12.6-115.5-3.3-23.1-3.4-57.1 3.5-84.7 4.3-17.2 11.3-31.9 22-40 9.5-6.4 5.1-12.2-3.3-11-51.8 6.9-150.1 78.3-165.5 159.6-2.3 12.1 1.9 14.3 10.1 1.7.3-.6.7-1.1 1.1-1.7 27.6-46.5 67-88.2 111-117z"/><path d="M1101.7 417.9c7.8-43.6 29.5-95.1 35.8-140.6.9-7.2-4.1-9.8-9-3.9-20.9 27.6-28 102.2-33 143.8-.8 7.1 5.2 7.1 6.2.7zM804.8 255.4c7.4.5 14.2-10.3 15-24.1.9-13.8-4.5-25.3-11.9-25.8s-14.2 10.3-15 24.1c-.9 13.8 4.5 25.4 11.9 25.8zM1010.8 201.6c7.4.5 14.2-10.3 15-24.1.9-13.8-4.5-25.3-11.9-25.8s-14.2 10.3-15 24.1c-.8 13.8 4.5 25.4 11.9 25.8zM850.3 221.4c7.4.5 14.2-10.3 15-24.1.9-13.8-4.5-25.3-11.9-25.8s-14.2 10.3-15 24.1 4.5 25.3 11.9 25.8zM814.6 176.8c7.4.5 14.2-10.3 15-24.1.9-13.8-4.5-25.3-11.9-25.8s-14.2 10.3-15 24.1c-.9 13.8 4.4 25.4 11.9 25.8zM1041.9 206.2c-.9 13.8 4.5 25.3 11.9 25.8s14.1-10.3 15-24.1c.9-13.8-4.5-25.3-11.9-25.8s-14.2 10.3-15 24.1zM1046 152.9c7.4.5 14.2-10.3 15-24.1.9-13.8-4.5-25.3-11.9-25.8s-14.2 10.3-15 24.1c-.9 13.8 4.4 25.4 11.9 25.8zM1071.4 1012.6c4.3-50.6 11.2-87.4 69.2-96.3 88.3-13.5 108.5-58.5 102-147.9-2.4-33.3-.7-36.1 32.6-43.7 53.2-13.7 90.5-75.8 96.4-125.1.9-7.3-3-8.6-5.6-1.7-17.9 48.8-54.7 110.9-104.7 114.1-28.7 1.7-37.9 20-36.5 54.6 3.6 89.1-7.9 113.3-85.5 128.1-59.3 11.3-78.7 56.2-78 116.6.8 22.8 8.2 22.9 10.1 1.3z"/><path fill="#D8E023" d="M1435.9 610.8c.2 8.5-.2 17.2-.8 26 33.8-13 31.8-56.1 8.6-75.4 1-3.2 1.8-6.6 1.7-10.5-.2-23.6-1.3-47.2-2.2-70.8-6.8 31.9-8.7 73.3-7.3 130.7zM771 1066.9c-1.1-.9-2.2-1.8-3.2-2.7 1 1 2.1 1.8 3.2 2.7zM779.1 1074l-2.7-2.4 2.7 2.4zM735.7 1042c-1.4-.7-2.7-1.4-4.1-2.1 1.4.7 2.8 1.4 4.1 2.1zM762.6 1060c-1.2-.9-2.3-1.8-3.5-2.7 1.2.9 2.3 1.8 3.5 2.7zM786.9 1081.1c-.7-.6-1.4-1.2-2-1.8.7.6 1.4 1.2 2 1.8zM753.9 1053.5c-1.2-.9-2.5-1.7-3.8-2.6 1.3.8 2.6 1.7 3.8 2.6zM745 1047.4l-3.9-2.4c1.2.8 2.6 1.6 3.9 2.4zM841.5 1132.1c-12.6-11.5-24.9-23.4-37.4-35 5.5 5.1 11 10.3 16.5 15.5 14.4 13.7 28.9 27.3 44.2 39.9.6.5 1 .8 1.4 1.2.9.5 2.5 1.2 3.8 2 3.1 1.9 8 3.1 8 4.1v.1c0 .2.2.3.5.4 1.2.5 2.1 1.1 3.3 1.5.6.2 1.1.5 1.8.8 1.5.6 3.2 1.2 5.2 2 11.5 4.5 23 8.6 34.7 12.6-.1 0-.2-.1-.3-.1-26.4-11.3-53.9-26.6-81.7-45zM937.2 1178.6c-1.7.5-3.4 1.1-5 1.6 1.7-.5 3.4-1 5-1.6z"/><path d="M1061.7 631.2c-18.3 15.1-32.8 31.9-44.6 50-41.5 63.4-49 143.3-61.8 229.6-6 40.3 5 44.6 13 4.4 2-9 3.9-17.7 5.7-26.3 38-180.4 38.3-254.6 332.8-320.6 16.9-2.5 14.3-12-3.7-11.4-69.2 5-155.7 30.6-208.9 60.4-1.8 1-3.8-.3-3-2 19.5-39.8 46-74.6 76.6-104.7 10-9.8 20.4-19.2 31.3-28 89.8-73.2 204.4-110.9 292.7-113.7 2.8-.1 5.7-.4 8.4-.4-2.6 1.8-4.9 3.7-7.4 5.6-79.6 59.8-78.2 125.4-79.2 235.7-.1 11-.9 22-1.9 33-.9 8.9-2 17.7-3.5 26.5-2.6 15.9-6.2 31.7-10.6 47.4C1358 857 1250.8 984 1148 1066.9c-54.4 43.9-107.5 75.5-148.6 89.9-7.8 2.7-13.7 5.5-18.1 8.1l4.2-1.2c1.6-.5 3.1-.9 4.7-1.3 7.1-2 14.2-4 21.3-5.8l5.7-1.5c8.2-2.1 16.3-4 24.5-5.7 7.2-1.5 14.5-2.9 21.7-4.1 181.1-96.1 358.8-331.6 371.8-508.4.6-8.8 1-17.5.8-26-1.3-57.4.5-98.7 7.3-130.6 3.6-16.9 8.6-31.2 15.2-43.6 8-14.9 18.4-27.3 31.6-38.8 12.1-10.6 26.5-20.4 43.9-30.7 17.8-12.1 15.7-22.7-2.3-23.9-18.9-1.3-38.8-1.3-59.5.1-22.1 1.6-45 4.8-68.2 9.9-10.9 2.4-21.8 5.1-32.8 8.3-51.7 14.9-103.9 38.8-151.8 72.9-21.1 15-41.3 32.1-60.3 51.3-37.6 37.9-70.2 84.1-94.5 139.5-1 1.8-2 3.8-2.9 5.9zM1585.9 1406.8c-4.5-33.7-58.7-37.1-58.7-37.1-327.5 0-548 220.5-548 548 60.6-514.3 505.6-451.7 550.5-460.7 45-9 60.7-16.5 56.2-50.2zM980.3 1165.2c-4.8-23.6-11.5-41.9-20.5-51.9 0 0-38.2-4.5-26.9 42.7.7 2.9 1.5 6.7 2.3 11.2-2.2-1.1-4.6-2.3-7.3-3.4-47.6-20.3-120.4-68.8-190.6-134.1-2.6-2.5-5.3-4.9-7.9-7.4-107-101.8-205.9-242.1-198-381.4 5.9-103.2 11.4-163.2-64.2-224 78.8 5.8 167.6 44.3 237.1 113.9 20.2 20.3 38.8 43.2 55 68.7 12.4 19.5 23.6 40.4 32.9 63 .7 1.6-1.2 2.7-2.8 1.7-46.5-30.2-92.2-56-154.7-64.7-16.3-1.6-19.3 6.8-4.1 10.1 126.1 37 196.7 85.5 239 169 21.7 42.9 36.1 95.1 46.4 160 .3 2 .7 3.8 1 5.8 4.5 34.3 13.6 33.9 12.5 4.1-.1-2.3-.2-4.7-.4-7.3-7.8-95-41.9-184.6-104.1-250.5-3.1-3.3-6.1-6.7-9.3-9.8-1.3-1.3-2.4-2.7-3.8-4-1.1-3-2.4-5.9-3.5-8.9-8.5-22.7-18.8-44.4-30.7-65-33.4-58.1-79.2-107.2-131.7-143.4-25.1-17.3-51.6-31.5-79-42.5-30.8-12.3-62.6-20.4-94.7-23.6-10.7-1-21.5-1.7-32.2-1.6-16.4.1-18.9 9.6-3.5 21.6 7.7 5.3 14.7 10.4 21.1 15.6 23.1 18.4 38.5 36.7 47.3 62.1 11.5 32.8 12.4 77.5 6 149.2-3.7 41.2 6.6 87.8 26.6 136 34.4 83.1 98.1 171 171.4 245 5 5.1 10.1 10.2 15.2 15.2 2.5 1 5 2.2 7.5 3.4 1.4.7 2.8 1.4 4.1 2.1 1.8 1 3.6 2 5.3 3l3.9 2.4c1.8 1.1 3.5 2.3 5.2 3.5 1.3.9 2.5 1.7 3.8 2.6 1.7 1.3 3.4 2.6 5.2 3.9 1.2.9 2.4 1.8 3.5 2.7 1.7 1.4 3.5 2.8 5.2 4.2 1.1.9 2.2 1.8 3.2 2.7 1.8 1.5 3.6 3.1 5.4 4.7l2.7 2.4c2 1.8 3.9 3.5 5.8 5.3.7.6 1.4 1.2 2 1.8 2.5 2.3 5 4.6 7.4 6.8 3.3 3 6.5 6.1 9.8 9.2 12.5 11.7 24.8 23.5 37.4 35 27.8 18.4 55.3 33.7 81.6 44.9.1 0 .2.1.3.1 1.4.6 2.8 1.1 4.1 1.6 1.6.5 3.1 1.1 4.7 1.6 1.7-.5 3.4-1.1 5-1.6 14.4 82.9 43.6 323.3 31.5 493.9 0-.2 41.5-361.3 11.5-507.6z"/></svg>