<svg xmlns:xlink="http://www.w3.org/1999/xlink"  xmlns="http://www.w3.org/2000/svg" viewBox="0 0 2000 2000"><path fill="#42BDC9" d="M1122.2 137.7c-25.2-5.5-70.9-10.8-103.3 5.1 22.9 57.1 46.5 115.3 68.3 173.1 15.5-57.8 27.2-122 35-178.2zM1049.8 435.1c2.5 10.1 6.4 23.6 12.8 27.1 36.5-88.5-40.7-167.5-53.6-252-8.8-15.3-15.7-41.2-28.4-52.9-8.7-8.1-22.6-4.4-36.9 4.4-.6 19 9.4 32.7 13.8 53.8 36.1 72.6 56.2 147.2 92.3 219.6zM1028.7 612.5c3.9-28.1 12.7-47.6 16.5-78.4-39.6-120.7-88.7-243.2-144.6-357.4-15.3-4.1-28.6 7.8-42.9 10.4 6.5 43.6 31.2 83.9 33.9 128.3 40.6 100.1 90.5 199 137.1 297.1zM999.1 760.2c6.9-32.7 29.5-75.9 3.8-112.8-64.1-131-126.4-268.7-168.1-405.6-4.7-13.1-7.4-30.2-15.8-39.7-21.9 1-30.7 8.3-32.6 18.9-4 23.4 16.7 41.3 20.3 91.6C871.4 462 926.9 615.3 999.1 760.2zM977.8 924.8c5.9-32.1 1.9-61.4 11.2-92.6-83.5-201.7-189.1-402.1-238-603.6-12-6-20.1 7.3-31.1 10.8 9.8 51.8 27.8 100.3 42.5 150.7 70.2 176.2 135.8 369.5 215.4 534.7zM820.8 809.3c16.6 40 52.6 55 91.8 79.8-34.7-104.9-75-209.5-119.1-313.2-58.7-106.8-62.3-212.5-115.5-319.6-11.4-.4-31 3.5-45 11.6 32.8 118.9 94.2 232.8 127 351.7 31.7 52.1 36.2 130.5 60.8 189.7zM733.8 758.3c13 12.6 32.8 27 46 32.3-55.2-167.7-111-336.5-180.1-503.4-4.7 4.2-10.1 7.3-16.2 9.3 9.2 78 49.2 130.7 65.3 225.1 32.6 78.8 60.7 157.4 85 236.7zM679.3 713.7C647 603.1 603.2 494.8 569.8 384.9c-11.9-12.9-16.2-48.8-27.1-63.7-6.5-8.9-15.5-7.2-29.5 3 31.1 118.5 84.8 233.9 120.8 351 5.4 24.2 28.7 32.2 45.3 38.5zM505.7 579.8c22 23.2 49.2 40.5 73.8 60.8-20.1-74.6-49.5-148-74.1-222.9-14.5-27.2-17.6-65-34.5-73.4-6.7-3.3-16.2 0-30.8 14.9 12.4 38.8 24.7 77.6 37.1 116.4.5 35.7 24.7 53.1 28.5 104.2zM456.4 536.5c-1.2-39.5-21.5-79.5-33.9-118.3-1.7-18.4-6.2-27.3-12.3-30.1-32.4 6.7-51.1 37.9-64.8 45.9 35.3 38.6 80.3 74.3 111 102.5z"/><path fill="#73BA44" d="M1802.6 651.6c-7.8-24.6-26.1-66.8-56.1-86.9-38 48.4-76.6 97.9-115.7 145.7 57.7-15.5 119.3-37.4 171.8-58.8zM1508.8 737.6c-7.4 7.2-17.2 17.4-17.1 24.6 94.9-12.7 124.7-118.9 191.4-172.4 8.8-15.3 27.8-34.2 31.6-51 2.6-11.6-7.5-21.7-22.3-29.8-16.7 9-23.6 24.5-39.6 38.8-44.7 67.7-99.3 122.3-144 189.8zM1533.5 540.8c-66.4 85.2-127.1 177.9-188.8 267.3 26.3-10.7 47.5-12.8 76.1-25 84.8-94.6 166.2-198.4 237.2-303.9-4.1-15.3-21.1-20.8-30.4-31.9-34.5 27.4-57 69-94.1 93.5zM1493.4 465.9c-97 130.7-202 255.3-291.4 390.3 31.8-10.4 80.4-12.4 99.6-53.1 81.4-121 169.5-243.8 267.2-348.3 9-10.6 22.4-21.5 26.5-33.5-11.8-18.5-22.5-22.5-32.6-18.8-22.4 8.3-27.5 35.2-69.3 63.4zM1048.8 920.1c30.8-11 54.1-29.1 85.8-36.6 133-173.1 253.7-364.8 403.8-507.8-.9-13.4-16.4-13.8-24.9-21.6-39.9 34.4-73 74.2-109.3 112.1-117.6 148.9-252.1 302.4-355.4 453.9zM1070.3 726.5c-26.4 34.4-21.3 73-23.2 119.4 73.5-82.5 143.9-169.7 211.7-259.7 63.1-104.3 152.8-160.2 218.9-259.9-5.3-10-18.5-25.1-32.5-33.1-86.6 87.9-154.5 198-241.1 285.9-29.1 53.3-94.8 96.5-133.8 147.4zM1233.4 433.6c-52 67.6-105.9 131.3-162.5 191.9-4.4 17.6-7 41.9-5 56 117.7-131.7 235.9-264.4 345.9-407.7-6-2-11.4-5.1-16.2-9.3-62.9 46.9-88.4 107.9-162.2 169.1zM1082.3 556c79.6-83.2 151.5-175.3 230.1-259.2 5.2-16.8 34.2-38.5 41.6-55.3 4.4-10.1-1.5-17-17.4-24-87.1 86.1-160.2 190.4-243.6 280.1-18.2 16.8-13.5 41-10.7 58.4zM1111.5 338.8c-9.1 30.7-10.5 62.9-15.7 94.3 54.6-54.7 103.4-116.9 156-175.6 16.3-26.2 47.5-47.7 46.3-66.6-.4-7.5-8.1-14.1-28.3-19.2-27.4 30.1-54.9 60.2-82.3 90.3-30.7 18.3-33.6 48-76 76.8zM1209.9 185.9c15.1-10.7 20.6-19 20-25.7-22-24.7-58.4-25.2-72.2-33.2-15.8 49.8-24.2 106.6-33.3 147.3 33.5-20.7 58-58.2 85.5-88.4z"/><path fill="#F15E40" d="M1697.7 1497.8c17.4-19.1 44.8-56 47.3-92-61-8.7-123.1-17.4-184.1-27.4 42.3 42.3 92.1 84.6 136.8 119.4zM1476.4 1286.4c-10-2.8-23.7-6.2-29.9-2.5 58.4 75.9 165.4 48.5 245 79.6 17.6 0 43.6 7 60 1.9 11.4-3.5 15.1-17.4 14.6-34.2-16.1-10-33-8.2-53.5-14.9-80.8-5-155.4-24.9-236.2-29.9zM1333.3 1179.5c22.4 17.4 34.8 34.8 59.7 53.5 124.3 26.1 254.9 44.8 381.8 53.5 11.2-11.2 7.5-28.6 12.4-42.3-41-16.2-88.3-14.9-128.1-34.8-106.9-15-217.6-21.2-325.8-29.9zM1703.9 1137.2c-161.6-18.7-322.1-47.3-483.7-57.2 24.9 22.4 51 63.4 95.8 59.7 145.5 10 295.9 24.9 435.3 57.2 13.7 2.5 29.9 8.7 42.3 6.2 10.1-19.5 8.2-30.7-.1-37.7-18.4-15.2-44.2-6.1-89.6-28.2zM1810.9 1098.6c-49.7-17.4-100.7-26.1-151.7-38.5-187.8-27.3-388-67.2-570.8-80.9 24.9 21.1 52.2 32.4 74.6 56 216.4 28.6 442.7 37.3 641.7 95.8 11.1-7.5 3.7-21.1 6.2-32.4zM1266.8 901.1c-43-5.6-73.9 18.1-115 39.6 108.2 22.4 218.9 39.8 330.8 53.5 121.8 2.5 215.1 52.2 334.5 59.7 6-9.6 12.4-28.6 12.4-44.8-119.4-31.1-248.7-34.8-368.1-65.9-60.8 1.5-131-33.8-194.6-42.1zM1602 895.9c-84.6-11.2-166.7-26.1-247.5-44.8-17.4 5-39.8 14.9-51 23.6 172.9 36.1 347 72.1 526.1 95.7a48.5 48.5 0 0 1 0-18.6c-72.2-31-137.8-22.6-227.6-55.9zM1476.4 806.4c-23.7-7.5-42.3 8.7-56 19.9 111.9 27.4 227.6 43.5 339.5 69.7 17.1-3.9 50.4 10.4 68.7 8.4 11-1.2 14-9.8 12.1-27-118.1-32.4-244.9-43.7-364.3-71zM1846.9 796.4l-119.4-26.1c-31.1-17.4-58.3-5.1-104.4-27.4-31.1 7.5-59.7 22.4-89.6 33.6 74.6 19.9 153 31.1 230.1 47.3 30.8 1 65.1 17.3 80.8 6.8 6.3-4.2 8.2-14 2.5-34.2zM1804.7 751.7c16.8 7.8 26.7 8.3 32.2 4.5 10.4-31.4-7.3-63.2-7.3-79.1-51 11.2-104.5 32.3-144.3 44.8 34.8 18.6 79.6 21.1 119.4 29.8z"/><path fill="#D8E023" d="M912.5 1830.1c25.2 5.5 70.9 10.8 103.3-5.1-22.9-57.1-46.5-115.3-68.3-173.1-15.5 57.8-27.3 122.1-35 178.2zM984.9 1532.7c-2.5-10-6.4-23.6-12.8-27.1-36.5 88.5 40.7 167.5 53.6 252 8.8 15.3 15.7 41.2 28.4 52.9 8.7 8.1 22.6 4.4 36.9-4.4.6-19-9.4-32.7-13.8-53.7-36.1-72.7-56.2-147.2-92.3-219.7zM1006 1355.4c-3.9 28.1-12.7 47.6-16.5 78.4 39.6 120.7 88.7 243.2 144.6 357.4 15.3 4.1 28.5-7.8 42.9-10.4-6.5-43.6-31.2-83.9-33.9-128.3-40.6-100.1-90.6-199.1-137.1-297.1zM1035.6 1207.6c-6.9 32.7-29.5 75.9-3.8 112.8 64.1 131 126.4 268.7 168.1 405.6 4.7 13.1 7.4 30.2 15.8 39.7 21.9-1 30.7-8.3 32.6-18.9 4-23.4-16.7-41.3-20.3-91.6-64.8-149.4-120.2-302.6-192.4-447.6zM1056.9 1043.1c-5.9 32.1-1.9 61.4-11.2 92.6 83.4 201.7 189.1 402.1 237.9 603.6 12.1 6 20.2-7.3 31.1-10.8-9.8-51.7-27.8-100.3-42.5-150.7-70.1-176.2-135.7-369.5-215.3-534.7zM1213.8 1158.5c-16.6-40-52.6-55-91.9-79.8 34.7 104.9 75 209.5 119.1 313.2 58.8 106.8 62.4 212.4 115.6 319.6 11.4.4 31-3.5 45-11.6-32.8-119-94.2-232.8-127-351.8-31.7-51.9-36.2-130.3-60.8-189.6zM1300.9 1209.5c-13-12.6-32.8-27-46-32.3 55.2 167.7 111 336.5 180.1 503.4 4.7-4.2 10.1-7.3 16.2-9.3-9.2-78-49.2-130.6-65.3-225.1-32.6-78.8-60.8-157.3-85-236.7zM1355.4 1254.2c32.2 110.6 76.1 218.8 109.4 328.8 11.9 12.9 16.2 48.8 27.1 63.7 6.5 8.9 15.5 7.2 29.5-3-31.1-118.5-84.8-233.9-120.8-351-5.4-24.2-28.7-32.3-45.2-38.5zM1528.9 1388.1c-22-23.2-49.2-40.5-73.8-60.8 20.1 74.6 49.6 148 74.1 222.9 14.5 27.2 17.6 65 34.5 73.4 6.7 3.3 16.2 0 30.8-15-12.4-38.8-24.7-77.6-37.1-116.4-.4-35.6-24.7-53.1-28.5-104.1zM1578.3 1431.3c1.2 39.5 21.5 79.5 33.9 118.3 1.7 18.4 6.1 27.3 12.3 30.1 32.4-6.7 51.1-38 64.8-45.9-35.3-38.5-80.3-74.2-111-102.5z"/><path fill="#EB66A6" d="M232.1 1316.2c7.8 24.6 26.1 66.8 56.1 86.9 38-48.4 76.6-97.9 115.7-145.7-57.8 15.5-119.3 37.5-171.8 58.8zM525.8 1230.2c7.4-7.2 17.2-17.4 17.1-24.6-94.9 12.7-124.7 119-191.4 172.4-8.8 15.3-27.8 34.2-31.6 51-2.6 11.6 7.5 21.7 22.3 29.8 16.7-9 23.6-24.5 39.6-38.9 44.8-67.5 99.3-122.2 144-189.7zM501.2 1427.1c66.4-85.2 127.2-177.9 188.8-267.3-26.3 10.7-47.5 12.8-76.1 25-84.8 94.6-166.2 198.4-237.2 303.9 4.1 15.3 21.1 20.8 30.4 31.9 34.4-27.5 57-69 94.1-93.5zM541.3 1501.9c97-130.7 202-255.3 291.4-390.3-31.8 10.3-80.4 12.4-99.6 53.1-81.4 121-169.5 243.9-267.2 348.3-9 10.6-22.4 21.5-26.5 33.5 11.8 18.5 22.5 22.4 32.6 18.8 22.4-8.2 27.5-35.1 69.3-63.4zM985.9 1047.8c-30.8 11-54.1 29.1-85.8 36.6-133 173.1-253.7 364.8-403.8 507.9.8 13.4 16.4 13.8 24.9 21.6 39.9-34.4 73-74.2 109.3-112.1 117.5-149.1 252.1-302.5 355.4-454zM964.4 1241.4c26.4-34.4 21.3-73 23.2-119.4-73.5 82.5-143.9 169.7-211.7 259.7-63.2 104.3-152.9 160.2-219 259.9 5.3 10 18.5 25.1 32.5 33.2 86.6-87.9 154.5-198 241.1-285.9 29.2-53.4 94.8-96.6 133.9-147.5zM801.2 1534.2c52-67.7 105.9-131.3 162.5-191.9 4.4-17.5 7-41.9 5-56C851.1 1418 732.8 1550.7 622.8 1694c6 2 11.4 5.1 16.2 9.3 62.9-46.9 88.5-107.9 162.2-169.1zM952.3 1411.8c-79.6 83.2-151.5 175.3-230.1 259.2-5.2 16.8-34.2 38.5-41.6 55.3-4.4 10.1 1.5 17 17.4 24 87.1-86.1 160.2-190.4 243.6-280.1 18.3-16.7 13.6-40.9 10.7-58.4zM923.1 1629c9.1-30.7 10.5-62.9 15.7-94.4-54.6 54.7-103.4 116.9-156 175.6-16.3 26.2-47.5 47.7-46.3 66.6.5 7.5 8.1 14 28.4 19.2 27.4-30.1 54.9-60.2 82.3-90.4 30.6-18 33.6-47.7 75.9-76.6zM824.8 1781.9c-15.1 10.7-20.6 19-20 25.7 22 24.7 58.4 25.2 72.2 33.2 15.8-49.8 24.2-106.6 33.3-147.3-33.5 20.7-58.1 58.3-85.5 88.4z"/><path fill="#96915F" d="M336.9 470c-17.4 19.1-44.8 55.9-47.3 92 61 8.7 123.1 17.4 184.1 27.4-42.3-42.2-92-84.6-136.8-119.4zM558.3 681.4c10 2.8 23.7 6.2 29.9 2.5-58.4-75.9-165.4-48.5-245-79.6-17.6 0-43.6-7-60-1.9-11.4 3.5-15.1 17.4-14.6 34.2 16.1 10 33.1 8.2 53.5 14.9 80.7 5.1 155.4 25 236.2 29.9zM701.3 788.4c-22.4-17.4-34.8-34.8-59.7-53.5-124.4-26.1-254.9-44.7-381.8-53.5-11.2 11.2-7.5 28.6-12.4 42.3 41 16.2 88.3 14.9 128.1 34.8 106.9 15 217.6 21.2 325.8 29.9zM330.7 830.7c161.7 18.7 322.1 47.2 483.8 57.2-24.9-22.4-51-63.5-95.8-59.7-145.5-9.9-295.9-24.9-435.3-57.2-13.7-2.5-29.9-8.7-42.3-6.2-10.1 19.5-8.2 30.7.1 37.7 18.3 15.1 44.1 6.1 89.5 28.2zM223.8 869.2c49.7 17.4 100.7 26.1 151.7 38.6 187.8 27.3 388 67.2 570.8 80.9-24.9-21.2-52.2-32.4-74.6-56C655.3 904 429 895.3 230 836.9c-11.2 7.4-3.7 21.1-6.2 32.3zM767.9 1066.8c43 5.7 73.9-18 115-39.6-108.2-22.4-218.9-39.8-330.8-53.5-121.8-2.5-215.1-52.2-334.5-59.7-6 9.6-12.4 28.6-12.4 44.8 119.4 31.1 248.7 34.8 368.1 65.9 60.8-1.5 131 33.8 194.6 42.1zM432.7 1071.9c84.6 11.2 166.7 26.1 247.5 44.8 17.4-5 39.8-14.9 51-23.6-172.9-36.1-346.9-72.1-526-95.8 1.2 6.2 1.2 12.4 0 18.7 72 31.1 137.7 22.7 227.5 55.9zM558.3 1161.4c23.7 7.5 42.3-8.7 56-19.9-111.9-27.4-227.6-43.5-339.5-69.7-17.1 3.9-50.4-10.3-68.8-8.4-10.9 1.2-14 9.8-12.1 27 118.2 32.5 245 43.7 364.4 71zM411.5 1224.9c31.1-7.5 59.7-22.4 89.6-33.6-74.6-19.9-153-31.1-230.1-47.3-30.8-1-65.1-17.3-80.8-6.8-6.3 4.2-8.1 14-2.5 34.2l119.4 26.1c31.1 17.4 58.3 5.2 104.4 27.4zM230 1216.2c-16.8-7.8-26.8-8.3-32.2-4.5-10.4 31.4 7.3 63.2 7.3 79.1 51-11.2 104.5-32.4 144.3-44.8-34.8-18.6-79.6-21.1-119.4-29.8z"/></svg>