<svg xmlns:xlink="http://www.w3.org/1999/xlink"  xmlns="http://www.w3.org/2000/svg" viewBox="0 0 2000 2000"><path fill="none" d="M989.7 1069.8c90.8 17.9 215.9-10.2 215.9-46.3 0-46.2-70.1-7.9-152.6-31.1-38.2-10.7-49.9-35.9-51.6-59.9-4.7-.2-9.4-.2-14.1-.5-3.3 38.6-3.7 85.1 2.4 137.8z"/><path fill="#65C690" d="M994.4 1214.9c3.3-19.8-13.2-26.4-13.2-26.4-3.3-.4-6.4-1-9.6-1.5 2.6 10 5.5 20.1 8.6 30.4 8.6 1 13.8.2 14.2-2.5zM987.2 932c-9.3-.5-18.7-1.2-28.2-2.1-3.9-.4-7.8-.8-11.7-1.3-3.1 36.7-3.7 79.8.9 128.4 12.4 5.6 26.5 9.9 41.5 12.8-6.1-52.7-5.7-99.2-2.5-137.8zM1047.7 1436.2c31.9 157.2 5.7 263.3-16.4 352.6l-6.5 26.5-34.9 88.1 74.9-141c22.6-91.1 52-178.9 23.8-326.7-13.5.7-27.1.9-40.9.5z"/><path fill="#8A886A" d="M1002.9 565.4c3.2-2.5 6.8-4 10.7-4 8 0 14.8 5.9 18.6 14.7 33.6-55.2 93.6-115.5 200.1-166.4l5.2-2.6C1221 220.3 1065.8 64.9 1065.8 64.9c-164 109.8-236.3 218.3-257 316.5 25.4 14.9 53 32 82.8 52.5 59.5 40.9 93.2 87.1 111.3 131.5z"/><path fill="#B2AE88" d="M1457.7 199.8c-1.2-3.3-2.4-5.1-2.4-5.1s.9 1.7 2.4 5.1zM1032.2 576c1.5 3.5 2.4 7.4 2.7 11.6 26.3 3.5 50.6 10.2 71.8 19.5 1.8-7.9 6.2-13.5 11.4-13.5 6.8 0 12.3 9.6 12.3 21.5 0 1.4-.1 2.7-.2 4 11 6.6 20.7 14.1 28.9 22.2 56.9-50.4 160.3-124.1 276.8-121.9 6.3.1 12.2-.1 18.2-.1 75.6-143.3 16.6-290.5 3.6-319.4 7 19.5 13.5 94.3-220.2 207.3l-5.2 2.6c-106.5 50.7-166.5 111.1-200.1 166.2zM886.4 604.9c-.1-1.2-.2-2.4-.2-3.6 0-13.6 7.6-24.6 16.9-24.6 7.6 0 13.9 7.4 16.1 17.4 22.6-5.8 47.4-9 73.5-9.2 1.2-8.4 5.1-15.4 10.4-19.6-18.2-44.4-51.8-90.6-111.3-131.5-29.8-20.5-57.4-37.6-82.8-52.5-140.7-82.3-214.5-94.9-221.3-215.1 0 0-77.8 162.9 37.7 344.7C719 523 801 579.1 852.1 622.8c10.3-6.7 21.7-12.8 34.3-17.9z"/><path fill="#8A886A" d="M704.1 784.9c43.4-30.4 101.8-26.9 116.5-25.4-5.3-6.4-9.8-13.1-13.2-20.1-8.6-.6-14.9-2.7-14.9-5.2 0-2.1 4.4-3.9 10.8-4.8-2.7-7.9-4.1-16.1-4.1-24.6 0-12 2.9-23.6 8.3-34.5-2.6-3.2-4.2-7.1-4.2-11.5 0-10.6 9.3-19.2 20.7-19.2 2 0 3.9.3 5.7.8 6.6-6.4 14.1-12.3 22.5-17.8C801 579.1 719 523 625.2 511c-13.4-1.7-27.1-2.6-41-2.4-176.6 3.3-243.8-71-243.8-71S424 715 592 799.9c36 18.2 75 25.9 114.1 26.9-14.2-16.7-16.4-31.8-2-41.9zM1159.2 641.2c16.2 15.9 26.6 34.3 29.1 54 2.2 1.6 3.6 3.6 3.6 5.9 0 2-1.2 3.8-3 5.3-.3 15.6-5.5 30.5-14.6 44.2.4.9.7 1.8.7 2.8 0 4.1-3.8 7.3-8.6 7.6-3 3.5-6.2 6.9-9.8 10.1 77.9 2.6 150-1.4 132.4 43.8-3 7.7-7 14.8-11.4 21.8 51 3.8 103.4-2.2 150.6-26 168-84.8 251.5-362.3 251.5-362.3s-62.8 68.9-225.6 70.9c-6 .1-11.9.3-18.2.1-116.4-2.2-219.8 71.4-276.7 121.8z"/><path fill="#F1C4A4" d="M1165.8 761.1c-5.1 0-9.2-3.4-9.2-7.7 0-4.3 4.1-7.7 9.2-7.7 3.9 0 7.2 2 8.5 4.9 9.2-13.6 14.3-28.5 14.6-44.2-2.7 2.3-6.8 3.9-11.6 3.9-8.1 0-14.6-4.1-14.6-9.2s6.5-9.2 14.6-9.2c4.4 0 8.3 1.3 11 3.3-2.6-19.8-12.9-38.1-29.1-54-8.2-8.1-17.9-15.5-28.9-22.2-1.1 10-6.1 17.6-12.1 17.6-6.8 0-12.3-9.6-12.3-21.5 0-2.8.3-5.6.9-8-21.2-9.3-45.5-16-71.8-19.5.1 1 .2 1.9.2 3 0 16.1-9.6 29.2-21.5 29.2s-21.5-13.1-21.5-29.2c0-1.9.2-3.8.4-5.6-26 .1-50.8 3.4-73.5 9.2.5 2.3.8 4.7.8 7.2 0 13.6-7.6 24.6-16.9 24.6-8.5 0-15.4-9.1-16.6-21-12.5 5.1-24 11.2-34.3 17.9-8.4 5.5-15.9 11.4-22.5 17.8 8.7 2.3 15 9.6 15 18.4 0 10.6-9.3 19.2-20.8 19.2-6.8 0-12.8-3.1-16.6-7.8-5.3 10.9-8.3 22.5-8.3 34.5 0 8.4 1.4 16.6 4.1 24.6 2.8-.4 5.9-.6 9.2-.6 11 0 20 2.4 20 5.4 0 3-8.9 5.4-20 5.4-1.8 0-3.4-.1-5.1-.2 3.4 7 7.9 13.7 13.2 20.1 2.2.2 3.5.4 3.5.4 165 5 165-70 165-70 7.5 69.6 90.4 78.7 167.6 81.2 3.5-3.3 6.8-6.6 9.8-10.1 0-.2-.2-.1-.4-.1zm-258.1-47.6c-6.8 0-12.3-4.8-12.3-10.8 0-5.9 5.5-10.8 12.3-10.8 6.8 0 12.3 4.8 12.3 10.8-.1 6-5.6 10.8-12.3 10.8zm92.9-43.1c-3.8 0-6.9-2.7-6.9-6.1 0-3.4 3.1-6.1 6.9-6.1 3.8 0 6.9 2.7 6.9 6.1 0 3.4-3.1 6.1-6.9 6.1zm67.6 12.3c8 0 14.6 4.5 14.6 10s-6.5 10-14.6 10-14.6-4.5-14.6-10 6.5-10 14.6-10z"/><path fill="#B2AE88" d="M987.2 932c4.8.3 9.4.3 14.1.5-2-27.9 9.5-54.2 9.5-54.2 0 25.4 49 41.5 172.7 28.1 41.8-16.1 74.6-39.4 94-69.7 4.4-6.9 8.4-14.1 11.4-21.8 17.6-45.2-54.5-41.2-132.4-43.8-77.2-2.6-160.1-11.6-167.6-81.2 0 0 0 75-165 70 0 0-1.3-.2-3.5-.4-14.7-1.5-73.1-5-116.5 25.4-14.4 10.1-12.1 25.2 2 41.9 33.7 39.8 135.1 88.8 241.2 101.8 3.9.5 7.8.9 11.7 1.3 9.7.9 19.1 1.6 28.4 2.1z"/><path fill="#F3C7B3" d="M1565.4 921.2c-33 0-174.9 75.9-174.9 75.9s23.1 42.9 16.5 85.8l-9.9-19.8s-62.7-174.9-198-158.4c-5.3.6-10.3 1.2-15.4 1.7-123.8 13.4-172.7-2.7-172.7-28.1 0 0-11.5 26.3-9.5 54.2 1.7 24 13.4 49.3 51.6 59.9 82.5 23.1 152.6-15.2 152.6 31.1 0 36.1-125.1 64.2-215.9 46.3-15-3-29.1-7.2-41.5-12.8-8.5-3.9-16.3-8.4-23.1-13.7-76-59.4-125.5-214.6-241-168.3 0 0 95.8 280.7 287.4 312 3.2.5 6.4 1.2 9.6 1.5 0 0 16.5 6.6 13.2 26.4-.4 2.7-5.6 3.5-14.2 2.4-54.8-7.1-253.5-97.4-319.1-345.7 0 0-79.2-19.8-85.8-3.3-6.6 16.5 46.2 346.5 313.5 419.1 0 0 36.3 16.5 29.7 26.4-6.6 9.9-178.2-3.3-300.3-231 0 0 23.1 181.5 204.6 290.4 70.9 42.5 149.7 60.8 224.9 62.9 13.8.4 27.4.2 40.8-.4 101.2-5 191.2-38.1 239.2-79 89.1-75.9 178.2-128.7 277.2-135.3 0 0 56.1-59.4 56.1-125.4s-62.6-174.8-95.6-174.8z"/><path fill="#FBE3D3" d="M1013.7 619.7c11.9 0 21.5-13.1 21.5-29.2 0-1-.1-2-.2-3-.3-4.2-1.3-8.1-2.7-11.6-3.7-8.7-10.6-14.7-18.6-14.7-3.9 0-7.6 1.5-10.7 4-5.3 4.2-9.2 11.2-10.4 19.6-.3 1.8-.4 3.7-.4 5.6 0 16.3 9.6 29.3 21.5 29.3zM903 625.9c9.3 0 16.9-11 16.9-24.6 0-2.5-.3-4.9-.8-7.2-2.1-10-8.5-17.4-16.1-17.4-9.3 0-16.9 11-16.9 24.6 0 1.2.1 2.4.2 3.6 1.3 11.9 8.3 21 16.7 21zM823.9 678.1c11.5 0 20.8-8.6 20.8-19.2 0-8.7-6.4-16-15-18.4-1.8-.5-3.7-.8-5.7-.8-11.5 0-20.7 8.6-20.7 19.2 0 4.3 1.6 8.2 4.2 11.5 3.6 4.7 9.6 7.7 16.4 7.7zM907.7 692c-6.8 0-12.3 4.8-12.3 10.8 0 6 5.5 10.8 12.3 10.8 6.8 0 12.3-4.8 12.3-10.8-.1-6-5.6-10.8-12.3-10.8zM1068.2 702.7c8 0 14.6-4.5 14.6-10s-6.5-10-14.6-10-14.6 4.5-14.6 10 6.5 10 14.6 10zM1118.2 636.7c6 0 11-7.6 12.1-17.6.1-1.3.2-2.6.2-4 0-11.9-5.5-21.5-12.3-21.5-5.2 0-9.6 5.6-11.4 13.5-.6 2.5-.9 5.2-.9 8 0 11.9 5.5 21.6 12.3 21.6zM1162.7 701.2c0 5.1 6.5 9.2 14.6 9.2 4.9 0 9-1.6 11.6-3.9 1.7-1.5 3-3.3 3-5.3 0-2.3-1.5-4.3-3.6-5.9-2.7-2-6.5-3.3-11-3.3-8.1 0-14.6 4.1-14.6 9.2zM1000.6 658.2c-3.8 0-6.9 2.7-6.9 6.1 0 3.4 3.1 6.1 6.9 6.1 3.8 0 6.9-2.7 6.9-6.1 0-3.4-3.1-6.1-6.9-6.1zM832.4 734.2c0-3-8.9-5.4-20-5.4-3.3 0-6.5.2-9.2.6-6.4.9-10.8 2.7-10.8 4.8 0 2.5 6.3 4.6 14.9 5.2 1.6.1 3.3.2 5.1.2 11 0 20-2.4 20-5.4zM1165.8 745.7c-5.1 0-9.2 3.4-9.2 7.7 0 4.3 4.1 7.7 9.2 7.7.2 0 .4-.1.6-.1 4.8-.3 8.6-3.5 8.6-7.6 0-1-.3-1.9-.7-2.8-1.3-2.8-4.6-4.9-8.5-4.9z"/></svg>