<svg xmlns:xlink="http://www.w3.org/1999/xlink"  version="1" xmlns="http://www.w3.org/2000/svg" viewBox="0 0 150 150"><path fill="none" d="M48.8 114.1l-5.2-5.2c-.1 2.3 1.1 4.5 5.2 5.2z"/><path fill="#07A44A" d="M53 50.2c1.7 1.4 3.6 3.4 3.9 5.3.7-.4 1.8-.9 3.3-1.4 5.2-1.8 14.8-3.3 21.9 4.5 0 0 8.9 11.4-3.5 13.2l-4.3-2c12.7.6 6.4-7.8 6.4-7.8-11.7-15.1-25.2-1.8-25.2-1.8-12.6 10.1-.1 22.3 6.6 27.5 4.7-.5 9.2.1 12.5.9 2.2.5 3.9 1.1 5 1.6.2-2.9 2.7-6.1 5-8.5 0 0 6-35.1 45.4-16.4 0 0-12.9 34.3-44.3 21.4-.4-.1-.8-.3-1.1-.5v-1c-1.7 2-1.6 4.5-1.2 6.4 12.4 5.1 16.4 14 16.6 23.1l40-39.8L74.8 9.7 45.2 39.3c7.5 3 7.8 10.9 7.8 10.9z"/><path fill="#6EBD44" d="M74.6 139.9l-23.2-23.2-3.5 2c-12.9-.5-11.4-9.4-9.2-14.8l-29-29 20.1-20.2c-6.7-4.2-10.2-11.3-10.2-11.3.7-.5 1.4-.8 2.1-1.2.5 1 11.3 21.7 30.9 11.3.2-.1.5-.3.7-.4l-.1-.7c1.3 1.3 1.4 2.9 1.2 4.2-17.5 9.3-6.6 28.5-2.9 34.1-3.2 1.7-6.2 4.1-8.8 7.6 0 0-11.6 18.2 7.1 19l6.1-3.5c-3.1.5-5.4.4-7.2.2l-5.2-5.2c.1-2.8 1.7-5.6 1.7-5.6 15.1-24.2 37-6.4 37-6.4 26.6 17.1-7.6 43.1-7.6 43.1zM141.2 74.2L75.6 8.5l1.3-1.2 65.6 65.6z"/><path fill="#6EBD44" d="M35.6 105.8L7 77.1l1.3-1.2 27.9 27.8zM72.3 142.7l-22.4-22.5 1.2-1.2 22.5 22.4zM75.8 141.6L141.4 76l1.2 1.3L77 142.9zM43.2 36l29-28.9 1.2 1.3-28.1 28.1zM7 72.6l17.3-17.3 1.3 1.2L8.2 73.9z"/></svg>