<svg xmlns:xlink="http://www.w3.org/1999/xlink"  xmlns="http://www.w3.org/2000/svg" viewBox="0 0 2000 2000"><path fill="#DF868C" d="M1005 846.2V546.5s-.3-54.5 43.2-54.5c0 0 47-7.3 39.8 61.7l26 35.1-61 1.2v217c48-48.4 97.2-94.8 166.4-135.3-30-127.1-94.1-271.7-209.2-427.1 0 0-141.1 199.5-210.4 420.5C893.5 717.8 958 781.3 1005 846.2zm59.5-408.1c4.7-3.7 11.6-2.9 15.3 1.8 3.7 4.7 2.9 11.6-1.8 15.3-1.4 1.1-3 1.7-4.6 2h.1c-8.4 5.1-24.5 33.4-25.3 32.4 14.3-26.8 14.5-36.2 14.5-36.2-3.7-4.7-2.9-11.5 1.8-15.3zm-38.2-13.5c2.3-5.6 8.6-8.3 14.2-6 5.6 2.3 8.2 8.6 6 14.2-.7 1.7-1.8 3-3 4h.1c-4.8 8.5-5 41.1-6.1 40.6-.7-30.3-5.2-38.7-5.2-38.7-5.5-2.1-8.2-8.5-6-14.1zm-25.3 12.5c6-.7 11.4 3.6 12.1 9.5.2 1.8-.1 3.4-.7 5l.1-.1c0 9.8 15.6 38.3 14.4 38.5-15.3-26.2-23.3-31.3-23.3-31.3-6 .7-11.4-3.5-12.1-9.5-.7-6 3.6-11.4 9.5-12.1z"/><path fill="#FFC677" d="M985.6 941.5c6.6 3 7.4 6.5 19.4 10.2V846.2c-47-64.9-110.8-128.4-204.5-181-121-68-286.2-118-500.1-129.6 0 0 58.9 221.6 176.9 412 220.7-106.3 408-84.1 508.3-6.1z"/><path fill="#D49EDC" d="M985.3 941.5c-100.3-78-287.5-100.3-508.3 6.1-110.4 53.2-229.1 138.4-349.5 265 0 0 160.3 76.8 349.7 118.3 118.9-343.4 365.3-455.1 508.1-389.4z"/><path fill="#76B8E6" d="M1005 1361v-138.8c-59 20.7-138 25-231.8-2.6 0 0 112.8-179.9 231.8-190.6v-77.2c-12-3.8-12.8-7.2-19.4-10.2-142.7-65.7-389.4 45.9-508.3 389.3-34.3 99-58 215.5-65.5 354.3 0 0 373.9-97.2 567.6-300.2h.5c8.7 0 13.1-14.7 25.1-24z"/><path fill="#E6907A" d="M1053 807.1v117s5.2 1.9 9.2 5.7c103.5-68.2 284.1-82.9 493.3 17.8 117.9-190.4 177.5-412 177.5-412-220.8 12-392 64.8-514 136.2-69.2 40.5-118 86.9-166 135.3z"/><path fill="#FFC677" d="M1065.1 929.7c1.2 1.2 2.6 2.5 4.2 4 144.8-46.9 374.1 69.7 487.5 397.1 189.4-41.5 349.8-118.3 349.8-118.3-120.4-126.6-239.1-211.8-349.5-265-209.3-100.7-388.5-86-492-17.8z"/><path fill="#F687B4" d="M1069.3 933.7c44.7 43.6 208.1 231.2 14.7 482.6l-2.1-1.4c199.4 181.5 540.3 272 540.3 272-7.5-138.9-31.2-257.1-65.5-356.1-113.3-327.4-342.6-443.9-487.4-397.1z"/><path opacity=".81" fill="#76B8E6" d="M1005 1361c-12 9.4-16.4 18.5-25.1 27.5 3.9 150.8 25.1 279.4 25.1 279.4V1361z"/><path fill="#76B8E6" d="M1005 1361c-12 9.4-16.4 24-25.2 24h.3c8.7 0 12.9-14.6 24.9-24z"/><path opacity=".81" fill="#76B8E6" d="M1005 1361c-12 9.4-16.4 24-25.2 24h.3c8.7 0 12.9-14.6 24.9-24z"/><path fill="#FFFFFE" d="M1004.7 1360.6c-.1.1-.2.2-.3.4v.7l.3.2v-1.3z"/><path opacity=".81" fill="#76B8E6" d="M1004.7 1360.6c-.1.1-.2.2-.3.4v.7l.3.2v-1.3z"/><path fill="#FFC677" d="M772.5 1219.5c93.9 27.6 173.5 23.3 231.8 2.6 103.9-36.8 140.2-125.4 68-178.7-22.4-12.5-45.3-16.5-68-14.5-119.5 10.7-231.8 190.6-231.8 190.6z"/><path fill="#FFFFFE" d="M1003.6 458.7s7.9 5.1 23.3 31.3c1.2-.1-14.4-28.7-14.4-38.5l-.1.1c.6-1.6.9-3.2.7-5-.7-6-6.1-10.2-12.1-9.5-6 .7-10.2 6.1-9.5 12.1.7 6 6.1 10.2 12.1 9.5zM1032.3 438.8s4.4 8.3 5.2 38.7c1.1.5 1.3-32.1 6.1-40.6h-.1c1.3-1.1 2.4-2.4 3-4 2.3-5.6-.4-11.9-6-14.2-5.6-2.3-11.9.4-14.2 6-2.2 5.5.5 11.9 6 14.1zM1073.5 457.3c1.5-.4 3.1-.9 4.5-2.1 4.7-3.7 5.5-10.6 1.8-15.3-3.8-4.7-10.6-5.5-15.3-1.8-4.7 3.7-5.5 10.6-1.8 15.3 0 0-.2 9.5-14.5 36.2.8 1 16.9-27.3 25.3-32.3z"/><path fill="#6AB48A" d="M792.3 638.9c3-3 23.7-80 47.4-133.3 3-8.9-26.6-88.9-189.5-136.2 0 0-38.5 130.3-3 213.3 5.9 2.9 97.7 26.6 145.1 56.2zM314.8 1013.5c6-2.7 82.1-59.3 134.9-77.6-.4-4.2-47.3-68.7-73.9-120.6-5.1-7.9-85.9-35.1-225.1 61.9 0 .1 77.2 111.9 164.1 136.3zM318.9 1309.9c-9.1-2.4-86.9 32.5-123.3 198.2 0 0 132.6 29.7 213-11.2 2.6-6.1 20.1-99.3 46.5-148.5-3.3-2.9-81.5-18.4-136.2-38.5zM1237.9 644.8c47.4-29.6 139.2-53.3 145.1-56.3 35.5-82.9-2.9-213.2-2.9-213.2-162.9 47.4-192.5 127.4-189.6 136.2 23.7 53.4 44.4 130.4 47.4 133.3zM1654.4 821.3c-26.6 51.9-73.5 116.4-73.9 120.6 52.8 18.3 128.9 74.8 134.9 77.6 86.9-24.4 164.1-136.3 164.1-136.3-139.2-97-220.1-69.8-225.1-61.9zM1711.3 1309.9c-54.8 20.1-133 35.7-136.1 38.4 26.4 49.2 43.9 142.4 46.5 148.5 80.4 41 213 11.2 213 11.2-36.5-165.6-114.4-200.5-123.4-198.1z"/></svg>