<svg xmlns:xlink="http://www.w3.org/1999/xlink"  version="1" xmlns="http://www.w3.org/2000/svg" viewBox="0 0 150 150"><path fill="#A3824E" d="M58.4 64.2L34.1 44.5l27.8 14.3c-20.8-35.1-46.7-27-46.7-27 5.2 27.8 43.2 32.4 43.2 32.4z"/><path fill="#A8D5A1" d="M70 55.2L59.2 27.6l16.4 24.6c-1.5-40.7-28.1-46-28.1-46C38.7 33 70 55.2 70 55.2z"/><path fill="#D9CAB4" d="M94.9 25.5l-5.2 29.1C116.9 24.2 101.4 2 101.4 2c-25 13.3-17.9 50.9-17.9 50.9l11.4-27.4z"/><path fill="#F292BC" d="M123.6 53.8L96.2 65c40.2 6.7 50.7-18.3 50.7-18.3-24.6-14-52.5 12.2-52.5 12.2l29.2-5.1z"/><path fill="#8E385E" d="M98.4 78.2l25.7 14.9-28.2-9c26.6 30.9 50.6 18.4 50.6 18.4-9.8-26.5-48.1-24.3-48.1-24.3z"/><path fill="#977438" d="M89.6 92.4l10 27.9-15.7-25c.4 40.7 26.9 46.7 26.9 46.7 9.4-26.6-21.2-49.6-21.2-49.6z"/><path fill="#F292BC" d="M60.9 124.5l8.7-28.2c-30.7 26.8-18 50.8-18 50.8 26.4-10.1 24-48.4 24-48.4l-14.7 25.8z"/><path fill="#DABAC4" d="M35.6 107.8l21.2-20.6c-39.8 8.8-40.1 36-40.1 36 28 3.8 44.2-31 44.2-31l-25.3 15.6z"/><path fill="#6A7999" d="M25.6 76.9l29.3-3.6c-37-17-53.7 4.4-53.7 4.4 20 19.9 53.9 2 53.9 2l-29.5-2.8z"/><path fill="#A3824E" d="M60.9 76.1c0 8.9 7.2 16.2 16.2 16.2 8.9 0 16.2-7.3 16.2-16.2 0-8.9-7.2-16.2-16.2-16.2s-16.2 7.2-16.2 16.2z"/></svg>