<svg xmlns:xlink="http://www.w3.org/1999/xlink"  xmlns="http://www.w3.org/2000/svg" viewBox="0 0 2000 2000"><path fill="#D2E069" d="M1420 575c9.2-2.4 18.8.5 24.4 7.5 42.9 54.1 79.3 51.4 97.2 45 23.4-8.4 40.7-32.5 40.3-56.2-.4-23.9-18.3-38.9-49.1-41.3-15.5-1.2-26.1-10.4-26.4-22.9-.1-6 2.3-12 6.9-17.5 5.3-6.2 8.1-14.4 7.9-23-.2-12.7-6.7-24.4-17.2-31.2-14.1-9.1-34.2-8.8-56.7.9-13.7 5.9-21.4 3.9-25.5 1.3-7.5-4.8-8-16.1-.8-25.6 4.5-6 6.8-12 6.7-17.6-.3-14.6-16.7-28-40.1-32.5-25.4-5-60 .8-74 33.7-16.6 38.7-59 62.5-116.2 65.1-2.6.1-5 .3-7 .4 29.6 4.7 113 15.6 143.1-2.4 14.3-8.5 33.8-16.9 41.9-12.4 2.4 1.3 3.8 3.7 3.9 6.3 0 3.4-1.7 8.8-17.9 17.4l-9 4.7c-5 2.6-10.6 5.5-14.1 7.7 2.4.6 6.2 1.3 12.2 2.1 12.2 1.7 46.8 14 60.2 19.8 24.6 10.6 24.7 17 24.7 19.3 0 2.3-1 4.4-2.8 5.8-2 1.5-6.7 5.2-34.8-2.9-95.6-27.4-187.3-35.3-202.1-34.9-3.4.1-6.3.6-8.5 1.1 2.6.8 6.6 1.8 12.4 2.8 17 2.8 87.1 57.1 102 107 9.3 31.4 34.2 41.2 52.7 40 17.9-1.1 40.5-13.3 45.4-43.8 1.9-11.9 9.6-20.9 20.3-23.7z"/><path fill="#ABDFE7" d="M1110.5 296.9c5.1-8.2 22.7-34.7 33.5-31.6 2.4.6 5 2.8 5 6.9 0 1.6.1 6.4-9.4 20.2l-6 8.7c-3 4.3-6.2 8.8-8.4 12.4 2.2-.8 5.1-2 8.9-3.8 11.2-5.1 45.4-13.1 59-15.3 21.8-3.7 26-.2 27.6 1.2 1.6 1.4 2.6 3.3 2.6 5.3.1 4.9-3.7 10.6-31.2 18.8-92.3 27.6-174 69.3-186.5 77.5-2.1 1.4-4 2.8-5.5 4.1 2.2-.7 5-1.8 8.5-3.3 18.3-7.7 97 18.5 126.5 34.1 23.8 12.6 42.5 6.8 54-.2 21.8-13.4 33.3-40.7 29.8-54.6-3.1-12.4 1.9-25.7 12.1-32.7 6.5-4.6 13.9-5.8 20.3-3.3 43.9 17.1 71.9 7.6 87.6-3.3 19-13.2 31-36.6 30.6-59.5-.3-14.7-5.7-26.3-15.1-31.8-10.8-6.5-26.5-4.7-45.2 5-9.6 5-18.9 5.6-25.6 1.6-7.7-4.5-10.5-14.2-7.3-25.7 4.6-16.2-3.3-32.7-17.6-37.6-17-5.8-38.6 5.2-57.8 29.3-11.4 14.4-19.8 15.3-24.9 13.6-6.8-2.3-9.9-10.8-7.6-21 .8-3.4 1.2-6.6 1.1-9.5-.3-15.5-12.8-18.6-23.2-18.5-30 .2-75.4 29.3-75.4 72.5 0 40.5-27.5 82.1-75.3 114.1l-1.8 1.2c30.9-13.4 98.6-45.8 116.7-74.8z"/><path fill="#F7ADC2" d="M1210.9 549.8c-.2-11.6-4.7-38.7-42.7-41-55.3-3.4-100.9-21.9-116.2-47.1-1.4-2.4-2.7-4.3-3.7-5.8.3 1 .6 2.1 1 3.1 4.2 11.8 39.2 81.4 90.7 148 13.5 17.4 13.5 23 13.6 24.8 0 3.2-1.6 5.8-4.2 6.9-2.2.9-7.4 3.1-24.1-13.5-8.7-8.7-29.4-32.2-34.6-41.4-1.8-3.1-3.2-5.4-4.3-7.1-.5 3.3-.9 7.5-1.3 11.4l-.9 8.6c-1 9-3.3 21-11.4 20.6-6.1-.3-9.2-7-9.5-19.9-.1-5.8.4-12.3 1.6-19.4 4.4-26.6-24.2-80.3-38.8-105.9 5.2 15.6 7.9 30.8 8.2 45.2.5 26.8-7.8 49.5-23.9 65.5-9.3 9.3-14.1 21.1-13.9 34.4.4 25.8 19.5 50.2 36.2 54.7 9.4 2.5 17.1-1.1 23-10.8 4.5-7.4 14.7-11.1 21-9.4 3.3.9 14.3 4.7 14.3 20.6v2.4c-14 26.4 6.4 44.8 24.1 49.1 13.4 3.3 26.1-2.7 32.3-14.3 4.3-8.1 10.4-12.6 18-12.5 8.3.1 15.6 5.8 20.2 15.2 10.4 21.2 25.3 30.7 42.3 26.6 19.9-4.8 35.7-26.8 35.3-49-.3-16.1-9.2-45.5-65.4-62.5-8.4-2.5-14.2-10.6-14.4-20-.2-8.7 4.6-16.9 12.8-21.8 8.5-4.9 15-20.6 14.7-35.7z"/><path fill="#D2E069" d="M1727.6 1079c-11.9-8.9-14.1-16.6-13.9-21.4.4-8.9 9.9-14.9 21.7-13.5 7.5.9 13.8-.1 18.6-3 12.5-7.5 15.9-28.5 8.1-50.9-8.4-24.5-30.7-51.5-66.2-47.3-41.8 5-83.6-19.8-114.5-68.1-1.4-2.2-2.7-4.1-3.9-5.8 10.8 28 43 105.7 73.6 122.7 14.5 8.1 31.5 20.8 31.7 30.1 0 2.7-1.3 5.1-3.5 6.5-2.9 1.7-8.5 2.9-24-6.8l-8.6-5.4c-4.8-3.1-10-6.4-13.7-8.4.7 2.4 2 6.1 4.2 11.6 4.7 11.4 11.3 47.6 13 62.1 3.1 26.6-2.3 29.9-4.4 31.1-2 1.2-4.3 1.3-6.4.5-2.3-1-7.8-3.3-14.9-31.5-24.1-96.5-63.1-179.9-70.9-192.5-1.8-2.9-3.6-5.2-5.2-6.9.6 2.7 1.8 6.6 3.8 12.2 6.1 16.1-5.8 104-41.7 141.8-22.6 23.8-18.6 50.2-8.3 65.6 9.9 14.9 31.8 28.4 60.7 17.4 11.2-4.3 22.9-2.1 30.6 5.8 6.7 6.8 9 16.6 5.7 24.9-25.3 64.2-4.9 94.4 9.6 106.7 19 16.1 48.6 19 68.8 6.8 20.4-12.3 24.5-35.3 11.2-63.1-6.7-14.1-4-27.9 6.7-34.3 5.1-3.1 11.5-4 18.6-2.8 8 1.5 16.5-.2 24-4.7 10.9-6.6 17.8-18 18.4-30.5 1.1-16.9-9.2-34.2-28.9-48.9z"/><path fill="#603913" d="M1726.2 1056.1c1.8-1.1 4.7-1.4 7.9-1 10 1.2 18.6-.3 25.7-4.5 17.3-10.4 22.5-36 12.9-63.9-10.4-30.6-38.6-59.3-77.9-54.6-37.5 4.5-75.4-18.5-103.9-63-12.6-19.7-18.9-25.1-24.9-21.5-4.8 2.9-4.7 9.4.4 22.6 12.6 33.2 45.6 112.4 79.7 131.3 8.7 4.8 14.8 9.3 19.1 12.9-1.1-.6-2.3-1.3-3.6-2.2l-8.6-5.4c-15.7-10-22.2-14.1-27.7-10.8-6.7 4.1-3.4 13.9 2.1 27.4 3.9 9.5 10.5 43.8 12.3 59.2.6 5.1.8 9.2.8 12.3-1.4-3.6-3-8.8-4.8-16.2-24.4-97.8-64.2-182.8-72.2-195.7-2.1-3.4-13.1-20-22.3-14.5-2 1.2-3.2 3-3.7 5.6-.8-1.8-1.2-3.6-2.2-5.5-26.3-52.8-27.8-95.3-17.5-114 7.7-14 9.1-21.1 4.8-25.2-1.7-1.6-5.5-3.7-12 .2-3.3 2-6.9 5.2-10.1 8.9-8.3 9.9-52.1 76.3-84.6 155.5-1.2 2.9-2.3 5.4-3.3 7.6.3-1.3.7-2.7 1-4.2 3.3-12.6 13-40.4 17.4-47.9 7.1-12.1 9.7-18.6 5.7-23.1-2.5-2.8-5.7-3.1-10.7-1.6 29.2-18.3 62-73.4 74.8-96.5 5.9-10.5 6.8-16.2 3.2-19.6-1.1-1.1-4.4-3.4-9.6-.2-3.6 2.2-8.7 7.1-15.5 14.9-28.5 32.8-63.8 48-93.9 39.9-15.7-4.2-31.3-2-45.3 6.4-24.8 14.9-40.6 47.4-34.3 71 3.7 14.1 15.1 22.4 31.2 22.7 4.2.1 6.4 1.7 6.6 2.4.3 1-1.2 4.1-7.3 7.7l-1.7 1-4.2 2.4c-25.1 15.1-36.4 37-30 58.6 5.3 18 22.2 30.7 40.2 30.1 4.9-.1 8.6 1.4 10.3 4.4 2 3.6 1.1 8.8-2.4 13.9-22.9 34.1-8.1 56-.6 63.9 17.8 18.6 50.2 22.2 73.8 8 13.2-7.9 42.1-33.5 26.5-99.8-.9-3.8 1.1-8.1 5.1-10.4 4.1-2.5 9.3-2.3 14.2.4 12.1 6.8 32.9 4.5 49.4-5.4 13.8-8.3 25.1-22.8 25.5-42.1 4.1 12.9-6.5 95.1-39.5 129.9-22.2 23.5-25.9 54.6-9.5 79.4 16.1 24 45 32.5 73.8 21.6 7.2-2.8 14.2-1.5 18.9 3.2 3.7 3.8 5 8.8 3.3 13.1-22.1 56-11.7 89.1 1.9 107.5l-.3.2c-2.7 1.4-5.5 4.6-7.2 18.8-3.9 32-10.7 106.5 3 145.5-4.4-7.7-8.7-9.3-12.8-7.2-4.2 2.2-5.9 7.7-7.5 23.8-1 10.1-10.4 42.3-15.6 55.9-1.2 3.2-2.3 5.8-3.3 8.1.5-3.7 1.4-8.7 2.9-15.1 22.5-94.8 27.2-188.1 26.5-203.4-.2-3.2-1.4-19.5-8.4-23.3-2.1-1.2-4.6-1.2-6.8-.1-3.8 1.9-6.8 6.9-9 24.9-1.6 12.3-55.7 64.4-87.8 84.5-27.2 17.1-32.4 40.2-32 56.5.7 27.7 17.7 51.8 33.3 60.5 2.4 1.3 4.7 2.3 7.1 2.9 9.1 2.6 13.8 11.2 14.3 17.2.3 4.2-.8 7.8-3.2 9.7-40.6 32.5-46.9 65.3-45 87.1 2.2 26.6 18.7 52.1 41.9 64.9 16.2 9 33 10 45.8 2.8 10.2-5.7 22.5-19.1 23.9-50.8.3-6.8 2.4-11.9 5.8-13.8 2.6-1.5 5.6-.5 7.6.7 1.7.9 3.3 2.2 5 3.9 3.2 3.3 6.8 6 10.7 8.2 15.4 8.5 33.3 7 45.8-4 8.2-7.2 25.3-29.2 6.5-77-4.5-11.5-2.9-15.7-2.3-16.1.2-.1 3.7.5 7.2 3.7 19 17.6 40 14.1 52.4-7.8 17.4-30.7 14.6-91.3-29.2-116.6-31.8-18.4-52.1-59.7-55.7-113.4-.6-8.6-1.3-14.6-2.1-18.9 22.8 18.8 56.6 22 81 7.4 25.5-15.3 31.3-44.2 15.5-77.4-4.2-8.7-3.2-16.7 2.4-20.1 2.8-1.7 6.6-2.1 11-1.4 10.6 1.9 21.8-.3 31.5-6.1 14.1-8.5 23-23.2 23.8-39.4 1.1-20.5-10.8-41.2-33.5-58.1-7.2-5.4-9.6-9.7-9.5-12.1.2-.5.2-1.4 1.6-2.2zm12.1 102.1c-7.4 4.5-15.9 6.1-24 4.7-7.1-1.2-13.5-.3-18.6 2.8-10.7 6.4-13.4 20.2-6.7 34.3 13.3 27.8 9.2 50.8-11.2 63.1-20.3 12.2-49.8 9.2-68.8-6.8-14.5-12.3-35-42.4-9.6-106.7 3.3-8.3 1.1-18.1-5.7-24.9-7.7-7.8-19.4-10-30.6-5.8-28.9 11-50.8-2.5-60.7-17.4-10.3-15.4-14.3-41.9 8.3-65.6 35.9-37.8 47.8-125.7 41.7-141.8-2-5.6-3.2-9.5-3.8-12.2 1.6 1.7 3.4 4 5.2 6.9 7.8 12.6 46.8 96 70.9 192.5 7 28.3 12.5 30.6 14.9 31.5 2.2.9 4.5.7 6.4-.5 2-1.2 7.5-4.5 4.4-31.1-1.7-14.5-8.3-50.6-13-62.1-2.2-5.5-3.5-9.2-4.2-11.6 3.6 2 8.9 5.3 13.7 8.4l8.6 5.4c15.5 9.7 21.1 8.5 24 6.8 2.2-1.3 3.5-3.8 3.5-6.5-.1-9.3-17.2-22-31.7-30.1-30.6-17-62.9-94.7-73.6-122.7 1.1 1.7 2.5 3.6 3.9 5.8 30.9 48.2 72.6 73.1 114.5 68.1 35.5-4.2 57.8 22.8 66.2 47.3 7.7 22.5 4.4 43.4-8.1 50.9-4.9 2.9-11.1 3.9-18.6 3-11.8-1.4-21.3 4.6-21.7 13.5-.3 4.8 2 12.5 13.9 21.4 19.7 14.7 30 32 29.2 48.7-.9 12.7-7.8 24.2-18.7 30.7zm-227.2-227.1c-12.9 7.7-29.7 10.1-38.4 5.2-8.4-4.6-17.8-4.7-25.3-.2-8.1 4.9-12.2 13.9-10.2 22.4 13.4 57.1-7.6 79.5-21.4 87.8-19 11.5-46 8.7-60.2-6.1-12-12.7-11.4-30.5 1.8-50.1 5.8-8.7 6.9-18.2 2.9-25.4-3.7-6.7-11.1-10.4-20.2-10.1-13 .4-25.4-8.9-29.3-22.2-5.1-17.4 5.6-35.5 28.8-48.2l2.1-1.2c13.7-8.2 13.1-16.7 12.3-20-1.7-6.3-8.4-10.4-17.1-10.6-11.3-.3-18.3-5.2-20.8-14.5-4.4-16.7 7.2-45.4 29.3-58.7 11.3-6.8 24-8.6 36.7-5.2 22 5.9 45.8 1.8 68.7-12 12.4-7.4 24.2-17.5 35.1-29.7-14.8 25.4-47 77.1-72.3 86.5-6.7 2.6-12.6 5.3-17.6 8.3-11.1 6.7-15.3 12.8-12.5 18.2 3.8 7.2 15.3 3.2 23.6-.5l7.9-3.5c3.6-1.6 7.5-3.4 10.5-4.6-.9 1.8-2.2 4.2-4 7.2-5.4 9.1-15.4 38.7-18.6 50.6-6.1 22.8-1.6 26.2.4 27.7 2.4 1.7 5.4 1.8 8.1.2 1.6-.9 6.3-3.8 14.6-24.1 32-77.9 74.8-143 82.8-152.6.7-.8 1.5-1.6 2.2-2.4-.8 1.7-1.8 3.7-3.1 6.1-14.2 25.9-7.5 74.6 17.3 124.2 17 34-4.2 51.5-14.1 57.5zm168.9 577.6c-5.2 9.1-14.1 18.3-27.7 10.8-2.5-1.4-5.1-3.3-7.6-5.7-7.7-7.1-16.5-8.6-22-3.9-4 3.5-7.4 11.3-.6 28.4 11.3 28.7 10 52.9-3.5 64.7-11.3 9.9-29.6 8.4-41.3-3.6-8.3-8.5-18.1-10.9-25.8-6.5-6.8 3.8-11 12.1-11.4 23-.9 21.1-7.2 35.5-18.3 41.7-9.4 5.3-22.2 4.3-35.1-2.9-20.1-11.1-34.3-33.2-36.2-56.3-1.6-19.1 4.2-48 40.9-77.5 5.3-4.2 8-11.3 7.3-19.2-1-12.4-10-23.3-22.3-26.9-13.7-3.9-31.7-27.6-32.4-53.1-.3-13.5 4-32.6 26.9-46.9 28.2-17.7 90.3-72.8 92.8-92.5.5-3.8.9-6.7 1.4-9 .4 2 .6 4.3.8 6.8.8 15-4 106.6-26.2 200.3-6.6 27.9-3.6 34 .7 36.4 1.8 1 3.9 1.1 5.9.4 1.9-.7 7.1-2.6 14.8-23.3 4.9-12.9 15-46.5 16.2-58.7.4-4.2.8-7.3 1.2-9.6 1.9 3.8 4.3 8.8 6.5 13.5l4.5 9.5c7.2 15.2 11.4 17.5 12.8 18.3 3.6 2 6.8.8 8.5-.9 8-7.9-6.1-36.3-10.7-44.8-16-30.2-10.3-105-6.7-138.5 0 .7.1 1.4.2 2.2 3.8 57.5 26.1 102.1 61.2 122.3 37.5 21.6 40 75.4 25.2 101.5z"/><path fill="#ABDFE7" d="M1818.4 867.2c-9.1-5.8-14.3-13.6-14.2-21.4.1-8.9 7.1-16.2 18.6-19.1 16.3-4.2 26.7-19.3 23.8-34-3.5-17.6-23.8-30.8-54.3-35.4-18.2-2.7-23.2-9.5-24.3-14.7-1.4-7.1 4.4-14 14.4-17.1 3.4-1 6.3-2.3 8.8-3.8 13.3-8 9.7-20.4 4.5-29.4-15.2-25.9-63.1-50.6-100.5-29-35.1 20.2-84.8 17.3-136.5-8.2-.7-.3-1.3-.6-2-.9 27.3 19.9 89.2 62.2 123.3 63.5 9.7.3 41.3 2.3 44.1 13.2.6 2.4 0 5.7-3.5 7.9-1.3.8-5.5 3.3-22.2 1.9l-10.5-.9c-5.2-.4-10.7-.9-14.9-1.1 1.8 1.5 4.3 3.4 7.7 5.8 10 7.1 34 32.8 42.8 43.4 14.1 17.1 13.1 22.5 12.8 24.5-.4 2.1-1.6 3.9-3.3 4.9-4.2 2.5-11 2.1-31.9-17.6-70.1-66.1-147-116-160.4-122.8-2.3-1.1-4.4-2.1-6.3-2.7 1.8 1.6 4.1 3.5 7.1 5.8 15.8 12 32.5 93.3 33.7 126.6 1 26.9 15.3 40.2 27.2 46.7 22.4 12.2 51.9 8.4 62.2-1.5 9.2-8.9 23.2-11.1 34.4-5.9 7.2 3.4 12 9.2 13 15.9 7.1 46.6 29.3 66.1 46.7 74.2 20.9 9.8 47.2 8.6 66.8-3.2 12.6-7.6 19.9-18.1 20-28.9.1-12.7-9.3-25.4-27.1-36.7z"/><path fill="#603913" d="M1824.3 857.9c-5.7-3.7-9.1-8.1-9.1-11.9 0-3 2.4-5.1 4.4-6.2 1.6-1 3.6-1.7 5.9-2.3 4.5-1.1 8.6-2.9 12.4-5.2 15.1-9 22.7-25.4 19.4-41.7-2.1-10.8-12.6-36.5-63.5-44.1-12.2-1.8-15-5.4-15.1-6 0-.2 2.2-2.9 6.8-4.3 24.7-7.6 32.2-27.6 19.5-49.3-17.9-30.4-71.8-58.3-115.5-33-31.8 18.4-77.8 15.3-126.1-8.5-7.7-3.8-13.3-6.2-17.5-7.6 27.7-10.3 47.4-38.1 46.9-66.4-.5-29.8-22.6-49.2-59.3-52.1-9.6-.7-16.1-5.6-16.2-12.1 0-3.3 1.5-6.8 4.3-10.2 7-8.3 10.7-19 10.5-30.3-.3-16.4-8.6-31.5-22.2-40.3-17.3-11.2-41.1-11.2-67.1 0-8.2 3.5-13.2 3.4-15.2 2.2-.3-.2-1-.7-1-2.2-.1-2.1 1.1-4.8 3.1-7.4 6.1-8 9.1-16.3 8.9-24.5-.3-20.2-20-37.5-48.9-43.1-31.7-6.2-70.7 3.8-86.3 40.2-14.9 34.7-53.7 56-106.5 58.4-23.4 1.1-31.2 3.8-31.1 10.9.1 5.6 5.8 8.7 19.8 11 35 5.6 120.1 16.7 153.6-3.3 8.5-5.1 15.5-8.2 20.7-10.1-1.1.7-2.3 1.4-3.7 2.1l-8.9 4.7c-16.5 8.6-23.3 12.1-23.2 18.7.1 7.9 10.4 9.9 24.8 11.9 10.1 1.4 43.2 12.8 57.3 18.9 4.8 2 8.4 3.9 11.1 5.4-3.8-.6-9.2-1.8-16.5-3.9-96.9-27.8-190.4-35.8-205.5-35.3-4 .1-23.8 1.3-23.6 12 0 2.3 1 4.3 3 6-2-.3-3.7-.7-5.8-.9-58.9-3.6-96.4-23.6-107.4-41.8-8.3-13.7-13.8-18.4-19.4-16.8-2.2.6-6 2.9-5.8 10.5.1 3.8 1.1 8.6 2.7 13.2 4.4 12.1 40 83.3 92.4 151 1.9 2.5 3.5 4.7 4.9 6.6-1-.9-2-1.9-3.1-3-9.2-9.2-28.5-31.5-32.7-39-6.9-12.2-11.3-17.7-17.2-16.5-3.7.8-5.5 3.5-6.7 8.5-1.3-34.4-32.6-90.4-46.1-113.1-6.2-10.3-10.7-14-15.4-12.6-1.6.4-5.1 2.1-5 8.2.1 4.2 1.8 11 5.2 20.9 14.2 41.1 9.7 79.3-12.4 101.3-11.5 11.5-17.4 26.1-17.1 42.4.5 29 20.8 58.8 44.3 65.2 14.1 3.8 26.9-1.9 35.3-15.7 2.2-3.6 6.3-4.7 7.1-4.5 1 .3 4.7 3.1 4.7 10.2v1.9c0 1.6-1.8 3.2-1.7 4.8.5 29.3 13 50 34.9 55.3 18.3 4.4 37.3-3.9 45.8-19.8 2.3-4.4 5.3-6.7 8.7-6.7 4.1 0 8 3.4 10.8 9 18.1 36.9 44.4 35 55 32.5 25-6 44.3-32.4 43.8-59.9-.3-15.4-7.9-53.2-73.2-72.8-3.8-1.1-6.4-5-6.5-9.6-.1-4.8 2.6-9.2 7.5-12.1 11.9-7.1 20.4-26.3 20-45.5-.3-16.1-7.2-33.1-23.7-43.2 13.2 2.8 79.1 53.2 92.8 99.2 9.2 31 34.3 49.8 64 47.9 28.8-1.9 50.6-22.7 55.5-53.1 1.2-7.6 5.8-13 12.2-14.7 5.1-1.3 10.1.1 13 3.7 37.4 47.1 71.3 54.7 94.1 52.1v.4c-.1 3 1.3 7.1 12.7 15.6 25.8 19.4 86.8 62.6 127.5 70.2-8.9 0-12.4 2.8-12.6 7.5-.2 4.7 3.8 9 16.8 18.4 8.3 5.9 31.4 30.2 40.7 41.5 2.2 2.6 3.9 4.9 5.3 6.9-3-2.3-6.8-5.5-11.6-10.1-70.9-66.9-149.3-117.6-162.9-124.6-2.9-1.5-17.6-8.5-24.4-4.4-2.1 1.3-3.4 3.4-3.5 5.8-.2 4.3 2.6 9.3 17 20.3 9.9 7.5 28 80.4 29.3 118.3 1.2 32.1 18.5 48.2 32.9 56 24.3 13.2 53.7 10.5 69 1.4 2.3-1.4 4.4-3 6.1-4.6 6.9-6.6 16.6-6.4 22.1-3.8 3.8 1.8 6.4 4.6 6.8 7.6 7.9 51.4 33.1 73.2 52.9 82.5 24.1 11.3 54.4 9.9 77.2-3.8 15.9-9.6 25.2-23.5 25.4-38.3-.3-12.5-5.8-30-32.6-47zm-640.9-250.4c.2 9.5 5.9 17.5 14.3 20 56.2 16.9 65.1 46.4 65.3 62.5.4 22.2-15.5 44.2-35.4 49-17 4.1-32.1-5.4-42.5-26.6-4.6-9.4-12.3-15.1-20.6-15.2-7.7-.1-14.5 4.4-18.8 12.5-6.2 11.5-17.2 17.5-30.7 14.3-17.7-4.3-38.1-22.6-24.1-49.1v-2.4c0-15.9-11.1-19.7-14.3-20.6-6.3-1.7-14.8 2-19.4 9.4-5.9 9.7-14.4 13.3-23.8 10.8-16.7-4.5-36.1-28.9-36.6-54.7-.2-13.2 4.4-25.1 13.7-34.4 16.1-16.1 24.3-38.7 23.8-65.5-.3-14.4-3.1-29.6-8.2-45.2 14.6 25.6 43.2 79.3 38.8 105.9-1.1 7.1-1.7 13.6-1.6 19.4.2 13 3.4 19.7 9.5 19.9 8.1.4 10.4-11.6 11.4-20.6l.9-8.6c.4-3.9.8-8.1 1.3-11.4 1.1 1.7 2.5 4 4.3 7.1 5.2 9.2 25.8 32.7 34.6 41.4 16.7 16.7 21.9 14.5 24.1 13.5 2.7-1.2 4.2-3.7 4.2-6.9-.1-1.8-.1-7.3-13.6-24.8-51.5-66.6-86.5-136.2-90.7-148-.4-1-.7-2.1-1-3.1 1.1 1.5 2.3 3.4 3.7 5.8 15.3 25.2 60.9 43.8 116.2 47.1 38 2.3 42.5 29.4 42.7 41 .3 15-6.2 30.8-14.6 35.9-8.3 4.7-13.1 12.8-12.9 21.6zm642 325.3c-19.7 11.8-45.9 13.1-66.8 3.2-17.4-8.1-39.5-27.6-46.7-74.2-1-6.7-5.8-12.5-13-15.9-11.2-5.3-25.2-3-34.4 5.9-10.2 9.9-39.7 13.7-62.2 1.5-11.8-6.4-26.2-19.8-27.2-46.7-1.2-33.3-17.9-114.6-33.7-126.6-3-2.3-5.4-4.2-7.1-5.8 1.9.7 4 1.6 6.3 2.7 13.4 6.8 90.3 56.8 160.4 122.8 20.9 19.7 27.7 20.1 31.9 17.6 1.8-1.1 2.9-2.8 3.3-4.9.3-2 1.3-7.4-12.8-24.5-8.7-10.6-32.8-36.3-42.8-43.4-3.4-2.5-5.9-4.4-7.7-5.8 4.2.2 9.8.7 14.9 1.1l10.5.9c16.7 1.3 20.9-1.2 22.2-1.9 3.5-2.1 4.1-5.5 3.5-7.9-2.8-10.9-34.5-12.8-44.1-13.2-34.2-1.2-96-43.6-123.3-63.5.6.3 1.3.6 2 .9 51.7 25.4 101.5 28.4 136.5 8.2 37.4-21.6 85.3 3.2 100.5 29 5.3 9 8.8 21.4-4.5 29.4-2.5 1.5-5.4 2.7-8.8 3.8-10 3.1-15.8 10-14.4 17.1 1.1 5.2 6.1 12.1 24.3 14.7 30.5 4.6 50.8 17.8 54.3 35.4 2.9 14.7-7.5 29.8-23.8 34-11.5 2.9-18.5 10.2-18.6 19.1-.1 7.8 5 15.6 14.2 21.4 17.8 11.3 27.2 24 27 36.6 0 10.9-7.4 21.4-19.9 29zm-471.1-290.3c-18.5 1.2-43.4-8.6-52.7-40-14.9-50-84.9-104.2-102-107-5.9-1-9.8-2-12.4-2.8 2.3-.5 5.2-1 8.5-1.1 14.8-.5 106.5 7.5 202.1 34.9 28 8.1 32.7 4.4 34.8 2.9 1.8-1.4 2.9-3.5 2.8-5.8-.1-2.4-.2-8.7-24.7-19.3-13.4-5.7-48-18.1-60.2-19.8-5.9-.8-9.7-1.5-12.2-2.1 3.5-2.2 9.1-5 14.1-7.7l9-4.7c16.1-8.6 17.9-14 17.9-17.4 0-2.6-1.5-5-3.9-6.3-8.1-4.5-27.6 3.9-41.9 12.4-30 18-113.5 7.1-143.1 2.4 2-.2 4.4-.3 7-.4 57.2-2.6 99.6-26.4 116.2-65.1 14.1-32.8 48.7-38.7 74-33.7 23.3 4.6 39.8 17.9 40.1 32.5.1 5.7-2.2 11.6-6.7 17.6-7.2 9.5-6.7 20.7.8 25.6 4.1 2.6 11.8 4.6 25.5-1.3 22.5-9.7 42.7-10 56.7-.9 10.5 6.8 17 18.5 17.2 31.2.2 8.6-2.6 16.8-7.9 23-4.6 5.5-7 11.6-6.9 17.5.2 12.5 10.8 21.7 26.4 22.9 30.8 2.3 48.7 17.4 49.1 41.3.4 23.6-16.9 47.8-40.3 56.2-17.9 6.4-54.2 9.1-97.2-45-5.6-7-15.2-10-24.4-7.5-10.6 2.7-18.4 11.8-20.3 23.6-5 30.6-27.6 42.8-45.4 43.9z"/><path fill="#F7ADC2" d="M1525.2 873.6c-24.7-49.6-31.5-98.3-17.3-124.2 1.3-2.4 2.4-4.4 3.1-6.1-.7.8-1.5 1.6-2.2 2.4-8 9.6-50.9 74.6-82.8 152.6-8.4 20.4-13.1 23.2-14.6 24.1-2.7 1.6-5.7 1.6-8.1-.2-1.9-1.5-6.4-4.9-.4-27.7 3.2-11.9 13.2-41.5 18.6-50.6 1.8-3.1 3.1-5.5 4-7.2-3.1 1.2-6.9 3-10.5 4.6l-7.9 3.5c-8.3 3.7-19.8 7.7-23.6.5-2.8-5.4 1.4-11.5 12.5-18.2 5-3 10.9-5.8 17.6-8.3 25.3-9.5 57.5-61.1 72.3-86.5-10.9 12.3-22.7 22.3-35.1 29.7-22.9 13.8-46.7 18-68.7 12-12.7-3.4-25.4-1.6-36.7 5.2-22.2 13.3-33.8 42-29.3 58.7 2.5 9.4 9.5 14.3 20.8 14.5 8.7.2 15.4 4.4 17.1 10.6.8 3.3 1.4 11.8-12.3 20l-2.1 1.2c-23.2 12.6-34 30.7-28.8 48.2 3.9 13.3 16.2 22.6 29.3 22.2 9.2-.3 16.5 3.4 20.2 10.1 4.1 7.2 3 16.7-2.9 25.4-13.2 19.6-13.8 37.4-1.8 50.1 14.1 14.8 41.1 17.6 60.2 6.1 13.8-8.3 34.9-30.7 21.4-87.8-2-8.5 2.1-17.6 10.2-22.4 7.5-4.5 16.9-4.4 25.3.2 8.6 4.8 25.5 2.5 38.4-5.2 9.9-6 31.1-23.5 14.1-57.5z"/><path fill="#D2E069" d="M1413.2 1547.7c-25.2-33.7-24.6-82.3 1.7-133.2 1.2-2.4 2.3-4.4 3.1-6.3-18.8 23.3-70.1 90.1-69.5 125.1.3 16.6-2.2 37.7-10.2 42.5-2.3 1.4-5.1 1.5-7.3.2-3-1.6-6.8-5.9-6.1-24.2l.4-10.2c.3-5.7.5-11.9.4-16-1.7 1.8-4.3 4.7-7.9 9.4-7.6 9.7-35.6 33.6-47.2 42.3-21.5 16-27 12.9-29.1 11.7-2-1.1-3.3-3.1-3.6-5.3-.3-2.5-1.1-8.4 19.9-28.7 71.5-69.1 124.3-144.6 131.3-157.6 1.6-3 2.6-5.7 3.3-7.9-2 1.9-4.8 4.8-8.6 9.4-10.9 13.3-93 46.9-143.7 34.8-31.9-7.7-52.8 9-61 25.6-8 16-8.7 41.7 15.3 61.2 9.3 7.5 13.3 18.8 10.3 29.4-2.5 9.2-9.9 16-18.7 17.3-68.3 10.2-84.2 43-87.6 61.7-4.4 24.5 7.8 51.5 28.5 63 20.9 11.6 42.8 3.6 60.2-21.9 8.8-12.9 22.1-17.4 33-11.4 5.2 2.9 9.3 8 11.7 14.7 2.8 7.7 8.4 14.2 16 18.4 11.1 6.2 24.5 6.4 35.7.7 14.9-7.6 24.7-25.3 27.6-49.6 1.7-14.8 7.3-20.5 11.6-22.7 7.9-4.1 17.9 1.1 22.5 12.1 2.9 7 7 11.9 11.9 14.7 12.8 7.1 32.6-.5 48.2-18.4 17.1-19.3 29.3-52.2 7.9-80.8z"/><path fill="#603913" d="M1424.7 1419.6c10.7-20.8 12.3-28.9 6.1-32.3-4.9-2.7-10.5.7-19.4 11.6-22.4 27.5-74.5 95.7-73.9 134.7.2 9.9-.6 17.5-1.6 23v-4.2l.4-10.1c.8-18.6 1.2-26.3-4.5-29.4-6.9-3.8-13.7 4-22.7 15.6-6.3 8.1-32.7 31-45.1 40.2-4.1 3.1-7.5 5.3-10.2 6.8 2.5-3 6.1-7 11.7-12.3 72.5-70 126.2-147 133.3-160.3 1.9-3.5 10.7-21.3 1.4-26.5-2-1.1-4.2-1.2-6.7-.4 1.2-1.6 2.5-2.9 3.6-4.6 32.6-49.2 68.7-71.7 89.9-72.1 16-.3 22.8-2.7 24.2-8.4.6-2.2.5-6.6-6.2-10.3-3.3-1.8-8-3.4-12.7-4.2-12.7-2.2-92.2-7-177 4.5-3.1.4-5.8.7-8.2.9 1.3-.4 2.7-.8 4.2-1.2 12.6-3.4 41.5-8.9 50.2-8.8 14 .1 21-.9 22.9-6.6 1.2-3.6-.2-6.5-4-10.1 30.5 16.1 94.6 17 121 16.6 12-.2 17.4-2.2 18.6-7 .4-1.5.8-5.5-4.6-8.4-3.7-2-10.4-4-20.7-6-42.7-8.3-73.5-31.2-81.5-61.4-4.2-15.7-13.9-28.1-28.2-36-25.4-14-61.4-11.4-78.6 5.8-10.3 10.3-11.8 24.3-4.1 38.4 2.1 3.7 1.8 6.4 1.2 7-.7.7-4.1 1-10.3-2.5l-1.7-1c-1.4-.9-2.8-1.7-4.2-2.5-25.6-14.2-50.2-13-65.7 3.3-13 13.6-15.5 34.6-6 49.9 2.6 4.2 3.1 8.2 1.3 11.1-2.1 3.5-7.1 5.3-13.2 4.9-41-2.8-52.6 21-55.7 31.4-7.3 24.7 5.9 54.5 30 67.9 13.4 7.5 50 19.7 99.7-27 2.9-2.7 7.5-3.1 11.6-.8 4.2 2.3 6.7 6.9 6.8 12.5.2 13.9 12.6 30.8 29.4 40.1 14 7.8 32.3 10.3 49.2 1-9.1 10-85.7 41.9-132.3 30.8-31.4-7.5-60.3 4.8-73.5 31.5-12.8 25.9-5.6 55.2 18.2 74.7 5.9 4.8 8.4 11.5 6.7 17.9-1.4 5.1-5.1 8.7-9.7 9.4-59.5 8.8-83 34.4-92.2 55.4l-.3-.2c-2.5-1.7-6.8-2.4-19.8 3.2-29.7 12.7-97.6 43.9-124.5 75.3 4.5-7.7 3.8-12.2-.2-14.6-4-2.5-9.7-1.2-24.3 5.4-9.3 4.2-41.9 12.1-56.3 14.5-3.3.6-6.2.9-8.6 1.2 3.5-1.4 8.2-3.1 14.5-5 93.3-28 176.6-70.5 189.4-78.8 2.7-1.8 16.1-11 16-18.9 0-2.4-1.2-4.6-3.3-5.9-3.6-2.3-9.4-2.4-26 4.6-11.5 4.8-83.6-16-117.1-33.7-28.4-15-51-8-64.9.5-23.6 14.5-36 41.3-35.7 59.1 0 2.7.4 5.3 1 7.6 2.3 9.2-2.8 17.6-7.7 21-3.4 2.4-7.2 3.2-10 2.1-48.5-18.9-80-7.9-98 4.6-21.9 15.2-35.7 42.2-35.3 68.7.3 18.6 7.8 33.6 20.4 41.1 10 6 27.8 10 56-4.7 6-3.1 11.6-3.8 14.8-1.9 2.6 1.5 3.2 4.6 3.2 6.9 0 1.9-.3 4-.9 6.3-1.2 4.4-1.8 8.9-1.7 13.3.3 17.6 10.6 32.3 26.4 37.7 10.4 3.5 37.9 7.4 69.9-32.9 7.7-9.6 12.2-10.3 12.8-10 .2.1 1.4 3.4.4 8.1-5.8 25.3 7.8 41.7 32.9 41.5 35.3-.3 86.4-33 86.4-83.5 0-36.7 25.7-75 70.4-104.9 7.2-4.8 12-8.4 15.3-11.3-4.9 29.1 9.3 60 34.1 73.8 26 14.4 54 5 74.7-25.3 5.4-7.9 12.9-11.1 18.6-8 2.8 1.6 5.1 4.6 6.7 8.9 3.7 10.2 11.1 18.8 21 24.3 14.4 8 31.6 8.3 46 .9 18.3-9.3 30.2-30 33.6-58.1 1-8.9 3.6-13.2 5.7-14.2.3-.2 1.1-.6 2.5.2 1.8 1 3.6 3.3 4.9 6.3 3.9 9.3 9.6 16 16.8 20 17.6 9.8 42.5 1.5 61.8-20.8 21.3-24.4 32.1-63.1 8.4-94.8-22.4-30.8-21.5-75.1 2.8-122.1zm-67.5 227.5c-5-2.8-9-7.7-11.9-14.7-4.6-10.9-14.6-16.1-22.5-12.1-4.3 2.2-9.9 8-11.6 22.7-2.9 24.4-12.7 42-27.6 49.6-11.2 5.7-24.5 5.4-35.7-.7-7.6-4.2-13.2-10.7-16-18.4-2.5-6.8-6.5-11.8-11.7-14.7-10.9-6.1-24.2-1.5-33 11.4-17.4 25.5-39.4 33.4-60.2 21.9-20.7-11.5-32.9-38.5-28.5-63 3.4-18.7 19.3-51.5 87.6-61.7 8.9-1.3 16.2-8.1 18.7-17.3 2.9-10.6-1-21.9-10.3-29.4-24-19.5-23.2-45.2-15.3-61.2 8.2-16.6 29.1-33.3 61-25.6 50.7 12.1 132.7-21.5 143.7-34.8 3.8-4.6 6.6-7.5 8.6-9.4-.7 2.2-1.8 4.9-3.3 7.9-7 13-59.7 88.5-131.3 157.6-21 20.2-20.2 26.1-19.9 28.7.3 2.3 1.6 4.2 3.6 5.3 2.1 1.1 7.6 4.2 29.1-11.7 11.7-8.7 39.7-32.5 47.2-42.3 3.6-4.7 6.2-7.7 7.9-9.4.1 4.1-.2 10.3-.4 16l-.4 10.2c-.6 18.3 3.2 22.5 6.1 24.2 2.2 1.3 5 1.2 7.3-.2 7.9-4.8 10.5-25.9 10.2-42.5-.6-35 50.6-101.8 69.5-125.1-.9 1.8-1.9 3.9-3.1 6.3-26.3 50.9-26.9 99.4-1.7 133.2 21.4 28.6 9.2 61.5-7.8 81-15.7 17.7-35.5 25.3-48.3 18.2zm-49.9-296.1c-.2-9.6-4.8-17.8-12.5-22-8.3-4.6-18.1-3.6-24.5 2.4-42.8 40.2-72.7 33.2-86.8 25.4-19.4-10.8-30.5-35.5-24.8-55.2 5-16.8 20.7-25.1 44.3-23.5 10.4.7 19.2-3.1 23.4-10.2 4-6.6 3.5-14.8-1.4-22.6-6.9-11.1-5-26.5 4.6-36.5 12.5-13.2 33.6-12.9 56.1.9l2.1 1.2c13.9 7.7 21 3 23.4.7 4.6-4.6 4.9-12.5.7-20.1-5.4-9.9-4.7-18.5 2.2-25.3 12.3-12.2 42.9-16.5 65.5-4 11.6 6.4 19.4 16.5 22.8 29.2 5.8 22 21.3 40.5 44.8 53.5 12.6 7 27.2 12.2 43.3 15.5-29.4-.1-90.3-2.2-111.1-19.4-5.6-4.5-10.9-8.3-16-11.1-11.3-6.3-18.7-6.9-22-1.8-4.4 6.9 4.9 14.8 12.2 20.2l7 5.1c3.2 2.3 6.7 4.8 9.3 6.8-2 .1-4.7.2-8.3.1-10.6-.1-41.2 6-53.1 9.2-22.8 6.2-23.5 11.8-23.8 14.1-.3 2.9 1.1 5.6 3.9 7.1 1.6.9 6.4 3.6 28.2.6 83.5-11.3 161.2-6.8 173.5-4.6 1.1.2 2.1.5 3.2.7-1.8.2-4.1.3-6.8.4-29.5.6-68.4 30.8-98.9 77.1-21 31.7-46.8 22.1-56.9 16.5-13.1-7.1-23.5-20.5-23.6-30.4zM1066 1630.1c-47.9 32.1-75.3 73.7-75.3 114.1 0 43.2-45.4 72.3-75.4 72.5-10.5.1-23-3-23.2-18.6 0-2.8.3-6 1.1-9.5 2.3-10.2-.8-18.6-7.6-21-5.1-1.7-13.5-.7-24.9 13.6-19.2 24.1-40.8 35.1-57.8 29.3-14.2-4.8-22.1-21.4-17.6-37.6 3.2-11.5.4-21.1-7.2-25.6-6.7-4-16-3.4-25.6 1.6-18.7 9.8-34.4 11.5-45.2 5-9.3-5.5-14.8-17.1-15.1-31.8-.4-22.9 11.6-46.3 30.6-59.5 15.7-11 43.7-20.4 87.6-3.3 6.3 2.5 13.7 1.3 20.3-3.3 10.2-7.1 15.2-20.4 12.1-32.8-3.5-13.8 8-41.2 29.8-54.6 11.5-7.1 30.2-12.8 54-.2 29.4 15.6 108.2 41.8 126.5 34.1 3.5-1.5 6.3-2.5 8.5-3.3-1.5 1.3-3.4 2.7-5.5 4.1-12.6 8.2-94.3 49.9-186.6 77.5-27.5 8.3-31.3 13.9-31.2 18.8 0 2.1 1 3.9 2.6 5.3 1.6 1.3 5.8 4.8 27.6 1.2 13.6-2.2 47.8-10.2 59-15.3 3.8-1.7 6.7-2.9 8.9-3.8-2.3 3.6-5.5 8.1-8.4 12.4l-6 8.7c-9.5 13.8-9.5 18.7-9.4 20.2.1 4.1 2.7 6.3 5.1 7 10.8 3 28.4-23.4 33.5-31.6 18.2-29 85.8-61.4 116.6-75.1-.6.7-1.2 1.1-1.8 1.5z"/><path fill="#ABDFE7" d="M1654.9 1407.1c-35-20.2-57.3-64.8-61.2-122.3 0-.7-.1-1.5-.2-2.2-3.6 33.6-9.3 108.3 6.7 138.5 4.5 8.5 18.7 36.9 10.7 44.8-1.7 1.8-4.9 2.9-8.5.9-1.3-.8-5.6-3.1-12.8-18.3l-4.5-9.5c-2.2-4.7-4.6-9.7-6.5-13.5-.4 2.3-.8 5.4-1.2 9.6-1.2 12.2-11.4 45.8-16.2 58.7-7.8 20.7-12.9 22.6-14.8 23.3-2 .7-4.1.6-5.9-.4-4.3-2.4-7.3-8.4-.7-36.4 22.2-93.7 26.9-185.3 26.2-200.3-.2-2.5-.4-4.9-.8-6.8-.5 2.3-1 5.3-1.4 9-2.5 19.7-64.6 74.8-92.8 92.5-22.8 14.3-27.2 33.4-26.9 46.9.7 25.5 18.7 49.2 32.4 53.1 12.3 3.5 21.2 14.5 22.3 26.9.7 7.9-2 15-7.3 19.2-36.8 29.5-42.6 58.4-40.9 77.5 1.9 23.1 16.2 45.1 36.2 56.3 12.8 7.1 25.6 8.1 35.1 2.9 11-6.1 17.3-20.6 18.3-41.7.4-10.8 4.6-19.2 11.4-23 7.7-4.4 17.5-2 25.8 6.5 11.7 12 30 13.5 41.3 3.6 13.5-11.8 14.8-36 3.5-64.7-6.7-17-3.3-24.9.6-28.4 5.4-4.7 14.3-3.2 22 3.9 2.6 2.4 5.2 4.3 7.6 5.7 13.5 7.5 22.5-1.7 27.7-10.8 14.7-26 12.2-79.8-25.2-101.5z"/><path fill="#F7ADC2" d="M1387.9 1365.2c30.6-46.2 69.4-76.5 98.9-77.1 2.7-.1 5-.2 6.8-.4-1.1-.3-2.1-.5-3.2-.7-12.4-2.2-90.1-6.7-173.5 4.6-21.8 3-26.7.3-28.2-.6-2.8-1.5-4.2-4.2-3.9-7.1.3-2.4 1-8 23.8-14.1 11.9-3.2 42.6-9.3 53.1-9.2 3.6 0 6.3 0 8.3-.1-2.6-2.1-6.1-4.5-9.3-6.8l-7-5.1c-7.3-5.4-16.6-13.3-12.2-20.2 3.3-5.1 10.7-4.5 22 1.8 5.1 2.8 10.5 6.6 16 11.1 20.8 17.1 81.7 19.2 111.1 19.4-16.1-3.3-30.7-8.5-43.3-15.5-23.4-13-38.9-31.5-44.8-53.5-3.4-12.7-11.3-22.8-22.8-29.2-22.6-12.5-53.2-8.3-65.5 4-6.8 6.8-7.6 15.4-2.2 25.3 4.2 7.6 3.9 15.5-.7 20.1-2.4 2.4-9.5 7.1-23.4-.7l-2.1-1.2c-22.6-13.8-43.6-14.1-56.1-.9-9.6 10-11.5 25.4-4.6 36.5 4.9 7.8 5.4 16 1.4 22.6-4.2 7.1-13 11-23.4 10.2-23.6-1.6-39.4 6.8-44.3 23.5-5.8 19.6 5.3 44.4 24.8 55.2 14.1 7.8 44 14.8 86.8-25.4 6.4-6 16.2-7 24.5-2.4 7.6 4.2 12.3 12.5 12.5 22 .1 9.9 10.5 23.3 23.7 30.6 10 5.4 35.8 15 56.8-16.7z"/><path fill="#D2E069" d="M674 1638.9c25.4 5 60-.8 74-33.7 16.6-38.7 58.9-62.5 116.2-65.1 2.6-.1 5-.3 7-.4-29.6-4.7-113-15.6-143.1 2.4-14.3 8.5-33.8 16.9-41.9 12.4-2.4-1.3-3.8-3.7-3.9-6.3-.1-3.4 1.7-8.8 17.9-17.4l9-4.7c5-2.6 10.6-5.5 14.1-7.7-2.4-.6-6.2-1.3-12.2-2.1-12.2-1.7-46.8-14-60.2-19.8-24.6-10.6-24.7-17-24.7-19.3 0-2.3 1-4.4 2.8-5.8 2-1.5 6.7-5.2 34.8 2.9 95.6 27.4 187.3 35.3 202.1 34.9 3.3-.1 6.3-.6 8.5-1.1-2.6-.8-6.6-1.8-12.4-2.8-17-2.8-87.1-57.1-102-107-9.3-31.4-34.2-41.2-52.7-40-17.8 1.1-40.5 13.3-45.4 43.8-1.9 11.8-9.7 20.9-20.3 23.6-9.2 2.4-18.8-.5-24.4-7.5-42.9-54.1-79.3-51.4-97.2-45-23.4 8.4-40.7 32.5-40.3 56.2.4 23.8 18.3 38.9 49.1 41.3 15.5 1.2 26.1 10.4 26.4 22.9.1 6-2.3 12-6.9 17.5-5.3 6.2-8.1 14.4-7.9 23 .2 12.7 6.7 24.4 17.2 31.3 14.1 9.1 34.2 8.8 56.7-.9 13.7-5.9 21.5-4 25.5-1.3 7.5 4.8 8 16.1.8 25.6-4.6 6-6.8 12-6.7 17.7.3 14.5 16.8 27.9 40.1 32.4z"/><path fill="#603913" d="M758.2 1609.6c14.9-34.7 53.7-56 106.6-58.4 23.4-1.1 31.2-3.8 31.1-10.9-.1-5.6-5.8-8.7-19.8-11-35-5.7-120.2-16.7-153.6 3.4-8.5 5.1-15.5 8.2-20.7 10 1.1-.7 2.3-1.3 3.7-2.1l8.9-4.7c16.5-8.6 23.3-12.1 23.2-18.6-.1-7.9-10.4-9.9-24.8-11.9-10.1-1.4-43.1-12.8-57.3-18.9-4.7-2.1-8.4-3.9-11-5.4 3.8.6 9.1 1.8 16.5 3.9 96.9 27.8 190.4 35.8 205.5 35.3 4-.1 23.8-1.3 23.7-12 0-2.3-1-4.3-3-6 2 .3 3.7.7 5.8.8 58.9 3.6 96.4 23.6 107.5 41.8 8.3 13.7 13.8 18.4 19.4 16.8 2.2-.6 6-2.9 5.8-10.5-.1-3.8-1.1-8.6-2.7-13.2-4.4-12.1-40-83.3-92.4-151-1.9-2.5-3.6-4.7-4.9-6.6 1 .9 2 1.9 3.1 3 9.2 9.2 28.5 31.5 32.7 39 6.9 12.2 11.3 17.7 17.2 16.5 3.7-.8 5.5-3.4 6.7-8.5 1.3 34.5 32.6 90.4 46.1 113.1 6.2 10.3 10.6 14 15.4 12.6 1.6-.4 5.1-2.1 5-8.2-.1-4.2-1.8-11-5.2-20.9-14.2-41.1-9.7-79.3 12.4-101.3 11.5-11.4 17.4-26.1 17.1-42.4-.5-29-20.8-58.8-44.3-65.2-14.1-3.8-26.9 1.9-35.3 15.7-2.2 3.6-3.7 4.7-4.4 4.5-1-.3-2.1-3.1-2.1-10.2v-1.9c0-1.6-.9-3.2-.9-4.8-.5-29.3-14.4-50-36.2-55.3-18.3-4.4-38 3.9-46.4 19.8-2.3 4.4-5.6 6.7-9 6.7-4.1-.1-8.2-3.4-10.9-9-18.1-36.9-44.5-35-55-32.5-25 6-44.3 32.4-43.8 59.9.3 15.4 7.9 53.2 73.2 72.8 3.8 1.1 6.4 5 6.5 9.6.1 4.8-2.6 9.2-7.5 12.1-11.9 7.1-20.4 26.3-20 45.5.3 16.1 7.2 33.1 23.7 43.2-13.1-2.8-79.2-53.2-92.8-99.2-9.2-31-34.3-49.8-64-47.9-28.8 1.9-50.6 22.7-55.5 53.1-1.2 7.6-5.8 13.1-12.2 14.7-5.1 1.3-10.1-.1-13-3.7-37.4-47.1-71.3-54.7-94.1-52.1v-.4c.2-3-1.3-7-12.7-15.6-25.8-19.4-86.8-62.6-127.5-70.2 8.9 0 12.4-2.8 12.6-7.5.2-4.7-3.8-9-16.8-18.4-8.3-5.9-31.4-30.2-40.7-41.5-2.1-2.6-3.9-4.9-5.3-6.9 3 2.3 6.8 5.5 11.7 10.1 70.5 67.3 148.9 118.1 162.5 125 2.9 1.5 17.6 8.5 24.4 4.4 2.1-1.3 3.4-3.4 3.5-5.8.2-4.3-2.6-9.3-17-20.3-9.9-7.5-27.9-80.4-29.3-118.3-1.2-32.1-18.6-48.2-32.9-56-24.3-13.2-53.7-10.5-69-1.4-2.3 1.4-4.4 2.9-6.1 4.6-6.8 6.6-16.6 6.4-22 3.8-3.8-1.8-6.3-4.6-6.8-7.6-7.9-51.4-33.1-73.3-52.9-82.6-24.2-11.3-54.4-9.9-77.2 3.8-15.9 9.6-25.2 23.5-25.3 38.3-.2 11.6 5.3 29.1 32.1 46.1 5.7 3.6 9.1 8.1 9 11.9 0 3-2.4 5-4.4 6.2-1.6 1-3.6 1.7-5.9 2.3-4.5 1.1-8.6 2.9-12.4 5.2-15.1 9-22.7 25.4-19.4 41.7 2.1 10.7 12.6 36.5 63.5 44.1 12.2 1.8 15 5.4 15.1 6 0 .2-2.2 3-6.8 4.4-24.8 7.6-32.2 27.6-19.5 49.3 17.9 30.4 71.8 58.3 115.6 33 31.8-18.4 77.8-15.3 126.1 8.5 7.7 3.8 13.3 6.2 17.5 7.7-27.7 10.3-47.4 38.1-46.9 66.4.5 29.8 22.7 49.2 59.3 52.1 9.6.7 16.1 5.6 16.2 12.1 0 3.2-1.5 6.8-4.3 10.2-7 8.3-10.7 19-10.5 30.4.3 16.4 8.6 31.5 22.2 40.3 17.2 11.2 41.1 11.2 67.1 0 8.2-3.5 13.2-3.4 15.2-2.2.3.2 1 .6 1 2.2 0 2.1-1.1 4.7-3.1 7.4-6.1 8-9.1 16.3-8.9 24.5.3 20.2 20 37.5 48.9 43.1 31.5 6.5 70.5-3.5 86.1-39.9zm120.1-216.2c-.2-9.4-6-17.5-14.4-20-56.2-16.9-65.1-46.4-65.3-62.5-.4-22.2 15.5-44.2 35.4-49 17-4.1 32.1 5.4 42.5 26.6 4.6 9.4 12.3 15.1 20.6 15.2 7.7.1 14.5-4.4 18.8-12.5 6.2-11.5 20.4-17.5 33.9-14.3 17.7 4.3 27.9 22.6 27.3 49.1v2.4c.3 15.9 7.9 19.7 11.2 20.6 6.3 1.7 13.3-2 17.8-9.5 5.9-9.7 13.6-13.3 23-10.8 16.7 4.5 35.8 28.9 36.2 54.7.2 13.2-4.6 25.1-13.9 34.4-16.1 16.1-24.4 38.7-23.9 65.5.2 14.4 3 29.7 8.2 45.2-14.6-25.5-43.2-79.3-38.8-105.9 1.1-7.1 1.7-13.6 1.6-19.4-.2-13-3.4-19.7-9.5-19.9-8.1-.4-10.4 11.6-11.4 20.6l-.9 8.6c-.4 3.9-.8 8.2-1.3 11.4-1.1-1.7-2.5-4-4.3-7.1-5.2-9.2-25.8-32.7-34.6-41.4-16.7-16.7-21.9-14.5-24.2-13.5-2.7 1.2-4.2 3.7-4.2 6.9 0 1.8.1 7.3 13.6 24.7 51.5 66.7 86.5 136.2 90.7 148 .4 1 .7 2.1 1 3.1-1.1-1.5-2.3-3.4-3.7-5.7-15.3-25.3-60.9-43.8-116.2-47.1-37.9-2.3-42.5-29.5-42.7-41-.3-15.1 6.2-30.8 14.6-35.9 8.2-4.7 13-12.8 12.9-21.5zm-237.6 195.4c7.1-9.5 6.7-20.7-.8-25.6-4.1-2.6-11.8-4.6-25.5 1.3-22.5 9.7-42.7 10-56.7.9-10.5-6.8-17-18.5-17.2-31.3-.1-8.6 2.7-16.8 7.9-23 4.6-5.5 7-11.6 6.9-17.5-.2-12.5-10.8-21.7-26.4-22.9-30.8-2.3-48.7-17.4-49.1-41.3-.4-23.7 16.9-47.8 40.3-56.2 17.9-6.4 54.3-9.1 97.2 45 5.6 7 15.2 10 24.4 7.5 10.6-2.8 18.4-11.8 20.3-23.6 5-30.5 27.6-42.7 45.4-43.8 18.5-1.2 43.4 8.6 52.7 40 14.9 50 84.9 104.2 102 107 5.9 1 9.8 2 12.4 2.8-2.2.5-5.2 1-8.5 1.1-14.8.5-106.5-7.5-202.1-34.9-28-8.1-32.7-4.4-34.8-2.9-1.8 1.4-2.9 3.5-2.8 5.8 0 2.4.2 8.7 24.7 19.3 13.4 5.8 48 18.1 60.2 19.8 5.9.8 9.7 1.5 12.2 2.1-3.5 2.2-9.1 5-14.1 7.7l-9 4.7c-16.1 8.6-17.9 14-17.9 17.4 0 2.6 1.5 4.9 3.9 6.3 8.1 4.5 27.6-3.9 41.9-12.4 30-18 113.5-7.1 143.1-2.4-2 .2-4.4.3-7 .4-57.2 2.6-99.6 26.4-116.2 65.1-14.1 32.9-48.7 38.7-74 33.7-23.3-4.6-39.8-17.9-40.1-32.5-.1-5.6 2.1-11.6 6.7-17.6zM266 1308.5c-5.3-9-8.8-21.4 4.4-29.4 2.5-1.5 5.4-2.7 8.8-3.8 10-3.1 15.7-10 14.4-17.1-1-5.2-6.1-12.1-24.3-14.7-30.5-4.6-50.8-17.8-54.3-35.4-2.9-14.7 7.5-29.8 23.8-34 11.5-2.9 18.5-10.2 18.6-19.1.1-7.8-5-15.6-14.2-21.4-17.8-11.3-27.1-24-26.9-36.6.1-10.8 7.4-21.4 20-28.9 19.7-11.8 45.9-13.1 66.8-3.2 17.4 8.1 39.5 27.6 46.7 74.2 1 6.7 5.8 12.5 13 15.9 11.2 5.3 25.2 3 34.4-5.9 10.2-9.9 39.7-13.7 62.1-1.5 11.9 6.4 26.2 19.7 27.2 46.7 1.2 33.3 17.9 114.6 33.7 126.6 3 2.3 5.4 4.2 7.1 5.7-1.9-.7-4-1.6-6.3-2.7-13.4-6.8-90.4-56.8-160.4-122.8-20.9-19.7-27.7-20.1-31.9-17.6-1.8 1.1-2.9 2.8-3.3 4.9-.3 2-1.3 7.4 12.8 24.5 8.7 10.6 32.8 36.3 42.8 43.4 3.4 2.5 5.9 4.4 7.7 5.8-4.2-.2-9.8-.7-14.9-1.1l-10.5-.9c-16.7-1.3-20.9 1.2-22.2 2-3.5 2.1-4.1 5.5-3.5 7.8 2.8 10.9 34.5 12.9 44.1 13.2 34.2 1.2 96 43.6 123.3 63.5-.6-.3-1.3-.6-2-.9-51.7-25.4-101.5-28.4-136.5-8.2-37.4 21.6-85.2-3.2-100.5-29z"/><path fill="#ABDFE7" d="M951.1 1703.9c-5.1 8.2-22.6 34.6-33.5 31.6-2.4-.7-5-2.8-5.1-7 0-1.5-.1-6.4 9.4-20.2l6-8.7c3-4.2 6.2-8.8 8.4-12.4-2.2.8-5.1 2-8.9 3.8-11.2 5.1-45.4 13.1-59 15.3-21.8 3.6-26 .1-27.6-1.2-1.6-1.4-2.6-3.3-2.6-5.3-.1-4.9 3.7-10.5 31.2-18.8 92.3-27.6 174-69.3 186.6-77.5 2.1-1.4 4-2.8 5.5-4.1-2.2.8-5 1.8-8.5 3.3-18.3 7.7-97.1-18.5-126.5-34.1-23.8-12.6-42.5-6.8-54 .2-21.8 13.3-33.3 40.7-29.8 54.6 3.1 12.4-2 25.7-12.1 32.8-6.5 4.6-13.9 5.8-20.3 3.3-43.9-17.1-71.9-7.7-87.6 3.3-19 13.2-31 36.6-30.6 59.5.3 14.7 5.8 26.3 15.1 31.8 10.8 6.5 26.5 4.7 45.2-5 9.6-5 18.9-5.6 25.6-1.6 7.6 4.5 10.5 14.2 7.2 25.6-4.5 16.2 3.4 32.7 17.6 37.6 17 5.8 38.6-5.2 57.8-29.3 11.4-14.4 19.8-15.3 24.9-13.6 6.8 2.3 9.9 10.8 7.6 21-.8 3.4-1.2 6.6-1.1 9.5.3 15.5 12.8 18.6 23.2 18.6 30-.3 75.4-29.3 75.4-72.5 0-40.5 27.5-82.1 75.3-114.1l1.8-1.2c-30.8 13.5-98.4 45.8-116.6 74.8z"/><path fill="#F7ADC2" d="M850.8 1451c.2 11.5 4.7 38.7 42.7 41 55.3 3.4 100.9 21.9 116.2 47.1 1.4 2.4 2.7 4.2 3.7 5.7-.3-1-.6-2.1-1-3.1-4.2-11.8-39.2-81.3-90.7-148-13.5-17.4-13.5-22.9-13.6-24.7 0-3.2 1.5-5.8 4.2-6.9 2.2-.9 7.4-3.1 24.2 13.5 8.7 8.7 29.3 32.2 34.6 41.4 1.8 3.1 3.2 5.4 4.3 7.1.5-3.3.9-7.5 1.3-11.4l.9-8.6c1-9 3.2-21 11.4-20.6 6.1.3 9.2 7 9.5 19.9.1 5.8-.4 12.3-1.6 19.4-4.4 26.6 24.2 80.3 38.8 105.9-5.2-15.6-7.9-30.8-8.2-45.2-.5-26.8 7.8-49.4 23.9-65.5 9.3-9.3 14.1-21.2 13.9-34.4-.4-25.8-19.5-50.2-36.2-54.7-9.4-2.5-17.1 1.1-23 10.8-4.5 7.4-11.5 11.1-17.8 9.5-3.3-.9-10.9-4.7-11.2-20.6v-2.4c.6-26.5-9.6-44.8-27.3-49.1-13.4-3.3-27.7 2.7-33.9 14.3-4.3 8.1-11.2 12.6-18.8 12.5-8.3-.1-16-5.8-20.6-15.2-10.4-21.2-25.5-30.7-42.5-26.6-19.9 4.8-35.8 26.8-35.4 49 .3 16.1 9.1 45.5 65.3 62.5 8.4 2.5 14.2 10.5 14.4 20 .1 8.7-4.7 16.9-12.9 21.8-8.5 4.8-14.9 20.6-14.6 35.6z"/><path fill="#D2E069" d="M334 921.8c11.9 8.9 14.1 16.6 13.9 21.5-.4 8.9-9.9 14.9-21.7 13.5-7.5-.9-13.8.1-18.6 3-12.5 7.5-15.8 28.5-8.1 50.9 8.4 24.5 30.7 51.5 66.2 47.3 41.8-5 83.6 19.8 114.5 68 1.4 2.2 2.7 4.2 3.9 5.8-10.7-28-43-105.7-73.6-122.7-14.5-8.1-31.6-20.8-31.7-30.1 0-2.7 1.3-5.1 3.5-6.5 2.9-1.7 8.5-2.9 24 6.8l8.6 5.5c4.8 3.1 10 6.4 13.7 8.4-.7-2.4-2-6.1-4.2-11.6-4.7-11.4-11.3-47.6-13-62-3.1-26.6 2.3-29.9 4.4-31.1 2-1.2 4.3-1.3 6.4-.4 2.3 1 7.8 3.2 14.9 31.6 24.1 96.5 63.1 179.9 70.9 192.5 1.8 2.9 3.6 5.2 5.2 6.8-.6-2.7-1.8-6.6-3.8-12.2-6.1-16.2 5.8-104 41.7-141.8 22.6-23.8 18.6-50.3 8.3-65.6-9.9-14.9-31.8-28.4-60.7-17.4-11.2 4.3-22.9 2.1-30.6-5.8-6.7-6.8-9-16.6-5.7-24.9 25.4-64.2 4.9-94.4-9.6-106.7-19-16.1-48.6-19-68.8-6.8-20.4 12.3-24.5 35.3-11.2 63.1 6.7 14.1 4 27.8-6.7 34.3-5.1 3.1-11.5 4-18.6 2.8-8-1.5-16.5.2-23.9 4.7-10.9 6.6-17.8 18-18.5 30.5-1.1 16.6 9.3 34 28.9 48.6z"/><path fill="#603913" d="M335.5 944.7c-1.8 1.1-4.7 1.4-7.9 1-10-1.2-18.6.3-25.7 4.5-17.3 10.4-22.5 36-12.9 63.9 10.5 30.6 38.6 59.3 78 54.6 37.5-4.5 75.3 18.5 103.9 63.1 12.6 19.7 18.9 25.1 24.9 21.5 4.8-2.9 4.7-9.4-.3-22.6-12.6-33.2-45.6-112.4-79.7-131.4-8.7-4.8-14.8-9.3-19.1-12.9 1.1.6 2.3 1.3 3.6 2.2l8.6 5.4c15.7 10 22.2 14.1 27.8 10.8 6.7-4 3.4-13.9-2.1-27.4-3.9-9.5-10.5-43.8-12.3-59.1-.6-5.1-.8-9.2-.8-12.3 1.3 3.6 3 8.8 4.8 16.2 24.4 97.8 64.2 182.8 72.2 195.7 2.1 3.4 13 20 22.2 14.5 2-1.2 3.2-3 3.7-5.6.7 1.8 1.2 3.6 2.2 5.5 26.3 52.8 27.8 95.3 17.5 114-7.7 14-9.1 21.1-4.8 25.2 1.6 1.6 5.5 3.7 12-.2 3.3-2 6.9-5.2 10.1-8.9 8.3-9.9 52.2-76.4 84.6-155.5 1.2-2.9 2.3-5.4 3.3-7.6-.3 1.3-.6 2.7-1 4.2-3.3 12.6-13 40.4-17.4 47.9-7.1 12.1-9.7 18.6-5.7 23.1 2.5 2.8 5.7 3.1 10.7 1.6-29.2 18.3-62 73.5-74.9 96.5-5.9 10.5-6.8 16.2-3.2 19.6 1.1 1.1 4.3 3.4 9.6.2 3.6-2.2 8.7-7 15.5-14.9 28.5-32.8 63.8-48 94-39.9 15.7 4.2 31.3 2 45.3-6.4 24.8-14.9 40.6-47.4 34.3-71-3.8-14.1-15.1-22.4-31.2-22.7-4.3-.1-6.4-1.7-6.6-2.4-.3-1 1.2-4.1 7.3-7.7l1.7-1 4.2-2.4c25.1-15.1 36.4-37 30-58.6-5.3-18-22.2-30.7-40.2-30.1-4.9.2-8.6-1.4-10.3-4.4-2-3.6-1.1-8.8 2.4-13.9 22.9-34.1 8.1-56 .6-63.9-17.7-18.7-50.2-22.2-73.8-8-13.2 7.9-42.1 33.5-26.5 99.8.9 3.9-1.1 8.1-5.1 10.4-4.1 2.5-9.3 2.3-14.2-.4-12.1-6.8-32.9-4.5-49.4 5.4-13.8 8.3-25.1 22.8-25.5 42.1-4.1-12.8 6.5-95.1 39.5-129.9 22.2-23.5 26-54.6 9.5-79.4-16-24-45-32.5-73.8-21.5-7.2 2.7-14.2 1.5-18.9-3.2-3.7-3.8-5-8.8-3.3-13.1 22.1-56 11.7-89.1-1.9-107.5l.3-.2c2.7-1.4 5.5-4.6 7.2-18.8 3.9-32.1 10.8-106.5-3-145.5 4.4 7.7 8.7 9.3 12.8 7.2 4.2-2.2 5.9-7.8 7.5-23.8 1-10.1 10.4-42.3 15.6-56 1.2-3.2 2.3-5.8 3.3-8-.5 3.7-1.4 8.6-3 15.1-22.9 94.9-27.7 188.2-27 203.4.2 3.2 1.4 19.4 8.4 23.3 2.1 1.2 4.6 1.2 6.8.1 3.8-1.9 6.8-6.9 9-24.9 1.6-12.3 55.7-64.4 87.7-84.5 27.3-17.1 32.5-40.1 32-56.5-.7-27.7-17.7-51.8-33.3-60.5-2.4-1.3-4.7-2.3-7-2.9-9.2-2.6-13.8-11.2-14.3-17.2-.4-4.2.8-7.8 3.2-9.7 40.6-32.5 46.9-65.3 45-87.1-2.3-26.6-18.7-52.1-41.9-64.9-16.3-9-33-10.1-45.8-2.8-10.1 5.7-22.5 19.1-23.9 50.8-.3 6.8-2.4 11.9-5.8 13.8-2.6 1.5-5.6.4-7.6-.7-1.7-.9-3.3-2.2-5-3.9-3.2-3.3-6.8-6-10.7-8.2-15.3-8.5-33.3-6.9-45.8 4-8.3 7.2-25.3 29.2-6.5 77 4.5 11.5 2.9 15.7 2.3 16.1-.2.1-3.7-.5-7.1-3.7-19-17.6-40-14.1-52.4 7.8-17.4 30.7-14.6 91.3 29.2 116.6 31.8 18.4 52.1 59.7 55.7 113.4.6 8.6 1.3 14.6 2.1 19-22.8-18.8-56.7-22-81-7.4-25.5 15.3-31.3 44.2-15.5 77.4 4.2 8.6 3.2 16.7-2.4 20.1-2.8 1.7-6.6 2.1-11 1.4-10.7-1.9-21.9.3-31.5 6.1-14.1 8.5-23 23.2-23.8 39.4-1.1 20.5 10.9 41.2 33.5 58.1 7.2 5.4 9.6 9.7 9.5 12.1.1.3.1 1.1-1.3 1.9zm-12.2-102.1c7.4-4.5 15.9-6.1 23.9-4.7 7.1 1.2 13.5.3 18.6-2.8 10.7-6.4 13.4-20.2 6.7-34.3-13.3-27.8-9.3-50.8 11.2-63.1 20.3-12.2 49.9-9.3 68.8 6.8 14.5 12.3 35 42.4 9.6 106.7-3.3 8.3-1.1 18.1 5.7 24.9 7.7 7.8 19.4 10 30.6 5.8 28.9-11 50.8 2.5 60.7 17.4 10.3 15.4 14.3 41.9-8.3 65.6-35.9 37.8-47.8 125.7-41.7 141.8 2 5.6 3.2 9.5 3.8 12.2-1.6-1.7-3.4-4-5.2-6.8-7.8-12.6-46.8-96-70.9-192.5-7-28.3-12.5-30.6-14.9-31.6-2.1-.9-4.5-.7-6.4.4-2 1.2-7.5 4.5-4.4 31.1 1.7 14.5 8.3 50.6 13 62 2.2 5.5 3.5 9.2 4.2 11.6-3.6-2-8.9-5.3-13.7-8.4l-8.6-5.5c-15.5-9.7-21.1-8.5-24-6.8-2.2 1.3-3.5 3.8-3.5 6.5.1 9.3 17.2 22 31.7 30.1 30.6 17 62.9 94.7 73.6 122.7-1.2-1.7-2.5-3.6-3.9-5.8-30.9-48.2-72.6-73-114.5-68-35.5 4.2-57.9-22.8-66.2-47.3-7.7-22.5-4.4-43.4 8.1-50.9 4.9-2.9 11.2-3.9 18.6-3 11.8 1.4 21.3-4.6 21.7-13.5.3-4.8-2-12.5-13.9-21.5-19.7-14.6-30-32-29.2-48.7 1-12.4 7.9-23.8 18.8-30.4zm227.3 227.2c12.9-7.8 29.7-10.1 38.4-5.3 8.4 4.6 17.8 4.7 25.3.2 8.1-4.9 12.2-13.9 10.1-22.4-13.4-57.1 7.6-79.5 21.4-87.8 19-11.4 46-8.7 60.2 6.1 12 12.7 11.4 30.5-1.8 50.1-5.8 8.7-6.9 18.2-2.9 25.4 3.7 6.7 11.1 10.4 20.2 10.1 13.1-.4 25.4 8.9 29.3 22.2 5.1 17.4-5.6 35.5-28.8 48.2l-2.1 1.2c-13.7 8.2-13.1 16.7-12.3 20 1.7 6.3 8.4 10.4 17.1 10.6 11.3.3 18.3 5.2 20.8 14.5 4.5 16.7-7.1 45.4-29.3 58.7-11.3 6.8-24 8.6-36.7 5.2-22-5.9-45.7-1.8-68.7 12-12.4 7.4-24.2 17.4-35.1 29.7 14.8-25.4 47-77.1 72.3-86.5 6.7-2.6 12.6-5.4 17.6-8.3 11.1-6.7 15.3-12.8 12.6-18.2-3.8-7.2-15.2-3.2-23.6.5l-7.9 3.5c-3.6 1.6-7.5 3.4-10.5 4.6.9-1.8 2.2-4.2 4-7.3 5.3-9.1 15.4-38.7 18.5-50.6 6.1-22.8 1.5-26.2-.4-27.7-2.3-1.7-5.4-1.8-8.1-.2-1.6.9-6.3 3.8-14.6 24.1-32 77.9-74.8 143-82.8 152.6-.7.8-1.5 1.7-2.2 2.4.8-1.7 1.8-3.7 3.1-6.1 14.2-25.9 7.5-74.6-17.3-124.2-17-33.9 4.3-51.4 14.2-57.3zM381.7 492.1c5.2-9.1 14.1-18.3 27.6-10.8 2.5 1.4 5.1 3.3 7.7 5.7 7.7 7.1 16.5 8.6 22 3.9 4-3.5 7.4-11.3.6-28.4-11.3-28.7-10-52.9 3.5-64.7 11.3-9.9 29.6-8.4 41.3 3.6 8.3 8.5 18.1 10.9 25.9 6.5 6.8-3.8 10.9-12.1 11.4-22.9.9-21.1 7.2-35.5 18.3-41.7 9.4-5.3 22.2-4.2 35.1 2.9 20 11.1 34.3 33.2 36.2 56.3 1.7 19.1-4.1 48-40.9 77.5-5.3 4.2-8 11.3-7.2 19.2 1 12.4 10 23.3 22.3 26.9 13.7 3.9 31.7 27.6 32.4 53.1.3 13.5-4 32.5-26.8 46.9-28.2 17.7-90.3 72.8-92.8 92.5-.5 3.8-1 6.7-1.4 9.1-.4-2-.6-4.3-.8-6.8-.8-15 4-106.6 26.2-200.3 6.6-28 3.6-34-.7-36.4-1.8-1-3.9-1.1-5.9-.4-1.9.7-7.1 2.6-14.8 23.3-4.9 12.9-15 46.5-16.2 58.7-.4 4.2-.8 7.3-1.2 9.6-2-3.7-4.3-8.8-6.5-13.5l-4.5-9.5c-7.2-15.2-11.5-17.5-12.8-18.3-3.6-2-6.8-.8-8.5.9-8 7.9 6.1 36.3 10.7 44.8 16 30.2 10.3 105 6.7 138.5 0-.7-.1-1.4-.2-2.2-3.8-57.5-26.1-102.1-61.2-122.3-37.9-21.7-40.4-75.6-25.5-101.7z"/><path fill="#ABDFE7" d="M503.1 1345.7c.7.3 1.3.6 2 .9-27.3-19.9-89.1-62.2-123.3-63.5-9.7-.3-41.3-2.3-44.1-13.2-.6-2.4-.1-5.7 3.5-7.8 1.3-.8 5.5-3.3 22.2-2l10.5.9c5.2.4 10.7.9 14.9 1.1-1.8-1.5-4.3-3.4-7.7-5.8-10-7.1-34.1-32.8-42.8-43.4-14.1-17.1-13.1-22.5-12.8-24.5.4-2.1 1.5-3.9 3.3-4.9 4.2-2.5 11-2.1 31.9 17.6 70 66.1 147 116 160.4 122.8 2.2 1.1 4.4 2.1 6.3 2.7-1.7-1.6-4.1-3.5-7.1-5.7-15.8-12-32.5-93.3-33.7-126.6-1-27-15.3-40.2-27.2-46.7-22.4-12.2-51.9-8.4-62.1 1.5-9.2 8.9-23.2 11.1-34.4 5.9-7.2-3.4-12-9.2-13-15.9-7.2-46.6-29.3-66.1-46.7-74.2-20.9-9.9-47.2-8.6-66.8 3.2-12.6 7.5-19.9 18.1-20 28.9-.2 12.6 9.1 25.3 26.9 36.6 9.1 5.8 14.3 13.6 14.2 21.4-.1 8.9-7.1 16.2-18.6 19.1-16.3 4.2-26.7 19.3-23.8 34 3.5 17.6 23.8 30.8 54.3 35.4 18.1 2.7 23.2 9.5 24.3 14.7 1.4 7.1-4.4 14-14.4 17.1-3.4 1-6.3 2.3-8.8 3.8-13.3 8-9.7 20.4-4.4 29.4 15.2 25.9 63.1 50.6 100.5 29 35-20.2 84.8-17.2 136.5 8.2z"/><path fill="#F7ADC2" d="M536.4 1127.2c24.8 49.6 31.5 98.4 17.3 124.2-1.3 2.4-2.4 4.4-3.1 6.1.7-.8 1.5-1.6 2.2-2.4 8.1-9.6 50.9-74.6 82.8-152.6 8.4-20.3 13.1-23.2 14.6-24.1 2.7-1.6 5.8-1.5 8.1.2 1.9 1.4 6.4 4.9.4 27.7-3.2 11.9-13.2 41.5-18.5 50.6-1.8 3.1-3.1 5.5-4 7.3 3.1-1.2 7-3 10.5-4.6l7.9-3.5c8.3-3.7 19.8-7.7 23.6-.5 2.8 5.4-1.4 11.5-12.6 18.2-4.9 3-10.9 5.8-17.6 8.3-25.3 9.5-57.5 61.1-72.3 86.5 10.9-12.3 22.7-22.3 35.1-29.7 23-13.8 46.7-18 68.7-12 12.7 3.4 25.4 1.6 36.7-5.2 22.2-13.3 33.8-42 29.3-58.7-2.5-9.4-9.5-14.3-20.8-14.5-8.7-.2-15.4-4.4-17.1-10.6-.8-3.3-1.4-11.8 12.3-20l2.1-1.2c23.2-12.7 34-30.7 28.8-48.2-3.9-13.3-16.2-22.7-29.3-22.2-9.1.3-16.5-3.4-20.2-10.1-4-7.2-3-16.7 2.9-25.4 13.2-19.7 13.8-37.4 1.8-50.1-14.1-14.8-41.1-17.6-60.2-6.1-13.8 8.3-34.9 30.7-21.4 87.8 2 8.5-2.1 17.6-10.1 22.4-7.5 4.5-16.9 4.4-25.3-.2-8.6-4.8-25.5-2.5-38.4 5.3-9.9 5.8-31.2 23.3-14.2 57.3z"/><path fill="#D2E069" d="M648.4 453.1c25.3 33.7 24.7 82.3-1.7 133.2-1.2 2.3-2.2 4.4-3.1 6.3 18.8-23.3 70.1-90.1 69.5-125.1-.3-16.6 2.2-37.7 10.2-42.5 2.3-1.4 5.1-1.5 7.4-.2 2.9 1.6 6.8 5.9 6.1 24.2l-.4 10.2c-.3 5.7-.5 11.9-.4 16.1 1.7-1.8 4.3-4.7 7.9-9.4 7.5-9.7 35.6-33.6 47.2-42.3 21.5-16 27-12.9 29.1-11.7 2 1.1 3.3 3.1 3.6 5.3.3 2.5 1.1 8.4-19.9 28.6-71.6 69.1-124.3 144.6-131.3 157.6-1.6 3-2.7 5.7-3.3 7.9 2-1.9 4.8-4.8 8.6-9.4 10.9-13.3 93-46.9 143.7-34.8 31.9 7.7 52.8-9 61-25.6 7.9-16 8.7-41.7-15.3-61.3-9.3-7.5-13.3-18.8-10.3-29.4 2.5-9.2 9.9-16 18.7-17.3 68.3-10.2 84.2-43 87.6-61.7 4.4-24.5-7.8-51.5-28.5-63-20.8-11.6-42.8-3.6-60.3 21.9-8.8 12.9-22.1 17.4-33 11.4-5.2-2.9-9.3-8-11.7-14.7-2.8-7.7-8.4-14.2-16-18.4-11.2-6.2-24.5-6.4-35.7-.7-14.9 7.7-24.7 25.2-27.6 49.6-1.8 14.8-7.3 20.5-11.6 22.8-7.9 4-17.9-1.1-22.5-12.1-3-6.9-7-11.9-11.9-14.7-12.7-7.1-32.6.5-48.2 18.4-17.1 19.3-29.3 52.2-7.9 80.8z"/><path fill="#603913" d="M636.9 581.2c-10.8 20.8-12.3 28.9-6.2 32.4 4.9 2.7 10.5-.7 19.4-11.6 22.4-27.5 74.5-95.7 73.9-134.7-.2-9.9.6-17.5 1.7-23 0 1.3 0 2.7-.1 4.2l-.4 10.1c-.8 18.6-1.1 26.3 4.5 29.4 6.9 3.8 13.8-4.1 22.7-15.6 6.3-8.1 32.7-30.9 45.1-40.2 4.1-3.1 7.5-5.3 10.3-6.8-2.5 3-6.2 7-11.7 12.3-72.5 70-126.2 147-133.3 160.3-1.9 3.5-10.8 21.3-1.4 26.5 2 1.1 4.2 1.2 6.7.4-1.2 1.6-2.5 2.9-3.7 4.6-32.6 49.2-68.6 71.7-89.9 72.1-16 .3-22.8 2.7-24.3 8.4-.6 2.3-.5 6.6 6.1 10.3 3.3 1.8 8 3.4 12.8 4.2 12.7 2.2 92.2 7 176.9-4.5 3.1-.4 5.9-.7 8.2-.9-1.3.4-2.7.8-4.2 1.2-12.6 3.4-41.5 8.9-50.2 8.9-14-.1-21 .9-22.9 6.6-1.2 3.6.2 6.5 4 10.1-30.5-16.1-94.6-17-121-16.6-12 .2-17.4 2.2-18.6 7-.4 1.5-.7 5.5 4.6 8.4 3.7 2 10.4 4 20.7 6 42.7 8.3 73.5 31.2 81.5 61.4 4.2 15.7 13.9 28.1 28.1 36 25.4 14.1 61.4 11.4 78.6-5.8 10.3-10.3 11.8-24.3 4.1-38.4-2-3.7-1.7-6.4-1.2-6.9.7-.7 4.1-1 10.3 2.4l1.7 1c1.4.9 2.8 1.7 4.2 2.4 25.6 14.2 50.2 13 65.7-3.3 12.9-13.6 15.5-34.6 6-49.9-2.6-4.2-3.1-8.2-1.3-11.1 2.1-3.5 7.1-5.3 13.3-4.9 41 2.8 52.5-21 55.6-31.4 7.3-24.7-5.9-54.5-30-67.9-13.4-7.5-50-19.7-99.7 27-2.9 2.7-7.5 3-11.6.8-4.2-2.3-6.7-6.9-6.8-12.5-.2-13.9-12.6-30.8-29.4-40.1-14.1-7.8-32.3-10.3-49.3-1 9-9.9 85.6-42 132.3-30.8 31.4 7.5 60.3-4.8 73.5-31.5 12.8-25.9 5.7-55.2-18.2-74.6-6-4.8-8.4-11.5-6.7-17.9 1.4-5.1 5.1-8.7 9.7-9.4 59.5-8.8 83-34.4 92.2-55.4l.3.2c2.6 1.6 6.8 2.4 19.8-3.2 29.7-12.7 97.6-43.9 124.5-75.3-4.5 7.7-3.8 12.2.2 14.6 4 2.5 9.7 1.2 24.3-5.4 9.3-4.2 41.9-12.1 56.3-14.5 3.3-.6 6.2-.9 8.6-1.1-3.5 1.4-8.2 3.1-14.6 5-93.3 28-176.5 70.5-189.4 78.8-2.7 1.8-16.1 11-16 18.9 0 2.4 1.2 4.6 3.3 5.9 3.6 2.3 9.4 2.5 26-4.6 11.4-4.8 83.6 16 117.1 33.7 28.4 15 51 8 64.9-.5 23.6-14.5 36-41.3 35.7-59.1 0-2.7-.3-5.3-1-7.6-2.3-9.2 2.8-17.6 7.7-21 3.5-2.4 7.2-3.2 10-2.1 48.5 18.9 80 7.9 98-4.6 21.9-15.2 35.7-42.2 35.3-68.7-.3-18.6-7.8-33.6-20.5-41.1-10-6-27.8-9.9-55.9 4.7-6 3.1-11.6 3.8-14.8 1.9-2.6-1.5-3.2-4.6-3.2-6.9 0-1.9.3-4 .9-6.2 1.3-4.4 1.8-8.9 1.7-13.3-.3-17.6-10.6-32.3-26.4-37.7-10.4-3.5-37.9-7.4-70 32.9-7.7 9.6-12.1 10.3-12.7 10-.2-.1-1.4-3.4-.4-8.1 5.8-25.2-7.8-41.7-32.9-41.5-35.3.3-86.4 33-86.4 83.6 0 36.7-25.7 75-70.4 104.9-7.2 4.8-12 8.4-15.3 11.3 4.9-29.1-9.3-60-34.1-73.8-26-14.4-54-5-74.7 25.3-5.4 7.9-12.9 11.1-18.6 8-2.8-1.6-5.1-4.6-6.7-8.8-3.7-10.2-11.2-18.8-21-24.3-14.4-8-31.6-8.3-46-.9-18.3 9.3-30.2 30-33.6 58.1-1 8.9-3.6 13.2-5.7 14.2-.3.2-1.1.6-2.5-.2-1.8-1-3.6-3.3-4.9-6.3-3.9-9.3-9.6-16-16.8-20-17.6-9.8-42.5-1.5-61.8 20.8-21.3 24.4-32.1 63.1-8.3 94.8 23 30.3 22 74.5-2.3 121.5zm67.5-227.5c5 2.8 9 7.7 11.9 14.7 4.6 10.9 14.6 16.1 22.5 12.1 4.3-2.2 9.9-8 11.6-22.8 2.8-24.4 12.7-42 27.6-49.6 11.2-5.7 24.5-5.4 35.7.7 7.5 4.2 13.2 10.7 16 18.4 2.5 6.8 6.5 11.8 11.7 14.7 10.9 6.1 24.2 1.5 33-11.4 17.4-25.5 39.4-33.4 60.3-21.9 20.7 11.5 33 38.5 28.5 63-3.4 18.7-19.3 51.5-87.6 61.7-8.9 1.3-16.2 8.1-18.7 17.3-2.9 10.6 1.1 21.9 10.3 29.4 24 19.6 23.2 45.2 15.3 61.3-8.2 16.6-29.1 33.3-61 25.6-50.7-12.1-132.7 21.4-143.7 34.8-3.8 4.6-6.6 7.5-8.6 9.4.7-2.2 1.8-4.9 3.3-7.9 7-13 59.7-88.5 131.3-157.6 21-20.2 20.2-26.1 19.9-28.6-.3-2.3-1.6-4.2-3.6-5.3-2.1-1.1-7.6-4.2-29.1 11.7-11.7 8.7-39.7 32.5-47.2 42.3-3.6 4.7-6.2 7.7-7.9 9.4-.1-4.1.2-10.4.4-16.1l.4-10.2c.7-18.3-3.2-22.5-6.1-24.2-2.3-1.3-5-1.2-7.4.2-7.9 4.7-10.5 25.9-10.2 42.5.6 35-50.6 101.8-69.5 125.1.9-1.8 1.9-3.9 3.1-6.3 26.4-50.9 26.9-99.4 1.7-133.2-21.4-28.6-9.2-61.5 7.8-81 15.8-17.7 35.6-25.3 48.3-18.2zm50 296.1c.2 9.6 4.8 17.8 12.5 22 8.3 4.6 18.1 3.6 24.5-2.4 42.8-40.2 72.7-33.2 86.8-25.4 19.4 10.8 30.5 35.5 24.8 55.1-5 16.8-20.7 25.1-44.3 23.5-10.4-.7-19.2 3.1-23.4 10.2-3.9 6.6-3.4 14.8 1.4 22.6 6.9 11.1 5 26.5-4.6 36.5-12.5 13.2-33.6 12.9-56.1-.9l-2.1-1.2c-13.9-7.7-21-3-23.4-.7-4.6 4.6-4.9 12.5-.7 20.1 5.4 9.9 4.7 18.5-2.2 25.3-12.3 12.2-42.9 16.5-65.5 4-11.6-6.4-19.4-16.5-22.8-29.2-5.8-22-21.3-40.5-44.8-53.5-12.6-7-27.2-12.2-43.3-15.5 29.4.1 90.3 2.2 111.1 19.4 5.5 4.5 10.9 8.2 16 11.1 11.3 6.3 18.7 6.9 22 1.8 4.4-6.9-4.9-14.8-12.2-20.2l-7-5.1c-3.2-2.3-6.7-4.8-9.3-6.8 2-.1 4.7-.2 8.3-.1 10.6.1 41.2-6 53.1-9.2C776 725 776.7 719.4 777 717c.3-2.9-1.1-5.6-3.9-7.1-1.6-.9-6.5-3.6-28.2-.6-83.5 11.3-161.2 6.8-173.5 4.6-1.1-.2-2.1-.5-3.2-.7 1.8-.2 4.1-.3 6.9-.4 29.5-.6 68.3-30.8 98.9-77.1 21-31.7 46.8-22.1 56.9-16.5 12.9 7.3 23.3 20.7 23.5 30.6zm241.3-279.1c47.9-32.1 75.3-73.7 75.3-114.1 0-43.2 45.4-72.3 75.4-72.5 10.5-.1 23 3 23.2 18.5.1 2.9-.3 6-1.1 9.5-2.3 10.2.8 18.6 7.6 21 5.1 1.7 13.5.7 24.9-13.6 19.2-24.1 40.8-35.1 57.8-29.3 14.2 4.8 22.1 21.4 17.6 37.6-3.2 11.5-.4 21.1 7.3 25.7 6.7 4 16 3.4 25.6-1.6 18.7-9.8 34.4-11.5 45.2-5 9.3 5.5 14.8 17.1 15.1 31.8.4 22.9-11.6 46.3-30.6 59.5-15.7 11-43.6 20.4-87.6 3.3-6.3-2.5-13.7-1.3-20.3 3.3-10.2 7.1-15.2 20.3-12.1 32.7 3.5 13.8-8 41.2-29.8 54.6-11.5 7.1-30.2 12.8-54 .2-29.4-15.6-108.2-41.8-126.5-34.1-3.5 1.5-6.3 2.5-8.5 3.3 1.5-1.3 3.4-2.7 5.5-4.1 12.6-8.2 94.3-49.9 186.5-77.5 27.5-8.2 31.3-13.9 31.2-18.8 0-2.1-1-4-2.6-5.3-1.6-1.3-5.8-4.8-27.6-1.2-13.6 2.2-47.8 10.2-59 15.3-3.8 1.7-6.8 2.9-8.9 3.8 2.3-3.6 5.4-8.1 8.4-12.4l6-8.7c9.5-13.8 9.5-18.7 9.4-20.2 0-4.1-2.6-6.3-5-6.9-10.8-3-28.4 23.4-33.5 31.6-18.2 29-85.8 61.4-116.6 75 .5-.5 1.1-1 1.7-1.4z"/><path fill="#ABDFE7" d="M406.8 593.7c35 20.2 57.3 64.8 61.2 122.3 0 .7.1 1.5.2 2.2 3.6-33.6 9.3-108.3-6.7-138.5-4.5-8.5-18.7-36.9-10.7-44.8 1.7-1.7 4.9-2.9 8.5-.9 1.3.7 5.6 3.1 12.8 18.3l4.5 9.5c2.2 4.7 4.6 9.7 6.5 13.5.4-2.3.8-5.4 1.2-9.6 1.2-12.2 11.3-45.9 16.2-58.7 7.8-20.7 12.9-22.6 14.8-23.3 2-.7 4.1-.6 5.9.4 4.3 2.4 7.3 8.4.7 36.4-22.2 93.7-27 185.3-26.2 200.3.2 2.5.4 4.9.8 6.8.5-2.3 1-5.3 1.4-9.1 2.5-19.7 64.6-74.8 92.8-92.5 22.8-14.3 27.2-33.4 26.8-46.9-.7-25.5-18.6-49.2-32.4-53.1-12.3-3.6-21.2-14.5-22.3-26.9-.7-7.9 1.9-15 7.2-19.2 36.8-29.5 42.6-58.4 40.9-77.5-1.9-23.1-16.1-45.1-36.2-56.3-12.8-7.1-25.6-8.2-35.1-2.9-11 6.2-17.3 20.6-18.3 41.7-.5 10.8-4.6 19.1-11.4 22.9-7.8 4.4-17.5 2-25.9-6.5-11.7-12-30-13.5-41.3-3.6-13.5 11.9-14.8 36.1-3.5 64.7 6.7 17.1 3.3 24.8-.6 28.4-5.4 4.7-14.3 3.2-22-3.9-2.6-2.4-5.1-4.3-7.7-5.7-13.5-7.5-22.5 1.7-27.6 10.8-14.5 26.2-12 80.1 25.5 101.7z"/><path fill="#F7ADC2" d="M673.8 635.6c-30.6 46.2-69.4 76.5-98.9 77.1-2.7.1-5 .2-6.9.4 1.1.2 2.1.5 3.2.7 12.3 2.2 90.1 6.7 173.5-4.6 21.8-2.9 26.7-.3 28.2.6 2.8 1.5 4.2 4.2 3.9 7.1-.3 2.4-1 8-23.8 14.2-11.9 3.2-42.6 9.3-53.1 9.2-3.6 0-6.3 0-8.3.1 2.6 2.1 6 4.5 9.3 6.8l7 5.1c7.3 5.4 16.5 13.3 12.2 20.2-3.3 5.1-10.6 4.5-22-1.8-5.1-2.8-10.5-6.6-16-11.1-20.8-17.2-81.7-19.2-111.1-19.4 16.1 3.3 30.7 8.5 43.3 15.5 23.4 13 38.9 31.5 44.8 53.5 3.4 12.7 11.3 22.8 22.8 29.2 22.6 12.5 53.2 8.2 65.5-4 6.9-6.8 7.6-15.4 2.2-25.3-4.2-7.6-3.9-15.5.7-20.1 2.4-2.4 9.5-7.1 23.4.7l2.1 1.2c22.6 13.8 43.6 14.1 56.1.9 9.6-10 11.5-25.4 4.6-36.5-4.9-7.8-5.4-16-1.4-22.6 4.2-7.1 13-11 23.4-10.2 23.6 1.6 39.3-6.8 44.3-23.5 5.8-19.6-5.3-44.4-24.8-55.1-14-7.8-44-14.8-86.8 25.4-6.4 6-16.2 7-24.5 2.4-7.6-4.2-12.3-12.5-12.5-22-.1-9.9-10.5-23.3-23.7-30.6-10-5.5-35.7-15.2-56.7 16.5z"/></svg>