<svg xmlns:xlink="http://www.w3.org/1999/xlink"  xmlns="http://www.w3.org/2000/svg" viewBox="0 0 2000 2000"><path fill="none" d="M1021.4 370.4c-352.4 0-640.7 279.1-640.7 625.8S669 1622 1021.4 1622c352.4 0 640.7-279.1 640.7-625.8s-288.3-625.8-640.7-625.8zm.2 1225.3c-334.5 0-611.6-265.6-611.6-599.5 0-334 277.1-599.4 611.6-599.4s611.6 265.4 611.6 599.4c-.1 333.9-277.1 599.5-611.6 599.5z"/><path fill="none" d="M1021.6 434.4c-308.6 0-569.9 246-569.9 561.9s261.3 561.9 569.9 561.9c308.7 0 570.1-246 570.1-561.9-.1-315.9-261.4-561.9-570.1-561.9zm250.5 188c32.6 20.6 44.9 62.2 32.7 100.8 36.6-8.8 74.6 3.8 93.9 34.6 25.1 39.7 9.6 94.3-34.5 122.2-37.2 23.5-252.1 87.6-318.5 107.1-5.5 4.9-8.7 7.8-8.7 7.8s.6-2.1 1.7-5.7c-7.9 2.3-12.5 3.6-12.5 3.6s6.4-7.2 17-18.9c20-68 83.4-280.1 106.7-317 27.9-44.1 82.6-59.5 122.2-34.5zm-252.9-103.2c46.9 0 85 42.2 85 94.4 0 52.1-85 346-85 346s-85-293.9-85-346c0-52.1 38.1-94.4 85-94.4zM639.5 757.8c19.4-30.7 57.3-43.3 93.9-34.6-12.2-38.7 0-80.3 32.7-100.8 39.6-25.1 94.4-9.6 122.2 34.5 23.3 36.9 86.7 249 106.7 317 10.6 11.8 17 19 17 19s-4.5-1.3-12.5-3.6c1 3.6 1.7 5.7 1.7 5.7s-3.2-2.8-8.7-7.8C926.1 967.7 711.2 903.5 674 880c-44.1-27.8-59.6-82.5-34.5-122.2zm-103.2 253c0-46.9 42.2-85 94.4-85 52.1 0 346.1 85 346.1 85s-293.9 84.9-346.1 84.9c-52.2.1-94.4-38-94.4-84.9zm229.9 370.9c-27.5-17.3-40.5-49.5-36.7-82.4-35.4 6.9-71.3-5.9-90-35.5-25.1-39.6-9.6-94.4 34.5-122.2 32.8-20.7 204.1-73.1 289.5-98.6 22.7-20.5 37.7-33.8 37.7-33.8s-2.7 9.4-7.3 24.8c11.4-3.3 18.1-5.3 18.1-5.3s-9.5 10.6-24.7 27.5c-25.3 84.9-78.1 258-99 290.9-27.8 44.2-82.5 59.7-122.1 34.6zm252.9 103.2c-46.9 0-84.9-42.2-84.9-94.4 0-52.1 84.9-346 84.9-346s85 294 85 346c0 52.2-38.1 94.4-85 94.4zm379.7-221.1c-18.7 29.6-54.6 42.5-90 35.5 3.8 32.8-9.2 65.1-36.7 82.4-39.7 25.1-94.4 9.6-122.2-34.5-20.8-33-73.7-206-99-290.9-15.2-16.9-24.7-27.5-24.7-27.5s6.7 1.9 18.1 5.3c-4.6-15.5-7.3-24.9-7.3-24.9s15 13.3 37.7 33.9c85.4 25.4 256.7 77.8 289.5 98.5 44.2 27.8 59.7 82.5 34.6 122.2zm8.8-168c-52.1 0-346.1-85-346.1-85s293.9-85 346.1-85c52.2 0 94.4 38.1 94.4 85s-42.2 85-94.4 85z"/><path fill="#FEC12C" d="M1021.5 351.4C656.2 351.4 360 640.1 360 996c0 355.9 296.2 644.6 661.5 644.6 365.2 0 661.5-288.7 661.5-644.6-.1-355.9-296.3-644.6-661.5-644.6zm-.1 1270.7c-352.4 0-640.7-279.1-640.7-625.8S669 370.5 1021.4 370.5c352.4 0 640.7 279.1 640.7 625.8s-288.3 625.8-640.7 625.8z"/><path fill="#103F53" d="M1021.6 396.7C687.1 396.7 410 662.2 410 996.2c0 333.9 277.1 599.5 611.6 599.5s611.6-265.6 611.6-599.5c-.1-334-277.1-599.5-611.6-599.5zm0 1161.5c-308.6 0-569.9-246-569.9-561.9S713 434.4 1021.6 434.4c308.7 0 570.1 246 570.1 561.9-.1 315.8-261.4 561.9-570.1 561.9z"/><path fill="#FEC12C" d="M746 1795.8c19.8-3.2 38.8-15.7 49.2-37.9 3.6-7.6 5.2-15.6 5.2-23.5 0-4.4-.6-8.7-1.6-12.9-4.3-18.4-17.7-33.9-36.8-38.3-16.8-3.8-43.8 2-50.8 28-3.1 12 1.7 27.2 12 35.3 5.1 3.9 10.7 5.6 16.1 5.4 8.9-.2 17-5.4 20.2-13.7 3.1-7.3 1.5-14.4-4.6-18.5-2-1.3-4.7-2.2-7.6-2.1-.7 0-1.4.3-2.1.5-2.1.5-4.2 1.4-5.9 3.5-.9 1-1.4 2.3-1.9 3.5-1.6 4.4-.3 9.6 6 11.9.4.1.8.2 1.1.4.3.2.5.5.4.9-1.7 5-10.8 2.8-14.7-1.4-2.8-3.1-4.3-6.8-4.9-10.6-.5-3.2-.2-6.4.8-9.4 5-13.4 20.3-17.8 32-14 4.3 1.5 8.1 3.9 11.2 7 9.3 9.2 12.5 24.2 5.6 38-11.7 23.5-36.1 30.8-54.1 24.1-2.6-1-5-2.2-7.3-3.7-2.7-1.9-5.3-3.9-7.6-6-11.8-10.9-19.1-25.2-26.9-40.2-3-5.8-6.1-11.7-9.6-17.5-20.8-34.8-34.7-54.4-81.1-85.7l-8.3-5.7c-13.4-9.2-24.7-16-35.1-21.5-25.8-13.5-45.8-17.9-74.3-22.6-.9-.2-1.8-.2-2.7-.4-26.8-4.1-51.7-3-72.9-17.3-17.9-12.4-23.6-42.3-3.6-64.6 6.9-7.6 16-11.3 24.8-11.3s17.4 3.6 23.3 10.5c6.9 8.5 8.8 21.9 1.7 31.5-.9 1.2-1.8 2.3-3 3.4-.7.6-1.5 1-2.3 1.5-5 3.3-11.6 4.3-17.7 2-2.3-.9-4.6-2.8-6.2-5-1.2-1.6-2-3.4-2-5 0-1.2.4-2.3 1.5-3.1.6-.5 1.2.2 1.7 1 5.7 6.4 12.9 3.5 15.8-1.9 2.3-4.4 1.4-8.5-.7-11.6-.9-1.4-2-2.7-3.3-3.6-3-2.1-6.3-2.8-9.6-2.4-3.3.5-6.5 2.1-9.3 4.9-2.1 1.9-3.5 4.2-4.6 6.7-.3.6-.7 1.2-.9 1.8-.1.3-.1.5-.2.8-.4 1.4-.8 2.8-.9 4.2-.8 8.5 3.2 17.8 12.3 23.3 11.1 6.6 27.2 5.6 37.2-1.7 8.1-6 12.6-13.6 14.4-21.5 2.2-9.3.7-18.9-2.4-26.9-1.3-3.3-2.8-6.5-4.6-9.1-16-23.5-49.5-27.2-73-10.8-3 2.1-6 4.5-8.6 7.3-6.6 7-11.2 14.8-14.3 22.7-.3.7-.8 1.5-1 2.2-.7 2.1-1 4.2-1.5 6.3-.6 2.3-1.3 4.6-1.6 6.9-2.8 22.2 6.2 44.2 23.7 56.8 6.9 4.9 14.2 8.5 21.8 11.3 19.4 7.3 40.8 9.3 62.4 13.7 35.5 7.3 66.2 17.3 100 40.3l5.2 3.5 6.8 4.6c4.2 2.9 8.2 5.8 12.1 8.7h.1c.7.5 1.2 1 1.9 1.5 25.8 20.2 43.3 42.1 60.3 68.1 2.4 3.7 4.7 7.4 7 11.1 11.4 18.6 21.7 37.1 37.6 50.8l.6.6c.1.1.3.2.4.3 2.7 2.2 5.5 4.4 8.5 6.3 10.9 7 23.8 10 36.6 8.9 1.6.2 3.1-.3 4.6-.6z"/><path fill="#103F53" d="M797.3 1823.1c-1.5-4.1-2.7-8.4-3.6-12.7-.7-3.9-1.4-7.9-1.6-11.8h-.1c-8 7.3-18.2 12.7-28.4 16.3-.9.3-1.7.7-2.6 1 13.4 6 26.9 11.7 40.6 17.3-1.7-3.3-3.1-6.7-4.3-10.1z"/><path fill="#FEC12C" d="M294.7 1429.1c17.7 14.1 43.6 18.9 68.9 7.1 7.5-3.5 13.8-8.5 18.9-14.4.1-.1.2-.1.2-.2 2.3-2.8 4.3-5.8 6.1-9 .1-.2.3-.5.5-.7 9.1-17.1 9-38.2-3.1-54.2-3-3.9-7.1-7.6-11.9-10.8-12.2-8-29.2-11.5-45-.5-7.4 5.2-12.6 14.6-13.7 24.3-.4 3.5-.4 7.1.3 10.5 2.8 12.5 13.1 19.7 23.2 19.6 3.4 0 6.8-.9 9.9-2.6 5.3-2.6 8.5-7 8.9-12 .1-1.7 0-3.4-.5-5.1-.3-1.2-.9-2.3-1.6-3.5-2.2-3.3-6.2-6-11.5-5.1-1 .2-1.9.5-2.7.9-4 1.8-6.7 5.8-5.2 10.8.1.4.4.8.5 1.2l.6 1.5c.6.7 1 1.5.4 2-4.5 2.8-10-4.8-10.3-10.5-.3-7.6 3.8-14.5 9.7-17.9 12.4-7.1 27-.6 33.5 9.8 3.5 5.9 4.8 12.6 4 19.1-1.3 10.8-8.3 21.1-20.1 26.2-1.6.7-3.1 1-4.6 1.5-25.8 8.5-49.7-5.6-55.5-25.3-7.2-25.5 2.6-52.6 7.1-80.2 0-.1-2.9-3.6-2.9-3.6H296v6.5c0-.7 3.1-1.3 3.2-2 6.2-38.8 9.2-62.8-6-115.7l-2-9.7c-4.1-14.9-7.8-27-12.1-37.5-9.7-24.2-20.5-39.8-35.6-58-2.3-2.8-4.6-5.6-7.1-8.6-18.4-21.5-39.3-36.7-46.4-62.1-5.7-21.1 9.1-47.6 38.8-51.8 15.3-2 28.6 5.8 34.4 17.5 1.9 3.9 3 8.3 3.1 12.9 0 3.8-1.1 7.7-2.7 11.3-3 6.5-8.4 11.9-15.6 13.8-1.6.4-3.3.7-5.1.7-4.1.1-8.1-1.3-11.6-3.7-2.4-1.7-4.5-3.8-6-6.5-2.8-5.1-2-14.5 3.3-14.3.8 0 .8.9.7 1.8.3 8.5 7.6 11 13.3 8.7 5-2 7-6.3 7.1-10.3 0-1.3-.1-2.7-.4-3.9-1.2-4.5-4.3-7.4-8.3-9-2.3-.9-4.9-1.5-7.8-1.2-1.8.1-3.5.4-5.1.9-6.5 2-11.8 7.2-14.2 14-1.8 5-2 10.9 0 17 4.3 12.2 17.2 21.8 29.6 22.6 26.9 1.6 41-22.1 42.7-39.3.4-4 .3-7.9-.3-11.7-4.1-26.5-30.7-46.9-59.9-43.5-42 4.8-65.5 42.7-57 76.2 1.9 7.3 4.7 14 8.1 20.4 10.2 19.1 26.1 34.8 40.4 52.9 22.5 28.4 39.6 55.8 50.7 95.2l4 13.9c7 24.7 9.5 46.5 9.3 68.2 0 .9-.1 1.7-.1 2.6-.2 12.2-1.2 24.3-2.7 36.9-.2 2-.6 4.1-.8 6.1-3.3 23.6-8.3 46-5 68.5.1.8.1 1.6.3 2.3.1.3.2.7.2 1 .6 3.3 1.3 6.5 2.3 9.8.6 2.1 1.4 4.1 2.3 6 .1.2.2.3.2.5 2.6 5.7 6 10.9 10.2 15.4 1.7 2.4 4 4.4 6.3 6.3z"/><path fill="#103F53" d="M295 1036h1v3.4c-15 12.6-25.3 23.4-45.7 24.5 1.4 1.5 2.3 3 3.7 4.6 27.9 32.7 43.6 54.8 59.8 112.6l2.5 9.6c16.5 57.7 14.5 84.9 7.7 127.5-.3 2-.7 4-1 6 .9-.5.6-.8 1.4-1.2 16.8-8.1 31.6-6 46.6-.7v.9h2.7C337.1 1232 310.9 1142 295 1036zM327.7 1465.1c-4.2-.3-8.3-.9-12.3-1.8-5.2-1.1-10.3-2.7-15.1-4.7 6.4 13.2 13.1 26.3 19.9 39.3.6-2.9 1.6-5.7 2.6-8.5 1.5-4.3 3.2-8.5 5.4-12.5.2-.5.4-1 .7-1.4.5-.9 1.1-1.9 1.6-2.7 1.5-2.6 3.1-4.7 4.8-7.7v.2c-2.5-.1-5 0-7.6-.2z"/><path fill="#FEC12C" d="M194.1 870.7c.9 2.6 1.7 5.2 2.9 7.6.3.7.9 1.3 1.2 1.9 8.1 14.7 22.1 26.9 41.7 32.1 4.1 1.1 8.1 1.7 12.1 1.9 8.1.3 15.9-1.1 23.1-4 17.9-7.2 31.5-23.5 32.5-43.5.3-6.5-1-14.3-4.1-21.5-5.2-11.9-15.5-22.2-32.3-24.2-9.2 0-19.5 3.5-26.7 10.4-2.4 2.3-4.4 5.1-5.9 7.9-3.5 6.7-3.7 13.7-1.7 19.6 2.5 7.4 8.4 13.3 16.1 14.8 6 1.4 11.3-.1 14.8-3.9 1-1.1 1.9-2.3 2.6-3.8.5-1.1.8-2.4 1-3.7.4-4-1.6-8.6-6.3-11.2-5.3-3-15.2-1.7-15.2 6.7V854h.9s.1 3.7-.7 3.6c-5.2-.8-4.5-9.2-1-13.7 1.2-1.5 2.6-2.3 4-3.4 2.9-2.2 6.4-3.2 9.8-3.5 1.7-.2 3.5 0 5.2.3 14 2.6 21.1 17 19.4 29.2-1.2 7.6-5.4 14.1-11.1 18.7-7.9 6.3-18.9 9.1-30.3 5.7-28.8-8.5-39.5-36.9-30.7-56.9 1.4-3 2.9-5.9 4.6-8.5 12-18.8 31.9-29.9 50.6-46 8.7-7.5 16.2-14.3 23.1-21.3 17.5-17.7 30.8-36.8 47.1-73.5l4.1-9.1c13.8-30.2 20.6-50.8 23.3-71.1 1.8-13.9 2.7-27.6 2.7-44v-.4c0-28.3-7.3-53.4 3.6-77.5 5.7-12.4 18.6-21.2 33.9-22.3 6.1-.4 12.4.4 18.9 2.8 3.2 1.2 6.4 2.7 9.6 4.7 17.4 11 20.7 33.2 9.1 47.3-3 3.5-7.1 6.3-11.5 7.9-4.7 1.7-9.8 2.1-14.7.9-2.9-.7-5.8-2-8.4-4.1-2.7-2.1-4.8-5.1-6-8.4v-.1c-1.2-3.3-1.6-7-.9-10.7 1-5 6.2-10.7 10.1-9.8.6.1 1.1.4 1.6.9.6.5 0 1.2-.6 1.9-5.3 6.7-1.3 13.3 4.6 15.3 4.9 1.6 9-.2 11.8-3.1 1-1.1 1.9-2.3 2.5-3.5 1.3-2.8 1.4-5.5.9-8.2-.7-3.7-2.9-7.3-6.6-10-11.2-8.5-29.2-3.9-35.3 12-1.1 2.8-1.6 5.9-1.8 8.9-.4 6.8 1.1 13.9 4.2 19.8 1.5 2.9 3.4 5.4 5.7 7.6 3.7 3.5 7.6 5.7 11.6 7.4 17.3 7.3 36.3-.3 46.4-10.1 5.5-5.4 9.3-11.8 11.6-18.6 2.5-7.3 3.2-15.1 2.2-22.8-1.1-9.1-4.7-17.9-10.3-25.6-3.8-5.3-8.4-10.2-14.2-14-8-5.3-16.3-8.6-24.6-10.2-11.5-2.3-22.8-1.5-33.1 1.9-15.2 5.1-28 15.7-34.9 30-5.3 11.1-7.7 22.5-8.9 34.2-1.7 17.1-.6 34.8-1.1 53-1 36.3-5.5 68.2-22.4 105.5l-5.9 13.2c-2.1 4.7-4.3 9.2-6.5 13.5-11.5 22-24.7 39.4-40.1 55.7-5.6 5.9-11.5 11.8-17.7 17.6-2.1 2-4.3 3.9-6.5 5.9-16.6 14.8-33.4 28.1-44.9 45.9-2.7 4.2-5.3 8.7-7.3 13.5-5 12-5.7 25.2-2.4 37.6.2 1.8 1 3.2 1.5 4.7z"/><path fill="#103F53" d="M167 931.7c2-1.8 5.1-3.4 7.8-5 1.1-.6 2.1-1.3 3.2-1.9 3.2-1.7 6.6-3.3 10.1-4.7 3.7-1.4 7.5-2.6 11.4-3.6-2.6-2.1-4.6-4.6-6.9-7-3-3.1-5.9-6.3-8.4-9.8-2.6-3.6-5.1-7.1-7.1-10.9-3.6 14.2-7 28.5-10.1 42.9z"/><path fill="#FEC12C" d="M469.3 394.7c.4 12.3 4.3 25 12.6 36.8 2.9 4.1 6.3 7.6 10 10.6 11.7 9.7 26.7 14.3 41 12.8 11.3-1.2 22.1-6.1 30.3-14.9 3.4-3.7 6.5-8.6 8.7-14.1 5.5-13.3 5.9-30.4-7.6-43.9-.6-.6-1.5-1-2.3-1.6-6.5-5.3-15.5-8.3-24.3-7.7-3.4.2-6.8.9-10 2.2-13.8 5.7-18.7 20.2-13.7 31.1.7 1.6 1.6 3 2.7 4.4 2.4 3.2 5.3 5.3 8.5 6.2 3.2.9 6.6.7 9.8-.9 1.1-.5 2.2-1.3 3.1-2.2 1.9-1.8 3.4-4.4 3.7-7.4.1-1.5-.1-3.1-.7-4.8-.8-2.1-2.2-3.9-3.9-5.2-1.9-1.3-4.1-2-6.6-1.5-1.6.3-3.2 1.1-4.9 2.5-.6.7-1.3 1.2-1.9.7-3.5-3.9 2.9-10.7 8.6-12 4.9-1.1 9.7-.1 13.8 2.1 2.1 1.1 4 2.5 5.5 4.3 9.1 11 5.3 26.5-3.9 34.7-5.2 4.5-11.5 6.9-18.1 7.3-10.9.6-22.2-4.5-29.3-15.2-6.2-9.4-8.7-19.3-8.3-28.5 0-.9.3-1.8.4-2.7.2-2.1.4-4.2.9-6.2.1-.5.4-.9.5-1.4 3.1-10.8 10.2-19.9 19.5-24.5 3.2-1.5 6.4-2.7 9.7-3.7 21.1-6.4 43.2-2.2 67.7-2.6 5.6-.1 10.8-.2 15.9-.4 31.7-1.3 55.4-5.8 98.8-27l9.1-4.3c50.7-24.1 67.1-41.3 92.9-72.7 1.3-1.5 2.5-3.1 3.7-4.7 15.9-20.4 27.3-41.2 49.5-51.9 4.9-2.3 10.4-3.4 16-3.4 13.1.2 26.7 7 35.4 20.1 2.5 3.7 4.7 7.8 6.3 12.5 6.3 19.6-5.4 38.8-23.4 42.1-12.1 2-26.6-4.6-29.5-18.6-.1-.4 0-.8-.1-1.1-.5-3.7.1-7.6 1.8-11.1 1.2-2.6 2.9-5 5.2-6.9 2.2-1.8 5.7-3 8.7-3 3 0 5.6 1.1 5.9 3.7.2.8-.7 1-1.7 1-8.4 1.8-9.5 9.4-6.3 14.6 2.9 4.5 7.4 5.8 11.4 5.2 1.3-.2 2.6-.6 3.7-1.1 3.3-1.5 5.6-4 6.8-7.1 1.2-3.1 1.4-6.7.4-10.5-3.1-13.8-19.8-21.7-34.8-13.5-5.3 3-9.5 7.8-12.5 13.2-.2.4-.6.7-.8 1.1-.6 1.2-.8 2.5-1.3 3.7-.7 1.9-1.6 3.7-2 5.6-.7 3.2-.9 6.4-.5 9.4 1.9 16.8 12.7 27 24.8 31.9 7.2 2.9 14.8 3.7 21.3 3.7h5.2v-.4c30-2.4 50.9-36.7 41.3-68.9-1.5-5.1-4.8-9.7-7.1-14-7-12.9-18.1-22.3-30-27.9-15.8-7.5-34.3-8.1-50.1-1-3.4 1.6-6.9 3.3-10 5.3-21.7 13.5-36.2 35.1-54 55.2-24 27.1-48.1 48.7-85 66.4l-13.1 6.3c-12.2 5.9-23.7 10.3-35.1 13.8-23.2 7.1-45.6 10-69.9 11.3-30.7 1.6-60.1-1.5-87 12.3-4.9 2.5-9.4 5.8-13.3 9.6-.8.8-1.6 1.5-2.3 2.3-10.4 11.7-16.4 27.7-15.8 44.5z"/><path fill="#103F53" d="M593.6 389.4c.1.3.8.6.9.9.1.4.5-1.6.6-1.2 3 10 3.2 26.9 1.5 26.9h.1C679.6 370 765 324.2 855 291.8v3.2h5.5c-14.1 0-27.3-20.4-31.9-40.3-1.2 1.6-2.5 3-3.8 4.6-27.4 33.1-46.4 52.6-100.5 78.6l-9 4.2c-53.5 26-80.6 28.1-122.9 28.8-.4 0-.8-.9-1.2-.9h-.1c-2 0-8.1 1.1-8.1 1.1V371.7c0 5.6 8.6 11.7 10.6 17.7zM553 307.3c0-.2 7.3-1.5 11.1-1.6 1.3 0 2.5-.7 3.8-.7 6.7-.1 12.8-.5 19.2-.9 34.3-1.9 62.9-7 96.4-23l13-6.4c10-4.8 18.9-10.1 27.2-15.6 19.3-12.8 34.8-27.7 50.8-45.7 3.4-3.9 13.9-15.6 19.3-22.1 1.1-1.3 2.1-2.4 2.7-2.4v1.7c-85 31.6-166.8 73.4-244.4 119.4h.9v-2.7zM437.1 404.1c3.7 1.3 7.5 3 11 4.8v.1c-1.3-7-1.6-14.5-1.2-21.5.3-4.8.9-9.7 1.9-14.4-11.9 8.6-23.6 17.4-35.2 26.4 4.2.2 8.5.8 12.7 1.7 3.7.7 7.3 1.7 10.8 2.9zM494.9 491.7c6.7-5.1 13.4-10.1 20.1-15.1-4.4-.7-8.6-1.8-12.8-3.3-2.5-.8-5.2-1.8-7.2-2.9h-.2c1.1 7.2 1 14.3.1 21.3z"/><path fill="#FEC12C" d="M1033 277.5c17.1-2.2 40.5-16.8 38.2-43.7-1.2-12.3-10.9-25-23.4-29-16.3-5.1-31.1 6-31.3 20.2-.5 7.9 3.6 14 10.7 15.8 4.7 1.1 11.5-.4 13.9-7.1 2-5.8-.6-13.1-9.1-13.1-.9.1-1.8.1-1.9-.7-.2-5.3 9.1-6.3 14.3-3.7 6.8 3.6 10.6 10.5 10.7 17.4-.1 14.3-13 23.7-25.3 24.1-18.3.3-33.5-16.1-31.2-36.5 3.4-29.9 29.5-45.3 50.7-40.2 25.7 6.5 41.5 27.1 63.3 44.9 31.5 25.6 51.1 39.2 105.5 52.7l9.7 2.5c54.3 14.1 78 11.5 117.9 4 27.8-5.2 51.4-15.7 77.1-9.2 21.1 5.5 36.6 31.7 25.5 59.5-7.8 19.1-29.1 26.2-45 17.2-10.6-6.3-17.4-20.7-10.7-33.3 3.3-6.1 10-10.3 17.7-10.2 5.8.1 13.6 5.5 10.8 10-.4.7-1.2.3-2-.3-7.5-4-13.3 1.1-14.2 7.2-1 7.1 4.2 11.6 8.9 12.9 7.1 1.9 13.4-1.7 16.9-8.8 6.4-12.6-1.2-29.4-18-32.7-12.7-2.4-27.5 4-34.4 14.3-14.9 22.5-1.3 46.6 12.7 56.6 26.1 18.7 64.6 6.3 77.9-24.6 16.8-38.7-4.2-78.1-37.4-87.5-29.1-8.1-57.3.8-87.7 5.3-35.9 5.3-68.1 6.4-107.8-3.7l-14.1-3.6c-39.8-10.1-67.5-26.4-96.6-48.3-24.5-18.5-45.1-39.7-74.5-46.5-33.7-7.6-71 16.9-74.6 59-2.9 33.7 24.9 63 56.8 59.1z"/><path fill="#103F53" d="M1349.8 307.2c-42.3 7.8-69.4 10.5-127.5-4.3l-9.6-2.5c-58.2-14.6-80.8-29.8-114.2-57-1.6-1.3-3.1-2.6-4.7-3.8-.5 20-10.6 35.2-22.7 45.1 96.8 13.6 192 37.9 283.6 72.5-6.2-14.5-8-32.9 1.2-51.1-2.1.3-4.1.7-6.1 1.1zM1138.9 188.4c27.5 20.6 52.6 35.3 88.5 44.5l14 3.5c35.9 9.1 65 8.3 99 3.2 6.2-.9 28.6-5 33.7-5.8-85.3-30.5-173.2-53-262.6-67 4.3 3.3 8.3 6.6 12.2 9.7 5.2 4.2 10.1 8.1 15.2 11.9zM965.1 179.5c6.1-10.6 14.1-19.8 23.5-26.9-14.6-1.1-29.3-1.8-44-2.4 5.8 5.4 10.9 11.7 15.1 18.7 1.9 3.5 3.8 7 5.4 10.6zM961 256.7c-3.8 6.2-8.3 11.7-13.4 16.5 8.4.4 16.7.9 25.1 1.4-2.9-3.4-5.6-7.1-7.8-10.9-1.5-2.3-2.8-4.5-3.9-7z"/><path fill="#FEC12C" d="M1497.4 454.9c14.5 9.4 41.8 13.1 57.3-8.9 7-10.2 7.7-26.2.7-37.2-9.2-14.4-27.7-15.3-36.9-4.7-5.4 5.7-6.3 13.1-2 18.9 2.9 3.9 9 7.1 15.2 3.5 5.3-3.1 8-10.4 1.4-15.9-.8-.5-1.4-1-1-1.7 3.3-4.1 11.1 1 13.3 6.4 2.9 7.1 1.4 14.9-3 20.2-9.2 10.9-25.2 9.8-34.9 2.2-14.2-11.5-15.3-33.9-.4-48 21.8-20.7 51.8-15.7 64.7 1.8 15.5 21.5 14.4 47.4 19.6 75.1 7.7 39.8 14 62.9 47 108.2l5.8 8.2c32.5 45.8 52.4 58.9 87.7 78.9 24.6 13.9 49.5 21 64.9 42.5 12.6 17.8 7.7 47.8-18.7 62-18.3 9.6-39.1 1.4-45.5-15.8-4.1-11.6-.1-27 13.2-32.3 6.4-2.6 14.3-1.4 20 3.6 4.4 3.8 6.9 12.9 1.8 14.6-.7.3-1.1-.6-1.3-1.5-3.2-7.9-10.9-7.8-15.5-3.7-5.3 4.8-4.3 11.6-1.4 15.6 4.2 6 11.4 7.4 18.6 4.1 13-5.5 18-23.3 7.2-36.6-8.2-10-23.7-14.6-35.5-11.1-25.8 7.7-31 34.8-26.7 51.5 7.9 31.1 45.4 46.3 75.5 31.3 37.8-18.9 47-62.5 27.6-91.1-17.1-24.9-44.4-36.2-70.6-52.3-30.9-19-56.3-38.9-80.2-72.1l-8.5-11.8c-24-33.3-34.7-63.6-42.9-99-6.9-29.9-9-59.4-27.2-83.5-20.9-27.5-65.2-32.7-95.1-2.8-23.6 23.6-21.1 64 5.8 81.4z"/><path fill="#103F53" d="M1726.4 684.2c-1.8-.9-3.6-1.9-5.4-2.9-37.4-21.3-59.9-36.5-94.9-85.3l-5.8-8.1c-35.2-48.6-42.7-74.8-50.8-117.1-.4-2-.7-4-1.1-6-13.3 15-30.7 20.2-46.4 20 65.4 72.6 122.7 152.4 170.6 237.8 4.7-15.1 15-30.4 33.8-38.4zM1635.8 454.8c7.8 33.5 17.6 60.9 39.2 91l8.5 11.7c21.7 30 44.4 48.1 73.8 66.1 5.3 3.3 25.1 14.5 29.6 17.2-45.7-78.2-98.6-151.9-158.1-220.2 1.1 5.3 2.1 10.4 3.1 15.3 1.3 6.6 2.5 12.7 3.9 18.9zM1511.4 300.7c1 7.9.8 16-.5 24-.6 3.9-1.5 7.8-2.6 11.6 11.5-4.3 23.5-6.1 35.2-5.5-10.4-10.2-21.2-20.3-32.1-30.1zM1455.6 392.8c-6.8 2.3-13.9 3.6-20.9 4 6.2 5.7 12.2 11.4 18.3 17.2-.1-4.5.3-9 1-13.4.4-2.7 1-5.2 1.6-7.8z"/><path fill="#FEC12C" d="M1793.6 1086l1.1-14.4c3.1-41 14.3-71.1 30.8-103.5 13.9-27.4 31.3-51.3 32.8-81.5 1.7-34.5-29-66.9-71.1-63.3-33.4 2.9-57.5 35.4-48 66.1 5.1 16.5 23.6 37 49.7 30 11.9-3.3 22.7-15.1 24.5-28.1 2.2-16.9-11.3-29.5-25.3-27.3-7.8.9-13.2 6-13.7 13.2-.3 4.8 2.3 11.3 9.4 12.5 6 1 12.8-2.8 11.3-11.3-.3-.9-.4-1.7.3-2 5.2-1.1 7.8 7.9 6.1 13.4-2.3 7.3-8.5 12.3-15.2 13.5-14.1 2.4-25.6-8.6-28.2-20.7-3.5-18 10.1-35.8 30.6-37.1 30-1.8 49.8 21.2 48.4 43-2 26.5-19.5 45.5-33.2 70.1-19.7 35.4-29.8 57.2-33.6 113.1l-.8 10c-4.5 56 2.3 78.8 16.5 116.8 9.9 26.5 24.4 47.9 22.4 74.3-1.8 21.7-24.8 41.6-54.2 35.4-20.1-4.4-30.9-24-24.7-41.3 4.3-11.5 17.3-20.8 30.9-16.3 6.6 2.2 11.9 8.1 13.1 15.6.9 5.7-3.1 14.3-8 12.4-.8-.3-.5-1.1 0-2 2.7-8.1-3.4-12.9-9.5-12.8-7.2.3-10.7 6.1-11.2 11-.6 7.3 4 12.9 11.6 15.1 13.5 4.2 28.7-6.3 29-23.4.1-12.9-8.7-26.4-20-31.4-24.7-10.7-46.1 6.8-53.6 22.3-13.9 28.9 5.1 64.7 37.7 72.5 41.1 9.8 76.2-17.7 79.7-52.1 2.9-30.1-10.8-56.3-20.5-85.4-11.5-34-18.1-65.5-15.1-106.4z"/><path fill="#103F53" d="M1767.2 1212.3c-.8-1.8-1.5-3.7-2.3-5.7-15-40.3-22.4-66.5-17.9-126.3l.8-9.9c4.3-59.9 15.3-84.8 36.3-122.4 1-1.8 2-3.5 3-5.3-19.8 3-36.5-4.3-48.4-14.5 3.4 97.7-4 195.7-22.1 291.8 13.3-8.7 31.1-13.7 50.6-7.7zM1854.4 961.3c-3.2 5.9-6.2 11.3-9.1 17-15.5 30.7-25.6 57.9-28.4 94.9l-1 14.4c-2.7 36.9 3.1 65.4 14 98.1 2 5.9 9.9 27.2 11.6 32.2 15.3-89.3 22.1-179.8 20.4-270.3-2.6 4.8-5.1 9.4-7.5 13.7zM1854.3 824c-1.5-14.6-3.3-29.2-5.3-43.7-4.3 6.7-9.7 12.8-15.8 18.1-3 2.6-6.2 5-9.5 7.2 11.7 4.1 22.1 10.4 30.6 18.4zM1747.1 814.9c-6.7-2.6-13-6.1-18.6-10.4 1.1 8.3 2 16.6 3 24.9 2.8-3.5 6-6.7 9.3-9.6 2.1-1.7 4.1-3.3 6.3-4.9z"/><path fill="#FEC12C" d="M1724.3 1357.9c-27.5-19.3-66.8-9.9-79.3 19.7-6.7 15.9-5.7 43.5 18.7 54.9 11.2 5.1 27.1 3 36.8-5.7 12.6-11.6 10.3-29.9-1.8-37.2-6.6-4.3-14-3.9-19 1.3-3.3 3.5-5.4 10.1-.8 15.6 4 4.7 11.6 6.1 15.9-1.4.4-.9.8-1.6 1.5-1.3 4.7 2.5.9 11.1-3.9 14.2-6.5 4.1-14.4 4-20.4.5-12.3-7.2-14-23.1-8.3-34 8.9-16 30.7-21 47.3-8.7 24.2 17.9 24.5 48.2 9.4 64-18.5 19-44.2 22.4-70.5 32.4-37.9 14.4-59.5 24.7-98.4 65l-7 7.2c-39.4 40-48.9 61.8-62.4 100.1-9.4 26.7-12.1 52.4-30.6 71.3-15.3 15.5-45.7 15.9-64.3-7.7-12.6-16.3-8.2-38.3 7.6-47.6 10.7-6 26.6-4.8 34.1 7.4 3.6 5.9 3.9 13.8 0 20.4-3 5-11.5 9-14.1 4.3-.4-.7.4-1.2 1.2-1.6 7.3-4.5 5.7-12.1.9-15.9-5.7-4.4-12.1-2.2-15.6 1.3-5.2 5.2-5.3 12.5-.8 19 7.7 11.9 26.1 13.7 37.3.8 8.4-9.8 10.2-25.8 4.8-36.9-12-24.1-39.6-24.4-55.4-17.3-29.2 13.2-37.7 52.8-17.7 79.8 25.1 33.9 69.7 35.4 94.5 11.3 21.5-21.2 28-50.1 39.2-78.6 13.3-33.7 28.5-62.2 57.1-91.5l10.1-10.4c28.7-29.4 56.7-45.3 90.1-59.5 28.2-12 56.9-19.2 77.5-41.3 23.6-25.1 20.9-69.6-13.7-93.9z"/><path fill="#103F53" d="M1415.4 1616.4c15.7 2 32.5 9.5 43.6 26.6.6-1.9 1.2-3.8 1.9-5.8 14.4-40.5 25.6-65.4 67.5-108.3l7-7.1c41.8-43.1 66.2-55.1 106.5-70.4 1.9-.8 3.8-1.4 5.7-2.2-17.1-10.5-25.2-26.8-27.7-42.2-60.2 77.1-128.8 147.4-204.5 209.4zM1669.2 1513.9c-31.6 13.5-56.9 27.9-82.8 54.4l-10.1 10.4c-25.8 26.6-39.7 52.1-52.3 84.2-2.3 5.8-9.9 27.2-11.8 32.1 69.1-58.6 132.5-123.5 189.4-193.9-5 2-9.9 3.9-14.5 5.7-6.2 2.4-12 4.6-17.9 7.1zM1763.8 1367.8c6.2 10.6 10.1 22.1 11.5 33.8 8.2-12.1 16.2-24.5 24.1-36.9-7.6 2.3-15.6 3.6-23.7 3.7-4 .1-8-.1-11.9-.6zM1699 1325.7c-3.5-6.3-6-13-7.6-19.9-4.5 7.1-9.1 14-13.7 21 4.4-.8 8.9-1.3 13.3-1.3 2.7-.1 5.3 0 8 .2z"/><path fill="#FEC12C" d="M1259.1 1691.2c-15.4 7.9-32.3 29.7-20.9 54.1 5.3 11.2 18.8 19.8 31.9 19.3 17.1-.8 27.1-16.3 22.5-29.7-2.2-7.5-8.2-12-15.4-11.2-4.8.6-10.7 4.3-10.7 11.4.1 6.2 5 12.1 13 9.2.9-.4 1.6-.7 2 0 1.9 4.9-6.4 9.1-12.2 8.3-7.6-1-13.6-6.2-16-12.7-4.8-13.4 4.1-26.7 15.5-31.3 17.1-6.5 37 3.7 41.8 23.7 7 29.2-12.3 52.7-33.9 55.1-26.4 2.7-48.2-11.3-74.8-20.5-38.3-13.3-61.5-19.4-117.2-13.4l-10 1c-55.9 5.3-77.2 15.9-112.2 36.5-24.4 14.4-43 32.4-69.3 35-21.7 2-45.3-17.2-44.3-47.2.8-20.6 18.3-34.6 36.4-31.5 12.1 2.3 23.5 13.5 21.4 27.6-1 6.9-5.9 13.1-13.1 15.6-5.5 1.9-14.6-.5-13.6-5.7.1-.8 1-.7 1.9-.4 8.5 1.2 12.1-5.5 10.9-11.6-1.5-7-7.9-9.5-12.8-9.1-7.3.6-12.1 6.2-12.9 14-1.8 14 11.2 27.2 28.1 24.5 12.8-2.1 24.4-13.2 27.4-25.2 6.3-26.2-14.7-44.2-31.3-48.9-30.9-8.7-62.8 16.2-64.8 49.7-2.6 42.2 30.6 72 65.1 69.4 30.1-2.4 53.6-20.4 80.6-35 31.9-17.3 61.8-29.3 102.5-33.4l14.4-1.5c40.8-4.1 72.5 1.8 107.3 12.3 29.4 9 55.9 21.9 85.9 18.2 34.3-4.3 60.9-40.1 50-81-8.4-32.2-44.6-50.2-73.2-35.6z"/><path fill="#103F53" d="M929.7 1726.4c10.8 11.6 18.8 28.2 16.3 48.4 1.7-1.1 3.4-2.1 5.2-3.2 37.1-21.8 61.6-33.6 121.3-39.5l9.9-1c59.7-6.2 86.1.4 126.9 14.5 1.9.7 3.8 1.4 5.7 2-6.3-19-2.1-36.7 5.9-50.2-95.5 20.5-193.3 30.2-291.2 29zM1190 1811.1c-32.9-10-61.5-15.2-98.4-11.5l-14.4 1.5c-36.8 3.7-63.9 14.4-94.1 30.8-5.5 3-25.1 14.5-29.7 17 90.6-.5 180.9-9.5 269.8-26.8-5.2-1.6-10.1-3.4-14.8-5-6.4-2.1-12.2-4.1-18.4-6zM1356.4 1760c-2 12.1-6.5 23.4-12.9 33.3 14.1-4 28.2-8.3 42.2-12.8-7.3-3.1-14.3-7.3-20.6-12.4-3-2.5-6-5.2-8.7-8.1zM1327.9 1680.8c2.1 1.7 4 3.4 6 5.3 1.4-7.1 3.8-13.8 7-20.1-8 2.5-16 4.9-24 7.3 3.9 2.2 7.6 4.7 11 7.5zM473.6 1546.9c.3 0 .5.1.8.1 17.7 3 32.6 6 47.5 10.8 16.4 5.3 32.9 12.8 53.3 25.4 5.5 3.4 11.4 7.2 17.6 11.5l8.2 5.7c44.1 29.8 61.7 50.6 80.6 80.7 2.4 3.8 4.8 7.8 7.3 11.9 1.1 1.7 2 3.5 3.1 5.2 3.7-9.3 9.2-16.7 15.6-22.4 6.4-5.7 13.8-9.7 21.2-12.3-86.3-45.9-167.7-101.3-241.7-165.1.4 8.1-.6 18.7-3.7 27-2.9 8-7.7 9.4-15 24.4v-1.9c1.7.4 3.4-1.3 5.2-1zM642.1 1747.1c-3.4-5.7-6.6-11-10.2-16.4-2.3-3.6-4.7-7.1-7-10.5-16.5-23.8-34.1-43.3-60.9-61.6l-12-8.1c-30.6-20.8-58.2-30-92-36.9-.8-.2-2-.4-3.4-.6-8.2-1.5-24.1-4-29.4-5h-.9c61.1 50 126.6 95.8 195.2 135.9 9.6 5.6 19 11.3 28.7 16.7v-.1c-2.8-4.6-5.5-9.1-8.1-13.4zM840.8 1716.5c-7.7-3.2-15.4-6.5-23.1-9.8 1.6 4.2 2.8 8.5 3.6 12.9.5 2.6.9 5.2 1.2 7.9 3.4-2.7 7.1-5.1 10.9-7.2 2.4-1.4 4.8-2.7 7.4-3.8zM250.4 1211.5l-4-13.9c-4.7-16.6-10.6-30.9-17.6-44.1-8.1-15.1-17.7-28.9-29.1-43.3-.5-.6-1.1-1.4-1.9-2.4-5.5-6.7-17.1-20.4-20-23.9 16.2 89.1 40.7 176.5 73.3 261 .7-5.4 1.6-10.5 2.3-15.4 1.1-6.6 2-12.7 2.8-19.1 3.1-25.6 3.9-48.3-.1-73.2-1.4-8.2-3.2-16.8-5.7-25.7zM422.7 1428.8c-2.9-5.8-5.9-11.6-8.8-17.4-1.5 4.2-3.3 8.3-5.5 12.2-1.3 2.3-2.8 4.5-4.3 6.8 7.2.2 13.9 1.4 20.9 3.5v.1h.2c-.8-2-1.7-3.5-2.5-5.2zM361.4 693.7c-20.2 45.3-36.8 66.6-60.3 88.5-4.9 4.6-10.1 9.2-15.7 14.1-.8.7-1.5 1.3-2.3 2-.8.6-1.6 1.3-2.3 2 5.6 1.1 10.5 3.1 15.1 5.5 11.4 5.9 19.9 16.5 25.4 26.3C351.5 739.1 392 642 441.9 567h5.1v-3.2c-15 2.8-29.2 1.6-42.7-5-3.4-1.6-8-6.9-11.3-6.9h-.6-.3c.1 0 0 4.9 0 7 .3 43-1.7 70.6-26.5 125.3l-4.2 9.5zM212.3 770.1c4-3.6 7.9-7 11.7-10.3 5.1-4.4 9.7-8.5 14.4-12.8 15.7-14.7 28.9-28.9 40.3-45.7 6.9-10.1 13.1-21.1 18.8-33.8l5.9-13.2c5-11.2 8.8-21.8 11.7-32.3 5.9-21.2 8.1-41.7 8.7-64.7.2-6.3 0-29 .1-34.2-11.2 19.7-22 39.6-32.2 59.7-17.5 34.4-33.3 69.5-48.1 105.2-11.2 27-21.8 54.3-31.3 82.1zM288.6 950.1c.8-3.4 1.6-6.8 2.4-10.3 1.1-4.7 2.2-9.4 3.3-14.2-3.9 2.3-7.9 4.3-12.1 5.8-2.5 1-5 1.8-7.6 2.5 5.5 4.8 10.2 10.2 14 16.2z"/><path fill="#FEC12C" d="M1104.1 613.6c0-52.1-38.1-94.4-85-94.4s-85 42.2-85 94.4c0 52.1 85 346 85 346s85-293.8 85-346zM934.2 1390.5c0 52.2 38.1 94.4 84.9 94.4 46.9 0 85-42.2 85-94.4 0-52.1-85-346-85-346s-84.9 293.9-84.9 346zM976.8 1010.8s-293.9-85-346.1-85c-52.2 0-94.4 38-94.4 85s42.2 84.9 94.4 84.9c52.1.1 346.1-84.9 346.1-84.9z"/><path fill="#103F53" d="M674 880c37.1 23.5 252.1 87.6 318.5 107.1 5.5 4.9 8.7 7.8 8.7 7.8s-.6-2.1-1.7-5.7c8 2.3 12.5 3.6 12.5 3.6s-6.4-7.2-17-19c-20-68-83.4-280.1-106.7-317-27.8-44.1-82.5-59.6-122.2-34.5-32.7 20.6-44.9 62.2-32.7 100.8-36.6-8.8-74.6 3.9-93.9 34.6-25.1 39.8-9.6 94.5 34.5 122.3zM1012 1028.7s-6.7 1.9-18.1 5.3c4.6-15.4 7.3-24.8 7.3-24.8s-15 13.3-37.7 33.8c-85.4 25.4-256.7 77.8-289.5 98.6-44.1 27.8-59.6 82.6-34.5 122.2 18.6 29.6 54.6 42.5 90 35.5-3.8 32.8 9.2 65.1 36.7 82.4 39.7 25.1 94.4 9.6 122.2-34.5 20.8-33 73.7-206 99-290.9 15.2-16.9 24.6-27.6 24.6-27.6z"/><path fill="#FEC12C" d="M1407.6 925.9c-52.1 0-346.1 85-346.1 85s293.9 85 346.1 85c52.2 0 94.4-38.1 94.4-85 0-47-42.2-85-94.4-85z"/><path fill="#103F53" d="M1364.3 1141.6c-32.8-20.7-204.1-73.1-289.5-98.5-22.7-20.5-37.7-33.9-37.7-33.9s2.7 9.4 7.3 24.9c-11.4-3.3-18.1-5.3-18.1-5.3s9.4 10.6 24.7 27.5c25.3 84.9 78.1 257.9 99 290.9 27.8 44.1 82.6 59.6 122.2 34.5 27.5-17.3 40.5-49.5 36.7-82.4 35.4 6.9 71.3-5.9 90-35.5 25-39.7 9.5-94.4-34.6-122.2zM1026.3 992.9s4.5-1.3 12.5-3.6c-1 3.6-1.7 5.7-1.7 5.7s3.2-2.8 8.7-7.8c66.4-19.5 281.3-83.7 318.5-107.1 44.1-27.8 59.6-82.5 34.5-122.2-19.4-30.8-57.3-43.4-93.9-34.6 12.2-38.7-.1-80.3-32.7-100.8-39.7-25.1-94.4-9.6-122.2 34.5-23.3 36.9-86.7 249.1-106.7 317-10.6 11.7-17 18.9-17 18.9z"/></svg>