<svg xmlns:xlink="http://www.w3.org/1999/xlink"  xmlns="http://www.w3.org/2000/svg" viewBox="0 0 2000 2000"><path fill="none" d="M360.4 953.6c2-.1 4.1 0 6.1-.1-2 0-4.1 0-6.1.1zM383 1048c.2 0 .4-.9.5-1 2.3-.1 4.6-.5 7-1-10.3.8-20.7 1.2-31.2.5-45.3-2.8-89-19.2-125.1-46.6 35-26.7 77-42.5 120.9-45.9-45 2.9-88.3 19.2-124.6 46.7 43.7 33.1 97.7 47.2 152.3 47.2.1.1.2.1.2.1zM440.6 951.3c52.5-65-11.8-149.2-22.9-155.3 12.1 68.9-36.5 126-59.5 146.6 30.5-2.9 58.2 2 82.4 8.7zM421.8 540.8c-.9-16-98.3-121.1-112.3-24.5-.8 4.2 2.7 7.7 5.5 5 35.5-38.9 74.2 58.4 82.9 101-1.2-28.1 10.8-64.1 23.9-81.5zM446.2 767.1c1.1 3.7 5.7 1.4 5.9-1.7 1.5-19.5-1.7-62.2-21.6-93.3-19.2-30.1-52.5-49.1-73.6-57.6-5.4-2.1-7.1 5.1-3.9 8.3 25.4 25.4 33.2 60.9 33.6 93.8 10.5 1.3 44.4 4.2 59.6 50.5z"/><path fill="none" d="M450.4 829.2c4.6 17.3.2-128.9-89.4-99-33.3 13.2-42.5 33.3-45.5 53.6-.7 4.4 2.4 11.2 7.4 7.6 63.6-45.9 118 1.9 127.5 37.8zM490.5 1473.7c-46.4-3.3-48-107.5-48.6-150.3-8.9 20.4-20.9 36-37.8 47.4 0 30.2 27.3 144.6 88.2 110.4 3.2-2.2 2.2-7.2-1.8-7.5zM1369.4 1606.1c30.2 0 144.6-27.3 110.4-88.2-2.3-3.1-7.3-2.1-7.6 1.9-3.3 46.4-107.5 48-150.3 48.6 20.5 8.8 36.2 20.8 47.5 37.7zM417.9 1207.2c11-6 76.3-97.4 22.7-160.7-.2.1-38.3 14.3-82.6 9.2 26.4 20 72.1 82.7 59.9 151.5z"/><path fill="none" d="M315.3 1482c-3.3-3.5-6.2 1.2-5.5 5 15.2 93.9 107.9-8.8 112.2-24.5-13.1-17.4-25.1-57.3-23.8-85.3-7.6 37.8-50 139.2-82.9 104.8zM450.5 1174.1c-9.5 35.9-63 82.3-126.6 36.4-5-3.6-9 4.6-8.3 9 3 20.4 12.3 40.4 45.6 53.6 89.6 30 93.9-116.3 89.3-99z"/><path fill="none" d="M430.7 1331.2c19.9-31.1 23-73.8 21.6-93.3-.2-3-4.7-5.3-5.9-1.6-15.2 46.2-49.1 49.1-59.6 50.4-.5 32.9-8.2 68.4-33.6 93.8-3.2 3.2-1.5 10.4 3.8 8.3 21.2-8.5 54.6-27.6 73.7-57.6zM667.2 420.3c31.1 19.9 73.8 23 93.3 21.6 3-.2 5.3-4.7 1.6-5.9-46.2-15.1-49.1-49.1-50.4-59.6-32.9-.4-68.4-8.2-93.8-33.6-3.2-3.2-10.4-1.5-8.3 3.8 8.5 21.2 27.6 54.6 57.6 73.7zM1231.3 435.8c-3.7 1.1-1.4 5.7 1.7 5.9 19.5 1.5 62.2-1.7 93.3-21.6 30.1-19.2 49.1-52.5 57.6-73.6 2.1-5.4-5.1-7.1-8.3-3.9-25.4 25.4-60.9 33.2-93.8 33.7-1.4 10.4-4.2 44.4-50.5 59.5zM1457.6 411.4c16-.8 121.1-98.3 24.5-112.3-4.2-.8-7.7 2.7-5 5.5 38.9 35.5-58.5 74.2-101 82.9 28.1-1.2 64.1 10.8 81.5 23.9z"/><path fill="none" d="M1318.5 431.4c42.8.6 146.9 2.2 150.2 48.6.3 4 5.4 5 7.5 1.9 34.2-60.9-80.2-88.2-110.4-88.2-11.2 16.7-26.9 28.8-47.3 37.7zM627.6 393.8c-30.2 0-144.6 27.3-110.4 88.2 2.3 3.1 7.3 2.1 7.6-1.9 3.3-46.4 107.5-48 150.2-48.6-20.4-8.9-36.1-20.9-47.4-37.7zM678.5 1568.4c-42.8-.6-146.9-2.2-150.2-48.6-.3-3.9-5.4-5-7.6-1.8-34.2 60.9 80.2 88.2 110.4 88.2 11.3-16.8 27-28.8 47.4-37.8z"/><path fill="none" d="M535.9 411.6c17.4-13.1 57.3-25.1 85.3-23.8-37.8-7.6-139.2-50-104.9-82.9 3.5-3.3-1.2-6.2-5-5.5-93.9 15.2 8.8 107.8 24.6 112.2zM441.8 679.9c.6-42.8 2.2-146.9 48.6-150.2 3.9-.3 5-5.4 1.8-7.6-60.9-34.2-88.2 80.2-88.2 110.4 16.9 11.3 28.9 27 37.8 47.4zM1268.2 350.6c-13.2-33.3-33.3-42.6-53.6-45.5-4.3-.7-11.2 2.4-7.6 7.5 45.9 63.6-2 117.9-37.8 127.5-17.3 4.5 129 .1 99-89.5z"/><path fill="none" d="M1202.4 407.3c-68.9 12.1-126-36.6-146.6-59.5 3 30.5-2 58.2-8.7 82.4 65 52.5 149.2-11.8 155.3-22.9zM824.3 440.1c-35.9-9.5-82.3-63-36.4-126.6 3.6-5-4.6-9-9-8.3-20.4 3-40.4 12.3-53.6 45.6-30 89.6 116.3 93.9 99 89.3z"/><path fill="none" d="M951.9 430.2c-.1-.2-14.3-38.3-9.2-82.6-20 26.4-82.7 72.1-151.5 59.9 6 11.1 97.3 76.3 160.7 22.7zM1604.6 629c0-30.2-27.3-144.6-88.2-110.4-3.1 2.3-2.1 7.3 1.9 7.6 46.4 3.3 48 107.5 48.6 150.3 8.9-20.5 20.9-36.2 37.7-47.5z"/><path fill="none" d="M1693.5 517.8c3.3 3.5 6.2-1.2 5.5-5-15.2-93.9-107.9 8.8-112.2 24.5 13.1 17.4 25.1 57.4 23.8 85.3 7.6-37.7 50-139.2 82.9-104.8zM1562.4 763.6c15.1-46.2 49.1-49.1 59.6-50.4.5-32.9 8.2-68.4 33.6-93.8 3.2-3.2 1.5-10.4-3.8-8.3-21.1 8.5-54.5 27.5-73.7 57.6-19.9 31.1-23 73.8-21.6 93.3.2 3 4.7 5.3 5.9 1.6z"/><path fill="none" d="M1558.3 825.7c9.5-35.9 63-82.3 126.6-36.4 5 3.6 9-4.6 8.3-9-3-20.4-12.3-40.4-45.5-53.6-89.7-29.9-94 116.3-89.4 99zM1650.6 1057.2c-30.5 3-58.2-2-82.4-8.7-52.5 65 11.8 149.2 22.9 155.2-12.1-68.8 36.5-125.9 59.5-146.5z"/><path fill="none" d="M1650.8 944.1c-26.4-20-72.1-82.6-59.9-151.5-11 6-76.3 97.4-22.7 160.7.2 0 38.3-14.3 82.6-9.2zM1558.4 1170.6c-4.6-17.3-.2 128.9 89.4 99 33.3-13.2 42.5-33.3 45.5-53.6.7-4.4-2.4-11.2-7.4-7.6-63.6 45.9-118-1.9-127.5-37.8z"/><path fill="none" d="M1562.6 1232.7c-1.1-3.7-5.7-1.4-5.9 1.7-1.5 19.5 1.7 62.2 21.6 93.3 19.2 30.1 52.5 49.1 73.6 57.6 5.4 2.1 7.1-5.1 3.9-8.3-25.4-25.4-33.2-60.9-33.6-93.8-10.5-1.3-44.4-4.2-59.6-50.5zM1587 1459c.9 16.1 98.3 121.1 112.3 24.5.8-4.2-2.7-7.7-5.5-5-35.5 38.9-74.2-58.4-82.9-101 1.3 28.1-10.8 64.1-23.9 81.5z"/><path fill="none" d="M1567 1320c-.6 42.8-2.2 146.9-48.6 150.2-3.9.3-5 5.4-1.8 7.6 60.9 34.2 88.2-80.2 88.2-110.4-16.8-11.4-28.9-27.1-37.8-47.4zM539.4 1588.4c-16 .9-121.1 98.3-24.5 112.3 4.2.8 7.7-2.7 5-5.5-38.9-35.5 58.4-74.2 101-82.9-28.1 1.3-64.1-10.7-81.5-23.9zM794.6 1592.5c68.9-12.1 126 36.5 146.6 59.5-3-30.5 2-58.2 8.7-82.4-65-52.5-149.3 11.8-155.3 22.9zM1172.7 1559.8c35.9 9.5 82.3 63 36.4 126.6-3.6 5 4.6 9 9 8.3 20.4-3 40.4-12.3 53.6-45.6 30-89.6-116.3-94-99-89.3zM998.4 1502.3c26.6 36.7 42.4 80.2 45.1 125.6 2.1 34.6-3.5 68.9-15.9 100.8 13.2-31.9 19.3-66.5 17.1-101.5-2.7-45.3-18.8-88.8-46.3-124.9z"/><path fill="none" d="M728.8 1649.3c13.2 33.3 33.3 42.5 53.6 45.5 4.4.7 11.2-2.4 7.6-7.4-45.9-63.6 2-118 37.8-127.5 17.3-4.7-129-.3-99 89.4z"/><path fill="none" d="M765.7 1564c3.7-1.1 1.4-5.7-1.6-5.9-19.5-1.5-62.2 1.7-93.3 21.6-30.1 19.2-49.1 52.5-57.6 73.6-2.1 5.4 5.1 7.1 8.3 3.9 25.4-25.4 60.9-33.2 93.8-33.6 1.2-10.4 4.1-44.4 50.4-59.6zM1329.8 1579.5c-31.1-19.9-73.8-23-93.3-21.6-3 .2-5.3 4.7-1.6 5.9 46.2 15.2 49.1 49.1 50.4 59.6 32.9.5 68.4 8.2 93.8 33.6 3.2 3.2 10.4 1.5 8.3-3.8-8.5-21.2-27.6-54.5-57.6-73.7zM1461.1 1588.3c-17.4 13.1-57.4 25.1-85.3 23.7 37.8 7.6 139.2 50 104.9 82.9-3.5 3.3 1.2 6.2 5 5.5 93.8-15.1-8.8-107.8-24.6-112.1zM1045.1 1569.6c.1.2 14.3 38.3 9.3 82.6 20-26.4 82.6-72.1 151.5-59.9-6.1-11-97.5-76.2-160.8-22.7z"/><path fill="#184A68" d="M998.6 497.5c27.5-36.1 43.9-79.7 46.6-125.1 3.3-54.8-13.5-108.7-46.6-152.4-33.2 43.7-49.7 97.8-46.4 152.5 2.7 45.5 18.9 88.9 46.4 125zM1043.6 1627.9c-2.7-45.4-18.5-88.9-45.1-125.6-27.5 36.1-43.8 79.7-46.6 125-3.3 54.8 13.5 108.7 46.6 152.4 12-15.8 21.7-33 29.2-51 12.4-31.8 18-66.2 15.9-100.8zM1778.3 1000c-43.7-33.2-97.8-49.7-152.5-46.3-45.4 2.7-88.8 18.9-124.9 46.3 36.1 27.5 79.7 43.9 125.1 46.6 54.7 3.3 108.6-13.4 152.3-46.6zM359.3 1046.6c10.5.6 20.9.3 31.2-.5 2.4-.5 4.8-1 7.2-1.3 37.2-4.7 72.6-18.4 103.3-40 2.4-2.2 4.5-3.8 6.4-5-.2-.1-.3-.2-.4-.3-35.9-27-79.2-42.9-124.1-45.7-5.5-.3-10.9-.3-16.3-.2-2 .1-4.1 0-6.1.1-1.8.1-3.5.3-5.3.4-43.9 3.4-85.9 19.3-120.9 45.9 36.1 27.4 79.7 43.8 125 46.6z"/><path fill="#F5BB43" d="M1654.5 1065.1l13.2-11.9c41.2-5.3 80.5-21.5 113.8-46.8l8.8-6.6-8.8-6.7c-33.4-25.4-72.9-41.4-114.1-46.6l-13.1-11.8c-19.9-17.8-58.8-63.1-58.8-118.4-.5-11.8 3.2-28.5 3.2-28.5 9.5-5.3 20.6-8.8 32.5-8.8 14.3 0 30.5 4.8 47.9 17.3 2 1.5 4.6 2.6 7.5 2.6 14.7-.3 13.1-17.2 13-18-3.3-22.6-14.4-47.2-51.8-60.3-7.1-2.5-9-4-21-4.5V715c0-31.9 8.8-64.8 32-88 2.9-2.9 4.5-6.8 4.5-10 0-1.3 0-2.7-.4-4.1-1.1-3.9-4.7-8.8-11.3-8.8-1.7 0-3.3.4-4.8.9-8.1 3.3-18 8.1-28.5 14.4 9.4-36.7 38.6-98.7 59-98.7 2.1 0 5 .8 8.4 4.4 1.8 1.8 4.5 3.7 8.2 3.7 7.8 0 12.2-6.8 11.5-15.6-4.6-31.4-18.6-47.4-39.6-47.4-10.4 0-21.2 4.1-30.9 9.7-21.7 12.4-42.6 34.6-52.2 48.8-1.3 2.1-2.7 4.4-3.9 6.8-10.7-14.8-24.8-25.5-42.5-25.5-8.4 0-17.1 2.5-25.9 7.6-4.3 2.4-6.1 6.6-6.1 10.6 0 5.4 4 11.9 11.5 12.4 36.6 2.6 40.2 93.1 40.8 142l.2 13.2c-8.3 22.9-10.8 47.1-10.8 63.3 0 3.5.1 6.8.3 9.6.4 5.3 4.7 10.1 10 11.1-3.1 8.9-5.2 17.4-6.5 24.5-2 10.7-2.9 19.9-2.9 25.2-1.3 8.6 3.2 9.9 3.8 10.3-7.6 16.7-13.2 36.3-13.2 56.5 0 20.9 6.1 42.8 22.2 62.9l2.1 2.4c-24.3 8.2-47.2 20.4-67.8 36l-8.7 6.7 8.7 6.6c20.6 15.7 43.6 27.9 67.9 36.1l-2 2.5c-16.3 20.1-22.2 41.9-22.2 62.8 0 20.2 5.6 39.8 13.1 56.5-.6.5-4.3 3.4-3.8 10.3 0 5.3.8 14.6 2.8 25.3 1.4 7.2 3.4 15.7 6.4 24.5-5.2 1-9.5 5.7-9.8 11.1-.2 2.9-.3 6.1-.3 9.6 0 16.2 2.5 40.3 10.8 63.3l-.2 13.1c-.6 49-4.3 139.5-40.9 142.1-7.6.5-11.5 7-11.5 12.4 0 3.9 1.8 8.2 6.2 10.6 8.8 5.1 17.4 7.5 25.9 7.5 17.6 0 31.8-10.7 42.5-25.5 1.9 3.9 4.9 8.2 7.7 11.9 14.9 19.7 49.8 53.4 79.3 53.4 21 0 35.1-16.1 39.6-47.5 2-12.3-3.7-15.6-11.5-15.6-4.5-.2-10.9 7.5-16.6 8.2-20.4 0-49.6-62-59-98.7 10.4 6.4 20.4 11.2 28.5 14.5 1.5.5 3.1.9 4.9.9 6.5 0 10.2-4.8 11.3-8.7.5-1.4.6-2.8.6-4.1 0-3.2-2.1-7.1-4.9-10.1-23.2-23.2-32.1-56.1-32.1-88v-1.1c12-.6 13.9-2 21-4.5 37.5-13.1 48.1-37.7 51.4-60.3.1-.8 5.6-21.2-12.7-18.1-3 0-5.5 1.1-7.5 2.6-17.4 12.5-33.5 17.3-47.7 17.3-12 0-23.1-3.4-32.5-8.8 0 0-4.6-11.8-3.2-28.5.3-55.3 39.1-100.6 59-118.4zm-6.8-338.4c33.3 13.2 42.5 33.3 45.5 53.6.7 4.4-3.3 12.5-8.3 9-63.6-45.9-117.1.5-126.6 36.4-4.6 17.3-.3-128.9 89.4-99zm51.3-213.9c.7 3.8-2.2 8.5-5.5 5-33-34.4-75.4 67.1-82.9 104.9 1.4-28-10.7-67.9-23.8-85.3 4.3-15.9 97-118.5 112.2-24.6zm-180.7 13.3c-4-.3-5-5.3-1.9-7.6 60.9-34.2 88.2 80.2 88.2 110.4-16.8 11.4-28.9 27-37.8 47.4-.5-42.7-2.1-146.8-48.5-150.2zm59.8 142.5c19.2-30 52.5-49.1 73.7-57.6 5.3-2.1 7.1 5.1 3.8 8.3-25.4 25.4-33.1 60.9-33.6 93.8-10.4 1.3-44.4 4.2-59.6 50.4-1.2 3.7-5.7 1.4-5.9-1.6-1.5-19.5 1.7-62.2 21.6-93.3zm12.8 124c-12.2 68.8 33.5 131.5 59.9 151.5-44.3-5-82.4 9.2-82.6 9.2-53.6-63.3 11.6-154.7 22.7-160.7zm-90 207.4c36.1-27.5 79.6-43.6 124.9-46.3 54.7-3.3 108.8 13.2 152.5 46.3-43.7 33.2-97.6 49.9-152.4 46.6-45.3-2.8-88.9-19.2-125-46.6zm15.7 477.7c-3.2-2.2-2.1-7.2 1.8-7.6 46.4-3.3 48-107.4 48.6-150.2 8.9 20.4 20.9 36 37.8 47.4 0 30.3-27.3 144.6-88.2 110.4zm177.1.8c2.8-2.7 6.4.8 5.5 5-14 96.6-111.4-8.5-112.3-24.5 13.1-17.4 25.2-53.4 23.8-81.4 8.8 42.5 47.5 139.8 83 100.9zm-37.9-101.5c3.2 3.2 1.5 10.4-3.9 8.3-21.1-8.5-54.5-27.5-73.6-57.6-19.9-31-23-73.8-21.6-93.3.2-3 4.7-5.3 5.9-1.7 15.2 46.3 49.2 49.2 59.6 50.4.4 33 8.2 68.4 33.6 93.9zm30.1-168.6c5-3.6 8.1 3.2 7.4 7.6-2.9 20.4-12.2 40.4-45.5 53.6-89.7 29.9-94.1-116.3-89.4-99 9.5 35.9 63.9 83.7 127.5 37.8zm-94.8-4.6c-11.1-6-75.4-90.3-22.9-155.2 24.2 6.6 51.9 11.6 82.4 8.7-23 20.5-71.6 77.6-59.5 146.5zM1474.1 1584.5c-2.1-1.3-4.4-2.7-6.8-3.9 14.8-10.7 25.5-24.8 25.5-42.5 0-8.4-2.5-17.1-7.6-25.9-2.4-4.2-6.6-6.1-10.6-6.1-5.4 0-11.9 4-12.4 11.5-2.6 36.6-93.1 40.2-142 40.9l-13.2.2c-22.9-8.3-47.1-10.8-63.3-10.8-3.5 0-6.8.1-9.6.3-5.3.4-10.1 4.7-11.1 10-8.9-3.1-17.4-5.1-24.5-6.5-10.7-2-19.9-2.9-25.2-2.9-8.6-1.3-9.9 3.2-10.3 3.8-16.7-7.6-36.3-13.2-56.5-13.2-20.9 0-42.8 6.1-62.9 22.2l-2.4 2.1c-8.2-24.3-20.4-47.2-36-67.8l-6.7-8.7-6.6 8.7c-15.7 20.6-27.8 43.6-36.1 67.9l-2.5-2c-20.1-16.3-41.9-22.2-62.8-22.2-20.2 0-39.8 5.6-56.5 13.2-.5-.6-3.3-4.3-10.3-3.8-5.3 0-14.6.8-25.3 2.8-7.2 1.4-15.7 3.4-24.5 6.4-1-5.2-5.7-9.5-11-9.8-2.9-.2-6.1-.3-9.6-.3-16.2 0-40.3 2.5-63.3 10.8l-13.1-.2c-49-.6-139.5-4.3-142.1-40.9-.5-7.6-7-11.5-12.4-11.5-3.9 0-8.2 1.8-10.6 6.2-5.1 8.8-7.5 17.4-7.5 25.9 0 17.6 10.7 31.8 25.5 42.5-3.9 1.9-8.2 4.9-11.9 7.7-19.7 14.9-53.4 49.8-53.4 79.3 0 21 16 35.1 47.5 39.7 12.3 2 15.6-3.7 15.6-11.5.2-4.5-7.5-10.9-8.2-16.6 0-20.4 62-49.6 98.7-59-6.4 10.4-11.2 20.4-14.5 28.5-.5 1.5-.9 3.1-.9 4.9 0 6.5 4.8 10.2 8.7 11.3 1.4.5 2.8.6 4.1.6 3.2 0 7.1-2.3 10.1-5.1 23.2-23.2 56.1-32.3 88-32.3h1.1c.6 12 2 14.2 4.5 21.3 13.1 37.5 37.7 48.2 60.3 51.5.8.1 21.2 5.6 18.1-12.7 0-3-1.1-5.4-2.6-7.5-12.5-17.4-17.3-33.5-17.3-47.7 0-12 3.4-23 8.8-32.5 0 0 11.8-4.6 28.5-3.2 55.3 0 100.6 38.8 118.4 58.8l11.9 13.2c5.3 41.2 21.5 80.5 46.8 113.8l6.6 8.8 6.7-8.8c25.4-33.4 41.4-72.9 46.6-114.1l11.8-13.1c17.8-19.9 63.1-58.8 118.4-58.8 11.8-.5 28.5 3.2 28.5 3.2 5.3 9.5 8.8 20.6 8.8 32.5 0 14.3-4.8 30.5-17.3 47.9-1.5 2-2.6 4.6-2.6 7.5.3 14.7 17.2 13.1 18 13 22.6-3.3 47.2-14.6 60.3-52 2.5-7.1 4-9.2 4.5-21.2h1.1c31.9 0 64.8 9 88 32.2 2.9 2.9 6.8 4.6 10 4.6 1.3 0 2.7 0 4.1-.4 3.9-1.1 8.8-4.7 8.8-11.3 0-1.7-.4-3.3-.9-4.8-3.3-8.1-8.1-18-14.4-28.5 36.7 9.4 98.7 38.6 98.7 59 0 2.2-.8 5-4.4 8.4-1.8 1.8-3.7 4.6-3.7 8.2 0 7.8 6.8 12.2 15.6 11.5 31.4-4.6 47.4-18.6 47.4-39.6 0-10.5-4.1-21.2-9.7-30.9-12.6-21.8-34.7-42.7-48.9-52.2zm-1.8-64.8c.3-4 5.3-5 7.6-1.9 34.2 60.9-80.2 88.2-110.4 88.2-11.3-16.8-27-28.9-47.4-37.8 42.7-.5 146.8-2.1 150.2-48.5zm-951.6-1.7c2.2-3.2 7.2-2.1 7.6 1.8 3.3 46.4 107.4 48 150.2 48.6-20.4 8.9-36 20.9-47.4 37.8-30.3 0-144.6-27.3-110.4-88.2zm-.8 177.2c2.7 2.8-.8 6.4-5 5.5-96.6-14 8.5-111.4 24.5-112.3 17.4 13.2 53.4 25.2 81.4 23.8-42.5 8.7-139.8 47.5-100.9 83zm195.3-71.6c-32.9.4-68.4 8.2-93.8 33.6-3.2 3.2-10.4 1.5-8.3-3.9 8.5-21.1 27.5-54.5 57.6-73.6 31-19.9 73.8-23 93.3-21.6 3 .2 5.3 4.7 1.6 5.9-46.2 15.2-49.1 49.2-50.4 59.6zm74.8 63.7c3.6 5-3.2 8.1-7.6 7.4-20.4-2.9-40.4-12.2-53.6-45.5-30-89.7 116.3-94.1 99-89.4-35.9 9.5-83.7 63.9-37.8 127.5zm151.2-35.3c-20.6-23-77.7-71.6-146.6-59.5 6-11.1 90.3-75.4 155.2-22.9-6.6 24.3-11.6 51.9-8.6 82.4zm86.4 76.7c-7.5 18-17.2 35.2-29.2 51-33.2-43.7-49.9-97.6-46.6-152.4 2.8-45.3 19.2-88.9 46.6-125 27.5 36.1 43.6 79.6 46.3 124.9 2.2 35-3.8 69.6-17.1 101.5zm26.7-76.5c5-44.3-9.2-82.4-9.3-82.6 63.4-53.6 154.8 11.6 160.7 22.7-68.7-12.2-131.4 33.5-151.4 59.9zm217.4-3.1c-13.2 33.3-33.3 42.5-53.6 45.6-4.4.7-12.6-3.3-9-8.3 45.9-63.6-.5-117.1-36.4-126.6-17.3-4.7 129-.3 99 89.3zm115.6 4.1c2.1 5.3-5.1 7.1-8.3 3.8-25.4-25.4-60.9-33.1-93.8-33.6-1.3-10.4-4.2-44.4-50.4-59.6-3.7-1.2-1.4-5.7 1.6-5.9 19.5-1.5 62.2 1.7 93.3 21.6 30.1 19.2 49.2 52.5 57.6 73.7zm98.3 47.3c-3.8.7-8.5-2.2-5-5.5 34.4-33-67.1-75.4-104.9-82.9 28 1.4 67.9-10.7 85.3-23.7 15.9 4.2 118.5 96.9 24.6 112.1zM498.1 1486.7c4.2-2.4 6.1-6.6 6.1-10.6 0-5.4-4-11.9-11.5-12.4-36.6-2.6-40.2-93.1-40.9-142l-.2-13.2c8.3-22.9 10.8-47.1 10.8-63.3 0-3.5-.1-6.8-.3-9.6-.4-5.3-4.7-10.1-10-11 3.1-8.9 5.2-17.4 6.5-24.5 2-10.7 2.9-19.9 2.9-25.2 1.3-8.6-3.2-9.9-3.8-10.3 7.6-16.7 13.2-36.3 13.2-56.5 0-20.9-6-42.8-22.2-62.9l-2.1-2.4c22.2-7.5 43.2-18.5 62.3-32.2-.7-.5 8.2-6.1 8.7-8 .5-1.9.4-3.5-.5-4.6-.5-1.7-1.4-3.3-2.5-4.1l-.2-.3c-20.6-15.7-43.6-27.9-67.9-36.1l2-2.5c16.3-20.1 22.2-41.9 22.2-62.8 0-20.2-5.6-39.8-13.1-56.5.6-.5 4.3-3.3 3.8-10.3 0-5.3-.8-14.6-2.8-25.3-1.4-7.2-3.4-15.7-6.4-24.5 5.2-1 9.5-5.7 9.8-11.1.2-2.9.3-6.1.3-9.6 0-16.2-2.5-40.3-10.8-63.3l.2-13.2c.6-49 4.3-139.5 40.9-142.1 7.6-.5 11.5-7 11.5-12.4 0-3.9-1.8-8.2-6.2-10.6-8.8-5.1-17.4-7.5-25.9-7.5-17.6 0-31.8 10.7-42.5 25.5-1.9-3.9-4.9-8.2-7.7-11.9-14.9-19.7-49.8-53.4-79.3-53.4-21 0-35.1 16-39.7 47.5-2 12.3 3.7 15.6 11.5 15.6 4.5.2 10.9-7.5 16.6-8.2 20.4 0 49.6 62 59 98.7-10.4-6.3-20.4-11.2-28.5-14.5-1.5-.5-3.1-.9-4.9-.9-6.5 0-10.2 4.8-11.3 8.7-.5 1.4-.6 2.8-.6 4.1 0 3.2 3.2 7.1 6 10.1 23.2 23.2 33.2 56.1 33.2 88v1.1c-12 .6-15 2-22.1 4.5-37.5 13.1-48.6 37.7-52 60.3-.1.8-5.9 21.2 12.5 18.1 3 0 5.3-1.1 7.3-2.6 17.4-12.5 33.4-17.3 47.7-17.3 12 0 23 3.4 32.5 8.8 0 0 4.6 11.8 3.2 28.5 0 55.3-38.8 100.6-58.8 118.4l-13.2 11.9c-41.2 5.3-80.5 21.5-113.8 46.8l-8.8 6.6 8.8 6.7c33.4 25.5 72.9 41.4 114.1 46.6l13.1 11.8c19.9 17.8 58.8 63.1 58.8 118.4.5 11.8-3.2 28.5-3.2 28.5-9.5 5.3-20.6 8.8-32.5 8.8-14.3 0-30.5-4.8-47.9-17.3-2-1.5-4.6-2.6-7.5-2.6-14.7.3-13.1 17.2-13 18 3.3 22.6 15.5 47.2 52.9 60.3 7.1 2.5 10 4 22 4.5v1.1c0 31.9-9.9 64.8-33.1 88-2.9 2.9-5.1 6.8-5.1 10 0 1.3-.2 2.7.2 4.1 1.1 3.9 4.6 8.8 11.2 8.8 1.7 0 3.3-.4 4.8-.9 8.1-3.3 18-8.1 28.4-14.4-9.4 36.7-38.6 98.7-59 98.7-2.1 0-5-.8-8.4-4.4-1.8-1.8-4.6-3.7-8.2-3.7-7.8 0-12.2 6.8-11.5 15.6 4.5 31.4 18.6 47.4 39.6 47.4 10.5 0 21.2-4.1 30.9-9.7 21.7-12.4 42.6-34.6 52.2-48.8 1.3-2.1 2.7-4.4 3.9-6.8 10.7 14.8 24.8 25.5 42.5 25.5 8.4-.2 17.1-2.7 25.8-7.7zm-5.9-964.6c3.2 2.2 2.1 7.3-1.8 7.6-46.4 3.3-48 107.4-48.6 150.2-8.9-20.4-20.9-36-37.8-47.4 0-30.2 27.3-144.6 88.2-110.4zm-177.1-.8c-2.8 2.7-6.4-.8-5.5-5 14-96.6 111.4 8.5 112.3 24.5-13.2 17.4-25.2 53.4-23.8 81.4-8.8-42.5-47.5-139.8-83-100.9zM353 622.9c-3.2-3.2-1.5-10.4 3.9-8.3 21.1 8.5 54.5 27.5 73.6 57.6 19.9 31 23 73.8 21.6 93.3-.2 3-4.7 5.3-5.9 1.7-15.2-46.3-49.2-49.2-59.6-50.4-.4-33.1-8.2-68.5-33.6-93.9zm-30.1 168.5c-5 3.6-8.1-3.2-7.4-7.6 2.9-20.4 12.2-40.4 45.5-53.6 89.7-30 94.1 116.3 89.4 99-9.5-35.9-63.9-83.7-127.5-37.8zm94.8 4.6c11.1 6 75.4 90.3 22.9 155.3-24.2-6.7-51.9-11.6-82.4-8.7 23-20.5 71.6-77.7 59.5-146.6zm-187.2 204.8c36.3-27.6 79.6-43.9 124.6-46.8 1.8-.1 3.5-.3 5.3-.4 2-.1 4.1-.1 6.1-.1 5.4-.1 10.9-.1 16.3.2 44.9 2.8 88.2 18.7 124.1 45.7.2.1.3.2.4.3-1.9 1.3-3.9 2.8-6.4 5-30.7 21.6-66.1 35.4-103.3 40-2.4.3-4.8.8-7.2 1.3-2.3.5-4.6.8-7 .9-.2 0-.4 1-.5 1h-.2c-54.5.1-108.5-14-152.2-47.1zm127.5 54.9c44.3 5 82.4-9.2 82.6-9.2 53.6 63.4-11.6 154.8-22.7 160.7 12.2-68.8-33.5-131.5-59.9-151.5zm3.1 217.4c-33.3-13.2-42.5-33.3-45.6-53.6-.7-4.4 3.3-12.6 8.3-9 63.6 45.9 117.1-.5 126.6-36.4 4.7-17.3.4 129-89.3 99zm-4 115.7c-5.3 2.1-7.1-5.1-3.8-8.3 25.4-25.4 33.1-60.9 33.6-93.8 10.4-1.3 44.4-4.2 59.6-50.4 1.2-3.7 5.7-1.4 5.9 1.6 1.5 19.5-1.7 62.2-21.6 93.3-19.2 30-52.6 49.1-73.7 57.6zm-47.3 98.2c-.7-3.8 2.2-8.5 5.5-5 33 34.4 75.4-67.1 82.9-104.9-1.4 28 10.7 67.9 23.8 85.3-4.3 15.9-97 118.6-112.2 24.6zm94.4-116.2c16.8-11.3 28.9-27 37.8-47.4.6 42.8 2.2 146.9 48.6 150.3 4 .3 5 5.3 1.9 7.6-61 34.1-88.3-80.2-88.3-110.5zM522.9 415.4c2.1 1.3 4.4 2.7 6.8 4-14.9 10.7-25.5 24.7-25.5 42.5 0 8.4 2.5 17.1 7.6 25.8 2.4 4.3 6.6 6.1 10.6 6.1 5.4 0 11.9-4 12.4-11.5 2.6-36.6 93.1-40.2 142-40.9l13.2-.2c22.9 8.3 47.1 10.8 63.3 10.8 3.5 0 6.8-.1 9.6-.3 5.4-.4 10.1-4.7 11.1-9.9 8.9 3.1 17.3 5.1 24.5 6.5 10.7 2 19.9 2.9 25.2 2.9 8.6 1.3 9.9-3.2 10.3-3.8 16.7 7.6 36.3 13.2 56.5 13.2 20.9 0 42.8-6 62.9-22.2l2.4-2.1c8.2 24.3 20.4 47.2 35.9 67.8l6.7 8.7 6.6-8.7c15.7-20.7 27.9-43.6 36.1-67.9l2.5 2c20.1 16.3 41.9 22.2 62.9 22.2 20.2 0 39.8-5.6 56.5-13.2.5.6 3.3 4.3 10.3 3.8 5.4 0 14.6-.8 25.3-2.8 7.2-1.4 15.7-3.4 24.5-6.4 1 5.2 5.7 9.5 11 9.8 2.9.2 6.1.3 9.6.3 16.2 0 40.3-2.5 63.3-10.8l13.2.2c49 .6 139.5 4.3 142 40.9.5 7.5 7 11.5 12.4 11.5 3.9 0 8.2-1.8 10.6-6.2 5.1-8.8 7.5-17.4 7.5-25.9 0-17.6-10.7-31.8-25.5-42.5 3.9-1.9 8.2-4.9 11.9-7.6 19.7-14.9 53.4-49.8 53.4-79.3 0-21-16-35.1-47.5-39.7-12.3-2-15.6 3.7-15.6 11.5-.2 4.5 7.5 11 8.1 16.6 0 20.4-62 49.7-98.7 59 6.4-10.4 11.2-20.4 14.5-28.5.5-1.5.9-3.1.9-4.9 0-6.5-4.8-10.2-8.7-11.3-1.4-.5-2.8-.6-4.1-.6-3.2 0-7.1 3.4-10 6.2-23.2 23.2-56.1 33.4-88 33.4h-1.1c-.6-12-2-15.2-4.5-22.3-13.1-37.5-37.7-48.7-60.3-52.1-.8-.1-21.2-5.9-18.1 12.4 0 3 1.1 5.3 2.6 7.3 12.5 17.4 17.3 33.4 17.3 47.7 0 12-3.4 23-8.8 32.5 0 0-11.7 4.6-28.5 3.2-55.3 0-100.6-38.8-118.4-58.8l-11.9-13.2c-5.2-41.2-21.5-80.5-46.8-113.9l-6.6-8.8-6.7 8.8c-25.4 33.4-41.4 72.9-46.6 114.1l-11.8 13.1c-17.8 19.9-63.1 58.8-118.4 58.8-11.8.5-28.5-3.2-28.5-3.2-5.3-9.5-8.8-20.6-8.8-32.5 0-14.3 4.8-30.5 17.3-47.9 1.5-2 2.6-4.6 2.6-7.5-.2-14.7-17.2-13.1-18-13-22.6 3.3-47.2 15.7-60.3 53.1-2.5 7.1-4 10.3-4.5 22.3h-1.1c-31.9 0-64.8-10.1-88-33.3-2.9-2.9-6.8-5.2-10-5.2-1.3 0-2.7-.3-4.1.1-3.9 1.2-8.7 4.5-8.7 11.1 0 1.7.4 3.3.9 4.8 3.3 8.1 8.1 18 14.4 28.4-36.7-9.3-98.7-38.6-98.7-59 0-2.2.8-5 4.4-8.4 1.8-1.8 3.7-4.6 3.7-8.2 0-7.8-6.8-12.2-15.6-11.5-31.4 4.5-47.4 18.6-47.4 39.6 0 10.5 4.1 21.1 9.7 30.8 12.5 21.7 34.6 42.6 48.8 52.2zm1.8 64.7c-.3 4-5.3 5-7.6 1.9-34.2-60.9 80.2-88.2 110.4-88.2 11.3 16.8 27 28.8 47.4 37.8-42.7.5-146.9 2.1-150.2 48.5zm951.6 1.7c-2.2 3.2-7.3 2.1-7.5-1.9-3.3-46.4-107.4-48-150.2-48.6 20.4-8.9 36-20.9 47.4-37.8 30.1.1 144.5 27.4 110.3 88.3zm.8-177.1c-2.7-2.8.8-6.3 5-5.5 96.6 14-8.5 111.5-24.5 112.3-17.4-13.1-53.4-25.2-81.4-23.8 42.5-8.8 139.8-47.5 100.9-83zm-195.4 71.6c32.9-.5 68.4-8.2 93.8-33.7 3.2-3.2 10.4-1.5 8.3 3.9-8.5 21.1-27.5 54.5-57.6 73.6-31 19.9-73.8 23-93.3 21.6-3-.2-5.3-4.7-1.7-5.9 46.4-15.1 49.2-49.1 50.5-59.5zm-74.7-63.8c-3.6-5 3.2-8.1 7.6-7.5 20.4 2.9 40.5 12.2 53.6 45.5 30 89.7-116.3 94.1-99 89.4 35.9-9.4 83.7-63.8 37.8-127.4zm-151.2 35.3c20.6 23 77.7 71.6 146.6 59.5-6 11.1-90.3 75.4-155.2 22.9 6.6-24.2 11.6-51.9 8.6-82.4zm-57.2-127.7c33.2 43.7 49.9 97.6 46.6 152.4-2.8 45.3-19.2 89-46.6 125.1-27.5-36.1-43.6-79.6-46.4-124.9-3.3-54.8 13.2-108.9 46.4-152.6zm-55.9 127.5c-5.1 44.3 9.2 82.4 9.2 82.6-63.4 53.6-154.7-11.6-160.7-22.7 68.8 12.2 131.5-33.5 151.5-59.9zm-217.4 3.1c13.2-33.3 33.3-42.6 53.6-45.6 4.4-.7 12.5 3.3 9 8.3-45.9 63.6.5 117.1 36.4 126.6 17.3 4.7-129 .4-99-89.3zm-115.7-4c-2.1-5.3 5.1-7.1 8.3-3.8 25.4 25.4 60.9 33.2 93.8 33.6 1.3 10.5 4.2 44.4 50.4 59.6 3.7 1.2 1.4 5.7-1.6 5.9-19.5 1.5-62.2-1.7-93.3-21.6-30-19.2-49.1-52.6-57.6-73.7zm-98.2-47.3c3.8-.7 8.5 2.2 5 5.5-34.4 33 67.1 75.4 104.9 82.9-28-1.3-67.9 10.7-85.3 23.8-15.9-4.4-118.6-97-24.6-112.2z"/><path fill="#FEBC32" d="M1069.4 634.6c.1.2 22.8 61.1 14.8 131.8 31.9-42.2 132-115.1 241.9-95.6-9.6-17.6-155.5-121.7-256.7-36.2z"/><path fill="#184A68" d="M995 527.1c-43.9 57.7-70 127.3-74.5 199.7-5.3 87.4 21.5 173.5 74.5 243.3 53-69.8 79.3-156.1 74-243.5-4.4-72.5-30.2-141.8-74-199.5z"/><path fill="#FEBC32" d="M669.5 671.2c110-19.4 201.2 58.3 234 95-4.7-48.7 3.2-92.9 13.8-131.5-103.6-83.9-238.2 18.8-247.8 36.5zM1364.4 1072.8c-.2.1-61.1 22.8-131.8 14.8 42.2 31.9 115.1 132 95.6 241.9 17.6-9.6 121.8-155.5 36.2-256.7z"/><path fill="#184A68" d="M1272.2 923.9c-87.4-5.3-173.5 21.5-243.3 74.5 69.8 53 156.1 79.3 243.5 74 72.4-4.4 141.8-30.1 199.5-74-57.6-43.9-127.3-70.1-199.7-74.5z"/><path fill="#FEBC32" d="M1232.8 907c48.7-4.7 92.9 3.2 131.5 13.9 83.8-103.7-18.8-238.3-36.5-247.9 19.4 109.9-58.3 201.1-95 234zM926.2 1367.8c-.1-.2-22.8-61.1-14.8-131.8-31.9 42.2-132 115.1-241.9 95.6 9.6 17.7 155.5 121.8 256.7 36.2z"/><path fill="#184A68" d="M1000.6 1475.3c43.9-57.7 70-127.3 74.5-199.7 5.3-87.4-21.5-173.5-74.5-243.3-53 69.8-79.3 156.1-74 243.5 4.4 72.5 30.2 141.9 74 199.5z"/><path fill="#FEBC32" d="M1326.1 1331.3c-110 19.4-201.2-58.3-234-95 4.7 48.7-3.2 92.9-13.8 131.5 103.6 83.8 238.2-18.8 247.8-36.5zM631.2 929.6c.2-.1 61.1-22.8 131.8-14.8-42.2-31.9-115.1-132-95.6-241.9-17.6 9.6-121.8 155.5-36.2 256.7z"/><path fill="#184A68" d="M530.6 999.2c-6.1 5.5-6 5.6-6.1 5.5l.1.1c2.7 2 5.4 3.8 8.2 5.7 55.8 39.9 121.9 63.8 190.6 68 87.4 5.3 173.5-21.5 243.3-74.5-69.8-53-156.1-79.3-243.5-74-66.4 4-130.1 26.2-184.6 63.5-2.7 1.9-5.4 3.8-8 5.7z"/><path fill="#FEBC32" d="M762.8 1095.4c-48.7 4.7-92.9-3.2-131.5-13.8-83.8 103.7 18.8 238.3 36.6 247.9-19.5-110 58.2-201.2 94.9-234.1z"/></svg>