<svg xmlns:xlink="http://www.w3.org/1999/xlink"  version="1" xmlns="http://www.w3.org/2000/svg" viewBox="0 0 150 150"><g fill="#15A096"><path d="M37.8 69.3c-13.9-9-15.9-24.5-15.3-35.9-9.3 11.4-15 26-15 41.8 0 10.2 2.3 19.9 6.5 28.5.1-.9 0-1.6 0-1.6v-.4c3.7-21.3 14.2-29.5 23.8-32.4zM63.1 109.5c-6.3 6.4-14.5 9.6-24.4 9.6-6.2 0-12.1-1.3-16.7-2.8 12.1 15.2 30.7 24.9 51.6 24.9 3.2 0 6.4-.2 9.5-.7-15.5-9.5-19.9-21.1-20-31zM114.1 49.9c9.9 1.6 18.5 7.8 24.4 13.2-3.1-16.9-12.7-31.5-26.1-41.3 4.3 10.6 4.9 20 1.7 28.1zM38.6 19.3c13.4.3 23.4 4.2 29.8 11.8C72.8 21 81.7 14.8 89.6 11.2c-5.1-1.3-10.5-2-16-2-12.9 0-24.9 3.7-35 10.1zM110.9 97.4c-1.1 0-2.2-.1-3.3-.2 3.9 5.5 5.7 11.6 5.4 18-.3 6-2.3 11.5-4.9 16.2 16.6-10.2 28.3-27.6 30.9-47.8-8.8 9.1-18.3 13.8-28.1 13.8z"/></g><g fill="#F57D20"><path d="M139.3 68.9c-5.7-6-16.2-14.9-27.9-15.8l-2.6-.2 1.2-2.3c4.5-8.9 3.4-19.8-3.1-32.4-.1-.1-.1-.2-.2-.4-.6-.8-3-3.9-3.5-7.5-1.8.4-4.7 1.2-8.1 2.5-8.7 3.3-20.6 9.9-24.5 22.4l-1.1 3.5-2-3.1C61.6 26.9 51.1 22.5 36 22.8c-.4.1-1.5.3-2.9.4h-1c-1.6 0-3.1-.2-4.4-.7-.4 1.5-.9 3.8-1.3 6.6-1.6 11.3-1.2 30.5 17 39.3l.9.4c0-.5.1-1 .3-1.4.7-1.3 2.3-1.7 3.6-1 .6.3 1 .9 1.2 1.5L61.1 70c.6-2.4 1.5-4.5 2.8-6.4L50.6 50.7c-1.6 1.4-4 1.7-6 .6-2.5-1.4-3.4-4.6-2-7.1s4.6-3.4 7.1-2c2.4 1.4 3.3 4.3 2.2 6.8l13.2 12.9c2.1-2.5 4.8-4.3 7.8-5.3l-2.1-12.2c-.3 0-.6-.1-.9-.3-1.3-.7-1.7-2.3-1-3.6.7-1.3 2.3-1.7 3.6-1 1.3.7 1.7 2.3 1 3.6-.2.3-.4.6-.6.8L75 56c1.6-.3 3.2-.4 4.8-.2 1.6.2 3.2.6 4.6 1.3l7.7-16.7c-2.5-1.4-3.4-4.6-2-7.1s4.6-3.4 7.1-2 3.4 4.6 2 7.1c-1.1 1.9-3.1 2.8-5.1 2.6l-7.8 17.1c2.3 1.4 4.3 3.4 5.7 5.7l11.4-3.9c.1-.2.1-.4.2-.6.7-1.3 2.3-1.7 3.6-1 1.3.7 1.7 2.3 1 3.6-.7 1.3-2.3 1.7-3.6 1-.4-.2-.7-.5-.9-.8L93 65.8c1.2 2.7 1.9 5.7 1.8 8.9l17.4.8c.1-.3.2-.6.4-.9 1.4-2.5 4.6-3.4 7.1-2s3.4 4.6 2 7.1-4.6 3.4-7.1 2c-1.6-.9-2.5-2.5-2.7-4.1l-17.4-.8c-.4 2.7-1.4 5.3-2.7 7.4l10.3 6.6c.8-.7 2-.9 3-.3 1.1.6 1.6 1.9 1.2 3.1 11.6 1.8 22.7-3.5 33.1-15.7 1.2-1.4 2.4-2.9 3.6-4.6-.6-1-2-2.5-3.7-4.4z"/><path d="M97.9 91.5l2.4.6-9.7-6.2c-.4.5-.8.9-1.2 1.4l1.9 2-2.3-1.5c-1.7 1.7-3.7 3-5.9 3.8l6.5 16.8c.7.1 1.5.3 2.1.6 2.5 1.4 3.4 4.6 2 7.1s-4.6 3.4-7.2 2c-2.5-1.4-3.4-4.6-2-7.1.6-1.2 1.7-2 2.8-2.4l-6.4-16.5c-1.7.4-3.6.5-5.5.3-1.3-.1-2.4-.4-3.6-.8l-4.1 8.9c.8.8 1.1 2.1.5 3.2-.3.6-.8 1-1.4 1.2-1.8 14.4 5.4 26 21.5 34.5 2.1 1.1 4.4 2.2 6.8 3.2 1.3-1.3 3.9-4.1 6.6-7.9 3.6-5.2 7.3-12.2 7.6-19.8.3-7-2.2-13.4-7.5-19.2l-3.9-4.2zM62.5 83.1l-14.4 6.6c.4 1.4.3 2.9-.4 4.2-1.4 2.5-4.6 3.4-7.1 2s-3.4-4.6-2-7.1 4.6-3.4 7.1-2c.5.3 1 .7 1.3 1.1l14.6-6.7c-1-2.7-1.4-5.8-1-8.9v-.1L49.1 70c-.2.3-.4.6-.7.8l.2.1-.4.1c-.5.3-1.2.4-1.8.3l-3.4.5c-13.8 2-22.3 12.2-25.4 30.3 0 .8 0 3.6-1 6.4-.2.6-.5 1.2-.8 1.7.7.3 1.5.7 2.5 1.1 4.6 1.8 12.2 4.3 20.4 4.3 10.6 0 18.9-4.1 24.9-12.1-.3-.7-.3-1.5.1-2.2.4-.8 1.2-1.3 2.1-1.3l4.2-9.1c-3.2-1.7-5.8-4.5-7.5-7.8z"/></g></svg>