<svg xmlns:xlink="http://www.w3.org/1999/xlink"  version="1" xmlns="http://www.w3.org/2000/svg" viewBox="0 0 150 150"><path fill="none" d="M100.3 104.5h.3c-.1 0-.2-.1-.3-.2-.1.2-.1.2 0 .2zM61.9 111.6c.1.1.1.2.1.2v-.3c-.1 0-.2 0-.1.1zM49.6 45.1h-.3c.1 0 .2.1.3.2.1-.1.1-.2 0-.2zM103.2 79.3l1.4 1.3s-1.3-2.3-.4-5l.8 1.2s.3-3.3 1.3-4.6c0 0 .9 1.7.9 1.1 0-.6.4-2.6 2.5-4.5l.4 1.5s.2-.8.9-1.7c-.5-5.6-2.2-12-6.8-16.7-6.3 4.3-11.2.8-11.2.8l1.8-.6s-2.6 0-4.5-2.2l1.4-.1s-2.7-1.9-3.4-3.4c0 0 1.9.1 1.4-.2-.5-.3-2-1.7-2.6-4.4l1.4.4s-.5-.6-1.1-1.6c-5.1-2.4-11.5-4.1-17.9-2.4.6 7.7-4.9 10.1-4.9 10.1l.4-1.8s-1.3 2.3-4.1 2.8l.6-1.3s-3 1.4-4.6 1.2c0 0 1-1.6.5-1.3-.5.3-2.4.9-5.2 0l1.1-1.1s-.8.2-1.9.1c-4.6 3.3-9.3 7.9-11 14.3 6.9 3.3 6.3 9.3 6.3 9.3l-1.4-1.3s1.3 2.3.4 5l-.8-1.2s-.3 3.3-1.3 4.6c0 0-.9-1.7-.9-1.1 0 .6-.4 2.6-2.5 4.5l-.4-1.5s-.2.8-.9 1.7c.5 5.6 2.2 12 6.8 16.7 6.3-4.3 11.2-.8 11.2-.8l-1.8.6s2.6 0 4.5 2.2l-1.4.1s2.7 1.9 3.3 3.4c0 0-1.9-.1-1.4.2.5.3 2 1.7 2.6 4.4l-1.4-.4s.5.6 1.1 1.6c5.1 2.4 11.5 4 17.9 2.4-.6-7.7 4.9-10.1 4.9-10.1l-.4 1.8s1.3-2.3 4.1-2.8l-.6 1.3s3-1.4 4.6-1.2c0 0-1 1.6-.5 1.3.5-.3 2.4-.9 5.2 0l-1.1 1.1s.8-.2 1.9-.1c4.6-3.3 9.3-7.9 11-14.3-6.8-3.3-6.2-9.3-6.2-9.3zM46.4 62.5l-.1.6c-.9-.7-1.1-1.5-1.2-1.7 0-.2-.3.5-.3.5-.4-.5-.7-1.8-.7-1.8l-.3.5c-.5-1 0-2 0-2l-.5.5s-.4-2.2 2-3.8c.1 1.5.4 3 1.1 4.6.4.9.9 1.7 1.5 2.5-.4-.6-.8-1.2-1.1-1.9-.9-1.9-1.2-3.8-1-5.5 3.3-.7 4.5 1.6 4.5 1.6l-.7-.1s.9.5 1.2 1.6l-.5-.2s.6 1.1.6 1.8c0 0-.6-.4-.5-.2.1.2.4.9.2 2l-.4-.4s.3.9-.1 2c0 0-.4-.6-.4-.4.1.6-.4 1.7-.4 1.6 0 .1-1-.4-1.4-1-.1-.1 0 .6 0 .6-1.1-.5-1.5-1.4-1.5-1.4zm5.1 30.1c-.2 0 .5.3.5.3-1 .6-1.9.4-1.9.4l.5.4c-1 .4-1.8.2-2 .2-.2-.1.2.5.2.5-.6.1-1.9-.3-1.9-.3l.3.5c-1.1-.1-1.7-1-1.7-1l.2.7s-2.2-.7-2.3-3.6c1.3.7 2.9 1.2 4.5 1.3 1 .1 2 .1 2.9-.1-.7.1-1.4.1-2.2 0-2.1-.2-3.9-.9-5.3-1.9 1.1-3.1 3.7-3 3.7-3l-.5.6s.9-.6 1.9-.3l-.4.3s1.3 0 1.8.4c0 0-.6.4-.4.4.2 0 1 .1 1.8.9l-.6.2s.9.2 1.6 1.1c0 0-.7.1-.6.1.6.3 1.2 1.1 1.2 1.2.2.1-.7.7-1.3.7zm19.3-46.7c0-1.1.6-1.9.6-1.9l-.6.2c.2-1.1.7-1.7.9-1.8.2-.1-.5 0-.5 0 .2-.6 1.2-1.5 1.2-1.5h-.6c.7-.9 1.7-1 1.7-1l-.7-.2s1.7-1.5 4.3-.1c-1.2.8-2.4 1.9-3.4 3.3-.6.8-1 1.7-1.4 2.5.3-.6.7-1.3 1.1-1.9 1.2-1.7 2.7-2.9 4.2-3.6 2.2 2.5.8 4.7.8 4.7l-.3-.7s.1 1-.7 1.8l-.1-.6s-.7 1.1-1.2 1.4c0 0 0-.7-.1-.5-.1.2-.6.8-1.7 1.1l.1-.6s-.6.7-1.8.9c0 0 .3-.7.2-.6-.5.4-1.6.5-1.6.4-.1 0-.1-1.1.2-1.7l-.6.4zm8.3 59.5c-.2 1.1-.7 1.7-.9 1.8-.2.1.5.1.5.1-.2.6-1.2 1.6-1.2 1.6h.6c-.7 1-1.7.9-1.7.9l.7.1s-1.7 1.5-4.3.1c1.2-.8 2.4-1.9 3.4-3.3.6-.8 1-1.7 1.4-2.5-.3.6-.7 1.3-1.1 1.9-1.2 1.7-2.7 2.9-4.2 3.6-2.2-2.5-.8-4.7-.8-4.7l.3.7s-.1-1 .7-1.8l.1.6s.7-1.1 1.3-1.4c0 0 0 .7.1.5.1-.2.6-.8 1.7-1.1l-.1.6s.6-.7 1.8-.9c0 0-.3.7-.2.6.5-.4 1.6-.5 1.6-.4.1 0 .1 1.1-.2 1.7-.1.1.5-.3.5-.3 0 1.1-.6 1.9-.6 1.9l.6-.3zm18.4-46.3s.7-.1.6-.1c-.6-.3-1.2-1.1-1.2-1.2 0-.1.9-.7 1.5-.7.2 0-.5-.3-.5-.3 1-.6 1.9-.4 1.9-.4l-.5-.4c1-.4 1.8-.2 2-.2.2.1-.2-.5-.2-.5.6-.1 1.9.3 1.9.3l-.3-.5c1.1.1 1.7 1 1.7 1l-.2-.7s2.2.7 2.3 3.6c-1.3-.7-2.9-1.2-4.5-1.3-1-.1-2-.1-2.9 0 .7-.1 1.4-.1 2.2 0 2.1.2 3.9.9 5.3 1.9-1.1 3.2-3.6 3.1-3.6 3.1l.5-.6s-.9.6-1.9.3l.4-.4s-1.3 0-1.8-.4c0 0 .6-.4.4-.4-.2 0-1-.1-1.8-.9l.6-.2c-.3.1-1.2-.1-1.9-1zM106 91l.5-.5s.4 2.2-2 3.8c-.1-1.5-.4-3-1.1-4.6-.4-.9-.9-1.7-1.5-2.5.4.6.8 1.2 1.1 1.9.9 1.9 1.2 3.8 1 5.5-3.3.7-4.5-1.6-4.5-1.6l.7.1s-.9-.5-1.2-1.6l.5.2s-.6-1.1-.6-1.8c0 0 .6.4.5.2-.1-.2-.4-.9-.1-2l.4.4s-.3-.9.1-2c0 0 .4.6.4.4-.1-.6.4-1.7.4-1.6 0-.1 1 .4 1.4 1 .1.1 0-.6 0-.6 1 .6 1.3 1.5 1.3 1.5l.1-.6c.9.7 1.1 1.5 1.2 1.7 0 .2.3-.5.3-.5.4.5.7 1.8.7 1.8l.3-.5c.5 1 .1 1.9.1 1.9zM88 38c-.1-.1-.1-.2-.1-.2v.3c.1 0 .1 0 .1-.1zM36.5 81.9c0 .1-.1.2-.1.2.1 0 .2-.1.3-.2-.1 0-.1-.1-.2 0zM113.3 67.7c0-.1.1-.2.1-.2-.1 0-.2.1-.3.2.2.1.2.1.2 0z"/><path fill="#5F473B" d="M34 126.5c-1.2.2-2 1.3-1.8 2.4.2 1.2 1.3 2 2.4 1.8 1.2-.2 2-1.3 1.8-2.4-.1-1.1-1.2-1.9-2.4-1.8z"/><circle fill="#5F473B" cx="21.7" cy="102.3" r="1.9"/><path fill="#679D41" d="M35.2 106.6c.1-.2.2-.5.2-.7 0 .1-.3.6-.7 1.4 1.4 2.8 1.7 5.3.5 7-.1.1-.2.2-.2.3 1-1.6.7-4-.6-6.6-.5.8-1.1 1.8-1.9 3 .9 2.6.7 5.3-.8 7.4-.1.1-.2.2-.3.4 1.2-2.1 1.3-4.6.5-7.1-.7 1-1.6 2.1-2.5 3.3.4 1.8.2 3.6-.8 5-.1.1-.1.2-.2.2.9-1.4 1.1-3.1.7-4.8-1.3 1.5-2.8 3.2-4.5 5 1.4-1.7 2.6-3.3 3.8-4.9-1.8 0-3.5.8-4.6 2.1.1-.1.1-.2.2-.3 1.1-1.5 2.9-2.3 4.8-2.3.9-1.2 1.7-2.3 2.4-3.4-2.7-.1-5.2.8-6.9 2.7.1-.1.2-.3.3-.4 1.6-2.1 4.3-3.1 7.1-3 .7-1.1 1.3-2 1.8-2.8-2.8-.4-5.1.1-6.3 1.5.1-.1.1-.2.2-.3 1.1-1.6 3.5-2.1 6.5-1.8.8-1.3 1.3-2 1.3-2-6.4-3.5-10.3.6-10.3.6l1.6.2s-2.2.4-3.5 2.5l1.2-.1s-2 2-2.3 3.4c0 0 1.6-.3 1.2 0-.4.3-1.4 1.7-1.6 4.1l1.2-.5s-1.2 1.7-1 4.2c0 0 1.3-1 1.1-.7-.8 1.8 0 3.9 0 3.9.2 0 2.2.1 3.7-1.2.3-.2-.3 1.3-.3 1.3 2.4-.6 3.7-2.2 3.7-2.2l-.2 1.3c2.3-.9 3.3-2.3 3.5-2.8.2-.5.4 1.1.4 1.1 1.2-.7 2.5-3.3 2.5-3.3l.3 1.2c1.6-1.9 1.3-4.1 1.3-4.1l.7 1.4s2.2-4.2-1.6-8.8l-.3.9c-.9.2-.8 0-1.3-1.3zM62 111.9c0-.1-.1-.2-.1-.2-.1-.1 0-.1.1-.1 0-.9 0-2 .1-2.6.1.1.2.1.3.2-.5-1-1.1-1.6-1.1-1.6l1.4.4c-.6-2.8-2.1-4.1-2.6-4.4-.5-.3 1.4-.2 1.4-.2-.6-1.5-3.3-3.4-3.3-3.4l1.4-.1c-1.9-2.2-4.5-2.2-4.5-2.2l1.8-.6s-4.9-3.5-11.2.8c.2.2.4.5.7.7.1.1.2.1.2.2-.3.1-.7.3-1 .4-.1-.1-.2-.1-.2-.2.3.4.8.9 1.4 1.6 3.3-1 6.1-.9 7.8.7l.3.3c-1.7-1.4-4.4-1.4-7.5-.5.7.8 1.6 1.8 2.7 2.8 3.3-.7 6.5 0 8.8 2.1l.4.4c-2.3-1.8-5.3-2.4-8.4-1.7 1 1.1 2.2 2.2 3.4 3.4 2.2-.3 4.4.2 6 1.8.1.1.2.2.2.3-1.5-1.3-3.6-1.8-5.7-1.5 1.7 1.6 3.4 3.3 5.3 4.9-2.3-1.7-4.4-3.3-6.1-4.8-.2 2 .4 3.9 1.7 5.3-.1-.1-.2-.1-.3-.2-1.5-1.4-2.1-3.4-1.9-5.6-1.4-1.2-2.5-2.3-3.5-3.3-.4 3 .2 5.9 2 8-.1-.1-.3-.2-.4-.4-2.1-2.2-2.8-5.2-2.3-8.4-1.2-1.2-2.1-2.3-2.8-3.1-.9 3.2-.8 6 .6 7.7-.1-.1-.2-.2-.3-.2-1.7-1.6-1.9-4.6-.8-8.1-.8-1-1.1-1.5-1.1-1.5-5.1 6.8-1.1 12-1.1 12l.5-1.8s0 2.6 2.3 4.4l.1-1.4s1.9 2.7 3.5 3.3c0 0-.1-1.9.2-1.4.3.5 1.7 1.9 4.5 2.5l-.4-1.4s1.8 1.6 4.7 1.8c0 0-.9-1.6-.6-1.4 1.9 1.2 4.3.7 4.5.7 0 0 .3-1.8-.3-3.5-.1 0-.2-.1-.3-.1-.5-.3-.5-.6-.5-.8zM49.2 122.5c.1-.9-.8-2.6-.8-2.6l.8.3c-.4-1.6-1.7-2.2-1.7-2.2l1 .2s-1.7-3.3-6.5-2.3c0 0 .2.3.5 1 2 .3 3.5 1.1 4 2.4 0 .1 0 .1.1.2-.5-1.1-1.9-1.9-3.8-2.2.3.6.6 1.3.9 2.2 1.8.5 3.1 1.6 3.8 3.2 0 .1.1.2.1.3-.7-1.4-2-2.5-3.7-3 .3.8.6 1.6.9 2.6 1.1.4 2 1.2 2.4 2.3 0 .1 0 .1.1.2-.4-1-1.3-1.8-2.3-2.2.4 1.3.7 2.7 1 4.3-.4-1.4-.8-2.7-1.2-3.9-.7 1-.9 2.2-.6 3.3 0-.1-.1-.1-.1-.2-.4-1.2-.2-2.4.5-3.5-.3-.9-.6-1.8-.9-2.6-1.1 1.5-1.5 3.2-1.2 4.8 0-.1-.1-.2-.1-.3-.5-1.7-.1-3.5 1.1-5-.3-.8-.6-1.5-.8-2.1-1.3 1.4-1.9 2.8-1.6 4 0-.1-.1-.1-.1-.2-.4-1.2.2-2.7 1.5-4.2-.4-.9-.6-1.5-.6-1.5-4.3 2.2-3.6 5.9-3.6 5.9l.7-.8s-.6 1.3 0 2.8l.4-.7s.3 1.9.9 2.6c0 0 .4-1 .5-.7 0 .3.4 1.4 1.7 2.4l.1-.9s.5 1.3 1.9 2.1c0 0-.1-1.1.1-.9.7 1.1 2.1 1.5 2.1 1.5.1-.1.9-1.2.7-2.5 0-.2.6.6.6.6.6-1.5.2-2.9.2-2.9l.6.6c.4-1.6 0-2.7-.2-2.9-.4 0 .6.5.6.5zM51.8 90.7c-.1-.1.6-.1.6-.1-.7-.9-1.6-1.1-1.6-1.1l.6-.2c-.8-.8-1.6-.9-1.8-.9-.2 0 .4-.4.4-.4-.5-.4-1.8-.4-1.8-.4l.4-.4c-1.1-.3-1.9.3-1.9.3l.3-.5s-2.6-.1-3.6 3.1c1.4 1 3.2 1.7 5.3 1.9.7.1 1.5.1 2.2 0-.9.1-1.9.1-2.9.1-1.7-.2-3.2-.6-4.5-1.3.1 2.9 2.3 3.6 2.3 3.6l-.2-.7s.6.9 1.7 1l-.3-.5s1.2.5 1.9.3c0 0-.4-.6-.2-.5.2.1 1 .3 2-.2l-.7-.5s.9.1 1.9-.4c0 0-.6-.3-.5-.3.7 0 1.6-.6 1.5-.7.2-.1-.5-.9-1.1-1.2zM60.5 126.2c-.3-.9-1-1.4-1-1.4h.5c-.4-.9-1-1.2-1.2-1.3-.2-.1.4-.2.4-.2-.3-.5-1.4-.9-1.4-.9l.5-.1c-.8-.6-1.7-.4-1.7-.4l.6-.3s-2-.9-3.9 1.3c.8 1.2 2 2.4 3.6 3.2.6.3 1.2.5 1.7.7-.8-.2-1.6-.5-2.3-.9-1.3-.7-2.4-1.5-3.3-2.5-.8 2.4.7 3.6.7 3.6v-.6s.2.9 1.1 1.3l-.1-.5s.8.8 1.4.8c0 0-.2-.6 0-.5.1.1.7.5 1.7.5l-.2-.5s.7.4 1.7.3c0 0-.4-.5-.3-.4.5.2 1.5 0 1.5-.1.1 0-.2-.9-.6-1.3 0 .1.6.2.6.2zM26.5 100.5c0 .1 1.1.3 1.7.1.1-.1-.3.5-.3.5 1.1.2 1.9-.3 1.9-.3l-.3.5c1.1 0 1.8-.5 1.9-.6.2-.2 0 .5 0 .5.6-.1 1.6-1 1.6-1l-.1.6c1-.5 1.2-1.5 1.2-1.5l.1.7s1.7-1.5.7-4.2c-.9 1.1-2.2 2.1-3.7 2.9-.9.5-1.8.8-2.7 1 .7-.2 1.3-.5 2-.8 1.8-1 3.3-2.3 4.2-3.7-2.2-2.5-4.5-1.5-4.5-1.5l.6.4s-1-.2-1.9.5l.5.2s-1.2.5-1.6 1c0 0 .7.1.5.2-.2.1-.9.5-1.4 1.5h.6s-.8.5-1.1 1.6c0 0 .7-.2.6-.1-.3.4-.6 1.5-.5 1.5z"/><path fill="#5D9641" d="M46.7 98.7c-.1-.1-.2-.1-.2-.2-.2-.2-.5-.4-.7-.7-4.6-4.7-6.3-11-6.8-16.7-.5.7-1.2 1.5-2.2 2.2 0 0 0-1-.1-1.4-.1.1-.2.1-.3.2-.2.3-.3.5-.5.7v.2h-.1c1.4 8.6 2.7 13.5-.4 22.8-.1.2-.1.5-.2.7.5 1.3.4 1.5 1.1 1.3l.3-.9c1.6-5.1 2.9-8.3 2.4-15.3 1.2 2 2.7 3.8 4.4 5.5.6.6 1.3 1.1 2 1.6.1.1.2.1.2.2.4.1.8 0 1.1-.2z"/><path fill="#5F473B" d="M6.7 64.9c-.9.7-1.1 2.1-.3 3 .7.9 2.1 1.1 3 .3.9-.7 1.1-2.1.3-3-.7-.9-2.1-1-3-.3zM25.8 43.8c.7-.7.7-1.9 0-2.7-.7-.7-1.9-.7-2.7 0-.7.7-.7 1.9 0 2.7.8.7 2 .7 2.7 0z"/><path fill="#679D41" d="M27.5 56.3c.3 0 .5-.1.7-.2-.1 0-.6.1-1.6.1-1.7 2.6-3.8 4.1-5.8 3.9-.1 0-.2-.1-.3-.1 1.9 0 3.8-1.4 5.4-3.8-.9 0-2.1 0-3.6-.2-1.8 2-4.3 3.2-6.8 3.1-.2 0-.3 0-.4-.1 2.4 0 4.6-1.1 6.4-3.1-1.2-.1-2.6-.3-4.1-.5-1.3 1.3-3 2-4.7 1.8-.1 0-.2 0-.3-.1 1.7.1 3.2-.6 4.5-1.8-2-.3-4.2-.8-6.6-1.4 2.1.4 4.2.6 6.2.8-1-1.6-2.4-2.7-4.1-2.9h.3c1.9.2 3.4 1.3 4.4 3 1.5.2 2.9.3 4.1.4-1.3-2.4-3.3-4.1-5.8-4.6h.4c2.6.4 4.8 2.1 6.2 4.7 1.3.1 2.4.1 3.3.2-1.1-2.6-2.6-4.3-4.4-4.7h.3c2 .2 3.6 2 4.8 4.7 1.5.1 2.4.1 2.4.1-.2-7.3-5.7-8.7-5.7-8.7l.6 1.5s-1.4-1.7-3.9-1.8l.7 1s-2.7-.8-4.1-.3c0 0 1.1 1.2.6 1-.5-.2-2.2-.4-4.4.7l1.1.7s-2.1-.1-4.1 1.3c0 0 1.5.6 1.1.6-1.9.2-3.4 2-3.4 2 .1.2 1.1 2 2.9 2.6.3.1-1.3.4-1.3.4 1.7 1.8 3.8 2.1 3.8 2.1l-1.2.5c1.9 1.5 3.7 1.7 4.1 1.6.5-.1-.8.9-.8.9 1.2.7 4.1.5 4.1.5l-.9.8c2.4.5 4.2-.9 4.2-.9l-.8 1.4s4.7-.2 6.8-5.8c-.3.1-.6.1-.9.2-.5-.4-.3-.5.6-1.6zM36.5 81.9c0-.1.1 0 .1.1.1.4.1 1.4.1 1.4 1-.7 1.7-1.5 2.2-2.2.6-1 .9-1.7.9-1.7l.4 1.5c2.1-1.9 2.5-3.9 2.5-4.5 0-.6.9 1.1.9 1.1 1-1.3 1.3-4.6 1.3-4.6l.8 1.2c1-2.7-.4-5-.4-5l1.4 1.3s.6-6-6.3-9.3c-.1.3-.2.6-.2.9 0 .1 0 .2-.1.3-.3-.2-.6-.4-.8-.7v-.3c-.2.5-.4 1.1-.7 2 2.5 2.3 3.8 4.9 3.2 7.1 0 .1-.1.2-.1.4.3-2.1-.9-4.5-3.3-6.7-.3 1-.7 2.3-1.1 3.7 2.2 2.5 3.3 5.6 2.6 8.6 0 .2-.1.3-.1.5.4-2.9-.6-5.8-2.7-8.2-.4 1.4-.8 3-1.3 4.7 1.4 1.8 2 3.9 1.5 6 0 .1-.1.2-.1.3.4-2-.2-4-1.5-5.7-.6 2.2-1.1 4.6-1.6 7.1.3-2.9.7-5.4 1.1-7.7-1.8.9-3.2 2.3-3.8 4.1 0-.1 0-.2.1-.4.5-2 1.9-3.5 3.8-4.4.3-1.8.7-3.3 1.1-4.7-2.8 1.1-5 3.1-5.9 5.7 0-.2.1-.3.1-.5.8-2.9 3.1-5 6.1-6.2.5-1.6.9-2.9 1.3-4-3.2.8-5.6 2.3-6.3 4.4 0-.1 0-.3.1-.4.6-2.3 3-3.9 6.6-4.8.5-1.2.8-1.8.8-1.8-8.5-1-10.9 5-10.9 5l1.8-.5s-2.2 1.3-2.7 4.2l1.3-.6s-1.4 3-1.1 4.6c0 0 1.5-1 1.3-.5-.3.5-.8 2.5.1 5.2l1-1.1s-.5 2.4.8 4.9c0 0 .9-1.6.9-1.2-.1 2.3 1.5 4.1 1.7 4.2 0 0 1.7-.6 2.9-2 .2-.2.4-.5.5-.7-.4.1-.3 0-.3-.1zM20.6 75.6c.2-.3.2.8.2.8.9-.4 1.8-2 1.8-2l.1.8c1.2-1.1 1.1-2.6 1.1-2.6l.4 1s2-3.1-1.2-6.8l-.6.9c.8 1.9.8 3.6-.1 4.6l-.2.2c.7-1 .7-2.6 0-4.4-.4.5-.8 1.1-1.4 1.9.4 1.8.1 3.5-.9 4.9l-.2.2c.9-1.3 1.1-3 .7-4.6-.5.6-1.1 1.3-1.9 2.1.2 1.2-.1 2.4-.8 3.3 0 .1-.1.1-.1.1.7-.9.9-2 .7-3.1-.9.9-2 2-3.3 3 1-1 1.9-2.1 2.8-3-1.2-.1-2.4.3-3.2 1.1 0-.1.1-.1.1-.2.8-.9 2-1.4 3.3-1.3.6-.7 1.2-1.5 1.8-2.1-1.8-.2-3.5.2-4.7 1.4.1-.1.1-.2.2-.2 1.2-1.3 3-1.8 4.9-1.6.5-.7 1-1.2 1.4-1.7-1.8-.4-3.4-.2-4.2.6 0-.1.1-.1.1-.2.8-1 2.5-1.2 4.4-.8.6-.8.9-1.3.9-1.3-4.1-2.6-6.9-.2-6.9-.2l1 .2s-1.5.1-2.4 1.5h.8s-1.5 1.2-1.7 2.1c0 0 1.1-.1.8.1-.3.2-1.1 1-1.3 2.7l.8-.3s-.9 1.1-.9 2.7c0 0 .9-.6.8-.4-.6 1.2-.2 2.6-.2 2.6.1 0 1.5.2 2.5-.6.2-.1-.3.8-.3.8 1.6-.2 2.6-1.3 2.6-1.3l-.2.8c1.6-.5 2.3-1.4 2.5-1.7zM47.8 64v-.6c.4.6 1.3 1.1 1.4 1 .1 0 .5-1 .4-1.6 0-.2.4.4.4.4.4-1.1.1-2 .1-2l.4.4c.3-1.1 0-1.8-.2-2-.1-.2.5.2.5.2 0-.7-.6-1.8-.6-1.8l.5.2c-.3-1.1-1.2-1.6-1.2-1.6l.7.1s-1.2-2.3-4.5-1.6c-.2 1.7.1 3.6 1 5.5.3.7.7 1.3 1.1 1.9-.6-.7-1.1-1.6-1.5-2.5-.7-1.6-1.1-3.1-1.1-4.6-2.5 1.5-2 3.8-2 3.8l.5-.5s-.4.9 0 2l.3-.5s.2 1.3.7 1.8c0 0 .3-.7.3-.5 0 .2.3 1 1.2 1.7l.1-.6c.1-.1.5.8 1.5 1.4zM19.8 85.1c0 .2-.1.9.4 1.7l.3-.4s0 .8.6 1.6c0 0 .2-.6.2-.5.1.6.7 1.3.8 1.2.1 0 .7-.6.9-1.2 0-.1.2.5.2.5.7-.7.7-1.6.7-1.6l.2.5c.6-.8.6-1.5.5-1.7 0-.2.4.3.4.3.2-.5.1-1.6.1-1.6l.4.3c.1-1-.5-1.6-.5-1.6l.5.3s-.2-2.2-3.1-2.7c-.7 1.3-1 3-.9 4.7 0 .6.1 1.3.3 1.8-.2-.8-.4-1.6-.4-2.5-.1-1.5.1-2.9.5-4.1-2.5.5-2.8 2.4-2.8 2.4l.6-.3s-.7.6-.6 1.6l.4-.3s-.2 1.1 0 1.6c-.1.2.4-.2.3 0zM28.7 47.1c.4 1.1 1.3 1.5 1.3 1.5h-.6c.6 1 1.3 1.3 1.5 1.4.2.1-.5.2-.5.2.4.5 1.7.9 1.7.9l-.5.2c1 .6 1.9.3 1.9.3l-.6.4s2.2.7 4-1.5c-1.4-.3-3-.8-4.4-1.8-.8-.5-1.6-1.1-2.2-1.8.5.5 1.1.9 1.7 1.3 1.7 1.1 3.6 1.7 5.3 1.8 1.1-3.2-1-4.7-1-4.7v.7s-.3-1-1.4-1.4l.1.6s-1-.8-1.7-.8c0 0 .3.7.1.5-.2-.1-.9-.5-2-.4l.3.5s-.9-.4-2-.1c0 0 .5.5.4.5-.6-.2-1.7.1-1.7.2-.1 0 .3 1.1.8 1.5.2.2-.5 0-.5 0z"/><path fill="#5D9641" d="M40.1 62.3c0-.1 0-.2.1-.3.1-.3.2-.6.2-.9 1.8-6.3 6.4-11 11-14.3-.9-.1-1.9-.2-3-.8 0 0 .9-.5 1.2-.8-.1-.1-.2-.1-.3-.2-.3 0-.6 0-.8-.1l-.2.2c-6.8 5.5-10.3 9-19.9 11-.2.1-.5.1-.7.2-.9 1.1-1.1 1.1-.6 1.6.3-.1.6-.1.9-.2 5.2-1.1 8.6-1.7 14.5-5.5-1.1 2-2 4.2-2.5 6.6-.2.8-.3 1.7-.4 2.5v.3c-.1.3.2.5.5.7z"/><circle fill="#5F473B" cx="48.6" cy="12.8" r="2.1"/><path fill="#5F473B" d="M77.3 16.8c1 .3 2-.4 2.3-1.4.3-1-.4-2-1.4-2.3a2 2 0 0 0-2.3 1.4 2 2 0 0 0 1.4 2.3z"/><path fill="#679D41" d="M67.2 24.5c.2.2.3.4.5.6 0 0-.3-.5-.9-1.4-3.1-.2-5.4-1.2-6.3-3.1 0-.1-.1-.2-.1-.3.9 1.6 3.1 2.6 6 2.8-.5-.8-1-1.9-1.7-3.2-2.7-.6-4.9-2.1-6.1-4.4-.1-.1-.1-.3-.2-.4 1.2 2.1 3.3 3.4 5.8 4-.5-1.1-1.1-2.4-1.6-3.8-1.8-.5-3.2-1.6-3.9-3.2 0-.1-.1-.2-.1-.3.8 1.5 2.1 2.5 3.8 3-.7-1.9-1.4-4-2.1-6.4.8 2 1.6 3.9 2.4 5.8.9-1.6 1.1-3.4.5-5 .1.1.1.2.1.3.8 1.7.6 3.6-.4 5.3.6 1.4 1.2 2.6 1.8 3.8 1.4-2.3 1.9-4.9 1.1-7.3.1.1.1.3.2.4 1 2.5.6 5.2-.9 7.7.6 1.1 1.1 2.1 1.5 3 1.7-2.2 2.5-4.4 1.9-6.2.1.1.1.2.2.3.8 1.8.1 4.1-1.7 6.5.7 1.3 1.1 2.1 1.1 2.1 6.2-3.9 4.7-9.2 4.7-9.2l-1 1.3s.8-2.1-.4-4.3l-.4.9s-.7-2.7-1.7-3.7c0 0-.5 1.5-.6 1-.1-.5-.7-2.1-2.8-3.4L65.8 9s-.9-1.9-3.1-2.9c0 0 .2 1.6 0 1.3-1.2-1.6-3.4-2-3.4-2-.1.2-1.2 1.9-.8 3.8.1.3-1-.9-1-.9-.7 2.4.1 4.3.1 4.3l-1-.8c-.4 2.4.4 4 .7 4.4.3.4-1.2-.3-1.2-.3 0 1.4 1.6 3.8 1.6 3.8l-1.2-.3c.8 2.3 2.9 3.2 2.9 3.2l-1.6-.1s2.5 4 8.4 3c-.2-.2-.4-.4-.6-.7.1-.7.3-.5 1.6-.3zM49.6 45.1c.1 0 .1.1 0 .1-.3.3-1.2.8-1.2.8 1.1.5 2.2.7 3 .8 1.2.1 1.9-.1 1.9-.1l-1.1 1.1c2.7.8 4.7.2 5.2 0 .6-.4-.4 1.2-.4 1.2 1.6.2 4.6-1.2 4.6-1.2l-.6 1.3c2.8-.5 4.1-2.8 4.1-2.8l-.4 1.8s5.5-2.4 4.9-10.1l-.9.3c-.1 0-.2.1-.3.1 0-.4.1-.7.2-1.1.1 0 .2-.1.3-.1-.5.1-1.2.2-2.1.4-.8 3.4-2.4 5.8-4.6 6.4-.1 0-.3 0-.4.1 2-.8 3.4-3.1 4.2-6.3-1.1.2-2.4.5-3.8.9-1.1 3.2-3.2 5.6-6.2 6.6-.2.1-.3.1-.5.1 2.7-1.1 4.7-3.4 5.7-6.4-1.4.4-3 .8-4.7 1.2-.8 2.1-2.4 3.7-4.5 4.3-.1 0-.2.1-.4.1 1.9-.7 3.4-2.2 4.2-4.2-2.2.6-4.5 1.4-6.9 2.2 2.6-1.2 5.1-2.1 7.3-2.9-1.7-1.1-3.6-1.6-5.5-1.2.1 0 .2-.1.3-.1 2-.6 4-.1 5.8 1.1 1.7-.6 3.2-1 4.6-1.4-2.4-1.9-5.2-2.8-7.9-2.3.2-.1.3-.1.5-.2 2.9-.7 5.9.2 8.4 2.2 1.6-.4 3-.7 4.1-.9-2.3-2.4-4.8-3.7-6.9-3.3.1 0 .2-.1.4-.1 2.3-.7 4.9.7 7.4 3.3 1.2-.2 1.9-.2 1.9-.2-3.4-7.8-9.8-7-9.8-7l1.3 1.3s-2.3-1.3-5-.2l1.2.8s-3.3.3-4.6 1.4c0 0 1.7.8 1.1.9-.6 0-2.5.5-4.4 2.6l1.5.3s-2.3.7-3.9 3.1c0 0 1.8 0 1.5.2-2 1.1-2.8 3.4-2.8 3.6 0 0 1.4 1.1 3.1 1.5.3.1.5.1.8.1.1-.1.2-.1.3-.1zM42 22.9c.1.1.6 1.4 1.8 1.9.2.1-.8.2-.8.2 1 1.3 2.4 1.6 2.4 1.6l-.8.3c1.2 1.1 2.3 1.3 2.7 1.3.3 0-.6.5-.6.5.8.5 2.7.6 2.7.6l-.6.5c1.6.5 2.8-.4 2.8-.4l-.7.8s3.7.2 5.3-4.4h-1.1c-1.3 1.6-2.7 2.5-4 2.2-.1 0-.1 0-.2-.1 1.2.1 2.6-.7 3.8-2.2-.6-.1-1.4-.1-2.4-.3-1.3 1.2-3 1.9-4.7 1.6-.1 0-.2 0-.3-.1 1.6.1 3.1-.5 4.4-1.7-.8-.1-1.7-.3-2.7-.6-.9.8-2.1 1.1-3.2.9-.1 0-.1 0-.2-.1 1.1.1 2.2-.2 3-1-1.3-.3-2.7-.8-4.3-1.3 1.4.3 2.7.6 4 .9-.6-1.1-1.4-1.9-2.6-2.2h.2c1.2.2 2.2 1.1 2.8 2.2 1 .2 1.9.3 2.7.5-.7-1.7-2-2.9-3.6-3.4h.3c1.7.4 3.1 1.7 3.8 3.4.8.1 1.6.2 2.2.3-.6-1.8-1.5-3-2.7-3.4h.2c1.3.2 2.3 1.5 2.9 3.4 1 .1 1.6.2 1.6.2.3-4.9-3.3-6.1-3.3-6.1l.3 1s-.8-1.2-2.5-1.4l.4.7s-1.8-.7-2.7-.5c0 0 .6.8.3.7-.3-.1-1.4-.4-2.9.2l.7.6s-1.4-.2-2.8.6c0 0 .9.5.7.5-1.3.5-2.3 1.6-2.3 1.6zM71.1 47.3c0 .1 1.1 0 1.6-.4.1-.1-.2.6-.2.6 1.1-.2 1.8-.9 1.8-.9l-.1.6c1.1-.3 1.6-.9 1.7-1.1.1-.2.1.5.1.5.6-.3 1.2-1.4 1.2-1.4l.1.6c.8-.8.7-1.8.7-1.8l.3.7s1.4-2.2-.8-4.7c-1.5.7-3 1.9-4.2 3.6-.4.6-.8 1.2-1.1 1.9.4-.9.8-1.7 1.4-2.5 1-1.4 2.2-2.5 3.4-3.3-2.6-1.4-4.3.1-4.3.1l.7.2s-1 .1-1.7 1h.6s-1 .8-1.2 1.5c0 0 .7-.1.5 0-.2.1-.7.7-.9 1.8l.6-.2s-.6.7-.6 1.9c0 0 .6-.4.5-.3-.2.5-.2 1.6-.1 1.6zM36.5 36c0 .1.9.3 1.5.2.1 0-.3.4-.3.4 1 .2 1.7-.1 1.7-.1l-.3.4c1 .1 1.6-.3 1.7-.4.1-.1-.1.5-.1.5.6 0 1.5-.7 1.5-.7l-.1.5c.9-.4 1.2-1.2 1.2-1.2v.6s1.8-1.3.8-4c-1.5.1-3.1.6-4.6 1.6-.5.4-1 .7-1.5 1.2.6-.6 1.2-1.1 1.9-1.6 1.2-.8 2.5-1.3 3.8-1.6-1.6-1.9-3.5-1.2-3.5-1.2l.5.3s-.9-.3-1.7.3l.5.2s-1.1.3-1.4.8c0 0 .6.2.4.2-.2.1-.8.4-1.3 1.2h.5s-.7.4-1.1 1.3c0 0 .6-.1.5 0-.3.2-.6 1.1-.6 1.1zM74.2 27.3l-.6-.3s.4 2.2 3.3 2.7c-.5-1.4-.8-3-.7-4.7 0-1 .2-2 .4-2.8-.2.7-.3 1.4-.3 2.1-.1 2.1.3 4 1.1 5.5 3.3-.6 3.5-3.2 3.5-3.2l-.5.4s.7-.8.5-1.9l-.4.4s.2-1.3-.1-1.9c0 0-.5.6-.4.3 0-.2 0-1-.6-1.9l-.4.6s-.1-1-.9-1.8c0 0-.2.7-.2.6-.2-.6-1-1.4-1-1.3-.1 0-.8.8-.9 1.4 0 .1-.3-.5-.3-.5-.7.9-.7 1.8-.7 1.8l-.3-.5c-.6 1-.5 1.8-.4 2 .1.2-.5-.3-.5-.3-.2.6.1 1.9.1 1.9l-.4-.3c0 1 .7 1.7.7 1.7z"/><path fill="#5D9641" d="M68.3 38.4c.1 0 .2-.1.3-.1l.9-.3c6.3-1.6 12.7 0 17.9 2.4-.4-.8-.8-1.8-.9-3 0 0 .9.5 1.3.6v-.3c-.1-.3-.3-.5-.4-.8-.1 0-.2-.1-.2-.1v-.1c-8.1-3.1-13-4.4-19.5-11.7-.2-.2-.3-.4-.5-.6-1.4-.2-1.5-.4-1.7.3.2.2.4.4.6.7 3.6 3.9 5.7 6.6 12 9.8-2.3 0-4.6.4-7 1.1l-2.4.9c-.1 0-.2.1-.3.1 0 .4 0 .7-.1 1.1z"/><circle fill="#5F473B" cx="115.5" cy="21" r="2.1"/><path fill="#5F473B" d="M127.7 45.5c-1 .3-1.6 1.3-1.3 2.3.3 1 1.3 1.6 2.3 1.3 1-.3 1.6-1.3 1.3-2.3-.3-1-1.3-1.6-2.3-1.3z"/><path fill="#679D41" d="M114.7 43c-.1.3-.2.5-.2.7 0 0 .2-.5.7-1.4-1.4-2.8-1.7-5.3-.5-7 .1-.1.2-.2.2-.3-1 1.6-.7 4 .6 6.6.5-.8 1.1-1.8 1.9-3-.9-2.6-.7-5.3.8-7.4.1-.1.2-.2.3-.4-1.2 2.1-1.3 4.6-.5 7.1.7-1 1.6-2.1 2.5-3.3-.4-1.8-.2-3.6.8-5 .1-.1.1-.2.2-.2-.9 1.4-1.1 3.1-.7 4.8 1.3-1.5 2.8-3.2 4.5-5-1.4 1.7-2.6 3.3-3.8 4.9 1.8 0 3.5-.8 4.6-2.1-.1.1-.1.2-.2.3-1.1 1.5-2.9 2.3-4.8 2.3-.9 1.2-1.7 2.3-2.4 3.4 2.7.1 5.2-.8 6.9-2.7-.1.1-.2.3-.3.4-1.6 2.1-4.3 3.1-7.1 3-.7 1.1-1.3 2-1.8 2.8 2.8.4 5.1-.1 6.3-1.5-.1.1-.1.2-.2.3-1.1 1.6-3.5 2.1-6.5 1.8-.8 1.3-1.3 2-1.3 2 6.4 3.5 10.3-.6 10.3-.6l-1.6-.2s2.2-.4 3.5-2.5l-1.2.1s2-2 2.3-3.4c0 0-1.6.3-1.2 0 .4-.3 1.4-1.7 1.6-4.1l-1.2.5s1.2-1.7 1-4.2c0 0-1.3 1-1.1.7.8-1.8 0-3.9 0-3.9-.2 0-2.3-.1-3.7 1.2-.3.2.3-1.3.3-1.3-2.4.6-3.7 2.2-3.7 2.2l.2-1.3c-2.3.9-3.3 2.3-3.5 2.8-.2.5-.4-1.1-.4-1.1-1.2.7-2.5 3.3-2.5 3.3l-.3-1.2c-1.6 1.9-1.3 4.1-1.3 4.1l-.7-1.4s-2.2 4.2 1.6 8.8c.1-.3.2-.6.3-.8.8-.3.8-.1 1.3 1.2zM88 38c.1.1 0 .1-.1.1-.4-.1-1.3-.6-1.3-.6.1 1.2.5 2.2.9 3 .5 1 1.1 1.6 1.1 1.6l-1.4-.4c.6 2.8 2.1 4.1 2.6 4.4.5.3-1.4.2-1.4.2.6 1.5 3.4 3.4 3.4 3.4l-1.4.1c1.9 2.2 4.5 2.2 4.5 2.2l-1.8.6s4.9 3.5 11.2-.8c-.2-.2-.4-.5-.7-.7-.1-.1-.2-.1-.2-.2.3-.1.7-.3 1-.4.1.1.2.1.2.2-.3-.4-.8-.9-1.4-1.6-3.3 1-6.1.9-7.8-.7l-.3-.3c1.7 1.4 4.4 1.4 7.5.5-.7-.8-1.6-1.8-2.7-2.8-3.3.6-6.5 0-8.8-2.1l-.4-.4c2.3 1.8 5.3 2.4 8.4 1.7-1-1.1-2.2-2.2-3.4-3.4-2.2.3-4.4-.2-6-1.8-.1-.1-.2-.2-.2-.3 1.5 1.3 3.6 1.8 5.7 1.5-1.7-1.6-3.4-3.3-5.3-4.9 2.3 1.7 4.4 3.3 6.1 4.8.2-2-.4-3.9-1.7-5.3.1.1.2.1.3.2 1.5 1.4 2.1 3.4 1.9 5.6 1.4 1.2 2.5 2.3 3.5 3.3.4-3-.2-5.9-2-8 .1.1.3.2.4.4 2.1 2.2 2.8 5.2 2.3 8.4 1.2 1.2 2.1 2.3 2.8 3.1.9-3.2.8-6-.6-7.7.1.1.2.2.3.2 1.7 1.6 1.9 4.6.8 8.1.8 1 1.1 1.5 1.1 1.5 5.1-6.8 1.1-12 1.1-12l-.5 1.8s0-2.6-2.3-4.4l-.1 1.4s-1.9-2.7-3.5-3.3c0 0 .1 1.9-.2 1.4-.3-.5-1.7-1.9-4.5-2.5l.4 1.4s-1.8-1.6-4.7-1.8c0 0 .9 1.6.6 1.4-1.9-1.2-4.3-.7-4.5-.7 0 0-.3 1.8.3 3.5.1.3.2.5.4.8.3.2.3.2.4.3zM100.7 27.1c-.1.9.8 2.6.8 2.6l-.8-.3c.4 1.6 1.7 2.3 1.7 2.3l-1.1-.2s1.7 3.3 6.5 2.3c0 0-.2-.3-.5-1-2-.3-3.5-1.1-4-2.4 0-.1 0-.1-.1-.2.5 1.1 1.9 1.9 3.8 2.2-.3-.6-.6-1.3-.9-2.2-1.8-.5-3.1-1.6-3.8-3.2 0-.1-.1-.2-.1-.3.7 1.4 2 2.5 3.7 3-.3-.8-.6-1.6-.9-2.6-1.1-.4-2-1.2-2.4-2.3 0-.1 0-.1-.1-.2.4 1 1.3 1.8 2.4 2.2-.4-1.3-.7-2.7-1-4.3.4 1.4.8 2.7 1.2 3.9.7-1 .9-2.2.6-3.3 0 .1.1.1.1.2.4 1.2.2 2.4-.5 3.5.3.9.6 1.8 1 2.6 1.1-1.5 1.5-3.2 1.2-4.8 0 .1.1.2.1.3.5 1.7.1 3.5-1.1 5 .3.8.6 1.5.8 2.1 1.3-1.4 1.9-2.8 1.6-4 0 .1.1.1.1.2.4 1.2-.2 2.7-1.5 4.2.4.9.6 1.5.6 1.5 4.3-2.2 3.6-5.9 3.6-5.9l-.7.8s.6-1.3 0-2.8l-.4.7s-.3-1.9-.9-2.6c0 0-.4 1-.5.7 0-.3-.4-1.4-1.7-2.4l-.1.9s-.5-1.3-1.9-2.1c0 0 .1 1.1-.1.9-.7-1.1-2.1-1.5-2.1-1.5-.1.1-.9 1.2-.7 2.5 0 .2-.6-.6-.6-.6-.6 1.5-.2 2.9-.2 2.9l-.6-.6c-.4 1.6 0 2.7.2 2.9.2 0-.7-.6-.7-.6zM100.4 61.2c.2 0-.4.4-.4.4.5.4 1.8.4 1.8.4l-.4.4c1.1.3 1.9-.3 1.9-.3l-.5.6s2.6.1 3.6-3.1c-1.4-1-3.2-1.7-5.3-1.9-.7-.1-1.5-.1-2.2 0 .9-.1 1.9-.1 2.9 0 1.7.2 3.2.6 4.5 1.3-.1-2.9-2.3-3.6-2.3-3.6l.2.7s-.6-.9-1.7-1l.3.5s-1.2-.5-1.9-.3c0 0 .4.6.2.5-.2-.1-1-.3-2 .2l.5.4s-.9-.1-1.9.4c0 0 .7.3.5.3-.7 0-1.6.6-1.5.7-.1 0 .6.9 1.2 1.2.1.1-.6.1-.6.1.7.9 1.6 1.1 1.6 1.1l-.6.2c1.1.7 1.9.9 2.1.8zM89.4 23.4c.3.9 1 1.4 1 1.4h-.5c.4.9 1 1.2 1.2 1.3.2.1-.4.2-.4.2.3.5 1.4.9 1.4.9l-.5.1c.8.6 1.7.4 1.7.4l-.7.3s2 .9 3.9-1.3c-.8-1.2-2-2.4-3.6-3.2-.6-.3-1.2-.5-1.7-.7.8.2 1.6.5 2.3.9 1.3.7 2.4 1.5 3.3 2.5.8-2.4-.7-3.6-.7-3.6v.6s-.2-.9-1.1-1.3l.1.5s-.8-.8-1.4-.8c0 0 .2.6 0 .5-.1-.1-.7-.5-1.7-.5l.2.5s-.7-.4-1.7-.3c0 0 .4.5.3.4-.5-.2-1.5 0-1.5.1-.1 0 .2.9.6 1.3.1 0-.5-.2-.5-.2zM123.4 49.2c0-.1-1.1-.3-1.7-.1-.1.1.3-.5.3-.5-1.1-.2-1.9.3-1.9.3l.3-.5c-1.1 0-1.8.5-1.9.6-.2.2 0-.5 0-.5-.6.1-1.6 1-1.6 1l.1-.6c-1 .5-1.2 1.5-1.2 1.5l-.1-.7s-1.7 1.5-.7 4.2c.9-1.1 2.2-2.1 3.7-2.9.9-.5 1.8-.8 2.7-1-.7.2-1.3.5-2 .8-1.8 1-3.3 2.3-4.2 3.7 2.2 2.5 4.5 1.5 4.5 1.5l-.6-.4s1 .2 1.9-.5l-.5-.2s1.2-.5 1.6-1c0 0-.7-.1-.5-.2.2-.1.9-.5 1.4-1.5h-.6s.8-.5 1.1-1.6c0 0-.7.2-.6.1.3-.4.6-1.5.5-1.5z"/><path fill="#5D9641" d="M103.2 50.9c.1.1.2.1.2.2.2.2.5.4.7.7 4.6 4.7 6.3 11 6.8 16.7.5-.7 1.2-1.5 2.2-2.2 0 0 0 1 .1 1.4.1-.1.2-.1.3-.2.2-.3.3-.5.5-.7v-.2h.1c-1.4-8.6-2.7-13.5.4-22.8.1-.2.2-.5.2-.7-.5-1.3-.4-1.5-1.1-1.3-.1.3-.2.6-.3.8-1.6 5.1-2.9 8.3-2.4 15.3-1.2-2-2.7-3.8-4.4-5.5-.6-.6-1.3-1.1-2-1.6-.1-.1-.2-.1-.2-.2-.4 0-.8.2-1.1.3z"/><circle fill="#5F473B" cx="141.8" cy="83" r="2.1"/><circle fill="#5F473B" cx="125.4" cy="107.2" r="1.9"/><path fill="#679D41" d="M140 93.4c-.3-.1 1.3-.4 1.3-.4-1.7-1.8-3.8-2.1-3.8-2.1l1.2-.5c-1.9-1.5-3.6-1.7-4.1-1.6-.5.1.8-.9.8-.9-1.2-.7-4.1-.5-4.1-.5l.9-.8c-2.4-.5-4.2.9-4.2.9l.9-1.3s-4.7.2-6.8 5.7c.3-.1.6-.1.9-.2.5.5.3.5-.6 1.6-.3.1-.5.1-.8.2 0 0 .6-.1 1.6-.1 1.7-2.6 3.8-4.1 5.8-3.9.1 0 .2.1.3.1-1.9 0-3.8 1.4-5.4 3.8.9 0 2.1 0 3.6.2 1.8-2 4.3-3.2 6.8-3.1.1 0 .3 0 .4.1-2.4 0-4.6 1.1-6.4 3.1 1.2.1 2.6.3 4.1.5 1.3-1.3 3-2 4.7-1.8.1 0 .2 0 .3.1-1.7-.1-3.2.6-4.5 1.8 2 .3 4.2.8 6.6 1.4-2.1-.4-4.2-.6-6.2-.8 1 1.6 2.4 2.7 4.1 2.9h-.3c-1.9-.2-3.4-1.3-4.4-3-1.5-.2-2.9-.3-4.1-.4 1.3 2.4 3.3 4.1 5.8 4.6h-.4c-2.6-.4-4.8-2.1-6.2-4.7-1.3-.1-2.4-.1-3.3-.2 1.1 2.6 2.6 4.3 4.4 4.7h-.3c-2-.2-3.6-2-4.8-4.7-1.5-.1-2.4-.1-2.4-.1.2 7.3 5.7 8.7 5.7 8.7l-.6-1.5s1.4 1.7 3.9 1.8l-.7-1s2.7.8 4.1.3c0 0-1.1-1.2-.6-1 .5.2 2.2.4 4.4-.7l-1.1-.7s2.1.1 4.1-1.3c0 0-1.5-.6-1.1-.6 1.9-.2 3.4-2 3.4-2 0-.2-1-2-2.9-2.6zM113.3 67.7c0 .1-.1 0-.1-.1-.1-.4-.1-1.4-.1-1.4-1 .7-1.7 1.5-2.2 2.2-.6 1-.9 1.7-.9 1.7l-.4-1.5c-2.1 1.9-2.5 3.9-2.5 4.5 0 .6-.9-1.1-.9-1.1-1 1.3-1.3 4.6-1.3 4.6l-.8-1.2c-1 2.7.4 5 .4 5l-1.4-1.3s-.6 6 6.3 9.3c.1-.3.2-.6.2-.9 0-.1 0-.2.1-.3.3.2.6.4.8.7v.3c.2-.5.4-1.1.7-2-2.5-2.3-3.8-4.9-3.2-7.1 0-.1.1-.2.1-.4-.3 2.1.9 4.5 3.3 6.7.3-1 .7-2.3 1.1-3.7-2.2-2.5-3.3-5.6-2.6-8.6 0-.2.1-.3.1-.5-.4 2.9.6 5.8 2.7 8.2.4-1.4.8-3 1.3-4.7-1.4-1.8-2-3.9-1.5-6 0-.1.1-.2.1-.3-.4 2 .2 4 1.5 5.7.6-2.2 1.1-4.6 1.6-7.1-.3 2.9-.7 5.5-1.1 7.7 1.8-.9 3.2-2.3 3.8-4.1 0 .1 0 .2-.1.4-.5 2-1.9 3.5-3.8 4.4-.3 1.8-.7 3.3-1.1 4.7 2.8-1.1 5-3.1 5.9-5.7 0 .2-.1.3-.1.5-.8 2.9-3.1 5-6.1 6.2-.5 1.6-.9 2.9-1.3 4 3.2-.8 5.6-2.3 6.3-4.4 0 .1 0 .3-.1.4-.6 2.3-3.1 3.9-6.6 4.8-.5 1.2-.8 1.8-.8 1.8 8.5 1 10.9-5 10.9-5l-1.8.5s2.2-1.3 2.7-4.2l-1.3.6s1.4-3 1.1-4.7c0 0-1.5 1-1.3.5.3-.5.8-2.5-.1-5.2l-1 1.1s.5-2.4-.8-4.9c0 0-.9 1.6-.9 1.2.1-2.3-1.5-4.1-1.7-4.2 0 0-1.7.6-2.9 2-.2.2-.4.5-.5.7.4.1.4.1.3.2zM129.3 74.1c-.2.3-.2-.8-.2-.8-.9.4-1.8 2-1.8 2l-.1-.8c-1.2 1.1-1.1 2.6-1.1 2.6l-.4-1s-2 3.1 1.2 6.8l.6-.9c-.8-1.9-.8-3.6.1-4.6l.2-.2c-.7 1-.7 2.6 0 4.4.4-.5.8-1.1 1.4-1.9-.4-1.8-.1-3.5.9-4.9l.2-.2c-.9 1.3-1.1 3-.7 4.6.5-.6 1.1-1.3 1.9-2.1-.2-1.2.1-2.4.8-3.3 0-.1.1-.1.1-.1-.7.9-.9 2-.7 3.1.9-1 2-2 3.3-3.1-1 1-1.9 2.1-2.8 3 1.2.1 2.4-.3 3.2-1.1 0 .1-.1.1-.1.2-.8.9-2 1.4-3.3 1.3-.6.7-1.2 1.5-1.8 2.1 1.8.2 3.5-.2 4.7-1.4-.1.1-.1.2-.2.2-1.2 1.3-3 1.8-4.9 1.6-.5.7-1 1.2-1.4 1.7 1.8.4 3.4.2 4.2-.6 0 .1-.1.1-.1.2-.8 1-2.5 1.2-4.4.8-.6.8-.9 1.3-.9 1.3 4.1 2.6 6.9.2 6.9.2l-1-.2s1.5-.1 2.4-1.5h-.8s1.5-1.2 1.7-2.1c0 0-1.1.1-.8-.1.3-.2 1.1-1 1.3-2.7l-.8.3s.9-1.1.9-2.7c0 0-.9.6-.8.4.6-1.2.2-2.6.2-2.6-.1 0-1.5-.2-2.5.6-.2.1.3-.8.3-.8-1.6.2-2.6 1.3-2.6 1.3l.2-.8c-1.6.6-2.3 1.5-2.5 1.8zM105 87.8s-.3.7-.3.5c0-.2-.3-1-1.2-1.7l-.1.6s-.3-.9-1.3-1.5v.6c-.3-.6-1.3-1.1-1.4-1-.1 0-.5 1-.4 1.6 0 .2-.4-.4-.4-.4-.4 1.1-.1 2-.1 2l-.5-.5c-.3 1.1 0 1.8.1 2 .1.2-.5-.2-.5-.2 0 .7.6 1.8.6 1.8l-.5-.1c.3 1.1 1.2 1.6 1.2 1.6l-.7-.1s1.2 2.3 4.5 1.6c.2-1.7-.1-3.6-1-5.5-.3-.7-.7-1.3-1.1-1.9.6.7 1.1 1.6 1.5 2.5.7 1.6 1.1 3.1 1.1 4.6 2.4-1.5 2-3.8 2-3.8l-.5.5s.4-.9 0-2l-.3.5s-.3-1.2-.7-1.7zM130 64.6c0-.2.1-.9-.4-1.7l-.3.4s0-.8-.6-1.6c0 0-.2.6-.2.5-.1-.6-.7-1.3-.8-1.2-.1 0-.7.6-.9 1.2 0 .1-.2-.5-.2-.5-.7.7-.7 1.5-.7 1.5l-.2-.5c-.6.8-.6 1.5-.5 1.7 0 .2-.4-.3-.4-.3-.2.5-.1 1.6-.1 1.6l-.4-.3c-.1 1 .5 1.6.5 1.6l-.5-.3s.2 2.2 3.1 2.7c.7-1.3 1-3 .9-4.7 0-.6-.1-1.3-.3-1.9.2.8.4 1.6.4 2.5.1 1.5-.1 2.9-.5 4.1 2.5-.5 2.8-2.4 2.8-2.4l-.6.3s.7-.6.6-1.6l-.4.3s.2-1.1 0-1.6c.1-.1-.3.4-.3.2zM121.2 102.5c-.4-1.1-1.3-1.5-1.3-1.5h.6c-.6-1-1.3-1.3-1.5-1.4-.2-.1.5-.2.5-.2-.4-.5-1.7-.9-1.7-.9l.5-.2c-1-.6-1.9-.3-1.9-.3l.6-.4s-2.2-.7-4 1.5c1.4.3 3 .8 4.4 1.8.8.5 1.6 1.1 2.2 1.8-.5-.5-1.1-.9-1.7-1.3-1.7-1.1-3.6-1.7-5.3-1.8-1.1 3.2 1 4.7 1 4.7v-.7s.3 1 1.4 1.4l-.1-.6s1 .8 1.7.8c0 0-.3-.7-.1-.5.2.1.9.5 2 .4l-.3-.5s.9.4 2 .1c0 0-.5-.5-.4-.5.6.2 1.7-.1 1.7-.2.1 0-.3-1.1-.8-1.5-.2-.1.5 0 .5 0z"/><path fill="#5D9641" d="M123 91.7c-.3.1-.6.1-.9.2-5.2 1.1-8.6 1.7-14.5 5.5 1.1-2 2-4.2 2.5-6.6.2-.8.3-1.7.4-2.5V88c-.3-.2-.6-.5-.8-.7 0 .1 0 .2-.1.3-.1.3-.2.6-.2.9-1.8 6.3-6.4 11-11 14.3.9 0 1.9.2 3 .7 0 0-.9.5-1.2.8.1.1.2.1.3.2.3 0 .6 0 .8.1l.2-.2c6.8-5.5 10.3-9 19.9-11 .3-.1.5-.1.8-.2 1-1 1.2-1 .8-1.5z"/><path fill="#5F473B" d="M102 134.9c-1.1-.4-2.3.1-2.8 1.2s.1 2.3 1.2 2.8c1.1.4 2.3-.1 2.8-1.2.5-1.1 0-2.4-1.2-2.8z"/><circle fill="#5F473B" cx="72.1" cy="134.7" r="1.9"/><path fill="#679D41" d="M82.6 125.1c-.2-.2-.3-.4-.5-.6 0 0 .4.5.9 1.4 3.1.2 5.4 1.2 6.3 3.1 0 .1.1.2.1.3-.9-1.6-3.1-2.6-6-2.8.5.8 1 1.9 1.7 3.2 2.7.6 4.9 2.1 6.1 4.4.1.1.1.3.2.4-1.2-2.1-3.3-3.4-5.8-4 .5 1.1 1.1 2.4 1.6 3.8 1.8.5 3.2 1.6 3.9 3.2 0 .1.1.2.1.3-.8-1.5-2.1-2.5-3.8-2.9.7 1.9 1.4 4 2.1 6.4-.8-2-1.6-3.9-2.4-5.8-.9 1.6-1.1 3.4-.5 5 0-.1-.1-.2-.1-.3-.8-1.7-.6-3.6.4-5.3-.6-1.3-1.2-2.6-1.8-3.8-1.4 2.3-1.9 4.9-1.1 7.3-.1-.1-.1-.3-.2-.4-1-2.5-.6-5.2 1-7.7-.6-1.1-1.1-2.1-1.5-3-1.7 2.2-2.5 4.4-1.9 6.2-.1-.1-.1-.2-.2-.3-.8-1.8-.1-4.1 1.7-6.5-.7-1.3-1.1-2.1-1.1-2.1-6.2 3.9-4.7 9.2-4.7 9.2l1-1.3s-.8 2.1.4 4.3l.5-1.1s.7 2.7 1.7 3.7c0 0 .5-1.5.6-1 .1.5.7 2.1 2.8 3.4l.1-1.3s.9 1.9 3.1 2.9c0 0-.2-1.6 0-1.3 1.2 1.6 3.4 2 3.4 2 .1-.2 1.2-1.9.8-3.8-.1-.3 1 .9 1 .9.7-2.4-.1-4.3-.1-4.3l1 .8c.4-2.4-.4-4-.7-4.4-.3-.4 1.2.3 1.2.3 0-1.4-1.6-3.8-1.6-3.8l1.2.3c-.8-2.3-2.9-3.2-2.9-3.2l1.6.1s-2.5-4-8.4-3c.2.2.4.4.6.7-.3.8-.4.7-1.8.4zM100.3 104.5c-.1 0-.1-.1 0-.1.3-.3 1.2-.8 1.2-.8-1.1-.5-2.2-.7-3-.7-1.2-.1-1.9.1-1.9.1l1.1-1.1c-2.7-.8-4.7-.2-5.2 0-.5.3.5-1.3.5-1.3-1.6-.2-4.6 1.2-4.6 1.2l.6-1.3c-2.8.5-4.1 2.8-4.1 2.8l.4-1.8s-5.5 2.4-4.9 10.1l.9-.3c.1 0 .2-.1.3-.1 0 .4-.1.7-.2 1.1-.1 0-.2.1-.3.1.5-.1 1.2-.2 2-.4.8-3.4 2.3-5.8 4.5-6.4.1 0 .3 0 .4-.1-2 .8-3.4 3.1-4.2 6.3 1.1-.2 2.4-.5 3.8-.9 1.1-3.2 3.2-5.6 6.2-6.6.2-.1.3-.1.5-.1-2.7 1.1-4.7 3.4-5.7 6.4 1.4-.4 3-.8 4.7-1.2.8-2.1 2.4-3.7 4.5-4.3.1 0 .2-.1.3-.1-1.9.7-3.4 2.2-4.2 4.2 2.2-.6 4.6-1.4 6.9-2.2-2.6 1.2-5.1 2.1-7.3 2.9 1.7 1.1 3.6 1.6 5.5 1.2-.1 0-.2.1-.3.1-2 .6-4 .1-5.8-1.1-1.7.6-3.3 1-4.6 1.4 2.4 1.9 5.2 2.8 7.9 2.3-.2.1-.3.1-.5.2-2.9.7-5.9-.2-8.4-2.2-1.6.4-3 .7-4.1.9 2.3 2.4 4.8 3.7 6.9 3.3-.1 0-.2.1-.4.1-2.3.7-4.9-.7-7.4-3.3-1.2.2-1.9.2-1.9.2 3.4 7.8 9.8 7 9.8 7l-1.3-1.3s2.3 1.3 5 .2l-1.2-.8s3.3-.3 4.6-1.4c0 0-1.7-.8-1.1-.9.6 0 2.5-.5 4.4-2.6l-1.5-.3s2.3-.7 3.9-3.1c0 0-1.8 0-1.5-.2 2-1.1 2.8-3.4 2.8-3.6 0 0-1.4-1.1-3.1-1.5-.3-.1-.5-.1-.8-.1.1.1 0 .1-.1.1zM107.9 126.8c0-.1-.6-1.4-1.8-1.9-.2-.1.8-.2.8-.2-1-1.3-2.4-1.6-2.4-1.6l.8-.3c-1.2-1.1-2.3-1.3-2.7-1.3-.3 0 .6-.5.6-.5-.8-.5-2.7-.6-2.7-.6l.6-.5c-1.6-.5-2.8.4-2.8.4l.7-.8s-3.7-.2-5.3 4.4h1.1c1.3-1.6 2.7-2.5 4.1-2.2.1 0 .1 0 .2.1-1.2-.1-2.6.7-3.8 2.2.6.1 1.4.1 2.4.3 1.3-1.2 3-1.9 4.7-1.6.1 0 .2 0 .3.1-1.6-.1-3.1.5-4.4 1.7.8.1 1.7.3 2.7.6.9-.8 2.1-1.1 3.2-.9h.2c-1.1-.1-2.2.2-3 1 1.3.3 2.7.8 4.3 1.3-1.4-.3-2.7-.6-4-.9.6 1.1 1.4 1.9 2.6 2.2h-.2c-1.2-.2-2.2-1.1-2.8-2.2-1-.2-1.9-.3-2.7-.5.7 1.7 2 2.9 3.6 3.4h-.3c-1.7-.4-3.1-1.7-3.8-3.4-.8-.1-1.6-.2-2.2-.3.6 1.8 1.5 3 2.7 3.4h-.2c-1.3-.2-2.3-1.5-2.9-3.4-1-.1-1.6-.2-1.6-.2-.3 4.9 3.3 6.1 3.3 6.1l-.3-1s.8 1.2 2.5 1.4l-.4-.7s1.8.7 2.7.5c0 0-.6-.8-.3-.7.3.1 1.4.4 2.9-.2l-.7-.6s1.4.2 2.8-.6c0 0-.9-.5-.7-.5 1.1-.5 2.2-1.5 2.2-1.5zM78.6 104c.3-.6.3-1.7.2-1.7 0-.1-1.1 0-1.6.4-.1.1.2-.6.2-.6-1.1.2-1.8.9-1.8.9l.1-.6c-1.1.3-1.6.9-1.7 1.1-.1.2-.1-.5-.1-.5-.6.3-1.3 1.4-1.3 1.4l-.1-.6c-.8.8-.7 1.8-.7 1.8l-.3-.7s-1.4 2.2.8 4.7c1.5-.7 3-1.9 4.2-3.6.4-.6.8-1.2 1.1-1.9-.4.9-.8 1.7-1.4 2.5-1 1.4-2.2 2.5-3.4 3.3 2.6 1.4 4.3-.1 4.3-.1h-.7s1 .1 1.7-.9h-.6s1-.9 1.2-1.6c0 0-.7 0-.5-.1.2-.1.7-.7.9-1.9l-.6.2s.6-.7.6-1.9c0 .2-.6.6-.5.4zM113.4 113.6c0-.1-.9-.3-1.5-.2-.1 0 .3-.4.3-.4-1-.2-1.7.2-1.7.2l.3-.4c-1-.1-1.6.3-1.7.4-.2.1.1-.5.1-.5-.6 0-1.5.7-1.5.7l.1-.5c-.9.4-1.2 1.2-1.2 1.2v-.6s-1.8 1.3-.8 4c1.5-.1 3.1-.6 4.6-1.6.5-.4 1-.7 1.5-1.2-.6.6-1.2 1.1-1.9 1.6-1.2.8-2.5 1.3-3.8 1.6 1.6 1.9 3.5 1.2 3.5 1.2l-.5-.4s.9.3 1.7-.3l-.5-.2s1.1-.3 1.4-.8c0 0-.6-.2-.4-.2.2-.1.8-.4 1.3-1.2h-.5s.7-.4 1.1-1.3c0 0-.6.1-.5 0 .3-.1.6-1 .6-1.1zM75.7 122.3l.7.3s-.4-2.2-3.3-2.7c.5 1.4.8 3 .7 4.7 0 1-.2 1.9-.4 2.8.2-.7.3-1.4.3-2.1.1-2.1-.3-4-1.1-5.5-3.3.6-3.5 3.2-3.5 3.2l.6-.4s-.7.8-.5 1.9l.4-.4s-.2 1.3.1 1.9c0 0 .5-.6.4-.3 0 .2 0 1 .6 1.9l.3-.5s.1.9.9 1.8c0 0 .2-.7.2-.6.2.6 1 1.4 1 1.3.1 0 .8-.8.9-1.4 0-.1.3.5.3.5.7-.9.7-1.9.7-1.9l.3.5c.6-1 .5-1.8.4-2-.1-.2.5.3.5.3.2-.6-.1-1.9-.1-1.9l.4.3c-.1-1-.8-1.7-.8-1.7z"/><path fill="#5D9641" d="M81.5 111.3c-.1 0-.2.1-.3.1l-.9.3c-6.3 1.6-12.7 0-17.9-2.4-.1-.1-.2-.1-.3-.2-.1.5-.1 1.7-.1 2.6v1c.1 0 .2.1.3.1.1 0 .2.1.2.1v.1c8.1 3.1 13 4.4 19.5 11.7.2.2.3.4.5.6 1.4.2 1.5.4 1.7-.3-.2-.2-.4-.4-.6-.7-3.6-3.9-5.7-6.6-12-9.8 2.3 0 4.6-.4 7-1.1l2.4-.9c.1 0 .2-.1.3-.1.1-.4.2-.8.2-1.1z"/></svg>