<svg xmlns:xlink="http://www.w3.org/1999/xlink"  xmlns="http://www.w3.org/2000/svg" viewBox="0 0 2000 2000"><path fill="#6DA166" d="M1493.8 410.3c-71.5 18.6-236.8 88.4-262.3 340.6-57.2-95.1-134.6-176.2-228.3-236.1-13.7 12.1-27.9 21.1-40.5 26.2 208.7 124.8 336.9 359.1 336.9 620.1 0 109.9-23.2 214.1-64.5 307 25.2-244.6-131.8-358.1-133.7-359.4-.7-.5-1.5-.8-2.2-1.2-4.7 14.4-11.3 27.6-19.9 39.1 24.2 18.7 181.1 153.4 84.6 442.8-.5 1.6-.8 3.2-1 4.8-119.4 167.2-305.9 275.1-515.3 275.1-129.3 0-254.2-41-361.3-118.6-9.8-7.1-23.4-4.9-30.4 4.9-7.1 9.7-4.9 23.4 4.9 30.4 114.6 83 248.3 126.9 386.8 126.9 383.5 0 695.5-337.3 695.5-751.8 0-119.6-25.5-233.8-72.4-335.8.6-2 1-4 1-6.2 0-270.2 152.2-344.6 223.2-364.6-3.3-15.3-3.7-30.2-1.1-44.2z"/><linearGradient id="a" gradientUnits="userSpaceOnUse" x1="452.051" y1="529.225" x2="1730.484" y2="1836.711"><stop offset="0" stop-color="#ffd5e0"/><stop offset="1" stop-color="#e44486"/></linearGradient><path fill="url(#a)" d="M1071.2 1114.1c6.4-9.1 18.5-11.7 28-6.6 7-21.4 9.9-45.6 7.9-71.7-7.3-98.1-58.1-109-181.6-98.1-123.5 10.9-167.1-36.3-167.1-36.3-10.9 119.9 79.9 290.6 188.9 297.8 60.6 4 105.3-16.7 132-52.6-1.4-1.1-2.5-1.9-2.9-2.2-9.8-6.9-12.1-20.5-5.2-30.3z"/><linearGradient id="b" gradientUnits="userSpaceOnUse" x1="1088.967" y1="-93.532" x2="2367.38" y2="1213.934"><stop offset="0" stop-color="#ffd5e0"/><stop offset="1" stop-color="#e44486"/></linearGradient><path fill="url(#b)" d="M1574.3 330c-47.4 14.1-73.9 44.1-80.5 80.3 19.6-5.1 32.3-6.4 32.9-6.4 12-1 22.4 7.9 23.5 19.9 1 12-7.9 22.5-19.8 23.6-2.3.2-15.7 1.6-35.4 7.1 2.2 10.2 5.5 20.5 10.3 30.9 30.5 66.5 68.7 60.9 152 21.3 83.3-39.6 125.9-18 125.9-18-23.6-86.3-131.1-181.8-208.9-158.7z"/><linearGradient id="c" gradientUnits="userSpaceOnUse" x1="738.962" y1="1121.003" x2="845.51" y2="-312.422"><stop offset="0" stop-color="#ffd5e0"/><stop offset="1" stop-color="#e44486"/></linearGradient><path fill="url(#c)" d="M923 494.2c5.6-10.6 18.8-14.7 29.4-9.1 17.4 9.2 34.3 19.2 50.8 29.7 30.4-26.7 58.3-67.6 60.3-111 3.6-76.3-87.2-141.6-156.2-188.8-69-47.2-18.2-127.1-18.2-127.1C776.5 142.4 791 262.2 791 262.2c-10.9-39.9-72.6-39.9-116.2-39.9-43.6 0-76.3-72.6-76.3-72.6-69 203.4 90.8 265.1 90.8 265.1-167.1-3.6-178 116.2-178 116.2 54.5-29 94.4-21.8 163.4 18.2s94.4 101.7 174.3 94.4c79.9-7.3 90.8-98.1 90.8-98.1 6.3.6 14.1-1.1 22.6-4.5-10-6-20.2-11.8-30.6-17.3-10.3-5.7-14.4-18.8-8.8-29.5z"/></svg>