<svg xmlns:xlink="http://www.w3.org/1999/xlink"  xmlns="http://www.w3.org/2000/svg" viewBox="0 0 2000 2000"><path fill="none" d="M814.5 791.3c-10 1.9-20 4.3-29.9 7.5.1 2.2.2 4.3.2 6.5 0 0-.5-2.3-1.5-6.1-17.7 5.7-35.2 13.5-52.1 24-121.8 75.6-136.3 211.2-136.6 268.7 63.6-60.3 151.5-107.2 242.8-139.7-6.9-21.3-12.9-44.9-17.8-70.9-5.5-30-7-60.1-5.1-90z"/><path fill="#5EA7D6" d="M1066.4 1322.3c375.2-136.1 457-308.1 349.9-366.8-157.7-86.5-431 41.2-431 41.2 240.9-53.2 659.3-74 228.8 159.6-430.6 233.7-756.8 85.5-554.4-78.6 56-45.4 120.9-78.9 185.3-103.7-2.7-7-5.2-14.3-7.7-21.8-91.3 32.4-179.3 79.4-242.8 139.7.3-57.5 14.9-193.1 136.6-268.7 17-10.5 34.4-18.3 52.1-24 .4-.1.8-.3 1.3-.4 9.9-3.2 19.9-5.6 29.9-7.5 15.5-2.9 31.1-4.3 46.6-4.6 121.1-1.9 234 68.5 249.9 74.5 18.7 7-77.8-135.3-244-123.9-15 1-30.5 3.2-46.6 7-12.2 2.9-24.7 6.5-37.5 11.1-.1.1-.3.1-.4.2-3.6 1.3-7 2.8-10.5 4.2-182.7 73-181.9 248.1-177.6 332.5-11.4 10.8-22.1 22-31.7 33.7-138.8 167 99.2 343.1 503.8 196.3z"/><path fill="#5EA7D6" d="M1179.4 904.9c-74.8-13.2-191.1-.5-306.6 35.6 1.9 7.3 4 14.5 6.3 21.4 156-53 300.3-57 300.3-57z"/><path fill="#75A76D" d="M819.6 881.3c4.8 26 10.9 49.6 17.8 70.9 2.4 7.6 5 14.8 7.7 21.8 68.2 180.3 202.6 182.8 202.6 182.8l31.7-3.2c-33.1 0-152.5-47.9-200.2-191.8-2.3-6.9-4.4-14-6.3-21.4-11.4-43.1-16.4-94-11.8-153.7-15.4.2-31 1.7-46.6 4.6-1.9 29.9-.4 60 5.1 90zM870.3 716.6c63.3-338.9 573.2-376.9 579.5-221.7 6.3 155.2-148.9 177.3-148.9 177.3 114 41.2 335.7-212.2 38-281.9-247.6-57.9-477.4 131.7-518.7 353.8 16.1-3.8 31.6-6 46.6-7 1.2-6.7 2.2-13.4 3.5-20.5zM357.3 634.3s-.5-8.1.6-20.6c-1.3 12.4-.6 20.6-.6 20.6zM784.5 798.8c-.4.1-.8.3-1.3.4 1 3.9 1.5 6.1 1.5 6.1 0-2.2-.1-4.3-.2-6.5z"/><path fill="#75A76D" d="M506.1 463.3C383.7 475.5 361.6 571 357.9 613.7c4.2-41.1 30-128.5 173.5-118.7 140.8 9.5 213.2 180.8 240.4 264.7 3.5-1.4 6.9-2.8 10.5-4.2-18.4-235.7-127.8-307.1-276.2-292.2zM829.1 593.1c205.8-332.5 47.5-399 47.5-399 76 120.4-47.5 399-47.5 399z"/><path fill="#F17C9D" d="M368.2 645.1s-28.1-7.4-60.6 36.9-35.5 94.5-17.7 104.9c17.7 10.3 149.2-5.9 155.1-28.1 5.9-22.1-20.7-116.6-76.8-113.7zM345.5 817.5c-1.6 17.7 41.9 11.3 27.4-17.7 0 0-25.8 0-27.4 17.7zM744.9 242.6c21.2 8.7 118.4-5.3 122.7-61.4 0 0 11-26.9-28.8-64.8-39.7-38-89.1-47.4-101.7-31.2-12.4 16.2-13.4 148.7 7.8 157.4zM713.7 165.8s3.3-25.6-14-29.5c-17.4-3.8-16.6 40.2 14 29.5zM1198.5 779.6c22.9.8 109-46.4 93.5-100.5 0 0 .8-29-49.7-50.7-50.5-21.7-100.1-13.2-106.2 6.4-5.9 19.6 39.5 144.1 62.4 144.8zM1119 695.9c-17.6 2.4-1.6 43.4 23.5 22.7-.1 0-5.9-25.1-23.5-22.7z"/><path fill="#89B381" d="M519.6 436.4s-1.6-37.9-33.2-53.7c-31.6-15.8-48.9-9.5-48.9-9.5s14.2 82.1 82.1 63.2zM639.3 574.9s-36.9-8.7-60.6 17.4c-23.7 26.2-22.3 44.6-22.3 44.6s82.8 8.4 82.9-62zM667.1 466.1s26.7-26.9 16.8-60.8c-9.9-33.9-26.4-42.3-26.4-42.3s-50.5 66.2 9.6 103.1zM1074.4 399.8s26.7-26.9 16.8-60.8c-9.9-33.9-26.3-42.3-26.3-42.3s-50.6 66.2 9.5 103.1zM994.9 225.8c11.7-33.3 3.3-49.8 3.3-49.8s-79.7 24.3-52.4 89.3c-.1.1 37.4-6.2 49.1-39.5zM851.3 323.4c-27.3-22.4-45.7-20-45.7-20s-4.3 83.2 66.1 79.7c.1 0 6.9-37.3-20.4-59.7zM1283.7 479.1s-45.4-69.9-100.3-25.7c0 0 16.4 34.2 51.6 36.3 35.3 2.1 48.7-10.6 48.7-10.6zM1501.8 456.6c35.3 2.1 48.7-10.6 48.7-10.6s-45.4-69.9-100.3-25.7c0-.1 16.4 34.2 51.6 36.3zM1391.3 723.1c9 25 21.7 30.5 21.7 30.5s34.8-52-11.9-76.9c0 0-18.8 21.4-9.8 46.4zM1392.7 607.5s-8.6-27.2-34.5-32.5c-26-5.2-37.4 2.7-37.4 2.7s26.4 56.8 71.9 29.8z"/><path fill="#5EA7D6" d="M1443.1 1139.7l.3-.6-.3.6zM1443.1 1139.7c-5.6 11.8-98.9 209.7-77.4 334.5 22.2 128.7 73.2 93.2 73.2 93.2s-20-66.5-17.7-228.5c2-151 19.5-194 21.9-199.2z"/><path fill="#B86645" d="M875.3 1223.2c.4-.1.7-.1.7-.1-.2 0-.4.1-.7.1zM841.9 1038.1s-154.4 88-163.4 140.1c-9 52 75.1 70 196.8 45-10 1.9-137.9 24.5-144.8-32.4-7.1-59.3 111.4-152.7 111.4-152.7zM1165.6 1144.4s188.4-117.4 84.6-128.3c-103.8-10.9-264.8 43.7-264.8 43.7 335.8-62.8 180.2 84.6 180.2 84.6z"/><path fill="#5EA7D6" d="M1582.7 754c-45.1 30.1-116.6 139.2-116.6 139.2l-3.8 26.3s109.1-97.8 82.8-56.4c-26.3 41.4-129.7 499.9-82.8 560.6 30.5 39.5 48.2-88.3 48.2-88.3s-33.2-318.1 106.1-562.6c-.1 0 11.2-48.9-33.9-18.8z"/><path fill="#5EA7D6" d="M1620.3 604.9c-126.5-28.2-68.3 120.4-68.3 120.4-31.2-116.3 120.9-94.2 160.7 58.8 39.9 153-82.3 77.3-82.3 77.3s101.9 88.1 143.7 35.8c41.9-52.3-27.3-264.1-153.8-292.3zM1384.1 1601.5c-26.3 18.8-218.2 173.1-297.2 180.6s-222-134.7-398.8-349.9c0 0 180.6 428.9 346.1 421.4 165.6-7.5 327.4-127.9 353.7-188.1 26.3-60.3 22.6-82.9-3.8-64z"/></svg>