<svg xmlns:xlink="http://www.w3.org/1999/xlink"  xmlns="http://www.w3.org/2000/svg" viewBox="0 0 2000 2000"><path fill="none" d="M1423.3 1032.9c1.4 35.5 19.9 161.6-109.2 195.5-68.7 18-118.5 24.7-154.8 38.3-76.7 28.9-104.6 134.4-113.4 194.3-5.7 38.8-18.4 37.2-15.6 11.3 3.7-33.8 17.6-167.6 75.2-243.9 95.7-126.9 267.1-56.2 300.8-200.3 11.4-48.5 15.6-30.8 17 4.8zm-56.9-124.5c10.2-43.6 14.1-27.6 15.3 4.4 1.3 32 17.9 145.4-98.3 175.9-61.8 16.2-106.7 22.2-139.3 34.5-69 26-94.2 120.9-102 174.9-5.1 34.9-16.6 33.4-14.1 10.2 3.3-30.4 15.9-150.9 67.7-219.6 86.1-114.2 240.3-50.7 270.7-180.3zm-96-198.8c8.3-35.3 12.6-14.7 19.5 10 9.5 34 37.2 122.6-56.9 147.4-50.1 13.2-89.2 11.5-115.7 21.5-55.9 21-73.4 104.4-79.8 148.1-4.1 28.3-13.5 27.1-11.4 8.2 2.7-24.7 11.4-127 53.4-182.7 79.7-105.6 160.2-21.5 190.9-152.5zm-81.2-129.1c-7.1-32.3 9.9-9.7 17.1 11.3 7.1 21 34 87.2-9.9 132.5-23.4 24.1-52.9 24.3-79.4 32.3-70.5 21.1-72 92-75.2 132.5-1.4 17.8-14.2 27.5-12.8-27.5 1.2-46.8 13.8-136.3 83.7-171.2 58.1-29.1 83.6-77.6 76.5-109.9zm-102.1-113.1c-14.2-27.5 1.4-12.9 15.6 6.5s71.8 97.4 15.6 137.3c-58 41.2-68.3 57.9-75.2 113.1-4.2 33.9-8.5 25.9-8.5 1.6 0-47.3 0-87.2 29.8-134.1 34.8-54.7 43.2-84.7 22.7-124.4zm-157.9 5.7c14.2-19.4 29.8-33.9 15.6-6.5-20.5 39.7-12.1 69.6 22.7 124.4 29.8 46.8 29.8 86.8 29.8 134.1 0 24.2-4.3 32.3-8.5-1.6-6.9-55.2-17.2-71.9-75.2-113.1-56.2-39.9 1.4-117.9 15.6-137.3zm-103.6 118c7.1-21 24.1-43.6 17-11.3-7.1 32.3 18.5 80.8 76.6 109.9 69.9 34.9 82.5 124.4 83.7 171.2 1.4 54.9-11.3 45.2-12.7 27.5-3.2-40.5-4.8-111.4-75.2-132.5-26.5-7.9-56-8.2-79.4-32.3-44-45.3-17.1-111.5-10-132.5zM742 718.8c6.9-24.7 11.2-45.3 19.5-10 30.7 131.1 111.2 46.9 190.9 152.5 42 55.6 50.7 158 53.4 182.7 2.1 18.8-7.2 20-11.4-8.2-6.4-43.7-23.9-127-79.8-148.1-26.5-10-65.6-8.3-115.7-21.5-94.1-24.8-66.5-113.4-56.9-147.4zm-91.8 193.1c1.3-32 5.1-48 15.3-4.3 30.4 129.7 184.6 66.1 270.7 180.3 51.8 68.7 64.3 189.1 67.7 219.6 2.5 23.3-9 24.7-14-10.2-7.9-53.9-33.1-148.9-102.1-174.9-32.7-12.3-77.5-18.3-139.3-34.5-116.2-30.6-99.6-144-98.3-176zm-41.7 120.2c1.4-35.5 5.7-53.3 17-4.9 33.7 144.1 205.1 73.5 300.8 200.3 57.6 76.3 71.5 210.1 75.2 243.9 2.9 25.9-9.9 27.5-15.6-11.3-8.8-59.9-36.8-165.4-113.4-194.3-36.3-13.7-86.1-20.3-154.8-38.3-129-33.9-110.6-159.9-109.2-195.4zm378.9 600.2c-47.4-245-152.3-134.1-337.7-222.9-76.1-36.5-85.1-153.5-92.2-185.8-7.1-32.3 2.8-72.7 15.6-35.5s110.7 103.4 254 140.6c143.3 37.2 174.4 277.9 177.4 300.5 5.6 43.5-1.5 83.9-17.1 3.1zm8.9-462.7c-7.1-48.5-29.8-134-91.8-157.4-29.4-11.1-69.8-16.4-125.4-31.1-104.6-27.5-89.6-129.6-88.5-158.3 1.1-28.8 4.6-43.2 13.8-3.9 27.3 116.7 166.1 59.5 243.6 162.3 46.6 61.8 57.9 170.2 60.9 197.6 2.3 20.9-8 22.2-12.6-9.2zm13.8-480c0-63-21.3-132.5-34-166.4-12.8-33.9 21.2-126.1 29.8-148.6 18.5-48.5 14.2 6.5 22.7 37.2 8.5 30.7 38.6 72.2 21.3 119.5-21.3 58.2-26.9 116.3-26.9 156.7-.1 40.4-12.9 45.3-12.9 1.6zm12.9 489.9c3-27.4 14.3-135.8 60.9-197.6 77.5-102.8 216.3-45.5 243.7-162.3 9.2-39.2 12.7-24.9 13.8 3.9 1.1 28.8 16.1 130.8-88.5 158.3-55.6 14.6-96 20-125.4 31.1-62.1 23.4-84.7 108.8-91.8 157.4-4.7 31.4-15 30.1-12.7 9.2zm451.4 44.8c-7.1 32.3-16.1 149.3-92.2 185.8-185.4 88.9-290.4-22.1-337.7 223-15.6 80.8-22.7 40.4-17-3.2 2.9-22.6 34.1-263.3 177.4-300.5 143.3-37.2 241.2-103.4 254-140.6 12.7-37.2 22.6 3.2 15.5 35.5z"/><path fill="none" d="M1357.3 628c-144.9 88-108.7-5.2-108.7-51.7 0-46.6 0-160.4-119-238-76.2-49.7-97.3-84.6-103.9-110-4.7-17.9-11.7-21.2-17.3 0-6.8 25.4-28 60.1-103.8 109.6-119 77.6-119 191.4-119 238 0 46.6 36.2 139.7-108.7 51.7-123-74.7-324.4 73.2-346.4 130.1-4.1 10.5-3.4 17 6.7 19.9 58.6 17.2 144.9 127.6 165.6 441.5C515 1403.5 666.4 1481.9 804 1516c21.6 69.6 63.2 126.4 115.8 158.9 69.2 42.7 131.4 47.8 209.1-3.1 50.9-33.3 90.9-89.5 111.6-158 134.8-35.4 279.1-114.4 291-294.3 20.7-313.9 106.9-424.3 165.6-441.5 58.6-17.2-195-238-339.8-150z"/><path fill="none" d="M1692.9 702.9c-10.9-8.4-22.7-15.6-32.1-21.4-15.9-9.7-22.5-13.7-20.7-20.3 1.7-6.1 9.9-6.1 14.8-6.1 15.5 0 22.2-1.2 25-2.1-2.1-1.9-7.4-5.7-20.4-11.7-40.6-18.8-83.6-37.4-122.4-40.9-20.2-1.8-44.1-6.2-43.6-16.3.3-7.4 9.8-8.4 20-8.4 15.4 0 25.7-2 29.7-3.7-2.6-2.1-10-6.5-31.3-13.2-11.7-3.7-24-5.5-36.6-5.5-43.9 0-92.1 21.2-151.6 66.8-19.8 15.2-27.4 17.1-31.9 17.1-3.8 0-6.8-1.6-8.5-4.6-6.1-10.5 5-36.5 49.5-116.1 23.3-41.5 19.6-54.1 18-56.9-.6-1.1-1.8-2.3-5-2.3-7.6 0-21.5 7.6-31.4 20.4-8.1 10.4-19.9 22.8-30.4 22.8-3.9 0-7.3-1.7-9.6-4.8-5.8-7.7-4.9-24.2 2.9-50.5 12.6-43-5.6-67.5-25-93.5-5.5-7.4-11.1-15-15.9-22.9-5.7-9.6-16.2-27.1-23-35.9.4 2.7 1 6.3 2 11.2 4.2 19.4 3.4 32.2-2.2 39.2-2.8 3.4-6.5 5.2-11 5.2-8.5 0-16.5-6.7-20.8-12.3-1.6-2.2-3.2-4.5-4.8-7-8.7-13.2-20.7-31.3-69.2-57-50.7-26.8-69.3-72.3-81.8-117.3-4.4-15.8-7.5-21-8.9-22.7-1.4 1.7-4.4 7-9 23.3-7.8 27.9-24 85.9-81.5 116.4-48.5 25.7-60.5 43.8-69.2 57-1.7 2.5-3.2 4.8-4.8 7-5.6 7.5-13.8 12.4-20.7 12.4-4.4 0-8.2-1.8-10.9-5.2-5.6-6.9-6.3-19.8-2.2-39.2 1.1-5.2 1.8-9 2.2-11.9-6.4 8.6-16.1 24.8-23.2 36.5-4.7 7.9-10.4 15.5-15.9 22.8-19.3 26-37.6 50.5-25 93.5 7.7 26.2 8.6 42.7 2.9 50.4-2.3 3.1-5.7 4.8-9.6 4.8-10.5 0-22.3-12.4-30.4-22.7-9.9-12.8-23.8-20.4-31.4-20.4-3.2 0-4.4 1.2-5 2.3-1.7 2.9-5.3 15.4 17.9 56.9 44.6 79.6 55.7 105.6 49.5 116-1.8 3-4.8 4.6-8.5 4.6-4.4 0-12-1.9-31.8-17.1-59.8-45.4-108-66.6-151.9-66.6-12.6 0-24.9 1.9-36.6 5.5-21.3 6.7-28.8 11.2-31.3 13.2 4 1.7 14.3 3.7 29.7 3.7 10.2 0 19.6 1 20 8.4.5 10.2-23.5 14.5-43.6 16.3-38.8 3.5-81.7 22.1-122.4 40.9-13 6-18.3 9.7-20.4 11.6 2.8.9 9.6 2.1 25 2.1 4.9 0 13.1 0 14.8 6.1 1.8 6.5-4.8 10.5-20.7 20.3-9.5 5.8-21.3 13-32.1 21.4-30.2 23.5-49.3 51.9-55.8 65-3.6 7.2-6.8 15.3-3.4 21.8 3.6 6.9 14.7 11.8 32 14.3 43.7 6.3 56.6 29.4 82.3 75.4 4.5 8.1 9.5 17.1 15.2 26.9 38.8 67 56 205.3 52.5 258.4-4.2 63.2-5.2 110.8 19.8 148.4 6.5 9.8 8.3 16.6 5.7 21.6-1 1.9-3.7 5.1-9.9 5.1-12 0-32.3-11.8-45.3-23-7.3-6.3-11.8-6.9-13.4-6.9-1.7 0-2.2.7-2.6 1.4-1.9 3.9.1 15.8 13.4 32.5l1.2 1.4c27.4 34.2 91.5 114.4 147.3 124.2 26.7 4.7 39.8 12.4 38.9 22.8-.8 8.7-12.2 14.8-27.9 14.8-4.4 0-8.8-.5-13.1-1.4-2.1-.5-4.2-.7-6.3-.7-8.9 0-14.9 4.1-15.6 6.9-.5 2 1.9 4.7 6.2 7.1 21.2 11.8 72.2 20 124.1 20 29.3 0 56.2-2.5 77.8-7.4 12.6-2.8 19.1-2.2 23 2 3.1 3.4 2.7 8 2.6 9.5-4.4 47 34.6 145.2 111.5 164.4 23.4 5.8 31.4 10.2 31.5 17.3.2 8.5-10.7 11.8-30.6 17.9-13.5 4.1-30.4 9.3-40.7 16.1-7.5 5-8.8 8.1-8.6 8.8.4 1.6 4.7 7.4 44.2 12.3 3.1.4 6.3.6 9.5.6 26.1 0 48.3-13.9 60.9-36.6 9.6-17.4 13.6-21.4 17.9-21.4h2.7l2.5 3.4c2.2 2.8 3.6 7.8-2.6 32.7-6.3 25.2-12.4 75.4 4.8 103.2 8 12.9 18.9 30.7 24.3 30.7 5.3 0 15.7-16.4 24.1-29.7 17.5-27.6 11.5-78 5.1-103.4-6.2-25-4.8-29.5-2.6-32.3l1.6-2.1 3.5-.4c4.3 0 8.2 3.2 17.9 20.5 12.6 22.7 34.8 35.8 60.9 35.8 3.2 0 6.4-.2 9.5-.6 39.5-4.9 43.8-10.7 44.2-12.3.2-.7-1.1-3.7-8.6-8.8-10.2-6.8-27.1-12-40.6-16.1-19.9-6.1-30.8-9.4-30.6-17.9.2-7.1 8.1-11.4 31.5-17.3 71-17.7 117.4-101.4 111.5-164.4-.1-1.5-.6-6.1 2.6-9.5 3.9-4.2 10.3-4.8 23-2 21.7 4.8 48.6 7.4 77.8 7.4 51.9 0 102.9-8.2 124.1-20 4.4-2.4 6.7-5.2 6.2-7.1-.7-2.8-6.7-6.9-15.6-6.9-2.1 0-4.2.2-6.3.7-4.3 1-8.7 1.4-13.1 1.4-15.7 0-27.2-6.1-27.9-14.8-.9-10.4 12.2-18.1 38.9-22.8 55.9-9.9 120-90.1 147.4-124.3l1.1-1.3c13.3-16.6 15.3-28.5 13.4-32.5-.3-.7-.8-1.4-2.6-1.4-1.6 0-6.1.7-13.4 6.9-13 11.1-33.3 23-45.3 23-6.2 0-8.9-3.2-9.9-5.1-2.6-4.9-.8-11.8 5.7-21.6 25.1-37.6 24-85.2 19.8-148.4-3.5-53 13.7-191.4 52.5-258.4 5.7-9.8 10.6-18.7 15.2-26.8 25.7-46.1 38.6-69.2 82.3-75.4 17.3-2.5 28.4-7.4 32-14.3 3.4-6.5.2-14.7-3.4-21.8-6.3-13.2-25.5-41.6-55.6-65.1zM558.1 1512v-.1.1zm1191.7-723.5c-3.2 6-13.8 10.6-30.1 12.9-45 6.4-58.1 29.9-84.3 76.7l-15.2 26.8c-39 67.4-56.4 206.5-52.8 259.8 4.2 62.7 5.2 109.9-19.4 146.8-3.2 4.7-12.7 19.1-3.3 27.5 13.2 11.7 46.2-11.3 56.7-20.3 12-10.3 14.5-7.2 10.7 3.4-1.6 4.3-4.4 9.9-9.4 16.7-.8 1.1-5.9 7.5-7.1 9-28.9 36-89.6 109.6-142.2 118.9-23.9 4.2-37.1 10.8-40.3 20.1-1.6 4.7-.6 9.7 3 13.7 7.1 8 24.2 11.2 40.5 7.5 6.6-1.5 11.4-1.3 14.4-.2 5.8 2.2 5.9 5-.6 8.6-32.2 17.9-132.8 27.3-200.1 12.4-12.7-2.8-19.8-2.3-24.5 1.9-3.3 2.9-4.7 7.1-4.2 12.5 5.8 61.9-39.8 144.2-109.5 161.6-22 5.5-33.3 10.1-33.5 19.8-.3 10.5 12.1 14.2 32.4 20.4 13.4 4.1 30 9.2 40 15.8 4.7 3.1 6.5 5.2 7.1 6.2-2.1 1.9-10.2 6.2-41.6 10.1-28.7 3.6-54.1-9.1-67.8-33.8-8.2-14.7-14.6-24.8-23.5-21.3-8.7 3.4-7.5 14.3-1.7 37.5 5.8 23.3 12.3 74.5-4.8 101.4-3.7 5.8-9.2 14.4-13.9 20.7-7.8 10.4-9.1 9.2-16-.1-4.9-6.6-10.6-15.8-14.1-21.4-16.7-27.1-10.3-77.9-4.5-101 5.8-23.2 6.9-34.1-1.7-37.5-8.9-3.5-15.4 6.6-23.5 21.2-13.8 24.8-39.1 37.4-67.8 33.8-18.2-2.3-28.5-4.7-34.5-6.7-7.6-2.5-7.7-4.5 0-9.6 9.9-6.6 26.6-11.7 40-15.8 20.4-6.2 32.7-10 32.4-20.4-.3-9.7-11.5-14.3-33.5-19.8-67.7-16.9-112-105.2-109.8-157.5.1-1.4.4-6.8.3-8-.3-3.6-1.8-6.5-4.2-8.7-4.7-4.1-11.8-4.7-24.5-1.9-67.2 14.9-167.9 5.5-200.1-12.4-9.5-5.3-2.5-12.1 13.8-8.5 16.4 3.6 33.4.4 40.5-7.5 3.5-4 4.6-8.9 3-13.7-3.2-9.3-16.4-15.9-40.3-20.1-53.2-9.4-114.7-84.5-143.2-120.1-.9-1.1-6-7.6-7.1-9.1-4.3-6.1-6.9-11.2-8.4-15.2-4.4-12.1-.9-13.5 10.6-3.6 10.5 9 43.4 32 56.7 20.3 9.5-8.4-.1-22.7-3.3-27.5-24.6-36.9-23.5-84.1-19.4-146.7 3.6-53.3-13.8-192.5-52.8-259.9L398 877.8c-26.1-46.8-39.2-70.3-84.3-76.7-16.2-2.3-26.9-6.9-30.1-12.9-2.8-5.4.1-12.9 3.4-19.4 6.4-12.9 25.3-40.9 55.1-64.1 10.7-8.3 22.4-15.5 31.9-21.2 16.6-10.1 24.2-14.8 21.9-23.2-2.2-8-12-8-17.3-8-8.9 0-14.8-.4-18.6-.9 3.1-1.9 7.8-4.5 15.1-7.9 40.5-18.7 83.2-37.2 121.5-40.7 46.7-4.2 46.2-15.4 46-19-.5-10.9-15.4-10.9-22.6-10.9-10.1 0-18.1-.9-23.3-2 4.4-2.3 12.1-5.5 25.7-9.8 51.3-16.2 110.4 3.1 185.8 60.8 19.2 14.7 33 22.3 41.7 14.7 11.4-9.9 2.2-33.8-47-121.6-22.5-40.3-19.5-53.5-17.5-54.9 3.8-2.5 19.8 3.7 31.6 19 15.4 19.8 28.9 27.4 39.1 22.2 11.5-5.9 12.3-24 2.6-57-12.3-41.7 5.6-65.8 24.6-91.2 5.5-7.4 11.2-15 16-23.1 4.8-8 10.8-18 16.1-26.3-5.4 25.3-2.4 40.7 8.8 45.8 10.7 4.9 23-2.8 29.8-11.9 1.7-2.3 3.3-4.6 4.9-7.1 8.6-13 20.3-30.7 68.3-56.1 51.6-27.3 70.8-75 82.8-118 2.8-10.1 5-15.7 6.5-18.9 1.5 3.1 3.7 8.5 6.3 18.2 12.7 45.7 31.5 91.7 83.1 119 47.9 25.4 59.7 43.1 68.3 56.1 1.7 2.5 3.2 4.9 4.9 7.2 6.9 9.2 19.1 16.8 29.8 11.9 11.2-5.1 14.1-20.5 8.8-45.8 5.3 8.2 11.4 18.3 16.1 26.3 4.8 8 10.5 15.7 16 23.1 18.9 25.5 36.8 49.5 24.6 91.2-9.7 33-8.9 51.2 2.6 57 10.2 5.2 23.8-2.4 39.1-22.2 11.8-15.2 27.8-21.5 31.6-19 2.1 1.4 5.1 14.6-17.5 54.9-49.2 87.9-58.4 111.7-47 121.6 8.8 7.6 22.5.1 41.7-14.7 75.4-57.7 134.5-77 185.8-60.8 13.6 4.3 21.4 7.6 25.7 9.9-5.2 1.1-13.2 2-23.3 2-7.2 0-22.1 0-22.6 10.9-.1 3.7-.7 14.8 46 19.1 38.4 3.5 81.1 22 121.5 40.7 7.3 3.4 12 5.9 15.1 7.9-3.8.5-9.7.9-18.6.9-5.2 0-15 0-17.3 8-2.4 8.4 5.2 13.1 21.9 23.2 9.4 5.7 21.1 12.9 31.9 21.2 29.8 23.2 48.6 51.2 55.1 64.1 3.6 6.2 6.5 13.7 3.7 19.1z"/><path fill="#123" d="M827.1 1328.5c-143.3-37.2-241.2-103.4-254-140.6-12.8-37.1-22.7 3.2-15.6 35.5s16.1 149.3 92.2 185.8c185.5 88.9 290.4-22.1 337.7 222.9 15.6 80.8 22.7 40.4 17-3.2-2.9-22.5-34.1-263.2-177.3-300.4z"/><path fill="#E4D4A2" d="M717.8 1227.6c68.7 18 118.5 24.7 154.8 38.3 76.6 28.9 104.6 134.4 113.4 194.3 5.7 38.8 18.5 37.2 15.6 11.3-3.7-33.8-17.6-167.6-75.2-243.9-95.7-126.9-267.1-56.2-300.8-200.3-11.3-48.5-15.6-30.7-17 4.9-1.5 35.4-19.9 161.4 109.2 195.4z"/><path fill="#123" d="M748.5 1087.9c61.8 16.2 106.7 22.2 139.3 34.5 69 26 94.2 120.9 102.1 174.9 5.1 34.9 16.6 33.5 14 10.2-3.4-30.4-15.9-150.9-67.7-219.6-86.2-114.2-240.4-50.6-270.7-180.3-10.2-43.6-14.1-27.6-15.3 4.3-1.3 32-17.9 145.4 98.3 176z"/><path fill="#E4D4A2" d="M948 981.1c-77.5-102.8-216.3-45.5-243.6-162.3-9.2-39.3-12.7-24.9-13.8 3.9-1.1 28.8-16.1 130.9 88.5 158.3 55.6 14.6 96 20 125.4 31.1 62.1 23.4 84.7 108.8 91.8 157.4 4.6 31.4 14.9 30.1 12.6 9.2-3-27.4-14.3-135.8-60.9-197.6z"/><path fill="#123" d="M798.9 866.2c50.1 13.1 89.2 11.5 115.7 21.5 55.9 21.1 73.4 104.4 79.8 148.1 4.1 28.3 13.4 27.1 11.4 8.2-2.7-24.6-11.4-127-53.4-182.7-79.6-105.6-160.2-21.4-190.9-152.5-8.3-35.3-12.6-14.7-19.5 10-9.6 34-37.2 122.6 56.9 147.4z"/><path fill="#E4D4A2" d="M915 755.8c70.5 21.1 72 92 75.2 132.5 1.4 17.8 14.2 27.5 12.7-27.5-1.2-46.8-13.8-136.3-83.7-171.2-58.2-29.1-83.7-77.6-76.6-109.9 7.1-32.3-9.9-9.7-17 11.3s-34 87.2 10 132.5c23.4 24.1 52.9 24.4 79.4 32.3z"/><path fill="#123" d="M1049.8 531.3c17.3-47.4-12.8-88.9-21.3-119.5-8.5-30.7-4.3-85.6-22.7-37.2-8.6 22.6-42.6 114.7-29.8 148.6 12.8 33.9 34 103.4 34 166.4 0 43.7 12.8 38.8 12.8-1.6.1-40.4 5.7-98.6 27-156.7zM913.6 610.4c58 41.2 68.3 57.9 75.2 113.1 4.3 33.9 8.5 25.8 8.5 1.6 0-47.3 0-87.2-29.8-134.1-34.8-54.8-43.2-84.7-22.7-124.4 14.2-27.4-1.4-12.9-15.6 6.5s-71.8 97.4-15.6 137.3z"/><path fill="#E4D4A2" d="M1458.8 1188.8c-12.8 37.2-110.7 103.4-254 140.6-143.3 37.1-174.4 277.9-177.4 300.5-5.7 43.6 1.4 84 17 3.2 47.3-245 152.3-134.1 337.7-223 76.1-36.5 85.1-153.5 92.2-185.8 7.2-32.3-2.7-72.7-15.5-35.5z"/><path fill="#123" d="M1105.5 1228.4c-57.6 76.3-71.5 210.1-75.2 243.9-2.8 25.8 9.9 27.5 15.6-11.3 8.8-59.9 36.8-165.4 113.4-194.3 36.3-13.7 86.1-20.3 154.8-38.3 129.1-33.9 110.7-159.9 109.2-195.5-1.4-35.5-5.7-53.3-17-4.8-33.7 144-205.1 73.4-300.8 200.3z"/><path fill="#E4D4A2" d="M1095.7 1088.6c-51.8 68.7-64.4 189.1-67.7 219.6-2.6 23.2 8.9 24.7 14.1-10.2 7.9-53.9 33.1-148.9 102-174.9 32.7-12.3 77.5-18.3 139.3-34.5 116.2-30.5 99.6-143.9 98.3-175.9-1.3-32-5.1-48-15.3-4.4-30.4 129.7-184.6 66.2-270.7 180.3z"/><path fill="#123" d="M1035.6 1170.3c7.1-48.5 29.7-134 91.8-157.4 29.4-11.1 69.7-16.4 125.4-31.1 104.6-27.5 89.6-129.5 88.5-158.3-1.2-28.8-4.6-43.2-13.8-3.9-27.3 116.7-166.1 59.5-243.7 162.3-46.6 61.8-57.9 170.2-60.9 197.6-2.2 20.9 8.1 22.2 12.7-9.2z"/><path fill="#E4D4A2" d="M1079.5 862.1c-41.9 55.6-50.7 158-53.4 182.7-2.1 18.8 7.2 20 11.4-8.2 6.4-43.7 23.9-127.1 79.8-148.1 26.4-10 65.6-8.3 115.7-21.5 94.1-24.7 66.5-113.4 56.9-147.4-6.9-24.7-11.2-45.3-19.5-10-30.7 131-111.2 46.9-190.9 152.5z"/><path fill="#123" d="M1028.9 861.6c-1.4 54.9 11.4 45.2 12.8 27.5 3.2-40.5 4.7-111.4 75.2-132.5 26.5-7.9 56-8.2 79.4-32.3 44-45.2 17-111.5 9.9-132.5s-24.1-43.6-17.1-11.3c7.1 32.3-18.4 80.8-76.6 109.9-69.8 34.9-82.4 124.4-83.6 171.2z"/><path fill="#E4D4A2" d="M1034.6 725.9c0 24.2 4.3 32.3 8.5-1.6 6.9-55.2 17.2-71.9 75.2-113.1 56.2-39.9-1.4-117.9-15.6-137.3-14.2-19.4-29.8-33.9-15.6-6.5 20.5 39.7 12.1 69.6-22.7 124.4-29.8 46.9-29.8 86.8-29.8 134.1z"/><path d="M558.1 1512l.1-.1h-.1z"/><path fill="#E5D5A1" d="M1691.3 705c-10.7-8.3-22.5-15.5-31.9-21.2-16.6-10.1-24.2-14.8-21.9-23.2 2.2-8 12-8 17.3-8 8.9 0 14.8-.4 18.6-.9-3.1-1.9-7.8-4.5-15.1-7.9-40.5-18.7-83.2-37.2-121.5-40.7-46.7-4.2-46.2-15.4-46-19.1.5-10.9 15.4-10.9 22.6-10.9 10.1 0 18.1-.9 23.3-2-4.4-2.3-12.1-5.5-25.7-9.9-51.3-16.2-110.4 3.1-185.8 60.8-19.2 14.7-33 22.3-41.7 14.7-11.4-9.9-2.2-33.7 47-121.6 22.5-40.2 19.5-53.5 17.5-54.9-3.8-2.5-19.8 3.7-31.6 19-15.4 19.8-28.9 27.4-39.1 22.2-11.5-5.9-12.3-24-2.6-57 12.3-41.7-5.6-65.8-24.6-91.2-5.5-7.4-11.2-15-16-23.1-4.8-8-10.8-18-16.1-26.3 5.4 25.3 2.4 40.7-8.8 45.8-10.7 4.9-22.9-2.8-29.8-11.9-1.7-2.3-3.3-4.6-4.9-7.2-8.6-13-20.3-30.7-68.3-56.1-51.6-27.3-70.4-73.3-83.1-119-2.7-9.7-4.9-15.2-6.3-18.2-1.5 3.1-3.7 8.7-6.5 18.9-12 43-31.2 90.7-82.8 118-47.9 25.4-59.7 43.1-68.3 56.1-1.7 2.5-3.2 4.9-4.9 7.1-6.9 9.2-19.1 16.8-29.8 11.9-11.2-5.1-14.1-20.5-8.8-45.8-5.3 8.2-11.4 18.3-16.1 26.3-4.8 8-10.5 15.7-16 23.1-18.9 25.5-36.8 49.5-24.6 91.2 9.7 33 8.9 51.1-2.6 57-10.2 5.2-23.8-2.4-39.1-22.2-11.8-15.2-27.8-21.5-31.6-19-2.1 1.4-5.1 14.6 17.5 54.9 49.2 87.9 58.4 111.7 47 121.6-8.8 7.6-22.5 0-41.7-14.7-75.4-57.7-134.5-77-185.8-60.8-13.6 4.3-21.3 7.6-25.7 9.8 5.2 1.1 13.2 2 23.3 2 7.2 0 22.1 0 22.6 10.9.2 3.7.7 14.8-46 19-38.3 3.5-81.1 22-121.5 40.7-7.3 3.4-12 5.9-15.1 7.9 3.8.5 9.7.9 18.6.9 5.3 0 15 0 17.3 8 2.4 8.4-5.2 13.1-21.9 23.2-9.4 5.8-21.1 12.9-31.9 21.2-29.8 23.2-48.6 51.2-55.1 64.1-3.3 6.6-6.3 14-3.4 19.4 3.1 6 13.8 10.6 30.1 12.9 45 6.4 58.2 29.9 84.3 76.7l15.2 26.8c39 67.4 56.4 206.5 52.8 259.9-4.2 62.7-5.2 109.9 19.4 146.7 3.1 4.7 12.7 19.1 3.3 27.5-13.2 11.7-46.2-11.3-56.7-20.3-11.5-9.9-15-8.4-10.6 3.6 1.5 4 4.1 9.2 8.4 15.2 1 1.4 6.2 7.9 7.1 9.1 28.5 35.6 90 110.7 143.2 120.1 23.9 4.2 37.1 10.8 40.3 20.1 1.6 4.7.6 9.7-3 13.7-7.1 8-24.2 11.2-40.5 7.5-16.3-3.6-23.3 3.2-13.8 8.5 32.2 17.9 132.8 27.3 200.1 12.4 12.7-2.8 19.8-2.3 24.5 1.9 2.5 2.2 3.9 5.1 4.2 8.7.1 1.2-.2 6.6-.3 8-2.2 52.3 42.1 140.6 109.8 157.5 22 5.5 33.3 10.1 33.5 19.8.3 10.5-12.1 14.2-32.4 20.4-13.4 4.1-30 9.2-40 15.8-7.7 5.1-7.6 7.1 0 9.6 5.9 2 16.3 4.4 34.5 6.7 28.7 3.6 54.1-9.1 67.8-33.8 8.2-14.7 14.6-24.8 23.5-21.2 8.6 3.4 7.5 14.3 1.7 37.5-5.8 23.1-12.2 73.9 4.5 101 3.5 5.6 9.2 14.8 14.1 21.4 6.9 9.3 8.2 10.5 16 .1 4.8-6.3 10.3-15 13.9-20.7 17.1-27 10.6-78.1 4.8-101.4-5.8-23.2-6.9-34.1 1.7-37.5 8.9-3.5 15.4 6.6 23.5 21.3 13.8 24.8 39.1 37.4 67.8 33.8 31.4-3.9 39.5-8.2 41.6-10.1-.6-1-2.4-3-7.1-6.2-9.9-6.6-26.6-11.7-40-15.8-20.4-6.2-32.7-10-32.4-20.4.3-9.7 11.5-14.2 33.5-19.8 69.7-17.4 115.3-99.7 109.5-161.6-.5-5.4.9-9.6 4.2-12.5 4.7-4.1 11.8-4.7 24.5-1.9 67.2 14.9 167.9 5.5 200.1-12.4 6.5-3.6 6.5-6.4.6-8.6-3.1-1.2-7.8-1.3-14.4.2-16.3 3.6-33.4.5-40.5-7.5-3.5-3.9-4.6-8.9-3-13.7 3.2-9.3 16.4-15.9 40.3-20.1 52.6-9.3 113.4-82.9 142.2-118.9 1.2-1.5 6.3-8 7.1-9 5-6.7 7.8-12.3 9.4-16.7 3.8-10.6 1.4-13.7-10.7-3.4-10.5 9-43.4 32-56.7 20.3-9.5-8.4.1-22.7 3.3-27.5 24.6-36.9 23.5-84.1 19.4-146.8-3.5-53.3 13.8-192.5 52.8-259.8l15.2-26.8c26.1-46.8 39.2-70.3 84.3-76.7 16.3-2.3 26.9-6.9 30.1-12.9 2.8-5.4-.1-12.9-3.4-19.4-6.6-13-25.4-41.1-55.2-64.2zm5.7 73c-58.7 17.3-144.9 127.6-165.6 441.5-11.9 179.9-156.2 258.9-291 294.3-20.7 68.4-60.7 124.7-111.6 158-77.7 50.9-139.9 45.7-209.1 3.1-52.6-32.5-94.3-89.2-115.8-158.9-137.6-34-289.1-112.5-301.2-296.9C482 905.2 395.8 794.8 337.1 777.6c-10.1-3-10.7-9.5-6.7-19.9 22.2-57 223.6-204.9 346.6-130.2 144.9 88 108.7-5.2 108.7-51.7 0-46.6 0-160.4 119-238 75.8-49.4 97-84.2 103.8-109.6 5.6-21.2 12.6-17.9 17.3 0 6.6 25.4 27.7 60.3 103.9 110 119 77.6 119 191.4 119 238 0 46.6-36.2 139.7 108.7 51.7C1502.1 540 1755.7 760.8 1697 778z"/><path fill="#123" d="M1758.5 763c-8.7-17.3-29.3-45.7-58.9-68.7-11.3-8.8-23.4-16.2-33.1-22.1-3.3-2-6.8-4.2-9.7-6 24-.1 33.6-3 35.2-10.4 1.6-7.4-6.2-14.2-27.9-24.2-41.5-19.2-85.4-38.2-126-41.9-8.3-.8-15-1.8-20.3-2.9 23.5-.5 36.1-4.8 37.3-12.8 1.1-7.3-5.2-14.4-40-25.4-12.7-4-26.1-6.1-39.9-6.1-46.4 0-96.7 21.9-158.3 69-15.6 11.9-22.1 14.3-24.5 14.8-1.5-12.6 34.3-76.6 49.8-104.3 18.7-33.3 24.7-56.1 17.8-67.8-2.9-5-8-7.7-14.4-7.7-12.3 0-28.8 10.1-40.1 24.6-11.4 14.6-19.2 18.5-22.6 18.1-.9-1.2-4.9-8.7 4.6-40.8 14.2-48.2-7.5-77.4-26.7-103.1-5.6-7.5-10.8-14.5-15.3-22-22.5-37.5-29.3-46.1-36.1-46.1-2.1 0-4.1 1-5.5 2.6-2.5 3.1-3.3 8.7.5 26.8 4.7 22 1.2 28.5 0 30-2.7 3.4-10-.9-14.4-6.8-1.5-2-2.9-4.2-4.5-6.5-9.4-14.2-22.2-33.6-73.2-60.6-47-24.9-64.5-67.9-76.4-110.6-6.2-22.5-11.7-31.2-19.4-31.2-8.9 0-14 12.2-19.5 31.8-11.8 42.3-29.2 84.8-76.1 109.6-51 27-63.8 46.4-73.2 60.6-1.5 2.3-3 4.5-4.5 6.5-4.5 6-11.7 10.3-14.4 6.8-1.2-1.5-4.7-8 0-30 4.1-19 3.4-24.6.7-27.9-1.3-1.7-3.3-2.6-5.4-2.6-7.1 0-14.1 10.1-36.4 47.2-4.5 7.4-9.7 14.5-15.3 21.9-19.2 25.7-40.9 54.9-26.7 103.2 9.4 32.1 5.5 39.6 3.8 41.2-2.7 0-10.4-3.9-21.8-18.5-11.3-14.5-27.8-24.7-40.1-24.7-6.4 0-11.5 2.7-14.4 7.7-6.8 11.7-.8 34.5 17.8 67.8 15.5 27.8 51.4 91.8 49.8 104.3-2.3-.4-8.7-2.7-24.5-14.8-61.6-47.1-111.9-69-158.3-69-13.7 0-27.1 2-39.8 6.1-34.8 11-41.1 18.1-40 25.4 1.2 8.1 13.8 12.4 37.3 12.8-5.3 1.1-12 2.2-20.3 2.9-40.5 3.7-84.5 22.7-126 41.9-21.7 10-29.5 16.8-27.9 24.2 1.6 7.4 11.2 10.2 35.2 10.4-2.9 1.9-6.4 4-9.7 6-9.7 5.9-21.8 13.3-33.1 22.1-29.7 23.1-50.3 51.4-58.9 68.7-4.5 9.1-9 20.9-3.3 31.8 5.4 10.4 18.6 17 40.2 20.1 38.4 5.5 48.9 24.4 74.3 69.9 4.6 8.2 9.6 17.2 15.3 27 37.1 64.1 54.4 201.6 51 252.1-4.3 65.4-5.3 112 21.6 152.5 3.6 5.3 4.6 7 4.9 7-6.9 0-24.2-5.6-38.2-17.6-14-12-28.1-10.7-32.9-.6-4.8 10 .7 27.2 14.7 44.7l1.2 1.8c28.1 35.2 94.1 117.8 153.9 128.3 26.8 4.7 29.8 11.1 29.9 11.1-.5 1.4-6.3 5-17 5-3.6 0-7.2-.4-10.7-1.2-15.5-3.4-32.1 3.4-34.8 14.1-.9 3.4-1.5 12.2 11.5 19.4 23 12.8 75 21.4 129.4 21.4 30 0 57.8-2.6 80.2-7.6 4.3-1 7.7-1.4 10.1-1.4 1.3 0 2 .1 2.2.1v1.2c-5.4 57.5 42.5 156.7 119.7 176.1 12.6 3.1 18.5 5.5 21.3 6.9-4.5 2.2-13.7 5-20.9 7.2-15 4.6-31.9 9.7-43.5 17.5-3.8 2.6-15.5 10.4-13.2 20.4 2.8 11.9 23.4 16.9 53.5 20.6 3.6.5 7.2.7 10.8.7 30.2 0 55.9-15.1 70.5-41.4 1-1.9 2-3.5 2.9-5-.6 3-1.4 6.8-2.6 11.4-6.7 26.8-13 80.5 6.1 111.4 15.4 24.9 23.2 35.8 33.6 35.8 10.8 0 18.9-11.9 33.4-34.8 19.5-30.8 13.3-84.9 6.5-112-1.2-4.6-2-8.3-2.6-11.4.9 1.5 1.8 3.1 2.9 5 14.6 26.3 40.3 41.4 70.5 41.4 3.6 0 7.3-.2 10.8-.7 30.1-3.8 50.7-8.7 53.5-20.7 2.4-10-9.3-17.8-13.2-20.4-11.6-7.7-28.6-12.9-43.5-17.5-7.2-2.2-16.4-5-20.9-7.2 2.8-1.4 8.8-3.7 21.3-6.9 78.5-19.6 126.1-108.5 119.7-176-.1-.5-.1-.9-.1-1.1 1.1-.3 6-.2 12.4 1.2 22.4 5 50.2 7.6 80.2 7.6 54.4 0 106.4-8.6 129.4-21.4 13-7.3 12.4-16 11.5-19.4-2.8-10.7-19.3-17.6-34.8-14.1-3.5.8-7.1 1.2-10.7 1.2-10.7 0-16.5-3.5-17-4.7 0-.1 2.7-6.4 29.9-11.2 59.9-10.6 125.9-93 154-128.3l1.1-1.3c14-17.6 19.6-34 14.7-44-4.8-10.1-18.9-10-32.9 2-13.4 11.5-29.9 19.6-38.2 20.2.3-1.4 1.4-4.4 4.9-9.6 27-40.4 26-89.8 21.6-155.2-3.4-50.5 13.9-188 51-252.2 5.7-9.8 10.7-18.8 15.3-27 25.4-45.6 36-64.4 74.3-69.9 21.6-3.1 34.7-9.6 40.2-20 5.8-10.9 1.3-22.7-3.2-31.8zm-6.4 26.7c-3.6 6.9-14.7 11.8-32 14.3-43.8 6.3-56.7 29.4-82.3 75.4-4.5 8.1-9.5 17.1-15.2 26.8-38.8 67-56 205.3-52.5 258.4 4.2 63.2 5.3 110.8-19.8 148.4-6.5 9.8-8.3 16.6-5.7 21.6 1 1.9 3.7 5.1 9.9 5.1 12 0 32.3-11.8 45.3-23 7.3-6.3 11.8-6.9 13.4-6.9 1.8 0 2.2.7 2.6 1.4 1.9 3.9-.1 15.8-13.4 32.5l-1.1 1.3c-27.4 34.2-91.5 114.4-147.4 124.3-26.7 4.7-39.8 12.4-38.9 22.8.8 8.7 12.2 14.8 27.9 14.8 4.4 0 8.8-.5 13.1-1.4 2.1-.5 4.2-.7 6.3-.7 8.9 0 14.9 4.1 15.6 6.9.5 2-1.9 4.7-6.2 7.1-21.2 11.8-72.2 20-124.1 20-29.3 0-56.2-2.5-77.8-7.4-12.7-2.8-19.1-2.2-23 2-3.1 3.4-2.7 8-2.6 9.5 5.9 63-40.5 146.7-111.5 164.4-23.4 5.8-31.4 10.2-31.5 17.3-.2 8.5 10.7 11.8 30.6 17.9 13.5 4.1 30.4 9.3 40.6 16.1 7.5 5 8.8 8.1 8.6 8.8-.4 1.6-4.7 7.4-44.2 12.3-3.1.4-6.3.6-9.5.6-26.1 0-48.3-13-60.9-35.8-9.6-17.4-13.6-20.5-17.9-20.5l-3.5.4-1.6 2.1c-2.2 2.8-3.6 7.4 2.6 32.3 6.4 25.4 12.4 75.8-5.1 103.5-8.4 13.2-18.9 29.7-24.1 29.7-5.4 0-16.3-17.7-24.3-30.6-17.2-27.8-11.1-77.8-4.8-103 6.2-25 4.8-30.4 2.6-33.2l-2.5-3.4H985c-4.3 0-8.3 4-17.9 21.4-12.6 22.7-34.8 36.2-60.9 36.2-3.2 0-6.4 0-9.5-.4-39.5-4.9-43.8-10.6-44.2-12.2-.2-.7 1.1-3.7 8.6-8.7 10.2-6.8 27.1-11.9 40.7-16.1 19.9-6.1 30.8-9.4 30.6-17.9-.2-7.1-8.1-11.4-31.5-17.3-76.9-19.2-115.9-117.4-111.5-164.4.1-1.5.6-6.1-2.6-9.5-3.8-4.2-10.3-4.8-23-2-21.7 4.8-48.6 7.4-77.8 7.4-51.9 0-102.9-8.2-124.1-20-4.4-2.4-6.7-5.2-6.2-7.1.7-2.8 6.7-6.9 15.6-6.9 2.1 0 4.2.2 6.3.7 4.3 1 8.7 1.4 13.1 1.4 15.7 0 27.2-6.1 27.9-14.8.9-10.4-12.2-18.1-38.9-22.8-55.8-9.8-119.9-90-147.3-124.2l-1.2-1.4c-13.3-16.6-15.3-28.5-13.4-32.5.3-.7.8-1.4 2.6-1.4 1.6 0 6.1.7 13.4 6.9 13 11.1 33.3 23 45.3 23 6.2 0 8.9-3.2 9.9-5.1 2.6-4.9.8-11.8-5.7-21.6-25-37.6-24-85.2-19.8-148.4 3.5-53-13.7-191.4-52.5-258.4-5.7-9.8-10.7-18.7-15.2-26.9-25.7-46.1-38.6-69.2-82.3-75.4-17.4-2.5-28.4-7.4-32-14.3-3.4-6.5-.2-14.7 3.4-21.8 6.5-13.1 25.6-41.5 55.8-65 10.9-8.4 22.6-15.6 32.1-21.4 15.9-9.7 22.5-13.7 20.7-20.3-1.7-6.1-9.9-6.1-14.8-6.1-15.5 0-22.2-1.2-25-2.1 2.1-1.9 7.4-5.7 20.4-11.6 40.7-18.8 83.6-37.4 122.4-40.9 20.2-1.8 44.1-6.2 43.6-16.3-.3-7.4-9.8-8.4-20-8.4-15.3 0-25.7-2-29.7-3.7 2.6-2.1 10-6.5 31.3-13.2 11.7-3.7 24-5.5 36.6-5.5 43.9 0 92.1 21.2 151.6 66.8 19.8 15.1 27.4 17.1 31.8 17.1 3.8 0 6.8-1.6 8.5-4.6 6.1-10.5-5-36.5-49.5-116-23.3-41.5-19.6-54.1-17.9-56.9.6-1.1 1.8-2.3 5-2.3 7.6 0 21.5 7.6 31.4 20.4 8.1 10.4 19.9 22.7 30.4 22.7 3.9 0 7.3-1.7 9.6-4.8 5.8-7.7 4.9-24.2-2.9-50.4-12.6-43 5.6-67.5 25-93.5 5.5-7.3 11.1-14.9 15.9-22.8 7-11.8 16.8-28 23.2-36.5-.4 2.8-1.1 6.7-2.2 11.9-4.2 19.4-3.4 32.2 2.2 39.2 2.8 3.4 6.5 5.2 10.9 5.2 7 0 15.1-4.9 20.7-12.4 1.6-2.2 3.2-4.5 4.8-7 8.7-13.2 20.7-31.3 69.2-57 57.5-30.4 73.7-88.5 81.5-116.4 4.5-16.2 7.6-21.5 9-23.3 1.4 1.7 4.5 6.9 8.9 22.7 12.5 45.1 31.1 90.5 81.8 117.3 48.5 25.7 60.5 43.8 69.2 57 1.7 2.5 3.2 4.8 4.8 7 4.3 5.7 12.3 12.3 20.8 12.3 4.4 0 8.2-1.8 11-5.2 5.6-7 6.3-19.8 2.2-39.2-1.1-4.9-1.7-8.6-2-11.2 6.8 8.8 17.3 26.3 23 35.9 4.7 7.9 10.4 15.5 15.9 22.9 19.3 26 37.6 50.5 25 93.5-7.7 26.2-8.6 42.7-2.9 50.5 2.3 3.1 5.7 4.8 9.6 4.8 10.5 0 22.3-12.4 30.4-22.8 9.9-12.8 23.8-20.4 31.4-20.4 3.2 0 4.4 1.2 5 2.3 1.7 2.8 5.3 15.4-18 56.9-44.5 79.6-55.6 105.6-49.5 116.1 1.7 3 4.8 4.6 8.5 4.6 4.4 0 12-1.9 31.9-17.1 59.5-45.5 107.7-66.8 151.6-66.8 12.6 0 24.9 1.9 36.6 5.5 21.3 6.7 28.8 11.2 31.3 13.2-4 1.7-14.3 3.7-29.7 3.7-10.2 0-19.6 1-20 8.4-.5 10.2 23.5 14.5 43.6 16.3 38.8 3.5 81.7 22.1 122.4 40.9 13 6 18.3 9.7 20.4 11.7-2.8.9-9.6 2.1-25 2.1-4.9 0-13.1 0-14.8 6.1-1.8 6.5 4.8 10.5 20.7 20.3 9.5 5.8 21.3 13 32.1 21.4 30.1 23.4 49.3 51.9 55.8 65 3.8 7.1 7 15.3 3.6 21.8z"/></svg>