<svg xmlns:xlink="http://www.w3.org/1999/xlink"  xmlns="http://www.w3.org/2000/svg" viewBox="0 0 2000 2000"><path fill="#EF3D38" d="M1075.9 1066.6c-3.3-5-8.3-5.3-11.6-3.1-5 3.3-2.8 10.2-7.9 13.6-1.7 1.1-15-4.5-25 2.1-6.7 4.4-7.8 10-11.2 12.2-2.5 1.6-5.3 1.1-6.4-.6-1.6-2.5-1.1-5.3-4.4-10.3-1.6-2.5-21.9-5.9-33.6 1.8-8.3 5.5-.1 25.3-3.4 27.5-4.2 2.8-9.7-9.2-15.5-5.4-5 3.3-2.3 21.9-1 33.1 4 37 55.9 359.2-92.9 457.5-109.5 72.3-289.6 15.9-307.3-10.9-2.8-4.2-2.5-9.2 1.7-11.9 15.9-10.5 29.5-13.5 54-23.7 60.1-25.3 277.8-106.6 298.7-120.3 22.5-14.9-17.1-40.4 1.3-52.5l10.9-7.2c9.2-6.1 10.1-10.2 5.1-17.8-2.2-3.3-5.3-6.1-8-10.3-3.9-5.9-1.6-17 5.1-21.4 5-3.3 10.6-5.8 13.9-8 5-3.3 5.9-7.5 2-13.3-6-9.2-125.2 43.1-184.5 64.2-94.6 34.8-180.4 79.4-313.7 130.2-19 7.7-34.5 2.4-46.1-4.4-28.3-17.3-42.1-23.8-45.5-21.6-2.5 1.6-6.1 5.2-4.5 7.8 2.2 3.3 6.6 6.4 8.3 8.9 1.1 1.7 3.3 5 .8 6.7-5 3.3-10.3-2.8-13.6-.6-5 3.3-6.7 8-10.9 14.4-3.7 7.2-15.4 15-11 21.6 6.1 9.2 26.3 16.2 32.4 25.4 2.2 3.3 2.2 6.9.5 8.1-10.9 7.2-22.7-12.6-30.3-7.6-5.8 3.9-6.7 8-2.3 14.7 1.7 2.5 364.9 305.3 625.7 133.2 56.9-37.5 140.6-128.8 138.9-293.3-.8-17.5 2.9-155.6 2.6-210.6 1.1-40.4-6.3-120.7-11.3-128.2z"/><path fill="#EC5D27" d="M621 1207.2c16.4-6.1 148.9-45.3 201.1-62.6 38.6-11.5 112.7-43.4 118.4-50.4 3.7-4.7 2.5-9.5-.7-12-4.7-3.7-10.6.5-15.3-3.3-1.5-1.3-.3-15.7-9.7-23.1-6.3-5-11.9-4.4-15-6.9-2.3-1.9-2.6-4.7-1.4-6.3 1.9-2.3 4.7-2.7 8.4-7.4 1.9-2.3-1.1-22.7-12.1-31.4-7.9-6.3-24.1 7.7-27.2 5.2-3.9-3.1 5.8-12.1.3-16.4-4.7-3.8-21.6 4.6-31.8 9.3-33.9 15.2-324.4 164.2-463.8 53-102.6-81.8-104.6-270.5-84.6-295.6 3.1-3.9 8-5.2 11.9-2 14.9 11.9 21.9 23.9 39.2 44.1 42.7 49.4 187.2 231.3 206.8 246.9 21.2 16.9 33.1-28.7 50.4-14.9l10.2 8.1c8.6 6.9 12.9 6.4 18.5-.7 2.5-3.1 4.2-6.9 7.3-10.8 4.4-5.5 15.6-6.8 21.9-1.8 4.7 3.8 8.8 8.3 11.9 10.8 4.7 3.7 8.9 3.3 13.3-2.2 6.9-8.6-79.7-105.8-118.1-155.7-62.4-79.2-131.3-147-220.8-258.1-13.2-15.6-12.9-32-10.1-45.2 7.8-32.2 9.6-47.4 6.5-49.9-2.4-1.9-6.9-4.2-8.8-1.9-2.5 3.1-4.1 8.3-5.9 10.6-1.2 1.6-3.8 4.7-6.1 2.8-4.7-3.7-.5-10.6-3.6-13.1-4.7-3.8-9.7-3.9-17.1-5.9-8-1.2-18.9-10-23.9-3.7-6.9 8.6-7.3 30.1-14.2 38.7-2.5 3.1-5.9 4.2-7.5 3-10.2-8.1 5-25.5-2.1-31.1-5.5-4.4-9.7-3.9-14.7 2.4-1.9 2.3-177.7 441.3 66.7 636.2 53.1 42.4 165.8 93.8 321.7 41.3z"/><path fill="#F39522" d="M788 877.7c22.8 33.2 76.1 93.8 84.5 97 5.6 2.1 9.8-.6 11.2-4.3 2.1-5.6-3.7-10-1.6-15.6.7-1.9 14.8-5.1 19-16.4 2.8-7.5.5-12.7 1.9-16.4 1.1-2.8 3.6-4 5.5-3.3 2.8 1.1 4 3.6 9.6 5.7 2.8 1.1 21.2-8.1 26.1-21.2 3.5-9.4-14.8-20.5-13.4-24.3 1.8-4.7 13.3 1.7 15.7-4.8 2.1-5.6-11-19.1-18.6-27.3C903 819.2 671.6 589 734.2 422c46.1-122.9 224.9-183.1 255-171.9 4.7 1.8 7.4 6 5.6 10.7-6.7 17.8-15.9 28.3-29.8 50.9-33.8 55.8-162.1 249.5-170.9 272.9-9.5 25.3 37.5 22.6 29.8 43.3l-4.6 12.2c-3.9 10.3-2.1 14.2 6.3 17.3 3.8 1.4 7.9 1.9 12.5 3.6 6.6 2.5 11.3 12.8 8.5 20.3-2.1 5.6-5.2 10.9-6.6 14.7-2.1 5.6-.4 9.5 6.2 12 10.3 3.8 76-108.5 111.5-160.4 56.1-83.8 99.2-170.4 177.2-289.8 10.8-17.4 26.5-22.1 39.9-23.6 33.1-2.6 48.1-5.5 49.5-9.2 1.1-2.8 1.9-7.9-.9-8.9-3.8-1.4-9.2-1.3-12-2.4-1.9-.7-5.6-2.1-4.6-4.9 2.1-5.6 9.9-3.8 11.4-7.5 2.1-5.6.7-10.4.4-18-1.3-8 3.6-21.1-3.9-23.9-10.3-3.9-30.8 2.3-41.2-1.5-3.7-1.4-5.9-4.3-5.1-6.2 4.6-12.2 25.8-3.2 29-11.6 2.5-6.6.7-10.4-6.8-13.2-2.8-1.1-474.7-32.6-584.5 260.1-23.9 63.8-38.1 186.9 60.1 318.9 11 13.6 89.2 127.5 121.8 171.8z"/><path fill="#FFCB07" d="M1443.3 436.8c-68.1-3-189.5 21.6-284.8 155.7-9.7 14.6-93.8 124.2-125.9 168.9-24.5 32-65.7 101.4-66.1 110.4-.3 6 3.6 9.2 7.6 9.3 6 .3 8.3-6.7 14.3-6.4 2 .1 9.5 12.4 21.5 13 8 .3 12.2-3.5 16.2-3.3 3 .1 4.9 2.2 4.8 4.2-.1 3-2.3 4.9-2.5 10.9-.1 3 14.3 17.7 28.3 18.3 10 .5 15-20.4 19-20.2 5 .2 2.4 13.1 9.4 13.5 6 .3 14.8-16.4 20.2-26.2 18.5-32.3 165.9-323.5 344.1-315.5 131.1 5.9 243.7 157.3 242.2 189.3-.2 5-3.4 8.9-8.4 8.6-19-.8-31.8-6.4-57.6-12.6-63.5-14.9-287.4-77-312.4-78.2-27-1.2-9.9 42.7-32 41.7l-13-.6c-11-.5-14.1 2.4-14.6 11.4-.2 4 .7 8.1.4 13.1-.3 7-8.7 14.6-16.7 14.3-6-.3-12-1.6-16-1.7-6-.2-9.1 2.6-9.5 9.6-.5 11 126.6 38.8 187 56.5 97 27.4 192.7 41.7 330.4 79 19.8 4.9 29.3 18.4 34.7 30.6 12.7 30.7 20.1 44 24.1 44.2 3 .1 8-.7 8.2-3.6.2-4-1.6-9.1-1.5-12.1.1-2 .3-6 3.3-5.9 6 .3 6.7 8.3 10.6 8.5 6 .3 10.1-2.5 17.3-5.2 7.2-3.7 21.2-3.1 21.6-11.1.5-11-11.8-28.6-11.3-39.6.2-4 2.3-6.9 4.3-6.8 13 .6 11 23.6 20 24 7 .3 10.1-2.6 10.5-10.6.4-3-115.4-461.5-427.7-475.4z"/><path fill="#B22024" d="M1417 1026c-16.9-4.7-147.1-50.8-199.5-67.5-38-13.4-116.7-31.1-125.4-28.8-5.8 1.6-7.6 6.2-6.5 10.1 1.6 5.8 8.9 5.8 10.5 11.6.5 1.9-8.9 12.8-5.7 24.4 2.1 7.7 7.1 10.5 8.1 14.4.8 2.9-.6 5.4-2.5 5.9-2.9.8-5.3-.6-11.1 1-2.9.8-12.4 19-8.7 32.5 2.7 9.7 24 7.9 25.1 11.8 1.3 4.8-11.8 6.4-9.9 13.1 1.6 5.8 20.1 9 31.1 11.1 36.4 7.6 359 57.8 406.4 229.7 35 126.5-74.3 280.3-105.2 288.9-4.8 1.3-9.5-.5-10.8-5.3-5.1-18.4-3.7-32.3-5.8-58.7-5.5-65-15.5-297.1-22.2-321.3-7.2-26.1-43.6 3.7-49.5-17.5l-3.5-12.6c-2.9-10.6-6.6-12.7-15.3-10.3-3.9 1.1-7.5 3.1-12.3 4.4-6.8 1.9-16.6-3.7-18.8-11.4-1.6-5.8-2.2-11.9-3.3-15.7-1.6-5.8-5.3-7.9-12.1-6-10.6 2.9 2.3 132.4 4.1 195.3 3.9 100.7 19.9 196.1 27 338.6 1.5 20.4-8.4 33.5-18.4 42.5-25.2 21.5-35.6 32.7-34.6 36.6.8 2.9 3.1 7.5 6 6.7 3.9-1.1 8.2-4.3 11.1-5.1 1.9-.5 5.8-1.6 6.6 1.3 1.6 5.8-5.8 8.9-4.8 12.8 1.6 5.8 5.6 8.8 10.3 14.8 5.7 5.7 9.5 19.2 17.2 17.1 10.6-2.9 23.6-20 34.2-23 3.9-1.1 7.3.1 7.9 2 3.5 12.6-19 17.7-16.6 26.4 1.9 6.8 5.6 8.8 13.3 6.7 2.9-.8 403.1-252.7 319.9-554-18.4-65.4-79.3-173.3-236.3-222.5z"/></svg>