<svg xmlns:xlink="http://www.w3.org/1999/xlink"  xmlns="http://www.w3.org/2000/svg" viewBox="0 0 2000 2000"><path fill="none" d="M897.4 1168.9v.2c.1.2.1 0 0-.2z"/><path fill="#008CA7" d="M826.7 1387.4h.9c-1.3-.2-2.5-.4-3.8-.6 1 .2 1.9.4 2.9.6zM811.1 1384.2c-2-.5-4-1-6-1.6 2 .6 4 1.2 6 1.6zM837.3 1315.1c-.2-.6-.4-1.2-.4-1.9 0-2.8 2.1-4.9 4.8-5.2l91.7-149.5c-.2 0-.3.1-.5.1-5.9 0-10.7-4.8-10.7-10.6 0-5.9 4.8-10.7 10.7-10.7 4.3 0 8 2.6 9.7 6.3l84.6-137.8s1.1 1.9 3 5.4l1.3-3.3 185.1-83-197.9 63.8s-67-52.7-124.5 0c-50.1 45.9-21.8 126-5.6 162-44.3 57.6-183.7 201-387.1 55.1 6.4 6.4-44.7 108.5 12.8 178.8l153.2-102.2s48.5 72.5 130.1 98.1l-.2-.2 39.9-65.2zm138.3-259.6c3.9 0 7.1 3.2 7.1 7.1 0 3.9-3.2 7.1-7.1 7.1-3.9 0-7.1-3.2-7.1-7.1 0-3.9 3.1-7.1 7.1-7.1zm-24.9-17.8c2 0 3.6 1.6 3.6 3.6s-1.6 3.5-3.6 3.5-3.5-1.6-3.5-3.5c-.1-2 1.5-3.6 3.5-3.6zm3.5 32c3.9 0 7.1 3.2 7.1 7.1 0 3.9-3.2 7.1-7.1 7.1-3.9 0-7.1-3.2-7.1-7.1 0-3.9 3.2-7.1 7.1-7.1zm-10.6 42.7c2 0 3.6 1.6 3.6 3.5 0 2-1.6 3.6-3.6 3.6s-3.5-1.6-3.5-3.6c-.1-2 1.5-3.5 3.5-3.5zm-7.1-5.4c0 4.9-4 8.9-8.9 8.9s-8.9-4-8.9-8.9 4-8.9 8.9-8.9 8.9 4 8.9 8.9zm-7.1-32c0 2.9-2.4 5.3-5.3 5.3s-5.3-2.4-5.3-5.3c0-3 2.4-5.3 5.3-5.3s5.3 2.4 5.3 5.3zm-12.5-48c3 0 5.3 2.4 5.3 5.3 0 3-2.4 5.3-5.3 5.3s-5.3-2.4-5.3-5.3 2.4-5.3 5.3-5.3zm1.8 24.9c3.9 0 7.1 3.2 7.1 7.1 0 3.9-3.2 7.1-7.1 7.1-3.9 0-7.1-3.2-7.1-7.1 0-3.9 3.2-7.1 7.1-7.1zm-17.8 138.7c-1.9 0-3.6-1.6-3.6-3.6s1.6-3.5 3.6-3.5c1.9 0 3.5 1.6 3.5 3.5.1 1.9-1.5 3.6-3.5 3.6zm-3.6-21.6v-.2c.2.3.2.5 0 .2zm-10.6 39.3c3.9 0 7.1 3.2 7.1 7.1 0 3.9-3.2 7.1-7.1 7.1-3.9 0-7.1-3.2-7.1-7.1 0-3.9 3.2-7.1 7.1-7.1zm-40.9 42.7c4.9 0 8.9 4 8.9 8.9s-4 8.9-8.9 8.9-8.9-4-8.9-8.9c.1-5 4-8.9 8.9-8.9zm-8.8 21.3c5.9 0 10.6 4.8 10.6 10.7 0 5.9-4.7 10.7-10.6 10.7-5.9 0-10.7-4.8-10.7-10.7 0-5.9 4.8-10.7 10.7-10.7zm-21.4-21.3c4 0 7.1 3.2 7.1 7.1 0 3.9-3.2 7.1-7.1 7.1-3.9 0-7.1-3.2-7.1-7.1 0-4 3.2-7.1 7.1-7.1zm-16 35.5c8.8 0 16 7.1 16 16 0 8.8-7.1 16-16 16-8.8 0-16-7.2-16-16s7.2-16 16-16zm-72.8 28.4c-2 0-3.6-1.6-3.6-3.5 0-2 1.6-3.6 3.6-3.6 1.9 0 3.5 1.6 3.5 3.6s-1.6 3.5-3.5 3.5zm26.6 17.8c-4.9 0-8.9-4-8.9-8.9s4-8.9 8.9-8.9 8.9 4 8.9 8.9-4 8.9-8.9 8.9zm35.6 14.2c-3 0-5.3-2.4-5.3-5.3s2.4-5.3 5.3-5.3 5.3 2.4 5.3 5.3-2.4 5.3-5.3 5.3z"/><path fill="#38B97A" d="M1012.3 1097.2l18.3-85.3c-.2-.3-.3-.5-.4-.8-1.9-3.5-3-5.4-3-5.4l-84.6 137.8c.6 1.3 1 2.8 1 4.4 0 5.7-4.5 10.2-10.1 10.5l-91.7 149.5c.2 0 .4-.1.6-.1 3 0 5.3 2.4 5.3 5.3s-2.4 5.3-5.3 5.3c-2.3 0-4.2-1.4-4.9-3.4l-40 65.2s.2.1.2.2c.1.1.1.1.3.2 2.4.7 4.8 1.4 7.2 2 2 .5 4 1.1 6 1.6 4.2 1 8.4 1.8 12.7 2.5 1.3.2 2.5.4 3.8.6 21.5 3.1 44.8 2.8 69.7-2.8 146.8-31.9 185.1-204.3 114.9-287.3zm-79.4 207.1c0-2 1.6-3.6 3.6-3.6s3.6 1.6 3.6 3.6c0 1.9-1.6 3.5-3.6 3.5s-3.6-1.6-3.6-3.5zm14.2-56.9c0-2 1.6-3.6 3.5-3.6 2 0 3.6 1.6 3.6 3.6s-1.6 3.5-3.6 3.5c-1.9.1-3.5-1.5-3.5-3.5zm10.7-32c0-2 1.6-3.6 3.6-3.6s3.5 1.6 3.5 3.6c0 1.9-1.6 3.5-3.5 3.5-2 .1-3.6-1.5-3.6-3.5zm42.6-46.2c3.9 0 7.1 3.2 7.1 7.1 0 3.9-3.2 7.1-7.1 7.1-3.9 0-7.1-3.2-7.1-7.1 0-3.9 3.2-7.1 7.1-7.1zm-21.3 3.6c2 0 3.5 1.6 3.5 3.5s-1.6 3.6-3.5 3.6c-2 0-3.6-1.6-3.6-3.6.1-1.9 1.7-3.5 3.6-3.5zm-10.6-42.7c3.9 0 7.1 3.2 7.1 7.1 0 3.9-3.2 7.1-7.1 7.1-3.9 0-7.1-3.2-7.1-7.1-.1-3.9 3.1-7.1 7.1-7.1zm-14.3 39.1c3.9 0 7.1 3.2 7.1 7.1 0 3.9-3.2 7.1-7.1 7.1-3.9 0-7.1-3.2-7.1-7.1 0-3.9 3.2-7.1 7.1-7.1zm-12.4 32c2.9 0 5.3 2.4 5.3 5.3s-2.4 5.3-5.3 5.3-5.3-2.4-5.3-5.3 2.4-5.3 5.3-5.3zm-10.7 53.3c2.9 0 5.3 2.4 5.3 5.3s-2.4 5.3-5.3 5.3c-3 0-5.3-2.4-5.3-5.3s2.4-5.3 5.3-5.3zm-8.9 39.1c2 0 3.6 1.6 3.6 3.6s-1.6 3.5-3.6 3.5-3.5-1.6-3.5-3.5c0-2 1.6-3.6 3.5-3.6zm-14.2-63.9c3.9 0 7.1 3.2 7.1 7.1 0 3.9-3.2 7.1-7.1 7.1-3.9 0-7.1-3.2-7.1-7.1 0-4 3.2-7.1 7.1-7.1zm-5.3 17.7c4.9 0 8.9 4 8.9 8.9s-4 8.9-8.9 8.9-8.9-4-8.9-8.9 4-8.9 8.9-8.9zm-19.5 42.6c7.9 0 14.2 6.4 14.2 14.2 0 7.8-6.3 14.2-14.2 14.2-7.9 0-14.2-6.4-14.2-14.2-.1-7.8 6.3-14.2 14.2-14.2zm-37.4 74.7c-4.9 0-8.9-4-8.9-8.9s4-8.9 8.9-8.9 8.9 4 8.9 8.9-4 8.9-8.9 8.9zm58.7-24.9c-2 0-3.5-1.6-3.5-3.6s1.6-3.6 3.5-3.6c2 0 3.6 1.6 3.6 3.6-.1 2-1.7 3.6-3.6 3.6z"/><path fill="#276681" d="M859.8 1163.3L354.9 806.5s-42.8 63 30.7 123.2c0 0-37.9 18.2-27.9 53.2s47.9 41.3 47.9 41.3-19 24.1 18.9 82.6c38 58.5 223.9 247.9 435.3 56.5zM682.4 1014.2l178.8 119.2-46.8-425.6s-76.6 8.5-63.9 119.2c4.3-4.3-68.1 12.8-55.3 80.9 8.5-.1-59.6 42.5-12.8 106.3z"/><path fill="#E67ECE" d="M639.9 971.7c-4.3-34.1 29.8-80.9 29.8-76.6-17-80.9 68.1-97.9 68.1-97.9-21.3-89.4 102.1-144.7 102.1-144.7l29.8 336.2c25.5-72.3 123.4-51.1 119.2-55.3 85.1-127.7 225.6-34.1 225.6-38.3 51.1-366.1-238.3-468.2-408.6-476.7-170.3-8.6-229.9-93.7-229.9-93.7s38.3 80.9-25.5 315c-63.9 234.1 89.4 332 89.4 332z"/><path fill="#EE9FDA" d="M1708.2 1176c-11.5-157.3-157.5-387.3-481-272.4 0 0 72.4 59.6 34.1 161.7-38.3 102.2-183 17-114.9-38.3 34-29.8-85.7-25.6-89.4 89.4-4.3 131.9 136.2 374.6 425.6 353.3 217.1-8.5 306.5-144.7 306.5-144.7s-68.2 25.5-80.9-149z"/><path fill="#E67ECE" d="M1231.5 856.7l4.2 12.8c276.7-114.9 370.3 97.9 434.2 89.4C1886.8 918 1855.8 578.1 1853 552c-.4 7.8-16.8 36.9-264-23-344.8-68.1-357.5 327.7-357.5 327.7zM1852.9 550.3s.1.7.2 1.8c0-1.1-.2-1.8-.2-1.8z"/><path fill="#E56FC0" d="M1235.7 699.2c8.5-55.3 46.9-149 149-187.3 102.2-38.3 80.9-136.2-21.3-229.9-98.2-90-70.5-152.5-64.5-157.2-297.2 140.4-246.3 327.4-246.3 327.4 140.5 81 183.1 255.5 183.1 247zM1299 124.9l.6-.3c-.2 0-.4.2-.6.3z"/><path fill="#B1D8AC" d="M333.4 592.8c-42.6 187.3 178.8 276.6 178.8 276.6l42.6 38.3C452.6 805.6 435.5 626.9 435.5 626.9s68.1 187.3 72.4 25.5c4.2-161.7-208.6-187.3-208.6-187.3s55.4 21.3 34.1 127.7z"/><path fill="#7DBF7A" d="M1005.9 426h8.5C878.2 316 886.7 224.2 895.2 266.8c8.5 42.6 106.4 124.7 123.4 103.4 17-46.8 17-131.3-63.8-148.3-80.9-17-63.8-78.8-72.4-70.3C686.7 389.9 1005.9 426 1005.9 426z"/><path fill="#A9D4A5" d="M1589 499.2c191.6 8.5 212.8-217.1 212.8-217.1s-25.5 51.1-161.8 25.5c-161.7-34-166 174.5-166 174.5 46.8-21.3 195.8-72.4 195.8-72.4s-174.4 93.7-80.8 89.5z"/><path fill="#B1D8AC" d="M895.2 1576s-8.5 89.4-76.6 89.4 38.3 102.2 102.2 38.3c55.4-59.6-38.3 93.6-132 4.3-93.6-89.4 38.3-229.9 153.2-285.2 0 0-200 4.3-234.1 187.3-34.1 183 200.1 255.4 255.4 123.4 38.3-110.6-68.1-157.5-68.1-157.5z"/><path fill="#7DBF7A" d="M282.3 1154.7c-17-51.1 21.3-76.6 21.3-76.6s-123.4 4.2-127.7 140.5c-4.3 136.2 187.3 170.2 225.6 89.4 21.2-51-80.6 16.8-131.7-63.5 19.6 11.8 119.1 62 178.5-42.9 0-.1-123.4 51-166-46.9z"/><path fill="#EE9FDA" d="M784.6 1410.1s-234.1-76.6-204.3 68.1c17 17 25.5 97.8 204.3-68.1zM580.3 1559c-68.1 68.1 72.3 149 80.9 68.1 8.5-80.9 72.3-144.7 72.3-144.7-55.3 55.3-102.2 34.1-153.2 76.6z"/><path fill="#7DBF7A" d="M1142.6 1690.6c-.3.3-.5.4-.5.4s.2-.2.5-.4zM1083.6 1280.3c-13.9-19.2 11.7 129.8 71.3 206.4 38.3 68.1-93.7-51.1-97.9-183 0 0-106.4 157.5 12.8 255.4 111.6 91.7 77.6 127.4 72.9 131.5 10.4-8.6 174.7-147.8 63.3-255-106.5-106.4-108.6-136.1-122.4-155.3z"/><path fill="#A3DCB8" d="M883.2 1318.5c7.9 0 14.2-6.4 14.2-14.2 0-7.9-6.3-14.2-14.2-14.2-7.9 0-14.2 6.4-14.2 14.2-.1 7.8 6.3 14.2 14.2 14.2zM931.1 1265.2c2.9 0 5.3-2.4 5.3-5.3s-2.4-5.3-5.3-5.3c-3 0-5.3 2.4-5.3 5.3s2.4 5.3 5.3 5.3zM908 1243.9c3.9 0 7.1-3.2 7.1-7.1 0-3.9-3.2-7.1-7.1-7.1-3.9 0-7.1 3.2-7.1 7.1 0 3.9 3.2 7.1 7.1 7.1zM941.8 1211.9c2.9 0 5.3-2.4 5.3-5.3s-2.4-5.3-5.3-5.3-5.3 2.4-5.3 5.3 2.4 5.3 5.3 5.3zM954.2 1183.4c3.9 0 7.1-3.2 7.1-7.1 0-3.9-3.2-7.1-7.1-7.1-3.9 0-7.1 3.2-7.1 7.1 0 3.9 3.2 7.1 7.1 7.1zM964.9 1215.4c0-2-1.6-3.6-3.5-3.6-2 0-3.6 1.6-3.6 3.6 0 1.9 1.6 3.5 3.6 3.5 1.9.1 3.5-1.5 3.5-3.5zM954.2 1247.4c0-2-1.6-3.6-3.6-3.6s-3.5 1.6-3.5 3.6 1.6 3.5 3.5 3.5c2 .1 3.6-1.5 3.6-3.5zM902.7 1265.2c4.9 0 8.9-4 8.9-8.9s-4-8.9-8.9-8.9-8.9 4-8.9 8.9 4 8.9 8.9 8.9zM940 1304.3c0-2-1.6-3.6-3.6-3.6s-3.6 1.6-3.6 3.6c0 1.9 1.6 3.5 3.6 3.5s3.6-1.6 3.6-3.5zM904.5 1332.7c-2 0-3.5 1.6-3.5 3.6 0 1.9 1.6 3.6 3.5 3.6 2 0 3.6-1.6 3.6-3.6-.1-2-1.7-3.6-3.6-3.6zM922.2 1300.7c2 0 3.6-1.6 3.6-3.5 0-2-1.6-3.6-3.6-3.6s-3.5 1.6-3.5 3.6 1.6 3.5 3.5 3.5zM845.8 1346.9c-4.9 0-8.9 4-8.9 8.9s4 8.9 8.9 8.9 8.9-4 8.9-8.9-4-8.9-8.9-8.9zM837 1313.2c0 .7.2 1.3.4 1.9.8 2 2.7 3.4 4.9 3.4 3 0 5.3-2.4 5.3-5.3 0-3-2.4-5.3-5.3-5.3-.2 0-.4.1-.6.1-2.7.2-4.7 2.4-4.7 5.2zM1000.4 1183.4c3.9 0 7.1-3.2 7.1-7.1 0-3.9-3.2-7.1-7.1-7.1-3.9 0-7.1 3.2-7.1 7.1 0 3.9 3.2 7.1 7.1 7.1zM968.5 1144.4c3.9 0 7.1-3.2 7.1-7.1 0-3.9-3.2-7.1-7.1-7.1-3.9 0-7.1 3.2-7.1 7.1-.1 3.8 3.1 7.1 7.1 7.1zM979.1 1179.9c2 0 3.5-1.6 3.5-3.6s-1.6-3.5-3.5-3.5c-2 0-3.6 1.6-3.6 3.5.1 2 1.7 3.6 3.6 3.6z"/><path fill="#00A85D" d="M918.7 1075c0 2.9 2.4 5.3 5.3 5.3s5.3-2.4 5.3-5.3c0-3-2.4-5.3-5.3-5.3s-5.3 2.4-5.3 5.3zM918.7 1107c0 4.9 4 8.9 8.9 8.9s8.9-4 8.9-8.9-4-8.9-8.9-8.9-8.9 4-8.9 8.9zM954.2 1083.9c3.9 0 7.1-3.2 7.1-7.1 0-3.9-3.2-7.1-7.1-7.1-3.9 0-7.1 3.2-7.1 7.1 0 3.9 3.2 7.1 7.1 7.1zM918.7 1066.1c3.9 0 7.1-3.2 7.1-7.1 0-3.9-3.2-7.1-7.1-7.1-3.9 0-7.1 3.2-7.1 7.1 0 4 3.2 7.1 7.1 7.1zM950.7 1044.8c2 0 3.6-1.6 3.6-3.5 0-2-1.6-3.6-3.6-3.6s-3.5 1.6-3.5 3.6c-.1 1.9 1.5 3.5 3.5 3.5zM916.9 1037.7c3 0 5.3-2.4 5.3-5.3s-2.4-5.3-5.3-5.3-5.3 2.4-5.3 5.3 2.4 5.3 5.3 5.3zM799.6 1318.5c8.8 0 16-7.2 16-16s-7.1-16-16-16c-8.8 0-16 7.1-16 16 0 8.8 7.2 16 16 16zM845.8 1268.7c4.9 0 8.9-4 8.9-8.9s-4-8.9-8.9-8.9-8.9 4-8.9 8.9c.1 5 4 8.9 8.9 8.9zM837 1293.6c5.9 0 10.6-4.8 10.6-10.7 0-5.9-4.7-10.7-10.6-10.7-5.9 0-10.7 4.8-10.7 10.7 0 5.9 4.8 10.7 10.7 10.7zM815.6 1265.2c4 0 7.1-3.2 7.1-7.1 0-3.9-3.2-7.1-7.1-7.1-3.9 0-7.1 3.2-7.1 7.1 0 3.9 3.2 7.1 7.1 7.1zM886.7 1222.5c3.9 0 7.1-3.2 7.1-7.1 0-3.9-3.2-7.1-7.1-7.1-3.9 0-7.1 3.2-7.1 7.1 0 3.9 3.2 7.1 7.1 7.1zM900.9 1183.4c-1.9 0-3.6 1.6-3.6 3.5 0 2 1.6 3.6 3.6 3.6 1.9 0 3.5-1.6 3.5-3.6.1-1.9-1.5-3.5-3.5-3.5zM789 1336.3c-3 0-5.3 2.4-5.3 5.3 0 3 2.4 5.3 5.3 5.3s5.3-2.4 5.3-5.3c0-3-2.4-5.3-5.3-5.3zM753.4 1314.9c-4.9 0-8.9 4-8.9 8.9s4 8.9 8.9 8.9 8.9-4 8.9-8.9-4-8.9-8.9-8.9zM726.8 1307.8c-2 0-3.6 1.6-3.6 3.6s1.6 3.5 3.6 3.5c1.9 0 3.5-1.6 3.5-3.5 0-2-1.6-3.6-3.5-3.6zM932.9 1137.2c-5.9 0-10.7 4.8-10.7 10.7 0 5.9 4.8 10.6 10.7 10.6.2 0 .3-.1.5-.1 5.6-.3 10.1-4.8 10.1-10.5 0-1.6-.4-3-1-4.4-1.6-3.7-5.3-6.3-9.6-6.3zM943.6 1119.5c2 0 3.6-1.6 3.6-3.6s-1.6-3.5-3.6-3.5-3.5 1.6-3.5 3.5c-.1 2 1.5 3.6 3.5 3.6zM975.6 1069.7c3.9 0 7.1-3.2 7.1-7.1 0-3.9-3.2-7.1-7.1-7.1-3.9 0-7.1 3.2-7.1 7.1 0 3.9 3.1 7.1 7.1 7.1z"/></svg>