<svg xmlns:xlink="http://www.w3.org/1999/xlink"  version="1" xmlns="http://www.w3.org/2000/svg" viewBox="0 0 150 150"><path fill="#7E287F" d="M66.2 85.7c-2.2-8.4-7.3-16.2-15-21.8-8.9-6.5-19.4-8.9-29.3-7.4 1.6 9.8 7 19.2 15.9 25.7 7.7 5.5 26.1 4.4 28.4 3.5zM73.2 76.8c1.3-6 .6-12.5-2.5-18.4-3.6-6.8-9.6-11.5-16.3-13.5-2.2 6.7-1.8 14.3 1.8 21.1 3 5.9 10.8 9.2 17 10.8z"/><path fill="#CD549F" d="M51.9 59.2c.1-2.7-.8-5.4-2.6-7.7-2.1-2.6-5-4.2-8.1-4.5-.4 3.1.4 6.3 2.5 9 1.8 2.3 5.7 3 8.2 3.2zM68.8 48.9c.6-2 .5-4.2-.4-6.3-1-2.4-2.9-4.1-5.2-5-.9 2.2-1 4.8.1 7.2.9 2.1 3.6 3.3 5.5 4.1z"/><path fill="#7E287F" d="M41.8 103.4c-7.7-.3-14.5-3.6-19.3-8.9 5.1-4.9 12.1-7.8 19.8-7.6 6.7.2 12.7 2.8 17.3 6.9-1.9 3-11.1 9.9-17.8 9.6z"/><path fill="#F1AAAF" d="M62.5 70.4c-2.2-4-2.6-8.6-1.4-12.7 4.1 1.1 7.8 3.8 10 7.9 1.9 3.5 2.5 7.4 1.8 11-2.1-.1-8.5-2.7-10.4-6.2zM48.5 100.2c-4.6.1-8.8-1.7-11.9-4.6 2.9-3.1 7-5.1 11.6-5.2 4-.1 7.7 1.2 10.6 3.5-.9 1.7-6.3 6.2-10.3 6.3zM49.2 83.9c-5.3-3.4-8.7-8.7-9.9-14.4 5.7-1.3 11.9-.4 17.2 3 4.6 3 7.8 7.3 9.3 12.1-2.6 1.3-12 2.3-16.6-.7z"/><path fill="#CD549F" d="M26.8 85.3c-3.1-1.2-5.5-3.6-6.7-6.4 2.8-1.3 6.1-1.5 9.3-.3 2.7 1 4.9 3 6.2 5.3-3.2 1.2-6.1 2.5-8.8 1.4z"/><path fill="#7E287F" d="M82.2 85.7c2.2-8.4 7.3-16.2 15-21.8 8.9-6.5 19.4-8.9 29.3-7.4-1.6 9.8-7 19.2-15.9 25.7-7.7 5.5-26.1 4.4-28.4 3.5zM75.2 76.8c-1.3-6-.6-12.5 2.5-18.4 3.6-6.8 9.6-11.5 16.3-13.5 2.2 6.7 1.8 14.3-1.8 21.1-3 5.9-10.8 9.2-17 10.8z"/><path fill="#CD549F" d="M96.5 59.2c-.1-2.7.8-5.4 2.6-7.7 2.1-2.6 5-4.2 8.1-4.5.4 3.1-.4 6.3-2.5 9-1.8 2.3-5.7 3-8.2 3.2zM79.5 48.9c-.6-2-.5-4.2.4-6.3 1-2.4 2.9-4.1 5.2-5 .9 2.2 1 4.8-.1 7.2-.9 2.1-3.5 3.3-5.5 4.1z"/><path fill="#7E287F" d="M106.6 103.4c7.7-.3 14.5-3.6 19.3-8.9-5.1-4.9-12.1-7.8-19.8-7.6-6.7.2-12.7 2.8-17.3 6.9 1.9 3 11.1 9.9 17.8 9.6z"/><path fill="#F1AAAF" d="M85.9 70.4c2.2-4 2.6-8.6 1.4-12.7-4.1 1.1-7.8 3.8-10 7.9-1.9 3.5-2.5 7.4-1.8 11 2.1-.1 8.5-2.7 10.4-6.2zM99.8 100.2c4.6.1 8.8-1.7 11.9-4.6-2.9-3.1-7-5.1-11.6-5.2-4-.1-7.7 1.2-10.6 3.5 1 1.7 6.4 6.2 10.3 6.3zM99.2 83.9c5.3-3.4 8.7-8.7 9.9-14.4-5.7-1.3-11.9-.4-17.2 3-4.6 3-7.8 7.3-9.3 12.1 2.6 1.3 12 2.3 16.6-.7z"/><path fill="#CD549F" d="M121.6 85.3c3.1-1.2 5.5-3.6 6.7-6.4-2.8-1.3-6.1-1.5-9.3-.3-2.7 1-4.9 3-6.2 5.3 3.2 1.2 6.1 2.5 8.8 1.4z"/><path fill="#02AE63" d="M68.3 134.6s-5.4-12.9-18.3-16.3c-7.7-2-12.4-3.1-18.1-6.5-2.4-1.4-3.5-3.1-3.5-3.1s-1.1 5.9 5.9 11.4c6.4 5.1 12.6 6.5 12.6 6.5s-9.2-.5-15-5.9c-5.6-5.3-7.7-13.8-10.7-19.8-3-6-6.3-6.8-6.3-6.8s1.5 23.5 14.2 35.8c14.7 14.4 39.2 4.7 39.2 4.7zM70.6 130.3s8-12.9 22.4-14.4c8.6-.9 13.8-1.3 20.5-3.9 2.8-1.1 4.3-2.8 4.3-2.8s.1 6.5-8.3 11.3c-7.7 4.4-14.6 4.8-14.6 4.8s10 1.1 17.1-3.8c6.9-4.7 10.5-13.6 14.8-19.5 4.3-5.9 7.9-6.2 7.9-6.2s-5.6 24.9-21.2 36c-18.2 12.9-42.9-1.5-42.9-1.5z"/><path fill="#CD549F" d="M14.1 70.2C19.9 38.5 52 17.8 85.9 24c33.8 6.2 56.5 36.9 50.7 68.7-.5 3-1.3 5.8-2.3 8.6 2.1-4.5 3.7-9.2 4.6-14.3 6.1-33-17.3-65-52.2-71.4-34.9-6.4-68 15.2-74.1 48.2-1.8 9.6-1 19.2 1.8 28-1.4-7-1.6-14.3-.3-21.6z"/></svg>