<svg xmlns:xlink="http://www.w3.org/1999/xlink"  xmlns="http://www.w3.org/2000/svg" width="100" height="100" viewBox="0 0 100 100"><radialGradient id="a" cx="49.161" cy="56.392" r="32.591" gradientUnits="userSpaceOnUse"><stop offset="0" stop-color="#00adee"/><stop offset=".214" stop-color="#0089c5"/><stop offset=".444" stop-color="#006aa1"/><stop offset=".659" stop-color="#005387"/><stop offset=".851" stop-color="#004577"/><stop offset="1" stop-color="#004071"/></radialGradient><path fill="url(#a)" d="M31.115 62.345c5.36 1.628 10.625 3.53 15.945 5.01 5.334 1.471 10.761 2.457 16.229 2.423 2.728.02 5.461-.21 8.168-.628 2.721-.385 5.407-1.006 8.08-1.693 5.341-1.425 10.579-3.329 15.811-5.314-4.861 2.775-9.978 5.138-15.344 6.887-2.674.891-5.428 1.573-8.223 2.086a51.129 51.129 0 0 1-8.492.762 48.398 48.398 0 0 1-8.5-.796c-2.788-.533-5.536-1.242-8.202-2.167-5.347-1.805-10.429-4.134-15.472-6.57z"/><radialGradient id="b" cx="49.163" cy="56.39" r="32.589" gradientUnits="userSpaceOnUse"><stop offset="0" stop-color="#00adee"/><stop offset=".214" stop-color="#0089c5"/><stop offset=".444" stop-color="#006aa1"/><stop offset=".659" stop-color="#005387"/><stop offset=".851" stop-color="#004577"/><stop offset="1" stop-color="#004071"/></radialGradient><path fill="url(#b)" d="M4.652 65.977c1.58-1.397 3.362-2.545 5.211-3.544 1.864-1 3.821-1.829 5.833-2.498 4.037-1.303 8.303-1.924 12.569-1.896 2.134.013 4.267.182 6.386.479a35.11 35.11 0 0 1 6.225 1.514c.999.363 1.998.748 2.97 1.167.972.438 1.944.877 2.875 1.384 1.877.985 3.679 2.099 5.36 3.389l-.107.176c-1.965-.756-3.902-1.519-5.847-2.222-1.951-.688-3.902-1.343-5.886-1.884a90.641 90.641 0 0 0-5.955-1.478 40.695 40.695 0 0 0-6.075-.844c-4.091-.237-8.229.155-12.219 1.229a36.185 36.185 0 0 0-5.833 2.066c-.945.425-1.87.904-2.768 1.417-.905.52-1.789 1.074-2.605 1.7l-.134-.155z"/><radialGradient id="c" cx="49.164" cy="56.397" r="32.584" gradientUnits="userSpaceOnUse"><stop offset="0" stop-color="#00adee"/><stop offset=".214" stop-color="#0089c5"/><stop offset=".444" stop-color="#006aa1"/><stop offset=".659" stop-color="#005387"/><stop offset=".851" stop-color="#004577"/><stop offset="1" stop-color="#004071"/></radialGradient><path fill="url(#c)" d="M11.47 67.165c1.161-.764 2.43-1.337 3.733-1.816s2.653-.83 4.03-1.079a26.483 26.483 0 0 1 8.364-.055 31.81 31.81 0 0 1 4.111.912c1.35.398 2.659.931 3.915 1.572a32.15 32.15 0 0 1 1.823 1.033c.594.37 1.181.748 1.742 1.167a24.432 24.432 0 0 1 3.173 2.714l-.082.108c-1.214-.683-2.403-1.357-3.604-1.991a52.383 52.383 0 0 0-3.652-1.789 67.78 67.78 0 0 0-3.747-1.52 26.964 26.964 0 0 0-3.875-1.12 25.307 25.307 0 0 0-8.074-.345 23.383 23.383 0 0 0-3.996.796c-.648.189-1.296.412-1.931.662a15.68 15.68 0 0 0-1.856.87l-.074-.119z"/><radialGradient id="d" cx="49.161" cy="56.399" r="32.587" gradientUnits="userSpaceOnUse"><stop offset="0" stop-color="#00adee"/><stop offset=".214" stop-color="#0089c5"/><stop offset=".444" stop-color="#006aa1"/><stop offset=".659" stop-color="#005387"/><stop offset=".851" stop-color="#004577"/><stop offset="1" stop-color="#004071"/></radialGradient><path fill="url(#d)" d="M74.832 60.752c-.634.959-1.418 1.809-2.282 2.578a15.644 15.644 0 0 1-2.835 2.024 15.641 15.641 0 0 1-3.268 1.325 15.838 15.838 0 0 1-3.523.498 19.79 19.79 0 0 1-3.577-.209 13.365 13.365 0 0 1-3.403-1.046 17.314 17.314 0 0 1-3.023-1.789c-.939-.702-1.81-1.472-2.566-2.376l.122-.169c1.094.398 2.133.837 3.166 1.256 1.04.404 2.06.789 3.085 1.128 1.026.344 2.039.667 3.065.957 1.025.305 2.079.514 3.146.567 1.073.061 2.146 0 3.213-.189a14.046 14.046 0 0 0 3.105-.897 15.102 15.102 0 0 0 5.401-3.78l.174.122z"/><radialGradient id="e" cx="58.845" cy="34.337" r="29.78" gradientUnits="userSpaceOnUse"><stop offset="0" stop-color="#90278e"/><stop offset="1" stop-color="#440c60"/></radialGradient><path fill="url(#e)" d="M81.786 40.878a3.287 3.287 0 0 0-.636-1.061c-.526-.602-1.188-.992-1.843-1.316-.667-.323-1.344-.56-2.019-.789a19.173 19.173 0 0 0-2.072-.575c-1.396-.303-2.855-.418-4.286-.229-1.344.183-2.66.615-3.868 1.243.155-1.249.182-2.512.114-3.773a16.013 16.013 0 0 0-.209-2.059 15.128 15.128 0 0 0-.452-2.04 15.749 15.749 0 0 0-.345-1.006c-.128-.337-.276-.641-.404-.945l-.791-1.87c-.262-.641-.546-1.269-.944-1.903-.203-.304-.432-.635-.81-.904a1.655 1.655 0 0 0-.683-.297 1.491 1.491 0 0 0-.756.041c-.466.142-.776.412-1.047.668-.27.263-.506.547-.715.83-.419.581-.77 1.154-1.114 1.755a24.718 24.718 0 0 0-1.741 3.741 21.77 21.77 0 0 0-1.344 8.08c.007.513.041 1.019.067 1.519a30.909 30.909 0 0 0-1.519-2.228 26.402 26.402 0 0 0-2.869-3.233c-1.054-.993-2.214-1.897-3.524-2.585a11.13 11.13 0 0 0-1.013-.479 9.451 9.451 0 0 0-1.06-.351 11.651 11.651 0 0 0-2.167-.453c-.743-.073-1.526-.081-2.309.169-.392.136-.776.339-1.081.656a2.27 2.27 0 0 0-.58 1.126c-.148.804.013 1.561.236 2.255.223.702.533 1.357.884 1.984.702 1.27 1.566 2.41 2.525 3.484.958 1.06 1.985 2.071 3.132 2.949a19.588 19.588 0 0 0 2.498 1.661 17.496 17.496 0 0 0-1.586-.033c-.621.021-1.242.067-1.863.154-.615.096-1.235.21-1.843.378-.607.177-1.215.393-1.795.669a9.506 9.506 0 0 0-1.641 1.006 7.085 7.085 0 0 0-1.397 1.418 5.225 5.225 0 0 0-.851 1.829 4.296 4.296 0 0 0-.013 2.032c.155.667.486 1.282.925 1.782.891 1.005 2.167 1.505 3.402 1.646 1.208.169 2.438.311 3.666.372 1.229.04 2.47.04 3.706-.162 1.236-.189 2.478-.554 3.599-1.189a8.6 8.6 0 0 0 1.58-1.126c.492-.446.891-.898 1.31-1.363.411-.467.81-.945 1.194-1.459.183-.257.364-.526.54-.817.088-.142.169-.297.243-.472.033-.075.074-.162.102-.25.087.021.169.041.243.054.405.068.769.074 1.141.081.723.021 1.465-.054 2.086-.047.654.021 1.302.087 1.924.25.621.162 7.189 2.416 6.042 9.836a7.442 7.442 0 0 1-.338.62 8.544 8.544 0 0 1-.77 1.074c-.283.338-.58.641-.925.864-.695.459-1.532.695-2.37.776a8.118 8.118 0 0 1-1.268.04 9.152 9.152 0 0 1-1.271-.128 13.895 13.895 0 0 1-2.497-.642 14.546 14.546 0 0 1-2.322-1.12 5.92 5.92 0 0 1-1.823-1.695c-.985-1.392-1.417-3.159-1.565-4.948h-.136c-.202 1.803.014 3.74.986 5.414.243.412.526.803.857 1.161.337.351.723.676 1.113.938.77.534 1.62.965 2.491 1.311 1.748.688 3.692.998 5.582.606.933-.189 1.864-.56 2.613-1.182.189-.154.358-.331.521-.513.161-.188.297-.365.432-.561.27-.378.52-.762.729-1.174a9.058 9.058 0 0 0 .952-2.594 8.3 8.3 0 0 0 .04-2.773c-.128-.898-.425-1.769-.803-2.586 2.713.297 5.589-.77 7.554-2.794.257-.264.506-.547.736-.831l.662-.837c.431-.573.857-1.134 1.269-1.735.412-.588.796-1.208 1.121-1.883.337-.668.6-1.412.641-2.228a3.19 3.19 0 0 0-.18-1.234zm-27.382 8.931c-1.836 1.56-3.753 2.95-5.94 3.861-2.147.912-5.036 1.392-7.452 1.29-.082-.034-.149-.075-.216-.108-.5-.284-.945-.662-1.256-1.121-.655-.911-.77-2.071-.439-3.085.318-1.032 1.046-1.923 1.911-2.619a7.47 7.47 0 0 1 1.438-.938c.506-.264 1.046-.5 1.6-.689 1.836-.628 3.821-.918 5.819-1.025.115.061.229.121.351.175 1.188.662 2.323 1.499 3.511 2.296.567.37 1.121.756 1.836 1.039a33.53 33.53 0 0 0-1.163.924zm1.527-4.523a24.42 24.42 0 0 0-1.763-1.29 51.36 51.36 0 0 0-3.686-2.214 73.22 73.22 0 0 0-1.896-.999c-.622-.331-1.243-.655-1.851-1-1.215-.695-2.389-1.443-3.456-2.329-.527-.451-1.04-.925-1.492-1.451-.453-.532-1-1.16-1.337-1.782l-.034.015c-.081-.507-.094-1.013.047-1.459.175-.594.627-.945 1.215-1.073.587-.128 1.263-.088 1.911.02.668.102 1.337.291 1.985.48.662.202 1.27.445 1.877.749s1.188.669 1.742 1.06c.567.392 1.113.811 1.647 1.262 1.856 1.587 3.523 3.431 5.09 5.361l.102 1.91c.066 1.012.128 2.019.249 3.044a15.277 15.277 0 0 0-.35-.304zm4.259-1.56a21.4 21.4 0 0 0-1.378 1.701c-.02.014-.026.041-.047.061-.034-.641-.101-1.269-.162-1.89-.061-.675-.108-1.336-.162-2.004a34.23 34.23 0 0 1-.081-3.983c.027-.662.081-1.323.162-1.985.081-.654.162-1.336.257-1.998a80.79 80.79 0 0 1 .647-3.989c.271-1.31.527-3.004 1.27-4.131l.034-.034c.216-.243.438-.473.668-.668.229-.183.479-.331.675-.378.189-.041.297-.014.479.121.169.142.344.372.507.628.323.513.594 1.127.878 1.735l.837 1.863c.141.317.297.614.432.904.128.297.243.6.357.905.438 1.235.723 2.545.938 3.867.189 1.242.311 2.512.378 3.788-.014.006-.04.013-.055.026a19.758 19.758 0 0 0-3.551 2.457 33.488 33.488 0 0 0-3.083 3.004zm20.705-1.681c-.055.587-.297 1.188-.594 1.79-.297.594-.669 1.175-1.04 1.754-.385.575-.797 1.142-1.201 1.715l-.622.858c-.195.27-.404.526-.634.776a9.605 9.605 0 0 1-3.228 2.396 10.22 10.22 0 0 1-3.687.878 12.5 12.5 0 0 0-1.402-2.241 8.93 8.93 0 0 0-2.113-1.931 7.865 7.865 0 0 0-2.694-1.094c-1.12-.229-2.268-.216-3.382-.021l.587-.654c.46-.534.932-1.046 1.404-1.546 1.891-2.006 4.064-3.74 6.563-4.882 2.416-1.113 5.17-1.869 7.897-1.774.122.047.243.088.357.141.642.271 1.284.555 1.863.912.575.352 1.114.771 1.472 1.269.372.5.521 1.06.454 1.654z"/></svg>