<svg xmlns:xlink="http://www.w3.org/1999/xlink"  xmlns="http://www.w3.org/2000/svg" viewBox="0 0 2000 2000"><path fill="none" d="M1311.6 1288.4c3.6-23.1 1.2-47.5-12.3-71.4 1.1 12.5.4 25.2-2.3 37.6 7.1 10.5 11.8 22 14.6 33.8zM1202.7 1329.2c20.1.5 39.5-7.9 54.5-23.6 9.4-9.8 16.6-21.1 21.8-33.1-3.3-8.4-8.3-16.4-15.1-23.2-26.4-26.4-69.2-26.4-95.7 0-13.4 13.4-19.9 31-19.7 48.6 1.7 2.9 3.6 5.7 5.8 8.2 12.5 14.5 29.7 22.6 48.4 23.1z"/><path fill="none" d="M1324.5 937.3c-44.1-15.7-88.2-19.5-131.2-14.9 70.8 7.2 135.5 40.9 184 96.4 91.4 104.8 83.8 275.6-17.1 380.8-40.8 42.5-93.5 65.2-148.5 63.9-51.5-1.2-98.9-23.7-133.5-63.4-37-42.4-49-101.6-36.8-156.6-.8 1.6-1.7 3.2-2.4 4.9-56.4 122.9 28.3 244 153.6 255.4 147.3 13.3 282.3-122.2 296.9-263.6 13.6-131.3-51.2-246.6-165-302.9z"/><path fill="none" d="M1265.8 1313.9c-17.4 18.1-39.9 27.8-63.4 27.3-18.4-.4-35.5-7.3-49.3-19.3 3.3 8.4 8.3 16.2 15 23 26.4 26.4 69.3 26.4 95.7 0 14.8-14.8 21-34.7 19.2-54-4.8 8.2-10.4 16-17.2 23zM1191.7 1202.1c-12.3-.3-24 4.9-33.2 14.4-2.7 2.9-5.1 5.9-7.3 9.2 17.9-12.2 38.8-18.1 59.6-17.9-5.8-3.4-12.3-5.5-19.1-5.7zM1324.3 248.2c-72.5-112.7-223.1-145.5-335.8-73.1-89.6 57.6-115.7 177.3-58.1 267 2 3.1 4.3 6.1 6.5 9.1 9-3.5 21.5-4.9 38-1.9-4.7 12-4.6 25.2-.6 37.4 25.6 17 55.6 25.8 86.1 25.6 1.7-1.3 3.3-2.6 4.8-4.1 5.6-5.6 9.6-12.1 12.3-19 10.4 5.5 18.5 11.3 24.8 17.1 13.8-4 27.3-10 40-18.1 4.9-3.2 9.4-6.7 13.8-10.5 7.3-25.4 20.4-46.9 38.4-62.7.3-1.1.6-2.1.9-3.2 6.9-31.7 1-64.2-16.5-91.5-13.8-21.6-35.3-36.4-60.3-41.9-25.1-5.4-50.7-.8-72.3 13.1-17 10.9-28.7 27.8-33 47.5-2.7 12.2-2.3 24.6 1 36.4 11.5-34.8 55.4-20.2 39.1 44.1 1.1.4 2.3.8 3.5 1.1 27.2-45.4 59.2-41.1 62.4-20.8 2.9-4.6 5.1-9.5 6.3-15 2.6-12 .4-24.4-6.3-34.8-1.8-2.8-1-6.5 1.8-8.3 2.8-1.8 6.5-1 8.3 1.8 8.4 13.1 11.2 28.7 7.9 43.9-3.3 15.2-12.3 28.2-25.4 36.6-.1.1-.2.1-.3.2-6.5 8.9-17.2 18.3-33.5 27.1-1.9-5.7-4.8-11.2-8.6-16.1-3.8-.2-7.5-.7-11.2-1.5-13.5-2.9-25.5-9.6-35.1-19.2-3 .2-6.1.5-9 1.2-1.3-5.7-1.9-10.9-2.3-15.8-11.4-19.2-15.1-41.5-10.3-63.3.2-1.1.6-2.1.9-3.1-5.9 12.4-9.8 26.4-11 41.8 0 0-63.6-157.4 144-164.1 122-3.9 218.4 70.8 236.6 180.6h.2c-3.8-50.7-19.9-99.8-48-143.6zM1078.6 453c92.4-27.9 92.2 63-.6 34.6 4-11.2 4.1-23.4.6-34.6zm-36.1-2.1c11.1 11.1 11.1 29 0 40.1-11.1 11.1-29 11.1-40.1 0-11.1-11.1-11.1-29.1 0-40.1s29-11 40.1 0zm-33-34c-8.1 2.6-15.8 6.9-22.2 13.3-4 4-7 8.6-9.5 13.3-62.3-42.5-10.5-92.5 31.7-26.6zM743 1091.4c30.1-3 61.3 7.1 84.4 30.1 89.6-118.4 173.7-182.5 248.9-213.1-54.1 9.7-111.7 28.6-171.8 59-61.8 31-115.2 74.2-161.5 124zM630 1247.1c9.8-1.7 19.9-2.9 30.3-3.5-4.9-9.6-8.3-19.8-10-30.2-7.1 11.1-13.8 22.3-20.3 33.7zM813.7 1140c-2-2.6-3.9-5.3-6.3-7.7-26.4-26.4-69.3-26.4-95.7 0-26.4 26.4-26.4 69.3 0 95.6 26.4 26.4 69.3 26.4 95.7 0 21.3-21.2 25.1-53 12.1-78.4-1.6-3.3-3.5-6.4-5.8-9.5z"/><path fill="none" d="M1002.3 1156.8c187.5-205.2 433.7 70.1 296.3 211.2-4.1 6.6-9 12.9-14.7 18.6-40.9 40.9-107.2 40.9-148.1 0-38.8-38.8-40.7-100.4-5.9-141.6 3.3-13.5 9.8-26.3 19.9-36.7 11.5-12.1 26.5-18.5 42.2-18.1 14.8.3 28.3 6.8 38.3 18.1.5.5.7 1.2 1 1.8 19.3 4 37.7 13.4 52.6 28.4 1.1 1.1 2.1 2.4 3.2 3.6 2-16.3.5-32.8-4.6-48-1.6-1.7-3-3.4-4.7-5.1-61.3-62-158-38.1-211.4 19.4-28.5 60.4-22.2 134.4 21 184 32.4 37.1 76.7 58.1 124.7 59.2 51.6 1.2 101.1-20.2 139.4-60.2 96.7-100.8 104.2-264.3 16.7-364.5-51.2-58.7-121.3-92-197.3-93.8-13.5-.3-27 .5-40.3 2.1-119.8 35.1-226.4 126.8-294.3 196.8 31.6 41.1 28.7 100.2-8.9 137.8-2.4 2.4-5 4.7-7.6 6.9 50.2 22.4 86.2 50.6 110.7 81.7-7.2-68.4 16.5-141.2 71.8-201.6zM1189 313.8c17.4 27.1 24.3 58.9 19.8 90.5 11.1-7 23.6-12.3 37.4-15.4 3.5-.8 6.9-1.4 10.3-2.1-5.6-101.7-91-138.6-163.6-122.4 9.3-.4 18.7.2 28.1 2.3 28.2 6.1 52.4 22.9 68 47.1zM1613 797c71.4-9.2 125.7-55.9 125.7-112.1 0-11.1-2.2-21.7-6.1-31.8-24.6 47.8-63.7 97.2-119.6 143.9zM1438.2 885.8c-23.5-12-45.3-24.6-65.6-37.5-2.7.4-5.5.7-8.3 1.1 25.5 16.3 49.5 34.3 71.6 54.3.2-6 1-12 2.3-17.9zM1592.8 844.1c-6.8-6.4-14.6-11.1-22.8-14.2-18.3-6.8-38.9-5.2-56.2 4.4-5.4 3-10.5 6.5-15.1 11-11 11-17.1 24.8-19 39-2.6 20.1 3.5 41.2 19 56.6 26.4 26.4 69.3 26.4 95.7 0 26.4-26.4 26.4-69.2 0-95.7-.5-.3-1.1-.7-1.6-1.1zM1219.6 711.5c-10.2 7.8-21.1 15.3-32.4 22.8 20.4 38.7 68.2 67 125.4 71.4-38.2-30.4-68.9-62.2-93-94.2z"/><path fill="#FF7546" d="M1348.8 579.7c15.9-12.2 31.1-25.2 45.1-38.8-10.8-2.7-22-4.6-33.5-5.9-6.3 15.3-13.7 29.9-22.3 43.9 3.7.2 7.2.4 10.7.8zM1799.3 684.8c0-35.6-15.7-68.3-41.9-94.9-38.7-39.1-100.4-64.6-170.2-64.6-51.9 0-99.4 14.1-136.2 37.3-13.6-7.3-28.4-13.5-44.2-18.2-12.2 13.4-24.9 26.1-38 38.4 14.9 3.1 28.9 7.9 41.5 14.1-14.1 16-24.5 34.1-30.2 53.5 3.7 3.9 7.4 8.3 11 14-5.4 1.7-10.5 4.3-15.2 7.7-.4 4.2-.8 8.4-.8 12.7 0 7.5.9 14.7 2.2 21.9.7-6.7 3.5-13.1 8.7-18.3 11.9-11.9 31.3-11.9 43.2 0 11.9 11.9 11.9 31.3 0 43.2-11.9 11.9-31.3 11.9-43.2 0-1-1-1.8-2.1-2.6-3.2 4.7 12.3 11.2 24 19.5 35 9.6.7 19.4-1.3 28.1-6 1.7 5.8 2.6 11 3.3 16 1.2 8.4 1.1 15.7.1 21.8-5.3 31.8-35.3 31.6-40.5-.4-20 7.3-42.3 11.5-66 11.5-5.2 0-10.3-.2-15.3-.6-57.2-4.3-105-32.7-125.4-71.4-11.9 7.9-24.4 15.7-37.5 23.4 15.1 3.9 30.3 8.3 45.9 13.4 59.3 19.5 117 45.3 168.7 78.2 2.8-.3 5.6-.7 8.3-1.1 34.4-5.6 65.6-17.3 91.6-33.7 5.3 2.9 10.9 5.5 16.5 8 32.3-22.4 74.3-24.7 108.5-6.7 9.1 4.8 17.6 11 25.2 18.6 2.4 2.4 4.7 5 6.8 7.5 100.9-12.1 178.1-77.7 178.1-157.1zm-403.9-21.7c-16.6-74.3 56.9-72.5 36 5.3-11.1-6.1-23.9-8-36-5.3zm45.1 105.4c-2.6-3.6-5.1-7.5-7.6-12 3.5-2.1 6.8-4.5 9.9-7.5 3.9-3.9 6.8-8.4 9.1-13.1-10.3-15.4-16.2-32.7-16.2-51 0-4.4.4-8.6 1-12.8-1-.7-1.9-1.6-2.9-2.3 1.6-2.8 3.3-5.4 4.9-7.8 3.1-11.4 8.5-22.1 15.7-32 2.6 3 5.1 6 7.3 9.2 26.8-14.9 45.8 12.1 16.6 40.3.6 4.3 1.1 8.6 1.1 13 0 .3-.1.6-.1.8 56.1-4.1 52.8 51.7-10.2 40.2-.9 1.8-1.8 3.6-2.9 5.3 17.9 12.2 25.6 25.1 26.7 35.2 2.2 21.5-26.3 30.8-52.4-5.5zM1613 797c-8.4 1.1-17 1.8-25.8 1.8-30.4 0-58.6-6.8-82.3-18.4 22.2-25.2 35.2-55.4 35.2-87.9 0-37-16.9-70.9-44.9-97.9 25.5-14.7 57.4-23.6 92-23.6 69 0 127.1 34.7 145.4 82.1 3.9 10.1 6.1 20.7 6.1 31.8 0 56.2-54.4 102.8-125.7 112.1z"/><path fill="#FFB602" d="M1075.6 1684.3c3.5 11.3 3.3 23.4-.6 34.6 92.7 28.4 93-62.5.6-34.6zM1074.4 1720.6c-2.7 6.9-6.7 13.4-12.3 19-3.2 3.3-6.9 5.8-10.7 8.1 45.5 81.7 107.8 18 23-27.1zM1011.5 1754.4c-19.9 83 62.5 81.2 37.9-5.6-11.7 6.3-25.2 8.3-37.9 5.6zM975.5 1727.9c-64.2 43-10.6 94.4 32.1 25.2-8.6-2.5-16.7-6.9-23.4-13.6-3.6-3.5-6.3-7.5-8.7-11.6zM972.7 1722.6c-5.8-13.3-6.2-28.4-.9-42-72.6-13.3-72.3 56.1.9 42zM974.6 1674.9c2.5-4.7 5.5-9.3 9.5-13.3 6.4-6.5 14.1-10.7 22.2-13.3-42.1-66-93.8-15.9-31.7 26.6zM1011 1646.9c13.1-2.9 26.9-1 38.9 5.7 22.5-84-56.8-85.9-38.9-5.7zM1000 1721.4c11.1 11 28.9 11 40 0 11-11 11-28.9 0-40-11-11-28.9-11-39.9 0-11.1 11.1-11.1 29-.1 40zM1075 1682.5c83.3-44.8 22.7-107.3-22.6-28.5 3.4 2.1 6.7 4.6 9.6 7.6 6.2 6.1 10.4 13.3 13 20.9zM666 820.1c-160.6 145.3-499.6 378.2-272.8 757-30.2-65.3-67.3-177.9-44.1-304.2 17.4-94.6 68.6-196.8 182-292.6C660.4 871 792.2 799.2 906.9 742.5c25.4-12.5 49.9-24.3 73.4-35.6 58-27.9 110-52.9 153.6-78.8 10.4-6.2 20.3-12.4 29.7-18.7 27.3-18.4 50.2-37.6 67.9-58.8 20.7-24.9 34.4-52.6 39.2-85.1.5-3.3 3.5-5.6 6.8-5.1s5.6 3.5 5.1 6.8c-4.2 28.7-14.6 53.8-30.3 76.4-20 28.9-48.7 53.9-84.3 77.5-13.5 9-28.1 17.7-43.5 26.5-40.7 22.9-87.5 45.5-139 70.2-13.8 6.6-28 13.5-42.5 20.5C822 797 678.8 871.2 538.8 989.5c-121.1 102.3-169.5 212.1-181.6 311.4-16.8 138.4 37 256.3 63.9 304.9 3 5.4 5.6 10 7.8 13.6-6.8-39.2-10.6-76.3-11.5-111.4-.5-19.2-.2-37.8.9-55.9-1.6-13.8-2.7-29.9-2.6-47.7.7-112.3 47.7-297.8 300.1-473.8 109.1-76.1 230.4-131 349.5-189.4 17.7-8.7 35.3-17.4 52.9-26.4 9.8-5 19.6-10 29.4-15.1 9.4-5 19.3-10.1 29.4-15.4 5.8-3.1 11.8-6.2 17.8-9.4 31.9-16.9 65.9-35.8 99-56.9 11.2-12.3 21.3-25.5 30.3-39.5 9.2-14.2 17.2-29.3 23.9-44.9 7.6-17.7 13.5-36.3 17.8-55.6 6.2-28.4 8.2-57 6.3-85.3-.1-.4-.2-.8-.2-1.3-18.2-109.8-114.6-184.5-236.6-180.6-207.6 6.7-144 164.1-144 164.1 1.3-15.4 5.2-29.3 11-41.8 5.5-21.5 18.6-39.9 37.4-51.9 16.2-10.4 34.5-16.1 53.2-17 72.6-16.2 158 20.7 163.6 122.4.9 16.7-.2 35-4 55.3-9.9 52.5-45.9 94.4-98.6 131-103.5 71.9-271.6 123.1-433.6 192.8-16 17.8-33.9 35.9-54.3 54.4z"/><path fill="#FFB602" d="M1275.9 659.7c1.4-1.6 2.6-3.3 4-4.9-22.3 15.8-45.3 30.8-68.8 45.1-10.1 6.2-20.4 12.2-30.7 18.1-17 9.8-34.3 19.4-51.6 28.8-2.5 1.4-5 2.7-7.5 4.1-82.5 44.1-167.8 84.3-248.8 130.1 26.1-8.7 54-16.4 84-22.7 65.1-32.4 127.7-62.8 182.2-94.2 3.7-2.1 7.4-4.3 11-6.4 13-7.7 25.6-15.5 37.5-23.4 11.3-7.5 22.2-15.1 32.4-22.8 21.8-16.5 40.8-33.6 56.3-51.8zM809.1 919c-15.7 10-31.2 20.2-46.4 30.8-31.6 22.3-62 46.5-90.4 72.7 73.4-54.1 155.3-98.9 235.7-139.8-36.3 10.4-69.3 22.7-98.9 36.3z"/><path fill="#F67D4B" d="M687.3 1717.2c5.6 5.6 14.6 5.6 20.2 0s5.6-14.6 0-20.2-14.6-5.6-20.2 0c-5.6 5.5-5.6 14.6 0 20.2zM811.2 1760.5c-3.5-8-3.7-17-.5-25.2-43.6-8-43.4 33.6.5 25.2zM812.9 1763.6c-38.5 25.8-6.3 56.6 19.2 15.1-5.1-1.5-10-4.1-14-8.2-2.2-2-3.8-4.4-5.2-6.9zM834.1 1715.1c7.9-1.7 16.2-.6 23.3 3.4 13.6-50.4-34-51.5-23.3-3.4zM827.6 1759.7c6.6 6.6 17.3 6.6 23.9 0 6.6-6.6 6.6-17.3 0-23.9-6.6-6.6-17.3-6.6-23.9 0-6.6 6.6-6.6 17.3 0 23.9zM812.3 1731.8c1.5-2.8 3.3-5.6 5.7-8 3.9-3.9 8.5-6.4 13.3-8-25.2-39.4-56.2-9.4-19 16zM872.5 1736.4c49.9-26.8 13.6-64.3-13.5-17.1 2 1.3 4 2.7 5.8 4.5 3.6 3.7 6.2 8 7.7 12.6zM673.5 1717.8c-2.9-6.7-3.1-14.4-.5-21.2-36.7-6.8-36.5 28.3.5 21.2zM674.9 1720.5c-32.5 21.8-5.3 47.7 16.2 12.8-4.3-1.3-8.4-3.5-11.9-6.9-1.7-1.8-3.1-3.8-4.3-5.9zM725.5 1698.4c1.8 5.7 1.7 11.9-.3 17.5 46.9 14.4 47-31.6.3-17.5zM724.9 1716.8c-1.4 3.5-3.4 6.8-6.2 9.6-1.7 1.7-3.5 2.9-5.4 4.1 23 41.3 54.5 9.1 11.6-13.7zM693.1 1733.9c-10.1 42 31.6 41.1 19.1-2.8-5.9 3.1-12.7 4.1-19.1 2.8zM674.4 1693.6c1.3-2.4 2.8-4.7 4.8-6.7 3.3-3.3 7.1-5.4 11.3-6.7-21.4-33.3-47.5-8-16.1 13.4zM1002.4 491.1c11.1 11.1 29 11.1 40.1 0 11.1-11.1 11.1-29.1 0-40.1-11.1-11.1-29-11.1-40.1 0-11.1 11-11.1 29 0 40.1zM977.7 443.5c2.5-4.7 5.5-9.3 9.5-13.3 6.4-6.5 14.1-10.7 22.2-13.3-42.1-65.9-93.9-15.9-31.7 26.6zM1544 1168.2c-44.5-188.9-216.4-318.9-418-316-83.5 1.2-155.7 12.8-218.1 30.5-80.4 40.8-162.3 85.6-235.7 139.8-47.4 43.7-89.4 93-122.7 148.4-25.9 43.1-45.5 93.1-58.7 145 36.6-32.2 82.8-59 139.2-68.8 6.5-11.3 13.2-22.6 20.3-33.7 1.8 10.4 5.1 20.6 10 30.2 4.8 9.4 11.2 18.2 19 26.1 38.5 38.5 99.4 40.7 140.5 6.9 2.6-2.1 5.1-4.4 7.6-6.9 37.6-37.6 40.6-96.8 8.9-137.8 67.9-70.1 174.5-161.7 294.3-196.8 13.3-1.6 26.7-2.4 40.3-2.1 76 1.8 146.1 35.1 197.3 93.8 87.4 100.2 79.9 263.7-16.7 364.5-38.4 40-87.9 61.4-139.4 60.2-48-1.1-92.3-22.2-124.7-59.2-43.2-49.6-49.5-123.6-21-184 53.5-57.5 150.1-81.4 211.4-19.4 1.7 1.7 3.1 3.4 4.7 5.1 5.1 15.3 6.6 31.8 4.6 48-1.1-1.2-2.1-2.4-3.2-3.6-15-15-33.4-24.4-52.6-28.4-.3-.6-.5-1.3-1-1.8-9.9-11.4-23.5-17.8-38.3-18.1-15.7-.4-30.7 6.1-42.2 18.1-10 10.4-16.6 23.2-19.9 36.7-34.8 41.2-32.9 102.8 5.9 141.6 40.9 40.9 107.2 40.9 148.1 0 5.7-5.7 10.6-12 14.7-18.6 137.4-141.1-108.8-416.4-296.3-211.2-55.3 60.5-79 133.3-71.7 201.4 27.3 34.5 40.6 72.5 43.4 109.8 19.1 25.4 44.3 48 75.6 66.2 131.2 76.3 313.3 54.5 414.6-54.7 24.5-26.4 44.7-55.6 60.8-86.7 32.4-77.2 35.1-156.5 19-224.5zM807.4 1228c-26.4 26.4-69.3 26.4-95.7 0-26.4-26.4-26.4-69.2 0-95.6 26.4-26.4 69.3-26.4 95.7 0 2.4 2.4 4.3 5.1 6.3 7.7 2.2 3 4.1 6.2 5.8 9.5 13 25.4 9.2 57.1-12.1 78.4zm20-106.5c-23.1-23-54.3-33.1-84.4-30.1 46.2-49.8 99.7-92.9 161.4-124 60.1-30.3 117.7-49.3 171.8-59-75.1 30.5-159.2 94.7-248.8 213.1zm331 95.1c9.2-9.6 21-14.7 33.2-14.4 6.9.2 13.3 2.3 19.1 5.7-20.8-.2-41.7 5.8-59.6 17.9 2.2-3.3 4.6-6.4 7.3-9.2zm9.7 32.7c26.4-26.4 69.3-26.4 95.7 0 6.8 6.8 11.8 14.8 15.1 23.2-5.1 12-12.4 23.4-21.8 33.1-15 15.7-34.4 24-54.5 23.6-18.7-.4-35.9-8.6-48.5-23.1-2.2-2.5-4.1-5.4-5.8-8.2-.1-17.6 6.4-35.2 19.8-48.6zm95.7 95.6c-26.4 26.4-69.3 26.4-95.7 0-6.8-6.7-11.7-14.6-15-23 13.8 12 30.9 18.9 49.3 19.3 23.5.6 46.1-9.1 63.4-27.3 6.8-7 12.4-14.8 17.2-23.1 1.8 19.4-4.4 39.3-19.2 54.1zm35.6-127.9c13.4 23.9 15.9 48.4 12.3 71.4-2.8-11.9-7.6-23.3-14.5-33.8 2.6-12.4 3.3-25.1 2.2-37.6zm190.2 23.1c-14.6 141.4-149.6 276.9-296.9 263.6-125.3-11.3-210-132.4-153.6-255.4.7-1.7 1.6-3.3 2.4-4.9-12.2 55-.2 114.2 36.8 156.6 34.7 39.7 82.1 62.2 133.5 63.4 55 1.3 107.7-21.4 148.5-63.9 100.8-105.2 108.5-276 17.1-380.8-48.5-55.5-113.1-89.2-184-96.4 43-4.6 87.1-.8 131.2 14.9 113.7 56.4 178.5 171.7 165 302.9zM1078.6 453c3.5 11.3 3.4 23.4-.6 34.6 92.8 28.4 93-62.5.6-34.6z"/><path fill="#F67D4B" d="M1207.1 414.4c.7-3.3 1.2-6.7 1.7-10.1 4.4-31.6-2.4-63.4-19.8-90.5-15.6-24.3-39.7-41-67.9-47.2-9.4-2-18.8-2.7-28.1-2.3-18.8.9-37 6.5-53.2 17-18.8 12-31.9 30.4-37.4 51.9-.3 1-.6 2.1-.9 3.1-4.8 21.9-1 44.2 10.3 63.3.4 4.9 1 10.1 2.3 15.8 3-.7 6-1 9-1.2 9.6 9.5 21.6 16.3 35.1 19.2 3.7.8 7.5 1.3 11.2 1.5 3.9 5 6.7 10.4 8.6 16.1 16.3-8.8 27.1-18.2 33.5-27.1.1-.1.2-.1.3-.2 13.1-8.4 22.1-21.4 25.4-36.6 3.3-15.2.5-30.8-7.9-43.9a5.99 5.99 0 0 0-8.3-1.8 5.99 5.99 0 0 0-1.8 8.3c6.7 10.4 8.9 22.8 6.3 34.8-1.2 5.4-3.4 10.4-6.3 15-3.2-20.3-35.2-24.5-62.4 20.8-1.2-.3-2.3-.7-3.5-1.1 16.3-64.3-27.7-78.8-39.1-44.1-3.3-11.7-3.7-24.1-1-36.4 4.3-19.7 16-36.6 33-47.5 21.6-13.9 47.2-18.5 72.3-13.1 25.1 5.5 46.5 20.3 60.3 41.9 17.5 27.3 23.4 59.8 16.5 91.5-.2 1.1-.6 2.1-.9 3.2-6.1 24.7-19.4 46.3-38.4 62.7-4.3 3.8-8.9 7.3-13.8 10.5-12.7 8.2-26.2 14.1-40 18.1-6.3-5.8-14.4-11.6-24.8-17.1-2.7 6.9-6.7 13.4-12.3 19-1.5 1.5-3.1 2.9-4.8 4.1-30.4.2-60.5-8.7-86.1-25.6-4.1-12.2-4.1-25.4.6-37.4-16.5-3-29-1.7-38 1.9-2.2-3-4.5-5.9-6.5-9.1-57.6-89.6-31.5-209.4 58.1-267 112.7-72.4 263.3-39.6 335.8 73.1 28.1 43.8 44.3 92.9 47.8 143.4 0 .4 0 .8.1 1.2 1.9 28.2-.2 56.9-6.3 85.3-4.2 19.3-10.2 37.8-17.8 55.6-6.7 15.7-14.7 30.7-23.9 44.9-9 13.9-19.1 27.1-30.3 39.5-17.9 19.7-38.4 37.2-61.3 51.9a5.99 5.99 0 0 0-1.8 8.3c1.8 2.8 5.5 3.6 8.3 1.8 22.8-14.6 43.3-31.9 61.3-51.2 9.8-10.5 18.7-21.6 27-33.3 3.8-5.5 7.5-11.1 11-16.8 8.5-14 16-28.7 22.3-43.9 7.2-17.4 13-35.5 17.1-54.3 6.1-28.1 8.3-56.4 6.8-84.4-2.8-54.5-19.7-107.5-50-154.6-76-118.3-234.1-152.7-352.4-76.7-95.2 61.2-122.9 188.4-61.7 283.6 2 3.1 4.2 6 6.4 8.9-14.2 14.1-2.4 37.7 35.7 35.4 3.6 2.6 7.3 5 11.1 7.3-55.9 42.2-4.2 88.7 37.2 21.6-8.6-2.5-16.7-6.9-23.4-13.6-.2-.2-.4-.5-.6-.7 15.9 7.8 32.9 13 50.4 15.4-7.4 1.5-15 1.7-22.4.1-19.4 80.7 57.6 81 39.4 1.4 1.8.1 3.6 0 5.4 0 35.9 55.3 78.3 27.4 51.8-8.3 13-4.3 25.6-10 37.6-17.7 1.1-.7 2-1.5 3.1-2.2 28.1-18.9 47.7-47.8 55-81.4zM471 1692.6s16.2-102.2 62.3-232.4c-42.4 66-64.5 142.1-74.9 189.1l12.6 43.3zM872.8 1737.5c2.1 6.7 2 14-.4 20.7 55.7 17.1 55.9-37.4.4-20.7zM872.2 1759.2c-1.6 4.1-4 8-7.4 11.4-2 2-4.1 3.5-6.4 4.9 27.3 49 64.6 10.8 13.8-16.3zM834.5 1779.5c-11.9 49.8 37.4 48.7 22.7-3.4-7.1 3.9-15.1 5-22.7 3.4z"/><path fill="#F67D4B" d="M357.2 1300.9c12.1-99.3 60.5-209.1 181.6-311.4C678.8 871.2 822 797 943 738.2c14.5-7 28.7-13.9 42.5-20.5 51.4-24.7 98.3-47.3 139-70.2 15.4-8.7 30-17.5 43.5-26.5 35.6-23.6 64.2-48.6 84.3-77.5 15.7-22.6 26.1-47.7 30.3-76.4.5-3.3-1.8-6.4-5.1-6.8-3.3-.5-6.4 1.8-6.8 5.1-4.8 32.5-18.4 60.1-39.2 85.1-17.7 21.2-40.5 40.4-67.9 58.8-9.4 6.3-19.3 12.5-29.7 18.7-43.6 25.9-95.6 50.9-153.6 78.8-23.5 11.3-48 23.1-73.4 35.6C792.2 799.2 660.4 871 531.1 980.3c-113.4 95.8-164.6 198-182 292.6-23.2 126.3 13.9 238.9 44.1 304.2 1.3 2.7 2.5 5.4 3.8 8 15.3 31.9 28 50.6 28.6 51.4 1.5 2.1 4.1 3 6.5 2.3.1 0 .1-.1.2-.1s.1-.1.2-.1c.5-.1.9-.3 1.4-.6h.1c2.7-1.9 3.4-5.6 1.5-8.4-.2-.3-2.7-3.9-6.5-10.3-2.2-3.6-4.8-8.2-7.8-13.6-27-48.5-80.8-166.4-64-304.8z"/><path fill="#F67D4B" d="M1589.2 815.9c-34.2-18-76.2-15.7-108.5 6.7-5 3.5-9.9 7.4-14.4 11.9-14.6 14.6-23.9 32.5-28.1 51.3-1.3 5.9-2.1 11.9-2.4 17.9-22-20-46-38-71.6-54.3-51.7-32.9-109.4-58.6-168.7-78.2-15.5-5.1-30.8-9.5-45.9-13.4-3.6 2.2-7.3 4.3-11 6.4-54.5 31.4-117.1 61.8-182.2 94.2 50.7-10.6 106.9-17.3 169.3-18.2 207.3-3 384.1 130.8 430 325.3 7.5 32 11.1 66.5 9.5 102.1 7.6-51.1 5.9-104-5.7-156.1-8.1-36.3-21-69.4-37.6-99.8 32.5 5.7 67.3-3.9 92.4-29 38.5-38.5 40.8-99.5 6.8-140.6-2.1-2.6-4.4-5.1-6.8-7.5-7.5-7.7-16.1-13.9-25.1-18.7zm5.2 125.1c-26.4 26.4-69.3 26.4-95.7 0-15.4-15.4-21.6-36.5-19-56.6 1.9-14.3 8-28.1 19-39 4.6-4.6 9.7-8.1 15.1-11 17.4-9.7 37.9-11.2 56.2-4.4 8.3 3.1 16.1 7.8 22.8 14.2.5.5 1 .8 1.5 1.2 26.5 26.3 26.5 69.1.1 95.6zM924.7 585.6c1.6 1 3.2 2.2 4.6 3.6 2.9 2.9 4.9 6.3 6.1 9.9 39.5-21.2 10.8-50.9-10.7-13.5zM935.6 600c1.7 5.4 1.6 11.1-.3 16.4 44.1 13.5 44.2-29.6.3-16.4zM905 582.2c6.2-1.4 12.8-.5 18.5 2.7 10.6-39.8-27-40.7-18.5-2.7zM935.1 617.2c-1.3 3.3-3.2 6.4-5.8 9-1.5 1.5-3.3 2.7-5.1 3.8 21.6 38.8 51.1 8.6 10.9-12.8zM905.3 633.2c-9.4 39.4 29.6 38.5 18-2.7-5.6 3.1-12 4-18 2.7zM899.8 617.6c5.2 5.2 13.7 5.2 19 0 5.2-5.2 5.2-13.7 0-19-5.2-5.2-13.7-5.2-19 0-5.2 5.3-5.2 13.7 0 19zM725.2 1697.5c42.1-22.6 11.5-54.3-11.4-14.4 1.7 1.1 3.4 2.3 4.9 3.8 3.1 3.1 5.2 6.8 6.5 10.6zM886.9 618.2c-2.8-6.3-2.9-13.5-.4-19.9-34.5-6.4-34.4 26.5.4 19.9zM903.4 632.6c-4.1-1.2-7.9-3.3-11.1-6.5-1.7-1.7-3-3.6-4.1-5.5-30.5 20.5-5 44.8 15.2 12zM692.8 1679.5c6.6-1.5 13.6-.5 19.7 2.9 11.4-42.5-28.7-43.5-19.7-2.9zM887.7 595.5c1.2-2.3 2.6-4.4 4.5-6.3 3.1-3 6.7-5.1 10.6-6.3-20-31.3-44.5-7.6-15.1 12.6z"/><path fill="#C34E5C" d="M1234 1680.8c-1.6 4.2-4.1 8-7.4 11.4-2 1.9-4.1 3.5-6.4 4.8 27.3 49.1 64.6 10.9 13.8-16.2zM578.3 1625c6.6 6.6 17.3 6.6 24 0 6.6-6.6 6.6-17.3 0-24-6.6-6.6-17.3-6.6-24 0-6.6 6.7-6.6 17.4 0 24zM585.2 1644.8c-11.9 49.8 37.5 48.7 22.7-3.4-7 3.9-15.1 5-22.7 3.4zM563.1 1597.2c1.5-2.9 3.3-5.6 5.7-8 3.9-3.9 8.5-6.4 13.3-8-25.3-39.5-56.3-9.5-19 16zM622.9 1624.6c-1.6 4.1-4 8-7.4 11.4-2 1.9-4.1 3.5-6.4 4.9 27.3 48.9 64.6 10.7 13.8-16.3zM609.8 1584.7c2.1 1.3 4 2.7 5.8 4.5 3.7 3.6 6.1 8 7.7 12.6 49.9-26.9 13.6-64.4-13.5-17.1zM623.6 1602.8c2.1 6.8 2 14.1-.4 20.8 55.7 17 55.8-37.5.4-20.8zM584.9 1580.4c7.9-1.8 16.2-.6 23.3 3.4 13.5-50.3-34-51.5-23.3-3.4zM1195.9 1636.7c7.9-1.7 16.2-.6 23.3 3.4 13.6-50.4-34-51.5-23.3-3.4zM1466.3 834.5c4.5-4.5 9.3-8.4 14.4-11.9-5.7-2.5-11.2-5.2-16.5-8-26 16.4-57.2 28.2-91.6 33.7 20.3 12.9 42.2 25.5 65.6 37.5 4.2-18.8 13.5-36.7 28.1-51.3zM838.2 540.1c.5-5.2.5-8 .5-8 .1 2.7-.3 5.3-.5 8zM1196.3 1701.1c-11.9 49.8 37.5 48.7 22.7-3.4-7.1 3.9-15.1 5-22.7 3.4zM1234.6 1659.1c2.1 6.8 2 14-.4 20.7 55.7 17.1 55.9-37.4.4-20.7zM563.6 1629c-38.5 25.8-6.3 56.6 19.2 15.1-5.1-1.5-10-4.1-14.1-8.2-2-2.1-3.7-4.5-5.1-6.9zM834.6 562.4c2-7.3 3.1-14.8 3.6-22.4-.5 5.2-1.5 12.7-3.6 22.4zM1174.2 1653.4c1.5-2.8 3.3-5.6 5.7-8 3.9-3.9 8.5-6.4 13.3-8-25.3-39.4-56.3-9.4-19 16zM1174.7 1685.3c-38.5 25.8-6.3 56.6 19.2 15.1-5.1-1.5-10-4.2-14.1-8.2-2.1-2.1-3.7-4.5-5.1-6.9zM1234.4 1658c49.9-26.8 13.6-64.3-13.5-17.1 2 1.3 4 2.8 5.8 4.6 3.5 3.6 6.1 8 7.7 12.5zM1173 1682.1c-3.5-8-3.7-17.1-.6-25.2-43.5-8-43.3 33.6.6 25.2zM1189.4 1681.3c6.6 6.6 17.4 6.6 23.9 0 6.6-6.6 6.6-17.3 0-24-6.6-6.6-17.3-6.6-23.9 0-6.6 6.7-6.6 17.4 0 24zM1732.6 653c-18.3-47.4-76.4-82.1-145.4-82.1-34.7 0-66.5 8.9-92 23.6 28 27.1 44.9 61 44.9 97.9 0 32.5-13 62.7-35.2 87.9 23.7 11.6 52 18.4 82.3 18.4 8.8 0 17.4-.7 25.8-1.8 55.9-46.6 95-96 119.6-143.9z"/><path fill="#C34E5C" d="M1555.8 1165.4c-45.9-194.5-222.6-328.3-430-325.3-62.4.9-118.6 7.6-169.3 18.2-30 6.3-57.9 14-84 22.7 81-45.8 166.3-86 248.8-130.1 2.5-1.4 5-2.7 7.5-4.1 17.4-9.4 34.6-18.9 51.6-28.8 10.3-5.9 20.6-12 30.7-18.1 23.5-14.3 46.5-29.3 68.8-45.1-1.4 1.6-2.6 3.3-4 4.9-15.5 18.1-34.6 35.3-56.3 51.8 24.1 31.9 54.8 63.7 93 94.2 5 .4 10.2.6 15.3.6 23.7 0 46-4.2 66-11.5 5.2 32 35.2 32.2 40.5.4 1-6.1 1.1-13.4-.1-21.8-.7-4.9-1.7-10.2-3.3-16-8.7 4.7-18.5 6.7-28.1 6-8.3-10.9-14.8-22.6-19.5-35 .8 1.1 1.6 2.2 2.6 3.2 11.9 11.9 31.3 11.9 43.2 0 11.9-11.9 12-31.3 0-43.2-11.9-11.9-31.3-11.9-43.2 0-5.1 5.1-7.9 11.6-8.7 18.3-1.3-7.2-2.2-14.5-2.2-21.9 0-4.3.4-8.5.8-12.7 4.7-3.5 9.9-6 15.2-7.7-3.6-5.7-7.3-10.1-11-14 5.7-19.4 16-37.5 30.2-53.5-12.7-6.2-26.6-11-41.5-14.1 13.1-12.2 25.8-25 38-38.4 15.8 4.7 30.5 10.9 44.2 18.2 36.9-23.2 84.4-37.3 136.2-37.3 69.8 0 131.6 25.5 170.2 64.6 26.9-100.7-11.5-183.6-88.4-201.1-109.6-24.8-170.5 19.8-196.3 47.3 3.1-14.8 4.6-30.3 7.1-48.3-3 21.9-9.4 42.6-18.6 62.2-2.4 3.4-3.6 5.4-3.6 5.4s-21.6-37.6-73.2-59.2c1.4 28-.7 56.3-6.8 84.4-4.1 18.8-9.9 36.9-17.1 54.3 11.5 1.4 22.7 3.3 33.5 5.9-14.1 13.6-29.2 26.6-45.1 38.8-3.5-.4-7-.7-10.6-.8-3.5 5.7-7.1 11.3-11 16.8-8.2 11.7-17.2 22.8-27 33.3-18 19.4-38.5 36.6-61.3 51.2-2.8 1.8-6.5 1-8.3-1.8-1.8-2.8-1-6.5 1.8-8.3 23-14.7 43.5-32.3 61.3-51.9-33.1 21.1-67.1 39.9-99 56.9-6.1 3.2-12 6.3-17.8 9.4-10.1 5.3-20 10.4-29.4 15.4-9.8 5.1-19.5 10.1-29.4 15.1-17.5 8.9-35.2 17.7-52.9 26.4C946.2 799.6 825 854.6 715.8 930.6c-252.4 175.9-299.4 361.5-300.1 473.8-.1 17.9 1 33.9 2.6 47.7-1.1 18.1-1.5 36.7-.9 55.9.9 35.2 4.7 72.3 11.5 111.4 3.9 6.4 6.3 10 6.5 10.3 1.9 2.7 1.2 6.5-1.5 8.4h-.1c-.4.3-.9.5-1.4.6-.1 0-.1.1-.2.1s-.1 0-.2.1c-2.4.7-5-.2-6.5-2.3-.6-.8-13.2-19.5-28.6-51.4-1.2-2.6-2.5-5.3-3.8-8-226.8-378.9 112.2-611.8 272.8-757 20.4-18.5 38.4-36.6 54.3-54.2 79.7-88.4 105.9-163.7 114.4-203.4-40.1 144.6-361.5 228.9-534.9 533.4-22 38.7-36.6 76.2-45.2 112.4 4.8-94.8 34.3-216 135.8-313.4 63.5-60.9 135.4-119.6 205-176.3 153.5-125.1 286.1-233.1 283.3-326.8-.1-3.3-2.9-5.9-6.2-5.8-3.3.1-5.9 2.9-5.8 6.2 2.7 87.7-134 199.1-278.8 317C518 766 445.8 824.8 382 886.1c-140.9 135.2-146.8 315-137.3 411.7 3.1 178.6 140.3 310.4 191.4 353.4l14.1 42.7s1.3-10.5 4.7-27.7c.1 0 .1.1.1.1 0-.1-.1-.1-.1-.2 1-5.1 2.1-10.7 3.5-16.9 10.4-47 32.4-123.1 74.9-189.1 28.5-44.4 66.3-84.2 116-107.4 2.6-1.2 5.2-2.3 7.8-3.4-167.4 96.2-141.4 349.2-141.4 349.2 3.3-29.4 8-56.6 13.9-81.8 2.7 7 13.5 12.6 32.3 9-3.5-8-3.7-17.1-.6-25.2-14.6-2.7-24.2.3-28.9 5 44.2-175.7 144.2-250.8 187.7-276 131.9-25 228.2 61.8 221.3 165.4-8.1 121.4-186.1 176.5-220.4 72.2-34.4-104.4 66.5-149.5 115.6-100.8 49.1 48.6-12.9 104.2-12.9 104.2 117.5-52.2-13.1-242.3-110.4-137.2-97.3 105.1 16.2 261.6 138 236.3 67.5-14 129.7-105.4 122.6-201.7-2.8-37.3-16-75.3-43.4-109.8-24.6-31-60.6-59.3-110.7-81.7-41.1 33.9-102.1 31.6-140.5-6.9-7.9-7.9-14.2-16.7-19-26.1-10.4.6-20.5 1.8-30.3 3.5-56.4 9.8-102.5 36.7-139.2 68.8 13.2-51.8 32.9-101.9 58.7-145 33.3-55.4 75.3-104.7 122.7-148.4 28.5-26.3 58.9-50.5 90.4-72.7 15.1-10.7 30.6-20.9 46.4-30.8 29.7-13.6 62.6-25.9 98.9-36.2 62.4-17.7 134.5-29.4 218.1-30.5 201.6-2.9 373.5 127 418 316 16 67.9 13.4 147.3-19.1 224.7-37.1 88.5-113.1 174.4-244.9 237.9-3 1.4-4.3 5-2.8 8s5.1 4.3 8.1 2.8c199.4-96 274.3-242.7 280-374.1 1.5-35.5-2-69.9-9.5-102z"/><path fill="#C34E5C" d="M1466.3 738.7c1-1.7 2-3.5 2.9-5.3 63.1 11.5 66.4-44.3 10.2-40.2 0-.2.1-.5.1-.8 0-4.4-.4-8.7-1.1-13 29.2-28.2 10.1-55.2-16.6-40.3-2.2-3.2-4.7-6.2-7.3-9.2-7.2 9.9-12.6 20.6-15.7 32-1.7 2.5-3.3 5-4.9 7.8 1 .6 1.9 1.6 2.9 2.3-.6 4.2-1 8.5-1 12.8 0 18.4 5.9 35.7 16.2 51-2.3 4.7-5.2 9.2-9.1 13.1-3 3-6.4 5.4-9.9 7.5 2.5 4.5 5 8.4 7.6 12 26.1 36.3 54.6 27.1 52.5 5.4-1.2-10-9-22.9-26.8-35.1zM1395.4 663.1c12.1-2.7 24.9-.9 36 5.3 20.9-77.8-52.6-79.6-36-5.3zM1252.5 442.1c3.8-20.3 4.9-38.6 4-55.3-3.4.7-6.8 1.3-10.3 2.1-13.8 3.1-26.2 8.4-37.4 15.4-.5 3.4-1 6.7-1.7 10.1-7.3 33.6-26.9 62.5-55.2 81.8-3.9 23.3-3.5 49.3 2 76.9 52.7-36.6 88.7-78.5 98.6-131z"/><path fill="#C34E5C" d="M1194.4 415.1c-18 15.8-31 37.2-38.4 62.7 19-16.4 32.4-38.1 38.4-62.7zM1371.8 391.6c.1.4.2.8.2 1.3 0-.4 0-.8-.1-1.2.1-.1 0-.1-.1-.1z"/></svg>