<svg xmlns:xlink="http://www.w3.org/1999/xlink"  xmlns="http://www.w3.org/2000/svg" viewBox="0 0 2000 2000"><path fill="none" d="M1495.1 1600.6c1.1 1.7 2.1 3.3 3.1 4.9.8-.7 1.6-1.5 2.4-2.2-.7-1.8-1.5-3.5-2.2-5.3-1 .9-2.1 1.7-3.3 2.6zM1295.9 1459.8c-119.9-112.8-245.3-190.7-349.8-243 4.7 8.3 8.1 17.9 10 28.5 122 46.7 239.3 128.5 339.8 214.5zM1490.2 1604.2c-8 5.8-16.9 11.3-26.6 16.5 2.3 2.5 4.6 4.9 6.9 7.4 6.6-4.9 14.6-11.2 23.2-18.7-1.1-1.7-2.3-3.4-3.5-5.2zM1331.1 1286.7c12 14.3 23.5 28.6 34.8 42.7-15.7-27-31.9-53.2-48.3-78.8 4.2 11.8 8.6 23.8 13.5 36.1zM1479.3 1575.6l.6.9c2.3-2.1 4.6-4.3 6.9-6.5-.1-.1-.1-.3-.2-.4-2.3 2-4.8 4-7.3 6zM1521.7 1530.1c-2.1 3.1-4.3 6.3-6.6 9.4v.1c2.4-2.9 4.8-5.8 7.1-8.9-.1-.3-.3-.5-.5-.6zM1282.1 636.7c-11.7 8.6-26.2 15.6-42.5 20.2 3.9 55.9 12.1 118.3 26.6 186.4 15.2 2.1 33.1 4.6 52.9 7.8-10.3-63.7-16.7-130.2-18.3-199.5-7.1-4.5-13.4-9.4-18.7-14.9zM1503.8 1508.6c-22.8-27.7-46.6-58-70.7-90.8l.6 1.2c23.9 33.2 45.8 65.3 65.4 95.5 1.5-2 3.1-3.9 4.7-5.9zM1214.9 968.4c-4.9-44.6-5.5-88.7-.6-131.5 0 0 1.3.1 3.4.4-12.6-56.3-21.4-114.6-24.9-174.3-28.8-.1-55.1-7-75.6-18.4 22.2 99.5 53.5 209.2 97.7 323.8zM1436.3 928c-8.5-5.2-15.9-11.4-22.2-18.1-20.9-2.5-41.2-4.3-60.2-5.1 26.7 122.8 69.2 259.9 136 400.3-15.1-109.4-17.5-231.9 4.8-362.2-17.9 1.9-39-2.9-58.4-14.9zM1435.1 1575.1c6.6-4.9 14.6-11.2 23.2-18.7-35.4-54.3-73.2-117.1-108.3-184.9-190.9-215.2-378.3-354.4-537.5-444.3-6.4 3.7-12.8 6.7-19.3 9.1 332.1 173.2 531.4 440 641.9 638.8zM903.3 637.4c-25.1 13.6-52.1 15.9-72 8.3 2.4 10.3 3.1 21.5 2.2 33.2 77.6 57.2 147.5 118.3 210.3 181.4-54.6-126.2-84.5-228.1-96-271.3-6.7 18.3-22.4 36.4-44.5 48.4zM1101.9 533.4c-2.5-.9-4.9-1.9-7.3-2.9.5 2.7.9 5.4 1.4 8.1 1.9-1.8 3.9-3.5 5.9-5.2zM863.8 876.6c-.9 1.5-2 2.9-3 4.3 121.1 69.5 228.4 155 321.4 245-37.7-60.5-70.3-120.7-98.1-177.9-74.2-81-148.7-150.9-219.1-210.3 30.6 28.8 31 87.9-1.2 138.9zM1076.4 570c-2.6-17.9-5-36.1-7.1-54.4-4.3-3.3-8.1-6.9-11.6-10.7-.2 23.9-18.3 50.5-47.7 66.4-15.4 8.3-31.4 12.3-46.2 12.5 37 119.7 83.4 231.2 132.7 331.7 49.4 53.9 94.1 108.7 134.3 163.4-63.8-135.9-117.5-291.6-147.5-465-5.7-9.3-9-19.4-9-30 .1-4.7.9-9.4 2.1-13.9zM855.9 730.6c1.6 1 3 2.1 4.4 3.3-10.9-9.1-21.6-18-32.3-26.6-1.4 4.6-3 9.1-4.8 13.7 11.8.3 22.9 3.4 32.7 9.6zM1506.6 1591.1c.6 1.7 1.2 3.3 1.8 5 3.9-3.8 7.9-7.8 11.9-12-.9-1.2-1.8-2.4-2.7-3.7-3.4 3.6-7.1 7.2-11 10.7zM1474.6 1581.1c-.3-.4-.6-.9-.9-1.3-8.1 5.9-17.1 11.5-27 16.7.9 1.7 1.8 3.3 2.6 4.9 7-5.2 15.7-12 25.3-20.3zM1286.8 1235.4c-9.1-22.5-17.7-45.2-25.6-68-33.7-47.5-68.3-92.3-103.4-134.6 38 68.3 76 129.8 111.1 182.8 6.1 6.6 12.1 13.2 17.9 19.8zM1474.4 1541.5c-6.9-15.5-13.8-30.8-21-46-21.1-26.8-42.1-52.7-63.2-77.5 21.1 41.9 45.6 86.3 74 133.1 3.4-3 6.7-6.2 10.2-9.6zM1576.1 1496.1c.6-1.7 1.2-3.4 1.7-5.1-1.6-2.3-3.1-4.6-4.7-6.9 1 3.9 2 7.9 3 12zM1534.6 1507.6c-2 4.1-4.2 8.3-6.7 12.6l.9 1.2c2.3-3.4 4.6-6.8 6.8-10.3-.3-1.2-.7-2.4-1-3.5zM1540.2 1551.6c-2.8 4.4-5.9 8.9-9.3 13.3.9 1.4 1.7 2.8 2.6 4.2 3.5-4.3 7-8.7 10.4-13.2-1.2-1.5-2.5-2.9-3.7-4.3zM1487.5 1646.4c19.1 20.9 36.1 40.2 50.9 57.5-7.6-21.8-15.4-43.2-23.5-64.4-1.7-2.4-3.4-4.8-5.1-7.3-6.9 5-14.3 9.8-22.3 14.2zM1548 1488.4c-1-1.2-2.3-2.7-3.9-4.6-.7 2.1-1.4 4.2-2.2 6.4.6 2.3 1.2 4.6 1.8 7 1.5-2.9 2.9-5.8 4.3-8.8zM1548.3 1487.9c3.6-7.6 6.9-15.3 9.5-23.4-.6-2.2-1.1-4.3-1.7-6.5-1.5-2.3-2.9-4.6-4.4-6.9-1 7.7-3 18.6-7 31.2 1.2 1.9 2.3 3.7 3.6 5.6zM1565.3 1491.3c-2.4 10.7-6.4 23.8-12.8 37.8.9 3.3 1.9 6.6 2.9 9.9 5.8-9.2 11.1-18.9 15.5-29.2-1.9-6.1-3.8-12.3-5.6-18.5zM1609.3 1616.9c-9.8-24.2-19.9-50.9-29.4-79.4-3.1 9.4-7.4 19.7-13.2 30.3 13.8 16.4 28 32.8 42.6 49.1zM1542.4 1436.2c-6.6-10.5-13.1-21.2-19.6-32.3 3.4 18 7.2 36.2 11.5 54.6 3.1-7.1 5.7-14.6 8.1-22.3zM1525.4 1476.1c-2.1-7.6-4.2-15.3-6.2-23.1-57.2-73.3-180.1-245.9-258.2-466.2 1.2 32.9 5.9 76.8 17.8 130.9 59.6 126 135.5 255 232.3 380.9 5.1-7.2 9.9-14.6 14.3-22.5z"/><path fill="none" d="M1499.2 1363.1c-70.1-125.9-135-280.3-170.6-458.6-17.5.2-33.4 1.7-47 4.5 39.6 152.8 110.8 330.6 233.2 526.7-5.7-23.3-10.9-47.5-15.6-72.6z"/><path fill="#55924E" d="M603 534.2c.1 3.7 0 7.6-.2 11.5 30.5 19.1 65.2 42 103.1 68.8 5.6-4.2 11.4-7.8 17.3-10.9-38.4-24.1-78.4-47.3-120.2-69.4zM1077 407.5c-3.6-31.5-6.3-60.5-8.2-86.8-3.3 2.8-7 5.4-11 7.7.2 31 1.2 61.7 3 91.8 4.7-4.6 10.2-8.8 16.2-12.7zM1096.1 538.6c-.5-2.7-1-5.4-1.4-8.1-9.5-4.1-18-9.1-25.4-14.8 2.1 18.3 4.5 36.4 7.1 54.4 3.1-11.6 9.9-22.3 19.7-31.5zM505.1 741.9c-63.7-13.9-129.9-22.8-198.8-25.6 0 0-145.6 291.1-48.5 558 0 0 12.1-424.5 109.2-509.4 0 0 43.1 3.5 116.9 23.7 4-14.7 10.4-29.7 19.5-44 .5-1 1.1-1.8 1.7-2.7zM1348.4 329c119.2 13.2 296.7 86.7 296.7 86.7-151.2-146.6-392.4-136.3-392.4-136.3-7.7 19.4-14.6 38.8-20.8 58.2 19.6-9.3 43.5-14.9 69.5-14.9 16.7-.1 32.6 2.2 47 6.3z"/><path fill="#FD4F57" d="M793.1 936.2c6.5-2.3 13-5.3 19.3-9.1 17.9-10.4 34.8-26.2 48.4-46.3 1-1.4 2-2.8 3-4.3 32.3-51 31.9-110.1 1.2-138.8-1.5-1.4-3-2.6-4.6-3.9-1.4-1.1-2.9-2.3-4.4-3.3-9.8-6.2-21-9.3-32.7-9.7 1.8-4.6 3.5-9.1 4.8-13.7 2.9-9.6 4.6-19.1 5.3-28.4.9-11.7.2-22.9-2.2-33.2 19.9 7.6 46.9 5.3 72-8.3 22.2-12 37.9-30 44.4-48.4.7-2.1 1.3-4.1 1.8-6.2 4.6.8 9.4 1.2 14.4 1.1 14.7-.2 30.8-4.2 46.2-12.5 29.4-16 47.5-42.6 47.7-66.4-9-10-14.9-21.3-16.5-33.5-6.1-4.6-13.4-7.9-21.7-9.6 16.9-20 22.7-44.1 12.6-62.8-14.8-27.3-57.8-32.5-96.3-11.7-4.9 2.7-9.5 5.7-13.8 8.9-18.4-19.6-56-21.7-90-3.3-38.4 20.8-57.5 59.7-42.8 87 1.4 2.6 3.2 4.7 5.1 6.9-9.1 2.1-18.4 5.4-27.4 10.3-38.4 20.8-57.6 59.7-42.8 87 3 5.6 7.5 10 12.6 13.7-4.5 1.6-9 3.5-13.5 5.9-5.9 3.1-11.7 6.7-17.3 10.9-14.6 10.8-28.2 25.2-39.2 42.7-8.2 13-14.2 26.4-18.2 39.8-3-2.9-6.2-5.7-9.9-8-38.9-24.6-98-.8-133.4 52.9-.6.9-1.2 1.7-1.8 2.6-9.1 14.3-15.5 29.3-19.5 44-9.7 36-4.4 70.7 15.2 91.8-5.2 6.1-10.2 12.7-14.7 19.8-35.2 55.6-31.7 121 7.8 146 26.9 17 63.5 10.9 95.3-12.3 3.2 22.3 13.6 41.2 31 52.1 39.5 25 100 .1 135.2-55.5 17.5-27.7 25.4-57.8 24.1-84.2-.1-1.9-.3-3.8-.5-5.7 5.2-.9 10.5-2.3 15.8-4.3zm81.2-461.9c27.8-15.1 59.1-11.3 69.8 8.5 10.7 19.8-3.2 48-31 63.1-27.8 15.1-59.1 11.3-69.8-8.5-10.7-19.7 3.2-48 31-63.1zM627.2 922.2c-28.6-18.1-31.2-65.5-5.7-105.8s69.4-58.3 98-40.2c28.6 18.1 31.2 65.5 5.7 105.8s-69.4 58.4-98 40.2z"/><path fill="#FFC03B" d="M725.2 882c25.5-40.3 23-87.7-5.7-105.8-28.6-18.1-72.5-.1-98 40.2-25.5 40.3-23 87.7 5.7 105.8 28.6 18.2 72.5.1 98-40.2z"/><path fill="#55924E" d="M797.7 1361.3c-5.5 112-3.9 256.6 32.7 328.8 0 0-10.7-208.5 15.1-338.1-9.4 8.6-20.6 13.4-32.5 12.9-5.3-.1-10.4-1.4-15.3-3.6zM1649.6 957.1c23.5 6.1 37.8 10.2 37.8 10.2-11.2-9.3-24.9-18.1-40.5-26.3h-.2c1.8 5.4 2.7 10.8 2.9 16.1z"/><path fill="#FD4F57" d="M956.1 1245.3c-1.9-10.6-5.4-20.2-10-28.5-1.5-2.6-3.1-5.1-4.8-7.4 3-2.5 5.8-5.3 8.4-8.5 11.5-14 19.1-34.2 20-57 1.6-43.6-22.2-79.9-53.1-81.1-7.7-.3-15.1 1.6-22 5.3-5-34.3-25.9-60.3-52-61.3-31-1.2-57.4 33.3-59 76.9-.4 10.2.7 19.9 2.8 28.9-2.7-.7-5.5-1.2-8.3-1.3-31-1.1-57.4 33.3-59.1 76.9-1.5 38.6 17.1 71.5 42.8 79.3-1 5.2-1.6 10.7-1.8 16.3-1.4 36.1 14.7 67.2 37.9 77.5 4.8 2.1 9.9 3.4 15.2 3.6 11.9.4 23.1-4.4 32.5-12.9 7.3-6.6 13.5-15.5 18-25.9 9.3 11.7 21.5 19.1 35.1 19.6 25.9 1 48.5-23 56.3-56.3 1.5-6.6 2.5-13.4 2.8-20.6.2-8.1-.3-16-1.7-23.5zm-145.5-55.1c1.2-31.7 20.3-56.6 42.8-55.8 22.5.9 39.7 27.2 38.5 58.8-1.2 31.6-20.4 56.6-42.8 55.8-22.4-.9-39.7-27.2-38.5-58.8z"/><path fill="#FFC03B" d="M849.2 1249c22.5.8 41.6-24.1 42.8-55.8 1.2-31.6-16.1-58-38.5-58.8-22.5-.8-41.6 24.1-42.8 55.8-1.3 31.6 16 57.9 38.5 58.8z"/><path fill="#FD4F57" d="M1436.3 928c19.4 12 40.5 16.8 58.5 15 4.1-.4 8-1.1 11.7-2.2 1 2.7 2.2 5.4 3.5 8.1 7.3 14.5 19.9 28.3 36.7 38.6 37.2 22.9 80.5 20.1 96.8-6.3 4.5-7.3 6.3-15.5 6.1-24.2-.2-5.3-1.1-10.7-2.9-16.2h.2c25.6 4.5 49.2-2.3 60.2-20.2 16.2-26.4-.7-66.4-37.9-89.3-4.8-2.9-9.6-5.4-14.5-7.5 7.8-25.8-9.2-59.4-42.1-79.7-37.2-22.9-80.5-20.1-96.7 6.3-1.5 2.4-2.6 5-3.6 7.6-6.3-6.8-13.8-13.1-22.4-18.4-37.2-22.9-80.5-20.1-96.8 6.3-13.7 22.2-3.8 54.1 22 77.3-6.9 3.6-12.6 8.7-16.7 15.3-4.6 7.5-6.5 16.1-6 25.1.7 15.4 8.5 31.9 21.7 46.1 6.3 6.9 13.7 13.1 22.2 18.3zm126.9-106.4c26.9 16.6 39.2 45.6 27.5 64.7-11.8 19.1-43.2 21.2-70.2 4.6-26.9-16.6-39.2-45.6-27.4-64.7 11.7-19.2 43.1-21.2 70.1-4.6z"/><path fill="#FFC03B" d="M1520.5 890.9c26.9 16.6 58.4 14.6 70.2-4.6 11.8-19.1-.5-48.1-27.5-64.7-26.9-16.6-58.4-14.6-70.1 4.6-11.9 19.1.4 48.1 27.4 64.7z"/><path fill="#FD4F57" d="M1074.5 315.1c14.5 11.4 35.4 18.5 58.8 18.5 43.7-.2 79-25.4 78.9-56.4 0-13.6-6.9-26.1-18.4-35.8 24.2-9.7 40.6-28.1 40.5-49.2-.1-31-35.6-56-79.2-55.9-5.6 0-11 .5-16.3 1.3-7-26-39.2-45.6-77.8-45.5-43.7.2-79 25.4-78.9 56.4 0 2.8.4 5.6 1 8.3-8.9-2.4-18.6-3.8-28.8-3.8-43.7.1-79 25.4-78.9 56.4.1 26.1 25.4 48 59.5 54.1-3.9 6.7-6.1 14.1-6.1 21.8.1 31 35.6 56 79.3 55.9 18.9-.1 36.2-4.8 49.8-12.7 4-2.3 7.7-4.9 11-7.7 1.9-1.9 3.8-3.8 5.6-5.7zm-72-90.4c-.1-22.5 25.5-40.8 57.2-40.9 31.7-.1 57.4 18 57.5 40.5 0 22.5-25.6 40.8-57.2 40.9-31.7.1-57.4-18-57.5-40.5z"/><path fill="#FFC03B" d="M1059.9 265.2c31.6-.1 57.3-18.4 57.2-40.9-.1-22.5-25.8-40.6-57.5-40.5-31.7.1-57.3 18.4-57.2 40.9.2 22.5 25.9 40.6 57.5 40.5zM843.3 537.4c10.7 19.8 41.9 23.6 69.8 8.5 27.8-15.1 41.7-43.3 31-63.1-10.7-19.8-42-23.5-69.8-8.5-27.8 15.1-41.7 43.4-31 63.1z"/><path fill="#FF993D" d="M1069.3 515.7c7.4 5.7 15.9 10.7 25.4 14.8 2.4 1 4.8 2 7.3 2.9-2.1 1.7-4 3.4-5.9 5.2-9.8 9.2-16.6 19.9-19.7 31.4-1.2 4.5-2 9.2-2 13.9 0 10.6 3.2 20.8 9 30 7.4 11.9 19.1 22.4 33.7 30.6 20.5 11.4 46.8 18.3 75.6 18.4h.9c16.3 0 31.8-2.2 46-6.1 16.4-4.6 30.8-11.5 42.5-20.2 5.3 5.5 11.5 10.4 18.6 14.9 5 3.1 10.4 6 16.2 8.5 18.8 8.2 41.3 13 65.5 13 65.8 0 119.2-35.4 119.2-79 0-10.9-3.3-21.2-9.3-30.6 51.4-8.8 89.4-39.6 89.4-76.5 0-43.7-53.4-79.1-119.2-79.1-15.3 0-29.9 2-43.4 5.5.9-3.9 1.5-7.8 1.5-11.8 0-32.6-29.7-60.5-72.2-72.6-14.4-4.1-30.3-6.4-47-6.4-26 0-49.9 5.6-69.5 14.9-24.3 11.6-41.8 29.2-47.5 49.5-7.9-1.1-16.2-1.7-24.6-1.7-32.2 0-61.3 8.5-82.8 22.3-6 3.9-11.5 8.1-16.1 12.7-12.8 12.6-20.2 27.8-20.2 44.1 0 2.4.2 4.8.5 7.1 1.6 12.2 7.5 23.6 16.5 33.5 3.4 3.8 7.3 7.4 11.6 10.8zm234.5 50.7c-47.7 0-86.4-25.6-86.4-57.3 0-31.7 38.7-57.3 86.4-57.3s86.4 25.7 86.4 57.3c0 31.7-38.7 57.3-86.4 57.3z"/><path fill="#FFC600" d="M1390.2 509.1c0-31.7-38.7-57.3-86.4-57.3s-86.4 25.7-86.4 57.3c0 31.7 38.7 57.3 86.4 57.3s86.4-25.6 86.4-57.3z"/><path fill="#FF993D" d="M603 534.2c0-1.6-.2-3.2-.3-4.8 29.8-6.3 61.8-29.9 84.2-65.6 35-55.8 33.4-119.8-3.6-143-9.2-5.8-19.7-8.5-30.9-8.4 19.9-48.2 13.9-96.8-17.3-116.4-37-23.2-95.3 3.2-130.3 58.9-8.1 13-14.2 26.4-18.4 39.7-2.8-2.8-5.8-5.4-9.2-7.5-37-23.2-95.3 3.2-130.3 58.9-31 49.3-33.2 105.1-7.7 133.3-5.2 6.1-10 12.8-14.5 19.9-35 55.8-33.4 119.8 3.6 143 25.2 15.8 60.3 8.6 91.1-15.2 2.5 21.8 11.9 39.9 28.2 50.1 37 23.2 95.3-3.2 130.3-58.9 15.1-24 23.3-49.6 24.9-72.7.2-3.7.3-7.5.2-11.3zm-142.8-17.7c-26.8-16.8-28-63.3-2.6-103.6 25.4-40.4 67.7-59.6 94.5-42.7 26.8 16.8 28 63.2 2.6 103.6-25.4 40.4-67.7 59.5-94.5 42.7z"/><path fill="#FFC600" d="M554.7 473.8c25.4-40.4 24.2-86.8-2.6-103.6-26.8-16.8-69.1 2.3-94.5 42.7-25.4 40.4-24.2 86.8 2.6 103.6 26.8 16.8 69.1-2.3 94.5-42.7z"/><path fill="#55924E" d="M1567.4 1199.2c65.9-10.4 246.2 83.2 246.2 83.2-55.5-69.4-267-135.3-267-135.3-25.9 80.1-20.2 174.6-1.4 264.5-10.8-19.2-21.2-38.4-31-57.6-23.3-154.2-18.2-294.1-4.1-405.1-1.4-2.7-2.5-5.4-3.5-8.1-3.7 1.1-7.6 1.8-11.7 2.2-22.3 130.3-19.9 252.8-4.8 362.2-66.8-140.4-109.3-277.5-136-400.3 19 .8 39.3 2.6 60.2 5.1-13.3-14.2-21-30.7-21.7-46.1-16.8-3.2-33.1-6.1-48.6-8.7-13.6-71.5-21.9-137.3-26.9-195-5.8-2.5-11.2-5.4-16.2-8.5 1.6 69.2 8 135.8 18.3 199.5-19.8-3.1-37.7-5.7-52.9-7.8-14.4-68.1-22.6-130.5-26.6-186.4-14.2 3.9-29.7 6.1-46 6.1h-.9c3.5 59.7 12.3 118 24.9 174.3-2.1-.2-3.4-.4-3.4-.4-4.9 42.8-4.3 86.9.6 131.5-44.2-114.6-75.5-224.3-97.7-323.9-14.7-8.2-26.3-18.6-33.7-30.6 30 173.4 83.6 329.1 147.5 465-40.2-54.7-84.9-109.6-134.3-163.4-49.3-100.4-95.8-212-132.7-331.7-5 .1-9.8-.3-14.4-1.1-.5 2.1-1.1 4.1-1.8 6.2 11.6 43.2 41.5 145.2 96 271.3-62.9-63.1-132.8-124.2-210.4-181.4-.7 9.3-2.5 18.8-5.3 28.4 10.6 8.6 21.4 17.5 32.3 26.6 1.6 1.2 3.1 2.5 4.6 3.9 70.3 59.4 144.8 129.2 219 210.2 27.9 57.2 60.4 117.4 98.1 177.9-93-90.1-200.2-175.6-321.4-245-13.6 20.1-30.5 35.8-48.4 46.3 159.2 89.9 346.7 229.1 537.5 444.3 35.1 67.7 72.9 130.5 108.3 184.9-8.6 7.5-16.6 13.8-23.2 18.7-110.4-198.8-309.7-465.6-641.9-638.9-5.3 1.9-10.6 3.3-15.9 4.3.2 1.9.4 3.8.5 5.7 185.4 108.9 452.9 309.1 648 635.1-3.6-3.6-7.2-7.3-10.9-11-98.6-125.8-250-273.3-465.2-369.4-2.6 3.2-5.4 6-8.4 8.5 1.7 2.3 3.3 4.8 4.8 7.4 104.5 52.3 229.9 130.2 349.8 243-100.4-86-217.7-167.8-339.8-214.5 1.4 7.5 1.9 15.4 1.6 23.5-.3 7.2-1.3 14.1-2.8 20.6 89.2 26.2 246 95.6 444 278.6 5.9 6.9 11.8 14 17.7 21.1l1.5 20.1c3.8-1.4 7.5-3 11.1-4.5 1.8 2.2 3.5 4.5 5.3 6.8-1 .6-1.6 1-1.6 1l1.6 21.3c4.5-1.7 8.9-3.5 13.1-5.4 2.6 3.4 5.1 6.8 7.6 10.2-1.6 1-2.7 1.7-2.7 1.7l1.6 21.3c4.7-1.8 9.2-3.7 13.6-5.6 30.6 57.5 58.9 118.5 84.1 183.3 0 0-16-55.4-54.7-140.9 23.2 35.1 45.5 72.2 66.3 111.5 0 0-26.5-63-85.1-151.5-1-2-2-4-2.9-6l6.6-3.3c19.4 20.1 39.3 41.4 59.3 63.6 12.1 35.4 23.6 71.6 34.1 108.7 0 0-7-36.7-25.1-98.6 17.6 19.8 35.4 40.1 53.5 61.6 0 0-20.1-26.8-55.7-68.9-4.8-16-10.2-33.6-16.5-52.5 42.4 58.2 71.6 92.7 71.6 92.7-27.6-36.7-52.9-72.3-76.3-106.8-2.6-7.7-5.4-15.7-8.3-23.9 6.8-5.6 13-11.3 18.6-17.1 32.1 45.1 64.1 92.5 95.8 142.6 0 0-28.3-62.1-84.2-156 3.7-4.7 7-9.3 10-14 48.4 132 100.7 211.3 100.7 211.3-37.4-69.5-66.8-138.9-89.7-207 16.5 18.1 32 34.4 46.4 49 27.8 66.3 51.5 109.6 51.5 109.6-17.2-36.1-32-70.3-44.7-102.7 52.6 53.1 86.8 80.7 86.8 80.7-32.4-31.4-63.2-63.3-92.5-95.6-13.8-36.3-25-70.2-33.9-101.7 1.9-7.5 3.1-14 3.9-19.3 105.7 153 200.1 237.2 200.1 237.2-90.1-96.1-163.3-196.4-222.9-296.8-31.8-166.3 3.1-246 3.1-246zm-69.1 406.3c-1.1-1.7-2.1-3.3-3.1-4.9 1.1-.9 2.2-1.7 3.3-2.6.7 1.8 1.5 3.5 2.2 5.3-.8.7-1.7 1.5-2.4 2.2zm-34.7 15.2c9.7-5.1 18.6-10.7 26.6-16.5 1.2 1.7 2.4 3.5 3.5 5.2-8.6 7.5-16.7 13.8-23.2 18.7-2.2-2.4-4.5-4.9-6.9-7.4zm16.3-44.3l-.6-.9c2.5-2 5-4 7.3-6 .1.1.1.3.2.4-2.3 2.3-4.7 4.5-6.9 6.5zm-148.8-289.7c-4.8-12.3-9.3-24.3-13.5-36.1 16.4 25.6 32.6 51.8 48.3 78.8-11.3-14.1-22.9-28.4-34.8-42.7zm102 131.1c24.1 32.8 47.9 63.1 70.7 90.8-1.6 2-3.1 4-4.7 5.9-19.7-30.2-41.5-62.3-65.4-95.5-.3-.4-.5-.8-.6-1.2zm82 121.7c2.4-3.1 4.6-6.3 6.6-9.4.2.2.3.4.5.6-2.3 3-4.7 5.9-7.1 8.8zm12.8-19.3c2.5-4.3 4.7-8.5 6.7-12.6.4 1.2.7 2.3 1.1 3.5-2.2 3.5-4.5 6.9-6.8 10.3-.4-.5-.7-.8-1-1.2zm28.2-62.2c.6 2.2 1.1 4.4 1.7 6.5-2.6 8.1-5.9 15.9-9.5 23.4-1.2-1.9-2.4-3.7-3.7-5.6 4-12.6 6-23.5 7-31.2 1.6 2.3 3 4.6 4.5 6.9zm-12 25.8c1.6 1.9 2.9 3.4 3.9 4.6-1.4 2.9-2.8 5.9-4.3 8.7-.6-2.3-1.2-4.6-1.8-7 .8-2.1 1.6-4.2 2.2-6.3zm8.4 45.2c6.5-14 10.4-27.1 12.8-37.8 1.8 6.2 3.7 12.4 5.6 18.5-4.5 10.2-9.8 19.9-15.5 29.2-1-3.3-2-6.6-2.9-9.9zm-10.1-92.8c-2.3 7.7-5 15.1-8.2 22.3-4.2-18.3-8.1-36.6-11.5-54.6 6.5 11.1 13.1 21.8 19.7 32.3zm-213.7-531.7c35.6 178.4 100.5 332.7 170.6 458.6 4.6 25.1 9.9 49.3 15.6 72.6-122.4-196.2-193.5-374-233.2-526.7 13.6-2.8 29.4-4.3 47-4.5zm-67.7 82.3c78.1 220.3 201 392.9 258.2 466.2 2 7.8 4.1 15.5 6.2 23.1-4.4 7.9-9.3 15.4-14.3 22.5-96.8-125.9-172.7-255-232.3-380.9-11.9-54.2-16.6-98-17.8-130.9zm.3 180.5c7.9 22.9 16.4 45.6 25.6 68-5.9-6.6-11.8-13.2-17.8-19.8-35.1-53-73.1-114.4-111.1-182.8 35 42.3 69.6 87.2 103.3 134.6zm128.9 250.7c21.1 24.9 42.1 50.7 63.2 77.5 7.1 15.1 14.1 30.5 21 46-3.4 3.4-6.8 6.5-10.1 9.6-28.4-46.8-53-91.1-74.1-133.1zm83.5 161.7c.3.4.6.9.9 1.3-9.5 8.3-18.3 15.2-25.3 20.3-.9-1.6-1.8-3.3-2.6-4.9 9.9-5.2 18.8-10.8 27-16.7zm64.7 124.2c-14.8-17.3-31.9-36.6-50.9-57.5 8.1-4.5 15.4-9.2 22.3-14.1 1.7 2.5 3.4 4.9 5.1 7.3 8.1 21.1 15.9 42.6 23.5 64.3zm-30-107.8c-.6-1.7-1.2-3.3-1.8-5 3.9-3.5 7.6-7.1 11-10.7.9 1.2 1.8 2.4 2.7 3.7-4 4.2-8 8.2-11.9 12zm22.5-31.3c3.4-4.4 6.5-8.9 9.3-13.3 1.2 1.4 2.5 2.9 3.7 4.3-3.4 4.6-6.9 9-10.4 13.2-.8-1.3-1.7-2.7-2.6-4.2zm78.4 52.1c-14.6-16.3-28.8-32.6-42.6-49.1 5.7-10.6 10-20.9 13.2-30.3 9.6 28.4 19.6 55.2 29.4 79.4zm-33.2-120.8c-1-4.1-2-8.1-3-12 1.6 2.3 3.1 4.6 4.7 6.9-.5 1.7-1.1 3.4-1.7 5.1z"/></svg>