<svg xmlns:xlink="http://www.w3.org/1999/xlink"  xmlns="http://www.w3.org/2000/svg" viewBox="0 0 2000 2000"><path fill="#00B8A8" d="M1229.2 566.5c132-161 0-431.3 0-431.3s6 46-198 281.8-24 414.1-24 414.1 90-103.5 222-264.6z"/><path fill="#FFAF3A" d="M662.7 520.6C658 832.3 910.5 853.2 910.5 853.2s2.4-137.1 0-345.3C908 299.7 633.2 177.4 633.2 177.4s34.2 31.4 29.5 343.2z"/><path fill="#CF7046" d="M446.9 836.8c196.8 241.8 403.6 95.5 403.6 95.5s-86.3-106.6-222-264.5-424.8-74.9-424.8-74.9 46.4 2.1 243.2 243.9z"/><path fill="#FF5D60" d="M855.5 1031.5s-134.6-26.2-340.1-59.9c-205.4-33.8-373.5 215.7-373.5 215.7s36.8-28.2 343 30.5c306.2 58.6 370.6-186.3 370.6-186.3z"/><path fill="#B85856" d="M923.1 1104.2s-120 66.5-299.1 172.7c-179.1 106.2-147.5 405.3-147.5 405.3s10.1-45.3 282.4-197.1 164.2-380.9 164.2-380.9z"/><path fill="#008CA7" d="M1021.5 1116.5s-49.2 128-118.1 324.5c-68.9 196.5 147.5 405.3 147.5 405.3s-21.4-41.2 89.6-332.5c111.1-291.3-119-397.3-119-397.3z"/><path fill="#6CAB36" d="M1451.5 1290.5c-102.2-294.6-346.6-227.8-346.6-227.8s44.7 129.7 118.1 324.5c73.5 194.8 373.5 215.7 373.5 215.7s-42.8-17.9-145-312.4z"/><path fill="#97A822" d="M1134.1 967.8s117.6 70.6 299.1 172.6c181.5 102 424.8-74.9 424.8-74.9s-44.3 13.9-311.9-146c-267.7-159.9-412 48.3-412 48.3z"/><path fill="#718F40" d="M1095.5 876.3s135.5-21.5 340.1-60c204.6-38.5 277.3-330.4 277.3-330.4s-25 39.1-332.8 88.6c-307.8 49.6-284.6 301.8-284.6 301.8z"/></svg>