<svg xmlns:xlink="http://www.w3.org/1999/xlink"  xmlns="http://www.w3.org/2000/svg" width="100" height="100" viewBox="0 0 100 100"><radialGradient id="a" cx="29.568" cy="54.258" r="55.231" gradientUnits="userSpaceOnUse"><stop offset="0" stop-color="#00a69c"/><stop offset="1" stop-color="#00423d"/></radialGradient><path fill="url(#a)" d="M34.354 48.873c4.788-1.041 9.693-1.624 14.598-1.44 3.596.2 7.25.497 10.668 1.737 3.613 1.258 6.803 3.574 9.308 6.442 3.63.933 7.02 3.1 9.083 6.271.955 1.396 1.412 3.031 2.029 4.581.836 2.476.778 5.189.15 7.705 5.401 1.915 10.541 4.58 15.252 7.839.406.291.834.577 1.178.954a149.09 149.09 0 0 0-16.785-7.724c-.046.114-.138.332-.183.44-.457.051-.915.114-1.372.183-.052 1.041-.383 2.104-1.144 2.842-1.224 1.298-3.121 1.646-4.825 1.68-1.224.029-2.195-.896-2.801-1.862-.298-.412-.4-.933-.71-1.327-3.315.44-6.631.926-9.946 1.373a15.053 15.053 0 0 1-6.038-.39c-.034 1.201-.435 2.464-1.4 3.236-1.377 1.08-3.196 1.47-4.922 1.417-.863-.097-1.818.04-2.549-.531-1.722-1.229-2.31-3.424-2.516-5.419-4.454-.767-8.919-1.481-13.361-2.299-.144.903-.369 1.869-1.064 2.521-.494.445-1.094.754-1.717.983a57.764 57.764 0 0 1 10.582 4.476c2.547 1.43 5 3.07 7.098 5.123.171.149.268.359.366.56-5.792-4.327-12.372-7.518-19.212-9.804-1.049.045-2.113.058-3.159-.097-.755-.235-1.286-.842-1.769-1.436-4.242-1.081-8.536-2.019-12.889-2.515-.641-.053-1.274-.207-1.92-.154a.766.766 0 0 1 .4-.115c4.736.463 9.476 1.074 14.101 2.212-.518-1.08-.727-2.269-.78-3.459-3.102-.382-6.234-.256-9.348-.24 2.894-.428 5.821-.531 8.724-.862.124-1.446.307-2.928.91-4.259.303-.686.946-1.378 1.772-1.235 1.066.184 1.815 1.057 2.516 1.813 1.343 1.605 2.438 3.418 3.39 5.282 4.874.549 9.75 1.108 14.63 1.658-.035-2.368-.069-4.9 1.109-7.037.578-1.138 1.886-1.898 3.173-1.646 1.881.342 3.379 1.708 4.534 3.154 1.148 1.367 1.657 3.179 2.966 4.425 1.665 1.739 4.18 2.447 6.541 2.224 6.077-.868 12.16-1.726 18.249-2.52.474-.933.748-1.962.886-2.991.171-1.594.234-3.236-.217-4.79-.63-2.452-2.128-4.665-4.151-6.192-1.691-1.279-3.692-2.165-5.768-2.617-.338-.035-.51-.349-.721-.561-4.174-4.625-10.147-7.758-16.425-7.97-6.478-.383-12.989.291-19.321 1.664-6.9 1.509-13.64 3.807-19.998 6.889-.083.018-.251.057-.337.074 7.344-3.664 15.122-6.489 23.135-8.266zM19.255 67.47c-.752 1.138-.949 2.591-.924 3.929.117-1.075.601-2.139 1.453-2.824.472-.4 1.106-.452 1.678-.619-.526-.589-1.558-1.304-2.207-.486zm23.911.589c-.72.389-.926 1.27-1.132 1.995-.458 1.669-.303 3.426-.657 5.105.086-.143.188-.273.28-.412.045-.987.515-1.938 1.109-2.721.892-1.189 2.515-1.28 3.871-1.435-.624-.84-1.264-1.709-2.144-2.304-.378-.251-.892-.491-1.327-.228zm-21.99 1.607c-.495.177-1.021.388-1.3.862-.949 1.481-.875 3.454-.075 4.979.346.646.938 1.234 1.707 1.292.558-.016 1.069-.342 1.358-.817 1.006-1.572.898-3.732-.117-5.276-.329-.584-.95-.881-1.573-1.04zm23.099 3.27c-.811.458-1.263 1.349-1.468 2.235-.349 1.566-.12 3.304.794 4.648.412.564 1.029 1.114 1.772 1.069.744.005 1.338-.562 1.675-1.173.852-1.571.812-3.545.074-5.156-.445-1.069-1.606-2.202-2.847-1.623z"/><radialGradient id="b" cx="29.568" cy="54.261" r="55.23" gradientUnits="userSpaceOnUse"><stop offset="0" stop-color="#00a69c"/><stop offset="1" stop-color="#00423d"/></radialGradient><path fill="url(#b)" d="M36.451 50.857c5.664-.681 11.346-1.401 17.063-1.361 2.596-.023 5.043 1.068 7.216 2.396 2.441 1.485 4.602 3.379 6.58 5.425-6.854.738-13.728 1.332-20.599 1.865-1.732.119-3.71-.093-4.962-1.436-1.705-2.345-3.596-4.546-5.298-6.889z"/><radialGradient id="c" cx="29.568" cy="54.259" r="55.233" gradientUnits="userSpaceOnUse"><stop offset="0" stop-color="#00a69c"/><stop offset="1" stop-color="#00423d"/></radialGradient><path fill="url(#c)" d="M31.838 51.897c1.104-.354 2.333-.681 3.45-.2 1.429.628 2.378 1.944 3.247 3.189 1.086 1.612 2.07 3.351 2.476 5.271-2.086.537-4.268.018-6.269-.624-1.021-.302-1.715-1.206-2.099-2.16-.702-1.726-.844-3.63-.805-5.476z"/><radialGradient id="d" cx="29.569" cy="54.256" r="55.236" gradientUnits="userSpaceOnUse"><stop offset="0" stop-color="#00a69c"/><stop offset="1" stop-color="#00423d"/></radialGradient><path fill="url(#d)" d="M23.385 54.219c2.019-.771 4.097-1.481 6.257-1.739.44-.073.869.068 1.258.27.026 1.344-.157 2.681-.146 4.025-.046.891-.24 1.857-.877 2.526-.346.372-.889.4-1.361.469-2.607.27-5.217.531-7.83.732-.243-.149-.488-.355-.511-.664-.146-.767.02-1.549.088-2.314.097-.526.015-1.127.395-1.556.693-.863 1.742-1.31 2.727-1.749z"/><radialGradient id="e" cx="29.565" cy="54.263" r="55.204" gradientUnits="userSpaceOnUse"><stop offset="0" stop-color="#00a69c"/><stop offset="1" stop-color="#00423d"/></radialGradient><path fill="url(#e)" d="M17.392 56.979c.597-.159 1.189-.359 1.803-.452-.943.516-1.995.801-3.001 1.166-2.973.973-5.942 1.967-8.958 2.773.517-.315 1.114-.475 1.678-.692 2.675-.954 5.36-1.885 8.096-2.652.042-.063.125-.2.168-.262.053.029.159.09.214.119z"/><radialGradient id="f" cx="29.565" cy="54.255" r="55.232" gradientUnits="userSpaceOnUse"><stop offset="0" stop-color="#00a69c"/><stop offset="1" stop-color="#00423d"/></radialGradient><path fill="url(#f)" d="M71.545 58.849c1.48 1.109 2.79 2.471 3.773 4.031.646 1.12 1.144 2.48.755 3.772-.144.43-.309.983-.834 1.041-4.295 1.063-8.616 2.047-13.001 2.636-1.704.17-3.453.445-5.135-.028-2.526-.728-4.732-2.235-6.803-3.825-1.669-1.36-3.361-2.738-4.779-4.373 3.522 2.469 7.056 5.024 11.091 6.585.595.195 1.195.476 1.835.435 4.134-.382 8.284-.755 12.35-1.63 1.172-.291 2.4-.531 3.424-1.199.721-.595.744-1.671.538-2.516-.532-1.938-1.95-3.425-3.214-4.929z"/><radialGradient id="g" cx="29.571" cy="54.26" r="55.234" gradientUnits="userSpaceOnUse"><stop offset="0" stop-color="#00a69c"/><stop offset="1" stop-color="#00423d"/></radialGradient><path fill="url(#g)" d="M13.687 63.445c.723-.137 1.435-.349 2.172-.399-.644.337-1.372.438-2.056.65-3.367.829-6.751 1.618-10.162 2.253.54-.286 1.155-.389 1.732-.566 2.756-.719 5.533-1.343 8.314-1.938z"/><radialGradient id="h" cx="29.564" cy="54.217" r="55.315" gradientUnits="userSpaceOnUse"><stop offset="0" stop-color="#00a69c"/><stop offset="1" stop-color="#00423d"/></radialGradient><path fill="url(#h)" d="M10.454 68.002c1.855-.274 3.71-.664 5.585-.75-2.447.63-4.991.857-7.494 1.208.588-.315 1.272-.321 1.909-.458z"/><radialGradient id="i" cx="29.557" cy="54.265" r="55.24" gradientUnits="userSpaceOnUse"><stop offset="0" stop-color="#00a69c"/><stop offset="1" stop-color="#00423d"/></radialGradient><path fill="url(#i)" d="M74.609 69.146a2.62 2.62 0 0 1 .87-.194c-4.466 2.692-9.856 3.693-15.014 3.047-.206-.063-.479-.011-.629-.165 3.419-.333 6.814-.841 10.188-1.493 1.544-.327 3.1-.647 4.585-1.195z"/><radialGradient id="j" cx="29.577" cy="54.274" r="55.211" gradientUnits="userSpaceOnUse"><stop offset="0" stop-color="#00a69c"/><stop offset="1" stop-color="#00423d"/></radialGradient><path fill="url(#j)" d="M62.633 73.541c4.099-.577 8.261-.994 12.194-2.36-.298.246-.641.417-.995.571-2.332 1.04-4.848 1.659-7.397 1.875-1.258.075-2.516-.011-3.773.051-.012-.033-.023-.102-.029-.137z"/><g><radialGradient id="k" cx="31.601" cy="33.774" r="31.965" gradientUnits="userSpaceOnUse"><stop offset="0" stop-color="#fff23a"/><stop offset=".04" stop-color="#fee62d"/><stop offset=".117" stop-color="#fed41a"/><stop offset=".196" stop-color="#fdc90f"/><stop offset=".281" stop-color="#fdc60b"/><stop offset=".668" stop-color="#f28f3f"/><stop offset=".888" stop-color="#ed693c"/><stop offset="1" stop-color="#e83e39"/></radialGradient><path fill="url(#k)" d="M29.254 26.211c-.397-1.012-.952-1.95-1.407-2.938-1.568-3.042-2.987-6.157-4.604-9.165 1.138 4.35 2.257 8.708 3.393 13.058.846-.395 1.752-.612 2.618-.955z"/><radialGradient id="l" cx="31.594" cy="33.776" r="31.976" gradientUnits="userSpaceOnUse"><stop offset="0" stop-color="#fff23a"/><stop offset=".04" stop-color="#fee62d"/><stop offset=".117" stop-color="#fed41a"/><stop offset=".196" stop-color="#fdc90f"/><stop offset=".281" stop-color="#fdc60b"/><stop offset=".668" stop-color="#f28f3f"/><stop offset=".888" stop-color="#ed693c"/><stop offset="1" stop-color="#e83e39"/></radialGradient><path fill="url(#l)" d="M50.953 22.724c.257-.709.531-1.418.657-2.167-.989 1.835-2.11 3.579-3.156 5.38-.246.412-.554.806-.601 1.303.452.172.892.372 1.327.588.606-1.697 1.173-3.407 1.773-5.104z"/><radialGradient id="m" cx="31.604" cy="33.773" r="31.964" gradientUnits="userSpaceOnUse"><stop offset="0" stop-color="#fff23a"/><stop offset=".04" stop-color="#fee62d"/><stop offset=".117" stop-color="#fed41a"/><stop offset=".196" stop-color="#fdc90f"/><stop offset=".281" stop-color="#fdc60b"/><stop offset=".668" stop-color="#f28f3f"/><stop offset=".888" stop-color="#ed693c"/><stop offset="1" stop-color="#e83e39"/></radialGradient><path fill="url(#m)" d="M51.896 32.551l.018-.069c-1.27-.869-2.572-1.692-3.95-2.367-4.922-2.418-10.651-3.229-16.036-2.218-6.16 1.029-11.895 4.459-15.719 9.393-3.967 4.945-5.888 11.451-5.322 17.763.884-.561 1.824-1.029 2.735-1.543-.097-3.351.583-6.729 2.016-9.765 2.609-5.654 7.732-10.068 13.701-11.846a21.491 21.491 0 0 1 6.734-.909c7.112.022 14.058 3.79 18.048 9.662.423.789 1.058 1.424 1.578 2.144.72.978 1.303 2.047 1.853 3.127.405.343.96.44 1.429.674.949.383 1.818.949 2.778 1.321-1.236-6.095-4.78-11.753-9.863-15.367z"/><radialGradient id="n" cx="31.604" cy="33.773" r="31.96" gradientUnits="userSpaceOnUse"><stop offset="0" stop-color="#fff23a"/><stop offset=".04" stop-color="#fee62d"/><stop offset=".117" stop-color="#fed41a"/><stop offset=".196" stop-color="#fdc90f"/><stop offset=".281" stop-color="#fdc60b"/><stop offset=".668" stop-color="#f28f3f"/><stop offset=".888" stop-color="#ed693c"/><stop offset="1" stop-color="#e83e39"/></radialGradient><path fill="url(#n)" d="M26.493 39.806c.005-.029.026-.075.032-.104 1.143-.789 2.247-1.652 3.51-2.252 3.648-1.842 7.884-2.499 11.909-1.795 3.625.594 7.032 2.304 9.719 4.791-2.739-3.533-6.873-5.888-11.223-6.797-4.119-.869-8.499-.383-12.343 1.332-3.147 1.407-5.94 3.625-7.972 6.42-2.227 3.087-3.63 6.832-3.719 10.656 1.236-.549 2.461-1.126 3.725-1.618a18.747 18.747 0 0 1 6.362-10.633z"/><radialGradient id="o" cx="31.595" cy="33.773" r="31.953" gradientUnits="userSpaceOnUse"><stop offset="0" stop-color="#fff23a"/><stop offset=".04" stop-color="#fee62d"/><stop offset=".117" stop-color="#fed41a"/><stop offset=".196" stop-color="#fdc90f"/><stop offset=".281" stop-color="#fdc60b"/><stop offset=".668" stop-color="#f28f3f"/><stop offset=".888" stop-color="#ed693c"/><stop offset="1" stop-color="#e83e39"/></radialGradient><path fill="url(#o)" d="M13.141 39.703c-2.21-.664-4.359-1.526-6.583-2.149.743.565 1.601.955 2.401 1.441 1.224.663 2.358 1.509 3.65 2.041.203-.436.392-.876.532-1.333z"/><radialGradient id="p" cx="31.618" cy="33.768" r="31.953" gradientUnits="userSpaceOnUse"><stop offset="0" stop-color="#fff23a"/><stop offset=".04" stop-color="#fee62d"/><stop offset=".117" stop-color="#fed41a"/><stop offset=".196" stop-color="#fdc90f"/><stop offset=".281" stop-color="#fdc60b"/><stop offset=".668" stop-color="#f28f3f"/><stop offset=".888" stop-color="#ed693c"/><stop offset="1" stop-color="#e83e39"/></radialGradient><path fill="url(#p)" d="M71.317 38.737c-3.145.766-6.272 1.606-9.411 2.367.309.847.629 1.687.881 2.555.538-.08.983-.388 1.464-.612 2.298-1.104 4.573-2.257 6.883-3.332 1.274-.601 2.504-1.298 3.818-1.807-1.245.097-2.424.56-3.635.829z"/><radialGradient id="q" cx="31.603" cy="33.772" r="31.963" gradientUnits="userSpaceOnUse"><stop offset="0" stop-color="#fff23a"/><stop offset=".04" stop-color="#fee62d"/><stop offset=".117" stop-color="#fed41a"/><stop offset=".196" stop-color="#fdc90f"/><stop offset=".281" stop-color="#fdc60b"/><stop offset=".668" stop-color="#f28f3f"/><stop offset=".888" stop-color="#ed693c"/><stop offset="1" stop-color="#e83e39"/></radialGradient><path fill="url(#q)" d="M51.805 41.446c-3.253-3.27-7.878-5.163-12.503-5.036-3.69-.034-7.323 1.274-10.285 3.447-.986.834-1.998 1.652-2.801 2.676-1.584 1.92-2.933 4.15-3.416 6.614.506-.177 1.006-.372 1.509-.561 1.129-2.532 3.036-4.711 5.339-6.243l-.006-.011a15.701 15.701 0 0 1 6.397-2.47l.269-.229-.012.206c4.274-.589 8.785.709 12.038 3.55.355.309.675.76 1.195.788.721.092 1.44.217 2.167.298l.028.046c1.007.166 1.978.497 2.979.703-.8-1.377-1.738-2.68-2.898-3.778z"/><radialGradient id="r" cx="31.604" cy="33.773" r="31.959" gradientUnits="userSpaceOnUse"><stop offset="0" stop-color="#fff23a"/><stop offset=".04" stop-color="#fee62d"/><stop offset=".117" stop-color="#fed41a"/><stop offset=".196" stop-color="#fdc90f"/><stop offset=".281" stop-color="#fdc60b"/><stop offset=".668" stop-color="#f28f3f"/><stop offset=".888" stop-color="#ed693c"/><stop offset="1" stop-color="#e83e39"/></radialGradient><path fill="url(#r)" d="M36.483 40.509c-3.393.514-6.561 2.27-8.855 4.813-.649.857-1.455 1.675-1.795 2.704.792-.246 1.572-.526 2.364-.772a81.2 81.2 0 0 1 7.337-1.903c4.339-.892 8.776-1.612 13.218-1.241-3.225-3.035-7.929-4.264-12.269-3.601z"/></g></svg>