<svg xmlns:xlink="http://www.w3.org/1999/xlink"  version="1" xmlns="http://www.w3.org/2000/svg" viewBox="0 0 150 150"><radialGradient id="a" cx="83.964" cy="-13.691" r="113.71" gradientUnits="userSpaceOnUse"><stop offset="0" stop-color="#fff"/><stop offset=".02" stop-color="#fcd7d8"/><stop offset=".045" stop-color="#f8abae"/><stop offset=".073" stop-color="#f58589"/><stop offset=".102" stop-color="#f2646a"/><stop offset=".133" stop-color="#f04a50"/><stop offset=".167" stop-color="#ee353c"/><stop offset=".205" stop-color="#ed272f"/><stop offset=".251" stop-color="#ec1f26"/><stop offset=".327" stop-color="#ec1c24"/><stop offset=".355" stop-color="#e31b23"/><stop offset=".508" stop-color="#b81620"/><stop offset=".627" stop-color="#9d121e"/><stop offset=".697" stop-color="#93111d"/><stop offset=".982" stop-color="#6e0008"/></radialGradient><path fill="url(#a)" d="M54.5 60.6L74 47.7v29.9c6.7-2.4 13.8-5.5 21-9.1V47.7L112.2 59c6.3-3.9 12.2-7.9 17.6-12l-36-24H74.9L34.8 50.2V82c2.1 1.4 5.4 2.2 9.7 2.2 3 0 6.4-.3 10.1-1V60.6z"/><radialGradient id="b" cx="87.02" cy="-46.637" r="181.071" gradientUnits="userSpaceOnUse"><stop offset="0" stop-color="#e5e2df"/><stop offset="0" stop-color="#f1efee"/><stop offset="0" stop-color="#fff"/><stop offset=".125" stop-color="#f0f1f1"/><stop offset=".363" stop-color="#c9cbcc"/><stop offset=".522" stop-color="#acaeb0"/><stop offset=".603" stop-color="#a2a5a7"/><stop offset=".738" stop-color="#888d90"/><stop offset=".911" stop-color="#5e6769"/><stop offset="1" stop-color="#455053"/></radialGradient><path fill="url(#b)" d="M115.6 69.9c-.4.3-.7.7-1.1 1v21.6L95 104.9V84.1c-5 3.3-10.3 5.8-15.8 8.8-1.7 1-3.5 1.6-5.2 2.5v9.4l-9.5-6.1c-9.6 4.7-20.6 7.3-29.1 9.8L74.9 135h18.9l40.1-27.1V56.4"/><radialGradient id="c" cx="87.019" cy="-46.626" r="181.059" gradientUnits="userSpaceOnUse"><stop offset="0" stop-color="#e5e2df"/><stop offset="0" stop-color="#f1efee"/><stop offset="0" stop-color="#fff"/><stop offset=".125" stop-color="#f0f1f1"/><stop offset=".363" stop-color="#c9cbcc"/><stop offset=".522" stop-color="#acaeb0"/><stop offset=".603" stop-color="#a2a5a7"/><stop offset=".738" stop-color="#888d90"/><stop offset=".911" stop-color="#5e6769"/><stop offset="1" stop-color="#455053"/></radialGradient><path fill="url(#c)" d="M85.8 88.5c-35.1 17.6-68.4 22.3-74.4 10.4-1.4-2.9-1.1-6.5.6-10.5-6.2 7.2-8.8 13.5-6.7 17.8 5.4 10.7 38.2 5.2 73.3-12.5 14.9-7.5 27.7-15.9 37.2-23.9-8.3 6.5-18.5 12.9-30 18.7z"/><path fill="#231F20" d="M144.3 40.1c-9.2 8.4-25.3 17.9-39.8 26-34.3 19.1-66.8 26.1-72.6 15.7-1.9-3.4-.7-8.1 2.8-13.7v-4C20.6 76.5 13.4 88.2 17 95c6.1 11.4 40.2 4.9 76.1-14.4 22.1-11.8 42.3-28.8 51.2-40.5-.5-.7.1 1 0 0z"/></svg>