<svg xmlns:xlink="http://www.w3.org/1999/xlink"  version="1" xmlns="http://www.w3.org/2000/svg" viewBox="0 0 150 150"><path fill="#EC1C24" d="M118.6 46c.2-.1.5-.2 1-.3.6-.1 1.4-.2 2.5 0 1 .1 2.1.4 3.3 1-.3-.1-.5-.1-.6-.1-.9 0-1.7.1-2.6.3-1.5.4-2.8 1-3.7 2-1.2 1.3-1.9 3.1-1.9 5.5.1.4.5 1.3 1.2 2.7.7 1.4 1.1 2.4 1.3 3.2.2.7.2 1.3.1 1.9-.1.6-.3 1.1-.7 1.6-.4.5-1.4 1.6-3.1 3.4-1.5 1.7-2.1 3.1-1.9 4 .1.3.2.6.5.8.7.7 1.4 1.1 2.1 1.3.6.2 1.3.2 1.9.1 1.1-.3 2.1-1.1 3-2.6.3-.5.6-1.2 1-2.1.1.2.3.4.5.8l.3 1.2c.6 2.4-1 4.8-4.6 7.2-3.6 2.4-5.2 4.5-4.7 6.4.2.8.7 1.4 1.4 1.6.7.2 1.6.2 2.6 0 .9-.2 1.8-.6 2.8-1.1 1.5-.9 2.3-1.7 2.7-2.5.3-.8.5-2.6.5-5.2.2.3.4.8.6 1.3.2.5.5 1.3.7 2.4.1.3.1.7.2 1.2.1.6.2 1.1.3 1.6-.2 1.1-.4 2-.6 2.6-.6 1.8-1.5 3-2.8 3.6-.4.4-.8.7-1.3.9-1.4.7-3.7 1.4-6.9 2.1-.8.3-1.4.5-1.8.7-1.1.6-1.7 1.5-1.8 2.6-.1.2 0 .5 0 .9.1.6.6 1.1 1.3 1.3.2 0 .6.1 1 .1.5.2 1.3.2 2.4 0 1.1-.3 2.5-.8 4.3-1.7.5-.3 1.2-.6 2.1-1.1-1.2 2-3.3 4-6.3 6.1-3.4 2.4-6.9 4-10.5 4.8-.2 0-.4.1-.9.2l-1.2.3c.5.3 1 .5 1.6.6 1.7.2 4.3-.2 7.9-1-4.4 2.2-8.6 3.8-12.6 4.7-6.8 1.6-12.7 1.4-17.5-.5-2.2-.9-4-2.5-5.5-4.6-1.5-2.2-2.5-4.8-3.3-7.9-.6-2.5-.9-5.1-.8-7.8 0-2.7.4-5.2 1-7.5 0 .6.1 1.3.2 2.1.1.7.3 1.5.5 2.4.2 1 .5 1.7.7 2.3.2.5.5.8.8.7.3-.1.5-.4.9-1.1 0-1.1 0-1.9-.1-2.5-.1-1.7-.3-2.7-.4-3.2-.7-2.8-.1-5.5 1.7-8.2 1.5-2.3 4.3-4.9 8.4-7.9-1.3 2.1-2.2 3.9-2.6 5.5-.4 1.5-.5 2.8-.3 3.7.2 1 .7 1.7 1.4 2 .7.3 1.5.4 2.4.2.6-.1 1.2-.4 1.7-.8 1.7-1.2 2.5-2.6 2.4-4.2-.2-3-.3-4.9-.1-5.7.5-2.4 3-4.8 7.6-7.4 2.1-.9 4.3-1.8 6.4-2.8-1.7 1.3-3 2.3-3.8 3.1-2.5 2.4-3.5 4.4-3.2 6 .1.3.2.6.3 1 .2.3.4.8.7 1.5.3.6.9.9 1.8.7.6-.1 1.1-.4 1.8-.7 2.2-1.1 3.6-2.7 4.1-4.8.2-1 .8-1.8 1.6-2.5.4-.3.8-.5 1.2-.6.3-.1.8-.1 1.6-.2.7 0 1.4-.1 1.9-.2 1.2-.3 2.4-.9 3.7-1.8.8-.5 1.2-1 1.2-1.4 0-.4 0-.8-.1-1.4-.1-.3-.3-1-.8-2s-.8-1.8-.9-2.4c-.2-1-.2-1.9.2-2.7.3-.9 1.1-1.8 2.3-2.8-.1-.7.1-.8.3-.9z"/><path fill="#EC1C24" d="M34.4 44.4C97.6-2.5 147.1 51 147.1 51c-47.3-33.1-86.9-5.9-86.9-5.9-11.7 6.1-20 14.7-25.9 23.6L27 63.9l6.7 5.8C20.5 90.4 20.1 113 20.1 113l-17.3-2C1.4 69.6 34.4 44.4 34.4 44.4z"/><path fill="#999" d="M84.8 102.1l-5.9-3.9c.6-.4 1.3-.7 2.1-.9 5.1-1.5 10.5 1.4 12.1 6.6 1.5 5.1-1.4 10.5-6.6 12.1-5.1 1.5-10.5-1.4-12.1-6.6-.5-1.6-.5-3.1-.2-4.6l4 3.5c12.7 6.3 6.6-6.2 6.6-6.2z"/><path d="M34.4 68.6l24.3 16.1 17.2 11.4 3.1 2 5.9 3.9s6.1 12.5-6.5 6.1l-4-3.5-4-3.5-16-13.6-20.7-17.9-6.7-5.8 7.4 4.8z"/></svg>