<svg xmlns:xlink="http://www.w3.org/1999/xlink"  xmlns="http://www.w3.org/2000/svg" viewBox="0 0 150 150"><path fill-rule="evenodd" clip-rule="evenodd" fill="#F05922" d="M106.9 76c0-.4.1-.9.1-1.3h37.8V76h-37.9z"/><path fill-rule="evenodd" clip-rule="evenodd" fill="#034A64" d="M83.6 27.2v-8.4c26.1 3.9 47.2 23.8 50.7 49.4h-8.5c-3.5-20.9-20.8-37.3-42.2-41z"/><path fill-rule="evenodd" clip-rule="evenodd" fill="#E63C2F" d="M116 70.4h-6c-2.4-14.6-14.4-26-29.5-28.6v-5.9c18.3 2.7 33 16.7 35.5 34.5zM74 5.3h1.3v38.9c-.5 0-.9 0-1.3.1v-39zM42.6 66.5c-.4 1.3-.7 2.6-1 3.9h-5.8c.3-2.3.8-4.7 1.6-7.2 3.8-11.8 12.8-20.8 24-25.2 2.4-1 5.4-1.2 8.3-1.6v5.8c-2 .3-4 .5-5.7 1.1-10.5 4.1-18 12.1-21.4 23.2z"/><path fill-rule="evenodd" clip-rule="evenodd" fill="#034A64" d="M29.3 62.5c-.6 1.9-1 3.7-1.4 5.6h-8.3c.5-3.4 1.2-6.8 2.3-10.2 5.4-17 18.2-29.8 34.2-36.2 3.5-1.4 7.8-1.7 11.8-2.3v8.3c-2.8.4-5.7.6-8.1 1.6-14.9 5.9-25.6 17.3-30.5 33.2z"/><path fill-rule="evenodd" clip-rule="evenodd" fill="#E63C2F" d="M44.7 76h-39v-1.3h38.9c0 .4.1.9.1 1.3z"/><path fill-rule="evenodd" clip-rule="evenodd" fill="#034A64" d="M58.6 122.6c2.5 1.1 5.8 2.2 9.3 3.1v8.6c-5.9-1.1-11.2-3.3-15.2-5.1-15.7-6.9-30.1-23.5-33.1-44.4h8.2c3.3 18.3 17.3 32.2 30.8 37.8z"/><path fill-rule="evenodd" clip-rule="evenodd" fill="#E63C2F" d="M35.9 82.1h5.7c2.3 12.8 12 22.6 21.5 26.5 1.8.7 4 1.6 6.5 2.1v6c-4.1-.8-7.8-2.3-10.6-3.6-11-4.7-21-16.3-23.1-31zM75.3 144.3H74v-37.9c.4 0 .9.1 1.3.1v37.8zM107.4 90.1c1.2-2.7 2-5.4 2.4-8h6c-.5 3.2-1.4 6.4-2.8 9.7-5.6 13.7-16.2 21.6-32.5 24.7v-5.9c13.3-2.6 22.1-9.3 26.9-20.5z"/><path fill-rule="evenodd" clip-rule="evenodd" fill="#034A64" d="M121.9 96.2c1.7-3.9 2.8-7.7 3.5-11.4h8.5c-.7 4.6-2 9.2-4 13.9-8.1 19.6-23.1 30.9-46.4 35.4v-8.5c19-3.9 31.6-13.5 38.4-29.4z"/><path fill="#034A64" d="M104.5 67.3c0-1.3-2.2-2.7-4.2-2.7-1.7 0-2.8 1-3.1 2.1l-4-6.4c-1.3-2.1-4.5-3-16.5-3-11.9 0-15.2.9-16.5 3l-4 6.4c-.3-1.1-1.4-2.1-3.1-2.1-2 0-4.2 1.4-4.2 2.7 0 1.3 2.2 2.1 4.2 2.1h.5l-2.4 2c-.8.8-1.5 2.3-1.5 3.4v8.8c0 .8.4 1.5 1.3 2.1v4.6c0 .8.7 1.5 1.5 1.5h6.4c.8 0 1.5-.7 1.5-1.5v-1.9c4.4.6 10 .9 16.3.9 6.2 0 11.8-.3 16.3-.9v1.9c0 .8.7 1.5 1.5 1.5h6.4c.8 0 1.5-.7 1.5-1.5v-4.6c.8-.6 1.3-1.3 1.3-2.1v-8.8c0-1.1-.7-2.7-1.5-3.4l-2.4-2h.5c2.1-.1 4.2-.8 4.2-2.1zM61.7 61c.8-1.3 3.7-2.2 15.2-2.2 11.4 0 14.3.9 15.2 2.2l3.8 6.8s-4.9 1-19 1-19-1-19-1l3.8-6.8zM63 74.8c-.2 1.8-3.1 2.5-5.6 2.3-2.5-.2-3.7-1.2-3.5-3.1.1-1.3 1.4-2 3.9-1.8 3.6.3 5.3 1.3 5.2 2.6zm24 8.9c-1.8 1.8-18.5 1.8-20.3 0-.6-.6-.6-2.1 0-2.7 1.8-1.8 18.5-1.8 20.3 0 .5.5.5 2.1 0 2.7zm9.3-6.6c-2.5.2-5.5-.4-5.6-2.3-.1-1.3 1.6-2.3 5.2-2.6 2.5-.2 3.8.5 3.9 1.8.1 1.8-1 2.9-3.5 3.1z"/></svg>