<svg xmlns:xlink="http://www.w3.org/1999/xlink"  version="1" xmlns="http://www.w3.org/2000/svg" viewBox="0 0 150 150"><path d="M103.6 128.6l-.8.1-2.8.2c-1.1 1.6-2.3 3-3.8 4.3-1.2.9-2.4 1.6-3.7 2.2-10.9 4.1-23.2.2-35.3-8.6-8.2-5.9-16.3-14-23.7-23.6-5.4-7.2-9.7-14.6-12.9-21.8-1.1-2.6-2.1-5.2-3-7.8C12.2 58.2 11.7 44 21 35.1l.2-.2c-.5.3-1.1.3-1.5.6.4-.3.8-.7 1.1-1 .4-.3.9-.4 1.3-.7.3-.3.6-.8.9-1l1.2-.9c-.4.3-.6.9-.9 1.3.8-.5 1.6-1.1 2.4-1.5 5.8-2.2 12-1.8 18.3.1.6-.4 1.1-.7 1.7-1.1.4-.3.9-.6 1.3-.8-11.7-5.9-22.4-7.1-29.3-1.8-14.3 11-7.3 44.7 15.5 75.3 22.9 30.6 53 46.5 67.2 35.5 3.6-2.8 5.8-7 6.8-12.2-.9.5-2 1.1-2.8 1.5l-.8.4z"/><path d="M20.8 34.6c-.4.3-.8.6-1.1 1 .5-.3 1-.4 1.5-.6.3-.3.5-.7.9-1-.5.2-1 .2-1.3.6z"/><radialGradient id="a" cx="-2553.672" cy="647.317" r="84.186" gradientTransform="matrix(.6186 .8289 -.7939 .6107 2177.331 1801.902)" gradientUnits="userSpaceOnUse"><stop offset="0" stop-color="#fff"/><stop offset="1" stop-color="#231f20"/></radialGradient><path fill="url(#a)" d="M20.8 34.6c-.4.3-.8.6-1.1 1 .5-.3 1-.4 1.5-.6.3-.3.5-.7.9-1-.5.2-1 .2-1.3.6z"/><radialGradient id="b" cx="-2690.681" cy="629.028" r="55.288" gradientTransform="matrix(.57 .7638 -.7939 .6107 2121.729 1727.583)" gradientUnits="userSpaceOnUse"><stop offset="0" stop-color="#fff"/><stop offset="1" stop-color="#fff"/></radialGradient><path fill="url(#b)" d="M20.8 34.6c-.4.3-.8.6-1.1 1 .5-.3 1-.4 1.5-.6.3-.3.5-.7.9-1-.5.2-1 .2-1.3.6z"/><path d="M23 32.8c-.4.3-.6.7-.9 1 .2-.1.5-.2.7-.3.2-.1.4-.2.5-.3.4-.4.6-.9.9-1.3-.4.4-.8.6-1.2.9z"/><radialGradient id="c" cx="-2552.096" cy="647.705" r="85.665" gradientTransform="matrix(.6186 .8289 -.7939 .6107 2177.331 1801.902)" gradientUnits="userSpaceOnUse"><stop offset="0" stop-color="#fff"/><stop offset="1" stop-color="#231f20"/></radialGradient><path fill="url(#c)" d="M23 32.8c-.4.3-.6.7-.9 1 .2-.1.5-.2.7-.3.2-.1.4-.2.5-.3.4-.4.6-.9.9-1.3-.4.4-.8.6-1.2.9z"/><radialGradient id="d" cx="767.268" cy="-4504.747" r="56.309" gradientTransform="matrix(-.57 -.7638 .7939 -.6107 4042.223 -2056.35)" gradientUnits="userSpaceOnUse"><stop offset="0" stop-color="#fff"/><stop offset="1" stop-color="#fff"/></radialGradient><path fill="url(#d)" d="M23 32.8c-.4.3-.6.7-.9 1 .2-.1.5-.2.7-.3.2-.1.4-.2.5-.3.4-.4.6-.9.9-1.3-.4.4-.8.6-1.2.9z"/><path d="M22.7 33.5c-.2.1-.5.2-.7.3-.3.3-.6.7-.9 1 .3-.3.5-.6.8-.9.3-.1.6-.2.8-.4z"/><radialGradient id="e" cx="-2549.757" cy="647.667" r="88.201" gradientTransform="matrix(.6186 .8289 -.7939 .6107 2177.331 1801.902)" gradientUnits="userSpaceOnUse"><stop offset="0" stop-color="#fff"/><stop offset="1" stop-color="#231f20"/></radialGradient><path fill="url(#e)" d="M22.7 33.5c-.2.1-.5.2-.7.3-.3.3-.6.7-.9 1 .3-.3.5-.6.8-.9.3-.1.6-.2.8-.4z"/><radialGradient id="f" cx="-2688.421" cy="629.394" r="56.533" gradientTransform="matrix(.57 .7638 -.7939 .6107 2121.729 1727.583)" gradientUnits="userSpaceOnUse"><stop offset="0" stop-color="#fff"/><stop offset="1" stop-color="#fff"/></radialGradient><path fill="url(#f)" d="M22.7 33.5c-.2.1-.5.2-.7.3-.3.3-.6.7-.9 1 .3-.3.5-.6.8-.9.3-.1.6-.2.8-.4z"/><radialGradient id="g" cx="766.878" cy="-4504.73" r="56.559" gradientTransform="matrix(-.57 -.7638 .7939 -.6107 4042.223 -2056.35)" gradientUnits="userSpaceOnUse"><stop offset="0" stop-color="#fff"/><stop offset="1" stop-color="#fff"/></radialGradient><path fill="url(#g)" d="M22.7 33.5c-.2.1-.5.2-.7.3-.3.3-.6.7-.9 1 .3-.3.5-.6.8-.9.3-.1.6-.2.8-.4z"/><path fill="#249A9A" d="M22 34c-.3.3-.5.6-.8.9l-.2.2c-11.4 12.3-6 41.2 13.3 67 20.4 27.4 48.4 40.7 62.5 29.8.4-.3.8-.6 1.2-1-14.5 9.2-41.5-4.1-61.3-30.7-7.9-10.6-13.4-21.7-16.4-32-.2-.3-.4-.6-.6-1l.1-1.1c-3.7-13.8-2.8-26 3.5-32.9-.2.1-.4.2-.5.3-.3.2-.6.3-.8.5z"/><path fill="#249A9A" d="M82.8 51.6C73 58.8 64 65.2 44.7 77.5c-8.9 5.6-11.7 7.2-11.7 8 1 2.1 2.8 5 4.2 7.1.9-.9 1-1 6.6-4.6 13.8-8.8 28.6-18.5 43.7-29.7-1.4-2.1-3.3-4.7-4.7-6.7zM24.6 47.1c-.1 2.4-.1 5.5-.1 7.9.9-.7.9-.7 4.6-2.8 6.7-3.9 22.4-13.1 39.2-25.4-.8-1.8-1.8-4.2-2.5-6.1-9.1 6.6-20.1 14.2-38.3 24.6-2.7 1.6-2.7 1.6-2.9 1.8z"/><path d="M138.7 74.8c-5.5 1.2-6.3 1.4-10.1 2.3 1.1 1.7 2.6 4 3.7 5.7-6 4.9-21.9 18.1-52.7 35.9-3.4 1.9-3.5 2-3.7 2.3 2.2.6 5.1 1.4 7.3 1.8.5-.4.5-.4 3.1-1.9 28.2-16 43.2-28.4 48.8-33.1.8 1.5 1.7 3.4 2.4 4.9 2.6-4.6 3.6-6.6 5.1-9.6 2.9-5.9 3.2-6.6 4.8-10.5-4.6 1.2-5.4 1.4-8.7 2.2zM31.9 62c-5.1 3-5.8 3.5-6 3.9l.2 1.1c.5 2.1 1.2 4.8 1.8 6.9 1-1 1.1-1 6.8-4.6 11.4-7 35.1-21.6 56.6-39.1 1.5 1.9 3.6 4.4 5.1 6.2 1.9-5.7 2.5-7.6 3.2-10.8 1.4-6 1.5-6.5 1.9-10-5.7 1-6.2 1.1-9.7 1.7-5.7.8-6.2.9-9.7 1.3 1.4 1.7 3.1 4.1 4.5 5.8C67.1 40.2 48.8 51.8 31.9 62zM49.8 97.2c-5.1 3.2-5.7 3.6-5.8 3.9 1.7 1.7 4 3.9 5.7 5.5.9-.8.9-.8 6.2-4 24.8-15.1 44.5-29 60.1-42.4 1.5 2 3.5 4.6 5.1 6.6 2.3-6.2 3-8.1 4.1-12 2-7.1 2.2-7.7 3.2-12-6.2 1.3-7 1.5-11.1 2.2-6.9 1.3-7.4 1.4-11.8 2.1 1.6 2 3.8 4.6 5.4 6.6-24.6 20.9-50.2 36.7-61.1 43.5z"/><path fill="#249A9A" d="M95.5 123.3c-1 .5-1 .5-1.2.7l4.2.1 2.9-.1c5.7-2.8 17-9.5 26.7-16.2-.7-1-1.6-2.3-2.4-3.2-4.2 2.8-15.2 10.5-30.2 18.7zM59.3 113.5l2.2 1.3 4.6 2.4c.7-.6.7-.6 3.7-2.4 16.3-9.6 27.2-16.6 41.6-27-1.4-1.6-3.3-3.8-4.7-5.4-10.3 7.4-22 15.6-41.8 27.5-4.9 3.1-5.3 3.3-5.6 3.6z"/></svg>