<svg xmlns:xlink="http://www.w3.org/1999/xlink"  xmlns="http://www.w3.org/2000/svg" width="100" height="100" viewBox="0 0 100 100"><path fill="#C7203B" d="M92.31 35.601c-.026-3.802-1.211-7.623-3.571-10.625a16.725 16.725 0 0 0-4.379-3.79c-4.412-2.605-9.71-3.209-14.74-2.788-8.142.717-15.9 3.931-22.749 8.294-1.843 1.22-3.704 2.428-5.347 3.908 7.149-4.682 15.308-8.314 23.958-8.628 5.021-.217 10.336.947 14.198 4.334 1.968 1.856 3.495 4.2 4.221 6.823 1.218 4.096.718 8.486-.484 12.525-1.316 4.121-3.361 7.992-5.872 11.512-6.724 9.227-16.268 16.459-27.069 20.213-5.515 1.853-11.521 2.778-17.276 1.551-1.243-.22-2.386-.762-3.621-1.018 3.678 2.229 7.991 3.263 12.271 3.229 7.065.067 13.981-2.106 20.27-5.214 8.785-4.484 16.617-10.953 22.398-18.966 2.327-3.224 4.297-6.717 5.731-10.429 1.292-3.492 2.143-7.19 2.061-10.931z"/><path fill="#6D6E70" d="M40.506 40.687c.742 2.528 2.46 4.776 4.78 6.048 1.709-1.786 3.787-3.191 6.04-4.188.55-1.442 1.26-2.819 1.985-4.179l-.017-.029c2.661-4.626 6.073-8.787 9.985-12.413-8.584.663-16.568 4.667-23.291 9.858-.108 1.65.067 3.314.518 4.903zM68.801 61.839c5.356-5.423 9.803-12.18 11.02-19.83-6.105-.461-12.17 1.464-17.483 4.349.125 1.555-.126 3.13-.776 4.552 3.995 2.219 6.706 6.406 7.239 10.929z"/><g fill="#C7203B"><path d="M76.734 30.206c-1.867-2.044-4.479-3.278-7.157-3.858-.342.083-.601.354-.876.552-2.135 1.733-4.163 3.606-5.956 5.689a37.764 37.764 0 0 0-5.989 8.947c1.201.119 2.345.518 3.387 1.116a42.072 42.072 0 0 1 6.256-2.945l.017-.049c4.296-1.6 8.859-2.682 13.473-2.532-.334-2.55-1.344-5.06-3.155-6.92zM34.992 40.285a47.652 47.652 0 0 0-4.221 4.863c-3.32 4.405-5.973 9.475-6.791 14.98 3.103.268 6.231-.163 9.226-.968 2.878-.788 5.631-1.968 8.267-3.354-.217-1.585.184-3.158.742-4.633-4.028-2.144-6.681-6.399-7.223-10.888zM48.781 55.557c1.652.084 3.228-.617 4.572-1.518 1.585-1.105 2.986-2.646 3.537-4.534.2-.847.241-1.994-.593-2.52-1.034-.676-2.377-.405-3.486-.083-1.97.655-3.671 2.014-4.897 3.675-.726 1.051-1.36 2.352-1.059 3.653.166.879 1.117 1.293 1.926 1.327zM58.516 55.385c-1.693 1.798-3.778 3.217-6.039 4.201-2.586 6.402-6.94 11.949-11.971 16.617 8.567-.622 16.542-4.651 23.273-9.818.443-4.254-1.41-8.867-5.263-11z"/></g><path fill="#6D6E70" d="M25.773 70.309c1.877 2.983 5.164 4.834 8.567 5.514 3.412-2.644 6.532-5.7 9.068-9.205a34.53 34.53 0 0 0 3.612-6.006c-1.167-.13-2.294-.483-3.286-1.118-1.794.955-3.612 1.857-5.489 2.638-4.546 1.826-9.418 3.048-14.349 2.873.251 1.871.86 3.702 1.877 5.304z"/><path fill="#6D6E70" d="M39.596 82.944c-5.271-.081-10.62-1.398-14.99-4.427l.032-.012c-3.311-2.349-5.738-5.849-6.832-9.753-.935-3.328-.901-6.864-.309-10.251 1.335-7.041 5.005-13.418 9.468-18.937 5.689-6.884 12.854-12.488 20.747-16.629 7.699-3.992 16.257-6.636 24.992-6.67 4.146.09 8.425.641 12.179 2.507-.024-.071-.065-.205-.091-.273-5.856-3.751-13.055-4.732-19.879-4.244-10.219.767-20.038 4.525-28.712 9.874-7.692 4.766-14.59 10.887-19.962 18.188-3.955 5.432-7.066 11.62-8.242 18.28-.525 3.229-.542 6.553.125 9.761a19.686 19.686 0 0 0 7.165 11.307c2.503 1.932 5.431 3.263 8.476 4.105 5.013 1.367 10.31 1.468 15.44.816 6.365-.805 12.547-2.772 18.353-5.473 4.221-2.014 8.342-4.32 12.079-7.152-3.453 1.909-6.932 3.831-10.635 5.227-6.165 2.404-12.764 3.91-19.404 3.756z"/></svg>