<svg xmlns:xlink="http://www.w3.org/1999/xlink"  xmlns="http://www.w3.org/2000/svg" viewBox="0 0 150 150"><path fill="none" d="M106.7 73.9c-1 6.3-2.4 12.1-4.2 17.7 0 8.3-3.8 15.8-9.8 20.7-4.6 7.1-10.3 13.7-17.4 20.2-7.4-6.7-13.3-13.7-17.9-21.1-5-4.6-8.3-11.1-8.7-18.3-2.1-6-3.6-12.4-4.7-19.2 3.4.5 6.8.9 10.2 1.3.2-.3.5-.6.7-.9.1-.8.1-1.7.2-2.5C50 71.2 45 70.4 40 69.4 42.9 97.6 52.2 118 75 137c22.7-19 32.1-39.4 35-67.6-4 .8-8.1 1.5-12.2 2.1-.2 1.2-.4 2.5-.5 3.7 3.1-.4 6.2-.8 9.4-1.3z"/><path fill-rule="evenodd" clip-rule="evenodd" fill="#034A64" d="M106.7 73.9c-3.1.5-6.3.9-9.5 1.2 0 .1 0 .3-.1.4 3.3 4.5 5.3 10 5.3 16 1.9-5.4 3.3-11.3 4.3-17.6zM44 73.9c1.1 6.9 2.7 13.2 4.7 19.2v-1.6c0-6.1 2.1-11.8 5.5-16.3-3.4-.3-6.8-.7-10.2-1.3zM57.4 111.5c4.7 7.4 10.5 14.4 17.9 21.1 7.1-6.5 12.8-13.1 17.4-20.2-4.7 3.8-10.6 6.1-17.1 6.1-7 0-13.4-2.7-18.2-7z"/><path fill="#EF7622" d="M98.4 63c1.5-5.6.3-9.5-5.5-14.5 8.4 18.9-19.2 12-5.4 1.3 8.8-7.5-7.6-9.3-.4-16.6-8.6 4.5-4 8.4-8.1 9.8-4.6 1.6-15.8-10.5-6.2-13.2 4.5-1.3 9.1 5.6 9.1 5.6 3.1-6.7 11.3-10 6.7-20.7 1.7 11-19.5 17.3-11.4 5.5 2.8-4.1 5.5-9.6-1.7-17.9 4.9 10.8-4.7 19.4-7.6 21.6-6.5 4.9-14.1 8.7-11.5 19.3.7-8.6 9.9-1.7 7.8 4.4-1.7 5-9.2 5.7-10.9-3.3-.6-3.1-.2-6.6 1.8-9.7C49.8 39 41.9 46 52.6 59.4c.9 1.2 1.5 2.5 1.9 4-8.2-1-16.2-2.6-23.6-4.8 1.6 37.1 11.3 64.1 44.1 89.1 32.7-25 42.4-52 44.1-89.1-6.6 1.9-13.5 3.4-20.7 4.4zM75 137c-22.7-19-32.1-39.4-35-67.6 5 1 10 1.8 15.1 2.4 0 .9-.1 1.7-.2 2.5.7-.8 1.4-1.6 2.2-2.3 4.8-4.6 11.3-7.4 18.5-7.4 7.1 0 13.5 2.8 18.4 7.2 1.1 1 2.1 2.1 3 3.3.1.1.2.2.3.4 0-.1 0-.3.1-.4.2-1.2.3-2.5.5-3.7 4.1-.5 8.1-1.2 12.2-2.1-3 28.3-12.4 48.7-35.1 67.7z"/><path fill="#1A1A1A" d="M84.6 77.2c-1.4-.8-3-1.5-4.6-1.9-.2-.1-.4-.1-.6-.2-1.2-.3-2.4-.4-3.7-.4-.8 0-1.6.1-2.4.2-1 .1-2.1.4-3 .7-1.6.5-3 1.2-4.4 2.1-1.6 1.1-3 2.5-4.2 4.1-2.2 2.9-3.5 6.5-3.5 10.5 0 9.7 7.9 17.6 17.6 17.6 9.7 0 17.6-7.9 17.6-17.6 0-4.1-1.4-7.9-3.8-10.9-1.5-1.6-3.2-3.1-5-4.2zm-2.9 3.6c1.9 1 3.5 2.4 4.7 4.1.1.1.2.3.3.4l-1.5.9c-5.2 2.9-7.2 2.5-7-1.9.1-1.2.3-2.7.8-4.6.9.2 1.8.6 2.7 1.1zm-3 11.5c0 .8-.3 1.6-.9 2.2-.6.6-1.3.9-2.2.9-.8 0-1.6-.3-2.2-.9-.6-.6-.9-1.3-.9-2.2v-.1c0-.8.4-1.5.9-2.1.6-.6 1.3-.9 2.2-.9.8 0 1.6.3 2.2.9.4.4.7 1 .8 1.6.1.3.1.4.1.6zm-10-11c1.1-.7 2.3-1.3 3.7-1.6.6 2.5.8 4.5.8 5.8-.2 3.5-2.7 3.2-8.4-.2h-.1c1-1.7 2.4-3 4-4zm-3.1 19.3c-1.9-2.3-3-5.2-3-8.3v-.8c9.3.9 10 3 3 9.1zm10 4.8c-1.7 0-3.3-.3-4.8-.9 3.7-8.6 5.9-8.6 9.6 0-1.5.6-3.1.9-4.8.9zm10.1-4.8c-7-6.2-6.3-8.2 3-9.1v.8c0 3.2-1.1 6.1-3 8.3z"/><path fill="#1A1A1A" d="M100.3 91.4h.5c-.1-1.6-.3-3.2-.6-4.8l-.5.1-.5-1.7.5-.1c-.5-1.5-1.1-3-1.8-4.4l-.5.3-.9-1.5.5-.3c-.3-.5-.7-1-1-1.5-.5-.7-1.1-1.4-1.6-2l-.3-.3-.4.4-1.3-1.3.4-.4c-.6-.6-1.3-1.1-2-1.7-.6-.4-1.2-.9-1.8-1.3l-.3.5-1.5-.9.3-.5c-1.4-.7-2.9-1.4-4.4-1.8l-.1.5-1.7-.5.1-.5c-1.5-.4-3.1-.6-4.8-.6v.5h-1.8v-.5c-1.6.1-3.2.3-4.8.6l.1.5-1.7.5-.1-.5c-1.5.5-3 1.1-4.4 1.8l.3.5-1.5.9-.4-.4c-.7.4-1.3.9-1.9 1.4-.6.5-1.3 1-1.9 1.6l.4.4-1.3 1.3-.4-.4c-.1.1-.2.3-.3.4-.2.2-.4.5-.6.7-.7.9-1.4 1.8-2 2.7l.5.3-.9 1.5-.5-.3c-.7 1.4-1.4 2.9-1.8 4.4l.5.1-.5 1.7-.5-.1c-.4 1.5-.6 3.1-.6 4.8h.5v1.8h-.5c.1 1.6.3 3.2.6 4.8l.5-.1.5 1.7-.5.1c.5 1.5 1.1 3 1.8 4.4l.5-.3.9 1.5-.5.3c.9 1.4 1.8 2.6 2.9 3.8l.4-.4 1.3 1.3-.4.4c1.2 1.1 2.4 2.1 3.8 2.9l.3-.4 1.5.9-.3.5c1.4.7 2.9 1.4 4.4 1.8l.1-.5 1.7.5-.1.5c1.5.4 3.1.6 4.8.6v-.6h1.8v.5c1.6-.1 3.2-.3 4.8-.6l-.1-.5 1.7-.5.1.5c1.5-.5 3-1.1 4.4-1.8l-.3-.5 1.5-.9.3.4c1.4-.9 2.6-1.8 3.8-2.9l-.4-.4 1.3-1.3.4.4c.4-.5.8-.9 1.2-1.4.6-.8 1.2-1.6 1.7-2.4l-.3-.2-.1-.1.9-1.5.4.2c.7-1.4 1.4-2.9 1.8-4.4l-.3-.1-.2-.1.5-1.7.5.1v-.1c.3-1.5.5-3 .6-4.6h-.5v-1.7zm-24.7 19.8c-10.5 0-18.9-8.5-18.9-18.9 0-4.4 1.5-8.4 4-11.6 1.2-1.6 2.7-2.9 4.3-4.1.9-.6 1.9-1.2 2.9-1.6.7-.3 1.3-.6 2-.8 1.1-.3 2.3-.6 3.4-.7.2 0 .4-.1.7-.1.5 0 1.1-.1 1.6-.1h1.2c1 .1 2.1.2 3.1.4 1.6.4 3.2.9 4.6 1.7.3.2.6.3.9.5 1.9 1.1 3.5 2.5 4.9 4.2 2.7 3.3 4.3 7.4 4.3 12 0 10.7-8.5 19.1-19 19.1z"/></svg>