<svg xmlns:xlink="http://www.w3.org/1999/xlink"  xmlns="http://www.w3.org/2000/svg" width="100" height="100" viewBox="0 0 100 100"><g fill="#2E3191"><path d="M72.804 40.563c4.036 0 8.092-.521 12.101-.01.942.164 1.801.182 2.763.538.877.326 2.04.767 1.767 1.428-.464 1.125-1.496 2.383-2.696 2.782-1.254.415-1.425.754-2.935 1.086 2.4.46 6.677-.634 6.763-3.423.009-.32-.005-.976-.149-1.261-.979-1.947-6.257-3.002-10.847-2.901-3.032.066-6.1-.068-9.105-.062-3.258.01-5.783.201-8.474.471-1.272-2.92-2.433-8.083-4.629-10.517-1.216-1.343-2.199-.984-3.164.554-2.025 3.219-2.397 7.187-2.661 10.922a618.96 618.96 0 0 0-14.132 2.014c.664.064 30.322-1.62 35.398-1.621zM55.986 29.938c1.164-.206 2.51 4.298 4.676 9.279-2.885.147-5.12.318-8.654.935.679-3.133 2.119-10.017 3.978-10.214z"/><path d="M28.329 51.034c.909-.564 1.456-1.645 1.807-1.708 3.556-.094 7.114.044 10.677.043 9.982-.003 19.898-1.626 29.789-2.977 2.104-.175 8.698-1.052 8.968-1.892-1.688-.033-49.443 3.784-50.732 3.807-2.419-.01-4.876.109-7.251-.343-1.403-.43-1.153-2.684-.834-3.907-1.36-2.831-6.42-9.135-7.116-9.558.165.867 5.349 7.402 5.23 10.568.033.566.053 1.125.057 1.69.374 1.135 1.015 2.179 1.332 3.328-4.632 2.725-9.095 5.766-13.813 8.336 1.579.109 4.263.231 6.388.435 5.213-2.502 10.581-4.769 15.498-7.822zm-5.207-.743c.678-.566 1.415-.581 2.334-.605.819-.013 1.65.006 2.479.063-.611 1.242-2.1 1.605-3.238 2.119-2.016.908-4.118 1.92-6.331 2.141 1.278-1.304 3.308-2.576 4.756-3.718z"/><path d="M92.883 43.514c.448.801.369 1.474-.079 1.85-4.992 4.15-14.289 4.101-21.647 4.504-2.522.327-5.064.332-7.59.478-3.824-.166-15.871 1.98-21.398 2.248-1.335.063-4.257.177-5.765-.043-1.933-.28-2.863-.181-5.761-.67 3.294 1.728 10.705 1.863 12.068 1.784 4.623-.268 7.922-.834 13.385-1.467-11.974 6.218-23.93 11.242-36.406 16.368-.74.334-1.517.591-2.337.581 4.333-3.06 18.72-12.327 18.639-12.472-1.93 1.143-19.066 10.665-25.656 14.387-.892.531-1.769 1.101-2.509 1.827 6.701.777 12.736-2.697 18.806-4.959 3.875-1.622 7.78-3.188 11.537-5.101.455-.197 1.292-.624 1.626-.029 1.656 4.048 6.628 4.332 9.239 3.761.996-.216 2.667-.998 2.614-2.072-.313.461-1.068.728-1.47.421-1.098-.83-.61-4.464 1.467-3.421-.083-2.704-4.389-.66-5.203-2.646 3.363-1.483 6.547-3.34 9.933-4.786 2.66-1.267 2.978-2.019 6.956-2.074.742-.011 8.642-.372 11.497-.358 6.597-.41 15.393-1.853 18.957-5.741.593-.649.214-2.128-.903-2.37zM47.461 60.773c.284-.096.887-.149 1.181-.202-.273 1.605-.703 3.304.04 4.827-2.011-.33-4.786.139-6.057-1.539-1.815-2.398 3.218-2.53 4.836-3.086zM15.447 33.248c3.328 2.594 6.381 5.781 10.57 6.951 2.075-.18 4.11-.885 6.139-1.403-.117 2.384.129 3.192.91 4.68-3.817.632-7.515 2.02-11.422 2.035 2.475 1.625 7.852.852 11.093-.442 1.411-.562 3.028-1.696 3.269-3.333-.635.199-1.274.417-1.938.417-.005-.844-.005-2.532-.005-3.376.669.015 1.309.223 1.948.432-.081-.801-.708-1.85-1.506-1.807-2.568.142-5.069.379-7.573.798-1.428.016-5.516-2.558-7.609-4.106-1.755-1.297-3.595-3.371-6.041-2.358-.73.3 1.178.832 2.165 1.512z"/></g></svg>