<svg xmlns:xlink="http://www.w3.org/1999/xlink"  version="1" xmlns="http://www.w3.org/2000/svg" viewBox="0 0 150 150"><path fill="none" d="M84.3 77.9c-3 .1-7.8 2.3-10.8 5.8.1.3.7.4.7.4s4-5.3 10.1-6.2zM105.6 73.7l-8.1-2.1-.4 1 12.1 7zM60.2 44.4L57 39.1h-6.9l.6 4.1zM87.6 96.5c.1.1.2.1.3.2l-1.6 7.9 2.4.3.5-8c.2 0 .4-.1.6-.1l5.1 6.2 1.8-1.7-5.8-5.3.3-.6H99l-.2-2.4-7.8.9c-.1-.3-.2-.6-.4-.8l4.5-6.3-2.1-1.2-3.6 6.8c-.3-.1-.5-.1-.8-.1l-2-7.4-2.3.8 3.1 7.1-.5.5-7.1-3.1-.8 2.3 7.6 2.1c0 .2 0 .4.1.6L79.6 99l1.3 2.1 6.5-4.6c0-.1.1 0 .2 0z"/><path fill="#006D95" d="M48.7 39.1l.6 3.9-12.2-1.5-6.4.2c-1.8 1.7-3.4 3.5-5 5.4l36.6-.8 11.9 20.3 2.6-.1-13.7-21.8-1.2-.1h.1l-4.2-6.9-22.6.1c-.6.5-1.2.9-1.8 1.4l15.3-.1zm8.3 0l3.2 5.3-9.5-1.2-.6-4.1H57zM14.8 67.6l5-.3.5-12.4c-1.3 2.2-2.5 4.4-3.4 6.8-.8 1.6-1.4 3.6-2.1 5.9zM29.8 93.2l40.9-.3 2-25.7-45.1 1.6.1 1.4 4.9.1.9 2.6-5.3 2.8z"/><path fill="#006D95" d="M25.1 48.9l2 18.1 34.1-.5-.7-6.8 3.8.1 1.5 3.5c.9.1 2.5.2 3.6.3l-8.1-16.2-36.2 1.5zM17 95.5l56.9-.2c-.1-3 .6-6.1 2.4-8.9 4.5-6.9 13.8-8.9 20.7-4.4 4.6 3 7 8 6.8 13.2h3.9l4.2-4.2.7-5.9-1-3.9-4.8-9.7L77.2 67l-4 .1-2 26.2-42 .6v-.2l-3.1-25-11.7.4c-1.1 4.3-2 9.5-2.7 15.3-1.3 7.3.2 10.9 5.3 11.1zm80.5-23.9l8.2 2.1 3.6 6-12.1-7 .3-1.1zm-13.2 6.3c-6.2.9-10.1 6.3-10.1 6.3s-.6-.1-.7-.4c3.1-3.6 7.9-5.8 10.8-5.9zM71 66.6l-.8-1.5-3.5.2.6 1.4z"/><path fill="#006D95" d="M100.1 102c4.1-6.2 2.3-14.6-3.9-18.6-6.2-4.1-14.6-2.3-18.6 3.9-4.1 6.2-2.3 14.6 3.9 18.7 6.2 4 14.6 2.2 18.6-4zm-20.5-3l7.1-3.7c-.1-.2-.1-.4-.1-.6L79 92.6l.8-2.3 7.1 3.1c.1-.2.3-.4.5-.5l-3.1-7.1 2.3-.8 2 7.4c.3 0 .5 0 .8.1l3.6-6.8 2.1 1.3-4.5 6.3c.2.2.3.5.4.8l7.6-1.1.2 2.4H91c-.1.2-.1.4-.3.6l5.8 5.3-1.8 1.7-5.1-6.2c-.2.1-.4.1-.6.1l-.5 8-2.4-.3 1.6-7.9c-.1 0-.2-.1-.3-.2-.1 0-.1-.1-.2-.1l-6.5 4.6-1.1-2z"/><path fill="#FFF" d="M144.3 94.1c-3.4 13-10.8 24.8-20.5 34 1.3-2.2 3-4.1 4.3-6.3 4.7-7.1 8-15.2 9.6-23.5 3.3-16.2.1-33.6-8.7-47.7-8.1-13.2-21-23.3-35.7-28.1-14.9-5-31.6-4.3-46.1 1.8-15.9 6.5-28.9 19.5-35.6 35.3-4.2 9.8-5.8 20.6-5.2 31.2-4-18.4-.2-38.3 10.2-54 9-13.7 22.9-24.1 38.6-28.8 15.8-4.9 33.3-3.9 48.5 2.7 14.8 6.3 27.3 17.8 34.7 32 8.4 15.6 10.5 34.4 5.9 51.4z"/><path fill="#006D95" d="M103.7 10.7C88.5 4.1 71 3.1 55.2 8c-15.7 4.7-29.6 15.1-38.6 28.8-10.4 15.7-14.2 35.6-10 54-.6-10.6.9-21.4 5.2-31.2 6.6-15.8 19.7-28.8 35.6-35.3 14.5-6.1 31.2-6.8 46.1-1.8 14.7 4.8 27.6 14.9 35.7 28.1 8.7 14 11.9 31.4 8.7 47.7-1.6 8.4-4.9 16.4-9.6 23.5-1.4 2.1-3 4.1-4.3 6.3 9.7-9.2 17.1-21 20.5-34 4.7-17.1 2.5-35.8-5.8-51.4-7.7-14.2-20.2-25.7-35-32z"/><path fill="#1A1A1A" d="M127.9 78.1c-1.7-11.5-7.1-22.4-15.4-30.6-8.2-8.2-18.9-13.7-30.4-15.4 10.3 3.4 19.9 9.6 26.4 18.4 5.4 7.1 8.8 15.7 9.9 24.6.3 2.8.4 5.7.3 8.6-.7 16-9.4 31.4-22.8 40.1-2.9 1.9-5.9 3.5-9.1 4.8-4.3 1.8-8.9 2.9-13.5 3.4-10.3 1.1-21-1-30.1-6-8.3-4.5-15.2-11.4-19.9-19.6 7.4 19.7 27.5 33.6 48.4 34.2 12.4.5 25-3.4 34.9-10.8 15.8-11.6 24.3-32.2 21.3-51.7z"/></svg>