<svg xmlns:xlink="http://www.w3.org/1999/xlink"  version="1" xmlns="http://www.w3.org/2000/svg" viewBox="0 0 150 150"><path fill="#231F20" d="M113 36.2S163.5 58 93.7 91.5c0 0 45.4-6.1 51.1-31.5.1.1 5.8-18.7-31.8-23.8z"/><radialGradient id="a" cx="900.753" cy="-669.036" r="129.073" gradientTransform="rotate(-29.483 1880.013 1270.53)" gradientUnits="userSpaceOnUse"><stop offset="0" stop-color="#8bc53f"/><stop offset=".333" stop-color="#50b749"/><stop offset=".709" stop-color="#009345"/><stop offset="1" stop-color="#006838"/></radialGradient><path fill="url(#a)" d="M143.3 74c-17.7 27.9-71.8 30.5-71.8 30.5-76.7 3.4-44.7-31.3-44.7-31.3C10.2 77.9 6.3 88 6.3 88c-6.8 28.2 53.6 25.5 53.6 25.5 25.5-2 43.3-6.7 55.6-12.3-28.9 16.7-66.6 21.3-66.6 21.3 88.1-2.6 93.9-43.5 94.3-47.9.1-.4.1-.6.1-.6z"/><g><path d="M77.4 53.8L66.2 57s-10.9 3.4-11.8 15.1c0 0 31.6-7.8 46.5-14-.1 0-13-7.6-23.5-4.3zM39.6 73.4l-1.3 3.4 4.4 5 1.7-3-.3-.3z"/><path d="M100.3 41.4c-1.6-.4-3.4-.4-5.1-.4H92c-1.1.1-2.6.1-4.1-.1-3.4-.4-6.1-.9-8.5-1.3-2.9-.5-5.3-1-7.5-.9-.7 0-1.4.1-2.1.2-7.6 1.2-18.9 5-23.6 8.6-2 1.6-9.8 11.1-11.7 16-1.6 4.1-1 15.6-.3 18.5 1.8 7 9.4 12.4 17.9 13.2 1.6 2.9 6 3.5 9.6 1.5 2.6-1.5 4.1-3.8 4.3-6.1l.6-.6c1.2-1.2 2.4-2.3 3.7-3.1 2.3-1.4 5.9-2.6 9.7-3.9 1.7-.6 3.5-1.2 5.2-1.8 2.1-.7 4.2-1.6 6.2-2.5 3.1-1.3 6-2.5 8.3-3.1 0 .1 0 .1.1.1 1.6 2.9 5.9 3.5 9.5 1.4 2.1-1.2 3.5-3 4-4.9 3.3-2.9 5.2-7.9 5.3-11.8.5-10.1-9.2-17-18.3-19zM60.9 95c-2.4 1.4-5.3.9-6.4-1-1.1-1.9 0-4.6 2.4-6 2.4-1.4 5.3-.9 6.4 1 1.2 1.9.1 4.6-2.4 6zm47.5-19.5c-2.4 1.4-5.3.9-6.4-1-1.1-1.9 0-4.6 2.4-6 2.4-1.4 5.2-.9 6.3 1 1.2 1.9.1 4.6-2.3 6zm5.1-3.9v-.1.1zm.1-.5v-.2.2zm2.7-10.6c-.1 2.3-1.1 5.8-3 8.4.1.2.1.3.2.5-.1-.4-.3-.7-.4-1.1-1.6-2.9-5.9-3.5-9.5-1.5-2.6 1.5-4.2 4-4.2 6.4-2.4.6-5.4 1.9-8.6 3.2-2 .9-4.1 1.7-6.1 2.5-1.7.6-3.4 1.2-5.2 1.8-3.9 1.3-7.6 2.6-10.2 4.1-1.3.8-2.5 1.9-3.6 3-1.7-2.9-6-3.5-9.7-1.4-2.7 1.5-4.2 4-4.3 6.4-7.1-1-13.4-5.5-14.9-11.3-.7-2.4-1.1-13.5.2-17 .3-.8.9-1.9 1.5-3 2.8 7.1 11.3 10.1 11.3 10.1 0-4.2 4-10.5 4-10.5-6.1-3.3-8.4-6.6-9.2-8.1 1.4-1.7 2.6-3 3.1-3.4 3.9-3 14.4-6.8 22.4-8.2.6-.1 1.1-.1 1.7-.2 2 0 4.3.4 7.1.9.3.1.6.1 1 .2 2.2 1.4 4.9 3.7 7.4 7.8h.3s8.4.4 16.1 5c0 0 4.7-6-11.1-11.5h1c.5 0 1 0 1.6-.1 1.5 0 3.1 0 4.5.3 8.2 1.8 16.9 7.8 16.6 16.7zm-2.7 9.9v-.3.3zm-.1-.6c0-.1 0-.2-.1-.3.1.2.1.3.1.3z"/></g></svg>