<svg xmlns:xlink="http://www.w3.org/1999/xlink"  version="1" xmlns="http://www.w3.org/2000/svg" viewBox="0 0 150 150"><path fill-rule="evenodd" clip-rule="evenodd" fill="#413E3B" d="M130 89c.9-3.4 1.4-6.9 1.7-10.4l.1-2 12.2-2.2-1.3-13.7-12.4.3-.5-1.9c-.9-3.4-2.1-6.7-3.6-9.9l-.9-1.8 9.5-8.1-7.9-11.3-10.6 6.5-1.4-1.4c-2.5-2.5-5.2-4.7-8-6.7l-1.6-1.1 4.2-11.9-12.3-5.6-5.9 11-1.9-.5c-3.3-.9-6.8-1.5-10.3-1.7l-2-.1L75 4 61.6 5.4l.2 12.6-1.8.5c-3.3.9-6.6 2.2-9.7 3.7l-1.8.9-7.9-9.7-11 8L36 32.3l-1.4 1.4C32.2 36.2 30 39 28 41.9l-1.1 1.7-11.6-4.3-5.6 12.4 10.9 6.1-.6 1.9c-.9 3.4-1.4 6.9-1.7 10.4l-.1 2L6 74.3 7.3 88l12.4-.3.5 1.9c.9 3.4 2.1 6.8 3.6 9.9l.8 1.8-9.5 8.1 7.9 11.2 10.6-6.6 1.4 1.4c2.5 2.5 5.2 4.7 8 6.7l1.6 1.1-4.2 11.9 12.3 5.7.4-.8.1-18.1c-16.1-7.6-27.8-23.4-29.6-42.5-1.3-14 2.7-27.6 11.5-38.5C43.9 30.2 56.3 23.4 70 22.1c1.7-.2 3.4-.3 5.1-.3 26.6 0 48.6 20.4 51.3 47.4 2.8 28.8-18 54.6-46.3 57.4-1.7.2-3.4.3-5.1.3h-.2l.1 17.1.1.6 13.5-1.4-.3-12.6 1.9-.5c3.3-.9 6.6-2.2 9.7-3.7l1.8-.9 7.9 9.7 11-8-6.4-10.8 1.4-1.4c2.4-2.5 4.6-5.2 6.6-8.2l1.1-1.6 11.6 4.3 5.6-12.5-10.9-6.1.5-1.9z"/><path fill="#003C3C" d="M91 58.9l5.3-9.3h14.9c-3.3-6.3-9.8-10.5-17.3-10.5-3.4 0-6.3.9-8.7 2.4-2.8 1.7-5.2 4.5-6.7 8.1h-21v29.5h-5.3c-.7-1.7-1.9-3-3.2-3.8-1.2-.7-2.5-1.1-4.1-1.1-3.6 0-6.7 2-8.2 5h7.1l2.5 4.4-2.5 4.4h-7.1c1.6 3 4.7 5 8.2 5 1.6 0 3-.4 4.2-1.2 1.3-.8 2.4-2.1 3.1-3.8H57.5v54.5c3.6.9 7.6 1.5 12.1 1.8v-76h8.9c1.5 3.5 3.8 6.4 6.6 8 2.5 1.5 5.4 2.4 8.8 2.4 7.5 0 14-4.3 17.3-10.5H96.3L91 58.9z"/></svg>