<svg xmlns:xlink="http://www.w3.org/1999/xlink"  xmlns="http://www.w3.org/2000/svg" viewBox="0 0 150 150"><path fill="none" d="M56.1 94.4c2.5-.4 4.7-1.8 6.2-3.9.4-.6.8-1.3 1.1-2l-.1.5-.1.7-.1.4c.2-.2.3-.5.5-.8.9-1.6 1.3-3.5.9-5.3-1-4.3-5.6-7-10.4-5.9s-7.9 5.4-6.9 9.7c.2.8.6 1.6 1 2.3.2.2.3.5.5.7l.6.6c-.4.2-.7.4-1.1.6 1.7 1.5 4 2.5 6.4 2.5.4 0 1 0 1.5-.1zm-5.8-4.3c-.2-.2-.4-.4-.5-.7-.4-.6-.7-1.2-.8-1.9-.8-3.4 1.7-6.9 5.5-7.7s7.5 1.3 8.2 4.7c.4 2-.2 4-1.6 5.5-.4.4-.8.8-1.3 1.1-.7.5-1.5.8-2.4 1-.1 0-.1.1-.2.1-2.4.5-4.7-.1-6.3-1.5-.3-.2-.4-.4-.6-.6zM63.8 91.1l.6-.1s2-.5 5.3-1.2c-2.5.6-4.8 1-6.6 1.4l.7-.1z"/><path fill="#170A00" d="M59.9 114.6c4.1 2.1 8.4 3.7 13 4.5-2.3-1.7-4.5-3.5-6.5-5.6l-6.5 1.1zM74.2 112.3c3.2 2.6 6.7 4.7 10.4 6.3l-1.3-7.8-9.1 1.5zM61.3 107.7c-.9-1.2-1.8-2.5-2.6-3.8-.7.5-1.5.9-2.4 1.2-1.9.7-4.2 1.1-7.2 1.4 1 1 2 2 3.1 2.9l9.2-1.5-.1-.2zM68.4 106.7l13.8-2.3-1.6-9.8-13.1 3.3c-1.1 1.3-2.2 2.4-3.3 3.3.9 1.4 1.9 2.7 2.9 4 .4.5.8 1 1.3 1.5zM107 54.5l11.9-2c-2.5-4.2-5.7-7.9-9.4-11.1l-9.3 1.5c2.6 3.6 4.9 7.4 6.8 11.6zM102 114.3c4.1-2.2 7.8-5.1 10.9-8.4l-6.5 1.1c-1.2 2.6-2.7 5-4.4 7.3zM90.9 117.5c3-2.7 5.6-5.8 7.8-9.3l-9.1 1.5 1.3 7.8zM117.6 85.4l-5.3 1.3c-.4 4.5-1.4 8.9-2.8 13.1l-.1.2 9.2-1.5c2.4-4 4.2-8.3 5.3-13-1.2 0-2.3-.3-3.4-.6l-2.9.5zM103.1 99.3c1.3-3.5 2.2-7.2 2.8-11l-19.1 4.8 1.7 10.3 13.8-2.3c.4-.6.6-1.2.8-1.8zM93.2 44.1l-14 2.3 1.7 10.3c2.3-.5 4.4-.8 6.3-1.1 2.1-.3 4.4-.4 7-.4 2.1 0 4.3.1 6.6.3-1.8-3.7-4-7-6.5-10.1-.4-.4-.7-.8-1.1-1.3zM87.5 38.6c-3.3-2.7-6.9-4.9-10.7-6.5l1.3 8.1 9.4-1.6zM101.9 36.2c-4.2-2.3-8.7-3.9-13.4-4.7 2.4 1.7 4.7 3.7 6.8 5.8l6.6-1.1zM58.2 51.4c-1.2 3.2-2.1 6.6-2.7 10.1 1 .3 1.9.6 2.8 1l2.9-.5c4.5-1.4 9-2.7 13.3-3.8l-1.8-10.7-14 2.3c-.1.5-.3 1-.5 1.6zM59.3 36.3c-4.2 2.3-8 5.3-11.2 8.8l6.6-1.1c1.4-2.7 2.9-5.3 4.6-7.7zM70.5 33.1c-3.1 2.8-5.8 6-8 9.6l9.3-1.5-1.3-8.1zM41.8 61.3c1.6 0 3 .2 4.5.4l.6-2.3c.9.1 1.9.3 2.8.5.5-3.1 1.3-6.1 2.3-9l-9.4 1.5c-1.7 2.8-3.1 5.8-4.1 8.9.8-.1 1.7-.1 2.6-.1l.7.1z"/><path fill="#DC2426" d="M31.9 73.5c.3.1.5.2.8.3.3.1.5.3.8.4l.2-.1-.8-.7-1 .1zM29.5 71.4l8.1-1c-2-.8-3.6-1.3-4.8-1.5-.4-.1-.9-.1-1.4-.1-1.2-.2-2.5.2-3.8 1.2-.4.3-1 .8-1.7 1.5-.2.4-.4.8-.6 1.3l-.5 1c-.4.9-.6 1.6-.7 2.1s-.2.9-.2 1.2c1.4-1.9 2.4-3 3-3.5.5-.3 1.3-.5 2.3-.5-.2-.1-.4-.2-.6-.4-.5-.6-.1-1.2.9-1.3zM59.6 64.2c-3.3-1.3-8.4-1.6-12.4-2.2 3 1.2 5 2.3 6.1 3.3.1.1.3.5.4.9-.1 0-.1 0-.1-.1-3-1.2-6.3-1.9-10-1.9-3.2-.1-5.8.3-7.7 1.1.9.1 1.5.2 2 .3 1.7.3 3 .6 3.9 1s1.5.8 1.7 1.2c.3.3.5.4.6.6.4.5.5 1 .3 1.6-.1.1.4 1.4.6 2.3 3.1-2.1 8.1-5.3 14.6-8.1zM13 99.5c-1.2.2-2.4.1-3.7-.4-.7-.3-1.4-.7-2-1.1-.1 0-.2-.2-.4-.3.6 1 1.2 1.7 1.9 2.4.7.6 1.3 1 1.8 1.2.4.2.7.3.9.3h.5c1.4-.1 2.4-.3 3.1-.8.7-.4 1.2-1.1 1.5-1.9.2-.5.4-1.3.6-2.2-1.2 1.6-2.6 2.6-4.2 2.8zM64.5 91l-.6.1-.6.1-1.2.3c.3-.3.6-.7.9-1.1.1-.1.1-.2.2-.2l.1-.4.1-.7.1-.6c-.3.7-.6 1.4-1.1 2-1.5 2.1-3.7 3.5-6.2 3.9-.6.1-1.1.1-1.7.1-2.4 0-4.7-.9-6.4-2.5-2 .9-4.3 2-5.6 2.3-.4.1-2.6.6-4.8.3 0 .2.1.3 0 .5-.1.6-.2 1.1-.2 1.4-.1.3-.1.6-.2.9-.5 1.3-2.3 2.2-5.3 2.7-1 .1-2.4.2-4.3.3 2 .4 4 .9 6 1.3 4.6.5 7.7.1 9.3-1.4.5-.5 1.5-1.8 2.9-4.1.7-1.2 2-1.8 3.9-1.8.6 0 1.1.1 1.6.3.8.3 1.3.8 1.6 1.4s.3 1.3 0 2.2c-.3.8-1 1.6-2.1 2.5s-2.7 1.7-4.7 2.6c4.4-.1 7.8-.5 10.1-1.4 2.6-1 4.4-2.7 5.4-5 .1-.4.6-1.3 1.3-2.5.2-.4.6-1 1.2-1.8.6-.3 1-.4 1.2-.3.3.1.3.4.2.9-.1.5-.3 1.2-.7 2-.3.7-.6 1.3-.9 1.9-.3.6-.6 1.1-.9 1.6 1.4-1.1 2.7-2.5 3.9-4l.1.1 45.6-14.1c-14.4 3-31.5 6.6-42.5 9-3.7.7-5.7 1.2-5.7 1.2zM34.9 76.1c0 .2 0 .3-.1.5.2-.1.5-.2.8-.3-.2 0-.4-.1-.7-.2zM32.3 91L31 85.2l1.5.6c.1-.3.6-1.7-.6-7.1-1 .2-2.3.3-3.9.3-3.8-.2-6.1.8-6.9 2.8-.1.3-.3.7-.4 1 0 .4 0 .7-.1.9.7-.5 1.3-.8 1.7-1 1.4-.6 2.6-.7 3.5-.3.5.2.9.5 1.3 1s.6 1.1.8 2c.1.3 0 .6-.1.9-.3.8-1.5 1.4-3.4 1.9-2.1.4-3.5.7-4 .8-.5.1-.9.4-1.3.8s-.7.9-.9 1.4c-.3.7-.5 1.6-.7 3-.1.4-.1.7-.2 1 0-.1 0-.2.1-.2.2-.4.4-.8.6-1s.8-.4 1.6-.4c1.4 0 2.6.3 3.6.6.4.2.9.4 1.5.8.5.4.9.6 1.2.7.4.2.8.2 1.2.2.9 0 1.7-.3 2.4-.9 1.2-1.1 2.7-1.6 4.5-1.5-.4-.4-.7-1-.9-1.6l-.8-.9z"/><path fill="#170A00" d="M143.7 72.7c0-.3-.1-1.1-2.5-1.4.4-3.7-.6-6.5-2.8-8.4-4.3-3.6-11.7-2.5-13.1-2.3l-3-.7h-.2c-3.2-.1-14.8 2.1-16.5 2.5-3-.6-3.3-2-5.5-2.6-6.2-2.7-15.1-2.4-28.3.5-4.4 1-8.5 2.4-12.2 4-6.5 2.8-11.5 6-14.4 8.1-1.3.9-2.2 1.6-2.6 1.9-.9.3-1.8.5-2.6.8l-2.8-2.2 2.5-.3c1-.1 1.4-.7.8-1.3-.6-.6-1.9-1-2.9-.8h-.2l-8.1 1c-1 .1-1.4.7-.8 1.3.1.1.3.3.6.4.6.3 1.6.5 2.3.4h.4l.9-.1.8.7 2.7 2.1c-.2.1-.5.1-.7.2-.3.1-.5.2-.8.3-3.1 1-3.1 1.3-2.9 1.9 0 .1 0 .2.1.3 1.2 5.3.7 6.8.6 7.1l-1.5-.6 1.3 5.8 1 .7c.1.6.4 1.2.9 1.6.2.2.4.3.6.5.8.5 1.8.8 2.9.9 2.2.2 4.5-.3 4.8-.3 1.3-.3 3.7-1.3 5.6-2.3.4-.2.8-.4 1.1-.6l-.6-.6c-.2-.2-.3-.5-.5-.7-.4-.7-.8-1.5-1-2.3-1-4.3 2.2-8.7 6.9-9.7 4.8-1.1 9.4 1.6 10.4 5.9.4 1.9 0 3.7-.9 5.3-.1.3-.3.5-.5.8-.1.1-.1.2-.2.2-.3.4-.6.7-.9 1.1l1.2-.3c1.8-.4 4-.9 6.6-1.4 11-2.4 28.1-6.1 42.5-9 2.5-.5 4.8-1 7.1-1.4-.3-.2-.6-.4-.9-.7-.3-.2-.5-.4-.8-.7-1-1-1.7-2.2-2-3.6-1-4.3 2.2-8.7 6.9-9.7 4.8-1.1 9.4 1.6 10.4 5.9.3 1.6.1 3.1-.5 4.6-.1.3-.3.6-.5.9s-.4.7-.7 1c1.8-.3 3.3-.7 4.6-.9 6.8-2 8-2.8 7.9-3.8z"/><path fill="#170A00" d="M57.2 92.2c.1 0 .1-.1.2-.1.9-.2 1.7-.6 2.4-1 .5-.3.9-.7 1.3-1.1 1.4-1.5 2.1-3.5 1.6-5.5-.8-3.4-4.5-5.5-8.2-4.7s-6.2 4.3-5.5 7.7c.2.7.5 1.3.8 1.9.2.2.3.5.5.7l.6.6c1.6 1.4 3.9 2 6.3 1.5zM131.2 70.9c-.8-3.4-4.5-5.5-8.2-4.7-3.8.8-6.3 4.3-5.5 7.7.3 1.5 1.2 2.7 2.5 3.6.3.2.7.4 1.1.6.5.2 1.1.4 1.6.5 1 .2 2 .2 3 0 .9-.2 1.7-.6 2.4-1 .5-.3.9-.7 1.3-1.1.3-.3.6-.6.8-1 1-1.4 1.4-3 1-4.6z"/></svg>