<svg xmlns:xlink="http://www.w3.org/1999/xlink"  xmlns="http://www.w3.org/2000/svg" width="100" height="100" viewBox="0 0 100 100"><path fill="#26A9E0" d="M63.431 67.3c0 5.571-4.518 10.088-10.088 10.088-5.572 0-10.081-4.517-10.081-10.088 0-5.568 4.509-10.089 10.081-10.089 5.57 0 10.088 4.52 10.088 10.089z"/><path fill="#6D6E70" d="M49.196 9.44c-22.93 0-41.527 18.594-41.527 41.527s18.598 41.527 41.527 41.527c22.938 0 41.535-18.595 41.535-41.527 0-22.933-18.597-41.527-41.535-41.527zm0 80.337c-21.432 0-38.806-17.373-38.806-38.81 0-21.436 17.375-38.81 38.806-38.81 21.439 0 38.814 17.375 38.814 38.81.001 21.437-17.374 38.81-38.814 38.81z"/><path fill="#26A9E0" d="M53.343 53.79c6.867 0 12.535 5.145 13.389 11.778h9.604c-.989-11.48-10.079-12.833-10.482-12.886l-.137-.02c-6.554-1.409-10.659-2.331-13.63-3.265H14.754c-.024.52-.041 1.043-.041 1.57a34.451 34.451 0 0 0 3.237 14.601h22.012c.853-6.633 6.52-11.778 13.381-11.778zM44.132 45.195c-10.321-8.122-19.918-12.387-23.348-13.767a34.245 34.245 0 0 0-5.7 14.508h30.022c-.322-.233-.636-.478-.974-.741z"/><path fill="#6D6E70" d="M49.196 16.479c-10.499 0-19.894 4.696-26.223 12.099 4.194 1.749 13.341 6.06 23.3 13.899 2.013 1.583 3.583 2.537 6.352 3.458h.435v.143c2.777.885 6.747 1.773 13.356 3.19 1.224.213 12.979 2.653 13.446 17.482a34.348 34.348 0 0 0 3.823-15.784c.002-19.047-15.441-34.487-34.489-34.487z"/><path fill="#26A9E0" d="M53.343 80.81c-6.86 0-12.528-5.145-13.381-11.78H19.818c6.071 9.855 16.955 16.426 29.378 16.426 12.431 0 23.315-6.57 29.386-16.426H66.731c-.853 6.635-6.521 11.78-13.388 11.78z"/><circle fill="#FFF" cx="53.343" cy="67.3" r="2.874"/></svg>