<svg xmlns:xlink="http://www.w3.org/1999/xlink"  xmlns="http://www.w3.org/2000/svg" width="100" height="100" viewBox="0 0 100 100"><path fill="#FFF" d="M48.908 10.691c-21.477 0-38.888 17.411-38.888 38.889 0 21.479 17.411 38.891 38.888 38.891 21.479 0 38.891-17.412 38.891-38.891 0-21.478-17.412-38.889-38.891-38.889zm-28.473 19.31c3.437 1.385 13.053 5.658 23.399 13.796.332.263.654.507.97.742H14.72a34.37 34.37 0 0 1 5.715-14.538zM14.351 49.58c0-.527.016-1.052.039-1.572h37.411c2.977.935 7.091 1.859 13.662 3.269l.134.023c.405.054 9.508 1.405 10.501 12.912h-9.621c-.855-6.646-6.538-11.803-13.414-11.803-6.875 0-12.559 5.156-13.414 11.803h-22.05a34.42 34.42 0 0 1-3.248-14.632zm48.818 16.365c0 5.582-4.525 10.107-10.106 10.107-5.582 0-10.107-4.525-10.107-10.107 0-5.58 4.525-10.106 10.107-10.106 5.581 0 10.106 4.526 10.106 10.106zM48.908 84.139c-12.448 0-23.355-6.585-29.439-16.459h20.18c.855 6.647 6.538 11.804 13.414 11.804 6.876 0 12.559-5.156 13.414-11.804H78.35c-6.084 9.874-16.993 16.459-29.442 16.459zm17.249-36.26c-6.623-1.422-10.596-2.31-13.382-3.198v-.141h-.437c-2.771-.925-4.345-1.882-6.361-3.467-9.984-7.854-19.145-12.174-23.344-13.926 6.338-7.417 15.755-12.124 26.274-12.124 19.087 0 34.56 15.472 34.56 34.558a34.406 34.406 0 0 1-3.836 15.818c-.468-14.861-12.24-17.308-13.474-17.52z"/><path fill="#64A7DE" d="M53.062 55.839c-5.582 0-10.107 4.526-10.107 10.106 0 5.582 4.525 10.107 10.107 10.107 5.581 0 10.106-4.525 10.106-10.107.001-5.58-4.524-10.106-10.106-10.106zm0 12.986a2.88 2.88 0 0 1 0-5.759 2.88 2.88 0 0 1 0 5.759z"/><path fill="#6D6E70" d="M48.908 7.969c-22.98 0-41.61 18.631-41.61 41.611 0 22.982 18.63 41.612 41.61 41.612 22.982 0 41.612-18.63 41.612-41.612.001-22.98-18.629-41.611-41.612-41.611zm0 80.502c-21.477 0-38.888-17.412-38.888-38.891 0-21.478 17.411-38.889 38.888-38.889 21.479 0 38.891 17.411 38.891 38.889 0 21.479-17.412 38.891-38.891 38.891z"/><path fill="#64A7DE" d="M53.062 52.409c6.876 0 12.559 5.156 13.414 11.803h9.621c-.993-11.507-10.095-12.858-10.5-12.912l-.134-.023c-6.571-1.409-10.686-2.334-13.662-3.269H14.39a34.41 34.41 0 0 0 3.209 16.204h22.05c.855-6.647 6.538-11.803 13.413-11.803zM43.834 43.797c-10.346-8.139-19.962-12.412-23.399-13.796A34.368 34.368 0 0 0 14.72 44.54h30.084c-.316-.235-.638-.48-.97-.743z"/><path fill="#6D6E70" d="M48.908 15.022c-10.52 0-19.937 4.707-26.274 12.124 4.2 1.752 13.36 6.072 23.344 13.926 2.016 1.585 3.589 2.542 6.361 3.467h.437v.142c2.786.888 6.759 1.776 13.382 3.198 1.233.212 13.006 2.659 13.475 17.52a34.406 34.406 0 0 0 3.836-15.818c-.001-19.087-15.474-34.559-34.561-34.559z"/><path fill="#64A7DE" d="M53.062 79.483c-6.875 0-12.559-5.156-13.414-11.804h-20.18c6.084 9.874 16.992 16.459 29.439 16.459 12.449 0 23.357-6.585 29.441-16.459H66.477c-.856 6.648-6.539 11.804-13.415 11.804z"/><circle fill="#FFF" cx="53.062" cy="65.946" r="2.879"/></svg>