<svg xmlns:xlink="http://www.w3.org/1999/xlink"  version="1" xmlns="http://www.w3.org/2000/svg" viewBox="0 0 150 150"><path fill="#9CC7D3" d="M119.2 80.2c-.8 1.1 1.1-.9-.1-.1 18.9 38.4 8.1 56.9 2.3 62.5 2.9-2.7 6.5-5.9 9.1-8.6 1.7-2.1 4.1-4.7 5.8-6.8 6-11.1-5.8-31.5-17.1-47"/><path fill="#224859" d="M89.7 111.9L69.5 95.4c2.5-5.4 3.4-11.1 2.3-16.1-.8-4.4-2.8-8.6-6.3-12.5-7.8-8.6-19.4-11.7-30-9l15.4 17.1-5.2 15.8-16.2 3.6-15.4-17.1c-3.8 10.3-1.9 22.2 5.8 30.8 3.5 3.9 7.6 6.4 11.9 7.6 4.8 1.5 10.5 1.2 16.1-.7l2.1 1.6c-.1.1 3.2 2.5 4.9 3.8 0 0 10.6 7.9 10.7 7.8 18 12.9 39 26.2 54.8 15.5 3.1-2.7 7-6.5 10-9.5 1.9-1.9 4-4.8 5.8-6.8-5.3 6.7-21.5 3.5-46.5-15.4"/><path fill="#AEC5D7" d="M35.3 68.4c.8-1.1-1.1.9.1.1-18.8-38.4-11-53.9-5.2-59.5-2.9 2.7-6.5 5.9-9.1 8.6-1.7 2-4.1 4.7-5.8 6.8-6 11.1 8.8 28.6 20 44"/><path fill="#2483A7" d="M61.9 39.8l20.2 16.5c-2.5 5.4-3.4 11.1-2.3 16.1.8 4.4 2.8 8.6 6.3 12.5 7.8 8.6 19.4 11.7 30 9l-15.4-17.1 5.2-15.8 16.2-3.6 15.4 17.1c3.8-10.3 1.9-22.2-5.8-30.8-3.5-3.9-7.6-6.4-11.9-7.6-4.8-1.5-10.5-1.2-16.1.7l-2.1-1.6c.1-.1-3.2-2.5-4.9-3.8 0 0-10.6-7.9-10.7-7.8-18-13-39-26.2-54.8-15.5-3.1 2.7-7 6.5-10 9.4-1.9 1.9-4 4.8-5.8 6.8 5.2-6.6 21.4-3.5 46.5 15.5"/></svg>