<svg xmlns:xlink="http://www.w3.org/1999/xlink"  xmlns="http://www.w3.org/2000/svg" width="100" height="100" viewBox="0 0 100 100"><g fill="#808184"><path d="M46.282 11.764c2.467-.008 4.943-.116 7.401.075 0 1.005 0 2.01.008 3.016.931.166 1.854.315 2.8.464a110.725 110.725 0 0 0-.964 5.125c-6.429-1.08-13.249-.257-18.972 2.949-7.044 3.754-12.127 10.674-14.021 18.391-1.778-.066-3.538-.032-5.316-.041.449-2.426 1.213-4.794 2.16-7.052a30.6 30.6 0 0 1-2.666-1.662c1.238-2.11 2.334-4.303 3.738-6.313a23.597 23.597 0 0 0 2.799 1.47c1.861-2.724 4.319-4.983 6.912-6.994-.565-.914-1.122-1.835-1.462-2.857 2.06-1.063 4.004-2.375 6.081-3.422.939.366 1.196 1.736 1.811 2.525 3.082-1.246 6.304-2.168 9.619-2.55.014-1.047.03-2.077.072-3.124zM77.29 54.344c1.795-.008 3.589-.008 5.383-.008-.399 2.409-1.279 4.676-2.068 6.96.739.765 1.818 1.081 2.591 1.828-1.27 1.944-2.275 4.07-3.57 6.014-1.039.084-1.903-.904-2.841-1.295-2.02 2.666-4.412 5.001-7.036 7.068.498.872.996 1.736 1.511 2.608-1.993 1.438-4.219 2.509-6.32 3.771a19.175 19.175 0 0 1-1.554-2.633c-3.14 1.163-6.354 2.144-9.686 2.534-.017 1.021-.017 2.043-.033 3.064-2.459.134-4.926.075-7.384.033a125.848 125.848 0 0 1-.042-3.065c-.947-.166-1.894-.332-2.841-.473.357-1.612.623-3.24.964-4.851l.225-.383c6.039 1.313 12.55.34 18.049-2.458 7.334-3.67 12.825-10.731 14.652-18.714z"/></g><g fill="#1B75BB"><path d="M13.379 47.79c5.433-.041 10.873.066 16.314-.059.282 5.284 2.226 10.583 6.13 14.264 2.758 2.716 6.329 4.551 10.1 5.291-.481 2.882-1.146 5.724-1.561 8.614-.341 1.61-.606 3.238-.964 4.851a104.775 104.775 0 0 0-.647 3.339c-12.111 0-24.222.084-36.333-.041 2.393-12.07 4.627-24.173 6.961-36.259zM57.196 11.947c12.069.025 24.13.017 36.209 0a2330.716 2330.716 0 0 1-6.953 36.374c-5.457-.074-10.906-.016-16.355-.033.1-9.221-6.961-17.909-16.099-19.454.391-2.816 1.047-5.582 1.528-8.39.283-1.711.599-3.422.964-5.125.216-1.121.449-2.251.706-3.372zM46.141 36.602c6.379-2.326 14.004 1.901 15.467 8.505 1.794 6.404-2.8 13.623-9.354 14.711-6.213 1.413-12.925-3.048-14.088-9.303-1.362-5.799 2.309-12.154 7.975-13.913z"/></g></svg>