<svg xmlns:xlink="http://www.w3.org/1999/xlink"  version="1" xmlns="http://www.w3.org/2000/svg" viewBox="0 0 150 150"><path fill="none" d="M81.1 17.8h.3c-.1.1-.2.1-.3 0zM98 63c-1-1.8-1.4-3.4-1.9-4.6-.5-1.3-1-2.6-1.6-3.9-.5-1.3-1-2.5-1.4-3.4-.1-.5-.5-.9-1-1.4-.6-.5-1.1-.7-1.7-.7H58.5c-.6 0-1.2.2-1.7.7-.6.5-.9.9-1 1.4-.4.9-.8 2-1.3 3.3-.5 1.4-1.1 2.7-1.6 3.9-.5 1.3-.9 2.8-1.9 4.7h47zm-43.5-2c.2-1 .5-1.2.7-1.7l.1-.2 1.5-3.8c.5-1.3 1-2.5 1.3-3.3l.1-.2v-.1s.1-.3.3-.4c.1-.1.2-.3.2-.3h31.8s.1.2.2.3c.1.1.2.3.3.3v.1l.1.2c.4.9.8 2 1.3 3.4.5 1.3 1 2.7 1.5 3.9.2.5.4.8.7 1.8H54.5z"/><path fill="#F58621" d="M99.1 76.8c.7 0 1.3-.2 1.9-.8.5-.5.7-1 .7-1.7 0-.8-.3-1.5-.8-2.1-.5-.6-1.1-.8-1.8-.8s-1.3.2-1.8.8c-.7.8-.8 1.4-.8 1.8 0 .7.2 1.3.8 1.9.6.7 1.1.9 1.8.9zM92.2 55.3c-.5-1.4-1-2.5-1.3-3.3l-.1-.2v-.1s-.1-.3-.3-.4c-.1-.1-.1-.3-.2-.3H58.6s-.1.2-.2.3c-.1.1-.2.3-.3.3v.1l-.1.2c-.4.9-.8 2-1.3 3.4l-1.5 3.8-.1.2c-.1.5-.3.7-.6 1.7h39.8c-.2-1-.5-1.2-.7-1.8-.4-1.2-.9-2.6-1.4-3.9zM49.8 71.5c-.7 0-1.3.2-1.8.8-.6.6-.8 1.3-.8 2.1 0 .7.2 1.2.8 1.6.8.7 1.4.8 1.8.8.7 0 1.3-.2 1.8-.8.6-.6.8-1.2.8-1.9 0-.5-.1-1.1-.8-1.8-.5-.6-1.1-.8-1.8-.8z"/><path fill="#FFF" d="M94.1 74.1c0 1.3.5 2.5 1.5 3.6 1 1 2.2 1.6 3.5 1.6 1.4 0 2.5-.5 3.5-1.4 1-.9 1.5-2.1 1.5-3.4 0-1.4-.5-2.7-1.5-3.7-1-1.1-2.2-1.6-3.6-1.6-1.3 0-2.5.5-3.5 1.6-.9.9-1.4 2-1.4 3.3zm3.2-1.8c.5-.6 1.1-.8 1.8-.8s1.3.2 1.8.8c.6.6.8 1.3.8 2.1 0 .7-.2 1.2-.7 1.7-.6.5-1.1.8-1.9.8-.7 0-1.3-.2-1.8-.8-.6-.6-.8-1.2-.8-1.9 0-.5.1-1.1.8-1.9zM49.8 69.1c-1.4 0-2.6.5-3.6 1.6s-1.5 2.3-1.5 3.7c0 1.4.5 2.5 1.6 3.4 1.1 1 2.2 1.4 3.4 1.4 1.4 0 2.5-.5 3.5-1.6 1-1 1.5-2.2 1.5-3.6 0-1.3-.5-2.5-1.5-3.5-.9-.9-2-1.4-3.4-1.4zm1.8 6.9c-.5.6-1.1.8-1.8.8-.4 0-1-.1-1.8-.8-.5-.5-.8-1-.8-1.6 0-.8.3-1.5.8-2.1.5-.6 1.1-.8 1.8-.8s1.3.2 1.8.8c.7.8.8 1.4.8 1.8 0 .8-.2 1.3-.8 1.9z"/><path fill="#4A4A4C" d="M94.6 100.1c.4.5.9.9 1.4 1.3.6.4 1.1.6 1.8.8.6.2 1.2.3 1.6.3.6 0 1.4-.1 2.1-.3.8-.2 1.3-.6 1.7-1.2.3-.3.8-.7 1.1-1.3.3-.6.7-.9.7-.9V91h5V70.1c0-.8-.1-1.6-.5-2.2-.4-.6-.9-1.2-1.5-1.8-.6-.5-1.3-1-2-1.4-.7-.4-1.3-.8-1.9-1.1-.2 0-.3-.1-.3-.3L98 48.7c-.2-.5-.5-1.1-.9-1.7-.4-.6-.9-1.1-1.4-1.6-.5-.5-1.1-.7-1.7-1.1-.6-.3-1.2-.3-1.8-.3H56.7c-.8 0-1.5 0-2.1.4-.6.4-1.2.8-1.8 1.4-.5.6-1 1.2-1.4 1.9-.4.7-.7 1.3-.9 1.8-.2.5-.5 1.4-1.1 2.7-.5 1.3-1.1 2.6-1.7 4.1-.6 1.4-1.2 2.8-1.7 4.1-.5 1.3-.9 2.3-1.1 2.8l-.3.3c-.6.3-1.3.7-2 1.1-.7.4-1.4.8-1.9 1.4-.6.5-.9 1.1-1.3 1.8s-.4 1.4-.4 2.3V91h4.8l.2.2v7.6c0 .1.3.4.6 1 .4.5.7.9.9 1.2.5.5 1.1.9 1.9 1.2.8.3 1.5.4 2.2.4.5 0 1-.1 1.6-.3.6-.2 1.2-.5 1.7-.9s1-.8 1.4-1.3c.4-.5.6-1 .6-1.6V91h39v7.4c.1.6.3 1.1.7 1.7zm4.5-31c1.4 0 2.6.5 3.6 1.6s1.5 2.3 1.5 3.7c0 1.4-.5 2.5-1.5 3.4-1 1-2.2 1.4-3.5 1.4-1.3 0-2.5-.5-3.5-1.6-1-1-1.5-2.2-1.5-3.6 0-1.3.5-2.5 1.5-3.5.9-.9 2.1-1.4 3.4-1.4zm-45.8 8.6c-1 1-2.2 1.6-3.5 1.6-1.2 0-2.4-.5-3.4-1.4-1.1-.9-1.6-2.1-1.6-3.4 0-1.4.5-2.7 1.5-3.7 1-1.1 2.2-1.6 3.6-1.6s2.5.5 3.5 1.6c1 1 1.5 2.2 1.5 3.5-.1 1.2-.6 2.4-1.6 3.4zM51 63c1-1.9 1.4-3.4 1.9-4.7.5-1.3 1-2.6 1.6-3.9.5-1.3 1-2.5 1.3-3.4.1-.5.5-.9 1-1.4.6-.5 1.1-.7 1.7-.7h31.9c.5 0 1.1.2 1.6.7.6.5.9.9 1 1.4.4.9.8 2 1.3 3.3.5 1.4 1.2 2.7 1.7 3.9.5 1.3.9 2.8 1.9 4.6H51z"/><path fill="#F58621" d="M24.8 68c0-1 .1-.8.1-1.1 4.5-27.7 30.5-46.5 58.3-42 22.5 3.6 39.2 21.1 42.2 43.1h6.4c-.8-7-2.4-12.1-5-17.5.1.2.2.3.3.6l12.1-8.1-13.7 4.8c.3.6.6 1.3.9 1.9-2.2-4.5-5-8.7-8.3-12.5.5.5 1 1.1 1.4 1.6l9.7-10.8-12 8.1c0 .1.1.1.1.2-2.8-3.1-6-5.9-9.5-8.4.5.3 1 .6 1.4 1l6.7-12.8-9.6 10.8c.4.3.8.5 1.1.8-3.5-2.4-7.4-4.5-11.5-6.1.3.1.5.2.8.3l3.3-14-6.6 12.8.9.3c-3.3-1.2-6.7-2.1-10.2-2.7-.6-.1-1.1-.2-1.7-.2.2 0 .3 0 .5.1l-.2-14.4-3.2 13.9c-4-.3-7.9-.2-11.8.3.3 0 .6-.1.9-.1L64.8 4.1l.3 14.2c.3-.1.7-.1 1-.2-8.9 1.4-17.2 4.9-24.3 10l.1-.1-9.8-10 7.1 12.2c.6-.5 1.1-.9 1.7-1.3-3.9 2.9-7.5 6.4-10.6 10.3.3-.4.7-.9 1-1.3l-12.1-7.3 9.9 10.1c.1-.1.2-.2.2-.3-2.7 3.6-5 7.5-6.8 11.6.3-.7.6-1.3.9-2L9.9 45.9 22 53.2c.1-.3.2-.5.3-.8-1.8 4.2-3.1 8.9-3.8 13.6-.1.6-.2 1.1-.2 2.1h6.5zm56.6-50.1h-.3.3z"/><path fill="#F58621" d="M54.7 21.3L47.6 9l3.9 13.6c1-.4 2.1-.9 3.2-1.3zM131.4 64.6l13.8-4.8-14.5 1.3c.3 1.2.5 2.3.7 3.5zM4.9 63l13.5 4c.1-.5.1-.9.2-1.4.1-.7.2-1.4.4-2.1L4.9 63zM139.3 107.8l-12.1-8-.3.6c2.5-5.4 4.2-11.4 5-17.4h-6.4c-3.1 22-19.7 39.5-42.2 43.1-27.7 4.4-53.8-14.5-58.3-42.2 0-.3-.1.1-.1-.9h-6.4c0 1 .1.7.1 1 0-.1 0-.2-.1-.4L4.9 87.7l14.1-.5c-.1-.7-.3-1.4-.4-2.1.7 4.6 2 9.1 3.8 13.2l-.3-.6L10 105l13.5-4.1c-.3-.6-.6-1.2-.9-1.9 1.8 4.1 4.1 8 6.8 11.5-.1-.1-.2-.2-.2-.3l-9.9 10.1 12.1-7.3c-.4-.4-.7-.9-1-1.3C33.5 115.6 37 119 41 122c-.6-.4-1.2-.9-1.7-1.3l-7.1 12.2 9.9-10.1-.1-.1c7.1 5.1 15.5 8.5 24.3 10-.4-.1-.7-.1-1-.2l-.3 14.2 3.8-13.7c-.3 0-.6-.1-.9-.1 3.8.5 7.8.6 11.7.3l3.2 13.9.3-14.3c.4-.1.8-.1 1.2-.2 3.6-.6 7-1.5 10.2-2.7l-.9.3 6.6 12.8-3.3-14c-.3.1-.5.2-.8.3 4.1-1.6 8-3.7 11.6-6.2-.4.3-.8.6-1.3.9l9.6 10.8-6.7-12.8c-.5.4-1.1.7-1.6 1.1 3.6-2.5 6.8-5.3 9.7-8.5-.1 0-.1.1-.1.2l12 8.1-9.7-10.8c-.4.6-.9 1.1-1.4 1.6 3.3-3.8 6.1-8 8.3-12.5-.3.6-.6 1.3-.9 1.9l13.7 4.7z"/><path fill="#F58621" d="M47.6 141.8l7.1-12.3c-1.1-.4-2.2-.9-3.2-1.4l-3.9 13.7zM130.7 89.7l14.5 1.3-13.8-4.8c-.2 1.1-.4 2.3-.7 3.5z"/><path fill="#4A4A4C" d="M120 70h19v11h-19zM9 70h19v11H9z"/></svg>