<svg xmlns:xlink="http://www.w3.org/1999/xlink"  version="1" xmlns="http://www.w3.org/2000/svg" viewBox="0 0 150 150"><path fill="#A6A8AB" d="M45.8 69.6c11.8-2.9 21.4-5.1 30.1-6.9 11.6-2.4 21.2-4.1 30.2-5.3 2.8-.3 5.2-.6 7.5-.8 2.7-.3 5.1-.4 7.5-.5 1.7-.1 3.4-.1 5-.1-.4.4-.8.8-1.1 1.2-1.3 1.5-2.6 3-3.8 4.5-1.4 1.6-2.6 3.2-3.7 4.7-1.3 1.7-2.4 3.3-3.4 4.9-.5.7-.9 1.5-1.4 2.2-11.3-2-42.6-6.7-74.7-1.9 2.7-.7 5.2-1.4 7.8-2z"/><path fill="#4E5E6A" d="M133.7 51.7l-2.7 3c-1.5 1.7-3 3.4-4.4 5.1-1.4 1.7-2.8 3.5-4.2 5.4-1.4 1.8-2.7 3.7-3.9 5.6-1.2 1.8-2.3 3.6-3.5 5.4-1.2 1.7-2.5 3.4-3.8 5-1.3 1.6-2.8 3.1-4.3 4.5s-3.1 2.7-4.8 3.9c-1.7 1.2-3.5 2.2-5.3 3.1-3.7 1.9-7.7 3.2-11.9 4-4.2.9-8.5 1.3-12.8 1.4-4.4.1-8.7-.1-13.2-.5 4.3 1.2 8.6 2.1 13.1 2.7 4.4.5 9 .7 13.5.3 2.3-.2 4.5-.5 6.8-1 2.2-.5 4.5-1.2 6.7-2 4.3-1.7 8.5-4 12.1-7 1.8-1.5 3.6-3 5.2-4.7 1.6-1.7 3.1-3.4 4.6-5.2 1.4-1.8 2.8-3.6 4.1-5.4 1.2-1.7 2.5-3.4 3.9-5.1 1.3-1.6 2.7-3.3 4.1-4.9 1.4-1.6 2.9-3.2 4.4-4.8 1.5-1.5 3-3.1 4.5-4.6l2.3-2.3 1.2-1.1 1.1-1.1c1.8-1.6 1.9-4.4.2-6.2-.7-.7-1.5-1.2-2.5-1.3-3.2-.5-6.3-.8-9.4-.9-3.1-.1-6.2-.1-9.3 0-3.1.1-6.1.4-9.1.7-3 .3-6 .7-9 1.1-1 .2-2.1.3-3.1.5-.2-.2-10.9-10.5-12.3-11.5l-.7-.5-54.9 5.5s9.3 17.3 10.4 19c.4.6.8 1.2 1.2 1.7-3.4 1.1-6.8 2.3-10.2 3.5-5.6 2-11.2 4.1-16.8 6.3-2.8 1.1-5.6 2.2-8.3 3.4-2.8 1.2-5.5 2.4-8.2 3.6 11.6-2.9 23.1-5.9 34.7-8.7 11.5-2.8 23.1-5.5 34.7-8 11.6-2.4 23.2-4.6 34.8-6.1 2.9-.4 5.8-.7 8.7-1 2.9-.3 5.8-.5 8.7-.6 2.3-.2 4.9-.3 7.6-.2zm-55.4-1.2c-2.2.5-21.3 5.8-28.5 8.2-.2-.8-8.6-17.5-8.9-18.1 1.7-.3 31.1-2.8 31.3-2.9l6.1 12.8zm21.7-4.6c-.6.1-14.2 2.8-15.9 3.2l-5.4-13c-.2 1 10.9-1 11.8-.9 1.1 1 8.5 10.1 9.5 10.7z"/><path fill="#00A2DF" d="M19.2 76.3c12.4 26.5 62.4 30.8 62.4 30.8 70.9 5.9 46.1-27.4 46.1-27.4 16.9 6.3 16.9 14.5 16.9 14.5C146.8 120.7 91 116 91 116c-23.5-2.8-39.3-7.8-49.9-13.3 24.4 16.5 58.9 22.1 58.9 22.1-81.6-5.6-81.1-43.6-80.8-47.8-.1-.4 0-.7 0-.7z"/></svg>