<svg xmlns:xlink="http://www.w3.org/1999/xlink"  xmlns="http://www.w3.org/2000/svg" width="100" height="100" viewBox="0 0 100 100"><path fill="#231F20" d="M55.758 27.583l2.14 10.763s-6.323 8.269-15.341 2.889l-2.091-10.562s-6.178 5.43-4.334 14.547c1.841 9.117 11.307 10.358 11.307 10.358L60.49 94.439l-.301-41.998s6.978-5.378 4.833-14.395c-2.139-9.016-9.264-10.463-9.264-10.463z"/><radialGradient id="a" cx="48.814" cy="16.627" r="47.885" gradientUnits="userSpaceOnUse"><stop offset="0" stop-color="#ffdd15"/><stop offset=".218" stop-color="#f6921e"/><stop offset=".327" stop-color="#f05a28"/><stop offset=".412" stop-color="#ec1c24"/><stop offset=".527" stop-color="#be1e2d"/><stop offset="1" stop-color="#3b0000"/></radialGradient><path fill="url(#a)" d="M85.845 40.63a36.816 36.816 0 0 0-.783-4.071l3.84-2.787-1.375-3.374-1.376-3.374-4.709.683a35.09 35.09 0 0 0-2.536-3.828l2.46-4.071-2.579-2.577-2.569-2.577-4.073 2.462a35.265 35.265 0 0 0-3.435-2.314l.745-4.694-3.357-1.417-3.357-1.416-2.837 3.806a35.746 35.746 0 0 0-4.508-.902L54.253 5.56H46.969l-1.146 4.621a35.525 35.525 0 0 0-4.067.783L38.97 7.125l-3.374 1.371-3.375 1.373.683 4.709a35.623 35.623 0 0 0-3.828 2.541l-4.074-2.462-2.574 2.577-2.577 2.577 2.462 4.071A35.485 35.485 0 0 0 20 27.316l-4.697-.745-1.413 3.355-1.417 3.357 3.809 2.841a35.02 35.02 0 0 0-.905 4.508l-4.621 1.14v7.286l4.621 1.141c.186 1.38.442 2.74.781 4.068l-3.839 2.785 1.373 3.376 1.373 3.372 4.709-.684a36.015 36.015 0 0 0 2.541 3.831l-2.462 4.068 2.577 2.579 2.574 2.574 4.074-2.459a35.16 35.16 0 0 0 3.433 2.312l-.745 4.698 3.357 1.414 3.355 1.414 2.841-3.807c1.466.397 2.976.698 4.504.907l1.146 4.613h4.7l-5.11-15.21c-11.86-1.935-20.918-12.228-20.918-24.639 0-13.79 11.181-24.968 24.968-24.968 13.792 0 24.968 11.178 24.968 24.968 0 8.108-3.868 15.312-9.857 19.877l.124 16.953 3.152-1.284-.684-4.708a36.69 36.69 0 0 0 3.831-2.541l4.073 2.459 2.569-2.574 2.579-2.574-2.46-4.073a35.363 35.363 0 0 0 2.313-3.434l4.694.745 1.418-3.357 1.419-3.357-3.81-2.843c.396-1.467.697-2.972.907-4.504l4.618-1.141V41.77l-4.618-1.14z"/></svg>