<svg xmlns:xlink="http://www.w3.org/1999/xlink"  version="1" xmlns="http://www.w3.org/2000/svg" viewBox="0 0 150 150"><path fill="none" d="M50.3 86.4l-.3.1c.1.5.3.9.5 1.3h.4c-.3-.4-.5-.8-.6-1.4zM45.2 75.4c-1.2 0-2.4.1-3.5.2 1 .9 2.1 1.8 3.1 2.7-.2-1.2 0-2.2.4-2.9z"/><path d="M56.5 63.9l-3.7-3.7c-5-.5-9.9-.8-14.7-1.1 1.4 1.3 2.8 2.7 4.2 4 1.4 1.3 2.8 2.7 4.2 3.9 4.5.2 9 .3 13.7.6l-3.7-3.7zM22.6 58.7c-5.7.1-11.2.2-16.7.4 1.8 1.5 3.5 2.9 5.2 4.4 1.7 1.5 3.5 2.9 5.2 4.4 5.1-.3 10.3-.6 15.7-.8-1.6-1.4-3.2-2.8-4.7-4.2s-3.1-2.8-4.7-4.2zM79 94.2zM58.4 89.5s-1.2.2-2.2.3c-.1.2-.2.3-.2.3s-2.5.5-3.6.5c-.8 0-2-.6-2.8-2.7-3.3.2-6.5.5-9.6.8 4.2 3.2 8.4 6.3 12.6 9.6 7.7-1.9 16.3-3.2 25.6-4-4.6-1.1-15.3-3.8-19.5-4.9-.1 0-.2.1-.3.1zM136.8 88.6l6.6 1.2c-.2-.6-.5-1.2-.7-1.9-.2-.7-.5-1.3-.7-1.9-2.4-.6-4.9-1.2-7.3-1.7.3.7.7 1.5 1 2.2.4.7.8 1.4 1.1 2.1z"/><path d="M45.8 74.7l3.9-.5c.9-.7 1.8-1.2 2.7-1.7L50.9 71c-1.4-1.3-2.8-2.6-4.2-4H32.2c1.6 1.4 3.2 2.8 4.7 4.3 1.6 1.4 3.2 2.8 4.7 4.2 1.2-.1 2.4-.1 3.5-.2.2-.2.4-.5.7-.6zM139.9 80.4c-.2-.7-.5-1.3-.7-1.9-2.8-.9-5.7-1.9-8.6-2.8.4.7.7 1.5 1 2.2.3.7.7 1.4 1 2.1 2.6.8 5.3 1.5 7.9 2.3-.1-.7-.3-1.3-.6-1.9zM115.9 76.2c-.1-.1-.2-.3-.3-.5-3-.7-6-1.3-9-1.9.1.2.2.3.3.5 3 .4 6.2 1 9 1.9zM82.5 68.4c.3 0 1 .4 1.9.9l-2.1-2.4c-.9-1.1-1.9-2.2-2.8-3.3-4.6-.7-9.2-1.4-13.6-2 1.1 1.2 2.2 2.4 3.3 3.5.8.9 1.7 1.8 2.5 2.7 4-.2 7.8.1 10.8.6zM94 72.4c.8-.1 1.6-.1 2.3-.1-.2-.2-.3-.4-.5-.6-3.2-.5-6.3-1-9.4-1.5 1.9 1 3.9 2.2 4.6 2.6 1-.1 2-.3 3-.4zM66.8 68.1c-2.2-.2-4.4-.3-6.6-.5.4.5.9.9 1.3 1.3 1.8-.3 3.6-.6 5.3-.8zM104.6 71c-.7-1-1.4-1.9-2-2.9-3.9-.9-7.8-1.7-11.7-2.5.8 1.1 1.6 2.1 2.4 3.1.8 1 1.6 2 2.5 3 3.6.7 7.2 1.3 10.9 2.1-.8-.9-1.4-1.9-2.1-2.8z"/><path d="M127.3 82.7c2.5.6 5 1.1 7.4 1.6-.4-.7-.7-1.4-1-2.1-.3-.8-.7-1.4-1-2.2l-8.1-2.1c.5.8.9 1.6 1.4 2.4.4.8.8 1.6 1.3 2.4zM110.6 93.6c11.5.4 23.5 1.4 35.5 3l-.8-2.4c-9.9-2.1-19.9-3.7-30-4.8-1.1 1.1-2.8 2.7-4.7 4.2z"/><path d="M120.7 83.6c.6.9 1.2 1.8 1.7 2.7 2.5.4 5.1.8 7.6 1.2-.4-.8-.9-1.6-1.4-2.4-.4-.8-.9-1.6-1.3-2.4-2.8-.6-5.5-1.2-8.3-1.7.6.9 1.2 1.8 1.7 2.6zM44.9 79.8c-.1-.5-.2-1-.2-1.5-1-.9-2-1.8-3.1-2.7-5 .3-9.9.7-14.8 1.1 1.8 1.5 3.5 2.9 5.2 4.5 1.7 1.4 3.5 2.9 5.2 4.4 3.5-.4 7.1-.8 10.8-1.2-1.5-1.4-2.7-2.7-3.1-4.6zM123.2 75.5c-.4-.8-.9-1.6-1.3-2.4-3.2-.9-6.5-1.8-9.7-2.6.6.8 1.1 1.8 1.7 2.6.6.9 1.1 1.8 1.7 2.7l9 2.1c-.5-.8-.9-1.6-1.4-2.4z"/><path fill="none" d="M50 86.5l.3-.1"/><path fill="#FFF" d="M86.5 99.4z"/><path fill="#00B5E8" d="M96.9 94.5s1.6.7 3.3 1.1c.7.2 1.3.3 1.5.3.2-.1.6-.4 1.1-.7 2.8-2 6.9-5.3 8.3-7.1l.3-.3.3-.3s1.6-.8 2.5-1.4c.2-.4.6-2.2.7-3.1-.1-.2-1.8-1.2-1.8-1.2l.1-1.4c.3-.1.8-.2.8-.2l.4-2c-4.3-2.3-13.1-3.4-17.1-3.6 0 0-.1-.6-.5-.8-.4-.1-2.3-.5-5.2-.2-.8.1-1.7.2-2.7.4-1.2-.7-6.7-3.9-7.5-4-3.4-.6-8-.8-12.7-.4-2.5.2-5 .6-7.3 1.2-1.4.4-5.1 1.4-9.3 4.4l-3.5.4c-.8.4-1.3 2.3-.8 4.5.2.9.6 1.7 1.2 2.4.2.1 2.2 4.7 2.8.9.1-.6.4-1.2.8-1.4.9-.5 1.9.7 2.4 2.6.5 1.9.2 3.8-.7 4.2-.6.3-1.4-.2-1.9-1.2 0 .2-.1.4-.1.6.7 1.3 1.6 1.6 2.2 1.6.3 0 .6 0 1-.1.2-.3.5-.8.6-1.2.1.1.1.2.2.3.2.1.8.2 1.6.4.2-.3.5-.7.6-1.1.1.1.1.2.2.2 1.5.4 15.1 3.9 19.5 4.9l.1-.2c.4.7.7 1.1.7 1.1 1.4 2.4 3.7 3.8 6 3.6 1 0 4.5-.6 5.7-1.6.5-.6 1.3-1.6 1.3-3.5.5.9.8 1.4 1 1.7 0-.3.1-.5.1-.8.2.4.4.8.6 1.1 1.4-.1 3.2-.1 3.2-.1zm-11.4 2.8c-2.2.8-4.8-.8-6.2-3.6-.1-.2-.2-.5-.3-.7-.8-2.1-.6-4.3.3-5.8.4-.9 1.1-1.6 1.9-1.9 1.2-.4 2.4-.1 3.5.7.4.3.9.6 1.3 1 .7.7 1.3 1.7 1.7 2.7.4 1.2.6 2.3.4 3.4-.1 2-1.1 3.6-2.6 4.2z"/></svg>