<svg xmlns:xlink="http://www.w3.org/1999/xlink"  xmlns="http://www.w3.org/2000/svg" width="100" height="100" viewBox="0 0 100 100"><radialGradient id="a" cx="493.365" cy="33.546" r="57.127" gradientTransform="matrix(-1 0 0 1 526.117 0)" gradientUnits="userSpaceOnUse"><stop offset="0" stop-color="#ec1c24"/><stop offset=".089" stop-color="#d71920"/><stop offset=".275" stop-color="#b21318"/><stop offset=".461" stop-color="#950f12"/><stop offset=".645" stop-color="#810c0d"/><stop offset=".826" stop-color="#740a0b"/><stop offset="1" stop-color="#70090a"/></radialGradient><path fill="url(#a)" d="M25.527 55.854c-.514-2.317-2.066-4.457-4.212-5.773a9.808 9.808 0 0 0-3.544-1.319 10.142 10.142 0 0 0-3.841.104c-2.551.554-4.874 2.146-6.346 4.352a10.572 10.572 0 0 0-1.546 3.649 10.816 10.816 0 0 0-.075 3.97 10.618 10.618 0 0 0 1.393 3.724 10.634 10.634 0 0 0 2.671 2.923c2.117 1.598 4.857 2.322 7.437 1.991a9.962 9.962 0 0 0 6.563-3.611c1.586-1.948 2.333-4.488 2.042-6.846a9.991 9.991 0 0 1-.354 1.718 9.472 9.472 0 0 1-2.608 4.283c-1.604 1.519-3.704 2.395-5.816 2.467a8.736 8.736 0 0 1-3.087-.432 8.525 8.525 0 0 1-2.699-1.473 8.489 8.489 0 0 1-1.998-2.317 8.136 8.136 0 0 1-1.044-2.854 8.441 8.441 0 0 1 1.141-5.889 8.606 8.606 0 0 1 2.054-2.295 8.888 8.888 0 0 1 2.768-1.438 9.06 9.06 0 0 1 6.307.387 9.65 9.65 0 0 1 3.892 3.175c.343.468.634.976.902 1.504z"/><radialGradient id="b" cx="493.365" cy="33.545" r="57.128" gradientTransform="matrix(-1 0 0 1 526.117 0)" gradientUnits="userSpaceOnUse"><stop offset="0" stop-color="#ec1c24"/><stop offset=".089" stop-color="#d71920"/><stop offset=".275" stop-color="#b21318"/><stop offset=".461" stop-color="#950f12"/><stop offset=".645" stop-color="#810c0d"/><stop offset=".826" stop-color="#740a0b"/><stop offset="1" stop-color="#70090a"/></radialGradient><path fill="url(#b)" d="M15.802 59.07a54.96 54.96 0 0 0 3.362-1.689 91.657 91.657 0 0 0 3.27-1.84c1.073-.632 2.14-1.281 3.196-1.947a54.223 54.223 0 0 0 3.11-2.076c2.026-1.458 3.955-3.071 6.021-4.472a65.736 65.736 0 0 1 3.15-2.02 94.513 94.513 0 0 1 3.253-1.857c1.09-.607 2.197-1.194 3.276-1.819 1.084-.62 2.151-1.263 3.224-1.904 2.135-1.28 4.286-2.571 6.369-3.883l.378-.233.085-.049c.022-.013.058-.032.04-.023l.193-.091c.28-.125.531-.242.788-.34.508-.193.999-.308 1.444-.301.45.006.856.142 1.238.421.388.273.736.684 1.027 1.157l.108.183.113.202.229.399.462.815c.159.277.319.561.525.852.107.146.228.295.382.438.154.144.354.278.571.354.217.077.434.096.628.091.188-.006.364-.032.53-.07.337-.073.639-.169.941-.271.6-.208 1.182-.434 1.77-.67l-.052-.185c-.622.073-1.244.167-1.86.243-.303.038-.61.074-.896.078-.286.006-.549-.023-.686-.116-.257-.14-.491-.734-.719-1.292l-.343-.872a13.713 13.713 0 0 0-.183-.441l-.097-.217-.103-.231c-.303-.621-.691-1.246-1.278-1.763a3.861 3.861 0 0 0-2.181-.947c-.799-.084-1.552.073-2.22.288-.337.106-.656.234-.947.359l-.234.098c-.086.042-.12.062-.166.085l-.119.064-.428.244a74.763 74.763 0 0 0-3.179 2.015c-1.039.69-2.078 1.388-3.104 2.092a162.498 162.498 0 0 0-3.083 2.134c-1.016.725-2.009 1.487-3.013 2.229a103.344 103.344 0 0 1-3.036 2.197 66.344 66.344 0 0 1-3.139 2.04c-2.123 1.304-4.389 2.403-6.546 3.656a53.98 53.98 0 0 0-3.173 1.988 113.04 113.04 0 0 0-3.082 2.123 85.442 85.442 0 0 0-3.008 2.235 51.922 51.922 0 0 0-2.916 2.38l.108.159z"/><radialGradient id="c" cx="493.378" cy="33.54" r="57.125" gradientTransform="matrix(-1 0 0 1 526.117 0)" gradientUnits="userSpaceOnUse"><stop offset="0" stop-color="#ec1c24"/><stop offset=".089" stop-color="#d71920"/><stop offset=".275" stop-color="#b21318"/><stop offset=".461" stop-color="#950f12"/><stop offset=".645" stop-color="#810c0d"/><stop offset=".826" stop-color="#740a0b"/><stop offset="1" stop-color="#70090a"/></radialGradient><path fill="url(#c)" d="M14.022 59.013c0-.987.805-1.791 1.792-1.791s1.786.804 1.786 1.791a1.789 1.789 0 1 1-3.578 0zm.633 0a1.156 1.156 0 1 0 2.312-.006 1.156 1.156 0 0 0-2.312.006z"/><radialGradient id="d" cx="493.364" cy="33.548" r="57.111" gradientTransform="matrix(-1 0 0 1 526.117 0)" gradientUnits="userSpaceOnUse"><stop offset="0" stop-color="#ec1c24"/><stop offset=".089" stop-color="#d71920"/><stop offset=".275" stop-color="#b21318"/><stop offset=".461" stop-color="#950f12"/><stop offset=".645" stop-color="#810c0d"/><stop offset=".826" stop-color="#740a0b"/><stop offset="1" stop-color="#70090a"/></radialGradient><path fill="url(#d)" d="M42.545 41.36c.081-.37.137-.737.194-1.107.029-.187.058-.362.08-.559 0-.052.006-.104.006-.165-.006-.06 0-.132-.045-.238a.46.46 0 0 0-.12-.165.538.538 0 0 0-.165-.096c-.098-.034-.161-.038-.217-.048l-.154-.018a1.414 1.414 0 0 1-.125-.017l-.263-.043-.542-.092-1.096-.175a63.377 63.377 0 0 0-2.192-.28 64.287 64.287 0 0 0-2.202-.2l-2.158-.16 1.718 1.273c.074.054.177.146.269.227.091.084.177.172.268.261.171.177.332.369.479.568.291.396.514.825.616 1.283.022.116.04.23.051.348.012.117.006.233 0 .381-.005.29-.005.576.012.865.022.288.057.576.12.859.063.281.143.568.303.809-.069-.56.034-1.101.131-1.635.057-.266.114-.533.182-.794.029-.127.068-.288.086-.449.023-.16.028-.324.023-.485-.023-.652-.257-1.269-.571-1.802a5.937 5.937 0 0 0-.537-.752 7.777 7.777 0 0 0-.313-.34c-.114-.112-.211-.208-.354-.328L35.59 39.4a52.898 52.898 0 0 0 4.417.306c.371.005.742.013 1.113.01.188 0 .377-.004.565-.01l.285-.01c.063-.003.115-.011.155-.014l.125-.014c.035-.005.063-.005.057-.011-.005-.004-.022-.014-.046-.034-.022-.02-.034-.046-.034-.058-.006-.026.011-.001.017.028a.63.63 0 0 1 .023.115l.08.546c.055.369.118.736.198 1.106z"/><radialGradient id="e" cx="493.366" cy="33.545" r="57.126" gradientTransform="matrix(-1 0 0 1 526.117 0)" gradientUnits="userSpaceOnUse"><stop offset="0" stop-color="#ec1c24"/><stop offset=".089" stop-color="#d71920"/><stop offset=".275" stop-color="#b21318"/><stop offset=".461" stop-color="#950f12"/><stop offset=".645" stop-color="#810c0d"/><stop offset=".826" stop-color="#740a0b"/><stop offset="1" stop-color="#70090a"/></radialGradient><path fill="url(#e)" d="M70.808 50.438c-.892-.864-1.861-1.632-2.854-2.364a39.095 39.095 0 0 0-3.083-2.053 43.313 43.313 0 0 0-3.258-1.778 31.238 31.238 0 0 0-3.419-1.455c-2.352-.819-4.8-1.303-7.231-1.716-2.431-.418-4.874-.747-7.367-.788l-.085-.001-.109.054c-.388.188-.673.461-.918.742-.24.283-.44.585-.616.896a7.53 7.53 0 0 0-.765 1.988c-.154.699-.234 1.433-.143 2.19.085.749.342 1.551.879 2.223.268.333.604.622.97.842.359.221.765.378 1.141.476.799.203 1.547.193 2.255.148a20.59 20.59 0 0 0 2.02-.263c.656-.111 1.29-.239 1.917-.351 1.262-.233 2.5-.434 3.749-.547 1.25-.12 2.506-.137 3.767-.073.628.04 1.262.096 1.896.172a36.15 36.15 0 0 1 1.889.304 43.75 43.75 0 0 1 3.767.932l.08-.174a21.487 21.487 0 0 0-7.459-2.751c-2.66-.456-5.433-.336-8.041.126-1.301.217-2.58.522-3.767.669-.587.071-1.164.079-1.638-.01-.502-.097-.89-.299-1.199-.632-.302-.331-.514-.797-.616-1.333a5.793 5.793 0 0 1-.051-1.701 6.648 6.648 0 0 1 .411-1.725c.102-.274.234-.539.388-.775.148-.235.331-.441.513-.566l-.193.054c2.391-.28 4.845-.071 7.191.522 2.351.602 4.571 1.611 6.762 2.585l3.305 1.461c1.096.495 2.191 1.013 3.276 1.538 1.09.528 2.174 1.069 3.264 1.616l3.259 1.671.113-.153z"/><radialGradient id="f" cx="493.364" cy="33.544" r="57.129" gradientTransform="matrix(-1 0 0 1 526.117 0)" gradientUnits="userSpaceOnUse"><stop offset="0" stop-color="#ec1c24"/><stop offset=".089" stop-color="#d71920"/><stop offset=".275" stop-color="#b21318"/><stop offset=".461" stop-color="#950f12"/><stop offset=".645" stop-color="#810c0d"/><stop offset=".826" stop-color="#740a0b"/><stop offset="1" stop-color="#70090a"/></radialGradient><path fill="url(#f)" d="M45.941 48.663c-.491.32-.958.663-1.421 1.007-.467.345-.919.703-1.37 1.062-.445.365-.884.732-1.318 1.107-.434.374-.868.75-1.29 1.136l-.639.585.611.77c.64.797 1.295 1.55 1.975 2.291a28.215 28.215 0 0 0 2.14 2.138 23.52 23.52 0 0 0 2.408 1.876c.845.582 1.707 1.136 2.66 1.614.239.117.484.234.758.325a21.994 21.994 0 0 0 1.495.403 28.602 28.602 0 0 0 3.767.642c1.016.101 2.055.155 3.104.098 1.05-.054 2.111-.22 3.139-.537.52-.154 1.021-.351 1.513-.582.245-.113.496-.238.725-.367.251-.14.479-.277.708-.425.913-.585 1.718-1.251 2.471-1.793.753-.548 1.438-.933 2.135-1.092.69-.173 1.472-.141 2.322.031.839.173 1.718.479 2.591.833.873.361 1.746.772 2.62 1.209.873.439 1.758.888 2.637 1.354.878.462 1.757.94 2.671 1.383l.154-.202a31.344 31.344 0 0 0-2.141-2.157 30.673 30.673 0 0 0-2.341-1.952 23.47 23.47 0 0 0-2.585-1.718c-.912-.517-1.889-.976-2.979-1.289a7.781 7.781 0 0 0-1.729-.303 6.193 6.193 0 0 0-1.859.157 6.502 6.502 0 0 0-1.725.702 10.43 10.43 0 0 0-1.375.99c-.816.685-1.495 1.354-2.22 1.905a9.351 9.351 0 0 1-.543.392c-.193.128-.376.251-.576.368-.388.23-.793.448-1.204.65-1.655.799-3.532 1.345-5.479 1.398a12.456 12.456 0 0 1-2.899-.274 15.576 15.576 0 0 1-.708-.177 23.115 23.115 0 0 1-.69-.226c-.223-.089-.45-.18-.656-.277a4.292 4.292 0 0 1-.571-.355c-.747-.563-1.421-1.287-2.077-2.006-.656-.73-1.307-1.468-1.98-2.188a63.854 63.854 0 0 0-2.066-2.099 195.415 195.415 0 0 0-2.117-2.066l-.023 1.353c.371-.434.737-.874 1.102-1.319.36-.444.713-.896 1.067-1.352.348-.459.69-.92 1.027-1.393.332-.476.656-.953.965-1.452l-.184-.178z"/><radialGradient id="g" cx="493.358" cy="33.544" r="57.124" gradientTransform="matrix(-1 0 0 1 526.117 0)" gradientUnits="userSpaceOnUse"><stop offset="0" stop-color="#ec1c24"/><stop offset=".089" stop-color="#d71920"/><stop offset=".275" stop-color="#b21318"/><stop offset=".461" stop-color="#950f12"/><stop offset=".645" stop-color="#810c0d"/><stop offset=".826" stop-color="#740a0b"/><stop offset="1" stop-color="#70090a"/></radialGradient><path fill="url(#g)" d="M67.754 54.596a12.3 12.3 0 0 1 3.532-.102c1.142.13 2.231.425 3.242.873a11.987 11.987 0 0 1 2.803 1.729c.422.354.832.722 1.22 1.125.195.204.383.398.577.615s.416.462.628.686c.434.453.891.89 1.369 1.31.48.414.981.813 1.524 1.175 1.072.723 2.288 1.318 3.584 1.612 1.289.307 2.613.314 3.853.129a16.172 16.172 0 0 0 3.566-.98c-1.228-.053-2.437-.053-3.601-.17-1.164-.11-2.271-.33-3.287-.736-2.033-.792-3.727-2.294-5.332-3.949a27.317 27.317 0 0 1-.604-.636 13.59 13.59 0 0 0-.674-.688c-.473-.438-.963-.867-1.5-1.237a11.273 11.273 0 0 0-3.527-1.7 10.012 10.012 0 0 0-3.853-.286 9.493 9.493 0 0 0-1.849.423c-.593.202-1.163.459-1.671.807z"/></svg>