<svg xmlns:xlink="http://www.w3.org/1999/xlink"  version="1" xmlns="http://www.w3.org/2000/svg" viewBox="0 0 150 150"><path fill="#009649" d="M75.1 45.3l26.7 13.8 13.1 6.8 29.7 15.3V60.1l-26.3-13.5-3.1-1.6-39.4-20.1v20z"/><path fill="#00A550" d="M46.9 59.9l6.5-3.4 17.1-8.8 4.6-2.4.7-.4V24.3l-.7.3-.6.3L5.7 60.1v21.1l19.4-10z"/><path fill="#009649" d="M83.9 107.6l-.1-.1-.5-1.2.1-.1c1.5-3.4 1.4-3.5 1.1-3.8l-2-2c-.1-.1-.2-.1-.4-.1-.1 0-.5 0-3.4 1.4h-.1l-1.2-.5-.1-.1c-1.4-3.4-1.5-3.4-1.9-3.4h-2.8c-.3 0-.5 0-1.8 3.4v.1l-1.2.5h-.1c-2-.8-3.2-1.3-3.5-1.3-.1 0-.3.1-.4.1l-2 2c-.3.3-.4.4 1.2 3.7l.1.1-.5 1.2h-.1c-3.5 1.4-3.5 1.5-3.5 1.9v2.8c0 .4 0 .5 3.5 1.8h.1l.5 1.2v.1c-1.5 3.4-1.4 3.5-1.1 3.7l2 2c.1.1.2.1.3.1.1 0 .5 0 3.4-1.3l.1-.1 1.2.5.1.1c1.4 3.4 1.5 3.4 1.9 3.4h2.8c.4 0 .5 0 1.8-3.5v-.1l1.2-.5h.1c2 .8 3.2 1.3 3.5 1.3.1 0 .3-.1.4-.1l2-2c.3-.3.4-.4-1.2-3.7l-.1-.1.5-1.2h.1c3.5-1.4 3.5-1.5 3.5-1.9v-2.8c0-.1 0-.2-3.5-1.5zm-9.8 7.7c-2.5 0-4.6-2-4.6-4.5s2-4.5 4.6-4.5c2.5 0 4.6 2 4.6 4.5-.1 2.5-2.1 4.5-4.6 4.5zM108 108.6l-.4-.9v-.1c1-2.4 1-2.4.8-2.6l-1.4-1.4c-.1-.1-.2-.1-.2-.1-.1 0-.3 0-2.4.9h-.1l-.8-.3v-.1c-1-2.4-1.1-2.4-1.3-2.4h-2c-.2 0-.3 0-1.2 2.4v.1l-.8.3h-.1c-1.4-.6-2.2-.9-2.4-.9-.1 0-.2.1-.2.1l-1.4 1.4c-.2.2-.3.3.9 2.6v.1l-.3.8h-.1c-2.5.9-2.5 1-2.5 1.3v1.9c0 .2 0 .3 2.5 1.2h.1l.3.8v.1c-1 2.4-1 2.4-.8 2.6l1.4 1.4c.1.1.2.1.2.1.1 0 .3 0 2.4-.9h.1l.9.3v.1c1 2.4 1.1 2.4 1.3 2.4h2c.2 0 .4 0 1.2-2.4v-.1l.8-.4h.1c1.4.6 2.2.9 2.4.9.1 0 .2 0 .2-.1l1.4-1.4c.2-.2.3-.3-.9-2.6v-.1l.3-.8h.1c2.5-1 2.5-1.1 2.5-1.3v-1.9c-.1 0-.1-.1-2.6-1zm-6.8 5.4c-1.8 0-3.2-1.4-3.2-3.1 0-1.7 1.4-3.1 3.2-3.1 1.8 0 3.2 1.4 3.2 3.1 0 1.7-1.4 3.1-3.2 3.1zM54.2 108.6l-.4-.9v-.1c1-2.4 1-2.4.8-2.6l-1.4-1.4c-.1-.1-.2-.1-.2-.1-.1 0-.3 0-2.4.9h-.1l-.8-.3v-.1c-1-2.4-1.1-2.4-1.3-2.4h-2c-.2 0-.3 0-1.2 2.4v.1l-.8.3h-.1c-1.4-.6-2.2-.9-2.4-.9-.1 0-.2.1-.2.1l-1.4 1.4c-.2.2-.3.3.9 2.6v.1l-.3.8h-.1c-2.5.9-2.5 1-2.5 1.3v1.9c0 .2 0 .3 2.5 1.2h.1l.1 1.1v.1c-1 2.4-1 2.4-.8 2.6l1.4 1.4c.1.1.2.1.3.1.1 0 .3 0 2.4-.9h.1l.8.3v.1c1 2.4 1.1 2.4 1.3 2.4h2c.2 0 .4 0 1.2-2.4v-.1l.8-.4h.1c1.4.6 2.2.9 2.4.9.1 0 .2 0 .2-.1l1.4-1.4c.2-.2.3-.3-.9-2.6v-.1l.3-.8h.1c2.5-1 2.5-1.1 2.5-1.3v-1.9c.1-.3.1-.4-2.4-1.3zm-6.8 5.4c-1.8 0-3.2-1.4-3.2-3.1 0-1.7 1.4-3.1 3.2-3.1 1.8 0 3.2 1.4 3.2 3.1 0 1.7-1.4 3.1-3.2 3.1z"/><g fill="#009649"><path d="M125.2 80.3s-3.4-7.6-25.4-7.3c0 0-22-22.1-66.4 2.8 0 0 1 4.8-2.7 4.8-.7 3.6-1.5 8.4 1 10.9h6c-.1-.6-.2-1.2-.2-1.8 0-4.5 3.7-8.2 8.2-8.2 4.5 0 8.2 3.7 8.2 8.2 0 .6-.1 1.2-.2 1.8H100c-.1-.6-.2-1.2-.2-1.8 0-4.5 3.7-8.2 8.2-8.2 6.1 0 9.7 6.3 9 9.9l8.4-.9c-1.5-7.4-.2-10.2-.2-10.2zm-62.3-6H43.4s8.1-3.8 19.5-6v6zm4.2 0v-6.7c16.3-2.4 29.2 6.7 29.2 6.7H67.1z"/><path d="M107.8 83.3c-3.5 0-6.3 2.8-6.3 6.3s2.8 6.3 6.3 6.3 7.2-2.8 7.2-6.3-3.7-6.3-7.2-6.3zm0 8.8c-1.3 0-2.4-1.1-2.4-2.4 0-1.3 1.1-2.4 2.4-2.4 1.3 0 2.4 1.1 2.4 2.4 0 1.3-1.1 2.4-2.4 2.4zM45.5 83.3c-3.5 0-6.3 2.8-6.3 6.3s2.8 6.3 6.3 6.3 6.3-2.8 6.3-6.3-2.8-6.3-6.3-6.3zm0 8.8c-1.3 0-2.4-1.1-2.4-2.4 0-1.3 1.1-2.4 2.4-2.4 1.3 0 2.4 1.1 2.4 2.4 0 1.3-1.1 2.4-2.4 2.4z"/></g></svg>