<svg xmlns:xlink="http://www.w3.org/1999/xlink"  xmlns="http://www.w3.org/2000/svg" viewBox="0 0 150 150"><path fill-rule="evenodd" clip-rule="evenodd" fill="#30ACA4" d="M8.7 64.1c8.6 4 19.4 7.7 30.9 9.7-10.7-.1-19.3-1.3-25.9-2.7 2.2 2.8 4.7 5.4 7.3 7.8 7.8.8 15.6 1.2 23.9.6-7.6 1.8-13.7 2.7-19.5 3.2 2.7 2.2 5.6 4.2 8.7 6.1 5.6-.7 11.2-1.7 16.6-3.2-4.6 2.2-9 3.9-13.1 5.2 3.1 1.7 6.3 3.1 9.6 4.4 3.2-1.3 6.2-2.7 9.2-4.2-2.4-4.6-3.7-9.8-3.7-15.3 0-2.8.3-5.5 1-8.1C33.8 64.7 15.2 59 2.8 52.5c1.6 4.1 3.6 7.9 5.9 11.6zM140.3 63.2c-8.6 4-19.4 7.7-30.9 9.7 10.7-.1 19.3-1.3 25.9-2.7-2.2 2.8-4.7 5.4-7.3 7.8-7.8.8-15.6 1.2-23.9.6 7.6 1.8 13.7 2.7 19.5 3.2-2.7 2.2-5.6 4.2-8.7 6.1-5.6-.7-11.2-1.7-16.6-3.2 4.6 2.2 9 3.9 13.1 5.2-3.1 1.7-6.3 3.1-9.6 4.4-3.1-1.3-6.2-2.6-9.2-4.2 2.4-4.6 3.7-9.8 3.7-15.3 0-2.8-.3-5.5-1-8.1 19.9-2.9 38.5-8.6 50.9-15.1-1.7 4.1-3.6 7.9-5.9 11.6z"/><ellipse fill="#333" cx="84.2" cy="76.3" rx="7.1" ry="16.8"/><path fill="#333" d="M60.2 87.3c-.1-.3-.2-.7-.3-1v-.2c-.2-.8-.4-1.5-.5-2.3-.9-.8-3.7-3-6.4-3.6 0 .3.1.6.1 1v.3c0 .3.1.6.1.9v.2c.1.3.1.7.2 1v.1c.1.4.1.7.2 1.1v.1c2.3.3 5.1 2.1 6.7 3.2 0-.1-.1-.3-.1-.4v-.4zM62.5 52.9c-.1 0-.1 0 0 0-.1 0 0 0 0 0zM58.9 71.8v-.1c0-.3.1-.6.1-.9 0-.1 0-.2.1-.3 0-.3.1-.5.1-.8.1-.3.1-.7.2-1v-.2l.3-1.2c-.5-.9-1.9-3.2-4.4-3.5l-.3.9c-.1.1-.1.3-.2.4-.1.2-.2.5-.2.7 0 .1-.1.3-.1.4-.1.2-.1.5-.2.8 0 .1-.1.3-.1.4-.1.3-.1.5-.2.8 0 .1 0 .2-.1.2 2.2.2 4 2.2 5 3.4zM52.8 78.4c0 .3 0 .7.1 1 2.4.4 4.8 2.1 6.2 3.2v-.3c0-.2-.1-.4-.1-.5 0-.2 0-.4-.1-.5 0-.2 0-.4-.1-.6v-.4c0-.4-.1-.8-.1-1.3v-.3c-1.2-1.3-3.7-3.7-5.8-4V77c-.1.3-.1.8-.1 1.4 0-.1 0-.1 0 0zM60.6 98.2l.3.3.2.2.3.3.2.2c.1.1.2.2.3.2.1.1.2.1.2.2.1.1.2.1.3.2.1.1.2.1.2.2.1.1.2.1.3.2.1.1.2.1.2.2.1.1.2.1.3.2.1.1.2.1.3.1.1.1.2.1.3.2.1 0 .2.1.3.1.1 0 .2.1.3.1.1 0 .2.1.3.1.1 0 .2.1.3.1.1 0 .2.1.3.1.1 0 .2.1.3.1h2.6l-.3-.3c-.1-.1-3.7-2.5-8-3.7l.5.5c-.1.1-.1.1 0 .2zM65.4 54.5l.2-.2c.1-.2.2-.3.3-.5l.3-.3c.1-.2.2-.3.4-.5.1-.1.2-.3.3-.4.1-.1.2-.2.3-.4.2-.2.4-.5.6-.7l.1-.1c-.1 0-.2 0-.3.1-.2 0-.4.1-.6.1h-.1c-.3.1-.5.2-.8.2-.1 0-.2.1-.3.1-.2.1-.4.2-.7.3-.1.1-.2.1-.4.2s-.3.1-.5.2c-.1 0-.2.1-.3.1.6.8 1.1 1.4 1.5 1.8zM61.9 60.7c0-.1.1-.1.1-.2l.6-1.2c0-.1.1-.2.2-.3.2-.4.4-.7.6-1.1.5-.9 1-1.8 1.6-2.6-.4-.5-1-1.3-1.7-1.8 0 0-.1 0-.1.1-.2.1-.4.3-.6.4h-.1c-.2.1-.4.3-.6.4l-.1.1c-.2.1-.3.3-.5.4l-.2.2c-.1.1-.3.2-.4.4l-.2.2-.3.3-.3.3-.3.3-.3.3c-.1.1-.2.2-.2.3-.1.1-.2.3-.3.4l-.1.1c1.4.7 2.6 2 3.2 3zM59.9 66.2c.1-.2.1-.5.2-.7 0-.1 0-.2.1-.2.1-.4.2-.7.3-1 0-.1.1-.2.1-.3.1-.3.2-.6.3-1 .1-.3.2-.5.3-.8.1-.2.2-.5.3-.7-.5-.7-1.6-2.5-3.5-3-.2.3-.4.5-.5.8-.1.2-.2.3-.3.5-.1.2-.3.4-.4.7-.1.1-.2.3-.2.4-.1.2-.3.5-.4.8-.1.1-.1.2-.2.4-.1.3-.3.6-.4.9 0 .1-.1.1-.1.2 2.2.2 3.6 1.9 4.4 3zM55.1 91.6s-.1 0 0 0zM62.4 61.6c-.8 1.8-1.9 5.8-1.9 5.8-.7 2.9-1.1 5.9-1.1 8.9 0 .7.1 2.1.1 2.1.1 1.7.6 5.2.6 5.2.3 1.8.8 3.6 1.4 5.3l.1.2c.7 2 1.6 4 2.7 5.8.2.2 3.1 4.6 5 6.6h4.1c-1.6-1.6-3-3.5-4.2-5.4 0 0 0-.1-.1-.2-.9-1.4-1.7-2.9-2.3-4.5l-.1-.2c-.8-1.8-1.4-3.6-1.9-5.5 0 0-.8-3.6-.9-5.4 0 0-.2-2.8-.2-4 0-.7 0-1.4.1-2.2 0 0 .4-4.4.7-5.3.2-.9 1.1-4.6 1.9-6.5 0 0 1.7-3.8 2.7-5.4 0 0 .3-.5.5-.9 1-1.5 4.1-5 4.1-5.2-2.3-.1-4.7.7-4.7.7l-.6.6c-2.5 2.7-4.6 5.9-6 9.5 0-.1 0 0 0 0zM58.6 76.3v-1.7c0-.5.1-1.1.1-1.6v-.1c-.5-.7-2.5-3.6-5.2-3.8-.1.3-.1.6-.2.9 0 .1 0 .2-.1.4 0 .3-.1.5-.1.8 0 .1 0 .2-.1.3 0 .3-.1.5-.1.8v.3c0 .3-.1.5-.1.8v.2c2.1.3 4.5 2.4 5.7 3.6.1-.2.1-.5.1-.9zM56.8 93.2c.2.3.4.6.6 1 0 .1.1.2.1.2.2.3.4.7.6 1l.1.1c.2.3.5.7.7 1 3.1.7 5.8 2 7.4 3l-.1-.1c-.1-.1-.2-.2-.3-.4-.2-.3-.4-.6-.7-.9-.1-.1-.2-.2-.2-.3-.5-.7-1-1.5-1.5-2.3-1.2-.8-4.9-3.2-7.7-3.8.2.4.4.8.6 1.1.3.2.3.3.4.4zM55.4 90.4c.1.2.1.3.2.5 2.3.4 5.4 2 7.3 3.2-.1-.1-.1-.3-.2-.4-.1-.2-.2-.3-.2-.5-.1-.3-.3-.6-.4-.9-.1-.1-.1-.3-.2-.4-.2-.4-.4-.9-.6-1.3 0-.1-.1-.2-.1-.3l-.3-.9c-1.6-1.2-4.7-3.2-7-3.6l.3.9c.1.2.1.4.2.6.1.2.1.5.2.7.1.2.1.4.2.6.1.2.1.4.2.6.1.2.2.5.3.7 0 .2.1.3.1.5z"/><path fill="#333" d="M69.3 57.8c-.5.9-1 1.9-1.5 2.9 4.1-3 7.5-2.7 8.1-2.6.8-1.6 1.7-3.1 2.6-4.5-1.9.2-6 .8-8.4 2.9 0 0 0 .1-.1.1-.2.4-.4.8-.7 1.2.1 0 0 0 0 0z"/><path fill="#333" d="M66.2 64.8c0 .1 0 .1 0 0-.2.5-.3.9-.4 1.3 0 .1-.1.2-.1.3 0 .2-.1.3-.1.5 1.5-1.5 4.2-3.5 8.1-3.3.5-1.7 1.2-3.3 1.9-4.8-1-.1-4.6 0-8.4 3.5-.4.8-.7 1.7-1 2.5z"/><path fill="#333" d="M64.7 72.7c1.4-1.5 4.2-3.9 7.7-3.5.3-1.6.6-3.2 1.1-4.7-4.5-.1-7.3 3-8.2 4.2-.3 1.3-.5 2.6-.6 4zM73.1 52.6c-.2.2-.3.4-.5.6-.1.1-.2.3-.3.4-.2.2-.3.4-.5.6-.1.1-.2.2-.3.4 0 .1-.1.1-.1.2 2.9-1.5 6.6-1.9 7.8-2 .3-.4 1.4-1.6 1.5-1.9-2.9-.3-6.2-.1-6.2-.1-.4.5-1 1.3-1.2 1.5 0 .1-.1.2-.2.3zM72.7 77.6c.2 8.9 3 17.3 8 23.6.1.1.2.2.3.4h4.4c6.2-.9 11-11.8 11-25 0-12.6-5.1-22.8-10.2-24.6-2.3-1-4.5-.9-4.5-.9-5.5 6.2-9.3 16.2-9 26.5zm11.7-22c5.2 0 9.5 9.3 9.5 20.8s-4.3 20.8-9.5 20.8-9.5-9.3-9.5-20.8 4.2-20.8 9.5-20.8z"/><path fill="#333" d="M64.5 75.1V78.3c0 .3 0 .5.1.8 1.4-1.8 4.3-5.1 7.2-4.3.1-1.7.2-3.3.5-4.9-3.9-.3-6.8 3-7.7 4.1-.1.4-.1.7-.1 1.1z"/><path fill="#333" d="M64.9 81.7c0 .3.1.6.1.9 0 .1 0 .2.1.3.1.3.1.6.2.9 0 .1 0 .2.1.3 0 .2.1.3.1.5 1.1-1.7 3.5-4.6 6.6-4.1-.1-.9-.1-1.9-.2-2.8v-2c-2.9-1-6.2 3.3-7.1 4.6 0 .2 0 .4.1.6-.1.2-.1.5 0 .8zM70.9 97.1c.3.4.5.7.8 1.1.1.1.2.3.4.4.2.2.4.5.5.7.1.2.3.3.4.5l.4.4c.6-1.2 1.9-3.3 3.4-3.5-.8-1.5-1.6-3.1-2.2-4.8-2.8 0-4.1 2.8-4.5 3.9.3.4.5.8.8 1.2-.1.1-.1.1 0 .1zM79.8 101.5c-1-1.3-1.9-2.6-2.7-4.1v.1c-1.2-.2-2.6 2-3.2 3.3.2.2.4.5.7.7h5.2z"/><path fill="#333" d="M68.6 93.5c.2.3.3.6.5.9 0 .1.1.2.1.2.1.2.2.3.3.5.6-1.4 2.1-3.7 4.7-3.9-.5-1.5-1-3.1-1.3-4.6-3.2-.5-4.9 3.4-5.3 4.7.3.7.6 1.4 1 2.1v.1z"/><path fill="#333" d="M66.1 87.3c.1.2.1.5.2.7.1.2.1.4.2.6.1.2.1.4.2.6.1.2.1.4.2.6 0 .1.1.3.1.4.8-1.8 2.6-4.7 5.6-4.5-.3-1.5-.5-2.9-.7-4.4-3.1-.7-5.7 3.1-6.4 4.4.1.2.1.5.2.7.2.2.3.6.4.9z"/></svg>