<svg xmlns:xlink="http://www.w3.org/1999/xlink"  xmlns="http://www.w3.org/2000/svg" viewBox="0 0 150 150"><path fill="#EF7622" d="M101.5 112.6c-1.3.8-2.6 1.6-3.9 2.6 1.3-.8 2.6-1.7 3.9-2.6zM62.7 82.6c.4.3.8.7 1.1 1.1l7.8-4.2c-.9-1.5-2.1-3-3.6-4.1-6-4.6-14.7-3.5-19.4 2.6-4.6 6-3.5 14.7 2.6 19.4 6 4.6 14.7 3.5 19.4-2.6C73.2 91.2 74 86.9 73 83l-8.1 3.6c.1 1.4-.2 2.8-1.1 3.9-1.9 2.5-5.5 3-7.9 1-2.5-1.9-2.9-5.5-1-7.9 1.8-2.4 5.3-2.9 7.8-1z"/><path fill="#EF7622" d="M73.5 28.4c-25.8 0-46.7 21-46.7 46.7 0 25.8 21 46.7 46.7 46.7 7.8 0 15.2-1.9 21.6-5.3-2.3-1.8-5-3.9-6.2-4.8-2.4-1.8-.7-12.2.1-18.6.8-6.4-1.7-17.5-1.7-17.5H86c3.5 13-1.1 20.7-1.1 20.7s-.7-.4-1.6-1.1c1.7-4.1 2.4-11.5-.3-18.5l-7 4.6c.1.3.2.5.2.8l.7-.2c.2.8.3 1.6.4 2.4l-.8.1c.1.8.1 1.5.1 2.3h.8c0 .8-.1 1.6-.2 2.4l-.8-.1c-.1.8-.3 1.5-.5 2.2l.8.2c-.2.8-.5 1.5-.8 2.3l-.8-.4c-.3.7-.7 1.4-1.1 2l.7.5c-.3.5-.7 1-1 1.5-.5.6-1 1.2-1.6 1.8l-.7-.7c-.5.5-1.1 1-1.7 1.5l.6.8c-.6.5-1.3.9-2 1.3l-.5-.8c-.7.4-1.4.7-2.1 1l.4.9c-.7.3-1.5.5-2.3.7l-.2-1c-.7.2-1.5.3-2.2.4l.1 1c-.8.1-1.6.1-2.4.1v-1c-.8 0-1.5-.1-2.3-.2l-.2 1c-.8-.1-1.6-.3-2.3-.5l.3-1c-.7-.2-1.4-.5-2.1-.8l-.4.9c-.7-.3-1.4-.7-2.1-1.1l.5-.8c-.5-.3-.9-.6-1.4-.9-.2-.1-.3-.3-.5-.4l-.6.7c-.6-.5-1.2-1.1-1.7-1.7l.7-.6c-.5-.6-1-1.1-1.4-1.8l-.8.5c-.5-.7-.9-1.3-1.2-2.1l.8-.4c-.4-.7-.7-1.4-.9-2.1l-.8.3c-.3-.7-.5-1.5-.6-2.3l.8-.2c-.2-.7-.3-1.5-.3-2.3l-.8.1c-.1-.8-.1-1.6 0-2.4l.8.1c0-.8.1-1.5.3-2.3l-.8-.2c.2-.8.4-1.6.6-2.3l.7.3c.2-.7.5-1.4.9-2.1l-.6-.3 1.2-2.1.6.4.6-.9c.3-.3.5-.7.8-1l-.5-.5c.5-.6 1.1-1.2 1.7-1.7l.4.5c.6-.5 1.2-1 1.9-1.4l-.4-.3c.7-.4 1.4-.8 2.1-1.1l.3.6c.7-.3 1.4-.6 2.2-.8l-.2-.6c.8-.2 1.5-.4 2.3-.5l.1.6c.8-.1 1.5-.2 2.3-.2v-.6c.8 0 1.6 0 2.4.1l-.1.6c.8.1 1.5.2 2.3.4l.1-.6c.8.2 1.5.4 2.3.7l-.2.6c.7.3 1.4.6 2.1 1l.3-.5c.7.4 1.4.8 2 1.3l-.4.5c.6.5 1.2 1 1.7 1.5l.5-.5c.6.6 1.1 1.2 1.6 1.8l-.5.3c.5.6.9 1.2 1.3 1.9l7.2-3.9c-.2-.3-.4-.7-.6-1-4.9-8-19.5-12-19.5-12s17.6-4.3 23.2 11l5.3-3.7-3.9-.9s-1.7-1.3-2.3-1.8c6.8-7.6 22.7-11.1 24.8-11.4 2.1-.3-.4 2.4-1.4 2.5-1 .1-12.2 5.2-12.5 6.2-.2.5.2 1.2.6 1.8 4.4-2.8 9.3-5.3 10.8-4.2 1.4.9 1.8 1.4 1.8 1.4l-1.6 1.2 5.8 4.5-1.8 2.4-4.9-3.6-1.3 1.1s3.5 2.2 4.8 4.7c1.3 2.5-2.7 6.6-2.7 6.6l-1.5-1.2-2 2.6s-2.7 10.2 7.3 17.8c.9.7 1.9 1.3 2.9 1.9.3-.5.6-.9.9-1.4-.6-.3-1.1-.6-1.6-1-10.6-7-7.5-18.4-6.9-17.9.6.5 3.4 2.6 3.4 2.6s1.4 3.4 7.4 8c.4.3.8.6 1.2.8 1.8-5 2.8-10.3 2.8-15.9.1-25.7-20.9-46.7-46.7-46.7zM39.8 69.2l.5 2.9-2.6-1.4-2.6 1.4.5-2.9-2.1-2.1 2.9-.4 1.3-2.7 1.3 2.7 2.9.4-2.1 2.1zm10.6-15.8L47.8 52l-2.6 1.4.5-2.9-2.1-2.1 2.9-.4 1.3-2.7 1.3 2.7 2.9.4-2.1 2.1.5 2.9zM71 38.6l-1 2.8-1.6-2.5-3-.1 1.9-2.3-.8-2.9 2.8 1.1 2.5-1.6-.2 3 2.3 1.9-2.9.6zM95.1 46l-2.5-1.6-2.7 1.2.8-2.9-1.9-2.3 3-.2 1.5-2.5 1.1 2.8 2.9.7-2.5 1.8.3 3z"/><path fill="#8B2A1C" d="M37.7 64l-1.3 2.7-3 .4 2.2 2.1-.5 2.9 2.6-1.4 2.6 1.4-.5-2.9 2.2-2.1-3-.4zM49.1 47.9l-1.3-2.6-1.3 2.6-3 .5 2.1 2.1-.5 2.9 2.7-1.4 2.6 1.4-.5-2.9 2.1-2.1zM71.8 33l-2.5 1.7-2.8-1.1.8 2.8-1.9 2.3 3 .2 1.6 2.5 1-2.8 2.9-.7-2.3-1.9zM94.2 40.4l-1-2.7-1.6 2.5-3 .2 2 2.3-.8 2.8 2.8-1.1 2.5 1.6-.3-3 2.3-1.9z"/><path fill="#332A22" d="M141.3 91.6l-4.7-10.2c-2.6-6-2.8-12.5-.8-18.3l3.7-9.9c2.3-6.1-.8-12.9-6.9-15.1l-9.2-3.4c-6.1-2.3-10.8-6.6-13.6-11.9l-4.2-9.1c-2.7-5.9-9.7-8.5-15.6-5.8l-8.3 3.8c-6 2.6-12.4 2.7-18.2.8L52 8.2c-3.7-1.4-7.6-.8-10.7 1.3-2 1.3-3.6 3.3-4.5 5.7L33.1 25c-.2.5-.3 1-.5 1.5-2.4 5.8-6.8 10.7-13 13.5l-7.8 3.6c-2 .9-3.6 2.3-4.8 4-2.3 3.3-2.8 7.7-1 11.6l3.7 8c2.8 5.8 3 12.1 1.3 17.8L7 95.5c-2.3 6.1.8 12.9 6.9 15.1l9.3 3.5c6.2 2.4 11 6.9 13.7 12.4l4.9 10.6c2.7 5.9 9.7 8.5 15.6 5.8l9.9-4.5c5.9-2.7 12.3-3 18.1-1.2l8.9 3.3c6.1 2.3 12.9-.8 15.1-6.9l2.9-7.9c2.4-6.1 6.8-10.8 12.3-13.6l10.7-4.9c6.1-2.7 8.7-9.7 6-15.6zm-1.9-.4c.2-.1.4 0 .4.2l.3.6.3.6c.2.4.3.8.4 1.3 0 .2-.1.4-.2.4-.2 0-.4-.1-.4-.2-.1-.4-.2-.8-.4-1.2-.1-.2-.2-.4-.2-.6l-.3-.6c-.2-.2-.1-.4.1-.5zm-3.8-8.1c.2-.1.4 0 .4.2l1.1 2.3c.1.2 0 .4-.2.4-.2.1-.4 0-.4-.2l-1.1-2.3c0-.2.1-.4.2-.4zm0-23.3c-.1.2-.3.3-.4.2-.2-.1-.3-.2-.2-.4l.9-2.4c.1-.2.3-.3.4-.2.2.1.3.3.2.4l-.9 2.4zm1.6-4.2c-.1.2-.3.3-.4.2-.2-.1-.3-.2-.2-.4l.9-2.4c.1-.2.3-.3.4-.2.2.1.3.3.2.4l-.9 2.4zm1.7-6.9c0 .9 0 1.8-.2 2.6 0 .2-.2.3-.4.3s-.3-.2-.2-.4c.2-.8.2-1.6.2-2.5 0-.2.1-.3.3-.3.1-.1.3.1.3.3zm-1.6-4.6c.2-.1.4 0 .4.1.4.8.7 1.6.9 2.5 0 .2-.1.4-.3.4-.2 0-.3-.1-.4-.3-.2-.8-.5-1.6-.9-2.3.1-.1.1-.3.3-.4zm-3-3.3c.1-.1.3-.2.5-.1.7.5 1.3 1.2 1.9 1.8.1.2.1.4-.1.5-.1.1-.3.1-.5 0-.5-.7-1.1-1.2-1.8-1.7-.1-.2-.1-.4 0-.5zm-.4 21.8c0-.1.1-.2.1-.3l.1-.3.2-.6c.1-.2.3-.3.4-.2.2.1.3.2.2.4l-.2.6-.1.3c0 .1-.1.2-.1.3-.1.4-.3.8-.4 1.2 0 .2-.2.3-.4.2-.2 0-.3-.2-.2-.4.1-.4.2-.8.4-1.2zm-.8 11.9c.2 0 .3.1.4.3.1.8.3 1.7.5 2.5 0 .2-.1.3-.2.4-.2 0-.4-.1-.4-.2-.2-.8-.4-1.7-.5-2.5-.2-.3 0-.5.2-.5zm-.5-1.6c-.1-.9-.1-1.7 0-2.6 0-.2.2-.3.3-.3.2 0 .3.2.3.3v2.5c0 .2-.1.3-.3.4-.2 0-.3-.1-.3-.3zm1.1-7c-.2.8-.3 1.7-.4 2.5 0 .2-.2.3-.4.3s-.3-.2-.3-.4c.1-.9.2-1.7.4-2.6 0-.2.2-.3.4-.3.2.2.3.3.3.5zm-3.1-27.2l1.2.4c.2.1.4.1.6.2l.6.3c.2.1.2.3.2.4-.1.2-.3.2-.4.1l-.6-.3c-.2-.1-.4-.1-.6-.2l-1.2-.4c-.2-.1-.3-.3-.2-.4.1-.1.3-.2.4-.1zm2 10.9c0 1.5-1.2 2.6-2.6 2.6-1.5 0-2.6-1.2-2.6-2.6 0-1.5 1.2-2.6 2.6-2.6 1.4 0 2.6 1.2 2.6 2.6zm-31.2 83.1c0 1.4-1.2 2.6-2.6 2.6-1.5 0-2.6-1.2-2.6-2.6 0-1.5 1.2-2.6 2.6-2.6 1.4-.1 2.6 1.1 2.6 2.6zm-46.9 0c0 1.4-1.2 2.6-2.6 2.6-1.5 0-2.6-1.2-2.6-2.6 0-1.5 1.2-2.6 2.6-2.6 1.4-.1 2.6 1.1 2.6 2.6zM73.7 21.8c29.6 0 53.6 24 53.6 53.6s-24 53.6-53.6 53.6-53.6-24-53.6-53.6 24-53.6 53.6-53.6zm52.7 15.3l2.4.9c.2.1.3.3.2.4-.1.2-.3.3-.4.2l-2.4-.9c-.2-.1-.3-.3-.2-.4 0-.1.2-.2.4-.2zm-4.2-1.5c.4.2.8.3 1.2.5l1.2.4c.2.1.3.3.2.4-.1.2-.3.3-.4.2l-1.2-.4c-.4-.1-.8-.3-1.2-.5-.2-.1-.3-.3-.2-.4 0-.2.2-.3.4-.2zm-4.4-1.9c.1-.1.3-.2.5-.1.7.4 1.5.8 2.2 1.2.2.1.2.3.2.4-.1.2-.3.2-.4.2-.8-.4-1.5-.8-2.3-1.2-.3-.2-.3-.4-.2-.5zm-3.6-2.7c.1-.1.3-.1.5 0 .6.6 1.3 1.1 2 1.6.1.1.2.3.1.5s-.3.2-.5.1c-.7-.5-1.4-1-2-1.6-.2-.3-.2-.5-.1-.6zm-3.1-3.3c.1-.1.3-.1.5 0 .5.6 1.1 1.3 1.7 1.9.1.1.1.3 0 .5-.1.1-.3.1-.5 0-.6-.6-1.2-1.3-1.7-1.9-.2-.2-.1-.4 0-.5zm-2.5-3.7c.2-.1.4 0 .5.1.4.7.9 1.4 1.4 2.1.1.1.1.4-.1.5-.1.1-.4.1-.5-.1-.5-.7-1-1.4-1.4-2.2-.1-.1-.1-.3.1-.4zm-1.9-4.1c.2-.1.4 0 .4.2l1.1 2.3c.1.2 0 .4-.2.4-.2.1-.4 0-.4-.2l-1.1-2.3c-.1-.1 0-.3.2-.4zm-1.9-4.1c.2-.1.4 0 .4.2l1.1 2.3c.1.2 0 .4-.2.4-.2.1-.4 0-.4-.2l-1.1-2.3c0-.1 0-.3.2-.4zm-2.2-3.9c.1-.1.3-.1.5.1.5.7 1 1.4 1.4 2.2.1.2 0 .4-.2.4-.2.1-.4 0-.4-.2-.3-.8-.8-1.5-1.3-2.1-.2-.1-.1-.3 0-.4zM99 9.2c.1-.2.3-.2.5-.1.8.4 1.5.9 2.2 1.4.1.1.2.3 0 .5-.1.1-.3.1-.5 0-.6-.5-1.3-1-2.1-1.4-.1 0-.2-.2-.1-.4zM95 8c.9 0 1.8.1 2.6.4.2 0 .3.2.2.4 0 .2-.2.3-.4.2-.8-.2-1.6-.3-2.4-.3-.2 0-.3-.1-.3-.3-.1-.3.1-.4.3-.4zm1 10.4c0 1.5-1.2 2.6-2.6 2.6-1.5 0-2.6-1.2-2.6-2.6 0-1.5 1.2-2.6 2.6-2.6 1.4 0 2.6 1.2 2.6 2.6zm-5.5-9.5c.8-.4 1.6-.6 2.5-.8.2 0 .4.1.4.3 0 .2-.1.3-.3.4-.8.1-1.6.4-2.4.7-.2.1-.4 0-.4-.2-.1-.1 0-.3.2-.4zm-4.1 1.9l2.3-1.1c.2-.1.4 0 .4.2.1.2 0 .4-.2.4l-2.3 1.1c-.2.1-.4 0-.4-.2-.1-.1 0-.3.2-.4zm-4.1 1.9l2.3-1.1c.2-.1.4 0 .4.2.1.2 0 .4-.2.4l-2.3 1.1c-.2.1-.4 0-.4-.2s0-.4.2-.4zm-4.2 1.4c.8-.2 1.6-.5 2.4-.7.2-.1.4 0 .4.2.1.2 0 .4-.2.4-.8.3-1.6.5-2.5.8-.2 0-.4-.1-.4-.2 0-.3.1-.4.3-.5zm-4.4.8c.8-.1 1.7-.2 2.5-.3.2 0 .3.1.4.3 0 .2-.1.4-.3.4-.8.1-1.7.3-2.6.3-.2 0-.3-.1-.4-.3.1-.3.2-.4.4-.4zm-4.4 0c.8.1 1.7.1 2.5.1.2 0 .3.1.3.3 0 .2-.1.3-.3.3-.9 0-1.7 0-2.6-.1-.2 0-.3-.2-.3-.4 0-.1.2-.3.4-.2zm-4.4-.8c.8.2 1.6.4 2.5.5.2 0 .3.2.3.4s-.2.3-.4.3c-.9-.1-1.7-.3-2.5-.5-.2 0-.3-.2-.2-.4-.1-.2.1-.3.3-.3zm-4.2-1.4l2.4.9c.2.1.3.2.2.4 0 .2-.2.3-.4.2l-2.4-.9c-.2-.1-.3-.3-.2-.4 0-.2.2-.3.4-.2zm-4.3-1.6l2.4.9c.2.1.3.3.2.4-.1.2-.3.3-.4.2l-2.4-.9c-.2 0-.2-.2-.2-.4.1-.1.3-.2.4-.2zm-4.2-1.5l2.4.9c.2.1.3.3.2.4-.1.2-.3.3-.4.2l-2.4-.9c-.2-.1-.3-.3-.2-.4.1-.2.3-.3.4-.2zm-4.5-.9c.9 0 1.8.1 2.6.3.2 0 .3.2.2.4 0 .2-.2.3-.4.2-.8-.2-1.6-.3-2.4-.3-.2 0-.3-.1-.3-.3 0-.2.1-.3.3-.3zm2.2 10.1c0 1.5-1.2 2.6-2.6 2.6-1.5 0-2.6-1.2-2.6-2.6 0-1.5 1.2-2.6 2.6-2.6 1.4-.1 2.6 1.1 2.6 2.6zm-6.7-9c.8-.4 1.6-.7 2.5-.9.2 0 .4.1.4.3 0 .2-.1.3-.3.4-.8.2-1.6.5-2.3.8-.2.1-.3 0-.4-.1-.1-.2 0-.4.1-.5zm-3.5 2.9c.5-.7 1.2-1.3 1.9-1.9.1-.1.4-.1.5.1.1.1.1.4-.1.5-.7.5-1.2 1.1-1.8 1.7-.1.1-.3.2-.5.1-.1-.1-.2-.3 0-.5zm-1.6 2.9c.1-.4.3-.8.5-1.2.1-.2.3-.2.4-.1.2.1.2.3.1.4-.2.4-.4.7-.5 1.1l-.4 1.2c-.1.2-.2.3-.4.2-.2-.1-.3-.3-.2-.4l.5-1.2zm-1.2 3c.1-.2.3-.3.4-.2.2.1.3.3.2.4l-.9 2.4c-.1.2-.3.3-.4.2-.2-.1-.3-.3-.2-.4l.9-2.4zm-1.5 4.3c.1-.2.3-.3.4-.2.2.1.3.3.2.4l-.9 2.4c-.1.2-.2.3-.4.2-.2-.1-.3-.3-.2-.4l.9-2.4zm-2.7 6.4c.4-.7.8-1.5 1.1-2.3.1-.2.3-.3.4-.2.2.1.3.3.2.4-.3.8-.7 1.6-1.1 2.3-.1.2-.3.2-.4.1-.2.1-.3-.1-.2-.3zm-2.4 3.8c.5-.7 1-1.4 1.4-2.1.1-.1.3-.2.5-.1s.2.3.1.5l-1.5 2.1c-.1.1-.3.2-.5.1-.1-.2-.1-.4 0-.5zm-3 3.3l1.8-1.8c.1-.1.3-.1.5 0 .1.1.2.3 0 .5-.6.6-1.2 1.3-1.8 1.9-.1.1-.3.1-.5 0-.1-.3-.1-.5 0-.6zm-3.4 2.7c.7-.5 1.4-1 2-1.5.1-.1.3-.1.5 0 .1.1.1.3-.1.5-.7.5-1.4 1.1-2.1 1.5-.2.1-.4.1-.5-.1 0-.1 0-.3.2-.4zm-4 2.1c.8-.3 1.5-.7 2.3-1.1.2-.1.4 0 .4.1.1.2 0 .4-.1.5-.8.4-1.5.8-2.3 1.2-.2.1-.4 0-.4-.2-.1-.2 0-.4.1-.5zm-4 1.9l2.3-1.1c.2-.1.4 0 .4.2.1.2 0 .4-.2.4l-2.3 1.1c-.2.1-.4 0-.4-.2-.1-.1 0-.3.2-.4zm2.4 12.5c0 1.5-1.2 2.6-2.6 2.6-1.5 0-2.6-1.2-2.6-2.6 0-1.5 1.2-2.6 2.6-2.6 1.4-.1 2.6 1.1 2.6 2.6zM13.2 80c0-.2.2-.3.4-.3s.3.2.3.4c-.1.9-.2 1.7-.4 2.6 0 .2-.2.3-.4.3s-.3-.2-.3-.4c.2-.9.3-1.8.4-2.6zm-.7-8.8c0-.2.1-.4.2-.4.2-.1.4.1.4.2.2.8.4 1.7.5 2.5 0 .2-.1.4-.3.4-.2 0-.3-.1-.4-.3 0-.8-.2-1.6-.4-2.4zm1.1 7.2c-.2 0-.3-.2-.3-.3 0-.8 0-1.7-.1-2.5 0-.2.1-.3.3-.4.2 0 .3.1.4.3.1.9.1 1.7.1 2.6 0 .2-.2.3-.4.3zM11.8 45l.6-.3.6-.3 1.2-.5c.2-.1.4 0 .4.2.1.2 0 .4-.2.4l-1.2.5-.6.3-.6.3c-.2.1-.3 0-.4-.1-.1-.2 0-.4.2-.5zm-3.5 3.1c.5-.7 1.1-1.4 1.8-1.9.1-.1.4-.1.5 0 .1.1.1.3 0 .5-.6.5-1.2 1.1-1.7 1.8-.1.1-.3.2-.5.1-.2-.2-.2-.4-.1-.5zm-1 1.7c.1-.2.3-.2.4-.2.2.1.2.3.2.4-.4.7-.6 1.5-.8 2.3 0 .2-.2.3-.4.3s-.3-.2-.3-.4c.2-.7.5-1.6.9-2.4zm-.2 7.4c-.2.1-.4-.1-.4-.2-.2-.9-.4-1.7-.4-2.6 0-.2.2-.3.3-.3.2-.1.4 0 .4.2 0 .8.1 1.6.3 2.4 0 .2-.1.4-.2.5zm1.8 4.1c-.2.1-.4 0-.4-.2l-1.1-2.3c-.1-.2 0-.4.2-.4.2-.1.4 0 .4.2l1 2.3c.1.1 0 .3-.1.4zm1.8 4.1c-.2.1-.4 0-.4-.2l-1.1-2.3c-.1-.2 0-.4.2-.4.2-.1.4 0 .4.2l1.1 2.3c.1.1 0 .3-.2.4zm1.3 3.9l-.9-2.4c-.1-.2 0-.4.2-.4.2-.1.4 0 .4.2.4.8.7 1.6.9 2.4.1.2 0 .4-.2.4-.2.1-.3 0-.4-.2zm-1 19.3c.1-.2.3-.3.4-.2.2.1.3.2.2.4l-.9 2.4c-.1.2-.3.3-.4.2-.2-.1-.3-.3-.2-.4l.9-2.4zm-1.6 4.2c.1-.2.3-.3.4-.2.2.1.3.3.2.4l-.9 2.4c-.1.2-.3.3-.4.2-.2-.1-.3-.2-.2-.4l.9-2.4zm-1.8 6.9c0-.9.1-1.8.3-2.6 0-.2.2-.3.4-.2.2.1.3.2.2.4-.2.8-.3 1.6-.3 2.4 0 .2-.1.3-.3.3-.2 0-.3-.1-.3-.3zm1.4 4.7c-.2.1-.4 0-.4-.2-.4-.8-.7-1.6-.8-2.5 0-.2.1-.4.3-.4.2 0 .3.1.4.3.2.8.4 1.6.8 2.3 0 .2-.1.4-.3.5zm2.9 3.4c-.1.1-.3.2-.5.1-.7-.5-1.3-1.2-1.8-1.9-.1-.1-.1-.4.1-.5.1-.1.3-.1.5.1.5.7 1.1 1.3 1.7 1.8.1 0 .1.2 0 .4zm.8-22l-.4 1.2c-.1.2-.3.3-.4.2-.2-.1-.3-.2-.2-.4l.4-1.2c.1-.2.1-.4.2-.6.1-.2.1-.4.2-.6 0-.2.2-.3.4-.2.2 0 .3.2.2.4-.1.2-.1.4-.2.6-.1.2-.1.4-.2.6zm2.8 24.1l-1.2-.4c-.4-.2-.8-.3-1.2-.5-.2-.1-.2-.3-.1-.4.1-.2.3-.2.4-.1.4.2.7.4 1.1.5l1.2.4c.2.1.3.3.2.4 0 .1-.2.2-.4.1zm-1-9.9c0-1.5 1.2-2.6 2.6-2.6 1.5 0 2.6 1.2 2.6 2.6 0 1.5-1.2 2.6-2.6 2.6-1.4.1-2.6-1.1-2.6-2.6zm5.3 11.5l-2.4-.9c-.2-.1-.3-.3-.2-.4.1-.2.3-.3.4-.2l2.4.9c.2.1.3.3.2.4-.1.1-.3.2-.4.2zM24 113l-2.4-.9c-.2-.1-.3-.3-.2-.4.1-.2.3-.3.4-.2l2.4.9c.2.1.3.3.2.4-.1.2-.3.3-.4.2zm4.4 1.9c-.1.2-.3.2-.4.1-.7-.4-1.5-.8-2.2-1.2-.2-.1-.2-.3-.2-.4.1-.2.3-.2.4-.2.8.4 1.5.8 2.3 1.2.2.1.2.3.1.5zm3.6 2.7c-.1.1-.3.1-.5 0-.6-.5-1.3-1.1-2-1.5-.2-.1-.2-.3-.1-.5s.3-.2.5-.1c.7.5 1.4 1 2 1.6.2.1.3.3.1.5zm3.2 3.2c-.1.1-.3.1-.5 0-.5-.6-1.1-1.3-1.7-1.9-.1-.1-.1-.3 0-.5.1-.1.3-.1.5 0 .6.6 1.2 1.2 1.8 1.9 0 .2 0 .4-.1.5zm2.5 3.7c-.2.1-.4 0-.5-.1-.4-.7-.9-1.4-1.4-2.1-.1-.1-.1-.3.1-.5.1-.1.4-.1.5.1.5.7 1 1.4 1.4 2.2.1.1.1.3-.1.4zm2 4c-.2.1-.4 0-.4-.2l-1.1-2.3c-.1-.2 0-.4.1-.4.2-.1.4 0 .4.2l1.1 2.3c.1.2 0 .4-.1.4zm1.8 4.1c-.2.1-.4 0-.4-.2l-1.1-2.3c-.1-.2 0-.4.2-.4.2-.1.4 0 .4.2l1.1 2.3c.1.2 0 .4-.2.4zm1.9 4.1c-.2.1-.4 0-.4-.2l-1.1-2.3c-.1-.2 0-.4.2-.4.2-.1.4 0 .4.2l1.1 2.3c.1.2 0 .3-.2.4zm2.8 3.5c-.1.1-.3.2-.5 0-.7-.6-1.3-1.2-1.8-1.9-.1-.2-.1-.4.1-.5.2-.1.4-.1.5.1.5.7 1 1.3 1.7 1.8.1.2.1.4 0 .5zm3.6 2.2c-.8-.2-1.7-.6-2.4-1-.2-.1-.2-.3-.1-.5s.3-.2.4-.1c.7.4 1.5.7 2.3.9.2 0 .3.2.2.4 0 .2-.2.3-.4.3zm4.6.2c-.9.2-1.8.2-2.6.1-.2 0-.3-.2-.3-.4s.2-.3.4-.3c.8.1 1.7 0 2.5-.1.2 0 .3.1.4.3-.1.2-.2.4-.4.4zm4.3-1.6l-1.2.5-.6.3-.6.3c-.2.1-.4 0-.4-.2-.1-.2 0-.4.2-.4.2-.1.4-.2.6-.2l.6-.3 1.2-.5c.2-.1.4 0 .4.2.1 0 0 .2-.2.3zm4.1-1.9l-2.3 1.1c-.2.1-.4 0-.4-.2-.1-.2 0-.4.2-.4l2.3-1.1c.2-.1.4 0 .4.2 0 .1 0 .3-.2.4zm4.1-1.9l-2.3 1.1c-.2.1-.4 0-.4-.2-.1-.2 0-.4.2-.4l2.3-1.1c.2-.1.4 0 .4.2s0 .4-.2.4zm4.2-1.5c-.8.2-1.6.5-2.4.8-.2.1-.4 0-.4-.2-.1-.2 0-.4.2-.4.8-.3 1.6-.6 2.5-.8.2-.1.4.1.4.2 0 .2-.1.4-.3.4zm4.4-.8c-.8.1-1.7.2-2.5.4-.2 0-.3-.1-.4-.3 0-.2.1-.3.3-.4.8-.2 1.7-.3 2.6-.4.2 0 .4.1.4.3-.1.3-.3.4-.4.4zm4.4 0c-.8-.1-1.7-.1-2.5-.1-.2 0-.3-.1-.3-.3 0-.2.1-.3.3-.3.9 0 1.7 0 2.6.1.2 0 .3.2.3.4-.1.1-.2.2-.4.2zm4.4.7c-.8-.2-1.7-.4-2.5-.5-.2 0-.3-.2-.3-.4s.2-.3.4-.3c.9.1 1.7.3 2.5.5.2 0 .3.2.2.4 0 .2-.1.3-.3.3zm4.2 1.4l-2.4-.9c-.1 0-.1-.1-.2-.2v-.3c0-.1.1-.2.2-.2h.2l2.4.9c.2.1.3.3.2.4 0 .3-.2.4-.4.3zm4.2 1.6l-2.4-.9c-.2-.1-.3-.3-.2-.4.1-.2.2-.3.4-.2l2.5.9c.2.1.3.3.2.4-.1.1-.3.2-.5.2zm4.4 1.3c-.4-.1-.9-.1-1.3-.3-.2-.1-.4-.1-.6-.2-.1 0-.2-.1-.3-.1l-.3-.1c-.2-.1-.3-.3-.2-.4.1-.2.3-.3.4-.2l.3.1c.1 0 .2.1.3.1.2.1.4.1.6.2.4.1.8.2 1.2.2.2 0 .3.2.3.4-.1.2-.2.4-.4.3zm7.5-1.8c-.7.5-1.5.9-2.3 1.2-.2.1-.4 0-.4-.2.1.2 0 .4-.2.4-.8.3-1.7.4-2.6.5-.2 0-.3-.1-.4-.3 0-.2.1-.3.3-.3.8 0 1.6-.2 2.4-.4.2-.1.4 0 .4.2-.1-.2 0-.4.2-.4.8-.3 1.5-.7 2.2-1.2.1-.1.3-.1.5.1.1 0 .1.2-.1.4zm3.1-3.5c-.4.8-.9 1.5-1.6 2.1-.1.1-.3.1-.5 0-.1-.1-.1-.3 0-.5.6-.6 1.1-1.3 1.5-2 .1-.2.3-.2.4-.1.2.1.3.3.2.5zm.8-1.8c-.1.2-.3.3-.4.2-.2-.1-.3-.2-.2-.4l.9-2.4c.1-.2.3-.3.4-.2.2.1.3.3.2.4l-.9 2.4zm1.6-4.2c-.1.2-.3.3-.4.2-.2-.1-.3-.3-.2-.4l.9-2.4c.1-.2.3-.3.4-.2.2.1.3.3.2.4l-.9 2.4zm2.7-6.5c-.4.7-.8 1.5-1.1 2.3-.1.2-.3.2-.4.2-.2-.1-.2-.3-.2-.4.3-.8.7-1.6 1.1-2.3.1-.2.3-.2.4-.1.2-.1.2.1.2.3zm2.4-3.7c-.5.7-1 1.3-1.5 2.1-.1.1-.3.2-.5.1-.1-.1-.2-.3-.1-.5l1.5-2.1c.1-.1.3-.2.5-.1s.2.3.1.5zm3-3.3l-1.8 1.8c-.1.1-.3.1-.5 0-.1-.1-.1-.3 0-.5.6-.6 1.2-1.3 1.8-1.8.1-.1.3-.1.5 0 .1.2.1.4 0 .5zm3.5-2.7c-.7.5-1.4.9-2.1 1.5-.1.1-.3.1-.5-.1-.1-.1-.1-.3.1-.5l2.1-1.5c.2-.1.4-.1.5.1.1.2.1.4-.1.5zm4-2.1l-1.2.5-.3.1-.3.1-.6.3c-.2.1-.4 0-.4-.1-.1-.1 0-.4.1-.4l.6-.3.3-.2.3-.1 1.2-.5c.2-.1.4 0 .4.2.1.1 0 .3-.1.4zm4-1.9l-2.3 1.1c-.2.1-.4 0-.4-.2-.1-.2 0-.4.2-.4l2.3-1.1c.2-.1.4 0 .4.2.1.2 0 .4-.2.4zm4.1-1.8l-2.3 1.1c-.2.1-.4 0-.4-.2-.1-.2 0-.4.2-.4l2.3-1.1c.2-.1.4 0 .4.2.1.1 0 .3-.2.4zm-2.1-7.1c-1.5 0-2.6-1.2-2.6-2.6 0-1.5 1.2-2.6 2.6-2.6 1.5 0 2.6 1.2 2.6 2.6 0 1.4-1.1 2.6-2.6 2.6zm2.9-17.8l-.9-2.4c-.1-.2 0-.4.2-.4.2-.1.4 0 .4.2.3.8.5 1.6.9 2.4.1.2 0 .4-.2.4-.1.1-.3 0-.4-.2zm3.2 22.5c-.6.6-1.4 1.1-2.1 1.5-.2.1-.4 0-.4-.1-.1-.2 0-.4.1-.4.7-.4 1.4-.9 2-1.4.1-.1.3-.1.5 0 0 0 0 .3-.1.4zm-.5-16.6c-.1-.2 0-.4.2-.4.2-.1.4 0 .4.2l1.1 2.3c.1.2 0 .4-.2.4-.2.1-.4 0-.4-.2l-1.1-2.3zm1.8 15.1c-.1.2-.3.2-.5.1-.1-.1-.2-.3-.1-.5.5-.7.9-1.4 1.2-2.2.1-.2.3-.2.4-.2.2.1.3.3.2.4-.3.9-.7 1.7-1.2 2.4zm1.8-4.2c0 .2-.2.3-.4.3s-.3-.2-.3-.4c.2-.8.2-1.6.2-2.5 0-.2.1-.3.3-.3.2 0 .3.1.4.3 0 .8 0 1.7-.2 2.6z"/><path fill="#332A22" d="M73.5 122.8c12.1 0 23.1-4.5 31.5-11.9 2.9-2.6 5.5-5.5 7.7-8.7l1.2-1.8.9-1.5c.3-.6.6-1.1 1-1.7 3.4-6.6 5.4-14 5.4-22 0-26.3-21.4-47.6-47.6-47.6C47.3 27.6 26 49 26 75.2c-.1 26.2 21.3 47.6 47.5 47.6zm0-94.4c25.8 0 46.7 21 46.7 46.7 0 5.6-1 10.9-2.8 15.9-.9 2.6-2.1 5.1-3.5 7.4-.3.5-.6 1-.9 1.4-3.1 4.9-7 9.2-11.7 12.7-1.2.9-2.5 1.8-3.9 2.6-.8.5-1.6.9-2.5 1.4-6.5 3.4-13.8 5.3-21.6 5.3-25.8 0-46.7-21-46.7-46.7.2-25.7 21.1-46.7 46.9-46.7z"/></svg>